0, 0, Header, 1, 4, 480
1, 0, Start_track
1, 0, Unknown_meta_event, 8, 48, 84, 104, 101, 32, 65, 114, 116, 32, 111, 102, 32, 70, 117, 103, 117, 101, 32, 67, 111, 110, 116, 114, 97, 112, 117, 110, 99, 116, 117, 115, 32, 73, 73, 73, 32, 40, 65, 32, 61, 32, 52, 49, 53, 32, 72, 122, 41, 0
1, 0, Unknown_meta_event, 9, 9, 66, 87, 86, 32, 49, 48, 56, 48, 0
1, 0, Unknown_meta_event, 10, 11, 74, 46, 32, 83, 46, 32, 66, 97, 99, 104, 0
1, 0, Time_signature, 4, 2, 24, 8
1, 0, Key_signature, 4, "major"
1, 0, Program_c, 0, 46
1, 2, Control_c, 0, 7, 100
1, 4, Control_c, 0, 10, 64
1, 6, Control_c, 0, 91, 30
1, 8, Control_c, 0, 93, 30
1, 15360, Note_on_c, 0, 73, 80
1, 16319, Note_on_c, 0, 73, 0
1, 16320, Note_on_c, 0, 68, 80
1, 17279, Note_on_c, 0, 68, 0
1, 17280, Note_on_c, 0, 71, 80
1, 18239, Note_on_c, 0, 71, 0
1, 18240, Note_on_c, 0, 75, 80
1, 19199, Note_on_c, 0, 75, 0
1, 19200, Note_on_c, 0, 76, 80
1, 20159, Note_on_c, 0, 76, 0
1, 20160, Note_on_c, 0, 75, 80
1, 20639, Note_on_c, 0, 75, 0
1, 20640, Note_on_c, 0, 73, 80
1, 21119, Note_on_c, 0, 73, 0
1, 21120, Note_on_c, 0, 72, 80
1, 22319, Note_on_c, 0, 72, 0
1, 22320, Note_on_c, 0, 68, 80
1, 22559, Note_on_c, 0, 68, 0
1, 22560, Note_on_c, 0, 70, 80
1, 22799, Note_on_c, 0, 70, 0
1, 22800, Note_on_c, 0, 72, 80
1, 23039, Note_on_c, 0, 72, 0
1, 23040, Note_on_c, 0, 73, 80
1, 24239, Note_on_c, 0, 73, 0
1, 24240, Note_on_c, 0, 73, 80
1, 24479, Note_on_c, 0, 73, 0
1, 24480, Note_on_c, 0, 75, 80
1, 24719, Note_on_c, 0, 75, 0
1, 24720, Note_on_c, 0, 76, 80
1, 24959, Note_on_c, 0, 76, 0
1, 24960, Note_on_c, 0, 78, 80
1, 25199, Note_on_c, 0, 78, 0
1, 25200, Note_on_c, 0, 70, 80
1, 25439, Note_on_c, 0, 70, 0
1, 25440, Note_on_c, 0, 72, 80
1, 25679, Note_on_c, 0, 72, 0
1, 25680, Note_on_c, 0, 73, 80
1, 25919, Note_on_c, 0, 73, 0
1, 25920, Note_on_c, 0, 75, 80
1, 26399, Note_on_c, 0, 75, 0
1, 26400, Note_on_c, 0, 73, 80
1, 27119, Note_on_c, 0, 73, 0
1, 27120, Note_on_c, 0, 72, 80
1, 27359, Note_on_c, 0, 72, 0
1, 27360, Note_on_c, 0, 71, 80
1, 28319, Note_on_c, 0, 71, 0
1, 28320, Note_on_c, 0, 70, 80
1, 28559, Note_on_c, 0, 70, 0
1, 28560, Note_on_c, 0, 69, 80
1, 28799, Note_on_c, 0, 69, 0
1, 28800, Note_on_c, 0, 68, 80
1, 29039, Note_on_c, 0, 68, 0
1, 29040, Note_on_c, 0, 67, 80
1, 29279, Note_on_c, 0, 67, 0
1, 29280, Note_on_c, 0, 68, 80
1, 29519, Note_on_c, 0, 68, 0
1, 29520, Note_on_c, 0, 70, 80
1, 29759, Note_on_c, 0, 70, 0
1, 29760, Note_on_c, 0, 71, 80
1, 30239, Note_on_c, 0, 71, 0
1, 30240, Note_on_c, 0, 72, 80
1, 31199, Note_on_c, 0, 72, 0
1, 31200, Note_on_c, 0, 73, 80
1, 31439, Note_on_c, 0, 73, 0
1, 31440, Note_on_c, 0, 75, 80
1, 31679, Note_on_c, 0, 75, 0
1, 31680, Note_on_c, 0, 76, 80
1, 32159, Note_on_c, 0, 76, 0
1, 32160, Note_on_c, 0, 75, 80
1, 32879, Note_on_c, 0, 75, 0
1, 32880, Note_on_c, 0, 68, 80
1, 33119, Note_on_c, 0, 68, 0
1, 33120, Note_on_c, 0, 70, 80
1, 33359, Note_on_c, 0, 70, 0
1, 33360, Note_on_c, 0, 72, 80
1, 33599, Note_on_c, 0, 72, 0
1, 33600, Note_on_c, 0, 73, 80
1, 34319, Note_on_c, 0, 73, 0
1, 34320, Note_on_c, 0, 75, 80
1, 34559, Note_on_c, 0, 75, 0
1, 34560, Note_on_c, 0, 72, 80
1, 35039, Note_on_c, 0, 72, 0
1, 35040, Note_on_c, 0, 76, 80
1, 35519, Note_on_c, 0, 76, 0
1, 35520, Note_on_c, 0, 73, 80
1, 36239, Note_on_c, 0, 73, 0
1, 36240, Note_on_c, 0, 75, 80
1, 36479, Note_on_c, 0, 75, 0
1, 36480, Note_on_c, 0, 68, 80
1, 36959, Note_on_c, 0, 68, 0
1, 36960, Note_on_c, 0, 73, 80
1, 37919, Note_on_c, 0, 73, 0
1, 37920, Note_on_c, 0, 72, 80
1, 38159, Note_on_c, 0, 72, 0
1, 38160, Note_on_c, 0, 71, 80
1, 38639, Note_on_c, 0, 71, 0
1, 38640, Note_on_c, 0, 70, 80
1, 38879, Note_on_c, 0, 70, 0
1, 38880, Note_on_c, 0, 74, 80
1, 39359, Note_on_c, 0, 74, 0
1, 39360, Note_on_c, 0, 71, 80
1, 40079, Note_on_c, 0, 71, 0
1, 40080, Note_on_c, 0, 73, 80
1, 40319, Note_on_c, 0, 73, 0
1, 40320, Note_on_c, 0, 66, 80
1, 40799, Note_on_c, 0, 66, 0
1, 40800, Note_on_c, 0, 71, 80
1, 41759, Note_on_c, 0, 71, 0
1, 41760, Note_on_c, 0, 70, 80
1, 41999, Note_on_c, 0, 70, 0
1, 42000, Note_on_c, 0, 69, 80
1, 42479, Note_on_c, 0, 69, 0
1, 42480, Note_on_c, 0, 68, 80
1, 42719, Note_on_c, 0, 68, 0
1, 42720, Note_on_c, 0, 80, 80
1, 43679, Note_on_c, 0, 80, 0
1, 43680, Note_on_c, 0, 73, 80
1, 44399, Note_on_c, 0, 73, 0
1, 44400, Note_on_c, 0, 75, 80
1, 44639, Note_on_c, 0, 75, 0
1, 44640, Note_on_c, 0, 76, 80
1, 45359, Note_on_c, 0, 76, 0
1, 45360, Note_on_c, 0, 78, 80
1, 45599, Note_on_c, 0, 78, 0
1, 45600, Note_on_c, 0, 80, 80
1, 46319, Note_on_c, 0, 80, 0
1, 46320, Note_on_c, 0, 78, 80
1, 46559, Note_on_c, 0, 78, 0
1, 46560, Note_on_c, 0, 81, 80
1, 47519, Note_on_c, 0, 81, 0
1, 47520, Note_on_c, 0, 80, 80
1, 47759, Note_on_c, 0, 80, 0
1, 47760, Note_on_c, 0, 78, 80
1, 47999, Note_on_c, 0, 78, 0
1, 48000, Note_on_c, 0, 76, 80
1, 49199, Note_on_c, 0, 76, 0
1, 49200, Note_on_c, 0, 75, 80
1, 49439, Note_on_c, 0, 75, 0
1, 49440, Note_on_c, 0, 77, 80
1, 49679, Note_on_c, 0, 77, 0
1, 49680, Note_on_c, 0, 78, 80
1, 49919, Note_on_c, 0, 78, 0
1, 49920, Note_on_c, 0, 80, 80
1, 50399, Note_on_c, 0, 80, 0
1, 50400, Note_on_c, 0, 73, 80
1, 51119, Note_on_c, 0, 73, 0
1, 51120, Note_on_c, 0, 78, 80
1, 51359, Note_on_c, 0, 78, 0
1, 51360, Note_on_c, 0, 72, 80
1, 51599, Note_on_c, 0, 72, 0
1, 51600, Note_on_c, 0, 73, 80
1, 51839, Note_on_c, 0, 73, 0
1, 51840, Note_on_c, 0, 75, 80
1, 52079, Note_on_c, 0, 75, 0
1, 52080, Note_on_c, 0, 76, 80
1, 52319, Note_on_c, 0, 76, 0
1, 52320, Note_on_c, 0, 78, 80
1, 52559, Note_on_c, 0, 78, 0
1, 52560, Note_on_c, 0, 75, 80
1, 52799, Note_on_c, 0, 75, 0
1, 52800, Note_on_c, 0, 76, 80
1, 53999, Note_on_c, 0, 76, 0
1, 54000, Note_on_c, 0, 76, 80
1, 54239, Note_on_c, 0, 76, 0
1, 54240, Note_on_c, 0, 75, 80
1, 54479, Note_on_c, 0, 75, 0
1, 54480, Note_on_c, 0, 73, 80
1, 54719, Note_on_c, 0, 73, 0
1, 54720, Note_on_c, 0, 71, 80
1, 55439, Note_on_c, 0, 71, 0
1, 55440, Note_on_c, 0, 73, 80
1, 55679, Note_on_c, 0, 73, 0
1, 55680, Note_on_c, 0, 75, 80
1, 56159, Note_on_c, 0, 75, 0
1, 80640, Note_on_c, 0, 75, 80
1, 81599, Note_on_c, 0, 75, 0
1, 81600, Note_on_c, 0, 68, 80
1, 82559, Note_on_c, 0, 68, 0
1, 82560, Note_on_c, 0, 71, 80
1, 83519, Note_on_c, 0, 71, 0
1, 83520, Note_on_c, 0, 75, 80
1, 84479, Note_on_c, 0, 75, 0
1, 84480, Note_on_c, 0, 76, 80
1, 85439, Note_on_c, 0, 76, 0
1, 85440, Note_on_c, 0, 75, 80
1, 85919, Note_on_c, 0, 75, 0
1, 85920, Note_on_c, 0, 73, 80
1, 86399, Note_on_c, 0, 73, 0
1, 86400, Note_on_c, 0, 71, 80
1, 87599, Note_on_c, 0, 71, 0
1, 87600, Note_on_c, 0, 68, 80
1, 87839, Note_on_c, 0, 68, 0
1, 87840, Note_on_c, 0, 70, 80
1, 88079, Note_on_c, 0, 70, 0
1, 88080, Note_on_c, 0, 72, 80
1, 88319, Note_on_c, 0, 72, 0
1, 88320, Note_on_c, 0, 73, 80
1, 88559, Note_on_c, 0, 73, 0
1, 88560, Note_on_c, 0, 71, 80
1, 88799, Note_on_c, 0, 71, 0
1, 88800, Note_on_c, 0, 70, 80
1, 89039, Note_on_c, 0, 70, 0
1, 89040, Note_on_c, 0, 68, 80
1, 89279, Note_on_c, 0, 68, 0
1, 89280, Note_on_c, 0, 70, 80
1, 89759, Note_on_c, 0, 70, 0
1, 89760, Note_on_c, 0, 71, 80
1, 90479, Note_on_c, 0, 71, 0
1, 90480, Note_on_c, 0, 70, 80
1, 90719, Note_on_c, 0, 70, 0
1, 90720, Note_on_c, 0, 71, 80
1, 90959, Note_on_c, 0, 71, 0
1, 90960, Note_on_c, 0, 73, 80
1, 91199, Note_on_c, 0, 73, 0
1, 91200, Note_on_c, 0, 75, 80
1, 91439, Note_on_c, 0, 75, 0
1, 91440, Note_on_c, 0, 73, 80
1, 91679, Note_on_c, 0, 73, 0
1, 91680, Note_on_c, 0, 71, 80
1, 91919, Note_on_c, 0, 71, 0
1, 91920, Note_on_c, 0, 69, 80
1, 92159, Note_on_c, 0, 69, 0
1, 92160, Note_on_c, 0, 68, 80
1, 92639, Note_on_c, 0, 68, 0
1, 92640, Note_on_c, 0, 69, 80
1, 93359, Note_on_c, 0, 69, 0
1, 93360, Note_on_c, 0, 68, 80
1, 93599, Note_on_c, 0, 68, 0
1, 93600, Note_on_c, 0, 69, 80
1, 93839, Note_on_c, 0, 69, 0
1, 93840, Note_on_c, 0, 71, 80
1, 94079, Note_on_c, 0, 71, 0
1, 94080, Note_on_c, 0, 73, 80
1, 94319, Note_on_c, 0, 73, 0
1, 94320, Note_on_c, 0, 71, 80
1, 94559, Note_on_c, 0, 71, 0
1, 94560, Note_on_c, 0, 69, 80
1, 94799, Note_on_c, 0, 69, 0
1, 94800, Note_on_c, 0, 67, 80
1, 95039, Note_on_c, 0, 67, 0
1, 95040, Note_on_c, 0, 66, 80
1, 96239, Note_on_c, 0, 66, 0
1, 96240, Note_on_c, 0, 65, 80
1, 96479, Note_on_c, 0, 65, 0
1, 96480, Note_on_c, 0, 66, 80
1, 96719, Note_on_c, 0, 66, 0
1, 96720, Note_on_c, 0, 68, 80
1, 96959, Note_on_c, 0, 68, 0
1, 96960, Note_on_c, 0, 69, 80
1, 97199, Note_on_c, 0, 69, 0
1, 97200, Note_on_c, 0, 68, 80
1, 97439, Note_on_c, 0, 68, 0
1, 97440, Note_on_c, 0, 69, 80
1, 97679, Note_on_c, 0, 69, 0
1, 97680, Note_on_c, 0, 71, 80
1, 97919, Note_on_c, 0, 71, 0
1, 97920, Note_on_c, 0, 73, 80
1, 98159, Note_on_c, 0, 73, 0
1, 98160, Note_on_c, 0, 72, 80
1, 98399, Note_on_c, 0, 72, 0
1, 98400, Note_on_c, 0, 73, 80
1, 98639, Note_on_c, 0, 73, 0
1, 98640, Note_on_c, 0, 75, 80
1, 98879, Note_on_c, 0, 75, 0
1, 98880, Note_on_c, 0, 76, 80
1, 99359, Note_on_c, 0, 76, 0
1, 99360, Note_on_c, 0, 77, 80
1, 100319, Note_on_c, 0, 77, 0
1, 100320, Note_on_c, 0, 78, 80
1, 100559, Note_on_c, 0, 78, 0
1, 100560, Note_on_c, 0, 80, 80
1, 100799, Note_on_c, 0, 80, 0
1, 100800, Note_on_c, 0, 81, 80
1, 101279, Note_on_c, 0, 81, 0
1, 101280, Note_on_c, 0, 80, 80
1, 101999, Note_on_c, 0, 80, 0
1, 102000, Note_on_c, 0, 73, 80
1, 102239, Note_on_c, 0, 73, 0
1, 102240, Note_on_c, 0, 75, 80
1, 102479, Note_on_c, 0, 75, 0
1, 102480, Note_on_c, 0, 77, 80
1, 102719, Note_on_c, 0, 77, 0
1, 102720, Note_on_c, 0, 78, 80
1, 103919, Note_on_c, 0, 78, 0
1, 103920, Note_on_c, 0, 77, 80
1, 104159, Note_on_c, 0, 77, 0
1, 104160, Note_on_c, 0, 78, 80
1, 104399, Note_on_c, 0, 78, 0
1, 104400, Note_on_c, 0, 80, 80
1, 104879, Note_on_c, 0, 80, 0
1, 104880, Note_on_c, 0, 77, 80
1, 105119, Note_on_c, 0, 77, 0
1, 105120, Note_on_c, 0, 78, 80
1, 105599, Note_on_c, 0, 78, 0
1, 109440, Note_on_c, 0, 73, 80
1, 110399, Note_on_c, 0, 73, 0
1, 110400, Note_on_c, 0, 68, 80
1, 111119, Note_on_c, 0, 68, 0
1, 111120, Note_on_c, 0, 70, 80
1, 111359, Note_on_c, 0, 70, 0
1, 111360, Note_on_c, 0, 71, 80
1, 112079, Note_on_c, 0, 71, 0
1, 112080, Note_on_c, 0, 73, 80
1, 112319, Note_on_c, 0, 73, 0
1, 112320, Note_on_c, 0, 75, 80
1, 113039, Note_on_c, 0, 75, 0
1, 113040, Note_on_c, 0, 73, 80
1, 113279, Note_on_c, 0, 73, 0
1, 113280, Note_on_c, 0, 76, 80
1, 114479, Note_on_c, 0, 76, 0
1, 114480, Note_on_c, 0, 75, 80
1, 114959, Note_on_c, 0, 75, 0
1, 114960, Note_on_c, 0, 73, 80
1, 115199, Note_on_c, 0, 73, 0
1, 115200, Note_on_c, 0, 72, 80
1, 115679, Note_on_c, 0, 72, 0
1, 115680, Note_on_c, 0, 71, 80
1, 116399, Note_on_c, 0, 71, 0
1, 116400, Note_on_c, 0, 68, 80
1, 116639, Note_on_c, 0, 68, 0
1, 116640, Note_on_c, 0, 70, 80
1, 116879, Note_on_c, 0, 70, 0
1, 116880, Note_on_c, 0, 72, 80
1, 117119, Note_on_c, 0, 72, 0
1, 117120, Note_on_c, 0, 73, 80
1, 118319, Note_on_c, 0, 73, 0
1, 118320, Note_on_c, 0, 73, 80
1, 118559, Note_on_c, 0, 73, 0
1, 118560, Note_on_c, 0, 75, 80
1, 118799, Note_on_c, 0, 75, 0
1, 118800, Note_on_c, 0, 76, 80
1, 119039, Note_on_c, 0, 76, 0
1, 119040, Note_on_c, 0, 78, 80
1, 119759, Note_on_c, 0, 78, 0
1, 119760, Note_on_c, 0, 77, 80
1, 119999, Note_on_c, 0, 77, 0
1, 120000, Note_on_c, 0, 78, 80
1, 120719, Note_on_c, 0, 78, 0
1, 120720, Note_on_c, 0, 79, 80
1, 120959, Note_on_c, 0, 79, 0
1, 120960, Note_on_c, 0, 80, 80
1, 122159, Note_on_c, 0, 80, 0
1, 122160, Note_on_c, 0, 80, 80
1, 122399, Note_on_c, 0, 80, 0
1, 122400, Note_on_c, 0, 78, 80
1, 122639, Note_on_c, 0, 78, 0
1, 122640, Note_on_c, 0, 76, 80
1, 122879, Note_on_c, 0, 76, 0
1, 122880, Note_on_c, 0, 78, 80
1, 123359, Note_on_c, 0, 78, 0
1, 123360, Note_on_c, 0, 76, 80
1, 123599, Note_on_c, 0, 76, 0
1, 123600, Note_on_c, 0, 75, 80
1, 123839, Note_on_c, 0, 75, 0
1, 123840, Note_on_c, 0, 73, 80
1, 124079, Note_on_c, 0, 73, 0
1, 124080, Note_on_c, 0, 72, 80
1, 124319, Note_on_c, 0, 72, 0
1, 124320, Note_on_c, 0, 73, 80
1, 124559, Note_on_c, 0, 73, 0
1, 124560, Note_on_c, 0, 75, 80
1, 124799, Note_on_c, 0, 75, 0
1, 124800, Note_on_c, 0, 76, 80
1, 125039, Note_on_c, 0, 76, 0
1, 125040, Note_on_c, 0, 78, 80
1, 125279, Note_on_c, 0, 78, 0
1, 125280, Note_on_c, 0, 76, 80
1, 125519, Note_on_c, 0, 76, 0
1, 125520, Note_on_c, 0, 75, 80
1, 125759, Note_on_c, 0, 75, 0
1, 125760, Note_on_c, 0, 76, 80
1, 125999, Note_on_c, 0, 76, 0
1, 126000, Note_on_c, 0, 78, 80
1, 126239, Note_on_c, 0, 78, 0
1, 126240, Note_on_c, 0, 80, 80
1, 126719, Note_on_c, 0, 80, 0
1, 126720, Note_on_c, 0, 71, 80
1, 127919, Note_on_c, 0, 71, 0
1, 127920, Note_on_c, 0, 65, 80
1, 128159, Note_on_c, 0, 65, 0
1, 128160, Note_on_c, 0, 66, 80
1, 128399, Note_on_c, 0, 66, 0
1, 128400, Note_on_c, 0, 68, 80
1, 128639, Note_on_c, 0, 68, 0
1, 128640, Note_on_c, 0, 69, 80
1, 129599, Note_on_c, 0, 69, 0
1, 129600, Note_on_c, 0, 68, 80
1, 130799, Note_on_c, 0, 68, 0
1, 130800, Note_on_c, 0, 65, 80
1, 131039, Note_on_c, 0, 65, 0
1, 131040, Note_on_c, 0, 66, 80
1, 131759, Note_on_c, 0, 66, 0
1, 131760, Note_on_c, 0, 66, 80
1, 131999, Note_on_c, 0, 66, 0
1, 132000, Note_on_c, 0, 65, 80
1, 132239, Note_on_c, 0, 65, 0
1, 132240, Note_on_c, 0, 63, 80
1, 132479, Note_on_c, 0, 63, 0
1, 132480, Note_on_c, 0, 65, 80
1, 132719, Note_on_c, 0, 65, 0
1, 132720, Note_on_c, 0, 66, 80
1, 132959, Note_on_c, 0, 66, 0
1, 132960, Note_on_c, 0, 68, 80
1, 133439, Note_on_c, 0, 68, 0
1, 133440, Note_on_c, 0, 61, 80
1, 135119, Note_on_c, 0, 61, 0
1, 135120, Note_on_c, 0, 60, 80
1, 135359, Note_on_c, 0, 60, 0
1, 135360, Note_on_c, 0, 61, 80
1, 138239, Note_on_c, 0, 61, 0
1, 138240, End_track
2, 0, Start_track
2, 0, Key_signature, 4, "major"
2, 7680, Note_on_c, 0, 68, 80
2, 8639, Note_on_c, 0, 68, 0
2, 8640, Note_on_c, 0, 61, 80
2, 9599, Note_on_c, 0, 61, 0
2, 9600, Note_on_c, 0, 64, 80
2, 10559, Note_on_c, 0, 64, 0
2, 10560, Note_on_c, 0, 68, 80
2, 11519, Note_on_c, 0, 68, 0
2, 11520, Note_on_c, 0, 69, 80
2, 12479, Note_on_c, 0, 69, 0
2, 12480, Note_on_c, 0, 68, 80
2, 12959, Note_on_c, 0, 68, 0
2, 12960, Note_on_c, 0, 66, 80
2, 13439, Note_on_c, 0, 66, 0
2, 13440, Note_on_c, 0, 64, 80
2, 14639, Note_on_c, 0, 64, 0
2, 14640, Note_on_c, 0, 63, 80
2, 14879, Note_on_c, 0, 63, 0
2, 14880, Note_on_c, 0, 64, 80
2, 15119, Note_on_c, 0, 64, 0
2, 15120, Note_on_c, 0, 66, 80
2, 15359, Note_on_c, 0, 66, 0
2, 15360, Note_on_c, 0, 68, 80
2, 15839, Note_on_c, 0, 68, 0
2, 15840, Note_on_c, 0, 66, 80
2, 16799, Note_on_c, 0, 66, 0
2, 16800, Note_on_c, 0, 65, 80
2, 17039, Note_on_c, 0, 65, 0
2, 17040, Note_on_c, 0, 64, 80
2, 17279, Note_on_c, 0, 64, 0
2, 17280, Note_on_c, 0, 63, 80
2, 17519, Note_on_c, 0, 63, 0
2, 17520, Note_on_c, 0, 62, 80
2, 17759, Note_on_c, 0, 62, 0
2, 17760, Note_on_c, 0, 63, 80
2, 17999, Note_on_c, 0, 63, 0
2, 18000, Note_on_c, 0, 65, 80
2, 18239, Note_on_c, 0, 65, 0
2, 18240, Note_on_c, 0, 66, 80
2, 18719, Note_on_c, 0, 66, 0
2, 18720, Note_on_c, 0, 67, 80
2, 19679, Note_on_c, 0, 67, 0
2, 19680, Note_on_c, 0, 68, 80
2, 19919, Note_on_c, 0, 68, 0
2, 19920, Note_on_c, 0, 70, 80
2, 20159, Note_on_c, 0, 70, 0
2, 20160, Note_on_c, 0, 71, 80
2, 20639, Note_on_c, 0, 71, 0
2, 20640, Note_on_c, 0, 70, 80
2, 21359, Note_on_c, 0, 70, 0
2, 21360, Note_on_c, 0, 63, 80
2, 21599, Note_on_c, 0, 63, 0
2, 21600, Note_on_c, 0, 64, 80
2, 21839, Note_on_c, 0, 64, 0
2, 21840, Note_on_c, 0, 66, 80
2, 22079, Note_on_c, 0, 66, 0
2, 22080, Note_on_c, 0, 68, 80
2, 22559, Note_on_c, 0, 68, 0
2, 22560, Note_on_c, 0, 66, 80
2, 23279, Note_on_c, 0, 66, 0
2, 23280, Note_on_c, 0, 65, 80
2, 23519, Note_on_c, 0, 65, 0
2, 23520, Note_on_c, 0, 66, 80
2, 23759, Note_on_c, 0, 66, 0
2, 23760, Note_on_c, 0, 68, 80
2, 23999, Note_on_c, 0, 68, 0
2, 24000, Note_on_c, 0, 69, 80
2, 24479, Note_on_c, 0, 69, 0
2, 24480, Note_on_c, 0, 68, 80
2, 24959, Note_on_c, 0, 68, 0
2, 24960, Note_on_c, 0, 66, 80
2, 26159, Note_on_c, 0, 66, 0
2, 26160, Note_on_c, 0, 63, 80
2, 26399, Note_on_c, 0, 63, 0
2, 26400, Note_on_c, 0, 64, 80
2, 26639, Note_on_c, 0, 64, 0
2, 26640, Note_on_c, 0, 66, 80
2, 26879, Note_on_c, 0, 66, 0
2, 26880, Note_on_c, 0, 68, 80
2, 27599, Note_on_c, 0, 68, 0
2, 27600, Note_on_c, 0, 66, 80
2, 27839, Note_on_c, 0, 66, 0
2, 27840, Note_on_c, 0, 65, 80
2, 28079, Note_on_c, 0, 65, 0
2, 28080, Note_on_c, 0, 63, 80
2, 28319, Note_on_c, 0, 63, 0
2, 28320, Note_on_c, 0, 64, 80
2, 29999, Note_on_c, 0, 64, 0
2, 30000, Note_on_c, 0, 68, 80
2, 30239, Note_on_c, 0, 68, 0
2, 30240, Note_on_c, 0, 66, 80
2, 30479, Note_on_c, 0, 66, 0
2, 30480, Note_on_c, 0, 64, 80
2, 30719, Note_on_c, 0, 64, 0
2, 30720, Note_on_c, 0, 66, 80
2, 30959, Note_on_c, 0, 66, 0
2, 30960, Note_on_c, 0, 63, 80
2, 31199, Note_on_c, 0, 63, 0
2, 31200, Note_on_c, 0, 64, 80
2, 31439, Note_on_c, 0, 64, 0
2, 31440, Note_on_c, 0, 66, 80
2, 31679, Note_on_c, 0, 66, 0
2, 31680, Note_on_c, 0, 68, 80
2, 32879, Note_on_c, 0, 68, 0
2, 32880, Note_on_c, 0, 60, 80
2, 33119, Note_on_c, 0, 60, 0
2, 33120, Note_on_c, 0, 61, 80
2, 33359, Note_on_c, 0, 61, 0
2, 33360, Note_on_c, 0, 63, 80
2, 33599, Note_on_c, 0, 63, 0
2, 33600, Note_on_c, 0, 64, 80
2, 33839, Note_on_c, 0, 64, 0
2, 33840, Note_on_c, 0, 66, 80
2, 34079, Note_on_c, 0, 66, 0
2, 34080, Note_on_c, 0, 68, 80
2, 34319, Note_on_c, 0, 68, 0
2, 34320, Note_on_c, 0, 69, 80
2, 34559, Note_on_c, 0, 69, 0
2, 34560, Note_on_c, 0, 63, 80
2, 35039, Note_on_c, 0, 63, 0
2, 35040, Note_on_c, 0, 68, 80
2, 35999, Note_on_c, 0, 68, 0
2, 36000, Note_on_c, 0, 67, 80
2, 36239, Note_on_c, 0, 67, 0
2, 36240, Note_on_c, 0, 66, 80
2, 36719, Note_on_c, 0, 66, 0
2, 36720, Note_on_c, 0, 65, 80
2, 36959, Note_on_c, 0, 65, 0
2, 36960, Note_on_c, 0, 69, 80
2, 37439, Note_on_c, 0, 69, 0
2, 37440, Note_on_c, 0, 66, 80
2, 38159, Note_on_c, 0, 66, 0
2, 38160, Note_on_c, 0, 68, 80
2, 38399, Note_on_c, 0, 68, 0
2, 38400, Note_on_c, 0, 61, 80
2, 38879, Note_on_c, 0, 61, 0
2, 38880, Note_on_c, 0, 66, 80
2, 39839, Note_on_c, 0, 66, 0
2, 39840, Note_on_c, 0, 65, 80
2, 40079, Note_on_c, 0, 65, 0
2, 40080, Note_on_c, 0, 64, 80
2, 40559, Note_on_c, 0, 64, 0
2, 40560, Note_on_c, 0, 63, 80
2, 40799, Note_on_c, 0, 63, 0
2, 40800, Note_on_c, 0, 67, 80
2, 41279, Note_on_c, 0, 67, 0
2, 41280, Note_on_c, 0, 64, 80
2, 41999, Note_on_c, 0, 64, 0
2, 42000, Note_on_c, 0, 66, 80
2, 42239, Note_on_c, 0, 66, 0
2, 42240, Note_on_c, 0, 59, 80
2, 42719, Note_on_c, 0, 59, 0
2, 42720, Note_on_c, 0, 71, 80
2, 43679, Note_on_c, 0, 71, 0
2, 43680, Note_on_c, 0, 70, 80
2, 43919, Note_on_c, 0, 70, 0
2, 43920, Note_on_c, 0, 69, 80
2, 44159, Note_on_c, 0, 69, 0
2, 44160, Note_on_c, 0, 68, 80
2, 44399, Note_on_c, 0, 68, 0
2, 44400, Note_on_c, 0, 67, 80
2, 44639, Note_on_c, 0, 67, 0
2, 44640, Note_on_c, 0, 68, 80
2, 44879, Note_on_c, 0, 68, 0
2, 44880, Note_on_c, 0, 70, 80
2, 45119, Note_on_c, 0, 70, 0
2, 45120, Note_on_c, 0, 71, 80
2, 45599, Note_on_c, 0, 71, 0
2, 45600, Note_on_c, 0, 72, 80
2, 46559, Note_on_c, 0, 72, 0
2, 46560, Note_on_c, 0, 73, 80
2, 46799, Note_on_c, 0, 73, 0
2, 46800, Note_on_c, 0, 75, 80
2, 47039, Note_on_c, 0, 75, 0
2, 47040, Note_on_c, 0, 76, 80
2, 47279, Note_on_c, 0, 76, 0
2, 47280, Note_on_c, 0, 73, 80
2, 47519, Note_on_c, 0, 73, 0
2, 47520, Note_on_c, 0, 75, 80
2, 48239, Note_on_c, 0, 75, 0
2, 48240, Note_on_c, 0, 68, 80
2, 48479, Note_on_c, 0, 68, 0
2, 48480, Note_on_c, 0, 70, 80
2, 48719, Note_on_c, 0, 70, 0
2, 48720, Note_on_c, 0, 72, 80
2, 48959, Note_on_c, 0, 72, 0
2, 48960, Note_on_c, 0, 73, 80
2, 50159, Note_on_c, 0, 73, 0
2, 50160, Note_on_c, 0, 71, 80
2, 50399, Note_on_c, 0, 71, 0
2, 50400, Note_on_c, 0, 69, 80
2, 50639, Note_on_c, 0, 69, 0
2, 50640, Note_on_c, 0, 68, 80
2, 50879, Note_on_c, 0, 68, 0
2, 50880, Note_on_c, 0, 69, 80
2, 52319, Note_on_c, 0, 69, 0
2, 52320, Note_on_c, 0, 68, 80
2, 53039, Note_on_c, 0, 68, 0
2, 53040, Note_on_c, 0, 73, 80
2, 53279, Note_on_c, 0, 73, 0
2, 53280, Note_on_c, 0, 67, 80
2, 53519, Note_on_c, 0, 67, 0
2, 53520, Note_on_c, 0, 68, 80
2, 53759, Note_on_c, 0, 68, 0
2, 53760, Note_on_c, 0, 70, 80
2, 54959, Note_on_c, 0, 70, 0
2, 54960, Note_on_c, 0, 68, 80
2, 55079, Note_on_c, 0, 68, 0
2, 55080, Note_on_c, 0, 66, 80
2, 55199, Note_on_c, 0, 66, 0
2, 55200, Note_on_c, 0, 65, 80
2, 55439, Note_on_c, 0, 65, 0
2, 55440, Note_on_c, 0, 64, 80
2, 55679, Note_on_c, 0, 64, 0
2, 55680, Note_on_c, 0, 63, 80
2, 55919, Note_on_c, 0, 63, 0
2, 55920, Note_on_c, 0, 62, 80
2, 56159, Note_on_c, 0, 62, 0
2, 56160, Note_on_c, 0, 63, 80
2, 56399, Note_on_c, 0, 63, 0
2, 56400, Note_on_c, 0, 65, 80
2, 56639, Note_on_c, 0, 65, 0
2, 56640, Note_on_c, 0, 66, 80
2, 57119, Note_on_c, 0, 66, 0
2, 57120, Note_on_c, 0, 67, 80
2, 58079, Note_on_c, 0, 67, 0
2, 58080, Note_on_c, 0, 68, 80
2, 58319, Note_on_c, 0, 68, 0
2, 58320, Note_on_c, 0, 70, 80
2, 58559, Note_on_c, 0, 70, 0
2, 58560, Note_on_c, 0, 71, 80
2, 58799, Note_on_c, 0, 71, 0
2, 58800, Note_on_c, 0, 68, 80
2, 59039, Note_on_c, 0, 68, 0
2, 59040, Note_on_c, 0, 70, 80
2, 59759, Note_on_c, 0, 70, 0
2, 59760, Note_on_c, 0, 63, 80
2, 59999, Note_on_c, 0, 63, 0
2, 60000, Note_on_c, 0, 65, 80
2, 60239, Note_on_c, 0, 65, 0
2, 60240, Note_on_c, 0, 67, 80
2, 60479, Note_on_c, 0, 67, 0
2, 60480, Note_on_c, 0, 68, 80
2, 61679, Note_on_c, 0, 68, 0
2, 61680, Note_on_c, 0, 69, 80
2, 61919, Note_on_c, 0, 69, 0
2, 61920, Note_on_c, 0, 68, 80
2, 62159, Note_on_c, 0, 68, 0
2, 62160, Note_on_c, 0, 66, 80
2, 62399, Note_on_c, 0, 66, 0
2, 62400, Note_on_c, 0, 65, 80
2, 62879, Note_on_c, 0, 65, 0
2, 62880, Note_on_c, 0, 64, 80
2, 63599, Note_on_c, 0, 64, 0
2, 63600, Note_on_c, 0, 68, 80
2, 63839, Note_on_c, 0, 68, 0
2, 63840, Note_on_c, 0, 66, 80
2, 64079, Note_on_c, 0, 66, 0
2, 64080, Note_on_c, 0, 64, 80
2, 64319, Note_on_c, 0, 64, 0
2, 64320, Note_on_c, 0, 63, 80
2, 64799, Note_on_c, 0, 63, 0
2, 64800, Note_on_c, 0, 62, 80
2, 65519, Note_on_c, 0, 62, 0
2, 65520, Note_on_c, 0, 66, 80
2, 65759, Note_on_c, 0, 66, 0
2, 65760, Note_on_c, 0, 64, 80
2, 65999, Note_on_c, 0, 64, 0
2, 66000, Note_on_c, 0, 62, 80
2, 66239, Note_on_c, 0, 62, 0
2, 66240, Note_on_c, 0, 61, 80
2, 66959, Note_on_c, 0, 61, 0
2, 66960, Note_on_c, 0, 63, 80
2, 67199, Note_on_c, 0, 63, 0
2, 67200, Note_on_c, 0, 64, 80
2, 67439, Note_on_c, 0, 64, 0
2, 67440, Note_on_c, 0, 63, 80
2, 67679, Note_on_c, 0, 63, 0
2, 67680, Note_on_c, 0, 64, 80
2, 67919, Note_on_c, 0, 64, 0
2, 67920, Note_on_c, 0, 66, 80
2, 68159, Note_on_c, 0, 66, 0
2, 68160, Note_on_c, 0, 68, 80
2, 68399, Note_on_c, 0, 68, 0
2, 68400, Note_on_c, 0, 66, 80
2, 68639, Note_on_c, 0, 66, 0
2, 68640, Note_on_c, 0, 68, 80
2, 69359, Note_on_c, 0, 68, 0
2, 69360, Note_on_c, 0, 66, 80
2, 69599, Note_on_c, 0, 66, 0
2, 69600, Note_on_c, 0, 69, 80
2, 69839, Note_on_c, 0, 69, 0
2, 69840, Note_on_c, 0, 68, 80
2, 70079, Note_on_c, 0, 68, 0
2, 70080, Note_on_c, 0, 66, 80
2, 70319, Note_on_c, 0, 66, 0
2, 70320, Note_on_c, 0, 64, 80
2, 70559, Note_on_c, 0, 64, 0
2, 70560, Note_on_c, 0, 66, 80
2, 71279, Note_on_c, 0, 66, 0
2, 71280, Note_on_c, 0, 59, 80
2, 71519, Note_on_c, 0, 59, 0
2, 71520, Note_on_c, 0, 61, 80
2, 71759, Note_on_c, 0, 61, 0
2, 71760, Note_on_c, 0, 63, 80
2, 71999, Note_on_c, 0, 63, 0
2, 72000, Note_on_c, 0, 64, 80
2, 72239, Note_on_c, 0, 64, 0
2, 72240, Note_on_c, 0, 63, 80
2, 72479, Note_on_c, 0, 63, 0
2, 72480, Note_on_c, 0, 64, 80
2, 73199, Note_on_c, 0, 64, 0
2, 73200, Note_on_c, 0, 63, 80
2, 73319, Note_on_c, 0, 63, 0
2, 73320, Note_on_c, 0, 61, 80
2, 73439, Note_on_c, 0, 61, 0
2, 73440, Note_on_c, 0, 63, 80
2, 73919, Note_on_c, 0, 63, 0
2, 73920, Note_on_c, 0, 64, 80
2, 74639, Note_on_c, 0, 64, 0
2, 74640, Note_on_c, 0, 66, 80
2, 74879, Note_on_c, 0, 66, 0
2, 74880, Note_on_c, 0, 59, 80
2, 75359, Note_on_c, 0, 59, 0
2, 75360, Note_on_c, 0, 68, 80
2, 76319, Note_on_c, 0, 68, 0
2, 76320, Note_on_c, 0, 67, 80
2, 76559, Note_on_c, 0, 67, 0
2, 76560, Note_on_c, 0, 66, 80
2, 77039, Note_on_c, 0, 66, 0
2, 77040, Note_on_c, 0, 65, 80
2, 77159, Note_on_c, 0, 65, 0
2, 77160, Note_on_c, 0, 63, 80
2, 77279, Note_on_c, 0, 63, 0
2, 77280, Note_on_c, 0, 65, 80
2, 77759, Note_on_c, 0, 65, 0
2, 77760, Note_on_c, 0, 66, 80
2, 78479, Note_on_c, 0, 66, 0
2, 78480, Note_on_c, 0, 68, 80
2, 78719, Note_on_c, 0, 68, 0
2, 78720, Note_on_c, 0, 61, 80
2, 79199, Note_on_c, 0, 61, 0
2, 79200, Note_on_c, 0, 70, 80
2, 80159, Note_on_c, 0, 70, 0
2, 80160, Note_on_c, 0, 69, 80
2, 80399, Note_on_c, 0, 69, 0
2, 80400, Note_on_c, 0, 68, 80
2, 80879, Note_on_c, 0, 68, 0
2, 80880, Note_on_c, 0, 67, 80
2, 81119, Note_on_c, 0, 67, 0
2, 81120, Note_on_c, 0, 66, 80
2, 82079, Note_on_c, 0, 66, 0
2, 82080, Note_on_c, 0, 65, 80
2, 82319, Note_on_c, 0, 65, 0
2, 82320, Note_on_c, 0, 64, 80
2, 82559, Note_on_c, 0, 64, 0
2, 82560, Note_on_c, 0, 63, 80
2, 82799, Note_on_c, 0, 63, 0
2, 82800, Note_on_c, 0, 62, 80
2, 83039, Note_on_c, 0, 62, 0
2, 83040, Note_on_c, 0, 63, 80
2, 83279, Note_on_c, 0, 63, 0
2, 83280, Note_on_c, 0, 65, 80
2, 83519, Note_on_c, 0, 65, 0
2, 83520, Note_on_c, 0, 66, 80
2, 83999, Note_on_c, 0, 66, 0
2, 84000, Note_on_c, 0, 67, 80
2, 84959, Note_on_c, 0, 67, 0
2, 84960, Note_on_c, 0, 68, 80
2, 85199, Note_on_c, 0, 68, 0
2, 85200, Note_on_c, 0, 70, 80
2, 85439, Note_on_c, 0, 70, 0
2, 85440, Note_on_c, 0, 71, 80
2, 85919, Note_on_c, 0, 71, 0
2, 85920, Note_on_c, 0, 70, 80
2, 86639, Note_on_c, 0, 70, 0
2, 86640, Note_on_c, 0, 63, 80
2, 86879, Note_on_c, 0, 63, 0
2, 86880, Note_on_c, 0, 65, 80
2, 87119, Note_on_c, 0, 65, 0
2, 87120, Note_on_c, 0, 67, 80
2, 87359, Note_on_c, 0, 67, 0
2, 87360, Note_on_c, 0, 68, 80
2, 87599, Note_on_c, 0, 68, 0
2, 87600, Note_on_c, 0, 66, 80
2, 87839, Note_on_c, 0, 66, 0
2, 87840, Note_on_c, 0, 64, 80
2, 88079, Note_on_c, 0, 64, 0
2, 88080, Note_on_c, 0, 63, 80
2, 88319, Note_on_c, 0, 63, 0
2, 88320, Note_on_c, 0, 64, 80
2, 88559, Note_on_c, 0, 64, 0
2, 88560, Note_on_c, 0, 65, 80
2, 88799, Note_on_c, 0, 65, 0
2, 88800, Note_on_c, 0, 66, 80
2, 89039, Note_on_c, 0, 66, 0
2, 89040, Note_on_c, 0, 68, 80
2, 89519, Note_on_c, 0, 68, 0
2, 89520, Note_on_c, 0, 66, 80
2, 89759, Note_on_c, 0, 66, 0
2, 89760, Note_on_c, 0, 64, 80
2, 89999, Note_on_c, 0, 64, 0
2, 90000, Note_on_c, 0, 63, 80
2, 90239, Note_on_c, 0, 63, 0
2, 90240, Note_on_c, 0, 61, 80
2, 90479, Note_on_c, 0, 61, 0
2, 90480, Note_on_c, 0, 66, 80
2, 90719, Note_on_c, 0, 66, 0
2, 90720, Note_on_c, 0, 68, 80
2, 90959, Note_on_c, 0, 68, 0
2, 90960, Note_on_c, 0, 70, 80
2, 91199, Note_on_c, 0, 70, 0
2, 91200, Note_on_c, 0, 71, 80
2, 91439, Note_on_c, 0, 71, 0
2, 91440, Note_on_c, 0, 63, 80
2, 91679, Note_on_c, 0, 63, 0
2, 91680, Note_on_c, 0, 64, 80
2, 91919, Note_on_c, 0, 64, 0
2, 91920, Note_on_c, 0, 66, 80
2, 92399, Note_on_c, 0, 66, 0
2, 92400, Note_on_c, 0, 64, 80
2, 92639, Note_on_c, 0, 64, 0
2, 92640, Note_on_c, 0, 62, 80
2, 92879, Note_on_c, 0, 62, 0
2, 92880, Note_on_c, 0, 61, 80
2, 93119, Note_on_c, 0, 61, 0
2, 93120, Note_on_c, 0, 59, 80
2, 93359, Note_on_c, 0, 59, 0
2, 93360, Note_on_c, 0, 64, 80
2, 93599, Note_on_c, 0, 64, 0
2, 93600, Note_on_c, 0, 66, 80
2, 93839, Note_on_c, 0, 66, 0
2, 93840, Note_on_c, 0, 68, 80
2, 94079, Note_on_c, 0, 68, 0
2, 94080, Note_on_c, 0, 69, 80
2, 94319, Note_on_c, 0, 69, 0
2, 94320, Note_on_c, 0, 61, 80
2, 94559, Note_on_c, 0, 61, 0
2, 94560, Note_on_c, 0, 62, 80
2, 94799, Note_on_c, 0, 62, 0
2, 94800, Note_on_c, 0, 64, 80
2, 95039, Note_on_c, 0, 64, 0
2, 95040, Note_on_c, 0, 57, 80
2, 95279, Note_on_c, 0, 57, 0
2, 95280, Note_on_c, 0, 58, 80
2, 95519, Note_on_c, 0, 58, 0
2, 95520, Note_on_c, 0, 59, 80
2, 95759, Note_on_c, 0, 59, 0
2, 95760, Note_on_c, 0, 61, 80
2, 95999, Note_on_c, 0, 61, 0
2, 96000, Note_on_c, 0, 62, 80
2, 96479, Note_on_c, 0, 62, 0
2, 96480, Note_on_c, 0, 60, 80
2, 96719, Note_on_c, 0, 60, 0
2, 96720, Note_on_c, 0, 62, 80
2, 96959, Note_on_c, 0, 62, 0
2, 96960, Note_on_c, 0, 61, 80
2, 97199, Note_on_c, 0, 61, 0
2, 97200, Note_on_c, 0, 65, 80
2, 97439, Note_on_c, 0, 65, 0
2, 97440, Note_on_c, 0, 66, 80
2, 98159, Note_on_c, 0, 66, 0
2, 98160, Note_on_c, 0, 68, 80
2, 98399, Note_on_c, 0, 68, 0
2, 98400, Note_on_c, 0, 69, 80
2, 99119, Note_on_c, 0, 69, 0
2, 99120, Note_on_c, 0, 73, 80
2, 99359, Note_on_c, 0, 73, 0
2, 99360, Note_on_c, 0, 71, 80
2, 99599, Note_on_c, 0, 71, 0
2, 99600, Note_on_c, 0, 69, 80
2, 99839, Note_on_c, 0, 69, 0
2, 99840, Note_on_c, 0, 71, 80
2, 100079, Note_on_c, 0, 71, 0
2, 100080, Note_on_c, 0, 68, 80
2, 100319, Note_on_c, 0, 68, 0
2, 100320, Note_on_c, 0, 69, 80
2, 100559, Note_on_c, 0, 69, 0
2, 100560, Note_on_c, 0, 71, 80
2, 100799, Note_on_c, 0, 71, 0
2, 100800, Note_on_c, 0, 73, 80
2, 102959, Note_on_c, 0, 73, 0
2, 102960, Note_on_c, 0, 72, 80
2, 103199, Note_on_c, 0, 72, 0
2, 103200, Note_on_c, 0, 73, 80
2, 103439, Note_on_c, 0, 73, 0
2, 103440, Note_on_c, 0, 75, 80
2, 103679, Note_on_c, 0, 75, 0
2, 103680, Note_on_c, 0, 68, 80
2, 104639, Note_on_c, 0, 68, 0
2, 104640, Note_on_c, 0, 61, 80
2, 105359, Note_on_c, 0, 61, 0
2, 105360, Note_on_c, 0, 63, 80
2, 105599, Note_on_c, 0, 63, 0
2, 105600, Note_on_c, 0, 64, 80
2, 106319, Note_on_c, 0, 64, 0
2, 106320, Note_on_c, 0, 66, 80
2, 106559, Note_on_c, 0, 66, 0
2, 106560, Note_on_c, 0, 68, 80
2, 107279, Note_on_c, 0, 68, 0
2, 107280, Note_on_c, 0, 66, 80
2, 107519, Note_on_c, 0, 66, 0
2, 107520, Note_on_c, 0, 69, 80
2, 108719, Note_on_c, 0, 69, 0
2, 108720, Note_on_c, 0, 68, 80
2, 109199, Note_on_c, 0, 68, 0
2, 109200, Note_on_c, 0, 66, 80
2, 109439, Note_on_c, 0, 66, 0
2, 109440, Note_on_c, 0, 64, 80
2, 110639, Note_on_c, 0, 64, 0
2, 110640, Note_on_c, 0, 63, 80
2, 110879, Note_on_c, 0, 63, 0
2, 110880, Note_on_c, 0, 65, 80
2, 111119, Note_on_c, 0, 65, 0
2, 111120, Note_on_c, 0, 67, 80
2, 111359, Note_on_c, 0, 67, 0
2, 111360, Note_on_c, 0, 68, 80
2, 111599, Note_on_c, 0, 68, 0
2, 111600, Note_on_c, 0, 70, 80
2, 111839, Note_on_c, 0, 70, 0
2, 111840, Note_on_c, 0, 71, 80
2, 112319, Note_on_c, 0, 71, 0
2, 112320, Note_on_c, 0, 70, 80
2, 112559, Note_on_c, 0, 70, 0
2, 112560, Note_on_c, 0, 72, 80
2, 112799, Note_on_c, 0, 72, 0
2, 112800, Note_on_c, 0, 73, 80
2, 113279, Note_on_c, 0, 73, 0
2, 113280, Note_on_c, 0, 72, 80
2, 113519, Note_on_c, 0, 72, 0
2, 113520, Note_on_c, 0, 71, 80
2, 113759, Note_on_c, 0, 71, 0
2, 113760, Note_on_c, 0, 69, 80
2, 113999, Note_on_c, 0, 69, 0
2, 114000, Note_on_c, 0, 68, 80
2, 114239, Note_on_c, 0, 68, 0
2, 114240, Note_on_c, 0, 69, 80
2, 114719, Note_on_c, 0, 69, 0
2, 114720, Note_on_c, 0, 70, 80
2, 115199, Note_on_c, 0, 70, 0
2, 115200, Note_on_c, 0, 68, 80
2, 115439, Note_on_c, 0, 68, 0
2, 115440, Note_on_c, 0, 66, 80
2, 115679, Note_on_c, 0, 66, 0
2, 115680, Note_on_c, 0, 65, 80
2, 115919, Note_on_c, 0, 65, 0
2, 115920, Note_on_c, 0, 68, 80
2, 116159, Note_on_c, 0, 68, 0
2, 116160, Note_on_c, 0, 61, 80
2, 117359, Note_on_c, 0, 61, 0
2, 117360, Note_on_c, 0, 65, 80
2, 117599, Note_on_c, 0, 65, 0
2, 117600, Note_on_c, 0, 66, 80
2, 117839, Note_on_c, 0, 66, 0
2, 117840, Note_on_c, 0, 68, 80
2, 118079, Note_on_c, 0, 68, 0
2, 118080, Note_on_c, 0, 69, 80
2, 118319, Note_on_c, 0, 69, 0
2, 118320, Note_on_c, 0, 70, 80
2, 118559, Note_on_c, 0, 70, 0
2, 118560, Note_on_c, 0, 72, 80
2, 118799, Note_on_c, 0, 72, 0
2, 118800, Note_on_c, 0, 73, 80
2, 119039, Note_on_c, 0, 73, 0
2, 119040, Note_on_c, 0, 75, 80
2, 119279, Note_on_c, 0, 75, 0
2, 119280, Note_on_c, 0, 73, 80
2, 119519, Note_on_c, 0, 73, 0
2, 119520, Note_on_c, 0, 74, 80
2, 119759, Note_on_c, 0, 74, 0
2, 119760, Note_on_c, 0, 68, 80
2, 119999, Note_on_c, 0, 68, 0
2, 120000, Note_on_c, 0, 69, 80
2, 120239, Note_on_c, 0, 69, 0
2, 120240, Note_on_c, 0, 71, 80
2, 120479, Note_on_c, 0, 71, 0
2, 120480, Note_on_c, 0, 73, 80
2, 121439, Note_on_c, 0, 73, 0
2, 121440, Note_on_c, 0, 71, 80
2, 121679, Note_on_c, 0, 71, 0
2, 121680, Note_on_c, 0, 70, 80
2, 121919, Note_on_c, 0, 70, 0
2, 121920, Note_on_c, 0, 68, 80
2, 122399, Note_on_c, 0, 68, 0
2, 122400, Note_on_c, 0, 75, 80
2, 123119, Note_on_c, 0, 75, 0
2, 123120, Note_on_c, 0, 75, 80
2, 123359, Note_on_c, 0, 75, 0
2, 123360, Note_on_c, 0, 73, 80
2, 123599, Note_on_c, 0, 73, 0
2, 123600, Note_on_c, 0, 72, 80
2, 123839, Note_on_c, 0, 72, 0
2, 123840, Note_on_c, 0, 73, 80
2, 124079, Note_on_c, 0, 73, 0
2, 124080, Note_on_c, 0, 68, 80
2, 124319, Note_on_c, 0, 68, 0
2, 124320, Note_on_c, 0, 69, 80
2, 124559, Note_on_c, 0, 69, 0
2, 124560, Note_on_c, 0, 66, 80
2, 124799, Note_on_c, 0, 66, 0
2, 124800, Note_on_c, 0, 68, 80
2, 125999, Note_on_c, 0, 68, 0
2, 126000, Note_on_c, 0, 69, 80
2, 126239, Note_on_c, 0, 69, 0
2, 126240, Note_on_c, 0, 68, 80
2, 126479, Note_on_c, 0, 68, 0
2, 126480, Note_on_c, 0, 66, 80
2, 126719, Note_on_c, 0, 66, 0
2, 126720, Note_on_c, 0, 65, 80
2, 126959, Note_on_c, 0, 65, 0
2, 126960, Note_on_c, 0, 66, 80
2, 127199, Note_on_c, 0, 66, 0
2, 127200, Note_on_c, 0, 68, 80
2, 127679, Note_on_c, 0, 68, 0
2, 127680, Note_on_c, 0, 61, 80
2, 129839, Note_on_c, 0, 61, 0
2, 129840, Note_on_c, 0, 62, 80
2, 130079, Note_on_c, 0, 62, 0
2, 130080, Note_on_c, 0, 61, 80
2, 130319, Note_on_c, 0, 61, 0
2, 130320, Note_on_c, 0, 59, 80
2, 130559, Note_on_c, 0, 59, 0
2, 130560, Note_on_c, 0, 57, 80
2, 130799, Note_on_c, 0, 57, 0
2, 130800, Note_on_c, 0, 61, 80
2, 131039, Note_on_c, 0, 61, 0
2, 131040, Note_on_c, 0, 60, 80
2, 131279, Note_on_c, 0, 60, 0
2, 131280, Note_on_c, 0, 63, 80
2, 131759, Note_on_c, 0, 63, 0
2, 131760, Note_on_c, 0, 63, 80
2, 131999, Note_on_c, 0, 63, 0
2, 132000, Note_on_c, 0, 61, 80
2, 132239, Note_on_c, 0, 61, 0
2, 132240, Note_on_c, 0, 60, 80
2, 132479, Note_on_c, 0, 60, 0
2, 132480, Note_on_c, 0, 61, 80
2, 133199, Note_on_c, 0, 61, 0
2, 133200, Note_on_c, 0, 59, 80
2, 133439, Note_on_c, 0, 59, 0
2, 133440, Note_on_c, 0, 57, 80
2, 134639, Note_on_c, 0, 57, 0
2, 134640, Note_on_c, 0, 56, 80
2, 134879, Note_on_c, 0, 56, 0
2, 134880, Note_on_c, 0, 57, 80
2, 136559, Note_on_c, 0, 57, 0
2, 136560, Note_on_c, 0, 56, 80
2, 136799, Note_on_c, 0, 56, 0
2, 136800, Note_on_c, 0, 57, 80
2, 137039, Note_on_c, 0, 57, 0
2, 137040, Note_on_c, 0, 54, 80
2, 137279, Note_on_c, 0, 54, 0
2, 137280, Note_on_c, 0, 56, 80
2, 138239, Note_on_c, 0, 56, 0
2, 138240, End_track
3, 0, Start_track
3, 0, Key_signature, 4, "major"
3, 0, Program_c, 1, 46
3, 0, Note_on_c, 1, 61, 80
3, 2, Control_c, 1, 7, 100
3, 4, Control_c, 1, 10, 64
3, 6, Control_c, 1, 91, 30
3, 8, Control_c, 1, 93, 30
3, 959, Note_on_c, 1, 61, 0
3, 960, Note_on_c, 1, 56, 80
3, 1919, Note_on_c, 1, 56, 0
3, 1920, Note_on_c, 1, 59, 80
3, 2879, Note_on_c, 1, 59, 0
3, 2880, Note_on_c, 1, 63, 80
3, 3839, Note_on_c, 1, 63, 0
3, 3840, Note_on_c, 1, 64, 80
3, 4799, Note_on_c, 1, 64, 0
3, 4800, Note_on_c, 1, 63, 80
3, 5279, Note_on_c, 1, 63, 0
3, 5280, Note_on_c, 1, 61, 80
3, 5759, Note_on_c, 1, 61, 0
3, 5760, Note_on_c, 1, 60, 80
3, 6959, Note_on_c, 1, 60, 0
3, 6960, Note_on_c, 1, 56, 80
3, 7199, Note_on_c, 1, 56, 0
3, 7200, Note_on_c, 1, 58, 80
3, 7439, Note_on_c, 1, 58, 0
3, 7440, Note_on_c, 1, 60, 80
3, 7679, Note_on_c, 1, 60, 0
3, 7680, Note_on_c, 1, 61, 80
3, 8159, Note_on_c, 1, 61, 0
3, 8160, Note_on_c, 1, 59, 80
3, 9119, Note_on_c, 1, 59, 0
3, 9120, Note_on_c, 1, 58, 80
3, 9359, Note_on_c, 1, 58, 0
3, 9360, Note_on_c, 1, 57, 80
3, 9599, Note_on_c, 1, 57, 0
3, 9600, Note_on_c, 1, 56, 80
3, 9839, Note_on_c, 1, 56, 0
3, 9840, Note_on_c, 1, 55, 80
3, 10079, Note_on_c, 1, 55, 0
3, 10080, Note_on_c, 1, 56, 80
3, 10319, Note_on_c, 1, 56, 0
3, 10320, Note_on_c, 1, 58, 80
3, 10559, Note_on_c, 1, 58, 0
3, 10560, Note_on_c, 1, 59, 80
3, 11039, Note_on_c, 1, 59, 0
3, 11040, Note_on_c, 1, 60, 80
3, 11999, Note_on_c, 1, 60, 0
3, 12000, Note_on_c, 1, 61, 80
3, 12239, Note_on_c, 1, 61, 0
3, 12240, Note_on_c, 1, 63, 80
3, 12479, Note_on_c, 1, 63, 0
3, 12480, Note_on_c, 1, 64, 80
3, 12959, Note_on_c, 1, 64, 0
3, 12960, Note_on_c, 1, 63, 80
3, 13679, Note_on_c, 1, 63, 0
3, 13680, Note_on_c, 1, 56, 80
3, 13919, Note_on_c, 1, 56, 0
3, 13920, Note_on_c, 1, 58, 80
3, 14159, Note_on_c, 1, 58, 0
3, 14160, Note_on_c, 1, 60, 80
3, 14399, Note_on_c, 1, 60, 0
3, 14400, Note_on_c, 1, 61, 80
3, 14639, Note_on_c, 1, 61, 0
3, 14640, Note_on_c, 1, 60, 80
3, 14879, Note_on_c, 1, 60, 0
3, 14880, Note_on_c, 1, 61, 80
3, 15119, Note_on_c, 1, 61, 0
3, 15120, Note_on_c, 1, 63, 80
3, 15359, Note_on_c, 1, 63, 0
3, 15360, Note_on_c, 1, 64, 80
3, 15599, Note_on_c, 1, 64, 0
3, 15600, Note_on_c, 1, 63, 80
3, 15839, Note_on_c, 1, 63, 0
3, 15840, Note_on_c, 1, 61, 80
3, 16079, Note_on_c, 1, 61, 0
3, 16080, Note_on_c, 1, 60, 80
3, 16319, Note_on_c, 1, 60, 0
3, 16320, Note_on_c, 1, 61, 80
3, 16799, Note_on_c, 1, 61, 0
3, 16800, Note_on_c, 1, 49, 80
3, 17279, Note_on_c, 1, 49, 0
3, 17280, Note_on_c, 1, 56, 80
3, 17519, Note_on_c, 1, 56, 0
3, 17520, Note_on_c, 1, 58, 80
3, 17759, Note_on_c, 1, 58, 0
3, 17760, Note_on_c, 1, 59, 80
3, 18479, Note_on_c, 1, 59, 0
3, 18480, Note_on_c, 1, 63, 80
3, 18719, Note_on_c, 1, 63, 0
3, 18720, Note_on_c, 1, 61, 80
3, 18959, Note_on_c, 1, 61, 0
3, 18960, Note_on_c, 1, 59, 80
3, 19199, Note_on_c, 1, 59, 0
3, 19200, Note_on_c, 1, 58, 80
3, 19439, Note_on_c, 1, 58, 0
3, 19440, Note_on_c, 1, 46, 80
3, 19679, Note_on_c, 1, 46, 0
3, 19680, Note_on_c, 1, 47, 80
3, 19919, Note_on_c, 1, 47, 0
3, 19920, Note_on_c, 1, 49, 80
3, 20159, Note_on_c, 1, 49, 0
3, 20160, Note_on_c, 1, 51, 80
3, 20399, Note_on_c, 1, 51, 0
3, 20400, Note_on_c, 1, 53, 80
3, 20639, Note_on_c, 1, 53, 0
3, 20640, Note_on_c, 1, 55, 80
3, 20879, Note_on_c, 1, 55, 0
3, 20880, Note_on_c, 1, 51, 80
3, 21119, Note_on_c, 1, 51, 0
3, 21120, Note_on_c, 1, 56, 80
3, 21599, Note_on_c, 1, 56, 0
3, 21600, Note_on_c, 1, 54, 80
3, 22079, Note_on_c, 1, 54, 0
3, 22080, Note_on_c, 1, 52, 80
3, 22559, Note_on_c, 1, 52, 0
3, 22560, Note_on_c, 1, 51, 80
3, 23039, Note_on_c, 1, 51, 0
3, 23040, Note_on_c, 1, 49, 80
3, 23279, Note_on_c, 1, 49, 0
3, 23280, Note_on_c, 1, 61, 80
3, 23519, Note_on_c, 1, 61, 0
3, 23520, Note_on_c, 1, 63, 80
3, 23759, Note_on_c, 1, 63, 0
3, 23760, Note_on_c, 1, 65, 80
3, 23999, Note_on_c, 1, 65, 0
3, 24000, Note_on_c, 1, 66, 80
3, 24479, Note_on_c, 1, 66, 0
3, 24480, Note_on_c, 1, 64, 80
3, 24959, Note_on_c, 1, 64, 0
3, 24960, Note_on_c, 1, 63, 80
3, 25439, Note_on_c, 1, 63, 0
3, 25440, Note_on_c, 1, 61, 80
3, 25919, Note_on_c, 1, 61, 0
3, 25920, Note_on_c, 1, 60, 80
3, 26399, Note_on_c, 1, 60, 0
3, 26400, Note_on_c, 1, 61, 80
3, 26879, Note_on_c, 1, 61, 0
3, 26880, Note_on_c, 1, 63, 80
3, 27839, Note_on_c, 1, 63, 0
3, 27840, Note_on_c, 1, 61, 80
3, 29279, Note_on_c, 1, 61, 0
3, 29280, Note_on_c, 1, 59, 80
3, 29519, Note_on_c, 1, 59, 0
3, 29520, Note_on_c, 1, 58, 80
3, 29759, Note_on_c, 1, 58, 0
3, 29760, Note_on_c, 1, 56, 80
3, 30239, Note_on_c, 1, 56, 0
3, 31200, Note_on_c, 1, 61, 80
3, 31919, Note_on_c, 1, 61, 0
3, 31920, Note_on_c, 1, 58, 80
3, 32159, Note_on_c, 1, 58, 0
3, 32160, Note_on_c, 1, 60, 80
3, 32399, Note_on_c, 1, 60, 0
3, 32400, Note_on_c, 1, 63, 80
3, 32639, Note_on_c, 1, 63, 0
3, 32640, Note_on_c, 1, 56, 80
3, 33119, Note_on_c, 1, 56, 0
3, 54240, Note_on_c, 1, 63, 80
3, 55199, Note_on_c, 1, 63, 0
3, 55200, Note_on_c, 1, 56, 80
3, 55919, Note_on_c, 1, 56, 0
3, 55920, Note_on_c, 1, 58, 80
3, 56159, Note_on_c, 1, 58, 0
3, 56160, Note_on_c, 1, 59, 80
3, 56879, Note_on_c, 1, 59, 0
3, 56880, Note_on_c, 1, 61, 80
3, 57119, Note_on_c, 1, 61, 0
3, 57120, Note_on_c, 1, 63, 80
3, 57839, Note_on_c, 1, 63, 0
3, 57840, Note_on_c, 1, 61, 80
3, 58079, Note_on_c, 1, 61, 0
3, 58080, Note_on_c, 1, 64, 80
3, 59039, Note_on_c, 1, 64, 0
3, 59040, Note_on_c, 1, 63, 80
3, 59279, Note_on_c, 1, 63, 0
3, 59280, Note_on_c, 1, 61, 80
3, 59519, Note_on_c, 1, 61, 0
3, 59520, Note_on_c, 1, 59, 80
3, 60719, Note_on_c, 1, 59, 0
3, 60720, Note_on_c, 1, 58, 80
3, 60959, Note_on_c, 1, 58, 0
3, 60960, Note_on_c, 1, 60, 80
3, 61199, Note_on_c, 1, 60, 0
3, 61200, Note_on_c, 1, 61, 80
3, 61439, Note_on_c, 1, 61, 0
3, 61440, Note_on_c, 1, 63, 80
3, 62639, Note_on_c, 1, 63, 0
3, 62640, Note_on_c, 1, 56, 80
3, 62879, Note_on_c, 1, 56, 0
3, 62880, Note_on_c, 1, 58, 80
3, 63119, Note_on_c, 1, 58, 0
3, 63120, Note_on_c, 1, 59, 80
3, 63359, Note_on_c, 1, 59, 0
3, 63360, Note_on_c, 1, 61, 80
3, 64559, Note_on_c, 1, 61, 0
3, 64560, Note_on_c, 1, 54, 80
3, 64799, Note_on_c, 1, 54, 0
3, 64800, Note_on_c, 1, 56, 80
3, 65039, Note_on_c, 1, 56, 0
3, 65040, Note_on_c, 1, 57, 80
3, 65279, Note_on_c, 1, 57, 0
3, 65280, Note_on_c, 1, 59, 80
3, 65519, Note_on_c, 1, 59, 0
3, 65520, Note_on_c, 1, 57, 80
3, 65759, Note_on_c, 1, 57, 0
3, 65760, Note_on_c, 1, 59, 80
3, 66719, Note_on_c, 1, 59, 0
3, 66720, Note_on_c, 1, 52, 80
3, 67439, Note_on_c, 1, 52, 0
3, 67440, Note_on_c, 1, 54, 80
3, 67679, Note_on_c, 1, 54, 0
3, 67680, Note_on_c, 1, 56, 80
3, 68399, Note_on_c, 1, 56, 0
3, 68400, Note_on_c, 1, 57, 80
3, 68639, Note_on_c, 1, 57, 0
3, 68640, Note_on_c, 1, 59, 80
3, 69359, Note_on_c, 1, 59, 0
3, 69360, Note_on_c, 1, 57, 80
3, 69599, Note_on_c, 1, 57, 0
3, 69600, Note_on_c, 1, 61, 80
3, 70559, Note_on_c, 1, 61, 0
3, 70560, Note_on_c, 1, 59, 80
3, 70799, Note_on_c, 1, 59, 0
3, 70800, Note_on_c, 1, 57, 80
3, 71039, Note_on_c, 1, 57, 0
3, 71040, Note_on_c, 1, 56, 80
3, 72239, Note_on_c, 1, 56, 0
3, 72240, Note_on_c, 1, 54, 80
3, 72479, Note_on_c, 1, 54, 0
3, 72480, Note_on_c, 1, 56, 80
3, 72719, Note_on_c, 1, 56, 0
3, 72720, Note_on_c, 1, 58, 80
3, 72959, Note_on_c, 1, 58, 0
3, 72960, Note_on_c, 1, 59, 80
3, 73199, Note_on_c, 1, 59, 0
3, 73200, Note_on_c, 1, 54, 80
3, 73439, Note_on_c, 1, 54, 0
3, 73440, Note_on_c, 1, 59, 80
3, 74399, Note_on_c, 1, 59, 0
3, 74400, Note_on_c, 1, 58, 80
3, 74639, Note_on_c, 1, 58, 0
3, 74640, Note_on_c, 1, 57, 80
3, 75119, Note_on_c, 1, 57, 0
3, 75120, Note_on_c, 1, 56, 80
3, 75359, Note_on_c, 1, 56, 0
3, 75360, Note_on_c, 1, 64, 80
3, 75839, Note_on_c, 1, 64, 0
3, 75840, Note_on_c, 1, 61, 80
3, 76559, Note_on_c, 1, 61, 0
3, 76560, Note_on_c, 1, 63, 80
3, 76799, Note_on_c, 1, 63, 0
3, 76800, Note_on_c, 1, 56, 80
3, 77279, Note_on_c, 1, 56, 0
3, 77280, Note_on_c, 1, 61, 80
3, 78239, Note_on_c, 1, 61, 0
3, 78240, Note_on_c, 1, 60, 80
3, 78479, Note_on_c, 1, 60, 0
3, 78480, Note_on_c, 1, 59, 80
3, 78959, Note_on_c, 1, 59, 0
3, 78960, Note_on_c, 1, 58, 80
3, 79199, Note_on_c, 1, 58, 0
3, 79200, Note_on_c, 1, 66, 80
3, 79679, Note_on_c, 1, 66, 0
3, 79680, Note_on_c, 1, 63, 80
3, 80399, Note_on_c, 1, 63, 0
3, 80400, Note_on_c, 1, 65, 80
3, 80639, Note_on_c, 1, 65, 0
3, 80640, Note_on_c, 1, 58, 80
3, 81359, Note_on_c, 1, 58, 0
3, 81360, Note_on_c, 1, 60, 80
3, 81599, Note_on_c, 1, 60, 0
3, 81600, Note_on_c, 1, 61, 80
3, 82319, Note_on_c, 1, 61, 0
3, 82320, Note_on_c, 1, 61, 80
3, 82559, Note_on_c, 1, 61, 0
3, 82560, Note_on_c, 1, 59, 80
3, 82799, Note_on_c, 1, 59, 0
3, 82800, Note_on_c, 1, 58, 80
3, 83039, Note_on_c, 1, 58, 0
3, 83040, Note_on_c, 1, 59, 80
3, 83279, Note_on_c, 1, 59, 0
3, 83280, Note_on_c, 1, 56, 80
3, 83519, Note_on_c, 1, 56, 0
3, 83520, Note_on_c, 1, 58, 80
3, 84239, Note_on_c, 1, 58, 0
3, 84240, Note_on_c, 1, 59, 80
3, 84479, Note_on_c, 1, 59, 0
3, 84480, Note_on_c, 1, 61, 80
3, 84719, Note_on_c, 1, 61, 0
3, 84720, Note_on_c, 1, 59, 80
3, 85199, Note_on_c, 1, 59, 0
3, 85200, Note_on_c, 1, 58, 80
3, 85679, Note_on_c, 1, 58, 0
3, 85680, Note_on_c, 1, 56, 80
3, 86159, Note_on_c, 1, 56, 0
3, 86160, Note_on_c, 1, 55, 80
3, 86399, Note_on_c, 1, 55, 0
3, 86400, Note_on_c, 1, 56, 80
3, 86879, Note_on_c, 1, 56, 0
3, 88560, Note_on_c, 1, 49, 80
3, 88799, Note_on_c, 1, 49, 0
3, 88800, Note_on_c, 1, 51, 80
3, 89039, Note_on_c, 1, 51, 0
3, 89040, Note_on_c, 1, 53, 80
3, 89279, Note_on_c, 1, 53, 0
3, 89280, Note_on_c, 1, 54, 80
3, 89759, Note_on_c, 1, 54, 0
3, 89760, Note_on_c, 1, 56, 80
3, 89999, Note_on_c, 1, 56, 0
3, 90000, Note_on_c, 1, 52, 80
3, 90239, Note_on_c, 1, 52, 0
3, 90240, Note_on_c, 1, 54, 80
3, 90479, Note_on_c, 1, 54, 0
3, 90480, Note_on_c, 1, 64, 80
3, 90719, Note_on_c, 1, 64, 0
3, 90720, Note_on_c, 1, 63, 80
3, 90959, Note_on_c, 1, 63, 0
3, 90960, Note_on_c, 1, 61, 80
3, 91199, Note_on_c, 1, 61, 0
3, 91200, Note_on_c, 1, 59, 80
3, 91439, Note_on_c, 1, 59, 0
3, 91440, Note_on_c, 1, 47, 80
3, 91679, Note_on_c, 1, 47, 0
3, 91680, Note_on_c, 1, 49, 80
3, 91919, Note_on_c, 1, 49, 0
3, 91920, Note_on_c, 1, 51, 80
3, 92159, Note_on_c, 1, 51, 0
3, 92160, Note_on_c, 1, 52, 80
3, 92639, Note_on_c, 1, 52, 0
3, 92640, Note_on_c, 1, 54, 80
3, 92879, Note_on_c, 1, 54, 0
3, 92880, Note_on_c, 1, 50, 80
3, 93119, Note_on_c, 1, 50, 0
3, 93120, Note_on_c, 1, 52, 80
3, 93359, Note_on_c, 1, 52, 0
3, 93360, Note_on_c, 1, 62, 80
3, 93599, Note_on_c, 1, 62, 0
3, 93600, Note_on_c, 1, 61, 80
3, 93839, Note_on_c, 1, 61, 0
3, 93840, Note_on_c, 1, 59, 80
3, 94079, Note_on_c, 1, 59, 0
3, 94080, Note_on_c, 1, 57, 80
3, 94319, Note_on_c, 1, 57, 0
3, 94320, Note_on_c, 1, 45, 80
3, 94559, Note_on_c, 1, 45, 0
3, 94560, Note_on_c, 1, 47, 80
3, 94799, Note_on_c, 1, 47, 0
3, 94800, Note_on_c, 1, 49, 80
3, 95039, Note_on_c, 1, 49, 0
3, 95040, Note_on_c, 1, 50, 80
3, 95279, Note_on_c, 1, 50, 0
3, 95280, Note_on_c, 1, 52, 80
3, 95519, Note_on_c, 1, 52, 0
3, 95520, Note_on_c, 1, 50, 80
3, 95759, Note_on_c, 1, 50, 0
3, 95760, Note_on_c, 1, 49, 80
3, 95999, Note_on_c, 1, 49, 0
3, 96000, Note_on_c, 1, 47, 80
3, 96239, Note_on_c, 1, 47, 0
3, 96240, Note_on_c, 1, 49, 80
3, 96479, Note_on_c, 1, 49, 0
3, 96480, Note_on_c, 1, 51, 80
3, 96719, Note_on_c, 1, 51, 0
3, 96720, Note_on_c, 1, 53, 80
3, 96959, Note_on_c, 1, 53, 0
3, 96960, Note_on_c, 1, 54, 80
3, 97679, Note_on_c, 1, 54, 0
3, 97680, Note_on_c, 1, 50, 80
3, 97919, Note_on_c, 1, 50, 0
3, 97920, Note_on_c, 1, 49, 80
3, 98399, Note_on_c, 1, 49, 0
3, 98640, Note_on_c, 1, 54, 80
3, 98879, Note_on_c, 1, 54, 0
3, 98880, Note_on_c, 1, 52, 80
3, 99119, Note_on_c, 1, 52, 0
3, 99120, Note_on_c, 1, 57, 80
3, 99359, Note_on_c, 1, 57, 0
3, 99360, Note_on_c, 1, 56, 80
3, 100319, Note_on_c, 1, 56, 0
3, 100320, Note_on_c, 1, 54, 80
3, 101039, Note_on_c, 1, 54, 0
3, 101040, Note_on_c, 1, 51, 80
3, 101279, Note_on_c, 1, 51, 0
3, 101280, Note_on_c, 1, 53, 80
3, 101519, Note_on_c, 1, 53, 0
3, 101520, Note_on_c, 1, 56, 80
3, 101759, Note_on_c, 1, 56, 0
3, 101760, Note_on_c, 1, 49, 80
3, 101999, Note_on_c, 1, 49, 0
3, 102000, Note_on_c, 1, 53, 80
3, 102239, Note_on_c, 1, 53, 0
3, 102240, Note_on_c, 1, 54, 80
3, 102479, Note_on_c, 1, 54, 0
3, 102480, Note_on_c, 1, 56, 80
3, 102719, Note_on_c, 1, 56, 0
3, 102720, Note_on_c, 1, 57, 80
3, 102959, Note_on_c, 1, 57, 0
3, 103920, Note_on_c, 1, 61, 80
3, 104159, Note_on_c, 1, 61, 0
3, 104160, Note_on_c, 1, 60, 80
3, 104399, Note_on_c, 1, 60, 0
3, 104400, Note_on_c, 1, 59, 80
3, 104879, Note_on_c, 1, 59, 0
3, 104880, Note_on_c, 1, 59, 80
3, 105119, Note_on_c, 1, 59, 0
3, 105120, Note_on_c, 1, 58, 80
3, 105359, Note_on_c, 1, 58, 0
3, 105360, Note_on_c, 1, 57, 80
3, 105599, Note_on_c, 1, 57, 0
3, 105600, Note_on_c, 1, 56, 80
3, 105839, Note_on_c, 1, 56, 0
3, 105840, Note_on_c, 1, 55, 80
3, 106079, Note_on_c, 1, 55, 0
3, 106080, Note_on_c, 1, 56, 80
3, 106319, Note_on_c, 1, 56, 0
3, 106320, Note_on_c, 1, 58, 80
3, 106559, Note_on_c, 1, 58, 0
3, 106560, Note_on_c, 1, 59, 80
3, 107039, Note_on_c, 1, 59, 0
3, 107040, Note_on_c, 1, 60, 80
3, 107999, Note_on_c, 1, 60, 0
3, 108000, Note_on_c, 1, 61, 80
3, 108239, Note_on_c, 1, 61, 0
3, 108240, Note_on_c, 1, 63, 80
3, 108479, Note_on_c, 1, 63, 0
3, 108480, Note_on_c, 1, 64, 80
3, 108959, Note_on_c, 1, 64, 0
3, 108960, Note_on_c, 1, 63, 80
3, 109439, Note_on_c, 1, 63, 0
3, 109680, Note_on_c, 1, 56, 80
3, 109919, Note_on_c, 1, 56, 0
3, 109920, Note_on_c, 1, 58, 80
3, 110159, Note_on_c, 1, 58, 0
3, 110160, Note_on_c, 1, 60, 80
3, 110399, Note_on_c, 1, 60, 0
3, 110400, Note_on_c, 1, 61, 80
3, 110639, Note_on_c, 1, 61, 0
3, 110640, Note_on_c, 1, 56, 80
3, 110879, Note_on_c, 1, 56, 0
3, 110880, Note_on_c, 1, 49, 80
3, 111359, Note_on_c, 1, 49, 0
3, 111360, Note_on_c, 1, 51, 80
3, 111599, Note_on_c, 1, 51, 0
3, 111600, Note_on_c, 1, 50, 80
3, 111839, Note_on_c, 1, 50, 0
3, 111840, Note_on_c, 1, 51, 80
3, 112079, Note_on_c, 1, 51, 0
3, 112080, Note_on_c, 1, 53, 80
3, 112319, Note_on_c, 1, 53, 0
3, 112320, Note_on_c, 1, 54, 80
3, 113039, Note_on_c, 1, 54, 0
3, 113040, Note_on_c, 1, 55, 80
3, 113279, Note_on_c, 1, 55, 0
3, 113280, Note_on_c, 1, 56, 80
3, 113759, Note_on_c, 1, 56, 0
3, 114720, Note_on_c, 1, 63, 80
3, 115199, Note_on_c, 1, 63, 0
3, 115200, Note_on_c, 1, 63, 80
3, 115679, Note_on_c, 1, 63, 0
3, 119040, Note_on_c, 1, 56, 80
3, 119999, Note_on_c, 1, 56, 0
3, 120000, Note_on_c, 1, 49, 80
3, 120959, Note_on_c, 1, 49, 0
3, 120960, Note_on_c, 1, 52, 80
3, 121919, Note_on_c, 1, 52, 0
3, 121920, Note_on_c, 1, 56, 80
3, 122879, Note_on_c, 1, 56, 0
3, 122880, Note_on_c, 1, 57, 80
3, 123839, Note_on_c, 1, 57, 0
3, 123840, Note_on_c, 1, 56, 80
3, 124319, Note_on_c, 1, 56, 0
3, 124320, Note_on_c, 1, 54, 80
3, 124799, Note_on_c, 1, 54, 0
3, 124800, Note_on_c, 1, 52, 80
3, 125999, Note_on_c, 1, 52, 0
3, 126000, Note_on_c, 1, 51, 80
3, 126239, Note_on_c, 1, 51, 0
3, 126240, Note_on_c, 1, 53, 80
3, 126479, Note_on_c, 1, 53, 0
3, 126480, Note_on_c, 1, 54, 80
3, 126719, Note_on_c, 1, 54, 0
3, 126720, Note_on_c, 1, 56, 80
3, 127919, Note_on_c, 1, 56, 0
3, 127920, Note_on_c, 1, 49, 80
3, 128159, Note_on_c, 1, 49, 0
3, 128160, Note_on_c, 1, 51, 80
3, 128399, Note_on_c, 1, 51, 0
3, 128400, Note_on_c, 1, 53, 80
3, 128639, Note_on_c, 1, 53, 0
3, 128640, Note_on_c, 1, 54, 80
3, 129839, Note_on_c, 1, 54, 0
3, 129840, Note_on_c, 1, 53, 80
3, 130079, Note_on_c, 1, 53, 0
3, 130080, Note_on_c, 1, 54, 80
3, 130319, Note_on_c, 1, 54, 0
3, 130320, Note_on_c, 1, 56, 80
3, 130559, Note_on_c, 1, 56, 0
3, 130560, Note_on_c, 1, 57, 80
3, 131039, Note_on_c, 1, 57, 0
3, 131040, Note_on_c, 1, 56, 80
3, 131279, Note_on_c, 1, 56, 0
3, 131280, Note_on_c, 1, 54, 80
3, 131519, Note_on_c, 1, 54, 0
3, 131520, Note_on_c, 1, 56, 80
3, 133679, Note_on_c, 1, 56, 0
3, 133680, Note_on_c, 1, 56, 80
3, 133919, Note_on_c, 1, 56, 0
3, 133920, Note_on_c, 1, 54, 80
3, 134159, Note_on_c, 1, 54, 0
3, 134160, Note_on_c, 1, 53, 80
3, 134399, Note_on_c, 1, 53, 0
3, 134400, Note_on_c, 1, 54, 80
3, 136559, Note_on_c, 1, 54, 0
3, 136560, Note_on_c, 1, 53, 80
3, 136799, Note_on_c, 1, 53, 0
3, 136800, Note_on_c, 1, 54, 80
3, 137039, Note_on_c, 1, 54, 0
3, 137040, Note_on_c, 1, 51, 80
3, 137279, Note_on_c, 1, 51, 0
3, 137280, Note_on_c, 1, 53, 80
3, 138239, Note_on_c, 1, 53, 0
3, 138240, End_track
4, 0, Start_track
4, 0, Key_signature, 4, "major"
4, 26880, Note_on_c, 1, 56, 80
4, 27839, Note_on_c, 1, 56, 0
4, 27840, Note_on_c, 1, 49, 80
4, 28799, Note_on_c, 1, 49, 0
4, 28800, Note_on_c, 1, 52, 80
4, 29759, Note_on_c, 1, 52, 0
4, 29760, Note_on_c, 1, 56, 80
4, 30719, Note_on_c, 1, 56, 0
4, 30720, Note_on_c, 1, 57, 80
4, 31679, Note_on_c, 1, 57, 0
4, 31680, Note_on_c, 1, 56, 80
4, 32159, Note_on_c, 1, 56, 0
4, 32160, Note_on_c, 1, 54, 80
4, 32639, Note_on_c, 1, 54, 0
4, 32640, Note_on_c, 1, 52, 80
4, 33839, Note_on_c, 1, 52, 0
4, 33840, Note_on_c, 1, 51, 80
4, 34079, Note_on_c, 1, 51, 0
4, 34080, Note_on_c, 1, 52, 80
4, 34319, Note_on_c, 1, 52, 0
4, 34320, Note_on_c, 1, 54, 80
4, 34559, Note_on_c, 1, 54, 0
4, 34560, Note_on_c, 1, 56, 80
4, 34799, Note_on_c, 1, 56, 0
4, 34800, Note_on_c, 1, 44, 80
4, 35039, Note_on_c, 1, 44, 0
4, 35280, Note_on_c, 1, 44, 80
4, 35519, Note_on_c, 1, 44, 0
4, 35520, Note_on_c, 1, 45, 80
4, 35759, Note_on_c, 1, 45, 0
4, 35760, Note_on_c, 1, 44, 80
4, 35999, Note_on_c, 1, 44, 0
4, 36000, Note_on_c, 1, 46, 80
4, 36239, Note_on_c, 1, 46, 0
4, 36240, Note_on_c, 1, 48, 80
4, 36479, Note_on_c, 1, 48, 0
4, 36480, Note_on_c, 1, 49, 80
4, 36719, Note_on_c, 1, 49, 0
4, 36720, Note_on_c, 1, 37, 80
4, 36959, Note_on_c, 1, 37, 0
4, 37200, Note_on_c, 1, 49, 80
4, 37439, Note_on_c, 1, 49, 0
4, 37440, Note_on_c, 1, 50, 80
4, 37679, Note_on_c, 1, 50, 0
4, 37680, Note_on_c, 1, 49, 80
4, 37919, Note_on_c, 1, 49, 0
4, 37920, Note_on_c, 1, 51, 80
4, 38159, Note_on_c, 1, 51, 0
4, 38160, Note_on_c, 1, 53, 80
4, 38399, Note_on_c, 1, 53, 0
4, 38400, Note_on_c, 1, 54, 80
4, 38639, Note_on_c, 1, 54, 0
4, 38640, Note_on_c, 1, 42, 80
4, 38879, Note_on_c, 1, 42, 0
4, 39120, Note_on_c, 1, 42, 80
4, 39359, Note_on_c, 1, 42, 0
4, 39360, Note_on_c, 1, 43, 80
4, 39599, Note_on_c, 1, 43, 0
4, 39600, Note_on_c, 1, 42, 80
4, 39839, Note_on_c, 1, 42, 0
4, 39840, Note_on_c, 1, 44, 80
4, 40079, Note_on_c, 1, 44, 0
4, 40080, Note_on_c, 1, 46, 80
4, 40319, Note_on_c, 1, 46, 0
4, 40320, Note_on_c, 1, 47, 80
4, 40559, Note_on_c, 1, 47, 0
4, 40560, Note_on_c, 1, 35, 80
4, 40799, Note_on_c, 1, 35, 0
4, 41040, Note_on_c, 1, 47, 80
4, 41279, Note_on_c, 1, 47, 0
4, 41280, Note_on_c, 1, 48, 80
4, 41519, Note_on_c, 1, 48, 0
4, 41520, Note_on_c, 1, 47, 80
4, 41759, Note_on_c, 1, 47, 0
4, 41760, Note_on_c, 1, 49, 80
4, 41999, Note_on_c, 1, 49, 0
4, 42000, Note_on_c, 1, 51, 80
4, 42239, Note_on_c, 1, 51, 0
4, 42240, Note_on_c, 1, 52, 80
4, 42479, Note_on_c, 1, 52, 0
4, 42480, Note_on_c, 1, 40, 80
4, 42719, Note_on_c, 1, 40, 0
4, 42960, Note_on_c, 1, 40, 80
4, 43199, Note_on_c, 1, 40, 0
4, 43200, Note_on_c, 1, 41, 80
4, 43439, Note_on_c, 1, 41, 0
4, 43440, Note_on_c, 1, 42, 80
4, 43679, Note_on_c, 1, 42, 0
4, 43920, Note_on_c, 1, 54, 80
4, 44159, Note_on_c, 1, 54, 0
4, 44160, Note_on_c, 1, 52, 80
4, 44399, Note_on_c, 1, 52, 0
4, 44400, Note_on_c, 1, 51, 80
4, 44639, Note_on_c, 1, 51, 0
4, 44640, Note_on_c, 1, 49, 80
4, 44879, Note_on_c, 1, 49, 0
4, 44880, Note_on_c, 1, 61, 80
4, 45119, Note_on_c, 1, 61, 0
4, 45120, Note_on_c, 1, 56, 80
4, 45359, Note_on_c, 1, 56, 0
4, 45360, Note_on_c, 1, 57, 80
4, 45599, Note_on_c, 1, 57, 0
4, 45600, Note_on_c, 1, 56, 80
4, 45839, Note_on_c, 1, 56, 0
4, 45840, Note_on_c, 1, 54, 80
4, 46079, Note_on_c, 1, 54, 0
4, 46080, Note_on_c, 1, 52, 80
4, 46319, Note_on_c, 1, 52, 0
4, 46320, Note_on_c, 1, 51, 80
4, 46559, Note_on_c, 1, 51, 0
4, 46560, Note_on_c, 1, 49, 80
4, 47279, Note_on_c, 1, 49, 0
4, 47280, Note_on_c, 1, 54, 80
4, 47519, Note_on_c, 1, 54, 0
4, 47520, Note_on_c, 1, 48, 80
4, 47999, Note_on_c, 1, 48, 0
4, 48000, Note_on_c, 1, 49, 80
4, 48479, Note_on_c, 1, 49, 0
4, 48720, Note_on_c, 1, 44, 80
4, 48959, Note_on_c, 1, 44, 0
4, 48960, Note_on_c, 1, 45, 80
4, 49199, Note_on_c, 1, 45, 0
4, 49200, Note_on_c, 1, 57, 80
4, 49439, Note_on_c, 1, 57, 0
4, 49440, Note_on_c, 1, 56, 80
4, 49679, Note_on_c, 1, 56, 0
4, 49680, Note_on_c, 1, 54, 80
4, 49919, Note_on_c, 1, 54, 0
4, 49920, Note_on_c, 1, 53, 80
4, 50639, Note_on_c, 1, 53, 0
4, 50640, Note_on_c, 1, 51, 80
4, 50759, Note_on_c, 1, 51, 0
4, 50760, Note_on_c, 1, 53, 80
4, 50879, Note_on_c, 1, 53, 0
4, 50880, Note_on_c, 1, 54, 80
4, 51119, Note_on_c, 1, 54, 0
4, 51120, Note_on_c, 1, 52, 80
4, 51359, Note_on_c, 1, 52, 0
4, 51360, Note_on_c, 1, 51, 80
4, 51599, Note_on_c, 1, 51, 0
4, 51600, Note_on_c, 1, 49, 80
4, 51839, Note_on_c, 1, 49, 0
4, 51840, Note_on_c, 1, 48, 80
4, 52319, Note_on_c, 1, 48, 0
4, 52320, Note_on_c, 1, 60, 80
4, 52559, Note_on_c, 1, 60, 0
4, 52560, Note_on_c, 1, 58, 80
4, 52679, Note_on_c, 1, 58, 0
4, 52680, Note_on_c, 1, 60, 80
4, 52799, Note_on_c, 1, 60, 0
4, 52800, Note_on_c, 1, 61, 80
4, 53039, Note_on_c, 1, 61, 0
4, 53040, Note_on_c, 1, 59, 80
4, 53279, Note_on_c, 1, 59, 0
4, 53280, Note_on_c, 1, 58, 80
4, 53519, Note_on_c, 1, 58, 0
4, 53520, Note_on_c, 1, 56, 80
4, 53759, Note_on_c, 1, 56, 0
4, 53760, Note_on_c, 1, 55, 80
4, 54719, Note_on_c, 1, 55, 0
4, 54720, Note_on_c, 1, 56, 80
4, 55199, Note_on_c, 1, 56, 0
4, 55200, Note_on_c, 1, 44, 80
4, 55439, Note_on_c, 1, 44, 0
4, 55440, Note_on_c, 1, 46, 80
4, 55679, Note_on_c, 1, 46, 0
4, 55680, Note_on_c, 1, 47, 80
4, 56159, Note_on_c, 1, 47, 0
4, 56400, Note_on_c, 1, 44, 80
4, 56639, Note_on_c, 1, 44, 0
4, 56640, Note_on_c, 1, 51, 80
4, 56879, Note_on_c, 1, 51, 0
4, 56880, Note_on_c, 1, 52, 80
4, 57119, Note_on_c, 1, 52, 0
4, 57120, Note_on_c, 1, 51, 80
4, 57359, Note_on_c, 1, 51, 0
4, 57360, Note_on_c, 1, 49, 80
4, 57599, Note_on_c, 1, 49, 0
4, 57600, Note_on_c, 1, 47, 80
4, 57839, Note_on_c, 1, 47, 0
4, 57840, Note_on_c, 1, 46, 80
4, 58079, Note_on_c, 1, 46, 0
4, 58080, Note_on_c, 1, 44, 80
4, 58799, Note_on_c, 1, 44, 0
4, 58800, Note_on_c, 1, 49, 80
4, 59039, Note_on_c, 1, 49, 0
4, 59040, Note_on_c, 1, 43, 80
4, 59519, Note_on_c, 1, 43, 0
4, 59520, Note_on_c, 1, 44, 80
4, 59759, Note_on_c, 1, 44, 0
4, 59760, Note_on_c, 1, 47, 80
4, 59999, Note_on_c, 1, 47, 0
4, 60000, Note_on_c, 1, 49, 80
4, 60239, Note_on_c, 1, 49, 0
4, 60240, Note_on_c, 1, 51, 80
4, 60479, Note_on_c, 1, 51, 0
4, 60480, Note_on_c, 1, 52, 80
4, 60959, Note_on_c, 1, 52, 0
4, 60960, Note_on_c, 1, 51, 80
4, 61199, Note_on_c, 1, 51, 0
4, 61200, Note_on_c, 1, 49, 80
4, 61439, Note_on_c, 1, 49, 0
4, 61440, Note_on_c, 1, 48, 80
4, 61679, Note_on_c, 1, 48, 0
4, 61680, Note_on_c, 1, 44, 80
4, 61919, Note_on_c, 1, 44, 0
4, 61920, Note_on_c, 1, 46, 80
4, 62159, Note_on_c, 1, 46, 0
4, 62160, Note_on_c, 1, 48, 80
4, 62399, Note_on_c, 1, 48, 0
4, 62400, Note_on_c, 1, 49, 80
4, 62639, Note_on_c, 1, 49, 0
4, 62640, Note_on_c, 1, 51, 80
4, 62879, Note_on_c, 1, 51, 0
4, 62880, Note_on_c, 1, 49, 80
4, 63119, Note_on_c, 1, 49, 0
4, 63120, Note_on_c, 1, 47, 80
4, 63359, Note_on_c, 1, 47, 0
4, 63360, Note_on_c, 1, 46, 80
4, 63599, Note_on_c, 1, 46, 0
4, 63600, Note_on_c, 1, 42, 80
4, 63839, Note_on_c, 1, 42, 0
4, 63840, Note_on_c, 1, 44, 80
4, 64079, Note_on_c, 1, 44, 0
4, 64080, Note_on_c, 1, 46, 80
4, 64319, Note_on_c, 1, 46, 0
4, 64320, Note_on_c, 1, 47, 80
4, 64559, Note_on_c, 1, 47, 0
4, 64560, Note_on_c, 1, 49, 80
4, 64799, Note_on_c, 1, 49, 0
4, 64800, Note_on_c, 1, 47, 80
4, 65039, Note_on_c, 1, 47, 0
4, 65040, Note_on_c, 1, 45, 80
4, 65279, Note_on_c, 1, 45, 0
4, 65280, Note_on_c, 1, 44, 80
4, 65519, Note_on_c, 1, 44, 0
4, 65520, Note_on_c, 1, 42, 80
4, 65759, Note_on_c, 1, 42, 0
4, 65760, Note_on_c, 1, 44, 80
4, 65999, Note_on_c, 1, 44, 0
4, 66000, Note_on_c, 1, 40, 80
4, 66239, Note_on_c, 1, 40, 0
4, 66240, Note_on_c, 1, 45, 80
4, 66479, Note_on_c, 1, 45, 0
4, 66480, Note_on_c, 1, 44, 80
4, 66719, Note_on_c, 1, 44, 0
4, 66720, Note_on_c, 1, 45, 80
4, 66959, Note_on_c, 1, 45, 0
4, 66960, Note_on_c, 1, 47, 80
4, 67199, Note_on_c, 1, 47, 0
4, 67200, Note_on_c, 1, 49, 80
4, 67919, Note_on_c, 1, 49, 0
4, 67920, Note_on_c, 1, 51, 80
4, 68159, Note_on_c, 1, 51, 0
4, 68160, Note_on_c, 1, 52, 80
4, 68879, Note_on_c, 1, 52, 0
4, 68880, Note_on_c, 1, 49, 80
4, 69119, Note_on_c, 1, 49, 0
4, 69120, Note_on_c, 1, 54, 80
4, 69839, Note_on_c, 1, 54, 0
4, 69840, Note_on_c, 1, 52, 80
4, 70079, Note_on_c, 1, 52, 0
4, 70080, Note_on_c, 1, 51, 80
4, 70319, Note_on_c, 1, 51, 0
4, 70320, Note_on_c, 1, 49, 80
4, 70559, Note_on_c, 1, 49, 0
4, 70560, Note_on_c, 1, 51, 80
4, 70799, Note_on_c, 1, 51, 0
4, 70800, Note_on_c, 1, 47, 80
4, 71039, Note_on_c, 1, 47, 0
4, 71040, Note_on_c, 1, 52, 80
4, 71519, Note_on_c, 1, 52, 0
4, 71520, Note_on_c, 1, 51, 80
4, 71999, Note_on_c, 1, 51, 0
4, 72000, Note_on_c, 1, 49, 80
4, 72959, Note_on_c, 1, 49, 0
4, 72960, Note_on_c, 1, 47, 80
4, 73439, Note_on_c, 1, 47, 0
4, 73680, Note_on_c, 1, 47, 80
4, 73919, Note_on_c, 1, 47, 0
4, 73920, Note_on_c, 1, 48, 80
4, 74159, Note_on_c, 1, 48, 0
4, 74160, Note_on_c, 1, 47, 80
4, 74399, Note_on_c, 1, 47, 0
4, 74400, Note_on_c, 1, 49, 80
4, 74639, Note_on_c, 1, 49, 0
4, 74640, Note_on_c, 1, 51, 80
4, 74879, Note_on_c, 1, 51, 0
4, 74880, Note_on_c, 1, 52, 80
4, 75119, Note_on_c, 1, 52, 0
4, 75120, Note_on_c, 1, 40, 80
4, 75359, Note_on_c, 1, 40, 0
4, 75600, Note_on_c, 1, 52, 80
4, 75839, Note_on_c, 1, 52, 0
4, 75840, Note_on_c, 1, 45, 80
4, 76079, Note_on_c, 1, 45, 0
4, 76080, Note_on_c, 1, 44, 80
4, 76319, Note_on_c, 1, 44, 0
4, 76320, Note_on_c, 1, 46, 80
4, 76559, Note_on_c, 1, 46, 0
4, 76560, Note_on_c, 1, 48, 80
4, 76799, Note_on_c, 1, 48, 0
4, 76800, Note_on_c, 1, 49, 80
4, 77039, Note_on_c, 1, 49, 0
4, 77040, Note_on_c, 1, 37, 80
4, 77279, Note_on_c, 1, 37, 0
4, 77520, Note_on_c, 1, 49, 80
4, 77759, Note_on_c, 1, 49, 0
4, 77760, Note_on_c, 1, 50, 80
4, 77999, Note_on_c, 1, 50, 0
4, 78000, Note_on_c, 1, 49, 80
4, 78239, Note_on_c, 1, 49, 0
4, 78240, Note_on_c, 1, 51, 80
4, 78479, Note_on_c, 1, 51, 0
4, 78480, Note_on_c, 1, 53, 80
4, 78719, Note_on_c, 1, 53, 0
4, 78720, Note_on_c, 1, 54, 80
4, 78959, Note_on_c, 1, 54, 0
4, 78960, Note_on_c, 1, 42, 80
4, 79199, Note_on_c, 1, 42, 0
4, 79440, Note_on_c, 1, 54, 80
4, 79679, Note_on_c, 1, 54, 0
4, 79680, Note_on_c, 1, 47, 80
4, 79919, Note_on_c, 1, 47, 0
4, 79920, Note_on_c, 1, 46, 80
4, 80159, Note_on_c, 1, 46, 0
4, 80160, Note_on_c, 1, 48, 80
4, 80399, Note_on_c, 1, 48, 0
4, 80400, Note_on_c, 1, 50, 80
4, 80639, Note_on_c, 1, 50, 0
4, 80640, Note_on_c, 1, 51, 80
4, 81359, Note_on_c, 1, 51, 0
4, 81360, Note_on_c, 1, 51, 80
4, 81599, Note_on_c, 1, 51, 0
4, 81600, Note_on_c, 1, 52, 80
4, 81839, Note_on_c, 1, 52, 0
4, 81840, Note_on_c, 1, 54, 80
4, 82079, Note_on_c, 1, 54, 0
4, 82080, Note_on_c, 1, 56, 80
4, 83279, Note_on_c, 1, 56, 0
4, 83280, Note_on_c, 1, 56, 80
4, 83519, Note_on_c, 1, 56, 0
4, 83520, Note_on_c, 1, 54, 80
4, 83759, Note_on_c, 1, 54, 0
4, 83760, Note_on_c, 1, 53, 80
4, 83999, Note_on_c, 1, 53, 0
4, 84000, Note_on_c, 1, 51, 80
4, 84719, Note_on_c, 1, 51, 0
4, 84720, Note_on_c, 1, 52, 80
4, 84959, Note_on_c, 1, 52, 0
4, 84960, Note_on_c, 1, 51, 80
4, 85199, Note_on_c, 1, 51, 0
4, 85200, Note_on_c, 1, 49, 80
4, 85439, Note_on_c, 1, 49, 0
4, 85440, Note_on_c, 1, 47, 80
4, 85919, Note_on_c, 1, 47, 0
4, 85920, Note_on_c, 1, 51, 80
4, 86399, Note_on_c, 1, 51, 0
4, 86400, Note_on_c, 1, 44, 80
4, 86879, Note_on_c, 1, 44, 0
4, 96000, Note_on_c, 1, 47, 80
4, 96959, Note_on_c, 1, 47, 0
4, 96960, Note_on_c, 1, 42, 80
4, 97919, Note_on_c, 1, 42, 0
4, 97920, Note_on_c, 1, 45, 80
4, 98879, Note_on_c, 1, 45, 0
4, 98880, Note_on_c, 1, 49, 80
4, 99839, Note_on_c, 1, 49, 0
4, 99840, Note_on_c, 1, 50, 80
4, 100799, Note_on_c, 1, 50, 0
4, 100800, Note_on_c, 1, 49, 80
4, 101279, Note_on_c, 1, 49, 0
4, 101280, Note_on_c, 1, 47, 80
4, 101759, Note_on_c, 1, 47, 0
4, 101760, Note_on_c, 1, 45, 80
4, 102959, Note_on_c, 1, 45, 0
4, 102960, Note_on_c, 1, 44, 80
4, 103199, Note_on_c, 1, 44, 0
4, 103200, Note_on_c, 1, 46, 80
4, 103439, Note_on_c, 1, 46, 0
4, 103440, Note_on_c, 1, 48, 80
4, 103679, Note_on_c, 1, 48, 0
4, 103680, Note_on_c, 1, 49, 80
4, 104159, Note_on_c, 1, 49, 0
4, 104160, Note_on_c, 1, 51, 80
4, 104399, Note_on_c, 1, 51, 0
4, 104400, Note_on_c, 1, 53, 80
4, 104639, Note_on_c, 1, 53, 0
4, 104640, Note_on_c, 1, 54, 80
4, 105119, Note_on_c, 1, 54, 0
4, 105360, Note_on_c, 1, 54, 80
4, 105599, Note_on_c, 1, 54, 0
4, 105600, Note_on_c, 1, 49, 80
4, 106079, Note_on_c, 1, 49, 0
4, 106320, Note_on_c, 1, 49, 80
4, 106559, Note_on_c, 1, 49, 0
4, 106560, Note_on_c, 1, 47, 80
4, 106799, Note_on_c, 1, 47, 0
4, 106800, Note_on_c, 1, 49, 80
4, 107039, Note_on_c, 1, 49, 0
4, 107040, Note_on_c, 1, 51, 80
4, 107759, Note_on_c, 1, 51, 0
4, 107760, Note_on_c, 1, 54, 80
4, 107999, Note_on_c, 1, 54, 0
4, 108000, Note_on_c, 1, 52, 80
4, 108239, Note_on_c, 1, 52, 0
4, 108240, Note_on_c, 1, 51, 80
4, 108479, Note_on_c, 1, 51, 0
4, 108480, Note_on_c, 1, 49, 80
4, 108959, Note_on_c, 1, 49, 0
4, 108960, Note_on_c, 1, 48, 80
4, 109439, Note_on_c, 1, 48, 0
4, 109440, Note_on_c, 1, 49, 80
4, 110639, Note_on_c, 1, 49, 0
4, 110640, Note_on_c, 1, 47, 80
4, 111119, Note_on_c, 1, 47, 0
4, 111120, Note_on_c, 1, 46, 80
4, 111359, Note_on_c, 1, 46, 0
4, 111360, Note_on_c, 1, 44, 80
4, 112319, Note_on_c, 1, 44, 0
4, 112320, Note_on_c, 1, 42, 80
4, 112559, Note_on_c, 1, 42, 0
4, 112560, Note_on_c, 1, 44, 80
4, 112799, Note_on_c, 1, 44, 0
4, 112800, Note_on_c, 1, 45, 80
4, 113279, Note_on_c, 1, 45, 0
4, 113280, Note_on_c, 1, 44, 80
4, 113519, Note_on_c, 1, 44, 0
4, 113520, Note_on_c, 1, 49, 80
4, 113759, Note_on_c, 1, 49, 0
4, 113760, Note_on_c, 1, 51, 80
4, 113999, Note_on_c, 1, 51, 0
4, 114000, Note_on_c, 1, 52, 80
4, 114239, Note_on_c, 1, 52, 0
4, 114240, Note_on_c, 1, 54, 80
4, 114719, Note_on_c, 1, 54, 0
4, 114720, Note_on_c, 1, 55, 80
4, 115199, Note_on_c, 1, 55, 0
4, 115200, Note_on_c, 1, 56, 80
4, 115439, Note_on_c, 1, 56, 0
4, 115440, Note_on_c, 1, 57, 80
4, 115679, Note_on_c, 1, 57, 0
4, 115680, Note_on_c, 1, 56, 80
4, 115919, Note_on_c, 1, 56, 0
4, 115920, Note_on_c, 1, 54, 80
4, 116159, Note_on_c, 1, 54, 0
4, 116160, Note_on_c, 1, 53, 80
4, 116639, Note_on_c, 1, 53, 0
4, 116640, Note_on_c, 1, 54, 80
4, 116879, Note_on_c, 1, 54, 0
4, 116880, Note_on_c, 1, 56, 80
4, 117119, Note_on_c, 1, 56, 0
4, 117120, Note_on_c, 1, 57, 80
4, 117359, Note_on_c, 1, 57, 0
4, 117360, Note_on_c, 1, 59, 80
4, 117599, Note_on_c, 1, 59, 0
4, 117600, Note_on_c, 1, 57, 80
4, 117839, Note_on_c, 1, 57, 0
4, 117840, Note_on_c, 1, 56, 80
4, 118079, Note_on_c, 1, 56, 0
4, 118080, Note_on_c, 1, 54, 80
4, 118319, Note_on_c, 1, 54, 0
4, 118320, Note_on_c, 1, 52, 80
4, 118559, Note_on_c, 1, 52, 0
4, 118560, Note_on_c, 1, 51, 80
4, 118799, Note_on_c, 1, 51, 0
4, 118800, Note_on_c, 1, 49, 80
4, 119039, Note_on_c, 1, 49, 0
4, 119040, Note_on_c, 1, 48, 80
4, 119519, Note_on_c, 1, 48, 0
4, 119520, Note_on_c, 1, 47, 80
4, 120479, Note_on_c, 1, 47, 0
4, 120480, Note_on_c, 1, 46, 80
4, 120719, Note_on_c, 1, 46, 0
4, 120720, Note_on_c, 1, 45, 80
4, 120959, Note_on_c, 1, 45, 0
4, 120960, Note_on_c, 1, 44, 80
4, 121199, Note_on_c, 1, 44, 0
4, 121200, Note_on_c, 1, 43, 80
4, 121439, Note_on_c, 1, 43, 0
4, 121440, Note_on_c, 1, 44, 80
4, 121679, Note_on_c, 1, 44, 0
4, 121680, Note_on_c, 1, 46, 80
4, 121919, Note_on_c, 1, 46, 0
4, 121920, Note_on_c, 1, 47, 80
4, 122399, Note_on_c, 1, 47, 0
4, 122400, Note_on_c, 1, 48, 80
4, 123359, Note_on_c, 1, 48, 0
4, 123360, Note_on_c, 1, 49, 80
4, 123599, Note_on_c, 1, 49, 0
4, 123600, Note_on_c, 1, 51, 80
4, 123839, Note_on_c, 1, 51, 0
4, 123840, Note_on_c, 1, 52, 80
4, 124319, Note_on_c, 1, 52, 0
4, 124320, Note_on_c, 1, 51, 80
4, 125039, Note_on_c, 1, 51, 0
4, 125040, Note_on_c, 1, 44, 80
4, 125279, Note_on_c, 1, 44, 0
4, 125280, Note_on_c, 1, 46, 80
4, 125519, Note_on_c, 1, 46, 0
4, 125520, Note_on_c, 1, 48, 80
4, 125759, Note_on_c, 1, 48, 0
4, 125760, Note_on_c, 1, 49, 80
4, 126959, Note_on_c, 1, 49, 0
4, 126960, Note_on_c, 1, 47, 80
4, 127199, Note_on_c, 1, 47, 0
4, 127200, Note_on_c, 1, 45, 80
4, 127439, Note_on_c, 1, 45, 0
4, 127440, Note_on_c, 1, 44, 80
4, 127679, Note_on_c, 1, 44, 0
4, 127680, Note_on_c, 1, 45, 80
4, 128879, Note_on_c, 1, 45, 0
4, 128880, Note_on_c, 1, 44, 80
4, 129119, Note_on_c, 1, 44, 0
4, 129120, Note_on_c, 1, 45, 80
4, 129359, Note_on_c, 1, 45, 0
4, 129360, Note_on_c, 1, 42, 80
4, 129599, Note_on_c, 1, 42, 0
4, 129600, Note_on_c, 1, 49, 80
4, 135599, Note_on_c, 1, 49, 0
4, 135600, Note_on_c, 1, 44, 80
4, 135839, Note_on_c, 1, 44, 0
4, 135840, Note_on_c, 1, 45, 80
4, 136079, Note_on_c, 1, 45, 0
4, 136080, Note_on_c, 1, 42, 80
4, 136319, Note_on_c, 1, 42, 0
4, 136320, Note_on_c, 1, 37, 80
4, 138239, Note_on_c, 1, 37, 0
4, 138240, End_track
0, 0, End_of_file
