0, 0, Header, 1, 2, 480
1, 0, Start_track
1, 0, Unknown_meta_event, 8, 36, 71, 111, 108, 100, 98, 101, 114, 103, 32, 86, 97, 114, 105, 97, 116, 105, 111, 110, 115, 58, 32, 86, 97, 114, 105, 97, 116, 105, 111, 110, 32, 88, 88, 73, 86, 0
1, 0, Unknown_meta_event, 9, 8, 66, 87, 86, 32, 57, 56, 56, 0
1, 0, Unknown_meta_event, 10, 11, 74, 46, 32, 83, 46, 32, 66, 97, 99, 104, 0
1, 0, Time_signature, 9, 3, 24, 8
1, 0, Key_signature, 1, "major"
1, 0, Program_c, 0, 46
1, 0, Note_on_c, 0, 67, 64
1, 2, Control_c, 0, 7, 100
1, 4, Control_c, 0, 10, 64
1, 6, Control_c, 0, 91, 30
1, 8, Control_c, 0, 93, 30
1, 470, Note_on_c, 0, 67, 0
1, 480, Note_on_c, 0, 66, 64
1, 710, Note_on_c, 0, 66, 0
1, 720, Note_on_c, 0, 67, 64
1, 1190, Note_on_c, 0, 67, 0
1, 1200, Note_on_c, 0, 69, 64
1, 1430, Note_on_c, 0, 69, 0
1, 1440, Note_on_c, 0, 71, 64
1, 1670, Note_on_c, 0, 71, 0
1, 1680, Note_on_c, 0, 74, 64
1, 1910, Note_on_c, 0, 74, 0
1, 1920, Note_on_c, 0, 73, 64
1, 2150, Note_on_c, 0, 73, 0
1, 2160, Note_on_c, 0, 74, 64
1, 2630, Note_on_c, 0, 74, 0
1, 2640, Note_on_c, 0, 69, 64
1, 2870, Note_on_c, 0, 69, 0
1, 2880, Note_on_c, 0, 74, 64
1, 3350, Note_on_c, 0, 74, 0
1, 3360, Note_on_c, 0, 76, 64
1, 3590, Note_on_c, 0, 76, 0
1, 3600, Note_on_c, 0, 76, 64
1, 3655, Note_on_c, 0, 76, 0
1, 3660, Note_on_c, 0, 78, 64
1, 3715, Note_on_c, 0, 78, 0
1, 3720, Note_on_c, 0, 79, 64
1, 3830, Note_on_c, 0, 79, 0
1, 3840, Note_on_c, 0, 78, 64
1, 3950, Note_on_c, 0, 78, 0
1, 3960, Note_on_c, 0, 76, 64
1, 4070, Note_on_c, 0, 76, 0
1, 4080, Note_on_c, 0, 74, 64
1, 4310, Note_on_c, 0, 74, 0
1, 4320, Note_on_c, 0, 55, 80
1, 4320, Note_on_c, 0, 79, 64
1, 4550, Note_on_c, 0, 79, 0
1, 4560, Note_on_c, 0, 83, 64
1, 4790, Note_on_c, 0, 83, 0
1, 4799, Note_on_c, 0, 55, 0
1, 4800, Note_on_c, 0, 54, 80
1, 4800, Note_on_c, 0, 81, 64
1, 5030, Note_on_c, 0, 81, 0
1, 5039, Note_on_c, 0, 54, 0
1, 5040, Note_on_c, 0, 55, 80
1, 5040, Note_on_c, 0, 83, 64
1, 5270, Note_on_c, 0, 83, 0
1, 5280, Note_on_c, 0, 79, 64
1, 5510, Note_on_c, 0, 79, 0
1, 5519, Note_on_c, 0, 55, 0
1, 5520, Note_on_c, 0, 57, 80
1, 5520, Note_on_c, 0, 78, 64
1, 5750, Note_on_c, 0, 78, 0
1, 5759, Note_on_c, 0, 57, 0
1, 5760, Note_on_c, 0, 59, 80
1, 5760, Note_on_c, 0, 79, 80
1, 5999, Note_on_c, 0, 59, 0
1, 6000, Note_on_c, 0, 62, 80
1, 6239, Note_on_c, 0, 62, 0
1, 6240, Note_on_c, 0, 61, 80
1, 6479, Note_on_c, 0, 61, 0
1, 6480, Note_on_c, 0, 62, 80
1, 6719, Note_on_c, 0, 79, 0
1, 6720, Note_on_c, 0, 78, 64
1, 6950, Note_on_c, 0, 78, 0
1, 6959, Note_on_c, 0, 62, 0
1, 6960, Note_on_c, 0, 57, 80
1, 6960, Note_on_c, 0, 76, 64
1, 7190, Note_on_c, 0, 76, 0
1, 7199, Note_on_c, 0, 57, 0
1, 7200, Note_on_c, 0, 62, 80
1, 7200, Note_on_c, 0, 78, 64
1, 7430, Note_on_c, 0, 78, 0
1, 7440, Note_on_c, 0, 79, 64
1, 7670, Note_on_c, 0, 79, 0
1, 7679, Note_on_c, 0, 62, 0
1, 7680, Note_on_c, 0, 64, 80
1, 7680, Note_on_c, 0, 81, 64
1, 7910, Note_on_c, 0, 81, 0
1, 7919, Note_on_c, 0, 64, 0
1, 7920, Note_on_c, 0, 64, 80
1, 7920, Note_on_c, 0, 74, 80
1, 7979, Note_on_c, 0, 64, 0
1, 7980, Note_on_c, 0, 66, 80
1, 8039, Note_on_c, 0, 66, 0
1, 8040, Note_on_c, 0, 67, 80
1, 8159, Note_on_c, 0, 67, 0
1, 8160, Note_on_c, 0, 66, 80
1, 8279, Note_on_c, 0, 66, 0
1, 8280, Note_on_c, 0, 64, 80
1, 8399, Note_on_c, 0, 64, 0
1, 8400, Note_on_c, 0, 62, 80
1, 8519, Note_on_c, 0, 62, 0
1, 8640, Note_on_c, 0, 67, 80
1, 8879, Note_on_c, 0, 67, 0
1, 8879, Note_on_c, 0, 74, 0
1, 8880, Note_on_c, 0, 71, 80
1, 8880, Note_on_c, 0, 79, 64
1, 9110, Note_on_c, 0, 79, 0
1, 9119, Note_on_c, 0, 71, 0
1, 9120, Note_on_c, 0, 69, 80
1, 9120, Note_on_c, 0, 78, 64
1, 9350, Note_on_c, 0, 78, 0
1, 9359, Note_on_c, 0, 69, 0
1, 9360, Note_on_c, 0, 71, 80
1, 9360, Note_on_c, 0, 79, 64
1, 9590, Note_on_c, 0, 79, 0
1, 9599, Note_on_c, 0, 71, 0
1, 9600, Note_on_c, 0, 67, 80
1, 9600, Note_on_c, 0, 83, 64
1, 9830, Note_on_c, 0, 83, 0
1, 9839, Note_on_c, 0, 67, 0
1, 9840, Note_on_c, 0, 66, 80
1, 9840, Note_on_c, 0, 81, 64
1, 10070, Note_on_c, 0, 81, 0
1, 10079, Note_on_c, 0, 66, 0
1, 10080, Note_on_c, 0, 67, 80
1, 10080, Note_on_c, 0, 83, 64
1, 10310, Note_on_c, 0, 83, 0
1, 10320, Note_on_c, 0, 86, 64
1, 10430, Note_on_c, 0, 86, 0
1, 10440, Note_on_c, 0, 84, 64
1, 10550, Note_on_c, 0, 84, 0
1, 10560, Note_on_c, 0, 83, 64
1, 10670, Note_on_c, 0, 83, 0
1, 10680, Note_on_c, 0, 81, 64
1, 10790, Note_on_c, 0, 81, 0
1, 10800, Note_on_c, 0, 83, 64
1, 11030, Note_on_c, 0, 83, 0
1, 11039, Note_on_c, 0, 67, 0
1, 11040, Note_on_c, 0, 66, 80
1, 11040, Note_on_c, 0, 84, 64
1, 11150, Note_on_c, 0, 84, 0
1, 11160, Note_on_c, 0, 83, 64
1, 11270, Note_on_c, 0, 83, 0
1, 11279, Note_on_c, 0, 66, 0
1, 11280, Note_on_c, 0, 64, 80
1, 11280, Note_on_c, 0, 81, 64
1, 11390, Note_on_c, 0, 81, 0
1, 11400, Note_on_c, 0, 79, 64
1, 11510, Note_on_c, 0, 79, 0
1, 11519, Note_on_c, 0, 64, 0
1, 11520, Note_on_c, 0, 66, 80
1, 11520, Note_on_c, 0, 81, 64
1, 11750, Note_on_c, 0, 81, 0
1, 11759, Note_on_c, 0, 66, 0
1, 11760, Note_on_c, 0, 67, 80
1, 11760, Note_on_c, 0, 83, 64
1, 11870, Note_on_c, 0, 83, 0
1, 11880, Note_on_c, 0, 81, 64
1, 11990, Note_on_c, 0, 81, 0
1, 11999, Note_on_c, 0, 67, 0
1, 12000, Note_on_c, 0, 69, 80
1, 12000, Note_on_c, 0, 79, 64
1, 12110, Note_on_c, 0, 79, 0
1, 12120, Note_on_c, 0, 78, 64
1, 12230, Note_on_c, 0, 78, 0
1, 12239, Note_on_c, 0, 69, 0
1, 12240, Note_on_c, 0, 62, 80
1, 12240, Note_on_c, 0, 79, 64
1, 12470, Note_on_c, 0, 79, 0
1, 12480, Note_on_c, 0, 81, 64
1, 12590, Note_on_c, 0, 81, 0
1, 12600, Note_on_c, 0, 79, 64
1, 12710, Note_on_c, 0, 79, 0
1, 12720, Note_on_c, 0, 78, 64
1, 12830, Note_on_c, 0, 78, 0
1, 12840, Note_on_c, 0, 76, 64
1, 12950, Note_on_c, 0, 76, 0
1, 12960, Note_on_c, 0, 74, 64
1, 13190, Note_on_c, 0, 74, 0
1, 13199, Note_on_c, 0, 62, 0
1, 13200, Note_on_c, 0, 67, 80
1, 13439, Note_on_c, 0, 67, 0
1, 13440, Note_on_c, 0, 66, 80
1, 13679, Note_on_c, 0, 66, 0
1, 13680, Note_on_c, 0, 67, 80
1, 13680, Note_on_c, 0, 79, 64
1, 13910, Note_on_c, 0, 79, 0
1, 13919, Note_on_c, 0, 67, 0
1, 13920, Note_on_c, 0, 71, 80
1, 14159, Note_on_c, 0, 71, 0
1, 14160, Note_on_c, 0, 69, 80
1, 14399, Note_on_c, 0, 69, 0
1, 14400, Note_on_c, 0, 71, 80
1, 14400, Note_on_c, 0, 78, 64
1, 14630, Note_on_c, 0, 78, 0
1, 14639, Note_on_c, 0, 71, 0
1, 14640, Note_on_c, 0, 74, 80
1, 14759, Note_on_c, 0, 74, 0
1, 14760, Note_on_c, 0, 72, 80
1, 14879, Note_on_c, 0, 72, 0
1, 14880, Note_on_c, 0, 71, 80
1, 14999, Note_on_c, 0, 71, 0
1, 15000, Note_on_c, 0, 69, 80
1, 15119, Note_on_c, 0, 69, 0
1, 15120, Note_on_c, 0, 71, 80
1, 15120, Note_on_c, 0, 79, 64
1, 15350, Note_on_c, 0, 79, 0
1, 15359, Note_on_c, 0, 71, 0
1, 15360, Note_on_c, 0, 72, 80
1, 15479, Note_on_c, 0, 72, 0
1, 15480, Note_on_c, 0, 71, 80
1, 15599, Note_on_c, 0, 71, 0
1, 15600, Note_on_c, 0, 69, 80
1, 15719, Note_on_c, 0, 69, 0
1, 15840, Note_on_c, 0, 69, 80
1, 15840, Note_on_c, 0, 72, 64
1, 16070, Note_on_c, 0, 72, 0
1, 16079, Note_on_c, 0, 69, 0
1, 16080, Note_on_c, 0, 71, 80
1, 16199, Note_on_c, 0, 71, 0
1, 16200, Note_on_c, 0, 69, 80
1, 16319, Note_on_c, 0, 69, 0
1, 16320, Note_on_c, 0, 67, 80
1, 16439, Note_on_c, 0, 67, 0
1, 16440, Note_on_c, 0, 66, 80
1, 16559, Note_on_c, 0, 66, 0
1, 16560, Note_on_c, 0, 67, 80
1, 16560, Note_on_c, 0, 71, 64
1, 16790, Note_on_c, 0, 71, 0
1, 16799, Note_on_c, 0, 67, 0
1, 16800, Note_on_c, 0, 69, 80
1, 16919, Note_on_c, 0, 69, 0
1, 16920, Note_on_c, 0, 67, 80
1, 17039, Note_on_c, 0, 67, 0
1, 17040, Note_on_c, 0, 66, 80
1, 17159, Note_on_c, 0, 66, 0
1, 17160, Note_on_c, 0, 64, 80
1, 17279, Note_on_c, 0, 64, 0
1, 17280, Note_on_c, 0, 62, 80
1, 17519, Note_on_c, 0, 62, 0
1, 17520, Note_on_c, 0, 71, 80
1, 17759, Note_on_c, 0, 71, 0
1, 17760, Note_on_c, 0, 69, 80
1, 17999, Note_on_c, 0, 69, 0
1, 18000, Note_on_c, 0, 67, 80
1, 18239, Note_on_c, 0, 67, 0
1, 18240, Note_on_c, 0, 69, 80
1, 18479, Note_on_c, 0, 69, 0
1, 18480, Note_on_c, 0, 66, 80
1, 18719, Note_on_c, 0, 66, 0
1, 18720, Note_on_c, 0, 64, 80
1, 18839, Note_on_c, 0, 64, 0
1, 18840, Note_on_c, 0, 62, 80
1, 18959, Note_on_c, 0, 62, 0
1, 18960, Note_on_c, 0, 61, 80
1, 19199, Note_on_c, 0, 61, 0
1, 19200, Note_on_c, 0, 62, 80
1, 19439, Note_on_c, 0, 62, 0
1, 19440, Note_on_c, 0, 62, 80
1, 19679, Note_on_c, 0, 62, 0
1, 19680, Note_on_c, 0, 61, 80
1, 20400, Note_on_c, 0, 62, 80
1, 20639, Note_on_c, 0, 62, 0
1, 20639, Note_on_c, 0, 61, 0
1, 20640, Note_on_c, 0, 64, 80
1, 20879, Note_on_c, 0, 64, 0
1, 20880, Note_on_c, 0, 57, 80
1, 21119, Note_on_c, 0, 57, 0
1, 21120, Note_on_c, 0, 59, 80
1, 21359, Note_on_c, 0, 59, 0
1, 21360, Note_on_c, 0, 60, 80
1, 21599, Note_on_c, 0, 60, 0
1, 21600, Note_on_c, 0, 62, 80
1, 21840, Note_on_c, 0, 83, 64
1, 22070, Note_on_c, 0, 83, 0
1, 22079, Note_on_c, 0, 62, 0
1, 22080, Note_on_c, 0, 66, 80
1, 22080, Note_on_c, 0, 81, 64
1, 22310, Note_on_c, 0, 81, 0
1, 22319, Note_on_c, 0, 66, 0
1, 22320, Note_on_c, 0, 67, 80
1, 22320, Note_on_c, 0, 79, 64
1, 22550, Note_on_c, 0, 79, 0
1, 22560, Note_on_c, 0, 81, 64
1, 22790, Note_on_c, 0, 81, 0
1, 22799, Note_on_c, 0, 67, 0
1, 22800, Note_on_c, 0, 69, 80
1, 22800, Note_on_c, 0, 78, 64
1, 23030, Note_on_c, 0, 78, 0
1, 23039, Note_on_c, 0, 69, 0
1, 23040, Note_on_c, 0, 59, 80
1, 23040, Note_on_c, 0, 76, 64
1, 23150, Note_on_c, 0, 76, 0
1, 23160, Note_on_c, 0, 74, 64
1, 23270, Note_on_c, 0, 74, 0
1, 23280, Note_on_c, 0, 73, 64
1, 23510, Note_on_c, 0, 73, 0
1, 23520, Note_on_c, 0, 74, 64
1, 23750, Note_on_c, 0, 74, 0
1, 23760, Note_on_c, 0, 74, 80
1, 23999, Note_on_c, 0, 74, 0
1, 23999, Note_on_c, 0, 59, 0
1, 24000, Note_on_c, 0, 57, 80
1, 24000, Note_on_c, 0, 73, 80
1, 24239, Note_on_c, 0, 57, 0
1, 24240, Note_on_c, 0, 55, 80
1, 24479, Note_on_c, 0, 55, 0
1, 24480, Note_on_c, 0, 57, 80
1, 24720, Note_on_c, 0, 74, 64
1, 24950, Note_on_c, 0, 74, 0
1, 24959, Note_on_c, 0, 73, 0
1, 24960, Note_on_c, 0, 76, 64
1, 25190, Note_on_c, 0, 76, 0
1, 25200, Note_on_c, 0, 69, 64
1, 25430, Note_on_c, 0, 69, 0
1, 25440, Note_on_c, 0, 71, 64
1, 25670, Note_on_c, 0, 71, 0
1, 25680, Note_on_c, 0, 73, 64
1, 25910, Note_on_c, 0, 73, 0
1, 25920, Note_on_c, 0, 74, 64
1, 26159, Note_on_c, 0, 57, 0
1, 26160, Note_on_c, 0, 62, 80
1, 26390, Note_on_c, 0, 74, 0
1, 26399, Note_on_c, 0, 62, 0
1, 26400, Note_on_c, 0, 61, 80
1, 26400, Note_on_c, 0, 78, 64
1, 26630, Note_on_c, 0, 78, 0
1, 26639, Note_on_c, 0, 61, 0
1, 26640, Note_on_c, 0, 62, 80
1, 26640, Note_on_c, 0, 79, 64
1, 26759, Note_on_c, 0, 62, 0
1, 26760, Note_on_c, 0, 64, 80
1, 26879, Note_on_c, 0, 64, 0
1, 26880, Note_on_c, 0, 66, 80
1, 27110, Note_on_c, 0, 79, 0
1, 27119, Note_on_c, 0, 66, 0
1, 27120, Note_on_c, 0, 64, 80
1, 27120, Note_on_c, 0, 81, 64
1, 27350, Note_on_c, 0, 81, 0
1, 27359, Note_on_c, 0, 64, 0
1, 27360, Note_on_c, 0, 66, 80
1, 27360, Note_on_c, 0, 71, 80
1, 27599, Note_on_c, 0, 66, 0
1, 27600, Note_on_c, 0, 69, 80
1, 27719, Note_on_c, 0, 69, 0
1, 27720, Note_on_c, 0, 67, 80
1, 27839, Note_on_c, 0, 67, 0
1, 27840, Note_on_c, 0, 66, 80
1, 27959, Note_on_c, 0, 66, 0
1, 27960, Note_on_c, 0, 64, 80
1, 28079, Note_on_c, 0, 64, 0
1, 28080, Note_on_c, 0, 66, 80
1, 28319, Note_on_c, 0, 66, 0
1, 28319, Note_on_c, 0, 71, 0
1, 28320, Note_on_c, 0, 67, 80
1, 28320, Note_on_c, 0, 69, 64
1, 28439, Note_on_c, 0, 67, 0
1, 28440, Note_on_c, 0, 66, 80
1, 28550, Note_on_c, 0, 69, 0
1, 28559, Note_on_c, 0, 66, 0
1, 28560, Note_on_c, 0, 64, 80
1, 28560, Note_on_c, 0, 67, 64
1, 28679, Note_on_c, 0, 64, 0
1, 28680, Note_on_c, 0, 62, 80
1, 28790, Note_on_c, 0, 67, 0
1, 28799, Note_on_c, 0, 62, 0
1, 28800, Note_on_c, 0, 64, 80
1, 28800, Note_on_c, 0, 69, 80
1, 29039, Note_on_c, 0, 64, 0
1, 29040, Note_on_c, 0, 66, 80
1, 29159, Note_on_c, 0, 66, 0
1, 29160, Note_on_c, 0, 64, 80
1, 29279, Note_on_c, 0, 64, 0
1, 29280, Note_on_c, 0, 62, 80
1, 29399, Note_on_c, 0, 62, 0
1, 29400, Note_on_c, 0, 61, 80
1, 29519, Note_on_c, 0, 61, 0
1, 29520, Note_on_c, 0, 62, 80
1, 29759, Note_on_c, 0, 62, 0
1, 29760, Note_on_c, 0, 64, 80
1, 29879, Note_on_c, 0, 64, 0
1, 29880, Note_on_c, 0, 62, 80
1, 29999, Note_on_c, 0, 62, 0
1, 30000, Note_on_c, 0, 61, 80
1, 30119, Note_on_c, 0, 61, 0
1, 30120, Note_on_c, 0, 59, 80
1, 30239, Note_on_c, 0, 59, 0
1, 30240, Note_on_c, 0, 57, 80
1, 30479, Note_on_c, 0, 57, 0
1, 30479, Note_on_c, 0, 69, 0
1, 30480, Note_on_c, 0, 74, 64
1, 30710, Note_on_c, 0, 74, 0
1, 30720, Note_on_c, 0, 73, 64
1, 30950, Note_on_c, 0, 73, 0
1, 30960, Note_on_c, 0, 62, 80
1, 30960, Note_on_c, 0, 74, 64
1, 31070, Note_on_c, 0, 74, 0
1, 31080, Note_on_c, 0, 76, 64
1, 31190, Note_on_c, 0, 76, 0
1, 31199, Note_on_c, 0, 62, 0
1, 31200, Note_on_c, 0, 78, 64
1, 31430, Note_on_c, 0, 78, 0
1, 31440, Note_on_c, 0, 76, 64
1, 31670, Note_on_c, 0, 76, 0
1, 31680, Note_on_c, 0, 61, 80
1, 31680, Note_on_c, 0, 78, 64
1, 31910, Note_on_c, 0, 78, 0
1, 31919, Note_on_c, 0, 61, 0
1, 31920, Note_on_c, 0, 81, 64
1, 32030, Note_on_c, 0, 81, 0
1, 32040, Note_on_c, 0, 79, 64
1, 32150, Note_on_c, 0, 79, 0
1, 32160, Note_on_c, 0, 78, 64
1, 32270, Note_on_c, 0, 78, 0
1, 32280, Note_on_c, 0, 76, 64
1, 32390, Note_on_c, 0, 76, 0
1, 32400, Note_on_c, 0, 62, 80
1, 32400, Note_on_c, 0, 78, 64
1, 32630, Note_on_c, 0, 78, 0
1, 32639, Note_on_c, 0, 62, 0
1, 32640, Note_on_c, 0, 79, 64
1, 32750, Note_on_c, 0, 79, 0
1, 32760, Note_on_c, 0, 78, 64
1, 32870, Note_on_c, 0, 78, 0
1, 32880, Note_on_c, 0, 76, 64
1, 32990, Note_on_c, 0, 76, 0
1, 33000, Note_on_c, 0, 74, 64
1, 33110, Note_on_c, 0, 74, 0
1, 33120, Note_on_c, 0, 67, 80
1, 33120, Note_on_c, 0, 76, 64
1, 33350, Note_on_c, 0, 76, 0
1, 33359, Note_on_c, 0, 67, 0
1, 33360, Note_on_c, 0, 78, 64
1, 33470, Note_on_c, 0, 78, 0
1, 33480, Note_on_c, 0, 76, 64
1, 33590, Note_on_c, 0, 76, 0
1, 33600, Note_on_c, 0, 74, 64
1, 33710, Note_on_c, 0, 74, 0
1, 33720, Note_on_c, 0, 73, 64
1, 33830, Note_on_c, 0, 73, 0
1, 33840, Note_on_c, 0, 66, 80
1, 33840, Note_on_c, 0, 74, 80
1, 34559, Note_on_c, 0, 66, 0
1, 34559, Note_on_c, 0, 74, 0
1, 34560, Note_on_c, 0, 67, 64
1, 35030, Note_on_c, 0, 67, 0
1, 35040, Note_on_c, 0, 66, 64
1, 35270, Note_on_c, 0, 66, 0
1, 35280, Note_on_c, 0, 67, 64
1, 35750, Note_on_c, 0, 67, 0
1, 35760, Note_on_c, 0, 69, 64
1, 35990, Note_on_c, 0, 69, 0
1, 36000, Note_on_c, 0, 71, 64
1, 36230, Note_on_c, 0, 71, 0
1, 36240, Note_on_c, 0, 74, 64
1, 36470, Note_on_c, 0, 74, 0
1, 36480, Note_on_c, 0, 73, 64
1, 36710, Note_on_c, 0, 73, 0
1, 36720, Note_on_c, 0, 74, 64
1, 37190, Note_on_c, 0, 74, 0
1, 37200, Note_on_c, 0, 69, 64
1, 37430, Note_on_c, 0, 69, 0
1, 37440, Note_on_c, 0, 74, 64
1, 37910, Note_on_c, 0, 74, 0
1, 37920, Note_on_c, 0, 76, 64
1, 38150, Note_on_c, 0, 76, 0
1, 38160, Note_on_c, 0, 76, 64
1, 38215, Note_on_c, 0, 76, 0
1, 38220, Note_on_c, 0, 78, 64
1, 38275, Note_on_c, 0, 78, 0
1, 38280, Note_on_c, 0, 79, 64
1, 38390, Note_on_c, 0, 79, 0
1, 38400, Note_on_c, 0, 78, 64
1, 38510, Note_on_c, 0, 78, 0
1, 38520, Note_on_c, 0, 76, 64
1, 38630, Note_on_c, 0, 76, 0
1, 38640, Note_on_c, 0, 74, 64
1, 38870, Note_on_c, 0, 74, 0
1, 38880, Note_on_c, 0, 55, 80
1, 38880, Note_on_c, 0, 79, 64
1, 39110, Note_on_c, 0, 79, 0
1, 39120, Note_on_c, 0, 83, 64
1, 39350, Note_on_c, 0, 83, 0
1, 39359, Note_on_c, 0, 55, 0
1, 39360, Note_on_c, 0, 54, 80
1, 39360, Note_on_c, 0, 81, 64
1, 39590, Note_on_c, 0, 81, 0
1, 39599, Note_on_c, 0, 54, 0
1, 39600, Note_on_c, 0, 55, 80
1, 39600, Note_on_c, 0, 83, 64
1, 39830, Note_on_c, 0, 83, 0
1, 39840, Note_on_c, 0, 79, 64
1, 40070, Note_on_c, 0, 79, 0
1, 40079, Note_on_c, 0, 55, 0
1, 40080, Note_on_c, 0, 57, 80
1, 40080, Note_on_c, 0, 78, 64
1, 40310, Note_on_c, 0, 78, 0
1, 40319, Note_on_c, 0, 57, 0
1, 40320, Note_on_c, 0, 59, 80
1, 40320, Note_on_c, 0, 79, 80
1, 40559, Note_on_c, 0, 59, 0
1, 40560, Note_on_c, 0, 62, 80
1, 40799, Note_on_c, 0, 62, 0
1, 40800, Note_on_c, 0, 61, 80
1, 41039, Note_on_c, 0, 61, 0
1, 41040, Note_on_c, 0, 62, 80
1, 41279, Note_on_c, 0, 79, 0
1, 41280, Note_on_c, 0, 78, 64
1, 41510, Note_on_c, 0, 78, 0
1, 41519, Note_on_c, 0, 62, 0
1, 41520, Note_on_c, 0, 57, 80
1, 41520, Note_on_c, 0, 76, 64
1, 41750, Note_on_c, 0, 76, 0
1, 41759, Note_on_c, 0, 57, 0
1, 41760, Note_on_c, 0, 62, 80
1, 41760, Note_on_c, 0, 78, 64
1, 41990, Note_on_c, 0, 78, 0
1, 42000, Note_on_c, 0, 79, 64
1, 42230, Note_on_c, 0, 79, 0
1, 42239, Note_on_c, 0, 62, 0
1, 42240, Note_on_c, 0, 64, 80
1, 42240, Note_on_c, 0, 81, 64
1, 42470, Note_on_c, 0, 81, 0
1, 42479, Note_on_c, 0, 64, 0
1, 42480, Note_on_c, 0, 64, 80
1, 42480, Note_on_c, 0, 74, 80
1, 42539, Note_on_c, 0, 64, 0
1, 42540, Note_on_c, 0, 66, 80
1, 42599, Note_on_c, 0, 66, 0
1, 42600, Note_on_c, 0, 67, 80
1, 42719, Note_on_c, 0, 67, 0
1, 42720, Note_on_c, 0, 66, 80
1, 42839, Note_on_c, 0, 66, 0
1, 42840, Note_on_c, 0, 64, 80
1, 42959, Note_on_c, 0, 64, 0
1, 42960, Note_on_c, 0, 62, 80
1, 43079, Note_on_c, 0, 62, 0
1, 43200, Note_on_c, 0, 67, 80
1, 43439, Note_on_c, 0, 67, 0
1, 43439, Note_on_c, 0, 74, 0
1, 43440, Note_on_c, 0, 71, 80
1, 43440, Note_on_c, 0, 79, 64
1, 43670, Note_on_c, 0, 79, 0
1, 43679, Note_on_c, 0, 71, 0
1, 43680, Note_on_c, 0, 69, 80
1, 43680, Note_on_c, 0, 78, 64
1, 43910, Note_on_c, 0, 78, 0
1, 43919, Note_on_c, 0, 69, 0
1, 43920, Note_on_c, 0, 71, 80
1, 43920, Note_on_c, 0, 79, 64
1, 44150, Note_on_c, 0, 79, 0
1, 44159, Note_on_c, 0, 71, 0
1, 44160, Note_on_c, 0, 67, 80
1, 44160, Note_on_c, 0, 83, 64
1, 44390, Note_on_c, 0, 83, 0
1, 44399, Note_on_c, 0, 67, 0
1, 44400, Note_on_c, 0, 66, 80
1, 44400, Note_on_c, 0, 81, 64
1, 44630, Note_on_c, 0, 81, 0
1, 44639, Note_on_c, 0, 66, 0
1, 44640, Note_on_c, 0, 67, 80
1, 44640, Note_on_c, 0, 83, 64
1, 44870, Note_on_c, 0, 83, 0
1, 44880, Note_on_c, 0, 86, 64
1, 44990, Note_on_c, 0, 86, 0
1, 45000, Note_on_c, 0, 84, 64
1, 45110, Note_on_c, 0, 84, 0
1, 45120, Note_on_c, 0, 83, 64
1, 45230, Note_on_c, 0, 83, 0
1, 45240, Note_on_c, 0, 81, 64
1, 45350, Note_on_c, 0, 81, 0
1, 45360, Note_on_c, 0, 83, 64
1, 45590, Note_on_c, 0, 83, 0
1, 45599, Note_on_c, 0, 67, 0
1, 45600, Note_on_c, 0, 66, 80
1, 45600, Note_on_c, 0, 84, 64
1, 45710, Note_on_c, 0, 84, 0
1, 45720, Note_on_c, 0, 83, 64
1, 45830, Note_on_c, 0, 83, 0
1, 45839, Note_on_c, 0, 66, 0
1, 45840, Note_on_c, 0, 64, 80
1, 45840, Note_on_c, 0, 81, 64
1, 45950, Note_on_c, 0, 81, 0
1, 45960, Note_on_c, 0, 79, 64
1, 46070, Note_on_c, 0, 79, 0
1, 46079, Note_on_c, 0, 64, 0
1, 46080, Note_on_c, 0, 66, 80
1, 46080, Note_on_c, 0, 81, 64
1, 46310, Note_on_c, 0, 81, 0
1, 46319, Note_on_c, 0, 66, 0
1, 46320, Note_on_c, 0, 67, 80
1, 46320, Note_on_c, 0, 83, 64
1, 46430, Note_on_c, 0, 83, 0
1, 46440, Note_on_c, 0, 81, 64
1, 46550, Note_on_c, 0, 81, 0
1, 46559, Note_on_c, 0, 67, 0
1, 46560, Note_on_c, 0, 69, 80
1, 46560, Note_on_c, 0, 79, 64
1, 46670, Note_on_c, 0, 79, 0
1, 46680, Note_on_c, 0, 78, 64
1, 46790, Note_on_c, 0, 78, 0
1, 46799, Note_on_c, 0, 69, 0
1, 46800, Note_on_c, 0, 62, 80
1, 46800, Note_on_c, 0, 79, 64
1, 47030, Note_on_c, 0, 79, 0
1, 47040, Note_on_c, 0, 81, 64
1, 47150, Note_on_c, 0, 81, 0
1, 47160, Note_on_c, 0, 79, 64
1, 47270, Note_on_c, 0, 79, 0
1, 47280, Note_on_c, 0, 78, 64
1, 47390, Note_on_c, 0, 78, 0
1, 47400, Note_on_c, 0, 76, 64
1, 47510, Note_on_c, 0, 76, 0
1, 47520, Note_on_c, 0, 74, 64
1, 47750, Note_on_c, 0, 74, 0
1, 47759, Note_on_c, 0, 62, 0
1, 47760, Note_on_c, 0, 67, 80
1, 47999, Note_on_c, 0, 67, 0
1, 48000, Note_on_c, 0, 66, 80
1, 48239, Note_on_c, 0, 66, 0
1, 48240, Note_on_c, 0, 67, 80
1, 48240, Note_on_c, 0, 79, 64
1, 48470, Note_on_c, 0, 79, 0
1, 48479, Note_on_c, 0, 67, 0
1, 48480, Note_on_c, 0, 71, 80
1, 48719, Note_on_c, 0, 71, 0
1, 48720, Note_on_c, 0, 69, 80
1, 48959, Note_on_c, 0, 69, 0
1, 48960, Note_on_c, 0, 71, 80
1, 48960, Note_on_c, 0, 78, 64
1, 49190, Note_on_c, 0, 78, 0
1, 49199, Note_on_c, 0, 71, 0
1, 49200, Note_on_c, 0, 74, 80
1, 49319, Note_on_c, 0, 74, 0
1, 49320, Note_on_c, 0, 72, 80
1, 49439, Note_on_c, 0, 72, 0
1, 49440, Note_on_c, 0, 71, 80
1, 49559, Note_on_c, 0, 71, 0
1, 49560, Note_on_c, 0, 69, 80
1, 49679, Note_on_c, 0, 69, 0
1, 49680, Note_on_c, 0, 71, 80
1, 49680, Note_on_c, 0, 79, 64
1, 49910, Note_on_c, 0, 79, 0
1, 49919, Note_on_c, 0, 71, 0
1, 49920, Note_on_c, 0, 72, 80
1, 50039, Note_on_c, 0, 72, 0
1, 50040, Note_on_c, 0, 71, 80
1, 50159, Note_on_c, 0, 71, 0
1, 50160, Note_on_c, 0, 69, 80
1, 50279, Note_on_c, 0, 69, 0
1, 50400, Note_on_c, 0, 69, 80
1, 50400, Note_on_c, 0, 72, 64
1, 50630, Note_on_c, 0, 72, 0
1, 50639, Note_on_c, 0, 69, 0
1, 50640, Note_on_c, 0, 71, 80
1, 50759, Note_on_c, 0, 71, 0
1, 50760, Note_on_c, 0, 69, 80
1, 50879, Note_on_c, 0, 69, 0
1, 50880, Note_on_c, 0, 67, 80
1, 50999, Note_on_c, 0, 67, 0
1, 51000, Note_on_c, 0, 66, 80
1, 51119, Note_on_c, 0, 66, 0
1, 51120, Note_on_c, 0, 67, 80
1, 51120, Note_on_c, 0, 71, 64
1, 51350, Note_on_c, 0, 71, 0
1, 51359, Note_on_c, 0, 67, 0
1, 51360, Note_on_c, 0, 69, 80
1, 51479, Note_on_c, 0, 69, 0
1, 51480, Note_on_c, 0, 67, 80
1, 51599, Note_on_c, 0, 67, 0
1, 51600, Note_on_c, 0, 66, 80
1, 51719, Note_on_c, 0, 66, 0
1, 51720, Note_on_c, 0, 64, 80
1, 51839, Note_on_c, 0, 64, 0
1, 51840, Note_on_c, 0, 62, 80
1, 52079, Note_on_c, 0, 62, 0
1, 52080, Note_on_c, 0, 71, 80
1, 52319, Note_on_c, 0, 71, 0
1, 52320, Note_on_c, 0, 69, 80
1, 52559, Note_on_c, 0, 69, 0
1, 52560, Note_on_c, 0, 67, 80
1, 52799, Note_on_c, 0, 67, 0
1, 52800, Note_on_c, 0, 69, 80
1, 53039, Note_on_c, 0, 69, 0
1, 53040, Note_on_c, 0, 66, 80
1, 53279, Note_on_c, 0, 66, 0
1, 53280, Note_on_c, 0, 64, 80
1, 53399, Note_on_c, 0, 64, 0
1, 53400, Note_on_c, 0, 62, 80
1, 53519, Note_on_c, 0, 62, 0
1, 53520, Note_on_c, 0, 61, 80
1, 53759, Note_on_c, 0, 61, 0
1, 53760, Note_on_c, 0, 62, 80
1, 53999, Note_on_c, 0, 62, 0
1, 54000, Note_on_c, 0, 62, 80
1, 54239, Note_on_c, 0, 62, 0
1, 54240, Note_on_c, 0, 60, 80
1, 54960, Note_on_c, 0, 62, 80
1, 55199, Note_on_c, 0, 62, 0
1, 55199, Note_on_c, 0, 60, 0
1, 55200, Note_on_c, 0, 64, 80
1, 55439, Note_on_c, 0, 64, 0
1, 55440, Note_on_c, 0, 57, 80
1, 55679, Note_on_c, 0, 57, 0
1, 55680, Note_on_c, 0, 59, 80
1, 55919, Note_on_c, 0, 59, 0
1, 55920, Note_on_c, 0, 60, 80
1, 56159, Note_on_c, 0, 60, 0
1, 56160, Note_on_c, 0, 62, 80
1, 56400, Note_on_c, 0, 83, 64
1, 56630, Note_on_c, 0, 83, 0
1, 56639, Note_on_c, 0, 62, 0
1, 56640, Note_on_c, 0, 66, 80
1, 56640, Note_on_c, 0, 81, 64
1, 56870, Note_on_c, 0, 81, 0
1, 56879, Note_on_c, 0, 66, 0
1, 56880, Note_on_c, 0, 67, 80
1, 56880, Note_on_c, 0, 79, 64
1, 57110, Note_on_c, 0, 79, 0
1, 57120, Note_on_c, 0, 81, 64
1, 57350, Note_on_c, 0, 81, 0
1, 57359, Note_on_c, 0, 67, 0
1, 57360, Note_on_c, 0, 69, 80
1, 57360, Note_on_c, 0, 78, 64
1, 57590, Note_on_c, 0, 78, 0
1, 57599, Note_on_c, 0, 69, 0
1, 57600, Note_on_c, 0, 59, 80
1, 57600, Note_on_c, 0, 76, 64
1, 57710, Note_on_c, 0, 76, 0
1, 57720, Note_on_c, 0, 74, 64
1, 57830, Note_on_c, 0, 74, 0
1, 57840, Note_on_c, 0, 73, 64
1, 58070, Note_on_c, 0, 73, 0
1, 58080, Note_on_c, 0, 74, 64
1, 58310, Note_on_c, 0, 74, 0
1, 58320, Note_on_c, 0, 74, 80
1, 58559, Note_on_c, 0, 74, 0
1, 58559, Note_on_c, 0, 59, 0
1, 58560, Note_on_c, 0, 57, 80
1, 58560, Note_on_c, 0, 73, 80
1, 58799, Note_on_c, 0, 57, 0
1, 58800, Note_on_c, 0, 55, 80
1, 59039, Note_on_c, 0, 55, 0
1, 59040, Note_on_c, 0, 57, 80
1, 59280, Note_on_c, 0, 74, 64
1, 59510, Note_on_c, 0, 74, 0
1, 59519, Note_on_c, 0, 73, 0
1, 59520, Note_on_c, 0, 76, 64
1, 59750, Note_on_c, 0, 76, 0
1, 59760, Note_on_c, 0, 69, 64
1, 59990, Note_on_c, 0, 69, 0
1, 60000, Note_on_c, 0, 71, 64
1, 60230, Note_on_c, 0, 71, 0
1, 60240, Note_on_c, 0, 73, 64
1, 60470, Note_on_c, 0, 73, 0
1, 60480, Note_on_c, 0, 74, 64
1, 60719, Note_on_c, 0, 57, 0
1, 60720, Note_on_c, 0, 62, 80
1, 60950, Note_on_c, 0, 74, 0
1, 60959, Note_on_c, 0, 62, 0
1, 60960, Note_on_c, 0, 61, 80
1, 60960, Note_on_c, 0, 78, 64
1, 61190, Note_on_c, 0, 78, 0
1, 61199, Note_on_c, 0, 61, 0
1, 61200, Note_on_c, 0, 62, 80
1, 61200, Note_on_c, 0, 79, 64
1, 61319, Note_on_c, 0, 62, 0
1, 61320, Note_on_c, 0, 64, 80
1, 61439, Note_on_c, 0, 64, 0
1, 61440, Note_on_c, 0, 66, 80
1, 61670, Note_on_c, 0, 79, 0
1, 61679, Note_on_c, 0, 66, 0
1, 61680, Note_on_c, 0, 64, 80
1, 61680, Note_on_c, 0, 81, 64
1, 61910, Note_on_c, 0, 81, 0
1, 61919, Note_on_c, 0, 64, 0
1, 61920, Note_on_c, 0, 66, 80
1, 61920, Note_on_c, 0, 71, 80
1, 62159, Note_on_c, 0, 66, 0
1, 62160, Note_on_c, 0, 69, 80
1, 62279, Note_on_c, 0, 69, 0
1, 62280, Note_on_c, 0, 67, 80
1, 62399, Note_on_c, 0, 67, 0
1, 62400, Note_on_c, 0, 66, 80
1, 62519, Note_on_c, 0, 66, 0
1, 62520, Note_on_c, 0, 64, 80
1, 62639, Note_on_c, 0, 64, 0
1, 62640, Note_on_c, 0, 66, 80
1, 62879, Note_on_c, 0, 66, 0
1, 62879, Note_on_c, 0, 71, 0
1, 62880, Note_on_c, 0, 67, 80
1, 62880, Note_on_c, 0, 69, 64
1, 62999, Note_on_c, 0, 67, 0
1, 63000, Note_on_c, 0, 66, 80
1, 63110, Note_on_c, 0, 69, 0
1, 63119, Note_on_c, 0, 66, 0
1, 63120, Note_on_c, 0, 64, 80
1, 63120, Note_on_c, 0, 67, 64
1, 63239, Note_on_c, 0, 64, 0
1, 63240, Note_on_c, 0, 62, 80
1, 63350, Note_on_c, 0, 67, 0
1, 63359, Note_on_c, 0, 62, 0
1, 63360, Note_on_c, 0, 64, 80
1, 63360, Note_on_c, 0, 69, 80
1, 63599, Note_on_c, 0, 64, 0
1, 63600, Note_on_c, 0, 66, 80
1, 63719, Note_on_c, 0, 66, 0
1, 63720, Note_on_c, 0, 64, 80
1, 63839, Note_on_c, 0, 64, 0
1, 63840, Note_on_c, 0, 62, 80
1, 63959, Note_on_c, 0, 62, 0
1, 63960, Note_on_c, 0, 61, 80
1, 64079, Note_on_c, 0, 61, 0
1, 64080, Note_on_c, 0, 62, 80
1, 64319, Note_on_c, 0, 62, 0
1, 64320, Note_on_c, 0, 64, 80
1, 64439, Note_on_c, 0, 64, 0
1, 64440, Note_on_c, 0, 62, 80
1, 64559, Note_on_c, 0, 62, 0
1, 64560, Note_on_c, 0, 61, 80
1, 64679, Note_on_c, 0, 61, 0
1, 64680, Note_on_c, 0, 59, 80
1, 64799, Note_on_c, 0, 59, 0
1, 64800, Note_on_c, 0, 57, 80
1, 65039, Note_on_c, 0, 57, 0
1, 65039, Note_on_c, 0, 69, 0
1, 65040, Note_on_c, 0, 74, 64
1, 65270, Note_on_c, 0, 74, 0
1, 65280, Note_on_c, 0, 73, 64
1, 65510, Note_on_c, 0, 73, 0
1, 65520, Note_on_c, 0, 62, 80
1, 65520, Note_on_c, 0, 74, 64
1, 65630, Note_on_c, 0, 74, 0
1, 65640, Note_on_c, 0, 76, 64
1, 65750, Note_on_c, 0, 76, 0
1, 65759, Note_on_c, 0, 62, 0
1, 65760, Note_on_c, 0, 78, 64
1, 65990, Note_on_c, 0, 78, 0
1, 66000, Note_on_c, 0, 76, 64
1, 66230, Note_on_c, 0, 76, 0
1, 66240, Note_on_c, 0, 61, 80
1, 66240, Note_on_c, 0, 78, 64
1, 66470, Note_on_c, 0, 78, 0
1, 66479, Note_on_c, 0, 61, 0
1, 66480, Note_on_c, 0, 81, 64
1, 66590, Note_on_c, 0, 81, 0
1, 66600, Note_on_c, 0, 79, 64
1, 66710, Note_on_c, 0, 79, 0
1, 66720, Note_on_c, 0, 78, 64
1, 66830, Note_on_c, 0, 78, 0
1, 66840, Note_on_c, 0, 76, 64
1, 66950, Note_on_c, 0, 76, 0
1, 66960, Note_on_c, 0, 62, 80
1, 66960, Note_on_c, 0, 78, 64
1, 67190, Note_on_c, 0, 78, 0
1, 67199, Note_on_c, 0, 62, 0
1, 67200, Note_on_c, 0, 79, 64
1, 67310, Note_on_c, 0, 79, 0
1, 67320, Note_on_c, 0, 78, 64
1, 67430, Note_on_c, 0, 78, 0
1, 67440, Note_on_c, 0, 76, 64
1, 67550, Note_on_c, 0, 76, 0
1, 67560, Note_on_c, 0, 74, 64
1, 67670, Note_on_c, 0, 74, 0
1, 67680, Note_on_c, 0, 67, 80
1, 67680, Note_on_c, 0, 76, 64
1, 67910, Note_on_c, 0, 76, 0
1, 67919, Note_on_c, 0, 67, 0
1, 67920, Note_on_c, 0, 78, 64
1, 68030, Note_on_c, 0, 78, 0
1, 68040, Note_on_c, 0, 76, 64
1, 68150, Note_on_c, 0, 76, 0
1, 68160, Note_on_c, 0, 74, 64
1, 68270, Note_on_c, 0, 74, 0
1, 68280, Note_on_c, 0, 73, 64
1, 68390, Note_on_c, 0, 73, 0
1, 68400, Note_on_c, 0, 66, 80
1, 68400, Note_on_c, 0, 74, 80
1, 69119, Note_on_c, 0, 66, 0
1, 69119, Note_on_c, 0, 74, 0
1, 69120, Note_on_c, 0, 71, 80
1, 69179, Note_on_c, 0, 71, 0
1, 69180, Note_on_c, 0, 69, 80
1, 69239, Note_on_c, 0, 69, 0
1, 69240, Note_on_c, 0, 67, 80
1, 69299, Note_on_c, 0, 67, 0
1, 69300, Note_on_c, 0, 69, 80
1, 69359, Note_on_c, 0, 69, 0
1, 69360, Note_on_c, 0, 71, 80
1, 69419, Note_on_c, 0, 71, 0
1, 69420, Note_on_c, 0, 69, 80
1, 69479, Note_on_c, 0, 69, 0
1, 69480, Note_on_c, 0, 71, 80
1, 69539, Note_on_c, 0, 71, 0
1, 69540, Note_on_c, 0, 69, 80
1, 69599, Note_on_c, 0, 69, 0
1, 69600, Note_on_c, 0, 71, 80
1, 69659, Note_on_c, 0, 71, 0
1, 69660, Note_on_c, 0, 69, 80
1, 69719, Note_on_c, 0, 69, 0
1, 69720, Note_on_c, 0, 71, 80
1, 69779, Note_on_c, 0, 71, 0
1, 69780, Note_on_c, 0, 69, 80
1, 69839, Note_on_c, 0, 69, 0
1, 69840, Note_on_c, 0, 71, 80
1, 69899, Note_on_c, 0, 71, 0
1, 69900, Note_on_c, 0, 69, 80
1, 69959, Note_on_c, 0, 69, 0
1, 69960, Note_on_c, 0, 71, 80
1, 70019, Note_on_c, 0, 71, 0
1, 70020, Note_on_c, 0, 69, 80
1, 70079, Note_on_c, 0, 69, 0
1, 70080, Note_on_c, 0, 71, 80
1, 70139, Note_on_c, 0, 71, 0
1, 70140, Note_on_c, 0, 69, 80
1, 70199, Note_on_c, 0, 69, 0
1, 70200, Note_on_c, 0, 71, 80
1, 70259, Note_on_c, 0, 71, 0
1, 70260, Note_on_c, 0, 69, 80
1, 70319, Note_on_c, 0, 69, 0
1, 70320, Note_on_c, 0, 71, 80
1, 70379, Note_on_c, 0, 71, 0
1, 70380, Note_on_c, 0, 69, 80
1, 70439, Note_on_c, 0, 69, 0
1, 70440, Note_on_c, 0, 71, 80
1, 70499, Note_on_c, 0, 71, 0
1, 70500, Note_on_c, 0, 69, 80
1, 70559, Note_on_c, 0, 69, 0
1, 70560, Note_on_c, 0, 71, 80
1, 70619, Note_on_c, 0, 71, 0
1, 70620, Note_on_c, 0, 69, 80
1, 70679, Note_on_c, 0, 69, 0
1, 70680, Note_on_c, 0, 71, 80
1, 70739, Note_on_c, 0, 71, 0
1, 70740, Note_on_c, 0, 69, 80
1, 70799, Note_on_c, 0, 69, 0
1, 70800, Note_on_c, 0, 71, 80
1, 70859, Note_on_c, 0, 71, 0
1, 70860, Note_on_c, 0, 69, 80
1, 70919, Note_on_c, 0, 69, 0
1, 70920, Note_on_c, 0, 71, 80
1, 70979, Note_on_c, 0, 71, 0
1, 70980, Note_on_c, 0, 69, 80
1, 71039, Note_on_c, 0, 69, 0
1, 71040, Note_on_c, 0, 71, 80
1, 71099, Note_on_c, 0, 71, 0
1, 71100, Note_on_c, 0, 69, 80
1, 71159, Note_on_c, 0, 69, 0
1, 71160, Note_on_c, 0, 71, 80
1, 71219, Note_on_c, 0, 71, 0
1, 71220, Note_on_c, 0, 69, 80
1, 71279, Note_on_c, 0, 69, 0
1, 71280, Note_on_c, 0, 71, 80
1, 71339, Note_on_c, 0, 71, 0
1, 71340, Note_on_c, 0, 69, 80
1, 71399, Note_on_c, 0, 69, 0
1, 71400, Note_on_c, 0, 71, 80
1, 71459, Note_on_c, 0, 71, 0
1, 71460, Note_on_c, 0, 69, 80
1, 71519, Note_on_c, 0, 69, 0
1, 71520, Note_on_c, 0, 67, 80
1, 71759, Note_on_c, 0, 67, 0
1, 71760, Note_on_c, 0, 66, 80
1, 71999, Note_on_c, 0, 66, 0
1, 72000, Note_on_c, 0, 67, 80
1, 72239, Note_on_c, 0, 67, 0
1, 72240, Note_on_c, 0, 71, 80
1, 72479, Note_on_c, 0, 71, 0
1, 72480, Note_on_c, 0, 69, 80
1, 72719, Note_on_c, 0, 69, 0
1, 72720, Note_on_c, 0, 71, 80
1, 73199, Note_on_c, 0, 71, 0
1, 73200, Note_on_c, 0, 63, 80
1, 73439, Note_on_c, 0, 63, 0
1, 73440, Note_on_c, 0, 64, 80
1, 73440, Note_on_c, 0, 83, 64
1, 73490, Note_on_c, 0, 83, 0
1, 73500, Note_on_c, 0, 81, 80
1, 73559, Note_on_c, 0, 81, 0
1, 73560, Note_on_c, 0, 79, 64
1, 73615, Note_on_c, 0, 79, 0
1, 73620, Note_on_c, 0, 81, 64
1, 73675, Note_on_c, 0, 81, 0
1, 73679, Note_on_c, 0, 64, 0
1, 73680, Note_on_c, 0, 67, 80
1, 73680, Note_on_c, 0, 83, 64
1, 73735, Note_on_c, 0, 83, 0
1, 73740, Note_on_c, 0, 81, 64
1, 73795, Note_on_c, 0, 81, 0
1, 73799, Note_on_c, 0, 67, 0
1, 73800, Note_on_c, 0, 66, 80
1, 73800, Note_on_c, 0, 83, 64
1, 73855, Note_on_c, 0, 83, 0
1, 73860, Note_on_c, 0, 81, 64
1, 73915, Note_on_c, 0, 81, 0
1, 73919, Note_on_c, 0, 66, 0
1, 73920, Note_on_c, 0, 64, 80
1, 73920, Note_on_c, 0, 83, 64
1, 73975, Note_on_c, 0, 83, 0
1, 73980, Note_on_c, 0, 81, 64
1, 74035, Note_on_c, 0, 81, 0
1, 74039, Note_on_c, 0, 64, 0
1, 74040, Note_on_c, 0, 62, 80
1, 74040, Note_on_c, 0, 83, 64
1, 74095, Note_on_c, 0, 83, 0
1, 74100, Note_on_c, 0, 81, 64
1, 74155, Note_on_c, 0, 81, 0
1, 74159, Note_on_c, 0, 62, 0
1, 74160, Note_on_c, 0, 60, 80
1, 74160, Note_on_c, 0, 83, 64
1, 74215, Note_on_c, 0, 83, 0
1, 74220, Note_on_c, 0, 81, 64
1, 74275, Note_on_c, 0, 81, 0
1, 74280, Note_on_c, 0, 83, 64
1, 74335, Note_on_c, 0, 83, 0
1, 74340, Note_on_c, 0, 81, 64
1, 74395, Note_on_c, 0, 81, 0
1, 74399, Note_on_c, 0, 60, 0
1, 74400, Note_on_c, 0, 64, 80
1, 74400, Note_on_c, 0, 83, 64
1, 74455, Note_on_c, 0, 83, 0
1, 74460, Note_on_c, 0, 81, 64
1, 74515, Note_on_c, 0, 81, 0
1, 74519, Note_on_c, 0, 64, 0
1, 74520, Note_on_c, 0, 62, 80
1, 74520, Note_on_c, 0, 83, 64
1, 74575, Note_on_c, 0, 83, 0
1, 74580, Note_on_c, 0, 81, 64
1, 74635, Note_on_c, 0, 81, 0
1, 74639, Note_on_c, 0, 62, 0
1, 74640, Note_on_c, 0, 60, 80
1, 74640, Note_on_c, 0, 83, 64
1, 74695, Note_on_c, 0, 83, 0
1, 74700, Note_on_c, 0, 81, 64
1, 74755, Note_on_c, 0, 81, 0
1, 74759, Note_on_c, 0, 60, 0
1, 74760, Note_on_c, 0, 59, 80
1, 74760, Note_on_c, 0, 83, 64
1, 74815, Note_on_c, 0, 83, 0
1, 74820, Note_on_c, 0, 81, 64
1, 74875, Note_on_c, 0, 81, 0
1, 74879, Note_on_c, 0, 59, 0
1, 74880, Note_on_c, 0, 57, 80
1, 74880, Note_on_c, 0, 83, 64
1, 74935, Note_on_c, 0, 83, 0
1, 74940, Note_on_c, 0, 81, 64
1, 74995, Note_on_c, 0, 81, 0
1, 75000, Note_on_c, 0, 83, 64
1, 75055, Note_on_c, 0, 83, 0
1, 75060, Note_on_c, 0, 81, 64
1, 75115, Note_on_c, 0, 81, 0
1, 75119, Note_on_c, 0, 57, 0
1, 75120, Note_on_c, 0, 60, 80
1, 75120, Note_on_c, 0, 83, 64
1, 75175, Note_on_c, 0, 83, 0
1, 75180, Note_on_c, 0, 81, 64
1, 75235, Note_on_c, 0, 81, 0
1, 75239, Note_on_c, 0, 60, 0
1, 75240, Note_on_c, 0, 59, 80
1, 75240, Note_on_c, 0, 83, 64
1, 75295, Note_on_c, 0, 83, 0
1, 75300, Note_on_c, 0, 81, 64
1, 75355, Note_on_c, 0, 81, 0
1, 75359, Note_on_c, 0, 59, 0
1, 75360, Note_on_c, 0, 57, 80
1, 75360, Note_on_c, 0, 83, 64
1, 75415, Note_on_c, 0, 83, 0
1, 75420, Note_on_c, 0, 81, 64
1, 75475, Note_on_c, 0, 81, 0
1, 75479, Note_on_c, 0, 57, 0
1, 75480, Note_on_c, 0, 55, 80
1, 75480, Note_on_c, 0, 83, 64
1, 75535, Note_on_c, 0, 83, 0
1, 75540, Note_on_c, 0, 81, 64
1, 75595, Note_on_c, 0, 81, 0
1, 75599, Note_on_c, 0, 55, 0
1, 75600, Note_on_c, 0, 54, 80
1, 75600, Note_on_c, 0, 83, 64
1, 75655, Note_on_c, 0, 83, 0
1, 75660, Note_on_c, 0, 81, 64
1, 75715, Note_on_c, 0, 81, 0
1, 75720, Note_on_c, 0, 83, 64
1, 75775, Note_on_c, 0, 83, 0
1, 75780, Note_on_c, 0, 81, 64
1, 75835, Note_on_c, 0, 81, 0
1, 75840, Note_on_c, 0, 79, 64
1, 76070, Note_on_c, 0, 79, 0
1, 76079, Note_on_c, 0, 54, 0
1, 76080, Note_on_c, 0, 64, 80
1, 76080, Note_on_c, 0, 78, 64
1, 76310, Note_on_c, 0, 78, 0
1, 76319, Note_on_c, 0, 64, 0
1, 76320, Note_on_c, 0, 63, 80
1, 76320, Note_on_c, 0, 79, 64
1, 76550, Note_on_c, 0, 79, 0
1, 76559, Note_on_c, 0, 63, 0
1, 76560, Note_on_c, 0, 66, 80
1, 76560, Note_on_c, 0, 83, 64
1, 76619, Note_on_c, 0, 66, 0
1, 76620, Note_on_c, 0, 64, 80
1, 76679, Note_on_c, 0, 64, 0
1, 76680, Note_on_c, 0, 63, 80
1, 76739, Note_on_c, 0, 63, 0
1, 76740, Note_on_c, 0, 64, 80
1, 76790, Note_on_c, 0, 83, 0
1, 76799, Note_on_c, 0, 64, 0
1, 76800, Note_on_c, 0, 66, 80
1, 76800, Note_on_c, 0, 81, 64
1, 77030, Note_on_c, 0, 81, 0
1, 77039, Note_on_c, 0, 66, 0
1, 77040, Note_on_c, 0, 59, 80
1, 77040, Note_on_c, 0, 83, 64
1, 77510, Note_on_c, 0, 83, 0
1, 77520, Note_on_c, 0, 75, 64
1, 77750, Note_on_c, 0, 75, 0
1, 77759, Note_on_c, 0, 59, 0
1, 77760, Note_on_c, 0, 59, 80
1, 77760, Note_on_c, 0, 76, 64
1, 77990, Note_on_c, 0, 76, 0
1, 77999, Note_on_c, 0, 59, 0
1, 78000, Note_on_c, 0, 63, 80
1, 78000, Note_on_c, 0, 79, 64
1, 78110, Note_on_c, 0, 79, 0
1, 78120, Note_on_c, 0, 78, 64
1, 78230, Note_on_c, 0, 78, 0
1, 78239, Note_on_c, 0, 63, 0
1, 78240, Note_on_c, 0, 64, 80
1, 78240, Note_on_c, 0, 76, 64
1, 78350, Note_on_c, 0, 76, 0
1, 78360, Note_on_c, 0, 74, 64
1, 78470, Note_on_c, 0, 74, 0
1, 78480, Note_on_c, 0, 72, 64
1, 78599, Note_on_c, 0, 64, 0
1, 78600, Note_on_c, 0, 62, 80
1, 78710, Note_on_c, 0, 72, 0
1, 78719, Note_on_c, 0, 62, 0
1, 78720, Note_on_c, 0, 60, 80
1, 78720, Note_on_c, 0, 76, 64
1, 78830, Note_on_c, 0, 76, 0
1, 78839, Note_on_c, 0, 60, 0
1, 78840, Note_on_c, 0, 59, 80
1, 78840, Note_on_c, 0, 74, 64
1, 78950, Note_on_c, 0, 74, 0
1, 78959, Note_on_c, 0, 59, 0
1, 78960, Note_on_c, 0, 60, 80
1, 78960, Note_on_c, 0, 72, 64
1, 79070, Note_on_c, 0, 72, 0
1, 79080, Note_on_c, 0, 71, 64
1, 79190, Note_on_c, 0, 71, 0
1, 79199, Note_on_c, 0, 60, 0
1, 79200, Note_on_c, 0, 60, 80
1, 79200, Note_on_c, 0, 69, 64
1, 79319, Note_on_c, 0, 60, 0
1, 79320, Note_on_c, 0, 59, 80
1, 79430, Note_on_c, 0, 69, 0
1, 79439, Note_on_c, 0, 59, 0
1, 79440, Note_on_c, 0, 57, 80
1, 79440, Note_on_c, 0, 72, 64
1, 79550, Note_on_c, 0, 72, 0
1, 79559, Note_on_c, 0, 57, 0
1, 79560, Note_on_c, 0, 55, 80
1, 79560, Note_on_c, 0, 71, 64
1, 79670, Note_on_c, 0, 71, 0
1, 79679, Note_on_c, 0, 55, 0
1, 79680, Note_on_c, 0, 57, 80
1, 79680, Note_on_c, 0, 69, 64
1, 79790, Note_on_c, 0, 69, 0
1, 79800, Note_on_c, 0, 67, 64
1, 79910, Note_on_c, 0, 67, 0
1, 79919, Note_on_c, 0, 57, 0
1, 79920, Note_on_c, 0, 57, 80
1, 79920, Note_on_c, 0, 66, 64
1, 80159, Note_on_c, 0, 57, 0
1, 80160, Note_on_c, 0, 54, 80
1, 80390, Note_on_c, 0, 66, 0
1, 80399, Note_on_c, 0, 54, 0
1, 80400, Note_on_c, 0, 55, 80
1, 80400, Note_on_c, 0, 76, 64
1, 80630, Note_on_c, 0, 76, 0
1, 80639, Note_on_c, 0, 55, 0
1, 80640, Note_on_c, 0, 75, 64
1, 80870, Note_on_c, 0, 75, 0
1, 80880, Note_on_c, 0, 78, 64
1, 80926, Note_on_c, 0, 78, 0
1, 80930, Note_on_c, 0, 76, 64
1, 80963, Note_on_c, 0, 76, 0
1, 81020, Note_on_c, 0, 75, 64
1, 81070, Note_on_c, 0, 76, 64
1, 81086, Note_on_c, 0, 75, 0
1, 81120, Note_on_c, 0, 78, 64
1, 81126, Note_on_c, 0, 76, 0
1, 81350, Note_on_c, 0, 78, 0
1, 81360, Note_on_c, 0, 71, 80
1, 82319, Note_on_c, 0, 71, 0
1, 82320, Note_on_c, 0, 75, 64
1, 82550, Note_on_c, 0, 75, 0
1, 82560, Note_on_c, 0, 76, 64
1, 82919, Note_on_c, 0, 76, 0
1, 82920, Note_on_c, 0, 74, 64
1, 83030, Note_on_c, 0, 74, 0
1, 83040, Note_on_c, 0, 72, 64
1, 83150, Note_on_c, 0, 72, 0
1, 83160, Note_on_c, 0, 71, 64
1, 83270, Note_on_c, 0, 71, 0
1, 83280, Note_on_c, 0, 72, 64
1, 83639, Note_on_c, 0, 72, 0
1, 83640, Note_on_c, 0, 71, 64
1, 83750, Note_on_c, 0, 71, 0
1, 83760, Note_on_c, 0, 69, 64
1, 83870, Note_on_c, 0, 69, 0
1, 83880, Note_on_c, 0, 67, 64
1, 83990, Note_on_c, 0, 67, 0
1, 84000, Note_on_c, 0, 69, 64
1, 84479, Note_on_c, 0, 69, 0
1, 84480, Note_on_c, 0, 66, 64
1, 84710, Note_on_c, 0, 66, 0
1, 84720, Note_on_c, 0, 67, 64
1, 84950, Note_on_c, 0, 67, 0
1, 84960, Note_on_c, 0, 71, 64
1, 85010, Note_on_c, 0, 71, 0
1, 85020, Note_on_c, 0, 69, 80
1, 85079, Note_on_c, 0, 69, 0
1, 85080, Note_on_c, 0, 71, 80
1, 85919, Note_on_c, 0, 71, 0
1, 85920, Note_on_c, 0, 72, 64
1, 86150, Note_on_c, 0, 72, 0
1, 86160, Note_on_c, 0, 74, 64
1, 86390, Note_on_c, 0, 74, 0
1, 86400, Note_on_c, 0, 76, 64
1, 86630, Note_on_c, 0, 76, 0
1, 86640, Note_on_c, 0, 68, 64
1, 86870, Note_on_c, 0, 68, 0
1, 86880, Note_on_c, 0, 71, 64
1, 87110, Note_on_c, 0, 71, 0
1, 87120, Note_on_c, 0, 69, 80
1, 88079, Note_on_c, 0, 69, 0
1, 88080, Note_on_c, 0, 71, 64
1, 88310, Note_on_c, 0, 71, 0
1, 88320, Note_on_c, 0, 72, 64
1, 88550, Note_on_c, 0, 72, 0
1, 88560, Note_on_c, 0, 74, 64
1, 88790, Note_on_c, 0, 74, 0
1, 88800, Note_on_c, 0, 66, 64
1, 89030, Note_on_c, 0, 66, 0
1, 89040, Note_on_c, 0, 69, 64
1, 89270, Note_on_c, 0, 69, 0
1, 89280, Note_on_c, 0, 59, 80
1, 89280, Note_on_c, 0, 62, 64
1, 89750, Note_on_c, 0, 62, 0
1, 89760, Note_on_c, 0, 66, 64
1, 89990, Note_on_c, 0, 66, 0
1, 90000, Note_on_c, 0, 71, 80
1, 90239, Note_on_c, 0, 59, 0
1, 90240, Note_on_c, 0, 60, 80
1, 90479, Note_on_c, 0, 60, 0
1, 90480, Note_on_c, 0, 62, 80
1, 90719, Note_on_c, 0, 62, 0
1, 90720, Note_on_c, 0, 64, 80
1, 90959, Note_on_c, 0, 64, 0
1, 90960, Note_on_c, 0, 56, 80
1, 91199, Note_on_c, 0, 56, 0
1, 91199, Note_on_c, 0, 71, 0
1, 91200, Note_on_c, 0, 59, 80
1, 91200, Note_on_c, 0, 63, 64
1, 91430, Note_on_c, 0, 63, 0
1, 91439, Note_on_c, 0, 59, 0
1, 91440, Note_on_c, 0, 57, 80
1, 91440, Note_on_c, 0, 64, 64
1, 91670, Note_on_c, 0, 64, 0
1, 91680, Note_on_c, 0, 66, 64
1, 91910, Note_on_c, 0, 66, 0
1, 91920, Note_on_c, 0, 67, 64
1, 92150, Note_on_c, 0, 67, 0
1, 92160, Note_on_c, 0, 66, 64
1, 92390, Note_on_c, 0, 66, 0
1, 92399, Note_on_c, 0, 57, 0
1, 92400, Note_on_c, 0, 59, 80
1, 92400, Note_on_c, 0, 67, 64
1, 92630, Note_on_c, 0, 67, 0
1, 92639, Note_on_c, 0, 59, 0
1, 92640, Note_on_c, 0, 60, 80
1, 92640, Note_on_c, 0, 69, 64
1, 92870, Note_on_c, 0, 69, 0
1, 92879, Note_on_c, 0, 60, 0
1, 92880, Note_on_c, 0, 62, 80
1, 93120, Note_on_c, 0, 54, 80
1, 93359, Note_on_c, 0, 54, 0
1, 93360, Note_on_c, 0, 57, 80
1, 93599, Note_on_c, 0, 57, 0
1, 93599, Note_on_c, 0, 62, 0
1, 93600, Note_on_c, 0, 50, 80
1, 93600, Note_on_c, 0, 62, 80
1, 94079, Note_on_c, 0, 50, 0
1, 94080, Note_on_c, 0, 54, 80
1, 94319, Note_on_c, 0, 54, 0
1, 94319, Note_on_c, 0, 62, 0
1, 94320, Note_on_c, 0, 59, 80
1, 94320, Note_on_c, 0, 62, 80
1, 95279, Note_on_c, 0, 62, 0
1, 95280, Note_on_c, 0, 67, 64
1, 95510, Note_on_c, 0, 67, 0
1, 95519, Note_on_c, 0, 59, 0
1, 95520, Note_on_c, 0, 51, 80
1, 95520, Note_on_c, 0, 66, 64
1, 95750, Note_on_c, 0, 66, 0
1, 95759, Note_on_c, 0, 51, 0
1, 95760, Note_on_c, 0, 52, 80
1, 95760, Note_on_c, 0, 67, 64
1, 95990, Note_on_c, 0, 67, 0
1, 95999, Note_on_c, 0, 52, 0
1, 96000, Note_on_c, 0, 54, 80
1, 96000, Note_on_c, 0, 69, 64
1, 96230, Note_on_c, 0, 69, 0
1, 96239, Note_on_c, 0, 54, 0
1, 96240, Note_on_c, 0, 55, 80
1, 96240, Note_on_c, 0, 71, 64
1, 96470, Note_on_c, 0, 71, 0
1, 96479, Note_on_c, 0, 55, 0
1, 96480, Note_on_c, 0, 54, 80
1, 96480, Note_on_c, 0, 72, 64
1, 96710, Note_on_c, 0, 72, 0
1, 96719, Note_on_c, 0, 54, 0
1, 96720, Note_on_c, 0, 55, 80
1, 96720, Note_on_c, 0, 74, 64
1, 96830, Note_on_c, 0, 74, 0
1, 96840, Note_on_c, 0, 72, 64
1, 96950, Note_on_c, 0, 72, 0
1, 96959, Note_on_c, 0, 55, 0
1, 96960, Note_on_c, 0, 57, 80
1, 96960, Note_on_c, 0, 71, 64
1, 97070, Note_on_c, 0, 71, 0
1, 97080, Note_on_c, 0, 69, 64
1, 97190, Note_on_c, 0, 69, 0
1, 97199, Note_on_c, 0, 57, 0
1, 97200, Note_on_c, 0, 50, 80
1, 97200, Note_on_c, 0, 71, 64
1, 97430, Note_on_c, 0, 71, 0
1, 97440, Note_on_c, 0, 72, 64
1, 97550, Note_on_c, 0, 72, 0
1, 97560, Note_on_c, 0, 71, 64
1, 97670, Note_on_c, 0, 71, 0
1, 97680, Note_on_c, 0, 69, 64
1, 97790, Note_on_c, 0, 69, 0
1, 97800, Note_on_c, 0, 67, 64
1, 97910, Note_on_c, 0, 67, 0
1, 97919, Note_on_c, 0, 50, 0
1, 97920, Note_on_c, 0, 50, 80
1, 97920, Note_on_c, 0, 69, 64
1, 98150, Note_on_c, 0, 69, 0
1, 98160, Note_on_c, 0, 71, 64
1, 98270, Note_on_c, 0, 71, 0
1, 98280, Note_on_c, 0, 69, 64
1, 98390, Note_on_c, 0, 69, 0
1, 98400, Note_on_c, 0, 67, 64
1, 98510, Note_on_c, 0, 67, 0
1, 98520, Note_on_c, 0, 66, 64
1, 98630, Note_on_c, 0, 66, 0
1, 98639, Note_on_c, 0, 50, 0
1, 98640, Note_on_c, 0, 50, 80
1, 98640, Note_on_c, 0, 67, 64
1, 98870, Note_on_c, 0, 67, 0
1, 98880, Note_on_c, 0, 71, 64
1, 98990, Note_on_c, 0, 71, 0
1, 99000, Note_on_c, 0, 69, 64
1, 99110, Note_on_c, 0, 69, 0
1, 99120, Note_on_c, 0, 67, 64
1, 99230, Note_on_c, 0, 67, 0
1, 99240, Note_on_c, 0, 66, 64
1, 99350, Note_on_c, 0, 66, 0
1, 99360, Note_on_c, 0, 67, 64
1, 99590, Note_on_c, 0, 67, 0
1, 99599, Note_on_c, 0, 50, 0
1, 99600, Note_on_c, 0, 55, 80
1, 99839, Note_on_c, 0, 55, 0
1, 99840, Note_on_c, 0, 54, 80
1, 100079, Note_on_c, 0, 54, 0
1, 100080, Note_on_c, 0, 55, 80
1, 100080, Note_on_c, 0, 62, 64
1, 100310, Note_on_c, 0, 62, 0
1, 100319, Note_on_c, 0, 55, 0
1, 100320, Note_on_c, 0, 57, 80
1, 100559, Note_on_c, 0, 57, 0
1, 100560, Note_on_c, 0, 59, 80
1, 100799, Note_on_c, 0, 59, 0
1, 100800, Note_on_c, 0, 60, 80
1, 100800, Note_on_c, 0, 66, 64
1, 101030, Note_on_c, 0, 66, 0
1, 101039, Note_on_c, 0, 60, 0
1, 101040, Note_on_c, 0, 62, 80
1, 101159, Note_on_c, 0, 62, 0
1, 101160, Note_on_c, 0, 60, 80
1, 101279, Note_on_c, 0, 60, 0
1, 101280, Note_on_c, 0, 59, 80
1, 101399, Note_on_c, 0, 59, 0
1, 101400, Note_on_c, 0, 57, 80
1, 101519, Note_on_c, 0, 57, 0
1, 101520, Note_on_c, 0, 59, 80
1, 101520, Note_on_c, 0, 67, 64
1, 101750, Note_on_c, 0, 67, 0
1, 101759, Note_on_c, 0, 59, 0
1, 101760, Note_on_c, 0, 60, 80
1, 101879, Note_on_c, 0, 60, 0
1, 101880, Note_on_c, 0, 59, 80
1, 101999, Note_on_c, 0, 59, 0
1, 102000, Note_on_c, 0, 57, 80
1, 102119, Note_on_c, 0, 57, 0
1, 102120, Note_on_c, 0, 55, 80
1, 102239, Note_on_c, 0, 55, 0
1, 102240, Note_on_c, 0, 57, 80
1, 102240, Note_on_c, 0, 60, 64
1, 102470, Note_on_c, 0, 60, 0
1, 102479, Note_on_c, 0, 57, 0
1, 102480, Note_on_c, 0, 59, 80
1, 102599, Note_on_c, 0, 59, 0
1, 102600, Note_on_c, 0, 57, 80
1, 102719, Note_on_c, 0, 57, 0
1, 102720, Note_on_c, 0, 55, 80
1, 102839, Note_on_c, 0, 55, 0
1, 102840, Note_on_c, 0, 54, 80
1, 102959, Note_on_c, 0, 54, 0
1, 102960, Note_on_c, 0, 55, 80
1, 102960, Note_on_c, 0, 59, 80
1, 103679, Note_on_c, 0, 55, 0
1, 103679, Note_on_c, 0, 59, 0
1, 103680, Note_on_c, 0, 71, 80
1, 103739, Note_on_c, 0, 71, 0
1, 103740, Note_on_c, 0, 69, 80
1, 103799, Note_on_c, 0, 69, 0
1, 103800, Note_on_c, 0, 67, 80
1, 103859, Note_on_c, 0, 67, 0
1, 103860, Note_on_c, 0, 69, 80
1, 103919, Note_on_c, 0, 69, 0
1, 103920, Note_on_c, 0, 71, 80
1, 103979, Note_on_c, 0, 71, 0
1, 103980, Note_on_c, 0, 69, 80
1, 104039, Note_on_c, 0, 69, 0
1, 104040, Note_on_c, 0, 71, 80
1, 104099, Note_on_c, 0, 71, 0
1, 104100, Note_on_c, 0, 69, 80
1, 104159, Note_on_c, 0, 69, 0
1, 104160, Note_on_c, 0, 71, 80
1, 104219, Note_on_c, 0, 71, 0
1, 104220, Note_on_c, 0, 69, 80
1, 104279, Note_on_c, 0, 69, 0
1, 104280, Note_on_c, 0, 71, 80
1, 104339, Note_on_c, 0, 71, 0
1, 104340, Note_on_c, 0, 69, 80
1, 104399, Note_on_c, 0, 69, 0
1, 104400, Note_on_c, 0, 71, 80
1, 104459, Note_on_c, 0, 71, 0
1, 104460, Note_on_c, 0, 69, 80
1, 104519, Note_on_c, 0, 69, 0
1, 104520, Note_on_c, 0, 71, 80
1, 104579, Note_on_c, 0, 71, 0
1, 104580, Note_on_c, 0, 69, 80
1, 104639, Note_on_c, 0, 69, 0
1, 104640, Note_on_c, 0, 71, 80
1, 104699, Note_on_c, 0, 71, 0
1, 104700, Note_on_c, 0, 69, 80
1, 104759, Note_on_c, 0, 69, 0
1, 104760, Note_on_c, 0, 71, 80
1, 104819, Note_on_c, 0, 71, 0
1, 104820, Note_on_c, 0, 69, 80
1, 104879, Note_on_c, 0, 69, 0
1, 104880, Note_on_c, 0, 71, 80
1, 104939, Note_on_c, 0, 71, 0
1, 104940, Note_on_c, 0, 69, 80
1, 104999, Note_on_c, 0, 69, 0
1, 105000, Note_on_c, 0, 71, 80
1, 105059, Note_on_c, 0, 71, 0
1, 105060, Note_on_c, 0, 69, 80
1, 105119, Note_on_c, 0, 69, 0
1, 105120, Note_on_c, 0, 71, 80
1, 105179, Note_on_c, 0, 71, 0
1, 105180, Note_on_c, 0, 69, 80
1, 105239, Note_on_c, 0, 69, 0
1, 105240, Note_on_c, 0, 71, 80
1, 105299, Note_on_c, 0, 71, 0
1, 105300, Note_on_c, 0, 69, 80
1, 105359, Note_on_c, 0, 69, 0
1, 105360, Note_on_c, 0, 71, 80
1, 105419, Note_on_c, 0, 71, 0
1, 105420, Note_on_c, 0, 69, 80
1, 105479, Note_on_c, 0, 69, 0
1, 105480, Note_on_c, 0, 71, 80
1, 105539, Note_on_c, 0, 71, 0
1, 105540, Note_on_c, 0, 69, 80
1, 105599, Note_on_c, 0, 69, 0
1, 105600, Note_on_c, 0, 71, 80
1, 105659, Note_on_c, 0, 71, 0
1, 105660, Note_on_c, 0, 69, 80
1, 105719, Note_on_c, 0, 69, 0
1, 105720, Note_on_c, 0, 71, 80
1, 105779, Note_on_c, 0, 71, 0
1, 105780, Note_on_c, 0, 69, 80
1, 105839, Note_on_c, 0, 69, 0
1, 105840, Note_on_c, 0, 71, 80
1, 105899, Note_on_c, 0, 71, 0
1, 105900, Note_on_c, 0, 69, 80
1, 105959, Note_on_c, 0, 69, 0
1, 105960, Note_on_c, 0, 71, 80
1, 106019, Note_on_c, 0, 71, 0
1, 106020, Note_on_c, 0, 69, 80
1, 106079, Note_on_c, 0, 69, 0
1, 106080, Note_on_c, 0, 67, 80
1, 106319, Note_on_c, 0, 67, 0
1, 106320, Note_on_c, 0, 66, 80
1, 106559, Note_on_c, 0, 66, 0
1, 106560, Note_on_c, 0, 67, 80
1, 106799, Note_on_c, 0, 67, 0
1, 106800, Note_on_c, 0, 71, 80
1, 107039, Note_on_c, 0, 71, 0
1, 107040, Note_on_c, 0, 69, 80
1, 107279, Note_on_c, 0, 69, 0
1, 107280, Note_on_c, 0, 71, 80
1, 107759, Note_on_c, 0, 71, 0
1, 107760, Note_on_c, 0, 63, 80
1, 107999, Note_on_c, 0, 63, 0
1, 108000, Note_on_c, 0, 64, 80
1, 108000, Note_on_c, 0, 83, 64
1, 108050, Note_on_c, 0, 83, 0
1, 108060, Note_on_c, 0, 81, 80
1, 108119, Note_on_c, 0, 81, 0
1, 108120, Note_on_c, 0, 79, 64
1, 108175, Note_on_c, 0, 79, 0
1, 108180, Note_on_c, 0, 81, 64
1, 108235, Note_on_c, 0, 81, 0
1, 108239, Note_on_c, 0, 64, 0
1, 108240, Note_on_c, 0, 67, 80
1, 108240, Note_on_c, 0, 83, 64
1, 108295, Note_on_c, 0, 83, 0
1, 108300, Note_on_c, 0, 81, 64
1, 108355, Note_on_c, 0, 81, 0
1, 108359, Note_on_c, 0, 67, 0
1, 108360, Note_on_c, 0, 66, 80
1, 108360, Note_on_c, 0, 83, 64
1, 108415, Note_on_c, 0, 83, 0
1, 108420, Note_on_c, 0, 81, 64
1, 108475, Note_on_c, 0, 81, 0
1, 108479, Note_on_c, 0, 66, 0
1, 108480, Note_on_c, 0, 64, 80
1, 108480, Note_on_c, 0, 83, 64
1, 108535, Note_on_c, 0, 83, 0
1, 108540, Note_on_c, 0, 81, 64
1, 108595, Note_on_c, 0, 81, 0
1, 108599, Note_on_c, 0, 64, 0
1, 108600, Note_on_c, 0, 62, 80
1, 108600, Note_on_c, 0, 83, 64
1, 108655, Note_on_c, 0, 83, 0
1, 108660, Note_on_c, 0, 81, 64
1, 108715, Note_on_c, 0, 81, 0
1, 108719, Note_on_c, 0, 62, 0
1, 108720, Note_on_c, 0, 60, 80
1, 108720, Note_on_c, 0, 83, 64
1, 108775, Note_on_c, 0, 83, 0
1, 108780, Note_on_c, 0, 81, 64
1, 108835, Note_on_c, 0, 81, 0
1, 108840, Note_on_c, 0, 83, 64
1, 108895, Note_on_c, 0, 83, 0
1, 108900, Note_on_c, 0, 81, 64
1, 108955, Note_on_c, 0, 81, 0
1, 108959, Note_on_c, 0, 60, 0
1, 108960, Note_on_c, 0, 64, 80
1, 108960, Note_on_c, 0, 83, 64
1, 109015, Note_on_c, 0, 83, 0
1, 109020, Note_on_c, 0, 81, 64
1, 109075, Note_on_c, 0, 81, 0
1, 109079, Note_on_c, 0, 64, 0
1, 109080, Note_on_c, 0, 62, 80
1, 109080, Note_on_c, 0, 83, 64
1, 109135, Note_on_c, 0, 83, 0
1, 109140, Note_on_c, 0, 81, 64
1, 109195, Note_on_c, 0, 81, 0
1, 109199, Note_on_c, 0, 62, 0
1, 109200, Note_on_c, 0, 60, 80
1, 109200, Note_on_c, 0, 83, 64
1, 109255, Note_on_c, 0, 83, 0
1, 109260, Note_on_c, 0, 81, 64
1, 109315, Note_on_c, 0, 81, 0
1, 109319, Note_on_c, 0, 60, 0
1, 109320, Note_on_c, 0, 59, 80
1, 109320, Note_on_c, 0, 83, 64
1, 109375, Note_on_c, 0, 83, 0
1, 109380, Note_on_c, 0, 81, 64
1, 109435, Note_on_c, 0, 81, 0
1, 109439, Note_on_c, 0, 59, 0
1, 109440, Note_on_c, 0, 57, 80
1, 109440, Note_on_c, 0, 83, 64
1, 109495, Note_on_c, 0, 83, 0
1, 109500, Note_on_c, 0, 81, 64
1, 109555, Note_on_c, 0, 81, 0
1, 109560, Note_on_c, 0, 83, 64
1, 109615, Note_on_c, 0, 83, 0
1, 109620, Note_on_c, 0, 81, 64
1, 109675, Note_on_c, 0, 81, 0
1, 109679, Note_on_c, 0, 57, 0
1, 109680, Note_on_c, 0, 60, 80
1, 109680, Note_on_c, 0, 83, 64
1, 109735, Note_on_c, 0, 83, 0
1, 109740, Note_on_c, 0, 81, 64
1, 109795, Note_on_c, 0, 81, 0
1, 109799, Note_on_c, 0, 60, 0
1, 109800, Note_on_c, 0, 59, 80
1, 109800, Note_on_c, 0, 83, 64
1, 109855, Note_on_c, 0, 83, 0
1, 109860, Note_on_c, 0, 81, 64
1, 109915, Note_on_c, 0, 81, 0
1, 109919, Note_on_c, 0, 59, 0
1, 109920, Note_on_c, 0, 57, 80
1, 109920, Note_on_c, 0, 83, 64
1, 109975, Note_on_c, 0, 83, 0
1, 109980, Note_on_c, 0, 81, 64
1, 110035, Note_on_c, 0, 81, 0
1, 110039, Note_on_c, 0, 57, 0
1, 110040, Note_on_c, 0, 55, 80
1, 110040, Note_on_c, 0, 83, 64
1, 110095, Note_on_c, 0, 83, 0
1, 110100, Note_on_c, 0, 81, 64
1, 110155, Note_on_c, 0, 81, 0
1, 110159, Note_on_c, 0, 55, 0
1, 110160, Note_on_c, 0, 54, 80
1, 110160, Note_on_c, 0, 83, 64
1, 110215, Note_on_c, 0, 83, 0
1, 110220, Note_on_c, 0, 81, 64
1, 110275, Note_on_c, 0, 81, 0
1, 110280, Note_on_c, 0, 83, 64
1, 110335, Note_on_c, 0, 83, 0
1, 110340, Note_on_c, 0, 81, 64
1, 110395, Note_on_c, 0, 81, 0
1, 110400, Note_on_c, 0, 79, 64
1, 110630, Note_on_c, 0, 79, 0
1, 110639, Note_on_c, 0, 54, 0
1, 110640, Note_on_c, 0, 64, 80
1, 110640, Note_on_c, 0, 78, 64
1, 110870, Note_on_c, 0, 78, 0
1, 110879, Note_on_c, 0, 64, 0
1, 110880, Note_on_c, 0, 63, 80
1, 110880, Note_on_c, 0, 79, 64
1, 111110, Note_on_c, 0, 79, 0
1, 111119, Note_on_c, 0, 63, 0
1, 111120, Note_on_c, 0, 66, 80
1, 111120, Note_on_c, 0, 83, 64
1, 111179, Note_on_c, 0, 66, 0
1, 111180, Note_on_c, 0, 64, 80
1, 111239, Note_on_c, 0, 64, 0
1, 111240, Note_on_c, 0, 63, 80
1, 111299, Note_on_c, 0, 63, 0
1, 111300, Note_on_c, 0, 64, 80
1, 111350, Note_on_c, 0, 83, 0
1, 111359, Note_on_c, 0, 64, 0
1, 111360, Note_on_c, 0, 66, 80
1, 111360, Note_on_c, 0, 81, 64
1, 111590, Note_on_c, 0, 81, 0
1, 111599, Note_on_c, 0, 66, 0
1, 111600, Note_on_c, 0, 59, 80
1, 111600, Note_on_c, 0, 83, 64
1, 112070, Note_on_c, 0, 83, 0
1, 112080, Note_on_c, 0, 75, 64
1, 112310, Note_on_c, 0, 75, 0
1, 112319, Note_on_c, 0, 59, 0
1, 112320, Note_on_c, 0, 59, 80
1, 112320, Note_on_c, 0, 76, 64
1, 112550, Note_on_c, 0, 76, 0
1, 112559, Note_on_c, 0, 59, 0
1, 112560, Note_on_c, 0, 63, 80
1, 112560, Note_on_c, 0, 79, 64
1, 112670, Note_on_c, 0, 79, 0
1, 112680, Note_on_c, 0, 78, 64
1, 112790, Note_on_c, 0, 78, 0
1, 112799, Note_on_c, 0, 63, 0
1, 112800, Note_on_c, 0, 64, 80
1, 112800, Note_on_c, 0, 76, 64
1, 112910, Note_on_c, 0, 76, 0
1, 112920, Note_on_c, 0, 74, 64
1, 113030, Note_on_c, 0, 74, 0
1, 113040, Note_on_c, 0, 72, 64
1, 113159, Note_on_c, 0, 64, 0
1, 113160, Note_on_c, 0, 62, 80
1, 113270, Note_on_c, 0, 72, 0
1, 113279, Note_on_c, 0, 62, 0
1, 113280, Note_on_c, 0, 60, 80
1, 113280, Note_on_c, 0, 76, 64
1, 113390, Note_on_c, 0, 76, 0
1, 113399, Note_on_c, 0, 60, 0
1, 113400, Note_on_c, 0, 59, 80
1, 113400, Note_on_c, 0, 74, 64
1, 113510, Note_on_c, 0, 74, 0
1, 113519, Note_on_c, 0, 59, 0
1, 113520, Note_on_c, 0, 60, 80
1, 113520, Note_on_c, 0, 72, 64
1, 113630, Note_on_c, 0, 72, 0
1, 113640, Note_on_c, 0, 71, 64
1, 113750, Note_on_c, 0, 71, 0
1, 113759, Note_on_c, 0, 60, 0
1, 113760, Note_on_c, 0, 60, 80
1, 113760, Note_on_c, 0, 69, 64
1, 113879, Note_on_c, 0, 60, 0
1, 113880, Note_on_c, 0, 59, 80
1, 113990, Note_on_c, 0, 69, 0
1, 113999, Note_on_c, 0, 59, 0
1, 114000, Note_on_c, 0, 57, 80
1, 114000, Note_on_c, 0, 72, 64
1, 114110, Note_on_c, 0, 72, 0
1, 114119, Note_on_c, 0, 57, 0
1, 114120, Note_on_c, 0, 55, 80
1, 114120, Note_on_c, 0, 71, 64
1, 114230, Note_on_c, 0, 71, 0
1, 114239, Note_on_c, 0, 55, 0
1, 114240, Note_on_c, 0, 57, 80
1, 114240, Note_on_c, 0, 69, 64
1, 114350, Note_on_c, 0, 69, 0
1, 114360, Note_on_c, 0, 67, 64
1, 114470, Note_on_c, 0, 67, 0
1, 114479, Note_on_c, 0, 57, 0
1, 114480, Note_on_c, 0, 57, 80
1, 114480, Note_on_c, 0, 66, 64
1, 114719, Note_on_c, 0, 57, 0
1, 114720, Note_on_c, 0, 54, 80
1, 114950, Note_on_c, 0, 66, 0
1, 114959, Note_on_c, 0, 54, 0
1, 114960, Note_on_c, 0, 55, 80
1, 114960, Note_on_c, 0, 76, 64
1, 115190, Note_on_c, 0, 76, 0
1, 115199, Note_on_c, 0, 55, 0
1, 115200, Note_on_c, 0, 75, 64
1, 115430, Note_on_c, 0, 75, 0
1, 115440, Note_on_c, 0, 78, 64
1, 115486, Note_on_c, 0, 78, 0
1, 115490, Note_on_c, 0, 76, 64
1, 115523, Note_on_c, 0, 76, 0
1, 115580, Note_on_c, 0, 75, 64
1, 115630, Note_on_c, 0, 76, 64
1, 115646, Note_on_c, 0, 75, 0
1, 115680, Note_on_c, 0, 78, 64
1, 115686, Note_on_c, 0, 76, 0
1, 115910, Note_on_c, 0, 78, 0
1, 115920, Note_on_c, 0, 71, 80
1, 116879, Note_on_c, 0, 71, 0
1, 116880, Note_on_c, 0, 75, 64
1, 117110, Note_on_c, 0, 75, 0
1, 117120, Note_on_c, 0, 76, 64
1, 117479, Note_on_c, 0, 76, 0
1, 117480, Note_on_c, 0, 74, 64
1, 117590, Note_on_c, 0, 74, 0
1, 117600, Note_on_c, 0, 72, 64
1, 117710, Note_on_c, 0, 72, 0
1, 117720, Note_on_c, 0, 71, 64
1, 117830, Note_on_c, 0, 71, 0
1, 117840, Note_on_c, 0, 72, 64
1, 118199, Note_on_c, 0, 72, 0
1, 118200, Note_on_c, 0, 71, 64
1, 118310, Note_on_c, 0, 71, 0
1, 118320, Note_on_c, 0, 69, 64
1, 118430, Note_on_c, 0, 69, 0
1, 118440, Note_on_c, 0, 67, 64
1, 118550, Note_on_c, 0, 67, 0
1, 118560, Note_on_c, 0, 69, 64
1, 119039, Note_on_c, 0, 69, 0
1, 119040, Note_on_c, 0, 66, 64
1, 119270, Note_on_c, 0, 66, 0
1, 119280, Note_on_c, 0, 67, 64
1, 119510, Note_on_c, 0, 67, 0
1, 119520, Note_on_c, 0, 71, 64
1, 119570, Note_on_c, 0, 71, 0
1, 119580, Note_on_c, 0, 69, 80
1, 119639, Note_on_c, 0, 69, 0
1, 119640, Note_on_c, 0, 71, 80
1, 120479, Note_on_c, 0, 71, 0
1, 120480, Note_on_c, 0, 72, 64
1, 120710, Note_on_c, 0, 72, 0
1, 120720, Note_on_c, 0, 74, 64
1, 120950, Note_on_c, 0, 74, 0
1, 120960, Note_on_c, 0, 76, 64
1, 121190, Note_on_c, 0, 76, 0
1, 121200, Note_on_c, 0, 68, 64
1, 121430, Note_on_c, 0, 68, 0
1, 121440, Note_on_c, 0, 71, 64
1, 121670, Note_on_c, 0, 71, 0
1, 121680, Note_on_c, 0, 69, 80
1, 122639, Note_on_c, 0, 69, 0
1, 122640, Note_on_c, 0, 71, 64
1, 122870, Note_on_c, 0, 71, 0
1, 122880, Note_on_c, 0, 72, 64
1, 123110, Note_on_c, 0, 72, 0
1, 123120, Note_on_c, 0, 74, 64
1, 123350, Note_on_c, 0, 74, 0
1, 123360, Note_on_c, 0, 66, 64
1, 123590, Note_on_c, 0, 66, 0
1, 123600, Note_on_c, 0, 69, 64
1, 123830, Note_on_c, 0, 69, 0
1, 123840, Note_on_c, 0, 59, 80
1, 123840, Note_on_c, 0, 62, 64
1, 124310, Note_on_c, 0, 62, 0
1, 124320, Note_on_c, 0, 66, 64
1, 124550, Note_on_c, 0, 66, 0
1, 124560, Note_on_c, 0, 71, 80
1, 124799, Note_on_c, 0, 59, 0
1, 124800, Note_on_c, 0, 60, 80
1, 125039, Note_on_c, 0, 60, 0
1, 125040, Note_on_c, 0, 62, 80
1, 125279, Note_on_c, 0, 62, 0
1, 125280, Note_on_c, 0, 64, 80
1, 125519, Note_on_c, 0, 64, 0
1, 125520, Note_on_c, 0, 56, 80
1, 125759, Note_on_c, 0, 56, 0
1, 125759, Note_on_c, 0, 71, 0
1, 125760, Note_on_c, 0, 59, 80
1, 125760, Note_on_c, 0, 63, 64
1, 125990, Note_on_c, 0, 63, 0
1, 125999, Note_on_c, 0, 59, 0
1, 126000, Note_on_c, 0, 57, 80
1, 126000, Note_on_c, 0, 64, 64
1, 126230, Note_on_c, 0, 64, 0
1, 126240, Note_on_c, 0, 66, 64
1, 126470, Note_on_c, 0, 66, 0
1, 126480, Note_on_c, 0, 67, 64
1, 126710, Note_on_c, 0, 67, 0
1, 126720, Note_on_c, 0, 66, 64
1, 126950, Note_on_c, 0, 66, 0
1, 126959, Note_on_c, 0, 57, 0
1, 126960, Note_on_c, 0, 59, 80
1, 126960, Note_on_c, 0, 67, 64
1, 127190, Note_on_c, 0, 67, 0
1, 127199, Note_on_c, 0, 59, 0
1, 127200, Note_on_c, 0, 60, 80
1, 127200, Note_on_c, 0, 69, 64
1, 127430, Note_on_c, 0, 69, 0
1, 127439, Note_on_c, 0, 60, 0
1, 127440, Note_on_c, 0, 62, 80
1, 127680, Note_on_c, 0, 54, 80
1, 127919, Note_on_c, 0, 54, 0
1, 127920, Note_on_c, 0, 57, 80
1, 128159, Note_on_c, 0, 57, 0
1, 128159, Note_on_c, 0, 62, 0
1, 128160, Note_on_c, 0, 50, 80
1, 128160, Note_on_c, 0, 62, 80
1, 128639, Note_on_c, 0, 50, 0
1, 128640, Note_on_c, 0, 54, 80
1, 128879, Note_on_c, 0, 54, 0
1, 128879, Note_on_c, 0, 62, 0
1, 128880, Note_on_c, 0, 59, 80
1, 128880, Note_on_c, 0, 62, 80
1, 129839, Note_on_c, 0, 62, 0
1, 129840, Note_on_c, 0, 67, 64
1, 130070, Note_on_c, 0, 67, 0
1, 130079, Note_on_c, 0, 59, 0
1, 130080, Note_on_c, 0, 51, 80
1, 130080, Note_on_c, 0, 66, 64
1, 130310, Note_on_c, 0, 66, 0
1, 130319, Note_on_c, 0, 51, 0
1, 130320, Note_on_c, 0, 52, 80
1, 130320, Note_on_c, 0, 67, 64
1, 130550, Note_on_c, 0, 67, 0
1, 130559, Note_on_c, 0, 52, 0
1, 130560, Note_on_c, 0, 54, 80
1, 130560, Note_on_c, 0, 69, 64
1, 130790, Note_on_c, 0, 69, 0
1, 130799, Note_on_c, 0, 54, 0
1, 130800, Note_on_c, 0, 55, 80
1, 130800, Note_on_c, 0, 71, 64
1, 131030, Note_on_c, 0, 71, 0
1, 131039, Note_on_c, 0, 55, 0
1, 131040, Note_on_c, 0, 54, 80
1, 131040, Note_on_c, 0, 72, 64
1, 131270, Note_on_c, 0, 72, 0
1, 131279, Note_on_c, 0, 54, 0
1, 131280, Note_on_c, 0, 55, 80
1, 131280, Note_on_c, 0, 74, 64
1, 131390, Note_on_c, 0, 74, 0
1, 131400, Note_on_c, 0, 72, 64
1, 131510, Note_on_c, 0, 72, 0
1, 131519, Note_on_c, 0, 55, 0
1, 131520, Note_on_c, 0, 57, 80
1, 131520, Note_on_c, 0, 71, 64
1, 131630, Note_on_c, 0, 71, 0
1, 131640, Note_on_c, 0, 69, 64
1, 131750, Note_on_c, 0, 69, 0
1, 131759, Note_on_c, 0, 57, 0
1, 131760, Note_on_c, 0, 50, 80
1, 131760, Note_on_c, 0, 71, 64
1, 131990, Note_on_c, 0, 71, 0
1, 132000, Note_on_c, 0, 72, 64
1, 132110, Note_on_c, 0, 72, 0
1, 132120, Note_on_c, 0, 71, 64
1, 132230, Note_on_c, 0, 71, 0
1, 132240, Note_on_c, 0, 69, 64
1, 132350, Note_on_c, 0, 69, 0
1, 132360, Note_on_c, 0, 67, 64
1, 132470, Note_on_c, 0, 67, 0
1, 132479, Note_on_c, 0, 50, 0
1, 132480, Note_on_c, 0, 50, 80
1, 132480, Note_on_c, 0, 69, 64
1, 132710, Note_on_c, 0, 69, 0
1, 132720, Note_on_c, 0, 71, 64
1, 132830, Note_on_c, 0, 71, 0
1, 132840, Note_on_c, 0, 69, 64
1, 132950, Note_on_c, 0, 69, 0
1, 132960, Note_on_c, 0, 67, 64
1, 133070, Note_on_c, 0, 67, 0
1, 133080, Note_on_c, 0, 66, 64
1, 133190, Note_on_c, 0, 66, 0
1, 133199, Note_on_c, 0, 50, 0
1, 133200, Note_on_c, 0, 50, 80
1, 133200, Note_on_c, 0, 67, 64
1, 133430, Note_on_c, 0, 67, 0
1, 133440, Note_on_c, 0, 71, 64
1, 133550, Note_on_c, 0, 71, 0
1, 133560, Note_on_c, 0, 69, 64
1, 133670, Note_on_c, 0, 69, 0
1, 133680, Note_on_c, 0, 67, 64
1, 133790, Note_on_c, 0, 67, 0
1, 133800, Note_on_c, 0, 66, 64
1, 133910, Note_on_c, 0, 66, 0
1, 133920, Note_on_c, 0, 67, 64
1, 134150, Note_on_c, 0, 67, 0
1, 134159, Note_on_c, 0, 50, 0
1, 134160, Note_on_c, 0, 55, 80
1, 134399, Note_on_c, 0, 55, 0
1, 134400, Note_on_c, 0, 54, 80
1, 134639, Note_on_c, 0, 54, 0
1, 134640, Note_on_c, 0, 55, 80
1, 134640, Note_on_c, 0, 62, 64
1, 134870, Note_on_c, 0, 62, 0
1, 134879, Note_on_c, 0, 55, 0
1, 134880, Note_on_c, 0, 57, 80
1, 135119, Note_on_c, 0, 57, 0
1, 135120, Note_on_c, 0, 59, 80
1, 135359, Note_on_c, 0, 59, 0
1, 135360, Note_on_c, 0, 60, 80
1, 135360, Note_on_c, 0, 66, 64
1, 135590, Note_on_c, 0, 66, 0
1, 135599, Note_on_c, 0, 60, 0
1, 135600, Note_on_c, 0, 62, 80
1, 135719, Note_on_c, 0, 62, 0
1, 135720, Note_on_c, 0, 60, 80
1, 135839, Note_on_c, 0, 60, 0
1, 135840, Note_on_c, 0, 59, 80
1, 135959, Note_on_c, 0, 59, 0
1, 135960, Note_on_c, 0, 57, 80
1, 136079, Note_on_c, 0, 57, 0
1, 136080, Note_on_c, 0, 59, 80
1, 136080, Note_on_c, 0, 67, 64
1, 136310, Note_on_c, 0, 67, 0
1, 136319, Note_on_c, 0, 59, 0
1, 136320, Note_on_c, 0, 60, 80
1, 136439, Note_on_c, 0, 60, 0
1, 136440, Note_on_c, 0, 59, 80
1, 136559, Note_on_c, 0, 59, 0
1, 136560, Note_on_c, 0, 57, 80
1, 136679, Note_on_c, 0, 57, 0
1, 136680, Note_on_c, 0, 55, 80
1, 136799, Note_on_c, 0, 55, 0
1, 136800, Note_on_c, 0, 57, 80
1, 136800, Note_on_c, 0, 60, 64
1, 137030, Note_on_c, 0, 60, 0
1, 137039, Note_on_c, 0, 57, 0
1, 137040, Note_on_c, 0, 59, 80
1, 137159, Note_on_c, 0, 59, 0
1, 137160, Note_on_c, 0, 57, 80
1, 137279, Note_on_c, 0, 57, 0
1, 137280, Note_on_c, 0, 55, 80
1, 137399, Note_on_c, 0, 55, 0
1, 137400, Note_on_c, 0, 54, 80
1, 137519, Note_on_c, 0, 54, 0
1, 137520, Note_on_c, 0, 55, 80
1, 137520, Note_on_c, 0, 59, 80
1, 138239, Note_on_c, 0, 55, 0
1, 138239, Note_on_c, 0, 59, 0
1, 138240, End_track
2, 0, Start_track
2, 0, Key_signature, 1, "major"
2, 0, Note_on_c, 0, 55, 80
2, 719, Note_on_c, 0, 55, 0
2, 1200, Note_on_c, 0, 54, 64
2, 1430, Note_on_c, 0, 54, 0
2, 1440, Note_on_c, 0, 55, 64
2, 1910, Note_on_c, 0, 55, 0
2, 1920, Note_on_c, 0, 52, 64
2, 2150, Note_on_c, 0, 52, 0
2, 2160, Note_on_c, 0, 54, 80
2, 2879, Note_on_c, 0, 54, 0
2, 3360, Note_on_c, 0, 57, 64
2, 3590, Note_on_c, 0, 57, 0
2, 3600, Note_on_c, 0, 50, 64
2, 4070, Note_on_c, 0, 50, 0
2, 4080, Note_on_c, 0, 54, 64
2, 4310, Note_on_c, 0, 54, 0
2, 4320, Note_on_c, 0, 52, 80
2, 6239, Note_on_c, 0, 52, 0
2, 6240, Note_on_c, 0, 57, 64
2, 6470, Note_on_c, 0, 57, 0
2, 6480, Note_on_c, 0, 50, 80
2, 7199, Note_on_c, 0, 50, 0
2, 8400, Note_on_c, 0, 60, 64
2, 8630, Note_on_c, 0, 60, 0
2, 8640, Note_on_c, 0, 59, 80
2, 9359, Note_on_c, 0, 59, 0
2, 9840, Note_on_c, 0, 62, 64
2, 10070, Note_on_c, 0, 62, 0
2, 10080, Note_on_c, 0, 55, 64
2, 10550, Note_on_c, 0, 55, 0
2, 10560, Note_on_c, 0, 59, 64
2, 10790, Note_on_c, 0, 59, 0
2, 10800, Note_on_c, 0, 64, 80
2, 11519, Note_on_c, 0, 64, 0
2, 12000, Note_on_c, 0, 57, 64
2, 12230, Note_on_c, 0, 57, 0
2, 12240, Note_on_c, 0, 59, 64
2, 12470, Note_on_c, 0, 59, 0
2, 12480, Note_on_c, 0, 57, 64
2, 12710, Note_on_c, 0, 57, 0
2, 12720, Note_on_c, 0, 59, 64
2, 12950, Note_on_c, 0, 59, 0
2, 12960, Note_on_c, 0, 60, 64
2, 13190, Note_on_c, 0, 60, 0
2, 13200, Note_on_c, 0, 59, 64
2, 13430, Note_on_c, 0, 59, 0
2, 13440, Note_on_c, 0, 57, 64
2, 13670, Note_on_c, 0, 57, 0
2, 13680, Note_on_c, 0, 59, 64
2, 13910, Note_on_c, 0, 59, 0
2, 13920, Note_on_c, 0, 62, 64
2, 14150, Note_on_c, 0, 62, 0
2, 14160, Note_on_c, 0, 60, 64
2, 14390, Note_on_c, 0, 60, 0
2, 14400, Note_on_c, 0, 62, 64
2, 14870, Note_on_c, 0, 62, 0
2, 14880, Note_on_c, 0, 50, 64
2, 15110, Note_on_c, 0, 50, 0
2, 15120, Note_on_c, 0, 55, 64
2, 15590, Note_on_c, 0, 55, 0
2, 15600, Note_on_c, 0, 43, 64
2, 15830, Note_on_c, 0, 43, 0
2, 15840, Note_on_c, 0, 43, 64
2, 16310, Note_on_c, 0, 43, 0
2, 16320, Note_on_c, 0, 55, 64
2, 16550, Note_on_c, 0, 55, 0
2, 16560, Note_on_c, 0, 55, 64
2, 16790, Note_on_c, 0, 55, 0
2, 16800, Note_on_c, 0, 54, 64
2, 16910, Note_on_c, 0, 54, 0
2, 16920, Note_on_c, 0, 52, 64
2, 17030, Note_on_c, 0, 52, 0
2, 17040, Note_on_c, 0, 50, 64
2, 17150, Note_on_c, 0, 50, 0
2, 17160, Note_on_c, 0, 48, 64
2, 17270, Note_on_c, 0, 48, 0
2, 17280, Note_on_c, 0, 47, 64
2, 17510, Note_on_c, 0, 47, 0
2, 17520, Note_on_c, 0, 43, 64
2, 17750, Note_on_c, 0, 43, 0
2, 17760, Note_on_c, 0, 45, 64
2, 17990, Note_on_c, 0, 45, 0
2, 18000, Note_on_c, 0, 47, 64
2, 18230, Note_on_c, 0, 47, 0
2, 18240, Note_on_c, 0, 48, 64
2, 18470, Note_on_c, 0, 48, 0
2, 18480, Note_on_c, 0, 50, 64
2, 18710, Note_on_c, 0, 50, 0
2, 18720, Note_on_c, 0, 43, 64
2, 19190, Note_on_c, 0, 43, 0
2, 19200, Note_on_c, 0, 55, 64
2, 19679, Note_on_c, 0, 55, 0
2, 19680, Note_on_c, 0, 54, 64
2, 19910, Note_on_c, 0, 54, 0
2, 19920, Note_on_c, 0, 52, 64
2, 20150, Note_on_c, 0, 52, 0
2, 20160, Note_on_c, 0, 57, 64
2, 20630, Note_on_c, 0, 57, 0
2, 20640, Note_on_c, 0, 55, 64
2, 20870, Note_on_c, 0, 55, 0
2, 20880, Note_on_c, 0, 54, 64
2, 21110, Note_on_c, 0, 54, 0
2, 21120, Note_on_c, 0, 55, 64
2, 21350, Note_on_c, 0, 55, 0
2, 21360, Note_on_c, 0, 57, 64
2, 21590, Note_on_c, 0, 57, 0
2, 21600, Note_on_c, 0, 59, 80
2, 22319, Note_on_c, 0, 59, 0
2, 22320, Note_on_c, 0, 59, 80
2, 22799, Note_on_c, 0, 59, 0
2, 22800, Note_on_c, 0, 57, 64
2, 23030, Note_on_c, 0, 57, 0
2, 23040, Note_on_c, 0, 55, 64
2, 23510, Note_on_c, 0, 55, 0
2, 23520, Note_on_c, 0, 52, 64
2, 23750, Note_on_c, 0, 52, 0
2, 23760, Note_on_c, 0, 45, 64
2, 24230, Note_on_c, 0, 45, 0
2, 24960, Note_on_c, 0, 55, 64
2, 25190, Note_on_c, 0, 55, 0
2, 25200, Note_on_c, 0, 54, 64
2, 25670, Note_on_c, 0, 54, 0
2, 25680, Note_on_c, 0, 52, 64
2, 25910, Note_on_c, 0, 52, 0
2, 25920, Note_on_c, 0, 54, 64
2, 26390, Note_on_c, 0, 54, 0
2, 26400, Note_on_c, 0, 57, 64
2, 26630, Note_on_c, 0, 57, 0
2, 26640, Note_on_c, 0, 59, 64
2, 27110, Note_on_c, 0, 59, 0
2, 27120, Note_on_c, 0, 61, 64
2, 27350, Note_on_c, 0, 61, 0
2, 27360, Note_on_c, 0, 62, 64
2, 27830, Note_on_c, 0, 62, 0
2, 27840, Note_on_c, 0, 50, 64
2, 28070, Note_on_c, 0, 50, 0
2, 28080, Note_on_c, 0, 55, 64
2, 28550, Note_on_c, 0, 55, 0
2, 28560, Note_on_c, 0, 47, 64
2, 28790, Note_on_c, 0, 47, 0
2, 28800, Note_on_c, 0, 49, 64
2, 29030, Note_on_c, 0, 49, 0
2, 29040, Note_on_c, 0, 50, 64
2, 29270, Note_on_c, 0, 50, 0
2, 29280, Note_on_c, 0, 52, 64
2, 29510, Note_on_c, 0, 52, 0
2, 29520, Note_on_c, 0, 54, 64
2, 29750, Note_on_c, 0, 54, 0
2, 29760, Note_on_c, 0, 52, 64
2, 29990, Note_on_c, 0, 52, 0
2, 30000, Note_on_c, 0, 54, 64
2, 30230, Note_on_c, 0, 54, 0
2, 30240, Note_on_c, 0, 55, 64
2, 30470, Note_on_c, 0, 55, 0
2, 30480, Note_on_c, 0, 54, 64
2, 30710, Note_on_c, 0, 54, 0
2, 30720, Note_on_c, 0, 52, 64
2, 30950, Note_on_c, 0, 52, 0
2, 30960, Note_on_c, 0, 54, 64
2, 31190, Note_on_c, 0, 54, 0
2, 31200, Note_on_c, 0, 57, 64
2, 31430, Note_on_c, 0, 57, 0
2, 31440, Note_on_c, 0, 55, 64
2, 31670, Note_on_c, 0, 55, 0
2, 31680, Note_on_c, 0, 57, 64
2, 32150, Note_on_c, 0, 57, 0
2, 32160, Note_on_c, 0, 45, 64
2, 32390, Note_on_c, 0, 45, 0
2, 32400, Note_on_c, 0, 50, 64
2, 32870, Note_on_c, 0, 50, 0
2, 32880, Note_on_c, 0, 38, 64
2, 33110, Note_on_c, 0, 38, 0
2, 33120, Note_on_c, 0, 38, 64
2, 33590, Note_on_c, 0, 38, 0
2, 33600, Note_on_c, 0, 50, 64
2, 33830, Note_on_c, 0, 50, 0
2, 33840, Note_on_c, 0, 50, 80
2, 34559, Note_on_c, 0, 50, 0
2, 34560, Note_on_c, 0, 55, 80
2, 35279, Note_on_c, 0, 55, 0
2, 35760, Note_on_c, 0, 54, 64
2, 35990, Note_on_c, 0, 54, 0
2, 36000, Note_on_c, 0, 55, 64
2, 36470, Note_on_c, 0, 55, 0
2, 36480, Note_on_c, 0, 52, 64
2, 36710, Note_on_c, 0, 52, 0
2, 36720, Note_on_c, 0, 54, 80
2, 37439, Note_on_c, 0, 54, 0
2, 37920, Note_on_c, 0, 57, 64
2, 38150, Note_on_c, 0, 57, 0
2, 38160, Note_on_c, 0, 50, 64
2, 38630, Note_on_c, 0, 50, 0
2, 38640, Note_on_c, 0, 54, 64
2, 38870, Note_on_c, 0, 54, 0
2, 38880, Note_on_c, 0, 52, 80
2, 40799, Note_on_c, 0, 52, 0
2, 40800, Note_on_c, 0, 57, 64
2, 41030, Note_on_c, 0, 57, 0
2, 41040, Note_on_c, 0, 50, 80
2, 41759, Note_on_c, 0, 50, 0
2, 42960, Note_on_c, 0, 60, 64
2, 43190, Note_on_c, 0, 60, 0
2, 43200, Note_on_c, 0, 59, 80
2, 43919, Note_on_c, 0, 59, 0
2, 44400, Note_on_c, 0, 62, 64
2, 44630, Note_on_c, 0, 62, 0
2, 44640, Note_on_c, 0, 55, 64
2, 45110, Note_on_c, 0, 55, 0
2, 45120, Note_on_c, 0, 59, 64
2, 45350, Note_on_c, 0, 59, 0
2, 45360, Note_on_c, 0, 64, 80
2, 46079, Note_on_c, 0, 64, 0
2, 46560, Note_on_c, 0, 57, 64
2, 46790, Note_on_c, 0, 57, 0
2, 46800, Note_on_c, 0, 59, 64
2, 47030, Note_on_c, 0, 59, 0
2, 47040, Note_on_c, 0, 57, 64
2, 47270, Note_on_c, 0, 57, 0
2, 47280, Note_on_c, 0, 59, 64
2, 47510, Note_on_c, 0, 59, 0
2, 47520, Note_on_c, 0, 60, 64
2, 47750, Note_on_c, 0, 60, 0
2, 47760, Note_on_c, 0, 59, 64
2, 47990, Note_on_c, 0, 59, 0
2, 48000, Note_on_c, 0, 57, 64
2, 48230, Note_on_c, 0, 57, 0
2, 48240, Note_on_c, 0, 59, 64
2, 48470, Note_on_c, 0, 59, 0
2, 48480, Note_on_c, 0, 62, 64
2, 48710, Note_on_c, 0, 62, 0
2, 48720, Note_on_c, 0, 60, 64
2, 48950, Note_on_c, 0, 60, 0
2, 48960, Note_on_c, 0, 62, 64
2, 49430, Note_on_c, 0, 62, 0
2, 49440, Note_on_c, 0, 50, 64
2, 49670, Note_on_c, 0, 50, 0
2, 49680, Note_on_c, 0, 55, 64
2, 50150, Note_on_c, 0, 55, 0
2, 50160, Note_on_c, 0, 43, 64
2, 50390, Note_on_c, 0, 43, 0
2, 50400, Note_on_c, 0, 43, 64
2, 50870, Note_on_c, 0, 43, 0
2, 50880, Note_on_c, 0, 55, 64
2, 51110, Note_on_c, 0, 55, 0
2, 51120, Note_on_c, 0, 55, 64
2, 51350, Note_on_c, 0, 55, 0
2, 51360, Note_on_c, 0, 54, 64
2, 51470, Note_on_c, 0, 54, 0
2, 51480, Note_on_c, 0, 52, 64
2, 51590, Note_on_c, 0, 52, 0
2, 51600, Note_on_c, 0, 50, 64
2, 51710, Note_on_c, 0, 50, 0
2, 51720, Note_on_c, 0, 48, 64
2, 51830, Note_on_c, 0, 48, 0
2, 51840, Note_on_c, 0, 47, 64
2, 52070, Note_on_c, 0, 47, 0
2, 52080, Note_on_c, 0, 43, 64
2, 52310, Note_on_c, 0, 43, 0
2, 52320, Note_on_c, 0, 45, 64
2, 52550, Note_on_c, 0, 45, 0
2, 52560, Note_on_c, 0, 47, 64
2, 52790, Note_on_c, 0, 47, 0
2, 52800, Note_on_c, 0, 48, 64
2, 53030, Note_on_c, 0, 48, 0
2, 53040, Note_on_c, 0, 50, 64
2, 53270, Note_on_c, 0, 50, 0
2, 53280, Note_on_c, 0, 43, 64
2, 53750, Note_on_c, 0, 43, 0
2, 53760, Note_on_c, 0, 55, 64
2, 54239, Note_on_c, 0, 55, 0
2, 54240, Note_on_c, 0, 54, 64
2, 54470, Note_on_c, 0, 54, 0
2, 54480, Note_on_c, 0, 52, 64
2, 54710, Note_on_c, 0, 52, 0
2, 54720, Note_on_c, 0, 57, 64
2, 55190, Note_on_c, 0, 57, 0
2, 55200, Note_on_c, 0, 55, 64
2, 55430, Note_on_c, 0, 55, 0
2, 55440, Note_on_c, 0, 54, 64
2, 55670, Note_on_c, 0, 54, 0
2, 55680, Note_on_c, 0, 55, 64
2, 55910, Note_on_c, 0, 55, 0
2, 55920, Note_on_c, 0, 57, 64
2, 56150, Note_on_c, 0, 57, 0
2, 56160, Note_on_c, 0, 59, 80
2, 56879, Note_on_c, 0, 59, 0
2, 56880, Note_on_c, 0, 59, 80
2, 57359, Note_on_c, 0, 59, 0
2, 57360, Note_on_c, 0, 57, 64
2, 57590, Note_on_c, 0, 57, 0
2, 57600, Note_on_c, 0, 55, 64
2, 58070, Note_on_c, 0, 55, 0
2, 58080, Note_on_c, 0, 52, 64
2, 58310, Note_on_c, 0, 52, 0
2, 58320, Note_on_c, 0, 45, 64
2, 58790, Note_on_c, 0, 45, 0
2, 59520, Note_on_c, 0, 55, 64
2, 59750, Note_on_c, 0, 55, 0
2, 59760, Note_on_c, 0, 54, 64
2, 60230, Note_on_c, 0, 54, 0
2, 60240, Note_on_c, 0, 52, 64
2, 60470, Note_on_c, 0, 52, 0
2, 60480, Note_on_c, 0, 54, 64
2, 60950, Note_on_c, 0, 54, 0
2, 60960, Note_on_c, 0, 57, 64
2, 61190, Note_on_c, 0, 57, 0
2, 61200, Note_on_c, 0, 59, 64
2, 61670, Note_on_c, 0, 59, 0
2, 61680, Note_on_c, 0, 61, 64
2, 61910, Note_on_c, 0, 61, 0
2, 61920, Note_on_c, 0, 62, 64
2, 62390, Note_on_c, 0, 62, 0
2, 62400, Note_on_c, 0, 50, 64
2, 62630, Note_on_c, 0, 50, 0
2, 62640, Note_on_c, 0, 55, 64
2, 63110, Note_on_c, 0, 55, 0
2, 63120, Note_on_c, 0, 47, 64
2, 63350, Note_on_c, 0, 47, 0
2, 63360, Note_on_c, 0, 49, 64
2, 63590, Note_on_c, 0, 49, 0
2, 63600, Note_on_c, 0, 50, 64
2, 63830, Note_on_c, 0, 50, 0
2, 63840, Note_on_c, 0, 52, 64
2, 64070, Note_on_c, 0, 52, 0
2, 64080, Note_on_c, 0, 54, 64
2, 64310, Note_on_c, 0, 54, 0
2, 64320, Note_on_c, 0, 52, 64
2, 64550, Note_on_c, 0, 52, 0
2, 64560, Note_on_c, 0, 54, 64
2, 64790, Note_on_c, 0, 54, 0
2, 64800, Note_on_c, 0, 55, 64
2, 65030, Note_on_c, 0, 55, 0
2, 65040, Note_on_c, 0, 54, 64
2, 65270, Note_on_c, 0, 54, 0
2, 65280, Note_on_c, 0, 52, 64
2, 65510, Note_on_c, 0, 52, 0
2, 65520, Note_on_c, 0, 54, 64
2, 65750, Note_on_c, 0, 54, 0
2, 65760, Note_on_c, 0, 57, 64
2, 65990, Note_on_c, 0, 57, 0
2, 66000, Note_on_c, 0, 55, 64
2, 66230, Note_on_c, 0, 55, 0
2, 66240, Note_on_c, 0, 57, 64
2, 66710, Note_on_c, 0, 57, 0
2, 66720, Note_on_c, 0, 45, 64
2, 66950, Note_on_c, 0, 45, 0
2, 66960, Note_on_c, 0, 50, 64
2, 67430, Note_on_c, 0, 50, 0
2, 67440, Note_on_c, 0, 38, 64
2, 67670, Note_on_c, 0, 38, 0
2, 67680, Note_on_c, 0, 38, 64
2, 68150, Note_on_c, 0, 38, 0
2, 68160, Note_on_c, 0, 50, 64
2, 68390, Note_on_c, 0, 50, 0
2, 68400, Note_on_c, 0, 50, 80
2, 69119, Note_on_c, 0, 50, 0
2, 69120, Note_on_c, 0, 50, 64
2, 69350, Note_on_c, 0, 50, 0
2, 69360, Note_on_c, 0, 54, 64
2, 69590, Note_on_c, 0, 54, 0
2, 69600, Note_on_c, 0, 57, 64
2, 69830, Note_on_c, 0, 57, 0
2, 69840, Note_on_c, 0, 62, 64
2, 70070, Note_on_c, 0, 62, 0
2, 70080, Note_on_c, 0, 64, 64
2, 70190, Note_on_c, 0, 64, 0
2, 70200, Note_on_c, 0, 62, 64
2, 70310, Note_on_c, 0, 62, 0
2, 70320, Note_on_c, 0, 60, 64
2, 70430, Note_on_c, 0, 60, 0
2, 70440, Note_on_c, 0, 59, 64
2, 70550, Note_on_c, 0, 59, 0
2, 70560, Note_on_c, 0, 60, 64
2, 70790, Note_on_c, 0, 60, 0
2, 70800, Note_on_c, 0, 62, 64
2, 70910, Note_on_c, 0, 62, 0
2, 70920, Note_on_c, 0, 60, 64
2, 71030, Note_on_c, 0, 60, 0
2, 71040, Note_on_c, 0, 59, 64
2, 71150, Note_on_c, 0, 59, 0
2, 71160, Note_on_c, 0, 57, 64
2, 71270, Note_on_c, 0, 57, 0
2, 71280, Note_on_c, 0, 59, 80
2, 72239, Note_on_c, 0, 59, 0
2, 72240, Note_on_c, 0, 60, 64
2, 72470, Note_on_c, 0, 60, 0
2, 72480, Note_on_c, 0, 62, 64
2, 72710, Note_on_c, 0, 62, 0
2, 72720, Note_on_c, 0, 55, 64
2, 72950, Note_on_c, 0, 55, 0
2, 72960, Note_on_c, 0, 57, 64
2, 73190, Note_on_c, 0, 57, 0
2, 73200, Note_on_c, 0, 59, 64
2, 73430, Note_on_c, 0, 59, 0
2, 73440, Note_on_c, 0, 60, 64
2, 73670, Note_on_c, 0, 60, 0
2, 74160, Note_on_c, 0, 57, 64
2, 74390, Note_on_c, 0, 57, 0
2, 74880, Note_on_c, 0, 54, 64
2, 75110, Note_on_c, 0, 54, 0
2, 75600, Note_on_c, 0, 51, 64
2, 76070, Note_on_c, 0, 51, 0
2, 76080, Note_on_c, 0, 54, 64
2, 76310, Note_on_c, 0, 54, 0
2, 76320, Note_on_c, 0, 59, 80
2, 77279, Note_on_c, 0, 59, 0
2, 77280, Note_on_c, 0, 55, 64
2, 77510, Note_on_c, 0, 55, 0
2, 77520, Note_on_c, 0, 57, 64
2, 77750, Note_on_c, 0, 57, 0
2, 77760, Note_on_c, 0, 55, 64
2, 77990, Note_on_c, 0, 55, 0
2, 78480, Note_on_c, 0, 52, 64
2, 78710, Note_on_c, 0, 52, 0
2, 79200, Note_on_c, 0, 48, 64
2, 79430, Note_on_c, 0, 48, 0
2, 79920, Note_on_c, 0, 45, 64
2, 80390, Note_on_c, 0, 45, 0
2, 80400, Note_on_c, 0, 46, 64
2, 80630, Note_on_c, 0, 46, 0
2, 80640, Note_on_c, 0, 47, 64
2, 80870, Note_on_c, 0, 47, 0
2, 80880, Note_on_c, 0, 60, 64
2, 80990, Note_on_c, 0, 60, 0
2, 81000, Note_on_c, 0, 59, 64
2, 81110, Note_on_c, 0, 59, 0
2, 81120, Note_on_c, 0, 57, 64
2, 81230, Note_on_c, 0, 57, 0
2, 81240, Note_on_c, 0, 55, 64
2, 81350, Note_on_c, 0, 55, 0
2, 81360, Note_on_c, 0, 57, 64
2, 81590, Note_on_c, 0, 57, 0
2, 81600, Note_on_c, 0, 59, 64
2, 81710, Note_on_c, 0, 59, 0
2, 81720, Note_on_c, 0, 57, 64
2, 81830, Note_on_c, 0, 57, 0
2, 81840, Note_on_c, 0, 55, 64
2, 81950, Note_on_c, 0, 55, 0
2, 81960, Note_on_c, 0, 54, 64
2, 82070, Note_on_c, 0, 54, 0
2, 82080, Note_on_c, 0, 55, 64
2, 82310, Note_on_c, 0, 55, 0
2, 82320, Note_on_c, 0, 57, 64
2, 82430, Note_on_c, 0, 57, 0
2, 82440, Note_on_c, 0, 55, 64
2, 82550, Note_on_c, 0, 55, 0
2, 82560, Note_on_c, 0, 54, 64
2, 82670, Note_on_c, 0, 54, 0
2, 82680, Note_on_c, 0, 52, 64
2, 82790, Note_on_c, 0, 52, 0
2, 82800, Note_on_c, 0, 60, 64
2, 83030, Note_on_c, 0, 60, 0
2, 83040, Note_on_c, 0, 51, 64
2, 83270, Note_on_c, 0, 51, 0
2, 83280, Note_on_c, 0, 52, 64
2, 83510, Note_on_c, 0, 52, 0
2, 83520, Note_on_c, 0, 47, 64
2, 83750, Note_on_c, 0, 47, 0
2, 83760, Note_on_c, 0, 52, 64
2, 83990, Note_on_c, 0, 52, 0
2, 84000, Note_on_c, 0, 51, 64
2, 84230, Note_on_c, 0, 51, 0
2, 84240, Note_on_c, 0, 52, 64
2, 84290, Note_on_c, 0, 52, 0
2, 84300, Note_on_c, 0, 50, 80
2, 84359, Note_on_c, 0, 50, 0
2, 84360, Note_on_c, 0, 52, 80
2, 85199, Note_on_c, 0, 52, 0
2, 85200, Note_on_c, 0, 55, 64
2, 85430, Note_on_c, 0, 55, 0
2, 85440, Note_on_c, 0, 59, 64
2, 85670, Note_on_c, 0, 59, 0
2, 85680, Note_on_c, 0, 64, 64
2, 86150, Note_on_c, 0, 64, 0
2, 86160, Note_on_c, 0, 62, 64
2, 86390, Note_on_c, 0, 62, 0
2, 86400, Note_on_c, 0, 60, 80
2, 87359, Note_on_c, 0, 60, 0
2, 87360, Note_on_c, 0, 59, 64
2, 87590, Note_on_c, 0, 59, 0
2, 87600, Note_on_c, 0, 60, 64
2, 87830, Note_on_c, 0, 60, 0
2, 87840, Note_on_c, 0, 54, 64
2, 88070, Note_on_c, 0, 54, 0
2, 88080, Note_on_c, 0, 55, 64
2, 88310, Note_on_c, 0, 55, 0
2, 88320, Note_on_c, 0, 57, 64
2, 88550, Note_on_c, 0, 57, 0
2, 88560, Note_on_c, 0, 59, 64
2, 88790, Note_on_c, 0, 59, 0
2, 88800, Note_on_c, 0, 50, 64
2, 89030, Note_on_c, 0, 50, 0
2, 89040, Note_on_c, 0, 54, 64
2, 89270, Note_on_c, 0, 54, 0
2, 89280, Note_on_c, 0, 47, 64
2, 89510, Note_on_c, 0, 47, 0
2, 89520, Note_on_c, 0, 48, 64
2, 89750, Note_on_c, 0, 48, 0
2, 89760, Note_on_c, 0, 50, 64
2, 89990, Note_on_c, 0, 50, 0
2, 90000, Note_on_c, 0, 43, 64
2, 90230, Note_on_c, 0, 43, 0
2, 90240, Note_on_c, 0, 45, 64
2, 90470, Note_on_c, 0, 45, 0
2, 90480, Note_on_c, 0, 47, 64
2, 90710, Note_on_c, 0, 47, 0
2, 90720, Note_on_c, 0, 48, 80
2, 91439, Note_on_c, 0, 48, 0
2, 91440, Note_on_c, 0, 48, 80
2, 92159, Note_on_c, 0, 48, 0
2, 92160, Note_on_c, 0, 48, 80
2, 93119, Note_on_c, 0, 48, 0
2, 93120, Note_on_c, 0, 50, 64
2, 93230, Note_on_c, 0, 50, 0
2, 93240, Note_on_c, 0, 48, 64
2, 93350, Note_on_c, 0, 48, 0
2, 93360, Note_on_c, 0, 47, 64
2, 93470, Note_on_c, 0, 47, 0
2, 93480, Note_on_c, 0, 45, 64
2, 93590, Note_on_c, 0, 45, 0
2, 93600, Note_on_c, 0, 47, 64
2, 93830, Note_on_c, 0, 47, 0
2, 93840, Note_on_c, 0, 48, 64
2, 94070, Note_on_c, 0, 48, 0
2, 94080, Note_on_c, 0, 50, 64
2, 94310, Note_on_c, 0, 50, 0
2, 94320, Note_on_c, 0, 43, 64
2, 94550, Note_on_c, 0, 43, 0
2, 94560, Note_on_c, 0, 45, 64
2, 94790, Note_on_c, 0, 45, 0
2, 94800, Note_on_c, 0, 47, 64
2, 95030, Note_on_c, 0, 47, 0
2, 95040, Note_on_c, 0, 40, 64
2, 95270, Note_on_c, 0, 40, 0
2, 95760, Note_on_c, 0, 52, 80
2, 95999, Note_on_c, 0, 52, 0
2, 96480, Note_on_c, 0, 45, 64
2, 96710, Note_on_c, 0, 45, 0
2, 97200, Note_on_c, 0, 43, 64
2, 97430, Note_on_c, 0, 43, 0
2, 97440, Note_on_c, 0, 45, 64
2, 97670, Note_on_c, 0, 45, 0
2, 97680, Note_on_c, 0, 47, 64
2, 97910, Note_on_c, 0, 47, 0
2, 97920, Note_on_c, 0, 48, 64
2, 98150, Note_on_c, 0, 48, 0
2, 98160, Note_on_c, 0, 47, 64
2, 98390, Note_on_c, 0, 47, 0
2, 98400, Note_on_c, 0, 45, 64
2, 98630, Note_on_c, 0, 45, 0
2, 98640, Note_on_c, 0, 47, 64
2, 98870, Note_on_c, 0, 47, 0
2, 98880, Note_on_c, 0, 43, 64
2, 99110, Note_on_c, 0, 43, 0
2, 99120, Note_on_c, 0, 45, 64
2, 99350, Note_on_c, 0, 45, 0
2, 99360, Note_on_c, 0, 47, 80
2, 100319, Note_on_c, 0, 47, 0
2, 100320, Note_on_c, 0, 45, 64
2, 100550, Note_on_c, 0, 45, 0
2, 100560, Note_on_c, 0, 43, 64
2, 100790, Note_on_c, 0, 43, 0
2, 100800, Note_on_c, 0, 50, 64
2, 101270, Note_on_c, 0, 50, 0
2, 101280, Note_on_c, 0, 38, 64
2, 101510, Note_on_c, 0, 38, 0
2, 101520, Note_on_c, 0, 43, 64
2, 101990, Note_on_c, 0, 43, 0
2, 102000, Note_on_c, 0, 31, 64
2, 102230, Note_on_c, 0, 31, 0
2, 102240, Note_on_c, 0, 31, 64
2, 102710, Note_on_c, 0, 31, 0
2, 102720, Note_on_c, 0, 43, 64
2, 102950, Note_on_c, 0, 43, 0
2, 102960, Note_on_c, 0, 43, 80
2, 103679, Note_on_c, 0, 43, 0
2, 103680, Note_on_c, 0, 50, 64
2, 103910, Note_on_c, 0, 50, 0
2, 103920, Note_on_c, 0, 54, 64
2, 104150, Note_on_c, 0, 54, 0
2, 104160, Note_on_c, 0, 57, 64
2, 104390, Note_on_c, 0, 57, 0
2, 104400, Note_on_c, 0, 62, 64
2, 104630, Note_on_c, 0, 62, 0
2, 104640, Note_on_c, 0, 64, 64
2, 104750, Note_on_c, 0, 64, 0
2, 104760, Note_on_c, 0, 62, 64
2, 104870, Note_on_c, 0, 62, 0
2, 104880, Note_on_c, 0, 60, 64
2, 104990, Note_on_c, 0, 60, 0
2, 105000, Note_on_c, 0, 59, 64
2, 105110, Note_on_c, 0, 59, 0
2, 105120, Note_on_c, 0, 60, 64
2, 105350, Note_on_c, 0, 60, 0
2, 105360, Note_on_c, 0, 62, 64
2, 105470, Note_on_c, 0, 62, 0
2, 105480, Note_on_c, 0, 60, 64
2, 105590, Note_on_c, 0, 60, 0
2, 105600, Note_on_c, 0, 59, 64
2, 105710, Note_on_c, 0, 59, 0
2, 105720, Note_on_c, 0, 57, 64
2, 105830, Note_on_c, 0, 57, 0
2, 105840, Note_on_c, 0, 59, 80
2, 106799, Note_on_c, 0, 59, 0
2, 106800, Note_on_c, 0, 60, 64
2, 107030, Note_on_c, 0, 60, 0
2, 107040, Note_on_c, 0, 62, 64
2, 107270, Note_on_c, 0, 62, 0
2, 107280, Note_on_c, 0, 55, 64
2, 107510, Note_on_c, 0, 55, 0
2, 107520, Note_on_c, 0, 57, 64
2, 107750, Note_on_c, 0, 57, 0
2, 107760, Note_on_c, 0, 59, 64
2, 107990, Note_on_c, 0, 59, 0
2, 108000, Note_on_c, 0, 60, 64
2, 108230, Note_on_c, 0, 60, 0
2, 108720, Note_on_c, 0, 57, 64
2, 108950, Note_on_c, 0, 57, 0
2, 109440, Note_on_c, 0, 54, 64
2, 109670, Note_on_c, 0, 54, 0
2, 110160, Note_on_c, 0, 51, 64
2, 110630, Note_on_c, 0, 51, 0
2, 110640, Note_on_c, 0, 54, 64
2, 110870, Note_on_c, 0, 54, 0
2, 110880, Note_on_c, 0, 59, 80
2, 111839, Note_on_c, 0, 59, 0
2, 111840, Note_on_c, 0, 55, 64
2, 112070, Note_on_c, 0, 55, 0
2, 112080, Note_on_c, 0, 57, 64
2, 112310, Note_on_c, 0, 57, 0
2, 112320, Note_on_c, 0, 55, 64
2, 112550, Note_on_c, 0, 55, 0
2, 113040, Note_on_c, 0, 52, 64
2, 113270, Note_on_c, 0, 52, 0
2, 113760, Note_on_c, 0, 48, 64
2, 113990, Note_on_c, 0, 48, 0
2, 114480, Note_on_c, 0, 45, 64
2, 114950, Note_on_c, 0, 45, 0
2, 114960, Note_on_c, 0, 46, 64
2, 115190, Note_on_c, 0, 46, 0
2, 115200, Note_on_c, 0, 47, 64
2, 115430, Note_on_c, 0, 47, 0
2, 115440, Note_on_c, 0, 60, 64
2, 115550, Note_on_c, 0, 60, 0
2, 115560, Note_on_c, 0, 59, 64
2, 115670, Note_on_c, 0, 59, 0
2, 115680, Note_on_c, 0, 57, 64
2, 115790, Note_on_c, 0, 57, 0
2, 115800, Note_on_c, 0, 55, 64
2, 115910, Note_on_c, 0, 55, 0
2, 115920, Note_on_c, 0, 57, 64
2, 116150, Note_on_c, 0, 57, 0
2, 116160, Note_on_c, 0, 59, 64
2, 116270, Note_on_c, 0, 59, 0
2, 116280, Note_on_c, 0, 57, 64
2, 116390, Note_on_c, 0, 57, 0
2, 116400, Note_on_c, 0, 55, 64
2, 116510, Note_on_c, 0, 55, 0
2, 116520, Note_on_c, 0, 54, 64
2, 116630, Note_on_c, 0, 54, 0
2, 116640, Note_on_c, 0, 55, 64
2, 116870, Note_on_c, 0, 55, 0
2, 116880, Note_on_c, 0, 57, 64
2, 116990, Note_on_c, 0, 57, 0
2, 117000, Note_on_c, 0, 55, 64
2, 117110, Note_on_c, 0, 55, 0
2, 117120, Note_on_c, 0, 54, 64
2, 117230, Note_on_c, 0, 54, 0
2, 117240, Note_on_c, 0, 52, 64
2, 117350, Note_on_c, 0, 52, 0
2, 117360, Note_on_c, 0, 60, 64
2, 117590, Note_on_c, 0, 60, 0
2, 117600, Note_on_c, 0, 51, 64
2, 117830, Note_on_c, 0, 51, 0
2, 117840, Note_on_c, 0, 52, 64
2, 118070, Note_on_c, 0, 52, 0
2, 118080, Note_on_c, 0, 47, 64
2, 118310, Note_on_c, 0, 47, 0
2, 118320, Note_on_c, 0, 52, 64
2, 118550, Note_on_c, 0, 52, 0
2, 118560, Note_on_c, 0, 51, 64
2, 118790, Note_on_c, 0, 51, 0
2, 118800, Note_on_c, 0, 52, 64
2, 118850, Note_on_c, 0, 52, 0
2, 118860, Note_on_c, 0, 50, 80
2, 118919, Note_on_c, 0, 50, 0
2, 118920, Note_on_c, 0, 52, 80
2, 119759, Note_on_c, 0, 52, 0
2, 119760, Note_on_c, 0, 55, 64
2, 119990, Note_on_c, 0, 55, 0
2, 120000, Note_on_c, 0, 59, 64
2, 120230, Note_on_c, 0, 59, 0
2, 120240, Note_on_c, 0, 64, 64
2, 120710, Note_on_c, 0, 64, 0
2, 120720, Note_on_c, 0, 62, 64
2, 120950, Note_on_c, 0, 62, 0
2, 120960, Note_on_c, 0, 60, 80
2, 121919, Note_on_c, 0, 60, 0
2, 121920, Note_on_c, 0, 59, 64
2, 122150, Note_on_c, 0, 59, 0
2, 122160, Note_on_c, 0, 60, 64
2, 122390, Note_on_c, 0, 60, 0
2, 122400, Note_on_c, 0, 54, 64
2, 122630, Note_on_c, 0, 54, 0
2, 122640, Note_on_c, 0, 55, 64
2, 122870, Note_on_c, 0, 55, 0
2, 122880, Note_on_c, 0, 57, 64
2, 123110, Note_on_c, 0, 57, 0
2, 123120, Note_on_c, 0, 59, 64
2, 123350, Note_on_c, 0, 59, 0
2, 123360, Note_on_c, 0, 50, 64
2, 123590, Note_on_c, 0, 50, 0
2, 123600, Note_on_c, 0, 54, 64
2, 123830, Note_on_c, 0, 54, 0
2, 123840, Note_on_c, 0, 47, 64
2, 124070, Note_on_c, 0, 47, 0
2, 124080, Note_on_c, 0, 48, 64
2, 124310, Note_on_c, 0, 48, 0
2, 124320, Note_on_c, 0, 50, 64
2, 124550, Note_on_c, 0, 50, 0
2, 124560, Note_on_c, 0, 43, 64
2, 124790, Note_on_c, 0, 43, 0
2, 124800, Note_on_c, 0, 45, 64
2, 125030, Note_on_c, 0, 45, 0
2, 125040, Note_on_c, 0, 47, 64
2, 125270, Note_on_c, 0, 47, 0
2, 125280, Note_on_c, 0, 48, 80
2, 125999, Note_on_c, 0, 48, 0
2, 126000, Note_on_c, 0, 48, 80
2, 126719, Note_on_c, 0, 48, 0
2, 126720, Note_on_c, 0, 48, 80
2, 127679, Note_on_c, 0, 48, 0
2, 127680, Note_on_c, 0, 50, 64
2, 127790, Note_on_c, 0, 50, 0
2, 127800, Note_on_c, 0, 48, 64
2, 127910, Note_on_c, 0, 48, 0
2, 127920, Note_on_c, 0, 47, 64
2, 128030, Note_on_c, 0, 47, 0
2, 128040, Note_on_c, 0, 45, 64
2, 128150, Note_on_c, 0, 45, 0
2, 128160, Note_on_c, 0, 47, 64
2, 128390, Note_on_c, 0, 47, 0
2, 128400, Note_on_c, 0, 48, 64
2, 128630, Note_on_c, 0, 48, 0
2, 128640, Note_on_c, 0, 50, 64
2, 128870, Note_on_c, 0, 50, 0
2, 128880, Note_on_c, 0, 43, 64
2, 129110, Note_on_c, 0, 43, 0
2, 129120, Note_on_c, 0, 45, 64
2, 129350, Note_on_c, 0, 45, 0
2, 129360, Note_on_c, 0, 47, 64
2, 129590, Note_on_c, 0, 47, 0
2, 129600, Note_on_c, 0, 40, 64
2, 129830, Note_on_c, 0, 40, 0
2, 130320, Note_on_c, 0, 52, 80
2, 130559, Note_on_c, 0, 52, 0
2, 131040, Note_on_c, 0, 45, 64
2, 131270, Note_on_c, 0, 45, 0
2, 131760, Note_on_c, 0, 43, 64
2, 131990, Note_on_c, 0, 43, 0
2, 132000, Note_on_c, 0, 45, 64
2, 132230, Note_on_c, 0, 45, 0
2, 132240, Note_on_c, 0, 47, 64
2, 132470, Note_on_c, 0, 47, 0
2, 132480, Note_on_c, 0, 48, 64
2, 132710, Note_on_c, 0, 48, 0
2, 132720, Note_on_c, 0, 47, 64
2, 132950, Note_on_c, 0, 47, 0
2, 132960, Note_on_c, 0, 45, 64
2, 133190, Note_on_c, 0, 45, 0
2, 133200, Note_on_c, 0, 47, 64
2, 133430, Note_on_c, 0, 47, 0
2, 133440, Note_on_c, 0, 43, 64
2, 133670, Note_on_c, 0, 43, 0
2, 133680, Note_on_c, 0, 45, 64
2, 133910, Note_on_c, 0, 45, 0
2, 133920, Note_on_c, 0, 47, 80
2, 134879, Note_on_c, 0, 47, 0
2, 134880, Note_on_c, 0, 45, 64
2, 135110, Note_on_c, 0, 45, 0
2, 135120, Note_on_c, 0, 43, 64
2, 135350, Note_on_c, 0, 43, 0
2, 135360, Note_on_c, 0, 50, 64
2, 135830, Note_on_c, 0, 50, 0
2, 135840, Note_on_c, 0, 38, 64
2, 136070, Note_on_c, 0, 38, 0
2, 136080, Note_on_c, 0, 43, 64
2, 136550, Note_on_c, 0, 43, 0
2, 136560, Note_on_c, 0, 31, 64
2, 136790, Note_on_c, 0, 31, 0
2, 136800, Note_on_c, 0, 31, 64
2, 137270, Note_on_c, 0, 31, 0
2, 137280, Note_on_c, 0, 43, 64
2, 137510, Note_on_c, 0, 43, 0
2, 137520, Note_on_c, 0, 43, 80
2, 138239, Note_on_c, 0, 43, 0
2, 138240, End_track
0, 0, End_of_file
