0, 0, Header, 1, 3, 480
1, 0, Start_track
1, 0, Unknown_meta_event, 8, 37, 67, 111, 110, 116, 114, 97, 112, 117, 110, 99, 116, 117, 115, 32, 88, 73, 73, 73, 32, 97, 32, 51, 46, 32, 40, 65, 32, 61, 32, 52, 49, 53, 32, 72, 122, 41, 0
1, 0, Unknown_meta_event, 9, 26, 66, 87, 86, 32, 49, 48, 56, 48, 32, 84, 104, 101, 32, 65, 114, 116, 32, 111, 102, 32, 70, 117, 103, 117, 101, 0
1, 0, Unknown_meta_event, 10, 11, 74, 46, 32, 83, 46, 32, 66, 97, 99, 104, 0
1, 0, Time_signature, 1, 3, 24, 8
1, 0, Key_signature, 4, "major"
1, 0, Tempo, 833333
1, 0, Program_c, 0, 46
1, 2, Control_c, 0, 7, 100
1, 4, Control_c, 0, 10, 64
1, 6, Control_c, 0, 91, 30
1, 8, Control_c, 0, 93, 30
1, 240, Time_signature, 2, 2, 24, 8
1, 7680, Note_on_c, 0, 73, 80
1, 7919, Note_on_c, 0, 73, 0
1, 7920, Note_on_c, 0, 80, 80
1, 8159, Note_on_c, 0, 80, 0
1, 8160, Note_on_c, 0, 68, 80
1, 8479, Note_on_c, 0, 68, 0
1, 8480, Note_on_c, 0, 70, 80
1, 8559, Note_on_c, 0, 70, 0
1, 8560, Note_on_c, 0, 71, 80
1, 8639, Note_on_c, 0, 71, 0
1, 8640, Note_on_c, 0, 70, 80
1, 8719, Note_on_c, 0, 70, 0
1, 8720, Note_on_c, 0, 71, 80
1, 8799, Note_on_c, 0, 71, 0
1, 8800, Note_on_c, 0, 73, 80
1, 8879, Note_on_c, 0, 73, 0
1, 8880, Note_on_c, 0, 71, 80
1, 8959, Note_on_c, 0, 71, 0
1, 8960, Note_on_c, 0, 73, 80
1, 9039, Note_on_c, 0, 73, 0
1, 9040, Note_on_c, 0, 75, 80
1, 9119, Note_on_c, 0, 75, 0
1, 9120, Note_on_c, 0, 73, 80
1, 9439, Note_on_c, 0, 73, 0
1, 9440, Note_on_c, 0, 75, 80
1, 9519, Note_on_c, 0, 75, 0
1, 9520, Note_on_c, 0, 76, 80
1, 9599, Note_on_c, 0, 76, 0
1, 9600, Note_on_c, 0, 75, 80
1, 9679, Note_on_c, 0, 75, 0
1, 9680, Note_on_c, 0, 76, 80
1, 9759, Note_on_c, 0, 76, 0
1, 9760, Note_on_c, 0, 78, 80
1, 9839, Note_on_c, 0, 78, 0
1, 9840, Note_on_c, 0, 76, 80
1, 9919, Note_on_c, 0, 76, 0
1, 9920, Note_on_c, 0, 75, 80
1, 9999, Note_on_c, 0, 75, 0
1, 10000, Note_on_c, 0, 73, 80
1, 10079, Note_on_c, 0, 73, 0
1, 10080, Note_on_c, 0, 75, 80
1, 10399, Note_on_c, 0, 75, 0
1, 10400, Note_on_c, 0, 73, 80
1, 10479, Note_on_c, 0, 73, 0
1, 10480, Note_on_c, 0, 71, 80
1, 10559, Note_on_c, 0, 71, 0
1, 10560, Note_on_c, 0, 73, 80
1, 10639, Note_on_c, 0, 73, 0
1, 10640, Note_on_c, 0, 71, 80
1, 10719, Note_on_c, 0, 71, 0
1, 10720, Note_on_c, 0, 70, 80
1, 10799, Note_on_c, 0, 70, 0
1, 10800, Note_on_c, 0, 71, 80
1, 10959, Note_on_c, 0, 71, 0
1, 10960, Note_on_c, 0, 75, 80
1, 11039, Note_on_c, 0, 75, 0
1, 11040, Note_on_c, 0, 80, 80
1, 11199, Note_on_c, 0, 80, 0
1, 11200, Note_on_c, 0, 75, 80
1, 11279, Note_on_c, 0, 75, 0
1, 11280, Note_on_c, 0, 71, 80
1, 11439, Note_on_c, 0, 71, 0
1, 11440, Note_on_c, 0, 70, 80
1, 11519, Note_on_c, 0, 70, 0
1, 11520, Note_on_c, 0, 71, 80
1, 11679, Note_on_c, 0, 71, 0
1, 11680, Note_on_c, 0, 73, 80
1, 11759, Note_on_c, 0, 73, 0
1, 11760, Note_on_c, 0, 75, 80
1, 12239, Note_on_c, 0, 75, 0
1, 12480, Note_on_c, 0, 72, 80
1, 12719, Note_on_c, 0, 72, 0
1, 12720, Note_on_c, 0, 73, 80
1, 12959, Note_on_c, 0, 73, 0
1, 12960, Note_on_c, 0, 76, 80
1, 13119, Note_on_c, 0, 76, 0
1, 13120, Note_on_c, 0, 75, 80
1, 13199, Note_on_c, 0, 75, 0
1, 13200, Note_on_c, 0, 73, 80
1, 13439, Note_on_c, 0, 73, 0
1, 13440, Note_on_c, 0, 83, 80
1, 13679, Note_on_c, 0, 83, 0
1, 13680, Note_on_c, 0, 81, 80
1, 13919, Note_on_c, 0, 81, 0
1, 13920, Note_on_c, 0, 73, 80
1, 14159, Note_on_c, 0, 73, 0
1, 14400, Note_on_c, 0, 70, 80
1, 14639, Note_on_c, 0, 70, 0
1, 14640, Note_on_c, 0, 71, 80
1, 14879, Note_on_c, 0, 71, 0
1, 14880, Note_on_c, 0, 75, 80
1, 15039, Note_on_c, 0, 75, 0
1, 15040, Note_on_c, 0, 73, 80
1, 15119, Note_on_c, 0, 73, 0
1, 15120, Note_on_c, 0, 71, 80
1, 15359, Note_on_c, 0, 71, 0
1, 15360, Note_on_c, 0, 81, 80
1, 15599, Note_on_c, 0, 81, 0
1, 15600, Note_on_c, 0, 80, 80
1, 15919, Note_on_c, 0, 80, 0
1, 15920, Note_on_c, 0, 78, 80
1, 16079, Note_on_c, 0, 78, 0
1, 16080, Note_on_c, 0, 76, 80
1, 16239, Note_on_c, 0, 76, 0
1, 16240, Note_on_c, 0, 75, 80
1, 16319, Note_on_c, 0, 75, 0
1, 16320, Note_on_c, 0, 73, 80
1, 16479, Note_on_c, 0, 73, 0
1, 16480, Note_on_c, 0, 76, 80
1, 16559, Note_on_c, 0, 76, 0
1, 16560, Note_on_c, 0, 69, 80
1, 16799, Note_on_c, 0, 69, 0
1, 16800, Note_on_c, 0, 81, 80
1, 17039, Note_on_c, 0, 81, 0
1, 17040, Note_on_c, 0, 78, 80
1, 17279, Note_on_c, 0, 78, 0
1, 17280, Note_on_c, 0, 75, 80
1, 17519, Note_on_c, 0, 75, 0
1, 17520, Note_on_c, 0, 72, 80
1, 17839, Note_on_c, 0, 72, 0
1, 17840, Note_on_c, 0, 73, 80
1, 17919, Note_on_c, 0, 73, 0
1, 17920, Note_on_c, 0, 75, 80
1, 17999, Note_on_c, 0, 75, 0
1, 18000, Note_on_c, 0, 68, 80
1, 18159, Note_on_c, 0, 68, 0
1, 18160, Note_on_c, 0, 75, 80
1, 18239, Note_on_c, 0, 75, 0
1, 18240, Note_on_c, 0, 76, 80
1, 18399, Note_on_c, 0, 76, 0
1, 18400, Note_on_c, 0, 78, 80
1, 18479, Note_on_c, 0, 78, 0
1, 18480, Note_on_c, 0, 80, 80
1, 18799, Note_on_c, 0, 80, 0
1, 18800, Note_on_c, 0, 78, 80
1, 18959, Note_on_c, 0, 78, 0
1, 18960, Note_on_c, 0, 76, 80
1, 19039, Note_on_c, 0, 76, 0
1, 19040, Note_on_c, 0, 75, 80
1, 19119, Note_on_c, 0, 75, 0
1, 19120, Note_on_c, 0, 73, 80
1, 19199, Note_on_c, 0, 73, 0
1, 19200, Note_on_c, 0, 75, 80
1, 19359, Note_on_c, 0, 75, 0
1, 19360, Note_on_c, 0, 81, 80
1, 19439, Note_on_c, 0, 81, 0
1, 19440, Note_on_c, 0, 80, 80
1, 19519, Note_on_c, 0, 80, 0
1, 19520, Note_on_c, 0, 78, 80
1, 19599, Note_on_c, 0, 78, 0
1, 19600, Note_on_c, 0, 76, 80
1, 19679, Note_on_c, 0, 76, 0
1, 19680, Note_on_c, 0, 78, 80
1, 19759, Note_on_c, 0, 78, 0
1, 19760, Note_on_c, 0, 72, 80
1, 19839, Note_on_c, 0, 72, 0
1, 19840, Note_on_c, 0, 75, 80
1, 19919, Note_on_c, 0, 75, 0
1, 19920, Note_on_c, 0, 78, 80
1, 19999, Note_on_c, 0, 78, 0
1, 20000, Note_on_c, 0, 76, 80
1, 20079, Note_on_c, 0, 76, 0
1, 20080, Note_on_c, 0, 75, 80
1, 20319, Note_on_c, 0, 75, 0
1, 20320, Note_on_c, 0, 76, 80
1, 20399, Note_on_c, 0, 76, 0
1, 20400, Note_on_c, 0, 75, 80
1, 20479, Note_on_c, 0, 75, 0
1, 20480, Note_on_c, 0, 76, 80
1, 20559, Note_on_c, 0, 76, 0
1, 20560, Note_on_c, 0, 78, 80
1, 20639, Note_on_c, 0, 78, 0
1, 20640, Note_on_c, 0, 76, 80
1, 20719, Note_on_c, 0, 76, 0
1, 20720, Note_on_c, 0, 73, 80
1, 20799, Note_on_c, 0, 73, 0
1, 20800, Note_on_c, 0, 68, 80
1, 20879, Note_on_c, 0, 68, 0
1, 20880, Note_on_c, 0, 70, 80
1, 20959, Note_on_c, 0, 70, 0
1, 20960, Note_on_c, 0, 72, 80
1, 21039, Note_on_c, 0, 72, 0
1, 21040, Note_on_c, 0, 73, 80
1, 21119, Note_on_c, 0, 73, 0
1, 21120, Note_on_c, 0, 72, 80
1, 21199, Note_on_c, 0, 72, 0
1, 21200, Note_on_c, 0, 73, 80
1, 21279, Note_on_c, 0, 73, 0
1, 21280, Note_on_c, 0, 75, 80
1, 21359, Note_on_c, 0, 75, 0
1, 21360, Note_on_c, 0, 73, 80
1, 21599, Note_on_c, 0, 73, 0
1, 21600, Note_on_c, 0, 76, 80
1, 21839, Note_on_c, 0, 76, 0
1, 21840, Note_on_c, 0, 73, 80
1, 22079, Note_on_c, 0, 73, 0
1, 22080, Note_on_c, 0, 68, 80
1, 22319, Note_on_c, 0, 68, 0
1, 22320, Note_on_c, 0, 69, 80
1, 22479, Note_on_c, 0, 69, 0
1, 22480, Note_on_c, 0, 73, 80
1, 22559, Note_on_c, 0, 73, 0
1, 22560, Note_on_c, 0, 78, 80
1, 22719, Note_on_c, 0, 78, 0
1, 22720, Note_on_c, 0, 73, 80
1, 22799, Note_on_c, 0, 73, 0
1, 22800, Note_on_c, 0, 69, 80
1, 22959, Note_on_c, 0, 69, 0
1, 22960, Note_on_c, 0, 66, 80
1, 23039, Note_on_c, 0, 66, 0
1, 23040, Note_on_c, 0, 68, 80
1, 23199, Note_on_c, 0, 68, 0
1, 23200, Note_on_c, 0, 70, 80
1, 23279, Note_on_c, 0, 70, 0
1, 23280, Note_on_c, 0, 71, 80
1, 23519, Note_on_c, 0, 71, 0
1, 23520, Note_on_c, 0, 74, 80
1, 23759, Note_on_c, 0, 74, 0
1, 23760, Note_on_c, 0, 71, 80
1, 23999, Note_on_c, 0, 71, 0
1, 24000, Note_on_c, 0, 66, 80
1, 24239, Note_on_c, 0, 66, 0
1, 24240, Note_on_c, 0, 68, 80
1, 24399, Note_on_c, 0, 68, 0
1, 24400, Note_on_c, 0, 71, 80
1, 24479, Note_on_c, 0, 71, 0
1, 24480, Note_on_c, 0, 76, 80
1, 24639, Note_on_c, 0, 76, 0
1, 24640, Note_on_c, 0, 71, 80
1, 24719, Note_on_c, 0, 71, 0
1, 24720, Note_on_c, 0, 68, 80
1, 24879, Note_on_c, 0, 68, 0
1, 24880, Note_on_c, 0, 64, 80
1, 24959, Note_on_c, 0, 64, 0
1, 24960, Note_on_c, 0, 66, 80
1, 25119, Note_on_c, 0, 66, 0
1, 25120, Note_on_c, 0, 68, 80
1, 25199, Note_on_c, 0, 68, 0
1, 25200, Note_on_c, 0, 69, 80
1, 25439, Note_on_c, 0, 69, 0
1, 25440, Note_on_c, 0, 81, 80
1, 25759, Note_on_c, 0, 81, 0
1, 25760, Note_on_c, 0, 79, 80
1, 25839, Note_on_c, 0, 79, 0
1, 25840, Note_on_c, 0, 78, 80
1, 25919, Note_on_c, 0, 78, 0
1, 25920, Note_on_c, 0, 79, 80
1, 25999, Note_on_c, 0, 79, 0
1, 26000, Note_on_c, 0, 78, 80
1, 26079, Note_on_c, 0, 78, 0
1, 26080, Note_on_c, 0, 76, 80
1, 26159, Note_on_c, 0, 76, 0
1, 26160, Note_on_c, 0, 78, 80
1, 26239, Note_on_c, 0, 78, 0
1, 26240, Note_on_c, 0, 76, 80
1, 26319, Note_on_c, 0, 76, 0
1, 26320, Note_on_c, 0, 74, 80
1, 26399, Note_on_c, 0, 74, 0
1, 26400, Note_on_c, 0, 76, 80
1, 26719, Note_on_c, 0, 76, 0
1, 26720, Note_on_c, 0, 74, 80
1, 26799, Note_on_c, 0, 74, 0
1, 26800, Note_on_c, 0, 73, 80
1, 26879, Note_on_c, 0, 73, 0
1, 26880, Note_on_c, 0, 74, 80
1, 26959, Note_on_c, 0, 74, 0
1, 26960, Note_on_c, 0, 73, 80
1, 27039, Note_on_c, 0, 73, 0
1, 27040, Note_on_c, 0, 71, 80
1, 27119, Note_on_c, 0, 71, 0
1, 27120, Note_on_c, 0, 71, 80
1, 27359, Note_on_c, 0, 71, 0
1, 27360, Note_on_c, 0, 76, 80
1, 27599, Note_on_c, 0, 76, 0
1, 27600, Note_on_c, 0, 73, 80
1, 27839, Note_on_c, 0, 73, 0
1, 27840, Note_on_c, 0, 68, 80
1, 28079, Note_on_c, 0, 68, 0
1, 28080, Note_on_c, 0, 69, 80
1, 30479, Note_on_c, 0, 69, 0
1, 30720, Note_on_c, 0, 69, 80
1, 30959, Note_on_c, 0, 69, 0
1, 30960, Note_on_c, 0, 64, 80
1, 31199, Note_on_c, 0, 64, 0
1, 31200, Note_on_c, 0, 76, 80
1, 31519, Note_on_c, 0, 76, 0
1, 31520, Note_on_c, 0, 74, 80
1, 31599, Note_on_c, 0, 74, 0
1, 31600, Note_on_c, 0, 73, 80
1, 31679, Note_on_c, 0, 73, 0
1, 31680, Note_on_c, 0, 74, 80
1, 31759, Note_on_c, 0, 74, 0
1, 31760, Note_on_c, 0, 73, 80
1, 31839, Note_on_c, 0, 73, 0
1, 31840, Note_on_c, 0, 71, 80
1, 31919, Note_on_c, 0, 71, 0
1, 31920, Note_on_c, 0, 73, 80
1, 31999, Note_on_c, 0, 73, 0
1, 32000, Note_on_c, 0, 71, 80
1, 32079, Note_on_c, 0, 71, 0
1, 32080, Note_on_c, 0, 69, 80
1, 32159, Note_on_c, 0, 69, 0
1, 32160, Note_on_c, 0, 71, 80
1, 32479, Note_on_c, 0, 71, 0
1, 32480, Note_on_c, 0, 69, 80
1, 32559, Note_on_c, 0, 69, 0
1, 32560, Note_on_c, 0, 68, 80
1, 32639, Note_on_c, 0, 68, 0
1, 32640, Note_on_c, 0, 69, 80
1, 32719, Note_on_c, 0, 69, 0
1, 32720, Note_on_c, 0, 68, 80
1, 32799, Note_on_c, 0, 68, 0
1, 32800, Note_on_c, 0, 66, 80
1, 32879, Note_on_c, 0, 66, 0
1, 32880, Note_on_c, 0, 68, 80
1, 32959, Note_on_c, 0, 68, 0
1, 32960, Note_on_c, 0, 69, 80
1, 33039, Note_on_c, 0, 69, 0
1, 33040, Note_on_c, 0, 71, 80
1, 33119, Note_on_c, 0, 71, 0
1, 33120, Note_on_c, 0, 69, 80
1, 33439, Note_on_c, 0, 69, 0
1, 33440, Note_on_c, 0, 71, 80
1, 33519, Note_on_c, 0, 71, 0
1, 33520, Note_on_c, 0, 73, 80
1, 33599, Note_on_c, 0, 73, 0
1, 33600, Note_on_c, 0, 71, 80
1, 33679, Note_on_c, 0, 71, 0
1, 33680, Note_on_c, 0, 73, 80
1, 33759, Note_on_c, 0, 73, 0
1, 33760, Note_on_c, 0, 74, 80
1, 33839, Note_on_c, 0, 74, 0
1, 33840, Note_on_c, 0, 73, 80
1, 33999, Note_on_c, 0, 73, 0
1, 34000, Note_on_c, 0, 69, 80
1, 34079, Note_on_c, 0, 69, 0
1, 34080, Note_on_c, 0, 64, 80
1, 34239, Note_on_c, 0, 64, 0
1, 34240, Note_on_c, 0, 69, 80
1, 34319, Note_on_c, 0, 69, 0
1, 34320, Note_on_c, 0, 73, 80
1, 34479, Note_on_c, 0, 73, 0
1, 34480, Note_on_c, 0, 74, 80
1, 34559, Note_on_c, 0, 74, 0
1, 34560, Note_on_c, 0, 73, 80
1, 34719, Note_on_c, 0, 73, 0
1, 34720, Note_on_c, 0, 71, 80
1, 34799, Note_on_c, 0, 71, 0
1, 34800, Note_on_c, 0, 69, 80
1, 34879, Note_on_c, 0, 69, 0
1, 34880, Note_on_c, 0, 66, 80
1, 34959, Note_on_c, 0, 66, 0
1, 34960, Note_on_c, 0, 68, 80
1, 35039, Note_on_c, 0, 68, 0
1, 35040, Note_on_c, 0, 69, 80
1, 35119, Note_on_c, 0, 69, 0
1, 35120, Note_on_c, 0, 71, 80
1, 35199, Note_on_c, 0, 71, 0
1, 35200, Note_on_c, 0, 73, 80
1, 35279, Note_on_c, 0, 73, 0
1, 35280, Note_on_c, 0, 74, 80
1, 35439, Note_on_c, 0, 74, 0
1, 35440, Note_on_c, 0, 73, 80
1, 35519, Note_on_c, 0, 73, 0
1, 35520, Note_on_c, 0, 71, 80
1, 35679, Note_on_c, 0, 71, 0
1, 35680, Note_on_c, 0, 74, 80
1, 35759, Note_on_c, 0, 74, 0
1, 35760, Note_on_c, 0, 73, 80
1, 35839, Note_on_c, 0, 73, 0
1, 35840, Note_on_c, 0, 74, 80
1, 35919, Note_on_c, 0, 74, 0
1, 35920, Note_on_c, 0, 76, 80
1, 35999, Note_on_c, 0, 76, 0
1, 36000, Note_on_c, 0, 74, 80
1, 36079, Note_on_c, 0, 74, 0
1, 36080, Note_on_c, 0, 78, 80
1, 36159, Note_on_c, 0, 78, 0
1, 36160, Note_on_c, 0, 74, 80
1, 36239, Note_on_c, 0, 74, 0
1, 36240, Note_on_c, 0, 71, 80
1, 36319, Note_on_c, 0, 71, 0
1, 36320, Note_on_c, 0, 70, 80
1, 36399, Note_on_c, 0, 70, 0
1, 36400, Note_on_c, 0, 68, 80
1, 36479, Note_on_c, 0, 68, 0
1, 36480, Note_on_c, 0, 70, 80
1, 36559, Note_on_c, 0, 70, 0
1, 36560, Note_on_c, 0, 71, 80
1, 36639, Note_on_c, 0, 71, 0
1, 36640, Note_on_c, 0, 73, 80
1, 36719, Note_on_c, 0, 73, 0
1, 36720, Note_on_c, 0, 71, 80
1, 36799, Note_on_c, 0, 71, 0
1, 36800, Note_on_c, 0, 69, 80
1, 36879, Note_on_c, 0, 69, 0
1, 36880, Note_on_c, 0, 68, 80
1, 36959, Note_on_c, 0, 68, 0
1, 36960, Note_on_c, 0, 69, 80
1, 37039, Note_on_c, 0, 69, 0
1, 37040, Note_on_c, 0, 66, 80
1, 37119, Note_on_c, 0, 66, 0
1, 37120, Note_on_c, 0, 68, 80
1, 37199, Note_on_c, 0, 68, 0
1, 37200, Note_on_c, 0, 69, 80
1, 37279, Note_on_c, 0, 69, 0
1, 37280, Note_on_c, 0, 71, 80
1, 37359, Note_on_c, 0, 71, 0
1, 37360, Note_on_c, 0, 73, 80
1, 37439, Note_on_c, 0, 73, 0
1, 37440, Note_on_c, 0, 74, 80
1, 37519, Note_on_c, 0, 74, 0
1, 37520, Note_on_c, 0, 73, 80
1, 37599, Note_on_c, 0, 73, 0
1, 37600, Note_on_c, 0, 71, 80
1, 37679, Note_on_c, 0, 71, 0
1, 37680, Note_on_c, 0, 73, 80
1, 37759, Note_on_c, 0, 73, 0
1, 37760, Note_on_c, 0, 66, 80
1, 37839, Note_on_c, 0, 66, 0
1, 37840, Note_on_c, 0, 69, 80
1, 37919, Note_on_c, 0, 69, 0
1, 37920, Note_on_c, 0, 73, 80
1, 37999, Note_on_c, 0, 73, 0
1, 38000, Note_on_c, 0, 69, 80
1, 38079, Note_on_c, 0, 69, 0
1, 38080, Note_on_c, 0, 73, 80
1, 38159, Note_on_c, 0, 73, 0
1, 38160, Note_on_c, 0, 78, 80
1, 38319, Note_on_c, 0, 78, 0
1, 38320, Note_on_c, 0, 77, 80
1, 38399, Note_on_c, 0, 77, 0
1, 38400, Note_on_c, 0, 78, 80
1, 38559, Note_on_c, 0, 78, 0
1, 38560, Note_on_c, 0, 80, 80
1, 38639, Note_on_c, 0, 80, 0
1, 38640, Note_on_c, 0, 81, 80
1, 38799, Note_on_c, 0, 81, 0
1, 38800, Note_on_c, 0, 78, 80
1, 38879, Note_on_c, 0, 78, 0
1, 38880, Note_on_c, 0, 73, 80
1, 39039, Note_on_c, 0, 73, 0
1, 39040, Note_on_c, 0, 78, 80
1, 39119, Note_on_c, 0, 78, 0
1, 39120, Note_on_c, 0, 81, 80
1, 39279, Note_on_c, 0, 81, 0
1, 39280, Note_on_c, 0, 83, 80
1, 39359, Note_on_c, 0, 83, 0
1, 39360, Note_on_c, 0, 81, 80
1, 39519, Note_on_c, 0, 81, 0
1, 39520, Note_on_c, 0, 80, 80
1, 39599, Note_on_c, 0, 80, 0
1, 39600, Note_on_c, 0, 78, 80
1, 39839, Note_on_c, 0, 78, 0
1, 39840, Note_on_c, 0, 75, 80
1, 40079, Note_on_c, 0, 75, 0
1, 40080, Note_on_c, 0, 78, 80
1, 40319, Note_on_c, 0, 78, 0
1, 40320, Note_on_c, 0, 81, 80
1, 40559, Note_on_c, 0, 81, 0
1, 40560, Note_on_c, 0, 80, 80
1, 40719, Note_on_c, 0, 80, 0
1, 40720, Note_on_c, 0, 76, 80
1, 40799, Note_on_c, 0, 76, 0
1, 40800, Note_on_c, 0, 71, 80
1, 40959, Note_on_c, 0, 71, 0
1, 40960, Note_on_c, 0, 76, 80
1, 41039, Note_on_c, 0, 76, 0
1, 41040, Note_on_c, 0, 80, 80
1, 41199, Note_on_c, 0, 80, 0
1, 41200, Note_on_c, 0, 81, 80
1, 41279, Note_on_c, 0, 81, 0
1, 41280, Note_on_c, 0, 80, 80
1, 41439, Note_on_c, 0, 80, 0
1, 41440, Note_on_c, 0, 78, 80
1, 41519, Note_on_c, 0, 78, 0
1, 41520, Note_on_c, 0, 76, 80
1, 41759, Note_on_c, 0, 76, 0
1, 41760, Note_on_c, 0, 73, 80
1, 41999, Note_on_c, 0, 73, 0
1, 42000, Note_on_c, 0, 76, 80
1, 42239, Note_on_c, 0, 76, 0
1, 42240, Note_on_c, 0, 80, 80
1, 42479, Note_on_c, 0, 80, 0
1, 42480, Note_on_c, 0, 78, 80
1, 42719, Note_on_c, 0, 78, 0
1, 42720, Note_on_c, 0, 73, 80
1, 42959, Note_on_c, 0, 73, 0
1, 42960, Note_on_c, 0, 72, 80
1, 43199, Note_on_c, 0, 72, 0
1, 43560, Note_on_c, 0, 72, 80
1, 43619, Note_on_c, 0, 72, 0
1, 43620, Note_on_c, 0, 73, 80
1, 43679, Note_on_c, 0, 73, 0
1, 43680, Note_on_c, 0, 75, 80
1, 43739, Note_on_c, 0, 75, 0
1, 43740, Note_on_c, 0, 76, 80
1, 43799, Note_on_c, 0, 76, 0
1, 43800, Note_on_c, 0, 78, 80
1, 43859, Note_on_c, 0, 78, 0
1, 43860, Note_on_c, 0, 80, 80
1, 43919, Note_on_c, 0, 80, 0
1, 43920, Note_on_c, 0, 81, 80
1, 44159, Note_on_c, 0, 81, 0
1, 44480, Note_on_c, 0, 75, 80
1, 44559, Note_on_c, 0, 75, 0
1, 44560, Note_on_c, 0, 80, 80
1, 44639, Note_on_c, 0, 80, 0
1, 44640, Note_on_c, 0, 78, 80
1, 44719, Note_on_c, 0, 78, 0
1, 44720, Note_on_c, 0, 76, 80
1, 44799, Note_on_c, 0, 76, 0
1, 44800, Note_on_c, 0, 75, 80
1, 44879, Note_on_c, 0, 75, 0
1, 44880, Note_on_c, 0, 76, 80
1, 44959, Note_on_c, 0, 76, 0
1, 44960, Note_on_c, 0, 75, 80
1, 45039, Note_on_c, 0, 75, 0
1, 45040, Note_on_c, 0, 73, 80
1, 45119, Note_on_c, 0, 73, 0
1, 45120, Note_on_c, 0, 72, 80
1, 45199, Note_on_c, 0, 72, 0
1, 45200, Note_on_c, 0, 73, 80
1, 45279, Note_on_c, 0, 73, 0
1, 45280, Note_on_c, 0, 75, 80
1, 45359, Note_on_c, 0, 75, 0
1, 45360, Note_on_c, 0, 76, 80
1, 45599, Note_on_c, 0, 76, 0
1, 46080, Note_on_c, 0, 69, 80
1, 46319, Note_on_c, 0, 69, 0
1, 46320, Note_on_c, 0, 68, 80
1, 46399, Note_on_c, 0, 68, 0
1, 46400, Note_on_c, 0, 66, 80
1, 46479, Note_on_c, 0, 66, 0
1, 46480, Note_on_c, 0, 64, 80
1, 46559, Note_on_c, 0, 64, 0
1, 46560, Note_on_c, 0, 66, 80
1, 46639, Note_on_c, 0, 66, 0
1, 46640, Note_on_c, 0, 68, 80
1, 46719, Note_on_c, 0, 68, 0
1, 46720, Note_on_c, 0, 64, 80
1, 46799, Note_on_c, 0, 64, 0
1, 46800, Note_on_c, 0, 66, 80
1, 46859, Note_on_c, 0, 66, 0
1, 46860, Note_on_c, 0, 64, 80
1, 46919, Note_on_c, 0, 64, 0
1, 46920, Note_on_c, 0, 63, 80
1, 47159, Note_on_c, 0, 63, 0
1, 47160, Note_on_c, 0, 64, 80
1, 47279, Note_on_c, 0, 64, 0
1, 47280, Note_on_c, 0, 63, 80
1, 47519, Note_on_c, 0, 63, 0
1, 48000, Note_on_c, 0, 75, 80
1, 48239, Note_on_c, 0, 75, 0
1, 48240, Note_on_c, 0, 68, 80
1, 48479, Note_on_c, 0, 68, 0
1, 48960, Note_on_c, 0, 68, 80
1, 49199, Note_on_c, 0, 68, 0
1, 49200, Note_on_c, 0, 69, 80
1, 49359, Note_on_c, 0, 69, 0
1, 49360, Note_on_c, 0, 73, 80
1, 49439, Note_on_c, 0, 73, 0
1, 49440, Note_on_c, 0, 78, 80
1, 49599, Note_on_c, 0, 78, 0
1, 49600, Note_on_c, 0, 73, 80
1, 49679, Note_on_c, 0, 73, 0
1, 49680, Note_on_c, 0, 69, 80
1, 49839, Note_on_c, 0, 69, 0
1, 49840, Note_on_c, 0, 66, 80
1, 49919, Note_on_c, 0, 66, 0
1, 49920, Note_on_c, 0, 68, 80
1, 50079, Note_on_c, 0, 68, 0
1, 50080, Note_on_c, 0, 69, 80
1, 50159, Note_on_c, 0, 69, 0
1, 50160, Note_on_c, 0, 63, 80
1, 50399, Note_on_c, 0, 63, 0
1, 50880, Note_on_c, 0, 70, 80
1, 51119, Note_on_c, 0, 70, 0
1, 51120, Note_on_c, 0, 71, 80
1, 51279, Note_on_c, 0, 71, 0
1, 51280, Note_on_c, 0, 75, 80
1, 51359, Note_on_c, 0, 75, 0
1, 51360, Note_on_c, 0, 80, 80
1, 51519, Note_on_c, 0, 80, 0
1, 51520, Note_on_c, 0, 75, 80
1, 51599, Note_on_c, 0, 75, 0
1, 51600, Note_on_c, 0, 71, 80
1, 51759, Note_on_c, 0, 71, 0
1, 51760, Note_on_c, 0, 68, 80
1, 51839, Note_on_c, 0, 68, 0
1, 51840, Note_on_c, 0, 69, 80
1, 51999, Note_on_c, 0, 69, 0
1, 52000, Note_on_c, 0, 71, 80
1, 52079, Note_on_c, 0, 71, 0
1, 52080, Note_on_c, 0, 64, 80
1, 52319, Note_on_c, 0, 64, 0
1, 52800, Note_on_c, 0, 71, 80
1, 53039, Note_on_c, 0, 71, 0
1, 53040, Note_on_c, 0, 73, 80
1, 53199, Note_on_c, 0, 73, 0
1, 53200, Note_on_c, 0, 76, 80
1, 53279, Note_on_c, 0, 76, 0
1, 53280, Note_on_c, 0, 81, 80
1, 53439, Note_on_c, 0, 81, 0
1, 53440, Note_on_c, 0, 76, 80
1, 53519, Note_on_c, 0, 76, 0
1, 53520, Note_on_c, 0, 73, 80
1, 53679, Note_on_c, 0, 73, 0
1, 53680, Note_on_c, 0, 69, 80
1, 53759, Note_on_c, 0, 69, 0
1, 53760, Note_on_c, 0, 71, 80
1, 53919, Note_on_c, 0, 71, 0
1, 53920, Note_on_c, 0, 73, 80
1, 53999, Note_on_c, 0, 73, 0
1, 54000, Note_on_c, 0, 66, 80
1, 54239, Note_on_c, 0, 66, 0
1, 54720, Note_on_c, 0, 73, 80
1, 54959, Note_on_c, 0, 73, 0
1, 54960, Note_on_c, 0, 72, 80
1, 55199, Note_on_c, 0, 72, 0
1, 55600, Note_on_c, 0, 78, 80
1, 55679, Note_on_c, 0, 78, 0
1, 55680, Note_on_c, 0, 76, 80
1, 55839, Note_on_c, 0, 76, 0
1, 55840, Note_on_c, 0, 75, 80
1, 55919, Note_on_c, 0, 75, 0
1, 55920, Note_on_c, 0, 81, 80
1, 56399, Note_on_c, 0, 81, 0
1, 56720, Note_on_c, 0, 81, 80
1, 56799, Note_on_c, 0, 81, 0
1, 56800, Note_on_c, 0, 72, 80
1, 56879, Note_on_c, 0, 72, 0
1, 56880, Note_on_c, 0, 73, 80
1, 57199, Note_on_c, 0, 73, 0
1, 57200, Note_on_c, 0, 75, 80
1, 57279, Note_on_c, 0, 75, 0
1, 57280, Note_on_c, 0, 76, 80
1, 57359, Note_on_c, 0, 76, 0
1, 57360, Note_on_c, 0, 76, 80
1, 57419, Note_on_c, 0, 76, 0
1, 57420, Note_on_c, 0, 75, 80
1, 57479, Note_on_c, 0, 75, 0
1, 57480, Note_on_c, 0, 76, 80
1, 57539, Note_on_c, 0, 76, 0
1, 57540, Note_on_c, 0, 75, 80
1, 57679, Note_on_c, 0, 75, 0
1, 57680, Note_on_c, 0, 73, 80
1, 57759, Note_on_c, 0, 73, 0
1, 57760, Note_on_c, 0, 75, 80
1, 57839, Note_on_c, 0, 75, 0
1, 57840, Note_on_c, 0, 76, 80
1, 58159, Note_on_c, 0, 76, 0
1, 58160, Note_on_c, 0, 78, 80
1, 58239, Note_on_c, 0, 78, 0
1, 58240, Note_on_c, 0, 80, 80
1, 58319, Note_on_c, 0, 80, 0
1, 58320, Note_on_c, 0, 80, 80
1, 58379, Note_on_c, 0, 80, 0
1, 58380, Note_on_c, 0, 78, 80
1, 58439, Note_on_c, 0, 78, 0
1, 58440, Note_on_c, 0, 80, 80
1, 58499, Note_on_c, 0, 80, 0
1, 58500, Note_on_c, 0, 78, 80
1, 58639, Note_on_c, 0, 78, 0
1, 58640, Note_on_c, 0, 76, 80
1, 58719, Note_on_c, 0, 76, 0
1, 58720, Note_on_c, 0, 78, 80
1, 58799, Note_on_c, 0, 78, 0
1, 58800, Note_on_c, 0, 80, 80
1, 59839, Note_on_c, 0, 80, 0
1, 59840, Note_on_c, 0, 81, 80
1, 59919, Note_on_c, 0, 81, 0
1, 59920, Note_on_c, 0, 83, 80
1, 59999, Note_on_c, 0, 83, 0
1, 60000, Note_on_c, 0, 81, 80
1, 60079, Note_on_c, 0, 81, 0
1, 60080, Note_on_c, 0, 78, 80
1, 60159, Note_on_c, 0, 78, 0
1, 60160, Note_on_c, 0, 73, 80
1, 60239, Note_on_c, 0, 73, 0
1, 60240, Note_on_c, 0, 75, 80
1, 60319, Note_on_c, 0, 75, 0
1, 60320, Note_on_c, 0, 77, 80
1, 60399, Note_on_c, 0, 77, 0
1, 60400, Note_on_c, 0, 78, 80
1, 60479, Note_on_c, 0, 78, 0
1, 60480, Note_on_c, 0, 77, 80
1, 60559, Note_on_c, 0, 77, 0
1, 60560, Note_on_c, 0, 78, 80
1, 60639, Note_on_c, 0, 78, 0
1, 60640, Note_on_c, 0, 80, 80
1, 60719, Note_on_c, 0, 80, 0
1, 60720, Note_on_c, 0, 78, 80
1, 60799, Note_on_c, 0, 78, 0
1, 60800, Note_on_c, 0, 76, 80
1, 60879, Note_on_c, 0, 76, 0
1, 60880, Note_on_c, 0, 75, 80
1, 60959, Note_on_c, 0, 75, 0
1, 60960, Note_on_c, 0, 76, 80
1, 61039, Note_on_c, 0, 76, 0
1, 61040, Note_on_c, 0, 75, 80
1, 61119, Note_on_c, 0, 75, 0
1, 61120, Note_on_c, 0, 73, 80
1, 61199, Note_on_c, 0, 73, 0
1, 61200, Note_on_c, 0, 75, 80
1, 61439, Note_on_c, 0, 75, 0
1, 62400, Note_on_c, 0, 73, 80
1, 62639, Note_on_c, 0, 73, 0
1, 62640, Note_on_c, 0, 68, 80
1, 62879, Note_on_c, 0, 68, 0
1, 62880, Note_on_c, 0, 80, 80
1, 63199, Note_on_c, 0, 80, 0
1, 63200, Note_on_c, 0, 78, 80
1, 63279, Note_on_c, 0, 78, 0
1, 63280, Note_on_c, 0, 76, 80
1, 63359, Note_on_c, 0, 76, 0
1, 63360, Note_on_c, 0, 78, 80
1, 63439, Note_on_c, 0, 78, 0
1, 63440, Note_on_c, 0, 76, 80
1, 63519, Note_on_c, 0, 76, 0
1, 63520, Note_on_c, 0, 75, 80
1, 63599, Note_on_c, 0, 75, 0
1, 63600, Note_on_c, 0, 76, 80
1, 63679, Note_on_c, 0, 76, 0
1, 63680, Note_on_c, 0, 75, 80
1, 63759, Note_on_c, 0, 75, 0
1, 63760, Note_on_c, 0, 73, 80
1, 63839, Note_on_c, 0, 73, 0
1, 63840, Note_on_c, 0, 75, 80
1, 64159, Note_on_c, 0, 75, 0
1, 64160, Note_on_c, 0, 73, 80
1, 64239, Note_on_c, 0, 73, 0
1, 64240, Note_on_c, 0, 72, 80
1, 64319, Note_on_c, 0, 72, 0
1, 64320, Note_on_c, 0, 73, 80
1, 64399, Note_on_c, 0, 73, 0
1, 64400, Note_on_c, 0, 72, 80
1, 64479, Note_on_c, 0, 72, 0
1, 64480, Note_on_c, 0, 70, 80
1, 64559, Note_on_c, 0, 70, 0
1, 64560, Note_on_c, 0, 72, 80
1, 64639, Note_on_c, 0, 72, 0
1, 64640, Note_on_c, 0, 73, 80
1, 64719, Note_on_c, 0, 73, 0
1, 64720, Note_on_c, 0, 75, 80
1, 64799, Note_on_c, 0, 75, 0
1, 64800, Note_on_c, 0, 73, 80
1, 65119, Note_on_c, 0, 73, 0
1, 65120, Note_on_c, 0, 75, 80
1, 65199, Note_on_c, 0, 75, 0
1, 65200, Note_on_c, 0, 76, 80
1, 65279, Note_on_c, 0, 76, 0
1, 65280, Note_on_c, 0, 75, 80
1, 65359, Note_on_c, 0, 75, 0
1, 65360, Note_on_c, 0, 76, 80
1, 65439, Note_on_c, 0, 76, 0
1, 65440, Note_on_c, 0, 78, 80
1, 65519, Note_on_c, 0, 78, 0
1, 65520, Note_on_c, 0, 76, 80
1, 65679, Note_on_c, 0, 76, 0
1, 65680, Note_on_c, 0, 73, 80
1, 65759, Note_on_c, 0, 73, 0
1, 65760, Note_on_c, 0, 68, 80
1, 65919, Note_on_c, 0, 68, 0
1, 65920, Note_on_c, 0, 73, 80
1, 65999, Note_on_c, 0, 73, 0
1, 66000, Note_on_c, 0, 76, 80
1, 66159, Note_on_c, 0, 76, 0
1, 66160, Note_on_c, 0, 78, 80
1, 66239, Note_on_c, 0, 78, 0
1, 66240, Note_on_c, 0, 76, 80
1, 66399, Note_on_c, 0, 76, 0
1, 66400, Note_on_c, 0, 75, 80
1, 66479, Note_on_c, 0, 75, 0
1, 66480, Note_on_c, 0, 73, 80
1, 66559, Note_on_c, 0, 73, 0
1, 66560, Note_on_c, 0, 71, 80
1, 66639, Note_on_c, 0, 71, 0
1, 66640, Note_on_c, 0, 69, 80
1, 66719, Note_on_c, 0, 69, 0
1, 66720, Note_on_c, 0, 71, 80
1, 67039, Note_on_c, 0, 71, 0
1, 67040, Note_on_c, 0, 69, 80
1, 67119, Note_on_c, 0, 69, 0
1, 67120, Note_on_c, 0, 68, 80
1, 67199, Note_on_c, 0, 68, 0
1, 67200, Note_on_c, 0, 69, 80
1, 67279, Note_on_c, 0, 69, 0
1, 67280, Note_on_c, 0, 71, 80
1, 67359, Note_on_c, 0, 71, 0
1, 67360, Note_on_c, 0, 73, 80
1, 67439, Note_on_c, 0, 73, 0
1, 67440, Note_on_c, 0, 68, 80
1, 68159, Note_on_c, 0, 68, 0
1, 69120, Note_on_c, 0, 73, 80
1, 69359, Note_on_c, 0, 73, 0
1, 69360, Note_on_c, 0, 68, 80
1, 69599, Note_on_c, 0, 68, 0
1, 69600, Note_on_c, 0, 80, 80
1, 69919, Note_on_c, 0, 80, 0
1, 69920, Note_on_c, 0, 78, 80
1, 69999, Note_on_c, 0, 78, 0
1, 70000, Note_on_c, 0, 76, 80
1, 70079, Note_on_c, 0, 76, 0
1, 70080, Note_on_c, 0, 78, 80
1, 70159, Note_on_c, 0, 78, 0
1, 70160, Note_on_c, 0, 76, 80
1, 70239, Note_on_c, 0, 76, 0
1, 70240, Note_on_c, 0, 75, 80
1, 70319, Note_on_c, 0, 75, 0
1, 70320, Note_on_c, 0, 76, 80
1, 70399, Note_on_c, 0, 76, 0
1, 70400, Note_on_c, 0, 75, 80
1, 70479, Note_on_c, 0, 75, 0
1, 70480, Note_on_c, 0, 73, 80
1, 70559, Note_on_c, 0, 73, 0
1, 70560, Note_on_c, 0, 75, 80
1, 70879, Note_on_c, 0, 75, 0
1, 70880, Note_on_c, 0, 73, 80
1, 70959, Note_on_c, 0, 73, 0
1, 70960, Note_on_c, 0, 72, 80
1, 71039, Note_on_c, 0, 72, 0
1, 71040, Note_on_c, 0, 73, 80
1, 71119, Note_on_c, 0, 73, 0
1, 71120, Note_on_c, 0, 72, 80
1, 71199, Note_on_c, 0, 72, 0
1, 71200, Note_on_c, 0, 70, 80
1, 71279, Note_on_c, 0, 70, 0
1, 71280, Note_on_c, 0, 72, 80
1, 71359, Note_on_c, 0, 72, 0
1, 71360, Note_on_c, 0, 73, 80
1, 71439, Note_on_c, 0, 73, 0
1, 71440, Note_on_c, 0, 75, 80
1, 71519, Note_on_c, 0, 75, 0
1, 71520, Note_on_c, 0, 73, 80
1, 71839, Note_on_c, 0, 73, 0
1, 71840, Note_on_c, 0, 75, 80
1, 71919, Note_on_c, 0, 75, 0
1, 71920, Note_on_c, 0, 76, 80
1, 71999, Note_on_c, 0, 76, 0
1, 72000, Note_on_c, 0, 75, 80
1, 72079, Note_on_c, 0, 75, 0
1, 72080, Note_on_c, 0, 76, 80
1, 72159, Note_on_c, 0, 76, 0
1, 72160, Note_on_c, 0, 78, 80
1, 72239, Note_on_c, 0, 78, 0
1, 72240, Note_on_c, 0, 76, 80
1, 72399, Note_on_c, 0, 76, 0
1, 72400, Note_on_c, 0, 73, 80
1, 72479, Note_on_c, 0, 73, 0
1, 72480, Note_on_c, 0, 68, 80
1, 72639, Note_on_c, 0, 68, 0
1, 72640, Note_on_c, 0, 73, 80
1, 72719, Note_on_c, 0, 73, 0
1, 72720, Note_on_c, 0, 76, 80
1, 72879, Note_on_c, 0, 76, 0
1, 72880, Note_on_c, 0, 78, 80
1, 72959, Note_on_c, 0, 78, 0
1, 72960, Note_on_c, 0, 76, 80
1, 73119, Note_on_c, 0, 76, 0
1, 73120, Note_on_c, 0, 75, 80
1, 73199, Note_on_c, 0, 75, 0
1, 73200, Note_on_c, 0, 73, 80
1, 73279, Note_on_c, 0, 73, 0
1, 73280, Note_on_c, 0, 78, 80
1, 73359, Note_on_c, 0, 78, 0
1, 73360, Note_on_c, 0, 75, 80
1, 73439, Note_on_c, 0, 75, 0
1, 73440, Note_on_c, 0, 76, 80
1, 73519, Note_on_c, 0, 76, 0
1, 73520, Note_on_c, 0, 78, 80
1, 73599, Note_on_c, 0, 78, 0
1, 73600, Note_on_c, 0, 80, 80
1, 73679, Note_on_c, 0, 80, 0
1, 73680, Note_on_c, 0, 81, 80
1, 73919, Note_on_c, 0, 81, 0
1, 73920, Note_on_c, 0, 72, 80
1, 74159, Note_on_c, 0, 72, 0
1, 74160, Note_on_c, 0, 73, 80
1, 74479, Note_on_c, 0, 73, 0
1, 74480, Note_on_c, 0, 75, 80
1, 74559, Note_on_c, 0, 75, 0
1, 74560, Note_on_c, 0, 76, 80
1, 74639, Note_on_c, 0, 76, 0
1, 74640, Note_on_c, 0, 75, 80
1, 75439, Note_on_c, 0, 75, 0
1, 75440, Note_on_c, 0, 76, 80
1, 75519, Note_on_c, 0, 76, 0
1, 75520, Note_on_c, 0, 78, 80
1, 75599, Note_on_c, 0, 78, 0
1, 75600, Note_on_c, 0, 76, 80
1, 75759, Note_on_c, 0, 76, 0
1, 75760, Note_on_c, 0, 68, 80
1, 75839, Note_on_c, 0, 68, 0
1, 75840, Note_on_c, 0, 70, 80
1, 75999, Note_on_c, 0, 70, 0
1, 76000, Note_on_c, 0, 72, 80
1, 76079, Note_on_c, 0, 72, 0
1, 76080, Note_on_c, 0, 73, 80
1, 76719, Note_on_c, 0, 73, 0
1, 76720, Note_on_c, 0, 72, 80
1, 76799, Note_on_c, 0, 72, 0
1, 76800, Note_on_c, 0, 73, 80
1, 76959, Note_on_c, 0, 73, 0
1, 76960, Note_on_c, 0, 75, 80
1, 77039, Note_on_c, 0, 75, 0
1, 77040, Note_on_c, 0, 76, 80
1, 77279, Note_on_c, 0, 76, 0
1, 77760, Note_on_c, 0, 77, 80
1, 77999, Note_on_c, 0, 77, 0
1, 78000, Note_on_c, 0, 78, 80
1, 78079, Note_on_c, 0, 78, 0
1, 78080, Note_on_c, 0, 77, 80
1, 78159, Note_on_c, 0, 77, 0
1, 78160, Note_on_c, 0, 75, 80
1, 78239, Note_on_c, 0, 75, 0
1, 78240, Note_on_c, 0, 77, 80
1, 78319, Note_on_c, 0, 77, 0
1, 78320, Note_on_c, 0, 78, 80
1, 78399, Note_on_c, 0, 78, 0
1, 78400, Note_on_c, 0, 75, 80
1, 78479, Note_on_c, 0, 75, 0
1, 78480, Note_on_c, 0, 77, 80
1, 78559, Note_on_c, 0, 77, 0
1, 78560, Note_on_c, 0, 78, 80
1, 78639, Note_on_c, 0, 78, 0
1, 78640, Note_on_c, 0, 80, 80
1, 78719, Note_on_c, 0, 80, 0
1, 78720, Note_on_c, 0, 81, 80
1, 78799, Note_on_c, 0, 81, 0
1, 78800, Note_on_c, 0, 80, 80
1, 78879, Note_on_c, 0, 80, 0
1, 78880, Note_on_c, 0, 78, 80
1, 78959, Note_on_c, 0, 78, 0
1, 78960, Note_on_c, 0, 80, 80
1, 79199, Note_on_c, 0, 80, 0
1, 79680, Note_on_c, 0, 77, 80
1, 79919, Note_on_c, 0, 77, 0
1, 79920, Note_on_c, 0, 78, 80
1, 80159, Note_on_c, 0, 78, 0
1, 80160, Note_on_c, 0, 81, 80
1, 80399, Note_on_c, 0, 81, 0
1, 80400, Note_on_c, 0, 78, 80
1, 80639, Note_on_c, 0, 78, 0
1, 80640, Note_on_c, 0, 73, 80
1, 80799, Note_on_c, 0, 73, 0
1, 80800, Note_on_c, 0, 71, 80
1, 80879, Note_on_c, 0, 71, 0
1, 80880, Note_on_c, 0, 69, 80
1, 81119, Note_on_c, 0, 69, 0
1, 81120, Note_on_c, 0, 73, 80
1, 81359, Note_on_c, 0, 73, 0
1, 81360, Note_on_c, 0, 69, 80
1, 81599, Note_on_c, 0, 69, 0
1, 81600, Note_on_c, 0, 66, 80
1, 81839, Note_on_c, 0, 66, 0
1, 81840, Note_on_c, 0, 68, 80
1, 82079, Note_on_c, 0, 68, 0
1, 82080, Note_on_c, 0, 80, 80
1, 82319, Note_on_c, 0, 80, 0
1, 83040, Note_on_c, 0, 75, 80
1, 83279, Note_on_c, 0, 75, 0
1, 83280, Note_on_c, 0, 71, 80
1, 83519, Note_on_c, 0, 71, 0
1, 83520, Note_on_c, 0, 68, 80
1, 83759, Note_on_c, 0, 68, 0
1, 83760, Note_on_c, 0, 69, 80
1, 83999, Note_on_c, 0, 69, 0
1, 84000, Note_on_c, 0, 81, 80
1, 84239, Note_on_c, 0, 81, 0
1, 87360, Note_on_c, 0, 80, 80
1, 87599, Note_on_c, 0, 80, 0
1, 87600, Note_on_c, 0, 85, 80
1, 87839, Note_on_c, 0, 85, 0
1, 87840, Note_on_c, 0, 73, 80
1, 88159, Note_on_c, 0, 73, 0
1, 88160, Note_on_c, 0, 75, 80
1, 88239, Note_on_c, 0, 75, 0
1, 88240, Note_on_c, 0, 76, 80
1, 88319, Note_on_c, 0, 76, 0
1, 88320, Note_on_c, 0, 75, 80
1, 88399, Note_on_c, 0, 75, 0
1, 88400, Note_on_c, 0, 76, 80
1, 88479, Note_on_c, 0, 76, 0
1, 88480, Note_on_c, 0, 78, 80
1, 88559, Note_on_c, 0, 78, 0
1, 88560, Note_on_c, 0, 76, 80
1, 88639, Note_on_c, 0, 76, 0
1, 88640, Note_on_c, 0, 78, 80
1, 88719, Note_on_c, 0, 78, 0
1, 88720, Note_on_c, 0, 80, 80
1, 88799, Note_on_c, 0, 80, 0
1, 88800, Note_on_c, 0, 78, 80
1, 89119, Note_on_c, 0, 78, 0
1, 89120, Note_on_c, 0, 80, 80
1, 89199, Note_on_c, 0, 80, 0
1, 89200, Note_on_c, 0, 81, 80
1, 89279, Note_on_c, 0, 81, 0
1, 89280, Note_on_c, 0, 80, 80
1, 89359, Note_on_c, 0, 80, 0
1, 89360, Note_on_c, 0, 81, 80
1, 89439, Note_on_c, 0, 81, 0
1, 89440, Note_on_c, 0, 83, 80
1, 89519, Note_on_c, 0, 83, 0
1, 89520, Note_on_c, 0, 81, 80
1, 89599, Note_on_c, 0, 81, 0
1, 89600, Note_on_c, 0, 80, 80
1, 89679, Note_on_c, 0, 80, 0
1, 89680, Note_on_c, 0, 78, 80
1, 89759, Note_on_c, 0, 78, 0
1, 89760, Note_on_c, 0, 80, 80
1, 90079, Note_on_c, 0, 80, 0
1, 90080, Note_on_c, 0, 78, 80
1, 90159, Note_on_c, 0, 78, 0
1, 90160, Note_on_c, 0, 76, 80
1, 90239, Note_on_c, 0, 76, 0
1, 90240, Note_on_c, 0, 78, 80
1, 90319, Note_on_c, 0, 78, 0
1, 90320, Note_on_c, 0, 76, 80
1, 90399, Note_on_c, 0, 76, 0
1, 90400, Note_on_c, 0, 75, 80
1, 90479, Note_on_c, 0, 75, 0
1, 90480, Note_on_c, 0, 76, 80
1, 90639, Note_on_c, 0, 76, 0
1, 90640, Note_on_c, 0, 80, 80
1, 90719, Note_on_c, 0, 80, 0
1, 90720, Note_on_c, 0, 85, 80
1, 90879, Note_on_c, 0, 85, 0
1, 90880, Note_on_c, 0, 80, 80
1, 90959, Note_on_c, 0, 80, 0
1, 90960, Note_on_c, 0, 76, 80
1, 91119, Note_on_c, 0, 76, 0
1, 91120, Note_on_c, 0, 75, 80
1, 91199, Note_on_c, 0, 75, 0
1, 91200, Note_on_c, 0, 77, 80
1, 91359, Note_on_c, 0, 77, 0
1, 91360, Note_on_c, 0, 79, 80
1, 91439, Note_on_c, 0, 79, 0
1, 91440, Note_on_c, 0, 80, 80
1, 91679, Note_on_c, 0, 80, 0
1, 91680, Note_on_c, 0, 78, 80
1, 91839, Note_on_c, 0, 78, 0
1, 91840, Note_on_c, 0, 76, 80
1, 91919, Note_on_c, 0, 76, 0
1, 91920, Note_on_c, 0, 75, 80
1, 92159, Note_on_c, 0, 75, 0
1, 92160, Note_on_c, 0, 77, 80
1, 92399, Note_on_c, 0, 77, 0
1, 92400, Note_on_c, 0, 78, 80
1, 92559, Note_on_c, 0, 78, 0
1, 92560, Note_on_c, 0, 82, 80
1, 92639, Note_on_c, 0, 82, 0
1, 92640, Note_on_c, 0, 87, 80
1, 92799, Note_on_c, 0, 87, 0
1, 92800, Note_on_c, 0, 82, 80
1, 92879, Note_on_c, 0, 82, 0
1, 92880, Note_on_c, 0, 78, 80
1, 93039, Note_on_c, 0, 78, 0
1, 93040, Note_on_c, 0, 77, 80
1, 93119, Note_on_c, 0, 77, 0
1, 93120, Note_on_c, 0, 78, 80
1, 93279, Note_on_c, 0, 78, 0
1, 93280, Note_on_c, 0, 80, 80
1, 93359, Note_on_c, 0, 80, 0
1, 93360, Note_on_c, 0, 82, 80
1, 93599, Note_on_c, 0, 82, 0
1, 93600, Note_on_c, 0, 80, 80
1, 93759, Note_on_c, 0, 80, 0
1, 93760, Note_on_c, 0, 78, 80
1, 93839, Note_on_c, 0, 78, 0
1, 93840, Note_on_c, 0, 77, 80
1, 94079, Note_on_c, 0, 77, 0
1, 94080, Note_on_c, 0, 79, 80
1, 94319, Note_on_c, 0, 79, 0
1, 94320, Note_on_c, 0, 80, 80
1, 94479, Note_on_c, 0, 80, 0
1, 94480, Note_on_c, 0, 82, 80
1, 94559, Note_on_c, 0, 82, 0
1, 94560, Note_on_c, 0, 83, 80
1, 94719, Note_on_c, 0, 83, 0
1, 94720, Note_on_c, 0, 81, 80
1, 94799, Note_on_c, 0, 81, 0
1, 94800, Note_on_c, 0, 80, 80
1, 94959, Note_on_c, 0, 80, 0
1, 94960, Note_on_c, 0, 78, 80
1, 95039, Note_on_c, 0, 78, 0
1, 95040, Note_on_c, 0, 76, 80
1, 95199, Note_on_c, 0, 76, 0
1, 95200, Note_on_c, 0, 80, 80
1, 95279, Note_on_c, 0, 80, 0
1, 95280, Note_on_c, 0, 78, 80
1, 95599, Note_on_c, 0, 78, 0
1, 95600, Note_on_c, 0, 80, 80
1, 95679, Note_on_c, 0, 80, 0
1, 95680, Note_on_c, 0, 81, 80
1, 95759, Note_on_c, 0, 81, 0
1, 95760, Note_on_c, 0, 80, 80
1, 95839, Note_on_c, 0, 80, 0
1, 95840, Note_on_c, 0, 81, 80
1, 95919, Note_on_c, 0, 81, 0
1, 95920, Note_on_c, 0, 83, 80
1, 95999, Note_on_c, 0, 83, 0
1, 96000, Note_on_c, 0, 81, 80
1, 96079, Note_on_c, 0, 81, 0
1, 96080, Note_on_c, 0, 83, 80
1, 96159, Note_on_c, 0, 83, 0
1, 96160, Note_on_c, 0, 85, 80
1, 96239, Note_on_c, 0, 85, 0
1, 96240, Note_on_c, 0, 83, 80
1, 96319, Note_on_c, 0, 83, 0
1, 96320, Note_on_c, 0, 71, 80
1, 96399, Note_on_c, 0, 71, 0
1, 96400, Note_on_c, 0, 69, 80
1, 96479, Note_on_c, 0, 69, 0
1, 96480, Note_on_c, 0, 68, 80
1, 96559, Note_on_c, 0, 68, 0
1, 96560, Note_on_c, 0, 69, 80
1, 96639, Note_on_c, 0, 69, 0
1, 96640, Note_on_c, 0, 69, 80
1, 96719, Note_on_c, 0, 69, 0
1, 96720, Note_on_c, 0, 76, 80
1, 97279, Note_on_c, 0, 76, 0
1, 97280, Note_on_c, 0, 75, 80
1, 97359, Note_on_c, 0, 75, 0
1, 97360, Note_on_c, 0, 73, 80
1, 97439, Note_on_c, 0, 73, 0
1, 97440, Note_on_c, 0, 75, 80
1, 97519, Note_on_c, 0, 75, 0
1, 97520, Note_on_c, 0, 76, 80
1, 97599, Note_on_c, 0, 76, 0
1, 97600, Note_on_c, 0, 73, 80
1, 97679, Note_on_c, 0, 73, 0
1, 97680, Note_on_c, 0, 75, 80
1, 97919, Note_on_c, 0, 75, 0
1, 97920, Note_on_c, 0, 80, 80
1, 98159, Note_on_c, 0, 80, 0
1, 98160, Note_on_c, 0, 78, 80
1, 98239, Note_on_c, 0, 78, 0
1, 98240, Note_on_c, 0, 80, 80
1, 98319, Note_on_c, 0, 80, 0
1, 98320, Note_on_c, 0, 81, 80
1, 98399, Note_on_c, 0, 81, 0
1, 98400, Note_on_c, 0, 80, 80
1, 98479, Note_on_c, 0, 80, 0
1, 98480, Note_on_c, 0, 78, 80
1, 98559, Note_on_c, 0, 78, 0
1, 98560, Note_on_c, 0, 81, 80
1, 98639, Note_on_c, 0, 81, 0
1, 98640, Note_on_c, 0, 80, 80
1, 98879, Note_on_c, 0, 80, 0
1, 98880, Note_on_c, 0, 75, 80
1, 99119, Note_on_c, 0, 75, 0
1, 99120, Note_on_c, 0, 76, 80
1, 99199, Note_on_c, 0, 76, 0
1, 99200, Note_on_c, 0, 83, 80
1, 99279, Note_on_c, 0, 83, 0
1, 99280, Note_on_c, 0, 80, 80
1, 99359, Note_on_c, 0, 80, 0
1, 99360, Note_on_c, 0, 76, 80
1, 99439, Note_on_c, 0, 76, 0
1, 99440, Note_on_c, 0, 80, 80
1, 99519, Note_on_c, 0, 80, 0
1, 99520, Note_on_c, 0, 76, 80
1, 99599, Note_on_c, 0, 76, 0
1, 99600, Note_on_c, 0, 71, 80
1, 99759, Note_on_c, 0, 71, 0
1, 99760, Note_on_c, 0, 78, 80
1, 99839, Note_on_c, 0, 78, 0
1, 99840, Note_on_c, 0, 76, 80
1, 99999, Note_on_c, 0, 76, 0
1, 100000, Note_on_c, 0, 74, 80
1, 100079, Note_on_c, 0, 74, 0
1, 100080, Note_on_c, 0, 73, 80
1, 100159, Note_on_c, 0, 73, 0
1, 100160, Note_on_c, 0, 71, 80
1, 100239, Note_on_c, 0, 71, 0
1, 100240, Note_on_c, 0, 69, 80
1, 100319, Note_on_c, 0, 69, 0
1, 100320, Note_on_c, 0, 71, 80
1, 100399, Note_on_c, 0, 71, 0
1, 100400, Note_on_c, 0, 69, 80
1, 100479, Note_on_c, 0, 69, 0
1, 100480, Note_on_c, 0, 68, 80
1, 100559, Note_on_c, 0, 68, 0
1, 100560, Note_on_c, 0, 76, 80
1, 103439, Note_on_c, 0, 76, 0
1, 103680, Note_on_c, 0, 80, 80
1, 103919, Note_on_c, 0, 80, 0
1, 103920, Note_on_c, 0, 75, 80
1, 104159, Note_on_c, 0, 75, 0
1, 104160, Note_on_c, 0, 87, 80
1, 104479, Note_on_c, 0, 87, 0
1, 104480, Note_on_c, 0, 85, 80
1, 104559, Note_on_c, 0, 85, 0
1, 104560, Note_on_c, 0, 83, 80
1, 104639, Note_on_c, 0, 83, 0
1, 104640, Note_on_c, 0, 85, 80
1, 104719, Note_on_c, 0, 85, 0
1, 104720, Note_on_c, 0, 83, 80
1, 104799, Note_on_c, 0, 83, 0
1, 104800, Note_on_c, 0, 82, 80
1, 104879, Note_on_c, 0, 82, 0
1, 104880, Note_on_c, 0, 83, 80
1, 104959, Note_on_c, 0, 83, 0
1, 104960, Note_on_c, 0, 82, 80
1, 105039, Note_on_c, 0, 82, 0
1, 105040, Note_on_c, 0, 80, 80
1, 105119, Note_on_c, 0, 80, 0
1, 105120, Note_on_c, 0, 82, 80
1, 105439, Note_on_c, 0, 82, 0
1, 105440, Note_on_c, 0, 80, 80
1, 105519, Note_on_c, 0, 80, 0
1, 105520, Note_on_c, 0, 79, 80
1, 105599, Note_on_c, 0, 79, 0
1, 105600, Note_on_c, 0, 80, 80
1, 105679, Note_on_c, 0, 80, 0
1, 105680, Note_on_c, 0, 79, 80
1, 105759, Note_on_c, 0, 79, 0
1, 105760, Note_on_c, 0, 77, 80
1, 105839, Note_on_c, 0, 77, 0
1, 105840, Note_on_c, 0, 79, 80
1, 105919, Note_on_c, 0, 79, 0
1, 105920, Note_on_c, 0, 80, 80
1, 105999, Note_on_c, 0, 80, 0
1, 106000, Note_on_c, 0, 82, 80
1, 106079, Note_on_c, 0, 82, 0
1, 106080, Note_on_c, 0, 80, 80
1, 106399, Note_on_c, 0, 80, 0
1, 106400, Note_on_c, 0, 82, 80
1, 106479, Note_on_c, 0, 82, 0
1, 106480, Note_on_c, 0, 83, 80
1, 106559, Note_on_c, 0, 83, 0
1, 106560, Note_on_c, 0, 82, 80
1, 106639, Note_on_c, 0, 82, 0
1, 106640, Note_on_c, 0, 83, 80
1, 106719, Note_on_c, 0, 83, 0
1, 106720, Note_on_c, 0, 85, 80
1, 106799, Note_on_c, 0, 85, 0
1, 106800, Note_on_c, 0, 83, 80
1, 106959, Note_on_c, 0, 83, 0
1, 106960, Note_on_c, 0, 80, 80
1, 107039, Note_on_c, 0, 80, 0
1, 107040, Note_on_c, 0, 75, 80
1, 107199, Note_on_c, 0, 75, 0
1, 107200, Note_on_c, 0, 81, 80
1, 107279, Note_on_c, 0, 81, 0
1, 107280, Note_on_c, 0, 83, 80
1, 107439, Note_on_c, 0, 83, 0
1, 107440, Note_on_c, 0, 85, 80
1, 107519, Note_on_c, 0, 85, 0
1, 107520, Note_on_c, 0, 83, 80
1, 107679, Note_on_c, 0, 83, 0
1, 107680, Note_on_c, 0, 82, 80
1, 107759, Note_on_c, 0, 82, 0
1, 107760, Note_on_c, 0, 80, 80
1, 107999, Note_on_c, 0, 80, 0
1, 108000, Note_on_c, 0, 83, 80
1, 108239, Note_on_c, 0, 83, 0
1, 108240, Note_on_c, 0, 80, 80
1, 108479, Note_on_c, 0, 80, 0
1, 108480, Note_on_c, 0, 75, 80
1, 108639, Note_on_c, 0, 75, 0
1, 108640, Note_on_c, 0, 76, 80
1, 108719, Note_on_c, 0, 76, 0
1, 108720, Note_on_c, 0, 76, 80
1, 108879, Note_on_c, 0, 76, 0
1, 108880, Note_on_c, 0, 75, 80
1, 108959, Note_on_c, 0, 75, 0
1, 108960, Note_on_c, 0, 70, 80
1, 109119, Note_on_c, 0, 70, 0
1, 109120, Note_on_c, 0, 75, 80
1, 109199, Note_on_c, 0, 75, 0
1, 109200, Note_on_c, 0, 78, 80
1, 109359, Note_on_c, 0, 78, 0
1, 109360, Note_on_c, 0, 81, 80
1, 109439, Note_on_c, 0, 81, 0
1, 109440, Note_on_c, 0, 80, 80
1, 109599, Note_on_c, 0, 80, 0
1, 109600, Note_on_c, 0, 78, 80
1, 109679, Note_on_c, 0, 78, 0
1, 109680, Note_on_c, 0, 76, 80
1, 109919, Note_on_c, 0, 76, 0
1, 109920, Note_on_c, 0, 85, 80
1, 110159, Note_on_c, 0, 85, 0
1, 110160, Note_on_c, 0, 81, 80
1, 110399, Note_on_c, 0, 81, 0
1, 110400, Note_on_c, 0, 76, 80
1, 110559, Note_on_c, 0, 76, 0
1, 110560, Note_on_c, 0, 78, 80
1, 110639, Note_on_c, 0, 78, 0
1, 110640, Note_on_c, 0, 80, 80
1, 110799, Note_on_c, 0, 80, 0
1, 110800, Note_on_c, 0, 76, 80
1, 110879, Note_on_c, 0, 76, 0
1, 110880, Note_on_c, 0, 71, 80
1, 111039, Note_on_c, 0, 71, 0
1, 111040, Note_on_c, 0, 76, 80
1, 111119, Note_on_c, 0, 76, 0
1, 111120, Note_on_c, 0, 80, 80
1, 111279, Note_on_c, 0, 80, 0
1, 111280, Note_on_c, 0, 78, 80
1, 111359, Note_on_c, 0, 78, 0
1, 111360, Note_on_c, 0, 81, 80
1, 111519, Note_on_c, 0, 81, 0
1, 111520, Note_on_c, 0, 80, 80
1, 111599, Note_on_c, 0, 80, 0
1, 111600, Note_on_c, 0, 78, 80
1, 112079, Note_on_c, 0, 78, 0
1, 112320, Note_on_c, 0, 72, 80
1, 112559, Note_on_c, 0, 72, 0
1, 112560, Note_on_c, 0, 73, 80
1, 112799, Note_on_c, 0, 73, 0
1, 113200, Note_on_c, 0, 64, 80
1, 113279, Note_on_c, 0, 64, 0
1, 113280, Note_on_c, 0, 66, 80
1, 113439, Note_on_c, 0, 66, 0
1, 113440, Note_on_c, 0, 64, 80
1, 113479, Note_on_c, 0, 64, 0
1, 113480, Note_on_c, 0, 63, 80
1, 113519, Note_on_c, 0, 63, 0
1, 113520, Note_on_c, 0, 69, 80
1, 113759, Note_on_c, 0, 69, 0
1, 114240, Note_on_c, 0, 78, 80
1, 114479, Note_on_c, 0, 78, 0
1, 114480, Note_on_c, 0, 85, 80
1, 114719, Note_on_c, 0, 85, 0
1, 114720, Note_on_c, 0, 73, 80
1, 115039, Note_on_c, 0, 73, 0
1, 115040, Note_on_c, 0, 75, 80
1, 115119, Note_on_c, 0, 75, 0
1, 115120, Note_on_c, 0, 76, 80
1, 115199, Note_on_c, 0, 76, 0
1, 115200, Note_on_c, 0, 75, 80
1, 115279, Note_on_c, 0, 75, 0
1, 115280, Note_on_c, 0, 76, 80
1, 115359, Note_on_c, 0, 76, 0
1, 115360, Note_on_c, 0, 78, 80
1, 115439, Note_on_c, 0, 78, 0
1, 115440, Note_on_c, 0, 64, 80
1, 115519, Note_on_c, 0, 64, 0
1, 115520, Note_on_c, 0, 63, 80
1, 115599, Note_on_c, 0, 63, 0
1, 115600, Note_on_c, 0, 61, 80
1, 115679, Note_on_c, 0, 61, 0
1, 115680, Note_on_c, 0, 63, 80
1, 115999, Note_on_c, 0, 63, 0
1, 116000, Note_on_c, 0, 61, 80
1, 116079, Note_on_c, 0, 61, 0
1, 116080, Note_on_c, 0, 60, 80
1, 116159, Note_on_c, 0, 60, 0
1, 116160, Note_on_c, 0, 61, 80
1, 116239, Note_on_c, 0, 61, 0
1, 116240, Note_on_c, 0, 60, 80
1, 116319, Note_on_c, 0, 60, 0
1, 116320, Note_on_c, 0, 58, 80
1, 116399, Note_on_c, 0, 58, 0
1, 116400, Note_on_c, 0, 81, 80
1, 116479, Note_on_c, 0, 81, 0
1, 116480, Note_on_c, 0, 80, 80
1, 116559, Note_on_c, 0, 80, 0
1, 116560, Note_on_c, 0, 78, 80
1, 116639, Note_on_c, 0, 78, 0
1, 116640, Note_on_c, 0, 80, 80
1, 116959, Note_on_c, 0, 80, 0
1, 116960, Note_on_c, 0, 78, 80
1, 117039, Note_on_c, 0, 78, 0
1, 117040, Note_on_c, 0, 76, 80
1, 117119, Note_on_c, 0, 76, 0
1, 117120, Note_on_c, 0, 78, 80
1, 117199, Note_on_c, 0, 78, 0
1, 117200, Note_on_c, 0, 76, 80
1, 117279, Note_on_c, 0, 76, 0
1, 117280, Note_on_c, 0, 75, 80
1, 117359, Note_on_c, 0, 75, 0
1, 117360, Note_on_c, 0, 76, 80
1, 117519, Note_on_c, 0, 76, 0
1, 117520, Note_on_c, 0, 80, 80
1, 117599, Note_on_c, 0, 80, 0
1, 117600, Note_on_c, 0, 85, 80
1, 117759, Note_on_c, 0, 85, 0
1, 117760, Note_on_c, 0, 80, 80
1, 117839, Note_on_c, 0, 80, 0
1, 117840, Note_on_c, 0, 76, 80
1, 117999, Note_on_c, 0, 76, 0
1, 118000, Note_on_c, 0, 75, 80
1, 118079, Note_on_c, 0, 75, 0
1, 118080, Note_on_c, 0, 77, 80
1, 118239, Note_on_c, 0, 77, 0
1, 118240, Note_on_c, 0, 79, 80
1, 118319, Note_on_c, 0, 79, 0
1, 118320, Note_on_c, 0, 80, 80
1, 118559, Note_on_c, 0, 80, 0
1, 118560, Note_on_c, 0, 71, 80
1, 118799, Note_on_c, 0, 71, 0
1, 118800, Note_on_c, 0, 75, 80
1, 119039, Note_on_c, 0, 75, 0
1, 119040, Note_on_c, 0, 80, 80
1, 119279, Note_on_c, 0, 80, 0
1, 119280, Note_on_c, 0, 75, 80
1, 119439, Note_on_c, 0, 75, 0
1, 119440, Note_on_c, 0, 78, 80
1, 119519, Note_on_c, 0, 78, 0
1, 119520, Note_on_c, 0, 83, 80
1, 119679, Note_on_c, 0, 83, 0
1, 119680, Note_on_c, 0, 78, 80
1, 119759, Note_on_c, 0, 78, 0
1, 119760, Note_on_c, 0, 75, 80
1, 119919, Note_on_c, 0, 75, 0
1, 119920, Note_on_c, 0, 73, 80
1, 119999, Note_on_c, 0, 73, 0
1, 120000, Note_on_c, 0, 75, 80
1, 120159, Note_on_c, 0, 75, 0
1, 120160, Note_on_c, 0, 77, 80
1, 120239, Note_on_c, 0, 77, 0
1, 120240, Note_on_c, 0, 78, 80
1, 120479, Note_on_c, 0, 78, 0
1, 120480, Note_on_c, 0, 69, 80
1, 120719, Note_on_c, 0, 69, 0
1, 120720, Note_on_c, 0, 73, 80
1, 120959, Note_on_c, 0, 73, 0
1, 120960, Note_on_c, 0, 78, 80
1, 121199, Note_on_c, 0, 78, 0
1, 121200, Note_on_c, 0, 73, 80
1, 121359, Note_on_c, 0, 73, 0
1, 121360, Note_on_c, 0, 76, 80
1, 121439, Note_on_c, 0, 76, 0
1, 121440, Note_on_c, 0, 81, 80
1, 121599, Note_on_c, 0, 81, 0
1, 121600, Note_on_c, 0, 76, 80
1, 121679, Note_on_c, 0, 76, 0
1, 121680, Note_on_c, 0, 73, 80
1, 121839, Note_on_c, 0, 73, 0
1, 121840, Note_on_c, 0, 71, 80
1, 121919, Note_on_c, 0, 71, 0
1, 121920, Note_on_c, 0, 73, 80
1, 122079, Note_on_c, 0, 73, 0
1, 122080, Note_on_c, 0, 75, 80
1, 122159, Note_on_c, 0, 75, 0
1, 122160, Note_on_c, 0, 76, 80
1, 122639, Note_on_c, 0, 76, 0
1, 122880, Note_on_c, 0, 73, 80
1, 123119, Note_on_c, 0, 73, 0
1, 123120, Note_on_c, 0, 72, 80
1, 123279, Note_on_c, 0, 72, 0
1, 123280, Note_on_c, 0, 75, 80
1, 123359, Note_on_c, 0, 75, 0
1, 123360, Note_on_c, 0, 80, 80
1, 123519, Note_on_c, 0, 80, 0
1, 123520, Note_on_c, 0, 75, 80
1, 123599, Note_on_c, 0, 75, 0
1, 123600, Note_on_c, 0, 72, 80
1, 123759, Note_on_c, 0, 72, 0
1, 123760, Note_on_c, 0, 70, 80
1, 123839, Note_on_c, 0, 70, 0
1, 123840, Note_on_c, 0, 72, 80
1, 123999, Note_on_c, 0, 72, 0
1, 124000, Note_on_c, 0, 73, 80
1, 124079, Note_on_c, 0, 73, 0
1, 124080, Note_on_c, 0, 75, 80
1, 124319, Note_on_c, 0, 75, 0
1, 124720, Note_on_c, 0, 78, 80
1, 124799, Note_on_c, 0, 78, 0
1, 124800, Note_on_c, 0, 76, 80
1, 124959, Note_on_c, 0, 76, 0
1, 124960, Note_on_c, 0, 75, 80
1, 125039, Note_on_c, 0, 75, 0
1, 125040, Note_on_c, 0, 81, 80
1, 125519, Note_on_c, 0, 81, 0
1, 125760, Note_on_c, 0, 78, 80
1, 125999, Note_on_c, 0, 78, 0
1, 126000, Note_on_c, 0, 76, 80
1, 126079, Note_on_c, 0, 76, 0
1, 126080, Note_on_c, 0, 75, 80
1, 126159, Note_on_c, 0, 75, 0
1, 126160, Note_on_c, 0, 73, 80
1, 126239, Note_on_c, 0, 73, 0
1, 126240, Note_on_c, 0, 72, 80
1, 126319, Note_on_c, 0, 72, 0
1, 126320, Note_on_c, 0, 75, 80
1, 126399, Note_on_c, 0, 75, 0
1, 126400, Note_on_c, 0, 73, 80
1, 126479, Note_on_c, 0, 73, 0
1, 126480, Note_on_c, 0, 71, 80
1, 126559, Note_on_c, 0, 71, 0
1, 126560, Note_on_c, 0, 73, 80
1, 126639, Note_on_c, 0, 73, 0
1, 126640, Note_on_c, 0, 71, 80
1, 126719, Note_on_c, 0, 71, 0
1, 126720, Note_on_c, 0, 69, 80
1, 126799, Note_on_c, 0, 69, 0
1, 126800, Note_on_c, 0, 71, 80
1, 126879, Note_on_c, 0, 71, 0
1, 126880, Note_on_c, 0, 69, 80
1, 126959, Note_on_c, 0, 69, 0
1, 126960, Note_on_c, 0, 68, 80
1, 127039, Note_on_c, 0, 68, 0
1, 127040, Note_on_c, 0, 76, 80
1, 127119, Note_on_c, 0, 76, 0
1, 127120, Note_on_c, 0, 75, 80
1, 127199, Note_on_c, 0, 75, 0
1, 127200, Note_on_c, 0, 73, 80
1, 127279, Note_on_c, 0, 73, 0
1, 127280, Note_on_c, 0, 75, 80
1, 127359, Note_on_c, 0, 75, 0
1, 127360, Note_on_c, 0, 76, 80
1, 127439, Note_on_c, 0, 76, 0
1, 127440, Note_on_c, 0, 78, 80
1, 127519, Note_on_c, 0, 78, 0
1, 127520, Note_on_c, 0, 75, 80
1, 127599, Note_on_c, 0, 75, 0
1, 127600, Note_on_c, 0, 73, 80
1, 127679, Note_on_c, 0, 73, 0
1, 127680, Note_on_c, 0, 72, 80
1, 127759, Note_on_c, 0, 72, 0
1, 127760, Note_on_c, 0, 73, 80
1, 127839, Note_on_c, 0, 73, 0
1, 127840, Note_on_c, 0, 75, 80
1, 127919, Note_on_c, 0, 75, 0
1, 127920, Note_on_c, 0, 76, 80
1, 127999, Note_on_c, 0, 76, 0
1, 128000, Note_on_c, 0, 80, 80
1, 128079, Note_on_c, 0, 80, 0
1, 128080, Note_on_c, 0, 76, 80
1, 128159, Note_on_c, 0, 76, 0
1, 128160, Note_on_c, 0, 73, 80
1, 128239, Note_on_c, 0, 73, 0
1, 128240, Note_on_c, 0, 76, 80
1, 128319, Note_on_c, 0, 76, 0
1, 128320, Note_on_c, 0, 73, 80
1, 128399, Note_on_c, 0, 73, 0
1, 128400, Note_on_c, 0, 68, 80
1, 128479, Note_on_c, 0, 68, 0
1, 128480, Note_on_c, 0, 69, 80
1, 128559, Note_on_c, 0, 69, 0
1, 128560, Note_on_c, 0, 71, 80
1, 128639, Note_on_c, 0, 71, 0
1, 128640, Note_on_c, 0, 69, 80
1, 128719, Note_on_c, 0, 69, 0
1, 128720, Note_on_c, 0, 68, 80
1, 128799, Note_on_c, 0, 68, 0
1, 128800, Note_on_c, 0, 66, 80
1, 128879, Note_on_c, 0, 66, 0
1, 128880, Note_on_c, 0, 68, 80
1, 130159, Note_on_c, 0, 68, 0
1, 130160, Note_on_c, 0, 69, 80
1, 130239, Note_on_c, 0, 69, 0
1, 130240, Note_on_c, 0, 71, 80
1, 130319, Note_on_c, 0, 71, 0
1, 130320, Note_on_c, 0, 69, 80
1, 130559, Note_on_c, 0, 69, 0
1, 130880, Note_on_c, 0, 68, 80
1, 130959, Note_on_c, 0, 68, 0
1, 130960, Note_on_c, 0, 73, 80
1, 131039, Note_on_c, 0, 73, 0
1, 131040, Note_on_c, 0, 76, 80
1, 131119, Note_on_c, 0, 76, 0
1, 131120, Note_on_c, 0, 73, 80
1, 131199, Note_on_c, 0, 73, 0
1, 131200, Note_on_c, 0, 76, 80
1, 131279, Note_on_c, 0, 76, 0
1, 131280, Note_on_c, 0, 80, 80
1, 131359, Note_on_c, 0, 80, 0
1, 131360, Note_on_c, 0, 76, 80
1, 131439, Note_on_c, 0, 76, 0
1, 131440, Note_on_c, 0, 73, 80
1, 131519, Note_on_c, 0, 73, 0
1, 131520, Note_on_c, 0, 68, 80
1, 131599, Note_on_c, 0, 68, 0
1, 131600, Note_on_c, 0, 69, 80
1, 131679, Note_on_c, 0, 69, 0
1, 131680, Note_on_c, 0, 71, 80
1, 131759, Note_on_c, 0, 71, 0
1, 131760, Note_on_c, 0, 69, 80
1, 131839, Note_on_c, 0, 69, 0
1, 131840, Note_on_c, 0, 73, 80
1, 131919, Note_on_c, 0, 73, 0
1, 131920, Note_on_c, 0, 78, 80
1, 131999, Note_on_c, 0, 78, 0
1, 132000, Note_on_c, 0, 81, 80
1, 132079, Note_on_c, 0, 81, 0
1, 132080, Note_on_c, 0, 80, 80
1, 132159, Note_on_c, 0, 80, 0
1, 132160, Note_on_c, 0, 78, 80
1, 132239, Note_on_c, 0, 78, 0
1, 132240, Note_on_c, 0, 77, 80
1, 132319, Note_on_c, 0, 77, 0
1, 132320, Note_on_c, 0, 78, 80
1, 132399, Note_on_c, 0, 78, 0
1, 132400, Note_on_c, 0, 80, 80
1, 132479, Note_on_c, 0, 80, 0
1, 132480, Note_on_c, 0, 78, 80
1, 132639, Note_on_c, 0, 78, 0
1, 132640, Note_on_c, 0, 69, 80
1, 132719, Note_on_c, 0, 69, 0
1, 132720, Note_on_c, 0, 68, 80
1, 133039, Note_on_c, 0, 68, 0
1, 133040, Note_on_c, 0, 69, 80
1, 133119, Note_on_c, 0, 69, 0
1, 133120, Note_on_c, 0, 71, 80
1, 133199, Note_on_c, 0, 71, 0
1, 133200, Note_on_c, 0, 69, 80
1, 133279, Note_on_c, 0, 69, 0
1, 133280, Note_on_c, 0, 68, 80
1, 133359, Note_on_c, 0, 68, 0
1, 133360, Note_on_c, 0, 66, 80
1, 133439, Note_on_c, 0, 66, 0
1, 133440, Note_on_c, 0, 65, 80
1, 133519, Note_on_c, 0, 65, 0
1, 133520, Note_on_c, 0, 66, 80
1, 133599, Note_on_c, 0, 66, 0
1, 133600, Note_on_c, 0, 68, 80
1, 133679, Note_on_c, 0, 68, 0
1, 133680, Note_on_c, 0, 66, 80
1, 133839, Note_on_c, 0, 66, 0
1, 133840, Note_on_c, 0, 75, 80
1, 133919, Note_on_c, 0, 75, 0
1, 133920, Note_on_c, 0, 76, 80
1, 133999, Note_on_c, 0, 76, 0
1, 134000, Note_on_c, 0, 78, 80
1, 134079, Note_on_c, 0, 78, 0
1, 134080, Note_on_c, 0, 80, 80
1, 134159, Note_on_c, 0, 80, 0
1, 134160, Note_on_c, 0, 72, 80
1, 134639, Note_on_c, 0, 72, 0
1, 134640, Note_on_c, 0, 73, 80
1, 134879, Note_on_c, 0, 73, 0
1, 135280, Note_on_c, 0, 72, 80
1, 135359, Note_on_c, 0, 72, 0
1, 135360, Note_on_c, 0, 73, 80
1, 135519, Note_on_c, 0, 73, 0
1, 135520, Note_on_c, 0, 75, 80
1, 135599, Note_on_c, 0, 75, 0
1, 135600, Note_on_c, 0, 77, 80
1, 135679, Note_on_c, 0, 77, 0
1, 135680, Note_on_c, 0, 78, 80
1, 135759, Note_on_c, 0, 78, 0
1, 135760, Note_on_c, 0, 80, 80
1, 135839, Note_on_c, 0, 80, 0
1, 135840, Note_on_c, 0, 73, 80
1, 136319, Note_on_c, 0, 73, 0
1, 136320, Note_on_c, 0, 75, 80
1, 136399, Note_on_c, 0, 75, 0
1, 136400, Note_on_c, 0, 73, 80
1, 136479, Note_on_c, 0, 73, 0
1, 136480, Note_on_c, 0, 72, 80
1, 136559, Note_on_c, 0, 72, 0
1, 136560, Note_on_c, 0, 77, 80
1, 137279, Note_on_c, 0, 77, 0
1, 137280, End_track
2, 0, Start_track
2, 0, Key_signature, 4, "major"
2, 0, Note_on_c, 0, 68, 80
2, 239, Note_on_c, 0, 68, 0
2, 240, Note_on_c, 0, 73, 80
2, 479, Note_on_c, 0, 73, 0
2, 480, Note_on_c, 0, 61, 80
2, 799, Note_on_c, 0, 61, 0
2, 800, Note_on_c, 0, 63, 80
2, 879, Note_on_c, 0, 63, 0
2, 880, Note_on_c, 0, 64, 80
2, 959, Note_on_c, 0, 64, 0
2, 960, Note_on_c, 0, 63, 80
2, 1039, Note_on_c, 0, 63, 0
2, 1040, Note_on_c, 0, 64, 80
2, 1119, Note_on_c, 0, 64, 0
2, 1120, Note_on_c, 0, 66, 80
2, 1199, Note_on_c, 0, 66, 0
2, 1200, Note_on_c, 0, 64, 80
2, 1279, Note_on_c, 0, 64, 0
2, 1280, Note_on_c, 0, 66, 80
2, 1359, Note_on_c, 0, 66, 0
2, 1360, Note_on_c, 0, 68, 80
2, 1439, Note_on_c, 0, 68, 0
2, 1440, Note_on_c, 0, 66, 80
2, 1759, Note_on_c, 0, 66, 0
2, 1760, Note_on_c, 0, 68, 80
2, 1839, Note_on_c, 0, 68, 0
2, 1840, Note_on_c, 0, 69, 80
2, 1919, Note_on_c, 0, 69, 0
2, 1920, Note_on_c, 0, 68, 80
2, 1999, Note_on_c, 0, 68, 0
2, 2000, Note_on_c, 0, 69, 80
2, 2079, Note_on_c, 0, 69, 0
2, 2080, Note_on_c, 0, 71, 80
2, 2159, Note_on_c, 0, 71, 0
2, 2160, Note_on_c, 0, 69, 80
2, 2239, Note_on_c, 0, 69, 0
2, 2240, Note_on_c, 0, 68, 80
2, 2319, Note_on_c, 0, 68, 0
2, 2320, Note_on_c, 0, 66, 80
2, 2399, Note_on_c, 0, 66, 0
2, 2400, Note_on_c, 0, 68, 80
2, 2719, Note_on_c, 0, 68, 0
2, 2720, Note_on_c, 0, 66, 80
2, 2799, Note_on_c, 0, 66, 0
2, 2800, Note_on_c, 0, 64, 80
2, 2879, Note_on_c, 0, 64, 0
2, 2880, Note_on_c, 0, 66, 80
2, 2959, Note_on_c, 0, 66, 0
2, 2960, Note_on_c, 0, 64, 80
2, 3039, Note_on_c, 0, 64, 0
2, 3040, Note_on_c, 0, 63, 80
2, 3119, Note_on_c, 0, 63, 0
2, 3120, Note_on_c, 0, 64, 80
2, 3279, Note_on_c, 0, 64, 0
2, 3280, Note_on_c, 0, 68, 80
2, 3359, Note_on_c, 0, 68, 0
2, 3360, Note_on_c, 0, 73, 80
2, 3519, Note_on_c, 0, 73, 0
2, 3520, Note_on_c, 0, 68, 80
2, 3599, Note_on_c, 0, 68, 0
2, 3600, Note_on_c, 0, 64, 80
2, 3759, Note_on_c, 0, 64, 0
2, 3760, Note_on_c, 0, 63, 80
2, 3839, Note_on_c, 0, 63, 0
2, 3840, Note_on_c, 0, 64, 80
2, 3999, Note_on_c, 0, 64, 0
2, 4000, Note_on_c, 0, 66, 80
2, 4079, Note_on_c, 0, 66, 0
2, 4080, Note_on_c, 0, 68, 80
2, 4159, Note_on_c, 0, 68, 0
2, 4160, Note_on_c, 0, 63, 80
2, 4239, Note_on_c, 0, 63, 0
2, 4240, Note_on_c, 0, 66, 80
2, 4319, Note_on_c, 0, 66, 0
2, 4320, Note_on_c, 0, 64, 80
2, 4399, Note_on_c, 0, 64, 0
2, 4400, Note_on_c, 0, 63, 80
2, 4479, Note_on_c, 0, 63, 0
2, 4480, Note_on_c, 0, 61, 80
2, 4559, Note_on_c, 0, 61, 0
2, 4560, Note_on_c, 0, 60, 80
2, 4799, Note_on_c, 0, 60, 0
2, 4800, Note_on_c, 0, 69, 80
2, 5039, Note_on_c, 0, 69, 0
2, 5040, Note_on_c, 0, 68, 80
2, 5359, Note_on_c, 0, 68, 0
2, 5360, Note_on_c, 0, 66, 80
2, 5439, Note_on_c, 0, 66, 0
2, 5440, Note_on_c, 0, 64, 80
2, 5519, Note_on_c, 0, 64, 0
2, 5520, Note_on_c, 0, 66, 80
2, 6319, Note_on_c, 0, 66, 0
2, 6320, Note_on_c, 0, 64, 80
2, 6399, Note_on_c, 0, 64, 0
2, 6400, Note_on_c, 0, 63, 80
2, 6479, Note_on_c, 0, 63, 0
2, 6480, Note_on_c, 0, 64, 80
2, 6639, Note_on_c, 0, 64, 0
2, 6640, Note_on_c, 0, 73, 80
2, 6719, Note_on_c, 0, 73, 0
2, 6720, Note_on_c, 0, 71, 80
2, 6879, Note_on_c, 0, 71, 0
2, 6880, Note_on_c, 0, 69, 80
2, 6959, Note_on_c, 0, 69, 0
2, 6960, Note_on_c, 0, 68, 80
2, 7599, Note_on_c, 0, 68, 0
2, 7600, Note_on_c, 0, 69, 80
2, 7679, Note_on_c, 0, 69, 0
2, 7680, Note_on_c, 0, 68, 80
2, 7839, Note_on_c, 0, 68, 0
2, 7840, Note_on_c, 0, 66, 80
2, 7919, Note_on_c, 0, 66, 0
2, 7920, Note_on_c, 0, 64, 80
2, 8159, Note_on_c, 0, 64, 0
2, 8640, Note_on_c, 0, 64, 80
2, 8879, Note_on_c, 0, 64, 0
2, 8880, Note_on_c, 0, 63, 80
2, 8959, Note_on_c, 0, 63, 0
2, 8960, Note_on_c, 0, 64, 80
2, 9039, Note_on_c, 0, 64, 0
2, 9040, Note_on_c, 0, 66, 80
2, 9119, Note_on_c, 0, 66, 0
2, 9120, Note_on_c, 0, 64, 80
2, 9199, Note_on_c, 0, 64, 0
2, 9200, Note_on_c, 0, 63, 80
2, 9279, Note_on_c, 0, 63, 0
2, 9280, Note_on_c, 0, 66, 80
2, 9359, Note_on_c, 0, 66, 0
2, 9360, Note_on_c, 0, 64, 80
2, 9439, Note_on_c, 0, 64, 0
2, 9440, Note_on_c, 0, 63, 80
2, 9519, Note_on_c, 0, 63, 0
2, 9520, Note_on_c, 0, 61, 80
2, 9599, Note_on_c, 0, 61, 0
2, 9600, Note_on_c, 0, 60, 80
2, 9679, Note_on_c, 0, 60, 0
2, 9680, Note_on_c, 0, 61, 80
2, 9759, Note_on_c, 0, 61, 0
2, 9760, Note_on_c, 0, 63, 80
2, 9839, Note_on_c, 0, 63, 0
2, 9840, Note_on_c, 0, 61, 80
2, 10079, Note_on_c, 0, 61, 0
2, 10560, Note_on_c, 0, 64, 80
2, 10799, Note_on_c, 0, 64, 0
2, 10800, Note_on_c, 0, 63, 80
2, 11039, Note_on_c, 0, 63, 0
2, 11040, Note_on_c, 0, 59, 80
2, 11279, Note_on_c, 0, 59, 0
2, 11280, Note_on_c, 0, 63, 80
2, 11519, Note_on_c, 0, 63, 0
2, 11520, Note_on_c, 0, 68, 80
2, 11679, Note_on_c, 0, 68, 0
2, 11680, Note_on_c, 0, 69, 80
2, 11759, Note_on_c, 0, 69, 0
2, 11760, Note_on_c, 0, 71, 80
2, 11999, Note_on_c, 0, 71, 0
2, 12000, Note_on_c, 0, 68, 80
2, 12239, Note_on_c, 0, 68, 0
2, 12240, Note_on_c, 0, 71, 80
2, 12479, Note_on_c, 0, 71, 0
2, 12480, Note_on_c, 0, 75, 80
2, 12719, Note_on_c, 0, 75, 0
2, 12720, Note_on_c, 0, 73, 80
2, 12959, Note_on_c, 0, 73, 0
2, 12960, Note_on_c, 0, 61, 80
2, 13199, Note_on_c, 0, 61, 0
2, 13920, Note_on_c, 0, 66, 80
2, 14159, Note_on_c, 0, 66, 0
2, 14160, Note_on_c, 0, 69, 80
2, 14399, Note_on_c, 0, 69, 0
2, 14400, Note_on_c, 0, 73, 80
2, 14639, Note_on_c, 0, 73, 0
2, 14640, Note_on_c, 0, 71, 80
2, 14879, Note_on_c, 0, 71, 0
2, 14880, Note_on_c, 0, 59, 80
2, 15119, Note_on_c, 0, 59, 0
2, 18240, Note_on_c, 0, 61, 80
2, 18479, Note_on_c, 0, 61, 0
2, 18480, Note_on_c, 0, 56, 80
2, 18719, Note_on_c, 0, 56, 0
2, 18720, Note_on_c, 0, 68, 80
2, 19039, Note_on_c, 0, 68, 0
2, 19040, Note_on_c, 0, 66, 80
2, 19119, Note_on_c, 0, 66, 0
2, 19120, Note_on_c, 0, 64, 80
2, 19199, Note_on_c, 0, 64, 0
2, 19200, Note_on_c, 0, 66, 80
2, 19279, Note_on_c, 0, 66, 0
2, 19280, Note_on_c, 0, 64, 80
2, 19359, Note_on_c, 0, 64, 0
2, 19360, Note_on_c, 0, 63, 80
2, 19439, Note_on_c, 0, 63, 0
2, 19440, Note_on_c, 0, 64, 80
2, 19519, Note_on_c, 0, 64, 0
2, 19520, Note_on_c, 0, 63, 80
2, 19599, Note_on_c, 0, 63, 0
2, 19600, Note_on_c, 0, 61, 80
2, 19679, Note_on_c, 0, 61, 0
2, 19680, Note_on_c, 0, 63, 80
2, 19999, Note_on_c, 0, 63, 0
2, 20000, Note_on_c, 0, 61, 80
2, 20079, Note_on_c, 0, 61, 0
2, 20080, Note_on_c, 0, 60, 80
2, 20159, Note_on_c, 0, 60, 0
2, 20160, Note_on_c, 0, 61, 80
2, 20239, Note_on_c, 0, 61, 0
2, 20240, Note_on_c, 0, 60, 80
2, 20319, Note_on_c, 0, 60, 0
2, 20320, Note_on_c, 0, 58, 80
2, 20399, Note_on_c, 0, 58, 0
2, 20400, Note_on_c, 0, 60, 80
2, 20479, Note_on_c, 0, 60, 0
2, 20480, Note_on_c, 0, 61, 80
2, 20559, Note_on_c, 0, 61, 0
2, 20560, Note_on_c, 0, 63, 80
2, 20639, Note_on_c, 0, 63, 0
2, 20640, Note_on_c, 0, 61, 80
2, 20959, Note_on_c, 0, 61, 0
2, 20960, Note_on_c, 0, 63, 80
2, 21039, Note_on_c, 0, 63, 0
2, 21040, Note_on_c, 0, 64, 80
2, 21119, Note_on_c, 0, 64, 0
2, 21120, Note_on_c, 0, 63, 80
2, 21199, Note_on_c, 0, 63, 0
2, 21200, Note_on_c, 0, 64, 80
2, 21279, Note_on_c, 0, 64, 0
2, 21280, Note_on_c, 0, 66, 80
2, 21359, Note_on_c, 0, 66, 0
2, 21360, Note_on_c, 0, 64, 80
2, 21519, Note_on_c, 0, 64, 0
2, 21520, Note_on_c, 0, 61, 80
2, 21599, Note_on_c, 0, 61, 0
2, 21600, Note_on_c, 0, 56, 80
2, 21759, Note_on_c, 0, 56, 0
2, 21760, Note_on_c, 0, 61, 80
2, 21839, Note_on_c, 0, 61, 0
2, 21840, Note_on_c, 0, 64, 80
2, 21999, Note_on_c, 0, 64, 0
2, 22000, Note_on_c, 0, 66, 80
2, 22079, Note_on_c, 0, 66, 0
2, 22080, Note_on_c, 0, 64, 80
2, 22239, Note_on_c, 0, 64, 0
2, 22240, Note_on_c, 0, 63, 80
2, 22319, Note_on_c, 0, 63, 0
2, 22320, Note_on_c, 0, 61, 80
2, 22559, Note_on_c, 0, 61, 0
2, 22560, Note_on_c, 0, 63, 80
2, 22719, Note_on_c, 0, 63, 0
2, 22720, Note_on_c, 0, 65, 80
2, 22799, Note_on_c, 0, 65, 0
2, 22800, Note_on_c, 0, 66, 80
2, 23039, Note_on_c, 0, 66, 0
2, 23040, Note_on_c, 0, 64, 80
2, 23279, Note_on_c, 0, 64, 0
2, 23280, Note_on_c, 0, 62, 80
2, 23439, Note_on_c, 0, 62, 0
2, 23440, Note_on_c, 0, 59, 80
2, 23519, Note_on_c, 0, 59, 0
2, 23520, Note_on_c, 0, 54, 80
2, 23679, Note_on_c, 0, 54, 0
2, 23680, Note_on_c, 0, 59, 80
2, 23759, Note_on_c, 0, 59, 0
2, 23760, Note_on_c, 0, 62, 80
2, 23919, Note_on_c, 0, 62, 0
2, 23920, Note_on_c, 0, 64, 80
2, 23999, Note_on_c, 0, 64, 0
2, 24000, Note_on_c, 0, 62, 80
2, 24159, Note_on_c, 0, 62, 0
2, 24160, Note_on_c, 0, 61, 80
2, 24239, Note_on_c, 0, 61, 0
2, 24240, Note_on_c, 0, 59, 80
2, 24479, Note_on_c, 0, 59, 0
2, 24480, Note_on_c, 0, 61, 80
2, 24639, Note_on_c, 0, 61, 0
2, 24640, Note_on_c, 0, 63, 80
2, 24719, Note_on_c, 0, 63, 0
2, 24720, Note_on_c, 0, 64, 80
2, 24959, Note_on_c, 0, 64, 0
2, 24960, Note_on_c, 0, 62, 80
2, 25199, Note_on_c, 0, 62, 0
2, 25200, Note_on_c, 0, 61, 80
2, 25359, Note_on_c, 0, 61, 0
2, 25360, Note_on_c, 0, 59, 80
2, 25439, Note_on_c, 0, 59, 0
2, 25440, Note_on_c, 0, 57, 80
2, 25599, Note_on_c, 0, 57, 0
2, 25600, Note_on_c, 0, 59, 80
2, 25679, Note_on_c, 0, 59, 0
2, 25680, Note_on_c, 0, 61, 80
2, 25839, Note_on_c, 0, 61, 0
2, 25840, Note_on_c, 0, 62, 80
2, 25919, Note_on_c, 0, 62, 0
2, 25920, Note_on_c, 0, 64, 80
2, 26079, Note_on_c, 0, 64, 0
2, 26080, Note_on_c, 0, 61, 80
2, 26159, Note_on_c, 0, 61, 0
2, 26160, Note_on_c, 0, 62, 80
2, 26479, Note_on_c, 0, 62, 0
2, 26480, Note_on_c, 0, 61, 80
2, 26559, Note_on_c, 0, 61, 0
2, 26560, Note_on_c, 0, 59, 80
2, 26639, Note_on_c, 0, 59, 0
2, 26640, Note_on_c, 0, 61, 80
2, 26719, Note_on_c, 0, 61, 0
2, 26720, Note_on_c, 0, 59, 80
2, 26799, Note_on_c, 0, 59, 0
2, 26800, Note_on_c, 0, 57, 80
2, 26879, Note_on_c, 0, 57, 0
2, 26880, Note_on_c, 0, 59, 80
2, 26959, Note_on_c, 0, 59, 0
2, 26960, Note_on_c, 0, 57, 80
2, 27039, Note_on_c, 0, 57, 0
2, 27040, Note_on_c, 0, 56, 80
2, 27119, Note_on_c, 0, 56, 0
2, 27120, Note_on_c, 0, 57, 80
2, 27199, Note_on_c, 0, 57, 0
2, 27200, Note_on_c, 0, 69, 80
2, 27279, Note_on_c, 0, 69, 0
2, 27280, Note_on_c, 0, 71, 80
2, 27359, Note_on_c, 0, 71, 0
2, 27360, Note_on_c, 0, 73, 80
2, 27439, Note_on_c, 0, 73, 0
2, 27440, Note_on_c, 0, 71, 80
2, 27519, Note_on_c, 0, 71, 0
2, 27520, Note_on_c, 0, 69, 80
2, 27599, Note_on_c, 0, 69, 0
2, 27600, Note_on_c, 0, 64, 80
2, 28159, Note_on_c, 0, 64, 0
2, 28160, Note_on_c, 0, 66, 80
2, 28239, Note_on_c, 0, 66, 0
2, 28240, Note_on_c, 0, 67, 80
2, 28319, Note_on_c, 0, 67, 0
2, 28320, Note_on_c, 0, 66, 80
2, 28399, Note_on_c, 0, 66, 0
2, 28400, Note_on_c, 0, 64, 80
2, 28479, Note_on_c, 0, 64, 0
2, 28480, Note_on_c, 0, 67, 80
2, 28559, Note_on_c, 0, 67, 0
2, 28560, Note_on_c, 0, 66, 80
2, 28799, Note_on_c, 0, 66, 0
2, 28800, Note_on_c, 0, 61, 80
2, 29039, Note_on_c, 0, 61, 0
2, 29040, Note_on_c, 0, 62, 80
2, 29119, Note_on_c, 0, 62, 0
2, 29120, Note_on_c, 0, 61, 80
2, 29199, Note_on_c, 0, 61, 0
2, 29200, Note_on_c, 0, 59, 80
2, 29279, Note_on_c, 0, 59, 0
2, 29280, Note_on_c, 0, 61, 80
2, 29359, Note_on_c, 0, 61, 0
2, 29360, Note_on_c, 0, 62, 80
2, 29439, Note_on_c, 0, 62, 0
2, 29440, Note_on_c, 0, 59, 80
2, 29519, Note_on_c, 0, 59, 0
2, 29520, Note_on_c, 0, 61, 80
2, 29759, Note_on_c, 0, 61, 0
2, 29760, Note_on_c, 0, 66, 80
2, 29999, Note_on_c, 0, 66, 0
2, 30000, Note_on_c, 0, 64, 80
2, 30079, Note_on_c, 0, 64, 0
2, 30080, Note_on_c, 0, 57, 80
2, 30159, Note_on_c, 0, 57, 0
2, 30160, Note_on_c, 0, 61, 80
2, 30239, Note_on_c, 0, 61, 0
2, 30240, Note_on_c, 0, 64, 80
2, 30319, Note_on_c, 0, 64, 0
2, 30320, Note_on_c, 0, 61, 80
2, 30399, Note_on_c, 0, 61, 0
2, 30400, Note_on_c, 0, 64, 80
2, 30479, Note_on_c, 0, 64, 0
2, 30480, Note_on_c, 0, 69, 80
2, 30639, Note_on_c, 0, 69, 0
2, 30640, Note_on_c, 0, 64, 80
2, 30719, Note_on_c, 0, 64, 0
2, 30720, Note_on_c, 0, 64, 80
2, 30879, Note_on_c, 0, 64, 0
2, 30880, Note_on_c, 0, 66, 80
2, 30959, Note_on_c, 0, 66, 0
2, 30960, Note_on_c, 0, 68, 80
2, 31039, Note_on_c, 0, 68, 0
2, 31040, Note_on_c, 0, 69, 80
2, 31119, Note_on_c, 0, 69, 0
2, 31120, Note_on_c, 0, 71, 80
2, 31199, Note_on_c, 0, 71, 0
2, 31200, Note_on_c, 0, 69, 80
2, 31279, Note_on_c, 0, 69, 0
2, 31280, Note_on_c, 0, 71, 80
2, 31359, Note_on_c, 0, 71, 0
2, 31360, Note_on_c, 0, 73, 80
2, 31439, Note_on_c, 0, 73, 0
2, 31440, Note_on_c, 0, 64, 80
2, 34319, Note_on_c, 0, 64, 0
2, 34560, Note_on_c, 0, 61, 80
2, 34799, Note_on_c, 0, 61, 0
2, 34800, Note_on_c, 0, 66, 80
2, 35039, Note_on_c, 0, 66, 0
2, 35040, Note_on_c, 0, 54, 80
2, 35359, Note_on_c, 0, 54, 0
2, 35360, Note_on_c, 0, 56, 80
2, 35439, Note_on_c, 0, 56, 0
2, 35440, Note_on_c, 0, 57, 80
2, 35519, Note_on_c, 0, 57, 0
2, 35520, Note_on_c, 0, 56, 80
2, 35599, Note_on_c, 0, 56, 0
2, 35600, Note_on_c, 0, 57, 80
2, 35679, Note_on_c, 0, 57, 0
2, 35680, Note_on_c, 0, 59, 80
2, 35759, Note_on_c, 0, 59, 0
2, 35760, Note_on_c, 0, 57, 80
2, 35839, Note_on_c, 0, 57, 0
2, 35840, Note_on_c, 0, 59, 80
2, 35919, Note_on_c, 0, 59, 0
2, 35920, Note_on_c, 0, 61, 80
2, 35999, Note_on_c, 0, 61, 0
2, 36000, Note_on_c, 0, 59, 80
2, 36319, Note_on_c, 0, 59, 0
2, 36320, Note_on_c, 0, 61, 80
2, 36399, Note_on_c, 0, 61, 0
2, 36400, Note_on_c, 0, 62, 80
2, 36479, Note_on_c, 0, 62, 0
2, 36480, Note_on_c, 0, 61, 80
2, 36559, Note_on_c, 0, 61, 0
2, 36560, Note_on_c, 0, 62, 80
2, 36639, Note_on_c, 0, 62, 0
2, 36640, Note_on_c, 0, 64, 80
2, 36719, Note_on_c, 0, 64, 0
2, 36720, Note_on_c, 0, 62, 80
2, 36799, Note_on_c, 0, 62, 0
2, 36800, Note_on_c, 0, 61, 80
2, 36879, Note_on_c, 0, 61, 0
2, 36880, Note_on_c, 0, 59, 80
2, 36959, Note_on_c, 0, 59, 0
2, 36960, Note_on_c, 0, 61, 80
2, 37279, Note_on_c, 0, 61, 0
2, 37280, Note_on_c, 0, 59, 80
2, 37359, Note_on_c, 0, 59, 0
2, 37360, Note_on_c, 0, 57, 80
2, 37439, Note_on_c, 0, 57, 0
2, 37440, Note_on_c, 0, 59, 80
2, 37519, Note_on_c, 0, 59, 0
2, 37520, Note_on_c, 0, 57, 80
2, 37599, Note_on_c, 0, 57, 0
2, 37600, Note_on_c, 0, 56, 80
2, 37679, Note_on_c, 0, 56, 0
2, 37680, Note_on_c, 0, 57, 80
2, 37839, Note_on_c, 0, 57, 0
2, 37840, Note_on_c, 0, 61, 80
2, 37919, Note_on_c, 0, 61, 0
2, 37920, Note_on_c, 0, 66, 80
2, 38079, Note_on_c, 0, 66, 0
2, 38080, Note_on_c, 0, 61, 80
2, 38159, Note_on_c, 0, 61, 0
2, 38160, Note_on_c, 0, 57, 80
2, 38319, Note_on_c, 0, 57, 0
2, 38320, Note_on_c, 0, 56, 80
2, 38399, Note_on_c, 0, 56, 0
2, 38400, Note_on_c, 0, 57, 80
2, 38559, Note_on_c, 0, 57, 0
2, 38560, Note_on_c, 0, 59, 80
2, 38639, Note_on_c, 0, 59, 0
2, 38640, Note_on_c, 0, 61, 80
2, 38879, Note_on_c, 0, 61, 0
2, 38880, Note_on_c, 0, 57, 80
2, 39119, Note_on_c, 0, 57, 0
2, 39120, Note_on_c, 0, 61, 80
2, 39359, Note_on_c, 0, 61, 0
2, 39360, Note_on_c, 0, 66, 80
2, 39519, Note_on_c, 0, 66, 0
2, 39520, Note_on_c, 0, 64, 80
2, 39599, Note_on_c, 0, 64, 0
2, 39600, Note_on_c, 0, 63, 80
2, 39759, Note_on_c, 0, 63, 0
2, 39760, Note_on_c, 0, 66, 80
2, 39839, Note_on_c, 0, 66, 0
2, 39840, Note_on_c, 0, 71, 80
2, 39999, Note_on_c, 0, 71, 0
2, 40000, Note_on_c, 0, 66, 80
2, 40079, Note_on_c, 0, 66, 0
2, 40080, Note_on_c, 0, 63, 80
2, 40239, Note_on_c, 0, 63, 0
2, 40240, Note_on_c, 0, 59, 80
2, 40319, Note_on_c, 0, 59, 0
2, 40320, Note_on_c, 0, 61, 80
2, 40479, Note_on_c, 0, 61, 0
2, 40480, Note_on_c, 0, 63, 80
2, 40559, Note_on_c, 0, 63, 0
2, 40560, Note_on_c, 0, 64, 80
2, 40799, Note_on_c, 0, 64, 0
2, 40800, Note_on_c, 0, 56, 80
2, 41039, Note_on_c, 0, 56, 0
2, 41040, Note_on_c, 0, 59, 80
2, 41279, Note_on_c, 0, 59, 0
2, 41280, Note_on_c, 0, 64, 80
2, 41439, Note_on_c, 0, 64, 0
2, 41440, Note_on_c, 0, 63, 80
2, 41519, Note_on_c, 0, 63, 0
2, 41520, Note_on_c, 0, 61, 80
2, 41679, Note_on_c, 0, 61, 0
2, 41680, Note_on_c, 0, 64, 80
2, 41759, Note_on_c, 0, 64, 0
2, 41760, Note_on_c, 0, 69, 80
2, 41919, Note_on_c, 0, 69, 0
2, 41920, Note_on_c, 0, 64, 80
2, 41999, Note_on_c, 0, 64, 0
2, 42000, Note_on_c, 0, 61, 80
2, 42159, Note_on_c, 0, 61, 0
2, 42160, Note_on_c, 0, 63, 80
2, 42239, Note_on_c, 0, 63, 0
2, 42240, Note_on_c, 0, 60, 80
2, 42399, Note_on_c, 0, 60, 0
2, 42400, Note_on_c, 0, 61, 80
2, 42479, Note_on_c, 0, 61, 0
2, 42480, Note_on_c, 0, 63, 80
2, 42959, Note_on_c, 0, 63, 0
2, 43200, Note_on_c, 0, 69, 80
2, 43439, Note_on_c, 0, 69, 0
2, 43440, Note_on_c, 0, 68, 80
2, 43679, Note_on_c, 0, 68, 0
2, 44080, Note_on_c, 0, 76, 80
2, 44159, Note_on_c, 0, 76, 0
2, 44160, Note_on_c, 0, 75, 80
2, 44319, Note_on_c, 0, 75, 0
2, 44320, Note_on_c, 0, 76, 80
2, 44359, Note_on_c, 0, 76, 0
2, 44360, Note_on_c, 0, 78, 80
2, 44399, Note_on_c, 0, 78, 0
2, 44400, Note_on_c, 0, 72, 80
2, 44639, Note_on_c, 0, 72, 0
2, 45120, Note_on_c, 0, 63, 80
2, 45359, Note_on_c, 0, 63, 0
2, 45360, Note_on_c, 0, 56, 80
2, 45599, Note_on_c, 0, 56, 0
2, 45600, Note_on_c, 0, 68, 80
2, 45919, Note_on_c, 0, 68, 0
2, 45920, Note_on_c, 0, 66, 80
2, 45999, Note_on_c, 0, 66, 0
2, 46000, Note_on_c, 0, 64, 80
2, 46079, Note_on_c, 0, 64, 0
2, 46080, Note_on_c, 0, 66, 80
2, 46159, Note_on_c, 0, 66, 0
2, 46160, Note_on_c, 0, 64, 80
2, 46239, Note_on_c, 0, 64, 0
2, 46240, Note_on_c, 0, 63, 80
2, 46319, Note_on_c, 0, 63, 0
2, 46320, Note_on_c, 0, 64, 80
2, 46399, Note_on_c, 0, 64, 0
2, 46400, Note_on_c, 0, 63, 80
2, 46479, Note_on_c, 0, 63, 0
2, 46480, Note_on_c, 0, 61, 80
2, 46559, Note_on_c, 0, 61, 0
2, 46560, Note_on_c, 0, 63, 80
2, 46879, Note_on_c, 0, 63, 0
2, 46880, Note_on_c, 0, 61, 80
2, 46959, Note_on_c, 0, 61, 0
2, 46960, Note_on_c, 0, 60, 80
2, 47039, Note_on_c, 0, 60, 0
2, 47040, Note_on_c, 0, 61, 80
2, 47119, Note_on_c, 0, 61, 0
2, 47120, Note_on_c, 0, 60, 80
2, 47199, Note_on_c, 0, 60, 0
2, 47200, Note_on_c, 0, 58, 80
2, 47279, Note_on_c, 0, 58, 0
2, 47280, Note_on_c, 0, 60, 80
2, 47359, Note_on_c, 0, 60, 0
2, 47360, Note_on_c, 0, 61, 80
2, 47439, Note_on_c, 0, 61, 0
2, 47440, Note_on_c, 0, 63, 80
2, 47519, Note_on_c, 0, 63, 0
2, 47520, Note_on_c, 0, 61, 80
2, 47839, Note_on_c, 0, 61, 0
2, 47840, Note_on_c, 0, 63, 80
2, 47919, Note_on_c, 0, 63, 0
2, 47920, Note_on_c, 0, 64, 80
2, 47999, Note_on_c, 0, 64, 0
2, 48000, Note_on_c, 0, 63, 80
2, 48079, Note_on_c, 0, 63, 0
2, 48080, Note_on_c, 0, 64, 80
2, 48159, Note_on_c, 0, 64, 0
2, 48160, Note_on_c, 0, 66, 80
2, 48239, Note_on_c, 0, 66, 0
2, 48240, Note_on_c, 0, 64, 80
2, 48399, Note_on_c, 0, 64, 0
2, 48400, Note_on_c, 0, 61, 80
2, 48479, Note_on_c, 0, 61, 0
2, 48480, Note_on_c, 0, 56, 80
2, 48639, Note_on_c, 0, 56, 0
2, 48640, Note_on_c, 0, 61, 80
2, 48719, Note_on_c, 0, 61, 0
2, 48720, Note_on_c, 0, 64, 80
2, 48879, Note_on_c, 0, 64, 0
2, 48880, Note_on_c, 0, 66, 80
2, 48959, Note_on_c, 0, 66, 0
2, 48960, Note_on_c, 0, 64, 80
2, 49119, Note_on_c, 0, 64, 0
2, 49120, Note_on_c, 0, 63, 80
2, 49199, Note_on_c, 0, 63, 0
2, 49200, Note_on_c, 0, 61, 80
2, 49439, Note_on_c, 0, 61, 0
2, 49440, Note_on_c, 0, 69, 80
2, 49679, Note_on_c, 0, 69, 0
2, 49680, Note_on_c, 0, 66, 80
2, 49919, Note_on_c, 0, 66, 0
2, 49920, Note_on_c, 0, 61, 80
2, 50159, Note_on_c, 0, 61, 0
2, 50160, Note_on_c, 0, 66, 80
2, 50319, Note_on_c, 0, 66, 0
2, 50320, Note_on_c, 0, 63, 80
2, 50399, Note_on_c, 0, 63, 0
2, 50400, Note_on_c, 0, 58, 80
2, 50559, Note_on_c, 0, 58, 0
2, 50560, Note_on_c, 0, 63, 80
2, 50639, Note_on_c, 0, 63, 0
2, 50640, Note_on_c, 0, 66, 80
2, 50799, Note_on_c, 0, 66, 0
2, 50800, Note_on_c, 0, 68, 80
2, 50879, Note_on_c, 0, 68, 0
2, 50880, Note_on_c, 0, 66, 80
2, 51039, Note_on_c, 0, 66, 0
2, 51040, Note_on_c, 0, 64, 80
2, 51119, Note_on_c, 0, 64, 0
2, 51120, Note_on_c, 0, 63, 80
2, 51359, Note_on_c, 0, 63, 0
2, 51360, Note_on_c, 0, 71, 80
2, 51599, Note_on_c, 0, 71, 0
2, 51600, Note_on_c, 0, 68, 80
2, 51839, Note_on_c, 0, 68, 0
2, 51840, Note_on_c, 0, 63, 80
2, 52079, Note_on_c, 0, 63, 0
2, 52080, Note_on_c, 0, 68, 80
2, 52239, Note_on_c, 0, 68, 0
2, 52240, Note_on_c, 0, 64, 80
2, 52319, Note_on_c, 0, 64, 0
2, 52320, Note_on_c, 0, 59, 80
2, 52479, Note_on_c, 0, 59, 0
2, 52480, Note_on_c, 0, 64, 80
2, 52559, Note_on_c, 0, 64, 0
2, 52560, Note_on_c, 0, 68, 80
2, 52719, Note_on_c, 0, 68, 0
2, 52720, Note_on_c, 0, 69, 80
2, 52799, Note_on_c, 0, 69, 0
2, 52800, Note_on_c, 0, 68, 80
2, 52959, Note_on_c, 0, 68, 0
2, 52960, Note_on_c, 0, 66, 80
2, 53039, Note_on_c, 0, 66, 0
2, 53040, Note_on_c, 0, 64, 80
2, 53519, Note_on_c, 0, 64, 0
2, 53760, Note_on_c, 0, 68, 80
2, 53999, Note_on_c, 0, 68, 0
2, 54000, Note_on_c, 0, 69, 80
2, 54159, Note_on_c, 0, 69, 0
2, 54160, Note_on_c, 0, 66, 80
2, 54239, Note_on_c, 0, 66, 0
2, 54240, Note_on_c, 0, 61, 80
2, 54399, Note_on_c, 0, 61, 0
2, 54400, Note_on_c, 0, 66, 80
2, 54479, Note_on_c, 0, 66, 0
2, 54480, Note_on_c, 0, 69, 80
2, 54639, Note_on_c, 0, 69, 0
2, 54640, Note_on_c, 0, 71, 80
2, 54719, Note_on_c, 0, 71, 0
2, 54720, Note_on_c, 0, 69, 80
2, 54879, Note_on_c, 0, 69, 0
2, 54880, Note_on_c, 0, 68, 80
2, 54959, Note_on_c, 0, 68, 0
2, 54960, Note_on_c, 0, 66, 80
2, 55199, Note_on_c, 0, 66, 0
2, 55600, Note_on_c, 0, 63, 80
2, 55679, Note_on_c, 0, 63, 0
2, 55680, Note_on_c, 0, 64, 80
2, 55839, Note_on_c, 0, 64, 0
2, 55840, Note_on_c, 0, 66, 80
2, 55919, Note_on_c, 0, 66, 0
2, 55920, Note_on_c, 0, 60, 80
2, 56399, Note_on_c, 0, 60, 0
2, 56640, Note_on_c, 0, 63, 80
2, 56879, Note_on_c, 0, 63, 0
2, 56880, Note_on_c, 0, 64, 80
2, 56959, Note_on_c, 0, 64, 0
2, 56960, Note_on_c, 0, 66, 80
2, 57039, Note_on_c, 0, 66, 0
2, 57040, Note_on_c, 0, 68, 80
2, 57119, Note_on_c, 0, 68, 0
2, 57120, Note_on_c, 0, 69, 80
2, 57199, Note_on_c, 0, 69, 0
2, 57200, Note_on_c, 0, 66, 80
2, 57279, Note_on_c, 0, 66, 0
2, 57280, Note_on_c, 0, 68, 80
2, 57359, Note_on_c, 0, 68, 0
2, 57360, Note_on_c, 0, 70, 80
2, 57439, Note_on_c, 0, 70, 0
2, 57440, Note_on_c, 0, 68, 80
2, 57519, Note_on_c, 0, 68, 0
2, 57520, Note_on_c, 0, 70, 80
2, 57599, Note_on_c, 0, 70, 0
2, 57600, Note_on_c, 0, 72, 80
2, 57679, Note_on_c, 0, 72, 0
2, 57680, Note_on_c, 0, 70, 80
2, 57759, Note_on_c, 0, 70, 0
2, 57760, Note_on_c, 0, 72, 80
2, 57839, Note_on_c, 0, 72, 0
2, 57840, Note_on_c, 0, 73, 80
2, 57919, Note_on_c, 0, 73, 0
2, 57920, Note_on_c, 0, 64, 80
2, 57999, Note_on_c, 0, 64, 0
2, 58000, Note_on_c, 0, 66, 80
2, 58079, Note_on_c, 0, 66, 0
2, 58080, Note_on_c, 0, 68, 80
2, 58159, Note_on_c, 0, 68, 0
2, 58160, Note_on_c, 0, 66, 80
2, 58239, Note_on_c, 0, 66, 0
2, 58240, Note_on_c, 0, 64, 80
2, 58319, Note_on_c, 0, 64, 0
2, 58320, Note_on_c, 0, 63, 80
2, 58399, Note_on_c, 0, 63, 0
2, 58400, Note_on_c, 0, 66, 80
2, 58479, Note_on_c, 0, 66, 0
2, 58480, Note_on_c, 0, 68, 80
2, 58559, Note_on_c, 0, 68, 0
2, 58560, Note_on_c, 0, 69, 80
2, 58639, Note_on_c, 0, 69, 0
2, 58640, Note_on_c, 0, 68, 80
2, 58719, Note_on_c, 0, 68, 0
2, 58720, Note_on_c, 0, 66, 80
2, 58799, Note_on_c, 0, 66, 0
2, 58800, Note_on_c, 0, 64, 80
2, 58879, Note_on_c, 0, 64, 0
2, 58880, Note_on_c, 0, 61, 80
2, 58959, Note_on_c, 0, 61, 0
2, 58960, Note_on_c, 0, 64, 80
2, 59039, Note_on_c, 0, 64, 0
2, 59040, Note_on_c, 0, 68, 80
2, 59119, Note_on_c, 0, 68, 0
2, 59120, Note_on_c, 0, 64, 80
2, 59199, Note_on_c, 0, 64, 0
2, 59200, Note_on_c, 0, 68, 80
2, 59279, Note_on_c, 0, 68, 0
2, 59280, Note_on_c, 0, 73, 80
2, 59359, Note_on_c, 0, 73, 0
2, 59360, Note_on_c, 0, 72, 80
2, 59439, Note_on_c, 0, 72, 0
2, 59440, Note_on_c, 0, 70, 80
2, 59519, Note_on_c, 0, 70, 0
2, 59520, Note_on_c, 0, 72, 80
2, 59599, Note_on_c, 0, 72, 0
2, 59600, Note_on_c, 0, 73, 80
2, 59679, Note_on_c, 0, 73, 0
2, 59680, Note_on_c, 0, 75, 80
2, 59759, Note_on_c, 0, 75, 0
2, 59760, Note_on_c, 0, 73, 80
2, 61039, Note_on_c, 0, 73, 0
2, 61040, Note_on_c, 0, 72, 80
2, 61119, Note_on_c, 0, 72, 0
2, 61120, Note_on_c, 0, 70, 80
2, 61199, Note_on_c, 0, 70, 0
2, 61200, Note_on_c, 0, 72, 80
2, 61439, Note_on_c, 0, 72, 0
2, 61760, Note_on_c, 0, 73, 80
2, 61839, Note_on_c, 0, 73, 0
2, 61840, Note_on_c, 0, 68, 80
2, 61919, Note_on_c, 0, 68, 0
2, 61920, Note_on_c, 0, 64, 80
2, 61999, Note_on_c, 0, 64, 0
2, 62000, Note_on_c, 0, 68, 80
2, 62079, Note_on_c, 0, 68, 0
2, 62080, Note_on_c, 0, 64, 80
2, 62159, Note_on_c, 0, 64, 0
2, 62160, Note_on_c, 0, 61, 80
2, 62239, Note_on_c, 0, 61, 0
2, 62240, Note_on_c, 0, 64, 80
2, 62319, Note_on_c, 0, 64, 0
2, 62320, Note_on_c, 0, 68, 80
2, 62399, Note_on_c, 0, 68, 0
2, 62400, Note_on_c, 0, 73, 80
2, 62479, Note_on_c, 0, 73, 0
2, 62480, Note_on_c, 0, 72, 80
2, 62559, Note_on_c, 0, 72, 0
2, 62560, Note_on_c, 0, 70, 80
2, 62639, Note_on_c, 0, 70, 0
2, 62640, Note_on_c, 0, 72, 80
2, 62719, Note_on_c, 0, 72, 0
2, 62720, Note_on_c, 0, 68, 80
2, 62799, Note_on_c, 0, 68, 0
2, 62800, Note_on_c, 0, 63, 80
2, 62879, Note_on_c, 0, 63, 0
2, 62880, Note_on_c, 0, 60, 80
2, 62959, Note_on_c, 0, 60, 0
2, 62960, Note_on_c, 0, 61, 80
2, 63039, Note_on_c, 0, 61, 0
2, 63040, Note_on_c, 0, 63, 80
2, 63119, Note_on_c, 0, 63, 0
2, 63120, Note_on_c, 0, 64, 80
2, 63199, Note_on_c, 0, 64, 0
2, 63200, Note_on_c, 0, 63, 80
2, 63279, Note_on_c, 0, 63, 0
2, 63280, Note_on_c, 0, 61, 80
2, 63359, Note_on_c, 0, 61, 0
2, 63360, Note_on_c, 0, 63, 80
2, 63519, Note_on_c, 0, 63, 0
2, 63520, Note_on_c, 0, 72, 80
2, 63599, Note_on_c, 0, 72, 0
2, 63600, Note_on_c, 0, 73, 80
2, 63919, Note_on_c, 0, 73, 0
2, 63920, Note_on_c, 0, 72, 80
2, 63999, Note_on_c, 0, 72, 0
2, 64000, Note_on_c, 0, 70, 80
2, 64079, Note_on_c, 0, 70, 0
2, 64080, Note_on_c, 0, 72, 80
2, 64159, Note_on_c, 0, 72, 0
2, 64160, Note_on_c, 0, 73, 80
2, 64239, Note_on_c, 0, 73, 0
2, 64240, Note_on_c, 0, 75, 80
2, 64319, Note_on_c, 0, 75, 0
2, 64320, Note_on_c, 0, 76, 80
2, 64399, Note_on_c, 0, 76, 0
2, 64400, Note_on_c, 0, 75, 80
2, 64479, Note_on_c, 0, 75, 0
2, 64480, Note_on_c, 0, 73, 80
2, 64559, Note_on_c, 0, 73, 0
2, 64560, Note_on_c, 0, 75, 80
2, 64719, Note_on_c, 0, 75, 0
2, 64720, Note_on_c, 0, 66, 80
2, 64799, Note_on_c, 0, 66, 0
2, 64800, Note_on_c, 0, 64, 80
2, 64879, Note_on_c, 0, 64, 0
2, 64880, Note_on_c, 0, 63, 80
2, 64959, Note_on_c, 0, 63, 0
2, 64960, Note_on_c, 0, 61, 80
2, 65039, Note_on_c, 0, 61, 0
2, 65040, Note_on_c, 0, 71, 80
2, 65099, Note_on_c, 0, 71, 0
2, 65100, Note_on_c, 0, 69, 80
2, 65159, Note_on_c, 0, 69, 0
2, 65160, Note_on_c, 0, 71, 80
2, 65219, Note_on_c, 0, 71, 0
2, 65220, Note_on_c, 0, 69, 80
2, 65279, Note_on_c, 0, 69, 0
2, 65280, Note_on_c, 0, 71, 80
2, 65339, Note_on_c, 0, 71, 0
2, 65340, Note_on_c, 0, 69, 80
2, 65399, Note_on_c, 0, 69, 0
2, 65400, Note_on_c, 0, 71, 80
2, 65459, Note_on_c, 0, 71, 0
2, 65460, Note_on_c, 0, 69, 80
2, 65519, Note_on_c, 0, 69, 0
2, 65520, Note_on_c, 0, 68, 80
2, 65759, Note_on_c, 0, 68, 0
2, 66160, Note_on_c, 0, 69, 80
2, 66239, Note_on_c, 0, 69, 0
2, 66240, Note_on_c, 0, 68, 80
2, 66399, Note_on_c, 0, 68, 0
2, 66400, Note_on_c, 0, 66, 80
2, 66479, Note_on_c, 0, 66, 0
2, 66480, Note_on_c, 0, 64, 80
2, 66559, Note_on_c, 0, 64, 0
2, 66560, Note_on_c, 0, 63, 80
2, 66639, Note_on_c, 0, 63, 0
2, 66640, Note_on_c, 0, 61, 80
2, 66719, Note_on_c, 0, 61, 0
2, 66720, Note_on_c, 0, 68, 80
2, 67199, Note_on_c, 0, 68, 0
2, 67200, Note_on_c, 0, 66, 80
2, 67279, Note_on_c, 0, 66, 0
2, 67280, Note_on_c, 0, 68, 80
2, 67359, Note_on_c, 0, 68, 0
2, 67360, Note_on_c, 0, 69, 80
2, 67439, Note_on_c, 0, 69, 0
2, 67440, Note_on_c, 0, 65, 80
2, 68159, Note_on_c, 0, 65, 0
2, 72960, Note_on_c, 0, 68, 80
2, 73199, Note_on_c, 0, 68, 0
2, 73200, Note_on_c, 0, 73, 80
2, 73439, Note_on_c, 0, 73, 0
2, 73440, Note_on_c, 0, 61, 80
2, 73759, Note_on_c, 0, 61, 0
2, 73760, Note_on_c, 0, 63, 80
2, 73839, Note_on_c, 0, 63, 0
2, 73840, Note_on_c, 0, 64, 80
2, 73919, Note_on_c, 0, 64, 0
2, 73920, Note_on_c, 0, 63, 80
2, 73999, Note_on_c, 0, 63, 0
2, 74000, Note_on_c, 0, 64, 80
2, 74079, Note_on_c, 0, 64, 0
2, 74080, Note_on_c, 0, 66, 80
2, 74159, Note_on_c, 0, 66, 0
2, 74160, Note_on_c, 0, 64, 80
2, 74239, Note_on_c, 0, 64, 0
2, 74240, Note_on_c, 0, 66, 80
2, 74319, Note_on_c, 0, 66, 0
2, 74320, Note_on_c, 0, 68, 80
2, 74399, Note_on_c, 0, 68, 0
2, 74400, Note_on_c, 0, 66, 80
2, 74719, Note_on_c, 0, 66, 0
2, 74720, Note_on_c, 0, 68, 80
2, 74799, Note_on_c, 0, 68, 0
2, 74800, Note_on_c, 0, 69, 80
2, 74879, Note_on_c, 0, 69, 0
2, 74880, Note_on_c, 0, 68, 80
2, 74959, Note_on_c, 0, 68, 0
2, 74960, Note_on_c, 0, 69, 80
2, 75039, Note_on_c, 0, 69, 0
2, 75040, Note_on_c, 0, 71, 80
2, 75119, Note_on_c, 0, 71, 0
2, 75120, Note_on_c, 0, 69, 80
2, 75199, Note_on_c, 0, 69, 0
2, 75200, Note_on_c, 0, 68, 80
2, 75279, Note_on_c, 0, 68, 0
2, 75280, Note_on_c, 0, 66, 80
2, 75359, Note_on_c, 0, 66, 0
2, 75360, Note_on_c, 0, 68, 80
2, 75679, Note_on_c, 0, 68, 0
2, 75680, Note_on_c, 0, 66, 80
2, 75759, Note_on_c, 0, 66, 0
2, 75760, Note_on_c, 0, 64, 80
2, 75839, Note_on_c, 0, 64, 0
2, 75840, Note_on_c, 0, 66, 80
2, 75919, Note_on_c, 0, 66, 0
2, 75920, Note_on_c, 0, 64, 80
2, 75999, Note_on_c, 0, 64, 0
2, 76000, Note_on_c, 0, 63, 80
2, 76079, Note_on_c, 0, 63, 0
2, 76080, Note_on_c, 0, 64, 80
2, 76239, Note_on_c, 0, 64, 0
2, 76240, Note_on_c, 0, 68, 80
2, 76319, Note_on_c, 0, 68, 0
2, 76320, Note_on_c, 0, 73, 80
2, 76479, Note_on_c, 0, 73, 0
2, 76480, Note_on_c, 0, 68, 80
2, 76559, Note_on_c, 0, 68, 0
2, 76560, Note_on_c, 0, 64, 80
2, 76719, Note_on_c, 0, 64, 0
2, 76720, Note_on_c, 0, 63, 80
2, 76799, Note_on_c, 0, 63, 0
2, 76800, Note_on_c, 0, 64, 80
2, 76959, Note_on_c, 0, 64, 0
2, 76960, Note_on_c, 0, 66, 80
2, 77039, Note_on_c, 0, 66, 0
2, 77040, Note_on_c, 0, 68, 80
2, 77119, Note_on_c, 0, 68, 0
2, 77120, Note_on_c, 0, 69, 80
2, 77199, Note_on_c, 0, 69, 0
2, 77200, Note_on_c, 0, 71, 80
2, 77279, Note_on_c, 0, 71, 0
2, 77280, Note_on_c, 0, 69, 80
2, 77359, Note_on_c, 0, 69, 0
2, 77360, Note_on_c, 0, 68, 80
2, 77439, Note_on_c, 0, 68, 0
2, 77440, Note_on_c, 0, 66, 80
2, 77519, Note_on_c, 0, 66, 0
2, 77520, Note_on_c, 0, 65, 80
2, 77759, Note_on_c, 0, 65, 0
2, 77760, Note_on_c, 0, 74, 80
2, 77999, Note_on_c, 0, 74, 0
2, 78000, Note_on_c, 0, 73, 80
2, 78239, Note_on_c, 0, 73, 0
2, 78720, Note_on_c, 0, 61, 80
2, 79199, Note_on_c, 0, 61, 0
2, 79200, Note_on_c, 0, 62, 80
2, 79279, Note_on_c, 0, 62, 0
2, 79280, Note_on_c, 0, 61, 80
2, 79359, Note_on_c, 0, 61, 0
2, 79360, Note_on_c, 0, 64, 80
2, 79439, Note_on_c, 0, 64, 0
2, 79440, Note_on_c, 0, 62, 80
2, 79919, Note_on_c, 0, 62, 0
2, 79920, Note_on_c, 0, 61, 80
2, 81039, Note_on_c, 0, 61, 0
2, 81040, Note_on_c, 0, 66, 80
2, 81119, Note_on_c, 0, 66, 0
2, 81120, Note_on_c, 0, 69, 80
2, 81279, Note_on_c, 0, 69, 0
2, 81280, Note_on_c, 0, 66, 80
2, 81359, Note_on_c, 0, 66, 0
2, 81360, Note_on_c, 0, 61, 80
2, 81519, Note_on_c, 0, 61, 0
2, 81520, Note_on_c, 0, 59, 80
2, 81599, Note_on_c, 0, 59, 0
2, 81600, Note_on_c, 0, 61, 80
2, 81759, Note_on_c, 0, 61, 0
2, 81760, Note_on_c, 0, 63, 80
2, 81839, Note_on_c, 0, 63, 0
2, 81840, Note_on_c, 0, 64, 80
2, 81999, Note_on_c, 0, 64, 0
2, 82000, Note_on_c, 0, 59, 80
2, 82079, Note_on_c, 0, 59, 0
2, 82080, Note_on_c, 0, 56, 80
2, 82239, Note_on_c, 0, 56, 0
2, 82240, Note_on_c, 0, 59, 80
2, 82319, Note_on_c, 0, 59, 0
2, 82320, Note_on_c, 0, 64, 80
2, 82479, Note_on_c, 0, 64, 0
2, 82480, Note_on_c, 0, 68, 80
2, 82559, Note_on_c, 0, 68, 0
2, 82560, Note_on_c, 0, 66, 80
2, 82719, Note_on_c, 0, 66, 0
2, 82720, Note_on_c, 0, 64, 80
2, 82799, Note_on_c, 0, 64, 0
2, 82800, Note_on_c, 0, 63, 80
2, 82959, Note_on_c, 0, 63, 0
2, 82960, Note_on_c, 0, 68, 80
2, 83039, Note_on_c, 0, 68, 0
2, 83040, Note_on_c, 0, 71, 80
2, 83199, Note_on_c, 0, 71, 0
2, 83200, Note_on_c, 0, 69, 80
2, 83279, Note_on_c, 0, 69, 0
2, 83280, Note_on_c, 0, 63, 80
2, 83439, Note_on_c, 0, 63, 0
2, 83440, Note_on_c, 0, 61, 80
2, 83519, Note_on_c, 0, 61, 0
2, 83520, Note_on_c, 0, 63, 80
2, 83679, Note_on_c, 0, 63, 0
2, 83680, Note_on_c, 0, 65, 80
2, 83759, Note_on_c, 0, 65, 0
2, 83760, Note_on_c, 0, 66, 80
2, 83919, Note_on_c, 0, 66, 0
2, 83920, Note_on_c, 0, 61, 80
2, 83999, Note_on_c, 0, 61, 0
2, 84000, Note_on_c, 0, 57, 80
2, 84159, Note_on_c, 0, 57, 0
2, 84160, Note_on_c, 0, 61, 80
2, 84239, Note_on_c, 0, 61, 0
2, 84240, Note_on_c, 0, 66, 80
2, 84399, Note_on_c, 0, 66, 0
2, 84400, Note_on_c, 0, 69, 80
2, 84479, Note_on_c, 0, 69, 0
2, 84480, Note_on_c, 0, 68, 80
2, 84639, Note_on_c, 0, 68, 0
2, 84640, Note_on_c, 0, 66, 80
2, 84719, Note_on_c, 0, 66, 0
2, 84720, Note_on_c, 0, 64, 80
2, 84879, Note_on_c, 0, 64, 0
2, 84880, Note_on_c, 0, 63, 80
2, 84959, Note_on_c, 0, 63, 0
2, 84960, Note_on_c, 0, 64, 80
2, 85119, Note_on_c, 0, 64, 0
2, 85120, Note_on_c, 0, 66, 80
2, 85199, Note_on_c, 0, 66, 0
2, 85200, Note_on_c, 0, 68, 80
2, 85359, Note_on_c, 0, 68, 0
2, 85360, Note_on_c, 0, 66, 80
2, 85439, Note_on_c, 0, 66, 0
2, 85440, Note_on_c, 0, 64, 80
2, 85599, Note_on_c, 0, 64, 0
2, 85600, Note_on_c, 0, 68, 80
2, 85679, Note_on_c, 0, 68, 0
2, 85680, Note_on_c, 0, 63, 80
2, 85839, Note_on_c, 0, 63, 0
2, 85840, Note_on_c, 0, 61, 80
2, 85919, Note_on_c, 0, 61, 0
2, 85920, Note_on_c, 0, 63, 80
2, 86079, Note_on_c, 0, 63, 0
2, 86080, Note_on_c, 0, 64, 80
2, 86159, Note_on_c, 0, 64, 0
2, 86160, Note_on_c, 0, 66, 80
2, 86319, Note_on_c, 0, 66, 0
2, 86320, Note_on_c, 0, 64, 80
2, 86399, Note_on_c, 0, 64, 0
2, 86400, Note_on_c, 0, 63, 80
2, 86559, Note_on_c, 0, 63, 0
2, 86560, Note_on_c, 0, 66, 80
2, 86639, Note_on_c, 0, 66, 0
2, 86640, Note_on_c, 0, 61, 80
2, 86799, Note_on_c, 0, 61, 0
2, 86800, Note_on_c, 0, 60, 80
2, 86879, Note_on_c, 0, 60, 0
2, 86880, Note_on_c, 0, 61, 80
2, 87039, Note_on_c, 0, 61, 0
2, 87040, Note_on_c, 0, 63, 80
2, 87119, Note_on_c, 0, 63, 0
2, 87120, Note_on_c, 0, 64, 80
2, 87279, Note_on_c, 0, 64, 0
2, 87280, Note_on_c, 0, 66, 80
2, 87359, Note_on_c, 0, 66, 0
2, 87360, Note_on_c, 0, 68, 80
2, 87519, Note_on_c, 0, 68, 0
2, 87520, Note_on_c, 0, 66, 80
2, 87599, Note_on_c, 0, 66, 0
2, 87600, Note_on_c, 0, 64, 80
2, 87759, Note_on_c, 0, 64, 0
2, 87760, Note_on_c, 0, 66, 80
2, 87839, Note_on_c, 0, 66, 0
2, 87840, Note_on_c, 0, 64, 80
2, 87999, Note_on_c, 0, 64, 0
2, 88000, Note_on_c, 0, 63, 80
2, 88079, Note_on_c, 0, 63, 0
2, 88080, Note_on_c, 0, 61, 80
2, 88319, Note_on_c, 0, 61, 0
2, 88320, Note_on_c, 0, 69, 80
2, 88559, Note_on_c, 0, 69, 0
2, 88560, Note_on_c, 0, 68, 80
2, 88799, Note_on_c, 0, 68, 0
2, 88800, Note_on_c, 0, 60, 80
2, 89039, Note_on_c, 0, 60, 0
2, 89280, Note_on_c, 0, 62, 80
2, 89519, Note_on_c, 0, 62, 0
2, 89520, Note_on_c, 0, 61, 80
2, 89759, Note_on_c, 0, 61, 0
2, 90240, Note_on_c, 0, 61, 80
2, 90479, Note_on_c, 0, 61, 0
2, 90480, Note_on_c, 0, 68, 80
2, 90719, Note_on_c, 0, 68, 0
2, 91200, Note_on_c, 0, 68, 80
2, 91439, Note_on_c, 0, 68, 0
2, 91440, Note_on_c, 0, 63, 80
2, 91679, Note_on_c, 0, 63, 0
2, 92160, Note_on_c, 0, 69, 80
2, 92399, Note_on_c, 0, 69, 0
2, 92400, Note_on_c, 0, 70, 80
2, 92639, Note_on_c, 0, 70, 0
2, 93120, Note_on_c, 0, 70, 80
2, 93359, Note_on_c, 0, 70, 0
2, 93360, Note_on_c, 0, 65, 80
2, 93599, Note_on_c, 0, 65, 0
2, 94080, Note_on_c, 0, 70, 80
2, 94319, Note_on_c, 0, 70, 0
2, 94320, Note_on_c, 0, 63, 80
2, 94559, Note_on_c, 0, 63, 0
2, 96000, Note_on_c, 0, 64, 80
2, 96239, Note_on_c, 0, 64, 0
2, 96240, Note_on_c, 0, 59, 80
2, 96479, Note_on_c, 0, 59, 0
2, 96480, Note_on_c, 0, 71, 80
2, 96799, Note_on_c, 0, 71, 0
2, 96800, Note_on_c, 0, 69, 80
2, 96879, Note_on_c, 0, 69, 0
2, 96880, Note_on_c, 0, 68, 80
2, 96959, Note_on_c, 0, 68, 0
2, 96960, Note_on_c, 0, 69, 80
2, 97039, Note_on_c, 0, 69, 0
2, 97040, Note_on_c, 0, 68, 80
2, 97119, Note_on_c, 0, 68, 0
2, 97120, Note_on_c, 0, 66, 80
2, 97199, Note_on_c, 0, 66, 0
2, 97200, Note_on_c, 0, 68, 80
2, 97279, Note_on_c, 0, 68, 0
2, 97280, Note_on_c, 0, 66, 80
2, 97359, Note_on_c, 0, 66, 0
2, 97360, Note_on_c, 0, 64, 80
2, 97439, Note_on_c, 0, 64, 0
2, 97440, Note_on_c, 0, 66, 80
2, 97759, Note_on_c, 0, 66, 0
2, 97760, Note_on_c, 0, 64, 80
2, 97839, Note_on_c, 0, 64, 0
2, 97840, Note_on_c, 0, 63, 80
2, 97919, Note_on_c, 0, 63, 0
2, 97920, Note_on_c, 0, 64, 80
2, 97999, Note_on_c, 0, 64, 0
2, 98000, Note_on_c, 0, 63, 80
2, 98079, Note_on_c, 0, 63, 0
2, 98080, Note_on_c, 0, 61, 80
2, 98159, Note_on_c, 0, 61, 0
2, 98160, Note_on_c, 0, 63, 80
2, 98239, Note_on_c, 0, 63, 0
2, 98240, Note_on_c, 0, 64, 80
2, 98319, Note_on_c, 0, 64, 0
2, 98320, Note_on_c, 0, 66, 80
2, 98399, Note_on_c, 0, 66, 0
2, 98400, Note_on_c, 0, 64, 80
2, 98719, Note_on_c, 0, 64, 0
2, 98720, Note_on_c, 0, 66, 80
2, 98799, Note_on_c, 0, 66, 0
2, 98800, Note_on_c, 0, 68, 80
2, 98879, Note_on_c, 0, 68, 0
2, 98880, Note_on_c, 0, 66, 80
2, 98959, Note_on_c, 0, 66, 0
2, 98960, Note_on_c, 0, 68, 80
2, 99039, Note_on_c, 0, 68, 0
2, 99040, Note_on_c, 0, 69, 80
2, 99119, Note_on_c, 0, 69, 0
2, 99120, Note_on_c, 0, 68, 80
2, 99279, Note_on_c, 0, 68, 0
2, 99280, Note_on_c, 0, 64, 80
2, 99359, Note_on_c, 0, 64, 0
2, 99360, Note_on_c, 0, 59, 80
2, 99519, Note_on_c, 0, 59, 0
2, 99520, Note_on_c, 0, 64, 80
2, 99599, Note_on_c, 0, 64, 0
2, 99600, Note_on_c, 0, 68, 80
2, 99759, Note_on_c, 0, 68, 0
2, 99760, Note_on_c, 0, 69, 80
2, 99839, Note_on_c, 0, 69, 0
2, 99840, Note_on_c, 0, 68, 80
2, 99999, Note_on_c, 0, 68, 0
2, 100000, Note_on_c, 0, 66, 80
2, 100079, Note_on_c, 0, 66, 0
2, 100080, Note_on_c, 0, 64, 80
2, 100319, Note_on_c, 0, 64, 0
2, 100320, Note_on_c, 0, 68, 80
2, 100559, Note_on_c, 0, 68, 0
2, 100560, Note_on_c, 0, 73, 80
2, 100719, Note_on_c, 0, 73, 0
2, 100720, Note_on_c, 0, 71, 80
2, 100799, Note_on_c, 0, 71, 0
2, 100800, Note_on_c, 0, 69, 80
2, 100959, Note_on_c, 0, 69, 0
2, 100960, Note_on_c, 0, 73, 80
2, 101039, Note_on_c, 0, 73, 0
2, 101040, Note_on_c, 0, 71, 80
2, 101359, Note_on_c, 0, 71, 0
2, 101360, Note_on_c, 0, 73, 80
2, 101439, Note_on_c, 0, 73, 0
2, 101440, Note_on_c, 0, 74, 80
2, 101519, Note_on_c, 0, 74, 0
2, 101520, Note_on_c, 0, 73, 80
2, 101599, Note_on_c, 0, 73, 0
2, 101600, Note_on_c, 0, 71, 80
2, 101679, Note_on_c, 0, 71, 0
2, 101680, Note_on_c, 0, 69, 80
2, 101759, Note_on_c, 0, 69, 0
2, 101760, Note_on_c, 0, 68, 80
2, 101839, Note_on_c, 0, 68, 0
2, 101840, Note_on_c, 0, 69, 80
2, 101919, Note_on_c, 0, 69, 0
2, 101920, Note_on_c, 0, 71, 80
2, 101999, Note_on_c, 0, 71, 0
2, 102000, Note_on_c, 0, 69, 80
2, 102079, Note_on_c, 0, 69, 0
2, 102080, Note_on_c, 0, 68, 80
2, 102159, Note_on_c, 0, 68, 0
2, 102160, Note_on_c, 0, 66, 80
2, 102239, Note_on_c, 0, 66, 0
2, 102240, Note_on_c, 0, 68, 80
2, 102319, Note_on_c, 0, 68, 0
2, 102320, Note_on_c, 0, 66, 80
2, 102399, Note_on_c, 0, 66, 0
2, 102400, Note_on_c, 0, 69, 80
2, 102479, Note_on_c, 0, 69, 0
2, 102480, Note_on_c, 0, 68, 80
2, 102559, Note_on_c, 0, 68, 0
2, 102560, Note_on_c, 0, 69, 80
2, 102639, Note_on_c, 0, 69, 0
2, 102640, Note_on_c, 0, 71, 80
2, 102719, Note_on_c, 0, 71, 0
2, 102720, Note_on_c, 0, 73, 80
2, 102799, Note_on_c, 0, 73, 0
2, 102800, Note_on_c, 0, 71, 80
2, 102879, Note_on_c, 0, 71, 0
2, 102880, Note_on_c, 0, 69, 80
2, 102959, Note_on_c, 0, 69, 0
2, 102960, Note_on_c, 0, 71, 80
2, 103199, Note_on_c, 0, 71, 0
2, 103200, Note_on_c, 0, 68, 80
2, 103439, Note_on_c, 0, 68, 0
2, 103440, Note_on_c, 0, 64, 80
2, 103679, Note_on_c, 0, 64, 0
2, 103680, Note_on_c, 0, 71, 80
2, 103919, Note_on_c, 0, 71, 0
2, 103920, Note_on_c, 0, 66, 80
2, 104159, Note_on_c, 0, 66, 0
2, 104400, Note_on_c, 0, 70, 80
2, 104639, Note_on_c, 0, 70, 0
2, 104880, Note_on_c, 0, 63, 80
2, 108239, Note_on_c, 0, 63, 0
2, 108480, Note_on_c, 0, 63, 80
2, 108719, Note_on_c, 0, 63, 0
2, 108720, Note_on_c, 0, 58, 80
2, 108959, Note_on_c, 0, 58, 0
2, 109440, Note_on_c, 0, 63, 80
2, 109679, Note_on_c, 0, 63, 0
2, 109680, Note_on_c, 0, 64, 80
2, 110159, Note_on_c, 0, 64, 0
2, 110400, Note_on_c, 0, 64, 80
2, 110639, Note_on_c, 0, 64, 0
2, 110640, Note_on_c, 0, 59, 80
2, 111119, Note_on_c, 0, 59, 0
2, 111360, Note_on_c, 0, 64, 80
2, 111599, Note_on_c, 0, 64, 0
2, 111600, Note_on_c, 0, 66, 80
2, 111759, Note_on_c, 0, 66, 0
2, 111760, Note_on_c, 0, 63, 80
2, 111839, Note_on_c, 0, 63, 0
2, 111840, Note_on_c, 0, 60, 80
2, 111999, Note_on_c, 0, 60, 0
2, 112000, Note_on_c, 0, 63, 80
2, 112079, Note_on_c, 0, 63, 0
2, 112080, Note_on_c, 0, 66, 80
2, 112239, Note_on_c, 0, 66, 0
2, 112240, Note_on_c, 0, 64, 80
2, 112319, Note_on_c, 0, 64, 0
2, 112320, Note_on_c, 0, 66, 80
2, 112479, Note_on_c, 0, 66, 0
2, 112480, Note_on_c, 0, 68, 80
2, 112559, Note_on_c, 0, 68, 0
2, 112560, Note_on_c, 0, 69, 80
2, 112679, Note_on_c, 0, 69, 0
2, 112680, Note_on_c, 0, 66, 80
2, 112799, Note_on_c, 0, 66, 0
2, 112800, Note_on_c, 0, 63, 80
2, 112919, Note_on_c, 0, 63, 0
2, 112920, Note_on_c, 0, 66, 80
2, 113039, Note_on_c, 0, 66, 0
2, 113040, Note_on_c, 0, 69, 80
2, 113199, Note_on_c, 0, 69, 0
2, 113200, Note_on_c, 0, 68, 80
2, 113279, Note_on_c, 0, 68, 0
2, 113280, Note_on_c, 0, 70, 80
2, 113439, Note_on_c, 0, 70, 0
2, 113440, Note_on_c, 0, 72, 80
2, 113519, Note_on_c, 0, 72, 0
2, 113520, Note_on_c, 0, 73, 80
2, 113679, Note_on_c, 0, 73, 0
2, 113680, Note_on_c, 0, 69, 80
2, 113759, Note_on_c, 0, 69, 0
2, 113760, Note_on_c, 0, 66, 80
2, 113919, Note_on_c, 0, 66, 0
2, 113920, Note_on_c, 0, 68, 80
2, 113999, Note_on_c, 0, 68, 0
2, 114000, Note_on_c, 0, 73, 80
2, 114159, Note_on_c, 0, 73, 0
2, 114160, Note_on_c, 0, 72, 80
2, 114239, Note_on_c, 0, 72, 0
2, 114240, Note_on_c, 0, 73, 80
2, 114399, Note_on_c, 0, 73, 0
2, 114400, Note_on_c, 0, 73, 80
2, 114479, Note_on_c, 0, 73, 0
2, 114480, Note_on_c, 0, 76, 80
2, 114559, Note_on_c, 0, 76, 0
2, 114560, Note_on_c, 0, 73, 80
2, 114639, Note_on_c, 0, 73, 0
2, 114640, Note_on_c, 0, 69, 80
2, 114719, Note_on_c, 0, 69, 0
2, 114720, Note_on_c, 0, 64, 80
2, 114799, Note_on_c, 0, 64, 0
2, 114800, Note_on_c, 0, 66, 80
2, 114879, Note_on_c, 0, 66, 0
2, 114880, Note_on_c, 0, 68, 80
2, 114959, Note_on_c, 0, 68, 0
2, 114960, Note_on_c, 0, 69, 80
2, 115439, Note_on_c, 0, 69, 0
2, 115440, Note_on_c, 0, 68, 80
2, 115679, Note_on_c, 0, 68, 0
2, 115680, Note_on_c, 0, 60, 80
2, 115919, Note_on_c, 0, 60, 0
2, 116160, Note_on_c, 0, 62, 80
2, 116399, Note_on_c, 0, 62, 0
2, 116400, Note_on_c, 0, 61, 80
2, 116559, Note_on_c, 0, 61, 0
2, 116560, Note_on_c, 0, 63, 80
2, 116639, Note_on_c, 0, 63, 0
2, 116640, Note_on_c, 0, 64, 80
2, 116719, Note_on_c, 0, 64, 0
2, 116720, Note_on_c, 0, 63, 80
2, 116799, Note_on_c, 0, 63, 0
2, 116800, Note_on_c, 0, 61, 80
2, 116879, Note_on_c, 0, 61, 0
2, 116880, Note_on_c, 0, 60, 80
2, 117039, Note_on_c, 0, 60, 0
2, 117040, Note_on_c, 0, 68, 80
2, 117119, Note_on_c, 0, 68, 0
2, 117120, Note_on_c, 0, 69, 80
2, 117199, Note_on_c, 0, 69, 0
2, 117200, Note_on_c, 0, 68, 80
2, 117279, Note_on_c, 0, 68, 0
2, 117280, Note_on_c, 0, 66, 80
2, 117359, Note_on_c, 0, 66, 0
2, 117360, Note_on_c, 0, 68, 80
2, 117599, Note_on_c, 0, 68, 0
2, 117600, Note_on_c, 0, 64, 80
2, 117839, Note_on_c, 0, 64, 0
2, 117840, Note_on_c, 0, 61, 80
2, 118079, Note_on_c, 0, 61, 0
2, 118080, Note_on_c, 0, 68, 80
2, 118319, Note_on_c, 0, 68, 0
2, 118320, Note_on_c, 0, 63, 80
2, 118559, Note_on_c, 0, 63, 0
2, 119040, Note_on_c, 0, 63, 80
2, 119279, Note_on_c, 0, 63, 0
2, 119280, Note_on_c, 0, 75, 80
2, 119519, Note_on_c, 0, 75, 0
2, 119520, Note_on_c, 0, 63, 80
2, 119759, Note_on_c, 0, 63, 0
2, 119760, Note_on_c, 0, 59, 80
2, 119999, Note_on_c, 0, 59, 0
2, 120000, Note_on_c, 0, 66, 80
2, 120239, Note_on_c, 0, 66, 0
2, 120240, Note_on_c, 0, 61, 80
2, 120479, Note_on_c, 0, 61, 0
2, 120960, Note_on_c, 0, 61, 80
2, 121199, Note_on_c, 0, 61, 0
2, 121200, Note_on_c, 0, 73, 80
2, 121439, Note_on_c, 0, 73, 0
2, 121440, Note_on_c, 0, 61, 80
2, 121679, Note_on_c, 0, 61, 0
2, 121680, Note_on_c, 0, 57, 80
2, 121919, Note_on_c, 0, 57, 0
2, 121920, Note_on_c, 0, 64, 80
2, 122159, Note_on_c, 0, 64, 0
2, 122160, Note_on_c, 0, 59, 80
2, 122399, Note_on_c, 0, 59, 0
2, 122400, Note_on_c, 0, 56, 80
2, 122639, Note_on_c, 0, 56, 0
2, 122640, Note_on_c, 0, 59, 80
2, 122879, Note_on_c, 0, 59, 0
2, 122880, Note_on_c, 0, 64, 80
2, 123119, Note_on_c, 0, 64, 0
2, 123120, Note_on_c, 0, 63, 80
2, 123359, Note_on_c, 0, 63, 0
2, 123360, Note_on_c, 0, 60, 80
2, 123599, Note_on_c, 0, 60, 0
2, 123600, Note_on_c, 0, 63, 80
2, 123839, Note_on_c, 0, 63, 0
2, 123840, Note_on_c, 0, 68, 80
2, 124079, Note_on_c, 0, 68, 0
2, 124080, Note_on_c, 0, 66, 80
2, 124239, Note_on_c, 0, 66, 0
2, 124240, Note_on_c, 0, 63, 80
2, 124319, Note_on_c, 0, 63, 0
2, 124320, Note_on_c, 0, 60, 80
2, 124479, Note_on_c, 0, 60, 0
2, 124480, Note_on_c, 0, 63, 80
2, 124559, Note_on_c, 0, 63, 0
2, 124560, Note_on_c, 0, 66, 80
2, 124719, Note_on_c, 0, 66, 0
2, 124720, Note_on_c, 0, 69, 80
2, 124799, Note_on_c, 0, 69, 0
2, 124800, Note_on_c, 0, 68, 80
2, 124959, Note_on_c, 0, 68, 0
2, 124960, Note_on_c, 0, 66, 80
2, 125039, Note_on_c, 0, 66, 0
2, 125040, Note_on_c, 0, 75, 80
2, 125519, Note_on_c, 0, 75, 0
2, 125760, Note_on_c, 0, 63, 80
2, 125999, Note_on_c, 0, 63, 0
2, 126000, Note_on_c, 0, 64, 80
2, 126079, Note_on_c, 0, 64, 0
2, 126080, Note_on_c, 0, 66, 80
2, 126159, Note_on_c, 0, 66, 0
2, 126160, Note_on_c, 0, 68, 80
2, 126239, Note_on_c, 0, 68, 0
2, 126240, Note_on_c, 0, 63, 80
2, 126559, Note_on_c, 0, 63, 0
2, 126560, Note_on_c, 0, 65, 80
2, 126639, Note_on_c, 0, 65, 0
2, 126640, Note_on_c, 0, 66, 80
2, 126719, Note_on_c, 0, 66, 0
2, 126720, Note_on_c, 0, 61, 80
2, 126959, Note_on_c, 0, 61, 0
2, 126960, Note_on_c, 0, 68, 80
2, 127199, Note_on_c, 0, 68, 0
2, 127680, Note_on_c, 0, 63, 80
2, 127919, Note_on_c, 0, 63, 0
2, 127920, Note_on_c, 0, 56, 80
2, 128159, Note_on_c, 0, 56, 0
2, 128160, Note_on_c, 0, 68, 80
2, 128479, Note_on_c, 0, 68, 0
2, 128480, Note_on_c, 0, 66, 80
2, 128559, Note_on_c, 0, 66, 0
2, 128560, Note_on_c, 0, 64, 80
2, 128639, Note_on_c, 0, 64, 0
2, 128640, Note_on_c, 0, 66, 80
2, 128719, Note_on_c, 0, 66, 0
2, 128720, Note_on_c, 0, 64, 80
2, 128799, Note_on_c, 0, 64, 0
2, 128800, Note_on_c, 0, 63, 80
2, 128879, Note_on_c, 0, 63, 0
2, 128880, Note_on_c, 0, 64, 80
2, 128959, Note_on_c, 0, 64, 0
2, 128960, Note_on_c, 0, 63, 80
2, 129039, Note_on_c, 0, 63, 0
2, 129040, Note_on_c, 0, 61, 80
2, 129119, Note_on_c, 0, 61, 0
2, 129120, Note_on_c, 0, 63, 80
2, 129439, Note_on_c, 0, 63, 0
2, 129440, Note_on_c, 0, 61, 80
2, 129519, Note_on_c, 0, 61, 0
2, 129520, Note_on_c, 0, 60, 80
2, 129599, Note_on_c, 0, 60, 0
2, 129600, Note_on_c, 0, 61, 80
2, 129679, Note_on_c, 0, 61, 0
2, 129680, Note_on_c, 0, 60, 80
2, 129759, Note_on_c, 0, 60, 0
2, 129760, Note_on_c, 0, 58, 80
2, 129839, Note_on_c, 0, 58, 0
2, 129840, Note_on_c, 0, 60, 80
2, 129919, Note_on_c, 0, 60, 0
2, 129920, Note_on_c, 0, 61, 80
2, 129999, Note_on_c, 0, 61, 0
2, 130000, Note_on_c, 0, 63, 80
2, 130079, Note_on_c, 0, 63, 0
2, 130080, Note_on_c, 0, 61, 80
2, 130399, Note_on_c, 0, 61, 0
2, 130400, Note_on_c, 0, 63, 80
2, 130479, Note_on_c, 0, 63, 0
2, 130480, Note_on_c, 0, 64, 80
2, 130559, Note_on_c, 0, 64, 0
2, 130560, Note_on_c, 0, 63, 80
2, 130639, Note_on_c, 0, 63, 0
2, 130640, Note_on_c, 0, 64, 80
2, 130719, Note_on_c, 0, 64, 0
2, 130720, Note_on_c, 0, 66, 80
2, 130799, Note_on_c, 0, 66, 0
2, 130800, Note_on_c, 0, 64, 80
2, 130959, Note_on_c, 0, 64, 0
2, 130960, Note_on_c, 0, 61, 80
2, 131039, Note_on_c, 0, 61, 0
2, 131040, Note_on_c, 0, 56, 80
2, 131199, Note_on_c, 0, 56, 0
2, 131200, Note_on_c, 0, 61, 80
2, 131279, Note_on_c, 0, 61, 0
2, 131280, Note_on_c, 0, 64, 80
2, 131439, Note_on_c, 0, 64, 0
2, 131440, Note_on_c, 0, 66, 80
2, 131519, Note_on_c, 0, 66, 0
2, 131520, Note_on_c, 0, 64, 80
2, 131679, Note_on_c, 0, 64, 0
2, 131680, Note_on_c, 0, 63, 80
2, 131759, Note_on_c, 0, 63, 0
2, 131760, Note_on_c, 0, 61, 80
2, 133919, Note_on_c, 0, 61, 0
2, 133920, Note_on_c, 0, 60, 80
2, 134159, Note_on_c, 0, 60, 0
2, 134160, Note_on_c, 0, 63, 80
2, 134399, Note_on_c, 0, 63, 0
2, 134400, Note_on_c, 0, 66, 80
2, 134639, Note_on_c, 0, 66, 0
2, 134640, Note_on_c, 0, 68, 80
2, 134719, Note_on_c, 0, 68, 0
2, 134720, Note_on_c, 0, 73, 80
2, 134799, Note_on_c, 0, 73, 0
2, 134800, Note_on_c, 0, 68, 80
2, 134879, Note_on_c, 0, 68, 0
2, 134880, Note_on_c, 0, 64, 80
2, 134959, Note_on_c, 0, 64, 0
2, 134960, Note_on_c, 0, 68, 80
2, 135039, Note_on_c, 0, 68, 0
2, 135040, Note_on_c, 0, 64, 80
2, 135119, Note_on_c, 0, 64, 0
2, 135120, Note_on_c, 0, 61, 80
2, 135359, Note_on_c, 0, 61, 0
2, 135360, Note_on_c, 0, 73, 80
2, 135599, Note_on_c, 0, 73, 0
2, 135600, Note_on_c, 0, 68, 80
2, 135919, Note_on_c, 0, 68, 0
2, 135920, Note_on_c, 0, 65, 80
2, 135999, Note_on_c, 0, 65, 0
2, 136000, Note_on_c, 0, 63, 80
2, 136079, Note_on_c, 0, 63, 0
2, 136080, Note_on_c, 0, 61, 80
2, 136159, Note_on_c, 0, 61, 0
2, 136160, Note_on_c, 0, 59, 80
2, 136239, Note_on_c, 0, 59, 0
2, 136240, Note_on_c, 0, 57, 80
2, 136319, Note_on_c, 0, 57, 0
2, 136320, Note_on_c, 0, 56, 80
2, 136479, Note_on_c, 0, 56, 0
2, 136480, Note_on_c, 0, 68, 80
2, 136559, Note_on_c, 0, 68, 0
2, 136560, Note_on_c, 0, 68, 80
2, 137279, Note_on_c, 0, 68, 0
2, 137280, End_track
3, 0, Start_track
3, 0, Key_signature, 4, "major"
3, 3840, Note_on_c, 0, 49, 80
3, 4079, Note_on_c, 0, 49, 0
3, 4080, Note_on_c, 0, 44, 80
3, 4319, Note_on_c, 0, 44, 0
3, 4320, Note_on_c, 0, 56, 80
3, 4639, Note_on_c, 0, 56, 0
3, 4640, Note_on_c, 0, 54, 80
3, 4719, Note_on_c, 0, 54, 0
3, 4720, Note_on_c, 0, 52, 80
3, 4799, Note_on_c, 0, 52, 0
3, 4800, Note_on_c, 0, 54, 80
3, 4879, Note_on_c, 0, 54, 0
3, 4880, Note_on_c, 0, 52, 80
3, 4959, Note_on_c, 0, 52, 0
3, 4960, Note_on_c, 0, 51, 80
3, 5039, Note_on_c, 0, 51, 0
3, 5040, Note_on_c, 0, 52, 80
3, 5119, Note_on_c, 0, 52, 0
3, 5120, Note_on_c, 0, 51, 80
3, 5199, Note_on_c, 0, 51, 0
3, 5200, Note_on_c, 0, 49, 80
3, 5279, Note_on_c, 0, 49, 0
3, 5280, Note_on_c, 0, 51, 80
3, 5599, Note_on_c, 0, 51, 0
3, 5600, Note_on_c, 0, 49, 80
3, 5679, Note_on_c, 0, 49, 0
3, 5680, Note_on_c, 0, 48, 80
3, 5759, Note_on_c, 0, 48, 0
3, 5760, Note_on_c, 0, 49, 80
3, 5839, Note_on_c, 0, 49, 0
3, 5840, Note_on_c, 0, 48, 80
3, 5919, Note_on_c, 0, 48, 0
3, 5920, Note_on_c, 0, 46, 80
3, 5999, Note_on_c, 0, 46, 0
3, 6000, Note_on_c, 0, 48, 80
3, 6079, Note_on_c, 0, 48, 0
3, 6080, Note_on_c, 0, 49, 80
3, 6159, Note_on_c, 0, 49, 0
3, 6160, Note_on_c, 0, 51, 80
3, 6239, Note_on_c, 0, 51, 0
3, 6240, Note_on_c, 0, 49, 80
3, 6559, Note_on_c, 0, 49, 0
3, 6560, Note_on_c, 0, 51, 80
3, 6639, Note_on_c, 0, 51, 0
3, 6640, Note_on_c, 0, 52, 80
3, 6719, Note_on_c, 0, 52, 0
3, 6720, Note_on_c, 0, 51, 80
3, 6799, Note_on_c, 0, 51, 0
3, 6800, Note_on_c, 0, 52, 80
3, 6879, Note_on_c, 0, 52, 0
3, 6880, Note_on_c, 0, 54, 80
3, 6959, Note_on_c, 0, 54, 0
3, 6960, Note_on_c, 0, 52, 80
3, 7119, Note_on_c, 0, 52, 0
3, 7120, Note_on_c, 0, 49, 80
3, 7199, Note_on_c, 0, 49, 0
3, 7200, Note_on_c, 0, 44, 80
3, 7359, Note_on_c, 0, 44, 0
3, 7360, Note_on_c, 0, 49, 80
3, 7439, Note_on_c, 0, 49, 0
3, 7440, Note_on_c, 0, 52, 80
3, 7599, Note_on_c, 0, 52, 0
3, 7600, Note_on_c, 0, 54, 80
3, 7679, Note_on_c, 0, 54, 0
3, 7680, Note_on_c, 0, 52, 80
3, 7839, Note_on_c, 0, 52, 0
3, 7840, Note_on_c, 0, 51, 80
3, 7919, Note_on_c, 0, 51, 0
3, 7920, Note_on_c, 0, 49, 80
3, 7999, Note_on_c, 0, 49, 0
3, 8000, Note_on_c, 0, 48, 80
3, 8079, Note_on_c, 0, 48, 0
3, 8080, Note_on_c, 0, 46, 80
3, 8159, Note_on_c, 0, 46, 0
3, 8160, Note_on_c, 0, 48, 80
3, 8239, Note_on_c, 0, 48, 0
3, 8240, Note_on_c, 0, 49, 80
3, 8319, Note_on_c, 0, 49, 0
3, 8320, Note_on_c, 0, 51, 80
3, 8399, Note_on_c, 0, 51, 0
3, 8400, Note_on_c, 0, 52, 80
3, 8639, Note_on_c, 0, 52, 0
3, 8640, Note_on_c, 0, 43, 80
3, 8879, Note_on_c, 0, 43, 0
3, 8880, Note_on_c, 0, 44, 80
3, 9119, Note_on_c, 0, 44, 0
3, 9600, Note_on_c, 0, 56, 80
3, 10079, Note_on_c, 0, 56, 0
3, 10080, Note_on_c, 0, 55, 80
3, 10159, Note_on_c, 0, 55, 0
3, 10160, Note_on_c, 0, 56, 80
3, 10239, Note_on_c, 0, 56, 0
3, 10240, Note_on_c, 0, 53, 80
3, 10319, Note_on_c, 0, 53, 0
3, 10320, Note_on_c, 0, 55, 80
3, 10799, Note_on_c, 0, 55, 0
3, 10800, Note_on_c, 0, 56, 80
3, 11919, Note_on_c, 0, 56, 0
3, 11920, Note_on_c, 0, 51, 80
3, 11999, Note_on_c, 0, 51, 0
3, 12000, Note_on_c, 0, 47, 80
3, 12159, Note_on_c, 0, 47, 0
3, 12160, Note_on_c, 0, 51, 80
3, 12239, Note_on_c, 0, 51, 0
3, 12240, Note_on_c, 0, 56, 80
3, 12399, Note_on_c, 0, 56, 0
3, 12400, Note_on_c, 0, 57, 80
3, 12479, Note_on_c, 0, 57, 0
3, 12480, Note_on_c, 0, 56, 80
3, 12639, Note_on_c, 0, 56, 0
3, 12640, Note_on_c, 0, 54, 80
3, 12719, Note_on_c, 0, 54, 0
3, 12720, Note_on_c, 0, 52, 80
3, 12879, Note_on_c, 0, 52, 0
3, 12880, Note_on_c, 0, 56, 80
3, 12959, Note_on_c, 0, 56, 0
3, 12960, Note_on_c, 0, 61, 80
3, 13119, Note_on_c, 0, 61, 0
3, 13120, Note_on_c, 0, 57, 80
3, 13199, Note_on_c, 0, 57, 0
3, 13200, Note_on_c, 0, 52, 80
3, 13359, Note_on_c, 0, 52, 0
3, 13360, Note_on_c, 0, 49, 80
3, 13439, Note_on_c, 0, 49, 0
3, 13440, Note_on_c, 0, 51, 80
3, 13599, Note_on_c, 0, 51, 0
3, 13600, Note_on_c, 0, 53, 80
3, 13679, Note_on_c, 0, 53, 0
3, 13680, Note_on_c, 0, 54, 80
3, 13839, Note_on_c, 0, 54, 0
3, 13840, Note_on_c, 0, 49, 80
3, 13919, Note_on_c, 0, 49, 0
3, 13920, Note_on_c, 0, 45, 80
3, 14079, Note_on_c, 0, 45, 0
3, 14080, Note_on_c, 0, 49, 80
3, 14159, Note_on_c, 0, 49, 0
3, 14160, Note_on_c, 0, 54, 80
3, 14319, Note_on_c, 0, 54, 0
3, 14320, Note_on_c, 0, 56, 80
3, 14399, Note_on_c, 0, 56, 0
3, 14400, Note_on_c, 0, 54, 80
3, 14559, Note_on_c, 0, 54, 0
3, 14560, Note_on_c, 0, 52, 80
3, 14639, Note_on_c, 0, 52, 0
3, 14640, Note_on_c, 0, 51, 80
3, 14799, Note_on_c, 0, 51, 0
3, 14800, Note_on_c, 0, 54, 80
3, 14879, Note_on_c, 0, 54, 0
3, 14880, Note_on_c, 0, 59, 80
3, 15039, Note_on_c, 0, 59, 0
3, 15040, Note_on_c, 0, 54, 80
3, 15119, Note_on_c, 0, 54, 0
3, 15120, Note_on_c, 0, 51, 80
3, 15279, Note_on_c, 0, 51, 0
3, 15280, Note_on_c, 0, 47, 80
3, 15359, Note_on_c, 0, 47, 0
3, 15360, Note_on_c, 0, 49, 80
3, 15519, Note_on_c, 0, 49, 0
3, 15520, Note_on_c, 0, 51, 80
3, 15599, Note_on_c, 0, 51, 0
3, 15600, Note_on_c, 0, 52, 80
3, 15759, Note_on_c, 0, 52, 0
3, 15760, Note_on_c, 0, 54, 80
3, 15839, Note_on_c, 0, 54, 0
3, 15840, Note_on_c, 0, 52, 80
3, 15999, Note_on_c, 0, 52, 0
3, 16000, Note_on_c, 0, 51, 80
3, 16079, Note_on_c, 0, 51, 0
3, 16080, Note_on_c, 0, 49, 80
3, 16239, Note_on_c, 0, 49, 0
3, 16240, Note_on_c, 0, 51, 80
3, 16319, Note_on_c, 0, 51, 0
3, 16320, Note_on_c, 0, 52, 80
3, 16479, Note_on_c, 0, 52, 0
3, 16480, Note_on_c, 0, 49, 80
3, 16559, Note_on_c, 0, 49, 0
3, 16560, Note_on_c, 0, 54, 80
3, 16719, Note_on_c, 0, 54, 0
3, 16720, Note_on_c, 0, 56, 80
3, 16799, Note_on_c, 0, 56, 0
3, 16800, Note_on_c, 0, 54, 80
3, 16959, Note_on_c, 0, 54, 0
3, 16960, Note_on_c, 0, 52, 80
3, 17039, Note_on_c, 0, 52, 0
3, 17040, Note_on_c, 0, 51, 80
3, 17199, Note_on_c, 0, 51, 0
3, 17200, Note_on_c, 0, 52, 80
3, 17279, Note_on_c, 0, 52, 0
3, 17280, Note_on_c, 0, 54, 80
3, 17439, Note_on_c, 0, 54, 0
3, 17440, Note_on_c, 0, 51, 80
3, 17519, Note_on_c, 0, 51, 0
3, 17520, Note_on_c, 0, 56, 80
3, 17679, Note_on_c, 0, 56, 0
3, 17680, Note_on_c, 0, 57, 80
3, 17759, Note_on_c, 0, 57, 0
3, 17760, Note_on_c, 0, 56, 80
3, 17919, Note_on_c, 0, 56, 0
3, 17920, Note_on_c, 0, 54, 80
3, 17999, Note_on_c, 0, 54, 0
3, 18000, Note_on_c, 0, 52, 80
3, 18159, Note_on_c, 0, 52, 0
3, 18160, Note_on_c, 0, 51, 80
3, 18239, Note_on_c, 0, 51, 0
3, 18240, Note_on_c, 0, 49, 80
3, 18399, Note_on_c, 0, 49, 0
3, 18400, Note_on_c, 0, 51, 80
3, 18479, Note_on_c, 0, 51, 0
3, 18480, Note_on_c, 0, 52, 80
3, 18639, Note_on_c, 0, 52, 0
3, 18640, Note_on_c, 0, 51, 80
3, 18719, Note_on_c, 0, 51, 0
3, 18720, Note_on_c, 0, 52, 80
3, 18879, Note_on_c, 0, 52, 0
3, 18880, Note_on_c, 0, 54, 80
3, 18959, Note_on_c, 0, 54, 0
3, 18960, Note_on_c, 0, 56, 80
3, 19199, Note_on_c, 0, 56, 0
3, 19200, Note_on_c, 0, 48, 80
3, 19439, Note_on_c, 0, 48, 0
3, 19440, Note_on_c, 0, 49, 80
3, 19679, Note_on_c, 0, 49, 0
3, 19680, Note_on_c, 0, 57, 80
3, 19919, Note_on_c, 0, 57, 0
3, 20160, Note_on_c, 0, 55, 80
3, 20399, Note_on_c, 0, 55, 0
3, 20400, Note_on_c, 0, 56, 80
3, 20639, Note_on_c, 0, 56, 0
3, 21120, Note_on_c, 0, 56, 80
3, 21359, Note_on_c, 0, 56, 0
3, 21360, Note_on_c, 0, 49, 80
3, 21599, Note_on_c, 0, 49, 0
3, 22080, Note_on_c, 0, 49, 80
3, 22319, Note_on_c, 0, 49, 0
3, 22320, Note_on_c, 0, 54, 80
3, 22559, Note_on_c, 0, 54, 0
3, 23040, Note_on_c, 0, 49, 80
3, 23279, Note_on_c, 0, 49, 0
3, 23280, Note_on_c, 0, 47, 80
3, 23519, Note_on_c, 0, 47, 0
3, 24000, Note_on_c, 0, 47, 80
3, 24239, Note_on_c, 0, 47, 0
3, 24240, Note_on_c, 0, 52, 80
3, 24479, Note_on_c, 0, 52, 0
3, 24960, Note_on_c, 0, 47, 80
3, 25199, Note_on_c, 0, 47, 0
3, 25200, Note_on_c, 0, 54, 80
3, 25439, Note_on_c, 0, 54, 0
3, 26880, Note_on_c, 0, 52, 80
3, 27119, Note_on_c, 0, 52, 0
3, 27120, Note_on_c, 0, 57, 80
3, 27359, Note_on_c, 0, 57, 0
3, 27360, Note_on_c, 0, 45, 80
3, 27679, Note_on_c, 0, 45, 0
3, 27680, Note_on_c, 0, 47, 80
3, 27759, Note_on_c, 0, 47, 0
3, 27760, Note_on_c, 0, 49, 80
3, 27839, Note_on_c, 0, 49, 0
3, 27840, Note_on_c, 0, 47, 80
3, 27919, Note_on_c, 0, 47, 0
3, 27920, Note_on_c, 0, 49, 80
3, 27999, Note_on_c, 0, 49, 0
3, 28000, Note_on_c, 0, 50, 80
3, 28079, Note_on_c, 0, 50, 0
3, 28080, Note_on_c, 0, 49, 80
3, 28159, Note_on_c, 0, 49, 0
3, 28160, Note_on_c, 0, 50, 80
3, 28239, Note_on_c, 0, 50, 0
3, 28240, Note_on_c, 0, 52, 80
3, 28319, Note_on_c, 0, 52, 0
3, 28320, Note_on_c, 0, 50, 80
3, 28639, Note_on_c, 0, 50, 0
3, 28640, Note_on_c, 0, 52, 80
3, 28719, Note_on_c, 0, 52, 0
3, 28720, Note_on_c, 0, 54, 80
3, 28799, Note_on_c, 0, 54, 0
3, 28800, Note_on_c, 0, 52, 80
3, 28879, Note_on_c, 0, 52, 0
3, 28880, Note_on_c, 0, 54, 80
3, 28959, Note_on_c, 0, 54, 0
3, 28960, Note_on_c, 0, 55, 80
3, 29039, Note_on_c, 0, 55, 0
3, 29040, Note_on_c, 0, 54, 80
3, 29119, Note_on_c, 0, 54, 0
3, 29120, Note_on_c, 0, 52, 80
3, 29199, Note_on_c, 0, 52, 0
3, 29200, Note_on_c, 0, 50, 80
3, 29279, Note_on_c, 0, 50, 0
3, 29280, Note_on_c, 0, 52, 80
3, 29599, Note_on_c, 0, 52, 0
3, 29600, Note_on_c, 0, 50, 80
3, 29679, Note_on_c, 0, 50, 0
3, 29680, Note_on_c, 0, 49, 80
3, 29759, Note_on_c, 0, 49, 0
3, 29760, Note_on_c, 0, 50, 80
3, 29839, Note_on_c, 0, 50, 0
3, 29840, Note_on_c, 0, 49, 80
3, 29919, Note_on_c, 0, 49, 0
3, 29920, Note_on_c, 0, 47, 80
3, 29999, Note_on_c, 0, 47, 0
3, 30000, Note_on_c, 0, 49, 80
3, 30159, Note_on_c, 0, 49, 0
3, 30160, Note_on_c, 0, 52, 80
3, 30239, Note_on_c, 0, 52, 0
3, 30240, Note_on_c, 0, 57, 80
3, 30399, Note_on_c, 0, 57, 0
3, 30400, Note_on_c, 0, 52, 80
3, 30479, Note_on_c, 0, 52, 0
3, 30480, Note_on_c, 0, 49, 80
3, 30639, Note_on_c, 0, 49, 0
3, 30640, Note_on_c, 0, 47, 80
3, 30719, Note_on_c, 0, 47, 0
3, 30720, Note_on_c, 0, 49, 80
3, 30879, Note_on_c, 0, 49, 0
3, 30880, Note_on_c, 0, 51, 80
3, 30959, Note_on_c, 0, 51, 0
3, 30960, Note_on_c, 0, 52, 80
3, 31199, Note_on_c, 0, 52, 0
3, 31200, Note_on_c, 0, 49, 80
3, 31439, Note_on_c, 0, 49, 0
3, 31440, Note_on_c, 0, 44, 80
3, 31599, Note_on_c, 0, 44, 0
3, 31600, Note_on_c, 0, 45, 80
3, 31679, Note_on_c, 0, 45, 0
3, 31680, Note_on_c, 0, 47, 80
3, 31839, Note_on_c, 0, 47, 0
3, 31840, Note_on_c, 0, 44, 80
3, 31919, Note_on_c, 0, 44, 0
3, 31920, Note_on_c, 0, 45, 80
3, 32239, Note_on_c, 0, 45, 0
3, 32240, Note_on_c, 0, 44, 80
3, 32319, Note_on_c, 0, 44, 0
3, 32320, Note_on_c, 0, 42, 80
3, 32399, Note_on_c, 0, 42, 0
3, 32400, Note_on_c, 0, 44, 80
3, 32479, Note_on_c, 0, 44, 0
3, 32480, Note_on_c, 0, 45, 80
3, 32559, Note_on_c, 0, 45, 0
3, 32560, Note_on_c, 0, 47, 80
3, 32639, Note_on_c, 0, 47, 0
3, 32640, Note_on_c, 0, 49, 80
3, 32719, Note_on_c, 0, 49, 0
3, 32720, Note_on_c, 0, 47, 80
3, 32799, Note_on_c, 0, 47, 0
3, 32800, Note_on_c, 0, 45, 80
3, 32879, Note_on_c, 0, 45, 0
3, 32880, Note_on_c, 0, 47, 80
3, 32959, Note_on_c, 0, 47, 0
3, 32960, Note_on_c, 0, 49, 80
3, 33039, Note_on_c, 0, 49, 0
3, 33040, Note_on_c, 0, 50, 80
3, 33119, Note_on_c, 0, 50, 0
3, 33120, Note_on_c, 0, 49, 80
3, 33199, Note_on_c, 0, 49, 0
3, 33200, Note_on_c, 0, 50, 80
3, 33279, Note_on_c, 0, 50, 0
3, 33280, Note_on_c, 0, 47, 80
3, 33359, Note_on_c, 0, 47, 0
3, 33360, Note_on_c, 0, 49, 80
3, 33439, Note_on_c, 0, 49, 0
3, 33440, Note_on_c, 0, 47, 80
3, 33519, Note_on_c, 0, 47, 0
3, 33520, Note_on_c, 0, 45, 80
3, 33599, Note_on_c, 0, 45, 0
3, 33600, Note_on_c, 0, 44, 80
3, 33679, Note_on_c, 0, 44, 0
3, 33680, Note_on_c, 0, 45, 80
3, 33759, Note_on_c, 0, 45, 0
3, 33760, Note_on_c, 0, 47, 80
3, 33839, Note_on_c, 0, 47, 0
3, 33840, Note_on_c, 0, 45, 80
3, 34079, Note_on_c, 0, 45, 0
3, 34080, Note_on_c, 0, 49, 80
3, 34319, Note_on_c, 0, 49, 0
3, 34320, Note_on_c, 0, 52, 80
3, 34559, Note_on_c, 0, 52, 0
3, 34560, Note_on_c, 0, 45, 80
3, 34799, Note_on_c, 0, 45, 0
3, 34800, Note_on_c, 0, 50, 80
3, 35039, Note_on_c, 0, 50, 0
3, 35280, Note_on_c, 0, 47, 80
3, 35519, Note_on_c, 0, 47, 0
3, 35760, Note_on_c, 0, 54, 80
3, 39119, Note_on_c, 0, 54, 0
3, 39360, Note_on_c, 0, 54, 80
3, 39599, Note_on_c, 0, 54, 0
3, 39600, Note_on_c, 0, 59, 80
3, 39839, Note_on_c, 0, 59, 0
3, 40320, Note_on_c, 0, 54, 80
3, 40559, Note_on_c, 0, 54, 0
3, 40560, Note_on_c, 0, 52, 80
3, 41039, Note_on_c, 0, 52, 0
3, 41280, Note_on_c, 0, 52, 80
3, 41519, Note_on_c, 0, 52, 0
3, 41520, Note_on_c, 0, 57, 80
3, 41999, Note_on_c, 0, 57, 0
3, 42240, Note_on_c, 0, 52, 80
3, 42479, Note_on_c, 0, 52, 0
3, 42480, Note_on_c, 0, 51, 80
3, 42639, Note_on_c, 0, 51, 0
3, 42640, Note_on_c, 0, 54, 80
3, 42719, Note_on_c, 0, 54, 0
3, 42720, Note_on_c, 0, 57, 80
3, 42879, Note_on_c, 0, 57, 0
3, 42880, Note_on_c, 0, 54, 80
3, 42959, Note_on_c, 0, 54, 0
3, 42960, Note_on_c, 0, 51, 80
3, 43119, Note_on_c, 0, 51, 0
3, 43120, Note_on_c, 0, 52, 80
3, 43199, Note_on_c, 0, 52, 0
3, 43200, Note_on_c, 0, 51, 80
3, 43359, Note_on_c, 0, 51, 0
3, 43360, Note_on_c, 0, 49, 80
3, 43439, Note_on_c, 0, 49, 0
3, 43440, Note_on_c, 0, 48, 80
3, 43559, Note_on_c, 0, 48, 0
3, 43560, Note_on_c, 0, 51, 80
3, 43679, Note_on_c, 0, 51, 0
3, 43680, Note_on_c, 0, 54, 80
3, 43799, Note_on_c, 0, 54, 0
3, 43800, Note_on_c, 0, 51, 80
3, 43919, Note_on_c, 0, 51, 0
3, 43920, Note_on_c, 0, 48, 80
3, 44079, Note_on_c, 0, 48, 0
3, 44080, Note_on_c, 0, 49, 80
3, 44159, Note_on_c, 0, 49, 0
3, 44160, Note_on_c, 0, 48, 80
3, 44319, Note_on_c, 0, 48, 0
3, 44320, Note_on_c, 0, 46, 80
3, 44399, Note_on_c, 0, 46, 0
3, 44400, Note_on_c, 0, 44, 80
3, 44559, Note_on_c, 0, 44, 0
3, 44560, Note_on_c, 0, 48, 80
3, 44639, Note_on_c, 0, 48, 0
3, 44640, Note_on_c, 0, 51, 80
3, 44799, Note_on_c, 0, 51, 0
3, 44800, Note_on_c, 0, 48, 80
3, 44879, Note_on_c, 0, 48, 0
3, 44880, Note_on_c, 0, 44, 80
3, 45039, Note_on_c, 0, 44, 0
3, 45040, Note_on_c, 0, 45, 80
3, 45119, Note_on_c, 0, 45, 0
3, 45120, Note_on_c, 0, 44, 80
3, 45279, Note_on_c, 0, 44, 0
3, 45280, Note_on_c, 0, 42, 80
3, 45359, Note_on_c, 0, 42, 0
3, 45360, Note_on_c, 0, 40, 80
3, 45439, Note_on_c, 0, 40, 0
3, 45440, Note_on_c, 0, 44, 80
3, 45519, Note_on_c, 0, 44, 0
3, 45520, Note_on_c, 0, 49, 80
3, 45599, Note_on_c, 0, 49, 0
3, 45600, Note_on_c, 0, 52, 80
3, 45679, Note_on_c, 0, 52, 0
3, 45680, Note_on_c, 0, 51, 80
3, 45759, Note_on_c, 0, 51, 0
3, 45760, Note_on_c, 0, 49, 80
3, 45839, Note_on_c, 0, 49, 0
3, 45840, Note_on_c, 0, 49, 80
3, 45879, Note_on_c, 0, 49, 0
3, 45880, Note_on_c, 0, 48, 80
3, 45919, Note_on_c, 0, 48, 0
3, 45920, Note_on_c, 0, 49, 80
3, 45959, Note_on_c, 0, 49, 0
3, 45960, Note_on_c, 0, 48, 80
3, 45999, Note_on_c, 0, 48, 0
3, 46000, Note_on_c, 0, 49, 80
3, 46039, Note_on_c, 0, 49, 0
3, 46040, Note_on_c, 0, 48, 80
3, 46079, Note_on_c, 0, 48, 0
3, 46080, Note_on_c, 0, 49, 80
3, 46119, Note_on_c, 0, 49, 0
3, 46120, Note_on_c, 0, 48, 80
3, 46159, Note_on_c, 0, 48, 0
3, 46160, Note_on_c, 0, 49, 80
3, 46199, Note_on_c, 0, 49, 0
3, 46200, Note_on_c, 0, 48, 80
3, 46239, Note_on_c, 0, 48, 0
3, 46240, Note_on_c, 0, 46, 80
3, 46279, Note_on_c, 0, 46, 0
3, 46280, Note_on_c, 0, 48, 80
3, 46319, Note_on_c, 0, 48, 0
3, 46320, Note_on_c, 0, 49, 80
3, 46559, Note_on_c, 0, 49, 0
3, 46560, Note_on_c, 0, 57, 80
3, 46799, Note_on_c, 0, 57, 0
3, 47040, Note_on_c, 0, 55, 80
3, 47279, Note_on_c, 0, 55, 0
3, 47280, Note_on_c, 0, 56, 80
3, 47439, Note_on_c, 0, 56, 0
3, 47440, Note_on_c, 0, 54, 80
3, 47519, Note_on_c, 0, 54, 0
3, 47520, Note_on_c, 0, 52, 80
3, 47599, Note_on_c, 0, 52, 0
3, 47600, Note_on_c, 0, 54, 80
3, 47679, Note_on_c, 0, 54, 0
3, 47680, Note_on_c, 0, 56, 80
3, 47759, Note_on_c, 0, 56, 0
3, 47760, Note_on_c, 0, 57, 80
3, 47919, Note_on_c, 0, 57, 0
3, 47920, Note_on_c, 0, 49, 80
3, 47999, Note_on_c, 0, 49, 0
3, 48000, Note_on_c, 0, 48, 80
3, 48079, Note_on_c, 0, 48, 0
3, 48080, Note_on_c, 0, 49, 80
3, 48159, Note_on_c, 0, 49, 0
3, 48160, Note_on_c, 0, 51, 80
3, 48239, Note_on_c, 0, 51, 0
3, 48240, Note_on_c, 0, 49, 80
3, 48479, Note_on_c, 0, 49, 0
3, 48480, Note_on_c, 0, 52, 80
3, 48719, Note_on_c, 0, 52, 0
3, 48720, Note_on_c, 0, 56, 80
3, 48959, Note_on_c, 0, 56, 0
3, 48960, Note_on_c, 0, 49, 80
3, 49199, Note_on_c, 0, 49, 0
3, 49200, Note_on_c, 0, 54, 80
3, 49439, Note_on_c, 0, 54, 0
3, 49920, Note_on_c, 0, 54, 80
3, 50159, Note_on_c, 0, 54, 0
3, 50160, Note_on_c, 0, 42, 80
3, 50399, Note_on_c, 0, 42, 0
3, 50400, Note_on_c, 0, 54, 80
3, 50639, Note_on_c, 0, 54, 0
3, 50640, Note_on_c, 0, 58, 80
3, 50879, Note_on_c, 0, 58, 0
3, 50880, Note_on_c, 0, 51, 80
3, 51119, Note_on_c, 0, 51, 0
3, 51120, Note_on_c, 0, 56, 80
3, 51359, Note_on_c, 0, 56, 0
3, 51840, Note_on_c, 0, 56, 80
3, 52079, Note_on_c, 0, 56, 0
3, 52080, Note_on_c, 0, 44, 80
3, 52319, Note_on_c, 0, 44, 0
3, 52320, Note_on_c, 0, 56, 80
3, 52559, Note_on_c, 0, 56, 0
3, 52560, Note_on_c, 0, 59, 80
3, 52799, Note_on_c, 0, 59, 0
3, 52800, Note_on_c, 0, 52, 80
3, 53039, Note_on_c, 0, 52, 0
3, 53040, Note_on_c, 0, 57, 80
3, 53279, Note_on_c, 0, 57, 0
3, 53280, Note_on_c, 0, 61, 80
3, 53519, Note_on_c, 0, 61, 0
3, 53520, Note_on_c, 0, 57, 80
3, 53759, Note_on_c, 0, 57, 0
3, 53760, Note_on_c, 0, 53, 80
3, 53999, Note_on_c, 0, 53, 0
3, 54000, Note_on_c, 0, 54, 80
3, 54239, Note_on_c, 0, 54, 0
3, 54240, Note_on_c, 0, 57, 80
3, 54479, Note_on_c, 0, 57, 0
3, 54480, Note_on_c, 0, 54, 80
3, 54719, Note_on_c, 0, 54, 0
3, 54720, Note_on_c, 0, 49, 80
3, 54959, Note_on_c, 0, 49, 0
3, 54960, Note_on_c, 0, 51, 80
3, 55119, Note_on_c, 0, 51, 0
3, 55120, Note_on_c, 0, 54, 80
3, 55199, Note_on_c, 0, 54, 0
3, 55200, Note_on_c, 0, 57, 80
3, 55359, Note_on_c, 0, 57, 0
3, 55360, Note_on_c, 0, 54, 80
3, 55439, Note_on_c, 0, 54, 0
3, 55440, Note_on_c, 0, 51, 80
3, 55599, Note_on_c, 0, 51, 0
3, 55600, Note_on_c, 0, 48, 80
3, 55679, Note_on_c, 0, 48, 0
3, 55680, Note_on_c, 0, 49, 80
3, 55839, Note_on_c, 0, 49, 0
3, 55840, Note_on_c, 0, 51, 80
3, 55919, Note_on_c, 0, 51, 0
3, 55920, Note_on_c, 0, 42, 80
3, 56399, Note_on_c, 0, 42, 0
3, 56640, Note_on_c, 0, 54, 80
3, 56879, Note_on_c, 0, 54, 0
3, 56880, Note_on_c, 0, 52, 80
3, 56959, Note_on_c, 0, 52, 0
3, 56960, Note_on_c, 0, 51, 80
3, 57039, Note_on_c, 0, 51, 0
3, 57040, Note_on_c, 0, 49, 80
3, 57119, Note_on_c, 0, 49, 0
3, 57120, Note_on_c, 0, 54, 80
3, 57439, Note_on_c, 0, 54, 0
3, 57440, Note_on_c, 0, 52, 80
3, 57519, Note_on_c, 0, 52, 0
3, 57520, Note_on_c, 0, 51, 80
3, 57599, Note_on_c, 0, 51, 0
3, 57600, Note_on_c, 0, 56, 80
3, 57839, Note_on_c, 0, 56, 0
3, 57840, Note_on_c, 0, 49, 80
3, 58079, Note_on_c, 0, 49, 0
3, 58560, Note_on_c, 0, 54, 80
3, 58799, Note_on_c, 0, 54, 0
3, 58800, Note_on_c, 0, 61, 80
3, 59039, Note_on_c, 0, 61, 0
3, 59040, Note_on_c, 0, 49, 80
3, 59359, Note_on_c, 0, 49, 0
3, 59360, Note_on_c, 0, 51, 80
3, 59439, Note_on_c, 0, 51, 0
3, 59440, Note_on_c, 0, 52, 80
3, 59519, Note_on_c, 0, 52, 0
3, 59520, Note_on_c, 0, 51, 80
3, 59599, Note_on_c, 0, 51, 0
3, 59600, Note_on_c, 0, 52, 80
3, 59679, Note_on_c, 0, 52, 0
3, 59680, Note_on_c, 0, 54, 80
3, 59759, Note_on_c, 0, 54, 0
3, 59760, Note_on_c, 0, 52, 80
3, 59839, Note_on_c, 0, 52, 0
3, 59840, Note_on_c, 0, 54, 80
3, 59919, Note_on_c, 0, 54, 0
3, 59920, Note_on_c, 0, 56, 80
3, 59999, Note_on_c, 0, 56, 0
3, 60000, Note_on_c, 0, 54, 80
3, 60319, Note_on_c, 0, 54, 0
3, 60320, Note_on_c, 0, 56, 80
3, 60399, Note_on_c, 0, 56, 0
3, 60400, Note_on_c, 0, 57, 80
3, 60479, Note_on_c, 0, 57, 0
3, 60480, Note_on_c, 0, 56, 80
3, 60559, Note_on_c, 0, 56, 0
3, 60560, Note_on_c, 0, 57, 80
3, 60639, Note_on_c, 0, 57, 0
3, 60640, Note_on_c, 0, 59, 80
3, 60719, Note_on_c, 0, 59, 0
3, 60720, Note_on_c, 0, 57, 80
3, 60799, Note_on_c, 0, 57, 0
3, 60800, Note_on_c, 0, 56, 80
3, 60879, Note_on_c, 0, 56, 0
3, 60880, Note_on_c, 0, 54, 80
3, 60959, Note_on_c, 0, 54, 0
3, 60960, Note_on_c, 0, 56, 80
3, 61279, Note_on_c, 0, 56, 0
3, 61280, Note_on_c, 0, 54, 80
3, 61359, Note_on_c, 0, 54, 0
3, 61360, Note_on_c, 0, 52, 80
3, 61439, Note_on_c, 0, 52, 0
3, 61440, Note_on_c, 0, 54, 80
3, 61519, Note_on_c, 0, 54, 0
3, 61520, Note_on_c, 0, 52, 80
3, 61599, Note_on_c, 0, 52, 0
3, 61600, Note_on_c, 0, 51, 80
3, 61679, Note_on_c, 0, 51, 0
3, 61680, Note_on_c, 0, 52, 80
3, 61839, Note_on_c, 0, 52, 0
3, 61840, Note_on_c, 0, 56, 80
3, 61919, Note_on_c, 0, 56, 0
3, 61920, Note_on_c, 0, 63, 80
3, 62079, Note_on_c, 0, 63, 0
3, 62080, Note_on_c, 0, 56, 80
3, 62159, Note_on_c, 0, 56, 0
3, 62160, Note_on_c, 0, 52, 80
3, 62319, Note_on_c, 0, 52, 0
3, 62320, Note_on_c, 0, 51, 80
3, 62399, Note_on_c, 0, 51, 0
3, 62400, Note_on_c, 0, 52, 80
3, 62559, Note_on_c, 0, 52, 0
3, 62560, Note_on_c, 0, 54, 80
3, 62639, Note_on_c, 0, 54, 0
3, 62640, Note_on_c, 0, 56, 80
3, 64799, Note_on_c, 0, 56, 0
3, 64800, Note_on_c, 0, 57, 80
3, 65039, Note_on_c, 0, 57, 0
3, 65040, Note_on_c, 0, 54, 80
3, 65279, Note_on_c, 0, 54, 0
3, 65280, Note_on_c, 0, 48, 80
3, 65519, Note_on_c, 0, 48, 0
3, 65520, Note_on_c, 0, 49, 80
3, 65599, Note_on_c, 0, 49, 0
3, 65600, Note_on_c, 0, 45, 80
3, 65679, Note_on_c, 0, 45, 0
3, 65680, Note_on_c, 0, 49, 80
3, 65759, Note_on_c, 0, 49, 0
3, 65760, Note_on_c, 0, 52, 80
3, 65839, Note_on_c, 0, 52, 0
3, 65840, Note_on_c, 0, 49, 80
3, 65919, Note_on_c, 0, 49, 0
3, 65920, Note_on_c, 0, 52, 80
3, 65999, Note_on_c, 0, 52, 0
3, 66000, Note_on_c, 0, 56, 80
3, 66239, Note_on_c, 0, 56, 0
3, 66240, Note_on_c, 0, 44, 80
3, 66479, Note_on_c, 0, 44, 0
3, 66480, Note_on_c, 0, 49, 80
3, 66799, Note_on_c, 0, 49, 0
3, 66800, Note_on_c, 0, 53, 80
3, 66879, Note_on_c, 0, 53, 0
3, 66880, Note_on_c, 0, 54, 80
3, 66959, Note_on_c, 0, 54, 0
3, 66960, Note_on_c, 0, 56, 80
3, 67039, Note_on_c, 0, 56, 0
3, 67040, Note_on_c, 0, 57, 80
3, 67119, Note_on_c, 0, 57, 0
3, 67120, Note_on_c, 0, 59, 80
3, 67199, Note_on_c, 0, 59, 0
3, 67200, Note_on_c, 0, 61, 80
3, 67359, Note_on_c, 0, 61, 0
3, 67360, Note_on_c, 0, 49, 80
3, 67439, Note_on_c, 0, 49, 0
3, 67440, Note_on_c, 0, 49, 80
3, 68159, Note_on_c, 0, 49, 0
3, 76800, Note_on_c, 0, 56, 80
3, 77039, Note_on_c, 0, 56, 0
3, 77040, Note_on_c, 0, 49, 80
3, 77279, Note_on_c, 0, 49, 0
3, 77280, Note_on_c, 0, 61, 80
3, 77599, Note_on_c, 0, 61, 0
3, 77600, Note_on_c, 0, 59, 80
3, 77679, Note_on_c, 0, 59, 0
3, 77680, Note_on_c, 0, 57, 80
3, 77759, Note_on_c, 0, 57, 0
3, 77760, Note_on_c, 0, 59, 80
3, 77839, Note_on_c, 0, 59, 0
3, 77840, Note_on_c, 0, 57, 80
3, 77919, Note_on_c, 0, 57, 0
3, 77920, Note_on_c, 0, 56, 80
3, 77999, Note_on_c, 0, 56, 0
3, 78000, Note_on_c, 0, 57, 80
3, 78079, Note_on_c, 0, 57, 0
3, 78080, Note_on_c, 0, 56, 80
3, 78159, Note_on_c, 0, 56, 0
3, 78160, Note_on_c, 0, 54, 80
3, 78239, Note_on_c, 0, 54, 0
3, 78240, Note_on_c, 0, 56, 80
3, 78559, Note_on_c, 0, 56, 0
3, 78560, Note_on_c, 0, 54, 80
3, 78639, Note_on_c, 0, 54, 0
3, 78640, Note_on_c, 0, 53, 80
3, 78719, Note_on_c, 0, 53, 0
3, 78720, Note_on_c, 0, 54, 80
3, 78799, Note_on_c, 0, 54, 0
3, 78800, Note_on_c, 0, 53, 80
3, 78879, Note_on_c, 0, 53, 0
3, 78880, Note_on_c, 0, 49, 80
3, 78959, Note_on_c, 0, 49, 0
3, 78960, Note_on_c, 0, 53, 80
3, 79039, Note_on_c, 0, 53, 0
3, 79040, Note_on_c, 0, 54, 80
3, 79119, Note_on_c, 0, 54, 0
3, 79120, Note_on_c, 0, 56, 80
3, 79199, Note_on_c, 0, 56, 0
3, 79200, Note_on_c, 0, 54, 80
3, 79519, Note_on_c, 0, 54, 0
3, 79520, Note_on_c, 0, 56, 80
3, 79599, Note_on_c, 0, 56, 0
3, 79600, Note_on_c, 0, 57, 80
3, 79679, Note_on_c, 0, 57, 0
3, 79680, Note_on_c, 0, 56, 80
3, 79759, Note_on_c, 0, 56, 0
3, 79760, Note_on_c, 0, 57, 80
3, 79839, Note_on_c, 0, 57, 0
3, 79840, Note_on_c, 0, 59, 80
3, 79919, Note_on_c, 0, 59, 0
3, 79920, Note_on_c, 0, 57, 80
3, 80079, Note_on_c, 0, 57, 0
3, 80080, Note_on_c, 0, 54, 80
3, 80159, Note_on_c, 0, 54, 0
3, 80160, Note_on_c, 0, 49, 80
3, 80319, Note_on_c, 0, 49, 0
3, 80320, Note_on_c, 0, 54, 80
3, 80399, Note_on_c, 0, 54, 0
3, 80400, Note_on_c, 0, 57, 80
3, 80559, Note_on_c, 0, 57, 0
3, 80560, Note_on_c, 0, 59, 80
3, 80639, Note_on_c, 0, 59, 0
3, 80640, Note_on_c, 0, 57, 80
3, 80799, Note_on_c, 0, 57, 0
3, 80800, Note_on_c, 0, 56, 80
3, 80879, Note_on_c, 0, 56, 0
3, 80880, Note_on_c, 0, 54, 80
3, 81359, Note_on_c, 0, 54, 0
3, 81600, Note_on_c, 0, 57, 80
3, 81839, Note_on_c, 0, 57, 0
3, 81840, Note_on_c, 0, 56, 80
3, 82079, Note_on_c, 0, 56, 0
3, 82080, Note_on_c, 0, 52, 80
3, 82239, Note_on_c, 0, 52, 0
3, 82240, Note_on_c, 0, 54, 80
3, 82319, Note_on_c, 0, 54, 0
3, 82320, Note_on_c, 0, 56, 80
3, 82559, Note_on_c, 0, 56, 0
3, 82560, Note_on_c, 0, 46, 80
3, 82799, Note_on_c, 0, 46, 0
3, 82800, Note_on_c, 0, 47, 80
3, 83279, Note_on_c, 0, 47, 0
3, 83520, Note_on_c, 0, 59, 80
3, 83759, Note_on_c, 0, 59, 0
3, 83760, Note_on_c, 0, 57, 80
3, 83999, Note_on_c, 0, 57, 0
3, 84000, Note_on_c, 0, 54, 80
3, 84159, Note_on_c, 0, 54, 0
3, 84160, Note_on_c, 0, 56, 80
3, 84239, Note_on_c, 0, 56, 0
3, 84240, Note_on_c, 0, 57, 80
3, 84479, Note_on_c, 0, 57, 0
3, 84480, Note_on_c, 0, 48, 80
3, 84719, Note_on_c, 0, 48, 0
3, 84720, Note_on_c, 0, 49, 80
3, 85039, Note_on_c, 0, 49, 0
3, 85040, Note_on_c, 0, 51, 80
3, 85199, Note_on_c, 0, 51, 0
3, 85200, Note_on_c, 0, 52, 80
3, 85359, Note_on_c, 0, 52, 0
3, 85360, Note_on_c, 0, 54, 80
3, 85439, Note_on_c, 0, 54, 0
3, 85440, Note_on_c, 0, 56, 80
3, 85599, Note_on_c, 0, 56, 0
3, 85600, Note_on_c, 0, 52, 80
3, 85679, Note_on_c, 0, 52, 0
3, 85680, Note_on_c, 0, 59, 80
3, 85919, Note_on_c, 0, 59, 0
3, 85920, Note_on_c, 0, 47, 80
3, 86159, Note_on_c, 0, 47, 0
3, 86160, Note_on_c, 0, 51, 80
3, 86399, Note_on_c, 0, 51, 0
3, 86400, Note_on_c, 0, 54, 80
3, 86639, Note_on_c, 0, 54, 0
3, 86640, Note_on_c, 0, 57, 80
3, 86959, Note_on_c, 0, 57, 0
3, 86960, Note_on_c, 0, 56, 80
3, 87039, Note_on_c, 0, 56, 0
3, 87040, Note_on_c, 0, 56, 80
3, 87119, Note_on_c, 0, 56, 0
3, 87120, Note_on_c, 0, 61, 80
3, 87279, Note_on_c, 0, 61, 0
3, 87280, Note_on_c, 0, 54, 80
3, 87359, Note_on_c, 0, 54, 0
3, 87360, Note_on_c, 0, 52, 80
3, 87519, Note_on_c, 0, 52, 0
3, 87520, Note_on_c, 0, 51, 80
3, 87599, Note_on_c, 0, 51, 0
3, 87600, Note_on_c, 0, 49, 80
3, 87919, Note_on_c, 0, 49, 0
3, 87920, Note_on_c, 0, 51, 80
3, 88079, Note_on_c, 0, 51, 0
3, 88080, Note_on_c, 0, 52, 80
3, 88159, Note_on_c, 0, 52, 0
3, 88160, Note_on_c, 0, 54, 80
3, 88239, Note_on_c, 0, 54, 0
3, 88240, Note_on_c, 0, 56, 80
3, 88319, Note_on_c, 0, 56, 0
3, 88320, Note_on_c, 0, 54, 80
3, 88479, Note_on_c, 0, 54, 0
3, 88480, Note_on_c, 0, 48, 80
3, 88559, Note_on_c, 0, 48, 0
3, 88560, Note_on_c, 0, 49, 80
3, 88639, Note_on_c, 0, 49, 0
3, 88640, Note_on_c, 0, 51, 80
3, 88719, Note_on_c, 0, 51, 0
3, 88720, Note_on_c, 0, 52, 80
3, 88799, Note_on_c, 0, 52, 0
3, 88800, Note_on_c, 0, 51, 80
3, 88879, Note_on_c, 0, 51, 0
3, 88880, Note_on_c, 0, 57, 80
3, 88959, Note_on_c, 0, 57, 0
3, 88960, Note_on_c, 0, 54, 80
3, 89039, Note_on_c, 0, 54, 0
3, 89040, Note_on_c, 0, 51, 80
3, 89119, Note_on_c, 0, 51, 0
3, 89120, Note_on_c, 0, 53, 80
3, 89199, Note_on_c, 0, 53, 0
3, 89200, Note_on_c, 0, 54, 80
3, 89439, Note_on_c, 0, 54, 0
3, 89440, Note_on_c, 0, 53, 80
3, 89519, Note_on_c, 0, 53, 0
3, 89520, Note_on_c, 0, 54, 80
3, 89599, Note_on_c, 0, 54, 0
3, 89600, Note_on_c, 0, 52, 80
3, 89679, Note_on_c, 0, 52, 0
3, 89680, Note_on_c, 0, 51, 80
3, 89759, Note_on_c, 0, 51, 0
3, 89760, Note_on_c, 0, 52, 80
3, 89839, Note_on_c, 0, 52, 0
3, 89840, Note_on_c, 0, 56, 80
3, 89919, Note_on_c, 0, 56, 0
3, 89920, Note_on_c, 0, 61, 80
3, 89999, Note_on_c, 0, 61, 0
3, 90000, Note_on_c, 0, 59, 80
3, 90079, Note_on_c, 0, 59, 0
3, 90080, Note_on_c, 0, 57, 80
3, 90159, Note_on_c, 0, 57, 0
3, 90160, Note_on_c, 0, 56, 80
3, 90239, Note_on_c, 0, 56, 0
3, 90240, Note_on_c, 0, 57, 80
3, 90319, Note_on_c, 0, 57, 0
3, 90320, Note_on_c, 0, 56, 80
3, 90399, Note_on_c, 0, 56, 0
3, 90400, Note_on_c, 0, 54, 80
3, 90479, Note_on_c, 0, 54, 0
3, 90480, Note_on_c, 0, 56, 80
3, 90719, Note_on_c, 0, 56, 0
3, 90720, Note_on_c, 0, 52, 80
3, 90959, Note_on_c, 0, 52, 0
3, 90960, Note_on_c, 0, 56, 80
3, 91199, Note_on_c, 0, 56, 0
3, 91200, Note_on_c, 0, 61, 80
3, 91439, Note_on_c, 0, 61, 0
3, 91440, Note_on_c, 0, 59, 80
3, 91599, Note_on_c, 0, 59, 0
3, 91600, Note_on_c, 0, 56, 80
3, 91679, Note_on_c, 0, 56, 0
3, 91680, Note_on_c, 0, 51, 80
3, 91839, Note_on_c, 0, 51, 0
3, 91840, Note_on_c, 0, 54, 80
3, 91919, Note_on_c, 0, 54, 0
3, 91920, Note_on_c, 0, 59, 80
3, 92079, Note_on_c, 0, 59, 0
3, 92080, Note_on_c, 0, 63, 80
3, 92159, Note_on_c, 0, 63, 0
3, 92160, Note_on_c, 0, 61, 80
3, 92319, Note_on_c, 0, 61, 0
3, 92320, Note_on_c, 0, 59, 80
3, 92399, Note_on_c, 0, 59, 0
3, 92400, Note_on_c, 0, 58, 80
3, 92639, Note_on_c, 0, 58, 0
3, 92640, Note_on_c, 0, 54, 80
3, 92879, Note_on_c, 0, 54, 0
3, 92880, Note_on_c, 0, 58, 80
3, 93119, Note_on_c, 0, 58, 0
3, 93120, Note_on_c, 0, 63, 80
3, 93359, Note_on_c, 0, 63, 0
3, 93360, Note_on_c, 0, 61, 80
3, 93519, Note_on_c, 0, 61, 0
3, 93520, Note_on_c, 0, 58, 80
3, 93599, Note_on_c, 0, 58, 0
3, 93600, Note_on_c, 0, 53, 80
3, 93759, Note_on_c, 0, 53, 0
3, 93760, Note_on_c, 0, 58, 80
3, 93839, Note_on_c, 0, 58, 0
3, 93840, Note_on_c, 0, 61, 80
3, 93999, Note_on_c, 0, 61, 0
3, 94000, Note_on_c, 0, 64, 80
3, 94079, Note_on_c, 0, 64, 0
3, 94080, Note_on_c, 0, 63, 80
3, 94239, Note_on_c, 0, 63, 0
3, 94240, Note_on_c, 0, 61, 80
3, 94319, Note_on_c, 0, 61, 0
3, 94320, Note_on_c, 0, 59, 80
3, 94559, Note_on_c, 0, 59, 0
3, 94560, Note_on_c, 0, 47, 80
3, 94879, Note_on_c, 0, 47, 0
3, 94880, Note_on_c, 0, 49, 80
3, 94959, Note_on_c, 0, 49, 0
3, 94960, Note_on_c, 0, 51, 80
3, 95039, Note_on_c, 0, 51, 0
3, 95040, Note_on_c, 0, 49, 80
3, 95119, Note_on_c, 0, 49, 0
3, 95120, Note_on_c, 0, 51, 80
3, 95199, Note_on_c, 0, 51, 0
3, 95200, Note_on_c, 0, 52, 80
3, 95279, Note_on_c, 0, 52, 0
3, 95280, Note_on_c, 0, 51, 80
3, 95359, Note_on_c, 0, 51, 0
3, 95360, Note_on_c, 0, 52, 80
3, 95439, Note_on_c, 0, 52, 0
3, 95440, Note_on_c, 0, 54, 80
3, 95519, Note_on_c, 0, 54, 0
3, 95520, Note_on_c, 0, 52, 80
3, 95839, Note_on_c, 0, 52, 0
3, 95840, Note_on_c, 0, 54, 80
3, 95919, Note_on_c, 0, 54, 0
3, 95920, Note_on_c, 0, 56, 80
3, 95999, Note_on_c, 0, 56, 0
3, 96000, Note_on_c, 0, 54, 80
3, 96079, Note_on_c, 0, 54, 0
3, 96080, Note_on_c, 0, 56, 80
3, 96159, Note_on_c, 0, 56, 0
3, 96160, Note_on_c, 0, 57, 80
3, 96239, Note_on_c, 0, 57, 0
3, 96240, Note_on_c, 0, 56, 80
3, 96479, Note_on_c, 0, 56, 0
3, 96480, Note_on_c, 0, 52, 80
3, 96719, Note_on_c, 0, 52, 0
3, 96720, Note_on_c, 0, 56, 80
3, 96959, Note_on_c, 0, 56, 0
3, 96960, Note_on_c, 0, 61, 80
3, 97199, Note_on_c, 0, 61, 0
3, 97200, Note_on_c, 0, 59, 80
3, 99599, Note_on_c, 0, 59, 0
3, 99840, Note_on_c, 0, 59, 80
3, 100079, Note_on_c, 0, 59, 0
3, 100080, Note_on_c, 0, 64, 80
3, 100319, Note_on_c, 0, 64, 0
3, 100320, Note_on_c, 0, 52, 80
3, 100639, Note_on_c, 0, 52, 0
3, 100640, Note_on_c, 0, 54, 80
3, 100719, Note_on_c, 0, 54, 0
3, 100720, Note_on_c, 0, 56, 80
3, 100799, Note_on_c, 0, 56, 0
3, 100800, Note_on_c, 0, 54, 80
3, 100879, Note_on_c, 0, 54, 0
3, 100880, Note_on_c, 0, 56, 80
3, 100959, Note_on_c, 0, 56, 0
3, 100960, Note_on_c, 0, 57, 80
3, 101039, Note_on_c, 0, 57, 0
3, 101040, Note_on_c, 0, 56, 80
3, 101119, Note_on_c, 0, 56, 0
3, 101120, Note_on_c, 0, 57, 80
3, 101199, Note_on_c, 0, 57, 0
3, 101200, Note_on_c, 0, 59, 80
3, 101279, Note_on_c, 0, 59, 0
3, 101280, Note_on_c, 0, 57, 80
3, 101599, Note_on_c, 0, 57, 0
3, 101600, Note_on_c, 0, 59, 80
3, 101679, Note_on_c, 0, 59, 0
3, 101680, Note_on_c, 0, 61, 80
3, 101759, Note_on_c, 0, 61, 0
3, 101760, Note_on_c, 0, 59, 80
3, 101839, Note_on_c, 0, 59, 0
3, 101840, Note_on_c, 0, 61, 80
3, 101919, Note_on_c, 0, 61, 0
3, 101920, Note_on_c, 0, 62, 80
3, 101999, Note_on_c, 0, 62, 0
3, 102000, Note_on_c, 0, 61, 80
3, 102079, Note_on_c, 0, 61, 0
3, 102080, Note_on_c, 0, 59, 80
3, 102159, Note_on_c, 0, 59, 0
3, 102160, Note_on_c, 0, 57, 80
3, 102239, Note_on_c, 0, 57, 0
3, 102240, Note_on_c, 0, 59, 80
3, 102559, Note_on_c, 0, 59, 0
3, 102560, Note_on_c, 0, 57, 80
3, 102639, Note_on_c, 0, 57, 0
3, 102640, Note_on_c, 0, 56, 80
3, 102719, Note_on_c, 0, 56, 0
3, 102720, Note_on_c, 0, 57, 80
3, 102799, Note_on_c, 0, 57, 0
3, 102800, Note_on_c, 0, 56, 80
3, 102879, Note_on_c, 0, 56, 0
3, 102880, Note_on_c, 0, 54, 80
3, 102959, Note_on_c, 0, 54, 0
3, 102960, Note_on_c, 0, 56, 80
3, 103119, Note_on_c, 0, 56, 0
3, 103120, Note_on_c, 0, 59, 80
3, 103199, Note_on_c, 0, 59, 0
3, 103200, Note_on_c, 0, 64, 80
3, 103359, Note_on_c, 0, 64, 0
3, 103360, Note_on_c, 0, 59, 80
3, 103439, Note_on_c, 0, 59, 0
3, 103440, Note_on_c, 0, 56, 80
3, 103599, Note_on_c, 0, 56, 0
3, 103600, Note_on_c, 0, 54, 80
3, 103679, Note_on_c, 0, 54, 0
3, 103680, Note_on_c, 0, 56, 80
3, 103839, Note_on_c, 0, 56, 0
3, 103840, Note_on_c, 0, 58, 80
3, 103919, Note_on_c, 0, 58, 0
3, 103920, Note_on_c, 0, 59, 80
3, 103999, Note_on_c, 0, 59, 0
3, 104000, Note_on_c, 0, 63, 80
3, 104079, Note_on_c, 0, 63, 0
3, 104080, Note_on_c, 0, 61, 80
3, 104159, Note_on_c, 0, 61, 0
3, 104160, Note_on_c, 0, 59, 80
3, 104239, Note_on_c, 0, 59, 0
3, 104240, Note_on_c, 0, 58, 80
3, 104319, Note_on_c, 0, 58, 0
3, 104320, Note_on_c, 0, 56, 80
3, 104399, Note_on_c, 0, 56, 0
3, 104400, Note_on_c, 0, 55, 80
3, 104559, Note_on_c, 0, 55, 0
3, 104560, Note_on_c, 0, 56, 80
3, 104639, Note_on_c, 0, 56, 0
3, 104640, Note_on_c, 0, 58, 80
3, 104799, Note_on_c, 0, 58, 0
3, 104800, Note_on_c, 0, 54, 80
3, 104879, Note_on_c, 0, 54, 0
3, 104880, Note_on_c, 0, 56, 80
3, 104959, Note_on_c, 0, 56, 0
3, 104960, Note_on_c, 0, 55, 80
3, 105039, Note_on_c, 0, 55, 0
3, 105040, Note_on_c, 0, 53, 80
3, 105119, Note_on_c, 0, 53, 0
3, 105120, Note_on_c, 0, 55, 80
3, 105199, Note_on_c, 0, 55, 0
3, 105200, Note_on_c, 0, 51, 80
3, 105279, Note_on_c, 0, 51, 0
3, 105280, Note_on_c, 0, 55, 80
3, 105359, Note_on_c, 0, 55, 0
3, 105360, Note_on_c, 0, 58, 80
3, 105439, Note_on_c, 0, 58, 0
3, 105440, Note_on_c, 0, 59, 80
3, 105519, Note_on_c, 0, 59, 0
3, 105520, Note_on_c, 0, 61, 80
3, 105599, Note_on_c, 0, 61, 0
3, 105600, Note_on_c, 0, 59, 80
3, 105679, Note_on_c, 0, 59, 0
3, 105680, Note_on_c, 0, 58, 80
3, 105759, Note_on_c, 0, 58, 0
3, 105760, Note_on_c, 0, 56, 80
3, 105839, Note_on_c, 0, 56, 0
3, 105840, Note_on_c, 0, 58, 80
3, 105919, Note_on_c, 0, 58, 0
3, 105920, Note_on_c, 0, 59, 80
3, 105999, Note_on_c, 0, 59, 0
3, 106000, Note_on_c, 0, 61, 80
3, 106079, Note_on_c, 0, 61, 0
3, 106080, Note_on_c, 0, 59, 80
3, 106159, Note_on_c, 0, 59, 0
3, 106160, Note_on_c, 0, 63, 80
3, 106239, Note_on_c, 0, 63, 0
3, 106240, Note_on_c, 0, 61, 80
3, 106319, Note_on_c, 0, 61, 0
3, 106320, Note_on_c, 0, 59, 80
3, 106399, Note_on_c, 0, 59, 0
3, 106400, Note_on_c, 0, 58, 80
3, 106479, Note_on_c, 0, 58, 0
3, 106480, Note_on_c, 0, 56, 80
3, 106559, Note_on_c, 0, 56, 0
3, 106560, Note_on_c, 0, 55, 80
3, 106639, Note_on_c, 0, 55, 0
3, 106640, Note_on_c, 0, 56, 80
3, 106719, Note_on_c, 0, 56, 0
3, 106720, Note_on_c, 0, 58, 80
3, 106799, Note_on_c, 0, 58, 0
3, 106800, Note_on_c, 0, 56, 80
3, 106879, Note_on_c, 0, 56, 0
3, 106880, Note_on_c, 0, 63, 80
3, 106959, Note_on_c, 0, 63, 0
3, 106960, Note_on_c, 0, 59, 80
3, 107039, Note_on_c, 0, 59, 0
3, 107040, Note_on_c, 0, 56, 80
3, 107119, Note_on_c, 0, 56, 0
3, 107120, Note_on_c, 0, 59, 80
3, 107199, Note_on_c, 0, 59, 0
3, 107200, Note_on_c, 0, 56, 80
3, 107279, Note_on_c, 0, 56, 0
3, 107280, Note_on_c, 0, 51, 80
3, 107439, Note_on_c, 0, 51, 0
3, 107440, Note_on_c, 0, 52, 80
3, 107519, Note_on_c, 0, 52, 0
3, 107520, Note_on_c, 0, 51, 80
3, 107679, Note_on_c, 0, 51, 0
3, 107680, Note_on_c, 0, 49, 80
3, 107759, Note_on_c, 0, 49, 0
3, 107760, Note_on_c, 0, 47, 80
3, 107919, Note_on_c, 0, 47, 0
3, 107920, Note_on_c, 0, 51, 80
3, 107999, Note_on_c, 0, 51, 0
3, 108000, Note_on_c, 0, 56, 80
3, 108159, Note_on_c, 0, 56, 0
3, 108160, Note_on_c, 0, 51, 80
3, 108239, Note_on_c, 0, 51, 0
3, 108240, Note_on_c, 0, 47, 80
3, 108399, Note_on_c, 0, 47, 0
3, 108400, Note_on_c, 0, 46, 80
3, 108479, Note_on_c, 0, 46, 0
3, 108480, Note_on_c, 0, 47, 80
3, 108639, Note_on_c, 0, 47, 0
3, 108640, Note_on_c, 0, 49, 80
3, 108719, Note_on_c, 0, 49, 0
3, 108720, Note_on_c, 0, 51, 80
3, 108959, Note_on_c, 0, 51, 0
3, 108960, Note_on_c, 0, 54, 80
3, 109199, Note_on_c, 0, 54, 0
3, 109200, Note_on_c, 0, 51, 80
3, 109439, Note_on_c, 0, 51, 0
3, 109440, Note_on_c, 0, 48, 80
3, 109679, Note_on_c, 0, 48, 0
3, 109680, Note_on_c, 0, 49, 80
3, 109839, Note_on_c, 0, 49, 0
3, 109840, Note_on_c, 0, 52, 80
3, 109919, Note_on_c, 0, 52, 0
3, 109920, Note_on_c, 0, 57, 80
3, 110079, Note_on_c, 0, 57, 0
3, 110080, Note_on_c, 0, 52, 80
3, 110159, Note_on_c, 0, 52, 0
3, 110160, Note_on_c, 0, 49, 80
3, 110319, Note_on_c, 0, 49, 0
3, 110320, Note_on_c, 0, 47, 80
3, 110399, Note_on_c, 0, 47, 0
3, 110400, Note_on_c, 0, 49, 80
3, 110559, Note_on_c, 0, 49, 0
3, 110560, Note_on_c, 0, 51, 80
3, 110639, Note_on_c, 0, 51, 0
3, 110640, Note_on_c, 0, 52, 80
3, 110879, Note_on_c, 0, 52, 0
3, 110880, Note_on_c, 0, 56, 80
3, 111119, Note_on_c, 0, 56, 0
3, 111120, Note_on_c, 0, 52, 80
3, 111359, Note_on_c, 0, 52, 0
3, 111360, Note_on_c, 0, 49, 80
3, 111599, Note_on_c, 0, 49, 0
3, 111600, Note_on_c, 0, 51, 80
3, 111839, Note_on_c, 0, 51, 0
3, 111840, Note_on_c, 0, 56, 80
3, 112079, Note_on_c, 0, 56, 0
3, 112080, Note_on_c, 0, 57, 80
3, 112319, Note_on_c, 0, 57, 0
3, 112680, Note_on_c, 0, 57, 80
3, 112739, Note_on_c, 0, 57, 0
3, 112740, Note_on_c, 0, 56, 80
3, 112799, Note_on_c, 0, 56, 0
3, 112800, Note_on_c, 0, 54, 80
3, 112859, Note_on_c, 0, 54, 0
3, 112860, Note_on_c, 0, 52, 80
3, 112919, Note_on_c, 0, 52, 0
3, 112920, Note_on_c, 0, 51, 80
3, 112979, Note_on_c, 0, 51, 0
3, 112980, Note_on_c, 0, 49, 80
3, 113039, Note_on_c, 0, 49, 0
3, 113040, Note_on_c, 0, 48, 80
3, 113279, Note_on_c, 0, 48, 0
3, 113600, Note_on_c, 0, 54, 80
3, 113679, Note_on_c, 0, 54, 0
3, 113680, Note_on_c, 0, 49, 80
3, 113759, Note_on_c, 0, 49, 0
3, 113760, Note_on_c, 0, 51, 80
3, 113839, Note_on_c, 0, 51, 0
3, 113840, Note_on_c, 0, 52, 80
3, 113919, Note_on_c, 0, 52, 0
3, 113920, Note_on_c, 0, 54, 80
3, 113999, Note_on_c, 0, 54, 0
3, 114000, Note_on_c, 0, 52, 80
3, 114079, Note_on_c, 0, 52, 0
3, 114080, Note_on_c, 0, 54, 80
3, 114159, Note_on_c, 0, 54, 0
3, 114160, Note_on_c, 0, 56, 80
3, 114239, Note_on_c, 0, 56, 0
3, 114240, Note_on_c, 0, 57, 80
3, 114319, Note_on_c, 0, 57, 0
3, 114320, Note_on_c, 0, 56, 80
3, 114399, Note_on_c, 0, 56, 0
3, 114400, Note_on_c, 0, 54, 80
3, 114479, Note_on_c, 0, 54, 0
3, 114480, Note_on_c, 0, 52, 80
3, 114719, Note_on_c, 0, 52, 0
3, 115200, Note_on_c, 0, 60, 80
3, 115439, Note_on_c, 0, 60, 0
3, 115440, Note_on_c, 0, 61, 80
3, 115519, Note_on_c, 0, 61, 0
3, 115520, Note_on_c, 0, 63, 80
3, 115599, Note_on_c, 0, 63, 0
3, 115600, Note_on_c, 0, 64, 80
3, 115679, Note_on_c, 0, 64, 0
3, 115680, Note_on_c, 0, 63, 80
3, 115759, Note_on_c, 0, 63, 0
3, 115760, Note_on_c, 0, 61, 80
3, 115839, Note_on_c, 0, 61, 0
3, 115840, Note_on_c, 0, 64, 80
3, 115919, Note_on_c, 0, 64, 0
3, 115920, Note_on_c, 0, 63, 80
3, 115979, Note_on_c, 0, 63, 0
3, 115980, Note_on_c, 0, 65, 80
3, 116039, Note_on_c, 0, 65, 0
3, 116040, Note_on_c, 0, 66, 80
3, 116279, Note_on_c, 0, 66, 0
3, 116280, Note_on_c, 0, 65, 80
3, 116399, Note_on_c, 0, 65, 0
3, 116400, Note_on_c, 0, 63, 80
3, 116639, Note_on_c, 0, 63, 0
3, 117120, Note_on_c, 0, 54, 80
3, 117359, Note_on_c, 0, 54, 0
3, 117360, Note_on_c, 0, 61, 80
3, 117599, Note_on_c, 0, 61, 0
3, 118080, Note_on_c, 0, 61, 80
3, 118319, Note_on_c, 0, 61, 0
3, 118320, Note_on_c, 0, 59, 80
3, 118479, Note_on_c, 0, 59, 0
3, 118480, Note_on_c, 0, 56, 80
3, 118559, Note_on_c, 0, 56, 0
3, 118560, Note_on_c, 0, 51, 80
3, 118719, Note_on_c, 0, 51, 0
3, 118720, Note_on_c, 0, 56, 80
3, 118799, Note_on_c, 0, 56, 0
3, 118800, Note_on_c, 0, 59, 80
3, 118959, Note_on_c, 0, 59, 0
3, 118960, Note_on_c, 0, 63, 80
3, 119039, Note_on_c, 0, 63, 0
3, 119040, Note_on_c, 0, 61, 80
3, 119199, Note_on_c, 0, 61, 0
3, 119200, Note_on_c, 0, 59, 80
3, 119279, Note_on_c, 0, 59, 0
3, 119280, Note_on_c, 0, 66, 80
3, 119519, Note_on_c, 0, 66, 0
3, 120000, Note_on_c, 0, 59, 80
3, 120239, Note_on_c, 0, 59, 0
3, 120240, Note_on_c, 0, 57, 80
3, 120399, Note_on_c, 0, 57, 0
3, 120400, Note_on_c, 0, 54, 80
3, 120479, Note_on_c, 0, 54, 0
3, 120480, Note_on_c, 0, 49, 80
3, 120639, Note_on_c, 0, 49, 0
3, 120640, Note_on_c, 0, 54, 80
3, 120719, Note_on_c, 0, 54, 0
3, 120720, Note_on_c, 0, 57, 80
3, 120879, Note_on_c, 0, 57, 0
3, 120880, Note_on_c, 0, 61, 80
3, 120959, Note_on_c, 0, 61, 0
3, 120960, Note_on_c, 0, 59, 80
3, 121119, Note_on_c, 0, 59, 0
3, 121120, Note_on_c, 0, 57, 80
3, 121199, Note_on_c, 0, 57, 0
3, 121200, Note_on_c, 0, 64, 80
3, 121439, Note_on_c, 0, 64, 0
3, 121920, Note_on_c, 0, 57, 80
3, 122159, Note_on_c, 0, 57, 0
3, 122160, Note_on_c, 0, 56, 80
3, 122319, Note_on_c, 0, 56, 0
3, 122320, Note_on_c, 0, 52, 80
3, 122399, Note_on_c, 0, 52, 0
3, 122400, Note_on_c, 0, 47, 80
3, 122559, Note_on_c, 0, 47, 0
3, 122560, Note_on_c, 0, 52, 80
3, 122639, Note_on_c, 0, 52, 0
3, 122640, Note_on_c, 0, 56, 80
3, 122799, Note_on_c, 0, 56, 0
3, 122800, Note_on_c, 0, 59, 80
3, 122879, Note_on_c, 0, 59, 0
3, 122880, Note_on_c, 0, 57, 80
3, 123039, Note_on_c, 0, 57, 0
3, 123040, Note_on_c, 0, 56, 80
3, 123119, Note_on_c, 0, 56, 0
3, 123120, Note_on_c, 0, 63, 80
3, 123359, Note_on_c, 0, 63, 0
3, 123840, Note_on_c, 0, 56, 80
3, 124079, Note_on_c, 0, 56, 0
3, 124080, Note_on_c, 0, 59, 80
3, 124319, Note_on_c, 0, 59, 0
3, 124720, Note_on_c, 0, 51, 80
3, 124799, Note_on_c, 0, 51, 0
3, 124800, Note_on_c, 0, 52, 80
3, 124959, Note_on_c, 0, 52, 0
3, 124960, Note_on_c, 0, 54, 80
3, 125039, Note_on_c, 0, 54, 0
3, 125040, Note_on_c, 0, 48, 80
3, 125519, Note_on_c, 0, 48, 0
3, 125840, Note_on_c, 0, 48, 80
3, 125919, Note_on_c, 0, 48, 0
3, 125920, Note_on_c, 0, 57, 80
3, 125999, Note_on_c, 0, 57, 0
3, 126000, Note_on_c, 0, 56, 80
3, 126319, Note_on_c, 0, 56, 0
3, 126320, Note_on_c, 0, 54, 80
3, 126399, Note_on_c, 0, 54, 0
3, 126400, Note_on_c, 0, 53, 80
3, 126479, Note_on_c, 0, 53, 0
3, 126480, Note_on_c, 0, 54, 80
3, 126799, Note_on_c, 0, 54, 0
3, 126800, Note_on_c, 0, 56, 80
3, 126879, Note_on_c, 0, 56, 0
3, 126880, Note_on_c, 0, 54, 80
3, 126959, Note_on_c, 0, 54, 0
3, 126960, Note_on_c, 0, 52, 80
3, 127279, Note_on_c, 0, 52, 0
3, 127280, Note_on_c, 0, 51, 80
3, 127359, Note_on_c, 0, 51, 0
3, 127360, Note_on_c, 0, 49, 80
3, 127439, Note_on_c, 0, 49, 0
3, 127440, Note_on_c, 0, 51, 80
3, 127759, Note_on_c, 0, 51, 0
3, 127760, Note_on_c, 0, 52, 80
3, 127839, Note_on_c, 0, 52, 0
3, 127840, Note_on_c, 0, 51, 80
3, 127919, Note_on_c, 0, 51, 0
3, 127920, Note_on_c, 0, 49, 80
3, 128959, Note_on_c, 0, 49, 0
3, 128960, Note_on_c, 0, 48, 80
3, 129039, Note_on_c, 0, 48, 0
3, 129040, Note_on_c, 0, 46, 80
3, 129119, Note_on_c, 0, 46, 0
3, 129120, Note_on_c, 0, 48, 80
3, 129199, Note_on_c, 0, 48, 0
3, 129200, Note_on_c, 0, 51, 80
3, 129279, Note_on_c, 0, 51, 0
3, 129280, Note_on_c, 0, 56, 80
3, 129359, Note_on_c, 0, 56, 0
3, 129360, Note_on_c, 0, 54, 80
3, 129439, Note_on_c, 0, 54, 0
3, 129440, Note_on_c, 0, 52, 80
3, 129519, Note_on_c, 0, 52, 0
3, 129520, Note_on_c, 0, 51, 80
3, 129599, Note_on_c, 0, 51, 0
3, 129600, Note_on_c, 0, 52, 80
3, 129679, Note_on_c, 0, 52, 0
3, 129680, Note_on_c, 0, 51, 80
3, 129759, Note_on_c, 0, 51, 0
3, 129760, Note_on_c, 0, 49, 80
3, 129839, Note_on_c, 0, 49, 0
3, 129840, Note_on_c, 0, 51, 80
3, 129919, Note_on_c, 0, 51, 0
3, 129920, Note_on_c, 0, 52, 80
3, 129999, Note_on_c, 0, 52, 0
3, 130000, Note_on_c, 0, 54, 80
3, 130079, Note_on_c, 0, 54, 0
3, 130080, Note_on_c, 0, 53, 80
3, 130159, Note_on_c, 0, 53, 0
3, 130160, Note_on_c, 0, 54, 80
3, 130239, Note_on_c, 0, 54, 0
3, 130240, Note_on_c, 0, 56, 80
3, 130319, Note_on_c, 0, 56, 0
3, 130320, Note_on_c, 0, 54, 80
3, 130559, Note_on_c, 0, 54, 0
3, 131520, Note_on_c, 0, 56, 80
3, 131759, Note_on_c, 0, 56, 0
3, 131760, Note_on_c, 0, 61, 80
3, 131999, Note_on_c, 0, 61, 0
3, 132000, Note_on_c, 0, 49, 80
3, 132319, Note_on_c, 0, 49, 0
3, 132320, Note_on_c, 0, 51, 80
3, 132399, Note_on_c, 0, 51, 0
3, 132400, Note_on_c, 0, 53, 80
3, 132479, Note_on_c, 0, 53, 0
3, 132480, Note_on_c, 0, 51, 80
3, 132559, Note_on_c, 0, 51, 0
3, 132560, Note_on_c, 0, 53, 80
3, 132639, Note_on_c, 0, 53, 0
3, 132640, Note_on_c, 0, 54, 80
3, 132719, Note_on_c, 0, 54, 0
3, 132720, Note_on_c, 0, 53, 80
3, 132799, Note_on_c, 0, 53, 0
3, 132800, Note_on_c, 0, 54, 80
3, 132879, Note_on_c, 0, 54, 0
3, 132880, Note_on_c, 0, 56, 80
3, 132959, Note_on_c, 0, 56, 0
3, 132960, Note_on_c, 0, 54, 80
3, 133279, Note_on_c, 0, 54, 0
3, 133280, Note_on_c, 0, 56, 80
3, 133359, Note_on_c, 0, 56, 0
3, 133360, Note_on_c, 0, 57, 80
3, 133439, Note_on_c, 0, 57, 0
3, 133440, Note_on_c, 0, 56, 80
3, 133519, Note_on_c, 0, 56, 0
3, 133520, Note_on_c, 0, 57, 80
3, 133599, Note_on_c, 0, 57, 0
3, 133600, Note_on_c, 0, 59, 80
3, 133679, Note_on_c, 0, 59, 0
3, 133680, Note_on_c, 0, 57, 80
3, 133759, Note_on_c, 0, 57, 0
3, 133760, Note_on_c, 0, 56, 80
3, 133839, Note_on_c, 0, 56, 0
3, 133840, Note_on_c, 0, 54, 80
3, 133919, Note_on_c, 0, 54, 0
3, 133920, Note_on_c, 0, 56, 80
3, 134239, Note_on_c, 0, 56, 0
3, 134240, Note_on_c, 0, 54, 80
3, 134319, Note_on_c, 0, 54, 0
3, 134320, Note_on_c, 0, 52, 80
3, 134399, Note_on_c, 0, 52, 0
3, 134400, Note_on_c, 0, 54, 80
3, 134479, Note_on_c, 0, 54, 0
3, 134480, Note_on_c, 0, 52, 80
3, 134559, Note_on_c, 0, 52, 0
3, 134560, Note_on_c, 0, 51, 80
3, 134639, Note_on_c, 0, 51, 0
3, 134640, Note_on_c, 0, 52, 80
3, 134799, Note_on_c, 0, 52, 0
3, 134800, Note_on_c, 0, 56, 80
3, 134879, Note_on_c, 0, 56, 0
3, 134880, Note_on_c, 0, 61, 80
3, 135039, Note_on_c, 0, 61, 0
3, 135040, Note_on_c, 0, 56, 80
3, 135119, Note_on_c, 0, 56, 0
3, 135120, Note_on_c, 0, 52, 80
3, 135279, Note_on_c, 0, 52, 0
3, 135280, Note_on_c, 0, 51, 80
3, 135359, Note_on_c, 0, 51, 0
3, 135360, Note_on_c, 0, 53, 80
3, 135519, Note_on_c, 0, 53, 0
3, 135520, Note_on_c, 0, 54, 80
3, 135599, Note_on_c, 0, 54, 0
3, 135600, Note_on_c, 0, 56, 80
3, 135679, Note_on_c, 0, 56, 0
3, 135680, Note_on_c, 0, 57, 80
3, 135759, Note_on_c, 0, 57, 0
3, 135760, Note_on_c, 0, 59, 80
3, 135839, Note_on_c, 0, 59, 0
3, 135840, Note_on_c, 0, 57, 80
3, 136159, Note_on_c, 0, 57, 0
3, 136160, Note_on_c, 0, 59, 80
3, 136239, Note_on_c, 0, 59, 0
3, 136240, Note_on_c, 0, 61, 80
3, 136319, Note_on_c, 0, 61, 0
3, 136320, Note_on_c, 0, 60, 80
3, 136399, Note_on_c, 0, 60, 0
3, 136400, Note_on_c, 0, 58, 80
3, 136479, Note_on_c, 0, 58, 0
3, 136480, Note_on_c, 0, 56, 80
3, 136559, Note_on_c, 0, 56, 0
3, 136560, Note_on_c, 0, 61, 80
3, 137279, Note_on_c, 0, 61, 0
3, 137280, End_track
0, 0, End_of_file
