0, 0, Header, 1, 2, 480
1, 0, Start_track
1, 0, Unknown_meta_event, 8, 36, 71, 111, 108, 100, 98, 101, 114, 103, 32, 86, 97, 114, 105, 97, 116, 105, 111, 110, 115, 58, 32, 86, 97, 114, 105, 97, 116, 105, 111, 110, 32, 88, 88, 73, 73, 0
1, 0, Unknown_meta_event, 9, 8, 66, 87, 86, 32, 57, 56, 56, 0
1, 0, Unknown_meta_event, 10, 11, 74, 46, 32, 83, 46, 32, 66, 97, 99, 104, 0
1, 0, Time_signature, 2, 1, 24, 8
1, 0, Key_signature, 1, "major"
1, 0, Tempo, 326087
1, 0, Program_c, 0, 46
1, 2, Control_c, 0, 7, 100
1, 4, Control_c, 0, 10, 64
1, 6, Control_c, 0, 91, 30
1, 8, Control_c, 0, 93, 30
1, 4800, Note_on_c, 0, 67, 80
1, 5759, Note_on_c, 0, 67, 0
1, 6240, Note_on_c, 0, 66, 80
1, 6479, Note_on_c, 0, 66, 0
1, 6480, Note_on_c, 0, 64, 80
1, 6719, Note_on_c, 0, 64, 0
1, 6720, Note_on_c, 0, 66, 80
1, 7199, Note_on_c, 0, 66, 0
1, 7200, Note_on_c, 0, 69, 80
1, 7679, Note_on_c, 0, 69, 0
1, 7680, Note_on_c, 0, 62, 80
1, 8640, Note_on_c, 0, 74, 80
1, 9119, Note_on_c, 0, 62, 0
1, 9120, Note_on_c, 0, 65, 80
1, 9599, Note_on_c, 0, 65, 0
1, 9599, Note_on_c, 0, 74, 0
1, 9600, Note_on_c, 0, 64, 80
1, 10080, Note_on_c, 0, 72, 80
1, 10319, Note_on_c, 0, 72, 0
1, 10320, Note_on_c, 0, 71, 80
1, 10559, Note_on_c, 0, 71, 0
1, 10560, Note_on_c, 0, 72, 80
1, 11039, Note_on_c, 0, 64, 0
1, 11039, Note_on_c, 0, 72, 0
1, 11040, Note_on_c, 0, 67, 80
1, 11040, Note_on_c, 0, 76, 80
1, 11519, Note_on_c, 0, 67, 0
1, 11519, Note_on_c, 0, 76, 0
1, 11520, Note_on_c, 0, 69, 80
1, 11999, Note_on_c, 0, 69, 0
1, 12000, Note_on_c, 0, 66, 80
1, 12000, Note_on_c, 0, 74, 80
1, 12239, Note_on_c, 0, 66, 0
1, 12240, Note_on_c, 0, 64, 80
1, 12479, Note_on_c, 0, 64, 0
1, 12480, Note_on_c, 0, 66, 80
1, 12959, Note_on_c, 0, 66, 0
1, 12959, Note_on_c, 0, 74, 0
1, 12960, Note_on_c, 0, 69, 80
1, 12960, Note_on_c, 0, 72, 80
1, 13439, Note_on_c, 0, 69, 0
1, 13439, Note_on_c, 0, 72, 0
1, 13920, Note_on_c, 0, 67, 80
1, 13920, Note_on_c, 0, 71, 80
1, 14159, Note_on_c, 0, 67, 0
1, 14159, Note_on_c, 0, 71, 0
1, 14160, Note_on_c, 0, 66, 80
1, 14160, Note_on_c, 0, 69, 80
1, 14399, Note_on_c, 0, 66, 0
1, 14399, Note_on_c, 0, 69, 0
1, 14400, Note_on_c, 0, 67, 80
1, 14400, Note_on_c, 0, 71, 80
1, 14879, Note_on_c, 0, 67, 0
1, 14880, Note_on_c, 0, 71, 80
1, 15359, Note_on_c, 0, 71, 0
1, 15359, Note_on_c, 0, 71, 0
1, 15360, Note_on_c, 0, 64, 80
1, 15840, Note_on_c, 0, 71, 80
1, 16079, Note_on_c, 0, 71, 0
1, 16080, Note_on_c, 0, 69, 80
1, 16319, Note_on_c, 0, 64, 0
1, 16319, Note_on_c, 0, 69, 0
1, 16320, Note_on_c, 0, 71, 80
1, 16320, Note_on_c, 0, 71, 80
1, 16799, Note_on_c, 0, 71, 0
1, 16800, Note_on_c, 0, 76, 80
1, 17279, Note_on_c, 0, 71, 0
1, 17279, Note_on_c, 0, 76, 0
1, 17280, Note_on_c, 0, 69, 80
1, 17280, Note_on_c, 0, 73, 80
1, 17759, Note_on_c, 0, 73, 0
1, 17760, Note_on_c, 0, 81, 80
1, 18239, Note_on_c, 0, 69, 0
1, 18240, Note_on_c, 0, 74, 80
1, 18719, Note_on_c, 0, 81, 0
1, 18720, Note_on_c, 0, 79, 80
1, 18959, Note_on_c, 0, 79, 0
1, 18960, Note_on_c, 0, 78, 80
1, 19199, Note_on_c, 0, 74, 0
1, 19199, Note_on_c, 0, 78, 0
1, 19200, Note_on_c, 0, 76, 80
1, 19200, Note_on_c, 0, 81, 80
1, 19259, Note_on_c, 0, 81, 0
1, 19260, Note_on_c, 0, 79, 80
1, 19319, Note_on_c, 0, 79, 0
1, 19320, Note_on_c, 0, 81, 80
1, 19379, Note_on_c, 0, 81, 0
1, 19380, Note_on_c, 0, 79, 80
1, 19439, Note_on_c, 0, 79, 0
1, 19440, Note_on_c, 0, 81, 80
1, 19499, Note_on_c, 0, 81, 0
1, 19500, Note_on_c, 0, 79, 80
1, 19559, Note_on_c, 0, 79, 0
1, 19560, Note_on_c, 0, 81, 80
1, 19619, Note_on_c, 0, 81, 0
1, 19620, Note_on_c, 0, 79, 80
1, 19679, Note_on_c, 0, 79, 0
1, 19680, Note_on_c, 0, 81, 80
1, 19739, Note_on_c, 0, 81, 0
1, 19740, Note_on_c, 0, 79, 80
1, 19799, Note_on_c, 0, 79, 0
1, 19800, Note_on_c, 0, 81, 80
1, 19859, Note_on_c, 0, 81, 0
1, 19860, Note_on_c, 0, 79, 80
1, 19919, Note_on_c, 0, 79, 0
1, 19920, Note_on_c, 0, 81, 80
1, 19979, Note_on_c, 0, 81, 0
1, 19980, Note_on_c, 0, 79, 80
1, 20039, Note_on_c, 0, 79, 0
1, 20040, Note_on_c, 0, 81, 80
1, 20099, Note_on_c, 0, 81, 0
1, 20100, Note_on_c, 0, 79, 80
1, 20159, Note_on_c, 0, 79, 0
1, 20160, Note_on_c, 0, 81, 80
1, 20219, Note_on_c, 0, 81, 0
1, 20220, Note_on_c, 0, 79, 80
1, 20279, Note_on_c, 0, 79, 0
1, 20280, Note_on_c, 0, 81, 80
1, 20339, Note_on_c, 0, 81, 0
1, 20340, Note_on_c, 0, 79, 80
1, 20399, Note_on_c, 0, 79, 0
1, 20400, Note_on_c, 0, 81, 80
1, 20459, Note_on_c, 0, 81, 0
1, 20460, Note_on_c, 0, 79, 80
1, 20519, Note_on_c, 0, 79, 0
1, 20520, Note_on_c, 0, 81, 80
1, 20579, Note_on_c, 0, 81, 0
1, 20580, Note_on_c, 0, 79, 80
1, 20639, Note_on_c, 0, 79, 0
1, 20640, Note_on_c, 0, 81, 80
1, 20699, Note_on_c, 0, 81, 0
1, 20700, Note_on_c, 0, 79, 80
1, 20759, Note_on_c, 0, 79, 0
1, 20760, Note_on_c, 0, 81, 80
1, 20819, Note_on_c, 0, 81, 0
1, 20820, Note_on_c, 0, 79, 80
1, 20879, Note_on_c, 0, 79, 0
1, 20880, Note_on_c, 0, 81, 80
1, 20939, Note_on_c, 0, 81, 0
1, 20940, Note_on_c, 0, 79, 80
1, 20999, Note_on_c, 0, 79, 0
1, 21000, Note_on_c, 0, 81, 80
1, 21059, Note_on_c, 0, 81, 0
1, 21060, Note_on_c, 0, 79, 80
1, 21119, Note_on_c, 0, 76, 0
1, 21119, Note_on_c, 0, 79, 0
1, 21120, Note_on_c, 0, 81, 80
1, 21179, Note_on_c, 0, 81, 0
1, 21180, Note_on_c, 0, 79, 80
1, 21239, Note_on_c, 0, 79, 0
1, 21240, Note_on_c, 0, 81, 80
1, 21299, Note_on_c, 0, 81, 0
1, 21300, Note_on_c, 0, 79, 80
1, 21359, Note_on_c, 0, 79, 0
1, 21360, Note_on_c, 0, 81, 80
1, 21419, Note_on_c, 0, 81, 0
1, 21420, Note_on_c, 0, 79, 80
1, 21479, Note_on_c, 0, 79, 0
1, 21480, Note_on_c, 0, 81, 80
1, 21539, Note_on_c, 0, 81, 0
1, 21540, Note_on_c, 0, 79, 80
1, 21599, Note_on_c, 0, 79, 0
1, 21600, Note_on_c, 0, 81, 80
1, 21659, Note_on_c, 0, 81, 0
1, 21660, Note_on_c, 0, 79, 80
1, 21719, Note_on_c, 0, 79, 0
1, 21720, Note_on_c, 0, 81, 80
1, 21779, Note_on_c, 0, 81, 0
1, 21780, Note_on_c, 0, 79, 80
1, 21839, Note_on_c, 0, 79, 0
1, 21840, Note_on_c, 0, 81, 80
1, 21899, Note_on_c, 0, 81, 0
1, 21900, Note_on_c, 0, 79, 80
1, 21959, Note_on_c, 0, 79, 0
1, 21960, Note_on_c, 0, 81, 80
1, 22019, Note_on_c, 0, 81, 0
1, 22020, Note_on_c, 0, 79, 80
1, 22079, Note_on_c, 0, 79, 0
1, 22080, Note_on_c, 0, 81, 80
1, 22139, Note_on_c, 0, 81, 0
1, 22140, Note_on_c, 0, 79, 80
1, 22199, Note_on_c, 0, 79, 0
1, 22200, Note_on_c, 0, 81, 80
1, 22259, Note_on_c, 0, 81, 0
1, 22260, Note_on_c, 0, 79, 80
1, 22319, Note_on_c, 0, 79, 0
1, 22320, Note_on_c, 0, 81, 80
1, 22379, Note_on_c, 0, 81, 0
1, 22380, Note_on_c, 0, 79, 80
1, 22439, Note_on_c, 0, 79, 0
1, 22440, Note_on_c, 0, 81, 80
1, 22499, Note_on_c, 0, 81, 0
1, 22500, Note_on_c, 0, 79, 80
1, 22559, Note_on_c, 0, 79, 0
1, 22560, Note_on_c, 0, 81, 80
1, 22619, Note_on_c, 0, 81, 0
1, 22620, Note_on_c, 0, 79, 80
1, 22679, Note_on_c, 0, 79, 0
1, 22680, Note_on_c, 0, 81, 80
1, 22739, Note_on_c, 0, 81, 0
1, 22740, Note_on_c, 0, 79, 80
1, 22799, Note_on_c, 0, 79, 0
1, 22800, Note_on_c, 0, 81, 80
1, 22859, Note_on_c, 0, 81, 0
1, 22860, Note_on_c, 0, 79, 80
1, 22919, Note_on_c, 0, 79, 0
1, 22920, Note_on_c, 0, 81, 80
1, 22979, Note_on_c, 0, 81, 0
1, 22980, Note_on_c, 0, 79, 80
1, 23039, Note_on_c, 0, 79, 0
1, 23040, Note_on_c, 0, 81, 80
1, 23099, Note_on_c, 0, 81, 0
1, 23100, Note_on_c, 0, 79, 80
1, 23159, Note_on_c, 0, 79, 0
1, 23160, Note_on_c, 0, 81, 80
1, 23219, Note_on_c, 0, 81, 0
1, 23220, Note_on_c, 0, 79, 80
1, 23279, Note_on_c, 0, 79, 0
1, 23280, Note_on_c, 0, 81, 80
1, 23339, Note_on_c, 0, 81, 0
1, 23340, Note_on_c, 0, 79, 80
1, 23399, Note_on_c, 0, 79, 0
1, 23400, Note_on_c, 0, 81, 80
1, 23459, Note_on_c, 0, 81, 0
1, 23460, Note_on_c, 0, 79, 80
1, 23519, Note_on_c, 0, 79, 0
1, 23520, Note_on_c, 0, 74, 80
1, 23520, Note_on_c, 0, 78, 80
1, 23759, Note_on_c, 0, 74, 0
1, 23759, Note_on_c, 0, 78, 0
1, 23760, Note_on_c, 0, 73, 80
1, 23760, Note_on_c, 0, 76, 80
1, 23999, Note_on_c, 0, 73, 0
1, 23999, Note_on_c, 0, 76, 0
1, 24000, Note_on_c, 0, 74, 80
1, 24000, Note_on_c, 0, 78, 80
1, 24479, Note_on_c, 0, 74, 0
1, 24479, Note_on_c, 0, 78, 0
1, 24480, Note_on_c, 0, 78, 80
1, 24480, Note_on_c, 0, 81, 80
1, 24959, Note_on_c, 0, 78, 0
1, 24959, Note_on_c, 0, 81, 0
1, 24960, Note_on_c, 0, 71, 80
1, 24960, Note_on_c, 0, 74, 80
1, 25919, Note_on_c, 0, 74, 0
1, 25920, Note_on_c, 0, 79, 80
1, 26399, Note_on_c, 0, 71, 0
1, 26400, Note_on_c, 0, 76, 80
1, 26639, Note_on_c, 0, 76, 0
1, 26640, Note_on_c, 0, 74, 80
1, 26879, Note_on_c, 0, 74, 0
1, 26879, Note_on_c, 0, 79, 0
1, 26880, Note_on_c, 0, 76, 80
1, 27359, Note_on_c, 0, 76, 0
1, 27360, Note_on_c, 0, 74, 80
1, 27360, Note_on_c, 0, 78, 80
1, 27839, Note_on_c, 0, 78, 0
1, 27840, Note_on_c, 0, 76, 80
1, 28319, Note_on_c, 0, 74, 0
1, 28320, Note_on_c, 0, 73, 80
1, 28799, Note_on_c, 0, 73, 0
1, 28799, Note_on_c, 0, 76, 0
1, 28800, Note_on_c, 0, 74, 80
1, 28800, Note_on_c, 0, 74, 80
1, 29279, Note_on_c, 0, 74, 0
1, 29280, Note_on_c, 0, 69, 80
1, 29519, Note_on_c, 0, 69, 0
1, 29520, Note_on_c, 0, 67, 80
1, 29759, Note_on_c, 0, 67, 0
1, 29760, Note_on_c, 0, 69, 80
1, 30719, Note_on_c, 0, 69, 0
1, 30719, Note_on_c, 0, 74, 0
1, 35520, Note_on_c, 0, 67, 80
1, 36479, Note_on_c, 0, 67, 0
1, 36960, Note_on_c, 0, 66, 80
1, 37199, Note_on_c, 0, 66, 0
1, 37200, Note_on_c, 0, 64, 80
1, 37439, Note_on_c, 0, 64, 0
1, 37440, Note_on_c, 0, 66, 80
1, 37919, Note_on_c, 0, 66, 0
1, 37920, Note_on_c, 0, 69, 80
1, 38399, Note_on_c, 0, 69, 0
1, 38400, Note_on_c, 0, 62, 80
1, 39360, Note_on_c, 0, 74, 80
1, 39839, Note_on_c, 0, 62, 0
1, 39840, Note_on_c, 0, 65, 80
1, 40319, Note_on_c, 0, 65, 0
1, 40319, Note_on_c, 0, 74, 0
1, 40320, Note_on_c, 0, 64, 80
1, 40800, Note_on_c, 0, 72, 80
1, 41039, Note_on_c, 0, 72, 0
1, 41040, Note_on_c, 0, 71, 80
1, 41279, Note_on_c, 0, 71, 0
1, 41280, Note_on_c, 0, 72, 80
1, 41759, Note_on_c, 0, 64, 0
1, 41759, Note_on_c, 0, 72, 0
1, 41760, Note_on_c, 0, 67, 80
1, 41760, Note_on_c, 0, 76, 80
1, 42239, Note_on_c, 0, 67, 0
1, 42239, Note_on_c, 0, 76, 0
1, 42240, Note_on_c, 0, 69, 80
1, 42719, Note_on_c, 0, 69, 0
1, 42720, Note_on_c, 0, 66, 80
1, 42720, Note_on_c, 0, 74, 80
1, 42959, Note_on_c, 0, 66, 0
1, 42960, Note_on_c, 0, 64, 80
1, 43199, Note_on_c, 0, 64, 0
1, 43200, Note_on_c, 0, 66, 80
1, 43679, Note_on_c, 0, 66, 0
1, 43679, Note_on_c, 0, 74, 0
1, 43680, Note_on_c, 0, 69, 80
1, 43680, Note_on_c, 0, 72, 80
1, 44159, Note_on_c, 0, 69, 0
1, 44159, Note_on_c, 0, 72, 0
1, 44640, Note_on_c, 0, 67, 80
1, 44640, Note_on_c, 0, 71, 80
1, 44879, Note_on_c, 0, 67, 0
1, 44879, Note_on_c, 0, 71, 0
1, 44880, Note_on_c, 0, 66, 80
1, 44880, Note_on_c, 0, 69, 80
1, 45119, Note_on_c, 0, 66, 0
1, 45119, Note_on_c, 0, 69, 0
1, 45120, Note_on_c, 0, 67, 80
1, 45120, Note_on_c, 0, 71, 80
1, 45599, Note_on_c, 0, 67, 0
1, 45600, Note_on_c, 0, 71, 80
1, 46079, Note_on_c, 0, 71, 0
1, 46079, Note_on_c, 0, 71, 0
1, 46080, Note_on_c, 0, 64, 80
1, 46560, Note_on_c, 0, 71, 80
1, 46799, Note_on_c, 0, 71, 0
1, 46800, Note_on_c, 0, 69, 80
1, 47039, Note_on_c, 0, 64, 0
1, 47039, Note_on_c, 0, 69, 0
1, 47040, Note_on_c, 0, 71, 80
1, 47040, Note_on_c, 0, 71, 80
1, 47519, Note_on_c, 0, 71, 0
1, 47520, Note_on_c, 0, 76, 80
1, 47999, Note_on_c, 0, 71, 0
1, 47999, Note_on_c, 0, 76, 0
1, 48000, Note_on_c, 0, 69, 80
1, 48000, Note_on_c, 0, 73, 80
1, 48479, Note_on_c, 0, 73, 0
1, 48480, Note_on_c, 0, 81, 80
1, 48959, Note_on_c, 0, 69, 0
1, 48960, Note_on_c, 0, 74, 80
1, 49439, Note_on_c, 0, 81, 0
1, 49440, Note_on_c, 0, 79, 80
1, 49679, Note_on_c, 0, 79, 0
1, 49680, Note_on_c, 0, 78, 80
1, 49919, Note_on_c, 0, 74, 0
1, 49919, Note_on_c, 0, 78, 0
1, 49920, Note_on_c, 0, 76, 80
1, 49920, Note_on_c, 0, 81, 80
1, 49979, Note_on_c, 0, 81, 0
1, 49980, Note_on_c, 0, 79, 80
1, 50039, Note_on_c, 0, 79, 0
1, 50040, Note_on_c, 0, 81, 80
1, 50099, Note_on_c, 0, 81, 0
1, 50100, Note_on_c, 0, 79, 80
1, 50159, Note_on_c, 0, 79, 0
1, 50160, Note_on_c, 0, 81, 80
1, 50219, Note_on_c, 0, 81, 0
1, 50220, Note_on_c, 0, 79, 80
1, 50279, Note_on_c, 0, 79, 0
1, 50280, Note_on_c, 0, 81, 80
1, 50339, Note_on_c, 0, 81, 0
1, 50340, Note_on_c, 0, 79, 80
1, 50399, Note_on_c, 0, 79, 0
1, 50400, Note_on_c, 0, 81, 80
1, 50459, Note_on_c, 0, 81, 0
1, 50460, Note_on_c, 0, 79, 80
1, 50519, Note_on_c, 0, 79, 0
1, 50520, Note_on_c, 0, 81, 80
1, 50579, Note_on_c, 0, 81, 0
1, 50580, Note_on_c, 0, 79, 80
1, 50639, Note_on_c, 0, 79, 0
1, 50640, Note_on_c, 0, 81, 80
1, 50699, Note_on_c, 0, 81, 0
1, 50700, Note_on_c, 0, 79, 80
1, 50759, Note_on_c, 0, 79, 0
1, 50760, Note_on_c, 0, 81, 80
1, 50819, Note_on_c, 0, 81, 0
1, 50820, Note_on_c, 0, 79, 80
1, 50879, Note_on_c, 0, 79, 0
1, 50880, Note_on_c, 0, 81, 80
1, 50939, Note_on_c, 0, 81, 0
1, 50940, Note_on_c, 0, 79, 80
1, 50999, Note_on_c, 0, 79, 0
1, 51000, Note_on_c, 0, 81, 80
1, 51059, Note_on_c, 0, 81, 0
1, 51060, Note_on_c, 0, 79, 80
1, 51119, Note_on_c, 0, 79, 0
1, 51120, Note_on_c, 0, 81, 80
1, 51179, Note_on_c, 0, 81, 0
1, 51180, Note_on_c, 0, 79, 80
1, 51239, Note_on_c, 0, 79, 0
1, 51240, Note_on_c, 0, 81, 80
1, 51299, Note_on_c, 0, 81, 0
1, 51300, Note_on_c, 0, 79, 80
1, 51359, Note_on_c, 0, 79, 0
1, 51360, Note_on_c, 0, 81, 80
1, 51419, Note_on_c, 0, 81, 0
1, 51420, Note_on_c, 0, 79, 80
1, 51479, Note_on_c, 0, 79, 0
1, 51480, Note_on_c, 0, 81, 80
1, 51539, Note_on_c, 0, 81, 0
1, 51540, Note_on_c, 0, 79, 80
1, 51599, Note_on_c, 0, 79, 0
1, 51600, Note_on_c, 0, 81, 80
1, 51659, Note_on_c, 0, 81, 0
1, 51660, Note_on_c, 0, 79, 80
1, 51719, Note_on_c, 0, 79, 0
1, 51720, Note_on_c, 0, 81, 80
1, 51779, Note_on_c, 0, 81, 0
1, 51780, Note_on_c, 0, 79, 80
1, 51839, Note_on_c, 0, 76, 0
1, 51839, Note_on_c, 0, 79, 0
1, 51840, Note_on_c, 0, 81, 80
1, 51899, Note_on_c, 0, 81, 0
1, 51900, Note_on_c, 0, 79, 80
1, 51959, Note_on_c, 0, 79, 0
1, 51960, Note_on_c, 0, 81, 80
1, 52019, Note_on_c, 0, 81, 0
1, 52020, Note_on_c, 0, 79, 80
1, 52079, Note_on_c, 0, 79, 0
1, 52080, Note_on_c, 0, 81, 80
1, 52139, Note_on_c, 0, 81, 0
1, 52140, Note_on_c, 0, 79, 80
1, 52199, Note_on_c, 0, 79, 0
1, 52200, Note_on_c, 0, 81, 80
1, 52259, Note_on_c, 0, 81, 0
1, 52260, Note_on_c, 0, 79, 80
1, 52319, Note_on_c, 0, 79, 0
1, 52320, Note_on_c, 0, 81, 80
1, 52379, Note_on_c, 0, 81, 0
1, 52380, Note_on_c, 0, 79, 80
1, 52439, Note_on_c, 0, 79, 0
1, 52440, Note_on_c, 0, 81, 80
1, 52499, Note_on_c, 0, 81, 0
1, 52500, Note_on_c, 0, 79, 80
1, 52559, Note_on_c, 0, 79, 0
1, 52560, Note_on_c, 0, 81, 80
1, 52619, Note_on_c, 0, 81, 0
1, 52620, Note_on_c, 0, 79, 80
1, 52679, Note_on_c, 0, 79, 0
1, 52680, Note_on_c, 0, 81, 80
1, 52739, Note_on_c, 0, 81, 0
1, 52740, Note_on_c, 0, 79, 80
1, 52799, Note_on_c, 0, 79, 0
1, 52800, Note_on_c, 0, 81, 80
1, 52859, Note_on_c, 0, 81, 0
1, 52860, Note_on_c, 0, 79, 80
1, 52919, Note_on_c, 0, 79, 0
1, 52920, Note_on_c, 0, 81, 80
1, 52979, Note_on_c, 0, 81, 0
1, 52980, Note_on_c, 0, 79, 80
1, 53039, Note_on_c, 0, 79, 0
1, 53040, Note_on_c, 0, 81, 80
1, 53099, Note_on_c, 0, 81, 0
1, 53100, Note_on_c, 0, 79, 80
1, 53159, Note_on_c, 0, 79, 0
1, 53160, Note_on_c, 0, 81, 80
1, 53219, Note_on_c, 0, 81, 0
1, 53220, Note_on_c, 0, 79, 80
1, 53279, Note_on_c, 0, 79, 0
1, 53280, Note_on_c, 0, 81, 80
1, 53339, Note_on_c, 0, 81, 0
1, 53340, Note_on_c, 0, 79, 80
1, 53399, Note_on_c, 0, 79, 0
1, 53400, Note_on_c, 0, 81, 80
1, 53459, Note_on_c, 0, 81, 0
1, 53460, Note_on_c, 0, 79, 80
1, 53519, Note_on_c, 0, 79, 0
1, 53520, Note_on_c, 0, 81, 80
1, 53579, Note_on_c, 0, 81, 0
1, 53580, Note_on_c, 0, 79, 80
1, 53639, Note_on_c, 0, 79, 0
1, 53640, Note_on_c, 0, 81, 80
1, 53699, Note_on_c, 0, 81, 0
1, 53700, Note_on_c, 0, 79, 80
1, 53759, Note_on_c, 0, 79, 0
1, 53760, Note_on_c, 0, 81, 80
1, 53819, Note_on_c, 0, 81, 0
1, 53820, Note_on_c, 0, 79, 80
1, 53879, Note_on_c, 0, 79, 0
1, 53880, Note_on_c, 0, 81, 80
1, 53939, Note_on_c, 0, 81, 0
1, 53940, Note_on_c, 0, 79, 80
1, 53999, Note_on_c, 0, 79, 0
1, 54000, Note_on_c, 0, 81, 80
1, 54059, Note_on_c, 0, 81, 0
1, 54060, Note_on_c, 0, 79, 80
1, 54119, Note_on_c, 0, 79, 0
1, 54120, Note_on_c, 0, 81, 80
1, 54179, Note_on_c, 0, 81, 0
1, 54180, Note_on_c, 0, 79, 80
1, 54239, Note_on_c, 0, 79, 0
1, 54240, Note_on_c, 0, 74, 80
1, 54240, Note_on_c, 0, 78, 80
1, 54479, Note_on_c, 0, 74, 0
1, 54479, Note_on_c, 0, 78, 0
1, 54480, Note_on_c, 0, 73, 80
1, 54480, Note_on_c, 0, 76, 80
1, 54719, Note_on_c, 0, 73, 0
1, 54719, Note_on_c, 0, 76, 0
1, 54720, Note_on_c, 0, 74, 80
1, 54720, Note_on_c, 0, 78, 80
1, 55199, Note_on_c, 0, 74, 0
1, 55199, Note_on_c, 0, 78, 0
1, 55200, Note_on_c, 0, 78, 80
1, 55200, Note_on_c, 0, 81, 80
1, 55679, Note_on_c, 0, 78, 0
1, 55679, Note_on_c, 0, 81, 0
1, 55680, Note_on_c, 0, 71, 80
1, 55680, Note_on_c, 0, 74, 80
1, 56639, Note_on_c, 0, 74, 0
1, 56640, Note_on_c, 0, 79, 80
1, 57119, Note_on_c, 0, 71, 0
1, 57120, Note_on_c, 0, 76, 80
1, 57359, Note_on_c, 0, 76, 0
1, 57360, Note_on_c, 0, 74, 80
1, 57599, Note_on_c, 0, 74, 0
1, 57599, Note_on_c, 0, 79, 0
1, 57600, Note_on_c, 0, 76, 80
1, 58079, Note_on_c, 0, 76, 0
1, 58080, Note_on_c, 0, 74, 80
1, 58080, Note_on_c, 0, 78, 80
1, 58559, Note_on_c, 0, 78, 0
1, 58560, Note_on_c, 0, 76, 80
1, 59039, Note_on_c, 0, 74, 0
1, 59040, Note_on_c, 0, 73, 80
1, 59519, Note_on_c, 0, 73, 0
1, 59519, Note_on_c, 0, 76, 0
1, 59520, Note_on_c, 0, 74, 80
1, 59520, Note_on_c, 0, 74, 80
1, 59999, Note_on_c, 0, 74, 0
1, 60000, Note_on_c, 0, 69, 80
1, 60239, Note_on_c, 0, 69, 0
1, 60240, Note_on_c, 0, 67, 80
1, 60479, Note_on_c, 0, 67, 0
1, 60480, Note_on_c, 0, 69, 80
1, 61439, Note_on_c, 0, 69, 0
1, 61439, Note_on_c, 0, 74, 0
1, 62400, Note_on_c, 0, 81, 80
1, 63359, Note_on_c, 0, 81, 0
1, 63840, Note_on_c, 0, 79, 80
1, 64079, Note_on_c, 0, 79, 0
1, 64080, Note_on_c, 0, 78, 80
1, 64319, Note_on_c, 0, 78, 0
1, 64320, Note_on_c, 0, 71, 80
1, 64320, Note_on_c, 0, 79, 80
1, 64799, Note_on_c, 0, 79, 0
1, 64800, Note_on_c, 0, 83, 80
1, 65279, Note_on_c, 0, 71, 0
1, 65279, Note_on_c, 0, 83, 0
1, 65280, Note_on_c, 0, 76, 80
1, 65760, Note_on_c, 0, 69, 80
1, 65999, Note_on_c, 0, 69, 0
1, 66000, Note_on_c, 0, 67, 80
1, 66239, Note_on_c, 0, 67, 0
1, 66240, Note_on_c, 0, 69, 80
1, 66719, Note_on_c, 0, 69, 0
1, 66720, Note_on_c, 0, 72, 80
1, 67199, Note_on_c, 0, 72, 0
1, 67199, Note_on_c, 0, 76, 0
1, 67200, Note_on_c, 0, 66, 80
1, 67680, Note_on_c, 0, 75, 80
1, 67919, Note_on_c, 0, 75, 0
1, 67920, Note_on_c, 0, 73, 80
1, 68159, Note_on_c, 0, 66, 0
1, 68159, Note_on_c, 0, 73, 0
1, 68160, Note_on_c, 0, 71, 80
1, 68160, Note_on_c, 0, 75, 80
1, 68639, Note_on_c, 0, 75, 0
1, 68640, Note_on_c, 0, 78, 80
1, 69119, Note_on_c, 0, 71, 0
1, 69119, Note_on_c, 0, 78, 0
1, 69120, Note_on_c, 0, 83, 80
1, 69599, Note_on_c, 0, 83, 0
1, 69600, Note_on_c, 0, 71, 80
1, 70079, Note_on_c, 0, 71, 0
1, 70080, Note_on_c, 0, 79, 80
1, 70080, Note_on_c, 0, 83, 80
1, 71039, Note_on_c, 0, 79, 0
1, 71039, Note_on_c, 0, 83, 0
1, 71520, Note_on_c, 0, 78, 80
1, 71520, Note_on_c, 0, 81, 80
1, 71759, Note_on_c, 0, 78, 0
1, 71759, Note_on_c, 0, 81, 0
1, 71760, Note_on_c, 0, 76, 80
1, 71760, Note_on_c, 0, 79, 80
1, 71999, Note_on_c, 0, 76, 0
1, 71999, Note_on_c, 0, 79, 0
1, 72000, Note_on_c, 0, 78, 80
1, 72000, Note_on_c, 0, 81, 80
1, 72479, Note_on_c, 0, 78, 0
1, 72479, Note_on_c, 0, 81, 0
1, 72480, Note_on_c, 0, 81, 80
1, 72480, Note_on_c, 0, 84, 80
1, 72959, Note_on_c, 0, 81, 0
1, 72959, Note_on_c, 0, 84, 0
1, 72960, Note_on_c, 0, 75, 80
1, 72960, Note_on_c, 0, 78, 80
1, 73439, Note_on_c, 0, 75, 0
1, 73439, Note_on_c, 0, 78, 0
1, 73440, Note_on_c, 0, 76, 80
1, 73440, Note_on_c, 0, 79, 80
1, 73919, Note_on_c, 0, 79, 0
1, 73920, Note_on_c, 0, 81, 80
1, 74399, Note_on_c, 0, 76, 0
1, 74400, Note_on_c, 0, 75, 80
1, 74879, Note_on_c, 0, 75, 0
1, 74879, Note_on_c, 0, 81, 0
1, 74880, Note_on_c, 0, 76, 80
1, 75360, Note_on_c, 0, 79, 80
1, 75599, Note_on_c, 0, 79, 0
1, 75600, Note_on_c, 0, 78, 80
1, 75839, Note_on_c, 0, 76, 0
1, 75839, Note_on_c, 0, 78, 0
1, 75840, Note_on_c, 0, 71, 80
1, 75840, Note_on_c, 0, 79, 80
1, 76319, Note_on_c, 0, 79, 0
1, 76320, Note_on_c, 0, 83, 80
1, 76799, Note_on_c, 0, 83, 0
1, 76800, Note_on_c, 0, 76, 80
1, 77279, Note_on_c, 0, 71, 0
1, 77280, Note_on_c, 0, 69, 80
1, 77519, Note_on_c, 0, 69, 0
1, 77520, Note_on_c, 0, 67, 80
1, 77759, Note_on_c, 0, 67, 0
1, 77760, Note_on_c, 0, 69, 80
1, 78239, Note_on_c, 0, 69, 0
1, 78240, Note_on_c, 0, 72, 80
1, 78719, Note_on_c, 0, 72, 0
1, 78719, Note_on_c, 0, 76, 0
1, 78720, Note_on_c, 0, 66, 80
1, 78720, Note_on_c, 0, 74, 80
1, 79199, Note_on_c, 0, 66, 0
1, 79200, Note_on_c, 0, 62, 80
1, 79679, Note_on_c, 0, 62, 0
1, 79680, Note_on_c, 0, 67, 80
1, 80639, Note_on_c, 0, 74, 0
1, 80640, Note_on_c, 0, 72, 80
1, 81119, Note_on_c, 0, 67, 0
1, 81120, Note_on_c, 0, 66, 80
1, 81359, Note_on_c, 0, 66, 0
1, 81360, Note_on_c, 0, 64, 80
1, 81599, Note_on_c, 0, 64, 0
1, 81600, Note_on_c, 0, 66, 80
1, 82079, Note_on_c, 0, 66, 0
1, 82080, Note_on_c, 0, 69, 80
1, 82559, Note_on_c, 0, 69, 0
1, 82559, Note_on_c, 0, 72, 0
1, 82560, Note_on_c, 0, 62, 80
1, 83519, Note_on_c, 0, 62, 0
1, 83520, Note_on_c, 0, 74, 80
1, 84479, Note_on_c, 0, 74, 0
1, 84960, Note_on_c, 0, 72, 80
1, 85199, Note_on_c, 0, 72, 0
1, 85200, Note_on_c, 0, 71, 80
1, 85439, Note_on_c, 0, 71, 0
1, 85440, Note_on_c, 0, 67, 80
1, 85440, Note_on_c, 0, 72, 80
1, 85919, Note_on_c, 0, 72, 0
1, 85920, Note_on_c, 0, 76, 80
1, 86399, Note_on_c, 0, 76, 0
1, 86400, Note_on_c, 0, 69, 80
1, 86879, Note_on_c, 0, 67, 0
1, 86880, Note_on_c, 0, 67, 80
1, 87119, Note_on_c, 0, 67, 0
1, 87120, Note_on_c, 0, 66, 80
1, 87359, Note_on_c, 0, 66, 0
1, 87359, Note_on_c, 0, 69, 0
1, 87360, Note_on_c, 0, 67, 80
1, 87600, Note_on_c, 0, 76, 80
1, 87839, Note_on_c, 0, 76, 0
1, 87840, Note_on_c, 0, 74, 80
1, 88079, Note_on_c, 0, 74, 0
1, 88080, Note_on_c, 0, 76, 80
1, 88319, Note_on_c, 0, 76, 0
1, 88320, Note_on_c, 0, 69, 80
1, 88799, Note_on_c, 0, 69, 0
1, 88799, Note_on_c, 0, 67, 0
1, 88800, Note_on_c, 0, 66, 80
1, 88800, Note_on_c, 0, 74, 80
1, 89039, Note_on_c, 0, 66, 0
1, 89040, Note_on_c, 0, 64, 80
1, 89279, Note_on_c, 0, 64, 0
1, 89280, Note_on_c, 0, 66, 80
1, 89759, Note_on_c, 0, 66, 0
1, 89759, Note_on_c, 0, 74, 0
1, 89760, Note_on_c, 0, 69, 80
1, 89760, Note_on_c, 0, 72, 80
1, 90239, Note_on_c, 0, 72, 0
1, 90719, Note_on_c, 0, 69, 0
1, 90720, Note_on_c, 0, 67, 80
1, 90720, Note_on_c, 0, 71, 80
1, 90959, Note_on_c, 0, 67, 0
1, 90959, Note_on_c, 0, 71, 0
1, 90960, Note_on_c, 0, 66, 80
1, 90960, Note_on_c, 0, 69, 80
1, 91199, Note_on_c, 0, 66, 0
1, 91199, Note_on_c, 0, 69, 0
1, 91200, Note_on_c, 0, 67, 80
1, 91200, Note_on_c, 0, 71, 80
1, 92159, Note_on_c, 0, 67, 0
1, 92159, Note_on_c, 0, 71, 0
1, 93120, Note_on_c, 0, 81, 80
1, 94079, Note_on_c, 0, 81, 0
1, 94560, Note_on_c, 0, 79, 80
1, 94799, Note_on_c, 0, 79, 0
1, 94800, Note_on_c, 0, 78, 80
1, 95039, Note_on_c, 0, 78, 0
1, 95040, Note_on_c, 0, 71, 80
1, 95040, Note_on_c, 0, 79, 80
1, 95519, Note_on_c, 0, 79, 0
1, 95520, Note_on_c, 0, 83, 80
1, 95999, Note_on_c, 0, 71, 0
1, 95999, Note_on_c, 0, 83, 0
1, 96000, Note_on_c, 0, 76, 80
1, 96480, Note_on_c, 0, 69, 80
1, 96719, Note_on_c, 0, 69, 0
1, 96720, Note_on_c, 0, 67, 80
1, 96959, Note_on_c, 0, 67, 0
1, 96960, Note_on_c, 0, 69, 80
1, 97439, Note_on_c, 0, 69, 0
1, 97440, Note_on_c, 0, 72, 80
1, 97919, Note_on_c, 0, 72, 0
1, 97919, Note_on_c, 0, 76, 0
1, 97920, Note_on_c, 0, 66, 80
1, 98400, Note_on_c, 0, 75, 80
1, 98639, Note_on_c, 0, 75, 0
1, 98640, Note_on_c, 0, 73, 80
1, 98879, Note_on_c, 0, 66, 0
1, 98879, Note_on_c, 0, 73, 0
1, 98880, Note_on_c, 0, 71, 80
1, 98880, Note_on_c, 0, 75, 80
1, 99359, Note_on_c, 0, 75, 0
1, 99360, Note_on_c, 0, 78, 80
1, 99839, Note_on_c, 0, 71, 0
1, 99839, Note_on_c, 0, 78, 0
1, 99840, Note_on_c, 0, 83, 80
1, 100319, Note_on_c, 0, 83, 0
1, 100320, Note_on_c, 0, 71, 80
1, 100799, Note_on_c, 0, 71, 0
1, 100800, Note_on_c, 0, 79, 80
1, 100800, Note_on_c, 0, 83, 80
1, 101759, Note_on_c, 0, 79, 0
1, 101759, Note_on_c, 0, 83, 0
1, 102240, Note_on_c, 0, 78, 80
1, 102240, Note_on_c, 0, 81, 80
1, 102479, Note_on_c, 0, 78, 0
1, 102479, Note_on_c, 0, 81, 0
1, 102480, Note_on_c, 0, 76, 80
1, 102480, Note_on_c, 0, 79, 80
1, 102719, Note_on_c, 0, 76, 0
1, 102719, Note_on_c, 0, 79, 0
1, 102720, Note_on_c, 0, 78, 80
1, 102720, Note_on_c, 0, 81, 80
1, 103199, Note_on_c, 0, 78, 0
1, 103199, Note_on_c, 0, 81, 0
1, 103200, Note_on_c, 0, 81, 80
1, 103200, Note_on_c, 0, 84, 80
1, 103679, Note_on_c, 0, 81, 0
1, 103679, Note_on_c, 0, 84, 0
1, 103680, Note_on_c, 0, 75, 80
1, 103680, Note_on_c, 0, 78, 80
1, 104159, Note_on_c, 0, 75, 0
1, 104159, Note_on_c, 0, 78, 0
1, 104160, Note_on_c, 0, 76, 80
1, 104160, Note_on_c, 0, 79, 80
1, 104639, Note_on_c, 0, 79, 0
1, 104640, Note_on_c, 0, 81, 80
1, 105119, Note_on_c, 0, 76, 0
1, 105120, Note_on_c, 0, 75, 80
1, 105599, Note_on_c, 0, 75, 0
1, 105599, Note_on_c, 0, 81, 0
1, 105600, Note_on_c, 0, 76, 80
1, 106080, Note_on_c, 0, 79, 80
1, 106319, Note_on_c, 0, 79, 0
1, 106320, Note_on_c, 0, 78, 80
1, 106559, Note_on_c, 0, 76, 0
1, 106559, Note_on_c, 0, 78, 0
1, 106560, Note_on_c, 0, 71, 80
1, 106560, Note_on_c, 0, 79, 80
1, 107039, Note_on_c, 0, 79, 0
1, 107040, Note_on_c, 0, 83, 80
1, 107519, Note_on_c, 0, 83, 0
1, 107520, Note_on_c, 0, 76, 80
1, 107999, Note_on_c, 0, 71, 0
1, 108000, Note_on_c, 0, 69, 80
1, 108239, Note_on_c, 0, 69, 0
1, 108240, Note_on_c, 0, 67, 80
1, 108479, Note_on_c, 0, 67, 0
1, 108480, Note_on_c, 0, 69, 80
1, 108959, Note_on_c, 0, 69, 0
1, 108960, Note_on_c, 0, 72, 80
1, 109439, Note_on_c, 0, 72, 0
1, 109439, Note_on_c, 0, 76, 0
1, 109440, Note_on_c, 0, 66, 80
1, 109440, Note_on_c, 0, 74, 80
1, 109919, Note_on_c, 0, 66, 0
1, 109920, Note_on_c, 0, 62, 80
1, 110399, Note_on_c, 0, 62, 0
1, 110400, Note_on_c, 0, 67, 80
1, 111359, Note_on_c, 0, 74, 0
1, 111360, Note_on_c, 0, 72, 80
1, 111839, Note_on_c, 0, 67, 0
1, 111840, Note_on_c, 0, 66, 80
1, 112079, Note_on_c, 0, 66, 0
1, 112080, Note_on_c, 0, 64, 80
1, 112319, Note_on_c, 0, 64, 0
1, 112320, Note_on_c, 0, 66, 80
1, 112799, Note_on_c, 0, 66, 0
1, 112800, Note_on_c, 0, 69, 80
1, 113279, Note_on_c, 0, 69, 0
1, 113279, Note_on_c, 0, 72, 0
1, 113280, Note_on_c, 0, 62, 80
1, 114239, Note_on_c, 0, 62, 0
1, 114240, Note_on_c, 0, 74, 80
1, 115199, Note_on_c, 0, 74, 0
1, 115680, Note_on_c, 0, 72, 80
1, 115919, Note_on_c, 0, 72, 0
1, 115920, Note_on_c, 0, 71, 80
1, 116159, Note_on_c, 0, 71, 0
1, 116160, Note_on_c, 0, 67, 80
1, 116160, Note_on_c, 0, 72, 80
1, 116639, Note_on_c, 0, 72, 0
1, 116640, Note_on_c, 0, 76, 80
1, 117119, Note_on_c, 0, 76, 0
1, 117120, Note_on_c, 0, 69, 80
1, 117599, Note_on_c, 0, 67, 0
1, 117600, Note_on_c, 0, 67, 80
1, 117839, Note_on_c, 0, 67, 0
1, 117840, Note_on_c, 0, 66, 80
1, 118079, Note_on_c, 0, 66, 0
1, 118079, Note_on_c, 0, 69, 0
1, 118080, Note_on_c, 0, 67, 80
1, 118320, Note_on_c, 0, 76, 80
1, 118559, Note_on_c, 0, 76, 0
1, 118560, Note_on_c, 0, 74, 80
1, 118799, Note_on_c, 0, 74, 0
1, 118800, Note_on_c, 0, 76, 80
1, 119039, Note_on_c, 0, 76, 0
1, 119040, Note_on_c, 0, 69, 80
1, 119519, Note_on_c, 0, 69, 0
1, 119519, Note_on_c, 0, 67, 0
1, 119520, Note_on_c, 0, 66, 80
1, 119520, Note_on_c, 0, 74, 80
1, 119759, Note_on_c, 0, 66, 0
1, 119760, Note_on_c, 0, 64, 80
1, 119999, Note_on_c, 0, 64, 0
1, 120000, Note_on_c, 0, 66, 80
1, 120479, Note_on_c, 0, 66, 0
1, 120479, Note_on_c, 0, 74, 0
1, 120480, Note_on_c, 0, 69, 80
1, 120480, Note_on_c, 0, 72, 80
1, 120959, Note_on_c, 0, 72, 0
1, 121439, Note_on_c, 0, 69, 0
1, 121440, Note_on_c, 0, 67, 80
1, 121440, Note_on_c, 0, 71, 80
1, 121679, Note_on_c, 0, 67, 0
1, 121679, Note_on_c, 0, 71, 0
1, 121680, Note_on_c, 0, 66, 80
1, 121680, Note_on_c, 0, 69, 80
1, 121919, Note_on_c, 0, 66, 0
1, 121919, Note_on_c, 0, 69, 0
1, 121920, Note_on_c, 0, 67, 80
1, 121920, Note_on_c, 0, 71, 80
1, 122879, Note_on_c, 0, 67, 0
1, 122879, Note_on_c, 0, 71, 0
1, 122880, End_track
2, 0, Start_track
2, 0, Key_signature, 1, "major"
2, 0, Note_on_c, 0, 55, 80
2, 960, Note_on_c, 0, 64, 80
2, 1919, Note_on_c, 0, 55, 0
2, 1919, Note_on_c, 0, 64, 0
2, 1920, Note_on_c, 0, 54, 80
2, 2400, Note_on_c, 0, 62, 80
2, 2639, Note_on_c, 0, 62, 0
2, 2640, Note_on_c, 0, 61, 80
2, 2879, Note_on_c, 0, 61, 0
2, 2880, Note_on_c, 0, 62, 80
2, 3839, Note_on_c, 0, 54, 0
2, 3839, Note_on_c, 0, 62, 0
2, 3840, Note_on_c, 0, 52, 80
2, 4320, Note_on_c, 0, 61, 80
2, 4559, Note_on_c, 0, 61, 0
2, 4560, Note_on_c, 0, 59, 80
2, 4799, Note_on_c, 0, 59, 0
2, 4800, Note_on_c, 0, 61, 80
2, 5279, Note_on_c, 0, 61, 0
2, 5280, Note_on_c, 0, 64, 80
2, 5759, Note_on_c, 0, 52, 0
2, 5759, Note_on_c, 0, 64, 0
2, 5760, Note_on_c, 0, 50, 80
2, 5760, Note_on_c, 0, 57, 80
2, 7199, Note_on_c, 0, 50, 0
2, 7200, Note_on_c, 0, 48, 80
2, 7679, Note_on_c, 0, 48, 0
2, 7679, Note_on_c, 0, 57, 0
2, 7680, Note_on_c, 0, 47, 80
2, 8160, Note_on_c, 0, 55, 80
2, 8399, Note_on_c, 0, 55, 0
2, 8400, Note_on_c, 0, 54, 80
2, 8639, Note_on_c, 0, 54, 0
2, 8640, Note_on_c, 0, 55, 80
2, 9599, Note_on_c, 0, 47, 0
2, 9599, Note_on_c, 0, 55, 0
2, 9600, Note_on_c, 0, 48, 80
2, 10080, Note_on_c, 0, 52, 80
2, 10559, Note_on_c, 0, 52, 0
2, 10560, Note_on_c, 0, 57, 80
2, 11519, Note_on_c, 0, 48, 0
2, 11519, Note_on_c, 0, 57, 0
2, 11520, Note_on_c, 0, 50, 80
2, 12000, Note_on_c, 0, 57, 80
2, 12239, Note_on_c, 0, 57, 0
2, 12240, Note_on_c, 0, 55, 80
2, 12479, Note_on_c, 0, 55, 0
2, 12480, Note_on_c, 0, 57, 80
2, 12959, Note_on_c, 0, 57, 0
2, 12960, Note_on_c, 0, 54, 80
2, 13439, Note_on_c, 0, 50, 0
2, 13439, Note_on_c, 0, 54, 0
2, 13440, Note_on_c, 0, 43, 80
2, 13440, Note_on_c, 0, 62, 80
2, 14399, Note_on_c, 0, 62, 0
2, 15359, Note_on_c, 0, 43, 0
2, 15840, Note_on_c, 0, 55, 80
2, 16079, Note_on_c, 0, 55, 0
2, 16080, Note_on_c, 0, 54, 80
2, 16319, Note_on_c, 0, 54, 0
2, 16320, Note_on_c, 0, 55, 80
2, 16320, Note_on_c, 0, 64, 80
2, 17279, Note_on_c, 0, 55, 0
2, 17279, Note_on_c, 0, 64, 0
2, 17760, Note_on_c, 0, 54, 80
2, 17760, Note_on_c, 0, 62, 80
2, 17999, Note_on_c, 0, 54, 0
2, 17999, Note_on_c, 0, 62, 0
2, 18000, Note_on_c, 0, 52, 80
2, 18000, Note_on_c, 0, 61, 80
2, 18239, Note_on_c, 0, 52, 0
2, 18239, Note_on_c, 0, 61, 0
2, 18240, Note_on_c, 0, 54, 80
2, 18240, Note_on_c, 0, 62, 80
2, 18719, Note_on_c, 0, 54, 0
2, 18720, Note_on_c, 0, 59, 80
2, 19199, Note_on_c, 0, 59, 0
2, 19199, Note_on_c, 0, 62, 0
2, 19200, Note_on_c, 0, 52, 80
2, 19680, Note_on_c, 0, 61, 80
2, 19919, Note_on_c, 0, 61, 0
2, 19920, Note_on_c, 0, 59, 80
2, 20159, Note_on_c, 0, 59, 0
2, 20160, Note_on_c, 0, 61, 80
2, 20639, Note_on_c, 0, 52, 0
2, 20639, Note_on_c, 0, 61, 0
2, 20640, Note_on_c, 0, 50, 80
2, 20640, Note_on_c, 0, 64, 80
2, 21119, Note_on_c, 0, 50, 0
2, 21119, Note_on_c, 0, 64, 0
2, 21120, Note_on_c, 0, 57, 80
2, 21600, Note_on_c, 0, 49, 80
2, 21839, Note_on_c, 0, 49, 0
2, 21840, Note_on_c, 0, 47, 80
2, 22079, Note_on_c, 0, 47, 0
2, 22080, Note_on_c, 0, 49, 80
2, 22559, Note_on_c, 0, 49, 0
2, 22560, Note_on_c, 0, 52, 80
2, 23039, Note_on_c, 0, 52, 0
2, 23039, Note_on_c, 0, 57, 0
2, 23040, Note_on_c, 0, 42, 80
2, 23999, Note_on_c, 0, 42, 0
2, 24000, Note_on_c, 0, 54, 80
2, 24000, Note_on_c, 0, 57, 80
2, 24959, Note_on_c, 0, 54, 0
2, 24959, Note_on_c, 0, 57, 0
2, 24960, Note_on_c, 0, 43, 80
2, 25440, Note_on_c, 0, 55, 80
2, 25679, Note_on_c, 0, 55, 0
2, 25680, Note_on_c, 0, 54, 80
2, 25919, Note_on_c, 0, 43, 0
2, 25919, Note_on_c, 0, 54, 0
2, 25920, Note_on_c, 0, 52, 80
2, 25920, Note_on_c, 0, 55, 80
2, 26399, Note_on_c, 0, 55, 0
2, 26400, Note_on_c, 0, 59, 80
2, 26879, Note_on_c, 0, 52, 0
2, 26879, Note_on_c, 0, 59, 0
2, 26880, Note_on_c, 0, 45, 80
2, 26880, Note_on_c, 0, 49, 80
2, 27359, Note_on_c, 0, 49, 0
2, 27360, Note_on_c, 0, 50, 80
2, 27839, Note_on_c, 0, 50, 0
2, 27840, Note_on_c, 0, 52, 80
2, 28079, Note_on_c, 0, 52, 0
2, 28080, Note_on_c, 0, 54, 80
2, 28319, Note_on_c, 0, 54, 0
2, 28320, Note_on_c, 0, 55, 80
2, 28799, Note_on_c, 0, 45, 0
2, 28799, Note_on_c, 0, 55, 0
2, 28800, Note_on_c, 0, 50, 80
2, 29280, Note_on_c, 0, 54, 80
2, 29519, Note_on_c, 0, 54, 0
2, 29520, Note_on_c, 0, 52, 80
2, 29759, Note_on_c, 0, 52, 0
2, 29760, Note_on_c, 0, 54, 80
2, 30719, Note_on_c, 0, 50, 0
2, 30719, Note_on_c, 0, 54, 0
2, 30720, Note_on_c, 0, 55, 80
2, 31680, Note_on_c, 0, 64, 80
2, 32639, Note_on_c, 0, 55, 0
2, 32639, Note_on_c, 0, 64, 0
2, 32640, Note_on_c, 0, 54, 80
2, 33120, Note_on_c, 0, 62, 80
2, 33359, Note_on_c, 0, 62, 0
2, 33360, Note_on_c, 0, 61, 80
2, 33599, Note_on_c, 0, 61, 0
2, 33600, Note_on_c, 0, 62, 80
2, 34559, Note_on_c, 0, 54, 0
2, 34559, Note_on_c, 0, 62, 0
2, 34560, Note_on_c, 0, 52, 80
2, 35040, Note_on_c, 0, 61, 80
2, 35279, Note_on_c, 0, 61, 0
2, 35280, Note_on_c, 0, 59, 80
2, 35519, Note_on_c, 0, 59, 0
2, 35520, Note_on_c, 0, 61, 80
2, 35999, Note_on_c, 0, 61, 0
2, 36000, Note_on_c, 0, 64, 80
2, 36479, Note_on_c, 0, 52, 0
2, 36479, Note_on_c, 0, 64, 0
2, 36480, Note_on_c, 0, 50, 80
2, 36480, Note_on_c, 0, 57, 80
2, 37919, Note_on_c, 0, 50, 0
2, 37920, Note_on_c, 0, 48, 80
2, 38399, Note_on_c, 0, 48, 0
2, 38399, Note_on_c, 0, 57, 0
2, 38400, Note_on_c, 0, 47, 80
2, 38880, Note_on_c, 0, 55, 80
2, 39119, Note_on_c, 0, 55, 0
2, 39120, Note_on_c, 0, 54, 80
2, 39359, Note_on_c, 0, 54, 0
2, 39360, Note_on_c, 0, 55, 80
2, 40319, Note_on_c, 0, 47, 0
2, 40319, Note_on_c, 0, 55, 0
2, 40320, Note_on_c, 0, 48, 80
2, 40800, Note_on_c, 0, 52, 80
2, 41279, Note_on_c, 0, 52, 0
2, 41280, Note_on_c, 0, 57, 80
2, 42239, Note_on_c, 0, 48, 0
2, 42239, Note_on_c, 0, 57, 0
2, 42240, Note_on_c, 0, 50, 80
2, 42720, Note_on_c, 0, 57, 80
2, 42959, Note_on_c, 0, 57, 0
2, 42960, Note_on_c, 0, 55, 80
2, 43199, Note_on_c, 0, 55, 0
2, 43200, Note_on_c, 0, 57, 80
2, 43679, Note_on_c, 0, 57, 0
2, 43680, Note_on_c, 0, 54, 80
2, 44159, Note_on_c, 0, 50, 0
2, 44159, Note_on_c, 0, 54, 0
2, 44160, Note_on_c, 0, 43, 80
2, 44160, Note_on_c, 0, 62, 80
2, 45119, Note_on_c, 0, 62, 0
2, 46079, Note_on_c, 0, 43, 0
2, 46560, Note_on_c, 0, 55, 80
2, 46799, Note_on_c, 0, 55, 0
2, 46800, Note_on_c, 0, 54, 80
2, 47039, Note_on_c, 0, 54, 0
2, 47040, Note_on_c, 0, 55, 80
2, 47040, Note_on_c, 0, 64, 80
2, 47999, Note_on_c, 0, 55, 0
2, 47999, Note_on_c, 0, 64, 0
2, 48480, Note_on_c, 0, 54, 80
2, 48480, Note_on_c, 0, 62, 80
2, 48719, Note_on_c, 0, 54, 0
2, 48719, Note_on_c, 0, 62, 0
2, 48720, Note_on_c, 0, 52, 80
2, 48720, Note_on_c, 0, 61, 80
2, 48959, Note_on_c, 0, 52, 0
2, 48959, Note_on_c, 0, 61, 0
2, 48960, Note_on_c, 0, 54, 80
2, 48960, Note_on_c, 0, 62, 80
2, 49439, Note_on_c, 0, 54, 0
2, 49440, Note_on_c, 0, 59, 80
2, 49919, Note_on_c, 0, 59, 0
2, 49919, Note_on_c, 0, 62, 0
2, 49920, Note_on_c, 0, 52, 80
2, 50400, Note_on_c, 0, 61, 80
2, 50639, Note_on_c, 0, 61, 0
2, 50640, Note_on_c, 0, 59, 80
2, 50879, Note_on_c, 0, 59, 0
2, 50880, Note_on_c, 0, 61, 80
2, 51359, Note_on_c, 0, 52, 0
2, 51359, Note_on_c, 0, 61, 0
2, 51360, Note_on_c, 0, 50, 80
2, 51360, Note_on_c, 0, 64, 80
2, 51839, Note_on_c, 0, 50, 0
2, 51839, Note_on_c, 0, 64, 0
2, 51840, Note_on_c, 0, 57, 80
2, 52320, Note_on_c, 0, 49, 80
2, 52559, Note_on_c, 0, 49, 0
2, 52560, Note_on_c, 0, 47, 80
2, 52799, Note_on_c, 0, 47, 0
2, 52800, Note_on_c, 0, 49, 80
2, 53279, Note_on_c, 0, 49, 0
2, 53280, Note_on_c, 0, 52, 80
2, 53759, Note_on_c, 0, 52, 0
2, 53759, Note_on_c, 0, 57, 0
2, 53760, Note_on_c, 0, 42, 80
2, 54719, Note_on_c, 0, 42, 0
2, 54720, Note_on_c, 0, 54, 80
2, 54720, Note_on_c, 0, 57, 80
2, 55679, Note_on_c, 0, 54, 0
2, 55679, Note_on_c, 0, 57, 0
2, 55680, Note_on_c, 0, 43, 80
2, 56160, Note_on_c, 0, 55, 80
2, 56399, Note_on_c, 0, 55, 0
2, 56400, Note_on_c, 0, 54, 80
2, 56639, Note_on_c, 0, 43, 0
2, 56639, Note_on_c, 0, 54, 0
2, 56640, Note_on_c, 0, 52, 80
2, 56640, Note_on_c, 0, 55, 80
2, 57119, Note_on_c, 0, 55, 0
2, 57120, Note_on_c, 0, 59, 80
2, 57599, Note_on_c, 0, 52, 0
2, 57599, Note_on_c, 0, 59, 0
2, 57600, Note_on_c, 0, 45, 80
2, 57600, Note_on_c, 0, 49, 80
2, 58079, Note_on_c, 0, 49, 0
2, 58080, Note_on_c, 0, 50, 80
2, 58559, Note_on_c, 0, 50, 0
2, 58560, Note_on_c, 0, 52, 80
2, 58799, Note_on_c, 0, 52, 0
2, 58800, Note_on_c, 0, 54, 80
2, 59039, Note_on_c, 0, 54, 0
2, 59040, Note_on_c, 0, 55, 80
2, 59519, Note_on_c, 0, 45, 0
2, 59519, Note_on_c, 0, 55, 0
2, 59520, Note_on_c, 0, 50, 80
2, 60000, Note_on_c, 0, 54, 80
2, 60239, Note_on_c, 0, 54, 0
2, 60240, Note_on_c, 0, 52, 80
2, 60479, Note_on_c, 0, 52, 0
2, 60480, Note_on_c, 0, 54, 80
2, 61439, Note_on_c, 0, 50, 0
2, 61439, Note_on_c, 0, 54, 0
2, 61440, Note_on_c, 0, 62, 80
2, 62879, Note_on_c, 0, 62, 0
2, 62880, Note_on_c, 0, 60, 80
2, 63359, Note_on_c, 0, 60, 0
2, 63360, Note_on_c, 0, 59, 80
2, 63839, Note_on_c, 0, 59, 0
2, 63840, Note_on_c, 0, 60, 80
2, 64319, Note_on_c, 0, 60, 0
2, 64320, Note_on_c, 0, 67, 80
2, 64799, Note_on_c, 0, 67, 0
2, 64800, Note_on_c, 0, 55, 80
2, 65279, Note_on_c, 0, 55, 0
2, 65280, Note_on_c, 0, 60, 80
2, 65759, Note_on_c, 0, 60, 0
2, 65760, Note_on_c, 0, 64, 80
2, 66239, Note_on_c, 0, 64, 0
2, 66240, Note_on_c, 0, 60, 80
2, 66719, Note_on_c, 0, 60, 0
2, 66720, Note_on_c, 0, 57, 80
2, 67199, Note_on_c, 0, 57, 0
2, 67200, Note_on_c, 0, 59, 80
2, 67679, Note_on_c, 0, 59, 0
2, 67680, Note_on_c, 0, 47, 80
2, 68159, Note_on_c, 0, 47, 0
2, 68160, Note_on_c, 0, 59, 80
2, 68160, Note_on_c, 0, 66, 80
2, 68639, Note_on_c, 0, 59, 0
2, 68640, Note_on_c, 0, 57, 80
2, 69119, Note_on_c, 0, 57, 0
2, 69119, Note_on_c, 0, 66, 0
2, 69120, Note_on_c, 0, 55, 80
2, 69600, Note_on_c, 0, 64, 80
2, 69839, Note_on_c, 0, 64, 0
2, 69840, Note_on_c, 0, 63, 80
2, 70079, Note_on_c, 0, 63, 0
2, 70080, Note_on_c, 0, 64, 80
2, 70559, Note_on_c, 0, 64, 0
2, 70560, Note_on_c, 0, 67, 80
2, 71039, Note_on_c, 0, 55, 0
2, 71039, Note_on_c, 0, 67, 0
2, 71040, Note_on_c, 0, 57, 80
2, 71040, Note_on_c, 0, 60, 80
2, 71519, Note_on_c, 0, 60, 0
2, 71520, Note_on_c, 0, 64, 80
2, 71999, Note_on_c, 0, 64, 0
2, 72000, Note_on_c, 0, 69, 80
2, 72959, Note_on_c, 0, 57, 0
2, 72959, Note_on_c, 0, 69, 0
2, 72960, Note_on_c, 0, 59, 80
2, 73440, Note_on_c, 0, 67, 80
2, 73919, Note_on_c, 0, 67, 0
2, 73920, Note_on_c, 0, 66, 80
2, 74879, Note_on_c, 0, 59, 0
2, 74879, Note_on_c, 0, 66, 0
2, 74880, Note_on_c, 0, 52, 80
2, 74880, Note_on_c, 0, 64, 80
2, 75839, Note_on_c, 0, 64, 0
2, 76319, Note_on_c, 0, 52, 0
2, 76320, Note_on_c, 0, 50, 80
2, 76799, Note_on_c, 0, 50, 0
2, 76800, Note_on_c, 0, 48, 80
2, 77759, Note_on_c, 0, 48, 0
2, 77760, Note_on_c, 0, 60, 80
2, 79199, Note_on_c, 0, 60, 0
2, 79200, Note_on_c, 0, 59, 80
2, 79439, Note_on_c, 0, 59, 0
2, 79440, Note_on_c, 0, 57, 80
2, 79679, Note_on_c, 0, 57, 0
2, 79680, Note_on_c, 0, 59, 80
2, 80159, Note_on_c, 0, 59, 0
2, 80160, Note_on_c, 0, 64, 80
2, 80639, Note_on_c, 0, 64, 0
2, 80640, Note_on_c, 0, 57, 80
2, 81600, Note_on_c, 0, 60, 80
2, 82079, Note_on_c, 0, 57, 0
2, 82080, Note_on_c, 0, 55, 80
2, 82559, Note_on_c, 0, 55, 0
2, 82559, Note_on_c, 0, 60, 0
2, 83040, Note_on_c, 0, 59, 80
2, 83279, Note_on_c, 0, 59, 0
2, 83280, Note_on_c, 0, 57, 80
2, 83519, Note_on_c, 0, 57, 0
2, 83520, Note_on_c, 0, 59, 80
2, 83999, Note_on_c, 0, 59, 0
2, 84000, Note_on_c, 0, 62, 80
2, 84479, Note_on_c, 0, 62, 0
2, 84480, Note_on_c, 0, 52, 80
2, 84480, Note_on_c, 0, 55, 80
2, 85919, Note_on_c, 0, 52, 0
2, 85919, Note_on_c, 0, 55, 0
2, 85920, Note_on_c, 0, 50, 80
2, 85920, Note_on_c, 0, 59, 80
2, 86399, Note_on_c, 0, 50, 0
2, 86399, Note_on_c, 0, 59, 0
2, 86400, Note_on_c, 0, 48, 80
2, 86400, Note_on_c, 0, 52, 80
2, 87359, Note_on_c, 0, 48, 0
2, 87359, Note_on_c, 0, 52, 0
2, 87360, Note_on_c, 0, 49, 80
2, 87360, Note_on_c, 0, 57, 80
2, 88319, Note_on_c, 0, 49, 0
2, 88319, Note_on_c, 0, 57, 0
2, 88320, Note_on_c, 0, 50, 80
2, 88800, Note_on_c, 0, 57, 80
2, 89039, Note_on_c, 0, 57, 0
2, 89040, Note_on_c, 0, 55, 80
2, 89279, Note_on_c, 0, 55, 0
2, 89280, Note_on_c, 0, 57, 80
2, 89759, Note_on_c, 0, 57, 0
2, 89760, Note_on_c, 0, 54, 80
2, 90239, Note_on_c, 0, 50, 0
2, 90239, Note_on_c, 0, 54, 0
2, 90240, Note_on_c, 0, 43, 80
2, 90240, Note_on_c, 0, 62, 80
2, 92159, Note_on_c, 0, 43, 0
2, 92159, Note_on_c, 0, 62, 0
2, 92160, Note_on_c, 0, 62, 80
2, 93599, Note_on_c, 0, 62, 0
2, 93600, Note_on_c, 0, 60, 80
2, 94079, Note_on_c, 0, 60, 0
2, 94080, Note_on_c, 0, 59, 80
2, 94559, Note_on_c, 0, 59, 0
2, 94560, Note_on_c, 0, 60, 80
2, 95039, Note_on_c, 0, 60, 0
2, 95040, Note_on_c, 0, 67, 80
2, 95519, Note_on_c, 0, 67, 0
2, 95520, Note_on_c, 0, 55, 80
2, 95999, Note_on_c, 0, 55, 0
2, 96000, Note_on_c, 0, 60, 80
2, 96479, Note_on_c, 0, 60, 0
2, 96480, Note_on_c, 0, 64, 80
2, 96959, Note_on_c, 0, 64, 0
2, 96960, Note_on_c, 0, 60, 80
2, 97439, Note_on_c, 0, 60, 0
2, 97440, Note_on_c, 0, 57, 80
2, 97919, Note_on_c, 0, 57, 0
2, 97920, Note_on_c, 0, 59, 80
2, 98399, Note_on_c, 0, 59, 0
2, 98400, Note_on_c, 0, 47, 80
2, 98879, Note_on_c, 0, 47, 0
2, 98880, Note_on_c, 0, 59, 80
2, 98880, Note_on_c, 0, 66, 80
2, 99359, Note_on_c, 0, 59, 0
2, 99360, Note_on_c, 0, 57, 80
2, 99839, Note_on_c, 0, 57, 0
2, 99839, Note_on_c, 0, 66, 0
2, 99840, Note_on_c, 0, 55, 80
2, 100320, Note_on_c, 0, 64, 80
2, 100559, Note_on_c, 0, 64, 0
2, 100560, Note_on_c, 0, 63, 80
2, 100799, Note_on_c, 0, 63, 0
2, 100800, Note_on_c, 0, 64, 80
2, 101279, Note_on_c, 0, 64, 0
2, 101280, Note_on_c, 0, 67, 80
2, 101759, Note_on_c, 0, 55, 0
2, 101759, Note_on_c, 0, 67, 0
2, 101760, Note_on_c, 0, 57, 80
2, 101760, Note_on_c, 0, 60, 80
2, 102239, Note_on_c, 0, 60, 0
2, 102240, Note_on_c, 0, 64, 80
2, 102719, Note_on_c, 0, 64, 0
2, 102720, Note_on_c, 0, 69, 80
2, 103679, Note_on_c, 0, 57, 0
2, 103679, Note_on_c, 0, 69, 0
2, 103680, Note_on_c, 0, 59, 80
2, 104160, Note_on_c, 0, 67, 80
2, 104639, Note_on_c, 0, 67, 0
2, 104640, Note_on_c, 0, 66, 80
2, 105599, Note_on_c, 0, 59, 0
2, 105599, Note_on_c, 0, 66, 0
2, 105600, Note_on_c, 0, 52, 80
2, 105600, Note_on_c, 0, 64, 80
2, 106559, Note_on_c, 0, 64, 0
2, 107039, Note_on_c, 0, 52, 0
2, 107040, Note_on_c, 0, 50, 80
2, 107519, Note_on_c, 0, 50, 0
2, 107520, Note_on_c, 0, 48, 80
2, 108479, Note_on_c, 0, 48, 0
2, 108480, Note_on_c, 0, 60, 80
2, 109919, Note_on_c, 0, 60, 0
2, 109920, Note_on_c, 0, 59, 80
2, 110159, Note_on_c, 0, 59, 0
2, 110160, Note_on_c, 0, 57, 80
2, 110399, Note_on_c, 0, 57, 0
2, 110400, Note_on_c, 0, 59, 80
2, 110879, Note_on_c, 0, 59, 0
2, 110880, Note_on_c, 0, 64, 80
2, 111359, Note_on_c, 0, 64, 0
2, 111360, Note_on_c, 0, 57, 80
2, 112320, Note_on_c, 0, 60, 80
2, 112799, Note_on_c, 0, 57, 0
2, 112800, Note_on_c, 0, 55, 80
2, 113279, Note_on_c, 0, 55, 0
2, 113279, Note_on_c, 0, 60, 0
2, 113760, Note_on_c, 0, 59, 80
2, 113999, Note_on_c, 0, 59, 0
2, 114000, Note_on_c, 0, 57, 80
2, 114239, Note_on_c, 0, 57, 0
2, 114240, Note_on_c, 0, 59, 80
2, 114719, Note_on_c, 0, 59, 0
2, 114720, Note_on_c, 0, 62, 80
2, 115199, Note_on_c, 0, 62, 0
2, 115200, Note_on_c, 0, 52, 80
2, 115200, Note_on_c, 0, 55, 80
2, 116639, Note_on_c, 0, 52, 0
2, 116639, Note_on_c, 0, 55, 0
2, 116640, Note_on_c, 0, 50, 80
2, 116640, Note_on_c, 0, 59, 80
2, 117119, Note_on_c, 0, 50, 0
2, 117119, Note_on_c, 0, 59, 0
2, 117120, Note_on_c, 0, 48, 80
2, 117120, Note_on_c, 0, 52, 80
2, 118079, Note_on_c, 0, 48, 0
2, 118079, Note_on_c, 0, 52, 0
2, 118080, Note_on_c, 0, 49, 80
2, 118080, Note_on_c, 0, 57, 80
2, 119039, Note_on_c, 0, 49, 0
2, 119039, Note_on_c, 0, 57, 0
2, 119040, Note_on_c, 0, 50, 80
2, 119520, Note_on_c, 0, 57, 80
2, 119759, Note_on_c, 0, 57, 0
2, 119760, Note_on_c, 0, 55, 80
2, 119999, Note_on_c, 0, 55, 0
2, 120000, Note_on_c, 0, 57, 80
2, 120479, Note_on_c, 0, 57, 0
2, 120480, Note_on_c, 0, 54, 80
2, 120959, Note_on_c, 0, 50, 0
2, 120959, Note_on_c, 0, 54, 0
2, 120960, Note_on_c, 0, 43, 80
2, 120960, Note_on_c, 0, 62, 80
2, 122879, Note_on_c, 0, 43, 0
2, 122879, Note_on_c, 0, 62, 0
2, 122880, End_track
0, 0, End_of_file
