0, 0, Header, 1, 4, 480
1, 0, Start_track
1, 0, Unknown_meta_event, 8, 51, 67, 111, 110, 116, 114, 97, 112, 117, 99, 116, 117, 115, 32, 86, 73, 32, 97, 32, 52, 32, 105, 110, 32, 83, 116, 121, 108, 111, 32, 70, 114, 97, 110, 99, 101, 115, 101, 32, 40, 65, 32, 61, 32, 52, 49, 53, 32, 72, 122, 41, 0
1, 0, Unknown_meta_event, 9, 26, 66, 87, 86, 32, 49, 48, 56, 48, 32, 84, 104, 101, 32, 65, 114, 116, 32, 111, 102, 32, 70, 117, 103, 117, 101, 0
1, 0, Unknown_meta_event, 10, 11, 74, 46, 32, 83, 46, 32, 66, 97, 99, 104, 0
1, 0, Time_signature, 2, 1, 24, 8
1, 0, Key_signature, 4, "major"
1, 0, Tempo, 625000
1, 0, Program_c, 0, 46
1, 2, Control_c, 0, 7, 100
1, 4, Control_c, 0, 10, 64
1, 6, Control_c, 0, 91, 30
1, 8, Control_c, 0, 93, 30
1, 1920, Note_on_c, 0, 80, 127
1, 2396, Note_on_c, 0, 80, 0
1, 2400, Note_on_c, 0, 73, 80
1, 2759, Note_on_c, 0, 73, 0
1, 2760, Note_on_c, 0, 75, 127
1, 2876, Note_on_c, 0, 75, 0
1, 2880, Note_on_c, 0, 76, 80
1, 3239, Note_on_c, 0, 76, 0
1, 3240, Note_on_c, 0, 78, 127
1, 3356, Note_on_c, 0, 78, 0
1, 3360, Note_on_c, 0, 80, 127
1, 3836, Note_on_c, 0, 80, 0
1, 3840, Note_on_c, 0, 81, 127
1, 4316, Note_on_c, 0, 81, 0
1, 4320, Note_on_c, 0, 80, 80
1, 4679, Note_on_c, 0, 80, 0
1, 4680, Note_on_c, 0, 78, 127
1, 4796, Note_on_c, 0, 78, 0
1, 4800, Note_on_c, 0, 76, 127
1, 5399, Note_on_c, 0, 76, 0
1, 5400, Note_on_c, 0, 75, 127
1, 5516, Note_on_c, 0, 75, 0
1, 5520, Note_on_c, 0, 76, 127
1, 5636, Note_on_c, 0, 76, 0
1, 5640, Note_on_c, 0, 78, 127
1, 5756, Note_on_c, 0, 78, 0
1, 5760, Note_on_c, 0, 80, 80
1, 6119, Note_on_c, 0, 80, 0
1, 6120, Note_on_c, 0, 78, 127
1, 6236, Note_on_c, 0, 78, 0
1, 6240, Note_on_c, 0, 76, 127
1, 6356, Note_on_c, 0, 76, 0
1, 6360, Note_on_c, 0, 75, 127
1, 6476, Note_on_c, 0, 75, 0
1, 6480, Note_on_c, 0, 73, 127
1, 6596, Note_on_c, 0, 73, 0
1, 6600, Note_on_c, 0, 71, 127
1, 6716, Note_on_c, 0, 71, 0
1, 6720, Note_on_c, 0, 71, 127
1, 6776, Note_on_c, 0, 71, 0
1, 6780, Note_on_c, 0, 69, 80
1, 6839, Note_on_c, 0, 69, 0
1, 6840, Note_on_c, 0, 71, 127
1, 6896, Note_on_c, 0, 71, 0
1, 6900, Note_on_c, 0, 69, 80
1, 6959, Note_on_c, 0, 69, 0
1, 6960, Note_on_c, 0, 71, 127
1, 7016, Note_on_c, 0, 71, 0
1, 7020, Note_on_c, 0, 69, 80
1, 7079, Note_on_c, 0, 69, 0
1, 7080, Note_on_c, 0, 71, 127
1, 7136, Note_on_c, 0, 71, 0
1, 7140, Note_on_c, 0, 69, 80
1, 7199, Note_on_c, 0, 69, 0
1, 7200, Note_on_c, 0, 68, 127
1, 8039, Note_on_c, 0, 68, 0
1, 8040, Note_on_c, 0, 70, 127
1, 8156, Note_on_c, 0, 70, 0
1, 8160, Note_on_c, 0, 71, 127
1, 8999, Note_on_c, 0, 71, 0
1, 9000, Note_on_c, 0, 70, 127
1, 9116, Note_on_c, 0, 70, 0
1, 9120, Note_on_c, 0, 72, 80
1, 9479, Note_on_c, 0, 72, 0
1, 9480, Note_on_c, 0, 73, 127
1, 9596, Note_on_c, 0, 73, 0
1, 9600, Note_on_c, 0, 75, 127
1, 10199, Note_on_c, 0, 75, 0
1, 10200, Note_on_c, 0, 76, 127
1, 10316, Note_on_c, 0, 76, 0
1, 10320, Note_on_c, 0, 75, 127
1, 10436, Note_on_c, 0, 75, 0
1, 10440, Note_on_c, 0, 73, 127
1, 10556, Note_on_c, 0, 73, 0
1, 10560, Note_on_c, 0, 72, 127
1, 11036, Note_on_c, 0, 72, 0
1, 11040, Note_on_c, 0, 73, 80
1, 11399, Note_on_c, 0, 73, 0
1, 11400, Note_on_c, 0, 75, 127
1, 11516, Note_on_c, 0, 75, 0
1, 11520, Note_on_c, 0, 76, 80
1, 11879, Note_on_c, 0, 76, 0
1, 11880, Note_on_c, 0, 75, 127
1, 11996, Note_on_c, 0, 75, 0
1, 12000, Note_on_c, 0, 76, 80
1, 12359, Note_on_c, 0, 76, 0
1, 12360, Note_on_c, 0, 73, 127
1, 12476, Note_on_c, 0, 73, 0
1, 12480, Note_on_c, 0, 75, 127
1, 13799, Note_on_c, 0, 75, 0
1, 13800, Note_on_c, 0, 73, 127
1, 13916, Note_on_c, 0, 73, 0
1, 13920, Note_on_c, 0, 71, 80
1, 14279, Note_on_c, 0, 71, 0
1, 14280, Note_on_c, 0, 70, 127
1, 14396, Note_on_c, 0, 70, 0
1, 14400, Note_on_c, 0, 68, 80
1, 14759, Note_on_c, 0, 68, 0
1, 14760, Note_on_c, 0, 80, 127
1, 14876, Note_on_c, 0, 80, 0
1, 14880, Note_on_c, 0, 78, 80
1, 15239, Note_on_c, 0, 78, 0
1, 15240, Note_on_c, 0, 76, 127
1, 15356, Note_on_c, 0, 76, 0
1, 15360, Note_on_c, 0, 75, 127
1, 15836, Note_on_c, 0, 75, 0
1, 18240, Note_on_c, 0, 68, 127
1, 18716, Note_on_c, 0, 68, 0
1, 18720, Note_on_c, 0, 75, 80
1, 19079, Note_on_c, 0, 75, 0
1, 19080, Note_on_c, 0, 73, 127
1, 19196, Note_on_c, 0, 73, 0
1, 19200, Note_on_c, 0, 71, 80
1, 19559, Note_on_c, 0, 71, 0
1, 19560, Note_on_c, 0, 70, 127
1, 19676, Note_on_c, 0, 70, 0
1, 19680, Note_on_c, 0, 68, 127
1, 20156, Note_on_c, 0, 68, 0
1, 20160, Note_on_c, 0, 67, 127
1, 20636, Note_on_c, 0, 67, 0
1, 20640, Note_on_c, 0, 68, 80
1, 20999, Note_on_c, 0, 68, 0
1, 21000, Note_on_c, 0, 70, 127
1, 21116, Note_on_c, 0, 70, 0
1, 21120, Note_on_c, 0, 71, 127
1, 21719, Note_on_c, 0, 71, 0
1, 21720, Note_on_c, 0, 73, 127
1, 21836, Note_on_c, 0, 73, 0
1, 21840, Note_on_c, 0, 71, 127
1, 21956, Note_on_c, 0, 71, 0
1, 21960, Note_on_c, 0, 70, 127
1, 22076, Note_on_c, 0, 70, 0
1, 22080, Note_on_c, 0, 68, 127
1, 23819, Note_on_c, 0, 68, 0
1, 23820, Note_on_c, 0, 68, 127
1, 23876, Note_on_c, 0, 68, 0
1, 23880, Note_on_c, 0, 69, 127
1, 23936, Note_on_c, 0, 69, 0
1, 23940, Note_on_c, 0, 71, 127
1, 23996, Note_on_c, 0, 71, 0
1, 24000, Note_on_c, 0, 73, 127
1, 25739, Note_on_c, 0, 73, 0
1, 25740, Note_on_c, 0, 73, 127
1, 25796, Note_on_c, 0, 73, 0
1, 25800, Note_on_c, 0, 75, 127
1, 25856, Note_on_c, 0, 75, 0
1, 25860, Note_on_c, 0, 76, 127
1, 25916, Note_on_c, 0, 76, 0
1, 25920, Note_on_c, 0, 78, 127
1, 27239, Note_on_c, 0, 78, 0
1, 27240, Note_on_c, 0, 76, 127
1, 27296, Note_on_c, 0, 76, 0
1, 27300, Note_on_c, 0, 75, 127
1, 27356, Note_on_c, 0, 75, 0
1, 27360, Note_on_c, 0, 76, 80
1, 27719, Note_on_c, 0, 76, 0
1, 27720, Note_on_c, 0, 78, 127
1, 27836, Note_on_c, 0, 78, 0
1, 27840, Note_on_c, 0, 80, 80
1, 28199, Note_on_c, 0, 80, 0
1, 28200, Note_on_c, 0, 78, 127
1, 28256, Note_on_c, 0, 78, 0
1, 28260, Note_on_c, 0, 76, 127
1, 28316, Note_on_c, 0, 76, 0
1, 28320, Note_on_c, 0, 75, 80
1, 28679, Note_on_c, 0, 75, 0
1, 28680, Note_on_c, 0, 77, 127
1, 28796, Note_on_c, 0, 77, 0
1, 28800, Note_on_c, 0, 78, 127
1, 29276, Note_on_c, 0, 78, 0
1, 29760, Note_on_c, 0, 80, 127
1, 30236, Note_on_c, 0, 80, 0
1, 30240, Note_on_c, 0, 73, 80
1, 30599, Note_on_c, 0, 73, 0
1, 30600, Note_on_c, 0, 75, 127
1, 30716, Note_on_c, 0, 75, 0
1, 30720, Note_on_c, 0, 76, 80
1, 31079, Note_on_c, 0, 76, 0
1, 31080, Note_on_c, 0, 78, 127
1, 31196, Note_on_c, 0, 78, 0
1, 31200, Note_on_c, 0, 80, 127
1, 31676, Note_on_c, 0, 80, 0
1, 31680, Note_on_c, 0, 81, 80
1, 32159, Note_on_c, 0, 81, 0
1, 32160, Note_on_c, 0, 80, 80
1, 32519, Note_on_c, 0, 80, 0
1, 32520, Note_on_c, 0, 78, 127
1, 32636, Note_on_c, 0, 78, 0
1, 32640, Note_on_c, 0, 76, 127
1, 33239, Note_on_c, 0, 76, 0
1, 33240, Note_on_c, 0, 75, 127
1, 33356, Note_on_c, 0, 75, 0
1, 33360, Note_on_c, 0, 76, 127
1, 33476, Note_on_c, 0, 76, 0
1, 33480, Note_on_c, 0, 78, 127
1, 33596, Note_on_c, 0, 78, 0
1, 33600, Note_on_c, 0, 80, 127
1, 34076, Note_on_c, 0, 80, 0
1, 39720, Note_on_c, 0, 73, 127
1, 39836, Note_on_c, 0, 73, 0
1, 39840, Note_on_c, 0, 71, 80
1, 40199, Note_on_c, 0, 71, 0
1, 40200, Note_on_c, 0, 69, 127
1, 40316, Note_on_c, 0, 69, 0
1, 40320, Note_on_c, 0, 68, 80
1, 40679, Note_on_c, 0, 68, 0
1, 40680, Note_on_c, 0, 69, 127
1, 40796, Note_on_c, 0, 69, 0
1, 40800, Note_on_c, 0, 71, 127
1, 41579, Note_on_c, 0, 71, 0
1, 41580, Note_on_c, 0, 64, 127
1, 41636, Note_on_c, 0, 64, 0
1, 41640, Note_on_c, 0, 66, 127
1, 41696, Note_on_c, 0, 66, 0
1, 41700, Note_on_c, 0, 68, 127
1, 41756, Note_on_c, 0, 68, 0
1, 41760, Note_on_c, 0, 69, 80
1, 42119, Note_on_c, 0, 69, 0
1, 42120, Note_on_c, 0, 69, 127
1, 42236, Note_on_c, 0, 69, 0
1, 42240, Note_on_c, 0, 69, 80
1, 42599, Note_on_c, 0, 69, 0
1, 42600, Note_on_c, 0, 68, 127
1, 42656, Note_on_c, 0, 68, 0
1, 42660, Note_on_c, 0, 66, 127
1, 42716, Note_on_c, 0, 66, 0
1, 42720, Note_on_c, 0, 68, 80
1, 43079, Note_on_c, 0, 68, 0
1, 43080, Note_on_c, 0, 69, 127
1, 43196, Note_on_c, 0, 69, 0
1, 43200, Note_on_c, 0, 71, 80
1, 43559, Note_on_c, 0, 71, 0
1, 43560, Note_on_c, 0, 71, 127
1, 43676, Note_on_c, 0, 71, 0
1, 43680, Note_on_c, 0, 73, 80
1, 44039, Note_on_c, 0, 73, 0
1, 44040, Note_on_c, 0, 75, 127
1, 44156, Note_on_c, 0, 75, 0
1, 44160, Note_on_c, 0, 76, 80
1, 44519, Note_on_c, 0, 76, 0
1, 44520, Note_on_c, 0, 75, 127
1, 44636, Note_on_c, 0, 75, 0
1, 44640, Note_on_c, 0, 76, 80
1, 44999, Note_on_c, 0, 76, 0
1, 45000, Note_on_c, 0, 78, 127
1, 45116, Note_on_c, 0, 78, 0
1, 45120, Note_on_c, 0, 75, 80
1, 45479, Note_on_c, 0, 75, 0
1, 45480, Note_on_c, 0, 73, 127
1, 45596, Note_on_c, 0, 73, 0
1, 45600, Note_on_c, 0, 75, 127
1, 46439, Note_on_c, 0, 75, 0
1, 46440, Note_on_c, 0, 73, 127
1, 46496, Note_on_c, 0, 73, 0
1, 46500, Note_on_c, 0, 72, 127
1, 46556, Note_on_c, 0, 72, 0
1, 46560, Note_on_c, 0, 73, 127
1, 46859, Note_on_c, 0, 73, 0
1, 46860, Note_on_c, 0, 71, 127
1, 46916, Note_on_c, 0, 71, 0
1, 46920, Note_on_c, 0, 69, 127
1, 46976, Note_on_c, 0, 69, 0
1, 46980, Note_on_c, 0, 68, 127
1, 47036, Note_on_c, 0, 68, 0
1, 47040, Note_on_c, 0, 66, 80
1, 47399, Note_on_c, 0, 66, 0
1, 47400, Note_on_c, 0, 69, 127
1, 47516, Note_on_c, 0, 69, 0
1, 47520, Note_on_c, 0, 68, 80
1, 47879, Note_on_c, 0, 68, 0
1, 47880, Note_on_c, 0, 66, 127
1, 47996, Note_on_c, 0, 66, 0
1, 48000, Note_on_c, 0, 64, 127
1, 48599, Note_on_c, 0, 64, 0
1, 48600, Note_on_c, 0, 63, 127
1, 48716, Note_on_c, 0, 63, 0
1, 48720, Note_on_c, 0, 61, 127
1, 48836, Note_on_c, 0, 61, 0
1, 48840, Note_on_c, 0, 60, 127
1, 48956, Note_on_c, 0, 60, 0
1, 48960, Note_on_c, 0, 63, 127
1, 49436, Note_on_c, 0, 63, 0
1, 49800, Note_on_c, 0, 73, 127
1, 49916, Note_on_c, 0, 73, 0
1, 49920, Note_on_c, 0, 66, 127
1, 50519, Note_on_c, 0, 66, 0
1, 50520, Note_on_c, 0, 69, 127
1, 50636, Note_on_c, 0, 69, 0
1, 50640, Note_on_c, 0, 68, 127
1, 50756, Note_on_c, 0, 68, 0
1, 50760, Note_on_c, 0, 66, 127
1, 50876, Note_on_c, 0, 66, 0
1, 50880, Note_on_c, 0, 64, 127
1, 50996, Note_on_c, 0, 64, 0
1, 51000, Note_on_c, 0, 68, 127
1, 51116, Note_on_c, 0, 68, 0
1, 51120, Note_on_c, 0, 70, 127
1, 51236, Note_on_c, 0, 70, 0
1, 51240, Note_on_c, 0, 72, 127
1, 51356, Note_on_c, 0, 72, 0
1, 51360, Note_on_c, 0, 73, 127
1, 51836, Note_on_c, 0, 73, 0
1, 51960, Note_on_c, 0, 71, 127
1, 52076, Note_on_c, 0, 71, 0
1, 52080, Note_on_c, 0, 73, 127
1, 52196, Note_on_c, 0, 73, 0
1, 52200, Note_on_c, 0, 75, 127
1, 52316, Note_on_c, 0, 75, 0
1, 52320, Note_on_c, 0, 76, 80
1, 52679, Note_on_c, 0, 76, 0
1, 52680, Note_on_c, 0, 75, 127
1, 52736, Note_on_c, 0, 75, 0
1, 52740, Note_on_c, 0, 73, 127
1, 52796, Note_on_c, 0, 73, 0
1, 52800, Note_on_c, 0, 71, 127
1, 54119, Note_on_c, 0, 71, 0
1, 54120, Note_on_c, 0, 68, 127
1, 54236, Note_on_c, 0, 68, 0
1, 54240, Note_on_c, 0, 73, 80
1, 54599, Note_on_c, 0, 73, 0
1, 54600, Note_on_c, 0, 71, 127
1, 54716, Note_on_c, 0, 71, 0
1, 54720, Note_on_c, 0, 69, 127
1, 56039, Note_on_c, 0, 69, 0
1, 56040, Note_on_c, 0, 66, 127
1, 56156, Note_on_c, 0, 66, 0
1, 56160, Note_on_c, 0, 71, 80
1, 56519, Note_on_c, 0, 71, 0
1, 56520, Note_on_c, 0, 69, 127
1, 56636, Note_on_c, 0, 69, 0
1, 56640, Note_on_c, 0, 68, 127
1, 57959, Note_on_c, 0, 68, 0
1, 57960, Note_on_c, 0, 66, 127
1, 58016, Note_on_c, 0, 66, 0
1, 58020, Note_on_c, 0, 64, 127
1, 58076, Note_on_c, 0, 64, 0
1, 58080, Note_on_c, 0, 66, 80
1, 58439, Note_on_c, 0, 66, 0
1, 58440, Note_on_c, 0, 63, 127
1, 58556, Note_on_c, 0, 63, 0
1, 58560, Note_on_c, 0, 64, 80
1, 58919, Note_on_c, 0, 64, 0
1, 58920, Note_on_c, 0, 66, 127
1, 59036, Note_on_c, 0, 66, 0
1, 59040, Note_on_c, 0, 64, 127
1, 59099, Note_on_c, 0, 64, 0
1, 59100, Note_on_c, 0, 63, 80
1, 59159, Note_on_c, 0, 63, 0
1, 59160, Note_on_c, 0, 64, 127
1, 59219, Note_on_c, 0, 64, 0
1, 59220, Note_on_c, 0, 63, 80
1, 59279, Note_on_c, 0, 63, 0
1, 59280, Note_on_c, 0, 64, 127
1, 59339, Note_on_c, 0, 64, 0
1, 59340, Note_on_c, 0, 63, 80
1, 59399, Note_on_c, 0, 63, 0
1, 59400, Note_on_c, 0, 64, 127
1, 59459, Note_on_c, 0, 64, 0
1, 59460, Note_on_c, 0, 63, 80
1, 59519, Note_on_c, 0, 63, 0
1, 59520, Note_on_c, 0, 64, 127
1, 59579, Note_on_c, 0, 64, 0
1, 59580, Note_on_c, 0, 63, 80
1, 59639, Note_on_c, 0, 63, 0
1, 59640, Note_on_c, 0, 64, 127
1, 59699, Note_on_c, 0, 64, 0
1, 59700, Note_on_c, 0, 63, 80
1, 59759, Note_on_c, 0, 63, 0
1, 59760, Note_on_c, 0, 64, 127
1, 59819, Note_on_c, 0, 64, 0
1, 59820, Note_on_c, 0, 63, 80
1, 59879, Note_on_c, 0, 63, 0
1, 59880, Note_on_c, 0, 61, 127
1, 59936, Note_on_c, 0, 61, 0
1, 59940, Note_on_c, 0, 60, 127
1, 59996, Note_on_c, 0, 60, 0
1, 60000, Note_on_c, 0, 61, 127
1, 60839, Note_on_c, 0, 61, 0
1, 60840, Note_on_c, 0, 63, 127
1, 60956, Note_on_c, 0, 63, 0
1, 60960, Note_on_c, 0, 64, 80
1, 61319, Note_on_c, 0, 64, 0
1, 61320, Note_on_c, 0, 61, 127
1, 61436, Note_on_c, 0, 61, 0
1, 61440, Note_on_c, 0, 66, 127
1, 61739, Note_on_c, 0, 66, 0
1, 61740, Note_on_c, 0, 75, 127
1, 61796, Note_on_c, 0, 75, 0
1, 61800, Note_on_c, 0, 76, 127
1, 61856, Note_on_c, 0, 76, 0
1, 61860, Note_on_c, 0, 78, 127
1, 61916, Note_on_c, 0, 78, 0
1, 61920, Note_on_c, 0, 76, 80
1, 62279, Note_on_c, 0, 76, 0
1, 62280, Note_on_c, 0, 75, 127
1, 62396, Note_on_c, 0, 75, 0
1, 62400, Note_on_c, 0, 73, 80
1, 62759, Note_on_c, 0, 73, 0
1, 62760, Note_on_c, 0, 71, 127
1, 62876, Note_on_c, 0, 71, 0
1, 62880, Note_on_c, 0, 69, 127
1, 63356, Note_on_c, 0, 69, 0
1, 63360, Note_on_c, 0, 68, 127
1, 63596, Note_on_c, 0, 68, 0
1, 65280, Note_on_c, 0, 73, 127
1, 66236, Note_on_c, 0, 73, 0
1, 66240, Note_on_c, 0, 66, 80
1, 66959, Note_on_c, 0, 66, 0
1, 66960, Note_on_c, 0, 68, 127
1, 67196, Note_on_c, 0, 68, 0
1, 67200, Note_on_c, 0, 69, 80
1, 67919, Note_on_c, 0, 69, 0
1, 67920, Note_on_c, 0, 71, 127
1, 68156, Note_on_c, 0, 71, 0
1, 68160, Note_on_c, 0, 73, 127
1, 69116, Note_on_c, 0, 73, 0
1, 69120, Note_on_c, 0, 74, 127
1, 70076, Note_on_c, 0, 74, 0
1, 70080, Note_on_c, 0, 73, 80
1, 70799, Note_on_c, 0, 73, 0
1, 70800, Note_on_c, 0, 71, 127
1, 71036, Note_on_c, 0, 71, 0
1, 71040, Note_on_c, 0, 69, 127
1, 72359, Note_on_c, 0, 69, 0
1, 72360, Note_on_c, 0, 68, 127
1, 72476, Note_on_c, 0, 68, 0
1, 72480, Note_on_c, 0, 69, 80
1, 72839, Note_on_c, 0, 69, 0
1, 72840, Note_on_c, 0, 71, 127
1, 72956, Note_on_c, 0, 71, 0
1, 72960, Note_on_c, 0, 73, 127
1, 73559, Note_on_c, 0, 73, 0
1, 73560, Note_on_c, 0, 74, 127
1, 73676, Note_on_c, 0, 74, 0
1, 73680, Note_on_c, 0, 73, 127
1, 73796, Note_on_c, 0, 73, 0
1, 73800, Note_on_c, 0, 71, 127
1, 73916, Note_on_c, 0, 71, 0
1, 73920, Note_on_c, 0, 69, 127
1, 74036, Note_on_c, 0, 69, 0
1, 74040, Note_on_c, 0, 73, 127
1, 74156, Note_on_c, 0, 73, 0
1, 74160, Note_on_c, 0, 74, 127
1, 74276, Note_on_c, 0, 74, 0
1, 74280, Note_on_c, 0, 76, 127
1, 74396, Note_on_c, 0, 76, 0
1, 74400, Note_on_c, 0, 78, 127
1, 74999, Note_on_c, 0, 78, 0
1, 75000, Note_on_c, 0, 79, 127
1, 75116, Note_on_c, 0, 79, 0
1, 75120, Note_on_c, 0, 78, 127
1, 75236, Note_on_c, 0, 78, 0
1, 75240, Note_on_c, 0, 76, 127
1, 75356, Note_on_c, 0, 76, 0
1, 75360, Note_on_c, 0, 74, 127
1, 75476, Note_on_c, 0, 74, 0
1, 75480, Note_on_c, 0, 73, 127
1, 75596, Note_on_c, 0, 73, 0
1, 75600, Note_on_c, 0, 71, 127
1, 75716, Note_on_c, 0, 71, 0
1, 75720, Note_on_c, 0, 69, 127
1, 75836, Note_on_c, 0, 69, 0
1, 75840, Note_on_c, 0, 69, 80
1, 75899, Note_on_c, 0, 69, 0
1, 75900, Note_on_c, 0, 68, 80
1, 75959, Note_on_c, 0, 68, 0
1, 75960, Note_on_c, 0, 69, 80
1, 76019, Note_on_c, 0, 69, 0
1, 76020, Note_on_c, 0, 68, 80
1, 76079, Note_on_c, 0, 68, 0
1, 76080, Note_on_c, 0, 69, 80
1, 76139, Note_on_c, 0, 69, 0
1, 76140, Note_on_c, 0, 68, 80
1, 76199, Note_on_c, 0, 68, 0
1, 76200, Note_on_c, 0, 66, 127
1, 76256, Note_on_c, 0, 66, 0
1, 76260, Note_on_c, 0, 64, 127
1, 76316, Note_on_c, 0, 64, 0
1, 76320, Note_on_c, 0, 69, 127
1, 76919, Note_on_c, 0, 69, 0
1, 76920, Note_on_c, 0, 68, 127
1, 77036, Note_on_c, 0, 68, 0
1, 77040, Note_on_c, 0, 66, 127
1, 77156, Note_on_c, 0, 66, 0
1, 77160, Note_on_c, 0, 68, 127
1, 77276, Note_on_c, 0, 68, 0
1, 77280, Note_on_c, 0, 69, 127
1, 77396, Note_on_c, 0, 69, 0
1, 77400, Note_on_c, 0, 71, 127
1, 77516, Note_on_c, 0, 71, 0
1, 77520, Note_on_c, 0, 73, 127
1, 77636, Note_on_c, 0, 73, 0
1, 77640, Note_on_c, 0, 75, 127
1, 77756, Note_on_c, 0, 75, 0
1, 77760, Note_on_c, 0, 76, 80
1, 78119, Note_on_c, 0, 76, 0
1, 78120, Note_on_c, 0, 74, 127
1, 78236, Note_on_c, 0, 74, 0
1, 78240, Note_on_c, 0, 73, 127
1, 78356, Note_on_c, 0, 73, 0
1, 78360, Note_on_c, 0, 71, 127
1, 78476, Note_on_c, 0, 71, 0
1, 78480, Note_on_c, 0, 69, 127
1, 78596, Note_on_c, 0, 69, 0
1, 78600, Note_on_c, 0, 68, 127
1, 78716, Note_on_c, 0, 68, 0
1, 78720, Note_on_c, 0, 69, 80
1, 79079, Note_on_c, 0, 69, 0
1, 79080, Note_on_c, 0, 71, 127
1, 79136, Note_on_c, 0, 71, 0
1, 79140, Note_on_c, 0, 73, 127
1, 79196, Note_on_c, 0, 73, 0
1, 79200, Note_on_c, 0, 66, 80
1, 79559, Note_on_c, 0, 66, 0
1, 79560, Note_on_c, 0, 78, 127
1, 79676, Note_on_c, 0, 78, 0
1, 79680, Note_on_c, 0, 69, 127
1, 79979, Note_on_c, 0, 69, 0
1, 79980, Note_on_c, 0, 68, 127
1, 80036, Note_on_c, 0, 68, 0
1, 80040, Note_on_c, 0, 66, 127
1, 80096, Note_on_c, 0, 66, 0
1, 80100, Note_on_c, 0, 68, 127
1, 80156, Note_on_c, 0, 68, 0
1, 80160, Note_on_c, 0, 69, 80
1, 80219, Note_on_c, 0, 69, 0
1, 80220, Note_on_c, 0, 68, 80
1, 80279, Note_on_c, 0, 68, 0
1, 80280, Note_on_c, 0, 69, 80
1, 80339, Note_on_c, 0, 69, 0
1, 80340, Note_on_c, 0, 68, 80
1, 80399, Note_on_c, 0, 68, 0
1, 80400, Note_on_c, 0, 69, 80
1, 80459, Note_on_c, 0, 69, 0
1, 80460, Note_on_c, 0, 68, 80
1, 80519, Note_on_c, 0, 68, 0
1, 80520, Note_on_c, 0, 69, 127
1, 80636, Note_on_c, 0, 69, 0
1, 80640, Note_on_c, 0, 69, 127
1, 81116, Note_on_c, 0, 69, 0
1, 81480, Note_on_c, 0, 71, 127
1, 81596, Note_on_c, 0, 71, 0
1, 81600, Note_on_c, 0, 64, 127
1, 81899, Note_on_c, 0, 64, 0
1, 81900, Note_on_c, 0, 66, 127
1, 81956, Note_on_c, 0, 66, 0
1, 81960, Note_on_c, 0, 64, 127
1, 82016, Note_on_c, 0, 64, 0
1, 82020, Note_on_c, 0, 63, 127
1, 82076, Note_on_c, 0, 63, 0
1, 82080, Note_on_c, 0, 64, 80
1, 82439, Note_on_c, 0, 64, 0
1, 82440, Note_on_c, 0, 66, 127
1, 82556, Note_on_c, 0, 66, 0
1, 82560, Note_on_c, 0, 68, 127
1, 83159, Note_on_c, 0, 68, 0
1, 83160, Note_on_c, 0, 66, 127
1, 83276, Note_on_c, 0, 66, 0
1, 83280, Note_on_c, 0, 68, 127
1, 83396, Note_on_c, 0, 68, 0
1, 83400, Note_on_c, 0, 70, 127
1, 83516, Note_on_c, 0, 70, 0
1, 83520, Note_on_c, 0, 71, 80
1, 83879, Note_on_c, 0, 71, 0
1, 83880, Note_on_c, 0, 66, 127
1, 83996, Note_on_c, 0, 66, 0
1, 84000, Note_on_c, 0, 71, 127
1, 85079, Note_on_c, 0, 71, 0
1, 85080, Note_on_c, 0, 70, 127
1, 85136, Note_on_c, 0, 70, 0
1, 85140, Note_on_c, 0, 68, 80
1, 85199, Note_on_c, 0, 68, 0
1, 85200, Note_on_c, 0, 70, 127
1, 85316, Note_on_c, 0, 70, 0
1, 85320, Note_on_c, 0, 72, 127
1, 85436, Note_on_c, 0, 72, 0
1, 85440, Note_on_c, 0, 73, 80
1, 85799, Note_on_c, 0, 73, 0
1, 85800, Note_on_c, 0, 75, 127
1, 85916, Note_on_c, 0, 75, 0
1, 85920, Note_on_c, 0, 76, 127
1, 86759, Note_on_c, 0, 76, 0
1, 86760, Note_on_c, 0, 76, 127
1, 86876, Note_on_c, 0, 76, 0
1, 86880, Note_on_c, 0, 75, 80
1, 87239, Note_on_c, 0, 75, 0
1, 87240, Note_on_c, 0, 73, 127
1, 87356, Note_on_c, 0, 73, 0
1, 87360, Note_on_c, 0, 72, 80
1, 87719, Note_on_c, 0, 72, 0
1, 87720, Note_on_c, 0, 69, 127
1, 87776, Note_on_c, 0, 69, 0
1, 87780, Note_on_c, 0, 68, 80
1, 87839, Note_on_c, 0, 68, 0
1, 87840, Note_on_c, 0, 73, 127
1, 88619, Note_on_c, 0, 73, 0
1, 88620, Note_on_c, 0, 71, 80
1, 88679, Note_on_c, 0, 71, 0
1, 88680, Note_on_c, 0, 73, 127
1, 88736, Note_on_c, 0, 73, 0
1, 88740, Note_on_c, 0, 70, 127
1, 88796, Note_on_c, 0, 70, 0
1, 88800, Note_on_c, 0, 71, 127
1, 89579, Note_on_c, 0, 71, 0
1, 89580, Note_on_c, 0, 69, 80
1, 89639, Note_on_c, 0, 69, 0
1, 89640, Note_on_c, 0, 71, 127
1, 89696, Note_on_c, 0, 71, 0
1, 89700, Note_on_c, 0, 68, 127
1, 89756, Note_on_c, 0, 68, 0
1, 89760, Note_on_c, 0, 69, 127
1, 90239, Note_on_c, 0, 69, 0
1, 90240, Note_on_c, 0, 68, 80
1, 90599, Note_on_c, 0, 68, 0
1, 90600, Note_on_c, 0, 66, 127
1, 90716, Note_on_c, 0, 66, 0
1, 90720, Note_on_c, 0, 64, 127
1, 91559, Note_on_c, 0, 64, 0
1, 91560, Note_on_c, 0, 66, 127
1, 91676, Note_on_c, 0, 66, 0
1, 91680, Note_on_c, 0, 68, 80
1, 92039, Note_on_c, 0, 68, 0
1, 92040, Note_on_c, 0, 69, 127
1, 92156, Note_on_c, 0, 69, 0
1, 92160, Note_on_c, 0, 66, 80
1, 92519, Note_on_c, 0, 66, 0
1, 92520, Note_on_c, 0, 75, 127
1, 92576, Note_on_c, 0, 75, 0
1, 92580, Note_on_c, 0, 76, 127
1, 92636, Note_on_c, 0, 76, 0
1, 92640, Note_on_c, 0, 78, 80
1, 92999, Note_on_c, 0, 78, 0
1, 93000, Note_on_c, 0, 72, 127
1, 93116, Note_on_c, 0, 72, 0
1, 93120, Note_on_c, 0, 73, 80
1, 93479, Note_on_c, 0, 73, 0
1, 93480, Note_on_c, 0, 75, 127
1, 93596, Note_on_c, 0, 75, 0
1, 93600, Note_on_c, 0, 73, 127
1, 93659, Note_on_c, 0, 73, 0
1, 93660, Note_on_c, 0, 72, 80
1, 93719, Note_on_c, 0, 72, 0
1, 93720, Note_on_c, 0, 73, 80
1, 93779, Note_on_c, 0, 73, 0
1, 93780, Note_on_c, 0, 72, 80
1, 93839, Note_on_c, 0, 72, 0
1, 93840, Note_on_c, 0, 73, 80
1, 93899, Note_on_c, 0, 73, 0
1, 93900, Note_on_c, 0, 72, 80
1, 93959, Note_on_c, 0, 72, 0
1, 93960, Note_on_c, 0, 73, 127
1, 94076, Note_on_c, 0, 73, 0
1, 94080, Note_on_c, 0, 73, 80
1, 94439, Note_on_c, 0, 73, 0
1, 94440, Note_on_c, 0, 75, 127
1, 94556, Note_on_c, 0, 75, 0
1, 94560, Note_on_c, 0, 76, 80
1, 94919, Note_on_c, 0, 76, 0
1, 94920, Note_on_c, 0, 78, 127
1, 95036, Note_on_c, 0, 78, 0
1, 95040, Note_on_c, 0, 80, 80
1, 95819, Note_on_c, 0, 80, 0
1, 95820, Note_on_c, 0, 80, 127
1, 95876, Note_on_c, 0, 80, 0
1, 95880, Note_on_c, 0, 78, 127
1, 95936, Note_on_c, 0, 78, 0
1, 95940, Note_on_c, 0, 76, 127
1, 95996, Note_on_c, 0, 76, 0
1, 96000, Note_on_c, 0, 75, 127
1, 97319, Note_on_c, 0, 75, 0
1, 97320, Note_on_c, 0, 73, 127
1, 97436, Note_on_c, 0, 73, 0
1, 97440, Note_on_c, 0, 75, 80
1, 97799, Note_on_c, 0, 75, 0
1, 97800, Note_on_c, 0, 76, 127
1, 97916, Note_on_c, 0, 76, 0
1, 97920, Note_on_c, 0, 78, 80
1, 98699, Note_on_c, 0, 78, 0
1, 98700, Note_on_c, 0, 78, 127
1, 98756, Note_on_c, 0, 78, 0
1, 98760, Note_on_c, 0, 76, 127
1, 98816, Note_on_c, 0, 76, 0
1, 98820, Note_on_c, 0, 75, 127
1, 98876, Note_on_c, 0, 75, 0
1, 98880, Note_on_c, 0, 73, 127
1, 100199, Note_on_c, 0, 73, 0
1, 100200, Note_on_c, 0, 72, 127
1, 100316, Note_on_c, 0, 72, 0
1, 100320, Note_on_c, 0, 73, 80
1, 100679, Note_on_c, 0, 73, 0
1, 100680, Note_on_c, 0, 75, 127
1, 100796, Note_on_c, 0, 75, 0
1, 100800, Note_on_c, 0, 76, 80
1, 101579, Note_on_c, 0, 76, 0
1, 101580, Note_on_c, 0, 76, 127
1, 101636, Note_on_c, 0, 76, 0
1, 101640, Note_on_c, 0, 75, 127
1, 101696, Note_on_c, 0, 75, 0
1, 101700, Note_on_c, 0, 73, 127
1, 101756, Note_on_c, 0, 73, 0
1, 101760, Note_on_c, 0, 71, 127
1, 103079, Note_on_c, 0, 71, 0
1, 103080, Note_on_c, 0, 71, 127
1, 103196, Note_on_c, 0, 71, 0
1, 103200, Note_on_c, 0, 76, 80
1, 103559, Note_on_c, 0, 76, 0
1, 103560, Note_on_c, 0, 75, 127
1, 103676, Note_on_c, 0, 75, 0
1, 103680, Note_on_c, 0, 73, 80
1, 104039, Note_on_c, 0, 73, 0
1, 104040, Note_on_c, 0, 71, 127
1, 104156, Note_on_c, 0, 71, 0
1, 104160, Note_on_c, 0, 69, 127
1, 104999, Note_on_c, 0, 69, 0
1, 105000, Note_on_c, 0, 63, 127
1, 105116, Note_on_c, 0, 63, 0
1, 105120, Note_on_c, 0, 68, 80
1, 105479, Note_on_c, 0, 68, 0
1, 105480, Note_on_c, 0, 66, 127
1, 105596, Note_on_c, 0, 66, 0
1, 105600, Note_on_c, 0, 64, 80
1, 105959, Note_on_c, 0, 64, 0
1, 105960, Note_on_c, 0, 65, 127
1, 106076, Note_on_c, 0, 65, 0
1, 106080, Note_on_c, 0, 66, 80
1, 106439, Note_on_c, 0, 66, 0
1, 106440, Note_on_c, 0, 68, 127
1, 106556, Note_on_c, 0, 68, 0
1, 106560, Note_on_c, 0, 69, 80
1, 106919, Note_on_c, 0, 69, 0
1, 106920, Note_on_c, 0, 70, 127
1, 107036, Note_on_c, 0, 70, 0
1, 107040, Note_on_c, 0, 72, 80
1, 107399, Note_on_c, 0, 72, 0
1, 107400, Note_on_c, 0, 73, 127
1, 107516, Note_on_c, 0, 73, 0
1, 107520, Note_on_c, 0, 75, 127
1, 107996, Note_on_c, 0, 75, 0
1, 108000, Note_on_c, 0, 80, 80
1, 108359, Note_on_c, 0, 80, 0
1, 108360, Note_on_c, 0, 78, 127
1, 108476, Note_on_c, 0, 78, 0
1, 108480, Note_on_c, 0, 76, 80
1, 108839, Note_on_c, 0, 76, 0
1, 108840, Note_on_c, 0, 75, 127
1, 108956, Note_on_c, 0, 75, 0
1, 108960, Note_on_c, 0, 73, 127
1, 109436, Note_on_c, 0, 73, 0
1, 109440, Note_on_c, 0, 72, 127
1, 109916, Note_on_c, 0, 72, 0
1, 109920, Note_on_c, 0, 73, 80
1, 110279, Note_on_c, 0, 73, 0
1, 110280, Note_on_c, 0, 75, 127
1, 110396, Note_on_c, 0, 75, 0
1, 110400, Note_on_c, 0, 76, 127
1, 110999, Note_on_c, 0, 76, 0
1, 111000, Note_on_c, 0, 78, 127
1, 111116, Note_on_c, 0, 78, 0
1, 111120, Note_on_c, 0, 76, 127
1, 111236, Note_on_c, 0, 76, 0
1, 111240, Note_on_c, 0, 75, 127
1, 111356, Note_on_c, 0, 75, 0
1, 111360, Note_on_c, 0, 73, 127
1, 111836, Note_on_c, 0, 73, 0
1, 121920, Note_on_c, 0, 68, 127
1, 122876, Note_on_c, 0, 68, 0
1, 122880, Note_on_c, 0, 61, 80
1, 123599, Note_on_c, 0, 61, 0
1, 123600, Note_on_c, 0, 63, 127
1, 123836, Note_on_c, 0, 63, 0
1, 123840, Note_on_c, 0, 64, 80
1, 124559, Note_on_c, 0, 64, 0
1, 124560, Note_on_c, 0, 66, 127
1, 124796, Note_on_c, 0, 66, 0
1, 124800, Note_on_c, 0, 68, 127
1, 125756, Note_on_c, 0, 68, 0
1, 125760, Note_on_c, 0, 69, 127
1, 126716, Note_on_c, 0, 69, 0
1, 126720, Note_on_c, 0, 68, 80
1, 127439, Note_on_c, 0, 68, 0
1, 127440, Note_on_c, 0, 66, 127
1, 127676, Note_on_c, 0, 66, 0
1, 127680, Note_on_c, 0, 64, 127
1, 128999, Note_on_c, 0, 64, 0
1, 129000, Note_on_c, 0, 63, 127
1, 129116, Note_on_c, 0, 63, 0
1, 129120, Note_on_c, 0, 64, 80
1, 129479, Note_on_c, 0, 64, 0
1, 129480, Note_on_c, 0, 66, 127
1, 129596, Note_on_c, 0, 66, 0
1, 129600, Note_on_c, 0, 68, 127
1, 130859, Note_on_c, 0, 68, 0
1, 130860, Note_on_c, 0, 61, 127
1, 130916, Note_on_c, 0, 61, 0
1, 130920, Note_on_c, 0, 63, 127
1, 130976, Note_on_c, 0, 63, 0
1, 130980, Note_on_c, 0, 64, 127
1, 131036, Note_on_c, 0, 64, 0
1, 131040, Note_on_c, 0, 66, 127
1, 132779, Note_on_c, 0, 66, 0
1, 132780, Note_on_c, 0, 59, 127
1, 132836, Note_on_c, 0, 59, 0
1, 132840, Note_on_c, 0, 61, 127
1, 132896, Note_on_c, 0, 61, 0
1, 132900, Note_on_c, 0, 63, 127
1, 132956, Note_on_c, 0, 63, 0
1, 132960, Note_on_c, 0, 64, 127
1, 133799, Note_on_c, 0, 64, 0
1, 133800, Note_on_c, 0, 61, 127
1, 133916, Note_on_c, 0, 61, 0
1, 133920, Note_on_c, 0, 66, 80
1, 134279, Note_on_c, 0, 66, 0
1, 134280, Note_on_c, 0, 64, 127
1, 134396, Note_on_c, 0, 64, 0
1, 134400, Note_on_c, 0, 63, 80
1, 134759, Note_on_c, 0, 63, 0
1, 134760, Note_on_c, 0, 66, 127
1, 134876, Note_on_c, 0, 66, 0
1, 134880, Note_on_c, 0, 71, 80
1, 135239, Note_on_c, 0, 71, 0
1, 135240, Note_on_c, 0, 69, 127
1, 135356, Note_on_c, 0, 69, 0
1, 135360, Note_on_c, 0, 68, 80
1, 135719, Note_on_c, 0, 68, 0
1, 135720, Note_on_c, 0, 71, 127
1, 135836, Note_on_c, 0, 71, 0
1, 135840, Note_on_c, 0, 76, 80
1, 136199, Note_on_c, 0, 76, 0
1, 136200, Note_on_c, 0, 74, 127
1, 136316, Note_on_c, 0, 74, 0
1, 136320, Note_on_c, 0, 73, 80
1, 137039, Note_on_c, 0, 73, 0
1, 137160, Note_on_c, 0, 73, 127
1, 137276, Note_on_c, 0, 73, 0
1, 137280, Note_on_c, 0, 72, 80
1, 137999, Note_on_c, 0, 72, 0
1, 138120, Note_on_c, 0, 75, 127
1, 138236, Note_on_c, 0, 75, 0
1, 138240, Note_on_c, 0, 68, 127
1, 138716, Note_on_c, 0, 68, 0
1, 138960, Note_on_c, 0, 75, 127
1, 139016, Note_on_c, 0, 75, 0
1, 139020, Note_on_c, 0, 76, 127
1, 139076, Note_on_c, 0, 76, 0
1, 139080, Note_on_c, 0, 78, 127
1, 139196, Note_on_c, 0, 78, 0
1, 139200, Note_on_c, 0, 76, 127
1, 139316, Note_on_c, 0, 76, 0
1, 139320, Note_on_c, 0, 75, 127
1, 139436, Note_on_c, 0, 75, 0
1, 139440, Note_on_c, 0, 73, 127
1, 139556, Note_on_c, 0, 73, 0
1, 139560, Note_on_c, 0, 72, 127
1, 139676, Note_on_c, 0, 72, 0
1, 139680, Note_on_c, 0, 73, 127
1, 140519, Note_on_c, 0, 73, 0
1, 140520, Note_on_c, 0, 75, 127
1, 140636, Note_on_c, 0, 75, 0
1, 140640, Note_on_c, 0, 73, 80
1, 140699, Note_on_c, 0, 73, 0
1, 140700, Note_on_c, 0, 72, 80
1, 140759, Note_on_c, 0, 72, 0
1, 140760, Note_on_c, 0, 73, 80
1, 140819, Note_on_c, 0, 73, 0
1, 140820, Note_on_c, 0, 72, 80
1, 140879, Note_on_c, 0, 72, 0
1, 140880, Note_on_c, 0, 73, 80
1, 140939, Note_on_c, 0, 73, 0
1, 140940, Note_on_c, 0, 72, 80
1, 140999, Note_on_c, 0, 72, 0
1, 141000, Note_on_c, 0, 73, 127
1, 141116, Note_on_c, 0, 73, 0
1, 141120, Note_on_c, 0, 73, 127
1, 141596, Note_on_c, 0, 73, 0
1, 143040, Note_on_c, 0, 73, 127
1, 143996, Note_on_c, 0, 73, 0
1, 144000, Note_on_c, 0, 66, 80
1, 144719, Note_on_c, 0, 66, 0
1, 144720, Note_on_c, 0, 68, 80
1, 144959, Note_on_c, 0, 68, 0
1, 144960, Note_on_c, 0, 69, 80
1, 145320, Note_on_c, 0, 73, 127
1, 145436, Note_on_c, 0, 73, 0
1, 145440, Note_on_c, 0, 78, 80
1, 145679, Note_on_c, 0, 69, 0
1, 145680, Note_on_c, 0, 71, 80
1, 145799, Note_on_c, 0, 78, 0
1, 145800, Note_on_c, 0, 77, 127
1, 145916, Note_on_c, 0, 77, 0
1, 145919, Note_on_c, 0, 71, 0
1, 145920, Note_on_c, 0, 73, 80
1, 145920, Note_on_c, 0, 78, 80
1, 146279, Note_on_c, 0, 78, 0
1, 146280, Note_on_c, 0, 80, 127
1, 146396, Note_on_c, 0, 80, 0
1, 146400, Note_on_c, 0, 81, 80
1, 146759, Note_on_c, 0, 81, 0
1, 146760, Note_on_c, 0, 78, 127
1, 146876, Note_on_c, 0, 78, 0
1, 146879, Note_on_c, 0, 73, 0
1, 146880, Note_on_c, 0, 74, 80
1, 146880, Note_on_c, 0, 80, 80
1, 147239, Note_on_c, 0, 80, 0
1, 147240, Note_on_c, 0, 81, 127
1, 147296, Note_on_c, 0, 81, 0
1, 147300, Note_on_c, 0, 83, 127
1, 147356, Note_on_c, 0, 83, 0
1, 147360, Note_on_c, 0, 81, 127
1, 147476, Note_on_c, 0, 81, 0
1, 147480, Note_on_c, 0, 80, 127
1, 147596, Note_on_c, 0, 80, 0
1, 147600, Note_on_c, 0, 78, 127
1, 147716, Note_on_c, 0, 78, 0
1, 147720, Note_on_c, 0, 77, 127
1, 147836, Note_on_c, 0, 77, 0
1, 147839, Note_on_c, 0, 74, 0
1, 147840, Note_on_c, 0, 73, 80
1, 147840, Note_on_c, 0, 78, 127
1, 148559, Note_on_c, 0, 73, 0
1, 148560, Note_on_c, 0, 71, 80
1, 148799, Note_on_c, 0, 71, 0
1, 148800, Note_on_c, 0, 69, 80
1, 150119, Note_on_c, 0, 69, 0
1, 150119, Note_on_c, 0, 78, 0
1, 150120, Note_on_c, 0, 68, 80
1, 150120, Note_on_c, 0, 77, 127
1, 150236, Note_on_c, 0, 77, 0
1, 150239, Note_on_c, 0, 68, 0
1, 150240, Note_on_c, 0, 69, 80
1, 150240, Note_on_c, 0, 78, 80
1, 150599, Note_on_c, 0, 69, 0
1, 150599, Note_on_c, 0, 78, 0
1, 150600, Note_on_c, 0, 72, 80
1, 150600, Note_on_c, 0, 75, 127
1, 150716, Note_on_c, 0, 75, 0
1, 150719, Note_on_c, 0, 72, 0
1, 150720, Note_on_c, 0, 73, 80
1, 150720, Note_on_c, 0, 77, 127
1, 151676, Note_on_c, 0, 77, 0
1, 151679, Note_on_c, 0, 73, 0
1, 151680, End_track
2, 0, Start_track
2, 0, Key_signature, 4, "major"
2, 4800, Note_on_c, 0, 61, 127
2, 5276, Note_on_c, 0, 61, 0
2, 5280, Note_on_c, 0, 68, 80
2, 5639, Note_on_c, 0, 68, 0
2, 5640, Note_on_c, 0, 66, 127
2, 5756, Note_on_c, 0, 66, 0
2, 5760, Note_on_c, 0, 64, 80
2, 6119, Note_on_c, 0, 64, 0
2, 6120, Note_on_c, 0, 63, 127
2, 6236, Note_on_c, 0, 63, 0
2, 6240, Note_on_c, 0, 61, 127
2, 6716, Note_on_c, 0, 61, 0
2, 6720, Note_on_c, 0, 60, 127
2, 7196, Note_on_c, 0, 60, 0
2, 7200, Note_on_c, 0, 61, 80
2, 7559, Note_on_c, 0, 61, 0
2, 7560, Note_on_c, 0, 63, 127
2, 7676, Note_on_c, 0, 63, 0
2, 7680, Note_on_c, 0, 64, 127
2, 8279, Note_on_c, 0, 64, 0
2, 8280, Note_on_c, 0, 66, 127
2, 8396, Note_on_c, 0, 66, 0
2, 8400, Note_on_c, 0, 64, 127
2, 8516, Note_on_c, 0, 64, 0
2, 8520, Note_on_c, 0, 63, 127
2, 8636, Note_on_c, 0, 63, 0
2, 8640, Note_on_c, 0, 61, 127
2, 9116, Note_on_c, 0, 61, 0
2, 9120, Note_on_c, 0, 63, 80
2, 9479, Note_on_c, 0, 63, 0
2, 9480, Note_on_c, 0, 64, 127
2, 9596, Note_on_c, 0, 64, 0
2, 9600, Note_on_c, 0, 66, 127
2, 10076, Note_on_c, 0, 66, 0
2, 10080, Note_on_c, 0, 64, 127
2, 10919, Note_on_c, 0, 64, 0
2, 10920, Note_on_c, 0, 63, 127
2, 11036, Note_on_c, 0, 63, 0
2, 11040, Note_on_c, 0, 64, 80
2, 11399, Note_on_c, 0, 64, 0
2, 11400, Note_on_c, 0, 66, 127
2, 11516, Note_on_c, 0, 66, 0
2, 11520, Note_on_c, 0, 68, 127
2, 12839, Note_on_c, 0, 68, 0
2, 12840, Note_on_c, 0, 70, 127
2, 12956, Note_on_c, 0, 70, 0
2, 12960, Note_on_c, 0, 71, 127
2, 13259, Note_on_c, 0, 71, 0
2, 13260, Note_on_c, 0, 70, 127
2, 13316, Note_on_c, 0, 70, 0
2, 13320, Note_on_c, 0, 68, 127
2, 13376, Note_on_c, 0, 68, 0
2, 13380, Note_on_c, 0, 67, 127
2, 13436, Note_on_c, 0, 67, 0
2, 13440, Note_on_c, 0, 68, 127
2, 14396, Note_on_c, 0, 68, 0
2, 14400, Note_on_c, 0, 75, 80
2, 15119, Note_on_c, 0, 75, 0
2, 15120, Note_on_c, 0, 73, 127
2, 15356, Note_on_c, 0, 73, 0
2, 15360, Note_on_c, 0, 71, 80
2, 16079, Note_on_c, 0, 71, 0
2, 16080, Note_on_c, 0, 70, 127
2, 16316, Note_on_c, 0, 70, 0
2, 16320, Note_on_c, 0, 68, 127
2, 17276, Note_on_c, 0, 68, 0
2, 17280, Note_on_c, 0, 67, 127
2, 18236, Note_on_c, 0, 67, 0
2, 18240, Note_on_c, 0, 68, 80
2, 18959, Note_on_c, 0, 68, 0
2, 18960, Note_on_c, 0, 70, 127
2, 19196, Note_on_c, 0, 70, 0
2, 19200, Note_on_c, 0, 71, 127
2, 20519, Note_on_c, 0, 71, 0
2, 20520, Note_on_c, 0, 73, 127
2, 20636, Note_on_c, 0, 73, 0
2, 20640, Note_on_c, 0, 71, 80
2, 20999, Note_on_c, 0, 71, 0
2, 21000, Note_on_c, 0, 70, 127
2, 21116, Note_on_c, 0, 70, 0
2, 21120, Note_on_c, 0, 68, 127
2, 21959, Note_on_c, 0, 68, 0
2, 21960, Note_on_c, 0, 67, 127
2, 22076, Note_on_c, 0, 67, 0
2, 22080, Note_on_c, 0, 68, 80
2, 22859, Note_on_c, 0, 68, 0
2, 22860, Note_on_c, 0, 66, 127
2, 22916, Note_on_c, 0, 66, 0
2, 22920, Note_on_c, 0, 64, 127
2, 22976, Note_on_c, 0, 64, 0
2, 22980, Note_on_c, 0, 63, 127
2, 23036, Note_on_c, 0, 63, 0
2, 23040, Note_on_c, 0, 64, 127
2, 24779, Note_on_c, 0, 64, 0
2, 24780, Note_on_c, 0, 64, 127
2, 24836, Note_on_c, 0, 64, 0
2, 24840, Note_on_c, 0, 66, 127
2, 24896, Note_on_c, 0, 66, 0
2, 24900, Note_on_c, 0, 68, 127
2, 24956, Note_on_c, 0, 68, 0
2, 24960, Note_on_c, 0, 69, 127
2, 26279, Note_on_c, 0, 69, 0
2, 26280, Note_on_c, 0, 70, 127
2, 26396, Note_on_c, 0, 70, 0
2, 26400, Note_on_c, 0, 73, 127
2, 26636, Note_on_c, 0, 73, 0
2, 26640, Note_on_c, 0, 72, 127
2, 26696, Note_on_c, 0, 72, 0
2, 26700, Note_on_c, 0, 70, 127
2, 26756, Note_on_c, 0, 70, 0
2, 26760, Note_on_c, 0, 72, 127
2, 26816, Note_on_c, 0, 72, 0
2, 26820, Note_on_c, 0, 73, 127
2, 26876, Note_on_c, 0, 73, 0
2, 26880, Note_on_c, 0, 75, 127
2, 27719, Note_on_c, 0, 75, 0
2, 27720, Note_on_c, 0, 73, 127
2, 27776, Note_on_c, 0, 73, 0
2, 27780, Note_on_c, 0, 72, 127
2, 27836, Note_on_c, 0, 72, 0
2, 27840, Note_on_c, 0, 73, 127
2, 28679, Note_on_c, 0, 73, 0
2, 28680, Note_on_c, 0, 71, 127
2, 28796, Note_on_c, 0, 71, 0
2, 28800, Note_on_c, 0, 69, 80
2, 29159, Note_on_c, 0, 69, 0
2, 29160, Note_on_c, 0, 66, 127
2, 29276, Note_on_c, 0, 66, 0
2, 29280, Note_on_c, 0, 64, 80
2, 29639, Note_on_c, 0, 64, 0
2, 29640, Note_on_c, 0, 63, 127
2, 29756, Note_on_c, 0, 63, 0
2, 29760, Note_on_c, 0, 61, 80
2, 30119, Note_on_c, 0, 61, 0
2, 30120, Note_on_c, 0, 72, 127
2, 30236, Note_on_c, 0, 72, 0
2, 30240, Note_on_c, 0, 73, 127
2, 31079, Note_on_c, 0, 73, 0
2, 31080, Note_on_c, 0, 70, 127
2, 31196, Note_on_c, 0, 70, 0
2, 31200, Note_on_c, 0, 72, 80
2, 31559, Note_on_c, 0, 72, 0
2, 31560, Note_on_c, 0, 68, 127
2, 31676, Note_on_c, 0, 68, 0
2, 31680, Note_on_c, 0, 64, 80
2, 32039, Note_on_c, 0, 64, 0
2, 32040, Note_on_c, 0, 63, 127
2, 32156, Note_on_c, 0, 63, 0
2, 32160, Note_on_c, 0, 64, 80
2, 32519, Note_on_c, 0, 64, 0
2, 32520, Note_on_c, 0, 66, 127
2, 32636, Note_on_c, 0, 66, 0
2, 32640, Note_on_c, 0, 68, 127
2, 33479, Note_on_c, 0, 68, 0
2, 33480, Note_on_c, 0, 69, 127
2, 33596, Note_on_c, 0, 69, 0
2, 33600, Note_on_c, 0, 68, 80
2, 33959, Note_on_c, 0, 68, 0
2, 33960, Note_on_c, 0, 78, 127
2, 34076, Note_on_c, 0, 78, 0
2, 34080, Note_on_c, 0, 76, 127
2, 34196, Note_on_c, 0, 76, 0
2, 34200, Note_on_c, 0, 75, 127
2, 34316, Note_on_c, 0, 75, 0
2, 34320, Note_on_c, 0, 73, 127
2, 34436, Note_on_c, 0, 73, 0
2, 34440, Note_on_c, 0, 72, 127
2, 34556, Note_on_c, 0, 72, 0
2, 34560, Note_on_c, 0, 73, 127
2, 35159, Note_on_c, 0, 73, 0
2, 35160, Note_on_c, 0, 71, 127
2, 35276, Note_on_c, 0, 71, 0
2, 35280, Note_on_c, 0, 70, 127
2, 35396, Note_on_c, 0, 70, 0
2, 35400, Note_on_c, 0, 68, 127
2, 35516, Note_on_c, 0, 68, 0
2, 35520, Note_on_c, 0, 70, 80
2, 35879, Note_on_c, 0, 70, 0
2, 35880, Note_on_c, 0, 66, 127
2, 35996, Note_on_c, 0, 66, 0
2, 36000, Note_on_c, 0, 71, 127
2, 36839, Note_on_c, 0, 71, 0
2, 36840, Note_on_c, 0, 70, 127
2, 36896, Note_on_c, 0, 70, 0
2, 36900, Note_on_c, 0, 68, 127
2, 36956, Note_on_c, 0, 68, 0
2, 36960, Note_on_c, 0, 71, 80
2, 37019, Note_on_c, 0, 71, 0
2, 37020, Note_on_c, 0, 70, 80
2, 37079, Note_on_c, 0, 70, 0
2, 37080, Note_on_c, 0, 71, 80
2, 37139, Note_on_c, 0, 71, 0
2, 37140, Note_on_c, 0, 70, 80
2, 37199, Note_on_c, 0, 70, 0
2, 37200, Note_on_c, 0, 71, 80
2, 37259, Note_on_c, 0, 71, 0
2, 37260, Note_on_c, 0, 70, 80
2, 37319, Note_on_c, 0, 70, 0
2, 37320, Note_on_c, 0, 71, 127
2, 37436, Note_on_c, 0, 71, 0
2, 37440, Note_on_c, 0, 71, 80
2, 37799, Note_on_c, 0, 71, 0
2, 37800, Note_on_c, 0, 69, 127
2, 37916, Note_on_c, 0, 69, 0
2, 37920, Note_on_c, 0, 69, 80
2, 37979, Note_on_c, 0, 69, 0
2, 37980, Note_on_c, 0, 68, 80
2, 38039, Note_on_c, 0, 68, 0
2, 38040, Note_on_c, 0, 69, 80
2, 38099, Note_on_c, 0, 69, 0
2, 38100, Note_on_c, 0, 68, 80
2, 38159, Note_on_c, 0, 68, 0
2, 38160, Note_on_c, 0, 69, 80
2, 38219, Note_on_c, 0, 69, 0
2, 38220, Note_on_c, 0, 68, 80
2, 38279, Note_on_c, 0, 68, 0
2, 38280, Note_on_c, 0, 66, 127
2, 38336, Note_on_c, 0, 66, 0
2, 38340, Note_on_c, 0, 68, 127
2, 38396, Note_on_c, 0, 68, 0
2, 38400, Note_on_c, 0, 69, 80
2, 38759, Note_on_c, 0, 69, 0
2, 38760, Note_on_c, 0, 73, 127
2, 38876, Note_on_c, 0, 73, 0
2, 38880, Note_on_c, 0, 71, 80
2, 39239, Note_on_c, 0, 71, 0
2, 39240, Note_on_c, 0, 69, 127
2, 39356, Note_on_c, 0, 69, 0
2, 39360, Note_on_c, 0, 68, 127
2, 40199, Note_on_c, 0, 68, 0
2, 40200, Note_on_c, 0, 66, 127
2, 40316, Note_on_c, 0, 66, 0
2, 40320, Note_on_c, 0, 64, 80
2, 40679, Note_on_c, 0, 64, 0
2, 40680, Note_on_c, 0, 66, 127
2, 40796, Note_on_c, 0, 66, 0
2, 40800, Note_on_c, 0, 64, 80
2, 41159, Note_on_c, 0, 64, 0
2, 41160, Note_on_c, 0, 62, 127
2, 41276, Note_on_c, 0, 62, 0
2, 41280, Note_on_c, 0, 61, 127
2, 41756, Note_on_c, 0, 61, 0
2, 41760, Note_on_c, 0, 66, 127
2, 42599, Note_on_c, 0, 66, 0
2, 42600, Note_on_c, 0, 63, 127
2, 42716, Note_on_c, 0, 63, 0
2, 42720, Note_on_c, 0, 64, 127
2, 43559, Note_on_c, 0, 64, 0
2, 43560, Note_on_c, 0, 63, 127
2, 43676, Note_on_c, 0, 63, 0
2, 43680, Note_on_c, 0, 64, 80
2, 44039, Note_on_c, 0, 64, 0
2, 44040, Note_on_c, 0, 66, 127
2, 44156, Note_on_c, 0, 66, 0
2, 44160, Note_on_c, 0, 68, 127
2, 44636, Note_on_c, 0, 68, 0
2, 44640, Note_on_c, 0, 73, 127
2, 45116, Note_on_c, 0, 73, 0
2, 45120, Note_on_c, 0, 66, 127
2, 45596, Note_on_c, 0, 66, 0
2, 46080, Note_on_c, 0, 64, 127
2, 47036, Note_on_c, 0, 64, 0
2, 47040, Note_on_c, 0, 71, 80
2, 47759, Note_on_c, 0, 71, 0
2, 47760, Note_on_c, 0, 69, 127
2, 47996, Note_on_c, 0, 69, 0
2, 48000, Note_on_c, 0, 68, 80
2, 48719, Note_on_c, 0, 68, 0
2, 48720, Note_on_c, 0, 66, 127
2, 48956, Note_on_c, 0, 66, 0
2, 48960, Note_on_c, 0, 64, 127
2, 49916, Note_on_c, 0, 64, 0
2, 49920, Note_on_c, 0, 63, 127
2, 50876, Note_on_c, 0, 63, 0
2, 50880, Note_on_c, 0, 64, 80
2, 51599, Note_on_c, 0, 64, 0
2, 51600, Note_on_c, 0, 66, 127
2, 51836, Note_on_c, 0, 66, 0
2, 51840, Note_on_c, 0, 68, 127
2, 53159, Note_on_c, 0, 68, 0
2, 53160, Note_on_c, 0, 69, 127
2, 53276, Note_on_c, 0, 69, 0
2, 53280, Note_on_c, 0, 68, 80
2, 53639, Note_on_c, 0, 68, 0
2, 53640, Note_on_c, 0, 66, 127
2, 53756, Note_on_c, 0, 66, 0
2, 53760, Note_on_c, 0, 64, 127
2, 55079, Note_on_c, 0, 64, 0
2, 55080, Note_on_c, 0, 61, 127
2, 55196, Note_on_c, 0, 61, 0
2, 55200, Note_on_c, 0, 66, 80
2, 55559, Note_on_c, 0, 66, 0
2, 55560, Note_on_c, 0, 64, 127
2, 55676, Note_on_c, 0, 64, 0
2, 55680, Note_on_c, 0, 63, 127
2, 56999, Note_on_c, 0, 63, 0
2, 57000, Note_on_c, 0, 59, 127
2, 57116, Note_on_c, 0, 59, 0
2, 57120, Note_on_c, 0, 64, 80
2, 57479, Note_on_c, 0, 64, 0
2, 57480, Note_on_c, 0, 63, 127
2, 57596, Note_on_c, 0, 63, 0
2, 57600, Note_on_c, 0, 61, 127
2, 59039, Note_on_c, 0, 61, 0
2, 59040, Note_on_c, 0, 60, 127
2, 59516, Note_on_c, 0, 60, 0
2, 59520, Note_on_c, 0, 68, 127
2, 59996, Note_on_c, 0, 68, 0
2, 60000, Note_on_c, 0, 61, 80
2, 60359, Note_on_c, 0, 61, 0
2, 60360, Note_on_c, 0, 63, 127
2, 60476, Note_on_c, 0, 63, 0
2, 60480, Note_on_c, 0, 64, 80
2, 60839, Note_on_c, 0, 64, 0
2, 60840, Note_on_c, 0, 66, 127
2, 60956, Note_on_c, 0, 66, 0
2, 60960, Note_on_c, 0, 68, 127
2, 61436, Note_on_c, 0, 68, 0
2, 61440, Note_on_c, 0, 69, 127
2, 61916, Note_on_c, 0, 69, 0
2, 61920, Note_on_c, 0, 68, 80
2, 62279, Note_on_c, 0, 68, 0
2, 62280, Note_on_c, 0, 66, 127
2, 62396, Note_on_c, 0, 66, 0
2, 62400, Note_on_c, 0, 64, 127
2, 62999, Note_on_c, 0, 64, 0
2, 63000, Note_on_c, 0, 63, 127
2, 63116, Note_on_c, 0, 63, 0
2, 63120, Note_on_c, 0, 64, 127
2, 63236, Note_on_c, 0, 64, 0
2, 63240, Note_on_c, 0, 66, 127
2, 63356, Note_on_c, 0, 66, 0
2, 63360, Note_on_c, 0, 68, 80
2, 63719, Note_on_c, 0, 68, 0
2, 63720, Note_on_c, 0, 69, 127
2, 63836, Note_on_c, 0, 69, 0
2, 63840, Note_on_c, 0, 71, 80
2, 64199, Note_on_c, 0, 71, 0
2, 64200, Note_on_c, 0, 73, 127
2, 64316, Note_on_c, 0, 73, 0
2, 64320, Note_on_c, 0, 66, 80
2, 64679, Note_on_c, 0, 66, 0
2, 64680, Note_on_c, 0, 74, 127
2, 64796, Note_on_c, 0, 74, 0
2, 64800, Note_on_c, 0, 68, 80
2, 65159, Note_on_c, 0, 68, 0
2, 65160, Note_on_c, 0, 69, 127
2, 65216, Note_on_c, 0, 69, 0
2, 65220, Note_on_c, 0, 71, 127
2, 65276, Note_on_c, 0, 71, 0
2, 65280, Note_on_c, 0, 65, 80
2, 65639, Note_on_c, 0, 65, 0
2, 65640, Note_on_c, 0, 68, 127
2, 65756, Note_on_c, 0, 68, 0
2, 65760, Note_on_c, 0, 61, 127
2, 66599, Note_on_c, 0, 61, 0
2, 66600, Note_on_c, 0, 61, 127
2, 66716, Note_on_c, 0, 61, 0
2, 66720, Note_on_c, 0, 63, 80
2, 67079, Note_on_c, 0, 63, 0
2, 67080, Note_on_c, 0, 65, 127
2, 67196, Note_on_c, 0, 65, 0
2, 67200, Note_on_c, 0, 66, 80
2, 67559, Note_on_c, 0, 66, 0
2, 67560, Note_on_c, 0, 65, 127
2, 67676, Note_on_c, 0, 65, 0
2, 67680, Note_on_c, 0, 66, 80
2, 68039, Note_on_c, 0, 66, 0
2, 68040, Note_on_c, 0, 68, 127
2, 68156, Note_on_c, 0, 68, 0
2, 68160, Note_on_c, 0, 69, 80
2, 68519, Note_on_c, 0, 69, 0
2, 68520, Note_on_c, 0, 71, 127
2, 68576, Note_on_c, 0, 71, 0
2, 68580, Note_on_c, 0, 73, 127
2, 68636, Note_on_c, 0, 73, 0
2, 68640, Note_on_c, 0, 71, 127
2, 68756, Note_on_c, 0, 71, 0
2, 68760, Note_on_c, 0, 69, 127
2, 68876, Note_on_c, 0, 69, 0
2, 68880, Note_on_c, 0, 68, 127
2, 68996, Note_on_c, 0, 68, 0
2, 69000, Note_on_c, 0, 66, 127
2, 69116, Note_on_c, 0, 66, 0
2, 69120, Note_on_c, 0, 71, 80
2, 69479, Note_on_c, 0, 71, 0
2, 69480, Note_on_c, 0, 69, 127
2, 69536, Note_on_c, 0, 69, 0
2, 69540, Note_on_c, 0, 68, 127
2, 69596, Note_on_c, 0, 68, 0
2, 69600, Note_on_c, 0, 69, 80
2, 69959, Note_on_c, 0, 69, 0
2, 69960, Note_on_c, 0, 65, 127
2, 70076, Note_on_c, 0, 65, 0
2, 70080, Note_on_c, 0, 66, 80
2, 70439, Note_on_c, 0, 66, 0
2, 70440, Note_on_c, 0, 68, 127
2, 70496, Note_on_c, 0, 68, 0
2, 70500, Note_on_c, 0, 69, 127
2, 70556, Note_on_c, 0, 69, 0
2, 70560, Note_on_c, 0, 63, 80
2, 70919, Note_on_c, 0, 63, 0
2, 70920, Note_on_c, 0, 65, 127
2, 71036, Note_on_c, 0, 65, 0
2, 71040, Note_on_c, 0, 66, 127
2, 71516, Note_on_c, 0, 66, 0
2, 78720, Note_on_c, 0, 64, 127
2, 79196, Note_on_c, 0, 64, 0
2, 79200, Note_on_c, 0, 57, 80
2, 79559, Note_on_c, 0, 57, 0
2, 79560, Note_on_c, 0, 59, 127
2, 79676, Note_on_c, 0, 59, 0
2, 79680, Note_on_c, 0, 61, 80
2, 80039, Note_on_c, 0, 61, 0
2, 80040, Note_on_c, 0, 62, 127
2, 80156, Note_on_c, 0, 62, 0
2, 80160, Note_on_c, 0, 64, 127
2, 80636, Note_on_c, 0, 64, 0
2, 80640, Note_on_c, 0, 66, 127
2, 81116, Note_on_c, 0, 66, 0
2, 81120, Note_on_c, 0, 64, 80
2, 81479, Note_on_c, 0, 64, 0
2, 81480, Note_on_c, 0, 62, 127
2, 81596, Note_on_c, 0, 62, 0
2, 81600, Note_on_c, 0, 61, 127
2, 82199, Note_on_c, 0, 61, 0
2, 82200, Note_on_c, 0, 59, 127
2, 82316, Note_on_c, 0, 59, 0
2, 82320, Note_on_c, 0, 61, 127
2, 82436, Note_on_c, 0, 61, 0
2, 82440, Note_on_c, 0, 63, 127
2, 82556, Note_on_c, 0, 63, 0
2, 82560, Note_on_c, 0, 64, 80
2, 82919, Note_on_c, 0, 64, 0
2, 82920, Note_on_c, 0, 59, 127
2, 83036, Note_on_c, 0, 59, 0
2, 83040, Note_on_c, 0, 64, 127
2, 83516, Note_on_c, 0, 64, 0
2, 84120, Note_on_c, 0, 63, 127
2, 84176, Note_on_c, 0, 63, 0
2, 84180, Note_on_c, 0, 61, 80
2, 84239, Note_on_c, 0, 61, 0
2, 84240, Note_on_c, 0, 63, 127
2, 84356, Note_on_c, 0, 63, 0
2, 84360, Note_on_c, 0, 65, 127
2, 84476, Note_on_c, 0, 65, 0
2, 84480, Note_on_c, 0, 66, 80
2, 84839, Note_on_c, 0, 66, 0
2, 84840, Note_on_c, 0, 61, 127
2, 84956, Note_on_c, 0, 61, 0
2, 84960, Note_on_c, 0, 66, 127
2, 85436, Note_on_c, 0, 66, 0
2, 85920, Note_on_c, 0, 64, 127
2, 86219, Note_on_c, 0, 64, 0
2, 86220, Note_on_c, 0, 68, 127
2, 86276, Note_on_c, 0, 68, 0
2, 86280, Note_on_c, 0, 69, 127
2, 86336, Note_on_c, 0, 69, 0
2, 86340, Note_on_c, 0, 71, 127
2, 86396, Note_on_c, 0, 71, 0
2, 86400, Note_on_c, 0, 73, 127
2, 86876, Note_on_c, 0, 73, 0
2, 86880, Note_on_c, 0, 66, 127
2, 87356, Note_on_c, 0, 66, 0
2, 87840, Note_on_c, 0, 64, 80
2, 88199, Note_on_c, 0, 64, 0
2, 88200, Note_on_c, 0, 63, 127
2, 88256, Note_on_c, 0, 63, 0
2, 88260, Note_on_c, 0, 61, 80
2, 88319, Note_on_c, 0, 61, 0
2, 88320, Note_on_c, 0, 63, 127
2, 88796, Note_on_c, 0, 63, 0
2, 88800, Note_on_c, 0, 68, 80
2, 89159, Note_on_c, 0, 68, 0
2, 89160, Note_on_c, 0, 66, 127
2, 89276, Note_on_c, 0, 66, 0
2, 89280, Note_on_c, 0, 64, 80
2, 89639, Note_on_c, 0, 64, 0
2, 89640, Note_on_c, 0, 63, 127
2, 89756, Note_on_c, 0, 63, 0
2, 89760, Note_on_c, 0, 61, 80
2, 90119, Note_on_c, 0, 61, 0
2, 90120, Note_on_c, 0, 60, 127
2, 90236, Note_on_c, 0, 60, 0
2, 90240, Note_on_c, 0, 61, 127
2, 91559, Note_on_c, 0, 61, 0
2, 91560, Note_on_c, 0, 63, 127
2, 91676, Note_on_c, 0, 63, 0
2, 91680, Note_on_c, 0, 64, 80
2, 92039, Note_on_c, 0, 64, 0
2, 92040, Note_on_c, 0, 66, 127
2, 92156, Note_on_c, 0, 66, 0
2, 92160, Note_on_c, 0, 63, 127
2, 92636, Note_on_c, 0, 63, 0
2, 92940, Note_on_c, 0, 69, 127
2, 92996, Note_on_c, 0, 69, 0
2, 93000, Note_on_c, 0, 68, 127
2, 93056, Note_on_c, 0, 68, 0
2, 93060, Note_on_c, 0, 66, 127
2, 93116, Note_on_c, 0, 66, 0
2, 93120, Note_on_c, 0, 64, 80
2, 93479, Note_on_c, 0, 64, 0
2, 93480, Note_on_c, 0, 66, 127
2, 93596, Note_on_c, 0, 66, 0
2, 93600, Note_on_c, 0, 68, 127
2, 94559, Note_on_c, 0, 68, 0
2, 95340, Note_on_c, 0, 75, 127
2, 95396, Note_on_c, 0, 75, 0
2, 95400, Note_on_c, 0, 73, 127
2, 95456, Note_on_c, 0, 73, 0
2, 95460, Note_on_c, 0, 72, 127
2, 95516, Note_on_c, 0, 72, 0
2, 95520, Note_on_c, 0, 73, 127
2, 96779, Note_on_c, 0, 73, 0
2, 96780, Note_on_c, 0, 73, 127
2, 96836, Note_on_c, 0, 73, 0
2, 96840, Note_on_c, 0, 71, 127
2, 96896, Note_on_c, 0, 71, 0
2, 96900, Note_on_c, 0, 70, 127
2, 96956, Note_on_c, 0, 70, 0
2, 96960, Note_on_c, 0, 71, 127
2, 97436, Note_on_c, 0, 71, 0
2, 98220, Note_on_c, 0, 73, 127
2, 98276, Note_on_c, 0, 73, 0
2, 98280, Note_on_c, 0, 71, 127
2, 98336, Note_on_c, 0, 71, 0
2, 98340, Note_on_c, 0, 70, 127
2, 98396, Note_on_c, 0, 70, 0
2, 98400, Note_on_c, 0, 71, 127
2, 99659, Note_on_c, 0, 71, 0
2, 99660, Note_on_c, 0, 71, 127
2, 99716, Note_on_c, 0, 71, 0
2, 99720, Note_on_c, 0, 69, 127
2, 99776, Note_on_c, 0, 69, 0
2, 99780, Note_on_c, 0, 68, 127
2, 99836, Note_on_c, 0, 68, 0
2, 99840, Note_on_c, 0, 69, 127
2, 100316, Note_on_c, 0, 69, 0
2, 101100, Note_on_c, 0, 71, 127
2, 101156, Note_on_c, 0, 71, 0
2, 101160, Note_on_c, 0, 69, 127
2, 101216, Note_on_c, 0, 69, 0
2, 101220, Note_on_c, 0, 68, 127
2, 101276, Note_on_c, 0, 68, 0
2, 101280, Note_on_c, 0, 69, 127
2, 102539, Note_on_c, 0, 69, 0
2, 102540, Note_on_c, 0, 69, 127
2, 102596, Note_on_c, 0, 69, 0
2, 102600, Note_on_c, 0, 68, 127
2, 102656, Note_on_c, 0, 68, 0
2, 102660, Note_on_c, 0, 66, 127
2, 102716, Note_on_c, 0, 66, 0
2, 102720, Note_on_c, 0, 68, 127
2, 104039, Note_on_c, 0, 68, 0
2, 104040, Note_on_c, 0, 61, 127
2, 104156, Note_on_c, 0, 61, 0
2, 104160, Note_on_c, 0, 66, 80
2, 104519, Note_on_c, 0, 66, 0
2, 104520, Note_on_c, 0, 64, 127
2, 104636, Note_on_c, 0, 64, 0
2, 104640, Note_on_c, 0, 63, 80
2, 104999, Note_on_c, 0, 63, 0
2, 105000, Note_on_c, 0, 61, 127
2, 105116, Note_on_c, 0, 61, 0
2, 105120, Note_on_c, 0, 60, 127
2, 105596, Note_on_c, 0, 60, 0
2, 105600, Note_on_c, 0, 61, 127
2, 106679, Note_on_c, 0, 61, 0
2, 106680, Note_on_c, 0, 61, 127
2, 106796, Note_on_c, 0, 61, 0
2, 106800, Note_on_c, 0, 63, 127
2, 106916, Note_on_c, 0, 63, 0
2, 106920, Note_on_c, 0, 64, 127
2, 107036, Note_on_c, 0, 64, 0
2, 107040, Note_on_c, 0, 63, 127
2, 107156, Note_on_c, 0, 63, 0
2, 107160, Note_on_c, 0, 61, 127
2, 107276, Note_on_c, 0, 61, 0
2, 107280, Note_on_c, 0, 60, 127
2, 107396, Note_on_c, 0, 60, 0
2, 107400, Note_on_c, 0, 58, 127
2, 107516, Note_on_c, 0, 58, 0
2, 107520, Note_on_c, 0, 60, 127
2, 108119, Note_on_c, 0, 60, 0
2, 108120, Note_on_c, 0, 56, 127
2, 108236, Note_on_c, 0, 56, 0
2, 108240, Note_on_c, 0, 58, 127
2, 108356, Note_on_c, 0, 58, 0
2, 108360, Note_on_c, 0, 60, 127
2, 108476, Note_on_c, 0, 60, 0
2, 108480, Note_on_c, 0, 61, 80
2, 108839, Note_on_c, 0, 61, 0
2, 108840, Note_on_c, 0, 63, 127
2, 108956, Note_on_c, 0, 63, 0
2, 108960, Note_on_c, 0, 64, 80
2, 109319, Note_on_c, 0, 64, 0
2, 109320, Note_on_c, 0, 66, 127
2, 109436, Note_on_c, 0, 66, 0
2, 109440, Note_on_c, 0, 68, 127
2, 110396, Note_on_c, 0, 68, 0
2, 110400, Note_on_c, 0, 61, 80
2, 111119, Note_on_c, 0, 61, 0
2, 111120, Note_on_c, 0, 63, 127
2, 111356, Note_on_c, 0, 63, 0
2, 111360, Note_on_c, 0, 64, 80
2, 112079, Note_on_c, 0, 64, 0
2, 112080, Note_on_c, 0, 66, 127
2, 112316, Note_on_c, 0, 66, 0
2, 112320, Note_on_c, 0, 68, 127
2, 113276, Note_on_c, 0, 68, 0
2, 113280, Note_on_c, 0, 69, 127
2, 114236, Note_on_c, 0, 69, 0
2, 114240, Note_on_c, 0, 68, 80
2, 114959, Note_on_c, 0, 68, 0
2, 114960, Note_on_c, 0, 66, 127
2, 115196, Note_on_c, 0, 66, 0
2, 115200, Note_on_c, 0, 64, 127
2, 116519, Note_on_c, 0, 64, 0
2, 116520, Note_on_c, 0, 63, 127
2, 116636, Note_on_c, 0, 63, 0
2, 116640, Note_on_c, 0, 64, 80
2, 116999, Note_on_c, 0, 64, 0
2, 117000, Note_on_c, 0, 66, 127
2, 117116, Note_on_c, 0, 66, 0
2, 117120, Note_on_c, 0, 68, 127
2, 117719, Note_on_c, 0, 68, 0
2, 117720, Note_on_c, 0, 59, 127
2, 117836, Note_on_c, 0, 59, 0
2, 117840, Note_on_c, 0, 61, 127
2, 117956, Note_on_c, 0, 61, 0
2, 117960, Note_on_c, 0, 63, 127
2, 118076, Note_on_c, 0, 63, 0
2, 118080, Note_on_c, 0, 64, 127
2, 118196, Note_on_c, 0, 64, 0
2, 118200, Note_on_c, 0, 66, 127
2, 118316, Note_on_c, 0, 66, 0
2, 118320, Note_on_c, 0, 64, 127
2, 118436, Note_on_c, 0, 64, 0
2, 118440, Note_on_c, 0, 63, 127
2, 118556, Note_on_c, 0, 63, 0
2, 118560, Note_on_c, 0, 61, 127
2, 118676, Note_on_c, 0, 61, 0
2, 118680, Note_on_c, 0, 64, 127
2, 118796, Note_on_c, 0, 64, 0
2, 118800, Note_on_c, 0, 66, 127
2, 118916, Note_on_c, 0, 66, 0
2, 118920, Note_on_c, 0, 68, 127
2, 119036, Note_on_c, 0, 68, 0
2, 119040, Note_on_c, 0, 69, 127
2, 119156, Note_on_c, 0, 69, 0
2, 119160, Note_on_c, 0, 71, 127
2, 119276, Note_on_c, 0, 71, 0
2, 119280, Note_on_c, 0, 69, 127
2, 119396, Note_on_c, 0, 69, 0
2, 119400, Note_on_c, 0, 68, 127
2, 119516, Note_on_c, 0, 68, 0
2, 119520, Note_on_c, 0, 66, 127
2, 119636, Note_on_c, 0, 66, 0
2, 119640, Note_on_c, 0, 54, 127
2, 119756, Note_on_c, 0, 54, 0
2, 119760, Note_on_c, 0, 56, 127
2, 119876, Note_on_c, 0, 56, 0
2, 119880, Note_on_c, 0, 57, 127
2, 119996, Note_on_c, 0, 57, 0
2, 120000, Note_on_c, 0, 59, 127
2, 120116, Note_on_c, 0, 59, 0
2, 120120, Note_on_c, 0, 61, 127
2, 120236, Note_on_c, 0, 61, 0
2, 120240, Note_on_c, 0, 59, 127
2, 120356, Note_on_c, 0, 59, 0
2, 120360, Note_on_c, 0, 57, 127
2, 120476, Note_on_c, 0, 57, 0
2, 120480, Note_on_c, 0, 56, 127
2, 120596, Note_on_c, 0, 56, 0
2, 120600, Note_on_c, 0, 57, 127
2, 120716, Note_on_c, 0, 57, 0
2, 120720, Note_on_c, 0, 56, 127
2, 120836, Note_on_c, 0, 56, 0
2, 120840, Note_on_c, 0, 54, 127
2, 120956, Note_on_c, 0, 54, 0
2, 120960, Note_on_c, 0, 52, 127
2, 121259, Note_on_c, 0, 52, 0
2, 121260, Note_on_c, 0, 56, 127
2, 121316, Note_on_c, 0, 56, 0
2, 121320, Note_on_c, 0, 58, 127
2, 121376, Note_on_c, 0, 58, 0
2, 121380, Note_on_c, 0, 60, 127
2, 121436, Note_on_c, 0, 60, 0
2, 121440, Note_on_c, 0, 61, 127
2, 122279, Note_on_c, 0, 61, 0
2, 122280, Note_on_c, 0, 60, 127
2, 122396, Note_on_c, 0, 60, 0
2, 122400, Note_on_c, 0, 61, 80
2, 122759, Note_on_c, 0, 61, 0
2, 122760, Note_on_c, 0, 63, 127
2, 122876, Note_on_c, 0, 63, 0
2, 122880, Note_on_c, 0, 64, 127
2, 123356, Note_on_c, 0, 64, 0
2, 123840, Note_on_c, 0, 61, 127
2, 124316, Note_on_c, 0, 61, 0
2, 124320, Note_on_c, 0, 68, 80
2, 124679, Note_on_c, 0, 68, 0
2, 124680, Note_on_c, 0, 66, 127
2, 124796, Note_on_c, 0, 66, 0
2, 124800, Note_on_c, 0, 64, 80
2, 125159, Note_on_c, 0, 64, 0
2, 125160, Note_on_c, 0, 63, 127
2, 125276, Note_on_c, 0, 63, 0
2, 125280, Note_on_c, 0, 61, 127
2, 125756, Note_on_c, 0, 61, 0
2, 125760, Note_on_c, 0, 60, 127
2, 126236, Note_on_c, 0, 60, 0
2, 126240, Note_on_c, 0, 61, 80
2, 126599, Note_on_c, 0, 61, 0
2, 126600, Note_on_c, 0, 63, 127
2, 126716, Note_on_c, 0, 63, 0
2, 126720, Note_on_c, 0, 64, 127
2, 127319, Note_on_c, 0, 64, 0
2, 127320, Note_on_c, 0, 66, 127
2, 127436, Note_on_c, 0, 66, 0
2, 127440, Note_on_c, 0, 64, 127
2, 127556, Note_on_c, 0, 64, 0
2, 127560, Note_on_c, 0, 63, 127
2, 127676, Note_on_c, 0, 63, 0
2, 127680, Note_on_c, 0, 61, 80
2, 128039, Note_on_c, 0, 61, 0
2, 128040, Note_on_c, 0, 56, 127
2, 128156, Note_on_c, 0, 56, 0
2, 128160, Note_on_c, 0, 57, 80
2, 128519, Note_on_c, 0, 57, 0
2, 128520, Note_on_c, 0, 59, 127
2, 128636, Note_on_c, 0, 59, 0
2, 128640, Note_on_c, 0, 61, 127
2, 129959, Note_on_c, 0, 61, 0
2, 129960, Note_on_c, 0, 56, 127
2, 130076, Note_on_c, 0, 56, 0
2, 130080, Note_on_c, 0, 61, 80
2, 130439, Note_on_c, 0, 61, 0
2, 130440, Note_on_c, 0, 59, 127
2, 130556, Note_on_c, 0, 59, 0
2, 130560, Note_on_c, 0, 57, 80
2, 130919, Note_on_c, 0, 57, 0
2, 130920, Note_on_c, 0, 56, 127
2, 131036, Note_on_c, 0, 56, 0
2, 131040, Note_on_c, 0, 57, 127
2, 131879, Note_on_c, 0, 57, 0
2, 131880, Note_on_c, 0, 54, 127
2, 131996, Note_on_c, 0, 54, 0
2, 132000, Note_on_c, 0, 59, 80
2, 132359, Note_on_c, 0, 59, 0
2, 132360, Note_on_c, 0, 57, 127
2, 132476, Note_on_c, 0, 57, 0
2, 132480, Note_on_c, 0, 56, 80
2, 132839, Note_on_c, 0, 56, 0
2, 132840, Note_on_c, 0, 54, 127
2, 132956, Note_on_c, 0, 54, 0
2, 132960, Note_on_c, 0, 56, 127
2, 133916, Note_on_c, 0, 56, 0
2, 133920, Note_on_c, 0, 54, 80
2, 134279, Note_on_c, 0, 54, 0
2, 134280, Note_on_c, 0, 61, 127
2, 134396, Note_on_c, 0, 61, 0
2, 134400, Note_on_c, 0, 59, 80
2, 134759, Note_on_c, 0, 59, 0
2, 134760, Note_on_c, 0, 63, 127
2, 134876, Note_on_c, 0, 63, 0
2, 134880, Note_on_c, 0, 64, 80
2, 135239, Note_on_c, 0, 64, 0
2, 135240, Note_on_c, 0, 66, 127
2, 135356, Note_on_c, 0, 66, 0
2, 135360, Note_on_c, 0, 64, 80
2, 135719, Note_on_c, 0, 64, 0
2, 135720, Note_on_c, 0, 66, 127
2, 135836, Note_on_c, 0, 66, 0
2, 135840, Note_on_c, 0, 68, 127
2, 136679, Note_on_c, 0, 68, 0
2, 136680, Note_on_c, 0, 65, 127
2, 136796, Note_on_c, 0, 65, 0
2, 136800, Note_on_c, 0, 66, 80
2, 137159, Note_on_c, 0, 66, 0
2, 137160, Note_on_c, 0, 68, 127
2, 137276, Note_on_c, 0, 68, 0
2, 137280, Note_on_c, 0, 69, 80
2, 137999, Note_on_c, 0, 69, 0
2, 138120, Note_on_c, 0, 69, 127
2, 138236, Note_on_c, 0, 69, 0
2, 138240, Note_on_c, 0, 63, 127
2, 138716, Note_on_c, 0, 63, 0
2, 138960, Note_on_c, 0, 72, 127
2, 139196, Note_on_c, 0, 72, 0
2, 139200, Note_on_c, 0, 73, 127
2, 139436, Note_on_c, 0, 73, 0
2, 140040, Note_on_c, 0, 63, 127
2, 140156, Note_on_c, 0, 63, 0
2, 140160, Note_on_c, 0, 64, 80
2, 140519, Note_on_c, 0, 64, 0
2, 140520, Note_on_c, 0, 66, 127
2, 140636, Note_on_c, 0, 66, 0
2, 140640, Note_on_c, 0, 63, 127
2, 140879, Note_on_c, 0, 63, 0
2, 140880, Note_on_c, 0, 66, 80
2, 141419, Note_on_c, 0, 66, 0
2, 141420, Note_on_c, 0, 66, 127
2, 141476, Note_on_c, 0, 66, 0
2, 141480, Note_on_c, 0, 65, 127
2, 141536, Note_on_c, 0, 65, 0
2, 141540, Note_on_c, 0, 63, 127
2, 141596, Note_on_c, 0, 63, 0
2, 141600, Note_on_c, 0, 65, 80
2, 141959, Note_on_c, 0, 65, 0
2, 141960, Note_on_c, 0, 68, 127
2, 142076, Note_on_c, 0, 68, 0
2, 142080, Note_on_c, 0, 61, 80
2, 142439, Note_on_c, 0, 61, 0
2, 142440, Note_on_c, 0, 59, 127
2, 142556, Note_on_c, 0, 59, 0
2, 142560, Note_on_c, 0, 57, 80
2, 142919, Note_on_c, 0, 57, 0
2, 142920, Note_on_c, 0, 62, 127
2, 143036, Note_on_c, 0, 62, 0
2, 143040, Note_on_c, 0, 56, 127
2, 143339, Note_on_c, 0, 56, 0
2, 143340, Note_on_c, 0, 68, 127
2, 143396, Note_on_c, 0, 68, 0
2, 143400, Note_on_c, 0, 69, 127
2, 143456, Note_on_c, 0, 69, 0
2, 143460, Note_on_c, 0, 71, 127
2, 143516, Note_on_c, 0, 71, 0
2, 143520, Note_on_c, 0, 69, 127
2, 143636, Note_on_c, 0, 69, 0
2, 143640, Note_on_c, 0, 68, 127
2, 143756, Note_on_c, 0, 68, 0
2, 143760, Note_on_c, 0, 66, 127
2, 143876, Note_on_c, 0, 66, 0
2, 143880, Note_on_c, 0, 65, 127
2, 143996, Note_on_c, 0, 65, 0
2, 144000, Note_on_c, 0, 66, 80
2, 144359, Note_on_c, 0, 66, 0
2, 144360, Note_on_c, 0, 61, 127
2, 144476, Note_on_c, 0, 61, 0
2, 144480, Note_on_c, 0, 63, 80
2, 144839, Note_on_c, 0, 63, 0
2, 144840, Note_on_c, 0, 65, 127
2, 144956, Note_on_c, 0, 65, 0
2, 144960, Note_on_c, 0, 66, 127
2, 145436, Note_on_c, 0, 66, 0
2, 145440, Note_on_c, 0, 73, 80
2, 145799, Note_on_c, 0, 73, 0
2, 145800, Note_on_c, 0, 71, 127
2, 145916, Note_on_c, 0, 71, 0
2, 145920, Note_on_c, 0, 69, 80
2, 146279, Note_on_c, 0, 69, 0
2, 146280, Note_on_c, 0, 68, 127
2, 146396, Note_on_c, 0, 68, 0
2, 146400, Note_on_c, 0, 66, 127
2, 146876, Note_on_c, 0, 66, 0
2, 146880, Note_on_c, 0, 65, 127
2, 147356, Note_on_c, 0, 65, 0
2, 147360, Note_on_c, 0, 66, 80
2, 147719, Note_on_c, 0, 66, 0
2, 147720, Note_on_c, 0, 68, 127
2, 147836, Note_on_c, 0, 68, 0
2, 147840, Note_on_c, 0, 69, 127
2, 148439, Note_on_c, 0, 69, 0
2, 148440, Note_on_c, 0, 71, 127
2, 148556, Note_on_c, 0, 71, 0
2, 148560, Note_on_c, 0, 69, 127
2, 148676, Note_on_c, 0, 69, 0
2, 148680, Note_on_c, 0, 68, 127
2, 148796, Note_on_c, 0, 68, 0
2, 148800, Note_on_c, 0, 66, 127
2, 149399, Note_on_c, 0, 66, 0
2, 149400, Note_on_c, 0, 68, 127
2, 149516, Note_on_c, 0, 68, 0
2, 149520, Note_on_c, 0, 66, 127
2, 149636, Note_on_c, 0, 66, 0
2, 149640, Note_on_c, 0, 65, 127
2, 149756, Note_on_c, 0, 65, 0
2, 149760, Note_on_c, 0, 63, 127
2, 149996, Note_on_c, 0, 63, 0
2, 150600, Note_on_c, 0, 66, 127
2, 150716, Note_on_c, 0, 66, 0
2, 150720, Note_on_c, 0, 68, 127
2, 151676, Note_on_c, 0, 68, 0
2, 151677, End_track
3, 0, Start_track
3, 0, Key_signature, 4, "major"
3, 0, Program_c, 1, 46
3, 2, Control_c, 1, 7, 100
3, 4, Control_c, 1, 10, 64
3, 6, Control_c, 1, 91, 30
3, 8, Control_c, 1, 93, 30
3, 11520, Note_on_c, 1, 61, 127
3, 11996, Note_on_c, 1, 61, 0
3, 12000, Note_on_c, 1, 56, 80
3, 12359, Note_on_c, 1, 56, 0
3, 12360, Note_on_c, 1, 58, 127
3, 12476, Note_on_c, 1, 58, 0
3, 12480, Note_on_c, 1, 59, 80
3, 12839, Note_on_c, 1, 59, 0
3, 12840, Note_on_c, 1, 61, 127
3, 12956, Note_on_c, 1, 61, 0
3, 12960, Note_on_c, 1, 63, 127
3, 13436, Note_on_c, 1, 63, 0
3, 13440, Note_on_c, 1, 64, 127
3, 13916, Note_on_c, 1, 64, 0
3, 13920, Note_on_c, 1, 63, 80
3, 14279, Note_on_c, 1, 63, 0
3, 14280, Note_on_c, 1, 61, 127
3, 14396, Note_on_c, 1, 61, 0
3, 14400, Note_on_c, 1, 59, 127
3, 14999, Note_on_c, 1, 59, 0
3, 15000, Note_on_c, 1, 58, 127
3, 15116, Note_on_c, 1, 58, 0
3, 15120, Note_on_c, 1, 59, 127
3, 15236, Note_on_c, 1, 59, 0
3, 15240, Note_on_c, 1, 61, 127
3, 15356, Note_on_c, 1, 61, 0
3, 15360, Note_on_c, 1, 63, 80
3, 16799, Note_on_c, 1, 63, 0
3, 16800, Note_on_c, 1, 61, 127
3, 17639, Note_on_c, 1, 61, 0
3, 17640, Note_on_c, 1, 58, 127
3, 17756, Note_on_c, 1, 58, 0
3, 17760, Note_on_c, 1, 63, 80
3, 18119, Note_on_c, 1, 63, 0
3, 18120, Note_on_c, 1, 61, 127
3, 18236, Note_on_c, 1, 61, 0
3, 18240, Note_on_c, 1, 59, 80
3, 18599, Note_on_c, 1, 59, 0
3, 18600, Note_on_c, 1, 61, 127
3, 18716, Note_on_c, 1, 61, 0
3, 18720, Note_on_c, 1, 59, 80
3, 19079, Note_on_c, 1, 59, 0
3, 19080, Note_on_c, 1, 58, 127
3, 19196, Note_on_c, 1, 58, 0
3, 19200, Note_on_c, 1, 56, 80
3, 19559, Note_on_c, 1, 56, 0
3, 19560, Note_on_c, 1, 63, 127
3, 20036, Note_on_c, 1, 63, 0
3, 20040, Note_on_c, 1, 62, 127
3, 20156, Note_on_c, 1, 62, 0
3, 20160, Note_on_c, 1, 63, 80
3, 20519, Note_on_c, 1, 63, 0
3, 20520, Note_on_c, 1, 58, 127
3, 20636, Note_on_c, 1, 58, 0
3, 20640, Note_on_c, 1, 59, 80
3, 20999, Note_on_c, 1, 59, 0
3, 21000, Note_on_c, 1, 55, 127
3, 21116, Note_on_c, 1, 55, 0
3, 21120, Note_on_c, 1, 56, 80
3, 21479, Note_on_c, 1, 56, 0
3, 21480, Note_on_c, 1, 51, 127
3, 21596, Note_on_c, 1, 51, 0
3, 21600, Note_on_c, 1, 52, 127
3, 22199, Note_on_c, 1, 52, 0
3, 22200, Note_on_c, 1, 54, 127
3, 22316, Note_on_c, 1, 54, 0
3, 22320, Note_on_c, 1, 52, 127
3, 22436, Note_on_c, 1, 52, 0
3, 22440, Note_on_c, 1, 51, 127
3, 22556, Note_on_c, 1, 51, 0
3, 22560, Note_on_c, 1, 49, 127
3, 23339, Note_on_c, 1, 49, 0
3, 23340, Note_on_c, 1, 56, 127
3, 23396, Note_on_c, 1, 56, 0
3, 23400, Note_on_c, 1, 57, 127
3, 23456, Note_on_c, 1, 57, 0
3, 23460, Note_on_c, 1, 59, 127
3, 23516, Note_on_c, 1, 59, 0
3, 23520, Note_on_c, 1, 61, 80
3, 23879, Note_on_c, 1, 61, 0
3, 23880, Note_on_c, 1, 59, 127
3, 23996, Note_on_c, 1, 59, 0
3, 24000, Note_on_c, 1, 57, 80
3, 24359, Note_on_c, 1, 57, 0
3, 24360, Note_on_c, 1, 59, 127
3, 24476, Note_on_c, 1, 59, 0
3, 24480, Note_on_c, 1, 57, 80
3, 24839, Note_on_c, 1, 57, 0
3, 24840, Note_on_c, 1, 56, 127
3, 24956, Note_on_c, 1, 56, 0
3, 24960, Note_on_c, 1, 54, 127
3, 25259, Note_on_c, 1, 54, 0
3, 25260, Note_on_c, 1, 61, 127
3, 25316, Note_on_c, 1, 61, 0
3, 25320, Note_on_c, 1, 63, 127
3, 25376, Note_on_c, 1, 63, 0
3, 25380, Note_on_c, 1, 64, 127
3, 25436, Note_on_c, 1, 64, 0
3, 25440, Note_on_c, 1, 66, 80
3, 25799, Note_on_c, 1, 66, 0
3, 25800, Note_on_c, 1, 64, 127
3, 25916, Note_on_c, 1, 64, 0
3, 25920, Note_on_c, 1, 63, 80
3, 26279, Note_on_c, 1, 63, 0
3, 26280, Note_on_c, 1, 64, 127
3, 26396, Note_on_c, 1, 64, 0
3, 26400, Note_on_c, 1, 63, 80
3, 26759, Note_on_c, 1, 63, 0
3, 26760, Note_on_c, 1, 61, 127
3, 26876, Note_on_c, 1, 61, 0
3, 26880, Note_on_c, 1, 60, 127
3, 27356, Note_on_c, 1, 60, 0
3, 27360, Note_on_c, 1, 56, 127
3, 27836, Note_on_c, 1, 56, 0
3, 28800, Note_on_c, 1, 61, 127
3, 29756, Note_on_c, 1, 61, 0
3, 29760, Note_on_c, 1, 68, 127
3, 30479, Note_on_c, 1, 68, 0
3, 30480, Note_on_c, 1, 66, 127
3, 30716, Note_on_c, 1, 66, 0
3, 30720, Note_on_c, 1, 64, 127
3, 31439, Note_on_c, 1, 64, 0
3, 31440, Note_on_c, 1, 63, 127
3, 31676, Note_on_c, 1, 63, 0
3, 31680, Note_on_c, 1, 61, 127
3, 32636, Note_on_c, 1, 61, 0
3, 32640, Note_on_c, 1, 60, 127
3, 33596, Note_on_c, 1, 60, 0
3, 33600, Note_on_c, 1, 61, 80
3, 34319, Note_on_c, 1, 61, 0
3, 34320, Note_on_c, 1, 63, 127
3, 34556, Note_on_c, 1, 63, 0
3, 34560, Note_on_c, 1, 64, 127
3, 35879, Note_on_c, 1, 64, 0
3, 35880, Note_on_c, 1, 66, 127
3, 35996, Note_on_c, 1, 66, 0
3, 36000, Note_on_c, 1, 64, 80
3, 36359, Note_on_c, 1, 64, 0
3, 36360, Note_on_c, 1, 63, 127
3, 36476, Note_on_c, 1, 63, 0
3, 36480, Note_on_c, 1, 61, 127
3, 36956, Note_on_c, 1, 61, 0
3, 37440, Note_on_c, 1, 59, 127
3, 38396, Note_on_c, 1, 59, 0
3, 38400, Note_on_c, 1, 52, 80
3, 39119, Note_on_c, 1, 52, 0
3, 39120, Note_on_c, 1, 54, 127
3, 39356, Note_on_c, 1, 54, 0
3, 39360, Note_on_c, 1, 56, 80
3, 40079, Note_on_c, 1, 56, 0
3, 40080, Note_on_c, 1, 57, 127
3, 40316, Note_on_c, 1, 57, 0
3, 40320, Note_on_c, 1, 59, 127
3, 41276, Note_on_c, 1, 59, 0
3, 41280, Note_on_c, 1, 61, 127
3, 42236, Note_on_c, 1, 61, 0
3, 42240, Note_on_c, 1, 59, 80
3, 42959, Note_on_c, 1, 59, 0
3, 42960, Note_on_c, 1, 57, 127
3, 43196, Note_on_c, 1, 57, 0
3, 43200, Note_on_c, 1, 56, 127
3, 44519, Note_on_c, 1, 56, 0
3, 44520, Note_on_c, 1, 54, 127
3, 44636, Note_on_c, 1, 54, 0
3, 44640, Note_on_c, 1, 56, 80
3, 44999, Note_on_c, 1, 56, 0
3, 45000, Note_on_c, 1, 58, 127
3, 45116, Note_on_c, 1, 58, 0
3, 45120, Note_on_c, 1, 59, 127
3, 45596, Note_on_c, 1, 59, 0
3, 48000, Note_on_c, 1, 59, 127
3, 48476, Note_on_c, 1, 59, 0
3, 48480, Note_on_c, 1, 52, 80
3, 48839, Note_on_c, 1, 52, 0
3, 48840, Note_on_c, 1, 54, 127
3, 48956, Note_on_c, 1, 54, 0
3, 48960, Note_on_c, 1, 56, 80
3, 49319, Note_on_c, 1, 56, 0
3, 49320, Note_on_c, 1, 57, 127
3, 49436, Note_on_c, 1, 57, 0
3, 49440, Note_on_c, 1, 59, 127
3, 49916, Note_on_c, 1, 59, 0
3, 49920, Note_on_c, 1, 60, 127
3, 50396, Note_on_c, 1, 60, 0
3, 50400, Note_on_c, 1, 59, 80
3, 50759, Note_on_c, 1, 59, 0
3, 50760, Note_on_c, 1, 57, 127
3, 50876, Note_on_c, 1, 57, 0
3, 50880, Note_on_c, 1, 56, 127
3, 51479, Note_on_c, 1, 56, 0
3, 51480, Note_on_c, 1, 54, 127
3, 51596, Note_on_c, 1, 54, 0
3, 51600, Note_on_c, 1, 56, 127
3, 51716, Note_on_c, 1, 56, 0
3, 51720, Note_on_c, 1, 57, 127
3, 51836, Note_on_c, 1, 57, 0
3, 51840, Note_on_c, 1, 59, 127
3, 52439, Note_on_c, 1, 59, 0
3, 52440, Note_on_c, 1, 58, 127
3, 52556, Note_on_c, 1, 58, 0
3, 52560, Note_on_c, 1, 59, 127
3, 52676, Note_on_c, 1, 59, 0
3, 52680, Note_on_c, 1, 61, 127
3, 52796, Note_on_c, 1, 61, 0
3, 52800, Note_on_c, 1, 63, 127
3, 53276, Note_on_c, 1, 63, 0
3, 57600, Note_on_c, 1, 49, 127
3, 58556, Note_on_c, 1, 49, 0
3, 58560, Note_on_c, 1, 56, 80
3, 59279, Note_on_c, 1, 56, 0
3, 59280, Note_on_c, 1, 54, 127
3, 59516, Note_on_c, 1, 54, 0
3, 59520, Note_on_c, 1, 52, 80
3, 60239, Note_on_c, 1, 52, 0
3, 60240, Note_on_c, 1, 51, 127
3, 60476, Note_on_c, 1, 51, 0
3, 60480, Note_on_c, 1, 49, 127
3, 61436, Note_on_c, 1, 49, 0
3, 61440, Note_on_c, 1, 48, 127
3, 62396, Note_on_c, 1, 48, 0
3, 62400, Note_on_c, 1, 49, 127
3, 63119, Note_on_c, 1, 49, 0
3, 63120, Note_on_c, 1, 51, 127
3, 63356, Note_on_c, 1, 51, 0
3, 63360, Note_on_c, 1, 52, 127
3, 64679, Note_on_c, 1, 52, 0
3, 64680, Note_on_c, 1, 54, 127
3, 64796, Note_on_c, 1, 54, 0
3, 64800, Note_on_c, 1, 52, 80
3, 65159, Note_on_c, 1, 52, 0
3, 65160, Note_on_c, 1, 50, 127
3, 65276, Note_on_c, 1, 50, 0
3, 65280, Note_on_c, 1, 49, 80
3, 65639, Note_on_c, 1, 49, 0
3, 65640, Note_on_c, 1, 53, 127
3, 65756, Note_on_c, 1, 53, 0
3, 65760, Note_on_c, 1, 54, 80
3, 66119, Note_on_c, 1, 54, 0
3, 66120, Note_on_c, 1, 56, 127
3, 66236, Note_on_c, 1, 56, 0
3, 66240, Note_on_c, 1, 57, 127
3, 66716, Note_on_c, 1, 57, 0
3, 66720, Note_on_c, 1, 59, 127
3, 67196, Note_on_c, 1, 59, 0
3, 67200, Note_on_c, 1, 61, 127
3, 67799, Note_on_c, 1, 61, 0
3, 67800, Note_on_c, 1, 59, 127
3, 67916, Note_on_c, 1, 59, 0
3, 67920, Note_on_c, 1, 57, 127
3, 68036, Note_on_c, 1, 57, 0
3, 68040, Note_on_c, 1, 56, 127
3, 68156, Note_on_c, 1, 56, 0
3, 68160, Note_on_c, 1, 54, 127
3, 68636, Note_on_c, 1, 54, 0
3, 70080, Note_on_c, 1, 61, 127
3, 70556, Note_on_c, 1, 61, 0
3, 70560, Note_on_c, 1, 54, 80
3, 70919, Note_on_c, 1, 54, 0
3, 70920, Note_on_c, 1, 56, 127
3, 71036, Note_on_c, 1, 56, 0
3, 71040, Note_on_c, 1, 57, 80
3, 71399, Note_on_c, 1, 57, 0
3, 71400, Note_on_c, 1, 59, 127
3, 71516, Note_on_c, 1, 59, 0
3, 71520, Note_on_c, 1, 61, 127
3, 71996, Note_on_c, 1, 61, 0
3, 72000, Note_on_c, 1, 62, 127
3, 72476, Note_on_c, 1, 62, 0
3, 72480, Note_on_c, 1, 61, 80
3, 72839, Note_on_c, 1, 61, 0
3, 72840, Note_on_c, 1, 59, 127
3, 72956, Note_on_c, 1, 59, 0
3, 72960, Note_on_c, 1, 57, 127
3, 73559, Note_on_c, 1, 57, 0
3, 73560, Note_on_c, 1, 56, 127
3, 73676, Note_on_c, 1, 56, 0
3, 73680, Note_on_c, 1, 57, 127
3, 73796, Note_on_c, 1, 57, 0
3, 73800, Note_on_c, 1, 59, 127
3, 73916, Note_on_c, 1, 59, 0
3, 73920, Note_on_c, 1, 61, 127
3, 74519, Note_on_c, 1, 61, 0
3, 74520, Note_on_c, 1, 54, 127
3, 74636, Note_on_c, 1, 54, 0
3, 74640, Note_on_c, 1, 56, 127
3, 74756, Note_on_c, 1, 56, 0
3, 74760, Note_on_c, 1, 58, 127
3, 74876, Note_on_c, 1, 58, 0
3, 74880, Note_on_c, 1, 59, 127
3, 75356, Note_on_c, 1, 59, 0
3, 90240, Note_on_c, 1, 49, 127
3, 90716, Note_on_c, 1, 49, 0
3, 90720, Note_on_c, 1, 56, 80
3, 91079, Note_on_c, 1, 56, 0
3, 91080, Note_on_c, 1, 54, 127
3, 91196, Note_on_c, 1, 54, 0
3, 91200, Note_on_c, 1, 52, 80
3, 91559, Note_on_c, 1, 52, 0
3, 91560, Note_on_c, 1, 51, 127
3, 91676, Note_on_c, 1, 51, 0
3, 91680, Note_on_c, 1, 49, 127
3, 92156, Note_on_c, 1, 49, 0
3, 92160, Note_on_c, 1, 48, 127
3, 92636, Note_on_c, 1, 48, 0
3, 92640, Note_on_c, 1, 49, 80
3, 92999, Note_on_c, 1, 49, 0
3, 93000, Note_on_c, 1, 51, 127
3, 93116, Note_on_c, 1, 51, 0
3, 93120, Note_on_c, 1, 52, 127
3, 93719, Note_on_c, 1, 52, 0
3, 93720, Note_on_c, 1, 54, 127
3, 93836, Note_on_c, 1, 54, 0
3, 93840, Note_on_c, 1, 52, 127
3, 93956, Note_on_c, 1, 52, 0
3, 93960, Note_on_c, 1, 51, 127
3, 94076, Note_on_c, 1, 51, 0
3, 94080, Note_on_c, 1, 49, 80
3, 94439, Note_on_c, 1, 49, 0
3, 94440, Note_on_c, 1, 48, 127
3, 94556, Note_on_c, 1, 48, 0
3, 94560, Note_on_c, 1, 49, 80
3, 94919, Note_on_c, 1, 49, 0
3, 94920, Note_on_c, 1, 51, 127
3, 95036, Note_on_c, 1, 51, 0
3, 95040, Note_on_c, 1, 52, 127
3, 95276, Note_on_c, 1, 52, 0
3, 96300, Note_on_c, 1, 51, 127
3, 96356, Note_on_c, 1, 51, 0
3, 96360, Note_on_c, 1, 53, 127
3, 96416, Note_on_c, 1, 53, 0
3, 96420, Note_on_c, 1, 55, 127
3, 96476, Note_on_c, 1, 55, 0
3, 96480, Note_on_c, 1, 56, 127
3, 97199, Note_on_c, 1, 56, 0
3, 99180, Note_on_c, 1, 49, 127
3, 99236, Note_on_c, 1, 49, 0
3, 99240, Note_on_c, 1, 51, 127
3, 99296, Note_on_c, 1, 51, 0
3, 99300, Note_on_c, 1, 53, 127
3, 99356, Note_on_c, 1, 53, 0
3, 99360, Note_on_c, 1, 54, 127
3, 100079, Note_on_c, 1, 54, 0
3, 102060, Note_on_c, 1, 47, 127
3, 102116, Note_on_c, 1, 47, 0
3, 102120, Note_on_c, 1, 49, 127
3, 102176, Note_on_c, 1, 49, 0
3, 102180, Note_on_c, 1, 51, 127
3, 102236, Note_on_c, 1, 51, 0
3, 102240, Note_on_c, 1, 52, 127
3, 102839, Note_on_c, 1, 52, 0
3, 102840, Note_on_c, 1, 54, 127
3, 102956, Note_on_c, 1, 54, 0
3, 102960, Note_on_c, 1, 52, 127
3, 103076, Note_on_c, 1, 52, 0
3, 103080, Note_on_c, 1, 51, 127
3, 103196, Note_on_c, 1, 51, 0
3, 103200, Note_on_c, 1, 49, 127
3, 103316, Note_on_c, 1, 49, 0
3, 103320, Note_on_c, 1, 52, 127
3, 103436, Note_on_c, 1, 52, 0
3, 103440, Note_on_c, 1, 54, 127
3, 103556, Note_on_c, 1, 54, 0
3, 103560, Note_on_c, 1, 56, 127
3, 103676, Note_on_c, 1, 56, 0
3, 103680, Note_on_c, 1, 57, 127
3, 103796, Note_on_c, 1, 57, 0
3, 103800, Note_on_c, 1, 59, 127
3, 103916, Note_on_c, 1, 59, 0
3, 103920, Note_on_c, 1, 57, 127
3, 104036, Note_on_c, 1, 57, 0
3, 104040, Note_on_c, 1, 56, 127
3, 104156, Note_on_c, 1, 56, 0
3, 104160, Note_on_c, 1, 54, 127
3, 104276, Note_on_c, 1, 54, 0
3, 104280, Note_on_c, 1, 52, 127
3, 104396, Note_on_c, 1, 52, 0
3, 104400, Note_on_c, 1, 51, 127
3, 104516, Note_on_c, 1, 51, 0
3, 104520, Note_on_c, 1, 49, 127
3, 104636, Note_on_c, 1, 49, 0
3, 104640, Note_on_c, 1, 48, 127
3, 104756, Note_on_c, 1, 48, 0
3, 104760, Note_on_c, 1, 54, 127
3, 104876, Note_on_c, 1, 54, 0
3, 104880, Note_on_c, 1, 56, 127
3, 104996, Note_on_c, 1, 56, 0
3, 105000, Note_on_c, 1, 57, 127
3, 105116, Note_on_c, 1, 57, 0
3, 105120, Note_on_c, 1, 56, 127
3, 105236, Note_on_c, 1, 56, 0
3, 105240, Note_on_c, 1, 54, 127
3, 105356, Note_on_c, 1, 54, 0
3, 105360, Note_on_c, 1, 52, 127
3, 105476, Note_on_c, 1, 52, 0
3, 105480, Note_on_c, 1, 51, 127
3, 105596, Note_on_c, 1, 51, 0
3, 105600, Note_on_c, 1, 49, 127
3, 105716, Note_on_c, 1, 49, 0
3, 105720, Note_on_c, 1, 56, 127
3, 105836, Note_on_c, 1, 56, 0
3, 105840, Note_on_c, 1, 57, 127
3, 105956, Note_on_c, 1, 57, 0
3, 105960, Note_on_c, 1, 59, 127
3, 106076, Note_on_c, 1, 59, 0
3, 106080, Note_on_c, 1, 57, 127
3, 106196, Note_on_c, 1, 57, 0
3, 106200, Note_on_c, 1, 56, 127
3, 106316, Note_on_c, 1, 56, 0
3, 106320, Note_on_c, 1, 54, 127
3, 106436, Note_on_c, 1, 54, 0
3, 106440, Note_on_c, 1, 53, 127
3, 106556, Note_on_c, 1, 53, 0
3, 106560, Note_on_c, 1, 54, 127
3, 107639, Note_on_c, 1, 54, 0
3, 107640, Note_on_c, 1, 57, 127
3, 107756, Note_on_c, 1, 57, 0
3, 107760, Note_on_c, 1, 56, 127
3, 107876, Note_on_c, 1, 56, 0
3, 107880, Note_on_c, 1, 54, 127
3, 107996, Note_on_c, 1, 54, 0
3, 108000, Note_on_c, 1, 52, 127
3, 108956, Note_on_c, 1, 52, 0
3, 108960, Note_on_c, 1, 57, 127
3, 109436, Note_on_c, 1, 57, 0
3, 109440, Note_on_c, 1, 56, 127
3, 109916, Note_on_c, 1, 56, 0
3, 110400, Note_on_c, 1, 61, 127
3, 110876, Note_on_c, 1, 61, 0
3, 110880, Note_on_c, 1, 68, 80
3, 111239, Note_on_c, 1, 68, 0
3, 111240, Note_on_c, 1, 66, 127
3, 111356, Note_on_c, 1, 66, 0
3, 111360, Note_on_c, 1, 64, 80
3, 111719, Note_on_c, 1, 64, 0
3, 111720, Note_on_c, 1, 63, 127
3, 111836, Note_on_c, 1, 63, 0
3, 111840, Note_on_c, 1, 61, 127
3, 112316, Note_on_c, 1, 61, 0
3, 112320, Note_on_c, 1, 60, 127
3, 112796, Note_on_c, 1, 60, 0
3, 112800, Note_on_c, 1, 61, 80
3, 113159, Note_on_c, 1, 61, 0
3, 113160, Note_on_c, 1, 63, 127
3, 113276, Note_on_c, 1, 63, 0
3, 113280, Note_on_c, 1, 64, 127
3, 113879, Note_on_c, 1, 64, 0
3, 113880, Note_on_c, 1, 68, 127
3, 113996, Note_on_c, 1, 68, 0
3, 114000, Note_on_c, 1, 66, 127
3, 114116, Note_on_c, 1, 66, 0
3, 114120, Note_on_c, 1, 64, 127
3, 114236, Note_on_c, 1, 64, 0
3, 114240, Note_on_c, 1, 63, 127
3, 114356, Note_on_c, 1, 63, 0
3, 114360, Note_on_c, 1, 64, 127
3, 114476, Note_on_c, 1, 64, 0
3, 114480, Note_on_c, 1, 63, 127
3, 114596, Note_on_c, 1, 63, 0
3, 114600, Note_on_c, 1, 61, 127
3, 114716, Note_on_c, 1, 61, 0
3, 114720, Note_on_c, 1, 60, 127
3, 115196, Note_on_c, 1, 60, 0
3, 115200, Note_on_c, 1, 61, 80
3, 115559, Note_on_c, 1, 61, 0
3, 115560, Note_on_c, 1, 56, 127
3, 115676, Note_on_c, 1, 56, 0
3, 115680, Note_on_c, 1, 61, 127
3, 115979, Note_on_c, 1, 61, 0
3, 115980, Note_on_c, 1, 59, 127
3, 116036, Note_on_c, 1, 59, 0
3, 116040, Note_on_c, 1, 57, 127
3, 116096, Note_on_c, 1, 57, 0
3, 116100, Note_on_c, 1, 56, 127
3, 116156, Note_on_c, 1, 56, 0
3, 116160, Note_on_c, 1, 57, 80
3, 116519, Note_on_c, 1, 57, 0
3, 116520, Note_on_c, 1, 54, 127
3, 116636, Note_on_c, 1, 54, 0
3, 116640, Note_on_c, 1, 59, 127
3, 117599, Note_on_c, 1, 59, 0
3, 120000, Note_on_c, 1, 52, 127
3, 120476, Note_on_c, 1, 52, 0
3, 120480, Note_on_c, 1, 59, 80
3, 120839, Note_on_c, 1, 59, 0
3, 120840, Note_on_c, 1, 57, 127
3, 120956, Note_on_c, 1, 57, 0
3, 120960, Note_on_c, 1, 56, 80
3, 121319, Note_on_c, 1, 56, 0
3, 121320, Note_on_c, 1, 54, 127
3, 121436, Note_on_c, 1, 54, 0
3, 121440, Note_on_c, 1, 52, 127
3, 121916, Note_on_c, 1, 52, 0
3, 121920, Note_on_c, 1, 51, 127
3, 122396, Note_on_c, 1, 51, 0
3, 122400, Note_on_c, 1, 52, 80
3, 122759, Note_on_c, 1, 52, 0
3, 122760, Note_on_c, 1, 54, 127
3, 122876, Note_on_c, 1, 54, 0
3, 122880, Note_on_c, 1, 56, 127
3, 123479, Note_on_c, 1, 56, 0
3, 123480, Note_on_c, 1, 57, 127
3, 123596, Note_on_c, 1, 57, 0
3, 123600, Note_on_c, 1, 56, 127
3, 123716, Note_on_c, 1, 56, 0
3, 123720, Note_on_c, 1, 54, 127
3, 123836, Note_on_c, 1, 54, 0
3, 123840, Note_on_c, 1, 52, 127
3, 123956, Note_on_c, 1, 52, 0
3, 123960, Note_on_c, 1, 54, 127
3, 124076, Note_on_c, 1, 54, 0
3, 124080, Note_on_c, 1, 52, 127
3, 124196, Note_on_c, 1, 52, 0
3, 124200, Note_on_c, 1, 51, 127
3, 124316, Note_on_c, 1, 51, 0
3, 124320, Note_on_c, 1, 49, 80
3, 124679, Note_on_c, 1, 49, 0
3, 124680, Note_on_c, 1, 56, 127
3, 124796, Note_on_c, 1, 56, 0
3, 124800, Note_on_c, 1, 61, 80
3, 125159, Note_on_c, 1, 61, 0
3, 125160, Note_on_c, 1, 59, 127
3, 125276, Note_on_c, 1, 59, 0
3, 125280, Note_on_c, 1, 57, 80
3, 125639, Note_on_c, 1, 57, 0
3, 125640, Note_on_c, 1, 56, 127
3, 125756, Note_on_c, 1, 56, 0
3, 125760, Note_on_c, 1, 54, 127
3, 125996, Note_on_c, 1, 54, 0
3, 126840, Note_on_c, 1, 51, 127
3, 126956, Note_on_c, 1, 51, 0
3, 126960, Note_on_c, 1, 52, 127
3, 127076, Note_on_c, 1, 52, 0
3, 127080, Note_on_c, 1, 54, 127
3, 127196, Note_on_c, 1, 54, 0
3, 127200, Note_on_c, 1, 56, 127
3, 127799, Note_on_c, 1, 56, 0
3, 127800, Note_on_c, 1, 57, 127
3, 127916, Note_on_c, 1, 57, 0
3, 127920, Note_on_c, 1, 56, 127
3, 128036, Note_on_c, 1, 56, 0
3, 128040, Note_on_c, 1, 54, 127
3, 128156, Note_on_c, 1, 54, 0
3, 128160, Note_on_c, 1, 52, 127
3, 128759, Note_on_c, 1, 52, 0
3, 128760, Note_on_c, 1, 51, 127
3, 128876, Note_on_c, 1, 51, 0
3, 128880, Note_on_c, 1, 49, 127
3, 128996, Note_on_c, 1, 49, 0
3, 129000, Note_on_c, 1, 48, 127
3, 129116, Note_on_c, 1, 48, 0
3, 129120, Note_on_c, 1, 49, 127
3, 130076, Note_on_c, 1, 49, 0
3, 130440, Note_on_c, 1, 49, 127
3, 130556, Note_on_c, 1, 49, 0
3, 130560, Note_on_c, 1, 54, 80
3, 130919, Note_on_c, 1, 54, 0
3, 130920, Note_on_c, 1, 52, 127
3, 131036, Note_on_c, 1, 52, 0
3, 131040, Note_on_c, 1, 51, 80
3, 131399, Note_on_c, 1, 51, 0
3, 131400, Note_on_c, 1, 49, 127
3, 131516, Note_on_c, 1, 49, 0
3, 131520, Note_on_c, 1, 51, 127
3, 132359, Note_on_c, 1, 51, 0
3, 132360, Note_on_c, 1, 47, 127
3, 132476, Note_on_c, 1, 47, 0
3, 132480, Note_on_c, 1, 52, 80
3, 132839, Note_on_c, 1, 52, 0
3, 132840, Note_on_c, 1, 51, 127
3, 132956, Note_on_c, 1, 51, 0
3, 132960, Note_on_c, 1, 49, 80
3, 133319, Note_on_c, 1, 49, 0
3, 133320, Note_on_c, 1, 48, 127
3, 133436, Note_on_c, 1, 48, 0
3, 133440, Note_on_c, 1, 49, 127
3, 134279, Note_on_c, 1, 49, 0
3, 134280, Note_on_c, 1, 54, 127
3, 134879, Note_on_c, 1, 54, 0
3, 135240, Note_on_c, 1, 51, 127
3, 135356, Note_on_c, 1, 51, 0
3, 135360, Note_on_c, 1, 56, 80
3, 135719, Note_on_c, 1, 56, 0
3, 135720, Note_on_c, 1, 54, 127
3, 135836, Note_on_c, 1, 54, 0
3, 135840, Note_on_c, 1, 52, 80
3, 136199, Note_on_c, 1, 52, 0
3, 136200, Note_on_c, 1, 59, 127
3, 136316, Note_on_c, 1, 59, 0
3, 136320, Note_on_c, 1, 61, 80
3, 136679, Note_on_c, 1, 61, 0
3, 136680, Note_on_c, 1, 59, 127
3, 136796, Note_on_c, 1, 59, 0
3, 136800, Note_on_c, 1, 57, 80
3, 137159, Note_on_c, 1, 57, 0
3, 137160, Note_on_c, 1, 56, 127
3, 137276, Note_on_c, 1, 56, 0
3, 137280, Note_on_c, 1, 54, 80
3, 137999, Note_on_c, 1, 54, 0
3, 138120, Note_on_c, 1, 54, 127
3, 138236, Note_on_c, 1, 54, 0
3, 138240, Note_on_c, 1, 54, 127
3, 138716, Note_on_c, 1, 54, 0
3, 138960, Note_on_c, 1, 56, 127
3, 139196, Note_on_c, 1, 56, 0
3, 139200, Note_on_c, 1, 56, 127
3, 139436, Note_on_c, 1, 56, 0
3, 140040, Note_on_c, 1, 57, 127
3, 140156, Note_on_c, 1, 57, 0
3, 140160, Note_on_c, 1, 56, 80
3, 140519, Note_on_c, 1, 56, 0
3, 140520, Note_on_c, 1, 57, 127
3, 140636, Note_on_c, 1, 57, 0
3, 140640, Note_on_c, 1, 56, 127
3, 140876, Note_on_c, 1, 56, 0
3, 141120, Note_on_c, 1, 56, 127
3, 141596, Note_on_c, 1, 56, 0
3, 141600, Note_on_c, 1, 61, 80
3, 141959, Note_on_c, 1, 61, 0
3, 141960, Note_on_c, 1, 59, 127
3, 142076, Note_on_c, 1, 59, 0
3, 142080, Note_on_c, 1, 57, 80
3, 142439, Note_on_c, 1, 57, 0
3, 142440, Note_on_c, 1, 56, 127
3, 142556, Note_on_c, 1, 56, 0
3, 142560, Note_on_c, 1, 54, 127
3, 143036, Note_on_c, 1, 54, 0
3, 143040, Note_on_c, 1, 53, 127
3, 143516, Note_on_c, 1, 53, 0
3, 143520, Note_on_c, 1, 54, 80
3, 143879, Note_on_c, 1, 54, 0
3, 143880, Note_on_c, 1, 56, 127
3, 143996, Note_on_c, 1, 56, 0
3, 144000, Note_on_c, 1, 57, 127
3, 144599, Note_on_c, 1, 57, 0
3, 144600, Note_on_c, 1, 59, 127
3, 144716, Note_on_c, 1, 59, 0
3, 144720, Note_on_c, 1, 57, 127
3, 144836, Note_on_c, 1, 57, 0
3, 144840, Note_on_c, 1, 56, 127
3, 144956, Note_on_c, 1, 56, 0
3, 144960, Note_on_c, 1, 54, 80
3, 145679, Note_on_c, 1, 54, 0
3, 145680, Note_on_c, 1, 56, 127
3, 145916, Note_on_c, 1, 56, 0
3, 145920, Note_on_c, 1, 57, 80
3, 146279, Note_on_c, 1, 57, 0
3, 146280, Note_on_c, 1, 59, 127
3, 146396, Note_on_c, 1, 59, 0
3, 146400, Note_on_c, 1, 61, 80
3, 146759, Note_on_c, 1, 61, 0
3, 146760, Note_on_c, 1, 57, 127
3, 146876, Note_on_c, 1, 57, 0
3, 146880, Note_on_c, 1, 59, 80
3, 147239, Note_on_c, 1, 59, 0
3, 147240, Note_on_c, 1, 56, 127
3, 147356, Note_on_c, 1, 56, 0
3, 147360, Note_on_c, 1, 57, 80
3, 147719, Note_on_c, 1, 57, 0
3, 147720, Note_on_c, 1, 59, 127
3, 147836, Note_on_c, 1, 59, 0
3, 147840, Note_on_c, 1, 61, 127
3, 148139, Note_on_c, 1, 61, 0
3, 148140, Note_on_c, 1, 49, 127
3, 148196, Note_on_c, 1, 49, 0
3, 148200, Note_on_c, 1, 51, 127
3, 148256, Note_on_c, 1, 51, 0
3, 148260, Note_on_c, 1, 53, 127
3, 148316, Note_on_c, 1, 53, 0
3, 148320, Note_on_c, 1, 54, 80
3, 148679, Note_on_c, 1, 54, 0
3, 148680, Note_on_c, 1, 56, 127
3, 148796, Note_on_c, 1, 56, 0
3, 148800, Note_on_c, 1, 57, 80
3, 149159, Note_on_c, 1, 57, 0
3, 149160, Note_on_c, 1, 59, 127
3, 149276, Note_on_c, 1, 59, 0
3, 149280, Note_on_c, 1, 61, 127
3, 149396, Note_on_c, 1, 61, 0
3, 149400, Note_on_c, 1, 59, 127
3, 149516, Note_on_c, 1, 59, 0
3, 149520, Note_on_c, 1, 57, 127
3, 149636, Note_on_c, 1, 57, 0
3, 149640, Note_on_c, 1, 56, 127
3, 149756, Note_on_c, 1, 56, 0
3, 149760, Note_on_c, 1, 54, 127
3, 149996, Note_on_c, 1, 54, 0
3, 150600, Note_on_c, 1, 63, 127
3, 150600, Note_on_c, 1, 57, 127
3, 150600, Note_on_c, 1, 54, 127
3, 150716, Note_on_c, 1, 63, 0
3, 150716, Note_on_c, 1, 57, 0
3, 150716, Note_on_c, 1, 54, 0
3, 150720, Note_on_c, 1, 61, 127
3, 150720, Note_on_c, 1, 56, 127
3, 150720, Note_on_c, 1, 53, 127
3, 151676, Note_on_c, 1, 61, 0
3, 151676, Note_on_c, 1, 56, 0
3, 151676, Note_on_c, 1, 53, 0
3, 151677, End_track
4, 0, Start_track
4, 0, Key_signature, 4, "major"
4, 0, Note_on_c, 1, 49, 127
4, 956, Note_on_c, 1, 49, 0
4, 960, Note_on_c, 1, 56, 80
4, 1679, Note_on_c, 1, 56, 0
4, 1680, Note_on_c, 1, 54, 127
4, 1916, Note_on_c, 1, 54, 0
4, 1920, Note_on_c, 1, 52, 80
4, 2639, Note_on_c, 1, 52, 0
4, 2640, Note_on_c, 1, 51, 127
4, 2876, Note_on_c, 1, 51, 0
4, 2880, Note_on_c, 1, 49, 127
4, 3836, Note_on_c, 1, 49, 0
4, 3840, Note_on_c, 1, 48, 127
4, 4796, Note_on_c, 1, 48, 0
4, 4800, Note_on_c, 1, 49, 80
4, 5519, Note_on_c, 1, 49, 0
4, 5520, Note_on_c, 1, 51, 127
4, 5756, Note_on_c, 1, 51, 0
4, 5760, Note_on_c, 1, 52, 127
4, 7079, Note_on_c, 1, 52, 0
4, 7080, Note_on_c, 1, 54, 127
4, 7196, Note_on_c, 1, 54, 0
4, 7200, Note_on_c, 1, 52, 80
4, 7559, Note_on_c, 1, 52, 0
4, 7560, Note_on_c, 1, 51, 127
4, 7676, Note_on_c, 1, 51, 0
4, 7680, Note_on_c, 1, 49, 80
4, 8039, Note_on_c, 1, 49, 0
4, 8040, Note_on_c, 1, 37, 127
4, 8156, Note_on_c, 1, 37, 0
4, 8160, Note_on_c, 1, 39, 80
4, 8519, Note_on_c, 1, 39, 0
4, 8520, Note_on_c, 1, 40, 127
4, 8636, Note_on_c, 1, 40, 0
4, 8640, Note_on_c, 1, 42, 80
4, 8999, Note_on_c, 1, 42, 0
4, 9000, Note_on_c, 1, 44, 127
4, 9116, Note_on_c, 1, 44, 0
4, 9120, Note_on_c, 1, 42, 80
4, 9479, Note_on_c, 1, 42, 0
4, 9480, Note_on_c, 1, 40, 127
4, 9596, Note_on_c, 1, 40, 0
4, 9600, Note_on_c, 1, 39, 80
4, 9959, Note_on_c, 1, 39, 0
4, 9960, Note_on_c, 1, 51, 127
4, 10076, Note_on_c, 1, 51, 0
4, 10080, Note_on_c, 1, 52, 80
4, 10439, Note_on_c, 1, 52, 0
4, 10440, Note_on_c, 1, 54, 127
4, 10556, Note_on_c, 1, 54, 0
4, 10560, Note_on_c, 1, 56, 80
4, 10919, Note_on_c, 1, 56, 0
4, 10920, Note_on_c, 1, 57, 127
4, 11036, Note_on_c, 1, 57, 0
4, 11040, Note_on_c, 1, 56, 80
4, 11399, Note_on_c, 1, 56, 0
4, 11400, Note_on_c, 1, 54, 127
4, 11516, Note_on_c, 1, 54, 0
4, 11520, Note_on_c, 1, 52, 127
4, 11996, Note_on_c, 1, 52, 0
4, 12000, Note_on_c, 1, 49, 127
4, 12476, Note_on_c, 1, 49, 0
4, 12480, Note_on_c, 1, 56, 127
4, 15719, Note_on_c, 1, 56, 0
4, 15720, Note_on_c, 1, 51, 127
4, 15836, Note_on_c, 1, 51, 0
4, 15840, Note_on_c, 1, 56, 80
4, 16199, Note_on_c, 1, 56, 0
4, 16200, Note_on_c, 1, 54, 127
4, 16316, Note_on_c, 1, 54, 0
4, 16320, Note_on_c, 1, 52, 80
4, 16679, Note_on_c, 1, 52, 0
4, 16680, Note_on_c, 1, 49, 127
4, 16796, Note_on_c, 1, 49, 0
4, 16800, Note_on_c, 1, 52, 80
4, 17159, Note_on_c, 1, 52, 0
4, 17160, Note_on_c, 1, 49, 127
4, 17276, Note_on_c, 1, 49, 0
4, 17280, Note_on_c, 1, 51, 80
4, 17999, Note_on_c, 1, 51, 0
4, 18000, Note_on_c, 1, 51, 127
4, 18236, Note_on_c, 1, 51, 0
4, 18240, Note_on_c, 1, 52, 80
4, 18599, Note_on_c, 1, 52, 0
4, 18600, Note_on_c, 1, 51, 127
4, 18716, Note_on_c, 1, 51, 0
4, 18720, Note_on_c, 1, 53, 80
4, 19079, Note_on_c, 1, 53, 0
4, 19080, Note_on_c, 1, 55, 127
4, 19196, Note_on_c, 1, 55, 0
4, 19200, Note_on_c, 1, 56, 80
4, 19559, Note_on_c, 1, 56, 0
4, 19560, Note_on_c, 1, 54, 127
4, 19676, Note_on_c, 1, 54, 0
4, 19680, Note_on_c, 1, 52, 127
4, 20156, Note_on_c, 1, 52, 0
4, 20160, Note_on_c, 1, 51, 127
4, 21116, Note_on_c, 1, 51, 0
4, 26880, Note_on_c, 1, 56, 127
4, 27356, Note_on_c, 1, 56, 0
4, 27360, Note_on_c, 1, 49, 80
4, 27719, Note_on_c, 1, 49, 0
4, 27720, Note_on_c, 1, 51, 127
4, 27836, Note_on_c, 1, 51, 0
4, 27840, Note_on_c, 1, 52, 80
4, 28199, Note_on_c, 1, 52, 0
4, 28200, Note_on_c, 1, 54, 127
4, 28316, Note_on_c, 1, 54, 0
4, 28320, Note_on_c, 1, 56, 127
4, 28796, Note_on_c, 1, 56, 0
4, 28800, Note_on_c, 1, 57, 127
4, 29276, Note_on_c, 1, 57, 0
4, 29280, Note_on_c, 1, 56, 80
4, 29639, Note_on_c, 1, 56, 0
4, 29640, Note_on_c, 1, 54, 127
4, 29756, Note_on_c, 1, 54, 0
4, 29760, Note_on_c, 1, 52, 127
4, 30359, Note_on_c, 1, 52, 0
4, 30360, Note_on_c, 1, 51, 127
4, 30476, Note_on_c, 1, 51, 0
4, 30480, Note_on_c, 1, 52, 127
4, 30596, Note_on_c, 1, 52, 0
4, 30600, Note_on_c, 1, 54, 127
4, 30716, Note_on_c, 1, 54, 0
4, 30720, Note_on_c, 1, 56, 127
4, 31676, Note_on_c, 1, 56, 0
4, 32400, Note_on_c, 1, 57, 127
4, 32636, Note_on_c, 1, 57, 0
4, 32640, Note_on_c, 1, 56, 80
4, 32999, Note_on_c, 1, 56, 0
4, 33000, Note_on_c, 1, 54, 127
4, 33116, Note_on_c, 1, 54, 0
4, 33120, Note_on_c, 1, 52, 127
4, 33899, Note_on_c, 1, 52, 0
4, 33900, Note_on_c, 1, 54, 127
4, 33956, Note_on_c, 1, 54, 0
4, 33960, Note_on_c, 1, 52, 127
4, 34016, Note_on_c, 1, 52, 0
4, 34020, Note_on_c, 1, 51, 127
4, 34076, Note_on_c, 1, 51, 0
4, 34080, Note_on_c, 1, 49, 127
4, 34556, Note_on_c, 1, 49, 0
4, 34860, Note_on_c, 1, 49, 127
4, 34916, Note_on_c, 1, 49, 0
4, 34920, Note_on_c, 1, 51, 127
4, 34976, Note_on_c, 1, 51, 0
4, 34980, Note_on_c, 1, 52, 127
4, 35036, Note_on_c, 1, 52, 0
4, 35040, Note_on_c, 1, 54, 127
4, 35819, Note_on_c, 1, 54, 0
4, 35820, Note_on_c, 1, 51, 127
4, 35876, Note_on_c, 1, 51, 0
4, 35880, Note_on_c, 1, 52, 127
4, 35936, Note_on_c, 1, 52, 0
4, 35940, Note_on_c, 1, 54, 127
4, 35996, Note_on_c, 1, 54, 0
4, 36000, Note_on_c, 1, 56, 80
4, 36359, Note_on_c, 1, 56, 0
4, 36360, Note_on_c, 1, 54, 127
4, 36476, Note_on_c, 1, 54, 0
4, 36480, Note_on_c, 1, 52, 80
4, 36839, Note_on_c, 1, 52, 0
4, 36840, Note_on_c, 1, 49, 127
4, 36956, Note_on_c, 1, 49, 0
4, 36960, Note_on_c, 1, 54, 80
4, 37319, Note_on_c, 1, 54, 0
4, 37320, Note_on_c, 1, 52, 127
4, 37436, Note_on_c, 1, 52, 0
4, 37440, Note_on_c, 1, 51, 127
4, 37739, Note_on_c, 1, 51, 0
4, 37740, Note_on_c, 1, 47, 127
4, 37796, Note_on_c, 1, 47, 0
4, 37800, Note_on_c, 1, 49, 127
4, 37856, Note_on_c, 1, 49, 0
4, 37860, Note_on_c, 1, 51, 127
4, 37916, Note_on_c, 1, 51, 0
4, 37920, Note_on_c, 1, 52, 80
4, 38279, Note_on_c, 1, 52, 0
4, 38280, Note_on_c, 1, 50, 127
4, 38396, Note_on_c, 1, 50, 0
4, 38400, Note_on_c, 1, 49, 80
4, 38759, Note_on_c, 1, 49, 0
4, 38760, Note_on_c, 1, 47, 127
4, 38876, Note_on_c, 1, 47, 0
4, 38880, Note_on_c, 1, 49, 80
4, 39239, Note_on_c, 1, 49, 0
4, 39240, Note_on_c, 1, 51, 127
4, 39356, Note_on_c, 1, 51, 0
4, 39360, Note_on_c, 1, 52, 80
4, 39719, Note_on_c, 1, 52, 0
4, 39720, Note_on_c, 1, 51, 127
4, 39836, Note_on_c, 1, 51, 0
4, 39840, Note_on_c, 1, 52, 80
4, 40199, Note_on_c, 1, 52, 0
4, 40200, Note_on_c, 1, 54, 127
4, 40316, Note_on_c, 1, 54, 0
4, 40320, Note_on_c, 1, 56, 80
4, 41099, Note_on_c, 1, 56, 0
4, 41100, Note_on_c, 1, 52, 127
4, 41156, Note_on_c, 1, 52, 0
4, 41160, Note_on_c, 1, 54, 127
4, 41216, Note_on_c, 1, 54, 0
4, 41220, Note_on_c, 1, 56, 127
4, 41276, Note_on_c, 1, 56, 0
4, 41280, Note_on_c, 1, 57, 80
4, 41639, Note_on_c, 1, 57, 0
4, 41640, Note_on_c, 1, 56, 127
4, 41756, Note_on_c, 1, 56, 0
4, 41760, Note_on_c, 1, 54, 80
4, 42119, Note_on_c, 1, 54, 0
4, 42120, Note_on_c, 1, 52, 127
4, 42236, Note_on_c, 1, 52, 0
4, 42240, Note_on_c, 1, 51, 80
4, 42599, Note_on_c, 1, 51, 0
4, 42600, Note_on_c, 1, 47, 127
4, 42716, Note_on_c, 1, 47, 0
4, 42720, Note_on_c, 1, 52, 127
4, 43559, Note_on_c, 1, 52, 0
4, 43560, Note_on_c, 1, 54, 127
4, 43676, Note_on_c, 1, 54, 0
4, 43680, Note_on_c, 1, 52, 80
4, 44039, Note_on_c, 1, 52, 0
4, 44040, Note_on_c, 1, 51, 127
4, 44156, Note_on_c, 1, 51, 0
4, 44160, Note_on_c, 1, 49, 127
4, 45116, Note_on_c, 1, 49, 0
4, 45120, Note_on_c, 1, 47, 127
4, 45419, Note_on_c, 1, 47, 0
4, 45420, Note_on_c, 1, 54, 127
4, 45476, Note_on_c, 1, 54, 0
4, 45480, Note_on_c, 1, 56, 127
4, 45536, Note_on_c, 1, 56, 0
4, 45540, Note_on_c, 1, 57, 127
4, 45596, Note_on_c, 1, 57, 0
4, 45600, Note_on_c, 1, 59, 80
4, 45959, Note_on_c, 1, 59, 0
4, 45960, Note_on_c, 1, 57, 127
4, 46076, Note_on_c, 1, 57, 0
4, 46080, Note_on_c, 1, 56, 80
4, 46439, Note_on_c, 1, 56, 0
4, 46440, Note_on_c, 1, 52, 127
4, 46556, Note_on_c, 1, 52, 0
4, 46560, Note_on_c, 1, 57, 80
4, 46919, Note_on_c, 1, 57, 0
4, 46920, Note_on_c, 1, 61, 127
4, 47036, Note_on_c, 1, 61, 0
4, 47040, Note_on_c, 1, 51, 80
4, 47819, Note_on_c, 1, 51, 0
4, 47820, Note_on_c, 1, 47, 127
4, 47876, Note_on_c, 1, 47, 0
4, 47880, Note_on_c, 1, 49, 127
4, 47936, Note_on_c, 1, 49, 0
4, 47940, Note_on_c, 1, 51, 127
4, 47996, Note_on_c, 1, 51, 0
4, 48000, Note_on_c, 1, 52, 80
4, 48359, Note_on_c, 1, 52, 0
4, 48360, Note_on_c, 1, 51, 127
4, 48476, Note_on_c, 1, 51, 0
4, 48480, Note_on_c, 1, 49, 127
4, 49079, Note_on_c, 1, 49, 0
4, 49080, Note_on_c, 1, 49, 127
4, 49196, Note_on_c, 1, 49, 0
4, 49200, Note_on_c, 1, 47, 127
4, 49316, Note_on_c, 1, 47, 0
4, 49320, Note_on_c, 1, 45, 127
4, 49436, Note_on_c, 1, 45, 0
4, 49440, Note_on_c, 1, 44, 127
4, 49556, Note_on_c, 1, 44, 0
4, 49560, Note_on_c, 1, 40, 127
4, 49676, Note_on_c, 1, 40, 0
4, 49680, Note_on_c, 1, 42, 127
4, 49796, Note_on_c, 1, 42, 0
4, 49800, Note_on_c, 1, 44, 127
4, 49916, Note_on_c, 1, 44, 0
4, 49920, Note_on_c, 1, 45, 127
4, 50036, Note_on_c, 1, 45, 0
4, 50040, Note_on_c, 1, 42, 127
4, 50156, Note_on_c, 1, 42, 0
4, 50160, Note_on_c, 1, 44, 127
4, 50276, Note_on_c, 1, 44, 0
4, 50280, Note_on_c, 1, 45, 127
4, 50396, Note_on_c, 1, 45, 0
4, 50400, Note_on_c, 1, 47, 80
4, 50759, Note_on_c, 1, 47, 0
4, 50760, Note_on_c, 1, 48, 127
4, 50876, Note_on_c, 1, 48, 0
4, 50880, Note_on_c, 1, 49, 127
4, 50996, Note_on_c, 1, 49, 0
4, 51000, Note_on_c, 1, 48, 127
4, 51116, Note_on_c, 1, 48, 0
4, 51120, Note_on_c, 1, 49, 127
4, 51236, Note_on_c, 1, 49, 0
4, 51240, Note_on_c, 1, 51, 127
4, 51356, Note_on_c, 1, 51, 0
4, 51360, Note_on_c, 1, 52, 127
4, 51959, Note_on_c, 1, 52, 0
4, 51960, Note_on_c, 1, 51, 127
4, 52076, Note_on_c, 1, 51, 0
4, 52080, Note_on_c, 1, 52, 127
4, 52196, Note_on_c, 1, 52, 0
4, 52200, Note_on_c, 1, 54, 127
4, 52316, Note_on_c, 1, 54, 0
4, 52320, Note_on_c, 1, 56, 127
4, 53159, Note_on_c, 1, 56, 0
4, 53160, Note_on_c, 1, 54, 127
4, 53276, Note_on_c, 1, 54, 0
4, 53280, Note_on_c, 1, 52, 80
4, 53639, Note_on_c, 1, 52, 0
4, 53640, Note_on_c, 1, 51, 127
4, 53756, Note_on_c, 1, 51, 0
4, 53760, Note_on_c, 1, 49, 80
4, 54539, Note_on_c, 1, 49, 0
4, 54540, Note_on_c, 1, 37, 127
4, 54596, Note_on_c, 1, 37, 0
4, 54600, Note_on_c, 1, 39, 127
4, 54656, Note_on_c, 1, 39, 0
4, 54660, Note_on_c, 1, 40, 127
4, 54716, Note_on_c, 1, 40, 0
4, 54720, Note_on_c, 1, 42, 80
4, 55499, Note_on_c, 1, 42, 0
4, 55500, Note_on_c, 1, 40, 127
4, 55556, Note_on_c, 1, 40, 0
4, 55560, Note_on_c, 1, 39, 127
4, 55616, Note_on_c, 1, 39, 0
4, 55620, Note_on_c, 1, 37, 127
4, 55676, Note_on_c, 1, 37, 0
4, 55680, Note_on_c, 1, 35, 80
4, 56459, Note_on_c, 1, 35, 0
4, 56460, Note_on_c, 1, 47, 127
4, 56516, Note_on_c, 1, 47, 0
4, 56520, Note_on_c, 1, 49, 127
4, 56576, Note_on_c, 1, 49, 0
4, 56580, Note_on_c, 1, 51, 127
4, 56636, Note_on_c, 1, 51, 0
4, 56640, Note_on_c, 1, 52, 80
4, 57419, Note_on_c, 1, 52, 0
4, 57420, Note_on_c, 1, 51, 127
4, 57476, Note_on_c, 1, 51, 0
4, 57480, Note_on_c, 1, 49, 127
4, 57536, Note_on_c, 1, 49, 0
4, 57540, Note_on_c, 1, 47, 127
4, 57596, Note_on_c, 1, 47, 0
4, 57600, Note_on_c, 1, 45, 127
4, 58556, Note_on_c, 1, 45, 0
4, 58560, Note_on_c, 1, 44, 127
4, 62159, Note_on_c, 1, 44, 0
4, 62160, Note_on_c, 1, 44, 127
4, 62396, Note_on_c, 1, 44, 0
4, 62400, Note_on_c, 1, 45, 80
4, 62759, Note_on_c, 1, 45, 0
4, 62760, Note_on_c, 1, 44, 127
4, 62876, Note_on_c, 1, 44, 0
4, 62880, Note_on_c, 1, 42, 127
4, 63356, Note_on_c, 1, 42, 0
4, 63360, Note_on_c, 1, 40, 80
4, 63719, Note_on_c, 1, 40, 0
4, 63720, Note_on_c, 1, 42, 127
4, 63836, Note_on_c, 1, 42, 0
4, 63840, Note_on_c, 1, 44, 80
4, 64199, Note_on_c, 1, 44, 0
4, 64200, Note_on_c, 1, 47, 127
4, 64316, Note_on_c, 1, 47, 0
4, 64320, Note_on_c, 1, 47, 127
4, 65999, Note_on_c, 1, 47, 0
4, 66000, Note_on_c, 1, 47, 127
4, 66236, Note_on_c, 1, 47, 0
4, 66240, Note_on_c, 1, 45, 80
4, 66959, Note_on_c, 1, 45, 0
4, 66960, Note_on_c, 1, 44, 127
4, 67196, Note_on_c, 1, 44, 0
4, 67200, Note_on_c, 1, 42, 127
4, 67676, Note_on_c, 1, 42, 0
4, 67680, Note_on_c, 1, 49, 80
4, 68039, Note_on_c, 1, 49, 0
4, 68040, Note_on_c, 1, 47, 127
4, 68156, Note_on_c, 1, 47, 0
4, 68160, Note_on_c, 1, 45, 80
4, 68519, Note_on_c, 1, 45, 0
4, 68520, Note_on_c, 1, 44, 127
4, 68636, Note_on_c, 1, 44, 0
4, 68640, Note_on_c, 1, 42, 127
4, 69116, Note_on_c, 1, 42, 0
4, 69120, Note_on_c, 1, 41, 127
4, 69596, Note_on_c, 1, 41, 0
4, 69600, Note_on_c, 1, 42, 80
4, 69959, Note_on_c, 1, 42, 0
4, 69960, Note_on_c, 1, 44, 127
4, 70076, Note_on_c, 1, 44, 0
4, 70080, Note_on_c, 1, 45, 127
4, 70679, Note_on_c, 1, 45, 0
4, 70680, Note_on_c, 1, 47, 127
4, 70796, Note_on_c, 1, 47, 0
4, 70800, Note_on_c, 1, 45, 127
4, 70916, Note_on_c, 1, 45, 0
4, 70920, Note_on_c, 1, 44, 127
4, 71036, Note_on_c, 1, 44, 0
4, 71040, Note_on_c, 1, 42, 127
4, 71276, Note_on_c, 1, 42, 0
4, 71280, Note_on_c, 1, 54, 127
4, 71819, Note_on_c, 1, 54, 0
4, 71820, Note_on_c, 1, 52, 127
4, 71876, Note_on_c, 1, 52, 0
4, 71880, Note_on_c, 1, 50, 127
4, 71936, Note_on_c, 1, 50, 0
4, 71940, Note_on_c, 1, 49, 127
4, 71996, Note_on_c, 1, 49, 0
4, 72000, Note_on_c, 1, 47, 80
4, 72359, Note_on_c, 1, 47, 0
4, 72360, Note_on_c, 1, 52, 127
4, 72476, Note_on_c, 1, 52, 0
4, 72480, Note_on_c, 1, 54, 80
4, 72839, Note_on_c, 1, 54, 0
4, 72840, Note_on_c, 1, 56, 127
4, 72956, Note_on_c, 1, 56, 0
4, 72960, Note_on_c, 1, 57, 80
4, 73319, Note_on_c, 1, 57, 0
4, 73320, Note_on_c, 1, 56, 127
4, 73436, Note_on_c, 1, 56, 0
4, 73440, Note_on_c, 1, 54, 127
4, 74279, Note_on_c, 1, 54, 0
4, 74280, Note_on_c, 1, 52, 127
4, 74396, Note_on_c, 1, 52, 0
4, 74400, Note_on_c, 1, 50, 127
4, 75239, Note_on_c, 1, 50, 0
4, 75240, Note_on_c, 1, 49, 127
4, 75356, Note_on_c, 1, 49, 0
4, 75360, Note_on_c, 1, 47, 80
4, 75719, Note_on_c, 1, 47, 0
4, 75720, Note_on_c, 1, 49, 127
4, 75836, Note_on_c, 1, 49, 0
4, 75840, Note_on_c, 1, 50, 127
4, 75956, Note_on_c, 1, 50, 0
4, 75960, Note_on_c, 1, 54, 127
4, 76076, Note_on_c, 1, 54, 0
4, 76080, Note_on_c, 1, 52, 127
4, 76196, Note_on_c, 1, 52, 0
4, 76200, Note_on_c, 1, 50, 127
4, 76316, Note_on_c, 1, 50, 0
4, 76320, Note_on_c, 1, 49, 127
4, 76436, Note_on_c, 1, 49, 0
4, 76440, Note_on_c, 1, 47, 127
4, 76556, Note_on_c, 1, 47, 0
4, 76560, Note_on_c, 1, 45, 127
4, 76676, Note_on_c, 1, 45, 0
4, 76680, Note_on_c, 1, 44, 127
4, 76796, Note_on_c, 1, 44, 0
4, 76800, Note_on_c, 1, 42, 80
4, 77159, Note_on_c, 1, 42, 0
4, 77160, Note_on_c, 1, 40, 127
4, 77276, Note_on_c, 1, 40, 0
4, 77280, Note_on_c, 1, 42, 80
4, 77639, Note_on_c, 1, 42, 0
4, 77640, Note_on_c, 1, 45, 127
4, 77756, Note_on_c, 1, 45, 0
4, 77760, Note_on_c, 1, 44, 127
4, 77876, Note_on_c, 1, 44, 0
4, 77880, Note_on_c, 1, 40, 127
4, 77996, Note_on_c, 1, 40, 0
4, 78000, Note_on_c, 1, 42, 127
4, 78116, Note_on_c, 1, 42, 0
4, 78120, Note_on_c, 1, 44, 127
4, 78236, Note_on_c, 1, 44, 0
4, 78240, Note_on_c, 1, 45, 127
4, 78356, Note_on_c, 1, 45, 0
4, 78360, Note_on_c, 1, 47, 127
4, 78476, Note_on_c, 1, 47, 0
4, 78480, Note_on_c, 1, 49, 127
4, 78596, Note_on_c, 1, 49, 0
4, 78600, Note_on_c, 1, 50, 127
4, 78716, Note_on_c, 1, 50, 0
4, 78720, Note_on_c, 1, 49, 127
4, 79196, Note_on_c, 1, 49, 0
4, 79200, Note_on_c, 1, 50, 127
4, 79676, Note_on_c, 1, 50, 0
4, 79680, Note_on_c, 1, 52, 127
4, 80759, Note_on_c, 1, 52, 0
4, 80760, Note_on_c, 1, 50, 127
4, 80816, Note_on_c, 1, 50, 0
4, 80820, Note_on_c, 1, 49, 127
4, 80876, Note_on_c, 1, 49, 0
4, 80880, Note_on_c, 1, 50, 127
4, 80996, Note_on_c, 1, 50, 0
4, 81000, Note_on_c, 1, 47, 127
4, 81116, Note_on_c, 1, 47, 0
4, 81120, Note_on_c, 1, 45, 80
4, 81179, Note_on_c, 1, 45, 0
4, 81180, Note_on_c, 1, 44, 80
4, 81239, Note_on_c, 1, 44, 0
4, 81240, Note_on_c, 1, 45, 80
4, 81299, Note_on_c, 1, 45, 0
4, 81300, Note_on_c, 1, 44, 80
4, 81359, Note_on_c, 1, 44, 0
4, 81360, Note_on_c, 1, 45, 80
4, 81419, Note_on_c, 1, 45, 0
4, 81420, Note_on_c, 1, 44, 80
4, 81479, Note_on_c, 1, 44, 0
4, 81480, Note_on_c, 1, 42, 127
4, 81536, Note_on_c, 1, 42, 0
4, 81540, Note_on_c, 1, 44, 127
4, 81596, Note_on_c, 1, 44, 0
4, 81600, Note_on_c, 1, 45, 80
4, 81959, Note_on_c, 1, 45, 0
4, 81960, Note_on_c, 1, 57, 127
4, 82076, Note_on_c, 1, 57, 0
4, 82080, Note_on_c, 1, 56, 80
4, 82439, Note_on_c, 1, 56, 0
4, 82440, Note_on_c, 1, 54, 127
4, 82556, Note_on_c, 1, 54, 0
4, 82560, Note_on_c, 1, 52, 80
4, 82919, Note_on_c, 1, 52, 0
4, 82920, Note_on_c, 1, 40, 127
4, 83036, Note_on_c, 1, 40, 0
4, 83040, Note_on_c, 1, 38, 80
4, 83399, Note_on_c, 1, 38, 0
4, 83400, Note_on_c, 1, 37, 127
4, 83516, Note_on_c, 1, 37, 0
4, 83520, Note_on_c, 1, 35, 80
4, 83879, Note_on_c, 1, 35, 0
4, 83880, Note_on_c, 1, 47, 127
4, 83996, Note_on_c, 1, 47, 0
4, 84000, Note_on_c, 1, 45, 80
4, 84359, Note_on_c, 1, 45, 0
4, 84360, Note_on_c, 1, 44, 127
4, 84476, Note_on_c, 1, 44, 0
4, 84480, Note_on_c, 1, 42, 80
4, 84839, Note_on_c, 1, 42, 0
4, 84840, Note_on_c, 1, 54, 127
4, 84956, Note_on_c, 1, 54, 0
4, 84960, Note_on_c, 1, 52, 80
4, 85319, Note_on_c, 1, 52, 0
4, 85320, Note_on_c, 1, 51, 127
4, 85436, Note_on_c, 1, 51, 0
4, 85440, Note_on_c, 1, 49, 127
4, 85739, Note_on_c, 1, 49, 0
4, 85740, Note_on_c, 1, 56, 127
4, 85796, Note_on_c, 1, 56, 0
4, 85800, Note_on_c, 1, 58, 127
4, 85856, Note_on_c, 1, 58, 0
4, 85860, Note_on_c, 1, 60, 127
4, 85916, Note_on_c, 1, 60, 0
4, 85920, Note_on_c, 1, 61, 80
4, 86279, Note_on_c, 1, 61, 0
4, 86280, Note_on_c, 1, 59, 127
4, 86396, Note_on_c, 1, 59, 0
4, 86400, Note_on_c, 1, 57, 80
4, 86759, Note_on_c, 1, 57, 0
4, 86760, Note_on_c, 1, 56, 127
4, 86876, Note_on_c, 1, 56, 0
4, 86880, Note_on_c, 1, 57, 80
4, 87239, Note_on_c, 1, 57, 0
4, 87240, Note_on_c, 1, 54, 127
4, 87356, Note_on_c, 1, 54, 0
4, 87360, Note_on_c, 1, 56, 127
4, 87836, Note_on_c, 1, 56, 0
4, 88320, Note_on_c, 1, 44, 127
4, 89276, Note_on_c, 1, 44, 0
4, 89280, Note_on_c, 1, 37, 80
4, 89999, Note_on_c, 1, 37, 0
4, 90000, Note_on_c, 1, 39, 127
4, 90236, Note_on_c, 1, 39, 0
4, 90240, Note_on_c, 1, 40, 80
4, 90959, Note_on_c, 1, 40, 0
4, 90960, Note_on_c, 1, 42, 127
4, 91196, Note_on_c, 1, 42, 0
4, 91200, Note_on_c, 1, 44, 127
4, 92156, Note_on_c, 1, 44, 0
4, 92160, Note_on_c, 1, 45, 127
4, 93116, Note_on_c, 1, 45, 0
4, 93120, Note_on_c, 1, 44, 80
4, 93839, Note_on_c, 1, 44, 0
4, 93840, Note_on_c, 1, 42, 127
4, 94076, Note_on_c, 1, 42, 0
4, 94080, Note_on_c, 1, 40, 127
4, 95399, Note_on_c, 1, 40, 0
4, 95400, Note_on_c, 1, 39, 127
4, 95516, Note_on_c, 1, 39, 0
4, 95520, Note_on_c, 1, 40, 80
4, 95879, Note_on_c, 1, 40, 0
4, 95880, Note_on_c, 1, 42, 127
4, 95996, Note_on_c, 1, 42, 0
4, 96000, Note_on_c, 1, 44, 127
4, 97259, Note_on_c, 1, 44, 0
4, 97260, Note_on_c, 1, 47, 127
4, 97316, Note_on_c, 1, 47, 0
4, 97320, Note_on_c, 1, 46, 127
4, 97376, Note_on_c, 1, 46, 0
4, 97380, Note_on_c, 1, 44, 127
4, 97436, Note_on_c, 1, 44, 0
4, 97440, Note_on_c, 1, 42, 127
4, 97739, Note_on_c, 1, 42, 0
4, 97740, Note_on_c, 1, 44, 127
4, 97796, Note_on_c, 1, 44, 0
4, 97800, Note_on_c, 1, 42, 127
4, 97856, Note_on_c, 1, 42, 0
4, 97860, Note_on_c, 1, 40, 127
4, 97916, Note_on_c, 1, 40, 0
4, 97920, Note_on_c, 1, 39, 80
4, 98279, Note_on_c, 1, 39, 0
4, 98280, Note_on_c, 1, 37, 127
4, 98396, Note_on_c, 1, 37, 0
4, 98400, Note_on_c, 1, 39, 80
4, 98759, Note_on_c, 1, 39, 0
4, 98760, Note_on_c, 1, 40, 127
4, 98876, Note_on_c, 1, 40, 0
4, 98880, Note_on_c, 1, 42, 127
4, 100139, Note_on_c, 1, 42, 0
4, 100140, Note_on_c, 1, 45, 127
4, 100196, Note_on_c, 1, 45, 0
4, 100200, Note_on_c, 1, 44, 127
4, 100256, Note_on_c, 1, 44, 0
4, 100260, Note_on_c, 1, 42, 127
4, 100316, Note_on_c, 1, 42, 0
4, 100320, Note_on_c, 1, 40, 127
4, 100619, Note_on_c, 1, 40, 0
4, 100620, Note_on_c, 1, 42, 127
4, 100676, Note_on_c, 1, 42, 0
4, 100680, Note_on_c, 1, 40, 127
4, 100736, Note_on_c, 1, 40, 0
4, 100740, Note_on_c, 1, 39, 127
4, 100796, Note_on_c, 1, 39, 0
4, 100800, Note_on_c, 1, 37, 80
4, 101159, Note_on_c, 1, 37, 0
4, 101160, Note_on_c, 1, 35, 127
4, 101276, Note_on_c, 1, 35, 0
4, 101280, Note_on_c, 1, 37, 80
4, 101639, Note_on_c, 1, 37, 0
4, 101640, Note_on_c, 1, 39, 127
4, 101756, Note_on_c, 1, 39, 0
4, 101760, Note_on_c, 1, 40, 127
4, 102959, Note_on_c, 1, 40, 0
4, 109800, Note_on_c, 1, 44, 127
4, 109916, Note_on_c, 1, 44, 0
4, 109920, Note_on_c, 1, 46, 80
4, 110279, Note_on_c, 1, 46, 0
4, 110280, Note_on_c, 1, 48, 127
4, 110396, Note_on_c, 1, 48, 0
4, 110400, Note_on_c, 1, 49, 80
4, 110759, Note_on_c, 1, 49, 0
4, 110760, Note_on_c, 1, 51, 127
4, 110876, Note_on_c, 1, 51, 0
4, 110880, Note_on_c, 1, 52, 127
4, 111659, Note_on_c, 1, 52, 0
4, 111660, Note_on_c, 1, 52, 127
4, 111716, Note_on_c, 1, 52, 0
4, 111720, Note_on_c, 1, 54, 127
4, 111776, Note_on_c, 1, 54, 0
4, 111780, Note_on_c, 1, 56, 127
4, 111836, Note_on_c, 1, 56, 0
4, 111840, Note_on_c, 1, 57, 80
4, 112199, Note_on_c, 1, 57, 0
4, 112200, Note_on_c, 1, 45, 127
4, 112316, Note_on_c, 1, 45, 0
4, 112320, Note_on_c, 1, 44, 127
4, 112436, Note_on_c, 1, 44, 0
4, 112440, Note_on_c, 1, 57, 127
4, 112556, Note_on_c, 1, 57, 0
4, 112560, Note_on_c, 1, 56, 127
4, 112676, Note_on_c, 1, 56, 0
4, 112680, Note_on_c, 1, 54, 127
4, 112796, Note_on_c, 1, 54, 0
4, 112800, Note_on_c, 1, 52, 127
4, 112916, Note_on_c, 1, 52, 0
4, 112920, Note_on_c, 1, 51, 127
4, 113036, Note_on_c, 1, 51, 0
4, 113040, Note_on_c, 1, 49, 127
4, 113156, Note_on_c, 1, 49, 0
4, 113160, Note_on_c, 1, 48, 127
4, 113276, Note_on_c, 1, 48, 0
4, 113280, Note_on_c, 1, 49, 127
4, 113396, Note_on_c, 1, 49, 0
4, 113400, Note_on_c, 1, 59, 127
4, 113516, Note_on_c, 1, 59, 0
4, 113520, Note_on_c, 1, 57, 127
4, 113636, Note_on_c, 1, 57, 0
4, 113640, Note_on_c, 1, 56, 127
4, 113756, Note_on_c, 1, 56, 0
4, 113760, Note_on_c, 1, 54, 127
4, 113876, Note_on_c, 1, 54, 0
4, 113880, Note_on_c, 1, 52, 127
4, 113996, Note_on_c, 1, 52, 0
4, 114000, Note_on_c, 1, 51, 127
4, 114116, Note_on_c, 1, 51, 0
4, 114120, Note_on_c, 1, 49, 127
4, 114236, Note_on_c, 1, 49, 0
4, 114240, Note_on_c, 1, 48, 127
4, 114356, Note_on_c, 1, 48, 0
4, 114360, Note_on_c, 1, 61, 127
4, 114476, Note_on_c, 1, 61, 0
4, 114480, Note_on_c, 1, 60, 127
4, 114596, Note_on_c, 1, 60, 0
4, 114600, Note_on_c, 1, 58, 127
4, 114716, Note_on_c, 1, 58, 0
4, 114720, Note_on_c, 1, 56, 127
4, 114836, Note_on_c, 1, 56, 0
4, 114840, Note_on_c, 1, 54, 127
4, 114956, Note_on_c, 1, 54, 0
4, 114960, Note_on_c, 1, 52, 127
4, 115076, Note_on_c, 1, 52, 0
4, 115080, Note_on_c, 1, 51, 127
4, 115196, Note_on_c, 1, 51, 0
4, 115200, Note_on_c, 1, 49, 127
4, 115316, Note_on_c, 1, 49, 0
4, 115320, Note_on_c, 1, 51, 127
4, 115436, Note_on_c, 1, 51, 0
4, 115440, Note_on_c, 1, 49, 127
4, 115556, Note_on_c, 1, 49, 0
4, 115560, Note_on_c, 1, 47, 127
4, 115676, Note_on_c, 1, 47, 0
4, 115680, Note_on_c, 1, 45, 127
4, 115796, Note_on_c, 1, 45, 0
4, 115800, Note_on_c, 1, 44, 127
4, 115916, Note_on_c, 1, 44, 0
4, 115920, Note_on_c, 1, 42, 127
4, 116036, Note_on_c, 1, 42, 0
4, 116040, Note_on_c, 1, 40, 127
4, 116156, Note_on_c, 1, 40, 0
4, 116160, Note_on_c, 1, 42, 127
4, 116276, Note_on_c, 1, 42, 0
4, 116280, Note_on_c, 1, 49, 127
4, 116396, Note_on_c, 1, 49, 0
4, 116400, Note_on_c, 1, 47, 127
4, 116516, Note_on_c, 1, 47, 0
4, 116520, Note_on_c, 1, 45, 127
4, 116636, Note_on_c, 1, 45, 0
4, 116640, Note_on_c, 1, 44, 127
4, 116756, Note_on_c, 1, 44, 0
4, 116760, Note_on_c, 1, 42, 127
4, 116876, Note_on_c, 1, 42, 0
4, 116880, Note_on_c, 1, 40, 127
4, 116996, Note_on_c, 1, 40, 0
4, 117000, Note_on_c, 1, 39, 127
4, 117116, Note_on_c, 1, 39, 0
4, 117120, Note_on_c, 1, 40, 127
4, 117236, Note_on_c, 1, 40, 0
4, 117240, Note_on_c, 1, 47, 127
4, 117356, Note_on_c, 1, 47, 0
4, 117360, Note_on_c, 1, 49, 127
4, 117476, Note_on_c, 1, 49, 0
4, 117480, Note_on_c, 1, 51, 127
4, 117596, Note_on_c, 1, 51, 0
4, 117600, Note_on_c, 1, 52, 127
4, 117716, Note_on_c, 1, 52, 0
4, 117720, Note_on_c, 1, 54, 127
4, 117836, Note_on_c, 1, 54, 0
4, 117840, Note_on_c, 1, 52, 127
4, 117956, Note_on_c, 1, 52, 0
4, 117960, Note_on_c, 1, 51, 127
4, 118076, Note_on_c, 1, 51, 0
4, 118080, Note_on_c, 1, 49, 127
4, 118196, Note_on_c, 1, 49, 0
4, 118200, Note_on_c, 1, 52, 127
4, 118316, Note_on_c, 1, 52, 0
4, 118320, Note_on_c, 1, 54, 127
4, 118436, Note_on_c, 1, 54, 0
4, 118440, Note_on_c, 1, 56, 127
4, 118556, Note_on_c, 1, 56, 0
4, 118560, Note_on_c, 1, 57, 127
4, 118676, Note_on_c, 1, 57, 0
4, 118680, Note_on_c, 1, 59, 127
4, 118796, Note_on_c, 1, 59, 0
4, 118800, Note_on_c, 1, 57, 127
4, 118916, Note_on_c, 1, 57, 0
4, 118920, Note_on_c, 1, 56, 127
4, 119036, Note_on_c, 1, 56, 0
4, 119040, Note_on_c, 1, 54, 127
4, 119156, Note_on_c, 1, 54, 0
4, 119160, Note_on_c, 1, 42, 127
4, 119276, Note_on_c, 1, 42, 0
4, 119280, Note_on_c, 1, 44, 127
4, 119396, Note_on_c, 1, 44, 0
4, 119400, Note_on_c, 1, 45, 127
4, 119516, Note_on_c, 1, 45, 0
4, 119520, Note_on_c, 1, 47, 127
4, 119636, Note_on_c, 1, 47, 0
4, 119640, Note_on_c, 1, 49, 127
4, 119756, Note_on_c, 1, 49, 0
4, 119760, Note_on_c, 1, 47, 127
4, 119876, Note_on_c, 1, 47, 0
4, 119880, Note_on_c, 1, 45, 127
4, 119996, Note_on_c, 1, 45, 0
4, 120000, Note_on_c, 1, 44, 127
4, 120116, Note_on_c, 1, 44, 0
4, 120120, Note_on_c, 1, 45, 127
4, 120236, Note_on_c, 1, 45, 0
4, 120240, Note_on_c, 1, 44, 127
4, 120356, Note_on_c, 1, 44, 0
4, 120360, Note_on_c, 1, 42, 127
4, 120476, Note_on_c, 1, 42, 0
4, 120480, Note_on_c, 1, 40, 127
4, 121739, Note_on_c, 1, 40, 0
4, 121740, Note_on_c, 1, 39, 127
4, 121796, Note_on_c, 1, 39, 0
4, 121800, Note_on_c, 1, 40, 127
4, 121856, Note_on_c, 1, 40, 0
4, 121860, Note_on_c, 1, 42, 127
4, 121916, Note_on_c, 1, 42, 0
4, 121920, Note_on_c, 1, 44, 127
4, 122036, Note_on_c, 1, 44, 0
4, 122040, Note_on_c, 1, 57, 127
4, 122156, Note_on_c, 1, 57, 0
4, 122160, Note_on_c, 1, 56, 127
4, 122276, Note_on_c, 1, 56, 0
4, 122280, Note_on_c, 1, 54, 127
4, 122396, Note_on_c, 1, 54, 0
4, 122400, Note_on_c, 1, 52, 127
4, 122516, Note_on_c, 1, 52, 0
4, 122520, Note_on_c, 1, 51, 127
4, 122636, Note_on_c, 1, 51, 0
4, 122640, Note_on_c, 1, 49, 127
4, 122999, Note_on_c, 1, 49, 0
4, 123000, Note_on_c, 1, 47, 127
4, 123116, Note_on_c, 1, 47, 0
4, 123120, Note_on_c, 1, 45, 127
4, 123236, Note_on_c, 1, 45, 0
4, 123240, Note_on_c, 1, 44, 127
4, 123356, Note_on_c, 1, 44, 0
4, 123360, Note_on_c, 1, 45, 127
4, 123476, Note_on_c, 1, 45, 0
4, 123480, Note_on_c, 1, 42, 127
4, 123596, Note_on_c, 1, 42, 0
4, 123600, Note_on_c, 1, 48, 127
4, 123836, Note_on_c, 1, 48, 0
4, 123840, Note_on_c, 1, 49, 127
4, 123956, Note_on_c, 1, 49, 0
4, 123960, Note_on_c, 1, 45, 127
4, 124076, Note_on_c, 1, 45, 0
4, 124080, Note_on_c, 1, 44, 127
4, 124196, Note_on_c, 1, 44, 0
4, 124200, Note_on_c, 1, 42, 127
4, 124316, Note_on_c, 1, 42, 0
4, 124320, Note_on_c, 1, 40, 127
4, 124436, Note_on_c, 1, 40, 0
4, 124440, Note_on_c, 1, 42, 127
4, 124556, Note_on_c, 1, 42, 0
4, 124560, Note_on_c, 1, 40, 127
4, 124676, Note_on_c, 1, 40, 0
4, 124680, Note_on_c, 1, 39, 127
4, 124796, Note_on_c, 1, 39, 0
4, 124800, Note_on_c, 1, 37, 127
4, 124916, Note_on_c, 1, 37, 0
4, 124920, Note_on_c, 1, 44, 127
4, 125036, Note_on_c, 1, 44, 0
4, 125040, Note_on_c, 1, 45, 127
4, 125156, Note_on_c, 1, 45, 0
4, 125160, Note_on_c, 1, 47, 127
4, 125276, Note_on_c, 1, 47, 0
4, 125280, Note_on_c, 1, 49, 127
4, 125396, Note_on_c, 1, 49, 0
4, 125400, Note_on_c, 1, 51, 127
4, 125516, Note_on_c, 1, 51, 0
4, 125520, Note_on_c, 1, 52, 127
4, 125756, Note_on_c, 1, 52, 0
4, 125880, Note_on_c, 1, 51, 127
4, 125996, Note_on_c, 1, 51, 0
4, 126000, Note_on_c, 1, 52, 127
4, 126116, Note_on_c, 1, 52, 0
4, 126120, Note_on_c, 1, 54, 127
4, 126236, Note_on_c, 1, 54, 0
4, 126240, Note_on_c, 1, 52, 127
4, 126356, Note_on_c, 1, 52, 0
4, 126360, Note_on_c, 1, 51, 127
4, 126476, Note_on_c, 1, 51, 0
4, 126480, Note_on_c, 1, 49, 127
4, 126596, Note_on_c, 1, 49, 0
4, 126600, Note_on_c, 1, 48, 127
4, 126716, Note_on_c, 1, 48, 0
4, 126720, Note_on_c, 1, 49, 127
4, 128279, Note_on_c, 1, 49, 0
4, 128280, Note_on_c, 1, 50, 127
4, 128396, Note_on_c, 1, 50, 0
4, 128400, Note_on_c, 1, 49, 127
4, 128516, Note_on_c, 1, 49, 0
4, 128520, Note_on_c, 1, 47, 127
4, 128636, Note_on_c, 1, 47, 0
4, 128640, Note_on_c, 1, 45, 127
4, 129239, Note_on_c, 1, 45, 0
4, 129240, Note_on_c, 1, 45, 127
4, 129356, Note_on_c, 1, 45, 0
4, 129360, Note_on_c, 1, 44, 127
4, 129476, Note_on_c, 1, 44, 0
4, 129480, Note_on_c, 1, 42, 127
4, 129596, Note_on_c, 1, 42, 0
4, 129600, Note_on_c, 1, 41, 127
4, 130076, Note_on_c, 1, 41, 0
4, 131400, Note_on_c, 1, 42, 127
4, 131516, Note_on_c, 1, 42, 0
4, 131520, Note_on_c, 1, 47, 127
4, 131819, Note_on_c, 1, 47, 0
4, 131820, Note_on_c, 1, 49, 127
4, 131876, Note_on_c, 1, 49, 0
4, 131880, Note_on_c, 1, 47, 127
4, 131936, Note_on_c, 1, 47, 0
4, 131940, Note_on_c, 1, 45, 127
4, 131996, Note_on_c, 1, 45, 0
4, 132000, Note_on_c, 1, 44, 127
4, 132476, Note_on_c, 1, 44, 0
4, 133320, Note_on_c, 1, 40, 127
4, 133436, Note_on_c, 1, 40, 0
4, 133440, Note_on_c, 1, 45, 127
4, 133739, Note_on_c, 1, 45, 0
4, 133740, Note_on_c, 1, 47, 127
4, 133796, Note_on_c, 1, 47, 0
4, 133800, Note_on_c, 1, 45, 127
4, 133856, Note_on_c, 1, 45, 0
4, 133860, Note_on_c, 1, 44, 127
4, 133916, Note_on_c, 1, 44, 0
4, 133920, Note_on_c, 1, 45, 80
4, 134279, Note_on_c, 1, 45, 0
4, 134280, Note_on_c, 1, 46, 127
4, 134396, Note_on_c, 1, 46, 0
4, 134400, Note_on_c, 1, 47, 80
4, 134759, Note_on_c, 1, 47, 0
4, 134760, Note_on_c, 1, 45, 127
4, 134876, Note_on_c, 1, 45, 0
4, 134880, Note_on_c, 1, 44, 80
4, 135239, Note_on_c, 1, 44, 0
4, 135240, Note_on_c, 1, 47, 127
4, 135356, Note_on_c, 1, 47, 0
4, 135360, Note_on_c, 1, 52, 80
4, 135719, Note_on_c, 1, 52, 0
4, 135720, Note_on_c, 1, 51, 127
4, 135836, Note_on_c, 1, 51, 0
4, 135840, Note_on_c, 1, 49, 80
4, 136199, Note_on_c, 1, 49, 0
4, 136200, Note_on_c, 1, 52, 127
4, 136316, Note_on_c, 1, 52, 0
4, 136320, Note_on_c, 1, 57, 80
4, 136679, Note_on_c, 1, 57, 0
4, 136680, Note_on_c, 1, 56, 127
4, 136796, Note_on_c, 1, 56, 0
4, 136800, Note_on_c, 1, 54, 80
4, 137159, Note_on_c, 1, 54, 0
4, 137160, Note_on_c, 1, 52, 127
4, 137276, Note_on_c, 1, 52, 0
4, 137280, Note_on_c, 1, 51, 80
4, 137639, Note_on_c, 1, 51, 0
4, 137640, Note_on_c, 1, 52, 127
4, 137756, Note_on_c, 1, 52, 0
4, 137760, Note_on_c, 1, 51, 80
4, 138119, Note_on_c, 1, 51, 0
4, 138120, Note_on_c, 1, 49, 127
4, 138236, Note_on_c, 1, 49, 0
4, 138240, Note_on_c, 1, 48, 127
4, 138716, Note_on_c, 1, 48, 0
4, 138960, Note_on_c, 1, 44, 127
4, 139196, Note_on_c, 1, 44, 0
4, 139200, Note_on_c, 1, 49, 80
4, 139559, Note_on_c, 1, 49, 0
4, 139560, Note_on_c, 1, 51, 127
4, 139676, Note_on_c, 1, 51, 0
4, 139680, Note_on_c, 1, 52, 80
4, 140039, Note_on_c, 1, 52, 0
4, 140040, Note_on_c, 1, 54, 127
4, 140156, Note_on_c, 1, 54, 0
4, 140160, Note_on_c, 1, 56, 80
4, 140519, Note_on_c, 1, 56, 0
4, 140520, Note_on_c, 1, 54, 127
4, 140636, Note_on_c, 1, 54, 0
4, 140640, Note_on_c, 1, 56, 80
4, 140999, Note_on_c, 1, 56, 0
4, 141000, Note_on_c, 1, 44, 127
4, 141116, Note_on_c, 1, 44, 0
4, 141120, Note_on_c, 1, 49, 127
4, 151679, Note_on_c, 1, 49, 0
4, 151680, End_track
0, 0, End_of_file
