0, 0, Header, 1, 4, 480
1, 0, Start_track
1, 0, Unknown_meta_event, 8, 34, 67, 111, 110, 116, 114, 97, 112, 117, 110, 99, 116, 117, 115, 32, 88, 73, 32, 97, 32, 52, 32, 40, 65, 32, 61, 32, 52, 49, 53, 32, 72, 122, 41, 0
1, 0, Unknown_meta_event, 9, 26, 66, 87, 86, 32, 49, 48, 56, 48, 32, 84, 104, 101, 32, 65, 114, 116, 32, 111, 102, 32, 70, 117, 103, 117, 101, 0
1, 0, Unknown_meta_event, 10, 11, 74, 46, 32, 83, 46, 32, 66, 97, 99, 104, 0
1, 0, Time_signature, 2, 2, 24, 8
1, 0, Key_signature, 4, "major"
1, 0, Program_c, 0, 46
1, 2, Control_c, 0, 7, 100
1, 4, Control_c, 0, 10, 64
1, 6, Control_c, 0, 91, 30
1, 8, Control_c, 0, 93, 30
1, 4080, Note_on_c, 0, 68, 100
1, 4319, Note_on_c, 0, 68, 0
1, 4320, Note_on_c, 0, 75, 100
1, 4559, Note_on_c, 0, 75, 0
1, 4560, Note_on_c, 0, 73, 100
1, 4799, Note_on_c, 0, 73, 0
1, 5040, Note_on_c, 0, 71, 100
1, 5279, Note_on_c, 0, 71, 0
1, 5280, Note_on_c, 0, 70, 100
1, 5519, Note_on_c, 0, 70, 0
1, 5520, Note_on_c, 0, 68, 100
1, 5759, Note_on_c, 0, 68, 0
1, 6000, Note_on_c, 0, 67, 100
1, 6239, Note_on_c, 0, 67, 0
1, 6240, Note_on_c, 0, 68, 100
1, 6479, Note_on_c, 0, 68, 0
1, 6480, Note_on_c, 0, 70, 100
1, 6719, Note_on_c, 0, 70, 0
1, 6960, Note_on_c, 0, 71, 100
1, 7079, Note_on_c, 0, 71, 0
1, 7080, Note_on_c, 0, 73, 100
1, 7199, Note_on_c, 0, 73, 0
1, 7200, Note_on_c, 0, 71, 100
1, 7439, Note_on_c, 0, 71, 0
1, 7440, Note_on_c, 0, 70, 100
1, 7679, Note_on_c, 0, 70, 0
1, 7680, Note_on_c, 0, 68, 100
1, 7919, Note_on_c, 0, 68, 0
1, 7920, Note_on_c, 0, 70, 100
1, 8159, Note_on_c, 0, 70, 0
1, 8160, Note_on_c, 0, 71, 100
1, 8399, Note_on_c, 0, 71, 0
1, 8400, Note_on_c, 0, 72, 100
1, 8639, Note_on_c, 0, 72, 0
1, 8640, Note_on_c, 0, 73, 100
1, 8879, Note_on_c, 0, 73, 0
1, 8880, Note_on_c, 0, 72, 100
1, 8999, Note_on_c, 0, 72, 0
1, 9000, Note_on_c, 0, 70, 100
1, 9119, Note_on_c, 0, 70, 0
1, 9120, Note_on_c, 0, 72, 100
1, 9359, Note_on_c, 0, 72, 0
1, 9360, Note_on_c, 0, 73, 100
1, 9599, Note_on_c, 0, 73, 0
1, 9600, Note_on_c, 0, 75, 100
1, 9839, Note_on_c, 0, 75, 0
1, 9840, Note_on_c, 0, 78, 100
1, 10079, Note_on_c, 0, 78, 0
1, 10080, Note_on_c, 0, 76, 100
1, 10319, Note_on_c, 0, 76, 0
1, 10320, Note_on_c, 0, 75, 100
1, 10559, Note_on_c, 0, 75, 0
1, 10560, Note_on_c, 0, 80, 100
1, 10799, Note_on_c, 0, 80, 0
1, 10800, Note_on_c, 0, 73, 100
1, 11039, Note_on_c, 0, 73, 0
1, 11040, Note_on_c, 0, 70, 100
1, 11279, Note_on_c, 0, 70, 0
1, 11280, Note_on_c, 0, 72, 100
1, 11519, Note_on_c, 0, 72, 0
1, 11520, Note_on_c, 0, 73, 100
1, 11995, Note_on_c, 0, 73, 0
1, 12000, Note_on_c, 0, 71, 100
1, 12239, Note_on_c, 0, 71, 0
1, 12240, Note_on_c, 0, 70, 100
1, 12479, Note_on_c, 0, 70, 0
1, 12480, Note_on_c, 0, 68, 100
1, 12719, Note_on_c, 0, 68, 0
1, 12720, Note_on_c, 0, 75, 100
1, 12959, Note_on_c, 0, 75, 0
1, 12960, Note_on_c, 0, 73, 100
1, 13199, Note_on_c, 0, 73, 0
1, 13200, Note_on_c, 0, 71, 100
1, 13679, Note_on_c, 0, 71, 0
1, 13680, Note_on_c, 0, 70, 100
1, 13919, Note_on_c, 0, 70, 0
1, 13920, Note_on_c, 0, 68, 100
1, 14159, Note_on_c, 0, 68, 0
1, 14160, Note_on_c, 0, 67, 100
1, 14399, Note_on_c, 0, 67, 0
1, 14400, Note_on_c, 0, 68, 100
1, 14639, Note_on_c, 0, 68, 0
1, 14640, Note_on_c, 0, 63, 100
1, 14879, Note_on_c, 0, 63, 0
1, 15120, Note_on_c, 0, 70, 100
1, 15359, Note_on_c, 0, 70, 0
1, 15360, Note_on_c, 0, 72, 100
1, 15599, Note_on_c, 0, 72, 0
1, 15600, Note_on_c, 0, 73, 100
1, 16075, Note_on_c, 0, 73, 0
1, 16080, Note_on_c, 0, 75, 100
1, 16319, Note_on_c, 0, 75, 0
1, 16320, Note_on_c, 0, 68, 100
1, 16559, Note_on_c, 0, 68, 0
1, 16560, Note_on_c, 0, 80, 100
1, 16679, Note_on_c, 0, 80, 0
1, 16680, Note_on_c, 0, 81, 100
1, 16799, Note_on_c, 0, 81, 0
1, 16800, Note_on_c, 0, 80, 100
1, 17039, Note_on_c, 0, 80, 0
1, 17040, Note_on_c, 0, 78, 100
1, 17279, Note_on_c, 0, 78, 0
1, 17280, Note_on_c, 0, 76, 100
1, 17519, Note_on_c, 0, 76, 0
1, 17520, Note_on_c, 0, 72, 100
1, 17759, Note_on_c, 0, 72, 0
1, 17760, Note_on_c, 0, 73, 100
1, 17999, Note_on_c, 0, 73, 0
1, 19440, Note_on_c, 0, 76, 80
1, 19679, Note_on_c, 0, 76, 0
1, 19680, Note_on_c, 0, 75, 100
1, 19919, Note_on_c, 0, 75, 0
1, 19920, Note_on_c, 0, 73, 100
1, 20159, Note_on_c, 0, 73, 0
1, 20160, Note_on_c, 0, 72, 100
1, 20399, Note_on_c, 0, 72, 0
1, 20400, Note_on_c, 0, 75, 100
1, 20639, Note_on_c, 0, 75, 0
1, 20640, Note_on_c, 0, 80, 100
1, 20879, Note_on_c, 0, 80, 0
1, 20880, Note_on_c, 0, 78, 100
1, 21119, Note_on_c, 0, 78, 0
1, 21360, Note_on_c, 0, 76, 100
1, 21599, Note_on_c, 0, 76, 0
1, 21600, Note_on_c, 0, 75, 100
1, 21839, Note_on_c, 0, 75, 0
1, 21840, Note_on_c, 0, 73, 100
1, 22079, Note_on_c, 0, 73, 0
1, 22320, Note_on_c, 0, 72, 100
1, 22559, Note_on_c, 0, 72, 0
1, 22560, Note_on_c, 0, 73, 100
1, 22799, Note_on_c, 0, 73, 0
1, 22800, Note_on_c, 0, 75, 100
1, 23039, Note_on_c, 0, 75, 0
1, 23280, Note_on_c, 0, 76, 100
1, 23399, Note_on_c, 0, 76, 0
1, 23400, Note_on_c, 0, 78, 100
1, 23519, Note_on_c, 0, 78, 0
1, 23520, Note_on_c, 0, 76, 100
1, 23759, Note_on_c, 0, 76, 0
1, 23760, Note_on_c, 0, 75, 100
1, 23999, Note_on_c, 0, 75, 0
1, 24000, Note_on_c, 0, 73, 80
1, 24719, Note_on_c, 0, 73, 0
1, 24720, Note_on_c, 0, 72, 100
1, 24959, Note_on_c, 0, 72, 0
1, 24960, Note_on_c, 0, 73, 100
1, 25435, Note_on_c, 0, 73, 0
1, 26160, Note_on_c, 0, 61, 100
1, 26399, Note_on_c, 0, 61, 0
1, 26400, Note_on_c, 0, 62, 100
1, 26639, Note_on_c, 0, 62, 0
1, 26640, Note_on_c, 0, 63, 100
1, 26879, Note_on_c, 0, 63, 0
1, 26880, Note_on_c, 0, 64, 100
1, 27119, Note_on_c, 0, 64, 0
1, 27120, Note_on_c, 0, 65, 100
1, 27359, Note_on_c, 0, 65, 0
1, 27360, Note_on_c, 0, 66, 100
1, 27599, Note_on_c, 0, 66, 0
1, 27600, Note_on_c, 0, 67, 100
1, 27839, Note_on_c, 0, 67, 0
1, 27840, Note_on_c, 0, 68, 100
1, 27959, Note_on_c, 0, 68, 0
1, 27960, Note_on_c, 0, 70, 100
1, 28079, Note_on_c, 0, 70, 0
1, 28080, Note_on_c, 0, 71, 100
1, 28199, Note_on_c, 0, 71, 0
1, 28200, Note_on_c, 0, 68, 100
1, 28319, Note_on_c, 0, 68, 0
1, 28320, Note_on_c, 0, 76, 80
1, 28679, Note_on_c, 0, 76, 0
1, 28680, Note_on_c, 0, 75, 100
1, 28739, Note_on_c, 0, 75, 0
1, 28740, Note_on_c, 0, 73, 100
1, 28799, Note_on_c, 0, 73, 0
1, 28800, Note_on_c, 0, 72, 100
1, 29039, Note_on_c, 0, 72, 0
1, 29040, Note_on_c, 0, 73, 100
1, 29279, Note_on_c, 0, 73, 0
1, 29280, Note_on_c, 0, 78, 100
1, 29999, Note_on_c, 0, 78, 0
1, 30000, Note_on_c, 0, 76, 100
1, 30119, Note_on_c, 0, 76, 0
1, 30120, Note_on_c, 0, 75, 100
1, 30239, Note_on_c, 0, 75, 0
1, 30240, Note_on_c, 0, 76, 100
1, 30359, Note_on_c, 0, 76, 0
1, 30360, Note_on_c, 0, 78, 100
1, 30479, Note_on_c, 0, 78, 0
1, 30480, Note_on_c, 0, 76, 100
1, 30599, Note_on_c, 0, 76, 0
1, 30600, Note_on_c, 0, 75, 100
1, 30719, Note_on_c, 0, 75, 0
1, 30720, Note_on_c, 0, 73, 100
1, 30959, Note_on_c, 0, 73, 0
1, 30960, Note_on_c, 0, 78, 100
1, 31079, Note_on_c, 0, 78, 0
1, 31080, Note_on_c, 0, 77, 100
1, 31199, Note_on_c, 0, 77, 0
1, 31200, Note_on_c, 0, 78, 100
1, 31319, Note_on_c, 0, 78, 0
1, 31320, Note_on_c, 0, 80, 100
1, 31439, Note_on_c, 0, 80, 0
1, 31440, Note_on_c, 0, 78, 100
1, 31559, Note_on_c, 0, 78, 0
1, 31560, Note_on_c, 0, 76, 100
1, 31679, Note_on_c, 0, 76, 0
1, 31680, Note_on_c, 0, 75, 100
1, 31919, Note_on_c, 0, 75, 0
1, 31920, Note_on_c, 0, 77, 100
1, 32159, Note_on_c, 0, 77, 0
1, 32160, Note_on_c, 0, 78, 100
1, 32399, Note_on_c, 0, 78, 0
1, 32400, Note_on_c, 0, 79, 100
1, 32639, Note_on_c, 0, 79, 0
1, 32640, Note_on_c, 0, 80, 100
1, 32759, Note_on_c, 0, 80, 0
1, 32760, Note_on_c, 0, 78, 100
1, 32879, Note_on_c, 0, 78, 0
1, 32880, Note_on_c, 0, 76, 100
1, 32999, Note_on_c, 0, 76, 0
1, 33000, Note_on_c, 0, 75, 100
1, 33119, Note_on_c, 0, 75, 0
1, 33120, Note_on_c, 0, 73, 100
1, 33239, Note_on_c, 0, 73, 0
1, 33240, Note_on_c, 0, 72, 100
1, 33359, Note_on_c, 0, 72, 0
1, 33360, Note_on_c, 0, 73, 100
1, 33719, Note_on_c, 0, 73, 0
1, 33720, Note_on_c, 0, 71, 100
1, 33839, Note_on_c, 0, 71, 0
1, 33840, Note_on_c, 0, 69, 100
1, 33959, Note_on_c, 0, 69, 0
1, 33960, Note_on_c, 0, 68, 100
1, 34079, Note_on_c, 0, 68, 0
1, 34080, Note_on_c, 0, 67, 100
1, 34199, Note_on_c, 0, 67, 0
1, 34200, Note_on_c, 0, 68, 100
1, 34319, Note_on_c, 0, 68, 0
1, 34320, Note_on_c, 0, 67, 100
1, 34439, Note_on_c, 0, 67, 0
1, 34440, Note_on_c, 0, 68, 100
1, 34559, Note_on_c, 0, 68, 0
1, 34560, Note_on_c, 0, 67, 100
1, 34799, Note_on_c, 0, 67, 0
1, 34800, Note_on_c, 0, 75, 100
1, 35275, Note_on_c, 0, 75, 0
1, 35280, Note_on_c, 0, 74, 100
1, 35519, Note_on_c, 0, 74, 0
1, 35520, Note_on_c, 0, 73, 100
1, 35759, Note_on_c, 0, 73, 0
1, 35760, Note_on_c, 0, 72, 100
1, 35999, Note_on_c, 0, 72, 0
1, 36000, Note_on_c, 0, 71, 100
1, 36239, Note_on_c, 0, 71, 0
1, 36240, Note_on_c, 0, 70, 100
1, 36599, Note_on_c, 0, 70, 0
1, 36600, Note_on_c, 0, 68, 100
1, 36719, Note_on_c, 0, 68, 0
1, 36840, Note_on_c, 0, 80, 100
1, 36959, Note_on_c, 0, 80, 0
1, 36960, Note_on_c, 0, 70, 100
1, 37079, Note_on_c, 0, 70, 0
1, 37080, Note_on_c, 0, 68, 100
1, 37199, Note_on_c, 0, 68, 0
1, 37200, Note_on_c, 0, 70, 100
1, 37319, Note_on_c, 0, 70, 0
1, 37320, Note_on_c, 0, 72, 100
1, 37439, Note_on_c, 0, 72, 0
1, 37440, Note_on_c, 0, 73, 100
1, 37679, Note_on_c, 0, 73, 0
1, 37800, Note_on_c, 0, 73, 100
1, 37919, Note_on_c, 0, 73, 0
1, 37920, Note_on_c, 0, 75, 100
1, 38039, Note_on_c, 0, 75, 0
1, 38040, Note_on_c, 0, 73, 100
1, 38159, Note_on_c, 0, 73, 0
1, 38160, Note_on_c, 0, 75, 100
1, 38279, Note_on_c, 0, 75, 0
1, 38280, Note_on_c, 0, 77, 100
1, 38399, Note_on_c, 0, 77, 0
1, 38400, Note_on_c, 0, 78, 100
1, 38519, Note_on_c, 0, 78, 0
1, 38520, Note_on_c, 0, 66, 100
1, 38639, Note_on_c, 0, 66, 0
1, 38640, Note_on_c, 0, 78, 100
1, 38879, Note_on_c, 0, 78, 0
1, 38880, Note_on_c, 0, 77, 100
1, 39119, Note_on_c, 0, 77, 0
1, 39120, Note_on_c, 0, 76, 100
1, 39479, Note_on_c, 0, 76, 0
1, 39480, Note_on_c, 0, 73, 100
1, 39599, Note_on_c, 0, 73, 0
1, 39600, Note_on_c, 0, 75, 100
1, 39839, Note_on_c, 0, 75, 0
1, 39840, Note_on_c, 0, 76, 100
1, 40079, Note_on_c, 0, 76, 0
1, 40080, Note_on_c, 0, 78, 100
1, 40319, Note_on_c, 0, 78, 0
1, 40320, Note_on_c, 0, 71, 100
1, 40559, Note_on_c, 0, 71, 0
1, 40560, Note_on_c, 0, 76, 100
1, 40799, Note_on_c, 0, 76, 0
1, 40800, Note_on_c, 0, 75, 100
1, 41039, Note_on_c, 0, 75, 0
1, 41040, Note_on_c, 0, 74, 100
1, 41399, Note_on_c, 0, 74, 0
1, 41400, Note_on_c, 0, 73, 100
1, 41519, Note_on_c, 0, 73, 0
1, 41520, Note_on_c, 0, 71, 100
1, 41639, Note_on_c, 0, 71, 0
1, 41640, Note_on_c, 0, 70, 100
1, 41759, Note_on_c, 0, 70, 0
1, 41760, Note_on_c, 0, 71, 100
1, 41879, Note_on_c, 0, 71, 0
1, 41880, Note_on_c, 0, 69, 100
1, 41999, Note_on_c, 0, 69, 0
1, 42000, Note_on_c, 0, 68, 100
1, 42359, Note_on_c, 0, 68, 0
1, 42360, Note_on_c, 0, 70, 100
1, 42479, Note_on_c, 0, 70, 0
1, 42480, Note_on_c, 0, 71, 100
1, 42839, Note_on_c, 0, 71, 0
1, 42840, Note_on_c, 0, 70, 100
1, 42959, Note_on_c, 0, 70, 0
1, 42960, Note_on_c, 0, 72, 100
1, 43079, Note_on_c, 0, 72, 0
1, 43080, Note_on_c, 0, 75, 100
1, 43319, Note_on_c, 0, 75, 0
1, 43320, Note_on_c, 0, 73, 100
1, 43559, Note_on_c, 0, 73, 0
1, 43560, Note_on_c, 0, 72, 100
1, 43679, Note_on_c, 0, 72, 0
1, 43680, Note_on_c, 0, 73, 100
1, 43799, Note_on_c, 0, 73, 0
1, 43800, Note_on_c, 0, 68, 100
1, 44039, Note_on_c, 0, 68, 0
1, 44040, Note_on_c, 0, 67, 100
1, 44159, Note_on_c, 0, 67, 0
1, 44160, Note_on_c, 0, 68, 100
1, 44635, Note_on_c, 0, 68, 0
1, 45000, Note_on_c, 0, 68, 100
1, 45119, Note_on_c, 0, 68, 0
1, 45120, Note_on_c, 0, 69, 100
1, 45359, Note_on_c, 0, 69, 0
1, 45360, Note_on_c, 0, 70, 100
1, 45599, Note_on_c, 0, 70, 0
1, 45600, Note_on_c, 0, 71, 100
1, 46199, Note_on_c, 0, 71, 0
1, 46200, Note_on_c, 0, 73, 100
1, 46319, Note_on_c, 0, 73, 0
1, 46320, Note_on_c, 0, 71, 100
1, 46439, Note_on_c, 0, 71, 0
1, 46440, Note_on_c, 0, 69, 100
1, 46559, Note_on_c, 0, 69, 0
1, 46560, Note_on_c, 0, 68, 100
1, 46799, Note_on_c, 0, 68, 0
1, 46800, Note_on_c, 0, 73, 100
1, 47159, Note_on_c, 0, 73, 0
1, 47160, Note_on_c, 0, 75, 100
1, 47279, Note_on_c, 0, 75, 0
1, 47280, Note_on_c, 0, 73, 100
1, 47399, Note_on_c, 0, 73, 0
1, 47400, Note_on_c, 0, 71, 100
1, 47519, Note_on_c, 0, 71, 0
1, 47520, Note_on_c, 0, 70, 100
1, 47759, Note_on_c, 0, 70, 0
1, 47760, Note_on_c, 0, 75, 100
1, 48119, Note_on_c, 0, 75, 0
1, 48120, Note_on_c, 0, 76, 100
1, 48239, Note_on_c, 0, 76, 0
1, 48240, Note_on_c, 0, 75, 100
1, 48359, Note_on_c, 0, 75, 0
1, 48360, Note_on_c, 0, 73, 100
1, 48479, Note_on_c, 0, 73, 0
1, 48480, Note_on_c, 0, 71, 100
1, 48719, Note_on_c, 0, 71, 0
1, 48720, Note_on_c, 0, 72, 100
1, 48959, Note_on_c, 0, 72, 0
1, 48960, Note_on_c, 0, 73, 100
1, 49199, Note_on_c, 0, 73, 0
1, 49200, Note_on_c, 0, 75, 100
1, 49439, Note_on_c, 0, 75, 0
1, 49440, Note_on_c, 0, 76, 100
1, 49679, Note_on_c, 0, 76, 0
1, 49680, Note_on_c, 0, 77, 100
1, 49919, Note_on_c, 0, 77, 0
1, 49920, Note_on_c, 0, 78, 100
1, 50159, Note_on_c, 0, 78, 0
1, 50160, Note_on_c, 0, 80, 100
1, 50399, Note_on_c, 0, 80, 0
1, 50400, Note_on_c, 0, 81, 100
1, 50999, Note_on_c, 0, 81, 0
1, 51000, Note_on_c, 0, 75, 100
1, 51119, Note_on_c, 0, 75, 0
1, 51120, Note_on_c, 0, 80, 100
1, 51359, Note_on_c, 0, 80, 0
1, 51360, Note_on_c, 0, 79, 100
1, 51599, Note_on_c, 0, 79, 0
1, 51600, Note_on_c, 0, 78, 100
1, 51839, Note_on_c, 0, 78, 0
1, 51840, Note_on_c, 0, 77, 100
1, 52079, Note_on_c, 0, 77, 0
1, 52080, Note_on_c, 0, 76, 100
1, 52319, Note_on_c, 0, 76, 0
1, 52320, Note_on_c, 0, 75, 100
1, 52559, Note_on_c, 0, 75, 0
1, 52560, Note_on_c, 0, 74, 100
1, 52799, Note_on_c, 0, 74, 0
1, 52800, Note_on_c, 0, 73, 80
1, 53159, Note_on_c, 0, 73, 0
1, 53160, Note_on_c, 0, 72, 100
1, 53279, Note_on_c, 0, 72, 0
1, 53280, Note_on_c, 0, 73, 100
1, 53399, Note_on_c, 0, 73, 0
1, 53400, Note_on_c, 0, 72, 80
1, 53519, Note_on_c, 0, 72, 0
1, 53520, Note_on_c, 0, 73, 100
1, 53639, Note_on_c, 0, 73, 0
1, 53640, Note_on_c, 0, 75, 100
1, 53759, Note_on_c, 0, 75, 0
1, 53760, Note_on_c, 0, 72, 100
1, 53999, Note_on_c, 0, 72, 0
1, 54000, Note_on_c, 0, 76, 100
1, 54239, Note_on_c, 0, 76, 0
1, 54240, Note_on_c, 0, 70, 100
1, 54479, Note_on_c, 0, 70, 0
1, 54480, Note_on_c, 0, 69, 100
1, 54719, Note_on_c, 0, 69, 0
1, 54720, Note_on_c, 0, 68, 100
1, 54959, Note_on_c, 0, 68, 0
1, 54960, Note_on_c, 0, 73, 100
1, 55199, Note_on_c, 0, 73, 0
1, 55200, Note_on_c, 0, 66, 100
1, 55675, Note_on_c, 0, 66, 0
1, 55680, Note_on_c, 0, 64, 100
1, 55919, Note_on_c, 0, 64, 0
1, 55920, Note_on_c, 0, 66, 100
1, 56159, Note_on_c, 0, 66, 0
1, 56160, Note_on_c, 0, 68, 100
1, 56279, Note_on_c, 0, 68, 0
1, 56280, Note_on_c, 0, 66, 100
1, 56399, Note_on_c, 0, 66, 0
1, 56400, Note_on_c, 0, 68, 100
1, 56639, Note_on_c, 0, 68, 0
1, 56640, Note_on_c, 0, 61, 100
1, 56879, Note_on_c, 0, 61, 0
1, 56880, Note_on_c, 0, 66, 100
1, 57119, Note_on_c, 0, 66, 0
1, 57120, Note_on_c, 0, 65, 100
1, 57359, Note_on_c, 0, 65, 0
1, 57360, Note_on_c, 0, 64, 100
1, 57839, Note_on_c, 0, 64, 0
1, 57840, Note_on_c, 0, 63, 100
1, 58079, Note_on_c, 0, 63, 0
1, 58080, Note_on_c, 0, 64, 100
1, 58319, Note_on_c, 0, 64, 0
1, 58320, Note_on_c, 0, 66, 100
1, 58559, Note_on_c, 0, 66, 0
1, 58560, Note_on_c, 0, 59, 100
1, 58799, Note_on_c, 0, 59, 0
1, 58920, Note_on_c, 0, 71, 100
1, 59039, Note_on_c, 0, 71, 0
1, 59040, Note_on_c, 0, 73, 100
1, 59159, Note_on_c, 0, 73, 0
1, 59160, Note_on_c, 0, 71, 100
1, 59279, Note_on_c, 0, 71, 0
1, 59280, Note_on_c, 0, 73, 100
1, 59399, Note_on_c, 0, 73, 0
1, 59400, Note_on_c, 0, 75, 100
1, 59519, Note_on_c, 0, 75, 0
1, 59520, Note_on_c, 0, 68, 100
1, 59759, Note_on_c, 0, 68, 0
1, 59760, Note_on_c, 0, 76, 100
1, 59999, Note_on_c, 0, 76, 0
1, 60000, Note_on_c, 0, 75, 100
1, 60239, Note_on_c, 0, 75, 0
1, 60240, Note_on_c, 0, 74, 100
1, 60599, Note_on_c, 0, 74, 0
1, 60600, Note_on_c, 0, 73, 100
1, 60719, Note_on_c, 0, 73, 0
1, 60840, Note_on_c, 0, 73, 100
1, 60959, Note_on_c, 0, 73, 0
1, 60960, Note_on_c, 0, 74, 100
1, 61079, Note_on_c, 0, 74, 0
1, 61080, Note_on_c, 0, 73, 100
1, 61199, Note_on_c, 0, 73, 0
1, 61200, Note_on_c, 0, 74, 100
1, 61319, Note_on_c, 0, 74, 0
1, 61320, Note_on_c, 0, 76, 100
1, 61439, Note_on_c, 0, 76, 0
1, 61440, Note_on_c, 0, 78, 100
1, 61679, Note_on_c, 0, 78, 0
1, 61800, Note_on_c, 0, 78, 100
1, 61919, Note_on_c, 0, 78, 0
1, 61920, Note_on_c, 0, 80, 100
1, 62039, Note_on_c, 0, 80, 0
1, 62040, Note_on_c, 0, 79, 100
1, 62159, Note_on_c, 0, 79, 0
1, 62160, Note_on_c, 0, 80, 100
1, 62279, Note_on_c, 0, 80, 0
1, 62280, Note_on_c, 0, 82, 100
1, 62399, Note_on_c, 0, 82, 0
1, 62400, Note_on_c, 0, 79, 100
1, 62519, Note_on_c, 0, 79, 0
1, 62520, Note_on_c, 0, 82, 100
1, 62639, Note_on_c, 0, 82, 0
1, 62640, Note_on_c, 0, 75, 100
1, 62879, Note_on_c, 0, 75, 0
1, 62880, Note_on_c, 0, 74, 100
1, 63119, Note_on_c, 0, 74, 0
1, 63120, Note_on_c, 0, 73, 100
1, 63359, Note_on_c, 0, 73, 0
1, 63360, Note_on_c, 0, 72, 100
1, 63599, Note_on_c, 0, 72, 0
1, 63600, Note_on_c, 0, 76, 100
1, 63839, Note_on_c, 0, 76, 0
1, 63840, Note_on_c, 0, 75, 100
1, 64079, Note_on_c, 0, 75, 0
1, 64080, Note_on_c, 0, 74, 100
1, 64319, Note_on_c, 0, 74, 0
1, 64320, Note_on_c, 0, 75, 100
1, 64555, Note_on_c, 0, 75, 0
1, 64560, Note_on_c, 0, 75, 100
1, 64799, Note_on_c, 0, 75, 0
1, 64800, Note_on_c, 0, 74, 100
1, 65039, Note_on_c, 0, 74, 0
1, 65040, Note_on_c, 0, 73, 100
1, 65279, Note_on_c, 0, 73, 0
1, 65280, Note_on_c, 0, 72, 100
1, 65519, Note_on_c, 0, 72, 0
1, 65520, Note_on_c, 0, 71, 100
1, 65759, Note_on_c, 0, 71, 0
1, 65760, Note_on_c, 0, 70, 100
1, 65999, Note_on_c, 0, 70, 0
1, 66000, Note_on_c, 0, 69, 100
1, 66239, Note_on_c, 0, 69, 0
1, 66240, Note_on_c, 0, 68, 80
1, 66959, Note_on_c, 0, 68, 0
1, 66960, Note_on_c, 0, 67, 100
1, 67199, Note_on_c, 0, 67, 0
1, 67200, Note_on_c, 0, 68, 100
1, 67439, Note_on_c, 0, 68, 0
1, 67920, Note_on_c, 0, 73, 100
1, 68155, Note_on_c, 0, 73, 0
1, 68160, Note_on_c, 0, 73, 100
1, 68399, Note_on_c, 0, 73, 0
1, 68400, Note_on_c, 0, 71, 100
1, 68639, Note_on_c, 0, 71, 0
1, 68880, Note_on_c, 0, 69, 100
1, 69115, Note_on_c, 0, 69, 0
1, 69120, Note_on_c, 0, 69, 100
1, 69359, Note_on_c, 0, 69, 0
1, 69360, Note_on_c, 0, 68, 100
1, 69479, Note_on_c, 0, 68, 0
1, 69480, Note_on_c, 0, 70, 100
1, 69599, Note_on_c, 0, 70, 0
1, 69600, Note_on_c, 0, 71, 100
1, 69839, Note_on_c, 0, 71, 0
1, 69840, Note_on_c, 0, 70, 100
1, 69959, Note_on_c, 0, 70, 0
1, 69960, Note_on_c, 0, 71, 100
1, 70079, Note_on_c, 0, 71, 0
1, 70080, Note_on_c, 0, 73, 100
1, 70319, Note_on_c, 0, 73, 0
1, 70320, Note_on_c, 0, 71, 100
1, 70439, Note_on_c, 0, 71, 0
1, 70440, Note_on_c, 0, 73, 100
1, 70559, Note_on_c, 0, 73, 0
1, 70560, Note_on_c, 0, 75, 100
1, 70799, Note_on_c, 0, 75, 0
1, 70800, Note_on_c, 0, 73, 100
1, 71279, Note_on_c, 0, 73, 0
1, 71280, Note_on_c, 0, 71, 100
1, 71519, Note_on_c, 0, 71, 0
1, 71520, Note_on_c, 0, 70, 100
1, 71759, Note_on_c, 0, 70, 0
1, 71760, Note_on_c, 0, 72, 100
1, 71999, Note_on_c, 0, 72, 0
1, 72000, Note_on_c, 0, 73, 100
1, 72239, Note_on_c, 0, 73, 0
1, 72240, Note_on_c, 0, 80, 100
1, 72479, Note_on_c, 0, 80, 0
1, 72480, Note_on_c, 0, 73, 100
1, 72719, Note_on_c, 0, 73, 0
1, 72720, Note_on_c, 0, 75, 100
1, 72959, Note_on_c, 0, 75, 0
1, 73200, Note_on_c, 0, 76, 100
1, 73439, Note_on_c, 0, 76, 0
1, 73440, Note_on_c, 0, 78, 100
1, 73679, Note_on_c, 0, 78, 0
1, 73680, Note_on_c, 0, 80, 100
1, 73919, Note_on_c, 0, 80, 0
1, 74160, Note_on_c, 0, 81, 100
1, 74399, Note_on_c, 0, 81, 0
1, 74400, Note_on_c, 0, 80, 100
1, 74639, Note_on_c, 0, 80, 0
1, 74640, Note_on_c, 0, 78, 100
1, 74879, Note_on_c, 0, 78, 0
1, 75120, Note_on_c, 0, 76, 100
1, 75239, Note_on_c, 0, 76, 0
1, 75240, Note_on_c, 0, 75, 100
1, 75359, Note_on_c, 0, 75, 0
1, 75360, Note_on_c, 0, 76, 100
1, 75599, Note_on_c, 0, 76, 0
1, 75600, Note_on_c, 0, 78, 100
1, 75839, Note_on_c, 0, 78, 0
1, 75840, Note_on_c, 0, 80, 80
1, 76199, Note_on_c, 0, 80, 0
1, 76200, Note_on_c, 0, 78, 100
1, 76319, Note_on_c, 0, 78, 0
1, 76320, Note_on_c, 0, 77, 100
1, 76559, Note_on_c, 0, 77, 0
1, 76560, Note_on_c, 0, 76, 100
1, 76799, Note_on_c, 0, 76, 0
1, 76800, Note_on_c, 0, 75, 100
1, 77039, Note_on_c, 0, 75, 0
1, 77040, Note_on_c, 0, 74, 100
1, 77279, Note_on_c, 0, 74, 0
1, 77280, Note_on_c, 0, 73, 100
1, 77519, Note_on_c, 0, 73, 0
1, 77520, Note_on_c, 0, 72, 100
1, 77759, Note_on_c, 0, 72, 0
1, 77760, Note_on_c, 0, 71, 100
1, 77999, Note_on_c, 0, 71, 0
1, 78000, Note_on_c, 0, 70, 100
1, 78239, Note_on_c, 0, 70, 0
1, 78240, Note_on_c, 0, 72, 100
1, 78479, Note_on_c, 0, 72, 0
1, 78480, Note_on_c, 0, 73, 100
1, 78719, Note_on_c, 0, 73, 0
1, 78720, Note_on_c, 0, 75, 100
1, 79799, Note_on_c, 0, 75, 0
1, 79800, Note_on_c, 0, 73, 100
1, 79919, Note_on_c, 0, 73, 0
1, 79920, Note_on_c, 0, 72, 100
1, 80039, Note_on_c, 0, 72, 0
1, 80040, Note_on_c, 0, 75, 100
1, 80159, Note_on_c, 0, 75, 0
1, 80160, Note_on_c, 0, 73, 100
1, 80279, Note_on_c, 0, 73, 0
1, 80280, Note_on_c, 0, 71, 100
1, 80399, Note_on_c, 0, 71, 0
1, 80400, Note_on_c, 0, 69, 100
1, 80519, Note_on_c, 0, 69, 0
1, 80520, Note_on_c, 0, 73, 100
1, 80639, Note_on_c, 0, 73, 0
1, 80640, Note_on_c, 0, 71, 100
1, 80759, Note_on_c, 0, 71, 0
1, 80760, Note_on_c, 0, 69, 100
1, 80879, Note_on_c, 0, 69, 0
1, 80880, Note_on_c, 0, 68, 100
1, 80999, Note_on_c, 0, 68, 0
1, 81000, Note_on_c, 0, 71, 100
1, 81119, Note_on_c, 0, 71, 0
1, 81120, Note_on_c, 0, 69, 100
1, 81239, Note_on_c, 0, 69, 0
1, 81240, Note_on_c, 0, 78, 100
1, 81479, Note_on_c, 0, 78, 0
1, 81480, Note_on_c, 0, 77, 100
1, 81599, Note_on_c, 0, 77, 0
1, 81600, Note_on_c, 0, 78, 100
1, 81719, Note_on_c, 0, 78, 0
1, 81720, Note_on_c, 0, 76, 100
1, 81839, Note_on_c, 0, 76, 0
1, 81840, Note_on_c, 0, 75, 100
1, 81959, Note_on_c, 0, 75, 0
1, 81960, Note_on_c, 0, 73, 100
1, 82079, Note_on_c, 0, 73, 0
1, 82080, Note_on_c, 0, 71, 100
1, 82199, Note_on_c, 0, 71, 0
1, 82200, Note_on_c, 0, 73, 100
1, 82319, Note_on_c, 0, 73, 0
1, 82320, Note_on_c, 0, 69, 100
1, 82439, Note_on_c, 0, 69, 0
1, 82440, Note_on_c, 0, 71, 100
1, 82559, Note_on_c, 0, 71, 0
1, 82560, Note_on_c, 0, 68, 100
1, 83159, Note_on_c, 0, 68, 0
1, 83160, Note_on_c, 0, 69, 100
1, 83279, Note_on_c, 0, 69, 0
1, 83280, Note_on_c, 0, 68, 100
1, 83399, Note_on_c, 0, 68, 0
1, 83400, Note_on_c, 0, 69, 100
1, 83519, Note_on_c, 0, 69, 0
1, 83520, Note_on_c, 0, 71, 100
1, 83759, Note_on_c, 0, 71, 0
1, 83760, Note_on_c, 0, 76, 100
1, 84235, Note_on_c, 0, 76, 0
1, 84240, Note_on_c, 0, 75, 100
1, 84479, Note_on_c, 0, 75, 0
1, 84480, Note_on_c, 0, 76, 100
1, 84955, Note_on_c, 0, 76, 0
1, 89040, Note_on_c, 0, 69, 100
1, 89399, Note_on_c, 0, 69, 0
1, 89400, Note_on_c, 0, 68, 100
1, 89519, Note_on_c, 0, 68, 0
1, 89520, Note_on_c, 0, 71, 100
1, 89605, Note_on_c, 0, 71, 0
1, 89640, Note_on_c, 0, 71, 100
1, 89725, Note_on_c, 0, 71, 0
1, 89760, Note_on_c, 0, 71, 100
1, 89879, Note_on_c, 0, 71, 0
1, 89880, Note_on_c, 0, 70, 100
1, 89999, Note_on_c, 0, 70, 0
1, 90000, Note_on_c, 0, 73, 100
1, 90085, Note_on_c, 0, 73, 0
1, 90120, Note_on_c, 0, 73, 100
1, 90205, Note_on_c, 0, 73, 0
1, 90240, Note_on_c, 0, 73, 100
1, 90359, Note_on_c, 0, 73, 0
1, 90360, Note_on_c, 0, 72, 100
1, 90479, Note_on_c, 0, 72, 0
1, 90480, Note_on_c, 0, 75, 100
1, 90565, Note_on_c, 0, 75, 0
1, 90600, Note_on_c, 0, 75, 100
1, 90685, Note_on_c, 0, 75, 0
1, 90720, Note_on_c, 0, 75, 100
1, 90839, Note_on_c, 0, 75, 0
1, 90840, Note_on_c, 0, 73, 100
1, 90959, Note_on_c, 0, 73, 0
1, 90960, Note_on_c, 0, 76, 100
1, 91045, Note_on_c, 0, 76, 0
1, 91080, Note_on_c, 0, 76, 100
1, 91165, Note_on_c, 0, 76, 0
1, 91200, Note_on_c, 0, 76, 100
1, 91319, Note_on_c, 0, 76, 0
1, 91320, Note_on_c, 0, 75, 100
1, 91439, Note_on_c, 0, 75, 0
1, 91440, Note_on_c, 0, 77, 100
1, 91559, Note_on_c, 0, 77, 0
1, 91560, Note_on_c, 0, 79, 100
1, 91679, Note_on_c, 0, 79, 0
1, 91680, Note_on_c, 0, 80, 100
1, 91799, Note_on_c, 0, 80, 0
1, 91800, Note_on_c, 0, 79, 100
1, 91919, Note_on_c, 0, 79, 0
1, 91920, Note_on_c, 0, 80, 100
1, 92279, Note_on_c, 0, 80, 0
1, 92280, Note_on_c, 0, 77, 100
1, 92399, Note_on_c, 0, 77, 0
1, 92400, Note_on_c, 0, 78, 100
1, 92485, Note_on_c, 0, 78, 0
1, 92520, Note_on_c, 0, 78, 100
1, 92605, Note_on_c, 0, 78, 0
1, 92640, Note_on_c, 0, 78, 100
1, 92759, Note_on_c, 0, 78, 0
1, 92760, Note_on_c, 0, 75, 100
1, 92879, Note_on_c, 0, 75, 0
1, 92880, Note_on_c, 0, 76, 100
1, 92965, Note_on_c, 0, 76, 0
1, 93000, Note_on_c, 0, 76, 100
1, 93085, Note_on_c, 0, 76, 0
1, 93120, Note_on_c, 0, 75, 100
1, 93595, Note_on_c, 0, 75, 0
1, 93600, Note_on_c, 0, 74, 100
1, 93839, Note_on_c, 0, 74, 0
1, 93840, Note_on_c, 0, 73, 100
1, 94199, Note_on_c, 0, 73, 0
1, 94200, Note_on_c, 0, 70, 100
1, 94319, Note_on_c, 0, 70, 0
1, 94320, Note_on_c, 0, 71, 100
1, 94439, Note_on_c, 0, 71, 0
1, 94440, Note_on_c, 0, 75, 100
1, 94559, Note_on_c, 0, 75, 0
1, 94560, Note_on_c, 0, 68, 100
1, 94799, Note_on_c, 0, 68, 0
1, 94800, Note_on_c, 0, 70, 100
1, 95159, Note_on_c, 0, 70, 0
1, 95160, Note_on_c, 0, 67, 100
1, 95279, Note_on_c, 0, 67, 0
1, 95280, Note_on_c, 0, 68, 100
1, 95399, Note_on_c, 0, 68, 0
1, 95400, Note_on_c, 0, 71, 100
1, 95519, Note_on_c, 0, 71, 0
1, 95520, Note_on_c, 0, 70, 100
1, 95639, Note_on_c, 0, 70, 0
1, 95640, Note_on_c, 0, 73, 100
1, 95759, Note_on_c, 0, 73, 0
1, 95760, Note_on_c, 0, 72, 100
1, 95879, Note_on_c, 0, 72, 0
1, 95880, Note_on_c, 0, 75, 100
1, 95999, Note_on_c, 0, 75, 0
1, 96000, Note_on_c, 0, 73, 100
1, 96119, Note_on_c, 0, 73, 0
1, 96120, Note_on_c, 0, 72, 100
1, 96239, Note_on_c, 0, 72, 0
1, 96240, Note_on_c, 0, 73, 100
1, 96715, Note_on_c, 0, 73, 0
1, 96720, Note_on_c, 0, 78, 80
1, 96959, Note_on_c, 0, 78, 0
1, 96960, Note_on_c, 0, 76, 80
1, 97199, Note_on_c, 0, 76, 0
1, 97200, Note_on_c, 0, 68, 100
1, 97319, Note_on_c, 0, 68, 0
1, 97320, Note_on_c, 0, 66, 100
1, 97439, Note_on_c, 0, 66, 0
1, 97440, Note_on_c, 0, 68, 100
1, 97679, Note_on_c, 0, 68, 0
1, 97680, Note_on_c, 0, 69, 100
1, 98039, Note_on_c, 0, 69, 0
1, 98040, Note_on_c, 0, 66, 100
1, 98159, Note_on_c, 0, 66, 0
1, 98160, Note_on_c, 0, 68, 100
1, 98245, Note_on_c, 0, 68, 0
1, 98280, Note_on_c, 0, 68, 100
1, 98365, Note_on_c, 0, 68, 0
1, 98400, Note_on_c, 0, 68, 100
1, 98519, Note_on_c, 0, 68, 0
1, 98520, Note_on_c, 0, 64, 100
1, 98639, Note_on_c, 0, 64, 0
1, 98640, Note_on_c, 0, 66, 100
1, 98725, Note_on_c, 0, 66, 0
1, 98760, Note_on_c, 0, 66, 100
1, 98845, Note_on_c, 0, 66, 0
1, 98880, Note_on_c, 0, 64, 100
1, 98999, Note_on_c, 0, 64, 0
1, 99000, Note_on_c, 0, 63, 100
1, 99059, Note_on_c, 0, 63, 0
1, 99060, Note_on_c, 0, 61, 100
1, 99119, Note_on_c, 0, 61, 0
1, 99120, Note_on_c, 0, 73, 100
1, 99359, Note_on_c, 0, 73, 0
1, 99360, Note_on_c, 0, 70, 100
1, 99599, Note_on_c, 0, 70, 0
1, 99600, Note_on_c, 0, 72, 100
1, 99839, Note_on_c, 0, 72, 0
1, 99840, Note_on_c, 0, 73, 100
1, 100079, Note_on_c, 0, 73, 0
1, 100080, Note_on_c, 0, 71, 100
1, 100319, Note_on_c, 0, 71, 0
1, 100320, Note_on_c, 0, 70, 100
1, 100559, Note_on_c, 0, 70, 0
1, 100560, Note_on_c, 0, 69, 100
1, 100919, Note_on_c, 0, 69, 0
1, 100920, Note_on_c, 0, 68, 100
1, 101039, Note_on_c, 0, 68, 0
1, 101040, Note_on_c, 0, 73, 100
1, 101399, Note_on_c, 0, 73, 0
1, 101400, Note_on_c, 0, 70, 100
1, 101519, Note_on_c, 0, 70, 0
1, 101520, Note_on_c, 0, 72, 100
1, 101639, Note_on_c, 0, 72, 0
1, 101640, Note_on_c, 0, 75, 100
1, 101759, Note_on_c, 0, 75, 0
1, 101760, Note_on_c, 0, 80, 100
1, 101999, Note_on_c, 0, 80, 0
1, 102000, Note_on_c, 0, 68, 100
1, 102119, Note_on_c, 0, 68, 0
1, 102120, Note_on_c, 0, 73, 100
1, 102235, Note_on_c, 0, 73, 0
1, 102240, Note_on_c, 0, 73, 100
1, 102359, Note_on_c, 0, 73, 0
1, 102360, Note_on_c, 0, 70, 100
1, 102479, Note_on_c, 0, 70, 0
1, 102480, Note_on_c, 0, 71, 100
1, 102565, Note_on_c, 0, 71, 0
1, 102600, Note_on_c, 0, 71, 100
1, 102685, Note_on_c, 0, 71, 0
1, 102720, Note_on_c, 0, 71, 100
1, 102839, Note_on_c, 0, 71, 0
1, 102840, Note_on_c, 0, 68, 100
1, 102959, Note_on_c, 0, 68, 0
1, 102960, Note_on_c, 0, 69, 100
1, 103045, Note_on_c, 0, 69, 0
1, 103080, Note_on_c, 0, 69, 100
1, 103165, Note_on_c, 0, 69, 0
1, 103200, Note_on_c, 0, 71, 100
1, 103319, Note_on_c, 0, 71, 0
1, 103320, Note_on_c, 0, 73, 100
1, 103439, Note_on_c, 0, 73, 0
1, 103440, Note_on_c, 0, 74, 100
1, 103919, Note_on_c, 0, 74, 0
1, 103920, Note_on_c, 0, 73, 100
1, 104159, Note_on_c, 0, 73, 0
1, 104160, Note_on_c, 0, 75, 100
1, 104399, Note_on_c, 0, 75, 0
1, 104400, Note_on_c, 0, 76, 100
1, 104759, Note_on_c, 0, 76, 0
1, 104760, Note_on_c, 0, 73, 100
1, 104879, Note_on_c, 0, 73, 0
1, 104880, Note_on_c, 0, 74, 100
1, 104965, Note_on_c, 0, 74, 0
1, 105000, Note_on_c, 0, 74, 100
1, 105085, Note_on_c, 0, 74, 0
1, 105120, Note_on_c, 0, 74, 100
1, 105239, Note_on_c, 0, 74, 0
1, 105240, Note_on_c, 0, 71, 100
1, 105359, Note_on_c, 0, 71, 0
1, 105360, Note_on_c, 0, 73, 100
1, 105445, Note_on_c, 0, 73, 0
1, 105480, Note_on_c, 0, 73, 100
1, 105565, Note_on_c, 0, 73, 0
1, 105600, Note_on_c, 0, 75, 100
1, 105839, Note_on_c, 0, 75, 0
1, 105840, Note_on_c, 0, 77, 100
1, 106079, Note_on_c, 0, 77, 0
1, 106080, Note_on_c, 0, 78, 100
1, 106319, Note_on_c, 0, 78, 0
1, 106320, Note_on_c, 0, 74, 100
1, 106559, Note_on_c, 0, 74, 0
1, 106560, Note_on_c, 0, 72, 100
1, 106799, Note_on_c, 0, 72, 0
1, 106800, Note_on_c, 0, 73, 100
1, 107039, Note_on_c, 0, 73, 0
1, 107040, Note_on_c, 0, 70, 100
1, 107279, Note_on_c, 0, 70, 0
1, 107280, Note_on_c, 0, 71, 100
1, 107519, Note_on_c, 0, 71, 0
1, 107520, Note_on_c, 0, 68, 100
1, 107759, Note_on_c, 0, 68, 0
1, 107760, Note_on_c, 0, 69, 100
1, 108235, Note_on_c, 0, 69, 0
1, 108240, Note_on_c, 0, 68, 100
1, 108479, Note_on_c, 0, 68, 0
1, 108480, Note_on_c, 0, 69, 100
1, 108719, Note_on_c, 0, 69, 0
1, 108720, Note_on_c, 0, 64, 100
1, 108959, Note_on_c, 0, 64, 0
1, 108960, Note_on_c, 0, 71, 100
1, 109199, Note_on_c, 0, 71, 0
1, 109200, Note_on_c, 0, 72, 100
1, 109439, Note_on_c, 0, 72, 0
1, 109440, Note_on_c, 0, 73, 100
1, 109679, Note_on_c, 0, 73, 0
1, 109680, Note_on_c, 0, 68, 100
1, 109919, Note_on_c, 0, 68, 0
1, 109920, Note_on_c, 0, 75, 100
1, 110395, Note_on_c, 0, 75, 0
1, 110400, Note_on_c, 0, 76, 100
1, 110639, Note_on_c, 0, 76, 0
1, 110640, Note_on_c, 0, 75, 100
1, 110879, Note_on_c, 0, 75, 0
1, 110880, Note_on_c, 0, 73, 100
1, 110999, Note_on_c, 0, 73, 0
1, 111000, Note_on_c, 0, 75, 100
1, 111119, Note_on_c, 0, 75, 0
1, 111120, Note_on_c, 0, 73, 100
1, 111359, Note_on_c, 0, 73, 0
1, 111360, Note_on_c, 0, 80, 100
1, 111599, Note_on_c, 0, 80, 0
1, 111600, Note_on_c, 0, 78, 100
1, 111959, Note_on_c, 0, 78, 0
1, 111960, Note_on_c, 0, 75, 100
1, 112079, Note_on_c, 0, 75, 0
1, 112080, Note_on_c, 0, 76, 100
1, 112165, Note_on_c, 0, 76, 0
1, 112200, Note_on_c, 0, 76, 100
1, 112285, Note_on_c, 0, 76, 0
1, 112320, Note_on_c, 0, 76, 100
1, 112439, Note_on_c, 0, 76, 0
1, 112440, Note_on_c, 0, 74, 100
1, 112559, Note_on_c, 0, 74, 0
1, 112560, Note_on_c, 0, 75, 100
1, 112645, Note_on_c, 0, 75, 0
1, 112680, Note_on_c, 0, 75, 100
1, 112765, Note_on_c, 0, 75, 0
1, 112800, Note_on_c, 0, 75, 100
1, 112919, Note_on_c, 0, 75, 0
1, 112920, Note_on_c, 0, 72, 100
1, 113039, Note_on_c, 0, 72, 0
1, 113040, Note_on_c, 0, 73, 100
1, 113125, Note_on_c, 0, 73, 0
1, 113160, Note_on_c, 0, 73, 100
1, 113245, Note_on_c, 0, 73, 0
1, 113280, Note_on_c, 0, 73, 100
1, 113399, Note_on_c, 0, 73, 0
1, 113400, Note_on_c, 0, 70, 100
1, 113519, Note_on_c, 0, 70, 0
1, 113520, Note_on_c, 0, 71, 100
1, 113605, Note_on_c, 0, 71, 0
1, 113640, Note_on_c, 0, 71, 100
1, 113725, Note_on_c, 0, 71, 0
1, 113760, Note_on_c, 0, 71, 100
1, 113879, Note_on_c, 0, 71, 0
1, 113880, Note_on_c, 0, 68, 100
1, 113999, Note_on_c, 0, 68, 0
1, 114000, Note_on_c, 0, 70, 100
1, 114085, Note_on_c, 0, 70, 0
1, 114120, Note_on_c, 0, 70, 100
1, 114205, Note_on_c, 0, 70, 0
1, 114240, Note_on_c, 0, 70, 100
1, 114359, Note_on_c, 0, 70, 0
1, 114360, Note_on_c, 0, 75, 100
1, 114479, Note_on_c, 0, 75, 0
1, 114480, Note_on_c, 0, 68, 100
1, 114839, Note_on_c, 0, 68, 0
1, 114840, Note_on_c, 0, 71, 100
1, 114959, Note_on_c, 0, 71, 0
1, 114960, Note_on_c, 0, 70, 100
1, 115079, Note_on_c, 0, 70, 0
1, 115080, Note_on_c, 0, 68, 100
1, 115199, Note_on_c, 0, 68, 0
1, 115200, Note_on_c, 0, 67, 100
1, 115439, Note_on_c, 0, 67, 0
1, 115440, Note_on_c, 0, 70, 100
1, 115679, Note_on_c, 0, 70, 0
1, 115680, Note_on_c, 0, 68, 100
1, 115919, Note_on_c, 0, 68, 0
1, 115920, Note_on_c, 0, 71, 100
1, 116159, Note_on_c, 0, 71, 0
1, 116160, Note_on_c, 0, 70, 100
1, 116399, Note_on_c, 0, 70, 0
1, 116400, Note_on_c, 0, 73, 100
1, 116759, Note_on_c, 0, 73, 0
1, 116760, Note_on_c, 0, 71, 100
1, 116879, Note_on_c, 0, 71, 0
1, 116880, Note_on_c, 0, 74, 100
1, 116965, Note_on_c, 0, 74, 0
1, 117000, Note_on_c, 0, 74, 100
1, 117085, Note_on_c, 0, 74, 0
1, 117120, Note_on_c, 0, 74, 100
1, 117239, Note_on_c, 0, 74, 0
1, 117240, Note_on_c, 0, 73, 100
1, 117359, Note_on_c, 0, 73, 0
1, 117360, Note_on_c, 0, 76, 100
1, 117445, Note_on_c, 0, 76, 0
1, 117480, Note_on_c, 0, 76, 100
1, 117565, Note_on_c, 0, 76, 0
1, 117600, Note_on_c, 0, 76, 100
1, 117719, Note_on_c, 0, 76, 0
1, 117720, Note_on_c, 0, 75, 100
1, 117839, Note_on_c, 0, 75, 0
1, 117840, Note_on_c, 0, 78, 100
1, 117925, Note_on_c, 0, 78, 0
1, 117960, Note_on_c, 0, 78, 100
1, 118045, Note_on_c, 0, 78, 0
1, 118080, Note_on_c, 0, 78, 100
1, 118199, Note_on_c, 0, 78, 0
1, 118200, Note_on_c, 0, 76, 100
1, 118319, Note_on_c, 0, 76, 0
1, 118320, Note_on_c, 0, 83, 100
1, 118405, Note_on_c, 0, 83, 0
1, 118440, Note_on_c, 0, 83, 100
1, 118525, Note_on_c, 0, 83, 0
1, 118560, Note_on_c, 0, 83, 100
1, 118679, Note_on_c, 0, 83, 0
1, 118680, Note_on_c, 0, 81, 100
1, 118799, Note_on_c, 0, 81, 0
1, 118800, Note_on_c, 0, 76, 100
1, 118885, Note_on_c, 0, 76, 0
1, 118920, Note_on_c, 0, 76, 100
1, 119005, Note_on_c, 0, 76, 0
1, 119040, Note_on_c, 0, 76, 100
1, 119159, Note_on_c, 0, 76, 0
1, 119160, Note_on_c, 0, 75, 100
1, 119245, Note_on_c, 0, 75, 0
1, 119280, Note_on_c, 0, 75, 100
1, 119365, Note_on_c, 0, 75, 0
1, 119400, Note_on_c, 0, 75, 100
1, 119485, Note_on_c, 0, 75, 0
1, 119520, Note_on_c, 0, 75, 100
1, 119639, Note_on_c, 0, 75, 0
1, 119640, Note_on_c, 0, 73, 100
1, 119759, Note_on_c, 0, 73, 0
1, 119760, Note_on_c, 0, 81, 100
1, 119845, Note_on_c, 0, 81, 0
1, 119880, Note_on_c, 0, 81, 100
1, 119965, Note_on_c, 0, 81, 0
1, 120000, Note_on_c, 0, 72, 100
1, 120239, Note_on_c, 0, 72, 0
1, 120240, Note_on_c, 0, 73, 100
1, 120479, Note_on_c, 0, 73, 0
1, 120480, Note_on_c, 0, 70, 100
1, 120719, Note_on_c, 0, 70, 0
1, 120720, Note_on_c, 0, 75, 100
1, 120959, Note_on_c, 0, 75, 0
1, 120960, Note_on_c, 0, 68, 100
1, 121199, Note_on_c, 0, 68, 0
1, 121200, Note_on_c, 0, 73, 100
1, 121319, Note_on_c, 0, 73, 0
1, 121320, Note_on_c, 0, 75, 100
1, 121439, Note_on_c, 0, 75, 0
1, 121440, Note_on_c, 0, 76, 100
1, 122039, Note_on_c, 0, 76, 0
1, 122040, Note_on_c, 0, 75, 100
1, 122279, Note_on_c, 0, 75, 0
1, 122280, Note_on_c, 0, 73, 100
1, 122399, Note_on_c, 0, 73, 0
1, 122400, Note_on_c, 0, 71, 100
1, 122519, Note_on_c, 0, 71, 0
1, 122520, Note_on_c, 0, 70, 100
1, 122699, Note_on_c, 0, 70, 0
1, 122700, Note_on_c, 0, 68, 100
1, 122759, Note_on_c, 0, 68, 0
1, 122760, Note_on_c, 0, 70, 100
1, 122879, Note_on_c, 0, 70, 0
1, 122880, Note_on_c, 0, 68, 100
1, 123355, Note_on_c, 0, 68, 0
1, 123600, Note_on_c, 0, 67, 100
1, 123839, Note_on_c, 0, 67, 0
1, 123840, Note_on_c, 0, 68, 80
1, 124199, Note_on_c, 0, 68, 0
1, 124200, Note_on_c, 0, 68, 100
1, 124319, Note_on_c, 0, 68, 0
1, 124320, Note_on_c, 0, 70, 100
1, 124439, Note_on_c, 0, 70, 0
1, 124440, Note_on_c, 0, 73, 100
1, 124559, Note_on_c, 0, 73, 0
1, 124560, Note_on_c, 0, 72, 100
1, 124645, Note_on_c, 0, 72, 0
1, 124680, Note_on_c, 0, 72, 100
1, 124765, Note_on_c, 0, 72, 0
1, 124800, Note_on_c, 0, 72, 100
1, 124919, Note_on_c, 0, 72, 0
1, 124920, Note_on_c, 0, 75, 100
1, 125039, Note_on_c, 0, 75, 0
1, 125040, Note_on_c, 0, 73, 100
1, 125125, Note_on_c, 0, 73, 0
1, 125160, Note_on_c, 0, 73, 100
1, 125245, Note_on_c, 0, 73, 0
1, 125280, Note_on_c, 0, 73, 100
1, 125399, Note_on_c, 0, 73, 0
1, 125400, Note_on_c, 0, 76, 100
1, 125519, Note_on_c, 0, 76, 0
1, 125520, Note_on_c, 0, 75, 100
1, 125605, Note_on_c, 0, 75, 0
1, 125640, Note_on_c, 0, 75, 100
1, 125725, Note_on_c, 0, 75, 0
1, 125760, Note_on_c, 0, 75, 100
1, 125879, Note_on_c, 0, 75, 0
1, 125880, Note_on_c, 0, 78, 100
1, 125999, Note_on_c, 0, 78, 0
1, 126000, Note_on_c, 0, 76, 100
1, 126085, Note_on_c, 0, 76, 0
1, 126120, Note_on_c, 0, 76, 100
1, 126205, Note_on_c, 0, 76, 0
1, 126240, Note_on_c, 0, 76, 100
1, 126359, Note_on_c, 0, 76, 0
1, 126360, Note_on_c, 0, 73, 100
1, 126479, Note_on_c, 0, 73, 0
1, 126480, Note_on_c, 0, 75, 100
1, 126565, Note_on_c, 0, 75, 0
1, 126600, Note_on_c, 0, 75, 100
1, 126685, Note_on_c, 0, 75, 0
1, 126720, Note_on_c, 0, 75, 100
1, 126839, Note_on_c, 0, 75, 0
1, 126840, Note_on_c, 0, 72, 100
1, 126959, Note_on_c, 0, 72, 0
1, 126960, Note_on_c, 0, 73, 100
1, 127045, Note_on_c, 0, 73, 0
1, 127080, Note_on_c, 0, 73, 100
1, 127165, Note_on_c, 0, 73, 0
1, 127200, Note_on_c, 0, 73, 100
1, 127319, Note_on_c, 0, 73, 0
1, 127320, Note_on_c, 0, 72, 100
1, 127439, Note_on_c, 0, 72, 0
1, 127440, Note_on_c, 0, 75, 100
1, 127559, Note_on_c, 0, 75, 0
1, 127560, Note_on_c, 0, 73, 100
1, 127679, Note_on_c, 0, 73, 0
1, 127680, Note_on_c, 0, 76, 100
1, 127799, Note_on_c, 0, 76, 0
1, 127800, Note_on_c, 0, 75, 100
1, 127919, Note_on_c, 0, 75, 0
1, 127920, Note_on_c, 0, 78, 100
1, 128279, Note_on_c, 0, 78, 0
1, 128280, Note_on_c, 0, 76, 100
1, 128399, Note_on_c, 0, 76, 0
1, 128400, Note_on_c, 0, 75, 100
1, 128519, Note_on_c, 0, 75, 0
1, 128520, Note_on_c, 0, 73, 100
1, 128639, Note_on_c, 0, 73, 0
1, 128640, Note_on_c, 0, 72, 100
1, 128759, Note_on_c, 0, 72, 0
1, 128760, Note_on_c, 0, 68, 100
1, 128879, Note_on_c, 0, 68, 0
1, 128880, Note_on_c, 0, 73, 100
1, 129355, Note_on_c, 0, 73, 0
1, 129360, Note_on_c, 0, 72, 100
1, 129599, Note_on_c, 0, 72, 0
1, 129600, Note_on_c, 0, 73, 100
1, 129719, Note_on_c, 0, 73, 0
1, 129720, Note_on_c, 0, 68, 100
1, 129839, Note_on_c, 0, 68, 0
1, 129840, Note_on_c, 0, 73, 100
1, 129925, Note_on_c, 0, 73, 0
1, 129960, Note_on_c, 0, 73, 100
1, 130045, Note_on_c, 0, 73, 0
1, 130080, Note_on_c, 0, 73, 100
1, 130199, Note_on_c, 0, 73, 0
1, 130200, Note_on_c, 0, 70, 100
1, 130319, Note_on_c, 0, 70, 0
1, 130320, Note_on_c, 0, 71, 100
1, 130405, Note_on_c, 0, 71, 0
1, 130440, Note_on_c, 0, 71, 100
1, 130525, Note_on_c, 0, 71, 0
1, 130560, Note_on_c, 0, 69, 100
1, 130799, Note_on_c, 0, 69, 0
1, 130800, Note_on_c, 0, 68, 100
1, 131159, Note_on_c, 0, 68, 0
1, 131160, Note_on_c, 0, 66, 100
1, 131279, Note_on_c, 0, 66, 0
1, 131280, Note_on_c, 0, 69, 100
1, 131365, Note_on_c, 0, 69, 0
1, 131400, Note_on_c, 0, 69, 100
1, 131485, Note_on_c, 0, 69, 0
1, 131520, Note_on_c, 0, 69, 100
1, 131639, Note_on_c, 0, 69, 0
1, 131640, Note_on_c, 0, 68, 100
1, 131759, Note_on_c, 0, 68, 0
1, 131760, Note_on_c, 0, 71, 100
1, 131845, Note_on_c, 0, 71, 0
1, 131880, Note_on_c, 0, 71, 100
1, 131965, Note_on_c, 0, 71, 0
1, 132000, Note_on_c, 0, 71, 100
1, 132119, Note_on_c, 0, 71, 0
1, 132120, Note_on_c, 0, 70, 100
1, 132239, Note_on_c, 0, 70, 0
1, 132240, Note_on_c, 0, 73, 100
1, 132325, Note_on_c, 0, 73, 0
1, 132360, Note_on_c, 0, 73, 100
1, 132445, Note_on_c, 0, 73, 0
1, 132480, Note_on_c, 0, 73, 100
1, 132599, Note_on_c, 0, 73, 0
1, 132600, Note_on_c, 0, 72, 100
1, 132719, Note_on_c, 0, 72, 0
1, 132720, Note_on_c, 0, 73, 100
1, 132839, Note_on_c, 0, 73, 0
1, 132840, Note_on_c, 0, 75, 100
1, 132959, Note_on_c, 0, 75, 0
1, 132960, Note_on_c, 0, 76, 100
1, 133079, Note_on_c, 0, 76, 0
1, 133080, Note_on_c, 0, 75, 100
1, 133199, Note_on_c, 0, 75, 0
1, 133200, Note_on_c, 0, 76, 100
1, 133319, Note_on_c, 0, 76, 0
1, 133320, Note_on_c, 0, 78, 100
1, 133439, Note_on_c, 0, 78, 0
1, 133440, Note_on_c, 0, 75, 100
1, 133679, Note_on_c, 0, 75, 0
1, 133680, Note_on_c, 0, 76, 100
1, 133919, Note_on_c, 0, 76, 0
1, 133920, Note_on_c, 0, 73, 100
1, 134159, Note_on_c, 0, 73, 0
1, 134160, Note_on_c, 0, 75, 100
1, 134399, Note_on_c, 0, 75, 0
1, 134400, Note_on_c, 0, 72, 100
1, 134639, Note_on_c, 0, 72, 0
1, 134640, Note_on_c, 0, 73, 100
1, 134879, Note_on_c, 0, 73, 0
1, 135600, Note_on_c, 0, 80, 100
1, 135959, Note_on_c, 0, 80, 0
1, 135960, Note_on_c, 0, 77, 100
1, 136079, Note_on_c, 0, 77, 0
1, 136080, Note_on_c, 0, 78, 100
1, 136165, Note_on_c, 0, 78, 0
1, 136200, Note_on_c, 0, 78, 100
1, 136285, Note_on_c, 0, 78, 0
1, 136320, Note_on_c, 0, 78, 100
1, 136439, Note_on_c, 0, 78, 0
1, 136440, Note_on_c, 0, 75, 100
1, 136559, Note_on_c, 0, 75, 0
1, 136560, Note_on_c, 0, 76, 100
1, 136645, Note_on_c, 0, 76, 0
1, 136680, Note_on_c, 0, 76, 100
1, 136765, Note_on_c, 0, 76, 0
1, 136800, Note_on_c, 0, 76, 100
1, 136919, Note_on_c, 0, 76, 0
1, 136920, Note_on_c, 0, 74, 100
1, 137039, Note_on_c, 0, 74, 0
1, 137040, Note_on_c, 0, 75, 100
1, 137125, Note_on_c, 0, 75, 0
1, 137160, Note_on_c, 0, 75, 100
1, 137245, Note_on_c, 0, 75, 0
1, 137280, Note_on_c, 0, 74, 100
1, 137519, Note_on_c, 0, 74, 0
1, 137520, Note_on_c, 0, 75, 100
1, 137639, Note_on_c, 0, 75, 0
1, 137640, Note_on_c, 0, 73, 100
1, 137759, Note_on_c, 0, 73, 0
1, 137760, Note_on_c, 0, 72, 100
1, 137999, Note_on_c, 0, 72, 0
1, 138000, Note_on_c, 0, 73, 100
1, 138119, Note_on_c, 0, 73, 0
1, 138120, Note_on_c, 0, 71, 100
1, 138239, Note_on_c, 0, 71, 0
1, 138240, Note_on_c, 0, 70, 100
1, 138479, Note_on_c, 0, 70, 0
1, 138480, Note_on_c, 0, 71, 100
1, 138955, Note_on_c, 0, 71, 0
1, 138960, Note_on_c, 0, 70, 100
1, 139199, Note_on_c, 0, 70, 0
1, 139200, Note_on_c, 0, 71, 100
1, 139439, Note_on_c, 0, 71, 0
1, 139440, Note_on_c, 0, 66, 100
1, 139679, Note_on_c, 0, 66, 0
1, 139680, Note_on_c, 0, 73, 100
1, 139919, Note_on_c, 0, 73, 0
1, 139920, Note_on_c, 0, 74, 100
1, 140159, Note_on_c, 0, 74, 0
1, 140160, Note_on_c, 0, 75, 100
1, 140399, Note_on_c, 0, 75, 0
1, 140400, Note_on_c, 0, 70, 100
1, 140639, Note_on_c, 0, 70, 0
1, 140640, Note_on_c, 0, 77, 100
1, 141115, Note_on_c, 0, 77, 0
1, 141120, Note_on_c, 0, 78, 100
1, 141359, Note_on_c, 0, 78, 0
1, 141360, Note_on_c, 0, 77, 100
1, 141599, Note_on_c, 0, 77, 0
1, 141600, Note_on_c, 0, 75, 100
1, 141719, Note_on_c, 0, 75, 0
1, 141720, Note_on_c, 0, 77, 100
1, 141839, Note_on_c, 0, 77, 0
1, 141840, Note_on_c, 0, 75, 100
1, 142079, Note_on_c, 0, 75, 0
1, 142080, Note_on_c, 0, 82, 100
1, 142199, Note_on_c, 0, 82, 0
1, 142200, Note_on_c, 0, 74, 100
1, 142319, Note_on_c, 0, 74, 0
1, 142320, Note_on_c, 0, 75, 100
1, 142679, Note_on_c, 0, 75, 0
1, 142680, Note_on_c, 0, 72, 100
1, 142799, Note_on_c, 0, 72, 0
1, 142800, Note_on_c, 0, 73, 100
1, 142885, Note_on_c, 0, 73, 0
1, 142920, Note_on_c, 0, 73, 100
1, 143005, Note_on_c, 0, 73, 0
1, 143040, Note_on_c, 0, 73, 100
1, 143159, Note_on_c, 0, 73, 0
1, 143160, Note_on_c, 0, 70, 100
1, 143279, Note_on_c, 0, 70, 0
1, 143280, Note_on_c, 0, 71, 100
1, 143365, Note_on_c, 0, 71, 0
1, 143400, Note_on_c, 0, 71, 100
1, 143485, Note_on_c, 0, 71, 0
1, 143520, Note_on_c, 0, 71, 100
1, 143639, Note_on_c, 0, 71, 0
1, 143640, Note_on_c, 0, 68, 100
1, 143759, Note_on_c, 0, 68, 0
1, 143760, Note_on_c, 0, 70, 100
1, 143845, Note_on_c, 0, 70, 0
1, 143880, Note_on_c, 0, 70, 100
1, 143965, Note_on_c, 0, 70, 0
1, 144000, Note_on_c, 0, 68, 100
1, 144239, Note_on_c, 0, 68, 0
1, 144240, Note_on_c, 0, 69, 100
1, 144479, Note_on_c, 0, 69, 0
1, 144480, Note_on_c, 0, 67, 100
1, 144719, Note_on_c, 0, 67, 0
1, 144720, Note_on_c, 0, 68, 100
1, 144959, Note_on_c, 0, 68, 0
1, 144960, Note_on_c, 0, 73, 100
1, 145199, Note_on_c, 0, 73, 0
1, 145200, Note_on_c, 0, 75, 100
1, 145439, Note_on_c, 0, 75, 0
1, 145440, Note_on_c, 0, 72, 100
1, 145679, Note_on_c, 0, 72, 0
1, 145680, Note_on_c, 0, 73, 100
1, 146039, Note_on_c, 0, 73, 0
1, 146040, Note_on_c, 0, 76, 100
1, 146159, Note_on_c, 0, 76, 0
1, 146160, Note_on_c, 0, 75, 100
1, 146245, Note_on_c, 0, 75, 0
1, 146280, Note_on_c, 0, 75, 100
1, 146365, Note_on_c, 0, 75, 0
1, 146400, Note_on_c, 0, 75, 100
1, 146519, Note_on_c, 0, 75, 0
1, 146520, Note_on_c, 0, 78, 100
1, 146639, Note_on_c, 0, 78, 0
1, 146640, Note_on_c, 0, 76, 100
1, 146725, Note_on_c, 0, 76, 0
1, 146760, Note_on_c, 0, 76, 100
1, 146845, Note_on_c, 0, 76, 0
1, 146880, Note_on_c, 0, 76, 100
1, 146999, Note_on_c, 0, 76, 0
1, 147000, Note_on_c, 0, 80, 100
1, 147119, Note_on_c, 0, 80, 0
1, 147120, Note_on_c, 0, 78, 100
1, 147205, Note_on_c, 0, 78, 0
1, 147240, Note_on_c, 0, 78, 100
1, 147325, Note_on_c, 0, 78, 0
1, 147360, Note_on_c, 0, 78, 100
1, 147479, Note_on_c, 0, 78, 0
1, 147480, Note_on_c, 0, 81, 100
1, 147599, Note_on_c, 0, 81, 0
1, 147600, Note_on_c, 0, 80, 100
1, 147685, Note_on_c, 0, 80, 0
1, 147720, Note_on_c, 0, 80, 100
1, 147805, Note_on_c, 0, 80, 0
1, 147840, Note_on_c, 0, 78, 100
1, 148079, Note_on_c, 0, 78, 0
1, 148080, Note_on_c, 0, 66, 100
1, 148439, Note_on_c, 0, 66, 0
1, 148440, Note_on_c, 0, 69, 100
1, 148559, Note_on_c, 0, 69, 0
1, 148560, Note_on_c, 0, 68, 100
1, 148645, Note_on_c, 0, 68, 0
1, 148680, Note_on_c, 0, 68, 100
1, 148765, Note_on_c, 0, 68, 0
1, 148800, Note_on_c, 0, 68, 100
1, 148919, Note_on_c, 0, 68, 0
1, 148920, Note_on_c, 0, 65, 100
1, 149039, Note_on_c, 0, 65, 0
1, 149040, Note_on_c, 0, 66, 100
1, 149125, Note_on_c, 0, 66, 0
1, 149160, Note_on_c, 0, 66, 100
1, 149245, Note_on_c, 0, 66, 0
1, 149280, Note_on_c, 0, 66, 100
1, 149399, Note_on_c, 0, 66, 0
1, 149400, Note_on_c, 0, 69, 100
1, 149519, Note_on_c, 0, 69, 0
1, 149520, Note_on_c, 0, 74, 100
1, 149879, Note_on_c, 0, 74, 0
1, 149880, Note_on_c, 0, 73, 100
1, 149999, Note_on_c, 0, 73, 0
1, 150000, Note_on_c, 0, 78, 100
1, 150119, Note_on_c, 0, 78, 0
1, 150120, Note_on_c, 0, 76, 100
1, 150239, Note_on_c, 0, 76, 0
1, 150240, Note_on_c, 0, 75, 100
1, 150359, Note_on_c, 0, 75, 0
1, 150360, Note_on_c, 0, 73, 100
1, 150479, Note_on_c, 0, 73, 0
1, 150480, Note_on_c, 0, 72, 100
1, 150599, Note_on_c, 0, 72, 0
1, 150600, Note_on_c, 0, 73, 100
1, 150719, Note_on_c, 0, 73, 0
1, 150720, Note_on_c, 0, 72, 100
1, 150959, Note_on_c, 0, 72, 0
1, 150960, Note_on_c, 0, 80, 100
1, 151199, Note_on_c, 0, 80, 0
1, 151200, Note_on_c, 0, 73, 100
1, 151439, Note_on_c, 0, 73, 0
1, 151440, Note_on_c, 0, 75, 100
1, 151679, Note_on_c, 0, 75, 0
1, 151920, Note_on_c, 0, 76, 100
1, 152159, Note_on_c, 0, 76, 0
1, 152160, Note_on_c, 0, 78, 100
1, 152399, Note_on_c, 0, 78, 0
1, 152400, Note_on_c, 0, 80, 100
1, 152639, Note_on_c, 0, 80, 0
1, 152880, Note_on_c, 0, 81, 100
1, 153119, Note_on_c, 0, 81, 0
1, 153120, Note_on_c, 0, 80, 100
1, 153359, Note_on_c, 0, 80, 0
1, 153360, Note_on_c, 0, 78, 100
1, 153599, Note_on_c, 0, 78, 0
1, 153840, Note_on_c, 0, 76, 100
1, 153959, Note_on_c, 0, 76, 0
1, 153960, Note_on_c, 0, 75, 100
1, 154079, Note_on_c, 0, 75, 0
1, 154080, Note_on_c, 0, 76, 100
1, 154319, Note_on_c, 0, 76, 0
1, 154320, Note_on_c, 0, 78, 100
1, 154559, Note_on_c, 0, 78, 0
1, 154560, Note_on_c, 0, 80, 100
1, 154799, Note_on_c, 0, 80, 0
1, 154800, Note_on_c, 0, 73, 100
1, 155159, Note_on_c, 0, 73, 0
1, 155160, Note_on_c, 0, 69, 100
1, 155279, Note_on_c, 0, 69, 0
1, 155280, Note_on_c, 0, 71, 100
1, 155365, Note_on_c, 0, 71, 0
1, 155400, Note_on_c, 0, 71, 100
1, 155485, Note_on_c, 0, 71, 0
1, 155520, Note_on_c, 0, 71, 100
1, 156119, Note_on_c, 0, 71, 0
1, 156120, Note_on_c, 0, 67, 100
1, 156239, Note_on_c, 0, 67, 0
1, 156240, Note_on_c, 0, 69, 100
1, 156325, Note_on_c, 0, 69, 0
1, 156360, Note_on_c, 0, 69, 100
1, 156445, Note_on_c, 0, 69, 0
1, 156480, Note_on_c, 0, 69, 100
1, 156955, Note_on_c, 0, 69, 0
1, 157200, Note_on_c, 0, 73, 100
1, 157559, Note_on_c, 0, 73, 0
1, 157560, Note_on_c, 0, 76, 100
1, 157679, Note_on_c, 0, 76, 0
1, 157680, Note_on_c, 0, 75, 100
1, 157765, Note_on_c, 0, 75, 0
1, 157800, Note_on_c, 0, 75, 100
1, 157885, Note_on_c, 0, 75, 0
1, 157920, Note_on_c, 0, 76, 100
1, 158519, Note_on_c, 0, 76, 0
1, 158520, Note_on_c, 0, 73, 100
1, 158639, Note_on_c, 0, 73, 0
1, 158640, Note_on_c, 0, 74, 100
1, 158725, Note_on_c, 0, 74, 0
1, 158760, Note_on_c, 0, 74, 100
1, 158845, Note_on_c, 0, 74, 0
1, 158880, Note_on_c, 0, 74, 80
1, 159239, Note_on_c, 0, 74, 0
1, 159240, Note_on_c, 0, 74, 100
1, 159359, Note_on_c, 0, 74, 0
1, 159360, Note_on_c, 0, 73, 100
1, 159479, Note_on_c, 0, 73, 0
1, 159480, Note_on_c, 0, 71, 100
1, 159599, Note_on_c, 0, 71, 0
1, 159600, Note_on_c, 0, 69, 100
1, 159719, Note_on_c, 0, 69, 0
1, 159720, Note_on_c, 0, 68, 100
1, 159839, Note_on_c, 0, 68, 0
1, 159840, Note_on_c, 0, 66, 100
1, 160079, Note_on_c, 0, 66, 0
1, 160080, Note_on_c, 0, 64, 100
1, 160439, Note_on_c, 0, 64, 0
1, 160440, Note_on_c, 0, 67, 100
1, 160559, Note_on_c, 0, 67, 0
1, 160560, Note_on_c, 0, 66, 100
1, 160645, Note_on_c, 0, 66, 0
1, 160680, Note_on_c, 0, 66, 100
1, 160765, Note_on_c, 0, 66, 0
1, 160800, Note_on_c, 0, 66, 100
1, 160919, Note_on_c, 0, 66, 0
1, 160920, Note_on_c, 0, 69, 100
1, 161039, Note_on_c, 0, 69, 0
1, 161040, Note_on_c, 0, 68, 100
1, 161125, Note_on_c, 0, 68, 0
1, 161160, Note_on_c, 0, 68, 100
1, 161245, Note_on_c, 0, 68, 0
1, 161280, Note_on_c, 0, 68, 100
1, 161399, Note_on_c, 0, 68, 0
1, 161400, Note_on_c, 0, 71, 100
1, 161519, Note_on_c, 0, 71, 0
1, 161520, Note_on_c, 0, 70, 100
1, 161605, Note_on_c, 0, 70, 0
1, 161640, Note_on_c, 0, 70, 100
1, 161725, Note_on_c, 0, 70, 0
1, 161760, Note_on_c, 0, 70, 100
1, 161879, Note_on_c, 0, 70, 0
1, 161880, Note_on_c, 0, 73, 100
1, 161999, Note_on_c, 0, 73, 0
1, 162000, Note_on_c, 0, 72, 100
1, 162085, Note_on_c, 0, 72, 0
1, 162120, Note_on_c, 0, 72, 100
1, 162205, Note_on_c, 0, 72, 0
1, 162240, Note_on_c, 0, 72, 100
1, 162359, Note_on_c, 0, 72, 0
1, 162360, Note_on_c, 0, 75, 100
1, 162479, Note_on_c, 0, 75, 0
1, 162480, Note_on_c, 0, 73, 100
1, 162565, Note_on_c, 0, 73, 0
1, 162600, Note_on_c, 0, 73, 100
1, 162685, Note_on_c, 0, 73, 0
1, 162720, Note_on_c, 0, 73, 100
1, 162839, Note_on_c, 0, 73, 0
1, 162840, Note_on_c, 0, 76, 100
1, 162959, Note_on_c, 0, 76, 0
1, 162960, Note_on_c, 0, 75, 100
1, 163045, Note_on_c, 0, 75, 0
1, 163080, Note_on_c, 0, 75, 100
1, 163165, Note_on_c, 0, 75, 0
1, 163200, Note_on_c, 0, 68, 100
1, 163675, Note_on_c, 0, 68, 0
1, 163920, Note_on_c, 0, 78, 100
1, 164159, Note_on_c, 0, 78, 0
1, 164160, Note_on_c, 0, 72, 100
1, 164279, Note_on_c, 0, 72, 0
1, 164280, Note_on_c, 0, 75, 100
1, 164399, Note_on_c, 0, 75, 0
1, 164400, Note_on_c, 0, 73, 100
1, 164485, Note_on_c, 0, 73, 0
1, 164520, Note_on_c, 0, 73, 100
1, 164605, Note_on_c, 0, 73, 0
1, 164640, Note_on_c, 0, 73, 100
1, 164759, Note_on_c, 0, 73, 0
1, 164760, Note_on_c, 0, 76, 100
1, 164879, Note_on_c, 0, 76, 0
1, 164880, Note_on_c, 0, 75, 100
1, 164965, Note_on_c, 0, 75, 0
1, 165000, Note_on_c, 0, 75, 100
1, 165085, Note_on_c, 0, 75, 0
1, 165120, Note_on_c, 0, 75, 100
1, 165239, Note_on_c, 0, 75, 0
1, 165240, Note_on_c, 0, 78, 100
1, 165359, Note_on_c, 0, 78, 0
1, 165360, Note_on_c, 0, 76, 100
1, 165479, Note_on_c, 0, 76, 0
1, 165480, Note_on_c, 0, 75, 100
1, 165599, Note_on_c, 0, 75, 0
1, 165600, Note_on_c, 0, 80, 100
1, 165719, Note_on_c, 0, 80, 0
1, 165720, Note_on_c, 0, 73, 100
1, 165839, Note_on_c, 0, 73, 0
1, 165840, Note_on_c, 0, 78, 100
1, 165925, Note_on_c, 0, 78, 0
1, 165960, Note_on_c, 0, 78, 100
1, 166045, Note_on_c, 0, 78, 0
1, 166080, Note_on_c, 0, 78, 100
1, 166199, Note_on_c, 0, 78, 0
1, 166200, Note_on_c, 0, 75, 100
1, 166319, Note_on_c, 0, 75, 0
1, 166320, Note_on_c, 0, 76, 100
1, 166405, Note_on_c, 0, 76, 0
1, 166440, Note_on_c, 0, 76, 100
1, 166525, Note_on_c, 0, 76, 0
1, 166560, Note_on_c, 0, 76, 100
1, 166679, Note_on_c, 0, 76, 0
1, 166680, Note_on_c, 0, 73, 100
1, 166799, Note_on_c, 0, 73, 0
1, 166800, Note_on_c, 0, 75, 100
1, 167039, Note_on_c, 0, 75, 0
1, 167040, Note_on_c, 0, 73, 100
1, 167279, Note_on_c, 0, 73, 0
1, 167280, Note_on_c, 0, 68, 100
1, 167519, Note_on_c, 0, 68, 0
1, 167760, Note_on_c, 0, 69, 100
1, 168119, Note_on_c, 0, 69, 0
1, 168120, Note_on_c, 0, 68, 100
1, 168239, Note_on_c, 0, 68, 0
1, 168240, Note_on_c, 0, 71, 100
1, 168325, Note_on_c, 0, 71, 0
1, 168360, Note_on_c, 0, 71, 100
1, 168445, Note_on_c, 0, 71, 0
1, 168480, Note_on_c, 0, 71, 100
1, 168599, Note_on_c, 0, 71, 0
1, 168600, Note_on_c, 0, 70, 100
1, 168719, Note_on_c, 0, 70, 0
1, 168720, Note_on_c, 0, 78, 100
1, 169079, Note_on_c, 0, 78, 0
1, 169080, Note_on_c, 0, 76, 100
1, 169199, Note_on_c, 0, 76, 0
1, 169200, Note_on_c, 0, 78, 100
1, 169319, Note_on_c, 0, 78, 0
1, 169320, Note_on_c, 0, 75, 100
1, 169439, Note_on_c, 0, 75, 0
1, 169440, Note_on_c, 0, 76, 100
1, 169679, Note_on_c, 0, 76, 0
1, 169680, Note_on_c, 0, 81, 100
1, 169919, Note_on_c, 0, 81, 0
1, 169920, Note_on_c, 0, 80, 100
1, 170039, Note_on_c, 0, 80, 0
1, 170040, Note_on_c, 0, 72, 100
1, 170159, Note_on_c, 0, 72, 0
1, 170160, Note_on_c, 0, 73, 100
1, 170245, Note_on_c, 0, 73, 0
1, 170280, Note_on_c, 0, 73, 100
1, 170365, Note_on_c, 0, 73, 0
1, 170400, Note_on_c, 0, 73, 100
1, 170519, Note_on_c, 0, 73, 0
1, 170520, Note_on_c, 0, 70, 100
1, 170639, Note_on_c, 0, 70, 0
1, 170640, Note_on_c, 0, 71, 100
1, 170725, Note_on_c, 0, 71, 0
1, 170760, Note_on_c, 0, 71, 100
1, 170845, Note_on_c, 0, 71, 0
1, 170880, Note_on_c, 0, 71, 100
1, 170999, Note_on_c, 0, 71, 0
1, 171000, Note_on_c, 0, 68, 100
1, 171119, Note_on_c, 0, 68, 0
1, 171120, Note_on_c, 0, 70, 100
1, 171239, Note_on_c, 0, 70, 0
1, 171240, Note_on_c, 0, 73, 100
1, 171359, Note_on_c, 0, 73, 0
1, 171360, Note_on_c, 0, 66, 100
1, 171479, Note_on_c, 0, 66, 0
1, 171480, Note_on_c, 0, 69, 100
1, 171599, Note_on_c, 0, 69, 0
1, 171600, Note_on_c, 0, 71, 100
1, 171719, Note_on_c, 0, 71, 0
1, 171720, Note_on_c, 0, 69, 100
1, 171839, Note_on_c, 0, 69, 0
1, 171840, Note_on_c, 0, 64, 100
1, 172079, Note_on_c, 0, 64, 0
1, 172080, Note_on_c, 0, 73, 100
1, 172319, Note_on_c, 0, 73, 0
1, 172320, Note_on_c, 0, 80, 100
1, 172559, Note_on_c, 0, 80, 0
1, 172560, Note_on_c, 0, 78, 100
1, 172799, Note_on_c, 0, 78, 0
1, 173040, Note_on_c, 0, 76, 100
1, 173279, Note_on_c, 0, 76, 0
1, 173280, Note_on_c, 0, 75, 100
1, 173519, Note_on_c, 0, 75, 0
1, 173520, Note_on_c, 0, 73, 100
1, 173759, Note_on_c, 0, 73, 0
1, 174000, Note_on_c, 0, 72, 100
1, 174239, Note_on_c, 0, 72, 0
1, 174240, Note_on_c, 0, 73, 100
1, 174479, Note_on_c, 0, 73, 0
1, 174480, Note_on_c, 0, 75, 100
1, 174719, Note_on_c, 0, 75, 0
1, 174960, Note_on_c, 0, 76, 100
1, 174960, Note_on_c, 0, 73, 100
1, 175079, Note_on_c, 0, 76, 0
1, 175079, Note_on_c, 0, 73, 0
1, 175080, Note_on_c, 0, 78, 100
1, 175080, Note_on_c, 0, 75, 100
1, 175199, Note_on_c, 0, 78, 0
1, 175199, Note_on_c, 0, 75, 0
1, 175200, Note_on_c, 0, 76, 100
1, 175200, Note_on_c, 0, 73, 100
1, 175439, Note_on_c, 0, 76, 0
1, 175439, Note_on_c, 0, 73, 0
1, 175440, Note_on_c, 0, 75, 100
1, 175440, Note_on_c, 0, 72, 100
1, 175679, Note_on_c, 0, 75, 0
1, 175679, Note_on_c, 0, 72, 0
1, 175680, Note_on_c, 0, 73, 80
1, 176639, Note_on_c, 0, 73, 0
1, 176640, End_track
2, 0, Start_track
2, 0, Key_signature, 4, "major"
2, 240, Note_on_c, 0, 61, 100
2, 479, Note_on_c, 0, 61, 0
2, 480, Note_on_c, 0, 68, 100
2, 719, Note_on_c, 0, 68, 0
2, 720, Note_on_c, 0, 66, 100
2, 959, Note_on_c, 0, 66, 0
2, 1200, Note_on_c, 0, 64, 100
2, 1439, Note_on_c, 0, 64, 0
2, 1440, Note_on_c, 0, 63, 100
2, 1679, Note_on_c, 0, 63, 0
2, 1680, Note_on_c, 0, 61, 100
2, 1919, Note_on_c, 0, 61, 0
2, 2160, Note_on_c, 0, 60, 100
2, 2399, Note_on_c, 0, 60, 0
2, 2400, Note_on_c, 0, 61, 100
2, 2639, Note_on_c, 0, 61, 0
2, 2640, Note_on_c, 0, 63, 100
2, 2879, Note_on_c, 0, 63, 0
2, 3120, Note_on_c, 0, 64, 100
2, 3239, Note_on_c, 0, 64, 0
2, 3240, Note_on_c, 0, 66, 100
2, 3359, Note_on_c, 0, 66, 0
2, 3360, Note_on_c, 0, 64, 100
2, 3599, Note_on_c, 0, 64, 0
2, 3600, Note_on_c, 0, 63, 100
2, 3839, Note_on_c, 0, 63, 0
2, 3840, Note_on_c, 0, 61, 100
2, 4079, Note_on_c, 0, 61, 0
2, 4080, Note_on_c, 0, 59, 100
2, 4199, Note_on_c, 0, 59, 0
2, 4200, Note_on_c, 0, 58, 100
2, 4319, Note_on_c, 0, 58, 0
2, 4320, Note_on_c, 0, 59, 100
2, 4559, Note_on_c, 0, 59, 0
2, 4560, Note_on_c, 0, 61, 100
2, 4799, Note_on_c, 0, 61, 0
2, 4800, Note_on_c, 0, 63, 100
2, 5039, Note_on_c, 0, 63, 0
2, 5040, Note_on_c, 0, 56, 100
2, 5279, Note_on_c, 0, 56, 0
2, 5280, Note_on_c, 0, 61, 100
2, 5399, Note_on_c, 0, 61, 0
2, 5400, Note_on_c, 0, 63, 100
2, 5519, Note_on_c, 0, 63, 0
2, 5520, Note_on_c, 0, 64, 100
2, 5759, Note_on_c, 0, 64, 0
2, 5760, Note_on_c, 0, 64, 80
2, 5999, Note_on_c, 0, 64, 0
2, 6000, Note_on_c, 0, 63, 80
2, 6120, Note_on_c, 0, 61, 100
2, 6239, Note_on_c, 0, 61, 0
2, 6240, Note_on_c, 0, 59, 100
2, 6359, Note_on_c, 0, 59, 0
2, 6359, Note_on_c, 0, 63, 0
2, 6360, Note_on_c, 0, 58, 100
2, 6479, Note_on_c, 0, 58, 0
2, 6480, Note_on_c, 0, 56, 100
2, 6599, Note_on_c, 0, 56, 0
2, 6600, Note_on_c, 0, 55, 100
2, 6719, Note_on_c, 0, 55, 0
2, 6720, Note_on_c, 0, 56, 80
2, 6959, Note_on_c, 0, 56, 0
2, 6960, Note_on_c, 0, 68, 100
2, 7319, Note_on_c, 0, 68, 0
2, 7320, Note_on_c, 0, 61, 100
2, 7439, Note_on_c, 0, 61, 0
2, 7440, Note_on_c, 0, 66, 100
2, 7919, Note_on_c, 0, 66, 0
2, 7920, Note_on_c, 0, 64, 100
2, 8039, Note_on_c, 0, 64, 0
2, 8040, Note_on_c, 0, 66, 100
2, 8159, Note_on_c, 0, 66, 0
2, 8160, Note_on_c, 0, 64, 100
2, 8399, Note_on_c, 0, 64, 0
2, 8400, Note_on_c, 0, 63, 100
2, 8639, Note_on_c, 0, 63, 0
2, 8640, Note_on_c, 0, 64, 80
2, 8879, Note_on_c, 0, 64, 0
2, 8880, Note_on_c, 0, 68, 100
2, 9119, Note_on_c, 0, 68, 0
2, 9120, Note_on_c, 0, 66, 100
2, 9239, Note_on_c, 0, 66, 0
2, 9240, Note_on_c, 0, 68, 100
2, 9359, Note_on_c, 0, 68, 0
2, 9360, Note_on_c, 0, 69, 100
2, 9839, Note_on_c, 0, 69, 0
2, 9840, Note_on_c, 0, 68, 100
2, 9959, Note_on_c, 0, 68, 0
2, 9960, Note_on_c, 0, 69, 100
2, 10079, Note_on_c, 0, 69, 0
2, 10080, Note_on_c, 0, 68, 100
2, 10319, Note_on_c, 0, 68, 0
2, 10320, Note_on_c, 0, 66, 100
2, 10799, Note_on_c, 0, 66, 0
2, 10800, Note_on_c, 0, 64, 100
2, 11039, Note_on_c, 0, 64, 0
2, 11040, Note_on_c, 0, 61, 100
2, 11279, Note_on_c, 0, 61, 0
2, 11280, Note_on_c, 0, 66, 100
2, 11759, Note_on_c, 0, 66, 0
2, 11760, Note_on_c, 0, 64, 100
2, 11999, Note_on_c, 0, 64, 0
2, 12000, Note_on_c, 0, 63, 100
2, 12119, Note_on_c, 0, 63, 0
2, 12120, Note_on_c, 0, 68, 100
2, 12359, Note_on_c, 0, 68, 0
2, 12360, Note_on_c, 0, 67, 100
2, 12479, Note_on_c, 0, 67, 0
2, 12480, Note_on_c, 0, 68, 100
2, 12719, Note_on_c, 0, 68, 0
2, 12720, Note_on_c, 0, 67, 100
2, 12839, Note_on_c, 0, 67, 0
2, 12840, Note_on_c, 0, 65, 100
2, 12959, Note_on_c, 0, 65, 0
2, 12960, Note_on_c, 0, 67, 100
2, 13199, Note_on_c, 0, 67, 0
2, 13200, Note_on_c, 0, 68, 100
2, 13439, Note_on_c, 0, 68, 0
2, 13440, Note_on_c, 0, 61, 100
2, 13559, Note_on_c, 0, 61, 0
2, 13560, Note_on_c, 0, 63, 100
2, 13679, Note_on_c, 0, 63, 0
2, 13680, Note_on_c, 0, 64, 100
2, 13919, Note_on_c, 0, 64, 0
2, 13920, Note_on_c, 0, 63, 100
2, 14159, Note_on_c, 0, 63, 0
2, 14160, Note_on_c, 0, 61, 100
2, 14639, Note_on_c, 0, 61, 0
2, 14640, Note_on_c, 0, 59, 100
2, 14879, Note_on_c, 0, 59, 0
2, 14880, Note_on_c, 0, 64, 100
2, 15119, Note_on_c, 0, 64, 0
2, 15120, Note_on_c, 0, 63, 100
2, 15239, Note_on_c, 0, 63, 0
2, 15240, Note_on_c, 0, 61, 100
2, 15359, Note_on_c, 0, 61, 0
2, 15360, Note_on_c, 0, 63, 100
2, 15599, Note_on_c, 0, 63, 0
2, 15600, Note_on_c, 0, 64, 100
2, 15839, Note_on_c, 0, 64, 0
2, 15840, Note_on_c, 0, 66, 100
2, 16559, Note_on_c, 0, 66, 0
2, 16560, Note_on_c, 0, 64, 100
2, 16679, Note_on_c, 0, 64, 0
2, 16680, Note_on_c, 0, 63, 100
2, 16799, Note_on_c, 0, 63, 0
2, 16800, Note_on_c, 0, 64, 100
2, 17039, Note_on_c, 0, 64, 0
2, 17040, Note_on_c, 0, 69, 100
2, 17279, Note_on_c, 0, 69, 0
2, 17280, Note_on_c, 0, 68, 100
2, 17519, Note_on_c, 0, 68, 0
2, 17520, Note_on_c, 0, 66, 100
2, 17759, Note_on_c, 0, 66, 0
2, 17760, Note_on_c, 0, 68, 100
2, 17999, Note_on_c, 0, 68, 0
2, 18000, Note_on_c, 0, 74, 100
2, 18479, Note_on_c, 0, 74, 0
2, 18480, Note_on_c, 0, 73, 100
2, 18599, Note_on_c, 0, 73, 0
2, 18600, Note_on_c, 0, 74, 100
2, 18719, Note_on_c, 0, 74, 0
2, 18720, Note_on_c, 0, 73, 100
2, 18959, Note_on_c, 0, 73, 0
2, 18960, Note_on_c, 0, 71, 100
2, 19439, Note_on_c, 0, 71, 0
2, 19440, Note_on_c, 0, 69, 100
2, 19559, Note_on_c, 0, 69, 0
2, 19560, Note_on_c, 0, 71, 100
2, 19679, Note_on_c, 0, 71, 0
2, 19680, Note_on_c, 0, 69, 100
2, 19919, Note_on_c, 0, 69, 0
2, 19920, Note_on_c, 0, 68, 100
2, 20159, Note_on_c, 0, 68, 0
2, 20160, Note_on_c, 0, 66, 100
2, 20399, Note_on_c, 0, 66, 0
2, 20400, Note_on_c, 0, 60, 100
2, 20639, Note_on_c, 0, 60, 0
2, 20880, Note_on_c, 0, 68, 100
2, 21119, Note_on_c, 0, 68, 0
2, 21120, Note_on_c, 0, 73, 100
2, 21239, Note_on_c, 0, 73, 0
2, 21240, Note_on_c, 0, 71, 100
2, 21479, Note_on_c, 0, 71, 0
2, 21480, Note_on_c, 0, 69, 100
2, 21719, Note_on_c, 0, 69, 0
2, 21720, Note_on_c, 0, 68, 100
2, 21959, Note_on_c, 0, 68, 0
2, 21960, Note_on_c, 0, 69, 100
2, 22079, Note_on_c, 0, 69, 0
2, 22080, Note_on_c, 0, 60, 100
2, 22319, Note_on_c, 0, 60, 0
2, 22320, Note_on_c, 0, 69, 100
2, 22559, Note_on_c, 0, 69, 0
2, 22560, Note_on_c, 0, 68, 100
2, 22799, Note_on_c, 0, 68, 0
2, 22800, Note_on_c, 0, 66, 100
2, 23039, Note_on_c, 0, 66, 0
2, 23040, Note_on_c, 0, 64, 100
2, 23279, Note_on_c, 0, 64, 0
2, 23280, Note_on_c, 0, 73, 100
2, 23755, Note_on_c, 0, 73, 0
2, 23760, Note_on_c, 0, 72, 100
2, 23879, Note_on_c, 0, 72, 0
2, 23880, Note_on_c, 0, 71, 100
2, 23999, Note_on_c, 0, 71, 0
2, 24000, Note_on_c, 0, 70, 100
2, 24239, Note_on_c, 0, 70, 0
2, 24240, Note_on_c, 0, 69, 100
2, 24479, Note_on_c, 0, 69, 0
2, 24480, Note_on_c, 0, 68, 100
2, 24955, Note_on_c, 0, 68, 0
2, 24960, Note_on_c, 0, 68, 100
2, 25435, Note_on_c, 0, 68, 0
2, 25440, Note_on_c, 0, 56, 100
2, 25915, Note_on_c, 0, 56, 0
2, 25920, Note_on_c, 0, 57, 100
2, 26159, Note_on_c, 0, 57, 0
2, 26160, Note_on_c, 0, 52, 100
2, 26399, Note_on_c, 0, 52, 0
2, 26400, Note_on_c, 0, 59, 100
2, 26639, Note_on_c, 0, 59, 0
2, 26640, Note_on_c, 0, 60, 100
2, 26879, Note_on_c, 0, 60, 0
2, 26880, Note_on_c, 0, 61, 100
2, 27119, Note_on_c, 0, 61, 0
2, 27120, Note_on_c, 0, 56, 100
2, 27359, Note_on_c, 0, 56, 0
2, 27360, Note_on_c, 0, 63, 100
2, 27835, Note_on_c, 0, 63, 0
2, 27840, Note_on_c, 0, 64, 100
2, 28079, Note_on_c, 0, 64, 0
2, 28080, Note_on_c, 0, 63, 100
2, 28319, Note_on_c, 0, 63, 0
2, 28320, Note_on_c, 0, 61, 100
2, 28439, Note_on_c, 0, 61, 0
2, 28440, Note_on_c, 0, 63, 100
2, 28559, Note_on_c, 0, 63, 0
2, 28560, Note_on_c, 0, 61, 100
2, 28799, Note_on_c, 0, 61, 0
2, 28800, Note_on_c, 0, 68, 80
2, 29159, Note_on_c, 0, 68, 0
2, 29160, Note_on_c, 0, 68, 100
2, 29279, Note_on_c, 0, 68, 0
2, 29280, Note_on_c, 0, 70, 100
2, 29399, Note_on_c, 0, 70, 0
2, 29400, Note_on_c, 0, 68, 100
2, 29519, Note_on_c, 0, 68, 0
2, 29520, Note_on_c, 0, 70, 100
2, 29639, Note_on_c, 0, 70, 0
2, 29640, Note_on_c, 0, 72, 100
2, 29759, Note_on_c, 0, 72, 0
2, 29760, Note_on_c, 0, 73, 100
2, 29999, Note_on_c, 0, 73, 0
2, 30000, Note_on_c, 0, 68, 100
2, 30239, Note_on_c, 0, 68, 0
2, 30240, Note_on_c, 0, 73, 100
2, 30479, Note_on_c, 0, 73, 0
2, 30480, Note_on_c, 0, 72, 100
2, 30719, Note_on_c, 0, 72, 0
2, 30720, Note_on_c, 0, 71, 100
2, 30959, Note_on_c, 0, 71, 0
2, 30960, Note_on_c, 0, 70, 100
2, 31199, Note_on_c, 0, 70, 0
2, 31200, Note_on_c, 0, 69, 100
2, 31439, Note_on_c, 0, 69, 0
2, 31440, Note_on_c, 0, 68, 100
2, 31679, Note_on_c, 0, 68, 0
2, 31680, Note_on_c, 0, 67, 100
2, 31799, Note_on_c, 0, 67, 0
2, 31800, Note_on_c, 0, 71, 100
2, 31919, Note_on_c, 0, 71, 0
2, 31920, Note_on_c, 0, 70, 100
2, 32039, Note_on_c, 0, 70, 0
2, 32040, Note_on_c, 0, 68, 100
2, 32159, Note_on_c, 0, 68, 0
2, 32160, Note_on_c, 0, 70, 100
2, 32279, Note_on_c, 0, 70, 0
2, 32280, Note_on_c, 0, 73, 100
2, 32399, Note_on_c, 0, 73, 0
2, 32400, Note_on_c, 0, 71, 100
2, 32519, Note_on_c, 0, 71, 0
2, 32520, Note_on_c, 0, 70, 100
2, 32639, Note_on_c, 0, 70, 0
2, 32640, Note_on_c, 0, 68, 100
2, 33115, Note_on_c, 0, 68, 0
2, 33480, Note_on_c, 0, 64, 100
2, 33599, Note_on_c, 0, 64, 0
2, 33600, Note_on_c, 0, 63, 100
2, 33839, Note_on_c, 0, 63, 0
2, 33840, Note_on_c, 0, 66, 100
2, 34079, Note_on_c, 0, 66, 0
2, 34080, Note_on_c, 0, 64, 100
2, 34319, Note_on_c, 0, 64, 0
2, 34320, Note_on_c, 0, 65, 100
2, 34559, Note_on_c, 0, 65, 0
2, 34560, Note_on_c, 0, 63, 100
2, 34679, Note_on_c, 0, 63, 0
2, 34680, Note_on_c, 0, 65, 100
2, 34799, Note_on_c, 0, 65, 0
2, 34800, Note_on_c, 0, 67, 100
2, 34919, Note_on_c, 0, 67, 0
2, 34920, Note_on_c, 0, 63, 100
2, 35039, Note_on_c, 0, 63, 0
2, 35040, Note_on_c, 0, 68, 100
2, 35515, Note_on_c, 0, 68, 0
2, 35520, Note_on_c, 0, 67, 100
2, 35759, Note_on_c, 0, 67, 0
2, 35760, Note_on_c, 0, 66, 100
2, 35999, Note_on_c, 0, 66, 0
2, 36000, Note_on_c, 0, 68, 100
2, 36239, Note_on_c, 0, 68, 0
2, 36240, Note_on_c, 0, 63, 100
2, 36719, Note_on_c, 0, 63, 0
2, 36720, Note_on_c, 0, 68, 100
2, 36959, Note_on_c, 0, 68, 0
2, 36960, Note_on_c, 0, 67, 100
2, 37199, Note_on_c, 0, 67, 0
2, 37200, Note_on_c, 0, 66, 100
2, 37559, Note_on_c, 0, 66, 0
2, 37560, Note_on_c, 0, 64, 100
2, 37679, Note_on_c, 0, 64, 0
2, 37680, Note_on_c, 0, 69, 100
2, 38155, Note_on_c, 0, 69, 0
2, 38160, Note_on_c, 0, 68, 100
2, 38399, Note_on_c, 0, 68, 0
2, 38400, Note_on_c, 0, 73, 100
2, 38639, Note_on_c, 0, 73, 0
2, 38640, Note_on_c, 0, 71, 100
2, 38759, Note_on_c, 0, 71, 0
2, 38760, Note_on_c, 0, 70, 100
2, 38879, Note_on_c, 0, 70, 0
2, 38880, Note_on_c, 0, 71, 100
2, 39119, Note_on_c, 0, 71, 0
2, 39120, Note_on_c, 0, 73, 100
2, 39359, Note_on_c, 0, 73, 0
2, 39360, Note_on_c, 0, 66, 100
2, 39599, Note_on_c, 0, 66, 0
2, 39600, Note_on_c, 0, 71, 100
2, 39839, Note_on_c, 0, 71, 0
2, 39840, Note_on_c, 0, 70, 100
2, 40079, Note_on_c, 0, 70, 0
2, 40080, Note_on_c, 0, 69, 100
2, 40439, Note_on_c, 0, 69, 0
2, 40440, Note_on_c, 0, 68, 100
2, 40559, Note_on_c, 0, 68, 0
2, 40560, Note_on_c, 0, 73, 100
2, 40859, Note_on_c, 0, 73, 0
2, 40860, Note_on_c, 0, 71, 100
2, 40919, Note_on_c, 0, 71, 0
2, 40920, Note_on_c, 0, 69, 100
2, 40979, Note_on_c, 0, 69, 0
2, 40980, Note_on_c, 0, 68, 100
2, 41039, Note_on_c, 0, 68, 0
2, 41040, Note_on_c, 0, 66, 100
2, 41159, Note_on_c, 0, 66, 0
2, 41160, Note_on_c, 0, 65, 100
2, 41279, Note_on_c, 0, 65, 0
2, 41280, Note_on_c, 0, 66, 100
2, 41519, Note_on_c, 0, 66, 0
2, 41520, Note_on_c, 0, 67, 100
2, 41759, Note_on_c, 0, 67, 0
2, 41760, Note_on_c, 0, 66, 80
2, 42119, Note_on_c, 0, 66, 0
2, 42120, Note_on_c, 0, 66, 100
2, 42239, Note_on_c, 0, 66, 0
2, 42240, Note_on_c, 0, 64, 100
2, 42479, Note_on_c, 0, 64, 0
2, 42480, Note_on_c, 0, 63, 100
2, 42599, Note_on_c, 0, 63, 0
2, 42600, Note_on_c, 0, 62, 100
2, 42719, Note_on_c, 0, 62, 0
2, 42720, Note_on_c, 0, 63, 100
2, 42959, Note_on_c, 0, 63, 0
2, 43440, Note_on_c, 0, 66, 100
2, 43679, Note_on_c, 0, 66, 0
2, 43680, Note_on_c, 0, 65, 100
2, 43919, Note_on_c, 0, 65, 0
2, 43920, Note_on_c, 0, 65, 100
2, 44159, Note_on_c, 0, 65, 0
2, 44160, Note_on_c, 0, 63, 100
2, 44399, Note_on_c, 0, 63, 0
2, 44520, Note_on_c, 0, 63, 100
2, 44639, Note_on_c, 0, 63, 0
2, 44640, Note_on_c, 0, 64, 100
2, 44879, Note_on_c, 0, 64, 0
2, 44880, Note_on_c, 0, 65, 100
2, 45119, Note_on_c, 0, 65, 0
2, 45120, Note_on_c, 0, 66, 100
2, 45719, Note_on_c, 0, 66, 0
2, 45720, Note_on_c, 0, 64, 100
2, 45839, Note_on_c, 0, 64, 0
2, 45840, Note_on_c, 0, 63, 100
2, 46079, Note_on_c, 0, 63, 0
2, 46080, Note_on_c, 0, 64, 100
2, 46319, Note_on_c, 0, 64, 0
2, 46320, Note_on_c, 0, 66, 100
2, 46795, Note_on_c, 0, 66, 0
2, 46800, Note_on_c, 0, 65, 100
2, 47039, Note_on_c, 0, 65, 0
2, 47040, Note_on_c, 0, 66, 100
2, 47279, Note_on_c, 0, 66, 0
2, 47280, Note_on_c, 0, 68, 100
2, 47755, Note_on_c, 0, 68, 0
2, 47760, Note_on_c, 0, 67, 100
2, 47999, Note_on_c, 0, 67, 0
2, 48000, Note_on_c, 0, 68, 100
2, 48239, Note_on_c, 0, 68, 0
2, 48240, Note_on_c, 0, 63, 100
2, 48599, Note_on_c, 0, 63, 0
2, 48600, Note_on_c, 0, 63, 100
2, 48659, Note_on_c, 0, 63, 0
2, 48660, Note_on_c, 0, 64, 100
2, 48719, Note_on_c, 0, 64, 0
2, 48720, Note_on_c, 0, 66, 100
2, 48779, Note_on_c, 0, 66, 0
2, 48780, Note_on_c, 0, 68, 100
2, 48839, Note_on_c, 0, 68, 0
2, 48840, Note_on_c, 0, 69, 100
2, 48959, Note_on_c, 0, 69, 0
2, 48960, Note_on_c, 0, 68, 100
2, 49199, Note_on_c, 0, 68, 0
2, 49200, Note_on_c, 0, 66, 100
2, 49439, Note_on_c, 0, 66, 0
2, 49440, Note_on_c, 0, 64, 100
2, 49675, Note_on_c, 0, 64, 0
2, 49800, Note_on_c, 0, 73, 100
2, 49919, Note_on_c, 0, 73, 0
2, 49920, Note_on_c, 0, 75, 100
2, 50039, Note_on_c, 0, 75, 0
2, 50040, Note_on_c, 0, 73, 100
2, 50159, Note_on_c, 0, 73, 0
2, 50160, Note_on_c, 0, 75, 100
2, 50279, Note_on_c, 0, 75, 0
2, 50280, Note_on_c, 0, 77, 100
2, 50399, Note_on_c, 0, 77, 0
2, 50400, Note_on_c, 0, 78, 100
2, 50519, Note_on_c, 0, 78, 0
2, 50520, Note_on_c, 0, 76, 100
2, 50639, Note_on_c, 0, 76, 0
2, 50640, Note_on_c, 0, 74, 100
2, 50759, Note_on_c, 0, 74, 0
2, 50760, Note_on_c, 0, 73, 100
2, 50879, Note_on_c, 0, 73, 0
2, 50880, Note_on_c, 0, 72, 100
2, 51119, Note_on_c, 0, 72, 0
2, 51120, Note_on_c, 0, 73, 100
2, 51595, Note_on_c, 0, 73, 0
2, 51600, Note_on_c, 0, 75, 100
2, 51839, Note_on_c, 0, 75, 0
2, 51840, Note_on_c, 0, 68, 100
2, 52079, Note_on_c, 0, 68, 0
2, 52200, Note_on_c, 0, 69, 100
2, 52439, Note_on_c, 0, 69, 0
2, 52440, Note_on_c, 0, 68, 100
2, 52559, Note_on_c, 0, 68, 0
2, 52560, Note_on_c, 0, 66, 100
2, 52679, Note_on_c, 0, 66, 0
2, 52680, Note_on_c, 0, 65, 100
2, 52799, Note_on_c, 0, 65, 0
2, 52800, Note_on_c, 0, 66, 100
2, 53039, Note_on_c, 0, 66, 0
2, 53040, Note_on_c, 0, 67, 100
2, 53279, Note_on_c, 0, 67, 0
2, 53280, Note_on_c, 0, 68, 100
2, 53519, Note_on_c, 0, 68, 0
2, 53520, Note_on_c, 0, 70, 100
2, 53759, Note_on_c, 0, 70, 0
2, 53760, Note_on_c, 0, 68, 100
2, 53999, Note_on_c, 0, 68, 0
2, 54120, Note_on_c, 0, 60, 100
2, 54239, Note_on_c, 0, 60, 0
2, 54240, Note_on_c, 0, 61, 100
2, 54359, Note_on_c, 0, 61, 0
2, 54360, Note_on_c, 0, 60, 100
2, 54479, Note_on_c, 0, 60, 0
2, 54480, Note_on_c, 0, 61, 100
2, 54599, Note_on_c, 0, 61, 0
2, 54600, Note_on_c, 0, 63, 100
2, 54719, Note_on_c, 0, 63, 0
2, 54720, Note_on_c, 0, 56, 100
2, 54959, Note_on_c, 0, 56, 0
2, 55080, Note_on_c, 0, 56, 100
2, 55199, Note_on_c, 0, 56, 0
2, 55200, Note_on_c, 0, 57, 100
2, 55319, Note_on_c, 0, 57, 0
2, 55320, Note_on_c, 0, 56, 100
2, 55439, Note_on_c, 0, 56, 0
2, 55440, Note_on_c, 0, 57, 100
2, 55559, Note_on_c, 0, 57, 0
2, 55560, Note_on_c, 0, 59, 100
2, 55679, Note_on_c, 0, 59, 0
2, 55680, Note_on_c, 0, 61, 100
2, 55799, Note_on_c, 0, 61, 0
2, 55800, Note_on_c, 0, 57, 100
2, 55919, Note_on_c, 0, 57, 0
2, 55920, Note_on_c, 0, 62, 100
2, 56039, Note_on_c, 0, 62, 0
2, 56040, Note_on_c, 0, 61, 100
2, 56159, Note_on_c, 0, 61, 0
2, 56160, Note_on_c, 0, 59, 100
2, 56279, Note_on_c, 0, 59, 0
2, 56280, Note_on_c, 0, 62, 100
2, 56399, Note_on_c, 0, 62, 0
2, 56400, Note_on_c, 0, 61, 100
2, 56519, Note_on_c, 0, 61, 0
2, 56520, Note_on_c, 0, 59, 100
2, 56759, Note_on_c, 0, 59, 0
2, 56760, Note_on_c, 0, 58, 100
2, 56879, Note_on_c, 0, 58, 0
2, 56880, Note_on_c, 0, 59, 100
2, 57355, Note_on_c, 0, 59, 0
2, 57360, Note_on_c, 0, 61, 100
2, 57599, Note_on_c, 0, 61, 0
2, 57600, Note_on_c, 0, 54, 100
2, 57839, Note_on_c, 0, 54, 0
2, 58800, Note_on_c, 0, 68, 100
2, 59039, Note_on_c, 0, 68, 0
2, 59040, Note_on_c, 0, 67, 100
2, 59279, Note_on_c, 0, 67, 0
2, 59280, Note_on_c, 0, 66, 100
2, 59639, Note_on_c, 0, 66, 0
2, 59640, Note_on_c, 0, 64, 100
2, 59759, Note_on_c, 0, 64, 0
2, 59880, Note_on_c, 0, 64, 100
2, 59999, Note_on_c, 0, 64, 0
2, 60000, Note_on_c, 0, 66, 100
2, 60119, Note_on_c, 0, 66, 0
2, 60120, Note_on_c, 0, 64, 100
2, 60239, Note_on_c, 0, 64, 0
2, 60240, Note_on_c, 0, 66, 100
2, 60359, Note_on_c, 0, 66, 0
2, 60360, Note_on_c, 0, 68, 100
2, 60479, Note_on_c, 0, 68, 0
2, 60480, Note_on_c, 0, 69, 100
2, 60599, Note_on_c, 0, 69, 0
2, 60600, Note_on_c, 0, 64, 100
2, 60719, Note_on_c, 0, 64, 0
2, 60720, Note_on_c, 0, 69, 100
2, 60839, Note_on_c, 0, 69, 0
2, 60840, Note_on_c, 0, 73, 100
2, 60959, Note_on_c, 0, 73, 0
2, 60960, Note_on_c, 0, 71, 100
2, 61079, Note_on_c, 0, 71, 0
2, 61080, Note_on_c, 0, 70, 100
2, 61199, Note_on_c, 0, 70, 0
2, 61200, Note_on_c, 0, 71, 100
2, 61319, Note_on_c, 0, 71, 0
2, 61320, Note_on_c, 0, 73, 100
2, 61439, Note_on_c, 0, 73, 0
2, 61440, Note_on_c, 0, 70, 100
2, 61559, Note_on_c, 0, 70, 0
2, 61560, Note_on_c, 0, 73, 100
2, 61679, Note_on_c, 0, 73, 0
2, 61680, Note_on_c, 0, 66, 100
2, 61919, Note_on_c, 0, 66, 0
2, 61920, Note_on_c, 0, 65, 100
2, 62159, Note_on_c, 0, 65, 0
2, 62160, Note_on_c, 0, 64, 100
2, 62399, Note_on_c, 0, 64, 0
2, 62400, Note_on_c, 0, 63, 100
2, 62639, Note_on_c, 0, 63, 0
2, 62760, Note_on_c, 0, 67, 100
2, 62879, Note_on_c, 0, 67, 0
2, 62880, Note_on_c, 0, 68, 100
2, 62999, Note_on_c, 0, 68, 0
2, 63000, Note_on_c, 0, 67, 100
2, 63119, Note_on_c, 0, 67, 0
2, 63120, Note_on_c, 0, 68, 100
2, 63239, Note_on_c, 0, 68, 0
2, 63240, Note_on_c, 0, 70, 100
2, 63359, Note_on_c, 0, 70, 0
2, 63360, Note_on_c, 0, 63, 80
2, 63719, Note_on_c, 0, 63, 0
2, 63720, Note_on_c, 0, 61, 100
2, 63839, Note_on_c, 0, 61, 0
2, 63840, Note_on_c, 0, 60, 100
2, 64079, Note_on_c, 0, 60, 0
2, 64080, Note_on_c, 0, 59, 100
2, 64319, Note_on_c, 0, 59, 0
2, 64320, Note_on_c, 0, 58, 100
2, 64439, Note_on_c, 0, 58, 0
2, 64440, Note_on_c, 0, 70, 100
2, 64559, Note_on_c, 0, 70, 0
2, 64560, Note_on_c, 0, 68, 100
2, 64679, Note_on_c, 0, 68, 0
2, 64680, Note_on_c, 0, 67, 100
2, 64799, Note_on_c, 0, 67, 0
2, 64800, Note_on_c, 0, 68, 100
2, 64919, Note_on_c, 0, 68, 0
2, 64920, Note_on_c, 0, 71, 100
2, 65039, Note_on_c, 0, 71, 0
2, 65040, Note_on_c, 0, 70, 100
2, 65159, Note_on_c, 0, 70, 0
2, 65160, Note_on_c, 0, 68, 100
2, 65279, Note_on_c, 0, 68, 0
2, 65280, Note_on_c, 0, 67, 100
2, 65519, Note_on_c, 0, 67, 0
2, 65520, Note_on_c, 0, 66, 100
2, 65759, Note_on_c, 0, 66, 0
2, 65760, Note_on_c, 0, 65, 100
2, 65999, Note_on_c, 0, 65, 0
2, 66000, Note_on_c, 0, 64, 100
2, 66239, Note_on_c, 0, 64, 0
2, 66240, Note_on_c, 0, 63, 100
2, 66479, Note_on_c, 0, 63, 0
2, 66480, Note_on_c, 0, 64, 100
2, 66719, Note_on_c, 0, 64, 0
2, 66720, Note_on_c, 0, 63, 100
2, 67195, Note_on_c, 0, 63, 0
2, 67200, Note_on_c, 0, 63, 100
2, 67439, Note_on_c, 0, 63, 0
2, 67920, Note_on_c, 0, 64, 100
2, 68155, Note_on_c, 0, 64, 0
2, 68160, Note_on_c, 0, 64, 100
2, 68399, Note_on_c, 0, 64, 0
2, 68400, Note_on_c, 0, 63, 100
2, 68639, Note_on_c, 0, 63, 0
2, 68880, Note_on_c, 0, 66, 100
2, 69115, Note_on_c, 0, 66, 0
2, 69120, Note_on_c, 0, 66, 100
2, 69359, Note_on_c, 0, 66, 0
2, 69360, Note_on_c, 0, 64, 100
2, 69599, Note_on_c, 0, 64, 0
2, 69840, Note_on_c, 0, 67, 100
2, 70319, Note_on_c, 0, 67, 0
2, 70320, Note_on_c, 0, 68, 100
2, 70559, Note_on_c, 0, 68, 0
2, 70800, Note_on_c, 0, 68, 100
2, 71039, Note_on_c, 0, 68, 0
2, 71040, Note_on_c, 0, 67, 100
2, 71279, Note_on_c, 0, 67, 0
2, 71280, Note_on_c, 0, 68, 100
2, 71755, Note_on_c, 0, 68, 0
2, 71760, Note_on_c, 0, 66, 100
2, 71999, Note_on_c, 0, 66, 0
2, 72000, Note_on_c, 0, 64, 100
2, 72119, Note_on_c, 0, 64, 0
2, 72120, Note_on_c, 0, 63, 100
2, 72239, Note_on_c, 0, 63, 0
2, 72240, Note_on_c, 0, 61, 100
2, 72715, Note_on_c, 0, 61, 0
2, 72720, Note_on_c, 0, 66, 100
2, 72959, Note_on_c, 0, 66, 0
2, 72960, Note_on_c, 0, 64, 100
2, 73079, Note_on_c, 0, 64, 0
2, 73080, Note_on_c, 0, 68, 100
2, 73199, Note_on_c, 0, 68, 0
2, 73200, Note_on_c, 0, 69, 100
2, 73319, Note_on_c, 0, 69, 0
2, 73320, Note_on_c, 0, 73, 100
2, 73439, Note_on_c, 0, 73, 0
2, 73440, Note_on_c, 0, 72, 100
2, 73679, Note_on_c, 0, 72, 0
2, 73680, Note_on_c, 0, 71, 100
2, 73919, Note_on_c, 0, 71, 0
2, 73920, Note_on_c, 0, 70, 100
2, 74039, Note_on_c, 0, 70, 0
2, 74040, Note_on_c, 0, 72, 100
2, 74159, Note_on_c, 0, 72, 0
2, 74160, Note_on_c, 0, 73, 100
2, 74399, Note_on_c, 0, 73, 0
2, 74400, Note_on_c, 0, 71, 100
2, 74639, Note_on_c, 0, 71, 0
2, 74640, Note_on_c, 0, 69, 100
2, 74879, Note_on_c, 0, 69, 0
2, 74880, Note_on_c, 0, 68, 100
2, 75119, Note_on_c, 0, 68, 0
2, 76080, Note_on_c, 0, 70, 100
2, 76319, Note_on_c, 0, 70, 0
2, 76320, Note_on_c, 0, 71, 100
2, 76439, Note_on_c, 0, 71, 0
2, 76440, Note_on_c, 0, 73, 100
2, 76499, Note_on_c, 0, 73, 0
2, 76500, Note_on_c, 0, 74, 100
2, 76559, Note_on_c, 0, 74, 0
2, 76560, Note_on_c, 0, 73, 100
2, 76919, Note_on_c, 0, 73, 0
2, 76920, Note_on_c, 0, 71, 100
2, 76979, Note_on_c, 0, 71, 0
2, 76980, Note_on_c, 0, 69, 100
2, 77039, Note_on_c, 0, 69, 0
2, 77040, Note_on_c, 0, 68, 100
2, 77159, Note_on_c, 0, 68, 0
2, 77160, Note_on_c, 0, 66, 100
2, 77279, Note_on_c, 0, 66, 0
2, 77280, Note_on_c, 0, 65, 80
2, 77399, Note_on_c, 0, 65, 0
2, 77400, Note_on_c, 0, 61, 80
2, 77519, Note_on_c, 0, 61, 0
2, 77520, Note_on_c, 0, 66, 100
2, 77639, Note_on_c, 0, 66, 0
2, 77640, Note_on_c, 0, 63, 80
2, 77759, Note_on_c, 0, 63, 0
2, 77760, Note_on_c, 0, 65, 100
2, 77879, Note_on_c, 0, 65, 0
2, 77880, Note_on_c, 0, 68, 100
2, 77999, Note_on_c, 0, 68, 0
2, 78000, Note_on_c, 0, 66, 80
2, 78359, Note_on_c, 0, 66, 0
2, 78360, Note_on_c, 0, 68, 100
2, 78479, Note_on_c, 0, 68, 0
2, 78480, Note_on_c, 0, 69, 80
2, 78959, Note_on_c, 0, 69, 0
2, 78960, Note_on_c, 0, 68, 100
2, 79079, Note_on_c, 0, 68, 0
2, 79080, Note_on_c, 0, 69, 100
2, 79199, Note_on_c, 0, 69, 0
2, 79200, Note_on_c, 0, 68, 100
2, 79319, Note_on_c, 0, 68, 0
2, 79320, Note_on_c, 0, 66, 100
2, 79439, Note_on_c, 0, 66, 0
2, 79440, Note_on_c, 0, 64, 100
2, 79559, Note_on_c, 0, 64, 0
2, 79560, Note_on_c, 0, 63, 100
2, 79679, Note_on_c, 0, 63, 0
2, 79680, Note_on_c, 0, 64, 100
2, 79919, Note_on_c, 0, 64, 0
2, 79920, Note_on_c, 0, 68, 100
2, 80159, Note_on_c, 0, 68, 0
2, 80160, Note_on_c, 0, 61, 100
2, 80399, Note_on_c, 0, 61, 0
2, 80400, Note_on_c, 0, 63, 100
2, 80639, Note_on_c, 0, 63, 0
2, 80880, Note_on_c, 0, 64, 100
2, 81119, Note_on_c, 0, 64, 0
2, 81120, Note_on_c, 0, 66, 100
2, 81359, Note_on_c, 0, 66, 0
2, 81360, Note_on_c, 0, 68, 100
2, 81599, Note_on_c, 0, 68, 0
2, 81840, Note_on_c, 0, 69, 100
2, 82079, Note_on_c, 0, 69, 0
2, 82080, Note_on_c, 0, 68, 100
2, 82319, Note_on_c, 0, 68, 0
2, 82320, Note_on_c, 0, 66, 100
2, 82559, Note_on_c, 0, 66, 0
2, 82800, Note_on_c, 0, 64, 100
2, 82919, Note_on_c, 0, 64, 0
2, 82920, Note_on_c, 0, 63, 100
2, 83039, Note_on_c, 0, 63, 0
2, 83040, Note_on_c, 0, 64, 100
2, 83279, Note_on_c, 0, 64, 0
2, 83280, Note_on_c, 0, 66, 100
2, 83519, Note_on_c, 0, 66, 0
2, 83520, Note_on_c, 0, 68, 100
2, 83639, Note_on_c, 0, 68, 0
2, 83640, Note_on_c, 0, 69, 100
2, 83759, Note_on_c, 0, 69, 0
2, 83760, Note_on_c, 0, 71, 100
2, 84235, Note_on_c, 0, 71, 0
2, 84240, Note_on_c, 0, 69, 100
2, 84719, Note_on_c, 0, 69, 0
2, 84720, Note_on_c, 0, 68, 100
2, 84955, Note_on_c, 0, 68, 0
2, 86160, Note_on_c, 0, 57, 100
2, 86519, Note_on_c, 0, 57, 0
2, 86520, Note_on_c, 0, 56, 100
2, 86639, Note_on_c, 0, 56, 0
2, 86640, Note_on_c, 0, 59, 100
2, 86725, Note_on_c, 0, 59, 0
2, 86760, Note_on_c, 0, 59, 100
2, 86845, Note_on_c, 0, 59, 0
2, 86880, Note_on_c, 0, 59, 100
2, 86999, Note_on_c, 0, 59, 0
2, 87000, Note_on_c, 0, 58, 100
2, 87119, Note_on_c, 0, 58, 0
2, 87120, Note_on_c, 0, 61, 100
2, 87205, Note_on_c, 0, 61, 0
2, 87240, Note_on_c, 0, 61, 100
2, 87325, Note_on_c, 0, 61, 0
2, 87360, Note_on_c, 0, 61, 100
2, 87479, Note_on_c, 0, 61, 0
2, 87480, Note_on_c, 0, 59, 100
2, 87599, Note_on_c, 0, 59, 0
2, 87600, Note_on_c, 0, 61, 100
2, 87719, Note_on_c, 0, 61, 0
2, 87720, Note_on_c, 0, 63, 100
2, 87839, Note_on_c, 0, 63, 0
2, 87840, Note_on_c, 0, 64, 100
2, 87959, Note_on_c, 0, 64, 0
2, 87960, Note_on_c, 0, 63, 100
2, 88079, Note_on_c, 0, 63, 0
2, 88080, Note_on_c, 0, 64, 100
2, 88199, Note_on_c, 0, 64, 0
2, 88200, Note_on_c, 0, 66, 100
2, 88319, Note_on_c, 0, 66, 0
2, 88320, Note_on_c, 0, 63, 100
2, 88439, Note_on_c, 0, 63, 0
2, 88440, Note_on_c, 0, 66, 100
2, 88559, Note_on_c, 0, 66, 0
2, 88560, Note_on_c, 0, 64, 100
2, 88679, Note_on_c, 0, 64, 0
2, 88680, Note_on_c, 0, 63, 100
2, 88799, Note_on_c, 0, 63, 0
2, 88800, Note_on_c, 0, 61, 100
2, 89039, Note_on_c, 0, 61, 0
2, 89040, Note_on_c, 0, 63, 100
2, 89279, Note_on_c, 0, 63, 0
2, 89280, Note_on_c, 0, 64, 100
2, 89519, Note_on_c, 0, 64, 0
2, 89520, Note_on_c, 0, 59, 100
2, 89759, Note_on_c, 0, 59, 0
2, 89760, Note_on_c, 0, 66, 100
2, 89999, Note_on_c, 0, 66, 0
2, 90000, Note_on_c, 0, 67, 100
2, 90239, Note_on_c, 0, 67, 0
2, 90240, Note_on_c, 0, 68, 100
2, 90479, Note_on_c, 0, 68, 0
2, 90480, Note_on_c, 0, 63, 100
2, 90719, Note_on_c, 0, 63, 0
2, 90720, Note_on_c, 0, 70, 100
2, 91195, Note_on_c, 0, 70, 0
2, 91200, Note_on_c, 0, 71, 100
2, 91439, Note_on_c, 0, 71, 0
2, 91440, Note_on_c, 0, 70, 100
2, 91679, Note_on_c, 0, 70, 0
2, 91680, Note_on_c, 0, 68, 100
2, 91799, Note_on_c, 0, 68, 0
2, 91800, Note_on_c, 0, 70, 100
2, 91919, Note_on_c, 0, 70, 0
2, 91920, Note_on_c, 0, 68, 100
2, 92159, Note_on_c, 0, 68, 0
2, 92160, Note_on_c, 0, 75, 100
2, 92635, Note_on_c, 0, 75, 0
2, 92880, Note_on_c, 0, 73, 100
2, 93239, Note_on_c, 0, 73, 0
2, 93240, Note_on_c, 0, 70, 100
2, 93359, Note_on_c, 0, 70, 0
2, 93360, Note_on_c, 0, 71, 100
2, 93445, Note_on_c, 0, 71, 0
2, 93480, Note_on_c, 0, 71, 100
2, 93565, Note_on_c, 0, 71, 0
2, 93600, Note_on_c, 0, 71, 100
2, 93719, Note_on_c, 0, 71, 0
2, 93720, Note_on_c, 0, 68, 100
2, 93839, Note_on_c, 0, 68, 0
2, 93840, Note_on_c, 0, 70, 100
2, 93925, Note_on_c, 0, 70, 0
2, 93960, Note_on_c, 0, 70, 100
2, 94045, Note_on_c, 0, 70, 0
2, 94080, Note_on_c, 0, 70, 100
2, 94199, Note_on_c, 0, 70, 0
2, 94200, Note_on_c, 0, 67, 100
2, 94319, Note_on_c, 0, 67, 0
2, 94320, Note_on_c, 0, 68, 100
2, 94439, Note_on_c, 0, 68, 0
2, 94440, Note_on_c, 0, 71, 100
2, 94559, Note_on_c, 0, 71, 0
2, 94560, Note_on_c, 0, 65, 100
2, 94799, Note_on_c, 0, 65, 0
2, 94800, Note_on_c, 0, 64, 100
2, 95039, Note_on_c, 0, 64, 0
2, 95040, Note_on_c, 0, 63, 100
2, 95515, Note_on_c, 0, 63, 0
2, 95520, Note_on_c, 0, 65, 100
2, 95759, Note_on_c, 0, 65, 0
2, 95760, Note_on_c, 0, 69, 100
2, 95999, Note_on_c, 0, 69, 0
2, 96000, Note_on_c, 0, 68, 100
2, 96239, Note_on_c, 0, 68, 0
2, 96240, Note_on_c, 0, 61, 100
2, 96479, Note_on_c, 0, 61, 0
2, 96480, Note_on_c, 0, 68, 100
2, 96719, Note_on_c, 0, 68, 0
2, 96720, Note_on_c, 0, 66, 100
2, 96959, Note_on_c, 0, 66, 0
2, 97200, Note_on_c, 0, 64, 100
2, 97439, Note_on_c, 0, 64, 0
2, 97440, Note_on_c, 0, 63, 100
2, 97679, Note_on_c, 0, 63, 0
2, 97680, Note_on_c, 0, 61, 100
2, 97919, Note_on_c, 0, 61, 0
2, 98160, Note_on_c, 0, 60, 100
2, 98399, Note_on_c, 0, 60, 0
2, 98400, Note_on_c, 0, 61, 100
2, 98639, Note_on_c, 0, 61, 0
2, 98640, Note_on_c, 0, 63, 100
2, 98879, Note_on_c, 0, 63, 0
2, 99120, Note_on_c, 0, 64, 100
2, 99239, Note_on_c, 0, 64, 0
2, 99240, Note_on_c, 0, 66, 100
2, 99359, Note_on_c, 0, 66, 0
2, 99360, Note_on_c, 0, 64, 100
2, 99599, Note_on_c, 0, 64, 0
2, 99600, Note_on_c, 0, 63, 100
2, 99839, Note_on_c, 0, 63, 0
2, 99840, Note_on_c, 0, 61, 100
2, 100079, Note_on_c, 0, 61, 0
2, 100080, Note_on_c, 0, 68, 100
2, 100439, Note_on_c, 0, 68, 0
2, 100440, Note_on_c, 0, 65, 100
2, 100559, Note_on_c, 0, 65, 0
2, 100560, Note_on_c, 0, 66, 100
2, 100645, Note_on_c, 0, 66, 0
2, 100680, Note_on_c, 0, 66, 100
2, 100765, Note_on_c, 0, 66, 0
2, 100800, Note_on_c, 0, 66, 100
2, 100919, Note_on_c, 0, 66, 0
2, 100920, Note_on_c, 0, 63, 100
2, 101039, Note_on_c, 0, 63, 0
2, 101040, Note_on_c, 0, 64, 100
2, 101125, Note_on_c, 0, 64, 0
2, 101160, Note_on_c, 0, 64, 100
2, 101245, Note_on_c, 0, 64, 0
2, 101280, Note_on_c, 0, 64, 100
2, 101399, Note_on_c, 0, 64, 0
2, 101400, Note_on_c, 0, 61, 100
2, 101519, Note_on_c, 0, 61, 0
2, 101520, Note_on_c, 0, 63, 100
2, 101605, Note_on_c, 0, 63, 0
2, 101640, Note_on_c, 0, 63, 100
2, 101725, Note_on_c, 0, 63, 0
2, 101760, Note_on_c, 0, 63, 100
2, 101879, Note_on_c, 0, 63, 0
2, 101880, Note_on_c, 0, 60, 100
2, 101999, Note_on_c, 0, 60, 0
2, 102000, Note_on_c, 0, 61, 100
2, 102239, Note_on_c, 0, 61, 0
2, 102480, Note_on_c, 0, 59, 100
2, 102719, Note_on_c, 0, 59, 0
2, 102720, Note_on_c, 0, 64, 100
2, 102959, Note_on_c, 0, 64, 0
2, 102960, Note_on_c, 0, 63, 100
2, 103199, Note_on_c, 0, 63, 0
2, 103200, Note_on_c, 0, 62, 100
2, 103439, Note_on_c, 0, 62, 0
2, 103560, Note_on_c, 0, 71, 100
2, 103799, Note_on_c, 0, 71, 0
2, 103800, Note_on_c, 0, 68, 100
2, 103919, Note_on_c, 0, 68, 0
2, 103920, Note_on_c, 0, 69, 100
2, 104005, Note_on_c, 0, 69, 0
2, 104040, Note_on_c, 0, 69, 100
2, 104125, Note_on_c, 0, 69, 0
2, 104160, Note_on_c, 0, 69, 100
2, 104279, Note_on_c, 0, 69, 0
2, 104280, Note_on_c, 0, 66, 100
2, 104399, Note_on_c, 0, 66, 0
2, 104400, Note_on_c, 0, 67, 100
2, 104485, Note_on_c, 0, 67, 0
2, 104520, Note_on_c, 0, 67, 100
2, 104605, Note_on_c, 0, 67, 0
2, 104640, Note_on_c, 0, 66, 80
2, 104999, Note_on_c, 0, 66, 0
2, 105000, Note_on_c, 0, 68, 100
2, 105119, Note_on_c, 0, 68, 0
2, 105120, Note_on_c, 0, 65, 80
2, 105479, Note_on_c, 0, 65, 0
2, 105480, Note_on_c, 0, 66, 100
2, 105599, Note_on_c, 0, 66, 0
2, 105600, Note_on_c, 0, 59, 100
2, 105839, Note_on_c, 0, 59, 0
2, 105840, Note_on_c, 0, 71, 100
2, 106199, Note_on_c, 0, 71, 0
2, 106200, Note_on_c, 0, 68, 100
2, 106319, Note_on_c, 0, 68, 0
2, 106320, Note_on_c, 0, 69, 100
2, 106405, Note_on_c, 0, 69, 0
2, 106440, Note_on_c, 0, 69, 100
2, 106525, Note_on_c, 0, 69, 0
2, 106560, Note_on_c, 0, 68, 100
2, 107035, Note_on_c, 0, 68, 0
2, 107040, Note_on_c, 0, 66, 100
2, 107515, Note_on_c, 0, 66, 0
2, 107520, Note_on_c, 0, 64, 100
2, 108119, Note_on_c, 0, 64, 0
2, 108120, Note_on_c, 0, 66, 100
2, 108239, Note_on_c, 0, 66, 0
2, 108240, Note_on_c, 0, 64, 100
2, 108359, Note_on_c, 0, 64, 0
2, 108360, Note_on_c, 0, 62, 100
2, 108599, Note_on_c, 0, 62, 0
2, 108600, Note_on_c, 0, 61, 100
2, 108719, Note_on_c, 0, 61, 0
2, 108720, Note_on_c, 0, 64, 100
2, 108805, Note_on_c, 0, 64, 0
2, 108840, Note_on_c, 0, 64, 100
2, 108925, Note_on_c, 0, 64, 0
2, 108960, Note_on_c, 0, 64, 100
2, 109079, Note_on_c, 0, 64, 0
2, 109080, Note_on_c, 0, 62, 100
2, 109199, Note_on_c, 0, 62, 0
2, 109200, Note_on_c, 0, 66, 100
2, 109285, Note_on_c, 0, 66, 0
2, 109320, Note_on_c, 0, 66, 100
2, 109405, Note_on_c, 0, 66, 0
2, 109440, Note_on_c, 0, 66, 100
2, 109559, Note_on_c, 0, 66, 0
2, 109560, Note_on_c, 0, 65, 100
2, 109679, Note_on_c, 0, 65, 0
2, 109680, Note_on_c, 0, 68, 100
2, 109765, Note_on_c, 0, 68, 0
2, 109800, Note_on_c, 0, 68, 100
2, 109885, Note_on_c, 0, 68, 0
2, 109920, Note_on_c, 0, 68, 100
2, 110039, Note_on_c, 0, 68, 0
2, 110040, Note_on_c, 0, 66, 100
2, 110159, Note_on_c, 0, 66, 0
2, 110160, Note_on_c, 0, 70, 100
2, 110245, Note_on_c, 0, 70, 0
2, 110280, Note_on_c, 0, 70, 100
2, 110365, Note_on_c, 0, 70, 0
2, 110400, Note_on_c, 0, 68, 100
2, 110639, Note_on_c, 0, 68, 0
2, 110640, Note_on_c, 0, 70, 100
2, 110759, Note_on_c, 0, 70, 0
2, 110760, Note_on_c, 0, 72, 100
2, 110879, Note_on_c, 0, 72, 0
2, 110880, Note_on_c, 0, 73, 100
2, 111119, Note_on_c, 0, 73, 0
2, 112080, Note_on_c, 0, 73, 100
2, 112439, Note_on_c, 0, 73, 0
2, 112440, Note_on_c, 0, 70, 100
2, 112559, Note_on_c, 0, 70, 0
2, 112560, Note_on_c, 0, 71, 100
2, 112645, Note_on_c, 0, 71, 0
2, 112680, Note_on_c, 0, 71, 100
2, 112765, Note_on_c, 0, 71, 0
2, 112800, Note_on_c, 0, 71, 100
2, 112919, Note_on_c, 0, 71, 0
2, 112920, Note_on_c, 0, 68, 100
2, 113039, Note_on_c, 0, 68, 0
2, 113040, Note_on_c, 0, 70, 100
2, 113125, Note_on_c, 0, 70, 0
2, 113160, Note_on_c, 0, 70, 100
2, 113245, Note_on_c, 0, 70, 0
2, 113280, Note_on_c, 0, 70, 100
2, 113399, Note_on_c, 0, 70, 0
2, 113400, Note_on_c, 0, 67, 100
2, 113519, Note_on_c, 0, 67, 0
2, 113520, Note_on_c, 0, 68, 100
2, 113605, Note_on_c, 0, 68, 0
2, 113640, Note_on_c, 0, 68, 100
2, 113725, Note_on_c, 0, 68, 0
2, 113760, Note_on_c, 0, 68, 100
2, 113879, Note_on_c, 0, 68, 0
2, 113880, Note_on_c, 0, 65, 100
2, 113999, Note_on_c, 0, 65, 0
2, 114000, Note_on_c, 0, 67, 100
2, 114085, Note_on_c, 0, 67, 0
2, 114120, Note_on_c, 0, 67, 100
2, 114205, Note_on_c, 0, 67, 0
2, 114240, Note_on_c, 0, 67, 100
2, 114359, Note_on_c, 0, 67, 0
2, 114360, Note_on_c, 0, 68, 100
2, 114419, Note_on_c, 0, 68, 0
2, 114420, Note_on_c, 0, 66, 100
2, 114479, Note_on_c, 0, 66, 0
2, 114480, Note_on_c, 0, 65, 100
2, 114599, Note_on_c, 0, 65, 0
2, 114600, Note_on_c, 0, 63, 100
2, 114719, Note_on_c, 0, 63, 0
2, 114720, Note_on_c, 0, 65, 100
2, 115319, Note_on_c, 0, 65, 0
2, 115320, Note_on_c, 0, 63, 100
2, 115439, Note_on_c, 0, 63, 0
2, 115440, Note_on_c, 0, 67, 100
2, 115525, Note_on_c, 0, 67, 0
2, 115560, Note_on_c, 0, 67, 100
2, 115645, Note_on_c, 0, 67, 0
2, 115680, Note_on_c, 0, 67, 100
2, 115799, Note_on_c, 0, 67, 0
2, 115800, Note_on_c, 0, 65, 100
2, 115919, Note_on_c, 0, 65, 0
2, 115920, Note_on_c, 0, 68, 100
2, 116005, Note_on_c, 0, 68, 0
2, 116040, Note_on_c, 0, 68, 100
2, 116125, Note_on_c, 0, 68, 0
2, 116160, Note_on_c, 0, 68, 100
2, 116279, Note_on_c, 0, 68, 0
2, 116280, Note_on_c, 0, 67, 100
2, 116399, Note_on_c, 0, 67, 0
2, 116400, Note_on_c, 0, 70, 100
2, 116485, Note_on_c, 0, 70, 0
2, 116520, Note_on_c, 0, 70, 100
2, 116605, Note_on_c, 0, 70, 0
2, 116640, Note_on_c, 0, 70, 100
2, 116759, Note_on_c, 0, 70, 0
2, 116760, Note_on_c, 0, 68, 100
2, 116879, Note_on_c, 0, 68, 0
2, 116880, Note_on_c, 0, 71, 100
2, 116965, Note_on_c, 0, 71, 0
2, 117000, Note_on_c, 0, 71, 100
2, 117085, Note_on_c, 0, 71, 0
2, 117120, Note_on_c, 0, 71, 100
2, 117239, Note_on_c, 0, 71, 0
2, 117240, Note_on_c, 0, 70, 100
2, 117359, Note_on_c, 0, 70, 0
2, 117360, Note_on_c, 0, 73, 100
2, 117445, Note_on_c, 0, 73, 0
2, 117480, Note_on_c, 0, 73, 100
2, 117565, Note_on_c, 0, 73, 0
2, 117600, Note_on_c, 0, 73, 100
2, 117719, Note_on_c, 0, 73, 0
2, 117720, Note_on_c, 0, 72, 100
2, 117839, Note_on_c, 0, 72, 0
2, 117840, Note_on_c, 0, 75, 100
2, 117925, Note_on_c, 0, 75, 0
2, 117960, Note_on_c, 0, 75, 100
2, 118045, Note_on_c, 0, 75, 0
2, 118080, Note_on_c, 0, 75, 100
2, 118199, Note_on_c, 0, 75, 0
2, 118200, Note_on_c, 0, 73, 100
2, 118319, Note_on_c, 0, 73, 0
2, 118320, Note_on_c, 0, 74, 100
2, 118405, Note_on_c, 0, 74, 0
2, 118440, Note_on_c, 0, 74, 100
2, 118525, Note_on_c, 0, 74, 0
2, 118560, Note_on_c, 0, 74, 100
2, 118679, Note_on_c, 0, 74, 0
2, 118680, Note_on_c, 0, 73, 100
2, 118765, Note_on_c, 0, 73, 0
2, 118800, Note_on_c, 0, 73, 100
2, 118885, Note_on_c, 0, 73, 0
2, 118920, Note_on_c, 0, 73, 100
2, 119005, Note_on_c, 0, 73, 0
2, 119040, Note_on_c, 0, 73, 100
2, 119159, Note_on_c, 0, 73, 0
2, 119160, Note_on_c, 0, 71, 100
2, 119279, Note_on_c, 0, 71, 0
2, 119280, Note_on_c, 0, 66, 100
2, 119365, Note_on_c, 0, 66, 0
2, 119400, Note_on_c, 0, 66, 100
2, 119519, Note_on_c, 0, 66, 0
2, 119520, Note_on_c, 0, 64, 100
2, 119759, Note_on_c, 0, 64, 0
2, 119760, Note_on_c, 0, 73, 100
2, 119845, Note_on_c, 0, 73, 0
2, 119880, Note_on_c, 0, 73, 100
2, 119999, Note_on_c, 0, 73, 0
2, 120000, Note_on_c, 0, 69, 100
2, 120119, Note_on_c, 0, 69, 0
2, 120120, Note_on_c, 0, 66, 100
2, 120239, Note_on_c, 0, 66, 0
2, 120240, Note_on_c, 0, 68, 100
2, 120479, Note_on_c, 0, 68, 0
2, 120480, Note_on_c, 0, 67, 100
2, 120719, Note_on_c, 0, 67, 0
2, 120720, Note_on_c, 0, 68, 100
2, 120839, Note_on_c, 0, 68, 0
2, 120840, Note_on_c, 0, 66, 100
2, 120959, Note_on_c, 0, 66, 0
2, 120960, Note_on_c, 0, 65, 100
2, 121199, Note_on_c, 0, 65, 0
2, 121200, Note_on_c, 0, 67, 100
2, 121559, Note_on_c, 0, 67, 0
2, 121560, Note_on_c, 0, 70, 100
2, 121679, Note_on_c, 0, 70, 0
2, 121680, Note_on_c, 0, 68, 100
2, 121799, Note_on_c, 0, 68, 0
2, 121800, Note_on_c, 0, 71, 100
2, 121919, Note_on_c, 0, 71, 0
2, 121920, Note_on_c, 0, 70, 100
2, 122159, Note_on_c, 0, 70, 0
2, 122160, Note_on_c, 0, 68, 100
2, 122635, Note_on_c, 0, 68, 0
2, 122640, Note_on_c, 0, 67, 100
2, 122879, Note_on_c, 0, 67, 0
2, 122880, Note_on_c, 0, 68, 100
2, 123119, Note_on_c, 0, 68, 0
2, 123120, Note_on_c, 0, 66, 100
2, 123359, Note_on_c, 0, 66, 0
2, 123360, Note_on_c, 0, 65, 100
2, 123599, Note_on_c, 0, 65, 0
2, 123600, Note_on_c, 0, 64, 100
2, 123839, Note_on_c, 0, 64, 0
2, 123840, Note_on_c, 0, 63, 80
2, 124199, Note_on_c, 0, 63, 0
2, 124200, Note_on_c, 0, 63, 100
2, 124319, Note_on_c, 0, 63, 0
2, 124320, Note_on_c, 0, 64, 100
2, 124439, Note_on_c, 0, 64, 0
2, 124440, Note_on_c, 0, 68, 100
2, 124559, Note_on_c, 0, 68, 0
2, 124560, Note_on_c, 0, 63, 100
2, 124645, Note_on_c, 0, 63, 0
2, 124680, Note_on_c, 0, 63, 100
2, 124765, Note_on_c, 0, 63, 0
2, 124800, Note_on_c, 0, 63, 100
2, 124919, Note_on_c, 0, 63, 0
2, 124920, Note_on_c, 0, 66, 100
2, 125039, Note_on_c, 0, 66, 0
2, 125040, Note_on_c, 0, 64, 100
2, 125125, Note_on_c, 0, 64, 0
2, 125160, Note_on_c, 0, 64, 100
2, 125245, Note_on_c, 0, 64, 0
2, 125280, Note_on_c, 0, 64, 100
2, 125399, Note_on_c, 0, 64, 0
2, 125400, Note_on_c, 0, 68, 100
2, 125519, Note_on_c, 0, 68, 0
2, 125520, Note_on_c, 0, 66, 100
2, 125605, Note_on_c, 0, 66, 0
2, 125640, Note_on_c, 0, 66, 100
2, 125725, Note_on_c, 0, 66, 0
2, 125760, Note_on_c, 0, 66, 100
2, 125879, Note_on_c, 0, 66, 0
2, 125880, Note_on_c, 0, 69, 100
2, 125999, Note_on_c, 0, 69, 0
2, 126000, Note_on_c, 0, 68, 100
2, 126119, Note_on_c, 0, 68, 0
2, 126120, Note_on_c, 0, 73, 100
2, 126205, Note_on_c, 0, 73, 0
2, 126240, Note_on_c, 0, 73, 100
2, 126359, Note_on_c, 0, 73, 0
2, 126360, Note_on_c, 0, 70, 100
2, 126479, Note_on_c, 0, 70, 0
2, 126480, Note_on_c, 0, 72, 100
2, 126565, Note_on_c, 0, 72, 0
2, 126600, Note_on_c, 0, 72, 100
2, 126685, Note_on_c, 0, 72, 0
2, 126720, Note_on_c, 0, 72, 100
2, 126839, Note_on_c, 0, 72, 0
2, 126840, Note_on_c, 0, 63, 100
2, 126959, Note_on_c, 0, 63, 0
2, 126960, Note_on_c, 0, 64, 100
2, 127045, Note_on_c, 0, 64, 0
2, 127080, Note_on_c, 0, 64, 100
2, 127165, Note_on_c, 0, 64, 0
2, 127200, Note_on_c, 0, 69, 100
2, 128039, Note_on_c, 0, 69, 0
2, 128040, Note_on_c, 0, 69, 100
2, 128159, Note_on_c, 0, 69, 0
2, 128160, Note_on_c, 0, 68, 100
2, 128399, Note_on_c, 0, 68, 0
2, 128400, Note_on_c, 0, 66, 100
2, 128879, Note_on_c, 0, 66, 0
2, 128880, Note_on_c, 0, 64, 100
2, 128999, Note_on_c, 0, 64, 0
2, 129000, Note_on_c, 0, 61, 100
2, 129119, Note_on_c, 0, 61, 0
2, 129120, Note_on_c, 0, 66, 100
2, 129839, Note_on_c, 0, 66, 0
2, 129840, Note_on_c, 0, 64, 100
2, 129959, Note_on_c, 0, 64, 0
2, 129960, Note_on_c, 0, 66, 100
2, 130079, Note_on_c, 0, 66, 0
2, 130080, Note_on_c, 0, 64, 100
2, 130319, Note_on_c, 0, 64, 0
2, 130320, Note_on_c, 0, 62, 100
2, 130679, Note_on_c, 0, 62, 0
2, 130680, Note_on_c, 0, 61, 100
2, 130799, Note_on_c, 0, 61, 0
2, 130800, Note_on_c, 0, 64, 100
2, 130885, Note_on_c, 0, 64, 0
2, 130920, Note_on_c, 0, 64, 100
2, 131005, Note_on_c, 0, 64, 0
2, 131040, Note_on_c, 0, 64, 100
2, 131159, Note_on_c, 0, 64, 0
2, 131160, Note_on_c, 0, 63, 100
2, 131279, Note_on_c, 0, 63, 0
2, 131280, Note_on_c, 0, 66, 100
2, 131365, Note_on_c, 0, 66, 0
2, 131400, Note_on_c, 0, 66, 100
2, 131485, Note_on_c, 0, 66, 0
2, 131520, Note_on_c, 0, 66, 100
2, 131639, Note_on_c, 0, 66, 0
2, 131640, Note_on_c, 0, 65, 100
2, 131759, Note_on_c, 0, 65, 0
2, 131760, Note_on_c, 0, 68, 100
2, 131845, Note_on_c, 0, 68, 0
2, 131880, Note_on_c, 0, 68, 100
2, 131965, Note_on_c, 0, 68, 0
2, 132000, Note_on_c, 0, 68, 100
2, 132119, Note_on_c, 0, 68, 0
2, 132120, Note_on_c, 0, 67, 100
2, 132239, Note_on_c, 0, 67, 0
2, 132240, Note_on_c, 0, 70, 100
2, 132325, Note_on_c, 0, 70, 0
2, 132360, Note_on_c, 0, 70, 100
2, 132445, Note_on_c, 0, 70, 0
2, 132480, Note_on_c, 0, 70, 100
2, 132599, Note_on_c, 0, 70, 0
2, 132600, Note_on_c, 0, 68, 100
2, 132719, Note_on_c, 0, 68, 0
2, 132720, Note_on_c, 0, 70, 100
2, 132839, Note_on_c, 0, 70, 0
2, 132840, Note_on_c, 0, 72, 100
2, 132959, Note_on_c, 0, 72, 0
2, 132960, Note_on_c, 0, 73, 100
2, 133079, Note_on_c, 0, 73, 0
2, 133080, Note_on_c, 0, 72, 100
2, 133199, Note_on_c, 0, 72, 0
2, 133200, Note_on_c, 0, 73, 100
2, 133319, Note_on_c, 0, 73, 0
2, 133320, Note_on_c, 0, 75, 100
2, 133439, Note_on_c, 0, 75, 0
2, 133440, Note_on_c, 0, 72, 100
2, 133679, Note_on_c, 0, 72, 0
2, 133680, Note_on_c, 0, 71, 100
2, 133919, Note_on_c, 0, 71, 0
2, 133920, Note_on_c, 0, 70, 100
2, 134159, Note_on_c, 0, 70, 0
2, 134160, Note_on_c, 0, 69, 100
2, 134399, Note_on_c, 0, 69, 0
2, 134400, Note_on_c, 0, 68, 100
2, 134639, Note_on_c, 0, 68, 0
2, 134640, Note_on_c, 0, 69, 100
2, 134879, Note_on_c, 0, 69, 0
2, 134880, Note_on_c, 0, 70, 100
2, 135119, Note_on_c, 0, 70, 0
2, 135120, Note_on_c, 0, 71, 100
2, 135359, Note_on_c, 0, 71, 0
2, 135360, Note_on_c, 0, 72, 100
2, 135599, Note_on_c, 0, 72, 0
2, 135600, Note_on_c, 0, 73, 100
2, 135839, Note_on_c, 0, 73, 0
2, 135840, Note_on_c, 0, 74, 100
2, 136439, Note_on_c, 0, 74, 0
2, 136440, Note_on_c, 0, 72, 100
2, 136559, Note_on_c, 0, 72, 0
2, 136560, Note_on_c, 0, 73, 100
2, 136645, Note_on_c, 0, 73, 0
2, 136680, Note_on_c, 0, 73, 100
2, 136765, Note_on_c, 0, 73, 0
2, 136800, Note_on_c, 0, 73, 100
2, 136919, Note_on_c, 0, 73, 0
2, 136920, Note_on_c, 0, 70, 100
2, 137039, Note_on_c, 0, 70, 0
2, 137040, Note_on_c, 0, 71, 100
2, 137125, Note_on_c, 0, 71, 0
2, 137160, Note_on_c, 0, 71, 100
2, 137245, Note_on_c, 0, 71, 0
2, 137280, Note_on_c, 0, 70, 100
2, 137519, Note_on_c, 0, 70, 0
2, 137520, Note_on_c, 0, 69, 80
2, 137759, Note_on_c, 0, 69, 0
2, 137760, Note_on_c, 0, 68, 100
2, 137999, Note_on_c, 0, 68, 0
2, 138000, Note_on_c, 0, 67, 80
2, 138239, Note_on_c, 0, 67, 0
2, 138240, Note_on_c, 0, 66, 100
2, 138359, Note_on_c, 0, 66, 0
2, 138360, Note_on_c, 0, 67, 80
2, 138479, Note_on_c, 0, 67, 0
2, 138480, Note_on_c, 0, 66, 100
2, 138599, Note_on_c, 0, 66, 0
2, 138600, Note_on_c, 0, 64, 100
2, 138719, Note_on_c, 0, 64, 0
2, 138720, Note_on_c, 0, 62, 100
2, 138839, Note_on_c, 0, 62, 0
2, 138840, Note_on_c, 0, 61, 100
2, 138959, Note_on_c, 0, 61, 0
2, 138960, Note_on_c, 0, 64, 100
2, 139045, Note_on_c, 0, 64, 0
2, 139080, Note_on_c, 0, 64, 100
2, 139165, Note_on_c, 0, 64, 0
2, 139200, Note_on_c, 0, 64, 100
2, 139319, Note_on_c, 0, 64, 0
2, 139320, Note_on_c, 0, 63, 100
2, 139439, Note_on_c, 0, 63, 0
2, 139440, Note_on_c, 0, 66, 100
2, 139525, Note_on_c, 0, 66, 0
2, 139560, Note_on_c, 0, 66, 100
2, 139645, Note_on_c, 0, 66, 0
2, 139680, Note_on_c, 0, 66, 100
2, 139799, Note_on_c, 0, 66, 0
2, 139800, Note_on_c, 0, 65, 100
2, 139919, Note_on_c, 0, 65, 0
2, 139920, Note_on_c, 0, 68, 100
2, 140005, Note_on_c, 0, 68, 0
2, 140040, Note_on_c, 0, 68, 100
2, 140125, Note_on_c, 0, 68, 0
2, 140160, Note_on_c, 0, 68, 100
2, 140279, Note_on_c, 0, 68, 0
2, 140280, Note_on_c, 0, 67, 100
2, 140399, Note_on_c, 0, 67, 0
2, 140400, Note_on_c, 0, 70, 100
2, 140485, Note_on_c, 0, 70, 0
2, 140520, Note_on_c, 0, 70, 100
2, 140605, Note_on_c, 0, 70, 0
2, 140640, Note_on_c, 0, 70, 100
2, 140759, Note_on_c, 0, 70, 0
2, 140760, Note_on_c, 0, 68, 100
2, 140879, Note_on_c, 0, 68, 0
2, 140880, Note_on_c, 0, 71, 100
2, 140965, Note_on_c, 0, 71, 0
2, 141000, Note_on_c, 0, 71, 100
2, 141085, Note_on_c, 0, 71, 0
2, 141120, Note_on_c, 0, 71, 100
2, 141239, Note_on_c, 0, 71, 0
2, 141240, Note_on_c, 0, 70, 100
2, 141359, Note_on_c, 0, 70, 0
2, 141360, Note_on_c, 0, 68, 100
2, 141479, Note_on_c, 0, 68, 0
2, 141480, Note_on_c, 0, 70, 100
2, 141599, Note_on_c, 0, 70, 0
2, 141600, Note_on_c, 0, 66, 100
2, 141839, Note_on_c, 0, 66, 0
2, 141840, Note_on_c, 0, 71, 100
2, 142079, Note_on_c, 0, 71, 0
2, 142080, Note_on_c, 0, 70, 100
2, 142319, Note_on_c, 0, 70, 0
2, 143280, Note_on_c, 0, 68, 100
2, 143639, Note_on_c, 0, 68, 0
2, 143640, Note_on_c, 0, 65, 100
2, 143759, Note_on_c, 0, 65, 0
2, 143760, Note_on_c, 0, 66, 100
2, 143845, Note_on_c, 0, 66, 0
2, 143880, Note_on_c, 0, 66, 100
2, 143965, Note_on_c, 0, 66, 0
2, 144000, Note_on_c, 0, 65, 100
2, 144239, Note_on_c, 0, 65, 0
2, 144240, Note_on_c, 0, 64, 100
2, 144479, Note_on_c, 0, 64, 0
2, 144480, Note_on_c, 0, 63, 100
2, 144719, Note_on_c, 0, 63, 0
2, 145680, Note_on_c, 0, 68, 100
2, 146039, Note_on_c, 0, 68, 0
2, 146040, Note_on_c, 0, 64, 100
2, 146159, Note_on_c, 0, 64, 0
2, 146160, Note_on_c, 0, 66, 100
2, 146245, Note_on_c, 0, 66, 0
2, 146280, Note_on_c, 0, 66, 100
2, 146365, Note_on_c, 0, 66, 0
2, 146400, Note_on_c, 0, 66, 100
2, 146519, Note_on_c, 0, 66, 0
2, 146520, Note_on_c, 0, 63, 100
2, 146639, Note_on_c, 0, 63, 0
2, 146640, Note_on_c, 0, 64, 100
2, 146725, Note_on_c, 0, 64, 0
2, 146760, Note_on_c, 0, 64, 100
2, 146845, Note_on_c, 0, 64, 0
2, 146880, Note_on_c, 0, 64, 100
2, 146999, Note_on_c, 0, 64, 0
2, 147000, Note_on_c, 0, 61, 100
2, 147119, Note_on_c, 0, 61, 0
2, 147120, Note_on_c, 0, 63, 100
2, 147205, Note_on_c, 0, 63, 0
2, 147240, Note_on_c, 0, 63, 100
2, 147325, Note_on_c, 0, 63, 0
2, 147360, Note_on_c, 0, 63, 100
2, 147479, Note_on_c, 0, 63, 0
2, 147480, Note_on_c, 0, 60, 100
2, 147599, Note_on_c, 0, 60, 0
2, 147600, Note_on_c, 0, 61, 100
2, 147959, Note_on_c, 0, 61, 0
2, 147960, Note_on_c, 0, 58, 100
2, 148079, Note_on_c, 0, 58, 0
2, 148080, Note_on_c, 0, 59, 100
2, 148199, Note_on_c, 0, 59, 0
2, 148200, Note_on_c, 0, 63, 100
2, 148285, Note_on_c, 0, 63, 0
2, 148320, Note_on_c, 0, 63, 100
2, 148439, Note_on_c, 0, 63, 0
2, 148440, Note_on_c, 0, 66, 100
2, 148559, Note_on_c, 0, 66, 0
2, 148560, Note_on_c, 0, 65, 100
2, 148645, Note_on_c, 0, 65, 0
2, 148680, Note_on_c, 0, 65, 100
2, 148765, Note_on_c, 0, 65, 0
2, 148800, Note_on_c, 0, 65, 100
2, 148919, Note_on_c, 0, 65, 0
2, 148920, Note_on_c, 0, 61, 100
2, 149039, Note_on_c, 0, 61, 0
2, 149040, Note_on_c, 0, 63, 100
2, 149399, Note_on_c, 0, 63, 0
2, 149400, Note_on_c, 0, 66, 100
2, 149519, Note_on_c, 0, 66, 0
2, 149520, Note_on_c, 0, 65, 100
2, 149605, Note_on_c, 0, 65, 0
2, 149640, Note_on_c, 0, 65, 100
2, 149725, Note_on_c, 0, 65, 0
2, 149760, Note_on_c, 0, 65, 100
2, 149879, Note_on_c, 0, 65, 0
2, 149880, Note_on_c, 0, 68, 100
2, 149999, Note_on_c, 0, 68, 0
2, 150000, Note_on_c, 0, 66, 100
2, 150085, Note_on_c, 0, 66, 0
2, 150120, Note_on_c, 0, 66, 100
2, 150205, Note_on_c, 0, 66, 0
2, 150240, Note_on_c, 0, 66, 100
2, 150359, Note_on_c, 0, 66, 0
2, 150360, Note_on_c, 0, 68, 100
2, 150479, Note_on_c, 0, 68, 0
2, 150480, Note_on_c, 0, 69, 100
2, 150959, Note_on_c, 0, 69, 0
2, 150960, Note_on_c, 0, 63, 100
2, 151199, Note_on_c, 0, 63, 0
2, 151200, Note_on_c, 0, 68, 100
2, 151439, Note_on_c, 0, 68, 0
2, 151440, Note_on_c, 0, 66, 100
2, 151679, Note_on_c, 0, 66, 0
2, 151920, Note_on_c, 0, 64, 100
2, 152159, Note_on_c, 0, 64, 0
2, 152160, Note_on_c, 0, 63, 100
2, 152399, Note_on_c, 0, 63, 0
2, 152400, Note_on_c, 0, 61, 100
2, 152639, Note_on_c, 0, 61, 0
2, 152880, Note_on_c, 0, 60, 100
2, 153119, Note_on_c, 0, 60, 0
2, 153120, Note_on_c, 0, 61, 100
2, 153359, Note_on_c, 0, 61, 0
2, 153360, Note_on_c, 0, 63, 100
2, 153599, Note_on_c, 0, 63, 0
2, 153840, Note_on_c, 0, 64, 100
2, 153959, Note_on_c, 0, 64, 0
2, 153960, Note_on_c, 0, 66, 100
2, 154079, Note_on_c, 0, 66, 0
2, 154080, Note_on_c, 0, 64, 100
2, 154319, Note_on_c, 0, 64, 0
2, 154320, Note_on_c, 0, 62, 100
2, 154559, Note_on_c, 0, 62, 0
2, 154560, Note_on_c, 0, 61, 100
2, 154799, Note_on_c, 0, 61, 0
2, 154800, Note_on_c, 0, 65, 100
2, 155039, Note_on_c, 0, 65, 0
2, 155040, Note_on_c, 0, 66, 100
2, 155759, Note_on_c, 0, 66, 0
2, 155760, Note_on_c, 0, 64, 100
2, 155879, Note_on_c, 0, 64, 0
2, 155880, Note_on_c, 0, 63, 100
2, 155999, Note_on_c, 0, 63, 0
2, 156000, Note_on_c, 0, 64, 100
2, 156599, Note_on_c, 0, 64, 0
2, 156600, Note_on_c, 0, 61, 100
2, 156719, Note_on_c, 0, 61, 0
2, 156720, Note_on_c, 0, 62, 100
2, 156839, Note_on_c, 0, 62, 0
2, 156840, Note_on_c, 0, 69, 100
2, 156925, Note_on_c, 0, 69, 0
2, 156960, Note_on_c, 0, 69, 100
2, 157079, Note_on_c, 0, 69, 0
2, 157080, Note_on_c, 0, 66, 100
2, 157199, Note_on_c, 0, 66, 0
2, 157200, Note_on_c, 0, 68, 100
2, 157285, Note_on_c, 0, 68, 0
2, 157320, Note_on_c, 0, 68, 100
2, 157439, Note_on_c, 0, 68, 0
2, 157440, Note_on_c, 0, 66, 100
2, 157679, Note_on_c, 0, 66, 0
2, 157680, Note_on_c, 0, 71, 100
2, 158039, Note_on_c, 0, 71, 0
2, 158040, Note_on_c, 0, 70, 100
2, 158159, Note_on_c, 0, 70, 0
2, 158160, Note_on_c, 0, 73, 100
2, 158245, Note_on_c, 0, 73, 0
2, 158280, Note_on_c, 0, 73, 100
2, 158365, Note_on_c, 0, 73, 0
2, 158400, Note_on_c, 0, 71, 100
2, 158639, Note_on_c, 0, 71, 0
2, 159000, Note_on_c, 0, 66, 100
2, 159119, Note_on_c, 0, 66, 0
2, 159120, Note_on_c, 0, 65, 100
2, 159599, Note_on_c, 0, 65, 0
2, 159600, Note_on_c, 0, 66, 100
2, 159839, Note_on_c, 0, 66, 0
2, 159960, Note_on_c, 0, 62, 100
2, 160079, Note_on_c, 0, 62, 0
2, 160080, Note_on_c, 0, 61, 100
2, 160199, Note_on_c, 0, 61, 0
2, 160200, Note_on_c, 0, 59, 100
2, 160319, Note_on_c, 0, 59, 0
2, 160320, Note_on_c, 0, 61, 80
2, 160679, Note_on_c, 0, 61, 0
2, 160680, Note_on_c, 0, 64, 100
2, 160799, Note_on_c, 0, 64, 0
2, 160800, Note_on_c, 0, 63, 100
2, 160885, Note_on_c, 0, 63, 0
2, 160920, Note_on_c, 0, 63, 100
2, 161005, Note_on_c, 0, 63, 0
2, 161040, Note_on_c, 0, 63, 100
2, 161159, Note_on_c, 0, 63, 0
2, 161160, Note_on_c, 0, 66, 100
2, 161279, Note_on_c, 0, 66, 0
2, 161280, Note_on_c, 0, 65, 100
2, 161365, Note_on_c, 0, 65, 0
2, 161400, Note_on_c, 0, 65, 100
2, 161485, Note_on_c, 0, 65, 0
2, 161520, Note_on_c, 0, 65, 100
2, 161639, Note_on_c, 0, 65, 0
2, 161640, Note_on_c, 0, 68, 100
2, 161759, Note_on_c, 0, 68, 0
2, 161760, Note_on_c, 0, 66, 100
2, 162359, Note_on_c, 0, 66, 0
2, 162360, Note_on_c, 0, 69, 100
2, 162479, Note_on_c, 0, 69, 0
2, 162480, Note_on_c, 0, 68, 100
2, 162565, Note_on_c, 0, 68, 0
2, 162600, Note_on_c, 0, 68, 100
2, 162685, Note_on_c, 0, 68, 0
2, 162720, Note_on_c, 0, 68, 100
2, 162839, Note_on_c, 0, 68, 0
2, 162840, Note_on_c, 0, 73, 100
2, 162959, Note_on_c, 0, 73, 0
2, 162960, Note_on_c, 0, 69, 100
2, 163045, Note_on_c, 0, 69, 0
2, 163080, Note_on_c, 0, 69, 100
2, 163165, Note_on_c, 0, 69, 0
2, 163200, Note_on_c, 0, 63, 100
2, 163439, Note_on_c, 0, 63, 0
2, 163440, Note_on_c, 0, 61, 100
2, 163679, Note_on_c, 0, 61, 0
2, 163680, Note_on_c, 0, 69, 100
2, 164399, Note_on_c, 0, 69, 0
2, 164400, Note_on_c, 0, 68, 100
2, 164639, Note_on_c, 0, 68, 0
2, 164640, Note_on_c, 0, 69, 100
2, 165115, Note_on_c, 0, 69, 0
2, 165120, Note_on_c, 0, 68, 100
2, 165595, Note_on_c, 0, 68, 0
2, 165840, Note_on_c, 0, 66, 100
2, 166079, Note_on_c, 0, 66, 0
2, 166080, Note_on_c, 0, 68, 80
2, 166439, Note_on_c, 0, 68, 0
2, 166440, Note_on_c, 0, 69, 100
2, 166559, Note_on_c, 0, 69, 0
2, 166560, Note_on_c, 0, 68, 100
2, 166679, Note_on_c, 0, 68, 0
2, 166680, Note_on_c, 0, 64, 100
2, 166799, Note_on_c, 0, 64, 0
2, 166800, Note_on_c, 0, 66, 100
2, 166885, Note_on_c, 0, 66, 0
2, 166920, Note_on_c, 0, 66, 100
2, 167005, Note_on_c, 0, 66, 0
2, 167040, Note_on_c, 0, 64, 100
2, 167279, Note_on_c, 0, 64, 0
2, 167280, Note_on_c, 0, 61, 100
2, 167519, Note_on_c, 0, 61, 0
2, 167520, Note_on_c, 0, 68, 100
2, 167759, Note_on_c, 0, 68, 0
2, 167760, Note_on_c, 0, 66, 100
2, 167999, Note_on_c, 0, 66, 0
2, 168240, Note_on_c, 0, 64, 100
2, 168479, Note_on_c, 0, 64, 0
2, 168480, Note_on_c, 0, 63, 100
2, 168719, Note_on_c, 0, 63, 0
2, 168720, Note_on_c, 0, 61, 100
2, 168959, Note_on_c, 0, 61, 0
2, 169200, Note_on_c, 0, 60, 100
2, 169439, Note_on_c, 0, 60, 0
2, 169440, Note_on_c, 0, 61, 100
2, 169679, Note_on_c, 0, 61, 0
2, 169680, Note_on_c, 0, 63, 100
2, 169919, Note_on_c, 0, 63, 0
2, 170160, Note_on_c, 0, 64, 100
2, 170279, Note_on_c, 0, 64, 0
2, 170280, Note_on_c, 0, 66, 100
2, 170399, Note_on_c, 0, 66, 0
2, 170400, Note_on_c, 0, 64, 100
2, 170639, Note_on_c, 0, 64, 0
2, 170640, Note_on_c, 0, 63, 100
2, 170879, Note_on_c, 0, 63, 0
2, 170880, Note_on_c, 0, 61, 100
2, 171355, Note_on_c, 0, 61, 0
2, 171360, Note_on_c, 0, 60, 100
2, 171599, Note_on_c, 0, 60, 0
2, 171600, Note_on_c, 0, 59, 100
2, 171839, Note_on_c, 0, 59, 0
2, 171840, Note_on_c, 0, 61, 100
2, 171959, Note_on_c, 0, 61, 0
2, 171960, Note_on_c, 0, 69, 100
2, 172199, Note_on_c, 0, 69, 0
2, 172200, Note_on_c, 0, 68, 100
2, 172439, Note_on_c, 0, 68, 0
2, 172440, Note_on_c, 0, 71, 100
2, 172559, Note_on_c, 0, 71, 0
2, 172560, Note_on_c, 0, 75, 100
2, 172679, Note_on_c, 0, 75, 0
2, 172680, Note_on_c, 0, 69, 100
2, 172799, Note_on_c, 0, 69, 0
2, 172800, Note_on_c, 0, 68, 100
2, 172919, Note_on_c, 0, 68, 0
2, 172920, Note_on_c, 0, 73, 100
2, 173039, Note_on_c, 0, 73, 0
2, 173040, Note_on_c, 0, 72, 100
2, 173159, Note_on_c, 0, 72, 0
2, 173160, Note_on_c, 0, 71, 100
2, 173279, Note_on_c, 0, 71, 0
2, 173280, Note_on_c, 0, 70, 100
2, 173399, Note_on_c, 0, 70, 0
2, 173400, Note_on_c, 0, 69, 100
2, 173519, Note_on_c, 0, 69, 0
2, 173520, Note_on_c, 0, 68, 100
2, 173639, Note_on_c, 0, 68, 0
2, 173640, Note_on_c, 0, 67, 100
2, 173759, Note_on_c, 0, 67, 0
2, 173760, Note_on_c, 0, 68, 100
2, 173879, Note_on_c, 0, 68, 0
2, 173880, Note_on_c, 0, 69, 100
2, 173999, Note_on_c, 0, 69, 0
2, 174000, Note_on_c, 0, 66, 100
2, 174119, Note_on_c, 0, 66, 0
2, 174120, Note_on_c, 0, 68, 100
2, 174239, Note_on_c, 0, 68, 0
2, 174240, Note_on_c, 0, 64, 100
2, 174479, Note_on_c, 0, 64, 0
2, 174480, Note_on_c, 0, 69, 100
2, 174719, Note_on_c, 0, 69, 0
2, 174720, Note_on_c, 0, 60, 100
2, 174959, Note_on_c, 0, 60, 0
2, 174960, Note_on_c, 0, 68, 100
2, 175079, Note_on_c, 0, 68, 0
2, 175080, Note_on_c, 0, 69, 100
2, 175199, Note_on_c, 0, 69, 0
2, 175200, Note_on_c, 0, 68, 100
2, 175439, Note_on_c, 0, 68, 0
2, 175440, Note_on_c, 0, 66, 100
2, 175679, Note_on_c, 0, 66, 0
2, 175680, Note_on_c, 0, 65, 80
2, 176639, Note_on_c, 0, 65, 0
2, 176640, End_track
3, 0, Start_track
3, 0, Key_signature, 4, "major"
3, 0, Program_c, 1, 46
3, 2, Control_c, 1, 7, 100
3, 4, Control_c, 1, 10, 64
3, 6, Control_c, 1, 91, 30
3, 8, Control_c, 1, 93, 30
3, 11760, Note_on_c, 1, 56, 100
3, 11999, Note_on_c, 1, 56, 0
3, 12000, Note_on_c, 1, 63, 100
3, 12239, Note_on_c, 1, 63, 0
3, 12240, Note_on_c, 1, 61, 100
3, 12479, Note_on_c, 1, 61, 0
3, 12720, Note_on_c, 1, 59, 100
3, 12959, Note_on_c, 1, 59, 0
3, 12960, Note_on_c, 1, 58, 100
3, 13199, Note_on_c, 1, 58, 0
3, 13200, Note_on_c, 1, 56, 100
3, 13439, Note_on_c, 1, 56, 0
3, 13680, Note_on_c, 1, 55, 100
3, 13919, Note_on_c, 1, 55, 0
3, 13920, Note_on_c, 1, 56, 100
3, 14159, Note_on_c, 1, 56, 0
3, 14160, Note_on_c, 1, 58, 100
3, 14399, Note_on_c, 1, 58, 0
3, 14640, Note_on_c, 1, 59, 100
3, 14759, Note_on_c, 1, 59, 0
3, 14760, Note_on_c, 1, 61, 100
3, 14879, Note_on_c, 1, 61, 0
3, 14880, Note_on_c, 1, 59, 100
3, 15119, Note_on_c, 1, 59, 0
3, 15120, Note_on_c, 1, 58, 100
3, 15359, Note_on_c, 1, 58, 0
3, 15360, Note_on_c, 1, 56, 100
3, 15835, Note_on_c, 1, 56, 0
3, 15840, Note_on_c, 1, 58, 100
3, 16079, Note_on_c, 1, 58, 0
3, 16080, Note_on_c, 1, 60, 100
3, 16319, Note_on_c, 1, 60, 0
3, 16320, Note_on_c, 1, 61, 100
3, 16795, Note_on_c, 1, 61, 0
3, 17040, Note_on_c, 1, 61, 100
3, 17159, Note_on_c, 1, 61, 0
3, 17160, Note_on_c, 1, 60, 100
3, 17279, Note_on_c, 1, 60, 0
3, 17280, Note_on_c, 1, 61, 100
3, 17519, Note_on_c, 1, 61, 0
3, 17520, Note_on_c, 1, 63, 100
3, 17759, Note_on_c, 1, 63, 0
3, 17760, Note_on_c, 1, 64, 100
3, 17999, Note_on_c, 1, 64, 0
3, 18000, Note_on_c, 1, 65, 100
3, 18239, Note_on_c, 1, 65, 0
3, 18240, Note_on_c, 1, 66, 100
3, 18599, Note_on_c, 1, 66, 0
3, 18600, Note_on_c, 1, 65, 100
3, 18719, Note_on_c, 1, 65, 0
3, 18720, Note_on_c, 1, 66, 100
3, 18959, Note_on_c, 1, 66, 0
3, 18960, Note_on_c, 1, 68, 100
3, 19199, Note_on_c, 1, 68, 0
3, 19200, Note_on_c, 1, 61, 100
3, 19439, Note_on_c, 1, 61, 0
3, 19440, Note_on_c, 1, 66, 100
3, 19559, Note_on_c, 1, 66, 0
3, 19560, Note_on_c, 1, 66, 100
3, 19679, Note_on_c, 1, 66, 0
3, 19680, Note_on_c, 1, 66, 100
3, 19919, Note_on_c, 1, 66, 0
3, 19920, Note_on_c, 1, 64, 100
3, 20159, Note_on_c, 1, 64, 0
3, 20160, Note_on_c, 1, 63, 100
3, 20635, Note_on_c, 1, 63, 0
3, 20640, Note_on_c, 1, 61, 100
3, 20879, Note_on_c, 1, 61, 0
3, 20880, Note_on_c, 1, 51, 100
3, 21119, Note_on_c, 1, 51, 0
3, 21120, Note_on_c, 1, 52, 100
3, 21359, Note_on_c, 1, 52, 0
3, 21360, Note_on_c, 1, 61, 100
3, 21599, Note_on_c, 1, 61, 0
3, 21600, Note_on_c, 1, 66, 100
3, 21839, Note_on_c, 1, 66, 0
3, 21840, Note_on_c, 1, 64, 100
3, 22079, Note_on_c, 1, 64, 0
3, 22080, Note_on_c, 1, 63, 100
3, 22199, Note_on_c, 1, 63, 0
3, 22200, Note_on_c, 1, 64, 100
3, 22439, Note_on_c, 1, 64, 0
3, 22440, Note_on_c, 1, 63, 100
3, 22559, Note_on_c, 1, 63, 0
3, 22560, Note_on_c, 1, 56, 100
3, 22679, Note_on_c, 1, 56, 0
3, 22680, Note_on_c, 1, 61, 100
3, 22919, Note_on_c, 1, 61, 0
3, 22920, Note_on_c, 1, 60, 100
3, 23039, Note_on_c, 1, 60, 0
3, 23040, Note_on_c, 1, 61, 100
3, 23279, Note_on_c, 1, 61, 0
3, 23280, Note_on_c, 1, 68, 100
3, 23519, Note_on_c, 1, 68, 0
3, 23520, Note_on_c, 1, 69, 100
3, 23759, Note_on_c, 1, 69, 0
3, 23760, Note_on_c, 1, 63, 100
3, 23999, Note_on_c, 1, 63, 0
3, 24000, Note_on_c, 1, 64, 100
3, 24475, Note_on_c, 1, 64, 0
3, 24480, Note_on_c, 1, 63, 100
3, 24599, Note_on_c, 1, 63, 0
3, 24600, Note_on_c, 1, 64, 100
3, 24719, Note_on_c, 1, 64, 0
3, 24720, Note_on_c, 1, 66, 100
3, 25199, Note_on_c, 1, 66, 0
3, 25200, Note_on_c, 1, 64, 100
3, 25439, Note_on_c, 1, 64, 0
3, 32160, Note_on_c, 1, 51, 100
3, 32635, Note_on_c, 1, 51, 0
3, 32640, Note_on_c, 1, 52, 100
3, 32879, Note_on_c, 1, 52, 0
3, 32880, Note_on_c, 1, 47, 100
3, 33119, Note_on_c, 1, 47, 0
3, 33120, Note_on_c, 1, 54, 100
3, 33359, Note_on_c, 1, 54, 0
3, 33360, Note_on_c, 1, 55, 100
3, 33599, Note_on_c, 1, 55, 0
3, 33600, Note_on_c, 1, 56, 100
3, 33839, Note_on_c, 1, 56, 0
3, 33840, Note_on_c, 1, 51, 100
3, 34079, Note_on_c, 1, 51, 0
3, 34080, Note_on_c, 1, 58, 100
3, 34555, Note_on_c, 1, 58, 0
3, 34560, Note_on_c, 1, 59, 100
3, 34799, Note_on_c, 1, 59, 0
3, 34800, Note_on_c, 1, 58, 100
3, 35039, Note_on_c, 1, 58, 0
3, 35040, Note_on_c, 1, 56, 100
3, 35159, Note_on_c, 1, 56, 0
3, 35160, Note_on_c, 1, 58, 100
3, 35279, Note_on_c, 1, 58, 0
3, 35280, Note_on_c, 1, 56, 100
3, 35519, Note_on_c, 1, 56, 0
3, 35520, Note_on_c, 1, 63, 100
3, 35755, Note_on_c, 1, 63, 0
3, 35760, Note_on_c, 1, 63, 100
3, 35999, Note_on_c, 1, 63, 0
3, 36000, Note_on_c, 1, 62, 100
3, 36239, Note_on_c, 1, 62, 0
3, 36240, Note_on_c, 1, 61, 100
3, 36479, Note_on_c, 1, 61, 0
3, 36480, Note_on_c, 1, 60, 100
3, 36719, Note_on_c, 1, 60, 0
3, 36720, Note_on_c, 1, 64, 100
3, 37195, Note_on_c, 1, 64, 0
3, 37200, Note_on_c, 1, 63, 100
3, 37439, Note_on_c, 1, 63, 0
3, 37440, Note_on_c, 1, 61, 100
3, 37679, Note_on_c, 1, 61, 0
3, 38760, Note_on_c, 1, 54, 100
3, 38879, Note_on_c, 1, 54, 0
3, 38880, Note_on_c, 1, 56, 100
3, 38999, Note_on_c, 1, 56, 0
3, 39000, Note_on_c, 1, 54, 100
3, 39119, Note_on_c, 1, 54, 0
3, 39120, Note_on_c, 1, 56, 100
3, 39239, Note_on_c, 1, 56, 0
3, 39240, Note_on_c, 1, 58, 100
3, 39359, Note_on_c, 1, 58, 0
3, 39360, Note_on_c, 1, 59, 100
3, 39599, Note_on_c, 1, 59, 0
3, 41520, Note_on_c, 1, 49, 100
3, 41759, Note_on_c, 1, 49, 0
3, 41760, Note_on_c, 1, 50, 100
3, 41999, Note_on_c, 1, 50, 0
3, 42000, Note_on_c, 1, 51, 100
3, 42239, Note_on_c, 1, 51, 0
3, 42240, Note_on_c, 1, 52, 100
3, 42479, Note_on_c, 1, 52, 0
3, 42480, Note_on_c, 1, 53, 100
3, 42719, Note_on_c, 1, 53, 0
3, 42720, Note_on_c, 1, 54, 100
3, 42959, Note_on_c, 1, 54, 0
3, 42960, Note_on_c, 1, 55, 100
3, 43199, Note_on_c, 1, 55, 0
3, 43200, Note_on_c, 1, 56, 100
3, 43439, Note_on_c, 1, 56, 0
3, 43560, Note_on_c, 1, 56, 100
3, 43679, Note_on_c, 1, 56, 0
3, 43680, Note_on_c, 1, 57, 100
3, 43919, Note_on_c, 1, 57, 0
3, 43920, Note_on_c, 1, 58, 100
3, 44159, Note_on_c, 1, 58, 0
3, 44160, Note_on_c, 1, 59, 100
3, 44399, Note_on_c, 1, 59, 0
3, 44400, Note_on_c, 1, 60, 100
3, 44639, Note_on_c, 1, 60, 0
3, 44640, Note_on_c, 1, 61, 100
3, 44759, Note_on_c, 1, 61, 0
3, 44760, Note_on_c, 1, 62, 100
3, 44879, Note_on_c, 1, 62, 0
3, 44880, Note_on_c, 1, 61, 100
3, 44999, Note_on_c, 1, 61, 0
3, 45000, Note_on_c, 1, 59, 100
3, 45119, Note_on_c, 1, 59, 0
3, 45120, Note_on_c, 1, 61, 100
3, 45595, Note_on_c, 1, 61, 0
3, 45600, Note_on_c, 1, 54, 100
3, 45839, Note_on_c, 1, 54, 0
3, 45840, Note_on_c, 1, 59, 100
3, 45959, Note_on_c, 1, 59, 0
3, 45960, Note_on_c, 1, 57, 100
3, 46079, Note_on_c, 1, 57, 0
3, 46080, Note_on_c, 1, 56, 100
3, 46199, Note_on_c, 1, 56, 0
3, 46200, Note_on_c, 1, 52, 100
3, 46319, Note_on_c, 1, 52, 0
3, 46320, Note_on_c, 1, 59, 100
3, 46679, Note_on_c, 1, 59, 0
3, 46680, Note_on_c, 1, 63, 100
3, 46799, Note_on_c, 1, 63, 0
3, 46800, Note_on_c, 1, 61, 100
3, 46919, Note_on_c, 1, 61, 0
3, 46920, Note_on_c, 1, 59, 100
3, 47039, Note_on_c, 1, 59, 0
3, 47040, Note_on_c, 1, 58, 100
3, 47159, Note_on_c, 1, 58, 0
3, 47160, Note_on_c, 1, 54, 100
3, 47279, Note_on_c, 1, 54, 0
3, 47280, Note_on_c, 1, 61, 100
3, 47639, Note_on_c, 1, 61, 0
3, 47640, Note_on_c, 1, 64, 100
3, 47759, Note_on_c, 1, 64, 0
3, 47760, Note_on_c, 1, 63, 100
3, 47879, Note_on_c, 1, 63, 0
3, 47880, Note_on_c, 1, 61, 100
3, 47999, Note_on_c, 1, 61, 0
3, 48000, Note_on_c, 1, 59, 100
3, 48239, Note_on_c, 1, 59, 0
3, 48240, Note_on_c, 1, 58, 100
3, 48479, Note_on_c, 1, 58, 0
3, 48480, Note_on_c, 1, 56, 100
3, 48539, Note_on_c, 1, 56, 0
3, 48540, Note_on_c, 1, 58, 100
3, 48599, Note_on_c, 1, 58, 0
3, 48600, Note_on_c, 1, 59, 100
3, 48659, Note_on_c, 1, 59, 0
3, 48660, Note_on_c, 1, 61, 100
3, 48719, Note_on_c, 1, 61, 0
3, 48720, Note_on_c, 1, 63, 100
3, 48959, Note_on_c, 1, 63, 0
3, 48960, Note_on_c, 1, 64, 100
3, 49199, Note_on_c, 1, 64, 0
3, 49200, Note_on_c, 1, 60, 100
3, 49439, Note_on_c, 1, 60, 0
3, 49440, Note_on_c, 1, 61, 100
3, 49559, Note_on_c, 1, 61, 0
3, 51240, Note_on_c, 1, 56, 100
3, 51359, Note_on_c, 1, 56, 0
3, 51360, Note_on_c, 1, 58, 100
3, 51479, Note_on_c, 1, 58, 0
3, 51480, Note_on_c, 1, 56, 100
3, 51599, Note_on_c, 1, 56, 0
3, 51600, Note_on_c, 1, 58, 100
3, 51719, Note_on_c, 1, 58, 0
3, 51720, Note_on_c, 1, 60, 100
3, 51839, Note_on_c, 1, 60, 0
3, 51840, Note_on_c, 1, 61, 100
3, 51959, Note_on_c, 1, 61, 0
3, 51960, Note_on_c, 1, 56, 100
3, 52079, Note_on_c, 1, 56, 0
3, 52080, Note_on_c, 1, 61, 100
3, 52319, Note_on_c, 1, 61, 0
3, 52920, Note_on_c, 1, 48, 100
3, 53039, Note_on_c, 1, 48, 0
3, 53040, Note_on_c, 1, 49, 100
3, 53159, Note_on_c, 1, 49, 0
3, 53160, Note_on_c, 1, 51, 100
3, 53279, Note_on_c, 1, 51, 0
3, 53280, Note_on_c, 1, 52, 100
3, 53399, Note_on_c, 1, 52, 0
3, 53400, Note_on_c, 1, 51, 100
3, 53519, Note_on_c, 1, 51, 0
3, 53520, Note_on_c, 1, 52, 100
3, 53759, Note_on_c, 1, 52, 0
3, 53760, Note_on_c, 1, 51, 100
3, 53999, Note_on_c, 1, 51, 0
3, 54000, Note_on_c, 1, 56, 100
3, 54239, Note_on_c, 1, 56, 0
3, 54240, Note_on_c, 1, 55, 100
3, 54479, Note_on_c, 1, 55, 0
3, 54480, Note_on_c, 1, 54, 100
3, 54719, Note_on_c, 1, 54, 0
3, 54720, Note_on_c, 1, 53, 100
3, 54959, Note_on_c, 1, 53, 0
3, 54960, Note_on_c, 1, 52, 100
3, 55199, Note_on_c, 1, 52, 0
3, 55200, Note_on_c, 1, 51, 100
3, 55439, Note_on_c, 1, 51, 0
3, 55440, Note_on_c, 1, 50, 100
3, 55679, Note_on_c, 1, 50, 0
3, 55680, Note_on_c, 1, 49, 100
3, 55919, Note_on_c, 1, 49, 0
3, 57000, Note_on_c, 1, 54, 100
3, 57119, Note_on_c, 1, 54, 0
3, 57120, Note_on_c, 1, 56, 100
3, 57239, Note_on_c, 1, 56, 0
3, 57240, Note_on_c, 1, 54, 100
3, 57359, Note_on_c, 1, 54, 0
3, 57360, Note_on_c, 1, 56, 100
3, 57479, Note_on_c, 1, 56, 0
3, 57480, Note_on_c, 1, 58, 100
3, 57599, Note_on_c, 1, 58, 0
3, 57600, Note_on_c, 1, 59, 100
3, 57719, Note_on_c, 1, 59, 0
3, 57720, Note_on_c, 1, 61, 100
3, 57839, Note_on_c, 1, 61, 0
3, 57840, Note_on_c, 1, 59, 100
3, 58079, Note_on_c, 1, 59, 0
3, 58080, Note_on_c, 1, 58, 100
3, 58319, Note_on_c, 1, 58, 0
3, 58320, Note_on_c, 1, 57, 100
3, 58799, Note_on_c, 1, 57, 0
3, 58800, Note_on_c, 1, 56, 100
3, 59039, Note_on_c, 1, 56, 0
3, 59040, Note_on_c, 1, 58, 100
3, 59159, Note_on_c, 1, 58, 0
3, 59160, Note_on_c, 1, 56, 100
3, 59279, Note_on_c, 1, 56, 0
3, 59280, Note_on_c, 1, 58, 100
3, 59399, Note_on_c, 1, 58, 0
3, 59400, Note_on_c, 1, 60, 100
3, 59519, Note_on_c, 1, 60, 0
3, 59520, Note_on_c, 1, 61, 100
3, 59639, Note_on_c, 1, 61, 0
3, 59640, Note_on_c, 1, 56, 100
3, 59759, Note_on_c, 1, 56, 0
3, 59760, Note_on_c, 1, 61, 100
3, 60235, Note_on_c, 1, 61, 0
3, 60240, Note_on_c, 1, 59, 100
3, 60479, Note_on_c, 1, 59, 0
3, 60480, Note_on_c, 1, 57, 100
3, 60719, Note_on_c, 1, 57, 0
3, 60720, Note_on_c, 1, 66, 100
3, 60959, Note_on_c, 1, 66, 0
3, 60960, Note_on_c, 1, 65, 100
3, 61199, Note_on_c, 1, 65, 0
3, 61200, Note_on_c, 1, 64, 100
3, 61679, Note_on_c, 1, 64, 0
3, 61680, Note_on_c, 1, 63, 100
3, 61919, Note_on_c, 1, 63, 0
3, 61920, Note_on_c, 1, 62, 100
3, 62159, Note_on_c, 1, 62, 0
3, 62160, Note_on_c, 1, 61, 100
3, 62639, Note_on_c, 1, 61, 0
3, 62640, Note_on_c, 1, 60, 100
3, 62879, Note_on_c, 1, 60, 0
3, 62880, Note_on_c, 1, 59, 100
3, 63119, Note_on_c, 1, 59, 0
3, 63120, Note_on_c, 1, 58, 100
3, 63599, Note_on_c, 1, 58, 0
3, 63600, Note_on_c, 1, 56, 100
3, 63839, Note_on_c, 1, 56, 0
3, 64200, Note_on_c, 1, 65, 100
3, 64319, Note_on_c, 1, 65, 0
3, 64320, Note_on_c, 1, 63, 100
3, 64439, Note_on_c, 1, 63, 0
3, 64440, Note_on_c, 1, 61, 100
3, 64559, Note_on_c, 1, 61, 0
3, 64560, Note_on_c, 1, 59, 100
3, 64679, Note_on_c, 1, 59, 0
3, 64680, Note_on_c, 1, 58, 100
3, 64799, Note_on_c, 1, 58, 0
3, 64800, Note_on_c, 1, 59, 100
3, 65039, Note_on_c, 1, 59, 0
3, 65040, Note_on_c, 1, 61, 100
3, 65279, Note_on_c, 1, 61, 0
3, 65280, Note_on_c, 1, 63, 100
3, 65399, Note_on_c, 1, 63, 0
3, 65400, Note_on_c, 1, 62, 100
3, 65519, Note_on_c, 1, 62, 0
3, 65520, Note_on_c, 1, 63, 100
3, 65639, Note_on_c, 1, 63, 0
3, 65640, Note_on_c, 1, 59, 100
3, 65759, Note_on_c, 1, 59, 0
3, 65760, Note_on_c, 1, 61, 100
3, 65879, Note_on_c, 1, 61, 0
3, 65880, Note_on_c, 1, 60, 100
3, 65999, Note_on_c, 1, 60, 0
3, 66000, Note_on_c, 1, 61, 100
3, 66119, Note_on_c, 1, 61, 0
3, 66120, Note_on_c, 1, 54, 100
3, 66239, Note_on_c, 1, 54, 0
3, 66240, Note_on_c, 1, 56, 100
3, 66359, Note_on_c, 1, 56, 0
3, 66360, Note_on_c, 1, 58, 100
3, 66479, Note_on_c, 1, 58, 0
3, 66480, Note_on_c, 1, 59, 100
3, 66719, Note_on_c, 1, 59, 0
3, 66720, Note_on_c, 1, 58, 100
3, 67195, Note_on_c, 1, 58, 0
3, 67200, Note_on_c, 1, 59, 100
3, 67439, Note_on_c, 1, 59, 0
3, 67440, Note_on_c, 1, 63, 100
3, 67679, Note_on_c, 1, 63, 0
3, 67680, Note_on_c, 1, 56, 100
3, 67919, Note_on_c, 1, 56, 0
3, 67920, Note_on_c, 1, 58, 100
3, 68159, Note_on_c, 1, 58, 0
3, 68400, Note_on_c, 1, 59, 100
3, 68639, Note_on_c, 1, 59, 0
3, 68640, Note_on_c, 1, 61, 100
3, 68879, Note_on_c, 1, 61, 0
3, 68880, Note_on_c, 1, 63, 100
3, 69119, Note_on_c, 1, 63, 0
3, 69360, Note_on_c, 1, 64, 100
3, 69599, Note_on_c, 1, 64, 0
3, 69600, Note_on_c, 1, 63, 100
3, 69839, Note_on_c, 1, 63, 0
3, 69840, Note_on_c, 1, 61, 100
3, 70079, Note_on_c, 1, 61, 0
3, 70320, Note_on_c, 1, 59, 100
3, 70439, Note_on_c, 1, 59, 0
3, 70440, Note_on_c, 1, 58, 100
3, 70559, Note_on_c, 1, 58, 0
3, 70560, Note_on_c, 1, 59, 100
3, 70799, Note_on_c, 1, 59, 0
3, 70800, Note_on_c, 1, 61, 100
3, 71039, Note_on_c, 1, 61, 0
3, 71040, Note_on_c, 1, 63, 100
3, 71515, Note_on_c, 1, 63, 0
3, 71760, Note_on_c, 1, 57, 100
3, 71999, Note_on_c, 1, 57, 0
3, 72000, Note_on_c, 1, 56, 100
3, 72239, Note_on_c, 1, 56, 0
3, 72240, Note_on_c, 1, 59, 80
3, 72479, Note_on_c, 1, 59, 0
3, 72480, Note_on_c, 1, 58, 100
3, 72719, Note_on_c, 1, 58, 0
3, 72720, Note_on_c, 1, 57, 100
3, 72959, Note_on_c, 1, 57, 0
3, 72960, Note_on_c, 1, 56, 100
3, 73199, Note_on_c, 1, 56, 0
3, 73200, Note_on_c, 1, 49, 100
3, 73439, Note_on_c, 1, 49, 0
3, 73440, Note_on_c, 1, 51, 100
3, 73559, Note_on_c, 1, 51, 0
3, 73560, Note_on_c, 1, 49, 100
3, 73679, Note_on_c, 1, 49, 0
3, 73680, Note_on_c, 1, 51, 100
3, 73799, Note_on_c, 1, 51, 0
3, 73800, Note_on_c, 1, 53, 100
3, 73919, Note_on_c, 1, 53, 0
3, 73920, Note_on_c, 1, 54, 100
3, 74159, Note_on_c, 1, 54, 0
3, 74160, Note_on_c, 1, 53, 100
3, 74279, Note_on_c, 1, 53, 0
3, 74280, Note_on_c, 1, 51, 100
3, 74399, Note_on_c, 1, 51, 0
3, 74400, Note_on_c, 1, 53, 100
3, 74519, Note_on_c, 1, 53, 0
3, 74520, Note_on_c, 1, 56, 100
3, 74639, Note_on_c, 1, 56, 0
3, 74640, Note_on_c, 1, 60, 100
3, 74759, Note_on_c, 1, 60, 0
3, 74760, Note_on_c, 1, 63, 100
3, 74879, Note_on_c, 1, 63, 0
3, 74880, Note_on_c, 1, 61, 80
3, 75239, Note_on_c, 1, 61, 0
3, 75240, Note_on_c, 1, 60, 100
3, 75359, Note_on_c, 1, 60, 0
3, 75360, Note_on_c, 1, 63, 100
3, 75479, Note_on_c, 1, 63, 0
3, 75480, Note_on_c, 1, 61, 100
3, 75599, Note_on_c, 1, 61, 0
3, 75600, Note_on_c, 1, 64, 80
3, 75719, Note_on_c, 1, 64, 0
3, 75720, Note_on_c, 1, 63, 100
3, 75839, Note_on_c, 1, 63, 0
3, 75840, Note_on_c, 1, 64, 100
3, 75959, Note_on_c, 1, 64, 0
3, 75960, Note_on_c, 1, 63, 100
3, 76079, Note_on_c, 1, 63, 0
3, 76080, Note_on_c, 1, 61, 100
3, 76319, Note_on_c, 1, 61, 0
3, 76560, Note_on_c, 1, 67, 100
3, 76799, Note_on_c, 1, 67, 0
3, 76800, Note_on_c, 1, 68, 100
3, 77039, Note_on_c, 1, 68, 0
3, 77040, Note_on_c, 1, 59, 100
3, 77399, Note_on_c, 1, 59, 0
3, 77400, Note_on_c, 1, 57, 100
3, 77519, Note_on_c, 1, 57, 0
3, 77520, Note_on_c, 1, 56, 100
3, 77639, Note_on_c, 1, 56, 0
3, 77640, Note_on_c, 1, 54, 100
3, 77759, Note_on_c, 1, 54, 0
3, 77760, Note_on_c, 1, 61, 100
3, 78235, Note_on_c, 1, 61, 0
3, 78240, Note_on_c, 1, 63, 100
3, 78479, Note_on_c, 1, 63, 0
3, 78480, Note_on_c, 1, 64, 100
3, 78719, Note_on_c, 1, 64, 0
3, 78720, Note_on_c, 1, 66, 100
3, 78959, Note_on_c, 1, 66, 0
3, 78960, Note_on_c, 1, 56, 100
3, 79199, Note_on_c, 1, 56, 0
3, 79440, Note_on_c, 1, 56, 100
3, 79559, Note_on_c, 1, 56, 0
3, 79560, Note_on_c, 1, 57, 100
3, 79679, Note_on_c, 1, 57, 0
3, 79680, Note_on_c, 1, 56, 80
3, 80039, Note_on_c, 1, 56, 0
3, 80040, Note_on_c, 1, 54, 100
3, 80159, Note_on_c, 1, 54, 0
3, 80160, Note_on_c, 1, 52, 100
3, 80279, Note_on_c, 1, 52, 0
3, 80280, Note_on_c, 1, 49, 100
3, 80399, Note_on_c, 1, 49, 0
3, 80400, Note_on_c, 1, 54, 100
3, 80879, Note_on_c, 1, 54, 0
3, 80880, Note_on_c, 1, 52, 100
3, 81239, Note_on_c, 1, 52, 0
3, 81240, Note_on_c, 1, 49, 100
3, 81359, Note_on_c, 1, 49, 0
3, 81360, Note_on_c, 1, 50, 100
3, 81599, Note_on_c, 1, 50, 0
3, 81600, Note_on_c, 1, 49, 100
3, 81839, Note_on_c, 1, 49, 0
3, 81840, Note_on_c, 1, 54, 100
3, 81959, Note_on_c, 1, 54, 0
3, 81960, Note_on_c, 1, 52, 100
3, 82079, Note_on_c, 1, 52, 0
3, 82080, Note_on_c, 1, 51, 100
3, 82199, Note_on_c, 1, 51, 0
3, 82200, Note_on_c, 1, 49, 100
3, 82319, Note_on_c, 1, 49, 0
3, 82320, Note_on_c, 1, 51, 100
3, 82439, Note_on_c, 1, 51, 0
3, 82440, Note_on_c, 1, 47, 100
3, 82559, Note_on_c, 1, 47, 0
3, 82560, Note_on_c, 1, 52, 100
3, 82799, Note_on_c, 1, 52, 0
3, 83760, Note_on_c, 1, 68, 100
3, 83999, Note_on_c, 1, 68, 0
3, 84000, Note_on_c, 1, 66, 100
3, 84119, Note_on_c, 1, 66, 0
3, 84120, Note_on_c, 1, 64, 100
3, 84239, Note_on_c, 1, 64, 0
3, 84240, Note_on_c, 1, 66, 100
3, 84479, Note_on_c, 1, 66, 0
3, 84480, Note_on_c, 1, 64, 100
3, 84955, Note_on_c, 1, 64, 0
3, 85200, Note_on_c, 1, 50, 100
3, 85559, Note_on_c, 1, 50, 0
3, 85560, Note_on_c, 1, 49, 100
3, 85679, Note_on_c, 1, 49, 0
3, 85680, Note_on_c, 1, 52, 100
3, 85765, Note_on_c, 1, 52, 0
3, 85800, Note_on_c, 1, 52, 100
3, 85885, Note_on_c, 1, 52, 0
3, 85920, Note_on_c, 1, 52, 100
3, 86039, Note_on_c, 1, 52, 0
3, 86040, Note_on_c, 1, 51, 100
3, 86159, Note_on_c, 1, 51, 0
3, 86160, Note_on_c, 1, 54, 100
3, 86245, Note_on_c, 1, 54, 0
3, 86280, Note_on_c, 1, 54, 100
3, 86365, Note_on_c, 1, 54, 0
3, 86400, Note_on_c, 1, 54, 100
3, 86519, Note_on_c, 1, 54, 0
3, 86520, Note_on_c, 1, 53, 100
3, 86639, Note_on_c, 1, 53, 0
3, 86640, Note_on_c, 1, 56, 100
3, 86725, Note_on_c, 1, 56, 0
3, 86760, Note_on_c, 1, 56, 100
3, 86845, Note_on_c, 1, 56, 0
3, 86880, Note_on_c, 1, 56, 100
3, 86999, Note_on_c, 1, 56, 0
3, 87000, Note_on_c, 1, 55, 100
3, 87119, Note_on_c, 1, 55, 0
3, 87120, Note_on_c, 1, 58, 100
3, 87205, Note_on_c, 1, 58, 0
3, 87240, Note_on_c, 1, 58, 100
3, 87325, Note_on_c, 1, 58, 0
3, 87360, Note_on_c, 1, 58, 100
3, 87479, Note_on_c, 1, 58, 0
3, 87480, Note_on_c, 1, 56, 100
3, 87599, Note_on_c, 1, 56, 0
3, 87600, Note_on_c, 1, 58, 100
3, 87719, Note_on_c, 1, 58, 0
3, 87720, Note_on_c, 1, 60, 100
3, 87839, Note_on_c, 1, 60, 0
3, 87840, Note_on_c, 1, 61, 100
3, 87959, Note_on_c, 1, 61, 0
3, 87960, Note_on_c, 1, 55, 100
3, 88079, Note_on_c, 1, 55, 0
3, 88080, Note_on_c, 1, 56, 100
3, 88199, Note_on_c, 1, 56, 0
3, 88200, Note_on_c, 1, 58, 100
3, 88319, Note_on_c, 1, 58, 0
3, 88320, Note_on_c, 1, 59, 80
3, 88679, Note_on_c, 1, 59, 0
3, 88680, Note_on_c, 1, 59, 100
3, 88799, Note_on_c, 1, 59, 0
3, 88800, Note_on_c, 1, 57, 100
3, 88919, Note_on_c, 1, 57, 0
3, 88920, Note_on_c, 1, 56, 100
3, 89039, Note_on_c, 1, 56, 0
3, 89040, Note_on_c, 1, 57, 100
3, 89159, Note_on_c, 1, 57, 0
3, 89160, Note_on_c, 1, 59, 100
3, 89279, Note_on_c, 1, 59, 0
3, 89280, Note_on_c, 1, 61, 100
3, 89519, Note_on_c, 1, 61, 0
3, 89520, Note_on_c, 1, 56, 100
3, 89759, Note_on_c, 1, 56, 0
3, 89760, Note_on_c, 1, 63, 100
3, 90479, Note_on_c, 1, 63, 0
3, 90480, Note_on_c, 1, 61, 100
3, 90599, Note_on_c, 1, 61, 0
3, 90600, Note_on_c, 1, 60, 100
3, 90719, Note_on_c, 1, 60, 0
3, 90720, Note_on_c, 1, 64, 100
3, 90959, Note_on_c, 1, 64, 0
3, 91440, Note_on_c, 1, 61, 100
3, 91679, Note_on_c, 1, 61, 0
3, 91680, Note_on_c, 1, 60, 100
3, 91919, Note_on_c, 1, 60, 0
3, 91920, Note_on_c, 1, 59, 100
3, 92399, Note_on_c, 1, 59, 0
3, 92400, Note_on_c, 1, 58, 100
3, 92639, Note_on_c, 1, 58, 0
3, 92640, Note_on_c, 1, 59, 100
3, 92879, Note_on_c, 1, 59, 0
3, 92880, Note_on_c, 1, 66, 100
3, 93115, Note_on_c, 1, 66, 0
3, 93120, Note_on_c, 1, 66, 100
3, 93595, Note_on_c, 1, 66, 0
3, 93840, Note_on_c, 1, 64, 100
3, 94199, Note_on_c, 1, 64, 0
3, 94200, Note_on_c, 1, 62, 100
3, 94319, Note_on_c, 1, 62, 0
3, 94320, Note_on_c, 1, 63, 100
3, 94405, Note_on_c, 1, 63, 0
3, 94440, Note_on_c, 1, 63, 100
3, 94525, Note_on_c, 1, 63, 0
3, 94560, Note_on_c, 1, 63, 100
3, 94679, Note_on_c, 1, 63, 0
3, 94680, Note_on_c, 1, 60, 100
3, 94799, Note_on_c, 1, 60, 0
3, 94800, Note_on_c, 1, 61, 100
3, 94885, Note_on_c, 1, 61, 0
3, 94920, Note_on_c, 1, 61, 100
3, 95005, Note_on_c, 1, 61, 0
3, 95040, Note_on_c, 1, 61, 100
3, 95159, Note_on_c, 1, 61, 0
3, 95160, Note_on_c, 1, 58, 100
3, 95279, Note_on_c, 1, 58, 0
3, 95280, Note_on_c, 1, 59, 100
3, 95519, Note_on_c, 1, 59, 0
3, 95520, Note_on_c, 1, 61, 100
3, 95759, Note_on_c, 1, 61, 0
3, 95760, Note_on_c, 1, 63, 100
3, 95999, Note_on_c, 1, 63, 0
3, 96000, Note_on_c, 1, 56, 80
3, 96359, Note_on_c, 1, 56, 0
3, 96360, Note_on_c, 1, 56, 100
3, 96479, Note_on_c, 1, 56, 0
3, 96480, Note_on_c, 1, 58, 100
3, 96719, Note_on_c, 1, 58, 0
3, 96720, Note_on_c, 1, 60, 100
3, 96959, Note_on_c, 1, 60, 0
3, 96960, Note_on_c, 1, 61, 100
3, 97199, Note_on_c, 1, 61, 0
3, 97680, Note_on_c, 1, 66, 100
3, 97919, Note_on_c, 1, 66, 0
3, 97920, Note_on_c, 1, 63, 100
3, 98159, Note_on_c, 1, 63, 0
3, 98160, Note_on_c, 1, 54, 100
3, 98399, Note_on_c, 1, 54, 0
3, 98400, Note_on_c, 1, 52, 100
3, 98639, Note_on_c, 1, 52, 0
3, 98640, Note_on_c, 1, 48, 100
3, 98879, Note_on_c, 1, 48, 0
3, 98880, Note_on_c, 1, 49, 100
3, 99119, Note_on_c, 1, 49, 0
3, 99120, Note_on_c, 1, 56, 100
3, 99359, Note_on_c, 1, 56, 0
3, 99360, Note_on_c, 1, 61, 100
3, 99599, Note_on_c, 1, 61, 0
3, 99600, Note_on_c, 1, 68, 100
3, 100079, Note_on_c, 1, 68, 0
3, 100320, Note_on_c, 1, 61, 100
3, 100795, Note_on_c, 1, 61, 0
3, 100800, Note_on_c, 1, 60, 100
3, 101039, Note_on_c, 1, 60, 0
3, 101040, Note_on_c, 1, 64, 100
3, 101279, Note_on_c, 1, 64, 0
3, 101280, Note_on_c, 1, 58, 100
3, 101519, Note_on_c, 1, 58, 0
3, 101520, Note_on_c, 1, 57, 100
3, 101759, Note_on_c, 1, 57, 0
3, 101760, Note_on_c, 1, 56, 100
3, 101999, Note_on_c, 1, 56, 0
3, 102000, Note_on_c, 1, 61, 100
3, 102239, Note_on_c, 1, 61, 0
3, 102240, Note_on_c, 1, 54, 100
3, 102715, Note_on_c, 1, 54, 0
3, 102720, Note_on_c, 1, 52, 100
3, 102959, Note_on_c, 1, 52, 0
3, 102960, Note_on_c, 1, 54, 100
3, 103199, Note_on_c, 1, 54, 0
3, 103200, Note_on_c, 1, 56, 100
3, 103319, Note_on_c, 1, 56, 0
3, 103320, Note_on_c, 1, 54, 100
3, 103439, Note_on_c, 1, 54, 0
3, 103440, Note_on_c, 1, 56, 100
3, 103679, Note_on_c, 1, 56, 0
3, 103680, Note_on_c, 1, 49, 100
3, 103919, Note_on_c, 1, 49, 0
3, 103920, Note_on_c, 1, 52, 100
3, 104159, Note_on_c, 1, 52, 0
3, 104160, Note_on_c, 1, 59, 80
3, 104519, Note_on_c, 1, 59, 0
3, 104520, Note_on_c, 1, 61, 100
3, 104579, Note_on_c, 1, 61, 0
3, 104580, Note_on_c, 1, 59, 100
3, 104639, Note_on_c, 1, 59, 0
3, 104640, Note_on_c, 1, 58, 100
3, 104879, Note_on_c, 1, 58, 0
3, 104880, Note_on_c, 1, 59, 100
3, 105239, Note_on_c, 1, 59, 0
3, 105240, Note_on_c, 1, 56, 100
3, 105359, Note_on_c, 1, 56, 0
3, 105360, Note_on_c, 1, 57, 100
3, 105445, Note_on_c, 1, 57, 0
3, 105480, Note_on_c, 1, 57, 100
3, 105565, Note_on_c, 1, 57, 0
3, 105600, Note_on_c, 1, 57, 100
3, 105719, Note_on_c, 1, 57, 0
3, 105720, Note_on_c, 1, 54, 100
3, 105839, Note_on_c, 1, 54, 0
3, 105840, Note_on_c, 1, 56, 100
3, 105925, Note_on_c, 1, 56, 0
3, 105960, Note_on_c, 1, 56, 100
3, 106045, Note_on_c, 1, 56, 0
3, 106080, Note_on_c, 1, 54, 100
3, 106319, Note_on_c, 1, 54, 0
3, 106320, Note_on_c, 1, 66, 100
3, 106559, Note_on_c, 1, 66, 0
3, 106560, Note_on_c, 1, 63, 100
3, 106799, Note_on_c, 1, 63, 0
3, 106800, Note_on_c, 1, 61, 100
3, 107275, Note_on_c, 1, 61, 0
3, 107280, Note_on_c, 1, 59, 100
3, 107759, Note_on_c, 1, 59, 0
3, 107760, Note_on_c, 1, 57, 100
3, 107879, Note_on_c, 1, 57, 0
3, 107880, Note_on_c, 1, 59, 100
3, 107999, Note_on_c, 1, 59, 0
3, 108000, Note_on_c, 1, 61, 100
3, 108239, Note_on_c, 1, 61, 0
3, 108240, Note_on_c, 1, 59, 100
3, 108479, Note_on_c, 1, 59, 0
3, 108480, Note_on_c, 1, 57, 80
3, 108839, Note_on_c, 1, 57, 0
3, 108840, Note_on_c, 1, 56, 100
3, 108959, Note_on_c, 1, 56, 0
3, 108960, Note_on_c, 1, 54, 100
3, 109079, Note_on_c, 1, 54, 0
3, 109080, Note_on_c, 1, 57, 100
3, 109199, Note_on_c, 1, 57, 0
3, 109200, Note_on_c, 1, 56, 100
3, 109319, Note_on_c, 1, 56, 0
3, 109320, Note_on_c, 1, 54, 100
3, 109439, Note_on_c, 1, 54, 0
3, 109440, Note_on_c, 1, 56, 100
3, 109679, Note_on_c, 1, 56, 0
3, 109680, Note_on_c, 1, 61, 100
3, 109799, Note_on_c, 1, 61, 0
3, 109800, Note_on_c, 1, 59, 100
3, 109919, Note_on_c, 1, 59, 0
3, 109920, Note_on_c, 1, 58, 100
3, 110039, Note_on_c, 1, 58, 0
3, 110040, Note_on_c, 1, 60, 100
3, 110159, Note_on_c, 1, 60, 0
3, 110160, Note_on_c, 1, 61, 100
3, 110519, Note_on_c, 1, 61, 0
3, 110520, Note_on_c, 1, 60, 100
3, 110639, Note_on_c, 1, 60, 0
3, 110640, Note_on_c, 1, 66, 100
3, 110999, Note_on_c, 1, 66, 0
3, 111000, Note_on_c, 1, 63, 100
3, 111119, Note_on_c, 1, 63, 0
3, 111120, Note_on_c, 1, 64, 100
3, 111205, Note_on_c, 1, 64, 0
3, 111240, Note_on_c, 1, 64, 100
3, 111325, Note_on_c, 1, 64, 0
3, 111360, Note_on_c, 1, 64, 100
3, 111479, Note_on_c, 1, 64, 0
3, 111480, Note_on_c, 1, 62, 100
3, 111599, Note_on_c, 1, 62, 0
3, 111600, Note_on_c, 1, 63, 100
3, 111685, Note_on_c, 1, 63, 0
3, 111720, Note_on_c, 1, 63, 100
3, 111805, Note_on_c, 1, 63, 0
3, 111840, Note_on_c, 1, 63, 100
3, 111959, Note_on_c, 1, 63, 0
3, 111960, Note_on_c, 1, 56, 100
3, 112079, Note_on_c, 1, 56, 0
3, 112080, Note_on_c, 1, 61, 100
3, 112199, Note_on_c, 1, 61, 0
3, 112200, Note_on_c, 1, 59, 100
3, 112319, Note_on_c, 1, 59, 0
3, 112320, Note_on_c, 1, 58, 100
3, 112559, Note_on_c, 1, 58, 0
3, 112560, Note_on_c, 1, 57, 100
3, 112799, Note_on_c, 1, 57, 0
3, 112800, Note_on_c, 1, 56, 100
3, 113039, Note_on_c, 1, 56, 0
3, 113160, Note_on_c, 1, 56, 100
3, 113279, Note_on_c, 1, 56, 0
3, 113280, Note_on_c, 1, 55, 100
3, 113519, Note_on_c, 1, 55, 0
3, 113520, Note_on_c, 1, 54, 100
3, 113759, Note_on_c, 1, 54, 0
3, 113760, Note_on_c, 1, 53, 100
3, 113999, Note_on_c, 1, 53, 0
3, 114000, Note_on_c, 1, 52, 100
3, 114239, Note_on_c, 1, 52, 0
3, 114240, Note_on_c, 1, 51, 80
3, 114959, Note_on_c, 1, 51, 0
3, 114960, Note_on_c, 1, 49, 100
3, 115199, Note_on_c, 1, 49, 0
3, 115200, Note_on_c, 1, 51, 100
3, 115439, Note_on_c, 1, 51, 0
3, 115440, Note_on_c, 1, 63, 100
3, 115915, Note_on_c, 1, 63, 0
3, 115920, Note_on_c, 1, 62, 100
3, 116159, Note_on_c, 1, 62, 0
3, 116160, Note_on_c, 1, 63, 100
3, 116399, Note_on_c, 1, 63, 0
3, 116400, Note_on_c, 1, 55, 100
3, 116639, Note_on_c, 1, 55, 0
3, 116640, Note_on_c, 1, 56, 100
3, 116879, Note_on_c, 1, 56, 0
3, 117840, Note_on_c, 1, 63, 100
3, 118079, Note_on_c, 1, 63, 0
3, 118080, Note_on_c, 1, 64, 100
3, 118319, Note_on_c, 1, 64, 0
3, 118320, Note_on_c, 1, 65, 100
3, 118559, Note_on_c, 1, 65, 0
3, 118560, Note_on_c, 1, 66, 100
3, 118799, Note_on_c, 1, 66, 0
3, 118800, Note_on_c, 1, 67, 100
3, 119039, Note_on_c, 1, 67, 0
3, 119040, Note_on_c, 1, 68, 100
3, 119639, Note_on_c, 1, 68, 0
3, 119640, Note_on_c, 1, 64, 100
3, 119759, Note_on_c, 1, 64, 0
3, 119760, Note_on_c, 1, 66, 100
3, 119845, Note_on_c, 1, 66, 0
3, 119880, Note_on_c, 1, 66, 100
3, 119965, Note_on_c, 1, 66, 0
3, 120000, Note_on_c, 1, 66, 100
3, 120119, Note_on_c, 1, 66, 0
3, 120120, Note_on_c, 1, 63, 100
3, 120239, Note_on_c, 1, 63, 0
3, 120240, Note_on_c, 1, 64, 100
3, 120325, Note_on_c, 1, 64, 0
3, 120360, Note_on_c, 1, 64, 100
3, 120445, Note_on_c, 1, 64, 0
3, 120480, Note_on_c, 1, 64, 100
3, 120599, Note_on_c, 1, 64, 0
3, 120600, Note_on_c, 1, 61, 100
3, 120719, Note_on_c, 1, 61, 0
3, 120720, Note_on_c, 1, 63, 100
3, 120805, Note_on_c, 1, 63, 0
3, 120840, Note_on_c, 1, 63, 100
3, 120925, Note_on_c, 1, 63, 0
3, 120960, Note_on_c, 1, 63, 100
3, 121079, Note_on_c, 1, 63, 0
3, 121080, Note_on_c, 1, 59, 100
3, 121199, Note_on_c, 1, 59, 0
3, 121200, Note_on_c, 1, 61, 100
3, 121285, Note_on_c, 1, 61, 0
3, 121320, Note_on_c, 1, 61, 100
3, 121405, Note_on_c, 1, 61, 0
3, 121440, Note_on_c, 1, 61, 100
3, 122159, Note_on_c, 1, 61, 0
3, 122160, Note_on_c, 1, 59, 100
3, 122399, Note_on_c, 1, 59, 0
3, 122400, Note_on_c, 1, 64, 100
3, 122639, Note_on_c, 1, 64, 0
3, 122640, Note_on_c, 1, 58, 100
3, 122879, Note_on_c, 1, 58, 0
3, 122880, Note_on_c, 1, 59, 100
3, 122999, Note_on_c, 1, 59, 0
3, 123000, Note_on_c, 1, 61, 100
3, 123119, Note_on_c, 1, 61, 0
3, 123120, Note_on_c, 1, 63, 100
3, 123205, Note_on_c, 1, 63, 0
3, 123240, Note_on_c, 1, 63, 100
3, 123325, Note_on_c, 1, 63, 0
3, 123360, Note_on_c, 1, 63, 100
3, 123479, Note_on_c, 1, 63, 0
3, 123480, Note_on_c, 1, 60, 100
3, 123599, Note_on_c, 1, 60, 0
3, 123600, Note_on_c, 1, 61, 100
3, 123685, Note_on_c, 1, 61, 0
3, 123720, Note_on_c, 1, 61, 100
3, 123805, Note_on_c, 1, 61, 0
3, 123840, Note_on_c, 1, 61, 100
3, 123959, Note_on_c, 1, 61, 0
3, 123960, Note_on_c, 1, 58, 100
3, 124079, Note_on_c, 1, 58, 0
3, 124080, Note_on_c, 1, 59, 100
3, 124165, Note_on_c, 1, 59, 0
3, 124200, Note_on_c, 1, 59, 100
3, 124285, Note_on_c, 1, 59, 0
3, 124320, Note_on_c, 1, 61, 100
3, 124439, Note_on_c, 1, 61, 0
3, 124440, Note_on_c, 1, 64, 100
3, 124559, Note_on_c, 1, 64, 0
3, 124560, Note_on_c, 1, 57, 100
3, 124645, Note_on_c, 1, 57, 0
3, 124680, Note_on_c, 1, 57, 100
3, 124765, Note_on_c, 1, 57, 0
3, 124800, Note_on_c, 1, 57, 100
3, 124919, Note_on_c, 1, 57, 0
3, 124920, Note_on_c, 1, 54, 100
3, 125039, Note_on_c, 1, 54, 0
3, 125040, Note_on_c, 1, 56, 100
3, 125125, Note_on_c, 1, 56, 0
3, 125160, Note_on_c, 1, 56, 100
3, 125245, Note_on_c, 1, 56, 0
3, 125280, Note_on_c, 1, 56, 100
3, 125399, Note_on_c, 1, 56, 0
3, 125400, Note_on_c, 1, 52, 100
3, 125519, Note_on_c, 1, 52, 0
3, 125520, Note_on_c, 1, 54, 100
3, 125605, Note_on_c, 1, 54, 0
3, 125640, Note_on_c, 1, 54, 100
3, 125725, Note_on_c, 1, 54, 0
3, 125760, Note_on_c, 1, 54, 100
3, 125879, Note_on_c, 1, 54, 0
3, 125880, Note_on_c, 1, 51, 100
3, 125999, Note_on_c, 1, 51, 0
3, 126000, Note_on_c, 1, 52, 100
3, 126239, Note_on_c, 1, 52, 0
3, 126480, Note_on_c, 1, 57, 100
3, 126719, Note_on_c, 1, 57, 0
3, 126720, Note_on_c, 1, 56, 100
3, 127195, Note_on_c, 1, 56, 0
3, 127200, Note_on_c, 1, 54, 100
3, 127919, Note_on_c, 1, 54, 0
3, 127920, Note_on_c, 1, 51, 100
3, 128159, Note_on_c, 1, 51, 0
3, 128160, Note_on_c, 1, 52, 100
3, 128399, Note_on_c, 1, 52, 0
3, 128400, Note_on_c, 1, 54, 100
3, 128639, Note_on_c, 1, 54, 0
3, 128640, Note_on_c, 1, 56, 80
3, 128999, Note_on_c, 1, 56, 0
3, 129000, Note_on_c, 1, 57, 100
3, 129115, Note_on_c, 1, 57, 0
3, 129120, Note_on_c, 1, 57, 100
3, 129239, Note_on_c, 1, 57, 0
3, 129240, Note_on_c, 1, 56, 100
3, 129355, Note_on_c, 1, 56, 0
3, 129360, Note_on_c, 1, 56, 100
3, 129479, Note_on_c, 1, 56, 0
3, 129480, Note_on_c, 1, 54, 100
3, 129599, Note_on_c, 1, 54, 0
3, 129600, Note_on_c, 1, 56, 100
3, 130075, Note_on_c, 1, 56, 0
3, 130320, Note_on_c, 1, 56, 100
3, 130559, Note_on_c, 1, 56, 0
3, 130560, Note_on_c, 1, 57, 100
3, 130799, Note_on_c, 1, 57, 0
3, 130800, Note_on_c, 1, 52, 100
3, 131039, Note_on_c, 1, 52, 0
3, 131040, Note_on_c, 1, 59, 100
3, 131279, Note_on_c, 1, 59, 0
3, 131280, Note_on_c, 1, 60, 100
3, 131519, Note_on_c, 1, 60, 0
3, 131520, Note_on_c, 1, 61, 100
3, 131759, Note_on_c, 1, 61, 0
3, 131760, Note_on_c, 1, 56, 100
3, 131999, Note_on_c, 1, 56, 0
3, 132000, Note_on_c, 1, 63, 100
3, 132475, Note_on_c, 1, 63, 0
3, 132480, Note_on_c, 1, 64, 100
3, 132719, Note_on_c, 1, 64, 0
3, 132720, Note_on_c, 1, 63, 100
3, 132959, Note_on_c, 1, 63, 0
3, 132960, Note_on_c, 1, 61, 100
3, 133079, Note_on_c, 1, 61, 0
3, 133080, Note_on_c, 1, 63, 100
3, 133199, Note_on_c, 1, 63, 0
3, 133200, Note_on_c, 1, 61, 100
3, 133439, Note_on_c, 1, 61, 0
3, 133440, Note_on_c, 1, 68, 100
3, 133559, Note_on_c, 1, 68, 0
3, 133560, Note_on_c, 1, 63, 100
3, 133679, Note_on_c, 1, 63, 0
3, 133680, Note_on_c, 1, 68, 100
3, 133765, Note_on_c, 1, 68, 0
3, 133800, Note_on_c, 1, 68, 100
3, 133885, Note_on_c, 1, 68, 0
3, 133920, Note_on_c, 1, 68, 100
3, 134039, Note_on_c, 1, 68, 0
3, 134040, Note_on_c, 1, 65, 100
3, 134159, Note_on_c, 1, 65, 0
3, 134160, Note_on_c, 1, 66, 100
3, 134245, Note_on_c, 1, 66, 0
3, 134280, Note_on_c, 1, 66, 100
3, 134365, Note_on_c, 1, 66, 0
3, 134400, Note_on_c, 1, 66, 100
3, 134519, Note_on_c, 1, 66, 0
3, 134520, Note_on_c, 1, 63, 100
3, 134639, Note_on_c, 1, 63, 0
3, 134640, Note_on_c, 1, 64, 100
3, 134725, Note_on_c, 1, 64, 0
3, 134760, Note_on_c, 1, 64, 100
3, 134845, Note_on_c, 1, 64, 0
3, 134880, Note_on_c, 1, 64, 100
3, 134999, Note_on_c, 1, 64, 0
3, 135000, Note_on_c, 1, 67, 100
3, 135119, Note_on_c, 1, 67, 0
3, 135120, Note_on_c, 1, 66, 100
3, 135205, Note_on_c, 1, 66, 0
3, 135240, Note_on_c, 1, 66, 100
3, 135325, Note_on_c, 1, 66, 0
3, 135360, Note_on_c, 1, 66, 100
3, 135479, Note_on_c, 1, 66, 0
3, 135480, Note_on_c, 1, 69, 100
3, 135599, Note_on_c, 1, 69, 0
3, 135600, Note_on_c, 1, 68, 100
3, 135839, Note_on_c, 1, 68, 0
3, 135840, Note_on_c, 1, 59, 100
3, 136315, Note_on_c, 1, 59, 0
3, 136320, Note_on_c, 1, 57, 100
3, 136559, Note_on_c, 1, 57, 0
3, 137040, Note_on_c, 1, 66, 100
3, 137279, Note_on_c, 1, 66, 0
3, 137280, Note_on_c, 1, 65, 100
3, 137519, Note_on_c, 1, 65, 0
3, 137520, Note_on_c, 1, 63, 100
3, 137755, Note_on_c, 1, 63, 0
3, 137880, Note_on_c, 1, 66, 80
3, 137999, Note_on_c, 1, 66, 0
3, 138000, Note_on_c, 1, 65, 80
3, 138119, Note_on_c, 1, 65, 0
3, 138120, Note_on_c, 1, 62, 100
3, 138239, Note_on_c, 1, 62, 0
3, 138240, Note_on_c, 1, 61, 100
3, 138475, Note_on_c, 1, 61, 0
3, 139440, Note_on_c, 1, 51, 100
3, 139679, Note_on_c, 1, 51, 0
3, 139680, Note_on_c, 1, 58, 100
3, 139919, Note_on_c, 1, 58, 0
3, 139920, Note_on_c, 1, 56, 100
3, 140159, Note_on_c, 1, 56, 0
3, 140400, Note_on_c, 1, 54, 100
3, 140639, Note_on_c, 1, 54, 0
3, 140640, Note_on_c, 1, 53, 100
3, 140879, Note_on_c, 1, 53, 0
3, 140880, Note_on_c, 1, 51, 100
3, 141119, Note_on_c, 1, 51, 0
3, 141360, Note_on_c, 1, 50, 100
3, 141599, Note_on_c, 1, 50, 0
3, 141600, Note_on_c, 1, 51, 100
3, 141839, Note_on_c, 1, 51, 0
3, 141840, Note_on_c, 1, 53, 100
3, 142079, Note_on_c, 1, 53, 0
3, 142320, Note_on_c, 1, 54, 100
3, 142439, Note_on_c, 1, 54, 0
3, 142440, Note_on_c, 1, 56, 100
3, 142559, Note_on_c, 1, 56, 0
3, 142560, Note_on_c, 1, 54, 100
3, 142799, Note_on_c, 1, 54, 0
3, 142800, Note_on_c, 1, 53, 100
3, 143039, Note_on_c, 1, 53, 0
3, 143040, Note_on_c, 1, 51, 100
3, 143515, Note_on_c, 1, 51, 0
3, 143760, Note_on_c, 1, 63, 100
3, 144119, Note_on_c, 1, 63, 0
3, 144120, Note_on_c, 1, 60, 100
3, 144239, Note_on_c, 1, 60, 0
3, 144240, Note_on_c, 1, 61, 100
3, 144325, Note_on_c, 1, 61, 0
3, 144360, Note_on_c, 1, 61, 100
3, 144445, Note_on_c, 1, 61, 0
3, 144480, Note_on_c, 1, 61, 100
3, 144599, Note_on_c, 1, 61, 0
3, 144600, Note_on_c, 1, 58, 100
3, 144719, Note_on_c, 1, 58, 0
3, 144720, Note_on_c, 1, 59, 100
3, 144805, Note_on_c, 1, 59, 0
3, 144840, Note_on_c, 1, 59, 100
3, 144925, Note_on_c, 1, 59, 0
3, 144960, Note_on_c, 1, 58, 100
3, 145199, Note_on_c, 1, 58, 0
3, 145200, Note_on_c, 1, 57, 100
3, 145439, Note_on_c, 1, 57, 0
3, 145440, Note_on_c, 1, 56, 80
3, 145799, Note_on_c, 1, 56, 0
3, 145800, Note_on_c, 1, 59, 100
3, 145919, Note_on_c, 1, 59, 0
3, 145920, Note_on_c, 1, 57, 100
3, 146039, Note_on_c, 1, 57, 0
3, 146040, Note_on_c, 1, 56, 100
3, 146159, Note_on_c, 1, 56, 0
3, 146160, Note_on_c, 1, 57, 100
3, 146399, Note_on_c, 1, 57, 0
3, 146640, Note_on_c, 1, 56, 100
3, 146759, Note_on_c, 1, 56, 0
3, 146760, Note_on_c, 1, 58, 100
3, 146879, Note_on_c, 1, 58, 0
3, 146880, Note_on_c, 1, 60, 100
3, 146999, Note_on_c, 1, 60, 0
3, 147000, Note_on_c, 1, 58, 100
3, 147119, Note_on_c, 1, 58, 0
3, 147120, Note_on_c, 1, 60, 100
3, 147359, Note_on_c, 1, 60, 0
3, 147600, Note_on_c, 1, 59, 100
3, 147839, Note_on_c, 1, 59, 0
3, 147840, Note_on_c, 1, 58, 100
3, 147959, Note_on_c, 1, 58, 0
3, 147960, Note_on_c, 1, 61, 100
3, 148079, Note_on_c, 1, 61, 0
3, 148080, Note_on_c, 1, 59, 100
3, 148165, Note_on_c, 1, 59, 0
3, 148200, Note_on_c, 1, 59, 100
3, 148285, Note_on_c, 1, 59, 0
3, 148320, Note_on_c, 1, 59, 100
3, 148919, Note_on_c, 1, 59, 0
3, 148920, Note_on_c, 1, 56, 100
3, 149039, Note_on_c, 1, 56, 0
3, 149040, Note_on_c, 1, 57, 100
3, 149125, Note_on_c, 1, 57, 0
3, 149160, Note_on_c, 1, 57, 100
3, 149245, Note_on_c, 1, 57, 0
3, 149280, Note_on_c, 1, 57, 100
3, 149399, Note_on_c, 1, 57, 0
3, 149400, Note_on_c, 1, 54, 100
3, 149519, Note_on_c, 1, 54, 0
3, 149520, Note_on_c, 1, 56, 100
3, 149605, Note_on_c, 1, 56, 0
3, 149640, Note_on_c, 1, 56, 100
3, 149725, Note_on_c, 1, 56, 0
3, 149760, Note_on_c, 1, 56, 100
3, 149879, Note_on_c, 1, 56, 0
3, 149880, Note_on_c, 1, 53, 100
3, 149999, Note_on_c, 1, 53, 0
3, 150000, Note_on_c, 1, 54, 100
3, 150085, Note_on_c, 1, 54, 0
3, 150120, Note_on_c, 1, 54, 100
3, 150205, Note_on_c, 1, 54, 0
3, 150240, Note_on_c, 1, 54, 100
3, 150359, Note_on_c, 1, 54, 0
3, 150360, Note_on_c, 1, 51, 100
3, 150479, Note_on_c, 1, 51, 0
3, 150480, Note_on_c, 1, 52, 100
3, 150565, Note_on_c, 1, 52, 0
3, 150600, Note_on_c, 1, 52, 100
3, 150685, Note_on_c, 1, 52, 0
3, 150720, Note_on_c, 1, 51, 100
3, 150839, Note_on_c, 1, 51, 0
3, 150840, Note_on_c, 1, 56, 100
3, 150959, Note_on_c, 1, 56, 0
3, 150960, Note_on_c, 1, 60, 100
3, 151199, Note_on_c, 1, 60, 0
3, 151440, Note_on_c, 1, 69, 100
3, 151799, Note_on_c, 1, 69, 0
3, 151800, Note_on_c, 1, 68, 100
3, 151919, Note_on_c, 1, 68, 0
3, 151920, Note_on_c, 1, 73, 100
3, 152279, Note_on_c, 1, 73, 0
3, 152280, Note_on_c, 1, 71, 100
3, 152399, Note_on_c, 1, 71, 0
3, 152400, Note_on_c, 1, 69, 100
3, 152519, Note_on_c, 1, 69, 0
3, 152520, Note_on_c, 1, 68, 100
3, 152639, Note_on_c, 1, 68, 0
3, 152640, Note_on_c, 1, 69, 100
3, 152879, Note_on_c, 1, 69, 0
3, 153240, Note_on_c, 1, 56, 100
3, 153359, Note_on_c, 1, 56, 0
3, 153360, Note_on_c, 1, 60, 100
3, 153479, Note_on_c, 1, 60, 0
3, 153480, Note_on_c, 1, 56, 100
3, 153599, Note_on_c, 1, 56, 0
3, 153600, Note_on_c, 1, 61, 80
3, 153959, Note_on_c, 1, 61, 0
3, 153960, Note_on_c, 1, 60, 100
3, 154079, Note_on_c, 1, 60, 0
3, 154080, Note_on_c, 1, 61, 80
3, 154439, Note_on_c, 1, 61, 0
3, 154440, Note_on_c, 1, 59, 100
3, 154679, Note_on_c, 1, 59, 0
3, 154680, Note_on_c, 1, 56, 100
3, 154799, Note_on_c, 1, 56, 0
3, 154800, Note_on_c, 1, 57, 100
3, 154885, Note_on_c, 1, 57, 0
3, 154920, Note_on_c, 1, 57, 100
3, 155005, Note_on_c, 1, 57, 0
3, 155040, Note_on_c, 1, 57, 100
3, 155639, Note_on_c, 1, 57, 0
3, 155640, Note_on_c, 1, 54, 100
3, 155759, Note_on_c, 1, 54, 0
3, 155760, Note_on_c, 1, 55, 100
3, 155845, Note_on_c, 1, 55, 0
3, 155880, Note_on_c, 1, 55, 100
3, 155965, Note_on_c, 1, 55, 0
3, 156000, Note_on_c, 1, 55, 100
3, 156599, Note_on_c, 1, 55, 0
3, 156600, Note_on_c, 1, 52, 100
3, 156719, Note_on_c, 1, 52, 0
3, 156720, Note_on_c, 1, 54, 100
3, 156959, Note_on_c, 1, 54, 0
3, 156960, Note_on_c, 1, 61, 100
3, 157199, Note_on_c, 1, 61, 0
3, 157200, Note_on_c, 1, 59, 100
3, 157439, Note_on_c, 1, 59, 0
3, 157680, Note_on_c, 1, 57, 100
3, 157919, Note_on_c, 1, 57, 0
3, 157920, Note_on_c, 1, 56, 100
3, 158159, Note_on_c, 1, 56, 0
3, 158160, Note_on_c, 1, 54, 100
3, 158399, Note_on_c, 1, 54, 0
3, 158640, Note_on_c, 1, 53, 100
3, 158879, Note_on_c, 1, 53, 0
3, 158880, Note_on_c, 1, 54, 100
3, 159119, Note_on_c, 1, 54, 0
3, 159120, Note_on_c, 1, 56, 100
3, 159359, Note_on_c, 1, 56, 0
3, 159600, Note_on_c, 1, 57, 100
3, 159719, Note_on_c, 1, 57, 0
3, 159720, Note_on_c, 1, 59, 100
3, 159839, Note_on_c, 1, 59, 0
3, 159840, Note_on_c, 1, 57, 100
3, 160079, Note_on_c, 1, 57, 0
3, 160080, Note_on_c, 1, 56, 100
3, 160319, Note_on_c, 1, 56, 0
3, 160320, Note_on_c, 1, 54, 100
3, 160555, Note_on_c, 1, 54, 0
3, 161520, Note_on_c, 1, 61, 100
3, 161879, Note_on_c, 1, 61, 0
3, 161880, Note_on_c, 1, 64, 100
3, 161999, Note_on_c, 1, 64, 0
3, 162000, Note_on_c, 1, 63, 100
3, 162085, Note_on_c, 1, 63, 0
3, 162120, Note_on_c, 1, 63, 100
3, 162205, Note_on_c, 1, 63, 0
3, 162240, Note_on_c, 1, 63, 100
3, 162359, Note_on_c, 1, 63, 0
3, 162360, Note_on_c, 1, 66, 100
3, 162479, Note_on_c, 1, 66, 0
3, 162480, Note_on_c, 1, 64, 100
3, 162565, Note_on_c, 1, 64, 0
3, 162600, Note_on_c, 1, 64, 100
3, 162685, Note_on_c, 1, 64, 0
3, 162720, Note_on_c, 1, 64, 100
3, 162839, Note_on_c, 1, 64, 0
3, 162840, Note_on_c, 1, 68, 100
3, 162959, Note_on_c, 1, 68, 0
3, 162960, Note_on_c, 1, 66, 100
3, 163045, Note_on_c, 1, 66, 0
3, 163080, Note_on_c, 1, 66, 100
3, 163165, Note_on_c, 1, 66, 0
3, 163200, Note_on_c, 1, 60, 100
3, 163439, Note_on_c, 1, 60, 0
3, 163440, Note_on_c, 1, 61, 100
3, 163679, Note_on_c, 1, 61, 0
3, 163680, Note_on_c, 1, 54, 100
3, 164399, Note_on_c, 1, 54, 0
3, 164400, Note_on_c, 1, 52, 100
3, 164639, Note_on_c, 1, 52, 0
3, 164880, Note_on_c, 1, 61, 100
3, 165119, Note_on_c, 1, 61, 0
3, 165120, Note_on_c, 1, 60, 100
3, 165595, Note_on_c, 1, 60, 0
3, 165840, Note_on_c, 1, 61, 100
3, 166079, Note_on_c, 1, 61, 0
3, 166080, Note_on_c, 1, 60, 100
3, 166319, Note_on_c, 1, 60, 0
3, 166320, Note_on_c, 1, 61, 100
3, 166559, Note_on_c, 1, 61, 0
3, 166800, Note_on_c, 1, 48, 100
3, 167039, Note_on_c, 1, 48, 0
3, 167040, Note_on_c, 1, 49, 100
3, 167159, Note_on_c, 1, 49, 0
3, 167160, Note_on_c, 1, 51, 100
3, 167279, Note_on_c, 1, 51, 0
3, 167280, Note_on_c, 1, 52, 100
3, 167365, Note_on_c, 1, 52, 0
3, 167400, Note_on_c, 1, 52, 100
3, 167485, Note_on_c, 1, 52, 0
3, 167520, Note_on_c, 1, 52, 100
3, 167639, Note_on_c, 1, 52, 0
3, 167640, Note_on_c, 1, 51, 100
3, 167759, Note_on_c, 1, 51, 0
3, 167760, Note_on_c, 1, 54, 100
3, 167845, Note_on_c, 1, 54, 0
3, 167880, Note_on_c, 1, 54, 100
3, 167965, Note_on_c, 1, 54, 0
3, 168000, Note_on_c, 1, 54, 100
3, 168119, Note_on_c, 1, 54, 0
3, 168120, Note_on_c, 1, 52, 100
3, 168239, Note_on_c, 1, 52, 0
3, 168240, Note_on_c, 1, 56, 100
3, 168325, Note_on_c, 1, 56, 0
3, 168360, Note_on_c, 1, 56, 100
3, 168445, Note_on_c, 1, 56, 0
3, 168480, Note_on_c, 1, 56, 100
3, 168599, Note_on_c, 1, 56, 0
3, 168600, Note_on_c, 1, 54, 100
3, 168719, Note_on_c, 1, 54, 0
3, 168720, Note_on_c, 1, 57, 100
3, 168805, Note_on_c, 1, 57, 0
3, 168840, Note_on_c, 1, 57, 100
3, 168925, Note_on_c, 1, 57, 0
3, 168960, Note_on_c, 1, 57, 100
3, 169079, Note_on_c, 1, 57, 0
3, 169080, Note_on_c, 1, 56, 100
3, 169199, Note_on_c, 1, 56, 0
3, 169200, Note_on_c, 1, 57, 100
3, 169319, Note_on_c, 1, 57, 0
3, 169320, Note_on_c, 1, 54, 100
3, 169439, Note_on_c, 1, 54, 0
3, 169440, Note_on_c, 1, 56, 80
3, 169799, Note_on_c, 1, 56, 0
3, 169800, Note_on_c, 1, 54, 100
3, 169919, Note_on_c, 1, 54, 0
3, 169920, Note_on_c, 1, 52, 100
3, 170039, Note_on_c, 1, 52, 0
3, 170040, Note_on_c, 1, 51, 100
3, 170159, Note_on_c, 1, 51, 0
3, 170160, Note_on_c, 1, 49, 100
3, 170399, Note_on_c, 1, 49, 0
3, 170400, Note_on_c, 1, 56, 100
3, 171119, Note_on_c, 1, 56, 0
3, 171120, Note_on_c, 1, 54, 100
3, 171595, Note_on_c, 1, 54, 0
3, 171600, Note_on_c, 1, 56, 100
3, 171839, Note_on_c, 1, 56, 0
3, 171840, Note_on_c, 1, 57, 100
3, 172079, Note_on_c, 1, 57, 0
3, 172080, Note_on_c, 1, 52, 100
3, 172319, Note_on_c, 1, 52, 0
3, 172320, Note_on_c, 1, 59, 100
3, 172559, Note_on_c, 1, 59, 0
3, 172560, Note_on_c, 1, 60, 100
3, 172799, Note_on_c, 1, 60, 0
3, 172800, Note_on_c, 1, 61, 100
3, 173039, Note_on_c, 1, 61, 0
3, 173040, Note_on_c, 1, 56, 100
3, 173279, Note_on_c, 1, 56, 0
3, 173280, Note_on_c, 1, 63, 100
3, 173755, Note_on_c, 1, 63, 0
3, 173760, Note_on_c, 1, 64, 100
3, 173999, Note_on_c, 1, 64, 0
3, 174000, Note_on_c, 1, 63, 100
3, 174239, Note_on_c, 1, 63, 0
3, 174240, Note_on_c, 1, 61, 100
3, 174359, Note_on_c, 1, 61, 0
3, 174360, Note_on_c, 1, 63, 100
3, 174479, Note_on_c, 1, 63, 0
3, 174480, Note_on_c, 1, 61, 100
3, 174719, Note_on_c, 1, 61, 0
3, 174720, Note_on_c, 1, 66, 100
3, 174959, Note_on_c, 1, 66, 0
3, 174960, Note_on_c, 1, 61, 100
3, 175199, Note_on_c, 1, 61, 0
3, 175200, Note_on_c, 1, 56, 100
3, 176639, Note_on_c, 1, 56, 0
3, 176640, End_track
4, 0, Start_track
4, 0, Key_signature, 4, "major"
4, 7920, Note_on_c, 1, 49, 100
4, 8159, Note_on_c, 1, 49, 0
4, 8160, Note_on_c, 1, 56, 100
4, 8399, Note_on_c, 1, 56, 0
4, 8400, Note_on_c, 1, 54, 100
4, 8639, Note_on_c, 1, 54, 0
4, 8880, Note_on_c, 1, 52, 100
4, 9119, Note_on_c, 1, 52, 0
4, 9120, Note_on_c, 1, 51, 100
4, 9359, Note_on_c, 1, 51, 0
4, 9360, Note_on_c, 1, 49, 100
4, 9599, Note_on_c, 1, 49, 0
4, 9840, Note_on_c, 1, 48, 100
4, 10079, Note_on_c, 1, 48, 0
4, 10080, Note_on_c, 1, 49, 100
4, 10319, Note_on_c, 1, 49, 0
4, 10320, Note_on_c, 1, 51, 100
4, 10559, Note_on_c, 1, 51, 0
4, 10800, Note_on_c, 1, 52, 100
4, 10919, Note_on_c, 1, 52, 0
4, 10920, Note_on_c, 1, 54, 100
4, 11039, Note_on_c, 1, 54, 0
4, 11040, Note_on_c, 1, 52, 100
4, 11279, Note_on_c, 1, 52, 0
4, 11280, Note_on_c, 1, 51, 100
4, 11519, Note_on_c, 1, 51, 0
4, 11520, Note_on_c, 1, 49, 100
4, 11995, Note_on_c, 1, 49, 0
4, 12240, Note_on_c, 1, 51, 100
4, 12479, Note_on_c, 1, 51, 0
4, 12720, Note_on_c, 1, 51, 100
4, 12839, Note_on_c, 1, 51, 0
4, 12840, Note_on_c, 1, 49, 100
4, 12959, Note_on_c, 1, 49, 0
4, 12960, Note_on_c, 1, 51, 100
4, 13199, Note_on_c, 1, 51, 0
4, 13200, Note_on_c, 1, 52, 100
4, 13439, Note_on_c, 1, 52, 0
4, 13440, Note_on_c, 1, 46, 100
4, 13679, Note_on_c, 1, 46, 0
4, 13680, Note_on_c, 1, 47, 100
4, 13799, Note_on_c, 1, 47, 0
4, 13800, Note_on_c, 1, 49, 100
4, 13919, Note_on_c, 1, 49, 0
4, 13920, Note_on_c, 1, 47, 100
4, 14159, Note_on_c, 1, 47, 0
4, 14160, Note_on_c, 1, 46, 100
4, 14399, Note_on_c, 1, 46, 0
4, 14400, Note_on_c, 1, 44, 100
4, 14639, Note_on_c, 1, 44, 0
4, 14640, Note_on_c, 1, 56, 100
4, 14879, Note_on_c, 1, 56, 0
4, 14880, Note_on_c, 1, 49, 100
4, 15119, Note_on_c, 1, 49, 0
4, 15120, Note_on_c, 1, 54, 100
4, 15599, Note_on_c, 1, 54, 0
4, 15600, Note_on_c, 1, 52, 100
4, 15719, Note_on_c, 1, 52, 0
4, 15720, Note_on_c, 1, 54, 100
4, 15839, Note_on_c, 1, 54, 0
4, 15840, Note_on_c, 1, 52, 100
4, 16079, Note_on_c, 1, 52, 0
4, 16080, Note_on_c, 1, 51, 100
4, 16319, Note_on_c, 1, 51, 0
4, 16320, Note_on_c, 1, 49, 100
4, 16559, Note_on_c, 1, 49, 0
4, 17520, Note_on_c, 1, 49, 100
4, 17639, Note_on_c, 1, 49, 0
4, 17640, Note_on_c, 1, 51, 100
4, 17759, Note_on_c, 1, 51, 0
4, 17760, Note_on_c, 1, 49, 100
4, 17999, Note_on_c, 1, 49, 0
4, 18000, Note_on_c, 1, 47, 100
4, 18239, Note_on_c, 1, 47, 0
4, 18240, Note_on_c, 1, 45, 100
4, 18479, Note_on_c, 1, 45, 0
4, 18480, Note_on_c, 1, 57, 100
4, 18719, Note_on_c, 1, 57, 0
4, 18720, Note_on_c, 1, 51, 100
4, 18959, Note_on_c, 1, 51, 0
4, 18960, Note_on_c, 1, 53, 100
4, 19199, Note_on_c, 1, 53, 0
4, 19200, Note_on_c, 1, 54, 80
4, 19919, Note_on_c, 1, 54, 0
4, 19920, Note_on_c, 1, 56, 100
4, 20159, Note_on_c, 1, 56, 0
4, 20160, Note_on_c, 1, 57, 100
4, 20399, Note_on_c, 1, 57, 0
4, 20400, Note_on_c, 1, 56, 100
4, 20519, Note_on_c, 1, 56, 0
4, 20520, Note_on_c, 1, 54, 100
4, 20639, Note_on_c, 1, 54, 0
4, 20640, Note_on_c, 1, 52, 100
4, 20759, Note_on_c, 1, 52, 0
4, 20760, Note_on_c, 1, 51, 100
4, 20879, Note_on_c, 1, 51, 0
4, 20880, Note_on_c, 1, 49, 100
4, 20999, Note_on_c, 1, 49, 0
4, 21000, Note_on_c, 1, 48, 100
4, 21119, Note_on_c, 1, 48, 0
4, 21120, Note_on_c, 1, 49, 100
4, 21359, Note_on_c, 1, 49, 0
4, 21840, Note_on_c, 1, 49, 100
4, 22079, Note_on_c, 1, 49, 0
4, 22080, Note_on_c, 1, 56, 100
4, 22319, Note_on_c, 1, 56, 0
4, 22320, Note_on_c, 1, 54, 100
4, 22559, Note_on_c, 1, 54, 0
4, 22560, Note_on_c, 1, 52, 100
4, 22799, Note_on_c, 1, 52, 0
4, 22800, Note_on_c, 1, 57, 100
4, 23039, Note_on_c, 1, 57, 0
4, 23040, Note_on_c, 1, 56, 100
4, 23159, Note_on_c, 1, 56, 0
4, 23160, Note_on_c, 1, 54, 100
4, 23279, Note_on_c, 1, 54, 0
4, 23280, Note_on_c, 1, 52, 100
4, 23519, Note_on_c, 1, 52, 0
4, 23520, Note_on_c, 1, 54, 100
4, 23759, Note_on_c, 1, 54, 0
4, 23760, Note_on_c, 1, 56, 100
4, 24119, Note_on_c, 1, 56, 0
4, 24120, Note_on_c, 1, 55, 100
4, 24239, Note_on_c, 1, 55, 0
4, 24240, Note_on_c, 1, 56, 100
4, 24359, Note_on_c, 1, 56, 0
4, 24360, Note_on_c, 1, 55, 100
4, 24479, Note_on_c, 1, 55, 0
4, 24480, Note_on_c, 1, 56, 100
4, 24719, Note_on_c, 1, 56, 0
4, 24720, Note_on_c, 1, 44, 100
4, 24959, Note_on_c, 1, 44, 0
4, 24960, Note_on_c, 1, 49, 100
4, 25435, Note_on_c, 1, 49, 0
4, 28080, Note_on_c, 1, 56, 100
4, 28555, Note_on_c, 1, 56, 0
4, 28560, Note_on_c, 1, 55, 100
4, 28799, Note_on_c, 1, 55, 0
4, 28800, Note_on_c, 1, 54, 100
4, 29039, Note_on_c, 1, 54, 0
4, 29040, Note_on_c, 1, 53, 100
4, 29279, Note_on_c, 1, 53, 0
4, 29280, Note_on_c, 1, 52, 100
4, 29519, Note_on_c, 1, 52, 0
4, 29520, Note_on_c, 1, 51, 100
4, 29759, Note_on_c, 1, 51, 0
4, 29760, Note_on_c, 1, 49, 100
4, 30235, Note_on_c, 1, 49, 0
4, 32880, Note_on_c, 1, 44, 100
4, 33119, Note_on_c, 1, 44, 0
4, 33120, Note_on_c, 1, 45, 100
4, 33359, Note_on_c, 1, 45, 0
4, 33360, Note_on_c, 1, 46, 100
4, 33599, Note_on_c, 1, 46, 0
4, 33600, Note_on_c, 1, 47, 100
4, 33839, Note_on_c, 1, 47, 0
4, 33840, Note_on_c, 1, 48, 100
4, 34079, Note_on_c, 1, 48, 0
4, 34080, Note_on_c, 1, 49, 100
4, 34319, Note_on_c, 1, 49, 0
4, 34320, Note_on_c, 1, 50, 100
4, 34559, Note_on_c, 1, 50, 0
4, 34560, Note_on_c, 1, 51, 100
4, 35035, Note_on_c, 1, 51, 0
4, 35040, Note_on_c, 1, 52, 100
4, 35515, Note_on_c, 1, 52, 0
4, 35520, Note_on_c, 1, 51, 100
4, 35759, Note_on_c, 1, 51, 0
4, 35880, Note_on_c, 1, 51, 100
4, 35999, Note_on_c, 1, 51, 0
4, 36000, Note_on_c, 1, 53, 100
4, 36119, Note_on_c, 1, 53, 0
4, 36120, Note_on_c, 1, 51, 100
4, 36239, Note_on_c, 1, 51, 0
4, 36240, Note_on_c, 1, 53, 100
4, 36359, Note_on_c, 1, 53, 0
4, 36360, Note_on_c, 1, 55, 100
4, 36479, Note_on_c, 1, 55, 0
4, 36480, Note_on_c, 1, 56, 100
4, 36719, Note_on_c, 1, 56, 0
4, 37680, Note_on_c, 1, 49, 100
4, 37919, Note_on_c, 1, 49, 0
4, 37920, Note_on_c, 1, 48, 100
4, 38159, Note_on_c, 1, 48, 0
4, 38160, Note_on_c, 1, 47, 100
4, 38399, Note_on_c, 1, 47, 0
4, 38400, Note_on_c, 1, 46, 100
4, 38639, Note_on_c, 1, 46, 0
4, 38640, Note_on_c, 1, 51, 100
4, 39115, Note_on_c, 1, 51, 0
4, 39120, Note_on_c, 1, 49, 100
4, 39359, Note_on_c, 1, 49, 0
4, 39360, Note_on_c, 1, 47, 100
4, 39599, Note_on_c, 1, 47, 0
4, 39720, Note_on_c, 1, 47, 100
4, 39839, Note_on_c, 1, 47, 0
4, 39840, Note_on_c, 1, 49, 100
4, 39959, Note_on_c, 1, 49, 0
4, 39960, Note_on_c, 1, 47, 100
4, 40079, Note_on_c, 1, 47, 0
4, 40080, Note_on_c, 1, 49, 100
4, 40199, Note_on_c, 1, 49, 0
4, 40200, Note_on_c, 1, 51, 100
4, 40319, Note_on_c, 1, 51, 0
4, 40320, Note_on_c, 1, 52, 100
4, 40439, Note_on_c, 1, 52, 0
4, 40440, Note_on_c, 1, 51, 100
4, 40559, Note_on_c, 1, 51, 0
4, 40560, Note_on_c, 1, 52, 100
4, 40679, Note_on_c, 1, 52, 0
4, 40680, Note_on_c, 1, 54, 100
4, 40799, Note_on_c, 1, 54, 0
4, 40800, Note_on_c, 1, 56, 100
4, 41039, Note_on_c, 1, 56, 0
4, 41040, Note_on_c, 1, 44, 100
4, 41279, Note_on_c, 1, 44, 0
4, 41280, Note_on_c, 1, 45, 100
4, 41519, Note_on_c, 1, 45, 0
4, 41520, Note_on_c, 1, 40, 100
4, 41759, Note_on_c, 1, 40, 0
4, 41760, Note_on_c, 1, 47, 100
4, 41999, Note_on_c, 1, 47, 0
4, 42000, Note_on_c, 1, 48, 100
4, 42239, Note_on_c, 1, 48, 0
4, 42240, Note_on_c, 1, 49, 100
4, 42479, Note_on_c, 1, 49, 0
4, 42480, Note_on_c, 1, 44, 100
4, 42719, Note_on_c, 1, 44, 0
4, 42720, Note_on_c, 1, 51, 100
4, 43195, Note_on_c, 1, 51, 0
4, 43200, Note_on_c, 1, 52, 100
4, 43439, Note_on_c, 1, 52, 0
4, 43440, Note_on_c, 1, 51, 100
4, 43679, Note_on_c, 1, 51, 0
4, 43680, Note_on_c, 1, 49, 100
4, 43799, Note_on_c, 1, 49, 0
4, 43800, Note_on_c, 1, 51, 100
4, 43919, Note_on_c, 1, 51, 0
4, 43920, Note_on_c, 1, 49, 100
4, 44159, Note_on_c, 1, 49, 0
4, 44160, Note_on_c, 1, 56, 100
4, 44635, Note_on_c, 1, 56, 0
4, 45000, Note_on_c, 1, 56, 100
4, 45119, Note_on_c, 1, 56, 0
4, 45120, Note_on_c, 1, 54, 100
4, 45239, Note_on_c, 1, 54, 0
4, 45240, Note_on_c, 1, 56, 100
4, 45359, Note_on_c, 1, 56, 0
4, 45360, Note_on_c, 1, 54, 100
4, 45479, Note_on_c, 1, 54, 0
4, 45480, Note_on_c, 1, 52, 100
4, 45599, Note_on_c, 1, 52, 0
4, 45600, Note_on_c, 1, 51, 100
4, 45719, Note_on_c, 1, 51, 0
4, 45720, Note_on_c, 1, 49, 100
4, 45839, Note_on_c, 1, 49, 0
4, 45840, Note_on_c, 1, 47, 100
4, 46079, Note_on_c, 1, 47, 0
4, 46080, Note_on_c, 1, 49, 100
4, 46319, Note_on_c, 1, 49, 0
4, 46320, Note_on_c, 1, 51, 100
4, 46559, Note_on_c, 1, 51, 0
4, 46560, Note_on_c, 1, 52, 100
4, 46799, Note_on_c, 1, 52, 0
4, 46920, Note_on_c, 1, 49, 100
4, 47039, Note_on_c, 1, 49, 0
4, 47040, Note_on_c, 1, 51, 100
4, 47279, Note_on_c, 1, 51, 0
4, 47280, Note_on_c, 1, 53, 100
4, 47519, Note_on_c, 1, 53, 0
4, 47520, Note_on_c, 1, 54, 100
4, 47759, Note_on_c, 1, 54, 0
4, 47880, Note_on_c, 1, 51, 100
4, 47999, Note_on_c, 1, 51, 0
4, 48000, Note_on_c, 1, 53, 100
4, 48239, Note_on_c, 1, 53, 0
4, 48240, Note_on_c, 1, 55, 100
4, 48479, Note_on_c, 1, 55, 0
4, 48480, Note_on_c, 1, 56, 100
4, 48719, Note_on_c, 1, 56, 0
4, 48840, Note_on_c, 1, 54, 100
4, 48959, Note_on_c, 1, 54, 0
4, 48960, Note_on_c, 1, 52, 100
4, 49079, Note_on_c, 1, 52, 0
4, 49080, Note_on_c, 1, 54, 100
4, 49199, Note_on_c, 1, 54, 0
4, 49200, Note_on_c, 1, 52, 100
4, 49319, Note_on_c, 1, 52, 0
4, 49320, Note_on_c, 1, 51, 100
4, 49439, Note_on_c, 1, 51, 0
4, 49440, Note_on_c, 1, 49, 100
4, 49559, Note_on_c, 1, 49, 0
4, 49560, Note_on_c, 1, 44, 100
4, 49679, Note_on_c, 1, 44, 0
4, 49680, Note_on_c, 1, 49, 100
4, 49799, Note_on_c, 1, 49, 0
4, 49800, Note_on_c, 1, 47, 100
4, 49919, Note_on_c, 1, 47, 0
4, 49920, Note_on_c, 1, 45, 100
4, 50039, Note_on_c, 1, 45, 0
4, 50040, Note_on_c, 1, 47, 100
4, 50159, Note_on_c, 1, 47, 0
4, 50160, Note_on_c, 1, 45, 100
4, 50279, Note_on_c, 1, 45, 0
4, 50280, Note_on_c, 1, 44, 100
4, 50399, Note_on_c, 1, 44, 0
4, 50400, Note_on_c, 1, 42, 100
4, 50519, Note_on_c, 1, 42, 0
4, 50520, Note_on_c, 1, 49, 100
4, 50639, Note_on_c, 1, 49, 0
4, 50640, Note_on_c, 1, 54, 100
4, 51119, Note_on_c, 1, 54, 0
4, 51120, Note_on_c, 1, 53, 100
4, 51359, Note_on_c, 1, 53, 0
4, 51360, Note_on_c, 1, 52, 100
4, 51599, Note_on_c, 1, 52, 0
4, 51600, Note_on_c, 1, 51, 100
4, 51839, Note_on_c, 1, 51, 0
4, 52080, Note_on_c, 1, 49, 100
4, 52319, Note_on_c, 1, 49, 0
4, 52320, Note_on_c, 1, 48, 100
4, 52559, Note_on_c, 1, 48, 0
4, 52560, Note_on_c, 1, 47, 100
4, 52799, Note_on_c, 1, 47, 0
4, 52800, Note_on_c, 1, 46, 100
4, 53039, Note_on_c, 1, 46, 0
4, 53040, Note_on_c, 1, 45, 100
4, 53279, Note_on_c, 1, 45, 0
4, 53280, Note_on_c, 1, 44, 100
4, 53519, Note_on_c, 1, 44, 0
4, 53520, Note_on_c, 1, 43, 100
4, 53759, Note_on_c, 1, 43, 0
4, 53760, Note_on_c, 1, 44, 80
4, 54239, Note_on_c, 1, 44, 0
4, 54480, Note_on_c, 1, 48, 80
4, 54719, Note_on_c, 1, 48, 0
4, 54720, Note_on_c, 1, 49, 80
4, 55199, Note_on_c, 1, 49, 0
4, 55440, Note_on_c, 1, 44, 80
4, 55679, Note_on_c, 1, 44, 0
4, 55680, Note_on_c, 1, 45, 100
4, 55799, Note_on_c, 1, 45, 0
4, 55800, Note_on_c, 1, 44, 100
4, 55919, Note_on_c, 1, 44, 0
4, 55920, Note_on_c, 1, 42, 100
4, 56395, Note_on_c, 1, 42, 0
4, 56400, Note_on_c, 1, 41, 100
4, 56639, Note_on_c, 1, 41, 0
4, 56640, Note_on_c, 1, 40, 100
4, 56879, Note_on_c, 1, 40, 0
4, 56880, Note_on_c, 1, 39, 100
4, 57119, Note_on_c, 1, 39, 0
4, 57120, Note_on_c, 1, 38, 100
4, 57359, Note_on_c, 1, 38, 0
4, 57360, Note_on_c, 1, 37, 100
4, 57599, Note_on_c, 1, 37, 0
4, 57600, Note_on_c, 1, 35, 100
4, 57839, Note_on_c, 1, 35, 0
4, 57960, Note_on_c, 1, 47, 100
4, 58079, Note_on_c, 1, 47, 0
4, 58080, Note_on_c, 1, 49, 100
4, 58199, Note_on_c, 1, 49, 0
4, 58200, Note_on_c, 1, 47, 100
4, 58319, Note_on_c, 1, 47, 0
4, 58320, Note_on_c, 1, 49, 100
4, 58439, Note_on_c, 1, 49, 0
4, 58440, Note_on_c, 1, 51, 100
4, 58559, Note_on_c, 1, 51, 0
4, 58560, Note_on_c, 1, 52, 100
4, 58679, Note_on_c, 1, 52, 0
4, 58680, Note_on_c, 1, 47, 100
4, 58799, Note_on_c, 1, 47, 0
4, 58800, Note_on_c, 1, 52, 100
4, 59275, Note_on_c, 1, 52, 0
4, 59280, Note_on_c, 1, 51, 100
4, 59519, Note_on_c, 1, 51, 0
4, 59520, Note_on_c, 1, 49, 100
4, 59759, Note_on_c, 1, 49, 0
4, 60720, Note_on_c, 1, 57, 100
4, 60959, Note_on_c, 1, 57, 0
4, 60960, Note_on_c, 1, 56, 100
4, 61199, Note_on_c, 1, 56, 0
4, 61200, Note_on_c, 1, 55, 100
4, 61439, Note_on_c, 1, 55, 0
4, 61440, Note_on_c, 1, 54, 100
4, 61675, Note_on_c, 1, 54, 0
4, 62760, Note_on_c, 1, 51, 100
4, 62879, Note_on_c, 1, 51, 0
4, 62880, Note_on_c, 1, 53, 100
4, 62999, Note_on_c, 1, 53, 0
4, 63000, Note_on_c, 1, 51, 100
4, 63119, Note_on_c, 1, 51, 0
4, 63120, Note_on_c, 1, 53, 100
4, 63239, Note_on_c, 1, 53, 0
4, 63240, Note_on_c, 1, 55, 100
4, 63359, Note_on_c, 1, 55, 0
4, 63360, Note_on_c, 1, 56, 100
4, 63479, Note_on_c, 1, 56, 0
4, 63480, Note_on_c, 1, 51, 100
4, 63599, Note_on_c, 1, 51, 0
4, 63600, Note_on_c, 1, 56, 100
4, 63959, Note_on_c, 1, 56, 0
4, 63960, Note_on_c, 1, 55, 100
4, 64079, Note_on_c, 1, 55, 0
4, 64080, Note_on_c, 1, 56, 100
4, 64319, Note_on_c, 1, 56, 0
4, 64320, Note_on_c, 1, 55, 100
4, 64559, Note_on_c, 1, 55, 0
4, 64560, Note_on_c, 1, 59, 100
4, 64799, Note_on_c, 1, 59, 0
4, 64800, Note_on_c, 1, 53, 100
4, 65039, Note_on_c, 1, 53, 0
4, 65040, Note_on_c, 1, 52, 100
4, 65279, Note_on_c, 1, 52, 0
4, 65280, Note_on_c, 1, 51, 100
4, 65519, Note_on_c, 1, 51, 0
4, 65520, Note_on_c, 1, 56, 100
4, 65759, Note_on_c, 1, 56, 0
4, 65760, Note_on_c, 1, 49, 100
4, 66235, Note_on_c, 1, 49, 0
4, 66240, Note_on_c, 1, 47, 100
4, 66479, Note_on_c, 1, 47, 0
4, 66480, Note_on_c, 1, 49, 100
4, 66719, Note_on_c, 1, 49, 0
4, 66720, Note_on_c, 1, 51, 100
4, 66839, Note_on_c, 1, 51, 0
4, 66840, Note_on_c, 1, 49, 100
4, 66959, Note_on_c, 1, 49, 0
4, 66960, Note_on_c, 1, 51, 100
4, 67199, Note_on_c, 1, 51, 0
4, 67200, Note_on_c, 1, 44, 100
4, 67439, Note_on_c, 1, 44, 0
4, 67920, Note_on_c, 1, 55, 100
4, 68159, Note_on_c, 1, 55, 0
4, 68160, Note_on_c, 1, 56, 100
4, 68635, Note_on_c, 1, 56, 0
4, 68880, Note_on_c, 1, 48, 100
4, 69119, Note_on_c, 1, 48, 0
4, 69120, Note_on_c, 1, 49, 100
4, 69595, Note_on_c, 1, 49, 0
4, 69840, Note_on_c, 1, 51, 100
4, 70079, Note_on_c, 1, 51, 0
4, 70080, Note_on_c, 1, 52, 100
4, 70555, Note_on_c, 1, 52, 0
4, 70800, Note_on_c, 1, 46, 100
4, 71039, Note_on_c, 1, 46, 0
4, 71040, Note_on_c, 1, 47, 100
4, 71159, Note_on_c, 1, 47, 0
4, 71160, Note_on_c, 1, 46, 100
4, 71279, Note_on_c, 1, 46, 0
4, 71280, Note_on_c, 1, 47, 100
4, 71399, Note_on_c, 1, 47, 0
4, 71400, Note_on_c, 1, 49, 100
4, 71519, Note_on_c, 1, 49, 0
4, 71520, Note_on_c, 1, 51, 100
4, 71639, Note_on_c, 1, 51, 0
4, 71640, Note_on_c, 1, 39, 100
4, 71759, Note_on_c, 1, 39, 0
4, 71760, Note_on_c, 1, 51, 100
4, 71999, Note_on_c, 1, 51, 0
4, 72000, Note_on_c, 1, 52, 100
4, 72239, Note_on_c, 1, 52, 0
4, 72240, Note_on_c, 1, 53, 100
4, 72479, Note_on_c, 1, 53, 0
4, 72480, Note_on_c, 1, 54, 100
4, 72719, Note_on_c, 1, 54, 0
4, 72720, Note_on_c, 1, 48, 100
4, 72959, Note_on_c, 1, 48, 0
4, 72960, Note_on_c, 1, 49, 100
4, 73199, Note_on_c, 1, 49, 0
4, 74160, Note_on_c, 1, 49, 100
4, 74399, Note_on_c, 1, 49, 0
4, 74400, Note_on_c, 1, 50, 100
4, 74639, Note_on_c, 1, 50, 0
4, 74640, Note_on_c, 1, 51, 100
4, 74879, Note_on_c, 1, 51, 0
4, 74880, Note_on_c, 1, 52, 100
4, 75119, Note_on_c, 1, 52, 0
4, 75120, Note_on_c, 1, 57, 100
4, 75359, Note_on_c, 1, 57, 0
4, 75360, Note_on_c, 1, 56, 100
4, 75599, Note_on_c, 1, 56, 0
4, 75600, Note_on_c, 1, 54, 100
4, 75839, Note_on_c, 1, 54, 0
4, 75840, Note_on_c, 1, 61, 100
4, 76079, Note_on_c, 1, 61, 0
4, 76080, Note_on_c, 1, 49, 100
4, 76319, Note_on_c, 1, 49, 0
4, 76320, Note_on_c, 1, 44, 100
4, 76559, Note_on_c, 1, 44, 0
4, 76560, Note_on_c, 1, 46, 100
4, 76799, Note_on_c, 1, 46, 0
4, 77040, Note_on_c, 1, 47, 100
4, 77279, Note_on_c, 1, 47, 0
4, 77280, Note_on_c, 1, 49, 100
4, 77519, Note_on_c, 1, 49, 0
4, 77520, Note_on_c, 1, 51, 100
4, 77759, Note_on_c, 1, 51, 0
4, 78000, Note_on_c, 1, 52, 100
4, 78239, Note_on_c, 1, 52, 0
4, 78240, Note_on_c, 1, 51, 100
4, 78479, Note_on_c, 1, 51, 0
4, 78480, Note_on_c, 1, 49, 100
4, 78719, Note_on_c, 1, 49, 0
4, 78960, Note_on_c, 1, 48, 100
4, 79079, Note_on_c, 1, 48, 0
4, 79080, Note_on_c, 1, 44, 100
4, 79199, Note_on_c, 1, 44, 0
4, 79200, Note_on_c, 1, 46, 100
4, 79439, Note_on_c, 1, 46, 0
4, 79440, Note_on_c, 1, 48, 100
4, 79679, Note_on_c, 1, 48, 0
4, 79680, Note_on_c, 1, 49, 100
4, 79919, Note_on_c, 1, 49, 0
4, 79920, Note_on_c, 1, 44, 100
4, 80159, Note_on_c, 1, 44, 0
4, 80160, Note_on_c, 1, 45, 100
4, 80399, Note_on_c, 1, 45, 0
4, 80400, Note_on_c, 1, 42, 100
4, 80639, Note_on_c, 1, 42, 0
4, 80640, Note_on_c, 1, 44, 100
4, 80879, Note_on_c, 1, 44, 0
4, 80880, Note_on_c, 1, 49, 100
4, 81119, Note_on_c, 1, 49, 0
4, 81120, Note_on_c, 1, 42, 100
4, 82079, Note_on_c, 1, 42, 0
4, 82080, Note_on_c, 1, 44, 100
4, 82799, Note_on_c, 1, 44, 0
4, 82800, Note_on_c, 1, 46, 100
4, 82919, Note_on_c, 1, 46, 0
4, 82920, Note_on_c, 1, 48, 100
4, 83039, Note_on_c, 1, 48, 0
4, 83040, Note_on_c, 1, 49, 100
4, 83279, Note_on_c, 1, 49, 0
4, 83280, Note_on_c, 1, 45, 100
4, 83519, Note_on_c, 1, 45, 0
4, 83520, Note_on_c, 1, 52, 100
4, 83759, Note_on_c, 1, 52, 0
4, 83760, Note_on_c, 1, 44, 100
4, 83879, Note_on_c, 1, 44, 0
4, 83880, Note_on_c, 1, 45, 100
4, 83999, Note_on_c, 1, 45, 0
4, 84000, Note_on_c, 1, 47, 100
4, 84239, Note_on_c, 1, 47, 0
4, 84240, Note_on_c, 1, 35, 100
4, 84479, Note_on_c, 1, 35, 0
4, 84480, Note_on_c, 1, 40, 100
4, 84955, Note_on_c, 1, 40, 0
4, 84960, Note_on_c, 1, 44, 100
4, 85435, Note_on_c, 1, 44, 0
4, 85440, Note_on_c, 1, 45, 100
4, 85679, Note_on_c, 1, 45, 0
4, 85680, Note_on_c, 1, 40, 100
4, 85919, Note_on_c, 1, 40, 0
4, 85920, Note_on_c, 1, 47, 100
4, 86159, Note_on_c, 1, 47, 0
4, 86160, Note_on_c, 1, 48, 100
4, 86399, Note_on_c, 1, 48, 0
4, 86400, Note_on_c, 1, 49, 100
4, 86639, Note_on_c, 1, 49, 0
4, 86640, Note_on_c, 1, 44, 100
4, 86879, Note_on_c, 1, 44, 0
4, 86880, Note_on_c, 1, 51, 100
4, 87355, Note_on_c, 1, 51, 0
4, 87360, Note_on_c, 1, 52, 100
4, 87599, Note_on_c, 1, 52, 0
4, 87600, Note_on_c, 1, 51, 100
4, 87839, Note_on_c, 1, 51, 0
4, 87840, Note_on_c, 1, 49, 100
4, 87959, Note_on_c, 1, 49, 0
4, 87960, Note_on_c, 1, 51, 100
4, 88079, Note_on_c, 1, 51, 0
4, 88080, Note_on_c, 1, 49, 100
4, 88319, Note_on_c, 1, 49, 0
4, 88320, Note_on_c, 1, 56, 100
4, 88439, Note_on_c, 1, 56, 0
4, 88440, Note_on_c, 1, 51, 100
4, 88559, Note_on_c, 1, 51, 0
4, 88560, Note_on_c, 1, 56, 100
4, 89035, Note_on_c, 1, 56, 0
4, 89040, Note_on_c, 1, 54, 100
4, 89279, Note_on_c, 1, 54, 0
4, 89280, Note_on_c, 1, 52, 100
4, 89519, Note_on_c, 1, 52, 0
4, 89520, Note_on_c, 1, 54, 100
4, 89639, Note_on_c, 1, 54, 0
4, 89640, Note_on_c, 1, 52, 80
4, 89759, Note_on_c, 1, 52, 0
4, 89760, Note_on_c, 1, 51, 100
4, 89879, Note_on_c, 1, 51, 0
4, 89880, Note_on_c, 1, 49, 100
4, 89999, Note_on_c, 1, 49, 0
4, 90000, Note_on_c, 1, 51, 100
4, 90239, Note_on_c, 1, 51, 0
4, 90240, Note_on_c, 1, 44, 100
4, 90479, Note_on_c, 1, 44, 0
4, 90480, Note_on_c, 1, 56, 100
4, 90955, Note_on_c, 1, 56, 0
4, 90960, Note_on_c, 1, 55, 100
4, 91199, Note_on_c, 1, 55, 0
4, 91200, Note_on_c, 1, 56, 100
4, 91675, Note_on_c, 1, 56, 0
4, 91920, Note_on_c, 1, 50, 100
4, 92159, Note_on_c, 1, 50, 0
4, 92160, Note_on_c, 1, 51, 100
4, 92635, Note_on_c, 1, 51, 0
4, 92640, Note_on_c, 1, 56, 100
4, 92879, Note_on_c, 1, 56, 0
4, 92880, Note_on_c, 1, 58, 100
4, 93119, Note_on_c, 1, 58, 0
4, 93120, Note_on_c, 1, 59, 100
4, 93359, Note_on_c, 1, 59, 0
4, 93360, Note_on_c, 1, 51, 100
4, 93599, Note_on_c, 1, 51, 0
4, 93600, Note_on_c, 1, 53, 100
4, 93839, Note_on_c, 1, 53, 0
4, 93840, Note_on_c, 1, 55, 100
4, 94079, Note_on_c, 1, 55, 0
4, 94080, Note_on_c, 1, 56, 100
4, 95279, Note_on_c, 1, 56, 0
4, 95280, Note_on_c, 1, 56, 100
4, 95639, Note_on_c, 1, 56, 0
4, 95640, Note_on_c, 1, 53, 100
4, 95759, Note_on_c, 1, 53, 0
4, 95760, Note_on_c, 1, 54, 100
4, 95845, Note_on_c, 1, 54, 0
4, 95880, Note_on_c, 1, 54, 100
4, 95965, Note_on_c, 1, 54, 0
4, 96000, Note_on_c, 1, 54, 100
4, 96119, Note_on_c, 1, 54, 0
4, 96120, Note_on_c, 1, 51, 100
4, 96239, Note_on_c, 1, 51, 0
4, 96240, Note_on_c, 1, 52, 100
4, 96325, Note_on_c, 1, 52, 0
4, 96360, Note_on_c, 1, 52, 100
4, 96445, Note_on_c, 1, 52, 0
4, 96480, Note_on_c, 1, 52, 100
4, 96599, Note_on_c, 1, 52, 0
4, 96600, Note_on_c, 1, 49, 100
4, 96719, Note_on_c, 1, 49, 0
4, 96720, Note_on_c, 1, 51, 100
4, 96805, Note_on_c, 1, 51, 0
4, 96840, Note_on_c, 1, 51, 100
4, 96925, Note_on_c, 1, 51, 0
4, 96960, Note_on_c, 1, 51, 100
4, 97079, Note_on_c, 1, 51, 0
4, 97080, Note_on_c, 1, 48, 100
4, 97199, Note_on_c, 1, 48, 0
4, 97200, Note_on_c, 1, 49, 100
4, 97319, Note_on_c, 1, 49, 0
4, 97320, Note_on_c, 1, 51, 100
4, 97439, Note_on_c, 1, 51, 0
4, 97440, Note_on_c, 1, 52, 100
4, 97559, Note_on_c, 1, 52, 0
4, 97560, Note_on_c, 1, 51, 100
4, 97679, Note_on_c, 1, 51, 0
4, 97680, Note_on_c, 1, 52, 100
4, 97799, Note_on_c, 1, 52, 0
4, 97800, Note_on_c, 1, 54, 100
4, 97919, Note_on_c, 1, 54, 0
4, 97920, Note_on_c, 1, 48, 100
4, 98155, Note_on_c, 1, 48, 0
4, 98640, Note_on_c, 1, 45, 100
4, 98999, Note_on_c, 1, 45, 0
4, 99000, Note_on_c, 1, 43, 100
4, 99119, Note_on_c, 1, 43, 0
4, 99120, Note_on_c, 1, 44, 100
4, 99205, Note_on_c, 1, 44, 0
4, 99240, Note_on_c, 1, 44, 100
4, 99325, Note_on_c, 1, 44, 0
4, 99360, Note_on_c, 1, 44, 100
4, 99479, Note_on_c, 1, 44, 0
4, 99480, Note_on_c, 1, 40, 100
4, 99599, Note_on_c, 1, 40, 0
4, 99600, Note_on_c, 1, 42, 100
4, 99685, Note_on_c, 1, 42, 0
4, 99720, Note_on_c, 1, 42, 100
4, 99805, Note_on_c, 1, 42, 0
4, 99840, Note_on_c, 1, 42, 100
4, 99959, Note_on_c, 1, 42, 0
4, 99960, Note_on_c, 1, 39, 100
4, 100079, Note_on_c, 1, 39, 0
4, 100080, Note_on_c, 1, 41, 100
4, 100165, Note_on_c, 1, 41, 0
4, 100200, Note_on_c, 1, 41, 100
4, 100285, Note_on_c, 1, 41, 0
4, 100320, Note_on_c, 1, 42, 100
4, 100559, Note_on_c, 1, 42, 0
4, 100560, Note_on_c, 1, 39, 100
4, 100799, Note_on_c, 1, 39, 0
4, 100800, Note_on_c, 1, 44, 100
4, 101039, Note_on_c, 1, 44, 0
4, 101040, Note_on_c, 1, 56, 100
4, 101279, Note_on_c, 1, 56, 0
4, 101280, Note_on_c, 1, 55, 100
4, 101519, Note_on_c, 1, 55, 0
4, 101520, Note_on_c, 1, 54, 100
4, 101759, Note_on_c, 1, 54, 0
4, 101760, Note_on_c, 1, 53, 100
4, 101999, Note_on_c, 1, 53, 0
4, 102000, Note_on_c, 1, 52, 100
4, 102239, Note_on_c, 1, 52, 0
4, 102240, Note_on_c, 1, 51, 100
4, 102479, Note_on_c, 1, 51, 0
4, 102480, Note_on_c, 1, 50, 100
4, 102719, Note_on_c, 1, 50, 0
4, 102720, Note_on_c, 1, 49, 100
4, 102959, Note_on_c, 1, 49, 0
4, 102960, Note_on_c, 1, 48, 100
4, 103199, Note_on_c, 1, 48, 0
4, 103200, Note_on_c, 1, 47, 100
4, 103439, Note_on_c, 1, 47, 0
4, 103440, Note_on_c, 1, 52, 100
4, 103679, Note_on_c, 1, 52, 0
4, 103680, Note_on_c, 1, 45, 100
4, 104155, Note_on_c, 1, 45, 0
4, 106320, Note_on_c, 1, 42, 100
4, 106679, Note_on_c, 1, 42, 0
4, 106680, Note_on_c, 1, 39, 100
4, 106799, Note_on_c, 1, 39, 0
4, 106800, Note_on_c, 1, 40, 100
4, 106885, Note_on_c, 1, 40, 0
4, 106920, Note_on_c, 1, 40, 100
4, 107005, Note_on_c, 1, 40, 0
4, 107040, Note_on_c, 1, 40, 100
4, 107159, Note_on_c, 1, 40, 0
4, 107160, Note_on_c, 1, 37, 100
4, 107279, Note_on_c, 1, 37, 0
4, 107280, Note_on_c, 1, 38, 100
4, 107365, Note_on_c, 1, 38, 0
4, 107400, Note_on_c, 1, 38, 100
4, 107485, Note_on_c, 1, 38, 0
4, 107520, Note_on_c, 1, 38, 100
4, 107639, Note_on_c, 1, 38, 0
4, 107640, Note_on_c, 1, 35, 100
4, 107759, Note_on_c, 1, 35, 0
4, 107760, Note_on_c, 1, 37, 100
4, 107879, Note_on_c, 1, 37, 0
4, 107880, Note_on_c, 1, 38, 100
4, 107999, Note_on_c, 1, 38, 0
4, 108000, Note_on_c, 1, 40, 100
4, 108119, Note_on_c, 1, 40, 0
4, 108120, Note_on_c, 1, 38, 100
4, 108239, Note_on_c, 1, 38, 0
4, 108240, Note_on_c, 1, 40, 100
4, 108479, Note_on_c, 1, 40, 0
4, 108480, Note_on_c, 1, 45, 100
4, 108719, Note_on_c, 1, 45, 0
4, 108720, Note_on_c, 1, 49, 100
4, 108959, Note_on_c, 1, 49, 0
4, 108960, Note_on_c, 1, 50, 100
4, 109435, Note_on_c, 1, 50, 0
4, 109440, Note_on_c, 1, 49, 100
4, 109679, Note_on_c, 1, 49, 0
4, 109680, Note_on_c, 1, 53, 100
4, 109919, Note_on_c, 1, 53, 0
4, 109920, Note_on_c, 1, 54, 100
4, 110159, Note_on_c, 1, 54, 0
4, 110160, Note_on_c, 1, 55, 100
4, 110399, Note_on_c, 1, 55, 0
4, 110400, Note_on_c, 1, 56, 100
4, 110639, Note_on_c, 1, 56, 0
4, 110760, Note_on_c, 1, 56, 100
4, 110879, Note_on_c, 1, 56, 0
4, 110880, Note_on_c, 1, 57, 100
4, 111119, Note_on_c, 1, 57, 0
4, 111120, Note_on_c, 1, 58, 100
4, 111359, Note_on_c, 1, 58, 0
4, 111360, Note_on_c, 1, 59, 100
4, 111599, Note_on_c, 1, 59, 0
4, 111600, Note_on_c, 1, 60, 100
4, 111839, Note_on_c, 1, 60, 0
4, 111840, Note_on_c, 1, 61, 100
4, 112079, Note_on_c, 1, 61, 0
4, 112080, Note_on_c, 1, 49, 100
4, 112319, Note_on_c, 1, 49, 0
4, 112320, Note_on_c, 1, 54, 100
4, 112559, Note_on_c, 1, 54, 0
4, 112560, Note_on_c, 1, 47, 100
4, 112799, Note_on_c, 1, 47, 0
4, 112800, Note_on_c, 1, 52, 100
4, 113039, Note_on_c, 1, 52, 0
4, 113040, Note_on_c, 1, 46, 100
4, 113279, Note_on_c, 1, 46, 0
4, 113280, Note_on_c, 1, 51, 100
4, 113519, Note_on_c, 1, 51, 0
4, 113640, Note_on_c, 1, 51, 100
4, 113759, Note_on_c, 1, 51, 0
4, 113760, Note_on_c, 1, 50, 100
4, 113999, Note_on_c, 1, 50, 0
4, 114000, Note_on_c, 1, 49, 100
4, 114239, Note_on_c, 1, 49, 0
4, 114240, Note_on_c, 1, 48, 100
4, 114479, Note_on_c, 1, 48, 0
4, 114480, Note_on_c, 1, 47, 100
4, 114719, Note_on_c, 1, 47, 0
4, 114720, Note_on_c, 1, 46, 100
4, 114839, Note_on_c, 1, 46, 0
4, 114840, Note_on_c, 1, 44, 100
4, 114959, Note_on_c, 1, 44, 0
4, 114960, Note_on_c, 1, 46, 100
4, 115199, Note_on_c, 1, 46, 0
4, 115200, Note_on_c, 1, 39, 80
4, 115679, Note_on_c, 1, 39, 0
4, 116400, Note_on_c, 1, 51, 100
4, 116639, Note_on_c, 1, 51, 0
4, 116640, Note_on_c, 1, 52, 100
4, 116879, Note_on_c, 1, 52, 0
4, 116880, Note_on_c, 1, 53, 100
4, 117119, Note_on_c, 1, 53, 0
4, 117120, Note_on_c, 1, 54, 100
4, 117359, Note_on_c, 1, 54, 0
4, 117360, Note_on_c, 1, 55, 100
4, 117599, Note_on_c, 1, 55, 0
4, 117600, Note_on_c, 1, 56, 100
4, 117839, Note_on_c, 1, 56, 0
4, 118320, Note_on_c, 1, 56, 100
4, 118559, Note_on_c, 1, 56, 0
4, 118560, Note_on_c, 1, 57, 100
4, 118799, Note_on_c, 1, 57, 0
4, 118800, Note_on_c, 1, 58, 100
4, 119039, Note_on_c, 1, 58, 0
4, 119040, Note_on_c, 1, 59, 100
4, 119279, Note_on_c, 1, 59, 0
4, 119280, Note_on_c, 1, 60, 100
4, 119519, Note_on_c, 1, 60, 0
4, 119520, Note_on_c, 1, 61, 100
4, 120239, Note_on_c, 1, 61, 0
4, 120240, Note_on_c, 1, 61, 100
4, 120325, Note_on_c, 1, 61, 0
4, 120360, Note_on_c, 1, 61, 100
4, 120445, Note_on_c, 1, 61, 0
4, 120480, Note_on_c, 1, 61, 100
4, 120599, Note_on_c, 1, 61, 0
4, 120600, Note_on_c, 1, 58, 100
4, 120719, Note_on_c, 1, 58, 0
4, 120720, Note_on_c, 1, 59, 100
4, 120805, Note_on_c, 1, 59, 0
4, 120840, Note_on_c, 1, 59, 100
4, 120925, Note_on_c, 1, 59, 0
4, 120960, Note_on_c, 1, 59, 100
4, 121079, Note_on_c, 1, 59, 0
4, 121080, Note_on_c, 1, 56, 100
4, 121199, Note_on_c, 1, 56, 0
4, 121200, Note_on_c, 1, 58, 100
4, 121285, Note_on_c, 1, 58, 0
4, 121320, Note_on_c, 1, 58, 100
4, 121405, Note_on_c, 1, 58, 0
4, 121440, Note_on_c, 1, 58, 100
4, 121559, Note_on_c, 1, 58, 0
4, 121560, Note_on_c, 1, 55, 100
4, 121679, Note_on_c, 1, 55, 0
4, 121680, Note_on_c, 1, 56, 100
4, 121765, Note_on_c, 1, 56, 0
4, 121800, Note_on_c, 1, 56, 100
4, 121885, Note_on_c, 1, 56, 0
4, 121920, Note_on_c, 1, 55, 100
4, 122159, Note_on_c, 1, 55, 0
4, 122160, Note_on_c, 1, 56, 100
4, 122399, Note_on_c, 1, 56, 0
4, 122400, Note_on_c, 1, 49, 100
4, 122639, Note_on_c, 1, 49, 0
4, 122640, Note_on_c, 1, 51, 100
4, 122879, Note_on_c, 1, 51, 0
4, 122880, Note_on_c, 1, 44, 100
4, 124079, Note_on_c, 1, 44, 0
4, 124080, Note_on_c, 1, 56, 100
4, 124195, Note_on_c, 1, 56, 0
4, 124200, Note_on_c, 1, 56, 80
4, 124319, Note_on_c, 1, 56, 0
4, 124320, Note_on_c, 1, 56, 100
4, 124439, Note_on_c, 1, 56, 0
4, 124440, Note_on_c, 1, 52, 100
4, 124559, Note_on_c, 1, 52, 0
4, 124560, Note_on_c, 1, 54, 100
4, 124645, Note_on_c, 1, 54, 0
4, 124680, Note_on_c, 1, 54, 100
4, 124765, Note_on_c, 1, 54, 0
4, 124800, Note_on_c, 1, 54, 100
4, 124919, Note_on_c, 1, 54, 0
4, 124920, Note_on_c, 1, 51, 100
4, 125039, Note_on_c, 1, 51, 0
4, 125040, Note_on_c, 1, 52, 100
4, 125125, Note_on_c, 1, 52, 0
4, 125160, Note_on_c, 1, 52, 100
4, 125245, Note_on_c, 1, 52, 0
4, 125280, Note_on_c, 1, 52, 100
4, 125399, Note_on_c, 1, 52, 0
4, 125400, Note_on_c, 1, 49, 100
4, 125519, Note_on_c, 1, 49, 0
4, 125520, Note_on_c, 1, 51, 100
4, 125605, Note_on_c, 1, 51, 0
4, 125640, Note_on_c, 1, 51, 100
4, 125725, Note_on_c, 1, 51, 0
4, 125760, Note_on_c, 1, 51, 100
4, 125879, Note_on_c, 1, 51, 0
4, 125880, Note_on_c, 1, 48, 100
4, 125999, Note_on_c, 1, 48, 0
4, 126000, Note_on_c, 1, 49, 100
4, 126239, Note_on_c, 1, 49, 0
4, 126240, Note_on_c, 1, 56, 100
4, 126479, Note_on_c, 1, 56, 0
4, 126480, Note_on_c, 1, 54, 100
4, 126719, Note_on_c, 1, 54, 0
4, 126960, Note_on_c, 1, 52, 100
4, 127199, Note_on_c, 1, 52, 0
4, 127200, Note_on_c, 1, 51, 100
4, 127439, Note_on_c, 1, 51, 0
4, 127440, Note_on_c, 1, 49, 100
4, 127679, Note_on_c, 1, 49, 0
4, 127920, Note_on_c, 1, 48, 100
4, 128159, Note_on_c, 1, 48, 0
4, 128160, Note_on_c, 1, 49, 100
4, 128399, Note_on_c, 1, 49, 0
4, 128400, Note_on_c, 1, 51, 100
4, 128639, Note_on_c, 1, 51, 0
4, 128880, Note_on_c, 1, 52, 100
4, 128999, Note_on_c, 1, 52, 0
4, 129000, Note_on_c, 1, 54, 100
4, 129119, Note_on_c, 1, 54, 0
4, 129120, Note_on_c, 1, 52, 100
4, 129359, Note_on_c, 1, 52, 0
4, 129360, Note_on_c, 1, 51, 100
4, 129599, Note_on_c, 1, 51, 0
4, 129600, Note_on_c, 1, 49, 100
4, 129719, Note_on_c, 1, 49, 0
4, 129720, Note_on_c, 1, 48, 100
4, 129839, Note_on_c, 1, 48, 0
4, 129840, Note_on_c, 1, 49, 100
4, 129959, Note_on_c, 1, 49, 0
4, 129960, Note_on_c, 1, 51, 100
4, 130079, Note_on_c, 1, 51, 0
4, 130080, Note_on_c, 1, 52, 100
4, 130319, Note_on_c, 1, 52, 0
4, 130320, Note_on_c, 1, 53, 100
4, 130559, Note_on_c, 1, 53, 0
4, 130560, Note_on_c, 1, 54, 100
4, 130799, Note_on_c, 1, 54, 0
4, 130800, Note_on_c, 1, 49, 100
4, 131039, Note_on_c, 1, 49, 0
4, 131040, Note_on_c, 1, 56, 100
4, 133679, Note_on_c, 1, 56, 0
4, 134640, Note_on_c, 1, 49, 100
4, 134999, Note_on_c, 1, 49, 0
4, 135000, Note_on_c, 1, 52, 100
4, 135119, Note_on_c, 1, 52, 0
4, 135120, Note_on_c, 1, 51, 100
4, 135205, Note_on_c, 1, 51, 0
4, 135240, Note_on_c, 1, 51, 100
4, 135325, Note_on_c, 1, 51, 0
4, 135360, Note_on_c, 1, 51, 100
4, 135479, Note_on_c, 1, 51, 0
4, 135480, Note_on_c, 1, 54, 100
4, 135599, Note_on_c, 1, 54, 0
4, 135600, Note_on_c, 1, 53, 100
4, 135685, Note_on_c, 1, 53, 0
4, 135720, Note_on_c, 1, 53, 100
4, 135805, Note_on_c, 1, 53, 0
4, 135840, Note_on_c, 1, 53, 100
4, 135959, Note_on_c, 1, 53, 0
4, 135960, Note_on_c, 1, 56, 100
4, 136079, Note_on_c, 1, 56, 0
4, 136080, Note_on_c, 1, 54, 100
4, 136165, Note_on_c, 1, 54, 0
4, 136200, Note_on_c, 1, 54, 100
4, 136285, Note_on_c, 1, 54, 0
4, 136320, Note_on_c, 1, 54, 100
4, 136439, Note_on_c, 1, 54, 0
4, 136440, Note_on_c, 1, 57, 100
4, 136559, Note_on_c, 1, 57, 0
4, 136560, Note_on_c, 1, 56, 100
4, 136645, Note_on_c, 1, 56, 0
4, 136680, Note_on_c, 1, 56, 100
4, 136765, Note_on_c, 1, 56, 0
4, 136800, Note_on_c, 1, 56, 100
4, 137399, Note_on_c, 1, 56, 0
4, 137400, Note_on_c, 1, 53, 100
4, 137519, Note_on_c, 1, 53, 0
4, 137520, Note_on_c, 1, 54, 100
4, 137605, Note_on_c, 1, 54, 0
4, 137640, Note_on_c, 1, 54, 100
4, 137725, Note_on_c, 1, 54, 0
4, 137760, Note_on_c, 1, 54, 100
4, 137879, Note_on_c, 1, 54, 0
4, 137880, Note_on_c, 1, 51, 100
4, 137999, Note_on_c, 1, 51, 0
4, 138000, Note_on_c, 1, 52, 100
4, 138085, Note_on_c, 1, 52, 0
4, 138120, Note_on_c, 1, 52, 100
4, 138205, Note_on_c, 1, 52, 0
4, 138240, Note_on_c, 1, 52, 100
4, 138359, Note_on_c, 1, 52, 0
4, 138360, Note_on_c, 1, 49, 100
4, 138479, Note_on_c, 1, 49, 0
4, 138480, Note_on_c, 1, 50, 100
4, 138599, Note_on_c, 1, 50, 0
4, 138600, Note_on_c, 1, 52, 100
4, 138719, Note_on_c, 1, 52, 0
4, 138720, Note_on_c, 1, 54, 100
4, 138959, Note_on_c, 1, 54, 0
4, 138960, Note_on_c, 1, 42, 100
4, 139199, Note_on_c, 1, 42, 0
4, 139200, Note_on_c, 1, 47, 100
4, 139675, Note_on_c, 1, 47, 0
4, 139920, Note_on_c, 1, 52, 100
4, 140159, Note_on_c, 1, 52, 0
4, 140160, Note_on_c, 1, 51, 100
4, 140635, Note_on_c, 1, 51, 0
4, 140640, Note_on_c, 1, 50, 100
4, 140879, Note_on_c, 1, 50, 0
4, 140880, Note_on_c, 1, 56, 100
4, 141119, Note_on_c, 1, 56, 0
4, 141120, Note_on_c, 1, 54, 100
4, 141359, Note_on_c, 1, 54, 0
4, 141360, Note_on_c, 1, 47, 100
4, 141835, Note_on_c, 1, 47, 0
4, 141840, Note_on_c, 1, 46, 100
4, 141959, Note_on_c, 1, 46, 0
4, 141960, Note_on_c, 1, 44, 100
4, 142079, Note_on_c, 1, 44, 0
4, 142080, Note_on_c, 1, 42, 100
4, 142319, Note_on_c, 1, 42, 0
4, 142320, Note_on_c, 1, 47, 100
4, 142559, Note_on_c, 1, 47, 0
4, 142560, Note_on_c, 1, 44, 100
4, 142799, Note_on_c, 1, 44, 0
4, 142800, Note_on_c, 1, 46, 100
4, 143039, Note_on_c, 1, 46, 0
4, 143040, Note_on_c, 1, 43, 100
4, 143279, Note_on_c, 1, 43, 0
4, 143280, Note_on_c, 1, 44, 100
4, 143519, Note_on_c, 1, 44, 0
4, 143520, Note_on_c, 1, 39, 100
4, 143759, Note_on_c, 1, 39, 0
4, 144720, Note_on_c, 1, 56, 100
4, 145079, Note_on_c, 1, 56, 0
4, 145080, Note_on_c, 1, 53, 100
4, 145199, Note_on_c, 1, 53, 0
4, 145200, Note_on_c, 1, 54, 100
4, 145285, Note_on_c, 1, 54, 0
4, 145320, Note_on_c, 1, 54, 100
4, 145405, Note_on_c, 1, 54, 0
4, 145440, Note_on_c, 1, 54, 100
4, 145559, Note_on_c, 1, 54, 0
4, 145560, Note_on_c, 1, 51, 100
4, 145679, Note_on_c, 1, 51, 0
4, 145680, Note_on_c, 1, 53, 100
4, 145919, Note_on_c, 1, 53, 0
4, 145920, Note_on_c, 1, 54, 100
4, 146159, Note_on_c, 1, 54, 0
4, 146160, Note_on_c, 1, 48, 100
4, 146399, Note_on_c, 1, 48, 0
4, 146640, Note_on_c, 1, 49, 100
4, 146879, Note_on_c, 1, 49, 0
4, 146880, Note_on_c, 1, 54, 100
4, 147119, Note_on_c, 1, 54, 0
4, 147120, Note_on_c, 1, 57, 100
4, 147359, Note_on_c, 1, 57, 0
4, 147600, Note_on_c, 1, 53, 100
4, 147839, Note_on_c, 1, 53, 0
4, 147840, Note_on_c, 1, 52, 100
4, 148079, Note_on_c, 1, 52, 0
4, 148080, Note_on_c, 1, 51, 100
4, 148319, Note_on_c, 1, 51, 0
4, 148560, Note_on_c, 1, 50, 100
4, 148799, Note_on_c, 1, 50, 0
4, 148800, Note_on_c, 1, 49, 100
4, 149039, Note_on_c, 1, 49, 0
4, 149040, Note_on_c, 1, 48, 100
4, 149279, Note_on_c, 1, 48, 0
4, 149520, Note_on_c, 1, 47, 100
4, 149759, Note_on_c, 1, 47, 0
4, 149760, Note_on_c, 1, 46, 100
4, 149999, Note_on_c, 1, 46, 0
4, 150000, Note_on_c, 1, 45, 100
4, 150475, Note_on_c, 1, 45, 0
4, 150480, Note_on_c, 1, 44, 100
4, 150599, Note_on_c, 1, 44, 0
4, 150600, Note_on_c, 1, 43, 100
4, 150719, Note_on_c, 1, 43, 0
4, 150720, Note_on_c, 1, 44, 100
4, 150959, Note_on_c, 1, 44, 0
4, 151080, Note_on_c, 1, 54, 100
4, 151199, Note_on_c, 1, 54, 0
4, 151200, Note_on_c, 1, 52, 100
4, 151319, Note_on_c, 1, 52, 0
4, 151320, Note_on_c, 1, 51, 100
4, 151439, Note_on_c, 1, 51, 0
4, 151440, Note_on_c, 1, 49, 100
4, 151559, Note_on_c, 1, 49, 0
4, 151560, Note_on_c, 1, 48, 100
4, 151679, Note_on_c, 1, 48, 0
4, 151680, Note_on_c, 1, 49, 100
4, 151919, Note_on_c, 1, 49, 0
4, 152040, Note_on_c, 1, 49, 100
4, 152159, Note_on_c, 1, 49, 0
4, 152160, Note_on_c, 1, 51, 100
4, 152399, Note_on_c, 1, 51, 0
4, 152400, Note_on_c, 1, 53, 100
4, 152639, Note_on_c, 1, 53, 0
4, 152640, Note_on_c, 1, 54, 100
4, 152759, Note_on_c, 1, 54, 0
4, 152760, Note_on_c, 1, 52, 100
4, 152879, Note_on_c, 1, 52, 0
4, 152880, Note_on_c, 1, 51, 100
4, 152999, Note_on_c, 1, 51, 0
4, 153000, Note_on_c, 1, 54, 100
4, 153119, Note_on_c, 1, 54, 0
4, 153120, Note_on_c, 1, 52, 100
4, 153719, Note_on_c, 1, 52, 0
4, 153720, Note_on_c, 1, 52, 100
4, 153839, Note_on_c, 1, 52, 0
4, 153840, Note_on_c, 1, 57, 100
4, 154199, Note_on_c, 1, 57, 0
4, 154200, Note_on_c, 1, 56, 100
4, 154319, Note_on_c, 1, 56, 0
4, 154320, Note_on_c, 1, 54, 100
4, 154559, Note_on_c, 1, 54, 0
4, 154560, Note_on_c, 1, 53, 100
4, 154799, Note_on_c, 1, 53, 0
4, 154920, Note_on_c, 1, 49, 100
4, 155039, Note_on_c, 1, 49, 0
4, 155040, Note_on_c, 1, 50, 100
4, 155279, Note_on_c, 1, 50, 0
4, 155280, Note_on_c, 1, 51, 100
4, 155519, Note_on_c, 1, 51, 0
4, 155520, Note_on_c, 1, 52, 100
4, 155759, Note_on_c, 1, 52, 0
4, 155880, Note_on_c, 1, 47, 100
4, 155999, Note_on_c, 1, 47, 0
4, 156000, Note_on_c, 1, 48, 100
4, 156239, Note_on_c, 1, 48, 0
4, 156240, Note_on_c, 1, 49, 100
4, 156479, Note_on_c, 1, 49, 0
4, 156480, Note_on_c, 1, 50, 100
4, 156719, Note_on_c, 1, 50, 0
4, 156720, Note_on_c, 1, 57, 100
4, 156959, Note_on_c, 1, 57, 0
4, 156960, Note_on_c, 1, 51, 100
4, 157199, Note_on_c, 1, 51, 0
4, 157200, Note_on_c, 1, 53, 100
4, 157439, Note_on_c, 1, 53, 0
4, 157680, Note_on_c, 1, 54, 100
4, 157919, Note_on_c, 1, 54, 0
4, 157920, Note_on_c, 1, 56, 100
4, 158159, Note_on_c, 1, 56, 0
4, 158160, Note_on_c, 1, 58, 100
4, 158399, Note_on_c, 1, 58, 0
4, 158640, Note_on_c, 1, 59, 100
4, 158879, Note_on_c, 1, 59, 0
4, 158880, Note_on_c, 1, 57, 100
4, 159119, Note_on_c, 1, 57, 0
4, 159120, Note_on_c, 1, 56, 100
4, 159359, Note_on_c, 1, 56, 0
4, 159600, Note_on_c, 1, 54, 100
4, 159719, Note_on_c, 1, 54, 0
4, 159720, Note_on_c, 1, 53, 100
4, 159839, Note_on_c, 1, 53, 0
4, 159840, Note_on_c, 1, 54, 100
4, 160079, Note_on_c, 1, 54, 0
4, 160080, Note_on_c, 1, 56, 100
4, 160319, Note_on_c, 1, 56, 0
4, 160320, Note_on_c, 1, 58, 100
4, 160559, Note_on_c, 1, 58, 0
4, 160560, Note_on_c, 1, 46, 100
4, 160799, Note_on_c, 1, 46, 0
4, 160800, Note_on_c, 1, 47, 100
4, 161039, Note_on_c, 1, 47, 0
4, 161040, Note_on_c, 1, 48, 100
4, 161279, Note_on_c, 1, 48, 0
4, 161280, Note_on_c, 1, 49, 100
4, 161755, Note_on_c, 1, 49, 0
4, 162000, Note_on_c, 1, 57, 100
4, 162359, Note_on_c, 1, 57, 0
4, 162360, Note_on_c, 1, 54, 100
4, 162479, Note_on_c, 1, 54, 0
4, 162480, Note_on_c, 1, 56, 100
4, 162565, Note_on_c, 1, 56, 0
4, 162600, Note_on_c, 1, 56, 100
4, 162685, Note_on_c, 1, 56, 0
4, 162720, Note_on_c, 1, 56, 100
4, 162839, Note_on_c, 1, 56, 0
4, 162840, Note_on_c, 1, 52, 100
4, 162959, Note_on_c, 1, 52, 0
4, 162960, Note_on_c, 1, 54, 100
4, 163045, Note_on_c, 1, 54, 0
4, 163080, Note_on_c, 1, 54, 100
4, 163165, Note_on_c, 1, 54, 0
4, 163200, Note_on_c, 1, 54, 100
4, 163319, Note_on_c, 1, 54, 0
4, 163320, Note_on_c, 1, 51, 100
4, 163439, Note_on_c, 1, 51, 0
4, 163440, Note_on_c, 1, 52, 100
4, 163525, Note_on_c, 1, 52, 0
4, 163560, Note_on_c, 1, 52, 100
4, 163645, Note_on_c, 1, 52, 0
4, 163680, Note_on_c, 1, 52, 100
4, 163799, Note_on_c, 1, 52, 0
4, 163800, Note_on_c, 1, 49, 100
4, 163919, Note_on_c, 1, 49, 0
4, 163920, Note_on_c, 1, 51, 100
4, 164005, Note_on_c, 1, 51, 0
4, 164040, Note_on_c, 1, 51, 100
4, 164125, Note_on_c, 1, 51, 0
4, 164160, Note_on_c, 1, 51, 100
4, 164279, Note_on_c, 1, 51, 0
4, 164280, Note_on_c, 1, 48, 100
4, 164399, Note_on_c, 1, 48, 0
4, 164400, Note_on_c, 1, 49, 100
4, 164639, Note_on_c, 1, 49, 0
4, 164640, Note_on_c, 1, 42, 100
4, 164879, Note_on_c, 1, 42, 0
4, 164880, Note_on_c, 1, 54, 100
4, 165359, Note_on_c, 1, 54, 0
4, 165360, Note_on_c, 1, 56, 100
4, 165479, Note_on_c, 1, 56, 0
4, 165480, Note_on_c, 1, 54, 100
4, 165599, Note_on_c, 1, 54, 0
4, 165600, Note_on_c, 1, 52, 100
4, 165839, Note_on_c, 1, 52, 0
4, 165840, Note_on_c, 1, 57, 100
4, 166079, Note_on_c, 1, 57, 0
4, 166080, Note_on_c, 1, 56, 80
4, 166439, Note_on_c, 1, 56, 0
4, 166440, Note_on_c, 1, 54, 100
4, 166559, Note_on_c, 1, 54, 0
4, 166560, Note_on_c, 1, 56, 100
4, 166799, Note_on_c, 1, 56, 0
4, 166800, Note_on_c, 1, 44, 100
4, 167039, Note_on_c, 1, 44, 0
4, 167040, Note_on_c, 1, 45, 100
4, 167279, Note_on_c, 1, 45, 0
4, 167280, Note_on_c, 1, 40, 100
4, 167519, Note_on_c, 1, 40, 0
4, 167520, Note_on_c, 1, 47, 100
4, 167759, Note_on_c, 1, 47, 0
4, 167760, Note_on_c, 1, 48, 100
4, 167999, Note_on_c, 1, 48, 0
4, 168000, Note_on_c, 1, 49, 100
4, 168239, Note_on_c, 1, 49, 0
4, 168240, Note_on_c, 1, 44, 100
4, 168479, Note_on_c, 1, 44, 0
4, 168480, Note_on_c, 1, 51, 100
4, 168955, Note_on_c, 1, 51, 0
4, 168960, Note_on_c, 1, 52, 100
4, 169199, Note_on_c, 1, 52, 0
4, 169200, Note_on_c, 1, 51, 100
4, 169439, Note_on_c, 1, 51, 0
4, 169440, Note_on_c, 1, 49, 100
4, 169559, Note_on_c, 1, 49, 0
4, 169560, Note_on_c, 1, 51, 100
4, 169679, Note_on_c, 1, 51, 0
4, 169680, Note_on_c, 1, 49, 100
4, 169919, Note_on_c, 1, 49, 0
4, 169920, Note_on_c, 1, 56, 100
4, 170159, Note_on_c, 1, 56, 0
4, 170160, Note_on_c, 1, 57, 100
4, 170399, Note_on_c, 1, 57, 0
4, 170400, Note_on_c, 1, 56, 80
4, 170759, Note_on_c, 1, 56, 0
4, 170760, Note_on_c, 1, 54, 100
4, 170879, Note_on_c, 1, 54, 0
4, 170880, Note_on_c, 1, 53, 100
4, 171119, Note_on_c, 1, 53, 0
4, 171120, Note_on_c, 1, 52, 100
4, 171359, Note_on_c, 1, 52, 0
4, 171360, Note_on_c, 1, 51, 100
4, 171599, Note_on_c, 1, 51, 0
4, 171600, Note_on_c, 1, 50, 100
4, 171959, Note_on_c, 1, 50, 0
4, 171960, Note_on_c, 1, 49, 100
4, 172079, Note_on_c, 1, 49, 0
4, 172080, Note_on_c, 1, 52, 100
4, 172165, Note_on_c, 1, 52, 0
4, 172200, Note_on_c, 1, 52, 100
4, 172285, Note_on_c, 1, 52, 0
4, 172320, Note_on_c, 1, 52, 100
4, 172439, Note_on_c, 1, 52, 0
4, 172440, Note_on_c, 1, 51, 100
4, 172559, Note_on_c, 1, 51, 0
4, 172560, Note_on_c, 1, 54, 100
4, 172645, Note_on_c, 1, 54, 0
4, 172680, Note_on_c, 1, 54, 100
4, 172765, Note_on_c, 1, 54, 0
4, 172800, Note_on_c, 1, 54, 100
4, 172919, Note_on_c, 1, 54, 0
4, 172920, Note_on_c, 1, 52, 100
4, 173039, Note_on_c, 1, 52, 0
4, 173040, Note_on_c, 1, 56, 100
4, 173125, Note_on_c, 1, 56, 0
4, 173160, Note_on_c, 1, 56, 100
4, 173245, Note_on_c, 1, 56, 0
4, 173280, Note_on_c, 1, 56, 100
4, 173399, Note_on_c, 1, 56, 0
4, 173400, Note_on_c, 1, 54, 100
4, 173519, Note_on_c, 1, 54, 0
4, 173520, Note_on_c, 1, 57, 100
4, 173605, Note_on_c, 1, 57, 0
4, 173640, Note_on_c, 1, 57, 100
4, 173725, Note_on_c, 1, 57, 0
4, 173760, Note_on_c, 1, 56, 100
4, 174599, Note_on_c, 1, 56, 0
4, 174600, Note_on_c, 1, 55, 100
4, 174719, Note_on_c, 1, 55, 0
4, 174720, Note_on_c, 1, 56, 100
4, 175439, Note_on_c, 1, 56, 0
4, 175440, Note_on_c, 1, 44, 100
4, 175679, Note_on_c, 1, 44, 0
4, 175680, Note_on_c, 1, 49, 80
4, 176639, Note_on_c, 1, 49, 0
4, 176640, End_track
0, 0, End_of_file
