0, 0, Header, 1, 2, 480
1, 0, Start_track
1, 0, Unknown_meta_event, 8, 35, 71, 111, 108, 100, 98, 101, 114, 103, 32, 86, 97, 114, 105, 97, 116, 105, 111, 110, 115, 58, 32, 86, 97, 114, 105, 97, 116, 105, 111, 110, 32, 88, 88, 88, 0
1, 0, Unknown_meta_event, 9, 8, 66, 87, 86, 32, 57, 56, 56, 0
1, 0, Unknown_meta_event, 10, 11, 74, 46, 32, 83, 46, 32, 66, 97, 99, 104, 0
1, 0, Time_signature, 1, 3, 24, 8
1, 0, Key_signature, 1, "major"
1, 0, Program_c, 0, 46
1, 2, Control_c, 0, 7, 100
1, 4, Control_c, 0, 10, 64
1, 6, Control_c, 0, 91, 30
1, 8, Control_c, 0, 93, 30
1, 240, Time_signature, 4, 2, 24, 8
1, 1920, Note_on_c, 0, 62, 80
1, 2159, Note_on_c, 0, 62, 0
1, 2160, Note_on_c, 0, 67, 80
1, 2400, Note_on_c, 0, 69, 64
1, 2630, Note_on_c, 0, 69, 0
1, 2639, Note_on_c, 0, 67, 0
1, 2640, Note_on_c, 0, 67, 80
1, 2640, Note_on_c, 0, 71, 64
1, 2870, Note_on_c, 0, 71, 0
1, 2880, Note_on_c, 0, 72, 64
1, 3110, Note_on_c, 0, 72, 0
1, 3119, Note_on_c, 0, 67, 0
1, 3120, Note_on_c, 0, 69, 80
1, 3120, Note_on_c, 0, 74, 64
1, 3350, Note_on_c, 0, 74, 0
1, 3360, Note_on_c, 0, 72, 64
1, 3470, Note_on_c, 0, 72, 0
1, 3480, Note_on_c, 0, 71, 64
1, 3590, Note_on_c, 0, 71, 0
1, 3599, Note_on_c, 0, 69, 0
1, 3600, Note_on_c, 0, 69, 80
1, 4079, Note_on_c, 0, 69, 0
1, 4080, Note_on_c, 0, 67, 80
1, 4080, Note_on_c, 0, 74, 64
1, 4319, Note_on_c, 0, 67, 0
1, 4320, Note_on_c, 0, 69, 80
1, 4550, Note_on_c, 0, 74, 0
1, 4559, Note_on_c, 0, 69, 0
1, 4560, Note_on_c, 0, 67, 80
1, 4560, Note_on_c, 0, 74, 64
1, 4799, Note_on_c, 0, 67, 0
1, 4800, Note_on_c, 0, 65, 80
1, 5030, Note_on_c, 0, 74, 0
1, 5039, Note_on_c, 0, 65, 0
1, 5040, Note_on_c, 0, 64, 80
1, 5040, Note_on_c, 0, 76, 64
1, 5279, Note_on_c, 0, 64, 0
1, 5280, Note_on_c, 0, 62, 80
1, 5510, Note_on_c, 0, 76, 0
1, 5519, Note_on_c, 0, 62, 0
1, 5520, Note_on_c, 0, 60, 80
1, 5520, Note_on_c, 0, 76, 64
1, 5759, Note_on_c, 0, 60, 0
1, 5760, Note_on_c, 0, 71, 80
1, 5990, Note_on_c, 0, 76, 0
1, 5999, Note_on_c, 0, 71, 0
1, 6000, Note_on_c, 0, 69, 80
1, 6000, Note_on_c, 0, 74, 64
1, 6230, Note_on_c, 0, 74, 0
1, 6239, Note_on_c, 0, 69, 0
1, 6240, Note_on_c, 0, 67, 80
1, 6240, Note_on_c, 0, 76, 64
1, 6470, Note_on_c, 0, 76, 0
1, 6479, Note_on_c, 0, 67, 0
1, 6480, Note_on_c, 0, 69, 80
1, 6480, Note_on_c, 0, 74, 64
1, 6710, Note_on_c, 0, 74, 0
1, 6719, Note_on_c, 0, 69, 0
1, 6720, Note_on_c, 0, 66, 80
1, 6720, Note_on_c, 0, 72, 64
1, 6950, Note_on_c, 0, 72, 0
1, 6959, Note_on_c, 0, 66, 0
1, 6960, Note_on_c, 0, 67, 80
1, 6960, Note_on_c, 0, 72, 64
1, 7019, Note_on_c, 0, 72, 0
1, 7040, Note_on_c, 0, 71, 64
1, 7080, Note_on_c, 0, 72, 64
1, 7096, Note_on_c, 0, 71, 0
1, 7116, Note_on_c, 0, 72, 0
1, 7120, Note_on_c, 0, 71, 64
1, 7179, Note_on_c, 0, 71, 0
1, 7200, Note_on_c, 0, 69, 80
1, 7439, Note_on_c, 0, 67, 0
1, 7439, Note_on_c, 0, 69, 0
1, 7440, Note_on_c, 0, 67, 64
1, 7680, Note_on_c, 0, 64, 80
1, 7910, Note_on_c, 0, 67, 0
1, 7919, Note_on_c, 0, 64, 0
1, 7920, Note_on_c, 0, 67, 80
1, 8159, Note_on_c, 0, 67, 0
1, 8160, Note_on_c, 0, 69, 80
1, 8399, Note_on_c, 0, 69, 0
1, 8400, Note_on_c, 0, 71, 80
1, 8639, Note_on_c, 0, 71, 0
1, 8640, Note_on_c, 0, 72, 80
1, 8879, Note_on_c, 0, 72, 0
1, 8880, Note_on_c, 0, 74, 80
1, 9119, Note_on_c, 0, 74, 0
1, 9120, Note_on_c, 0, 72, 80
1, 9239, Note_on_c, 0, 72, 0
1, 9240, Note_on_c, 0, 71, 80
1, 9359, Note_on_c, 0, 71, 0
1, 9360, Note_on_c, 0, 69, 80
1, 9599, Note_on_c, 0, 69, 0
1, 9600, Note_on_c, 0, 74, 80
1, 9839, Note_on_c, 0, 74, 0
1, 9840, Note_on_c, 0, 79, 64
1, 10070, Note_on_c, 0, 79, 0
1, 10080, Note_on_c, 0, 72, 80
1, 10080, Note_on_c, 0, 78, 64
1, 10310, Note_on_c, 0, 78, 0
1, 10319, Note_on_c, 0, 72, 0
1, 10320, Note_on_c, 0, 71, 80
1, 10320, Note_on_c, 0, 76, 64
1, 10550, Note_on_c, 0, 76, 0
1, 10560, Note_on_c, 0, 74, 64
1, 10790, Note_on_c, 0, 74, 0
1, 10799, Note_on_c, 0, 71, 0
1, 10800, Note_on_c, 0, 69, 80
1, 10800, Note_on_c, 0, 74, 64
1, 10859, Note_on_c, 0, 74, 0
1, 10880, Note_on_c, 0, 73, 64
1, 10920, Note_on_c, 0, 74, 64
1, 10936, Note_on_c, 0, 73, 0
1, 10956, Note_on_c, 0, 74, 0
1, 10960, Note_on_c, 0, 73, 64
1, 11019, Note_on_c, 0, 73, 0
1, 11040, Note_on_c, 0, 71, 80
1, 11159, Note_on_c, 0, 71, 0
1, 11160, Note_on_c, 0, 73, 64
1, 11270, Note_on_c, 0, 73, 0
1, 11280, Note_on_c, 0, 69, 64
1, 11510, Note_on_c, 0, 69, 0
1, 11519, Note_on_c, 0, 69, 0
1, 11520, Note_on_c, 0, 71, 80
1, 11639, Note_on_c, 0, 71, 0
1, 11640, Note_on_c, 0, 73, 80
1, 11759, Note_on_c, 0, 73, 0
1, 11760, Note_on_c, 0, 74, 80
1, 11760, Note_on_c, 0, 81, 64
1, 11999, Note_on_c, 0, 74, 0
1, 12000, Note_on_c, 0, 76, 80
1, 12230, Note_on_c, 0, 81, 0
1, 12239, Note_on_c, 0, 76, 0
1, 12240, Note_on_c, 0, 78, 80
1, 12240, Note_on_c, 0, 81, 64
1, 12479, Note_on_c, 0, 78, 0
1, 12480, Note_on_c, 0, 74, 80
1, 12710, Note_on_c, 0, 81, 0
1, 12719, Note_on_c, 0, 74, 0
1, 12720, Note_on_c, 0, 71, 80
1, 12720, Note_on_c, 0, 83, 64
1, 12959, Note_on_c, 0, 71, 0
1, 12960, Note_on_c, 0, 74, 80
1, 13190, Note_on_c, 0, 83, 0
1, 13199, Note_on_c, 0, 74, 0
1, 13200, Note_on_c, 0, 79, 80
1, 13200, Note_on_c, 0, 83, 64
1, 13439, Note_on_c, 0, 79, 0
1, 13440, Note_on_c, 0, 78, 80
1, 13670, Note_on_c, 0, 83, 0
1, 13679, Note_on_c, 0, 78, 0
1, 13680, Note_on_c, 0, 76, 80
1, 13680, Note_on_c, 0, 81, 64
1, 13910, Note_on_c, 0, 81, 0
1, 13920, Note_on_c, 0, 83, 64
1, 14039, Note_on_c, 0, 76, 0
1, 14040, Note_on_c, 0, 74, 80
1, 14150, Note_on_c, 0, 83, 0
1, 14160, Note_on_c, 0, 81, 64
1, 14279, Note_on_c, 0, 74, 0
1, 14280, Note_on_c, 0, 73, 80
1, 14390, Note_on_c, 0, 81, 0
1, 14399, Note_on_c, 0, 73, 0
1, 14400, Note_on_c, 0, 69, 80
1, 14400, Note_on_c, 0, 76, 80
1, 14400, Note_on_c, 0, 79, 64
1, 14630, Note_on_c, 0, 79, 0
1, 14640, Note_on_c, 0, 78, 64
1, 14759, Note_on_c, 0, 76, 0
1, 14760, Note_on_c, 0, 74, 80
1, 14870, Note_on_c, 0, 78, 0
1, 14879, Note_on_c, 0, 69, 0
1, 14880, Note_on_c, 0, 67, 80
1, 14880, Note_on_c, 0, 76, 64
1, 14999, Note_on_c, 0, 74, 0
1, 15000, Note_on_c, 0, 73, 80
1, 15110, Note_on_c, 0, 76, 0
1, 15119, Note_on_c, 0, 67, 0
1, 15119, Note_on_c, 0, 73, 0
1, 15120, Note_on_c, 0, 66, 80
1, 15120, Note_on_c, 0, 74, 64
1, 15350, Note_on_c, 0, 74, 0
1, 15359, Note_on_c, 0, 66, 0
1, 17280, Note_on_c, 0, 62, 80
1, 17519, Note_on_c, 0, 62, 0
1, 17520, Note_on_c, 0, 67, 80
1, 17760, Note_on_c, 0, 69, 64
1, 17990, Note_on_c, 0, 69, 0
1, 17999, Note_on_c, 0, 67, 0
1, 18000, Note_on_c, 0, 67, 80
1, 18000, Note_on_c, 0, 71, 64
1, 18230, Note_on_c, 0, 71, 0
1, 18240, Note_on_c, 0, 72, 64
1, 18470, Note_on_c, 0, 72, 0
1, 18479, Note_on_c, 0, 67, 0
1, 18480, Note_on_c, 0, 69, 80
1, 18480, Note_on_c, 0, 74, 64
1, 18710, Note_on_c, 0, 74, 0
1, 18720, Note_on_c, 0, 72, 64
1, 18830, Note_on_c, 0, 72, 0
1, 18840, Note_on_c, 0, 71, 64
1, 18950, Note_on_c, 0, 71, 0
1, 18959, Note_on_c, 0, 69, 0
1, 18960, Note_on_c, 0, 69, 80
1, 19439, Note_on_c, 0, 69, 0
1, 19440, Note_on_c, 0, 67, 80
1, 19440, Note_on_c, 0, 74, 64
1, 19679, Note_on_c, 0, 67, 0
1, 19680, Note_on_c, 0, 69, 80
1, 19910, Note_on_c, 0, 74, 0
1, 19919, Note_on_c, 0, 69, 0
1, 19920, Note_on_c, 0, 67, 80
1, 19920, Note_on_c, 0, 74, 64
1, 20159, Note_on_c, 0, 67, 0
1, 20160, Note_on_c, 0, 65, 80
1, 20390, Note_on_c, 0, 74, 0
1, 20399, Note_on_c, 0, 65, 0
1, 20400, Note_on_c, 0, 64, 80
1, 20400, Note_on_c, 0, 76, 64
1, 20639, Note_on_c, 0, 64, 0
1, 20640, Note_on_c, 0, 62, 80
1, 20870, Note_on_c, 0, 76, 0
1, 20879, Note_on_c, 0, 62, 0
1, 20880, Note_on_c, 0, 60, 80
1, 20880, Note_on_c, 0, 76, 64
1, 21119, Note_on_c, 0, 60, 0
1, 21120, Note_on_c, 0, 71, 80
1, 21350, Note_on_c, 0, 76, 0
1, 21359, Note_on_c, 0, 71, 0
1, 21360, Note_on_c, 0, 69, 80
1, 21360, Note_on_c, 0, 74, 64
1, 21590, Note_on_c, 0, 74, 0
1, 21599, Note_on_c, 0, 69, 0
1, 21600, Note_on_c, 0, 67, 80
1, 21600, Note_on_c, 0, 76, 64
1, 21830, Note_on_c, 0, 76, 0
1, 21839, Note_on_c, 0, 67, 0
1, 21840, Note_on_c, 0, 69, 80
1, 21840, Note_on_c, 0, 74, 64
1, 22070, Note_on_c, 0, 74, 0
1, 22079, Note_on_c, 0, 69, 0
1, 22080, Note_on_c, 0, 66, 80
1, 22080, Note_on_c, 0, 72, 64
1, 22310, Note_on_c, 0, 72, 0
1, 22319, Note_on_c, 0, 66, 0
1, 22320, Note_on_c, 0, 67, 80
1, 22320, Note_on_c, 0, 72, 64
1, 22379, Note_on_c, 0, 72, 0
1, 22400, Note_on_c, 0, 71, 64
1, 22440, Note_on_c, 0, 72, 64
1, 22456, Note_on_c, 0, 71, 0
1, 22476, Note_on_c, 0, 72, 0
1, 22480, Note_on_c, 0, 71, 64
1, 22539, Note_on_c, 0, 71, 0
1, 22560, Note_on_c, 0, 69, 80
1, 22799, Note_on_c, 0, 67, 0
1, 22799, Note_on_c, 0, 69, 0
1, 22800, Note_on_c, 0, 67, 64
1, 23040, Note_on_c, 0, 64, 80
1, 23270, Note_on_c, 0, 67, 0
1, 23279, Note_on_c, 0, 64, 0
1, 23280, Note_on_c, 0, 67, 80
1, 23519, Note_on_c, 0, 67, 0
1, 23520, Note_on_c, 0, 69, 80
1, 23759, Note_on_c, 0, 69, 0
1, 23760, Note_on_c, 0, 71, 80
1, 23999, Note_on_c, 0, 71, 0
1, 24000, Note_on_c, 0, 72, 80
1, 24239, Note_on_c, 0, 72, 0
1, 24240, Note_on_c, 0, 74, 80
1, 24479, Note_on_c, 0, 74, 0
1, 24480, Note_on_c, 0, 72, 80
1, 24599, Note_on_c, 0, 72, 0
1, 24600, Note_on_c, 0, 71, 80
1, 24719, Note_on_c, 0, 71, 0
1, 24720, Note_on_c, 0, 69, 80
1, 24959, Note_on_c, 0, 69, 0
1, 24960, Note_on_c, 0, 74, 80
1, 25199, Note_on_c, 0, 74, 0
1, 25200, Note_on_c, 0, 79, 64
1, 25430, Note_on_c, 0, 79, 0
1, 25440, Note_on_c, 0, 72, 80
1, 25440, Note_on_c, 0, 78, 64
1, 25670, Note_on_c, 0, 78, 0
1, 25679, Note_on_c, 0, 72, 0
1, 25680, Note_on_c, 0, 71, 80
1, 25680, Note_on_c, 0, 76, 64
1, 25910, Note_on_c, 0, 76, 0
1, 25920, Note_on_c, 0, 74, 64
1, 26150, Note_on_c, 0, 74, 0
1, 26159, Note_on_c, 0, 71, 0
1, 26160, Note_on_c, 0, 69, 80
1, 26160, Note_on_c, 0, 74, 64
1, 26219, Note_on_c, 0, 74, 0
1, 26240, Note_on_c, 0, 73, 64
1, 26280, Note_on_c, 0, 74, 64
1, 26296, Note_on_c, 0, 73, 0
1, 26316, Note_on_c, 0, 74, 0
1, 26320, Note_on_c, 0, 73, 64
1, 26379, Note_on_c, 0, 73, 0
1, 26400, Note_on_c, 0, 71, 80
1, 26519, Note_on_c, 0, 71, 0
1, 26520, Note_on_c, 0, 73, 64
1, 26630, Note_on_c, 0, 73, 0
1, 26640, Note_on_c, 0, 69, 64
1, 26870, Note_on_c, 0, 69, 0
1, 26879, Note_on_c, 0, 69, 0
1, 26880, Note_on_c, 0, 71, 80
1, 26999, Note_on_c, 0, 71, 0
1, 27000, Note_on_c, 0, 73, 80
1, 27119, Note_on_c, 0, 73, 0
1, 27120, Note_on_c, 0, 74, 80
1, 27120, Note_on_c, 0, 81, 64
1, 27359, Note_on_c, 0, 74, 0
1, 27360, Note_on_c, 0, 76, 80
1, 27590, Note_on_c, 0, 81, 0
1, 27599, Note_on_c, 0, 76, 0
1, 27600, Note_on_c, 0, 78, 80
1, 27600, Note_on_c, 0, 81, 64
1, 27839, Note_on_c, 0, 78, 0
1, 27840, Note_on_c, 0, 74, 80
1, 28070, Note_on_c, 0, 81, 0
1, 28079, Note_on_c, 0, 74, 0
1, 28080, Note_on_c, 0, 71, 80
1, 28080, Note_on_c, 0, 83, 64
1, 28319, Note_on_c, 0, 71, 0
1, 28320, Note_on_c, 0, 74, 80
1, 28550, Note_on_c, 0, 83, 0
1, 28559, Note_on_c, 0, 74, 0
1, 28560, Note_on_c, 0, 79, 80
1, 28560, Note_on_c, 0, 83, 64
1, 28799, Note_on_c, 0, 79, 0
1, 28800, Note_on_c, 0, 78, 80
1, 29030, Note_on_c, 0, 83, 0
1, 29039, Note_on_c, 0, 78, 0
1, 29040, Note_on_c, 0, 76, 80
1, 29040, Note_on_c, 0, 81, 64
1, 29270, Note_on_c, 0, 81, 0
1, 29280, Note_on_c, 0, 83, 64
1, 29399, Note_on_c, 0, 76, 0
1, 29400, Note_on_c, 0, 74, 80
1, 29510, Note_on_c, 0, 83, 0
1, 29520, Note_on_c, 0, 81, 64
1, 29639, Note_on_c, 0, 74, 0
1, 29640, Note_on_c, 0, 73, 80
1, 29750, Note_on_c, 0, 81, 0
1, 29759, Note_on_c, 0, 73, 0
1, 29760, Note_on_c, 0, 69, 80
1, 29760, Note_on_c, 0, 76, 80
1, 29760, Note_on_c, 0, 79, 64
1, 29990, Note_on_c, 0, 79, 0
1, 30000, Note_on_c, 0, 78, 64
1, 30119, Note_on_c, 0, 76, 0
1, 30120, Note_on_c, 0, 74, 80
1, 30230, Note_on_c, 0, 78, 0
1, 30239, Note_on_c, 0, 69, 0
1, 30240, Note_on_c, 0, 67, 80
1, 30240, Note_on_c, 0, 76, 64
1, 30359, Note_on_c, 0, 74, 0
1, 30360, Note_on_c, 0, 73, 80
1, 30470, Note_on_c, 0, 76, 0
1, 30479, Note_on_c, 0, 67, 0
1, 30479, Note_on_c, 0, 73, 0
1, 30480, Note_on_c, 0, 66, 80
1, 30480, Note_on_c, 0, 74, 64
1, 30710, Note_on_c, 0, 74, 0
1, 30719, Note_on_c, 0, 66, 0
1, 30720, Note_on_c, 0, 81, 80
1, 30959, Note_on_c, 0, 81, 0
1, 30960, Note_on_c, 0, 69, 80
1, 30960, Note_on_c, 0, 78, 64
1, 31190, Note_on_c, 0, 78, 0
1, 31200, Note_on_c, 0, 81, 64
1, 31430, Note_on_c, 0, 81, 0
1, 31439, Note_on_c, 0, 69, 0
1, 31440, Note_on_c, 0, 69, 80
1, 31440, Note_on_c, 0, 78, 64
1, 31670, Note_on_c, 0, 78, 0
1, 31680, Note_on_c, 0, 81, 64
1, 31910, Note_on_c, 0, 81, 0
1, 31919, Note_on_c, 0, 69, 0
1, 31920, Note_on_c, 0, 71, 80
1, 31920, Note_on_c, 0, 74, 64
1, 32150, Note_on_c, 0, 74, 0
1, 32160, Note_on_c, 0, 76, 64
1, 32270, Note_on_c, 0, 76, 0
1, 32280, Note_on_c, 0, 78, 64
1, 32390, Note_on_c, 0, 78, 0
1, 32399, Note_on_c, 0, 71, 0
1, 32400, Note_on_c, 0, 71, 80
1, 32400, Note_on_c, 0, 79, 64
1, 32630, Note_on_c, 0, 79, 0
1, 32640, Note_on_c, 0, 76, 64
1, 32870, Note_on_c, 0, 76, 0
1, 32879, Note_on_c, 0, 71, 0
1, 32880, Note_on_c, 0, 69, 80
1, 32880, Note_on_c, 0, 81, 64
1, 33110, Note_on_c, 0, 81, 0
1, 33119, Note_on_c, 0, 69, 0
1, 33120, Note_on_c, 0, 71, 80
1, 33120, Note_on_c, 0, 79, 64
1, 33350, Note_on_c, 0, 79, 0
1, 33359, Note_on_c, 0, 71, 0
1, 33360, Note_on_c, 0, 69, 80
1, 33360, Note_on_c, 0, 78, 64
1, 33590, Note_on_c, 0, 78, 0
1, 33599, Note_on_c, 0, 69, 0
1, 33600, Note_on_c, 0, 67, 80
1, 33600, Note_on_c, 0, 76, 64
1, 33830, Note_on_c, 0, 76, 0
1, 33839, Note_on_c, 0, 67, 0
1, 33840, Note_on_c, 0, 66, 80
1, 33840, Note_on_c, 0, 76, 64
1, 33899, Note_on_c, 0, 76, 0
1, 33920, Note_on_c, 0, 75, 64
1, 33960, Note_on_c, 0, 76, 64
1, 33976, Note_on_c, 0, 75, 0
1, 33996, Note_on_c, 0, 76, 0
1, 34000, Note_on_c, 0, 75, 64
1, 34059, Note_on_c, 0, 75, 0
1, 34079, Note_on_c, 0, 66, 0
1, 34080, Note_on_c, 0, 64, 80
1, 34080, Note_on_c, 0, 73, 80
1, 34199, Note_on_c, 0, 73, 0
1, 34200, Note_on_c, 0, 75, 64
1, 34310, Note_on_c, 0, 75, 0
1, 34319, Note_on_c, 0, 64, 0
1, 34320, Note_on_c, 0, 62, 80
1, 34320, Note_on_c, 0, 71, 64
1, 34550, Note_on_c, 0, 71, 0
1, 34559, Note_on_c, 0, 62, 0
1, 34560, Note_on_c, 0, 83, 64
1, 34790, Note_on_c, 0, 83, 0
1, 34800, Note_on_c, 0, 71, 80
1, 34800, Note_on_c, 0, 76, 64
1, 35030, Note_on_c, 0, 76, 0
1, 35040, Note_on_c, 0, 83, 64
1, 35270, Note_on_c, 0, 83, 0
1, 35279, Note_on_c, 0, 71, 0
1, 35280, Note_on_c, 0, 71, 80
1, 35280, Note_on_c, 0, 76, 64
1, 35510, Note_on_c, 0, 76, 0
1, 35520, Note_on_c, 0, 83, 64
1, 35750, Note_on_c, 0, 83, 0
1, 35759, Note_on_c, 0, 71, 0
1, 35760, Note_on_c, 0, 72, 80
1, 35760, Note_on_c, 0, 75, 64
1, 35870, Note_on_c, 0, 75, 0
1, 35880, Note_on_c, 0, 76, 64
1, 35990, Note_on_c, 0, 76, 0
1, 36000, Note_on_c, 0, 78, 64
1, 36110, Note_on_c, 0, 78, 0
1, 36120, Note_on_c, 0, 79, 64
1, 36230, Note_on_c, 0, 79, 0
1, 36239, Note_on_c, 0, 72, 0
1, 36240, Note_on_c, 0, 72, 80
1, 36240, Note_on_c, 0, 81, 64
1, 36470, Note_on_c, 0, 81, 0
1, 36480, Note_on_c, 0, 79, 64
1, 36590, Note_on_c, 0, 79, 0
1, 36600, Note_on_c, 0, 78, 64
1, 36710, Note_on_c, 0, 78, 0
1, 36719, Note_on_c, 0, 72, 0
1, 36720, Note_on_c, 0, 71, 80
1, 36720, Note_on_c, 0, 79, 64
1, 36950, Note_on_c, 0, 79, 0
1, 36959, Note_on_c, 0, 71, 0
1, 36960, Note_on_c, 0, 72, 80
1, 36960, Note_on_c, 0, 78, 64
1, 37070, Note_on_c, 0, 78, 0
1, 37080, Note_on_c, 0, 76, 64
1, 37190, Note_on_c, 0, 76, 0
1, 37199, Note_on_c, 0, 72, 0
1, 37200, Note_on_c, 0, 71, 80
1, 37200, Note_on_c, 0, 75, 64
1, 37310, Note_on_c, 0, 75, 0
1, 37320, Note_on_c, 0, 76, 64
1, 37430, Note_on_c, 0, 76, 0
1, 37439, Note_on_c, 0, 71, 0
1, 37440, Note_on_c, 0, 69, 80
1, 37440, Note_on_c, 0, 78, 64
1, 37550, Note_on_c, 0, 78, 0
1, 37560, Note_on_c, 0, 75, 64
1, 37670, Note_on_c, 0, 75, 0
1, 37679, Note_on_c, 0, 69, 0
1, 37680, Note_on_c, 0, 67, 80
1, 37680, Note_on_c, 0, 76, 64
1, 37919, Note_on_c, 0, 67, 0
1, 37920, Note_on_c, 0, 66, 80
1, 38039, Note_on_c, 0, 66, 0
1, 38040, Note_on_c, 0, 67, 80
1, 38159, Note_on_c, 0, 67, 0
1, 38160, Note_on_c, 0, 64, 80
1, 38399, Note_on_c, 0, 64, 0
1, 38759, Note_on_c, 0, 76, 0
1, 38760, Note_on_c, 0, 74, 64
1, 38870, Note_on_c, 0, 74, 0
1, 38880, Note_on_c, 0, 78, 64
1, 38990, Note_on_c, 0, 78, 0
1, 39000, Note_on_c, 0, 76, 64
1, 39110, Note_on_c, 0, 76, 0
1, 39120, Note_on_c, 0, 79, 64
1, 39230, Note_on_c, 0, 79, 0
1, 39240, Note_on_c, 0, 78, 64
1, 39350, Note_on_c, 0, 78, 0
1, 39360, Note_on_c, 0, 81, 64
1, 39590, Note_on_c, 0, 81, 0
1, 39600, Note_on_c, 0, 67, 80
1, 39600, Note_on_c, 0, 74, 80
1, 40079, Note_on_c, 0, 67, 0
1, 40080, Note_on_c, 0, 67, 80
1, 40319, Note_on_c, 0, 74, 0
1, 40320, Note_on_c, 0, 72, 64
1, 40430, Note_on_c, 0, 72, 0
1, 40440, Note_on_c, 0, 74, 64
1, 40550, Note_on_c, 0, 74, 0
1, 40559, Note_on_c, 0, 67, 0
1, 40560, Note_on_c, 0, 72, 80
1, 40560, Note_on_c, 0, 76, 64
1, 40790, Note_on_c, 0, 76, 0
1, 40800, Note_on_c, 0, 78, 64
1, 40910, Note_on_c, 0, 78, 0
1, 40919, Note_on_c, 0, 72, 0
1, 40920, Note_on_c, 0, 74, 80
1, 40920, Note_on_c, 0, 79, 64
1, 41030, Note_on_c, 0, 79, 0
1, 41039, Note_on_c, 0, 74, 0
1, 41040, Note_on_c, 0, 72, 80
1, 41040, Note_on_c, 0, 81, 64
1, 41270, Note_on_c, 0, 81, 0
1, 41279, Note_on_c, 0, 72, 0
1, 41280, Note_on_c, 0, 71, 80
1, 41280, Note_on_c, 0, 79, 64
1, 41510, Note_on_c, 0, 79, 0
1, 41519, Note_on_c, 0, 71, 0
1, 41520, Note_on_c, 0, 69, 80
1, 41520, Note_on_c, 0, 79, 64
1, 41556, Note_on_c, 0, 79, 0
1, 41600, Note_on_c, 0, 78, 64
1, 41640, Note_on_c, 0, 76, 64
1, 41656, Note_on_c, 0, 78, 0
1, 41695, Note_on_c, 0, 76, 0
1, 41700, Note_on_c, 0, 78, 64
1, 41755, Note_on_c, 0, 78, 0
1, 41759, Note_on_c, 0, 69, 0
1, 41760, Note_on_c, 0, 71, 80
1, 41760, Note_on_c, 0, 74, 64
1, 41990, Note_on_c, 0, 74, 0
1, 41999, Note_on_c, 0, 71, 0
1, 42000, Note_on_c, 0, 72, 80
1, 42239, Note_on_c, 0, 72, 0
1, 42240, Note_on_c, 0, 74, 80
1, 42479, Note_on_c, 0, 74, 0
1, 42480, Note_on_c, 0, 71, 80
1, 42480, Note_on_c, 0, 83, 64
1, 42710, Note_on_c, 0, 83, 0
1, 42719, Note_on_c, 0, 71, 0
1, 42720, Note_on_c, 0, 69, 80
1, 42720, Note_on_c, 0, 84, 64
1, 42839, Note_on_c, 0, 69, 0
1, 42840, Note_on_c, 0, 71, 80
1, 42950, Note_on_c, 0, 84, 0
1, 42959, Note_on_c, 0, 71, 0
1, 42960, Note_on_c, 0, 67, 80
1, 42960, Note_on_c, 0, 86, 64
1, 43190, Note_on_c, 0, 86, 0
1, 43199, Note_on_c, 0, 67, 0
1, 43200, Note_on_c, 0, 83, 64
1, 43430, Note_on_c, 0, 83, 0
1, 43440, Note_on_c, 0, 84, 64
1, 43670, Note_on_c, 0, 84, 0
1, 43680, Note_on_c, 0, 76, 80
1, 43680, Note_on_c, 0, 83, 64
1, 43799, Note_on_c, 0, 76, 0
1, 43800, Note_on_c, 0, 74, 80
1, 43910, Note_on_c, 0, 83, 0
1, 43919, Note_on_c, 0, 74, 0
1, 43920, Note_on_c, 0, 72, 80
1, 43920, Note_on_c, 0, 81, 64
1, 44150, Note_on_c, 0, 81, 0
1, 44159, Note_on_c, 0, 72, 0
1, 44160, Note_on_c, 0, 76, 80
1, 44160, Note_on_c, 0, 79, 64
1, 44390, Note_on_c, 0, 79, 0
1, 44399, Note_on_c, 0, 76, 0
1, 44400, Note_on_c, 0, 69, 80
1, 44400, Note_on_c, 0, 78, 64
1, 44519, Note_on_c, 0, 69, 0
1, 44520, Note_on_c, 0, 74, 80
1, 44630, Note_on_c, 0, 78, 0
1, 44639, Note_on_c, 0, 74, 0
1, 44640, Note_on_c, 0, 72, 80
1, 44640, Note_on_c, 0, 79, 64
1, 44759, Note_on_c, 0, 72, 0
1, 44760, Note_on_c, 0, 71, 80
1, 44870, Note_on_c, 0, 79, 0
1, 44879, Note_on_c, 0, 71, 0
1, 44880, Note_on_c, 0, 72, 80
1, 44880, Note_on_c, 0, 81, 64
1, 44999, Note_on_c, 0, 72, 0
1, 45000, Note_on_c, 0, 69, 80
1, 45110, Note_on_c, 0, 81, 0
1, 45119, Note_on_c, 0, 69, 0
1, 45120, Note_on_c, 0, 74, 80
1, 45120, Note_on_c, 0, 78, 64
1, 45350, Note_on_c, 0, 78, 0
1, 45360, Note_on_c, 0, 79, 64
1, 45599, Note_on_c, 0, 74, 0
1, 45600, Note_on_c, 0, 72, 80
1, 45719, Note_on_c, 0, 72, 0
1, 45720, Note_on_c, 0, 74, 80
1, 45830, Note_on_c, 0, 79, 0
1, 45839, Note_on_c, 0, 74, 0
1, 45840, Note_on_c, 0, 71, 80
1, 45840, Note_on_c, 0, 79, 80
1, 46079, Note_on_c, 0, 71, 0
1, 46079, Note_on_c, 0, 79, 0
1, 46080, Note_on_c, 0, 81, 80
1, 46319, Note_on_c, 0, 81, 0
1, 46320, Note_on_c, 0, 69, 80
1, 46320, Note_on_c, 0, 78, 64
1, 46550, Note_on_c, 0, 78, 0
1, 46560, Note_on_c, 0, 81, 64
1, 46790, Note_on_c, 0, 81, 0
1, 46799, Note_on_c, 0, 69, 0
1, 46800, Note_on_c, 0, 69, 80
1, 46800, Note_on_c, 0, 78, 64
1, 47030, Note_on_c, 0, 78, 0
1, 47040, Note_on_c, 0, 81, 64
1, 47270, Note_on_c, 0, 81, 0
1, 47279, Note_on_c, 0, 69, 0
1, 47280, Note_on_c, 0, 71, 80
1, 47280, Note_on_c, 0, 74, 64
1, 47510, Note_on_c, 0, 74, 0
1, 47520, Note_on_c, 0, 76, 64
1, 47630, Note_on_c, 0, 76, 0
1, 47640, Note_on_c, 0, 78, 64
1, 47750, Note_on_c, 0, 78, 0
1, 47759, Note_on_c, 0, 71, 0
1, 47760, Note_on_c, 0, 71, 80
1, 47760, Note_on_c, 0, 79, 64
1, 47990, Note_on_c, 0, 79, 0
1, 48000, Note_on_c, 0, 76, 64
1, 48230, Note_on_c, 0, 76, 0
1, 48239, Note_on_c, 0, 71, 0
1, 48240, Note_on_c, 0, 69, 80
1, 48240, Note_on_c, 0, 81, 64
1, 48470, Note_on_c, 0, 81, 0
1, 48479, Note_on_c, 0, 69, 0
1, 48480, Note_on_c, 0, 71, 80
1, 48480, Note_on_c, 0, 79, 64
1, 48710, Note_on_c, 0, 79, 0
1, 48719, Note_on_c, 0, 71, 0
1, 48720, Note_on_c, 0, 69, 80
1, 48720, Note_on_c, 0, 78, 64
1, 48950, Note_on_c, 0, 78, 0
1, 48959, Note_on_c, 0, 69, 0
1, 48960, Note_on_c, 0, 67, 80
1, 48960, Note_on_c, 0, 76, 64
1, 49190, Note_on_c, 0, 76, 0
1, 49199, Note_on_c, 0, 67, 0
1, 49200, Note_on_c, 0, 66, 80
1, 49200, Note_on_c, 0, 76, 64
1, 49259, Note_on_c, 0, 76, 0
1, 49280, Note_on_c, 0, 75, 64
1, 49320, Note_on_c, 0, 76, 64
1, 49336, Note_on_c, 0, 75, 0
1, 49356, Note_on_c, 0, 76, 0
1, 49360, Note_on_c, 0, 75, 64
1, 49419, Note_on_c, 0, 75, 0
1, 49439, Note_on_c, 0, 66, 0
1, 49440, Note_on_c, 0, 64, 80
1, 49440, Note_on_c, 0, 73, 80
1, 49559, Note_on_c, 0, 73, 0
1, 49560, Note_on_c, 0, 75, 64
1, 49670, Note_on_c, 0, 75, 0
1, 49679, Note_on_c, 0, 64, 0
1, 49680, Note_on_c, 0, 62, 80
1, 49680, Note_on_c, 0, 71, 64
1, 49910, Note_on_c, 0, 71, 0
1, 49919, Note_on_c, 0, 62, 0
1, 49920, Note_on_c, 0, 83, 64
1, 50150, Note_on_c, 0, 83, 0
1, 50160, Note_on_c, 0, 71, 80
1, 50160, Note_on_c, 0, 76, 64
1, 50390, Note_on_c, 0, 76, 0
1, 50400, Note_on_c, 0, 83, 64
1, 50630, Note_on_c, 0, 83, 0
1, 50639, Note_on_c, 0, 71, 0
1, 50640, Note_on_c, 0, 71, 80
1, 50640, Note_on_c, 0, 76, 64
1, 50870, Note_on_c, 0, 76, 0
1, 50880, Note_on_c, 0, 83, 64
1, 51110, Note_on_c, 0, 83, 0
1, 51119, Note_on_c, 0, 71, 0
1, 51120, Note_on_c, 0, 72, 80
1, 51120, Note_on_c, 0, 75, 64
1, 51230, Note_on_c, 0, 75, 0
1, 51240, Note_on_c, 0, 76, 64
1, 51350, Note_on_c, 0, 76, 0
1, 51360, Note_on_c, 0, 78, 64
1, 51470, Note_on_c, 0, 78, 0
1, 51480, Note_on_c, 0, 79, 64
1, 51590, Note_on_c, 0, 79, 0
1, 51599, Note_on_c, 0, 72, 0
1, 51600, Note_on_c, 0, 72, 80
1, 51600, Note_on_c, 0, 81, 64
1, 51830, Note_on_c, 0, 81, 0
1, 51840, Note_on_c, 0, 79, 64
1, 51950, Note_on_c, 0, 79, 0
1, 51960, Note_on_c, 0, 78, 64
1, 52070, Note_on_c, 0, 78, 0
1, 52079, Note_on_c, 0, 72, 0
1, 52080, Note_on_c, 0, 71, 80
1, 52080, Note_on_c, 0, 79, 64
1, 52310, Note_on_c, 0, 79, 0
1, 52319, Note_on_c, 0, 71, 0
1, 52320, Note_on_c, 0, 72, 80
1, 52320, Note_on_c, 0, 78, 64
1, 52430, Note_on_c, 0, 78, 0
1, 52440, Note_on_c, 0, 76, 64
1, 52550, Note_on_c, 0, 76, 0
1, 52559, Note_on_c, 0, 72, 0
1, 52560, Note_on_c, 0, 71, 80
1, 52560, Note_on_c, 0, 75, 64
1, 52670, Note_on_c, 0, 75, 0
1, 52680, Note_on_c, 0, 76, 64
1, 52790, Note_on_c, 0, 76, 0
1, 52799, Note_on_c, 0, 71, 0
1, 52800, Note_on_c, 0, 69, 80
1, 52800, Note_on_c, 0, 78, 64
1, 52910, Note_on_c, 0, 78, 0
1, 52920, Note_on_c, 0, 75, 64
1, 53030, Note_on_c, 0, 75, 0
1, 53039, Note_on_c, 0, 69, 0
1, 53040, Note_on_c, 0, 67, 80
1, 53040, Note_on_c, 0, 76, 64
1, 53279, Note_on_c, 0, 67, 0
1, 53280, Note_on_c, 0, 66, 80
1, 53399, Note_on_c, 0, 66, 0
1, 53400, Note_on_c, 0, 67, 80
1, 53519, Note_on_c, 0, 67, 0
1, 53520, Note_on_c, 0, 64, 80
1, 53759, Note_on_c, 0, 64, 0
1, 54119, Note_on_c, 0, 76, 0
1, 54120, Note_on_c, 0, 74, 64
1, 54230, Note_on_c, 0, 74, 0
1, 54240, Note_on_c, 0, 78, 64
1, 54350, Note_on_c, 0, 78, 0
1, 54360, Note_on_c, 0, 76, 64
1, 54470, Note_on_c, 0, 76, 0
1, 54480, Note_on_c, 0, 79, 64
1, 54590, Note_on_c, 0, 79, 0
1, 54600, Note_on_c, 0, 78, 64
1, 54710, Note_on_c, 0, 78, 0
1, 54720, Note_on_c, 0, 81, 64
1, 54950, Note_on_c, 0, 81, 0
1, 54960, Note_on_c, 0, 67, 80
1, 54960, Note_on_c, 0, 74, 80
1, 55439, Note_on_c, 0, 67, 0
1, 55440, Note_on_c, 0, 67, 80
1, 55679, Note_on_c, 0, 74, 0
1, 55680, Note_on_c, 0, 72, 64
1, 55790, Note_on_c, 0, 72, 0
1, 55800, Note_on_c, 0, 74, 64
1, 55910, Note_on_c, 0, 74, 0
1, 55919, Note_on_c, 0, 67, 0
1, 55920, Note_on_c, 0, 72, 80
1, 55920, Note_on_c, 0, 76, 64
1, 56150, Note_on_c, 0, 76, 0
1, 56160, Note_on_c, 0, 78, 64
1, 56270, Note_on_c, 0, 78, 0
1, 56279, Note_on_c, 0, 72, 0
1, 56280, Note_on_c, 0, 74, 80
1, 56280, Note_on_c, 0, 79, 64
1, 56390, Note_on_c, 0, 79, 0
1, 56399, Note_on_c, 0, 74, 0
1, 56400, Note_on_c, 0, 72, 80
1, 56400, Note_on_c, 0, 81, 64
1, 56630, Note_on_c, 0, 81, 0
1, 56639, Note_on_c, 0, 72, 0
1, 56640, Note_on_c, 0, 71, 80
1, 56640, Note_on_c, 0, 79, 64
1, 56870, Note_on_c, 0, 79, 0
1, 56879, Note_on_c, 0, 71, 0
1, 56880, Note_on_c, 0, 69, 80
1, 56880, Note_on_c, 0, 79, 64
1, 56916, Note_on_c, 0, 79, 0
1, 56960, Note_on_c, 0, 78, 64
1, 57000, Note_on_c, 0, 76, 64
1, 57016, Note_on_c, 0, 78, 0
1, 57055, Note_on_c, 0, 76, 0
1, 57060, Note_on_c, 0, 78, 64
1, 57115, Note_on_c, 0, 78, 0
1, 57119, Note_on_c, 0, 69, 0
1, 57120, Note_on_c, 0, 71, 80
1, 57120, Note_on_c, 0, 74, 64
1, 57350, Note_on_c, 0, 74, 0
1, 57359, Note_on_c, 0, 71, 0
1, 57360, Note_on_c, 0, 72, 80
1, 57599, Note_on_c, 0, 72, 0
1, 57600, Note_on_c, 0, 74, 80
1, 57839, Note_on_c, 0, 74, 0
1, 57840, Note_on_c, 0, 71, 80
1, 57840, Note_on_c, 0, 83, 64
1, 58070, Note_on_c, 0, 83, 0
1, 58079, Note_on_c, 0, 71, 0
1, 58080, Note_on_c, 0, 69, 80
1, 58080, Note_on_c, 0, 84, 64
1, 58199, Note_on_c, 0, 69, 0
1, 58200, Note_on_c, 0, 71, 80
1, 58310, Note_on_c, 0, 84, 0
1, 58319, Note_on_c, 0, 71, 0
1, 58320, Note_on_c, 0, 67, 80
1, 58320, Note_on_c, 0, 86, 64
1, 58550, Note_on_c, 0, 86, 0
1, 58559, Note_on_c, 0, 67, 0
1, 58560, Note_on_c, 0, 83, 64
1, 58790, Note_on_c, 0, 83, 0
1, 58800, Note_on_c, 0, 84, 64
1, 59030, Note_on_c, 0, 84, 0
1, 59040, Note_on_c, 0, 76, 80
1, 59040, Note_on_c, 0, 83, 64
1, 59159, Note_on_c, 0, 76, 0
1, 59160, Note_on_c, 0, 74, 80
1, 59270, Note_on_c, 0, 83, 0
1, 59279, Note_on_c, 0, 74, 0
1, 59280, Note_on_c, 0, 72, 80
1, 59280, Note_on_c, 0, 81, 64
1, 59510, Note_on_c, 0, 81, 0
1, 59519, Note_on_c, 0, 72, 0
1, 59520, Note_on_c, 0, 76, 80
1, 59520, Note_on_c, 0, 79, 64
1, 59750, Note_on_c, 0, 79, 0
1, 59759, Note_on_c, 0, 76, 0
1, 59760, Note_on_c, 0, 69, 80
1, 59760, Note_on_c, 0, 78, 64
1, 59879, Note_on_c, 0, 69, 0
1, 59880, Note_on_c, 0, 74, 80
1, 59990, Note_on_c, 0, 78, 0
1, 59999, Note_on_c, 0, 74, 0
1, 60000, Note_on_c, 0, 72, 80
1, 60000, Note_on_c, 0, 79, 64
1, 60119, Note_on_c, 0, 72, 0
1, 60120, Note_on_c, 0, 71, 80
1, 60230, Note_on_c, 0, 79, 0
1, 60239, Note_on_c, 0, 71, 0
1, 60240, Note_on_c, 0, 72, 80
1, 60240, Note_on_c, 0, 81, 64
1, 60359, Note_on_c, 0, 72, 0
1, 60360, Note_on_c, 0, 69, 80
1, 60470, Note_on_c, 0, 81, 0
1, 60479, Note_on_c, 0, 69, 0
1, 60480, Note_on_c, 0, 74, 80
1, 60480, Note_on_c, 0, 78, 64
1, 60710, Note_on_c, 0, 78, 0
1, 60720, Note_on_c, 0, 79, 64
1, 60959, Note_on_c, 0, 74, 0
1, 60960, Note_on_c, 0, 72, 80
1, 61079, Note_on_c, 0, 72, 0
1, 61080, Note_on_c, 0, 74, 80
1, 61190, Note_on_c, 0, 79, 0
1, 61199, Note_on_c, 0, 74, 0
1, 61200, Note_on_c, 0, 71, 80
1, 61200, Note_on_c, 0, 79, 80
1, 61439, Note_on_c, 0, 71, 0
1, 61439, Note_on_c, 0, 79, 0
1, 61440, End_track
2, 0, Start_track
2, 0, Key_signature, 1, "major"
2, 0, Note_on_c, 0, 50, 80
2, 239, Note_on_c, 0, 50, 0
2, 240, Note_on_c, 0, 55, 80
2, 240, Note_on_c, 0, 55, 80
2, 479, Note_on_c, 0, 55, 0
2, 480, Note_on_c, 0, 57, 64
2, 710, Note_on_c, 0, 57, 0
2, 720, Note_on_c, 0, 59, 64
2, 950, Note_on_c, 0, 59, 0
2, 960, Note_on_c, 0, 60, 64
2, 1190, Note_on_c, 0, 60, 0
2, 1199, Note_on_c, 0, 55, 0
2, 1200, Note_on_c, 0, 54, 80
2, 1200, Note_on_c, 0, 62, 64
2, 1430, Note_on_c, 0, 62, 0
2, 1440, Note_on_c, 0, 60, 64
2, 1550, Note_on_c, 0, 60, 0
2, 1560, Note_on_c, 0, 59, 64
2, 1670, Note_on_c, 0, 59, 0
2, 1680, Note_on_c, 0, 57, 64
2, 1910, Note_on_c, 0, 57, 0
2, 1920, Note_on_c, 0, 55, 64
2, 2030, Note_on_c, 0, 55, 0
2, 2040, Note_on_c, 0, 57, 64
2, 2150, Note_on_c, 0, 57, 0
2, 2159, Note_on_c, 0, 54, 0
2, 2160, Note_on_c, 0, 52, 80
2, 2160, Note_on_c, 0, 59, 64
2, 2390, Note_on_c, 0, 59, 0
2, 2400, Note_on_c, 0, 57, 64
2, 2630, Note_on_c, 0, 57, 0
2, 2640, Note_on_c, 0, 55, 64
2, 3119, Note_on_c, 0, 52, 0
2, 3120, Note_on_c, 0, 50, 80
2, 3590, Note_on_c, 0, 55, 0
2, 3600, Note_on_c, 0, 55, 64
2, 3659, Note_on_c, 0, 55, 0
2, 3680, Note_on_c, 0, 54, 64
2, 3720, Note_on_c, 0, 55, 64
2, 3736, Note_on_c, 0, 54, 0
2, 3756, Note_on_c, 0, 55, 0
2, 3760, Note_on_c, 0, 54, 64
2, 3819, Note_on_c, 0, 54, 0
2, 3839, Note_on_c, 0, 50, 0
2, 3840, Note_on_c, 0, 48, 80
2, 3840, Note_on_c, 0, 52, 80
2, 3959, Note_on_c, 0, 52, 0
2, 3960, Note_on_c, 0, 54, 64
2, 4070, Note_on_c, 0, 54, 0
2, 4079, Note_on_c, 0, 48, 0
2, 4080, Note_on_c, 0, 47, 80
2, 4080, Note_on_c, 0, 55, 64
2, 4550, Note_on_c, 0, 55, 0
2, 4800, Note_on_c, 0, 62, 64
2, 5030, Note_on_c, 0, 62, 0
2, 5039, Note_on_c, 0, 47, 0
2, 5040, Note_on_c, 0, 48, 80
2, 5040, Note_on_c, 0, 60, 64
2, 5270, Note_on_c, 0, 60, 0
2, 5280, Note_on_c, 0, 59, 64
2, 5510, Note_on_c, 0, 59, 0
2, 5520, Note_on_c, 0, 57, 64
2, 5750, Note_on_c, 0, 57, 0
2, 5760, Note_on_c, 0, 55, 64
2, 5990, Note_on_c, 0, 55, 0
2, 5999, Note_on_c, 0, 48, 0
2, 6000, Note_on_c, 0, 50, 80
2, 6000, Note_on_c, 0, 55, 64
2, 6059, Note_on_c, 0, 55, 0
2, 6080, Note_on_c, 0, 54, 64
2, 6120, Note_on_c, 0, 55, 64
2, 6136, Note_on_c, 0, 54, 0
2, 6156, Note_on_c, 0, 55, 0
2, 6160, Note_on_c, 0, 54, 64
2, 6176, Note_on_c, 0, 54, 0
2, 6240, Note_on_c, 0, 55, 64
2, 6299, Note_on_c, 0, 55, 0
2, 6320, Note_on_c, 0, 54, 64
2, 6360, Note_on_c, 0, 55, 64
2, 6376, Note_on_c, 0, 54, 0
2, 6419, Note_on_c, 0, 55, 0
2, 6440, Note_on_c, 0, 54, 64
2, 6480, Note_on_c, 0, 55, 64
2, 6496, Note_on_c, 0, 54, 0
2, 6516, Note_on_c, 0, 55, 0
2, 6520, Note_on_c, 0, 54, 64
2, 6536, Note_on_c, 0, 54, 0
2, 6600, Note_on_c, 0, 52, 64
2, 6655, Note_on_c, 0, 52, 0
2, 6660, Note_on_c, 0, 54, 64
2, 6715, Note_on_c, 0, 54, 0
2, 6720, Note_on_c, 0, 50, 64
2, 6959, Note_on_c, 0, 50, 0
2, 6960, Note_on_c, 0, 43, 80
2, 7439, Note_on_c, 0, 43, 0
2, 7439, Note_on_c, 0, 50, 0
2, 7680, Note_on_c, 0, 59, 80
2, 7799, Note_on_c, 0, 59, 0
2, 7800, Note_on_c, 0, 57, 80
2, 7919, Note_on_c, 0, 57, 0
2, 7920, Note_on_c, 0, 55, 80
2, 7920, Note_on_c, 0, 67, 64
2, 8159, Note_on_c, 0, 55, 0
2, 8160, Note_on_c, 0, 54, 80
2, 8279, Note_on_c, 0, 54, 0
2, 8280, Note_on_c, 0, 55, 80
2, 8390, Note_on_c, 0, 67, 0
2, 8399, Note_on_c, 0, 55, 0
2, 8400, Note_on_c, 0, 52, 80
2, 8400, Note_on_c, 0, 67, 64
2, 8639, Note_on_c, 0, 52, 0
2, 8640, Note_on_c, 0, 50, 80
2, 8759, Note_on_c, 0, 50, 0
2, 8760, Note_on_c, 0, 52, 80
2, 8870, Note_on_c, 0, 67, 0
2, 8879, Note_on_c, 0, 52, 0
2, 8880, Note_on_c, 0, 54, 80
2, 8880, Note_on_c, 0, 69, 64
2, 9350, Note_on_c, 0, 69, 0
2, 9599, Note_on_c, 0, 54, 0
2, 9600, Note_on_c, 0, 59, 80
2, 9839, Note_on_c, 0, 59, 0
2, 9840, Note_on_c, 0, 52, 80
2, 9840, Note_on_c, 0, 67, 64
2, 10070, Note_on_c, 0, 67, 0
2, 10080, Note_on_c, 0, 69, 64
2, 10310, Note_on_c, 0, 69, 0
2, 10320, Note_on_c, 0, 67, 64
2, 10550, Note_on_c, 0, 67, 0
2, 10559, Note_on_c, 0, 52, 0
2, 10560, Note_on_c, 0, 54, 80
2, 10560, Note_on_c, 0, 66, 64
2, 10679, Note_on_c, 0, 54, 0
2, 10680, Note_on_c, 0, 55, 80
2, 10790, Note_on_c, 0, 66, 0
2, 10799, Note_on_c, 0, 55, 0
2, 10800, Note_on_c, 0, 57, 80
2, 10800, Note_on_c, 0, 64, 64
2, 11030, Note_on_c, 0, 64, 0
2, 11040, Note_on_c, 0, 62, 64
2, 11270, Note_on_c, 0, 62, 0
2, 11280, Note_on_c, 0, 61, 64
2, 11399, Note_on_c, 0, 57, 0
2, 11400, Note_on_c, 0, 55, 80
2, 11510, Note_on_c, 0, 61, 0
2, 11519, Note_on_c, 0, 55, 0
2, 11520, Note_on_c, 0, 54, 80
2, 11639, Note_on_c, 0, 54, 0
2, 11640, Note_on_c, 0, 52, 80
2, 11759, Note_on_c, 0, 52, 0
2, 11760, Note_on_c, 0, 54, 80
2, 12000, Note_on_c, 0, 55, 64
2, 12230, Note_on_c, 0, 55, 0
2, 12239, Note_on_c, 0, 54, 0
2, 12240, Note_on_c, 0, 50, 80
2, 12240, Note_on_c, 0, 57, 64
2, 12470, Note_on_c, 0, 57, 0
2, 12480, Note_on_c, 0, 54, 64
2, 12710, Note_on_c, 0, 54, 0
2, 12719, Note_on_c, 0, 50, 0
2, 12720, Note_on_c, 0, 55, 80
2, 12960, Note_on_c, 0, 54, 64
2, 13190, Note_on_c, 0, 54, 0
2, 13199, Note_on_c, 0, 55, 0
2, 13200, Note_on_c, 0, 43, 80
2, 13200, Note_on_c, 0, 52, 64
2, 13430, Note_on_c, 0, 52, 0
2, 13440, Note_on_c, 0, 50, 64
2, 13670, Note_on_c, 0, 50, 0
2, 13679, Note_on_c, 0, 43, 0
2, 13680, Note_on_c, 0, 45, 80
2, 13680, Note_on_c, 0, 49, 64
2, 13910, Note_on_c, 0, 49, 0
2, 13920, Note_on_c, 0, 50, 64
2, 14150, Note_on_c, 0, 50, 0
2, 14160, Note_on_c, 0, 52, 64
2, 14390, Note_on_c, 0, 52, 0
2, 14400, Note_on_c, 0, 49, 64
2, 14630, Note_on_c, 0, 49, 0
2, 14639, Note_on_c, 0, 45, 0
2, 14640, Note_on_c, 0, 38, 80
2, 14640, Note_on_c, 0, 50, 64
2, 15110, Note_on_c, 0, 50, 0
2, 15119, Note_on_c, 0, 38, 0
2, 15120, Note_on_c, 0, 50, 64
2, 15350, Note_on_c, 0, 50, 0
2, 15360, Note_on_c, 0, 50, 80
2, 15599, Note_on_c, 0, 50, 0
2, 15600, Note_on_c, 0, 55, 80
2, 15600, Note_on_c, 0, 55, 80
2, 15839, Note_on_c, 0, 55, 0
2, 15840, Note_on_c, 0, 57, 64
2, 16070, Note_on_c, 0, 57, 0
2, 16080, Note_on_c, 0, 59, 64
2, 16310, Note_on_c, 0, 59, 0
2, 16320, Note_on_c, 0, 60, 64
2, 16550, Note_on_c, 0, 60, 0
2, 16559, Note_on_c, 0, 55, 0
2, 16560, Note_on_c, 0, 54, 80
2, 16560, Note_on_c, 0, 62, 64
2, 16790, Note_on_c, 0, 62, 0
2, 16800, Note_on_c, 0, 60, 64
2, 16910, Note_on_c, 0, 60, 0
2, 16920, Note_on_c, 0, 59, 64
2, 17030, Note_on_c, 0, 59, 0
2, 17040, Note_on_c, 0, 57, 64
2, 17270, Note_on_c, 0, 57, 0
2, 17280, Note_on_c, 0, 55, 64
2, 17390, Note_on_c, 0, 55, 0
2, 17400, Note_on_c, 0, 57, 64
2, 17510, Note_on_c, 0, 57, 0
2, 17519, Note_on_c, 0, 54, 0
2, 17520, Note_on_c, 0, 52, 80
2, 17520, Note_on_c, 0, 59, 64
2, 17750, Note_on_c, 0, 59, 0
2, 17760, Note_on_c, 0, 57, 64
2, 17990, Note_on_c, 0, 57, 0
2, 18000, Note_on_c, 0, 55, 64
2, 18479, Note_on_c, 0, 52, 0
2, 18480, Note_on_c, 0, 50, 80
2, 18950, Note_on_c, 0, 55, 0
2, 18960, Note_on_c, 0, 55, 64
2, 19019, Note_on_c, 0, 55, 0
2, 19040, Note_on_c, 0, 54, 64
2, 19080, Note_on_c, 0, 55, 64
2, 19096, Note_on_c, 0, 54, 0
2, 19116, Note_on_c, 0, 55, 0
2, 19120, Note_on_c, 0, 54, 64
2, 19179, Note_on_c, 0, 54, 0
2, 19199, Note_on_c, 0, 50, 0
2, 19200, Note_on_c, 0, 48, 80
2, 19200, Note_on_c, 0, 52, 80
2, 19319, Note_on_c, 0, 52, 0
2, 19320, Note_on_c, 0, 54, 64
2, 19430, Note_on_c, 0, 54, 0
2, 19439, Note_on_c, 0, 48, 0
2, 19440, Note_on_c, 0, 47, 80
2, 19440, Note_on_c, 0, 55, 64
2, 19910, Note_on_c, 0, 55, 0
2, 20160, Note_on_c, 0, 62, 64
2, 20390, Note_on_c, 0, 62, 0
2, 20399, Note_on_c, 0, 47, 0
2, 20400, Note_on_c, 0, 48, 80
2, 20400, Note_on_c, 0, 60, 64
2, 20630, Note_on_c, 0, 60, 0
2, 20640, Note_on_c, 0, 59, 64
2, 20870, Note_on_c, 0, 59, 0
2, 20880, Note_on_c, 0, 57, 64
2, 21110, Note_on_c, 0, 57, 0
2, 21120, Note_on_c, 0, 55, 64
2, 21350, Note_on_c, 0, 55, 0
2, 21359, Note_on_c, 0, 48, 0
2, 21360, Note_on_c, 0, 50, 80
2, 21360, Note_on_c, 0, 55, 64
2, 21419, Note_on_c, 0, 55, 0
2, 21440, Note_on_c, 0, 54, 64
2, 21480, Note_on_c, 0, 55, 64
2, 21496, Note_on_c, 0, 54, 0
2, 21516, Note_on_c, 0, 55, 0
2, 21520, Note_on_c, 0, 54, 64
2, 21536, Note_on_c, 0, 54, 0
2, 21600, Note_on_c, 0, 55, 64
2, 21659, Note_on_c, 0, 55, 0
2, 21680, Note_on_c, 0, 54, 64
2, 21720, Note_on_c, 0, 55, 64
2, 21736, Note_on_c, 0, 54, 0
2, 21779, Note_on_c, 0, 55, 0
2, 21800, Note_on_c, 0, 54, 64
2, 21840, Note_on_c, 0, 55, 64
2, 21856, Note_on_c, 0, 54, 0
2, 21876, Note_on_c, 0, 55, 0
2, 21880, Note_on_c, 0, 54, 64
2, 21896, Note_on_c, 0, 54, 0
2, 21960, Note_on_c, 0, 52, 64
2, 22015, Note_on_c, 0, 52, 0
2, 22020, Note_on_c, 0, 54, 64
2, 22075, Note_on_c, 0, 54, 0
2, 22080, Note_on_c, 0, 50, 64
2, 22319, Note_on_c, 0, 50, 0
2, 22320, Note_on_c, 0, 43, 80
2, 22799, Note_on_c, 0, 43, 0
2, 22799, Note_on_c, 0, 50, 0
2, 23040, Note_on_c, 0, 59, 80
2, 23159, Note_on_c, 0, 59, 0
2, 23160, Note_on_c, 0, 57, 80
2, 23279, Note_on_c, 0, 57, 0
2, 23280, Note_on_c, 0, 55, 80
2, 23280, Note_on_c, 0, 67, 64
2, 23519, Note_on_c, 0, 55, 0
2, 23520, Note_on_c, 0, 54, 80
2, 23639, Note_on_c, 0, 54, 0
2, 23640, Note_on_c, 0, 55, 80
2, 23750, Note_on_c, 0, 67, 0
2, 23759, Note_on_c, 0, 55, 0
2, 23760, Note_on_c, 0, 52, 80
2, 23760, Note_on_c, 0, 67, 64
2, 23999, Note_on_c, 0, 52, 0
2, 24000, Note_on_c, 0, 50, 80
2, 24119, Note_on_c, 0, 50, 0
2, 24120, Note_on_c, 0, 52, 80
2, 24230, Note_on_c, 0, 67, 0
2, 24239, Note_on_c, 0, 52, 0
2, 24240, Note_on_c, 0, 54, 80
2, 24240, Note_on_c, 0, 69, 64
2, 24710, Note_on_c, 0, 69, 0
2, 24959, Note_on_c, 0, 54, 0
2, 24960, Note_on_c, 0, 59, 80
2, 25199, Note_on_c, 0, 59, 0
2, 25200, Note_on_c, 0, 52, 80
2, 25200, Note_on_c, 0, 67, 64
2, 25430, Note_on_c, 0, 67, 0
2, 25440, Note_on_c, 0, 69, 64
2, 25670, Note_on_c, 0, 69, 0
2, 25680, Note_on_c, 0, 67, 64
2, 25910, Note_on_c, 0, 67, 0
2, 25919, Note_on_c, 0, 52, 0
2, 25920, Note_on_c, 0, 54, 80
2, 25920, Note_on_c, 0, 66, 64
2, 26039, Note_on_c, 0, 54, 0
2, 26040, Note_on_c, 0, 55, 80
2, 26150, Note_on_c, 0, 66, 0
2, 26159, Note_on_c, 0, 55, 0
2, 26160, Note_on_c, 0, 57, 80
2, 26160, Note_on_c, 0, 64, 64
2, 26390, Note_on_c, 0, 64, 0
2, 26400, Note_on_c, 0, 62, 64
2, 26630, Note_on_c, 0, 62, 0
2, 26640, Note_on_c, 0, 61, 64
2, 26759, Note_on_c, 0, 57, 0
2, 26760, Note_on_c, 0, 55, 80
2, 26870, Note_on_c, 0, 61, 0
2, 26879, Note_on_c, 0, 55, 0
2, 26880, Note_on_c, 0, 54, 80
2, 26999, Note_on_c, 0, 54, 0
2, 27000, Note_on_c, 0, 52, 80
2, 27119, Note_on_c, 0, 52, 0
2, 27120, Note_on_c, 0, 54, 80
2, 27360, Note_on_c, 0, 55, 64
2, 27590, Note_on_c, 0, 55, 0
2, 27599, Note_on_c, 0, 54, 0
2, 27600, Note_on_c, 0, 50, 80
2, 27600, Note_on_c, 0, 57, 64
2, 27830, Note_on_c, 0, 57, 0
2, 27840, Note_on_c, 0, 54, 64
2, 28070, Note_on_c, 0, 54, 0
2, 28079, Note_on_c, 0, 50, 0
2, 28080, Note_on_c, 0, 55, 80
2, 28320, Note_on_c, 0, 54, 64
2, 28550, Note_on_c, 0, 54, 0
2, 28559, Note_on_c, 0, 55, 0
2, 28560, Note_on_c, 0, 43, 80
2, 28560, Note_on_c, 0, 52, 64
2, 28790, Note_on_c, 0, 52, 0
2, 28800, Note_on_c, 0, 50, 64
2, 29030, Note_on_c, 0, 50, 0
2, 29039, Note_on_c, 0, 43, 0
2, 29040, Note_on_c, 0, 45, 80
2, 29040, Note_on_c, 0, 49, 64
2, 29270, Note_on_c, 0, 49, 0
2, 29280, Note_on_c, 0, 50, 64
2, 29510, Note_on_c, 0, 50, 0
2, 29520, Note_on_c, 0, 52, 64
2, 29750, Note_on_c, 0, 52, 0
2, 29760, Note_on_c, 0, 49, 64
2, 29990, Note_on_c, 0, 49, 0
2, 29999, Note_on_c, 0, 45, 0
2, 30000, Note_on_c, 0, 38, 80
2, 30000, Note_on_c, 0, 50, 64
2, 30470, Note_on_c, 0, 50, 0
2, 30479, Note_on_c, 0, 38, 0
2, 30480, Note_on_c, 0, 50, 64
2, 30710, Note_on_c, 0, 50, 0
2, 30720, Note_on_c, 0, 66, 80
2, 30959, Note_on_c, 0, 66, 0
2, 30960, Note_on_c, 0, 62, 80
2, 31200, Note_on_c, 0, 66, 64
2, 31430, Note_on_c, 0, 66, 0
2, 31439, Note_on_c, 0, 62, 0
2, 31440, Note_on_c, 0, 60, 80
2, 31440, Note_on_c, 0, 62, 64
2, 31670, Note_on_c, 0, 62, 0
2, 31680, Note_on_c, 0, 66, 64
2, 31910, Note_on_c, 0, 66, 0
2, 31919, Note_on_c, 0, 60, 0
2, 31920, Note_on_c, 0, 59, 80
2, 31920, Note_on_c, 0, 67, 64
2, 32150, Note_on_c, 0, 67, 0
2, 32160, Note_on_c, 0, 62, 64
2, 32390, Note_on_c, 0, 62, 0
2, 32399, Note_on_c, 0, 59, 0
2, 32400, Note_on_c, 0, 55, 80
2, 32400, Note_on_c, 0, 62, 64
2, 32630, Note_on_c, 0, 62, 0
2, 32640, Note_on_c, 0, 67, 64
2, 32870, Note_on_c, 0, 67, 0
2, 32879, Note_on_c, 0, 55, 0
2, 32880, Note_on_c, 0, 60, 80
2, 32880, Note_on_c, 0, 64, 64
2, 33110, Note_on_c, 0, 64, 0
2, 33119, Note_on_c, 0, 60, 0
2, 33120, Note_on_c, 0, 59, 80
2, 33359, Note_on_c, 0, 59, 0
2, 33360, Note_on_c, 0, 60, 80
2, 33599, Note_on_c, 0, 60, 0
2, 33600, Note_on_c, 0, 57, 80
2, 33839, Note_on_c, 0, 57, 0
2, 33840, Note_on_c, 0, 59, 80
2, 33840, Note_on_c, 0, 66, 64
2, 34310, Note_on_c, 0, 66, 0
2, 34320, Note_on_c, 0, 66, 64
2, 34559, Note_on_c, 0, 59, 0
2, 34560, Note_on_c, 0, 57, 80
2, 34790, Note_on_c, 0, 66, 0
2, 34799, Note_on_c, 0, 57, 0
2, 34800, Note_on_c, 0, 55, 80
2, 34800, Note_on_c, 0, 67, 64
2, 35039, Note_on_c, 0, 55, 0
2, 35040, Note_on_c, 0, 64, 80
2, 35270, Note_on_c, 0, 67, 0
2, 35279, Note_on_c, 0, 64, 0
2, 35280, Note_on_c, 0, 55, 80
2, 35280, Note_on_c, 0, 67, 64
2, 35519, Note_on_c, 0, 55, 0
2, 35520, Note_on_c, 0, 64, 80
2, 35750, Note_on_c, 0, 67, 0
2, 35759, Note_on_c, 0, 64, 0
2, 35760, Note_on_c, 0, 57, 80
2, 35760, Note_on_c, 0, 66, 64
2, 35990, Note_on_c, 0, 66, 0
2, 36000, Note_on_c, 0, 67, 64
2, 36230, Note_on_c, 0, 67, 0
2, 36240, Note_on_c, 0, 66, 64
2, 36470, Note_on_c, 0, 66, 0
2, 36479, Note_on_c, 0, 57, 0
2, 36480, Note_on_c, 0, 58, 80
2, 36480, Note_on_c, 0, 64, 64
2, 36710, Note_on_c, 0, 64, 0
2, 36719, Note_on_c, 0, 58, 0
2, 36720, Note_on_c, 0, 59, 80
2, 36720, Note_on_c, 0, 63, 64
2, 36950, Note_on_c, 0, 63, 0
2, 36960, Note_on_c, 0, 64, 64
2, 37070, Note_on_c, 0, 64, 0
2, 37080, Note_on_c, 0, 66, 64
2, 37190, Note_on_c, 0, 66, 0
2, 37199, Note_on_c, 0, 59, 0
2, 37200, Note_on_c, 0, 47, 80
2, 37200, Note_on_c, 0, 59, 64
2, 37679, Note_on_c, 0, 47, 0
2, 37680, Note_on_c, 0, 52, 80
2, 37919, Note_on_c, 0, 59, 0
2, 37920, Note_on_c, 0, 57, 64
2, 38030, Note_on_c, 0, 57, 0
2, 38040, Note_on_c, 0, 59, 64
2, 38150, Note_on_c, 0, 59, 0
2, 38160, Note_on_c, 0, 55, 64
2, 38390, Note_on_c, 0, 55, 0
2, 38399, Note_on_c, 0, 52, 0
2, 38400, Note_on_c, 0, 50, 80
2, 38400, Note_on_c, 0, 57, 64
2, 38510, Note_on_c, 0, 57, 0
2, 38520, Note_on_c, 0, 59, 64
2, 38630, Note_on_c, 0, 59, 0
2, 38639, Note_on_c, 0, 50, 0
2, 38640, Note_on_c, 0, 48, 80
2, 38640, Note_on_c, 0, 60, 64
2, 38870, Note_on_c, 0, 60, 0
2, 38880, Note_on_c, 0, 62, 64
2, 39110, Note_on_c, 0, 62, 0
2, 39119, Note_on_c, 0, 48, 0
2, 39120, Note_on_c, 0, 60, 80
2, 39120, Note_on_c, 0, 64, 64
2, 39350, Note_on_c, 0, 64, 0
2, 39360, Note_on_c, 0, 66, 64
2, 39590, Note_on_c, 0, 66, 0
2, 39599, Note_on_c, 0, 60, 0
2, 39600, Note_on_c, 0, 59, 80
2, 39600, Note_on_c, 0, 67, 80
2, 39839, Note_on_c, 0, 67, 0
2, 39840, Note_on_c, 0, 66, 64
2, 39950, Note_on_c, 0, 66, 0
2, 39960, Note_on_c, 0, 64, 64
2, 40070, Note_on_c, 0, 64, 0
2, 40080, Note_on_c, 0, 62, 64
2, 40310, Note_on_c, 0, 62, 0
2, 40319, Note_on_c, 0, 59, 0
2, 40320, Note_on_c, 0, 60, 80
2, 40439, Note_on_c, 0, 60, 0
2, 40440, Note_on_c, 0, 59, 80
2, 40559, Note_on_c, 0, 59, 0
2, 40560, Note_on_c, 0, 57, 80
2, 40800, Note_on_c, 0, 69, 64
2, 41030, Note_on_c, 0, 69, 0
2, 41040, Note_on_c, 0, 64, 64
2, 41270, Note_on_c, 0, 64, 0
2, 41279, Note_on_c, 0, 57, 0
2, 41280, Note_on_c, 0, 59, 80
2, 41280, Note_on_c, 0, 62, 64
2, 41390, Note_on_c, 0, 62, 0
2, 41399, Note_on_c, 0, 59, 0
2, 41400, Note_on_c, 0, 60, 80
2, 41400, Note_on_c, 0, 64, 64
2, 41510, Note_on_c, 0, 64, 0
2, 41519, Note_on_c, 0, 60, 0
2, 41520, Note_on_c, 0, 62, 80
2, 41520, Note_on_c, 0, 66, 64
2, 41750, Note_on_c, 0, 66, 0
2, 41760, Note_on_c, 0, 67, 64
2, 42230, Note_on_c, 0, 67, 0
2, 42239, Note_on_c, 0, 62, 0
2, 42240, Note_on_c, 0, 60, 80
2, 42240, Note_on_c, 0, 66, 64
2, 42359, Note_on_c, 0, 60, 0
2, 42360, Note_on_c, 0, 62, 80
2, 42470, Note_on_c, 0, 66, 0
2, 42479, Note_on_c, 0, 62, 0
2, 42480, Note_on_c, 0, 55, 80
2, 42480, Note_on_c, 0, 62, 64
2, 42719, Note_on_c, 0, 55, 0
2, 42720, Note_on_c, 0, 57, 80
2, 42950, Note_on_c, 0, 62, 0
2, 42959, Note_on_c, 0, 57, 0
2, 42960, Note_on_c, 0, 59, 80
2, 42960, Note_on_c, 0, 62, 64
2, 43199, Note_on_c, 0, 59, 0
2, 43200, Note_on_c, 0, 55, 80
2, 43430, Note_on_c, 0, 62, 0
2, 43439, Note_on_c, 0, 55, 0
2, 43440, Note_on_c, 0, 60, 80
2, 43440, Note_on_c, 0, 64, 64
2, 43910, Note_on_c, 0, 64, 0
2, 43920, Note_on_c, 0, 64, 64
2, 44159, Note_on_c, 0, 60, 0
2, 44160, Note_on_c, 0, 61, 80
2, 44390, Note_on_c, 0, 64, 0
2, 44399, Note_on_c, 0, 61, 0
2, 44400, Note_on_c, 0, 62, 80
2, 44640, Note_on_c, 0, 64, 64
2, 44870, Note_on_c, 0, 64, 0
2, 44879, Note_on_c, 0, 62, 0
2, 44880, Note_on_c, 0, 50, 80
2, 44880, Note_on_c, 0, 62, 64
2, 45110, Note_on_c, 0, 62, 0
2, 45120, Note_on_c, 0, 60, 64
2, 45350, Note_on_c, 0, 60, 0
2, 45359, Note_on_c, 0, 50, 0
2, 45360, Note_on_c, 0, 55, 80
2, 45360, Note_on_c, 0, 59, 64
2, 45590, Note_on_c, 0, 59, 0
2, 45600, Note_on_c, 0, 57, 64
2, 45830, Note_on_c, 0, 57, 0
2, 45839, Note_on_c, 0, 55, 0
2, 45840, Note_on_c, 0, 43, 80
2, 45840, Note_on_c, 0, 55, 64
2, 46070, Note_on_c, 0, 55, 0
2, 46079, Note_on_c, 0, 43, 0
2, 46080, Note_on_c, 0, 66, 80
2, 46319, Note_on_c, 0, 66, 0
2, 46320, Note_on_c, 0, 62, 80
2, 46560, Note_on_c, 0, 66, 64
2, 46790, Note_on_c, 0, 66, 0
2, 46799, Note_on_c, 0, 62, 0
2, 46800, Note_on_c, 0, 60, 80
2, 46800, Note_on_c, 0, 62, 64
2, 47030, Note_on_c, 0, 62, 0
2, 47040, Note_on_c, 0, 66, 64
2, 47270, Note_on_c, 0, 66, 0
2, 47279, Note_on_c, 0, 60, 0
2, 47280, Note_on_c, 0, 59, 80
2, 47280, Note_on_c, 0, 67, 64
2, 47510, Note_on_c, 0, 67, 0
2, 47520, Note_on_c, 0, 62, 64
2, 47750, Note_on_c, 0, 62, 0
2, 47759, Note_on_c, 0, 59, 0
2, 47760, Note_on_c, 0, 55, 80
2, 47760, Note_on_c, 0, 62, 64
2, 47990, Note_on_c, 0, 62, 0
2, 48000, Note_on_c, 0, 67, 64
2, 48230, Note_on_c, 0, 67, 0
2, 48239, Note_on_c, 0, 55, 0
2, 48240, Note_on_c, 0, 60, 80
2, 48240, Note_on_c, 0, 64, 64
2, 48470, Note_on_c, 0, 64, 0
2, 48479, Note_on_c, 0, 60, 0
2, 48480, Note_on_c, 0, 59, 80
2, 48719, Note_on_c, 0, 59, 0
2, 48720, Note_on_c, 0, 60, 80
2, 48959, Note_on_c, 0, 60, 0
2, 48960, Note_on_c, 0, 57, 80
2, 49199, Note_on_c, 0, 57, 0
2, 49200, Note_on_c, 0, 59, 80
2, 49200, Note_on_c, 0, 66, 64
2, 49670, Note_on_c, 0, 66, 0
2, 49680, Note_on_c, 0, 66, 64
2, 49919, Note_on_c, 0, 59, 0
2, 49920, Note_on_c, 0, 57, 80
2, 50150, Note_on_c, 0, 66, 0
2, 50159, Note_on_c, 0, 57, 0
2, 50160, Note_on_c, 0, 55, 80
2, 50160, Note_on_c, 0, 67, 64
2, 50399, Note_on_c, 0, 55, 0
2, 50400, Note_on_c, 0, 64, 80
2, 50630, Note_on_c, 0, 67, 0
2, 50639, Note_on_c, 0, 64, 0
2, 50640, Note_on_c, 0, 55, 80
2, 50640, Note_on_c, 0, 67, 64
2, 50879, Note_on_c, 0, 55, 0
2, 50880, Note_on_c, 0, 64, 80
2, 51110, Note_on_c, 0, 67, 0
2, 51119, Note_on_c, 0, 64, 0
2, 51120, Note_on_c, 0, 57, 80
2, 51120, Note_on_c, 0, 66, 64
2, 51350, Note_on_c, 0, 66, 0
2, 51360, Note_on_c, 0, 67, 64
2, 51590, Note_on_c, 0, 67, 0
2, 51600, Note_on_c, 0, 66, 64
2, 51830, Note_on_c, 0, 66, 0
2, 51839, Note_on_c, 0, 57, 0
2, 51840, Note_on_c, 0, 58, 80
2, 51840, Note_on_c, 0, 64, 64
2, 52070, Note_on_c, 0, 64, 0
2, 52079, Note_on_c, 0, 58, 0
2, 52080, Note_on_c, 0, 59, 80
2, 52080, Note_on_c, 0, 63, 64
2, 52310, Note_on_c, 0, 63, 0
2, 52320, Note_on_c, 0, 64, 64
2, 52430, Note_on_c, 0, 64, 0
2, 52440, Note_on_c, 0, 66, 64
2, 52550, Note_on_c, 0, 66, 0
2, 52559, Note_on_c, 0, 59, 0
2, 52560, Note_on_c, 0, 47, 80
2, 52560, Note_on_c, 0, 59, 64
2, 53039, Note_on_c, 0, 47, 0
2, 53040, Note_on_c, 0, 52, 80
2, 53279, Note_on_c, 0, 59, 0
2, 53280, Note_on_c, 0, 57, 64
2, 53390, Note_on_c, 0, 57, 0
2, 53400, Note_on_c, 0, 59, 64
2, 53510, Note_on_c, 0, 59, 0
2, 53520, Note_on_c, 0, 55, 64
2, 53750, Note_on_c, 0, 55, 0
2, 53759, Note_on_c, 0, 52, 0
2, 53760, Note_on_c, 0, 50, 80
2, 53760, Note_on_c, 0, 57, 64
2, 53870, Note_on_c, 0, 57, 0
2, 53880, Note_on_c, 0, 59, 64
2, 53990, Note_on_c, 0, 59, 0
2, 53999, Note_on_c, 0, 50, 0
2, 54000, Note_on_c, 0, 48, 80
2, 54000, Note_on_c, 0, 60, 64
2, 54230, Note_on_c, 0, 60, 0
2, 54240, Note_on_c, 0, 62, 64
2, 54470, Note_on_c, 0, 62, 0
2, 54479, Note_on_c, 0, 48, 0
2, 54480, Note_on_c, 0, 60, 80
2, 54480, Note_on_c, 0, 64, 64
2, 54710, Note_on_c, 0, 64, 0
2, 54720, Note_on_c, 0, 66, 64
2, 54950, Note_on_c, 0, 66, 0
2, 54959, Note_on_c, 0, 60, 0
2, 54960, Note_on_c, 0, 59, 80
2, 54960, Note_on_c, 0, 67, 80
2, 55199, Note_on_c, 0, 67, 0
2, 55200, Note_on_c, 0, 66, 64
2, 55310, Note_on_c, 0, 66, 0
2, 55320, Note_on_c, 0, 64, 64
2, 55430, Note_on_c, 0, 64, 0
2, 55440, Note_on_c, 0, 62, 64
2, 55670, Note_on_c, 0, 62, 0
2, 55679, Note_on_c, 0, 59, 0
2, 55680, Note_on_c, 0, 60, 80
2, 55799, Note_on_c, 0, 60, 0
2, 55800, Note_on_c, 0, 59, 80
2, 55919, Note_on_c, 0, 59, 0
2, 55920, Note_on_c, 0, 57, 80
2, 56160, Note_on_c, 0, 69, 64
2, 56390, Note_on_c, 0, 69, 0
2, 56400, Note_on_c, 0, 64, 64
2, 56630, Note_on_c, 0, 64, 0
2, 56639, Note_on_c, 0, 57, 0
2, 56640, Note_on_c, 0, 59, 80
2, 56640, Note_on_c, 0, 62, 64
2, 56750, Note_on_c, 0, 62, 0
2, 56759, Note_on_c, 0, 59, 0
2, 56760, Note_on_c, 0, 60, 80
2, 56760, Note_on_c, 0, 64, 64
2, 56870, Note_on_c, 0, 64, 0
2, 56879, Note_on_c, 0, 60, 0
2, 56880, Note_on_c, 0, 62, 80
2, 56880, Note_on_c, 0, 66, 64
2, 57110, Note_on_c, 0, 66, 0
2, 57120, Note_on_c, 0, 67, 64
2, 57590, Note_on_c, 0, 67, 0
2, 57599, Note_on_c, 0, 62, 0
2, 57600, Note_on_c, 0, 60, 80
2, 57600, Note_on_c, 0, 66, 64
2, 57719, Note_on_c, 0, 60, 0
2, 57720, Note_on_c, 0, 62, 80
2, 57830, Note_on_c, 0, 66, 0
2, 57839, Note_on_c, 0, 62, 0
2, 57840, Note_on_c, 0, 55, 80
2, 57840, Note_on_c, 0, 62, 64
2, 58079, Note_on_c, 0, 55, 0
2, 58080, Note_on_c, 0, 57, 80
2, 58310, Note_on_c, 0, 62, 0
2, 58319, Note_on_c, 0, 57, 0
2, 58320, Note_on_c, 0, 59, 80
2, 58320, Note_on_c, 0, 62, 64
2, 58559, Note_on_c, 0, 59, 0
2, 58560, Note_on_c, 0, 55, 80
2, 58790, Note_on_c, 0, 62, 0
2, 58799, Note_on_c, 0, 55, 0
2, 58800, Note_on_c, 0, 60, 80
2, 58800, Note_on_c, 0, 64, 64
2, 59270, Note_on_c, 0, 64, 0
2, 59280, Note_on_c, 0, 64, 64
2, 59519, Note_on_c, 0, 60, 0
2, 59520, Note_on_c, 0, 61, 80
2, 59750, Note_on_c, 0, 64, 0
2, 59759, Note_on_c, 0, 61, 0
2, 59760, Note_on_c, 0, 62, 80
2, 60000, Note_on_c, 0, 64, 64
2, 60230, Note_on_c, 0, 64, 0
2, 60239, Note_on_c, 0, 62, 0
2, 60240, Note_on_c, 0, 50, 80
2, 60240, Note_on_c, 0, 62, 64
2, 60470, Note_on_c, 0, 62, 0
2, 60480, Note_on_c, 0, 60, 64
2, 60710, Note_on_c, 0, 60, 0
2, 60719, Note_on_c, 0, 50, 0
2, 60720, Note_on_c, 0, 55, 80
2, 60720, Note_on_c, 0, 59, 64
2, 60950, Note_on_c, 0, 59, 0
2, 60960, Note_on_c, 0, 57, 64
2, 61190, Note_on_c, 0, 57, 0
2, 61199, Note_on_c, 0, 55, 0
2, 61200, Note_on_c, 0, 43, 80
2, 61200, Note_on_c, 0, 55, 64
2, 61430, Note_on_c, 0, 55, 0
2, 61439, Note_on_c, 0, 43, 0
2, 61440, End_track
0, 0, End_of_file
