0, 0, Header, 1, 2, 480
1, 0, Start_track
1, 0, Unknown_meta_event, 8, 36, 71, 111, 108, 100, 98, 101, 114, 103, 32, 86, 97, 114, 105, 97, 116, 105, 111, 110, 115, 58, 32, 86, 97, 114, 105, 97, 116, 105, 111, 110, 32, 88, 88, 86, 73, 0
1, 0, Unknown_meta_event, 9, 8, 66, 87, 86, 32, 57, 56, 56, 0
1, 0, Unknown_meta_event, 10, 11, 74, 46, 32, 83, 46, 32, 66, 97, 99, 104, 0
1, 0, Time_signature, 3, 2, 24, 8
1, 0, Key_signature, 1, "major"
1, 0, Program_c, 0, 46
1, 0, Note_on_c, 0, 71, 80
1, 0, Note_on_c, 0, 55, 80
1, 2, Control_c, 0, 7, 100
1, 4, Control_c, 0, 10, 64
1, 6, Control_c, 0, 91, 30
1, 8, Control_c, 0, 93, 30
1, 79, Note_on_c, 0, 55, 0
1, 80, Note_on_c, 0, 57, 80
1, 159, Note_on_c, 0, 57, 0
1, 160, Note_on_c, 0, 55, 80
1, 239, Note_on_c, 0, 55, 0
1, 240, Note_on_c, 0, 50, 80
1, 319, Note_on_c, 0, 50, 0
1, 320, Note_on_c, 0, 52, 80
1, 399, Note_on_c, 0, 52, 0
1, 400, Note_on_c, 0, 54, 80
1, 479, Note_on_c, 0, 71, 0
1, 479, Note_on_c, 0, 54, 0
1, 480, Note_on_c, 0, 71, 80
1, 480, Note_on_c, 0, 55, 80
1, 559, Note_on_c, 0, 55, 0
1, 560, Note_on_c, 0, 54, 80
1, 639, Note_on_c, 0, 54, 0
1, 640, Note_on_c, 0, 55, 80
1, 719, Note_on_c, 0, 55, 0
1, 720, Note_on_c, 0, 57, 80
1, 799, Note_on_c, 0, 57, 0
1, 800, Note_on_c, 0, 55, 80
1, 879, Note_on_c, 0, 55, 0
1, 880, Note_on_c, 0, 57, 80
1, 959, Note_on_c, 0, 71, 0
1, 959, Note_on_c, 0, 57, 0
1, 960, Note_on_c, 0, 59, 80
1, 1039, Note_on_c, 0, 59, 0
1, 1040, Note_on_c, 0, 57, 80
1, 1119, Note_on_c, 0, 57, 0
1, 1120, Note_on_c, 0, 59, 80
1, 1199, Note_on_c, 0, 59, 0
1, 1200, Note_on_c, 0, 71, 80
1, 1200, Note_on_c, 0, 60, 80
1, 1279, Note_on_c, 0, 60, 0
1, 1280, Note_on_c, 0, 59, 80
1, 1359, Note_on_c, 0, 59, 0
1, 1360, Note_on_c, 0, 61, 80
1, 1439, Note_on_c, 0, 71, 0
1, 1439, Note_on_c, 0, 61, 0
1, 1440, Note_on_c, 0, 69, 80
1, 1440, Note_on_c, 0, 62, 80
1, 1519, Note_on_c, 0, 62, 0
1, 1520, Note_on_c, 0, 64, 80
1, 1599, Note_on_c, 0, 64, 0
1, 1600, Note_on_c, 0, 62, 80
1, 1679, Note_on_c, 0, 62, 0
1, 1680, Note_on_c, 0, 57, 80
1, 1759, Note_on_c, 0, 57, 0
1, 1760, Note_on_c, 0, 59, 80
1, 1839, Note_on_c, 0, 59, 0
1, 1840, Note_on_c, 0, 61, 80
1, 1919, Note_on_c, 0, 69, 0
1, 1919, Note_on_c, 0, 61, 0
1, 1920, Note_on_c, 0, 69, 80
1, 1920, Note_on_c, 0, 62, 80
1, 1999, Note_on_c, 0, 62, 0
1, 2000, Note_on_c, 0, 61, 80
1, 2079, Note_on_c, 0, 61, 0
1, 2080, Note_on_c, 0, 62, 80
1, 2159, Note_on_c, 0, 62, 0
1, 2160, Note_on_c, 0, 64, 80
1, 2239, Note_on_c, 0, 64, 0
1, 2240, Note_on_c, 0, 62, 80
1, 2319, Note_on_c, 0, 62, 0
1, 2320, Note_on_c, 0, 64, 80
1, 2399, Note_on_c, 0, 69, 0
1, 2399, Note_on_c, 0, 64, 0
1, 2400, Note_on_c, 0, 66, 80
1, 2479, Note_on_c, 0, 66, 0
1, 2480, Note_on_c, 0, 64, 80
1, 2559, Note_on_c, 0, 64, 0
1, 2560, Note_on_c, 0, 66, 80
1, 2639, Note_on_c, 0, 66, 0
1, 2640, Note_on_c, 0, 74, 80
1, 2640, Note_on_c, 0, 67, 80
1, 2719, Note_on_c, 0, 67, 0
1, 2720, Note_on_c, 0, 64, 80
1, 2799, Note_on_c, 0, 64, 0
1, 2800, Note_on_c, 0, 66, 80
1, 2879, Note_on_c, 0, 74, 0
1, 2879, Note_on_c, 0, 66, 0
1, 2880, Note_on_c, 0, 74, 80
1, 2880, Note_on_c, 0, 67, 80
1, 2959, Note_on_c, 0, 67, 0
1, 2960, Note_on_c, 0, 69, 80
1, 3039, Note_on_c, 0, 69, 0
1, 3040, Note_on_c, 0, 67, 80
1, 3119, Note_on_c, 0, 67, 0
1, 3120, Note_on_c, 0, 59, 80
1, 3199, Note_on_c, 0, 59, 0
1, 3200, Note_on_c, 0, 64, 80
1, 3279, Note_on_c, 0, 64, 0
1, 3280, Note_on_c, 0, 66, 80
1, 3359, Note_on_c, 0, 74, 0
1, 3359, Note_on_c, 0, 66, 0
1, 3360, Note_on_c, 0, 74, 80
1, 3360, Note_on_c, 0, 67, 80
1, 3419, Note_on_c, 0, 74, 0
1, 3420, Note_on_c, 0, 73, 80
1, 3439, Note_on_c, 0, 67, 0
1, 3440, Note_on_c, 0, 66, 80
1, 3479, Note_on_c, 0, 73, 0
1, 3480, Note_on_c, 0, 74, 80
1, 3519, Note_on_c, 0, 66, 0
1, 3520, Note_on_c, 0, 67, 80
1, 3539, Note_on_c, 0, 74, 0
1, 3540, Note_on_c, 0, 73, 80
1, 3599, Note_on_c, 0, 73, 0
1, 3599, Note_on_c, 0, 67, 0
1, 3600, Note_on_c, 0, 74, 80
1, 3600, Note_on_c, 0, 69, 80
1, 3659, Note_on_c, 0, 74, 0
1, 3660, Note_on_c, 0, 73, 80
1, 3679, Note_on_c, 0, 69, 0
1, 3680, Note_on_c, 0, 67, 80
1, 3719, Note_on_c, 0, 73, 0
1, 3720, Note_on_c, 0, 74, 80
1, 3759, Note_on_c, 0, 67, 0
1, 3760, Note_on_c, 0, 69, 80
1, 3779, Note_on_c, 0, 74, 0
1, 3780, Note_on_c, 0, 73, 80
1, 3839, Note_on_c, 0, 73, 0
1, 3839, Note_on_c, 0, 69, 0
1, 3840, Note_on_c, 0, 71, 80
1, 3919, Note_on_c, 0, 71, 0
1, 3920, Note_on_c, 0, 69, 80
1, 3999, Note_on_c, 0, 69, 0
1, 4000, Note_on_c, 0, 71, 80
1, 4079, Note_on_c, 0, 71, 0
1, 4080, Note_on_c, 0, 67, 80
1, 4080, Note_on_c, 0, 73, 80
1, 4159, Note_on_c, 0, 73, 0
1, 4160, Note_on_c, 0, 71, 80
1, 4239, Note_on_c, 0, 71, 0
1, 4240, Note_on_c, 0, 73, 80
1, 4319, Note_on_c, 0, 67, 0
1, 4319, Note_on_c, 0, 73, 0
1, 4320, Note_on_c, 0, 67, 80
1, 4320, Note_on_c, 0, 74, 80
1, 4399, Note_on_c, 0, 74, 0
1, 4400, Note_on_c, 0, 76, 80
1, 4479, Note_on_c, 0, 76, 0
1, 4480, Note_on_c, 0, 74, 80
1, 4559, Note_on_c, 0, 74, 0
1, 4560, Note_on_c, 0, 69, 80
1, 4639, Note_on_c, 0, 69, 0
1, 4640, Note_on_c, 0, 71, 80
1, 4679, Note_on_c, 0, 67, 0
1, 4680, Note_on_c, 0, 64, 80
1, 4719, Note_on_c, 0, 71, 0
1, 4720, Note_on_c, 0, 73, 80
1, 4799, Note_on_c, 0, 64, 0
1, 4799, Note_on_c, 0, 73, 0
1, 4800, Note_on_c, 0, 64, 80
1, 4800, Note_on_c, 0, 74, 80
1, 4879, Note_on_c, 0, 74, 0
1, 4880, Note_on_c, 0, 73, 80
1, 4959, Note_on_c, 0, 73, 0
1, 4960, Note_on_c, 0, 74, 80
1, 5039, Note_on_c, 0, 64, 0
1, 5039, Note_on_c, 0, 74, 0
1, 5040, Note_on_c, 0, 66, 80
1, 5040, Note_on_c, 0, 76, 80
1, 5119, Note_on_c, 0, 76, 0
1, 5120, Note_on_c, 0, 74, 80
1, 5199, Note_on_c, 0, 74, 0
1, 5200, Note_on_c, 0, 76, 80
1, 5279, Note_on_c, 0, 76, 0
1, 5280, Note_on_c, 0, 78, 80
1, 5359, Note_on_c, 0, 78, 0
1, 5360, Note_on_c, 0, 76, 80
1, 5439, Note_on_c, 0, 76, 0
1, 5440, Note_on_c, 0, 78, 80
1, 5519, Note_on_c, 0, 66, 0
1, 5519, Note_on_c, 0, 78, 0
1, 5520, Note_on_c, 0, 69, 80
1, 5520, Note_on_c, 0, 79, 80
1, 5599, Note_on_c, 0, 79, 0
1, 5600, Note_on_c, 0, 76, 80
1, 5679, Note_on_c, 0, 76, 0
1, 5680, Note_on_c, 0, 78, 80
1, 5759, Note_on_c, 0, 69, 0
1, 5759, Note_on_c, 0, 78, 0
1, 5760, Note_on_c, 0, 62, 80
1, 5760, Note_on_c, 0, 79, 80
1, 5839, Note_on_c, 0, 79, 0
1, 5840, Note_on_c, 0, 78, 80
1, 5919, Note_on_c, 0, 78, 0
1, 5920, Note_on_c, 0, 79, 80
1, 5999, Note_on_c, 0, 79, 0
1, 6000, Note_on_c, 0, 74, 80
1, 6079, Note_on_c, 0, 74, 0
1, 6080, Note_on_c, 0, 72, 80
1, 6119, Note_on_c, 0, 62, 0
1, 6120, Note_on_c, 0, 64, 80
1, 6159, Note_on_c, 0, 72, 0
1, 6160, Note_on_c, 0, 74, 80
1, 6239, Note_on_c, 0, 64, 0
1, 6239, Note_on_c, 0, 74, 0
1, 6240, Note_on_c, 0, 65, 80
1, 6240, Note_on_c, 0, 71, 80
1, 6319, Note_on_c, 0, 71, 0
1, 6320, Note_on_c, 0, 67, 80
1, 6399, Note_on_c, 0, 67, 0
1, 6400, Note_on_c, 0, 66, 80
1, 6479, Note_on_c, 0, 66, 0
1, 6480, Note_on_c, 0, 67, 80
1, 6559, Note_on_c, 0, 67, 0
1, 6560, Note_on_c, 0, 71, 80
1, 6639, Note_on_c, 0, 71, 0
1, 6640, Note_on_c, 0, 74, 80
1, 6719, Note_on_c, 0, 65, 0
1, 6719, Note_on_c, 0, 74, 0
1, 6720, Note_on_c, 0, 77, 80
1, 6799, Note_on_c, 0, 77, 0
1, 6800, Note_on_c, 0, 76, 80
1, 6879, Note_on_c, 0, 76, 0
1, 6880, Note_on_c, 0, 77, 80
1, 6959, Note_on_c, 0, 77, 0
1, 6960, Note_on_c, 0, 67, 80
1, 6960, Note_on_c, 0, 74, 80
1, 7039, Note_on_c, 0, 74, 0
1, 7040, Note_on_c, 0, 71, 80
1, 7119, Note_on_c, 0, 71, 0
1, 7120, Note_on_c, 0, 74, 80
1, 7199, Note_on_c, 0, 67, 0
1, 7199, Note_on_c, 0, 74, 0
1, 7200, Note_on_c, 0, 67, 80
1, 7200, Note_on_c, 0, 76, 80
1, 7279, Note_on_c, 0, 76, 0
1, 7280, Note_on_c, 0, 74, 80
1, 7359, Note_on_c, 0, 74, 0
1, 7360, Note_on_c, 0, 76, 80
1, 7439, Note_on_c, 0, 76, 0
1, 7440, Note_on_c, 0, 72, 80
1, 7519, Note_on_c, 0, 72, 0
1, 7520, Note_on_c, 0, 71, 80
1, 7559, Note_on_c, 0, 67, 0
1, 7560, Note_on_c, 0, 64, 80
1, 7599, Note_on_c, 0, 71, 0
1, 7600, Note_on_c, 0, 72, 80
1, 7679, Note_on_c, 0, 64, 0
1, 7679, Note_on_c, 0, 72, 0
1, 7680, Note_on_c, 0, 62, 80
1, 7680, Note_on_c, 0, 67, 80
1, 7759, Note_on_c, 0, 67, 0
1, 7760, Note_on_c, 0, 64, 80
1, 7839, Note_on_c, 0, 64, 0
1, 7840, Note_on_c, 0, 62, 80
1, 7919, Note_on_c, 0, 62, 0
1, 7919, Note_on_c, 0, 62, 0
1, 7920, Note_on_c, 0, 60, 80
1, 7920, Note_on_c, 0, 64, 80
1, 7999, Note_on_c, 0, 64, 0
1, 8000, Note_on_c, 0, 67, 80
1, 8079, Note_on_c, 0, 67, 0
1, 8080, Note_on_c, 0, 72, 80
1, 8159, Note_on_c, 0, 72, 0
1, 8160, Note_on_c, 0, 76, 80
1, 8239, Note_on_c, 0, 76, 0
1, 8240, Note_on_c, 0, 74, 80
1, 8319, Note_on_c, 0, 74, 0
1, 8320, Note_on_c, 0, 76, 80
1, 8399, Note_on_c, 0, 60, 0
1, 8399, Note_on_c, 0, 76, 0
1, 8400, Note_on_c, 0, 64, 80
1, 8400, Note_on_c, 0, 72, 80
1, 8479, Note_on_c, 0, 72, 0
1, 8480, Note_on_c, 0, 69, 80
1, 8559, Note_on_c, 0, 69, 0
1, 8560, Note_on_c, 0, 72, 80
1, 8639, Note_on_c, 0, 64, 0
1, 8639, Note_on_c, 0, 72, 0
1, 8640, Note_on_c, 0, 57, 80
1, 8640, Note_on_c, 0, 74, 80
1, 8719, Note_on_c, 0, 74, 0
1, 8720, Note_on_c, 0, 72, 80
1, 8799, Note_on_c, 0, 72, 0
1, 8800, Note_on_c, 0, 74, 80
1, 8879, Note_on_c, 0, 74, 0
1, 8880, Note_on_c, 0, 69, 80
1, 8959, Note_on_c, 0, 69, 0
1, 8960, Note_on_c, 0, 67, 80
1, 8999, Note_on_c, 0, 57, 0
1, 9000, Note_on_c, 0, 59, 80
1, 9039, Note_on_c, 0, 67, 0
1, 9040, Note_on_c, 0, 69, 80
1, 9119, Note_on_c, 0, 59, 0
1, 9119, Note_on_c, 0, 69, 0
1, 9120, Note_on_c, 0, 60, 80
1, 9120, Note_on_c, 0, 66, 80
1, 9199, Note_on_c, 0, 66, 0
1, 9200, Note_on_c, 0, 62, 80
1, 9279, Note_on_c, 0, 62, 0
1, 9280, Note_on_c, 0, 61, 80
1, 9359, Note_on_c, 0, 61, 0
1, 9360, Note_on_c, 0, 62, 80
1, 9439, Note_on_c, 0, 62, 0
1, 9440, Note_on_c, 0, 66, 80
1, 9519, Note_on_c, 0, 66, 0
1, 9520, Note_on_c, 0, 69, 80
1, 9599, Note_on_c, 0, 60, 0
1, 9599, Note_on_c, 0, 69, 0
1, 9600, Note_on_c, 0, 72, 80
1, 9679, Note_on_c, 0, 72, 0
1, 9680, Note_on_c, 0, 71, 80
1, 9759, Note_on_c, 0, 71, 0
1, 9760, Note_on_c, 0, 72, 80
1, 9839, Note_on_c, 0, 72, 0
1, 9840, Note_on_c, 0, 62, 80
1, 9840, Note_on_c, 0, 69, 80
1, 9919, Note_on_c, 0, 69, 0
1, 9920, Note_on_c, 0, 66, 80
1, 9999, Note_on_c, 0, 66, 0
1, 10000, Note_on_c, 0, 69, 80
1, 10079, Note_on_c, 0, 62, 0
1, 10079, Note_on_c, 0, 69, 0
1, 10080, Note_on_c, 0, 62, 80
1, 10080, Note_on_c, 0, 71, 80
1, 10159, Note_on_c, 0, 71, 0
1, 10160, Note_on_c, 0, 69, 80
1, 10239, Note_on_c, 0, 69, 0
1, 10240, Note_on_c, 0, 71, 80
1, 10319, Note_on_c, 0, 71, 0
1, 10320, Note_on_c, 0, 67, 80
1, 10399, Note_on_c, 0, 67, 0
1, 10400, Note_on_c, 0, 66, 80
1, 10439, Note_on_c, 0, 62, 0
1, 10440, Note_on_c, 0, 59, 80
1, 10479, Note_on_c, 0, 66, 0
1, 10480, Note_on_c, 0, 67, 80
1, 10559, Note_on_c, 0, 59, 0
1, 10559, Note_on_c, 0, 67, 0
1, 10560, Note_on_c, 0, 55, 80
1, 10560, Note_on_c, 0, 62, 80
1, 10639, Note_on_c, 0, 62, 0
1, 10640, Note_on_c, 0, 59, 80
1, 10719, Note_on_c, 0, 59, 0
1, 10720, Note_on_c, 0, 57, 80
1, 10799, Note_on_c, 0, 57, 0
1, 10800, Note_on_c, 0, 59, 80
1, 10879, Note_on_c, 0, 59, 0
1, 10880, Note_on_c, 0, 62, 80
1, 10959, Note_on_c, 0, 62, 0
1, 10960, Note_on_c, 0, 67, 80
1, 11039, Note_on_c, 0, 55, 0
1, 11039, Note_on_c, 0, 67, 0
1, 11040, Note_on_c, 0, 71, 80
1, 11119, Note_on_c, 0, 71, 0
1, 11120, Note_on_c, 0, 67, 80
1, 11199, Note_on_c, 0, 67, 0
1, 11200, Note_on_c, 0, 66, 80
1, 11279, Note_on_c, 0, 66, 0
1, 11280, Note_on_c, 0, 67, 80
1, 11359, Note_on_c, 0, 67, 0
1, 11360, Note_on_c, 0, 71, 80
1, 11439, Note_on_c, 0, 71, 0
1, 11440, Note_on_c, 0, 74, 80
1, 11519, Note_on_c, 0, 74, 0
1, 11520, Note_on_c, 0, 71, 80
1, 11520, Note_on_c, 0, 79, 80
1, 11879, Note_on_c, 0, 79, 0
1, 11880, Note_on_c, 0, 78, 80
1, 11939, Note_on_c, 0, 78, 0
1, 11940, Note_on_c, 0, 76, 80
1, 11999, Note_on_c, 0, 71, 0
1, 11999, Note_on_c, 0, 76, 0
1, 12000, Note_on_c, 0, 71, 80
1, 12000, Note_on_c, 0, 74, 80
1, 12479, Note_on_c, 0, 71, 0
1, 12479, Note_on_c, 0, 74, 0
1, 12720, Note_on_c, 0, 79, 80
1, 12720, Note_on_c, 0, 83, 80
1, 12959, Note_on_c, 0, 79, 0
1, 12959, Note_on_c, 0, 83, 0
1, 12960, Note_on_c, 0, 79, 80
1, 12960, Note_on_c, 0, 81, 80
1, 13319, Note_on_c, 0, 79, 0
1, 13320, Note_on_c, 0, 76, 80
1, 13439, Note_on_c, 0, 76, 0
1, 13439, Note_on_c, 0, 81, 0
1, 13440, Note_on_c, 0, 78, 80
1, 13440, Note_on_c, 0, 81, 80
1, 13499, Note_on_c, 0, 78, 0
1, 13500, Note_on_c, 0, 76, 80
1, 13559, Note_on_c, 0, 76, 0
1, 13560, Note_on_c, 0, 78, 80
1, 13919, Note_on_c, 0, 78, 0
1, 13919, Note_on_c, 0, 81, 0
1, 14160, Note_on_c, 0, 72, 80
1, 14160, Note_on_c, 0, 81, 80
1, 14399, Note_on_c, 0, 72, 0
1, 14399, Note_on_c, 0, 81, 0
1, 14400, Note_on_c, 0, 71, 80
1, 14400, Note_on_c, 0, 81, 80
1, 14759, Note_on_c, 0, 71, 0
1, 14760, Note_on_c, 0, 75, 80
1, 14879, Note_on_c, 0, 75, 0
1, 14879, Note_on_c, 0, 81, 0
1, 14880, Note_on_c, 0, 76, 80
1, 14880, Note_on_c, 0, 79, 80
1, 14939, Note_on_c, 0, 76, 0
1, 14940, Note_on_c, 0, 75, 80
1, 14999, Note_on_c, 0, 75, 0
1, 15000, Note_on_c, 0, 76, 80
1, 15359, Note_on_c, 0, 76, 0
1, 15359, Note_on_c, 0, 79, 0
1, 15600, Note_on_c, 0, 76, 80
1, 15600, Note_on_c, 0, 79, 80
1, 15839, Note_on_c, 0, 76, 0
1, 15839, Note_on_c, 0, 79, 0
1, 15840, Note_on_c, 0, 69, 80
1, 15840, Note_on_c, 0, 79, 80
1, 16199, Note_on_c, 0, 69, 0
1, 16199, Note_on_c, 0, 79, 0
1, 16200, Note_on_c, 0, 73, 80
1, 16200, Note_on_c, 0, 76, 80
1, 16319, Note_on_c, 0, 73, 0
1, 16319, Note_on_c, 0, 76, 0
1, 16320, Note_on_c, 0, 64, 80
1, 16320, Note_on_c, 0, 71, 80
1, 16559, Note_on_c, 0, 71, 0
1, 16560, Note_on_c, 0, 69, 80
1, 16799, Note_on_c, 0, 64, 0
1, 17039, Note_on_c, 0, 69, 0
1, 17040, Note_on_c, 0, 73, 80
1, 17040, Note_on_c, 0, 79, 80
1, 17279, Note_on_c, 0, 73, 0
1, 17279, Note_on_c, 0, 79, 0
1, 17280, Note_on_c, 0, 73, 80
1, 17280, Note_on_c, 0, 79, 80
1, 17639, Note_on_c, 0, 79, 0
1, 17640, Note_on_c, 0, 76, 80
1, 17759, Note_on_c, 0, 73, 0
1, 17759, Note_on_c, 0, 76, 0
1, 17760, Note_on_c, 0, 74, 80
1, 17760, Note_on_c, 0, 76, 80
1, 17999, Note_on_c, 0, 76, 0
1, 18000, Note_on_c, 0, 78, 80
1, 18239, Note_on_c, 0, 74, 0
1, 18479, Note_on_c, 0, 78, 0
1, 18480, Note_on_c, 0, 74, 80
1, 18480, Note_on_c, 0, 81, 80
1, 18719, Note_on_c, 0, 74, 0
1, 18719, Note_on_c, 0, 81, 0
1, 18720, Note_on_c, 0, 74, 80
1, 18720, Note_on_c, 0, 79, 80
1, 19079, Note_on_c, 0, 79, 0
1, 19080, Note_on_c, 0, 76, 80
1, 19199, Note_on_c, 0, 74, 0
1, 19199, Note_on_c, 0, 76, 0
1, 19200, Note_on_c, 0, 74, 80
1, 19200, Note_on_c, 0, 78, 80
1, 19439, Note_on_c, 0, 78, 0
1, 19440, Note_on_c, 0, 79, 80
1, 19679, Note_on_c, 0, 74, 0
1, 19919, Note_on_c, 0, 79, 0
1, 19920, Note_on_c, 0, 76, 80
1, 19920, Note_on_c, 0, 79, 80
1, 20159, Note_on_c, 0, 76, 0
1, 20159, Note_on_c, 0, 79, 0
1, 20160, Note_on_c, 0, 69, 80
1, 20160, Note_on_c, 0, 79, 80
1, 20519, Note_on_c, 0, 69, 0
1, 20520, Note_on_c, 0, 67, 80
1, 20579, Note_on_c, 0, 67, 0
1, 20580, Note_on_c, 0, 66, 80
1, 20639, Note_on_c, 0, 66, 0
1, 20639, Note_on_c, 0, 79, 0
1, 20640, Note_on_c, 0, 66, 80
1, 20640, Note_on_c, 0, 73, 80
1, 20879, Note_on_c, 0, 66, 0
1, 20880, Note_on_c, 0, 64, 80
1, 21119, Note_on_c, 0, 73, 0
1, 21359, Note_on_c, 0, 64, 0
1, 21360, Note_on_c, 0, 57, 80
1, 21360, Note_on_c, 0, 69, 80
1, 21599, Note_on_c, 0, 57, 0
1, 21599, Note_on_c, 0, 69, 0
1, 21600, Note_on_c, 0, 62, 80
1, 21600, Note_on_c, 0, 69, 80
1, 21959, Note_on_c, 0, 69, 0
1, 21960, Note_on_c, 0, 64, 80
1, 22079, Note_on_c, 0, 62, 0
1, 22079, Note_on_c, 0, 64, 0
1, 22080, Note_on_c, 0, 62, 80
1, 22080, Note_on_c, 0, 64, 80
1, 22319, Note_on_c, 0, 64, 0
1, 22320, Note_on_c, 0, 66, 80
1, 22559, Note_on_c, 0, 62, 0
1, 22799, Note_on_c, 0, 66, 0
1, 23040, Note_on_c, 0, 71, 80
1, 23040, Note_on_c, 0, 55, 80
1, 23119, Note_on_c, 0, 55, 0
1, 23120, Note_on_c, 0, 57, 80
1, 23199, Note_on_c, 0, 57, 0
1, 23200, Note_on_c, 0, 55, 80
1, 23279, Note_on_c, 0, 55, 0
1, 23280, Note_on_c, 0, 50, 80
1, 23359, Note_on_c, 0, 50, 0
1, 23360, Note_on_c, 0, 52, 80
1, 23439, Note_on_c, 0, 52, 0
1, 23440, Note_on_c, 0, 54, 80
1, 23519, Note_on_c, 0, 71, 0
1, 23519, Note_on_c, 0, 54, 0
1, 23520, Note_on_c, 0, 71, 80
1, 23520, Note_on_c, 0, 55, 80
1, 23599, Note_on_c, 0, 55, 0
1, 23600, Note_on_c, 0, 54, 80
1, 23679, Note_on_c, 0, 54, 0
1, 23680, Note_on_c, 0, 55, 80
1, 23759, Note_on_c, 0, 55, 0
1, 23760, Note_on_c, 0, 57, 80
1, 23839, Note_on_c, 0, 57, 0
1, 23840, Note_on_c, 0, 55, 80
1, 23919, Note_on_c, 0, 55, 0
1, 23920, Note_on_c, 0, 57, 80
1, 23999, Note_on_c, 0, 71, 0
1, 23999, Note_on_c, 0, 57, 0
1, 24000, Note_on_c, 0, 59, 80
1, 24079, Note_on_c, 0, 59, 0
1, 24080, Note_on_c, 0, 57, 80
1, 24159, Note_on_c, 0, 57, 0
1, 24160, Note_on_c, 0, 59, 80
1, 24239, Note_on_c, 0, 59, 0
1, 24240, Note_on_c, 0, 71, 80
1, 24240, Note_on_c, 0, 60, 80
1, 24319, Note_on_c, 0, 60, 0
1, 24320, Note_on_c, 0, 59, 80
1, 24399, Note_on_c, 0, 59, 0
1, 24400, Note_on_c, 0, 61, 80
1, 24479, Note_on_c, 0, 71, 0
1, 24479, Note_on_c, 0, 61, 0
1, 24480, Note_on_c, 0, 69, 80
1, 24480, Note_on_c, 0, 62, 80
1, 24559, Note_on_c, 0, 62, 0
1, 24560, Note_on_c, 0, 64, 80
1, 24639, Note_on_c, 0, 64, 0
1, 24640, Note_on_c, 0, 62, 80
1, 24719, Note_on_c, 0, 62, 0
1, 24720, Note_on_c, 0, 57, 80
1, 24799, Note_on_c, 0, 57, 0
1, 24800, Note_on_c, 0, 59, 80
1, 24879, Note_on_c, 0, 59, 0
1, 24880, Note_on_c, 0, 61, 80
1, 24959, Note_on_c, 0, 69, 0
1, 24959, Note_on_c, 0, 61, 0
1, 24960, Note_on_c, 0, 69, 80
1, 24960, Note_on_c, 0, 62, 80
1, 25039, Note_on_c, 0, 62, 0
1, 25040, Note_on_c, 0, 61, 80
1, 25119, Note_on_c, 0, 61, 0
1, 25120, Note_on_c, 0, 62, 80
1, 25199, Note_on_c, 0, 62, 0
1, 25200, Note_on_c, 0, 64, 80
1, 25279, Note_on_c, 0, 64, 0
1, 25280, Note_on_c, 0, 62, 80
1, 25359, Note_on_c, 0, 62, 0
1, 25360, Note_on_c, 0, 64, 80
1, 25439, Note_on_c, 0, 69, 0
1, 25439, Note_on_c, 0, 64, 0
1, 25440, Note_on_c, 0, 66, 80
1, 25519, Note_on_c, 0, 66, 0
1, 25520, Note_on_c, 0, 64, 80
1, 25599, Note_on_c, 0, 64, 0
1, 25600, Note_on_c, 0, 66, 80
1, 25679, Note_on_c, 0, 66, 0
1, 25680, Note_on_c, 0, 74, 80
1, 25680, Note_on_c, 0, 67, 80
1, 25759, Note_on_c, 0, 67, 0
1, 25760, Note_on_c, 0, 64, 80
1, 25839, Note_on_c, 0, 64, 0
1, 25840, Note_on_c, 0, 66, 80
1, 25919, Note_on_c, 0, 74, 0
1, 25919, Note_on_c, 0, 66, 0
1, 25920, Note_on_c, 0, 74, 80
1, 25920, Note_on_c, 0, 67, 80
1, 25999, Note_on_c, 0, 67, 0
1, 26000, Note_on_c, 0, 69, 80
1, 26079, Note_on_c, 0, 69, 0
1, 26080, Note_on_c, 0, 67, 80
1, 26159, Note_on_c, 0, 67, 0
1, 26160, Note_on_c, 0, 59, 80
1, 26239, Note_on_c, 0, 59, 0
1, 26240, Note_on_c, 0, 64, 80
1, 26319, Note_on_c, 0, 64, 0
1, 26320, Note_on_c, 0, 66, 80
1, 26399, Note_on_c, 0, 74, 0
1, 26399, Note_on_c, 0, 66, 0
1, 26400, Note_on_c, 0, 74, 80
1, 26400, Note_on_c, 0, 67, 80
1, 26459, Note_on_c, 0, 74, 0
1, 26460, Note_on_c, 0, 73, 80
1, 26479, Note_on_c, 0, 67, 0
1, 26480, Note_on_c, 0, 66, 80
1, 26519, Note_on_c, 0, 73, 0
1, 26520, Note_on_c, 0, 74, 80
1, 26559, Note_on_c, 0, 66, 0
1, 26560, Note_on_c, 0, 67, 80
1, 26579, Note_on_c, 0, 74, 0
1, 26580, Note_on_c, 0, 73, 80
1, 26639, Note_on_c, 0, 73, 0
1, 26639, Note_on_c, 0, 67, 0
1, 26640, Note_on_c, 0, 74, 80
1, 26640, Note_on_c, 0, 69, 80
1, 26699, Note_on_c, 0, 74, 0
1, 26700, Note_on_c, 0, 73, 80
1, 26719, Note_on_c, 0, 69, 0
1, 26720, Note_on_c, 0, 67, 80
1, 26759, Note_on_c, 0, 73, 0
1, 26760, Note_on_c, 0, 74, 80
1, 26799, Note_on_c, 0, 67, 0
1, 26800, Note_on_c, 0, 69, 80
1, 26819, Note_on_c, 0, 74, 0
1, 26820, Note_on_c, 0, 73, 80
1, 26879, Note_on_c, 0, 73, 0
1, 26879, Note_on_c, 0, 69, 0
1, 26880, Note_on_c, 0, 71, 80
1, 26959, Note_on_c, 0, 71, 0
1, 26960, Note_on_c, 0, 69, 80
1, 27039, Note_on_c, 0, 69, 0
1, 27040, Note_on_c, 0, 71, 80
1, 27119, Note_on_c, 0, 71, 0
1, 27120, Note_on_c, 0, 67, 80
1, 27120, Note_on_c, 0, 73, 80
1, 27199, Note_on_c, 0, 73, 0
1, 27200, Note_on_c, 0, 71, 80
1, 27279, Note_on_c, 0, 71, 0
1, 27280, Note_on_c, 0, 73, 80
1, 27359, Note_on_c, 0, 67, 0
1, 27359, Note_on_c, 0, 73, 0
1, 27360, Note_on_c, 0, 67, 80
1, 27360, Note_on_c, 0, 74, 80
1, 27439, Note_on_c, 0, 74, 0
1, 27440, Note_on_c, 0, 76, 80
1, 27519, Note_on_c, 0, 76, 0
1, 27520, Note_on_c, 0, 74, 80
1, 27599, Note_on_c, 0, 74, 0
1, 27600, Note_on_c, 0, 69, 80
1, 27679, Note_on_c, 0, 69, 0
1, 27680, Note_on_c, 0, 71, 80
1, 27719, Note_on_c, 0, 67, 0
1, 27720, Note_on_c, 0, 64, 80
1, 27759, Note_on_c, 0, 71, 0
1, 27760, Note_on_c, 0, 73, 80
1, 27839, Note_on_c, 0, 64, 0
1, 27839, Note_on_c, 0, 73, 0
1, 27840, Note_on_c, 0, 64, 80
1, 27840, Note_on_c, 0, 74, 80
1, 27919, Note_on_c, 0, 74, 0
1, 27920, Note_on_c, 0, 73, 80
1, 27999, Note_on_c, 0, 73, 0
1, 28000, Note_on_c, 0, 74, 80
1, 28079, Note_on_c, 0, 64, 0
1, 28079, Note_on_c, 0, 74, 0
1, 28080, Note_on_c, 0, 66, 80
1, 28080, Note_on_c, 0, 76, 80
1, 28159, Note_on_c, 0, 76, 0
1, 28160, Note_on_c, 0, 74, 80
1, 28239, Note_on_c, 0, 74, 0
1, 28240, Note_on_c, 0, 76, 80
1, 28319, Note_on_c, 0, 76, 0
1, 28320, Note_on_c, 0, 78, 80
1, 28399, Note_on_c, 0, 78, 0
1, 28400, Note_on_c, 0, 76, 80
1, 28479, Note_on_c, 0, 76, 0
1, 28480, Note_on_c, 0, 78, 80
1, 28559, Note_on_c, 0, 66, 0
1, 28559, Note_on_c, 0, 78, 0
1, 28560, Note_on_c, 0, 69, 80
1, 28560, Note_on_c, 0, 79, 80
1, 28639, Note_on_c, 0, 79, 0
1, 28640, Note_on_c, 0, 76, 80
1, 28719, Note_on_c, 0, 76, 0
1, 28720, Note_on_c, 0, 78, 80
1, 28799, Note_on_c, 0, 69, 0
1, 28799, Note_on_c, 0, 78, 0
1, 28800, Note_on_c, 0, 62, 80
1, 28800, Note_on_c, 0, 79, 80
1, 28879, Note_on_c, 0, 79, 0
1, 28880, Note_on_c, 0, 78, 80
1, 28959, Note_on_c, 0, 78, 0
1, 28960, Note_on_c, 0, 79, 80
1, 29039, Note_on_c, 0, 79, 0
1, 29040, Note_on_c, 0, 74, 80
1, 29119, Note_on_c, 0, 74, 0
1, 29120, Note_on_c, 0, 72, 80
1, 29159, Note_on_c, 0, 62, 0
1, 29160, Note_on_c, 0, 64, 80
1, 29199, Note_on_c, 0, 72, 0
1, 29200, Note_on_c, 0, 74, 80
1, 29279, Note_on_c, 0, 64, 0
1, 29279, Note_on_c, 0, 74, 0
1, 29280, Note_on_c, 0, 65, 80
1, 29280, Note_on_c, 0, 71, 80
1, 29359, Note_on_c, 0, 71, 0
1, 29360, Note_on_c, 0, 67, 80
1, 29439, Note_on_c, 0, 67, 0
1, 29440, Note_on_c, 0, 66, 80
1, 29519, Note_on_c, 0, 66, 0
1, 29520, Note_on_c, 0, 67, 80
1, 29599, Note_on_c, 0, 67, 0
1, 29600, Note_on_c, 0, 71, 80
1, 29679, Note_on_c, 0, 71, 0
1, 29680, Note_on_c, 0, 74, 80
1, 29759, Note_on_c, 0, 65, 0
1, 29759, Note_on_c, 0, 74, 0
1, 29760, Note_on_c, 0, 77, 80
1, 29839, Note_on_c, 0, 77, 0
1, 29840, Note_on_c, 0, 76, 80
1, 29919, Note_on_c, 0, 76, 0
1, 29920, Note_on_c, 0, 77, 80
1, 29999, Note_on_c, 0, 77, 0
1, 30000, Note_on_c, 0, 67, 80
1, 30000, Note_on_c, 0, 74, 80
1, 30079, Note_on_c, 0, 74, 0
1, 30080, Note_on_c, 0, 71, 80
1, 30159, Note_on_c, 0, 71, 0
1, 30160, Note_on_c, 0, 74, 80
1, 30239, Note_on_c, 0, 67, 0
1, 30239, Note_on_c, 0, 74, 0
1, 30240, Note_on_c, 0, 67, 80
1, 30240, Note_on_c, 0, 76, 80
1, 30319, Note_on_c, 0, 76, 0
1, 30320, Note_on_c, 0, 74, 80
1, 30399, Note_on_c, 0, 74, 0
1, 30400, Note_on_c, 0, 76, 80
1, 30479, Note_on_c, 0, 76, 0
1, 30480, Note_on_c, 0, 72, 80
1, 30559, Note_on_c, 0, 72, 0
1, 30560, Note_on_c, 0, 71, 80
1, 30599, Note_on_c, 0, 67, 0
1, 30600, Note_on_c, 0, 64, 80
1, 30639, Note_on_c, 0, 71, 0
1, 30640, Note_on_c, 0, 72, 80
1, 30719, Note_on_c, 0, 64, 0
1, 30719, Note_on_c, 0, 72, 0
1, 30720, Note_on_c, 0, 62, 80
1, 30720, Note_on_c, 0, 67, 80
1, 30799, Note_on_c, 0, 67, 0
1, 30800, Note_on_c, 0, 64, 80
1, 30879, Note_on_c, 0, 64, 0
1, 30880, Note_on_c, 0, 62, 80
1, 30959, Note_on_c, 0, 62, 0
1, 30959, Note_on_c, 0, 62, 0
1, 30960, Note_on_c, 0, 60, 80
1, 30960, Note_on_c, 0, 64, 80
1, 31039, Note_on_c, 0, 64, 0
1, 31040, Note_on_c, 0, 67, 80
1, 31119, Note_on_c, 0, 67, 0
1, 31120, Note_on_c, 0, 72, 80
1, 31199, Note_on_c, 0, 72, 0
1, 31200, Note_on_c, 0, 76, 80
1, 31279, Note_on_c, 0, 76, 0
1, 31280, Note_on_c, 0, 74, 80
1, 31359, Note_on_c, 0, 74, 0
1, 31360, Note_on_c, 0, 76, 80
1, 31439, Note_on_c, 0, 60, 0
1, 31439, Note_on_c, 0, 76, 0
1, 31440, Note_on_c, 0, 64, 80
1, 31440, Note_on_c, 0, 72, 80
1, 31519, Note_on_c, 0, 72, 0
1, 31520, Note_on_c, 0, 69, 80
1, 31599, Note_on_c, 0, 69, 0
1, 31600, Note_on_c, 0, 72, 80
1, 31679, Note_on_c, 0, 64, 0
1, 31679, Note_on_c, 0, 72, 0
1, 31680, Note_on_c, 0, 57, 80
1, 31680, Note_on_c, 0, 74, 80
1, 31759, Note_on_c, 0, 74, 0
1, 31760, Note_on_c, 0, 72, 80
1, 31839, Note_on_c, 0, 72, 0
1, 31840, Note_on_c, 0, 74, 80
1, 31919, Note_on_c, 0, 74, 0
1, 31920, Note_on_c, 0, 69, 80
1, 31999, Note_on_c, 0, 69, 0
1, 32000, Note_on_c, 0, 67, 80
1, 32039, Note_on_c, 0, 57, 0
1, 32040, Note_on_c, 0, 59, 80
1, 32079, Note_on_c, 0, 67, 0
1, 32080, Note_on_c, 0, 69, 80
1, 32159, Note_on_c, 0, 59, 0
1, 32159, Note_on_c, 0, 69, 0
1, 32160, Note_on_c, 0, 60, 80
1, 32160, Note_on_c, 0, 66, 80
1, 32239, Note_on_c, 0, 66, 0
1, 32240, Note_on_c, 0, 62, 80
1, 32319, Note_on_c, 0, 62, 0
1, 32320, Note_on_c, 0, 61, 80
1, 32399, Note_on_c, 0, 61, 0
1, 32400, Note_on_c, 0, 62, 80
1, 32479, Note_on_c, 0, 62, 0
1, 32480, Note_on_c, 0, 66, 80
1, 32559, Note_on_c, 0, 66, 0
1, 32560, Note_on_c, 0, 69, 80
1, 32639, Note_on_c, 0, 60, 0
1, 32639, Note_on_c, 0, 69, 0
1, 32640, Note_on_c, 0, 72, 80
1, 32719, Note_on_c, 0, 72, 0
1, 32720, Note_on_c, 0, 71, 80
1, 32799, Note_on_c, 0, 71, 0
1, 32800, Note_on_c, 0, 72, 80
1, 32879, Note_on_c, 0, 72, 0
1, 32880, Note_on_c, 0, 62, 80
1, 32880, Note_on_c, 0, 69, 80
1, 32959, Note_on_c, 0, 69, 0
1, 32960, Note_on_c, 0, 66, 80
1, 33039, Note_on_c, 0, 66, 0
1, 33040, Note_on_c, 0, 69, 80
1, 33119, Note_on_c, 0, 62, 0
1, 33119, Note_on_c, 0, 69, 0
1, 33120, Note_on_c, 0, 62, 80
1, 33120, Note_on_c, 0, 71, 80
1, 33199, Note_on_c, 0, 71, 0
1, 33200, Note_on_c, 0, 69, 80
1, 33279, Note_on_c, 0, 69, 0
1, 33280, Note_on_c, 0, 71, 80
1, 33359, Note_on_c, 0, 71, 0
1, 33360, Note_on_c, 0, 67, 80
1, 33439, Note_on_c, 0, 67, 0
1, 33440, Note_on_c, 0, 66, 80
1, 33479, Note_on_c, 0, 62, 0
1, 33480, Note_on_c, 0, 59, 80
1, 33519, Note_on_c, 0, 66, 0
1, 33520, Note_on_c, 0, 67, 80
1, 33599, Note_on_c, 0, 59, 0
1, 33599, Note_on_c, 0, 67, 0
1, 33600, Note_on_c, 0, 55, 80
1, 33600, Note_on_c, 0, 62, 80
1, 33679, Note_on_c, 0, 62, 0
1, 33680, Note_on_c, 0, 59, 80
1, 33759, Note_on_c, 0, 59, 0
1, 33760, Note_on_c, 0, 57, 80
1, 33839, Note_on_c, 0, 57, 0
1, 33840, Note_on_c, 0, 59, 80
1, 33919, Note_on_c, 0, 59, 0
1, 33920, Note_on_c, 0, 62, 80
1, 33999, Note_on_c, 0, 62, 0
1, 34000, Note_on_c, 0, 67, 80
1, 34079, Note_on_c, 0, 55, 0
1, 34079, Note_on_c, 0, 67, 0
1, 34080, Note_on_c, 0, 71, 80
1, 34159, Note_on_c, 0, 71, 0
1, 34160, Note_on_c, 0, 67, 80
1, 34239, Note_on_c, 0, 67, 0
1, 34240, Note_on_c, 0, 66, 80
1, 34319, Note_on_c, 0, 66, 0
1, 34320, Note_on_c, 0, 67, 80
1, 34399, Note_on_c, 0, 67, 0
1, 34400, Note_on_c, 0, 71, 80
1, 34479, Note_on_c, 0, 71, 0
1, 34480, Note_on_c, 0, 74, 80
1, 34559, Note_on_c, 0, 74, 0
1, 34560, Note_on_c, 0, 71, 80
1, 34560, Note_on_c, 0, 79, 80
1, 34919, Note_on_c, 0, 79, 0
1, 34920, Note_on_c, 0, 78, 80
1, 34979, Note_on_c, 0, 78, 0
1, 34980, Note_on_c, 0, 76, 80
1, 35039, Note_on_c, 0, 71, 0
1, 35039, Note_on_c, 0, 76, 0
1, 35040, Note_on_c, 0, 71, 80
1, 35040, Note_on_c, 0, 74, 80
1, 35519, Note_on_c, 0, 71, 0
1, 35519, Note_on_c, 0, 74, 0
1, 35760, Note_on_c, 0, 79, 80
1, 35760, Note_on_c, 0, 83, 80
1, 35999, Note_on_c, 0, 79, 0
1, 35999, Note_on_c, 0, 83, 0
1, 36000, Note_on_c, 0, 79, 80
1, 36000, Note_on_c, 0, 81, 80
1, 36359, Note_on_c, 0, 79, 0
1, 36360, Note_on_c, 0, 76, 80
1, 36479, Note_on_c, 0, 76, 0
1, 36479, Note_on_c, 0, 81, 0
1, 36480, Note_on_c, 0, 78, 80
1, 36480, Note_on_c, 0, 81, 80
1, 36539, Note_on_c, 0, 78, 0
1, 36540, Note_on_c, 0, 76, 80
1, 36599, Note_on_c, 0, 76, 0
1, 36600, Note_on_c, 0, 78, 80
1, 36959, Note_on_c, 0, 78, 0
1, 36959, Note_on_c, 0, 81, 0
1, 37200, Note_on_c, 0, 72, 80
1, 37200, Note_on_c, 0, 81, 80
1, 37439, Note_on_c, 0, 72, 0
1, 37439, Note_on_c, 0, 81, 0
1, 37440, Note_on_c, 0, 71, 80
1, 37440, Note_on_c, 0, 81, 80
1, 37799, Note_on_c, 0, 71, 0
1, 37800, Note_on_c, 0, 75, 80
1, 37919, Note_on_c, 0, 75, 0
1, 37919, Note_on_c, 0, 81, 0
1, 37920, Note_on_c, 0, 76, 80
1, 37920, Note_on_c, 0, 79, 80
1, 37979, Note_on_c, 0, 76, 0
1, 37980, Note_on_c, 0, 75, 80
1, 38039, Note_on_c, 0, 75, 0
1, 38040, Note_on_c, 0, 76, 80
1, 38399, Note_on_c, 0, 76, 0
1, 38399, Note_on_c, 0, 79, 0
1, 38640, Note_on_c, 0, 76, 80
1, 38640, Note_on_c, 0, 79, 80
1, 38879, Note_on_c, 0, 76, 0
1, 38879, Note_on_c, 0, 79, 0
1, 38880, Note_on_c, 0, 69, 80
1, 38880, Note_on_c, 0, 79, 80
1, 39239, Note_on_c, 0, 69, 0
1, 39239, Note_on_c, 0, 79, 0
1, 39240, Note_on_c, 0, 73, 80
1, 39240, Note_on_c, 0, 76, 80
1, 39359, Note_on_c, 0, 73, 0
1, 39359, Note_on_c, 0, 76, 0
1, 39360, Note_on_c, 0, 64, 80
1, 39360, Note_on_c, 0, 71, 80
1, 39599, Note_on_c, 0, 71, 0
1, 39600, Note_on_c, 0, 69, 80
1, 39839, Note_on_c, 0, 64, 0
1, 40079, Note_on_c, 0, 69, 0
1, 40080, Note_on_c, 0, 73, 80
1, 40080, Note_on_c, 0, 79, 80
1, 40319, Note_on_c, 0, 73, 0
1, 40319, Note_on_c, 0, 79, 0
1, 40320, Note_on_c, 0, 73, 80
1, 40320, Note_on_c, 0, 79, 80
1, 40679, Note_on_c, 0, 79, 0
1, 40680, Note_on_c, 0, 76, 80
1, 40799, Note_on_c, 0, 73, 0
1, 40799, Note_on_c, 0, 76, 0
1, 40800, Note_on_c, 0, 74, 80
1, 40800, Note_on_c, 0, 76, 80
1, 41039, Note_on_c, 0, 76, 0
1, 41040, Note_on_c, 0, 78, 80
1, 41279, Note_on_c, 0, 74, 0
1, 41519, Note_on_c, 0, 78, 0
1, 41520, Note_on_c, 0, 74, 80
1, 41520, Note_on_c, 0, 81, 80
1, 41759, Note_on_c, 0, 74, 0
1, 41759, Note_on_c, 0, 81, 0
1, 41760, Note_on_c, 0, 74, 80
1, 41760, Note_on_c, 0, 79, 80
1, 42119, Note_on_c, 0, 79, 0
1, 42120, Note_on_c, 0, 76, 80
1, 42239, Note_on_c, 0, 74, 0
1, 42239, Note_on_c, 0, 76, 0
1, 42240, Note_on_c, 0, 74, 80
1, 42240, Note_on_c, 0, 78, 80
1, 42479, Note_on_c, 0, 78, 0
1, 42480, Note_on_c, 0, 79, 80
1, 42719, Note_on_c, 0, 74, 0
1, 42959, Note_on_c, 0, 79, 0
1, 42960, Note_on_c, 0, 76, 80
1, 42960, Note_on_c, 0, 79, 80
1, 43199, Note_on_c, 0, 76, 0
1, 43199, Note_on_c, 0, 79, 0
1, 43200, Note_on_c, 0, 69, 80
1, 43200, Note_on_c, 0, 79, 80
1, 43559, Note_on_c, 0, 69, 0
1, 43560, Note_on_c, 0, 67, 80
1, 43619, Note_on_c, 0, 67, 0
1, 43620, Note_on_c, 0, 66, 80
1, 43679, Note_on_c, 0, 66, 0
1, 43679, Note_on_c, 0, 79, 0
1, 43680, Note_on_c, 0, 66, 80
1, 43680, Note_on_c, 0, 73, 80
1, 43919, Note_on_c, 0, 66, 0
1, 43920, Note_on_c, 0, 64, 80
1, 44159, Note_on_c, 0, 73, 0
1, 44399, Note_on_c, 0, 64, 0
1, 44400, Note_on_c, 0, 57, 80
1, 44400, Note_on_c, 0, 69, 80
1, 44639, Note_on_c, 0, 57, 0
1, 44639, Note_on_c, 0, 69, 0
1, 44640, Note_on_c, 0, 62, 80
1, 44640, Note_on_c, 0, 69, 80
1, 44999, Note_on_c, 0, 69, 0
1, 45000, Note_on_c, 0, 64, 80
1, 45119, Note_on_c, 0, 62, 0
1, 45119, Note_on_c, 0, 64, 0
1, 45120, Note_on_c, 0, 62, 80
1, 45120, Note_on_c, 0, 64, 80
1, 45359, Note_on_c, 0, 64, 0
1, 45360, Note_on_c, 0, 66, 80
1, 45599, Note_on_c, 0, 62, 0
1, 45839, Note_on_c, 0, 66, 0
1, 46080, Note_on_c, 0, 81, 80
1, 46159, Note_on_c, 0, 81, 0
1, 46160, Note_on_c, 0, 79, 80
1, 46239, Note_on_c, 0, 79, 0
1, 46240, Note_on_c, 0, 81, 80
1, 46319, Note_on_c, 0, 81, 0
1, 46320, Note_on_c, 0, 86, 80
1, 46399, Note_on_c, 0, 86, 0
1, 46400, Note_on_c, 0, 84, 80
1, 46479, Note_on_c, 0, 84, 0
1, 46480, Note_on_c, 0, 83, 80
1, 46559, Note_on_c, 0, 83, 0
1, 46560, Note_on_c, 0, 81, 80
1, 46639, Note_on_c, 0, 81, 0
1, 46640, Note_on_c, 0, 83, 80
1, 46719, Note_on_c, 0, 83, 0
1, 46720, Note_on_c, 0, 81, 80
1, 46799, Note_on_c, 0, 81, 0
1, 46800, Note_on_c, 0, 79, 80
1, 46879, Note_on_c, 0, 79, 0
1, 46880, Note_on_c, 0, 81, 80
1, 46959, Note_on_c, 0, 81, 0
1, 46960, Note_on_c, 0, 79, 80
1, 47039, Note_on_c, 0, 79, 0
1, 47040, Note_on_c, 0, 78, 80
1, 47119, Note_on_c, 0, 78, 0
1, 47120, Note_on_c, 0, 79, 80
1, 47199, Note_on_c, 0, 79, 0
1, 47200, Note_on_c, 0, 78, 80
1, 47279, Note_on_c, 0, 78, 0
1, 47280, Note_on_c, 0, 76, 80
1, 47359, Note_on_c, 0, 76, 0
1, 47360, Note_on_c, 0, 78, 80
1, 47439, Note_on_c, 0, 78, 0
1, 47440, Note_on_c, 0, 76, 80
1, 47519, Note_on_c, 0, 76, 0
1, 47520, Note_on_c, 0, 74, 80
1, 47599, Note_on_c, 0, 74, 0
1, 47600, Note_on_c, 0, 72, 80
1, 47679, Note_on_c, 0, 72, 0
1, 47680, Note_on_c, 0, 74, 80
1, 47759, Note_on_c, 0, 74, 0
1, 47760, Note_on_c, 0, 79, 80
1, 47839, Note_on_c, 0, 79, 0
1, 47840, Note_on_c, 0, 78, 80
1, 47919, Note_on_c, 0, 78, 0
1, 47920, Note_on_c, 0, 76, 80
1, 47999, Note_on_c, 0, 76, 0
1, 48000, Note_on_c, 0, 74, 80
1, 48079, Note_on_c, 0, 74, 0
1, 48080, Note_on_c, 0, 76, 80
1, 48159, Note_on_c, 0, 76, 0
1, 48160, Note_on_c, 0, 74, 80
1, 48239, Note_on_c, 0, 74, 0
1, 48240, Note_on_c, 0, 72, 80
1, 48319, Note_on_c, 0, 72, 0
1, 48320, Note_on_c, 0, 74, 80
1, 48399, Note_on_c, 0, 74, 0
1, 48400, Note_on_c, 0, 72, 80
1, 48479, Note_on_c, 0, 72, 0
1, 48480, Note_on_c, 0, 71, 80
1, 48559, Note_on_c, 0, 71, 0
1, 48560, Note_on_c, 0, 72, 80
1, 48639, Note_on_c, 0, 72, 0
1, 48640, Note_on_c, 0, 71, 80
1, 48719, Note_on_c, 0, 71, 0
1, 48720, Note_on_c, 0, 69, 80
1, 48799, Note_on_c, 0, 69, 0
1, 48800, Note_on_c, 0, 71, 80
1, 48879, Note_on_c, 0, 71, 0
1, 48880, Note_on_c, 0, 69, 80
1, 48959, Note_on_c, 0, 69, 0
1, 48960, Note_on_c, 0, 67, 80
1, 49039, Note_on_c, 0, 67, 0
1, 49040, Note_on_c, 0, 66, 80
1, 49119, Note_on_c, 0, 66, 0
1, 49120, Note_on_c, 0, 67, 80
1, 49199, Note_on_c, 0, 67, 0
1, 49200, Note_on_c, 0, 71, 80
1, 49279, Note_on_c, 0, 71, 0
1, 49280, Note_on_c, 0, 69, 80
1, 49359, Note_on_c, 0, 69, 0
1, 49360, Note_on_c, 0, 67, 80
1, 49439, Note_on_c, 0, 67, 0
1, 49440, Note_on_c, 0, 66, 80
1, 49519, Note_on_c, 0, 66, 0
1, 49520, Note_on_c, 0, 67, 80
1, 49599, Note_on_c, 0, 67, 0
1, 49600, Note_on_c, 0, 66, 80
1, 49679, Note_on_c, 0, 66, 0
1, 49680, Note_on_c, 0, 64, 80
1, 49759, Note_on_c, 0, 64, 0
1, 49760, Note_on_c, 0, 66, 80
1, 49839, Note_on_c, 0, 66, 0
1, 49840, Note_on_c, 0, 64, 80
1, 49919, Note_on_c, 0, 64, 0
1, 49920, Note_on_c, 0, 63, 80
1, 49999, Note_on_c, 0, 63, 0
1, 50000, Note_on_c, 0, 64, 80
1, 50079, Note_on_c, 0, 64, 0
1, 50080, Note_on_c, 0, 63, 80
1, 50159, Note_on_c, 0, 63, 0
1, 50160, Note_on_c, 0, 61, 80
1, 50239, Note_on_c, 0, 61, 0
1, 50240, Note_on_c, 0, 63, 80
1, 50319, Note_on_c, 0, 63, 0
1, 50320, Note_on_c, 0, 61, 80
1, 50399, Note_on_c, 0, 61, 0
1, 50400, Note_on_c, 0, 59, 80
1, 50479, Note_on_c, 0, 59, 0
1, 50480, Note_on_c, 0, 58, 80
1, 50559, Note_on_c, 0, 58, 0
1, 50560, Note_on_c, 0, 59, 80
1, 50639, Note_on_c, 0, 59, 0
1, 50640, Note_on_c, 0, 64, 80
1, 50719, Note_on_c, 0, 64, 0
1, 50720, Note_on_c, 0, 63, 80
1, 50799, Note_on_c, 0, 63, 0
1, 50800, Note_on_c, 0, 61, 80
1, 50879, Note_on_c, 0, 61, 0
1, 50880, Note_on_c, 0, 59, 80
1, 50959, Note_on_c, 0, 59, 0
1, 50960, Note_on_c, 0, 60, 80
1, 51039, Note_on_c, 0, 60, 0
1, 51040, Note_on_c, 0, 59, 80
1, 51119, Note_on_c, 0, 59, 0
1, 51120, Note_on_c, 0, 57, 80
1, 51199, Note_on_c, 0, 57, 0
1, 51200, Note_on_c, 0, 59, 80
1, 51279, Note_on_c, 0, 59, 0
1, 51280, Note_on_c, 0, 57, 80
1, 51359, Note_on_c, 0, 57, 0
1, 51360, Note_on_c, 0, 55, 80
1, 51439, Note_on_c, 0, 55, 0
1, 51440, Note_on_c, 0, 57, 80
1, 51519, Note_on_c, 0, 57, 0
1, 51520, Note_on_c, 0, 55, 80
1, 51599, Note_on_c, 0, 55, 0
1, 51600, Note_on_c, 0, 54, 80
1, 51679, Note_on_c, 0, 54, 0
1, 51680, Note_on_c, 0, 55, 80
1, 51759, Note_on_c, 0, 55, 0
1, 51760, Note_on_c, 0, 54, 80
1, 51839, Note_on_c, 0, 54, 0
1, 51840, Note_on_c, 0, 52, 80
1, 51919, Note_on_c, 0, 52, 0
1, 51920, Note_on_c, 0, 51, 80
1, 51999, Note_on_c, 0, 51, 0
1, 52000, Note_on_c, 0, 52, 80
1, 52079, Note_on_c, 0, 52, 0
1, 52080, Note_on_c, 0, 57, 80
1, 52159, Note_on_c, 0, 57, 0
1, 52160, Note_on_c, 0, 55, 80
1, 52239, Note_on_c, 0, 55, 0
1, 52240, Note_on_c, 0, 57, 80
1, 52319, Note_on_c, 0, 57, 0
1, 52320, Note_on_c, 0, 55, 80
1, 52399, Note_on_c, 0, 55, 0
1, 52400, Note_on_c, 0, 54, 80
1, 52479, Note_on_c, 0, 54, 0
1, 52480, Note_on_c, 0, 55, 80
1, 52559, Note_on_c, 0, 55, 0
1, 52560, Note_on_c, 0, 59, 80
1, 52639, Note_on_c, 0, 59, 0
1, 52640, Note_on_c, 0, 64, 80
1, 52719, Note_on_c, 0, 64, 0
1, 52720, Note_on_c, 0, 66, 80
1, 52799, Note_on_c, 0, 66, 0
1, 52800, Note_on_c, 0, 67, 80
1, 52879, Note_on_c, 0, 67, 0
1, 52880, Note_on_c, 0, 66, 80
1, 52959, Note_on_c, 0, 66, 0
1, 52960, Note_on_c, 0, 67, 80
1, 53039, Note_on_c, 0, 67, 0
1, 53040, Note_on_c, 0, 64, 80
1, 53119, Note_on_c, 0, 64, 0
1, 53120, Note_on_c, 0, 63, 80
1, 53199, Note_on_c, 0, 63, 0
1, 53200, Note_on_c, 0, 64, 80
1, 53279, Note_on_c, 0, 64, 0
1, 53280, Note_on_c, 0, 60, 80
1, 53359, Note_on_c, 0, 60, 0
1, 53360, Note_on_c, 0, 59, 80
1, 53439, Note_on_c, 0, 59, 0
1, 53440, Note_on_c, 0, 60, 80
1, 53519, Note_on_c, 0, 60, 0
1, 53520, Note_on_c, 0, 64, 80
1, 53599, Note_on_c, 0, 64, 0
1, 53600, Note_on_c, 0, 62, 80
1, 53679, Note_on_c, 0, 62, 0
1, 53680, Note_on_c, 0, 64, 80
1, 53759, Note_on_c, 0, 64, 0
1, 53760, Note_on_c, 0, 57, 80
1, 53839, Note_on_c, 0, 57, 0
1, 53840, Note_on_c, 0, 56, 80
1, 53919, Note_on_c, 0, 56, 0
1, 53920, Note_on_c, 0, 57, 80
1, 53999, Note_on_c, 0, 57, 0
1, 54000, Note_on_c, 0, 60, 80
1, 54079, Note_on_c, 0, 60, 0
1, 54080, Note_on_c, 0, 65, 80
1, 54159, Note_on_c, 0, 65, 0
1, 54160, Note_on_c, 0, 69, 80
1, 54239, Note_on_c, 0, 69, 0
1, 54240, Note_on_c, 0, 72, 80
1, 54319, Note_on_c, 0, 72, 0
1, 54320, Note_on_c, 0, 71, 80
1, 54399, Note_on_c, 0, 71, 0
1, 54400, Note_on_c, 0, 72, 80
1, 54479, Note_on_c, 0, 72, 0
1, 54480, Note_on_c, 0, 69, 80
1, 54559, Note_on_c, 0, 69, 0
1, 54560, Note_on_c, 0, 65, 80
1, 54639, Note_on_c, 0, 65, 0
1, 54640, Note_on_c, 0, 69, 80
1, 54719, Note_on_c, 0, 69, 0
1, 54720, Note_on_c, 0, 63, 80
1, 54799, Note_on_c, 0, 63, 0
1, 54800, Note_on_c, 0, 61, 80
1, 54879, Note_on_c, 0, 61, 0
1, 54880, Note_on_c, 0, 63, 80
1, 54959, Note_on_c, 0, 63, 0
1, 54960, Note_on_c, 0, 66, 80
1, 55039, Note_on_c, 0, 66, 0
1, 55040, Note_on_c, 0, 64, 80
1, 55119, Note_on_c, 0, 64, 0
1, 55120, Note_on_c, 0, 66, 80
1, 55199, Note_on_c, 0, 66, 0
1, 55200, Note_on_c, 0, 59, 80
1, 55279, Note_on_c, 0, 59, 0
1, 55280, Note_on_c, 0, 58, 80
1, 55359, Note_on_c, 0, 58, 0
1, 55360, Note_on_c, 0, 59, 80
1, 55439, Note_on_c, 0, 59, 0
1, 55440, Note_on_c, 0, 63, 80
1, 55519, Note_on_c, 0, 63, 0
1, 55520, Note_on_c, 0, 67, 80
1, 55599, Note_on_c, 0, 67, 0
1, 55600, Note_on_c, 0, 69, 80
1, 55679, Note_on_c, 0, 69, 0
1, 55680, Note_on_c, 0, 69, 80
1, 55759, Note_on_c, 0, 69, 0
1, 55760, Note_on_c, 0, 67, 80
1, 55839, Note_on_c, 0, 67, 0
1, 55840, Note_on_c, 0, 69, 80
1, 55919, Note_on_c, 0, 69, 0
1, 55920, Note_on_c, 0, 66, 80
1, 55999, Note_on_c, 0, 66, 0
1, 56000, Note_on_c, 0, 63, 80
1, 56079, Note_on_c, 0, 63, 0
1, 56080, Note_on_c, 0, 66, 80
1, 56159, Note_on_c, 0, 66, 0
1, 56160, Note_on_c, 0, 67, 80
1, 56239, Note_on_c, 0, 67, 0
1, 56240, Note_on_c, 0, 66, 80
1, 56319, Note_on_c, 0, 66, 0
1, 56320, Note_on_c, 0, 67, 80
1, 56399, Note_on_c, 0, 67, 0
1, 56400, Note_on_c, 0, 71, 80
1, 56479, Note_on_c, 0, 71, 0
1, 56480, Note_on_c, 0, 69, 80
1, 56559, Note_on_c, 0, 69, 0
1, 56560, Note_on_c, 0, 71, 80
1, 56639, Note_on_c, 0, 71, 0
1, 56640, Note_on_c, 0, 64, 80
1, 56719, Note_on_c, 0, 64, 0
1, 56720, Note_on_c, 0, 63, 80
1, 56799, Note_on_c, 0, 63, 0
1, 56800, Note_on_c, 0, 64, 80
1, 56879, Note_on_c, 0, 64, 0
1, 56880, Note_on_c, 0, 67, 80
1, 56959, Note_on_c, 0, 67, 0
1, 56960, Note_on_c, 0, 71, 80
1, 57039, Note_on_c, 0, 71, 0
1, 57040, Note_on_c, 0, 73, 80
1, 57119, Note_on_c, 0, 73, 0
1, 57120, Note_on_c, 0, 76, 80
1, 57199, Note_on_c, 0, 76, 0
1, 57200, Note_on_c, 0, 73, 80
1, 57279, Note_on_c, 0, 73, 0
1, 57280, Note_on_c, 0, 71, 80
1, 57359, Note_on_c, 0, 71, 0
1, 57360, Note_on_c, 0, 69, 80
1, 57439, Note_on_c, 0, 69, 0
1, 57440, Note_on_c, 0, 67, 80
1, 57519, Note_on_c, 0, 67, 0
1, 57520, Note_on_c, 0, 66, 80
1, 57599, Note_on_c, 0, 66, 0
1, 57600, Note_on_c, 0, 64, 80
1, 57839, Note_on_c, 0, 64, 0
1, 57960, Note_on_c, 0, 68, 80
1, 58079, Note_on_c, 0, 68, 0
1, 58080, Note_on_c, 0, 69, 80
1, 58439, Note_on_c, 0, 69, 0
1, 58440, Note_on_c, 0, 71, 80
1, 58440, Note_on_c, 0, 79, 80
1, 58559, Note_on_c, 0, 71, 0
1, 58559, Note_on_c, 0, 79, 0
1, 58560, Note_on_c, 0, 72, 80
1, 58560, Note_on_c, 0, 79, 80
1, 58799, Note_on_c, 0, 79, 0
1, 58800, Note_on_c, 0, 78, 80
1, 58920, Note_on_c, 0, 76, 80
1, 59039, Note_on_c, 0, 72, 0
1, 59039, Note_on_c, 0, 76, 0
1, 59040, Note_on_c, 0, 76, 80
1, 59159, Note_on_c, 0, 78, 0
1, 59279, Note_on_c, 0, 76, 0
1, 59280, Note_on_c, 0, 74, 80
1, 59400, Note_on_c, 0, 66, 80
1, 59519, Note_on_c, 0, 66, 0
1, 59520, Note_on_c, 0, 67, 80
1, 59759, Note_on_c, 0, 74, 0
1, 59879, Note_on_c, 0, 67, 0
1, 59880, Note_on_c, 0, 69, 80
1, 59880, Note_on_c, 0, 77, 80
1, 59999, Note_on_c, 0, 69, 0
1, 59999, Note_on_c, 0, 77, 0
1, 60000, Note_on_c, 0, 71, 80
1, 60000, Note_on_c, 0, 77, 80
1, 60239, Note_on_c, 0, 77, 0
1, 60240, Note_on_c, 0, 76, 80
1, 60360, Note_on_c, 0, 74, 80
1, 60479, Note_on_c, 0, 71, 0
1, 60479, Note_on_c, 0, 74, 0
1, 60480, Note_on_c, 0, 74, 80
1, 60599, Note_on_c, 0, 76, 0
1, 60719, Note_on_c, 0, 74, 0
1, 60720, Note_on_c, 0, 72, 80
1, 60840, Note_on_c, 0, 64, 80
1, 60959, Note_on_c, 0, 64, 0
1, 60960, Note_on_c, 0, 66, 80
1, 61319, Note_on_c, 0, 66, 0
1, 61320, Note_on_c, 0, 67, 80
1, 61439, Note_on_c, 0, 67, 0
1, 61440, Note_on_c, 0, 69, 80
1, 61679, Note_on_c, 0, 72, 0
1, 61799, Note_on_c, 0, 69, 0
1, 61800, Note_on_c, 0, 67, 80
1, 61800, Note_on_c, 0, 72, 80
1, 61919, Note_on_c, 0, 67, 0
1, 61919, Note_on_c, 0, 72, 0
1, 61920, Note_on_c, 0, 72, 80
1, 61920, Note_on_c, 0, 66, 80
1, 61999, Note_on_c, 0, 66, 0
1, 62000, Note_on_c, 0, 67, 80
1, 62079, Note_on_c, 0, 67, 0
1, 62080, Note_on_c, 0, 66, 80
1, 62159, Note_on_c, 0, 72, 0
1, 62159, Note_on_c, 0, 66, 0
1, 62160, Note_on_c, 0, 61, 80
1, 62239, Note_on_c, 0, 61, 0
1, 62240, Note_on_c, 0, 62, 80
1, 62319, Note_on_c, 0, 62, 0
1, 62320, Note_on_c, 0, 64, 80
1, 62399, Note_on_c, 0, 64, 0
1, 62400, Note_on_c, 0, 66, 80
1, 62479, Note_on_c, 0, 66, 0
1, 62480, Note_on_c, 0, 64, 80
1, 62559, Note_on_c, 0, 64, 0
1, 62560, Note_on_c, 0, 66, 80
1, 62639, Note_on_c, 0, 66, 0
1, 62640, Note_on_c, 0, 67, 80
1, 62719, Note_on_c, 0, 67, 0
1, 62720, Note_on_c, 0, 66, 80
1, 62799, Note_on_c, 0, 66, 0
1, 62800, Note_on_c, 0, 67, 80
1, 62879, Note_on_c, 0, 67, 0
1, 62880, Note_on_c, 0, 66, 80
1, 62880, Note_on_c, 0, 69, 80
1, 62959, Note_on_c, 0, 69, 0
1, 62960, Note_on_c, 0, 67, 80
1, 63039, Note_on_c, 0, 67, 0
1, 63040, Note_on_c, 0, 69, 80
1, 63119, Note_on_c, 0, 66, 0
1, 63119, Note_on_c, 0, 69, 0
1, 63120, Note_on_c, 0, 71, 80
1, 63199, Note_on_c, 0, 71, 0
1, 63200, Note_on_c, 0, 67, 80
1, 63279, Note_on_c, 0, 67, 0
1, 63280, Note_on_c, 0, 69, 80
1, 63359, Note_on_c, 0, 69, 0
1, 63360, Note_on_c, 0, 67, 80
1, 63360, Note_on_c, 0, 71, 80
1, 63439, Note_on_c, 0, 71, 0
1, 63440, Note_on_c, 0, 72, 80
1, 63519, Note_on_c, 0, 72, 0
1, 63520, Note_on_c, 0, 71, 80
1, 63599, Note_on_c, 0, 67, 0
1, 63599, Note_on_c, 0, 71, 0
1, 63600, Note_on_c, 0, 66, 80
1, 63679, Note_on_c, 0, 66, 0
1, 63680, Note_on_c, 0, 67, 80
1, 63759, Note_on_c, 0, 67, 0
1, 63760, Note_on_c, 0, 69, 80
1, 63839, Note_on_c, 0, 69, 0
1, 63840, Note_on_c, 0, 71, 80
1, 63919, Note_on_c, 0, 71, 0
1, 63920, Note_on_c, 0, 69, 80
1, 63999, Note_on_c, 0, 69, 0
1, 64000, Note_on_c, 0, 71, 80
1, 64079, Note_on_c, 0, 71, 0
1, 64080, Note_on_c, 0, 72, 80
1, 64159, Note_on_c, 0, 72, 0
1, 64160, Note_on_c, 0, 71, 80
1, 64239, Note_on_c, 0, 71, 0
1, 64240, Note_on_c, 0, 72, 80
1, 64319, Note_on_c, 0, 72, 0
1, 64320, Note_on_c, 0, 71, 80
1, 64320, Note_on_c, 0, 74, 80
1, 64399, Note_on_c, 0, 74, 0
1, 64400, Note_on_c, 0, 72, 80
1, 64479, Note_on_c, 0, 72, 0
1, 64480, Note_on_c, 0, 74, 80
1, 64559, Note_on_c, 0, 71, 0
1, 64559, Note_on_c, 0, 74, 0
1, 64560, Note_on_c, 0, 76, 80
1, 64639, Note_on_c, 0, 76, 0
1, 64640, Note_on_c, 0, 72, 80
1, 64719, Note_on_c, 0, 72, 0
1, 64720, Note_on_c, 0, 74, 80
1, 64799, Note_on_c, 0, 74, 0
1, 64800, Note_on_c, 0, 76, 80
1, 64879, Note_on_c, 0, 76, 0
1, 64880, Note_on_c, 0, 77, 80
1, 64959, Note_on_c, 0, 77, 0
1, 64960, Note_on_c, 0, 76, 80
1, 65039, Note_on_c, 0, 76, 0
1, 65040, Note_on_c, 0, 71, 80
1, 65119, Note_on_c, 0, 71, 0
1, 65120, Note_on_c, 0, 72, 80
1, 65199, Note_on_c, 0, 72, 0
1, 65200, Note_on_c, 0, 74, 80
1, 65279, Note_on_c, 0, 74, 0
1, 65280, Note_on_c, 0, 76, 80
1, 65359, Note_on_c, 0, 76, 0
1, 65360, Note_on_c, 0, 74, 80
1, 65439, Note_on_c, 0, 74, 0
1, 65440, Note_on_c, 0, 76, 80
1, 65519, Note_on_c, 0, 76, 0
1, 65520, Note_on_c, 0, 78, 80
1, 65599, Note_on_c, 0, 78, 0
1, 65600, Note_on_c, 0, 76, 80
1, 65679, Note_on_c, 0, 76, 0
1, 65680, Note_on_c, 0, 78, 80
1, 65759, Note_on_c, 0, 78, 0
1, 65760, Note_on_c, 0, 79, 80
1, 65839, Note_on_c, 0, 79, 0
1, 65840, Note_on_c, 0, 78, 80
1, 65919, Note_on_c, 0, 78, 0
1, 65920, Note_on_c, 0, 79, 80
1, 65999, Note_on_c, 0, 79, 0
1, 66000, Note_on_c, 0, 81, 80
1, 66079, Note_on_c, 0, 81, 0
1, 66080, Note_on_c, 0, 78, 80
1, 66159, Note_on_c, 0, 78, 0
1, 66160, Note_on_c, 0, 79, 80
1, 66239, Note_on_c, 0, 79, 0
1, 66240, Note_on_c, 0, 81, 80
1, 66319, Note_on_c, 0, 81, 0
1, 66320, Note_on_c, 0, 83, 80
1, 66399, Note_on_c, 0, 83, 0
1, 66400, Note_on_c, 0, 81, 80
1, 66479, Note_on_c, 0, 81, 0
1, 66480, Note_on_c, 0, 78, 80
1, 66559, Note_on_c, 0, 78, 0
1, 66560, Note_on_c, 0, 79, 80
1, 66639, Note_on_c, 0, 79, 0
1, 66640, Note_on_c, 0, 81, 80
1, 66719, Note_on_c, 0, 81, 0
1, 66720, Note_on_c, 0, 83, 80
1, 66799, Note_on_c, 0, 83, 0
1, 66800, Note_on_c, 0, 81, 80
1, 66879, Note_on_c, 0, 81, 0
1, 66880, Note_on_c, 0, 83, 80
1, 66959, Note_on_c, 0, 83, 0
1, 66960, Note_on_c, 0, 86, 80
1, 67039, Note_on_c, 0, 86, 0
1, 67040, Note_on_c, 0, 84, 80
1, 67119, Note_on_c, 0, 84, 0
1, 67120, Note_on_c, 0, 83, 80
1, 67199, Note_on_c, 0, 83, 0
1, 67200, Note_on_c, 0, 81, 80
1, 67279, Note_on_c, 0, 81, 0
1, 67280, Note_on_c, 0, 79, 80
1, 67359, Note_on_c, 0, 79, 0
1, 67360, Note_on_c, 0, 78, 80
1, 67439, Note_on_c, 0, 78, 0
1, 67440, Note_on_c, 0, 76, 80
1, 67519, Note_on_c, 0, 76, 0
1, 67520, Note_on_c, 0, 74, 80
1, 67599, Note_on_c, 0, 74, 0
1, 67600, Note_on_c, 0, 72, 80
1, 67679, Note_on_c, 0, 72, 0
1, 67680, Note_on_c, 0, 71, 80
1, 67759, Note_on_c, 0, 71, 0
1, 67760, Note_on_c, 0, 69, 80
1, 67839, Note_on_c, 0, 69, 0
1, 67840, Note_on_c, 0, 67, 80
1, 67919, Note_on_c, 0, 67, 0
1, 67920, Note_on_c, 0, 66, 80
1, 67999, Note_on_c, 0, 66, 0
1, 68000, Note_on_c, 0, 67, 80
1, 68079, Note_on_c, 0, 67, 0
1, 68080, Note_on_c, 0, 62, 80
1, 68159, Note_on_c, 0, 62, 0
1, 68160, Note_on_c, 0, 59, 80
1, 68319, Note_on_c, 0, 59, 0
1, 69120, Note_on_c, 0, 81, 80
1, 69199, Note_on_c, 0, 81, 0
1, 69200, Note_on_c, 0, 79, 80
1, 69279, Note_on_c, 0, 79, 0
1, 69280, Note_on_c, 0, 81, 80
1, 69359, Note_on_c, 0, 81, 0
1, 69360, Note_on_c, 0, 86, 80
1, 69439, Note_on_c, 0, 86, 0
1, 69440, Note_on_c, 0, 84, 80
1, 69519, Note_on_c, 0, 84, 0
1, 69520, Note_on_c, 0, 83, 80
1, 69599, Note_on_c, 0, 83, 0
1, 69600, Note_on_c, 0, 81, 80
1, 69679, Note_on_c, 0, 81, 0
1, 69680, Note_on_c, 0, 83, 80
1, 69759, Note_on_c, 0, 83, 0
1, 69760, Note_on_c, 0, 81, 80
1, 69839, Note_on_c, 0, 81, 0
1, 69840, Note_on_c, 0, 79, 80
1, 69919, Note_on_c, 0, 79, 0
1, 69920, Note_on_c, 0, 81, 80
1, 69999, Note_on_c, 0, 81, 0
1, 70000, Note_on_c, 0, 79, 80
1, 70079, Note_on_c, 0, 79, 0
1, 70080, Note_on_c, 0, 78, 80
1, 70159, Note_on_c, 0, 78, 0
1, 70160, Note_on_c, 0, 79, 80
1, 70239, Note_on_c, 0, 79, 0
1, 70240, Note_on_c, 0, 78, 80
1, 70319, Note_on_c, 0, 78, 0
1, 70320, Note_on_c, 0, 76, 80
1, 70399, Note_on_c, 0, 76, 0
1, 70400, Note_on_c, 0, 78, 80
1, 70479, Note_on_c, 0, 78, 0
1, 70480, Note_on_c, 0, 76, 80
1, 70559, Note_on_c, 0, 76, 0
1, 70560, Note_on_c, 0, 74, 80
1, 70639, Note_on_c, 0, 74, 0
1, 70640, Note_on_c, 0, 72, 80
1, 70719, Note_on_c, 0, 72, 0
1, 70720, Note_on_c, 0, 74, 80
1, 70799, Note_on_c, 0, 74, 0
1, 70800, Note_on_c, 0, 79, 80
1, 70879, Note_on_c, 0, 79, 0
1, 70880, Note_on_c, 0, 78, 80
1, 70959, Note_on_c, 0, 78, 0
1, 70960, Note_on_c, 0, 76, 80
1, 71039, Note_on_c, 0, 76, 0
1, 71040, Note_on_c, 0, 74, 80
1, 71119, Note_on_c, 0, 74, 0
1, 71120, Note_on_c, 0, 76, 80
1, 71199, Note_on_c, 0, 76, 0
1, 71200, Note_on_c, 0, 74, 80
1, 71279, Note_on_c, 0, 74, 0
1, 71280, Note_on_c, 0, 72, 80
1, 71359, Note_on_c, 0, 72, 0
1, 71360, Note_on_c, 0, 74, 80
1, 71439, Note_on_c, 0, 74, 0
1, 71440, Note_on_c, 0, 72, 80
1, 71519, Note_on_c, 0, 72, 0
1, 71520, Note_on_c, 0, 71, 80
1, 71599, Note_on_c, 0, 71, 0
1, 71600, Note_on_c, 0, 72, 80
1, 71679, Note_on_c, 0, 72, 0
1, 71680, Note_on_c, 0, 71, 80
1, 71759, Note_on_c, 0, 71, 0
1, 71760, Note_on_c, 0, 69, 80
1, 71839, Note_on_c, 0, 69, 0
1, 71840, Note_on_c, 0, 71, 80
1, 71919, Note_on_c, 0, 71, 0
1, 71920, Note_on_c, 0, 69, 80
1, 71999, Note_on_c, 0, 69, 0
1, 72000, Note_on_c, 0, 67, 80
1, 72079, Note_on_c, 0, 67, 0
1, 72080, Note_on_c, 0, 66, 80
1, 72159, Note_on_c, 0, 66, 0
1, 72160, Note_on_c, 0, 67, 80
1, 72239, Note_on_c, 0, 67, 0
1, 72240, Note_on_c, 0, 71, 80
1, 72319, Note_on_c, 0, 71, 0
1, 72320, Note_on_c, 0, 69, 80
1, 72399, Note_on_c, 0, 69, 0
1, 72400, Note_on_c, 0, 67, 80
1, 72479, Note_on_c, 0, 67, 0
1, 72480, Note_on_c, 0, 66, 80
1, 72559, Note_on_c, 0, 66, 0
1, 72560, Note_on_c, 0, 67, 80
1, 72639, Note_on_c, 0, 67, 0
1, 72640, Note_on_c, 0, 66, 80
1, 72719, Note_on_c, 0, 66, 0
1, 72720, Note_on_c, 0, 64, 80
1, 72799, Note_on_c, 0, 64, 0
1, 72800, Note_on_c, 0, 66, 80
1, 72879, Note_on_c, 0, 66, 0
1, 72880, Note_on_c, 0, 64, 80
1, 72959, Note_on_c, 0, 64, 0
1, 72960, Note_on_c, 0, 63, 80
1, 73039, Note_on_c, 0, 63, 0
1, 73040, Note_on_c, 0, 64, 80
1, 73119, Note_on_c, 0, 64, 0
1, 73120, Note_on_c, 0, 63, 80
1, 73199, Note_on_c, 0, 63, 0
1, 73200, Note_on_c, 0, 61, 80
1, 73279, Note_on_c, 0, 61, 0
1, 73280, Note_on_c, 0, 63, 80
1, 73359, Note_on_c, 0, 63, 0
1, 73360, Note_on_c, 0, 61, 80
1, 73439, Note_on_c, 0, 61, 0
1, 73440, Note_on_c, 0, 59, 80
1, 73519, Note_on_c, 0, 59, 0
1, 73520, Note_on_c, 0, 58, 80
1, 73599, Note_on_c, 0, 58, 0
1, 73600, Note_on_c, 0, 59, 80
1, 73679, Note_on_c, 0, 59, 0
1, 73680, Note_on_c, 0, 64, 80
1, 73759, Note_on_c, 0, 64, 0
1, 73760, Note_on_c, 0, 63, 80
1, 73839, Note_on_c, 0, 63, 0
1, 73840, Note_on_c, 0, 61, 80
1, 73919, Note_on_c, 0, 61, 0
1, 73920, Note_on_c, 0, 59, 80
1, 73999, Note_on_c, 0, 59, 0
1, 74000, Note_on_c, 0, 60, 80
1, 74079, Note_on_c, 0, 60, 0
1, 74080, Note_on_c, 0, 59, 80
1, 74159, Note_on_c, 0, 59, 0
1, 74160, Note_on_c, 0, 57, 80
1, 74239, Note_on_c, 0, 57, 0
1, 74240, Note_on_c, 0, 59, 80
1, 74319, Note_on_c, 0, 59, 0
1, 74320, Note_on_c, 0, 57, 80
1, 74399, Note_on_c, 0, 57, 0
1, 74400, Note_on_c, 0, 55, 80
1, 74479, Note_on_c, 0, 55, 0
1, 74480, Note_on_c, 0, 57, 80
1, 74559, Note_on_c, 0, 57, 0
1, 74560, Note_on_c, 0, 55, 80
1, 74639, Note_on_c, 0, 55, 0
1, 74640, Note_on_c, 0, 54, 80
1, 74719, Note_on_c, 0, 54, 0
1, 74720, Note_on_c, 0, 55, 80
1, 74799, Note_on_c, 0, 55, 0
1, 74800, Note_on_c, 0, 54, 80
1, 74879, Note_on_c, 0, 54, 0
1, 74880, Note_on_c, 0, 52, 80
1, 74959, Note_on_c, 0, 52, 0
1, 74960, Note_on_c, 0, 51, 80
1, 75039, Note_on_c, 0, 51, 0
1, 75040, Note_on_c, 0, 52, 80
1, 75119, Note_on_c, 0, 52, 0
1, 75120, Note_on_c, 0, 57, 80
1, 75199, Note_on_c, 0, 57, 0
1, 75200, Note_on_c, 0, 55, 80
1, 75279, Note_on_c, 0, 55, 0
1, 75280, Note_on_c, 0, 57, 80
1, 75359, Note_on_c, 0, 57, 0
1, 75360, Note_on_c, 0, 55, 80
1, 75439, Note_on_c, 0, 55, 0
1, 75440, Note_on_c, 0, 54, 80
1, 75519, Note_on_c, 0, 54, 0
1, 75520, Note_on_c, 0, 55, 80
1, 75599, Note_on_c, 0, 55, 0
1, 75600, Note_on_c, 0, 59, 80
1, 75679, Note_on_c, 0, 59, 0
1, 75680, Note_on_c, 0, 64, 80
1, 75759, Note_on_c, 0, 64, 0
1, 75760, Note_on_c, 0, 66, 80
1, 75839, Note_on_c, 0, 66, 0
1, 75840, Note_on_c, 0, 67, 80
1, 75919, Note_on_c, 0, 67, 0
1, 75920, Note_on_c, 0, 66, 80
1, 75999, Note_on_c, 0, 66, 0
1, 76000, Note_on_c, 0, 67, 80
1, 76079, Note_on_c, 0, 67, 0
1, 76080, Note_on_c, 0, 64, 80
1, 76159, Note_on_c, 0, 64, 0
1, 76160, Note_on_c, 0, 63, 80
1, 76239, Note_on_c, 0, 63, 0
1, 76240, Note_on_c, 0, 64, 80
1, 76319, Note_on_c, 0, 64, 0
1, 76320, Note_on_c, 0, 60, 80
1, 76399, Note_on_c, 0, 60, 0
1, 76400, Note_on_c, 0, 59, 80
1, 76479, Note_on_c, 0, 59, 0
1, 76480, Note_on_c, 0, 60, 80
1, 76559, Note_on_c, 0, 60, 0
1, 76560, Note_on_c, 0, 64, 80
1, 76639, Note_on_c, 0, 64, 0
1, 76640, Note_on_c, 0, 62, 80
1, 76719, Note_on_c, 0, 62, 0
1, 76720, Note_on_c, 0, 64, 80
1, 76799, Note_on_c, 0, 64, 0
1, 76800, Note_on_c, 0, 57, 80
1, 76879, Note_on_c, 0, 57, 0
1, 76880, Note_on_c, 0, 56, 80
1, 76959, Note_on_c, 0, 56, 0
1, 76960, Note_on_c, 0, 57, 80
1, 77039, Note_on_c, 0, 57, 0
1, 77040, Note_on_c, 0, 60, 80
1, 77119, Note_on_c, 0, 60, 0
1, 77120, Note_on_c, 0, 65, 80
1, 77199, Note_on_c, 0, 65, 0
1, 77200, Note_on_c, 0, 69, 80
1, 77279, Note_on_c, 0, 69, 0
1, 77280, Note_on_c, 0, 72, 80
1, 77359, Note_on_c, 0, 72, 0
1, 77360, Note_on_c, 0, 71, 80
1, 77439, Note_on_c, 0, 71, 0
1, 77440, Note_on_c, 0, 72, 80
1, 77519, Note_on_c, 0, 72, 0
1, 77520, Note_on_c, 0, 69, 80
1, 77599, Note_on_c, 0, 69, 0
1, 77600, Note_on_c, 0, 65, 80
1, 77679, Note_on_c, 0, 65, 0
1, 77680, Note_on_c, 0, 69, 80
1, 77759, Note_on_c, 0, 69, 0
1, 77760, Note_on_c, 0, 63, 80
1, 77839, Note_on_c, 0, 63, 0
1, 77840, Note_on_c, 0, 61, 80
1, 77919, Note_on_c, 0, 61, 0
1, 77920, Note_on_c, 0, 63, 80
1, 77999, Note_on_c, 0, 63, 0
1, 78000, Note_on_c, 0, 66, 80
1, 78079, Note_on_c, 0, 66, 0
1, 78080, Note_on_c, 0, 64, 80
1, 78159, Note_on_c, 0, 64, 0
1, 78160, Note_on_c, 0, 66, 80
1, 78239, Note_on_c, 0, 66, 0
1, 78240, Note_on_c, 0, 59, 80
1, 78319, Note_on_c, 0, 59, 0
1, 78320, Note_on_c, 0, 58, 80
1, 78399, Note_on_c, 0, 58, 0
1, 78400, Note_on_c, 0, 59, 80
1, 78479, Note_on_c, 0, 59, 0
1, 78480, Note_on_c, 0, 63, 80
1, 78559, Note_on_c, 0, 63, 0
1, 78560, Note_on_c, 0, 67, 80
1, 78639, Note_on_c, 0, 67, 0
1, 78640, Note_on_c, 0, 69, 80
1, 78719, Note_on_c, 0, 69, 0
1, 78720, Note_on_c, 0, 69, 80
1, 78799, Note_on_c, 0, 69, 0
1, 78800, Note_on_c, 0, 67, 80
1, 78879, Note_on_c, 0, 67, 0
1, 78880, Note_on_c, 0, 69, 80
1, 78959, Note_on_c, 0, 69, 0
1, 78960, Note_on_c, 0, 66, 80
1, 79039, Note_on_c, 0, 66, 0
1, 79040, Note_on_c, 0, 63, 80
1, 79119, Note_on_c, 0, 63, 0
1, 79120, Note_on_c, 0, 66, 80
1, 79199, Note_on_c, 0, 66, 0
1, 79200, Note_on_c, 0, 67, 80
1, 79279, Note_on_c, 0, 67, 0
1, 79280, Note_on_c, 0, 66, 80
1, 79359, Note_on_c, 0, 66, 0
1, 79360, Note_on_c, 0, 67, 80
1, 79439, Note_on_c, 0, 67, 0
1, 79440, Note_on_c, 0, 71, 80
1, 79519, Note_on_c, 0, 71, 0
1, 79520, Note_on_c, 0, 69, 80
1, 79599, Note_on_c, 0, 69, 0
1, 79600, Note_on_c, 0, 71, 80
1, 79679, Note_on_c, 0, 71, 0
1, 79680, Note_on_c, 0, 64, 80
1, 79759, Note_on_c, 0, 64, 0
1, 79760, Note_on_c, 0, 63, 80
1, 79839, Note_on_c, 0, 63, 0
1, 79840, Note_on_c, 0, 64, 80
1, 79919, Note_on_c, 0, 64, 0
1, 79920, Note_on_c, 0, 67, 80
1, 79999, Note_on_c, 0, 67, 0
1, 80000, Note_on_c, 0, 71, 80
1, 80079, Note_on_c, 0, 71, 0
1, 80080, Note_on_c, 0, 73, 80
1, 80159, Note_on_c, 0, 73, 0
1, 80160, Note_on_c, 0, 76, 80
1, 80239, Note_on_c, 0, 76, 0
1, 80240, Note_on_c, 0, 73, 80
1, 80319, Note_on_c, 0, 73, 0
1, 80320, Note_on_c, 0, 71, 80
1, 80399, Note_on_c, 0, 71, 0
1, 80400, Note_on_c, 0, 69, 80
1, 80479, Note_on_c, 0, 69, 0
1, 80480, Note_on_c, 0, 67, 80
1, 80559, Note_on_c, 0, 67, 0
1, 80560, Note_on_c, 0, 66, 80
1, 80639, Note_on_c, 0, 66, 0
1, 80640, Note_on_c, 0, 64, 80
1, 80879, Note_on_c, 0, 64, 0
1, 81000, Note_on_c, 0, 68, 80
1, 81119, Note_on_c, 0, 68, 0
1, 81120, Note_on_c, 0, 69, 80
1, 81479, Note_on_c, 0, 69, 0
1, 81480, Note_on_c, 0, 71, 80
1, 81480, Note_on_c, 0, 79, 80
1, 81599, Note_on_c, 0, 71, 0
1, 81599, Note_on_c, 0, 79, 0
1, 81600, Note_on_c, 0, 72, 80
1, 81600, Note_on_c, 0, 79, 80
1, 81839, Note_on_c, 0, 79, 0
1, 81840, Note_on_c, 0, 78, 80
1, 81960, Note_on_c, 0, 76, 80
1, 82079, Note_on_c, 0, 72, 0
1, 82079, Note_on_c, 0, 76, 0
1, 82080, Note_on_c, 0, 76, 80
1, 82199, Note_on_c, 0, 78, 0
1, 82319, Note_on_c, 0, 76, 0
1, 82320, Note_on_c, 0, 74, 80
1, 82440, Note_on_c, 0, 66, 80
1, 82559, Note_on_c, 0, 66, 0
1, 82560, Note_on_c, 0, 67, 80
1, 82799, Note_on_c, 0, 74, 0
1, 82919, Note_on_c, 0, 67, 0
1, 82920, Note_on_c, 0, 69, 80
1, 82920, Note_on_c, 0, 77, 80
1, 83039, Note_on_c, 0, 69, 0
1, 83039, Note_on_c, 0, 77, 0
1, 83040, Note_on_c, 0, 71, 80
1, 83040, Note_on_c, 0, 77, 80
1, 83279, Note_on_c, 0, 77, 0
1, 83280, Note_on_c, 0, 76, 80
1, 83400, Note_on_c, 0, 74, 80
1, 83519, Note_on_c, 0, 71, 0
1, 83519, Note_on_c, 0, 74, 0
1, 83520, Note_on_c, 0, 74, 80
1, 83639, Note_on_c, 0, 76, 0
1, 83759, Note_on_c, 0, 74, 0
1, 83760, Note_on_c, 0, 72, 80
1, 83880, Note_on_c, 0, 64, 80
1, 83999, Note_on_c, 0, 64, 0
1, 84000, Note_on_c, 0, 66, 80
1, 84359, Note_on_c, 0, 66, 0
1, 84360, Note_on_c, 0, 67, 80
1, 84479, Note_on_c, 0, 67, 0
1, 84480, Note_on_c, 0, 69, 80
1, 84719, Note_on_c, 0, 72, 0
1, 84839, Note_on_c, 0, 69, 0
1, 84840, Note_on_c, 0, 67, 80
1, 84840, Note_on_c, 0, 72, 80
1, 84959, Note_on_c, 0, 67, 0
1, 84959, Note_on_c, 0, 72, 0
1, 84960, Note_on_c, 0, 72, 80
1, 84960, Note_on_c, 0, 66, 80
1, 85039, Note_on_c, 0, 66, 0
1, 85040, Note_on_c, 0, 67, 80
1, 85119, Note_on_c, 0, 67, 0
1, 85120, Note_on_c, 0, 66, 80
1, 85199, Note_on_c, 0, 72, 0
1, 85199, Note_on_c, 0, 66, 0
1, 85200, Note_on_c, 0, 61, 80
1, 85279, Note_on_c, 0, 61, 0
1, 85280, Note_on_c, 0, 62, 80
1, 85359, Note_on_c, 0, 62, 0
1, 85360, Note_on_c, 0, 64, 80
1, 85439, Note_on_c, 0, 64, 0
1, 85440, Note_on_c, 0, 66, 80
1, 85519, Note_on_c, 0, 66, 0
1, 85520, Note_on_c, 0, 64, 80
1, 85599, Note_on_c, 0, 64, 0
1, 85600, Note_on_c, 0, 66, 80
1, 85679, Note_on_c, 0, 66, 0
1, 85680, Note_on_c, 0, 67, 80
1, 85759, Note_on_c, 0, 67, 0
1, 85760, Note_on_c, 0, 66, 80
1, 85839, Note_on_c, 0, 66, 0
1, 85840, Note_on_c, 0, 67, 80
1, 85919, Note_on_c, 0, 67, 0
1, 85920, Note_on_c, 0, 66, 80
1, 85920, Note_on_c, 0, 69, 80
1, 85999, Note_on_c, 0, 69, 0
1, 86000, Note_on_c, 0, 67, 80
1, 86079, Note_on_c, 0, 67, 0
1, 86080, Note_on_c, 0, 69, 80
1, 86159, Note_on_c, 0, 66, 0
1, 86159, Note_on_c, 0, 69, 0
1, 86160, Note_on_c, 0, 71, 80
1, 86239, Note_on_c, 0, 71, 0
1, 86240, Note_on_c, 0, 67, 80
1, 86319, Note_on_c, 0, 67, 0
1, 86320, Note_on_c, 0, 69, 80
1, 86399, Note_on_c, 0, 69, 0
1, 86400, Note_on_c, 0, 67, 80
1, 86400, Note_on_c, 0, 71, 80
1, 86479, Note_on_c, 0, 71, 0
1, 86480, Note_on_c, 0, 72, 80
1, 86559, Note_on_c, 0, 72, 0
1, 86560, Note_on_c, 0, 71, 80
1, 86639, Note_on_c, 0, 67, 0
1, 86639, Note_on_c, 0, 71, 0
1, 86640, Note_on_c, 0, 66, 80
1, 86719, Note_on_c, 0, 66, 0
1, 86720, Note_on_c, 0, 67, 80
1, 86799, Note_on_c, 0, 67, 0
1, 86800, Note_on_c, 0, 69, 80
1, 86879, Note_on_c, 0, 69, 0
1, 86880, Note_on_c, 0, 71, 80
1, 86959, Note_on_c, 0, 71, 0
1, 86960, Note_on_c, 0, 69, 80
1, 87039, Note_on_c, 0, 69, 0
1, 87040, Note_on_c, 0, 71, 80
1, 87119, Note_on_c, 0, 71, 0
1, 87120, Note_on_c, 0, 72, 80
1, 87199, Note_on_c, 0, 72, 0
1, 87200, Note_on_c, 0, 71, 80
1, 87279, Note_on_c, 0, 71, 0
1, 87280, Note_on_c, 0, 72, 80
1, 87359, Note_on_c, 0, 72, 0
1, 87360, Note_on_c, 0, 71, 80
1, 87360, Note_on_c, 0, 74, 80
1, 87439, Note_on_c, 0, 74, 0
1, 87440, Note_on_c, 0, 72, 80
1, 87519, Note_on_c, 0, 72, 0
1, 87520, Note_on_c, 0, 74, 80
1, 87599, Note_on_c, 0, 71, 0
1, 87599, Note_on_c, 0, 74, 0
1, 87600, Note_on_c, 0, 76, 80
1, 87679, Note_on_c, 0, 76, 0
1, 87680, Note_on_c, 0, 72, 80
1, 87759, Note_on_c, 0, 72, 0
1, 87760, Note_on_c, 0, 74, 80
1, 87839, Note_on_c, 0, 74, 0
1, 87840, Note_on_c, 0, 76, 80
1, 87919, Note_on_c, 0, 76, 0
1, 87920, Note_on_c, 0, 77, 80
1, 87999, Note_on_c, 0, 77, 0
1, 88000, Note_on_c, 0, 76, 80
1, 88079, Note_on_c, 0, 76, 0
1, 88080, Note_on_c, 0, 71, 80
1, 88159, Note_on_c, 0, 71, 0
1, 88160, Note_on_c, 0, 72, 80
1, 88239, Note_on_c, 0, 72, 0
1, 88240, Note_on_c, 0, 74, 80
1, 88319, Note_on_c, 0, 74, 0
1, 88320, Note_on_c, 0, 76, 80
1, 88399, Note_on_c, 0, 76, 0
1, 88400, Note_on_c, 0, 74, 80
1, 88479, Note_on_c, 0, 74, 0
1, 88480, Note_on_c, 0, 76, 80
1, 88559, Note_on_c, 0, 76, 0
1, 88560, Note_on_c, 0, 78, 80
1, 88639, Note_on_c, 0, 78, 0
1, 88640, Note_on_c, 0, 76, 80
1, 88719, Note_on_c, 0, 76, 0
1, 88720, Note_on_c, 0, 78, 80
1, 88799, Note_on_c, 0, 78, 0
1, 88800, Note_on_c, 0, 79, 80
1, 88879, Note_on_c, 0, 79, 0
1, 88880, Note_on_c, 0, 78, 80
1, 88959, Note_on_c, 0, 78, 0
1, 88960, Note_on_c, 0, 79, 80
1, 89039, Note_on_c, 0, 79, 0
1, 89040, Note_on_c, 0, 81, 80
1, 89119, Note_on_c, 0, 81, 0
1, 89120, Note_on_c, 0, 78, 80
1, 89199, Note_on_c, 0, 78, 0
1, 89200, Note_on_c, 0, 79, 80
1, 89279, Note_on_c, 0, 79, 0
1, 89280, Note_on_c, 0, 81, 80
1, 89359, Note_on_c, 0, 81, 0
1, 89360, Note_on_c, 0, 83, 80
1, 89439, Note_on_c, 0, 83, 0
1, 89440, Note_on_c, 0, 81, 80
1, 89519, Note_on_c, 0, 81, 0
1, 89520, Note_on_c, 0, 78, 80
1, 89599, Note_on_c, 0, 78, 0
1, 89600, Note_on_c, 0, 79, 80
1, 89679, Note_on_c, 0, 79, 0
1, 89680, Note_on_c, 0, 81, 80
1, 89759, Note_on_c, 0, 81, 0
1, 89760, Note_on_c, 0, 83, 80
1, 89839, Note_on_c, 0, 83, 0
1, 89840, Note_on_c, 0, 81, 80
1, 89919, Note_on_c, 0, 81, 0
1, 89920, Note_on_c, 0, 83, 80
1, 89999, Note_on_c, 0, 83, 0
1, 90000, Note_on_c, 0, 86, 80
1, 90079, Note_on_c, 0, 86, 0
1, 90080, Note_on_c, 0, 84, 80
1, 90159, Note_on_c, 0, 84, 0
1, 90160, Note_on_c, 0, 83, 80
1, 90239, Note_on_c, 0, 83, 0
1, 90240, Note_on_c, 0, 81, 80
1, 90319, Note_on_c, 0, 81, 0
1, 90320, Note_on_c, 0, 79, 80
1, 90399, Note_on_c, 0, 79, 0
1, 90400, Note_on_c, 0, 78, 80
1, 90479, Note_on_c, 0, 78, 0
1, 90480, Note_on_c, 0, 76, 80
1, 90559, Note_on_c, 0, 76, 0
1, 90560, Note_on_c, 0, 74, 80
1, 90639, Note_on_c, 0, 74, 0
1, 90640, Note_on_c, 0, 72, 80
1, 90719, Note_on_c, 0, 72, 0
1, 90720, Note_on_c, 0, 71, 80
1, 90799, Note_on_c, 0, 71, 0
1, 90800, Note_on_c, 0, 69, 80
1, 90879, Note_on_c, 0, 69, 0
1, 90880, Note_on_c, 0, 67, 80
1, 90959, Note_on_c, 0, 67, 0
1, 90960, Note_on_c, 0, 66, 80
1, 91039, Note_on_c, 0, 66, 0
1, 91040, Note_on_c, 0, 67, 80
1, 91119, Note_on_c, 0, 67, 0
1, 91120, Note_on_c, 0, 62, 80
1, 91199, Note_on_c, 0, 62, 0
1, 91200, Note_on_c, 0, 59, 80
1, 91359, Note_on_c, 0, 59, 0
1, 91360, End_track
2, 0, Start_track
2, 0, Key_signature, 1, "major"
2, 0, Note_on_c, 0, 67, 80
2, 479, Note_on_c, 0, 67, 0
2, 480, Note_on_c, 0, 62, 80
2, 959, Note_on_c, 0, 62, 0
2, 1200, Note_on_c, 0, 67, 80
2, 1439, Note_on_c, 0, 67, 0
2, 1440, Note_on_c, 0, 67, 80
2, 1799, Note_on_c, 0, 67, 0
2, 1800, Note_on_c, 0, 64, 80
2, 1919, Note_on_c, 0, 64, 0
2, 1920, Note_on_c, 0, 64, 80
2, 2159, Note_on_c, 0, 64, 0
2, 2160, Note_on_c, 0, 66, 80
2, 2639, Note_on_c, 0, 66, 0
2, 2640, Note_on_c, 0, 69, 80
2, 2879, Note_on_c, 0, 69, 0
2, 2880, Note_on_c, 0, 71, 80
2, 3239, Note_on_c, 0, 71, 0
2, 3240, Note_on_c, 0, 67, 80
2, 3359, Note_on_c, 0, 67, 0
2, 3360, Note_on_c, 0, 64, 80
2, 3839, Note_on_c, 0, 64, 0
2, 4200, Note_on_c, 0, 57, 80
2, 4319, Note_on_c, 0, 57, 0
2, 4320, Note_on_c, 0, 62, 80
2, 4799, Note_on_c, 0, 62, 0
2, 4800, Note_on_c, 0, 62, 80
2, 5279, Note_on_c, 0, 62, 0
2, 5520, Note_on_c, 0, 60, 80
2, 5759, Note_on_c, 0, 60, 0
2, 5760, Note_on_c, 0, 59, 80
2, 6119, Note_on_c, 0, 59, 0
2, 6120, Note_on_c, 0, 60, 80
2, 6239, Note_on_c, 0, 60, 0
2, 6240, Note_on_c, 0, 62, 80
2, 6719, Note_on_c, 0, 62, 0
2, 6960, Note_on_c, 0, 55, 80
2, 7199, Note_on_c, 0, 55, 0
2, 7200, Note_on_c, 0, 60, 80
2, 7679, Note_on_c, 0, 60, 0
2, 7680, Note_on_c, 0, 52, 80
2, 8159, Note_on_c, 0, 52, 0
2, 8400, Note_on_c, 0, 55, 80
2, 8639, Note_on_c, 0, 55, 0
2, 8640, Note_on_c, 0, 54, 80
2, 8999, Note_on_c, 0, 54, 0
2, 9000, Note_on_c, 0, 55, 80
2, 9119, Note_on_c, 0, 55, 0
2, 9120, Note_on_c, 0, 57, 80
2, 9599, Note_on_c, 0, 57, 0
2, 9840, Note_on_c, 0, 50, 80
2, 10079, Note_on_c, 0, 50, 0
2, 10080, Note_on_c, 0, 55, 80
2, 10559, Note_on_c, 0, 55, 0
2, 10560, Note_on_c, 0, 43, 80
2, 11039, Note_on_c, 0, 43, 0
2, 11520, Note_on_c, 0, 43, 80
2, 11599, Note_on_c, 0, 43, 0
2, 11600, Note_on_c, 0, 45, 80
2, 11679, Note_on_c, 0, 45, 0
2, 11680, Note_on_c, 0, 43, 80
2, 11759, Note_on_c, 0, 43, 0
2, 11760, Note_on_c, 0, 38, 80
2, 11839, Note_on_c, 0, 38, 0
2, 11840, Note_on_c, 0, 40, 80
2, 11919, Note_on_c, 0, 40, 0
2, 11920, Note_on_c, 0, 42, 80
2, 11999, Note_on_c, 0, 42, 0
2, 12000, Note_on_c, 0, 43, 80
2, 12079, Note_on_c, 0, 43, 0
2, 12080, Note_on_c, 0, 42, 80
2, 12159, Note_on_c, 0, 42, 0
2, 12160, Note_on_c, 0, 43, 80
2, 12239, Note_on_c, 0, 43, 0
2, 12240, Note_on_c, 0, 45, 80
2, 12319, Note_on_c, 0, 45, 0
2, 12320, Note_on_c, 0, 43, 80
2, 12399, Note_on_c, 0, 43, 0
2, 12400, Note_on_c, 0, 45, 80
2, 12479, Note_on_c, 0, 45, 0
2, 12480, Note_on_c, 0, 47, 80
2, 12559, Note_on_c, 0, 47, 0
2, 12560, Note_on_c, 0, 45, 80
2, 12639, Note_on_c, 0, 45, 0
2, 12640, Note_on_c, 0, 47, 80
2, 12719, Note_on_c, 0, 47, 0
2, 12720, Note_on_c, 0, 48, 80
2, 12799, Note_on_c, 0, 48, 0
2, 12800, Note_on_c, 0, 47, 80
2, 12879, Note_on_c, 0, 47, 0
2, 12880, Note_on_c, 0, 49, 80
2, 12959, Note_on_c, 0, 49, 0
2, 12960, Note_on_c, 0, 50, 80
2, 13039, Note_on_c, 0, 50, 0
2, 13040, Note_on_c, 0, 52, 80
2, 13119, Note_on_c, 0, 52, 0
2, 13120, Note_on_c, 0, 50, 80
2, 13199, Note_on_c, 0, 50, 0
2, 13200, Note_on_c, 0, 45, 80
2, 13279, Note_on_c, 0, 45, 0
2, 13280, Note_on_c, 0, 47, 80
2, 13359, Note_on_c, 0, 47, 0
2, 13360, Note_on_c, 0, 49, 80
2, 13439, Note_on_c, 0, 49, 0
2, 13440, Note_on_c, 0, 50, 80
2, 13519, Note_on_c, 0, 50, 0
2, 13520, Note_on_c, 0, 49, 80
2, 13599, Note_on_c, 0, 49, 0
2, 13600, Note_on_c, 0, 50, 80
2, 13679, Note_on_c, 0, 50, 0
2, 13680, Note_on_c, 0, 52, 80
2, 13759, Note_on_c, 0, 52, 0
2, 13760, Note_on_c, 0, 50, 80
2, 13839, Note_on_c, 0, 50, 0
2, 13840, Note_on_c, 0, 52, 80
2, 13919, Note_on_c, 0, 52, 0
2, 13920, Note_on_c, 0, 54, 80
2, 13999, Note_on_c, 0, 54, 0
2, 14000, Note_on_c, 0, 52, 80
2, 14079, Note_on_c, 0, 52, 0
2, 14080, Note_on_c, 0, 54, 80
2, 14159, Note_on_c, 0, 54, 0
2, 14160, Note_on_c, 0, 55, 80
2, 14239, Note_on_c, 0, 55, 0
2, 14240, Note_on_c, 0, 52, 80
2, 14319, Note_on_c, 0, 52, 0
2, 14320, Note_on_c, 0, 54, 80
2, 14399, Note_on_c, 0, 54, 0
2, 14400, Note_on_c, 0, 55, 80
2, 14479, Note_on_c, 0, 55, 0
2, 14480, Note_on_c, 0, 57, 80
2, 14559, Note_on_c, 0, 57, 0
2, 14560, Note_on_c, 0, 55, 80
2, 14639, Note_on_c, 0, 55, 0
2, 14640, Note_on_c, 0, 50, 80
2, 14719, Note_on_c, 0, 50, 0
2, 14720, Note_on_c, 0, 52, 80
2, 14799, Note_on_c, 0, 52, 0
2, 14800, Note_on_c, 0, 54, 80
2, 14879, Note_on_c, 0, 54, 0
2, 14880, Note_on_c, 0, 55, 80
2, 14959, Note_on_c, 0, 55, 0
2, 14960, Note_on_c, 0, 54, 80
2, 15039, Note_on_c, 0, 54, 0
2, 15040, Note_on_c, 0, 55, 80
2, 15119, Note_on_c, 0, 55, 0
2, 15120, Note_on_c, 0, 57, 80
2, 15199, Note_on_c, 0, 57, 0
2, 15200, Note_on_c, 0, 55, 80
2, 15279, Note_on_c, 0, 55, 0
2, 15280, Note_on_c, 0, 57, 80
2, 15359, Note_on_c, 0, 57, 0
2, 15360, Note_on_c, 0, 59, 80
2, 15439, Note_on_c, 0, 59, 0
2, 15440, Note_on_c, 0, 57, 80
2, 15519, Note_on_c, 0, 57, 0
2, 15520, Note_on_c, 0, 59, 80
2, 15599, Note_on_c, 0, 59, 0
2, 15600, Note_on_c, 0, 61, 80
2, 15679, Note_on_c, 0, 61, 0
2, 15680, Note_on_c, 0, 57, 80
2, 15759, Note_on_c, 0, 57, 0
2, 15760, Note_on_c, 0, 59, 80
2, 15839, Note_on_c, 0, 59, 0
2, 15840, Note_on_c, 0, 61, 80
2, 15919, Note_on_c, 0, 61, 0
2, 15920, Note_on_c, 0, 62, 80
2, 15999, Note_on_c, 0, 62, 0
2, 16000, Note_on_c, 0, 61, 80
2, 16079, Note_on_c, 0, 61, 0
2, 16080, Note_on_c, 0, 52, 80
2, 16159, Note_on_c, 0, 52, 0
2, 16160, Note_on_c, 0, 57, 80
2, 16239, Note_on_c, 0, 57, 0
2, 16240, Note_on_c, 0, 59, 80
2, 16319, Note_on_c, 0, 59, 0
2, 16320, Note_on_c, 0, 61, 80
2, 16399, Note_on_c, 0, 61, 0
2, 16400, Note_on_c, 0, 59, 80
2, 16479, Note_on_c, 0, 59, 0
2, 16480, Note_on_c, 0, 61, 80
2, 16559, Note_on_c, 0, 61, 0
2, 16560, Note_on_c, 0, 62, 80
2, 16639, Note_on_c, 0, 62, 0
2, 16640, Note_on_c, 0, 61, 80
2, 16719, Note_on_c, 0, 61, 0
2, 16720, Note_on_c, 0, 62, 80
2, 16799, Note_on_c, 0, 62, 0
2, 16800, Note_on_c, 0, 64, 80
2, 16879, Note_on_c, 0, 64, 0
2, 16880, Note_on_c, 0, 62, 80
2, 16959, Note_on_c, 0, 62, 0
2, 16960, Note_on_c, 0, 64, 80
2, 17039, Note_on_c, 0, 64, 0
2, 17040, Note_on_c, 0, 66, 80
2, 17119, Note_on_c, 0, 66, 0
2, 17120, Note_on_c, 0, 62, 80
2, 17199, Note_on_c, 0, 62, 0
2, 17200, Note_on_c, 0, 64, 80
2, 17279, Note_on_c, 0, 64, 0
2, 17280, Note_on_c, 0, 66, 80
2, 17359, Note_on_c, 0, 66, 0
2, 17360, Note_on_c, 0, 64, 80
2, 17439, Note_on_c, 0, 64, 0
2, 17440, Note_on_c, 0, 66, 80
2, 17519, Note_on_c, 0, 66, 0
2, 17520, Note_on_c, 0, 69, 80
2, 17599, Note_on_c, 0, 69, 0
2, 17600, Note_on_c, 0, 67, 80
2, 17679, Note_on_c, 0, 67, 0
2, 17680, Note_on_c, 0, 69, 80
2, 17759, Note_on_c, 0, 69, 0
2, 17760, Note_on_c, 0, 62, 80
2, 17839, Note_on_c, 0, 62, 0
2, 17840, Note_on_c, 0, 61, 80
2, 17919, Note_on_c, 0, 61, 0
2, 17920, Note_on_c, 0, 62, 80
2, 17999, Note_on_c, 0, 62, 0
2, 18000, Note_on_c, 0, 66, 80
2, 18079, Note_on_c, 0, 66, 0
2, 18080, Note_on_c, 0, 69, 80
2, 18159, Note_on_c, 0, 69, 0
2, 18160, Note_on_c, 0, 71, 80
2, 18239, Note_on_c, 0, 71, 0
2, 18240, Note_on_c, 0, 72, 80
2, 18319, Note_on_c, 0, 72, 0
2, 18320, Note_on_c, 0, 71, 80
2, 18399, Note_on_c, 0, 71, 0
2, 18400, Note_on_c, 0, 72, 80
2, 18479, Note_on_c, 0, 72, 0
2, 18480, Note_on_c, 0, 69, 80
2, 18559, Note_on_c, 0, 69, 0
2, 18560, Note_on_c, 0, 66, 80
2, 18639, Note_on_c, 0, 66, 0
2, 18640, Note_on_c, 0, 69, 80
2, 18719, Note_on_c, 0, 69, 0
2, 18720, Note_on_c, 0, 67, 80
2, 18799, Note_on_c, 0, 67, 0
2, 18800, Note_on_c, 0, 66, 80
2, 18879, Note_on_c, 0, 66, 0
2, 18880, Note_on_c, 0, 67, 80
2, 18959, Note_on_c, 0, 67, 0
2, 18960, Note_on_c, 0, 71, 80
2, 19039, Note_on_c, 0, 71, 0
2, 19040, Note_on_c, 0, 69, 80
2, 19119, Note_on_c, 0, 69, 0
2, 19120, Note_on_c, 0, 71, 80
2, 19199, Note_on_c, 0, 71, 0
2, 19200, Note_on_c, 0, 64, 80
2, 19279, Note_on_c, 0, 64, 0
2, 19280, Note_on_c, 0, 63, 80
2, 19359, Note_on_c, 0, 63, 0
2, 19360, Note_on_c, 0, 64, 80
2, 19439, Note_on_c, 0, 64, 0
2, 19440, Note_on_c, 0, 67, 80
2, 19519, Note_on_c, 0, 67, 0
2, 19520, Note_on_c, 0, 71, 80
2, 19599, Note_on_c, 0, 71, 0
2, 19600, Note_on_c, 0, 73, 80
2, 19679, Note_on_c, 0, 73, 0
2, 19680, Note_on_c, 0, 74, 80
2, 19759, Note_on_c, 0, 74, 0
2, 19760, Note_on_c, 0, 73, 80
2, 19839, Note_on_c, 0, 73, 0
2, 19840, Note_on_c, 0, 74, 80
2, 19919, Note_on_c, 0, 74, 0
2, 19920, Note_on_c, 0, 71, 80
2, 19999, Note_on_c, 0, 71, 0
2, 20000, Note_on_c, 0, 67, 80
2, 20079, Note_on_c, 0, 67, 0
2, 20080, Note_on_c, 0, 71, 80
2, 20159, Note_on_c, 0, 71, 0
2, 20160, Note_on_c, 0, 73, 80
2, 20239, Note_on_c, 0, 73, 0
2, 20240, Note_on_c, 0, 71, 80
2, 20319, Note_on_c, 0, 71, 0
2, 20320, Note_on_c, 0, 73, 80
2, 20399, Note_on_c, 0, 73, 0
2, 20400, Note_on_c, 0, 76, 80
2, 20479, Note_on_c, 0, 76, 0
2, 20480, Note_on_c, 0, 74, 80
2, 20559, Note_on_c, 0, 74, 0
2, 20560, Note_on_c, 0, 76, 80
2, 20639, Note_on_c, 0, 76, 0
2, 20640, Note_on_c, 0, 69, 80
2, 20719, Note_on_c, 0, 69, 0
2, 20720, Note_on_c, 0, 68, 80
2, 20799, Note_on_c, 0, 68, 0
2, 20800, Note_on_c, 0, 69, 80
2, 20879, Note_on_c, 0, 69, 0
2, 20880, Note_on_c, 0, 73, 80
2, 20959, Note_on_c, 0, 73, 0
2, 20960, Note_on_c, 0, 76, 80
2, 21039, Note_on_c, 0, 76, 0
2, 21040, Note_on_c, 0, 78, 80
2, 21119, Note_on_c, 0, 78, 0
2, 21120, Note_on_c, 0, 79, 80
2, 21199, Note_on_c, 0, 79, 0
2, 21200, Note_on_c, 0, 78, 80
2, 21279, Note_on_c, 0, 78, 0
2, 21280, Note_on_c, 0, 79, 80
2, 21359, Note_on_c, 0, 79, 0
2, 21360, Note_on_c, 0, 76, 80
2, 21439, Note_on_c, 0, 76, 0
2, 21440, Note_on_c, 0, 73, 80
2, 21519, Note_on_c, 0, 73, 0
2, 21520, Note_on_c, 0, 76, 80
2, 21599, Note_on_c, 0, 76, 0
2, 21600, Note_on_c, 0, 78, 80
2, 21679, Note_on_c, 0, 78, 0
2, 21680, Note_on_c, 0, 76, 80
2, 21759, Note_on_c, 0, 76, 0
2, 21760, Note_on_c, 0, 78, 80
2, 21839, Note_on_c, 0, 78, 0
2, 21840, Note_on_c, 0, 81, 80
2, 21919, Note_on_c, 0, 81, 0
2, 21920, Note_on_c, 0, 79, 80
2, 21999, Note_on_c, 0, 79, 0
2, 22000, Note_on_c, 0, 81, 80
2, 22079, Note_on_c, 0, 81, 0
2, 22080, Note_on_c, 0, 74, 80
2, 22159, Note_on_c, 0, 74, 0
2, 22160, Note_on_c, 0, 73, 80
2, 22239, Note_on_c, 0, 73, 0
2, 22240, Note_on_c, 0, 74, 80
2, 22319, Note_on_c, 0, 74, 0
2, 22320, Note_on_c, 0, 78, 80
2, 22399, Note_on_c, 0, 78, 0
2, 22400, Note_on_c, 0, 81, 80
2, 22479, Note_on_c, 0, 81, 0
2, 22480, Note_on_c, 0, 85, 80
2, 22559, Note_on_c, 0, 85, 0
2, 22560, Note_on_c, 0, 86, 80
2, 22619, Note_on_c, 0, 86, 0
2, 22620, Note_on_c, 0, 85, 80
2, 22679, Note_on_c, 0, 85, 0
2, 22680, Note_on_c, 0, 86, 80
2, 23039, Note_on_c, 0, 86, 0
2, 23040, Note_on_c, 0, 67, 80
2, 23519, Note_on_c, 0, 67, 0
2, 23520, Note_on_c, 0, 62, 80
2, 23999, Note_on_c, 0, 62, 0
2, 24240, Note_on_c, 0, 67, 80
2, 24479, Note_on_c, 0, 67, 0
2, 24480, Note_on_c, 0, 67, 80
2, 24839, Note_on_c, 0, 67, 0
2, 24840, Note_on_c, 0, 64, 80
2, 24959, Note_on_c, 0, 64, 0
2, 24960, Note_on_c, 0, 64, 80
2, 25199, Note_on_c, 0, 64, 0
2, 25200, Note_on_c, 0, 66, 80
2, 25679, Note_on_c, 0, 66, 0
2, 25680, Note_on_c, 0, 69, 80
2, 25919, Note_on_c, 0, 69, 0
2, 25920, Note_on_c, 0, 71, 80
2, 26279, Note_on_c, 0, 71, 0
2, 26280, Note_on_c, 0, 67, 80
2, 26399, Note_on_c, 0, 67, 0
2, 26400, Note_on_c, 0, 64, 80
2, 26879, Note_on_c, 0, 64, 0
2, 27240, Note_on_c, 0, 57, 80
2, 27359, Note_on_c, 0, 57, 0
2, 27360, Note_on_c, 0, 62, 80
2, 27839, Note_on_c, 0, 62, 0
2, 27840, Note_on_c, 0, 62, 80
2, 28319, Note_on_c, 0, 62, 0
2, 28560, Note_on_c, 0, 60, 80
2, 28799, Note_on_c, 0, 60, 0
2, 28800, Note_on_c, 0, 59, 80
2, 29159, Note_on_c, 0, 59, 0
2, 29160, Note_on_c, 0, 60, 80
2, 29279, Note_on_c, 0, 60, 0
2, 29280, Note_on_c, 0, 62, 80
2, 29759, Note_on_c, 0, 62, 0
2, 30000, Note_on_c, 0, 55, 80
2, 30239, Note_on_c, 0, 55, 0
2, 30240, Note_on_c, 0, 60, 80
2, 30719, Note_on_c, 0, 60, 0
2, 30720, Note_on_c, 0, 52, 80
2, 31199, Note_on_c, 0, 52, 0
2, 31440, Note_on_c, 0, 55, 80
2, 31679, Note_on_c, 0, 55, 0
2, 31680, Note_on_c, 0, 54, 80
2, 32039, Note_on_c, 0, 54, 0
2, 32040, Note_on_c, 0, 55, 80
2, 32159, Note_on_c, 0, 55, 0
2, 32160, Note_on_c, 0, 57, 80
2, 32639, Note_on_c, 0, 57, 0
2, 32880, Note_on_c, 0, 50, 80
2, 33119, Note_on_c, 0, 50, 0
2, 33120, Note_on_c, 0, 55, 80
2, 33599, Note_on_c, 0, 55, 0
2, 33600, Note_on_c, 0, 43, 80
2, 34079, Note_on_c, 0, 43, 0
2, 34560, Note_on_c, 0, 43, 80
2, 34639, Note_on_c, 0, 43, 0
2, 34640, Note_on_c, 0, 45, 80
2, 34719, Note_on_c, 0, 45, 0
2, 34720, Note_on_c, 0, 43, 80
2, 34799, Note_on_c, 0, 43, 0
2, 34800, Note_on_c, 0, 38, 80
2, 34879, Note_on_c, 0, 38, 0
2, 34880, Note_on_c, 0, 40, 80
2, 34959, Note_on_c, 0, 40, 0
2, 34960, Note_on_c, 0, 42, 80
2, 35039, Note_on_c, 0, 42, 0
2, 35040, Note_on_c, 0, 43, 80
2, 35119, Note_on_c, 0, 43, 0
2, 35120, Note_on_c, 0, 42, 80
2, 35199, Note_on_c, 0, 42, 0
2, 35200, Note_on_c, 0, 43, 80
2, 35279, Note_on_c, 0, 43, 0
2, 35280, Note_on_c, 0, 45, 80
2, 35359, Note_on_c, 0, 45, 0
2, 35360, Note_on_c, 0, 43, 80
2, 35439, Note_on_c, 0, 43, 0
2, 35440, Note_on_c, 0, 45, 80
2, 35519, Note_on_c, 0, 45, 0
2, 35520, Note_on_c, 0, 47, 80
2, 35599, Note_on_c, 0, 47, 0
2, 35600, Note_on_c, 0, 45, 80
2, 35679, Note_on_c, 0, 45, 0
2, 35680, Note_on_c, 0, 47, 80
2, 35759, Note_on_c, 0, 47, 0
2, 35760, Note_on_c, 0, 48, 80
2, 35839, Note_on_c, 0, 48, 0
2, 35840, Note_on_c, 0, 47, 80
2, 35919, Note_on_c, 0, 47, 0
2, 35920, Note_on_c, 0, 49, 80
2, 35999, Note_on_c, 0, 49, 0
2, 36000, Note_on_c, 0, 50, 80
2, 36079, Note_on_c, 0, 50, 0
2, 36080, Note_on_c, 0, 52, 80
2, 36159, Note_on_c, 0, 52, 0
2, 36160, Note_on_c, 0, 50, 80
2, 36239, Note_on_c, 0, 50, 0
2, 36240, Note_on_c, 0, 45, 80
2, 36319, Note_on_c, 0, 45, 0
2, 36320, Note_on_c, 0, 47, 80
2, 36399, Note_on_c, 0, 47, 0
2, 36400, Note_on_c, 0, 49, 80
2, 36479, Note_on_c, 0, 49, 0
2, 36480, Note_on_c, 0, 50, 80
2, 36559, Note_on_c, 0, 50, 0
2, 36560, Note_on_c, 0, 49, 80
2, 36639, Note_on_c, 0, 49, 0
2, 36640, Note_on_c, 0, 50, 80
2, 36719, Note_on_c, 0, 50, 0
2, 36720, Note_on_c, 0, 52, 80
2, 36799, Note_on_c, 0, 52, 0
2, 36800, Note_on_c, 0, 50, 80
2, 36879, Note_on_c, 0, 50, 0
2, 36880, Note_on_c, 0, 52, 80
2, 36959, Note_on_c, 0, 52, 0
2, 36960, Note_on_c, 0, 54, 80
2, 37039, Note_on_c, 0, 54, 0
2, 37040, Note_on_c, 0, 52, 80
2, 37119, Note_on_c, 0, 52, 0
2, 37120, Note_on_c, 0, 54, 80
2, 37199, Note_on_c, 0, 54, 0
2, 37200, Note_on_c, 0, 55, 80
2, 37279, Note_on_c, 0, 55, 0
2, 37280, Note_on_c, 0, 52, 80
2, 37359, Note_on_c, 0, 52, 0
2, 37360, Note_on_c, 0, 54, 80
2, 37439, Note_on_c, 0, 54, 0
2, 37440, Note_on_c, 0, 55, 80
2, 37519, Note_on_c, 0, 55, 0
2, 37520, Note_on_c, 0, 57, 80
2, 37599, Note_on_c, 0, 57, 0
2, 37600, Note_on_c, 0, 55, 80
2, 37679, Note_on_c, 0, 55, 0
2, 37680, Note_on_c, 0, 50, 80
2, 37759, Note_on_c, 0, 50, 0
2, 37760, Note_on_c, 0, 52, 80
2, 37839, Note_on_c, 0, 52, 0
2, 37840, Note_on_c, 0, 54, 80
2, 37919, Note_on_c, 0, 54, 0
2, 37920, Note_on_c, 0, 55, 80
2, 37999, Note_on_c, 0, 55, 0
2, 38000, Note_on_c, 0, 54, 80
2, 38079, Note_on_c, 0, 54, 0
2, 38080, Note_on_c, 0, 55, 80
2, 38159, Note_on_c, 0, 55, 0
2, 38160, Note_on_c, 0, 57, 80
2, 38239, Note_on_c, 0, 57, 0
2, 38240, Note_on_c, 0, 55, 80
2, 38319, Note_on_c, 0, 55, 0
2, 38320, Note_on_c, 0, 57, 80
2, 38399, Note_on_c, 0, 57, 0
2, 38400, Note_on_c, 0, 59, 80
2, 38479, Note_on_c, 0, 59, 0
2, 38480, Note_on_c, 0, 57, 80
2, 38559, Note_on_c, 0, 57, 0
2, 38560, Note_on_c, 0, 59, 80
2, 38639, Note_on_c, 0, 59, 0
2, 38640, Note_on_c, 0, 61, 80
2, 38719, Note_on_c, 0, 61, 0
2, 38720, Note_on_c, 0, 57, 80
2, 38799, Note_on_c, 0, 57, 0
2, 38800, Note_on_c, 0, 59, 80
2, 38879, Note_on_c, 0, 59, 0
2, 38880, Note_on_c, 0, 61, 80
2, 38959, Note_on_c, 0, 61, 0
2, 38960, Note_on_c, 0, 62, 80
2, 39039, Note_on_c, 0, 62, 0
2, 39040, Note_on_c, 0, 61, 80
2, 39119, Note_on_c, 0, 61, 0
2, 39120, Note_on_c, 0, 52, 80
2, 39199, Note_on_c, 0, 52, 0
2, 39200, Note_on_c, 0, 57, 80
2, 39279, Note_on_c, 0, 57, 0
2, 39280, Note_on_c, 0, 59, 80
2, 39359, Note_on_c, 0, 59, 0
2, 39360, Note_on_c, 0, 61, 80
2, 39439, Note_on_c, 0, 61, 0
2, 39440, Note_on_c, 0, 59, 80
2, 39519, Note_on_c, 0, 59, 0
2, 39520, Note_on_c, 0, 61, 80
2, 39599, Note_on_c, 0, 61, 0
2, 39600, Note_on_c, 0, 62, 80
2, 39679, Note_on_c, 0, 62, 0
2, 39680, Note_on_c, 0, 61, 80
2, 39759, Note_on_c, 0, 61, 0
2, 39760, Note_on_c, 0, 62, 80
2, 39839, Note_on_c, 0, 62, 0
2, 39840, Note_on_c, 0, 64, 80
2, 39919, Note_on_c, 0, 64, 0
2, 39920, Note_on_c, 0, 62, 80
2, 39999, Note_on_c, 0, 62, 0
2, 40000, Note_on_c, 0, 64, 80
2, 40079, Note_on_c, 0, 64, 0
2, 40080, Note_on_c, 0, 66, 80
2, 40159, Note_on_c, 0, 66, 0
2, 40160, Note_on_c, 0, 62, 80
2, 40239, Note_on_c, 0, 62, 0
2, 40240, Note_on_c, 0, 64, 80
2, 40319, Note_on_c, 0, 64, 0
2, 40320, Note_on_c, 0, 66, 80
2, 40399, Note_on_c, 0, 66, 0
2, 40400, Note_on_c, 0, 64, 80
2, 40479, Note_on_c, 0, 64, 0
2, 40480, Note_on_c, 0, 66, 80
2, 40559, Note_on_c, 0, 66, 0
2, 40560, Note_on_c, 0, 69, 80
2, 40639, Note_on_c, 0, 69, 0
2, 40640, Note_on_c, 0, 67, 80
2, 40719, Note_on_c, 0, 67, 0
2, 40720, Note_on_c, 0, 69, 80
2, 40799, Note_on_c, 0, 69, 0
2, 40800, Note_on_c, 0, 62, 80
2, 40879, Note_on_c, 0, 62, 0
2, 40880, Note_on_c, 0, 61, 80
2, 40959, Note_on_c, 0, 61, 0
2, 40960, Note_on_c, 0, 62, 80
2, 41039, Note_on_c, 0, 62, 0
2, 41040, Note_on_c, 0, 66, 80
2, 41119, Note_on_c, 0, 66, 0
2, 41120, Note_on_c, 0, 69, 80
2, 41199, Note_on_c, 0, 69, 0
2, 41200, Note_on_c, 0, 71, 80
2, 41279, Note_on_c, 0, 71, 0
2, 41280, Note_on_c, 0, 72, 80
2, 41359, Note_on_c, 0, 72, 0
2, 41360, Note_on_c, 0, 71, 80
2, 41439, Note_on_c, 0, 71, 0
2, 41440, Note_on_c, 0, 72, 80
2, 41519, Note_on_c, 0, 72, 0
2, 41520, Note_on_c, 0, 69, 80
2, 41599, Note_on_c, 0, 69, 0
2, 41600, Note_on_c, 0, 66, 80
2, 41679, Note_on_c, 0, 66, 0
2, 41680, Note_on_c, 0, 69, 80
2, 41759, Note_on_c, 0, 69, 0
2, 41760, Note_on_c, 0, 67, 80
2, 41839, Note_on_c, 0, 67, 0
2, 41840, Note_on_c, 0, 66, 80
2, 41919, Note_on_c, 0, 66, 0
2, 41920, Note_on_c, 0, 67, 80
2, 41999, Note_on_c, 0, 67, 0
2, 42000, Note_on_c, 0, 71, 80
2, 42079, Note_on_c, 0, 71, 0
2, 42080, Note_on_c, 0, 69, 80
2, 42159, Note_on_c, 0, 69, 0
2, 42160, Note_on_c, 0, 71, 80
2, 42239, Note_on_c, 0, 71, 0
2, 42240, Note_on_c, 0, 64, 80
2, 42319, Note_on_c, 0, 64, 0
2, 42320, Note_on_c, 0, 63, 80
2, 42399, Note_on_c, 0, 63, 0
2, 42400, Note_on_c, 0, 64, 80
2, 42479, Note_on_c, 0, 64, 0
2, 42480, Note_on_c, 0, 67, 80
2, 42559, Note_on_c, 0, 67, 0
2, 42560, Note_on_c, 0, 71, 80
2, 42639, Note_on_c, 0, 71, 0
2, 42640, Note_on_c, 0, 73, 80
2, 42719, Note_on_c, 0, 73, 0
2, 42720, Note_on_c, 0, 74, 80
2, 42799, Note_on_c, 0, 74, 0
2, 42800, Note_on_c, 0, 73, 80
2, 42879, Note_on_c, 0, 73, 0
2, 42880, Note_on_c, 0, 74, 80
2, 42959, Note_on_c, 0, 74, 0
2, 42960, Note_on_c, 0, 71, 80
2, 43039, Note_on_c, 0, 71, 0
2, 43040, Note_on_c, 0, 67, 80
2, 43119, Note_on_c, 0, 67, 0
2, 43120, Note_on_c, 0, 71, 80
2, 43199, Note_on_c, 0, 71, 0
2, 43200, Note_on_c, 0, 73, 80
2, 43279, Note_on_c, 0, 73, 0
2, 43280, Note_on_c, 0, 71, 80
2, 43359, Note_on_c, 0, 71, 0
2, 43360, Note_on_c, 0, 73, 80
2, 43439, Note_on_c, 0, 73, 0
2, 43440, Note_on_c, 0, 76, 80
2, 43519, Note_on_c, 0, 76, 0
2, 43520, Note_on_c, 0, 74, 80
2, 43599, Note_on_c, 0, 74, 0
2, 43600, Note_on_c, 0, 76, 80
2, 43679, Note_on_c, 0, 76, 0
2, 43680, Note_on_c, 0, 69, 80
2, 43759, Note_on_c, 0, 69, 0
2, 43760, Note_on_c, 0, 68, 80
2, 43839, Note_on_c, 0, 68, 0
2, 43840, Note_on_c, 0, 69, 80
2, 43919, Note_on_c, 0, 69, 0
2, 43920, Note_on_c, 0, 73, 80
2, 43999, Note_on_c, 0, 73, 0
2, 44000, Note_on_c, 0, 76, 80
2, 44079, Note_on_c, 0, 76, 0
2, 44080, Note_on_c, 0, 78, 80
2, 44159, Note_on_c, 0, 78, 0
2, 44160, Note_on_c, 0, 79, 80
2, 44239, Note_on_c, 0, 79, 0
2, 44240, Note_on_c, 0, 78, 80
2, 44319, Note_on_c, 0, 78, 0
2, 44320, Note_on_c, 0, 79, 80
2, 44399, Note_on_c, 0, 79, 0
2, 44400, Note_on_c, 0, 76, 80
2, 44479, Note_on_c, 0, 76, 0
2, 44480, Note_on_c, 0, 73, 80
2, 44559, Note_on_c, 0, 73, 0
2, 44560, Note_on_c, 0, 76, 80
2, 44639, Note_on_c, 0, 76, 0
2, 44640, Note_on_c, 0, 78, 80
2, 44719, Note_on_c, 0, 78, 0
2, 44720, Note_on_c, 0, 76, 80
2, 44799, Note_on_c, 0, 76, 0
2, 44800, Note_on_c, 0, 78, 80
2, 44879, Note_on_c, 0, 78, 0
2, 44880, Note_on_c, 0, 81, 80
2, 44959, Note_on_c, 0, 81, 0
2, 44960, Note_on_c, 0, 79, 80
2, 45039, Note_on_c, 0, 79, 0
2, 45040, Note_on_c, 0, 81, 80
2, 45119, Note_on_c, 0, 81, 0
2, 45120, Note_on_c, 0, 74, 80
2, 45199, Note_on_c, 0, 74, 0
2, 45200, Note_on_c, 0, 73, 80
2, 45279, Note_on_c, 0, 73, 0
2, 45280, Note_on_c, 0, 74, 80
2, 45359, Note_on_c, 0, 74, 0
2, 45360, Note_on_c, 0, 78, 80
2, 45439, Note_on_c, 0, 78, 0
2, 45440, Note_on_c, 0, 81, 80
2, 45519, Note_on_c, 0, 81, 0
2, 45520, Note_on_c, 0, 85, 80
2, 45599, Note_on_c, 0, 85, 0
2, 45600, Note_on_c, 0, 86, 80
2, 45659, Note_on_c, 0, 86, 0
2, 45660, Note_on_c, 0, 85, 80
2, 45719, Note_on_c, 0, 85, 0
2, 45720, Note_on_c, 0, 86, 80
2, 46079, Note_on_c, 0, 86, 0
2, 46080, Note_on_c, 0, 62, 80
2, 46080, Note_on_c, 0, 66, 80
2, 46439, Note_on_c, 0, 66, 0
2, 46440, Note_on_c, 0, 64, 80
2, 46559, Note_on_c, 0, 62, 0
2, 46559, Note_on_c, 0, 64, 0
2, 46560, Note_on_c, 0, 60, 80
2, 46560, Note_on_c, 0, 64, 80
2, 46799, Note_on_c, 0, 64, 0
2, 46800, Note_on_c, 0, 66, 80
2, 47039, Note_on_c, 0, 60, 0
2, 47279, Note_on_c, 0, 66, 0
2, 47280, Note_on_c, 0, 60, 80
2, 47280, Note_on_c, 0, 62, 80
2, 47519, Note_on_c, 0, 60, 0
2, 47519, Note_on_c, 0, 62, 0
2, 47520, Note_on_c, 0, 59, 80
2, 47520, Note_on_c, 0, 67, 80
2, 47879, Note_on_c, 0, 59, 0
2, 47879, Note_on_c, 0, 67, 0
2, 47880, Note_on_c, 0, 62, 80
2, 47880, Note_on_c, 0, 69, 80
2, 47999, Note_on_c, 0, 62, 0
2, 47999, Note_on_c, 0, 69, 0
2, 48000, Note_on_c, 0, 67, 80
2, 48000, Note_on_c, 0, 69, 80
2, 48239, Note_on_c, 0, 69, 0
2, 48240, Note_on_c, 0, 71, 80
2, 48479, Note_on_c, 0, 67, 0
2, 48719, Note_on_c, 0, 71, 0
2, 48720, Note_on_c, 0, 74, 80
2, 48720, Note_on_c, 0, 79, 80
2, 48959, Note_on_c, 0, 74, 0
2, 48959, Note_on_c, 0, 79, 0
2, 48960, Note_on_c, 0, 73, 80
2, 48960, Note_on_c, 0, 76, 80
2, 49319, Note_on_c, 0, 76, 0
2, 49320, Note_on_c, 0, 83, 80
2, 49439, Note_on_c, 0, 73, 0
2, 49439, Note_on_c, 0, 83, 0
2, 49440, Note_on_c, 0, 75, 80
2, 49440, Note_on_c, 0, 83, 80
2, 49679, Note_on_c, 0, 83, 0
2, 49680, Note_on_c, 0, 81, 80
2, 49919, Note_on_c, 0, 75, 0
2, 50159, Note_on_c, 0, 81, 0
2, 50160, Note_on_c, 0, 76, 80
2, 50160, Note_on_c, 0, 81, 80
2, 50399, Note_on_c, 0, 76, 0
2, 50399, Note_on_c, 0, 81, 0
2, 50400, Note_on_c, 0, 75, 80
2, 50400, Note_on_c, 0, 81, 80
2, 50759, Note_on_c, 0, 81, 0
2, 50760, Note_on_c, 0, 78, 80
2, 50879, Note_on_c, 0, 75, 0
2, 50879, Note_on_c, 0, 78, 0
2, 50880, Note_on_c, 0, 66, 80
2, 50880, Note_on_c, 0, 76, 80
2, 51119, Note_on_c, 0, 76, 0
2, 51120, Note_on_c, 0, 75, 80
2, 51359, Note_on_c, 0, 66, 0
2, 51599, Note_on_c, 0, 75, 0
2, 51600, Note_on_c, 0, 74, 80
2, 51600, Note_on_c, 0, 78, 80
2, 51839, Note_on_c, 0, 74, 0
2, 51839, Note_on_c, 0, 78, 0
2, 51840, Note_on_c, 0, 76, 80
2, 51840, Note_on_c, 0, 79, 80
2, 52199, Note_on_c, 0, 79, 0
2, 52200, Note_on_c, 0, 78, 80
2, 52319, Note_on_c, 0, 76, 0
2, 52319, Note_on_c, 0, 78, 0
2, 52320, Note_on_c, 0, 71, 80
2, 52320, Note_on_c, 0, 78, 80
2, 52559, Note_on_c, 0, 78, 0
2, 52560, Note_on_c, 0, 76, 80
2, 52799, Note_on_c, 0, 71, 0
2, 53039, Note_on_c, 0, 76, 0
2, 53040, Note_on_c, 0, 71, 80
2, 53040, Note_on_c, 0, 79, 80
2, 53279, Note_on_c, 0, 71, 0
2, 53279, Note_on_c, 0, 79, 0
2, 53280, Note_on_c, 0, 69, 80
2, 53280, Note_on_c, 0, 79, 80
2, 53639, Note_on_c, 0, 69, 0
2, 53640, Note_on_c, 0, 71, 80
2, 53759, Note_on_c, 0, 71, 0
2, 53759, Note_on_c, 0, 79, 0
2, 53760, Note_on_c, 0, 71, 80
2, 53760, Note_on_c, 0, 77, 80
2, 53999, Note_on_c, 0, 71, 0
2, 54000, Note_on_c, 0, 72, 80
2, 54239, Note_on_c, 0, 77, 0
2, 54479, Note_on_c, 0, 72, 0
2, 54480, Note_on_c, 0, 72, 80
2, 54480, Note_on_c, 0, 81, 80
2, 54719, Note_on_c, 0, 72, 0
2, 54719, Note_on_c, 0, 81, 0
2, 54720, Note_on_c, 0, 71, 80
2, 54720, Note_on_c, 0, 81, 80
2, 55079, Note_on_c, 0, 81, 0
2, 55080, Note_on_c, 0, 78, 80
2, 55199, Note_on_c, 0, 71, 0
2, 55199, Note_on_c, 0, 78, 0
2, 55200, Note_on_c, 0, 69, 80
2, 55200, Note_on_c, 0, 76, 80
2, 55439, Note_on_c, 0, 76, 0
2, 55440, Note_on_c, 0, 75, 80
2, 55679, Note_on_c, 0, 69, 0
2, 55919, Note_on_c, 0, 75, 0
2, 55920, Note_on_c, 0, 69, 80
2, 55920, Note_on_c, 0, 78, 80
2, 56159, Note_on_c, 0, 69, 0
2, 56159, Note_on_c, 0, 78, 0
2, 56160, Note_on_c, 0, 69, 80
2, 56160, Note_on_c, 0, 79, 80
2, 56519, Note_on_c, 0, 69, 0
2, 56519, Note_on_c, 0, 79, 0
2, 56520, Note_on_c, 0, 66, 80
2, 56520, Note_on_c, 0, 75, 80
2, 56639, Note_on_c, 0, 66, 0
2, 56639, Note_on_c, 0, 75, 0
2, 56640, Note_on_c, 0, 67, 80
2, 56640, Note_on_c, 0, 76, 80
2, 56699, Note_on_c, 0, 76, 0
2, 56700, Note_on_c, 0, 74, 80
2, 56759, Note_on_c, 0, 74, 0
2, 56760, Note_on_c, 0, 76, 80
2, 57119, Note_on_c, 0, 67, 0
2, 57119, Note_on_c, 0, 76, 0
2, 57200, Note_on_c, 0, 52, 80
2, 57279, Note_on_c, 0, 52, 0
2, 57280, Note_on_c, 0, 54, 80
2, 57359, Note_on_c, 0, 54, 0
2, 57360, Note_on_c, 0, 55, 80
2, 57439, Note_on_c, 0, 55, 0
2, 57440, Note_on_c, 0, 57, 80
2, 57519, Note_on_c, 0, 57, 0
2, 57520, Note_on_c, 0, 59, 80
2, 57599, Note_on_c, 0, 59, 0
2, 57600, Note_on_c, 0, 60, 80
2, 57679, Note_on_c, 0, 60, 0
2, 57680, Note_on_c, 0, 59, 80
2, 57759, Note_on_c, 0, 59, 0
2, 57760, Note_on_c, 0, 60, 80
2, 57839, Note_on_c, 0, 60, 0
2, 57840, Note_on_c, 0, 65, 80
2, 57919, Note_on_c, 0, 65, 0
2, 57920, Note_on_c, 0, 64, 80
2, 57999, Note_on_c, 0, 64, 0
2, 58000, Note_on_c, 0, 62, 80
2, 58079, Note_on_c, 0, 62, 0
2, 58080, Note_on_c, 0, 60, 80
2, 58159, Note_on_c, 0, 60, 0
2, 58160, Note_on_c, 0, 62, 80
2, 58239, Note_on_c, 0, 62, 0
2, 58240, Note_on_c, 0, 60, 80
2, 58319, Note_on_c, 0, 60, 0
2, 58320, Note_on_c, 0, 59, 80
2, 58399, Note_on_c, 0, 59, 0
2, 58400, Note_on_c, 0, 60, 80
2, 58479, Note_on_c, 0, 60, 0
2, 58480, Note_on_c, 0, 59, 80
2, 58559, Note_on_c, 0, 59, 0
2, 58560, Note_on_c, 0, 57, 80
2, 58639, Note_on_c, 0, 57, 0
2, 58640, Note_on_c, 0, 59, 80
2, 58719, Note_on_c, 0, 59, 0
2, 58720, Note_on_c, 0, 57, 80
2, 58799, Note_on_c, 0, 57, 0
2, 58800, Note_on_c, 0, 55, 80
2, 58879, Note_on_c, 0, 55, 0
2, 58880, Note_on_c, 0, 57, 80
2, 58959, Note_on_c, 0, 57, 0
2, 58960, Note_on_c, 0, 54, 80
2, 59039, Note_on_c, 0, 54, 0
2, 59040, Note_on_c, 0, 59, 80
2, 59119, Note_on_c, 0, 59, 0
2, 59120, Note_on_c, 0, 57, 80
2, 59199, Note_on_c, 0, 57, 0
2, 59200, Note_on_c, 0, 59, 80
2, 59279, Note_on_c, 0, 59, 0
2, 59280, Note_on_c, 0, 64, 80
2, 59359, Note_on_c, 0, 64, 0
2, 59360, Note_on_c, 0, 62, 80
2, 59439, Note_on_c, 0, 62, 0
2, 59440, Note_on_c, 0, 60, 80
2, 59519, Note_on_c, 0, 60, 0
2, 59520, Note_on_c, 0, 59, 80
2, 59599, Note_on_c, 0, 59, 0
2, 59600, Note_on_c, 0, 60, 80
2, 59679, Note_on_c, 0, 60, 0
2, 59680, Note_on_c, 0, 59, 80
2, 59759, Note_on_c, 0, 59, 0
2, 59760, Note_on_c, 0, 57, 80
2, 59839, Note_on_c, 0, 57, 0
2, 59840, Note_on_c, 0, 60, 80
2, 59919, Note_on_c, 0, 60, 0
2, 59920, Note_on_c, 0, 57, 80
2, 59999, Note_on_c, 0, 57, 0
2, 60000, Note_on_c, 0, 55, 80
2, 60079, Note_on_c, 0, 55, 0
2, 60080, Note_on_c, 0, 57, 80
2, 60159, Note_on_c, 0, 57, 0
2, 60160, Note_on_c, 0, 55, 80
2, 60239, Note_on_c, 0, 55, 0
2, 60240, Note_on_c, 0, 54, 80
2, 60319, Note_on_c, 0, 54, 0
2, 60320, Note_on_c, 0, 55, 80
2, 60399, Note_on_c, 0, 55, 0
2, 60400, Note_on_c, 0, 52, 80
2, 60479, Note_on_c, 0, 52, 0
2, 60480, Note_on_c, 0, 57, 80
2, 60559, Note_on_c, 0, 57, 0
2, 60560, Note_on_c, 0, 55, 80
2, 60639, Note_on_c, 0, 55, 0
2, 60640, Note_on_c, 0, 57, 80
2, 60719, Note_on_c, 0, 57, 0
2, 60720, Note_on_c, 0, 62, 80
2, 60799, Note_on_c, 0, 62, 0
2, 60800, Note_on_c, 0, 60, 80
2, 60879, Note_on_c, 0, 60, 0
2, 60880, Note_on_c, 0, 59, 80
2, 60959, Note_on_c, 0, 59, 0
2, 60960, Note_on_c, 0, 57, 80
2, 61039, Note_on_c, 0, 57, 0
2, 61040, Note_on_c, 0, 59, 80
2, 61119, Note_on_c, 0, 59, 0
2, 61120, Note_on_c, 0, 57, 80
2, 61199, Note_on_c, 0, 57, 0
2, 61200, Note_on_c, 0, 55, 80
2, 61279, Note_on_c, 0, 55, 0
2, 61280, Note_on_c, 0, 57, 80
2, 61359, Note_on_c, 0, 57, 0
2, 61360, Note_on_c, 0, 55, 80
2, 61439, Note_on_c, 0, 55, 0
2, 61440, Note_on_c, 0, 54, 80
2, 61519, Note_on_c, 0, 54, 0
2, 61520, Note_on_c, 0, 55, 80
2, 61599, Note_on_c, 0, 55, 0
2, 61600, Note_on_c, 0, 54, 80
2, 61679, Note_on_c, 0, 54, 0
2, 61680, Note_on_c, 0, 52, 80
2, 61759, Note_on_c, 0, 52, 0
2, 61760, Note_on_c, 0, 54, 80
2, 61839, Note_on_c, 0, 54, 0
2, 61840, Note_on_c, 0, 52, 80
2, 61919, Note_on_c, 0, 52, 0
2, 61920, Note_on_c, 0, 50, 80
2, 61999, Note_on_c, 0, 50, 0
2, 62000, Note_on_c, 0, 49, 80
2, 62079, Note_on_c, 0, 49, 0
2, 62080, Note_on_c, 0, 50, 80
2, 62159, Note_on_c, 0, 50, 0
2, 62160, Note_on_c, 0, 55, 80
2, 62239, Note_on_c, 0, 55, 0
2, 62240, Note_on_c, 0, 54, 80
2, 62319, Note_on_c, 0, 54, 0
2, 62320, Note_on_c, 0, 52, 80
2, 62399, Note_on_c, 0, 52, 0
2, 62400, Note_on_c, 0, 50, 80
2, 62479, Note_on_c, 0, 50, 0
2, 62480, Note_on_c, 0, 52, 80
2, 62559, Note_on_c, 0, 52, 0
2, 62560, Note_on_c, 0, 50, 80
2, 62639, Note_on_c, 0, 50, 0
2, 62640, Note_on_c, 0, 48, 80
2, 62719, Note_on_c, 0, 48, 0
2, 62720, Note_on_c, 0, 50, 80
2, 62799, Note_on_c, 0, 50, 0
2, 62800, Note_on_c, 0, 48, 80
2, 62879, Note_on_c, 0, 48, 0
2, 62880, Note_on_c, 0, 47, 80
2, 62959, Note_on_c, 0, 47, 0
2, 62960, Note_on_c, 0, 48, 80
2, 63039, Note_on_c, 0, 48, 0
2, 63040, Note_on_c, 0, 47, 80
2, 63119, Note_on_c, 0, 47, 0
2, 63120, Note_on_c, 0, 45, 80
2, 63199, Note_on_c, 0, 45, 0
2, 63200, Note_on_c, 0, 47, 80
2, 63279, Note_on_c, 0, 47, 0
2, 63280, Note_on_c, 0, 45, 80
2, 63359, Note_on_c, 0, 45, 0
2, 63360, Note_on_c, 0, 43, 80
2, 63439, Note_on_c, 0, 43, 0
2, 63440, Note_on_c, 0, 42, 80
2, 63519, Note_on_c, 0, 42, 0
2, 63520, Note_on_c, 0, 43, 80
2, 63599, Note_on_c, 0, 43, 0
2, 63600, Note_on_c, 0, 48, 80
2, 63679, Note_on_c, 0, 48, 0
2, 63680, Note_on_c, 0, 47, 80
2, 63759, Note_on_c, 0, 47, 0
2, 63760, Note_on_c, 0, 45, 80
2, 63839, Note_on_c, 0, 45, 0
2, 63840, Note_on_c, 0, 43, 80
2, 63919, Note_on_c, 0, 43, 0
2, 63920, Note_on_c, 0, 45, 80
2, 63999, Note_on_c, 0, 45, 0
2, 64000, Note_on_c, 0, 43, 80
2, 64079, Note_on_c, 0, 43, 0
2, 64080, Note_on_c, 0, 41, 80
2, 64159, Note_on_c, 0, 41, 0
2, 64160, Note_on_c, 0, 43, 80
2, 64239, Note_on_c, 0, 43, 0
2, 64240, Note_on_c, 0, 41, 80
2, 64319, Note_on_c, 0, 41, 0
2, 64320, Note_on_c, 0, 40, 80
2, 64399, Note_on_c, 0, 40, 0
2, 64400, Note_on_c, 0, 41, 80
2, 64479, Note_on_c, 0, 41, 0
2, 64480, Note_on_c, 0, 40, 80
2, 64559, Note_on_c, 0, 40, 0
2, 64560, Note_on_c, 0, 38, 80
2, 64639, Note_on_c, 0, 38, 0
2, 64640, Note_on_c, 0, 40, 80
2, 64719, Note_on_c, 0, 40, 0
2, 64720, Note_on_c, 0, 38, 80
2, 64799, Note_on_c, 0, 38, 0
2, 64800, Note_on_c, 0, 36, 80
2, 65039, Note_on_c, 0, 36, 0
2, 65040, Note_on_c, 0, 43, 80
2, 65119, Note_on_c, 0, 43, 0
2, 65120, Note_on_c, 0, 45, 80
2, 65199, Note_on_c, 0, 45, 0
2, 65200, Note_on_c, 0, 47, 80
2, 65279, Note_on_c, 0, 47, 0
2, 65280, Note_on_c, 0, 48, 80
2, 65359, Note_on_c, 0, 48, 0
2, 65360, Note_on_c, 0, 47, 80
2, 65439, Note_on_c, 0, 47, 0
2, 65440, Note_on_c, 0, 48, 80
2, 65519, Note_on_c, 0, 48, 0
2, 65520, Note_on_c, 0, 50, 80
2, 65599, Note_on_c, 0, 50, 0
2, 65600, Note_on_c, 0, 48, 80
2, 65679, Note_on_c, 0, 48, 0
2, 65680, Note_on_c, 0, 50, 80
2, 65759, Note_on_c, 0, 50, 0
2, 65760, Note_on_c, 0, 52, 80
2, 65839, Note_on_c, 0, 52, 0
2, 65840, Note_on_c, 0, 50, 80
2, 65919, Note_on_c, 0, 50, 0
2, 65920, Note_on_c, 0, 48, 80
2, 65999, Note_on_c, 0, 48, 0
2, 66000, Note_on_c, 0, 47, 80
2, 66079, Note_on_c, 0, 47, 0
2, 66080, Note_on_c, 0, 45, 80
2, 66159, Note_on_c, 0, 45, 0
2, 66160, Note_on_c, 0, 43, 80
2, 66239, Note_on_c, 0, 43, 0
2, 66240, Note_on_c, 0, 42, 80
2, 66319, Note_on_c, 0, 42, 0
2, 66320, Note_on_c, 0, 40, 80
2, 66399, Note_on_c, 0, 40, 0
2, 66400, Note_on_c, 0, 42, 80
2, 66479, Note_on_c, 0, 42, 0
2, 66480, Note_on_c, 0, 38, 80
2, 66559, Note_on_c, 0, 38, 0
2, 66560, Note_on_c, 0, 40, 80
2, 66639, Note_on_c, 0, 40, 0
2, 66640, Note_on_c, 0, 42, 80
2, 66719, Note_on_c, 0, 42, 0
2, 66720, Note_on_c, 0, 43, 80
2, 66799, Note_on_c, 0, 43, 0
2, 66800, Note_on_c, 0, 42, 80
2, 66879, Note_on_c, 0, 42, 0
2, 66880, Note_on_c, 0, 43, 80
2, 66959, Note_on_c, 0, 43, 0
2, 66960, Note_on_c, 0, 45, 80
2, 67039, Note_on_c, 0, 45, 0
2, 67040, Note_on_c, 0, 47, 80
2, 67119, Note_on_c, 0, 47, 0
2, 67120, Note_on_c, 0, 48, 80
2, 67199, Note_on_c, 0, 48, 0
2, 67200, Note_on_c, 0, 50, 80
2, 67279, Note_on_c, 0, 50, 0
2, 67280, Note_on_c, 0, 49, 80
2, 67359, Note_on_c, 0, 49, 0
2, 67360, Note_on_c, 0, 50, 80
2, 67439, Note_on_c, 0, 50, 0
2, 67440, Note_on_c, 0, 52, 80
2, 67519, Note_on_c, 0, 52, 0
2, 67520, Note_on_c, 0, 54, 80
2, 67599, Note_on_c, 0, 54, 0
2, 67600, Note_on_c, 0, 50, 80
2, 67679, Note_on_c, 0, 50, 0
2, 67680, Note_on_c, 0, 55, 80
2, 67839, Note_on_c, 0, 55, 0
2, 68240, Note_on_c, 0, 57, 80
2, 68319, Note_on_c, 0, 57, 0
2, 68320, Note_on_c, 0, 55, 80
2, 68399, Note_on_c, 0, 55, 0
2, 68400, Note_on_c, 0, 54, 80
2, 68479, Note_on_c, 0, 54, 0
2, 68480, Note_on_c, 0, 55, 80
2, 68559, Note_on_c, 0, 55, 0
2, 68560, Note_on_c, 0, 50, 80
2, 68639, Note_on_c, 0, 50, 0
2, 68640, Note_on_c, 0, 43, 80
2, 69119, Note_on_c, 0, 43, 0
2, 69120, Note_on_c, 0, 62, 80
2, 69120, Note_on_c, 0, 66, 80
2, 69479, Note_on_c, 0, 66, 0
2, 69480, Note_on_c, 0, 64, 80
2, 69599, Note_on_c, 0, 62, 0
2, 69599, Note_on_c, 0, 64, 0
2, 69600, Note_on_c, 0, 60, 80
2, 69600, Note_on_c, 0, 64, 80
2, 69839, Note_on_c, 0, 64, 0
2, 69840, Note_on_c, 0, 66, 80
2, 70079, Note_on_c, 0, 60, 0
2, 70319, Note_on_c, 0, 66, 0
2, 70320, Note_on_c, 0, 60, 80
2, 70320, Note_on_c, 0, 62, 80
2, 70559, Note_on_c, 0, 60, 0
2, 70559, Note_on_c, 0, 62, 0
2, 70560, Note_on_c, 0, 59, 80
2, 70560, Note_on_c, 0, 67, 80
2, 70919, Note_on_c, 0, 59, 0
2, 70919, Note_on_c, 0, 67, 0
2, 70920, Note_on_c, 0, 62, 80
2, 70920, Note_on_c, 0, 69, 80
2, 71039, Note_on_c, 0, 62, 0
2, 71039, Note_on_c, 0, 69, 0
2, 71040, Note_on_c, 0, 67, 80
2, 71040, Note_on_c, 0, 69, 80
2, 71279, Note_on_c, 0, 69, 0
2, 71280, Note_on_c, 0, 71, 80
2, 71519, Note_on_c, 0, 67, 0
2, 71759, Note_on_c, 0, 71, 0
2, 71760, Note_on_c, 0, 74, 80
2, 71760, Note_on_c, 0, 79, 80
2, 71999, Note_on_c, 0, 74, 0
2, 71999, Note_on_c, 0, 79, 0
2, 72000, Note_on_c, 0, 73, 80
2, 72000, Note_on_c, 0, 76, 80
2, 72359, Note_on_c, 0, 76, 0
2, 72360, Note_on_c, 0, 83, 80
2, 72479, Note_on_c, 0, 73, 0
2, 72479, Note_on_c, 0, 83, 0
2, 72480, Note_on_c, 0, 75, 80
2, 72480, Note_on_c, 0, 83, 80
2, 72719, Note_on_c, 0, 83, 0
2, 72720, Note_on_c, 0, 81, 80
2, 72959, Note_on_c, 0, 75, 0
2, 73199, Note_on_c, 0, 81, 0
2, 73200, Note_on_c, 0, 76, 80
2, 73200, Note_on_c, 0, 81, 80
2, 73439, Note_on_c, 0, 76, 0
2, 73439, Note_on_c, 0, 81, 0
2, 73440, Note_on_c, 0, 75, 80
2, 73440, Note_on_c, 0, 81, 80
2, 73799, Note_on_c, 0, 81, 0
2, 73800, Note_on_c, 0, 78, 80
2, 73919, Note_on_c, 0, 75, 0
2, 73919, Note_on_c, 0, 78, 0
2, 73920, Note_on_c, 0, 66, 80
2, 73920, Note_on_c, 0, 76, 80
2, 74159, Note_on_c, 0, 76, 0
2, 74160, Note_on_c, 0, 75, 80
2, 74399, Note_on_c, 0, 66, 0
2, 74639, Note_on_c, 0, 75, 0
2, 74640, Note_on_c, 0, 74, 80
2, 74640, Note_on_c, 0, 78, 80
2, 74879, Note_on_c, 0, 74, 0
2, 74879, Note_on_c, 0, 78, 0
2, 74880, Note_on_c, 0, 76, 80
2, 74880, Note_on_c, 0, 79, 80
2, 75239, Note_on_c, 0, 79, 0
2, 75240, Note_on_c, 0, 78, 80
2, 75359, Note_on_c, 0, 76, 0
2, 75359, Note_on_c, 0, 78, 0
2, 75360, Note_on_c, 0, 71, 80
2, 75360, Note_on_c, 0, 78, 80
2, 75599, Note_on_c, 0, 78, 0
2, 75600, Note_on_c, 0, 76, 80
2, 75839, Note_on_c, 0, 71, 0
2, 76079, Note_on_c, 0, 76, 0
2, 76080, Note_on_c, 0, 71, 80
2, 76080, Note_on_c, 0, 79, 80
2, 76319, Note_on_c, 0, 71, 0
2, 76319, Note_on_c, 0, 79, 0
2, 76320, Note_on_c, 0, 69, 80
2, 76320, Note_on_c, 0, 79, 80
2, 76679, Note_on_c, 0, 69, 0
2, 76680, Note_on_c, 0, 71, 80
2, 76799, Note_on_c, 0, 71, 0
2, 76799, Note_on_c, 0, 79, 0
2, 76800, Note_on_c, 0, 71, 80
2, 76800, Note_on_c, 0, 77, 80
2, 77039, Note_on_c, 0, 71, 0
2, 77040, Note_on_c, 0, 72, 80
2, 77279, Note_on_c, 0, 77, 0
2, 77519, Note_on_c, 0, 72, 0
2, 77520, Note_on_c, 0, 72, 80
2, 77520, Note_on_c, 0, 81, 80
2, 77759, Note_on_c, 0, 72, 0
2, 77759, Note_on_c, 0, 81, 0
2, 77760, Note_on_c, 0, 71, 80
2, 77760, Note_on_c, 0, 81, 80
2, 78119, Note_on_c, 0, 81, 0
2, 78120, Note_on_c, 0, 78, 80
2, 78239, Note_on_c, 0, 71, 0
2, 78239, Note_on_c, 0, 78, 0
2, 78240, Note_on_c, 0, 69, 80
2, 78240, Note_on_c, 0, 76, 80
2, 78479, Note_on_c, 0, 76, 0
2, 78480, Note_on_c, 0, 75, 80
2, 78719, Note_on_c, 0, 69, 0
2, 78959, Note_on_c, 0, 75, 0
2, 78960, Note_on_c, 0, 69, 80
2, 78960, Note_on_c, 0, 78, 80
2, 79199, Note_on_c, 0, 69, 0
2, 79199, Note_on_c, 0, 78, 0
2, 79200, Note_on_c, 0, 69, 80
2, 79200, Note_on_c, 0, 79, 80
2, 79559, Note_on_c, 0, 69, 0
2, 79559, Note_on_c, 0, 79, 0
2, 79560, Note_on_c, 0, 66, 80
2, 79560, Note_on_c, 0, 75, 80
2, 79679, Note_on_c, 0, 66, 0
2, 79679, Note_on_c, 0, 75, 0
2, 79680, Note_on_c, 0, 67, 80
2, 79680, Note_on_c, 0, 76, 80
2, 79739, Note_on_c, 0, 76, 0
2, 79740, Note_on_c, 0, 74, 80
2, 79799, Note_on_c, 0, 74, 0
2, 79800, Note_on_c, 0, 76, 80
2, 80159, Note_on_c, 0, 67, 0
2, 80159, Note_on_c, 0, 76, 0
2, 80240, Note_on_c, 0, 52, 80
2, 80319, Note_on_c, 0, 52, 0
2, 80320, Note_on_c, 0, 54, 80
2, 80399, Note_on_c, 0, 54, 0
2, 80400, Note_on_c, 0, 55, 80
2, 80479, Note_on_c, 0, 55, 0
2, 80480, Note_on_c, 0, 57, 80
2, 80559, Note_on_c, 0, 57, 0
2, 80560, Note_on_c, 0, 59, 80
2, 80639, Note_on_c, 0, 59, 0
2, 80640, Note_on_c, 0, 60, 80
2, 80719, Note_on_c, 0, 60, 0
2, 80720, Note_on_c, 0, 59, 80
2, 80799, Note_on_c, 0, 59, 0
2, 80800, Note_on_c, 0, 60, 80
2, 80879, Note_on_c, 0, 60, 0
2, 80880, Note_on_c, 0, 65, 80
2, 80959, Note_on_c, 0, 65, 0
2, 80960, Note_on_c, 0, 64, 80
2, 81039, Note_on_c, 0, 64, 0
2, 81040, Note_on_c, 0, 62, 80
2, 81119, Note_on_c, 0, 62, 0
2, 81120, Note_on_c, 0, 60, 80
2, 81199, Note_on_c, 0, 60, 0
2, 81200, Note_on_c, 0, 62, 80
2, 81279, Note_on_c, 0, 62, 0
2, 81280, Note_on_c, 0, 60, 80
2, 81359, Note_on_c, 0, 60, 0
2, 81360, Note_on_c, 0, 59, 80
2, 81439, Note_on_c, 0, 59, 0
2, 81440, Note_on_c, 0, 60, 80
2, 81519, Note_on_c, 0, 60, 0
2, 81520, Note_on_c, 0, 59, 80
2, 81599, Note_on_c, 0, 59, 0
2, 81600, Note_on_c, 0, 57, 80
2, 81679, Note_on_c, 0, 57, 0
2, 81680, Note_on_c, 0, 59, 80
2, 81759, Note_on_c, 0, 59, 0
2, 81760, Note_on_c, 0, 57, 80
2, 81839, Note_on_c, 0, 57, 0
2, 81840, Note_on_c, 0, 55, 80
2, 81919, Note_on_c, 0, 55, 0
2, 81920, Note_on_c, 0, 57, 80
2, 81999, Note_on_c, 0, 57, 0
2, 82000, Note_on_c, 0, 54, 80
2, 82079, Note_on_c, 0, 54, 0
2, 82080, Note_on_c, 0, 59, 80
2, 82159, Note_on_c, 0, 59, 0
2, 82160, Note_on_c, 0, 57, 80
2, 82239, Note_on_c, 0, 57, 0
2, 82240, Note_on_c, 0, 59, 80
2, 82319, Note_on_c, 0, 59, 0
2, 82320, Note_on_c, 0, 64, 80
2, 82399, Note_on_c, 0, 64, 0
2, 82400, Note_on_c, 0, 62, 80
2, 82479, Note_on_c, 0, 62, 0
2, 82480, Note_on_c, 0, 60, 80
2, 82559, Note_on_c, 0, 60, 0
2, 82560, Note_on_c, 0, 59, 80
2, 82639, Note_on_c, 0, 59, 0
2, 82640, Note_on_c, 0, 60, 80
2, 82719, Note_on_c, 0, 60, 0
2, 82720, Note_on_c, 0, 59, 80
2, 82799, Note_on_c, 0, 59, 0
2, 82800, Note_on_c, 0, 57, 80
2, 82879, Note_on_c, 0, 57, 0
2, 82880, Note_on_c, 0, 60, 80
2, 82959, Note_on_c, 0, 60, 0
2, 82960, Note_on_c, 0, 57, 80
2, 83039, Note_on_c, 0, 57, 0
2, 83040, Note_on_c, 0, 55, 80
2, 83119, Note_on_c, 0, 55, 0
2, 83120, Note_on_c, 0, 57, 80
2, 83199, Note_on_c, 0, 57, 0
2, 83200, Note_on_c, 0, 55, 80
2, 83279, Note_on_c, 0, 55, 0
2, 83280, Note_on_c, 0, 54, 80
2, 83359, Note_on_c, 0, 54, 0
2, 83360, Note_on_c, 0, 55, 80
2, 83439, Note_on_c, 0, 55, 0
2, 83440, Note_on_c, 0, 52, 80
2, 83519, Note_on_c, 0, 52, 0
2, 83520, Note_on_c, 0, 57, 80
2, 83599, Note_on_c, 0, 57, 0
2, 83600, Note_on_c, 0, 55, 80
2, 83679, Note_on_c, 0, 55, 0
2, 83680, Note_on_c, 0, 57, 80
2, 83759, Note_on_c, 0, 57, 0
2, 83760, Note_on_c, 0, 62, 80
2, 83839, Note_on_c, 0, 62, 0
2, 83840, Note_on_c, 0, 60, 80
2, 83919, Note_on_c, 0, 60, 0
2, 83920, Note_on_c, 0, 59, 80
2, 83999, Note_on_c, 0, 59, 0
2, 84000, Note_on_c, 0, 57, 80
2, 84079, Note_on_c, 0, 57, 0
2, 84080, Note_on_c, 0, 59, 80
2, 84159, Note_on_c, 0, 59, 0
2, 84160, Note_on_c, 0, 57, 80
2, 84239, Note_on_c, 0, 57, 0
2, 84240, Note_on_c, 0, 55, 80
2, 84319, Note_on_c, 0, 55, 0
2, 84320, Note_on_c, 0, 57, 80
2, 84399, Note_on_c, 0, 57, 0
2, 84400, Note_on_c, 0, 55, 80
2, 84479, Note_on_c, 0, 55, 0
2, 84480, Note_on_c, 0, 54, 80
2, 84559, Note_on_c, 0, 54, 0
2, 84560, Note_on_c, 0, 55, 80
2, 84639, Note_on_c, 0, 55, 0
2, 84640, Note_on_c, 0, 54, 80
2, 84719, Note_on_c, 0, 54, 0
2, 84720, Note_on_c, 0, 52, 80
2, 84799, Note_on_c, 0, 52, 0
2, 84800, Note_on_c, 0, 54, 80
2, 84879, Note_on_c, 0, 54, 0
2, 84880, Note_on_c, 0, 52, 80
2, 84959, Note_on_c, 0, 52, 0
2, 84960, Note_on_c, 0, 50, 80
2, 85039, Note_on_c, 0, 50, 0
2, 85040, Note_on_c, 0, 49, 80
2, 85119, Note_on_c, 0, 49, 0
2, 85120, Note_on_c, 0, 50, 80
2, 85199, Note_on_c, 0, 50, 0
2, 85200, Note_on_c, 0, 55, 80
2, 85279, Note_on_c, 0, 55, 0
2, 85280, Note_on_c, 0, 54, 80
2, 85359, Note_on_c, 0, 54, 0
2, 85360, Note_on_c, 0, 52, 80
2, 85439, Note_on_c, 0, 52, 0
2, 85440, Note_on_c, 0, 50, 80
2, 85519, Note_on_c, 0, 50, 0
2, 85520, Note_on_c, 0, 52, 80
2, 85599, Note_on_c, 0, 52, 0
2, 85600, Note_on_c, 0, 50, 80
2, 85679, Note_on_c, 0, 50, 0
2, 85680, Note_on_c, 0, 48, 80
2, 85759, Note_on_c, 0, 48, 0
2, 85760, Note_on_c, 0, 50, 80
2, 85839, Note_on_c, 0, 50, 0
2, 85840, Note_on_c, 0, 48, 80
2, 85919, Note_on_c, 0, 48, 0
2, 85920, Note_on_c, 0, 47, 80
2, 85999, Note_on_c, 0, 47, 0
2, 86000, Note_on_c, 0, 48, 80
2, 86079, Note_on_c, 0, 48, 0
2, 86080, Note_on_c, 0, 47, 80
2, 86159, Note_on_c, 0, 47, 0
2, 86160, Note_on_c, 0, 45, 80
2, 86239, Note_on_c, 0, 45, 0
2, 86240, Note_on_c, 0, 47, 80
2, 86319, Note_on_c, 0, 47, 0
2, 86320, Note_on_c, 0, 45, 80
2, 86399, Note_on_c, 0, 45, 0
2, 86400, Note_on_c, 0, 43, 80
2, 86479, Note_on_c, 0, 43, 0
2, 86480, Note_on_c, 0, 42, 80
2, 86559, Note_on_c, 0, 42, 0
2, 86560, Note_on_c, 0, 43, 80
2, 86639, Note_on_c, 0, 43, 0
2, 86640, Note_on_c, 0, 48, 80
2, 86719, Note_on_c, 0, 48, 0
2, 86720, Note_on_c, 0, 47, 80
2, 86799, Note_on_c, 0, 47, 0
2, 86800, Note_on_c, 0, 45, 80
2, 86879, Note_on_c, 0, 45, 0
2, 86880, Note_on_c, 0, 43, 80
2, 86959, Note_on_c, 0, 43, 0
2, 86960, Note_on_c, 0, 45, 80
2, 87039, Note_on_c, 0, 45, 0
2, 87040, Note_on_c, 0, 43, 80
2, 87119, Note_on_c, 0, 43, 0
2, 87120, Note_on_c, 0, 41, 80
2, 87199, Note_on_c, 0, 41, 0
2, 87200, Note_on_c, 0, 43, 80
2, 87279, Note_on_c, 0, 43, 0
2, 87280, Note_on_c, 0, 41, 80
2, 87359, Note_on_c, 0, 41, 0
2, 87360, Note_on_c, 0, 40, 80
2, 87439, Note_on_c, 0, 40, 0
2, 87440, Note_on_c, 0, 41, 80
2, 87519, Note_on_c, 0, 41, 0
2, 87520, Note_on_c, 0, 40, 80
2, 87599, Note_on_c, 0, 40, 0
2, 87600, Note_on_c, 0, 38, 80
2, 87679, Note_on_c, 0, 38, 0
2, 87680, Note_on_c, 0, 40, 80
2, 87759, Note_on_c, 0, 40, 0
2, 87760, Note_on_c, 0, 38, 80
2, 87839, Note_on_c, 0, 38, 0
2, 87840, Note_on_c, 0, 36, 80
2, 88079, Note_on_c, 0, 36, 0
2, 88080, Note_on_c, 0, 43, 80
2, 88159, Note_on_c, 0, 43, 0
2, 88160, Note_on_c, 0, 45, 80
2, 88239, Note_on_c, 0, 45, 0
2, 88240, Note_on_c, 0, 47, 80
2, 88319, Note_on_c, 0, 47, 0
2, 88320, Note_on_c, 0, 48, 80
2, 88399, Note_on_c, 0, 48, 0
2, 88400, Note_on_c, 0, 47, 80
2, 88479, Note_on_c, 0, 47, 0
2, 88480, Note_on_c, 0, 48, 80
2, 88559, Note_on_c, 0, 48, 0
2, 88560, Note_on_c, 0, 50, 80
2, 88639, Note_on_c, 0, 50, 0
2, 88640, Note_on_c, 0, 48, 80
2, 88719, Note_on_c, 0, 48, 0
2, 88720, Note_on_c, 0, 50, 80
2, 88799, Note_on_c, 0, 50, 0
2, 88800, Note_on_c, 0, 52, 80
2, 88879, Note_on_c, 0, 52, 0
2, 88880, Note_on_c, 0, 50, 80
2, 88959, Note_on_c, 0, 50, 0
2, 88960, Note_on_c, 0, 48, 80
2, 89039, Note_on_c, 0, 48, 0
2, 89040, Note_on_c, 0, 47, 80
2, 89119, Note_on_c, 0, 47, 0
2, 89120, Note_on_c, 0, 45, 80
2, 89199, Note_on_c, 0, 45, 0
2, 89200, Note_on_c, 0, 43, 80
2, 89279, Note_on_c, 0, 43, 0
2, 89280, Note_on_c, 0, 42, 80
2, 89359, Note_on_c, 0, 42, 0
2, 89360, Note_on_c, 0, 40, 80
2, 89439, Note_on_c, 0, 40, 0
2, 89440, Note_on_c, 0, 42, 80
2, 89519, Note_on_c, 0, 42, 0
2, 89520, Note_on_c, 0, 38, 80
2, 89599, Note_on_c, 0, 38, 0
2, 89600, Note_on_c, 0, 40, 80
2, 89679, Note_on_c, 0, 40, 0
2, 89680, Note_on_c, 0, 42, 80
2, 89759, Note_on_c, 0, 42, 0
2, 89760, Note_on_c, 0, 43, 80
2, 89839, Note_on_c, 0, 43, 0
2, 89840, Note_on_c, 0, 42, 80
2, 89919, Note_on_c, 0, 42, 0
2, 89920, Note_on_c, 0, 43, 80
2, 89999, Note_on_c, 0, 43, 0
2, 90000, Note_on_c, 0, 45, 80
2, 90079, Note_on_c, 0, 45, 0
2, 90080, Note_on_c, 0, 47, 80
2, 90159, Note_on_c, 0, 47, 0
2, 90160, Note_on_c, 0, 48, 80
2, 90239, Note_on_c, 0, 48, 0
2, 90240, Note_on_c, 0, 50, 80
2, 90319, Note_on_c, 0, 50, 0
2, 90320, Note_on_c, 0, 49, 80
2, 90399, Note_on_c, 0, 49, 0
2, 90400, Note_on_c, 0, 50, 80
2, 90479, Note_on_c, 0, 50, 0
2, 90480, Note_on_c, 0, 52, 80
2, 90559, Note_on_c, 0, 52, 0
2, 90560, Note_on_c, 0, 54, 80
2, 90639, Note_on_c, 0, 54, 0
2, 90640, Note_on_c, 0, 50, 80
2, 90719, Note_on_c, 0, 50, 0
2, 90720, Note_on_c, 0, 55, 80
2, 90879, Note_on_c, 0, 55, 0
2, 91280, Note_on_c, 0, 57, 80
2, 91359, Note_on_c, 0, 57, 0
2, 91360, Note_on_c, 0, 55, 80
2, 91439, Note_on_c, 0, 55, 0
2, 91440, Note_on_c, 0, 54, 80
2, 91519, Note_on_c, 0, 54, 0
2, 91520, Note_on_c, 0, 55, 80
2, 91599, Note_on_c, 0, 55, 0
2, 91600, Note_on_c, 0, 50, 80
2, 91679, Note_on_c, 0, 50, 0
2, 91680, Note_on_c, 0, 43, 80
2, 92159, Note_on_c, 0, 43, 0
2, 92160, End_track
0, 0, End_of_file
