0, 0, Header, 1, 3, 480
1, 0, Start_track
1, 0, Unknown_meta_event, 8, 36, 67, 111, 110, 116, 114, 97, 112, 117, 110, 99, 116, 117, 115, 32, 86, 73, 73, 73, 32, 97, 32, 51, 32, 40, 65, 32, 61, 32, 52, 49, 53, 32, 72, 122, 41, 0
1, 0, Unknown_meta_event, 9, 26, 66, 87, 86, 32, 49, 48, 56, 48, 32, 84, 104, 101, 32, 65, 114, 116, 32, 111, 102, 32, 70, 117, 103, 117, 101, 0
1, 0, Unknown_meta_event, 10, 11, 74, 46, 32, 83, 46, 32, 66, 97, 99, 104, 0
1, 0, Time_signature, 2, 2, 24, 8
1, 0, Key_signature, 4, "major"
1, 0, Tempo, 833333
1, 0, Program_c, 0, 46
1, 2, Control_c, 0, 7, 100
1, 4, Control_c, 0, 10, 64
1, 6, Control_c, 0, 91, 30
1, 8, Control_c, 0, 93, 30
1, 10080, Note_on_c, 0, 73, 80
1, 10559, Note_on_c, 0, 73, 0
1, 10560, Note_on_c, 0, 71, 80
1, 10799, Note_on_c, 0, 71, 0
1, 10800, Note_on_c, 0, 76, 80
1, 11039, Note_on_c, 0, 76, 0
1, 11040, Note_on_c, 0, 70, 80
1, 11279, Note_on_c, 0, 70, 0
1, 11280, Note_on_c, 0, 69, 80
1, 11519, Note_on_c, 0, 69, 0
1, 11520, Note_on_c, 0, 68, 80
1, 11759, Note_on_c, 0, 68, 0
1, 11760, Note_on_c, 0, 73, 80
1, 11999, Note_on_c, 0, 73, 0
1, 12000, Note_on_c, 0, 66, 80
1, 12479, Note_on_c, 0, 66, 0
1, 12480, Note_on_c, 0, 64, 80
1, 12719, Note_on_c, 0, 64, 0
1, 12720, Note_on_c, 0, 66, 80
1, 12959, Note_on_c, 0, 66, 0
1, 12960, Note_on_c, 0, 68, 80
1, 13079, Note_on_c, 0, 68, 0
1, 13080, Note_on_c, 0, 66, 80
1, 13199, Note_on_c, 0, 66, 0
1, 13200, Note_on_c, 0, 68, 80
1, 13439, Note_on_c, 0, 68, 0
1, 13440, Note_on_c, 0, 61, 80
1, 13679, Note_on_c, 0, 61, 0
1, 13680, Note_on_c, 0, 73, 80
1, 13919, Note_on_c, 0, 73, 0
1, 13920, Note_on_c, 0, 71, 80
1, 14159, Note_on_c, 0, 71, 0
1, 14160, Note_on_c, 0, 69, 80
1, 14399, Note_on_c, 0, 69, 0
1, 14400, Note_on_c, 0, 71, 80
1, 14639, Note_on_c, 0, 71, 0
1, 14640, Note_on_c, 0, 76, 80
1, 14879, Note_on_c, 0, 76, 0
1, 14880, Note_on_c, 0, 75, 80
1, 15119, Note_on_c, 0, 75, 0
1, 15120, Note_on_c, 0, 73, 80
1, 15359, Note_on_c, 0, 73, 0
1, 15360, Note_on_c, 0, 72, 80
1, 15839, Note_on_c, 0, 72, 0
1, 15960, Note_on_c, 0, 72, 80
1, 16079, Note_on_c, 0, 72, 0
1, 16080, Note_on_c, 0, 73, 80
1, 16199, Note_on_c, 0, 73, 0
1, 16200, Note_on_c, 0, 75, 80
1, 16319, Note_on_c, 0, 75, 0
1, 16320, Note_on_c, 0, 68, 80
1, 16439, Note_on_c, 0, 68, 0
1, 16440, Note_on_c, 0, 73, 80
1, 16559, Note_on_c, 0, 73, 0
1, 16560, Note_on_c, 0, 71, 80
1, 16679, Note_on_c, 0, 71, 0
1, 16680, Note_on_c, 0, 69, 80
1, 16799, Note_on_c, 0, 69, 0
1, 16800, Note_on_c, 0, 71, 80
1, 16919, Note_on_c, 0, 71, 0
1, 16920, Note_on_c, 0, 68, 80
1, 17039, Note_on_c, 0, 68, 0
1, 17040, Note_on_c, 0, 69, 80
1, 17159, Note_on_c, 0, 69, 0
1, 17160, Note_on_c, 0, 66, 80
1, 17279, Note_on_c, 0, 66, 0
1, 17280, Note_on_c, 0, 68, 80
1, 18359, Note_on_c, 0, 68, 0
1, 18360, Note_on_c, 0, 68, 80
1, 18479, Note_on_c, 0, 68, 0
1, 18480, Note_on_c, 0, 66, 80
1, 18599, Note_on_c, 0, 66, 0
1, 18600, Note_on_c, 0, 64, 80
1, 18719, Note_on_c, 0, 64, 0
1, 18720, Note_on_c, 0, 66, 80
1, 18839, Note_on_c, 0, 66, 0
1, 18840, Note_on_c, 0, 63, 80
1, 18959, Note_on_c, 0, 63, 0
1, 18960, Note_on_c, 0, 64, 80
1, 19079, Note_on_c, 0, 64, 0
1, 19080, Note_on_c, 0, 73, 80
1, 19199, Note_on_c, 0, 73, 0
1, 19200, Note_on_c, 0, 66, 80
1, 19259, Note_on_c, 0, 66, 0
1, 19260, Note_on_c, 0, 64, 80
1, 19319, Note_on_c, 0, 64, 0
1, 19320, Note_on_c, 0, 66, 80
1, 19379, Note_on_c, 0, 66, 0
1, 19380, Note_on_c, 0, 64, 80
1, 19439, Note_on_c, 0, 64, 0
1, 19440, Note_on_c, 0, 63, 80
1, 19679, Note_on_c, 0, 63, 0
1, 19800, Note_on_c, 0, 72, 80
1, 19919, Note_on_c, 0, 72, 0
1, 19920, Note_on_c, 0, 73, 80
1, 20279, Note_on_c, 0, 73, 0
1, 20280, Note_on_c, 0, 70, 80
1, 20399, Note_on_c, 0, 70, 0
1, 20400, Note_on_c, 0, 68, 80
1, 20519, Note_on_c, 0, 68, 0
1, 20520, Note_on_c, 0, 66, 80
1, 20639, Note_on_c, 0, 66, 0
1, 20640, Note_on_c, 0, 68, 80
1, 20759, Note_on_c, 0, 68, 0
1, 20760, Note_on_c, 0, 71, 80
1, 20879, Note_on_c, 0, 71, 0
1, 20880, Note_on_c, 0, 70, 80
1, 21239, Note_on_c, 0, 70, 0
1, 21240, Note_on_c, 0, 67, 80
1, 21359, Note_on_c, 0, 67, 0
1, 21360, Note_on_c, 0, 65, 80
1, 21479, Note_on_c, 0, 65, 0
1, 21480, Note_on_c, 0, 63, 80
1, 21599, Note_on_c, 0, 63, 0
1, 21600, Note_on_c, 0, 65, 80
1, 21719, Note_on_c, 0, 65, 0
1, 21720, Note_on_c, 0, 68, 80
1, 21839, Note_on_c, 0, 68, 0
1, 21840, Note_on_c, 0, 67, 80
1, 21959, Note_on_c, 0, 67, 0
1, 21960, Note_on_c, 0, 70, 80
1, 22079, Note_on_c, 0, 70, 0
1, 22080, Note_on_c, 0, 68, 80
1, 22199, Note_on_c, 0, 68, 0
1, 22200, Note_on_c, 0, 71, 80
1, 22319, Note_on_c, 0, 71, 0
1, 22320, Note_on_c, 0, 70, 80
1, 22439, Note_on_c, 0, 70, 0
1, 22440, Note_on_c, 0, 73, 80
1, 22559, Note_on_c, 0, 73, 0
1, 22560, Note_on_c, 0, 71, 80
1, 23159, Note_on_c, 0, 71, 0
1, 23160, Note_on_c, 0, 74, 80
1, 23279, Note_on_c, 0, 74, 0
1, 23280, Note_on_c, 0, 73, 80
1, 23399, Note_on_c, 0, 73, 0
1, 23400, Note_on_c, 0, 71, 80
1, 23519, Note_on_c, 0, 71, 0
1, 23520, Note_on_c, 0, 73, 80
1, 23639, Note_on_c, 0, 73, 0
1, 23640, Note_on_c, 0, 69, 80
1, 23759, Note_on_c, 0, 69, 0
1, 23760, Note_on_c, 0, 71, 80
1, 23879, Note_on_c, 0, 71, 0
1, 23880, Note_on_c, 0, 68, 80
1, 23999, Note_on_c, 0, 68, 0
1, 24000, Note_on_c, 0, 69, 80
1, 25079, Note_on_c, 0, 69, 0
1, 25080, Note_on_c, 0, 73, 80
1, 25199, Note_on_c, 0, 73, 0
1, 25200, Note_on_c, 0, 71, 80
1, 25319, Note_on_c, 0, 71, 0
1, 25320, Note_on_c, 0, 69, 80
1, 25439, Note_on_c, 0, 69, 0
1, 25440, Note_on_c, 0, 71, 80
1, 25559, Note_on_c, 0, 71, 0
1, 25560, Note_on_c, 0, 68, 80
1, 25679, Note_on_c, 0, 68, 0
1, 25680, Note_on_c, 0, 69, 80
1, 25799, Note_on_c, 0, 69, 0
1, 25800, Note_on_c, 0, 66, 80
1, 25919, Note_on_c, 0, 66, 0
1, 25920, Note_on_c, 0, 68, 80
1, 26159, Note_on_c, 0, 68, 0
1, 26160, Note_on_c, 0, 73, 80
1, 26399, Note_on_c, 0, 73, 0
1, 26400, Note_on_c, 0, 67, 80
1, 26639, Note_on_c, 0, 67, 0
1, 26640, Note_on_c, 0, 66, 80
1, 26879, Note_on_c, 0, 66, 0
1, 26880, Note_on_c, 0, 64, 80
1, 27119, Note_on_c, 0, 64, 0
1, 27120, Note_on_c, 0, 69, 80
1, 27359, Note_on_c, 0, 69, 0
1, 27360, Note_on_c, 0, 63, 80
1, 27599, Note_on_c, 0, 63, 0
1, 27600, Note_on_c, 0, 62, 80
1, 27839, Note_on_c, 0, 62, 0
1, 27840, Note_on_c, 0, 61, 80
1, 28079, Note_on_c, 0, 61, 0
1, 28080, Note_on_c, 0, 66, 80
1, 28319, Note_on_c, 0, 66, 0
1, 28320, Note_on_c, 0, 60, 80
1, 28559, Note_on_c, 0, 60, 0
1, 28560, Note_on_c, 0, 59, 80
1, 28919, Note_on_c, 0, 59, 0
1, 28920, Note_on_c, 0, 59, 80
1, 29039, Note_on_c, 0, 59, 0
1, 29040, Note_on_c, 0, 57, 80
1, 29159, Note_on_c, 0, 57, 0
1, 29160, Note_on_c, 0, 56, 80
1, 29279, Note_on_c, 0, 56, 0
1, 29280, Note_on_c, 0, 57, 80
1, 29399, Note_on_c, 0, 57, 0
1, 29400, Note_on_c, 0, 61, 80
1, 29519, Note_on_c, 0, 61, 0
1, 29520, Note_on_c, 0, 59, 80
1, 29639, Note_on_c, 0, 59, 0
1, 29640, Note_on_c, 0, 62, 80
1, 29759, Note_on_c, 0, 62, 0
1, 29760, Note_on_c, 0, 61, 80
1, 29879, Note_on_c, 0, 61, 0
1, 29880, Note_on_c, 0, 68, 80
1, 29999, Note_on_c, 0, 68, 0
1, 30000, Note_on_c, 0, 66, 80
1, 30119, Note_on_c, 0, 66, 0
1, 30120, Note_on_c, 0, 65, 80
1, 30239, Note_on_c, 0, 65, 0
1, 30240, Note_on_c, 0, 66, 80
1, 30359, Note_on_c, 0, 66, 0
1, 30360, Note_on_c, 0, 69, 80
1, 30479, Note_on_c, 0, 69, 0
1, 30480, Note_on_c, 0, 68, 80
1, 30599, Note_on_c, 0, 68, 0
1, 30600, Note_on_c, 0, 71, 80
1, 30719, Note_on_c, 0, 71, 0
1, 30720, Note_on_c, 0, 69, 80
1, 31319, Note_on_c, 0, 69, 0
1, 31320, Note_on_c, 0, 66, 80
1, 31439, Note_on_c, 0, 66, 0
1, 31440, Note_on_c, 0, 68, 80
1, 31559, Note_on_c, 0, 68, 0
1, 31560, Note_on_c, 0, 64, 80
1, 31679, Note_on_c, 0, 64, 0
1, 31680, Note_on_c, 0, 66, 80
1, 32159, Note_on_c, 0, 66, 0
1, 32400, Note_on_c, 0, 72, 80
1, 32639, Note_on_c, 0, 72, 0
1, 32640, Note_on_c, 0, 73, 80
1, 32759, Note_on_c, 0, 73, 0
1, 32760, Note_on_c, 0, 66, 80
1, 32879, Note_on_c, 0, 66, 0
1, 32880, Note_on_c, 0, 64, 80
1, 32999, Note_on_c, 0, 64, 0
1, 33000, Note_on_c, 0, 66, 80
1, 33119, Note_on_c, 0, 66, 0
1, 33120, Note_on_c, 0, 64, 80
1, 33239, Note_on_c, 0, 64, 0
1, 33240, Note_on_c, 0, 68, 80
1, 33359, Note_on_c, 0, 68, 0
1, 33360, Note_on_c, 0, 66, 80
1, 33479, Note_on_c, 0, 66, 0
1, 33480, Note_on_c, 0, 69, 80
1, 33599, Note_on_c, 0, 69, 0
1, 33600, Note_on_c, 0, 68, 80
1, 33719, Note_on_c, 0, 68, 0
1, 33720, Note_on_c, 0, 61, 80
1, 33839, Note_on_c, 0, 61, 0
1, 33840, Note_on_c, 0, 60, 80
1, 33959, Note_on_c, 0, 60, 0
1, 33960, Note_on_c, 0, 61, 80
1, 34079, Note_on_c, 0, 61, 0
1, 34080, Note_on_c, 0, 61, 80
1, 34199, Note_on_c, 0, 61, 0
1, 34200, Note_on_c, 0, 64, 80
1, 34319, Note_on_c, 0, 64, 0
1, 34320, Note_on_c, 0, 63, 80
1, 34439, Note_on_c, 0, 63, 0
1, 34440, Note_on_c, 0, 66, 80
1, 34559, Note_on_c, 0, 66, 0
1, 34560, Note_on_c, 0, 64, 80
1, 34679, Note_on_c, 0, 64, 0
1, 34680, Note_on_c, 0, 59, 80
1, 34799, Note_on_c, 0, 59, 0
1, 34800, Note_on_c, 0, 58, 80
1, 34919, Note_on_c, 0, 58, 0
1, 34920, Note_on_c, 0, 56, 80
1, 35039, Note_on_c, 0, 56, 0
1, 35040, Note_on_c, 0, 58, 80
1, 35159, Note_on_c, 0, 58, 0
1, 35160, Note_on_c, 0, 61, 80
1, 35279, Note_on_c, 0, 61, 0
1, 35280, Note_on_c, 0, 60, 80
1, 35399, Note_on_c, 0, 60, 0
1, 35400, Note_on_c, 0, 63, 80
1, 35519, Note_on_c, 0, 63, 0
1, 35520, Note_on_c, 0, 61, 80
1, 35639, Note_on_c, 0, 61, 0
1, 35640, Note_on_c, 0, 64, 80
1, 35759, Note_on_c, 0, 64, 0
1, 35760, Note_on_c, 0, 63, 80
1, 35879, Note_on_c, 0, 63, 0
1, 35880, Note_on_c, 0, 66, 80
1, 35999, Note_on_c, 0, 66, 0
1, 36000, Note_on_c, 0, 64, 80
1, 36119, Note_on_c, 0, 64, 0
1, 36120, Note_on_c, 0, 63, 80
1, 36239, Note_on_c, 0, 63, 0
1, 36240, Note_on_c, 0, 61, 80
1, 36359, Note_on_c, 0, 61, 0
1, 36360, Note_on_c, 0, 60, 80
1, 36479, Note_on_c, 0, 60, 0
1, 36480, Note_on_c, 0, 60, 80
1, 36719, Note_on_c, 0, 60, 0
1, 36720, Note_on_c, 0, 61, 80
1, 36960, Note_on_c, 0, 73, 80
1, 37199, Note_on_c, 0, 61, 0
1, 37439, Note_on_c, 0, 73, 0
1, 37440, Note_on_c, 0, 71, 80
1, 37679, Note_on_c, 0, 71, 0
1, 37680, Note_on_c, 0, 76, 80
1, 37919, Note_on_c, 0, 76, 0
1, 37920, Note_on_c, 0, 70, 80
1, 38159, Note_on_c, 0, 70, 0
1, 38160, Note_on_c, 0, 69, 80
1, 38399, Note_on_c, 0, 69, 0
1, 38400, Note_on_c, 0, 68, 80
1, 38639, Note_on_c, 0, 68, 0
1, 38640, Note_on_c, 0, 73, 80
1, 38879, Note_on_c, 0, 73, 0
1, 38880, Note_on_c, 0, 66, 80
1, 38939, Note_on_c, 0, 66, 0
1, 38940, Note_on_c, 0, 64, 80
1, 38999, Note_on_c, 0, 64, 0
1, 39000, Note_on_c, 0, 66, 80
1, 39359, Note_on_c, 0, 66, 0
1, 39360, Note_on_c, 0, 64, 80
1, 39599, Note_on_c, 0, 64, 0
1, 39600, Note_on_c, 0, 66, 80
1, 39839, Note_on_c, 0, 66, 0
1, 39840, Note_on_c, 0, 68, 80
1, 39959, Note_on_c, 0, 68, 0
1, 39960, Note_on_c, 0, 66, 80
1, 40079, Note_on_c, 0, 66, 0
1, 40080, Note_on_c, 0, 68, 80
1, 40319, Note_on_c, 0, 68, 0
1, 40320, Note_on_c, 0, 61, 80
1, 40799, Note_on_c, 0, 61, 0
1, 41040, Note_on_c, 0, 74, 80
1, 41399, Note_on_c, 0, 74, 0
1, 41400, Note_on_c, 0, 72, 80
1, 41519, Note_on_c, 0, 72, 0
1, 41520, Note_on_c, 0, 73, 80
1, 41639, Note_on_c, 0, 73, 0
1, 41640, Note_on_c, 0, 73, 80
1, 41759, Note_on_c, 0, 73, 0
1, 41760, Note_on_c, 0, 73, 80
1, 41879, Note_on_c, 0, 73, 0
1, 41880, Note_on_c, 0, 70, 80
1, 41999, Note_on_c, 0, 70, 0
1, 42000, Note_on_c, 0, 71, 80
1, 42119, Note_on_c, 0, 71, 0
1, 42120, Note_on_c, 0, 71, 80
1, 42239, Note_on_c, 0, 71, 0
1, 42240, Note_on_c, 0, 71, 80
1, 42359, Note_on_c, 0, 71, 0
1, 42360, Note_on_c, 0, 68, 80
1, 42479, Note_on_c, 0, 68, 0
1, 42480, Note_on_c, 0, 69, 80
1, 42599, Note_on_c, 0, 69, 0
1, 42600, Note_on_c, 0, 69, 80
1, 42719, Note_on_c, 0, 69, 0
1, 42720, Note_on_c, 0, 69, 80
1, 42839, Note_on_c, 0, 69, 0
1, 42840, Note_on_c, 0, 68, 80
1, 42959, Note_on_c, 0, 68, 0
1, 42960, Note_on_c, 0, 66, 80
1, 43079, Note_on_c, 0, 66, 0
1, 43080, Note_on_c, 0, 65, 80
1, 43199, Note_on_c, 0, 65, 0
1, 43200, Note_on_c, 0, 66, 80
1, 43919, Note_on_c, 0, 66, 0
1, 43920, Note_on_c, 0, 64, 80
1, 44279, Note_on_c, 0, 64, 0
1, 44280, Note_on_c, 0, 66, 80
1, 44399, Note_on_c, 0, 66, 0
1, 44400, Note_on_c, 0, 64, 80
1, 44519, Note_on_c, 0, 64, 0
1, 44520, Note_on_c, 0, 63, 80
1, 44639, Note_on_c, 0, 63, 0
1, 44640, Note_on_c, 0, 61, 80
1, 44759, Note_on_c, 0, 61, 0
1, 44760, Note_on_c, 0, 63, 80
1, 44879, Note_on_c, 0, 63, 0
1, 44880, Note_on_c, 0, 59, 80
1, 44999, Note_on_c, 0, 59, 0
1, 45000, Note_on_c, 0, 61, 80
1, 45119, Note_on_c, 0, 61, 0
1, 45120, Note_on_c, 0, 63, 80
1, 45239, Note_on_c, 0, 63, 0
1, 45240, Note_on_c, 0, 71, 80
1, 45359, Note_on_c, 0, 71, 0
1, 45360, Note_on_c, 0, 69, 80
1, 45479, Note_on_c, 0, 69, 0
1, 45480, Note_on_c, 0, 68, 80
1, 45599, Note_on_c, 0, 68, 0
1, 45600, Note_on_c, 0, 66, 80
1, 45719, Note_on_c, 0, 66, 0
1, 45720, Note_on_c, 0, 69, 80
1, 45839, Note_on_c, 0, 69, 0
1, 45840, Note_on_c, 0, 64, 80
1, 45959, Note_on_c, 0, 64, 0
1, 45960, Note_on_c, 0, 66, 80
1, 46079, Note_on_c, 0, 66, 0
1, 46080, Note_on_c, 0, 68, 80
1, 46199, Note_on_c, 0, 68, 0
1, 46200, Note_on_c, 0, 66, 80
1, 46319, Note_on_c, 0, 66, 0
1, 46320, Note_on_c, 0, 64, 80
1, 46439, Note_on_c, 0, 64, 0
1, 46440, Note_on_c, 0, 63, 80
1, 46559, Note_on_c, 0, 63, 0
1, 46560, Note_on_c, 0, 61, 80
1, 46679, Note_on_c, 0, 61, 0
1, 46680, Note_on_c, 0, 63, 80
1, 46799, Note_on_c, 0, 63, 0
1, 46800, Note_on_c, 0, 59, 80
1, 46919, Note_on_c, 0, 59, 0
1, 46920, Note_on_c, 0, 61, 80
1, 47039, Note_on_c, 0, 61, 0
1, 47040, Note_on_c, 0, 58, 80
1, 47279, Note_on_c, 0, 58, 0
1, 47280, Note_on_c, 0, 66, 80
1, 47519, Note_on_c, 0, 66, 0
1, 47520, Note_on_c, 0, 68, 80
1, 47759, Note_on_c, 0, 68, 0
1, 47760, Note_on_c, 0, 69, 80
1, 47999, Note_on_c, 0, 69, 0
1, 48000, Note_on_c, 0, 67, 80
1, 48239, Note_on_c, 0, 67, 0
1, 48240, Note_on_c, 0, 75, 80
1, 48479, Note_on_c, 0, 75, 0
1, 49080, Note_on_c, 0, 75, 80
1, 49199, Note_on_c, 0, 75, 0
1, 49200, Note_on_c, 0, 73, 80
1, 49319, Note_on_c, 0, 73, 0
1, 49320, Note_on_c, 0, 71, 80
1, 49439, Note_on_c, 0, 71, 0
1, 49440, Note_on_c, 0, 70, 80
1, 49559, Note_on_c, 0, 70, 0
1, 49560, Note_on_c, 0, 71, 80
1, 49679, Note_on_c, 0, 71, 0
1, 49680, Note_on_c, 0, 68, 80
1, 49799, Note_on_c, 0, 68, 0
1, 49800, Note_on_c, 0, 70, 80
1, 49919, Note_on_c, 0, 70, 0
1, 49920, Note_on_c, 0, 72, 80
1, 50159, Note_on_c, 0, 72, 0
1, 50160, Note_on_c, 0, 73, 80
1, 50399, Note_on_c, 0, 73, 0
1, 50400, Note_on_c, 0, 75, 80
1, 50519, Note_on_c, 0, 75, 0
1, 50520, Note_on_c, 0, 73, 80
1, 50639, Note_on_c, 0, 73, 0
1, 50640, Note_on_c, 0, 75, 80
1, 50879, Note_on_c, 0, 75, 0
1, 50880, Note_on_c, 0, 68, 80
1, 51119, Note_on_c, 0, 68, 0
1, 51120, Note_on_c, 0, 69, 80
1, 51239, Note_on_c, 0, 69, 0
1, 51240, Note_on_c, 0, 68, 80
1, 51359, Note_on_c, 0, 68, 0
1, 51360, Note_on_c, 0, 66, 80
1, 51479, Note_on_c, 0, 66, 0
1, 51480, Note_on_c, 0, 64, 80
1, 51599, Note_on_c, 0, 64, 0
1, 51600, Note_on_c, 0, 66, 80
1, 51959, Note_on_c, 0, 66, 0
1, 51960, Note_on_c, 0, 59, 80
1, 52079, Note_on_c, 0, 59, 0
1, 52080, Note_on_c, 0, 61, 80
1, 52199, Note_on_c, 0, 61, 0
1, 52200, Note_on_c, 0, 63, 80
1, 52319, Note_on_c, 0, 63, 0
1, 52320, Note_on_c, 0, 64, 80
1, 52439, Note_on_c, 0, 64, 0
1, 52440, Note_on_c, 0, 63, 80
1, 52559, Note_on_c, 0, 63, 0
1, 52560, Note_on_c, 0, 66, 80
1, 52679, Note_on_c, 0, 66, 0
1, 52680, Note_on_c, 0, 64, 80
1, 52799, Note_on_c, 0, 64, 0
1, 52800, Note_on_c, 0, 63, 80
1, 53279, Note_on_c, 0, 63, 0
1, 53520, Note_on_c, 0, 68, 80
1, 53879, Note_on_c, 0, 68, 0
1, 53880, Note_on_c, 0, 61, 80
1, 53999, Note_on_c, 0, 61, 0
1, 54000, Note_on_c, 0, 63, 80
1, 54119, Note_on_c, 0, 63, 0
1, 54120, Note_on_c, 0, 64, 80
1, 54239, Note_on_c, 0, 64, 0
1, 54240, Note_on_c, 0, 66, 80
1, 54359, Note_on_c, 0, 66, 0
1, 54360, Note_on_c, 0, 64, 80
1, 54479, Note_on_c, 0, 64, 0
1, 54480, Note_on_c, 0, 68, 80
1, 54599, Note_on_c, 0, 68, 0
1, 54600, Note_on_c, 0, 66, 80
1, 54719, Note_on_c, 0, 66, 0
1, 54720, Note_on_c, 0, 64, 80
1, 55199, Note_on_c, 0, 64, 0
1, 55440, Note_on_c, 0, 73, 80
1, 55919, Note_on_c, 0, 73, 0
1, 55920, Note_on_c, 0, 71, 80
1, 56399, Note_on_c, 0, 71, 0
1, 56400, Note_on_c, 0, 69, 80
1, 56879, Note_on_c, 0, 69, 0
1, 56880, Note_on_c, 0, 68, 80
1, 57119, Note_on_c, 0, 68, 0
1, 57120, Note_on_c, 0, 66, 80
1, 57599, Note_on_c, 0, 66, 0
1, 57600, Note_on_c, 0, 64, 80
1, 57719, Note_on_c, 0, 64, 0
1, 57720, Note_on_c, 0, 71, 80
1, 57839, Note_on_c, 0, 71, 0
1, 57840, Note_on_c, 0, 73, 80
1, 57959, Note_on_c, 0, 73, 0
1, 57960, Note_on_c, 0, 75, 80
1, 58079, Note_on_c, 0, 75, 0
1, 58080, Note_on_c, 0, 76, 80
1, 58559, Note_on_c, 0, 76, 0
1, 58560, Note_on_c, 0, 75, 80
1, 58799, Note_on_c, 0, 75, 0
1, 58800, Note_on_c, 0, 80, 80
1, 59039, Note_on_c, 0, 80, 0
1, 59040, Note_on_c, 0, 73, 80
1, 59279, Note_on_c, 0, 73, 0
1, 59280, Note_on_c, 0, 72, 80
1, 59519, Note_on_c, 0, 72, 0
1, 59520, Note_on_c, 0, 71, 80
1, 59759, Note_on_c, 0, 71, 0
1, 59760, Note_on_c, 0, 76, 80
1, 59999, Note_on_c, 0, 76, 0
1, 60000, Note_on_c, 0, 69, 80
1, 60479, Note_on_c, 0, 69, 0
1, 60480, Note_on_c, 0, 68, 80
1, 60719, Note_on_c, 0, 68, 0
1, 60720, Note_on_c, 0, 69, 80
1, 60959, Note_on_c, 0, 69, 0
1, 60960, Note_on_c, 0, 71, 80
1, 61079, Note_on_c, 0, 71, 0
1, 61080, Note_on_c, 0, 69, 80
1, 61199, Note_on_c, 0, 69, 0
1, 61200, Note_on_c, 0, 71, 80
1, 61439, Note_on_c, 0, 71, 0
1, 61440, Note_on_c, 0, 64, 80
1, 61679, Note_on_c, 0, 64, 0
1, 62160, Note_on_c, 0, 69, 80
1, 62519, Note_on_c, 0, 69, 0
1, 62520, Note_on_c, 0, 68, 80
1, 62639, Note_on_c, 0, 68, 0
1, 62640, Note_on_c, 0, 70, 80
1, 62759, Note_on_c, 0, 70, 0
1, 62760, Note_on_c, 0, 71, 80
1, 62879, Note_on_c, 0, 71, 0
1, 62880, Note_on_c, 0, 73, 80
1, 62999, Note_on_c, 0, 73, 0
1, 63000, Note_on_c, 0, 71, 80
1, 63119, Note_on_c, 0, 71, 0
1, 63120, Note_on_c, 0, 73, 80
1, 63359, Note_on_c, 0, 73, 0
1, 63360, Note_on_c, 0, 66, 80
1, 63479, Note_on_c, 0, 66, 0
1, 63480, Note_on_c, 0, 70, 80
1, 63599, Note_on_c, 0, 70, 0
1, 63600, Note_on_c, 0, 71, 80
1, 63719, Note_on_c, 0, 71, 0
1, 63720, Note_on_c, 0, 73, 80
1, 63839, Note_on_c, 0, 73, 0
1, 63840, Note_on_c, 0, 75, 80
1, 63959, Note_on_c, 0, 75, 0
1, 63960, Note_on_c, 0, 76, 80
1, 64079, Note_on_c, 0, 76, 0
1, 64080, Note_on_c, 0, 78, 80
1, 64199, Note_on_c, 0, 78, 0
1, 64200, Note_on_c, 0, 78, 80
1, 64319, Note_on_c, 0, 78, 0
1, 64320, Note_on_c, 0, 78, 80
1, 64439, Note_on_c, 0, 78, 0
1, 64440, Note_on_c, 0, 75, 80
1, 64559, Note_on_c, 0, 75, 0
1, 64560, Note_on_c, 0, 76, 80
1, 64679, Note_on_c, 0, 76, 0
1, 64680, Note_on_c, 0, 76, 80
1, 64799, Note_on_c, 0, 76, 0
1, 64800, Note_on_c, 0, 76, 80
1, 64919, Note_on_c, 0, 76, 0
1, 64920, Note_on_c, 0, 73, 80
1, 65039, Note_on_c, 0, 73, 0
1, 65040, Note_on_c, 0, 74, 80
1, 65159, Note_on_c, 0, 74, 0
1, 65160, Note_on_c, 0, 74, 80
1, 65279, Note_on_c, 0, 74, 0
1, 65280, Note_on_c, 0, 74, 80
1, 65399, Note_on_c, 0, 74, 0
1, 65400, Note_on_c, 0, 72, 80
1, 65519, Note_on_c, 0, 72, 0
1, 65520, Note_on_c, 0, 73, 80
1, 65639, Note_on_c, 0, 73, 0
1, 65640, Note_on_c, 0, 73, 80
1, 65759, Note_on_c, 0, 73, 0
1, 65760, Note_on_c, 0, 73, 80
1, 65879, Note_on_c, 0, 73, 0
1, 65880, Note_on_c, 0, 71, 80
1, 65999, Note_on_c, 0, 71, 0
1, 66000, Note_on_c, 0, 69, 80
1, 66119, Note_on_c, 0, 69, 0
1, 66120, Note_on_c, 0, 68, 80
1, 66239, Note_on_c, 0, 68, 0
1, 66240, Note_on_c, 0, 69, 80
1, 66359, Note_on_c, 0, 69, 0
1, 66360, Note_on_c, 0, 64, 80
1, 66479, Note_on_c, 0, 64, 0
1, 66480, Note_on_c, 0, 69, 80
1, 66959, Note_on_c, 0, 69, 0
1, 66960, Note_on_c, 0, 68, 80
1, 67199, Note_on_c, 0, 68, 0
1, 67200, Note_on_c, 0, 69, 80
1, 67319, Note_on_c, 0, 69, 0
1, 67320, Note_on_c, 0, 76, 80
1, 67439, Note_on_c, 0, 76, 0
1, 67440, Note_on_c, 0, 74, 80
1, 67559, Note_on_c, 0, 74, 0
1, 67560, Note_on_c, 0, 73, 80
1, 67679, Note_on_c, 0, 73, 0
1, 67680, Note_on_c, 0, 71, 80
1, 67799, Note_on_c, 0, 71, 0
1, 67800, Note_on_c, 0, 73, 80
1, 67919, Note_on_c, 0, 73, 0
1, 67920, Note_on_c, 0, 69, 80
1, 68039, Note_on_c, 0, 69, 0
1, 68040, Note_on_c, 0, 71, 80
1, 68159, Note_on_c, 0, 71, 0
1, 68160, Note_on_c, 0, 73, 80
1, 68399, Note_on_c, 0, 73, 0
1, 68400, Note_on_c, 0, 78, 80
1, 68879, Note_on_c, 0, 78, 0
1, 68880, Note_on_c, 0, 77, 80
1, 69119, Note_on_c, 0, 77, 0
1, 69120, Note_on_c, 0, 78, 80
1, 69239, Note_on_c, 0, 78, 0
1, 69240, Note_on_c, 0, 73, 80
1, 69359, Note_on_c, 0, 73, 0
1, 69360, Note_on_c, 0, 71, 80
1, 69479, Note_on_c, 0, 71, 0
1, 69480, Note_on_c, 0, 69, 80
1, 69599, Note_on_c, 0, 69, 0
1, 69600, Note_on_c, 0, 68, 80
1, 69719, Note_on_c, 0, 68, 0
1, 69720, Note_on_c, 0, 69, 80
1, 69839, Note_on_c, 0, 69, 0
1, 69840, Note_on_c, 0, 66, 80
1, 69959, Note_on_c, 0, 66, 0
1, 69960, Note_on_c, 0, 68, 80
1, 70079, Note_on_c, 0, 68, 0
1, 70080, Note_on_c, 0, 69, 80
1, 70559, Note_on_c, 0, 69, 0
1, 70560, Note_on_c, 0, 68, 80
1, 71039, Note_on_c, 0, 68, 0
1, 71040, Note_on_c, 0, 73, 80
1, 71279, Note_on_c, 0, 73, 0
1, 71280, Note_on_c, 0, 66, 80
1, 71519, Note_on_c, 0, 66, 0
1, 71520, Note_on_c, 0, 64, 80
1, 71999, Note_on_c, 0, 64, 0
1, 72000, Note_on_c, 0, 62, 80
1, 72479, Note_on_c, 0, 62, 0
1, 72480, Note_on_c, 0, 61, 80
1, 72719, Note_on_c, 0, 61, 0
1, 72720, Note_on_c, 0, 62, 80
1, 72959, Note_on_c, 0, 62, 0
1, 72960, Note_on_c, 0, 60, 80
1, 73199, Note_on_c, 0, 60, 0
1, 73200, Note_on_c, 0, 61, 80
1, 73439, Note_on_c, 0, 61, 0
1, 73440, Note_on_c, 0, 66, 80
1, 74039, Note_on_c, 0, 66, 0
1, 74040, Note_on_c, 0, 63, 80
1, 74159, Note_on_c, 0, 63, 0
1, 74160, Note_on_c, 0, 64, 80
1, 74279, Note_on_c, 0, 64, 0
1, 74280, Note_on_c, 0, 64, 80
1, 74399, Note_on_c, 0, 64, 0
1, 74400, Note_on_c, 0, 64, 80
1, 74639, Note_on_c, 0, 64, 0
1, 74640, Note_on_c, 0, 64, 80
1, 74879, Note_on_c, 0, 64, 0
1, 74880, Note_on_c, 0, 73, 80
1, 75239, Note_on_c, 0, 73, 0
1, 75240, Note_on_c, 0, 75, 80
1, 75359, Note_on_c, 0, 75, 0
1, 75360, Note_on_c, 0, 72, 80
1, 75599, Note_on_c, 0, 72, 0
1, 75600, Note_on_c, 0, 73, 80
1, 75839, Note_on_c, 0, 73, 0
1, 75840, Note_on_c, 0, 70, 80
1, 76079, Note_on_c, 0, 70, 0
1, 76080, Note_on_c, 0, 71, 80
1, 76319, Note_on_c, 0, 71, 0
1, 76560, Note_on_c, 0, 69, 80
1, 76799, Note_on_c, 0, 69, 0
1, 76800, Note_on_c, 0, 67, 80
1, 77039, Note_on_c, 0, 67, 0
1, 77040, Note_on_c, 0, 68, 80
1, 77279, Note_on_c, 0, 68, 0
1, 77520, Note_on_c, 0, 73, 80
1, 77759, Note_on_c, 0, 73, 0
1, 77760, Note_on_c, 0, 71, 80
1, 77999, Note_on_c, 0, 71, 0
1, 78000, Note_on_c, 0, 76, 80
1, 78239, Note_on_c, 0, 76, 0
1, 78240, Note_on_c, 0, 70, 80
1, 78479, Note_on_c, 0, 70, 0
1, 78480, Note_on_c, 0, 69, 80
1, 78719, Note_on_c, 0, 69, 0
1, 78720, Note_on_c, 0, 68, 80
1, 78959, Note_on_c, 0, 68, 0
1, 78960, Note_on_c, 0, 73, 80
1, 79199, Note_on_c, 0, 73, 0
1, 79200, Note_on_c, 0, 66, 80
1, 79679, Note_on_c, 0, 66, 0
1, 79680, Note_on_c, 0, 65, 80
1, 79919, Note_on_c, 0, 65, 0
1, 79920, Note_on_c, 0, 66, 80
1, 80159, Note_on_c, 0, 66, 0
1, 80160, Note_on_c, 0, 68, 80
1, 80279, Note_on_c, 0, 68, 0
1, 80280, Note_on_c, 0, 66, 80
1, 80399, Note_on_c, 0, 66, 0
1, 80400, Note_on_c, 0, 68, 80
1, 80639, Note_on_c, 0, 68, 0
1, 80640, Note_on_c, 0, 61, 80
1, 80759, Note_on_c, 0, 61, 0
1, 80760, Note_on_c, 0, 63, 80
1, 80879, Note_on_c, 0, 63, 0
1, 80880, Note_on_c, 0, 65, 80
1, 80999, Note_on_c, 0, 65, 0
1, 81000, Note_on_c, 0, 66, 80
1, 81119, Note_on_c, 0, 66, 0
1, 81120, Note_on_c, 0, 68, 80
1, 81239, Note_on_c, 0, 68, 0
1, 81240, Note_on_c, 0, 66, 80
1, 81359, Note_on_c, 0, 66, 0
1, 81360, Note_on_c, 0, 69, 80
1, 81479, Note_on_c, 0, 69, 0
1, 81480, Note_on_c, 0, 68, 80
1, 81599, Note_on_c, 0, 68, 0
1, 81600, Note_on_c, 0, 71, 80
1, 81719, Note_on_c, 0, 71, 0
1, 81720, Note_on_c, 0, 70, 80
1, 81839, Note_on_c, 0, 70, 0
1, 81840, Note_on_c, 0, 73, 80
1, 81959, Note_on_c, 0, 73, 0
1, 81960, Note_on_c, 0, 72, 80
1, 82079, Note_on_c, 0, 72, 0
1, 82080, Note_on_c, 0, 75, 80
1, 82199, Note_on_c, 0, 75, 0
1, 82200, Note_on_c, 0, 73, 80
1, 82319, Note_on_c, 0, 73, 0
1, 82320, Note_on_c, 0, 76, 80
1, 82439, Note_on_c, 0, 76, 0
1, 82440, Note_on_c, 0, 75, 80
1, 82559, Note_on_c, 0, 75, 0
1, 82560, Note_on_c, 0, 78, 80
1, 82679, Note_on_c, 0, 78, 0
1, 82680, Note_on_c, 0, 73, 80
1, 82799, Note_on_c, 0, 73, 0
1, 82800, Note_on_c, 0, 72, 80
1, 82919, Note_on_c, 0, 72, 0
1, 82920, Note_on_c, 0, 75, 80
1, 83039, Note_on_c, 0, 75, 0
1, 83040, Note_on_c, 0, 68, 80
1, 83279, Note_on_c, 0, 68, 0
1, 83280, Note_on_c, 0, 78, 80
1, 83519, Note_on_c, 0, 78, 0
1, 83520, Note_on_c, 0, 76, 80
1, 83759, Note_on_c, 0, 76, 0
1, 83760, Note_on_c, 0, 80, 80
1, 83999, Note_on_c, 0, 80, 0
1, 84000, Note_on_c, 0, 73, 80
1, 84119, Note_on_c, 0, 73, 0
1, 84120, Note_on_c, 0, 75, 80
1, 84239, Note_on_c, 0, 75, 0
1, 84240, Note_on_c, 0, 76, 80
1, 84359, Note_on_c, 0, 76, 0
1, 84360, Note_on_c, 0, 76, 80
1, 84479, Note_on_c, 0, 76, 0
1, 84480, Note_on_c, 0, 78, 80
1, 84599, Note_on_c, 0, 78, 0
1, 84600, Note_on_c, 0, 75, 80
1, 84719, Note_on_c, 0, 75, 0
1, 84720, Note_on_c, 0, 76, 80
1, 84839, Note_on_c, 0, 76, 0
1, 84840, Note_on_c, 0, 76, 80
1, 84959, Note_on_c, 0, 76, 0
1, 84960, Note_on_c, 0, 76, 80
1, 85079, Note_on_c, 0, 76, 0
1, 85080, Note_on_c, 0, 74, 80
1, 85199, Note_on_c, 0, 74, 0
1, 85200, Note_on_c, 0, 76, 80
1, 85319, Note_on_c, 0, 76, 0
1, 85320, Note_on_c, 0, 76, 80
1, 85439, Note_on_c, 0, 76, 0
1, 85440, Note_on_c, 0, 73, 80
1, 85559, Note_on_c, 0, 73, 0
1, 85560, Note_on_c, 0, 70, 80
1, 85679, Note_on_c, 0, 70, 0
1, 85680, Note_on_c, 0, 71, 80
1, 85799, Note_on_c, 0, 71, 0
1, 85800, Note_on_c, 0, 71, 80
1, 85919, Note_on_c, 0, 71, 0
1, 85920, Note_on_c, 0, 71, 80
1, 86039, Note_on_c, 0, 71, 0
1, 86040, Note_on_c, 0, 68, 80
1, 86159, Note_on_c, 0, 68, 0
1, 86160, Note_on_c, 0, 69, 80
1, 86279, Note_on_c, 0, 69, 0
1, 86280, Note_on_c, 0, 69, 80
1, 86399, Note_on_c, 0, 69, 0
1, 86400, Note_on_c, 0, 69, 80
1, 86519, Note_on_c, 0, 69, 0
1, 86520, Note_on_c, 0, 66, 80
1, 86639, Note_on_c, 0, 66, 0
1, 86640, Note_on_c, 0, 72, 80
1, 86759, Note_on_c, 0, 72, 0
1, 86760, Note_on_c, 0, 72, 80
1, 86879, Note_on_c, 0, 72, 0
1, 86880, Note_on_c, 0, 72, 80
1, 86999, Note_on_c, 0, 72, 0
1, 87000, Note_on_c, 0, 66, 80
1, 87119, Note_on_c, 0, 66, 0
1, 87120, Note_on_c, 0, 75, 80
1, 87239, Note_on_c, 0, 75, 0
1, 87240, Note_on_c, 0, 75, 80
1, 87359, Note_on_c, 0, 75, 0
1, 87360, Note_on_c, 0, 75, 80
1, 87479, Note_on_c, 0, 75, 0
1, 87480, Note_on_c, 0, 72, 80
1, 87599, Note_on_c, 0, 72, 0
1, 87600, Note_on_c, 0, 73, 80
1, 87839, Note_on_c, 0, 73, 0
1, 87900, Note_on_c, 0, 71, 80
1, 87959, Note_on_c, 0, 71, 0
1, 87960, Note_on_c, 0, 69, 80
1, 88019, Note_on_c, 0, 69, 0
1, 88020, Note_on_c, 0, 68, 80
1, 88079, Note_on_c, 0, 68, 0
1, 88080, Note_on_c, 0, 66, 80
1, 88139, Note_on_c, 0, 66, 0
1, 88140, Note_on_c, 0, 76, 80
1, 88199, Note_on_c, 0, 76, 0
1, 88200, Note_on_c, 0, 75, 80
1, 88259, Note_on_c, 0, 75, 0
1, 88260, Note_on_c, 0, 73, 80
1, 88319, Note_on_c, 0, 73, 0
1, 88320, Note_on_c, 0, 72, 80
1, 88799, Note_on_c, 0, 72, 0
1, 88920, Note_on_c, 0, 68, 80
1, 89039, Note_on_c, 0, 68, 0
1, 89040, Note_on_c, 0, 70, 80
1, 89159, Note_on_c, 0, 70, 0
1, 89160, Note_on_c, 0, 71, 80
1, 89279, Note_on_c, 0, 71, 0
1, 89280, Note_on_c, 0, 73, 80
1, 89399, Note_on_c, 0, 73, 0
1, 89400, Note_on_c, 0, 72, 80
1, 89519, Note_on_c, 0, 72, 0
1, 89520, Note_on_c, 0, 75, 80
1, 89639, Note_on_c, 0, 75, 0
1, 89640, Note_on_c, 0, 73, 80
1, 89759, Note_on_c, 0, 73, 0
1, 89760, Note_on_c, 0, 76, 80
1, 89999, Note_on_c, 0, 76, 0
1, 90000, Note_on_c, 0, 69, 80
1, 90359, Note_on_c, 0, 69, 0
1, 90360, Note_on_c, 0, 68, 80
1, 90479, Note_on_c, 0, 68, 0
1, 90480, Note_on_c, 0, 73, 80
1, 90599, Note_on_c, 0, 73, 0
1, 90600, Note_on_c, 0, 68, 80
1, 90719, Note_on_c, 0, 68, 0
1, 90720, Note_on_c, 0, 72, 80
1, 90839, Note_on_c, 0, 72, 0
1, 90840, Note_on_c, 0, 73, 80
1, 90959, Note_on_c, 0, 73, 0
1, 90960, Note_on_c, 0, 65, 80
1, 91079, Note_on_c, 0, 65, 0
1, 91080, Note_on_c, 0, 71, 80
1, 91199, Note_on_c, 0, 71, 0
1, 91200, Note_on_c, 0, 69, 80
1, 91319, Note_on_c, 0, 69, 0
1, 91320, Note_on_c, 0, 73, 80
1, 91439, Note_on_c, 0, 73, 0
1, 91440, Note_on_c, 0, 74, 80
1, 91559, Note_on_c, 0, 74, 0
1, 91560, Note_on_c, 0, 78, 80
1, 91679, Note_on_c, 0, 78, 0
1, 91680, Note_on_c, 0, 76, 80
1, 91799, Note_on_c, 0, 76, 0
1, 91800, Note_on_c, 0, 73, 80
1, 91919, Note_on_c, 0, 73, 0
1, 91920, Note_on_c, 0, 75, 80
1, 92039, Note_on_c, 0, 75, 0
1, 92040, Note_on_c, 0, 72, 80
1, 92159, Note_on_c, 0, 72, 0
1, 92160, Note_on_c, 0, 72, 80
1, 92279, Note_on_c, 0, 72, 0
1, 92280, Note_on_c, 0, 73, 80
1, 92399, Note_on_c, 0, 73, 0
1, 92400, Note_on_c, 0, 61, 80
1, 92639, Note_on_c, 0, 61, 0
1, 92640, Note_on_c, 0, 73, 80
1, 92879, Note_on_c, 0, 73, 0
1, 92880, Note_on_c, 0, 75, 80
1, 93119, Note_on_c, 0, 75, 0
1, 93120, Note_on_c, 0, 72, 80
1, 93359, Note_on_c, 0, 72, 0
1, 93360, Note_on_c, 0, 72, 80
1, 93599, Note_on_c, 0, 72, 0
1, 93600, Note_on_c, 0, 78, 80
1, 94199, Note_on_c, 0, 78, 0
1, 94200, Note_on_c, 0, 75, 80
1, 94319, Note_on_c, 0, 75, 0
1, 94320, Note_on_c, 0, 76, 80
1, 94439, Note_on_c, 0, 76, 0
1, 94440, Note_on_c, 0, 76, 80
1, 94559, Note_on_c, 0, 76, 0
1, 94560, Note_on_c, 0, 76, 80
1, 95159, Note_on_c, 0, 76, 0
1, 95160, Note_on_c, 0, 75, 80
1, 95279, Note_on_c, 0, 75, 0
1, 95280, Note_on_c, 0, 80, 80
1, 95399, Note_on_c, 0, 80, 0
1, 95400, Note_on_c, 0, 80, 80
1, 95519, Note_on_c, 0, 80, 0
1, 95520, Note_on_c, 0, 80, 80
1, 95759, Note_on_c, 0, 80, 0
1, 95760, Note_on_c, 0, 79, 80
1, 95999, Note_on_c, 0, 79, 0
1, 96000, Note_on_c, 0, 80, 80
1, 96239, Note_on_c, 0, 80, 0
1, 96240, Note_on_c, 0, 73, 80
1, 96359, Note_on_c, 0, 73, 0
1, 96360, Note_on_c, 0, 70, 80
1, 96479, Note_on_c, 0, 70, 0
1, 96480, Note_on_c, 0, 71, 80
1, 96719, Note_on_c, 0, 71, 0
1, 96720, Note_on_c, 0, 70, 80
1, 96959, Note_on_c, 0, 70, 0
1, 96960, Note_on_c, 0, 68, 80
1, 97199, Note_on_c, 0, 68, 0
1, 98160, Note_on_c, 0, 83, 80
1, 98279, Note_on_c, 0, 83, 0
1, 98280, Note_on_c, 0, 80, 80
1, 98399, Note_on_c, 0, 80, 0
1, 98400, Note_on_c, 0, 82, 80
1, 98519, Note_on_c, 0, 82, 0
1, 98520, Note_on_c, 0, 79, 80
1, 98639, Note_on_c, 0, 79, 0
1, 98640, Note_on_c, 0, 80, 80
1, 98759, Note_on_c, 0, 80, 0
1, 98760, Note_on_c, 0, 77, 80
1, 98879, Note_on_c, 0, 77, 0
1, 98880, Note_on_c, 0, 79, 80
1, 98999, Note_on_c, 0, 79, 0
1, 99000, Note_on_c, 0, 75, 80
1, 99119, Note_on_c, 0, 75, 0
1, 100080, Note_on_c, 0, 75, 80
1, 100319, Note_on_c, 0, 75, 0
1, 100320, Note_on_c, 0, 68, 80
1, 100559, Note_on_c, 0, 68, 0
1, 100560, Note_on_c, 0, 70, 80
1, 100799, Note_on_c, 0, 70, 0
1, 101040, Note_on_c, 0, 71, 80
1, 101279, Note_on_c, 0, 71, 0
1, 101280, Note_on_c, 0, 73, 80
1, 101519, Note_on_c, 0, 73, 0
1, 101520, Note_on_c, 0, 75, 80
1, 101759, Note_on_c, 0, 75, 0
1, 102000, Note_on_c, 0, 76, 80
1, 102239, Note_on_c, 0, 76, 0
1, 102240, Note_on_c, 0, 75, 80
1, 102479, Note_on_c, 0, 75, 0
1, 102480, Note_on_c, 0, 73, 80
1, 102719, Note_on_c, 0, 73, 0
1, 102960, Note_on_c, 0, 71, 80
1, 103079, Note_on_c, 0, 71, 0
1, 103080, Note_on_c, 0, 70, 80
1, 103199, Note_on_c, 0, 70, 0
1, 103200, Note_on_c, 0, 71, 80
1, 103439, Note_on_c, 0, 71, 0
1, 103440, Note_on_c, 0, 73, 80
1, 103679, Note_on_c, 0, 73, 0
1, 103680, Note_on_c, 0, 75, 80
1, 104759, Note_on_c, 0, 75, 0
1, 104760, Note_on_c, 0, 68, 80
1, 104879, Note_on_c, 0, 68, 0
1, 104880, Note_on_c, 0, 71, 80
1, 104999, Note_on_c, 0, 71, 0
1, 105000, Note_on_c, 0, 74, 80
1, 105119, Note_on_c, 0, 74, 0
1, 105120, Note_on_c, 0, 73, 80
1, 105239, Note_on_c, 0, 73, 0
1, 105240, Note_on_c, 0, 69, 80
1, 105359, Note_on_c, 0, 69, 0
1, 105360, Note_on_c, 0, 71, 80
1, 105479, Note_on_c, 0, 71, 0
1, 105480, Note_on_c, 0, 68, 80
1, 105599, Note_on_c, 0, 68, 0
1, 105600, Note_on_c, 0, 69, 80
1, 105839, Note_on_c, 0, 69, 0
1, 105960, Note_on_c, 0, 78, 80
1, 106079, Note_on_c, 0, 78, 0
1, 106080, Note_on_c, 0, 77, 80
1, 106319, Note_on_c, 0, 77, 0
1, 106320, Note_on_c, 0, 76, 80
1, 106559, Note_on_c, 0, 76, 0
1, 106680, Note_on_c, 0, 74, 80
1, 106799, Note_on_c, 0, 74, 0
1, 106800, Note_on_c, 0, 73, 80
1, 106919, Note_on_c, 0, 73, 0
1, 106920, Note_on_c, 0, 71, 80
1, 107039, Note_on_c, 0, 71, 0
1, 107040, Note_on_c, 0, 73, 80
1, 107279, Note_on_c, 0, 73, 0
1, 107280, Note_on_c, 0, 74, 80
1, 107639, Note_on_c, 0, 74, 0
1, 107640, Note_on_c, 0, 73, 80
1, 107759, Note_on_c, 0, 73, 0
1, 107760, Note_on_c, 0, 72, 80
1, 107879, Note_on_c, 0, 72, 0
1, 107880, Note_on_c, 0, 73, 80
1, 107999, Note_on_c, 0, 73, 0
1, 108000, Note_on_c, 0, 75, 80
1, 108119, Note_on_c, 0, 75, 0
1, 108120, Note_on_c, 0, 77, 80
1, 108239, Note_on_c, 0, 77, 0
1, 108240, Note_on_c, 0, 78, 80
1, 108359, Note_on_c, 0, 78, 0
1, 108360, Note_on_c, 0, 78, 80
1, 108479, Note_on_c, 0, 78, 0
1, 108480, Note_on_c, 0, 78, 80
1, 108599, Note_on_c, 0, 78, 0
1, 108600, Note_on_c, 0, 75, 80
1, 108719, Note_on_c, 0, 75, 0
1, 108720, Note_on_c, 0, 76, 80
1, 108839, Note_on_c, 0, 76, 0
1, 108840, Note_on_c, 0, 76, 80
1, 108959, Note_on_c, 0, 76, 0
1, 108960, Note_on_c, 0, 76, 80
1, 109079, Note_on_c, 0, 76, 0
1, 109080, Note_on_c, 0, 73, 80
1, 109199, Note_on_c, 0, 73, 0
1, 109200, Note_on_c, 0, 74, 80
1, 109319, Note_on_c, 0, 74, 0
1, 109320, Note_on_c, 0, 74, 80
1, 109439, Note_on_c, 0, 74, 0
1, 109440, Note_on_c, 0, 74, 80
1, 109559, Note_on_c, 0, 74, 0
1, 109560, Note_on_c, 0, 72, 80
1, 109679, Note_on_c, 0, 72, 0
1, 109680, Note_on_c, 0, 73, 80
1, 109799, Note_on_c, 0, 73, 0
1, 109800, Note_on_c, 0, 73, 80
1, 109919, Note_on_c, 0, 73, 0
1, 109920, Note_on_c, 0, 73, 80
1, 110039, Note_on_c, 0, 73, 0
1, 110040, Note_on_c, 0, 70, 80
1, 110159, Note_on_c, 0, 70, 0
1, 110160, Note_on_c, 0, 71, 80
1, 110279, Note_on_c, 0, 71, 0
1, 110280, Note_on_c, 0, 71, 80
1, 110399, Note_on_c, 0, 71, 0
1, 110400, Note_on_c, 0, 71, 80
1, 110519, Note_on_c, 0, 71, 0
1, 110520, Note_on_c, 0, 68, 80
1, 110639, Note_on_c, 0, 68, 0
1, 110640, Note_on_c, 0, 69, 80
1, 110759, Note_on_c, 0, 69, 0
1, 110760, Note_on_c, 0, 69, 80
1, 110879, Note_on_c, 0, 69, 0
1, 110880, Note_on_c, 0, 69, 80
1, 110999, Note_on_c, 0, 69, 0
1, 111000, Note_on_c, 0, 66, 80
1, 111119, Note_on_c, 0, 66, 0
1, 111120, Note_on_c, 0, 67, 80
1, 111239, Note_on_c, 0, 67, 0
1, 111240, Note_on_c, 0, 67, 80
1, 111359, Note_on_c, 0, 67, 0
1, 111360, Note_on_c, 0, 67, 80
1, 111479, Note_on_c, 0, 67, 0
1, 111480, Note_on_c, 0, 65, 80
1, 111599, Note_on_c, 0, 65, 0
1, 111600, Note_on_c, 0, 66, 80
1, 112079, Note_on_c, 0, 66, 0
1, 112080, Note_on_c, 0, 64, 80
1, 112319, Note_on_c, 0, 64, 0
1, 112320, Note_on_c, 0, 66, 80
1, 112799, Note_on_c, 0, 66, 0
1, 112800, Note_on_c, 0, 65, 80
1, 112919, Note_on_c, 0, 65, 0
1, 112920, Note_on_c, 0, 66, 80
1, 113039, Note_on_c, 0, 66, 0
1, 113040, Note_on_c, 0, 68, 80
1, 113519, Note_on_c, 0, 68, 0
1, 113520, Note_on_c, 0, 66, 80
1, 113639, Note_on_c, 0, 66, 0
1, 113640, Note_on_c, 0, 66, 80
1, 113759, Note_on_c, 0, 66, 0
1, 113760, Note_on_c, 0, 66, 80
1, 113879, Note_on_c, 0, 66, 0
1, 113880, Note_on_c, 0, 63, 80
1, 113999, Note_on_c, 0, 63, 0
1, 114000, Note_on_c, 0, 64, 80
1, 114119, Note_on_c, 0, 64, 0
1, 114120, Note_on_c, 0, 64, 80
1, 114239, Note_on_c, 0, 64, 0
1, 114240, Note_on_c, 0, 62, 80
1, 114479, Note_on_c, 0, 62, 0
1, 114480, Note_on_c, 0, 68, 80
1, 114599, Note_on_c, 0, 68, 0
1, 114600, Note_on_c, 0, 68, 80
1, 114719, Note_on_c, 0, 68, 0
1, 114720, Note_on_c, 0, 68, 80
1, 114839, Note_on_c, 0, 68, 0
1, 114840, Note_on_c, 0, 66, 80
1, 114959, Note_on_c, 0, 66, 0
1, 114960, Note_on_c, 0, 69, 80
1, 115079, Note_on_c, 0, 69, 0
1, 115080, Note_on_c, 0, 69, 80
1, 115199, Note_on_c, 0, 69, 0
1, 115200, Note_on_c, 0, 68, 80
1, 115439, Note_on_c, 0, 68, 0
1, 115440, Note_on_c, 0, 73, 80
1, 115559, Note_on_c, 0, 73, 0
1, 115560, Note_on_c, 0, 73, 80
1, 115679, Note_on_c, 0, 73, 0
1, 115680, Note_on_c, 0, 73, 80
1, 115799, Note_on_c, 0, 73, 0
1, 115800, Note_on_c, 0, 70, 80
1, 115919, Note_on_c, 0, 70, 0
1, 115920, Note_on_c, 0, 71, 80
1, 116039, Note_on_c, 0, 71, 0
1, 116040, Note_on_c, 0, 71, 80
1, 116159, Note_on_c, 0, 71, 0
1, 116160, Note_on_c, 0, 70, 80
1, 116399, Note_on_c, 0, 70, 0
1, 116400, Note_on_c, 0, 75, 80
1, 116639, Note_on_c, 0, 75, 0
1, 116640, Note_on_c, 0, 77, 80
1, 116879, Note_on_c, 0, 77, 0
1, 116880, Note_on_c, 0, 79, 80
1, 117119, Note_on_c, 0, 79, 0
1, 117120, Note_on_c, 0, 80, 80
1, 117359, Note_on_c, 0, 80, 0
1, 117360, Note_on_c, 0, 82, 80
1, 117599, Note_on_c, 0, 82, 0
1, 117600, Note_on_c, 0, 75, 80
1, 117839, Note_on_c, 0, 75, 0
1, 117840, Note_on_c, 0, 79, 80
1, 118079, Note_on_c, 0, 79, 0
1, 118080, Note_on_c, 0, 80, 80
1, 118559, Note_on_c, 0, 80, 0
1, 119280, Note_on_c, 0, 80, 80
1, 119399, Note_on_c, 0, 80, 0
1, 119400, Note_on_c, 0, 80, 80
1, 119519, Note_on_c, 0, 80, 0
1, 119520, Note_on_c, 0, 80, 80
1, 119639, Note_on_c, 0, 80, 0
1, 119640, Note_on_c, 0, 76, 80
1, 119759, Note_on_c, 0, 76, 0
1, 119760, Note_on_c, 0, 78, 80
1, 119879, Note_on_c, 0, 78, 0
1, 119880, Note_on_c, 0, 78, 80
1, 119999, Note_on_c, 0, 78, 0
1, 120000, Note_on_c, 0, 78, 80
1, 120119, Note_on_c, 0, 78, 0
1, 120120, Note_on_c, 0, 75, 80
1, 120239, Note_on_c, 0, 75, 0
1, 120240, Note_on_c, 0, 76, 80
1, 120359, Note_on_c, 0, 76, 0
1, 120360, Note_on_c, 0, 76, 80
1, 120479, Note_on_c, 0, 76, 0
1, 120480, Note_on_c, 0, 76, 80
1, 120599, Note_on_c, 0, 76, 0
1, 120600, Note_on_c, 0, 75, 80
1, 120719, Note_on_c, 0, 75, 0
1, 120720, Note_on_c, 0, 73, 80
1, 120839, Note_on_c, 0, 73, 0
1, 120840, Note_on_c, 0, 72, 80
1, 120959, Note_on_c, 0, 72, 0
1, 120960, Note_on_c, 0, 73, 80
1, 121079, Note_on_c, 0, 73, 0
1, 121080, Note_on_c, 0, 76, 80
1, 121199, Note_on_c, 0, 76, 0
1, 121200, Note_on_c, 0, 75, 80
1, 121319, Note_on_c, 0, 75, 0
1, 121320, Note_on_c, 0, 73, 80
1, 121439, Note_on_c, 0, 73, 0
1, 121440, Note_on_c, 0, 72, 80
1, 121559, Note_on_c, 0, 72, 0
1, 121560, Note_on_c, 0, 73, 80
1, 121679, Note_on_c, 0, 73, 0
1, 121680, Note_on_c, 0, 70, 80
1, 121799, Note_on_c, 0, 70, 0
1, 121800, Note_on_c, 0, 72, 80
1, 121919, Note_on_c, 0, 72, 0
1, 121920, Note_on_c, 0, 73, 80
1, 122039, Note_on_c, 0, 73, 0
1, 122040, Note_on_c, 0, 68, 80
1, 122159, Note_on_c, 0, 68, 0
1, 122160, Note_on_c, 0, 69, 80
1, 122279, Note_on_c, 0, 69, 0
1, 122280, Note_on_c, 0, 66, 80
1, 122399, Note_on_c, 0, 66, 0
1, 122400, Note_on_c, 0, 63, 80
1, 122639, Note_on_c, 0, 63, 0
1, 122640, Note_on_c, 0, 66, 80
1, 122999, Note_on_c, 0, 66, 0
1, 123000, Note_on_c, 0, 66, 80
1, 123119, Note_on_c, 0, 66, 0
1, 123120, Note_on_c, 0, 64, 80
1, 123239, Note_on_c, 0, 64, 0
1, 123240, Note_on_c, 0, 63, 80
1, 123359, Note_on_c, 0, 63, 0
1, 123360, Note_on_c, 0, 65, 80
1, 123479, Note_on_c, 0, 65, 0
1, 123480, Note_on_c, 0, 73, 80
1, 123599, Note_on_c, 0, 73, 0
1, 123600, Note_on_c, 0, 67, 80
1, 123719, Note_on_c, 0, 67, 0
1, 123720, Note_on_c, 0, 70, 80
1, 123959, Note_on_c, 0, 70, 0
1, 123960, Note_on_c, 0, 70, 80
1, 124079, Note_on_c, 0, 70, 0
1, 124080, Note_on_c, 0, 68, 80
1, 124199, Note_on_c, 0, 68, 0
1, 124200, Note_on_c, 0, 67, 80
1, 124319, Note_on_c, 0, 67, 0
1, 124320, Note_on_c, 0, 68, 80
1, 124439, Note_on_c, 0, 68, 0
1, 124440, Note_on_c, 0, 76, 80
1, 124559, Note_on_c, 0, 76, 0
1, 124560, Note_on_c, 0, 70, 80
1, 124679, Note_on_c, 0, 70, 0
1, 124680, Note_on_c, 0, 73, 80
1, 124919, Note_on_c, 0, 73, 0
1, 124920, Note_on_c, 0, 73, 80
1, 125039, Note_on_c, 0, 73, 0
1, 125040, Note_on_c, 0, 71, 80
1, 125159, Note_on_c, 0, 71, 0
1, 125160, Note_on_c, 0, 70, 80
1, 125279, Note_on_c, 0, 70, 0
1, 125280, Note_on_c, 0, 72, 80
1, 125399, Note_on_c, 0, 72, 0
1, 125400, Note_on_c, 0, 80, 80
1, 125519, Note_on_c, 0, 80, 0
1, 125520, Note_on_c, 0, 73, 80
1, 125639, Note_on_c, 0, 73, 0
1, 125640, Note_on_c, 0, 76, 80
1, 125759, Note_on_c, 0, 76, 0
1, 125760, Note_on_c, 0, 70, 80
1, 125999, Note_on_c, 0, 70, 0
1, 126000, Note_on_c, 0, 75, 80
1, 126239, Note_on_c, 0, 75, 0
1, 126240, Note_on_c, 0, 80, 80
1, 126479, Note_on_c, 0, 80, 0
1, 126480, Note_on_c, 0, 68, 80
1, 126719, Note_on_c, 0, 68, 0
1, 126720, Note_on_c, 0, 66, 80
1, 126959, Note_on_c, 0, 66, 0
1, 126960, Note_on_c, 0, 71, 80
1, 127199, Note_on_c, 0, 71, 0
1, 127200, Note_on_c, 0, 76, 80
1, 127439, Note_on_c, 0, 76, 0
1, 127440, Note_on_c, 0, 64, 80
1, 127679, Note_on_c, 0, 64, 0
1, 127680, Note_on_c, 0, 63, 80
1, 127799, Note_on_c, 0, 63, 0
1, 127800, Note_on_c, 0, 75, 80
1, 127919, Note_on_c, 0, 75, 0
1, 127920, Note_on_c, 0, 73, 80
1, 128039, Note_on_c, 0, 73, 0
1, 128040, Note_on_c, 0, 71, 80
1, 128159, Note_on_c, 0, 71, 0
1, 128160, Note_on_c, 0, 70, 80
1, 128279, Note_on_c, 0, 70, 0
1, 128280, Note_on_c, 0, 71, 80
1, 128399, Note_on_c, 0, 71, 0
1, 128400, Note_on_c, 0, 68, 80
1, 128519, Note_on_c, 0, 68, 0
1, 128520, Note_on_c, 0, 70, 80
1, 128639, Note_on_c, 0, 70, 0
1, 128640, Note_on_c, 0, 71, 80
1, 128759, Note_on_c, 0, 71, 0
1, 128760, Note_on_c, 0, 75, 80
1, 128879, Note_on_c, 0, 75, 0
1, 128880, Note_on_c, 0, 73, 80
1, 128999, Note_on_c, 0, 73, 0
1, 129000, Note_on_c, 0, 76, 80
1, 129119, Note_on_c, 0, 76, 0
1, 129120, Note_on_c, 0, 75, 80
1, 129359, Note_on_c, 0, 75, 0
1, 129360, Note_on_c, 0, 73, 80
1, 129839, Note_on_c, 0, 73, 0
1, 129840, Note_on_c, 0, 71, 80
1, 130079, Note_on_c, 0, 71, 0
1, 130080, Note_on_c, 0, 70, 80
1, 130319, Note_on_c, 0, 70, 0
1, 130320, Note_on_c, 0, 72, 80
1, 130559, Note_on_c, 0, 72, 0
1, 130560, Note_on_c, 0, 73, 80
1, 130679, Note_on_c, 0, 73, 0
1, 130680, Note_on_c, 0, 68, 80
1, 130799, Note_on_c, 0, 68, 0
1, 130800, Note_on_c, 0, 66, 80
1, 130919, Note_on_c, 0, 66, 0
1, 130920, Note_on_c, 0, 64, 80
1, 131039, Note_on_c, 0, 64, 0
1, 131040, Note_on_c, 0, 63, 80
1, 131159, Note_on_c, 0, 63, 0
1, 131160, Note_on_c, 0, 61, 80
1, 131279, Note_on_c, 0, 61, 0
1, 131280, Note_on_c, 0, 63, 80
1, 131519, Note_on_c, 0, 63, 0
1, 131520, Note_on_c, 0, 61, 80
1, 131639, Note_on_c, 0, 61, 0
1, 131640, Note_on_c, 0, 63, 80
1, 131759, Note_on_c, 0, 63, 0
1, 131760, Note_on_c, 0, 64, 80
1, 131879, Note_on_c, 0, 64, 0
1, 131880, Note_on_c, 0, 66, 80
1, 131999, Note_on_c, 0, 66, 0
1, 132000, Note_on_c, 0, 68, 80
1, 132119, Note_on_c, 0, 68, 0
1, 132120, Note_on_c, 0, 66, 80
1, 132239, Note_on_c, 0, 66, 0
1, 132240, Note_on_c, 0, 69, 80
1, 132359, Note_on_c, 0, 69, 0
1, 132360, Note_on_c, 0, 68, 80
1, 132479, Note_on_c, 0, 68, 0
1, 132480, Note_on_c, 0, 69, 80
1, 132959, Note_on_c, 0, 69, 0
1, 132960, Note_on_c, 0, 71, 80
1, 133019, Note_on_c, 0, 71, 0
1, 133020, Note_on_c, 0, 70, 80
1, 133079, Note_on_c, 0, 70, 0
1, 133080, Note_on_c, 0, 71, 80
1, 133139, Note_on_c, 0, 71, 0
1, 133140, Note_on_c, 0, 70, 80
1, 133199, Note_on_c, 0, 70, 0
1, 133200, Note_on_c, 0, 71, 80
1, 133259, Note_on_c, 0, 71, 0
1, 133260, Note_on_c, 0, 70, 80
1, 133319, Note_on_c, 0, 70, 0
1, 133320, Note_on_c, 0, 68, 80
1, 133379, Note_on_c, 0, 68, 0
1, 133380, Note_on_c, 0, 70, 80
1, 133439, Note_on_c, 0, 70, 0
1, 133440, Note_on_c, 0, 71, 80
1, 133919, Note_on_c, 0, 71, 0
1, 134520, Note_on_c, 0, 76, 80
1, 134639, Note_on_c, 0, 76, 0
1, 134640, Note_on_c, 0, 75, 80
1, 134759, Note_on_c, 0, 75, 0
1, 134760, Note_on_c, 0, 73, 80
1, 134879, Note_on_c, 0, 73, 0
1, 134880, Note_on_c, 0, 71, 80
1, 134999, Note_on_c, 0, 71, 0
1, 135000, Note_on_c, 0, 73, 80
1, 135119, Note_on_c, 0, 73, 0
1, 135120, Note_on_c, 0, 69, 80
1, 135239, Note_on_c, 0, 69, 0
1, 135240, Note_on_c, 0, 71, 80
1, 135359, Note_on_c, 0, 71, 0
1, 135360, Note_on_c, 0, 68, 80
1, 135479, Note_on_c, 0, 68, 0
1, 135480, Note_on_c, 0, 71, 80
1, 135599, Note_on_c, 0, 71, 0
1, 135600, Note_on_c, 0, 69, 80
1, 135719, Note_on_c, 0, 69, 0
1, 135720, Note_on_c, 0, 68, 80
1, 135839, Note_on_c, 0, 68, 0
1, 135840, Note_on_c, 0, 66, 80
1, 135959, Note_on_c, 0, 66, 0
1, 135960, Note_on_c, 0, 68, 80
1, 136079, Note_on_c, 0, 68, 0
1, 136080, Note_on_c, 0, 64, 80
1, 136199, Note_on_c, 0, 64, 0
1, 136200, Note_on_c, 0, 66, 80
1, 136319, Note_on_c, 0, 66, 0
1, 136320, Note_on_c, 0, 68, 80
1, 136799, Note_on_c, 0, 68, 0
1, 136800, Note_on_c, 0, 66, 80
1, 137279, Note_on_c, 0, 66, 0
1, 137280, Note_on_c, 0, 64, 80
1, 137759, Note_on_c, 0, 64, 0
1, 137760, Note_on_c, 0, 63, 80
1, 138239, Note_on_c, 0, 63, 0
1, 138240, Note_on_c, 0, 61, 80
1, 138479, Note_on_c, 0, 61, 0
1, 140640, Note_on_c, 0, 76, 80
1, 141119, Note_on_c, 0, 76, 0
1, 141120, Note_on_c, 0, 75, 80
1, 141359, Note_on_c, 0, 75, 0
1, 141360, Note_on_c, 0, 80, 80
1, 141599, Note_on_c, 0, 80, 0
1, 141600, Note_on_c, 0, 74, 80
1, 141839, Note_on_c, 0, 74, 0
1, 141840, Note_on_c, 0, 73, 80
1, 142079, Note_on_c, 0, 73, 0
1, 142080, Note_on_c, 0, 71, 80
1, 142319, Note_on_c, 0, 71, 0
1, 142320, Note_on_c, 0, 76, 80
1, 142559, Note_on_c, 0, 76, 0
1, 142560, Note_on_c, 0, 69, 80
1, 143039, Note_on_c, 0, 69, 0
1, 143040, Note_on_c, 0, 68, 80
1, 143279, Note_on_c, 0, 68, 0
1, 143280, Note_on_c, 0, 69, 80
1, 143519, Note_on_c, 0, 69, 0
1, 143520, Note_on_c, 0, 71, 80
1, 143639, Note_on_c, 0, 71, 0
1, 143640, Note_on_c, 0, 69, 80
1, 143759, Note_on_c, 0, 69, 0
1, 143760, Note_on_c, 0, 71, 80
1, 143999, Note_on_c, 0, 71, 0
1, 144000, Note_on_c, 0, 64, 80
1, 144239, Note_on_c, 0, 64, 0
1, 144240, Note_on_c, 0, 76, 80
1, 144599, Note_on_c, 0, 76, 0
1, 144600, Note_on_c, 0, 75, 80
1, 144719, Note_on_c, 0, 75, 0
1, 144720, Note_on_c, 0, 73, 80
1, 144839, Note_on_c, 0, 73, 0
1, 144840, Note_on_c, 0, 76, 80
1, 144959, Note_on_c, 0, 76, 0
1, 144960, Note_on_c, 0, 75, 80
1, 145199, Note_on_c, 0, 75, 0
1, 145200, Note_on_c, 0, 80, 80
1, 145319, Note_on_c, 0, 80, 0
1, 145320, Note_on_c, 0, 79, 80
1, 145439, Note_on_c, 0, 79, 0
1, 145440, Note_on_c, 0, 80, 80
1, 145679, Note_on_c, 0, 80, 0
1, 145680, Note_on_c, 0, 74, 80
1, 145919, Note_on_c, 0, 74, 0
1, 145920, Note_on_c, 0, 75, 80
1, 146159, Note_on_c, 0, 75, 0
1, 146160, Note_on_c, 0, 78, 80
1, 146399, Note_on_c, 0, 78, 0
1, 146400, Note_on_c, 0, 72, 80
1, 146639, Note_on_c, 0, 72, 0
1, 146640, Note_on_c, 0, 73, 80
1, 146879, Note_on_c, 0, 73, 0
1, 147120, Note_on_c, 0, 75, 80
1, 147359, Note_on_c, 0, 75, 0
1, 147360, Note_on_c, 0, 76, 80
1, 147599, Note_on_c, 0, 76, 0
1, 147600, Note_on_c, 0, 78, 80
1, 147839, Note_on_c, 0, 78, 0
1, 148080, Note_on_c, 0, 80, 80
1, 148319, Note_on_c, 0, 80, 0
1, 148320, Note_on_c, 0, 78, 80
1, 148559, Note_on_c, 0, 78, 0
1, 148560, Note_on_c, 0, 76, 80
1, 148799, Note_on_c, 0, 76, 0
1, 149040, Note_on_c, 0, 75, 80
1, 149159, Note_on_c, 0, 75, 0
1, 149160, Note_on_c, 0, 73, 80
1, 149279, Note_on_c, 0, 73, 0
1, 149280, Note_on_c, 0, 75, 80
1, 149519, Note_on_c, 0, 75, 0
1, 149520, Note_on_c, 0, 77, 80
1, 149759, Note_on_c, 0, 77, 0
1, 149760, Note_on_c, 0, 78, 80
1, 149879, Note_on_c, 0, 78, 0
1, 149880, Note_on_c, 0, 73, 80
1, 149999, Note_on_c, 0, 73, 0
1, 150000, Note_on_c, 0, 75, 80
1, 150119, Note_on_c, 0, 75, 0
1, 150120, Note_on_c, 0, 77, 80
1, 150239, Note_on_c, 0, 77, 0
1, 150240, Note_on_c, 0, 78, 80
1, 150359, Note_on_c, 0, 78, 0
1, 150360, Note_on_c, 0, 77, 80
1, 150479, Note_on_c, 0, 77, 0
1, 150480, Note_on_c, 0, 80, 80
1, 150599, Note_on_c, 0, 80, 0
1, 150600, Note_on_c, 0, 78, 80
1, 150719, Note_on_c, 0, 78, 0
1, 150720, Note_on_c, 0, 81, 80
1, 150839, Note_on_c, 0, 81, 0
1, 150840, Note_on_c, 0, 80, 80
1, 150959, Note_on_c, 0, 80, 0
1, 150960, Note_on_c, 0, 78, 80
1, 151079, Note_on_c, 0, 78, 0
1, 151080, Note_on_c, 0, 76, 80
1, 151199, Note_on_c, 0, 76, 0
1, 151200, Note_on_c, 0, 74, 80
1, 151319, Note_on_c, 0, 74, 0
1, 151320, Note_on_c, 0, 73, 80
1, 151439, Note_on_c, 0, 73, 0
1, 151440, Note_on_c, 0, 74, 80
1, 151559, Note_on_c, 0, 74, 0
1, 151560, Note_on_c, 0, 74, 80
1, 151679, Note_on_c, 0, 74, 0
1, 151680, Note_on_c, 0, 74, 80
1, 151799, Note_on_c, 0, 74, 0
1, 151800, Note_on_c, 0, 72, 80
1, 151919, Note_on_c, 0, 72, 0
1, 151920, Note_on_c, 0, 73, 80
1, 152039, Note_on_c, 0, 73, 0
1, 152040, Note_on_c, 0, 73, 80
1, 152159, Note_on_c, 0, 73, 0
1, 152160, Note_on_c, 0, 73, 80
1, 152279, Note_on_c, 0, 73, 0
1, 152280, Note_on_c, 0, 70, 80
1, 152399, Note_on_c, 0, 70, 0
1, 152400, Note_on_c, 0, 71, 80
1, 152519, Note_on_c, 0, 71, 0
1, 152520, Note_on_c, 0, 71, 80
1, 152639, Note_on_c, 0, 71, 0
1, 152640, Note_on_c, 0, 71, 80
1, 152759, Note_on_c, 0, 71, 0
1, 152760, Note_on_c, 0, 68, 80
1, 152879, Note_on_c, 0, 68, 0
1, 152880, Note_on_c, 0, 69, 80
1, 152999, Note_on_c, 0, 69, 0
1, 153000, Note_on_c, 0, 69, 80
1, 153119, Note_on_c, 0, 69, 0
1, 153120, Note_on_c, 0, 69, 80
1, 153239, Note_on_c, 0, 69, 0
1, 153240, Note_on_c, 0, 68, 80
1, 153359, Note_on_c, 0, 68, 0
1, 153360, Note_on_c, 0, 66, 80
1, 153479, Note_on_c, 0, 66, 0
1, 153480, Note_on_c, 0, 65, 80
1, 153599, Note_on_c, 0, 65, 0
1, 153600, Note_on_c, 0, 66, 80
1, 153719, Note_on_c, 0, 66, 0
1, 153720, Note_on_c, 0, 69, 80
1, 153839, Note_on_c, 0, 69, 0
1, 153840, Note_on_c, 0, 68, 80
1, 153959, Note_on_c, 0, 68, 0
1, 153960, Note_on_c, 0, 66, 80
1, 154079, Note_on_c, 0, 66, 0
1, 154080, Note_on_c, 0, 65, 80
1, 154199, Note_on_c, 0, 65, 0
1, 154200, Note_on_c, 0, 66, 80
1, 154319, Note_on_c, 0, 66, 0
1, 154320, Note_on_c, 0, 63, 80
1, 154439, Note_on_c, 0, 63, 0
1, 154440, Note_on_c, 0, 65, 80
1, 154559, Note_on_c, 0, 65, 0
1, 154560, Note_on_c, 0, 66, 80
1, 154679, Note_on_c, 0, 66, 0
1, 154680, Note_on_c, 0, 61, 80
1, 154799, Note_on_c, 0, 61, 0
1, 154800, Note_on_c, 0, 66, 80
1, 155159, Note_on_c, 0, 66, 0
1, 155160, Note_on_c, 0, 69, 80
1, 155279, Note_on_c, 0, 69, 0
1, 155280, Note_on_c, 0, 68, 80
1, 155399, Note_on_c, 0, 68, 0
1, 155400, Note_on_c, 0, 71, 80
1, 155519, Note_on_c, 0, 71, 0
1, 155520, Note_on_c, 0, 69, 80
1, 156719, Note_on_c, 0, 69, 0
1, 156720, Note_on_c, 0, 68, 80
1, 156839, Note_on_c, 0, 68, 0
1, 156840, Note_on_c, 0, 66, 80
1, 156959, Note_on_c, 0, 66, 0
1, 156960, Note_on_c, 0, 68, 80
1, 157199, Note_on_c, 0, 68, 0
1, 157200, Note_on_c, 0, 73, 80
1, 157559, Note_on_c, 0, 73, 0
1, 157560, Note_on_c, 0, 71, 80
1, 157679, Note_on_c, 0, 71, 0
1, 157680, Note_on_c, 0, 70, 80
1, 157799, Note_on_c, 0, 70, 0
1, 157800, Note_on_c, 0, 73, 80
1, 157919, Note_on_c, 0, 73, 0
1, 157920, Note_on_c, 0, 72, 80
1, 158039, Note_on_c, 0, 72, 0
1, 158040, Note_on_c, 0, 73, 80
1, 158159, Note_on_c, 0, 73, 0
1, 158160, Note_on_c, 0, 75, 80
1, 158519, Note_on_c, 0, 75, 0
1, 158520, Note_on_c, 0, 73, 80
1, 158639, Note_on_c, 0, 73, 0
1, 158640, Note_on_c, 0, 72, 80
1, 158759, Note_on_c, 0, 72, 0
1, 158760, Note_on_c, 0, 75, 80
1, 158879, Note_on_c, 0, 75, 0
1, 158880, Note_on_c, 0, 73, 80
1, 158999, Note_on_c, 0, 73, 0
1, 159000, Note_on_c, 0, 75, 80
1, 159119, Note_on_c, 0, 75, 0
1, 159120, Note_on_c, 0, 76, 80
1, 159479, Note_on_c, 0, 76, 0
1, 159480, Note_on_c, 0, 75, 80
1, 159599, Note_on_c, 0, 75, 0
1, 159600, Note_on_c, 0, 73, 80
1, 159719, Note_on_c, 0, 73, 0
1, 159720, Note_on_c, 0, 76, 80
1, 159839, Note_on_c, 0, 76, 0
1, 159840, Note_on_c, 0, 75, 80
1, 159959, Note_on_c, 0, 75, 0
1, 159960, Note_on_c, 0, 73, 80
1, 160079, Note_on_c, 0, 73, 0
1, 160080, Note_on_c, 0, 72, 80
1, 160199, Note_on_c, 0, 72, 0
1, 160200, Note_on_c, 0, 70, 80
1, 160319, Note_on_c, 0, 70, 0
1, 160320, Note_on_c, 0, 72, 80
1, 160559, Note_on_c, 0, 72, 0
1, 160560, Note_on_c, 0, 76, 80
1, 160799, Note_on_c, 0, 76, 0
1, 160800, Note_on_c, 0, 70, 80
1, 160919, Note_on_c, 0, 70, 0
1, 160920, Note_on_c, 0, 73, 80
1, 161039, Note_on_c, 0, 73, 0
1, 161040, Note_on_c, 0, 72, 80
1, 161159, Note_on_c, 0, 72, 0
1, 161160, Note_on_c, 0, 75, 80
1, 161279, Note_on_c, 0, 75, 0
1, 161280, Note_on_c, 0, 68, 80
1, 161519, Note_on_c, 0, 68, 0
1, 161520, Note_on_c, 0, 80, 80
1, 161639, Note_on_c, 0, 80, 0
1, 161640, Note_on_c, 0, 80, 80
1, 161759, Note_on_c, 0, 80, 0
1, 161760, Note_on_c, 0, 80, 80
1, 161879, Note_on_c, 0, 80, 0
1, 161880, Note_on_c, 0, 77, 80
1, 161999, Note_on_c, 0, 77, 0
1, 162000, Note_on_c, 0, 78, 80
1, 162119, Note_on_c, 0, 78, 0
1, 162120, Note_on_c, 0, 78, 80
1, 162239, Note_on_c, 0, 78, 0
1, 162240, Note_on_c, 0, 78, 80
1, 162359, Note_on_c, 0, 78, 0
1, 162360, Note_on_c, 0, 75, 80
1, 162479, Note_on_c, 0, 75, 0
1, 162480, Note_on_c, 0, 76, 80
1, 162599, Note_on_c, 0, 76, 0
1, 162600, Note_on_c, 0, 76, 80
1, 162719, Note_on_c, 0, 76, 0
1, 162720, Note_on_c, 0, 76, 80
1, 162839, Note_on_c, 0, 76, 0
1, 162840, Note_on_c, 0, 73, 80
1, 162959, Note_on_c, 0, 73, 0
1, 162960, Note_on_c, 0, 75, 80
1, 163079, Note_on_c, 0, 75, 0
1, 163080, Note_on_c, 0, 75, 80
1, 163199, Note_on_c, 0, 75, 0
1, 163200, Note_on_c, 0, 75, 80
1, 163439, Note_on_c, 0, 75, 0
1, 163440, Note_on_c, 0, 68, 80
1, 163679, Note_on_c, 0, 68, 0
1, 163680, Note_on_c, 0, 61, 80
1, 163919, Note_on_c, 0, 61, 0
1, 163920, Note_on_c, 0, 63, 80
1, 164159, Note_on_c, 0, 63, 0
1, 164400, Note_on_c, 0, 64, 80
1, 164639, Note_on_c, 0, 64, 0
1, 164640, Note_on_c, 0, 66, 80
1, 164879, Note_on_c, 0, 66, 0
1, 164880, Note_on_c, 0, 68, 80
1, 165119, Note_on_c, 0, 68, 0
1, 165360, Note_on_c, 0, 69, 80
1, 165599, Note_on_c, 0, 69, 0
1, 165600, Note_on_c, 0, 68, 80
1, 165839, Note_on_c, 0, 68, 0
1, 165840, Note_on_c, 0, 66, 80
1, 166079, Note_on_c, 0, 66, 0
1, 166320, Note_on_c, 0, 64, 80
1, 166439, Note_on_c, 0, 64, 0
1, 166440, Note_on_c, 0, 63, 80
1, 166559, Note_on_c, 0, 63, 0
1, 166560, Note_on_c, 0, 64, 80
1, 166799, Note_on_c, 0, 64, 0
1, 166800, Note_on_c, 0, 66, 80
1, 167039, Note_on_c, 0, 66, 0
1, 167040, Note_on_c, 0, 68, 80
1, 167159, Note_on_c, 0, 68, 0
1, 167160, Note_on_c, 0, 66, 80
1, 167279, Note_on_c, 0, 66, 0
1, 167280, Note_on_c, 0, 65, 80
1, 167399, Note_on_c, 0, 65, 0
1, 167400, Note_on_c, 0, 68, 80
1, 167519, Note_on_c, 0, 68, 0
1, 167520, Note_on_c, 0, 61, 80
1, 167759, Note_on_c, 0, 61, 0
1, 167760, Note_on_c, 0, 73, 80
1, 168119, Note_on_c, 0, 73, 0
1, 168120, Note_on_c, 0, 71, 80
1, 168239, Note_on_c, 0, 71, 0
1, 168240, Note_on_c, 0, 69, 80
1, 168359, Note_on_c, 0, 69, 0
1, 168360, Note_on_c, 0, 73, 80
1, 168479, Note_on_c, 0, 73, 0
1, 168480, Note_on_c, 0, 66, 80
1, 168719, Note_on_c, 0, 66, 0
1, 168720, Note_on_c, 0, 71, 80
1, 169079, Note_on_c, 0, 71, 0
1, 169080, Note_on_c, 0, 69, 80
1, 169199, Note_on_c, 0, 69, 0
1, 169200, Note_on_c, 0, 68, 80
1, 169319, Note_on_c, 0, 68, 0
1, 169320, Note_on_c, 0, 71, 80
1, 169439, Note_on_c, 0, 71, 0
1, 169440, Note_on_c, 0, 69, 80
1, 169679, Note_on_c, 0, 69, 0
1, 169680, Note_on_c, 0, 69, 80
1, 169979, Note_on_c, 0, 69, 0
1, 169980, Note_on_c, 0, 71, 80
1, 170039, Note_on_c, 0, 71, 0
1, 170040, Note_on_c, 0, 69, 80
1, 170099, Note_on_c, 0, 69, 0
1, 170100, Note_on_c, 0, 68, 80
1, 170159, Note_on_c, 0, 68, 0
1, 170160, Note_on_c, 0, 66, 80
1, 170219, Note_on_c, 0, 66, 0
1, 170220, Note_on_c, 0, 68, 80
1, 170279, Note_on_c, 0, 68, 0
1, 170280, Note_on_c, 0, 69, 80
1, 170339, Note_on_c, 0, 69, 0
1, 170340, Note_on_c, 0, 71, 80
1, 170399, Note_on_c, 0, 71, 0
1, 170400, Note_on_c, 0, 74, 80
1, 170459, Note_on_c, 0, 74, 0
1, 170460, Note_on_c, 0, 76, 80
1, 170519, Note_on_c, 0, 76, 0
1, 170520, Note_on_c, 0, 74, 80
1, 170579, Note_on_c, 0, 74, 0
1, 170580, Note_on_c, 0, 73, 80
1, 170639, Note_on_c, 0, 73, 0
1, 170640, Note_on_c, 0, 72, 80
1, 170699, Note_on_c, 0, 72, 0
1, 170700, Note_on_c, 0, 73, 80
1, 170759, Note_on_c, 0, 73, 0
1, 170760, Note_on_c, 0, 75, 80
1, 170819, Note_on_c, 0, 75, 0
1, 170820, Note_on_c, 0, 76, 80
1, 170879, Note_on_c, 0, 76, 0
1, 170880, Note_on_c, 0, 78, 80
1, 170939, Note_on_c, 0, 78, 0
1, 170940, Note_on_c, 0, 80, 80
1, 170999, Note_on_c, 0, 80, 0
1, 171000, Note_on_c, 0, 78, 80
1, 171059, Note_on_c, 0, 78, 0
1, 171060, Note_on_c, 0, 76, 80
1, 171119, Note_on_c, 0, 76, 0
1, 171120, Note_on_c, 0, 75, 80
1, 171179, Note_on_c, 0, 75, 0
1, 171180, Note_on_c, 0, 76, 80
1, 171239, Note_on_c, 0, 76, 0
1, 171240, Note_on_c, 0, 78, 80
1, 171299, Note_on_c, 0, 78, 0
1, 171300, Note_on_c, 0, 80, 80
1, 171359, Note_on_c, 0, 80, 0
1, 171360, Note_on_c, 0, 81, 80
1, 171479, Note_on_c, 0, 81, 0
1, 171480, Note_on_c, 0, 80, 80
1, 171539, Note_on_c, 0, 80, 0
1, 171540, Note_on_c, 0, 78, 80
1, 171599, Note_on_c, 0, 78, 0
1, 171600, Note_on_c, 0, 76, 80
1, 171659, Note_on_c, 0, 76, 0
1, 171660, Note_on_c, 0, 75, 80
1, 171719, Note_on_c, 0, 75, 0
1, 171720, Note_on_c, 0, 73, 80
1, 171779, Note_on_c, 0, 73, 0
1, 171780, Note_on_c, 0, 72, 80
1, 171839, Note_on_c, 0, 72, 0
1, 171840, Note_on_c, 0, 73, 80
1, 172559, Note_on_c, 0, 73, 0
1, 172560, Note_on_c, 0, 72, 80
1, 172799, Note_on_c, 0, 72, 0
1, 172800, Note_on_c, 0, 73, 80
1, 173039, Note_on_c, 0, 73, 0
1, 173040, Note_on_c, 0, 71, 80
1, 173279, Note_on_c, 0, 71, 0
1, 173280, Note_on_c, 0, 69, 80
1, 173399, Note_on_c, 0, 69, 0
1, 173400, Note_on_c, 0, 78, 80
1, 173519, Note_on_c, 0, 78, 0
1, 173520, Note_on_c, 0, 78, 80
1, 173639, Note_on_c, 0, 78, 0
1, 173640, Note_on_c, 0, 77, 80
1, 173759, Note_on_c, 0, 77, 0
1, 173760, Note_on_c, 0, 77, 80
1, 173999, Note_on_c, 0, 77, 0
1, 174000, Note_on_c, 0, 80, 80
1, 174239, Note_on_c, 0, 80, 0
1, 174240, Note_on_c, 0, 80, 80
1, 174479, Note_on_c, 0, 80, 0
1, 174480, Note_on_c, 0, 78, 80
1, 174719, Note_on_c, 0, 78, 0
1, 174720, Note_on_c, 0, 72, 80
1, 174959, Note_on_c, 0, 72, 0
1, 174960, Note_on_c, 0, 76, 80
1, 175199, Note_on_c, 0, 76, 0
1, 175200, Note_on_c, 0, 70, 80
1, 175439, Note_on_c, 0, 70, 0
1, 175440, Note_on_c, 0, 69, 80
1, 175679, Note_on_c, 0, 69, 0
1, 175680, Note_on_c, 0, 68, 80
1, 175919, Note_on_c, 0, 68, 0
1, 175920, Note_on_c, 0, 73, 80
1, 176159, Note_on_c, 0, 73, 0
1, 176160, Note_on_c, 0, 66, 80
1, 176639, Note_on_c, 0, 66, 0
1, 176640, Note_on_c, 0, 64, 80
1, 176879, Note_on_c, 0, 64, 0
1, 176880, Note_on_c, 0, 66, 80
1, 177119, Note_on_c, 0, 66, 0
1, 177120, Note_on_c, 0, 68, 80
1, 177239, Note_on_c, 0, 68, 0
1, 177240, Note_on_c, 0, 66, 80
1, 177359, Note_on_c, 0, 66, 0
1, 177360, Note_on_c, 0, 68, 80
1, 177599, Note_on_c, 0, 68, 0
1, 177600, Note_on_c, 0, 61, 80
1, 178619, Note_on_c, 0, 61, 0
1, 178620, Note_on_c, 0, 58, 80
1, 178679, Note_on_c, 0, 58, 0
1, 178680, Note_on_c, 0, 60, 80
1, 178739, Note_on_c, 0, 60, 0
1, 178740, Note_on_c, 0, 61, 80
1, 178799, Note_on_c, 0, 61, 0
1, 178800, Note_on_c, 0, 63, 80
1, 178859, Note_on_c, 0, 63, 0
1, 178860, Note_on_c, 0, 64, 80
1, 178919, Note_on_c, 0, 64, 0
1, 178920, Note_on_c, 0, 66, 80
1, 178979, Note_on_c, 0, 66, 0
1, 178980, Note_on_c, 0, 63, 80
1, 179039, Note_on_c, 0, 63, 0
1, 179040, Note_on_c, 0, 61, 80
1, 179099, Note_on_c, 0, 61, 0
1, 179100, Note_on_c, 0, 60, 80
1, 179159, Note_on_c, 0, 60, 0
1, 179160, Note_on_c, 0, 61, 80
1, 179219, Note_on_c, 0, 61, 0
1, 179220, Note_on_c, 0, 60, 80
1, 179279, Note_on_c, 0, 60, 0
1, 179280, Note_on_c, 0, 61, 80
1, 179339, Note_on_c, 0, 61, 0
1, 179340, Note_on_c, 0, 60, 80
1, 179399, Note_on_c, 0, 60, 0
1, 179400, Note_on_c, 0, 61, 80
1, 179519, Note_on_c, 0, 61, 0
1, 179520, Note_on_c, 0, 61, 80
1, 179999, Note_on_c, 0, 61, 0
1, 180000, End_track
2, 0, Start_track
2, 0, Key_signature, 4, "major"
2, 0, Program_c, 1, 46
2, 2, Control_c, 1, 7, 100
2, 4, Control_c, 1, 10, 64
2, 6, Control_c, 1, 91, 30
2, 8, Control_c, 1, 93, 30
2, 480, Note_on_c, 1, 61, 80
2, 959, Note_on_c, 1, 61, 0
2, 960, Note_on_c, 1, 59, 80
2, 1199, Note_on_c, 1, 59, 0
2, 1200, Note_on_c, 1, 64, 80
2, 1439, Note_on_c, 1, 64, 0
2, 1440, Note_on_c, 1, 58, 80
2, 1679, Note_on_c, 1, 58, 0
2, 1680, Note_on_c, 1, 57, 80
2, 1919, Note_on_c, 1, 57, 0
2, 1920, Note_on_c, 1, 56, 80
2, 2159, Note_on_c, 1, 56, 0
2, 2160, Note_on_c, 1, 61, 80
2, 2399, Note_on_c, 1, 61, 0
2, 2400, Note_on_c, 1, 54, 80
2, 2459, Note_on_c, 1, 54, 0
2, 2460, Note_on_c, 1, 52, 80
2, 2519, Note_on_c, 1, 52, 0
2, 2520, Note_on_c, 1, 54, 80
2, 2879, Note_on_c, 1, 54, 0
2, 2880, Note_on_c, 1, 52, 80
2, 3119, Note_on_c, 1, 52, 0
2, 3120, Note_on_c, 1, 54, 80
2, 3359, Note_on_c, 1, 54, 0
2, 3360, Note_on_c, 1, 56, 80
2, 3479, Note_on_c, 1, 56, 0
2, 3480, Note_on_c, 1, 54, 80
2, 3599, Note_on_c, 1, 54, 0
2, 3600, Note_on_c, 1, 56, 80
2, 3839, Note_on_c, 1, 56, 0
2, 3840, Note_on_c, 1, 49, 80
2, 4079, Note_on_c, 1, 49, 0
2, 4080, Note_on_c, 1, 61, 80
2, 4319, Note_on_c, 1, 61, 0
2, 4320, Note_on_c, 1, 59, 80
2, 4559, Note_on_c, 1, 59, 0
2, 4560, Note_on_c, 1, 58, 80
2, 4799, Note_on_c, 1, 58, 0
2, 4800, Note_on_c, 1, 59, 80
2, 5039, Note_on_c, 1, 59, 0
2, 5040, Note_on_c, 1, 64, 80
2, 5279, Note_on_c, 1, 64, 0
2, 5280, Note_on_c, 1, 63, 80
2, 5519, Note_on_c, 1, 63, 0
2, 5520, Note_on_c, 1, 61, 80
2, 5759, Note_on_c, 1, 61, 0
2, 5760, Note_on_c, 1, 63, 80
2, 6239, Note_on_c, 1, 63, 0
2, 6360, Note_on_c, 1, 61, 80
2, 6479, Note_on_c, 1, 61, 0
2, 6480, Note_on_c, 1, 59, 80
2, 6599, Note_on_c, 1, 59, 0
2, 6600, Note_on_c, 1, 58, 80
2, 6719, Note_on_c, 1, 58, 0
2, 6720, Note_on_c, 1, 59, 80
2, 7199, Note_on_c, 1, 59, 0
2, 7320, Note_on_c, 1, 58, 80
2, 7439, Note_on_c, 1, 58, 0
2, 7440, Note_on_c, 1, 56, 80
2, 7559, Note_on_c, 1, 56, 0
2, 7560, Note_on_c, 1, 55, 80
2, 7679, Note_on_c, 1, 55, 0
2, 7680, Note_on_c, 1, 56, 80
2, 7799, Note_on_c, 1, 56, 0
2, 7800, Note_on_c, 1, 59, 80
2, 7919, Note_on_c, 1, 59, 0
2, 7920, Note_on_c, 1, 58, 80
2, 8039, Note_on_c, 1, 58, 0
2, 8040, Note_on_c, 1, 61, 80
2, 8159, Note_on_c, 1, 61, 0
2, 8160, Note_on_c, 1, 55, 80
2, 8279, Note_on_c, 1, 55, 0
2, 8280, Note_on_c, 1, 64, 80
2, 8399, Note_on_c, 1, 64, 0
2, 8400, Note_on_c, 1, 63, 80
2, 8519, Note_on_c, 1, 63, 0
2, 8520, Note_on_c, 1, 61, 80
2, 8639, Note_on_c, 1, 61, 0
2, 8640, Note_on_c, 1, 59, 80
2, 8759, Note_on_c, 1, 59, 0
2, 8760, Note_on_c, 1, 58, 80
2, 8879, Note_on_c, 1, 58, 0
2, 8880, Note_on_c, 1, 59, 80
2, 8999, Note_on_c, 1, 59, 0
2, 9000, Note_on_c, 1, 63, 80
2, 9119, Note_on_c, 1, 63, 0
2, 9120, Note_on_c, 1, 68, 80
2, 9239, Note_on_c, 1, 68, 0
2, 9240, Note_on_c, 1, 61, 80
2, 9359, Note_on_c, 1, 61, 0
2, 9360, Note_on_c, 1, 60, 80
2, 9479, Note_on_c, 1, 60, 0
2, 9480, Note_on_c, 1, 63, 80
2, 9599, Note_on_c, 1, 63, 0
2, 9600, Note_on_c, 1, 61, 80
2, 9719, Note_on_c, 1, 61, 0
2, 9720, Note_on_c, 1, 64, 80
2, 9839, Note_on_c, 1, 64, 0
2, 9840, Note_on_c, 1, 63, 80
2, 9959, Note_on_c, 1, 63, 0
2, 9960, Note_on_c, 1, 66, 80
2, 10079, Note_on_c, 1, 66, 0
2, 10080, Note_on_c, 1, 64, 80
2, 10199, Note_on_c, 1, 64, 0
2, 10200, Note_on_c, 1, 59, 80
2, 10319, Note_on_c, 1, 59, 0
2, 10320, Note_on_c, 1, 58, 80
2, 10439, Note_on_c, 1, 58, 0
2, 10440, Note_on_c, 1, 64, 80
2, 10559, Note_on_c, 1, 64, 0
2, 10560, Note_on_c, 1, 63, 80
2, 10799, Note_on_c, 1, 63, 0
2, 10800, Note_on_c, 1, 59, 80
2, 11039, Note_on_c, 1, 59, 0
2, 11040, Note_on_c, 1, 61, 80
2, 11279, Note_on_c, 1, 61, 0
2, 11280, Note_on_c, 1, 66, 80
2, 11519, Note_on_c, 1, 66, 0
2, 11520, Note_on_c, 1, 59, 80
2, 11759, Note_on_c, 1, 59, 0
2, 11760, Note_on_c, 1, 56, 80
2, 11999, Note_on_c, 1, 56, 0
2, 12000, Note_on_c, 1, 58, 80
2, 12239, Note_on_c, 1, 58, 0
2, 12240, Note_on_c, 1, 63, 80
2, 12479, Note_on_c, 1, 63, 0
2, 12480, Note_on_c, 1, 56, 80
2, 12599, Note_on_c, 1, 56, 0
2, 12600, Note_on_c, 1, 59, 80
2, 12719, Note_on_c, 1, 59, 0
2, 12720, Note_on_c, 1, 57, 80
2, 12839, Note_on_c, 1, 57, 0
2, 12840, Note_on_c, 1, 61, 80
2, 12959, Note_on_c, 1, 61, 0
2, 12960, Note_on_c, 1, 59, 80
2, 13559, Note_on_c, 1, 59, 0
2, 13560, Note_on_c, 1, 57, 80
2, 13679, Note_on_c, 1, 57, 0
2, 13680, Note_on_c, 1, 56, 80
2, 13799, Note_on_c, 1, 56, 0
2, 13800, Note_on_c, 1, 54, 80
2, 13919, Note_on_c, 1, 54, 0
2, 13920, Note_on_c, 1, 56, 80
2, 14039, Note_on_c, 1, 56, 0
2, 14040, Note_on_c, 1, 52, 80
2, 14159, Note_on_c, 1, 52, 0
2, 14160, Note_on_c, 1, 54, 80
2, 14279, Note_on_c, 1, 54, 0
2, 14280, Note_on_c, 1, 51, 80
2, 14399, Note_on_c, 1, 51, 0
2, 14400, Note_on_c, 1, 52, 80
2, 14519, Note_on_c, 1, 52, 0
2, 14520, Note_on_c, 1, 71, 80
2, 14639, Note_on_c, 1, 71, 0
2, 14640, Note_on_c, 1, 69, 80
2, 14759, Note_on_c, 1, 69, 0
2, 14760, Note_on_c, 1, 68, 80
2, 14879, Note_on_c, 1, 68, 0
2, 14880, Note_on_c, 1, 69, 80
2, 14999, Note_on_c, 1, 69, 0
2, 15000, Note_on_c, 1, 66, 80
2, 15119, Note_on_c, 1, 66, 0
2, 15120, Note_on_c, 1, 68, 80
2, 15239, Note_on_c, 1, 68, 0
2, 15240, Note_on_c, 1, 64, 80
2, 15359, Note_on_c, 1, 64, 0
2, 15360, Note_on_c, 1, 63, 80
2, 15599, Note_on_c, 1, 63, 0
2, 15600, Note_on_c, 1, 69, 80
2, 15839, Note_on_c, 1, 69, 0
2, 15840, Note_on_c, 1, 68, 80
2, 16079, Note_on_c, 1, 68, 0
2, 16080, Note_on_c, 1, 66, 80
2, 16319, Note_on_c, 1, 66, 0
2, 16320, Note_on_c, 1, 64, 80
2, 16559, Note_on_c, 1, 64, 0
2, 16560, Note_on_c, 1, 51, 80
2, 16799, Note_on_c, 1, 51, 0
2, 16800, Note_on_c, 1, 53, 80
2, 17039, Note_on_c, 1, 53, 0
2, 17040, Note_on_c, 1, 54, 80
2, 17399, Note_on_c, 1, 54, 0
2, 17400, Note_on_c, 1, 66, 80
2, 17519, Note_on_c, 1, 66, 0
2, 17520, Note_on_c, 1, 64, 80
2, 17639, Note_on_c, 1, 64, 0
2, 17640, Note_on_c, 1, 63, 80
2, 17759, Note_on_c, 1, 63, 0
2, 17760, Note_on_c, 1, 64, 80
2, 17879, Note_on_c, 1, 64, 0
2, 17880, Note_on_c, 1, 61, 80
2, 17999, Note_on_c, 1, 61, 0
2, 18000, Note_on_c, 1, 63, 80
2, 18119, Note_on_c, 1, 63, 0
2, 18120, Note_on_c, 1, 60, 80
2, 18239, Note_on_c, 1, 60, 0
2, 18240, Note_on_c, 1, 61, 80
2, 19439, Note_on_c, 1, 61, 0
2, 19440, Note_on_c, 1, 60, 80
2, 19679, Note_on_c, 1, 60, 0
2, 19680, Note_on_c, 1, 68, 80
2, 20159, Note_on_c, 1, 68, 0
2, 20160, Note_on_c, 1, 66, 80
2, 20399, Note_on_c, 1, 66, 0
2, 20400, Note_on_c, 1, 71, 80
2, 20639, Note_on_c, 1, 71, 0
2, 20640, Note_on_c, 1, 65, 80
2, 20879, Note_on_c, 1, 65, 0
2, 20880, Note_on_c, 1, 64, 80
2, 21119, Note_on_c, 1, 64, 0
2, 21120, Note_on_c, 1, 63, 80
2, 21359, Note_on_c, 1, 63, 0
2, 21360, Note_on_c, 1, 68, 80
2, 21599, Note_on_c, 1, 68, 0
2, 21600, Note_on_c, 1, 61, 80
2, 22079, Note_on_c, 1, 61, 0
2, 22080, Note_on_c, 1, 59, 80
2, 22319, Note_on_c, 1, 59, 0
2, 22320, Note_on_c, 1, 61, 80
2, 22559, Note_on_c, 1, 61, 0
2, 22560, Note_on_c, 1, 63, 80
2, 22679, Note_on_c, 1, 63, 0
2, 22680, Note_on_c, 1, 61, 80
2, 22799, Note_on_c, 1, 61, 0
2, 22800, Note_on_c, 1, 63, 80
2, 23039, Note_on_c, 1, 63, 0
2, 23040, Note_on_c, 1, 56, 80
2, 23279, Note_on_c, 1, 56, 0
2, 23280, Note_on_c, 1, 53, 80
2, 23519, Note_on_c, 1, 53, 0
2, 23520, Note_on_c, 1, 54, 80
2, 23759, Note_on_c, 1, 54, 0
2, 23760, Note_on_c, 1, 56, 80
2, 24119, Note_on_c, 1, 56, 0
2, 24120, Note_on_c, 1, 68, 80
2, 24239, Note_on_c, 1, 68, 0
2, 24240, Note_on_c, 1, 66, 80
2, 24359, Note_on_c, 1, 66, 0
2, 24360, Note_on_c, 1, 65, 80
2, 24479, Note_on_c, 1, 65, 0
2, 24480, Note_on_c, 1, 66, 80
2, 24599, Note_on_c, 1, 66, 0
2, 24600, Note_on_c, 1, 63, 80
2, 24719, Note_on_c, 1, 63, 0
2, 24720, Note_on_c, 1, 64, 80
2, 24839, Note_on_c, 1, 64, 0
2, 24840, Note_on_c, 1, 61, 80
2, 24959, Note_on_c, 1, 61, 0
2, 24960, Note_on_c, 1, 63, 80
2, 25199, Note_on_c, 1, 63, 0
2, 25200, Note_on_c, 1, 64, 80
2, 25439, Note_on_c, 1, 64, 0
2, 25440, Note_on_c, 1, 66, 80
2, 25679, Note_on_c, 1, 66, 0
2, 25680, Note_on_c, 1, 63, 80
2, 25919, Note_on_c, 1, 63, 0
2, 25920, Note_on_c, 1, 64, 80
2, 26159, Note_on_c, 1, 64, 0
2, 26160, Note_on_c, 1, 68, 80
2, 26399, Note_on_c, 1, 68, 0
2, 26520, Note_on_c, 1, 58, 80
2, 26639, Note_on_c, 1, 58, 0
2, 26640, Note_on_c, 1, 60, 80
2, 26759, Note_on_c, 1, 60, 0
2, 26760, Note_on_c, 1, 63, 80
2, 26879, Note_on_c, 1, 63, 0
2, 26880, Note_on_c, 1, 56, 80
2, 27119, Note_on_c, 1, 56, 0
2, 27120, Note_on_c, 1, 64, 80
2, 27359, Note_on_c, 1, 64, 0
2, 27480, Note_on_c, 1, 54, 80
2, 27599, Note_on_c, 1, 54, 0
2, 27600, Note_on_c, 1, 56, 80
2, 27719, Note_on_c, 1, 56, 0
2, 27720, Note_on_c, 1, 59, 80
2, 27839, Note_on_c, 1, 59, 0
2, 27840, Note_on_c, 1, 52, 80
2, 28079, Note_on_c, 1, 52, 0
2, 28080, Note_on_c, 1, 61, 80
2, 28319, Note_on_c, 1, 61, 0
2, 28440, Note_on_c, 1, 51, 80
2, 28559, Note_on_c, 1, 51, 0
2, 28560, Note_on_c, 1, 53, 80
2, 28679, Note_on_c, 1, 53, 0
2, 28680, Note_on_c, 1, 54, 80
2, 28799, Note_on_c, 1, 54, 0
2, 28800, Note_on_c, 1, 49, 80
2, 29039, Note_on_c, 1, 49, 0
2, 29040, Note_on_c, 1, 53, 80
2, 29279, Note_on_c, 1, 53, 0
2, 29280, Note_on_c, 1, 54, 80
2, 29519, Note_on_c, 1, 54, 0
2, 29520, Note_on_c, 1, 56, 80
2, 29759, Note_on_c, 1, 56, 0
2, 29760, Note_on_c, 1, 57, 80
2, 29999, Note_on_c, 1, 57, 0
2, 30000, Note_on_c, 1, 56, 80
2, 30239, Note_on_c, 1, 56, 0
2, 30240, Note_on_c, 1, 57, 80
2, 30479, Note_on_c, 1, 57, 0
2, 30480, Note_on_c, 1, 59, 80
2, 30719, Note_on_c, 1, 59, 0
2, 30720, Note_on_c, 1, 61, 80
2, 30839, Note_on_c, 1, 61, 0
2, 30840, Note_on_c, 1, 64, 80
2, 30959, Note_on_c, 1, 64, 0
2, 30960, Note_on_c, 1, 63, 80
2, 31079, Note_on_c, 1, 63, 0
2, 31080, Note_on_c, 1, 61, 80
2, 31199, Note_on_c, 1, 61, 0
2, 31200, Note_on_c, 1, 60, 80
2, 31439, Note_on_c, 1, 60, 0
2, 31440, Note_on_c, 1, 61, 80
2, 31679, Note_on_c, 1, 61, 0
2, 31680, Note_on_c, 1, 63, 80
2, 31799, Note_on_c, 1, 63, 0
2, 31800, Note_on_c, 1, 61, 80
2, 31919, Note_on_c, 1, 61, 0
2, 31920, Note_on_c, 1, 60, 80
2, 32039, Note_on_c, 1, 60, 0
2, 32040, Note_on_c, 1, 58, 80
2, 32159, Note_on_c, 1, 58, 0
2, 32160, Note_on_c, 1, 60, 80
2, 32399, Note_on_c, 1, 60, 0
2, 32400, Note_on_c, 1, 63, 80
2, 32639, Note_on_c, 1, 63, 0
2, 32640, Note_on_c, 1, 68, 80
2, 32879, Note_on_c, 1, 68, 0
2, 32880, Note_on_c, 1, 48, 80
2, 33119, Note_on_c, 1, 48, 0
2, 33120, Note_on_c, 1, 49, 80
2, 33359, Note_on_c, 1, 49, 0
2, 33360, Note_on_c, 1, 57, 80
2, 33599, Note_on_c, 1, 57, 0
2, 33600, Note_on_c, 1, 51, 80
2, 33839, Note_on_c, 1, 51, 0
2, 33840, Note_on_c, 1, 56, 80
2, 34319, Note_on_c, 1, 56, 0
2, 34320, Note_on_c, 1, 54, 80
2, 34559, Note_on_c, 1, 54, 0
2, 34560, Note_on_c, 1, 47, 80
2, 34799, Note_on_c, 1, 47, 0
2, 34800, Note_on_c, 1, 52, 80
2, 35279, Note_on_c, 1, 52, 0
2, 35280, Note_on_c, 1, 51, 80
2, 35519, Note_on_c, 1, 51, 0
2, 35520, Note_on_c, 1, 56, 80
2, 35759, Note_on_c, 1, 56, 0
2, 36240, Note_on_c, 1, 54, 80
2, 36479, Note_on_c, 1, 54, 0
2, 36480, Note_on_c, 1, 54, 80
2, 36719, Note_on_c, 1, 54, 0
2, 36720, Note_on_c, 1, 52, 80
2, 37199, Note_on_c, 1, 52, 0
2, 37200, Note_on_c, 1, 69, 80
2, 37559, Note_on_c, 1, 69, 0
2, 37560, Note_on_c, 1, 67, 80
2, 37679, Note_on_c, 1, 67, 0
2, 37680, Note_on_c, 1, 68, 80
2, 37799, Note_on_c, 1, 68, 0
2, 37800, Note_on_c, 1, 68, 80
2, 37919, Note_on_c, 1, 68, 0
2, 37920, Note_on_c, 1, 68, 80
2, 38039, Note_on_c, 1, 68, 0
2, 38040, Note_on_c, 1, 65, 80
2, 38159, Note_on_c, 1, 65, 0
2, 38160, Note_on_c, 1, 66, 80
2, 38279, Note_on_c, 1, 66, 0
2, 38280, Note_on_c, 1, 66, 80
2, 38399, Note_on_c, 1, 66, 0
2, 38400, Note_on_c, 1, 68, 80
2, 38519, Note_on_c, 1, 68, 0
2, 38520, Note_on_c, 1, 63, 80
2, 38639, Note_on_c, 1, 63, 0
2, 38640, Note_on_c, 1, 64, 80
2, 38759, Note_on_c, 1, 64, 0
2, 38760, Note_on_c, 1, 64, 80
2, 38879, Note_on_c, 1, 64, 0
2, 38880, Note_on_c, 1, 64, 80
2, 38999, Note_on_c, 1, 64, 0
2, 39000, Note_on_c, 1, 63, 80
2, 39119, Note_on_c, 1, 63, 0
2, 39120, Note_on_c, 1, 61, 80
2, 39239, Note_on_c, 1, 61, 0
2, 39240, Note_on_c, 1, 60, 80
2, 39359, Note_on_c, 1, 60, 0
2, 39360, Note_on_c, 1, 61, 80
2, 40079, Note_on_c, 1, 61, 0
2, 40080, Note_on_c, 1, 59, 80
2, 40439, Note_on_c, 1, 59, 0
2, 40440, Note_on_c, 1, 59, 80
2, 40559, Note_on_c, 1, 59, 0
2, 40560, Note_on_c, 1, 57, 80
2, 40679, Note_on_c, 1, 57, 0
2, 40680, Note_on_c, 1, 56, 80
2, 40799, Note_on_c, 1, 56, 0
2, 40800, Note_on_c, 1, 57, 80
2, 40919, Note_on_c, 1, 57, 0
2, 40920, Note_on_c, 1, 61, 80
2, 41039, Note_on_c, 1, 61, 0
2, 41040, Note_on_c, 1, 59, 80
2, 41159, Note_on_c, 1, 59, 0
2, 41160, Note_on_c, 1, 58, 80
2, 41279, Note_on_c, 1, 58, 0
2, 41280, Note_on_c, 1, 56, 80
2, 41519, Note_on_c, 1, 56, 0
2, 41760, Note_on_c, 1, 66, 80
2, 42239, Note_on_c, 1, 66, 0
2, 42240, Note_on_c, 1, 64, 80
2, 42479, Note_on_c, 1, 64, 0
2, 42480, Note_on_c, 1, 61, 80
2, 42719, Note_on_c, 1, 61, 0
2, 42720, Note_on_c, 1, 62, 80
2, 43319, Note_on_c, 1, 62, 0
2, 43320, Note_on_c, 1, 61, 80
2, 43439, Note_on_c, 1, 61, 0
2, 43440, Note_on_c, 1, 59, 80
2, 43559, Note_on_c, 1, 59, 0
2, 43560, Note_on_c, 1, 57, 80
2, 43679, Note_on_c, 1, 57, 0
2, 43680, Note_on_c, 1, 56, 80
2, 43799, Note_on_c, 1, 56, 0
2, 43800, Note_on_c, 1, 57, 80
2, 43919, Note_on_c, 1, 57, 0
2, 43920, Note_on_c, 1, 54, 80
2, 44039, Note_on_c, 1, 54, 0
2, 44040, Note_on_c, 1, 56, 80
2, 44159, Note_on_c, 1, 56, 0
2, 44160, Note_on_c, 1, 58, 80
2, 44399, Note_on_c, 1, 58, 0
2, 44400, Note_on_c, 1, 59, 80
2, 44879, Note_on_c, 1, 59, 0
2, 44880, Note_on_c, 1, 57, 80
2, 45239, Note_on_c, 1, 57, 0
2, 45240, Note_on_c, 1, 56, 80
2, 45359, Note_on_c, 1, 56, 0
2, 45360, Note_on_c, 1, 54, 80
2, 45479, Note_on_c, 1, 54, 0
2, 45480, Note_on_c, 1, 52, 80
2, 45599, Note_on_c, 1, 52, 0
2, 45600, Note_on_c, 1, 51, 80
2, 45719, Note_on_c, 1, 51, 0
2, 45720, Note_on_c, 1, 52, 80
2, 45839, Note_on_c, 1, 52, 0
2, 45840, Note_on_c, 1, 49, 80
2, 45959, Note_on_c, 1, 49, 0
2, 45960, Note_on_c, 1, 51, 80
2, 46079, Note_on_c, 1, 51, 0
2, 46080, Note_on_c, 1, 52, 80
2, 46319, Note_on_c, 1, 52, 0
2, 46560, Note_on_c, 1, 68, 80
2, 46799, Note_on_c, 1, 68, 0
2, 47040, Note_on_c, 1, 66, 80
2, 47279, Note_on_c, 1, 66, 0
2, 47280, Note_on_c, 1, 71, 80
2, 47519, Note_on_c, 1, 71, 0
2, 47520, Note_on_c, 1, 65, 80
2, 47759, Note_on_c, 1, 65, 0
2, 47760, Note_on_c, 1, 64, 80
2, 47999, Note_on_c, 1, 64, 0
2, 48000, Note_on_c, 1, 63, 80
2, 48239, Note_on_c, 1, 63, 0
2, 48240, Note_on_c, 1, 68, 80
2, 48479, Note_on_c, 1, 68, 0
2, 48480, Note_on_c, 1, 61, 80
2, 48539, Note_on_c, 1, 61, 0
2, 48540, Note_on_c, 1, 59, 80
2, 48599, Note_on_c, 1, 59, 0
2, 48600, Note_on_c, 1, 61, 80
2, 48959, Note_on_c, 1, 61, 0
2, 48960, Note_on_c, 1, 59, 80
2, 49199, Note_on_c, 1, 59, 0
2, 49200, Note_on_c, 1, 61, 80
2, 49439, Note_on_c, 1, 61, 0
2, 49440, Note_on_c, 1, 63, 80
2, 49559, Note_on_c, 1, 63, 0
2, 49560, Note_on_c, 1, 61, 80
2, 49679, Note_on_c, 1, 61, 0
2, 49680, Note_on_c, 1, 63, 80
2, 49919, Note_on_c, 1, 63, 0
2, 49920, Note_on_c, 1, 56, 80
2, 50399, Note_on_c, 1, 56, 0
2, 50640, Note_on_c, 1, 54, 80
2, 50999, Note_on_c, 1, 54, 0
2, 51000, Note_on_c, 1, 52, 80
2, 51119, Note_on_c, 1, 52, 0
2, 51120, Note_on_c, 1, 54, 80
2, 51239, Note_on_c, 1, 54, 0
2, 51240, Note_on_c, 1, 56, 80
2, 51359, Note_on_c, 1, 56, 0
2, 51360, Note_on_c, 1, 57, 80
2, 51479, Note_on_c, 1, 57, 0
2, 51480, Note_on_c, 1, 56, 80
2, 51599, Note_on_c, 1, 56, 0
2, 51600, Note_on_c, 1, 59, 80
2, 51719, Note_on_c, 1, 59, 0
2, 51720, Note_on_c, 1, 57, 80
2, 51839, Note_on_c, 1, 57, 0
2, 51840, Note_on_c, 1, 56, 80
2, 52319, Note_on_c, 1, 56, 0
2, 52560, Note_on_c, 1, 61, 80
2, 52919, Note_on_c, 1, 61, 0
2, 52920, Note_on_c, 1, 54, 80
2, 53039, Note_on_c, 1, 54, 0
2, 53040, Note_on_c, 1, 56, 80
2, 53159, Note_on_c, 1, 56, 0
2, 53160, Note_on_c, 1, 57, 80
2, 53279, Note_on_c, 1, 57, 0
2, 53280, Note_on_c, 1, 59, 80
2, 53399, Note_on_c, 1, 59, 0
2, 53400, Note_on_c, 1, 57, 80
2, 53519, Note_on_c, 1, 57, 0
2, 53520, Note_on_c, 1, 61, 80
2, 53639, Note_on_c, 1, 61, 0
2, 53640, Note_on_c, 1, 59, 80
2, 53759, Note_on_c, 1, 59, 0
2, 53760, Note_on_c, 1, 57, 80
2, 54239, Note_on_c, 1, 57, 0
2, 54480, Note_on_c, 1, 63, 80
2, 54839, Note_on_c, 1, 63, 0
2, 54840, Note_on_c, 1, 60, 80
2, 54959, Note_on_c, 1, 60, 0
2, 54960, Note_on_c, 1, 61, 80
2, 55079, Note_on_c, 1, 61, 0
2, 55080, Note_on_c, 1, 63, 80
2, 55199, Note_on_c, 1, 63, 0
2, 55200, Note_on_c, 1, 64, 80
2, 55319, Note_on_c, 1, 64, 0
2, 55320, Note_on_c, 1, 63, 80
2, 55439, Note_on_c, 1, 63, 0
2, 55440, Note_on_c, 1, 66, 80
2, 55559, Note_on_c, 1, 66, 0
2, 55560, Note_on_c, 1, 64, 80
2, 55679, Note_on_c, 1, 64, 0
2, 55680, Note_on_c, 1, 63, 80
2, 56159, Note_on_c, 1, 63, 0
2, 56160, Note_on_c, 1, 61, 80
2, 56639, Note_on_c, 1, 61, 0
2, 56640, Note_on_c, 1, 59, 80
2, 56879, Note_on_c, 1, 59, 0
2, 56880, Note_on_c, 1, 64, 80
2, 57359, Note_on_c, 1, 64, 0
2, 57360, Note_on_c, 1, 63, 80
2, 57599, Note_on_c, 1, 63, 0
2, 57600, Note_on_c, 1, 64, 80
2, 58079, Note_on_c, 1, 64, 0
2, 58320, Note_on_c, 1, 73, 80
2, 58679, Note_on_c, 1, 73, 0
2, 58680, Note_on_c, 1, 70, 80
2, 58799, Note_on_c, 1, 70, 0
2, 58800, Note_on_c, 1, 71, 80
2, 58919, Note_on_c, 1, 71, 0
2, 58920, Note_on_c, 1, 71, 80
2, 59039, Note_on_c, 1, 71, 0
2, 59040, Note_on_c, 1, 71, 80
2, 59159, Note_on_c, 1, 71, 0
2, 59160, Note_on_c, 1, 68, 80
2, 59279, Note_on_c, 1, 68, 0
2, 59280, Note_on_c, 1, 69, 80
2, 59399, Note_on_c, 1, 69, 0
2, 59400, Note_on_c, 1, 69, 80
2, 59519, Note_on_c, 1, 69, 0
2, 59520, Note_on_c, 1, 69, 80
2, 59639, Note_on_c, 1, 69, 0
2, 59640, Note_on_c, 1, 67, 80
2, 59759, Note_on_c, 1, 67, 0
2, 59760, Note_on_c, 1, 68, 80
2, 59879, Note_on_c, 1, 68, 0
2, 59880, Note_on_c, 1, 68, 80
2, 59999, Note_on_c, 1, 68, 0
2, 60000, Note_on_c, 1, 68, 80
2, 60119, Note_on_c, 1, 68, 0
2, 60120, Note_on_c, 1, 66, 80
2, 60239, Note_on_c, 1, 66, 0
2, 60240, Note_on_c, 1, 64, 80
2, 60359, Note_on_c, 1, 64, 0
2, 60360, Note_on_c, 1, 63, 80
2, 60479, Note_on_c, 1, 63, 0
2, 60480, Note_on_c, 1, 64, 80
2, 61199, Note_on_c, 1, 64, 0
2, 61200, Note_on_c, 1, 62, 80
2, 61559, Note_on_c, 1, 62, 0
2, 61560, Note_on_c, 1, 61, 80
2, 61679, Note_on_c, 1, 61, 0
2, 61680, Note_on_c, 1, 63, 80
2, 61799, Note_on_c, 1, 63, 0
2, 61800, Note_on_c, 1, 64, 80
2, 61919, Note_on_c, 1, 64, 0
2, 61920, Note_on_c, 1, 66, 80
2, 62039, Note_on_c, 1, 66, 0
2, 62040, Note_on_c, 1, 64, 80
2, 62159, Note_on_c, 1, 64, 0
2, 62160, Note_on_c, 1, 66, 80
2, 62399, Note_on_c, 1, 66, 0
2, 62400, Note_on_c, 1, 59, 80
2, 62639, Note_on_c, 1, 59, 0
2, 62640, Note_on_c, 1, 61, 80
2, 62759, Note_on_c, 1, 61, 0
2, 62760, Note_on_c, 1, 63, 80
2, 62879, Note_on_c, 1, 63, 0
2, 62880, Note_on_c, 1, 64, 80
2, 62999, Note_on_c, 1, 64, 0
2, 63000, Note_on_c, 1, 63, 80
2, 63119, Note_on_c, 1, 63, 0
2, 63120, Note_on_c, 1, 64, 80
2, 63359, Note_on_c, 1, 64, 0
2, 63360, Note_on_c, 1, 63, 80
2, 63599, Note_on_c, 1, 63, 0
2, 64080, Note_on_c, 1, 61, 80
2, 64319, Note_on_c, 1, 61, 0
2, 64320, Note_on_c, 1, 59, 80
2, 64559, Note_on_c, 1, 59, 0
2, 64560, Note_on_c, 1, 68, 80
2, 64799, Note_on_c, 1, 68, 0
2, 64800, Note_on_c, 1, 69, 80
2, 65039, Note_on_c, 1, 69, 0
2, 65040, Note_on_c, 1, 57, 80
2, 65279, Note_on_c, 1, 57, 0
2, 65280, Note_on_c, 1, 56, 80
2, 65519, Note_on_c, 1, 56, 0
2, 65520, Note_on_c, 1, 64, 80
2, 65759, Note_on_c, 1, 64, 0
2, 65760, Note_on_c, 1, 66, 80
2, 65999, Note_on_c, 1, 66, 0
2, 66000, Note_on_c, 1, 57, 80
2, 66239, Note_on_c, 1, 57, 0
2, 66240, Note_on_c, 1, 52, 80
2, 66359, Note_on_c, 1, 52, 0
2, 66360, Note_on_c, 1, 64, 80
2, 66479, Note_on_c, 1, 64, 0
2, 66480, Note_on_c, 1, 62, 80
2, 66599, Note_on_c, 1, 62, 0
2, 66600, Note_on_c, 1, 61, 80
2, 66719, Note_on_c, 1, 61, 0
2, 66720, Note_on_c, 1, 59, 80
2, 66839, Note_on_c, 1, 59, 0
2, 66840, Note_on_c, 1, 61, 80
2, 66959, Note_on_c, 1, 61, 0
2, 66960, Note_on_c, 1, 57, 80
2, 67079, Note_on_c, 1, 57, 0
2, 67080, Note_on_c, 1, 59, 80
2, 67199, Note_on_c, 1, 59, 0
2, 67200, Note_on_c, 1, 61, 80
2, 67439, Note_on_c, 1, 61, 0
2, 68400, Note_on_c, 1, 69, 80
2, 68639, Note_on_c, 1, 69, 0
2, 68640, Note_on_c, 1, 68, 80
2, 69119, Note_on_c, 1, 68, 0
2, 69120, Note_on_c, 1, 61, 80
2, 69359, Note_on_c, 1, 61, 0
2, 69360, Note_on_c, 1, 66, 80
2, 69839, Note_on_c, 1, 66, 0
2, 69840, Note_on_c, 1, 65, 80
2, 70079, Note_on_c, 1, 65, 0
2, 70080, Note_on_c, 1, 66, 80
2, 70199, Note_on_c, 1, 66, 0
2, 70200, Note_on_c, 1, 61, 80
2, 70319, Note_on_c, 1, 61, 0
2, 70320, Note_on_c, 1, 66, 80
2, 70439, Note_on_c, 1, 66, 0
2, 70440, Note_on_c, 1, 66, 80
2, 70559, Note_on_c, 1, 66, 0
2, 70560, Note_on_c, 1, 66, 80
2, 70679, Note_on_c, 1, 66, 0
2, 70680, Note_on_c, 1, 63, 80
2, 70799, Note_on_c, 1, 63, 0
2, 70800, Note_on_c, 1, 64, 80
2, 70919, Note_on_c, 1, 64, 0
2, 70920, Note_on_c, 1, 64, 80
2, 71039, Note_on_c, 1, 64, 0
2, 71040, Note_on_c, 1, 64, 80
2, 71159, Note_on_c, 1, 64, 0
2, 71160, Note_on_c, 1, 61, 80
2, 71279, Note_on_c, 1, 61, 0
2, 71280, Note_on_c, 1, 62, 80
2, 71399, Note_on_c, 1, 62, 0
2, 71400, Note_on_c, 1, 62, 80
2, 71519, Note_on_c, 1, 62, 0
2, 71520, Note_on_c, 1, 62, 80
2, 71639, Note_on_c, 1, 62, 0
2, 71640, Note_on_c, 1, 60, 80
2, 71759, Note_on_c, 1, 60, 0
2, 71760, Note_on_c, 1, 61, 80
2, 71879, Note_on_c, 1, 61, 0
2, 71880, Note_on_c, 1, 61, 80
2, 71999, Note_on_c, 1, 61, 0
2, 72000, Note_on_c, 1, 61, 80
2, 72119, Note_on_c, 1, 61, 0
2, 72120, Note_on_c, 1, 58, 80
2, 72239, Note_on_c, 1, 58, 0
2, 72240, Note_on_c, 1, 59, 80
2, 72359, Note_on_c, 1, 59, 0
2, 72360, Note_on_c, 1, 59, 80
2, 72479, Note_on_c, 1, 59, 0
2, 72480, Note_on_c, 1, 59, 80
2, 72599, Note_on_c, 1, 59, 0
2, 72600, Note_on_c, 1, 57, 80
2, 72719, Note_on_c, 1, 57, 0
2, 72720, Note_on_c, 1, 56, 80
2, 72839, Note_on_c, 1, 56, 0
2, 72840, Note_on_c, 1, 54, 80
2, 72959, Note_on_c, 1, 54, 0
2, 72960, Note_on_c, 1, 56, 80
2, 73439, Note_on_c, 1, 56, 0
2, 73440, Note_on_c, 1, 58, 80
2, 73679, Note_on_c, 1, 58, 0
2, 73680, Note_on_c, 1, 60, 80
2, 73919, Note_on_c, 1, 60, 0
2, 73920, Note_on_c, 1, 61, 80
2, 74039, Note_on_c, 1, 61, 0
2, 74040, Note_on_c, 1, 56, 80
2, 74159, Note_on_c, 1, 56, 0
2, 74160, Note_on_c, 1, 61, 80
2, 74519, Note_on_c, 1, 61, 0
2, 74520, Note_on_c, 1, 58, 80
2, 74639, Note_on_c, 1, 58, 0
2, 74640, Note_on_c, 1, 59, 80
2, 74759, Note_on_c, 1, 59, 0
2, 74760, Note_on_c, 1, 59, 80
2, 74879, Note_on_c, 1, 59, 0
2, 74880, Note_on_c, 1, 59, 80
2, 74999, Note_on_c, 1, 59, 0
2, 75000, Note_on_c, 1, 56, 80
2, 75119, Note_on_c, 1, 56, 0
2, 75120, Note_on_c, 1, 57, 80
2, 75239, Note_on_c, 1, 57, 0
2, 75240, Note_on_c, 1, 57, 80
2, 75359, Note_on_c, 1, 57, 0
2, 75360, Note_on_c, 1, 56, 80
2, 75599, Note_on_c, 1, 56, 0
2, 75600, Note_on_c, 1, 68, 80
2, 75839, Note_on_c, 1, 68, 0
2, 75840, Note_on_c, 1, 66, 80
2, 76079, Note_on_c, 1, 66, 0
2, 76080, Note_on_c, 1, 71, 80
2, 76319, Note_on_c, 1, 71, 0
2, 76320, Note_on_c, 1, 65, 80
2, 76559, Note_on_c, 1, 65, 0
2, 76560, Note_on_c, 1, 64, 80
2, 76799, Note_on_c, 1, 64, 0
2, 76800, Note_on_c, 1, 63, 80
2, 77039, Note_on_c, 1, 63, 0
2, 77040, Note_on_c, 1, 68, 80
2, 77279, Note_on_c, 1, 68, 0
2, 77280, Note_on_c, 1, 61, 80
2, 77519, Note_on_c, 1, 61, 0
2, 77520, Note_on_c, 1, 69, 80
2, 77879, Note_on_c, 1, 69, 0
2, 77880, Note_on_c, 1, 67, 80
2, 77999, Note_on_c, 1, 67, 0
2, 78000, Note_on_c, 1, 68, 80
2, 78119, Note_on_c, 1, 68, 0
2, 78120, Note_on_c, 1, 68, 80
2, 78239, Note_on_c, 1, 68, 0
2, 78240, Note_on_c, 1, 68, 80
2, 78359, Note_on_c, 1, 68, 0
2, 78360, Note_on_c, 1, 65, 80
2, 78479, Note_on_c, 1, 65, 0
2, 78480, Note_on_c, 1, 66, 80
2, 78599, Note_on_c, 1, 66, 0
2, 78600, Note_on_c, 1, 66, 80
2, 78719, Note_on_c, 1, 66, 0
2, 78720, Note_on_c, 1, 66, 80
2, 78839, Note_on_c, 1, 66, 0
2, 78840, Note_on_c, 1, 63, 80
2, 78959, Note_on_c, 1, 63, 0
2, 78960, Note_on_c, 1, 64, 80
2, 79079, Note_on_c, 1, 64, 0
2, 79080, Note_on_c, 1, 64, 80
2, 79199, Note_on_c, 1, 64, 0
2, 79200, Note_on_c, 1, 64, 80
2, 79319, Note_on_c, 1, 64, 0
2, 79320, Note_on_c, 1, 62, 80
2, 79439, Note_on_c, 1, 62, 0
2, 79440, Note_on_c, 1, 61, 80
2, 79559, Note_on_c, 1, 61, 0
2, 79560, Note_on_c, 1, 59, 80
2, 79679, Note_on_c, 1, 59, 0
2, 79680, Note_on_c, 1, 61, 80
2, 80159, Note_on_c, 1, 61, 0
2, 80400, Note_on_c, 1, 59, 80
2, 80879, Note_on_c, 1, 59, 0
2, 80880, Note_on_c, 1, 57, 80
2, 81119, Note_on_c, 1, 57, 0
2, 81120, Note_on_c, 1, 59, 80
2, 81359, Note_on_c, 1, 59, 0
2, 81360, Note_on_c, 1, 61, 80
2, 81599, Note_on_c, 1, 61, 0
2, 81600, Note_on_c, 1, 54, 80
2, 81839, Note_on_c, 1, 54, 0
2, 81840, Note_on_c, 1, 58, 80
2, 82079, Note_on_c, 1, 58, 0
2, 82080, Note_on_c, 1, 60, 80
2, 82319, Note_on_c, 1, 60, 0
2, 82320, Note_on_c, 1, 61, 80
2, 82559, Note_on_c, 1, 61, 0
2, 82560, Note_on_c, 1, 56, 80
2, 82799, Note_on_c, 1, 56, 0
2, 83280, Note_on_c, 1, 72, 80
2, 83519, Note_on_c, 1, 72, 0
2, 83520, Note_on_c, 1, 73, 80
2, 83759, Note_on_c, 1, 73, 0
2, 84240, Note_on_c, 1, 71, 80
2, 84479, Note_on_c, 1, 71, 0
2, 84480, Note_on_c, 1, 69, 80
2, 84599, Note_on_c, 1, 69, 0
2, 84600, Note_on_c, 1, 69, 80
2, 84719, Note_on_c, 1, 69, 0
2, 84720, Note_on_c, 1, 69, 80
2, 84839, Note_on_c, 1, 69, 0
2, 84840, Note_on_c, 1, 66, 80
2, 84959, Note_on_c, 1, 66, 0
2, 84960, Note_on_c, 1, 68, 80
2, 85079, Note_on_c, 1, 68, 0
2, 85080, Note_on_c, 1, 68, 80
2, 85199, Note_on_c, 1, 68, 0
2, 85200, Note_on_c, 1, 68, 80
2, 85319, Note_on_c, 1, 68, 0
2, 85320, Note_on_c, 1, 64, 80
2, 85439, Note_on_c, 1, 64, 0
2, 85440, Note_on_c, 1, 66, 80
2, 85559, Note_on_c, 1, 66, 0
2, 85560, Note_on_c, 1, 66, 80
2, 85679, Note_on_c, 1, 66, 0
2, 85680, Note_on_c, 1, 66, 80
2, 85799, Note_on_c, 1, 66, 0
2, 85800, Note_on_c, 1, 63, 80
2, 85919, Note_on_c, 1, 63, 0
2, 85920, Note_on_c, 1, 66, 80
2, 86159, Note_on_c, 1, 66, 0
2, 86160, Note_on_c, 1, 61, 80
2, 86279, Note_on_c, 1, 61, 0
2, 86280, Note_on_c, 1, 66, 80
2, 86399, Note_on_c, 1, 66, 0
2, 86400, Note_on_c, 1, 63, 80
2, 86639, Note_on_c, 1, 63, 0
2, 87120, Note_on_c, 1, 66, 80
2, 87239, Note_on_c, 1, 66, 0
2, 87240, Note_on_c, 1, 66, 80
2, 87359, Note_on_c, 1, 66, 0
2, 87360, Note_on_c, 1, 66, 80
2, 87479, Note_on_c, 1, 66, 0
2, 87480, Note_on_c, 1, 63, 80
2, 87599, Note_on_c, 1, 63, 0
2, 87600, Note_on_c, 1, 64, 80
2, 87839, Note_on_c, 1, 64, 0
2, 88080, Note_on_c, 1, 66, 80
2, 88319, Note_on_c, 1, 66, 0
2, 88320, Note_on_c, 1, 68, 80
2, 88799, Note_on_c, 1, 68, 0
2, 89520, Note_on_c, 1, 68, 80
2, 89759, Note_on_c, 1, 68, 0
2, 89760, Note_on_c, 1, 61, 80
2, 89999, Note_on_c, 1, 61, 0
2, 90000, Note_on_c, 1, 63, 80
2, 90239, Note_on_c, 1, 63, 0
2, 90480, Note_on_c, 1, 64, 80
2, 90719, Note_on_c, 1, 64, 0
2, 90720, Note_on_c, 1, 66, 80
2, 90959, Note_on_c, 1, 66, 0
2, 90960, Note_on_c, 1, 68, 80
2, 91199, Note_on_c, 1, 68, 0
2, 91440, Note_on_c, 1, 69, 80
2, 91679, Note_on_c, 1, 69, 0
2, 91680, Note_on_c, 1, 68, 80
2, 91919, Note_on_c, 1, 68, 0
2, 91920, Note_on_c, 1, 66, 80
2, 92159, Note_on_c, 1, 66, 0
2, 92400, Note_on_c, 1, 64, 80
2, 92519, Note_on_c, 1, 64, 0
2, 92520, Note_on_c, 1, 63, 80
2, 92639, Note_on_c, 1, 63, 0
2, 92640, Note_on_c, 1, 64, 80
2, 92879, Note_on_c, 1, 64, 0
2, 92880, Note_on_c, 1, 66, 80
2, 93119, Note_on_c, 1, 66, 0
2, 93120, Note_on_c, 1, 68, 80
2, 93599, Note_on_c, 1, 68, 0
2, 93600, Note_on_c, 1, 70, 80
2, 93839, Note_on_c, 1, 70, 0
2, 93840, Note_on_c, 1, 72, 80
2, 94079, Note_on_c, 1, 72, 0
2, 94080, Note_on_c, 1, 73, 80
2, 94319, Note_on_c, 1, 73, 0
2, 94320, Note_on_c, 1, 68, 80
2, 94679, Note_on_c, 1, 68, 0
2, 94680, Note_on_c, 1, 64, 80
2, 94799, Note_on_c, 1, 64, 0
2, 94800, Note_on_c, 1, 66, 80
2, 94919, Note_on_c, 1, 66, 0
2, 94920, Note_on_c, 1, 66, 80
2, 95039, Note_on_c, 1, 66, 0
2, 95040, Note_on_c, 1, 66, 80
2, 95279, Note_on_c, 1, 66, 0
2, 95280, Note_on_c, 1, 63, 80
2, 95519, Note_on_c, 1, 63, 0
2, 95640, Note_on_c, 1, 76, 80
2, 95759, Note_on_c, 1, 76, 0
2, 95760, Note_on_c, 1, 75, 80
2, 95879, Note_on_c, 1, 75, 0
2, 95880, Note_on_c, 1, 73, 80
2, 95999, Note_on_c, 1, 73, 0
2, 96000, Note_on_c, 1, 71, 80
2, 96119, Note_on_c, 1, 71, 0
2, 96120, Note_on_c, 1, 70, 80
2, 96239, Note_on_c, 1, 70, 0
2, 96240, Note_on_c, 1, 68, 80
2, 96599, Note_on_c, 1, 68, 0
2, 96600, Note_on_c, 1, 68, 80
2, 96839, Note_on_c, 1, 68, 0
2, 96840, Note_on_c, 1, 67, 80
2, 96959, Note_on_c, 1, 67, 0
2, 96960, Note_on_c, 1, 68, 80
2, 97079, Note_on_c, 1, 68, 0
2, 97080, Note_on_c, 1, 63, 80
2, 97199, Note_on_c, 1, 63, 0
2, 97200, Note_on_c, 1, 68, 80
2, 97319, Note_on_c, 1, 68, 0
2, 97320, Note_on_c, 1, 67, 80
2, 97439, Note_on_c, 1, 67, 0
2, 97440, Note_on_c, 1, 68, 80
2, 97559, Note_on_c, 1, 68, 0
2, 97560, Note_on_c, 1, 71, 80
2, 97679, Note_on_c, 1, 71, 0
2, 97680, Note_on_c, 1, 70, 80
2, 97799, Note_on_c, 1, 70, 0
2, 97800, Note_on_c, 1, 73, 80
2, 97919, Note_on_c, 1, 73, 0
2, 97920, Note_on_c, 1, 71, 80
2, 98039, Note_on_c, 1, 71, 0
2, 98040, Note_on_c, 1, 75, 80
2, 98159, Note_on_c, 1, 75, 0
2, 98160, Note_on_c, 1, 68, 80
2, 98399, Note_on_c, 1, 68, 0
2, 98400, Note_on_c, 1, 73, 80
2, 98639, Note_on_c, 1, 73, 0
2, 98640, Note_on_c, 1, 71, 80
2, 98879, Note_on_c, 1, 71, 0
2, 98880, Note_on_c, 1, 70, 80
2, 99119, Note_on_c, 1, 70, 0
2, 99120, Note_on_c, 1, 73, 80
2, 99239, Note_on_c, 1, 73, 0
2, 99240, Note_on_c, 1, 70, 80
2, 99359, Note_on_c, 1, 70, 0
2, 99360, Note_on_c, 1, 73, 80
2, 99479, Note_on_c, 1, 73, 0
2, 99480, Note_on_c, 1, 68, 80
2, 99599, Note_on_c, 1, 68, 0
2, 99600, Note_on_c, 1, 70, 80
2, 99719, Note_on_c, 1, 70, 0
2, 99720, Note_on_c, 1, 67, 80
2, 99839, Note_on_c, 1, 67, 0
2, 99840, Note_on_c, 1, 68, 80
2, 100199, Note_on_c, 1, 68, 0
2, 100200, Note_on_c, 1, 67, 80
2, 100319, Note_on_c, 1, 67, 0
2, 100320, Note_on_c, 1, 65, 80
2, 100559, Note_on_c, 1, 65, 0
2, 100560, Note_on_c, 1, 64, 80
2, 100919, Note_on_c, 1, 64, 0
2, 100920, Note_on_c, 1, 61, 80
2, 101039, Note_on_c, 1, 61, 0
2, 101040, Note_on_c, 1, 63, 80
2, 101279, Note_on_c, 1, 63, 0
2, 101520, Note_on_c, 1, 68, 80
2, 101879, Note_on_c, 1, 68, 0
2, 101880, Note_on_c, 1, 67, 80
2, 101999, Note_on_c, 1, 67, 0
2, 102000, Note_on_c, 1, 73, 80
2, 102119, Note_on_c, 1, 73, 0
2, 102120, Note_on_c, 1, 67, 80
2, 102239, Note_on_c, 1, 67, 0
2, 102240, Note_on_c, 1, 68, 80
2, 102359, Note_on_c, 1, 68, 0
2, 102360, Note_on_c, 1, 71, 80
2, 102479, Note_on_c, 1, 71, 0
2, 102480, Note_on_c, 1, 70, 80
2, 102599, Note_on_c, 1, 70, 0
2, 102600, Note_on_c, 1, 64, 80
2, 102719, Note_on_c, 1, 64, 0
2, 102720, Note_on_c, 1, 63, 80
2, 102839, Note_on_c, 1, 63, 0
2, 102840, Note_on_c, 1, 62, 80
2, 102959, Note_on_c, 1, 62, 0
2, 102960, Note_on_c, 1, 63, 80
2, 103199, Note_on_c, 1, 63, 0
2, 103800, Note_on_c, 1, 63, 80
2, 103919, Note_on_c, 1, 63, 0
2, 103920, Note_on_c, 1, 67, 80
2, 104039, Note_on_c, 1, 67, 0
2, 104040, Note_on_c, 1, 70, 80
2, 104159, Note_on_c, 1, 70, 0
2, 104160, Note_on_c, 1, 68, 80
2, 104279, Note_on_c, 1, 68, 0
2, 104280, Note_on_c, 1, 65, 80
2, 104399, Note_on_c, 1, 65, 0
2, 104400, Note_on_c, 1, 66, 80
2, 104519, Note_on_c, 1, 66, 0
2, 104520, Note_on_c, 1, 63, 80
2, 104639, Note_on_c, 1, 63, 0
2, 104640, Note_on_c, 1, 64, 80
2, 104879, Note_on_c, 1, 64, 0
2, 104880, Note_on_c, 1, 65, 80
2, 105119, Note_on_c, 1, 65, 0
2, 105120, Note_on_c, 1, 66, 80
2, 105479, Note_on_c, 1, 66, 0
2, 105480, Note_on_c, 1, 65, 80
2, 105599, Note_on_c, 1, 65, 0
2, 105600, Note_on_c, 1, 66, 80
2, 105839, Note_on_c, 1, 66, 0
2, 105960, Note_on_c, 1, 73, 80
2, 106079, Note_on_c, 1, 73, 0
2, 106080, Note_on_c, 1, 71, 80
2, 106199, Note_on_c, 1, 71, 0
2, 106200, Note_on_c, 1, 68, 80
2, 106319, Note_on_c, 1, 68, 0
2, 106320, Note_on_c, 1, 73, 80
2, 106439, Note_on_c, 1, 73, 0
2, 106440, Note_on_c, 1, 67, 80
2, 106559, Note_on_c, 1, 67, 0
2, 106560, Note_on_c, 1, 66, 80
2, 106799, Note_on_c, 1, 66, 0
2, 106800, Note_on_c, 1, 67, 80
2, 107159, Note_on_c, 1, 67, 0
2, 107160, Note_on_c, 1, 66, 80
2, 107279, Note_on_c, 1, 66, 0
2, 107280, Note_on_c, 1, 65, 80
2, 107399, Note_on_c, 1, 65, 0
2, 107400, Note_on_c, 1, 66, 80
2, 107519, Note_on_c, 1, 66, 0
2, 107520, Note_on_c, 1, 68, 80
2, 107759, Note_on_c, 1, 68, 0
2, 107760, Note_on_c, 1, 69, 80
2, 107999, Note_on_c, 1, 69, 0
2, 108240, Note_on_c, 1, 69, 80
2, 108479, Note_on_c, 1, 69, 0
2, 108480, Note_on_c, 1, 68, 80
2, 108719, Note_on_c, 1, 68, 0
2, 108720, Note_on_c, 1, 73, 80
2, 108959, Note_on_c, 1, 73, 0
2, 108960, Note_on_c, 1, 67, 80
2, 109199, Note_on_c, 1, 67, 0
2, 109200, Note_on_c, 1, 66, 80
2, 109439, Note_on_c, 1, 66, 0
2, 109440, Note_on_c, 1, 65, 80
2, 109679, Note_on_c, 1, 65, 0
2, 109680, Note_on_c, 1, 69, 80
2, 109919, Note_on_c, 1, 69, 0
2, 109920, Note_on_c, 1, 63, 80
2, 110159, Note_on_c, 1, 63, 0
2, 110160, Note_on_c, 1, 62, 80
2, 110399, Note_on_c, 1, 62, 0
2, 110400, Note_on_c, 1, 61, 80
2, 110639, Note_on_c, 1, 61, 0
2, 110640, Note_on_c, 1, 66, 80
2, 110879, Note_on_c, 1, 66, 0
2, 110880, Note_on_c, 1, 60, 80
2, 111119, Note_on_c, 1, 60, 0
2, 111120, Note_on_c, 1, 59, 80
2, 111359, Note_on_c, 1, 59, 0
2, 111360, Note_on_c, 1, 58, 80
2, 111599, Note_on_c, 1, 58, 0
2, 111600, Note_on_c, 1, 57, 80
2, 111839, Note_on_c, 1, 57, 0
2, 111840, Note_on_c, 1, 56, 80
2, 112319, Note_on_c, 1, 56, 0
2, 112320, Note_on_c, 1, 54, 80
2, 112559, Note_on_c, 1, 54, 0
2, 112560, Note_on_c, 1, 61, 80
2, 112679, Note_on_c, 1, 61, 0
2, 112680, Note_on_c, 1, 61, 80
2, 112799, Note_on_c, 1, 61, 0
2, 112800, Note_on_c, 1, 61, 80
2, 112919, Note_on_c, 1, 61, 0
2, 112920, Note_on_c, 1, 57, 80
2, 113039, Note_on_c, 1, 57, 0
2, 113040, Note_on_c, 1, 59, 80
2, 113159, Note_on_c, 1, 59, 0
2, 113160, Note_on_c, 1, 59, 80
2, 113279, Note_on_c, 1, 59, 0
2, 113280, Note_on_c, 1, 59, 80
2, 113399, Note_on_c, 1, 59, 0
2, 113400, Note_on_c, 1, 56, 80
2, 113519, Note_on_c, 1, 56, 0
2, 113520, Note_on_c, 1, 57, 80
2, 113639, Note_on_c, 1, 57, 0
2, 113640, Note_on_c, 1, 57, 80
2, 113759, Note_on_c, 1, 57, 0
2, 113760, Note_on_c, 1, 56, 80
2, 113999, Note_on_c, 1, 56, 0
2, 114000, Note_on_c, 1, 61, 80
2, 114119, Note_on_c, 1, 61, 0
2, 114120, Note_on_c, 1, 61, 80
2, 114239, Note_on_c, 1, 61, 0
2, 114240, Note_on_c, 1, 61, 80
2, 114359, Note_on_c, 1, 61, 0
2, 114360, Note_on_c, 1, 57, 80
2, 114479, Note_on_c, 1, 57, 0
2, 114480, Note_on_c, 1, 59, 80
2, 114599, Note_on_c, 1, 59, 0
2, 114600, Note_on_c, 1, 59, 80
2, 114719, Note_on_c, 1, 59, 0
2, 114720, Note_on_c, 1, 57, 80
2, 114959, Note_on_c, 1, 57, 0
2, 114960, Note_on_c, 1, 66, 80
2, 115079, Note_on_c, 1, 66, 0
2, 115080, Note_on_c, 1, 66, 80
2, 115199, Note_on_c, 1, 66, 0
2, 115200, Note_on_c, 1, 66, 80
2, 115319, Note_on_c, 1, 66, 0
2, 115320, Note_on_c, 1, 63, 80
2, 115439, Note_on_c, 1, 63, 0
2, 115440, Note_on_c, 1, 64, 80
2, 115559, Note_on_c, 1, 64, 0
2, 115560, Note_on_c, 1, 64, 80
2, 115679, Note_on_c, 1, 64, 0
2, 115680, Note_on_c, 1, 63, 80
2, 115919, Note_on_c, 1, 63, 0
2, 115920, Note_on_c, 1, 68, 80
2, 116039, Note_on_c, 1, 68, 0
2, 116040, Note_on_c, 1, 68, 80
2, 116159, Note_on_c, 1, 68, 0
2, 116160, Note_on_c, 1, 68, 80
2, 116279, Note_on_c, 1, 68, 0
2, 116280, Note_on_c, 1, 67, 80
2, 116399, Note_on_c, 1, 67, 0
2, 116400, Note_on_c, 1, 70, 80
2, 116519, Note_on_c, 1, 70, 0
2, 116520, Note_on_c, 1, 68, 80
2, 116639, Note_on_c, 1, 68, 0
2, 116640, Note_on_c, 1, 71, 80
2, 116759, Note_on_c, 1, 71, 0
2, 116760, Note_on_c, 1, 70, 80
2, 116879, Note_on_c, 1, 70, 0
2, 116880, Note_on_c, 1, 73, 80
2, 116999, Note_on_c, 1, 73, 0
2, 117000, Note_on_c, 1, 71, 80
2, 117119, Note_on_c, 1, 71, 0
2, 117120, Note_on_c, 1, 75, 80
2, 117239, Note_on_c, 1, 75, 0
2, 117240, Note_on_c, 1, 73, 80
2, 117359, Note_on_c, 1, 73, 0
2, 117360, Note_on_c, 1, 76, 80
2, 117479, Note_on_c, 1, 76, 0
2, 117480, Note_on_c, 1, 75, 80
2, 117599, Note_on_c, 1, 75, 0
2, 117600, Note_on_c, 1, 73, 80
2, 117719, Note_on_c, 1, 73, 0
2, 117720, Note_on_c, 1, 71, 80
2, 117839, Note_on_c, 1, 71, 0
2, 117840, Note_on_c, 1, 70, 80
2, 117959, Note_on_c, 1, 70, 0
2, 117960, Note_on_c, 1, 68, 80
2, 118079, Note_on_c, 1, 68, 0
2, 118080, Note_on_c, 1, 68, 80
2, 118559, Note_on_c, 1, 68, 0
2, 119520, Note_on_c, 1, 61, 80
2, 119999, Note_on_c, 1, 61, 0
2, 120000, Note_on_c, 1, 59, 80
2, 120239, Note_on_c, 1, 59, 0
2, 120240, Note_on_c, 1, 64, 80
2, 120479, Note_on_c, 1, 64, 0
2, 120480, Note_on_c, 1, 58, 80
2, 120719, Note_on_c, 1, 58, 0
2, 120720, Note_on_c, 1, 57, 80
2, 120959, Note_on_c, 1, 57, 0
2, 120960, Note_on_c, 1, 56, 80
2, 121199, Note_on_c, 1, 56, 0
2, 121200, Note_on_c, 1, 61, 80
2, 121439, Note_on_c, 1, 61, 0
2, 121440, Note_on_c, 1, 54, 80
2, 121499, Note_on_c, 1, 54, 0
2, 121500, Note_on_c, 1, 52, 80
2, 121559, Note_on_c, 1, 52, 0
2, 121560, Note_on_c, 1, 54, 80
2, 121919, Note_on_c, 1, 54, 0
2, 121920, Note_on_c, 1, 52, 80
2, 122159, Note_on_c, 1, 52, 0
2, 122160, Note_on_c, 1, 54, 80
2, 122399, Note_on_c, 1, 54, 0
2, 122400, Note_on_c, 1, 56, 80
2, 122519, Note_on_c, 1, 56, 0
2, 122520, Note_on_c, 1, 54, 80
2, 122639, Note_on_c, 1, 54, 0
2, 122640, Note_on_c, 1, 56, 80
2, 122879, Note_on_c, 1, 56, 0
2, 122880, Note_on_c, 1, 49, 80
2, 123119, Note_on_c, 1, 49, 0
2, 123120, Note_on_c, 1, 61, 80
2, 123359, Note_on_c, 1, 61, 0
2, 123360, Note_on_c, 1, 59, 80
2, 123599, Note_on_c, 1, 59, 0
2, 123600, Note_on_c, 1, 58, 80
2, 123839, Note_on_c, 1, 58, 0
2, 123840, Note_on_c, 1, 59, 80
2, 124079, Note_on_c, 1, 59, 0
2, 124080, Note_on_c, 1, 64, 80
2, 124319, Note_on_c, 1, 64, 0
2, 124320, Note_on_c, 1, 63, 80
2, 124559, Note_on_c, 1, 63, 0
2, 124560, Note_on_c, 1, 61, 80
2, 124799, Note_on_c, 1, 61, 0
2, 124800, Note_on_c, 1, 63, 80
2, 125039, Note_on_c, 1, 63, 0
2, 125040, Note_on_c, 1, 68, 80
2, 125279, Note_on_c, 1, 68, 0
2, 125280, Note_on_c, 1, 66, 80
2, 125519, Note_on_c, 1, 66, 0
2, 125520, Note_on_c, 1, 64, 80
2, 125879, Note_on_c, 1, 64, 0
2, 125880, Note_on_c, 1, 62, 80
2, 125999, Note_on_c, 1, 62, 0
2, 126000, Note_on_c, 1, 63, 80
2, 126119, Note_on_c, 1, 63, 0
2, 126120, Note_on_c, 1, 63, 80
2, 126239, Note_on_c, 1, 63, 0
2, 126240, Note_on_c, 1, 63, 80
2, 126359, Note_on_c, 1, 63, 0
2, 126360, Note_on_c, 1, 60, 80
2, 126479, Note_on_c, 1, 60, 0
2, 126480, Note_on_c, 1, 61, 80
2, 126599, Note_on_c, 1, 61, 0
2, 126600, Note_on_c, 1, 61, 80
2, 126719, Note_on_c, 1, 61, 0
2, 126720, Note_on_c, 1, 61, 80
2, 126839, Note_on_c, 1, 61, 0
2, 126840, Note_on_c, 1, 57, 80
2, 126959, Note_on_c, 1, 57, 0
2, 126960, Note_on_c, 1, 59, 80
2, 127079, Note_on_c, 1, 59, 0
2, 127080, Note_on_c, 1, 59, 80
2, 127199, Note_on_c, 1, 59, 0
2, 127200, Note_on_c, 1, 59, 80
2, 127319, Note_on_c, 1, 59, 0
2, 127320, Note_on_c, 1, 57, 80
2, 127439, Note_on_c, 1, 57, 0
2, 127440, Note_on_c, 1, 56, 80
2, 127559, Note_on_c, 1, 56, 0
2, 127560, Note_on_c, 1, 55, 80
2, 127679, Note_on_c, 1, 55, 0
2, 127680, Note_on_c, 1, 56, 80
2, 128399, Note_on_c, 1, 56, 0
2, 128400, Note_on_c, 1, 55, 80
2, 128639, Note_on_c, 1, 55, 0
2, 128640, Note_on_c, 1, 56, 80
2, 128759, Note_on_c, 1, 56, 0
2, 128760, Note_on_c, 1, 59, 80
2, 128879, Note_on_c, 1, 59, 0
2, 128880, Note_on_c, 1, 57, 80
2, 128999, Note_on_c, 1, 57, 0
2, 129000, Note_on_c, 1, 56, 80
2, 129119, Note_on_c, 1, 56, 0
2, 129120, Note_on_c, 1, 55, 80
2, 129239, Note_on_c, 1, 55, 0
2, 129240, Note_on_c, 1, 56, 80
2, 129359, Note_on_c, 1, 56, 0
2, 129360, Note_on_c, 1, 53, 80
2, 129479, Note_on_c, 1, 53, 0
2, 129480, Note_on_c, 1, 55, 80
2, 129599, Note_on_c, 1, 55, 0
2, 129600, Note_on_c, 1, 56, 80
2, 129719, Note_on_c, 1, 56, 0
2, 129720, Note_on_c, 1, 63, 80
2, 129839, Note_on_c, 1, 63, 0
2, 129840, Note_on_c, 1, 68, 80
2, 130319, Note_on_c, 1, 68, 0
2, 130320, Note_on_c, 1, 66, 80
2, 130679, Note_on_c, 1, 66, 0
2, 130680, Note_on_c, 1, 64, 80
2, 130799, Note_on_c, 1, 64, 0
2, 130800, Note_on_c, 1, 63, 80
2, 130919, Note_on_c, 1, 63, 0
2, 130920, Note_on_c, 1, 61, 80
2, 131039, Note_on_c, 1, 61, 0
2, 131040, Note_on_c, 1, 60, 80
2, 131159, Note_on_c, 1, 60, 0
2, 131160, Note_on_c, 1, 61, 80
2, 131279, Note_on_c, 1, 61, 0
2, 131280, Note_on_c, 1, 58, 80
2, 131399, Note_on_c, 1, 58, 0
2, 131400, Note_on_c, 1, 60, 80
2, 131519, Note_on_c, 1, 60, 0
2, 131520, Note_on_c, 1, 61, 80
2, 131759, Note_on_c, 1, 61, 0
2, 132240, Note_on_c, 1, 53, 80
2, 132479, Note_on_c, 1, 53, 0
2, 132480, Note_on_c, 1, 54, 80
2, 132599, Note_on_c, 1, 54, 0
2, 132600, Note_on_c, 1, 56, 80
2, 132719, Note_on_c, 1, 56, 0
2, 132720, Note_on_c, 1, 57, 80
2, 132839, Note_on_c, 1, 57, 0
2, 132840, Note_on_c, 1, 59, 80
2, 132959, Note_on_c, 1, 59, 0
2, 132960, Note_on_c, 1, 61, 80
2, 133079, Note_on_c, 1, 61, 0
2, 133080, Note_on_c, 1, 59, 80
2, 133199, Note_on_c, 1, 59, 0
2, 133200, Note_on_c, 1, 63, 80
2, 133319, Note_on_c, 1, 63, 0
2, 133320, Note_on_c, 1, 61, 80
2, 133439, Note_on_c, 1, 61, 0
2, 133440, Note_on_c, 1, 63, 80
2, 133559, Note_on_c, 1, 63, 0
2, 133560, Note_on_c, 1, 64, 80
2, 133679, Note_on_c, 1, 64, 0
2, 133680, Note_on_c, 1, 66, 80
2, 133799, Note_on_c, 1, 66, 0
2, 133800, Note_on_c, 1, 68, 80
2, 133919, Note_on_c, 1, 68, 0
2, 133920, Note_on_c, 1, 69, 80
2, 134039, Note_on_c, 1, 69, 0
2, 134040, Note_on_c, 1, 68, 80
2, 134159, Note_on_c, 1, 68, 0
2, 134160, Note_on_c, 1, 71, 80
2, 134279, Note_on_c, 1, 71, 0
2, 134280, Note_on_c, 1, 69, 80
2, 134399, Note_on_c, 1, 69, 0
2, 134400, Note_on_c, 1, 71, 80
2, 134639, Note_on_c, 1, 71, 0
2, 135480, Note_on_c, 1, 68, 80
2, 135599, Note_on_c, 1, 68, 0
2, 135600, Note_on_c, 1, 66, 80
2, 135719, Note_on_c, 1, 66, 0
2, 135720, Note_on_c, 1, 64, 80
2, 135839, Note_on_c, 1, 64, 0
2, 135840, Note_on_c, 1, 63, 80
2, 135959, Note_on_c, 1, 63, 0
2, 135960, Note_on_c, 1, 64, 80
2, 136079, Note_on_c, 1, 64, 0
2, 136080, Note_on_c, 1, 61, 80
2, 136199, Note_on_c, 1, 61, 0
2, 136200, Note_on_c, 1, 63, 80
2, 136319, Note_on_c, 1, 63, 0
2, 136320, Note_on_c, 1, 64, 80
2, 136439, Note_on_c, 1, 64, 0
2, 136440, Note_on_c, 1, 59, 80
2, 136559, Note_on_c, 1, 59, 0
2, 136560, Note_on_c, 1, 64, 80
2, 137039, Note_on_c, 1, 64, 0
2, 137040, Note_on_c, 1, 63, 80
2, 137519, Note_on_c, 1, 63, 0
2, 137520, Note_on_c, 1, 61, 80
2, 137879, Note_on_c, 1, 61, 0
2, 137880, Note_on_c, 1, 58, 80
2, 137999, Note_on_c, 1, 58, 0
2, 138000, Note_on_c, 1, 60, 80
2, 138119, Note_on_c, 1, 60, 0
2, 138120, Note_on_c, 1, 63, 80
2, 138239, Note_on_c, 1, 63, 0
2, 138240, Note_on_c, 1, 56, 80
2, 138359, Note_on_c, 1, 56, 0
2, 138360, Note_on_c, 1, 58, 80
2, 138479, Note_on_c, 1, 58, 0
2, 138480, Note_on_c, 1, 60, 80
2, 138599, Note_on_c, 1, 60, 0
2, 138600, Note_on_c, 1, 61, 80
2, 138719, Note_on_c, 1, 61, 0
2, 138720, Note_on_c, 1, 63, 80
2, 138839, Note_on_c, 1, 63, 0
2, 138840, Note_on_c, 1, 61, 80
2, 138959, Note_on_c, 1, 61, 0
2, 138960, Note_on_c, 1, 64, 80
2, 139079, Note_on_c, 1, 64, 0
2, 139080, Note_on_c, 1, 63, 80
2, 139199, Note_on_c, 1, 63, 0
2, 139200, Note_on_c, 1, 66, 80
2, 139319, Note_on_c, 1, 66, 0
2, 139320, Note_on_c, 1, 65, 80
2, 139439, Note_on_c, 1, 65, 0
2, 139440, Note_on_c, 1, 67, 80
2, 139559, Note_on_c, 1, 67, 0
2, 139560, Note_on_c, 1, 68, 80
2, 139679, Note_on_c, 1, 68, 0
2, 139680, Note_on_c, 1, 70, 80
2, 139799, Note_on_c, 1, 70, 0
2, 139800, Note_on_c, 1, 68, 80
2, 139919, Note_on_c, 1, 68, 0
2, 139920, Note_on_c, 1, 71, 80
2, 140039, Note_on_c, 1, 71, 0
2, 140040, Note_on_c, 1, 70, 80
2, 140159, Note_on_c, 1, 70, 0
2, 140160, Note_on_c, 1, 73, 80
2, 140279, Note_on_c, 1, 73, 0
2, 140280, Note_on_c, 1, 71, 80
2, 140399, Note_on_c, 1, 71, 0
2, 140400, Note_on_c, 1, 70, 80
2, 140519, Note_on_c, 1, 70, 0
2, 140520, Note_on_c, 1, 68, 80
2, 140639, Note_on_c, 1, 68, 0
2, 140640, Note_on_c, 1, 70, 80
2, 140759, Note_on_c, 1, 70, 0
2, 140760, Note_on_c, 1, 71, 80
2, 140879, Note_on_c, 1, 71, 0
2, 140880, Note_on_c, 1, 70, 80
2, 140999, Note_on_c, 1, 70, 0
2, 141000, Note_on_c, 1, 73, 80
2, 141119, Note_on_c, 1, 73, 0
2, 141120, Note_on_c, 1, 73, 80
2, 141239, Note_on_c, 1, 73, 0
2, 141240, Note_on_c, 1, 70, 80
2, 141359, Note_on_c, 1, 70, 0
2, 141360, Note_on_c, 1, 71, 80
2, 141479, Note_on_c, 1, 71, 0
2, 141480, Note_on_c, 1, 71, 80
2, 141599, Note_on_c, 1, 71, 0
2, 141600, Note_on_c, 1, 71, 80
2, 141719, Note_on_c, 1, 71, 0
2, 141720, Note_on_c, 1, 69, 80
2, 141839, Note_on_c, 1, 69, 0
2, 141840, Note_on_c, 1, 70, 80
2, 141959, Note_on_c, 1, 70, 0
2, 141960, Note_on_c, 1, 70, 80
2, 142079, Note_on_c, 1, 70, 0
2, 142080, Note_on_c, 1, 70, 80
2, 142199, Note_on_c, 1, 70, 0
2, 142200, Note_on_c, 1, 67, 80
2, 142319, Note_on_c, 1, 67, 0
2, 142320, Note_on_c, 1, 68, 80
2, 142439, Note_on_c, 1, 68, 0
2, 142440, Note_on_c, 1, 68, 80
2, 142559, Note_on_c, 1, 68, 0
2, 142560, Note_on_c, 1, 68, 80
2, 142679, Note_on_c, 1, 68, 0
2, 142680, Note_on_c, 1, 66, 80
2, 142799, Note_on_c, 1, 66, 0
2, 142800, Note_on_c, 1, 64, 80
2, 142919, Note_on_c, 1, 64, 0
2, 142920, Note_on_c, 1, 63, 80
2, 143039, Note_on_c, 1, 63, 0
2, 143040, Note_on_c, 1, 64, 80
2, 143159, Note_on_c, 1, 64, 0
2, 143160, Note_on_c, 1, 68, 80
2, 143279, Note_on_c, 1, 68, 0
2, 143280, Note_on_c, 1, 66, 80
2, 143399, Note_on_c, 1, 66, 0
2, 143400, Note_on_c, 1, 64, 80
2, 143519, Note_on_c, 1, 64, 0
2, 143520, Note_on_c, 1, 63, 80
2, 143639, Note_on_c, 1, 63, 0
2, 143640, Note_on_c, 1, 64, 80
2, 143759, Note_on_c, 1, 64, 0
2, 143760, Note_on_c, 1, 61, 80
2, 143879, Note_on_c, 1, 61, 0
2, 143880, Note_on_c, 1, 63, 80
2, 143999, Note_on_c, 1, 63, 0
2, 144000, Note_on_c, 1, 64, 80
2, 144119, Note_on_c, 1, 64, 0
2, 144120, Note_on_c, 1, 68, 80
2, 144239, Note_on_c, 1, 68, 0
2, 144240, Note_on_c, 1, 71, 80
2, 144359, Note_on_c, 1, 71, 0
2, 144360, Note_on_c, 1, 69, 80
2, 144479, Note_on_c, 1, 69, 0
2, 144480, Note_on_c, 1, 71, 80
2, 144719, Note_on_c, 1, 71, 0
2, 145440, Note_on_c, 1, 71, 80
2, 145919, Note_on_c, 1, 71, 0
2, 145920, Note_on_c, 1, 70, 80
2, 146159, Note_on_c, 1, 70, 0
2, 146160, Note_on_c, 1, 75, 80
2, 146399, Note_on_c, 1, 75, 0
2, 146400, Note_on_c, 1, 69, 80
2, 146639, Note_on_c, 1, 69, 0
2, 146640, Note_on_c, 1, 68, 80
2, 146879, Note_on_c, 1, 68, 0
2, 146880, Note_on_c, 1, 66, 80
2, 147119, Note_on_c, 1, 66, 0
2, 147120, Note_on_c, 1, 71, 80
2, 147359, Note_on_c, 1, 71, 0
2, 147360, Note_on_c, 1, 64, 80
2, 147839, Note_on_c, 1, 64, 0
2, 147840, Note_on_c, 1, 63, 80
2, 148079, Note_on_c, 1, 63, 0
2, 148080, Note_on_c, 1, 64, 80
2, 148319, Note_on_c, 1, 64, 0
2, 148320, Note_on_c, 1, 66, 80
2, 148439, Note_on_c, 1, 66, 0
2, 148440, Note_on_c, 1, 64, 80
2, 148559, Note_on_c, 1, 64, 0
2, 148560, Note_on_c, 1, 66, 80
2, 148799, Note_on_c, 1, 66, 0
2, 148800, Note_on_c, 1, 59, 80
2, 149039, Note_on_c, 1, 59, 0
2, 149040, Note_on_c, 1, 71, 80
2, 149399, Note_on_c, 1, 71, 0
2, 149400, Note_on_c, 1, 69, 80
2, 149519, Note_on_c, 1, 69, 0
2, 149520, Note_on_c, 1, 68, 80
2, 149639, Note_on_c, 1, 68, 0
2, 149640, Note_on_c, 1, 71, 80
2, 149759, Note_on_c, 1, 71, 0
2, 149760, Note_on_c, 1, 69, 80
2, 149999, Note_on_c, 1, 69, 0
2, 150000, Note_on_c, 1, 68, 80
2, 150239, Note_on_c, 1, 68, 0
2, 150240, Note_on_c, 1, 66, 80
2, 150479, Note_on_c, 1, 66, 0
2, 150480, Note_on_c, 1, 65, 80
2, 150719, Note_on_c, 1, 65, 0
2, 150720, Note_on_c, 1, 66, 80
2, 150839, Note_on_c, 1, 66, 0
2, 150840, Note_on_c, 1, 64, 80
2, 150959, Note_on_c, 1, 64, 0
2, 150960, Note_on_c, 1, 62, 80
2, 151079, Note_on_c, 1, 62, 0
2, 151080, Note_on_c, 1, 61, 80
2, 151199, Note_on_c, 1, 61, 0
2, 151200, Note_on_c, 1, 59, 80
2, 151439, Note_on_c, 1, 59, 0
2, 151920, Note_on_c, 1, 61, 80
2, 152159, Note_on_c, 1, 61, 0
2, 152160, Note_on_c, 1, 54, 80
2, 152399, Note_on_c, 1, 54, 0
2, 152400, Note_on_c, 1, 56, 80
2, 152639, Note_on_c, 1, 56, 0
2, 152880, Note_on_c, 1, 57, 80
2, 153119, Note_on_c, 1, 57, 0
2, 153120, Note_on_c, 1, 59, 80
2, 153359, Note_on_c, 1, 59, 0
2, 153360, Note_on_c, 1, 61, 80
2, 153599, Note_on_c, 1, 61, 0
2, 153840, Note_on_c, 1, 62, 80
2, 154079, Note_on_c, 1, 62, 0
2, 154080, Note_on_c, 1, 61, 80
2, 154319, Note_on_c, 1, 61, 0
2, 154320, Note_on_c, 1, 59, 80
2, 154559, Note_on_c, 1, 59, 0
2, 154800, Note_on_c, 1, 57, 80
2, 154919, Note_on_c, 1, 57, 0
2, 154920, Note_on_c, 1, 56, 80
2, 155039, Note_on_c, 1, 56, 0
2, 155040, Note_on_c, 1, 57, 80
2, 155279, Note_on_c, 1, 57, 0
2, 155280, Note_on_c, 1, 59, 80
2, 155519, Note_on_c, 1, 59, 0
2, 155520, Note_on_c, 1, 61, 80
2, 155639, Note_on_c, 1, 61, 0
2, 155640, Note_on_c, 1, 62, 80
2, 155759, Note_on_c, 1, 62, 0
2, 155760, Note_on_c, 1, 61, 80
2, 155879, Note_on_c, 1, 61, 0
2, 155880, Note_on_c, 1, 60, 80
2, 155999, Note_on_c, 1, 60, 0
2, 156000, Note_on_c, 1, 61, 80
2, 156119, Note_on_c, 1, 61, 0
2, 156120, Note_on_c, 1, 64, 80
2, 156239, Note_on_c, 1, 64, 0
2, 156240, Note_on_c, 1, 63, 80
2, 156359, Note_on_c, 1, 63, 0
2, 156360, Note_on_c, 1, 66, 80
2, 156479, Note_on_c, 1, 66, 0
2, 156480, Note_on_c, 1, 64, 80
2, 156599, Note_on_c, 1, 64, 0
2, 156600, Note_on_c, 1, 63, 80
2, 156719, Note_on_c, 1, 63, 0
2, 156720, Note_on_c, 1, 64, 80
2, 157079, Note_on_c, 1, 64, 0
2, 157080, Note_on_c, 1, 63, 80
2, 157199, Note_on_c, 1, 63, 0
2, 157200, Note_on_c, 1, 61, 80
2, 157319, Note_on_c, 1, 61, 0
2, 157320, Note_on_c, 1, 64, 80
2, 157439, Note_on_c, 1, 64, 0
2, 157440, Note_on_c, 1, 63, 80
2, 157559, Note_on_c, 1, 63, 0
2, 157560, Note_on_c, 1, 65, 80
2, 157679, Note_on_c, 1, 65, 0
2, 157680, Note_on_c, 1, 66, 80
2, 158039, Note_on_c, 1, 66, 0
2, 158040, Note_on_c, 1, 64, 80
2, 158159, Note_on_c, 1, 64, 0
2, 158160, Note_on_c, 1, 63, 80
2, 158279, Note_on_c, 1, 63, 0
2, 158280, Note_on_c, 1, 66, 80
2, 158399, Note_on_c, 1, 66, 0
2, 158400, Note_on_c, 1, 64, 80
2, 158519, Note_on_c, 1, 64, 0
2, 158520, Note_on_c, 1, 66, 80
2, 158639, Note_on_c, 1, 66, 0
2, 158640, Note_on_c, 1, 68, 80
2, 158999, Note_on_c, 1, 68, 0
2, 159000, Note_on_c, 1, 66, 80
2, 159119, Note_on_c, 1, 66, 0
2, 159120, Note_on_c, 1, 64, 80
2, 159239, Note_on_c, 1, 64, 0
2, 159240, Note_on_c, 1, 68, 80
2, 159359, Note_on_c, 1, 68, 0
2, 159360, Note_on_c, 1, 67, 80
2, 159479, Note_on_c, 1, 67, 0
2, 159480, Note_on_c, 1, 68, 80
2, 159599, Note_on_c, 1, 68, 0
2, 159600, Note_on_c, 1, 69, 80
2, 160079, Note_on_c, 1, 69, 0
2, 160080, Note_on_c, 1, 68, 80
2, 160199, Note_on_c, 1, 68, 0
2, 160200, Note_on_c, 1, 67, 80
2, 160319, Note_on_c, 1, 67, 0
2, 160320, Note_on_c, 1, 68, 80
2, 160439, Note_on_c, 1, 68, 0
2, 160440, Note_on_c, 1, 63, 80
2, 160559, Note_on_c, 1, 63, 0
2, 160560, Note_on_c, 1, 68, 80
2, 160679, Note_on_c, 1, 68, 0
2, 160680, Note_on_c, 1, 68, 80
2, 160799, Note_on_c, 1, 68, 0
2, 160800, Note_on_c, 1, 68, 80
2, 160919, Note_on_c, 1, 68, 0
2, 160920, Note_on_c, 1, 65, 80
2, 161039, Note_on_c, 1, 65, 0
2, 161040, Note_on_c, 1, 66, 80
2, 161159, Note_on_c, 1, 66, 0
2, 161160, Note_on_c, 1, 66, 80
2, 161279, Note_on_c, 1, 66, 0
2, 161280, Note_on_c, 1, 66, 80
2, 161399, Note_on_c, 1, 66, 0
2, 161400, Note_on_c, 1, 63, 80
2, 161519, Note_on_c, 1, 63, 0
2, 161520, Note_on_c, 1, 64, 80
2, 161639, Note_on_c, 1, 64, 0
2, 161640, Note_on_c, 1, 61, 80
2, 161759, Note_on_c, 1, 61, 0
2, 161760, Note_on_c, 1, 58, 80
2, 161879, Note_on_c, 1, 58, 0
2, 161880, Note_on_c, 1, 61, 80
2, 161999, Note_on_c, 1, 61, 0
2, 162000, Note_on_c, 1, 60, 80
2, 162119, Note_on_c, 1, 60, 0
2, 162120, Note_on_c, 1, 63, 80
2, 162239, Note_on_c, 1, 63, 0
2, 162240, Note_on_c, 1, 56, 80
2, 162479, Note_on_c, 1, 56, 0
2, 162480, Note_on_c, 1, 61, 80
2, 162599, Note_on_c, 1, 61, 0
2, 162600, Note_on_c, 1, 59, 80
2, 162719, Note_on_c, 1, 59, 0
2, 162720, Note_on_c, 1, 58, 80
2, 162959, Note_on_c, 1, 58, 0
2, 162960, Note_on_c, 1, 57, 80
2, 163319, Note_on_c, 1, 57, 0
2, 163320, Note_on_c, 1, 55, 80
2, 163439, Note_on_c, 1, 55, 0
2, 163440, Note_on_c, 1, 56, 80
2, 163559, Note_on_c, 1, 56, 0
2, 163560, Note_on_c, 1, 56, 80
2, 163679, Note_on_c, 1, 56, 0
2, 163680, Note_on_c, 1, 56, 80
2, 163799, Note_on_c, 1, 56, 0
2, 163800, Note_on_c, 1, 53, 80
2, 163919, Note_on_c, 1, 53, 0
2, 163920, Note_on_c, 1, 54, 80
2, 164039, Note_on_c, 1, 54, 0
2, 164040, Note_on_c, 1, 54, 80
2, 164159, Note_on_c, 1, 54, 0
2, 164160, Note_on_c, 1, 54, 80
2, 164279, Note_on_c, 1, 54, 0
2, 164280, Note_on_c, 1, 51, 80
2, 164399, Note_on_c, 1, 51, 0
2, 164400, Note_on_c, 1, 52, 80
2, 164519, Note_on_c, 1, 52, 0
2, 164520, Note_on_c, 1, 52, 80
2, 164639, Note_on_c, 1, 52, 0
2, 164640, Note_on_c, 1, 52, 80
2, 164759, Note_on_c, 1, 52, 0
2, 164760, Note_on_c, 1, 51, 80
2, 164879, Note_on_c, 1, 51, 0
2, 164880, Note_on_c, 1, 49, 80
2, 164999, Note_on_c, 1, 49, 0
2, 165000, Note_on_c, 1, 48, 80
2, 165119, Note_on_c, 1, 48, 0
2, 165120, Note_on_c, 1, 49, 80
2, 165239, Note_on_c, 1, 49, 0
2, 165240, Note_on_c, 1, 52, 80
2, 165359, Note_on_c, 1, 52, 0
2, 165360, Note_on_c, 1, 51, 80
2, 165479, Note_on_c, 1, 51, 0
2, 165480, Note_on_c, 1, 49, 80
2, 165599, Note_on_c, 1, 49, 0
2, 165600, Note_on_c, 1, 48, 80
2, 165719, Note_on_c, 1, 48, 0
2, 165720, Note_on_c, 1, 49, 80
2, 165839, Note_on_c, 1, 49, 0
2, 165840, Note_on_c, 1, 46, 80
2, 165959, Note_on_c, 1, 46, 0
2, 165960, Note_on_c, 1, 48, 80
2, 166079, Note_on_c, 1, 48, 0
2, 166080, Note_on_c, 1, 49, 80
2, 166199, Note_on_c, 1, 49, 0
2, 166200, Note_on_c, 1, 51, 80
2, 166319, Note_on_c, 1, 51, 0
2, 166320, Note_on_c, 1, 52, 80
2, 166439, Note_on_c, 1, 52, 0
2, 166440, Note_on_c, 1, 54, 80
2, 166559, Note_on_c, 1, 54, 0
2, 166560, Note_on_c, 1, 56, 80
2, 166799, Note_on_c, 1, 56, 0
2, 166800, Note_on_c, 1, 61, 80
2, 167039, Note_on_c, 1, 61, 0
2, 167040, Note_on_c, 1, 53, 80
2, 167279, Note_on_c, 1, 53, 0
2, 167280, Note_on_c, 1, 56, 80
2, 167519, Note_on_c, 1, 56, 0
2, 167520, Note_on_c, 1, 61, 80
2, 167759, Note_on_c, 1, 61, 0
2, 167760, Note_on_c, 1, 65, 80
2, 167999, Note_on_c, 1, 65, 0
2, 168000, Note_on_c, 1, 66, 80
2, 168359, Note_on_c, 1, 66, 0
2, 168360, Note_on_c, 1, 64, 80
2, 168479, Note_on_c, 1, 64, 0
2, 168480, Note_on_c, 1, 63, 80
2, 168719, Note_on_c, 1, 63, 0
2, 168720, Note_on_c, 1, 62, 80
2, 169079, Note_on_c, 1, 62, 0
2, 169080, Note_on_c, 1, 61, 80
2, 169199, Note_on_c, 1, 61, 0
2, 169200, Note_on_c, 1, 59, 80
2, 169319, Note_on_c, 1, 59, 0
2, 169320, Note_on_c, 1, 62, 80
2, 169439, Note_on_c, 1, 62, 0
2, 169440, Note_on_c, 1, 61, 80
2, 169679, Note_on_c, 1, 61, 0
2, 169680, Note_on_c, 1, 61, 80
2, 170159, Note_on_c, 1, 61, 0
2, 170160, Note_on_c, 1, 57, 80
2, 170279, Note_on_c, 1, 57, 0
2, 170280, Note_on_c, 1, 57, 80
2, 170399, Note_on_c, 1, 57, 0
2, 170400, Note_on_c, 1, 57, 80
2, 170639, Note_on_c, 1, 57, 0
2, 170640, Note_on_c, 1, 54, 80
2, 170759, Note_on_c, 1, 54, 0
2, 170760, Note_on_c, 1, 54, 80
2, 170879, Note_on_c, 1, 54, 0
2, 170880, Note_on_c, 1, 54, 80
2, 171119, Note_on_c, 1, 54, 0
2, 171120, Note_on_c, 1, 57, 80
2, 171239, Note_on_c, 1, 57, 0
2, 171240, Note_on_c, 1, 57, 80
2, 171359, Note_on_c, 1, 57, 0
2, 171360, Note_on_c, 1, 51, 80
2, 171599, Note_on_c, 1, 51, 0
2, 171960, Note_on_c, 1, 64, 80
2, 172079, Note_on_c, 1, 64, 0
2, 172080, Note_on_c, 1, 64, 80
2, 172199, Note_on_c, 1, 64, 0
2, 172200, Note_on_c, 1, 63, 80
2, 172319, Note_on_c, 1, 63, 0
2, 172320, Note_on_c, 1, 63, 80
2, 172439, Note_on_c, 1, 63, 0
2, 172440, Note_on_c, 1, 66, 80
2, 172559, Note_on_c, 1, 66, 0
2, 172560, Note_on_c, 1, 66, 80
2, 172679, Note_on_c, 1, 66, 0
2, 172680, Note_on_c, 1, 65, 80
2, 172799, Note_on_c, 1, 65, 0
2, 172800, Note_on_c, 1, 65, 80
2, 172919, Note_on_c, 1, 65, 0
2, 172920, Note_on_c, 1, 68, 80
2, 173039, Note_on_c, 1, 68, 0
2, 173040, Note_on_c, 1, 68, 80
2, 173159, Note_on_c, 1, 68, 0
2, 173160, Note_on_c, 1, 66, 80
2, 173279, Note_on_c, 1, 66, 0
2, 173280, Note_on_c, 1, 66, 80
2, 173519, Note_on_c, 1, 66, 0
2, 173520, Note_on_c, 1, 69, 80
2, 173759, Note_on_c, 1, 69, 0
2, 173760, Note_on_c, 1, 68, 80
2, 173999, Note_on_c, 1, 68, 0
2, 174000, Note_on_c, 1, 71, 80
2, 174239, Note_on_c, 1, 71, 0
2, 174240, Note_on_c, 1, 69, 80
2, 174359, Note_on_c, 1, 69, 0
2, 174360, Note_on_c, 1, 68, 80
2, 174479, Note_on_c, 1, 68, 0
2, 174480, Note_on_c, 1, 69, 80
2, 174839, Note_on_c, 1, 69, 0
2, 174840, Note_on_c, 1, 67, 80
2, 174959, Note_on_c, 1, 67, 0
2, 174960, Note_on_c, 1, 68, 80
2, 175079, Note_on_c, 1, 68, 0
2, 175080, Note_on_c, 1, 68, 80
2, 175199, Note_on_c, 1, 68, 0
2, 175200, Note_on_c, 1, 68, 80
2, 175319, Note_on_c, 1, 68, 0
2, 175320, Note_on_c, 1, 65, 80
2, 175439, Note_on_c, 1, 65, 0
2, 175440, Note_on_c, 1, 66, 80
2, 175559, Note_on_c, 1, 66, 0
2, 175560, Note_on_c, 1, 66, 80
2, 175679, Note_on_c, 1, 66, 0
2, 175680, Note_on_c, 1, 66, 80
2, 175799, Note_on_c, 1, 66, 0
2, 175800, Note_on_c, 1, 63, 80
2, 175919, Note_on_c, 1, 63, 0
2, 175920, Note_on_c, 1, 64, 80
2, 176039, Note_on_c, 1, 64, 0
2, 176040, Note_on_c, 1, 64, 80
2, 176159, Note_on_c, 1, 64, 0
2, 176160, Note_on_c, 1, 64, 80
2, 176279, Note_on_c, 1, 64, 0
2, 176280, Note_on_c, 1, 63, 80
2, 176399, Note_on_c, 1, 63, 0
2, 176400, Note_on_c, 1, 61, 80
2, 176519, Note_on_c, 1, 61, 0
2, 176520, Note_on_c, 1, 60, 80
2, 176639, Note_on_c, 1, 60, 0
2, 176640, Note_on_c, 1, 61, 80
2, 176759, Note_on_c, 1, 61, 0
2, 176760, Note_on_c, 1, 64, 80
2, 176879, Note_on_c, 1, 64, 0
2, 176880, Note_on_c, 1, 63, 80
2, 176999, Note_on_c, 1, 63, 0
2, 177000, Note_on_c, 1, 61, 80
2, 177119, Note_on_c, 1, 61, 0
2, 177120, Note_on_c, 1, 60, 80
2, 177239, Note_on_c, 1, 60, 0
2, 177240, Note_on_c, 1, 61, 80
2, 177359, Note_on_c, 1, 61, 0
2, 177360, Note_on_c, 1, 58, 80
2, 177479, Note_on_c, 1, 58, 0
2, 177480, Note_on_c, 1, 60, 80
2, 177599, Note_on_c, 1, 60, 0
2, 177600, Note_on_c, 1, 61, 80
2, 177719, Note_on_c, 1, 61, 0
2, 177720, Note_on_c, 1, 57, 80
2, 177839, Note_on_c, 1, 57, 0
2, 177840, Note_on_c, 1, 56, 80
2, 177959, Note_on_c, 1, 56, 0
2, 177960, Note_on_c, 1, 54, 80
2, 178079, Note_on_c, 1, 54, 0
2, 178080, Note_on_c, 1, 56, 80
2, 178199, Note_on_c, 1, 56, 0
2, 178200, Note_on_c, 1, 61, 80
2, 178259, Note_on_c, 1, 61, 0
2, 178260, Note_on_c, 1, 59, 80
2, 178319, Note_on_c, 1, 59, 0
2, 178320, Note_on_c, 1, 57, 80
2, 178379, Note_on_c, 1, 57, 0
2, 178380, Note_on_c, 1, 56, 80
2, 178439, Note_on_c, 1, 56, 0
2, 178440, Note_on_c, 1, 54, 80
2, 178559, Note_on_c, 1, 54, 0
2, 178560, Note_on_c, 1, 52, 80
2, 178799, Note_on_c, 1, 52, 0
2, 178800, Note_on_c, 1, 51, 80
2, 178919, Note_on_c, 1, 51, 0
2, 178920, Note_on_c, 1, 49, 80
2, 179039, Note_on_c, 1, 49, 0
2, 179040, Note_on_c, 1, 51, 80
2, 179159, Note_on_c, 1, 51, 0
2, 179160, Note_on_c, 1, 52, 80
2, 179279, Note_on_c, 1, 52, 0
2, 179280, Note_on_c, 1, 54, 80
2, 179759, Note_on_c, 1, 54, 0
2, 179760, Note_on_c, 1, 53, 80
2, 179999, Note_on_c, 1, 53, 0
2, 180000, End_track
3, 0, Start_track
3, 0, Key_signature, 4, "major"
3, 5280, Note_on_c, 1, 56, 80
3, 5759, Note_on_c, 1, 56, 0
3, 5760, Note_on_c, 1, 54, 80
3, 5999, Note_on_c, 1, 54, 0
3, 6000, Note_on_c, 1, 59, 80
3, 6239, Note_on_c, 1, 59, 0
3, 6240, Note_on_c, 1, 53, 80
3, 6479, Note_on_c, 1, 53, 0
3, 6480, Note_on_c, 1, 52, 80
3, 6719, Note_on_c, 1, 52, 0
3, 6720, Note_on_c, 1, 51, 80
3, 6959, Note_on_c, 1, 51, 0
3, 6960, Note_on_c, 1, 56, 80
3, 7199, Note_on_c, 1, 56, 0
3, 7200, Note_on_c, 1, 49, 80
3, 7259, Note_on_c, 1, 49, 0
3, 7260, Note_on_c, 1, 47, 80
3, 7319, Note_on_c, 1, 47, 0
3, 7320, Note_on_c, 1, 49, 80
3, 7679, Note_on_c, 1, 49, 0
3, 7680, Note_on_c, 1, 47, 80
3, 7919, Note_on_c, 1, 47, 0
3, 7920, Note_on_c, 1, 49, 80
3, 8159, Note_on_c, 1, 49, 0
3, 8160, Note_on_c, 1, 51, 80
3, 8279, Note_on_c, 1, 51, 0
3, 8280, Note_on_c, 1, 49, 80
3, 8399, Note_on_c, 1, 49, 0
3, 8400, Note_on_c, 1, 51, 80
3, 8639, Note_on_c, 1, 51, 0
3, 8640, Note_on_c, 1, 44, 80
3, 8879, Note_on_c, 1, 44, 0
3, 8880, Note_on_c, 1, 54, 80
3, 9119, Note_on_c, 1, 54, 0
3, 9120, Note_on_c, 1, 52, 80
3, 9359, Note_on_c, 1, 52, 0
3, 9360, Note_on_c, 1, 51, 80
3, 9599, Note_on_c, 1, 51, 0
3, 9600, Note_on_c, 1, 52, 80
3, 9839, Note_on_c, 1, 52, 0
3, 9840, Note_on_c, 1, 57, 80
3, 10079, Note_on_c, 1, 57, 0
3, 10080, Note_on_c, 1, 56, 80
3, 10319, Note_on_c, 1, 56, 0
3, 10320, Note_on_c, 1, 55, 80
3, 10559, Note_on_c, 1, 55, 0
3, 10560, Note_on_c, 1, 57, 80
3, 11039, Note_on_c, 1, 57, 0
3, 11160, Note_on_c, 1, 54, 80
3, 11279, Note_on_c, 1, 54, 0
3, 11280, Note_on_c, 1, 52, 80
3, 11399, Note_on_c, 1, 52, 0
3, 11400, Note_on_c, 1, 51, 80
3, 11519, Note_on_c, 1, 51, 0
3, 11520, Note_on_c, 1, 52, 80
3, 11999, Note_on_c, 1, 52, 0
3, 12120, Note_on_c, 1, 51, 80
3, 12239, Note_on_c, 1, 51, 0
3, 12240, Note_on_c, 1, 49, 80
3, 12359, Note_on_c, 1, 49, 0
3, 12360, Note_on_c, 1, 48, 80
3, 12479, Note_on_c, 1, 48, 0
3, 12480, Note_on_c, 1, 49, 80
3, 12959, Note_on_c, 1, 49, 0
3, 13080, Note_on_c, 1, 47, 80
3, 13199, Note_on_c, 1, 47, 0
3, 13200, Note_on_c, 1, 45, 80
3, 13319, Note_on_c, 1, 45, 0
3, 13320, Note_on_c, 1, 44, 80
3, 13439, Note_on_c, 1, 44, 0
3, 13440, Note_on_c, 1, 45, 80
3, 13919, Note_on_c, 1, 45, 0
3, 13920, Note_on_c, 1, 47, 80
3, 14399, Note_on_c, 1, 47, 0
3, 14400, Note_on_c, 1, 40, 80
3, 14519, Note_on_c, 1, 40, 0
3, 14520, Note_on_c, 1, 44, 80
3, 14639, Note_on_c, 1, 44, 0
3, 14640, Note_on_c, 1, 42, 80
3, 14759, Note_on_c, 1, 42, 0
3, 14760, Note_on_c, 1, 40, 80
3, 14879, Note_on_c, 1, 40, 0
3, 14880, Note_on_c, 1, 42, 80
3, 14999, Note_on_c, 1, 42, 0
3, 15000, Note_on_c, 1, 39, 80
3, 15119, Note_on_c, 1, 39, 0
3, 15120, Note_on_c, 1, 40, 80
3, 15239, Note_on_c, 1, 40, 0
3, 15240, Note_on_c, 1, 37, 80
3, 15359, Note_on_c, 1, 37, 0
3, 15360, Note_on_c, 1, 44, 80
3, 15479, Note_on_c, 1, 44, 0
3, 15480, Note_on_c, 1, 54, 80
3, 15599, Note_on_c, 1, 54, 0
3, 15600, Note_on_c, 1, 52, 80
3, 15719, Note_on_c, 1, 52, 0
3, 15720, Note_on_c, 1, 51, 80
3, 15839, Note_on_c, 1, 51, 0
3, 15840, Note_on_c, 1, 52, 80
3, 15959, Note_on_c, 1, 52, 0
3, 15960, Note_on_c, 1, 49, 80
3, 16079, Note_on_c, 1, 49, 0
3, 16080, Note_on_c, 1, 51, 80
3, 16199, Note_on_c, 1, 51, 0
3, 16200, Note_on_c, 1, 48, 80
3, 16319, Note_on_c, 1, 48, 0
3, 16320, Note_on_c, 1, 49, 80
3, 17279, Note_on_c, 1, 49, 0
3, 17280, Note_on_c, 1, 48, 80
3, 17519, Note_on_c, 1, 48, 0
3, 17520, Note_on_c, 1, 56, 80
3, 17759, Note_on_c, 1, 56, 0
3, 17760, Note_on_c, 1, 49, 80
3, 17999, Note_on_c, 1, 49, 0
3, 18000, Note_on_c, 1, 52, 80
3, 18239, Note_on_c, 1, 52, 0
3, 18240, Note_on_c, 1, 45, 80
3, 18479, Note_on_c, 1, 45, 0
3, 18480, Note_on_c, 1, 44, 80
3, 18719, Note_on_c, 1, 44, 0
3, 18720, Note_on_c, 1, 45, 80
3, 18959, Note_on_c, 1, 45, 0
3, 18960, Note_on_c, 1, 42, 80
3, 19199, Note_on_c, 1, 42, 0
3, 19200, Note_on_c, 1, 44, 80
3, 19319, Note_on_c, 1, 44, 0
3, 19320, Note_on_c, 1, 56, 80
3, 19439, Note_on_c, 1, 56, 0
3, 19440, Note_on_c, 1, 54, 80
3, 19559, Note_on_c, 1, 54, 0
3, 19560, Note_on_c, 1, 52, 80
3, 19679, Note_on_c, 1, 52, 0
3, 19680, Note_on_c, 1, 54, 80
3, 19799, Note_on_c, 1, 54, 0
3, 19800, Note_on_c, 1, 51, 80
3, 19919, Note_on_c, 1, 51, 0
3, 19920, Note_on_c, 1, 52, 80
3, 20039, Note_on_c, 1, 52, 0
3, 20040, Note_on_c, 1, 49, 80
3, 20159, Note_on_c, 1, 49, 0
3, 20160, Note_on_c, 1, 51, 80
3, 20639, Note_on_c, 1, 51, 0
3, 20640, Note_on_c, 1, 49, 80
3, 20879, Note_on_c, 1, 49, 0
3, 20880, Note_on_c, 1, 54, 80
3, 21119, Note_on_c, 1, 54, 0
3, 21120, Note_on_c, 1, 48, 80
3, 21359, Note_on_c, 1, 48, 0
3, 21360, Note_on_c, 1, 47, 80
3, 21599, Note_on_c, 1, 47, 0
3, 21600, Note_on_c, 1, 46, 80
3, 21839, Note_on_c, 1, 46, 0
3, 21840, Note_on_c, 1, 51, 80
3, 22079, Note_on_c, 1, 51, 0
3, 22080, Note_on_c, 1, 44, 80
3, 22559, Note_on_c, 1, 44, 0
3, 22800, Note_on_c, 1, 56, 80
3, 22919, Note_on_c, 1, 56, 0
3, 22920, Note_on_c, 1, 54, 80
3, 23039, Note_on_c, 1, 54, 0
3, 23040, Note_on_c, 1, 53, 80
3, 23279, Note_on_c, 1, 53, 0
3, 23280, Note_on_c, 1, 49, 80
3, 23519, Note_on_c, 1, 49, 0
3, 23520, Note_on_c, 1, 51, 80
3, 23759, Note_on_c, 1, 51, 0
3, 23760, Note_on_c, 1, 53, 80
3, 23999, Note_on_c, 1, 53, 0
3, 24000, Note_on_c, 1, 42, 80
3, 24239, Note_on_c, 1, 42, 0
3, 24240, Note_on_c, 1, 44, 80
3, 24479, Note_on_c, 1, 44, 0
3, 24480, Note_on_c, 1, 45, 80
3, 24719, Note_on_c, 1, 45, 0
3, 24720, Note_on_c, 1, 42, 80
3, 24959, Note_on_c, 1, 42, 0
3, 24960, Note_on_c, 1, 47, 80
3, 25199, Note_on_c, 1, 47, 0
3, 25200, Note_on_c, 1, 49, 80
3, 25439, Note_on_c, 1, 49, 0
3, 25440, Note_on_c, 1, 51, 80
3, 25679, Note_on_c, 1, 51, 0
3, 25680, Note_on_c, 1, 47, 80
3, 25919, Note_on_c, 1, 47, 0
3, 25920, Note_on_c, 1, 42, 80
3, 26039, Note_on_c, 1, 42, 0
3, 26040, Note_on_c, 1, 54, 80
3, 26159, Note_on_c, 1, 54, 0
3, 26160, Note_on_c, 1, 52, 80
3, 26279, Note_on_c, 1, 52, 0
3, 26280, Note_on_c, 1, 51, 80
3, 26399, Note_on_c, 1, 51, 0
3, 26400, Note_on_c, 1, 52, 80
3, 26519, Note_on_c, 1, 52, 0
3, 26520, Note_on_c, 1, 49, 80
3, 26639, Note_on_c, 1, 49, 0
3, 26640, Note_on_c, 1, 51, 80
3, 26759, Note_on_c, 1, 51, 0
3, 26760, Note_on_c, 1, 48, 80
3, 26879, Note_on_c, 1, 48, 0
3, 26880, Note_on_c, 1, 49, 80
3, 26999, Note_on_c, 1, 49, 0
3, 27000, Note_on_c, 1, 50, 80
3, 27119, Note_on_c, 1, 50, 0
3, 27120, Note_on_c, 1, 49, 80
3, 27239, Note_on_c, 1, 49, 0
3, 27240, Note_on_c, 1, 47, 80
3, 27359, Note_on_c, 1, 47, 0
3, 27360, Note_on_c, 1, 49, 80
3, 27479, Note_on_c, 1, 49, 0
3, 27480, Note_on_c, 1, 45, 80
3, 27599, Note_on_c, 1, 45, 0
3, 27600, Note_on_c, 1, 47, 80
3, 27719, Note_on_c, 1, 47, 0
3, 27720, Note_on_c, 1, 44, 80
3, 27839, Note_on_c, 1, 44, 0
3, 27840, Note_on_c, 1, 45, 80
3, 27959, Note_on_c, 1, 45, 0
3, 27960, Note_on_c, 1, 47, 80
3, 28079, Note_on_c, 1, 47, 0
3, 28080, Note_on_c, 1, 45, 80
3, 28199, Note_on_c, 1, 45, 0
3, 28200, Note_on_c, 1, 44, 80
3, 28319, Note_on_c, 1, 44, 0
3, 28320, Note_on_c, 1, 45, 80
3, 28439, Note_on_c, 1, 45, 0
3, 28440, Note_on_c, 1, 42, 80
3, 28559, Note_on_c, 1, 42, 0
3, 28560, Note_on_c, 1, 44, 80
3, 28679, Note_on_c, 1, 44, 0
3, 28680, Note_on_c, 1, 41, 80
3, 28799, Note_on_c, 1, 41, 0
3, 28800, Note_on_c, 1, 44, 80
3, 28859, Note_on_c, 1, 44, 0
3, 28860, Note_on_c, 1, 42, 80
3, 28919, Note_on_c, 1, 42, 0
3, 28920, Note_on_c, 1, 44, 80
3, 28979, Note_on_c, 1, 44, 0
3, 28980, Note_on_c, 1, 42, 80
3, 29039, Note_on_c, 1, 42, 0
3, 29040, Note_on_c, 1, 44, 80
3, 29099, Note_on_c, 1, 44, 0
3, 29100, Note_on_c, 1, 42, 80
3, 29159, Note_on_c, 1, 42, 0
3, 29160, Note_on_c, 1, 44, 80
3, 29219, Note_on_c, 1, 44, 0
3, 29220, Note_on_c, 1, 42, 80
3, 29279, Note_on_c, 1, 42, 0
3, 29280, Note_on_c, 1, 44, 80
3, 29339, Note_on_c, 1, 44, 0
3, 29340, Note_on_c, 1, 42, 80
3, 29399, Note_on_c, 1, 42, 0
3, 29400, Note_on_c, 1, 44, 80
3, 29459, Note_on_c, 1, 44, 0
3, 29460, Note_on_c, 1, 42, 80
3, 29519, Note_on_c, 1, 42, 0
3, 29520, Note_on_c, 1, 44, 80
3, 29579, Note_on_c, 1, 44, 0
3, 29580, Note_on_c, 1, 42, 80
3, 29639, Note_on_c, 1, 42, 0
3, 29640, Note_on_c, 1, 44, 80
3, 29699, Note_on_c, 1, 44, 0
3, 29700, Note_on_c, 1, 42, 80
3, 29759, Note_on_c, 1, 42, 0
3, 29760, Note_on_c, 1, 44, 80
3, 29819, Note_on_c, 1, 44, 0
3, 29820, Note_on_c, 1, 42, 80
3, 29879, Note_on_c, 1, 42, 0
3, 29880, Note_on_c, 1, 44, 80
3, 29939, Note_on_c, 1, 44, 0
3, 29940, Note_on_c, 1, 42, 80
3, 29999, Note_on_c, 1, 42, 0
3, 30000, Note_on_c, 1, 44, 80
3, 30059, Note_on_c, 1, 44, 0
3, 30060, Note_on_c, 1, 42, 80
3, 30119, Note_on_c, 1, 42, 0
3, 30120, Note_on_c, 1, 44, 80
3, 30179, Note_on_c, 1, 44, 0
3, 30180, Note_on_c, 1, 42, 80
3, 30239, Note_on_c, 1, 42, 0
3, 30240, Note_on_c, 1, 44, 80
3, 30299, Note_on_c, 1, 44, 0
3, 30300, Note_on_c, 1, 42, 80
3, 30359, Note_on_c, 1, 42, 0
3, 30360, Note_on_c, 1, 44, 80
3, 30419, Note_on_c, 1, 44, 0
3, 30420, Note_on_c, 1, 42, 80
3, 30479, Note_on_c, 1, 42, 0
3, 30480, Note_on_c, 1, 44, 80
3, 30539, Note_on_c, 1, 44, 0
3, 30540, Note_on_c, 1, 42, 80
3, 30599, Note_on_c, 1, 42, 0
3, 30600, Note_on_c, 1, 44, 80
3, 30659, Note_on_c, 1, 44, 0
3, 30660, Note_on_c, 1, 42, 80
3, 30719, Note_on_c, 1, 42, 0
3, 30720, Note_on_c, 1, 44, 80
3, 30779, Note_on_c, 1, 44, 0
3, 30780, Note_on_c, 1, 42, 80
3, 30839, Note_on_c, 1, 42, 0
3, 30840, Note_on_c, 1, 44, 80
3, 30959, Note_on_c, 1, 44, 0
3, 30960, Note_on_c, 1, 42, 80
3, 31079, Note_on_c, 1, 42, 0
3, 31080, Note_on_c, 1, 40, 80
3, 31199, Note_on_c, 1, 40, 0
3, 31200, Note_on_c, 1, 42, 80
3, 31319, Note_on_c, 1, 42, 0
3, 31320, Note_on_c, 1, 39, 80
3, 31439, Note_on_c, 1, 39, 0
3, 31440, Note_on_c, 1, 40, 80
3, 31559, Note_on_c, 1, 40, 0
3, 31560, Note_on_c, 1, 37, 80
3, 31679, Note_on_c, 1, 37, 0
3, 31680, Note_on_c, 1, 36, 80
3, 31799, Note_on_c, 1, 36, 0
3, 31800, Note_on_c, 1, 45, 80
3, 31919, Note_on_c, 1, 45, 0
3, 31920, Note_on_c, 1, 44, 80
3, 32039, Note_on_c, 1, 44, 0
3, 32040, Note_on_c, 1, 42, 80
3, 32159, Note_on_c, 1, 42, 0
3, 32160, Note_on_c, 1, 44, 80
3, 32279, Note_on_c, 1, 44, 0
3, 32280, Note_on_c, 1, 40, 80
3, 32399, Note_on_c, 1, 40, 0
3, 32400, Note_on_c, 1, 42, 80
3, 32519, Note_on_c, 1, 42, 0
3, 32520, Note_on_c, 1, 39, 80
3, 32639, Note_on_c, 1, 39, 0
3, 32640, Note_on_c, 1, 40, 80
3, 32879, Note_on_c, 1, 40, 0
3, 32880, Note_on_c, 1, 44, 80
3, 33119, Note_on_c, 1, 44, 0
3, 33120, Note_on_c, 1, 49, 80
3, 33599, Note_on_c, 1, 49, 0
3, 33600, Note_on_c, 1, 47, 80
3, 33839, Note_on_c, 1, 47, 0
3, 33840, Note_on_c, 1, 52, 80
3, 34079, Note_on_c, 1, 52, 0
3, 34080, Note_on_c, 1, 46, 80
3, 34319, Note_on_c, 1, 46, 0
3, 34320, Note_on_c, 1, 45, 80
3, 34559, Note_on_c, 1, 45, 0
3, 34560, Note_on_c, 1, 44, 80
3, 34799, Note_on_c, 1, 44, 0
3, 34800, Note_on_c, 1, 49, 80
3, 35039, Note_on_c, 1, 49, 0
3, 35040, Note_on_c, 1, 42, 80
3, 35519, Note_on_c, 1, 42, 0
3, 35520, Note_on_c, 1, 40, 80
3, 35759, Note_on_c, 1, 40, 0
3, 35760, Note_on_c, 1, 42, 80
3, 35999, Note_on_c, 1, 42, 0
3, 36000, Note_on_c, 1, 44, 80
3, 36119, Note_on_c, 1, 44, 0
3, 36120, Note_on_c, 1, 42, 80
3, 36239, Note_on_c, 1, 42, 0
3, 36240, Note_on_c, 1, 44, 80
3, 36479, Note_on_c, 1, 44, 0
3, 36480, Note_on_c, 1, 37, 80
3, 36959, Note_on_c, 1, 37, 0
3, 39480, Note_on_c, 1, 57, 80
3, 39599, Note_on_c, 1, 57, 0
3, 39600, Note_on_c, 1, 56, 80
3, 39719, Note_on_c, 1, 56, 0
3, 39720, Note_on_c, 1, 54, 80
3, 39839, Note_on_c, 1, 54, 0
3, 39840, Note_on_c, 1, 53, 80
3, 39959, Note_on_c, 1, 53, 0
3, 39960, Note_on_c, 1, 54, 80
3, 40079, Note_on_c, 1, 54, 0
3, 40080, Note_on_c, 1, 51, 80
3, 40199, Note_on_c, 1, 51, 0
3, 40200, Note_on_c, 1, 53, 80
3, 40319, Note_on_c, 1, 53, 0
3, 40320, Note_on_c, 1, 54, 80
3, 40559, Note_on_c, 1, 54, 0
3, 40560, Note_on_c, 1, 49, 80
3, 40799, Note_on_c, 1, 49, 0
3, 40800, Note_on_c, 1, 54, 80
3, 41279, Note_on_c, 1, 54, 0
3, 41280, Note_on_c, 1, 52, 80
3, 41519, Note_on_c, 1, 52, 0
3, 41520, Note_on_c, 1, 56, 80
3, 41759, Note_on_c, 1, 56, 0
3, 41760, Note_on_c, 1, 51, 80
3, 41999, Note_on_c, 1, 51, 0
3, 42000, Note_on_c, 1, 50, 80
3, 42239, Note_on_c, 1, 50, 0
3, 42240, Note_on_c, 1, 49, 80
3, 42479, Note_on_c, 1, 49, 0
3, 42480, Note_on_c, 1, 54, 80
3, 42719, Note_on_c, 1, 54, 0
3, 42720, Note_on_c, 1, 47, 80
3, 42779, Note_on_c, 1, 47, 0
3, 42780, Note_on_c, 1, 45, 80
3, 42839, Note_on_c, 1, 45, 0
3, 42840, Note_on_c, 1, 47, 80
3, 43199, Note_on_c, 1, 47, 0
3, 43200, Note_on_c, 1, 45, 80
3, 43439, Note_on_c, 1, 45, 0
3, 43440, Note_on_c, 1, 47, 80
3, 43679, Note_on_c, 1, 47, 0
3, 43680, Note_on_c, 1, 49, 80
3, 43799, Note_on_c, 1, 49, 0
3, 43800, Note_on_c, 1, 47, 80
3, 43919, Note_on_c, 1, 47, 0
3, 43920, Note_on_c, 1, 49, 80
3, 44159, Note_on_c, 1, 49, 0
3, 44160, Note_on_c, 1, 42, 80
3, 44639, Note_on_c, 1, 42, 0
3, 44880, Note_on_c, 1, 54, 80
3, 45119, Note_on_c, 1, 54, 0
3, 45120, Note_on_c, 1, 47, 80
3, 45599, Note_on_c, 1, 47, 0
3, 45840, Note_on_c, 1, 47, 80
3, 46079, Note_on_c, 1, 47, 0
3, 46080, Note_on_c, 1, 40, 80
3, 46559, Note_on_c, 1, 40, 0
3, 46800, Note_on_c, 1, 52, 80
3, 47159, Note_on_c, 1, 52, 0
3, 47160, Note_on_c, 1, 50, 80
3, 47279, Note_on_c, 1, 50, 0
3, 47280, Note_on_c, 1, 51, 80
3, 47399, Note_on_c, 1, 51, 0
3, 47400, Note_on_c, 1, 51, 80
3, 47519, Note_on_c, 1, 51, 0
3, 47520, Note_on_c, 1, 51, 80
3, 47639, Note_on_c, 1, 51, 0
3, 47640, Note_on_c, 1, 48, 80
3, 47759, Note_on_c, 1, 48, 0
3, 47760, Note_on_c, 1, 49, 80
3, 47879, Note_on_c, 1, 49, 0
3, 47880, Note_on_c, 1, 49, 80
3, 47999, Note_on_c, 1, 49, 0
3, 48000, Note_on_c, 1, 49, 80
3, 48119, Note_on_c, 1, 49, 0
3, 48120, Note_on_c, 1, 46, 80
3, 48239, Note_on_c, 1, 46, 0
3, 48240, Note_on_c, 1, 47, 80
3, 48359, Note_on_c, 1, 47, 0
3, 48360, Note_on_c, 1, 47, 80
3, 48479, Note_on_c, 1, 47, 0
3, 48480, Note_on_c, 1, 47, 80
3, 48599, Note_on_c, 1, 47, 0
3, 48600, Note_on_c, 1, 46, 80
3, 48719, Note_on_c, 1, 46, 0
3, 48720, Note_on_c, 1, 44, 80
3, 48839, Note_on_c, 1, 44, 0
3, 48840, Note_on_c, 1, 43, 80
3, 48959, Note_on_c, 1, 43, 0
3, 48960, Note_on_c, 1, 44, 80
3, 49439, Note_on_c, 1, 44, 0
3, 49680, Note_on_c, 1, 54, 80
3, 50039, Note_on_c, 1, 54, 0
3, 50040, Note_on_c, 1, 52, 80
3, 50159, Note_on_c, 1, 52, 0
3, 50160, Note_on_c, 1, 51, 80
3, 50279, Note_on_c, 1, 51, 0
3, 50280, Note_on_c, 1, 49, 80
3, 50399, Note_on_c, 1, 49, 0
3, 50400, Note_on_c, 1, 48, 80
3, 50519, Note_on_c, 1, 48, 0
3, 50520, Note_on_c, 1, 49, 80
3, 50639, Note_on_c, 1, 49, 0
3, 50640, Note_on_c, 1, 46, 80
3, 50759, Note_on_c, 1, 46, 0
3, 50760, Note_on_c, 1, 48, 80
3, 50879, Note_on_c, 1, 48, 0
3, 50880, Note_on_c, 1, 49, 80
3, 51359, Note_on_c, 1, 49, 0
3, 51600, Note_on_c, 1, 51, 80
3, 51839, Note_on_c, 1, 51, 0
3, 51840, Note_on_c, 1, 52, 80
3, 52079, Note_on_c, 1, 52, 0
3, 52080, Note_on_c, 1, 40, 80
3, 52199, Note_on_c, 1, 40, 0
3, 52200, Note_on_c, 1, 42, 80
3, 52319, Note_on_c, 1, 42, 0
3, 52320, Note_on_c, 1, 44, 80
3, 52559, Note_on_c, 1, 44, 0
3, 52560, Note_on_c, 1, 46, 80
3, 52799, Note_on_c, 1, 46, 0
3, 52800, Note_on_c, 1, 47, 80
3, 53039, Note_on_c, 1, 47, 0
3, 53040, Note_on_c, 1, 45, 80
3, 53279, Note_on_c, 1, 45, 0
3, 53280, Note_on_c, 1, 44, 80
3, 53519, Note_on_c, 1, 44, 0
3, 53520, Note_on_c, 1, 53, 80
3, 53759, Note_on_c, 1, 53, 0
3, 53760, Note_on_c, 1, 44, 80
3, 53879, Note_on_c, 1, 44, 0
3, 53880, Note_on_c, 1, 52, 80
3, 53999, Note_on_c, 1, 52, 0
3, 54000, Note_on_c, 1, 51, 80
3, 54119, Note_on_c, 1, 51, 0
3, 54120, Note_on_c, 1, 49, 80
3, 54239, Note_on_c, 1, 49, 0
3, 54240, Note_on_c, 1, 48, 80
3, 54359, Note_on_c, 1, 48, 0
3, 54360, Note_on_c, 1, 49, 80
3, 54479, Note_on_c, 1, 49, 0
3, 54480, Note_on_c, 1, 46, 80
3, 54599, Note_on_c, 1, 46, 0
3, 54600, Note_on_c, 1, 48, 80
3, 54719, Note_on_c, 1, 48, 0
3, 54720, Note_on_c, 1, 49, 80
3, 54839, Note_on_c, 1, 49, 0
3, 54840, Note_on_c, 1, 51, 80
3, 54959, Note_on_c, 1, 51, 0
3, 54960, Note_on_c, 1, 52, 80
3, 55079, Note_on_c, 1, 52, 0
3, 55080, Note_on_c, 1, 54, 80
3, 55199, Note_on_c, 1, 54, 0
3, 55200, Note_on_c, 1, 56, 80
3, 55319, Note_on_c, 1, 56, 0
3, 55320, Note_on_c, 1, 54, 80
3, 55439, Note_on_c, 1, 54, 0
3, 55440, Note_on_c, 1, 57, 80
3, 55559, Note_on_c, 1, 57, 0
3, 55560, Note_on_c, 1, 56, 80
3, 55679, Note_on_c, 1, 56, 0
3, 55680, Note_on_c, 1, 54, 80
3, 55799, Note_on_c, 1, 54, 0
3, 55800, Note_on_c, 1, 52, 80
3, 55919, Note_on_c, 1, 52, 0
3, 55920, Note_on_c, 1, 56, 80
3, 56039, Note_on_c, 1, 56, 0
3, 56040, Note_on_c, 1, 54, 80
3, 56159, Note_on_c, 1, 54, 0
3, 56160, Note_on_c, 1, 52, 80
3, 56279, Note_on_c, 1, 52, 0
3, 56280, Note_on_c, 1, 51, 80
3, 56399, Note_on_c, 1, 51, 0
3, 56400, Note_on_c, 1, 54, 80
3, 56519, Note_on_c, 1, 54, 0
3, 56520, Note_on_c, 1, 52, 80
3, 56639, Note_on_c, 1, 52, 0
3, 56640, Note_on_c, 1, 51, 80
3, 56759, Note_on_c, 1, 51, 0
3, 56760, Note_on_c, 1, 52, 80
3, 56879, Note_on_c, 1, 52, 0
3, 56880, Note_on_c, 1, 54, 80
3, 56999, Note_on_c, 1, 54, 0
3, 57000, Note_on_c, 1, 56, 80
3, 57119, Note_on_c, 1, 56, 0
3, 57120, Note_on_c, 1, 57, 80
3, 57239, Note_on_c, 1, 57, 0
3, 57240, Note_on_c, 1, 56, 80
3, 57359, Note_on_c, 1, 56, 0
3, 57360, Note_on_c, 1, 59, 80
3, 57479, Note_on_c, 1, 59, 0
3, 57480, Note_on_c, 1, 57, 80
3, 57599, Note_on_c, 1, 57, 0
3, 57600, Note_on_c, 1, 49, 80
3, 57719, Note_on_c, 1, 49, 0
3, 57720, Note_on_c, 1, 51, 80
3, 57839, Note_on_c, 1, 51, 0
3, 57840, Note_on_c, 1, 52, 80
3, 57959, Note_on_c, 1, 52, 0
3, 57960, Note_on_c, 1, 54, 80
3, 58079, Note_on_c, 1, 54, 0
3, 58080, Note_on_c, 1, 56, 80
3, 58199, Note_on_c, 1, 56, 0
3, 58200, Note_on_c, 1, 54, 80
3, 58319, Note_on_c, 1, 54, 0
3, 58320, Note_on_c, 1, 57, 80
3, 58439, Note_on_c, 1, 57, 0
3, 58440, Note_on_c, 1, 56, 80
3, 58559, Note_on_c, 1, 56, 0
3, 58560, Note_on_c, 1, 47, 80
3, 59999, Note_on_c, 1, 47, 0
3, 60240, Note_on_c, 1, 48, 80
3, 60479, Note_on_c, 1, 48, 0
3, 60480, Note_on_c, 1, 49, 80
3, 60599, Note_on_c, 1, 49, 0
3, 60600, Note_on_c, 1, 61, 80
3, 60719, Note_on_c, 1, 61, 0
3, 60720, Note_on_c, 1, 59, 80
3, 60839, Note_on_c, 1, 59, 0
3, 60840, Note_on_c, 1, 57, 80
3, 60959, Note_on_c, 1, 57, 0
3, 60960, Note_on_c, 1, 56, 80
3, 61079, Note_on_c, 1, 56, 0
3, 61080, Note_on_c, 1, 57, 80
3, 61199, Note_on_c, 1, 57, 0
3, 61200, Note_on_c, 1, 54, 80
3, 61319, Note_on_c, 1, 54, 0
3, 61320, Note_on_c, 1, 56, 80
3, 61439, Note_on_c, 1, 56, 0
3, 61440, Note_on_c, 1, 57, 80
3, 61559, Note_on_c, 1, 57, 0
3, 61560, Note_on_c, 1, 56, 80
3, 61679, Note_on_c, 1, 56, 0
3, 61680, Note_on_c, 1, 54, 80
3, 61799, Note_on_c, 1, 54, 0
3, 61800, Note_on_c, 1, 52, 80
3, 61919, Note_on_c, 1, 52, 0
3, 61920, Note_on_c, 1, 51, 80
3, 62039, Note_on_c, 1, 51, 0
3, 62040, Note_on_c, 1, 52, 80
3, 62159, Note_on_c, 1, 52, 0
3, 62160, Note_on_c, 1, 49, 80
3, 62279, Note_on_c, 1, 49, 0
3, 62280, Note_on_c, 1, 51, 80
3, 62399, Note_on_c, 1, 51, 0
3, 62400, Note_on_c, 1, 52, 80
3, 62519, Note_on_c, 1, 52, 0
3, 62520, Note_on_c, 1, 51, 80
3, 62639, Note_on_c, 1, 51, 0
3, 62640, Note_on_c, 1, 49, 80
3, 62759, Note_on_c, 1, 49, 0
3, 62760, Note_on_c, 1, 47, 80
3, 62879, Note_on_c, 1, 47, 0
3, 62880, Note_on_c, 1, 46, 80
3, 62999, Note_on_c, 1, 46, 0
3, 63000, Note_on_c, 1, 47, 80
3, 63119, Note_on_c, 1, 47, 0
3, 63120, Note_on_c, 1, 44, 80
3, 63239, Note_on_c, 1, 44, 0
3, 63240, Note_on_c, 1, 46, 80
3, 63359, Note_on_c, 1, 46, 0
3, 63360, Note_on_c, 1, 47, 80
3, 63479, Note_on_c, 1, 47, 0
3, 63480, Note_on_c, 1, 49, 80
3, 63599, Note_on_c, 1, 49, 0
3, 63600, Note_on_c, 1, 51, 80
3, 63719, Note_on_c, 1, 51, 0
3, 63720, Note_on_c, 1, 52, 80
3, 63839, Note_on_c, 1, 52, 0
3, 63840, Note_on_c, 1, 54, 80
3, 63959, Note_on_c, 1, 54, 0
3, 63960, Note_on_c, 1, 52, 80
3, 64079, Note_on_c, 1, 52, 0
3, 64080, Note_on_c, 1, 56, 80
3, 64199, Note_on_c, 1, 56, 0
3, 64200, Note_on_c, 1, 54, 80
3, 64319, Note_on_c, 1, 54, 0
3, 64320, Note_on_c, 1, 56, 80
3, 64559, Note_on_c, 1, 56, 0
3, 64560, Note_on_c, 1, 61, 80
3, 64799, Note_on_c, 1, 61, 0
3, 64800, Note_on_c, 1, 54, 80
3, 65039, Note_on_c, 1, 54, 0
3, 65040, Note_on_c, 1, 53, 80
3, 65279, Note_on_c, 1, 53, 0
3, 65280, Note_on_c, 1, 52, 80
3, 65519, Note_on_c, 1, 52, 0
3, 65520, Note_on_c, 1, 57, 80
3, 65759, Note_on_c, 1, 57, 0
3, 65760, Note_on_c, 1, 50, 80
3, 65999, Note_on_c, 1, 50, 0
3, 66240, Note_on_c, 1, 49, 80
3, 66479, Note_on_c, 1, 49, 0
3, 66480, Note_on_c, 1, 50, 80
3, 66719, Note_on_c, 1, 50, 0
3, 66720, Note_on_c, 1, 52, 80
3, 66839, Note_on_c, 1, 52, 0
3, 66840, Note_on_c, 1, 50, 80
3, 66959, Note_on_c, 1, 50, 0
3, 66960, Note_on_c, 1, 52, 80
3, 67199, Note_on_c, 1, 52, 0
3, 67200, Note_on_c, 1, 45, 80
3, 67439, Note_on_c, 1, 45, 0
3, 67440, Note_on_c, 1, 57, 80
3, 67919, Note_on_c, 1, 57, 0
3, 67920, Note_on_c, 1, 56, 80
3, 68159, Note_on_c, 1, 56, 0
3, 68160, Note_on_c, 1, 57, 80
3, 68279, Note_on_c, 1, 57, 0
3, 68280, Note_on_c, 1, 54, 80
3, 68399, Note_on_c, 1, 54, 0
3, 68400, Note_on_c, 1, 56, 80
3, 68519, Note_on_c, 1, 56, 0
3, 68520, Note_on_c, 1, 57, 80
3, 68639, Note_on_c, 1, 57, 0
3, 68640, Note_on_c, 1, 59, 80
3, 68759, Note_on_c, 1, 59, 0
3, 68760, Note_on_c, 1, 57, 80
3, 68879, Note_on_c, 1, 57, 0
3, 68880, Note_on_c, 1, 61, 80
3, 68999, Note_on_c, 1, 61, 0
3, 69000, Note_on_c, 1, 59, 80
3, 69119, Note_on_c, 1, 59, 0
3, 69120, Note_on_c, 1, 57, 80
3, 69359, Note_on_c, 1, 57, 0
3, 69360, Note_on_c, 1, 62, 80
3, 69599, Note_on_c, 1, 62, 0
3, 69600, Note_on_c, 1, 59, 80
3, 69839, Note_on_c, 1, 59, 0
3, 69840, Note_on_c, 1, 61, 80
3, 70079, Note_on_c, 1, 61, 0
3, 70080, Note_on_c, 1, 54, 80
3, 70319, Note_on_c, 1, 54, 0
3, 70320, Note_on_c, 1, 50, 80
3, 70559, Note_on_c, 1, 50, 0
3, 70560, Note_on_c, 1, 48, 80
3, 70799, Note_on_c, 1, 48, 0
3, 70800, Note_on_c, 1, 49, 80
3, 71039, Note_on_c, 1, 49, 0
3, 71040, Note_on_c, 1, 46, 80
3, 71279, Note_on_c, 1, 46, 0
3, 71280, Note_on_c, 1, 47, 80
3, 71519, Note_on_c, 1, 47, 0
3, 71520, Note_on_c, 1, 44, 80
3, 71759, Note_on_c, 1, 44, 0
3, 71760, Note_on_c, 1, 45, 80
3, 71999, Note_on_c, 1, 45, 0
3, 72000, Note_on_c, 1, 42, 80
3, 72239, Note_on_c, 1, 42, 0
3, 72240, Note_on_c, 1, 43, 80
3, 72479, Note_on_c, 1, 43, 0
3, 72480, Note_on_c, 1, 41, 80
3, 72719, Note_on_c, 1, 41, 0
3, 72720, Note_on_c, 1, 42, 80
3, 73079, Note_on_c, 1, 42, 0
3, 73080, Note_on_c, 1, 39, 80
3, 73199, Note_on_c, 1, 39, 0
3, 73200, Note_on_c, 1, 40, 80
3, 73319, Note_on_c, 1, 40, 0
3, 73320, Note_on_c, 1, 40, 80
3, 73439, Note_on_c, 1, 40, 0
3, 73440, Note_on_c, 1, 40, 80
3, 73559, Note_on_c, 1, 40, 0
3, 73560, Note_on_c, 1, 37, 80
3, 73679, Note_on_c, 1, 37, 0
3, 73680, Note_on_c, 1, 39, 80
3, 73799, Note_on_c, 1, 39, 0
3, 73800, Note_on_c, 1, 39, 80
3, 73919, Note_on_c, 1, 39, 0
3, 73920, Note_on_c, 1, 37, 80
3, 74159, Note_on_c, 1, 37, 0
3, 75120, Note_on_c, 1, 54, 80
3, 75479, Note_on_c, 1, 54, 0
3, 75480, Note_on_c, 1, 51, 80
3, 75599, Note_on_c, 1, 51, 0
3, 75600, Note_on_c, 1, 52, 80
3, 75719, Note_on_c, 1, 52, 0
3, 75720, Note_on_c, 1, 52, 80
3, 75839, Note_on_c, 1, 52, 0
3, 75840, Note_on_c, 1, 52, 80
3, 75959, Note_on_c, 1, 52, 0
3, 75960, Note_on_c, 1, 50, 80
3, 76079, Note_on_c, 1, 50, 0
3, 76080, Note_on_c, 1, 51, 80
3, 76199, Note_on_c, 1, 51, 0
3, 76200, Note_on_c, 1, 51, 80
3, 76319, Note_on_c, 1, 51, 0
3, 76320, Note_on_c, 1, 51, 80
3, 76439, Note_on_c, 1, 51, 0
3, 76440, Note_on_c, 1, 48, 80
3, 76559, Note_on_c, 1, 48, 0
3, 76560, Note_on_c, 1, 49, 80
3, 76679, Note_on_c, 1, 49, 0
3, 76680, Note_on_c, 1, 49, 80
3, 76799, Note_on_c, 1, 49, 0
3, 76800, Note_on_c, 1, 49, 80
3, 76919, Note_on_c, 1, 49, 0
3, 76920, Note_on_c, 1, 46, 80
3, 77039, Note_on_c, 1, 46, 0
3, 77040, Note_on_c, 1, 47, 80
3, 77159, Note_on_c, 1, 47, 0
3, 77160, Note_on_c, 1, 47, 80
3, 77279, Note_on_c, 1, 47, 0
3, 77280, Note_on_c, 1, 47, 80
3, 77399, Note_on_c, 1, 47, 0
3, 77400, Note_on_c, 1, 46, 80
3, 77519, Note_on_c, 1, 46, 0
3, 77520, Note_on_c, 1, 44, 80
3, 77639, Note_on_c, 1, 44, 0
3, 77640, Note_on_c, 1, 43, 80
3, 77759, Note_on_c, 1, 43, 0
3, 77760, Note_on_c, 1, 44, 80
3, 78239, Note_on_c, 1, 44, 0
3, 78480, Note_on_c, 1, 49, 80
3, 78719, Note_on_c, 1, 49, 0
3, 78720, Note_on_c, 1, 48, 80
3, 78959, Note_on_c, 1, 48, 0
3, 78960, Note_on_c, 1, 47, 80
3, 79199, Note_on_c, 1, 47, 0
3, 79200, Note_on_c, 1, 46, 80
3, 79439, Note_on_c, 1, 46, 0
3, 79440, Note_on_c, 1, 47, 80
3, 79799, Note_on_c, 1, 47, 0
3, 79800, Note_on_c, 1, 45, 80
3, 79919, Note_on_c, 1, 45, 0
3, 79920, Note_on_c, 1, 44, 80
3, 80039, Note_on_c, 1, 44, 0
3, 80040, Note_on_c, 1, 42, 80
3, 80159, Note_on_c, 1, 42, 0
3, 80160, Note_on_c, 1, 41, 80
3, 80279, Note_on_c, 1, 41, 0
3, 80280, Note_on_c, 1, 42, 80
3, 80399, Note_on_c, 1, 42, 0
3, 80400, Note_on_c, 1, 39, 80
3, 80519, Note_on_c, 1, 39, 0
3, 80520, Note_on_c, 1, 40, 80
3, 80639, Note_on_c, 1, 40, 0
3, 80640, Note_on_c, 1, 42, 80
3, 80879, Note_on_c, 1, 42, 0
3, 80880, Note_on_c, 1, 54, 80
3, 81359, Note_on_c, 1, 54, 0
3, 81360, Note_on_c, 1, 53, 80
3, 81599, Note_on_c, 1, 53, 0
3, 81600, Note_on_c, 1, 54, 80
3, 81839, Note_on_c, 1, 54, 0
3, 81840, Note_on_c, 1, 52, 80
3, 82079, Note_on_c, 1, 52, 0
3, 82080, Note_on_c, 1, 51, 80
3, 82319, Note_on_c, 1, 51, 0
3, 82320, Note_on_c, 1, 49, 80
3, 82559, Note_on_c, 1, 49, 0
3, 82560, Note_on_c, 1, 48, 80
3, 82679, Note_on_c, 1, 48, 0
3, 82680, Note_on_c, 1, 57, 80
3, 82799, Note_on_c, 1, 57, 0
3, 82800, Note_on_c, 1, 56, 80
3, 82919, Note_on_c, 1, 56, 0
3, 82920, Note_on_c, 1, 54, 80
3, 83039, Note_on_c, 1, 54, 0
3, 83040, Note_on_c, 1, 52, 80
3, 83159, Note_on_c, 1, 52, 0
3, 83160, Note_on_c, 1, 54, 80
3, 83279, Note_on_c, 1, 54, 0
3, 83280, Note_on_c, 1, 51, 80
3, 83399, Note_on_c, 1, 51, 0
3, 83400, Note_on_c, 1, 52, 80
3, 83519, Note_on_c, 1, 52, 0
3, 83520, Note_on_c, 1, 49, 80
3, 83639, Note_on_c, 1, 49, 0
3, 83640, Note_on_c, 1, 51, 80
3, 83759, Note_on_c, 1, 51, 0
3, 83760, Note_on_c, 1, 49, 80
3, 83879, Note_on_c, 1, 49, 0
3, 83880, Note_on_c, 1, 47, 80
3, 83999, Note_on_c, 1, 47, 0
3, 84000, Note_on_c, 1, 45, 80
3, 84119, Note_on_c, 1, 45, 0
3, 84120, Note_on_c, 1, 47, 80
3, 84239, Note_on_c, 1, 47, 0
3, 84240, Note_on_c, 1, 44, 80
3, 84359, Note_on_c, 1, 44, 0
3, 84360, Note_on_c, 1, 45, 80
3, 84479, Note_on_c, 1, 45, 0
3, 84480, Note_on_c, 1, 42, 80
3, 84719, Note_on_c, 1, 42, 0
3, 84720, Note_on_c, 1, 51, 80
3, 84959, Note_on_c, 1, 51, 0
3, 84960, Note_on_c, 1, 41, 80
3, 85199, Note_on_c, 1, 41, 0
3, 85200, Note_on_c, 1, 40, 80
3, 85439, Note_on_c, 1, 40, 0
3, 85440, Note_on_c, 1, 39, 80
3, 85679, Note_on_c, 1, 39, 0
3, 85680, Note_on_c, 1, 44, 80
3, 85919, Note_on_c, 1, 44, 0
3, 85920, Note_on_c, 1, 37, 80
3, 86159, Note_on_c, 1, 37, 0
3, 86160, Note_on_c, 1, 54, 80
3, 86219, Note_on_c, 1, 54, 0
3, 86220, Note_on_c, 1, 52, 80
3, 86279, Note_on_c, 1, 52, 0
3, 86280, Note_on_c, 1, 51, 80
3, 86339, Note_on_c, 1, 51, 0
3, 86340, Note_on_c, 1, 49, 80
3, 86399, Note_on_c, 1, 49, 0
3, 86400, Note_on_c, 1, 48, 80
3, 86459, Note_on_c, 1, 48, 0
3, 86460, Note_on_c, 1, 49, 80
3, 86519, Note_on_c, 1, 49, 0
3, 86520, Note_on_c, 1, 51, 80
3, 86579, Note_on_c, 1, 51, 0
3, 86580, Note_on_c, 1, 52, 80
3, 86639, Note_on_c, 1, 52, 0
3, 86640, Note_on_c, 1, 51, 80
3, 86699, Note_on_c, 1, 51, 0
3, 86700, Note_on_c, 1, 49, 80
3, 86759, Note_on_c, 1, 49, 0
3, 86760, Note_on_c, 1, 48, 80
3, 86819, Note_on_c, 1, 48, 0
3, 86820, Note_on_c, 1, 46, 80
3, 86879, Note_on_c, 1, 46, 0
3, 86880, Note_on_c, 1, 44, 80
3, 86939, Note_on_c, 1, 44, 0
3, 86940, Note_on_c, 1, 46, 80
3, 86999, Note_on_c, 1, 46, 0
3, 87000, Note_on_c, 1, 48, 80
3, 87059, Note_on_c, 1, 48, 0
3, 87060, Note_on_c, 1, 49, 80
3, 87119, Note_on_c, 1, 49, 0
3, 87120, Note_on_c, 1, 48, 80
3, 87179, Note_on_c, 1, 48, 0
3, 87180, Note_on_c, 1, 46, 80
3, 87239, Note_on_c, 1, 46, 0
3, 87240, Note_on_c, 1, 44, 80
3, 87299, Note_on_c, 1, 44, 0
3, 87300, Note_on_c, 1, 42, 80
3, 87359, Note_on_c, 1, 42, 0
3, 87360, Note_on_c, 1, 40, 80
3, 87599, Note_on_c, 1, 40, 0
3, 87660, Note_on_c, 1, 37, 80
3, 87719, Note_on_c, 1, 37, 0
3, 87720, Note_on_c, 1, 39, 80
3, 87749, Note_on_c, 1, 39, 0
3, 87750, Note_on_c, 1, 40, 80
3, 87779, Note_on_c, 1, 40, 0
3, 87780, Note_on_c, 1, 42, 80
3, 87809, Note_on_c, 1, 42, 0
3, 87810, Note_on_c, 1, 44, 80
3, 87839, Note_on_c, 1, 44, 0
3, 87840, Note_on_c, 1, 47, 80
3, 87899, Note_on_c, 1, 47, 0
3, 87900, Note_on_c, 1, 45, 80
3, 87959, Note_on_c, 1, 45, 0
3, 87960, Note_on_c, 1, 44, 80
3, 88019, Note_on_c, 1, 44, 0
3, 88020, Note_on_c, 1, 45, 80
3, 88079, Note_on_c, 1, 45, 0
3, 88080, Note_on_c, 1, 47, 80
3, 88139, Note_on_c, 1, 47, 0
3, 88140, Note_on_c, 1, 45, 80
3, 88199, Note_on_c, 1, 45, 0
3, 88200, Note_on_c, 1, 47, 80
3, 88259, Note_on_c, 1, 47, 0
3, 88260, Note_on_c, 1, 45, 80
3, 88319, Note_on_c, 1, 45, 0
3, 88320, Note_on_c, 1, 44, 80
3, 88439, Note_on_c, 1, 44, 0
3, 88440, Note_on_c, 1, 56, 80
3, 88559, Note_on_c, 1, 56, 0
3, 88560, Note_on_c, 1, 54, 80
3, 88679, Note_on_c, 1, 54, 0
3, 88680, Note_on_c, 1, 52, 80
3, 88799, Note_on_c, 1, 52, 0
3, 88800, Note_on_c, 1, 51, 80
3, 88919, Note_on_c, 1, 51, 0
3, 88920, Note_on_c, 1, 52, 80
3, 89039, Note_on_c, 1, 52, 0
3, 89040, Note_on_c, 1, 49, 80
3, 89159, Note_on_c, 1, 49, 0
3, 89160, Note_on_c, 1, 51, 80
3, 89279, Note_on_c, 1, 51, 0
3, 89280, Note_on_c, 1, 52, 80
3, 89759, Note_on_c, 1, 52, 0
3, 89880, Note_on_c, 1, 51, 80
3, 89999, Note_on_c, 1, 51, 0
3, 90000, Note_on_c, 1, 49, 80
3, 90119, Note_on_c, 1, 49, 0
3, 90120, Note_on_c, 1, 48, 80
3, 90239, Note_on_c, 1, 48, 0
3, 90240, Note_on_c, 1, 49, 80
3, 90719, Note_on_c, 1, 49, 0
3, 90840, Note_on_c, 1, 47, 80
3, 90959, Note_on_c, 1, 47, 0
3, 90960, Note_on_c, 1, 45, 80
3, 91079, Note_on_c, 1, 45, 0
3, 91080, Note_on_c, 1, 44, 80
3, 91199, Note_on_c, 1, 44, 0
3, 91200, Note_on_c, 1, 42, 80
3, 91439, Note_on_c, 1, 42, 0
3, 91440, Note_on_c, 1, 54, 80
3, 91679, Note_on_c, 1, 54, 0
3, 91680, Note_on_c, 1, 56, 80
3, 91919, Note_on_c, 1, 56, 0
3, 91920, Note_on_c, 1, 44, 80
3, 92159, Note_on_c, 1, 44, 0
3, 92160, Note_on_c, 1, 45, 80
3, 92639, Note_on_c, 1, 45, 0
3, 92760, Note_on_c, 1, 57, 80
3, 92879, Note_on_c, 1, 57, 0
3, 92880, Note_on_c, 1, 56, 80
3, 92999, Note_on_c, 1, 56, 0
3, 93000, Note_on_c, 1, 54, 80
3, 93119, Note_on_c, 1, 54, 0
3, 93120, Note_on_c, 1, 54, 80
3, 93239, Note_on_c, 1, 54, 0
3, 93240, Note_on_c, 1, 51, 80
3, 93359, Note_on_c, 1, 51, 0
3, 93360, Note_on_c, 1, 52, 80
3, 93479, Note_on_c, 1, 52, 0
3, 93480, Note_on_c, 1, 52, 80
3, 93599, Note_on_c, 1, 52, 0
3, 93600, Note_on_c, 1, 52, 80
3, 93719, Note_on_c, 1, 52, 0
3, 93720, Note_on_c, 1, 49, 80
3, 93839, Note_on_c, 1, 49, 0
3, 93840, Note_on_c, 1, 51, 80
3, 93959, Note_on_c, 1, 51, 0
3, 93960, Note_on_c, 1, 51, 80
3, 94079, Note_on_c, 1, 51, 0
3, 94080, Note_on_c, 1, 49, 80
3, 94319, Note_on_c, 1, 49, 0
3, 94320, Note_on_c, 1, 61, 80
3, 94559, Note_on_c, 1, 61, 0
3, 94560, Note_on_c, 1, 56, 80
3, 94799, Note_on_c, 1, 56, 0
3, 94800, Note_on_c, 1, 58, 80
3, 95039, Note_on_c, 1, 58, 0
3, 95520, Note_on_c, 1, 61, 80
3, 95759, Note_on_c, 1, 61, 0
3, 95760, Note_on_c, 1, 63, 80
3, 95999, Note_on_c, 1, 63, 0
3, 96240, Note_on_c, 1, 64, 80
3, 96479, Note_on_c, 1, 64, 0
3, 96480, Note_on_c, 1, 63, 80
3, 96719, Note_on_c, 1, 63, 0
3, 96720, Note_on_c, 1, 61, 80
3, 96959, Note_on_c, 1, 61, 0
3, 97200, Note_on_c, 1, 59, 80
3, 97319, Note_on_c, 1, 59, 0
3, 97320, Note_on_c, 1, 58, 80
3, 97439, Note_on_c, 1, 58, 0
3, 97440, Note_on_c, 1, 59, 80
3, 97679, Note_on_c, 1, 59, 0
3, 97680, Note_on_c, 1, 61, 80
3, 97919, Note_on_c, 1, 61, 0
3, 97920, Note_on_c, 1, 63, 80
3, 99119, Note_on_c, 1, 63, 0
3, 99120, Note_on_c, 1, 55, 80
3, 99239, Note_on_c, 1, 55, 0
3, 99240, Note_on_c, 1, 64, 80
3, 99359, Note_on_c, 1, 64, 0
3, 99360, Note_on_c, 1, 56, 80
3, 99479, Note_on_c, 1, 56, 0
3, 99480, Note_on_c, 1, 63, 80
3, 99599, Note_on_c, 1, 63, 0
3, 99600, Note_on_c, 1, 58, 80
3, 99719, Note_on_c, 1, 58, 0
3, 99720, Note_on_c, 1, 61, 80
3, 99839, Note_on_c, 1, 61, 0
3, 99840, Note_on_c, 1, 59, 80
3, 99959, Note_on_c, 1, 59, 0
3, 99960, Note_on_c, 1, 58, 80
3, 100079, Note_on_c, 1, 58, 0
3, 100080, Note_on_c, 1, 59, 80
3, 100439, Note_on_c, 1, 59, 0
3, 100440, Note_on_c, 1, 58, 80
3, 100559, Note_on_c, 1, 58, 0
3, 100560, Note_on_c, 1, 56, 80
3, 100679, Note_on_c, 1, 56, 0
3, 100680, Note_on_c, 1, 55, 80
3, 100799, Note_on_c, 1, 55, 0
3, 100800, Note_on_c, 1, 56, 80
3, 101159, Note_on_c, 1, 56, 0
3, 101160, Note_on_c, 1, 54, 80
3, 101279, Note_on_c, 1, 54, 0
3, 101280, Note_on_c, 1, 52, 80
3, 101399, Note_on_c, 1, 52, 0
3, 101400, Note_on_c, 1, 51, 80
3, 101519, Note_on_c, 1, 51, 0
3, 101520, Note_on_c, 1, 49, 80
3, 101639, Note_on_c, 1, 49, 0
3, 101640, Note_on_c, 1, 47, 80
3, 101759, Note_on_c, 1, 47, 0
3, 101760, Note_on_c, 1, 46, 80
3, 101999, Note_on_c, 1, 46, 0
3, 102000, Note_on_c, 1, 39, 80
3, 102239, Note_on_c, 1, 39, 0
3, 102240, Note_on_c, 1, 41, 80
3, 102479, Note_on_c, 1, 41, 0
3, 102480, Note_on_c, 1, 43, 80
3, 102719, Note_on_c, 1, 43, 0
3, 102720, Note_on_c, 1, 44, 80
3, 103079, Note_on_c, 1, 44, 0
3, 103080, Note_on_c, 1, 43, 80
3, 103199, Note_on_c, 1, 43, 0
3, 103200, Note_on_c, 1, 44, 80
3, 103319, Note_on_c, 1, 44, 0
3, 103320, Note_on_c, 1, 47, 80
3, 103439, Note_on_c, 1, 47, 0
3, 103440, Note_on_c, 1, 46, 80
3, 103559, Note_on_c, 1, 46, 0
3, 103560, Note_on_c, 1, 49, 80
3, 103679, Note_on_c, 1, 49, 0
3, 103680, Note_on_c, 1, 47, 80
3, 104159, Note_on_c, 1, 47, 0
3, 104400, Note_on_c, 1, 48, 80
3, 104639, Note_on_c, 1, 48, 0
3, 104640, Note_on_c, 1, 49, 80
3, 104879, Note_on_c, 1, 49, 0
3, 104880, Note_on_c, 1, 44, 80
3, 105119, Note_on_c, 1, 44, 0
3, 105120, Note_on_c, 1, 45, 80
3, 105359, Note_on_c, 1, 45, 0
3, 105360, Note_on_c, 1, 49, 80
3, 105599, Note_on_c, 1, 49, 0
3, 105600, Note_on_c, 1, 42, 80
3, 105719, Note_on_c, 1, 42, 0
3, 105720, Note_on_c, 1, 49, 80
3, 105839, Note_on_c, 1, 49, 0
3, 105840, Note_on_c, 1, 54, 80
3, 105959, Note_on_c, 1, 54, 0
3, 105960, Note_on_c, 1, 49, 80
3, 106079, Note_on_c, 1, 49, 0
3, 106080, Note_on_c, 1, 56, 80
3, 106199, Note_on_c, 1, 56, 0
3, 106200, Note_on_c, 1, 59, 80
3, 106319, Note_on_c, 1, 59, 0
3, 106320, Note_on_c, 1, 58, 80
3, 106439, Note_on_c, 1, 58, 0
3, 106440, Note_on_c, 1, 61, 80
3, 106559, Note_on_c, 1, 61, 0
3, 106560, Note_on_c, 1, 50, 80
3, 106679, Note_on_c, 1, 50, 0
3, 106680, Note_on_c, 1, 54, 80
3, 106799, Note_on_c, 1, 54, 0
3, 106800, Note_on_c, 1, 52, 80
3, 106919, Note_on_c, 1, 52, 0
3, 106920, Note_on_c, 1, 55, 80
3, 107039, Note_on_c, 1, 55, 0
3, 107040, Note_on_c, 1, 46, 80
3, 107159, Note_on_c, 1, 46, 0
3, 107160, Note_on_c, 1, 49, 80
3, 107279, Note_on_c, 1, 49, 0
3, 107280, Note_on_c, 1, 47, 80
3, 107399, Note_on_c, 1, 47, 0
3, 107400, Note_on_c, 1, 50, 80
3, 107519, Note_on_c, 1, 50, 0
3, 107520, Note_on_c, 1, 41, 80
3, 107639, Note_on_c, 1, 41, 0
3, 107640, Note_on_c, 1, 44, 80
3, 107759, Note_on_c, 1, 44, 0
3, 107760, Note_on_c, 1, 42, 80
3, 107879, Note_on_c, 1, 42, 0
3, 107880, Note_on_c, 1, 45, 80
3, 107999, Note_on_c, 1, 45, 0
3, 108000, Note_on_c, 1, 36, 80
3, 108479, Note_on_c, 1, 36, 0
3, 108480, Note_on_c, 1, 39, 80
3, 108539, Note_on_c, 1, 39, 0
3, 108540, Note_on_c, 1, 37, 80
3, 108599, Note_on_c, 1, 37, 0
3, 108600, Note_on_c, 1, 39, 80
3, 108659, Note_on_c, 1, 39, 0
3, 108660, Note_on_c, 1, 37, 80
3, 108719, Note_on_c, 1, 37, 0
3, 108720, Note_on_c, 1, 39, 80
3, 108779, Note_on_c, 1, 39, 0
3, 108780, Note_on_c, 1, 37, 80
3, 108839, Note_on_c, 1, 37, 0
3, 108840, Note_on_c, 1, 39, 80
3, 108899, Note_on_c, 1, 39, 0
3, 108900, Note_on_c, 1, 37, 80
3, 108959, Note_on_c, 1, 37, 0
3, 108960, Note_on_c, 1, 39, 80
3, 109019, Note_on_c, 1, 39, 0
3, 109020, Note_on_c, 1, 37, 80
3, 109079, Note_on_c, 1, 37, 0
3, 109080, Note_on_c, 1, 39, 80
3, 109139, Note_on_c, 1, 39, 0
3, 109140, Note_on_c, 1, 37, 80
3, 109199, Note_on_c, 1, 37, 0
3, 109200, Note_on_c, 1, 39, 80
3, 109259, Note_on_c, 1, 39, 0
3, 109260, Note_on_c, 1, 37, 80
3, 109319, Note_on_c, 1, 37, 0
3, 109320, Note_on_c, 1, 39, 80
3, 109379, Note_on_c, 1, 39, 0
3, 109380, Note_on_c, 1, 37, 80
3, 109439, Note_on_c, 1, 37, 0
3, 109440, Note_on_c, 1, 39, 80
3, 109499, Note_on_c, 1, 39, 0
3, 109500, Note_on_c, 1, 37, 80
3, 109559, Note_on_c, 1, 37, 0
3, 109560, Note_on_c, 1, 39, 80
3, 109619, Note_on_c, 1, 39, 0
3, 109620, Note_on_c, 1, 37, 80
3, 109679, Note_on_c, 1, 37, 0
3, 109680, Note_on_c, 1, 39, 80
3, 109739, Note_on_c, 1, 39, 0
3, 109740, Note_on_c, 1, 37, 80
3, 109799, Note_on_c, 1, 37, 0
3, 109800, Note_on_c, 1, 39, 80
3, 109859, Note_on_c, 1, 39, 0
3, 109860, Note_on_c, 1, 37, 80
3, 109919, Note_on_c, 1, 37, 0
3, 109920, Note_on_c, 1, 39, 80
3, 109979, Note_on_c, 1, 39, 0
3, 109980, Note_on_c, 1, 37, 80
3, 110039, Note_on_c, 1, 37, 0
3, 110040, Note_on_c, 1, 39, 80
3, 110099, Note_on_c, 1, 39, 0
3, 110100, Note_on_c, 1, 37, 80
3, 110159, Note_on_c, 1, 37, 0
3, 110160, Note_on_c, 1, 39, 80
3, 110219, Note_on_c, 1, 39, 0
3, 110220, Note_on_c, 1, 37, 80
3, 110279, Note_on_c, 1, 37, 0
3, 110280, Note_on_c, 1, 39, 80
3, 110339, Note_on_c, 1, 39, 0
3, 110340, Note_on_c, 1, 37, 80
3, 110399, Note_on_c, 1, 37, 0
3, 110400, Note_on_c, 1, 39, 80
3, 110459, Note_on_c, 1, 39, 0
3, 110460, Note_on_c, 1, 37, 80
3, 110519, Note_on_c, 1, 37, 0
3, 110520, Note_on_c, 1, 39, 80
3, 110579, Note_on_c, 1, 39, 0
3, 110580, Note_on_c, 1, 37, 80
3, 110639, Note_on_c, 1, 37, 0
3, 110640, Note_on_c, 1, 39, 80
3, 110699, Note_on_c, 1, 39, 0
3, 110700, Note_on_c, 1, 37, 80
3, 110759, Note_on_c, 1, 37, 0
3, 110760, Note_on_c, 1, 39, 80
3, 110819, Note_on_c, 1, 39, 0
3, 110820, Note_on_c, 1, 37, 80
3, 110879, Note_on_c, 1, 37, 0
3, 110880, Note_on_c, 1, 39, 80
3, 110939, Note_on_c, 1, 39, 0
3, 110940, Note_on_c, 1, 37, 80
3, 110999, Note_on_c, 1, 37, 0
3, 111000, Note_on_c, 1, 39, 80
3, 111059, Note_on_c, 1, 39, 0
3, 111060, Note_on_c, 1, 37, 80
3, 111119, Note_on_c, 1, 37, 0
3, 111120, Note_on_c, 1, 39, 80
3, 111179, Note_on_c, 1, 39, 0
3, 111180, Note_on_c, 1, 37, 80
3, 111239, Note_on_c, 1, 37, 0
3, 111240, Note_on_c, 1, 39, 80
3, 111299, Note_on_c, 1, 39, 0
3, 111300, Note_on_c, 1, 37, 80
3, 111359, Note_on_c, 1, 37, 0
3, 111360, Note_on_c, 1, 39, 80
3, 111419, Note_on_c, 1, 39, 0
3, 111420, Note_on_c, 1, 37, 80
3, 111479, Note_on_c, 1, 37, 0
3, 111480, Note_on_c, 1, 39, 80
3, 111539, Note_on_c, 1, 39, 0
3, 111540, Note_on_c, 1, 37, 80
3, 111599, Note_on_c, 1, 37, 0
3, 111600, Note_on_c, 1, 49, 80
3, 111719, Note_on_c, 1, 49, 0
3, 111720, Note_on_c, 1, 49, 80
3, 111839, Note_on_c, 1, 49, 0
3, 111840, Note_on_c, 1, 49, 80
3, 111959, Note_on_c, 1, 49, 0
3, 111960, Note_on_c, 1, 45, 80
3, 112079, Note_on_c, 1, 45, 0
3, 112080, Note_on_c, 1, 47, 80
3, 112199, Note_on_c, 1, 47, 0
3, 112200, Note_on_c, 1, 47, 80
3, 112319, Note_on_c, 1, 47, 0
3, 112320, Note_on_c, 1, 47, 80
3, 112439, Note_on_c, 1, 47, 0
3, 112440, Note_on_c, 1, 44, 80
3, 112559, Note_on_c, 1, 44, 0
3, 112560, Note_on_c, 1, 45, 80
3, 112679, Note_on_c, 1, 45, 0
3, 112680, Note_on_c, 1, 42, 80
3, 112799, Note_on_c, 1, 42, 0
3, 112800, Note_on_c, 1, 49, 80
3, 113039, Note_on_c, 1, 49, 0
3, 113040, Note_on_c, 1, 37, 80
3, 113279, Note_on_c, 1, 37, 0
3, 113280, Note_on_c, 1, 42, 80
3, 113519, Note_on_c, 1, 42, 0
3, 113520, Note_on_c, 1, 42, 80
3, 113579, Note_on_c, 1, 42, 0
3, 113580, Note_on_c, 1, 44, 80
3, 113639, Note_on_c, 1, 44, 0
3, 113640, Note_on_c, 1, 45, 80
3, 113699, Note_on_c, 1, 45, 0
3, 113700, Note_on_c, 1, 47, 80
3, 113759, Note_on_c, 1, 47, 0
3, 113760, Note_on_c, 1, 49, 80
3, 113999, Note_on_c, 1, 49, 0
3, 114000, Note_on_c, 1, 47, 80
3, 114059, Note_on_c, 1, 47, 0
3, 114060, Note_on_c, 1, 46, 80
3, 114119, Note_on_c, 1, 46, 0
3, 114120, Note_on_c, 1, 44, 80
3, 114179, Note_on_c, 1, 44, 0
3, 114180, Note_on_c, 1, 42, 80
3, 114239, Note_on_c, 1, 42, 0
3, 114240, Note_on_c, 1, 47, 80
3, 114479, Note_on_c, 1, 47, 0
3, 114480, Note_on_c, 1, 42, 80
3, 114539, Note_on_c, 1, 42, 0
3, 114540, Note_on_c, 1, 41, 80
3, 114599, Note_on_c, 1, 41, 0
3, 114600, Note_on_c, 1, 39, 80
3, 114659, Note_on_c, 1, 39, 0
3, 114660, Note_on_c, 1, 37, 80
3, 114719, Note_on_c, 1, 37, 0
3, 114720, Note_on_c, 1, 42, 80
3, 114959, Note_on_c, 1, 42, 0
3, 114960, Note_on_c, 1, 54, 80
3, 115019, Note_on_c, 1, 54, 0
3, 115020, Note_on_c, 1, 52, 80
3, 115079, Note_on_c, 1, 52, 0
3, 115080, Note_on_c, 1, 51, 80
3, 115139, Note_on_c, 1, 51, 0
3, 115140, Note_on_c, 1, 49, 80
3, 115199, Note_on_c, 1, 49, 0
3, 115200, Note_on_c, 1, 48, 80
3, 115439, Note_on_c, 1, 48, 0
3, 115440, Note_on_c, 1, 49, 80
3, 115499, Note_on_c, 1, 49, 0
3, 115500, Note_on_c, 1, 47, 80
3, 115559, Note_on_c, 1, 47, 0
3, 115560, Note_on_c, 1, 46, 80
3, 115619, Note_on_c, 1, 46, 0
3, 115620, Note_on_c, 1, 44, 80
3, 115679, Note_on_c, 1, 44, 0
3, 115680, Note_on_c, 1, 43, 80
3, 115919, Note_on_c, 1, 43, 0
3, 115920, Note_on_c, 1, 44, 80
3, 115979, Note_on_c, 1, 44, 0
3, 115980, Note_on_c, 1, 42, 80
3, 116039, Note_on_c, 1, 42, 0
3, 116040, Note_on_c, 1, 40, 80
3, 116099, Note_on_c, 1, 40, 0
3, 116100, Note_on_c, 1, 39, 80
3, 116159, Note_on_c, 1, 39, 0
3, 116160, Note_on_c, 1, 37, 80
3, 116399, Note_on_c, 1, 37, 0
3, 116400, Note_on_c, 1, 35, 80
3, 116639, Note_on_c, 1, 35, 0
3, 116640, Note_on_c, 1, 37, 80
3, 116879, Note_on_c, 1, 37, 0
3, 116880, Note_on_c, 1, 39, 80
3, 117119, Note_on_c, 1, 39, 0
3, 117120, Note_on_c, 1, 40, 80
3, 117359, Note_on_c, 1, 40, 0
3, 117360, Note_on_c, 1, 49, 80
3, 117599, Note_on_c, 1, 49, 0
3, 117600, Note_on_c, 1, 51, 80
3, 117839, Note_on_c, 1, 51, 0
3, 117840, Note_on_c, 1, 39, 80
3, 118079, Note_on_c, 1, 39, 0
3, 118080, Note_on_c, 1, 44, 80
3, 118199, Note_on_c, 1, 44, 0
3, 118200, Note_on_c, 1, 51, 80
3, 118319, Note_on_c, 1, 51, 0
3, 118320, Note_on_c, 1, 56, 80
3, 118439, Note_on_c, 1, 56, 0
3, 118440, Note_on_c, 1, 56, 80
3, 118559, Note_on_c, 1, 56, 0
3, 118560, Note_on_c, 1, 56, 80
3, 118679, Note_on_c, 1, 56, 0
3, 118680, Note_on_c, 1, 52, 80
3, 118799, Note_on_c, 1, 52, 0
3, 118800, Note_on_c, 1, 54, 80
3, 118919, Note_on_c, 1, 54, 0
3, 118920, Note_on_c, 1, 54, 80
3, 119039, Note_on_c, 1, 54, 0
3, 119040, Note_on_c, 1, 54, 80
3, 119159, Note_on_c, 1, 54, 0
3, 119160, Note_on_c, 1, 51, 80
3, 119279, Note_on_c, 1, 51, 0
3, 119280, Note_on_c, 1, 52, 80
3, 119399, Note_on_c, 1, 52, 0
3, 119400, Note_on_c, 1, 52, 80
3, 119519, Note_on_c, 1, 52, 0
3, 119520, Note_on_c, 1, 52, 80
3, 119639, Note_on_c, 1, 52, 0
3, 119640, Note_on_c, 1, 49, 80
3, 119759, Note_on_c, 1, 49, 0
3, 119760, Note_on_c, 1, 57, 80
3, 119999, Note_on_c, 1, 57, 0
3, 120000, Note_on_c, 1, 56, 80
3, 120239, Note_on_c, 1, 56, 0
3, 120240, Note_on_c, 1, 61, 80
3, 120479, Note_on_c, 1, 61, 0
3, 120480, Note_on_c, 1, 55, 80
3, 120719, Note_on_c, 1, 55, 0
3, 120720, Note_on_c, 1, 54, 80
3, 120959, Note_on_c, 1, 54, 0
3, 120960, Note_on_c, 1, 52, 80
3, 121199, Note_on_c, 1, 52, 0
3, 121200, Note_on_c, 1, 57, 80
3, 121439, Note_on_c, 1, 57, 0
3, 121440, Note_on_c, 1, 51, 80
3, 122159, Note_on_c, 1, 51, 0
3, 122160, Note_on_c, 1, 49, 80
3, 122759, Note_on_c, 1, 49, 0
3, 122760, Note_on_c, 1, 48, 80
3, 122879, Note_on_c, 1, 48, 0
3, 122880, Note_on_c, 1, 49, 80
3, 123119, Note_on_c, 1, 49, 0
3, 125280, Note_on_c, 1, 56, 80
3, 125759, Note_on_c, 1, 56, 0
3, 125760, Note_on_c, 1, 54, 80
3, 125999, Note_on_c, 1, 54, 0
3, 126000, Note_on_c, 1, 59, 80
3, 126239, Note_on_c, 1, 59, 0
3, 126240, Note_on_c, 1, 53, 80
3, 126479, Note_on_c, 1, 53, 0
3, 126480, Note_on_c, 1, 52, 80
3, 126719, Note_on_c, 1, 52, 0
3, 126720, Note_on_c, 1, 51, 80
3, 126959, Note_on_c, 1, 51, 0
3, 126960, Note_on_c, 1, 56, 80
3, 127199, Note_on_c, 1, 56, 0
3, 127200, Note_on_c, 1, 49, 80
3, 127679, Note_on_c, 1, 49, 0
3, 127680, Note_on_c, 1, 47, 80
3, 127919, Note_on_c, 1, 47, 0
3, 127920, Note_on_c, 1, 49, 80
3, 128159, Note_on_c, 1, 49, 0
3, 128160, Note_on_c, 1, 51, 80
3, 128279, Note_on_c, 1, 51, 0
3, 128280, Note_on_c, 1, 49, 80
3, 128399, Note_on_c, 1, 49, 0
3, 128400, Note_on_c, 1, 51, 80
3, 128639, Note_on_c, 1, 51, 0
3, 128640, Note_on_c, 1, 44, 80
3, 129119, Note_on_c, 1, 44, 0
3, 129360, Note_on_c, 1, 46, 80
3, 129599, Note_on_c, 1, 46, 0
3, 129600, Note_on_c, 1, 47, 80
3, 129719, Note_on_c, 1, 47, 0
3, 129720, Note_on_c, 1, 46, 80
3, 129839, Note_on_c, 1, 46, 0
3, 129840, Note_on_c, 1, 47, 80
3, 129959, Note_on_c, 1, 47, 0
3, 129960, Note_on_c, 1, 49, 80
3, 130079, Note_on_c, 1, 49, 0
3, 130080, Note_on_c, 1, 51, 80
3, 130199, Note_on_c, 1, 51, 0
3, 130200, Note_on_c, 1, 49, 80
3, 130319, Note_on_c, 1, 49, 0
3, 130320, Note_on_c, 1, 52, 80
3, 130439, Note_on_c, 1, 52, 0
3, 130440, Note_on_c, 1, 51, 80
3, 130559, Note_on_c, 1, 51, 0
3, 130560, Note_on_c, 1, 52, 80
3, 130679, Note_on_c, 1, 52, 0
3, 130680, Note_on_c, 1, 49, 80
3, 130799, Note_on_c, 1, 49, 0
3, 130800, Note_on_c, 1, 54, 80
3, 131279, Note_on_c, 1, 54, 0
3, 131280, Note_on_c, 1, 52, 80
3, 131399, Note_on_c, 1, 52, 0
3, 131400, Note_on_c, 1, 51, 80
3, 131519, Note_on_c, 1, 51, 0
3, 131520, Note_on_c, 1, 52, 80
3, 131759, Note_on_c, 1, 52, 0
3, 131760, Note_on_c, 1, 56, 80
3, 131999, Note_on_c, 1, 56, 0
3, 132000, Note_on_c, 1, 53, 80
3, 132239, Note_on_c, 1, 53, 0
3, 132240, Note_on_c, 1, 49, 80
3, 132479, Note_on_c, 1, 49, 0
3, 132480, Note_on_c, 1, 54, 80
3, 132959, Note_on_c, 1, 54, 0
3, 133200, Note_on_c, 1, 54, 80
3, 133439, Note_on_c, 1, 54, 0
3, 133440, Note_on_c, 1, 47, 80
3, 133559, Note_on_c, 1, 47, 0
3, 133560, Note_on_c, 1, 59, 80
3, 133679, Note_on_c, 1, 59, 0
3, 133680, Note_on_c, 1, 57, 80
3, 133799, Note_on_c, 1, 57, 0
3, 133800, Note_on_c, 1, 56, 80
3, 133919, Note_on_c, 1, 56, 0
3, 133920, Note_on_c, 1, 54, 80
3, 134039, Note_on_c, 1, 54, 0
3, 134040, Note_on_c, 1, 56, 80
3, 134159, Note_on_c, 1, 56, 0
3, 134160, Note_on_c, 1, 52, 80
3, 134279, Note_on_c, 1, 52, 0
3, 134280, Note_on_c, 1, 54, 80
3, 134399, Note_on_c, 1, 54, 0
3, 134400, Note_on_c, 1, 56, 80
3, 134519, Note_on_c, 1, 56, 0
3, 134520, Note_on_c, 1, 57, 80
3, 134639, Note_on_c, 1, 57, 0
3, 134640, Note_on_c, 1, 59, 80
3, 134759, Note_on_c, 1, 59, 0
3, 134760, Note_on_c, 1, 61, 80
3, 134879, Note_on_c, 1, 61, 0
3, 134880, Note_on_c, 1, 63, 80
3, 134999, Note_on_c, 1, 63, 0
3, 135000, Note_on_c, 1, 61, 80
3, 135119, Note_on_c, 1, 61, 0
3, 135120, Note_on_c, 1, 64, 80
3, 135239, Note_on_c, 1, 64, 0
3, 135240, Note_on_c, 1, 63, 80
3, 135359, Note_on_c, 1, 63, 0
3, 135360, Note_on_c, 1, 64, 80
3, 135599, Note_on_c, 1, 64, 0
3, 135600, Note_on_c, 1, 57, 80
3, 135839, Note_on_c, 1, 57, 0
3, 135840, Note_on_c, 1, 59, 80
3, 136079, Note_on_c, 1, 59, 0
3, 136080, Note_on_c, 1, 47, 80
3, 136319, Note_on_c, 1, 47, 0
3, 136320, Note_on_c, 1, 52, 80
3, 136439, Note_on_c, 1, 52, 0
3, 136440, Note_on_c, 1, 54, 80
3, 136559, Note_on_c, 1, 54, 0
3, 136560, Note_on_c, 1, 56, 80
3, 136679, Note_on_c, 1, 56, 0
3, 136680, Note_on_c, 1, 57, 80
3, 136799, Note_on_c, 1, 57, 0
3, 136800, Note_on_c, 1, 59, 80
3, 136919, Note_on_c, 1, 59, 0
3, 136920, Note_on_c, 1, 58, 80
3, 137039, Note_on_c, 1, 58, 0
3, 137040, Note_on_c, 1, 61, 80
3, 137159, Note_on_c, 1, 61, 0
3, 137160, Note_on_c, 1, 60, 80
3, 137279, Note_on_c, 1, 60, 0
3, 137280, Note_on_c, 1, 61, 80
3, 137399, Note_on_c, 1, 61, 0
3, 137400, Note_on_c, 1, 46, 80
3, 137519, Note_on_c, 1, 46, 0
3, 137520, Note_on_c, 1, 48, 80
3, 137639, Note_on_c, 1, 48, 0
3, 137640, Note_on_c, 1, 49, 80
3, 137759, Note_on_c, 1, 49, 0
3, 137760, Note_on_c, 1, 51, 80
3, 137879, Note_on_c, 1, 51, 0
3, 137880, Note_on_c, 1, 49, 80
3, 137999, Note_on_c, 1, 49, 0
3, 138000, Note_on_c, 1, 52, 80
3, 138119, Note_on_c, 1, 52, 0
3, 138120, Note_on_c, 1, 51, 80
3, 138239, Note_on_c, 1, 51, 0
3, 138240, Note_on_c, 1, 54, 80
3, 138359, Note_on_c, 1, 54, 0
3, 138360, Note_on_c, 1, 52, 80
3, 138479, Note_on_c, 1, 52, 0
3, 138480, Note_on_c, 1, 51, 80
3, 138599, Note_on_c, 1, 51, 0
3, 138600, Note_on_c, 1, 49, 80
3, 138719, Note_on_c, 1, 49, 0
3, 138720, Note_on_c, 1, 48, 80
3, 138839, Note_on_c, 1, 48, 0
3, 138840, Note_on_c, 1, 49, 80
3, 138959, Note_on_c, 1, 49, 0
3, 138960, Note_on_c, 1, 46, 80
3, 139079, Note_on_c, 1, 46, 0
3, 139080, Note_on_c, 1, 48, 80
3, 139199, Note_on_c, 1, 48, 0
3, 139200, Note_on_c, 1, 49, 80
3, 139319, Note_on_c, 1, 49, 0
3, 139320, Note_on_c, 1, 47, 80
3, 139439, Note_on_c, 1, 47, 0
3, 139440, Note_on_c, 1, 46, 80
3, 139559, Note_on_c, 1, 46, 0
3, 139560, Note_on_c, 1, 44, 80
3, 139679, Note_on_c, 1, 44, 0
3, 139680, Note_on_c, 1, 43, 80
3, 139799, Note_on_c, 1, 43, 0
3, 139800, Note_on_c, 1, 44, 80
3, 139919, Note_on_c, 1, 44, 0
3, 139920, Note_on_c, 1, 41, 80
3, 140039, Note_on_c, 1, 41, 0
3, 140040, Note_on_c, 1, 43, 80
3, 140159, Note_on_c, 1, 43, 0
3, 140160, Note_on_c, 1, 44, 80
3, 140399, Note_on_c, 1, 44, 0
3, 140400, Note_on_c, 1, 56, 80
3, 140879, Note_on_c, 1, 56, 0
3, 140880, Note_on_c, 1, 55, 80
3, 141119, Note_on_c, 1, 55, 0
3, 141120, Note_on_c, 1, 56, 80
3, 141359, Note_on_c, 1, 56, 0
3, 141360, Note_on_c, 1, 59, 80
3, 141599, Note_on_c, 1, 59, 0
3, 141600, Note_on_c, 1, 53, 80
3, 141839, Note_on_c, 1, 53, 0
3, 141840, Note_on_c, 1, 55, 80
3, 142079, Note_on_c, 1, 55, 0
3, 142320, Note_on_c, 1, 56, 80
3, 142559, Note_on_c, 1, 56, 0
3, 142560, Note_on_c, 1, 57, 80
3, 142799, Note_on_c, 1, 57, 0
3, 142800, Note_on_c, 1, 59, 80
3, 143039, Note_on_c, 1, 59, 0
3, 143280, Note_on_c, 1, 61, 80
3, 143519, Note_on_c, 1, 61, 0
3, 143520, Note_on_c, 1, 59, 80
3, 143759, Note_on_c, 1, 59, 0
3, 143760, Note_on_c, 1, 57, 80
3, 143999, Note_on_c, 1, 57, 0
3, 144240, Note_on_c, 1, 56, 80
3, 144359, Note_on_c, 1, 56, 0
3, 144360, Note_on_c, 1, 54, 80
3, 144479, Note_on_c, 1, 54, 0
3, 144480, Note_on_c, 1, 56, 80
3, 144719, Note_on_c, 1, 56, 0
3, 144720, Note_on_c, 1, 58, 80
3, 144959, Note_on_c, 1, 58, 0
3, 144960, Note_on_c, 1, 59, 80
3, 145079, Note_on_c, 1, 59, 0
3, 145080, Note_on_c, 1, 61, 80
3, 145199, Note_on_c, 1, 61, 0
3, 145200, Note_on_c, 1, 59, 80
3, 145319, Note_on_c, 1, 59, 0
3, 145320, Note_on_c, 1, 58, 80
3, 145439, Note_on_c, 1, 58, 0
3, 145440, Note_on_c, 1, 56, 80
3, 145559, Note_on_c, 1, 56, 0
3, 145560, Note_on_c, 1, 59, 80
3, 145679, Note_on_c, 1, 59, 0
3, 145680, Note_on_c, 1, 65, 80
3, 145799, Note_on_c, 1, 65, 0
3, 145800, Note_on_c, 1, 68, 80
3, 145919, Note_on_c, 1, 68, 0
3, 145920, Note_on_c, 1, 68, 80
3, 146039, Note_on_c, 1, 68, 0
3, 146040, Note_on_c, 1, 65, 80
3, 146159, Note_on_c, 1, 65, 0
3, 146160, Note_on_c, 1, 66, 80
3, 146279, Note_on_c, 1, 66, 0
3, 146280, Note_on_c, 1, 66, 80
3, 146399, Note_on_c, 1, 66, 0
3, 146400, Note_on_c, 1, 66, 80
3, 146519, Note_on_c, 1, 66, 0
3, 146520, Note_on_c, 1, 63, 80
3, 146639, Note_on_c, 1, 63, 0
3, 146640, Note_on_c, 1, 64, 80
3, 146759, Note_on_c, 1, 64, 0
3, 146760, Note_on_c, 1, 64, 80
3, 146879, Note_on_c, 1, 64, 0
3, 146880, Note_on_c, 1, 64, 80
3, 146999, Note_on_c, 1, 64, 0
3, 147000, Note_on_c, 1, 62, 80
3, 147119, Note_on_c, 1, 62, 0
3, 147120, Note_on_c, 1, 63, 80
3, 147239, Note_on_c, 1, 63, 0
3, 147240, Note_on_c, 1, 63, 80
3, 147359, Note_on_c, 1, 63, 0
3, 147360, Note_on_c, 1, 63, 80
3, 147479, Note_on_c, 1, 63, 0
3, 147480, Note_on_c, 1, 61, 80
3, 147599, Note_on_c, 1, 61, 0
3, 147600, Note_on_c, 1, 59, 80
3, 147719, Note_on_c, 1, 59, 0
3, 147720, Note_on_c, 1, 58, 80
3, 147839, Note_on_c, 1, 58, 0
3, 147840, Note_on_c, 1, 59, 80
3, 147959, Note_on_c, 1, 59, 0
3, 147960, Note_on_c, 1, 63, 80
3, 148079, Note_on_c, 1, 63, 0
3, 148080, Note_on_c, 1, 61, 80
3, 148199, Note_on_c, 1, 61, 0
3, 148200, Note_on_c, 1, 59, 80
3, 148319, Note_on_c, 1, 59, 0
3, 148320, Note_on_c, 1, 58, 80
3, 148439, Note_on_c, 1, 58, 0
3, 148440, Note_on_c, 1, 59, 80
3, 148559, Note_on_c, 1, 59, 0
3, 148560, Note_on_c, 1, 56, 80
3, 148679, Note_on_c, 1, 56, 0
3, 148680, Note_on_c, 1, 58, 80
3, 148799, Note_on_c, 1, 58, 0
3, 148800, Note_on_c, 1, 59, 80
3, 148919, Note_on_c, 1, 59, 0
3, 148920, Note_on_c, 1, 61, 80
3, 149039, Note_on_c, 1, 61, 0
3, 149040, Note_on_c, 1, 59, 80
3, 149159, Note_on_c, 1, 59, 0
3, 149160, Note_on_c, 1, 57, 80
3, 149279, Note_on_c, 1, 57, 0
3, 149280, Note_on_c, 1, 56, 80
3, 149519, Note_on_c, 1, 56, 0
3, 149520, Note_on_c, 1, 61, 80
3, 149759, Note_on_c, 1, 61, 0
3, 149760, Note_on_c, 1, 66, 80
3, 149999, Note_on_c, 1, 66, 0
3, 150000, Note_on_c, 1, 59, 80
3, 150239, Note_on_c, 1, 59, 0
3, 150240, Note_on_c, 1, 57, 80
3, 150479, Note_on_c, 1, 57, 0
3, 150480, Note_on_c, 1, 56, 80
3, 150719, Note_on_c, 1, 56, 0
3, 150720, Note_on_c, 1, 54, 80
3, 151199, Note_on_c, 1, 54, 0
3, 151320, Note_on_c, 1, 57, 80
3, 151439, Note_on_c, 1, 57, 0
3, 151440, Note_on_c, 1, 56, 80
3, 151559, Note_on_c, 1, 56, 0
3, 151560, Note_on_c, 1, 54, 80
3, 151679, Note_on_c, 1, 54, 0
3, 151680, Note_on_c, 1, 52, 80
3, 151919, Note_on_c, 1, 52, 0
3, 151920, Note_on_c, 1, 57, 80
3, 152159, Note_on_c, 1, 57, 0
3, 152160, Note_on_c, 1, 51, 80
3, 152399, Note_on_c, 1, 51, 0
3, 152400, Note_on_c, 1, 50, 80
3, 152639, Note_on_c, 1, 50, 0
3, 152640, Note_on_c, 1, 49, 80
3, 152879, Note_on_c, 1, 49, 0
3, 152880, Note_on_c, 1, 54, 80
3, 153119, Note_on_c, 1, 54, 0
3, 153120, Note_on_c, 1, 47, 80
3, 153599, Note_on_c, 1, 47, 0
3, 153600, Note_on_c, 1, 45, 80
3, 153839, Note_on_c, 1, 45, 0
3, 153840, Note_on_c, 1, 47, 80
3, 154079, Note_on_c, 1, 47, 0
3, 154080, Note_on_c, 1, 49, 80
3, 154199, Note_on_c, 1, 49, 0
3, 154200, Note_on_c, 1, 47, 80
3, 154319, Note_on_c, 1, 47, 0
3, 154320, Note_on_c, 1, 49, 80
3, 154559, Note_on_c, 1, 49, 0
3, 154560, Note_on_c, 1, 42, 80
3, 155039, Note_on_c, 1, 42, 0
3, 155760, Note_on_c, 1, 54, 80
3, 155879, Note_on_c, 1, 54, 0
3, 155880, Note_on_c, 1, 56, 80
3, 155999, Note_on_c, 1, 56, 0
3, 156000, Note_on_c, 1, 54, 80
3, 156239, Note_on_c, 1, 54, 0
3, 156240, Note_on_c, 1, 48, 80
3, 156479, Note_on_c, 1, 48, 0
3, 156480, Note_on_c, 1, 49, 80
3, 156719, Note_on_c, 1, 49, 0
3, 156720, Note_on_c, 1, 61, 80
3, 157079, Note_on_c, 1, 61, 0
3, 157080, Note_on_c, 1, 59, 80
3, 157199, Note_on_c, 1, 59, 0
3, 157200, Note_on_c, 1, 57, 80
3, 157319, Note_on_c, 1, 57, 0
3, 157320, Note_on_c, 1, 56, 80
3, 157439, Note_on_c, 1, 56, 0
3, 157440, Note_on_c, 1, 54, 80
3, 157799, Note_on_c, 1, 54, 0
3, 157800, Note_on_c, 1, 52, 80
3, 157919, Note_on_c, 1, 52, 0
3, 157920, Note_on_c, 1, 51, 80
3, 158039, Note_on_c, 1, 51, 0
3, 158040, Note_on_c, 1, 49, 80
3, 158159, Note_on_c, 1, 49, 0
3, 158160, Note_on_c, 1, 48, 80
3, 158279, Note_on_c, 1, 48, 0
3, 158280, Note_on_c, 1, 56, 80
3, 158399, Note_on_c, 1, 56, 0
3, 158400, Note_on_c, 1, 56, 80
3, 158759, Note_on_c, 1, 56, 0
3, 158760, Note_on_c, 1, 54, 80
3, 158879, Note_on_c, 1, 54, 0
3, 158880, Note_on_c, 1, 52, 80
3, 158999, Note_on_c, 1, 52, 0
3, 159000, Note_on_c, 1, 51, 80
3, 159119, Note_on_c, 1, 51, 0
3, 159120, Note_on_c, 1, 49, 80
3, 159239, Note_on_c, 1, 49, 0
3, 159240, Note_on_c, 1, 59, 80
3, 159359, Note_on_c, 1, 59, 0
3, 159360, Note_on_c, 1, 58, 80
3, 159719, Note_on_c, 1, 58, 0
3, 159720, Note_on_c, 1, 56, 80
3, 159839, Note_on_c, 1, 56, 0
3, 159840, Note_on_c, 1, 55, 80
3, 159959, Note_on_c, 1, 55, 0
3, 159960, Note_on_c, 1, 53, 80
3, 160079, Note_on_c, 1, 53, 0
3, 160080, Note_on_c, 1, 51, 80
3, 160319, Note_on_c, 1, 51, 0
3, 160320, Note_on_c, 1, 57, 80
3, 160379, Note_on_c, 1, 57, 0
3, 160380, Note_on_c, 1, 56, 80
3, 160439, Note_on_c, 1, 56, 0
3, 160440, Note_on_c, 1, 57, 80
3, 160499, Note_on_c, 1, 57, 0
3, 160500, Note_on_c, 1, 56, 80
3, 160559, Note_on_c, 1, 56, 0
3, 160560, Note_on_c, 1, 57, 80
3, 160619, Note_on_c, 1, 57, 0
3, 160620, Note_on_c, 1, 56, 80
3, 160679, Note_on_c, 1, 56, 0
3, 160680, Note_on_c, 1, 57, 80
3, 160739, Note_on_c, 1, 57, 0
3, 160740, Note_on_c, 1, 56, 80
3, 160799, Note_on_c, 1, 56, 0
3, 160800, Note_on_c, 1, 57, 80
3, 160859, Note_on_c, 1, 57, 0
3, 160860, Note_on_c, 1, 56, 80
3, 160919, Note_on_c, 1, 56, 0
3, 160920, Note_on_c, 1, 57, 80
3, 160979, Note_on_c, 1, 57, 0
3, 160980, Note_on_c, 1, 56, 80
3, 161039, Note_on_c, 1, 56, 0
3, 161040, Note_on_c, 1, 57, 80
3, 161099, Note_on_c, 1, 57, 0
3, 161100, Note_on_c, 1, 56, 80
3, 161159, Note_on_c, 1, 56, 0
3, 161160, Note_on_c, 1, 57, 80
3, 161219, Note_on_c, 1, 57, 0
3, 161220, Note_on_c, 1, 56, 80
3, 161279, Note_on_c, 1, 56, 0
3, 161280, Note_on_c, 1, 57, 80
3, 161339, Note_on_c, 1, 57, 0
3, 161340, Note_on_c, 1, 56, 80
3, 161399, Note_on_c, 1, 56, 0
3, 161400, Note_on_c, 1, 57, 80
3, 161459, Note_on_c, 1, 57, 0
3, 161460, Note_on_c, 1, 56, 80
3, 161519, Note_on_c, 1, 56, 0
3, 161520, Note_on_c, 1, 57, 80
3, 161579, Note_on_c, 1, 57, 0
3, 161580, Note_on_c, 1, 56, 80
3, 161639, Note_on_c, 1, 56, 0
3, 161640, Note_on_c, 1, 57, 80
3, 161699, Note_on_c, 1, 57, 0
3, 161700, Note_on_c, 1, 56, 80
3, 161759, Note_on_c, 1, 56, 0
3, 161760, Note_on_c, 1, 57, 80
3, 161819, Note_on_c, 1, 57, 0
3, 161820, Note_on_c, 1, 56, 80
3, 161879, Note_on_c, 1, 56, 0
3, 161880, Note_on_c, 1, 57, 80
3, 161939, Note_on_c, 1, 57, 0
3, 161940, Note_on_c, 1, 56, 80
3, 161999, Note_on_c, 1, 56, 0
3, 162000, Note_on_c, 1, 57, 80
3, 162059, Note_on_c, 1, 57, 0
3, 162060, Note_on_c, 1, 56, 80
3, 162119, Note_on_c, 1, 56, 0
3, 162120, Note_on_c, 1, 57, 80
3, 162179, Note_on_c, 1, 57, 0
3, 162180, Note_on_c, 1, 56, 80
3, 162239, Note_on_c, 1, 56, 0
3, 162720, Note_on_c, 1, 49, 80
3, 163199, Note_on_c, 1, 49, 0
3, 163200, Note_on_c, 1, 47, 80
3, 163439, Note_on_c, 1, 47, 0
3, 163440, Note_on_c, 1, 52, 80
3, 163679, Note_on_c, 1, 52, 0
3, 163680, Note_on_c, 1, 46, 80
3, 163919, Note_on_c, 1, 46, 0
3, 163920, Note_on_c, 1, 45, 80
3, 164159, Note_on_c, 1, 45, 0
3, 164160, Note_on_c, 1, 44, 80
3, 164399, Note_on_c, 1, 44, 0
3, 164400, Note_on_c, 1, 49, 80
3, 164639, Note_on_c, 1, 49, 0
3, 164640, Note_on_c, 1, 42, 80
3, 165119, Note_on_c, 1, 42, 0
3, 165120, Note_on_c, 1, 40, 80
3, 165359, Note_on_c, 1, 40, 0
3, 165360, Note_on_c, 1, 42, 80
3, 165599, Note_on_c, 1, 42, 0
3, 165600, Note_on_c, 1, 44, 80
3, 165719, Note_on_c, 1, 44, 0
3, 165720, Note_on_c, 1, 42, 80
3, 165839, Note_on_c, 1, 42, 0
3, 165840, Note_on_c, 1, 44, 80
3, 166079, Note_on_c, 1, 44, 0
3, 166080, Note_on_c, 1, 37, 80
3, 166319, Note_on_c, 1, 37, 0
3, 166320, Note_on_c, 1, 49, 80
3, 166679, Note_on_c, 1, 49, 0
3, 166680, Note_on_c, 1, 47, 80
3, 166799, Note_on_c, 1, 47, 0
3, 166800, Note_on_c, 1, 45, 80
3, 166919, Note_on_c, 1, 45, 0
3, 166920, Note_on_c, 1, 49, 80
3, 167039, Note_on_c, 1, 49, 0
3, 167040, Note_on_c, 1, 47, 80
3, 167279, Note_on_c, 1, 47, 0
3, 167280, Note_on_c, 1, 59, 80
3, 167639, Note_on_c, 1, 59, 0
3, 167640, Note_on_c, 1, 57, 80
3, 167759, Note_on_c, 1, 57, 0
3, 167760, Note_on_c, 1, 56, 80
3, 167879, Note_on_c, 1, 56, 0
3, 167880, Note_on_c, 1, 59, 80
3, 167999, Note_on_c, 1, 59, 0
3, 168000, Note_on_c, 1, 57, 80
3, 168239, Note_on_c, 1, 57, 0
3, 168240, Note_on_c, 1, 45, 80
3, 168599, Note_on_c, 1, 45, 0
3, 168600, Note_on_c, 1, 44, 80
3, 168719, Note_on_c, 1, 44, 0
3, 168720, Note_on_c, 1, 42, 80
3, 168839, Note_on_c, 1, 42, 0
3, 168840, Note_on_c, 1, 45, 80
3, 168959, Note_on_c, 1, 45, 0
3, 168960, Note_on_c, 1, 44, 80
3, 169199, Note_on_c, 1, 44, 0
3, 169200, Note_on_c, 1, 56, 80
3, 169559, Note_on_c, 1, 56, 0
3, 169560, Note_on_c, 1, 54, 80
3, 169679, Note_on_c, 1, 54, 0
3, 169680, Note_on_c, 1, 53, 80
3, 169799, Note_on_c, 1, 53, 0
3, 169800, Note_on_c, 1, 56, 80
3, 169919, Note_on_c, 1, 56, 0
3, 169920, Note_on_c, 1, 54, 80
3, 170159, Note_on_c, 1, 54, 0
3, 170160, Note_on_c, 1, 54, 80
3, 170279, Note_on_c, 1, 54, 0
3, 170280, Note_on_c, 1, 54, 80
3, 170399, Note_on_c, 1, 54, 0
3, 170400, Note_on_c, 1, 54, 80
3, 170639, Note_on_c, 1, 54, 0
3, 170640, Note_on_c, 1, 51, 80
3, 170759, Note_on_c, 1, 51, 0
3, 170760, Note_on_c, 1, 51, 80
3, 170879, Note_on_c, 1, 51, 0
3, 170880, Note_on_c, 1, 51, 80
3, 171119, Note_on_c, 1, 51, 0
3, 171120, Note_on_c, 1, 48, 80
3, 171239, Note_on_c, 1, 48, 0
3, 171240, Note_on_c, 1, 48, 80
3, 171359, Note_on_c, 1, 48, 0
3, 171360, Note_on_c, 1, 48, 80
3, 171599, Note_on_c, 1, 48, 0
3, 172080, Note_on_c, 1, 55, 80
3, 172319, Note_on_c, 1, 55, 0
3, 172320, Note_on_c, 1, 56, 80
3, 172559, Note_on_c, 1, 56, 0
3, 172560, Note_on_c, 1, 44, 80
3, 172799, Note_on_c, 1, 44, 0
3, 172800, Note_on_c, 1, 49, 80
3, 174239, Note_on_c, 1, 49, 0
3, 174960, Note_on_c, 1, 44, 80
3, 175199, Note_on_c, 1, 44, 0
3, 175200, Note_on_c, 1, 37, 80
3, 175439, Note_on_c, 1, 37, 0
3, 175440, Note_on_c, 1, 39, 80
3, 175679, Note_on_c, 1, 39, 0
3, 175920, Note_on_c, 1, 40, 80
3, 176159, Note_on_c, 1, 40, 0
3, 176160, Note_on_c, 1, 42, 80
3, 176399, Note_on_c, 1, 42, 0
3, 176400, Note_on_c, 1, 44, 80
3, 176639, Note_on_c, 1, 44, 0
3, 176880, Note_on_c, 1, 45, 80
3, 177119, Note_on_c, 1, 45, 0
3, 177120, Note_on_c, 1, 44, 80
3, 177359, Note_on_c, 1, 44, 0
3, 177360, Note_on_c, 1, 42, 80
3, 177599, Note_on_c, 1, 42, 0
3, 177840, Note_on_c, 1, 40, 80
3, 177959, Note_on_c, 1, 40, 0
3, 177960, Note_on_c, 1, 39, 80
3, 178079, Note_on_c, 1, 39, 0
3, 178080, Note_on_c, 1, 40, 80
3, 178319, Note_on_c, 1, 40, 0
3, 178320, Note_on_c, 1, 42, 80
3, 178559, Note_on_c, 1, 42, 0
3, 178560, Note_on_c, 1, 44, 80
3, 179519, Note_on_c, 1, 44, 0
3, 179520, Note_on_c, 1, 37, 80
3, 179999, Note_on_c, 1, 37, 0
3, 180000, End_track
0, 0, End_of_file
