0, 0, Header, 1, 2, 480
1, 0, Start_track
1, 0, Unknown_meta_event, 8, 38, 71, 111, 108, 100, 98, 101, 114, 103, 32, 86, 97, 114, 105, 97, 116, 105, 111, 110, 115, 58, 32, 86, 97, 114, 105, 97, 116, 105, 111, 110, 32, 88, 88, 86, 73, 73, 73, 0
1, 0, Unknown_meta_event, 9, 8, 66, 87, 86, 32, 57, 56, 56, 0
1, 0, Unknown_meta_event, 10, 11, 74, 46, 32, 83, 46, 32, 66, 97, 99, 104, 0
1, 0, Time_signature, 3, 2, 24, 8
1, 0, Key_signature, 1, "major"
1, 0, Program_c, 0, 46
1, 0, Note_on_c, 0, 83, 80
1, 2, Control_c, 0, 7, 100
1, 4, Control_c, 0, 10, 64
1, 6, Control_c, 0, 91, 30
1, 8, Control_c, 0, 93, 30
1, 60, Note_on_c, 0, 74, 80
1, 119, Note_on_c, 0, 74, 0
1, 119, Note_on_c, 0, 83, 0
1, 120, Note_on_c, 0, 76, 80
1, 179, Note_on_c, 0, 76, 0
1, 180, Note_on_c, 0, 74, 80
1, 239, Note_on_c, 0, 74, 0
1, 240, Note_on_c, 0, 76, 80
1, 299, Note_on_c, 0, 76, 0
1, 300, Note_on_c, 0, 74, 80
1, 359, Note_on_c, 0, 74, 0
1, 360, Note_on_c, 0, 76, 80
1, 419, Note_on_c, 0, 76, 0
1, 420, Note_on_c, 0, 74, 80
1, 479, Note_on_c, 0, 74, 0
1, 480, Note_on_c, 0, 86, 80
1, 540, Note_on_c, 0, 74, 80
1, 599, Note_on_c, 0, 74, 0
1, 599, Note_on_c, 0, 86, 0
1, 600, Note_on_c, 0, 76, 80
1, 659, Note_on_c, 0, 76, 0
1, 660, Note_on_c, 0, 74, 80
1, 719, Note_on_c, 0, 74, 0
1, 720, Note_on_c, 0, 76, 80
1, 779, Note_on_c, 0, 76, 0
1, 780, Note_on_c, 0, 74, 80
1, 839, Note_on_c, 0, 74, 0
1, 840, Note_on_c, 0, 76, 80
1, 899, Note_on_c, 0, 76, 0
1, 900, Note_on_c, 0, 74, 80
1, 959, Note_on_c, 0, 74, 0
1, 960, Note_on_c, 0, 79, 80
1, 1020, Note_on_c, 0, 74, 80
1, 1079, Note_on_c, 0, 74, 0
1, 1079, Note_on_c, 0, 79, 0
1, 1080, Note_on_c, 0, 76, 80
1, 1139, Note_on_c, 0, 76, 0
1, 1140, Note_on_c, 0, 74, 80
1, 1199, Note_on_c, 0, 74, 0
1, 1200, Note_on_c, 0, 76, 80
1, 1259, Note_on_c, 0, 76, 0
1, 1260, Note_on_c, 0, 74, 80
1, 1319, Note_on_c, 0, 74, 0
1, 1320, Note_on_c, 0, 76, 80
1, 1379, Note_on_c, 0, 76, 0
1, 1380, Note_on_c, 0, 74, 80
1, 1439, Note_on_c, 0, 74, 0
1, 1440, Note_on_c, 0, 81, 80
1, 1500, Note_on_c, 0, 74, 80
1, 1559, Note_on_c, 0, 74, 0
1, 1559, Note_on_c, 0, 81, 0
1, 1560, Note_on_c, 0, 76, 80
1, 1619, Note_on_c, 0, 76, 0
1, 1620, Note_on_c, 0, 74, 80
1, 1679, Note_on_c, 0, 74, 0
1, 1680, Note_on_c, 0, 76, 80
1, 1739, Note_on_c, 0, 76, 0
1, 1740, Note_on_c, 0, 74, 80
1, 1799, Note_on_c, 0, 74, 0
1, 1800, Note_on_c, 0, 76, 80
1, 1859, Note_on_c, 0, 76, 0
1, 1860, Note_on_c, 0, 74, 80
1, 1919, Note_on_c, 0, 74, 0
1, 1920, Note_on_c, 0, 86, 80
1, 1980, Note_on_c, 0, 74, 80
1, 2039, Note_on_c, 0, 74, 0
1, 2039, Note_on_c, 0, 86, 0
1, 2040, Note_on_c, 0, 76, 80
1, 2099, Note_on_c, 0, 76, 0
1, 2100, Note_on_c, 0, 74, 80
1, 2159, Note_on_c, 0, 74, 0
1, 2160, Note_on_c, 0, 76, 80
1, 2219, Note_on_c, 0, 76, 0
1, 2220, Note_on_c, 0, 74, 80
1, 2279, Note_on_c, 0, 74, 0
1, 2280, Note_on_c, 0, 76, 80
1, 2339, Note_on_c, 0, 76, 0
1, 2340, Note_on_c, 0, 74, 80
1, 2399, Note_on_c, 0, 74, 0
1, 2400, Note_on_c, 0, 78, 80
1, 2460, Note_on_c, 0, 74, 80
1, 2519, Note_on_c, 0, 74, 0
1, 2519, Note_on_c, 0, 78, 0
1, 2520, Note_on_c, 0, 76, 80
1, 2579, Note_on_c, 0, 76, 0
1, 2580, Note_on_c, 0, 74, 80
1, 2639, Note_on_c, 0, 74, 0
1, 2640, Note_on_c, 0, 76, 80
1, 2699, Note_on_c, 0, 76, 0
1, 2700, Note_on_c, 0, 74, 80
1, 2759, Note_on_c, 0, 74, 0
1, 2760, Note_on_c, 0, 76, 80
1, 2819, Note_on_c, 0, 76, 0
1, 2820, Note_on_c, 0, 74, 80
1, 2879, Note_on_c, 0, 74, 0
1, 2880, Note_on_c, 0, 79, 80
1, 2940, Note_on_c, 0, 74, 80
1, 2999, Note_on_c, 0, 74, 0
1, 2999, Note_on_c, 0, 79, 0
1, 3000, Note_on_c, 0, 76, 80
1, 3059, Note_on_c, 0, 76, 0
1, 3060, Note_on_c, 0, 74, 80
1, 3119, Note_on_c, 0, 74, 0
1, 3120, Note_on_c, 0, 76, 80
1, 3179, Note_on_c, 0, 76, 0
1, 3180, Note_on_c, 0, 74, 80
1, 3239, Note_on_c, 0, 74, 0
1, 3240, Note_on_c, 0, 76, 80
1, 3299, Note_on_c, 0, 76, 0
1, 3300, Note_on_c, 0, 74, 80
1, 3359, Note_on_c, 0, 74, 0
1, 3360, Note_on_c, 0, 83, 80
1, 3420, Note_on_c, 0, 74, 80
1, 3479, Note_on_c, 0, 74, 0
1, 3479, Note_on_c, 0, 83, 0
1, 3480, Note_on_c, 0, 76, 80
1, 3539, Note_on_c, 0, 76, 0
1, 3540, Note_on_c, 0, 74, 80
1, 3599, Note_on_c, 0, 74, 0
1, 3600, Note_on_c, 0, 76, 80
1, 3659, Note_on_c, 0, 76, 0
1, 3660, Note_on_c, 0, 74, 80
1, 3719, Note_on_c, 0, 74, 0
1, 3720, Note_on_c, 0, 76, 80
1, 3779, Note_on_c, 0, 76, 0
1, 3780, Note_on_c, 0, 74, 80
1, 3839, Note_on_c, 0, 74, 0
1, 3840, Note_on_c, 0, 81, 80
1, 3900, Note_on_c, 0, 74, 80
1, 3959, Note_on_c, 0, 74, 0
1, 3959, Note_on_c, 0, 81, 0
1, 3960, Note_on_c, 0, 76, 80
1, 4019, Note_on_c, 0, 76, 0
1, 4020, Note_on_c, 0, 74, 80
1, 4079, Note_on_c, 0, 74, 0
1, 4080, Note_on_c, 0, 76, 80
1, 4139, Note_on_c, 0, 76, 0
1, 4140, Note_on_c, 0, 74, 80
1, 4199, Note_on_c, 0, 74, 0
1, 4200, Note_on_c, 0, 76, 80
1, 4259, Note_on_c, 0, 76, 0
1, 4260, Note_on_c, 0, 74, 80
1, 4319, Note_on_c, 0, 74, 0
1, 4320, Note_on_c, 0, 78, 80
1, 4380, Note_on_c, 0, 74, 80
1, 4439, Note_on_c, 0, 74, 0
1, 4439, Note_on_c, 0, 78, 0
1, 4440, Note_on_c, 0, 76, 80
1, 4499, Note_on_c, 0, 76, 0
1, 4500, Note_on_c, 0, 74, 80
1, 4559, Note_on_c, 0, 74, 0
1, 4560, Note_on_c, 0, 76, 80
1, 4619, Note_on_c, 0, 76, 0
1, 4620, Note_on_c, 0, 74, 80
1, 4679, Note_on_c, 0, 74, 0
1, 4680, Note_on_c, 0, 76, 80
1, 4739, Note_on_c, 0, 76, 0
1, 4740, Note_on_c, 0, 74, 80
1, 4799, Note_on_c, 0, 74, 0
1, 4800, Note_on_c, 0, 85, 80
1, 4860, Note_on_c, 0, 74, 80
1, 4919, Note_on_c, 0, 74, 0
1, 4919, Note_on_c, 0, 85, 0
1, 4920, Note_on_c, 0, 76, 80
1, 4979, Note_on_c, 0, 76, 0
1, 4980, Note_on_c, 0, 74, 80
1, 5039, Note_on_c, 0, 74, 0
1, 5040, Note_on_c, 0, 76, 80
1, 5099, Note_on_c, 0, 76, 0
1, 5100, Note_on_c, 0, 74, 80
1, 5159, Note_on_c, 0, 74, 0
1, 5160, Note_on_c, 0, 76, 80
1, 5219, Note_on_c, 0, 76, 0
1, 5220, Note_on_c, 0, 74, 80
1, 5279, Note_on_c, 0, 74, 0
1, 5280, Note_on_c, 0, 86, 80
1, 5340, Note_on_c, 0, 74, 80
1, 5399, Note_on_c, 0, 74, 0
1, 5399, Note_on_c, 0, 86, 0
1, 5400, Note_on_c, 0, 76, 80
1, 5459, Note_on_c, 0, 76, 0
1, 5460, Note_on_c, 0, 74, 80
1, 5519, Note_on_c, 0, 74, 0
1, 5520, Note_on_c, 0, 76, 80
1, 5579, Note_on_c, 0, 76, 0
1, 5580, Note_on_c, 0, 74, 80
1, 5639, Note_on_c, 0, 74, 0
1, 5640, Note_on_c, 0, 76, 80
1, 5699, Note_on_c, 0, 76, 0
1, 5700, Note_on_c, 0, 74, 80
1, 5759, Note_on_c, 0, 74, 0
1, 5760, Note_on_c, 0, 79, 64
1, 5990, Note_on_c, 0, 79, 0
1, 6000, Note_on_c, 0, 55, 64
1, 6230, Note_on_c, 0, 55, 0
1, 6240, Note_on_c, 0, 57, 64
1, 6470, Note_on_c, 0, 57, 0
1, 6480, Note_on_c, 0, 76, 64
1, 6710, Note_on_c, 0, 76, 0
1, 6720, Note_on_c, 0, 77, 64
1, 6950, Note_on_c, 0, 77, 0
1, 6960, Note_on_c, 0, 71, 80
1, 6960, Note_on_c, 0, 74, 64
1, 7190, Note_on_c, 0, 74, 0
1, 7199, Note_on_c, 0, 71, 0
1, 7200, Note_on_c, 0, 72, 80
1, 7200, Note_on_c, 0, 76, 64
1, 7430, Note_on_c, 0, 76, 0
1, 7439, Note_on_c, 0, 72, 0
1, 7440, Note_on_c, 0, 57, 64
1, 7670, Note_on_c, 0, 57, 0
1, 7680, Note_on_c, 0, 59, 64
1, 7910, Note_on_c, 0, 59, 0
1, 7920, Note_on_c, 0, 78, 64
1, 8150, Note_on_c, 0, 78, 0
1, 8160, Note_on_c, 0, 79, 64
1, 8390, Note_on_c, 0, 79, 0
1, 8400, Note_on_c, 0, 81, 80
1, 8400, Note_on_c, 0, 73, 64
1, 8630, Note_on_c, 0, 73, 0
1, 8639, Note_on_c, 0, 81, 0
1, 8640, Note_on_c, 0, 74, 80
1, 8640, Note_on_c, 0, 83, 64
1, 8870, Note_on_c, 0, 83, 0
1, 8879, Note_on_c, 0, 74, 0
1, 8880, Note_on_c, 0, 54, 80
1, 8880, Note_on_c, 0, 57, 64
1, 9110, Note_on_c, 0, 57, 0
1, 9119, Note_on_c, 0, 54, 0
1, 9120, Note_on_c, 0, 55, 80
1, 9120, Note_on_c, 0, 59, 64
1, 9350, Note_on_c, 0, 59, 0
1, 9359, Note_on_c, 0, 55, 0
1, 9360, Note_on_c, 0, 49, 80
1, 9360, Note_on_c, 0, 52, 64
1, 9590, Note_on_c, 0, 52, 0
1, 9599, Note_on_c, 0, 49, 0
1, 9600, Note_on_c, 0, 50, 80
1, 9600, Note_on_c, 0, 54, 64
1, 9830, Note_on_c, 0, 54, 0
1, 9839, Note_on_c, 0, 50, 0
1, 9840, Note_on_c, 0, 38, 80
1, 10079, Note_on_c, 0, 38, 0
1, 10080, Note_on_c, 0, 43, 80
1, 10319, Note_on_c, 0, 43, 0
1, 10320, Note_on_c, 0, 76, 80
1, 10320, Note_on_c, 0, 84, 64
1, 10550, Note_on_c, 0, 84, 0
1, 10559, Note_on_c, 0, 76, 0
1, 10560, Note_on_c, 0, 74, 80
1, 10560, Note_on_c, 0, 83, 64
1, 10790, Note_on_c, 0, 83, 0
1, 10799, Note_on_c, 0, 74, 0
1, 10800, Note_on_c, 0, 72, 80
1, 10800, Note_on_c, 0, 81, 64
1, 11030, Note_on_c, 0, 81, 0
1, 11039, Note_on_c, 0, 72, 0
1, 11040, Note_on_c, 0, 71, 80
1, 11040, Note_on_c, 0, 79, 64
1, 11270, Note_on_c, 0, 79, 0
1, 11279, Note_on_c, 0, 71, 0
1, 11280, Note_on_c, 0, 69, 80
1, 11280, Note_on_c, 0, 72, 80
1, 11280, Note_on_c, 0, 78, 64
1, 11510, Note_on_c, 0, 78, 0
1, 11519, Note_on_c, 0, 69, 0
1, 11519, Note_on_c, 0, 72, 0
1, 11520, Note_on_c, 0, 74, 80
1, 11520, Note_on_c, 0, 79, 80
1, 11520, Note_on_c, 0, 71, 80
1, 11520, Note_on_c, 0, 83, 64
1, 11630, Note_on_c, 0, 83, 0
1, 11639, Note_on_c, 0, 74, 0
1, 11639, Note_on_c, 0, 79, 0
1, 11639, Note_on_c, 0, 71, 0
1, 11640, Note_on_c, 0, 79, 64
1, 11750, Note_on_c, 0, 79, 0
1, 11760, Note_on_c, 0, 78, 64
1, 11870, Note_on_c, 0, 78, 0
1, 11880, Note_on_c, 0, 79, 64
1, 11990, Note_on_c, 0, 79, 0
1, 12000, Note_on_c, 0, 76, 64
1, 12110, Note_on_c, 0, 76, 0
1, 12120, Note_on_c, 0, 71, 64
1, 12230, Note_on_c, 0, 71, 0
1, 12240, Note_on_c, 0, 69, 64
1, 12350, Note_on_c, 0, 69, 0
1, 12360, Note_on_c, 0, 71, 64
1, 12470, Note_on_c, 0, 71, 0
1, 12480, Note_on_c, 0, 67, 64
1, 12590, Note_on_c, 0, 67, 0
1, 12600, Note_on_c, 0, 71, 64
1, 12710, Note_on_c, 0, 71, 0
1, 12720, Note_on_c, 0, 76, 64
1, 12830, Note_on_c, 0, 76, 0
1, 12840, Note_on_c, 0, 79, 64
1, 12950, Note_on_c, 0, 79, 0
1, 12960, Note_on_c, 0, 81, 64
1, 13070, Note_on_c, 0, 81, 0
1, 13080, Note_on_c, 0, 78, 64
1, 13190, Note_on_c, 0, 78, 0
1, 13200, Note_on_c, 0, 76, 64
1, 13310, Note_on_c, 0, 76, 0
1, 13320, Note_on_c, 0, 78, 64
1, 13430, Note_on_c, 0, 78, 0
1, 13440, Note_on_c, 0, 74, 64
1, 13550, Note_on_c, 0, 74, 0
1, 13560, Note_on_c, 0, 69, 64
1, 13670, Note_on_c, 0, 69, 0
1, 13680, Note_on_c, 0, 67, 64
1, 13790, Note_on_c, 0, 67, 0
1, 13800, Note_on_c, 0, 69, 64
1, 13910, Note_on_c, 0, 69, 0
1, 13920, Note_on_c, 0, 66, 64
1, 14030, Note_on_c, 0, 66, 0
1, 14040, Note_on_c, 0, 69, 64
1, 14150, Note_on_c, 0, 69, 0
1, 14160, Note_on_c, 0, 74, 64
1, 14270, Note_on_c, 0, 74, 0
1, 14280, Note_on_c, 0, 78, 64
1, 14390, Note_on_c, 0, 78, 0
1, 14400, Note_on_c, 0, 79, 64
1, 14510, Note_on_c, 0, 79, 0
1, 14520, Note_on_c, 0, 76, 64
1, 14630, Note_on_c, 0, 76, 0
1, 14640, Note_on_c, 0, 75, 64
1, 14750, Note_on_c, 0, 75, 0
1, 14760, Note_on_c, 0, 76, 64
1, 14870, Note_on_c, 0, 76, 0
1, 14880, Note_on_c, 0, 71, 64
1, 14990, Note_on_c, 0, 71, 0
1, 15000, Note_on_c, 0, 67, 64
1, 15110, Note_on_c, 0, 67, 0
1, 15120, Note_on_c, 0, 66, 64
1, 15230, Note_on_c, 0, 66, 0
1, 15240, Note_on_c, 0, 67, 64
1, 15350, Note_on_c, 0, 67, 0
1, 15360, Note_on_c, 0, 64, 64
1, 15470, Note_on_c, 0, 64, 0
1, 15480, Note_on_c, 0, 67, 64
1, 15590, Note_on_c, 0, 67, 0
1, 15600, Note_on_c, 0, 71, 64
1, 15710, Note_on_c, 0, 71, 0
1, 15720, Note_on_c, 0, 74, 64
1, 15830, Note_on_c, 0, 74, 0
1, 15840, Note_on_c, 0, 73, 64
1, 15950, Note_on_c, 0, 73, 0
1, 15960, Note_on_c, 0, 67, 64
1, 16070, Note_on_c, 0, 67, 0
1, 16080, Note_on_c, 0, 66, 64
1, 16190, Note_on_c, 0, 66, 0
1, 16200, Note_on_c, 0, 67, 64
1, 16310, Note_on_c, 0, 67, 0
1, 16320, Note_on_c, 0, 64, 64
1, 16430, Note_on_c, 0, 64, 0
1, 16440, Note_on_c, 0, 61, 64
1, 16550, Note_on_c, 0, 61, 0
1, 16560, Note_on_c, 0, 59, 64
1, 16670, Note_on_c, 0, 59, 0
1, 16680, Note_on_c, 0, 61, 64
1, 16790, Note_on_c, 0, 61, 0
1, 16800, Note_on_c, 0, 57, 64
1, 16910, Note_on_c, 0, 57, 0
1, 16920, Note_on_c, 0, 61, 64
1, 17030, Note_on_c, 0, 61, 0
1, 17040, Note_on_c, 0, 64, 64
1, 17150, Note_on_c, 0, 64, 0
1, 17160, Note_on_c, 0, 67, 64
1, 17270, Note_on_c, 0, 67, 0
1, 17280, Note_on_c, 0, 66, 80
1, 17340, Note_on_c, 0, 62, 80
1, 17399, Note_on_c, 0, 62, 0
1, 17399, Note_on_c, 0, 66, 0
1, 17400, Note_on_c, 0, 64, 80
1, 17459, Note_on_c, 0, 64, 0
1, 17460, Note_on_c, 0, 62, 80
1, 17519, Note_on_c, 0, 62, 0
1, 17520, Note_on_c, 0, 64, 80
1, 17579, Note_on_c, 0, 64, 0
1, 17580, Note_on_c, 0, 62, 80
1, 17639, Note_on_c, 0, 62, 0
1, 17640, Note_on_c, 0, 64, 80
1, 17699, Note_on_c, 0, 64, 0
1, 17700, Note_on_c, 0, 62, 80
1, 17759, Note_on_c, 0, 62, 0
1, 17760, Note_on_c, 0, 67, 80
1, 17820, Note_on_c, 0, 62, 80
1, 17879, Note_on_c, 0, 62, 0
1, 17879, Note_on_c, 0, 67, 0
1, 17880, Note_on_c, 0, 64, 80
1, 17939, Note_on_c, 0, 64, 0
1, 17940, Note_on_c, 0, 62, 80
1, 17999, Note_on_c, 0, 62, 0
1, 18000, Note_on_c, 0, 64, 80
1, 18059, Note_on_c, 0, 64, 0
1, 18060, Note_on_c, 0, 62, 80
1, 18119, Note_on_c, 0, 62, 0
1, 18120, Note_on_c, 0, 64, 80
1, 18179, Note_on_c, 0, 64, 0
1, 18180, Note_on_c, 0, 62, 80
1, 18239, Note_on_c, 0, 62, 0
1, 18240, Note_on_c, 0, 69, 80
1, 18300, Note_on_c, 0, 62, 80
1, 18359, Note_on_c, 0, 62, 0
1, 18359, Note_on_c, 0, 69, 0
1, 18360, Note_on_c, 0, 64, 80
1, 18419, Note_on_c, 0, 64, 0
1, 18420, Note_on_c, 0, 62, 80
1, 18479, Note_on_c, 0, 62, 0
1, 18480, Note_on_c, 0, 64, 80
1, 18539, Note_on_c, 0, 64, 0
1, 18540, Note_on_c, 0, 62, 80
1, 18599, Note_on_c, 0, 62, 0
1, 18600, Note_on_c, 0, 64, 80
1, 18659, Note_on_c, 0, 64, 0
1, 18660, Note_on_c, 0, 62, 80
1, 18719, Note_on_c, 0, 62, 0
1, 18720, Note_on_c, 0, 71, 80
1, 18780, Note_on_c, 0, 62, 80
1, 18839, Note_on_c, 0, 62, 0
1, 18839, Note_on_c, 0, 71, 0
1, 18840, Note_on_c, 0, 64, 80
1, 18899, Note_on_c, 0, 64, 0
1, 18900, Note_on_c, 0, 62, 80
1, 18959, Note_on_c, 0, 62, 0
1, 18960, Note_on_c, 0, 64, 80
1, 19019, Note_on_c, 0, 64, 0
1, 19020, Note_on_c, 0, 62, 80
1, 19079, Note_on_c, 0, 62, 0
1, 19080, Note_on_c, 0, 64, 80
1, 19139, Note_on_c, 0, 64, 0
1, 19140, Note_on_c, 0, 62, 80
1, 19199, Note_on_c, 0, 62, 0
1, 19200, Note_on_c, 0, 69, 80
1, 19260, Note_on_c, 0, 62, 80
1, 19319, Note_on_c, 0, 62, 0
1, 19319, Note_on_c, 0, 69, 0
1, 19320, Note_on_c, 0, 64, 80
1, 19379, Note_on_c, 0, 64, 0
1, 19380, Note_on_c, 0, 62, 80
1, 19439, Note_on_c, 0, 62, 0
1, 19440, Note_on_c, 0, 64, 80
1, 19499, Note_on_c, 0, 64, 0
1, 19500, Note_on_c, 0, 62, 80
1, 19559, Note_on_c, 0, 62, 0
1, 19560, Note_on_c, 0, 64, 80
1, 19619, Note_on_c, 0, 64, 0
1, 19620, Note_on_c, 0, 62, 80
1, 19679, Note_on_c, 0, 62, 0
1, 19680, Note_on_c, 0, 67, 80
1, 19740, Note_on_c, 0, 62, 80
1, 19799, Note_on_c, 0, 62, 0
1, 19799, Note_on_c, 0, 67, 0
1, 19800, Note_on_c, 0, 64, 80
1, 19859, Note_on_c, 0, 64, 0
1, 19860, Note_on_c, 0, 62, 80
1, 19919, Note_on_c, 0, 62, 0
1, 19920, Note_on_c, 0, 64, 80
1, 19979, Note_on_c, 0, 64, 0
1, 19980, Note_on_c, 0, 62, 80
1, 20039, Note_on_c, 0, 62, 0
1, 20040, Note_on_c, 0, 64, 80
1, 20099, Note_on_c, 0, 64, 0
1, 20100, Note_on_c, 0, 62, 80
1, 20159, Note_on_c, 0, 62, 0
1, 20160, Note_on_c, 0, 69, 80
1, 20220, Note_on_c, 0, 62, 80
1, 20279, Note_on_c, 0, 62, 0
1, 20279, Note_on_c, 0, 69, 0
1, 20280, Note_on_c, 0, 64, 80
1, 20339, Note_on_c, 0, 64, 0
1, 20340, Note_on_c, 0, 62, 80
1, 20399, Note_on_c, 0, 62, 0
1, 20400, Note_on_c, 0, 64, 80
1, 20459, Note_on_c, 0, 64, 0
1, 20460, Note_on_c, 0, 62, 80
1, 20519, Note_on_c, 0, 62, 0
1, 20520, Note_on_c, 0, 64, 80
1, 20579, Note_on_c, 0, 64, 0
1, 20580, Note_on_c, 0, 62, 80
1, 20639, Note_on_c, 0, 62, 0
1, 20640, Note_on_c, 0, 71, 80
1, 20700, Note_on_c, 0, 62, 80
1, 20759, Note_on_c, 0, 62, 0
1, 20759, Note_on_c, 0, 71, 0
1, 20760, Note_on_c, 0, 64, 80
1, 20819, Note_on_c, 0, 64, 0
1, 20820, Note_on_c, 0, 62, 80
1, 20879, Note_on_c, 0, 62, 0
1, 20880, Note_on_c, 0, 64, 80
1, 20939, Note_on_c, 0, 64, 0
1, 20940, Note_on_c, 0, 62, 80
1, 20999, Note_on_c, 0, 62, 0
1, 21000, Note_on_c, 0, 64, 80
1, 21059, Note_on_c, 0, 64, 0
1, 21060, Note_on_c, 0, 62, 80
1, 21119, Note_on_c, 0, 62, 0
1, 21120, Note_on_c, 0, 69, 80
1, 21180, Note_on_c, 0, 62, 80
1, 21239, Note_on_c, 0, 62, 0
1, 21239, Note_on_c, 0, 69, 0
1, 21240, Note_on_c, 0, 64, 80
1, 21299, Note_on_c, 0, 64, 0
1, 21300, Note_on_c, 0, 62, 80
1, 21359, Note_on_c, 0, 62, 0
1, 21360, Note_on_c, 0, 64, 80
1, 21419, Note_on_c, 0, 64, 0
1, 21420, Note_on_c, 0, 62, 80
1, 21479, Note_on_c, 0, 62, 0
1, 21480, Note_on_c, 0, 64, 80
1, 21539, Note_on_c, 0, 64, 0
1, 21540, Note_on_c, 0, 62, 80
1, 21599, Note_on_c, 0, 62, 0
1, 21600, Note_on_c, 0, 66, 64
1, 21710, Note_on_c, 0, 66, 0
1, 21720, Note_on_c, 0, 62, 64
1, 21830, Note_on_c, 0, 62, 0
1, 21840, Note_on_c, 0, 61, 64
1, 21950, Note_on_c, 0, 61, 0
1, 21960, Note_on_c, 0, 62, 64
1, 22070, Note_on_c, 0, 62, 0
1, 22080, Note_on_c, 0, 57, 64
1, 22190, Note_on_c, 0, 57, 0
1, 22200, Note_on_c, 0, 54, 64
1, 22310, Note_on_c, 0, 54, 0
1, 22320, Note_on_c, 0, 52, 64
1, 22430, Note_on_c, 0, 52, 0
1, 22440, Note_on_c, 0, 54, 64
1, 22550, Note_on_c, 0, 54, 0
1, 22560, Note_on_c, 0, 50, 64
1, 23030, Note_on_c, 0, 50, 0
1, 23040, Note_on_c, 0, 83, 80
1, 23100, Note_on_c, 0, 74, 80
1, 23159, Note_on_c, 0, 74, 0
1, 23159, Note_on_c, 0, 83, 0
1, 23160, Note_on_c, 0, 76, 80
1, 23219, Note_on_c, 0, 76, 0
1, 23220, Note_on_c, 0, 74, 80
1, 23279, Note_on_c, 0, 74, 0
1, 23280, Note_on_c, 0, 76, 80
1, 23339, Note_on_c, 0, 76, 0
1, 23340, Note_on_c, 0, 74, 80
1, 23399, Note_on_c, 0, 74, 0
1, 23400, Note_on_c, 0, 76, 80
1, 23459, Note_on_c, 0, 76, 0
1, 23460, Note_on_c, 0, 74, 80
1, 23519, Note_on_c, 0, 74, 0
1, 23520, Note_on_c, 0, 86, 80
1, 23580, Note_on_c, 0, 74, 80
1, 23639, Note_on_c, 0, 74, 0
1, 23639, Note_on_c, 0, 86, 0
1, 23640, Note_on_c, 0, 76, 80
1, 23699, Note_on_c, 0, 76, 0
1, 23700, Note_on_c, 0, 74, 80
1, 23759, Note_on_c, 0, 74, 0
1, 23760, Note_on_c, 0, 76, 80
1, 23819, Note_on_c, 0, 76, 0
1, 23820, Note_on_c, 0, 74, 80
1, 23879, Note_on_c, 0, 74, 0
1, 23880, Note_on_c, 0, 76, 80
1, 23939, Note_on_c, 0, 76, 0
1, 23940, Note_on_c, 0, 74, 80
1, 23999, Note_on_c, 0, 74, 0
1, 24000, Note_on_c, 0, 79, 80
1, 24060, Note_on_c, 0, 74, 80
1, 24119, Note_on_c, 0, 74, 0
1, 24119, Note_on_c, 0, 79, 0
1, 24120, Note_on_c, 0, 76, 80
1, 24179, Note_on_c, 0, 76, 0
1, 24180, Note_on_c, 0, 74, 80
1, 24239, Note_on_c, 0, 74, 0
1, 24240, Note_on_c, 0, 76, 80
1, 24299, Note_on_c, 0, 76, 0
1, 24300, Note_on_c, 0, 74, 80
1, 24359, Note_on_c, 0, 74, 0
1, 24360, Note_on_c, 0, 76, 80
1, 24419, Note_on_c, 0, 76, 0
1, 24420, Note_on_c, 0, 74, 80
1, 24479, Note_on_c, 0, 74, 0
1, 24480, Note_on_c, 0, 81, 80
1, 24540, Note_on_c, 0, 74, 80
1, 24599, Note_on_c, 0, 74, 0
1, 24599, Note_on_c, 0, 81, 0
1, 24600, Note_on_c, 0, 76, 80
1, 24659, Note_on_c, 0, 76, 0
1, 24660, Note_on_c, 0, 74, 80
1, 24719, Note_on_c, 0, 74, 0
1, 24720, Note_on_c, 0, 76, 80
1, 24779, Note_on_c, 0, 76, 0
1, 24780, Note_on_c, 0, 74, 80
1, 24839, Note_on_c, 0, 74, 0
1, 24840, Note_on_c, 0, 76, 80
1, 24899, Note_on_c, 0, 76, 0
1, 24900, Note_on_c, 0, 74, 80
1, 24959, Note_on_c, 0, 74, 0
1, 24960, Note_on_c, 0, 86, 80
1, 25020, Note_on_c, 0, 74, 80
1, 25079, Note_on_c, 0, 74, 0
1, 25079, Note_on_c, 0, 86, 0
1, 25080, Note_on_c, 0, 76, 80
1, 25139, Note_on_c, 0, 76, 0
1, 25140, Note_on_c, 0, 74, 80
1, 25199, Note_on_c, 0, 74, 0
1, 25200, Note_on_c, 0, 76, 80
1, 25259, Note_on_c, 0, 76, 0
1, 25260, Note_on_c, 0, 74, 80
1, 25319, Note_on_c, 0, 74, 0
1, 25320, Note_on_c, 0, 76, 80
1, 25379, Note_on_c, 0, 76, 0
1, 25380, Note_on_c, 0, 74, 80
1, 25439, Note_on_c, 0, 74, 0
1, 25440, Note_on_c, 0, 78, 80
1, 25500, Note_on_c, 0, 74, 80
1, 25559, Note_on_c, 0, 74, 0
1, 25559, Note_on_c, 0, 78, 0
1, 25560, Note_on_c, 0, 76, 80
1, 25619, Note_on_c, 0, 76, 0
1, 25620, Note_on_c, 0, 74, 80
1, 25679, Note_on_c, 0, 74, 0
1, 25680, Note_on_c, 0, 76, 80
1, 25739, Note_on_c, 0, 76, 0
1, 25740, Note_on_c, 0, 74, 80
1, 25799, Note_on_c, 0, 74, 0
1, 25800, Note_on_c, 0, 76, 80
1, 25859, Note_on_c, 0, 76, 0
1, 25860, Note_on_c, 0, 74, 80
1, 25919, Note_on_c, 0, 74, 0
1, 25920, Note_on_c, 0, 79, 80
1, 25980, Note_on_c, 0, 74, 80
1, 26039, Note_on_c, 0, 74, 0
1, 26039, Note_on_c, 0, 79, 0
1, 26040, Note_on_c, 0, 76, 80
1, 26099, Note_on_c, 0, 76, 0
1, 26100, Note_on_c, 0, 74, 80
1, 26159, Note_on_c, 0, 74, 0
1, 26160, Note_on_c, 0, 76, 80
1, 26219, Note_on_c, 0, 76, 0
1, 26220, Note_on_c, 0, 74, 80
1, 26279, Note_on_c, 0, 74, 0
1, 26280, Note_on_c, 0, 76, 80
1, 26339, Note_on_c, 0, 76, 0
1, 26340, Note_on_c, 0, 74, 80
1, 26399, Note_on_c, 0, 74, 0
1, 26400, Note_on_c, 0, 83, 80
1, 26460, Note_on_c, 0, 74, 80
1, 26519, Note_on_c, 0, 74, 0
1, 26519, Note_on_c, 0, 83, 0
1, 26520, Note_on_c, 0, 76, 80
1, 26579, Note_on_c, 0, 76, 0
1, 26580, Note_on_c, 0, 74, 80
1, 26639, Note_on_c, 0, 74, 0
1, 26640, Note_on_c, 0, 76, 80
1, 26699, Note_on_c, 0, 76, 0
1, 26700, Note_on_c, 0, 74, 80
1, 26759, Note_on_c, 0, 74, 0
1, 26760, Note_on_c, 0, 76, 80
1, 26819, Note_on_c, 0, 76, 0
1, 26820, Note_on_c, 0, 74, 80
1, 26879, Note_on_c, 0, 74, 0
1, 26880, Note_on_c, 0, 81, 80
1, 26940, Note_on_c, 0, 74, 80
1, 26999, Note_on_c, 0, 74, 0
1, 26999, Note_on_c, 0, 81, 0
1, 27000, Note_on_c, 0, 76, 80
1, 27059, Note_on_c, 0, 76, 0
1, 27060, Note_on_c, 0, 74, 80
1, 27119, Note_on_c, 0, 74, 0
1, 27120, Note_on_c, 0, 76, 80
1, 27179, Note_on_c, 0, 76, 0
1, 27180, Note_on_c, 0, 74, 80
1, 27239, Note_on_c, 0, 74, 0
1, 27240, Note_on_c, 0, 76, 80
1, 27299, Note_on_c, 0, 76, 0
1, 27300, Note_on_c, 0, 74, 80
1, 27359, Note_on_c, 0, 74, 0
1, 27360, Note_on_c, 0, 78, 80
1, 27420, Note_on_c, 0, 74, 80
1, 27479, Note_on_c, 0, 74, 0
1, 27479, Note_on_c, 0, 78, 0
1, 27480, Note_on_c, 0, 76, 80
1, 27539, Note_on_c, 0, 76, 0
1, 27540, Note_on_c, 0, 74, 80
1, 27599, Note_on_c, 0, 74, 0
1, 27600, Note_on_c, 0, 76, 80
1, 27659, Note_on_c, 0, 76, 0
1, 27660, Note_on_c, 0, 74, 80
1, 27719, Note_on_c, 0, 74, 0
1, 27720, Note_on_c, 0, 76, 80
1, 27779, Note_on_c, 0, 76, 0
1, 27780, Note_on_c, 0, 74, 80
1, 27839, Note_on_c, 0, 74, 0
1, 27840, Note_on_c, 0, 85, 80
1, 27900, Note_on_c, 0, 74, 80
1, 27959, Note_on_c, 0, 74, 0
1, 27959, Note_on_c, 0, 85, 0
1, 27960, Note_on_c, 0, 76, 80
1, 28019, Note_on_c, 0, 76, 0
1, 28020, Note_on_c, 0, 74, 80
1, 28079, Note_on_c, 0, 74, 0
1, 28080, Note_on_c, 0, 76, 80
1, 28139, Note_on_c, 0, 76, 0
1, 28140, Note_on_c, 0, 74, 80
1, 28199, Note_on_c, 0, 74, 0
1, 28200, Note_on_c, 0, 76, 80
1, 28259, Note_on_c, 0, 76, 0
1, 28260, Note_on_c, 0, 74, 80
1, 28319, Note_on_c, 0, 74, 0
1, 28320, Note_on_c, 0, 86, 80
1, 28380, Note_on_c, 0, 74, 80
1, 28439, Note_on_c, 0, 74, 0
1, 28439, Note_on_c, 0, 86, 0
1, 28440, Note_on_c, 0, 76, 80
1, 28499, Note_on_c, 0, 76, 0
1, 28500, Note_on_c, 0, 74, 80
1, 28559, Note_on_c, 0, 74, 0
1, 28560, Note_on_c, 0, 76, 80
1, 28619, Note_on_c, 0, 76, 0
1, 28620, Note_on_c, 0, 74, 80
1, 28679, Note_on_c, 0, 74, 0
1, 28680, Note_on_c, 0, 76, 80
1, 28739, Note_on_c, 0, 76, 0
1, 28740, Note_on_c, 0, 74, 80
1, 28799, Note_on_c, 0, 74, 0
1, 28800, Note_on_c, 0, 79, 64
1, 29030, Note_on_c, 0, 79, 0
1, 29040, Note_on_c, 0, 55, 64
1, 29270, Note_on_c, 0, 55, 0
1, 29280, Note_on_c, 0, 57, 64
1, 29510, Note_on_c, 0, 57, 0
1, 29520, Note_on_c, 0, 76, 64
1, 29750, Note_on_c, 0, 76, 0
1, 29760, Note_on_c, 0, 77, 64
1, 29990, Note_on_c, 0, 77, 0
1, 30000, Note_on_c, 0, 71, 80
1, 30000, Note_on_c, 0, 74, 64
1, 30230, Note_on_c, 0, 74, 0
1, 30239, Note_on_c, 0, 71, 0
1, 30240, Note_on_c, 0, 72, 80
1, 30240, Note_on_c, 0, 76, 64
1, 30470, Note_on_c, 0, 76, 0
1, 30479, Note_on_c, 0, 72, 0
1, 30480, Note_on_c, 0, 57, 64
1, 30710, Note_on_c, 0, 57, 0
1, 30720, Note_on_c, 0, 59, 64
1, 30950, Note_on_c, 0, 59, 0
1, 30960, Note_on_c, 0, 78, 64
1, 31190, Note_on_c, 0, 78, 0
1, 31200, Note_on_c, 0, 79, 64
1, 31430, Note_on_c, 0, 79, 0
1, 31440, Note_on_c, 0, 81, 80
1, 31440, Note_on_c, 0, 73, 64
1, 31670, Note_on_c, 0, 73, 0
1, 31679, Note_on_c, 0, 81, 0
1, 31680, Note_on_c, 0, 74, 80
1, 31680, Note_on_c, 0, 83, 64
1, 31910, Note_on_c, 0, 83, 0
1, 31919, Note_on_c, 0, 74, 0
1, 31920, Note_on_c, 0, 54, 80
1, 31920, Note_on_c, 0, 57, 64
1, 32150, Note_on_c, 0, 57, 0
1, 32159, Note_on_c, 0, 54, 0
1, 32160, Note_on_c, 0, 55, 80
1, 32160, Note_on_c, 0, 59, 64
1, 32390, Note_on_c, 0, 59, 0
1, 32399, Note_on_c, 0, 55, 0
1, 32400, Note_on_c, 0, 49, 80
1, 32400, Note_on_c, 0, 52, 64
1, 32630, Note_on_c, 0, 52, 0
1, 32639, Note_on_c, 0, 49, 0
1, 32640, Note_on_c, 0, 50, 80
1, 32640, Note_on_c, 0, 54, 64
1, 32870, Note_on_c, 0, 54, 0
1, 32879, Note_on_c, 0, 50, 0
1, 32880, Note_on_c, 0, 38, 80
1, 33119, Note_on_c, 0, 38, 0
1, 33120, Note_on_c, 0, 43, 80
1, 33359, Note_on_c, 0, 43, 0
1, 33360, Note_on_c, 0, 76, 80
1, 33360, Note_on_c, 0, 84, 64
1, 33590, Note_on_c, 0, 84, 0
1, 33599, Note_on_c, 0, 76, 0
1, 33600, Note_on_c, 0, 74, 80
1, 33600, Note_on_c, 0, 83, 64
1, 33830, Note_on_c, 0, 83, 0
1, 33839, Note_on_c, 0, 74, 0
1, 33840, Note_on_c, 0, 72, 80
1, 33840, Note_on_c, 0, 81, 64
1, 34070, Note_on_c, 0, 81, 0
1, 34079, Note_on_c, 0, 72, 0
1, 34080, Note_on_c, 0, 71, 80
1, 34080, Note_on_c, 0, 79, 64
1, 34310, Note_on_c, 0, 79, 0
1, 34319, Note_on_c, 0, 71, 0
1, 34320, Note_on_c, 0, 69, 80
1, 34320, Note_on_c, 0, 72, 80
1, 34320, Note_on_c, 0, 78, 64
1, 34550, Note_on_c, 0, 78, 0
1, 34559, Note_on_c, 0, 69, 0
1, 34559, Note_on_c, 0, 72, 0
1, 34560, Note_on_c, 0, 74, 80
1, 34560, Note_on_c, 0, 79, 80
1, 34560, Note_on_c, 0, 71, 80
1, 34560, Note_on_c, 0, 83, 64
1, 34670, Note_on_c, 0, 83, 0
1, 34679, Note_on_c, 0, 74, 0
1, 34679, Note_on_c, 0, 79, 0
1, 34679, Note_on_c, 0, 71, 0
1, 34680, Note_on_c, 0, 79, 64
1, 34790, Note_on_c, 0, 79, 0
1, 34800, Note_on_c, 0, 78, 64
1, 34910, Note_on_c, 0, 78, 0
1, 34920, Note_on_c, 0, 79, 64
1, 35030, Note_on_c, 0, 79, 0
1, 35040, Note_on_c, 0, 76, 64
1, 35150, Note_on_c, 0, 76, 0
1, 35160, Note_on_c, 0, 71, 64
1, 35270, Note_on_c, 0, 71, 0
1, 35280, Note_on_c, 0, 69, 64
1, 35390, Note_on_c, 0, 69, 0
1, 35400, Note_on_c, 0, 71, 64
1, 35510, Note_on_c, 0, 71, 0
1, 35520, Note_on_c, 0, 67, 64
1, 35630, Note_on_c, 0, 67, 0
1, 35640, Note_on_c, 0, 71, 64
1, 35750, Note_on_c, 0, 71, 0
1, 35760, Note_on_c, 0, 76, 64
1, 35870, Note_on_c, 0, 76, 0
1, 35880, Note_on_c, 0, 79, 64
1, 35990, Note_on_c, 0, 79, 0
1, 36000, Note_on_c, 0, 81, 64
1, 36110, Note_on_c, 0, 81, 0
1, 36120, Note_on_c, 0, 78, 64
1, 36230, Note_on_c, 0, 78, 0
1, 36240, Note_on_c, 0, 76, 64
1, 36350, Note_on_c, 0, 76, 0
1, 36360, Note_on_c, 0, 78, 64
1, 36470, Note_on_c, 0, 78, 0
1, 36480, Note_on_c, 0, 74, 64
1, 36590, Note_on_c, 0, 74, 0
1, 36600, Note_on_c, 0, 69, 64
1, 36710, Note_on_c, 0, 69, 0
1, 36720, Note_on_c, 0, 67, 64
1, 36830, Note_on_c, 0, 67, 0
1, 36840, Note_on_c, 0, 69, 64
1, 36950, Note_on_c, 0, 69, 0
1, 36960, Note_on_c, 0, 66, 64
1, 37070, Note_on_c, 0, 66, 0
1, 37080, Note_on_c, 0, 69, 64
1, 37190, Note_on_c, 0, 69, 0
1, 37200, Note_on_c, 0, 74, 64
1, 37310, Note_on_c, 0, 74, 0
1, 37320, Note_on_c, 0, 78, 64
1, 37430, Note_on_c, 0, 78, 0
1, 37440, Note_on_c, 0, 79, 64
1, 37550, Note_on_c, 0, 79, 0
1, 37560, Note_on_c, 0, 76, 64
1, 37670, Note_on_c, 0, 76, 0
1, 37680, Note_on_c, 0, 75, 64
1, 37790, Note_on_c, 0, 75, 0
1, 37800, Note_on_c, 0, 76, 64
1, 37910, Note_on_c, 0, 76, 0
1, 37920, Note_on_c, 0, 71, 64
1, 38030, Note_on_c, 0, 71, 0
1, 38040, Note_on_c, 0, 67, 64
1, 38150, Note_on_c, 0, 67, 0
1, 38160, Note_on_c, 0, 66, 64
1, 38270, Note_on_c, 0, 66, 0
1, 38280, Note_on_c, 0, 67, 64
1, 38390, Note_on_c, 0, 67, 0
1, 38400, Note_on_c, 0, 64, 64
1, 38510, Note_on_c, 0, 64, 0
1, 38520, Note_on_c, 0, 67, 64
1, 38630, Note_on_c, 0, 67, 0
1, 38640, Note_on_c, 0, 71, 64
1, 38750, Note_on_c, 0, 71, 0
1, 38760, Note_on_c, 0, 74, 64
1, 38870, Note_on_c, 0, 74, 0
1, 38880, Note_on_c, 0, 73, 64
1, 38990, Note_on_c, 0, 73, 0
1, 39000, Note_on_c, 0, 67, 64
1, 39110, Note_on_c, 0, 67, 0
1, 39120, Note_on_c, 0, 66, 64
1, 39230, Note_on_c, 0, 66, 0
1, 39240, Note_on_c, 0, 67, 64
1, 39350, Note_on_c, 0, 67, 0
1, 39360, Note_on_c, 0, 64, 64
1, 39470, Note_on_c, 0, 64, 0
1, 39480, Note_on_c, 0, 61, 64
1, 39590, Note_on_c, 0, 61, 0
1, 39600, Note_on_c, 0, 59, 64
1, 39710, Note_on_c, 0, 59, 0
1, 39720, Note_on_c, 0, 61, 64
1, 39830, Note_on_c, 0, 61, 0
1, 39840, Note_on_c, 0, 57, 64
1, 39950, Note_on_c, 0, 57, 0
1, 39960, Note_on_c, 0, 61, 64
1, 40070, Note_on_c, 0, 61, 0
1, 40080, Note_on_c, 0, 64, 64
1, 40190, Note_on_c, 0, 64, 0
1, 40200, Note_on_c, 0, 67, 64
1, 40310, Note_on_c, 0, 67, 0
1, 40320, Note_on_c, 0, 66, 80
1, 40380, Note_on_c, 0, 62, 80
1, 40439, Note_on_c, 0, 62, 0
1, 40439, Note_on_c, 0, 66, 0
1, 40440, Note_on_c, 0, 64, 80
1, 40499, Note_on_c, 0, 64, 0
1, 40500, Note_on_c, 0, 62, 80
1, 40559, Note_on_c, 0, 62, 0
1, 40560, Note_on_c, 0, 64, 80
1, 40619, Note_on_c, 0, 64, 0
1, 40620, Note_on_c, 0, 62, 80
1, 40679, Note_on_c, 0, 62, 0
1, 40680, Note_on_c, 0, 64, 80
1, 40739, Note_on_c, 0, 64, 0
1, 40740, Note_on_c, 0, 62, 80
1, 40799, Note_on_c, 0, 62, 0
1, 40800, Note_on_c, 0, 67, 80
1, 40860, Note_on_c, 0, 62, 80
1, 40919, Note_on_c, 0, 62, 0
1, 40919, Note_on_c, 0, 67, 0
1, 40920, Note_on_c, 0, 64, 80
1, 40979, Note_on_c, 0, 64, 0
1, 40980, Note_on_c, 0, 62, 80
1, 41039, Note_on_c, 0, 62, 0
1, 41040, Note_on_c, 0, 64, 80
1, 41099, Note_on_c, 0, 64, 0
1, 41100, Note_on_c, 0, 62, 80
1, 41159, Note_on_c, 0, 62, 0
1, 41160, Note_on_c, 0, 64, 80
1, 41219, Note_on_c, 0, 64, 0
1, 41220, Note_on_c, 0, 62, 80
1, 41279, Note_on_c, 0, 62, 0
1, 41280, Note_on_c, 0, 69, 80
1, 41340, Note_on_c, 0, 62, 80
1, 41399, Note_on_c, 0, 62, 0
1, 41399, Note_on_c, 0, 69, 0
1, 41400, Note_on_c, 0, 64, 80
1, 41459, Note_on_c, 0, 64, 0
1, 41460, Note_on_c, 0, 62, 80
1, 41519, Note_on_c, 0, 62, 0
1, 41520, Note_on_c, 0, 64, 80
1, 41579, Note_on_c, 0, 64, 0
1, 41580, Note_on_c, 0, 62, 80
1, 41639, Note_on_c, 0, 62, 0
1, 41640, Note_on_c, 0, 64, 80
1, 41699, Note_on_c, 0, 64, 0
1, 41700, Note_on_c, 0, 62, 80
1, 41759, Note_on_c, 0, 62, 0
1, 41760, Note_on_c, 0, 71, 80
1, 41820, Note_on_c, 0, 62, 80
1, 41879, Note_on_c, 0, 62, 0
1, 41879, Note_on_c, 0, 71, 0
1, 41880, Note_on_c, 0, 64, 80
1, 41939, Note_on_c, 0, 64, 0
1, 41940, Note_on_c, 0, 62, 80
1, 41999, Note_on_c, 0, 62, 0
1, 42000, Note_on_c, 0, 64, 80
1, 42059, Note_on_c, 0, 64, 0
1, 42060, Note_on_c, 0, 62, 80
1, 42119, Note_on_c, 0, 62, 0
1, 42120, Note_on_c, 0, 64, 80
1, 42179, Note_on_c, 0, 64, 0
1, 42180, Note_on_c, 0, 62, 80
1, 42239, Note_on_c, 0, 62, 0
1, 42240, Note_on_c, 0, 69, 80
1, 42300, Note_on_c, 0, 62, 80
1, 42359, Note_on_c, 0, 62, 0
1, 42359, Note_on_c, 0, 69, 0
1, 42360, Note_on_c, 0, 64, 80
1, 42419, Note_on_c, 0, 64, 0
1, 42420, Note_on_c, 0, 62, 80
1, 42479, Note_on_c, 0, 62, 0
1, 42480, Note_on_c, 0, 64, 80
1, 42539, Note_on_c, 0, 64, 0
1, 42540, Note_on_c, 0, 62, 80
1, 42599, Note_on_c, 0, 62, 0
1, 42600, Note_on_c, 0, 64, 80
1, 42659, Note_on_c, 0, 64, 0
1, 42660, Note_on_c, 0, 62, 80
1, 42719, Note_on_c, 0, 62, 0
1, 42720, Note_on_c, 0, 67, 80
1, 42780, Note_on_c, 0, 62, 80
1, 42839, Note_on_c, 0, 62, 0
1, 42839, Note_on_c, 0, 67, 0
1, 42840, Note_on_c, 0, 64, 80
1, 42899, Note_on_c, 0, 64, 0
1, 42900, Note_on_c, 0, 62, 80
1, 42959, Note_on_c, 0, 62, 0
1, 42960, Note_on_c, 0, 64, 80
1, 43019, Note_on_c, 0, 64, 0
1, 43020, Note_on_c, 0, 62, 80
1, 43079, Note_on_c, 0, 62, 0
1, 43080, Note_on_c, 0, 64, 80
1, 43139, Note_on_c, 0, 64, 0
1, 43140, Note_on_c, 0, 62, 80
1, 43199, Note_on_c, 0, 62, 0
1, 43200, Note_on_c, 0, 69, 80
1, 43260, Note_on_c, 0, 62, 80
1, 43319, Note_on_c, 0, 62, 0
1, 43319, Note_on_c, 0, 69, 0
1, 43320, Note_on_c, 0, 64, 80
1, 43379, Note_on_c, 0, 64, 0
1, 43380, Note_on_c, 0, 62, 80
1, 43439, Note_on_c, 0, 62, 0
1, 43440, Note_on_c, 0, 64, 80
1, 43499, Note_on_c, 0, 64, 0
1, 43500, Note_on_c, 0, 62, 80
1, 43559, Note_on_c, 0, 62, 0
1, 43560, Note_on_c, 0, 64, 80
1, 43619, Note_on_c, 0, 64, 0
1, 43620, Note_on_c, 0, 62, 80
1, 43679, Note_on_c, 0, 62, 0
1, 43680, Note_on_c, 0, 71, 80
1, 43740, Note_on_c, 0, 62, 80
1, 43799, Note_on_c, 0, 62, 0
1, 43799, Note_on_c, 0, 71, 0
1, 43800, Note_on_c, 0, 64, 80
1, 43859, Note_on_c, 0, 64, 0
1, 43860, Note_on_c, 0, 62, 80
1, 43919, Note_on_c, 0, 62, 0
1, 43920, Note_on_c, 0, 64, 80
1, 43979, Note_on_c, 0, 64, 0
1, 43980, Note_on_c, 0, 62, 80
1, 44039, Note_on_c, 0, 62, 0
1, 44040, Note_on_c, 0, 64, 80
1, 44099, Note_on_c, 0, 64, 0
1, 44100, Note_on_c, 0, 62, 80
1, 44159, Note_on_c, 0, 62, 0
1, 44160, Note_on_c, 0, 69, 80
1, 44220, Note_on_c, 0, 62, 80
1, 44279, Note_on_c, 0, 62, 0
1, 44279, Note_on_c, 0, 69, 0
1, 44280, Note_on_c, 0, 64, 80
1, 44339, Note_on_c, 0, 64, 0
1, 44340, Note_on_c, 0, 62, 80
1, 44399, Note_on_c, 0, 62, 0
1, 44400, Note_on_c, 0, 64, 80
1, 44459, Note_on_c, 0, 64, 0
1, 44460, Note_on_c, 0, 62, 80
1, 44519, Note_on_c, 0, 62, 0
1, 44520, Note_on_c, 0, 64, 80
1, 44579, Note_on_c, 0, 64, 0
1, 44580, Note_on_c, 0, 62, 80
1, 44639, Note_on_c, 0, 62, 0
1, 44640, Note_on_c, 0, 66, 64
1, 44750, Note_on_c, 0, 66, 0
1, 44760, Note_on_c, 0, 62, 64
1, 44870, Note_on_c, 0, 62, 0
1, 44880, Note_on_c, 0, 61, 64
1, 44990, Note_on_c, 0, 61, 0
1, 45000, Note_on_c, 0, 62, 64
1, 45110, Note_on_c, 0, 62, 0
1, 45120, Note_on_c, 0, 57, 64
1, 45230, Note_on_c, 0, 57, 0
1, 45240, Note_on_c, 0, 54, 64
1, 45350, Note_on_c, 0, 54, 0
1, 45360, Note_on_c, 0, 52, 64
1, 45470, Note_on_c, 0, 52, 0
1, 45480, Note_on_c, 0, 54, 64
1, 45590, Note_on_c, 0, 54, 0
1, 45600, Note_on_c, 0, 50, 64
1, 46070, Note_on_c, 0, 50, 0
1, 46080, Note_on_c, 0, 66, 64
1, 46190, Note_on_c, 0, 66, 0
1, 46200, Note_on_c, 0, 69, 64
1, 46310, Note_on_c, 0, 69, 0
1, 46320, Note_on_c, 0, 67, 64
1, 46430, Note_on_c, 0, 67, 0
1, 46440, Note_on_c, 0, 69, 64
1, 46550, Note_on_c, 0, 69, 0
1, 46560, Note_on_c, 0, 74, 64
1, 46670, Note_on_c, 0, 74, 0
1, 46680, Note_on_c, 0, 78, 64
1, 46790, Note_on_c, 0, 78, 0
1, 46800, Note_on_c, 0, 76, 64
1, 46910, Note_on_c, 0, 76, 0
1, 46920, Note_on_c, 0, 78, 64
1, 47030, Note_on_c, 0, 78, 0
1, 47040, Note_on_c, 0, 81, 64
1, 47150, Note_on_c, 0, 81, 0
1, 47160, Note_on_c, 0, 78, 64
1, 47270, Note_on_c, 0, 78, 0
1, 47280, Note_on_c, 0, 72, 64
1, 47390, Note_on_c, 0, 72, 0
1, 47400, Note_on_c, 0, 69, 64
1, 47510, Note_on_c, 0, 69, 0
1, 47520, Note_on_c, 0, 71, 64
1, 47630, Note_on_c, 0, 71, 0
1, 47640, Note_on_c, 0, 74, 64
1, 47750, Note_on_c, 0, 74, 0
1, 47760, Note_on_c, 0, 72, 64
1, 47870, Note_on_c, 0, 72, 0
1, 47880, Note_on_c, 0, 74, 64
1, 47990, Note_on_c, 0, 74, 0
1, 48000, Note_on_c, 0, 79, 64
1, 48110, Note_on_c, 0, 79, 0
1, 48120, Note_on_c, 0, 83, 64
1, 48230, Note_on_c, 0, 83, 0
1, 48240, Note_on_c, 0, 81, 64
1, 48350, Note_on_c, 0, 81, 0
1, 48360, Note_on_c, 0, 83, 64
1, 48470, Note_on_c, 0, 83, 0
1, 48480, Note_on_c, 0, 86, 64
1, 48590, Note_on_c, 0, 86, 0
1, 48600, Note_on_c, 0, 83, 64
1, 48710, Note_on_c, 0, 83, 0
1, 48720, Note_on_c, 0, 77, 64
1, 48830, Note_on_c, 0, 77, 0
1, 48840, Note_on_c, 0, 74, 64
1, 48950, Note_on_c, 0, 74, 0
1, 48960, Note_on_c, 0, 76, 64
1, 49190, Note_on_c, 0, 76, 0
1, 49200, Note_on_c, 0, 71, 64
1, 49430, Note_on_c, 0, 71, 0
1, 49440, Note_on_c, 0, 72, 64
1, 49670, Note_on_c, 0, 72, 0
1, 49680, Note_on_c, 0, 63, 64
1, 49910, Note_on_c, 0, 63, 0
1, 49920, Note_on_c, 0, 64, 64
1, 50150, Note_on_c, 0, 64, 0
1, 50160, Note_on_c, 0, 55, 64
1, 50390, Note_on_c, 0, 55, 0
1, 50400, Note_on_c, 0, 54, 64
1, 50630, Note_on_c, 0, 54, 0
1, 50640, Note_on_c, 0, 76, 64
1, 50870, Note_on_c, 0, 76, 0
1, 50880, Note_on_c, 0, 75, 64
1, 50990, Note_on_c, 0, 75, 0
1, 51000, Note_on_c, 0, 78, 64
1, 51110, Note_on_c, 0, 78, 0
1, 51120, Note_on_c, 0, 76, 64
1, 51230, Note_on_c, 0, 76, 0
1, 51240, Note_on_c, 0, 78, 64
1, 51350, Note_on_c, 0, 78, 0
1, 51360, Note_on_c, 0, 81, 64
1, 51470, Note_on_c, 0, 81, 0
1, 51480, Note_on_c, 0, 78, 64
1, 51590, Note_on_c, 0, 78, 0
1, 51600, Note_on_c, 0, 75, 64
1, 51710, Note_on_c, 0, 75, 0
1, 51720, Note_on_c, 0, 78, 64
1, 51830, Note_on_c, 0, 78, 0
1, 51840, Note_on_c, 0, 71, 80
1, 51900, Note_on_c, 0, 79, 80
1, 51959, Note_on_c, 0, 71, 0
1, 51959, Note_on_c, 0, 79, 0
1, 51960, Note_on_c, 0, 81, 80
1, 52019, Note_on_c, 0, 81, 0
1, 52020, Note_on_c, 0, 79, 80
1, 52079, Note_on_c, 0, 79, 0
1, 52080, Note_on_c, 0, 81, 80
1, 52139, Note_on_c, 0, 81, 0
1, 52140, Note_on_c, 0, 79, 80
1, 52199, Note_on_c, 0, 79, 0
1, 52200, Note_on_c, 0, 81, 80
1, 52259, Note_on_c, 0, 81, 0
1, 52260, Note_on_c, 0, 79, 80
1, 52319, Note_on_c, 0, 79, 0
1, 52320, Note_on_c, 0, 73, 80
1, 52380, Note_on_c, 0, 79, 80
1, 52439, Note_on_c, 0, 73, 0
1, 52439, Note_on_c, 0, 79, 0
1, 52440, Note_on_c, 0, 81, 80
1, 52499, Note_on_c, 0, 81, 0
1, 52500, Note_on_c, 0, 79, 80
1, 52559, Note_on_c, 0, 79, 0
1, 52560, Note_on_c, 0, 81, 80
1, 52619, Note_on_c, 0, 81, 0
1, 52620, Note_on_c, 0, 79, 80
1, 52679, Note_on_c, 0, 79, 0
1, 52680, Note_on_c, 0, 81, 80
1, 52739, Note_on_c, 0, 81, 0
1, 52740, Note_on_c, 0, 79, 80
1, 52799, Note_on_c, 0, 79, 0
1, 52800, Note_on_c, 0, 75, 80
1, 52860, Note_on_c, 0, 79, 80
1, 52919, Note_on_c, 0, 75, 0
1, 52919, Note_on_c, 0, 79, 0
1, 52920, Note_on_c, 0, 81, 80
1, 52979, Note_on_c, 0, 81, 0
1, 52980, Note_on_c, 0, 79, 80
1, 53039, Note_on_c, 0, 79, 0
1, 53040, Note_on_c, 0, 81, 80
1, 53099, Note_on_c, 0, 81, 0
1, 53100, Note_on_c, 0, 79, 80
1, 53159, Note_on_c, 0, 79, 0
1, 53160, Note_on_c, 0, 81, 80
1, 53219, Note_on_c, 0, 81, 0
1, 53220, Note_on_c, 0, 79, 80
1, 53279, Note_on_c, 0, 79, 0
1, 53280, Note_on_c, 0, 76, 80
1, 53340, Note_on_c, 0, 79, 80
1, 53399, Note_on_c, 0, 76, 0
1, 53399, Note_on_c, 0, 79, 0
1, 53400, Note_on_c, 0, 81, 80
1, 53459, Note_on_c, 0, 81, 0
1, 53460, Note_on_c, 0, 79, 80
1, 53519, Note_on_c, 0, 79, 0
1, 53520, Note_on_c, 0, 81, 80
1, 53579, Note_on_c, 0, 81, 0
1, 53580, Note_on_c, 0, 79, 80
1, 53639, Note_on_c, 0, 79, 0
1, 53640, Note_on_c, 0, 81, 80
1, 53699, Note_on_c, 0, 81, 0
1, 53700, Note_on_c, 0, 79, 80
1, 53759, Note_on_c, 0, 79, 0
1, 53760, Note_on_c, 0, 75, 80
1, 53820, Note_on_c, 0, 79, 80
1, 53879, Note_on_c, 0, 75, 0
1, 53879, Note_on_c, 0, 79, 0
1, 53880, Note_on_c, 0, 81, 80
1, 53939, Note_on_c, 0, 81, 0
1, 53940, Note_on_c, 0, 79, 80
1, 53999, Note_on_c, 0, 79, 0
1, 54000, Note_on_c, 0, 81, 80
1, 54059, Note_on_c, 0, 81, 0
1, 54060, Note_on_c, 0, 79, 80
1, 54119, Note_on_c, 0, 79, 0
1, 54120, Note_on_c, 0, 81, 80
1, 54179, Note_on_c, 0, 81, 0
1, 54180, Note_on_c, 0, 79, 80
1, 54239, Note_on_c, 0, 79, 0
1, 54240, Note_on_c, 0, 76, 80
1, 54300, Note_on_c, 0, 79, 80
1, 54359, Note_on_c, 0, 76, 0
1, 54359, Note_on_c, 0, 79, 0
1, 54360, Note_on_c, 0, 81, 80
1, 54419, Note_on_c, 0, 81, 0
1, 54420, Note_on_c, 0, 79, 80
1, 54479, Note_on_c, 0, 79, 0
1, 54480, Note_on_c, 0, 81, 80
1, 54539, Note_on_c, 0, 81, 0
1, 54540, Note_on_c, 0, 79, 80
1, 54599, Note_on_c, 0, 79, 0
1, 54600, Note_on_c, 0, 81, 80
1, 54659, Note_on_c, 0, 81, 0
1, 54660, Note_on_c, 0, 79, 80
1, 54719, Note_on_c, 0, 79, 0
1, 54720, Note_on_c, 0, 73, 80
1, 54780, Note_on_c, 0, 79, 80
1, 54839, Note_on_c, 0, 73, 0
1, 54839, Note_on_c, 0, 79, 0
1, 54840, Note_on_c, 0, 81, 80
1, 54899, Note_on_c, 0, 81, 0
1, 54900, Note_on_c, 0, 79, 80
1, 54959, Note_on_c, 0, 79, 0
1, 54960, Note_on_c, 0, 81, 80
1, 55019, Note_on_c, 0, 81, 0
1, 55020, Note_on_c, 0, 79, 80
1, 55079, Note_on_c, 0, 79, 0
1, 55080, Note_on_c, 0, 81, 80
1, 55139, Note_on_c, 0, 81, 0
1, 55140, Note_on_c, 0, 79, 80
1, 55199, Note_on_c, 0, 79, 0
1, 55200, Note_on_c, 0, 71, 80
1, 55260, Note_on_c, 0, 79, 80
1, 55319, Note_on_c, 0, 71, 0
1, 55319, Note_on_c, 0, 79, 0
1, 55320, Note_on_c, 0, 81, 80
1, 55379, Note_on_c, 0, 81, 0
1, 55380, Note_on_c, 0, 79, 80
1, 55439, Note_on_c, 0, 79, 0
1, 55440, Note_on_c, 0, 81, 80
1, 55499, Note_on_c, 0, 81, 0
1, 55500, Note_on_c, 0, 79, 80
1, 55559, Note_on_c, 0, 79, 0
1, 55560, Note_on_c, 0, 81, 80
1, 55619, Note_on_c, 0, 81, 0
1, 55620, Note_on_c, 0, 79, 80
1, 55679, Note_on_c, 0, 79, 0
1, 55680, Note_on_c, 0, 69, 80
1, 55740, Note_on_c, 0, 78, 80
1, 55799, Note_on_c, 0, 69, 0
1, 55799, Note_on_c, 0, 78, 0
1, 55800, Note_on_c, 0, 79, 80
1, 55859, Note_on_c, 0, 79, 0
1, 55860, Note_on_c, 0, 78, 80
1, 55919, Note_on_c, 0, 78, 0
1, 55920, Note_on_c, 0, 79, 80
1, 55979, Note_on_c, 0, 79, 0
1, 55980, Note_on_c, 0, 78, 80
1, 56039, Note_on_c, 0, 78, 0
1, 56040, Note_on_c, 0, 79, 80
1, 56099, Note_on_c, 0, 79, 0
1, 56100, Note_on_c, 0, 78, 80
1, 56159, Note_on_c, 0, 78, 0
1, 56160, Note_on_c, 0, 76, 64
1, 56270, Note_on_c, 0, 76, 0
1, 56280, Note_on_c, 0, 67, 64
1, 56390, Note_on_c, 0, 67, 0
1, 56400, Note_on_c, 0, 66, 64
1, 56510, Note_on_c, 0, 66, 0
1, 56520, Note_on_c, 0, 67, 64
1, 56630, Note_on_c, 0, 67, 0
1, 56640, Note_on_c, 0, 71, 64
1, 56750, Note_on_c, 0, 71, 0
1, 56760, Note_on_c, 0, 76, 64
1, 56870, Note_on_c, 0, 76, 0
1, 56880, Note_on_c, 0, 75, 64
1, 56990, Note_on_c, 0, 75, 0
1, 57000, Note_on_c, 0, 76, 64
1, 57110, Note_on_c, 0, 76, 0
1, 57120, Note_on_c, 0, 79, 64
1, 57175, Note_on_c, 0, 79, 0
1, 57180, Note_on_c, 0, 77, 64
1, 57235, Note_on_c, 0, 77, 0
1, 57240, Note_on_c, 0, 76, 64
1, 57350, Note_on_c, 0, 76, 0
1, 57360, Note_on_c, 0, 77, 64
1, 57415, Note_on_c, 0, 77, 0
1, 57420, Note_on_c, 0, 76, 64
1, 57475, Note_on_c, 0, 76, 0
1, 57480, Note_on_c, 0, 74, 64
1, 57590, Note_on_c, 0, 74, 0
1, 57600, Note_on_c, 0, 76, 64
1, 57830, Note_on_c, 0, 76, 0
1, 57840, Note_on_c, 0, 64, 64
1, 58070, Note_on_c, 0, 64, 0
1, 58080, Note_on_c, 0, 63, 64
1, 58310, Note_on_c, 0, 63, 0
1, 58320, Note_on_c, 0, 62, 64
1, 58550, Note_on_c, 0, 62, 0
1, 58560, Note_on_c, 0, 61, 64
1, 58790, Note_on_c, 0, 61, 0
1, 58800, Note_on_c, 0, 76, 64
1, 59030, Note_on_c, 0, 76, 0
1, 59040, Note_on_c, 0, 74, 64
1, 59270, Note_on_c, 0, 74, 0
1, 59280, Note_on_c, 0, 62, 64
1, 59510, Note_on_c, 0, 62, 0
1, 59520, Note_on_c, 0, 61, 64
1, 59750, Note_on_c, 0, 61, 0
1, 59760, Note_on_c, 0, 60, 64
1, 59990, Note_on_c, 0, 60, 0
1, 60000, Note_on_c, 0, 59, 64
1, 60230, Note_on_c, 0, 59, 0
1, 60240, Note_on_c, 0, 74, 64
1, 60470, Note_on_c, 0, 74, 0
1, 60480, Note_on_c, 0, 64, 80
1, 60540, Note_on_c, 0, 72, 80
1, 60599, Note_on_c, 0, 64, 0
1, 60599, Note_on_c, 0, 72, 0
1, 60600, Note_on_c, 0, 74, 80
1, 60659, Note_on_c, 0, 74, 0
1, 60660, Note_on_c, 0, 72, 80
1, 60719, Note_on_c, 0, 72, 0
1, 60720, Note_on_c, 0, 74, 80
1, 60779, Note_on_c, 0, 74, 0
1, 60780, Note_on_c, 0, 72, 80
1, 60839, Note_on_c, 0, 72, 0
1, 60840, Note_on_c, 0, 74, 80
1, 60899, Note_on_c, 0, 74, 0
1, 60900, Note_on_c, 0, 72, 80
1, 60959, Note_on_c, 0, 72, 0
1, 60960, Note_on_c, 0, 62, 80
1, 61020, Note_on_c, 0, 72, 80
1, 61079, Note_on_c, 0, 62, 0
1, 61079, Note_on_c, 0, 72, 0
1, 61080, Note_on_c, 0, 74, 80
1, 61139, Note_on_c, 0, 74, 0
1, 61140, Note_on_c, 0, 72, 80
1, 61199, Note_on_c, 0, 72, 0
1, 61200, Note_on_c, 0, 74, 80
1, 61259, Note_on_c, 0, 74, 0
1, 61260, Note_on_c, 0, 72, 80
1, 61319, Note_on_c, 0, 72, 0
1, 61320, Note_on_c, 0, 74, 80
1, 61379, Note_on_c, 0, 74, 0
1, 61380, Note_on_c, 0, 72, 80
1, 61439, Note_on_c, 0, 72, 0
1, 61440, Note_on_c, 0, 64, 80
1, 61500, Note_on_c, 0, 72, 80
1, 61559, Note_on_c, 0, 64, 0
1, 61559, Note_on_c, 0, 72, 0
1, 61560, Note_on_c, 0, 74, 80
1, 61619, Note_on_c, 0, 74, 0
1, 61620, Note_on_c, 0, 72, 80
1, 61679, Note_on_c, 0, 72, 0
1, 61680, Note_on_c, 0, 74, 80
1, 61739, Note_on_c, 0, 74, 0
1, 61740, Note_on_c, 0, 72, 80
1, 61799, Note_on_c, 0, 72, 0
1, 61800, Note_on_c, 0, 74, 80
1, 61859, Note_on_c, 0, 74, 0
1, 61860, Note_on_c, 0, 72, 80
1, 61919, Note_on_c, 0, 72, 0
1, 61920, Note_on_c, 0, 66, 80
1, 61980, Note_on_c, 0, 72, 80
1, 62039, Note_on_c, 0, 66, 0
1, 62039, Note_on_c, 0, 72, 0
1, 62040, Note_on_c, 0, 74, 80
1, 62099, Note_on_c, 0, 74, 0
1, 62100, Note_on_c, 0, 72, 80
1, 62159, Note_on_c, 0, 72, 0
1, 62160, Note_on_c, 0, 74, 80
1, 62219, Note_on_c, 0, 74, 0
1, 62220, Note_on_c, 0, 72, 80
1, 62279, Note_on_c, 0, 72, 0
1, 62280, Note_on_c, 0, 74, 80
1, 62339, Note_on_c, 0, 74, 0
1, 62340, Note_on_c, 0, 72, 80
1, 62399, Note_on_c, 0, 72, 0
1, 62400, Note_on_c, 0, 64, 80
1, 62460, Note_on_c, 0, 72, 80
1, 62519, Note_on_c, 0, 64, 0
1, 62519, Note_on_c, 0, 72, 0
1, 62520, Note_on_c, 0, 74, 80
1, 62579, Note_on_c, 0, 74, 0
1, 62580, Note_on_c, 0, 72, 80
1, 62639, Note_on_c, 0, 72, 0
1, 62640, Note_on_c, 0, 74, 80
1, 62699, Note_on_c, 0, 74, 0
1, 62700, Note_on_c, 0, 72, 80
1, 62759, Note_on_c, 0, 72, 0
1, 62760, Note_on_c, 0, 74, 80
1, 62819, Note_on_c, 0, 74, 0
1, 62820, Note_on_c, 0, 72, 80
1, 62879, Note_on_c, 0, 72, 0
1, 62880, Note_on_c, 0, 66, 80
1, 62940, Note_on_c, 0, 72, 80
1, 62999, Note_on_c, 0, 66, 0
1, 62999, Note_on_c, 0, 72, 0
1, 63000, Note_on_c, 0, 74, 80
1, 63059, Note_on_c, 0, 74, 0
1, 63060, Note_on_c, 0, 72, 80
1, 63119, Note_on_c, 0, 72, 0
1, 63120, Note_on_c, 0, 74, 80
1, 63179, Note_on_c, 0, 74, 0
1, 63180, Note_on_c, 0, 72, 80
1, 63239, Note_on_c, 0, 72, 0
1, 63240, Note_on_c, 0, 74, 80
1, 63299, Note_on_c, 0, 74, 0
1, 63300, Note_on_c, 0, 72, 80
1, 63359, Note_on_c, 0, 72, 0
1, 63360, Note_on_c, 0, 71, 80
1, 63479, Note_on_c, 0, 71, 0
1, 63600, Note_on_c, 0, 67, 80
1, 63659, Note_on_c, 0, 67, 0
1, 63660, Note_on_c, 0, 67, 80
1, 63719, Note_on_c, 0, 67, 0
1, 63720, Note_on_c, 0, 69, 80
1, 63779, Note_on_c, 0, 69, 0
1, 63780, Note_on_c, 0, 67, 80
1, 63839, Note_on_c, 0, 67, 0
1, 63840, Note_on_c, 0, 72, 80
1, 63900, Note_on_c, 0, 67, 80
1, 63959, Note_on_c, 0, 67, 0
1, 63959, Note_on_c, 0, 72, 0
1, 63960, Note_on_c, 0, 69, 80
1, 64019, Note_on_c, 0, 69, 0
1, 64020, Note_on_c, 0, 67, 80
1, 64079, Note_on_c, 0, 67, 0
1, 64080, Note_on_c, 0, 69, 80
1, 64139, Note_on_c, 0, 69, 0
1, 64140, Note_on_c, 0, 67, 80
1, 64199, Note_on_c, 0, 67, 0
1, 64200, Note_on_c, 0, 69, 80
1, 64259, Note_on_c, 0, 69, 0
1, 64260, Note_on_c, 0, 67, 80
1, 64319, Note_on_c, 0, 67, 0
1, 64320, Note_on_c, 0, 74, 80
1, 64380, Note_on_c, 0, 65, 80
1, 64439, Note_on_c, 0, 65, 0
1, 64439, Note_on_c, 0, 74, 0
1, 64440, Note_on_c, 0, 67, 80
1, 64499, Note_on_c, 0, 67, 0
1, 64500, Note_on_c, 0, 65, 80
1, 64559, Note_on_c, 0, 65, 0
1, 64560, Note_on_c, 0, 67, 80
1, 64619, Note_on_c, 0, 67, 0
1, 64620, Note_on_c, 0, 65, 80
1, 64679, Note_on_c, 0, 65, 0
1, 64680, Note_on_c, 0, 67, 80
1, 64739, Note_on_c, 0, 67, 0
1, 64740, Note_on_c, 0, 65, 80
1, 64799, Note_on_c, 0, 65, 0
1, 64800, Note_on_c, 0, 64, 64
1, 65030, Note_on_c, 0, 64, 0
1, 65040, Note_on_c, 0, 76, 64
1, 65270, Note_on_c, 0, 76, 0
1, 65280, Note_on_c, 0, 77, 64
1, 65510, Note_on_c, 0, 77, 0
1, 65520, Note_on_c, 0, 78, 64
1, 65750, Note_on_c, 0, 78, 0
1, 65760, Note_on_c, 0, 79, 64
1, 65990, Note_on_c, 0, 79, 0
1, 66000, Note_on_c, 0, 80, 64
1, 66230, Note_on_c, 0, 80, 0
1, 66240, Note_on_c, 0, 81, 64
1, 66350, Note_on_c, 0, 81, 0
1, 66360, Note_on_c, 0, 66, 64
1, 66470, Note_on_c, 0, 66, 0
1, 66480, Note_on_c, 0, 64, 64
1, 66590, Note_on_c, 0, 64, 0
1, 66600, Note_on_c, 0, 66, 64
1, 66710, Note_on_c, 0, 66, 0
1, 66720, Note_on_c, 0, 67, 64
1, 66830, Note_on_c, 0, 67, 0
1, 66840, Note_on_c, 0, 71, 64
1, 66950, Note_on_c, 0, 71, 0
1, 66960, Note_on_c, 0, 69, 64
1, 67070, Note_on_c, 0, 69, 0
1, 67080, Note_on_c, 0, 71, 64
1, 67190, Note_on_c, 0, 71, 0
1, 67200, Note_on_c, 0, 72, 64
1, 67310, Note_on_c, 0, 72, 0
1, 67320, Note_on_c, 0, 69, 64
1, 67430, Note_on_c, 0, 69, 0
1, 67440, Note_on_c, 0, 66, 64
1, 67550, Note_on_c, 0, 66, 0
1, 67560, Note_on_c, 0, 62, 64
1, 67670, Note_on_c, 0, 62, 0
1, 67680, Note_on_c, 0, 67, 64
1, 67790, Note_on_c, 0, 67, 0
1, 67800, Note_on_c, 0, 71, 64
1, 67910, Note_on_c, 0, 71, 0
1, 67920, Note_on_c, 0, 69, 64
1, 68030, Note_on_c, 0, 69, 0
1, 68040, Note_on_c, 0, 71, 64
1, 68150, Note_on_c, 0, 71, 0
1, 68160, Note_on_c, 0, 74, 64
1, 68270, Note_on_c, 0, 74, 0
1, 68280, Note_on_c, 0, 79, 64
1, 68390, Note_on_c, 0, 79, 0
1, 68400, Note_on_c, 0, 78, 64
1, 68510, Note_on_c, 0, 78, 0
1, 68520, Note_on_c, 0, 79, 64
1, 68630, Note_on_c, 0, 79, 0
1, 68640, Note_on_c, 0, 83, 64
1, 69110, Note_on_c, 0, 83, 0
1, 69120, Note_on_c, 0, 66, 64
1, 69230, Note_on_c, 0, 66, 0
1, 69240, Note_on_c, 0, 69, 64
1, 69350, Note_on_c, 0, 69, 0
1, 69360, Note_on_c, 0, 67, 64
1, 69470, Note_on_c, 0, 67, 0
1, 69480, Note_on_c, 0, 69, 64
1, 69590, Note_on_c, 0, 69, 0
1, 69600, Note_on_c, 0, 74, 64
1, 69710, Note_on_c, 0, 74, 0
1, 69720, Note_on_c, 0, 78, 64
1, 69830, Note_on_c, 0, 78, 0
1, 69840, Note_on_c, 0, 76, 64
1, 69950, Note_on_c, 0, 76, 0
1, 69960, Note_on_c, 0, 78, 64
1, 70070, Note_on_c, 0, 78, 0
1, 70080, Note_on_c, 0, 81, 64
1, 70190, Note_on_c, 0, 81, 0
1, 70200, Note_on_c, 0, 78, 64
1, 70310, Note_on_c, 0, 78, 0
1, 70320, Note_on_c, 0, 72, 64
1, 70430, Note_on_c, 0, 72, 0
1, 70440, Note_on_c, 0, 69, 64
1, 70550, Note_on_c, 0, 69, 0
1, 70560, Note_on_c, 0, 71, 64
1, 70670, Note_on_c, 0, 71, 0
1, 70680, Note_on_c, 0, 74, 64
1, 70790, Note_on_c, 0, 74, 0
1, 70800, Note_on_c, 0, 72, 64
1, 70910, Note_on_c, 0, 72, 0
1, 70920, Note_on_c, 0, 74, 64
1, 71030, Note_on_c, 0, 74, 0
1, 71040, Note_on_c, 0, 79, 64
1, 71150, Note_on_c, 0, 79, 0
1, 71160, Note_on_c, 0, 83, 64
1, 71270, Note_on_c, 0, 83, 0
1, 71280, Note_on_c, 0, 81, 64
1, 71390, Note_on_c, 0, 81, 0
1, 71400, Note_on_c, 0, 83, 64
1, 71510, Note_on_c, 0, 83, 0
1, 71520, Note_on_c, 0, 86, 64
1, 71630, Note_on_c, 0, 86, 0
1, 71640, Note_on_c, 0, 83, 64
1, 71750, Note_on_c, 0, 83, 0
1, 71760, Note_on_c, 0, 77, 64
1, 71870, Note_on_c, 0, 77, 0
1, 71880, Note_on_c, 0, 74, 64
1, 71990, Note_on_c, 0, 74, 0
1, 72000, Note_on_c, 0, 76, 64
1, 72230, Note_on_c, 0, 76, 0
1, 72240, Note_on_c, 0, 71, 64
1, 72470, Note_on_c, 0, 71, 0
1, 72480, Note_on_c, 0, 72, 64
1, 72710, Note_on_c, 0, 72, 0
1, 72720, Note_on_c, 0, 63, 64
1, 72950, Note_on_c, 0, 63, 0
1, 72960, Note_on_c, 0, 64, 64
1, 73190, Note_on_c, 0, 64, 0
1, 73200, Note_on_c, 0, 55, 64
1, 73430, Note_on_c, 0, 55, 0
1, 73440, Note_on_c, 0, 54, 64
1, 73670, Note_on_c, 0, 54, 0
1, 73680, Note_on_c, 0, 76, 64
1, 73910, Note_on_c, 0, 76, 0
1, 73920, Note_on_c, 0, 75, 64
1, 74030, Note_on_c, 0, 75, 0
1, 74040, Note_on_c, 0, 78, 64
1, 74150, Note_on_c, 0, 78, 0
1, 74160, Note_on_c, 0, 76, 64
1, 74270, Note_on_c, 0, 76, 0
1, 74280, Note_on_c, 0, 78, 64
1, 74390, Note_on_c, 0, 78, 0
1, 74400, Note_on_c, 0, 81, 64
1, 74510, Note_on_c, 0, 81, 0
1, 74520, Note_on_c, 0, 78, 64
1, 74630, Note_on_c, 0, 78, 0
1, 74640, Note_on_c, 0, 75, 64
1, 74750, Note_on_c, 0, 75, 0
1, 74760, Note_on_c, 0, 78, 64
1, 74870, Note_on_c, 0, 78, 0
1, 74880, Note_on_c, 0, 71, 80
1, 74940, Note_on_c, 0, 79, 80
1, 74999, Note_on_c, 0, 71, 0
1, 74999, Note_on_c, 0, 79, 0
1, 75000, Note_on_c, 0, 81, 80
1, 75059, Note_on_c, 0, 81, 0
1, 75060, Note_on_c, 0, 79, 80
1, 75119, Note_on_c, 0, 79, 0
1, 75120, Note_on_c, 0, 81, 80
1, 75179, Note_on_c, 0, 81, 0
1, 75180, Note_on_c, 0, 79, 80
1, 75239, Note_on_c, 0, 79, 0
1, 75240, Note_on_c, 0, 81, 80
1, 75299, Note_on_c, 0, 81, 0
1, 75300, Note_on_c, 0, 79, 80
1, 75359, Note_on_c, 0, 79, 0
1, 75360, Note_on_c, 0, 73, 80
1, 75420, Note_on_c, 0, 79, 80
1, 75479, Note_on_c, 0, 73, 0
1, 75479, Note_on_c, 0, 79, 0
1, 75480, Note_on_c, 0, 81, 80
1, 75539, Note_on_c, 0, 81, 0
1, 75540, Note_on_c, 0, 79, 80
1, 75599, Note_on_c, 0, 79, 0
1, 75600, Note_on_c, 0, 81, 80
1, 75659, Note_on_c, 0, 81, 0
1, 75660, Note_on_c, 0, 79, 80
1, 75719, Note_on_c, 0, 79, 0
1, 75720, Note_on_c, 0, 81, 80
1, 75779, Note_on_c, 0, 81, 0
1, 75780, Note_on_c, 0, 79, 80
1, 75839, Note_on_c, 0, 79, 0
1, 75840, Note_on_c, 0, 75, 80
1, 75900, Note_on_c, 0, 79, 80
1, 75959, Note_on_c, 0, 75, 0
1, 75959, Note_on_c, 0, 79, 0
1, 75960, Note_on_c, 0, 81, 80
1, 76019, Note_on_c, 0, 81, 0
1, 76020, Note_on_c, 0, 79, 80
1, 76079, Note_on_c, 0, 79, 0
1, 76080, Note_on_c, 0, 81, 80
1, 76139, Note_on_c, 0, 81, 0
1, 76140, Note_on_c, 0, 79, 80
1, 76199, Note_on_c, 0, 79, 0
1, 76200, Note_on_c, 0, 81, 80
1, 76259, Note_on_c, 0, 81, 0
1, 76260, Note_on_c, 0, 79, 80
1, 76319, Note_on_c, 0, 79, 0
1, 76320, Note_on_c, 0, 76, 80
1, 76380, Note_on_c, 0, 79, 80
1, 76439, Note_on_c, 0, 76, 0
1, 76439, Note_on_c, 0, 79, 0
1, 76440, Note_on_c, 0, 81, 80
1, 76499, Note_on_c, 0, 81, 0
1, 76500, Note_on_c, 0, 79, 80
1, 76559, Note_on_c, 0, 79, 0
1, 76560, Note_on_c, 0, 81, 80
1, 76619, Note_on_c, 0, 81, 0
1, 76620, Note_on_c, 0, 79, 80
1, 76679, Note_on_c, 0, 79, 0
1, 76680, Note_on_c, 0, 81, 80
1, 76739, Note_on_c, 0, 81, 0
1, 76740, Note_on_c, 0, 79, 80
1, 76799, Note_on_c, 0, 79, 0
1, 76800, Note_on_c, 0, 75, 80
1, 76860, Note_on_c, 0, 79, 80
1, 76919, Note_on_c, 0, 75, 0
1, 76919, Note_on_c, 0, 79, 0
1, 76920, Note_on_c, 0, 81, 80
1, 76979, Note_on_c, 0, 81, 0
1, 76980, Note_on_c, 0, 79, 80
1, 77039, Note_on_c, 0, 79, 0
1, 77040, Note_on_c, 0, 81, 80
1, 77099, Note_on_c, 0, 81, 0
1, 77100, Note_on_c, 0, 79, 80
1, 77159, Note_on_c, 0, 79, 0
1, 77160, Note_on_c, 0, 81, 80
1, 77219, Note_on_c, 0, 81, 0
1, 77220, Note_on_c, 0, 79, 80
1, 77279, Note_on_c, 0, 79, 0
1, 77280, Note_on_c, 0, 76, 80
1, 77340, Note_on_c, 0, 79, 80
1, 77399, Note_on_c, 0, 76, 0
1, 77399, Note_on_c, 0, 79, 0
1, 77400, Note_on_c, 0, 81, 80
1, 77459, Note_on_c, 0, 81, 0
1, 77460, Note_on_c, 0, 79, 80
1, 77519, Note_on_c, 0, 79, 0
1, 77520, Note_on_c, 0, 81, 80
1, 77579, Note_on_c, 0, 81, 0
1, 77580, Note_on_c, 0, 79, 80
1, 77639, Note_on_c, 0, 79, 0
1, 77640, Note_on_c, 0, 81, 80
1, 77699, Note_on_c, 0, 81, 0
1, 77700, Note_on_c, 0, 79, 80
1, 77759, Note_on_c, 0, 79, 0
1, 77760, Note_on_c, 0, 73, 80
1, 77820, Note_on_c, 0, 79, 80
1, 77879, Note_on_c, 0, 73, 0
1, 77879, Note_on_c, 0, 79, 0
1, 77880, Note_on_c, 0, 81, 80
1, 77939, Note_on_c, 0, 81, 0
1, 77940, Note_on_c, 0, 79, 80
1, 77999, Note_on_c, 0, 79, 0
1, 78000, Note_on_c, 0, 81, 80
1, 78059, Note_on_c, 0, 81, 0
1, 78060, Note_on_c, 0, 79, 80
1, 78119, Note_on_c, 0, 79, 0
1, 78120, Note_on_c, 0, 81, 80
1, 78179, Note_on_c, 0, 81, 0
1, 78180, Note_on_c, 0, 79, 80
1, 78239, Note_on_c, 0, 79, 0
1, 78240, Note_on_c, 0, 71, 80
1, 78300, Note_on_c, 0, 79, 80
1, 78359, Note_on_c, 0, 71, 0
1, 78359, Note_on_c, 0, 79, 0
1, 78360, Note_on_c, 0, 81, 80
1, 78419, Note_on_c, 0, 81, 0
1, 78420, Note_on_c, 0, 79, 80
1, 78479, Note_on_c, 0, 79, 0
1, 78480, Note_on_c, 0, 81, 80
1, 78539, Note_on_c, 0, 81, 0
1, 78540, Note_on_c, 0, 79, 80
1, 78599, Note_on_c, 0, 79, 0
1, 78600, Note_on_c, 0, 81, 80
1, 78659, Note_on_c, 0, 81, 0
1, 78660, Note_on_c, 0, 79, 80
1, 78719, Note_on_c, 0, 79, 0
1, 78720, Note_on_c, 0, 69, 80
1, 78780, Note_on_c, 0, 78, 80
1, 78839, Note_on_c, 0, 69, 0
1, 78839, Note_on_c, 0, 78, 0
1, 78840, Note_on_c, 0, 79, 80
1, 78899, Note_on_c, 0, 79, 0
1, 78900, Note_on_c, 0, 78, 80
1, 78959, Note_on_c, 0, 78, 0
1, 78960, Note_on_c, 0, 79, 80
1, 79019, Note_on_c, 0, 79, 0
1, 79020, Note_on_c, 0, 78, 80
1, 79079, Note_on_c, 0, 78, 0
1, 79080, Note_on_c, 0, 79, 80
1, 79139, Note_on_c, 0, 79, 0
1, 79140, Note_on_c, 0, 78, 80
1, 79199, Note_on_c, 0, 78, 0
1, 79200, Note_on_c, 0, 76, 64
1, 79310, Note_on_c, 0, 76, 0
1, 79320, Note_on_c, 0, 67, 64
1, 79430, Note_on_c, 0, 67, 0
1, 79440, Note_on_c, 0, 66, 64
1, 79550, Note_on_c, 0, 66, 0
1, 79560, Note_on_c, 0, 67, 64
1, 79670, Note_on_c, 0, 67, 0
1, 79680, Note_on_c, 0, 71, 64
1, 79790, Note_on_c, 0, 71, 0
1, 79800, Note_on_c, 0, 76, 64
1, 79910, Note_on_c, 0, 76, 0
1, 79920, Note_on_c, 0, 75, 64
1, 80030, Note_on_c, 0, 75, 0
1, 80040, Note_on_c, 0, 76, 64
1, 80150, Note_on_c, 0, 76, 0
1, 80160, Note_on_c, 0, 79, 64
1, 80215, Note_on_c, 0, 79, 0
1, 80220, Note_on_c, 0, 77, 64
1, 80275, Note_on_c, 0, 77, 0
1, 80280, Note_on_c, 0, 76, 64
1, 80390, Note_on_c, 0, 76, 0
1, 80400, Note_on_c, 0, 77, 64
1, 80455, Note_on_c, 0, 77, 0
1, 80460, Note_on_c, 0, 76, 64
1, 80515, Note_on_c, 0, 76, 0
1, 80520, Note_on_c, 0, 74, 64
1, 80630, Note_on_c, 0, 74, 0
1, 80640, Note_on_c, 0, 76, 64
1, 80870, Note_on_c, 0, 76, 0
1, 80880, Note_on_c, 0, 64, 64
1, 81110, Note_on_c, 0, 64, 0
1, 81120, Note_on_c, 0, 63, 64
1, 81350, Note_on_c, 0, 63, 0
1, 81360, Note_on_c, 0, 62, 64
1, 81590, Note_on_c, 0, 62, 0
1, 81600, Note_on_c, 0, 61, 64
1, 81830, Note_on_c, 0, 61, 0
1, 81840, Note_on_c, 0, 76, 64
1, 82070, Note_on_c, 0, 76, 0
1, 82080, Note_on_c, 0, 74, 64
1, 82310, Note_on_c, 0, 74, 0
1, 82320, Note_on_c, 0, 62, 64
1, 82550, Note_on_c, 0, 62, 0
1, 82560, Note_on_c, 0, 61, 64
1, 82790, Note_on_c, 0, 61, 0
1, 82800, Note_on_c, 0, 60, 64
1, 83030, Note_on_c, 0, 60, 0
1, 83040, Note_on_c, 0, 59, 64
1, 83270, Note_on_c, 0, 59, 0
1, 83280, Note_on_c, 0, 74, 64
1, 83510, Note_on_c, 0, 74, 0
1, 83520, Note_on_c, 0, 64, 80
1, 83580, Note_on_c, 0, 72, 80
1, 83639, Note_on_c, 0, 64, 0
1, 83639, Note_on_c, 0, 72, 0
1, 83640, Note_on_c, 0, 74, 80
1, 83699, Note_on_c, 0, 74, 0
1, 83700, Note_on_c, 0, 72, 80
1, 83759, Note_on_c, 0, 72, 0
1, 83760, Note_on_c, 0, 74, 80
1, 83819, Note_on_c, 0, 74, 0
1, 83820, Note_on_c, 0, 72, 80
1, 83879, Note_on_c, 0, 72, 0
1, 83880, Note_on_c, 0, 74, 80
1, 83939, Note_on_c, 0, 74, 0
1, 83940, Note_on_c, 0, 72, 80
1, 83999, Note_on_c, 0, 72, 0
1, 84000, Note_on_c, 0, 62, 80
1, 84060, Note_on_c, 0, 72, 80
1, 84119, Note_on_c, 0, 62, 0
1, 84119, Note_on_c, 0, 72, 0
1, 84120, Note_on_c, 0, 74, 80
1, 84179, Note_on_c, 0, 74, 0
1, 84180, Note_on_c, 0, 72, 80
1, 84239, Note_on_c, 0, 72, 0
1, 84240, Note_on_c, 0, 74, 80
1, 84299, Note_on_c, 0, 74, 0
1, 84300, Note_on_c, 0, 72, 80
1, 84359, Note_on_c, 0, 72, 0
1, 84360, Note_on_c, 0, 74, 80
1, 84419, Note_on_c, 0, 74, 0
1, 84420, Note_on_c, 0, 72, 80
1, 84479, Note_on_c, 0, 72, 0
1, 84480, Note_on_c, 0, 64, 80
1, 84540, Note_on_c, 0, 72, 80
1, 84599, Note_on_c, 0, 64, 0
1, 84599, Note_on_c, 0, 72, 0
1, 84600, Note_on_c, 0, 74, 80
1, 84659, Note_on_c, 0, 74, 0
1, 84660, Note_on_c, 0, 72, 80
1, 84719, Note_on_c, 0, 72, 0
1, 84720, Note_on_c, 0, 74, 80
1, 84779, Note_on_c, 0, 74, 0
1, 84780, Note_on_c, 0, 72, 80
1, 84839, Note_on_c, 0, 72, 0
1, 84840, Note_on_c, 0, 74, 80
1, 84899, Note_on_c, 0, 74, 0
1, 84900, Note_on_c, 0, 72, 80
1, 84959, Note_on_c, 0, 72, 0
1, 84960, Note_on_c, 0, 66, 80
1, 85020, Note_on_c, 0, 72, 80
1, 85079, Note_on_c, 0, 66, 0
1, 85079, Note_on_c, 0, 72, 0
1, 85080, Note_on_c, 0, 74, 80
1, 85139, Note_on_c, 0, 74, 0
1, 85140, Note_on_c, 0, 72, 80
1, 85199, Note_on_c, 0, 72, 0
1, 85200, Note_on_c, 0, 74, 80
1, 85259, Note_on_c, 0, 74, 0
1, 85260, Note_on_c, 0, 72, 80
1, 85319, Note_on_c, 0, 72, 0
1, 85320, Note_on_c, 0, 74, 80
1, 85379, Note_on_c, 0, 74, 0
1, 85380, Note_on_c, 0, 72, 80
1, 85439, Note_on_c, 0, 72, 0
1, 85440, Note_on_c, 0, 64, 80
1, 85500, Note_on_c, 0, 72, 80
1, 85559, Note_on_c, 0, 64, 0
1, 85559, Note_on_c, 0, 72, 0
1, 85560, Note_on_c, 0, 74, 80
1, 85619, Note_on_c, 0, 74, 0
1, 85620, Note_on_c, 0, 72, 80
1, 85679, Note_on_c, 0, 72, 0
1, 85680, Note_on_c, 0, 74, 80
1, 85739, Note_on_c, 0, 74, 0
1, 85740, Note_on_c, 0, 72, 80
1, 85799, Note_on_c, 0, 72, 0
1, 85800, Note_on_c, 0, 74, 80
1, 85859, Note_on_c, 0, 74, 0
1, 85860, Note_on_c, 0, 72, 80
1, 85919, Note_on_c, 0, 72, 0
1, 85920, Note_on_c, 0, 66, 80
1, 85980, Note_on_c, 0, 72, 80
1, 86039, Note_on_c, 0, 66, 0
1, 86039, Note_on_c, 0, 72, 0
1, 86040, Note_on_c, 0, 74, 80
1, 86099, Note_on_c, 0, 74, 0
1, 86100, Note_on_c, 0, 72, 80
1, 86159, Note_on_c, 0, 72, 0
1, 86160, Note_on_c, 0, 74, 80
1, 86219, Note_on_c, 0, 74, 0
1, 86220, Note_on_c, 0, 72, 80
1, 86279, Note_on_c, 0, 72, 0
1, 86280, Note_on_c, 0, 74, 80
1, 86339, Note_on_c, 0, 74, 0
1, 86340, Note_on_c, 0, 72, 80
1, 86399, Note_on_c, 0, 72, 0
1, 86400, Note_on_c, 0, 71, 80
1, 86519, Note_on_c, 0, 71, 0
1, 86640, Note_on_c, 0, 67, 80
1, 86699, Note_on_c, 0, 67, 0
1, 86700, Note_on_c, 0, 67, 80
1, 86759, Note_on_c, 0, 67, 0
1, 86760, Note_on_c, 0, 69, 80
1, 86819, Note_on_c, 0, 69, 0
1, 86820, Note_on_c, 0, 67, 80
1, 86879, Note_on_c, 0, 67, 0
1, 86880, Note_on_c, 0, 72, 80
1, 86940, Note_on_c, 0, 67, 80
1, 86999, Note_on_c, 0, 67, 0
1, 86999, Note_on_c, 0, 72, 0
1, 87000, Note_on_c, 0, 69, 80
1, 87059, Note_on_c, 0, 69, 0
1, 87060, Note_on_c, 0, 67, 80
1, 87119, Note_on_c, 0, 67, 0
1, 87120, Note_on_c, 0, 69, 80
1, 87179, Note_on_c, 0, 69, 0
1, 87180, Note_on_c, 0, 67, 80
1, 87239, Note_on_c, 0, 67, 0
1, 87240, Note_on_c, 0, 69, 80
1, 87299, Note_on_c, 0, 69, 0
1, 87300, Note_on_c, 0, 67, 80
1, 87359, Note_on_c, 0, 67, 0
1, 87360, Note_on_c, 0, 74, 80
1, 87420, Note_on_c, 0, 65, 80
1, 87479, Note_on_c, 0, 65, 0
1, 87479, Note_on_c, 0, 74, 0
1, 87480, Note_on_c, 0, 67, 80
1, 87539, Note_on_c, 0, 67, 0
1, 87540, Note_on_c, 0, 65, 80
1, 87599, Note_on_c, 0, 65, 0
1, 87600, Note_on_c, 0, 67, 80
1, 87659, Note_on_c, 0, 67, 0
1, 87660, Note_on_c, 0, 65, 80
1, 87719, Note_on_c, 0, 65, 0
1, 87720, Note_on_c, 0, 67, 80
1, 87779, Note_on_c, 0, 67, 0
1, 87780, Note_on_c, 0, 65, 80
1, 87839, Note_on_c, 0, 65, 0
1, 87840, Note_on_c, 0, 64, 64
1, 88070, Note_on_c, 0, 64, 0
1, 88080, Note_on_c, 0, 76, 64
1, 88310, Note_on_c, 0, 76, 0
1, 88320, Note_on_c, 0, 77, 64
1, 88550, Note_on_c, 0, 77, 0
1, 88560, Note_on_c, 0, 78, 64
1, 88790, Note_on_c, 0, 78, 0
1, 88800, Note_on_c, 0, 79, 64
1, 89030, Note_on_c, 0, 79, 0
1, 89040, Note_on_c, 0, 80, 64
1, 89270, Note_on_c, 0, 80, 0
1, 89280, Note_on_c, 0, 81, 64
1, 89390, Note_on_c, 0, 81, 0
1, 89400, Note_on_c, 0, 66, 64
1, 89510, Note_on_c, 0, 66, 0
1, 89520, Note_on_c, 0, 64, 64
1, 89630, Note_on_c, 0, 64, 0
1, 89640, Note_on_c, 0, 66, 64
1, 89750, Note_on_c, 0, 66, 0
1, 89760, Note_on_c, 0, 67, 64
1, 89870, Note_on_c, 0, 67, 0
1, 89880, Note_on_c, 0, 71, 64
1, 89990, Note_on_c, 0, 71, 0
1, 90000, Note_on_c, 0, 69, 64
1, 90110, Note_on_c, 0, 69, 0
1, 90120, Note_on_c, 0, 71, 64
1, 90230, Note_on_c, 0, 71, 0
1, 90240, Note_on_c, 0, 72, 64
1, 90350, Note_on_c, 0, 72, 0
1, 90360, Note_on_c, 0, 69, 64
1, 90470, Note_on_c, 0, 69, 0
1, 90480, Note_on_c, 0, 66, 64
1, 90590, Note_on_c, 0, 66, 0
1, 90600, Note_on_c, 0, 62, 64
1, 90710, Note_on_c, 0, 62, 0
1, 90720, Note_on_c, 0, 67, 64
1, 90830, Note_on_c, 0, 67, 0
1, 90840, Note_on_c, 0, 71, 64
1, 90950, Note_on_c, 0, 71, 0
1, 90960, Note_on_c, 0, 69, 64
1, 91070, Note_on_c, 0, 69, 0
1, 91080, Note_on_c, 0, 71, 64
1, 91190, Note_on_c, 0, 71, 0
1, 91200, Note_on_c, 0, 74, 64
1, 91310, Note_on_c, 0, 74, 0
1, 91320, Note_on_c, 0, 79, 64
1, 91430, Note_on_c, 0, 79, 0
1, 91440, Note_on_c, 0, 78, 64
1, 91550, Note_on_c, 0, 78, 0
1, 91560, Note_on_c, 0, 79, 64
1, 91670, Note_on_c, 0, 79, 0
1, 91680, Note_on_c, 0, 83, 64
1, 92150, Note_on_c, 0, 83, 0
1, 92151, End_track
2, 0, Start_track
2, 0, Key_signature, 1, "major"
2, 0, Note_on_c, 0, 55, 64
2, 230, Note_on_c, 0, 55, 0
2, 240, Note_on_c, 0, 71, 64
2, 470, Note_on_c, 0, 71, 0
2, 480, Note_on_c, 0, 69, 64
2, 710, Note_on_c, 0, 69, 0
2, 720, Note_on_c, 0, 54, 64
2, 950, Note_on_c, 0, 54, 0
2, 960, Note_on_c, 0, 52, 64
2, 1190, Note_on_c, 0, 52, 0
2, 1200, Note_on_c, 0, 67, 64
2, 1430, Note_on_c, 0, 67, 0
2, 1440, Note_on_c, 0, 54, 64
2, 1670, Note_on_c, 0, 54, 0
2, 1680, Note_on_c, 0, 69, 64
2, 1910, Note_on_c, 0, 69, 0
2, 1920, Note_on_c, 0, 67, 64
2, 2150, Note_on_c, 0, 67, 0
2, 2160, Note_on_c, 0, 52, 64
2, 2390, Note_on_c, 0, 52, 0
2, 2400, Note_on_c, 0, 50, 64
2, 2630, Note_on_c, 0, 50, 0
2, 2640, Note_on_c, 0, 66, 64
2, 2870, Note_on_c, 0, 66, 0
2, 2880, Note_on_c, 0, 52, 64
2, 3110, Note_on_c, 0, 52, 0
2, 3120, Note_on_c, 0, 67, 64
2, 3350, Note_on_c, 0, 67, 0
2, 3360, Note_on_c, 0, 66, 64
2, 3590, Note_on_c, 0, 66, 0
2, 3600, Note_on_c, 0, 55, 64
2, 3830, Note_on_c, 0, 55, 0
2, 3840, Note_on_c, 0, 57, 64
2, 4070, Note_on_c, 0, 57, 0
2, 4080, Note_on_c, 0, 64, 64
2, 4310, Note_on_c, 0, 64, 0
2, 4320, Note_on_c, 0, 50, 64
2, 4550, Note_on_c, 0, 50, 0
2, 4560, Note_on_c, 0, 66, 64
2, 4790, Note_on_c, 0, 66, 0
2, 4800, Note_on_c, 0, 64, 64
2, 5030, Note_on_c, 0, 64, 0
2, 5040, Note_on_c, 0, 55, 64
2, 5270, Note_on_c, 0, 55, 0
2, 5280, Note_on_c, 0, 54, 64
2, 5510, Note_on_c, 0, 54, 0
2, 5520, Note_on_c, 0, 60, 64
2, 5750, Note_on_c, 0, 60, 0
2, 5760, Note_on_c, 0, 59, 80
2, 5820, Note_on_c, 0, 67, 80
2, 5879, Note_on_c, 0, 59, 0
2, 5879, Note_on_c, 0, 67, 0
2, 5880, Note_on_c, 0, 69, 80
2, 5939, Note_on_c, 0, 69, 0
2, 5940, Note_on_c, 0, 67, 80
2, 5999, Note_on_c, 0, 67, 0
2, 6000, Note_on_c, 0, 69, 80
2, 6059, Note_on_c, 0, 69, 0
2, 6060, Note_on_c, 0, 67, 80
2, 6119, Note_on_c, 0, 67, 0
2, 6120, Note_on_c, 0, 69, 80
2, 6179, Note_on_c, 0, 69, 0
2, 6180, Note_on_c, 0, 67, 80
2, 6239, Note_on_c, 0, 67, 0
2, 6240, Note_on_c, 0, 60, 80
2, 6300, Note_on_c, 0, 67, 80
2, 6359, Note_on_c, 0, 60, 0
2, 6359, Note_on_c, 0, 67, 0
2, 6360, Note_on_c, 0, 69, 80
2, 6419, Note_on_c, 0, 69, 0
2, 6420, Note_on_c, 0, 67, 80
2, 6479, Note_on_c, 0, 67, 0
2, 6480, Note_on_c, 0, 69, 80
2, 6539, Note_on_c, 0, 69, 0
2, 6540, Note_on_c, 0, 67, 80
2, 6599, Note_on_c, 0, 67, 0
2, 6600, Note_on_c, 0, 69, 80
2, 6659, Note_on_c, 0, 69, 0
2, 6660, Note_on_c, 0, 67, 80
2, 6719, Note_on_c, 0, 67, 0
2, 6720, Note_on_c, 0, 62, 80
2, 6780, Note_on_c, 0, 67, 80
2, 6839, Note_on_c, 0, 62, 0
2, 6839, Note_on_c, 0, 67, 0
2, 6840, Note_on_c, 0, 69, 80
2, 6899, Note_on_c, 0, 69, 0
2, 6900, Note_on_c, 0, 67, 80
2, 6959, Note_on_c, 0, 67, 0
2, 6960, Note_on_c, 0, 69, 80
2, 7019, Note_on_c, 0, 69, 0
2, 7020, Note_on_c, 0, 67, 80
2, 7079, Note_on_c, 0, 67, 0
2, 7080, Note_on_c, 0, 69, 80
2, 7139, Note_on_c, 0, 69, 0
2, 7140, Note_on_c, 0, 67, 80
2, 7199, Note_on_c, 0, 67, 0
2, 7200, Note_on_c, 0, 60, 80
2, 7260, Note_on_c, 0, 67, 80
2, 7319, Note_on_c, 0, 60, 0
2, 7319, Note_on_c, 0, 67, 0
2, 7320, Note_on_c, 0, 69, 80
2, 7379, Note_on_c, 0, 69, 0
2, 7380, Note_on_c, 0, 67, 80
2, 7439, Note_on_c, 0, 67, 0
2, 7440, Note_on_c, 0, 69, 80
2, 7499, Note_on_c, 0, 69, 0
2, 7500, Note_on_c, 0, 67, 80
2, 7559, Note_on_c, 0, 67, 0
2, 7560, Note_on_c, 0, 69, 80
2, 7619, Note_on_c, 0, 69, 0
2, 7620, Note_on_c, 0, 67, 80
2, 7679, Note_on_c, 0, 67, 0
2, 7680, Note_on_c, 0, 62, 80
2, 7740, Note_on_c, 0, 67, 80
2, 7799, Note_on_c, 0, 62, 0
2, 7799, Note_on_c, 0, 67, 0
2, 7800, Note_on_c, 0, 69, 80
2, 7859, Note_on_c, 0, 69, 0
2, 7860, Note_on_c, 0, 67, 80
2, 7919, Note_on_c, 0, 67, 0
2, 7920, Note_on_c, 0, 69, 80
2, 7979, Note_on_c, 0, 69, 0
2, 7980, Note_on_c, 0, 67, 80
2, 8039, Note_on_c, 0, 67, 0
2, 8040, Note_on_c, 0, 69, 80
2, 8099, Note_on_c, 0, 69, 0
2, 8100, Note_on_c, 0, 67, 80
2, 8159, Note_on_c, 0, 67, 0
2, 8160, Note_on_c, 0, 64, 80
2, 8220, Note_on_c, 0, 67, 80
2, 8279, Note_on_c, 0, 64, 0
2, 8279, Note_on_c, 0, 67, 0
2, 8280, Note_on_c, 0, 69, 80
2, 8339, Note_on_c, 0, 69, 0
2, 8340, Note_on_c, 0, 67, 80
2, 8399, Note_on_c, 0, 67, 0
2, 8400, Note_on_c, 0, 69, 80
2, 8459, Note_on_c, 0, 69, 0
2, 8460, Note_on_c, 0, 67, 80
2, 8519, Note_on_c, 0, 67, 0
2, 8520, Note_on_c, 0, 69, 80
2, 8579, Note_on_c, 0, 69, 0
2, 8580, Note_on_c, 0, 67, 80
2, 8639, Note_on_c, 0, 67, 0
2, 8640, Note_on_c, 0, 62, 80
2, 8700, Note_on_c, 0, 67, 80
2, 8759, Note_on_c, 0, 62, 0
2, 8759, Note_on_c, 0, 67, 0
2, 8760, Note_on_c, 0, 69, 80
2, 8819, Note_on_c, 0, 69, 0
2, 8820, Note_on_c, 0, 67, 80
2, 8879, Note_on_c, 0, 67, 0
2, 8880, Note_on_c, 0, 69, 80
2, 8939, Note_on_c, 0, 69, 0
2, 8940, Note_on_c, 0, 67, 80
2, 8999, Note_on_c, 0, 67, 0
2, 9000, Note_on_c, 0, 69, 80
2, 9059, Note_on_c, 0, 69, 0
2, 9060, Note_on_c, 0, 67, 80
2, 9119, Note_on_c, 0, 67, 0
2, 9120, Note_on_c, 0, 64, 80
2, 9180, Note_on_c, 0, 67, 80
2, 9239, Note_on_c, 0, 64, 0
2, 9239, Note_on_c, 0, 67, 0
2, 9240, Note_on_c, 0, 69, 80
2, 9299, Note_on_c, 0, 69, 0
2, 9300, Note_on_c, 0, 67, 80
2, 9359, Note_on_c, 0, 67, 0
2, 9360, Note_on_c, 0, 69, 80
2, 9419, Note_on_c, 0, 69, 0
2, 9420, Note_on_c, 0, 67, 80
2, 9479, Note_on_c, 0, 67, 0
2, 9480, Note_on_c, 0, 69, 80
2, 9539, Note_on_c, 0, 69, 0
2, 9540, Note_on_c, 0, 67, 80
2, 9599, Note_on_c, 0, 67, 0
2, 9600, Note_on_c, 0, 57, 80
2, 9660, Note_on_c, 0, 67, 80
2, 9719, Note_on_c, 0, 57, 0
2, 9719, Note_on_c, 0, 67, 0
2, 9720, Note_on_c, 0, 69, 80
2, 9779, Note_on_c, 0, 69, 0
2, 9780, Note_on_c, 0, 67, 80
2, 9839, Note_on_c, 0, 67, 0
2, 9840, Note_on_c, 0, 69, 80
2, 9899, Note_on_c, 0, 69, 0
2, 9900, Note_on_c, 0, 67, 80
2, 9959, Note_on_c, 0, 67, 0
2, 9960, Note_on_c, 0, 69, 80
2, 10019, Note_on_c, 0, 69, 0
2, 10020, Note_on_c, 0, 67, 80
2, 10079, Note_on_c, 0, 67, 0
2, 10080, Note_on_c, 0, 59, 80
2, 10140, Note_on_c, 0, 67, 80
2, 10199, Note_on_c, 0, 59, 0
2, 10199, Note_on_c, 0, 67, 0
2, 10200, Note_on_c, 0, 69, 80
2, 10259, Note_on_c, 0, 69, 0
2, 10260, Note_on_c, 0, 67, 80
2, 10319, Note_on_c, 0, 67, 0
2, 10320, Note_on_c, 0, 69, 80
2, 10379, Note_on_c, 0, 69, 0
2, 10380, Note_on_c, 0, 67, 80
2, 10439, Note_on_c, 0, 67, 0
2, 10440, Note_on_c, 0, 69, 80
2, 10499, Note_on_c, 0, 69, 0
2, 10500, Note_on_c, 0, 67, 80
2, 10559, Note_on_c, 0, 67, 0
2, 10560, Note_on_c, 0, 60, 80
2, 10620, Note_on_c, 0, 67, 80
2, 10679, Note_on_c, 0, 60, 0
2, 10679, Note_on_c, 0, 67, 0
2, 10680, Note_on_c, 0, 69, 80
2, 10739, Note_on_c, 0, 69, 0
2, 10740, Note_on_c, 0, 67, 80
2, 10799, Note_on_c, 0, 67, 0
2, 10800, Note_on_c, 0, 69, 80
2, 10859, Note_on_c, 0, 69, 0
2, 10860, Note_on_c, 0, 67, 80
2, 10919, Note_on_c, 0, 67, 0
2, 10920, Note_on_c, 0, 69, 80
2, 10979, Note_on_c, 0, 69, 0
2, 10980, Note_on_c, 0, 67, 80
2, 11039, Note_on_c, 0, 67, 0
2, 11040, Note_on_c, 0, 62, 80
2, 11100, Note_on_c, 0, 67, 80
2, 11159, Note_on_c, 0, 62, 0
2, 11159, Note_on_c, 0, 67, 0
2, 11160, Note_on_c, 0, 69, 80
2, 11219, Note_on_c, 0, 69, 0
2, 11220, Note_on_c, 0, 67, 80
2, 11279, Note_on_c, 0, 67, 0
2, 11280, Note_on_c, 0, 69, 80
2, 11339, Note_on_c, 0, 69, 0
2, 11340, Note_on_c, 0, 67, 80
2, 11399, Note_on_c, 0, 67, 0
2, 11400, Note_on_c, 0, 69, 80
2, 11459, Note_on_c, 0, 69, 0
2, 11460, Note_on_c, 0, 67, 80
2, 11519, Note_on_c, 0, 67, 0
2, 11520, Note_on_c, 0, 55, 64
2, 11630, Note_on_c, 0, 55, 0
2, 11640, Note_on_c, 0, 59, 64
2, 11750, Note_on_c, 0, 59, 0
2, 11760, Note_on_c, 0, 57, 64
2, 11870, Note_on_c, 0, 57, 0
2, 11880, Note_on_c, 0, 59, 64
2, 11990, Note_on_c, 0, 59, 0
2, 12000, Note_on_c, 0, 64, 64
2, 12110, Note_on_c, 0, 64, 0
2, 12120, Note_on_c, 0, 67, 64
2, 12230, Note_on_c, 0, 67, 0
2, 12240, Note_on_c, 0, 66, 64
2, 12350, Note_on_c, 0, 66, 0
2, 12360, Note_on_c, 0, 67, 64
2, 12470, Note_on_c, 0, 67, 0
2, 12480, Note_on_c, 0, 71, 64
2, 12590, Note_on_c, 0, 71, 0
2, 12600, Note_on_c, 0, 67, 64
2, 12710, Note_on_c, 0, 67, 0
2, 12720, Note_on_c, 0, 64, 64
2, 12830, Note_on_c, 0, 64, 0
2, 12840, Note_on_c, 0, 61, 64
2, 12950, Note_on_c, 0, 61, 0
2, 12960, Note_on_c, 0, 54, 64
2, 13070, Note_on_c, 0, 54, 0
2, 13080, Note_on_c, 0, 57, 64
2, 13190, Note_on_c, 0, 57, 0
2, 13200, Note_on_c, 0, 55, 64
2, 13310, Note_on_c, 0, 55, 0
2, 13320, Note_on_c, 0, 57, 64
2, 13430, Note_on_c, 0, 57, 0
2, 13440, Note_on_c, 0, 62, 64
2, 13550, Note_on_c, 0, 62, 0
2, 13560, Note_on_c, 0, 66, 64
2, 13670, Note_on_c, 0, 66, 0
2, 13680, Note_on_c, 0, 64, 64
2, 13790, Note_on_c, 0, 64, 0
2, 13800, Note_on_c, 0, 66, 64
2, 13910, Note_on_c, 0, 66, 0
2, 13920, Note_on_c, 0, 69, 64
2, 14030, Note_on_c, 0, 69, 0
2, 14040, Note_on_c, 0, 66, 64
2, 14150, Note_on_c, 0, 66, 0
2, 14160, Note_on_c, 0, 62, 64
2, 14270, Note_on_c, 0, 62, 0
2, 14280, Note_on_c, 0, 59, 64
2, 14390, Note_on_c, 0, 59, 0
2, 14400, Note_on_c, 0, 52, 64
2, 14510, Note_on_c, 0, 52, 0
2, 14520, Note_on_c, 0, 55, 64
2, 14630, Note_on_c, 0, 55, 0
2, 14640, Note_on_c, 0, 54, 64
2, 14750, Note_on_c, 0, 54, 0
2, 14760, Note_on_c, 0, 55, 64
2, 14870, Note_on_c, 0, 55, 0
2, 14880, Note_on_c, 0, 59, 64
2, 14990, Note_on_c, 0, 59, 0
2, 15000, Note_on_c, 0, 64, 64
2, 15110, Note_on_c, 0, 64, 0
2, 15120, Note_on_c, 0, 63, 64
2, 15230, Note_on_c, 0, 63, 0
2, 15240, Note_on_c, 0, 64, 64
2, 15350, Note_on_c, 0, 64, 0
2, 15360, Note_on_c, 0, 67, 64
2, 15470, Note_on_c, 0, 67, 0
2, 15480, Note_on_c, 0, 64, 64
2, 15590, Note_on_c, 0, 64, 0
2, 15600, Note_on_c, 0, 59, 64
2, 15710, Note_on_c, 0, 59, 0
2, 15720, Note_on_c, 0, 55, 64
2, 15830, Note_on_c, 0, 55, 0
2, 15840, Note_on_c, 0, 57, 64
2, 15950, Note_on_c, 0, 57, 0
2, 15960, Note_on_c, 0, 64, 64
2, 16070, Note_on_c, 0, 64, 0
2, 16080, Note_on_c, 0, 62, 64
2, 16190, Note_on_c, 0, 62, 0
2, 16200, Note_on_c, 0, 64, 64
2, 16310, Note_on_c, 0, 64, 0
2, 16320, Note_on_c, 0, 67, 64
2, 16430, Note_on_c, 0, 67, 0
2, 16440, Note_on_c, 0, 69, 64
2, 16550, Note_on_c, 0, 69, 0
2, 16560, Note_on_c, 0, 67, 64
2, 16670, Note_on_c, 0, 67, 0
2, 16680, Note_on_c, 0, 69, 64
2, 16790, Note_on_c, 0, 69, 0
2, 16800, Note_on_c, 0, 67, 64
2, 16910, Note_on_c, 0, 67, 0
2, 16920, Note_on_c, 0, 64, 64
2, 17030, Note_on_c, 0, 64, 0
2, 17040, Note_on_c, 0, 61, 64
2, 17150, Note_on_c, 0, 61, 0
2, 17160, Note_on_c, 0, 57, 64
2, 17270, Note_on_c, 0, 57, 0
2, 17280, Note_on_c, 0, 50, 80
2, 17340, Note_on_c, 0, 54, 80
2, 17399, Note_on_c, 0, 50, 0
2, 17399, Note_on_c, 0, 54, 0
2, 17400, Note_on_c, 0, 55, 80
2, 17459, Note_on_c, 0, 55, 0
2, 17460, Note_on_c, 0, 54, 80
2, 17519, Note_on_c, 0, 54, 0
2, 17520, Note_on_c, 0, 55, 80
2, 17579, Note_on_c, 0, 55, 0
2, 17580, Note_on_c, 0, 54, 80
2, 17639, Note_on_c, 0, 54, 0
2, 17640, Note_on_c, 0, 55, 80
2, 17699, Note_on_c, 0, 55, 0
2, 17700, Note_on_c, 0, 54, 80
2, 17759, Note_on_c, 0, 54, 0
2, 17760, Note_on_c, 0, 47, 80
2, 17820, Note_on_c, 0, 54, 80
2, 17879, Note_on_c, 0, 47, 0
2, 17879, Note_on_c, 0, 54, 0
2, 17880, Note_on_c, 0, 55, 80
2, 17939, Note_on_c, 0, 55, 0
2, 17940, Note_on_c, 0, 54, 80
2, 17999, Note_on_c, 0, 54, 0
2, 18000, Note_on_c, 0, 55, 80
2, 18059, Note_on_c, 0, 55, 0
2, 18060, Note_on_c, 0, 54, 80
2, 18119, Note_on_c, 0, 54, 0
2, 18120, Note_on_c, 0, 55, 80
2, 18179, Note_on_c, 0, 55, 0
2, 18180, Note_on_c, 0, 54, 80
2, 18239, Note_on_c, 0, 54, 0
2, 18240, Note_on_c, 0, 45, 80
2, 18300, Note_on_c, 0, 54, 80
2, 18359, Note_on_c, 0, 45, 0
2, 18359, Note_on_c, 0, 54, 0
2, 18360, Note_on_c, 0, 55, 80
2, 18419, Note_on_c, 0, 55, 0
2, 18420, Note_on_c, 0, 54, 80
2, 18479, Note_on_c, 0, 54, 0
2, 18480, Note_on_c, 0, 55, 80
2, 18539, Note_on_c, 0, 55, 0
2, 18540, Note_on_c, 0, 54, 80
2, 18599, Note_on_c, 0, 54, 0
2, 18600, Note_on_c, 0, 55, 80
2, 18659, Note_on_c, 0, 55, 0
2, 18660, Note_on_c, 0, 54, 80
2, 18719, Note_on_c, 0, 54, 0
2, 18720, Note_on_c, 0, 43, 80
2, 18780, Note_on_c, 0, 54, 80
2, 18839, Note_on_c, 0, 43, 0
2, 18839, Note_on_c, 0, 54, 0
2, 18840, Note_on_c, 0, 55, 80
2, 18899, Note_on_c, 0, 55, 0
2, 18900, Note_on_c, 0, 54, 80
2, 18959, Note_on_c, 0, 54, 0
2, 18960, Note_on_c, 0, 55, 80
2, 19019, Note_on_c, 0, 55, 0
2, 19020, Note_on_c, 0, 54, 80
2, 19079, Note_on_c, 0, 54, 0
2, 19080, Note_on_c, 0, 55, 80
2, 19139, Note_on_c, 0, 55, 0
2, 19140, Note_on_c, 0, 54, 80
2, 19199, Note_on_c, 0, 54, 0
2, 19200, Note_on_c, 0, 45, 80
2, 19260, Note_on_c, 0, 54, 80
2, 19319, Note_on_c, 0, 45, 0
2, 19319, Note_on_c, 0, 54, 0
2, 19320, Note_on_c, 0, 55, 80
2, 19379, Note_on_c, 0, 55, 0
2, 19380, Note_on_c, 0, 54, 80
2, 19439, Note_on_c, 0, 54, 0
2, 19440, Note_on_c, 0, 55, 80
2, 19499, Note_on_c, 0, 55, 0
2, 19500, Note_on_c, 0, 54, 80
2, 19559, Note_on_c, 0, 54, 0
2, 19560, Note_on_c, 0, 55, 80
2, 19619, Note_on_c, 0, 55, 0
2, 19620, Note_on_c, 0, 54, 80
2, 19679, Note_on_c, 0, 54, 0
2, 19680, Note_on_c, 0, 47, 80
2, 19740, Note_on_c, 0, 54, 80
2, 19799, Note_on_c, 0, 47, 0
2, 19799, Note_on_c, 0, 54, 0
2, 19800, Note_on_c, 0, 55, 80
2, 19859, Note_on_c, 0, 55, 0
2, 19860, Note_on_c, 0, 54, 80
2, 19919, Note_on_c, 0, 54, 0
2, 19920, Note_on_c, 0, 55, 80
2, 19979, Note_on_c, 0, 55, 0
2, 19980, Note_on_c, 0, 54, 80
2, 20039, Note_on_c, 0, 54, 0
2, 20040, Note_on_c, 0, 55, 80
2, 20099, Note_on_c, 0, 55, 0
2, 20100, Note_on_c, 0, 54, 80
2, 20159, Note_on_c, 0, 54, 0
2, 20160, Note_on_c, 0, 45, 80
2, 20220, Note_on_c, 0, 54, 80
2, 20279, Note_on_c, 0, 45, 0
2, 20279, Note_on_c, 0, 54, 0
2, 20280, Note_on_c, 0, 55, 80
2, 20339, Note_on_c, 0, 55, 0
2, 20340, Note_on_c, 0, 54, 80
2, 20399, Note_on_c, 0, 54, 0
2, 20400, Note_on_c, 0, 55, 80
2, 20459, Note_on_c, 0, 55, 0
2, 20460, Note_on_c, 0, 54, 80
2, 20519, Note_on_c, 0, 54, 0
2, 20520, Note_on_c, 0, 55, 80
2, 20579, Note_on_c, 0, 55, 0
2, 20580, Note_on_c, 0, 54, 80
2, 20639, Note_on_c, 0, 54, 0
2, 20640, Note_on_c, 0, 43, 80
2, 20700, Note_on_c, 0, 54, 80
2, 20759, Note_on_c, 0, 43, 0
2, 20759, Note_on_c, 0, 54, 0
2, 20760, Note_on_c, 0, 55, 80
2, 20819, Note_on_c, 0, 55, 0
2, 20820, Note_on_c, 0, 54, 80
2, 20879, Note_on_c, 0, 54, 0
2, 20880, Note_on_c, 0, 55, 80
2, 20939, Note_on_c, 0, 55, 0
2, 20940, Note_on_c, 0, 54, 80
2, 20999, Note_on_c, 0, 54, 0
2, 21000, Note_on_c, 0, 55, 80
2, 21059, Note_on_c, 0, 55, 0
2, 21060, Note_on_c, 0, 54, 80
2, 21119, Note_on_c, 0, 54, 0
2, 21120, Note_on_c, 0, 45, 80
2, 21180, Note_on_c, 0, 54, 80
2, 21239, Note_on_c, 0, 45, 0
2, 21239, Note_on_c, 0, 54, 0
2, 21240, Note_on_c, 0, 55, 80
2, 21299, Note_on_c, 0, 55, 0
2, 21300, Note_on_c, 0, 54, 80
2, 21359, Note_on_c, 0, 54, 0
2, 21360, Note_on_c, 0, 55, 80
2, 21419, Note_on_c, 0, 55, 0
2, 21420, Note_on_c, 0, 54, 80
2, 21479, Note_on_c, 0, 54, 0
2, 21480, Note_on_c, 0, 55, 80
2, 21539, Note_on_c, 0, 55, 0
2, 21540, Note_on_c, 0, 54, 80
2, 21599, Note_on_c, 0, 54, 0
2, 21600, Note_on_c, 0, 38, 64
2, 21710, Note_on_c, 0, 38, 0
2, 21720, Note_on_c, 0, 42, 64
2, 21830, Note_on_c, 0, 42, 0
2, 21840, Note_on_c, 0, 40, 64
2, 21950, Note_on_c, 0, 40, 0
2, 21960, Note_on_c, 0, 42, 64
2, 22070, Note_on_c, 0, 42, 0
2, 22080, Note_on_c, 0, 45, 64
2, 22190, Note_on_c, 0, 45, 0
2, 22200, Note_on_c, 0, 50, 64
2, 22310, Note_on_c, 0, 50, 0
2, 22320, Note_on_c, 0, 49, 64
2, 22430, Note_on_c, 0, 49, 0
2, 22440, Note_on_c, 0, 50, 64
2, 22550, Note_on_c, 0, 50, 0
2, 22560, Note_on_c, 0, 54, 64
2, 23030, Note_on_c, 0, 54, 0
2, 23040, Note_on_c, 0, 55, 64
2, 23270, Note_on_c, 0, 55, 0
2, 23280, Note_on_c, 0, 71, 64
2, 23510, Note_on_c, 0, 71, 0
2, 23520, Note_on_c, 0, 69, 64
2, 23750, Note_on_c, 0, 69, 0
2, 23760, Note_on_c, 0, 54, 64
2, 23990, Note_on_c, 0, 54, 0
2, 24000, Note_on_c, 0, 52, 64
2, 24230, Note_on_c, 0, 52, 0
2, 24240, Note_on_c, 0, 67, 64
2, 24470, Note_on_c, 0, 67, 0
2, 24480, Note_on_c, 0, 54, 64
2, 24710, Note_on_c, 0, 54, 0
2, 24720, Note_on_c, 0, 69, 64
2, 24950, Note_on_c, 0, 69, 0
2, 24960, Note_on_c, 0, 67, 64
2, 25190, Note_on_c, 0, 67, 0
2, 25200, Note_on_c, 0, 52, 64
2, 25430, Note_on_c, 0, 52, 0
2, 25440, Note_on_c, 0, 50, 64
2, 25670, Note_on_c, 0, 50, 0
2, 25680, Note_on_c, 0, 66, 64
2, 25910, Note_on_c, 0, 66, 0
2, 25920, Note_on_c, 0, 52, 64
2, 26150, Note_on_c, 0, 52, 0
2, 26160, Note_on_c, 0, 67, 64
2, 26390, Note_on_c, 0, 67, 0
2, 26400, Note_on_c, 0, 66, 64
2, 26630, Note_on_c, 0, 66, 0
2, 26640, Note_on_c, 0, 55, 64
2, 26870, Note_on_c, 0, 55, 0
2, 26880, Note_on_c, 0, 57, 64
2, 27110, Note_on_c, 0, 57, 0
2, 27120, Note_on_c, 0, 64, 64
2, 27350, Note_on_c, 0, 64, 0
2, 27360, Note_on_c, 0, 50, 64
2, 27590, Note_on_c, 0, 50, 0
2, 27600, Note_on_c, 0, 66, 64
2, 27830, Note_on_c, 0, 66, 0
2, 27840, Note_on_c, 0, 64, 64
2, 28070, Note_on_c, 0, 64, 0
2, 28080, Note_on_c, 0, 55, 64
2, 28310, Note_on_c, 0, 55, 0
2, 28320, Note_on_c, 0, 54, 64
2, 28550, Note_on_c, 0, 54, 0
2, 28560, Note_on_c, 0, 60, 64
2, 28790, Note_on_c, 0, 60, 0
2, 28800, Note_on_c, 0, 59, 80
2, 28860, Note_on_c, 0, 67, 80
2, 28919, Note_on_c, 0, 59, 0
2, 28919, Note_on_c, 0, 67, 0
2, 28920, Note_on_c, 0, 69, 80
2, 28979, Note_on_c, 0, 69, 0
2, 28980, Note_on_c, 0, 67, 80
2, 29039, Note_on_c, 0, 67, 0
2, 29040, Note_on_c, 0, 69, 80
2, 29099, Note_on_c, 0, 69, 0
2, 29100, Note_on_c, 0, 67, 80
2, 29159, Note_on_c, 0, 67, 0
2, 29160, Note_on_c, 0, 69, 80
2, 29219, Note_on_c, 0, 69, 0
2, 29220, Note_on_c, 0, 67, 80
2, 29279, Note_on_c, 0, 67, 0
2, 29280, Note_on_c, 0, 60, 80
2, 29340, Note_on_c, 0, 67, 80
2, 29399, Note_on_c, 0, 60, 0
2, 29399, Note_on_c, 0, 67, 0
2, 29400, Note_on_c, 0, 69, 80
2, 29459, Note_on_c, 0, 69, 0
2, 29460, Note_on_c, 0, 67, 80
2, 29519, Note_on_c, 0, 67, 0
2, 29520, Note_on_c, 0, 69, 80
2, 29579, Note_on_c, 0, 69, 0
2, 29580, Note_on_c, 0, 67, 80
2, 29639, Note_on_c, 0, 67, 0
2, 29640, Note_on_c, 0, 69, 80
2, 29699, Note_on_c, 0, 69, 0
2, 29700, Note_on_c, 0, 67, 80
2, 29759, Note_on_c, 0, 67, 0
2, 29760, Note_on_c, 0, 62, 80
2, 29820, Note_on_c, 0, 67, 80
2, 29879, Note_on_c, 0, 62, 0
2, 29879, Note_on_c, 0, 67, 0
2, 29880, Note_on_c, 0, 69, 80
2, 29939, Note_on_c, 0, 69, 0
2, 29940, Note_on_c, 0, 67, 80
2, 29999, Note_on_c, 0, 67, 0
2, 30000, Note_on_c, 0, 69, 80
2, 30059, Note_on_c, 0, 69, 0
2, 30060, Note_on_c, 0, 67, 80
2, 30119, Note_on_c, 0, 67, 0
2, 30120, Note_on_c, 0, 69, 80
2, 30179, Note_on_c, 0, 69, 0
2, 30180, Note_on_c, 0, 67, 80
2, 30239, Note_on_c, 0, 67, 0
2, 30240, Note_on_c, 0, 60, 80
2, 30300, Note_on_c, 0, 67, 80
2, 30359, Note_on_c, 0, 60, 0
2, 30359, Note_on_c, 0, 67, 0
2, 30360, Note_on_c, 0, 69, 80
2, 30419, Note_on_c, 0, 69, 0
2, 30420, Note_on_c, 0, 67, 80
2, 30479, Note_on_c, 0, 67, 0
2, 30480, Note_on_c, 0, 69, 80
2, 30539, Note_on_c, 0, 69, 0
2, 30540, Note_on_c, 0, 67, 80
2, 30599, Note_on_c, 0, 67, 0
2, 30600, Note_on_c, 0, 69, 80
2, 30659, Note_on_c, 0, 69, 0
2, 30660, Note_on_c, 0, 67, 80
2, 30719, Note_on_c, 0, 67, 0
2, 30720, Note_on_c, 0, 62, 80
2, 30780, Note_on_c, 0, 67, 80
2, 30839, Note_on_c, 0, 62, 0
2, 30839, Note_on_c, 0, 67, 0
2, 30840, Note_on_c, 0, 69, 80
2, 30899, Note_on_c, 0, 69, 0
2, 30900, Note_on_c, 0, 67, 80
2, 30959, Note_on_c, 0, 67, 0
2, 30960, Note_on_c, 0, 69, 80
2, 31019, Note_on_c, 0, 69, 0
2, 31020, Note_on_c, 0, 67, 80
2, 31079, Note_on_c, 0, 67, 0
2, 31080, Note_on_c, 0, 69, 80
2, 31139, Note_on_c, 0, 69, 0
2, 31140, Note_on_c, 0, 67, 80
2, 31199, Note_on_c, 0, 67, 0
2, 31200, Note_on_c, 0, 64, 80
2, 31260, Note_on_c, 0, 67, 80
2, 31319, Note_on_c, 0, 64, 0
2, 31319, Note_on_c, 0, 67, 0
2, 31320, Note_on_c, 0, 69, 80
2, 31379, Note_on_c, 0, 69, 0
2, 31380, Note_on_c, 0, 67, 80
2, 31439, Note_on_c, 0, 67, 0
2, 31440, Note_on_c, 0, 69, 80
2, 31499, Note_on_c, 0, 69, 0
2, 31500, Note_on_c, 0, 67, 80
2, 31559, Note_on_c, 0, 67, 0
2, 31560, Note_on_c, 0, 69, 80
2, 31619, Note_on_c, 0, 69, 0
2, 31620, Note_on_c, 0, 67, 80
2, 31679, Note_on_c, 0, 67, 0
2, 31680, Note_on_c, 0, 62, 80
2, 31740, Note_on_c, 0, 67, 80
2, 31799, Note_on_c, 0, 62, 0
2, 31799, Note_on_c, 0, 67, 0
2, 31800, Note_on_c, 0, 69, 80
2, 31859, Note_on_c, 0, 69, 0
2, 31860, Note_on_c, 0, 67, 80
2, 31919, Note_on_c, 0, 67, 0
2, 31920, Note_on_c, 0, 69, 80
2, 31979, Note_on_c, 0, 69, 0
2, 31980, Note_on_c, 0, 67, 80
2, 32039, Note_on_c, 0, 67, 0
2, 32040, Note_on_c, 0, 69, 80
2, 32099, Note_on_c, 0, 69, 0
2, 32100, Note_on_c, 0, 67, 80
2, 32159, Note_on_c, 0, 67, 0
2, 32160, Note_on_c, 0, 64, 80
2, 32220, Note_on_c, 0, 67, 80
2, 32279, Note_on_c, 0, 64, 0
2, 32279, Note_on_c, 0, 67, 0
2, 32280, Note_on_c, 0, 69, 80
2, 32339, Note_on_c, 0, 69, 0
2, 32340, Note_on_c, 0, 67, 80
2, 32399, Note_on_c, 0, 67, 0
2, 32400, Note_on_c, 0, 69, 80
2, 32459, Note_on_c, 0, 69, 0
2, 32460, Note_on_c, 0, 67, 80
2, 32519, Note_on_c, 0, 67, 0
2, 32520, Note_on_c, 0, 69, 80
2, 32579, Note_on_c, 0, 69, 0
2, 32580, Note_on_c, 0, 67, 80
2, 32639, Note_on_c, 0, 67, 0
2, 32640, Note_on_c, 0, 57, 80
2, 32700, Note_on_c, 0, 67, 80
2, 32759, Note_on_c, 0, 57, 0
2, 32759, Note_on_c, 0, 67, 0
2, 32760, Note_on_c, 0, 69, 80
2, 32819, Note_on_c, 0, 69, 0
2, 32820, Note_on_c, 0, 67, 80
2, 32879, Note_on_c, 0, 67, 0
2, 32880, Note_on_c, 0, 69, 80
2, 32939, Note_on_c, 0, 69, 0
2, 32940, Note_on_c, 0, 67, 80
2, 32999, Note_on_c, 0, 67, 0
2, 33000, Note_on_c, 0, 69, 80
2, 33059, Note_on_c, 0, 69, 0
2, 33060, Note_on_c, 0, 67, 80
2, 33119, Note_on_c, 0, 67, 0
2, 33120, Note_on_c, 0, 59, 80
2, 33180, Note_on_c, 0, 67, 80
2, 33239, Note_on_c, 0, 59, 0
2, 33239, Note_on_c, 0, 67, 0
2, 33240, Note_on_c, 0, 69, 80
2, 33299, Note_on_c, 0, 69, 0
2, 33300, Note_on_c, 0, 67, 80
2, 33359, Note_on_c, 0, 67, 0
2, 33360, Note_on_c, 0, 69, 80
2, 33419, Note_on_c, 0, 69, 0
2, 33420, Note_on_c, 0, 67, 80
2, 33479, Note_on_c, 0, 67, 0
2, 33480, Note_on_c, 0, 69, 80
2, 33539, Note_on_c, 0, 69, 0
2, 33540, Note_on_c, 0, 67, 80
2, 33599, Note_on_c, 0, 67, 0
2, 33600, Note_on_c, 0, 60, 80
2, 33660, Note_on_c, 0, 67, 80
2, 33719, Note_on_c, 0, 60, 0
2, 33719, Note_on_c, 0, 67, 0
2, 33720, Note_on_c, 0, 69, 80
2, 33779, Note_on_c, 0, 69, 0
2, 33780, Note_on_c, 0, 67, 80
2, 33839, Note_on_c, 0, 67, 0
2, 33840, Note_on_c, 0, 69, 80
2, 33899, Note_on_c, 0, 69, 0
2, 33900, Note_on_c, 0, 67, 80
2, 33959, Note_on_c, 0, 67, 0
2, 33960, Note_on_c, 0, 69, 80
2, 34019, Note_on_c, 0, 69, 0
2, 34020, Note_on_c, 0, 67, 80
2, 34079, Note_on_c, 0, 67, 0
2, 34080, Note_on_c, 0, 62, 80
2, 34140, Note_on_c, 0, 67, 80
2, 34199, Note_on_c, 0, 62, 0
2, 34199, Note_on_c, 0, 67, 0
2, 34200, Note_on_c, 0, 69, 80
2, 34259, Note_on_c, 0, 69, 0
2, 34260, Note_on_c, 0, 67, 80
2, 34319, Note_on_c, 0, 67, 0
2, 34320, Note_on_c, 0, 69, 80
2, 34379, Note_on_c, 0, 69, 0
2, 34380, Note_on_c, 0, 67, 80
2, 34439, Note_on_c, 0, 67, 0
2, 34440, Note_on_c, 0, 69, 80
2, 34499, Note_on_c, 0, 69, 0
2, 34500, Note_on_c, 0, 67, 80
2, 34559, Note_on_c, 0, 67, 0
2, 34560, Note_on_c, 0, 55, 64
2, 34670, Note_on_c, 0, 55, 0
2, 34680, Note_on_c, 0, 59, 64
2, 34790, Note_on_c, 0, 59, 0
2, 34800, Note_on_c, 0, 57, 64
2, 34910, Note_on_c, 0, 57, 0
2, 34920, Note_on_c, 0, 59, 64
2, 35030, Note_on_c, 0, 59, 0
2, 35040, Note_on_c, 0, 64, 64
2, 35150, Note_on_c, 0, 64, 0
2, 35160, Note_on_c, 0, 67, 64
2, 35270, Note_on_c, 0, 67, 0
2, 35280, Note_on_c, 0, 66, 64
2, 35390, Note_on_c, 0, 66, 0
2, 35400, Note_on_c, 0, 67, 64
2, 35510, Note_on_c, 0, 67, 0
2, 35520, Note_on_c, 0, 71, 64
2, 35630, Note_on_c, 0, 71, 0
2, 35640, Note_on_c, 0, 67, 64
2, 35750, Note_on_c, 0, 67, 0
2, 35760, Note_on_c, 0, 64, 64
2, 35870, Note_on_c, 0, 64, 0
2, 35880, Note_on_c, 0, 61, 64
2, 35990, Note_on_c, 0, 61, 0
2, 36000, Note_on_c, 0, 54, 64
2, 36110, Note_on_c, 0, 54, 0
2, 36120, Note_on_c, 0, 57, 64
2, 36230, Note_on_c, 0, 57, 0
2, 36240, Note_on_c, 0, 55, 64
2, 36350, Note_on_c, 0, 55, 0
2, 36360, Note_on_c, 0, 57, 64
2, 36470, Note_on_c, 0, 57, 0
2, 36480, Note_on_c, 0, 62, 64
2, 36590, Note_on_c, 0, 62, 0
2, 36600, Note_on_c, 0, 66, 64
2, 36710, Note_on_c, 0, 66, 0
2, 36720, Note_on_c, 0, 64, 64
2, 36830, Note_on_c, 0, 64, 0
2, 36840, Note_on_c, 0, 66, 64
2, 36950, Note_on_c, 0, 66, 0
2, 36960, Note_on_c, 0, 69, 64
2, 37070, Note_on_c, 0, 69, 0
2, 37080, Note_on_c, 0, 66, 64
2, 37190, Note_on_c, 0, 66, 0
2, 37200, Note_on_c, 0, 62, 64
2, 37310, Note_on_c, 0, 62, 0
2, 37320, Note_on_c, 0, 59, 64
2, 37430, Note_on_c, 0, 59, 0
2, 37440, Note_on_c, 0, 52, 64
2, 37550, Note_on_c, 0, 52, 0
2, 37560, Note_on_c, 0, 55, 64
2, 37670, Note_on_c, 0, 55, 0
2, 37680, Note_on_c, 0, 54, 64
2, 37790, Note_on_c, 0, 54, 0
2, 37800, Note_on_c, 0, 55, 64
2, 37910, Note_on_c, 0, 55, 0
2, 37920, Note_on_c, 0, 59, 64
2, 38030, Note_on_c, 0, 59, 0
2, 38040, Note_on_c, 0, 64, 64
2, 38150, Note_on_c, 0, 64, 0
2, 38160, Note_on_c, 0, 63, 64
2, 38270, Note_on_c, 0, 63, 0
2, 38280, Note_on_c, 0, 64, 64
2, 38390, Note_on_c, 0, 64, 0
2, 38400, Note_on_c, 0, 67, 64
2, 38510, Note_on_c, 0, 67, 0
2, 38520, Note_on_c, 0, 64, 64
2, 38630, Note_on_c, 0, 64, 0
2, 38640, Note_on_c, 0, 59, 64
2, 38750, Note_on_c, 0, 59, 0
2, 38760, Note_on_c, 0, 55, 64
2, 38870, Note_on_c, 0, 55, 0
2, 38880, Note_on_c, 0, 57, 64
2, 38990, Note_on_c, 0, 57, 0
2, 39000, Note_on_c, 0, 64, 64
2, 39110, Note_on_c, 0, 64, 0
2, 39120, Note_on_c, 0, 62, 64
2, 39230, Note_on_c, 0, 62, 0
2, 39240, Note_on_c, 0, 64, 64
2, 39350, Note_on_c, 0, 64, 0
2, 39360, Note_on_c, 0, 67, 64
2, 39470, Note_on_c, 0, 67, 0
2, 39480, Note_on_c, 0, 69, 64
2, 39590, Note_on_c, 0, 69, 0
2, 39600, Note_on_c, 0, 67, 64
2, 39710, Note_on_c, 0, 67, 0
2, 39720, Note_on_c, 0, 69, 64
2, 39830, Note_on_c, 0, 69, 0
2, 39840, Note_on_c, 0, 67, 64
2, 39950, Note_on_c, 0, 67, 0
2, 39960, Note_on_c, 0, 64, 64
2, 40070, Note_on_c, 0, 64, 0
2, 40080, Note_on_c, 0, 61, 64
2, 40190, Note_on_c, 0, 61, 0
2, 40200, Note_on_c, 0, 57, 64
2, 40310, Note_on_c, 0, 57, 0
2, 40320, Note_on_c, 0, 50, 80
2, 40380, Note_on_c, 0, 54, 80
2, 40439, Note_on_c, 0, 50, 0
2, 40439, Note_on_c, 0, 54, 0
2, 40440, Note_on_c, 0, 55, 80
2, 40499, Note_on_c, 0, 55, 0
2, 40500, Note_on_c, 0, 54, 80
2, 40559, Note_on_c, 0, 54, 0
2, 40560, Note_on_c, 0, 55, 80
2, 40619, Note_on_c, 0, 55, 0
2, 40620, Note_on_c, 0, 54, 80
2, 40679, Note_on_c, 0, 54, 0
2, 40680, Note_on_c, 0, 55, 80
2, 40739, Note_on_c, 0, 55, 0
2, 40740, Note_on_c, 0, 54, 80
2, 40799, Note_on_c, 0, 54, 0
2, 40800, Note_on_c, 0, 47, 80
2, 40860, Note_on_c, 0, 54, 80
2, 40919, Note_on_c, 0, 47, 0
2, 40919, Note_on_c, 0, 54, 0
2, 40920, Note_on_c, 0, 55, 80
2, 40979, Note_on_c, 0, 55, 0
2, 40980, Note_on_c, 0, 54, 80
2, 41039, Note_on_c, 0, 54, 0
2, 41040, Note_on_c, 0, 55, 80
2, 41099, Note_on_c, 0, 55, 0
2, 41100, Note_on_c, 0, 54, 80
2, 41159, Note_on_c, 0, 54, 0
2, 41160, Note_on_c, 0, 55, 80
2, 41219, Note_on_c, 0, 55, 0
2, 41220, Note_on_c, 0, 54, 80
2, 41279, Note_on_c, 0, 54, 0
2, 41280, Note_on_c, 0, 45, 80
2, 41340, Note_on_c, 0, 54, 80
2, 41399, Note_on_c, 0, 45, 0
2, 41399, Note_on_c, 0, 54, 0
2, 41400, Note_on_c, 0, 55, 80
2, 41459, Note_on_c, 0, 55, 0
2, 41460, Note_on_c, 0, 54, 80
2, 41519, Note_on_c, 0, 54, 0
2, 41520, Note_on_c, 0, 55, 80
2, 41579, Note_on_c, 0, 55, 0
2, 41580, Note_on_c, 0, 54, 80
2, 41639, Note_on_c, 0, 54, 0
2, 41640, Note_on_c, 0, 55, 80
2, 41699, Note_on_c, 0, 55, 0
2, 41700, Note_on_c, 0, 54, 80
2, 41759, Note_on_c, 0, 54, 0
2, 41760, Note_on_c, 0, 43, 80
2, 41820, Note_on_c, 0, 54, 80
2, 41879, Note_on_c, 0, 43, 0
2, 41879, Note_on_c, 0, 54, 0
2, 41880, Note_on_c, 0, 55, 80
2, 41939, Note_on_c, 0, 55, 0
2, 41940, Note_on_c, 0, 54, 80
2, 41999, Note_on_c, 0, 54, 0
2, 42000, Note_on_c, 0, 55, 80
2, 42059, Note_on_c, 0, 55, 0
2, 42060, Note_on_c, 0, 54, 80
2, 42119, Note_on_c, 0, 54, 0
2, 42120, Note_on_c, 0, 55, 80
2, 42179, Note_on_c, 0, 55, 0
2, 42180, Note_on_c, 0, 54, 80
2, 42239, Note_on_c, 0, 54, 0
2, 42240, Note_on_c, 0, 45, 80
2, 42300, Note_on_c, 0, 54, 80
2, 42359, Note_on_c, 0, 45, 0
2, 42359, Note_on_c, 0, 54, 0
2, 42360, Note_on_c, 0, 55, 80
2, 42419, Note_on_c, 0, 55, 0
2, 42420, Note_on_c, 0, 54, 80
2, 42479, Note_on_c, 0, 54, 0
2, 42480, Note_on_c, 0, 55, 80
2, 42539, Note_on_c, 0, 55, 0
2, 42540, Note_on_c, 0, 54, 80
2, 42599, Note_on_c, 0, 54, 0
2, 42600, Note_on_c, 0, 55, 80
2, 42659, Note_on_c, 0, 55, 0
2, 42660, Note_on_c, 0, 54, 80
2, 42719, Note_on_c, 0, 54, 0
2, 42720, Note_on_c, 0, 47, 80
2, 42780, Note_on_c, 0, 54, 80
2, 42839, Note_on_c, 0, 47, 0
2, 42839, Note_on_c, 0, 54, 0
2, 42840, Note_on_c, 0, 55, 80
2, 42899, Note_on_c, 0, 55, 0
2, 42900, Note_on_c, 0, 54, 80
2, 42959, Note_on_c, 0, 54, 0
2, 42960, Note_on_c, 0, 55, 80
2, 43019, Note_on_c, 0, 55, 0
2, 43020, Note_on_c, 0, 54, 80
2, 43079, Note_on_c, 0, 54, 0
2, 43080, Note_on_c, 0, 55, 80
2, 43139, Note_on_c, 0, 55, 0
2, 43140, Note_on_c, 0, 54, 80
2, 43199, Note_on_c, 0, 54, 0
2, 43200, Note_on_c, 0, 45, 80
2, 43260, Note_on_c, 0, 54, 80
2, 43319, Note_on_c, 0, 45, 0
2, 43319, Note_on_c, 0, 54, 0
2, 43320, Note_on_c, 0, 55, 80
2, 43379, Note_on_c, 0, 55, 0
2, 43380, Note_on_c, 0, 54, 80
2, 43439, Note_on_c, 0, 54, 0
2, 43440, Note_on_c, 0, 55, 80
2, 43499, Note_on_c, 0, 55, 0
2, 43500, Note_on_c, 0, 54, 80
2, 43559, Note_on_c, 0, 54, 0
2, 43560, Note_on_c, 0, 55, 80
2, 43619, Note_on_c, 0, 55, 0
2, 43620, Note_on_c, 0, 54, 80
2, 43679, Note_on_c, 0, 54, 0
2, 43680, Note_on_c, 0, 43, 80
2, 43740, Note_on_c, 0, 54, 80
2, 43799, Note_on_c, 0, 43, 0
2, 43799, Note_on_c, 0, 54, 0
2, 43800, Note_on_c, 0, 55, 80
2, 43859, Note_on_c, 0, 55, 0
2, 43860, Note_on_c, 0, 54, 80
2, 43919, Note_on_c, 0, 54, 0
2, 43920, Note_on_c, 0, 55, 80
2, 43979, Note_on_c, 0, 55, 0
2, 43980, Note_on_c, 0, 54, 80
2, 44039, Note_on_c, 0, 54, 0
2, 44040, Note_on_c, 0, 55, 80
2, 44099, Note_on_c, 0, 55, 0
2, 44100, Note_on_c, 0, 54, 80
2, 44159, Note_on_c, 0, 54, 0
2, 44160, Note_on_c, 0, 45, 80
2, 44220, Note_on_c, 0, 54, 80
2, 44279, Note_on_c, 0, 45, 0
2, 44279, Note_on_c, 0, 54, 0
2, 44280, Note_on_c, 0, 55, 80
2, 44339, Note_on_c, 0, 55, 0
2, 44340, Note_on_c, 0, 54, 80
2, 44399, Note_on_c, 0, 54, 0
2, 44400, Note_on_c, 0, 55, 80
2, 44459, Note_on_c, 0, 55, 0
2, 44460, Note_on_c, 0, 54, 80
2, 44519, Note_on_c, 0, 54, 0
2, 44520, Note_on_c, 0, 55, 80
2, 44579, Note_on_c, 0, 55, 0
2, 44580, Note_on_c, 0, 54, 80
2, 44639, Note_on_c, 0, 54, 0
2, 44640, Note_on_c, 0, 38, 64
2, 44750, Note_on_c, 0, 38, 0
2, 44760, Note_on_c, 0, 42, 64
2, 44870, Note_on_c, 0, 42, 0
2, 44880, Note_on_c, 0, 40, 64
2, 44990, Note_on_c, 0, 40, 0
2, 45000, Note_on_c, 0, 42, 64
2, 45110, Note_on_c, 0, 42, 0
2, 45120, Note_on_c, 0, 45, 64
2, 45230, Note_on_c, 0, 45, 0
2, 45240, Note_on_c, 0, 50, 64
2, 45350, Note_on_c, 0, 50, 0
2, 45360, Note_on_c, 0, 49, 64
2, 45470, Note_on_c, 0, 49, 0
2, 45480, Note_on_c, 0, 50, 64
2, 45590, Note_on_c, 0, 50, 0
2, 45600, Note_on_c, 0, 54, 64
2, 46070, Note_on_c, 0, 54, 0
2, 46080, Note_on_c, 0, 62, 64
2, 46310, Note_on_c, 0, 62, 0
2, 46320, Note_on_c, 0, 52, 64
2, 46550, Note_on_c, 0, 52, 0
2, 46560, Note_on_c, 0, 54, 64
2, 46790, Note_on_c, 0, 54, 0
2, 46800, Note_on_c, 0, 60, 64
2, 47030, Note_on_c, 0, 60, 0
2, 47040, Note_on_c, 0, 50, 64
2, 47270, Note_on_c, 0, 50, 0
2, 47280, Note_on_c, 0, 66, 64
2, 47510, Note_on_c, 0, 66, 0
2, 47520, Note_on_c, 0, 67, 64
2, 47750, Note_on_c, 0, 67, 0
2, 47760, Note_on_c, 0, 57, 64
2, 47990, Note_on_c, 0, 57, 0
2, 48000, Note_on_c, 0, 59, 64
2, 48230, Note_on_c, 0, 59, 0
2, 48240, Note_on_c, 0, 65, 64
2, 48470, Note_on_c, 0, 65, 0
2, 48480, Note_on_c, 0, 55, 64
2, 48710, Note_on_c, 0, 55, 0
2, 48720, Note_on_c, 0, 71, 64
2, 48950, Note_on_c, 0, 71, 0
2, 48960, Note_on_c, 0, 72, 64
2, 49070, Note_on_c, 0, 72, 0
2, 49080, Note_on_c, 0, 67, 64
2, 49190, Note_on_c, 0, 67, 0
2, 49200, Note_on_c, 0, 65, 64
2, 49310, Note_on_c, 0, 65, 0
2, 49320, Note_on_c, 0, 67, 64
2, 49430, Note_on_c, 0, 67, 0
2, 49440, Note_on_c, 0, 64, 64
2, 49550, Note_on_c, 0, 64, 0
2, 49560, Note_on_c, 0, 60, 64
2, 49670, Note_on_c, 0, 60, 0
2, 49680, Note_on_c, 0, 59, 64
2, 49790, Note_on_c, 0, 59, 0
2, 49800, Note_on_c, 0, 60, 64
2, 49910, Note_on_c, 0, 60, 0
2, 49920, Note_on_c, 0, 57, 64
2, 50030, Note_on_c, 0, 57, 0
2, 50040, Note_on_c, 0, 60, 64
2, 50150, Note_on_c, 0, 60, 0
2, 50160, Note_on_c, 0, 64, 64
2, 50270, Note_on_c, 0, 64, 0
2, 50280, Note_on_c, 0, 69, 64
2, 50390, Note_on_c, 0, 69, 0
2, 50400, Note_on_c, 0, 63, 64
2, 50510, Note_on_c, 0, 63, 0
2, 50520, Note_on_c, 0, 59, 64
2, 50630, Note_on_c, 0, 59, 0
2, 50640, Note_on_c, 0, 58, 64
2, 50750, Note_on_c, 0, 58, 0
2, 50760, Note_on_c, 0, 59, 64
2, 50870, Note_on_c, 0, 59, 0
2, 50880, Note_on_c, 0, 54, 64
2, 50990, Note_on_c, 0, 54, 0
2, 51000, Note_on_c, 0, 51, 64
2, 51110, Note_on_c, 0, 51, 0
2, 51120, Note_on_c, 0, 49, 64
2, 51230, Note_on_c, 0, 49, 0
2, 51240, Note_on_c, 0, 51, 64
2, 51350, Note_on_c, 0, 51, 0
2, 51360, Note_on_c, 0, 47, 64
2, 51470, Note_on_c, 0, 47, 0
2, 51480, Note_on_c, 0, 51, 64
2, 51590, Note_on_c, 0, 51, 0
2, 51600, Note_on_c, 0, 54, 64
2, 51710, Note_on_c, 0, 54, 0
2, 51720, Note_on_c, 0, 57, 64
2, 51830, Note_on_c, 0, 57, 0
2, 51840, Note_on_c, 0, 55, 80
2, 51900, Note_on_c, 0, 64, 80
2, 51959, Note_on_c, 0, 55, 0
2, 51959, Note_on_c, 0, 64, 0
2, 51960, Note_on_c, 0, 66, 80
2, 52019, Note_on_c, 0, 66, 0
2, 52020, Note_on_c, 0, 64, 80
2, 52079, Note_on_c, 0, 64, 0
2, 52080, Note_on_c, 0, 66, 80
2, 52139, Note_on_c, 0, 66, 0
2, 52140, Note_on_c, 0, 64, 80
2, 52199, Note_on_c, 0, 64, 0
2, 52200, Note_on_c, 0, 66, 80
2, 52259, Note_on_c, 0, 66, 0
2, 52260, Note_on_c, 0, 64, 80
2, 52319, Note_on_c, 0, 64, 0
2, 52320, Note_on_c, 0, 57, 80
2, 52380, Note_on_c, 0, 64, 80
2, 52439, Note_on_c, 0, 57, 0
2, 52439, Note_on_c, 0, 64, 0
2, 52440, Note_on_c, 0, 66, 80
2, 52499, Note_on_c, 0, 66, 0
2, 52500, Note_on_c, 0, 64, 80
2, 52559, Note_on_c, 0, 64, 0
2, 52560, Note_on_c, 0, 66, 80
2, 52619, Note_on_c, 0, 66, 0
2, 52620, Note_on_c, 0, 64, 80
2, 52679, Note_on_c, 0, 64, 0
2, 52680, Note_on_c, 0, 66, 80
2, 52739, Note_on_c, 0, 66, 0
2, 52740, Note_on_c, 0, 64, 80
2, 52799, Note_on_c, 0, 64, 0
2, 52800, Note_on_c, 0, 59, 80
2, 52860, Note_on_c, 0, 64, 80
2, 52919, Note_on_c, 0, 59, 0
2, 52919, Note_on_c, 0, 64, 0
2, 52920, Note_on_c, 0, 66, 80
2, 52979, Note_on_c, 0, 66, 0
2, 52980, Note_on_c, 0, 64, 80
2, 53039, Note_on_c, 0, 64, 0
2, 53040, Note_on_c, 0, 66, 80
2, 53099, Note_on_c, 0, 66, 0
2, 53100, Note_on_c, 0, 64, 80
2, 53159, Note_on_c, 0, 64, 0
2, 53160, Note_on_c, 0, 66, 80
2, 53219, Note_on_c, 0, 66, 0
2, 53220, Note_on_c, 0, 64, 80
2, 53279, Note_on_c, 0, 64, 0
2, 53280, Note_on_c, 0, 60, 80
2, 53340, Note_on_c, 0, 64, 80
2, 53399, Note_on_c, 0, 60, 0
2, 53399, Note_on_c, 0, 64, 0
2, 53400, Note_on_c, 0, 66, 80
2, 53459, Note_on_c, 0, 66, 0
2, 53460, Note_on_c, 0, 64, 80
2, 53519, Note_on_c, 0, 64, 0
2, 53520, Note_on_c, 0, 66, 80
2, 53579, Note_on_c, 0, 66, 0
2, 53580, Note_on_c, 0, 64, 80
2, 53639, Note_on_c, 0, 64, 0
2, 53640, Note_on_c, 0, 66, 80
2, 53699, Note_on_c, 0, 66, 0
2, 53700, Note_on_c, 0, 64, 80
2, 53759, Note_on_c, 0, 64, 0
2, 53760, Note_on_c, 0, 59, 80
2, 53820, Note_on_c, 0, 64, 80
2, 53879, Note_on_c, 0, 59, 0
2, 53879, Note_on_c, 0, 64, 0
2, 53880, Note_on_c, 0, 66, 80
2, 53939, Note_on_c, 0, 66, 0
2, 53940, Note_on_c, 0, 64, 80
2, 53999, Note_on_c, 0, 64, 0
2, 54000, Note_on_c, 0, 66, 80
2, 54059, Note_on_c, 0, 66, 0
2, 54060, Note_on_c, 0, 64, 80
2, 54119, Note_on_c, 0, 64, 0
2, 54120, Note_on_c, 0, 66, 80
2, 54179, Note_on_c, 0, 66, 0
2, 54180, Note_on_c, 0, 64, 80
2, 54239, Note_on_c, 0, 64, 0
2, 54240, Note_on_c, 0, 60, 80
2, 54300, Note_on_c, 0, 64, 80
2, 54359, Note_on_c, 0, 60, 0
2, 54359, Note_on_c, 0, 64, 0
2, 54360, Note_on_c, 0, 66, 80
2, 54419, Note_on_c, 0, 66, 0
2, 54420, Note_on_c, 0, 64, 80
2, 54479, Note_on_c, 0, 64, 0
2, 54480, Note_on_c, 0, 66, 80
2, 54539, Note_on_c, 0, 66, 0
2, 54540, Note_on_c, 0, 64, 80
2, 54599, Note_on_c, 0, 64, 0
2, 54600, Note_on_c, 0, 66, 80
2, 54659, Note_on_c, 0, 66, 0
2, 54660, Note_on_c, 0, 64, 80
2, 54719, Note_on_c, 0, 64, 0
2, 54720, Note_on_c, 0, 58, 80
2, 54780, Note_on_c, 0, 64, 80
2, 54839, Note_on_c, 0, 58, 0
2, 54839, Note_on_c, 0, 64, 0
2, 54840, Note_on_c, 0, 66, 80
2, 54899, Note_on_c, 0, 66, 0
2, 54900, Note_on_c, 0, 64, 80
2, 54959, Note_on_c, 0, 64, 0
2, 54960, Note_on_c, 0, 66, 80
2, 55019, Note_on_c, 0, 66, 0
2, 55020, Note_on_c, 0, 64, 80
2, 55079, Note_on_c, 0, 64, 0
2, 55080, Note_on_c, 0, 66, 80
2, 55139, Note_on_c, 0, 66, 0
2, 55140, Note_on_c, 0, 64, 80
2, 55199, Note_on_c, 0, 64, 0
2, 55200, Note_on_c, 0, 59, 80
2, 55260, Note_on_c, 0, 64, 80
2, 55319, Note_on_c, 0, 59, 0
2, 55319, Note_on_c, 0, 64, 0
2, 55320, Note_on_c, 0, 66, 80
2, 55379, Note_on_c, 0, 66, 0
2, 55380, Note_on_c, 0, 64, 80
2, 55439, Note_on_c, 0, 64, 0
2, 55440, Note_on_c, 0, 66, 80
2, 55499, Note_on_c, 0, 66, 0
2, 55500, Note_on_c, 0, 64, 80
2, 55559, Note_on_c, 0, 64, 0
2, 55560, Note_on_c, 0, 66, 80
2, 55619, Note_on_c, 0, 66, 0
2, 55620, Note_on_c, 0, 64, 80
2, 55679, Note_on_c, 0, 64, 0
2, 55680, Note_on_c, 0, 59, 80
2, 55740, Note_on_c, 0, 63, 80
2, 55799, Note_on_c, 0, 59, 0
2, 55799, Note_on_c, 0, 63, 0
2, 55800, Note_on_c, 0, 64, 80
2, 55859, Note_on_c, 0, 64, 0
2, 55860, Note_on_c, 0, 63, 80
2, 55919, Note_on_c, 0, 63, 0
2, 55920, Note_on_c, 0, 64, 80
2, 55979, Note_on_c, 0, 64, 0
2, 55980, Note_on_c, 0, 63, 80
2, 56039, Note_on_c, 0, 63, 0
2, 56040, Note_on_c, 0, 64, 80
2, 56099, Note_on_c, 0, 64, 0
2, 56100, Note_on_c, 0, 63, 80
2, 56159, Note_on_c, 0, 63, 0
2, 56160, Note_on_c, 0, 52, 64
2, 56270, Note_on_c, 0, 52, 0
2, 56280, Note_on_c, 0, 64, 64
2, 56390, Note_on_c, 0, 64, 0
2, 56400, Note_on_c, 0, 63, 64
2, 56510, Note_on_c, 0, 63, 0
2, 56520, Note_on_c, 0, 64, 64
2, 56630, Note_on_c, 0, 64, 0
2, 56640, Note_on_c, 0, 59, 64
2, 56750, Note_on_c, 0, 59, 0
2, 56760, Note_on_c, 0, 55, 64
2, 56870, Note_on_c, 0, 55, 0
2, 56880, Note_on_c, 0, 54, 64
2, 56990, Note_on_c, 0, 54, 0
2, 57000, Note_on_c, 0, 55, 64
2, 57110, Note_on_c, 0, 55, 0
2, 57120, Note_on_c, 0, 52, 64
2, 57230, Note_on_c, 0, 52, 0
2, 57240, Note_on_c, 0, 55, 64
2, 57350, Note_on_c, 0, 55, 0
2, 57360, Note_on_c, 0, 59, 64
2, 57470, Note_on_c, 0, 59, 0
2, 57480, Note_on_c, 0, 62, 64
2, 57590, Note_on_c, 0, 62, 0
2, 57600, Note_on_c, 0, 60, 80
2, 57660, Note_on_c, 0, 67, 80
2, 57719, Note_on_c, 0, 60, 0
2, 57719, Note_on_c, 0, 67, 0
2, 57720, Note_on_c, 0, 69, 80
2, 57779, Note_on_c, 0, 69, 0
2, 57780, Note_on_c, 0, 67, 80
2, 57839, Note_on_c, 0, 67, 0
2, 57840, Note_on_c, 0, 69, 80
2, 57899, Note_on_c, 0, 69, 0
2, 57900, Note_on_c, 0, 67, 80
2, 57959, Note_on_c, 0, 67, 0
2, 57960, Note_on_c, 0, 69, 80
2, 58019, Note_on_c, 0, 69, 0
2, 58020, Note_on_c, 0, 67, 80
2, 58079, Note_on_c, 0, 67, 0
2, 58080, Note_on_c, 0, 59, 80
2, 58140, Note_on_c, 0, 67, 80
2, 58199, Note_on_c, 0, 59, 0
2, 58199, Note_on_c, 0, 67, 0
2, 58200, Note_on_c, 0, 69, 80
2, 58259, Note_on_c, 0, 69, 0
2, 58260, Note_on_c, 0, 67, 80
2, 58319, Note_on_c, 0, 67, 0
2, 58320, Note_on_c, 0, 69, 80
2, 58379, Note_on_c, 0, 69, 0
2, 58380, Note_on_c, 0, 67, 80
2, 58439, Note_on_c, 0, 67, 0
2, 58440, Note_on_c, 0, 69, 80
2, 58499, Note_on_c, 0, 69, 0
2, 58500, Note_on_c, 0, 67, 80
2, 58559, Note_on_c, 0, 67, 0
2, 58560, Note_on_c, 0, 57, 80
2, 58620, Note_on_c, 0, 67, 80
2, 58679, Note_on_c, 0, 57, 0
2, 58679, Note_on_c, 0, 67, 0
2, 58680, Note_on_c, 0, 69, 80
2, 58739, Note_on_c, 0, 69, 0
2, 58740, Note_on_c, 0, 67, 80
2, 58799, Note_on_c, 0, 67, 0
2, 58800, Note_on_c, 0, 69, 80
2, 58859, Note_on_c, 0, 69, 0
2, 58860, Note_on_c, 0, 67, 80
2, 58919, Note_on_c, 0, 67, 0
2, 58920, Note_on_c, 0, 69, 80
2, 58979, Note_on_c, 0, 69, 0
2, 58980, Note_on_c, 0, 67, 80
2, 59039, Note_on_c, 0, 67, 0
2, 59040, Note_on_c, 0, 59, 80
2, 59100, Note_on_c, 0, 67, 80
2, 59159, Note_on_c, 0, 59, 0
2, 59159, Note_on_c, 0, 67, 0
2, 59160, Note_on_c, 0, 69, 80
2, 59219, Note_on_c, 0, 69, 0
2, 59220, Note_on_c, 0, 67, 80
2, 59279, Note_on_c, 0, 67, 0
2, 59280, Note_on_c, 0, 69, 80
2, 59339, Note_on_c, 0, 69, 0
2, 59340, Note_on_c, 0, 67, 80
2, 59399, Note_on_c, 0, 67, 0
2, 59400, Note_on_c, 0, 69, 80
2, 59459, Note_on_c, 0, 69, 0
2, 59460, Note_on_c, 0, 67, 80
2, 59519, Note_on_c, 0, 67, 0
2, 59520, Note_on_c, 0, 57, 80
2, 59580, Note_on_c, 0, 67, 80
2, 59639, Note_on_c, 0, 57, 0
2, 59639, Note_on_c, 0, 67, 0
2, 59640, Note_on_c, 0, 69, 80
2, 59699, Note_on_c, 0, 69, 0
2, 59700, Note_on_c, 0, 67, 80
2, 59759, Note_on_c, 0, 67, 0
2, 59760, Note_on_c, 0, 69, 80
2, 59819, Note_on_c, 0, 69, 0
2, 59820, Note_on_c, 0, 67, 80
2, 59879, Note_on_c, 0, 67, 0
2, 59880, Note_on_c, 0, 69, 80
2, 59939, Note_on_c, 0, 69, 0
2, 59940, Note_on_c, 0, 67, 80
2, 59999, Note_on_c, 0, 67, 0
2, 60000, Note_on_c, 0, 55, 80
2, 60060, Note_on_c, 0, 67, 80
2, 60119, Note_on_c, 0, 55, 0
2, 60119, Note_on_c, 0, 67, 0
2, 60120, Note_on_c, 0, 69, 80
2, 60179, Note_on_c, 0, 69, 0
2, 60180, Note_on_c, 0, 67, 80
2, 60239, Note_on_c, 0, 67, 0
2, 60240, Note_on_c, 0, 69, 80
2, 60299, Note_on_c, 0, 69, 0
2, 60300, Note_on_c, 0, 67, 80
2, 60359, Note_on_c, 0, 67, 0
2, 60360, Note_on_c, 0, 69, 80
2, 60419, Note_on_c, 0, 69, 0
2, 60420, Note_on_c, 0, 67, 80
2, 60479, Note_on_c, 0, 67, 0
2, 60480, Note_on_c, 0, 57, 64
2, 60710, Note_on_c, 0, 57, 0
2, 60720, Note_on_c, 0, 76, 64
2, 60950, Note_on_c, 0, 76, 0
2, 60960, Note_on_c, 0, 77, 64
2, 61190, Note_on_c, 0, 77, 0
2, 61200, Note_on_c, 0, 78, 64
2, 61430, Note_on_c, 0, 78, 0
2, 61440, Note_on_c, 0, 79, 64
2, 61670, Note_on_c, 0, 79, 0
2, 61680, Note_on_c, 0, 57, 64
2, 61910, Note_on_c, 0, 57, 0
2, 61920, Note_on_c, 0, 50, 64
2, 62150, Note_on_c, 0, 50, 0
2, 62160, Note_on_c, 0, 78, 64
2, 62390, Note_on_c, 0, 78, 0
2, 62400, Note_on_c, 0, 79, 64
2, 62630, Note_on_c, 0, 79, 0
2, 62640, Note_on_c, 0, 80, 64
2, 62870, Note_on_c, 0, 80, 0
2, 62880, Note_on_c, 0, 81, 64
2, 63110, Note_on_c, 0, 81, 0
2, 63120, Note_on_c, 0, 62, 64
2, 63350, Note_on_c, 0, 62, 0
2, 63360, Note_on_c, 0, 55, 64
2, 63590, Note_on_c, 0, 55, 0
2, 63600, Note_on_c, 0, 43, 64
2, 63830, Note_on_c, 0, 43, 0
2, 63840, Note_on_c, 0, 44, 64
2, 64070, Note_on_c, 0, 44, 0
2, 64080, Note_on_c, 0, 45, 64
2, 64310, Note_on_c, 0, 45, 0
2, 64320, Note_on_c, 0, 46, 64
2, 64550, Note_on_c, 0, 46, 0
2, 64560, Note_on_c, 0, 47, 64
2, 64790, Note_on_c, 0, 47, 0
2, 64800, Note_on_c, 0, 48, 80
2, 64860, Note_on_c, 0, 60, 80
2, 64919, Note_on_c, 0, 48, 0
2, 64919, Note_on_c, 0, 60, 0
2, 64920, Note_on_c, 0, 62, 80
2, 64979, Note_on_c, 0, 62, 0
2, 64980, Note_on_c, 0, 60, 80
2, 65039, Note_on_c, 0, 60, 0
2, 65040, Note_on_c, 0, 62, 80
2, 65099, Note_on_c, 0, 62, 0
2, 65100, Note_on_c, 0, 60, 80
2, 65159, Note_on_c, 0, 60, 0
2, 65160, Note_on_c, 0, 62, 80
2, 65219, Note_on_c, 0, 62, 0
2, 65220, Note_on_c, 0, 60, 80
2, 65279, Note_on_c, 0, 60, 0
2, 65280, Note_on_c, 0, 50, 80
2, 65340, Note_on_c, 0, 60, 80
2, 65399, Note_on_c, 0, 50, 0
2, 65399, Note_on_c, 0, 60, 0
2, 65400, Note_on_c, 0, 62, 80
2, 65459, Note_on_c, 0, 62, 0
2, 65460, Note_on_c, 0, 60, 80
2, 65519, Note_on_c, 0, 60, 0
2, 65520, Note_on_c, 0, 62, 80
2, 65579, Note_on_c, 0, 62, 0
2, 65580, Note_on_c, 0, 60, 80
2, 65639, Note_on_c, 0, 60, 0
2, 65640, Note_on_c, 0, 62, 80
2, 65699, Note_on_c, 0, 62, 0
2, 65700, Note_on_c, 0, 60, 80
2, 65759, Note_on_c, 0, 60, 0
2, 65760, Note_on_c, 0, 52, 80
2, 65820, Note_on_c, 0, 58, 80
2, 65879, Note_on_c, 0, 52, 0
2, 65879, Note_on_c, 0, 58, 0
2, 65880, Note_on_c, 0, 60, 80
2, 65939, Note_on_c, 0, 60, 0
2, 65940, Note_on_c, 0, 58, 80
2, 65999, Note_on_c, 0, 58, 0
2, 66000, Note_on_c, 0, 60, 80
2, 66059, Note_on_c, 0, 60, 0
2, 66060, Note_on_c, 0, 58, 80
2, 66119, Note_on_c, 0, 58, 0
2, 66120, Note_on_c, 0, 60, 80
2, 66179, Note_on_c, 0, 60, 0
2, 66180, Note_on_c, 0, 58, 80
2, 66239, Note_on_c, 0, 58, 0
2, 66240, Note_on_c, 0, 54, 64
2, 66350, Note_on_c, 0, 54, 0
2, 66360, Note_on_c, 0, 62, 64
2, 66470, Note_on_c, 0, 62, 0
2, 66480, Note_on_c, 0, 60, 64
2, 66590, Note_on_c, 0, 60, 0
2, 66600, Note_on_c, 0, 62, 64
2, 66710, Note_on_c, 0, 62, 0
2, 66720, Note_on_c, 0, 59, 64
2, 66830, Note_on_c, 0, 59, 0
2, 66840, Note_on_c, 0, 55, 64
2, 66950, Note_on_c, 0, 55, 0
2, 66960, Note_on_c, 0, 54, 64
2, 67070, Note_on_c, 0, 54, 0
2, 67080, Note_on_c, 0, 55, 64
2, 67190, Note_on_c, 0, 55, 0
2, 67200, Note_on_c, 0, 50, 64
2, 67310, Note_on_c, 0, 50, 0
2, 67320, Note_on_c, 0, 54, 64
2, 67430, Note_on_c, 0, 54, 0
2, 67440, Note_on_c, 0, 57, 64
2, 67550, Note_on_c, 0, 57, 0
2, 67560, Note_on_c, 0, 60, 64
2, 67670, Note_on_c, 0, 60, 0
2, 67680, Note_on_c, 0, 59, 64
2, 67790, Note_on_c, 0, 59, 0
2, 67800, Note_on_c, 0, 55, 64
2, 67910, Note_on_c, 0, 55, 0
2, 67920, Note_on_c, 0, 54, 64
2, 68030, Note_on_c, 0, 54, 0
2, 68040, Note_on_c, 0, 55, 64
2, 68150, Note_on_c, 0, 55, 0
2, 68160, Note_on_c, 0, 50, 64
2, 68270, Note_on_c, 0, 50, 0
2, 68280, Note_on_c, 0, 47, 64
2, 68390, Note_on_c, 0, 47, 0
2, 68400, Note_on_c, 0, 45, 64
2, 68510, Note_on_c, 0, 45, 0
2, 68520, Note_on_c, 0, 47, 64
2, 68630, Note_on_c, 0, 47, 0
2, 68640, Note_on_c, 0, 43, 64
2, 69110, Note_on_c, 0, 43, 0
2, 69120, Note_on_c, 0, 62, 64
2, 69350, Note_on_c, 0, 62, 0
2, 69360, Note_on_c, 0, 52, 64
2, 69590, Note_on_c, 0, 52, 0
2, 69600, Note_on_c, 0, 54, 64
2, 69830, Note_on_c, 0, 54, 0
2, 69840, Note_on_c, 0, 60, 64
2, 70070, Note_on_c, 0, 60, 0
2, 70080, Note_on_c, 0, 50, 64
2, 70310, Note_on_c, 0, 50, 0
2, 70320, Note_on_c, 0, 66, 64
2, 70550, Note_on_c, 0, 66, 0
2, 70560, Note_on_c, 0, 67, 64
2, 70790, Note_on_c, 0, 67, 0
2, 70800, Note_on_c, 0, 57, 64
2, 71030, Note_on_c, 0, 57, 0
2, 71040, Note_on_c, 0, 59, 64
2, 71270, Note_on_c, 0, 59, 0
2, 71280, Note_on_c, 0, 65, 64
2, 71510, Note_on_c, 0, 65, 0
2, 71520, Note_on_c, 0, 55, 64
2, 71750, Note_on_c, 0, 55, 0
2, 71760, Note_on_c, 0, 71, 64
2, 71990, Note_on_c, 0, 71, 0
2, 72000, Note_on_c, 0, 72, 64
2, 72110, Note_on_c, 0, 72, 0
2, 72120, Note_on_c, 0, 67, 64
2, 72230, Note_on_c, 0, 67, 0
2, 72240, Note_on_c, 0, 65, 64
2, 72350, Note_on_c, 0, 65, 0
2, 72360, Note_on_c, 0, 67, 64
2, 72470, Note_on_c, 0, 67, 0
2, 72480, Note_on_c, 0, 64, 64
2, 72590, Note_on_c, 0, 64, 0
2, 72600, Note_on_c, 0, 60, 64
2, 72710, Note_on_c, 0, 60, 0
2, 72720, Note_on_c, 0, 59, 64
2, 72830, Note_on_c, 0, 59, 0
2, 72840, Note_on_c, 0, 60, 64
2, 72950, Note_on_c, 0, 60, 0
2, 72960, Note_on_c, 0, 57, 64
2, 73070, Note_on_c, 0, 57, 0
2, 73080, Note_on_c, 0, 60, 64
2, 73190, Note_on_c, 0, 60, 0
2, 73200, Note_on_c, 0, 64, 64
2, 73310, Note_on_c, 0, 64, 0
2, 73320, Note_on_c, 0, 69, 64
2, 73430, Note_on_c, 0, 69, 0
2, 73440, Note_on_c, 0, 63, 64
2, 73550, Note_on_c, 0, 63, 0
2, 73560, Note_on_c, 0, 59, 64
2, 73670, Note_on_c, 0, 59, 0
2, 73680, Note_on_c, 0, 58, 64
2, 73790, Note_on_c, 0, 58, 0
2, 73800, Note_on_c, 0, 59, 64
2, 73910, Note_on_c, 0, 59, 0
2, 73920, Note_on_c, 0, 54, 64
2, 74030, Note_on_c, 0, 54, 0
2, 74040, Note_on_c, 0, 51, 64
2, 74150, Note_on_c, 0, 51, 0
2, 74160, Note_on_c, 0, 49, 64
2, 74270, Note_on_c, 0, 49, 0
2, 74280, Note_on_c, 0, 51, 64
2, 74390, Note_on_c, 0, 51, 0
2, 74400, Note_on_c, 0, 47, 64
2, 74510, Note_on_c, 0, 47, 0
2, 74520, Note_on_c, 0, 51, 64
2, 74630, Note_on_c, 0, 51, 0
2, 74640, Note_on_c, 0, 54, 64
2, 74750, Note_on_c, 0, 54, 0
2, 74760, Note_on_c, 0, 57, 64
2, 74870, Note_on_c, 0, 57, 0
2, 74880, Note_on_c, 0, 55, 80
2, 74940, Note_on_c, 0, 64, 80
2, 74999, Note_on_c, 0, 55, 0
2, 74999, Note_on_c, 0, 64, 0
2, 75000, Note_on_c, 0, 66, 80
2, 75059, Note_on_c, 0, 66, 0
2, 75060, Note_on_c, 0, 64, 80
2, 75119, Note_on_c, 0, 64, 0
2, 75120, Note_on_c, 0, 66, 80
2, 75179, Note_on_c, 0, 66, 0
2, 75180, Note_on_c, 0, 64, 80
2, 75239, Note_on_c, 0, 64, 0
2, 75240, Note_on_c, 0, 66, 80
2, 75299, Note_on_c, 0, 66, 0
2, 75300, Note_on_c, 0, 64, 80
2, 75359, Note_on_c, 0, 64, 0
2, 75360, Note_on_c, 0, 57, 80
2, 75420, Note_on_c, 0, 64, 80
2, 75479, Note_on_c, 0, 57, 0
2, 75479, Note_on_c, 0, 64, 0
2, 75480, Note_on_c, 0, 66, 80
2, 75539, Note_on_c, 0, 66, 0
2, 75540, Note_on_c, 0, 64, 80
2, 75599, Note_on_c, 0, 64, 0
2, 75600, Note_on_c, 0, 66, 80
2, 75659, Note_on_c, 0, 66, 0
2, 75660, Note_on_c, 0, 64, 80
2, 75719, Note_on_c, 0, 64, 0
2, 75720, Note_on_c, 0, 66, 80
2, 75779, Note_on_c, 0, 66, 0
2, 75780, Note_on_c, 0, 64, 80
2, 75839, Note_on_c, 0, 64, 0
2, 75840, Note_on_c, 0, 59, 80
2, 75900, Note_on_c, 0, 64, 80
2, 75959, Note_on_c, 0, 59, 0
2, 75959, Note_on_c, 0, 64, 0
2, 75960, Note_on_c, 0, 66, 80
2, 76019, Note_on_c, 0, 66, 0
2, 76020, Note_on_c, 0, 64, 80
2, 76079, Note_on_c, 0, 64, 0
2, 76080, Note_on_c, 0, 66, 80
2, 76139, Note_on_c, 0, 66, 0
2, 76140, Note_on_c, 0, 64, 80
2, 76199, Note_on_c, 0, 64, 0
2, 76200, Note_on_c, 0, 66, 80
2, 76259, Note_on_c, 0, 66, 0
2, 76260, Note_on_c, 0, 64, 80
2, 76319, Note_on_c, 0, 64, 0
2, 76320, Note_on_c, 0, 60, 80
2, 76380, Note_on_c, 0, 64, 80
2, 76439, Note_on_c, 0, 60, 0
2, 76439, Note_on_c, 0, 64, 0
2, 76440, Note_on_c, 0, 66, 80
2, 76499, Note_on_c, 0, 66, 0
2, 76500, Note_on_c, 0, 64, 80
2, 76559, Note_on_c, 0, 64, 0
2, 76560, Note_on_c, 0, 66, 80
2, 76619, Note_on_c, 0, 66, 0
2, 76620, Note_on_c, 0, 64, 80
2, 76679, Note_on_c, 0, 64, 0
2, 76680, Note_on_c, 0, 66, 80
2, 76739, Note_on_c, 0, 66, 0
2, 76740, Note_on_c, 0, 64, 80
2, 76799, Note_on_c, 0, 64, 0
2, 76800, Note_on_c, 0, 59, 80
2, 76860, Note_on_c, 0, 64, 80
2, 76919, Note_on_c, 0, 59, 0
2, 76919, Note_on_c, 0, 64, 0
2, 76920, Note_on_c, 0, 66, 80
2, 76979, Note_on_c, 0, 66, 0
2, 76980, Note_on_c, 0, 64, 80
2, 77039, Note_on_c, 0, 64, 0
2, 77040, Note_on_c, 0, 66, 80
2, 77099, Note_on_c, 0, 66, 0
2, 77100, Note_on_c, 0, 64, 80
2, 77159, Note_on_c, 0, 64, 0
2, 77160, Note_on_c, 0, 66, 80
2, 77219, Note_on_c, 0, 66, 0
2, 77220, Note_on_c, 0, 64, 80
2, 77279, Note_on_c, 0, 64, 0
2, 77280, Note_on_c, 0, 60, 80
2, 77340, Note_on_c, 0, 64, 80
2, 77399, Note_on_c, 0, 60, 0
2, 77399, Note_on_c, 0, 64, 0
2, 77400, Note_on_c, 0, 66, 80
2, 77459, Note_on_c, 0, 66, 0
2, 77460, Note_on_c, 0, 64, 80
2, 77519, Note_on_c, 0, 64, 0
2, 77520, Note_on_c, 0, 66, 80
2, 77579, Note_on_c, 0, 66, 0
2, 77580, Note_on_c, 0, 64, 80
2, 77639, Note_on_c, 0, 64, 0
2, 77640, Note_on_c, 0, 66, 80
2, 77699, Note_on_c, 0, 66, 0
2, 77700, Note_on_c, 0, 64, 80
2, 77759, Note_on_c, 0, 64, 0
2, 77760, Note_on_c, 0, 58, 80
2, 77820, Note_on_c, 0, 64, 80
2, 77879, Note_on_c, 0, 58, 0
2, 77879, Note_on_c, 0, 64, 0
2, 77880, Note_on_c, 0, 66, 80
2, 77939, Note_on_c, 0, 66, 0
2, 77940, Note_on_c, 0, 64, 80
2, 77999, Note_on_c, 0, 64, 0
2, 78000, Note_on_c, 0, 66, 80
2, 78059, Note_on_c, 0, 66, 0
2, 78060, Note_on_c, 0, 64, 80
2, 78119, Note_on_c, 0, 64, 0
2, 78120, Note_on_c, 0, 66, 80
2, 78179, Note_on_c, 0, 66, 0
2, 78180, Note_on_c, 0, 64, 80
2, 78239, Note_on_c, 0, 64, 0
2, 78240, Note_on_c, 0, 59, 80
2, 78300, Note_on_c, 0, 64, 80
2, 78359, Note_on_c, 0, 59, 0
2, 78359, Note_on_c, 0, 64, 0
2, 78360, Note_on_c, 0, 66, 80
2, 78419, Note_on_c, 0, 66, 0
2, 78420, Note_on_c, 0, 64, 80
2, 78479, Note_on_c, 0, 64, 0
2, 78480, Note_on_c, 0, 66, 80
2, 78539, Note_on_c, 0, 66, 0
2, 78540, Note_on_c, 0, 64, 80
2, 78599, Note_on_c, 0, 64, 0
2, 78600, Note_on_c, 0, 66, 80
2, 78659, Note_on_c, 0, 66, 0
2, 78660, Note_on_c, 0, 64, 80
2, 78719, Note_on_c, 0, 64, 0
2, 78720, Note_on_c, 0, 59, 80
2, 78780, Note_on_c, 0, 63, 80
2, 78839, Note_on_c, 0, 59, 0
2, 78839, Note_on_c, 0, 63, 0
2, 78840, Note_on_c, 0, 64, 80
2, 78899, Note_on_c, 0, 64, 0
2, 78900, Note_on_c, 0, 63, 80
2, 78959, Note_on_c, 0, 63, 0
2, 78960, Note_on_c, 0, 64, 80
2, 79019, Note_on_c, 0, 64, 0
2, 79020, Note_on_c, 0, 63, 80
2, 79079, Note_on_c, 0, 63, 0
2, 79080, Note_on_c, 0, 64, 80
2, 79139, Note_on_c, 0, 64, 0
2, 79140, Note_on_c, 0, 63, 80
2, 79199, Note_on_c, 0, 63, 0
2, 79200, Note_on_c, 0, 52, 64
2, 79310, Note_on_c, 0, 52, 0
2, 79320, Note_on_c, 0, 64, 64
2, 79430, Note_on_c, 0, 64, 0
2, 79440, Note_on_c, 0, 63, 64
2, 79550, Note_on_c, 0, 63, 0
2, 79560, Note_on_c, 0, 64, 64
2, 79670, Note_on_c, 0, 64, 0
2, 79680, Note_on_c, 0, 59, 64
2, 79790, Note_on_c, 0, 59, 0
2, 79800, Note_on_c, 0, 55, 64
2, 79910, Note_on_c, 0, 55, 0
2, 79920, Note_on_c, 0, 54, 64
2, 80030, Note_on_c, 0, 54, 0
2, 80040, Note_on_c, 0, 55, 64
2, 80150, Note_on_c, 0, 55, 0
2, 80160, Note_on_c, 0, 52, 64
2, 80270, Note_on_c, 0, 52, 0
2, 80280, Note_on_c, 0, 55, 64
2, 80390, Note_on_c, 0, 55, 0
2, 80400, Note_on_c, 0, 59, 64
2, 80510, Note_on_c, 0, 59, 0
2, 80520, Note_on_c, 0, 62, 64
2, 80630, Note_on_c, 0, 62, 0
2, 80640, Note_on_c, 0, 60, 80
2, 80700, Note_on_c, 0, 67, 80
2, 80759, Note_on_c, 0, 60, 0
2, 80759, Note_on_c, 0, 67, 0
2, 80760, Note_on_c, 0, 69, 80
2, 80819, Note_on_c, 0, 69, 0
2, 80820, Note_on_c, 0, 67, 80
2, 80879, Note_on_c, 0, 67, 0
2, 80880, Note_on_c, 0, 69, 80
2, 80939, Note_on_c, 0, 69, 0
2, 80940, Note_on_c, 0, 67, 80
2, 80999, Note_on_c, 0, 67, 0
2, 81000, Note_on_c, 0, 69, 80
2, 81059, Note_on_c, 0, 69, 0
2, 81060, Note_on_c, 0, 67, 80
2, 81119, Note_on_c, 0, 67, 0
2, 81120, Note_on_c, 0, 59, 80
2, 81180, Note_on_c, 0, 67, 80
2, 81239, Note_on_c, 0, 59, 0
2, 81239, Note_on_c, 0, 67, 0
2, 81240, Note_on_c, 0, 69, 80
2, 81299, Note_on_c, 0, 69, 0
2, 81300, Note_on_c, 0, 67, 80
2, 81359, Note_on_c, 0, 67, 0
2, 81360, Note_on_c, 0, 69, 80
2, 81419, Note_on_c, 0, 69, 0
2, 81420, Note_on_c, 0, 67, 80
2, 81479, Note_on_c, 0, 67, 0
2, 81480, Note_on_c, 0, 69, 80
2, 81539, Note_on_c, 0, 69, 0
2, 81540, Note_on_c, 0, 67, 80
2, 81599, Note_on_c, 0, 67, 0
2, 81600, Note_on_c, 0, 57, 80
2, 81660, Note_on_c, 0, 67, 80
2, 81719, Note_on_c, 0, 57, 0
2, 81719, Note_on_c, 0, 67, 0
2, 81720, Note_on_c, 0, 69, 80
2, 81779, Note_on_c, 0, 69, 0
2, 81780, Note_on_c, 0, 67, 80
2, 81839, Note_on_c, 0, 67, 0
2, 81840, Note_on_c, 0, 69, 80
2, 81899, Note_on_c, 0, 69, 0
2, 81900, Note_on_c, 0, 67, 80
2, 81959, Note_on_c, 0, 67, 0
2, 81960, Note_on_c, 0, 69, 80
2, 82019, Note_on_c, 0, 69, 0
2, 82020, Note_on_c, 0, 67, 80
2, 82079, Note_on_c, 0, 67, 0
2, 82080, Note_on_c, 0, 59, 80
2, 82140, Note_on_c, 0, 67, 80
2, 82199, Note_on_c, 0, 59, 0
2, 82199, Note_on_c, 0, 67, 0
2, 82200, Note_on_c, 0, 69, 80
2, 82259, Note_on_c, 0, 69, 0
2, 82260, Note_on_c, 0, 67, 80
2, 82319, Note_on_c, 0, 67, 0
2, 82320, Note_on_c, 0, 69, 80
2, 82379, Note_on_c, 0, 69, 0
2, 82380, Note_on_c, 0, 67, 80
2, 82439, Note_on_c, 0, 67, 0
2, 82440, Note_on_c, 0, 69, 80
2, 82499, Note_on_c, 0, 69, 0
2, 82500, Note_on_c, 0, 67, 80
2, 82559, Note_on_c, 0, 67, 0
2, 82560, Note_on_c, 0, 57, 80
2, 82620, Note_on_c, 0, 67, 80
2, 82679, Note_on_c, 0, 57, 0
2, 82679, Note_on_c, 0, 67, 0
2, 82680, Note_on_c, 0, 69, 80
2, 82739, Note_on_c, 0, 69, 0
2, 82740, Note_on_c, 0, 67, 80
2, 82799, Note_on_c, 0, 67, 0
2, 82800, Note_on_c, 0, 69, 80
2, 82859, Note_on_c, 0, 69, 0
2, 82860, Note_on_c, 0, 67, 80
2, 82919, Note_on_c, 0, 67, 0
2, 82920, Note_on_c, 0, 69, 80
2, 82979, Note_on_c, 0, 69, 0
2, 82980, Note_on_c, 0, 67, 80
2, 83039, Note_on_c, 0, 67, 0
2, 83040, Note_on_c, 0, 55, 80
2, 83100, Note_on_c, 0, 67, 80
2, 83159, Note_on_c, 0, 55, 0
2, 83159, Note_on_c, 0, 67, 0
2, 83160, Note_on_c, 0, 69, 80
2, 83219, Note_on_c, 0, 69, 0
2, 83220, Note_on_c, 0, 67, 80
2, 83279, Note_on_c, 0, 67, 0
2, 83280, Note_on_c, 0, 69, 80
2, 83339, Note_on_c, 0, 69, 0
2, 83340, Note_on_c, 0, 67, 80
2, 83399, Note_on_c, 0, 67, 0
2, 83400, Note_on_c, 0, 69, 80
2, 83459, Note_on_c, 0, 69, 0
2, 83460, Note_on_c, 0, 67, 80
2, 83519, Note_on_c, 0, 67, 0
2, 83520, Note_on_c, 0, 57, 64
2, 83750, Note_on_c, 0, 57, 0
2, 83760, Note_on_c, 0, 76, 64
2, 83990, Note_on_c, 0, 76, 0
2, 84000, Note_on_c, 0, 77, 64
2, 84230, Note_on_c, 0, 77, 0
2, 84240, Note_on_c, 0, 78, 64
2, 84470, Note_on_c, 0, 78, 0
2, 84480, Note_on_c, 0, 79, 64
2, 84710, Note_on_c, 0, 79, 0
2, 84720, Note_on_c, 0, 57, 64
2, 84950, Note_on_c, 0, 57, 0
2, 84960, Note_on_c, 0, 50, 64
2, 85190, Note_on_c, 0, 50, 0
2, 85200, Note_on_c, 0, 78, 64
2, 85430, Note_on_c, 0, 78, 0
2, 85440, Note_on_c, 0, 79, 64
2, 85670, Note_on_c, 0, 79, 0
2, 85680, Note_on_c, 0, 80, 64
2, 85910, Note_on_c, 0, 80, 0
2, 85920, Note_on_c, 0, 81, 64
2, 86150, Note_on_c, 0, 81, 0
2, 86160, Note_on_c, 0, 62, 64
2, 86390, Note_on_c, 0, 62, 0
2, 86400, Note_on_c, 0, 55, 64
2, 86630, Note_on_c, 0, 55, 0
2, 86640, Note_on_c, 0, 43, 64
2, 86870, Note_on_c, 0, 43, 0
2, 86880, Note_on_c, 0, 44, 64
2, 87110, Note_on_c, 0, 44, 0
2, 87120, Note_on_c, 0, 45, 64
2, 87350, Note_on_c, 0, 45, 0
2, 87360, Note_on_c, 0, 46, 64
2, 87590, Note_on_c, 0, 46, 0
2, 87600, Note_on_c, 0, 47, 64
2, 87830, Note_on_c, 0, 47, 0
2, 87840, Note_on_c, 0, 48, 80
2, 87900, Note_on_c, 0, 60, 80
2, 87959, Note_on_c, 0, 48, 0
2, 87959, Note_on_c, 0, 60, 0
2, 87960, Note_on_c, 0, 62, 80
2, 88019, Note_on_c, 0, 62, 0
2, 88020, Note_on_c, 0, 60, 80
2, 88079, Note_on_c, 0, 60, 0
2, 88080, Note_on_c, 0, 62, 80
2, 88139, Note_on_c, 0, 62, 0
2, 88140, Note_on_c, 0, 60, 80
2, 88199, Note_on_c, 0, 60, 0
2, 88200, Note_on_c, 0, 62, 80
2, 88259, Note_on_c, 0, 62, 0
2, 88260, Note_on_c, 0, 60, 80
2, 88319, Note_on_c, 0, 60, 0
2, 88320, Note_on_c, 0, 50, 80
2, 88380, Note_on_c, 0, 60, 80
2, 88439, Note_on_c, 0, 50, 0
2, 88439, Note_on_c, 0, 60, 0
2, 88440, Note_on_c, 0, 62, 80
2, 88499, Note_on_c, 0, 62, 0
2, 88500, Note_on_c, 0, 60, 80
2, 88559, Note_on_c, 0, 60, 0
2, 88560, Note_on_c, 0, 62, 80
2, 88619, Note_on_c, 0, 62, 0
2, 88620, Note_on_c, 0, 60, 80
2, 88679, Note_on_c, 0, 60, 0
2, 88680, Note_on_c, 0, 62, 80
2, 88739, Note_on_c, 0, 62, 0
2, 88740, Note_on_c, 0, 60, 80
2, 88799, Note_on_c, 0, 60, 0
2, 88800, Note_on_c, 0, 52, 80
2, 88860, Note_on_c, 0, 58, 80
2, 88919, Note_on_c, 0, 52, 0
2, 88919, Note_on_c, 0, 58, 0
2, 88920, Note_on_c, 0, 60, 80
2, 88979, Note_on_c, 0, 60, 0
2, 88980, Note_on_c, 0, 58, 80
2, 89039, Note_on_c, 0, 58, 0
2, 89040, Note_on_c, 0, 60, 80
2, 89099, Note_on_c, 0, 60, 0
2, 89100, Note_on_c, 0, 58, 80
2, 89159, Note_on_c, 0, 58, 0
2, 89160, Note_on_c, 0, 60, 80
2, 89219, Note_on_c, 0, 60, 0
2, 89220, Note_on_c, 0, 58, 80
2, 89279, Note_on_c, 0, 58, 0
2, 89280, Note_on_c, 0, 54, 64
2, 89390, Note_on_c, 0, 54, 0
2, 89400, Note_on_c, 0, 62, 64
2, 89510, Note_on_c, 0, 62, 0
2, 89520, Note_on_c, 0, 60, 64
2, 89630, Note_on_c, 0, 60, 0
2, 89640, Note_on_c, 0, 62, 64
2, 89750, Note_on_c, 0, 62, 0
2, 89760, Note_on_c, 0, 59, 64
2, 89870, Note_on_c, 0, 59, 0
2, 89880, Note_on_c, 0, 55, 64
2, 89990, Note_on_c, 0, 55, 0
2, 90000, Note_on_c, 0, 54, 64
2, 90110, Note_on_c, 0, 54, 0
2, 90120, Note_on_c, 0, 55, 64
2, 90230, Note_on_c, 0, 55, 0
2, 90240, Note_on_c, 0, 50, 64
2, 90350, Note_on_c, 0, 50, 0
2, 90360, Note_on_c, 0, 54, 64
2, 90470, Note_on_c, 0, 54, 0
2, 90480, Note_on_c, 0, 57, 64
2, 90590, Note_on_c, 0, 57, 0
2, 90600, Note_on_c, 0, 60, 64
2, 90710, Note_on_c, 0, 60, 0
2, 90720, Note_on_c, 0, 59, 64
2, 90830, Note_on_c, 0, 59, 0
2, 90840, Note_on_c, 0, 55, 64
2, 90950, Note_on_c, 0, 55, 0
2, 90960, Note_on_c, 0, 54, 64
2, 91070, Note_on_c, 0, 54, 0
2, 91080, Note_on_c, 0, 55, 64
2, 91190, Note_on_c, 0, 55, 0
2, 91200, Note_on_c, 0, 50, 64
2, 91310, Note_on_c, 0, 50, 0
2, 91320, Note_on_c, 0, 47, 64
2, 91430, Note_on_c, 0, 47, 0
2, 91440, Note_on_c, 0, 45, 64
2, 91550, Note_on_c, 0, 45, 0
2, 91560, Note_on_c, 0, 47, 64
2, 91670, Note_on_c, 0, 47, 0
2, 91680, Note_on_c, 0, 43, 64
2, 92150, Note_on_c, 0, 43, 0
2, 92151, End_track
0, 0, End_of_file
