0, 0, Header, 1, 2, 480
1, 0, Start_track
1, 0, Unknown_meta_event, 8, 36, 71, 111, 108, 100, 98, 101, 114, 103, 32, 86, 97, 114, 105, 97, 116, 105, 111, 110, 115, 58, 32, 86, 97, 114, 105, 97, 116, 105, 111, 110, 32, 86, 73, 73, 73, 0
1, 0, Unknown_meta_event, 9, 8, 66, 87, 86, 32, 57, 56, 56, 0
1, 0, Unknown_meta_event, 10, 11, 74, 46, 32, 83, 46, 32, 66, 97, 99, 104, 0
1, 0, Time_signature, 3, 2, 24, 8
1, 0, Key_signature, 1, "major"
1, 0, Tempo, 625000
1, 0, Program_c, 0, 46
1, 0, Note_on_c, 0, 62, 80
1, 2, Control_c, 0, 7, 100
1, 4, Control_c, 0, 10, 64
1, 6, Control_c, 0, 91, 30
1, 8, Control_c, 0, 93, 30
1, 120, Note_on_c, 0, 67, 80
1, 120, Note_on_c, 0, 62, 0
1, 240, Note_on_c, 0, 71, 80
1, 240, Note_on_c, 0, 67, 0
1, 360, Note_on_c, 0, 69, 80
1, 360, Note_on_c, 0, 71, 0
1, 480, Note_on_c, 0, 67, 80
1, 480, Note_on_c, 0, 69, 0
1, 600, Note_on_c, 0, 71, 80
1, 600, Note_on_c, 0, 67, 0
1, 720, Note_on_c, 0, 74, 80
1, 720, Note_on_c, 0, 71, 0
1, 840, Note_on_c, 0, 72, 80
1, 840, Note_on_c, 0, 74, 0
1, 960, Note_on_c, 0, 71, 80
1, 960, Note_on_c, 0, 72, 0
1, 1080, Note_on_c, 0, 74, 80
1, 1080, Note_on_c, 0, 71, 0
1, 1200, Note_on_c, 0, 79, 80
1, 1200, Note_on_c, 0, 74, 0
1, 1320, Note_on_c, 0, 79, 0
1, 1440, Note_on_c, 0, 62, 80
1, 1560, Note_on_c, 0, 66, 80
1, 1560, Note_on_c, 0, 62, 0
1, 1680, Note_on_c, 0, 69, 80
1, 1680, Note_on_c, 0, 66, 0
1, 1800, Note_on_c, 0, 67, 80
1, 1800, Note_on_c, 0, 69, 0
1, 1920, Note_on_c, 0, 66, 80
1, 1920, Note_on_c, 0, 67, 0
1, 2040, Note_on_c, 0, 69, 80
1, 2040, Note_on_c, 0, 66, 0
1, 2160, Note_on_c, 0, 72, 80
1, 2160, Note_on_c, 0, 69, 0
1, 2280, Note_on_c, 0, 71, 80
1, 2280, Note_on_c, 0, 72, 0
1, 2400, Note_on_c, 0, 69, 80
1, 2400, Note_on_c, 0, 71, 0
1, 2520, Note_on_c, 0, 74, 80
1, 2520, Note_on_c, 0, 69, 0
1, 2640, Note_on_c, 0, 78, 80
1, 2640, Note_on_c, 0, 74, 0
1, 2760, Note_on_c, 0, 78, 0
1, 2880, Note_on_c, 0, 59, 80
1, 3000, Note_on_c, 0, 64, 80
1, 3000, Note_on_c, 0, 59, 0
1, 3120, Note_on_c, 0, 67, 80
1, 3120, Note_on_c, 0, 64, 0
1, 3240, Note_on_c, 0, 66, 80
1, 3240, Note_on_c, 0, 67, 0
1, 3360, Note_on_c, 0, 64, 80
1, 3360, Note_on_c, 0, 66, 0
1, 3480, Note_on_c, 0, 67, 80
1, 3480, Note_on_c, 0, 64, 0
1, 3600, Note_on_c, 0, 71, 80
1, 3600, Note_on_c, 0, 67, 0
1, 3720, Note_on_c, 0, 69, 80
1, 3720, Note_on_c, 0, 71, 0
1, 3840, Note_on_c, 0, 67, 80
1, 3840, Note_on_c, 0, 69, 0
1, 3960, Note_on_c, 0, 73, 80
1, 3960, Note_on_c, 0, 67, 0
1, 4080, Note_on_c, 0, 76, 80
1, 4080, Note_on_c, 0, 73, 0
1, 4200, Note_on_c, 0, 76, 0
1, 4320, Note_on_c, 0, 57, 80
1, 4440, Note_on_c, 0, 62, 80
1, 4440, Note_on_c, 0, 57, 0
1, 4560, Note_on_c, 0, 66, 80
1, 4560, Note_on_c, 0, 62, 0
1, 4680, Note_on_c, 0, 64, 80
1, 4680, Note_on_c, 0, 66, 0
1, 4800, Note_on_c, 0, 62, 80
1, 4800, Note_on_c, 0, 64, 0
1, 4920, Note_on_c, 0, 66, 80
1, 4920, Note_on_c, 0, 62, 0
1, 5040, Note_on_c, 0, 69, 80
1, 5040, Note_on_c, 0, 66, 0
1, 5160, Note_on_c, 0, 67, 80
1, 5160, Note_on_c, 0, 69, 0
1, 5280, Note_on_c, 0, 66, 80
1, 5280, Note_on_c, 0, 67, 0
1, 5400, Note_on_c, 0, 69, 80
1, 5400, Note_on_c, 0, 66, 0
1, 5520, Note_on_c, 0, 74, 80
1, 5520, Note_on_c, 0, 69, 0
1, 5879, Note_on_c, 0, 74, 0
1, 5880, Note_on_c, 0, 71, 80
1, 6000, Note_on_c, 0, 67, 80
1, 6000, Note_on_c, 0, 71, 0
1, 6120, Note_on_c, 0, 69, 80
1, 6120, Note_on_c, 0, 67, 0
1, 6240, Note_on_c, 0, 71, 80
1, 6240, Note_on_c, 0, 69, 0
1, 6360, Note_on_c, 0, 67, 80
1, 6360, Note_on_c, 0, 71, 0
1, 6480, Note_on_c, 0, 62, 80
1, 6480, Note_on_c, 0, 67, 0
1, 6600, Note_on_c, 0, 64, 80
1, 6600, Note_on_c, 0, 62, 0
1, 6720, Note_on_c, 0, 65, 80
1, 6720, Note_on_c, 0, 64, 0
1, 6840, Note_on_c, 0, 62, 80
1, 6840, Note_on_c, 0, 65, 0
1, 6960, Note_on_c, 0, 59, 80
1, 6960, Note_on_c, 0, 62, 0
1, 7080, Note_on_c, 0, 59, 0
1, 7200, Note_on_c, 0, 76, 80
1, 7320, Note_on_c, 0, 72, 80
1, 7320, Note_on_c, 0, 76, 0
1, 7440, Note_on_c, 0, 69, 80
1, 7440, Note_on_c, 0, 72, 0
1, 7560, Note_on_c, 0, 71, 80
1, 7560, Note_on_c, 0, 69, 0
1, 7680, Note_on_c, 0, 72, 80
1, 7680, Note_on_c, 0, 71, 0
1, 7800, Note_on_c, 0, 69, 80
1, 7800, Note_on_c, 0, 72, 0
1, 7920, Note_on_c, 0, 64, 80
1, 7920, Note_on_c, 0, 69, 0
1, 8040, Note_on_c, 0, 66, 80
1, 8040, Note_on_c, 0, 64, 0
1, 8160, Note_on_c, 0, 67, 80
1, 8160, Note_on_c, 0, 66, 0
1, 8280, Note_on_c, 0, 64, 80
1, 8280, Note_on_c, 0, 67, 0
1, 8400, Note_on_c, 0, 60, 80
1, 8400, Note_on_c, 0, 64, 0
1, 8520, Note_on_c, 0, 60, 0
1, 8640, Note_on_c, 0, 81, 80
1, 8760, Note_on_c, 0, 78, 80
1, 8760, Note_on_c, 0, 81, 0
1, 8880, Note_on_c, 0, 74, 80
1, 8880, Note_on_c, 0, 78, 0
1, 9000, Note_on_c, 0, 76, 80
1, 9000, Note_on_c, 0, 74, 0
1, 9120, Note_on_c, 0, 78, 80
1, 9120, Note_on_c, 0, 76, 0
1, 9240, Note_on_c, 0, 74, 80
1, 9240, Note_on_c, 0, 78, 0
1, 9360, Note_on_c, 0, 69, 80
1, 9360, Note_on_c, 0, 74, 0
1, 9480, Note_on_c, 0, 71, 80
1, 9480, Note_on_c, 0, 69, 0
1, 9600, Note_on_c, 0, 72, 80
1, 9600, Note_on_c, 0, 71, 0
1, 9720, Note_on_c, 0, 69, 80
1, 9720, Note_on_c, 0, 72, 0
1, 9840, Note_on_c, 0, 66, 80
1, 9840, Note_on_c, 0, 69, 0
1, 9960, Note_on_c, 0, 72, 80
1, 9960, Note_on_c, 0, 66, 0
1, 10080, Note_on_c, 0, 71, 80
1, 10080, Note_on_c, 0, 72, 0
1, 10200, Note_on_c, 0, 67, 80
1, 10200, Note_on_c, 0, 71, 0
1, 10320, Note_on_c, 0, 62, 80
1, 10320, Note_on_c, 0, 67, 0
1, 10440, Note_on_c, 0, 66, 80
1, 10440, Note_on_c, 0, 62, 0
1, 10560, Note_on_c, 0, 67, 80
1, 10560, Note_on_c, 0, 66, 0
1, 10680, Note_on_c, 0, 62, 80
1, 10680, Note_on_c, 0, 67, 0
1, 10800, Note_on_c, 0, 59, 80
1, 10800, Note_on_c, 0, 62, 0
1, 10920, Note_on_c, 0, 60, 80
1, 10920, Note_on_c, 0, 59, 0
1, 11040, Note_on_c, 0, 62, 80
1, 11040, Note_on_c, 0, 60, 0
1, 11160, Note_on_c, 0, 59, 80
1, 11160, Note_on_c, 0, 62, 0
1, 11280, Note_on_c, 0, 55, 80
1, 11280, Note_on_c, 0, 59, 0
1, 11400, Note_on_c, 0, 57, 80
1, 11400, Note_on_c, 0, 55, 0
1, 11520, Note_on_c, 0, 59, 80
1, 11520, Note_on_c, 0, 57, 0
1, 11759, Note_on_c, 0, 59, 0
1, 11760, Note_on_c, 0, 83, 80
1, 11880, Note_on_c, 0, 81, 80
1, 11880, Note_on_c, 0, 83, 0
1, 12000, Note_on_c, 0, 79, 80
1, 12000, Note_on_c, 0, 81, 0
1, 12120, Note_on_c, 0, 78, 80
1, 12120, Note_on_c, 0, 79, 0
1, 12240, Note_on_c, 0, 76, 80
1, 12240, Note_on_c, 0, 78, 0
1, 12360, Note_on_c, 0, 74, 80
1, 12360, Note_on_c, 0, 76, 0
1, 12480, Note_on_c, 0, 73, 80
1, 12480, Note_on_c, 0, 74, 0
1, 12600, Note_on_c, 0, 76, 80
1, 12600, Note_on_c, 0, 73, 0
1, 12720, Note_on_c, 0, 74, 80
1, 12720, Note_on_c, 0, 76, 0
1, 12840, Note_on_c, 0, 76, 80
1, 12840, Note_on_c, 0, 74, 0
1, 12960, Note_on_c, 0, 69, 80
1, 12960, Note_on_c, 0, 76, 0
1, 13199, Note_on_c, 0, 69, 0
1, 13200, Note_on_c, 0, 81, 80
1, 13320, Note_on_c, 0, 79, 80
1, 13320, Note_on_c, 0, 81, 0
1, 13440, Note_on_c, 0, 78, 80
1, 13440, Note_on_c, 0, 79, 0
1, 13560, Note_on_c, 0, 76, 80
1, 13560, Note_on_c, 0, 78, 0
1, 13680, Note_on_c, 0, 74, 80
1, 13680, Note_on_c, 0, 76, 0
1, 13800, Note_on_c, 0, 73, 80
1, 13800, Note_on_c, 0, 74, 0
1, 13920, Note_on_c, 0, 71, 80
1, 13920, Note_on_c, 0, 73, 0
1, 14040, Note_on_c, 0, 74, 80
1, 14040, Note_on_c, 0, 71, 0
1, 14160, Note_on_c, 0, 73, 80
1, 14160, Note_on_c, 0, 74, 0
1, 14280, Note_on_c, 0, 74, 80
1, 14280, Note_on_c, 0, 73, 0
1, 14400, Note_on_c, 0, 67, 80
1, 14400, Note_on_c, 0, 74, 0
1, 14639, Note_on_c, 0, 67, 0
1, 14640, Note_on_c, 0, 79, 80
1, 14760, Note_on_c, 0, 78, 80
1, 14760, Note_on_c, 0, 79, 0
1, 14880, Note_on_c, 0, 76, 80
1, 14880, Note_on_c, 0, 78, 0
1, 15000, Note_on_c, 0, 74, 80
1, 15000, Note_on_c, 0, 76, 0
1, 15120, Note_on_c, 0, 73, 80
1, 15120, Note_on_c, 0, 74, 0
1, 15240, Note_on_c, 0, 71, 80
1, 15240, Note_on_c, 0, 73, 0
1, 15360, Note_on_c, 0, 69, 80
1, 15360, Note_on_c, 0, 71, 0
1, 15480, Note_on_c, 0, 73, 80
1, 15480, Note_on_c, 0, 69, 0
1, 15600, Note_on_c, 0, 71, 80
1, 15600, Note_on_c, 0, 73, 0
1, 15720, Note_on_c, 0, 74, 80
1, 15720, Note_on_c, 0, 71, 0
1, 15840, Note_on_c, 0, 73, 80
1, 15840, Note_on_c, 0, 74, 0
1, 15960, Note_on_c, 0, 76, 80
1, 15960, Note_on_c, 0, 73, 0
1, 16080, Note_on_c, 0, 73, 80
1, 16080, Note_on_c, 0, 76, 0
1, 16200, Note_on_c, 0, 71, 80
1, 16200, Note_on_c, 0, 73, 0
1, 16320, Note_on_c, 0, 73, 80
1, 16320, Note_on_c, 0, 71, 0
1, 16440, Note_on_c, 0, 69, 80
1, 16440, Note_on_c, 0, 73, 0
1, 16560, Note_on_c, 0, 64, 80
1, 16560, Note_on_c, 0, 69, 0
1, 16680, Note_on_c, 0, 66, 80
1, 16680, Note_on_c, 0, 64, 0
1, 16800, Note_on_c, 0, 67, 80
1, 16800, Note_on_c, 0, 66, 0
1, 16920, Note_on_c, 0, 64, 80
1, 16920, Note_on_c, 0, 67, 0
1, 17040, Note_on_c, 0, 61, 80
1, 17040, Note_on_c, 0, 64, 0
1, 17160, Note_on_c, 0, 64, 80
1, 17160, Note_on_c, 0, 61, 0
1, 17280, Note_on_c, 0, 62, 80
1, 17280, Note_on_c, 0, 64, 0
1, 17519, Note_on_c, 0, 62, 0
1, 17520, Note_on_c, 0, 66, 80
1, 17759, Note_on_c, 0, 66, 0
1, 17760, Note_on_c, 0, 69, 80
1, 17999, Note_on_c, 0, 69, 0
1, 18000, Note_on_c, 0, 74, 80
1, 18239, Note_on_c, 0, 74, 0
1, 18360, Note_on_c, 0, 72, 80
1, 18480, Note_on_c, 0, 69, 80
1, 18480, Note_on_c, 0, 72, 0
1, 18600, Note_on_c, 0, 66, 80
1, 18600, Note_on_c, 0, 69, 0
1, 18720, Note_on_c, 0, 67, 80
1, 18720, Note_on_c, 0, 66, 0
1, 18959, Note_on_c, 0, 67, 0
1, 18960, Note_on_c, 0, 71, 80
1, 19199, Note_on_c, 0, 71, 0
1, 19200, Note_on_c, 0, 74, 80
1, 19439, Note_on_c, 0, 74, 0
1, 19440, Note_on_c, 0, 79, 80
1, 19679, Note_on_c, 0, 79, 0
1, 19800, Note_on_c, 0, 79, 80
1, 19920, Note_on_c, 0, 78, 80
1, 19920, Note_on_c, 0, 79, 0
1, 20040, Note_on_c, 0, 79, 80
1, 20040, Note_on_c, 0, 78, 0
1, 20160, Note_on_c, 0, 69, 80
1, 20160, Note_on_c, 0, 79, 0
1, 20399, Note_on_c, 0, 69, 0
1, 20400, Note_on_c, 0, 73, 80
1, 20639, Note_on_c, 0, 73, 0
1, 20640, Note_on_c, 0, 76, 80
1, 20879, Note_on_c, 0, 76, 0
1, 20880, Note_on_c, 0, 79, 80
1, 21119, Note_on_c, 0, 79, 0
1, 21240, Note_on_c, 0, 79, 80
1, 21360, Note_on_c, 0, 81, 80
1, 21360, Note_on_c, 0, 79, 0
1, 21480, Note_on_c, 0, 73, 80
1, 21480, Note_on_c, 0, 81, 0
1, 21600, Note_on_c, 0, 74, 80
1, 21600, Note_on_c, 0, 73, 0
1, 21720, Note_on_c, 0, 78, 80
1, 21720, Note_on_c, 0, 74, 0
1, 21840, Note_on_c, 0, 81, 80
1, 21840, Note_on_c, 0, 78, 0
1, 21960, Note_on_c, 0, 85, 80
1, 21960, Note_on_c, 0, 81, 0
1, 22080, Note_on_c, 0, 86, 80
1, 22080, Note_on_c, 0, 85, 0
1, 22200, Note_on_c, 0, 85, 80
1, 22200, Note_on_c, 0, 86, 0
1, 22260, Note_on_c, 0, 83, 80
1, 22260, Note_on_c, 0, 85, 0
1, 22320, Note_on_c, 0, 81, 80
1, 22320, Note_on_c, 0, 83, 0
1, 22380, Note_on_c, 0, 79, 80
1, 22380, Note_on_c, 0, 81, 0
1, 22440, Note_on_c, 0, 78, 80
1, 22440, Note_on_c, 0, 79, 0
1, 22500, Note_on_c, 0, 76, 80
1, 22500, Note_on_c, 0, 78, 0
1, 22560, Note_on_c, 0, 74, 80
1, 22560, Note_on_c, 0, 76, 0
1, 23040, Key_signature, 1, "major"
1, 23040, Tempo, 625000
1, 23040, Note_on_c, 0, 62, 80
1, 23040, Note_on_c, 0, 74, 0
1, 23160, Note_on_c, 0, 67, 80
1, 23160, Note_on_c, 0, 62, 0
1, 23280, Note_on_c, 0, 71, 80
1, 23280, Note_on_c, 0, 67, 0
1, 23400, Note_on_c, 0, 69, 80
1, 23400, Note_on_c, 0, 71, 0
1, 23520, Note_on_c, 0, 67, 80
1, 23520, Note_on_c, 0, 69, 0
1, 23640, Note_on_c, 0, 71, 80
1, 23640, Note_on_c, 0, 67, 0
1, 23760, Note_on_c, 0, 74, 80
1, 23760, Note_on_c, 0, 71, 0
1, 23880, Note_on_c, 0, 72, 80
1, 23880, Note_on_c, 0, 74, 0
1, 24000, Note_on_c, 0, 71, 80
1, 24000, Note_on_c, 0, 72, 0
1, 24120, Note_on_c, 0, 74, 80
1, 24120, Note_on_c, 0, 71, 0
1, 24240, Note_on_c, 0, 79, 80
1, 24240, Note_on_c, 0, 74, 0
1, 24360, Note_on_c, 0, 79, 0
1, 24480, Note_on_c, 0, 62, 80
1, 24600, Note_on_c, 0, 66, 80
1, 24600, Note_on_c, 0, 62, 0
1, 24720, Note_on_c, 0, 69, 80
1, 24720, Note_on_c, 0, 66, 0
1, 24840, Note_on_c, 0, 67, 80
1, 24840, Note_on_c, 0, 69, 0
1, 24960, Note_on_c, 0, 66, 80
1, 24960, Note_on_c, 0, 67, 0
1, 25080, Note_on_c, 0, 69, 80
1, 25080, Note_on_c, 0, 66, 0
1, 25200, Note_on_c, 0, 72, 80
1, 25200, Note_on_c, 0, 69, 0
1, 25320, Note_on_c, 0, 71, 80
1, 25320, Note_on_c, 0, 72, 0
1, 25440, Note_on_c, 0, 69, 80
1, 25440, Note_on_c, 0, 71, 0
1, 25560, Note_on_c, 0, 74, 80
1, 25560, Note_on_c, 0, 69, 0
1, 25680, Note_on_c, 0, 78, 80
1, 25680, Note_on_c, 0, 74, 0
1, 25800, Note_on_c, 0, 78, 0
1, 25920, Note_on_c, 0, 59, 80
1, 26040, Note_on_c, 0, 64, 80
1, 26040, Note_on_c, 0, 59, 0
1, 26160, Note_on_c, 0, 67, 80
1, 26160, Note_on_c, 0, 64, 0
1, 26280, Note_on_c, 0, 66, 80
1, 26280, Note_on_c, 0, 67, 0
1, 26400, Note_on_c, 0, 64, 80
1, 26400, Note_on_c, 0, 66, 0
1, 26520, Note_on_c, 0, 67, 80
1, 26520, Note_on_c, 0, 64, 0
1, 26640, Note_on_c, 0, 71, 80
1, 26640, Note_on_c, 0, 67, 0
1, 26760, Note_on_c, 0, 69, 80
1, 26760, Note_on_c, 0, 71, 0
1, 26880, Note_on_c, 0, 67, 80
1, 26880, Note_on_c, 0, 69, 0
1, 27000, Note_on_c, 0, 73, 80
1, 27000, Note_on_c, 0, 67, 0
1, 27120, Note_on_c, 0, 76, 80
1, 27120, Note_on_c, 0, 73, 0
1, 27240, Note_on_c, 0, 76, 0
1, 27360, Note_on_c, 0, 57, 80
1, 27480, Note_on_c, 0, 62, 80
1, 27480, Note_on_c, 0, 57, 0
1, 27600, Note_on_c, 0, 66, 80
1, 27600, Note_on_c, 0, 62, 0
1, 27720, Note_on_c, 0, 64, 80
1, 27720, Note_on_c, 0, 66, 0
1, 27840, Note_on_c, 0, 62, 80
1, 27840, Note_on_c, 0, 64, 0
1, 27960, Note_on_c, 0, 66, 80
1, 27960, Note_on_c, 0, 62, 0
1, 28080, Note_on_c, 0, 69, 80
1, 28080, Note_on_c, 0, 66, 0
1, 28200, Note_on_c, 0, 67, 80
1, 28200, Note_on_c, 0, 69, 0
1, 28320, Note_on_c, 0, 66, 80
1, 28320, Note_on_c, 0, 67, 0
1, 28440, Note_on_c, 0, 69, 80
1, 28440, Note_on_c, 0, 66, 0
1, 28560, Note_on_c, 0, 74, 80
1, 28560, Note_on_c, 0, 69, 0
1, 28919, Note_on_c, 0, 74, 0
1, 28920, Note_on_c, 0, 71, 80
1, 29040, Note_on_c, 0, 67, 80
1, 29040, Note_on_c, 0, 71, 0
1, 29160, Note_on_c, 0, 69, 80
1, 29160, Note_on_c, 0, 67, 0
1, 29280, Note_on_c, 0, 71, 80
1, 29280, Note_on_c, 0, 69, 0
1, 29400, Note_on_c, 0, 67, 80
1, 29400, Note_on_c, 0, 71, 0
1, 29520, Note_on_c, 0, 62, 80
1, 29520, Note_on_c, 0, 67, 0
1, 29640, Note_on_c, 0, 64, 80
1, 29640, Note_on_c, 0, 62, 0
1, 29760, Note_on_c, 0, 65, 80
1, 29760, Note_on_c, 0, 64, 0
1, 29880, Note_on_c, 0, 62, 80
1, 29880, Note_on_c, 0, 65, 0
1, 30000, Note_on_c, 0, 59, 80
1, 30000, Note_on_c, 0, 62, 0
1, 30120, Note_on_c, 0, 59, 0
1, 30240, Note_on_c, 0, 76, 80
1, 30360, Note_on_c, 0, 72, 80
1, 30360, Note_on_c, 0, 76, 0
1, 30480, Note_on_c, 0, 69, 80
1, 30480, Note_on_c, 0, 72, 0
1, 30600, Note_on_c, 0, 71, 80
1, 30600, Note_on_c, 0, 69, 0
1, 30720, Note_on_c, 0, 72, 80
1, 30720, Note_on_c, 0, 71, 0
1, 30840, Note_on_c, 0, 69, 80
1, 30840, Note_on_c, 0, 72, 0
1, 30960, Note_on_c, 0, 64, 80
1, 30960, Note_on_c, 0, 69, 0
1, 31080, Note_on_c, 0, 66, 80
1, 31080, Note_on_c, 0, 64, 0
1, 31200, Note_on_c, 0, 67, 80
1, 31200, Note_on_c, 0, 66, 0
1, 31320, Note_on_c, 0, 64, 80
1, 31320, Note_on_c, 0, 67, 0
1, 31440, Note_on_c, 0, 60, 80
1, 31440, Note_on_c, 0, 64, 0
1, 31560, Note_on_c, 0, 60, 0
1, 31680, Note_on_c, 0, 81, 80
1, 31800, Note_on_c, 0, 78, 80
1, 31800, Note_on_c, 0, 81, 0
1, 31920, Note_on_c, 0, 74, 80
1, 31920, Note_on_c, 0, 78, 0
1, 32040, Note_on_c, 0, 76, 80
1, 32040, Note_on_c, 0, 74, 0
1, 32160, Note_on_c, 0, 78, 80
1, 32160, Note_on_c, 0, 76, 0
1, 32280, Note_on_c, 0, 74, 80
1, 32280, Note_on_c, 0, 78, 0
1, 32400, Note_on_c, 0, 69, 80
1, 32400, Note_on_c, 0, 74, 0
1, 32520, Note_on_c, 0, 71, 80
1, 32520, Note_on_c, 0, 69, 0
1, 32640, Note_on_c, 0, 72, 80
1, 32640, Note_on_c, 0, 71, 0
1, 32760, Note_on_c, 0, 69, 80
1, 32760, Note_on_c, 0, 72, 0
1, 32880, Note_on_c, 0, 66, 80
1, 32880, Note_on_c, 0, 69, 0
1, 33000, Note_on_c, 0, 72, 80
1, 33000, Note_on_c, 0, 66, 0
1, 33120, Note_on_c, 0, 71, 80
1, 33120, Note_on_c, 0, 72, 0
1, 33240, Note_on_c, 0, 67, 80
1, 33240, Note_on_c, 0, 71, 0
1, 33360, Note_on_c, 0, 62, 80
1, 33360, Note_on_c, 0, 67, 0
1, 33480, Note_on_c, 0, 66, 80
1, 33480, Note_on_c, 0, 62, 0
1, 33600, Note_on_c, 0, 67, 80
1, 33600, Note_on_c, 0, 66, 0
1, 33720, Note_on_c, 0, 62, 80
1, 33720, Note_on_c, 0, 67, 0
1, 33840, Note_on_c, 0, 59, 80
1, 33840, Note_on_c, 0, 62, 0
1, 33960, Note_on_c, 0, 60, 80
1, 33960, Note_on_c, 0, 59, 0
1, 34080, Note_on_c, 0, 62, 80
1, 34080, Note_on_c, 0, 60, 0
1, 34200, Note_on_c, 0, 59, 80
1, 34200, Note_on_c, 0, 62, 0
1, 34320, Note_on_c, 0, 55, 80
1, 34320, Note_on_c, 0, 59, 0
1, 34440, Note_on_c, 0, 57, 80
1, 34440, Note_on_c, 0, 55, 0
1, 34560, Note_on_c, 0, 59, 80
1, 34560, Note_on_c, 0, 57, 0
1, 34799, Note_on_c, 0, 59, 0
1, 34800, Note_on_c, 0, 83, 80
1, 34920, Note_on_c, 0, 81, 80
1, 34920, Note_on_c, 0, 83, 0
1, 35040, Note_on_c, 0, 79, 80
1, 35040, Note_on_c, 0, 81, 0
1, 35160, Note_on_c, 0, 78, 80
1, 35160, Note_on_c, 0, 79, 0
1, 35280, Note_on_c, 0, 76, 80
1, 35280, Note_on_c, 0, 78, 0
1, 35400, Note_on_c, 0, 74, 80
1, 35400, Note_on_c, 0, 76, 0
1, 35520, Note_on_c, 0, 73, 80
1, 35520, Note_on_c, 0, 74, 0
1, 35640, Note_on_c, 0, 76, 80
1, 35640, Note_on_c, 0, 73, 0
1, 35760, Note_on_c, 0, 74, 80
1, 35760, Note_on_c, 0, 76, 0
1, 35880, Note_on_c, 0, 76, 80
1, 35880, Note_on_c, 0, 74, 0
1, 36000, Note_on_c, 0, 69, 80
1, 36000, Note_on_c, 0, 76, 0
1, 36239, Note_on_c, 0, 69, 0
1, 36240, Note_on_c, 0, 81, 80
1, 36360, Note_on_c, 0, 79, 80
1, 36360, Note_on_c, 0, 81, 0
1, 36480, Note_on_c, 0, 78, 80
1, 36480, Note_on_c, 0, 79, 0
1, 36600, Note_on_c, 0, 76, 80
1, 36600, Note_on_c, 0, 78, 0
1, 36720, Note_on_c, 0, 74, 80
1, 36720, Note_on_c, 0, 76, 0
1, 36840, Note_on_c, 0, 73, 80
1, 36840, Note_on_c, 0, 74, 0
1, 36960, Note_on_c, 0, 71, 80
1, 36960, Note_on_c, 0, 73, 0
1, 37080, Note_on_c, 0, 74, 80
1, 37080, Note_on_c, 0, 71, 0
1, 37200, Note_on_c, 0, 73, 80
1, 37200, Note_on_c, 0, 74, 0
1, 37320, Note_on_c, 0, 74, 80
1, 37320, Note_on_c, 0, 73, 0
1, 37440, Note_on_c, 0, 67, 80
1, 37440, Note_on_c, 0, 74, 0
1, 37679, Note_on_c, 0, 67, 0
1, 37680, Note_on_c, 0, 79, 80
1, 37800, Note_on_c, 0, 78, 80
1, 37800, Note_on_c, 0, 79, 0
1, 37920, Note_on_c, 0, 76, 80
1, 37920, Note_on_c, 0, 78, 0
1, 38040, Note_on_c, 0, 74, 80
1, 38040, Note_on_c, 0, 76, 0
1, 38160, Note_on_c, 0, 73, 80
1, 38160, Note_on_c, 0, 74, 0
1, 38280, Note_on_c, 0, 71, 80
1, 38280, Note_on_c, 0, 73, 0
1, 38400, Note_on_c, 0, 69, 80
1, 38400, Note_on_c, 0, 71, 0
1, 38520, Note_on_c, 0, 73, 80
1, 38520, Note_on_c, 0, 69, 0
1, 38640, Note_on_c, 0, 71, 80
1, 38640, Note_on_c, 0, 73, 0
1, 38760, Note_on_c, 0, 74, 80
1, 38760, Note_on_c, 0, 71, 0
1, 38880, Note_on_c, 0, 73, 80
1, 38880, Note_on_c, 0, 74, 0
1, 39000, Note_on_c, 0, 76, 80
1, 39000, Note_on_c, 0, 73, 0
1, 39120, Note_on_c, 0, 73, 80
1, 39120, Note_on_c, 0, 76, 0
1, 39240, Note_on_c, 0, 71, 80
1, 39240, Note_on_c, 0, 73, 0
1, 39360, Note_on_c, 0, 73, 80
1, 39360, Note_on_c, 0, 71, 0
1, 39480, Note_on_c, 0, 69, 80
1, 39480, Note_on_c, 0, 73, 0
1, 39600, Note_on_c, 0, 64, 80
1, 39600, Note_on_c, 0, 69, 0
1, 39720, Note_on_c, 0, 66, 80
1, 39720, Note_on_c, 0, 64, 0
1, 39840, Note_on_c, 0, 67, 80
1, 39840, Note_on_c, 0, 66, 0
1, 39960, Note_on_c, 0, 64, 80
1, 39960, Note_on_c, 0, 67, 0
1, 40080, Note_on_c, 0, 61, 80
1, 40080, Note_on_c, 0, 64, 0
1, 40200, Note_on_c, 0, 64, 80
1, 40200, Note_on_c, 0, 61, 0
1, 40320, Note_on_c, 0, 62, 80
1, 40320, Note_on_c, 0, 64, 0
1, 40559, Note_on_c, 0, 62, 0
1, 40560, Note_on_c, 0, 66, 80
1, 40799, Note_on_c, 0, 66, 0
1, 40800, Note_on_c, 0, 69, 80
1, 41039, Note_on_c, 0, 69, 0
1, 41040, Note_on_c, 0, 74, 80
1, 41279, Note_on_c, 0, 74, 0
1, 41400, Note_on_c, 0, 72, 80
1, 41520, Note_on_c, 0, 69, 80
1, 41520, Note_on_c, 0, 72, 0
1, 41640, Note_on_c, 0, 66, 80
1, 41640, Note_on_c, 0, 69, 0
1, 41760, Note_on_c, 0, 67, 80
1, 41760, Note_on_c, 0, 66, 0
1, 41999, Note_on_c, 0, 67, 0
1, 42000, Note_on_c, 0, 71, 80
1, 42239, Note_on_c, 0, 71, 0
1, 42240, Note_on_c, 0, 74, 80
1, 42479, Note_on_c, 0, 74, 0
1, 42480, Note_on_c, 0, 79, 80
1, 42719, Note_on_c, 0, 79, 0
1, 42840, Note_on_c, 0, 79, 80
1, 42960, Note_on_c, 0, 78, 80
1, 42960, Note_on_c, 0, 79, 0
1, 43080, Note_on_c, 0, 79, 80
1, 43080, Note_on_c, 0, 78, 0
1, 43200, Note_on_c, 0, 69, 80
1, 43200, Note_on_c, 0, 79, 0
1, 43439, Note_on_c, 0, 69, 0
1, 43440, Note_on_c, 0, 73, 80
1, 43679, Note_on_c, 0, 73, 0
1, 43680, Note_on_c, 0, 76, 80
1, 43919, Note_on_c, 0, 76, 0
1, 43920, Note_on_c, 0, 79, 80
1, 44159, Note_on_c, 0, 79, 0
1, 44280, Note_on_c, 0, 79, 80
1, 44400, Note_on_c, 0, 81, 80
1, 44400, Note_on_c, 0, 79, 0
1, 44520, Note_on_c, 0, 73, 80
1, 44520, Note_on_c, 0, 81, 0
1, 44640, Note_on_c, 0, 74, 80
1, 44640, Note_on_c, 0, 73, 0
1, 44760, Note_on_c, 0, 78, 80
1, 44760, Note_on_c, 0, 74, 0
1, 44880, Note_on_c, 0, 81, 80
1, 44880, Note_on_c, 0, 78, 0
1, 45000, Note_on_c, 0, 85, 80
1, 45000, Note_on_c, 0, 81, 0
1, 45120, Note_on_c, 0, 86, 80
1, 45120, Note_on_c, 0, 85, 0
1, 45240, Note_on_c, 0, 85, 80
1, 45240, Note_on_c, 0, 86, 0
1, 45300, Note_on_c, 0, 83, 80
1, 45300, Note_on_c, 0, 85, 0
1, 45360, Note_on_c, 0, 81, 80
1, 45360, Note_on_c, 0, 83, 0
1, 45420, Note_on_c, 0, 79, 80
1, 45420, Note_on_c, 0, 81, 0
1, 45480, Note_on_c, 0, 78, 80
1, 45480, Note_on_c, 0, 79, 0
1, 45540, Note_on_c, 0, 76, 80
1, 45540, Note_on_c, 0, 78, 0
1, 45600, Note_on_c, 0, 74, 80
1, 45600, Note_on_c, 0, 76, 0
1, 46080, Note_on_c, 0, 69, 80
1, 46080, Note_on_c, 0, 74, 0
1, 46200, Note_on_c, 0, 74, 80
1, 46200, Note_on_c, 0, 69, 0
1, 46320, Note_on_c, 0, 78, 80
1, 46320, Note_on_c, 0, 74, 0
1, 46440, Note_on_c, 0, 76, 80
1, 46440, Note_on_c, 0, 78, 0
1, 46560, Note_on_c, 0, 74, 80
1, 46560, Note_on_c, 0, 76, 0
1, 46680, Note_on_c, 0, 78, 80
1, 46680, Note_on_c, 0, 74, 0
1, 46800, Note_on_c, 0, 81, 80
1, 46800, Note_on_c, 0, 78, 0
1, 46920, Note_on_c, 0, 79, 80
1, 46920, Note_on_c, 0, 81, 0
1, 47040, Note_on_c, 0, 78, 80
1, 47040, Note_on_c, 0, 79, 0
1, 47160, Note_on_c, 0, 81, 80
1, 47160, Note_on_c, 0, 78, 0
1, 47280, Note_on_c, 0, 84, 80
1, 47280, Note_on_c, 0, 81, 0
1, 47400, Note_on_c, 0, 84, 0
1, 47520, Note_on_c, 0, 62, 80
1, 47640, Note_on_c, 0, 67, 80
1, 47640, Note_on_c, 0, 62, 0
1, 47760, Note_on_c, 0, 71, 80
1, 47760, Note_on_c, 0, 67, 0
1, 47880, Note_on_c, 0, 69, 80
1, 47880, Note_on_c, 0, 71, 0
1, 48000, Note_on_c, 0, 67, 80
1, 48000, Note_on_c, 0, 69, 0
1, 48120, Note_on_c, 0, 71, 80
1, 48120, Note_on_c, 0, 67, 0
1, 48240, Note_on_c, 0, 74, 80
1, 48240, Note_on_c, 0, 71, 0
1, 48360, Note_on_c, 0, 72, 80
1, 48360, Note_on_c, 0, 74, 0
1, 48480, Note_on_c, 0, 71, 80
1, 48480, Note_on_c, 0, 72, 0
1, 48600, Note_on_c, 0, 74, 80
1, 48600, Note_on_c, 0, 71, 0
1, 48720, Note_on_c, 0, 77, 80
1, 48720, Note_on_c, 0, 74, 0
1, 48840, Note_on_c, 0, 77, 0
1, 48960, Note_on_c, 0, 76, 80
1, 49080, Note_on_c, 0, 72, 80
1, 49080, Note_on_c, 0, 76, 0
1, 49200, Note_on_c, 0, 69, 80
1, 49200, Note_on_c, 0, 72, 0
1, 49320, Note_on_c, 0, 71, 80
1, 49320, Note_on_c, 0, 69, 0
1, 49440, Note_on_c, 0, 72, 80
1, 49440, Note_on_c, 0, 71, 0
1, 49560, Note_on_c, 0, 69, 80
1, 49560, Note_on_c, 0, 72, 0
1, 49680, Note_on_c, 0, 66, 80
1, 49680, Note_on_c, 0, 69, 0
1, 49800, Note_on_c, 0, 67, 80
1, 49800, Note_on_c, 0, 66, 0
1, 49920, Note_on_c, 0, 69, 80
1, 49920, Note_on_c, 0, 67, 0
1, 50040, Note_on_c, 0, 66, 80
1, 50040, Note_on_c, 0, 69, 0
1, 50160, Note_on_c, 0, 63, 80
1, 50160, Note_on_c, 0, 66, 0
1, 50280, Note_on_c, 0, 64, 80
1, 50280, Note_on_c, 0, 63, 0
1, 50400, Note_on_c, 0, 66, 80
1, 50400, Note_on_c, 0, 64, 0
1, 50520, Note_on_c, 0, 63, 80
1, 50520, Note_on_c, 0, 66, 0
1, 50640, Note_on_c, 0, 59, 80
1, 50640, Note_on_c, 0, 63, 0
1, 50760, Note_on_c, 0, 61, 80
1, 50760, Note_on_c, 0, 59, 0
1, 50880, Note_on_c, 0, 63, 80
1, 50880, Note_on_c, 0, 61, 0
1, 51000, Note_on_c, 0, 59, 80
1, 51000, Note_on_c, 0, 63, 0
1, 51120, Note_on_c, 0, 54, 80
1, 51120, Note_on_c, 0, 59, 0
1, 51240, Note_on_c, 0, 55, 80
1, 51240, Note_on_c, 0, 54, 0
1, 51360, Note_on_c, 0, 57, 80
1, 51360, Note_on_c, 0, 55, 0
1, 51480, Note_on_c, 0, 54, 80
1, 51480, Note_on_c, 0, 57, 0
1, 51600, Note_on_c, 0, 51, 80
1, 51600, Note_on_c, 0, 54, 0
1, 51720, Note_on_c, 0, 54, 80
1, 51720, Note_on_c, 0, 51, 0
1, 51840, Note_on_c, 0, 55, 80
1, 51840, Note_on_c, 0, 54, 0
1, 51960, Note_on_c, 0, 59, 80
1, 51960, Note_on_c, 0, 55, 0
1, 52080, Note_on_c, 0, 64, 80
1, 52080, Note_on_c, 0, 59, 0
1, 52200, Note_on_c, 0, 63, 80
1, 52200, Note_on_c, 0, 64, 0
1, 52320, Note_on_c, 0, 64, 80
1, 52320, Note_on_c, 0, 63, 0
1, 52440, Note_on_c, 0, 67, 80
1, 52440, Note_on_c, 0, 64, 0
1, 52560, Note_on_c, 0, 71, 80
1, 52560, Note_on_c, 0, 67, 0
1, 52680, Note_on_c, 0, 69, 80
1, 52680, Note_on_c, 0, 71, 0
1, 52800, Note_on_c, 0, 67, 80
1, 52800, Note_on_c, 0, 69, 0
1, 52920, Note_on_c, 0, 71, 80
1, 52920, Note_on_c, 0, 67, 0
1, 53040, Note_on_c, 0, 76, 80
1, 53040, Note_on_c, 0, 71, 0
1, 53160, Note_on_c, 0, 76, 0
1, 53280, Note_on_c, 0, 64, 80
1, 53400, Note_on_c, 0, 69, 80
1, 53400, Note_on_c, 0, 64, 0
1, 53520, Note_on_c, 0, 72, 80
1, 53520, Note_on_c, 0, 69, 0
1, 53640, Note_on_c, 0, 71, 80
1, 53640, Note_on_c, 0, 72, 0
1, 53760, Note_on_c, 0, 69, 80
1, 53760, Note_on_c, 0, 71, 0
1, 53880, Note_on_c, 0, 72, 80
1, 53880, Note_on_c, 0, 69, 0
1, 54000, Note_on_c, 0, 76, 80
1, 54000, Note_on_c, 0, 72, 0
1, 54120, Note_on_c, 0, 74, 80
1, 54120, Note_on_c, 0, 76, 0
1, 54240, Note_on_c, 0, 72, 80
1, 54240, Note_on_c, 0, 74, 0
1, 54360, Note_on_c, 0, 76, 80
1, 54360, Note_on_c, 0, 72, 0
1, 54480, Note_on_c, 0, 81, 80
1, 54480, Note_on_c, 0, 76, 0
1, 54600, Note_on_c, 0, 81, 0
1, 54840, Note_on_c, 0, 72, 80
1, 54960, Note_on_c, 0, 71, 80
1, 54960, Note_on_c, 0, 72, 0
1, 55080, Note_on_c, 0, 78, 80
1, 55080, Note_on_c, 0, 71, 0
1, 55200, Note_on_c, 0, 79, 80
1, 55200, Note_on_c, 0, 78, 0
1, 55320, Note_on_c, 0, 75, 80
1, 55320, Note_on_c, 0, 79, 0
1, 55440, Note_on_c, 0, 76, 80
1, 55440, Note_on_c, 0, 75, 0
1, 55560, Note_on_c, 0, 67, 80
1, 55560, Note_on_c, 0, 76, 0
1, 55680, Note_on_c, 0, 66, 80
1, 55680, Note_on_c, 0, 67, 0
1, 55800, Note_on_c, 0, 76, 80
1, 55800, Note_on_c, 0, 66, 0
1, 55920, Note_on_c, 0, 75, 80
1, 55920, Note_on_c, 0, 76, 0
1, 56040, Note_on_c, 0, 81, 80
1, 56040, Note_on_c, 0, 75, 0
1, 56160, Note_on_c, 0, 81, 80
1, 56160, Note_on_c, 0, 81, 0
1, 56220, Note_on_c, 0, 79, 80
1, 56220, Note_on_c, 0, 81, 0
1, 56279, Note_on_c, 0, 79, 0
1, 56280, Note_on_c, 0, 78, 80
1, 56400, Note_on_c, 0, 76, 80
1, 56400, Note_on_c, 0, 78, 0
1, 56640, Note_on_c, 0, 76, 0
1, 56760, Note_on_c, 0, 69, 80
1, 56880, Note_on_c, 0, 67, 80
1, 56880, Note_on_c, 0, 69, 0
1, 57000, Note_on_c, 0, 66, 80
1, 57000, Note_on_c, 0, 67, 0
1, 57120, Note_on_c, 0, 66, 80
1, 57120, Note_on_c, 0, 66, 0
1, 57359, Note_on_c, 0, 66, 0
1, 57360, Note_on_c, 0, 64, 80
1, 57840, Note_on_c, 0, 76, 80
1, 57960, Note_on_c, 0, 74, 80
1, 57960, Note_on_c, 0, 76, 0
1, 58079, Note_on_c, 0, 64, 0
1, 58080, Note_on_c, 0, 72, 80
1, 58080, Note_on_c, 0, 74, 0
1, 58200, Note_on_c, 0, 71, 80
1, 58200, Note_on_c, 0, 72, 0
1, 58320, Note_on_c, 0, 69, 80
1, 58320, Note_on_c, 0, 71, 0
1, 58440, Note_on_c, 0, 67, 80
1, 58440, Note_on_c, 0, 69, 0
1, 58560, Note_on_c, 0, 66, 80
1, 58560, Note_on_c, 0, 67, 0
1, 58680, Note_on_c, 0, 70, 80
1, 58680, Note_on_c, 0, 66, 0
1, 58800, Note_on_c, 0, 73, 80
1, 58800, Note_on_c, 0, 70, 0
1, 58920, Note_on_c, 0, 76, 80
1, 58920, Note_on_c, 0, 73, 0
1, 59040, Note_on_c, 0, 74, 80
1, 59040, Note_on_c, 0, 76, 0
1, 59160, Note_on_c, 0, 66, 80
1, 59160, Note_on_c, 0, 74, 0
1, 59280, Note_on_c, 0, 74, 80
1, 59280, Note_on_c, 0, 66, 0
1, 59400, Note_on_c, 0, 72, 80
1, 59400, Note_on_c, 0, 74, 0
1, 59520, Note_on_c, 0, 71, 80
1, 59520, Note_on_c, 0, 72, 0
1, 59640, Note_on_c, 0, 69, 80
1, 59640, Note_on_c, 0, 71, 0
1, 59760, Note_on_c, 0, 68, 80
1, 59760, Note_on_c, 0, 69, 0
1, 59880, Note_on_c, 0, 66, 80
1, 59880, Note_on_c, 0, 68, 0
1, 60000, Note_on_c, 0, 64, 80
1, 60000, Note_on_c, 0, 66, 0
1, 60120, Note_on_c, 0, 68, 80
1, 60120, Note_on_c, 0, 64, 0
1, 60240, Note_on_c, 0, 71, 80
1, 60240, Note_on_c, 0, 68, 0
1, 60360, Note_on_c, 0, 74, 80
1, 60360, Note_on_c, 0, 71, 0
1, 60480, Note_on_c, 0, 72, 80
1, 60480, Note_on_c, 0, 74, 0
1, 60600, Note_on_c, 0, 64, 80
1, 60600, Note_on_c, 0, 72, 0
1, 60720, Note_on_c, 0, 72, 80
1, 60720, Note_on_c, 0, 64, 0
1, 60840, Note_on_c, 0, 71, 80
1, 60840, Note_on_c, 0, 72, 0
1, 60960, Note_on_c, 0, 69, 80
1, 60960, Note_on_c, 0, 71, 0
1, 61080, Note_on_c, 0, 72, 80
1, 61080, Note_on_c, 0, 69, 0
1, 61200, Note_on_c, 0, 76, 80
1, 61200, Note_on_c, 0, 72, 0
1, 61320, Note_on_c, 0, 74, 80
1, 61320, Note_on_c, 0, 76, 0
1, 61440, Note_on_c, 0, 72, 80
1, 61440, Note_on_c, 0, 74, 0
1, 61560, Note_on_c, 0, 76, 80
1, 61560, Note_on_c, 0, 72, 0
1, 61680, Note_on_c, 0, 81, 80
1, 61680, Note_on_c, 0, 76, 0
1, 61800, Note_on_c, 0, 79, 80
1, 61800, Note_on_c, 0, 81, 0
1, 61920, Note_on_c, 0, 78, 80
1, 61920, Note_on_c, 0, 79, 0
1, 62040, Note_on_c, 0, 81, 80
1, 62040, Note_on_c, 0, 78, 0
1, 62160, Note_on_c, 0, 84, 80
1, 62160, Note_on_c, 0, 81, 0
1, 62280, Note_on_c, 0, 83, 80
1, 62280, Note_on_c, 0, 84, 0
1, 62400, Note_on_c, 0, 81, 80
1, 62400, Note_on_c, 0, 83, 0
1, 62520, Note_on_c, 0, 79, 80
1, 62520, Note_on_c, 0, 81, 0
1, 62640, Note_on_c, 0, 78, 80
1, 62640, Note_on_c, 0, 79, 0
1, 62760, Note_on_c, 0, 76, 80
1, 62760, Note_on_c, 0, 78, 0
1, 62880, Note_on_c, 0, 74, 80
1, 62880, Note_on_c, 0, 76, 0
1, 63000, Note_on_c, 0, 78, 80
1, 63000, Note_on_c, 0, 74, 0
1, 63120, Note_on_c, 0, 81, 80
1, 63120, Note_on_c, 0, 78, 0
1, 63240, Note_on_c, 0, 84, 80
1, 63240, Note_on_c, 0, 81, 0
1, 63360, Note_on_c, 0, 83, 80
1, 63360, Note_on_c, 0, 84, 0
1, 63480, Note_on_c, 0, 86, 80
1, 63480, Note_on_c, 0, 83, 0
1, 63600, Note_on_c, 0, 79, 80
1, 63600, Note_on_c, 0, 86, 0
1, 63720, Note_on_c, 0, 81, 80
1, 63720, Note_on_c, 0, 79, 0
1, 63840, Note_on_c, 0, 83, 80
1, 63840, Note_on_c, 0, 81, 0
1, 63960, Note_on_c, 0, 79, 80
1, 63960, Note_on_c, 0, 83, 0
1, 64080, Note_on_c, 0, 74, 80
1, 64080, Note_on_c, 0, 79, 0
1, 64200, Note_on_c, 0, 76, 80
1, 64200, Note_on_c, 0, 74, 0
1, 64320, Note_on_c, 0, 77, 80
1, 64320, Note_on_c, 0, 76, 0
1, 64440, Note_on_c, 0, 74, 80
1, 64440, Note_on_c, 0, 77, 0
1, 64560, Note_on_c, 0, 71, 80
1, 64560, Note_on_c, 0, 74, 0
1, 64680, Note_on_c, 0, 74, 80
1, 64680, Note_on_c, 0, 71, 0
1, 64800, Note_on_c, 0, 76, 80
1, 64800, Note_on_c, 0, 74, 0
1, 64920, Note_on_c, 0, 79, 80
1, 64920, Note_on_c, 0, 76, 0
1, 65040, Note_on_c, 0, 72, 80
1, 65040, Note_on_c, 0, 79, 0
1, 65160, Note_on_c, 0, 74, 80
1, 65160, Note_on_c, 0, 72, 0
1, 65280, Note_on_c, 0, 76, 80
1, 65280, Note_on_c, 0, 74, 0
1, 65400, Note_on_c, 0, 72, 80
1, 65400, Note_on_c, 0, 76, 0
1, 65520, Note_on_c, 0, 69, 80
1, 65520, Note_on_c, 0, 72, 0
1, 65640, Note_on_c, 0, 71, 80
1, 65640, Note_on_c, 0, 69, 0
1, 65760, Note_on_c, 0, 72, 80
1, 65760, Note_on_c, 0, 71, 0
1, 65880, Note_on_c, 0, 69, 80
1, 65880, Note_on_c, 0, 72, 0
1, 66000, Note_on_c, 0, 64, 80
1, 66000, Note_on_c, 0, 69, 0
1, 66120, Note_on_c, 0, 67, 80
1, 66120, Note_on_c, 0, 64, 0
1, 66240, Note_on_c, 0, 66, 80
1, 66240, Note_on_c, 0, 67, 0
1, 66360, Note_on_c, 0, 69, 80
1, 66360, Note_on_c, 0, 66, 0
1, 66480, Note_on_c, 0, 62, 80
1, 66480, Note_on_c, 0, 69, 0
1, 66600, Note_on_c, 0, 64, 80
1, 66600, Note_on_c, 0, 62, 0
1, 66720, Note_on_c, 0, 66, 80
1, 66720, Note_on_c, 0, 64, 0
1, 66840, Note_on_c, 0, 62, 80
1, 66840, Note_on_c, 0, 66, 0
1, 66960, Note_on_c, 0, 57, 80
1, 66960, Note_on_c, 0, 62, 0
1, 67080, Note_on_c, 0, 59, 80
1, 67080, Note_on_c, 0, 57, 0
1, 67200, Note_on_c, 0, 60, 80
1, 67200, Note_on_c, 0, 59, 0
1, 67320, Note_on_c, 0, 57, 80
1, 67320, Note_on_c, 0, 60, 0
1, 67440, Note_on_c, 0, 54, 80
1, 67440, Note_on_c, 0, 57, 0
1, 67560, Note_on_c, 0, 57, 80
1, 67560, Note_on_c, 0, 54, 0
1, 67680, Note_on_c, 0, 59, 80
1, 67680, Note_on_c, 0, 57, 0
1, 67800, Note_on_c, 0, 62, 80
1, 67800, Note_on_c, 0, 59, 0
1, 67920, Note_on_c, 0, 55, 80
1, 67920, Note_on_c, 0, 62, 0
1, 68040, Note_on_c, 0, 57, 80
1, 68040, Note_on_c, 0, 55, 0
1, 68160, Note_on_c, 0, 59, 80
1, 68160, Note_on_c, 0, 57, 0
1, 68280, Note_on_c, 0, 55, 80
1, 68280, Note_on_c, 0, 59, 0
1, 68399, Note_on_c, 0, 55, 0
1, 68400, Note_on_c, 0, 59, 80
1, 68519, Note_on_c, 0, 59, 0
1, 68520, Note_on_c, 0, 62, 80
1, 68639, Note_on_c, 0, 62, 0
1, 68640, Note_on_c, 0, 67, 80
1, 69120, Note_on_c, 0, 69, 80
1, 69120, Note_on_c, 0, 67, 0
1, 69240, Note_on_c, 0, 74, 80
1, 69240, Note_on_c, 0, 69, 0
1, 69360, Note_on_c, 0, 78, 80
1, 69360, Note_on_c, 0, 74, 0
1, 69480, Note_on_c, 0, 76, 80
1, 69480, Note_on_c, 0, 78, 0
1, 69600, Note_on_c, 0, 74, 80
1, 69600, Note_on_c, 0, 76, 0
1, 69720, Note_on_c, 0, 78, 80
1, 69720, Note_on_c, 0, 74, 0
1, 69840, Note_on_c, 0, 81, 80
1, 69840, Note_on_c, 0, 78, 0
1, 69960, Note_on_c, 0, 79, 80
1, 69960, Note_on_c, 0, 81, 0
1, 70080, Note_on_c, 0, 78, 80
1, 70080, Note_on_c, 0, 79, 0
1, 70200, Note_on_c, 0, 81, 80
1, 70200, Note_on_c, 0, 78, 0
1, 70320, Note_on_c, 0, 84, 80
1, 70320, Note_on_c, 0, 81, 0
1, 70440, Note_on_c, 0, 84, 0
1, 70560, Note_on_c, 0, 62, 80
1, 70680, Note_on_c, 0, 67, 80
1, 70680, Note_on_c, 0, 62, 0
1, 70800, Note_on_c, 0, 71, 80
1, 70800, Note_on_c, 0, 67, 0
1, 70920, Note_on_c, 0, 69, 80
1, 70920, Note_on_c, 0, 71, 0
1, 71040, Note_on_c, 0, 67, 80
1, 71040, Note_on_c, 0, 69, 0
1, 71160, Note_on_c, 0, 71, 80
1, 71160, Note_on_c, 0, 67, 0
1, 71280, Note_on_c, 0, 74, 80
1, 71280, Note_on_c, 0, 71, 0
1, 71400, Note_on_c, 0, 72, 80
1, 71400, Note_on_c, 0, 74, 0
1, 71520, Note_on_c, 0, 71, 80
1, 71520, Note_on_c, 0, 72, 0
1, 71640, Note_on_c, 0, 74, 80
1, 71640, Note_on_c, 0, 71, 0
1, 71760, Note_on_c, 0, 77, 80
1, 71760, Note_on_c, 0, 74, 0
1, 71880, Note_on_c, 0, 77, 0
1, 72000, Note_on_c, 0, 76, 80
1, 72120, Note_on_c, 0, 72, 80
1, 72120, Note_on_c, 0, 76, 0
1, 72240, Note_on_c, 0, 69, 80
1, 72240, Note_on_c, 0, 72, 0
1, 72360, Note_on_c, 0, 71, 80
1, 72360, Note_on_c, 0, 69, 0
1, 72480, Note_on_c, 0, 72, 80
1, 72480, Note_on_c, 0, 71, 0
1, 72600, Note_on_c, 0, 69, 80
1, 72600, Note_on_c, 0, 72, 0
1, 72720, Note_on_c, 0, 66, 80
1, 72720, Note_on_c, 0, 69, 0
1, 72840, Note_on_c, 0, 67, 80
1, 72840, Note_on_c, 0, 66, 0
1, 72960, Note_on_c, 0, 69, 80
1, 72960, Note_on_c, 0, 67, 0
1, 73080, Note_on_c, 0, 66, 80
1, 73080, Note_on_c, 0, 69, 0
1, 73200, Note_on_c, 0, 63, 80
1, 73200, Note_on_c, 0, 66, 0
1, 73320, Note_on_c, 0, 64, 80
1, 73320, Note_on_c, 0, 63, 0
1, 73440, Note_on_c, 0, 66, 80
1, 73440, Note_on_c, 0, 64, 0
1, 73560, Note_on_c, 0, 63, 80
1, 73560, Note_on_c, 0, 66, 0
1, 73680, Note_on_c, 0, 59, 80
1, 73680, Note_on_c, 0, 63, 0
1, 73800, Note_on_c, 0, 61, 80
1, 73800, Note_on_c, 0, 59, 0
1, 73920, Note_on_c, 0, 63, 80
1, 73920, Note_on_c, 0, 61, 0
1, 74040, Note_on_c, 0, 59, 80
1, 74040, Note_on_c, 0, 63, 0
1, 74160, Note_on_c, 0, 54, 80
1, 74160, Note_on_c, 0, 59, 0
1, 74280, Note_on_c, 0, 55, 80
1, 74280, Note_on_c, 0, 54, 0
1, 74400, Note_on_c, 0, 57, 80
1, 74400, Note_on_c, 0, 55, 0
1, 74520, Note_on_c, 0, 54, 80
1, 74520, Note_on_c, 0, 57, 0
1, 74640, Note_on_c, 0, 51, 80
1, 74640, Note_on_c, 0, 54, 0
1, 74760, Note_on_c, 0, 54, 80
1, 74760, Note_on_c, 0, 51, 0
1, 74880, Note_on_c, 0, 55, 80
1, 74880, Note_on_c, 0, 54, 0
1, 75000, Note_on_c, 0, 59, 80
1, 75000, Note_on_c, 0, 55, 0
1, 75120, Note_on_c, 0, 64, 80
1, 75120, Note_on_c, 0, 59, 0
1, 75240, Note_on_c, 0, 63, 80
1, 75240, Note_on_c, 0, 64, 0
1, 75360, Note_on_c, 0, 64, 80
1, 75360, Note_on_c, 0, 63, 0
1, 75480, Note_on_c, 0, 67, 80
1, 75480, Note_on_c, 0, 64, 0
1, 75600, Note_on_c, 0, 71, 80
1, 75600, Note_on_c, 0, 67, 0
1, 75720, Note_on_c, 0, 69, 80
1, 75720, Note_on_c, 0, 71, 0
1, 75840, Note_on_c, 0, 67, 80
1, 75840, Note_on_c, 0, 69, 0
1, 75960, Note_on_c, 0, 71, 80
1, 75960, Note_on_c, 0, 67, 0
1, 76080, Note_on_c, 0, 76, 80
1, 76080, Note_on_c, 0, 71, 0
1, 76200, Note_on_c, 0, 76, 0
1, 76320, Note_on_c, 0, 64, 80
1, 76440, Note_on_c, 0, 69, 80
1, 76440, Note_on_c, 0, 64, 0
1, 76560, Note_on_c, 0, 72, 80
1, 76560, Note_on_c, 0, 69, 0
1, 76680, Note_on_c, 0, 71, 80
1, 76680, Note_on_c, 0, 72, 0
1, 76800, Note_on_c, 0, 69, 80
1, 76800, Note_on_c, 0, 71, 0
1, 76920, Note_on_c, 0, 72, 80
1, 76920, Note_on_c, 0, 69, 0
1, 77040, Note_on_c, 0, 76, 80
1, 77040, Note_on_c, 0, 72, 0
1, 77160, Note_on_c, 0, 74, 80
1, 77160, Note_on_c, 0, 76, 0
1, 77280, Note_on_c, 0, 72, 80
1, 77280, Note_on_c, 0, 74, 0
1, 77400, Note_on_c, 0, 76, 80
1, 77400, Note_on_c, 0, 72, 0
1, 77520, Note_on_c, 0, 81, 80
1, 77520, Note_on_c, 0, 76, 0
1, 77640, Note_on_c, 0, 81, 0
1, 77880, Note_on_c, 0, 72, 80
1, 78000, Note_on_c, 0, 71, 80
1, 78000, Note_on_c, 0, 72, 0
1, 78120, Note_on_c, 0, 78, 80
1, 78120, Note_on_c, 0, 71, 0
1, 78240, Note_on_c, 0, 79, 80
1, 78240, Note_on_c, 0, 78, 0
1, 78360, Note_on_c, 0, 75, 80
1, 78360, Note_on_c, 0, 79, 0
1, 78480, Note_on_c, 0, 76, 80
1, 78480, Note_on_c, 0, 75, 0
1, 78600, Note_on_c, 0, 67, 80
1, 78600, Note_on_c, 0, 76, 0
1, 78720, Note_on_c, 0, 66, 80
1, 78720, Note_on_c, 0, 67, 0
1, 78840, Note_on_c, 0, 76, 80
1, 78840, Note_on_c, 0, 66, 0
1, 78960, Note_on_c, 0, 75, 80
1, 78960, Note_on_c, 0, 76, 0
1, 79080, Note_on_c, 0, 81, 80
1, 79080, Note_on_c, 0, 75, 0
1, 79200, Note_on_c, 0, 81, 80
1, 79200, Note_on_c, 0, 81, 0
1, 79260, Note_on_c, 0, 79, 80
1, 79260, Note_on_c, 0, 81, 0
1, 79319, Note_on_c, 0, 79, 0
1, 79320, Note_on_c, 0, 78, 80
1, 79440, Note_on_c, 0, 76, 80
1, 79440, Note_on_c, 0, 78, 0
1, 79680, Note_on_c, 0, 76, 0
1, 79800, Note_on_c, 0, 69, 80
1, 79920, Note_on_c, 0, 67, 80
1, 79920, Note_on_c, 0, 69, 0
1, 80040, Note_on_c, 0, 66, 80
1, 80040, Note_on_c, 0, 67, 0
1, 80160, Note_on_c, 0, 66, 80
1, 80160, Note_on_c, 0, 66, 0
1, 80399, Note_on_c, 0, 66, 0
1, 80400, Note_on_c, 0, 64, 80
1, 80879, Note_on_c, 0, 64, 0
1, 80880, Note_on_c, 0, 76, 80
1, 81000, Note_on_c, 0, 74, 80
1, 81000, Note_on_c, 0, 76, 0
1, 81120, Note_on_c, 0, 72, 80
1, 81120, Note_on_c, 0, 74, 0
1, 81240, Note_on_c, 0, 71, 80
1, 81240, Note_on_c, 0, 72, 0
1, 81360, Note_on_c, 0, 69, 80
1, 81360, Note_on_c, 0, 71, 0
1, 81480, Note_on_c, 0, 67, 80
1, 81480, Note_on_c, 0, 69, 0
1, 81600, Note_on_c, 0, 66, 80
1, 81600, Note_on_c, 0, 67, 0
1, 81720, Note_on_c, 0, 70, 80
1, 81720, Note_on_c, 0, 66, 0
1, 81840, Note_on_c, 0, 73, 80
1, 81840, Note_on_c, 0, 70, 0
1, 81960, Note_on_c, 0, 76, 80
1, 81960, Note_on_c, 0, 73, 0
1, 82080, Note_on_c, 0, 74, 80
1, 82080, Note_on_c, 0, 76, 0
1, 82200, Note_on_c, 0, 66, 80
1, 82200, Note_on_c, 0, 74, 0
1, 82320, Note_on_c, 0, 74, 80
1, 82320, Note_on_c, 0, 66, 0
1, 82440, Note_on_c, 0, 72, 80
1, 82440, Note_on_c, 0, 74, 0
1, 82560, Note_on_c, 0, 71, 80
1, 82560, Note_on_c, 0, 72, 0
1, 82680, Note_on_c, 0, 69, 80
1, 82680, Note_on_c, 0, 71, 0
1, 82800, Note_on_c, 0, 68, 80
1, 82800, Note_on_c, 0, 69, 0
1, 82920, Note_on_c, 0, 66, 80
1, 82920, Note_on_c, 0, 68, 0
1, 83040, Note_on_c, 0, 64, 80
1, 83040, Note_on_c, 0, 66, 0
1, 83160, Note_on_c, 0, 68, 80
1, 83160, Note_on_c, 0, 64, 0
1, 83280, Note_on_c, 0, 71, 80
1, 83280, Note_on_c, 0, 68, 0
1, 83400, Note_on_c, 0, 74, 80
1, 83400, Note_on_c, 0, 71, 0
1, 83520, Note_on_c, 0, 72, 80
1, 83520, Note_on_c, 0, 74, 0
1, 83640, Note_on_c, 0, 64, 80
1, 83640, Note_on_c, 0, 72, 0
1, 83760, Note_on_c, 0, 72, 80
1, 83760, Note_on_c, 0, 64, 0
1, 83880, Note_on_c, 0, 71, 80
1, 83880, Note_on_c, 0, 72, 0
1, 84000, Note_on_c, 0, 69, 80
1, 84000, Note_on_c, 0, 71, 0
1, 84120, Note_on_c, 0, 72, 80
1, 84120, Note_on_c, 0, 69, 0
1, 84240, Note_on_c, 0, 76, 80
1, 84240, Note_on_c, 0, 72, 0
1, 84360, Note_on_c, 0, 74, 80
1, 84360, Note_on_c, 0, 76, 0
1, 84480, Note_on_c, 0, 72, 80
1, 84480, Note_on_c, 0, 74, 0
1, 84600, Note_on_c, 0, 76, 80
1, 84600, Note_on_c, 0, 72, 0
1, 84720, Note_on_c, 0, 81, 80
1, 84720, Note_on_c, 0, 76, 0
1, 84840, Note_on_c, 0, 79, 80
1, 84840, Note_on_c, 0, 81, 0
1, 84960, Note_on_c, 0, 78, 80
1, 84960, Note_on_c, 0, 79, 0
1, 85080, Note_on_c, 0, 81, 80
1, 85080, Note_on_c, 0, 78, 0
1, 85200, Note_on_c, 0, 84, 80
1, 85200, Note_on_c, 0, 81, 0
1, 85320, Note_on_c, 0, 83, 80
1, 85320, Note_on_c, 0, 84, 0
1, 85440, Note_on_c, 0, 81, 80
1, 85440, Note_on_c, 0, 83, 0
1, 85560, Note_on_c, 0, 79, 80
1, 85560, Note_on_c, 0, 81, 0
1, 85680, Note_on_c, 0, 78, 80
1, 85680, Note_on_c, 0, 79, 0
1, 85800, Note_on_c, 0, 76, 80
1, 85800, Note_on_c, 0, 78, 0
1, 85920, Note_on_c, 0, 74, 80
1, 85920, Note_on_c, 0, 76, 0
1, 86040, Note_on_c, 0, 78, 80
1, 86040, Note_on_c, 0, 74, 0
1, 86160, Note_on_c, 0, 81, 80
1, 86160, Note_on_c, 0, 78, 0
1, 86280, Note_on_c, 0, 84, 80
1, 86280, Note_on_c, 0, 81, 0
1, 86400, Note_on_c, 0, 83, 80
1, 86400, Note_on_c, 0, 84, 0
1, 86520, Note_on_c, 0, 86, 80
1, 86520, Note_on_c, 0, 83, 0
1, 86640, Note_on_c, 0, 79, 80
1, 86640, Note_on_c, 0, 86, 0
1, 86760, Note_on_c, 0, 81, 80
1, 86760, Note_on_c, 0, 79, 0
1, 86880, Note_on_c, 0, 83, 80
1, 86880, Note_on_c, 0, 81, 0
1, 87000, Note_on_c, 0, 79, 80
1, 87000, Note_on_c, 0, 83, 0
1, 87120, Note_on_c, 0, 74, 80
1, 87120, Note_on_c, 0, 79, 0
1, 87240, Note_on_c, 0, 76, 80
1, 87240, Note_on_c, 0, 74, 0
1, 87360, Note_on_c, 0, 77, 80
1, 87360, Note_on_c, 0, 76, 0
1, 87480, Note_on_c, 0, 74, 80
1, 87480, Note_on_c, 0, 77, 0
1, 87600, Note_on_c, 0, 71, 80
1, 87600, Note_on_c, 0, 74, 0
1, 87720, Note_on_c, 0, 74, 80
1, 87720, Note_on_c, 0, 71, 0
1, 87840, Note_on_c, 0, 76, 80
1, 87840, Note_on_c, 0, 74, 0
1, 87960, Note_on_c, 0, 79, 80
1, 87960, Note_on_c, 0, 76, 0
1, 88080, Note_on_c, 0, 72, 80
1, 88080, Note_on_c, 0, 79, 0
1, 88200, Note_on_c, 0, 74, 80
1, 88200, Note_on_c, 0, 72, 0
1, 88320, Note_on_c, 0, 76, 80
1, 88320, Note_on_c, 0, 74, 0
1, 88440, Note_on_c, 0, 72, 80
1, 88440, Note_on_c, 0, 76, 0
1, 88560, Note_on_c, 0, 69, 80
1, 88560, Note_on_c, 0, 72, 0
1, 88680, Note_on_c, 0, 71, 80
1, 88680, Note_on_c, 0, 69, 0
1, 88800, Note_on_c, 0, 72, 80
1, 88800, Note_on_c, 0, 71, 0
1, 88920, Note_on_c, 0, 69, 80
1, 88920, Note_on_c, 0, 72, 0
1, 89040, Note_on_c, 0, 64, 80
1, 89040, Note_on_c, 0, 69, 0
1, 89160, Note_on_c, 0, 67, 80
1, 89160, Note_on_c, 0, 64, 0
1, 89280, Note_on_c, 0, 66, 80
1, 89280, Note_on_c, 0, 67, 0
1, 89400, Note_on_c, 0, 69, 80
1, 89400, Note_on_c, 0, 66, 0
1, 89520, Note_on_c, 0, 62, 80
1, 89520, Note_on_c, 0, 69, 0
1, 89640, Note_on_c, 0, 64, 80
1, 89640, Note_on_c, 0, 62, 0
1, 89760, Note_on_c, 0, 66, 80
1, 89760, Note_on_c, 0, 64, 0
1, 89880, Note_on_c, 0, 62, 80
1, 89880, Note_on_c, 0, 66, 0
1, 90000, Note_on_c, 0, 57, 80
1, 90000, Note_on_c, 0, 62, 0
1, 90120, Note_on_c, 0, 59, 80
1, 90120, Note_on_c, 0, 57, 0
1, 90240, Note_on_c, 0, 60, 80
1, 90240, Note_on_c, 0, 59, 0
1, 90360, Note_on_c, 0, 57, 80
1, 90360, Note_on_c, 0, 60, 0
1, 90480, Note_on_c, 0, 54, 80
1, 90480, Note_on_c, 0, 57, 0
1, 90600, Note_on_c, 0, 57, 80
1, 90600, Note_on_c, 0, 54, 0
1, 90720, Note_on_c, 0, 59, 80
1, 90720, Note_on_c, 0, 57, 0
1, 90840, Note_on_c, 0, 62, 80
1, 90840, Note_on_c, 0, 59, 0
1, 90960, Note_on_c, 0, 55, 80
1, 90960, Note_on_c, 0, 62, 0
1, 91080, Note_on_c, 0, 57, 80
1, 91080, Note_on_c, 0, 55, 0
1, 91200, Note_on_c, 0, 59, 80
1, 91200, Note_on_c, 0, 57, 0
1, 91320, Note_on_c, 0, 55, 80
1, 91320, Note_on_c, 0, 59, 0
1, 91439, Note_on_c, 0, 55, 0
1, 91440, Note_on_c, 0, 59, 80
1, 91559, Note_on_c, 0, 59, 0
1, 91560, Note_on_c, 0, 62, 80
1, 91679, Note_on_c, 0, 62, 0
1, 91680, Note_on_c, 0, 67, 80
1, 92160, Note_on_c, 0, 67, 0
1, 92161, End_track
2, 0, Start_track
2, 0, Key_signature, 1, "major"
2, 0, Note_on_c, 0, 55, 80
2, 240, Note_on_c, 0, 50, 80
2, 240, Note_on_c, 0, 55, 0
2, 480, Note_on_c, 0, 47, 80
2, 480, Note_on_c, 0, 50, 0
2, 720, Note_on_c, 0, 43, 80
2, 720, Note_on_c, 0, 47, 0
2, 960, Note_on_c, 0, 43, 0
2, 1080, Note_on_c, 0, 55, 80
2, 1200, Note_on_c, 0, 54, 80
2, 1200, Note_on_c, 0, 55, 0
2, 1320, Note_on_c, 0, 52, 80
2, 1320, Note_on_c, 0, 54, 0
2, 1440, Note_on_c, 0, 54, 80
2, 1440, Note_on_c, 0, 52, 0
2, 1680, Note_on_c, 0, 50, 80
2, 1680, Note_on_c, 0, 54, 0
2, 1920, Note_on_c, 0, 45, 80
2, 1920, Note_on_c, 0, 50, 0
2, 2160, Note_on_c, 0, 42, 80
2, 2160, Note_on_c, 0, 45, 0
2, 2400, Note_on_c, 0, 42, 0
2, 2520, Note_on_c, 0, 54, 80
2, 2640, Note_on_c, 0, 52, 80
2, 2640, Note_on_c, 0, 54, 0
2, 2760, Note_on_c, 0, 50, 80
2, 2760, Note_on_c, 0, 52, 0
2, 2880, Note_on_c, 0, 52, 80
2, 2880, Note_on_c, 0, 50, 0
2, 3120, Note_on_c, 0, 47, 80
2, 3120, Note_on_c, 0, 52, 0
2, 3360, Note_on_c, 0, 43, 80
2, 3360, Note_on_c, 0, 47, 0
2, 3600, Note_on_c, 0, 40, 80
2, 3600, Note_on_c, 0, 43, 0
2, 3840, Note_on_c, 0, 40, 0
2, 3960, Note_on_c, 0, 52, 80
2, 4080, Note_on_c, 0, 50, 80
2, 4080, Note_on_c, 0, 52, 0
2, 4200, Note_on_c, 0, 49, 80
2, 4200, Note_on_c, 0, 50, 0
2, 4320, Note_on_c, 0, 50, 80
2, 4320, Note_on_c, 0, 49, 0
2, 4559, Note_on_c, 0, 50, 0
2, 4560, Note_on_c, 0, 45, 80
2, 4799, Note_on_c, 0, 45, 0
2, 4800, Note_on_c, 0, 42, 80
2, 5039, Note_on_c, 0, 42, 0
2, 5040, Note_on_c, 0, 38, 80
2, 5279, Note_on_c, 0, 38, 0
2, 5400, Note_on_c, 0, 48, 80
2, 5520, Note_on_c, 0, 47, 80
2, 5520, Note_on_c, 0, 48, 0
2, 5640, Note_on_c, 0, 45, 80
2, 5640, Note_on_c, 0, 47, 0
2, 5760, Note_on_c, 0, 47, 80
2, 5760, Note_on_c, 0, 45, 0
2, 5999, Note_on_c, 0, 47, 0
2, 6000, Note_on_c, 0, 50, 80
2, 6239, Note_on_c, 0, 50, 0
2, 6240, Note_on_c, 0, 55, 80
2, 6479, Note_on_c, 0, 55, 0
2, 6480, Note_on_c, 0, 59, 80
2, 6719, Note_on_c, 0, 59, 0
2, 6840, Note_on_c, 0, 55, 80
2, 6960, Note_on_c, 0, 53, 80
2, 6960, Note_on_c, 0, 55, 0
2, 7080, Note_on_c, 0, 55, 80
2, 7080, Note_on_c, 0, 53, 0
2, 7200, Note_on_c, 0, 48, 80
2, 7200, Note_on_c, 0, 55, 0
2, 7439, Note_on_c, 0, 48, 0
2, 7440, Note_on_c, 0, 52, 80
2, 7679, Note_on_c, 0, 52, 0
2, 7680, Note_on_c, 0, 57, 80
2, 7919, Note_on_c, 0, 57, 0
2, 7920, Note_on_c, 0, 60, 80
2, 8159, Note_on_c, 0, 60, 0
2, 8280, Note_on_c, 0, 57, 80
2, 8400, Note_on_c, 0, 55, 80
2, 8400, Note_on_c, 0, 57, 0
2, 8520, Note_on_c, 0, 57, 80
2, 8520, Note_on_c, 0, 55, 0
2, 8640, Note_on_c, 0, 50, 80
2, 8640, Note_on_c, 0, 57, 0
2, 8879, Note_on_c, 0, 50, 0
2, 8880, Note_on_c, 0, 54, 80
2, 9119, Note_on_c, 0, 54, 0
2, 9120, Note_on_c, 0, 57, 80
2, 9359, Note_on_c, 0, 57, 0
2, 9360, Note_on_c, 0, 62, 80
2, 9599, Note_on_c, 0, 62, 0
2, 9720, Note_on_c, 0, 50, 80
2, 9840, Note_on_c, 0, 48, 80
2, 9840, Note_on_c, 0, 50, 0
2, 9960, Note_on_c, 0, 50, 80
2, 9960, Note_on_c, 0, 48, 0
2, 10080, Note_on_c, 0, 43, 80
2, 10080, Note_on_c, 0, 50, 0
2, 10319, Note_on_c, 0, 43, 0
2, 10320, Note_on_c, 0, 55, 80
2, 10559, Note_on_c, 0, 55, 0
2, 10560, Note_on_c, 0, 47, 80
2, 10799, Note_on_c, 0, 47, 0
2, 10800, Note_on_c, 0, 50, 80
2, 11039, Note_on_c, 0, 50, 0
2, 11040, Note_on_c, 0, 43, 80
2, 11279, Note_on_c, 0, 43, 0
2, 11520, Note_on_c, 0, 55, 80
2, 11640, Note_on_c, 0, 59, 80
2, 11640, Note_on_c, 0, 55, 0
2, 11760, Note_on_c, 0, 62, 80
2, 11760, Note_on_c, 0, 59, 0
2, 11880, Note_on_c, 0, 60, 80
2, 11880, Note_on_c, 0, 62, 0
2, 12000, Note_on_c, 0, 59, 80
2, 12000, Note_on_c, 0, 60, 0
2, 12120, Note_on_c, 0, 62, 80
2, 12120, Note_on_c, 0, 59, 0
2, 12240, Note_on_c, 0, 67, 80
2, 12240, Note_on_c, 0, 62, 0
2, 12360, Note_on_c, 0, 66, 80
2, 12360, Note_on_c, 0, 67, 0
2, 12480, Note_on_c, 0, 64, 80
2, 12480, Note_on_c, 0, 66, 0
2, 12600, Note_on_c, 0, 67, 80
2, 12600, Note_on_c, 0, 64, 0
2, 12720, Note_on_c, 0, 71, 80
2, 12720, Note_on_c, 0, 67, 0
2, 12840, Note_on_c, 0, 71, 0
2, 12960, Note_on_c, 0, 54, 80
2, 13080, Note_on_c, 0, 57, 80
2, 13080, Note_on_c, 0, 54, 0
2, 13200, Note_on_c, 0, 61, 80
2, 13200, Note_on_c, 0, 57, 0
2, 13320, Note_on_c, 0, 59, 80
2, 13320, Note_on_c, 0, 61, 0
2, 13440, Note_on_c, 0, 57, 80
2, 13440, Note_on_c, 0, 59, 0
2, 13560, Note_on_c, 0, 61, 80
2, 13560, Note_on_c, 0, 57, 0
2, 13680, Note_on_c, 0, 66, 80
2, 13680, Note_on_c, 0, 61, 0
2, 13800, Note_on_c, 0, 64, 80
2, 13800, Note_on_c, 0, 66, 0
2, 13920, Note_on_c, 0, 62, 80
2, 13920, Note_on_c, 0, 64, 0
2, 14040, Note_on_c, 0, 66, 80
2, 14040, Note_on_c, 0, 62, 0
2, 14160, Note_on_c, 0, 69, 80
2, 14160, Note_on_c, 0, 66, 0
2, 14280, Note_on_c, 0, 69, 0
2, 14400, Note_on_c, 0, 52, 80
2, 14520, Note_on_c, 0, 55, 80
2, 14520, Note_on_c, 0, 52, 0
2, 14640, Note_on_c, 0, 59, 80
2, 14640, Note_on_c, 0, 55, 0
2, 14760, Note_on_c, 0, 57, 80
2, 14760, Note_on_c, 0, 59, 0
2, 14880, Note_on_c, 0, 55, 80
2, 14880, Note_on_c, 0, 57, 0
2, 15000, Note_on_c, 0, 59, 80
2, 15000, Note_on_c, 0, 55, 0
2, 15120, Note_on_c, 0, 64, 80
2, 15120, Note_on_c, 0, 59, 0
2, 15240, Note_on_c, 0, 62, 80
2, 15240, Note_on_c, 0, 64, 0
2, 15360, Note_on_c, 0, 61, 80
2, 15360, Note_on_c, 0, 62, 0
2, 15480, Note_on_c, 0, 64, 80
2, 15480, Note_on_c, 0, 61, 0
2, 15600, Note_on_c, 0, 67, 80
2, 15600, Note_on_c, 0, 64, 0
2, 15720, Note_on_c, 0, 66, 80
2, 15720, Note_on_c, 0, 67, 0
2, 15840, Note_on_c, 0, 64, 80
2, 15840, Note_on_c, 0, 66, 0
2, 15960, Note_on_c, 0, 67, 80
2, 15960, Note_on_c, 0, 64, 0
2, 16080, Note_on_c, 0, 73, 80
2, 16080, Note_on_c, 0, 67, 0
2, 16200, Note_on_c, 0, 71, 80
2, 16200, Note_on_c, 0, 73, 0
2, 16320, Note_on_c, 0, 69, 80
2, 16320, Note_on_c, 0, 71, 0
2, 16440, Note_on_c, 0, 73, 80
2, 16440, Note_on_c, 0, 69, 0
2, 16560, Note_on_c, 0, 76, 80
2, 16560, Note_on_c, 0, 73, 0
2, 16680, Note_on_c, 0, 74, 80
2, 16680, Note_on_c, 0, 76, 0
2, 16800, Note_on_c, 0, 73, 80
2, 16800, Note_on_c, 0, 74, 0
2, 16920, Note_on_c, 0, 76, 80
2, 16920, Note_on_c, 0, 73, 0
2, 17040, Note_on_c, 0, 81, 80
2, 17040, Note_on_c, 0, 76, 0
2, 17160, Note_on_c, 0, 79, 80
2, 17160, Note_on_c, 0, 81, 0
2, 17280, Note_on_c, 0, 78, 80
2, 17280, Note_on_c, 0, 79, 0
2, 17400, Note_on_c, 0, 81, 80
2, 17400, Note_on_c, 0, 78, 0
2, 17520, Note_on_c, 0, 74, 80
2, 17520, Note_on_c, 0, 81, 0
2, 17640, Note_on_c, 0, 76, 80
2, 17640, Note_on_c, 0, 74, 0
2, 17760, Note_on_c, 0, 78, 80
2, 17760, Note_on_c, 0, 76, 0
2, 17880, Note_on_c, 0, 74, 80
2, 17880, Note_on_c, 0, 78, 0
2, 18000, Note_on_c, 0, 69, 80
2, 18000, Note_on_c, 0, 74, 0
2, 18120, Note_on_c, 0, 71, 80
2, 18120, Note_on_c, 0, 69, 0
2, 18240, Note_on_c, 0, 72, 80
2, 18240, Note_on_c, 0, 71, 0
2, 18360, Note_on_c, 0, 69, 80
2, 18360, Note_on_c, 0, 72, 0
2, 18480, Note_on_c, 0, 66, 80
2, 18480, Note_on_c, 0, 69, 0
2, 18600, Note_on_c, 0, 69, 80
2, 18600, Note_on_c, 0, 66, 0
2, 18720, Note_on_c, 0, 71, 80
2, 18720, Note_on_c, 0, 69, 0
2, 18840, Note_on_c, 0, 74, 80
2, 18840, Note_on_c, 0, 71, 0
2, 18960, Note_on_c, 0, 67, 80
2, 18960, Note_on_c, 0, 74, 0
2, 19080, Note_on_c, 0, 69, 80
2, 19080, Note_on_c, 0, 67, 0
2, 19200, Note_on_c, 0, 71, 80
2, 19200, Note_on_c, 0, 69, 0
2, 19320, Note_on_c, 0, 67, 80
2, 19320, Note_on_c, 0, 71, 0
2, 19440, Note_on_c, 0, 64, 80
2, 19440, Note_on_c, 0, 67, 0
2, 19560, Note_on_c, 0, 66, 80
2, 19560, Note_on_c, 0, 64, 0
2, 19680, Note_on_c, 0, 67, 80
2, 19680, Note_on_c, 0, 66, 0
2, 19800, Note_on_c, 0, 64, 80
2, 19800, Note_on_c, 0, 67, 0
2, 19920, Note_on_c, 0, 59, 80
2, 19920, Note_on_c, 0, 64, 0
2, 20040, Note_on_c, 0, 62, 80
2, 20040, Note_on_c, 0, 59, 0
2, 20160, Note_on_c, 0, 61, 80
2, 20160, Note_on_c, 0, 62, 0
2, 20280, Note_on_c, 0, 64, 80
2, 20280, Note_on_c, 0, 61, 0
2, 20400, Note_on_c, 0, 57, 80
2, 20400, Note_on_c, 0, 64, 0
2, 20520, Note_on_c, 0, 59, 80
2, 20520, Note_on_c, 0, 57, 0
2, 20640, Note_on_c, 0, 61, 80
2, 20640, Note_on_c, 0, 59, 0
2, 20760, Note_on_c, 0, 57, 80
2, 20760, Note_on_c, 0, 61, 0
2, 20880, Note_on_c, 0, 52, 80
2, 20880, Note_on_c, 0, 57, 0
2, 21000, Note_on_c, 0, 54, 80
2, 21000, Note_on_c, 0, 52, 0
2, 21120, Note_on_c, 0, 55, 80
2, 21120, Note_on_c, 0, 54, 0
2, 21240, Note_on_c, 0, 52, 80
2, 21240, Note_on_c, 0, 55, 0
2, 21360, Note_on_c, 0, 49, 80
2, 21360, Note_on_c, 0, 52, 0
2, 21480, Note_on_c, 0, 52, 80
2, 21480, Note_on_c, 0, 49, 0
2, 21600, Note_on_c, 0, 54, 80
2, 21600, Note_on_c, 0, 52, 0
2, 21720, Note_on_c, 0, 57, 80
2, 21720, Note_on_c, 0, 54, 0
2, 21840, Note_on_c, 0, 50, 80
2, 21840, Note_on_c, 0, 57, 0
2, 21960, Note_on_c, 0, 52, 80
2, 21960, Note_on_c, 0, 50, 0
2, 22080, Note_on_c, 0, 54, 80
2, 22080, Note_on_c, 0, 52, 0
2, 22200, Note_on_c, 0, 50, 80
2, 22200, Note_on_c, 0, 54, 0
2, 22319, Note_on_c, 0, 50, 0
2, 22320, Note_on_c, 0, 54, 80
2, 22439, Note_on_c, 0, 54, 0
2, 22440, Note_on_c, 0, 57, 80
2, 22559, Note_on_c, 0, 57, 0
2, 22560, Note_on_c, 0, 62, 80
2, 23040, Key_signature, 1, "major"
2, 23040, Note_on_c, 0, 55, 80
2, 23040, Note_on_c, 0, 62, 0
2, 23280, Note_on_c, 0, 50, 80
2, 23280, Note_on_c, 0, 55, 0
2, 23520, Note_on_c, 0, 47, 80
2, 23520, Note_on_c, 0, 50, 0
2, 23760, Note_on_c, 0, 43, 80
2, 23760, Note_on_c, 0, 47, 0
2, 24000, Note_on_c, 0, 43, 0
2, 24120, Note_on_c, 0, 55, 80
2, 24240, Note_on_c, 0, 54, 80
2, 24240, Note_on_c, 0, 55, 0
2, 24360, Note_on_c, 0, 52, 80
2, 24360, Note_on_c, 0, 54, 0
2, 24480, Note_on_c, 0, 54, 80
2, 24480, Note_on_c, 0, 52, 0
2, 24720, Note_on_c, 0, 50, 80
2, 24720, Note_on_c, 0, 54, 0
2, 24960, Note_on_c, 0, 45, 80
2, 24960, Note_on_c, 0, 50, 0
2, 25200, Note_on_c, 0, 42, 80
2, 25200, Note_on_c, 0, 45, 0
2, 25440, Note_on_c, 0, 42, 0
2, 25560, Note_on_c, 0, 54, 80
2, 25680, Note_on_c, 0, 52, 80
2, 25680, Note_on_c, 0, 54, 0
2, 25800, Note_on_c, 0, 50, 80
2, 25800, Note_on_c, 0, 52, 0
2, 25920, Note_on_c, 0, 52, 80
2, 25920, Note_on_c, 0, 50, 0
2, 26160, Note_on_c, 0, 47, 80
2, 26160, Note_on_c, 0, 52, 0
2, 26400, Note_on_c, 0, 43, 80
2, 26400, Note_on_c, 0, 47, 0
2, 26640, Note_on_c, 0, 40, 80
2, 26640, Note_on_c, 0, 43, 0
2, 26880, Note_on_c, 0, 40, 0
2, 27000, Note_on_c, 0, 52, 80
2, 27120, Note_on_c, 0, 50, 80
2, 27120, Note_on_c, 0, 52, 0
2, 27240, Note_on_c, 0, 49, 80
2, 27240, Note_on_c, 0, 50, 0
2, 27360, Note_on_c, 0, 50, 80
2, 27360, Note_on_c, 0, 49, 0
2, 27599, Note_on_c, 0, 50, 0
2, 27600, Note_on_c, 0, 45, 80
2, 27839, Note_on_c, 0, 45, 0
2, 27840, Note_on_c, 0, 42, 80
2, 28079, Note_on_c, 0, 42, 0
2, 28080, Note_on_c, 0, 38, 80
2, 28319, Note_on_c, 0, 38, 0
2, 28440, Note_on_c, 0, 48, 80
2, 28560, Note_on_c, 0, 47, 80
2, 28560, Note_on_c, 0, 48, 0
2, 28680, Note_on_c, 0, 45, 80
2, 28680, Note_on_c, 0, 47, 0
2, 28800, Note_on_c, 0, 47, 80
2, 28800, Note_on_c, 0, 45, 0
2, 29039, Note_on_c, 0, 47, 0
2, 29040, Note_on_c, 0, 50, 80
2, 29279, Note_on_c, 0, 50, 0
2, 29280, Note_on_c, 0, 55, 80
2, 29519, Note_on_c, 0, 55, 0
2, 29520, Note_on_c, 0, 59, 80
2, 29759, Note_on_c, 0, 59, 0
2, 29880, Note_on_c, 0, 55, 80
2, 30000, Note_on_c, 0, 53, 80
2, 30000, Note_on_c, 0, 55, 0
2, 30120, Note_on_c, 0, 55, 80
2, 30120, Note_on_c, 0, 53, 0
2, 30240, Note_on_c, 0, 48, 80
2, 30240, Note_on_c, 0, 55, 0
2, 30479, Note_on_c, 0, 48, 0
2, 30480, Note_on_c, 0, 52, 80
2, 30719, Note_on_c, 0, 52, 0
2, 30720, Note_on_c, 0, 57, 80
2, 30959, Note_on_c, 0, 57, 0
2, 30960, Note_on_c, 0, 60, 80
2, 31199, Note_on_c, 0, 60, 0
2, 31320, Note_on_c, 0, 57, 80
2, 31440, Note_on_c, 0, 55, 80
2, 31440, Note_on_c, 0, 57, 0
2, 31560, Note_on_c, 0, 57, 80
2, 31560, Note_on_c, 0, 55, 0
2, 31680, Note_on_c, 0, 50, 80
2, 31680, Note_on_c, 0, 57, 0
2, 31919, Note_on_c, 0, 50, 0
2, 31920, Note_on_c, 0, 54, 80
2, 32159, Note_on_c, 0, 54, 0
2, 32160, Note_on_c, 0, 57, 80
2, 32399, Note_on_c, 0, 57, 0
2, 32400, Note_on_c, 0, 62, 80
2, 32639, Note_on_c, 0, 62, 0
2, 32760, Note_on_c, 0, 50, 80
2, 32880, Note_on_c, 0, 48, 80
2, 32880, Note_on_c, 0, 50, 0
2, 33000, Note_on_c, 0, 50, 80
2, 33000, Note_on_c, 0, 48, 0
2, 33120, Note_on_c, 0, 43, 80
2, 33120, Note_on_c, 0, 50, 0
2, 33359, Note_on_c, 0, 43, 0
2, 33360, Note_on_c, 0, 55, 80
2, 33599, Note_on_c, 0, 55, 0
2, 33600, Note_on_c, 0, 47, 80
2, 33839, Note_on_c, 0, 47, 0
2, 33840, Note_on_c, 0, 50, 80
2, 34079, Note_on_c, 0, 50, 0
2, 34080, Note_on_c, 0, 43, 80
2, 34319, Note_on_c, 0, 43, 0
2, 34560, Note_on_c, 0, 55, 80
2, 34680, Note_on_c, 0, 59, 80
2, 34680, Note_on_c, 0, 55, 0
2, 34800, Note_on_c, 0, 62, 80
2, 34800, Note_on_c, 0, 59, 0
2, 34920, Note_on_c, 0, 60, 80
2, 34920, Note_on_c, 0, 62, 0
2, 35040, Note_on_c, 0, 59, 80
2, 35040, Note_on_c, 0, 60, 0
2, 35160, Note_on_c, 0, 62, 80
2, 35160, Note_on_c, 0, 59, 0
2, 35280, Note_on_c, 0, 67, 80
2, 35280, Note_on_c, 0, 62, 0
2, 35400, Note_on_c, 0, 66, 80
2, 35400, Note_on_c, 0, 67, 0
2, 35520, Note_on_c, 0, 64, 80
2, 35520, Note_on_c, 0, 66, 0
2, 35640, Note_on_c, 0, 67, 80
2, 35640, Note_on_c, 0, 64, 0
2, 35760, Note_on_c, 0, 71, 80
2, 35760, Note_on_c, 0, 67, 0
2, 35880, Note_on_c, 0, 71, 0
2, 36000, Note_on_c, 0, 54, 80
2, 36120, Note_on_c, 0, 57, 80
2, 36120, Note_on_c, 0, 54, 0
2, 36240, Note_on_c, 0, 61, 80
2, 36240, Note_on_c, 0, 57, 0
2, 36360, Note_on_c, 0, 59, 80
2, 36360, Note_on_c, 0, 61, 0
2, 36480, Note_on_c, 0, 57, 80
2, 36480, Note_on_c, 0, 59, 0
2, 36600, Note_on_c, 0, 61, 80
2, 36600, Note_on_c, 0, 57, 0
2, 36720, Note_on_c, 0, 66, 80
2, 36720, Note_on_c, 0, 61, 0
2, 36840, Note_on_c, 0, 64, 80
2, 36840, Note_on_c, 0, 66, 0
2, 36960, Note_on_c, 0, 62, 80
2, 36960, Note_on_c, 0, 64, 0
2, 37080, Note_on_c, 0, 66, 80
2, 37080, Note_on_c, 0, 62, 0
2, 37200, Note_on_c, 0, 69, 80
2, 37200, Note_on_c, 0, 66, 0
2, 37320, Note_on_c, 0, 69, 0
2, 37440, Note_on_c, 0, 52, 80
2, 37560, Note_on_c, 0, 55, 80
2, 37560, Note_on_c, 0, 52, 0
2, 37680, Note_on_c, 0, 59, 80
2, 37680, Note_on_c, 0, 55, 0
2, 37800, Note_on_c, 0, 57, 80
2, 37800, Note_on_c, 0, 59, 0
2, 37920, Note_on_c, 0, 55, 80
2, 37920, Note_on_c, 0, 57, 0
2, 38040, Note_on_c, 0, 59, 80
2, 38040, Note_on_c, 0, 55, 0
2, 38160, Note_on_c, 0, 64, 80
2, 38160, Note_on_c, 0, 59, 0
2, 38280, Note_on_c, 0, 62, 80
2, 38280, Note_on_c, 0, 64, 0
2, 38400, Note_on_c, 0, 61, 80
2, 38400, Note_on_c, 0, 62, 0
2, 38520, Note_on_c, 0, 64, 80
2, 38520, Note_on_c, 0, 61, 0
2, 38640, Note_on_c, 0, 67, 80
2, 38640, Note_on_c, 0, 64, 0
2, 38760, Note_on_c, 0, 66, 80
2, 38760, Note_on_c, 0, 67, 0
2, 38880, Note_on_c, 0, 64, 80
2, 38880, Note_on_c, 0, 66, 0
2, 39000, Note_on_c, 0, 67, 80
2, 39000, Note_on_c, 0, 64, 0
2, 39120, Note_on_c, 0, 73, 80
2, 39120, Note_on_c, 0, 67, 0
2, 39240, Note_on_c, 0, 71, 80
2, 39240, Note_on_c, 0, 73, 0
2, 39360, Note_on_c, 0, 69, 80
2, 39360, Note_on_c, 0, 71, 0
2, 39480, Note_on_c, 0, 73, 80
2, 39480, Note_on_c, 0, 69, 0
2, 39600, Note_on_c, 0, 76, 80
2, 39600, Note_on_c, 0, 73, 0
2, 39720, Note_on_c, 0, 74, 80
2, 39720, Note_on_c, 0, 76, 0
2, 39840, Note_on_c, 0, 73, 80
2, 39840, Note_on_c, 0, 74, 0
2, 39960, Note_on_c, 0, 76, 80
2, 39960, Note_on_c, 0, 73, 0
2, 40080, Note_on_c, 0, 81, 80
2, 40080, Note_on_c, 0, 76, 0
2, 40200, Note_on_c, 0, 79, 80
2, 40200, Note_on_c, 0, 81, 0
2, 40320, Note_on_c, 0, 78, 80
2, 40320, Note_on_c, 0, 79, 0
2, 40440, Note_on_c, 0, 81, 80
2, 40440, Note_on_c, 0, 78, 0
2, 40560, Note_on_c, 0, 74, 80
2, 40560, Note_on_c, 0, 81, 0
2, 40680, Note_on_c, 0, 76, 80
2, 40680, Note_on_c, 0, 74, 0
2, 40800, Note_on_c, 0, 78, 80
2, 40800, Note_on_c, 0, 76, 0
2, 40920, Note_on_c, 0, 74, 80
2, 40920, Note_on_c, 0, 78, 0
2, 41040, Note_on_c, 0, 69, 80
2, 41040, Note_on_c, 0, 74, 0
2, 41160, Note_on_c, 0, 71, 80
2, 41160, Note_on_c, 0, 69, 0
2, 41280, Note_on_c, 0, 72, 80
2, 41280, Note_on_c, 0, 71, 0
2, 41400, Note_on_c, 0, 69, 80
2, 41400, Note_on_c, 0, 72, 0
2, 41520, Note_on_c, 0, 66, 80
2, 41520, Note_on_c, 0, 69, 0
2, 41640, Note_on_c, 0, 69, 80
2, 41640, Note_on_c, 0, 66, 0
2, 41760, Note_on_c, 0, 71, 80
2, 41760, Note_on_c, 0, 69, 0
2, 41880, Note_on_c, 0, 74, 80
2, 41880, Note_on_c, 0, 71, 0
2, 42000, Note_on_c, 0, 67, 80
2, 42000, Note_on_c, 0, 74, 0
2, 42120, Note_on_c, 0, 69, 80
2, 42120, Note_on_c, 0, 67, 0
2, 42240, Note_on_c, 0, 71, 80
2, 42240, Note_on_c, 0, 69, 0
2, 42360, Note_on_c, 0, 67, 80
2, 42360, Note_on_c, 0, 71, 0
2, 42480, Note_on_c, 0, 64, 80
2, 42480, Note_on_c, 0, 67, 0
2, 42600, Note_on_c, 0, 66, 80
2, 42600, Note_on_c, 0, 64, 0
2, 42720, Note_on_c, 0, 67, 80
2, 42720, Note_on_c, 0, 66, 0
2, 42840, Note_on_c, 0, 64, 80
2, 42840, Note_on_c, 0, 67, 0
2, 42960, Note_on_c, 0, 59, 80
2, 42960, Note_on_c, 0, 64, 0
2, 43080, Note_on_c, 0, 62, 80
2, 43080, Note_on_c, 0, 59, 0
2, 43200, Note_on_c, 0, 61, 80
2, 43200, Note_on_c, 0, 62, 0
2, 43320, Note_on_c, 0, 64, 80
2, 43320, Note_on_c, 0, 61, 0
2, 43440, Note_on_c, 0, 57, 80
2, 43440, Note_on_c, 0, 64, 0
2, 43560, Note_on_c, 0, 59, 80
2, 43560, Note_on_c, 0, 57, 0
2, 43680, Note_on_c, 0, 61, 80
2, 43680, Note_on_c, 0, 59, 0
2, 43800, Note_on_c, 0, 57, 80
2, 43800, Note_on_c, 0, 61, 0
2, 43920, Note_on_c, 0, 52, 80
2, 43920, Note_on_c, 0, 57, 0
2, 44040, Note_on_c, 0, 54, 80
2, 44040, Note_on_c, 0, 52, 0
2, 44160, Note_on_c, 0, 55, 80
2, 44160, Note_on_c, 0, 54, 0
2, 44280, Note_on_c, 0, 52, 80
2, 44280, Note_on_c, 0, 55, 0
2, 44400, Note_on_c, 0, 49, 80
2, 44400, Note_on_c, 0, 52, 0
2, 44520, Note_on_c, 0, 52, 80
2, 44520, Note_on_c, 0, 49, 0
2, 44640, Note_on_c, 0, 54, 80
2, 44640, Note_on_c, 0, 52, 0
2, 44760, Note_on_c, 0, 57, 80
2, 44760, Note_on_c, 0, 54, 0
2, 44880, Note_on_c, 0, 50, 80
2, 44880, Note_on_c, 0, 57, 0
2, 45000, Note_on_c, 0, 52, 80
2, 45000, Note_on_c, 0, 50, 0
2, 45120, Note_on_c, 0, 54, 80
2, 45120, Note_on_c, 0, 52, 0
2, 45240, Note_on_c, 0, 50, 80
2, 45240, Note_on_c, 0, 54, 0
2, 45359, Note_on_c, 0, 50, 0
2, 45360, Note_on_c, 0, 54, 80
2, 45479, Note_on_c, 0, 54, 0
2, 45480, Note_on_c, 0, 57, 80
2, 45599, Note_on_c, 0, 57, 0
2, 45600, Note_on_c, 0, 62, 80
2, 46080, Note_on_c, 0, 62, 80
2, 46080, Note_on_c, 0, 62, 0
2, 46319, Note_on_c, 0, 62, 0
2, 46320, Note_on_c, 0, 57, 80
2, 46559, Note_on_c, 0, 57, 0
2, 46560, Note_on_c, 0, 54, 80
2, 46799, Note_on_c, 0, 54, 0
2, 46800, Note_on_c, 0, 50, 80
2, 47039, Note_on_c, 0, 50, 0
2, 47160, Note_on_c, 0, 60, 80
2, 47280, Note_on_c, 0, 59, 80
2, 47280, Note_on_c, 0, 60, 0
2, 47400, Note_on_c, 0, 57, 80
2, 47400, Note_on_c, 0, 59, 0
2, 47520, Note_on_c, 0, 55, 80
2, 47520, Note_on_c, 0, 57, 0
2, 47759, Note_on_c, 0, 55, 0
2, 47760, Note_on_c, 0, 50, 80
2, 47999, Note_on_c, 0, 50, 0
2, 48000, Note_on_c, 0, 47, 80
2, 48239, Note_on_c, 0, 47, 0
2, 48240, Note_on_c, 0, 43, 80
2, 48479, Note_on_c, 0, 43, 0
2, 48600, Note_on_c, 0, 53, 80
2, 48720, Note_on_c, 0, 52, 80
2, 48720, Note_on_c, 0, 53, 0
2, 48840, Note_on_c, 0, 50, 80
2, 48840, Note_on_c, 0, 52, 0
2, 48960, Note_on_c, 0, 48, 80
2, 48960, Note_on_c, 0, 50, 0
2, 49080, Note_on_c, 0, 52, 80
2, 49080, Note_on_c, 0, 48, 0
2, 49200, Note_on_c, 0, 57, 80
2, 49200, Note_on_c, 0, 52, 0
2, 49320, Note_on_c, 0, 55, 80
2, 49320, Note_on_c, 0, 57, 0
2, 49440, Note_on_c, 0, 54, 80
2, 49440, Note_on_c, 0, 55, 0
2, 49560, Note_on_c, 0, 57, 80
2, 49560, Note_on_c, 0, 54, 0
2, 49680, Note_on_c, 0, 60, 80
2, 49680, Note_on_c, 0, 57, 0
2, 49800, Note_on_c, 0, 59, 80
2, 49800, Note_on_c, 0, 60, 0
2, 49920, Note_on_c, 0, 57, 80
2, 49920, Note_on_c, 0, 59, 0
2, 50040, Note_on_c, 0, 60, 80
2, 50040, Note_on_c, 0, 57, 0
2, 50160, Note_on_c, 0, 63, 80
2, 50160, Note_on_c, 0, 60, 0
2, 50280, Note_on_c, 0, 61, 80
2, 50280, Note_on_c, 0, 63, 0
2, 50400, Note_on_c, 0, 59, 80
2, 50400, Note_on_c, 0, 61, 0
2, 50520, Note_on_c, 0, 63, 80
2, 50520, Note_on_c, 0, 59, 0
2, 50640, Note_on_c, 0, 66, 80
2, 50640, Note_on_c, 0, 63, 0
2, 50760, Note_on_c, 0, 64, 80
2, 50760, Note_on_c, 0, 66, 0
2, 50880, Note_on_c, 0, 63, 80
2, 50880, Note_on_c, 0, 64, 0
2, 51000, Note_on_c, 0, 66, 80
2, 51000, Note_on_c, 0, 63, 0
2, 51120, Note_on_c, 0, 69, 80
2, 51120, Note_on_c, 0, 66, 0
2, 51240, Note_on_c, 0, 67, 80
2, 51240, Note_on_c, 0, 69, 0
2, 51360, Note_on_c, 0, 66, 80
2, 51360, Note_on_c, 0, 67, 0
2, 51480, Note_on_c, 0, 69, 80
2, 51480, Note_on_c, 0, 66, 0
2, 51600, Note_on_c, 0, 72, 80
2, 51600, Note_on_c, 0, 69, 0
2, 51720, Note_on_c, 0, 69, 80
2, 51720, Note_on_c, 0, 72, 0
2, 51840, Note_on_c, 0, 71, 80
2, 51840, Note_on_c, 0, 69, 0
2, 51960, Note_on_c, 0, 67, 80
2, 51960, Note_on_c, 0, 71, 0
2, 52080, Note_on_c, 0, 64, 80
2, 52080, Note_on_c, 0, 67, 0
2, 52200, Note_on_c, 0, 66, 80
2, 52200, Note_on_c, 0, 64, 0
2, 52320, Note_on_c, 0, 67, 80
2, 52320, Note_on_c, 0, 66, 0
2, 52440, Note_on_c, 0, 64, 80
2, 52440, Note_on_c, 0, 67, 0
2, 52560, Note_on_c, 0, 59, 80
2, 52560, Note_on_c, 0, 64, 0
2, 52680, Note_on_c, 0, 63, 80
2, 52680, Note_on_c, 0, 59, 0
2, 52800, Note_on_c, 0, 64, 80
2, 52800, Note_on_c, 0, 63, 0
2, 52920, Note_on_c, 0, 59, 80
2, 52920, Note_on_c, 0, 64, 0
2, 53040, Note_on_c, 0, 55, 80
2, 53040, Note_on_c, 0, 59, 0
2, 53160, Note_on_c, 0, 59, 80
2, 53160, Note_on_c, 0, 55, 0
2, 53280, Note_on_c, 0, 60, 80
2, 53280, Note_on_c, 0, 59, 0
2, 53400, Note_on_c, 0, 57, 80
2, 53400, Note_on_c, 0, 60, 0
2, 53520, Note_on_c, 0, 52, 80
2, 53520, Note_on_c, 0, 57, 0
2, 53640, Note_on_c, 0, 56, 80
2, 53640, Note_on_c, 0, 52, 0
2, 53760, Note_on_c, 0, 57, 80
2, 53760, Note_on_c, 0, 56, 0
2, 53880, Note_on_c, 0, 52, 80
2, 53880, Note_on_c, 0, 57, 0
2, 54000, Note_on_c, 0, 48, 80
2, 54000, Note_on_c, 0, 52, 0
2, 54120, Note_on_c, 0, 50, 80
2, 54120, Note_on_c, 0, 48, 0
2, 54240, Note_on_c, 0, 52, 80
2, 54240, Note_on_c, 0, 50, 0
2, 54360, Note_on_c, 0, 48, 80
2, 54360, Note_on_c, 0, 52, 0
2, 54480, Note_on_c, 0, 45, 80
2, 54480, Note_on_c, 0, 48, 0
2, 54600, Note_on_c, 0, 48, 80
2, 54600, Note_on_c, 0, 45, 0
2, 54720, Note_on_c, 0, 39, 80
2, 54720, Note_on_c, 0, 48, 0
2, 54959, Note_on_c, 0, 39, 0
2, 54960, Note_on_c, 0, 51, 80
2, 55199, Note_on_c, 0, 51, 0
2, 55200, Note_on_c, 0, 52, 80
2, 55439, Note_on_c, 0, 52, 0
2, 55440, Note_on_c, 0, 48, 80
2, 55679, Note_on_c, 0, 48, 0
2, 55680, Note_on_c, 0, 45, 80
2, 55919, Note_on_c, 0, 45, 0
2, 55920, Note_on_c, 0, 47, 80
2, 56159, Note_on_c, 0, 47, 0
2, 56160, Note_on_c, 0, 40, 80
2, 56399, Note_on_c, 0, 40, 0
2, 56400, Note_on_c, 0, 43, 80
2, 56640, Note_on_c, 0, 47, 80
2, 56640, Note_on_c, 0, 43, 0
2, 56879, Note_on_c, 0, 47, 0
2, 56880, Note_on_c, 0, 52, 80
2, 57119, Note_on_c, 0, 52, 0
2, 57240, Note_on_c, 0, 50, 80
2, 57360, Note_on_c, 0, 48, 80
2, 57360, Note_on_c, 0, 50, 0
2, 57480, Note_on_c, 0, 47, 80
2, 57480, Note_on_c, 0, 48, 0
2, 57600, Note_on_c, 0, 48, 80
2, 57600, Note_on_c, 0, 47, 0
2, 57720, Note_on_c, 0, 52, 80
2, 57720, Note_on_c, 0, 48, 0
2, 57840, Note_on_c, 0, 55, 80
2, 57840, Note_on_c, 0, 52, 0
2, 57960, Note_on_c, 0, 53, 80
2, 57960, Note_on_c, 0, 55, 0
2, 58080, Note_on_c, 0, 52, 80
2, 58080, Note_on_c, 0, 53, 0
2, 58200, Note_on_c, 0, 55, 80
2, 58200, Note_on_c, 0, 52, 0
2, 58320, Note_on_c, 0, 60, 80
2, 58320, Note_on_c, 0, 55, 0
2, 58440, Note_on_c, 0, 59, 80
2, 58440, Note_on_c, 0, 60, 0
2, 58560, Note_on_c, 0, 58, 80
2, 58560, Note_on_c, 0, 59, 0
2, 58680, Note_on_c, 0, 61, 80
2, 58680, Note_on_c, 0, 58, 0
2, 58800, Note_on_c, 0, 66, 80
2, 58800, Note_on_c, 0, 61, 0
2, 58920, Note_on_c, 0, 66, 0
2, 59040, Note_on_c, 0, 47, 80
2, 59160, Note_on_c, 0, 50, 80
2, 59160, Note_on_c, 0, 47, 0
2, 59280, Note_on_c, 0, 54, 80
2, 59280, Note_on_c, 0, 50, 0
2, 59400, Note_on_c, 0, 52, 80
2, 59400, Note_on_c, 0, 54, 0
2, 59520, Note_on_c, 0, 50, 80
2, 59520, Note_on_c, 0, 52, 0
2, 59640, Note_on_c, 0, 54, 80
2, 59640, Note_on_c, 0, 50, 0
2, 59760, Note_on_c, 0, 59, 80
2, 59760, Note_on_c, 0, 54, 0
2, 59880, Note_on_c, 0, 57, 80
2, 59880, Note_on_c, 0, 59, 0
2, 60000, Note_on_c, 0, 56, 80
2, 60000, Note_on_c, 0, 57, 0
2, 60120, Note_on_c, 0, 59, 80
2, 60120, Note_on_c, 0, 56, 0
2, 60240, Note_on_c, 0, 64, 80
2, 60240, Note_on_c, 0, 59, 0
2, 60360, Note_on_c, 0, 64, 0
2, 60480, Note_on_c, 0, 45, 80
2, 60600, Note_on_c, 0, 48, 80
2, 60600, Note_on_c, 0, 45, 0
2, 60720, Note_on_c, 0, 52, 80
2, 60720, Note_on_c, 0, 48, 0
2, 60840, Note_on_c, 0, 50, 80
2, 60840, Note_on_c, 0, 52, 0
2, 60960, Note_on_c, 0, 48, 80
2, 60960, Note_on_c, 0, 50, 0
2, 61080, Note_on_c, 0, 45, 80
2, 61080, Note_on_c, 0, 48, 0
2, 61200, Note_on_c, 0, 48, 80
2, 61200, Note_on_c, 0, 45, 0
2, 61320, Note_on_c, 0, 52, 80
2, 61320, Note_on_c, 0, 48, 0
2, 61440, Note_on_c, 0, 57, 80
2, 61440, Note_on_c, 0, 52, 0
2, 61560, Note_on_c, 0, 60, 80
2, 61560, Note_on_c, 0, 57, 0
2, 61680, Note_on_c, 0, 54, 80
2, 61680, Note_on_c, 0, 60, 0
2, 61800, Note_on_c, 0, 55, 80
2, 61800, Note_on_c, 0, 54, 0
2, 61920, Note_on_c, 0, 57, 80
2, 61920, Note_on_c, 0, 55, 0
2, 62040, Note_on_c, 0, 54, 80
2, 62040, Note_on_c, 0, 57, 0
2, 62160, Note_on_c, 0, 50, 80
2, 62160, Note_on_c, 0, 54, 0
2, 62280, Note_on_c, 0, 52, 80
2, 62280, Note_on_c, 0, 50, 0
2, 62400, Note_on_c, 0, 54, 80
2, 62400, Note_on_c, 0, 52, 0
2, 62520, Note_on_c, 0, 50, 80
2, 62520, Note_on_c, 0, 54, 0
2, 62640, Note_on_c, 0, 45, 80
2, 62640, Note_on_c, 0, 50, 0
2, 62760, Note_on_c, 0, 47, 80
2, 62760, Note_on_c, 0, 45, 0
2, 62880, Note_on_c, 0, 48, 80
2, 62880, Note_on_c, 0, 47, 0
2, 63000, Note_on_c, 0, 45, 80
2, 63000, Note_on_c, 0, 48, 0
2, 63120, Note_on_c, 0, 42, 80
2, 63120, Note_on_c, 0, 45, 0
2, 63240, Note_on_c, 0, 38, 80
2, 63240, Note_on_c, 0, 42, 0
2, 63360, Note_on_c, 0, 43, 80
2, 63360, Note_on_c, 0, 38, 0
2, 63599, Note_on_c, 0, 43, 0
2, 63600, Note_on_c, 0, 47, 80
2, 63839, Note_on_c, 0, 47, 0
2, 63840, Note_on_c, 0, 50, 80
2, 64079, Note_on_c, 0, 50, 0
2, 64080, Note_on_c, 0, 53, 80
2, 64319, Note_on_c, 0, 53, 0
2, 64440, Note_on_c, 0, 53, 80
2, 64560, Note_on_c, 0, 52, 80
2, 64560, Note_on_c, 0, 53, 0
2, 64680, Note_on_c, 0, 50, 80
2, 64680, Note_on_c, 0, 52, 0
2, 64800, Note_on_c, 0, 48, 80
2, 64800, Note_on_c, 0, 50, 0
2, 65039, Note_on_c, 0, 48, 0
2, 65040, Note_on_c, 0, 52, 80
2, 65279, Note_on_c, 0, 52, 0
2, 65280, Note_on_c, 0, 55, 80
2, 65519, Note_on_c, 0, 55, 0
2, 65520, Note_on_c, 0, 60, 80
2, 65759, Note_on_c, 0, 60, 0
2, 65880, Note_on_c, 0, 60, 80
2, 66000, Note_on_c, 0, 59, 80
2, 66000, Note_on_c, 0, 60, 0
2, 66120, Note_on_c, 0, 60, 80
2, 66120, Note_on_c, 0, 59, 0
2, 66240, Note_on_c, 0, 50, 80
2, 66240, Note_on_c, 0, 60, 0
2, 66479, Note_on_c, 0, 50, 0
2, 66480, Note_on_c, 0, 54, 80
2, 66719, Note_on_c, 0, 54, 0
2, 66720, Note_on_c, 0, 57, 80
2, 66959, Note_on_c, 0, 57, 0
2, 66960, Note_on_c, 0, 60, 80
2, 67199, Note_on_c, 0, 60, 0
2, 67320, Note_on_c, 0, 60, 80
2, 67440, Note_on_c, 0, 62, 80
2, 67440, Note_on_c, 0, 60, 0
2, 67560, Note_on_c, 0, 57, 80
2, 67560, Note_on_c, 0, 62, 0
2, 67680, Note_on_c, 0, 55, 80
2, 67680, Note_on_c, 0, 57, 0
2, 67800, Note_on_c, 0, 59, 80
2, 67800, Note_on_c, 0, 55, 0
2, 67920, Note_on_c, 0, 62, 80
2, 67920, Note_on_c, 0, 59, 0
2, 68040, Note_on_c, 0, 66, 80
2, 68040, Note_on_c, 0, 62, 0
2, 68160, Note_on_c, 0, 67, 80
2, 68160, Note_on_c, 0, 66, 0
2, 68280, Note_on_c, 0, 66, 80
2, 68280, Note_on_c, 0, 67, 0
2, 68340, Note_on_c, 0, 64, 80
2, 68340, Note_on_c, 0, 66, 0
2, 68400, Note_on_c, 0, 62, 80
2, 68400, Note_on_c, 0, 64, 0
2, 68460, Note_on_c, 0, 60, 80
2, 68460, Note_on_c, 0, 62, 0
2, 68519, Note_on_c, 0, 60, 0
2, 68520, Note_on_c, 0, 59, 80
2, 68580, Note_on_c, 0, 57, 80
2, 68580, Note_on_c, 0, 59, 0
2, 68640, Note_on_c, 0, 55, 80
2, 68640, Note_on_c, 0, 57, 0
2, 69120, Note_on_c, 0, 62, 80
2, 69120, Note_on_c, 0, 55, 0
2, 69359, Note_on_c, 0, 62, 0
2, 69360, Note_on_c, 0, 57, 80
2, 69599, Note_on_c, 0, 57, 0
2, 69600, Note_on_c, 0, 54, 80
2, 69839, Note_on_c, 0, 54, 0
2, 69840, Note_on_c, 0, 50, 80
2, 70079, Note_on_c, 0, 50, 0
2, 70200, Note_on_c, 0, 60, 80
2, 70320, Note_on_c, 0, 59, 80
2, 70320, Note_on_c, 0, 60, 0
2, 70440, Note_on_c, 0, 57, 80
2, 70440, Note_on_c, 0, 59, 0
2, 70560, Note_on_c, 0, 55, 80
2, 70560, Note_on_c, 0, 57, 0
2, 70799, Note_on_c, 0, 55, 0
2, 70800, Note_on_c, 0, 50, 80
2, 71039, Note_on_c, 0, 50, 0
2, 71040, Note_on_c, 0, 47, 80
2, 71279, Note_on_c, 0, 47, 0
2, 71280, Note_on_c, 0, 43, 80
2, 71519, Note_on_c, 0, 43, 0
2, 71640, Note_on_c, 0, 53, 80
2, 71760, Note_on_c, 0, 52, 80
2, 71760, Note_on_c, 0, 53, 0
2, 71880, Note_on_c, 0, 50, 80
2, 71880, Note_on_c, 0, 52, 0
2, 72000, Note_on_c, 0, 48, 80
2, 72000, Note_on_c, 0, 50, 0
2, 72120, Note_on_c, 0, 52, 80
2, 72120, Note_on_c, 0, 48, 0
2, 72240, Note_on_c, 0, 57, 80
2, 72240, Note_on_c, 0, 52, 0
2, 72360, Note_on_c, 0, 55, 80
2, 72360, Note_on_c, 0, 57, 0
2, 72480, Note_on_c, 0, 54, 80
2, 72480, Note_on_c, 0, 55, 0
2, 72600, Note_on_c, 0, 57, 80
2, 72600, Note_on_c, 0, 54, 0
2, 72720, Note_on_c, 0, 60, 80
2, 72720, Note_on_c, 0, 57, 0
2, 72840, Note_on_c, 0, 59, 80
2, 72840, Note_on_c, 0, 60, 0
2, 72960, Note_on_c, 0, 57, 80
2, 72960, Note_on_c, 0, 59, 0
2, 73080, Note_on_c, 0, 60, 80
2, 73080, Note_on_c, 0, 57, 0
2, 73200, Note_on_c, 0, 63, 80
2, 73200, Note_on_c, 0, 60, 0
2, 73320, Note_on_c, 0, 61, 80
2, 73320, Note_on_c, 0, 63, 0
2, 73440, Note_on_c, 0, 59, 80
2, 73440, Note_on_c, 0, 61, 0
2, 73560, Note_on_c, 0, 63, 80
2, 73560, Note_on_c, 0, 59, 0
2, 73680, Note_on_c, 0, 66, 80
2, 73680, Note_on_c, 0, 63, 0
2, 73800, Note_on_c, 0, 64, 80
2, 73800, Note_on_c, 0, 66, 0
2, 73920, Note_on_c, 0, 63, 80
2, 73920, Note_on_c, 0, 64, 0
2, 74040, Note_on_c, 0, 66, 80
2, 74040, Note_on_c, 0, 63, 0
2, 74160, Note_on_c, 0, 69, 80
2, 74160, Note_on_c, 0, 66, 0
2, 74280, Note_on_c, 0, 67, 80
2, 74280, Note_on_c, 0, 69, 0
2, 74400, Note_on_c, 0, 66, 80
2, 74400, Note_on_c, 0, 67, 0
2, 74520, Note_on_c, 0, 69, 80
2, 74520, Note_on_c, 0, 66, 0
2, 74640, Note_on_c, 0, 72, 80
2, 74640, Note_on_c, 0, 69, 0
2, 74760, Note_on_c, 0, 69, 80
2, 74760, Note_on_c, 0, 72, 0
2, 74880, Note_on_c, 0, 71, 80
2, 74880, Note_on_c, 0, 69, 0
2, 75000, Note_on_c, 0, 67, 80
2, 75000, Note_on_c, 0, 71, 0
2, 75120, Note_on_c, 0, 64, 80
2, 75120, Note_on_c, 0, 67, 0
2, 75240, Note_on_c, 0, 66, 80
2, 75240, Note_on_c, 0, 64, 0
2, 75360, Note_on_c, 0, 67, 80
2, 75360, Note_on_c, 0, 66, 0
2, 75480, Note_on_c, 0, 64, 80
2, 75480, Note_on_c, 0, 67, 0
2, 75600, Note_on_c, 0, 59, 80
2, 75600, Note_on_c, 0, 64, 0
2, 75720, Note_on_c, 0, 63, 80
2, 75720, Note_on_c, 0, 59, 0
2, 75840, Note_on_c, 0, 64, 80
2, 75840, Note_on_c, 0, 63, 0
2, 75960, Note_on_c, 0, 59, 80
2, 75960, Note_on_c, 0, 64, 0
2, 76080, Note_on_c, 0, 55, 80
2, 76080, Note_on_c, 0, 59, 0
2, 76200, Note_on_c, 0, 59, 80
2, 76200, Note_on_c, 0, 55, 0
2, 76320, Note_on_c, 0, 60, 80
2, 76320, Note_on_c, 0, 59, 0
2, 76440, Note_on_c, 0, 57, 80
2, 76440, Note_on_c, 0, 60, 0
2, 76560, Note_on_c, 0, 52, 80
2, 76560, Note_on_c, 0, 57, 0
2, 76680, Note_on_c, 0, 56, 80
2, 76680, Note_on_c, 0, 52, 0
2, 76800, Note_on_c, 0, 57, 80
2, 76800, Note_on_c, 0, 56, 0
2, 76920, Note_on_c, 0, 52, 80
2, 76920, Note_on_c, 0, 57, 0
2, 77040, Note_on_c, 0, 48, 80
2, 77040, Note_on_c, 0, 52, 0
2, 77160, Note_on_c, 0, 50, 80
2, 77160, Note_on_c, 0, 48, 0
2, 77280, Note_on_c, 0, 52, 80
2, 77280, Note_on_c, 0, 50, 0
2, 77400, Note_on_c, 0, 48, 80
2, 77400, Note_on_c, 0, 52, 0
2, 77520, Note_on_c, 0, 45, 80
2, 77520, Note_on_c, 0, 48, 0
2, 77640, Note_on_c, 0, 48, 80
2, 77640, Note_on_c, 0, 45, 0
2, 77760, Note_on_c, 0, 39, 80
2, 77760, Note_on_c, 0, 48, 0
2, 77999, Note_on_c, 0, 39, 0
2, 78000, Note_on_c, 0, 51, 80
2, 78239, Note_on_c, 0, 51, 0
2, 78240, Note_on_c, 0, 52, 80
2, 78479, Note_on_c, 0, 52, 0
2, 78480, Note_on_c, 0, 48, 80
2, 78719, Note_on_c, 0, 48, 0
2, 78720, Note_on_c, 0, 45, 80
2, 78959, Note_on_c, 0, 45, 0
2, 78960, Note_on_c, 0, 47, 80
2, 79199, Note_on_c, 0, 47, 0
2, 79200, Note_on_c, 0, 40, 80
2, 79439, Note_on_c, 0, 40, 0
2, 79440, Note_on_c, 0, 43, 80
2, 79680, Note_on_c, 0, 47, 80
2, 79680, Note_on_c, 0, 43, 0
2, 79919, Note_on_c, 0, 47, 0
2, 79920, Note_on_c, 0, 52, 80
2, 80159, Note_on_c, 0, 52, 0
2, 80280, Note_on_c, 0, 50, 80
2, 80400, Note_on_c, 0, 48, 80
2, 80400, Note_on_c, 0, 50, 0
2, 80520, Note_on_c, 0, 47, 80
2, 80520, Note_on_c, 0, 48, 0
2, 80640, Note_on_c, 0, 48, 80
2, 80640, Note_on_c, 0, 47, 0
2, 80760, Note_on_c, 0, 52, 80
2, 80760, Note_on_c, 0, 48, 0
2, 80880, Note_on_c, 0, 55, 80
2, 80880, Note_on_c, 0, 52, 0
2, 81000, Note_on_c, 0, 53, 80
2, 81000, Note_on_c, 0, 55, 0
2, 81120, Note_on_c, 0, 52, 80
2, 81120, Note_on_c, 0, 53, 0
2, 81240, Note_on_c, 0, 55, 80
2, 81240, Note_on_c, 0, 52, 0
2, 81360, Note_on_c, 0, 60, 80
2, 81360, Note_on_c, 0, 55, 0
2, 81480, Note_on_c, 0, 59, 80
2, 81480, Note_on_c, 0, 60, 0
2, 81600, Note_on_c, 0, 58, 80
2, 81600, Note_on_c, 0, 59, 0
2, 81720, Note_on_c, 0, 61, 80
2, 81720, Note_on_c, 0, 58, 0
2, 81840, Note_on_c, 0, 66, 80
2, 81840, Note_on_c, 0, 61, 0
2, 81960, Note_on_c, 0, 66, 0
2, 82080, Note_on_c, 0, 47, 80
2, 82200, Note_on_c, 0, 50, 80
2, 82200, Note_on_c, 0, 47, 0
2, 82320, Note_on_c, 0, 54, 80
2, 82320, Note_on_c, 0, 50, 0
2, 82440, Note_on_c, 0, 52, 80
2, 82440, Note_on_c, 0, 54, 0
2, 82560, Note_on_c, 0, 50, 80
2, 82560, Note_on_c, 0, 52, 0
2, 82680, Note_on_c, 0, 54, 80
2, 82680, Note_on_c, 0, 50, 0
2, 82800, Note_on_c, 0, 59, 80
2, 82800, Note_on_c, 0, 54, 0
2, 82920, Note_on_c, 0, 57, 80
2, 82920, Note_on_c, 0, 59, 0
2, 83040, Note_on_c, 0, 56, 80
2, 83040, Note_on_c, 0, 57, 0
2, 83160, Note_on_c, 0, 59, 80
2, 83160, Note_on_c, 0, 56, 0
2, 83280, Note_on_c, 0, 64, 80
2, 83280, Note_on_c, 0, 59, 0
2, 83400, Note_on_c, 0, 64, 0
2, 83520, Note_on_c, 0, 45, 80
2, 83640, Note_on_c, 0, 48, 80
2, 83640, Note_on_c, 0, 45, 0
2, 83760, Note_on_c, 0, 52, 80
2, 83760, Note_on_c, 0, 48, 0
2, 83880, Note_on_c, 0, 50, 80
2, 83880, Note_on_c, 0, 52, 0
2, 84000, Note_on_c, 0, 48, 80
2, 84000, Note_on_c, 0, 50, 0
2, 84120, Note_on_c, 0, 45, 80
2, 84120, Note_on_c, 0, 48, 0
2, 84240, Note_on_c, 0, 48, 80
2, 84240, Note_on_c, 0, 45, 0
2, 84360, Note_on_c, 0, 52, 80
2, 84360, Note_on_c, 0, 48, 0
2, 84480, Note_on_c, 0, 57, 80
2, 84480, Note_on_c, 0, 52, 0
2, 84600, Note_on_c, 0, 60, 80
2, 84600, Note_on_c, 0, 57, 0
2, 84720, Note_on_c, 0, 54, 80
2, 84720, Note_on_c, 0, 60, 0
2, 84840, Note_on_c, 0, 55, 80
2, 84840, Note_on_c, 0, 54, 0
2, 84960, Note_on_c, 0, 57, 80
2, 84960, Note_on_c, 0, 55, 0
2, 85080, Note_on_c, 0, 54, 80
2, 85080, Note_on_c, 0, 57, 0
2, 85200, Note_on_c, 0, 50, 80
2, 85200, Note_on_c, 0, 54, 0
2, 85320, Note_on_c, 0, 52, 80
2, 85320, Note_on_c, 0, 50, 0
2, 85440, Note_on_c, 0, 54, 80
2, 85440, Note_on_c, 0, 52, 0
2, 85560, Note_on_c, 0, 50, 80
2, 85560, Note_on_c, 0, 54, 0
2, 85680, Note_on_c, 0, 45, 80
2, 85680, Note_on_c, 0, 50, 0
2, 85800, Note_on_c, 0, 47, 80
2, 85800, Note_on_c, 0, 45, 0
2, 85920, Note_on_c, 0, 48, 80
2, 85920, Note_on_c, 0, 47, 0
2, 86040, Note_on_c, 0, 45, 80
2, 86040, Note_on_c, 0, 48, 0
2, 86160, Note_on_c, 0, 42, 80
2, 86160, Note_on_c, 0, 45, 0
2, 86280, Note_on_c, 0, 38, 80
2, 86280, Note_on_c, 0, 42, 0
2, 86400, Note_on_c, 0, 43, 80
2, 86400, Note_on_c, 0, 38, 0
2, 86639, Note_on_c, 0, 43, 0
2, 86640, Note_on_c, 0, 47, 80
2, 86879, Note_on_c, 0, 47, 0
2, 86880, Note_on_c, 0, 50, 80
2, 87119, Note_on_c, 0, 50, 0
2, 87120, Note_on_c, 0, 53, 80
2, 87359, Note_on_c, 0, 53, 0
2, 87480, Note_on_c, 0, 53, 80
2, 87600, Note_on_c, 0, 52, 80
2, 87600, Note_on_c, 0, 53, 0
2, 87720, Note_on_c, 0, 50, 80
2, 87720, Note_on_c, 0, 52, 0
2, 87840, Note_on_c, 0, 48, 80
2, 87840, Note_on_c, 0, 50, 0
2, 88079, Note_on_c, 0, 48, 0
2, 88080, Note_on_c, 0, 52, 80
2, 88319, Note_on_c, 0, 52, 0
2, 88320, Note_on_c, 0, 55, 80
2, 88559, Note_on_c, 0, 55, 0
2, 88560, Note_on_c, 0, 60, 80
2, 88799, Note_on_c, 0, 60, 0
2, 88920, Note_on_c, 0, 60, 80
2, 89040, Note_on_c, 0, 59, 80
2, 89040, Note_on_c, 0, 60, 0
2, 89160, Note_on_c, 0, 60, 80
2, 89160, Note_on_c, 0, 59, 0
2, 89280, Note_on_c, 0, 50, 80
2, 89280, Note_on_c, 0, 60, 0
2, 89519, Note_on_c, 0, 50, 0
2, 89520, Note_on_c, 0, 54, 80
2, 89759, Note_on_c, 0, 54, 0
2, 89760, Note_on_c, 0, 57, 80
2, 89999, Note_on_c, 0, 57, 0
2, 90000, Note_on_c, 0, 60, 80
2, 90239, Note_on_c, 0, 60, 0
2, 90360, Note_on_c, 0, 60, 80
2, 90480, Note_on_c, 0, 62, 80
2, 90480, Note_on_c, 0, 60, 0
2, 90600, Note_on_c, 0, 57, 80
2, 90600, Note_on_c, 0, 62, 0
2, 90720, Note_on_c, 0, 55, 80
2, 90720, Note_on_c, 0, 57, 0
2, 90840, Note_on_c, 0, 59, 80
2, 90840, Note_on_c, 0, 55, 0
2, 90960, Note_on_c, 0, 62, 80
2, 90960, Note_on_c, 0, 59, 0
2, 91080, Note_on_c, 0, 66, 80
2, 91080, Note_on_c, 0, 62, 0
2, 91200, Note_on_c, 0, 67, 80
2, 91200, Note_on_c, 0, 66, 0
2, 91320, Note_on_c, 0, 66, 80
2, 91320, Note_on_c, 0, 67, 0
2, 91380, Note_on_c, 0, 64, 80
2, 91380, Note_on_c, 0, 66, 0
2, 91440, Note_on_c, 0, 62, 80
2, 91440, Note_on_c, 0, 64, 0
2, 91500, Note_on_c, 0, 60, 80
2, 91500, Note_on_c, 0, 62, 0
2, 91559, Note_on_c, 0, 60, 0
2, 91560, Note_on_c, 0, 59, 80
2, 91620, Note_on_c, 0, 57, 80
2, 91620, Note_on_c, 0, 59, 0
2, 91680, Note_on_c, 0, 55, 80
2, 91680, Note_on_c, 0, 57, 0
2, 92160, Note_on_c, 0, 55, 0
2, 92161, End_track
0, 0, End_of_file
