0, 0, Header, 1, 2, 480
1, 0, Start_track
1, 0, Unknown_meta_event, 8, 36, 71, 111, 108, 100, 98, 101, 114, 103, 32, 86, 97, 114, 105, 97, 116, 105, 111, 110, 115, 58, 32, 86, 97, 114, 105, 97, 116, 105, 111, 110, 32, 88, 73, 73, 73, 0
1, 0, Unknown_meta_event, 9, 8, 66, 87, 86, 32, 57, 56, 56, 0
1, 0, Unknown_meta_event, 10, 11, 74, 46, 32, 83, 46, 32, 66, 97, 99, 104, 0
1, 0, Time_signature, 3, 2, 24, 8
1, 0, Key_signature, 1, "major"
1, 0, Tempo, 1000000
1, 0, Program_c, 0, 46
1, 0, Note_on_c, 0, 71, 64
1, 2, Control_c, 0, 7, 100
1, 4, Control_c, 0, 10, 64
1, 6, Control_c, 0, 91, 30
1, 8, Control_c, 0, 93, 30
1, 55, Note_on_c, 0, 71, 0
1, 60, Note_on_c, 0, 72, 64
1, 115, Note_on_c, 0, 72, 0
1, 120, Note_on_c, 0, 71, 64
1, 175, Note_on_c, 0, 71, 0
1, 180, Note_on_c, 0, 69, 64
1, 235, Note_on_c, 0, 69, 0
1, 240, Note_on_c, 0, 71, 64
1, 360, Note_on_c, 0, 59, 80
1, 479, Note_on_c, 0, 59, 0
1, 480, Note_on_c, 0, 62, 80
1, 539, Note_on_c, 0, 71, 0
1, 540, Note_on_c, 0, 66, 64
1, 595, Note_on_c, 0, 66, 0
1, 600, Note_on_c, 0, 67, 64
1, 655, Note_on_c, 0, 67, 0
1, 660, Note_on_c, 0, 69, 64
1, 715, Note_on_c, 0, 69, 0
1, 720, Note_on_c, 0, 71, 64
1, 830, Note_on_c, 0, 71, 0
1, 840, Note_on_c, 0, 72, 64
1, 950, Note_on_c, 0, 72, 0
1, 960, Note_on_c, 0, 74, 80
1, 1019, Note_on_c, 0, 74, 0
1, 1020, Note_on_c, 0, 72, 80
1, 1079, Note_on_c, 0, 72, 0
1, 1080, Note_on_c, 0, 71, 80
1, 1199, Note_on_c, 0, 71, 0
1, 1200, Note_on_c, 0, 69, 64
1, 1310, Note_on_c, 0, 69, 0
1, 1320, Note_on_c, 0, 67, 64
1, 1430, Note_on_c, 0, 67, 0
1, 1440, Note_on_c, 0, 74, 64
1, 1495, Note_on_c, 0, 74, 0
1, 1500, Note_on_c, 0, 76, 64
1, 1555, Note_on_c, 0, 76, 0
1, 1560, Note_on_c, 0, 74, 64
1, 1615, Note_on_c, 0, 74, 0
1, 1620, Note_on_c, 0, 73, 64
1, 1675, Note_on_c, 0, 73, 0
1, 1680, Note_on_c, 0, 74, 64
1, 1799, Note_on_c, 0, 62, 0
1, 1800, Note_on_c, 0, 57, 80
1, 1919, Note_on_c, 0, 57, 0
1, 1920, Note_on_c, 0, 62, 80
1, 1979, Note_on_c, 0, 74, 0
1, 1980, Note_on_c, 0, 73, 64
1, 2035, Note_on_c, 0, 73, 0
1, 2040, Note_on_c, 0, 74, 64
1, 2095, Note_on_c, 0, 74, 0
1, 2100, Note_on_c, 0, 76, 64
1, 2155, Note_on_c, 0, 76, 0
1, 2160, Note_on_c, 0, 78, 64
1, 2270, Note_on_c, 0, 78, 0
1, 2280, Note_on_c, 0, 79, 64
1, 2390, Note_on_c, 0, 79, 0
1, 2400, Note_on_c, 0, 81, 64
1, 2427, Note_on_c, 0, 81, 0
1, 2430, Note_on_c, 0, 79, 64
1, 2489, Note_on_c, 0, 79, 0
1, 2520, Note_on_c, 0, 78, 80
1, 2639, Note_on_c, 0, 78, 0
1, 2640, Note_on_c, 0, 76, 64
1, 2750, Note_on_c, 0, 76, 0
1, 2760, Note_on_c, 0, 74, 64
1, 2870, Note_on_c, 0, 74, 0
1, 2880, Note_on_c, 0, 79, 80
1, 2939, Note_on_c, 0, 79, 0
1, 2940, Note_on_c, 0, 81, 80
1, 2999, Note_on_c, 0, 81, 0
1, 3000, Note_on_c, 0, 79, 80
1, 3059, Note_on_c, 0, 79, 0
1, 3060, Note_on_c, 0, 78, 80
1, 3119, Note_on_c, 0, 78, 0
1, 3120, Note_on_c, 0, 79, 80
1, 3239, Note_on_c, 0, 62, 0
1, 3240, Note_on_c, 0, 59, 80
1, 3359, Note_on_c, 0, 59, 0
1, 3360, Note_on_c, 0, 61, 80
1, 3419, Note_on_c, 0, 79, 0
1, 3420, Note_on_c, 0, 78, 80
1, 3479, Note_on_c, 0, 78, 0
1, 3480, Note_on_c, 0, 76, 80
1, 3539, Note_on_c, 0, 76, 0
1, 3540, Note_on_c, 0, 78, 80
1, 3599, Note_on_c, 0, 78, 0
1, 3600, Note_on_c, 0, 79, 80
1, 3719, Note_on_c, 0, 79, 0
1, 3720, Note_on_c, 0, 76, 80
1, 3839, Note_on_c, 0, 76, 0
1, 3840, Note_on_c, 0, 69, 80
1, 3959, Note_on_c, 0, 69, 0
1, 3960, Note_on_c, 0, 83, 80
1, 4079, Note_on_c, 0, 83, 0
1, 4080, Note_on_c, 0, 81, 80
1, 4199, Note_on_c, 0, 81, 0
1, 4200, Note_on_c, 0, 79, 80
1, 4319, Note_on_c, 0, 61, 0
1, 4319, Note_on_c, 0, 79, 0
1, 4320, Note_on_c, 0, 79, 80
1, 4349, Note_on_c, 0, 79, 0
1, 4350, Note_on_c, 0, 78, 80
1, 4379, Note_on_c, 0, 78, 0
1, 4380, Note_on_c, 0, 76, 80
1, 4439, Note_on_c, 0, 76, 0
1, 4440, Note_on_c, 0, 78, 80
1, 4499, Note_on_c, 0, 78, 0
1, 4500, Note_on_c, 0, 76, 80
1, 4559, Note_on_c, 0, 76, 0
1, 4560, Note_on_c, 0, 74, 80
1, 4680, Note_on_c, 0, 54, 80
1, 4799, Note_on_c, 0, 54, 0
1, 4800, Note_on_c, 0, 57, 80
1, 4859, Note_on_c, 0, 74, 0
1, 4860, Note_on_c, 0, 73, 80
1, 4919, Note_on_c, 0, 73, 0
1, 4920, Note_on_c, 0, 74, 80
1, 4979, Note_on_c, 0, 74, 0
1, 4980, Note_on_c, 0, 76, 80
1, 5039, Note_on_c, 0, 76, 0
1, 5040, Note_on_c, 0, 78, 80
1, 5159, Note_on_c, 0, 78, 0
1, 5160, Note_on_c, 0, 79, 80
1, 5279, Note_on_c, 0, 79, 0
1, 5280, Note_on_c, 0, 81, 80
1, 5399, Note_on_c, 0, 81, 0
1, 5400, Note_on_c, 0, 83, 80
1, 5459, Note_on_c, 0, 83, 0
1, 5460, Note_on_c, 0, 84, 80
1, 5519, Note_on_c, 0, 84, 0
1, 5520, Note_on_c, 0, 83, 80
1, 5639, Note_on_c, 0, 83, 0
1, 5640, Note_on_c, 0, 81, 80
1, 5759, Note_on_c, 0, 57, 0
1, 5759, Note_on_c, 0, 81, 0
1, 5760, Note_on_c, 0, 79, 80
1, 5819, Note_on_c, 0, 79, 0
1, 5820, Note_on_c, 0, 77, 80
1, 5879, Note_on_c, 0, 77, 0
1, 5880, Note_on_c, 0, 76, 80
1, 5999, Note_on_c, 0, 76, 0
1, 6000, Note_on_c, 0, 77, 80
1, 6059, Note_on_c, 0, 77, 0
1, 6060, Note_on_c, 0, 76, 80
1, 6119, Note_on_c, 0, 76, 0
1, 6120, Note_on_c, 0, 50, 80
1, 6120, Note_on_c, 0, 77, 80
1, 6239, Note_on_c, 0, 50, 0
1, 6240, Note_on_c, 0, 55, 80
1, 6299, Note_on_c, 0, 77, 0
1, 6300, Note_on_c, 0, 74, 80
1, 6359, Note_on_c, 0, 74, 0
1, 6360, Note_on_c, 0, 79, 80
1, 6419, Note_on_c, 0, 79, 0
1, 6420, Note_on_c, 0, 81, 80
1, 6479, Note_on_c, 0, 81, 0
1, 6480, Note_on_c, 0, 83, 80
1, 6539, Note_on_c, 0, 83, 0
1, 6540, Note_on_c, 0, 84, 80
1, 6599, Note_on_c, 0, 84, 0
1, 6600, Note_on_c, 0, 86, 80
1, 6719, Note_on_c, 0, 86, 0
1, 6720, Note_on_c, 0, 84, 80
1, 6839, Note_on_c, 0, 84, 0
1, 6840, Note_on_c, 0, 83, 80
1, 6959, Note_on_c, 0, 83, 0
1, 6960, Note_on_c, 0, 81, 80
1, 7079, Note_on_c, 0, 81, 0
1, 7080, Note_on_c, 0, 79, 80
1, 7199, Note_on_c, 0, 79, 0
1, 7200, Note_on_c, 0, 77, 64
1, 7255, Note_on_c, 0, 77, 0
1, 7260, Note_on_c, 0, 76, 64
1, 7315, Note_on_c, 0, 76, 0
1, 7320, Note_on_c, 0, 74, 64
1, 7430, Note_on_c, 0, 74, 0
1, 7440, Note_on_c, 0, 74, 64
1, 7550, Note_on_c, 0, 74, 0
1, 7559, Note_on_c, 0, 55, 0
1, 7560, Note_on_c, 0, 54, 80
1, 7560, Note_on_c, 0, 76, 64
1, 7679, Note_on_c, 0, 54, 0
1, 7680, Note_on_c, 0, 55, 80
1, 7739, Note_on_c, 0, 76, 0
1, 7740, Note_on_c, 0, 74, 64
1, 7795, Note_on_c, 0, 74, 0
1, 7800, Note_on_c, 0, 72, 64
1, 7855, Note_on_c, 0, 72, 0
1, 7860, Note_on_c, 0, 71, 64
1, 7915, Note_on_c, 0, 71, 0
1, 7920, Note_on_c, 0, 72, 64
1, 7975, Note_on_c, 0, 72, 0
1, 7980, Note_on_c, 0, 74, 64
1, 8035, Note_on_c, 0, 74, 0
1, 8040, Note_on_c, 0, 76, 64
1, 8150, Note_on_c, 0, 76, 0
1, 8160, Note_on_c, 0, 74, 64
1, 8270, Note_on_c, 0, 74, 0
1, 8280, Note_on_c, 0, 79, 64
1, 8390, Note_on_c, 0, 79, 0
1, 8400, Note_on_c, 0, 76, 64
1, 8510, Note_on_c, 0, 76, 0
1, 8520, Note_on_c, 0, 72, 64
1, 8630, Note_on_c, 0, 72, 0
1, 8640, Note_on_c, 0, 71, 64
1, 8695, Note_on_c, 0, 71, 0
1, 8700, Note_on_c, 0, 69, 64
1, 8755, Note_on_c, 0, 69, 0
1, 8760, Note_on_c, 0, 67, 64
1, 8870, Note_on_c, 0, 67, 0
1, 8880, Note_on_c, 0, 69, 64
1, 8999, Note_on_c, 0, 55, 0
1, 9000, Note_on_c, 0, 52, 80
1, 9119, Note_on_c, 0, 52, 0
1, 9120, Note_on_c, 0, 54, 80
1, 9179, Note_on_c, 0, 69, 0
1, 9180, Note_on_c, 0, 67, 64
1, 9235, Note_on_c, 0, 67, 0
1, 9240, Note_on_c, 0, 69, 64
1, 9295, Note_on_c, 0, 69, 0
1, 9300, Note_on_c, 0, 71, 64
1, 9355, Note_on_c, 0, 71, 0
1, 9360, Note_on_c, 0, 72, 64
1, 9415, Note_on_c, 0, 72, 0
1, 9420, Note_on_c, 0, 66, 64
1, 9475, Note_on_c, 0, 66, 0
1, 9480, Note_on_c, 0, 67, 64
1, 9535, Note_on_c, 0, 67, 0
1, 9540, Note_on_c, 0, 69, 64
1, 9595, Note_on_c, 0, 69, 0
1, 9600, Note_on_c, 0, 62, 64
1, 9655, Note_on_c, 0, 62, 0
1, 9660, Note_on_c, 0, 66, 64
1, 9715, Note_on_c, 0, 66, 0
1, 9720, Note_on_c, 0, 64, 64
1, 9775, Note_on_c, 0, 64, 0
1, 9780, Note_on_c, 0, 62, 64
1, 9835, Note_on_c, 0, 62, 0
1, 9840, Note_on_c, 0, 69, 64
1, 9895, Note_on_c, 0, 69, 0
1, 9900, Note_on_c, 0, 67, 64
1, 9955, Note_on_c, 0, 67, 0
1, 9960, Note_on_c, 0, 66, 64
1, 10015, Note_on_c, 0, 66, 0
1, 10020, Note_on_c, 0, 72, 64
1, 10079, Note_on_c, 0, 54, 0
1, 10139, Note_on_c, 0, 72, 0
1, 10140, Note_on_c, 0, 71, 64
1, 10195, Note_on_c, 0, 71, 0
1, 10200, Note_on_c, 0, 69, 64
1, 10310, Note_on_c, 0, 69, 0
1, 10320, Note_on_c, 0, 71, 64
1, 10440, Note_on_c, 0, 54, 80
1, 10559, Note_on_c, 0, 54, 0
1, 10560, Note_on_c, 0, 55, 80
1, 10619, Note_on_c, 0, 71, 0
1, 10620, Note_on_c, 0, 69, 64
1, 10675, Note_on_c, 0, 69, 0
1, 10680, Note_on_c, 0, 67, 64
1, 10735, Note_on_c, 0, 67, 0
1, 10740, Note_on_c, 0, 66, 64
1, 10795, Note_on_c, 0, 66, 0
1, 10800, Note_on_c, 0, 67, 64
1, 10855, Note_on_c, 0, 67, 0
1, 10860, Note_on_c, 0, 71, 64
1, 10915, Note_on_c, 0, 71, 0
1, 10920, Note_on_c, 0, 74, 64
1, 10975, Note_on_c, 0, 74, 0
1, 10980, Note_on_c, 0, 78, 64
1, 11035, Note_on_c, 0, 78, 0
1, 11039, Note_on_c, 0, 55, 0
1, 11040, Note_on_c, 0, 79, 64
1, 11095, Note_on_c, 0, 79, 0
1, 11100, Note_on_c, 0, 78, 64
1, 11155, Note_on_c, 0, 78, 0
1, 11160, Note_on_c, 0, 76, 64
1, 11215, Note_on_c, 0, 76, 0
1, 11220, Note_on_c, 0, 74, 64
1, 11275, Note_on_c, 0, 74, 0
1, 11280, Note_on_c, 0, 78, 64
1, 11335, Note_on_c, 0, 78, 0
1, 11340, Note_on_c, 0, 81, 64
1, 11395, Note_on_c, 0, 81, 0
1, 11400, Note_on_c, 0, 83, 64
1, 11455, Note_on_c, 0, 83, 0
1, 11460, Note_on_c, 0, 84, 64
1, 11515, Note_on_c, 0, 84, 0
1, 11520, Note_on_c, 0, 83, 64
1, 11575, Note_on_c, 0, 83, 0
1, 11580, Note_on_c, 0, 81, 64
1, 11635, Note_on_c, 0, 81, 0
1, 11640, Note_on_c, 0, 79, 64
1, 11760, Note_on_c, 0, 59, 80
1, 11819, Note_on_c, 0, 79, 0
1, 11820, Note_on_c, 0, 78, 64
1, 11875, Note_on_c, 0, 78, 0
1, 11880, Note_on_c, 0, 76, 64
1, 11999, Note_on_c, 0, 59, 0
1, 12000, Note_on_c, 0, 64, 80
1, 12059, Note_on_c, 0, 76, 0
1, 12060, Note_on_c, 0, 75, 64
1, 12115, Note_on_c, 0, 75, 0
1, 12120, Note_on_c, 0, 76, 64
1, 12299, Note_on_c, 0, 76, 0
1, 12300, Note_on_c, 0, 78, 64
1, 12355, Note_on_c, 0, 78, 0
1, 12360, Note_on_c, 0, 79, 64
1, 12539, Note_on_c, 0, 79, 0
1, 12540, Note_on_c, 0, 81, 64
1, 12595, Note_on_c, 0, 81, 0
1, 12600, Note_on_c, 0, 83, 64
1, 12779, Note_on_c, 0, 83, 0
1, 12780, Note_on_c, 0, 79, 64
1, 12835, Note_on_c, 0, 79, 0
1, 12840, Note_on_c, 0, 78, 64
1, 12895, Note_on_c, 0, 78, 0
1, 12900, Note_on_c, 0, 76, 64
1, 12955, Note_on_c, 0, 76, 0
1, 12960, Note_on_c, 0, 81, 64
1, 13015, Note_on_c, 0, 81, 0
1, 13020, Note_on_c, 0, 79, 64
1, 13075, Note_on_c, 0, 79, 0
1, 13080, Note_on_c, 0, 78, 64
1, 13199, Note_on_c, 0, 64, 0
1, 13200, Note_on_c, 0, 57, 80
1, 13259, Note_on_c, 0, 78, 0
1, 13260, Note_on_c, 0, 76, 64
1, 13315, Note_on_c, 0, 76, 0
1, 13320, Note_on_c, 0, 74, 64
1, 13439, Note_on_c, 0, 57, 0
1, 13440, Note_on_c, 0, 62, 80
1, 13499, Note_on_c, 0, 74, 0
1, 13500, Note_on_c, 0, 73, 64
1, 13555, Note_on_c, 0, 73, 0
1, 13560, Note_on_c, 0, 74, 64
1, 13739, Note_on_c, 0, 74, 0
1, 13740, Note_on_c, 0, 76, 64
1, 13795, Note_on_c, 0, 76, 0
1, 13800, Note_on_c, 0, 78, 64
1, 13979, Note_on_c, 0, 78, 0
1, 13980, Note_on_c, 0, 79, 64
1, 14035, Note_on_c, 0, 79, 0
1, 14040, Note_on_c, 0, 81, 64
1, 14219, Note_on_c, 0, 81, 0
1, 14220, Note_on_c, 0, 78, 64
1, 14275, Note_on_c, 0, 78, 0
1, 14280, Note_on_c, 0, 76, 64
1, 14335, Note_on_c, 0, 76, 0
1, 14340, Note_on_c, 0, 74, 64
1, 14395, Note_on_c, 0, 74, 0
1, 14400, Note_on_c, 0, 79, 64
1, 14455, Note_on_c, 0, 79, 0
1, 14460, Note_on_c, 0, 81, 64
1, 14515, Note_on_c, 0, 81, 0
1, 14520, Note_on_c, 0, 83, 64
1, 14575, Note_on_c, 0, 83, 0
1, 14580, Note_on_c, 0, 81, 64
1, 14635, Note_on_c, 0, 81, 0
1, 14639, Note_on_c, 0, 62, 0
1, 14640, Note_on_c, 0, 57, 80
1, 14640, Note_on_c, 0, 79, 64
1, 14750, Note_on_c, 0, 79, 0
1, 14760, Note_on_c, 0, 78, 64
1, 14870, Note_on_c, 0, 78, 0
1, 14879, Note_on_c, 0, 57, 0
1, 14880, Note_on_c, 0, 55, 80
1, 14880, Note_on_c, 0, 76, 64
1, 14935, Note_on_c, 0, 76, 0
1, 14940, Note_on_c, 0, 78, 64
1, 14995, Note_on_c, 0, 78, 0
1, 15000, Note_on_c, 0, 79, 64
1, 15055, Note_on_c, 0, 79, 0
1, 15060, Note_on_c, 0, 78, 64
1, 15115, Note_on_c, 0, 78, 0
1, 15120, Note_on_c, 0, 76, 64
1, 15230, Note_on_c, 0, 76, 0
1, 15240, Note_on_c, 0, 74, 64
1, 15350, Note_on_c, 0, 74, 0
1, 15360, Note_on_c, 0, 73, 64
1, 15415, Note_on_c, 0, 73, 0
1, 15420, Note_on_c, 0, 74, 64
1, 15475, Note_on_c, 0, 74, 0
1, 15480, Note_on_c, 0, 76, 64
1, 15535, Note_on_c, 0, 76, 0
1, 15540, Note_on_c, 0, 74, 64
1, 15595, Note_on_c, 0, 74, 0
1, 15600, Note_on_c, 0, 73, 64
1, 15710, Note_on_c, 0, 73, 0
1, 15720, Note_on_c, 0, 71, 64
1, 15830, Note_on_c, 0, 71, 0
1, 15840, Note_on_c, 0, 71, 80
1, 15899, Note_on_c, 0, 71, 0
1, 15900, Note_on_c, 0, 69, 80
1, 15959, Note_on_c, 0, 69, 0
1, 15959, Note_on_c, 0, 55, 0
1, 15960, Note_on_c, 0, 57, 80
1, 15960, Note_on_c, 0, 71, 80
1, 16019, Note_on_c, 0, 71, 0
1, 16020, Note_on_c, 0, 69, 80
1, 16079, Note_on_c, 0, 57, 0
1, 16079, Note_on_c, 0, 69, 0
1, 16080, Note_on_c, 0, 55, 80
1, 16080, Note_on_c, 0, 71, 80
1, 16139, Note_on_c, 0, 71, 0
1, 16140, Note_on_c, 0, 69, 80
1, 16199, Note_on_c, 0, 55, 0
1, 16199, Note_on_c, 0, 69, 0
1, 16200, Note_on_c, 0, 54, 80
1, 16200, Note_on_c, 0, 71, 80
1, 16259, Note_on_c, 0, 71, 0
1, 16260, Note_on_c, 0, 69, 80
1, 16319, Note_on_c, 0, 54, 0
1, 16319, Note_on_c, 0, 69, 0
1, 16320, Note_on_c, 0, 55, 80
1, 16320, Note_on_c, 0, 71, 80
1, 16379, Note_on_c, 0, 71, 0
1, 16380, Note_on_c, 0, 69, 80
1, 16439, Note_on_c, 0, 69, 0
1, 16440, Note_on_c, 0, 71, 80
1, 16499, Note_on_c, 0, 71, 0
1, 16500, Note_on_c, 0, 69, 80
1, 16559, Note_on_c, 0, 55, 0
1, 16559, Note_on_c, 0, 69, 0
1, 16560, Note_on_c, 0, 69, 80
1, 16619, Note_on_c, 0, 69, 0
1, 16620, Note_on_c, 0, 73, 80
1, 16679, Note_on_c, 0, 73, 0
1, 16680, Note_on_c, 0, 71, 80
1, 16739, Note_on_c, 0, 71, 0
1, 16740, Note_on_c, 0, 69, 80
1, 16799, Note_on_c, 0, 69, 0
1, 16800, Note_on_c, 0, 71, 80
1, 16859, Note_on_c, 0, 71, 0
1, 16860, Note_on_c, 0, 73, 80
1, 16919, Note_on_c, 0, 73, 0
1, 16920, Note_on_c, 0, 74, 80
1, 16979, Note_on_c, 0, 74, 0
1, 16980, Note_on_c, 0, 76, 80
1, 17039, Note_on_c, 0, 76, 0
1, 17040, Note_on_c, 0, 78, 80
1, 17159, Note_on_c, 0, 78, 0
1, 17160, Note_on_c, 0, 81, 80
1, 17189, Note_on_c, 0, 81, 0
1, 17190, Note_on_c, 0, 79, 80
1, 17219, Note_on_c, 0, 79, 0
1, 17220, Note_on_c, 0, 78, 80
1, 17249, Note_on_c, 0, 78, 0
1, 17250, Note_on_c, 0, 79, 80
1, 17279, Note_on_c, 0, 79, 0
1, 17280, Note_on_c, 0, 81, 80
1, 17339, Note_on_c, 0, 81, 0
1, 17340, Note_on_c, 0, 74, 80
1, 17399, Note_on_c, 0, 74, 0
1, 17400, Note_on_c, 0, 73, 80
1, 17459, Note_on_c, 0, 73, 0
1, 17460, Note_on_c, 0, 74, 80
1, 17519, Note_on_c, 0, 74, 0
1, 17520, Note_on_c, 0, 76, 80
1, 17579, Note_on_c, 0, 76, 0
1, 17580, Note_on_c, 0, 74, 80
1, 17639, Note_on_c, 0, 74, 0
1, 17640, Note_on_c, 0, 73, 80
1, 17699, Note_on_c, 0, 73, 0
1, 17700, Note_on_c, 0, 74, 80
1, 17759, Note_on_c, 0, 74, 0
1, 17760, Note_on_c, 0, 69, 80
1, 17819, Note_on_c, 0, 69, 0
1, 17820, Note_on_c, 0, 74, 80
1, 17879, Note_on_c, 0, 74, 0
1, 17880, Note_on_c, 0, 67, 80
1, 17939, Note_on_c, 0, 67, 0
1, 17940, Note_on_c, 0, 74, 80
1, 17999, Note_on_c, 0, 74, 0
1, 18000, Note_on_c, 0, 66, 80
1, 18059, Note_on_c, 0, 66, 0
1, 18060, Note_on_c, 0, 74, 80
1, 18119, Note_on_c, 0, 74, 0
1, 18120, Note_on_c, 0, 64, 80
1, 18179, Note_on_c, 0, 64, 0
1, 18180, Note_on_c, 0, 74, 80
1, 18239, Note_on_c, 0, 74, 0
1, 18240, Note_on_c, 0, 66, 80
1, 18299, Note_on_c, 0, 66, 0
1, 18300, Note_on_c, 0, 74, 80
1, 18359, Note_on_c, 0, 74, 0
1, 18360, Note_on_c, 0, 69, 80
1, 18419, Note_on_c, 0, 69, 0
1, 18420, Note_on_c, 0, 74, 80
1, 18479, Note_on_c, 0, 74, 0
1, 18480, Note_on_c, 0, 66, 80
1, 18539, Note_on_c, 0, 66, 0
1, 18540, Note_on_c, 0, 74, 80
1, 18599, Note_on_c, 0, 74, 0
1, 18600, Note_on_c, 0, 62, 80
1, 18659, Note_on_c, 0, 62, 0
1, 18660, Note_on_c, 0, 72, 80
1, 18719, Note_on_c, 0, 72, 0
1, 18720, Note_on_c, 0, 71, 64
1, 18775, Note_on_c, 0, 71, 0
1, 18780, Note_on_c, 0, 74, 64
1, 18835, Note_on_c, 0, 74, 0
1, 18840, Note_on_c, 0, 73, 64
1, 18895, Note_on_c, 0, 73, 0
1, 18900, Note_on_c, 0, 74, 64
1, 18955, Note_on_c, 0, 74, 0
1, 18960, Note_on_c, 0, 76, 64
1, 19015, Note_on_c, 0, 76, 0
1, 19020, Note_on_c, 0, 74, 64
1, 19075, Note_on_c, 0, 74, 0
1, 19080, Note_on_c, 0, 73, 64
1, 19135, Note_on_c, 0, 73, 0
1, 19140, Note_on_c, 0, 74, 64
1, 19195, Note_on_c, 0, 74, 0
1, 19200, Note_on_c, 0, 71, 64
1, 19255, Note_on_c, 0, 71, 0
1, 19260, Note_on_c, 0, 74, 64
1, 19315, Note_on_c, 0, 74, 0
1, 19320, Note_on_c, 0, 69, 64
1, 19375, Note_on_c, 0, 69, 0
1, 19380, Note_on_c, 0, 74, 64
1, 19435, Note_on_c, 0, 74, 0
1, 19440, Note_on_c, 0, 67, 64
1, 19495, Note_on_c, 0, 67, 0
1, 19500, Note_on_c, 0, 74, 64
1, 19555, Note_on_c, 0, 74, 0
1, 19560, Note_on_c, 0, 66, 64
1, 19615, Note_on_c, 0, 66, 0
1, 19620, Note_on_c, 0, 74, 64
1, 19675, Note_on_c, 0, 74, 0
1, 19680, Note_on_c, 0, 67, 64
1, 19735, Note_on_c, 0, 67, 0
1, 19740, Note_on_c, 0, 74, 64
1, 19795, Note_on_c, 0, 74, 0
1, 19800, Note_on_c, 0, 71, 64
1, 19855, Note_on_c, 0, 71, 0
1, 19860, Note_on_c, 0, 74, 64
1, 19915, Note_on_c, 0, 74, 0
1, 19920, Note_on_c, 0, 67, 64
1, 19975, Note_on_c, 0, 67, 0
1, 19980, Note_on_c, 0, 74, 64
1, 20035, Note_on_c, 0, 74, 0
1, 20040, Note_on_c, 0, 64, 64
1, 20095, Note_on_c, 0, 64, 0
1, 20100, Note_on_c, 0, 74, 64
1, 20155, Note_on_c, 0, 74, 0
1, 20160, Note_on_c, 0, 57, 80
1, 20160, Note_on_c, 0, 73, 64
1, 20215, Note_on_c, 0, 73, 0
1, 20220, Note_on_c, 0, 67, 64
1, 20275, Note_on_c, 0, 67, 0
1, 20280, Note_on_c, 0, 66, 64
1, 20335, Note_on_c, 0, 66, 0
1, 20340, Note_on_c, 0, 67, 64
1, 20395, Note_on_c, 0, 67, 0
1, 20399, Note_on_c, 0, 57, 0
1, 20400, Note_on_c, 0, 61, 80
1, 20400, Note_on_c, 0, 69, 64
1, 20455, Note_on_c, 0, 69, 0
1, 20460, Note_on_c, 0, 67, 64
1, 20515, Note_on_c, 0, 67, 0
1, 20520, Note_on_c, 0, 66, 64
1, 20575, Note_on_c, 0, 66, 0
1, 20580, Note_on_c, 0, 67, 64
1, 20635, Note_on_c, 0, 67, 0
1, 20639, Note_on_c, 0, 61, 0
1, 20640, Note_on_c, 0, 67, 80
1, 20640, Note_on_c, 0, 76, 64
1, 20695, Note_on_c, 0, 76, 0
1, 20700, Note_on_c, 0, 73, 64
1, 20755, Note_on_c, 0, 73, 0
1, 20760, Note_on_c, 0, 71, 64
1, 20815, Note_on_c, 0, 71, 0
1, 20820, Note_on_c, 0, 73, 64
1, 20875, Note_on_c, 0, 73, 0
1, 20879, Note_on_c, 0, 67, 0
1, 20880, Note_on_c, 0, 64, 80
1, 20880, Note_on_c, 0, 74, 64
1, 20935, Note_on_c, 0, 74, 0
1, 20940, Note_on_c, 0, 73, 64
1, 20995, Note_on_c, 0, 73, 0
1, 21000, Note_on_c, 0, 71, 64
1, 21055, Note_on_c, 0, 71, 0
1, 21060, Note_on_c, 0, 73, 64
1, 21115, Note_on_c, 0, 73, 0
1, 21119, Note_on_c, 0, 64, 0
1, 21120, Note_on_c, 0, 61, 80
1, 21120, Note_on_c, 0, 79, 64
1, 21175, Note_on_c, 0, 79, 0
1, 21180, Note_on_c, 0, 76, 64
1, 21235, Note_on_c, 0, 76, 0
1, 21240, Note_on_c, 0, 74, 64
1, 21295, Note_on_c, 0, 74, 0
1, 21300, Note_on_c, 0, 76, 64
1, 21355, Note_on_c, 0, 76, 0
1, 21360, Note_on_c, 0, 81, 64
1, 21415, Note_on_c, 0, 81, 0
1, 21420, Note_on_c, 0, 79, 64
1, 21475, Note_on_c, 0, 79, 0
1, 21480, Note_on_c, 0, 78, 64
1, 21535, Note_on_c, 0, 78, 0
1, 21540, Note_on_c, 0, 76, 64
1, 21595, Note_on_c, 0, 76, 0
1, 21599, Note_on_c, 0, 61, 0
1, 21600, Note_on_c, 0, 78, 64
1, 21710, Note_on_c, 0, 78, 0
1, 21720, Note_on_c, 0, 73, 64
1, 21830, Note_on_c, 0, 73, 0
1, 21840, Note_on_c, 0, 73, 64
1, 21950, Note_on_c, 0, 73, 0
1, 21960, Note_on_c, 0, 74, 64
1, 22070, Note_on_c, 0, 74, 0
1, 22080, Note_on_c, 0, 74, 64
1, 22190, Note_on_c, 0, 74, 0
1, 22200, Note_on_c, 0, 67, 64
1, 22310, Note_on_c, 0, 67, 0
1, 22320, Note_on_c, 0, 61, 80
1, 22320, Note_on_c, 0, 67, 64
1, 22430, Note_on_c, 0, 67, 0
1, 22440, Note_on_c, 0, 66, 64
1, 22550, Note_on_c, 0, 66, 0
1, 22559, Note_on_c, 0, 61, 0
1, 22560, Note_on_c, 0, 62, 80
1, 22560, Note_on_c, 0, 66, 64
1, 23030, Note_on_c, 0, 66, 0
1, 23039, Note_on_c, 0, 62, 0
1, 23040, Note_on_c, 0, 71, 64
1, 23095, Note_on_c, 0, 71, 0
1, 23100, Note_on_c, 0, 72, 64
1, 23155, Note_on_c, 0, 72, 0
1, 23160, Note_on_c, 0, 71, 64
1, 23215, Note_on_c, 0, 71, 0
1, 23220, Note_on_c, 0, 69, 64
1, 23275, Note_on_c, 0, 69, 0
1, 23280, Note_on_c, 0, 71, 64
1, 23400, Note_on_c, 0, 59, 80
1, 23519, Note_on_c, 0, 59, 0
1, 23520, Note_on_c, 0, 62, 80
1, 23579, Note_on_c, 0, 71, 0
1, 23580, Note_on_c, 0, 66, 64
1, 23635, Note_on_c, 0, 66, 0
1, 23640, Note_on_c, 0, 67, 64
1, 23695, Note_on_c, 0, 67, 0
1, 23700, Note_on_c, 0, 69, 64
1, 23755, Note_on_c, 0, 69, 0
1, 23760, Note_on_c, 0, 71, 64
1, 23870, Note_on_c, 0, 71, 0
1, 23880, Note_on_c, 0, 72, 64
1, 23990, Note_on_c, 0, 72, 0
1, 24000, Note_on_c, 0, 74, 80
1, 24059, Note_on_c, 0, 74, 0
1, 24060, Note_on_c, 0, 72, 80
1, 24119, Note_on_c, 0, 72, 0
1, 24120, Note_on_c, 0, 71, 80
1, 24239, Note_on_c, 0, 71, 0
1, 24240, Note_on_c, 0, 69, 64
1, 24350, Note_on_c, 0, 69, 0
1, 24360, Note_on_c, 0, 67, 64
1, 24470, Note_on_c, 0, 67, 0
1, 24480, Note_on_c, 0, 74, 64
1, 24535, Note_on_c, 0, 74, 0
1, 24540, Note_on_c, 0, 76, 64
1, 24595, Note_on_c, 0, 76, 0
1, 24600, Note_on_c, 0, 74, 64
1, 24655, Note_on_c, 0, 74, 0
1, 24660, Note_on_c, 0, 73, 64
1, 24715, Note_on_c, 0, 73, 0
1, 24720, Note_on_c, 0, 74, 64
1, 24839, Note_on_c, 0, 62, 0
1, 24840, Note_on_c, 0, 57, 80
1, 24959, Note_on_c, 0, 57, 0
1, 24960, Note_on_c, 0, 62, 80
1, 25019, Note_on_c, 0, 74, 0
1, 25020, Note_on_c, 0, 73, 64
1, 25075, Note_on_c, 0, 73, 0
1, 25080, Note_on_c, 0, 74, 64
1, 25135, Note_on_c, 0, 74, 0
1, 25140, Note_on_c, 0, 76, 64
1, 25195, Note_on_c, 0, 76, 0
1, 25200, Note_on_c, 0, 78, 64
1, 25310, Note_on_c, 0, 78, 0
1, 25320, Note_on_c, 0, 79, 64
1, 25430, Note_on_c, 0, 79, 0
1, 25440, Note_on_c, 0, 81, 64
1, 25467, Note_on_c, 0, 81, 0
1, 25470, Note_on_c, 0, 79, 64
1, 25529, Note_on_c, 0, 79, 0
1, 25560, Note_on_c, 0, 78, 80
1, 25679, Note_on_c, 0, 78, 0
1, 25680, Note_on_c, 0, 76, 64
1, 25790, Note_on_c, 0, 76, 0
1, 25800, Note_on_c, 0, 74, 64
1, 25910, Note_on_c, 0, 74, 0
1, 25920, Note_on_c, 0, 79, 80
1, 25979, Note_on_c, 0, 79, 0
1, 25980, Note_on_c, 0, 81, 80
1, 26039, Note_on_c, 0, 81, 0
1, 26040, Note_on_c, 0, 79, 80
1, 26099, Note_on_c, 0, 79, 0
1, 26100, Note_on_c, 0, 78, 80
1, 26159, Note_on_c, 0, 78, 0
1, 26160, Note_on_c, 0, 79, 80
1, 26279, Note_on_c, 0, 62, 0
1, 26280, Note_on_c, 0, 59, 80
1, 26399, Note_on_c, 0, 59, 0
1, 26400, Note_on_c, 0, 61, 80
1, 26459, Note_on_c, 0, 79, 0
1, 26460, Note_on_c, 0, 78, 80
1, 26519, Note_on_c, 0, 78, 0
1, 26520, Note_on_c, 0, 76, 80
1, 26579, Note_on_c, 0, 76, 0
1, 26580, Note_on_c, 0, 78, 80
1, 26639, Note_on_c, 0, 78, 0
1, 26640, Note_on_c, 0, 79, 80
1, 26759, Note_on_c, 0, 79, 0
1, 26760, Note_on_c, 0, 76, 80
1, 26879, Note_on_c, 0, 76, 0
1, 26880, Note_on_c, 0, 69, 80
1, 26999, Note_on_c, 0, 69, 0
1, 27000, Note_on_c, 0, 83, 80
1, 27119, Note_on_c, 0, 83, 0
1, 27120, Note_on_c, 0, 81, 80
1, 27239, Note_on_c, 0, 81, 0
1, 27240, Note_on_c, 0, 79, 80
1, 27359, Note_on_c, 0, 61, 0
1, 27359, Note_on_c, 0, 79, 0
1, 27360, Note_on_c, 0, 79, 80
1, 27389, Note_on_c, 0, 79, 0
1, 27390, Note_on_c, 0, 78, 80
1, 27419, Note_on_c, 0, 78, 0
1, 27420, Note_on_c, 0, 76, 80
1, 27479, Note_on_c, 0, 76, 0
1, 27480, Note_on_c, 0, 78, 80
1, 27539, Note_on_c, 0, 78, 0
1, 27540, Note_on_c, 0, 76, 80
1, 27599, Note_on_c, 0, 76, 0
1, 27600, Note_on_c, 0, 74, 80
1, 27720, Note_on_c, 0, 54, 80
1, 27839, Note_on_c, 0, 54, 0
1, 27840, Note_on_c, 0, 57, 80
1, 27899, Note_on_c, 0, 74, 0
1, 27900, Note_on_c, 0, 73, 80
1, 27959, Note_on_c, 0, 73, 0
1, 27960, Note_on_c, 0, 74, 80
1, 28019, Note_on_c, 0, 74, 0
1, 28020, Note_on_c, 0, 76, 80
1, 28079, Note_on_c, 0, 76, 0
1, 28080, Note_on_c, 0, 78, 80
1, 28199, Note_on_c, 0, 78, 0
1, 28200, Note_on_c, 0, 79, 80
1, 28319, Note_on_c, 0, 79, 0
1, 28320, Note_on_c, 0, 81, 80
1, 28439, Note_on_c, 0, 81, 0
1, 28440, Note_on_c, 0, 83, 80
1, 28499, Note_on_c, 0, 83, 0
1, 28500, Note_on_c, 0, 84, 80
1, 28559, Note_on_c, 0, 84, 0
1, 28560, Note_on_c, 0, 83, 80
1, 28679, Note_on_c, 0, 83, 0
1, 28680, Note_on_c, 0, 81, 80
1, 28799, Note_on_c, 0, 57, 0
1, 28799, Note_on_c, 0, 81, 0
1, 28800, Note_on_c, 0, 79, 80
1, 28859, Note_on_c, 0, 79, 0
1, 28860, Note_on_c, 0, 77, 80
1, 28919, Note_on_c, 0, 77, 0
1, 28920, Note_on_c, 0, 76, 80
1, 29039, Note_on_c, 0, 76, 0
1, 29040, Note_on_c, 0, 77, 80
1, 29099, Note_on_c, 0, 77, 0
1, 29100, Note_on_c, 0, 76, 80
1, 29159, Note_on_c, 0, 76, 0
1, 29160, Note_on_c, 0, 54, 80
1, 29160, Note_on_c, 0, 77, 80
1, 29279, Note_on_c, 0, 54, 0
1, 29280, Note_on_c, 0, 57, 80
1, 29339, Note_on_c, 0, 77, 0
1, 29340, Note_on_c, 0, 74, 80
1, 29399, Note_on_c, 0, 74, 0
1, 29400, Note_on_c, 0, 79, 80
1, 29459, Note_on_c, 0, 79, 0
1, 29460, Note_on_c, 0, 81, 80
1, 29519, Note_on_c, 0, 81, 0
1, 29520, Note_on_c, 0, 83, 80
1, 29579, Note_on_c, 0, 83, 0
1, 29580, Note_on_c, 0, 84, 80
1, 29639, Note_on_c, 0, 84, 0
1, 29640, Note_on_c, 0, 86, 80
1, 29759, Note_on_c, 0, 86, 0
1, 29760, Note_on_c, 0, 84, 80
1, 29879, Note_on_c, 0, 84, 0
1, 29880, Note_on_c, 0, 83, 80
1, 29999, Note_on_c, 0, 83, 0
1, 30000, Note_on_c, 0, 81, 80
1, 30119, Note_on_c, 0, 81, 0
1, 30120, Note_on_c, 0, 79, 80
1, 30239, Note_on_c, 0, 57, 0
1, 30239, Note_on_c, 0, 79, 0
1, 30240, Note_on_c, 0, 55, 80
1, 30240, Note_on_c, 0, 77, 64
1, 30295, Note_on_c, 0, 77, 0
1, 30300, Note_on_c, 0, 76, 64
1, 30355, Note_on_c, 0, 76, 0
1, 30360, Note_on_c, 0, 74, 64
1, 30470, Note_on_c, 0, 74, 0
1, 30480, Note_on_c, 0, 74, 64
1, 30590, Note_on_c, 0, 74, 0
1, 30599, Note_on_c, 0, 55, 0
1, 30600, Note_on_c, 0, 54, 80
1, 30600, Note_on_c, 0, 76, 64
1, 30719, Note_on_c, 0, 54, 0
1, 30720, Note_on_c, 0, 55, 80
1, 30779, Note_on_c, 0, 76, 0
1, 30780, Note_on_c, 0, 74, 64
1, 30835, Note_on_c, 0, 74, 0
1, 30840, Note_on_c, 0, 72, 64
1, 30895, Note_on_c, 0, 72, 0
1, 30900, Note_on_c, 0, 71, 64
1, 30955, Note_on_c, 0, 71, 0
1, 30960, Note_on_c, 0, 72, 64
1, 31015, Note_on_c, 0, 72, 0
1, 31020, Note_on_c, 0, 74, 64
1, 31075, Note_on_c, 0, 74, 0
1, 31080, Note_on_c, 0, 76, 64
1, 31190, Note_on_c, 0, 76, 0
1, 31200, Note_on_c, 0, 74, 64
1, 31310, Note_on_c, 0, 74, 0
1, 31320, Note_on_c, 0, 79, 64
1, 31430, Note_on_c, 0, 79, 0
1, 31440, Note_on_c, 0, 76, 64
1, 31550, Note_on_c, 0, 76, 0
1, 31560, Note_on_c, 0, 72, 64
1, 31670, Note_on_c, 0, 72, 0
1, 31680, Note_on_c, 0, 71, 64
1, 31735, Note_on_c, 0, 71, 0
1, 31740, Note_on_c, 0, 69, 64
1, 31795, Note_on_c, 0, 69, 0
1, 31800, Note_on_c, 0, 67, 64
1, 31910, Note_on_c, 0, 67, 0
1, 31920, Note_on_c, 0, 69, 64
1, 32039, Note_on_c, 0, 55, 0
1, 32040, Note_on_c, 0, 52, 80
1, 32159, Note_on_c, 0, 52, 0
1, 32160, Note_on_c, 0, 54, 80
1, 32219, Note_on_c, 0, 69, 0
1, 32220, Note_on_c, 0, 67, 64
1, 32275, Note_on_c, 0, 67, 0
1, 32280, Note_on_c, 0, 69, 64
1, 32335, Note_on_c, 0, 69, 0
1, 32340, Note_on_c, 0, 71, 64
1, 32395, Note_on_c, 0, 71, 0
1, 32400, Note_on_c, 0, 72, 64
1, 32455, Note_on_c, 0, 72, 0
1, 32460, Note_on_c, 0, 66, 64
1, 32515, Note_on_c, 0, 66, 0
1, 32520, Note_on_c, 0, 67, 64
1, 32575, Note_on_c, 0, 67, 0
1, 32580, Note_on_c, 0, 69, 64
1, 32635, Note_on_c, 0, 69, 0
1, 32640, Note_on_c, 0, 62, 64
1, 32695, Note_on_c, 0, 62, 0
1, 32700, Note_on_c, 0, 66, 64
1, 32755, Note_on_c, 0, 66, 0
1, 32760, Note_on_c, 0, 64, 64
1, 32815, Note_on_c, 0, 64, 0
1, 32820, Note_on_c, 0, 62, 64
1, 32875, Note_on_c, 0, 62, 0
1, 32880, Note_on_c, 0, 69, 64
1, 32935, Note_on_c, 0, 69, 0
1, 32940, Note_on_c, 0, 67, 64
1, 32995, Note_on_c, 0, 67, 0
1, 33000, Note_on_c, 0, 66, 64
1, 33055, Note_on_c, 0, 66, 0
1, 33060, Note_on_c, 0, 72, 64
1, 33119, Note_on_c, 0, 54, 0
1, 33179, Note_on_c, 0, 72, 0
1, 33180, Note_on_c, 0, 71, 64
1, 33235, Note_on_c, 0, 71, 0
1, 33240, Note_on_c, 0, 69, 64
1, 33350, Note_on_c, 0, 69, 0
1, 33360, Note_on_c, 0, 71, 64
1, 33480, Note_on_c, 0, 54, 80
1, 33599, Note_on_c, 0, 54, 0
1, 33600, Note_on_c, 0, 55, 80
1, 33659, Note_on_c, 0, 71, 0
1, 33660, Note_on_c, 0, 69, 64
1, 33715, Note_on_c, 0, 69, 0
1, 33720, Note_on_c, 0, 67, 64
1, 33775, Note_on_c, 0, 67, 0
1, 33780, Note_on_c, 0, 66, 64
1, 33835, Note_on_c, 0, 66, 0
1, 33840, Note_on_c, 0, 67, 64
1, 33895, Note_on_c, 0, 67, 0
1, 33900, Note_on_c, 0, 71, 64
1, 33955, Note_on_c, 0, 71, 0
1, 33960, Note_on_c, 0, 74, 64
1, 34015, Note_on_c, 0, 74, 0
1, 34020, Note_on_c, 0, 78, 64
1, 34075, Note_on_c, 0, 78, 0
1, 34079, Note_on_c, 0, 55, 0
1, 34080, Note_on_c, 0, 79, 64
1, 34135, Note_on_c, 0, 79, 0
1, 34140, Note_on_c, 0, 78, 64
1, 34195, Note_on_c, 0, 78, 0
1, 34200, Note_on_c, 0, 76, 64
1, 34255, Note_on_c, 0, 76, 0
1, 34260, Note_on_c, 0, 74, 64
1, 34315, Note_on_c, 0, 74, 0
1, 34320, Note_on_c, 0, 78, 64
1, 34375, Note_on_c, 0, 78, 0
1, 34380, Note_on_c, 0, 81, 64
1, 34435, Note_on_c, 0, 81, 0
1, 34440, Note_on_c, 0, 83, 64
1, 34495, Note_on_c, 0, 83, 0
1, 34500, Note_on_c, 0, 84, 64
1, 34555, Note_on_c, 0, 84, 0
1, 34560, Note_on_c, 0, 83, 64
1, 34615, Note_on_c, 0, 83, 0
1, 34620, Note_on_c, 0, 81, 64
1, 34675, Note_on_c, 0, 81, 0
1, 34680, Note_on_c, 0, 79, 64
1, 34800, Note_on_c, 0, 59, 80
1, 34859, Note_on_c, 0, 79, 0
1, 34860, Note_on_c, 0, 78, 64
1, 34915, Note_on_c, 0, 78, 0
1, 34920, Note_on_c, 0, 76, 64
1, 35039, Note_on_c, 0, 59, 0
1, 35040, Note_on_c, 0, 64, 80
1, 35099, Note_on_c, 0, 76, 0
1, 35100, Note_on_c, 0, 75, 64
1, 35155, Note_on_c, 0, 75, 0
1, 35160, Note_on_c, 0, 76, 64
1, 35339, Note_on_c, 0, 76, 0
1, 35340, Note_on_c, 0, 78, 64
1, 35395, Note_on_c, 0, 78, 0
1, 35400, Note_on_c, 0, 79, 64
1, 35579, Note_on_c, 0, 79, 0
1, 35580, Note_on_c, 0, 81, 64
1, 35635, Note_on_c, 0, 81, 0
1, 35640, Note_on_c, 0, 83, 64
1, 35819, Note_on_c, 0, 83, 0
1, 35820, Note_on_c, 0, 79, 64
1, 35875, Note_on_c, 0, 79, 0
1, 35880, Note_on_c, 0, 78, 64
1, 35935, Note_on_c, 0, 78, 0
1, 35940, Note_on_c, 0, 76, 64
1, 35995, Note_on_c, 0, 76, 0
1, 36000, Note_on_c, 0, 81, 64
1, 36055, Note_on_c, 0, 81, 0
1, 36060, Note_on_c, 0, 79, 64
1, 36115, Note_on_c, 0, 79, 0
1, 36120, Note_on_c, 0, 78, 64
1, 36239, Note_on_c, 0, 64, 0
1, 36240, Note_on_c, 0, 57, 80
1, 36299, Note_on_c, 0, 78, 0
1, 36300, Note_on_c, 0, 76, 64
1, 36355, Note_on_c, 0, 76, 0
1, 36360, Note_on_c, 0, 74, 64
1, 36479, Note_on_c, 0, 57, 0
1, 36480, Note_on_c, 0, 62, 80
1, 36539, Note_on_c, 0, 74, 0
1, 36540, Note_on_c, 0, 73, 64
1, 36595, Note_on_c, 0, 73, 0
1, 36600, Note_on_c, 0, 74, 64
1, 36779, Note_on_c, 0, 74, 0
1, 36780, Note_on_c, 0, 76, 64
1, 36835, Note_on_c, 0, 76, 0
1, 36840, Note_on_c, 0, 78, 64
1, 37019, Note_on_c, 0, 78, 0
1, 37020, Note_on_c, 0, 79, 64
1, 37075, Note_on_c, 0, 79, 0
1, 37080, Note_on_c, 0, 81, 64
1, 37259, Note_on_c, 0, 81, 0
1, 37260, Note_on_c, 0, 78, 64
1, 37315, Note_on_c, 0, 78, 0
1, 37320, Note_on_c, 0, 76, 64
1, 37375, Note_on_c, 0, 76, 0
1, 37380, Note_on_c, 0, 74, 64
1, 37435, Note_on_c, 0, 74, 0
1, 37440, Note_on_c, 0, 79, 64
1, 37495, Note_on_c, 0, 79, 0
1, 37500, Note_on_c, 0, 81, 64
1, 37555, Note_on_c, 0, 81, 0
1, 37560, Note_on_c, 0, 83, 64
1, 37615, Note_on_c, 0, 83, 0
1, 37620, Note_on_c, 0, 81, 64
1, 37675, Note_on_c, 0, 81, 0
1, 37679, Note_on_c, 0, 62, 0
1, 37680, Note_on_c, 0, 57, 80
1, 37680, Note_on_c, 0, 79, 64
1, 37790, Note_on_c, 0, 79, 0
1, 37800, Note_on_c, 0, 78, 64
1, 37910, Note_on_c, 0, 78, 0
1, 37919, Note_on_c, 0, 57, 0
1, 37920, Note_on_c, 0, 55, 80
1, 37920, Note_on_c, 0, 76, 64
1, 37975, Note_on_c, 0, 76, 0
1, 37980, Note_on_c, 0, 78, 64
1, 38035, Note_on_c, 0, 78, 0
1, 38040, Note_on_c, 0, 79, 64
1, 38095, Note_on_c, 0, 79, 0
1, 38100, Note_on_c, 0, 78, 64
1, 38155, Note_on_c, 0, 78, 0
1, 38160, Note_on_c, 0, 76, 64
1, 38270, Note_on_c, 0, 76, 0
1, 38280, Note_on_c, 0, 74, 64
1, 38390, Note_on_c, 0, 74, 0
1, 38400, Note_on_c, 0, 73, 64
1, 38455, Note_on_c, 0, 73, 0
1, 38460, Note_on_c, 0, 74, 64
1, 38515, Note_on_c, 0, 74, 0
1, 38520, Note_on_c, 0, 76, 64
1, 38575, Note_on_c, 0, 76, 0
1, 38580, Note_on_c, 0, 74, 64
1, 38635, Note_on_c, 0, 74, 0
1, 38640, Note_on_c, 0, 73, 64
1, 38750, Note_on_c, 0, 73, 0
1, 38760, Note_on_c, 0, 71, 64
1, 38870, Note_on_c, 0, 71, 0
1, 38880, Note_on_c, 0, 71, 80
1, 38939, Note_on_c, 0, 71, 0
1, 38940, Note_on_c, 0, 69, 80
1, 38999, Note_on_c, 0, 69, 0
1, 38999, Note_on_c, 0, 55, 0
1, 39000, Note_on_c, 0, 57, 80
1, 39000, Note_on_c, 0, 71, 80
1, 39059, Note_on_c, 0, 71, 0
1, 39060, Note_on_c, 0, 69, 80
1, 39119, Note_on_c, 0, 57, 0
1, 39119, Note_on_c, 0, 69, 0
1, 39120, Note_on_c, 0, 55, 80
1, 39120, Note_on_c, 0, 71, 80
1, 39179, Note_on_c, 0, 71, 0
1, 39180, Note_on_c, 0, 69, 80
1, 39239, Note_on_c, 0, 55, 0
1, 39239, Note_on_c, 0, 69, 0
1, 39240, Note_on_c, 0, 54, 80
1, 39240, Note_on_c, 0, 71, 80
1, 39299, Note_on_c, 0, 71, 0
1, 39300, Note_on_c, 0, 69, 80
1, 39359, Note_on_c, 0, 54, 0
1, 39359, Note_on_c, 0, 69, 0
1, 39360, Note_on_c, 0, 55, 80
1, 39360, Note_on_c, 0, 71, 80
1, 39419, Note_on_c, 0, 71, 0
1, 39420, Note_on_c, 0, 69, 80
1, 39479, Note_on_c, 0, 69, 0
1, 39480, Note_on_c, 0, 71, 80
1, 39539, Note_on_c, 0, 71, 0
1, 39540, Note_on_c, 0, 69, 80
1, 39599, Note_on_c, 0, 55, 0
1, 39599, Note_on_c, 0, 69, 0
1, 39600, Note_on_c, 0, 69, 80
1, 39659, Note_on_c, 0, 69, 0
1, 39660, Note_on_c, 0, 73, 80
1, 39719, Note_on_c, 0, 73, 0
1, 39720, Note_on_c, 0, 71, 80
1, 39779, Note_on_c, 0, 71, 0
1, 39780, Note_on_c, 0, 69, 80
1, 39839, Note_on_c, 0, 69, 0
1, 39840, Note_on_c, 0, 71, 80
1, 39899, Note_on_c, 0, 71, 0
1, 39900, Note_on_c, 0, 73, 80
1, 39959, Note_on_c, 0, 73, 0
1, 39960, Note_on_c, 0, 74, 80
1, 40019, Note_on_c, 0, 74, 0
1, 40020, Note_on_c, 0, 76, 80
1, 40079, Note_on_c, 0, 76, 0
1, 40080, Note_on_c, 0, 78, 80
1, 40199, Note_on_c, 0, 78, 0
1, 40200, Note_on_c, 0, 81, 80
1, 40229, Note_on_c, 0, 81, 0
1, 40230, Note_on_c, 0, 79, 80
1, 40259, Note_on_c, 0, 79, 0
1, 40260, Note_on_c, 0, 78, 80
1, 40289, Note_on_c, 0, 78, 0
1, 40290, Note_on_c, 0, 79, 80
1, 40319, Note_on_c, 0, 79, 0
1, 40320, Note_on_c, 0, 81, 80
1, 40379, Note_on_c, 0, 81, 0
1, 40380, Note_on_c, 0, 74, 80
1, 40439, Note_on_c, 0, 74, 0
1, 40440, Note_on_c, 0, 73, 80
1, 40499, Note_on_c, 0, 73, 0
1, 40500, Note_on_c, 0, 74, 80
1, 40559, Note_on_c, 0, 74, 0
1, 40560, Note_on_c, 0, 76, 80
1, 40619, Note_on_c, 0, 76, 0
1, 40620, Note_on_c, 0, 74, 80
1, 40679, Note_on_c, 0, 74, 0
1, 40680, Note_on_c, 0, 73, 80
1, 40739, Note_on_c, 0, 73, 0
1, 40740, Note_on_c, 0, 74, 80
1, 40799, Note_on_c, 0, 74, 0
1, 40800, Note_on_c, 0, 69, 80
1, 40859, Note_on_c, 0, 69, 0
1, 40860, Note_on_c, 0, 74, 80
1, 40919, Note_on_c, 0, 74, 0
1, 40920, Note_on_c, 0, 67, 80
1, 40979, Note_on_c, 0, 67, 0
1, 40980, Note_on_c, 0, 74, 80
1, 41039, Note_on_c, 0, 74, 0
1, 41040, Note_on_c, 0, 66, 80
1, 41099, Note_on_c, 0, 66, 0
1, 41100, Note_on_c, 0, 74, 80
1, 41159, Note_on_c, 0, 74, 0
1, 41160, Note_on_c, 0, 64, 80
1, 41219, Note_on_c, 0, 64, 0
1, 41220, Note_on_c, 0, 74, 80
1, 41279, Note_on_c, 0, 74, 0
1, 41280, Note_on_c, 0, 66, 80
1, 41339, Note_on_c, 0, 66, 0
1, 41340, Note_on_c, 0, 74, 80
1, 41399, Note_on_c, 0, 74, 0
1, 41400, Note_on_c, 0, 69, 80
1, 41459, Note_on_c, 0, 69, 0
1, 41460, Note_on_c, 0, 74, 80
1, 41519, Note_on_c, 0, 74, 0
1, 41520, Note_on_c, 0, 66, 80
1, 41579, Note_on_c, 0, 66, 0
1, 41580, Note_on_c, 0, 74, 80
1, 41639, Note_on_c, 0, 74, 0
1, 41640, Note_on_c, 0, 62, 80
1, 41699, Note_on_c, 0, 62, 0
1, 41700, Note_on_c, 0, 72, 80
1, 41759, Note_on_c, 0, 72, 0
1, 41760, Note_on_c, 0, 71, 64
1, 41815, Note_on_c, 0, 71, 0
1, 41820, Note_on_c, 0, 74, 64
1, 41875, Note_on_c, 0, 74, 0
1, 41880, Note_on_c, 0, 73, 64
1, 41935, Note_on_c, 0, 73, 0
1, 41940, Note_on_c, 0, 74, 64
1, 41995, Note_on_c, 0, 74, 0
1, 42000, Note_on_c, 0, 76, 64
1, 42055, Note_on_c, 0, 76, 0
1, 42060, Note_on_c, 0, 74, 64
1, 42115, Note_on_c, 0, 74, 0
1, 42120, Note_on_c, 0, 73, 64
1, 42175, Note_on_c, 0, 73, 0
1, 42180, Note_on_c, 0, 74, 64
1, 42235, Note_on_c, 0, 74, 0
1, 42240, Note_on_c, 0, 71, 64
1, 42295, Note_on_c, 0, 71, 0
1, 42300, Note_on_c, 0, 74, 64
1, 42355, Note_on_c, 0, 74, 0
1, 42360, Note_on_c, 0, 69, 64
1, 42415, Note_on_c, 0, 69, 0
1, 42420, Note_on_c, 0, 74, 64
1, 42475, Note_on_c, 0, 74, 0
1, 42480, Note_on_c, 0, 67, 64
1, 42535, Note_on_c, 0, 67, 0
1, 42540, Note_on_c, 0, 74, 64
1, 42595, Note_on_c, 0, 74, 0
1, 42600, Note_on_c, 0, 66, 64
1, 42655, Note_on_c, 0, 66, 0
1, 42660, Note_on_c, 0, 74, 64
1, 42715, Note_on_c, 0, 74, 0
1, 42720, Note_on_c, 0, 67, 64
1, 42775, Note_on_c, 0, 67, 0
1, 42780, Note_on_c, 0, 74, 64
1, 42835, Note_on_c, 0, 74, 0
1, 42840, Note_on_c, 0, 71, 64
1, 42895, Note_on_c, 0, 71, 0
1, 42900, Note_on_c, 0, 74, 64
1, 42955, Note_on_c, 0, 74, 0
1, 42960, Note_on_c, 0, 67, 64
1, 43015, Note_on_c, 0, 67, 0
1, 43020, Note_on_c, 0, 74, 64
1, 43075, Note_on_c, 0, 74, 0
1, 43080, Note_on_c, 0, 64, 64
1, 43135, Note_on_c, 0, 64, 0
1, 43140, Note_on_c, 0, 74, 64
1, 43195, Note_on_c, 0, 74, 0
1, 43200, Note_on_c, 0, 57, 80
1, 43200, Note_on_c, 0, 73, 64
1, 43255, Note_on_c, 0, 73, 0
1, 43260, Note_on_c, 0, 67, 64
1, 43315, Note_on_c, 0, 67, 0
1, 43320, Note_on_c, 0, 66, 64
1, 43375, Note_on_c, 0, 66, 0
1, 43380, Note_on_c, 0, 67, 64
1, 43435, Note_on_c, 0, 67, 0
1, 43439, Note_on_c, 0, 57, 0
1, 43440, Note_on_c, 0, 61, 80
1, 43440, Note_on_c, 0, 69, 64
1, 43495, Note_on_c, 0, 69, 0
1, 43500, Note_on_c, 0, 67, 64
1, 43555, Note_on_c, 0, 67, 0
1, 43560, Note_on_c, 0, 66, 64
1, 43615, Note_on_c, 0, 66, 0
1, 43620, Note_on_c, 0, 67, 64
1, 43675, Note_on_c, 0, 67, 0
1, 43679, Note_on_c, 0, 61, 0
1, 43680, Note_on_c, 0, 67, 80
1, 43680, Note_on_c, 0, 76, 64
1, 43735, Note_on_c, 0, 76, 0
1, 43740, Note_on_c, 0, 73, 64
1, 43795, Note_on_c, 0, 73, 0
1, 43800, Note_on_c, 0, 71, 64
1, 43855, Note_on_c, 0, 71, 0
1, 43860, Note_on_c, 0, 73, 64
1, 43915, Note_on_c, 0, 73, 0
1, 43919, Note_on_c, 0, 67, 0
1, 43920, Note_on_c, 0, 64, 80
1, 43920, Note_on_c, 0, 74, 64
1, 43975, Note_on_c, 0, 74, 0
1, 43980, Note_on_c, 0, 73, 64
1, 44035, Note_on_c, 0, 73, 0
1, 44040, Note_on_c, 0, 71, 64
1, 44095, Note_on_c, 0, 71, 0
1, 44100, Note_on_c, 0, 73, 64
1, 44155, Note_on_c, 0, 73, 0
1, 44159, Note_on_c, 0, 64, 0
1, 44160, Note_on_c, 0, 61, 80
1, 44160, Note_on_c, 0, 79, 64
1, 44215, Note_on_c, 0, 79, 0
1, 44220, Note_on_c, 0, 76, 64
1, 44275, Note_on_c, 0, 76, 0
1, 44280, Note_on_c, 0, 74, 64
1, 44335, Note_on_c, 0, 74, 0
1, 44340, Note_on_c, 0, 76, 64
1, 44395, Note_on_c, 0, 76, 0
1, 44400, Note_on_c, 0, 81, 64
1, 44455, Note_on_c, 0, 81, 0
1, 44460, Note_on_c, 0, 79, 64
1, 44515, Note_on_c, 0, 79, 0
1, 44520, Note_on_c, 0, 78, 64
1, 44575, Note_on_c, 0, 78, 0
1, 44580, Note_on_c, 0, 76, 64
1, 44635, Note_on_c, 0, 76, 0
1, 44639, Note_on_c, 0, 61, 0
1, 44640, Note_on_c, 0, 78, 64
1, 44750, Note_on_c, 0, 78, 0
1, 44760, Note_on_c, 0, 73, 64
1, 44870, Note_on_c, 0, 73, 0
1, 44880, Note_on_c, 0, 73, 64
1, 44990, Note_on_c, 0, 73, 0
1, 45000, Note_on_c, 0, 74, 64
1, 45110, Note_on_c, 0, 74, 0
1, 45120, Note_on_c, 0, 74, 64
1, 45230, Note_on_c, 0, 74, 0
1, 45240, Note_on_c, 0, 67, 64
1, 45350, Note_on_c, 0, 67, 0
1, 45360, Note_on_c, 0, 61, 80
1, 45360, Note_on_c, 0, 67, 64
1, 45470, Note_on_c, 0, 67, 0
1, 45480, Note_on_c, 0, 66, 64
1, 45590, Note_on_c, 0, 66, 0
1, 45599, Note_on_c, 0, 61, 0
1, 45600, Note_on_c, 0, 62, 80
1, 45600, Note_on_c, 0, 66, 64
1, 46070, Note_on_c, 0, 66, 0
1, 46079, Note_on_c, 0, 62, 0
1, 46080, Note_on_c, 0, 78, 80
1, 46139, Note_on_c, 0, 78, 0
1, 46140, Note_on_c, 0, 79, 80
1, 46199, Note_on_c, 0, 79, 0
1, 46200, Note_on_c, 0, 78, 80
1, 46259, Note_on_c, 0, 78, 0
1, 46260, Note_on_c, 0, 76, 80
1, 46319, Note_on_c, 0, 76, 0
1, 46320, Note_on_c, 0, 78, 80
1, 46440, Note_on_c, 0, 66, 80
1, 46559, Note_on_c, 0, 66, 0
1, 46560, Note_on_c, 0, 69, 80
1, 46619, Note_on_c, 0, 78, 0
1, 46620, Note_on_c, 0, 76, 80
1, 46679, Note_on_c, 0, 76, 0
1, 46680, Note_on_c, 0, 78, 80
1, 46739, Note_on_c, 0, 78, 0
1, 46740, Note_on_c, 0, 79, 80
1, 46799, Note_on_c, 0, 79, 0
1, 46800, Note_on_c, 0, 81, 80
1, 46919, Note_on_c, 0, 81, 0
1, 46920, Note_on_c, 0, 83, 80
1, 47039, Note_on_c, 0, 83, 0
1, 47040, Note_on_c, 0, 84, 80
1, 47099, Note_on_c, 0, 84, 0
1, 47100, Note_on_c, 0, 83, 80
1, 47159, Note_on_c, 0, 83, 0
1, 47160, Note_on_c, 0, 81, 80
1, 47279, Note_on_c, 0, 81, 0
1, 47280, Note_on_c, 0, 79, 80
1, 47399, Note_on_c, 0, 79, 0
1, 47400, Note_on_c, 0, 78, 80
1, 47519, Note_on_c, 0, 69, 0
1, 47519, Note_on_c, 0, 78, 0
1, 47520, Note_on_c, 0, 79, 64
1, 47575, Note_on_c, 0, 79, 0
1, 47580, Note_on_c, 0, 81, 64
1, 47635, Note_on_c, 0, 81, 0
1, 47640, Note_on_c, 0, 79, 64
1, 47695, Note_on_c, 0, 79, 0
1, 47700, Note_on_c, 0, 78, 64
1, 47755, Note_on_c, 0, 78, 0
1, 47760, Note_on_c, 0, 79, 64
1, 47880, Note_on_c, 0, 62, 80
1, 47999, Note_on_c, 0, 62, 0
1, 48000, Note_on_c, 0, 67, 80
1, 48059, Note_on_c, 0, 79, 0
1, 48060, Note_on_c, 0, 66, 64
1, 48115, Note_on_c, 0, 66, 0
1, 48120, Note_on_c, 0, 67, 64
1, 48175, Note_on_c, 0, 67, 0
1, 48180, Note_on_c, 0, 69, 64
1, 48235, Note_on_c, 0, 69, 0
1, 48240, Note_on_c, 0, 71, 64
1, 48350, Note_on_c, 0, 71, 0
1, 48360, Note_on_c, 0, 72, 64
1, 48470, Note_on_c, 0, 72, 0
1, 48480, Note_on_c, 0, 74, 64
1, 48507, Note_on_c, 0, 74, 0
1, 48510, Note_on_c, 0, 72, 64
1, 48569, Note_on_c, 0, 72, 0
1, 48600, Note_on_c, 0, 71, 80
1, 48719, Note_on_c, 0, 71, 0
1, 48720, Note_on_c, 0, 69, 64
1, 48830, Note_on_c, 0, 69, 0
1, 48840, Note_on_c, 0, 67, 64
1, 48950, Note_on_c, 0, 67, 0
1, 48960, Note_on_c, 0, 76, 64
1, 49015, Note_on_c, 0, 76, 0
1, 49020, Note_on_c, 0, 78, 64
1, 49075, Note_on_c, 0, 78, 0
1, 49080, Note_on_c, 0, 76, 64
1, 49135, Note_on_c, 0, 76, 0
1, 49140, Note_on_c, 0, 75, 64
1, 49195, Note_on_c, 0, 75, 0
1, 49200, Note_on_c, 0, 76, 64
1, 49319, Note_on_c, 0, 67, 0
1, 49320, Note_on_c, 0, 68, 80
1, 49439, Note_on_c, 0, 68, 0
1, 49440, Note_on_c, 0, 69, 80
1, 49559, Note_on_c, 0, 76, 0
1, 49560, Note_on_c, 0, 80, 64
1, 49670, Note_on_c, 0, 80, 0
1, 49679, Note_on_c, 0, 69, 0
1, 49680, Note_on_c, 0, 62, 80
1, 49680, Note_on_c, 0, 80, 64
1, 49790, Note_on_c, 0, 80, 0
1, 49800, Note_on_c, 0, 81, 64
1, 49910, Note_on_c, 0, 81, 0
1, 49919, Note_on_c, 0, 62, 0
1, 49920, Note_on_c, 0, 64, 80
1, 49920, Note_on_c, 0, 81, 64
1, 50030, Note_on_c, 0, 81, 0
1, 50040, Note_on_c, 0, 83, 64
1, 50150, Note_on_c, 0, 83, 0
1, 50159, Note_on_c, 0, 64, 0
1, 50160, Note_on_c, 0, 67, 80
1, 50160, Note_on_c, 0, 83, 64
1, 50270, Note_on_c, 0, 83, 0
1, 50280, Note_on_c, 0, 84, 64
1, 50390, Note_on_c, 0, 84, 0
1, 50400, Note_on_c, 0, 76, 64
1, 50455, Note_on_c, 0, 76, 0
1, 50460, Note_on_c, 0, 75, 64
1, 50515, Note_on_c, 0, 75, 0
1, 50520, Note_on_c, 0, 73, 64
1, 50630, Note_on_c, 0, 73, 0
1, 50639, Note_on_c, 0, 67, 0
1, 50640, Note_on_c, 0, 66, 80
1, 50640, Note_on_c, 0, 75, 64
1, 50695, Note_on_c, 0, 75, 0
1, 50700, Note_on_c, 0, 73, 64
1, 50727, Note_on_c, 0, 73, 0
1, 50759, Note_on_c, 0, 66, 0
1, 50760, Note_on_c, 0, 64, 80
1, 50760, Note_on_c, 0, 75, 80
1, 50879, Note_on_c, 0, 64, 0
1, 50880, Note_on_c, 0, 66, 80
1, 51119, Note_on_c, 0, 66, 0
1, 51179, Note_on_c, 0, 75, 0
1, 51180, Note_on_c, 0, 75, 64
1, 51235, Note_on_c, 0, 75, 0
1, 51240, Note_on_c, 0, 76, 64
1, 51295, Note_on_c, 0, 76, 0
1, 51300, Note_on_c, 0, 78, 64
1, 51355, Note_on_c, 0, 78, 0
1, 51360, Note_on_c, 0, 76, 64
1, 51415, Note_on_c, 0, 76, 0
1, 51420, Note_on_c, 0, 75, 64
1, 51475, Note_on_c, 0, 75, 0
1, 51480, Note_on_c, 0, 73, 64
1, 51535, Note_on_c, 0, 73, 0
1, 51540, Note_on_c, 0, 71, 64
1, 51595, Note_on_c, 0, 71, 0
1, 51600, Note_on_c, 0, 69, 64
1, 51655, Note_on_c, 0, 69, 0
1, 51660, Note_on_c, 0, 67, 64
1, 51715, Note_on_c, 0, 67, 0
1, 51720, Note_on_c, 0, 69, 64
1, 51775, Note_on_c, 0, 69, 0
1, 51780, Note_on_c, 0, 78, 64
1, 51835, Note_on_c, 0, 78, 0
1, 51840, Note_on_c, 0, 67, 64
1, 51895, Note_on_c, 0, 67, 0
1, 51900, Note_on_c, 0, 76, 64
1, 51955, Note_on_c, 0, 76, 0
1, 51960, Note_on_c, 0, 75, 64
1, 52015, Note_on_c, 0, 75, 0
1, 52020, Note_on_c, 0, 76, 64
1, 52075, Note_on_c, 0, 76, 0
1, 52080, Note_on_c, 0, 59, 80
1, 52080, Note_on_c, 0, 77, 64
1, 52135, Note_on_c, 0, 77, 0
1, 52140, Note_on_c, 0, 76, 64
1, 52195, Note_on_c, 0, 76, 0
1, 52200, Note_on_c, 0, 75, 64
1, 52255, Note_on_c, 0, 75, 0
1, 52260, Note_on_c, 0, 76, 64
1, 52315, Note_on_c, 0, 76, 0
1, 52320, Note_on_c, 0, 78, 64
1, 52375, Note_on_c, 0, 78, 0
1, 52380, Note_on_c, 0, 76, 64
1, 52435, Note_on_c, 0, 76, 0
1, 52440, Note_on_c, 0, 79, 64
1, 52495, Note_on_c, 0, 79, 0
1, 52500, Note_on_c, 0, 76, 64
1, 52555, Note_on_c, 0, 76, 0
1, 52559, Note_on_c, 0, 59, 0
1, 52560, Note_on_c, 0, 57, 80
1, 52560, Note_on_c, 0, 81, 64
1, 52615, Note_on_c, 0, 81, 0
1, 52620, Note_on_c, 0, 76, 64
1, 52675, Note_on_c, 0, 76, 0
1, 52680, Note_on_c, 0, 83, 64
1, 52735, Note_on_c, 0, 83, 0
1, 52740, Note_on_c, 0, 76, 64
1, 52795, Note_on_c, 0, 76, 0
1, 52800, Note_on_c, 0, 84, 64
1, 52855, Note_on_c, 0, 84, 0
1, 52860, Note_on_c, 0, 76, 64
1, 52915, Note_on_c, 0, 76, 0
1, 52920, Note_on_c, 0, 86, 64
1, 52975, Note_on_c, 0, 86, 0
1, 52980, Note_on_c, 0, 76, 64
1, 53035, Note_on_c, 0, 76, 0
1, 53039, Note_on_c, 0, 57, 0
1, 53040, Note_on_c, 0, 56, 80
1, 53040, Note_on_c, 0, 84, 64
1, 53095, Note_on_c, 0, 84, 0
1, 53100, Note_on_c, 0, 76, 64
1, 53155, Note_on_c, 0, 76, 0
1, 53160, Note_on_c, 0, 83, 64
1, 53215, Note_on_c, 0, 83, 0
1, 53220, Note_on_c, 0, 76, 64
1, 53275, Note_on_c, 0, 76, 0
1, 53279, Note_on_c, 0, 56, 0
1, 53280, Note_on_c, 0, 84, 64
1, 53335, Note_on_c, 0, 84, 0
1, 53340, Note_on_c, 0, 76, 64
1, 53395, Note_on_c, 0, 76, 0
1, 53400, Note_on_c, 0, 75, 64
1, 53455, Note_on_c, 0, 75, 0
1, 53460, Note_on_c, 0, 76, 64
1, 53515, Note_on_c, 0, 76, 0
1, 53520, Note_on_c, 0, 60, 80
1, 53520, Note_on_c, 0, 77, 64
1, 53575, Note_on_c, 0, 77, 0
1, 53580, Note_on_c, 0, 76, 64
1, 53635, Note_on_c, 0, 76, 0
1, 53640, Note_on_c, 0, 75, 64
1, 53695, Note_on_c, 0, 75, 0
1, 53700, Note_on_c, 0, 76, 64
1, 53755, Note_on_c, 0, 76, 0
1, 53760, Note_on_c, 0, 84, 64
1, 53815, Note_on_c, 0, 84, 0
1, 53820, Note_on_c, 0, 76, 64
1, 53875, Note_on_c, 0, 76, 0
1, 53880, Note_on_c, 0, 83, 64
1, 53935, Note_on_c, 0, 83, 0
1, 53940, Note_on_c, 0, 76, 64
1, 53995, Note_on_c, 0, 76, 0
1, 53999, Note_on_c, 0, 60, 0
1, 54000, Note_on_c, 0, 64, 80
1, 54000, Note_on_c, 0, 81, 64
1, 54055, Note_on_c, 0, 81, 0
1, 54060, Note_on_c, 0, 76, 64
1, 54115, Note_on_c, 0, 76, 0
1, 54120, Note_on_c, 0, 79, 64
1, 54175, Note_on_c, 0, 79, 0
1, 54180, Note_on_c, 0, 76, 64
1, 54235, Note_on_c, 0, 76, 0
1, 54239, Note_on_c, 0, 64, 0
1, 54240, Note_on_c, 0, 60, 80
1, 54240, Note_on_c, 0, 78, 64
1, 54295, Note_on_c, 0, 78, 0
1, 54300, Note_on_c, 0, 76, 64
1, 54355, Note_on_c, 0, 76, 0
1, 54360, Note_on_c, 0, 79, 64
1, 54415, Note_on_c, 0, 79, 0
1, 54420, Note_on_c, 0, 76, 64
1, 54475, Note_on_c, 0, 76, 0
1, 54479, Note_on_c, 0, 60, 0
1, 54480, Note_on_c, 0, 57, 80
1, 54480, Note_on_c, 0, 81, 64
1, 54535, Note_on_c, 0, 81, 0
1, 54540, Note_on_c, 0, 76, 64
1, 54595, Note_on_c, 0, 76, 0
1, 54600, Note_on_c, 0, 75, 64
1, 54655, Note_on_c, 0, 75, 0
1, 54660, Note_on_c, 0, 73, 64
1, 54715, Note_on_c, 0, 73, 0
1, 54719, Note_on_c, 0, 57, 0
1, 54720, Note_on_c, 0, 75, 64
1, 54775, Note_on_c, 0, 75, 0
1, 54780, Note_on_c, 0, 81, 64
1, 54835, Note_on_c, 0, 81, 0
1, 54840, Note_on_c, 0, 79, 64
1, 54895, Note_on_c, 0, 79, 0
1, 54900, Note_on_c, 0, 81, 64
1, 54955, Note_on_c, 0, 81, 0
1, 54960, Note_on_c, 0, 54, 80
1, 54960, Note_on_c, 0, 83, 64
1, 55015, Note_on_c, 0, 83, 0
1, 55020, Note_on_c, 0, 81, 64
1, 55075, Note_on_c, 0, 81, 0
1, 55080, Note_on_c, 0, 79, 64
1, 55135, Note_on_c, 0, 79, 0
1, 55140, Note_on_c, 0, 81, 64
1, 55195, Note_on_c, 0, 81, 0
1, 55199, Note_on_c, 0, 54, 0
1, 55200, Note_on_c, 0, 55, 80
1, 55200, Note_on_c, 0, 71, 64
1, 55255, Note_on_c, 0, 71, 0
1, 55260, Note_on_c, 0, 79, 64
1, 55315, Note_on_c, 0, 79, 0
1, 55320, Note_on_c, 0, 78, 64
1, 55375, Note_on_c, 0, 78, 0
1, 55380, Note_on_c, 0, 79, 64
1, 55435, Note_on_c, 0, 79, 0
1, 55439, Note_on_c, 0, 55, 0
1, 55440, Note_on_c, 0, 64, 80
1, 55440, Note_on_c, 0, 81, 64
1, 55495, Note_on_c, 0, 81, 0
1, 55500, Note_on_c, 0, 79, 64
1, 55555, Note_on_c, 0, 79, 0
1, 55560, Note_on_c, 0, 78, 64
1, 55615, Note_on_c, 0, 78, 0
1, 55620, Note_on_c, 0, 79, 64
1, 55675, Note_on_c, 0, 79, 0
1, 55680, Note_on_c, 0, 69, 64
1, 55735, Note_on_c, 0, 69, 0
1, 55740, Note_on_c, 0, 78, 64
1, 55795, Note_on_c, 0, 78, 0
1, 55800, Note_on_c, 0, 76, 64
1, 55855, Note_on_c, 0, 76, 0
1, 55860, Note_on_c, 0, 78, 64
1, 55915, Note_on_c, 0, 78, 0
1, 55919, Note_on_c, 0, 64, 0
1, 55920, Note_on_c, 0, 63, 80
1, 55920, Note_on_c, 0, 79, 64
1, 55975, Note_on_c, 0, 79, 0
1, 55980, Note_on_c, 0, 81, 64
1, 56035, Note_on_c, 0, 81, 0
1, 56040, Note_on_c, 0, 79, 64
1, 56095, Note_on_c, 0, 79, 0
1, 56100, Note_on_c, 0, 78, 64
1, 56155, Note_on_c, 0, 78, 0
1, 56159, Note_on_c, 0, 63, 0
1, 56160, Note_on_c, 0, 79, 64
1, 56270, Note_on_c, 0, 79, 0
1, 56280, Note_on_c, 0, 75, 64
1, 56390, Note_on_c, 0, 75, 0
1, 56400, Note_on_c, 0, 75, 64
1, 56510, Note_on_c, 0, 75, 0
1, 56520, Note_on_c, 0, 76, 64
1, 56630, Note_on_c, 0, 76, 0
1, 56640, Note_on_c, 0, 76, 64
1, 56750, Note_on_c, 0, 76, 0
1, 56760, Note_on_c, 0, 69, 64
1, 56870, Note_on_c, 0, 69, 0
1, 56880, Note_on_c, 0, 63, 80
1, 56880, Note_on_c, 0, 69, 64
1, 56990, Note_on_c, 0, 69, 0
1, 57000, Note_on_c, 0, 67, 64
1, 57110, Note_on_c, 0, 67, 0
1, 57119, Note_on_c, 0, 63, 0
1, 57120, Note_on_c, 0, 64, 80
1, 57120, Note_on_c, 0, 67, 64
1, 57147, Note_on_c, 0, 67, 0
1, 57190, Note_on_c, 0, 66, 64
1, 57240, Note_on_c, 0, 67, 80
1, 57249, Note_on_c, 0, 66, 0
1, 57359, Note_on_c, 0, 64, 0
1, 57419, Note_on_c, 0, 67, 0
1, 57420, Note_on_c, 0, 71, 64
1, 57475, Note_on_c, 0, 71, 0
1, 57480, Note_on_c, 0, 72, 64
1, 57535, Note_on_c, 0, 72, 0
1, 57540, Note_on_c, 0, 74, 64
1, 57595, Note_on_c, 0, 74, 0
1, 57600, Note_on_c, 0, 76, 64
1, 57655, Note_on_c, 0, 76, 0
1, 57660, Note_on_c, 0, 77, 64
1, 57715, Note_on_c, 0, 77, 0
1, 57720, Note_on_c, 0, 76, 64
1, 57775, Note_on_c, 0, 76, 0
1, 57780, Note_on_c, 0, 75, 64
1, 57835, Note_on_c, 0, 75, 0
1, 57840, Note_on_c, 0, 76, 64
1, 57960, Note_on_c, 0, 55, 80
1, 58079, Note_on_c, 0, 55, 0
1, 58080, Note_on_c, 0, 60, 80
1, 58199, Note_on_c, 0, 60, 0
1, 58199, Note_on_c, 0, 76, 0
1, 58200, Note_on_c, 0, 62, 80
1, 58200, Note_on_c, 0, 69, 64
1, 58310, Note_on_c, 0, 69, 0
1, 58319, Note_on_c, 0, 62, 0
1, 58320, Note_on_c, 0, 64, 80
1, 58320, Note_on_c, 0, 71, 64
1, 58347, Note_on_c, 0, 71, 0
1, 58350, Note_on_c, 0, 69, 64
1, 58409, Note_on_c, 0, 69, 0
1, 58440, Note_on_c, 0, 67, 80
1, 58559, Note_on_c, 0, 64, 0
1, 58559, Note_on_c, 0, 67, 0
1, 58560, Note_on_c, 0, 62, 80
1, 58560, Note_on_c, 0, 69, 64
1, 58587, Note_on_c, 0, 69, 0
1, 58590, Note_on_c, 0, 67, 64
1, 58649, Note_on_c, 0, 67, 0
1, 58680, Note_on_c, 0, 66, 80
1, 58799, Note_on_c, 0, 62, 0
1, 58799, Note_on_c, 0, 66, 0
1, 58800, Note_on_c, 0, 61, 80
1, 58800, Note_on_c, 0, 66, 64
1, 58910, Note_on_c, 0, 66, 0
1, 58920, Note_on_c, 0, 76, 64
1, 59030, Note_on_c, 0, 76, 0
1, 59039, Note_on_c, 0, 61, 0
1, 59040, Note_on_c, 0, 59, 80
1, 59040, Note_on_c, 0, 74, 64
1, 59095, Note_on_c, 0, 74, 0
1, 59100, Note_on_c, 0, 76, 64
1, 59155, Note_on_c, 0, 76, 0
1, 59160, Note_on_c, 0, 74, 64
1, 59215, Note_on_c, 0, 74, 0
1, 59220, Note_on_c, 0, 73, 64
1, 59275, Note_on_c, 0, 73, 0
1, 59280, Note_on_c, 0, 74, 64
1, 59399, Note_on_c, 0, 59, 0
1, 59400, Note_on_c, 0, 54, 80
1, 59519, Note_on_c, 0, 54, 0
1, 59520, Note_on_c, 0, 59, 80
1, 59639, Note_on_c, 0, 59, 0
1, 59639, Note_on_c, 0, 74, 0
1, 59640, Note_on_c, 0, 60, 80
1, 59640, Note_on_c, 0, 67, 64
1, 59750, Note_on_c, 0, 67, 0
1, 59759, Note_on_c, 0, 60, 0
1, 59760, Note_on_c, 0, 62, 80
1, 59760, Note_on_c, 0, 69, 64
1, 59787, Note_on_c, 0, 69, 0
1, 59790, Note_on_c, 0, 67, 64
1, 59849, Note_on_c, 0, 67, 0
1, 59880, Note_on_c, 0, 66, 80
1, 59999, Note_on_c, 0, 62, 0
1, 59999, Note_on_c, 0, 66, 0
1, 60000, Note_on_c, 0, 60, 80
1, 60000, Note_on_c, 0, 67, 64
1, 60027, Note_on_c, 0, 67, 0
1, 60030, Note_on_c, 0, 65, 64
1, 60089, Note_on_c, 0, 65, 0
1, 60120, Note_on_c, 0, 64, 80
1, 60239, Note_on_c, 0, 60, 0
1, 60239, Note_on_c, 0, 64, 0
1, 60240, Note_on_c, 0, 59, 80
1, 60240, Note_on_c, 0, 64, 64
1, 60350, Note_on_c, 0, 64, 0
1, 60360, Note_on_c, 0, 74, 64
1, 60470, Note_on_c, 0, 74, 0
1, 60479, Note_on_c, 0, 59, 0
1, 60480, Note_on_c, 0, 72, 64
1, 60535, Note_on_c, 0, 72, 0
1, 60540, Note_on_c, 0, 71, 64
1, 60595, Note_on_c, 0, 71, 0
1, 60600, Note_on_c, 0, 69, 64
1, 60779, Note_on_c, 0, 69, 0
1, 60780, Note_on_c, 0, 67, 64
1, 60835, Note_on_c, 0, 67, 0
1, 60840, Note_on_c, 0, 66, 64
1, 61019, Note_on_c, 0, 66, 0
1, 61020, Note_on_c, 0, 64, 64
1, 61075, Note_on_c, 0, 64, 0
1, 61080, Note_on_c, 0, 62, 64
1, 61259, Note_on_c, 0, 62, 0
1, 61260, Note_on_c, 0, 64, 64
1, 61315, Note_on_c, 0, 64, 0
1, 61320, Note_on_c, 0, 66, 64
1, 61499, Note_on_c, 0, 66, 0
1, 61500, Note_on_c, 0, 67, 64
1, 61555, Note_on_c, 0, 67, 0
1, 61560, Note_on_c, 0, 69, 64
1, 61739, Note_on_c, 0, 69, 0
1, 61740, Note_on_c, 0, 71, 64
1, 61795, Note_on_c, 0, 71, 0
1, 61800, Note_on_c, 0, 72, 64
1, 61979, Note_on_c, 0, 72, 0
1, 61980, Note_on_c, 0, 74, 64
1, 62035, Note_on_c, 0, 74, 0
1, 62040, Note_on_c, 0, 72, 64
1, 62095, Note_on_c, 0, 72, 0
1, 62100, Note_on_c, 0, 71, 64
1, 62155, Note_on_c, 0, 71, 0
1, 62160, Note_on_c, 0, 72, 64
1, 62215, Note_on_c, 0, 72, 0
1, 62220, Note_on_c, 0, 79, 64
1, 62275, Note_on_c, 0, 79, 0
1, 62280, Note_on_c, 0, 78, 64
1, 62335, Note_on_c, 0, 78, 0
1, 62340, Note_on_c, 0, 76, 64
1, 62395, Note_on_c, 0, 76, 0
1, 62400, Note_on_c, 0, 78, 64
1, 62455, Note_on_c, 0, 78, 0
1, 62460, Note_on_c, 0, 83, 64
1, 62515, Note_on_c, 0, 83, 0
1, 62520, Note_on_c, 0, 81, 64
1, 62575, Note_on_c, 0, 81, 0
1, 62580, Note_on_c, 0, 79, 64
1, 62635, Note_on_c, 0, 79, 0
1, 62640, Note_on_c, 0, 81, 64
1, 62695, Note_on_c, 0, 81, 0
1, 62700, Note_on_c, 0, 86, 64
1, 62755, Note_on_c, 0, 86, 0
1, 62760, Note_on_c, 0, 84, 64
1, 62815, Note_on_c, 0, 84, 0
1, 62820, Note_on_c, 0, 83, 64
1, 62875, Note_on_c, 0, 83, 0
1, 62880, Note_on_c, 0, 84, 64
1, 62935, Note_on_c, 0, 84, 0
1, 62940, Note_on_c, 0, 83, 64
1, 62995, Note_on_c, 0, 83, 0
1, 63000, Note_on_c, 0, 81, 64
1, 63055, Note_on_c, 0, 81, 0
1, 63060, Note_on_c, 0, 79, 64
1, 63115, Note_on_c, 0, 79, 0
1, 63120, Note_on_c, 0, 78, 64
1, 63175, Note_on_c, 0, 78, 0
1, 63180, Note_on_c, 0, 76, 64
1, 63235, Note_on_c, 0, 76, 0
1, 63240, Note_on_c, 0, 74, 64
1, 63295, Note_on_c, 0, 74, 0
1, 63300, Note_on_c, 0, 72, 64
1, 63355, Note_on_c, 0, 72, 0
1, 63360, Note_on_c, 0, 71, 64
1, 63415, Note_on_c, 0, 71, 0
1, 63420, Note_on_c, 0, 79, 64
1, 63475, Note_on_c, 0, 79, 0
1, 63480, Note_on_c, 0, 78, 64
1, 63535, Note_on_c, 0, 78, 0
1, 63540, Note_on_c, 0, 79, 64
1, 63595, Note_on_c, 0, 79, 0
1, 63600, Note_on_c, 0, 64, 80
1, 63600, Note_on_c, 0, 81, 64
1, 63655, Note_on_c, 0, 81, 0
1, 63660, Note_on_c, 0, 79, 64
1, 63715, Note_on_c, 0, 79, 0
1, 63720, Note_on_c, 0, 78, 64
1, 63775, Note_on_c, 0, 78, 0
1, 63780, Note_on_c, 0, 79, 64
1, 63835, Note_on_c, 0, 79, 0
1, 63839, Note_on_c, 0, 64, 0
1, 63840, Note_on_c, 0, 63, 80
1, 63840, Note_on_c, 0, 72, 64
1, 63895, Note_on_c, 0, 72, 0
1, 63900, Note_on_c, 0, 78, 64
1, 63955, Note_on_c, 0, 78, 0
1, 63960, Note_on_c, 0, 76, 64
1, 64015, Note_on_c, 0, 76, 0
1, 64020, Note_on_c, 0, 78, 64
1, 64075, Note_on_c, 0, 78, 0
1, 64079, Note_on_c, 0, 63, 0
1, 64080, Note_on_c, 0, 62, 80
1, 64080, Note_on_c, 0, 79, 64
1, 64135, Note_on_c, 0, 79, 0
1, 64140, Note_on_c, 0, 78, 64
1, 64195, Note_on_c, 0, 78, 0
1, 64200, Note_on_c, 0, 76, 64
1, 64255, Note_on_c, 0, 76, 0
1, 64260, Note_on_c, 0, 78, 64
1, 64315, Note_on_c, 0, 78, 0
1, 64319, Note_on_c, 0, 62, 0
1, 64320, Note_on_c, 0, 67, 80
1, 64320, Note_on_c, 0, 74, 64
1, 64375, Note_on_c, 0, 74, 0
1, 64380, Note_on_c, 0, 77, 64
1, 64435, Note_on_c, 0, 77, 0
1, 64440, Note_on_c, 0, 76, 64
1, 64495, Note_on_c, 0, 76, 0
1, 64500, Note_on_c, 0, 77, 64
1, 64555, Note_on_c, 0, 77, 0
1, 64559, Note_on_c, 0, 67, 0
1, 64560, Note_on_c, 0, 59, 80
1, 64560, Note_on_c, 0, 79, 64
1, 64615, Note_on_c, 0, 79, 0
1, 64620, Note_on_c, 0, 77, 64
1, 64675, Note_on_c, 0, 77, 0
1, 64680, Note_on_c, 0, 76, 64
1, 64735, Note_on_c, 0, 76, 0
1, 64740, Note_on_c, 0, 74, 64
1, 64795, Note_on_c, 0, 74, 0
1, 64799, Note_on_c, 0, 59, 0
1, 64800, Note_on_c, 0, 60, 80
1, 64800, Note_on_c, 0, 76, 64
1, 64855, Note_on_c, 0, 76, 0
1, 64860, Note_on_c, 0, 72, 64
1, 64915, Note_on_c, 0, 72, 0
1, 64920, Note_on_c, 0, 71, 64
1, 64975, Note_on_c, 0, 71, 0
1, 64980, Note_on_c, 0, 72, 64
1, 65035, Note_on_c, 0, 72, 0
1, 65039, Note_on_c, 0, 60, 0
1, 65040, Note_on_c, 0, 55, 80
1, 65040, Note_on_c, 0, 74, 64
1, 65095, Note_on_c, 0, 74, 0
1, 65100, Note_on_c, 0, 72, 64
1, 65155, Note_on_c, 0, 72, 0
1, 65160, Note_on_c, 0, 71, 64
1, 65215, Note_on_c, 0, 71, 0
1, 65220, Note_on_c, 0, 72, 64
1, 65275, Note_on_c, 0, 72, 0
1, 65279, Note_on_c, 0, 55, 0
1, 65280, Note_on_c, 0, 57, 80
1, 65280, Note_on_c, 0, 74, 64
1, 65335, Note_on_c, 0, 74, 0
1, 65340, Note_on_c, 0, 71, 64
1, 65395, Note_on_c, 0, 71, 0
1, 65400, Note_on_c, 0, 69, 64
1, 65455, Note_on_c, 0, 69, 0
1, 65460, Note_on_c, 0, 71, 64
1, 65515, Note_on_c, 0, 71, 0
1, 65519, Note_on_c, 0, 57, 0
1, 65520, Note_on_c, 0, 62, 80
1, 65520, Note_on_c, 0, 72, 64
1, 65575, Note_on_c, 0, 72, 0
1, 65580, Note_on_c, 0, 71, 64
1, 65635, Note_on_c, 0, 71, 0
1, 65640, Note_on_c, 0, 69, 64
1, 65695, Note_on_c, 0, 69, 0
1, 65700, Note_on_c, 0, 71, 64
1, 65755, Note_on_c, 0, 71, 0
1, 65759, Note_on_c, 0, 62, 0
1, 65760, Note_on_c, 0, 64, 80
1, 65760, Note_on_c, 0, 73, 64
1, 65815, Note_on_c, 0, 73, 0
1, 65820, Note_on_c, 0, 70, 64
1, 65875, Note_on_c, 0, 70, 0
1, 65880, Note_on_c, 0, 69, 64
1, 65935, Note_on_c, 0, 69, 0
1, 65940, Note_on_c, 0, 70, 64
1, 65995, Note_on_c, 0, 70, 0
1, 65999, Note_on_c, 0, 64, 0
1, 66000, Note_on_c, 0, 57, 80
1, 66000, Note_on_c, 0, 72, 64
1, 66055, Note_on_c, 0, 72, 0
1, 66060, Note_on_c, 0, 70, 64
1, 66115, Note_on_c, 0, 70, 0
1, 66120, Note_on_c, 0, 69, 64
1, 66175, Note_on_c, 0, 69, 0
1, 66180, Note_on_c, 0, 67, 64
1, 66235, Note_on_c, 0, 67, 0
1, 66240, Note_on_c, 0, 66, 64
1, 66295, Note_on_c, 0, 66, 0
1, 66300, Note_on_c, 0, 72, 64
1, 66355, Note_on_c, 0, 72, 0
1, 66360, Note_on_c, 0, 71, 64
1, 66415, Note_on_c, 0, 71, 0
1, 66420, Note_on_c, 0, 72, 64
1, 66475, Note_on_c, 0, 72, 0
1, 66479, Note_on_c, 0, 57, 0
1, 66480, Note_on_c, 0, 57, 80
1, 66480, Note_on_c, 0, 74, 64
1, 66535, Note_on_c, 0, 74, 0
1, 66540, Note_on_c, 0, 72, 64
1, 66595, Note_on_c, 0, 72, 0
1, 66599, Note_on_c, 0, 57, 0
1, 66600, Note_on_c, 0, 55, 80
1, 66600, Note_on_c, 0, 71, 64
1, 66655, Note_on_c, 0, 71, 0
1, 66660, Note_on_c, 0, 72, 64
1, 66715, Note_on_c, 0, 72, 0
1, 66719, Note_on_c, 0, 55, 0
1, 66720, Note_on_c, 0, 57, 80
1, 66720, Note_on_c, 0, 78, 64
1, 66775, Note_on_c, 0, 78, 0
1, 66780, Note_on_c, 0, 72, 64
1, 66835, Note_on_c, 0, 72, 0
1, 66840, Note_on_c, 0, 71, 64
1, 66895, Note_on_c, 0, 71, 0
1, 66900, Note_on_c, 0, 72, 64
1, 66955, Note_on_c, 0, 72, 0
1, 66960, Note_on_c, 0, 74, 64
1, 67015, Note_on_c, 0, 74, 0
1, 67020, Note_on_c, 0, 72, 64
1, 67075, Note_on_c, 0, 72, 0
1, 67080, Note_on_c, 0, 71, 64
1, 67135, Note_on_c, 0, 71, 0
1, 67140, Note_on_c, 0, 72, 64
1, 67195, Note_on_c, 0, 72, 0
1, 67199, Note_on_c, 0, 57, 0
1, 67200, Note_on_c, 0, 55, 80
1, 67200, Note_on_c, 0, 81, 64
1, 67255, Note_on_c, 0, 81, 0
1, 67260, Note_on_c, 0, 72, 64
1, 67315, Note_on_c, 0, 72, 0
1, 67320, Note_on_c, 0, 71, 64
1, 67375, Note_on_c, 0, 71, 0
1, 67380, Note_on_c, 0, 72, 64
1, 67435, Note_on_c, 0, 72, 0
1, 67439, Note_on_c, 0, 55, 0
1, 67440, Note_on_c, 0, 54, 80
1, 67440, Note_on_c, 0, 74, 64
1, 67495, Note_on_c, 0, 74, 0
1, 67500, Note_on_c, 0, 72, 64
1, 67555, Note_on_c, 0, 72, 0
1, 67560, Note_on_c, 0, 71, 64
1, 67615, Note_on_c, 0, 71, 0
1, 67620, Note_on_c, 0, 69, 64
1, 67675, Note_on_c, 0, 69, 0
1, 67679, Note_on_c, 0, 54, 0
1, 67680, Note_on_c, 0, 55, 80
1, 67680, Note_on_c, 0, 71, 64
1, 67790, Note_on_c, 0, 71, 0
1, 67800, Note_on_c, 0, 66, 64
1, 67910, Note_on_c, 0, 66, 0
1, 67919, Note_on_c, 0, 55, 0
1, 67920, Note_on_c, 0, 57, 80
1, 67920, Note_on_c, 0, 66, 64
1, 68030, Note_on_c, 0, 66, 0
1, 68040, Note_on_c, 0, 67, 64
1, 68150, Note_on_c, 0, 67, 0
1, 68159, Note_on_c, 0, 57, 0
1, 68160, Note_on_c, 0, 59, 80
1, 68160, Note_on_c, 0, 67, 64
1, 68270, Note_on_c, 0, 67, 0
1, 68280, Note_on_c, 0, 60, 64
1, 68390, Note_on_c, 0, 60, 0
1, 68399, Note_on_c, 0, 59, 0
1, 68400, Note_on_c, 0, 54, 80
1, 68400, Note_on_c, 0, 60, 64
1, 68510, Note_on_c, 0, 60, 0
1, 68520, Note_on_c, 0, 59, 64
1, 68630, Note_on_c, 0, 59, 0
1, 68639, Note_on_c, 0, 54, 0
1, 68640, Note_on_c, 0, 55, 80
1, 68640, Note_on_c, 0, 59, 64
1, 69110, Note_on_c, 0, 59, 0
1, 69119, Note_on_c, 0, 55, 0
1, 69120, Note_on_c, 0, 78, 64
1, 69175, Note_on_c, 0, 78, 0
1, 69180, Note_on_c, 0, 79, 64
1, 69235, Note_on_c, 0, 79, 0
1, 69240, Note_on_c, 0, 78, 64
1, 69295, Note_on_c, 0, 78, 0
1, 69300, Note_on_c, 0, 76, 64
1, 69355, Note_on_c, 0, 76, 0
1, 69360, Note_on_c, 0, 78, 64
1, 69480, Note_on_c, 0, 66, 80
1, 69599, Note_on_c, 0, 66, 0
1, 69600, Note_on_c, 0, 69, 80
1, 69659, Note_on_c, 0, 78, 0
1, 69660, Note_on_c, 0, 76, 64
1, 69715, Note_on_c, 0, 76, 0
1, 69720, Note_on_c, 0, 78, 64
1, 69775, Note_on_c, 0, 78, 0
1, 69780, Note_on_c, 0, 79, 64
1, 69835, Note_on_c, 0, 79, 0
1, 69840, Note_on_c, 0, 81, 64
1, 69950, Note_on_c, 0, 81, 0
1, 69960, Note_on_c, 0, 83, 64
1, 70070, Note_on_c, 0, 83, 0
1, 70080, Note_on_c, 0, 84, 64
1, 70107, Note_on_c, 0, 84, 0
1, 70110, Note_on_c, 0, 83, 64
1, 70169, Note_on_c, 0, 83, 0
1, 70200, Note_on_c, 0, 81, 80
1, 70319, Note_on_c, 0, 81, 0
1, 70320, Note_on_c, 0, 79, 64
1, 70430, Note_on_c, 0, 79, 0
1, 70440, Note_on_c, 0, 78, 64
1, 70550, Note_on_c, 0, 78, 0
1, 70559, Note_on_c, 0, 69, 0
1, 70560, Note_on_c, 0, 79, 64
1, 70615, Note_on_c, 0, 79, 0
1, 70620, Note_on_c, 0, 81, 64
1, 70675, Note_on_c, 0, 81, 0
1, 70680, Note_on_c, 0, 79, 64
1, 70735, Note_on_c, 0, 79, 0
1, 70740, Note_on_c, 0, 78, 64
1, 70795, Note_on_c, 0, 78, 0
1, 70800, Note_on_c, 0, 79, 64
1, 70920, Note_on_c, 0, 62, 80
1, 71039, Note_on_c, 0, 62, 0
1, 71040, Note_on_c, 0, 67, 80
1, 71099, Note_on_c, 0, 79, 0
1, 71100, Note_on_c, 0, 66, 64
1, 71155, Note_on_c, 0, 66, 0
1, 71160, Note_on_c, 0, 67, 64
1, 71215, Note_on_c, 0, 67, 0
1, 71220, Note_on_c, 0, 69, 64
1, 71275, Note_on_c, 0, 69, 0
1, 71280, Note_on_c, 0, 71, 64
1, 71390, Note_on_c, 0, 71, 0
1, 71400, Note_on_c, 0, 72, 64
1, 71510, Note_on_c, 0, 72, 0
1, 71520, Note_on_c, 0, 74, 64
1, 71547, Note_on_c, 0, 74, 0
1, 71550, Note_on_c, 0, 72, 64
1, 71609, Note_on_c, 0, 72, 0
1, 71640, Note_on_c, 0, 71, 80
1, 71759, Note_on_c, 0, 71, 0
1, 71760, Note_on_c, 0, 69, 64
1, 71870, Note_on_c, 0, 69, 0
1, 71880, Note_on_c, 0, 67, 64
1, 71990, Note_on_c, 0, 67, 0
1, 72000, Note_on_c, 0, 76, 64
1, 72055, Note_on_c, 0, 76, 0
1, 72060, Note_on_c, 0, 78, 64
1, 72115, Note_on_c, 0, 78, 0
1, 72120, Note_on_c, 0, 76, 64
1, 72175, Note_on_c, 0, 76, 0
1, 72180, Note_on_c, 0, 75, 64
1, 72235, Note_on_c, 0, 75, 0
1, 72240, Note_on_c, 0, 76, 64
1, 72359, Note_on_c, 0, 67, 0
1, 72360, Note_on_c, 0, 68, 80
1, 72479, Note_on_c, 0, 68, 0
1, 72480, Note_on_c, 0, 69, 80
1, 72599, Note_on_c, 0, 76, 0
1, 72600, Note_on_c, 0, 80, 64
1, 72710, Note_on_c, 0, 80, 0
1, 72719, Note_on_c, 0, 69, 0
1, 72720, Note_on_c, 0, 62, 80
1, 72720, Note_on_c, 0, 80, 64
1, 72830, Note_on_c, 0, 80, 0
1, 72840, Note_on_c, 0, 81, 64
1, 72950, Note_on_c, 0, 81, 0
1, 72959, Note_on_c, 0, 62, 0
1, 72960, Note_on_c, 0, 64, 80
1, 72960, Note_on_c, 0, 81, 64
1, 73070, Note_on_c, 0, 81, 0
1, 73080, Note_on_c, 0, 83, 64
1, 73190, Note_on_c, 0, 83, 0
1, 73199, Note_on_c, 0, 64, 0
1, 73200, Note_on_c, 0, 67, 80
1, 73200, Note_on_c, 0, 83, 64
1, 73310, Note_on_c, 0, 83, 0
1, 73320, Note_on_c, 0, 84, 64
1, 73430, Note_on_c, 0, 84, 0
1, 73440, Note_on_c, 0, 76, 64
1, 73495, Note_on_c, 0, 76, 0
1, 73500, Note_on_c, 0, 75, 64
1, 73555, Note_on_c, 0, 75, 0
1, 73560, Note_on_c, 0, 73, 64
1, 73670, Note_on_c, 0, 73, 0
1, 73679, Note_on_c, 0, 67, 0
1, 73680, Note_on_c, 0, 66, 80
1, 73680, Note_on_c, 0, 75, 64
1, 73735, Note_on_c, 0, 75, 0
1, 73740, Note_on_c, 0, 73, 64
1, 73767, Note_on_c, 0, 73, 0
1, 73799, Note_on_c, 0, 66, 0
1, 73800, Note_on_c, 0, 64, 80
1, 73800, Note_on_c, 0, 75, 80
1, 73919, Note_on_c, 0, 64, 0
1, 73920, Note_on_c, 0, 66, 80
1, 74159, Note_on_c, 0, 66, 0
1, 74219, Note_on_c, 0, 75, 0
1, 74220, Note_on_c, 0, 75, 64
1, 74275, Note_on_c, 0, 75, 0
1, 74280, Note_on_c, 0, 76, 64
1, 74335, Note_on_c, 0, 76, 0
1, 74340, Note_on_c, 0, 78, 64
1, 74395, Note_on_c, 0, 78, 0
1, 74400, Note_on_c, 0, 76, 64
1, 74455, Note_on_c, 0, 76, 0
1, 74460, Note_on_c, 0, 75, 64
1, 74515, Note_on_c, 0, 75, 0
1, 74520, Note_on_c, 0, 73, 64
1, 74575, Note_on_c, 0, 73, 0
1, 74580, Note_on_c, 0, 71, 64
1, 74635, Note_on_c, 0, 71, 0
1, 74640, Note_on_c, 0, 69, 64
1, 74695, Note_on_c, 0, 69, 0
1, 74700, Note_on_c, 0, 67, 64
1, 74755, Note_on_c, 0, 67, 0
1, 74760, Note_on_c, 0, 69, 64
1, 74815, Note_on_c, 0, 69, 0
1, 74820, Note_on_c, 0, 78, 64
1, 74875, Note_on_c, 0, 78, 0
1, 74880, Note_on_c, 0, 67, 64
1, 74935, Note_on_c, 0, 67, 0
1, 74940, Note_on_c, 0, 76, 64
1, 74995, Note_on_c, 0, 76, 0
1, 75000, Note_on_c, 0, 75, 64
1, 75055, Note_on_c, 0, 75, 0
1, 75060, Note_on_c, 0, 76, 64
1, 75115, Note_on_c, 0, 76, 0
1, 75120, Note_on_c, 0, 59, 80
1, 75120, Note_on_c, 0, 77, 64
1, 75175, Note_on_c, 0, 77, 0
1, 75180, Note_on_c, 0, 76, 64
1, 75235, Note_on_c, 0, 76, 0
1, 75240, Note_on_c, 0, 75, 64
1, 75295, Note_on_c, 0, 75, 0
1, 75300, Note_on_c, 0, 76, 64
1, 75355, Note_on_c, 0, 76, 0
1, 75360, Note_on_c, 0, 78, 64
1, 75415, Note_on_c, 0, 78, 0
1, 75420, Note_on_c, 0, 76, 64
1, 75475, Note_on_c, 0, 76, 0
1, 75480, Note_on_c, 0, 79, 64
1, 75535, Note_on_c, 0, 79, 0
1, 75540, Note_on_c, 0, 76, 64
1, 75595, Note_on_c, 0, 76, 0
1, 75599, Note_on_c, 0, 59, 0
1, 75600, Note_on_c, 0, 57, 80
1, 75600, Note_on_c, 0, 81, 64
1, 75655, Note_on_c, 0, 81, 0
1, 75660, Note_on_c, 0, 76, 64
1, 75715, Note_on_c, 0, 76, 0
1, 75720, Note_on_c, 0, 83, 64
1, 75775, Note_on_c, 0, 83, 0
1, 75780, Note_on_c, 0, 76, 64
1, 75835, Note_on_c, 0, 76, 0
1, 75840, Note_on_c, 0, 84, 64
1, 75895, Note_on_c, 0, 84, 0
1, 75900, Note_on_c, 0, 76, 64
1, 75955, Note_on_c, 0, 76, 0
1, 75960, Note_on_c, 0, 86, 64
1, 76015, Note_on_c, 0, 86, 0
1, 76020, Note_on_c, 0, 76, 64
1, 76075, Note_on_c, 0, 76, 0
1, 76079, Note_on_c, 0, 57, 0
1, 76080, Note_on_c, 0, 56, 80
1, 76080, Note_on_c, 0, 84, 64
1, 76135, Note_on_c, 0, 84, 0
1, 76140, Note_on_c, 0, 76, 64
1, 76195, Note_on_c, 0, 76, 0
1, 76200, Note_on_c, 0, 83, 64
1, 76255, Note_on_c, 0, 83, 0
1, 76260, Note_on_c, 0, 76, 64
1, 76315, Note_on_c, 0, 76, 0
1, 76319, Note_on_c, 0, 56, 0
1, 76320, Note_on_c, 0, 84, 64
1, 76375, Note_on_c, 0, 84, 0
1, 76380, Note_on_c, 0, 76, 64
1, 76435, Note_on_c, 0, 76, 0
1, 76440, Note_on_c, 0, 75, 64
1, 76495, Note_on_c, 0, 75, 0
1, 76500, Note_on_c, 0, 76, 64
1, 76555, Note_on_c, 0, 76, 0
1, 76560, Note_on_c, 0, 60, 80
1, 76560, Note_on_c, 0, 77, 64
1, 76615, Note_on_c, 0, 77, 0
1, 76620, Note_on_c, 0, 76, 64
1, 76675, Note_on_c, 0, 76, 0
1, 76680, Note_on_c, 0, 75, 64
1, 76735, Note_on_c, 0, 75, 0
1, 76740, Note_on_c, 0, 76, 64
1, 76795, Note_on_c, 0, 76, 0
1, 76800, Note_on_c, 0, 84, 64
1, 76855, Note_on_c, 0, 84, 0
1, 76860, Note_on_c, 0, 76, 64
1, 76915, Note_on_c, 0, 76, 0
1, 76920, Note_on_c, 0, 83, 64
1, 76975, Note_on_c, 0, 83, 0
1, 76980, Note_on_c, 0, 76, 64
1, 77035, Note_on_c, 0, 76, 0
1, 77039, Note_on_c, 0, 60, 0
1, 77040, Note_on_c, 0, 64, 80
1, 77040, Note_on_c, 0, 81, 64
1, 77095, Note_on_c, 0, 81, 0
1, 77100, Note_on_c, 0, 76, 64
1, 77155, Note_on_c, 0, 76, 0
1, 77160, Note_on_c, 0, 79, 64
1, 77215, Note_on_c, 0, 79, 0
1, 77220, Note_on_c, 0, 76, 64
1, 77275, Note_on_c, 0, 76, 0
1, 77279, Note_on_c, 0, 64, 0
1, 77280, Note_on_c, 0, 60, 80
1, 77280, Note_on_c, 0, 78, 64
1, 77335, Note_on_c, 0, 78, 0
1, 77340, Note_on_c, 0, 76, 64
1, 77395, Note_on_c, 0, 76, 0
1, 77400, Note_on_c, 0, 79, 64
1, 77455, Note_on_c, 0, 79, 0
1, 77460, Note_on_c, 0, 76, 64
1, 77515, Note_on_c, 0, 76, 0
1, 77519, Note_on_c, 0, 60, 0
1, 77520, Note_on_c, 0, 57, 80
1, 77520, Note_on_c, 0, 81, 64
1, 77575, Note_on_c, 0, 81, 0
1, 77580, Note_on_c, 0, 76, 64
1, 77635, Note_on_c, 0, 76, 0
1, 77640, Note_on_c, 0, 75, 64
1, 77695, Note_on_c, 0, 75, 0
1, 77700, Note_on_c, 0, 73, 64
1, 77755, Note_on_c, 0, 73, 0
1, 77759, Note_on_c, 0, 57, 0
1, 77760, Note_on_c, 0, 75, 64
1, 77815, Note_on_c, 0, 75, 0
1, 77820, Note_on_c, 0, 81, 64
1, 77875, Note_on_c, 0, 81, 0
1, 77880, Note_on_c, 0, 79, 64
1, 77935, Note_on_c, 0, 79, 0
1, 77940, Note_on_c, 0, 81, 64
1, 77995, Note_on_c, 0, 81, 0
1, 78000, Note_on_c, 0, 54, 80
1, 78000, Note_on_c, 0, 83, 64
1, 78055, Note_on_c, 0, 83, 0
1, 78060, Note_on_c, 0, 81, 64
1, 78115, Note_on_c, 0, 81, 0
1, 78120, Note_on_c, 0, 79, 64
1, 78175, Note_on_c, 0, 79, 0
1, 78180, Note_on_c, 0, 81, 64
1, 78235, Note_on_c, 0, 81, 0
1, 78239, Note_on_c, 0, 54, 0
1, 78240, Note_on_c, 0, 55, 80
1, 78240, Note_on_c, 0, 71, 64
1, 78295, Note_on_c, 0, 71, 0
1, 78300, Note_on_c, 0, 79, 64
1, 78355, Note_on_c, 0, 79, 0
1, 78360, Note_on_c, 0, 78, 64
1, 78415, Note_on_c, 0, 78, 0
1, 78420, Note_on_c, 0, 79, 64
1, 78475, Note_on_c, 0, 79, 0
1, 78479, Note_on_c, 0, 55, 0
1, 78480, Note_on_c, 0, 64, 80
1, 78480, Note_on_c, 0, 81, 64
1, 78535, Note_on_c, 0, 81, 0
1, 78540, Note_on_c, 0, 79, 64
1, 78595, Note_on_c, 0, 79, 0
1, 78600, Note_on_c, 0, 78, 64
1, 78655, Note_on_c, 0, 78, 0
1, 78660, Note_on_c, 0, 79, 64
1, 78715, Note_on_c, 0, 79, 0
1, 78720, Note_on_c, 0, 69, 64
1, 78775, Note_on_c, 0, 69, 0
1, 78780, Note_on_c, 0, 78, 64
1, 78835, Note_on_c, 0, 78, 0
1, 78840, Note_on_c, 0, 76, 64
1, 78895, Note_on_c, 0, 76, 0
1, 78900, Note_on_c, 0, 78, 64
1, 78955, Note_on_c, 0, 78, 0
1, 78959, Note_on_c, 0, 64, 0
1, 78960, Note_on_c, 0, 63, 80
1, 78960, Note_on_c, 0, 79, 64
1, 79015, Note_on_c, 0, 79, 0
1, 79020, Note_on_c, 0, 81, 64
1, 79075, Note_on_c, 0, 81, 0
1, 79080, Note_on_c, 0, 79, 64
1, 79135, Note_on_c, 0, 79, 0
1, 79140, Note_on_c, 0, 78, 64
1, 79195, Note_on_c, 0, 78, 0
1, 79199, Note_on_c, 0, 63, 0
1, 79200, Note_on_c, 0, 79, 64
1, 79310, Note_on_c, 0, 79, 0
1, 79320, Note_on_c, 0, 75, 64
1, 79430, Note_on_c, 0, 75, 0
1, 79440, Note_on_c, 0, 75, 64
1, 79550, Note_on_c, 0, 75, 0
1, 79560, Note_on_c, 0, 76, 64
1, 79670, Note_on_c, 0, 76, 0
1, 79680, Note_on_c, 0, 76, 64
1, 79790, Note_on_c, 0, 76, 0
1, 79800, Note_on_c, 0, 69, 64
1, 79910, Note_on_c, 0, 69, 0
1, 79920, Note_on_c, 0, 63, 80
1, 79920, Note_on_c, 0, 69, 64
1, 80030, Note_on_c, 0, 69, 0
1, 80040, Note_on_c, 0, 67, 64
1, 80150, Note_on_c, 0, 67, 0
1, 80159, Note_on_c, 0, 63, 0
1, 80160, Note_on_c, 0, 64, 80
1, 80160, Note_on_c, 0, 67, 64
1, 80187, Note_on_c, 0, 67, 0
1, 80230, Note_on_c, 0, 66, 64
1, 80280, Note_on_c, 0, 67, 80
1, 80289, Note_on_c, 0, 66, 0
1, 80399, Note_on_c, 0, 64, 0
1, 80459, Note_on_c, 0, 67, 0
1, 80460, Note_on_c, 0, 71, 64
1, 80515, Note_on_c, 0, 71, 0
1, 80520, Note_on_c, 0, 72, 64
1, 80575, Note_on_c, 0, 72, 0
1, 80580, Note_on_c, 0, 74, 64
1, 80635, Note_on_c, 0, 74, 0
1, 80640, Note_on_c, 0, 76, 64
1, 80695, Note_on_c, 0, 76, 0
1, 80700, Note_on_c, 0, 77, 64
1, 80755, Note_on_c, 0, 77, 0
1, 80760, Note_on_c, 0, 76, 64
1, 80815, Note_on_c, 0, 76, 0
1, 80820, Note_on_c, 0, 75, 64
1, 80875, Note_on_c, 0, 75, 0
1, 80880, Note_on_c, 0, 76, 64
1, 81000, Note_on_c, 0, 55, 80
1, 81119, Note_on_c, 0, 55, 0
1, 81120, Note_on_c, 0, 60, 80
1, 81239, Note_on_c, 0, 60, 0
1, 81239, Note_on_c, 0, 76, 0
1, 81240, Note_on_c, 0, 62, 80
1, 81240, Note_on_c, 0, 69, 64
1, 81350, Note_on_c, 0, 69, 0
1, 81359, Note_on_c, 0, 62, 0
1, 81360, Note_on_c, 0, 64, 80
1, 81360, Note_on_c, 0, 71, 64
1, 81387, Note_on_c, 0, 71, 0
1, 81390, Note_on_c, 0, 69, 64
1, 81449, Note_on_c, 0, 69, 0
1, 81480, Note_on_c, 0, 67, 80
1, 81599, Note_on_c, 0, 64, 0
1, 81599, Note_on_c, 0, 67, 0
1, 81600, Note_on_c, 0, 62, 80
1, 81600, Note_on_c, 0, 69, 64
1, 81627, Note_on_c, 0, 69, 0
1, 81630, Note_on_c, 0, 67, 64
1, 81689, Note_on_c, 0, 67, 0
1, 81720, Note_on_c, 0, 66, 80
1, 81839, Note_on_c, 0, 62, 0
1, 81839, Note_on_c, 0, 66, 0
1, 81840, Note_on_c, 0, 61, 80
1, 81840, Note_on_c, 0, 66, 64
1, 81950, Note_on_c, 0, 66, 0
1, 81960, Note_on_c, 0, 76, 64
1, 82070, Note_on_c, 0, 76, 0
1, 82079, Note_on_c, 0, 61, 0
1, 82080, Note_on_c, 0, 59, 80
1, 82080, Note_on_c, 0, 74, 64
1, 82135, Note_on_c, 0, 74, 0
1, 82140, Note_on_c, 0, 76, 64
1, 82195, Note_on_c, 0, 76, 0
1, 82200, Note_on_c, 0, 74, 64
1, 82255, Note_on_c, 0, 74, 0
1, 82260, Note_on_c, 0, 73, 64
1, 82315, Note_on_c, 0, 73, 0
1, 82320, Note_on_c, 0, 74, 64
1, 82439, Note_on_c, 0, 59, 0
1, 82440, Note_on_c, 0, 54, 80
1, 82559, Note_on_c, 0, 54, 0
1, 82560, Note_on_c, 0, 59, 80
1, 82679, Note_on_c, 0, 59, 0
1, 82679, Note_on_c, 0, 74, 0
1, 82680, Note_on_c, 0, 60, 80
1, 82680, Note_on_c, 0, 67, 64
1, 82790, Note_on_c, 0, 67, 0
1, 82799, Note_on_c, 0, 60, 0
1, 82800, Note_on_c, 0, 62, 80
1, 82800, Note_on_c, 0, 69, 64
1, 82827, Note_on_c, 0, 69, 0
1, 82830, Note_on_c, 0, 67, 64
1, 82889, Note_on_c, 0, 67, 0
1, 82920, Note_on_c, 0, 66, 80
1, 83039, Note_on_c, 0, 62, 0
1, 83039, Note_on_c, 0, 66, 0
1, 83040, Note_on_c, 0, 60, 80
1, 83040, Note_on_c, 0, 67, 64
1, 83067, Note_on_c, 0, 67, 0
1, 83070, Note_on_c, 0, 65, 64
1, 83129, Note_on_c, 0, 65, 0
1, 83160, Note_on_c, 0, 64, 80
1, 83279, Note_on_c, 0, 60, 0
1, 83279, Note_on_c, 0, 64, 0
1, 83280, Note_on_c, 0, 59, 80
1, 83280, Note_on_c, 0, 64, 64
1, 83390, Note_on_c, 0, 64, 0
1, 83400, Note_on_c, 0, 74, 64
1, 83510, Note_on_c, 0, 74, 0
1, 83519, Note_on_c, 0, 59, 0
1, 83520, Note_on_c, 0, 72, 64
1, 83575, Note_on_c, 0, 72, 0
1, 83580, Note_on_c, 0, 71, 64
1, 83635, Note_on_c, 0, 71, 0
1, 83640, Note_on_c, 0, 69, 64
1, 83819, Note_on_c, 0, 69, 0
1, 83820, Note_on_c, 0, 67, 64
1, 83875, Note_on_c, 0, 67, 0
1, 83880, Note_on_c, 0, 66, 64
1, 84059, Note_on_c, 0, 66, 0
1, 84060, Note_on_c, 0, 64, 64
1, 84115, Note_on_c, 0, 64, 0
1, 84120, Note_on_c, 0, 62, 64
1, 84299, Note_on_c, 0, 62, 0
1, 84300, Note_on_c, 0, 64, 64
1, 84355, Note_on_c, 0, 64, 0
1, 84360, Note_on_c, 0, 66, 64
1, 84539, Note_on_c, 0, 66, 0
1, 84540, Note_on_c, 0, 67, 64
1, 84595, Note_on_c, 0, 67, 0
1, 84600, Note_on_c, 0, 69, 64
1, 84779, Note_on_c, 0, 69, 0
1, 84780, Note_on_c, 0, 71, 64
1, 84835, Note_on_c, 0, 71, 0
1, 84840, Note_on_c, 0, 72, 64
1, 85019, Note_on_c, 0, 72, 0
1, 85020, Note_on_c, 0, 74, 64
1, 85075, Note_on_c, 0, 74, 0
1, 85080, Note_on_c, 0, 72, 64
1, 85135, Note_on_c, 0, 72, 0
1, 85140, Note_on_c, 0, 71, 64
1, 85195, Note_on_c, 0, 71, 0
1, 85200, Note_on_c, 0, 72, 64
1, 85255, Note_on_c, 0, 72, 0
1, 85260, Note_on_c, 0, 79, 64
1, 85315, Note_on_c, 0, 79, 0
1, 85320, Note_on_c, 0, 78, 64
1, 85375, Note_on_c, 0, 78, 0
1, 85380, Note_on_c, 0, 76, 64
1, 85435, Note_on_c, 0, 76, 0
1, 85440, Note_on_c, 0, 78, 64
1, 85495, Note_on_c, 0, 78, 0
1, 85500, Note_on_c, 0, 83, 64
1, 85555, Note_on_c, 0, 83, 0
1, 85560, Note_on_c, 0, 81, 64
1, 85615, Note_on_c, 0, 81, 0
1, 85620, Note_on_c, 0, 79, 64
1, 85675, Note_on_c, 0, 79, 0
1, 85680, Note_on_c, 0, 81, 64
1, 85735, Note_on_c, 0, 81, 0
1, 85740, Note_on_c, 0, 86, 64
1, 85795, Note_on_c, 0, 86, 0
1, 85800, Note_on_c, 0, 84, 64
1, 85855, Note_on_c, 0, 84, 0
1, 85860, Note_on_c, 0, 83, 64
1, 85915, Note_on_c, 0, 83, 0
1, 85920, Note_on_c, 0, 84, 64
1, 85975, Note_on_c, 0, 84, 0
1, 85980, Note_on_c, 0, 83, 64
1, 86035, Note_on_c, 0, 83, 0
1, 86040, Note_on_c, 0, 81, 64
1, 86095, Note_on_c, 0, 81, 0
1, 86100, Note_on_c, 0, 79, 64
1, 86155, Note_on_c, 0, 79, 0
1, 86160, Note_on_c, 0, 78, 64
1, 86215, Note_on_c, 0, 78, 0
1, 86220, Note_on_c, 0, 76, 64
1, 86275, Note_on_c, 0, 76, 0
1, 86280, Note_on_c, 0, 74, 64
1, 86335, Note_on_c, 0, 74, 0
1, 86340, Note_on_c, 0, 72, 64
1, 86395, Note_on_c, 0, 72, 0
1, 86400, Note_on_c, 0, 71, 64
1, 86455, Note_on_c, 0, 71, 0
1, 86460, Note_on_c, 0, 79, 64
1, 86515, Note_on_c, 0, 79, 0
1, 86520, Note_on_c, 0, 78, 64
1, 86575, Note_on_c, 0, 78, 0
1, 86580, Note_on_c, 0, 79, 64
1, 86635, Note_on_c, 0, 79, 0
1, 86640, Note_on_c, 0, 64, 80
1, 86640, Note_on_c, 0, 81, 64
1, 86695, Note_on_c, 0, 81, 0
1, 86700, Note_on_c, 0, 79, 64
1, 86755, Note_on_c, 0, 79, 0
1, 86760, Note_on_c, 0, 78, 64
1, 86815, Note_on_c, 0, 78, 0
1, 86820, Note_on_c, 0, 79, 64
1, 86875, Note_on_c, 0, 79, 0
1, 86879, Note_on_c, 0, 64, 0
1, 86880, Note_on_c, 0, 63, 80
1, 86880, Note_on_c, 0, 72, 64
1, 86935, Note_on_c, 0, 72, 0
1, 86940, Note_on_c, 0, 78, 64
1, 86995, Note_on_c, 0, 78, 0
1, 87000, Note_on_c, 0, 76, 64
1, 87055, Note_on_c, 0, 76, 0
1, 87060, Note_on_c, 0, 78, 64
1, 87115, Note_on_c, 0, 78, 0
1, 87119, Note_on_c, 0, 63, 0
1, 87120, Note_on_c, 0, 62, 80
1, 87120, Note_on_c, 0, 79, 64
1, 87175, Note_on_c, 0, 79, 0
1, 87180, Note_on_c, 0, 78, 64
1, 87235, Note_on_c, 0, 78, 0
1, 87240, Note_on_c, 0, 76, 64
1, 87295, Note_on_c, 0, 76, 0
1, 87300, Note_on_c, 0, 78, 64
1, 87355, Note_on_c, 0, 78, 0
1, 87359, Note_on_c, 0, 62, 0
1, 87360, Note_on_c, 0, 67, 80
1, 87360, Note_on_c, 0, 74, 64
1, 87415, Note_on_c, 0, 74, 0
1, 87420, Note_on_c, 0, 77, 64
1, 87475, Note_on_c, 0, 77, 0
1, 87480, Note_on_c, 0, 76, 64
1, 87535, Note_on_c, 0, 76, 0
1, 87540, Note_on_c, 0, 77, 64
1, 87595, Note_on_c, 0, 77, 0
1, 87599, Note_on_c, 0, 67, 0
1, 87600, Note_on_c, 0, 59, 80
1, 87600, Note_on_c, 0, 79, 64
1, 87655, Note_on_c, 0, 79, 0
1, 87660, Note_on_c, 0, 77, 64
1, 87715, Note_on_c, 0, 77, 0
1, 87720, Note_on_c, 0, 76, 64
1, 87775, Note_on_c, 0, 76, 0
1, 87780, Note_on_c, 0, 74, 64
1, 87835, Note_on_c, 0, 74, 0
1, 87839, Note_on_c, 0, 59, 0
1, 87840, Note_on_c, 0, 60, 80
1, 87840, Note_on_c, 0, 76, 64
1, 87895, Note_on_c, 0, 76, 0
1, 87900, Note_on_c, 0, 72, 64
1, 87955, Note_on_c, 0, 72, 0
1, 87960, Note_on_c, 0, 71, 64
1, 88015, Note_on_c, 0, 71, 0
1, 88020, Note_on_c, 0, 72, 64
1, 88075, Note_on_c, 0, 72, 0
1, 88079, Note_on_c, 0, 60, 0
1, 88080, Note_on_c, 0, 55, 80
1, 88080, Note_on_c, 0, 74, 64
1, 88135, Note_on_c, 0, 74, 0
1, 88140, Note_on_c, 0, 72, 64
1, 88195, Note_on_c, 0, 72, 0
1, 88200, Note_on_c, 0, 71, 64
1, 88255, Note_on_c, 0, 71, 0
1, 88260, Note_on_c, 0, 72, 64
1, 88315, Note_on_c, 0, 72, 0
1, 88319, Note_on_c, 0, 55, 0
1, 88320, Note_on_c, 0, 57, 80
1, 88320, Note_on_c, 0, 74, 64
1, 88375, Note_on_c, 0, 74, 0
1, 88380, Note_on_c, 0, 71, 64
1, 88435, Note_on_c, 0, 71, 0
1, 88440, Note_on_c, 0, 69, 64
1, 88495, Note_on_c, 0, 69, 0
1, 88500, Note_on_c, 0, 71, 64
1, 88555, Note_on_c, 0, 71, 0
1, 88559, Note_on_c, 0, 57, 0
1, 88560, Note_on_c, 0, 62, 80
1, 88560, Note_on_c, 0, 72, 64
1, 88615, Note_on_c, 0, 72, 0
1, 88620, Note_on_c, 0, 71, 64
1, 88675, Note_on_c, 0, 71, 0
1, 88680, Note_on_c, 0, 69, 64
1, 88735, Note_on_c, 0, 69, 0
1, 88740, Note_on_c, 0, 71, 64
1, 88795, Note_on_c, 0, 71, 0
1, 88799, Note_on_c, 0, 62, 0
1, 88800, Note_on_c, 0, 64, 80
1, 88800, Note_on_c, 0, 73, 64
1, 88855, Note_on_c, 0, 73, 0
1, 88860, Note_on_c, 0, 70, 64
1, 88915, Note_on_c, 0, 70, 0
1, 88920, Note_on_c, 0, 69, 64
1, 88975, Note_on_c, 0, 69, 0
1, 88980, Note_on_c, 0, 70, 64
1, 89035, Note_on_c, 0, 70, 0
1, 89039, Note_on_c, 0, 64, 0
1, 89040, Note_on_c, 0, 57, 80
1, 89040, Note_on_c, 0, 72, 64
1, 89095, Note_on_c, 0, 72, 0
1, 89100, Note_on_c, 0, 70, 64
1, 89155, Note_on_c, 0, 70, 0
1, 89160, Note_on_c, 0, 69, 64
1, 89215, Note_on_c, 0, 69, 0
1, 89220, Note_on_c, 0, 67, 64
1, 89275, Note_on_c, 0, 67, 0
1, 89280, Note_on_c, 0, 66, 64
1, 89335, Note_on_c, 0, 66, 0
1, 89340, Note_on_c, 0, 72, 64
1, 89395, Note_on_c, 0, 72, 0
1, 89400, Note_on_c, 0, 71, 64
1, 89455, Note_on_c, 0, 71, 0
1, 89460, Note_on_c, 0, 72, 64
1, 89515, Note_on_c, 0, 72, 0
1, 89519, Note_on_c, 0, 57, 0
1, 89520, Note_on_c, 0, 57, 80
1, 89520, Note_on_c, 0, 74, 64
1, 89575, Note_on_c, 0, 74, 0
1, 89580, Note_on_c, 0, 72, 64
1, 89635, Note_on_c, 0, 72, 0
1, 89639, Note_on_c, 0, 57, 0
1, 89640, Note_on_c, 0, 55, 80
1, 89640, Note_on_c, 0, 71, 64
1, 89695, Note_on_c, 0, 71, 0
1, 89700, Note_on_c, 0, 72, 64
1, 89755, Note_on_c, 0, 72, 0
1, 89759, Note_on_c, 0, 55, 0
1, 89760, Note_on_c, 0, 57, 80
1, 89760, Note_on_c, 0, 78, 64
1, 89815, Note_on_c, 0, 78, 0
1, 89820, Note_on_c, 0, 72, 64
1, 89875, Note_on_c, 0, 72, 0
1, 89880, Note_on_c, 0, 71, 64
1, 89935, Note_on_c, 0, 71, 0
1, 89940, Note_on_c, 0, 72, 64
1, 89995, Note_on_c, 0, 72, 0
1, 90000, Note_on_c, 0, 74, 64
1, 90055, Note_on_c, 0, 74, 0
1, 90060, Note_on_c, 0, 72, 64
1, 90115, Note_on_c, 0, 72, 0
1, 90120, Note_on_c, 0, 71, 64
1, 90175, Note_on_c, 0, 71, 0
1, 90180, Note_on_c, 0, 72, 64
1, 90235, Note_on_c, 0, 72, 0
1, 90239, Note_on_c, 0, 57, 0
1, 90240, Note_on_c, 0, 55, 80
1, 90240, Note_on_c, 0, 81, 64
1, 90295, Note_on_c, 0, 81, 0
1, 90300, Note_on_c, 0, 72, 64
1, 90355, Note_on_c, 0, 72, 0
1, 90360, Note_on_c, 0, 71, 64
1, 90415, Note_on_c, 0, 71, 0
1, 90420, Note_on_c, 0, 72, 64
1, 90475, Note_on_c, 0, 72, 0
1, 90479, Note_on_c, 0, 55, 0
1, 90480, Note_on_c, 0, 54, 80
1, 90480, Note_on_c, 0, 74, 64
1, 90535, Note_on_c, 0, 74, 0
1, 90540, Note_on_c, 0, 72, 64
1, 90595, Note_on_c, 0, 72, 0
1, 90600, Note_on_c, 0, 71, 64
1, 90655, Note_on_c, 0, 71, 0
1, 90660, Note_on_c, 0, 69, 64
1, 90715, Note_on_c, 0, 69, 0
1, 90719, Note_on_c, 0, 54, 0
1, 90720, Note_on_c, 0, 55, 80
1, 90720, Note_on_c, 0, 71, 64
1, 90830, Note_on_c, 0, 71, 0
1, 90840, Note_on_c, 0, 66, 64
1, 90950, Note_on_c, 0, 66, 0
1, 90959, Note_on_c, 0, 55, 0
1, 90960, Note_on_c, 0, 57, 80
1, 90960, Note_on_c, 0, 66, 64
1, 91070, Note_on_c, 0, 66, 0
1, 91080, Note_on_c, 0, 67, 64
1, 91190, Note_on_c, 0, 67, 0
1, 91199, Note_on_c, 0, 57, 0
1, 91200, Note_on_c, 0, 59, 80
1, 91200, Note_on_c, 0, 67, 64
1, 91310, Note_on_c, 0, 67, 0
1, 91320, Note_on_c, 0, 60, 64
1, 91430, Note_on_c, 0, 60, 0
1, 91439, Note_on_c, 0, 59, 0
1, 91440, Note_on_c, 0, 54, 80
1, 91440, Note_on_c, 0, 60, 64
1, 91550, Note_on_c, 0, 60, 0
1, 91560, Note_on_c, 0, 59, 64
1, 91670, Note_on_c, 0, 59, 0
1, 91679, Note_on_c, 0, 54, 0
1, 91680, Note_on_c, 0, 55, 80
1, 91680, Note_on_c, 0, 59, 64
1, 92150, Note_on_c, 0, 59, 0
1, 92159, Note_on_c, 0, 55, 0
1, 92160, End_track
2, 0, Start_track
2, 0, Key_signature, 1, "major"
2, 0, Note_on_c, 0, 55, 80
2, 719, Note_on_c, 0, 55, 0
2, 720, Note_on_c, 0, 55, 64
2, 950, Note_on_c, 0, 55, 0
2, 960, Note_on_c, 0, 54, 64
2, 1190, Note_on_c, 0, 54, 0
2, 1200, Note_on_c, 0, 52, 64
2, 1430, Note_on_c, 0, 52, 0
2, 1440, Note_on_c, 0, 54, 80
2, 2159, Note_on_c, 0, 54, 0
2, 2160, Note_on_c, 0, 59, 64
2, 2390, Note_on_c, 0, 59, 0
2, 2400, Note_on_c, 0, 57, 64
2, 2630, Note_on_c, 0, 57, 0
2, 2640, Note_on_c, 0, 59, 64
2, 2870, Note_on_c, 0, 59, 0
2, 2880, Note_on_c, 0, 52, 80
2, 3599, Note_on_c, 0, 52, 0
2, 3600, Note_on_c, 0, 57, 64
2, 3830, Note_on_c, 0, 57, 0
2, 3840, Note_on_c, 0, 55, 64
2, 4070, Note_on_c, 0, 55, 0
2, 4080, Note_on_c, 0, 57, 64
2, 4310, Note_on_c, 0, 57, 0
2, 4320, Note_on_c, 0, 50, 80
2, 5039, Note_on_c, 0, 50, 0
2, 5040, Note_on_c, 0, 52, 64
2, 5270, Note_on_c, 0, 52, 0
2, 5280, Note_on_c, 0, 50, 64
2, 5510, Note_on_c, 0, 50, 0
2, 5520, Note_on_c, 0, 48, 64
2, 5750, Note_on_c, 0, 48, 0
2, 5760, Note_on_c, 0, 47, 80
2, 6479, Note_on_c, 0, 47, 0
2, 6480, Note_on_c, 0, 43, 64
2, 6710, Note_on_c, 0, 43, 0
2, 6720, Note_on_c, 0, 45, 64
2, 6950, Note_on_c, 0, 45, 0
2, 6960, Note_on_c, 0, 47, 64
2, 7190, Note_on_c, 0, 47, 0
2, 7200, Note_on_c, 0, 48, 80
2, 7919, Note_on_c, 0, 48, 0
2, 7920, Note_on_c, 0, 45, 64
2, 8150, Note_on_c, 0, 45, 0
2, 8160, Note_on_c, 0, 47, 64
2, 8390, Note_on_c, 0, 47, 0
2, 8400, Note_on_c, 0, 48, 64
2, 8630, Note_on_c, 0, 48, 0
2, 8640, Note_on_c, 0, 50, 80
2, 9359, Note_on_c, 0, 50, 0
2, 9360, Note_on_c, 0, 50, 64
2, 9590, Note_on_c, 0, 50, 0
2, 9600, Note_on_c, 0, 48, 64
2, 9830, Note_on_c, 0, 48, 0
2, 9840, Note_on_c, 0, 50, 64
2, 10070, Note_on_c, 0, 50, 0
2, 10080, Note_on_c, 0, 43, 80
2, 10799, Note_on_c, 0, 43, 0
2, 10800, Note_on_c, 0, 43, 64
2, 11030, Note_on_c, 0, 43, 0
2, 11040, Note_on_c, 0, 47, 64
2, 11270, Note_on_c, 0, 47, 0
2, 11280, Note_on_c, 0, 50, 64
2, 11510, Note_on_c, 0, 50, 0
2, 11520, Note_on_c, 0, 55, 80
2, 11999, Note_on_c, 0, 55, 0
2, 12240, Note_on_c, 0, 55, 64
2, 12470, Note_on_c, 0, 55, 0
2, 12480, Note_on_c, 0, 54, 64
2, 12710, Note_on_c, 0, 54, 0
2, 12720, Note_on_c, 0, 52, 64
2, 12950, Note_on_c, 0, 52, 0
2, 12960, Note_on_c, 0, 54, 80
2, 13679, Note_on_c, 0, 54, 0
2, 13680, Note_on_c, 0, 59, 64
2, 13910, Note_on_c, 0, 59, 0
2, 13920, Note_on_c, 0, 57, 64
2, 14150, Note_on_c, 0, 57, 0
2, 14160, Note_on_c, 0, 59, 64
2, 14390, Note_on_c, 0, 59, 0
2, 14400, Note_on_c, 0, 52, 80
2, 15119, Note_on_c, 0, 52, 0
2, 15120, Note_on_c, 0, 54, 64
2, 15350, Note_on_c, 0, 54, 0
2, 15360, Note_on_c, 0, 52, 64
2, 15590, Note_on_c, 0, 52, 0
2, 15600, Note_on_c, 0, 50, 64
2, 15830, Note_on_c, 0, 50, 0
2, 15840, Note_on_c, 0, 49, 80
2, 16559, Note_on_c, 0, 49, 0
2, 16560, Note_on_c, 0, 52, 64
2, 16790, Note_on_c, 0, 52, 0
2, 16800, Note_on_c, 0, 45, 64
2, 17030, Note_on_c, 0, 45, 0
2, 17040, Note_on_c, 0, 43, 64
2, 17270, Note_on_c, 0, 43, 0
2, 17280, Note_on_c, 0, 42, 64
2, 17510, Note_on_c, 0, 42, 0
2, 17520, Note_on_c, 0, 57, 80
2, 17520, Note_on_c, 0, 54, 80
2, 17699, Note_on_c, 0, 54, 0
2, 17700, Note_on_c, 0, 52, 64
2, 17755, Note_on_c, 0, 52, 0
2, 17759, Note_on_c, 0, 57, 0
2, 17760, Note_on_c, 0, 62, 80
2, 17760, Note_on_c, 0, 54, 64
2, 17990, Note_on_c, 0, 54, 0
2, 18000, Note_on_c, 0, 57, 64
2, 18230, Note_on_c, 0, 57, 0
2, 18240, Note_on_c, 0, 50, 64
2, 18470, Note_on_c, 0, 50, 0
2, 18479, Note_on_c, 0, 62, 0
2, 18480, Note_on_c, 0, 57, 80
2, 18480, Note_on_c, 0, 54, 64
2, 18710, Note_on_c, 0, 54, 0
2, 18719, Note_on_c, 0, 57, 0
2, 18720, Note_on_c, 0, 55, 80
2, 18720, Note_on_c, 0, 43, 64
2, 18950, Note_on_c, 0, 43, 0
2, 18959, Note_on_c, 0, 55, 0
2, 18960, Note_on_c, 0, 59, 80
2, 18960, Note_on_c, 0, 55, 80
2, 19139, Note_on_c, 0, 55, 0
2, 19140, Note_on_c, 0, 54, 64
2, 19195, Note_on_c, 0, 54, 0
2, 19199, Note_on_c, 0, 59, 0
2, 19200, Note_on_c, 0, 64, 80
2, 19200, Note_on_c, 0, 55, 64
2, 19430, Note_on_c, 0, 55, 0
2, 19440, Note_on_c, 0, 59, 64
2, 19670, Note_on_c, 0, 59, 0
2, 19680, Note_on_c, 0, 52, 64
2, 19910, Note_on_c, 0, 52, 0
2, 19919, Note_on_c, 0, 64, 0
2, 19920, Note_on_c, 0, 59, 80
2, 19920, Note_on_c, 0, 55, 64
2, 20150, Note_on_c, 0, 55, 0
2, 20159, Note_on_c, 0, 59, 0
2, 20160, Note_on_c, 0, 45, 64
2, 20390, Note_on_c, 0, 45, 0
2, 20400, Note_on_c, 0, 57, 80
2, 20579, Note_on_c, 0, 57, 0
2, 20580, Note_on_c, 0, 55, 64
2, 20635, Note_on_c, 0, 55, 0
2, 20640, Note_on_c, 0, 57, 80
2, 21359, Note_on_c, 0, 57, 0
2, 21360, Note_on_c, 0, 57, 64
2, 21590, Note_on_c, 0, 57, 0
2, 21600, Note_on_c, 0, 62, 80
2, 21600, Note_on_c, 0, 50, 80
2, 21839, Note_on_c, 0, 62, 0
2, 21840, Note_on_c, 0, 52, 80
2, 22079, Note_on_c, 0, 52, 0
2, 22080, Note_on_c, 0, 54, 80
2, 22319, Note_on_c, 0, 54, 0
2, 22320, Note_on_c, 0, 58, 80
2, 22559, Note_on_c, 0, 58, 0
2, 22560, Note_on_c, 0, 57, 80
2, 23039, Note_on_c, 0, 57, 0
2, 23039, Note_on_c, 0, 50, 0
2, 23040, Note_on_c, 0, 55, 80
2, 23759, Note_on_c, 0, 55, 0
2, 23760, Note_on_c, 0, 55, 64
2, 23990, Note_on_c, 0, 55, 0
2, 24000, Note_on_c, 0, 54, 64
2, 24230, Note_on_c, 0, 54, 0
2, 24240, Note_on_c, 0, 52, 64
2, 24470, Note_on_c, 0, 52, 0
2, 24480, Note_on_c, 0, 54, 80
2, 25199, Note_on_c, 0, 54, 0
2, 25200, Note_on_c, 0, 59, 64
2, 25430, Note_on_c, 0, 59, 0
2, 25440, Note_on_c, 0, 57, 64
2, 25670, Note_on_c, 0, 57, 0
2, 25680, Note_on_c, 0, 59, 64
2, 25910, Note_on_c, 0, 59, 0
2, 25920, Note_on_c, 0, 52, 80
2, 26639, Note_on_c, 0, 52, 0
2, 26640, Note_on_c, 0, 57, 64
2, 26870, Note_on_c, 0, 57, 0
2, 26880, Note_on_c, 0, 55, 64
2, 27110, Note_on_c, 0, 55, 0
2, 27120, Note_on_c, 0, 57, 64
2, 27350, Note_on_c, 0, 57, 0
2, 27360, Note_on_c, 0, 50, 80
2, 28079, Note_on_c, 0, 50, 0
2, 28080, Note_on_c, 0, 52, 64
2, 28310, Note_on_c, 0, 52, 0
2, 28320, Note_on_c, 0, 50, 64
2, 28550, Note_on_c, 0, 50, 0
2, 28560, Note_on_c, 0, 48, 64
2, 28790, Note_on_c, 0, 48, 0
2, 28800, Note_on_c, 0, 47, 80
2, 29519, Note_on_c, 0, 47, 0
2, 29520, Note_on_c, 0, 43, 64
2, 29750, Note_on_c, 0, 43, 0
2, 29760, Note_on_c, 0, 45, 64
2, 29990, Note_on_c, 0, 45, 0
2, 30000, Note_on_c, 0, 47, 64
2, 30230, Note_on_c, 0, 47, 0
2, 30240, Note_on_c, 0, 48, 80
2, 30959, Note_on_c, 0, 48, 0
2, 30960, Note_on_c, 0, 45, 64
2, 31190, Note_on_c, 0, 45, 0
2, 31200, Note_on_c, 0, 47, 64
2, 31430, Note_on_c, 0, 47, 0
2, 31440, Note_on_c, 0, 48, 64
2, 31670, Note_on_c, 0, 48, 0
2, 31680, Note_on_c, 0, 50, 80
2, 32399, Note_on_c, 0, 50, 0
2, 32400, Note_on_c, 0, 50, 64
2, 32630, Note_on_c, 0, 50, 0
2, 32640, Note_on_c, 0, 48, 64
2, 32870, Note_on_c, 0, 48, 0
2, 32880, Note_on_c, 0, 50, 64
2, 33110, Note_on_c, 0, 50, 0
2, 33120, Note_on_c, 0, 43, 80
2, 33839, Note_on_c, 0, 43, 0
2, 33840, Note_on_c, 0, 43, 64
2, 34070, Note_on_c, 0, 43, 0
2, 34080, Note_on_c, 0, 47, 64
2, 34310, Note_on_c, 0, 47, 0
2, 34320, Note_on_c, 0, 50, 64
2, 34550, Note_on_c, 0, 50, 0
2, 34560, Note_on_c, 0, 55, 80
2, 35039, Note_on_c, 0, 55, 0
2, 35280, Note_on_c, 0, 55, 64
2, 35510, Note_on_c, 0, 55, 0
2, 35520, Note_on_c, 0, 54, 64
2, 35750, Note_on_c, 0, 54, 0
2, 35760, Note_on_c, 0, 52, 64
2, 35990, Note_on_c, 0, 52, 0
2, 36000, Note_on_c, 0, 54, 80
2, 36719, Note_on_c, 0, 54, 0
2, 36720, Note_on_c, 0, 59, 64
2, 36950, Note_on_c, 0, 59, 0
2, 36960, Note_on_c, 0, 57, 64
2, 37190, Note_on_c, 0, 57, 0
2, 37200, Note_on_c, 0, 59, 64
2, 37430, Note_on_c, 0, 59, 0
2, 37440, Note_on_c, 0, 52, 80
2, 38159, Note_on_c, 0, 52, 0
2, 38160, Note_on_c, 0, 54, 64
2, 38390, Note_on_c, 0, 54, 0
2, 38400, Note_on_c, 0, 52, 64
2, 38630, Note_on_c, 0, 52, 0
2, 38640, Note_on_c, 0, 50, 64
2, 38870, Note_on_c, 0, 50, 0
2, 38880, Note_on_c, 0, 49, 80
2, 39599, Note_on_c, 0, 49, 0
2, 39600, Note_on_c, 0, 52, 64
2, 39830, Note_on_c, 0, 52, 0
2, 39840, Note_on_c, 0, 45, 64
2, 40070, Note_on_c, 0, 45, 0
2, 40080, Note_on_c, 0, 43, 64
2, 40310, Note_on_c, 0, 43, 0
2, 40320, Note_on_c, 0, 42, 64
2, 40550, Note_on_c, 0, 42, 0
2, 40560, Note_on_c, 0, 57, 80
2, 40560, Note_on_c, 0, 54, 80
2, 40739, Note_on_c, 0, 54, 0
2, 40740, Note_on_c, 0, 52, 64
2, 40795, Note_on_c, 0, 52, 0
2, 40799, Note_on_c, 0, 57, 0
2, 40800, Note_on_c, 0, 62, 80
2, 40800, Note_on_c, 0, 54, 64
2, 41030, Note_on_c, 0, 54, 0
2, 41040, Note_on_c, 0, 57, 64
2, 41270, Note_on_c, 0, 57, 0
2, 41280, Note_on_c, 0, 50, 64
2, 41510, Note_on_c, 0, 50, 0
2, 41519, Note_on_c, 0, 62, 0
2, 41520, Note_on_c, 0, 57, 80
2, 41520, Note_on_c, 0, 54, 64
2, 41750, Note_on_c, 0, 54, 0
2, 41759, Note_on_c, 0, 57, 0
2, 41760, Note_on_c, 0, 55, 80
2, 41760, Note_on_c, 0, 43, 64
2, 41990, Note_on_c, 0, 43, 0
2, 41999, Note_on_c, 0, 55, 0
2, 42000, Note_on_c, 0, 59, 80
2, 42000, Note_on_c, 0, 55, 80
2, 42179, Note_on_c, 0, 55, 0
2, 42180, Note_on_c, 0, 54, 64
2, 42235, Note_on_c, 0, 54, 0
2, 42239, Note_on_c, 0, 59, 0
2, 42240, Note_on_c, 0, 64, 80
2, 42240, Note_on_c, 0, 55, 64
2, 42470, Note_on_c, 0, 55, 0
2, 42480, Note_on_c, 0, 59, 64
2, 42710, Note_on_c, 0, 59, 0
2, 42720, Note_on_c, 0, 52, 64
2, 42950, Note_on_c, 0, 52, 0
2, 42959, Note_on_c, 0, 64, 0
2, 42960, Note_on_c, 0, 59, 80
2, 42960, Note_on_c, 0, 55, 64
2, 43190, Note_on_c, 0, 55, 0
2, 43199, Note_on_c, 0, 59, 0
2, 43200, Note_on_c, 0, 45, 64
2, 43430, Note_on_c, 0, 45, 0
2, 43440, Note_on_c, 0, 57, 80
2, 43619, Note_on_c, 0, 57, 0
2, 43620, Note_on_c, 0, 55, 64
2, 43675, Note_on_c, 0, 55, 0
2, 43680, Note_on_c, 0, 57, 80
2, 44399, Note_on_c, 0, 57, 0
2, 44400, Note_on_c, 0, 57, 64
2, 44630, Note_on_c, 0, 57, 0
2, 44640, Note_on_c, 0, 62, 80
2, 44640, Note_on_c, 0, 50, 80
2, 44879, Note_on_c, 0, 62, 0
2, 44880, Note_on_c, 0, 52, 80
2, 45119, Note_on_c, 0, 52, 0
2, 45120, Note_on_c, 0, 54, 80
2, 45359, Note_on_c, 0, 54, 0
2, 45360, Note_on_c, 0, 58, 80
2, 45599, Note_on_c, 0, 58, 0
2, 45600, Note_on_c, 0, 57, 80
2, 46079, Note_on_c, 0, 57, 0
2, 46079, Note_on_c, 0, 50, 0
2, 46080, Note_on_c, 0, 62, 80
2, 46799, Note_on_c, 0, 62, 0
2, 46800, Note_on_c, 0, 60, 64
2, 46910, Note_on_c, 0, 60, 0
2, 46920, Note_on_c, 0, 59, 64
2, 47030, Note_on_c, 0, 59, 0
2, 47040, Note_on_c, 0, 60, 64
2, 47270, Note_on_c, 0, 60, 0
2, 47280, Note_on_c, 0, 57, 64
2, 47510, Note_on_c, 0, 57, 0
2, 47520, Note_on_c, 0, 59, 80
2, 48239, Note_on_c, 0, 59, 0
2, 48240, Note_on_c, 0, 62, 64
2, 48470, Note_on_c, 0, 62, 0
2, 48480, Note_on_c, 0, 55, 64
2, 48710, Note_on_c, 0, 55, 0
2, 48720, Note_on_c, 0, 59, 64
2, 48950, Note_on_c, 0, 59, 0
2, 48960, Note_on_c, 0, 60, 80
2, 49679, Note_on_c, 0, 60, 0
2, 49680, Note_on_c, 0, 59, 64
2, 49910, Note_on_c, 0, 59, 0
2, 49920, Note_on_c, 0, 60, 64
2, 50150, Note_on_c, 0, 60, 0
2, 50160, Note_on_c, 0, 57, 64
2, 50390, Note_on_c, 0, 57, 0
2, 50400, Note_on_c, 0, 59, 80
2, 51119, Note_on_c, 0, 59, 0
2, 51120, Note_on_c, 0, 47, 64
2, 51350, Note_on_c, 0, 47, 0
2, 51360, Note_on_c, 0, 49, 64
2, 51590, Note_on_c, 0, 49, 0
2, 51600, Note_on_c, 0, 51, 64
2, 51830, Note_on_c, 0, 51, 0
2, 51840, Note_on_c, 0, 40, 64
2, 52070, Note_on_c, 0, 40, 0
2, 52080, Note_on_c, 0, 55, 64
2, 52190, Note_on_c, 0, 55, 0
2, 52200, Note_on_c, 0, 57, 64
2, 52310, Note_on_c, 0, 57, 0
2, 52320, Note_on_c, 0, 55, 64
2, 52550, Note_on_c, 0, 55, 0
2, 52560, Note_on_c, 0, 54, 64
2, 52790, Note_on_c, 0, 54, 0
2, 52800, Note_on_c, 0, 52, 64
2, 53270, Note_on_c, 0, 52, 0
2, 53280, Note_on_c, 0, 45, 64
2, 53510, Note_on_c, 0, 45, 0
2, 53520, Note_on_c, 0, 57, 64
2, 53630, Note_on_c, 0, 57, 0
2, 53640, Note_on_c, 0, 55, 64
2, 53750, Note_on_c, 0, 55, 0
2, 53760, Note_on_c, 0, 57, 64
2, 53990, Note_on_c, 0, 57, 0
2, 54000, Note_on_c, 0, 60, 64
2, 54230, Note_on_c, 0, 60, 0
2, 54240, Note_on_c, 0, 57, 64
2, 54470, Note_on_c, 0, 57, 0
2, 54480, Note_on_c, 0, 54, 64
2, 54710, Note_on_c, 0, 54, 0
2, 54720, Note_on_c, 0, 47, 64
2, 54950, Note_on_c, 0, 47, 0
2, 54960, Note_on_c, 0, 51, 64
2, 55190, Note_on_c, 0, 51, 0
2, 55200, Note_on_c, 0, 52, 64
2, 55430, Note_on_c, 0, 52, 0
2, 55440, Note_on_c, 0, 55, 64
2, 55670, Note_on_c, 0, 55, 0
2, 55680, Note_on_c, 0, 59, 64
2, 56150, Note_on_c, 0, 59, 0
2, 56160, Note_on_c, 0, 64, 80
2, 56160, Note_on_c, 0, 52, 64
2, 56399, Note_on_c, 0, 64, 0
2, 56400, Note_on_c, 0, 54, 80
2, 56639, Note_on_c, 0, 54, 0
2, 56640, Note_on_c, 0, 55, 80
2, 56879, Note_on_c, 0, 55, 0
2, 56880, Note_on_c, 0, 60, 80
2, 57119, Note_on_c, 0, 60, 0
2, 57120, Note_on_c, 0, 59, 80
2, 57359, Note_on_c, 0, 59, 0
2, 57359, Note_on_c, 0, 52, 0
2, 57360, Note_on_c, 0, 50, 64
2, 57590, Note_on_c, 0, 50, 0
2, 57600, Note_on_c, 0, 48, 64
2, 58070, Note_on_c, 0, 48, 0
2, 58320, Note_on_c, 0, 60, 64
2, 58550, Note_on_c, 0, 60, 0
2, 58560, Note_on_c, 0, 59, 64
2, 58790, Note_on_c, 0, 59, 0
2, 58800, Note_on_c, 0, 58, 64
2, 59030, Note_on_c, 0, 58, 0
2, 59040, Note_on_c, 0, 59, 80
2, 59279, Note_on_c, 0, 59, 0
2, 59280, Note_on_c, 0, 47, 64
2, 59510, Note_on_c, 0, 47, 0
2, 59760, Note_on_c, 0, 59, 64
2, 59990, Note_on_c, 0, 59, 0
2, 60000, Note_on_c, 0, 57, 64
2, 60230, Note_on_c, 0, 57, 0
2, 60240, Note_on_c, 0, 56, 64
2, 60470, Note_on_c, 0, 56, 0
2, 60480, Note_on_c, 0, 57, 64
2, 60710, Note_on_c, 0, 57, 0
2, 60720, Note_on_c, 0, 45, 80
2, 60720, Note_on_c, 0, 52, 64
2, 60950, Note_on_c, 0, 52, 0
2, 60959, Note_on_c, 0, 45, 0
2, 60960, Note_on_c, 0, 57, 80
2, 61199, Note_on_c, 0, 57, 0
2, 61200, Note_on_c, 0, 60, 80
2, 61439, Note_on_c, 0, 60, 0
2, 61440, Note_on_c, 0, 57, 80
2, 61679, Note_on_c, 0, 57, 0
2, 61680, Note_on_c, 0, 54, 80
2, 61919, Note_on_c, 0, 54, 0
2, 61920, Note_on_c, 0, 50, 80
2, 62160, Note_on_c, 0, 45, 80
2, 62399, Note_on_c, 0, 45, 0
2, 62399, Note_on_c, 0, 50, 0
2, 62400, Note_on_c, 0, 38, 80
2, 62639, Note_on_c, 0, 38, 0
2, 62640, Note_on_c, 0, 42, 80
2, 62879, Note_on_c, 0, 42, 0
2, 62880, Note_on_c, 0, 45, 80
2, 63119, Note_on_c, 0, 45, 0
2, 63120, Note_on_c, 0, 50, 80
2, 63359, Note_on_c, 0, 50, 0
2, 63360, Note_on_c, 0, 43, 64
2, 63590, Note_on_c, 0, 43, 0
2, 63600, Note_on_c, 0, 55, 64
2, 63830, Note_on_c, 0, 55, 0
2, 63840, Note_on_c, 0, 57, 64
2, 64070, Note_on_c, 0, 57, 0
2, 64080, Note_on_c, 0, 59, 64
2, 64310, Note_on_c, 0, 59, 0
2, 64560, Note_on_c, 0, 55, 64
2, 64790, Note_on_c, 0, 55, 0
2, 64800, Note_on_c, 0, 48, 64
2, 65030, Note_on_c, 0, 48, 0
2, 65040, Note_on_c, 0, 52, 64
2, 65270, Note_on_c, 0, 52, 0
2, 65280, Note_on_c, 0, 53, 64
2, 65510, Note_on_c, 0, 53, 0
2, 65520, Note_on_c, 0, 54, 64
2, 65750, Note_on_c, 0, 54, 0
2, 65760, Note_on_c, 0, 55, 64
2, 65990, Note_on_c, 0, 55, 0
2, 66000, Note_on_c, 0, 54, 64
2, 66110, Note_on_c, 0, 54, 0
2, 66120, Note_on_c, 0, 52, 64
2, 66230, Note_on_c, 0, 52, 0
2, 66240, Note_on_c, 0, 50, 64
2, 66959, Note_on_c, 0, 50, 0
2, 66960, Note_on_c, 0, 54, 64
2, 67190, Note_on_c, 0, 54, 0
2, 67200, Note_on_c, 0, 52, 64
2, 67430, Note_on_c, 0, 52, 0
2, 67440, Note_on_c, 0, 50, 64
2, 67670, Note_on_c, 0, 50, 0
2, 67680, Note_on_c, 0, 43, 64
2, 68150, Note_on_c, 0, 43, 0
2, 68400, Note_on_c, 0, 51, 80
2, 68639, Note_on_c, 0, 51, 0
2, 68640, Note_on_c, 0, 50, 80
2, 68640, Note_on_c, 0, 43, 64
2, 69110, Note_on_c, 0, 43, 0
2, 69119, Note_on_c, 0, 50, 0
2, 69120, Note_on_c, 0, 62, 80
2, 69839, Note_on_c, 0, 62, 0
2, 69840, Note_on_c, 0, 60, 64
2, 69950, Note_on_c, 0, 60, 0
2, 69960, Note_on_c, 0, 59, 64
2, 70070, Note_on_c, 0, 59, 0
2, 70080, Note_on_c, 0, 60, 64
2, 70310, Note_on_c, 0, 60, 0
2, 70320, Note_on_c, 0, 57, 64
2, 70550, Note_on_c, 0, 57, 0
2, 70560, Note_on_c, 0, 59, 80
2, 71279, Note_on_c, 0, 59, 0
2, 71280, Note_on_c, 0, 62, 64
2, 71510, Note_on_c, 0, 62, 0
2, 71520, Note_on_c, 0, 55, 64
2, 71750, Note_on_c, 0, 55, 0
2, 71760, Note_on_c, 0, 59, 64
2, 71990, Note_on_c, 0, 59, 0
2, 72000, Note_on_c, 0, 60, 80
2, 72719, Note_on_c, 0, 60, 0
2, 72720, Note_on_c, 0, 59, 64
2, 72950, Note_on_c, 0, 59, 0
2, 72960, Note_on_c, 0, 60, 64
2, 73190, Note_on_c, 0, 60, 0
2, 73200, Note_on_c, 0, 57, 64
2, 73430, Note_on_c, 0, 57, 0
2, 73440, Note_on_c, 0, 59, 80
2, 74159, Note_on_c, 0, 59, 0
2, 74160, Note_on_c, 0, 47, 64
2, 74390, Note_on_c, 0, 47, 0
2, 74400, Note_on_c, 0, 49, 64
2, 74630, Note_on_c, 0, 49, 0
2, 74640, Note_on_c, 0, 51, 64
2, 74870, Note_on_c, 0, 51, 0
2, 74880, Note_on_c, 0, 40, 64
2, 75110, Note_on_c, 0, 40, 0
2, 75120, Note_on_c, 0, 55, 64
2, 75230, Note_on_c, 0, 55, 0
2, 75240, Note_on_c, 0, 57, 64
2, 75350, Note_on_c, 0, 57, 0
2, 75360, Note_on_c, 0, 55, 64
2, 75590, Note_on_c, 0, 55, 0
2, 75600, Note_on_c, 0, 54, 64
2, 75830, Note_on_c, 0, 54, 0
2, 75840, Note_on_c, 0, 52, 64
2, 76310, Note_on_c, 0, 52, 0
2, 76320, Note_on_c, 0, 45, 64
2, 76550, Note_on_c, 0, 45, 0
2, 76560, Note_on_c, 0, 57, 64
2, 76670, Note_on_c, 0, 57, 0
2, 76680, Note_on_c, 0, 55, 64
2, 76790, Note_on_c, 0, 55, 0
2, 76800, Note_on_c, 0, 57, 64
2, 77030, Note_on_c, 0, 57, 0
2, 77040, Note_on_c, 0, 60, 64
2, 77270, Note_on_c, 0, 60, 0
2, 77280, Note_on_c, 0, 57, 64
2, 77510, Note_on_c, 0, 57, 0
2, 77520, Note_on_c, 0, 54, 64
2, 77750, Note_on_c, 0, 54, 0
2, 77760, Note_on_c, 0, 47, 64
2, 77990, Note_on_c, 0, 47, 0
2, 78000, Note_on_c, 0, 51, 64
2, 78230, Note_on_c, 0, 51, 0
2, 78240, Note_on_c, 0, 52, 64
2, 78470, Note_on_c, 0, 52, 0
2, 78480, Note_on_c, 0, 55, 64
2, 78710, Note_on_c, 0, 55, 0
2, 78720, Note_on_c, 0, 59, 64
2, 79190, Note_on_c, 0, 59, 0
2, 79200, Note_on_c, 0, 64, 80
2, 79200, Note_on_c, 0, 52, 64
2, 79439, Note_on_c, 0, 64, 0
2, 79440, Note_on_c, 0, 54, 80
2, 79679, Note_on_c, 0, 54, 0
2, 79680, Note_on_c, 0, 55, 80
2, 79919, Note_on_c, 0, 55, 0
2, 79920, Note_on_c, 0, 60, 80
2, 80159, Note_on_c, 0, 60, 0
2, 80160, Note_on_c, 0, 59, 80
2, 80399, Note_on_c, 0, 59, 0
2, 80399, Note_on_c, 0, 52, 0
2, 80400, Note_on_c, 0, 50, 64
2, 80630, Note_on_c, 0, 50, 0
2, 80640, Note_on_c, 0, 48, 64
2, 81110, Note_on_c, 0, 48, 0
2, 81360, Note_on_c, 0, 60, 64
2, 81590, Note_on_c, 0, 60, 0
2, 81600, Note_on_c, 0, 59, 64
2, 81830, Note_on_c, 0, 59, 0
2, 81840, Note_on_c, 0, 58, 64
2, 82070, Note_on_c, 0, 58, 0
2, 82080, Note_on_c, 0, 59, 80
2, 82319, Note_on_c, 0, 59, 0
2, 82320, Note_on_c, 0, 47, 64
2, 82550, Note_on_c, 0, 47, 0
2, 82800, Note_on_c, 0, 59, 64
2, 83030, Note_on_c, 0, 59, 0
2, 83040, Note_on_c, 0, 57, 64
2, 83270, Note_on_c, 0, 57, 0
2, 83280, Note_on_c, 0, 56, 64
2, 83510, Note_on_c, 0, 56, 0
2, 83520, Note_on_c, 0, 57, 64
2, 83750, Note_on_c, 0, 57, 0
2, 83760, Note_on_c, 0, 45, 80
2, 83760, Note_on_c, 0, 52, 64
2, 83990, Note_on_c, 0, 52, 0
2, 83999, Note_on_c, 0, 45, 0
2, 84000, Note_on_c, 0, 57, 80
2, 84239, Note_on_c, 0, 57, 0
2, 84240, Note_on_c, 0, 60, 80
2, 84479, Note_on_c, 0, 60, 0
2, 84480, Note_on_c, 0, 57, 80
2, 84719, Note_on_c, 0, 57, 0
2, 84720, Note_on_c, 0, 54, 80
2, 84959, Note_on_c, 0, 54, 0
2, 84960, Note_on_c, 0, 50, 80
2, 85200, Note_on_c, 0, 45, 80
2, 85439, Note_on_c, 0, 45, 0
2, 85439, Note_on_c, 0, 50, 0
2, 85440, Note_on_c, 0, 38, 80
2, 85679, Note_on_c, 0, 38, 0
2, 85680, Note_on_c, 0, 42, 80
2, 85919, Note_on_c, 0, 42, 0
2, 85920, Note_on_c, 0, 45, 80
2, 86159, Note_on_c, 0, 45, 0
2, 86160, Note_on_c, 0, 50, 80
2, 86399, Note_on_c, 0, 50, 0
2, 86400, Note_on_c, 0, 43, 64
2, 86630, Note_on_c, 0, 43, 0
2, 86640, Note_on_c, 0, 55, 64
2, 86870, Note_on_c, 0, 55, 0
2, 86880, Note_on_c, 0, 57, 64
2, 87110, Note_on_c, 0, 57, 0
2, 87120, Note_on_c, 0, 59, 64
2, 87350, Note_on_c, 0, 59, 0
2, 87600, Note_on_c, 0, 55, 64
2, 87830, Note_on_c, 0, 55, 0
2, 87840, Note_on_c, 0, 48, 64
2, 88070, Note_on_c, 0, 48, 0
2, 88080, Note_on_c, 0, 52, 64
2, 88310, Note_on_c, 0, 52, 0
2, 88320, Note_on_c, 0, 53, 64
2, 88550, Note_on_c, 0, 53, 0
2, 88560, Note_on_c, 0, 54, 64
2, 88790, Note_on_c, 0, 54, 0
2, 88800, Note_on_c, 0, 55, 64
2, 89030, Note_on_c, 0, 55, 0
2, 89040, Note_on_c, 0, 54, 64
2, 89150, Note_on_c, 0, 54, 0
2, 89160, Note_on_c, 0, 52, 64
2, 89270, Note_on_c, 0, 52, 0
2, 89280, Note_on_c, 0, 50, 64
2, 89999, Note_on_c, 0, 50, 0
2, 90000, Note_on_c, 0, 54, 64
2, 90230, Note_on_c, 0, 54, 0
2, 90240, Note_on_c, 0, 52, 64
2, 90470, Note_on_c, 0, 52, 0
2, 90480, Note_on_c, 0, 50, 64
2, 90710, Note_on_c, 0, 50, 0
2, 90720, Note_on_c, 0, 43, 64
2, 91190, Note_on_c, 0, 43, 0
2, 91440, Note_on_c, 0, 51, 80
2, 91679, Note_on_c, 0, 51, 0
2, 91680, Note_on_c, 0, 50, 80
2, 91680, Note_on_c, 0, 43, 64
2, 92150, Note_on_c, 0, 43, 0
2, 92159, Note_on_c, 0, 50, 0
2, 92160, End_track
0, 0, End_of_file
