0, 0, Header, 1, 4, 480
1, 0, Start_track
1, 0, Unknown_meta_event, 8, 46, 84, 104, 101, 32, 65, 114, 116, 32, 111, 102, 32, 70, 117, 103, 117, 101, 32, 67, 111, 110, 116, 114, 97, 112, 117, 110, 99, 116, 117, 115, 32, 73, 32, 40, 65, 32, 61, 32, 52, 49, 53, 32, 72, 122, 41, 0
1, 0, Unknown_meta_event, 9, 9, 66, 87, 86, 32, 49, 48, 56, 48, 0
1, 0, Unknown_meta_event, 10, 11, 74, 46, 32, 83, 46, 32, 66, 97, 99, 104, 0
1, 0, Time_signature, 2, 1, 24, 8
1, 0, Key_signature, 4, "major"
1, 0, Tempo, 454545
1, 0, Program_c, 0, 46
1, 2, Control_c, 0, 7, 100
1, 4, Control_c, 0, 10, 64
1, 6, Control_c, 0, 91, 30
1, 8, Control_c, 0, 93, 30
1, 7680, Note_on_c, 0, 68, 127
1, 8636, Note_on_c, 0, 68, 0
1, 8640, Note_on_c, 0, 73, 127
1, 9596, Note_on_c, 0, 73, 0
1, 9600, Note_on_c, 0, 71, 127
1, 10556, Note_on_c, 0, 71, 0
1, 10560, Note_on_c, 0, 68, 127
1, 11516, Note_on_c, 0, 68, 0
1, 11520, Note_on_c, 0, 67, 127
1, 12476, Note_on_c, 0, 67, 0
1, 12480, Note_on_c, 0, 68, 127
1, 12956, Note_on_c, 0, 68, 0
1, 12960, Note_on_c, 0, 70, 127
1, 13436, Note_on_c, 0, 70, 0
1, 13440, Note_on_c, 0, 71, 127
1, 14639, Note_on_c, 0, 71, 0
1, 14640, Note_on_c, 0, 73, 127
1, 14876, Note_on_c, 0, 73, 0
1, 14880, Note_on_c, 0, 71, 127
1, 15116, Note_on_c, 0, 71, 0
1, 15120, Note_on_c, 0, 69, 127
1, 15356, Note_on_c, 0, 69, 0
1, 15360, Note_on_c, 0, 68, 127
1, 15596, Note_on_c, 0, 68, 0
1, 15600, Note_on_c, 0, 61, 127
1, 15836, Note_on_c, 0, 61, 0
1, 15840, Note_on_c, 0, 73, 127
1, 16796, Note_on_c, 0, 73, 0
1, 16800, Note_on_c, 0, 72, 127
1, 17276, Note_on_c, 0, 72, 0
1, 17280, Note_on_c, 0, 73, 127
1, 17516, Note_on_c, 0, 73, 0
1, 17520, Note_on_c, 0, 68, 127
1, 17756, Note_on_c, 0, 68, 0
1, 17760, Note_on_c, 0, 71, 80
1, 18479, Note_on_c, 0, 71, 0
1, 18480, Note_on_c, 0, 68, 127
1, 18716, Note_on_c, 0, 68, 0
1, 18720, Note_on_c, 0, 69, 127
1, 19439, Note_on_c, 0, 69, 0
1, 19440, Note_on_c, 0, 63, 127
1, 19676, Note_on_c, 0, 63, 0
1, 19680, Note_on_c, 0, 68, 80
1, 21359, Note_on_c, 0, 68, 0
1, 21360, Note_on_c, 0, 71, 127
1, 21836, Note_on_c, 0, 71, 0
1, 21840, Note_on_c, 0, 70, 127
1, 22076, Note_on_c, 0, 70, 0
1, 22080, Note_on_c, 0, 71, 127
1, 23279, Note_on_c, 0, 71, 0
1, 23280, Note_on_c, 0, 61, 127
1, 23516, Note_on_c, 0, 61, 0
1, 23520, Note_on_c, 0, 71, 80
1, 24239, Note_on_c, 0, 71, 0
1, 24240, Note_on_c, 0, 68, 127
1, 24476, Note_on_c, 0, 68, 0
1, 24480, Note_on_c, 0, 70, 127
1, 25439, Note_on_c, 0, 70, 0
1, 25440, Note_on_c, 0, 68, 127
1, 25676, Note_on_c, 0, 68, 0
1, 25680, Note_on_c, 0, 67, 127
1, 25916, Note_on_c, 0, 67, 0
1, 25920, Note_on_c, 0, 68, 127
1, 26876, Note_on_c, 0, 68, 0
1, 26880, Note_on_c, 0, 70, 127
1, 27836, Note_on_c, 0, 70, 0
1, 27840, Note_on_c, 0, 71, 127
1, 28316, Note_on_c, 0, 71, 0
1, 28320, Note_on_c, 0, 73, 127
1, 28796, Note_on_c, 0, 73, 0
1, 28800, Note_on_c, 0, 66, 127
1, 29036, Note_on_c, 0, 66, 0
1, 29040, Note_on_c, 0, 69, 127
1, 29276, Note_on_c, 0, 69, 0
1, 29280, Note_on_c, 0, 68, 80
1, 29999, Note_on_c, 0, 68, 0
1, 30000, Note_on_c, 0, 69, 127
1, 30236, Note_on_c, 0, 69, 0
1, 30240, Note_on_c, 0, 68, 127
1, 30476, Note_on_c, 0, 68, 0
1, 30480, Note_on_c, 0, 66, 127
1, 30959, Note_on_c, 0, 66, 0
1, 30960, Note_on_c, 0, 63, 127
1, 31196, Note_on_c, 0, 63, 0
1, 31200, Note_on_c, 0, 64, 127
1, 31436, Note_on_c, 0, 64, 0
1, 31440, Note_on_c, 0, 61, 127
1, 31676, Note_on_c, 0, 61, 0
1, 31680, Note_on_c, 0, 69, 127
1, 32879, Note_on_c, 0, 69, 0
1, 32880, Note_on_c, 0, 66, 127
1, 33116, Note_on_c, 0, 66, 0
1, 33120, Note_on_c, 0, 68, 127
1, 33596, Note_on_c, 0, 68, 0
1, 33600, Note_on_c, 0, 73, 127
1, 34799, Note_on_c, 0, 73, 0
1, 34800, Note_on_c, 0, 70, 127
1, 35036, Note_on_c, 0, 70, 0
1, 35040, Note_on_c, 0, 71, 127
1, 35516, Note_on_c, 0, 71, 0
1, 35520, Note_on_c, 0, 76, 127
1, 36719, Note_on_c, 0, 76, 0
1, 36720, Note_on_c, 0, 73, 127
1, 36956, Note_on_c, 0, 73, 0
1, 36960, Note_on_c, 0, 75, 127
1, 37436, Note_on_c, 0, 75, 0
1, 37440, Note_on_c, 0, 68, 127
1, 37916, Note_on_c, 0, 68, 0
1, 37920, Note_on_c, 0, 73, 127
1, 38639, Note_on_c, 0, 73, 0
1, 38640, Note_on_c, 0, 70, 127
1, 38876, Note_on_c, 0, 70, 0
1, 38880, Note_on_c, 0, 71, 127
1, 39356, Note_on_c, 0, 71, 0
1, 39360, Note_on_c, 0, 64, 127
1, 39836, Note_on_c, 0, 64, 0
1, 39840, Note_on_c, 0, 69, 127
1, 40316, Note_on_c, 0, 69, 0
1, 40320, Note_on_c, 0, 68, 127
1, 41276, Note_on_c, 0, 68, 0
1, 41280, Note_on_c, 0, 61, 127
1, 41756, Note_on_c, 0, 61, 0
1, 41760, Note_on_c, 0, 66, 127
1, 42479, Note_on_c, 0, 66, 0
1, 42480, Note_on_c, 0, 63, 127
1, 42716, Note_on_c, 0, 63, 0
1, 42720, Note_on_c, 0, 64, 127
1, 42956, Note_on_c, 0, 64, 0
1, 42960, Note_on_c, 0, 73, 127
1, 43196, Note_on_c, 0, 73, 0
1, 43200, Note_on_c, 0, 63, 127
1, 44399, Note_on_c, 0, 63, 0
1, 44400, Note_on_c, 0, 61, 127
1, 44636, Note_on_c, 0, 61, 0
1, 44640, Note_on_c, 0, 68, 127
1, 45596, Note_on_c, 0, 68, 0
1, 45600, Note_on_c, 0, 66, 127
1, 46076, Note_on_c, 0, 66, 0
1, 46080, Note_on_c, 0, 68, 127
1, 47036, Note_on_c, 0, 68, 0
1, 53760, Note_on_c, 0, 68, 127
1, 54716, Note_on_c, 0, 68, 0
1, 54720, Note_on_c, 0, 75, 127
1, 55676, Note_on_c, 0, 75, 0
1, 55680, Note_on_c, 0, 71, 127
1, 56636, Note_on_c, 0, 71, 0
1, 56640, Note_on_c, 0, 68, 127
1, 57596, Note_on_c, 0, 68, 0
1, 57600, Note_on_c, 0, 67, 127
1, 58556, Note_on_c, 0, 67, 0
1, 58560, Note_on_c, 0, 68, 127
1, 59036, Note_on_c, 0, 68, 0
1, 59040, Note_on_c, 0, 70, 127
1, 59516, Note_on_c, 0, 70, 0
1, 59520, Note_on_c, 0, 71, 127
1, 60719, Note_on_c, 0, 71, 0
1, 60720, Note_on_c, 0, 73, 127
1, 60956, Note_on_c, 0, 73, 0
1, 60960, Note_on_c, 0, 71, 127
1, 61196, Note_on_c, 0, 71, 0
1, 61200, Note_on_c, 0, 69, 127
1, 61436, Note_on_c, 0, 69, 0
1, 61440, Note_on_c, 0, 68, 127
1, 61916, Note_on_c, 0, 68, 0
1, 62880, Note_on_c, 0, 68, 127
1, 63599, Note_on_c, 0, 68, 0
1, 63600, Note_on_c, 0, 71, 127
1, 63836, Note_on_c, 0, 71, 0
1, 63840, Note_on_c, 0, 69, 127
1, 64076, Note_on_c, 0, 69, 0
1, 64080, Note_on_c, 0, 68, 127
1, 64316, Note_on_c, 0, 68, 0
1, 64320, Note_on_c, 0, 69, 127
1, 64556, Note_on_c, 0, 69, 0
1, 64560, Note_on_c, 0, 68, 127
1, 64796, Note_on_c, 0, 68, 0
1, 64800, Note_on_c, 0, 66, 127
1, 65036, Note_on_c, 0, 66, 0
1, 65040, Note_on_c, 0, 65, 127
1, 65276, Note_on_c, 0, 65, 0
1, 65280, Note_on_c, 0, 66, 80
1, 65999, Note_on_c, 0, 66, 0
1, 66000, Note_on_c, 0, 69, 127
1, 66236, Note_on_c, 0, 69, 0
1, 66240, Note_on_c, 0, 63, 80
1, 66959, Note_on_c, 0, 63, 0
1, 66960, Note_on_c, 0, 65, 127
1, 67196, Note_on_c, 0, 65, 0
1, 67200, Note_on_c, 0, 66, 80
1, 67919, Note_on_c, 0, 66, 0
1, 67920, Note_on_c, 0, 63, 127
1, 68156, Note_on_c, 0, 63, 0
1, 68160, Note_on_c, 0, 60, 80
1, 68879, Note_on_c, 0, 60, 0
1, 68880, Note_on_c, 0, 68, 127
1, 69116, Note_on_c, 0, 68, 0
1, 69120, Note_on_c, 0, 61, 80
1, 69839, Note_on_c, 0, 61, 0
1, 69840, Note_on_c, 0, 64, 127
1, 70076, Note_on_c, 0, 64, 0
1, 70080, Note_on_c, 0, 63, 80
1, 70799, Note_on_c, 0, 63, 0
1, 70800, Note_on_c, 0, 71, 127
1, 71036, Note_on_c, 0, 71, 0
1, 71040, Note_on_c, 0, 64, 80
1, 71759, Note_on_c, 0, 64, 0
1, 71760, Note_on_c, 0, 68, 127
1, 71996, Note_on_c, 0, 68, 0
1, 72000, Note_on_c, 0, 66, 80
1, 72719, Note_on_c, 0, 66, 0
1, 72720, Note_on_c, 0, 75, 127
1, 72956, Note_on_c, 0, 75, 0
1, 72960, Note_on_c, 0, 68, 80
1, 73679, Note_on_c, 0, 68, 0
1, 73680, Note_on_c, 0, 71, 127
1, 73916, Note_on_c, 0, 71, 0
1, 73920, Note_on_c, 0, 70, 80
1, 74639, Note_on_c, 0, 70, 0
1, 74640, Note_on_c, 0, 78, 127
1, 74876, Note_on_c, 0, 78, 0
1, 74880, Note_on_c, 0, 72, 127
1, 75836, Note_on_c, 0, 72, 0
1, 75840, Note_on_c, 0, 73, 127
1, 76316, Note_on_c, 0, 73, 0
1, 76320, Note_on_c, 0, 75, 127
1, 77039, Note_on_c, 0, 75, 0
1, 77040, Note_on_c, 0, 72, 127
1, 77276, Note_on_c, 0, 72, 0
1, 77280, Note_on_c, 0, 73, 127
1, 78479, Note_on_c, 0, 73, 0
1, 78480, Note_on_c, 0, 75, 127
1, 78716, Note_on_c, 0, 75, 0
1, 78720, Note_on_c, 0, 76, 127
1, 78956, Note_on_c, 0, 76, 0
1, 78960, Note_on_c, 0, 75, 127
1, 79196, Note_on_c, 0, 75, 0
1, 79200, Note_on_c, 0, 78, 80
1, 79919, Note_on_c, 0, 78, 0
1, 79920, Note_on_c, 0, 76, 127
1, 80156, Note_on_c, 0, 76, 0
1, 80160, Note_on_c, 0, 75, 127
1, 80396, Note_on_c, 0, 75, 0
1, 80400, Note_on_c, 0, 73, 127
1, 80636, Note_on_c, 0, 73, 0
1, 80640, Note_on_c, 0, 72, 127
1, 80876, Note_on_c, 0, 72, 0
1, 80880, Note_on_c, 0, 68, 127
1, 81116, Note_on_c, 0, 68, 0
1, 81120, Note_on_c, 0, 73, 80
1, 81839, Note_on_c, 0, 73, 0
1, 81840, Note_on_c, 0, 70, 127
1, 82076, Note_on_c, 0, 70, 0
1, 82080, Note_on_c, 0, 71, 127
1, 83039, Note_on_c, 0, 71, 0
1, 83040, Note_on_c, 0, 69, 127
1, 83516, Note_on_c, 0, 69, 0
1, 83520, Note_on_c, 0, 68, 127
1, 83996, Note_on_c, 0, 68, 0
1, 92160, Note_on_c, 0, 75, 127
1, 93116, Note_on_c, 0, 75, 0
1, 93120, Note_on_c, 0, 80, 127
1, 94076, Note_on_c, 0, 80, 0
1, 94080, Note_on_c, 0, 76, 127
1, 95036, Note_on_c, 0, 76, 0
1, 95040, Note_on_c, 0, 73, 127
1, 95996, Note_on_c, 0, 73, 0
1, 96000, Note_on_c, 0, 72, 127
1, 96956, Note_on_c, 0, 72, 0
1, 96960, Note_on_c, 0, 73, 127
1, 97436, Note_on_c, 0, 73, 0
1, 97440, Note_on_c, 0, 75, 127
1, 97916, Note_on_c, 0, 75, 0
1, 97920, Note_on_c, 0, 76, 127
1, 99119, Note_on_c, 0, 76, 0
1, 99120, Note_on_c, 0, 78, 127
1, 99356, Note_on_c, 0, 78, 0
1, 99360, Note_on_c, 0, 76, 127
1, 99596, Note_on_c, 0, 76, 0
1, 99600, Note_on_c, 0, 75, 127
1, 99836, Note_on_c, 0, 75, 0
1, 99840, Note_on_c, 0, 73, 80
1, 100559, Note_on_c, 0, 73, 0
1, 100560, Note_on_c, 0, 75, 127
1, 100796, Note_on_c, 0, 75, 0
1, 100800, Note_on_c, 0, 72, 127
1, 101276, Note_on_c, 0, 72, 0
1, 101280, Note_on_c, 0, 73, 127
1, 101516, Note_on_c, 0, 73, 0
1, 101520, Note_on_c, 0, 76, 127
1, 101756, Note_on_c, 0, 76, 0
1, 101760, Note_on_c, 0, 69, 127
1, 102959, Note_on_c, 0, 69, 0
1, 102960, Note_on_c, 0, 69, 127
1, 103196, Note_on_c, 0, 69, 0
1, 103200, Note_on_c, 0, 68, 127
1, 103436, Note_on_c, 0, 68, 0
1, 103440, Note_on_c, 0, 66, 127
1, 103676, Note_on_c, 0, 66, 0
1, 103680, Note_on_c, 0, 64, 127
1, 104636, Note_on_c, 0, 64, 0
1, 104640, Note_on_c, 0, 69, 127
1, 105596, Note_on_c, 0, 69, 0
1, 105600, Note_on_c, 0, 68, 80
1, 107039, Note_on_c, 0, 68, 0
1, 107040, Note_on_c, 0, 75, 127
1, 107759, Note_on_c, 0, 75, 0
1, 107760, Note_on_c, 0, 72, 127
1, 107996, Note_on_c, 0, 72, 0
1, 108000, Note_on_c, 0, 73, 127
1, 108236, Note_on_c, 0, 73, 0
1, 108240, Note_on_c, 0, 75, 127
1, 108476, Note_on_c, 0, 75, 0
1, 108480, Note_on_c, 0, 76, 127
1, 108716, Note_on_c, 0, 76, 0
1, 108720, Note_on_c, 0, 73, 127
1, 108956, Note_on_c, 0, 73, 0
1, 108960, Note_on_c, 0, 78, 127
1, 109679, Note_on_c, 0, 78, 0
1, 109680, Note_on_c, 0, 75, 127
1, 109916, Note_on_c, 0, 75, 0
1, 109920, Note_on_c, 0, 80, 127
1, 110156, Note_on_c, 0, 80, 0
1, 110160, Note_on_c, 0, 78, 127
1, 110396, Note_on_c, 0, 78, 0
1, 110400, Note_on_c, 0, 76, 127
1, 110636, Note_on_c, 0, 76, 0
1, 110640, Note_on_c, 0, 75, 127
1, 110876, Note_on_c, 0, 75, 0
1, 110880, Note_on_c, 0, 73, 127
1, 111116, Note_on_c, 0, 73, 0
1, 111120, Note_on_c, 0, 72, 127
1, 111356, Note_on_c, 0, 72, 0
1, 111360, Note_on_c, 0, 73, 127
1, 111596, Note_on_c, 0, 73, 0
1, 111600, Note_on_c, 0, 71, 127
1, 111836, Note_on_c, 0, 71, 0
1, 111840, Note_on_c, 0, 69, 127
1, 112076, Note_on_c, 0, 69, 0
1, 112080, Note_on_c, 0, 68, 127
1, 112316, Note_on_c, 0, 68, 0
1, 112320, Note_on_c, 0, 66, 127
1, 113519, Note_on_c, 0, 66, 0
1, 113520, Note_on_c, 0, 63, 127
1, 113756, Note_on_c, 0, 63, 0
1, 113760, Note_on_c, 0, 64, 127
1, 113996, Note_on_c, 0, 64, 0
1, 114000, Note_on_c, 0, 61, 127
1, 114236, Note_on_c, 0, 61, 0
1, 114240, Note_on_c, 0, 68, 127
1, 115439, Note_on_c, 0, 68, 0
1, 115440, Note_on_c, 0, 65, 127
1, 115676, Note_on_c, 0, 65, 0
1, 115680, Note_on_c, 0, 66, 127
1, 115916, Note_on_c, 0, 66, 0
1, 115920, Note_on_c, 0, 69, 127
1, 116156, Note_on_c, 0, 69, 0
1, 116160, Note_on_c, 0, 71, 127
1, 117359, Note_on_c, 0, 71, 0
1, 117360, Note_on_c, 0, 68, 127
1, 117596, Note_on_c, 0, 68, 0
1, 117600, Note_on_c, 0, 69, 127
1, 117836, Note_on_c, 0, 69, 0
1, 117840, Note_on_c, 0, 73, 127
1, 118076, Note_on_c, 0, 73, 0
1, 118080, Note_on_c, 0, 74, 127
1, 118556, Note_on_c, 0, 74, 0
1, 118560, Note_on_c, 0, 73, 127
1, 119036, Note_on_c, 0, 73, 0
1, 119040, Note_on_c, 0, 72, 127
1, 119516, Note_on_c, 0, 72, 0
1, 119520, Note_on_c, 0, 80, 80
1, 120239, Note_on_c, 0, 80, 0
1, 120240, Note_on_c, 0, 73, 127
1, 120476, Note_on_c, 0, 73, 0
1, 120480, Note_on_c, 0, 78, 127
1, 121199, Note_on_c, 0, 78, 0
1, 121200, Note_on_c, 0, 72, 127
1, 121436, Note_on_c, 0, 72, 0
1, 121440, Note_on_c, 0, 76, 80
1, 122159, Note_on_c, 0, 76, 0
1, 122160, Note_on_c, 0, 73, 127
1, 122396, Note_on_c, 0, 73, 0
1, 122400, Note_on_c, 0, 75, 127
1, 123119, Note_on_c, 0, 75, 0
1, 123120, Note_on_c, 0, 72, 127
1, 123356, Note_on_c, 0, 72, 0
1, 123360, Note_on_c, 0, 73, 80
1, 124079, Note_on_c, 0, 73, 0
1, 124080, Note_on_c, 0, 70, 127
1, 124316, Note_on_c, 0, 70, 0
1, 124320, Note_on_c, 0, 71, 127
1, 125279, Note_on_c, 0, 71, 0
1, 125280, Note_on_c, 0, 69, 127
1, 125756, Note_on_c, 0, 69, 0
1, 125760, Note_on_c, 0, 68, 80
1, 126479, Note_on_c, 0, 68, 0
1, 126480, Note_on_c, 0, 68, 127
1, 126716, Note_on_c, 0, 68, 0
1, 126720, Note_on_c, 0, 73, 127
1, 126956, Note_on_c, 0, 73, 0
1, 126960, Note_on_c, 0, 76, 127
1, 127196, Note_on_c, 0, 76, 0
1, 127200, Note_on_c, 0, 75, 127
1, 127436, Note_on_c, 0, 75, 0
1, 127440, Note_on_c, 0, 78, 127
1, 127676, Note_on_c, 0, 78, 0
1, 127680, Note_on_c, 0, 76, 127
1, 127916, Note_on_c, 0, 76, 0
1, 127920, Note_on_c, 0, 75, 127
1, 128156, Note_on_c, 0, 75, 0
1, 128160, Note_on_c, 0, 73, 127
1, 128879, Note_on_c, 0, 73, 0
1, 128880, Note_on_c, 0, 76, 127
1, 129356, Note_on_c, 0, 76, 0
1, 129360, Note_on_c, 0, 75, 127
1, 129596, Note_on_c, 0, 75, 0
1, 129600, Note_on_c, 0, 76, 127
1, 129836, Note_on_c, 0, 76, 0
1, 129840, Note_on_c, 0, 73, 127
1, 130076, Note_on_c, 0, 73, 0
1, 130080, Note_on_c, 0, 75, 127
1, 130799, Note_on_c, 0, 75, 0
1, 130800, Note_on_c, 0, 73, 127
1, 131036, Note_on_c, 0, 73, 0
1, 131040, Note_on_c, 0, 71, 127
1, 131276, Note_on_c, 0, 71, 0
1, 131280, Note_on_c, 0, 70, 127
1, 131516, Note_on_c, 0, 70, 0
1, 131520, Note_on_c, 0, 71, 80
1, 132239, Note_on_c, 0, 71, 0
1, 132240, Note_on_c, 0, 80, 127
1, 132476, Note_on_c, 0, 80, 0
1, 132480, Note_on_c, 0, 78, 127
1, 132716, Note_on_c, 0, 78, 0
1, 132720, Note_on_c, 0, 77, 127
1, 132956, Note_on_c, 0, 77, 0
1, 132960, Note_on_c, 0, 78, 127
1, 133196, Note_on_c, 0, 78, 0
1, 133200, Note_on_c, 0, 81, 127
1, 133436, Note_on_c, 0, 81, 0
1, 133440, Note_on_c, 0, 72, 127
1, 133916, Note_on_c, 0, 72, 0
1, 135360, Note_on_c, 0, 73, 127
1, 135836, Note_on_c, 0, 73, 0
1, 137280, Note_on_c, 0, 73, 127
1, 139439, Note_on_c, 0, 73, 0
1, 139440, Note_on_c, 0, 70, 127
1, 139676, Note_on_c, 0, 70, 0
1, 139680, Note_on_c, 0, 72, 127
1, 140156, Note_on_c, 0, 72, 0
1, 140160, Note_on_c, 0, 73, 80
1, 140879, Note_on_c, 0, 73, 0
1, 140880, Note_on_c, 0, 71, 127
1, 141116, Note_on_c, 0, 71, 0
1, 141120, Note_on_c, 0, 69, 80
1, 141839, Note_on_c, 0, 69, 0
1, 141840, Note_on_c, 0, 68, 127
1, 142076, Note_on_c, 0, 68, 0
1, 142080, Note_on_c, 0, 61, 127
1, 143036, Note_on_c, 0, 61, 0
1, 143280, Note_on_c, 0, 66, 127
1, 143516, Note_on_c, 0, 66, 0
1, 143520, Note_on_c, 0, 68, 127
1, 143756, Note_on_c, 0, 68, 0
1, 143760, Note_on_c, 0, 71, 127
1, 144239, Note_on_c, 0, 71, 0
1, 144240, Note_on_c, 0, 69, 127
1, 144476, Note_on_c, 0, 69, 0
1, 144480, Note_on_c, 0, 71, 127
1, 144716, Note_on_c, 0, 71, 0
1, 144720, Note_on_c, 0, 74, 127
1, 145196, Note_on_c, 0, 74, 0
1, 145200, Note_on_c, 0, 73, 127
1, 145436, Note_on_c, 0, 73, 0
1, 145440, Note_on_c, 0, 77, 127
1, 145676, Note_on_c, 0, 77, 0
1, 145680, Note_on_c, 0, 80, 127
1, 146159, Note_on_c, 0, 80, 0
1, 146160, Note_on_c, 0, 78, 127
1, 146276, Note_on_c, 0, 78, 0
1, 146280, Note_on_c, 0, 80, 127
1, 146396, Note_on_c, 0, 80, 0
1, 146400, Note_on_c, 0, 81, 127
1, 146636, Note_on_c, 0, 81, 0
1, 146640, Note_on_c, 0, 72, 127
1, 146876, Note_on_c, 0, 72, 0
1, 146880, Note_on_c, 0, 73, 127
1, 149759, Note_on_c, 0, 73, 0
1, 149760, End_track
2, 0, Start_track
2, 0, Key_signature, 4, "major"
2, 0, Note_on_c, 0, 61, 127
2, 956, Note_on_c, 0, 61, 0
2, 960, Note_on_c, 0, 68, 127
2, 1916, Note_on_c, 0, 68, 0
2, 1920, Note_on_c, 0, 64, 127
2, 2876, Note_on_c, 0, 64, 0
2, 2880, Note_on_c, 0, 61, 127
2, 3836, Note_on_c, 0, 61, 0
2, 3840, Note_on_c, 0, 60, 127
2, 4796, Note_on_c, 0, 60, 0
2, 4800, Note_on_c, 0, 61, 127
2, 5276, Note_on_c, 0, 61, 0
2, 5280, Note_on_c, 0, 63, 127
2, 5756, Note_on_c, 0, 63, 0
2, 5760, Note_on_c, 0, 64, 127
2, 6959, Note_on_c, 0, 64, 0
2, 6960, Note_on_c, 0, 66, 127
2, 7196, Note_on_c, 0, 66, 0
2, 7200, Note_on_c, 0, 64, 127
2, 7436, Note_on_c, 0, 64, 0
2, 7440, Note_on_c, 0, 63, 127
2, 7676, Note_on_c, 0, 63, 0
2, 7680, Note_on_c, 0, 61, 127
2, 8156, Note_on_c, 0, 61, 0
2, 8160, Note_on_c, 0, 63, 127
2, 8636, Note_on_c, 0, 63, 0
2, 8640, Note_on_c, 0, 64, 127
2, 9116, Note_on_c, 0, 64, 0
2, 9120, Note_on_c, 0, 66, 127
2, 9596, Note_on_c, 0, 66, 0
2, 9600, Note_on_c, 0, 68, 127
2, 10076, Note_on_c, 0, 68, 0
2, 10080, Note_on_c, 0, 56, 127
2, 10316, Note_on_c, 0, 56, 0
2, 10320, Note_on_c, 0, 58, 127
2, 10556, Note_on_c, 0, 58, 0
2, 10560, Note_on_c, 0, 59, 127
2, 10796, Note_on_c, 0, 59, 0
2, 10800, Note_on_c, 0, 56, 127
2, 11036, Note_on_c, 0, 56, 0
2, 11040, Note_on_c, 0, 64, 127
2, 11759, Note_on_c, 0, 64, 0
2, 11760, Note_on_c, 0, 58, 127
2, 11996, Note_on_c, 0, 58, 0
2, 12000, Note_on_c, 0, 63, 127
2, 12719, Note_on_c, 0, 63, 0
2, 12720, Note_on_c, 0, 64, 127
2, 12956, Note_on_c, 0, 64, 0
2, 12960, Note_on_c, 0, 63, 127
2, 13196, Note_on_c, 0, 63, 0
2, 13200, Note_on_c, 0, 61, 127
2, 13436, Note_on_c, 0, 61, 0
2, 13440, Note_on_c, 0, 63, 127
2, 13916, Note_on_c, 0, 63, 0
2, 13920, Note_on_c, 0, 65, 127
2, 14396, Note_on_c, 0, 65, 0
2, 14400, Note_on_c, 0, 66, 127
2, 15839, Note_on_c, 0, 66, 0
2, 15840, Note_on_c, 0, 64, 127
2, 16316, Note_on_c, 0, 64, 0
2, 16320, Note_on_c, 0, 63, 127
2, 17276, Note_on_c, 0, 63, 0
2, 17280, Note_on_c, 0, 61, 80
2, 17999, Note_on_c, 0, 61, 0
2, 18000, Note_on_c, 0, 63, 127
2, 18236, Note_on_c, 0, 63, 0
2, 18240, Note_on_c, 0, 64, 80
2, 18959, Note_on_c, 0, 64, 0
2, 18960, Note_on_c, 0, 61, 127
2, 19196, Note_on_c, 0, 61, 0
2, 19200, Note_on_c, 0, 66, 80
2, 19919, Note_on_c, 0, 66, 0
2, 19920, Note_on_c, 0, 66, 127
2, 20156, Note_on_c, 0, 66, 0
2, 20160, Note_on_c, 0, 64, 127
2, 20396, Note_on_c, 0, 64, 0
2, 20400, Note_on_c, 0, 63, 127
2, 20636, Note_on_c, 0, 63, 0
2, 20640, Note_on_c, 0, 61, 127
2, 20876, Note_on_c, 0, 61, 0
2, 20880, Note_on_c, 0, 60, 127
2, 21116, Note_on_c, 0, 60, 0
2, 21120, Note_on_c, 0, 61, 127
2, 21596, Note_on_c, 0, 61, 0
2, 21600, Note_on_c, 0, 66, 127
2, 22556, Note_on_c, 0, 66, 0
2, 22560, Note_on_c, 0, 59, 127
2, 23036, Note_on_c, 0, 59, 0
2, 23040, Note_on_c, 0, 64, 80
2, 23759, Note_on_c, 0, 64, 0
2, 23760, Note_on_c, 0, 63, 127
2, 23996, Note_on_c, 0, 63, 0
2, 24000, Note_on_c, 0, 64, 80
2, 24719, Note_on_c, 0, 64, 0
2, 24720, Note_on_c, 0, 55, 127
2, 24956, Note_on_c, 0, 55, 0
2, 24960, Note_on_c, 0, 63, 80
2, 26399, Note_on_c, 0, 63, 0
2, 26400, Note_on_c, 0, 61, 127
2, 26636, Note_on_c, 0, 61, 0
2, 26640, Note_on_c, 0, 59, 127
2, 26876, Note_on_c, 0, 59, 0
2, 26880, Note_on_c, 0, 61, 127
2, 27116, Note_on_c, 0, 61, 0
2, 27120, Note_on_c, 0, 64, 127
2, 27356, Note_on_c, 0, 64, 0
2, 27360, Note_on_c, 0, 63, 127
2, 27596, Note_on_c, 0, 63, 0
2, 27600, Note_on_c, 0, 61, 127
2, 27836, Note_on_c, 0, 61, 0
2, 27840, Note_on_c, 0, 59, 127
2, 28316, Note_on_c, 0, 59, 0
2, 42240, Note_on_c, 0, 61, 127
2, 43196, Note_on_c, 0, 61, 0
2, 43200, Note_on_c, 0, 68, 127
2, 44156, Note_on_c, 0, 68, 0
2, 44160, Note_on_c, 0, 64, 127
2, 45116, Note_on_c, 0, 64, 0
2, 45120, Note_on_c, 0, 61, 127
2, 46076, Note_on_c, 0, 61, 0
2, 46080, Note_on_c, 0, 60, 127
2, 47036, Note_on_c, 0, 60, 0
2, 47040, Note_on_c, 0, 61, 127
2, 47516, Note_on_c, 0, 61, 0
2, 47520, Note_on_c, 0, 63, 127
2, 47996, Note_on_c, 0, 63, 0
2, 48000, Note_on_c, 0, 64, 127
2, 49199, Note_on_c, 0, 64, 0
2, 49200, Note_on_c, 0, 66, 127
2, 49436, Note_on_c, 0, 66, 0
2, 49440, Note_on_c, 0, 64, 127
2, 49676, Note_on_c, 0, 64, 0
2, 49680, Note_on_c, 0, 63, 127
2, 49916, Note_on_c, 0, 63, 0
2, 49920, Note_on_c, 0, 61, 127
2, 50396, Note_on_c, 0, 61, 0
2, 50400, Note_on_c, 0, 66, 80
2, 51119, Note_on_c, 0, 66, 0
2, 51120, Note_on_c, 0, 63, 127
2, 51356, Note_on_c, 0, 63, 0
2, 51360, Note_on_c, 0, 64, 127
2, 51836, Note_on_c, 0, 64, 0
2, 51840, Note_on_c, 0, 63, 127
2, 52316, Note_on_c, 0, 63, 0
2, 52320, Note_on_c, 0, 68, 80
2, 53039, Note_on_c, 0, 68, 0
2, 53040, Note_on_c, 0, 65, 127
2, 53276, Note_on_c, 0, 65, 0
2, 53280, Note_on_c, 0, 66, 127
2, 53756, Note_on_c, 0, 66, 0
2, 53760, Note_on_c, 0, 65, 80
2, 54479, Note_on_c, 0, 65, 0
2, 54480, Note_on_c, 0, 73, 127
2, 54716, Note_on_c, 0, 73, 0
2, 54720, Note_on_c, 0, 67, 127
2, 55676, Note_on_c, 0, 67, 0
2, 55680, Note_on_c, 0, 68, 127
2, 56156, Note_on_c, 0, 68, 0
2, 56400, Note_on_c, 0, 56, 127
2, 56636, Note_on_c, 0, 56, 0
2, 56640, Note_on_c, 0, 59, 127
2, 57116, Note_on_c, 0, 59, 0
2, 57120, Note_on_c, 0, 56, 127
2, 57596, Note_on_c, 0, 56, 0
2, 57600, Note_on_c, 0, 61, 127
2, 58076, Note_on_c, 0, 61, 0
2, 58080, Note_on_c, 0, 64, 127
2, 58556, Note_on_c, 0, 64, 0
2, 58560, Note_on_c, 0, 63, 127
2, 59036, Note_on_c, 0, 63, 0
2, 59040, Note_on_c, 0, 61, 127
2, 59516, Note_on_c, 0, 61, 0
2, 59520, Note_on_c, 0, 59, 127
2, 59996, Note_on_c, 0, 59, 0
2, 60000, Note_on_c, 0, 68, 127
2, 60956, Note_on_c, 0, 68, 0
2, 60960, Note_on_c, 0, 61, 127
2, 61436, Note_on_c, 0, 61, 0
2, 61440, Note_on_c, 0, 63, 127
2, 61916, Note_on_c, 0, 63, 0
2, 61920, Note_on_c, 0, 68, 80
2, 62639, Note_on_c, 0, 68, 0
2, 62640, Note_on_c, 0, 66, 127
2, 62876, Note_on_c, 0, 66, 0
2, 62880, Note_on_c, 0, 64, 127
2, 63116, Note_on_c, 0, 64, 0
2, 63120, Note_on_c, 0, 63, 127
2, 63356, Note_on_c, 0, 63, 0
2, 63360, Note_on_c, 0, 61, 127
2, 65519, Note_on_c, 0, 61, 0
2, 65520, Note_on_c, 0, 61, 127
2, 65756, Note_on_c, 0, 61, 0
2, 65760, Note_on_c, 0, 66, 80
2, 66479, Note_on_c, 0, 66, 0
2, 66480, Note_on_c, 0, 66, 127
2, 66716, Note_on_c, 0, 66, 0
2, 66720, Note_on_c, 0, 59, 127
2, 67439, Note_on_c, 0, 59, 0
2, 67440, Note_on_c, 0, 56, 127
2, 67676, Note_on_c, 0, 56, 0
2, 67680, Note_on_c, 0, 57, 127
2, 68156, Note_on_c, 0, 57, 0
2, 68160, Note_on_c, 0, 56, 127
2, 69359, Note_on_c, 0, 56, 0
2, 69360, Note_on_c, 0, 52, 127
2, 69596, Note_on_c, 0, 52, 0
2, 69600, Note_on_c, 0, 54, 127
2, 70076, Note_on_c, 0, 54, 0
2, 70080, Note_on_c, 0, 59, 127
2, 71279, Note_on_c, 0, 59, 0
2, 71280, Note_on_c, 0, 56, 127
2, 71516, Note_on_c, 0, 56, 0
2, 71520, Note_on_c, 0, 58, 127
2, 71996, Note_on_c, 0, 58, 0
2, 72000, Note_on_c, 0, 63, 127
2, 73199, Note_on_c, 0, 63, 0
2, 73200, Note_on_c, 0, 60, 127
2, 73436, Note_on_c, 0, 60, 0
2, 73440, Note_on_c, 0, 61, 127
2, 73916, Note_on_c, 0, 61, 0
2, 73920, Note_on_c, 0, 66, 127
2, 75119, Note_on_c, 0, 66, 0
2, 75120, Note_on_c, 0, 68, 127
2, 75356, Note_on_c, 0, 68, 0
2, 75360, Note_on_c, 0, 69, 127
2, 75836, Note_on_c, 0, 69, 0
2, 75840, Note_on_c, 0, 68, 127
2, 77999, Note_on_c, 0, 68, 0
2, 78000, Note_on_c, 0, 64, 127
2, 78236, Note_on_c, 0, 64, 0
2, 78240, Note_on_c, 0, 66, 127
2, 78716, Note_on_c, 0, 66, 0
2, 78720, Note_on_c, 0, 68, 80
2, 79439, Note_on_c, 0, 68, 0
2, 79440, Note_on_c, 0, 69, 127
2, 79676, Note_on_c, 0, 69, 0
2, 79680, Note_on_c, 0, 68, 127
2, 80156, Note_on_c, 0, 68, 0
2, 80160, Note_on_c, 0, 66, 127
2, 81119, Note_on_c, 0, 66, 0
2, 81120, Note_on_c, 0, 64, 127
2, 81356, Note_on_c, 0, 64, 0
2, 81360, Note_on_c, 0, 61, 127
2, 81596, Note_on_c, 0, 61, 0
2, 81600, Note_on_c, 0, 68, 80
2, 82319, Note_on_c, 0, 68, 0
2, 82320, Note_on_c, 0, 66, 127
2, 82556, Note_on_c, 0, 66, 0
2, 82560, Note_on_c, 0, 65, 127
2, 82796, Note_on_c, 0, 65, 0
2, 82800, Note_on_c, 0, 61, 127
2, 83036, Note_on_c, 0, 61, 0
2, 83040, Note_on_c, 0, 66, 80
2, 83759, Note_on_c, 0, 66, 0
2, 83760, Note_on_c, 0, 63, 127
2, 83996, Note_on_c, 0, 63, 0
2, 84000, Note_on_c, 0, 64, 127
2, 84719, Note_on_c, 0, 64, 0
2, 84720, Note_on_c, 0, 61, 127
2, 84956, Note_on_c, 0, 61, 0
2, 84960, Note_on_c, 0, 66, 80
2, 85679, Note_on_c, 0, 66, 0
2, 85680, Note_on_c, 0, 63, 127
2, 85916, Note_on_c, 0, 63, 0
2, 85920, Note_on_c, 0, 68, 127
2, 86639, Note_on_c, 0, 68, 0
2, 86640, Note_on_c, 0, 64, 127
2, 86876, Note_on_c, 0, 64, 0
2, 86880, Note_on_c, 0, 69, 80
2, 87599, Note_on_c, 0, 69, 0
2, 87600, Note_on_c, 0, 66, 127
2, 87836, Note_on_c, 0, 66, 0
2, 87840, Note_on_c, 0, 68, 127
2, 88559, Note_on_c, 0, 68, 0
2, 88560, Note_on_c, 0, 64, 127
2, 88796, Note_on_c, 0, 64, 0
2, 88800, Note_on_c, 0, 66, 127
2, 89756, Note_on_c, 0, 66, 0
2, 89760, Note_on_c, 0, 64, 127
2, 89996, Note_on_c, 0, 64, 0
2, 90000, Note_on_c, 0, 61, 127
2, 90236, Note_on_c, 0, 61, 0
2, 90240, Note_on_c, 0, 68, 127
2, 91196, Note_on_c, 0, 68, 0
2, 91200, Note_on_c, 0, 73, 127
2, 92399, Note_on_c, 0, 73, 0
2, 92400, Note_on_c, 0, 72, 127
2, 92636, Note_on_c, 0, 72, 0
2, 92640, Note_on_c, 0, 70, 127
2, 92876, Note_on_c, 0, 70, 0
2, 92880, Note_on_c, 0, 72, 127
2, 93116, Note_on_c, 0, 72, 0
2, 93120, Note_on_c, 0, 73, 127
2, 93356, Note_on_c, 0, 73, 0
2, 93360, Note_on_c, 0, 68, 127
2, 93596, Note_on_c, 0, 68, 0
2, 93600, Note_on_c, 0, 75, 127
2, 94319, Note_on_c, 0, 75, 0
2, 94320, Note_on_c, 0, 68, 127
2, 94556, Note_on_c, 0, 68, 0
2, 94560, Note_on_c, 0, 73, 127
2, 95036, Note_on_c, 0, 73, 0
2, 95280, Note_on_c, 0, 64, 127
2, 95516, Note_on_c, 0, 64, 0
2, 95520, Note_on_c, 0, 69, 127
2, 96239, Note_on_c, 0, 69, 0
2, 96240, Note_on_c, 0, 63, 127
2, 96476, Note_on_c, 0, 63, 0
2, 96480, Note_on_c, 0, 68, 80
2, 97199, Note_on_c, 0, 68, 0
2, 97200, Note_on_c, 0, 66, 127
2, 97436, Note_on_c, 0, 66, 0
2, 97440, Note_on_c, 0, 64, 127
2, 97676, Note_on_c, 0, 64, 0
2, 97680, Note_on_c, 0, 63, 127
2, 97916, Note_on_c, 0, 63, 0
2, 97920, Note_on_c, 0, 61, 127
2, 98156, Note_on_c, 0, 61, 0
2, 98160, Note_on_c, 0, 68, 127
2, 98396, Note_on_c, 0, 68, 0
2, 98400, Note_on_c, 0, 73, 127
2, 98636, Note_on_c, 0, 73, 0
2, 98640, Note_on_c, 0, 70, 127
2, 98876, Note_on_c, 0, 70, 0
2, 98880, Note_on_c, 0, 66, 127
2, 99116, Note_on_c, 0, 66, 0
2, 99120, Note_on_c, 0, 63, 127
2, 99356, Note_on_c, 0, 63, 0
2, 99360, Note_on_c, 0, 71, 127
2, 100319, Note_on_c, 0, 71, 0
2, 100320, Note_on_c, 0, 69, 127
2, 100796, Note_on_c, 0, 69, 0
2, 100800, Note_on_c, 0, 68, 127
2, 101756, Note_on_c, 0, 68, 0
2, 101760, Note_on_c, 0, 66, 80
2, 102479, Note_on_c, 0, 66, 0
2, 102480, Note_on_c, 0, 64, 127
2, 102716, Note_on_c, 0, 64, 0
2, 102720, Note_on_c, 0, 63, 127
2, 104159, Note_on_c, 0, 63, 0
2, 104160, Note_on_c, 0, 61, 127
2, 104396, Note_on_c, 0, 61, 0
2, 104400, Note_on_c, 0, 60, 127
2, 104636, Note_on_c, 0, 60, 0
2, 104640, Note_on_c, 0, 61, 127
2, 105116, Note_on_c, 0, 61, 0
2, 105120, Note_on_c, 0, 66, 127
2, 106319, Note_on_c, 0, 66, 0
2, 106320, Note_on_c, 0, 64, 127
2, 106556, Note_on_c, 0, 64, 0
2, 106560, Note_on_c, 0, 63, 80
2, 107279, Note_on_c, 0, 63, 0
2, 107280, Note_on_c, 0, 63, 127
2, 107516, Note_on_c, 0, 63, 0
2, 107520, Note_on_c, 0, 68, 80
2, 108959, Note_on_c, 0, 68, 0
2, 108960, Note_on_c, 0, 66, 127
2, 109196, Note_on_c, 0, 66, 0
2, 109200, Note_on_c, 0, 69, 127
2, 109436, Note_on_c, 0, 69, 0
2, 109440, Note_on_c, 0, 68, 127
2, 110639, Note_on_c, 0, 68, 0
2, 110640, Note_on_c, 0, 66, 127
2, 110876, Note_on_c, 0, 66, 0
2, 110880, Note_on_c, 0, 64, 127
2, 111116, Note_on_c, 0, 64, 0
2, 111120, Note_on_c, 0, 63, 127
2, 111356, Note_on_c, 0, 63, 0
2, 111360, Note_on_c, 0, 61, 80
2, 112799, Note_on_c, 0, 61, 0
2, 112800, Note_on_c, 0, 63, 127
2, 113276, Note_on_c, 0, 63, 0
2, 113280, Note_on_c, 0, 56, 127
2, 113756, Note_on_c, 0, 56, 0
2, 114720, Note_on_c, 0, 62, 127
2, 115196, Note_on_c, 0, 62, 0
2, 115200, Note_on_c, 0, 61, 127
2, 116156, Note_on_c, 0, 61, 0
2, 116640, Note_on_c, 0, 65, 127
2, 117116, Note_on_c, 0, 65, 0
2, 117120, Note_on_c, 0, 66, 127
2, 117356, Note_on_c, 0, 66, 0
2, 117360, Note_on_c, 0, 65, 127
2, 117596, Note_on_c, 0, 65, 0
2, 117600, Note_on_c, 0, 66, 127
2, 118076, Note_on_c, 0, 66, 0
2, 118560, Note_on_c, 0, 69, 127
2, 119279, Note_on_c, 0, 69, 0
2, 119280, Note_on_c, 0, 68, 127
2, 119516, Note_on_c, 0, 68, 0
2, 119520, Note_on_c, 0, 76, 127
2, 119756, Note_on_c, 0, 76, 0
2, 119760, Note_on_c, 0, 73, 127
2, 119996, Note_on_c, 0, 73, 0
2, 120000, Note_on_c, 0, 70, 127
2, 120476, Note_on_c, 0, 70, 0
2, 120480, Note_on_c, 0, 75, 127
2, 120716, Note_on_c, 0, 75, 0
2, 120720, Note_on_c, 0, 72, 127
2, 120956, Note_on_c, 0, 72, 0
2, 120960, Note_on_c, 0, 68, 127
2, 121436, Note_on_c, 0, 68, 0
2, 121440, Note_on_c, 0, 73, 127
2, 121676, Note_on_c, 0, 73, 0
2, 121680, Note_on_c, 0, 68, 127
2, 121916, Note_on_c, 0, 68, 0
2, 121920, Note_on_c, 0, 69, 80
2, 122639, Note_on_c, 0, 69, 0
2, 122640, Note_on_c, 0, 66, 127
2, 122876, Note_on_c, 0, 66, 0
2, 122880, Note_on_c, 0, 68, 80
2, 123599, Note_on_c, 0, 68, 0
2, 123600, Note_on_c, 0, 64, 127
2, 123836, Note_on_c, 0, 64, 0
2, 123840, Note_on_c, 0, 63, 80
2, 124559, Note_on_c, 0, 63, 0
2, 124560, Note_on_c, 0, 66, 127
2, 124796, Note_on_c, 0, 66, 0
2, 124800, Note_on_c, 0, 65, 127
2, 125036, Note_on_c, 0, 65, 0
2, 125040, Note_on_c, 0, 61, 127
2, 125276, Note_on_c, 0, 61, 0
2, 125280, Note_on_c, 0, 66, 80
2, 125999, Note_on_c, 0, 66, 0
2, 126000, Note_on_c, 0, 63, 127
2, 126236, Note_on_c, 0, 63, 0
2, 126240, Note_on_c, 0, 64, 127
2, 126959, Note_on_c, 0, 64, 0
2, 126960, Note_on_c, 0, 73, 127
2, 127196, Note_on_c, 0, 73, 0
2, 127200, Note_on_c, 0, 71, 127
2, 128399, Note_on_c, 0, 71, 0
2, 128400, Note_on_c, 0, 71, 127
2, 128636, Note_on_c, 0, 71, 0
2, 128640, Note_on_c, 0, 69, 127
2, 128876, Note_on_c, 0, 69, 0
2, 128880, Note_on_c, 0, 68, 127
2, 129116, Note_on_c, 0, 68, 0
2, 129120, Note_on_c, 0, 67, 127
2, 129596, Note_on_c, 0, 67, 0
2, 129600, Note_on_c, 0, 68, 80
2, 130319, Note_on_c, 0, 68, 0
2, 130320, Note_on_c, 0, 63, 127
2, 130556, Note_on_c, 0, 63, 0
2, 130560, Note_on_c, 0, 68, 127
2, 131036, Note_on_c, 0, 68, 0
2, 131040, Note_on_c, 0, 66, 127
2, 132239, Note_on_c, 0, 66, 0
2, 132240, Note_on_c, 0, 71, 127
2, 132476, Note_on_c, 0, 71, 0
2, 132480, Note_on_c, 0, 68, 127
2, 132956, Note_on_c, 0, 68, 0
2, 132960, Note_on_c, 0, 66, 127
2, 133916, Note_on_c, 0, 66, 0
2, 135360, Note_on_c, 0, 68, 127
2, 135836, Note_on_c, 0, 68, 0
2, 137280, Note_on_c, 0, 70, 127
2, 138236, Note_on_c, 0, 70, 0
2, 138240, Note_on_c, 0, 68, 127
2, 139919, Note_on_c, 0, 68, 0
2, 139920, Note_on_c, 0, 66, 127
2, 140156, Note_on_c, 0, 66, 0
2, 140160, Note_on_c, 0, 65, 127
2, 140396, Note_on_c, 0, 65, 0
2, 140400, Note_on_c, 0, 66, 127
2, 140636, Note_on_c, 0, 66, 0
2, 140640, Note_on_c, 0, 68, 80
2, 141359, Note_on_c, 0, 68, 0
2, 141360, Note_on_c, 0, 66, 127
2, 141596, Note_on_c, 0, 66, 0
2, 141600, Note_on_c, 0, 71, 127
2, 142319, Note_on_c, 0, 71, 0
2, 142320, Note_on_c, 0, 65, 127
2, 142556, Note_on_c, 0, 65, 0
2, 142560, Note_on_c, 0, 66, 127
2, 142796, Note_on_c, 0, 66, 0
2, 142800, Note_on_c, 0, 69, 127
2, 143036, Note_on_c, 0, 69, 0
2, 143040, Note_on_c, 0, 62, 127
2, 143996, Note_on_c, 0, 62, 0
2, 144000, Note_on_c, 0, 61, 127
2, 144476, Note_on_c, 0, 61, 0
2, 144480, Note_on_c, 0, 56, 127
2, 144956, Note_on_c, 0, 56, 0
2, 144960, Note_on_c, 0, 57, 127
2, 145436, Note_on_c, 0, 57, 0
2, 145440, Note_on_c, 0, 59, 127
2, 145916, Note_on_c, 0, 59, 0
2, 145920, Note_on_c, 0, 61, 127
2, 146396, Note_on_c, 0, 61, 0
2, 146400, Note_on_c, 0, 54, 127
2, 147119, Note_on_c, 0, 54, 0
2, 147120, Note_on_c, 0, 69, 127
2, 147356, Note_on_c, 0, 69, 0
2, 147360, Note_on_c, 0, 68, 127
2, 147596, Note_on_c, 0, 68, 0
2, 147600, Note_on_c, 0, 66, 127
2, 148079, Note_on_c, 0, 66, 0
2, 148080, Note_on_c, 0, 65, 127
2, 148316, Note_on_c, 0, 65, 0
2, 148320, Note_on_c, 0, 63, 127
2, 148556, Note_on_c, 0, 63, 0
2, 148560, Note_on_c, 0, 66, 127
2, 148796, Note_on_c, 0, 66, 0
2, 148800, Note_on_c, 0, 65, 127
2, 149756, Note_on_c, 0, 65, 0
2, 149757, End_track
3, 0, Start_track
3, 0, Key_signature, 4, "major"
3, 0, Program_c, 1, 46
3, 2, Control_c, 1, 7, 100
3, 4, Control_c, 1, 10, 64
3, 6, Control_c, 1, 91, 30
3, 8, Control_c, 1, 93, 30
3, 23040, Note_on_c, 1, 56, 127
3, 23996, Note_on_c, 1, 56, 0
3, 24000, Note_on_c, 1, 61, 127
3, 24956, Note_on_c, 1, 61, 0
3, 24960, Note_on_c, 1, 59, 127
3, 25916, Note_on_c, 1, 59, 0
3, 25920, Note_on_c, 1, 56, 127
3, 26876, Note_on_c, 1, 56, 0
3, 26880, Note_on_c, 1, 55, 127
3, 27836, Note_on_c, 1, 55, 0
3, 27840, Note_on_c, 1, 56, 127
3, 28316, Note_on_c, 1, 56, 0
3, 28320, Note_on_c, 1, 58, 127
3, 28796, Note_on_c, 1, 58, 0
3, 28800, Note_on_c, 1, 59, 127
3, 29999, Note_on_c, 1, 59, 0
3, 30000, Note_on_c, 1, 61, 127
3, 30236, Note_on_c, 1, 61, 0
3, 30240, Note_on_c, 1, 59, 127
3, 30476, Note_on_c, 1, 59, 0
3, 30480, Note_on_c, 1, 57, 127
3, 30716, Note_on_c, 1, 57, 0
3, 30720, Note_on_c, 1, 56, 127
3, 31919, Note_on_c, 1, 56, 0
3, 31920, Note_on_c, 1, 52, 127
3, 32156, Note_on_c, 1, 52, 0
3, 32160, Note_on_c, 1, 54, 127
3, 32636, Note_on_c, 1, 54, 0
3, 32640, Note_on_c, 1, 59, 127
3, 33839, Note_on_c, 1, 59, 0
3, 33840, Note_on_c, 1, 56, 127
3, 34076, Note_on_c, 1, 56, 0
3, 34080, Note_on_c, 1, 58, 127
3, 34556, Note_on_c, 1, 58, 0
3, 34560, Note_on_c, 1, 63, 127
3, 35759, Note_on_c, 1, 63, 0
3, 35760, Note_on_c, 1, 60, 127
3, 35996, Note_on_c, 1, 60, 0
3, 36000, Note_on_c, 1, 61, 127
3, 36476, Note_on_c, 1, 61, 0
3, 36480, Note_on_c, 1, 66, 127
3, 37679, Note_on_c, 1, 66, 0
3, 37680, Note_on_c, 1, 63, 127
3, 37916, Note_on_c, 1, 63, 0
3, 37920, Note_on_c, 1, 64, 127
3, 38396, Note_on_c, 1, 64, 0
3, 38400, Note_on_c, 1, 63, 80
3, 39119, Note_on_c, 1, 63, 0
3, 39120, Note_on_c, 1, 68, 127
3, 39356, Note_on_c, 1, 68, 0
3, 39360, Note_on_c, 1, 61, 80
3, 40079, Note_on_c, 1, 61, 0
3, 40080, Note_on_c, 1, 63, 127
3, 40316, Note_on_c, 1, 63, 0
3, 40320, Note_on_c, 1, 60, 127
3, 40796, Note_on_c, 1, 60, 0
3, 40800, Note_on_c, 1, 61, 127
3, 41036, Note_on_c, 1, 61, 0
3, 41040, Note_on_c, 1, 56, 127
3, 41276, Note_on_c, 1, 56, 0
3, 41280, Note_on_c, 1, 58, 80
3, 41999, Note_on_c, 1, 58, 0
3, 42000, Note_on_c, 1, 60, 127
3, 42236, Note_on_c, 1, 60, 0
3, 42240, Note_on_c, 1, 61, 127
3, 42716, Note_on_c, 1, 61, 0
3, 42720, Note_on_c, 1, 56, 80
3, 45119, Note_on_c, 1, 56, 0
3, 45120, Note_on_c, 1, 57, 127
3, 46076, Note_on_c, 1, 57, 0
3, 46320, Note_on_c, 1, 51, 127
3, 46556, Note_on_c, 1, 51, 0
3, 46560, Note_on_c, 1, 56, 80
3, 47279, Note_on_c, 1, 56, 0
3, 47280, Note_on_c, 1, 57, 127
3, 47516, Note_on_c, 1, 57, 0
3, 47520, Note_on_c, 1, 56, 127
3, 47756, Note_on_c, 1, 56, 0
3, 47760, Note_on_c, 1, 54, 127
3, 47996, Note_on_c, 1, 54, 0
3, 48000, Note_on_c, 1, 56, 127
3, 48476, Note_on_c, 1, 56, 0
3, 48480, Note_on_c, 1, 58, 127
3, 48956, Note_on_c, 1, 58, 0
3, 48960, Note_on_c, 1, 59, 127
3, 50159, Note_on_c, 1, 59, 0
3, 50160, Note_on_c, 1, 56, 127
3, 50396, Note_on_c, 1, 56, 0
3, 50400, Note_on_c, 1, 57, 127
3, 50876, Note_on_c, 1, 57, 0
3, 50880, Note_on_c, 1, 56, 127
3, 51356, Note_on_c, 1, 56, 0
3, 51360, Note_on_c, 1, 61, 127
3, 52079, Note_on_c, 1, 61, 0
3, 52080, Note_on_c, 1, 58, 127
3, 52316, Note_on_c, 1, 58, 0
3, 52320, Note_on_c, 1, 59, 127
3, 52796, Note_on_c, 1, 59, 0
3, 52800, Note_on_c, 1, 58, 127
3, 53276, Note_on_c, 1, 58, 0
3, 53280, Note_on_c, 1, 63, 127
3, 53999, Note_on_c, 1, 63, 0
3, 54000, Note_on_c, 1, 56, 127
3, 54236, Note_on_c, 1, 56, 0
3, 54240, Note_on_c, 1, 61, 80
3, 54959, Note_on_c, 1, 61, 0
3, 54960, Note_on_c, 1, 61, 127
3, 55196, Note_on_c, 1, 61, 0
3, 55200, Note_on_c, 1, 59, 127
3, 55436, Note_on_c, 1, 59, 0
3, 55440, Note_on_c, 1, 58, 127
3, 55676, Note_on_c, 1, 58, 0
3, 55680, Note_on_c, 1, 59, 127
3, 55916, Note_on_c, 1, 59, 0
3, 55920, Note_on_c, 1, 61, 127
3, 56156, Note_on_c, 1, 61, 0
3, 56160, Note_on_c, 1, 63, 80
3, 56879, Note_on_c, 1, 63, 0
3, 56880, Note_on_c, 1, 63, 127
3, 57116, Note_on_c, 1, 63, 0
3, 57120, Note_on_c, 1, 61, 127
3, 57356, Note_on_c, 1, 61, 0
3, 57360, Note_on_c, 1, 59, 127
3, 57596, Note_on_c, 1, 59, 0
3, 57600, Note_on_c, 1, 58, 127
3, 58556, Note_on_c, 1, 58, 0
3, 58560, Note_on_c, 1, 59, 127
3, 59036, Note_on_c, 1, 59, 0
3, 59040, Note_on_c, 1, 55, 127
3, 59516, Note_on_c, 1, 55, 0
3, 59520, Note_on_c, 1, 56, 127
3, 59756, Note_on_c, 1, 56, 0
3, 59760, Note_on_c, 1, 54, 127
3, 59996, Note_on_c, 1, 54, 0
3, 60000, Note_on_c, 1, 53, 127
3, 60236, Note_on_c, 1, 53, 0
3, 60240, Note_on_c, 1, 51, 127
3, 60476, Note_on_c, 1, 51, 0
3, 60480, Note_on_c, 1, 53, 127
3, 60956, Note_on_c, 1, 53, 0
3, 60960, Note_on_c, 1, 54, 127
3, 61679, Note_on_c, 1, 54, 0
3, 61680, Note_on_c, 1, 54, 127
3, 61916, Note_on_c, 1, 54, 0
3, 61920, Note_on_c, 1, 52, 127
3, 62156, Note_on_c, 1, 52, 0
3, 62160, Note_on_c, 1, 51, 127
3, 62396, Note_on_c, 1, 51, 0
3, 62400, Note_on_c, 1, 52, 127
3, 62636, Note_on_c, 1, 52, 0
3, 62640, Note_on_c, 1, 51, 127
3, 62876, Note_on_c, 1, 51, 0
3, 62880, Note_on_c, 1, 49, 127
3, 63116, Note_on_c, 1, 49, 0
3, 63120, Note_on_c, 1, 48, 127
3, 63356, Note_on_c, 1, 48, 0
3, 63360, Note_on_c, 1, 49, 127
3, 63836, Note_on_c, 1, 49, 0
3, 74880, Note_on_c, 1, 51, 127
3, 75836, Note_on_c, 1, 51, 0
3, 75840, Note_on_c, 1, 56, 127
3, 76796, Note_on_c, 1, 56, 0
3, 76800, Note_on_c, 1, 52, 127
3, 77756, Note_on_c, 1, 52, 0
3, 77760, Note_on_c, 1, 49, 127
3, 78716, Note_on_c, 1, 49, 0
3, 78720, Note_on_c, 1, 48, 127
3, 79676, Note_on_c, 1, 48, 0
3, 79680, Note_on_c, 1, 49, 127
3, 80156, Note_on_c, 1, 49, 0
3, 80160, Note_on_c, 1, 51, 127
3, 80636, Note_on_c, 1, 51, 0
3, 80640, Note_on_c, 1, 52, 127
3, 81839, Note_on_c, 1, 52, 0
3, 81840, Note_on_c, 1, 54, 127
3, 82076, Note_on_c, 1, 54, 0
3, 82080, Note_on_c, 1, 52, 127
3, 82316, Note_on_c, 1, 52, 0
3, 82320, Note_on_c, 1, 51, 127
3, 82556, Note_on_c, 1, 51, 0
3, 82560, Note_on_c, 1, 49, 80
3, 83999, Note_on_c, 1, 49, 0
3, 84000, Note_on_c, 1, 56, 127
3, 84236, Note_on_c, 1, 56, 0
3, 84240, Note_on_c, 1, 52, 127
3, 84476, Note_on_c, 1, 52, 0
3, 84480, Note_on_c, 1, 57, 80
3, 85199, Note_on_c, 1, 57, 0
3, 85200, Note_on_c, 1, 54, 127
3, 85436, Note_on_c, 1, 54, 0
3, 85440, Note_on_c, 1, 59, 80
3, 86159, Note_on_c, 1, 59, 0
3, 86160, Note_on_c, 1, 56, 127
3, 86396, Note_on_c, 1, 56, 0
3, 86400, Note_on_c, 1, 61, 127
3, 86876, Note_on_c, 1, 61, 0
3, 86880, Note_on_c, 1, 54, 127
3, 87356, Note_on_c, 1, 54, 0
3, 87360, Note_on_c, 1, 59, 127
3, 87836, Note_on_c, 1, 59, 0
3, 87840, Note_on_c, 1, 52, 127
3, 88316, Note_on_c, 1, 52, 0
3, 88320, Note_on_c, 1, 57, 127
3, 88796, Note_on_c, 1, 57, 0
3, 88800, Note_on_c, 1, 51, 127
3, 89276, Note_on_c, 1, 51, 0
3, 89280, Note_on_c, 1, 56, 127
3, 90236, Note_on_c, 1, 56, 0
3, 90240, Note_on_c, 1, 51, 127
3, 90716, Note_on_c, 1, 51, 0
3, 90720, Note_on_c, 1, 56, 80
3, 91439, Note_on_c, 1, 56, 0
3, 91440, Note_on_c, 1, 55, 127
3, 91676, Note_on_c, 1, 55, 0
3, 91680, Note_on_c, 1, 53, 127
3, 91916, Note_on_c, 1, 53, 0
3, 91920, Note_on_c, 1, 55, 127
3, 92156, Note_on_c, 1, 55, 0
3, 92160, Note_on_c, 1, 56, 80
3, 92879, Note_on_c, 1, 56, 0
3, 92880, Note_on_c, 1, 54, 127
3, 93116, Note_on_c, 1, 54, 0
3, 93120, Note_on_c, 1, 52, 127
3, 93356, Note_on_c, 1, 52, 0
3, 93360, Note_on_c, 1, 51, 127
3, 93596, Note_on_c, 1, 51, 0
3, 93600, Note_on_c, 1, 49, 127
3, 93836, Note_on_c, 1, 49, 0
3, 93840, Note_on_c, 1, 48, 127
3, 94076, Note_on_c, 1, 48, 0
3, 94080, Note_on_c, 1, 49, 127
3, 94556, Note_on_c, 1, 49, 0
3, 94560, Note_on_c, 1, 52, 127
3, 94796, Note_on_c, 1, 52, 0
3, 94800, Note_on_c, 1, 49, 127
3, 95036, Note_on_c, 1, 49, 0
3, 95040, Note_on_c, 1, 57, 127
3, 95516, Note_on_c, 1, 57, 0
3, 95520, Note_on_c, 1, 54, 127
3, 95756, Note_on_c, 1, 54, 0
3, 95760, Note_on_c, 1, 51, 127
3, 95996, Note_on_c, 1, 51, 0
3, 96000, Note_on_c, 1, 56, 80
3, 96719, Note_on_c, 1, 56, 0
3, 96720, Note_on_c, 1, 64, 127
3, 96956, Note_on_c, 1, 64, 0
3, 96960, Note_on_c, 1, 58, 127
3, 97436, Note_on_c, 1, 58, 0
3, 97440, Note_on_c, 1, 60, 127
3, 97916, Note_on_c, 1, 60, 0
3, 97920, Note_on_c, 1, 61, 127
3, 98396, Note_on_c, 1, 61, 0
3, 98400, Note_on_c, 1, 58, 127
3, 98636, Note_on_c, 1, 58, 0
3, 98640, Note_on_c, 1, 54, 127
3, 98876, Note_on_c, 1, 54, 0
3, 98880, Note_on_c, 1, 59, 127
3, 99356, Note_on_c, 1, 59, 0
3, 99360, Note_on_c, 1, 56, 127
3, 99596, Note_on_c, 1, 56, 0
3, 99600, Note_on_c, 1, 52, 127
3, 99836, Note_on_c, 1, 52, 0
3, 99840, Note_on_c, 1, 57, 127
3, 100076, Note_on_c, 1, 57, 0
3, 100080, Note_on_c, 1, 61, 127
3, 100316, Note_on_c, 1, 61, 0
3, 100320, Note_on_c, 1, 66, 80
3, 101039, Note_on_c, 1, 66, 0
3, 101040, Note_on_c, 1, 63, 127
3, 101276, Note_on_c, 1, 63, 0
3, 101280, Note_on_c, 1, 64, 127
3, 101999, Note_on_c, 1, 64, 0
3, 102000, Note_on_c, 1, 64, 127
3, 102236, Note_on_c, 1, 64, 0
3, 102240, Note_on_c, 1, 63, 127
3, 102476, Note_on_c, 1, 63, 0
3, 102480, Note_on_c, 1, 61, 127
3, 102716, Note_on_c, 1, 61, 0
3, 102720, Note_on_c, 1, 60, 127
3, 103676, Note_on_c, 1, 60, 0
3, 103680, Note_on_c, 1, 61, 127
3, 103916, Note_on_c, 1, 61, 0
3, 103920, Note_on_c, 1, 59, 127
3, 104156, Note_on_c, 1, 59, 0
3, 104160, Note_on_c, 1, 57, 127
3, 104396, Note_on_c, 1, 57, 0
3, 104400, Note_on_c, 1, 56, 127
3, 104636, Note_on_c, 1, 56, 0
3, 104640, Note_on_c, 1, 54, 127
3, 104876, Note_on_c, 1, 54, 0
3, 104880, Note_on_c, 1, 56, 127
3, 105116, Note_on_c, 1, 56, 0
3, 105120, Note_on_c, 1, 57, 127
3, 105356, Note_on_c, 1, 57, 0
3, 105360, Note_on_c, 1, 59, 127
3, 105596, Note_on_c, 1, 59, 0
3, 105600, Note_on_c, 1, 61, 127
3, 105836, Note_on_c, 1, 61, 0
3, 105840, Note_on_c, 1, 56, 127
3, 106076, Note_on_c, 1, 56, 0
3, 106080, Note_on_c, 1, 61, 80
3, 106799, Note_on_c, 1, 61, 0
3, 106800, Note_on_c, 1, 58, 127
3, 107036, Note_on_c, 1, 58, 0
3, 107040, Note_on_c, 1, 60, 127
3, 107759, Note_on_c, 1, 60, 0
3, 107760, Note_on_c, 1, 63, 127
3, 107996, Note_on_c, 1, 63, 0
3, 108000, Note_on_c, 1, 56, 127
3, 108236, Note_on_c, 1, 56, 0
3, 108240, Note_on_c, 1, 60, 127
3, 108476, Note_on_c, 1, 60, 0
3, 108480, Note_on_c, 1, 61, 127
3, 108956, Note_on_c, 1, 61, 0
3, 108960, Note_on_c, 1, 57, 127
3, 109196, Note_on_c, 1, 57, 0
3, 109200, Note_on_c, 1, 54, 127
3, 109436, Note_on_c, 1, 54, 0
3, 109440, Note_on_c, 1, 51, 127
3, 110396, Note_on_c, 1, 51, 0
3, 110400, Note_on_c, 1, 52, 127
3, 110876, Note_on_c, 1, 52, 0
3, 110880, Note_on_c, 1, 54, 127
3, 111356, Note_on_c, 1, 54, 0
3, 111360, Note_on_c, 1, 56, 127
3, 112316, Note_on_c, 1, 56, 0
3, 112320, Note_on_c, 1, 58, 127
3, 112796, Note_on_c, 1, 58, 0
3, 112800, Note_on_c, 1, 60, 127
3, 113276, Note_on_c, 1, 60, 0
3, 113280, Note_on_c, 1, 61, 127
3, 113756, Note_on_c, 1, 61, 0
3, 114720, Note_on_c, 1, 53, 127
3, 115196, Note_on_c, 1, 53, 0
3, 115200, Note_on_c, 1, 54, 127
3, 115436, Note_on_c, 1, 54, 0
3, 115440, Note_on_c, 1, 56, 127
3, 115676, Note_on_c, 1, 56, 0
3, 115680, Note_on_c, 1, 57, 127
3, 116156, Note_on_c, 1, 57, 0
3, 116640, Note_on_c, 1, 59, 127
3, 117116, Note_on_c, 1, 59, 0
3, 117120, Note_on_c, 1, 61, 127
3, 118076, Note_on_c, 1, 61, 0
3, 118320, Note_on_c, 1, 54, 127
3, 118796, Note_on_c, 1, 54, 0
3, 118800, Note_on_c, 1, 52, 127
3, 119036, Note_on_c, 1, 52, 0
3, 119040, Note_on_c, 1, 51, 127
3, 119516, Note_on_c, 1, 51, 0
3, 121440, Note_on_c, 1, 52, 127
3, 121676, Note_on_c, 1, 52, 0
3, 121680, Note_on_c, 1, 49, 127
3, 121916, Note_on_c, 1, 49, 0
3, 121920, Note_on_c, 1, 54, 80
3, 122639, Note_on_c, 1, 54, 0
3, 122640, Note_on_c, 1, 48, 127
3, 122876, Note_on_c, 1, 48, 0
3, 122880, Note_on_c, 1, 52, 80
3, 123599, Note_on_c, 1, 52, 0
3, 123600, Note_on_c, 1, 49, 127
3, 123836, Note_on_c, 1, 49, 0
3, 123840, Note_on_c, 1, 56, 127
3, 124796, Note_on_c, 1, 56, 0
3, 124800, Note_on_c, 1, 49, 127
3, 125276, Note_on_c, 1, 49, 0
3, 125280, Note_on_c, 1, 61, 127
3, 126236, Note_on_c, 1, 61, 0
3, 126240, Note_on_c, 1, 56, 127
3, 126476, Note_on_c, 1, 56, 0
3, 126480, Note_on_c, 1, 52, 127
3, 126716, Note_on_c, 1, 52, 0
3, 126720, Note_on_c, 1, 57, 127
3, 127919, Note_on_c, 1, 57, 0
3, 127920, Note_on_c, 1, 55, 127
3, 128156, Note_on_c, 1, 55, 0
3, 128160, Note_on_c, 1, 56, 127
3, 128636, Note_on_c, 1, 56, 0
3, 128640, Note_on_c, 1, 61, 127
3, 129839, Note_on_c, 1, 61, 0
3, 129840, Note_on_c, 1, 58, 127
3, 130076, Note_on_c, 1, 58, 0
3, 130080, Note_on_c, 1, 59, 127
3, 130556, Note_on_c, 1, 59, 0
3, 130560, Note_on_c, 1, 64, 127
3, 131759, Note_on_c, 1, 64, 0
3, 131760, Note_on_c, 1, 61, 127
3, 131996, Note_on_c, 1, 61, 0
3, 132000, Note_on_c, 1, 62, 127
3, 132476, Note_on_c, 1, 62, 0
3, 132480, Note_on_c, 1, 61, 127
3, 133436, Note_on_c, 1, 61, 0
3, 133440, Note_on_c, 1, 63, 127
3, 133916, Note_on_c, 1, 63, 0
3, 135360, Note_on_c, 1, 64, 127
3, 135836, Note_on_c, 1, 64, 0
3, 137280, Note_on_c, 1, 64, 127
3, 138719, Note_on_c, 1, 64, 0
3, 138720, Note_on_c, 1, 63, 127
3, 138956, Note_on_c, 1, 63, 0
3, 138960, Note_on_c, 1, 61, 127
3, 139196, Note_on_c, 1, 61, 0
3, 139200, Note_on_c, 1, 63, 127
3, 139676, Note_on_c, 1, 63, 0
3, 140160, Note_on_c, 1, 56, 127
3, 141116, Note_on_c, 1, 56, 0
3, 141120, Note_on_c, 1, 61, 127
3, 142076, Note_on_c, 1, 61, 0
3, 142080, Note_on_c, 1, 57, 127
3, 143036, Note_on_c, 1, 57, 0
3, 143040, Note_on_c, 1, 54, 127
3, 143996, Note_on_c, 1, 54, 0
3, 144000, Note_on_c, 1, 53, 127
3, 144956, Note_on_c, 1, 53, 0
3, 144960, Note_on_c, 1, 54, 127
3, 145436, Note_on_c, 1, 54, 0
3, 145440, Note_on_c, 1, 56, 127
3, 145916, Note_on_c, 1, 56, 0
3, 145920, Note_on_c, 1, 57, 127
3, 147119, Note_on_c, 1, 57, 0
3, 147120, Note_on_c, 1, 61, 127
3, 147356, Note_on_c, 1, 61, 0
3, 147360, Note_on_c, 1, 59, 127
3, 147596, Note_on_c, 1, 59, 0
3, 147600, Note_on_c, 1, 57, 127
3, 147836, Note_on_c, 1, 57, 0
3, 147840, Note_on_c, 1, 56, 127
3, 149756, Note_on_c, 1, 56, 0
3, 149757, End_track
4, 0, Start_track
4, 0, Key_signature, 4, "major"
4, 15360, Note_on_c, 1, 49, 127
4, 16316, Note_on_c, 1, 49, 0
4, 16320, Note_on_c, 1, 56, 127
4, 17276, Note_on_c, 1, 56, 0
4, 17280, Note_on_c, 1, 52, 127
4, 18236, Note_on_c, 1, 52, 0
4, 18240, Note_on_c, 1, 49, 127
4, 19196, Note_on_c, 1, 49, 0
4, 19200, Note_on_c, 1, 48, 127
4, 20156, Note_on_c, 1, 48, 0
4, 20160, Note_on_c, 1, 49, 127
4, 20636, Note_on_c, 1, 49, 0
4, 20640, Note_on_c, 1, 51, 127
4, 21116, Note_on_c, 1, 51, 0
4, 21120, Note_on_c, 1, 52, 127
4, 22319, Note_on_c, 1, 52, 0
4, 22320, Note_on_c, 1, 54, 127
4, 22556, Note_on_c, 1, 54, 0
4, 22560, Note_on_c, 1, 52, 127
4, 22796, Note_on_c, 1, 52, 0
4, 22800, Note_on_c, 1, 51, 127
4, 23036, Note_on_c, 1, 51, 0
4, 23040, Note_on_c, 1, 49, 127
4, 23996, Note_on_c, 1, 49, 0
4, 25440, Note_on_c, 1, 44, 127
4, 25676, Note_on_c, 1, 44, 0
4, 25680, Note_on_c, 1, 46, 127
4, 25916, Note_on_c, 1, 46, 0
4, 25920, Note_on_c, 1, 47, 127
4, 26156, Note_on_c, 1, 47, 0
4, 26160, Note_on_c, 1, 44, 127
4, 26396, Note_on_c, 1, 44, 0
4, 26400, Note_on_c, 1, 52, 127
4, 27119, Note_on_c, 1, 52, 0
4, 27120, Note_on_c, 1, 46, 127
4, 27356, Note_on_c, 1, 46, 0
4, 27360, Note_on_c, 1, 51, 80
4, 28079, Note_on_c, 1, 51, 0
4, 28080, Note_on_c, 1, 52, 127
4, 28316, Note_on_c, 1, 52, 0
4, 28320, Note_on_c, 1, 51, 127
4, 28556, Note_on_c, 1, 51, 0
4, 28560, Note_on_c, 1, 49, 127
4, 28796, Note_on_c, 1, 49, 0
4, 28800, Note_on_c, 1, 51, 127
4, 29036, Note_on_c, 1, 51, 0
4, 29040, Note_on_c, 1, 54, 127
4, 29276, Note_on_c, 1, 54, 0
4, 29280, Note_on_c, 1, 53, 127
4, 29516, Note_on_c, 1, 53, 0
4, 29520, Note_on_c, 1, 56, 127
4, 29756, Note_on_c, 1, 56, 0
4, 29760, Note_on_c, 1, 54, 127
4, 30716, Note_on_c, 1, 54, 0
4, 30720, Note_on_c, 1, 49, 80
4, 32159, Note_on_c, 1, 49, 0
4, 32160, Note_on_c, 1, 51, 127
4, 32396, Note_on_c, 1, 51, 0
4, 32400, Note_on_c, 1, 49, 127
4, 32636, Note_on_c, 1, 49, 0
4, 32640, Note_on_c, 1, 51, 127
4, 33116, Note_on_c, 1, 51, 0
4, 33120, Note_on_c, 1, 52, 127
4, 33356, Note_on_c, 1, 52, 0
4, 33360, Note_on_c, 1, 51, 127
4, 33596, Note_on_c, 1, 51, 0
4, 33600, Note_on_c, 1, 53, 127
4, 34076, Note_on_c, 1, 53, 0
4, 34080, Note_on_c, 1, 54, 127
4, 34316, Note_on_c, 1, 54, 0
4, 34320, Note_on_c, 1, 53, 127
4, 34556, Note_on_c, 1, 53, 0
4, 34560, Note_on_c, 1, 55, 127
4, 35036, Note_on_c, 1, 55, 0
4, 35040, Note_on_c, 1, 56, 127
4, 35276, Note_on_c, 1, 56, 0
4, 35280, Note_on_c, 1, 55, 127
4, 35516, Note_on_c, 1, 55, 0
4, 35520, Note_on_c, 1, 56, 127
4, 35996, Note_on_c, 1, 56, 0
4, 36000, Note_on_c, 1, 57, 127
4, 36236, Note_on_c, 1, 57, 0
4, 36240, Note_on_c, 1, 56, 127
4, 36476, Note_on_c, 1, 56, 0
4, 36480, Note_on_c, 1, 58, 127
4, 36956, Note_on_c, 1, 58, 0
4, 36960, Note_on_c, 1, 59, 127
4, 37196, Note_on_c, 1, 59, 0
4, 37200, Note_on_c, 1, 58, 127
4, 37436, Note_on_c, 1, 58, 0
4, 37440, Note_on_c, 1, 60, 127
4, 37916, Note_on_c, 1, 60, 0
4, 37920, Note_on_c, 1, 61, 127
4, 38156, Note_on_c, 1, 61, 0
4, 38160, Note_on_c, 1, 55, 127
4, 38396, Note_on_c, 1, 55, 0
4, 38400, Note_on_c, 1, 56, 127
4, 39599, Note_on_c, 1, 56, 0
4, 39600, Note_on_c, 1, 52, 127
4, 39836, Note_on_c, 1, 52, 0
4, 39840, Note_on_c, 1, 54, 127
4, 40559, Note_on_c, 1, 54, 0
4, 40560, Note_on_c, 1, 51, 127
4, 40796, Note_on_c, 1, 51, 0
4, 40800, Note_on_c, 1, 52, 80
4, 41519, Note_on_c, 1, 52, 0
4, 41520, Note_on_c, 1, 49, 127
4, 41756, Note_on_c, 1, 49, 0
4, 41760, Note_on_c, 1, 51, 127
4, 42236, Note_on_c, 1, 51, 0
4, 42240, Note_on_c, 1, 49, 127
4, 43439, Note_on_c, 1, 49, 0
4, 43440, Note_on_c, 1, 46, 127
4, 43676, Note_on_c, 1, 46, 0
4, 43680, Note_on_c, 1, 48, 127
4, 44156, Note_on_c, 1, 48, 0
4, 44160, Note_on_c, 1, 49, 127
4, 44879, Note_on_c, 1, 49, 0
4, 44880, Note_on_c, 1, 47, 127
4, 45116, Note_on_c, 1, 47, 0
4, 45120, Note_on_c, 1, 45, 127
4, 46076, Note_on_c, 1, 45, 0
4, 46080, Note_on_c, 1, 44, 80
4, 46799, Note_on_c, 1, 44, 0
4, 46800, Note_on_c, 1, 42, 127
4, 47036, Note_on_c, 1, 42, 0
4, 47040, Note_on_c, 1, 40, 127
4, 47276, Note_on_c, 1, 40, 0
4, 47280, Note_on_c, 1, 42, 127
4, 47516, Note_on_c, 1, 42, 0
4, 47520, Note_on_c, 1, 40, 127
4, 47756, Note_on_c, 1, 40, 0
4, 47760, Note_on_c, 1, 39, 127
4, 47996, Note_on_c, 1, 39, 0
4, 48000, Note_on_c, 1, 37, 127
4, 48236, Note_on_c, 1, 37, 0
4, 48240, Note_on_c, 1, 40, 127
4, 48476, Note_on_c, 1, 40, 0
4, 48480, Note_on_c, 1, 39, 127
4, 48716, Note_on_c, 1, 39, 0
4, 48720, Note_on_c, 1, 37, 127
4, 48956, Note_on_c, 1, 37, 0
4, 48960, Note_on_c, 1, 44, 80
4, 49679, Note_on_c, 1, 44, 0
4, 49680, Note_on_c, 1, 40, 127
4, 49916, Note_on_c, 1, 40, 0
4, 49920, Note_on_c, 1, 45, 80
4, 50639, Note_on_c, 1, 45, 0
4, 50640, Note_on_c, 1, 42, 127
4, 50876, Note_on_c, 1, 42, 0
4, 50880, Note_on_c, 1, 49, 80
4, 51599, Note_on_c, 1, 49, 0
4, 51600, Note_on_c, 1, 52, 127
4, 51836, Note_on_c, 1, 52, 0
4, 51840, Note_on_c, 1, 56, 80
4, 52559, Note_on_c, 1, 56, 0
4, 52560, Note_on_c, 1, 44, 127
4, 52796, Note_on_c, 1, 44, 0
4, 52800, Note_on_c, 1, 39, 127
4, 53276, Note_on_c, 1, 39, 0
4, 54720, Note_on_c, 1, 51, 127
4, 55676, Note_on_c, 1, 51, 0
4, 55680, Note_on_c, 1, 56, 127
4, 56636, Note_on_c, 1, 56, 0
4, 56640, Note_on_c, 1, 52, 127
4, 57839, Note_on_c, 1, 52, 0
4, 57840, Note_on_c, 1, 52, 127
4, 58076, Note_on_c, 1, 52, 0
4, 58080, Note_on_c, 1, 51, 127
4, 58316, Note_on_c, 1, 51, 0
4, 58320, Note_on_c, 1, 49, 127
4, 58556, Note_on_c, 1, 49, 0
4, 58560, Note_on_c, 1, 47, 127
4, 58796, Note_on_c, 1, 47, 0
4, 58800, Note_on_c, 1, 49, 127
4, 59036, Note_on_c, 1, 49, 0
4, 59040, Note_on_c, 1, 47, 127
4, 59276, Note_on_c, 1, 47, 0
4, 59280, Note_on_c, 1, 46, 127
4, 59516, Note_on_c, 1, 46, 0
4, 59520, Note_on_c, 1, 44, 127
4, 60476, Note_on_c, 1, 44, 0
4, 60480, Note_on_c, 1, 49, 127
4, 61436, Note_on_c, 1, 49, 0
4, 61440, Note_on_c, 1, 48, 127
4, 62396, Note_on_c, 1, 48, 0
4, 62400, Note_on_c, 1, 44, 127
4, 63356, Note_on_c, 1, 44, 0
4, 63360, Note_on_c, 1, 41, 127
4, 64316, Note_on_c, 1, 41, 0
4, 64320, Note_on_c, 1, 42, 127
4, 64796, Note_on_c, 1, 42, 0
4, 64800, Note_on_c, 1, 44, 127
4, 65276, Note_on_c, 1, 44, 0
4, 65280, Note_on_c, 1, 45, 127
4, 66479, Note_on_c, 1, 45, 0
4, 66480, Note_on_c, 1, 47, 127
4, 66716, Note_on_c, 1, 47, 0
4, 66720, Note_on_c, 1, 45, 127
4, 66956, Note_on_c, 1, 45, 0
4, 66960, Note_on_c, 1, 44, 127
4, 67196, Note_on_c, 1, 44, 0
4, 67200, Note_on_c, 1, 42, 127
4, 68399, Note_on_c, 1, 42, 0
4, 68400, Note_on_c, 1, 39, 127
4, 68636, Note_on_c, 1, 39, 0
4, 68640, Note_on_c, 1, 40, 127
4, 69116, Note_on_c, 1, 40, 0
4, 69120, Note_on_c, 1, 45, 127
4, 70319, Note_on_c, 1, 45, 0
4, 70320, Note_on_c, 1, 42, 127
4, 70556, Note_on_c, 1, 42, 0
4, 70560, Note_on_c, 1, 44, 127
4, 71036, Note_on_c, 1, 44, 0
4, 71040, Note_on_c, 1, 49, 127
4, 72239, Note_on_c, 1, 49, 0
4, 72240, Note_on_c, 1, 46, 127
4, 72476, Note_on_c, 1, 46, 0
4, 72480, Note_on_c, 1, 47, 127
4, 72956, Note_on_c, 1, 47, 0
4, 72960, Note_on_c, 1, 52, 127
4, 74159, Note_on_c, 1, 52, 0
4, 74160, Note_on_c, 1, 49, 127
4, 74396, Note_on_c, 1, 49, 0
4, 74400, Note_on_c, 1, 51, 127
4, 74876, Note_on_c, 1, 51, 0
4, 74880, Note_on_c, 1, 44, 80
4, 75599, Note_on_c, 1, 44, 0
4, 75600, Note_on_c, 1, 54, 127
4, 75836, Note_on_c, 1, 54, 0
4, 75840, Note_on_c, 1, 52, 127
4, 76076, Note_on_c, 1, 52, 0
4, 76080, Note_on_c, 1, 51, 127
4, 76316, Note_on_c, 1, 51, 0
4, 76320, Note_on_c, 1, 49, 127
4, 76556, Note_on_c, 1, 49, 0
4, 76560, Note_on_c, 1, 48, 127
4, 76796, Note_on_c, 1, 48, 0
4, 76800, Note_on_c, 1, 49, 80
4, 77519, Note_on_c, 1, 49, 0
4, 77520, Note_on_c, 1, 40, 127
4, 77756, Note_on_c, 1, 40, 0
4, 77760, Note_on_c, 1, 45, 127
4, 78716, Note_on_c, 1, 45, 0
4, 78720, Note_on_c, 1, 44, 127
4, 81359, Note_on_c, 1, 44, 0
4, 81360, Note_on_c, 1, 45, 127
4, 81596, Note_on_c, 1, 45, 0
4, 81600, Note_on_c, 1, 44, 127
4, 81836, Note_on_c, 1, 44, 0
4, 81840, Note_on_c, 1, 42, 127
4, 82076, Note_on_c, 1, 42, 0
4, 82080, Note_on_c, 1, 44, 127
4, 82556, Note_on_c, 1, 44, 0
4, 82560, Note_on_c, 1, 45, 80
4, 83279, Note_on_c, 1, 45, 0
4, 83280, Note_on_c, 1, 42, 127
4, 83516, Note_on_c, 1, 42, 0
4, 83520, Note_on_c, 1, 49, 127
4, 84959, Note_on_c, 1, 49, 0
4, 84960, Note_on_c, 1, 51, 127
4, 85916, Note_on_c, 1, 51, 0
4, 85920, Note_on_c, 1, 52, 127
4, 87119, Note_on_c, 1, 52, 0
4, 87120, Note_on_c, 1, 49, 127
4, 87356, Note_on_c, 1, 49, 0
4, 87360, Note_on_c, 1, 51, 80
4, 88079, Note_on_c, 1, 51, 0
4, 88080, Note_on_c, 1, 48, 127
4, 88316, Note_on_c, 1, 48, 0
4, 88320, Note_on_c, 1, 49, 80
4, 89039, Note_on_c, 1, 49, 0
4, 89040, Note_on_c, 1, 46, 127
4, 89276, Note_on_c, 1, 46, 0
4, 89280, Note_on_c, 1, 48, 127
4, 89516, Note_on_c, 1, 48, 0
4, 89520, Note_on_c, 1, 44, 127
4, 89756, Note_on_c, 1, 44, 0
4, 89760, Note_on_c, 1, 49, 127
4, 90479, Note_on_c, 1, 49, 0
4, 90480, Note_on_c, 1, 47, 127
4, 90716, Note_on_c, 1, 47, 0
4, 90720, Note_on_c, 1, 46, 127
4, 90956, Note_on_c, 1, 46, 0
4, 90960, Note_on_c, 1, 44, 127
4, 91196, Note_on_c, 1, 44, 0
4, 91200, Note_on_c, 1, 46, 127
4, 92156, Note_on_c, 1, 46, 0
4, 92160, Note_on_c, 1, 44, 127
4, 92636, Note_on_c, 1, 44, 0
4, 105600, Note_on_c, 1, 49, 127
4, 106556, Note_on_c, 1, 49, 0
4, 106560, Note_on_c, 1, 56, 127
4, 107516, Note_on_c, 1, 56, 0
4, 107520, Note_on_c, 1, 52, 127
4, 108476, Note_on_c, 1, 52, 0
4, 108480, Note_on_c, 1, 49, 127
4, 109436, Note_on_c, 1, 49, 0
4, 109440, Note_on_c, 1, 48, 127
4, 110396, Note_on_c, 1, 48, 0
4, 110400, Note_on_c, 1, 49, 127
4, 110876, Note_on_c, 1, 49, 0
4, 110880, Note_on_c, 1, 51, 127
4, 111356, Note_on_c, 1, 51, 0
4, 111360, Note_on_c, 1, 52, 127
4, 112559, Note_on_c, 1, 52, 0
4, 112560, Note_on_c, 1, 54, 127
4, 112796, Note_on_c, 1, 54, 0
4, 112800, Note_on_c, 1, 52, 127
4, 113036, Note_on_c, 1, 52, 0
4, 113040, Note_on_c, 1, 51, 127
4, 113276, Note_on_c, 1, 51, 0
4, 113280, Note_on_c, 1, 49, 127
4, 114479, Note_on_c, 1, 49, 0
4, 114480, Note_on_c, 1, 50, 127
4, 114716, Note_on_c, 1, 50, 0
4, 114720, Note_on_c, 1, 49, 127
4, 114956, Note_on_c, 1, 49, 0
4, 114960, Note_on_c, 1, 47, 127
4, 115196, Note_on_c, 1, 47, 0
4, 115200, Note_on_c, 1, 45, 127
4, 116399, Note_on_c, 1, 45, 0
4, 116400, Note_on_c, 1, 47, 127
4, 116636, Note_on_c, 1, 47, 0
4, 116640, Note_on_c, 1, 45, 127
4, 116876, Note_on_c, 1, 45, 0
4, 116880, Note_on_c, 1, 44, 127
4, 117116, Note_on_c, 1, 44, 0
4, 117120, Note_on_c, 1, 42, 80
4, 118559, Note_on_c, 1, 42, 0
4, 118560, Note_on_c, 1, 42, 127
4, 119036, Note_on_c, 1, 42, 0
4, 119040, Note_on_c, 1, 44, 127
4, 124319, Note_on_c, 1, 44, 0
4, 124320, Note_on_c, 1, 44, 127
4, 124796, Note_on_c, 1, 44, 0
4, 124800, Note_on_c, 1, 45, 80
4, 125519, Note_on_c, 1, 45, 0
4, 125520, Note_on_c, 1, 42, 127
4, 125756, Note_on_c, 1, 42, 0
4, 125760, Note_on_c, 1, 49, 127
4, 126959, Note_on_c, 1, 49, 0
4, 126960, Note_on_c, 1, 45, 127
4, 127196, Note_on_c, 1, 45, 0
4, 127200, Note_on_c, 1, 47, 127
4, 127676, Note_on_c, 1, 47, 0
4, 127680, Note_on_c, 1, 52, 127
4, 128879, Note_on_c, 1, 52, 0
4, 128880, Note_on_c, 1, 49, 127
4, 129116, Note_on_c, 1, 49, 0
4, 129120, Note_on_c, 1, 51, 127
4, 129596, Note_on_c, 1, 51, 0
4, 129600, Note_on_c, 1, 56, 127
4, 130799, Note_on_c, 1, 56, 0
4, 130800, Note_on_c, 1, 52, 127
4, 131036, Note_on_c, 1, 52, 0
4, 131040, Note_on_c, 1, 54, 127
4, 131516, Note_on_c, 1, 54, 0
4, 131520, Note_on_c, 1, 59, 127
4, 132719, Note_on_c, 1, 59, 0
4, 132720, Note_on_c, 1, 56, 127
4, 132956, Note_on_c, 1, 56, 0
4, 132960, Note_on_c, 1, 57, 127
4, 133916, Note_on_c, 1, 57, 0
4, 135360, Note_on_c, 1, 56, 127
4, 135836, Note_on_c, 1, 56, 0
4, 137280, Note_on_c, 1, 55, 127
4, 138236, Note_on_c, 1, 55, 0
4, 138240, Note_on_c, 1, 56, 80
4, 139679, Note_on_c, 1, 56, 0
4, 139680, Note_on_c, 1, 44, 127
4, 140156, Note_on_c, 1, 44, 0
4, 140160, Note_on_c, 1, 49, 127
4, 149759, Note_on_c, 1, 49, 0
4, 149760, End_track
0, 0, End_of_file
