0, 0, Header, 1, 2, 480
1, 0, Start_track
1, 0, Unknown_meta_event, 8, 38, 71, 111, 108, 100, 98, 101, 114, 103, 32, 86, 97, 114, 105, 97, 116, 105, 111, 110, 115, 58, 32, 86, 97, 114, 105, 97, 116, 105, 111, 110, 32, 88, 86, 73, 73, 73, 32, 0
1, 0, Unknown_meta_event, 9, 8, 66, 87, 86, 32, 57, 56, 56, 0
1, 0, Unknown_meta_event, 10, 11, 74, 46, 32, 83, 46, 32, 66, 97, 99, 104, 0
1, 0, Time_signature, 2, 1, 24, 8
1, 0, Key_signature, 1, "major"
1, 0, Tempo, 326087
1, 0, Program_c, 0, 46
1, 0, Note_on_c, 0, 71, 80
1, 2, Control_c, 0, 7, 100
1, 4, Control_c, 0, 10, 64
1, 6, Control_c, 0, 91, 30
1, 8, Control_c, 0, 93, 30
1, 960, Note_on_c, 0, 79, 80
1, 1919, Note_on_c, 0, 71, 0
1, 1920, Note_on_c, 0, 69, 80
1, 1920, Note_on_c, 0, 79, 0
1, 2880, Note_on_c, 0, 78, 80
1, 3359, Note_on_c, 0, 69, 0
1, 3360, Note_on_c, 0, 71, 80
1, 3599, Note_on_c, 0, 71, 0
1, 3600, Note_on_c, 0, 69, 80
1, 3839, Note_on_c, 0, 69, 0
1, 3840, Note_on_c, 0, 67, 80
1, 4319, Note_on_c, 0, 78, 0
1, 4320, Note_on_c, 0, 79, 80
1, 4560, Note_on_c, 0, 78, 80
1, 4560, Note_on_c, 0, 79, 0
1, 4800, Note_on_c, 0, 76, 80
1, 4800, Note_on_c, 0, 78, 0
1, 5279, Note_on_c, 0, 67, 0
1, 5280, Note_on_c, 0, 66, 80
1, 5519, Note_on_c, 0, 66, 0
1, 5520, Note_on_c, 0, 64, 80
1, 5759, Note_on_c, 0, 64, 0
1, 5760, Note_on_c, 0, 66, 80
1, 6239, Note_on_c, 0, 76, 0
1, 6240, Note_on_c, 0, 74, 80
1, 6480, Note_on_c, 0, 73, 80
1, 6480, Note_on_c, 0, 74, 0
1, 6719, Note_on_c, 0, 66, 0
1, 6720, Note_on_c, 0, 74, 80
1, 6720, Note_on_c, 0, 73, 0
1, 7680, Note_on_c, 0, 67, 80
1, 7680, Note_on_c, 0, 74, 0
1, 8640, Note_on_c, 0, 76, 80
1, 9119, Note_on_c, 0, 67, 0
1, 9120, Note_on_c, 0, 66, 80
1, 9359, Note_on_c, 0, 66, 0
1, 9360, Note_on_c, 0, 67, 80
1, 9599, Note_on_c, 0, 67, 0
1, 9600, Note_on_c, 0, 69, 80
1, 10079, Note_on_c, 0, 76, 0
1, 10080, Note_on_c, 0, 74, 80
1, 10320, Note_on_c, 0, 76, 80
1, 10320, Note_on_c, 0, 74, 0
1, 10560, Note_on_c, 0, 78, 80
1, 10560, Note_on_c, 0, 76, 0
1, 11039, Note_on_c, 0, 69, 0
1, 11040, Note_on_c, 0, 72, 80
1, 11279, Note_on_c, 0, 72, 0
1, 11280, Note_on_c, 0, 71, 80
1, 11519, Note_on_c, 0, 71, 0
1, 11520, Note_on_c, 0, 72, 80
1, 11999, Note_on_c, 0, 78, 0
1, 12000, Note_on_c, 0, 81, 80
1, 12240, Note_on_c, 0, 79, 80
1, 12240, Note_on_c, 0, 81, 0
1, 12480, Note_on_c, 0, 81, 80
1, 12480, Note_on_c, 0, 79, 0
1, 12719, Note_on_c, 0, 72, 0
1, 12720, Note_on_c, 0, 71, 80
1, 12959, Note_on_c, 0, 71, 0
1, 12960, Note_on_c, 0, 72, 80
1, 13199, Note_on_c, 0, 72, 0
1, 13200, Note_on_c, 0, 69, 80
1, 13439, Note_on_c, 0, 69, 0
1, 13440, Note_on_c, 0, 71, 80
1, 13679, Note_on_c, 0, 81, 0
1, 13680, Note_on_c, 0, 79, 80
1, 13920, Note_on_c, 0, 81, 80
1, 13920, Note_on_c, 0, 79, 0
1, 14160, Note_on_c, 0, 78, 80
1, 14160, Note_on_c, 0, 81, 0
1, 14399, Note_on_c, 0, 71, 0
1, 14400, Note_on_c, 0, 79, 80
1, 14400, Note_on_c, 0, 78, 0
1, 15360, Note_on_c, 0, 67, 80
1, 15360, Note_on_c, 0, 79, 0
1, 16320, Note_on_c, 0, 76, 80
1, 17279, Note_on_c, 0, 67, 0
1, 17280, Note_on_c, 0, 66, 80
1, 17280, Note_on_c, 0, 76, 0
1, 18240, Note_on_c, 0, 74, 80
1, 18719, Note_on_c, 0, 66, 0
1, 18720, Note_on_c, 0, 67, 80
1, 18959, Note_on_c, 0, 67, 0
1, 18960, Note_on_c, 0, 69, 80
1, 19199, Note_on_c, 0, 69, 0
1, 19200, Note_on_c, 0, 71, 80
1, 19679, Note_on_c, 0, 74, 0
1, 19680, Note_on_c, 0, 76, 80
1, 19920, Note_on_c, 0, 78, 80
1, 19920, Note_on_c, 0, 76, 0
1, 20160, Note_on_c, 0, 79, 80
1, 20160, Note_on_c, 0, 78, 0
1, 20399, Note_on_c, 0, 71, 0
1, 20400, Note_on_c, 0, 69, 80
1, 20639, Note_on_c, 0, 69, 0
1, 20640, Note_on_c, 0, 71, 80
1, 20879, Note_on_c, 0, 71, 0
1, 20880, Note_on_c, 0, 67, 80
1, 21119, Note_on_c, 0, 67, 0
1, 21120, Note_on_c, 0, 69, 80
1, 21359, Note_on_c, 0, 79, 0
1, 21360, Note_on_c, 0, 78, 80
1, 21600, Note_on_c, 0, 79, 80
1, 21600, Note_on_c, 0, 78, 0
1, 21840, Note_on_c, 0, 76, 80
1, 21840, Note_on_c, 0, 79, 0
1, 22080, Note_on_c, 0, 78, 80
1, 22080, Note_on_c, 0, 76, 0
1, 22559, Note_on_c, 0, 69, 0
1, 22560, Note_on_c, 0, 69, 80
1, 23039, Note_on_c, 0, 69, 0
1, 23040, Note_on_c, 0, 67, 80
1, 23519, Note_on_c, 0, 78, 0
1, 23520, Note_on_c, 0, 78, 80
1, 24000, Note_on_c, 0, 76, 80
1, 24000, Note_on_c, 0, 78, 0
1, 24479, Note_on_c, 0, 67, 0
1, 24480, Note_on_c, 0, 67, 80
1, 24959, Note_on_c, 0, 67, 0
1, 24960, Note_on_c, 0, 66, 80
1, 25439, Note_on_c, 0, 76, 0
1, 25440, Note_on_c, 0, 76, 80
1, 25920, Note_on_c, 0, 74, 80
1, 25920, Note_on_c, 0, 76, 0
1, 26399, Note_on_c, 0, 66, 0
1, 26400, Note_on_c, 0, 71, 80
1, 26879, Note_on_c, 0, 71, 0
1, 26880, Note_on_c, 0, 64, 80
1, 27119, Note_on_c, 0, 64, 0
1, 27120, Note_on_c, 0, 66, 80
1, 27359, Note_on_c, 0, 66, 0
1, 27359, Note_on_c, 0, 74, 0
1, 27360, Note_on_c, 0, 67, 80
1, 27360, Note_on_c, 0, 79, 80
1, 27840, Note_on_c, 0, 73, 80
1, 27840, Note_on_c, 0, 79, 0
1, 28080, Note_on_c, 0, 74, 80
1, 28080, Note_on_c, 0, 73, 0
1, 28320, Note_on_c, 0, 76, 80
1, 28320, Note_on_c, 0, 74, 0
1, 28799, Note_on_c, 0, 67, 0
1, 28800, Note_on_c, 0, 66, 80
1, 28800, Note_on_c, 0, 76, 0
1, 29760, Note_on_c, 0, 74, 80
1, 30719, Note_on_c, 0, 66, 0
1, 30720, Note_on_c, 0, 71, 80
1, 30720, Note_on_c, 0, 74, 0
1, 31680, Note_on_c, 0, 79, 80
1, 32639, Note_on_c, 0, 71, 0
1, 32640, Note_on_c, 0, 69, 80
1, 32640, Note_on_c, 0, 79, 0
1, 33600, Note_on_c, 0, 78, 80
1, 34079, Note_on_c, 0, 69, 0
1, 34080, Note_on_c, 0, 71, 80
1, 34319, Note_on_c, 0, 71, 0
1, 34320, Note_on_c, 0, 69, 80
1, 34559, Note_on_c, 0, 69, 0
1, 34560, Note_on_c, 0, 67, 80
1, 35039, Note_on_c, 0, 78, 0
1, 35040, Note_on_c, 0, 79, 80
1, 35280, Note_on_c, 0, 78, 80
1, 35280, Note_on_c, 0, 79, 0
1, 35520, Note_on_c, 0, 76, 80
1, 35520, Note_on_c, 0, 78, 0
1, 35999, Note_on_c, 0, 67, 0
1, 36000, Note_on_c, 0, 66, 80
1, 36239, Note_on_c, 0, 66, 0
1, 36240, Note_on_c, 0, 64, 80
1, 36479, Note_on_c, 0, 64, 0
1, 36480, Note_on_c, 0, 66, 80
1, 36959, Note_on_c, 0, 76, 0
1, 36960, Note_on_c, 0, 74, 80
1, 37200, Note_on_c, 0, 73, 80
1, 37200, Note_on_c, 0, 74, 0
1, 37439, Note_on_c, 0, 66, 0
1, 37440, Note_on_c, 0, 74, 80
1, 37440, Note_on_c, 0, 73, 0
1, 38400, Note_on_c, 0, 67, 80
1, 38400, Note_on_c, 0, 74, 0
1, 39360, Note_on_c, 0, 76, 80
1, 39839, Note_on_c, 0, 67, 0
1, 39840, Note_on_c, 0, 66, 80
1, 40079, Note_on_c, 0, 66, 0
1, 40080, Note_on_c, 0, 67, 80
1, 40319, Note_on_c, 0, 67, 0
1, 40320, Note_on_c, 0, 69, 80
1, 40799, Note_on_c, 0, 76, 0
1, 40800, Note_on_c, 0, 74, 80
1, 41040, Note_on_c, 0, 76, 80
1, 41040, Note_on_c, 0, 74, 0
1, 41280, Note_on_c, 0, 78, 80
1, 41280, Note_on_c, 0, 76, 0
1, 41759, Note_on_c, 0, 69, 0
1, 41760, Note_on_c, 0, 72, 80
1, 41999, Note_on_c, 0, 72, 0
1, 42000, Note_on_c, 0, 71, 80
1, 42239, Note_on_c, 0, 71, 0
1, 42240, Note_on_c, 0, 72, 80
1, 42719, Note_on_c, 0, 78, 0
1, 42720, Note_on_c, 0, 81, 80
1, 42960, Note_on_c, 0, 79, 80
1, 42960, Note_on_c, 0, 81, 0
1, 43200, Note_on_c, 0, 81, 80
1, 43200, Note_on_c, 0, 79, 0
1, 43439, Note_on_c, 0, 72, 0
1, 43440, Note_on_c, 0, 71, 80
1, 43679, Note_on_c, 0, 71, 0
1, 43680, Note_on_c, 0, 72, 80
1, 43919, Note_on_c, 0, 72, 0
1, 43920, Note_on_c, 0, 69, 80
1, 44159, Note_on_c, 0, 69, 0
1, 44160, Note_on_c, 0, 71, 80
1, 44399, Note_on_c, 0, 81, 0
1, 44400, Note_on_c, 0, 79, 80
1, 44640, Note_on_c, 0, 81, 80
1, 44640, Note_on_c, 0, 79, 0
1, 44880, Note_on_c, 0, 78, 80
1, 44880, Note_on_c, 0, 81, 0
1, 45119, Note_on_c, 0, 71, 0
1, 45120, Note_on_c, 0, 79, 80
1, 45120, Note_on_c, 0, 78, 0
1, 46080, Note_on_c, 0, 67, 80
1, 46080, Note_on_c, 0, 79, 0
1, 47040, Note_on_c, 0, 76, 80
1, 47999, Note_on_c, 0, 67, 0
1, 48000, Note_on_c, 0, 66, 80
1, 48000, Note_on_c, 0, 76, 0
1, 48960, Note_on_c, 0, 74, 80
1, 49439, Note_on_c, 0, 66, 0
1, 49440, Note_on_c, 0, 67, 80
1, 49679, Note_on_c, 0, 67, 0
1, 49680, Note_on_c, 0, 69, 80
1, 49919, Note_on_c, 0, 69, 0
1, 49920, Note_on_c, 0, 71, 80
1, 50399, Note_on_c, 0, 74, 0
1, 50400, Note_on_c, 0, 76, 80
1, 50640, Note_on_c, 0, 78, 80
1, 50640, Note_on_c, 0, 76, 0
1, 50880, Note_on_c, 0, 79, 80
1, 50880, Note_on_c, 0, 78, 0
1, 51119, Note_on_c, 0, 71, 0
1, 51120, Note_on_c, 0, 69, 80
1, 51359, Note_on_c, 0, 69, 0
1, 51360, Note_on_c, 0, 71, 80
1, 51599, Note_on_c, 0, 71, 0
1, 51600, Note_on_c, 0, 67, 80
1, 51839, Note_on_c, 0, 67, 0
1, 51840, Note_on_c, 0, 69, 80
1, 52079, Note_on_c, 0, 79, 0
1, 52080, Note_on_c, 0, 78, 80
1, 52320, Note_on_c, 0, 79, 80
1, 52320, Note_on_c, 0, 78, 0
1, 52560, Note_on_c, 0, 76, 80
1, 52560, Note_on_c, 0, 79, 0
1, 52800, Note_on_c, 0, 78, 80
1, 52800, Note_on_c, 0, 76, 0
1, 53279, Note_on_c, 0, 69, 0
1, 53280, Note_on_c, 0, 69, 80
1, 53759, Note_on_c, 0, 69, 0
1, 53760, Note_on_c, 0, 67, 80
1, 54239, Note_on_c, 0, 78, 0
1, 54240, Note_on_c, 0, 78, 80
1, 54720, Note_on_c, 0, 76, 80
1, 54720, Note_on_c, 0, 78, 0
1, 55199, Note_on_c, 0, 67, 0
1, 55200, Note_on_c, 0, 67, 80
1, 55679, Note_on_c, 0, 67, 0
1, 55680, Note_on_c, 0, 66, 80
1, 56159, Note_on_c, 0, 76, 0
1, 56160, Note_on_c, 0, 76, 80
1, 56640, Note_on_c, 0, 74, 80
1, 56640, Note_on_c, 0, 76, 0
1, 57119, Note_on_c, 0, 66, 0
1, 57120, Note_on_c, 0, 71, 80
1, 57599, Note_on_c, 0, 71, 0
1, 57600, Note_on_c, 0, 64, 80
1, 57839, Note_on_c, 0, 64, 0
1, 57840, Note_on_c, 0, 66, 80
1, 58079, Note_on_c, 0, 66, 0
1, 58079, Note_on_c, 0, 74, 0
1, 58080, Note_on_c, 0, 67, 80
1, 58080, Note_on_c, 0, 79, 80
1, 58560, Note_on_c, 0, 73, 80
1, 58560, Note_on_c, 0, 79, 0
1, 58800, Note_on_c, 0, 74, 80
1, 58800, Note_on_c, 0, 73, 0
1, 59040, Note_on_c, 0, 76, 80
1, 59040, Note_on_c, 0, 74, 0
1, 59519, Note_on_c, 0, 67, 0
1, 59520, Note_on_c, 0, 66, 80
1, 59520, Note_on_c, 0, 76, 0
1, 60480, Note_on_c, 0, 74, 80
1, 61439, Note_on_c, 0, 66, 0
1, 61440, Note_on_c, 0, 72, 80
1, 61440, Note_on_c, 0, 74, 0
1, 62400, Note_on_c, 0, 81, 80
1, 63359, Note_on_c, 0, 72, 0
1, 63360, Note_on_c, 0, 71, 80
1, 63360, Note_on_c, 0, 81, 0
1, 64320, Note_on_c, 0, 79, 80
1, 64799, Note_on_c, 0, 71, 0
1, 64800, Note_on_c, 0, 72, 80
1, 65039, Note_on_c, 0, 72, 0
1, 65040, Note_on_c, 0, 74, 80
1, 65279, Note_on_c, 0, 74, 0
1, 65280, Note_on_c, 0, 76, 80
1, 65759, Note_on_c, 0, 79, 0
1, 65760, Note_on_c, 0, 81, 80
1, 66000, Note_on_c, 0, 83, 80
1, 66000, Note_on_c, 0, 81, 0
1, 66240, Note_on_c, 0, 84, 80
1, 66240, Note_on_c, 0, 83, 0
1, 66479, Note_on_c, 0, 76, 0
1, 66480, Note_on_c, 0, 75, 80
1, 66719, Note_on_c, 0, 75, 0
1, 66720, Note_on_c, 0, 76, 80
1, 67199, Note_on_c, 0, 76, 0
1, 67200, Note_on_c, 0, 75, 80
1, 67439, Note_on_c, 0, 84, 0
1, 67440, Note_on_c, 0, 83, 80
1, 67680, Note_on_c, 0, 84, 80
1, 67680, Note_on_c, 0, 83, 0
1, 68159, Note_on_c, 0, 75, 0
1, 68160, Note_on_c, 0, 83, 80
1, 68160, Note_on_c, 0, 84, 0
1, 69120, Note_on_c, 0, 67, 80
1, 69120, Note_on_c, 0, 83, 0
1, 70080, Note_on_c, 0, 76, 80
1, 71039, Note_on_c, 0, 67, 0
1, 71040, Note_on_c, 0, 66, 80
1, 71040, Note_on_c, 0, 76, 0
1, 71519, Note_on_c, 0, 66, 0
1, 71520, Note_on_c, 0, 67, 80
1, 71999, Note_on_c, 0, 67, 0
1, 72000, Note_on_c, 0, 69, 80
1, 72000, Note_on_c, 0, 75, 80
1, 72480, Note_on_c, 0, 76, 80
1, 72480, Note_on_c, 0, 75, 0
1, 72960, Note_on_c, 0, 78, 80
1, 72960, Note_on_c, 0, 76, 0
1, 73439, Note_on_c, 0, 69, 0
1, 73440, Note_on_c, 0, 67, 80
1, 73679, Note_on_c, 0, 67, 0
1, 73680, Note_on_c, 0, 69, 80
1, 73919, Note_on_c, 0, 69, 0
1, 73920, Note_on_c, 0, 71, 80
1, 74399, Note_on_c, 0, 78, 0
1, 74400, Note_on_c, 0, 76, 80
1, 74640, Note_on_c, 0, 78, 80
1, 74640, Note_on_c, 0, 76, 0
1, 74880, Note_on_c, 0, 79, 80
1, 74880, Note_on_c, 0, 78, 0
1, 75119, Note_on_c, 0, 71, 0
1, 75120, Note_on_c, 0, 69, 80
1, 75359, Note_on_c, 0, 69, 0
1, 75360, Note_on_c, 0, 67, 80
1, 75599, Note_on_c, 0, 67, 0
1, 75600, Note_on_c, 0, 66, 80
1, 75839, Note_on_c, 0, 66, 0
1, 75840, Note_on_c, 0, 64, 80
1, 76079, Note_on_c, 0, 79, 0
1, 76080, Note_on_c, 0, 78, 80
1, 76319, Note_on_c, 0, 64, 0
1, 76320, Note_on_c, 0, 76, 80
1, 76320, Note_on_c, 0, 78, 0
1, 76560, Note_on_c, 0, 74, 80
1, 76560, Note_on_c, 0, 76, 0
1, 76800, Note_on_c, 0, 72, 80
1, 76800, Note_on_c, 0, 72, 80
1, 76800, Note_on_c, 0, 74, 0
1, 77280, Note_on_c, 0, 72, 0
1, 77760, Note_on_c, 0, 81, 80
1, 78719, Note_on_c, 0, 72, 0
1, 78720, Note_on_c, 0, 71, 80
1, 78720, Note_on_c, 0, 81, 0
1, 79680, Note_on_c, 0, 79, 80
1, 80159, Note_on_c, 0, 71, 0
1, 80160, Note_on_c, 0, 72, 80
1, 80399, Note_on_c, 0, 72, 0
1, 80400, Note_on_c, 0, 74, 80
1, 80639, Note_on_c, 0, 74, 0
1, 80640, Note_on_c, 0, 76, 80
1, 81119, Note_on_c, 0, 79, 0
1, 81120, Note_on_c, 0, 81, 80
1, 81360, Note_on_c, 0, 83, 80
1, 81360, Note_on_c, 0, 81, 0
1, 81600, Note_on_c, 0, 84, 80
1, 81600, Note_on_c, 0, 83, 0
1, 81839, Note_on_c, 0, 76, 0
1, 81840, Note_on_c, 0, 74, 80
1, 82079, Note_on_c, 0, 74, 0
1, 82080, Note_on_c, 0, 76, 80
1, 82319, Note_on_c, 0, 76, 0
1, 82320, Note_on_c, 0, 72, 80
1, 82559, Note_on_c, 0, 72, 0
1, 82560, Note_on_c, 0, 74, 80
1, 82799, Note_on_c, 0, 84, 0
1, 82800, Note_on_c, 0, 83, 80
1, 83040, Note_on_c, 0, 84, 80
1, 83040, Note_on_c, 0, 83, 0
1, 83280, Note_on_c, 0, 81, 80
1, 83280, Note_on_c, 0, 84, 0
1, 83520, Note_on_c, 0, 83, 80
1, 83520, Note_on_c, 0, 81, 0
1, 83999, Note_on_c, 0, 74, 0
1, 84000, Note_on_c, 0, 74, 80
1, 84479, Note_on_c, 0, 74, 0
1, 84480, Note_on_c, 0, 72, 80
1, 84959, Note_on_c, 0, 83, 0
1, 84960, Note_on_c, 0, 83, 80
1, 85440, Note_on_c, 0, 81, 80
1, 85440, Note_on_c, 0, 83, 0
1, 85919, Note_on_c, 0, 72, 0
1, 85920, Note_on_c, 0, 72, 80
1, 86399, Note_on_c, 0, 72, 0
1, 86400, Note_on_c, 0, 71, 80
1, 86879, Note_on_c, 0, 81, 0
1, 86880, Note_on_c, 0, 81, 80
1, 87360, Note_on_c, 0, 79, 80
1, 87360, Note_on_c, 0, 81, 0
1, 87839, Note_on_c, 0, 71, 0
1, 87840, Note_on_c, 0, 76, 80
1, 88319, Note_on_c, 0, 76, 0
1, 88320, Note_on_c, 0, 69, 80
1, 88559, Note_on_c, 0, 69, 0
1, 88560, Note_on_c, 0, 71, 80
1, 88799, Note_on_c, 0, 71, 0
1, 88799, Note_on_c, 0, 79, 0
1, 88800, Note_on_c, 0, 72, 80
1, 88800, Note_on_c, 0, 84, 80
1, 89280, Note_on_c, 0, 78, 80
1, 89280, Note_on_c, 0, 84, 0
1, 89520, Note_on_c, 0, 79, 80
1, 89520, Note_on_c, 0, 78, 0
1, 89760, Note_on_c, 0, 81, 80
1, 89760, Note_on_c, 0, 79, 0
1, 90239, Note_on_c, 0, 72, 0
1, 90240, Note_on_c, 0, 71, 80
1, 90240, Note_on_c, 0, 81, 0
1, 91200, Note_on_c, 0, 79, 80
1, 92159, Note_on_c, 0, 71, 0
1, 92160, Note_on_c, 0, 72, 80
1, 92160, Note_on_c, 0, 79, 0
1, 93120, Note_on_c, 0, 81, 80
1, 94079, Note_on_c, 0, 72, 0
1, 94080, Note_on_c, 0, 71, 80
1, 94080, Note_on_c, 0, 81, 0
1, 95040, Note_on_c, 0, 79, 80
1, 95519, Note_on_c, 0, 71, 0
1, 95520, Note_on_c, 0, 72, 80
1, 95759, Note_on_c, 0, 72, 0
1, 95760, Note_on_c, 0, 74, 80
1, 95999, Note_on_c, 0, 74, 0
1, 96000, Note_on_c, 0, 76, 80
1, 96479, Note_on_c, 0, 79, 0
1, 96480, Note_on_c, 0, 81, 80
1, 96720, Note_on_c, 0, 83, 80
1, 96720, Note_on_c, 0, 81, 0
1, 96960, Note_on_c, 0, 84, 80
1, 96960, Note_on_c, 0, 83, 0
1, 97199, Note_on_c, 0, 76, 0
1, 97200, Note_on_c, 0, 75, 80
1, 97439, Note_on_c, 0, 75, 0
1, 97440, Note_on_c, 0, 76, 80
1, 97919, Note_on_c, 0, 76, 0
1, 97920, Note_on_c, 0, 75, 80
1, 98159, Note_on_c, 0, 84, 0
1, 98160, Note_on_c, 0, 83, 80
1, 98400, Note_on_c, 0, 84, 80
1, 98400, Note_on_c, 0, 83, 0
1, 98879, Note_on_c, 0, 75, 0
1, 98880, Note_on_c, 0, 83, 80
1, 98880, Note_on_c, 0, 84, 0
1, 99840, Note_on_c, 0, 67, 80
1, 99840, Note_on_c, 0, 83, 0
1, 100800, Note_on_c, 0, 76, 80
1, 101759, Note_on_c, 0, 67, 0
1, 101760, Note_on_c, 0, 66, 80
1, 101760, Note_on_c, 0, 76, 0
1, 102239, Note_on_c, 0, 66, 0
1, 102240, Note_on_c, 0, 67, 80
1, 102719, Note_on_c, 0, 67, 0
1, 102720, Note_on_c, 0, 69, 80
1, 102720, Note_on_c, 0, 75, 80
1, 103200, Note_on_c, 0, 76, 80
1, 103200, Note_on_c, 0, 75, 0
1, 103680, Note_on_c, 0, 78, 80
1, 103680, Note_on_c, 0, 76, 0
1, 104159, Note_on_c, 0, 69, 0
1, 104160, Note_on_c, 0, 67, 80
1, 104399, Note_on_c, 0, 67, 0
1, 104400, Note_on_c, 0, 69, 80
1, 104639, Note_on_c, 0, 69, 0
1, 104640, Note_on_c, 0, 71, 80
1, 105119, Note_on_c, 0, 78, 0
1, 105120, Note_on_c, 0, 76, 80
1, 105360, Note_on_c, 0, 78, 80
1, 105360, Note_on_c, 0, 76, 0
1, 105600, Note_on_c, 0, 79, 80
1, 105600, Note_on_c, 0, 78, 0
1, 105839, Note_on_c, 0, 71, 0
1, 105840, Note_on_c, 0, 69, 80
1, 106079, Note_on_c, 0, 69, 0
1, 106080, Note_on_c, 0, 67, 80
1, 106319, Note_on_c, 0, 67, 0
1, 106320, Note_on_c, 0, 66, 80
1, 106559, Note_on_c, 0, 66, 0
1, 106560, Note_on_c, 0, 64, 80
1, 106799, Note_on_c, 0, 79, 0
1, 106800, Note_on_c, 0, 78, 80
1, 107039, Note_on_c, 0, 64, 0
1, 107040, Note_on_c, 0, 76, 80
1, 107040, Note_on_c, 0, 78, 0
1, 107280, Note_on_c, 0, 74, 80
1, 107280, Note_on_c, 0, 76, 0
1, 107520, Note_on_c, 0, 72, 80
1, 107520, Note_on_c, 0, 72, 80
1, 107520, Note_on_c, 0, 74, 0
1, 108000, Note_on_c, 0, 72, 0
1, 108480, Note_on_c, 0, 81, 80
1, 109439, Note_on_c, 0, 72, 0
1, 109440, Note_on_c, 0, 71, 80
1, 109440, Note_on_c, 0, 81, 0
1, 110400, Note_on_c, 0, 79, 80
1, 110879, Note_on_c, 0, 71, 0
1, 110880, Note_on_c, 0, 72, 80
1, 111119, Note_on_c, 0, 72, 0
1, 111120, Note_on_c, 0, 74, 80
1, 111359, Note_on_c, 0, 74, 0
1, 111360, Note_on_c, 0, 76, 80
1, 111839, Note_on_c, 0, 79, 0
1, 111840, Note_on_c, 0, 81, 80
1, 112080, Note_on_c, 0, 83, 80
1, 112080, Note_on_c, 0, 81, 0
1, 112320, Note_on_c, 0, 84, 80
1, 112320, Note_on_c, 0, 83, 0
1, 112559, Note_on_c, 0, 76, 0
1, 112560, Note_on_c, 0, 74, 80
1, 112799, Note_on_c, 0, 74, 0
1, 112800, Note_on_c, 0, 76, 80
1, 113039, Note_on_c, 0, 76, 0
1, 113040, Note_on_c, 0, 72, 80
1, 113279, Note_on_c, 0, 72, 0
1, 113280, Note_on_c, 0, 74, 80
1, 113519, Note_on_c, 0, 84, 0
1, 113520, Note_on_c, 0, 83, 80
1, 113760, Note_on_c, 0, 84, 80
1, 113760, Note_on_c, 0, 83, 0
1, 114000, Note_on_c, 0, 81, 80
1, 114000, Note_on_c, 0, 84, 0
1, 114240, Note_on_c, 0, 83, 80
1, 114240, Note_on_c, 0, 81, 0
1, 114719, Note_on_c, 0, 74, 0
1, 114720, Note_on_c, 0, 74, 80
1, 115199, Note_on_c, 0, 74, 0
1, 115200, Note_on_c, 0, 72, 80
1, 115679, Note_on_c, 0, 83, 0
1, 115680, Note_on_c, 0, 83, 80
1, 116160, Note_on_c, 0, 81, 80
1, 116160, Note_on_c, 0, 83, 0
1, 116639, Note_on_c, 0, 72, 0
1, 116640, Note_on_c, 0, 72, 80
1, 117119, Note_on_c, 0, 72, 0
1, 117120, Note_on_c, 0, 71, 80
1, 117599, Note_on_c, 0, 81, 0
1, 117600, Note_on_c, 0, 81, 80
1, 118080, Note_on_c, 0, 79, 80
1, 118080, Note_on_c, 0, 81, 0
1, 118559, Note_on_c, 0, 71, 0
1, 118560, Note_on_c, 0, 76, 80
1, 119039, Note_on_c, 0, 76, 0
1, 119040, Note_on_c, 0, 69, 80
1, 119279, Note_on_c, 0, 69, 0
1, 119280, Note_on_c, 0, 71, 80
1, 119519, Note_on_c, 0, 71, 0
1, 119519, Note_on_c, 0, 79, 0
1, 119520, Note_on_c, 0, 72, 80
1, 119520, Note_on_c, 0, 84, 80
1, 120000, Note_on_c, 0, 78, 80
1, 120000, Note_on_c, 0, 84, 0
1, 120240, Note_on_c, 0, 79, 80
1, 120240, Note_on_c, 0, 78, 0
1, 120480, Note_on_c, 0, 81, 80
1, 120480, Note_on_c, 0, 79, 0
1, 120959, Note_on_c, 0, 72, 0
1, 120960, Note_on_c, 0, 71, 80
1, 120960, Note_on_c, 0, 81, 0
1, 121920, Note_on_c, 0, 79, 80
1, 122879, Note_on_c, 0, 71, 0
1, 122880, Note_on_c, 0, 79, 0
1, 122881, End_track
2, 0, Start_track
2, 0, Key_signature, 1, "major"
2, 480, Note_on_c, 0, 55, 80
2, 720, Note_on_c, 0, 57, 80
2, 720, Note_on_c, 0, 55, 0
2, 960, Note_on_c, 0, 59, 80
2, 960, Note_on_c, 0, 57, 0
2, 1440, Note_on_c, 0, 60, 80
2, 1440, Note_on_c, 0, 59, 0
2, 1920, Note_on_c, 0, 62, 80
2, 1920, Note_on_c, 0, 60, 0
2, 2400, Note_on_c, 0, 50, 80
2, 2400, Note_on_c, 0, 62, 0
2, 2880, Note_on_c, 0, 62, 80
2, 2880, Note_on_c, 0, 50, 0
2, 3840, Note_on_c, 0, 62, 0
2, 4320, Note_on_c, 0, 64, 80
2, 4560, Note_on_c, 0, 62, 80
2, 4560, Note_on_c, 0, 64, 0
2, 4800, Note_on_c, 0, 61, 80
2, 4800, Note_on_c, 0, 62, 0
2, 5280, Note_on_c, 0, 57, 80
2, 5280, Note_on_c, 0, 61, 0
2, 5760, Note_on_c, 0, 62, 80
2, 5760, Note_on_c, 0, 57, 0
2, 6240, Note_on_c, 0, 50, 80
2, 6240, Note_on_c, 0, 62, 0
2, 6720, Note_on_c, 0, 62, 80
2, 6720, Note_on_c, 0, 50, 0
2, 7200, Note_on_c, 0, 60, 80
2, 7200, Note_on_c, 0, 62, 0
2, 7680, Note_on_c, 0, 59, 80
2, 7680, Note_on_c, 0, 60, 0
2, 8160, Note_on_c, 0, 57, 80
2, 8160, Note_on_c, 0, 59, 0
2, 8400, Note_on_c, 0, 59, 80
2, 8400, Note_on_c, 0, 57, 0
2, 8640, Note_on_c, 0, 60, 80
2, 8640, Note_on_c, 0, 59, 0
2, 9120, Note_on_c, 0, 48, 80
2, 9120, Note_on_c, 0, 60, 0
2, 9600, Note_on_c, 0, 60, 80
2, 9600, Note_on_c, 0, 48, 0
2, 10080, Note_on_c, 0, 59, 80
2, 10080, Note_on_c, 0, 60, 0
2, 10320, Note_on_c, 0, 60, 80
2, 10320, Note_on_c, 0, 59, 0
2, 10560, Note_on_c, 0, 62, 80
2, 10560, Note_on_c, 0, 60, 0
2, 11040, Note_on_c, 0, 57, 80
2, 11040, Note_on_c, 0, 62, 0
2, 11520, Note_on_c, 0, 50, 80
2, 11520, Note_on_c, 0, 57, 0
2, 12000, Note_on_c, 0, 54, 80
2, 12000, Note_on_c, 0, 50, 0
2, 12240, Note_on_c, 0, 52, 80
2, 12240, Note_on_c, 0, 54, 0
2, 12480, Note_on_c, 0, 54, 80
2, 12480, Note_on_c, 0, 52, 0
2, 12960, Note_on_c, 0, 50, 80
2, 12960, Note_on_c, 0, 54, 0
2, 13440, Note_on_c, 0, 55, 80
2, 13440, Note_on_c, 0, 50, 0
2, 13920, Note_on_c, 0, 50, 80
2, 13920, Note_on_c, 0, 55, 0
2, 14400, Note_on_c, 0, 43, 80
2, 14400, Note_on_c, 0, 50, 0
2, 14880, Note_on_c, 0, 55, 80
2, 14880, Note_on_c, 0, 43, 0
2, 15120, Note_on_c, 0, 57, 80
2, 15120, Note_on_c, 0, 55, 0
2, 15360, Note_on_c, 0, 59, 80
2, 15360, Note_on_c, 0, 57, 0
2, 15840, Note_on_c, 0, 57, 80
2, 15840, Note_on_c, 0, 59, 0
2, 16080, Note_on_c, 0, 59, 80
2, 16080, Note_on_c, 0, 57, 0
2, 16320, Note_on_c, 0, 61, 80
2, 16320, Note_on_c, 0, 59, 0
2, 16800, Note_on_c, 0, 59, 80
2, 16800, Note_on_c, 0, 61, 0
2, 17040, Note_on_c, 0, 61, 80
2, 17040, Note_on_c, 0, 59, 0
2, 17280, Note_on_c, 0, 62, 80
2, 17280, Note_on_c, 0, 61, 0
2, 17760, Note_on_c, 0, 61, 80
2, 17760, Note_on_c, 0, 62, 0
2, 18240, Note_on_c, 0, 59, 80
2, 18240, Note_on_c, 0, 61, 0
2, 18720, Note_on_c, 0, 57, 80
2, 18720, Note_on_c, 0, 59, 0
2, 19200, Note_on_c, 0, 55, 80
2, 19200, Note_on_c, 0, 57, 0
2, 19680, Note_on_c, 0, 54, 80
2, 19680, Note_on_c, 0, 55, 0
2, 20160, Note_on_c, 0, 52, 80
2, 20160, Note_on_c, 0, 54, 0
2, 20640, Note_on_c, 0, 50, 80
2, 20640, Note_on_c, 0, 52, 0
2, 21120, Note_on_c, 0, 49, 80
2, 21120, Note_on_c, 0, 50, 0
2, 21600, Note_on_c, 0, 47, 80
2, 21600, Note_on_c, 0, 49, 0
2, 21840, Note_on_c, 0, 49, 80
2, 21840, Note_on_c, 0, 47, 0
2, 22080, Note_on_c, 0, 50, 80
2, 22080, Note_on_c, 0, 49, 0
2, 22560, Note_on_c, 0, 49, 80
2, 22560, Note_on_c, 0, 50, 0
2, 22800, Note_on_c, 0, 50, 80
2, 22800, Note_on_c, 0, 49, 0
2, 23040, Note_on_c, 0, 47, 80
2, 23040, Note_on_c, 0, 50, 0
2, 23520, Note_on_c, 0, 45, 80
2, 23520, Note_on_c, 0, 47, 0
2, 23760, Note_on_c, 0, 47, 80
2, 23760, Note_on_c, 0, 45, 0
2, 24000, Note_on_c, 0, 49, 80
2, 24000, Note_on_c, 0, 47, 0
2, 24480, Note_on_c, 0, 47, 80
2, 24480, Note_on_c, 0, 49, 0
2, 24720, Note_on_c, 0, 49, 80
2, 24720, Note_on_c, 0, 47, 0
2, 24960, Note_on_c, 0, 46, 80
2, 24960, Note_on_c, 0, 49, 0
2, 25440, Note_on_c, 0, 44, 80
2, 25440, Note_on_c, 0, 46, 0
2, 25680, Note_on_c, 0, 46, 80
2, 25680, Note_on_c, 0, 44, 0
2, 25920, Note_on_c, 0, 47, 80
2, 25920, Note_on_c, 0, 46, 0
2, 26160, Note_on_c, 0, 45, 80
2, 26160, Note_on_c, 0, 47, 0
2, 26400, Note_on_c, 0, 43, 80
2, 26400, Note_on_c, 0, 45, 0
2, 26640, Note_on_c, 0, 42, 80
2, 26640, Note_on_c, 0, 43, 0
2, 26880, Note_on_c, 0, 43, 80
2, 26880, Note_on_c, 0, 42, 0
2, 27360, Note_on_c, 0, 40, 80
2, 27360, Note_on_c, 0, 43, 0
2, 27840, Note_on_c, 0, 45, 80
2, 27840, Note_on_c, 0, 40, 0
2, 28320, Note_on_c, 0, 33, 80
2, 28320, Note_on_c, 0, 45, 0
2, 28800, Note_on_c, 0, 38, 80
2, 28800, Note_on_c, 0, 33, 0
2, 29280, Note_on_c, 0, 45, 80
2, 29280, Note_on_c, 0, 38, 0
2, 29760, Note_on_c, 0, 50, 80
2, 29760, Note_on_c, 0, 45, 0
2, 30720, Note_on_c, 0, 50, 0
2, 31200, Note_on_c, 0, 55, 80
2, 31440, Note_on_c, 0, 57, 80
2, 31440, Note_on_c, 0, 55, 0
2, 31680, Note_on_c, 0, 59, 80
2, 31680, Note_on_c, 0, 57, 0
2, 32160, Note_on_c, 0, 60, 80
2, 32160, Note_on_c, 0, 59, 0
2, 32640, Note_on_c, 0, 62, 80
2, 32640, Note_on_c, 0, 60, 0
2, 33120, Note_on_c, 0, 50, 80
2, 33120, Note_on_c, 0, 62, 0
2, 33600, Note_on_c, 0, 62, 80
2, 33600, Note_on_c, 0, 50, 0
2, 34560, Note_on_c, 0, 62, 0
2, 35040, Note_on_c, 0, 64, 80
2, 35280, Note_on_c, 0, 62, 80
2, 35280, Note_on_c, 0, 64, 0
2, 35520, Note_on_c, 0, 61, 80
2, 35520, Note_on_c, 0, 62, 0
2, 36000, Note_on_c, 0, 57, 80
2, 36000, Note_on_c, 0, 61, 0
2, 36480, Note_on_c, 0, 62, 80
2, 36480, Note_on_c, 0, 57, 0
2, 36960, Note_on_c, 0, 50, 80
2, 36960, Note_on_c, 0, 62, 0
2, 37440, Note_on_c, 0, 62, 80
2, 37440, Note_on_c, 0, 50, 0
2, 37920, Note_on_c, 0, 60, 80
2, 37920, Note_on_c, 0, 62, 0
2, 38400, Note_on_c, 0, 59, 80
2, 38400, Note_on_c, 0, 60, 0
2, 38880, Note_on_c, 0, 57, 80
2, 38880, Note_on_c, 0, 59, 0
2, 39120, Note_on_c, 0, 59, 80
2, 39120, Note_on_c, 0, 57, 0
2, 39360, Note_on_c, 0, 60, 80
2, 39360, Note_on_c, 0, 59, 0
2, 39840, Note_on_c, 0, 48, 80
2, 39840, Note_on_c, 0, 60, 0
2, 40320, Note_on_c, 0, 60, 80
2, 40320, Note_on_c, 0, 48, 0
2, 40800, Note_on_c, 0, 59, 80
2, 40800, Note_on_c, 0, 60, 0
2, 41040, Note_on_c, 0, 60, 80
2, 41040, Note_on_c, 0, 59, 0
2, 41280, Note_on_c, 0, 62, 80
2, 41280, Note_on_c, 0, 60, 0
2, 41760, Note_on_c, 0, 57, 80
2, 41760, Note_on_c, 0, 62, 0
2, 42240, Note_on_c, 0, 50, 80
2, 42240, Note_on_c, 0, 57, 0
2, 42720, Note_on_c, 0, 54, 80
2, 42720, Note_on_c, 0, 50, 0
2, 42960, Note_on_c, 0, 52, 80
2, 42960, Note_on_c, 0, 54, 0
2, 43200, Note_on_c, 0, 54, 80
2, 43200, Note_on_c, 0, 52, 0
2, 43680, Note_on_c, 0, 50, 80
2, 43680, Note_on_c, 0, 54, 0
2, 44160, Note_on_c, 0, 55, 80
2, 44160, Note_on_c, 0, 50, 0
2, 44640, Note_on_c, 0, 50, 80
2, 44640, Note_on_c, 0, 55, 0
2, 45120, Note_on_c, 0, 43, 80
2, 45120, Note_on_c, 0, 50, 0
2, 45600, Note_on_c, 0, 55, 80
2, 45600, Note_on_c, 0, 43, 0
2, 45840, Note_on_c, 0, 57, 80
2, 45840, Note_on_c, 0, 55, 0
2, 46080, Note_on_c, 0, 59, 80
2, 46080, Note_on_c, 0, 57, 0
2, 46560, Note_on_c, 0, 57, 80
2, 46560, Note_on_c, 0, 59, 0
2, 46800, Note_on_c, 0, 59, 80
2, 46800, Note_on_c, 0, 57, 0
2, 47040, Note_on_c, 0, 61, 80
2, 47040, Note_on_c, 0, 59, 0
2, 47520, Note_on_c, 0, 59, 80
2, 47520, Note_on_c, 0, 61, 0
2, 47760, Note_on_c, 0, 61, 80
2, 47760, Note_on_c, 0, 59, 0
2, 48000, Note_on_c, 0, 62, 80
2, 48000, Note_on_c, 0, 61, 0
2, 48480, Note_on_c, 0, 61, 80
2, 48480, Note_on_c, 0, 62, 0
2, 48960, Note_on_c, 0, 59, 80
2, 48960, Note_on_c, 0, 61, 0
2, 49440, Note_on_c, 0, 57, 80
2, 49440, Note_on_c, 0, 59, 0
2, 49920, Note_on_c, 0, 55, 80
2, 49920, Note_on_c, 0, 57, 0
2, 50400, Note_on_c, 0, 54, 80
2, 50400, Note_on_c, 0, 55, 0
2, 50880, Note_on_c, 0, 52, 80
2, 50880, Note_on_c, 0, 54, 0
2, 51360, Note_on_c, 0, 50, 80
2, 51360, Note_on_c, 0, 52, 0
2, 51840, Note_on_c, 0, 49, 80
2, 51840, Note_on_c, 0, 50, 0
2, 52320, Note_on_c, 0, 47, 80
2, 52320, Note_on_c, 0, 49, 0
2, 52560, Note_on_c, 0, 49, 80
2, 52560, Note_on_c, 0, 47, 0
2, 52800, Note_on_c, 0, 50, 80
2, 52800, Note_on_c, 0, 49, 0
2, 53280, Note_on_c, 0, 49, 80
2, 53280, Note_on_c, 0, 50, 0
2, 53520, Note_on_c, 0, 50, 80
2, 53520, Note_on_c, 0, 49, 0
2, 53760, Note_on_c, 0, 47, 80
2, 53760, Note_on_c, 0, 50, 0
2, 54240, Note_on_c, 0, 45, 80
2, 54240, Note_on_c, 0, 47, 0
2, 54480, Note_on_c, 0, 47, 80
2, 54480, Note_on_c, 0, 45, 0
2, 54720, Note_on_c, 0, 49, 80
2, 54720, Note_on_c, 0, 47, 0
2, 55200, Note_on_c, 0, 47, 80
2, 55200, Note_on_c, 0, 49, 0
2, 55440, Note_on_c, 0, 49, 80
2, 55440, Note_on_c, 0, 47, 0
2, 55680, Note_on_c, 0, 46, 80
2, 55680, Note_on_c, 0, 49, 0
2, 56160, Note_on_c, 0, 44, 80
2, 56160, Note_on_c, 0, 46, 0
2, 56400, Note_on_c, 0, 46, 80
2, 56400, Note_on_c, 0, 44, 0
2, 56640, Note_on_c, 0, 47, 80
2, 56640, Note_on_c, 0, 46, 0
2, 56880, Note_on_c, 0, 45, 80
2, 56880, Note_on_c, 0, 47, 0
2, 57120, Note_on_c, 0, 43, 80
2, 57120, Note_on_c, 0, 45, 0
2, 57360, Note_on_c, 0, 42, 80
2, 57360, Note_on_c, 0, 43, 0
2, 57600, Note_on_c, 0, 43, 80
2, 57600, Note_on_c, 0, 42, 0
2, 58080, Note_on_c, 0, 40, 80
2, 58080, Note_on_c, 0, 43, 0
2, 58560, Note_on_c, 0, 45, 80
2, 58560, Note_on_c, 0, 40, 0
2, 59040, Note_on_c, 0, 33, 80
2, 59040, Note_on_c, 0, 45, 0
2, 59520, Note_on_c, 0, 38, 80
2, 59520, Note_on_c, 0, 33, 0
2, 60000, Note_on_c, 0, 45, 80
2, 60000, Note_on_c, 0, 38, 0
2, 60480, Note_on_c, 0, 50, 80
2, 60480, Note_on_c, 0, 45, 0
2, 61440, Note_on_c, 0, 50, 0
2, 61920, Note_on_c, 0, 50, 80
2, 62160, Note_on_c, 0, 52, 80
2, 62160, Note_on_c, 0, 50, 0
2, 62400, Note_on_c, 0, 54, 80
2, 62400, Note_on_c, 0, 52, 0
2, 62880, Note_on_c, 0, 50, 80
2, 62880, Note_on_c, 0, 54, 0
2, 63360, Note_on_c, 0, 55, 80
2, 63360, Note_on_c, 0, 50, 0
2, 63840, Note_on_c, 0, 43, 80
2, 63840, Note_on_c, 0, 55, 0
2, 64320, Note_on_c, 0, 55, 80
2, 64320, Note_on_c, 0, 43, 0
2, 64800, Note_on_c, 0, 57, 80
2, 64800, Note_on_c, 0, 55, 0
2, 65040, Note_on_c, 0, 59, 80
2, 65040, Note_on_c, 0, 57, 0
2, 65280, Note_on_c, 0, 60, 80
2, 65280, Note_on_c, 0, 59, 0
2, 65760, Note_on_c, 0, 59, 80
2, 65760, Note_on_c, 0, 60, 0
2, 66240, Note_on_c, 0, 57, 80
2, 66240, Note_on_c, 0, 59, 0
2, 66720, Note_on_c, 0, 55, 80
2, 66720, Note_on_c, 0, 57, 0
2, 66960, Note_on_c, 0, 57, 80
2, 66960, Note_on_c, 0, 55, 0
2, 67200, Note_on_c, 0, 59, 80
2, 67200, Note_on_c, 0, 57, 0
2, 67919, Note_on_c, 0, 59, 0
2, 67920, Note_on_c, 0, 57, 80
2, 68160, Note_on_c, 0, 55, 80
2, 68160, Note_on_c, 0, 57, 0
2, 68400, Note_on_c, 0, 54, 80
2, 68400, Note_on_c, 0, 55, 0
2, 68640, Note_on_c, 0, 52, 80
2, 68640, Note_on_c, 0, 54, 0
2, 68880, Note_on_c, 0, 51, 80
2, 68880, Note_on_c, 0, 52, 0
2, 69120, Note_on_c, 0, 52, 80
2, 69120, Note_on_c, 0, 51, 0
2, 69600, Note_on_c, 0, 64, 80
2, 69600, Note_on_c, 0, 52, 0
2, 69840, Note_on_c, 0, 62, 80
2, 69840, Note_on_c, 0, 64, 0
2, 70080, Note_on_c, 0, 60, 80
2, 70080, Note_on_c, 0, 62, 0
2, 70560, Note_on_c, 0, 59, 80
2, 70560, Note_on_c, 0, 60, 0
2, 71040, Note_on_c, 0, 57, 80
2, 71040, Note_on_c, 0, 59, 0
2, 71520, Note_on_c, 0, 59, 80
2, 71520, Note_on_c, 0, 57, 0
2, 71760, Note_on_c, 0, 60, 80
2, 71760, Note_on_c, 0, 59, 0
2, 72000, Note_on_c, 0, 54, 80
2, 72000, Note_on_c, 0, 60, 0
2, 72480, Note_on_c, 0, 55, 80
2, 72480, Note_on_c, 0, 54, 0
2, 72720, Note_on_c, 0, 57, 80
2, 72720, Note_on_c, 0, 55, 0
2, 72960, Note_on_c, 0, 51, 80
2, 72960, Note_on_c, 0, 57, 0
2, 73440, Note_on_c, 0, 52, 80
2, 73440, Note_on_c, 0, 51, 0
2, 73680, Note_on_c, 0, 54, 80
2, 73680, Note_on_c, 0, 52, 0
2, 73920, Note_on_c, 0, 47, 80
2, 73920, Note_on_c, 0, 54, 0
2, 74400, Note_on_c, 0, 49, 80
2, 74400, Note_on_c, 0, 47, 0
2, 74640, Note_on_c, 0, 51, 80
2, 74640, Note_on_c, 0, 49, 0
2, 74880, Note_on_c, 0, 52, 80
2, 74880, Note_on_c, 0, 51, 0
2, 75360, Note_on_c, 0, 64, 80
2, 75360, Note_on_c, 0, 52, 0
2, 75600, Note_on_c, 0, 63, 80
2, 75600, Note_on_c, 0, 64, 0
2, 75840, Note_on_c, 0, 64, 80
2, 75840, Note_on_c, 0, 63, 0
2, 76320, Note_on_c, 0, 66, 80
2, 76320, Note_on_c, 0, 64, 0
2, 76560, Note_on_c, 0, 67, 80
2, 76560, Note_on_c, 0, 66, 0
2, 76800, Note_on_c, 0, 69, 80
2, 76800, Note_on_c, 0, 67, 0
2, 77280, Note_on_c, 0, 67, 80
2, 77280, Note_on_c, 0, 69, 0
2, 77520, Note_on_c, 0, 69, 80
2, 77520, Note_on_c, 0, 67, 0
2, 77760, Note_on_c, 0, 66, 80
2, 77760, Note_on_c, 0, 69, 0
2, 78240, Note_on_c, 0, 64, 80
2, 78240, Note_on_c, 0, 66, 0
2, 78480, Note_on_c, 0, 66, 80
2, 78480, Note_on_c, 0, 64, 0
2, 78720, Note_on_c, 0, 67, 80
2, 78720, Note_on_c, 0, 66, 0
2, 79200, Note_on_c, 0, 66, 80
2, 79200, Note_on_c, 0, 67, 0
2, 79680, Note_on_c, 0, 64, 80
2, 79680, Note_on_c, 0, 66, 0
2, 80160, Note_on_c, 0, 62, 80
2, 80160, Note_on_c, 0, 64, 0
2, 80640, Note_on_c, 0, 60, 80
2, 80640, Note_on_c, 0, 62, 0
2, 81120, Note_on_c, 0, 59, 80
2, 81120, Note_on_c, 0, 60, 0
2, 81600, Note_on_c, 0, 57, 80
2, 81600, Note_on_c, 0, 59, 0
2, 82080, Note_on_c, 0, 55, 80
2, 82080, Note_on_c, 0, 57, 0
2, 82560, Note_on_c, 0, 54, 80
2, 82560, Note_on_c, 0, 55, 0
2, 83040, Note_on_c, 0, 52, 80
2, 83040, Note_on_c, 0, 54, 0
2, 83280, Note_on_c, 0, 54, 80
2, 83280, Note_on_c, 0, 52, 0
2, 83520, Note_on_c, 0, 55, 80
2, 83520, Note_on_c, 0, 54, 0
2, 84000, Note_on_c, 0, 54, 80
2, 84000, Note_on_c, 0, 55, 0
2, 84240, Note_on_c, 0, 55, 80
2, 84240, Note_on_c, 0, 54, 0
2, 84480, Note_on_c, 0, 52, 80
2, 84480, Note_on_c, 0, 55, 0
2, 84960, Note_on_c, 0, 50, 80
2, 84960, Note_on_c, 0, 52, 0
2, 85200, Note_on_c, 0, 52, 80
2, 85200, Note_on_c, 0, 50, 0
2, 85440, Note_on_c, 0, 54, 80
2, 85440, Note_on_c, 0, 52, 0
2, 85920, Note_on_c, 0, 52, 80
2, 85920, Note_on_c, 0, 54, 0
2, 86160, Note_on_c, 0, 54, 80
2, 86160, Note_on_c, 0, 52, 0
2, 86400, Note_on_c, 0, 51, 80
2, 86400, Note_on_c, 0, 54, 0
2, 86880, Note_on_c, 0, 49, 80
2, 86880, Note_on_c, 0, 51, 0
2, 87120, Note_on_c, 0, 51, 80
2, 87120, Note_on_c, 0, 49, 0
2, 87360, Note_on_c, 0, 52, 80
2, 87360, Note_on_c, 0, 51, 0
2, 87600, Note_on_c, 0, 50, 80
2, 87600, Note_on_c, 0, 52, 0
2, 87840, Note_on_c, 0, 48, 80
2, 87840, Note_on_c, 0, 50, 0
2, 88080, Note_on_c, 0, 47, 80
2, 88080, Note_on_c, 0, 48, 0
2, 88320, Note_on_c, 0, 48, 80
2, 88320, Note_on_c, 0, 47, 0
2, 88800, Note_on_c, 0, 45, 80
2, 88800, Note_on_c, 0, 48, 0
2, 89280, Note_on_c, 0, 50, 80
2, 89280, Note_on_c, 0, 45, 0
2, 89760, Note_on_c, 0, 38, 80
2, 89760, Note_on_c, 0, 50, 0
2, 90240, Note_on_c, 0, 43, 80
2, 90240, Note_on_c, 0, 38, 0
2, 90720, Note_on_c, 0, 50, 80
2, 90720, Note_on_c, 0, 43, 0
2, 91200, Note_on_c, 0, 55, 80
2, 91200, Note_on_c, 0, 50, 0
2, 92160, Note_on_c, 0, 55, 0
2, 92640, Note_on_c, 0, 50, 80
2, 92880, Note_on_c, 0, 52, 80
2, 92880, Note_on_c, 0, 50, 0
2, 93120, Note_on_c, 0, 54, 80
2, 93120, Note_on_c, 0, 52, 0
2, 93600, Note_on_c, 0, 50, 80
2, 93600, Note_on_c, 0, 54, 0
2, 94080, Note_on_c, 0, 55, 80
2, 94080, Note_on_c, 0, 50, 0
2, 94560, Note_on_c, 0, 43, 80
2, 94560, Note_on_c, 0, 55, 0
2, 95040, Note_on_c, 0, 55, 80
2, 95040, Note_on_c, 0, 43, 0
2, 95520, Note_on_c, 0, 57, 80
2, 95520, Note_on_c, 0, 55, 0
2, 95760, Note_on_c, 0, 59, 80
2, 95760, Note_on_c, 0, 57, 0
2, 96000, Note_on_c, 0, 60, 80
2, 96000, Note_on_c, 0, 59, 0
2, 96480, Note_on_c, 0, 59, 80
2, 96480, Note_on_c, 0, 60, 0
2, 96960, Note_on_c, 0, 57, 80
2, 96960, Note_on_c, 0, 59, 0
2, 97440, Note_on_c, 0, 55, 80
2, 97440, Note_on_c, 0, 57, 0
2, 97680, Note_on_c, 0, 57, 80
2, 97680, Note_on_c, 0, 55, 0
2, 97920, Note_on_c, 0, 59, 80
2, 97920, Note_on_c, 0, 57, 0
2, 98639, Note_on_c, 0, 59, 0
2, 98640, Note_on_c, 0, 57, 80
2, 98880, Note_on_c, 0, 55, 80
2, 98880, Note_on_c, 0, 57, 0
2, 99120, Note_on_c, 0, 54, 80
2, 99120, Note_on_c, 0, 55, 0
2, 99360, Note_on_c, 0, 52, 80
2, 99360, Note_on_c, 0, 54, 0
2, 99600, Note_on_c, 0, 51, 80
2, 99600, Note_on_c, 0, 52, 0
2, 99840, Note_on_c, 0, 52, 80
2, 99840, Note_on_c, 0, 51, 0
2, 100320, Note_on_c, 0, 64, 80
2, 100320, Note_on_c, 0, 52, 0
2, 100560, Note_on_c, 0, 62, 80
2, 100560, Note_on_c, 0, 64, 0
2, 100800, Note_on_c, 0, 60, 80
2, 100800, Note_on_c, 0, 62, 0
2, 101280, Note_on_c, 0, 59, 80
2, 101280, Note_on_c, 0, 60, 0
2, 101760, Note_on_c, 0, 57, 80
2, 101760, Note_on_c, 0, 59, 0
2, 102240, Note_on_c, 0, 59, 80
2, 102240, Note_on_c, 0, 57, 0
2, 102480, Note_on_c, 0, 60, 80
2, 102480, Note_on_c, 0, 59, 0
2, 102720, Note_on_c, 0, 54, 80
2, 102720, Note_on_c, 0, 60, 0
2, 103200, Note_on_c, 0, 55, 80
2, 103200, Note_on_c, 0, 54, 0
2, 103440, Note_on_c, 0, 57, 80
2, 103440, Note_on_c, 0, 55, 0
2, 103680, Note_on_c, 0, 51, 80
2, 103680, Note_on_c, 0, 57, 0
2, 104160, Note_on_c, 0, 52, 80
2, 104160, Note_on_c, 0, 51, 0
2, 104400, Note_on_c, 0, 54, 80
2, 104400, Note_on_c, 0, 52, 0
2, 104640, Note_on_c, 0, 47, 80
2, 104640, Note_on_c, 0, 54, 0
2, 105120, Note_on_c, 0, 49, 80
2, 105120, Note_on_c, 0, 47, 0
2, 105360, Note_on_c, 0, 51, 80
2, 105360, Note_on_c, 0, 49, 0
2, 105600, Note_on_c, 0, 52, 80
2, 105600, Note_on_c, 0, 51, 0
2, 106080, Note_on_c, 0, 64, 80
2, 106080, Note_on_c, 0, 52, 0
2, 106320, Note_on_c, 0, 63, 80
2, 106320, Note_on_c, 0, 64, 0
2, 106560, Note_on_c, 0, 64, 80
2, 106560, Note_on_c, 0, 63, 0
2, 107040, Note_on_c, 0, 66, 80
2, 107040, Note_on_c, 0, 64, 0
2, 107280, Note_on_c, 0, 67, 80
2, 107280, Note_on_c, 0, 66, 0
2, 107520, Note_on_c, 0, 69, 80
2, 107520, Note_on_c, 0, 67, 0
2, 108000, Note_on_c, 0, 67, 80
2, 108000, Note_on_c, 0, 69, 0
2, 108240, Note_on_c, 0, 69, 80
2, 108240, Note_on_c, 0, 67, 0
2, 108480, Note_on_c, 0, 66, 80
2, 108480, Note_on_c, 0, 69, 0
2, 108960, Note_on_c, 0, 64, 80
2, 108960, Note_on_c, 0, 66, 0
2, 109200, Note_on_c, 0, 66, 80
2, 109200, Note_on_c, 0, 64, 0
2, 109440, Note_on_c, 0, 67, 80
2, 109440, Note_on_c, 0, 66, 0
2, 109920, Note_on_c, 0, 66, 80
2, 109920, Note_on_c, 0, 67, 0
2, 110400, Note_on_c, 0, 64, 80
2, 110400, Note_on_c, 0, 66, 0
2, 110880, Note_on_c, 0, 62, 80
2, 110880, Note_on_c, 0, 64, 0
2, 111360, Note_on_c, 0, 60, 80
2, 111360, Note_on_c, 0, 62, 0
2, 111840, Note_on_c, 0, 59, 80
2, 111840, Note_on_c, 0, 60, 0
2, 112320, Note_on_c, 0, 57, 80
2, 112320, Note_on_c, 0, 59, 0
2, 112800, Note_on_c, 0, 55, 80
2, 112800, Note_on_c, 0, 57, 0
2, 113280, Note_on_c, 0, 54, 80
2, 113280, Note_on_c, 0, 55, 0
2, 113760, Note_on_c, 0, 52, 80
2, 113760, Note_on_c, 0, 54, 0
2, 114000, Note_on_c, 0, 54, 80
2, 114000, Note_on_c, 0, 52, 0
2, 114240, Note_on_c, 0, 55, 80
2, 114240, Note_on_c, 0, 54, 0
2, 114720, Note_on_c, 0, 54, 80
2, 114720, Note_on_c, 0, 55, 0
2, 114960, Note_on_c, 0, 55, 80
2, 114960, Note_on_c, 0, 54, 0
2, 115200, Note_on_c, 0, 52, 80
2, 115200, Note_on_c, 0, 55, 0
2, 115680, Note_on_c, 0, 50, 80
2, 115680, Note_on_c, 0, 52, 0
2, 115920, Note_on_c, 0, 52, 80
2, 115920, Note_on_c, 0, 50, 0
2, 116160, Note_on_c, 0, 54, 80
2, 116160, Note_on_c, 0, 52, 0
2, 116640, Note_on_c, 0, 52, 80
2, 116640, Note_on_c, 0, 54, 0
2, 116880, Note_on_c, 0, 54, 80
2, 116880, Note_on_c, 0, 52, 0
2, 117120, Note_on_c, 0, 51, 80
2, 117120, Note_on_c, 0, 54, 0
2, 117600, Note_on_c, 0, 49, 80
2, 117600, Note_on_c, 0, 51, 0
2, 117840, Note_on_c, 0, 51, 80
2, 117840, Note_on_c, 0, 49, 0
2, 118080, Note_on_c, 0, 52, 80
2, 118080, Note_on_c, 0, 51, 0
2, 118320, Note_on_c, 0, 50, 80
2, 118320, Note_on_c, 0, 52, 0
2, 118560, Note_on_c, 0, 48, 80
2, 118560, Note_on_c, 0, 50, 0
2, 118800, Note_on_c, 0, 47, 80
2, 118800, Note_on_c, 0, 48, 0
2, 119040, Note_on_c, 0, 48, 80
2, 119040, Note_on_c, 0, 47, 0
2, 119520, Note_on_c, 0, 45, 80
2, 119520, Note_on_c, 0, 48, 0
2, 120000, Note_on_c, 0, 50, 80
2, 120000, Note_on_c, 0, 45, 0
2, 120480, Note_on_c, 0, 38, 80
2, 120480, Note_on_c, 0, 50, 0
2, 120960, Note_on_c, 0, 43, 80
2, 120960, Note_on_c, 0, 38, 0
2, 121440, Note_on_c, 0, 50, 80
2, 121440, Note_on_c, 0, 43, 0
2, 121920, Note_on_c, 0, 55, 80
2, 121920, Note_on_c, 0, 50, 0
2, 122880, Note_on_c, 0, 55, 0
2, 122881, End_track
0, 0, End_of_file
