0, 0, Header, 1, 2, 480
1, 0, Start_track
1, 0, Unknown_meta_event, 8, 34, 71, 111, 108, 100, 98, 101, 114, 103, 32, 86, 97, 114, 105, 97, 116, 105, 111, 110, 115, 58, 32, 86, 97, 114, 105, 97, 116, 105, 111, 110, 32, 73, 86, 0
1, 0, Unknown_meta_event, 9, 8, 66, 87, 86, 32, 57, 56, 56, 0
1, 0, Unknown_meta_event, 10, 11, 74, 46, 32, 83, 46, 32, 66, 97, 99, 104, 0
1, 0, Time_signature, 3, 3, 24, 8
1, 0, Key_signature, 1, "major"
1, 0, Program_c, 0, 46
1, 2, Control_c, 0, 7, 100
1, 4, Control_c, 0, 10, 64
1, 6, Control_c, 0, 91, 30
1, 8, Control_c, 0, 93, 30
1, 240, Note_on_c, 0, 71, 80
1, 479, Note_on_c, 0, 71, 0
1, 480, Note_on_c, 0, 67, 80
1, 719, Note_on_c, 0, 67, 0
1, 720, Note_on_c, 0, 74, 80
1, 959, Note_on_c, 0, 74, 0
1, 960, Note_on_c, 0, 62, 80
1, 960, Note_on_c, 0, 69, 80
1, 1199, Note_on_c, 0, 62, 0
1, 1199, Note_on_c, 0, 69, 0
1, 1200, Note_on_c, 0, 66, 80
1, 1200, Note_on_c, 0, 74, 80
1, 1439, Note_on_c, 0, 66, 0
1, 1439, Note_on_c, 0, 74, 0
1, 1440, Note_on_c, 0, 59, 80
1, 1440, Note_on_c, 0, 79, 80
1, 1679, Note_on_c, 0, 59, 0
1, 1680, Note_on_c, 0, 67, 80
1, 1919, Note_on_c, 0, 67, 0
1, 1920, Note_on_c, 0, 72, 80
1, 2159, Note_on_c, 0, 72, 0
1, 2160, Note_on_c, 0, 71, 80
1, 2279, Note_on_c, 0, 71, 0
1, 2280, Note_on_c, 0, 67, 80
1, 2399, Note_on_c, 0, 67, 0
1, 2399, Note_on_c, 0, 79, 0
1, 2400, Note_on_c, 0, 69, 80
1, 2400, Note_on_c, 0, 78, 80
1, 2639, Note_on_c, 0, 69, 0
1, 2639, Note_on_c, 0, 78, 0
1, 3840, Note_on_c, 0, 60, 80
1, 4079, Note_on_c, 0, 60, 0
1, 4080, Note_on_c, 0, 64, 80
1, 4319, Note_on_c, 0, 64, 0
1, 4320, Note_on_c, 0, 57, 80
1, 4559, Note_on_c, 0, 57, 0
1, 4560, Note_on_c, 0, 62, 80
1, 4560, Note_on_c, 0, 69, 80
1, 4799, Note_on_c, 0, 69, 0
1, 4800, Note_on_c, 0, 72, 80
1, 5039, Note_on_c, 0, 72, 0
1, 5160, Note_on_c, 0, 69, 80
1, 5279, Note_on_c, 0, 69, 0
1, 5279, Note_on_c, 0, 62, 0
1, 5280, Note_on_c, 0, 67, 80
1, 5280, Note_on_c, 0, 71, 80
1, 5519, Note_on_c, 0, 67, 0
1, 5519, Note_on_c, 0, 71, 0
1, 6000, Note_on_c, 0, 76, 80
1, 6239, Note_on_c, 0, 76, 0
1, 6240, Note_on_c, 0, 79, 80
1, 6479, Note_on_c, 0, 79, 0
1, 6480, Note_on_c, 0, 73, 80
1, 6719, Note_on_c, 0, 73, 0
1, 6720, Note_on_c, 0, 81, 80
1, 7199, Note_on_c, 0, 81, 0
1, 7200, Note_on_c, 0, 74, 80
1, 7439, Note_on_c, 0, 74, 0
1, 7440, Note_on_c, 0, 73, 80
1, 7440, Note_on_c, 0, 79, 80
1, 7679, Note_on_c, 0, 73, 0
1, 7680, Note_on_c, 0, 76, 80
1, 7919, Note_on_c, 0, 76, 0
1, 7919, Note_on_c, 0, 79, 0
1, 7920, Note_on_c, 0, 69, 80
1, 8160, Note_on_c, 0, 78, 80
1, 8399, Note_on_c, 0, 69, 0
1, 8399, Note_on_c, 0, 78, 0
1, 8400, Note_on_c, 0, 67, 80
1, 8400, Note_on_c, 0, 76, 80
1, 8639, Note_on_c, 0, 76, 0
1, 8879, Note_on_c, 0, 67, 0
1, 8880, Note_on_c, 0, 66, 80
1, 8880, Note_on_c, 0, 74, 80
1, 9119, Note_on_c, 0, 66, 0
1, 9119, Note_on_c, 0, 74, 0
1, 9120, Note_on_c, 0, 69, 80
1, 9120, Note_on_c, 0, 72, 80
1, 9359, Note_on_c, 0, 69, 0
1, 9359, Note_on_c, 0, 72, 0
1, 9360, Note_on_c, 0, 62, 80
1, 9599, Note_on_c, 0, 62, 0
1, 9600, Note_on_c, 0, 64, 80
1, 9600, Note_on_c, 0, 71, 80
1, 9839, Note_on_c, 0, 64, 0
1, 9840, Note_on_c, 0, 67, 80
1, 10079, Note_on_c, 0, 67, 0
1, 10079, Note_on_c, 0, 71, 0
1, 10080, Note_on_c, 0, 61, 80
1, 10080, Note_on_c, 0, 69, 80
1, 10319, Note_on_c, 0, 61, 0
1, 10319, Note_on_c, 0, 69, 0
1, 10320, Note_on_c, 0, 69, 80
1, 10320, Note_on_c, 0, 74, 80
1, 10559, Note_on_c, 0, 69, 0
1, 10559, Note_on_c, 0, 74, 0
1, 10560, Note_on_c, 0, 67, 80
1, 10560, Note_on_c, 0, 73, 80
1, 10799, Note_on_c, 0, 73, 0
1, 10919, Note_on_c, 0, 67, 0
1, 10920, Note_on_c, 0, 64, 80
1, 11039, Note_on_c, 0, 64, 0
1, 11040, Note_on_c, 0, 66, 80
1, 11040, Note_on_c, 0, 74, 80
1, 11279, Note_on_c, 0, 66, 0
1, 11279, Note_on_c, 0, 74, 0
1, 11760, Note_on_c, 0, 71, 80
1, 11999, Note_on_c, 0, 71, 0
1, 12000, Note_on_c, 0, 67, 80
1, 12239, Note_on_c, 0, 67, 0
1, 12240, Note_on_c, 0, 74, 80
1, 12479, Note_on_c, 0, 74, 0
1, 12480, Note_on_c, 0, 62, 80
1, 12480, Note_on_c, 0, 69, 80
1, 12719, Note_on_c, 0, 62, 0
1, 12719, Note_on_c, 0, 69, 0
1, 12720, Note_on_c, 0, 66, 80
1, 12720, Note_on_c, 0, 74, 80
1, 12959, Note_on_c, 0, 66, 0
1, 12959, Note_on_c, 0, 74, 0
1, 12960, Note_on_c, 0, 59, 80
1, 12960, Note_on_c, 0, 79, 80
1, 13199, Note_on_c, 0, 59, 0
1, 13200, Note_on_c, 0, 67, 80
1, 13439, Note_on_c, 0, 67, 0
1, 13440, Note_on_c, 0, 72, 80
1, 13679, Note_on_c, 0, 72, 0
1, 13680, Note_on_c, 0, 71, 80
1, 13799, Note_on_c, 0, 71, 0
1, 13800, Note_on_c, 0, 67, 80
1, 13919, Note_on_c, 0, 67, 0
1, 13919, Note_on_c, 0, 79, 0
1, 13920, Note_on_c, 0, 69, 80
1, 13920, Note_on_c, 0, 78, 80
1, 14159, Note_on_c, 0, 69, 0
1, 14159, Note_on_c, 0, 78, 0
1, 15360, Note_on_c, 0, 60, 80
1, 15599, Note_on_c, 0, 60, 0
1, 15600, Note_on_c, 0, 64, 80
1, 15839, Note_on_c, 0, 64, 0
1, 15840, Note_on_c, 0, 57, 80
1, 16079, Note_on_c, 0, 57, 0
1, 16080, Note_on_c, 0, 62, 80
1, 16080, Note_on_c, 0, 69, 80
1, 16319, Note_on_c, 0, 69, 0
1, 16320, Note_on_c, 0, 72, 80
1, 16559, Note_on_c, 0, 72, 0
1, 16680, Note_on_c, 0, 69, 80
1, 16799, Note_on_c, 0, 69, 0
1, 16799, Note_on_c, 0, 62, 0
1, 16800, Note_on_c, 0, 67, 80
1, 16800, Note_on_c, 0, 71, 80
1, 17039, Note_on_c, 0, 67, 0
1, 17039, Note_on_c, 0, 71, 0
1, 17520, Note_on_c, 0, 76, 80
1, 17759, Note_on_c, 0, 76, 0
1, 17760, Note_on_c, 0, 79, 80
1, 17999, Note_on_c, 0, 79, 0
1, 18000, Note_on_c, 0, 73, 80
1, 18239, Note_on_c, 0, 73, 0
1, 18240, Note_on_c, 0, 81, 80
1, 18719, Note_on_c, 0, 81, 0
1, 18720, Note_on_c, 0, 74, 80
1, 18959, Note_on_c, 0, 74, 0
1, 18960, Note_on_c, 0, 73, 80
1, 18960, Note_on_c, 0, 79, 80
1, 19199, Note_on_c, 0, 73, 0
1, 19200, Note_on_c, 0, 76, 80
1, 19439, Note_on_c, 0, 76, 0
1, 19439, Note_on_c, 0, 79, 0
1, 19440, Note_on_c, 0, 69, 80
1, 19680, Note_on_c, 0, 78, 80
1, 19919, Note_on_c, 0, 69, 0
1, 19919, Note_on_c, 0, 78, 0
1, 19920, Note_on_c, 0, 67, 80
1, 19920, Note_on_c, 0, 76, 80
1, 20159, Note_on_c, 0, 76, 0
1, 20399, Note_on_c, 0, 67, 0
1, 20400, Note_on_c, 0, 66, 80
1, 20400, Note_on_c, 0, 74, 80
1, 20639, Note_on_c, 0, 66, 0
1, 20639, Note_on_c, 0, 74, 0
1, 20640, Note_on_c, 0, 69, 80
1, 20640, Note_on_c, 0, 72, 80
1, 20879, Note_on_c, 0, 69, 0
1, 20879, Note_on_c, 0, 72, 0
1, 20880, Note_on_c, 0, 62, 80
1, 21119, Note_on_c, 0, 62, 0
1, 21120, Note_on_c, 0, 64, 80
1, 21120, Note_on_c, 0, 71, 80
1, 21359, Note_on_c, 0, 64, 0
1, 21360, Note_on_c, 0, 67, 80
1, 21599, Note_on_c, 0, 67, 0
1, 21599, Note_on_c, 0, 71, 0
1, 21600, Note_on_c, 0, 61, 80
1, 21600, Note_on_c, 0, 69, 80
1, 21839, Note_on_c, 0, 61, 0
1, 21839, Note_on_c, 0, 69, 0
1, 21840, Note_on_c, 0, 69, 80
1, 21840, Note_on_c, 0, 74, 80
1, 22079, Note_on_c, 0, 69, 0
1, 22079, Note_on_c, 0, 74, 0
1, 22080, Note_on_c, 0, 67, 80
1, 22080, Note_on_c, 0, 73, 80
1, 22319, Note_on_c, 0, 73, 0
1, 22439, Note_on_c, 0, 67, 0
1, 22440, Note_on_c, 0, 64, 80
1, 22559, Note_on_c, 0, 64, 0
1, 22560, Note_on_c, 0, 66, 80
1, 22560, Note_on_c, 0, 74, 80
1, 22799, Note_on_c, 0, 66, 0
1, 22799, Note_on_c, 0, 74, 0
1, 23280, Note_on_c, 0, 78, 80
1, 23519, Note_on_c, 0, 78, 0
1, 23520, Note_on_c, 0, 74, 80
1, 23759, Note_on_c, 0, 74, 0
1, 23760, Note_on_c, 0, 79, 80
1, 23999, Note_on_c, 0, 79, 0
1, 24000, Note_on_c, 0, 74, 80
1, 24000, Note_on_c, 0, 83, 80
1, 24239, Note_on_c, 0, 74, 0
1, 24240, Note_on_c, 0, 71, 80
1, 24479, Note_on_c, 0, 71, 0
1, 24479, Note_on_c, 0, 83, 0
1, 24480, Note_on_c, 0, 67, 80
1, 24719, Note_on_c, 0, 67, 0
1, 24720, Note_on_c, 0, 69, 80
1, 24720, Note_on_c, 0, 81, 80
1, 24839, Note_on_c, 0, 81, 0
1, 24840, Note_on_c, 0, 79, 80
1, 24959, Note_on_c, 0, 69, 0
1, 24959, Note_on_c, 0, 79, 0
1, 24960, Note_on_c, 0, 72, 80
1, 24960, Note_on_c, 0, 78, 80
1, 25079, Note_on_c, 0, 78, 0
1, 25080, Note_on_c, 0, 76, 80
1, 25199, Note_on_c, 0, 72, 0
1, 25199, Note_on_c, 0, 76, 0
1, 25200, Note_on_c, 0, 66, 80
1, 25200, Note_on_c, 0, 75, 80
1, 25319, Note_on_c, 0, 75, 0
1, 25320, Note_on_c, 0, 76, 80
1, 25439, Note_on_c, 0, 76, 0
1, 25440, Note_on_c, 0, 78, 80
1, 25679, Note_on_c, 0, 66, 0
1, 25919, Note_on_c, 0, 78, 0
1, 26160, Note_on_c, 0, 71, 80
1, 26160, Note_on_c, 0, 76, 80
1, 26399, Note_on_c, 0, 71, 0
1, 26399, Note_on_c, 0, 76, 0
1, 26400, Note_on_c, 0, 67, 80
1, 26400, Note_on_c, 0, 79, 80
1, 26639, Note_on_c, 0, 67, 0
1, 26639, Note_on_c, 0, 79, 0
1, 26640, Note_on_c, 0, 64, 80
1, 26640, Note_on_c, 0, 73, 80
1, 26879, Note_on_c, 0, 64, 0
1, 26879, Note_on_c, 0, 73, 0
1, 26880, Note_on_c, 0, 66, 80
1, 26880, Note_on_c, 0, 75, 80
1, 27119, Note_on_c, 0, 66, 0
1, 27119, Note_on_c, 0, 75, 0
1, 27120, Note_on_c, 0, 67, 80
1, 27120, Note_on_c, 0, 76, 80
1, 27359, Note_on_c, 0, 67, 0
1, 27359, Note_on_c, 0, 76, 0
1, 27360, Note_on_c, 0, 66, 80
1, 27600, Note_on_c, 0, 75, 80
1, 27719, Note_on_c, 0, 75, 0
1, 27720, Note_on_c, 0, 73, 80
1, 27839, Note_on_c, 0, 73, 0
1, 27840, Note_on_c, 0, 71, 80
1, 27959, Note_on_c, 0, 71, 0
1, 27960, Note_on_c, 0, 69, 80
1, 28079, Note_on_c, 0, 66, 0
1, 28079, Note_on_c, 0, 69, 0
1, 28080, Note_on_c, 0, 64, 80
1, 28080, Note_on_c, 0, 69, 80
1, 28139, Note_on_c, 0, 69, 0
1, 28140, Note_on_c, 0, 67, 80
1, 28199, Note_on_c, 0, 67, 0
1, 28200, Note_on_c, 0, 66, 80
1, 28319, Note_on_c, 0, 66, 0
1, 28320, Note_on_c, 0, 64, 80
1, 28559, Note_on_c, 0, 64, 0
1, 28559, Note_on_c, 0, 64, 0
1, 29040, Note_on_c, 0, 69, 80
1, 29040, Note_on_c, 0, 72, 80
1, 29279, Note_on_c, 0, 69, 0
1, 29279, Note_on_c, 0, 72, 0
1, 29280, Note_on_c, 0, 72, 80
1, 29280, Note_on_c, 0, 76, 80
1, 29519, Note_on_c, 0, 72, 0
1, 29519, Note_on_c, 0, 76, 0
1, 29520, Note_on_c, 0, 66, 80
1, 29520, Note_on_c, 0, 69, 80
1, 29759, Note_on_c, 0, 66, 0
1, 29759, Note_on_c, 0, 69, 0
1, 29760, Note_on_c, 0, 67, 80
1, 29760, Note_on_c, 0, 71, 80
1, 29999, Note_on_c, 0, 67, 0
1, 29999, Note_on_c, 0, 71, 0
1, 30000, Note_on_c, 0, 71, 80
1, 30000, Note_on_c, 0, 74, 80
1, 30239, Note_on_c, 0, 71, 0
1, 30239, Note_on_c, 0, 74, 0
1, 30240, Note_on_c, 0, 64, 80
1, 30240, Note_on_c, 0, 67, 80
1, 30479, Note_on_c, 0, 64, 0
1, 30479, Note_on_c, 0, 67, 0
1, 30480, Note_on_c, 0, 69, 80
1, 30480, Note_on_c, 0, 72, 80
1, 30959, Note_on_c, 0, 72, 0
1, 31199, Note_on_c, 0, 69, 0
1, 31200, Note_on_c, 0, 66, 80
1, 31200, Note_on_c, 0, 74, 80
1, 31439, Note_on_c, 0, 66, 0
1, 31439, Note_on_c, 0, 74, 0
1, 31440, Note_on_c, 0, 69, 80
1, 31440, Note_on_c, 0, 72, 80
1, 31679, Note_on_c, 0, 72, 0
1, 31680, Note_on_c, 0, 71, 80
1, 31799, Note_on_c, 0, 71, 0
1, 31800, Note_on_c, 0, 72, 80
1, 31919, Note_on_c, 0, 72, 0
1, 31919, Note_on_c, 0, 69, 0
1, 31920, Note_on_c, 0, 67, 80
1, 31920, Note_on_c, 0, 74, 80
1, 32159, Note_on_c, 0, 67, 0
1, 32160, Note_on_c, 0, 71, 80
1, 32399, Note_on_c, 0, 71, 0
1, 32399, Note_on_c, 0, 74, 0
1, 32400, Note_on_c, 0, 64, 80
1, 32520, Note_on_c, 0, 72, 80
1, 32639, Note_on_c, 0, 72, 0
1, 32640, Note_on_c, 0, 74, 80
1, 32759, Note_on_c, 0, 74, 0
1, 32760, Note_on_c, 0, 72, 80
1, 32879, Note_on_c, 0, 72, 0
1, 32880, Note_on_c, 0, 71, 80
1, 32999, Note_on_c, 0, 71, 0
1, 33000, Note_on_c, 0, 69, 80
1, 33119, Note_on_c, 0, 64, 0
1, 33119, Note_on_c, 0, 69, 0
1, 33120, Note_on_c, 0, 57, 80
1, 33120, Note_on_c, 0, 74, 80
1, 33359, Note_on_c, 0, 57, 0
1, 33359, Note_on_c, 0, 74, 0
1, 33360, Note_on_c, 0, 62, 80
1, 33360, Note_on_c, 0, 67, 80
1, 33599, Note_on_c, 0, 62, 0
1, 33599, Note_on_c, 0, 67, 0
1, 33600, Note_on_c, 0, 60, 80
1, 33600, Note_on_c, 0, 66, 80
1, 33839, Note_on_c, 0, 60, 0
1, 33839, Note_on_c, 0, 66, 0
1, 33840, Note_on_c, 0, 60, 80
1, 33959, Note_on_c, 0, 60, 0
1, 33960, Note_on_c, 0, 57, 80
1, 34079, Note_on_c, 0, 57, 0
1, 34080, Note_on_c, 0, 59, 80
1, 34080, Note_on_c, 0, 67, 80
1, 34319, Note_on_c, 0, 59, 0
1, 34319, Note_on_c, 0, 67, 0
1, 34800, Note_on_c, 0, 78, 80
1, 35039, Note_on_c, 0, 78, 0
1, 35040, Note_on_c, 0, 74, 80
1, 35279, Note_on_c, 0, 74, 0
1, 35280, Note_on_c, 0, 79, 80
1, 35519, Note_on_c, 0, 79, 0
1, 35520, Note_on_c, 0, 74, 80
1, 35520, Note_on_c, 0, 83, 80
1, 35759, Note_on_c, 0, 74, 0
1, 35760, Note_on_c, 0, 71, 80
1, 35999, Note_on_c, 0, 71, 0
1, 35999, Note_on_c, 0, 83, 0
1, 36000, Note_on_c, 0, 67, 80
1, 36239, Note_on_c, 0, 67, 0
1, 36240, Note_on_c, 0, 69, 80
1, 36240, Note_on_c, 0, 81, 80
1, 36359, Note_on_c, 0, 81, 0
1, 36360, Note_on_c, 0, 79, 80
1, 36479, Note_on_c, 0, 69, 0
1, 36479, Note_on_c, 0, 79, 0
1, 36480, Note_on_c, 0, 72, 80
1, 36480, Note_on_c, 0, 78, 80
1, 36599, Note_on_c, 0, 78, 0
1, 36600, Note_on_c, 0, 76, 80
1, 36719, Note_on_c, 0, 72, 0
1, 36719, Note_on_c, 0, 76, 0
1, 36720, Note_on_c, 0, 66, 80
1, 36720, Note_on_c, 0, 75, 80
1, 36839, Note_on_c, 0, 75, 0
1, 36840, Note_on_c, 0, 76, 80
1, 36959, Note_on_c, 0, 76, 0
1, 36960, Note_on_c, 0, 78, 80
1, 37199, Note_on_c, 0, 66, 0
1, 37439, Note_on_c, 0, 78, 0
1, 37680, Note_on_c, 0, 71, 80
1, 37680, Note_on_c, 0, 76, 80
1, 37919, Note_on_c, 0, 71, 0
1, 37919, Note_on_c, 0, 76, 0
1, 37920, Note_on_c, 0, 67, 80
1, 37920, Note_on_c, 0, 79, 80
1, 38159, Note_on_c, 0, 67, 0
1, 38159, Note_on_c, 0, 79, 0
1, 38160, Note_on_c, 0, 64, 80
1, 38160, Note_on_c, 0, 73, 80
1, 38399, Note_on_c, 0, 64, 0
1, 38399, Note_on_c, 0, 73, 0
1, 38400, Note_on_c, 0, 66, 80
1, 38400, Note_on_c, 0, 75, 80
1, 38639, Note_on_c, 0, 66, 0
1, 38639, Note_on_c, 0, 75, 0
1, 38640, Note_on_c, 0, 67, 80
1, 38640, Note_on_c, 0, 76, 80
1, 38879, Note_on_c, 0, 67, 0
1, 38879, Note_on_c, 0, 76, 0
1, 38880, Note_on_c, 0, 66, 80
1, 39120, Note_on_c, 0, 75, 80
1, 39239, Note_on_c, 0, 75, 0
1, 39240, Note_on_c, 0, 73, 80
1, 39359, Note_on_c, 0, 73, 0
1, 39360, Note_on_c, 0, 71, 80
1, 39479, Note_on_c, 0, 71, 0
1, 39480, Note_on_c, 0, 69, 80
1, 39599, Note_on_c, 0, 66, 0
1, 39599, Note_on_c, 0, 69, 0
1, 39600, Note_on_c, 0, 64, 80
1, 39600, Note_on_c, 0, 69, 80
1, 39659, Note_on_c, 0, 69, 0
1, 39660, Note_on_c, 0, 67, 80
1, 39719, Note_on_c, 0, 67, 0
1, 39720, Note_on_c, 0, 66, 80
1, 39839, Note_on_c, 0, 66, 0
1, 39840, Note_on_c, 0, 64, 80
1, 40079, Note_on_c, 0, 64, 0
1, 40079, Note_on_c, 0, 64, 0
1, 40560, Note_on_c, 0, 69, 80
1, 40560, Note_on_c, 0, 72, 80
1, 40799, Note_on_c, 0, 69, 0
1, 40799, Note_on_c, 0, 72, 0
1, 40800, Note_on_c, 0, 72, 80
1, 40800, Note_on_c, 0, 76, 80
1, 41039, Note_on_c, 0, 72, 0
1, 41039, Note_on_c, 0, 76, 0
1, 41040, Note_on_c, 0, 66, 80
1, 41040, Note_on_c, 0, 69, 80
1, 41279, Note_on_c, 0, 66, 0
1, 41279, Note_on_c, 0, 69, 0
1, 41280, Note_on_c, 0, 67, 80
1, 41280, Note_on_c, 0, 71, 80
1, 41519, Note_on_c, 0, 67, 0
1, 41519, Note_on_c, 0, 71, 0
1, 41520, Note_on_c, 0, 71, 80
1, 41520, Note_on_c, 0, 74, 80
1, 41759, Note_on_c, 0, 71, 0
1, 41759, Note_on_c, 0, 74, 0
1, 41760, Note_on_c, 0, 64, 80
1, 41760, Note_on_c, 0, 67, 80
1, 41999, Note_on_c, 0, 64, 0
1, 41999, Note_on_c, 0, 67, 0
1, 42000, Note_on_c, 0, 69, 80
1, 42000, Note_on_c, 0, 72, 80
1, 42479, Note_on_c, 0, 72, 0
1, 42719, Note_on_c, 0, 69, 0
1, 42720, Note_on_c, 0, 66, 80
1, 42720, Note_on_c, 0, 74, 80
1, 42959, Note_on_c, 0, 66, 0
1, 42959, Note_on_c, 0, 74, 0
1, 42960, Note_on_c, 0, 69, 80
1, 42960, Note_on_c, 0, 72, 80
1, 43199, Note_on_c, 0, 72, 0
1, 43200, Note_on_c, 0, 71, 80
1, 43319, Note_on_c, 0, 71, 0
1, 43320, Note_on_c, 0, 72, 80
1, 43439, Note_on_c, 0, 72, 0
1, 43439, Note_on_c, 0, 69, 0
1, 43440, Note_on_c, 0, 67, 80
1, 43440, Note_on_c, 0, 74, 80
1, 43679, Note_on_c, 0, 67, 0
1, 43680, Note_on_c, 0, 71, 80
1, 43919, Note_on_c, 0, 71, 0
1, 43919, Note_on_c, 0, 74, 0
1, 43920, Note_on_c, 0, 64, 80
1, 44040, Note_on_c, 0, 72, 80
1, 44159, Note_on_c, 0, 72, 0
1, 44160, Note_on_c, 0, 74, 80
1, 44279, Note_on_c, 0, 74, 0
1, 44280, Note_on_c, 0, 72, 80
1, 44399, Note_on_c, 0, 72, 0
1, 44400, Note_on_c, 0, 71, 80
1, 44519, Note_on_c, 0, 71, 0
1, 44520, Note_on_c, 0, 69, 80
1, 44639, Note_on_c, 0, 64, 0
1, 44639, Note_on_c, 0, 69, 0
1, 44640, Note_on_c, 0, 57, 80
1, 44640, Note_on_c, 0, 74, 80
1, 44879, Note_on_c, 0, 57, 0
1, 44879, Note_on_c, 0, 74, 0
1, 44880, Note_on_c, 0, 62, 80
1, 44880, Note_on_c, 0, 67, 80
1, 45119, Note_on_c, 0, 62, 0
1, 45119, Note_on_c, 0, 67, 0
1, 45120, Note_on_c, 0, 60, 80
1, 45120, Note_on_c, 0, 66, 80
1, 45359, Note_on_c, 0, 60, 0
1, 45359, Note_on_c, 0, 66, 0
1, 45360, Note_on_c, 0, 60, 80
1, 45479, Note_on_c, 0, 60, 0
1, 45480, Note_on_c, 0, 57, 80
1, 45599, Note_on_c, 0, 57, 0
1, 45600, Note_on_c, 0, 59, 80
1, 45600, Note_on_c, 0, 67, 80
1, 45839, Note_on_c, 0, 59, 0
1, 45839, Note_on_c, 0, 67, 0
1, 45840, End_track
2, 0, Start_track
2, 0, Key_signature, 1, "major"
2, 0, Note_on_c, 0, 55, 80
2, 719, Note_on_c, 0, 55, 0
2, 720, Note_on_c, 0, 54, 80
2, 1439, Note_on_c, 0, 54, 0
2, 1440, Note_on_c, 0, 52, 80
2, 1680, Note_on_c, 0, 59, 80
2, 1919, Note_on_c, 0, 59, 0
2, 1920, Note_on_c, 0, 55, 80
2, 2159, Note_on_c, 0, 52, 0
2, 2159, Note_on_c, 0, 55, 0
2, 2160, Note_on_c, 0, 62, 80
2, 2400, Note_on_c, 0, 50, 80
2, 2639, Note_on_c, 0, 50, 0
2, 2639, Note_on_c, 0, 62, 0
2, 2640, Note_on_c, 0, 54, 80
2, 2879, Note_on_c, 0, 54, 0
2, 2880, Note_on_c, 0, 47, 80
2, 3120, Note_on_c, 0, 55, 80
2, 3359, Note_on_c, 0, 55, 0
2, 3360, Note_on_c, 0, 59, 80
2, 3599, Note_on_c, 0, 47, 0
2, 3599, Note_on_c, 0, 59, 0
2, 3600, Note_on_c, 0, 48, 80
2, 3600, Note_on_c, 0, 52, 80
2, 3839, Note_on_c, 0, 52, 0
2, 3840, Note_on_c, 0, 57, 80
2, 4079, Note_on_c, 0, 57, 0
2, 4080, Note_on_c, 0, 55, 80
2, 4319, Note_on_c, 0, 48, 0
2, 4319, Note_on_c, 0, 55, 0
2, 4320, Note_on_c, 0, 50, 80
2, 4560, Note_on_c, 0, 54, 80
2, 4679, Note_on_c, 0, 54, 0
2, 4680, Note_on_c, 0, 52, 80
2, 4799, Note_on_c, 0, 52, 0
2, 4800, Note_on_c, 0, 54, 80
2, 5039, Note_on_c, 0, 50, 0
2, 5039, Note_on_c, 0, 54, 0
2, 5040, Note_on_c, 0, 55, 80
2, 5279, Note_on_c, 0, 55, 0
2, 5280, Note_on_c, 0, 47, 80
2, 5280, Note_on_c, 0, 50, 80
2, 5519, Note_on_c, 0, 47, 0
2, 5519, Note_on_c, 0, 50, 0
2, 5520, Note_on_c, 0, 50, 80
2, 5759, Note_on_c, 0, 50, 0
2, 5760, Note_on_c, 0, 43, 80
2, 5999, Note_on_c, 0, 43, 0
2, 6000, Note_on_c, 0, 55, 80
2, 6719, Note_on_c, 0, 55, 0
2, 6720, Note_on_c, 0, 54, 80
2, 6720, Note_on_c, 0, 62, 80
2, 6959, Note_on_c, 0, 62, 0
2, 6960, Note_on_c, 0, 66, 80
2, 7199, Note_on_c, 0, 66, 0
2, 7200, Note_on_c, 0, 59, 80
2, 7439, Note_on_c, 0, 59, 0
2, 7439, Note_on_c, 0, 54, 0
2, 7440, Note_on_c, 0, 52, 80
2, 7440, Note_on_c, 0, 64, 80
2, 7679, Note_on_c, 0, 52, 0
2, 7679, Note_on_c, 0, 64, 0
2, 7680, Note_on_c, 0, 55, 80
2, 7919, Note_on_c, 0, 55, 0
2, 7920, Note_on_c, 0, 49, 80
2, 8159, Note_on_c, 0, 49, 0
2, 8160, Note_on_c, 0, 57, 80
2, 8160, Note_on_c, 0, 61, 80
2, 8399, Note_on_c, 0, 57, 0
2, 8399, Note_on_c, 0, 61, 0
2, 8400, Note_on_c, 0, 61, 80
2, 8400, Note_on_c, 0, 64, 80
2, 8639, Note_on_c, 0, 61, 0
2, 8639, Note_on_c, 0, 64, 0
2, 8640, Note_on_c, 0, 54, 80
2, 8640, Note_on_c, 0, 57, 80
2, 9359, Note_on_c, 0, 54, 0
2, 9360, Note_on_c, 0, 55, 80
2, 9599, Note_on_c, 0, 55, 0
2, 9599, Note_on_c, 0, 57, 0
2, 9600, Note_on_c, 0, 43, 80
2, 9600, Note_on_c, 0, 55, 80
2, 9839, Note_on_c, 0, 55, 0
2, 9840, Note_on_c, 0, 59, 80
2, 10079, Note_on_c, 0, 59, 0
2, 10080, Note_on_c, 0, 52, 80
2, 10319, Note_on_c, 0, 52, 0
2, 10319, Note_on_c, 0, 43, 0
2, 10320, Note_on_c, 0, 42, 80
2, 10320, Note_on_c, 0, 54, 80
2, 10559, Note_on_c, 0, 42, 0
2, 10559, Note_on_c, 0, 54, 0
2, 10560, Note_on_c, 0, 45, 80
2, 10560, Note_on_c, 0, 52, 80
2, 10799, Note_on_c, 0, 45, 0
2, 10799, Note_on_c, 0, 52, 0
2, 10800, Note_on_c, 0, 38, 80
2, 10800, Note_on_c, 0, 50, 80
2, 11159, Note_on_c, 0, 38, 0
2, 11160, Note_on_c, 0, 50, 80
2, 11279, Note_on_c, 0, 50, 0
2, 11279, Note_on_c, 0, 50, 0
2, 11280, Note_on_c, 0, 52, 80
2, 11399, Note_on_c, 0, 52, 0
2, 11400, Note_on_c, 0, 54, 80
2, 11519, Note_on_c, 0, 54, 0
2, 11520, Note_on_c, 0, 55, 80
2, 12239, Note_on_c, 0, 55, 0
2, 12240, Note_on_c, 0, 54, 80
2, 12959, Note_on_c, 0, 54, 0
2, 12960, Note_on_c, 0, 52, 80
2, 13200, Note_on_c, 0, 59, 80
2, 13439, Note_on_c, 0, 59, 0
2, 13440, Note_on_c, 0, 55, 80
2, 13679, Note_on_c, 0, 52, 0
2, 13679, Note_on_c, 0, 55, 0
2, 13680, Note_on_c, 0, 62, 80
2, 13920, Note_on_c, 0, 50, 80
2, 14159, Note_on_c, 0, 50, 0
2, 14159, Note_on_c, 0, 62, 0
2, 14160, Note_on_c, 0, 54, 80
2, 14399, Note_on_c, 0, 54, 0
2, 14400, Note_on_c, 0, 47, 80
2, 14640, Note_on_c, 0, 55, 80
2, 14879, Note_on_c, 0, 55, 0
2, 14880, Note_on_c, 0, 59, 80
2, 15119, Note_on_c, 0, 47, 0
2, 15119, Note_on_c, 0, 59, 0
2, 15120, Note_on_c, 0, 48, 80
2, 15120, Note_on_c, 0, 52, 80
2, 15359, Note_on_c, 0, 52, 0
2, 15360, Note_on_c, 0, 57, 80
2, 15599, Note_on_c, 0, 57, 0
2, 15600, Note_on_c, 0, 55, 80
2, 15839, Note_on_c, 0, 48, 0
2, 15839, Note_on_c, 0, 55, 0
2, 15840, Note_on_c, 0, 50, 80
2, 16080, Note_on_c, 0, 54, 80
2, 16199, Note_on_c, 0, 54, 0
2, 16200, Note_on_c, 0, 52, 80
2, 16319, Note_on_c, 0, 52, 0
2, 16320, Note_on_c, 0, 54, 80
2, 16559, Note_on_c, 0, 50, 0
2, 16559, Note_on_c, 0, 54, 0
2, 16560, Note_on_c, 0, 55, 80
2, 16799, Note_on_c, 0, 55, 0
2, 16800, Note_on_c, 0, 47, 80
2, 16800, Note_on_c, 0, 50, 80
2, 17039, Note_on_c, 0, 47, 0
2, 17039, Note_on_c, 0, 50, 0
2, 17040, Note_on_c, 0, 50, 80
2, 17279, Note_on_c, 0, 50, 0
2, 17280, Note_on_c, 0, 43, 80
2, 17519, Note_on_c, 0, 43, 0
2, 17520, Note_on_c, 0, 55, 80
2, 18239, Note_on_c, 0, 55, 0
2, 18240, Note_on_c, 0, 54, 80
2, 18240, Note_on_c, 0, 62, 80
2, 18479, Note_on_c, 0, 62, 0
2, 18480, Note_on_c, 0, 66, 80
2, 18719, Note_on_c, 0, 66, 0
2, 18720, Note_on_c, 0, 59, 80
2, 18959, Note_on_c, 0, 59, 0
2, 18959, Note_on_c, 0, 54, 0
2, 18960, Note_on_c, 0, 52, 80
2, 18960, Note_on_c, 0, 64, 80
2, 19199, Note_on_c, 0, 52, 0
2, 19199, Note_on_c, 0, 64, 0
2, 19200, Note_on_c, 0, 55, 80
2, 19439, Note_on_c, 0, 55, 0
2, 19440, Note_on_c, 0, 49, 80
2, 19679, Note_on_c, 0, 49, 0
2, 19680, Note_on_c, 0, 57, 80
2, 19680, Note_on_c, 0, 61, 80
2, 19919, Note_on_c, 0, 57, 0
2, 19919, Note_on_c, 0, 61, 0
2, 19920, Note_on_c, 0, 61, 80
2, 19920, Note_on_c, 0, 64, 80
2, 20159, Note_on_c, 0, 61, 0
2, 20159, Note_on_c, 0, 64, 0
2, 20160, Note_on_c, 0, 54, 80
2, 20160, Note_on_c, 0, 57, 80
2, 20879, Note_on_c, 0, 54, 0
2, 20880, Note_on_c, 0, 55, 80
2, 21119, Note_on_c, 0, 55, 0
2, 21119, Note_on_c, 0, 57, 0
2, 21120, Note_on_c, 0, 43, 80
2, 21120, Note_on_c, 0, 55, 80
2, 21359, Note_on_c, 0, 55, 0
2, 21360, Note_on_c, 0, 59, 80
2, 21599, Note_on_c, 0, 59, 0
2, 21600, Note_on_c, 0, 52, 80
2, 21839, Note_on_c, 0, 52, 0
2, 21839, Note_on_c, 0, 43, 0
2, 21840, Note_on_c, 0, 42, 80
2, 21840, Note_on_c, 0, 54, 80
2, 22079, Note_on_c, 0, 42, 0
2, 22079, Note_on_c, 0, 54, 0
2, 22080, Note_on_c, 0, 45, 80
2, 22080, Note_on_c, 0, 52, 80
2, 22319, Note_on_c, 0, 45, 0
2, 22319, Note_on_c, 0, 52, 0
2, 22320, Note_on_c, 0, 38, 80
2, 22320, Note_on_c, 0, 50, 80
2, 22679, Note_on_c, 0, 38, 0
2, 22680, Note_on_c, 0, 57, 80
2, 22799, Note_on_c, 0, 57, 0
2, 22799, Note_on_c, 0, 50, 0
2, 22800, Note_on_c, 0, 59, 80
2, 22919, Note_on_c, 0, 59, 0
2, 22920, Note_on_c, 0, 61, 80
2, 23039, Note_on_c, 0, 61, 0
2, 23040, Note_on_c, 0, 62, 80
2, 23519, Note_on_c, 0, 62, 0
2, 23520, Note_on_c, 0, 60, 80
2, 23759, Note_on_c, 0, 60, 0
2, 23760, Note_on_c, 0, 59, 80
2, 24000, Note_on_c, 0, 62, 80
2, 24239, Note_on_c, 0, 59, 0
2, 24239, Note_on_c, 0, 62, 0
2, 24240, Note_on_c, 0, 55, 80
2, 24240, Note_on_c, 0, 67, 80
2, 24479, Note_on_c, 0, 55, 0
2, 24479, Note_on_c, 0, 67, 0
2, 24480, Note_on_c, 0, 60, 80
2, 24480, Note_on_c, 0, 64, 80
2, 24719, Note_on_c, 0, 60, 0
2, 24719, Note_on_c, 0, 64, 0
2, 24720, Note_on_c, 0, 54, 80
2, 24720, Note_on_c, 0, 60, 80
2, 24959, Note_on_c, 0, 54, 0
2, 24960, Note_on_c, 0, 57, 80
2, 25199, Note_on_c, 0, 57, 0
2, 25199, Note_on_c, 0, 60, 0
2, 25200, Note_on_c, 0, 59, 80
2, 25439, Note_on_c, 0, 59, 0
2, 25440, Note_on_c, 0, 51, 80
2, 25440, Note_on_c, 0, 59, 80
2, 25559, Note_on_c, 0, 59, 0
2, 25560, Note_on_c, 0, 57, 80
2, 25679, Note_on_c, 0, 51, 0
2, 25679, Note_on_c, 0, 57, 0
2, 25680, Note_on_c, 0, 47, 80
2, 25680, Note_on_c, 0, 55, 80
2, 25799, Note_on_c, 0, 55, 0
2, 25800, Note_on_c, 0, 54, 80
2, 25919, Note_on_c, 0, 47, 0
2, 25919, Note_on_c, 0, 54, 0
2, 25920, Note_on_c, 0, 52, 80
2, 25920, Note_on_c, 0, 55, 80
2, 26039, Note_on_c, 0, 55, 0
2, 26040, Note_on_c, 0, 57, 80
2, 26159, Note_on_c, 0, 52, 0
2, 26159, Note_on_c, 0, 57, 0
2, 26160, Note_on_c, 0, 55, 80
2, 26160, Note_on_c, 0, 59, 80
2, 26399, Note_on_c, 0, 55, 0
2, 26400, Note_on_c, 0, 52, 80
2, 26639, Note_on_c, 0, 52, 0
2, 26639, Note_on_c, 0, 59, 0
2, 26640, Note_on_c, 0, 57, 80
2, 26879, Note_on_c, 0, 57, 0
2, 26880, Note_on_c, 0, 54, 80
2, 26880, Note_on_c, 0, 57, 80
2, 27119, Note_on_c, 0, 54, 0
2, 27119, Note_on_c, 0, 57, 0
2, 27120, Note_on_c, 0, 52, 80
2, 27120, Note_on_c, 0, 59, 80
2, 27359, Note_on_c, 0, 52, 0
2, 27359, Note_on_c, 0, 59, 0
2, 27360, Note_on_c, 0, 57, 80
2, 27360, Note_on_c, 0, 60, 80
2, 27599, Note_on_c, 0, 57, 0
2, 27599, Note_on_c, 0, 60, 0
2, 27600, Note_on_c, 0, 59, 80
2, 27840, Note_on_c, 0, 47, 80
2, 28079, Note_on_c, 0, 47, 0
2, 28079, Note_on_c, 0, 59, 0
2, 28080, Note_on_c, 0, 52, 80
2, 28320, Note_on_c, 0, 55, 80
2, 28559, Note_on_c, 0, 52, 0
2, 28559, Note_on_c, 0, 55, 0
2, 28560, Note_on_c, 0, 50, 80
2, 28560, Note_on_c, 0, 59, 80
2, 28799, Note_on_c, 0, 50, 0
2, 28799, Note_on_c, 0, 59, 0
2, 28800, Note_on_c, 0, 48, 80
2, 28800, Note_on_c, 0, 52, 80
2, 29039, Note_on_c, 0, 52, 0
2, 29040, Note_on_c, 0, 57, 80
2, 29159, Note_on_c, 0, 57, 0
2, 29160, Note_on_c, 0, 55, 80
2, 29279, Note_on_c, 0, 55, 0
2, 29280, Note_on_c, 0, 54, 80
2, 29399, Note_on_c, 0, 54, 0
2, 29400, Note_on_c, 0, 55, 80
2, 29519, Note_on_c, 0, 55, 0
2, 29520, Note_on_c, 0, 62, 80
2, 29759, Note_on_c, 0, 48, 0
2, 29760, Note_on_c, 0, 47, 80
2, 29999, Note_on_c, 0, 62, 0
2, 30240, Note_on_c, 0, 60, 80
2, 30479, Note_on_c, 0, 60, 0
2, 30479, Note_on_c, 0, 47, 0
2, 30480, Note_on_c, 0, 45, 80
2, 30480, Note_on_c, 0, 54, 80
2, 30719, Note_on_c, 0, 45, 0
2, 30719, Note_on_c, 0, 54, 0
2, 30720, Note_on_c, 0, 48, 80
2, 30720, Note_on_c, 0, 57, 80
2, 30959, Note_on_c, 0, 48, 0
2, 30959, Note_on_c, 0, 57, 0
2, 30960, Note_on_c, 0, 42, 80
2, 30960, Note_on_c, 0, 50, 80
2, 31199, Note_on_c, 0, 42, 0
2, 31200, Note_on_c, 0, 38, 80
2, 31439, Note_on_c, 0, 38, 0
2, 31440, Note_on_c, 0, 42, 80
2, 31679, Note_on_c, 0, 42, 0
2, 31680, Note_on_c, 0, 43, 80
2, 31919, Note_on_c, 0, 43, 0
2, 31920, Note_on_c, 0, 47, 80
2, 32159, Note_on_c, 0, 47, 0
2, 32159, Note_on_c, 0, 50, 0
2, 32160, Note_on_c, 0, 43, 80
2, 32160, Note_on_c, 0, 55, 80
2, 32399, Note_on_c, 0, 43, 0
2, 32399, Note_on_c, 0, 55, 0
2, 32400, Note_on_c, 0, 48, 80
2, 32640, Note_on_c, 0, 57, 80
2, 32879, Note_on_c, 0, 57, 0
2, 32880, Note_on_c, 0, 60, 80
2, 33119, Note_on_c, 0, 60, 0
2, 33120, Note_on_c, 0, 54, 80
2, 33359, Note_on_c, 0, 54, 0
2, 33359, Note_on_c, 0, 48, 0
2, 33360, Note_on_c, 0, 47, 80
2, 33360, Note_on_c, 0, 55, 80
2, 33599, Note_on_c, 0, 47, 0
2, 33599, Note_on_c, 0, 55, 0
2, 33600, Note_on_c, 0, 50, 80
2, 33600, Note_on_c, 0, 57, 80
2, 33839, Note_on_c, 0, 50, 0
2, 33839, Note_on_c, 0, 57, 0
2, 33840, Note_on_c, 0, 43, 80
2, 33840, Note_on_c, 0, 55, 80
2, 34199, Note_on_c, 0, 43, 0
2, 34200, Note_on_c, 0, 57, 80
2, 34319, Note_on_c, 0, 57, 0
2, 34319, Note_on_c, 0, 55, 0
2, 34320, Note_on_c, 0, 59, 80
2, 34439, Note_on_c, 0, 59, 0
2, 34440, Note_on_c, 0, 60, 80
2, 34559, Note_on_c, 0, 60, 0
2, 34560, Note_on_c, 0, 62, 80
2, 35039, Note_on_c, 0, 62, 0
2, 35040, Note_on_c, 0, 60, 80
2, 35279, Note_on_c, 0, 60, 0
2, 35280, Note_on_c, 0, 59, 80
2, 35520, Note_on_c, 0, 62, 80
2, 35759, Note_on_c, 0, 59, 0
2, 35759, Note_on_c, 0, 62, 0
2, 35760, Note_on_c, 0, 55, 80
2, 35760, Note_on_c, 0, 67, 80
2, 35999, Note_on_c, 0, 55, 0
2, 35999, Note_on_c, 0, 67, 0
2, 36000, Note_on_c, 0, 60, 80
2, 36000, Note_on_c, 0, 64, 80
2, 36239, Note_on_c, 0, 60, 0
2, 36239, Note_on_c, 0, 64, 0
2, 36240, Note_on_c, 0, 54, 80
2, 36240, Note_on_c, 0, 60, 80
2, 36479, Note_on_c, 0, 54, 0
2, 36480, Note_on_c, 0, 57, 80
2, 36719, Note_on_c, 0, 57, 0
2, 36719, Note_on_c, 0, 60, 0
2, 36720, Note_on_c, 0, 59, 80
2, 36959, Note_on_c, 0, 59, 0
2, 36960, Note_on_c, 0, 51, 80
2, 36960, Note_on_c, 0, 59, 80
2, 37079, Note_on_c, 0, 59, 0
2, 37080, Note_on_c, 0, 57, 80
2, 37199, Note_on_c, 0, 51, 0
2, 37199, Note_on_c, 0, 57, 0
2, 37200, Note_on_c, 0, 47, 80
2, 37200, Note_on_c, 0, 55, 80
2, 37319, Note_on_c, 0, 55, 0
2, 37320, Note_on_c, 0, 54, 80
2, 37439, Note_on_c, 0, 47, 0
2, 37439, Note_on_c, 0, 54, 0
2, 37440, Note_on_c, 0, 52, 80
2, 37440, Note_on_c, 0, 55, 80
2, 37559, Note_on_c, 0, 55, 0
2, 37560, Note_on_c, 0, 57, 80
2, 37679, Note_on_c, 0, 52, 0
2, 37679, Note_on_c, 0, 57, 0
2, 37680, Note_on_c, 0, 55, 80
2, 37680, Note_on_c, 0, 59, 80
2, 37919, Note_on_c, 0, 55, 0
2, 37920, Note_on_c, 0, 52, 80
2, 38159, Note_on_c, 0, 52, 0
2, 38159, Note_on_c, 0, 59, 0
2, 38160, Note_on_c, 0, 57, 80
2, 38399, Note_on_c, 0, 57, 0
2, 38400, Note_on_c, 0, 54, 80
2, 38400, Note_on_c, 0, 57, 80
2, 38639, Note_on_c, 0, 54, 0
2, 38639, Note_on_c, 0, 57, 0
2, 38640, Note_on_c, 0, 52, 80
2, 38640, Note_on_c, 0, 59, 80
2, 38879, Note_on_c, 0, 52, 0
2, 38879, Note_on_c, 0, 59, 0
2, 38880, Note_on_c, 0, 57, 80
2, 38880, Note_on_c, 0, 60, 80
2, 39119, Note_on_c, 0, 57, 0
2, 39119, Note_on_c, 0, 60, 0
2, 39120, Note_on_c, 0, 59, 80
2, 39360, Note_on_c, 0, 47, 80
2, 39599, Note_on_c, 0, 47, 0
2, 39599, Note_on_c, 0, 59, 0
2, 39600, Note_on_c, 0, 52, 80
2, 39840, Note_on_c, 0, 55, 80
2, 40079, Note_on_c, 0, 52, 0
2, 40079, Note_on_c, 0, 55, 0
2, 40080, Note_on_c, 0, 50, 80
2, 40080, Note_on_c, 0, 59, 80
2, 40319, Note_on_c, 0, 50, 0
2, 40319, Note_on_c, 0, 59, 0
2, 40320, Note_on_c, 0, 48, 80
2, 40320, Note_on_c, 0, 52, 80
2, 40559, Note_on_c, 0, 52, 0
2, 40560, Note_on_c, 0, 57, 80
2, 40679, Note_on_c, 0, 57, 0
2, 40680, Note_on_c, 0, 55, 80
2, 40799, Note_on_c, 0, 55, 0
2, 40800, Note_on_c, 0, 54, 80
2, 40919, Note_on_c, 0, 54, 0
2, 40920, Note_on_c, 0, 55, 80
2, 41039, Note_on_c, 0, 55, 0
2, 41040, Note_on_c, 0, 62, 80
2, 41279, Note_on_c, 0, 48, 0
2, 41280, Note_on_c, 0, 47, 80
2, 41519, Note_on_c, 0, 62, 0
2, 41760, Note_on_c, 0, 60, 80
2, 41999, Note_on_c, 0, 60, 0
2, 41999, Note_on_c, 0, 47, 0
2, 42000, Note_on_c, 0, 45, 80
2, 42000, Note_on_c, 0, 54, 80
2, 42239, Note_on_c, 0, 45, 0
2, 42239, Note_on_c, 0, 54, 0
2, 42240, Note_on_c, 0, 48, 80
2, 42240, Note_on_c, 0, 57, 80
2, 42479, Note_on_c, 0, 48, 0
2, 42479, Note_on_c, 0, 57, 0
2, 42480, Note_on_c, 0, 42, 80
2, 42480, Note_on_c, 0, 50, 80
2, 42719, Note_on_c, 0, 42, 0
2, 42720, Note_on_c, 0, 38, 80
2, 42959, Note_on_c, 0, 38, 0
2, 42960, Note_on_c, 0, 42, 80
2, 43199, Note_on_c, 0, 42, 0
2, 43200, Note_on_c, 0, 43, 80
2, 43439, Note_on_c, 0, 43, 0
2, 43440, Note_on_c, 0, 47, 80
2, 43679, Note_on_c, 0, 47, 0
2, 43679, Note_on_c, 0, 50, 0
2, 43680, Note_on_c, 0, 43, 80
2, 43680, Note_on_c, 0, 55, 80
2, 43919, Note_on_c, 0, 43, 0
2, 43919, Note_on_c, 0, 55, 0
2, 43920, Note_on_c, 0, 48, 80
2, 44160, Note_on_c, 0, 57, 80
2, 44399, Note_on_c, 0, 57, 0
2, 44400, Note_on_c, 0, 60, 80
2, 44639, Note_on_c, 0, 60, 0
2, 44640, Note_on_c, 0, 54, 80
2, 44879, Note_on_c, 0, 54, 0
2, 44879, Note_on_c, 0, 48, 0
2, 44880, Note_on_c, 0, 47, 80
2, 44880, Note_on_c, 0, 55, 80
2, 45119, Note_on_c, 0, 47, 0
2, 45119, Note_on_c, 0, 55, 0
2, 45120, Note_on_c, 0, 50, 80
2, 45120, Note_on_c, 0, 57, 80
2, 45359, Note_on_c, 0, 50, 0
2, 45359, Note_on_c, 0, 57, 0
2, 45360, Note_on_c, 0, 43, 80
2, 45360, Note_on_c, 0, 55, 80
2, 45839, Note_on_c, 0, 43, 0
2, 45839, Note_on_c, 0, 55, 0
2, 45840, End_track
0, 0, End_of_file
