0, 0, Header, 1, 4, 480
1, 0, Start_track
1, 0, Unknown_meta_event, 8, 50, 67, 111, 110, 116, 114, 97, 112, 117, 110, 99, 116, 117, 115, 32, 73, 88, 32, 97, 32, 52, 46, 32, 97, 108, 108, 97, 32, 68, 117, 111, 100, 101, 99, 105, 109, 97, 32, 40, 65, 32, 61, 32, 52, 49, 53, 32, 72, 122, 41, 0
1, 0, Unknown_meta_event, 9, 26, 66, 87, 86, 32, 49, 48, 56, 48, 32, 84, 104, 101, 32, 65, 114, 116, 32, 111, 102, 32, 70, 117, 103, 117, 101, 0
1, 0, Unknown_meta_event, 10, 11, 74, 46, 32, 83, 46, 32, 66, 97, 99, 104, 0
1, 0, Time_signature, 4, 2, 24, 8
1, 0, Key_signature, 4, "major"
1, 0, Program_c, 0, 46
1, 2, Control_c, 0, 7, 100
1, 4, Control_c, 0, 10, 64
1, 6, Control_c, 0, 91, 30
1, 8, Control_c, 0, 93, 30
1, 6960, Note_on_c, 0, 68, 80
1, 7199, Note_on_c, 0, 68, 0
1, 7200, Note_on_c, 0, 80, 80
1, 7919, Note_on_c, 0, 80, 0
1, 7920, Note_on_c, 0, 79, 80
1, 8039, Note_on_c, 0, 79, 0
1, 8040, Note_on_c, 0, 77, 80
1, 8159, Note_on_c, 0, 77, 0
1, 8160, Note_on_c, 0, 75, 80
1, 8279, Note_on_c, 0, 75, 0
1, 8280, Note_on_c, 0, 73, 80
1, 8399, Note_on_c, 0, 73, 0
1, 8400, Note_on_c, 0, 71, 80
1, 8519, Note_on_c, 0, 71, 0
1, 8520, Note_on_c, 0, 70, 80
1, 8639, Note_on_c, 0, 70, 0
1, 8640, Note_on_c, 0, 68, 80
1, 8759, Note_on_c, 0, 68, 0
1, 8760, Note_on_c, 0, 67, 80
1, 8879, Note_on_c, 0, 67, 0
1, 8880, Note_on_c, 0, 68, 80
1, 8999, Note_on_c, 0, 68, 0
1, 9000, Note_on_c, 0, 70, 80
1, 9119, Note_on_c, 0, 70, 0
1, 9120, Note_on_c, 0, 71, 80
1, 9239, Note_on_c, 0, 71, 0
1, 9240, Note_on_c, 0, 68, 80
1, 9359, Note_on_c, 0, 68, 0
1, 9360, Note_on_c, 0, 70, 80
1, 9479, Note_on_c, 0, 70, 0
1, 9480, Note_on_c, 0, 71, 80
1, 9599, Note_on_c, 0, 71, 0
1, 9600, Note_on_c, 0, 73, 80
1, 9719, Note_on_c, 0, 73, 0
1, 9720, Note_on_c, 0, 72, 80
1, 9839, Note_on_c, 0, 72, 0
1, 9840, Note_on_c, 0, 73, 80
1, 9959, Note_on_c, 0, 73, 0
1, 9960, Note_on_c, 0, 75, 80
1, 10079, Note_on_c, 0, 75, 0
1, 10080, Note_on_c, 0, 76, 80
1, 10199, Note_on_c, 0, 76, 0
1, 10200, Note_on_c, 0, 73, 80
1, 10319, Note_on_c, 0, 73, 0
1, 10320, Note_on_c, 0, 75, 80
1, 10439, Note_on_c, 0, 75, 0
1, 10440, Note_on_c, 0, 76, 80
1, 10559, Note_on_c, 0, 76, 0
1, 10560, Note_on_c, 0, 76, 80
1, 10799, Note_on_c, 0, 76, 0
1, 10800, Note_on_c, 0, 75, 80
1, 11039, Note_on_c, 0, 75, 0
1, 11160, Note_on_c, 0, 75, 80
1, 11279, Note_on_c, 0, 75, 0
1, 11280, Note_on_c, 0, 73, 80
1, 11399, Note_on_c, 0, 73, 0
1, 11400, Note_on_c, 0, 75, 80
1, 11519, Note_on_c, 0, 75, 0
1, 11520, Note_on_c, 0, 76, 80
1, 11639, Note_on_c, 0, 76, 0
1, 11640, Note_on_c, 0, 80, 80
1, 11759, Note_on_c, 0, 80, 0
1, 11760, Note_on_c, 0, 78, 80
1, 11879, Note_on_c, 0, 78, 0
1, 11880, Note_on_c, 0, 76, 80
1, 11999, Note_on_c, 0, 76, 0
1, 12000, Note_on_c, 0, 78, 80
1, 12119, Note_on_c, 0, 78, 0
1, 12120, Note_on_c, 0, 76, 80
1, 12239, Note_on_c, 0, 76, 0
1, 12240, Note_on_c, 0, 75, 80
1, 12359, Note_on_c, 0, 75, 0
1, 12360, Note_on_c, 0, 73, 80
1, 12479, Note_on_c, 0, 73, 0
1, 12480, Note_on_c, 0, 71, 80
1, 12599, Note_on_c, 0, 71, 0
1, 12600, Note_on_c, 0, 76, 80
1, 12719, Note_on_c, 0, 76, 0
1, 12720, Note_on_c, 0, 75, 80
1, 12839, Note_on_c, 0, 75, 0
1, 12840, Note_on_c, 0, 73, 80
1, 12959, Note_on_c, 0, 73, 0
1, 12960, Note_on_c, 0, 75, 80
1, 13079, Note_on_c, 0, 75, 0
1, 13080, Note_on_c, 0, 73, 80
1, 13199, Note_on_c, 0, 73, 0
1, 13200, Note_on_c, 0, 71, 80
1, 13319, Note_on_c, 0, 71, 0
1, 13320, Note_on_c, 0, 70, 80
1, 13439, Note_on_c, 0, 70, 0
1, 13440, Note_on_c, 0, 68, 80
1, 13559, Note_on_c, 0, 68, 0
1, 13560, Note_on_c, 0, 73, 80
1, 13679, Note_on_c, 0, 73, 0
1, 13680, Note_on_c, 0, 71, 80
1, 13799, Note_on_c, 0, 71, 0
1, 13800, Note_on_c, 0, 69, 80
1, 13919, Note_on_c, 0, 69, 0
1, 13920, Note_on_c, 0, 71, 80
1, 14039, Note_on_c, 0, 71, 0
1, 14040, Note_on_c, 0, 69, 80
1, 14159, Note_on_c, 0, 69, 0
1, 14160, Note_on_c, 0, 68, 80
1, 14279, Note_on_c, 0, 68, 0
1, 14280, Note_on_c, 0, 67, 80
1, 14399, Note_on_c, 0, 67, 0
1, 14400, Note_on_c, 0, 68, 80
1, 14639, Note_on_c, 0, 68, 0
1, 14640, Note_on_c, 0, 76, 80
1, 14879, Note_on_c, 0, 76, 0
1, 14880, Note_on_c, 0, 72, 80
1, 15359, Note_on_c, 0, 72, 0
1, 15360, Note_on_c, 0, 73, 80
1, 15839, Note_on_c, 0, 73, 0
1, 16080, Note_on_c, 0, 71, 80
1, 16319, Note_on_c, 0, 71, 0
1, 16320, Note_on_c, 0, 71, 80
1, 16559, Note_on_c, 0, 71, 0
1, 16560, Note_on_c, 0, 69, 80
1, 16679, Note_on_c, 0, 69, 0
1, 16680, Note_on_c, 0, 73, 80
1, 16799, Note_on_c, 0, 73, 0
1, 16800, Note_on_c, 0, 78, 80
1, 17039, Note_on_c, 0, 78, 0
1, 17040, Note_on_c, 0, 75, 80
1, 17279, Note_on_c, 0, 75, 0
1, 17280, Note_on_c, 0, 72, 80
1, 17759, Note_on_c, 0, 72, 0
1, 18000, Note_on_c, 0, 72, 80
1, 18239, Note_on_c, 0, 72, 0
1, 18240, Note_on_c, 0, 73, 80
1, 18479, Note_on_c, 0, 73, 0
1, 18480, Note_on_c, 0, 76, 80
1, 18719, Note_on_c, 0, 76, 0
1, 18720, Note_on_c, 0, 75, 80
1, 18839, Note_on_c, 0, 75, 0
1, 18840, Note_on_c, 0, 78, 80
1, 18959, Note_on_c, 0, 78, 0
1, 18960, Note_on_c, 0, 69, 80
1, 19199, Note_on_c, 0, 69, 0
1, 19200, Note_on_c, 0, 68, 80
1, 19439, Note_on_c, 0, 68, 0
1, 19440, Note_on_c, 0, 71, 80
1, 19679, Note_on_c, 0, 71, 0
1, 19680, Note_on_c, 0, 72, 80
1, 19799, Note_on_c, 0, 72, 0
1, 19800, Note_on_c, 0, 75, 80
1, 19919, Note_on_c, 0, 75, 0
1, 19920, Note_on_c, 0, 66, 80
1, 20159, Note_on_c, 0, 66, 0
1, 20160, Note_on_c, 0, 64, 80
1, 20639, Note_on_c, 0, 64, 0
1, 20880, Note_on_c, 0, 72, 80
1, 21119, Note_on_c, 0, 72, 0
1, 21120, Note_on_c, 0, 70, 80
1, 21599, Note_on_c, 0, 70, 0
1, 21840, Note_on_c, 0, 67, 80
1, 22079, Note_on_c, 0, 67, 0
1, 22080, Note_on_c, 0, 68, 80
1, 23999, Note_on_c, 0, 68, 0
1, 24000, Note_on_c, 0, 70, 80
1, 24119, Note_on_c, 0, 70, 0
1, 24120, Note_on_c, 0, 71, 80
1, 24239, Note_on_c, 0, 71, 0
1, 24240, Note_on_c, 0, 73, 80
1, 24359, Note_on_c, 0, 73, 0
1, 24360, Note_on_c, 0, 70, 80
1, 24479, Note_on_c, 0, 70, 0
1, 24480, Note_on_c, 0, 71, 80
1, 25439, Note_on_c, 0, 71, 0
1, 25440, Note_on_c, 0, 69, 80
1, 25919, Note_on_c, 0, 69, 0
1, 25920, Note_on_c, 0, 68, 80
1, 26399, Note_on_c, 0, 68, 0
1, 26400, Note_on_c, 0, 66, 80
1, 26879, Note_on_c, 0, 66, 0
1, 26880, Note_on_c, 0, 64, 80
1, 26999, Note_on_c, 0, 64, 0
1, 27000, Note_on_c, 0, 68, 80
1, 27119, Note_on_c, 0, 68, 0
1, 27120, Note_on_c, 0, 66, 80
1, 27239, Note_on_c, 0, 66, 0
1, 27240, Note_on_c, 0, 64, 80
1, 27359, Note_on_c, 0, 64, 0
1, 27360, Note_on_c, 0, 66, 80
1, 27479, Note_on_c, 0, 66, 0
1, 27480, Note_on_c, 0, 64, 80
1, 27599, Note_on_c, 0, 64, 0
1, 27600, Note_on_c, 0, 63, 80
1, 27719, Note_on_c, 0, 63, 0
1, 27720, Note_on_c, 0, 61, 80
1, 27839, Note_on_c, 0, 61, 0
1, 27840, Note_on_c, 0, 66, 80
1, 27959, Note_on_c, 0, 66, 0
1, 27960, Note_on_c, 0, 69, 80
1, 28079, Note_on_c, 0, 69, 0
1, 28080, Note_on_c, 0, 68, 80
1, 28199, Note_on_c, 0, 68, 0
1, 28200, Note_on_c, 0, 66, 80
1, 28319, Note_on_c, 0, 66, 0
1, 28320, Note_on_c, 0, 68, 80
1, 28439, Note_on_c, 0, 68, 0
1, 28440, Note_on_c, 0, 66, 80
1, 28559, Note_on_c, 0, 66, 0
1, 28560, Note_on_c, 0, 64, 80
1, 28679, Note_on_c, 0, 64, 0
1, 28680, Note_on_c, 0, 63, 80
1, 28799, Note_on_c, 0, 63, 0
1, 28800, Note_on_c, 0, 68, 80
1, 29039, Note_on_c, 0, 68, 0
1, 29040, Note_on_c, 0, 71, 80
1, 29279, Note_on_c, 0, 71, 0
1, 29280, Note_on_c, 0, 76, 80
1, 30239, Note_on_c, 0, 76, 0
1, 30240, Note_on_c, 0, 75, 80
1, 31199, Note_on_c, 0, 75, 0
1, 31200, Note_on_c, 0, 73, 80
1, 32159, Note_on_c, 0, 73, 0
1, 32160, Note_on_c, 0, 72, 80
1, 32639, Note_on_c, 0, 72, 0
1, 32640, Note_on_c, 0, 73, 80
1, 33599, Note_on_c, 0, 73, 0
1, 33600, Note_on_c, 0, 80, 80
1, 34559, Note_on_c, 0, 80, 0
1, 34560, Note_on_c, 0, 76, 80
1, 35519, Note_on_c, 0, 76, 0
1, 35520, Note_on_c, 0, 73, 80
1, 36479, Note_on_c, 0, 73, 0
1, 36480, Note_on_c, 0, 72, 80
1, 37439, Note_on_c, 0, 72, 0
1, 37440, Note_on_c, 0, 73, 80
1, 37919, Note_on_c, 0, 73, 0
1, 37920, Note_on_c, 0, 75, 80
1, 38399, Note_on_c, 0, 75, 0
1, 38400, Note_on_c, 0, 76, 80
1, 39599, Note_on_c, 0, 76, 0
1, 39600, Note_on_c, 0, 78, 80
1, 39839, Note_on_c, 0, 78, 0
1, 39840, Note_on_c, 0, 76, 80
1, 40079, Note_on_c, 0, 76, 0
1, 40080, Note_on_c, 0, 75, 80
1, 40319, Note_on_c, 0, 75, 0
1, 40320, Note_on_c, 0, 73, 80
1, 41399, Note_on_c, 0, 73, 0
1, 41400, Note_on_c, 0, 73, 80
1, 41519, Note_on_c, 0, 73, 0
1, 41520, Note_on_c, 0, 71, 80
1, 41639, Note_on_c, 0, 71, 0
1, 41640, Note_on_c, 0, 69, 80
1, 41759, Note_on_c, 0, 69, 0
1, 41760, Note_on_c, 0, 71, 80
1, 41879, Note_on_c, 0, 71, 0
1, 41880, Note_on_c, 0, 69, 80
1, 41999, Note_on_c, 0, 69, 0
1, 42000, Note_on_c, 0, 68, 80
1, 42119, Note_on_c, 0, 68, 0
1, 42120, Note_on_c, 0, 66, 80
1, 42239, Note_on_c, 0, 66, 0
1, 42240, Note_on_c, 0, 68, 80
1, 42359, Note_on_c, 0, 68, 0
1, 42360, Note_on_c, 0, 83, 80
1, 42479, Note_on_c, 0, 83, 0
1, 42480, Note_on_c, 0, 81, 80
1, 42599, Note_on_c, 0, 81, 0
1, 42600, Note_on_c, 0, 80, 80
1, 42719, Note_on_c, 0, 80, 0
1, 42720, Note_on_c, 0, 81, 80
1, 42839, Note_on_c, 0, 81, 0
1, 42840, Note_on_c, 0, 80, 80
1, 42959, Note_on_c, 0, 80, 0
1, 42960, Note_on_c, 0, 78, 80
1, 43079, Note_on_c, 0, 78, 0
1, 43080, Note_on_c, 0, 76, 80
1, 43199, Note_on_c, 0, 76, 0
1, 43200, Note_on_c, 0, 75, 80
1, 43319, Note_on_c, 0, 75, 0
1, 43320, Note_on_c, 0, 76, 80
1, 43439, Note_on_c, 0, 76, 0
1, 43440, Note_on_c, 0, 78, 80
1, 43679, Note_on_c, 0, 78, 0
1, 43920, Note_on_c, 0, 78, 80
1, 44159, Note_on_c, 0, 78, 0
1, 44160, Note_on_c, 0, 78, 80
1, 44399, Note_on_c, 0, 78, 0
1, 44400, Note_on_c, 0, 76, 80
1, 44639, Note_on_c, 0, 76, 0
1, 44760, Note_on_c, 0, 71, 80
1, 44879, Note_on_c, 0, 71, 0
1, 44880, Note_on_c, 0, 69, 80
1, 44999, Note_on_c, 0, 69, 0
1, 45000, Note_on_c, 0, 71, 80
1, 45119, Note_on_c, 0, 71, 0
1, 45120, Note_on_c, 0, 68, 80
1, 45359, Note_on_c, 0, 68, 0
1, 45360, Note_on_c, 0, 73, 80
1, 45599, Note_on_c, 0, 73, 0
1, 45600, Note_on_c, 0, 71, 80
1, 45839, Note_on_c, 0, 71, 0
1, 45840, Note_on_c, 0, 70, 80
1, 46079, Note_on_c, 0, 70, 0
1, 46080, Note_on_c, 0, 71, 80
1, 46319, Note_on_c, 0, 71, 0
1, 46320, Note_on_c, 0, 69, 80
1, 46439, Note_on_c, 0, 69, 0
1, 46440, Note_on_c, 0, 68, 80
1, 46559, Note_on_c, 0, 68, 0
1, 46560, Note_on_c, 0, 69, 80
1, 47039, Note_on_c, 0, 69, 0
1, 47040, Note_on_c, 0, 68, 80
1, 47279, Note_on_c, 0, 68, 0
1, 47280, Note_on_c, 0, 76, 80
1, 47519, Note_on_c, 0, 76, 0
1, 47520, Note_on_c, 0, 73, 80
1, 48119, Note_on_c, 0, 73, 0
1, 48120, Note_on_c, 0, 71, 80
1, 48239, Note_on_c, 0, 71, 0
1, 48240, Note_on_c, 0, 69, 80
1, 48359, Note_on_c, 0, 69, 0
1, 48360, Note_on_c, 0, 68, 80
1, 48479, Note_on_c, 0, 68, 0
1, 48480, Note_on_c, 0, 69, 80
1, 48599, Note_on_c, 0, 69, 0
1, 48600, Note_on_c, 0, 68, 80
1, 48719, Note_on_c, 0, 68, 0
1, 48720, Note_on_c, 0, 66, 80
1, 48839, Note_on_c, 0, 66, 0
1, 48840, Note_on_c, 0, 64, 80
1, 48959, Note_on_c, 0, 64, 0
1, 48960, Note_on_c, 0, 63, 80
1, 49079, Note_on_c, 0, 63, 0
1, 49080, Note_on_c, 0, 64, 80
1, 49199, Note_on_c, 0, 64, 0
1, 49200, Note_on_c, 0, 66, 80
1, 49319, Note_on_c, 0, 66, 0
1, 49320, Note_on_c, 0, 68, 80
1, 49439, Note_on_c, 0, 68, 0
1, 49440, Note_on_c, 0, 69, 80
1, 50039, Note_on_c, 0, 69, 0
1, 50040, Note_on_c, 0, 68, 80
1, 50159, Note_on_c, 0, 68, 0
1, 50160, Note_on_c, 0, 70, 80
1, 50279, Note_on_c, 0, 70, 0
1, 50280, Note_on_c, 0, 71, 80
1, 50399, Note_on_c, 0, 71, 0
1, 50400, Note_on_c, 0, 73, 80
1, 50999, Note_on_c, 0, 73, 0
1, 51000, Note_on_c, 0, 71, 80
1, 51119, Note_on_c, 0, 71, 0
1, 51120, Note_on_c, 0, 73, 80
1, 51239, Note_on_c, 0, 73, 0
1, 51240, Note_on_c, 0, 75, 80
1, 51359, Note_on_c, 0, 75, 0
1, 51360, Note_on_c, 0, 76, 80
1, 51959, Note_on_c, 0, 76, 0
1, 51960, Note_on_c, 0, 76, 80
1, 52079, Note_on_c, 0, 76, 0
1, 52080, Note_on_c, 0, 75, 80
1, 52199, Note_on_c, 0, 75, 0
1, 52200, Note_on_c, 0, 73, 80
1, 52319, Note_on_c, 0, 73, 0
1, 52320, Note_on_c, 0, 75, 80
1, 52439, Note_on_c, 0, 75, 0
1, 52440, Note_on_c, 0, 73, 80
1, 52559, Note_on_c, 0, 73, 0
1, 52560, Note_on_c, 0, 71, 80
1, 52679, Note_on_c, 0, 71, 0
1, 52680, Note_on_c, 0, 70, 80
1, 52799, Note_on_c, 0, 70, 0
1, 52800, Note_on_c, 0, 71, 80
1, 52919, Note_on_c, 0, 71, 0
1, 52920, Note_on_c, 0, 73, 80
1, 53039, Note_on_c, 0, 73, 0
1, 53040, Note_on_c, 0, 71, 80
1, 53159, Note_on_c, 0, 71, 0
1, 53160, Note_on_c, 0, 69, 80
1, 53279, Note_on_c, 0, 69, 0
1, 53280, Note_on_c, 0, 71, 80
1, 53399, Note_on_c, 0, 71, 0
1, 53400, Note_on_c, 0, 69, 80
1, 53519, Note_on_c, 0, 69, 0
1, 53520, Note_on_c, 0, 68, 80
1, 53639, Note_on_c, 0, 68, 0
1, 53640, Note_on_c, 0, 66, 80
1, 53759, Note_on_c, 0, 66, 0
1, 53760, Note_on_c, 0, 68, 80
1, 53999, Note_on_c, 0, 68, 0
1, 54000, Note_on_c, 0, 72, 80
1, 54239, Note_on_c, 0, 72, 0
1, 54240, Note_on_c, 0, 73, 80
1, 54479, Note_on_c, 0, 73, 0
1, 54480, Note_on_c, 0, 75, 80
1, 54719, Note_on_c, 0, 75, 0
1, 54720, Note_on_c, 0, 68, 80
1, 54839, Note_on_c, 0, 68, 0
1, 54840, Note_on_c, 0, 69, 80
1, 54959, Note_on_c, 0, 69, 0
1, 54960, Note_on_c, 0, 68, 80
1, 55079, Note_on_c, 0, 68, 0
1, 55080, Note_on_c, 0, 66, 80
1, 55199, Note_on_c, 0, 66, 0
1, 55200, Note_on_c, 0, 68, 80
1, 55319, Note_on_c, 0, 68, 0
1, 55320, Note_on_c, 0, 66, 80
1, 55439, Note_on_c, 0, 66, 0
1, 55440, Note_on_c, 0, 64, 80
1, 55559, Note_on_c, 0, 64, 0
1, 55560, Note_on_c, 0, 63, 80
1, 55679, Note_on_c, 0, 63, 0
1, 55680, Note_on_c, 0, 64, 80
1, 55799, Note_on_c, 0, 64, 0
1, 55800, Note_on_c, 0, 71, 80
1, 55919, Note_on_c, 0, 71, 0
1, 55920, Note_on_c, 0, 69, 80
1, 56039, Note_on_c, 0, 69, 0
1, 56040, Note_on_c, 0, 68, 80
1, 56159, Note_on_c, 0, 68, 0
1, 56160, Note_on_c, 0, 69, 80
1, 56279, Note_on_c, 0, 69, 0
1, 56280, Note_on_c, 0, 68, 80
1, 56399, Note_on_c, 0, 68, 0
1, 56400, Note_on_c, 0, 66, 80
1, 56519, Note_on_c, 0, 66, 0
1, 56520, Note_on_c, 0, 64, 80
1, 56639, Note_on_c, 0, 64, 0
1, 56640, Note_on_c, 0, 63, 80
1, 56879, Note_on_c, 0, 63, 0
1, 56880, Note_on_c, 0, 75, 80
1, 57119, Note_on_c, 0, 75, 0
1, 57240, Note_on_c, 0, 75, 80
1, 57359, Note_on_c, 0, 75, 0
1, 57360, Note_on_c, 0, 73, 80
1, 57479, Note_on_c, 0, 73, 0
1, 57480, Note_on_c, 0, 72, 80
1, 57599, Note_on_c, 0, 72, 0
1, 57600, Note_on_c, 0, 73, 80
1, 57839, Note_on_c, 0, 73, 0
1, 57840, Note_on_c, 0, 68, 80
1, 58079, Note_on_c, 0, 68, 0
1, 58080, Note_on_c, 0, 73, 80
1, 58319, Note_on_c, 0, 73, 0
1, 58320, Note_on_c, 0, 71, 80
1, 58559, Note_on_c, 0, 71, 0
1, 58560, Note_on_c, 0, 69, 80
1, 58799, Note_on_c, 0, 69, 0
1, 58800, Note_on_c, 0, 68, 80
1, 59039, Note_on_c, 0, 68, 0
1, 59040, Note_on_c, 0, 66, 80
1, 59279, Note_on_c, 0, 66, 0
1, 59280, Note_on_c, 0, 64, 80
1, 59519, Note_on_c, 0, 64, 0
1, 59520, Note_on_c, 0, 63, 80
1, 59639, Note_on_c, 0, 63, 0
1, 59640, Note_on_c, 0, 61, 80
1, 59759, Note_on_c, 0, 61, 0
1, 59760, Note_on_c, 0, 63, 80
1, 59879, Note_on_c, 0, 63, 0
1, 59880, Note_on_c, 0, 64, 80
1, 59999, Note_on_c, 0, 64, 0
1, 60000, Note_on_c, 0, 66, 80
1, 60119, Note_on_c, 0, 66, 0
1, 60120, Note_on_c, 0, 63, 80
1, 60239, Note_on_c, 0, 63, 0
1, 60240, Note_on_c, 0, 68, 80
1, 60599, Note_on_c, 0, 68, 0
1, 60600, Note_on_c, 0, 64, 80
1, 60719, Note_on_c, 0, 64, 0
1, 60720, Note_on_c, 0, 69, 80
1, 61079, Note_on_c, 0, 69, 0
1, 61080, Note_on_c, 0, 66, 80
1, 61199, Note_on_c, 0, 66, 0
1, 61200, Note_on_c, 0, 71, 80
1, 61319, Note_on_c, 0, 71, 0
1, 61320, Note_on_c, 0, 69, 80
1, 61439, Note_on_c, 0, 69, 0
1, 61440, Note_on_c, 0, 64, 80
1, 61559, Note_on_c, 0, 64, 0
1, 61560, Note_on_c, 0, 73, 80
1, 61679, Note_on_c, 0, 73, 0
1, 61680, Note_on_c, 0, 71, 80
1, 61799, Note_on_c, 0, 71, 0
1, 61800, Note_on_c, 0, 69, 80
1, 61919, Note_on_c, 0, 69, 0
1, 61920, Note_on_c, 0, 71, 80
1, 62039, Note_on_c, 0, 71, 0
1, 62040, Note_on_c, 0, 68, 80
1, 62159, Note_on_c, 0, 68, 0
1, 62160, Note_on_c, 0, 71, 80
1, 62519, Note_on_c, 0, 71, 0
1, 62520, Note_on_c, 0, 73, 80
1, 62639, Note_on_c, 0, 73, 0
1, 62640, Note_on_c, 0, 71, 80
1, 62759, Note_on_c, 0, 71, 0
1, 62760, Note_on_c, 0, 69, 80
1, 62879, Note_on_c, 0, 69, 0
1, 62880, Note_on_c, 0, 71, 80
1, 62999, Note_on_c, 0, 71, 0
1, 63000, Note_on_c, 0, 69, 80
1, 63119, Note_on_c, 0, 69, 0
1, 63120, Note_on_c, 0, 68, 80
1, 63239, Note_on_c, 0, 68, 0
1, 63240, Note_on_c, 0, 66, 80
1, 63359, Note_on_c, 0, 66, 0
1, 63360, Note_on_c, 0, 64, 80
1, 64439, Note_on_c, 0, 64, 0
1, 64440, Note_on_c, 0, 68, 80
1, 64559, Note_on_c, 0, 68, 0
1, 64560, Note_on_c, 0, 66, 80
1, 64679, Note_on_c, 0, 66, 0
1, 64680, Note_on_c, 0, 64, 80
1, 64799, Note_on_c, 0, 64, 0
1, 64800, Note_on_c, 0, 66, 80
1, 64919, Note_on_c, 0, 66, 0
1, 64920, Note_on_c, 0, 64, 80
1, 65039, Note_on_c, 0, 64, 0
1, 65040, Note_on_c, 0, 63, 80
1, 65159, Note_on_c, 0, 63, 0
1, 65160, Note_on_c, 0, 61, 80
1, 65279, Note_on_c, 0, 61, 0
1, 65280, Note_on_c, 0, 63, 80
1, 66359, Note_on_c, 0, 63, 0
1, 66360, Note_on_c, 0, 78, 80
1, 66479, Note_on_c, 0, 78, 0
1, 66480, Note_on_c, 0, 76, 80
1, 66599, Note_on_c, 0, 76, 0
1, 66600, Note_on_c, 0, 75, 80
1, 66719, Note_on_c, 0, 75, 0
1, 66720, Note_on_c, 0, 76, 80
1, 66839, Note_on_c, 0, 76, 0
1, 66840, Note_on_c, 0, 75, 80
1, 66959, Note_on_c, 0, 75, 0
1, 66960, Note_on_c, 0, 73, 80
1, 67079, Note_on_c, 0, 73, 0
1, 67080, Note_on_c, 0, 71, 80
1, 67199, Note_on_c, 0, 71, 0
1, 67200, Note_on_c, 0, 73, 80
1, 68279, Note_on_c, 0, 73, 0
1, 68280, Note_on_c, 0, 76, 80
1, 68399, Note_on_c, 0, 76, 0
1, 68400, Note_on_c, 0, 75, 80
1, 68519, Note_on_c, 0, 75, 0
1, 68520, Note_on_c, 0, 73, 80
1, 68639, Note_on_c, 0, 73, 0
1, 68640, Note_on_c, 0, 75, 80
1, 68759, Note_on_c, 0, 75, 0
1, 68760, Note_on_c, 0, 73, 80
1, 68879, Note_on_c, 0, 73, 0
1, 68880, Note_on_c, 0, 71, 80
1, 68999, Note_on_c, 0, 71, 0
1, 69000, Note_on_c, 0, 70, 80
1, 69119, Note_on_c, 0, 70, 0
1, 69120, Note_on_c, 0, 71, 80
1, 69239, Note_on_c, 0, 71, 0
1, 69240, Note_on_c, 0, 75, 80
1, 69359, Note_on_c, 0, 75, 0
1, 69360, Note_on_c, 0, 73, 80
1, 69479, Note_on_c, 0, 73, 0
1, 69480, Note_on_c, 0, 71, 80
1, 69599, Note_on_c, 0, 71, 0
1, 69600, Note_on_c, 0, 73, 80
1, 69719, Note_on_c, 0, 73, 0
1, 69720, Note_on_c, 0, 71, 80
1, 69839, Note_on_c, 0, 71, 0
1, 69840, Note_on_c, 0, 70, 80
1, 69959, Note_on_c, 0, 70, 0
1, 69960, Note_on_c, 0, 68, 80
1, 70079, Note_on_c, 0, 68, 0
1, 70080, Note_on_c, 0, 70, 80
1, 70319, Note_on_c, 0, 70, 0
1, 71280, Note_on_c, 0, 63, 80
1, 71519, Note_on_c, 0, 63, 0
1, 71520, Note_on_c, 0, 75, 80
1, 72239, Note_on_c, 0, 75, 0
1, 72240, Note_on_c, 0, 74, 80
1, 72479, Note_on_c, 0, 74, 0
1, 72720, Note_on_c, 0, 74, 80
1, 72959, Note_on_c, 0, 74, 0
1, 72960, Note_on_c, 0, 75, 80
1, 73079, Note_on_c, 0, 75, 0
1, 73080, Note_on_c, 0, 76, 80
1, 73199, Note_on_c, 0, 76, 0
1, 73200, Note_on_c, 0, 75, 80
1, 73319, Note_on_c, 0, 75, 0
1, 73320, Note_on_c, 0, 73, 80
1, 73439, Note_on_c, 0, 73, 0
1, 73440, Note_on_c, 0, 75, 80
1, 73559, Note_on_c, 0, 75, 0
1, 73560, Note_on_c, 0, 73, 80
1, 73679, Note_on_c, 0, 73, 0
1, 73680, Note_on_c, 0, 71, 80
1, 73799, Note_on_c, 0, 71, 0
1, 73800, Note_on_c, 0, 70, 80
1, 73919, Note_on_c, 0, 70, 0
1, 73920, Note_on_c, 0, 68, 80
1, 74159, Note_on_c, 0, 68, 0
1, 74160, Note_on_c, 0, 80, 80
1, 74399, Note_on_c, 0, 80, 0
1, 74400, Note_on_c, 0, 73, 80
1, 74639, Note_on_c, 0, 73, 0
1, 74640, Note_on_c, 0, 76, 80
1, 74999, Note_on_c, 0, 76, 0
1, 75000, Note_on_c, 0, 75, 80
1, 75119, Note_on_c, 0, 75, 0
1, 75120, Note_on_c, 0, 73, 80
1, 75239, Note_on_c, 0, 73, 0
1, 75240, Note_on_c, 0, 71, 80
1, 75359, Note_on_c, 0, 71, 0
1, 75360, Note_on_c, 0, 73, 80
1, 75479, Note_on_c, 0, 73, 0
1, 75480, Note_on_c, 0, 71, 80
1, 75599, Note_on_c, 0, 71, 0
1, 75600, Note_on_c, 0, 70, 80
1, 75719, Note_on_c, 0, 70, 0
1, 75720, Note_on_c, 0, 68, 80
1, 75839, Note_on_c, 0, 68, 0
1, 75840, Note_on_c, 0, 67, 80
1, 76319, Note_on_c, 0, 67, 0
1, 76320, Note_on_c, 0, 68, 80
1, 76559, Note_on_c, 0, 68, 0
1, 76560, Note_on_c, 0, 70, 80
1, 76799, Note_on_c, 0, 70, 0
1, 76800, Note_on_c, 0, 71, 80
1, 77999, Note_on_c, 0, 71, 0
1, 78000, Note_on_c, 0, 68, 80
1, 78239, Note_on_c, 0, 68, 0
1, 78240, Note_on_c, 0, 73, 80
1, 78479, Note_on_c, 0, 73, 0
1, 78480, Note_on_c, 0, 71, 80
1, 78719, Note_on_c, 0, 71, 0
1, 78720, Note_on_c, 0, 70, 80
1, 79919, Note_on_c, 0, 70, 0
1, 79920, Note_on_c, 0, 66, 80
1, 80159, Note_on_c, 0, 66, 0
1, 80160, Note_on_c, 0, 71, 80
1, 80399, Note_on_c, 0, 71, 0
1, 80400, Note_on_c, 0, 69, 80
1, 80639, Note_on_c, 0, 69, 0
1, 80640, Note_on_c, 0, 68, 80
1, 81599, Note_on_c, 0, 68, 0
1, 81600, Note_on_c, 0, 75, 80
1, 82559, Note_on_c, 0, 75, 0
1, 82560, Note_on_c, 0, 71, 80
1, 82679, Note_on_c, 0, 71, 0
1, 82680, Note_on_c, 0, 80, 80
1, 82799, Note_on_c, 0, 80, 0
1, 82800, Note_on_c, 0, 78, 80
1, 82919, Note_on_c, 0, 78, 0
1, 82920, Note_on_c, 0, 76, 80
1, 83039, Note_on_c, 0, 76, 0
1, 83040, Note_on_c, 0, 78, 80
1, 83159, Note_on_c, 0, 78, 0
1, 83160, Note_on_c, 0, 76, 80
1, 83279, Note_on_c, 0, 76, 0
1, 83280, Note_on_c, 0, 75, 80
1, 83399, Note_on_c, 0, 75, 0
1, 83400, Note_on_c, 0, 73, 80
1, 83519, Note_on_c, 0, 73, 0
1, 83520, Note_on_c, 0, 72, 80
1, 83639, Note_on_c, 0, 72, 0
1, 83640, Note_on_c, 0, 75, 80
1, 83759, Note_on_c, 0, 75, 0
1, 83760, Note_on_c, 0, 73, 80
1, 83879, Note_on_c, 0, 73, 0
1, 83880, Note_on_c, 0, 72, 80
1, 83999, Note_on_c, 0, 72, 0
1, 84000, Note_on_c, 0, 73, 80
1, 84119, Note_on_c, 0, 73, 0
1, 84120, Note_on_c, 0, 72, 80
1, 84239, Note_on_c, 0, 72, 0
1, 84240, Note_on_c, 0, 70, 80
1, 84359, Note_on_c, 0, 70, 0
1, 84360, Note_on_c, 0, 68, 80
1, 84479, Note_on_c, 0, 68, 0
1, 84480, Note_on_c, 0, 73, 80
1, 84719, Note_on_c, 0, 73, 0
1, 84720, Note_on_c, 0, 68, 80
1, 84959, Note_on_c, 0, 68, 0
1, 84960, Note_on_c, 0, 80, 80
1, 85679, Note_on_c, 0, 80, 0
1, 85680, Note_on_c, 0, 78, 80
1, 85799, Note_on_c, 0, 78, 0
1, 85800, Note_on_c, 0, 76, 80
1, 85919, Note_on_c, 0, 76, 0
1, 85920, Note_on_c, 0, 75, 80
1, 86039, Note_on_c, 0, 75, 0
1, 86040, Note_on_c, 0, 73, 80
1, 86159, Note_on_c, 0, 73, 0
1, 86160, Note_on_c, 0, 72, 80
1, 86279, Note_on_c, 0, 72, 0
1, 86280, Note_on_c, 0, 70, 80
1, 86399, Note_on_c, 0, 70, 0
1, 86400, Note_on_c, 0, 68, 80
1, 86519, Note_on_c, 0, 68, 0
1, 86520, Note_on_c, 0, 66, 80
1, 86639, Note_on_c, 0, 66, 0
1, 86640, Note_on_c, 0, 68, 80
1, 86759, Note_on_c, 0, 68, 0
1, 86760, Note_on_c, 0, 70, 80
1, 86879, Note_on_c, 0, 70, 0
1, 86880, Note_on_c, 0, 71, 80
1, 86999, Note_on_c, 0, 71, 0
1, 87000, Note_on_c, 0, 68, 80
1, 87119, Note_on_c, 0, 68, 0
1, 87120, Note_on_c, 0, 70, 80
1, 87239, Note_on_c, 0, 70, 0
1, 87240, Note_on_c, 0, 72, 80
1, 87359, Note_on_c, 0, 72, 0
1, 87360, Note_on_c, 0, 73, 80
1, 87479, Note_on_c, 0, 73, 0
1, 87480, Note_on_c, 0, 72, 80
1, 87599, Note_on_c, 0, 72, 0
1, 87600, Note_on_c, 0, 73, 80
1, 87719, Note_on_c, 0, 73, 0
1, 87720, Note_on_c, 0, 75, 80
1, 87839, Note_on_c, 0, 75, 0
1, 87840, Note_on_c, 0, 76, 80
1, 87959, Note_on_c, 0, 76, 0
1, 87960, Note_on_c, 0, 73, 80
1, 88079, Note_on_c, 0, 73, 0
1, 88080, Note_on_c, 0, 75, 80
1, 88199, Note_on_c, 0, 75, 0
1, 88200, Note_on_c, 0, 76, 80
1, 88319, Note_on_c, 0, 76, 0
1, 88320, Note_on_c, 0, 76, 80
1, 88559, Note_on_c, 0, 76, 0
1, 88560, Note_on_c, 0, 75, 80
1, 88799, Note_on_c, 0, 75, 0
1, 88920, Note_on_c, 0, 75, 80
1, 89039, Note_on_c, 0, 75, 0
1, 89040, Note_on_c, 0, 73, 80
1, 89159, Note_on_c, 0, 73, 0
1, 89160, Note_on_c, 0, 75, 80
1, 89279, Note_on_c, 0, 75, 0
1, 89280, Note_on_c, 0, 76, 80
1, 89399, Note_on_c, 0, 76, 0
1, 89400, Note_on_c, 0, 80, 80
1, 89519, Note_on_c, 0, 80, 0
1, 89520, Note_on_c, 0, 78, 80
1, 89639, Note_on_c, 0, 78, 0
1, 89640, Note_on_c, 0, 76, 80
1, 89759, Note_on_c, 0, 76, 0
1, 89760, Note_on_c, 0, 78, 80
1, 89879, Note_on_c, 0, 78, 0
1, 89880, Note_on_c, 0, 76, 80
1, 89999, Note_on_c, 0, 76, 0
1, 90000, Note_on_c, 0, 75, 80
1, 90119, Note_on_c, 0, 75, 0
1, 90120, Note_on_c, 0, 73, 80
1, 90239, Note_on_c, 0, 73, 0
1, 90240, Note_on_c, 0, 71, 80
1, 90359, Note_on_c, 0, 71, 0
1, 90360, Note_on_c, 0, 76, 80
1, 90479, Note_on_c, 0, 76, 0
1, 90480, Note_on_c, 0, 75, 80
1, 90599, Note_on_c, 0, 75, 0
1, 90600, Note_on_c, 0, 73, 80
1, 90719, Note_on_c, 0, 73, 0
1, 90720, Note_on_c, 0, 75, 80
1, 90839, Note_on_c, 0, 75, 0
1, 90840, Note_on_c, 0, 73, 80
1, 90959, Note_on_c, 0, 73, 0
1, 90960, Note_on_c, 0, 71, 80
1, 91079, Note_on_c, 0, 71, 0
1, 91080, Note_on_c, 0, 69, 80
1, 91199, Note_on_c, 0, 69, 0
1, 91200, Note_on_c, 0, 68, 80
1, 91319, Note_on_c, 0, 68, 0
1, 91320, Note_on_c, 0, 73, 80
1, 91439, Note_on_c, 0, 73, 0
1, 91440, Note_on_c, 0, 71, 80
1, 91559, Note_on_c, 0, 71, 0
1, 91560, Note_on_c, 0, 69, 80
1, 91679, Note_on_c, 0, 69, 0
1, 91680, Note_on_c, 0, 71, 80
1, 91799, Note_on_c, 0, 71, 0
1, 91800, Note_on_c, 0, 69, 80
1, 91919, Note_on_c, 0, 69, 0
1, 91920, Note_on_c, 0, 68, 80
1, 92039, Note_on_c, 0, 68, 0
1, 92040, Note_on_c, 0, 66, 80
1, 92159, Note_on_c, 0, 66, 0
1, 92160, Note_on_c, 0, 64, 80
1, 92279, Note_on_c, 0, 64, 0
1, 92280, Note_on_c, 0, 69, 80
1, 92399, Note_on_c, 0, 69, 0
1, 92400, Note_on_c, 0, 68, 80
1, 92519, Note_on_c, 0, 68, 0
1, 92520, Note_on_c, 0, 66, 80
1, 92639, Note_on_c, 0, 66, 0
1, 92640, Note_on_c, 0, 68, 80
1, 92759, Note_on_c, 0, 68, 0
1, 92760, Note_on_c, 0, 66, 80
1, 92879, Note_on_c, 0, 66, 0
1, 92880, Note_on_c, 0, 64, 80
1, 92999, Note_on_c, 0, 64, 0
1, 93000, Note_on_c, 0, 63, 80
1, 93119, Note_on_c, 0, 63, 0
1, 93120, Note_on_c, 0, 61, 80
1, 94199, Note_on_c, 0, 61, 0
1, 94200, Note_on_c, 0, 73, 80
1, 94319, Note_on_c, 0, 73, 0
1, 94320, Note_on_c, 0, 71, 80
1, 94439, Note_on_c, 0, 71, 0
1, 94440, Note_on_c, 0, 69, 80
1, 94559, Note_on_c, 0, 69, 0
1, 94560, Note_on_c, 0, 71, 80
1, 94679, Note_on_c, 0, 71, 0
1, 94680, Note_on_c, 0, 69, 80
1, 94799, Note_on_c, 0, 69, 0
1, 94800, Note_on_c, 0, 68, 80
1, 94919, Note_on_c, 0, 68, 0
1, 94920, Note_on_c, 0, 66, 80
1, 95039, Note_on_c, 0, 66, 0
1, 95040, Note_on_c, 0, 68, 80
1, 95279, Note_on_c, 0, 68, 0
1, 96480, Note_on_c, 0, 69, 80
1, 97199, Note_on_c, 0, 69, 0
1, 97200, Note_on_c, 0, 70, 80
1, 97439, Note_on_c, 0, 70, 0
1, 97440, Note_on_c, 0, 71, 80
1, 97679, Note_on_c, 0, 71, 0
1, 97680, Note_on_c, 0, 72, 80
1, 97919, Note_on_c, 0, 72, 0
1, 98040, Note_on_c, 0, 73, 80
1, 98159, Note_on_c, 0, 73, 0
1, 98160, Note_on_c, 0, 71, 80
1, 98279, Note_on_c, 0, 71, 0
1, 98280, Note_on_c, 0, 69, 80
1, 98399, Note_on_c, 0, 69, 0
1, 98400, Note_on_c, 0, 71, 80
1, 98639, Note_on_c, 0, 71, 0
1, 98640, Note_on_c, 0, 73, 80
1, 98879, Note_on_c, 0, 73, 0
1, 98880, Note_on_c, 0, 69, 80
1, 99119, Note_on_c, 0, 69, 0
1, 99120, Note_on_c, 0, 78, 80
1, 99599, Note_on_c, 0, 78, 0
1, 99600, Note_on_c, 0, 76, 80
1, 99719, Note_on_c, 0, 76, 0
1, 99720, Note_on_c, 0, 74, 80
1, 99839, Note_on_c, 0, 74, 0
1, 99840, Note_on_c, 0, 73, 80
1, 100079, Note_on_c, 0, 73, 0
1, 100080, Note_on_c, 0, 74, 80
1, 100319, Note_on_c, 0, 74, 0
1, 100320, Note_on_c, 0, 76, 80
1, 100559, Note_on_c, 0, 76, 0
1, 106680, Note_on_c, 0, 61, 80
1, 106799, Note_on_c, 0, 61, 0
1, 106800, Note_on_c, 0, 63, 80
1, 106919, Note_on_c, 0, 63, 0
1, 106920, Note_on_c, 0, 65, 80
1, 107039, Note_on_c, 0, 65, 0
1, 107040, Note_on_c, 0, 66, 80
1, 107159, Note_on_c, 0, 66, 0
1, 107160, Note_on_c, 0, 65, 80
1, 107279, Note_on_c, 0, 65, 0
1, 107280, Note_on_c, 0, 66, 80
1, 107399, Note_on_c, 0, 66, 0
1, 107400, Note_on_c, 0, 68, 80
1, 107519, Note_on_c, 0, 68, 0
1, 107520, Note_on_c, 0, 69, 80
1, 107639, Note_on_c, 0, 69, 0
1, 107640, Note_on_c, 0, 66, 80
1, 107759, Note_on_c, 0, 66, 0
1, 107760, Note_on_c, 0, 68, 80
1, 107879, Note_on_c, 0, 68, 0
1, 107880, Note_on_c, 0, 70, 80
1, 107999, Note_on_c, 0, 70, 0
1, 108000, Note_on_c, 0, 71, 80
1, 108119, Note_on_c, 0, 71, 0
1, 108120, Note_on_c, 0, 70, 80
1, 108239, Note_on_c, 0, 70, 0
1, 108240, Note_on_c, 0, 71, 80
1, 108359, Note_on_c, 0, 71, 0
1, 108360, Note_on_c, 0, 73, 80
1, 108479, Note_on_c, 0, 73, 0
1, 108480, Note_on_c, 0, 74, 80
1, 108719, Note_on_c, 0, 74, 0
1, 108720, Note_on_c, 0, 73, 80
1, 108959, Note_on_c, 0, 73, 0
1, 108960, Note_on_c, 0, 71, 80
1, 109199, Note_on_c, 0, 71, 0
1, 109200, Note_on_c, 0, 69, 80
1, 109439, Note_on_c, 0, 69, 0
1, 109440, Note_on_c, 0, 68, 80
1, 109559, Note_on_c, 0, 68, 0
1, 109560, Note_on_c, 0, 66, 80
1, 109679, Note_on_c, 0, 66, 0
1, 109680, Note_on_c, 0, 68, 80
1, 109799, Note_on_c, 0, 68, 0
1, 109800, Note_on_c, 0, 69, 80
1, 109919, Note_on_c, 0, 69, 0
1, 109920, Note_on_c, 0, 71, 80
1, 110039, Note_on_c, 0, 71, 0
1, 110040, Note_on_c, 0, 68, 80
1, 110159, Note_on_c, 0, 68, 0
1, 110160, Note_on_c, 0, 70, 80
1, 110279, Note_on_c, 0, 70, 0
1, 110280, Note_on_c, 0, 72, 80
1, 110399, Note_on_c, 0, 72, 0
1, 110400, Note_on_c, 0, 73, 80
1, 110639, Note_on_c, 0, 73, 0
1, 110640, Note_on_c, 0, 66, 80
1, 111119, Note_on_c, 0, 66, 0
1, 111120, Note_on_c, 0, 64, 80
1, 111479, Note_on_c, 0, 64, 0
1, 111480, Note_on_c, 0, 63, 80
1, 111599, Note_on_c, 0, 63, 0
1, 111600, Note_on_c, 0, 61, 80
1, 112079, Note_on_c, 0, 61, 0
1, 112080, Note_on_c, 0, 66, 80
1, 112439, Note_on_c, 0, 66, 0
1, 112440, Note_on_c, 0, 69, 80
1, 112559, Note_on_c, 0, 69, 0
1, 112560, Note_on_c, 0, 68, 80
1, 112679, Note_on_c, 0, 68, 0
1, 112680, Note_on_c, 0, 66, 80
1, 112799, Note_on_c, 0, 66, 0
1, 112800, Note_on_c, 0, 68, 80
1, 112919, Note_on_c, 0, 68, 0
1, 112920, Note_on_c, 0, 66, 80
1, 113039, Note_on_c, 0, 66, 0
1, 113040, Note_on_c, 0, 64, 80
1, 113159, Note_on_c, 0, 64, 0
1, 113160, Note_on_c, 0, 63, 80
1, 113279, Note_on_c, 0, 63, 0
1, 113280, Note_on_c, 0, 64, 80
1, 113399, Note_on_c, 0, 64, 0
1, 113400, Note_on_c, 0, 63, 80
1, 113519, Note_on_c, 0, 63, 0
1, 113520, Note_on_c, 0, 64, 80
1, 113639, Note_on_c, 0, 64, 0
1, 113640, Note_on_c, 0, 68, 80
1, 113759, Note_on_c, 0, 68, 0
1, 113760, Note_on_c, 0, 66, 80
1, 113879, Note_on_c, 0, 66, 0
1, 113880, Note_on_c, 0, 64, 80
1, 113999, Note_on_c, 0, 64, 0
1, 114000, Note_on_c, 0, 63, 80
1, 114119, Note_on_c, 0, 63, 0
1, 114120, Note_on_c, 0, 61, 80
1, 114239, Note_on_c, 0, 61, 0
1, 114240, Note_on_c, 0, 63, 80
1, 114719, Note_on_c, 0, 63, 0
1, 114960, Note_on_c, 0, 72, 80
1, 115199, Note_on_c, 0, 72, 0
1, 115200, Note_on_c, 0, 73, 80
1, 115799, Note_on_c, 0, 73, 0
1, 115800, Note_on_c, 0, 71, 80
1, 115919, Note_on_c, 0, 71, 0
1, 115920, Note_on_c, 0, 69, 80
1, 116039, Note_on_c, 0, 69, 0
1, 116040, Note_on_c, 0, 68, 80
1, 116159, Note_on_c, 0, 68, 0
1, 116160, Note_on_c, 0, 66, 80
1, 118079, Note_on_c, 0, 66, 0
1, 118080, Note_on_c, 0, 64, 80
1, 118559, Note_on_c, 0, 64, 0
1, 118800, Note_on_c, 0, 69, 80
1, 119039, Note_on_c, 0, 69, 0
1, 119040, Note_on_c, 0, 68, 80
1, 119519, Note_on_c, 0, 68, 0
1, 119760, Note_on_c, 0, 72, 80
1, 119999, Note_on_c, 0, 72, 0
1, 120000, Note_on_c, 0, 73, 80
1, 120119, Note_on_c, 0, 73, 0
1, 120120, Note_on_c, 0, 71, 80
1, 120239, Note_on_c, 0, 71, 0
1, 120240, Note_on_c, 0, 69, 80
1, 120359, Note_on_c, 0, 69, 0
1, 120360, Note_on_c, 0, 68, 80
1, 120479, Note_on_c, 0, 68, 0
1, 120480, Note_on_c, 0, 69, 80
1, 120599, Note_on_c, 0, 69, 0
1, 120600, Note_on_c, 0, 68, 80
1, 120719, Note_on_c, 0, 68, 0
1, 120720, Note_on_c, 0, 66, 80
1, 120839, Note_on_c, 0, 66, 0
1, 120840, Note_on_c, 0, 65, 80
1, 120959, Note_on_c, 0, 65, 0
1, 120960, Note_on_c, 0, 66, 80
1, 122039, Note_on_c, 0, 66, 0
1, 122040, Note_on_c, 0, 69, 80
1, 122159, Note_on_c, 0, 69, 0
1, 122160, Note_on_c, 0, 68, 80
1, 122279, Note_on_c, 0, 68, 0
1, 122280, Note_on_c, 0, 66, 80
1, 122399, Note_on_c, 0, 66, 0
1, 122400, Note_on_c, 0, 68, 80
1, 122519, Note_on_c, 0, 68, 0
1, 122520, Note_on_c, 0, 66, 80
1, 122639, Note_on_c, 0, 66, 0
1, 122640, Note_on_c, 0, 64, 80
1, 122759, Note_on_c, 0, 64, 0
1, 122760, Note_on_c, 0, 63, 80
1, 122879, Note_on_c, 0, 63, 0
1, 122880, Note_on_c, 0, 64, 80
1, 123239, Note_on_c, 0, 64, 0
1, 123240, Note_on_c, 0, 66, 80
1, 123359, Note_on_c, 0, 66, 0
1, 123360, Note_on_c, 0, 63, 80
1, 123719, Note_on_c, 0, 63, 0
1, 123720, Note_on_c, 0, 61, 80
1, 123839, Note_on_c, 0, 61, 0
1, 123840, Note_on_c, 0, 61, 80
1, 124799, Note_on_c, 0, 61, 0
1, 124800, End_track
2, 0, Start_track
2, 0, Key_signature, 4, "major"
2, 240, Note_on_c, 0, 61, 80
2, 479, Note_on_c, 0, 61, 0
2, 480, Note_on_c, 0, 73, 80
2, 1199, Note_on_c, 0, 73, 0
2, 1200, Note_on_c, 0, 72, 80
2, 1319, Note_on_c, 0, 72, 0
2, 1320, Note_on_c, 0, 70, 80
2, 1439, Note_on_c, 0, 70, 0
2, 1440, Note_on_c, 0, 68, 80
2, 1559, Note_on_c, 0, 68, 0
2, 1560, Note_on_c, 0, 66, 80
2, 1679, Note_on_c, 0, 66, 0
2, 1680, Note_on_c, 0, 64, 80
2, 1799, Note_on_c, 0, 64, 0
2, 1800, Note_on_c, 0, 63, 80
2, 1919, Note_on_c, 0, 63, 0
2, 1920, Note_on_c, 0, 61, 80
2, 2039, Note_on_c, 0, 61, 0
2, 2040, Note_on_c, 0, 60, 80
2, 2159, Note_on_c, 0, 60, 0
2, 2160, Note_on_c, 0, 61, 80
2, 2279, Note_on_c, 0, 61, 0
2, 2280, Note_on_c, 0, 63, 80
2, 2399, Note_on_c, 0, 63, 0
2, 2400, Note_on_c, 0, 64, 80
2, 2519, Note_on_c, 0, 64, 0
2, 2520, Note_on_c, 0, 61, 80
2, 2639, Note_on_c, 0, 61, 0
2, 2640, Note_on_c, 0, 63, 80
2, 2759, Note_on_c, 0, 63, 0
2, 2760, Note_on_c, 0, 64, 80
2, 2879, Note_on_c, 0, 64, 0
2, 2880, Note_on_c, 0, 66, 80
2, 2999, Note_on_c, 0, 66, 0
2, 3000, Note_on_c, 0, 65, 80
2, 3119, Note_on_c, 0, 65, 0
2, 3120, Note_on_c, 0, 66, 80
2, 3239, Note_on_c, 0, 66, 0
2, 3240, Note_on_c, 0, 68, 80
2, 3359, Note_on_c, 0, 68, 0
2, 3360, Note_on_c, 0, 69, 80
2, 3479, Note_on_c, 0, 69, 0
2, 3480, Note_on_c, 0, 66, 80
2, 3599, Note_on_c, 0, 66, 0
2, 3600, Note_on_c, 0, 68, 80
2, 3719, Note_on_c, 0, 68, 0
2, 3720, Note_on_c, 0, 69, 80
2, 3839, Note_on_c, 0, 69, 0
2, 3840, Note_on_c, 0, 69, 80
2, 4079, Note_on_c, 0, 69, 0
2, 4080, Note_on_c, 0, 68, 80
2, 4319, Note_on_c, 0, 68, 0
2, 4440, Note_on_c, 0, 68, 80
2, 4559, Note_on_c, 0, 68, 0
2, 4560, Note_on_c, 0, 66, 80
2, 4679, Note_on_c, 0, 66, 0
2, 4680, Note_on_c, 0, 68, 80
2, 4799, Note_on_c, 0, 68, 0
2, 4800, Note_on_c, 0, 69, 80
2, 4919, Note_on_c, 0, 69, 0
2, 4920, Note_on_c, 0, 73, 80
2, 5039, Note_on_c, 0, 73, 0
2, 5040, Note_on_c, 0, 71, 80
2, 5159, Note_on_c, 0, 71, 0
2, 5160, Note_on_c, 0, 69, 80
2, 5279, Note_on_c, 0, 69, 0
2, 5280, Note_on_c, 0, 71, 80
2, 5399, Note_on_c, 0, 71, 0
2, 5400, Note_on_c, 0, 69, 80
2, 5519, Note_on_c, 0, 69, 0
2, 5520, Note_on_c, 0, 68, 80
2, 5639, Note_on_c, 0, 68, 0
2, 5640, Note_on_c, 0, 66, 80
2, 5759, Note_on_c, 0, 66, 0
2, 5760, Note_on_c, 0, 64, 80
2, 5879, Note_on_c, 0, 64, 0
2, 5880, Note_on_c, 0, 69, 80
2, 5999, Note_on_c, 0, 69, 0
2, 6000, Note_on_c, 0, 68, 80
2, 6119, Note_on_c, 0, 68, 0
2, 6120, Note_on_c, 0, 66, 80
2, 6239, Note_on_c, 0, 66, 0
2, 6240, Note_on_c, 0, 68, 80
2, 6359, Note_on_c, 0, 68, 0
2, 6360, Note_on_c, 0, 66, 80
2, 6479, Note_on_c, 0, 66, 0
2, 6480, Note_on_c, 0, 64, 80
2, 6599, Note_on_c, 0, 64, 0
2, 6600, Note_on_c, 0, 63, 80
2, 6719, Note_on_c, 0, 63, 0
2, 6720, Note_on_c, 0, 61, 80
2, 6839, Note_on_c, 0, 61, 0
2, 6840, Note_on_c, 0, 66, 80
2, 6959, Note_on_c, 0, 66, 0
2, 6960, Note_on_c, 0, 64, 80
2, 7079, Note_on_c, 0, 64, 0
2, 7080, Note_on_c, 0, 63, 80
2, 7199, Note_on_c, 0, 63, 0
2, 7200, Note_on_c, 0, 64, 80
2, 7319, Note_on_c, 0, 64, 0
2, 7320, Note_on_c, 0, 63, 80
2, 7439, Note_on_c, 0, 63, 0
2, 7440, Note_on_c, 0, 61, 80
2, 7559, Note_on_c, 0, 61, 0
2, 7560, Note_on_c, 0, 59, 80
2, 7679, Note_on_c, 0, 59, 0
2, 7680, Note_on_c, 0, 58, 80
2, 7919, Note_on_c, 0, 58, 0
2, 7920, Note_on_c, 0, 63, 80
2, 8159, Note_on_c, 0, 63, 0
2, 8160, Note_on_c, 0, 67, 80
2, 8399, Note_on_c, 0, 67, 0
2, 8400, Note_on_c, 0, 63, 80
2, 8639, Note_on_c, 0, 63, 0
2, 8640, Note_on_c, 0, 59, 80
2, 8759, Note_on_c, 0, 59, 0
2, 8760, Note_on_c, 0, 61, 80
2, 8879, Note_on_c, 0, 61, 0
2, 8880, Note_on_c, 0, 59, 80
2, 8999, Note_on_c, 0, 59, 0
2, 9000, Note_on_c, 0, 58, 80
2, 9119, Note_on_c, 0, 58, 0
2, 9120, Note_on_c, 0, 56, 80
2, 9359, Note_on_c, 0, 56, 0
2, 9360, Note_on_c, 0, 68, 80
2, 9599, Note_on_c, 0, 68, 0
2, 9600, Note_on_c, 0, 64, 80
2, 9719, Note_on_c, 0, 64, 0
2, 9720, Note_on_c, 0, 66, 80
2, 9839, Note_on_c, 0, 66, 0
2, 9840, Note_on_c, 0, 64, 80
2, 9959, Note_on_c, 0, 64, 0
2, 9960, Note_on_c, 0, 63, 80
2, 10079, Note_on_c, 0, 63, 0
2, 10080, Note_on_c, 0, 61, 80
2, 10319, Note_on_c, 0, 61, 0
2, 10320, Note_on_c, 0, 73, 80
2, 10559, Note_on_c, 0, 73, 0
2, 10560, Note_on_c, 0, 67, 80
2, 10799, Note_on_c, 0, 67, 0
2, 10800, Note_on_c, 0, 68, 80
2, 10919, Note_on_c, 0, 68, 0
2, 10920, Note_on_c, 0, 70, 80
2, 11039, Note_on_c, 0, 70, 0
2, 11040, Note_on_c, 0, 71, 80
2, 11279, Note_on_c, 0, 71, 0
2, 11280, Note_on_c, 0, 70, 80
2, 11519, Note_on_c, 0, 70, 0
2, 11520, Note_on_c, 0, 68, 80
2, 11999, Note_on_c, 0, 68, 0
2, 12240, Note_on_c, 0, 67, 80
2, 12479, Note_on_c, 0, 67, 0
2, 12480, Note_on_c, 0, 68, 80
2, 12959, Note_on_c, 0, 68, 0
2, 13200, Note_on_c, 0, 63, 80
2, 13439, Note_on_c, 0, 63, 0
2, 13440, Note_on_c, 0, 64, 80
2, 13919, Note_on_c, 0, 64, 0
2, 14160, Note_on_c, 0, 64, 80
2, 14399, Note_on_c, 0, 64, 0
2, 14400, Note_on_c, 0, 63, 80
2, 14879, Note_on_c, 0, 63, 0
2, 15120, Note_on_c, 0, 66, 80
2, 15599, Note_on_c, 0, 66, 0
2, 15600, Note_on_c, 0, 64, 80
2, 15719, Note_on_c, 0, 64, 0
2, 15720, Note_on_c, 0, 66, 80
2, 15839, Note_on_c, 0, 66, 0
2, 15840, Note_on_c, 0, 68, 80
2, 16319, Note_on_c, 0, 68, 0
2, 16320, Note_on_c, 0, 61, 80
2, 16799, Note_on_c, 0, 61, 0
2, 17040, Note_on_c, 0, 66, 80
2, 17279, Note_on_c, 0, 66, 0
2, 17280, Note_on_c, 0, 63, 80
2, 17519, Note_on_c, 0, 63, 0
2, 17520, Note_on_c, 0, 64, 80
2, 17639, Note_on_c, 0, 64, 0
2, 17640, Note_on_c, 0, 66, 80
2, 17759, Note_on_c, 0, 66, 0
2, 17760, Note_on_c, 0, 64, 80
2, 17999, Note_on_c, 0, 64, 0
2, 18000, Note_on_c, 0, 63, 80
2, 18239, Note_on_c, 0, 63, 0
2, 18240, Note_on_c, 0, 61, 80
2, 18479, Note_on_c, 0, 61, 0
2, 18960, Note_on_c, 0, 63, 80
2, 19199, Note_on_c, 0, 63, 0
2, 19200, Note_on_c, 0, 64, 80
2, 19439, Note_on_c, 0, 64, 0
2, 19920, Note_on_c, 0, 60, 80
2, 20159, Note_on_c, 0, 60, 0
2, 20160, Note_on_c, 0, 61, 80
2, 20639, Note_on_c, 0, 61, 0
2, 20880, Note_on_c, 0, 63, 80
2, 21119, Note_on_c, 0, 63, 0
2, 21120, Note_on_c, 0, 64, 80
2, 21359, Note_on_c, 0, 64, 0
2, 21360, Note_on_c, 0, 61, 80
2, 21599, Note_on_c, 0, 61, 0
2, 21720, Note_on_c, 0, 64, 80
2, 21839, Note_on_c, 0, 64, 0
2, 21840, Note_on_c, 0, 63, 80
2, 21959, Note_on_c, 0, 63, 0
2, 21960, Note_on_c, 0, 61, 80
2, 22079, Note_on_c, 0, 61, 0
2, 22080, Note_on_c, 0, 59, 80
2, 22199, Note_on_c, 0, 59, 0
2, 22200, Note_on_c, 0, 58, 80
2, 22319, Note_on_c, 0, 58, 0
2, 22320, Note_on_c, 0, 59, 80
2, 22439, Note_on_c, 0, 59, 0
2, 22440, Note_on_c, 0, 61, 80
2, 22559, Note_on_c, 0, 61, 0
2, 22560, Note_on_c, 0, 63, 80
2, 22679, Note_on_c, 0, 63, 0
2, 22680, Note_on_c, 0, 59, 80
2, 22799, Note_on_c, 0, 59, 0
2, 22800, Note_on_c, 0, 61, 80
2, 22919, Note_on_c, 0, 61, 0
2, 22920, Note_on_c, 0, 63, 80
2, 23039, Note_on_c, 0, 63, 0
2, 23040, Note_on_c, 0, 64, 80
2, 23279, Note_on_c, 0, 64, 0
2, 29520, Note_on_c, 0, 68, 80
2, 29759, Note_on_c, 0, 68, 0
2, 29760, Note_on_c, 0, 69, 80
2, 29879, Note_on_c, 0, 69, 0
2, 29880, Note_on_c, 0, 73, 80
2, 29999, Note_on_c, 0, 73, 0
2, 30000, Note_on_c, 0, 71, 80
2, 30119, Note_on_c, 0, 71, 0
2, 30120, Note_on_c, 0, 69, 80
2, 30239, Note_on_c, 0, 69, 0
2, 30240, Note_on_c, 0, 71, 80
2, 30359, Note_on_c, 0, 71, 0
2, 30360, Note_on_c, 0, 69, 80
2, 30479, Note_on_c, 0, 69, 0
2, 30480, Note_on_c, 0, 68, 80
2, 30599, Note_on_c, 0, 68, 0
2, 30600, Note_on_c, 0, 66, 80
2, 30719, Note_on_c, 0, 66, 0
2, 30720, Note_on_c, 0, 64, 80
2, 30839, Note_on_c, 0, 64, 0
2, 30840, Note_on_c, 0, 68, 80
2, 30959, Note_on_c, 0, 68, 0
2, 30960, Note_on_c, 0, 66, 80
2, 31079, Note_on_c, 0, 66, 0
2, 31080, Note_on_c, 0, 64, 80
2, 31199, Note_on_c, 0, 64, 0
2, 31200, Note_on_c, 0, 66, 80
2, 31319, Note_on_c, 0, 66, 0
2, 31320, Note_on_c, 0, 64, 80
2, 31439, Note_on_c, 0, 64, 0
2, 31440, Note_on_c, 0, 63, 80
2, 31559, Note_on_c, 0, 63, 0
2, 31560, Note_on_c, 0, 61, 80
2, 31679, Note_on_c, 0, 61, 0
2, 31680, Note_on_c, 0, 63, 80
2, 31799, Note_on_c, 0, 63, 0
2, 31800, Note_on_c, 0, 69, 80
2, 31919, Note_on_c, 0, 69, 0
2, 31920, Note_on_c, 0, 68, 80
2, 32039, Note_on_c, 0, 68, 0
2, 32040, Note_on_c, 0, 66, 80
2, 32159, Note_on_c, 0, 66, 0
2, 32160, Note_on_c, 0, 68, 80
2, 32279, Note_on_c, 0, 68, 0
2, 32280, Note_on_c, 0, 66, 80
2, 32399, Note_on_c, 0, 66, 0
2, 32400, Note_on_c, 0, 64, 80
2, 32519, Note_on_c, 0, 64, 0
2, 32520, Note_on_c, 0, 63, 80
2, 32639, Note_on_c, 0, 63, 0
2, 32640, Note_on_c, 0, 61, 80
2, 32759, Note_on_c, 0, 61, 0
2, 32760, Note_on_c, 0, 71, 80
2, 32879, Note_on_c, 0, 71, 0
2, 32880, Note_on_c, 0, 69, 80
2, 32999, Note_on_c, 0, 69, 0
2, 33000, Note_on_c, 0, 68, 80
2, 33119, Note_on_c, 0, 68, 0
2, 33120, Note_on_c, 0, 66, 80
2, 33239, Note_on_c, 0, 66, 0
2, 33240, Note_on_c, 0, 64, 80
2, 33359, Note_on_c, 0, 64, 0
2, 33360, Note_on_c, 0, 63, 80
2, 33479, Note_on_c, 0, 63, 0
2, 33480, Note_on_c, 0, 66, 80
2, 33599, Note_on_c, 0, 66, 0
2, 33600, Note_on_c, 0, 64, 80
2, 33839, Note_on_c, 0, 64, 0
2, 33840, Note_on_c, 0, 63, 80
2, 34079, Note_on_c, 0, 63, 0
2, 34320, Note_on_c, 0, 72, 80
2, 34559, Note_on_c, 0, 72, 0
2, 34560, Note_on_c, 0, 73, 80
2, 34799, Note_on_c, 0, 73, 0
2, 34800, Note_on_c, 0, 68, 80
2, 35039, Note_on_c, 0, 68, 0
2, 35040, Note_on_c, 0, 73, 80
2, 35279, Note_on_c, 0, 73, 0
2, 35280, Note_on_c, 0, 71, 80
2, 35759, Note_on_c, 0, 71, 0
2, 35760, Note_on_c, 0, 69, 80
2, 35879, Note_on_c, 0, 69, 0
2, 35880, Note_on_c, 0, 68, 80
2, 35999, Note_on_c, 0, 68, 0
2, 36000, Note_on_c, 0, 66, 80
2, 36239, Note_on_c, 0, 66, 0
2, 36240, Note_on_c, 0, 64, 80
2, 36479, Note_on_c, 0, 64, 0
2, 36480, Note_on_c, 0, 63, 80
2, 36719, Note_on_c, 0, 63, 0
2, 36720, Note_on_c, 0, 64, 80
2, 36839, Note_on_c, 0, 64, 0
2, 36840, Note_on_c, 0, 66, 80
2, 36959, Note_on_c, 0, 66, 0
2, 36960, Note_on_c, 0, 64, 80
2, 37199, Note_on_c, 0, 64, 0
2, 37200, Note_on_c, 0, 63, 80
2, 37439, Note_on_c, 0, 63, 0
2, 37440, Note_on_c, 0, 61, 80
2, 37679, Note_on_c, 0, 61, 0
2, 37680, Note_on_c, 0, 66, 80
2, 38159, Note_on_c, 0, 66, 0
2, 38160, Note_on_c, 0, 69, 80
2, 38399, Note_on_c, 0, 69, 0
2, 38400, Note_on_c, 0, 68, 80
2, 38639, Note_on_c, 0, 68, 0
2, 38640, Note_on_c, 0, 71, 80
2, 38879, Note_on_c, 0, 71, 0
2, 38880, Note_on_c, 0, 64, 80
2, 39119, Note_on_c, 0, 64, 0
2, 39120, Note_on_c, 0, 68, 80
2, 39239, Note_on_c, 0, 68, 0
2, 39240, Note_on_c, 0, 64, 80
2, 39359, Note_on_c, 0, 64, 0
2, 39360, Note_on_c, 0, 68, 80
2, 39479, Note_on_c, 0, 68, 0
2, 39480, Note_on_c, 0, 75, 80
2, 39599, Note_on_c, 0, 75, 0
2, 39600, Note_on_c, 0, 73, 80
2, 39719, Note_on_c, 0, 73, 0
2, 39720, Note_on_c, 0, 72, 80
2, 39839, Note_on_c, 0, 72, 0
2, 39840, Note_on_c, 0, 73, 80
2, 39959, Note_on_c, 0, 73, 0
2, 39960, Note_on_c, 0, 71, 80
2, 40079, Note_on_c, 0, 71, 0
2, 40080, Note_on_c, 0, 69, 80
2, 40199, Note_on_c, 0, 69, 0
2, 40200, Note_on_c, 0, 68, 80
2, 40319, Note_on_c, 0, 68, 0
2, 40320, Note_on_c, 0, 69, 80
2, 40559, Note_on_c, 0, 69, 0
2, 40560, Note_on_c, 0, 71, 80
2, 40799, Note_on_c, 0, 71, 0
2, 40800, Note_on_c, 0, 69, 80
2, 41039, Note_on_c, 0, 69, 0
2, 41040, Note_on_c, 0, 68, 80
2, 41279, Note_on_c, 0, 68, 0
2, 41280, Note_on_c, 0, 66, 80
2, 41759, Note_on_c, 0, 66, 0
2, 42480, Note_on_c, 0, 59, 80
2, 42719, Note_on_c, 0, 59, 0
2, 42720, Note_on_c, 0, 71, 80
2, 43439, Note_on_c, 0, 71, 0
2, 43440, Note_on_c, 0, 69, 80
2, 43559, Note_on_c, 0, 69, 0
2, 43560, Note_on_c, 0, 68, 80
2, 43679, Note_on_c, 0, 68, 0
2, 43680, Note_on_c, 0, 66, 80
2, 43799, Note_on_c, 0, 66, 0
2, 43800, Note_on_c, 0, 64, 80
2, 43919, Note_on_c, 0, 64, 0
2, 43920, Note_on_c, 0, 63, 80
2, 44039, Note_on_c, 0, 63, 0
2, 44040, Note_on_c, 0, 61, 80
2, 44159, Note_on_c, 0, 61, 0
2, 44160, Note_on_c, 0, 59, 80
2, 44279, Note_on_c, 0, 59, 0
2, 44280, Note_on_c, 0, 57, 80
2, 44399, Note_on_c, 0, 57, 0
2, 44400, Note_on_c, 0, 59, 80
2, 44519, Note_on_c, 0, 59, 0
2, 44520, Note_on_c, 0, 61, 80
2, 44639, Note_on_c, 0, 61, 0
2, 44640, Note_on_c, 0, 63, 80
2, 44759, Note_on_c, 0, 63, 0
2, 44760, Note_on_c, 0, 59, 80
2, 44879, Note_on_c, 0, 59, 0
2, 44880, Note_on_c, 0, 61, 80
2, 44999, Note_on_c, 0, 61, 0
2, 45000, Note_on_c, 0, 63, 80
2, 45119, Note_on_c, 0, 63, 0
2, 45120, Note_on_c, 0, 64, 80
2, 45239, Note_on_c, 0, 64, 0
2, 45240, Note_on_c, 0, 63, 80
2, 45359, Note_on_c, 0, 63, 0
2, 45360, Note_on_c, 0, 64, 80
2, 45479, Note_on_c, 0, 64, 0
2, 45480, Note_on_c, 0, 66, 80
2, 45599, Note_on_c, 0, 66, 0
2, 45600, Note_on_c, 0, 68, 80
2, 45719, Note_on_c, 0, 68, 0
2, 45720, Note_on_c, 0, 64, 80
2, 45839, Note_on_c, 0, 64, 0
2, 45840, Note_on_c, 0, 66, 80
2, 45959, Note_on_c, 0, 66, 0
2, 45960, Note_on_c, 0, 68, 80
2, 46079, Note_on_c, 0, 68, 0
2, 46080, Note_on_c, 0, 68, 80
2, 46319, Note_on_c, 0, 68, 0
2, 46320, Note_on_c, 0, 66, 80
2, 46559, Note_on_c, 0, 66, 0
2, 46680, Note_on_c, 0, 66, 80
2, 46799, Note_on_c, 0, 66, 0
2, 46800, Note_on_c, 0, 64, 80
2, 46919, Note_on_c, 0, 64, 0
2, 46920, Note_on_c, 0, 66, 80
2, 47039, Note_on_c, 0, 66, 0
2, 47040, Note_on_c, 0, 68, 80
2, 47159, Note_on_c, 0, 68, 0
2, 47160, Note_on_c, 0, 71, 80
2, 47279, Note_on_c, 0, 71, 0
2, 47280, Note_on_c, 0, 69, 80
2, 47399, Note_on_c, 0, 69, 0
2, 47400, Note_on_c, 0, 68, 80
2, 47519, Note_on_c, 0, 68, 0
2, 47520, Note_on_c, 0, 69, 80
2, 47639, Note_on_c, 0, 69, 0
2, 47640, Note_on_c, 0, 68, 80
2, 47759, Note_on_c, 0, 68, 0
2, 47760, Note_on_c, 0, 66, 80
2, 47879, Note_on_c, 0, 66, 0
2, 47880, Note_on_c, 0, 64, 80
2, 47999, Note_on_c, 0, 64, 0
2, 48000, Note_on_c, 0, 63, 80
2, 48119, Note_on_c, 0, 63, 0
2, 48120, Note_on_c, 0, 68, 80
2, 48239, Note_on_c, 0, 68, 0
2, 48240, Note_on_c, 0, 66, 80
2, 48359, Note_on_c, 0, 66, 0
2, 48360, Note_on_c, 0, 64, 80
2, 48479, Note_on_c, 0, 64, 0
2, 48480, Note_on_c, 0, 66, 80
2, 48599, Note_on_c, 0, 66, 0
2, 48600, Note_on_c, 0, 64, 80
2, 48719, Note_on_c, 0, 64, 0
2, 48720, Note_on_c, 0, 63, 80
2, 48839, Note_on_c, 0, 63, 0
2, 48840, Note_on_c, 0, 61, 80
2, 48959, Note_on_c, 0, 61, 0
2, 48960, Note_on_c, 0, 59, 80
2, 49439, Note_on_c, 0, 59, 0
2, 49560, Note_on_c, 0, 59, 80
2, 49679, Note_on_c, 0, 59, 0
2, 49680, Note_on_c, 0, 61, 80
2, 49799, Note_on_c, 0, 61, 0
2, 49800, Note_on_c, 0, 63, 80
2, 49919, Note_on_c, 0, 63, 0
2, 49920, Note_on_c, 0, 64, 80
2, 50519, Note_on_c, 0, 64, 0
2, 50520, Note_on_c, 0, 63, 80
2, 50639, Note_on_c, 0, 63, 0
2, 50640, Note_on_c, 0, 65, 80
2, 50759, Note_on_c, 0, 65, 0
2, 50760, Note_on_c, 0, 67, 80
2, 50879, Note_on_c, 0, 67, 0
2, 50880, Note_on_c, 0, 68, 80
2, 51479, Note_on_c, 0, 68, 0
2, 51480, Note_on_c, 0, 66, 80
2, 51599, Note_on_c, 0, 66, 0
2, 51600, Note_on_c, 0, 68, 80
2, 51719, Note_on_c, 0, 68, 0
2, 51720, Note_on_c, 0, 70, 80
2, 51839, Note_on_c, 0, 70, 0
2, 51840, Note_on_c, 0, 71, 80
2, 52079, Note_on_c, 0, 71, 0
2, 52080, Note_on_c, 0, 63, 80
2, 52319, Note_on_c, 0, 63, 0
2, 52320, Note_on_c, 0, 65, 80
2, 52559, Note_on_c, 0, 65, 0
2, 52560, Note_on_c, 0, 67, 80
2, 52799, Note_on_c, 0, 67, 0
2, 52800, Note_on_c, 0, 68, 80
2, 53039, Note_on_c, 0, 68, 0
2, 53040, Note_on_c, 0, 59, 80
2, 53279, Note_on_c, 0, 59, 0
2, 53280, Note_on_c, 0, 61, 80
2, 53519, Note_on_c, 0, 61, 0
2, 53520, Note_on_c, 0, 63, 80
2, 53759, Note_on_c, 0, 63, 0
2, 53760, Note_on_c, 0, 64, 80
2, 53999, Note_on_c, 0, 64, 0
2, 54000, Note_on_c, 0, 66, 80
2, 54239, Note_on_c, 0, 66, 0
2, 54240, Note_on_c, 0, 64, 80
2, 54479, Note_on_c, 0, 64, 0
2, 54480, Note_on_c, 0, 60, 80
2, 54719, Note_on_c, 0, 60, 0
2, 54720, Note_on_c, 0, 60, 80
2, 54959, Note_on_c, 0, 60, 0
2, 54960, Note_on_c, 0, 61, 80
2, 55199, Note_on_c, 0, 61, 0
2, 55680, Note_on_c, 0, 61, 80
2, 56639, Note_on_c, 0, 61, 0
2, 56640, Note_on_c, 0, 68, 80
2, 57599, Note_on_c, 0, 68, 0
2, 57600, Note_on_c, 0, 64, 80
2, 58559, Note_on_c, 0, 64, 0
2, 58560, Note_on_c, 0, 61, 80
2, 59519, Note_on_c, 0, 61, 0
2, 59520, Note_on_c, 0, 60, 80
2, 60479, Note_on_c, 0, 60, 0
2, 60480, Note_on_c, 0, 61, 80
2, 60959, Note_on_c, 0, 61, 0
2, 60960, Note_on_c, 0, 63, 80
2, 61439, Note_on_c, 0, 63, 0
2, 61440, Note_on_c, 0, 64, 80
2, 62639, Note_on_c, 0, 64, 0
2, 62640, Note_on_c, 0, 66, 80
2, 62879, Note_on_c, 0, 66, 0
2, 62880, Note_on_c, 0, 64, 80
2, 63119, Note_on_c, 0, 64, 0
2, 63120, Note_on_c, 0, 63, 80
2, 63359, Note_on_c, 0, 63, 0
2, 63360, Note_on_c, 0, 61, 80
2, 63479, Note_on_c, 0, 61, 0
2, 63480, Note_on_c, 0, 63, 80
2, 63599, Note_on_c, 0, 63, 0
2, 63600, Note_on_c, 0, 61, 80
2, 63719, Note_on_c, 0, 61, 0
2, 63720, Note_on_c, 0, 60, 80
2, 63839, Note_on_c, 0, 60, 0
2, 63840, Note_on_c, 0, 61, 80
2, 63959, Note_on_c, 0, 61, 0
2, 63960, Note_on_c, 0, 59, 80
2, 64079, Note_on_c, 0, 59, 0
2, 64080, Note_on_c, 0, 58, 80
2, 64199, Note_on_c, 0, 58, 0
2, 64200, Note_on_c, 0, 56, 80
2, 64319, Note_on_c, 0, 56, 0
2, 64320, Note_on_c, 0, 58, 80
2, 65399, Note_on_c, 0, 58, 0
2, 65400, Note_on_c, 0, 61, 80
2, 65519, Note_on_c, 0, 61, 0
2, 65520, Note_on_c, 0, 59, 80
2, 65639, Note_on_c, 0, 59, 0
2, 65640, Note_on_c, 0, 58, 80
2, 65759, Note_on_c, 0, 58, 0
2, 65760, Note_on_c, 0, 59, 80
2, 65879, Note_on_c, 0, 59, 0
2, 65880, Note_on_c, 0, 58, 80
2, 65999, Note_on_c, 0, 58, 0
2, 66000, Note_on_c, 0, 56, 80
2, 66119, Note_on_c, 0, 56, 0
2, 66120, Note_on_c, 0, 55, 80
2, 66239, Note_on_c, 0, 55, 0
2, 66240, Note_on_c, 0, 56, 80
2, 66479, Note_on_c, 0, 56, 0
2, 67320, Note_on_c, 0, 71, 80
2, 67439, Note_on_c, 0, 71, 0
2, 67440, Note_on_c, 0, 70, 80
2, 67559, Note_on_c, 0, 70, 0
2, 67560, Note_on_c, 0, 68, 80
2, 67679, Note_on_c, 0, 68, 0
2, 67680, Note_on_c, 0, 70, 80
2, 67799, Note_on_c, 0, 70, 0
2, 67800, Note_on_c, 0, 68, 80
2, 67919, Note_on_c, 0, 68, 0
2, 67920, Note_on_c, 0, 67, 80
2, 68039, Note_on_c, 0, 67, 0
2, 68040, Note_on_c, 0, 65, 80
2, 68159, Note_on_c, 0, 65, 0
2, 68160, Note_on_c, 0, 67, 80
2, 68399, Note_on_c, 0, 67, 0
2, 69360, Note_on_c, 0, 63, 80
2, 69599, Note_on_c, 0, 63, 0
2, 69600, Note_on_c, 0, 75, 80
2, 70319, Note_on_c, 0, 75, 0
2, 70320, Note_on_c, 0, 73, 80
2, 70439, Note_on_c, 0, 73, 0
2, 70440, Note_on_c, 0, 71, 80
2, 70559, Note_on_c, 0, 71, 0
2, 70560, Note_on_c, 0, 70, 80
2, 70679, Note_on_c, 0, 70, 0
2, 70680, Note_on_c, 0, 68, 80
2, 70799, Note_on_c, 0, 68, 0
2, 70800, Note_on_c, 0, 67, 80
2, 70919, Note_on_c, 0, 67, 0
2, 70920, Note_on_c, 0, 65, 80
2, 71039, Note_on_c, 0, 65, 0
2, 71040, Note_on_c, 0, 63, 80
2, 71159, Note_on_c, 0, 63, 0
2, 71160, Note_on_c, 0, 61, 80
2, 71279, Note_on_c, 0, 61, 0
2, 71280, Note_on_c, 0, 63, 80
2, 71399, Note_on_c, 0, 63, 0
2, 71400, Note_on_c, 0, 65, 80
2, 71519, Note_on_c, 0, 65, 0
2, 71520, Note_on_c, 0, 67, 80
2, 71639, Note_on_c, 0, 67, 0
2, 71640, Note_on_c, 0, 63, 80
2, 71759, Note_on_c, 0, 63, 0
2, 71760, Note_on_c, 0, 65, 80
2, 71879, Note_on_c, 0, 65, 0
2, 71880, Note_on_c, 0, 67, 80
2, 71999, Note_on_c, 0, 67, 0
2, 72000, Note_on_c, 0, 68, 80
2, 72119, Note_on_c, 0, 68, 0
2, 72120, Note_on_c, 0, 67, 80
2, 72239, Note_on_c, 0, 67, 0
2, 72240, Note_on_c, 0, 68, 80
2, 72359, Note_on_c, 0, 68, 0
2, 72360, Note_on_c, 0, 70, 80
2, 72479, Note_on_c, 0, 70, 0
2, 72480, Note_on_c, 0, 71, 80
2, 72599, Note_on_c, 0, 71, 0
2, 72600, Note_on_c, 0, 68, 80
2, 72719, Note_on_c, 0, 68, 0
2, 72720, Note_on_c, 0, 70, 80
2, 72839, Note_on_c, 0, 70, 0
2, 72840, Note_on_c, 0, 71, 80
2, 72959, Note_on_c, 0, 71, 0
2, 72960, Note_on_c, 0, 71, 80
2, 73199, Note_on_c, 0, 71, 0
2, 73200, Note_on_c, 0, 70, 80
2, 73439, Note_on_c, 0, 70, 0
2, 73560, Note_on_c, 0, 70, 80
2, 73679, Note_on_c, 0, 70, 0
2, 73680, Note_on_c, 0, 68, 80
2, 73799, Note_on_c, 0, 68, 0
2, 73800, Note_on_c, 0, 70, 80
2, 73919, Note_on_c, 0, 70, 0
2, 73920, Note_on_c, 0, 71, 80
2, 74039, Note_on_c, 0, 71, 0
2, 74040, Note_on_c, 0, 75, 80
2, 74159, Note_on_c, 0, 75, 0
2, 74160, Note_on_c, 0, 73, 80
2, 74279, Note_on_c, 0, 73, 0
2, 74280, Note_on_c, 0, 71, 80
2, 74399, Note_on_c, 0, 71, 0
2, 74400, Note_on_c, 0, 73, 80
2, 74519, Note_on_c, 0, 73, 0
2, 74520, Note_on_c, 0, 71, 80
2, 74639, Note_on_c, 0, 71, 0
2, 74640, Note_on_c, 0, 70, 80
2, 74759, Note_on_c, 0, 70, 0
2, 74760, Note_on_c, 0, 68, 80
2, 74879, Note_on_c, 0, 68, 0
2, 74880, Note_on_c, 0, 66, 80
2, 74999, Note_on_c, 0, 66, 0
2, 75000, Note_on_c, 0, 71, 80
2, 75119, Note_on_c, 0, 71, 0
2, 75120, Note_on_c, 0, 70, 80
2, 75239, Note_on_c, 0, 70, 0
2, 75240, Note_on_c, 0, 68, 80
2, 75359, Note_on_c, 0, 68, 0
2, 75360, Note_on_c, 0, 70, 80
2, 75479, Note_on_c, 0, 70, 0
2, 75480, Note_on_c, 0, 68, 80
2, 75599, Note_on_c, 0, 68, 0
2, 75600, Note_on_c, 0, 67, 80
2, 75719, Note_on_c, 0, 67, 0
2, 75720, Note_on_c, 0, 65, 80
2, 75839, Note_on_c, 0, 65, 0
2, 75840, Note_on_c, 0, 63, 80
2, 76079, Note_on_c, 0, 63, 0
2, 76080, Note_on_c, 0, 64, 80
2, 76319, Note_on_c, 0, 64, 0
2, 76320, Note_on_c, 0, 63, 80
2, 77039, Note_on_c, 0, 63, 0
2, 77040, Note_on_c, 0, 63, 80
2, 77279, Note_on_c, 0, 63, 0
2, 77280, Note_on_c, 0, 68, 80
2, 77519, Note_on_c, 0, 68, 0
2, 77520, Note_on_c, 0, 66, 80
2, 77759, Note_on_c, 0, 66, 0
2, 77760, Note_on_c, 0, 65, 80
2, 77999, Note_on_c, 0, 65, 0
2, 78960, Note_on_c, 0, 61, 80
2, 79199, Note_on_c, 0, 61, 0
2, 79200, Note_on_c, 0, 66, 80
2, 79439, Note_on_c, 0, 66, 0
2, 79440, Note_on_c, 0, 64, 80
2, 79679, Note_on_c, 0, 64, 0
2, 79680, Note_on_c, 0, 63, 80
2, 79919, Note_on_c, 0, 63, 0
2, 80760, Note_on_c, 0, 75, 80
2, 80879, Note_on_c, 0, 75, 0
2, 80880, Note_on_c, 0, 73, 80
2, 80999, Note_on_c, 0, 73, 0
2, 81000, Note_on_c, 0, 71, 80
2, 81119, Note_on_c, 0, 71, 0
2, 81120, Note_on_c, 0, 73, 80
2, 81239, Note_on_c, 0, 73, 0
2, 81240, Note_on_c, 0, 71, 80
2, 81359, Note_on_c, 0, 71, 0
2, 81360, Note_on_c, 0, 70, 80
2, 81479, Note_on_c, 0, 70, 0
2, 81480, Note_on_c, 0, 68, 80
2, 81599, Note_on_c, 0, 68, 0
2, 81600, Note_on_c, 0, 70, 80
2, 81719, Note_on_c, 0, 70, 0
2, 81720, Note_on_c, 0, 71, 80
2, 81839, Note_on_c, 0, 71, 0
2, 81840, Note_on_c, 0, 70, 80
2, 81959, Note_on_c, 0, 70, 0
2, 81960, Note_on_c, 0, 68, 80
2, 82079, Note_on_c, 0, 68, 0
2, 82080, Note_on_c, 0, 70, 80
2, 82199, Note_on_c, 0, 70, 0
2, 82200, Note_on_c, 0, 68, 80
2, 82319, Note_on_c, 0, 68, 0
2, 82320, Note_on_c, 0, 67, 80
2, 82439, Note_on_c, 0, 67, 0
2, 82440, Note_on_c, 0, 65, 80
2, 82559, Note_on_c, 0, 65, 0
2, 82560, Note_on_c, 0, 63, 80
2, 83519, Note_on_c, 0, 63, 0
2, 83520, Note_on_c, 0, 68, 80
2, 84719, Note_on_c, 0, 68, 0
2, 84720, Note_on_c, 0, 73, 80
2, 84839, Note_on_c, 0, 73, 0
2, 84840, Note_on_c, 0, 75, 80
2, 84959, Note_on_c, 0, 75, 0
2, 84960, Note_on_c, 0, 76, 80
2, 85199, Note_on_c, 0, 76, 0
2, 85200, Note_on_c, 0, 75, 80
2, 85319, Note_on_c, 0, 75, 0
2, 85320, Note_on_c, 0, 73, 80
2, 85439, Note_on_c, 0, 73, 0
2, 85440, Note_on_c, 0, 75, 80
2, 85679, Note_on_c, 0, 75, 0
2, 87000, Note_on_c, 0, 59, 80
2, 87119, Note_on_c, 0, 59, 0
2, 87120, Note_on_c, 0, 61, 80
2, 87239, Note_on_c, 0, 61, 0
2, 87240, Note_on_c, 0, 63, 80
2, 87359, Note_on_c, 0, 63, 0
2, 87360, Note_on_c, 0, 64, 80
2, 87599, Note_on_c, 0, 64, 0
2, 87960, Note_on_c, 0, 64, 80
2, 88079, Note_on_c, 0, 64, 0
2, 88080, Note_on_c, 0, 66, 80
2, 88199, Note_on_c, 0, 66, 0
2, 88200, Note_on_c, 0, 68, 80
2, 88319, Note_on_c, 0, 68, 0
2, 88320, Note_on_c, 0, 69, 80
2, 88439, Note_on_c, 0, 69, 0
2, 88440, Note_on_c, 0, 68, 80
2, 88559, Note_on_c, 0, 68, 0
2, 88560, Note_on_c, 0, 66, 80
2, 88679, Note_on_c, 0, 66, 0
2, 88680, Note_on_c, 0, 69, 80
2, 88799, Note_on_c, 0, 69, 0
2, 88800, Note_on_c, 0, 68, 80
2, 89519, Note_on_c, 0, 68, 0
2, 89520, Note_on_c, 0, 69, 80
2, 89999, Note_on_c, 0, 69, 0
2, 90000, Note_on_c, 0, 71, 80
2, 90119, Note_on_c, 0, 71, 0
2, 90120, Note_on_c, 0, 69, 80
2, 90239, Note_on_c, 0, 69, 0
2, 90240, Note_on_c, 0, 68, 80
2, 90479, Note_on_c, 0, 68, 0
2, 90480, Note_on_c, 0, 64, 80
2, 90719, Note_on_c, 0, 64, 0
2, 90720, Note_on_c, 0, 66, 80
2, 90959, Note_on_c, 0, 66, 0
2, 90960, Note_on_c, 0, 63, 80
2, 91199, Note_on_c, 0, 63, 0
2, 91200, Note_on_c, 0, 64, 80
2, 91439, Note_on_c, 0, 64, 0
2, 91920, Note_on_c, 0, 60, 80
2, 92159, Note_on_c, 0, 60, 0
2, 92160, Note_on_c, 0, 61, 80
2, 92399, Note_on_c, 0, 61, 0
2, 94320, Note_on_c, 0, 61, 80
2, 94559, Note_on_c, 0, 61, 0
2, 94560, Note_on_c, 0, 73, 80
2, 95279, Note_on_c, 0, 73, 0
2, 95280, Note_on_c, 0, 71, 80
2, 95399, Note_on_c, 0, 71, 0
2, 95400, Note_on_c, 0, 69, 80
2, 95519, Note_on_c, 0, 69, 0
2, 95520, Note_on_c, 0, 68, 80
2, 95639, Note_on_c, 0, 68, 0
2, 95640, Note_on_c, 0, 66, 80
2, 95759, Note_on_c, 0, 66, 0
2, 95760, Note_on_c, 0, 65, 80
2, 95879, Note_on_c, 0, 65, 0
2, 95880, Note_on_c, 0, 63, 80
2, 95999, Note_on_c, 0, 63, 0
2, 96000, Note_on_c, 0, 61, 80
2, 96119, Note_on_c, 0, 61, 0
2, 96120, Note_on_c, 0, 59, 80
2, 96239, Note_on_c, 0, 59, 0
2, 96240, Note_on_c, 0, 61, 80
2, 96359, Note_on_c, 0, 61, 0
2, 96360, Note_on_c, 0, 63, 80
2, 96479, Note_on_c, 0, 63, 0
2, 96480, Note_on_c, 0, 65, 80
2, 96599, Note_on_c, 0, 65, 0
2, 96600, Note_on_c, 0, 61, 80
2, 96719, Note_on_c, 0, 61, 0
2, 96720, Note_on_c, 0, 63, 80
2, 96839, Note_on_c, 0, 63, 0
2, 96840, Note_on_c, 0, 65, 80
2, 96959, Note_on_c, 0, 65, 0
2, 96960, Note_on_c, 0, 66, 80
2, 97079, Note_on_c, 0, 66, 0
2, 97080, Note_on_c, 0, 65, 80
2, 97199, Note_on_c, 0, 65, 0
2, 97200, Note_on_c, 0, 66, 80
2, 97319, Note_on_c, 0, 66, 0
2, 97320, Note_on_c, 0, 68, 80
2, 97439, Note_on_c, 0, 68, 0
2, 97440, Note_on_c, 0, 69, 80
2, 97559, Note_on_c, 0, 69, 0
2, 97560, Note_on_c, 0, 66, 80
2, 97679, Note_on_c, 0, 66, 0
2, 97680, Note_on_c, 0, 68, 80
2, 97799, Note_on_c, 0, 68, 0
2, 97800, Note_on_c, 0, 69, 80
2, 97919, Note_on_c, 0, 69, 0
2, 97920, Note_on_c, 0, 69, 80
2, 98159, Note_on_c, 0, 69, 0
2, 98160, Note_on_c, 0, 68, 80
2, 98399, Note_on_c, 0, 68, 0
2, 98520, Note_on_c, 0, 68, 80
2, 98639, Note_on_c, 0, 68, 0
2, 98640, Note_on_c, 0, 66, 80
2, 98759, Note_on_c, 0, 66, 0
2, 98760, Note_on_c, 0, 68, 80
2, 98879, Note_on_c, 0, 68, 0
2, 98880, Note_on_c, 0, 69, 80
2, 98999, Note_on_c, 0, 69, 0
2, 99000, Note_on_c, 0, 73, 80
2, 99119, Note_on_c, 0, 73, 0
2, 99120, Note_on_c, 0, 71, 80
2, 99239, Note_on_c, 0, 71, 0
2, 99240, Note_on_c, 0, 69, 80
2, 99359, Note_on_c, 0, 69, 0
2, 99360, Note_on_c, 0, 71, 80
2, 99479, Note_on_c, 0, 71, 0
2, 99480, Note_on_c, 0, 69, 80
2, 99599, Note_on_c, 0, 69, 0
2, 99600, Note_on_c, 0, 68, 80
2, 99719, Note_on_c, 0, 68, 0
2, 99720, Note_on_c, 0, 66, 80
2, 99839, Note_on_c, 0, 66, 0
2, 99840, Note_on_c, 0, 64, 80
2, 99959, Note_on_c, 0, 64, 0
2, 99960, Note_on_c, 0, 69, 80
2, 100079, Note_on_c, 0, 69, 0
2, 100080, Note_on_c, 0, 67, 80
2, 100199, Note_on_c, 0, 67, 0
2, 100200, Note_on_c, 0, 66, 80
2, 100319, Note_on_c, 0, 66, 0
2, 100320, Note_on_c, 0, 67, 80
2, 100439, Note_on_c, 0, 67, 0
2, 100440, Note_on_c, 0, 66, 80
2, 100559, Note_on_c, 0, 66, 0
2, 100560, Note_on_c, 0, 64, 80
2, 100679, Note_on_c, 0, 64, 0
2, 100680, Note_on_c, 0, 62, 80
2, 100799, Note_on_c, 0, 62, 0
2, 100800, Note_on_c, 0, 61, 80
2, 101279, Note_on_c, 0, 61, 0
2, 101280, Note_on_c, 0, 62, 80
2, 101519, Note_on_c, 0, 62, 0
2, 101520, Note_on_c, 0, 64, 80
2, 101759, Note_on_c, 0, 64, 0
2, 101760, Note_on_c, 0, 57, 80
2, 101999, Note_on_c, 0, 57, 0
2, 102000, Note_on_c, 0, 58, 80
2, 102239, Note_on_c, 0, 58, 0
2, 102240, Note_on_c, 0, 59, 80
2, 102479, Note_on_c, 0, 59, 0
2, 102480, Note_on_c, 0, 61, 80
2, 102719, Note_on_c, 0, 61, 0
2, 102720, Note_on_c, 0, 62, 80
2, 103799, Note_on_c, 0, 62, 0
2, 103800, Note_on_c, 0, 66, 80
2, 103919, Note_on_c, 0, 66, 0
2, 103920, Note_on_c, 0, 64, 80
2, 104039, Note_on_c, 0, 64, 0
2, 104040, Note_on_c, 0, 62, 80
2, 104159, Note_on_c, 0, 62, 0
2, 104160, Note_on_c, 0, 64, 80
2, 104279, Note_on_c, 0, 64, 0
2, 104280, Note_on_c, 0, 62, 80
2, 104399, Note_on_c, 0, 62, 0
2, 104400, Note_on_c, 0, 61, 80
2, 104519, Note_on_c, 0, 61, 0
2, 104520, Note_on_c, 0, 59, 80
2, 104639, Note_on_c, 0, 59, 0
2, 104640, Note_on_c, 0, 68, 80
2, 105719, Note_on_c, 0, 68, 0
2, 105720, Note_on_c, 0, 71, 80
2, 105839, Note_on_c, 0, 71, 0
2, 105840, Note_on_c, 0, 69, 80
2, 105959, Note_on_c, 0, 69, 0
2, 105960, Note_on_c, 0, 68, 80
2, 106079, Note_on_c, 0, 68, 0
2, 106080, Note_on_c, 0, 69, 80
2, 106199, Note_on_c, 0, 69, 0
2, 106200, Note_on_c, 0, 68, 80
2, 106319, Note_on_c, 0, 68, 0
2, 106320, Note_on_c, 0, 66, 80
2, 106439, Note_on_c, 0, 66, 0
2, 106440, Note_on_c, 0, 65, 80
2, 106559, Note_on_c, 0, 65, 0
2, 106560, Note_on_c, 0, 66, 80
2, 106799, Note_on_c, 0, 66, 0
2, 108600, Note_on_c, 0, 58, 80
2, 108719, Note_on_c, 0, 58, 0
2, 108720, Note_on_c, 0, 59, 80
2, 108839, Note_on_c, 0, 59, 0
2, 108840, Note_on_c, 0, 61, 80
2, 108959, Note_on_c, 0, 61, 0
2, 108960, Note_on_c, 0, 62, 80
2, 109079, Note_on_c, 0, 62, 0
2, 109080, Note_on_c, 0, 59, 80
2, 109199, Note_on_c, 0, 59, 0
2, 109200, Note_on_c, 0, 61, 80
2, 109319, Note_on_c, 0, 61, 0
2, 109320, Note_on_c, 0, 63, 80
2, 109439, Note_on_c, 0, 63, 0
2, 109440, Note_on_c, 0, 64, 80
2, 110879, Note_on_c, 0, 64, 0
2, 110880, Note_on_c, 0, 63, 80
2, 111359, Note_on_c, 0, 63, 0
2, 111360, Note_on_c, 0, 61, 80
2, 111719, Note_on_c, 0, 61, 0
2, 111720, Note_on_c, 0, 59, 80
2, 111839, Note_on_c, 0, 59, 0
2, 111840, Note_on_c, 0, 57, 80
2, 112319, Note_on_c, 0, 57, 0
2, 112320, Note_on_c, 0, 56, 80
2, 112559, Note_on_c, 0, 56, 0
2, 113280, Note_on_c, 0, 61, 80
2, 114239, Note_on_c, 0, 61, 0
2, 114240, Note_on_c, 0, 68, 80
2, 115199, Note_on_c, 0, 68, 0
2, 115200, Note_on_c, 0, 64, 80
2, 116159, Note_on_c, 0, 64, 0
2, 116160, Note_on_c, 0, 61, 80
2, 117119, Note_on_c, 0, 61, 0
2, 117120, Note_on_c, 0, 60, 80
2, 118079, Note_on_c, 0, 60, 0
2, 118080, Note_on_c, 0, 61, 80
2, 118559, Note_on_c, 0, 61, 0
2, 118560, Note_on_c, 0, 63, 80
2, 119039, Note_on_c, 0, 63, 0
2, 119040, Note_on_c, 0, 64, 80
2, 120239, Note_on_c, 0, 64, 0
2, 120240, Note_on_c, 0, 66, 80
2, 120479, Note_on_c, 0, 66, 0
2, 120480, Note_on_c, 0, 64, 80
2, 120719, Note_on_c, 0, 64, 0
2, 120720, Note_on_c, 0, 62, 80
2, 120959, Note_on_c, 0, 62, 0
2, 120960, Note_on_c, 0, 61, 80
2, 121439, Note_on_c, 0, 61, 0
2, 121680, Note_on_c, 0, 61, 80
2, 121919, Note_on_c, 0, 61, 0
2, 121920, Note_on_c, 0, 63, 80
2, 122159, Note_on_c, 0, 63, 0
2, 122160, Note_on_c, 0, 60, 80
2, 122399, Note_on_c, 0, 60, 0
2, 122400, Note_on_c, 0, 61, 80
2, 123359, Note_on_c, 0, 61, 0
2, 123360, Note_on_c, 0, 60, 80
2, 123839, Note_on_c, 0, 60, 0
2, 123840, Note_on_c, 0, 56, 80
2, 124799, Note_on_c, 0, 56, 0
2, 124800, End_track
3, 0, Start_track
3, 0, Key_signature, 4, "major"
3, 0, Program_c, 1, 46
3, 2, Control_c, 1, 7, 100
3, 4, Control_c, 1, 10, 64
3, 6, Control_c, 1, 91, 30
3, 8, Control_c, 1, 93, 30
3, 20400, Note_on_c, 1, 56, 80
3, 20639, Note_on_c, 1, 56, 0
3, 20640, Note_on_c, 1, 68, 80
3, 21359, Note_on_c, 1, 68, 0
3, 21360, Note_on_c, 1, 67, 80
3, 21479, Note_on_c, 1, 67, 0
3, 21480, Note_on_c, 1, 65, 80
3, 21599, Note_on_c, 1, 65, 0
3, 21600, Note_on_c, 1, 63, 80
3, 21719, Note_on_c, 1, 63, 0
3, 21720, Note_on_c, 1, 61, 80
3, 21839, Note_on_c, 1, 61, 0
3, 21840, Note_on_c, 1, 59, 80
3, 21959, Note_on_c, 1, 59, 0
3, 21960, Note_on_c, 1, 58, 80
3, 22079, Note_on_c, 1, 58, 0
3, 22080, Note_on_c, 1, 56, 80
3, 22199, Note_on_c, 1, 56, 0
3, 22200, Note_on_c, 1, 55, 80
3, 22319, Note_on_c, 1, 55, 0
3, 22320, Note_on_c, 1, 56, 80
3, 22439, Note_on_c, 1, 56, 0
3, 22440, Note_on_c, 1, 58, 80
3, 22559, Note_on_c, 1, 58, 0
3, 22560, Note_on_c, 1, 59, 80
3, 22679, Note_on_c, 1, 59, 0
3, 22680, Note_on_c, 1, 56, 80
3, 22799, Note_on_c, 1, 56, 0
3, 22800, Note_on_c, 1, 58, 80
3, 22919, Note_on_c, 1, 58, 0
3, 22920, Note_on_c, 1, 59, 80
3, 23039, Note_on_c, 1, 59, 0
3, 23040, Note_on_c, 1, 61, 80
3, 23159, Note_on_c, 1, 61, 0
3, 23160, Note_on_c, 1, 60, 80
3, 23279, Note_on_c, 1, 60, 0
3, 23280, Note_on_c, 1, 61, 80
3, 23399, Note_on_c, 1, 61, 0
3, 23400, Note_on_c, 1, 63, 80
3, 23519, Note_on_c, 1, 63, 0
3, 23520, Note_on_c, 1, 64, 80
3, 23639, Note_on_c, 1, 64, 0
3, 23640, Note_on_c, 1, 61, 80
3, 23759, Note_on_c, 1, 61, 0
3, 23760, Note_on_c, 1, 63, 80
3, 23879, Note_on_c, 1, 63, 0
3, 23880, Note_on_c, 1, 64, 80
3, 23999, Note_on_c, 1, 64, 0
3, 24000, Note_on_c, 1, 64, 80
3, 24239, Note_on_c, 1, 64, 0
3, 24240, Note_on_c, 1, 63, 80
3, 24479, Note_on_c, 1, 63, 0
3, 24600, Note_on_c, 1, 63, 80
3, 24719, Note_on_c, 1, 63, 0
3, 24720, Note_on_c, 1, 61, 80
3, 24839, Note_on_c, 1, 61, 0
3, 24840, Note_on_c, 1, 63, 80
3, 24959, Note_on_c, 1, 63, 0
3, 24960, Note_on_c, 1, 64, 80
3, 25079, Note_on_c, 1, 64, 0
3, 25080, Note_on_c, 1, 68, 80
3, 25199, Note_on_c, 1, 68, 0
3, 25200, Note_on_c, 1, 66, 80
3, 25319, Note_on_c, 1, 66, 0
3, 25320, Note_on_c, 1, 64, 80
3, 25439, Note_on_c, 1, 64, 0
3, 25440, Note_on_c, 1, 66, 80
3, 25559, Note_on_c, 1, 66, 0
3, 25560, Note_on_c, 1, 64, 80
3, 25679, Note_on_c, 1, 64, 0
3, 25680, Note_on_c, 1, 63, 80
3, 25799, Note_on_c, 1, 63, 0
3, 25800, Note_on_c, 1, 61, 80
3, 25919, Note_on_c, 1, 61, 0
3, 25920, Note_on_c, 1, 59, 80
3, 26039, Note_on_c, 1, 59, 0
3, 26040, Note_on_c, 1, 64, 80
3, 26159, Note_on_c, 1, 64, 0
3, 26160, Note_on_c, 1, 63, 80
3, 26279, Note_on_c, 1, 63, 0
3, 26280, Note_on_c, 1, 61, 80
3, 26399, Note_on_c, 1, 61, 0
3, 26400, Note_on_c, 1, 63, 80
3, 26519, Note_on_c, 1, 63, 0
3, 26520, Note_on_c, 1, 61, 80
3, 26639, Note_on_c, 1, 61, 0
3, 26640, Note_on_c, 1, 60, 80
3, 26759, Note_on_c, 1, 60, 0
3, 26760, Note_on_c, 1, 58, 80
3, 26879, Note_on_c, 1, 58, 0
3, 26880, Note_on_c, 1, 56, 80
3, 27119, Note_on_c, 1, 56, 0
3, 27120, Note_on_c, 1, 57, 80
3, 27239, Note_on_c, 1, 57, 0
3, 27240, Note_on_c, 1, 56, 80
3, 27359, Note_on_c, 1, 56, 0
3, 27360, Note_on_c, 1, 57, 80
3, 28079, Note_on_c, 1, 57, 0
3, 28080, Note_on_c, 1, 59, 80
3, 28199, Note_on_c, 1, 59, 0
3, 28200, Note_on_c, 1, 57, 80
3, 28319, Note_on_c, 1, 57, 0
3, 28320, Note_on_c, 1, 59, 80
3, 29039, Note_on_c, 1, 59, 0
3, 32880, Note_on_c, 1, 49, 80
3, 33119, Note_on_c, 1, 49, 0
3, 33120, Note_on_c, 1, 61, 80
3, 33839, Note_on_c, 1, 61, 0
3, 33840, Note_on_c, 1, 60, 80
3, 33959, Note_on_c, 1, 60, 0
3, 33960, Note_on_c, 1, 58, 80
3, 34079, Note_on_c, 1, 58, 0
3, 34080, Note_on_c, 1, 56, 80
3, 34199, Note_on_c, 1, 56, 0
3, 34200, Note_on_c, 1, 54, 80
3, 34319, Note_on_c, 1, 54, 0
3, 34320, Note_on_c, 1, 52, 80
3, 34439, Note_on_c, 1, 52, 0
3, 34440, Note_on_c, 1, 51, 80
3, 34559, Note_on_c, 1, 51, 0
3, 34560, Note_on_c, 1, 49, 80
3, 34679, Note_on_c, 1, 49, 0
3, 34680, Note_on_c, 1, 48, 80
3, 34799, Note_on_c, 1, 48, 0
3, 34800, Note_on_c, 1, 49, 80
3, 34919, Note_on_c, 1, 49, 0
3, 34920, Note_on_c, 1, 51, 80
3, 35039, Note_on_c, 1, 51, 0
3, 35040, Note_on_c, 1, 52, 80
3, 35159, Note_on_c, 1, 52, 0
3, 35160, Note_on_c, 1, 49, 80
3, 35279, Note_on_c, 1, 49, 0
3, 35280, Note_on_c, 1, 51, 80
3, 35399, Note_on_c, 1, 51, 0
3, 35400, Note_on_c, 1, 52, 80
3, 35519, Note_on_c, 1, 52, 0
3, 35520, Note_on_c, 1, 54, 80
3, 35639, Note_on_c, 1, 54, 0
3, 35640, Note_on_c, 1, 53, 80
3, 35759, Note_on_c, 1, 53, 0
3, 35760, Note_on_c, 1, 54, 80
3, 35879, Note_on_c, 1, 54, 0
3, 35880, Note_on_c, 1, 56, 80
3, 35999, Note_on_c, 1, 56, 0
3, 36000, Note_on_c, 1, 57, 80
3, 36119, Note_on_c, 1, 57, 0
3, 36120, Note_on_c, 1, 54, 80
3, 36239, Note_on_c, 1, 54, 0
3, 36240, Note_on_c, 1, 56, 80
3, 36359, Note_on_c, 1, 56, 0
3, 36360, Note_on_c, 1, 57, 80
3, 36479, Note_on_c, 1, 57, 0
3, 36480, Note_on_c, 1, 57, 80
3, 36719, Note_on_c, 1, 57, 0
3, 36720, Note_on_c, 1, 56, 80
3, 36959, Note_on_c, 1, 56, 0
3, 37080, Note_on_c, 1, 56, 80
3, 37199, Note_on_c, 1, 56, 0
3, 37200, Note_on_c, 1, 54, 80
3, 37319, Note_on_c, 1, 54, 0
3, 37320, Note_on_c, 1, 56, 80
3, 37439, Note_on_c, 1, 56, 0
3, 37440, Note_on_c, 1, 57, 80
3, 37559, Note_on_c, 1, 57, 0
3, 37560, Note_on_c, 1, 61, 80
3, 37679, Note_on_c, 1, 61, 0
3, 37680, Note_on_c, 1, 59, 80
3, 37799, Note_on_c, 1, 59, 0
3, 37800, Note_on_c, 1, 57, 80
3, 37919, Note_on_c, 1, 57, 0
3, 37920, Note_on_c, 1, 59, 80
3, 38039, Note_on_c, 1, 59, 0
3, 38040, Note_on_c, 1, 57, 80
3, 38159, Note_on_c, 1, 57, 0
3, 38160, Note_on_c, 1, 56, 80
3, 38279, Note_on_c, 1, 56, 0
3, 38280, Note_on_c, 1, 54, 80
3, 38399, Note_on_c, 1, 54, 0
3, 38400, Note_on_c, 1, 52, 80
3, 38519, Note_on_c, 1, 52, 0
3, 38520, Note_on_c, 1, 57, 80
3, 38639, Note_on_c, 1, 57, 0
3, 38640, Note_on_c, 1, 56, 80
3, 38759, Note_on_c, 1, 56, 0
3, 38760, Note_on_c, 1, 54, 80
3, 38879, Note_on_c, 1, 54, 0
3, 38880, Note_on_c, 1, 56, 80
3, 38999, Note_on_c, 1, 56, 0
3, 39000, Note_on_c, 1, 54, 80
3, 39119, Note_on_c, 1, 54, 0
3, 39120, Note_on_c, 1, 52, 80
3, 39239, Note_on_c, 1, 52, 0
3, 39240, Note_on_c, 1, 51, 80
3, 39359, Note_on_c, 1, 51, 0
3, 39360, Note_on_c, 1, 49, 80
3, 39839, Note_on_c, 1, 49, 0
3, 39960, Note_on_c, 1, 49, 80
3, 40079, Note_on_c, 1, 49, 0
3, 40080, Note_on_c, 1, 51, 80
3, 40199, Note_on_c, 1, 51, 0
3, 40200, Note_on_c, 1, 52, 80
3, 40319, Note_on_c, 1, 52, 0
3, 40320, Note_on_c, 1, 54, 80
3, 40439, Note_on_c, 1, 54, 0
3, 40440, Note_on_c, 1, 56, 80
3, 40559, Note_on_c, 1, 56, 0
3, 40560, Note_on_c, 1, 54, 80
3, 40679, Note_on_c, 1, 54, 0
3, 40680, Note_on_c, 1, 52, 80
3, 40799, Note_on_c, 1, 52, 0
3, 40800, Note_on_c, 1, 54, 80
3, 40919, Note_on_c, 1, 54, 0
3, 40920, Note_on_c, 1, 52, 80
3, 41039, Note_on_c, 1, 52, 0
3, 41040, Note_on_c, 1, 51, 80
3, 41159, Note_on_c, 1, 51, 0
3, 41160, Note_on_c, 1, 49, 80
3, 41279, Note_on_c, 1, 49, 0
3, 41280, Note_on_c, 1, 51, 80
3, 41399, Note_on_c, 1, 51, 0
3, 41400, Note_on_c, 1, 52, 80
3, 41519, Note_on_c, 1, 52, 0
3, 41520, Note_on_c, 1, 51, 80
3, 41639, Note_on_c, 1, 51, 0
3, 41640, Note_on_c, 1, 49, 80
3, 41759, Note_on_c, 1, 49, 0
3, 41760, Note_on_c, 1, 51, 80
3, 41879, Note_on_c, 1, 51, 0
3, 41880, Note_on_c, 1, 47, 80
3, 41999, Note_on_c, 1, 47, 0
3, 42000, Note_on_c, 1, 49, 80
3, 42119, Note_on_c, 1, 49, 0
3, 42120, Note_on_c, 1, 51, 80
3, 42239, Note_on_c, 1, 51, 0
3, 42240, Note_on_c, 1, 52, 80
3, 43199, Note_on_c, 1, 52, 0
3, 43200, Note_on_c, 1, 59, 80
3, 44159, Note_on_c, 1, 59, 0
3, 44160, Note_on_c, 1, 56, 80
3, 45119, Note_on_c, 1, 56, 0
3, 45120, Note_on_c, 1, 52, 80
3, 46079, Note_on_c, 1, 52, 0
3, 46080, Note_on_c, 1, 51, 80
3, 47039, Note_on_c, 1, 51, 0
3, 47040, Note_on_c, 1, 52, 80
3, 47519, Note_on_c, 1, 52, 0
3, 47520, Note_on_c, 1, 54, 80
3, 47999, Note_on_c, 1, 54, 0
3, 48000, Note_on_c, 1, 56, 80
3, 49199, Note_on_c, 1, 56, 0
3, 49200, Note_on_c, 1, 57, 80
3, 49439, Note_on_c, 1, 57, 0
3, 49440, Note_on_c, 1, 56, 80
3, 49679, Note_on_c, 1, 56, 0
3, 49680, Note_on_c, 1, 54, 80
3, 49919, Note_on_c, 1, 54, 0
3, 49920, Note_on_c, 1, 52, 80
3, 50159, Note_on_c, 1, 52, 0
3, 50160, Note_on_c, 1, 61, 80
3, 50399, Note_on_c, 1, 61, 0
3, 50400, Note_on_c, 1, 59, 80
3, 50639, Note_on_c, 1, 59, 0
3, 50640, Note_on_c, 1, 58, 80
3, 50879, Note_on_c, 1, 58, 0
3, 50880, Note_on_c, 1, 56, 80
3, 51119, Note_on_c, 1, 56, 0
3, 51120, Note_on_c, 1, 64, 80
3, 51359, Note_on_c, 1, 64, 0
3, 51360, Note_on_c, 1, 63, 80
3, 51599, Note_on_c, 1, 63, 0
3, 51600, Note_on_c, 1, 61, 80
3, 51839, Note_on_c, 1, 61, 0
3, 51840, Note_on_c, 1, 59, 80
3, 52319, Note_on_c, 1, 59, 0
3, 52320, Note_on_c, 1, 58, 80
3, 52799, Note_on_c, 1, 58, 0
3, 52800, Note_on_c, 1, 56, 80
3, 53279, Note_on_c, 1, 56, 0
3, 53280, Note_on_c, 1, 54, 80
3, 53759, Note_on_c, 1, 54, 0
3, 53760, Note_on_c, 1, 52, 80
3, 53879, Note_on_c, 1, 52, 0
3, 53880, Note_on_c, 1, 57, 80
3, 53999, Note_on_c, 1, 57, 0
3, 54000, Note_on_c, 1, 56, 80
3, 54119, Note_on_c, 1, 56, 0
3, 54120, Note_on_c, 1, 54, 80
3, 54239, Note_on_c, 1, 54, 0
3, 54240, Note_on_c, 1, 56, 80
3, 54359, Note_on_c, 1, 56, 0
3, 54360, Note_on_c, 1, 54, 80
3, 54479, Note_on_c, 1, 54, 0
3, 54480, Note_on_c, 1, 52, 80
3, 54599, Note_on_c, 1, 52, 0
3, 54600, Note_on_c, 1, 51, 80
3, 54719, Note_on_c, 1, 51, 0
3, 54720, Note_on_c, 1, 52, 80
3, 54839, Note_on_c, 1, 52, 0
3, 54840, Note_on_c, 1, 54, 80
3, 54959, Note_on_c, 1, 54, 0
3, 54960, Note_on_c, 1, 52, 80
3, 55079, Note_on_c, 1, 52, 0
3, 55080, Note_on_c, 1, 51, 80
3, 55199, Note_on_c, 1, 51, 0
3, 55200, Note_on_c, 1, 52, 80
3, 55319, Note_on_c, 1, 52, 0
3, 55320, Note_on_c, 1, 51, 80
3, 55439, Note_on_c, 1, 51, 0
3, 55440, Note_on_c, 1, 49, 80
3, 55559, Note_on_c, 1, 49, 0
3, 55560, Note_on_c, 1, 48, 80
3, 55679, Note_on_c, 1, 48, 0
3, 55680, Note_on_c, 1, 49, 80
3, 56159, Note_on_c, 1, 49, 0
3, 69120, Note_on_c, 1, 56, 80
3, 70079, Note_on_c, 1, 56, 0
3, 70080, Note_on_c, 1, 63, 80
3, 71039, Note_on_c, 1, 63, 0
3, 71040, Note_on_c, 1, 59, 80
3, 71999, Note_on_c, 1, 59, 0
3, 72000, Note_on_c, 1, 56, 80
3, 72959, Note_on_c, 1, 56, 0
3, 72960, Note_on_c, 1, 55, 80
3, 73919, Note_on_c, 1, 55, 0
3, 73920, Note_on_c, 1, 56, 80
3, 74399, Note_on_c, 1, 56, 0
3, 74400, Note_on_c, 1, 58, 80
3, 74879, Note_on_c, 1, 58, 0
3, 74880, Note_on_c, 1, 59, 80
3, 76079, Note_on_c, 1, 59, 0
3, 76080, Note_on_c, 1, 61, 80
3, 76319, Note_on_c, 1, 61, 0
3, 76320, Note_on_c, 1, 59, 80
3, 76559, Note_on_c, 1, 59, 0
3, 76560, Note_on_c, 1, 58, 80
3, 76799, Note_on_c, 1, 58, 0
3, 76800, Note_on_c, 1, 56, 80
3, 76919, Note_on_c, 1, 56, 0
3, 76920, Note_on_c, 1, 55, 80
3, 77039, Note_on_c, 1, 55, 0
3, 77040, Note_on_c, 1, 56, 80
3, 77159, Note_on_c, 1, 56, 0
3, 77160, Note_on_c, 1, 58, 80
3, 77279, Note_on_c, 1, 58, 0
3, 77280, Note_on_c, 1, 59, 80
3, 77399, Note_on_c, 1, 59, 0
3, 77400, Note_on_c, 1, 56, 80
3, 77519, Note_on_c, 1, 56, 0
3, 77520, Note_on_c, 1, 58, 80
3, 77639, Note_on_c, 1, 58, 0
3, 77640, Note_on_c, 1, 59, 80
3, 77759, Note_on_c, 1, 59, 0
3, 77760, Note_on_c, 1, 61, 80
3, 77879, Note_on_c, 1, 61, 0
3, 77880, Note_on_c, 1, 60, 80
3, 77999, Note_on_c, 1, 60, 0
3, 78000, Note_on_c, 1, 61, 80
3, 78119, Note_on_c, 1, 61, 0
3, 78120, Note_on_c, 1, 63, 80
3, 78239, Note_on_c, 1, 63, 0
3, 78240, Note_on_c, 1, 65, 80
3, 78359, Note_on_c, 1, 65, 0
3, 78360, Note_on_c, 1, 61, 80
3, 78479, Note_on_c, 1, 61, 0
3, 78480, Note_on_c, 1, 63, 80
3, 78599, Note_on_c, 1, 63, 0
3, 78600, Note_on_c, 1, 65, 80
3, 78719, Note_on_c, 1, 65, 0
3, 78720, Note_on_c, 1, 54, 80
3, 78839, Note_on_c, 1, 54, 0
3, 78840, Note_on_c, 1, 53, 80
3, 78959, Note_on_c, 1, 53, 0
3, 78960, Note_on_c, 1, 54, 80
3, 79079, Note_on_c, 1, 54, 0
3, 79080, Note_on_c, 1, 56, 80
3, 79199, Note_on_c, 1, 56, 0
3, 79200, Note_on_c, 1, 57, 80
3, 79319, Note_on_c, 1, 57, 0
3, 79320, Note_on_c, 1, 54, 80
3, 79439, Note_on_c, 1, 54, 0
3, 79440, Note_on_c, 1, 56, 80
3, 79559, Note_on_c, 1, 56, 0
3, 79560, Note_on_c, 1, 57, 80
3, 79679, Note_on_c, 1, 57, 0
3, 79680, Note_on_c, 1, 59, 80
3, 79799, Note_on_c, 1, 59, 0
3, 79800, Note_on_c, 1, 58, 80
3, 79919, Note_on_c, 1, 58, 0
3, 79920, Note_on_c, 1, 59, 80
3, 80039, Note_on_c, 1, 59, 0
3, 80040, Note_on_c, 1, 61, 80
3, 80159, Note_on_c, 1, 61, 0
3, 80160, Note_on_c, 1, 63, 80
3, 80279, Note_on_c, 1, 63, 0
3, 80280, Note_on_c, 1, 59, 80
3, 80399, Note_on_c, 1, 59, 0
3, 80400, Note_on_c, 1, 61, 80
3, 80519, Note_on_c, 1, 61, 0
3, 80520, Note_on_c, 1, 63, 80
3, 80639, Note_on_c, 1, 63, 0
3, 80640, Note_on_c, 1, 52, 80
3, 80879, Note_on_c, 1, 52, 0
3, 80880, Note_on_c, 1, 51, 80
3, 81119, Note_on_c, 1, 51, 0
3, 81120, Note_on_c, 1, 53, 80
3, 81359, Note_on_c, 1, 53, 0
3, 81360, Note_on_c, 1, 49, 80
3, 81599, Note_on_c, 1, 49, 0
3, 81600, Note_on_c, 1, 54, 80
3, 81839, Note_on_c, 1, 54, 0
3, 81840, Note_on_c, 1, 53, 80
3, 82079, Note_on_c, 1, 53, 0
3, 82080, Note_on_c, 1, 55, 80
3, 82319, Note_on_c, 1, 55, 0
3, 82320, Note_on_c, 1, 51, 80
3, 82559, Note_on_c, 1, 51, 0
3, 82560, Note_on_c, 1, 56, 80
3, 82799, Note_on_c, 1, 56, 0
3, 82800, Note_on_c, 1, 57, 80
3, 82919, Note_on_c, 1, 57, 0
3, 82920, Note_on_c, 1, 56, 80
3, 83039, Note_on_c, 1, 56, 0
3, 83040, Note_on_c, 1, 57, 80
3, 83279, Note_on_c, 1, 57, 0
3, 83280, Note_on_c, 1, 54, 80
3, 83639, Note_on_c, 1, 54, 0
3, 83640, Note_on_c, 1, 66, 80
3, 83759, Note_on_c, 1, 66, 0
3, 83760, Note_on_c, 1, 64, 80
3, 83879, Note_on_c, 1, 64, 0
3, 83880, Note_on_c, 1, 63, 80
3, 83999, Note_on_c, 1, 63, 0
3, 84000, Note_on_c, 1, 64, 80
3, 84119, Note_on_c, 1, 64, 0
3, 84120, Note_on_c, 1, 63, 80
3, 84239, Note_on_c, 1, 63, 0
3, 84240, Note_on_c, 1, 61, 80
3, 84359, Note_on_c, 1, 61, 0
3, 84360, Note_on_c, 1, 60, 80
3, 84479, Note_on_c, 1, 60, 0
3, 84480, Note_on_c, 1, 64, 80
3, 84599, Note_on_c, 1, 64, 0
3, 84600, Note_on_c, 1, 51, 80
3, 84719, Note_on_c, 1, 51, 0
3, 84720, Note_on_c, 1, 52, 80
3, 84839, Note_on_c, 1, 52, 0
3, 84840, Note_on_c, 1, 54, 80
3, 84959, Note_on_c, 1, 54, 0
3, 84960, Note_on_c, 1, 56, 80
3, 85079, Note_on_c, 1, 56, 0
3, 85080, Note_on_c, 1, 54, 80
3, 85199, Note_on_c, 1, 54, 0
3, 85200, Note_on_c, 1, 56, 80
3, 85319, Note_on_c, 1, 56, 0
3, 85320, Note_on_c, 1, 58, 80
3, 85439, Note_on_c, 1, 58, 0
3, 85440, Note_on_c, 1, 60, 80
3, 85559, Note_on_c, 1, 60, 0
3, 85560, Note_on_c, 1, 58, 80
3, 85679, Note_on_c, 1, 58, 0
3, 85680, Note_on_c, 1, 60, 80
3, 85799, Note_on_c, 1, 60, 0
3, 85800, Note_on_c, 1, 61, 80
3, 85919, Note_on_c, 1, 61, 0
3, 85920, Note_on_c, 1, 60, 80
3, 86039, Note_on_c, 1, 60, 0
3, 86040, Note_on_c, 1, 61, 80
3, 86159, Note_on_c, 1, 61, 0
3, 86160, Note_on_c, 1, 63, 80
3, 86639, Note_on_c, 1, 63, 0
3, 86640, Note_on_c, 1, 59, 80
3, 86879, Note_on_c, 1, 59, 0
3, 86880, Note_on_c, 1, 56, 80
3, 87599, Note_on_c, 1, 56, 0
3, 87600, Note_on_c, 1, 52, 80
3, 87839, Note_on_c, 1, 52, 0
3, 87840, Note_on_c, 1, 57, 80
3, 88079, Note_on_c, 1, 57, 0
3, 88080, Note_on_c, 1, 61, 80
3, 88319, Note_on_c, 1, 61, 0
3, 88320, Note_on_c, 1, 54, 80
3, 88559, Note_on_c, 1, 54, 0
3, 88560, Note_on_c, 1, 57, 80
3, 88799, Note_on_c, 1, 57, 0
3, 88800, Note_on_c, 1, 51, 80
3, 88919, Note_on_c, 1, 51, 0
3, 88920, Note_on_c, 1, 54, 80
3, 89039, Note_on_c, 1, 54, 0
3, 89040, Note_on_c, 1, 52, 80
3, 89159, Note_on_c, 1, 52, 0
3, 89160, Note_on_c, 1, 51, 80
3, 89279, Note_on_c, 1, 51, 0
3, 89280, Note_on_c, 1, 49, 80
3, 89519, Note_on_c, 1, 49, 0
3, 90480, Note_on_c, 1, 56, 80
3, 90719, Note_on_c, 1, 56, 0
3, 90720, Note_on_c, 1, 57, 80
3, 91199, Note_on_c, 1, 57, 0
3, 91200, Note_on_c, 1, 59, 80
3, 91439, Note_on_c, 1, 59, 0
3, 91920, Note_on_c, 1, 54, 80
3, 92159, Note_on_c, 1, 54, 0
3, 92160, Note_on_c, 1, 56, 80
3, 92399, Note_on_c, 1, 56, 0
3, 92400, Note_on_c, 1, 51, 80
3, 92639, Note_on_c, 1, 51, 0
3, 92640, Note_on_c, 1, 52, 80
3, 92879, Note_on_c, 1, 52, 0
3, 92880, Note_on_c, 1, 56, 80
3, 93119, Note_on_c, 1, 56, 0
3, 93120, Note_on_c, 1, 57, 80
3, 93239, Note_on_c, 1, 57, 0
3, 93240, Note_on_c, 1, 59, 80
3, 93359, Note_on_c, 1, 59, 0
3, 93360, Note_on_c, 1, 57, 80
3, 93479, Note_on_c, 1, 57, 0
3, 93480, Note_on_c, 1, 56, 80
3, 93599, Note_on_c, 1, 56, 0
3, 93600, Note_on_c, 1, 57, 80
3, 93719, Note_on_c, 1, 57, 0
3, 93720, Note_on_c, 1, 56, 80
3, 93839, Note_on_c, 1, 56, 0
3, 93840, Note_on_c, 1, 54, 80
3, 93959, Note_on_c, 1, 54, 0
3, 93960, Note_on_c, 1, 53, 80
3, 94079, Note_on_c, 1, 53, 0
3, 94080, Note_on_c, 1, 54, 80
3, 95039, Note_on_c, 1, 54, 0
3, 95040, Note_on_c, 1, 61, 80
3, 95999, Note_on_c, 1, 61, 0
3, 96000, Note_on_c, 1, 57, 80
3, 96959, Note_on_c, 1, 57, 0
3, 96960, Note_on_c, 1, 54, 80
3, 97919, Note_on_c, 1, 54, 0
3, 97920, Note_on_c, 1, 53, 80
3, 98879, Note_on_c, 1, 53, 0
3, 98880, Note_on_c, 1, 54, 80
3, 99359, Note_on_c, 1, 54, 0
3, 99360, Note_on_c, 1, 56, 80
3, 99839, Note_on_c, 1, 56, 0
3, 99840, Note_on_c, 1, 57, 80
3, 101039, Note_on_c, 1, 57, 0
3, 101040, Note_on_c, 1, 59, 80
3, 101279, Note_on_c, 1, 59, 0
3, 101280, Note_on_c, 1, 57, 80
3, 101519, Note_on_c, 1, 57, 0
3, 101520, Note_on_c, 1, 55, 80
3, 101759, Note_on_c, 1, 55, 0
3, 101760, Note_on_c, 1, 54, 80
3, 102959, Note_on_c, 1, 54, 0
3, 102960, Note_on_c, 1, 54, 80
3, 103199, Note_on_c, 1, 54, 0
3, 103200, Note_on_c, 1, 56, 80
3, 103439, Note_on_c, 1, 56, 0
3, 103440, Note_on_c, 1, 57, 80
3, 103679, Note_on_c, 1, 57, 0
3, 103680, Note_on_c, 1, 59, 80
3, 104759, Note_on_c, 1, 59, 0
3, 104760, Note_on_c, 1, 62, 80
3, 104879, Note_on_c, 1, 62, 0
3, 104880, Note_on_c, 1, 61, 80
3, 104999, Note_on_c, 1, 61, 0
3, 105000, Note_on_c, 1, 59, 80
3, 105119, Note_on_c, 1, 59, 0
3, 105120, Note_on_c, 1, 61, 80
3, 105239, Note_on_c, 1, 61, 0
3, 105240, Note_on_c, 1, 59, 80
3, 105359, Note_on_c, 1, 59, 0
3, 105360, Note_on_c, 1, 57, 80
3, 105479, Note_on_c, 1, 57, 0
3, 105480, Note_on_c, 1, 56, 80
3, 105599, Note_on_c, 1, 56, 0
3, 105600, Note_on_c, 1, 57, 80
3, 106079, Note_on_c, 1, 57, 0
3, 106080, Note_on_c, 1, 59, 80
3, 106319, Note_on_c, 1, 59, 0
3, 106320, Note_on_c, 1, 56, 80
3, 106559, Note_on_c, 1, 56, 0
3, 106560, Note_on_c, 1, 57, 80
3, 106799, Note_on_c, 1, 57, 0
3, 106800, Note_on_c, 1, 59, 80
3, 107039, Note_on_c, 1, 59, 0
3, 107040, Note_on_c, 1, 57, 80
3, 107279, Note_on_c, 1, 57, 0
3, 107280, Note_on_c, 1, 56, 80
3, 107519, Note_on_c, 1, 56, 0
3, 107520, Note_on_c, 1, 54, 80
3, 107999, Note_on_c, 1, 54, 0
3, 108000, Note_on_c, 1, 56, 80
3, 108239, Note_on_c, 1, 56, 0
3, 108240, Note_on_c, 1, 58, 80
3, 108479, Note_on_c, 1, 58, 0
3, 108480, Note_on_c, 1, 59, 80
3, 108719, Note_on_c, 1, 59, 0
3, 110520, Note_on_c, 1, 59, 80
3, 110639, Note_on_c, 1, 59, 0
3, 110640, Note_on_c, 1, 57, 80
3, 110759, Note_on_c, 1, 57, 0
3, 110760, Note_on_c, 1, 56, 80
3, 110879, Note_on_c, 1, 56, 0
3, 110880, Note_on_c, 1, 54, 80
3, 110999, Note_on_c, 1, 54, 0
3, 111000, Note_on_c, 1, 57, 80
3, 111119, Note_on_c, 1, 57, 0
3, 111120, Note_on_c, 1, 56, 80
3, 111239, Note_on_c, 1, 56, 0
3, 111240, Note_on_c, 1, 54, 80
3, 111359, Note_on_c, 1, 54, 0
3, 111360, Note_on_c, 1, 52, 80
3, 111599, Note_on_c, 1, 52, 0
3, 113520, Note_on_c, 1, 49, 80
3, 113759, Note_on_c, 1, 49, 0
3, 113760, Note_on_c, 1, 61, 80
3, 114479, Note_on_c, 1, 61, 0
3, 114480, Note_on_c, 1, 60, 80
3, 114599, Note_on_c, 1, 60, 0
3, 114600, Note_on_c, 1, 58, 80
3, 114719, Note_on_c, 1, 58, 0
3, 114720, Note_on_c, 1, 56, 80
3, 114839, Note_on_c, 1, 56, 0
3, 114840, Note_on_c, 1, 54, 80
3, 114959, Note_on_c, 1, 54, 0
3, 114960, Note_on_c, 1, 52, 80
3, 115079, Note_on_c, 1, 52, 0
3, 115080, Note_on_c, 1, 51, 80
3, 115199, Note_on_c, 1, 51, 0
3, 115200, Note_on_c, 1, 49, 80
3, 115319, Note_on_c, 1, 49, 0
3, 115320, Note_on_c, 1, 48, 80
3, 115439, Note_on_c, 1, 48, 0
3, 115440, Note_on_c, 1, 49, 80
3, 115559, Note_on_c, 1, 49, 0
3, 115560, Note_on_c, 1, 51, 80
3, 115679, Note_on_c, 1, 51, 0
3, 115680, Note_on_c, 1, 52, 80
3, 115799, Note_on_c, 1, 52, 0
3, 115800, Note_on_c, 1, 49, 80
3, 115919, Note_on_c, 1, 49, 0
3, 115920, Note_on_c, 1, 51, 80
3, 116039, Note_on_c, 1, 51, 0
3, 116040, Note_on_c, 1, 52, 80
3, 116159, Note_on_c, 1, 52, 0
3, 116160, Note_on_c, 1, 54, 80
3, 116279, Note_on_c, 1, 54, 0
3, 116280, Note_on_c, 1, 53, 80
3, 116399, Note_on_c, 1, 53, 0
3, 116400, Note_on_c, 1, 54, 80
3, 116519, Note_on_c, 1, 54, 0
3, 116520, Note_on_c, 1, 56, 80
3, 116639, Note_on_c, 1, 56, 0
3, 116640, Note_on_c, 1, 57, 80
3, 116759, Note_on_c, 1, 57, 0
3, 116760, Note_on_c, 1, 54, 80
3, 116879, Note_on_c, 1, 54, 0
3, 116880, Note_on_c, 1, 56, 80
3, 116999, Note_on_c, 1, 56, 0
3, 117000, Note_on_c, 1, 57, 80
3, 117119, Note_on_c, 1, 57, 0
3, 117120, Note_on_c, 1, 57, 80
3, 117359, Note_on_c, 1, 57, 0
3, 117360, Note_on_c, 1, 56, 80
3, 117599, Note_on_c, 1, 56, 0
3, 117720, Note_on_c, 1, 56, 80
3, 117839, Note_on_c, 1, 56, 0
3, 117840, Note_on_c, 1, 54, 80
3, 117959, Note_on_c, 1, 54, 0
3, 117960, Note_on_c, 1, 56, 80
3, 118079, Note_on_c, 1, 56, 0
3, 118080, Note_on_c, 1, 57, 80
3, 118199, Note_on_c, 1, 57, 0
3, 118200, Note_on_c, 1, 61, 80
3, 118319, Note_on_c, 1, 61, 0
3, 118320, Note_on_c, 1, 59, 80
3, 118439, Note_on_c, 1, 59, 0
3, 118440, Note_on_c, 1, 57, 80
3, 118559, Note_on_c, 1, 57, 0
3, 118560, Note_on_c, 1, 59, 80
3, 118679, Note_on_c, 1, 59, 0
3, 118680, Note_on_c, 1, 57, 80
3, 118799, Note_on_c, 1, 57, 0
3, 118800, Note_on_c, 1, 56, 80
3, 118919, Note_on_c, 1, 56, 0
3, 118920, Note_on_c, 1, 54, 80
3, 119039, Note_on_c, 1, 54, 0
3, 119040, Note_on_c, 1, 52, 80
3, 119159, Note_on_c, 1, 52, 0
3, 119160, Note_on_c, 1, 56, 80
3, 119279, Note_on_c, 1, 56, 0
3, 119280, Note_on_c, 1, 54, 80
3, 119399, Note_on_c, 1, 54, 0
3, 119400, Note_on_c, 1, 52, 80
3, 119519, Note_on_c, 1, 52, 0
3, 119520, Note_on_c, 1, 56, 80
3, 119639, Note_on_c, 1, 56, 0
3, 119640, Note_on_c, 1, 54, 80
3, 119759, Note_on_c, 1, 54, 0
3, 119760, Note_on_c, 1, 52, 80
3, 119879, Note_on_c, 1, 52, 0
3, 119880, Note_on_c, 1, 51, 80
3, 119999, Note_on_c, 1, 51, 0
3, 120000, Note_on_c, 1, 49, 80
3, 120479, Note_on_c, 1, 49, 0
3, 120720, Note_on_c, 1, 56, 80
3, 120959, Note_on_c, 1, 56, 0
3, 120960, Note_on_c, 1, 57, 80
3, 121439, Note_on_c, 1, 57, 0
3, 121680, Note_on_c, 1, 57, 80
3, 121919, Note_on_c, 1, 57, 0
3, 121920, Note_on_c, 1, 48, 80
3, 122159, Note_on_c, 1, 48, 0
3, 122160, Note_on_c, 1, 54, 80
3, 122399, Note_on_c, 1, 54, 0
3, 122400, Note_on_c, 1, 52, 80
3, 122639, Note_on_c, 1, 52, 0
3, 122640, Note_on_c, 1, 57, 80
3, 122879, Note_on_c, 1, 57, 0
3, 122880, Note_on_c, 1, 56, 80
3, 123599, Note_on_c, 1, 56, 0
3, 123600, Note_on_c, 1, 54, 80
3, 123839, Note_on_c, 1, 54, 0
3, 123840, Note_on_c, 1, 53, 80
3, 124799, Note_on_c, 1, 53, 0
3, 124800, End_track
4, 0, Start_track
4, 0, Key_signature, 4, "major"
4, 13680, Note_on_c, 1, 49, 80
4, 13919, Note_on_c, 1, 49, 0
4, 13920, Note_on_c, 1, 61, 80
4, 14639, Note_on_c, 1, 61, 0
4, 14640, Note_on_c, 1, 60, 80
4, 14759, Note_on_c, 1, 60, 0
4, 14760, Note_on_c, 1, 58, 80
4, 14879, Note_on_c, 1, 58, 0
4, 14880, Note_on_c, 1, 56, 80
4, 14999, Note_on_c, 1, 56, 0
4, 15000, Note_on_c, 1, 54, 80
4, 15119, Note_on_c, 1, 54, 0
4, 15120, Note_on_c, 1, 52, 80
4, 15239, Note_on_c, 1, 52, 0
4, 15240, Note_on_c, 1, 51, 80
4, 15359, Note_on_c, 1, 51, 0
4, 15360, Note_on_c, 1, 49, 80
4, 15479, Note_on_c, 1, 49, 0
4, 15480, Note_on_c, 1, 48, 80
4, 15599, Note_on_c, 1, 48, 0
4, 15600, Note_on_c, 1, 49, 80
4, 15719, Note_on_c, 1, 49, 0
4, 15720, Note_on_c, 1, 51, 80
4, 15839, Note_on_c, 1, 51, 0
4, 15840, Note_on_c, 1, 52, 80
4, 15959, Note_on_c, 1, 52, 0
4, 15960, Note_on_c, 1, 49, 80
4, 16079, Note_on_c, 1, 49, 0
4, 16080, Note_on_c, 1, 51, 80
4, 16199, Note_on_c, 1, 51, 0
4, 16200, Note_on_c, 1, 52, 80
4, 16319, Note_on_c, 1, 52, 0
4, 16320, Note_on_c, 1, 54, 80
4, 16439, Note_on_c, 1, 54, 0
4, 16440, Note_on_c, 1, 53, 80
4, 16559, Note_on_c, 1, 53, 0
4, 16560, Note_on_c, 1, 54, 80
4, 16679, Note_on_c, 1, 54, 0
4, 16680, Note_on_c, 1, 56, 80
4, 16799, Note_on_c, 1, 56, 0
4, 16800, Note_on_c, 1, 57, 80
4, 16919, Note_on_c, 1, 57, 0
4, 16920, Note_on_c, 1, 54, 80
4, 17039, Note_on_c, 1, 54, 0
4, 17040, Note_on_c, 1, 56, 80
4, 17159, Note_on_c, 1, 56, 0
4, 17160, Note_on_c, 1, 57, 80
4, 17279, Note_on_c, 1, 57, 0
4, 17280, Note_on_c, 1, 57, 80
4, 17519, Note_on_c, 1, 57, 0
4, 17520, Note_on_c, 1, 56, 80
4, 17759, Note_on_c, 1, 56, 0
4, 17880, Note_on_c, 1, 56, 80
4, 17999, Note_on_c, 1, 56, 0
4, 18000, Note_on_c, 1, 54, 80
4, 18119, Note_on_c, 1, 54, 0
4, 18120, Note_on_c, 1, 56, 80
4, 18239, Note_on_c, 1, 56, 0
4, 18240, Note_on_c, 1, 57, 80
4, 18359, Note_on_c, 1, 57, 0
4, 18360, Note_on_c, 1, 61, 80
4, 18479, Note_on_c, 1, 61, 0
4, 18480, Note_on_c, 1, 59, 80
4, 18599, Note_on_c, 1, 59, 0
4, 18600, Note_on_c, 1, 57, 80
4, 18719, Note_on_c, 1, 57, 0
4, 18720, Note_on_c, 1, 59, 80
4, 18839, Note_on_c, 1, 59, 0
4, 18840, Note_on_c, 1, 57, 80
4, 18959, Note_on_c, 1, 57, 0
4, 18960, Note_on_c, 1, 56, 80
4, 19079, Note_on_c, 1, 56, 0
4, 19080, Note_on_c, 1, 54, 80
4, 19199, Note_on_c, 1, 54, 0
4, 19200, Note_on_c, 1, 52, 80
4, 19319, Note_on_c, 1, 52, 0
4, 19320, Note_on_c, 1, 57, 80
4, 19439, Note_on_c, 1, 57, 0
4, 19440, Note_on_c, 1, 56, 80
4, 19559, Note_on_c, 1, 56, 0
4, 19560, Note_on_c, 1, 54, 80
4, 19679, Note_on_c, 1, 54, 0
4, 19680, Note_on_c, 1, 56, 80
4, 19799, Note_on_c, 1, 56, 0
4, 19800, Note_on_c, 1, 54, 80
4, 19919, Note_on_c, 1, 54, 0
4, 19920, Note_on_c, 1, 52, 80
4, 20039, Note_on_c, 1, 52, 0
4, 20040, Note_on_c, 1, 51, 80
4, 20159, Note_on_c, 1, 51, 0
4, 20160, Note_on_c, 1, 49, 80
4, 20279, Note_on_c, 1, 49, 0
4, 20280, Note_on_c, 1, 54, 80
4, 20399, Note_on_c, 1, 54, 0
4, 20400, Note_on_c, 1, 52, 80
4, 20519, Note_on_c, 1, 52, 0
4, 20520, Note_on_c, 1, 51, 80
4, 20639, Note_on_c, 1, 51, 0
4, 20640, Note_on_c, 1, 52, 80
4, 20759, Note_on_c, 1, 52, 0
4, 20760, Note_on_c, 1, 51, 80
4, 20879, Note_on_c, 1, 51, 0
4, 20880, Note_on_c, 1, 49, 80
4, 20999, Note_on_c, 1, 49, 0
4, 21000, Note_on_c, 1, 47, 80
4, 21119, Note_on_c, 1, 47, 0
4, 21120, Note_on_c, 1, 49, 80
4, 21359, Note_on_c, 1, 49, 0
4, 21360, Note_on_c, 1, 46, 80
4, 21599, Note_on_c, 1, 46, 0
4, 21600, Note_on_c, 1, 51, 80
4, 22079, Note_on_c, 1, 51, 0
4, 22080, Note_on_c, 1, 44, 80
4, 22559, Note_on_c, 1, 44, 0
4, 23160, Note_on_c, 1, 54, 80
4, 23279, Note_on_c, 1, 54, 0
4, 23280, Note_on_c, 1, 52, 80
4, 23399, Note_on_c, 1, 52, 0
4, 23400, Note_on_c, 1, 51, 80
4, 23519, Note_on_c, 1, 51, 0
4, 23520, Note_on_c, 1, 49, 80
4, 23639, Note_on_c, 1, 49, 0
4, 23640, Note_on_c, 1, 47, 80
4, 23759, Note_on_c, 1, 47, 0
4, 23760, Note_on_c, 1, 46, 80
4, 23879, Note_on_c, 1, 46, 0
4, 23880, Note_on_c, 1, 44, 80
4, 23999, Note_on_c, 1, 44, 0
4, 24000, Note_on_c, 1, 44, 80
4, 24059, Note_on_c, 1, 44, 0
4, 24060, Note_on_c, 1, 43, 80
4, 24119, Note_on_c, 1, 43, 0
4, 24120, Note_on_c, 1, 44, 80
4, 24179, Note_on_c, 1, 44, 0
4, 24180, Note_on_c, 1, 43, 80
4, 24239, Note_on_c, 1, 43, 0
4, 24240, Note_on_c, 1, 44, 80
4, 24299, Note_on_c, 1, 44, 0
4, 24300, Note_on_c, 1, 43, 80
4, 24359, Note_on_c, 1, 43, 0
4, 24360, Note_on_c, 1, 41, 80
4, 24419, Note_on_c, 1, 41, 0
4, 24420, Note_on_c, 1, 43, 80
4, 24479, Note_on_c, 1, 43, 0
4, 24480, Note_on_c, 1, 44, 80
4, 24599, Note_on_c, 1, 44, 0
4, 24600, Note_on_c, 1, 42, 80
4, 24719, Note_on_c, 1, 42, 0
4, 24720, Note_on_c, 1, 41, 80
4, 24839, Note_on_c, 1, 41, 0
4, 24840, Note_on_c, 1, 39, 80
4, 24959, Note_on_c, 1, 39, 0
4, 24960, Note_on_c, 1, 37, 80
4, 25199, Note_on_c, 1, 37, 0
4, 25200, Note_on_c, 1, 49, 80
4, 25439, Note_on_c, 1, 49, 0
4, 25440, Note_on_c, 1, 51, 80
4, 25679, Note_on_c, 1, 51, 0
4, 25680, Note_on_c, 1, 47, 80
4, 25919, Note_on_c, 1, 47, 0
4, 25920, Note_on_c, 1, 52, 80
4, 26159, Note_on_c, 1, 52, 0
4, 26160, Note_on_c, 1, 46, 80
4, 26399, Note_on_c, 1, 46, 0
4, 26400, Note_on_c, 1, 48, 80
4, 26639, Note_on_c, 1, 48, 0
4, 26640, Note_on_c, 1, 44, 80
4, 26879, Note_on_c, 1, 44, 0
4, 26880, Note_on_c, 1, 49, 80
4, 27359, Note_on_c, 1, 49, 0
4, 27600, Note_on_c, 1, 49, 80
4, 27839, Note_on_c, 1, 49, 0
4, 27840, Note_on_c, 1, 51, 80
4, 28319, Note_on_c, 1, 51, 0
4, 28560, Note_on_c, 1, 47, 80
4, 28799, Note_on_c, 1, 47, 0
4, 28800, Note_on_c, 1, 52, 80
4, 28919, Note_on_c, 1, 52, 0
4, 28920, Note_on_c, 1, 56, 80
4, 29039, Note_on_c, 1, 56, 0
4, 29040, Note_on_c, 1, 54, 80
4, 29159, Note_on_c, 1, 54, 0
4, 29160, Note_on_c, 1, 52, 80
4, 29279, Note_on_c, 1, 52, 0
4, 29280, Note_on_c, 1, 54, 80
4, 29399, Note_on_c, 1, 54, 0
4, 29400, Note_on_c, 1, 52, 80
4, 29519, Note_on_c, 1, 52, 0
4, 29520, Note_on_c, 1, 51, 80
4, 29639, Note_on_c, 1, 51, 0
4, 29640, Note_on_c, 1, 49, 80
4, 29759, Note_on_c, 1, 49, 0
4, 29760, Note_on_c, 1, 54, 80
4, 29879, Note_on_c, 1, 54, 0
4, 29880, Note_on_c, 1, 57, 80
4, 29999, Note_on_c, 1, 57, 0
4, 30000, Note_on_c, 1, 56, 80
4, 30119, Note_on_c, 1, 56, 0
4, 30120, Note_on_c, 1, 54, 80
4, 30239, Note_on_c, 1, 54, 0
4, 30240, Note_on_c, 1, 56, 80
4, 30359, Note_on_c, 1, 56, 0
4, 30360, Note_on_c, 1, 54, 80
4, 30479, Note_on_c, 1, 54, 0
4, 30480, Note_on_c, 1, 52, 80
4, 30599, Note_on_c, 1, 52, 0
4, 30600, Note_on_c, 1, 51, 80
4, 30719, Note_on_c, 1, 51, 0
4, 30720, Note_on_c, 1, 56, 80
4, 31199, Note_on_c, 1, 56, 0
4, 31440, Note_on_c, 1, 57, 80
4, 31679, Note_on_c, 1, 57, 0
4, 31680, Note_on_c, 1, 54, 80
4, 31919, Note_on_c, 1, 54, 0
4, 31920, Note_on_c, 1, 51, 80
4, 32159, Note_on_c, 1, 51, 0
4, 32160, Note_on_c, 1, 56, 80
4, 32399, Note_on_c, 1, 56, 0
4, 32400, Note_on_c, 1, 44, 80
4, 32639, Note_on_c, 1, 44, 0
4, 32640, Note_on_c, 1, 45, 80
4, 32879, Note_on_c, 1, 45, 0
4, 32880, Note_on_c, 1, 52, 80
4, 33119, Note_on_c, 1, 52, 0
4, 33120, Note_on_c, 1, 57, 80
4, 33599, Note_on_c, 1, 57, 0
4, 33600, Note_on_c, 1, 56, 80
4, 34079, Note_on_c, 1, 56, 0
4, 55920, Note_on_c, 1, 37, 80
4, 56159, Note_on_c, 1, 37, 0
4, 56160, Note_on_c, 1, 49, 80
4, 56879, Note_on_c, 1, 49, 0
4, 56880, Note_on_c, 1, 48, 80
4, 56999, Note_on_c, 1, 48, 0
4, 57000, Note_on_c, 1, 46, 80
4, 57119, Note_on_c, 1, 46, 0
4, 57120, Note_on_c, 1, 44, 80
4, 57239, Note_on_c, 1, 44, 0
4, 57240, Note_on_c, 1, 42, 80
4, 57359, Note_on_c, 1, 42, 0
4, 57360, Note_on_c, 1, 40, 80
4, 57479, Note_on_c, 1, 40, 0
4, 57480, Note_on_c, 1, 39, 80
4, 57599, Note_on_c, 1, 39, 0
4, 57600, Note_on_c, 1, 37, 80
4, 57719, Note_on_c, 1, 37, 0
4, 57720, Note_on_c, 1, 36, 80
4, 57839, Note_on_c, 1, 36, 0
4, 57840, Note_on_c, 1, 37, 80
4, 57959, Note_on_c, 1, 37, 0
4, 57960, Note_on_c, 1, 39, 80
4, 58079, Note_on_c, 1, 39, 0
4, 58080, Note_on_c, 1, 40, 80
4, 58199, Note_on_c, 1, 40, 0
4, 58200, Note_on_c, 1, 37, 80
4, 58319, Note_on_c, 1, 37, 0
4, 58320, Note_on_c, 1, 40, 80
4, 58439, Note_on_c, 1, 40, 0
4, 58440, Note_on_c, 1, 42, 80
4, 58559, Note_on_c, 1, 42, 0
4, 58560, Note_on_c, 1, 42, 80
4, 58679, Note_on_c, 1, 42, 0
4, 58680, Note_on_c, 1, 41, 80
4, 58799, Note_on_c, 1, 41, 0
4, 58800, Note_on_c, 1, 42, 80
4, 58919, Note_on_c, 1, 42, 0
4, 58920, Note_on_c, 1, 44, 80
4, 59039, Note_on_c, 1, 44, 0
4, 59040, Note_on_c, 1, 45, 80
4, 59159, Note_on_c, 1, 45, 0
4, 59160, Note_on_c, 1, 42, 80
4, 59279, Note_on_c, 1, 42, 0
4, 59280, Note_on_c, 1, 44, 80
4, 59399, Note_on_c, 1, 44, 0
4, 59400, Note_on_c, 1, 45, 80
4, 59519, Note_on_c, 1, 45, 0
4, 59520, Note_on_c, 1, 45, 80
4, 59759, Note_on_c, 1, 45, 0
4, 59760, Note_on_c, 1, 44, 80
4, 59999, Note_on_c, 1, 44, 0
4, 60120, Note_on_c, 1, 44, 80
4, 60239, Note_on_c, 1, 44, 0
4, 60240, Note_on_c, 1, 42, 80
4, 60359, Note_on_c, 1, 42, 0
4, 60360, Note_on_c, 1, 44, 80
4, 60479, Note_on_c, 1, 44, 0
4, 60480, Note_on_c, 1, 45, 80
4, 60599, Note_on_c, 1, 45, 0
4, 60600, Note_on_c, 1, 49, 80
4, 60719, Note_on_c, 1, 49, 0
4, 60720, Note_on_c, 1, 47, 80
4, 60839, Note_on_c, 1, 47, 0
4, 60840, Note_on_c, 1, 45, 80
4, 60959, Note_on_c, 1, 45, 0
4, 60960, Note_on_c, 1, 47, 80
4, 61079, Note_on_c, 1, 47, 0
4, 61080, Note_on_c, 1, 45, 80
4, 61199, Note_on_c, 1, 45, 0
4, 61200, Note_on_c, 1, 44, 80
4, 61319, Note_on_c, 1, 44, 0
4, 61320, Note_on_c, 1, 42, 80
4, 61439, Note_on_c, 1, 42, 0
4, 61440, Note_on_c, 1, 40, 80
4, 61559, Note_on_c, 1, 40, 0
4, 61560, Note_on_c, 1, 44, 80
4, 61679, Note_on_c, 1, 44, 0
4, 61680, Note_on_c, 1, 42, 80
4, 61799, Note_on_c, 1, 42, 0
4, 61800, Note_on_c, 1, 40, 80
4, 61919, Note_on_c, 1, 40, 0
4, 61920, Note_on_c, 1, 44, 80
4, 62039, Note_on_c, 1, 44, 0
4, 62040, Note_on_c, 1, 42, 80
4, 62159, Note_on_c, 1, 42, 0
4, 62160, Note_on_c, 1, 40, 80
4, 62279, Note_on_c, 1, 40, 0
4, 62280, Note_on_c, 1, 39, 80
4, 62399, Note_on_c, 1, 39, 0
4, 62400, Note_on_c, 1, 37, 80
4, 62879, Note_on_c, 1, 37, 0
4, 63600, Note_on_c, 1, 37, 80
4, 63839, Note_on_c, 1, 37, 0
4, 63840, Note_on_c, 1, 39, 80
4, 64079, Note_on_c, 1, 39, 0
4, 64080, Note_on_c, 1, 40, 80
4, 64319, Note_on_c, 1, 40, 0
4, 64320, Note_on_c, 1, 42, 80
4, 64559, Note_on_c, 1, 42, 0
4, 64560, Note_on_c, 1, 54, 80
4, 64799, Note_on_c, 1, 54, 0
4, 64800, Note_on_c, 1, 51, 80
4, 65039, Note_on_c, 1, 51, 0
4, 65040, Note_on_c, 1, 54, 80
4, 65279, Note_on_c, 1, 54, 0
4, 65280, Note_on_c, 1, 47, 80
4, 65519, Note_on_c, 1, 47, 0
4, 65520, Note_on_c, 1, 35, 80
4, 65759, Note_on_c, 1, 35, 0
4, 65760, Note_on_c, 1, 37, 80
4, 65999, Note_on_c, 1, 37, 0
4, 66000, Note_on_c, 1, 39, 80
4, 66239, Note_on_c, 1, 39, 0
4, 66240, Note_on_c, 1, 40, 80
4, 66479, Note_on_c, 1, 40, 0
4, 66480, Note_on_c, 1, 56, 80
4, 66719, Note_on_c, 1, 56, 0
4, 66720, Note_on_c, 1, 49, 80
4, 66959, Note_on_c, 1, 49, 0
4, 66960, Note_on_c, 1, 52, 80
4, 67199, Note_on_c, 1, 52, 0
4, 67200, Note_on_c, 1, 46, 80
4, 67439, Note_on_c, 1, 46, 0
4, 67440, Note_on_c, 1, 49, 80
4, 67679, Note_on_c, 1, 49, 0
4, 67680, Note_on_c, 1, 43, 80
4, 67919, Note_on_c, 1, 43, 0
4, 67920, Note_on_c, 1, 46, 80
4, 68159, Note_on_c, 1, 46, 0
4, 68160, Note_on_c, 1, 39, 80
4, 68399, Note_on_c, 1, 39, 0
4, 68400, Note_on_c, 1, 51, 80
4, 68639, Note_on_c, 1, 51, 0
4, 68640, Note_on_c, 1, 53, 80
4, 68879, Note_on_c, 1, 53, 0
4, 68880, Note_on_c, 1, 55, 80
4, 69119, Note_on_c, 1, 55, 0
4, 69120, Note_on_c, 1, 56, 80
4, 70199, Note_on_c, 1, 56, 0
4, 70200, Note_on_c, 1, 55, 80
4, 70319, Note_on_c, 1, 55, 0
4, 70320, Note_on_c, 1, 56, 80
4, 70439, Note_on_c, 1, 56, 0
4, 70440, Note_on_c, 1, 53, 80
4, 70559, Note_on_c, 1, 53, 0
4, 70560, Note_on_c, 1, 55, 80
4, 70799, Note_on_c, 1, 55, 0
4, 70800, Note_on_c, 1, 58, 80
4, 71039, Note_on_c, 1, 58, 0
4, 71040, Note_on_c, 1, 58, 80
4, 71279, Note_on_c, 1, 58, 0
4, 71280, Note_on_c, 1, 56, 80
4, 71519, Note_on_c, 1, 56, 0
4, 71760, Note_on_c, 1, 51, 80
4, 71999, Note_on_c, 1, 51, 0
4, 72000, Note_on_c, 1, 52, 80
4, 72959, Note_on_c, 1, 52, 0
4, 72960, Note_on_c, 1, 51, 80
4, 73919, Note_on_c, 1, 51, 0
4, 75960, Note_on_c, 1, 49, 80
4, 76079, Note_on_c, 1, 49, 0
4, 76080, Note_on_c, 1, 47, 80
4, 76199, Note_on_c, 1, 47, 0
4, 76200, Note_on_c, 1, 46, 80
4, 76319, Note_on_c, 1, 46, 0
4, 76320, Note_on_c, 1, 47, 80
4, 76439, Note_on_c, 1, 47, 0
4, 76440, Note_on_c, 1, 46, 80
4, 76559, Note_on_c, 1, 46, 0
4, 76560, Note_on_c, 1, 44, 80
4, 76679, Note_on_c, 1, 44, 0
4, 76680, Note_on_c, 1, 43, 80
4, 76799, Note_on_c, 1, 43, 0
4, 76800, Note_on_c, 1, 44, 80
4, 77039, Note_on_c, 1, 44, 0
4, 84480, Note_on_c, 1, 49, 80
4, 85439, Note_on_c, 1, 49, 0
4, 85440, Note_on_c, 1, 56, 80
4, 86399, Note_on_c, 1, 56, 0
4, 86400, Note_on_c, 1, 52, 80
4, 87359, Note_on_c, 1, 52, 0
4, 87360, Note_on_c, 1, 49, 80
4, 88319, Note_on_c, 1, 49, 0
4, 88320, Note_on_c, 1, 48, 80
4, 89279, Note_on_c, 1, 48, 0
4, 89280, Note_on_c, 1, 49, 80
4, 89759, Note_on_c, 1, 49, 0
4, 89760, Note_on_c, 1, 51, 80
4, 90239, Note_on_c, 1, 51, 0
4, 90240, Note_on_c, 1, 52, 80
4, 91439, Note_on_c, 1, 52, 0
4, 91440, Note_on_c, 1, 54, 80
4, 91679, Note_on_c, 1, 54, 0
4, 91680, Note_on_c, 1, 52, 80
4, 91919, Note_on_c, 1, 52, 0
4, 91920, Note_on_c, 1, 51, 80
4, 92159, Note_on_c, 1, 51, 0
4, 92160, Note_on_c, 1, 49, 80
4, 93239, Note_on_c, 1, 49, 0
4, 93240, Note_on_c, 1, 50, 80
4, 93359, Note_on_c, 1, 50, 0
4, 93360, Note_on_c, 1, 49, 80
4, 93479, Note_on_c, 1, 49, 0
4, 93480, Note_on_c, 1, 47, 80
4, 93599, Note_on_c, 1, 47, 0
4, 93600, Note_on_c, 1, 49, 80
4, 93719, Note_on_c, 1, 49, 0
4, 93720, Note_on_c, 1, 47, 80
4, 93839, Note_on_c, 1, 47, 0
4, 93840, Note_on_c, 1, 45, 80
4, 93959, Note_on_c, 1, 45, 0
4, 93960, Note_on_c, 1, 44, 80
4, 94079, Note_on_c, 1, 44, 0
4, 94080, Note_on_c, 1, 45, 80
4, 94559, Note_on_c, 1, 45, 0
4, 94800, Note_on_c, 1, 57, 80
4, 95039, Note_on_c, 1, 57, 0
4, 95040, Note_on_c, 1, 53, 80
4, 95279, Note_on_c, 1, 53, 0
4, 95280, Note_on_c, 1, 56, 80
4, 95519, Note_on_c, 1, 56, 0
4, 95520, Note_on_c, 1, 53, 80
4, 95759, Note_on_c, 1, 53, 0
4, 95760, Note_on_c, 1, 49, 80
4, 95999, Note_on_c, 1, 49, 0
4, 96000, Note_on_c, 1, 54, 80
4, 96479, Note_on_c, 1, 54, 0
4, 96480, Note_on_c, 1, 49, 80
4, 96959, Note_on_c, 1, 49, 0
4, 96960, Note_on_c, 1, 50, 80
4, 97199, Note_on_c, 1, 50, 0
4, 97200, Note_on_c, 1, 52, 80
4, 97439, Note_on_c, 1, 52, 0
4, 97440, Note_on_c, 1, 51, 80
4, 97679, Note_on_c, 1, 51, 0
4, 97680, Note_on_c, 1, 50, 80
4, 97919, Note_on_c, 1, 50, 0
4, 97920, Note_on_c, 1, 49, 80
4, 98399, Note_on_c, 1, 49, 0
4, 98520, Note_on_c, 1, 47, 80
4, 98639, Note_on_c, 1, 47, 0
4, 98640, Note_on_c, 1, 45, 80
4, 98759, Note_on_c, 1, 45, 0
4, 98760, Note_on_c, 1, 44, 80
4, 98879, Note_on_c, 1, 44, 0
4, 98880, Note_on_c, 1, 42, 80
4, 99119, Note_on_c, 1, 42, 0
4, 100080, Note_on_c, 1, 50, 80
4, 100319, Note_on_c, 1, 50, 0
4, 100320, Note_on_c, 1, 49, 80
4, 100559, Note_on_c, 1, 49, 0
4, 100560, Note_on_c, 1, 54, 80
4, 100799, Note_on_c, 1, 54, 0
4, 100800, Note_on_c, 1, 52, 80
4, 100919, Note_on_c, 1, 52, 0
4, 100920, Note_on_c, 1, 55, 80
4, 101039, Note_on_c, 1, 55, 0
4, 101040, Note_on_c, 1, 54, 80
4, 101159, Note_on_c, 1, 54, 0
4, 101160, Note_on_c, 1, 52, 80
4, 101279, Note_on_c, 1, 52, 0
4, 101280, Note_on_c, 1, 54, 80
4, 101399, Note_on_c, 1, 54, 0
4, 101400, Note_on_c, 1, 52, 80
4, 101519, Note_on_c, 1, 52, 0
4, 101520, Note_on_c, 1, 50, 80
4, 101639, Note_on_c, 1, 50, 0
4, 101640, Note_on_c, 1, 49, 80
4, 101759, Note_on_c, 1, 49, 0
4, 101760, Note_on_c, 1, 50, 80
4, 101879, Note_on_c, 1, 50, 0
4, 101880, Note_on_c, 1, 52, 80
4, 101999, Note_on_c, 1, 52, 0
4, 102000, Note_on_c, 1, 50, 80
4, 102119, Note_on_c, 1, 50, 0
4, 102120, Note_on_c, 1, 49, 80
4, 102239, Note_on_c, 1, 49, 0
4, 102240, Note_on_c, 1, 50, 80
4, 102359, Note_on_c, 1, 50, 0
4, 102360, Note_on_c, 1, 49, 80
4, 102479, Note_on_c, 1, 49, 0
4, 102480, Note_on_c, 1, 47, 80
4, 102599, Note_on_c, 1, 47, 0
4, 102600, Note_on_c, 1, 46, 80
4, 102719, Note_on_c, 1, 46, 0
4, 102720, Note_on_c, 1, 47, 80
4, 102839, Note_on_c, 1, 47, 0
4, 102840, Note_on_c, 1, 49, 80
4, 102959, Note_on_c, 1, 49, 0
4, 102960, Note_on_c, 1, 47, 80
4, 103079, Note_on_c, 1, 47, 0
4, 103080, Note_on_c, 1, 45, 80
4, 103199, Note_on_c, 1, 45, 0
4, 103200, Note_on_c, 1, 47, 80
4, 103319, Note_on_c, 1, 47, 0
4, 103320, Note_on_c, 1, 45, 80
4, 103439, Note_on_c, 1, 45, 0
4, 103440, Note_on_c, 1, 44, 80
4, 103559, Note_on_c, 1, 44, 0
4, 103560, Note_on_c, 1, 42, 80
4, 103679, Note_on_c, 1, 42, 0
4, 103680, Note_on_c, 1, 44, 80
4, 103799, Note_on_c, 1, 44, 0
4, 103800, Note_on_c, 1, 45, 80
4, 103919, Note_on_c, 1, 45, 0
4, 103920, Note_on_c, 1, 44, 80
4, 104039, Note_on_c, 1, 44, 0
4, 104040, Note_on_c, 1, 42, 80
4, 104159, Note_on_c, 1, 42, 0
4, 104160, Note_on_c, 1, 44, 80
4, 104279, Note_on_c, 1, 44, 0
4, 104280, Note_on_c, 1, 42, 80
4, 104399, Note_on_c, 1, 42, 0
4, 104400, Note_on_c, 1, 41, 80
4, 104519, Note_on_c, 1, 41, 0
4, 104520, Note_on_c, 1, 39, 80
4, 104639, Note_on_c, 1, 39, 0
4, 104640, Note_on_c, 1, 41, 80
4, 105119, Note_on_c, 1, 41, 0
4, 105360, Note_on_c, 1, 53, 80
4, 105599, Note_on_c, 1, 53, 0
4, 105600, Note_on_c, 1, 54, 80
4, 105839, Note_on_c, 1, 54, 0
4, 105840, Note_on_c, 1, 50, 80
4, 106079, Note_on_c, 1, 50, 0
4, 106080, Note_on_c, 1, 47, 80
4, 106319, Note_on_c, 1, 47, 0
4, 106320, Note_on_c, 1, 49, 80
4, 106559, Note_on_c, 1, 49, 0
4, 106560, Note_on_c, 1, 54, 80
4, 106799, Note_on_c, 1, 54, 0
4, 107760, Note_on_c, 1, 52, 80
4, 107999, Note_on_c, 1, 52, 0
4, 108000, Note_on_c, 1, 50, 80
4, 108239, Note_on_c, 1, 50, 0
4, 108240, Note_on_c, 1, 49, 80
4, 108479, Note_on_c, 1, 49, 0
4, 108480, Note_on_c, 1, 47, 80
4, 108719, Note_on_c, 1, 47, 0
4, 109560, Note_on_c, 1, 51, 80
4, 109679, Note_on_c, 1, 51, 0
4, 109680, Note_on_c, 1, 52, 80
4, 109799, Note_on_c, 1, 52, 0
4, 109800, Note_on_c, 1, 54, 80
4, 109919, Note_on_c, 1, 54, 0
4, 109920, Note_on_c, 1, 56, 80
4, 110039, Note_on_c, 1, 56, 0
4, 110040, Note_on_c, 1, 52, 80
4, 110159, Note_on_c, 1, 52, 0
4, 110160, Note_on_c, 1, 54, 80
4, 110279, Note_on_c, 1, 54, 0
4, 110280, Note_on_c, 1, 56, 80
4, 110399, Note_on_c, 1, 56, 0
4, 110400, Note_on_c, 1, 57, 80
4, 110639, Note_on_c, 1, 57, 0
4, 111480, Note_on_c, 1, 54, 80
4, 111599, Note_on_c, 1, 54, 0
4, 111600, Note_on_c, 1, 52, 80
4, 111719, Note_on_c, 1, 52, 0
4, 111720, Note_on_c, 1, 51, 80
4, 111839, Note_on_c, 1, 51, 0
4, 111840, Note_on_c, 1, 49, 80
4, 111959, Note_on_c, 1, 49, 0
4, 111960, Note_on_c, 1, 52, 80
4, 112079, Note_on_c, 1, 52, 0
4, 112080, Note_on_c, 1, 51, 80
4, 112199, Note_on_c, 1, 51, 0
4, 112200, Note_on_c, 1, 49, 80
4, 112319, Note_on_c, 1, 49, 0
4, 112320, Note_on_c, 1, 48, 80
4, 112559, Note_on_c, 1, 48, 0
4, 112560, Note_on_c, 1, 51, 80
4, 112799, Note_on_c, 1, 51, 0
4, 112800, Note_on_c, 1, 48, 80
4, 113039, Note_on_c, 1, 48, 0
4, 113040, Note_on_c, 1, 44, 80
4, 113279, Note_on_c, 1, 44, 0
4, 113280, Note_on_c, 1, 49, 80
4, 113519, Note_on_c, 1, 49, 0
4, 113520, Note_on_c, 1, 47, 80
4, 113759, Note_on_c, 1, 47, 0
4, 113760, Note_on_c, 1, 45, 80
4, 114239, Note_on_c, 1, 45, 0
4, 114240, Note_on_c, 1, 44, 80
4, 114719, Note_on_c, 1, 44, 0
4, 114960, Note_on_c, 1, 44, 80
4, 115199, Note_on_c, 1, 44, 0
4, 115200, Note_on_c, 1, 45, 80
4, 116639, Note_on_c, 1, 45, 0
4, 116760, Note_on_c, 1, 51, 80
4, 116879, Note_on_c, 1, 51, 0
4, 116880, Note_on_c, 1, 52, 80
4, 116999, Note_on_c, 1, 52, 0
4, 117000, Note_on_c, 1, 54, 80
4, 117119, Note_on_c, 1, 54, 0
4, 117120, Note_on_c, 1, 44, 80
4, 117239, Note_on_c, 1, 44, 0
4, 117240, Note_on_c, 1, 51, 80
4, 117359, Note_on_c, 1, 51, 0
4, 117360, Note_on_c, 1, 56, 80
4, 117479, Note_on_c, 1, 56, 0
4, 117480, Note_on_c, 1, 54, 80
4, 117599, Note_on_c, 1, 54, 0
4, 117600, Note_on_c, 1, 52, 80
4, 117839, Note_on_c, 1, 52, 0
4, 117840, Note_on_c, 1, 51, 80
4, 118079, Note_on_c, 1, 51, 0
4, 118080, Note_on_c, 1, 49, 80
4, 118559, Note_on_c, 1, 49, 0
4, 118800, Note_on_c, 1, 48, 80
4, 119039, Note_on_c, 1, 48, 0
4, 119040, Note_on_c, 1, 49, 80
4, 119519, Note_on_c, 1, 49, 0
4, 119760, Note_on_c, 1, 44, 80
4, 119999, Note_on_c, 1, 44, 0
4, 120000, Note_on_c, 1, 45, 80
4, 120479, Note_on_c, 1, 45, 0
4, 120720, Note_on_c, 1, 47, 80
4, 120959, Note_on_c, 1, 47, 0
4, 120960, Note_on_c, 1, 45, 80
4, 121079, Note_on_c, 1, 45, 0
4, 121080, Note_on_c, 1, 47, 80
4, 121199, Note_on_c, 1, 47, 0
4, 121200, Note_on_c, 1, 45, 80
4, 121319, Note_on_c, 1, 45, 0
4, 121320, Note_on_c, 1, 44, 80
4, 121439, Note_on_c, 1, 44, 0
4, 121440, Note_on_c, 1, 45, 80
4, 121559, Note_on_c, 1, 45, 0
4, 121560, Note_on_c, 1, 44, 80
4, 121679, Note_on_c, 1, 44, 0
4, 121680, Note_on_c, 1, 42, 80
4, 121799, Note_on_c, 1, 42, 0
4, 121800, Note_on_c, 1, 40, 80
4, 121919, Note_on_c, 1, 40, 0
4, 121920, Note_on_c, 1, 39, 80
4, 122159, Note_on_c, 1, 39, 0
4, 122160, Note_on_c, 1, 51, 80
4, 122399, Note_on_c, 1, 51, 0
4, 122400, Note_on_c, 1, 52, 80
4, 122639, Note_on_c, 1, 52, 0
4, 122640, Note_on_c, 1, 54, 80
4, 122879, Note_on_c, 1, 54, 0
4, 122880, Note_on_c, 1, 56, 80
4, 123119, Note_on_c, 1, 56, 0
4, 123120, Note_on_c, 1, 54, 80
4, 123359, Note_on_c, 1, 54, 0
4, 123360, Note_on_c, 1, 56, 80
4, 123599, Note_on_c, 1, 56, 0
4, 123600, Note_on_c, 1, 44, 80
4, 123839, Note_on_c, 1, 44, 0
4, 123840, Note_on_c, 1, 49, 80
4, 124799, Note_on_c, 1, 49, 0
4, 124800, End_track
0, 0, End_of_file
