0, 0, Header, 1, 2, 480
1, 0, Start_track
1, 0, Unknown_meta_event, 10, 11, 74, 46, 32, 83, 46, 32, 66, 97, 99, 104, 0
1, 0, Unknown_meta_event, 8, 35, 71, 111, 108, 100, 98, 101, 114, 103, 32, 86, 97, 114, 105, 97, 116, 105, 111, 110, 115, 58, 32, 86, 97, 114, 105, 97, 116, 105, 111, 110, 32, 88, 73, 86, 0
1, 0, Unknown_meta_event, 9, 8, 66, 87, 86, 32, 57, 56, 56, 0
1, 0, Time_signature, 3, 2, 24, 8
1, 0, Key_signature, 1, "major"
1, 0, Tempo, 625000
1, 0, Program_c, 0, 46
1, 0, Note_on_c, 0, 43, 80
1, 2, Control_c, 0, 7, 100
1, 4, Control_c, 0, 10, 64
1, 6, Control_c, 0, 91, 30
1, 8, Control_c, 0, 93, 30
1, 59, Note_on_c, 0, 43, 0
1, 60, Note_on_c, 0, 42, 80
1, 119, Note_on_c, 0, 42, 0
1, 120, Note_on_c, 0, 43, 80
1, 479, Note_on_c, 0, 43, 0
1, 480, Note_on_c, 0, 81, 80
1, 539, Note_on_c, 0, 81, 0
1, 540, Note_on_c, 0, 79, 80
1, 599, Note_on_c, 0, 79, 0
1, 600, Note_on_c, 0, 81, 80
1, 659, Note_on_c, 0, 81, 0
1, 660, Note_on_c, 0, 79, 80
1, 719, Note_on_c, 0, 79, 0
1, 720, Note_on_c, 0, 81, 80
1, 779, Note_on_c, 0, 81, 0
1, 780, Note_on_c, 0, 79, 80
1, 839, Note_on_c, 0, 79, 0
1, 840, Note_on_c, 0, 81, 80
1, 899, Note_on_c, 0, 81, 0
1, 900, Note_on_c, 0, 79, 80
1, 959, Note_on_c, 0, 79, 0
1, 960, Note_on_c, 0, 81, 80
1, 1019, Note_on_c, 0, 81, 0
1, 1020, Note_on_c, 0, 79, 80
1, 1079, Note_on_c, 0, 79, 0
1, 1080, Note_on_c, 0, 81, 80
1, 1139, Note_on_c, 0, 81, 0
1, 1140, Note_on_c, 0, 79, 80
1, 1199, Note_on_c, 0, 79, 0
1, 1200, Note_on_c, 0, 81, 80
1, 1259, Note_on_c, 0, 81, 0
1, 1260, Note_on_c, 0, 79, 80
1, 1319, Note_on_c, 0, 79, 0
1, 1320, Note_on_c, 0, 78, 80
1, 1379, Note_on_c, 0, 78, 0
1, 1380, Note_on_c, 0, 79, 80
1, 1439, Note_on_c, 0, 79, 0
1, 1440, Note_on_c, 0, 81, 80
1, 1679, Note_on_c, 0, 81, 0
1, 1920, Note_on_c, 0, 54, 80
1, 1979, Note_on_c, 0, 54, 0
1, 1980, Note_on_c, 0, 52, 80
1, 2039, Note_on_c, 0, 52, 0
1, 2040, Note_on_c, 0, 54, 80
1, 2519, Note_on_c, 0, 54, 0
1, 2520, Note_on_c, 0, 57, 80
1, 2639, Note_on_c, 0, 57, 0
1, 2640, Note_on_c, 0, 55, 80
1, 2759, Note_on_c, 0, 55, 0
1, 2760, Note_on_c, 0, 54, 80
1, 2879, Note_on_c, 0, 54, 0
1, 2880, Note_on_c, 0, 52, 80
1, 3119, Note_on_c, 0, 52, 0
1, 3360, Note_on_c, 0, 76, 80
1, 3599, Note_on_c, 0, 76, 0
1, 3600, Note_on_c, 0, 74, 80
1, 3839, Note_on_c, 0, 74, 0
1, 3840, Note_on_c, 0, 73, 80
1, 4079, Note_on_c, 0, 73, 0
1, 4080, Note_on_c, 0, 74, 80
1, 4199, Note_on_c, 0, 74, 0
1, 4200, Note_on_c, 0, 76, 80
1, 4319, Note_on_c, 0, 76, 0
1, 4320, Note_on_c, 0, 66, 80
1, 4559, Note_on_c, 0, 66, 0
1, 4800, Note_on_c, 0, 50, 80
1, 4859, Note_on_c, 0, 50, 0
1, 4860, Note_on_c, 0, 48, 80
1, 4919, Note_on_c, 0, 48, 0
1, 4920, Note_on_c, 0, 50, 80
1, 4979, Note_on_c, 0, 50, 0
1, 4980, Note_on_c, 0, 48, 80
1, 5039, Note_on_c, 0, 48, 0
1, 5040, Note_on_c, 0, 50, 80
1, 5099, Note_on_c, 0, 50, 0
1, 5100, Note_on_c, 0, 48, 80
1, 5159, Note_on_c, 0, 48, 0
1, 5160, Note_on_c, 0, 50, 80
1, 5219, Note_on_c, 0, 50, 0
1, 5220, Note_on_c, 0, 48, 80
1, 5279, Note_on_c, 0, 48, 0
1, 5280, Note_on_c, 0, 50, 80
1, 5339, Note_on_c, 0, 50, 0
1, 5340, Note_on_c, 0, 48, 80
1, 5399, Note_on_c, 0, 48, 0
1, 5400, Note_on_c, 0, 50, 80
1, 5459, Note_on_c, 0, 50, 0
1, 5460, Note_on_c, 0, 48, 80
1, 5519, Note_on_c, 0, 48, 0
1, 5520, Note_on_c, 0, 50, 80
1, 5579, Note_on_c, 0, 50, 0
1, 5580, Note_on_c, 0, 48, 80
1, 5639, Note_on_c, 0, 48, 0
1, 5640, Note_on_c, 0, 47, 80
1, 5699, Note_on_c, 0, 47, 0
1, 5700, Note_on_c, 0, 48, 80
1, 5759, Note_on_c, 0, 48, 0
1, 5760, Note_on_c, 0, 47, 80
1, 5999, Note_on_c, 0, 47, 0
1, 6000, Note_on_c, 0, 43, 80
1, 6239, Note_on_c, 0, 43, 0
1, 6240, Note_on_c, 0, 47, 80
1, 6479, Note_on_c, 0, 47, 0
1, 6480, Note_on_c, 0, 50, 80
1, 6719, Note_on_c, 0, 50, 0
1, 6720, Note_on_c, 0, 55, 80
1, 6959, Note_on_c, 0, 55, 0
1, 6960, Note_on_c, 0, 47, 80
1, 7199, Note_on_c, 0, 47, 0
1, 7200, Note_on_c, 0, 48, 80
1, 7439, Note_on_c, 0, 48, 0
1, 7440, Note_on_c, 0, 52, 80
1, 7679, Note_on_c, 0, 52, 0
1, 7680, Note_on_c, 0, 55, 80
1, 7919, Note_on_c, 0, 55, 0
1, 7920, Note_on_c, 0, 60, 80
1, 8159, Note_on_c, 0, 60, 0
1, 8160, Note_on_c, 0, 52, 80
1, 8399, Note_on_c, 0, 52, 0
1, 8400, Note_on_c, 0, 55, 80
1, 8639, Note_on_c, 0, 55, 0
1, 8640, Note_on_c, 0, 54, 80
1, 8879, Note_on_c, 0, 54, 0
1, 8880, Note_on_c, 0, 57, 80
1, 9119, Note_on_c, 0, 57, 0
1, 9120, Note_on_c, 0, 50, 80
1, 9359, Note_on_c, 0, 50, 0
1, 9360, Note_on_c, 0, 54, 80
1, 9599, Note_on_c, 0, 54, 0
1, 9600, Note_on_c, 0, 57, 80
1, 9839, Note_on_c, 0, 57, 0
1, 9840, Note_on_c, 0, 60, 80
1, 10079, Note_on_c, 0, 60, 0
1, 10080, Note_on_c, 0, 59, 80
1, 10319, Note_on_c, 0, 59, 0
1, 10320, Note_on_c, 0, 55, 80
1, 10559, Note_on_c, 0, 55, 0
1, 10560, Note_on_c, 0, 59, 80
1, 10799, Note_on_c, 0, 59, 0
1, 10800, Note_on_c, 0, 62, 80
1, 11039, Note_on_c, 0, 62, 0
1, 11040, Note_on_c, 0, 67, 80
1, 11279, Note_on_c, 0, 67, 0
1, 11640, Note_on_c, 0, 83, 80
1, 11699, Note_on_c, 0, 83, 0
1, 11700, Note_on_c, 0, 81, 80
1, 11759, Note_on_c, 0, 81, 0
1, 11760, Note_on_c, 0, 83, 80
1, 11879, Note_on_c, 0, 83, 0
1, 12120, Note_on_c, 0, 76, 80
1, 12179, Note_on_c, 0, 76, 0
1, 12180, Note_on_c, 0, 74, 80
1, 12239, Note_on_c, 0, 74, 0
1, 12240, Note_on_c, 0, 76, 80
1, 12359, Note_on_c, 0, 76, 0
1, 12600, Note_on_c, 0, 69, 80
1, 12659, Note_on_c, 0, 69, 0
1, 12660, Note_on_c, 0, 67, 80
1, 12719, Note_on_c, 0, 67, 0
1, 12720, Note_on_c, 0, 69, 80
1, 12839, Note_on_c, 0, 69, 0
1, 13080, Note_on_c, 0, 81, 80
1, 13139, Note_on_c, 0, 81, 0
1, 13140, Note_on_c, 0, 79, 80
1, 13199, Note_on_c, 0, 79, 0
1, 13200, Note_on_c, 0, 81, 80
1, 13319, Note_on_c, 0, 81, 0
1, 13560, Note_on_c, 0, 74, 80
1, 13619, Note_on_c, 0, 74, 0
1, 13620, Note_on_c, 0, 73, 80
1, 13679, Note_on_c, 0, 73, 0
1, 13680, Note_on_c, 0, 74, 80
1, 13799, Note_on_c, 0, 74, 0
1, 14040, Note_on_c, 0, 67, 80
1, 14099, Note_on_c, 0, 67, 0
1, 14100, Note_on_c, 0, 66, 80
1, 14159, Note_on_c, 0, 66, 0
1, 14160, Note_on_c, 0, 67, 80
1, 14279, Note_on_c, 0, 67, 0
1, 14520, Note_on_c, 0, 79, 80
1, 14579, Note_on_c, 0, 79, 0
1, 14580, Note_on_c, 0, 78, 80
1, 14639, Note_on_c, 0, 78, 0
1, 14640, Note_on_c, 0, 79, 80
1, 14759, Note_on_c, 0, 79, 0
1, 15000, Note_on_c, 0, 71, 80
1, 15059, Note_on_c, 0, 71, 0
1, 15060, Note_on_c, 0, 69, 80
1, 15119, Note_on_c, 0, 69, 0
1, 15120, Note_on_c, 0, 71, 80
1, 15239, Note_on_c, 0, 71, 0
1, 15480, Note_on_c, 0, 64, 80
1, 15539, Note_on_c, 0, 64, 0
1, 15540, Note_on_c, 0, 62, 80
1, 15599, Note_on_c, 0, 62, 0
1, 15600, Note_on_c, 0, 64, 80
1, 15719, Note_on_c, 0, 64, 0
1, 15960, Note_on_c, 0, 55, 80
1, 16019, Note_on_c, 0, 55, 0
1, 16020, Note_on_c, 0, 54, 80
1, 16079, Note_on_c, 0, 54, 0
1, 16080, Note_on_c, 0, 55, 80
1, 16199, Note_on_c, 0, 55, 0
1, 16440, Note_on_c, 0, 49, 80
1, 16499, Note_on_c, 0, 49, 0
1, 16500, Note_on_c, 0, 47, 80
1, 16559, Note_on_c, 0, 47, 0
1, 16560, Note_on_c, 0, 49, 80
1, 16679, Note_on_c, 0, 49, 0
1, 16920, Note_on_c, 0, 43, 80
1, 16979, Note_on_c, 0, 43, 0
1, 16980, Note_on_c, 0, 42, 80
1, 17039, Note_on_c, 0, 42, 0
1, 17040, Note_on_c, 0, 43, 80
1, 17159, Note_on_c, 0, 43, 0
1, 17340, Note_on_c, 0, 62, 80
1, 17399, Note_on_c, 0, 62, 0
1, 17400, Note_on_c, 0, 64, 80
1, 17459, Note_on_c, 0, 64, 0
1, 17460, Note_on_c, 0, 66, 80
1, 17519, Note_on_c, 0, 66, 0
1, 17520, Note_on_c, 0, 69, 80
1, 17579, Note_on_c, 0, 69, 0
1, 17580, Note_on_c, 0, 66, 80
1, 17639, Note_on_c, 0, 66, 0
1, 17640, Note_on_c, 0, 64, 80
1, 17699, Note_on_c, 0, 64, 0
1, 17700, Note_on_c, 0, 62, 80
1, 17759, Note_on_c, 0, 62, 0
1, 17820, Note_on_c, 0, 62, 80
1, 17879, Note_on_c, 0, 62, 0
1, 17880, Note_on_c, 0, 64, 80
1, 17939, Note_on_c, 0, 64, 0
1, 17940, Note_on_c, 0, 66, 80
1, 17999, Note_on_c, 0, 66, 0
1, 18000, Note_on_c, 0, 69, 80
1, 18059, Note_on_c, 0, 69, 0
1, 18060, Note_on_c, 0, 66, 80
1, 18119, Note_on_c, 0, 66, 0
1, 18120, Note_on_c, 0, 64, 80
1, 18179, Note_on_c, 0, 64, 0
1, 18180, Note_on_c, 0, 62, 80
1, 18239, Note_on_c, 0, 62, 0
1, 18300, Note_on_c, 0, 62, 80
1, 18359, Note_on_c, 0, 62, 0
1, 18360, Note_on_c, 0, 64, 80
1, 18419, Note_on_c, 0, 64, 0
1, 18420, Note_on_c, 0, 66, 80
1, 18479, Note_on_c, 0, 66, 0
1, 18480, Note_on_c, 0, 69, 80
1, 18539, Note_on_c, 0, 69, 0
1, 18540, Note_on_c, 0, 66, 80
1, 18599, Note_on_c, 0, 66, 0
1, 18600, Note_on_c, 0, 64, 80
1, 18659, Note_on_c, 0, 64, 0
1, 18660, Note_on_c, 0, 62, 80
1, 18719, Note_on_c, 0, 62, 0
1, 18720, Note_on_c, 0, 71, 80
1, 18959, Note_on_c, 0, 71, 0
1, 19200, Note_on_c, 0, 53, 80
1, 19439, Note_on_c, 0, 53, 0
1, 19680, Note_on_c, 0, 52, 80
1, 19919, Note_on_c, 0, 52, 0
1, 20280, Note_on_c, 0, 64, 80
1, 20339, Note_on_c, 0, 64, 0
1, 20340, Note_on_c, 0, 62, 80
1, 20399, Note_on_c, 0, 62, 0
1, 20400, Note_on_c, 0, 64, 80
1, 20519, Note_on_c, 0, 64, 0
1, 20520, Note_on_c, 0, 69, 80
1, 20579, Note_on_c, 0, 69, 0
1, 20580, Note_on_c, 0, 67, 80
1, 20639, Note_on_c, 0, 67, 0
1, 20640, Note_on_c, 0, 69, 80
1, 20759, Note_on_c, 0, 69, 0
1, 20760, Note_on_c, 0, 62, 80
1, 20819, Note_on_c, 0, 62, 0
1, 20820, Note_on_c, 0, 61, 80
1, 20879, Note_on_c, 0, 61, 0
1, 20880, Note_on_c, 0, 62, 80
1, 20999, Note_on_c, 0, 62, 0
1, 21000, Note_on_c, 0, 67, 80
1, 21059, Note_on_c, 0, 67, 0
1, 21060, Note_on_c, 0, 66, 80
1, 21119, Note_on_c, 0, 66, 0
1, 21120, Note_on_c, 0, 67, 80
1, 21239, Note_on_c, 0, 67, 0
1, 21240, Note_on_c, 0, 61, 80
1, 21299, Note_on_c, 0, 61, 0
1, 21300, Note_on_c, 0, 59, 80
1, 21359, Note_on_c, 0, 59, 0
1, 21360, Note_on_c, 0, 61, 80
1, 21479, Note_on_c, 0, 61, 0
1, 21480, Note_on_c, 0, 66, 80
1, 21539, Note_on_c, 0, 66, 0
1, 21540, Note_on_c, 0, 64, 80
1, 21599, Note_on_c, 0, 64, 0
1, 21600, Note_on_c, 0, 66, 80
1, 21719, Note_on_c, 0, 66, 0
1, 21720, Note_on_c, 0, 62, 80
1, 21839, Note_on_c, 0, 62, 0
1, 21840, Note_on_c, 0, 61, 80
1, 21959, Note_on_c, 0, 61, 0
1, 21960, Note_on_c, 0, 62, 80
1, 22079, Note_on_c, 0, 62, 0
1, 22080, Note_on_c, 0, 66, 80
1, 22139, Note_on_c, 0, 66, 0
1, 22140, Note_on_c, 0, 64, 80
1, 22199, Note_on_c, 0, 64, 0
1, 22200, Note_on_c, 0, 62, 80
1, 22319, Note_on_c, 0, 62, 0
1, 22320, Note_on_c, 0, 69, 80
1, 22379, Note_on_c, 0, 69, 0
1, 22380, Note_on_c, 0, 67, 80
1, 22439, Note_on_c, 0, 67, 0
1, 22440, Note_on_c, 0, 66, 80
1, 22559, Note_on_c, 0, 66, 0
1, 22560, Note_on_c, 0, 74, 80
1, 22799, Note_on_c, 0, 74, 0
1, 23040, Note_on_c, 0, 43, 80
1, 23099, Note_on_c, 0, 43, 0
1, 23100, Note_on_c, 0, 42, 80
1, 23159, Note_on_c, 0, 42, 0
1, 23160, Note_on_c, 0, 43, 80
1, 23519, Note_on_c, 0, 43, 0
1, 23520, Note_on_c, 0, 81, 80
1, 23579, Note_on_c, 0, 81, 0
1, 23580, Note_on_c, 0, 79, 80
1, 23639, Note_on_c, 0, 79, 0
1, 23640, Note_on_c, 0, 81, 80
1, 23699, Note_on_c, 0, 81, 0
1, 23700, Note_on_c, 0, 79, 80
1, 23759, Note_on_c, 0, 79, 0
1, 23760, Note_on_c, 0, 81, 80
1, 23819, Note_on_c, 0, 81, 0
1, 23820, Note_on_c, 0, 79, 80
1, 23879, Note_on_c, 0, 79, 0
1, 23880, Note_on_c, 0, 81, 80
1, 23939, Note_on_c, 0, 81, 0
1, 23940, Note_on_c, 0, 79, 80
1, 23999, Note_on_c, 0, 79, 0
1, 24000, Note_on_c, 0, 81, 80
1, 24059, Note_on_c, 0, 81, 0
1, 24060, Note_on_c, 0, 79, 80
1, 24119, Note_on_c, 0, 79, 0
1, 24120, Note_on_c, 0, 81, 80
1, 24179, Note_on_c, 0, 81, 0
1, 24180, Note_on_c, 0, 79, 80
1, 24239, Note_on_c, 0, 79, 0
1, 24240, Note_on_c, 0, 81, 80
1, 24299, Note_on_c, 0, 81, 0
1, 24300, Note_on_c, 0, 79, 80
1, 24359, Note_on_c, 0, 79, 0
1, 24360, Note_on_c, 0, 78, 80
1, 24419, Note_on_c, 0, 78, 0
1, 24420, Note_on_c, 0, 79, 80
1, 24479, Note_on_c, 0, 79, 0
1, 24480, Note_on_c, 0, 81, 80
1, 24719, Note_on_c, 0, 81, 0
1, 24960, Note_on_c, 0, 54, 80
1, 25019, Note_on_c, 0, 54, 0
1, 25020, Note_on_c, 0, 52, 80
1, 25079, Note_on_c, 0, 52, 0
1, 25080, Note_on_c, 0, 54, 80
1, 25559, Note_on_c, 0, 54, 0
1, 25560, Note_on_c, 0, 57, 80
1, 25679, Note_on_c, 0, 57, 0
1, 25680, Note_on_c, 0, 55, 80
1, 25799, Note_on_c, 0, 55, 0
1, 25800, Note_on_c, 0, 54, 80
1, 25919, Note_on_c, 0, 54, 0
1, 25920, Note_on_c, 0, 52, 80
1, 26159, Note_on_c, 0, 52, 0
1, 26400, Note_on_c, 0, 76, 80
1, 26639, Note_on_c, 0, 76, 0
1, 26640, Note_on_c, 0, 74, 80
1, 26879, Note_on_c, 0, 74, 0
1, 26880, Note_on_c, 0, 73, 80
1, 27119, Note_on_c, 0, 73, 0
1, 27120, Note_on_c, 0, 74, 80
1, 27239, Note_on_c, 0, 74, 0
1, 27240, Note_on_c, 0, 76, 80
1, 27359, Note_on_c, 0, 76, 0
1, 27360, Note_on_c, 0, 66, 80
1, 27599, Note_on_c, 0, 66, 0
1, 27840, Note_on_c, 0, 50, 80
1, 27899, Note_on_c, 0, 50, 0
1, 27900, Note_on_c, 0, 48, 80
1, 27959, Note_on_c, 0, 48, 0
1, 27960, Note_on_c, 0, 50, 80
1, 28019, Note_on_c, 0, 50, 0
1, 28020, Note_on_c, 0, 48, 80
1, 28079, Note_on_c, 0, 48, 0
1, 28080, Note_on_c, 0, 50, 80
1, 28139, Note_on_c, 0, 50, 0
1, 28140, Note_on_c, 0, 48, 80
1, 28199, Note_on_c, 0, 48, 0
1, 28200, Note_on_c, 0, 50, 80
1, 28259, Note_on_c, 0, 50, 0
1, 28260, Note_on_c, 0, 48, 80
1, 28319, Note_on_c, 0, 48, 0
1, 28320, Note_on_c, 0, 50, 80
1, 28379, Note_on_c, 0, 50, 0
1, 28380, Note_on_c, 0, 48, 80
1, 28439, Note_on_c, 0, 48, 0
1, 28440, Note_on_c, 0, 50, 80
1, 28499, Note_on_c, 0, 50, 0
1, 28500, Note_on_c, 0, 48, 80
1, 28559, Note_on_c, 0, 48, 0
1, 28560, Note_on_c, 0, 50, 80
1, 28619, Note_on_c, 0, 50, 0
1, 28620, Note_on_c, 0, 48, 80
1, 28679, Note_on_c, 0, 48, 0
1, 28680, Note_on_c, 0, 47, 80
1, 28739, Note_on_c, 0, 47, 0
1, 28740, Note_on_c, 0, 48, 80
1, 28799, Note_on_c, 0, 48, 0
1, 28800, Note_on_c, 0, 47, 80
1, 29039, Note_on_c, 0, 47, 0
1, 29040, Note_on_c, 0, 43, 80
1, 29279, Note_on_c, 0, 43, 0
1, 29280, Note_on_c, 0, 47, 80
1, 29519, Note_on_c, 0, 47, 0
1, 29520, Note_on_c, 0, 50, 80
1, 29759, Note_on_c, 0, 50, 0
1, 29760, Note_on_c, 0, 55, 80
1, 29999, Note_on_c, 0, 55, 0
1, 30000, Note_on_c, 0, 47, 80
1, 30239, Note_on_c, 0, 47, 0
1, 30240, Note_on_c, 0, 48, 80
1, 30479, Note_on_c, 0, 48, 0
1, 30480, Note_on_c, 0, 52, 80
1, 30719, Note_on_c, 0, 52, 0
1, 30720, Note_on_c, 0, 55, 80
1, 30959, Note_on_c, 0, 55, 0
1, 30960, Note_on_c, 0, 60, 80
1, 31199, Note_on_c, 0, 60, 0
1, 31200, Note_on_c, 0, 52, 80
1, 31439, Note_on_c, 0, 52, 0
1, 31440, Note_on_c, 0, 55, 80
1, 31679, Note_on_c, 0, 55, 0
1, 31680, Note_on_c, 0, 54, 80
1, 31919, Note_on_c, 0, 54, 0
1, 31920, Note_on_c, 0, 57, 80
1, 32159, Note_on_c, 0, 57, 0
1, 32160, Note_on_c, 0, 50, 80
1, 32399, Note_on_c, 0, 50, 0
1, 32400, Note_on_c, 0, 54, 80
1, 32639, Note_on_c, 0, 54, 0
1, 32640, Note_on_c, 0, 57, 80
1, 32879, Note_on_c, 0, 57, 0
1, 32880, Note_on_c, 0, 60, 80
1, 33119, Note_on_c, 0, 60, 0
1, 33120, Note_on_c, 0, 59, 80
1, 33359, Note_on_c, 0, 59, 0
1, 33360, Note_on_c, 0, 55, 80
1, 33599, Note_on_c, 0, 55, 0
1, 33600, Note_on_c, 0, 59, 80
1, 33839, Note_on_c, 0, 59, 0
1, 33840, Note_on_c, 0, 62, 80
1, 34079, Note_on_c, 0, 62, 0
1, 34080, Note_on_c, 0, 67, 80
1, 34319, Note_on_c, 0, 67, 0
1, 34680, Note_on_c, 0, 83, 80
1, 34739, Note_on_c, 0, 83, 0
1, 34740, Note_on_c, 0, 81, 80
1, 34799, Note_on_c, 0, 81, 0
1, 34800, Note_on_c, 0, 83, 80
1, 34919, Note_on_c, 0, 83, 0
1, 35160, Note_on_c, 0, 76, 80
1, 35219, Note_on_c, 0, 76, 0
1, 35220, Note_on_c, 0, 74, 80
1, 35279, Note_on_c, 0, 74, 0
1, 35280, Note_on_c, 0, 76, 80
1, 35399, Note_on_c, 0, 76, 0
1, 35640, Note_on_c, 0, 69, 80
1, 35699, Note_on_c, 0, 69, 0
1, 35700, Note_on_c, 0, 67, 80
1, 35759, Note_on_c, 0, 67, 0
1, 35760, Note_on_c, 0, 69, 80
1, 35879, Note_on_c, 0, 69, 0
1, 36120, Note_on_c, 0, 81, 80
1, 36179, Note_on_c, 0, 81, 0
1, 36180, Note_on_c, 0, 79, 80
1, 36239, Note_on_c, 0, 79, 0
1, 36240, Note_on_c, 0, 81, 80
1, 36359, Note_on_c, 0, 81, 0
1, 36600, Note_on_c, 0, 74, 80
1, 36659, Note_on_c, 0, 74, 0
1, 36660, Note_on_c, 0, 73, 80
1, 36719, Note_on_c, 0, 73, 0
1, 36720, Note_on_c, 0, 74, 80
1, 36839, Note_on_c, 0, 74, 0
1, 37080, Note_on_c, 0, 67, 80
1, 37139, Note_on_c, 0, 67, 0
1, 37140, Note_on_c, 0, 66, 80
1, 37199, Note_on_c, 0, 66, 0
1, 37200, Note_on_c, 0, 67, 80
1, 37319, Note_on_c, 0, 67, 0
1, 37560, Note_on_c, 0, 79, 80
1, 37619, Note_on_c, 0, 79, 0
1, 37620, Note_on_c, 0, 78, 80
1, 37679, Note_on_c, 0, 78, 0
1, 37680, Note_on_c, 0, 79, 80
1, 37799, Note_on_c, 0, 79, 0
1, 38040, Note_on_c, 0, 71, 80
1, 38099, Note_on_c, 0, 71, 0
1, 38100, Note_on_c, 0, 69, 80
1, 38159, Note_on_c, 0, 69, 0
1, 38160, Note_on_c, 0, 71, 80
1, 38279, Note_on_c, 0, 71, 0
1, 38520, Note_on_c, 0, 64, 80
1, 38579, Note_on_c, 0, 64, 0
1, 38580, Note_on_c, 0, 62, 80
1, 38639, Note_on_c, 0, 62, 0
1, 38640, Note_on_c, 0, 64, 80
1, 38759, Note_on_c, 0, 64, 0
1, 39000, Note_on_c, 0, 55, 80
1, 39059, Note_on_c, 0, 55, 0
1, 39060, Note_on_c, 0, 54, 80
1, 39119, Note_on_c, 0, 54, 0
1, 39120, Note_on_c, 0, 55, 80
1, 39239, Note_on_c, 0, 55, 0
1, 39480, Note_on_c, 0, 49, 80
1, 39539, Note_on_c, 0, 49, 0
1, 39540, Note_on_c, 0, 47, 80
1, 39599, Note_on_c, 0, 47, 0
1, 39600, Note_on_c, 0, 49, 80
1, 39719, Note_on_c, 0, 49, 0
1, 39960, Note_on_c, 0, 43, 80
1, 40019, Note_on_c, 0, 43, 0
1, 40020, Note_on_c, 0, 42, 80
1, 40079, Note_on_c, 0, 42, 0
1, 40080, Note_on_c, 0, 43, 80
1, 40199, Note_on_c, 0, 43, 0
1, 40380, Note_on_c, 0, 62, 80
1, 40439, Note_on_c, 0, 62, 0
1, 40440, Note_on_c, 0, 64, 80
1, 40499, Note_on_c, 0, 64, 0
1, 40500, Note_on_c, 0, 66, 80
1, 40559, Note_on_c, 0, 66, 0
1, 40560, Note_on_c, 0, 69, 80
1, 40619, Note_on_c, 0, 69, 0
1, 40620, Note_on_c, 0, 66, 80
1, 40679, Note_on_c, 0, 66, 0
1, 40680, Note_on_c, 0, 64, 80
1, 40739, Note_on_c, 0, 64, 0
1, 40740, Note_on_c, 0, 62, 80
1, 40799, Note_on_c, 0, 62, 0
1, 40860, Note_on_c, 0, 62, 80
1, 40919, Note_on_c, 0, 62, 0
1, 40920, Note_on_c, 0, 64, 80
1, 40979, Note_on_c, 0, 64, 0
1, 40980, Note_on_c, 0, 66, 80
1, 41039, Note_on_c, 0, 66, 0
1, 41040, Note_on_c, 0, 69, 80
1, 41099, Note_on_c, 0, 69, 0
1, 41100, Note_on_c, 0, 66, 80
1, 41159, Note_on_c, 0, 66, 0
1, 41160, Note_on_c, 0, 64, 80
1, 41219, Note_on_c, 0, 64, 0
1, 41220, Note_on_c, 0, 62, 80
1, 41279, Note_on_c, 0, 62, 0
1, 41340, Note_on_c, 0, 62, 80
1, 41399, Note_on_c, 0, 62, 0
1, 41400, Note_on_c, 0, 64, 80
1, 41459, Note_on_c, 0, 64, 0
1, 41460, Note_on_c, 0, 66, 80
1, 41519, Note_on_c, 0, 66, 0
1, 41520, Note_on_c, 0, 69, 80
1, 41579, Note_on_c, 0, 69, 0
1, 41580, Note_on_c, 0, 66, 80
1, 41639, Note_on_c, 0, 66, 0
1, 41640, Note_on_c, 0, 64, 80
1, 41699, Note_on_c, 0, 64, 0
1, 41700, Note_on_c, 0, 62, 80
1, 41759, Note_on_c, 0, 62, 0
1, 41760, Note_on_c, 0, 71, 80
1, 41999, Note_on_c, 0, 71, 0
1, 42240, Note_on_c, 0, 53, 80
1, 42479, Note_on_c, 0, 53, 0
1, 42720, Note_on_c, 0, 52, 80
1, 42959, Note_on_c, 0, 52, 0
1, 43320, Note_on_c, 0, 64, 80
1, 43379, Note_on_c, 0, 64, 0
1, 43380, Note_on_c, 0, 62, 80
1, 43439, Note_on_c, 0, 62, 0
1, 43440, Note_on_c, 0, 64, 80
1, 43559, Note_on_c, 0, 64, 0
1, 43560, Note_on_c, 0, 69, 80
1, 43619, Note_on_c, 0, 69, 0
1, 43620, Note_on_c, 0, 67, 80
1, 43679, Note_on_c, 0, 67, 0
1, 43680, Note_on_c, 0, 69, 80
1, 43799, Note_on_c, 0, 69, 0
1, 43800, Note_on_c, 0, 62, 80
1, 43859, Note_on_c, 0, 62, 0
1, 43860, Note_on_c, 0, 61, 80
1, 43919, Note_on_c, 0, 61, 0
1, 43920, Note_on_c, 0, 62, 80
1, 44039, Note_on_c, 0, 62, 0
1, 44040, Note_on_c, 0, 67, 80
1, 44099, Note_on_c, 0, 67, 0
1, 44100, Note_on_c, 0, 66, 80
1, 44159, Note_on_c, 0, 66, 0
1, 44160, Note_on_c, 0, 67, 80
1, 44279, Note_on_c, 0, 67, 0
1, 44280, Note_on_c, 0, 61, 80
1, 44339, Note_on_c, 0, 61, 0
1, 44340, Note_on_c, 0, 59, 80
1, 44399, Note_on_c, 0, 59, 0
1, 44400, Note_on_c, 0, 61, 80
1, 44519, Note_on_c, 0, 61, 0
1, 44520, Note_on_c, 0, 66, 80
1, 44579, Note_on_c, 0, 66, 0
1, 44580, Note_on_c, 0, 64, 80
1, 44639, Note_on_c, 0, 64, 0
1, 44640, Note_on_c, 0, 66, 80
1, 44759, Note_on_c, 0, 66, 0
1, 44760, Note_on_c, 0, 62, 80
1, 44879, Note_on_c, 0, 62, 0
1, 44880, Note_on_c, 0, 61, 80
1, 44999, Note_on_c, 0, 61, 0
1, 45000, Note_on_c, 0, 62, 80
1, 45119, Note_on_c, 0, 62, 0
1, 45120, Note_on_c, 0, 66, 80
1, 45179, Note_on_c, 0, 66, 0
1, 45180, Note_on_c, 0, 64, 80
1, 45239, Note_on_c, 0, 64, 0
1, 45240, Note_on_c, 0, 62, 80
1, 45359, Note_on_c, 0, 62, 0
1, 45360, Note_on_c, 0, 69, 80
1, 45419, Note_on_c, 0, 69, 0
1, 45420, Note_on_c, 0, 67, 80
1, 45479, Note_on_c, 0, 67, 0
1, 45480, Note_on_c, 0, 66, 80
1, 45599, Note_on_c, 0, 66, 0
1, 45600, Note_on_c, 0, 74, 80
1, 45839, Note_on_c, 0, 74, 0
1, 46080, Note_on_c, 0, 78, 80
1, 46199, Note_on_c, 0, 78, 0
1, 46200, Note_on_c, 0, 81, 80
1, 46319, Note_on_c, 0, 81, 0
1, 46320, Note_on_c, 0, 86, 80
1, 46439, Note_on_c, 0, 86, 0
1, 46440, Note_on_c, 0, 81, 80
1, 46559, Note_on_c, 0, 81, 0
1, 46560, Note_on_c, 0, 78, 80
1, 46679, Note_on_c, 0, 78, 0
1, 46680, Note_on_c, 0, 81, 80
1, 46799, Note_on_c, 0, 81, 0
1, 46800, Note_on_c, 0, 74, 80
1, 46919, Note_on_c, 0, 74, 0
1, 46920, Note_on_c, 0, 78, 80
1, 47039, Note_on_c, 0, 78, 0
1, 47040, Note_on_c, 0, 81, 80
1, 47159, Note_on_c, 0, 81, 0
1, 47160, Note_on_c, 0, 78, 80
1, 47279, Note_on_c, 0, 78, 0
1, 47280, Note_on_c, 0, 79, 80
1, 47399, Note_on_c, 0, 79, 0
1, 47400, Note_on_c, 0, 81, 80
1, 47519, Note_on_c, 0, 81, 0
1, 47520, Note_on_c, 0, 74, 80
1, 47639, Note_on_c, 0, 74, 0
1, 47640, Note_on_c, 0, 79, 80
1, 47759, Note_on_c, 0, 79, 0
1, 47760, Note_on_c, 0, 83, 80
1, 47879, Note_on_c, 0, 83, 0
1, 47880, Note_on_c, 0, 79, 80
1, 47999, Note_on_c, 0, 79, 0
1, 48000, Note_on_c, 0, 74, 80
1, 48119, Note_on_c, 0, 74, 0
1, 48120, Note_on_c, 0, 79, 80
1, 48239, Note_on_c, 0, 79, 0
1, 48240, Note_on_c, 0, 71, 80
1, 48359, Note_on_c, 0, 71, 0
1, 48360, Note_on_c, 0, 74, 80
1, 48479, Note_on_c, 0, 74, 0
1, 48480, Note_on_c, 0, 79, 80
1, 48599, Note_on_c, 0, 79, 0
1, 48600, Note_on_c, 0, 71, 80
1, 48719, Note_on_c, 0, 71, 0
1, 48720, Note_on_c, 0, 72, 80
1, 48839, Note_on_c, 0, 72, 0
1, 48840, Note_on_c, 0, 74, 80
1, 48959, Note_on_c, 0, 74, 0
1, 48960, Note_on_c, 0, 67, 80
1, 49079, Note_on_c, 0, 67, 0
1, 49080, Note_on_c, 0, 72, 80
1, 49199, Note_on_c, 0, 72, 0
1, 49200, Note_on_c, 0, 76, 80
1, 49319, Note_on_c, 0, 76, 0
1, 49320, Note_on_c, 0, 72, 80
1, 49439, Note_on_c, 0, 72, 0
1, 49440, Note_on_c, 0, 69, 80
1, 49559, Note_on_c, 0, 69, 0
1, 49560, Note_on_c, 0, 72, 80
1, 49679, Note_on_c, 0, 72, 0
1, 49680, Note_on_c, 0, 66, 80
1, 49799, Note_on_c, 0, 66, 0
1, 49800, Note_on_c, 0, 69, 80
1, 49919, Note_on_c, 0, 69, 0
1, 49920, Note_on_c, 0, 72, 80
1, 50039, Note_on_c, 0, 72, 0
1, 50040, Note_on_c, 0, 66, 80
1, 50159, Note_on_c, 0, 66, 0
1, 50160, Note_on_c, 0, 67, 80
1, 50279, Note_on_c, 0, 67, 0
1, 50280, Note_on_c, 0, 69, 80
1, 50399, Note_on_c, 0, 69, 0
1, 50400, Note_on_c, 0, 63, 80
1, 50519, Note_on_c, 0, 63, 0
1, 50520, Note_on_c, 0, 66, 80
1, 50639, Note_on_c, 0, 66, 0
1, 50640, Note_on_c, 0, 71, 80
1, 50759, Note_on_c, 0, 71, 0
1, 50760, Note_on_c, 0, 66, 80
1, 50879, Note_on_c, 0, 66, 0
1, 50880, Note_on_c, 0, 63, 80
1, 50999, Note_on_c, 0, 63, 0
1, 51000, Note_on_c, 0, 66, 80
1, 51119, Note_on_c, 0, 66, 0
1, 51120, Note_on_c, 0, 59, 80
1, 51239, Note_on_c, 0, 59, 0
1, 51240, Note_on_c, 0, 63, 80
1, 51359, Note_on_c, 0, 63, 0
1, 51360, Note_on_c, 0, 66, 80
1, 51479, Note_on_c, 0, 66, 0
1, 51480, Note_on_c, 0, 63, 80
1, 51599, Note_on_c, 0, 63, 0
1, 51600, Note_on_c, 0, 64, 80
1, 51719, Note_on_c, 0, 64, 0
1, 51720, Note_on_c, 0, 66, 80
1, 51839, Note_on_c, 0, 66, 0
1, 51840, Note_on_c, 0, 59, 80
1, 51959, Note_on_c, 0, 59, 0
1, 51960, Note_on_c, 0, 64, 80
1, 52079, Note_on_c, 0, 64, 0
1, 52080, Note_on_c, 0, 67, 80
1, 52199, Note_on_c, 0, 67, 0
1, 52200, Note_on_c, 0, 64, 80
1, 52319, Note_on_c, 0, 64, 0
1, 52320, Note_on_c, 0, 59, 80
1, 52439, Note_on_c, 0, 59, 0
1, 52440, Note_on_c, 0, 64, 80
1, 52559, Note_on_c, 0, 64, 0
1, 52560, Note_on_c, 0, 55, 80
1, 52679, Note_on_c, 0, 55, 0
1, 52680, Note_on_c, 0, 59, 80
1, 52799, Note_on_c, 0, 59, 0
1, 52800, Note_on_c, 0, 64, 80
1, 52919, Note_on_c, 0, 64, 0
1, 52920, Note_on_c, 0, 63, 80
1, 53039, Note_on_c, 0, 63, 0
1, 53040, Note_on_c, 0, 64, 80
1, 53159, Note_on_c, 0, 64, 0
1, 53160, Note_on_c, 0, 67, 80
1, 53279, Note_on_c, 0, 67, 0
1, 53280, Note_on_c, 0, 60, 80
1, 53399, Note_on_c, 0, 60, 0
1, 53400, Note_on_c, 0, 65, 80
1, 53519, Note_on_c, 0, 65, 0
1, 53520, Note_on_c, 0, 69, 80
1, 53639, Note_on_c, 0, 69, 0
1, 53640, Note_on_c, 0, 65, 80
1, 53759, Note_on_c, 0, 65, 0
1, 53760, Note_on_c, 0, 60, 80
1, 53879, Note_on_c, 0, 60, 0
1, 53880, Note_on_c, 0, 65, 80
1, 53999, Note_on_c, 0, 65, 0
1, 54000, Note_on_c, 0, 57, 80
1, 54119, Note_on_c, 0, 57, 0
1, 54120, Note_on_c, 0, 60, 80
1, 54239, Note_on_c, 0, 60, 0
1, 54240, Note_on_c, 0, 65, 80
1, 54359, Note_on_c, 0, 65, 0
1, 54360, Note_on_c, 0, 64, 80
1, 54479, Note_on_c, 0, 64, 0
1, 54480, Note_on_c, 0, 65, 80
1, 54599, Note_on_c, 0, 65, 0
1, 54600, Note_on_c, 0, 69, 80
1, 54719, Note_on_c, 0, 69, 0
1, 54720, Note_on_c, 0, 63, 80
1, 54839, Note_on_c, 0, 63, 0
1, 54840, Note_on_c, 0, 66, 80
1, 54959, Note_on_c, 0, 66, 0
1, 54960, Note_on_c, 0, 69, 80
1, 55079, Note_on_c, 0, 69, 0
1, 55080, Note_on_c, 0, 66, 80
1, 55199, Note_on_c, 0, 66, 0
1, 55200, Note_on_c, 0, 63, 80
1, 55319, Note_on_c, 0, 63, 0
1, 55320, Note_on_c, 0, 66, 80
1, 55439, Note_on_c, 0, 66, 0
1, 55440, Note_on_c, 0, 59, 80
1, 55559, Note_on_c, 0, 59, 0
1, 55560, Note_on_c, 0, 63, 80
1, 55679, Note_on_c, 0, 63, 0
1, 55680, Note_on_c, 0, 54, 80
1, 55799, Note_on_c, 0, 54, 0
1, 55800, Note_on_c, 0, 57, 80
1, 55919, Note_on_c, 0, 57, 0
1, 55920, Note_on_c, 0, 55, 80
1, 56039, Note_on_c, 0, 55, 0
1, 56040, Note_on_c, 0, 54, 80
1, 56159, Note_on_c, 0, 54, 0
1, 56160, Note_on_c, 0, 55, 80
1, 56279, Note_on_c, 0, 55, 0
1, 56280, Note_on_c, 0, 59, 80
1, 56399, Note_on_c, 0, 59, 0
1, 56400, Note_on_c, 0, 64, 80
1, 56519, Note_on_c, 0, 64, 0
1, 56520, Note_on_c, 0, 59, 80
1, 56639, Note_on_c, 0, 59, 0
1, 56640, Note_on_c, 0, 55, 80
1, 56759, Note_on_c, 0, 55, 0
1, 56760, Note_on_c, 0, 59, 80
1, 56879, Note_on_c, 0, 59, 0
1, 56880, Note_on_c, 0, 52, 80
1, 56999, Note_on_c, 0, 52, 0
1, 57000, Note_on_c, 0, 54, 80
1, 57119, Note_on_c, 0, 54, 0
1, 57120, Note_on_c, 0, 55, 80
1, 57239, Note_on_c, 0, 55, 0
1, 57240, Note_on_c, 0, 52, 80
1, 57359, Note_on_c, 0, 52, 0
1, 57360, Note_on_c, 0, 55, 80
1, 57479, Note_on_c, 0, 55, 0
1, 57480, Note_on_c, 0, 59, 80
1, 57599, Note_on_c, 0, 59, 0
1, 57600, Note_on_c, 0, 64, 80
1, 57719, Note_on_c, 0, 64, 0
1, 57960, Note_on_c, 0, 52, 80
1, 58019, Note_on_c, 0, 52, 0
1, 58020, Note_on_c, 0, 50, 80
1, 58079, Note_on_c, 0, 50, 0
1, 58080, Note_on_c, 0, 52, 80
1, 58199, Note_on_c, 0, 52, 0
1, 58440, Note_on_c, 0, 60, 80
1, 58499, Note_on_c, 0, 60, 0
1, 58500, Note_on_c, 0, 59, 80
1, 58559, Note_on_c, 0, 59, 0
1, 58560, Note_on_c, 0, 60, 80
1, 58679, Note_on_c, 0, 60, 0
1, 58920, Note_on_c, 0, 69, 80
1, 58979, Note_on_c, 0, 69, 0
1, 58980, Note_on_c, 0, 68, 80
1, 59039, Note_on_c, 0, 68, 0
1, 59040, Note_on_c, 0, 69, 80
1, 59159, Note_on_c, 0, 69, 0
1, 59400, Note_on_c, 0, 50, 80
1, 59459, Note_on_c, 0, 50, 0
1, 59460, Note_on_c, 0, 48, 80
1, 59519, Note_on_c, 0, 48, 0
1, 59520, Note_on_c, 0, 50, 80
1, 59639, Note_on_c, 0, 50, 0
1, 59880, Note_on_c, 0, 59, 80
1, 59939, Note_on_c, 0, 59, 0
1, 59940, Note_on_c, 0, 57, 80
1, 59999, Note_on_c, 0, 57, 0
1, 60000, Note_on_c, 0, 59, 80
1, 60119, Note_on_c, 0, 59, 0
1, 60360, Note_on_c, 0, 67, 80
1, 60419, Note_on_c, 0, 67, 0
1, 60420, Note_on_c, 0, 66, 80
1, 60479, Note_on_c, 0, 66, 0
1, 60480, Note_on_c, 0, 67, 80
1, 60599, Note_on_c, 0, 67, 0
1, 60840, Note_on_c, 0, 48, 80
1, 60899, Note_on_c, 0, 48, 0
1, 60900, Note_on_c, 0, 47, 80
1, 60959, Note_on_c, 0, 47, 0
1, 60960, Note_on_c, 0, 48, 80
1, 61079, Note_on_c, 0, 48, 0
1, 61320, Note_on_c, 0, 57, 80
1, 61379, Note_on_c, 0, 57, 0
1, 61380, Note_on_c, 0, 55, 80
1, 61439, Note_on_c, 0, 55, 0
1, 61440, Note_on_c, 0, 57, 80
1, 61559, Note_on_c, 0, 57, 0
1, 61800, Note_on_c, 0, 66, 80
1, 61859, Note_on_c, 0, 66, 0
1, 61860, Note_on_c, 0, 64, 80
1, 61919, Note_on_c, 0, 64, 0
1, 61920, Note_on_c, 0, 66, 80
1, 62039, Note_on_c, 0, 66, 0
1, 62280, Note_on_c, 0, 74, 80
1, 62339, Note_on_c, 0, 74, 0
1, 62340, Note_on_c, 0, 72, 80
1, 62399, Note_on_c, 0, 72, 0
1, 62400, Note_on_c, 0, 74, 80
1, 62519, Note_on_c, 0, 74, 0
1, 62760, Note_on_c, 0, 79, 80
1, 62819, Note_on_c, 0, 79, 0
1, 62820, Note_on_c, 0, 78, 80
1, 62879, Note_on_c, 0, 78, 0
1, 62880, Note_on_c, 0, 79, 80
1, 62999, Note_on_c, 0, 79, 0
1, 63240, Note_on_c, 0, 83, 80
1, 63299, Note_on_c, 0, 83, 0
1, 63300, Note_on_c, 0, 81, 80
1, 63359, Note_on_c, 0, 81, 0
1, 63360, Note_on_c, 0, 83, 80
1, 63599, Note_on_c, 0, 83, 0
1, 63840, Note_on_c, 0, 62, 80
1, 64079, Note_on_c, 0, 62, 0
1, 64320, Note_on_c, 0, 65, 80
1, 64559, Note_on_c, 0, 65, 0
1, 64860, Note_on_c, 0, 64, 80
1, 64919, Note_on_c, 0, 64, 0
1, 64920, Note_on_c, 0, 65, 80
1, 64979, Note_on_c, 0, 65, 0
1, 64980, Note_on_c, 0, 67, 80
1, 65039, Note_on_c, 0, 67, 0
1, 65040, Note_on_c, 0, 72, 80
1, 65099, Note_on_c, 0, 72, 0
1, 65100, Note_on_c, 0, 67, 80
1, 65159, Note_on_c, 0, 67, 0
1, 65160, Note_on_c, 0, 65, 80
1, 65219, Note_on_c, 0, 65, 0
1, 65220, Note_on_c, 0, 64, 80
1, 65279, Note_on_c, 0, 64, 0
1, 65340, Note_on_c, 0, 66, 80
1, 65399, Note_on_c, 0, 66, 0
1, 65400, Note_on_c, 0, 67, 80
1, 65459, Note_on_c, 0, 67, 0
1, 65460, Note_on_c, 0, 69, 80
1, 65519, Note_on_c, 0, 69, 0
1, 65520, Note_on_c, 0, 72, 80
1, 65579, Note_on_c, 0, 72, 0
1, 65580, Note_on_c, 0, 69, 80
1, 65639, Note_on_c, 0, 69, 0
1, 65640, Note_on_c, 0, 67, 80
1, 65699, Note_on_c, 0, 67, 0
1, 65700, Note_on_c, 0, 66, 80
1, 65759, Note_on_c, 0, 66, 0
1, 65820, Note_on_c, 0, 67, 80
1, 65879, Note_on_c, 0, 67, 0
1, 65880, Note_on_c, 0, 69, 80
1, 65939, Note_on_c, 0, 69, 0
1, 65940, Note_on_c, 0, 70, 80
1, 65999, Note_on_c, 0, 70, 0
1, 66000, Note_on_c, 0, 73, 80
1, 66059, Note_on_c, 0, 73, 0
1, 66060, Note_on_c, 0, 70, 80
1, 66119, Note_on_c, 0, 70, 0
1, 66120, Note_on_c, 0, 69, 80
1, 66179, Note_on_c, 0, 69, 0
1, 66180, Note_on_c, 0, 67, 80
1, 66239, Note_on_c, 0, 67, 0
1, 66240, Note_on_c, 0, 74, 80
1, 66359, Note_on_c, 0, 74, 0
1, 66360, Note_on_c, 0, 72, 80
1, 66419, Note_on_c, 0, 72, 0
1, 66420, Note_on_c, 0, 71, 80
1, 66479, Note_on_c, 0, 71, 0
1, 66480, Note_on_c, 0, 72, 80
1, 66599, Note_on_c, 0, 72, 0
1, 66600, Note_on_c, 0, 71, 80
1, 66659, Note_on_c, 0, 71, 0
1, 66660, Note_on_c, 0, 69, 80
1, 66719, Note_on_c, 0, 69, 0
1, 66720, Note_on_c, 0, 71, 80
1, 66839, Note_on_c, 0, 71, 0
1, 66840, Note_on_c, 0, 70, 80
1, 66899, Note_on_c, 0, 70, 0
1, 66900, Note_on_c, 0, 69, 80
1, 66959, Note_on_c, 0, 69, 0
1, 66960, Note_on_c, 0, 70, 80
1, 67079, Note_on_c, 0, 70, 0
1, 67080, Note_on_c, 0, 69, 80
1, 67139, Note_on_c, 0, 69, 0
1, 67140, Note_on_c, 0, 67, 80
1, 67199, Note_on_c, 0, 67, 0
1, 67200, Note_on_c, 0, 69, 80
1, 67319, Note_on_c, 0, 69, 0
1, 67320, Note_on_c, 0, 74, 80
1, 67379, Note_on_c, 0, 74, 0
1, 67380, Note_on_c, 0, 72, 80
1, 67439, Note_on_c, 0, 72, 0
1, 67440, Note_on_c, 0, 74, 80
1, 67559, Note_on_c, 0, 74, 0
1, 67560, Note_on_c, 0, 67, 80
1, 67619, Note_on_c, 0, 67, 0
1, 67620, Note_on_c, 0, 66, 80
1, 67679, Note_on_c, 0, 66, 0
1, 67680, Note_on_c, 0, 67, 80
1, 67739, Note_on_c, 0, 67, 0
1, 67740, Note_on_c, 0, 69, 80
1, 67799, Note_on_c, 0, 69, 0
1, 67800, Note_on_c, 0, 71, 80
1, 67859, Note_on_c, 0, 71, 0
1, 67860, Note_on_c, 0, 72, 80
1, 67919, Note_on_c, 0, 72, 0
1, 67920, Note_on_c, 0, 74, 80
1, 67979, Note_on_c, 0, 74, 0
1, 67980, Note_on_c, 0, 72, 80
1, 68039, Note_on_c, 0, 72, 0
1, 68040, Note_on_c, 0, 71, 80
1, 68099, Note_on_c, 0, 71, 0
1, 68100, Note_on_c, 0, 69, 80
1, 68159, Note_on_c, 0, 69, 0
1, 68160, Note_on_c, 0, 67, 80
1, 68279, Note_on_c, 0, 67, 0
1, 68280, Note_on_c, 0, 71, 80
1, 68399, Note_on_c, 0, 71, 0
1, 68400, Note_on_c, 0, 62, 80
1, 68519, Note_on_c, 0, 62, 0
1, 68520, Note_on_c, 0, 67, 80
1, 68639, Note_on_c, 0, 67, 0
1, 68640, Note_on_c, 0, 55, 80
1, 68879, Note_on_c, 0, 55, 0
1, 69120, Note_on_c, 0, 78, 80
1, 69239, Note_on_c, 0, 78, 0
1, 69240, Note_on_c, 0, 81, 80
1, 69359, Note_on_c, 0, 81, 0
1, 69360, Note_on_c, 0, 86, 80
1, 69479, Note_on_c, 0, 86, 0
1, 69480, Note_on_c, 0, 81, 80
1, 69599, Note_on_c, 0, 81, 0
1, 69600, Note_on_c, 0, 78, 80
1, 69719, Note_on_c, 0, 78, 0
1, 69720, Note_on_c, 0, 81, 80
1, 69839, Note_on_c, 0, 81, 0
1, 69840, Note_on_c, 0, 74, 80
1, 69959, Note_on_c, 0, 74, 0
1, 69960, Note_on_c, 0, 78, 80
1, 70079, Note_on_c, 0, 78, 0
1, 70080, Note_on_c, 0, 81, 80
1, 70199, Note_on_c, 0, 81, 0
1, 70200, Note_on_c, 0, 78, 80
1, 70319, Note_on_c, 0, 78, 0
1, 70320, Note_on_c, 0, 79, 80
1, 70439, Note_on_c, 0, 79, 0
1, 70440, Note_on_c, 0, 81, 80
1, 70559, Note_on_c, 0, 81, 0
1, 70560, Note_on_c, 0, 74, 80
1, 70679, Note_on_c, 0, 74, 0
1, 70680, Note_on_c, 0, 79, 80
1, 70799, Note_on_c, 0, 79, 0
1, 70800, Note_on_c, 0, 83, 80
1, 70919, Note_on_c, 0, 83, 0
1, 70920, Note_on_c, 0, 79, 80
1, 71039, Note_on_c, 0, 79, 0
1, 71040, Note_on_c, 0, 74, 80
1, 71159, Note_on_c, 0, 74, 0
1, 71160, Note_on_c, 0, 79, 80
1, 71279, Note_on_c, 0, 79, 0
1, 71280, Note_on_c, 0, 71, 80
1, 71399, Note_on_c, 0, 71, 0
1, 71400, Note_on_c, 0, 74, 80
1, 71519, Note_on_c, 0, 74, 0
1, 71520, Note_on_c, 0, 79, 80
1, 71639, Note_on_c, 0, 79, 0
1, 71640, Note_on_c, 0, 71, 80
1, 71759, Note_on_c, 0, 71, 0
1, 71760, Note_on_c, 0, 72, 80
1, 71879, Note_on_c, 0, 72, 0
1, 71880, Note_on_c, 0, 74, 80
1, 71999, Note_on_c, 0, 74, 0
1, 72000, Note_on_c, 0, 67, 80
1, 72119, Note_on_c, 0, 67, 0
1, 72120, Note_on_c, 0, 72, 80
1, 72239, Note_on_c, 0, 72, 0
1, 72240, Note_on_c, 0, 76, 80
1, 72359, Note_on_c, 0, 76, 0
1, 72360, Note_on_c, 0, 72, 80
1, 72479, Note_on_c, 0, 72, 0
1, 72480, Note_on_c, 0, 69, 80
1, 72599, Note_on_c, 0, 69, 0
1, 72600, Note_on_c, 0, 72, 80
1, 72719, Note_on_c, 0, 72, 0
1, 72720, Note_on_c, 0, 66, 80
1, 72839, Note_on_c, 0, 66, 0
1, 72840, Note_on_c, 0, 69, 80
1, 72959, Note_on_c, 0, 69, 0
1, 72960, Note_on_c, 0, 72, 80
1, 73079, Note_on_c, 0, 72, 0
1, 73080, Note_on_c, 0, 66, 80
1, 73199, Note_on_c, 0, 66, 0
1, 73200, Note_on_c, 0, 67, 80
1, 73319, Note_on_c, 0, 67, 0
1, 73320, Note_on_c, 0, 69, 80
1, 73439, Note_on_c, 0, 69, 0
1, 73440, Note_on_c, 0, 63, 80
1, 73559, Note_on_c, 0, 63, 0
1, 73560, Note_on_c, 0, 66, 80
1, 73679, Note_on_c, 0, 66, 0
1, 73680, Note_on_c, 0, 71, 80
1, 73799, Note_on_c, 0, 71, 0
1, 73800, Note_on_c, 0, 66, 80
1, 73919, Note_on_c, 0, 66, 0
1, 73920, Note_on_c, 0, 63, 80
1, 74039, Note_on_c, 0, 63, 0
1, 74040, Note_on_c, 0, 66, 80
1, 74159, Note_on_c, 0, 66, 0
1, 74160, Note_on_c, 0, 59, 80
1, 74279, Note_on_c, 0, 59, 0
1, 74280, Note_on_c, 0, 63, 80
1, 74399, Note_on_c, 0, 63, 0
1, 74400, Note_on_c, 0, 66, 80
1, 74519, Note_on_c, 0, 66, 0
1, 74520, Note_on_c, 0, 63, 80
1, 74639, Note_on_c, 0, 63, 0
1, 74640, Note_on_c, 0, 64, 80
1, 74759, Note_on_c, 0, 64, 0
1, 74760, Note_on_c, 0, 66, 80
1, 74879, Note_on_c, 0, 66, 0
1, 74880, Note_on_c, 0, 59, 80
1, 74999, Note_on_c, 0, 59, 0
1, 75000, Note_on_c, 0, 64, 80
1, 75119, Note_on_c, 0, 64, 0
1, 75120, Note_on_c, 0, 67, 80
1, 75239, Note_on_c, 0, 67, 0
1, 75240, Note_on_c, 0, 64, 80
1, 75359, Note_on_c, 0, 64, 0
1, 75360, Note_on_c, 0, 59, 80
1, 75479, Note_on_c, 0, 59, 0
1, 75480, Note_on_c, 0, 64, 80
1, 75599, Note_on_c, 0, 64, 0
1, 75600, Note_on_c, 0, 55, 80
1, 75719, Note_on_c, 0, 55, 0
1, 75720, Note_on_c, 0, 59, 80
1, 75839, Note_on_c, 0, 59, 0
1, 75840, Note_on_c, 0, 64, 80
1, 75959, Note_on_c, 0, 64, 0
1, 75960, Note_on_c, 0, 63, 80
1, 76079, Note_on_c, 0, 63, 0
1, 76080, Note_on_c, 0, 64, 80
1, 76199, Note_on_c, 0, 64, 0
1, 76200, Note_on_c, 0, 67, 80
1, 76319, Note_on_c, 0, 67, 0
1, 76320, Note_on_c, 0, 60, 80
1, 76439, Note_on_c, 0, 60, 0
1, 76440, Note_on_c, 0, 65, 80
1, 76559, Note_on_c, 0, 65, 0
1, 76560, Note_on_c, 0, 69, 80
1, 76679, Note_on_c, 0, 69, 0
1, 76680, Note_on_c, 0, 65, 80
1, 76799, Note_on_c, 0, 65, 0
1, 76800, Note_on_c, 0, 60, 80
1, 76919, Note_on_c, 0, 60, 0
1, 76920, Note_on_c, 0, 65, 80
1, 77039, Note_on_c, 0, 65, 0
1, 77040, Note_on_c, 0, 57, 80
1, 77159, Note_on_c, 0, 57, 0
1, 77160, Note_on_c, 0, 60, 80
1, 77279, Note_on_c, 0, 60, 0
1, 77280, Note_on_c, 0, 65, 80
1, 77399, Note_on_c, 0, 65, 0
1, 77400, Note_on_c, 0, 64, 80
1, 77519, Note_on_c, 0, 64, 0
1, 77520, Note_on_c, 0, 65, 80
1, 77639, Note_on_c, 0, 65, 0
1, 77640, Note_on_c, 0, 69, 80
1, 77759, Note_on_c, 0, 69, 0
1, 77760, Note_on_c, 0, 63, 80
1, 77879, Note_on_c, 0, 63, 0
1, 77880, Note_on_c, 0, 66, 80
1, 77999, Note_on_c, 0, 66, 0
1, 78000, Note_on_c, 0, 69, 80
1, 78119, Note_on_c, 0, 69, 0
1, 78120, Note_on_c, 0, 66, 80
1, 78239, Note_on_c, 0, 66, 0
1, 78240, Note_on_c, 0, 63, 80
1, 78359, Note_on_c, 0, 63, 0
1, 78360, Note_on_c, 0, 66, 80
1, 78479, Note_on_c, 0, 66, 0
1, 78480, Note_on_c, 0, 59, 80
1, 78599, Note_on_c, 0, 59, 0
1, 78600, Note_on_c, 0, 63, 80
1, 78719, Note_on_c, 0, 63, 0
1, 78720, Note_on_c, 0, 54, 80
1, 78839, Note_on_c, 0, 54, 0
1, 78840, Note_on_c, 0, 57, 80
1, 78959, Note_on_c, 0, 57, 0
1, 78960, Note_on_c, 0, 55, 80
1, 79079, Note_on_c, 0, 55, 0
1, 79080, Note_on_c, 0, 54, 80
1, 79199, Note_on_c, 0, 54, 0
1, 79200, Note_on_c, 0, 55, 80
1, 79319, Note_on_c, 0, 55, 0
1, 79320, Note_on_c, 0, 59, 80
1, 79439, Note_on_c, 0, 59, 0
1, 79440, Note_on_c, 0, 64, 80
1, 79559, Note_on_c, 0, 64, 0
1, 79560, Note_on_c, 0, 59, 80
1, 79679, Note_on_c, 0, 59, 0
1, 79680, Note_on_c, 0, 55, 80
1, 79799, Note_on_c, 0, 55, 0
1, 79800, Note_on_c, 0, 59, 80
1, 79919, Note_on_c, 0, 59, 0
1, 79920, Note_on_c, 0, 52, 80
1, 80039, Note_on_c, 0, 52, 0
1, 80040, Note_on_c, 0, 54, 80
1, 80159, Note_on_c, 0, 54, 0
1, 80160, Note_on_c, 0, 55, 80
1, 80279, Note_on_c, 0, 55, 0
1, 80280, Note_on_c, 0, 52, 80
1, 80399, Note_on_c, 0, 52, 0
1, 80400, Note_on_c, 0, 55, 80
1, 80519, Note_on_c, 0, 55, 0
1, 80520, Note_on_c, 0, 59, 80
1, 80639, Note_on_c, 0, 59, 0
1, 80640, Note_on_c, 0, 64, 80
1, 80759, Note_on_c, 0, 64, 0
1, 81000, Note_on_c, 0, 52, 80
1, 81059, Note_on_c, 0, 52, 0
1, 81060, Note_on_c, 0, 50, 80
1, 81119, Note_on_c, 0, 50, 0
1, 81120, Note_on_c, 0, 52, 80
1, 81239, Note_on_c, 0, 52, 0
1, 81480, Note_on_c, 0, 60, 80
1, 81539, Note_on_c, 0, 60, 0
1, 81540, Note_on_c, 0, 59, 80
1, 81599, Note_on_c, 0, 59, 0
1, 81600, Note_on_c, 0, 60, 80
1, 81719, Note_on_c, 0, 60, 0
1, 81960, Note_on_c, 0, 69, 80
1, 82019, Note_on_c, 0, 69, 0
1, 82020, Note_on_c, 0, 68, 80
1, 82079, Note_on_c, 0, 68, 0
1, 82080, Note_on_c, 0, 69, 80
1, 82199, Note_on_c, 0, 69, 0
1, 82440, Note_on_c, 0, 50, 80
1, 82499, Note_on_c, 0, 50, 0
1, 82500, Note_on_c, 0, 48, 80
1, 82559, Note_on_c, 0, 48, 0
1, 82560, Note_on_c, 0, 50, 80
1, 82679, Note_on_c, 0, 50, 0
1, 82920, Note_on_c, 0, 59, 80
1, 82979, Note_on_c, 0, 59, 0
1, 82980, Note_on_c, 0, 57, 80
1, 83039, Note_on_c, 0, 57, 0
1, 83040, Note_on_c, 0, 59, 80
1, 83159, Note_on_c, 0, 59, 0
1, 83400, Note_on_c, 0, 67, 80
1, 83459, Note_on_c, 0, 67, 0
1, 83460, Note_on_c, 0, 66, 80
1, 83519, Note_on_c, 0, 66, 0
1, 83520, Note_on_c, 0, 67, 80
1, 83639, Note_on_c, 0, 67, 0
1, 83880, Note_on_c, 0, 48, 80
1, 83939, Note_on_c, 0, 48, 0
1, 83940, Note_on_c, 0, 47, 80
1, 83999, Note_on_c, 0, 47, 0
1, 84000, Note_on_c, 0, 48, 80
1, 84119, Note_on_c, 0, 48, 0
1, 84360, Note_on_c, 0, 57, 80
1, 84419, Note_on_c, 0, 57, 0
1, 84420, Note_on_c, 0, 55, 80
1, 84479, Note_on_c, 0, 55, 0
1, 84480, Note_on_c, 0, 57, 80
1, 84599, Note_on_c, 0, 57, 0
1, 84840, Note_on_c, 0, 66, 80
1, 84899, Note_on_c, 0, 66, 0
1, 84900, Note_on_c, 0, 64, 80
1, 84959, Note_on_c, 0, 64, 0
1, 84960, Note_on_c, 0, 66, 80
1, 85079, Note_on_c, 0, 66, 0
1, 85320, Note_on_c, 0, 74, 80
1, 85379, Note_on_c, 0, 74, 0
1, 85380, Note_on_c, 0, 72, 80
1, 85439, Note_on_c, 0, 72, 0
1, 85440, Note_on_c, 0, 74, 80
1, 85559, Note_on_c, 0, 74, 0
1, 85800, Note_on_c, 0, 79, 80
1, 85859, Note_on_c, 0, 79, 0
1, 85860, Note_on_c, 0, 78, 80
1, 85919, Note_on_c, 0, 78, 0
1, 85920, Note_on_c, 0, 79, 80
1, 86039, Note_on_c, 0, 79, 0
1, 86280, Note_on_c, 0, 83, 80
1, 86339, Note_on_c, 0, 83, 0
1, 86340, Note_on_c, 0, 81, 80
1, 86399, Note_on_c, 0, 81, 0
1, 86400, Note_on_c, 0, 83, 80
1, 86639, Note_on_c, 0, 83, 0
1, 86880, Note_on_c, 0, 62, 80
1, 87119, Note_on_c, 0, 62, 0
1, 87360, Note_on_c, 0, 65, 80
1, 87599, Note_on_c, 0, 65, 0
1, 87900, Note_on_c, 0, 64, 80
1, 87959, Note_on_c, 0, 64, 0
1, 87960, Note_on_c, 0, 65, 80
1, 88019, Note_on_c, 0, 65, 0
1, 88020, Note_on_c, 0, 67, 80
1, 88079, Note_on_c, 0, 67, 0
1, 88080, Note_on_c, 0, 72, 80
1, 88139, Note_on_c, 0, 72, 0
1, 88140, Note_on_c, 0, 67, 80
1, 88199, Note_on_c, 0, 67, 0
1, 88200, Note_on_c, 0, 65, 80
1, 88259, Note_on_c, 0, 65, 0
1, 88260, Note_on_c, 0, 64, 80
1, 88319, Note_on_c, 0, 64, 0
1, 88380, Note_on_c, 0, 66, 80
1, 88439, Note_on_c, 0, 66, 0
1, 88440, Note_on_c, 0, 67, 80
1, 88499, Note_on_c, 0, 67, 0
1, 88500, Note_on_c, 0, 69, 80
1, 88559, Note_on_c, 0, 69, 0
1, 88560, Note_on_c, 0, 72, 80
1, 88619, Note_on_c, 0, 72, 0
1, 88620, Note_on_c, 0, 69, 80
1, 88679, Note_on_c, 0, 69, 0
1, 88680, Note_on_c, 0, 67, 80
1, 88739, Note_on_c, 0, 67, 0
1, 88740, Note_on_c, 0, 66, 80
1, 88799, Note_on_c, 0, 66, 0
1, 88860, Note_on_c, 0, 67, 80
1, 88919, Note_on_c, 0, 67, 0
1, 88920, Note_on_c, 0, 69, 80
1, 88979, Note_on_c, 0, 69, 0
1, 88980, Note_on_c, 0, 70, 80
1, 89039, Note_on_c, 0, 70, 0
1, 89040, Note_on_c, 0, 73, 80
1, 89099, Note_on_c, 0, 73, 0
1, 89100, Note_on_c, 0, 70, 80
1, 89159, Note_on_c, 0, 70, 0
1, 89160, Note_on_c, 0, 69, 80
1, 89219, Note_on_c, 0, 69, 0
1, 89220, Note_on_c, 0, 67, 80
1, 89279, Note_on_c, 0, 67, 0
1, 89280, Note_on_c, 0, 74, 80
1, 89399, Note_on_c, 0, 74, 0
1, 89400, Note_on_c, 0, 72, 80
1, 89459, Note_on_c, 0, 72, 0
1, 89460, Note_on_c, 0, 71, 80
1, 89519, Note_on_c, 0, 71, 0
1, 89520, Note_on_c, 0, 72, 80
1, 89639, Note_on_c, 0, 72, 0
1, 89640, Note_on_c, 0, 71, 80
1, 89699, Note_on_c, 0, 71, 0
1, 89700, Note_on_c, 0, 69, 80
1, 89759, Note_on_c, 0, 69, 0
1, 89760, Note_on_c, 0, 71, 80
1, 89879, Note_on_c, 0, 71, 0
1, 89880, Note_on_c, 0, 70, 80
1, 89939, Note_on_c, 0, 70, 0
1, 89940, Note_on_c, 0, 69, 80
1, 89999, Note_on_c, 0, 69, 0
1, 90000, Note_on_c, 0, 70, 80
1, 90119, Note_on_c, 0, 70, 0
1, 90120, Note_on_c, 0, 69, 80
1, 90179, Note_on_c, 0, 69, 0
1, 90180, Note_on_c, 0, 67, 80
1, 90239, Note_on_c, 0, 67, 0
1, 90240, Note_on_c, 0, 69, 80
1, 90359, Note_on_c, 0, 69, 0
1, 90360, Note_on_c, 0, 74, 80
1, 90419, Note_on_c, 0, 74, 0
1, 90420, Note_on_c, 0, 72, 80
1, 90479, Note_on_c, 0, 72, 0
1, 90480, Note_on_c, 0, 74, 80
1, 90599, Note_on_c, 0, 74, 0
1, 90600, Note_on_c, 0, 67, 80
1, 90659, Note_on_c, 0, 67, 0
1, 90660, Note_on_c, 0, 66, 80
1, 90719, Note_on_c, 0, 66, 0
1, 90720, Note_on_c, 0, 67, 80
1, 90779, Note_on_c, 0, 67, 0
1, 90780, Note_on_c, 0, 69, 80
1, 90839, Note_on_c, 0, 69, 0
1, 90840, Note_on_c, 0, 71, 80
1, 90899, Note_on_c, 0, 71, 0
1, 90900, Note_on_c, 0, 72, 80
1, 90959, Note_on_c, 0, 72, 0
1, 90960, Note_on_c, 0, 74, 80
1, 91019, Note_on_c, 0, 74, 0
1, 91020, Note_on_c, 0, 72, 80
1, 91079, Note_on_c, 0, 72, 0
1, 91080, Note_on_c, 0, 71, 80
1, 91139, Note_on_c, 0, 71, 0
1, 91140, Note_on_c, 0, 69, 80
1, 91199, Note_on_c, 0, 69, 0
1, 91200, Note_on_c, 0, 67, 80
1, 91319, Note_on_c, 0, 67, 0
1, 91320, Note_on_c, 0, 71, 80
1, 91439, Note_on_c, 0, 71, 0
1, 91440, Note_on_c, 0, 62, 80
1, 91559, Note_on_c, 0, 62, 0
1, 91560, Note_on_c, 0, 67, 80
1, 91679, Note_on_c, 0, 67, 0
1, 91680, Note_on_c, 0, 55, 80
1, 91919, Note_on_c, 0, 55, 0
1, 91920, End_track
2, 0, Start_track
2, 0, Key_signature, 1, "major"
2, 0, Note_on_c, 0, 59, 80
2, 119, Note_on_c, 0, 59, 0
2, 120, Note_on_c, 0, 55, 80
2, 239, Note_on_c, 0, 55, 0
2, 240, Note_on_c, 0, 50, 80
2, 359, Note_on_c, 0, 50, 0
2, 360, Note_on_c, 0, 55, 80
2, 479, Note_on_c, 0, 55, 0
2, 480, Note_on_c, 0, 59, 80
2, 599, Note_on_c, 0, 59, 0
2, 600, Note_on_c, 0, 55, 80
2, 719, Note_on_c, 0, 55, 0
2, 720, Note_on_c, 0, 62, 80
2, 839, Note_on_c, 0, 62, 0
2, 840, Note_on_c, 0, 59, 80
2, 959, Note_on_c, 0, 59, 0
2, 960, Note_on_c, 0, 55, 80
2, 1079, Note_on_c, 0, 55, 0
2, 1080, Note_on_c, 0, 59, 80
2, 1199, Note_on_c, 0, 59, 0
2, 1200, Note_on_c, 0, 57, 80
2, 1319, Note_on_c, 0, 57, 0
2, 1320, Note_on_c, 0, 55, 80
2, 1439, Note_on_c, 0, 55, 0
2, 1440, Note_on_c, 0, 62, 80
2, 1559, Note_on_c, 0, 62, 0
2, 1560, Note_on_c, 0, 57, 80
2, 1679, Note_on_c, 0, 57, 0
2, 1680, Note_on_c, 0, 54, 80
2, 1799, Note_on_c, 0, 54, 0
2, 1800, Note_on_c, 0, 57, 80
2, 1919, Note_on_c, 0, 57, 0
2, 1920, Note_on_c, 0, 62, 80
2, 2039, Note_on_c, 0, 62, 0
2, 2040, Note_on_c, 0, 57, 80
2, 2159, Note_on_c, 0, 57, 0
2, 2160, Note_on_c, 0, 69, 80
2, 2279, Note_on_c, 0, 69, 0
2, 2280, Note_on_c, 0, 66, 80
2, 2399, Note_on_c, 0, 66, 0
2, 2400, Note_on_c, 0, 62, 80
2, 2519, Note_on_c, 0, 62, 0
2, 2520, Note_on_c, 0, 66, 80
2, 2639, Note_on_c, 0, 66, 0
2, 2640, Note_on_c, 0, 64, 80
2, 2759, Note_on_c, 0, 64, 0
2, 2760, Note_on_c, 0, 62, 80
2, 2879, Note_on_c, 0, 62, 0
2, 2880, Note_on_c, 0, 67, 80
2, 2999, Note_on_c, 0, 67, 0
2, 3000, Note_on_c, 0, 64, 80
2, 3119, Note_on_c, 0, 64, 0
2, 3120, Note_on_c, 0, 59, 80
2, 3239, Note_on_c, 0, 59, 0
2, 3240, Note_on_c, 0, 64, 80
2, 3359, Note_on_c, 0, 64, 0
2, 3360, Note_on_c, 0, 67, 80
2, 3479, Note_on_c, 0, 67, 0
2, 3480, Note_on_c, 0, 64, 80
2, 3599, Note_on_c, 0, 64, 0
2, 3600, Note_on_c, 0, 71, 80
2, 3719, Note_on_c, 0, 71, 0
2, 3720, Note_on_c, 0, 67, 80
2, 3839, Note_on_c, 0, 67, 0
2, 3840, Note_on_c, 0, 64, 80
2, 3959, Note_on_c, 0, 64, 0
2, 3960, Note_on_c, 0, 71, 80
2, 4079, Note_on_c, 0, 71, 0
2, 4080, Note_on_c, 0, 69, 80
2, 4199, Note_on_c, 0, 69, 0
2, 4200, Note_on_c, 0, 67, 80
2, 4319, Note_on_c, 0, 67, 0
2, 4320, Note_on_c, 0, 74, 80
2, 4439, Note_on_c, 0, 74, 0
2, 4440, Note_on_c, 0, 69, 80
2, 4559, Note_on_c, 0, 69, 0
2, 4560, Note_on_c, 0, 66, 80
2, 4679, Note_on_c, 0, 66, 0
2, 4680, Note_on_c, 0, 69, 80
2, 4799, Note_on_c, 0, 69, 0
2, 4800, Note_on_c, 0, 74, 80
2, 4919, Note_on_c, 0, 74, 0
2, 4920, Note_on_c, 0, 69, 80
2, 5039, Note_on_c, 0, 69, 0
2, 5040, Note_on_c, 0, 81, 80
2, 5159, Note_on_c, 0, 81, 0
2, 5160, Note_on_c, 0, 78, 80
2, 5279, Note_on_c, 0, 78, 0
2, 5280, Note_on_c, 0, 74, 80
2, 5399, Note_on_c, 0, 74, 0
2, 5400, Note_on_c, 0, 78, 80
2, 5519, Note_on_c, 0, 78, 0
2, 5520, Note_on_c, 0, 76, 80
2, 5639, Note_on_c, 0, 76, 0
2, 5640, Note_on_c, 0, 74, 80
2, 5759, Note_on_c, 0, 74, 0
2, 5760, Note_on_c, 0, 79, 80
2, 5879, Note_on_c, 0, 79, 0
2, 5880, Note_on_c, 0, 74, 80
2, 5999, Note_on_c, 0, 74, 0
2, 6000, Note_on_c, 0, 71, 80
2, 6119, Note_on_c, 0, 71, 0
2, 6120, Note_on_c, 0, 74, 80
2, 6239, Note_on_c, 0, 74, 0
2, 6240, Note_on_c, 0, 79, 80
2, 6359, Note_on_c, 0, 79, 0
2, 6360, Note_on_c, 0, 74, 80
2, 6479, Note_on_c, 0, 74, 0
2, 6480, Note_on_c, 0, 83, 80
2, 6599, Note_on_c, 0, 83, 0
2, 6600, Note_on_c, 0, 79, 80
2, 6719, Note_on_c, 0, 79, 0
2, 6720, Note_on_c, 0, 74, 80
2, 6839, Note_on_c, 0, 74, 0
2, 6840, Note_on_c, 0, 77, 80
2, 6959, Note_on_c, 0, 77, 0
2, 6960, Note_on_c, 0, 76, 80
2, 7079, Note_on_c, 0, 76, 0
2, 7080, Note_on_c, 0, 74, 80
2, 7199, Note_on_c, 0, 74, 0
2, 7200, Note_on_c, 0, 76, 80
2, 7319, Note_on_c, 0, 76, 0
2, 7320, Note_on_c, 0, 72, 80
2, 7439, Note_on_c, 0, 72, 0
2, 7440, Note_on_c, 0, 67, 80
2, 7559, Note_on_c, 0, 67, 0
2, 7560, Note_on_c, 0, 72, 80
2, 7679, Note_on_c, 0, 72, 0
2, 7680, Note_on_c, 0, 76, 80
2, 7799, Note_on_c, 0, 76, 0
2, 7800, Note_on_c, 0, 72, 80
2, 7919, Note_on_c, 0, 72, 0
2, 7920, Note_on_c, 0, 79, 80
2, 8039, Note_on_c, 0, 79, 0
2, 8040, Note_on_c, 0, 76, 80
2, 8159, Note_on_c, 0, 76, 0
2, 8160, Note_on_c, 0, 72, 80
2, 8279, Note_on_c, 0, 72, 0
2, 8280, Note_on_c, 0, 74, 80
2, 8399, Note_on_c, 0, 74, 0
2, 8400, Note_on_c, 0, 72, 80
2, 8519, Note_on_c, 0, 72, 0
2, 8520, Note_on_c, 0, 71, 80
2, 8639, Note_on_c, 0, 71, 0
2, 8640, Note_on_c, 0, 69, 80
2, 8759, Note_on_c, 0, 69, 0
2, 8760, Note_on_c, 0, 66, 80
2, 8879, Note_on_c, 0, 66, 0
2, 8880, Note_on_c, 0, 62, 80
2, 8999, Note_on_c, 0, 62, 0
2, 9000, Note_on_c, 0, 66, 80
2, 9119, Note_on_c, 0, 66, 0
2, 9120, Note_on_c, 0, 69, 80
2, 9239, Note_on_c, 0, 69, 0
2, 9240, Note_on_c, 0, 66, 80
2, 9359, Note_on_c, 0, 66, 0
2, 9360, Note_on_c, 0, 74, 80
2, 9479, Note_on_c, 0, 74, 0
2, 9480, Note_on_c, 0, 69, 80
2, 9599, Note_on_c, 0, 69, 0
2, 9600, Note_on_c, 0, 66, 80
2, 9719, Note_on_c, 0, 66, 0
2, 9720, Note_on_c, 0, 69, 80
2, 9839, Note_on_c, 0, 69, 0
2, 9840, Note_on_c, 0, 67, 80
2, 9959, Note_on_c, 0, 67, 0
2, 9960, Note_on_c, 0, 66, 80
2, 10079, Note_on_c, 0, 66, 0
2, 10080, Note_on_c, 0, 67, 80
2, 10199, Note_on_c, 0, 67, 0
2, 10200, Note_on_c, 0, 62, 80
2, 10319, Note_on_c, 0, 62, 0
2, 10320, Note_on_c, 0, 59, 80
2, 10439, Note_on_c, 0, 59, 0
2, 10440, Note_on_c, 0, 62, 80
2, 10559, Note_on_c, 0, 62, 0
2, 10560, Note_on_c, 0, 67, 80
2, 10679, Note_on_c, 0, 67, 0
2, 10680, Note_on_c, 0, 62, 80
2, 10799, Note_on_c, 0, 62, 0
2, 10800, Note_on_c, 0, 71, 80
2, 10919, Note_on_c, 0, 71, 0
2, 10920, Note_on_c, 0, 67, 80
2, 11039, Note_on_c, 0, 67, 0
2, 11040, Note_on_c, 0, 74, 80
2, 11159, Note_on_c, 0, 74, 0
2, 11160, Note_on_c, 0, 72, 80
2, 11279, Note_on_c, 0, 72, 0
2, 11280, Note_on_c, 0, 71, 80
2, 11399, Note_on_c, 0, 71, 0
2, 11400, Note_on_c, 0, 69, 80
2, 11519, Note_on_c, 0, 69, 0
2, 11520, Note_on_c, 0, 67, 80
2, 11759, Note_on_c, 0, 67, 0
2, 11880, Note_on_c, 0, 79, 80
2, 11939, Note_on_c, 0, 79, 0
2, 11940, Note_on_c, 0, 78, 80
2, 11999, Note_on_c, 0, 78, 0
2, 12000, Note_on_c, 0, 79, 80
2, 12119, Note_on_c, 0, 79, 0
2, 12360, Note_on_c, 0, 73, 80
2, 12419, Note_on_c, 0, 73, 0
2, 12420, Note_on_c, 0, 71, 80
2, 12479, Note_on_c, 0, 71, 0
2, 12480, Note_on_c, 0, 73, 80
2, 12599, Note_on_c, 0, 73, 0
2, 12840, Note_on_c, 0, 66, 80
2, 12899, Note_on_c, 0, 66, 0
2, 12900, Note_on_c, 0, 64, 80
2, 12959, Note_on_c, 0, 64, 0
2, 12960, Note_on_c, 0, 66, 80
2, 13079, Note_on_c, 0, 66, 0
2, 13320, Note_on_c, 0, 78, 80
2, 13379, Note_on_c, 0, 78, 0
2, 13380, Note_on_c, 0, 76, 80
2, 13439, Note_on_c, 0, 76, 0
2, 13440, Note_on_c, 0, 78, 80
2, 13559, Note_on_c, 0, 78, 0
2, 13800, Note_on_c, 0, 71, 80
2, 13859, Note_on_c, 0, 71, 0
2, 13860, Note_on_c, 0, 69, 80
2, 13919, Note_on_c, 0, 69, 0
2, 13920, Note_on_c, 0, 71, 80
2, 14039, Note_on_c, 0, 71, 0
2, 14280, Note_on_c, 0, 64, 80
2, 14339, Note_on_c, 0, 64, 0
2, 14340, Note_on_c, 0, 62, 80
2, 14399, Note_on_c, 0, 62, 0
2, 14400, Note_on_c, 0, 64, 80
2, 14519, Note_on_c, 0, 64, 0
2, 14760, Note_on_c, 0, 76, 80
2, 14819, Note_on_c, 0, 76, 0
2, 14820, Note_on_c, 0, 74, 80
2, 14879, Note_on_c, 0, 74, 0
2, 14880, Note_on_c, 0, 76, 80
2, 14999, Note_on_c, 0, 76, 0
2, 15240, Note_on_c, 0, 67, 80
2, 15299, Note_on_c, 0, 67, 0
2, 15300, Note_on_c, 0, 66, 80
2, 15359, Note_on_c, 0, 66, 0
2, 15360, Note_on_c, 0, 67, 80
2, 15479, Note_on_c, 0, 67, 0
2, 15720, Note_on_c, 0, 61, 80
2, 15779, Note_on_c, 0, 61, 0
2, 15780, Note_on_c, 0, 59, 80
2, 15839, Note_on_c, 0, 59, 0
2, 15840, Note_on_c, 0, 61, 80
2, 15959, Note_on_c, 0, 61, 0
2, 16200, Note_on_c, 0, 52, 80
2, 16259, Note_on_c, 0, 52, 0
2, 16260, Note_on_c, 0, 50, 80
2, 16319, Note_on_c, 0, 50, 0
2, 16320, Note_on_c, 0, 52, 80
2, 16439, Note_on_c, 0, 52, 0
2, 16680, Note_on_c, 0, 45, 80
2, 16739, Note_on_c, 0, 45, 0
2, 16740, Note_on_c, 0, 43, 80
2, 16799, Note_on_c, 0, 43, 0
2, 16800, Note_on_c, 0, 45, 80
2, 16919, Note_on_c, 0, 45, 0
2, 17160, Note_on_c, 0, 42, 80
2, 17219, Note_on_c, 0, 42, 0
2, 17220, Note_on_c, 0, 40, 80
2, 17279, Note_on_c, 0, 40, 0
2, 17280, Note_on_c, 0, 42, 80
2, 17519, Note_on_c, 0, 42, 0
2, 17760, Note_on_c, 0, 74, 80
2, 17999, Note_on_c, 0, 74, 0
2, 18240, Note_on_c, 0, 72, 80
2, 18479, Note_on_c, 0, 72, 0
2, 18780, Note_on_c, 0, 55, 80
2, 18839, Note_on_c, 0, 55, 0
2, 18840, Note_on_c, 0, 57, 80
2, 18899, Note_on_c, 0, 57, 0
2, 18900, Note_on_c, 0, 59, 80
2, 18959, Note_on_c, 0, 59, 0
2, 18960, Note_on_c, 0, 62, 80
2, 19019, Note_on_c, 0, 62, 0
2, 19020, Note_on_c, 0, 59, 80
2, 19079, Note_on_c, 0, 59, 0
2, 19080, Note_on_c, 0, 57, 80
2, 19139, Note_on_c, 0, 57, 0
2, 19140, Note_on_c, 0, 55, 80
2, 19199, Note_on_c, 0, 55, 0
2, 19260, Note_on_c, 0, 55, 80
2, 19319, Note_on_c, 0, 55, 0
2, 19320, Note_on_c, 0, 57, 80
2, 19379, Note_on_c, 0, 57, 0
2, 19380, Note_on_c, 0, 58, 80
2, 19439, Note_on_c, 0, 58, 0
2, 19440, Note_on_c, 0, 62, 80
2, 19499, Note_on_c, 0, 62, 0
2, 19500, Note_on_c, 0, 58, 80
2, 19559, Note_on_c, 0, 58, 0
2, 19560, Note_on_c, 0, 57, 80
2, 19619, Note_on_c, 0, 57, 0
2, 19620, Note_on_c, 0, 55, 80
2, 19679, Note_on_c, 0, 55, 0
2, 19740, Note_on_c, 0, 56, 80
2, 19799, Note_on_c, 0, 56, 0
2, 19800, Note_on_c, 0, 57, 80
2, 19859, Note_on_c, 0, 57, 0
2, 19860, Note_on_c, 0, 59, 80
2, 19919, Note_on_c, 0, 59, 0
2, 19920, Note_on_c, 0, 62, 80
2, 19979, Note_on_c, 0, 62, 0
2, 19980, Note_on_c, 0, 59, 80
2, 20039, Note_on_c, 0, 59, 0
2, 20040, Note_on_c, 0, 57, 80
2, 20099, Note_on_c, 0, 57, 0
2, 20100, Note_on_c, 0, 56, 80
2, 20159, Note_on_c, 0, 56, 0
2, 20160, Note_on_c, 0, 57, 80
2, 20279, Note_on_c, 0, 57, 0
2, 20280, Note_on_c, 0, 61, 80
2, 20339, Note_on_c, 0, 61, 0
2, 20340, Note_on_c, 0, 59, 80
2, 20399, Note_on_c, 0, 59, 0
2, 20400, Note_on_c, 0, 61, 80
2, 20519, Note_on_c, 0, 61, 0
2, 20520, Note_on_c, 0, 54, 80
2, 20579, Note_on_c, 0, 54, 0
2, 20580, Note_on_c, 0, 52, 80
2, 20639, Note_on_c, 0, 52, 0
2, 20640, Note_on_c, 0, 54, 80
2, 20759, Note_on_c, 0, 54, 0
2, 20760, Note_on_c, 0, 59, 80
2, 20819, Note_on_c, 0, 59, 0
2, 20820, Note_on_c, 0, 57, 80
2, 20879, Note_on_c, 0, 57, 0
2, 20880, Note_on_c, 0, 59, 80
2, 20999, Note_on_c, 0, 59, 0
2, 21000, Note_on_c, 0, 52, 80
2, 21059, Note_on_c, 0, 52, 0
2, 21060, Note_on_c, 0, 50, 80
2, 21119, Note_on_c, 0, 50, 0
2, 21120, Note_on_c, 0, 52, 80
2, 21239, Note_on_c, 0, 52, 0
2, 21240, Note_on_c, 0, 57, 80
2, 21299, Note_on_c, 0, 57, 0
2, 21300, Note_on_c, 0, 55, 80
2, 21359, Note_on_c, 0, 55, 0
2, 21360, Note_on_c, 0, 57, 80
2, 21479, Note_on_c, 0, 57, 0
2, 21480, Note_on_c, 0, 50, 80
2, 21539, Note_on_c, 0, 50, 0
2, 21540, Note_on_c, 0, 49, 80
2, 21599, Note_on_c, 0, 49, 0
2, 21600, Note_on_c, 0, 50, 80
2, 21659, Note_on_c, 0, 50, 0
2, 21660, Note_on_c, 0, 52, 80
2, 21719, Note_on_c, 0, 52, 0
2, 21720, Note_on_c, 0, 54, 80
2, 21779, Note_on_c, 0, 54, 0
2, 21780, Note_on_c, 0, 55, 80
2, 21839, Note_on_c, 0, 55, 0
2, 21840, Note_on_c, 0, 57, 80
2, 21899, Note_on_c, 0, 57, 0
2, 21900, Note_on_c, 0, 55, 80
2, 21959, Note_on_c, 0, 55, 0
2, 21960, Note_on_c, 0, 54, 80
2, 22019, Note_on_c, 0, 54, 0
2, 22020, Note_on_c, 0, 52, 80
2, 22079, Note_on_c, 0, 52, 0
2, 22080, Note_on_c, 0, 50, 80
2, 22199, Note_on_c, 0, 50, 0
2, 22200, Note_on_c, 0, 54, 80
2, 22319, Note_on_c, 0, 54, 0
2, 22320, Note_on_c, 0, 45, 80
2, 22439, Note_on_c, 0, 45, 0
2, 22440, Note_on_c, 0, 50, 80
2, 22559, Note_on_c, 0, 50, 0
2, 22560, Note_on_c, 0, 38, 80
2, 22799, Note_on_c, 0, 38, 0
2, 23040, Note_on_c, 0, 59, 80
2, 23159, Note_on_c, 0, 59, 0
2, 23160, Note_on_c, 0, 55, 80
2, 23279, Note_on_c, 0, 55, 0
2, 23280, Note_on_c, 0, 50, 80
2, 23399, Note_on_c, 0, 50, 0
2, 23400, Note_on_c, 0, 55, 80
2, 23519, Note_on_c, 0, 55, 0
2, 23520, Note_on_c, 0, 59, 80
2, 23639, Note_on_c, 0, 59, 0
2, 23640, Note_on_c, 0, 55, 80
2, 23759, Note_on_c, 0, 55, 0
2, 23760, Note_on_c, 0, 62, 80
2, 23879, Note_on_c, 0, 62, 0
2, 23880, Note_on_c, 0, 59, 80
2, 23999, Note_on_c, 0, 59, 0
2, 24000, Note_on_c, 0, 55, 80
2, 24119, Note_on_c, 0, 55, 0
2, 24120, Note_on_c, 0, 59, 80
2, 24239, Note_on_c, 0, 59, 0
2, 24240, Note_on_c, 0, 57, 80
2, 24359, Note_on_c, 0, 57, 0
2, 24360, Note_on_c, 0, 55, 80
2, 24479, Note_on_c, 0, 55, 0
2, 24480, Note_on_c, 0, 62, 80
2, 24599, Note_on_c, 0, 62, 0
2, 24600, Note_on_c, 0, 57, 80
2, 24719, Note_on_c, 0, 57, 0
2, 24720, Note_on_c, 0, 54, 80
2, 24839, Note_on_c, 0, 54, 0
2, 24840, Note_on_c, 0, 57, 80
2, 24959, Note_on_c, 0, 57, 0
2, 24960, Note_on_c, 0, 62, 80
2, 25079, Note_on_c, 0, 62, 0
2, 25080, Note_on_c, 0, 57, 80
2, 25199, Note_on_c, 0, 57, 0
2, 25200, Note_on_c, 0, 69, 80
2, 25319, Note_on_c, 0, 69, 0
2, 25320, Note_on_c, 0, 66, 80
2, 25439, Note_on_c, 0, 66, 0
2, 25440, Note_on_c, 0, 62, 80
2, 25559, Note_on_c, 0, 62, 0
2, 25560, Note_on_c, 0, 66, 80
2, 25679, Note_on_c, 0, 66, 0
2, 25680, Note_on_c, 0, 64, 80
2, 25799, Note_on_c, 0, 64, 0
2, 25800, Note_on_c, 0, 62, 80
2, 25919, Note_on_c, 0, 62, 0
2, 25920, Note_on_c, 0, 67, 80
2, 26039, Note_on_c, 0, 67, 0
2, 26040, Note_on_c, 0, 64, 80
2, 26159, Note_on_c, 0, 64, 0
2, 26160, Note_on_c, 0, 59, 80
2, 26279, Note_on_c, 0, 59, 0
2, 26280, Note_on_c, 0, 64, 80
2, 26399, Note_on_c, 0, 64, 0
2, 26400, Note_on_c, 0, 67, 80
2, 26519, Note_on_c, 0, 67, 0
2, 26520, Note_on_c, 0, 64, 80
2, 26639, Note_on_c, 0, 64, 0
2, 26640, Note_on_c, 0, 71, 80
2, 26759, Note_on_c, 0, 71, 0
2, 26760, Note_on_c, 0, 67, 80
2, 26879, Note_on_c, 0, 67, 0
2, 26880, Note_on_c, 0, 64, 80
2, 26999, Note_on_c, 0, 64, 0
2, 27000, Note_on_c, 0, 71, 80
2, 27119, Note_on_c, 0, 71, 0
2, 27120, Note_on_c, 0, 69, 80
2, 27239, Note_on_c, 0, 69, 0
2, 27240, Note_on_c, 0, 67, 80
2, 27359, Note_on_c, 0, 67, 0
2, 27360, Note_on_c, 0, 74, 80
2, 27479, Note_on_c, 0, 74, 0
2, 27480, Note_on_c, 0, 69, 80
2, 27599, Note_on_c, 0, 69, 0
2, 27600, Note_on_c, 0, 66, 80
2, 27719, Note_on_c, 0, 66, 0
2, 27720, Note_on_c, 0, 69, 80
2, 27839, Note_on_c, 0, 69, 0
2, 27840, Note_on_c, 0, 74, 80
2, 27959, Note_on_c, 0, 74, 0
2, 27960, Note_on_c, 0, 69, 80
2, 28079, Note_on_c, 0, 69, 0
2, 28080, Note_on_c, 0, 81, 80
2, 28199, Note_on_c, 0, 81, 0
2, 28200, Note_on_c, 0, 78, 80
2, 28319, Note_on_c, 0, 78, 0
2, 28320, Note_on_c, 0, 74, 80
2, 28439, Note_on_c, 0, 74, 0
2, 28440, Note_on_c, 0, 78, 80
2, 28559, Note_on_c, 0, 78, 0
2, 28560, Note_on_c, 0, 76, 80
2, 28679, Note_on_c, 0, 76, 0
2, 28680, Note_on_c, 0, 74, 80
2, 28799, Note_on_c, 0, 74, 0
2, 28800, Note_on_c, 0, 79, 80
2, 28919, Note_on_c, 0, 79, 0
2, 28920, Note_on_c, 0, 74, 80
2, 29039, Note_on_c, 0, 74, 0
2, 29040, Note_on_c, 0, 71, 80
2, 29159, Note_on_c, 0, 71, 0
2, 29160, Note_on_c, 0, 74, 80
2, 29279, Note_on_c, 0, 74, 0
2, 29280, Note_on_c, 0, 79, 80
2, 29399, Note_on_c, 0, 79, 0
2, 29400, Note_on_c, 0, 74, 80
2, 29519, Note_on_c, 0, 74, 0
2, 29520, Note_on_c, 0, 83, 80
2, 29639, Note_on_c, 0, 83, 0
2, 29640, Note_on_c, 0, 79, 80
2, 29759, Note_on_c, 0, 79, 0
2, 29760, Note_on_c, 0, 74, 80
2, 29879, Note_on_c, 0, 74, 0
2, 29880, Note_on_c, 0, 77, 80
2, 29999, Note_on_c, 0, 77, 0
2, 30000, Note_on_c, 0, 76, 80
2, 30119, Note_on_c, 0, 76, 0
2, 30120, Note_on_c, 0, 74, 80
2, 30239, Note_on_c, 0, 74, 0
2, 30240, Note_on_c, 0, 76, 80
2, 30359, Note_on_c, 0, 76, 0
2, 30360, Note_on_c, 0, 72, 80
2, 30479, Note_on_c, 0, 72, 0
2, 30480, Note_on_c, 0, 67, 80
2, 30599, Note_on_c, 0, 67, 0
2, 30600, Note_on_c, 0, 72, 80
2, 30719, Note_on_c, 0, 72, 0
2, 30720, Note_on_c, 0, 76, 80
2, 30839, Note_on_c, 0, 76, 0
2, 30840, Note_on_c, 0, 72, 80
2, 30959, Note_on_c, 0, 72, 0
2, 30960, Note_on_c, 0, 79, 80
2, 31079, Note_on_c, 0, 79, 0
2, 31080, Note_on_c, 0, 76, 80
2, 31199, Note_on_c, 0, 76, 0
2, 31200, Note_on_c, 0, 72, 80
2, 31319, Note_on_c, 0, 72, 0
2, 31320, Note_on_c, 0, 74, 80
2, 31439, Note_on_c, 0, 74, 0
2, 31440, Note_on_c, 0, 72, 80
2, 31559, Note_on_c, 0, 72, 0
2, 31560, Note_on_c, 0, 71, 80
2, 31679, Note_on_c, 0, 71, 0
2, 31680, Note_on_c, 0, 69, 80
2, 31799, Note_on_c, 0, 69, 0
2, 31800, Note_on_c, 0, 66, 80
2, 31919, Note_on_c, 0, 66, 0
2, 31920, Note_on_c, 0, 62, 80
2, 32039, Note_on_c, 0, 62, 0
2, 32040, Note_on_c, 0, 66, 80
2, 32159, Note_on_c, 0, 66, 0
2, 32160, Note_on_c, 0, 69, 80
2, 32279, Note_on_c, 0, 69, 0
2, 32280, Note_on_c, 0, 66, 80
2, 32399, Note_on_c, 0, 66, 0
2, 32400, Note_on_c, 0, 74, 80
2, 32519, Note_on_c, 0, 74, 0
2, 32520, Note_on_c, 0, 69, 80
2, 32639, Note_on_c, 0, 69, 0
2, 32640, Note_on_c, 0, 66, 80
2, 32759, Note_on_c, 0, 66, 0
2, 32760, Note_on_c, 0, 69, 80
2, 32879, Note_on_c, 0, 69, 0
2, 32880, Note_on_c, 0, 67, 80
2, 32999, Note_on_c, 0, 67, 0
2, 33000, Note_on_c, 0, 66, 80
2, 33119, Note_on_c, 0, 66, 0
2, 33120, Note_on_c, 0, 67, 80
2, 33239, Note_on_c, 0, 67, 0
2, 33240, Note_on_c, 0, 62, 80
2, 33359, Note_on_c, 0, 62, 0
2, 33360, Note_on_c, 0, 59, 80
2, 33479, Note_on_c, 0, 59, 0
2, 33480, Note_on_c, 0, 62, 80
2, 33599, Note_on_c, 0, 62, 0
2, 33600, Note_on_c, 0, 67, 80
2, 33719, Note_on_c, 0, 67, 0
2, 33720, Note_on_c, 0, 62, 80
2, 33839, Note_on_c, 0, 62, 0
2, 33840, Note_on_c, 0, 71, 80
2, 33959, Note_on_c, 0, 71, 0
2, 33960, Note_on_c, 0, 67, 80
2, 34079, Note_on_c, 0, 67, 0
2, 34080, Note_on_c, 0, 74, 80
2, 34199, Note_on_c, 0, 74, 0
2, 34200, Note_on_c, 0, 72, 80
2, 34319, Note_on_c, 0, 72, 0
2, 34320, Note_on_c, 0, 71, 80
2, 34439, Note_on_c, 0, 71, 0
2, 34440, Note_on_c, 0, 69, 80
2, 34559, Note_on_c, 0, 69, 0
2, 34560, Note_on_c, 0, 67, 80
2, 34799, Note_on_c, 0, 67, 0
2, 34920, Note_on_c, 0, 79, 80
2, 34979, Note_on_c, 0, 79, 0
2, 34980, Note_on_c, 0, 78, 80
2, 35039, Note_on_c, 0, 78, 0
2, 35040, Note_on_c, 0, 79, 80
2, 35159, Note_on_c, 0, 79, 0
2, 35400, Note_on_c, 0, 73, 80
2, 35459, Note_on_c, 0, 73, 0
2, 35460, Note_on_c, 0, 71, 80
2, 35519, Note_on_c, 0, 71, 0
2, 35520, Note_on_c, 0, 73, 80
2, 35639, Note_on_c, 0, 73, 0
2, 35880, Note_on_c, 0, 66, 80
2, 35939, Note_on_c, 0, 66, 0
2, 35940, Note_on_c, 0, 64, 80
2, 35999, Note_on_c, 0, 64, 0
2, 36000, Note_on_c, 0, 66, 80
2, 36119, Note_on_c, 0, 66, 0
2, 36360, Note_on_c, 0, 78, 80
2, 36419, Note_on_c, 0, 78, 0
2, 36420, Note_on_c, 0, 76, 80
2, 36479, Note_on_c, 0, 76, 0
2, 36480, Note_on_c, 0, 78, 80
2, 36599, Note_on_c, 0, 78, 0
2, 36840, Note_on_c, 0, 71, 80
2, 36899, Note_on_c, 0, 71, 0
2, 36900, Note_on_c, 0, 69, 80
2, 36959, Note_on_c, 0, 69, 0
2, 36960, Note_on_c, 0, 71, 80
2, 37079, Note_on_c, 0, 71, 0
2, 37320, Note_on_c, 0, 64, 80
2, 37379, Note_on_c, 0, 64, 0
2, 37380, Note_on_c, 0, 62, 80
2, 37439, Note_on_c, 0, 62, 0
2, 37440, Note_on_c, 0, 64, 80
2, 37559, Note_on_c, 0, 64, 0
2, 37800, Note_on_c, 0, 76, 80
2, 37859, Note_on_c, 0, 76, 0
2, 37860, Note_on_c, 0, 74, 80
2, 37919, Note_on_c, 0, 74, 0
2, 37920, Note_on_c, 0, 76, 80
2, 38039, Note_on_c, 0, 76, 0
2, 38280, Note_on_c, 0, 67, 80
2, 38339, Note_on_c, 0, 67, 0
2, 38340, Note_on_c, 0, 66, 80
2, 38399, Note_on_c, 0, 66, 0
2, 38400, Note_on_c, 0, 67, 80
2, 38519, Note_on_c, 0, 67, 0
2, 38760, Note_on_c, 0, 61, 80
2, 38819, Note_on_c, 0, 61, 0
2, 38820, Note_on_c, 0, 59, 80
2, 38879, Note_on_c, 0, 59, 0
2, 38880, Note_on_c, 0, 61, 80
2, 38999, Note_on_c, 0, 61, 0
2, 39240, Note_on_c, 0, 52, 80
2, 39299, Note_on_c, 0, 52, 0
2, 39300, Note_on_c, 0, 50, 80
2, 39359, Note_on_c, 0, 50, 0
2, 39360, Note_on_c, 0, 52, 80
2, 39479, Note_on_c, 0, 52, 0
2, 39720, Note_on_c, 0, 45, 80
2, 39779, Note_on_c, 0, 45, 0
2, 39780, Note_on_c, 0, 43, 80
2, 39839, Note_on_c, 0, 43, 0
2, 39840, Note_on_c, 0, 45, 80
2, 39959, Note_on_c, 0, 45, 0
2, 40200, Note_on_c, 0, 42, 80
2, 40259, Note_on_c, 0, 42, 0
2, 40260, Note_on_c, 0, 40, 80
2, 40319, Note_on_c, 0, 40, 0
2, 40320, Note_on_c, 0, 42, 80
2, 40559, Note_on_c, 0, 42, 0
2, 40800, Note_on_c, 0, 74, 80
2, 41039, Note_on_c, 0, 74, 0
2, 41280, Note_on_c, 0, 72, 80
2, 41519, Note_on_c, 0, 72, 0
2, 41820, Note_on_c, 0, 55, 80
2, 41879, Note_on_c, 0, 55, 0
2, 41880, Note_on_c, 0, 57, 80
2, 41939, Note_on_c, 0, 57, 0
2, 41940, Note_on_c, 0, 59, 80
2, 41999, Note_on_c, 0, 59, 0
2, 42000, Note_on_c, 0, 62, 80
2, 42059, Note_on_c, 0, 62, 0
2, 42060, Note_on_c, 0, 59, 80
2, 42119, Note_on_c, 0, 59, 0
2, 42120, Note_on_c, 0, 57, 80
2, 42179, Note_on_c, 0, 57, 0
2, 42180, Note_on_c, 0, 55, 80
2, 42239, Note_on_c, 0, 55, 0
2, 42300, Note_on_c, 0, 55, 80
2, 42359, Note_on_c, 0, 55, 0
2, 42360, Note_on_c, 0, 57, 80
2, 42419, Note_on_c, 0, 57, 0
2, 42420, Note_on_c, 0, 58, 80
2, 42479, Note_on_c, 0, 58, 0
2, 42480, Note_on_c, 0, 62, 80
2, 42539, Note_on_c, 0, 62, 0
2, 42540, Note_on_c, 0, 58, 80
2, 42599, Note_on_c, 0, 58, 0
2, 42600, Note_on_c, 0, 57, 80
2, 42659, Note_on_c, 0, 57, 0
2, 42660, Note_on_c, 0, 55, 80
2, 42719, Note_on_c, 0, 55, 0
2, 42780, Note_on_c, 0, 56, 80
2, 42839, Note_on_c, 0, 56, 0
2, 42840, Note_on_c, 0, 57, 80
2, 42899, Note_on_c, 0, 57, 0
2, 42900, Note_on_c, 0, 59, 80
2, 42959, Note_on_c, 0, 59, 0
2, 42960, Note_on_c, 0, 62, 80
2, 43019, Note_on_c, 0, 62, 0
2, 43020, Note_on_c, 0, 59, 80
2, 43079, Note_on_c, 0, 59, 0
2, 43080, Note_on_c, 0, 57, 80
2, 43139, Note_on_c, 0, 57, 0
2, 43140, Note_on_c, 0, 56, 80
2, 43199, Note_on_c, 0, 56, 0
2, 43200, Note_on_c, 0, 57, 80
2, 43319, Note_on_c, 0, 57, 0
2, 43320, Note_on_c, 0, 61, 80
2, 43379, Note_on_c, 0, 61, 0
2, 43380, Note_on_c, 0, 59, 80
2, 43439, Note_on_c, 0, 59, 0
2, 43440, Note_on_c, 0, 61, 80
2, 43559, Note_on_c, 0, 61, 0
2, 43560, Note_on_c, 0, 54, 80
2, 43619, Note_on_c, 0, 54, 0
2, 43620, Note_on_c, 0, 52, 80
2, 43679, Note_on_c, 0, 52, 0
2, 43680, Note_on_c, 0, 54, 80
2, 43799, Note_on_c, 0, 54, 0
2, 43800, Note_on_c, 0, 59, 80
2, 43859, Note_on_c, 0, 59, 0
2, 43860, Note_on_c, 0, 57, 80
2, 43919, Note_on_c, 0, 57, 0
2, 43920, Note_on_c, 0, 59, 80
2, 44039, Note_on_c, 0, 59, 0
2, 44040, Note_on_c, 0, 52, 80
2, 44099, Note_on_c, 0, 52, 0
2, 44100, Note_on_c, 0, 50, 80
2, 44159, Note_on_c, 0, 50, 0
2, 44160, Note_on_c, 0, 52, 80
2, 44279, Note_on_c, 0, 52, 0
2, 44280, Note_on_c, 0, 57, 80
2, 44339, Note_on_c, 0, 57, 0
2, 44340, Note_on_c, 0, 55, 80
2, 44399, Note_on_c, 0, 55, 0
2, 44400, Note_on_c, 0, 57, 80
2, 44519, Note_on_c, 0, 57, 0
2, 44520, Note_on_c, 0, 50, 80
2, 44579, Note_on_c, 0, 50, 0
2, 44580, Note_on_c, 0, 49, 80
2, 44639, Note_on_c, 0, 49, 0
2, 44640, Note_on_c, 0, 50, 80
2, 44699, Note_on_c, 0, 50, 0
2, 44700, Note_on_c, 0, 52, 80
2, 44759, Note_on_c, 0, 52, 0
2, 44760, Note_on_c, 0, 54, 80
2, 44819, Note_on_c, 0, 54, 0
2, 44820, Note_on_c, 0, 55, 80
2, 44879, Note_on_c, 0, 55, 0
2, 44880, Note_on_c, 0, 57, 80
2, 44939, Note_on_c, 0, 57, 0
2, 44940, Note_on_c, 0, 55, 80
2, 44999, Note_on_c, 0, 55, 0
2, 45000, Note_on_c, 0, 54, 80
2, 45059, Note_on_c, 0, 54, 0
2, 45060, Note_on_c, 0, 52, 80
2, 45119, Note_on_c, 0, 52, 0
2, 45120, Note_on_c, 0, 50, 80
2, 45239, Note_on_c, 0, 50, 0
2, 45240, Note_on_c, 0, 54, 80
2, 45359, Note_on_c, 0, 54, 0
2, 45360, Note_on_c, 0, 45, 80
2, 45479, Note_on_c, 0, 45, 0
2, 45480, Note_on_c, 0, 50, 80
2, 45599, Note_on_c, 0, 50, 0
2, 45600, Note_on_c, 0, 38, 80
2, 45839, Note_on_c, 0, 38, 0
2, 46080, Note_on_c, 0, 50, 80
2, 46319, Note_on_c, 0, 50, 0
2, 46560, Note_on_c, 0, 86, 80
2, 46619, Note_on_c, 0, 86, 0
2, 46620, Note_on_c, 0, 84, 80
2, 46679, Note_on_c, 0, 84, 0
2, 46680, Note_on_c, 0, 86, 80
2, 46739, Note_on_c, 0, 86, 0
2, 46740, Note_on_c, 0, 84, 80
2, 46799, Note_on_c, 0, 84, 0
2, 46800, Note_on_c, 0, 86, 80
2, 46859, Note_on_c, 0, 86, 0
2, 46860, Note_on_c, 0, 84, 80
2, 46919, Note_on_c, 0, 84, 0
2, 46920, Note_on_c, 0, 86, 80
2, 46979, Note_on_c, 0, 86, 0
2, 46980, Note_on_c, 0, 84, 80
2, 47039, Note_on_c, 0, 84, 0
2, 47040, Note_on_c, 0, 86, 80
2, 47099, Note_on_c, 0, 86, 0
2, 47100, Note_on_c, 0, 84, 80
2, 47159, Note_on_c, 0, 84, 0
2, 47160, Note_on_c, 0, 86, 80
2, 47219, Note_on_c, 0, 86, 0
2, 47220, Note_on_c, 0, 84, 80
2, 47279, Note_on_c, 0, 84, 0
2, 47280, Note_on_c, 0, 86, 80
2, 47339, Note_on_c, 0, 86, 0
2, 47340, Note_on_c, 0, 84, 80
2, 47399, Note_on_c, 0, 84, 0
2, 47400, Note_on_c, 0, 83, 80
2, 47459, Note_on_c, 0, 83, 0
2, 47460, Note_on_c, 0, 84, 80
2, 47519, Note_on_c, 0, 84, 0
2, 47520, Note_on_c, 0, 83, 80
2, 47759, Note_on_c, 0, 83, 0
2, 48000, Note_on_c, 0, 65, 80
2, 48059, Note_on_c, 0, 65, 0
2, 48060, Note_on_c, 0, 64, 80
2, 48119, Note_on_c, 0, 64, 0
2, 48120, Note_on_c, 0, 65, 80
2, 48599, Note_on_c, 0, 65, 0
2, 48600, Note_on_c, 0, 69, 80
2, 48719, Note_on_c, 0, 69, 0
2, 48720, Note_on_c, 0, 67, 80
2, 48839, Note_on_c, 0, 67, 0
2, 48840, Note_on_c, 0, 65, 80
2, 48959, Note_on_c, 0, 65, 0
2, 48960, Note_on_c, 0, 64, 80
2, 49199, Note_on_c, 0, 64, 0
2, 49440, Note_on_c, 0, 78, 80
2, 49679, Note_on_c, 0, 78, 0
2, 49680, Note_on_c, 0, 81, 80
2, 49919, Note_on_c, 0, 81, 0
2, 49920, Note_on_c, 0, 75, 80
2, 50159, Note_on_c, 0, 75, 0
2, 50160, Note_on_c, 0, 76, 80
2, 50279, Note_on_c, 0, 76, 0
2, 50280, Note_on_c, 0, 78, 80
2, 50399, Note_on_c, 0, 78, 0
2, 50400, Note_on_c, 0, 71, 80
2, 50639, Note_on_c, 0, 71, 0
2, 50880, Note_on_c, 0, 45, 80
2, 51719, Note_on_c, 0, 45, 0
2, 51720, Note_on_c, 0, 43, 80
2, 51779, Note_on_c, 0, 43, 0
2, 51780, Note_on_c, 0, 45, 80
2, 51839, Note_on_c, 0, 45, 0
2, 51840, Note_on_c, 0, 43, 80
2, 52079, Note_on_c, 0, 43, 0
2, 52080, Note_on_c, 0, 40, 80
2, 52319, Note_on_c, 0, 40, 0
2, 52320, Note_on_c, 0, 43, 80
2, 52559, Note_on_c, 0, 43, 0
2, 52560, Note_on_c, 0, 47, 80
2, 52799, Note_on_c, 0, 47, 0
2, 52800, Note_on_c, 0, 43, 80
2, 53039, Note_on_c, 0, 43, 0
2, 53040, Note_on_c, 0, 40, 80
2, 53279, Note_on_c, 0, 40, 0
2, 53280, Note_on_c, 0, 45, 80
2, 53519, Note_on_c, 0, 45, 0
2, 53520, Note_on_c, 0, 33, 80
2, 53759, Note_on_c, 0, 33, 0
2, 53760, Note_on_c, 0, 45, 80
2, 53999, Note_on_c, 0, 45, 0
2, 54000, Note_on_c, 0, 48, 80
2, 54239, Note_on_c, 0, 48, 0
2, 54240, Note_on_c, 0, 47, 80
2, 54479, Note_on_c, 0, 47, 0
2, 54480, Note_on_c, 0, 45, 80
2, 54719, Note_on_c, 0, 45, 0
2, 54720, Note_on_c, 0, 47, 80
2, 54959, Note_on_c, 0, 47, 0
2, 54960, Note_on_c, 0, 51, 80
2, 55199, Note_on_c, 0, 51, 0
2, 55200, Note_on_c, 0, 54, 80
2, 55439, Note_on_c, 0, 54, 0
2, 55440, Note_on_c, 0, 59, 80
2, 55679, Note_on_c, 0, 59, 0
2, 55680, Note_on_c, 0, 47, 80
2, 55919, Note_on_c, 0, 47, 0
2, 55920, Note_on_c, 0, 64, 80
2, 56039, Note_on_c, 0, 64, 0
2, 56040, Note_on_c, 0, 63, 80
2, 56159, Note_on_c, 0, 63, 0
2, 56160, Note_on_c, 0, 64, 80
2, 56399, Note_on_c, 0, 64, 0
2, 56400, Note_on_c, 0, 67, 80
2, 56639, Note_on_c, 0, 67, 0
2, 56640, Note_on_c, 0, 71, 80
2, 56879, Note_on_c, 0, 71, 0
2, 56880, Note_on_c, 0, 76, 80
2, 56999, Note_on_c, 0, 76, 0
2, 57000, Note_on_c, 0, 75, 80
2, 57119, Note_on_c, 0, 75, 0
2, 57120, Note_on_c, 0, 76, 80
2, 57359, Note_on_c, 0, 76, 0
2, 57720, Note_on_c, 0, 48, 80
2, 57779, Note_on_c, 0, 48, 0
2, 57780, Note_on_c, 0, 47, 80
2, 57839, Note_on_c, 0, 47, 0
2, 57840, Note_on_c, 0, 48, 80
2, 57959, Note_on_c, 0, 48, 0
2, 58200, Note_on_c, 0, 57, 80
2, 58259, Note_on_c, 0, 57, 0
2, 58260, Note_on_c, 0, 56, 80
2, 58319, Note_on_c, 0, 56, 0
2, 58320, Note_on_c, 0, 57, 80
2, 58439, Note_on_c, 0, 57, 0
2, 58680, Note_on_c, 0, 64, 80
2, 58739, Note_on_c, 0, 64, 0
2, 58740, Note_on_c, 0, 62, 80
2, 58799, Note_on_c, 0, 62, 0
2, 58800, Note_on_c, 0, 64, 80
2, 58919, Note_on_c, 0, 64, 0
2, 59160, Note_on_c, 0, 47, 80
2, 59219, Note_on_c, 0, 47, 0
2, 59220, Note_on_c, 0, 45, 80
2, 59279, Note_on_c, 0, 45, 0
2, 59280, Note_on_c, 0, 47, 80
2, 59399, Note_on_c, 0, 47, 0
2, 59640, Note_on_c, 0, 55, 80
2, 59699, Note_on_c, 0, 55, 0
2, 59700, Note_on_c, 0, 54, 80
2, 59759, Note_on_c, 0, 54, 0
2, 59760, Note_on_c, 0, 55, 80
2, 59879, Note_on_c, 0, 55, 0
2, 60120, Note_on_c, 0, 62, 80
2, 60179, Note_on_c, 0, 62, 0
2, 60180, Note_on_c, 0, 60, 80
2, 60239, Note_on_c, 0, 60, 0
2, 60240, Note_on_c, 0, 62, 80
2, 60359, Note_on_c, 0, 62, 0
2, 60600, Note_on_c, 0, 45, 80
2, 60659, Note_on_c, 0, 45, 0
2, 60660, Note_on_c, 0, 43, 80
2, 60719, Note_on_c, 0, 43, 0
2, 60720, Note_on_c, 0, 45, 80
2, 60839, Note_on_c, 0, 45, 0
2, 61080, Note_on_c, 0, 52, 80
2, 61139, Note_on_c, 0, 52, 0
2, 61140, Note_on_c, 0, 50, 80
2, 61199, Note_on_c, 0, 50, 0
2, 61200, Note_on_c, 0, 52, 80
2, 61319, Note_on_c, 0, 52, 0
2, 61560, Note_on_c, 0, 60, 80
2, 61619, Note_on_c, 0, 60, 0
2, 61620, Note_on_c, 0, 59, 80
2, 61679, Note_on_c, 0, 59, 0
2, 61680, Note_on_c, 0, 60, 80
2, 61799, Note_on_c, 0, 60, 0
2, 62040, Note_on_c, 0, 69, 80
2, 62099, Note_on_c, 0, 69, 0
2, 62100, Note_on_c, 0, 67, 80
2, 62159, Note_on_c, 0, 67, 0
2, 62160, Note_on_c, 0, 69, 80
2, 62279, Note_on_c, 0, 69, 0
2, 62520, Note_on_c, 0, 78, 80
2, 62579, Note_on_c, 0, 78, 0
2, 62580, Note_on_c, 0, 76, 80
2, 62639, Note_on_c, 0, 76, 0
2, 62640, Note_on_c, 0, 78, 80
2, 62759, Note_on_c, 0, 78, 0
2, 63000, Note_on_c, 0, 81, 80
2, 63059, Note_on_c, 0, 81, 0
2, 63060, Note_on_c, 0, 79, 80
2, 63119, Note_on_c, 0, 79, 0
2, 63120, Note_on_c, 0, 81, 80
2, 63239, Note_on_c, 0, 81, 0
2, 63420, Note_on_c, 0, 67, 80
2, 63479, Note_on_c, 0, 67, 0
2, 63480, Note_on_c, 0, 69, 80
2, 63539, Note_on_c, 0, 69, 0
2, 63540, Note_on_c, 0, 71, 80
2, 63599, Note_on_c, 0, 71, 0
2, 63600, Note_on_c, 0, 74, 80
2, 63659, Note_on_c, 0, 74, 0
2, 63660, Note_on_c, 0, 71, 80
2, 63719, Note_on_c, 0, 71, 0
2, 63720, Note_on_c, 0, 69, 80
2, 63779, Note_on_c, 0, 69, 0
2, 63780, Note_on_c, 0, 67, 80
2, 63839, Note_on_c, 0, 67, 0
2, 63900, Note_on_c, 0, 67, 80
2, 63959, Note_on_c, 0, 67, 0
2, 63960, Note_on_c, 0, 69, 80
2, 64019, Note_on_c, 0, 69, 0
2, 64020, Note_on_c, 0, 71, 80
2, 64079, Note_on_c, 0, 71, 0
2, 64080, Note_on_c, 0, 74, 80
2, 64139, Note_on_c, 0, 74, 0
2, 64140, Note_on_c, 0, 71, 80
2, 64199, Note_on_c, 0, 71, 0
2, 64200, Note_on_c, 0, 69, 80
2, 64259, Note_on_c, 0, 69, 0
2, 64260, Note_on_c, 0, 67, 80
2, 64319, Note_on_c, 0, 67, 0
2, 64380, Note_on_c, 0, 67, 80
2, 64439, Note_on_c, 0, 67, 0
2, 64440, Note_on_c, 0, 69, 80
2, 64499, Note_on_c, 0, 69, 0
2, 64500, Note_on_c, 0, 71, 80
2, 64559, Note_on_c, 0, 71, 0
2, 64560, Note_on_c, 0, 74, 80
2, 64619, Note_on_c, 0, 74, 0
2, 64620, Note_on_c, 0, 71, 80
2, 64679, Note_on_c, 0, 71, 0
2, 64680, Note_on_c, 0, 69, 80
2, 64739, Note_on_c, 0, 69, 0
2, 64740, Note_on_c, 0, 67, 80
2, 64799, Note_on_c, 0, 67, 0
2, 64800, Note_on_c, 0, 72, 80
2, 65039, Note_on_c, 0, 72, 0
2, 65280, Note_on_c, 0, 57, 80
2, 65519, Note_on_c, 0, 57, 0
2, 65760, Note_on_c, 0, 52, 80
2, 65999, Note_on_c, 0, 52, 0
2, 66240, Note_on_c, 0, 54, 80
2, 66359, Note_on_c, 0, 54, 0
2, 66360, Note_on_c, 0, 57, 80
2, 66419, Note_on_c, 0, 57, 0
2, 66420, Note_on_c, 0, 55, 80
2, 66479, Note_on_c, 0, 55, 0
2, 66480, Note_on_c, 0, 57, 80
2, 66599, Note_on_c, 0, 57, 0
2, 66600, Note_on_c, 0, 62, 80
2, 66659, Note_on_c, 0, 62, 0
2, 66660, Note_on_c, 0, 60, 80
2, 66719, Note_on_c, 0, 60, 0
2, 66720, Note_on_c, 0, 62, 80
2, 66839, Note_on_c, 0, 62, 0
2, 66840, Note_on_c, 0, 55, 80
2, 66899, Note_on_c, 0, 55, 0
2, 66900, Note_on_c, 0, 54, 80
2, 66959, Note_on_c, 0, 54, 0
2, 66960, Note_on_c, 0, 55, 80
2, 67079, Note_on_c, 0, 55, 0
2, 67080, Note_on_c, 0, 60, 80
2, 67139, Note_on_c, 0, 60, 0
2, 67140, Note_on_c, 0, 59, 80
2, 67199, Note_on_c, 0, 59, 0
2, 67200, Note_on_c, 0, 60, 80
2, 67319, Note_on_c, 0, 60, 0
2, 67320, Note_on_c, 0, 54, 80
2, 67379, Note_on_c, 0, 54, 0
2, 67380, Note_on_c, 0, 52, 80
2, 67439, Note_on_c, 0, 52, 0
2, 67440, Note_on_c, 0, 54, 80
2, 67559, Note_on_c, 0, 54, 0
2, 67560, Note_on_c, 0, 59, 80
2, 67619, Note_on_c, 0, 59, 0
2, 67620, Note_on_c, 0, 57, 80
2, 67679, Note_on_c, 0, 57, 0
2, 67680, Note_on_c, 0, 59, 80
2, 67799, Note_on_c, 0, 59, 0
2, 67800, Note_on_c, 0, 55, 80
2, 67919, Note_on_c, 0, 55, 0
2, 67920, Note_on_c, 0, 54, 80
2, 68039, Note_on_c, 0, 54, 0
2, 68040, Note_on_c, 0, 55, 80
2, 68159, Note_on_c, 0, 55, 0
2, 68160, Note_on_c, 0, 59, 80
2, 68219, Note_on_c, 0, 59, 0
2, 68220, Note_on_c, 0, 57, 80
2, 68279, Note_on_c, 0, 57, 0
2, 68280, Note_on_c, 0, 55, 80
2, 68399, Note_on_c, 0, 55, 0
2, 68400, Note_on_c, 0, 62, 80
2, 68459, Note_on_c, 0, 62, 0
2, 68460, Note_on_c, 0, 60, 80
2, 68519, Note_on_c, 0, 60, 0
2, 68520, Note_on_c, 0, 59, 80
2, 68639, Note_on_c, 0, 59, 0
2, 68640, Note_on_c, 0, 67, 80
2, 68879, Note_on_c, 0, 67, 0
2, 69120, Note_on_c, 0, 50, 80
2, 69359, Note_on_c, 0, 50, 0
2, 69600, Note_on_c, 0, 86, 80
2, 69659, Note_on_c, 0, 86, 0
2, 69660, Note_on_c, 0, 84, 80
2, 69719, Note_on_c, 0, 84, 0
2, 69720, Note_on_c, 0, 86, 80
2, 69779, Note_on_c, 0, 86, 0
2, 69780, Note_on_c, 0, 84, 80
2, 69839, Note_on_c, 0, 84, 0
2, 69840, Note_on_c, 0, 86, 80
2, 69899, Note_on_c, 0, 86, 0
2, 69900, Note_on_c, 0, 84, 80
2, 69959, Note_on_c, 0, 84, 0
2, 69960, Note_on_c, 0, 86, 80
2, 70019, Note_on_c, 0, 86, 0
2, 70020, Note_on_c, 0, 84, 80
2, 70079, Note_on_c, 0, 84, 0
2, 70080, Note_on_c, 0, 86, 80
2, 70139, Note_on_c, 0, 86, 0
2, 70140, Note_on_c, 0, 84, 80
2, 70199, Note_on_c, 0, 84, 0
2, 70200, Note_on_c, 0, 86, 80
2, 70259, Note_on_c, 0, 86, 0
2, 70260, Note_on_c, 0, 84, 80
2, 70319, Note_on_c, 0, 84, 0
2, 70320, Note_on_c, 0, 86, 80
2, 70379, Note_on_c, 0, 86, 0
2, 70380, Note_on_c, 0, 84, 80
2, 70439, Note_on_c, 0, 84, 0
2, 70440, Note_on_c, 0, 83, 80
2, 70499, Note_on_c, 0, 83, 0
2, 70500, Note_on_c, 0, 84, 80
2, 70559, Note_on_c, 0, 84, 0
2, 70560, Note_on_c, 0, 83, 80
2, 70799, Note_on_c, 0, 83, 0
2, 71040, Note_on_c, 0, 65, 80
2, 71099, Note_on_c, 0, 65, 0
2, 71100, Note_on_c, 0, 64, 80
2, 71159, Note_on_c, 0, 64, 0
2, 71160, Note_on_c, 0, 65, 80
2, 71639, Note_on_c, 0, 65, 0
2, 71640, Note_on_c, 0, 69, 80
2, 71759, Note_on_c, 0, 69, 0
2, 71760, Note_on_c, 0, 67, 80
2, 71879, Note_on_c, 0, 67, 0
2, 71880, Note_on_c, 0, 65, 80
2, 71999, Note_on_c, 0, 65, 0
2, 72000, Note_on_c, 0, 64, 80
2, 72239, Note_on_c, 0, 64, 0
2, 72480, Note_on_c, 0, 78, 80
2, 72719, Note_on_c, 0, 78, 0
2, 72720, Note_on_c, 0, 81, 80
2, 72959, Note_on_c, 0, 81, 0
2, 72960, Note_on_c, 0, 75, 80
2, 73199, Note_on_c, 0, 75, 0
2, 73200, Note_on_c, 0, 76, 80
2, 73319, Note_on_c, 0, 76, 0
2, 73320, Note_on_c, 0, 78, 80
2, 73439, Note_on_c, 0, 78, 0
2, 73440, Note_on_c, 0, 71, 80
2, 73679, Note_on_c, 0, 71, 0
2, 73920, Note_on_c, 0, 45, 80
2, 74759, Note_on_c, 0, 45, 0
2, 74760, Note_on_c, 0, 43, 80
2, 74819, Note_on_c, 0, 43, 0
2, 74820, Note_on_c, 0, 45, 80
2, 74879, Note_on_c, 0, 45, 0
2, 74880, Note_on_c, 0, 43, 80
2, 75119, Note_on_c, 0, 43, 0
2, 75120, Note_on_c, 0, 40, 80
2, 75359, Note_on_c, 0, 40, 0
2, 75360, Note_on_c, 0, 43, 80
2, 75599, Note_on_c, 0, 43, 0
2, 75600, Note_on_c, 0, 47, 80
2, 75839, Note_on_c, 0, 47, 0
2, 75840, Note_on_c, 0, 43, 80
2, 76079, Note_on_c, 0, 43, 0
2, 76080, Note_on_c, 0, 40, 80
2, 76319, Note_on_c, 0, 40, 0
2, 76320, Note_on_c, 0, 45, 80
2, 76559, Note_on_c, 0, 45, 0
2, 76560, Note_on_c, 0, 33, 80
2, 76799, Note_on_c, 0, 33, 0
2, 76800, Note_on_c, 0, 45, 80
2, 77039, Note_on_c, 0, 45, 0
2, 77040, Note_on_c, 0, 48, 80
2, 77279, Note_on_c, 0, 48, 0
2, 77280, Note_on_c, 0, 47, 80
2, 77519, Note_on_c, 0, 47, 0
2, 77520, Note_on_c, 0, 45, 80
2, 77759, Note_on_c, 0, 45, 0
2, 77760, Note_on_c, 0, 47, 80
2, 77999, Note_on_c, 0, 47, 0
2, 78000, Note_on_c, 0, 51, 80
2, 78239, Note_on_c, 0, 51, 0
2, 78240, Note_on_c, 0, 54, 80
2, 78479, Note_on_c, 0, 54, 0
2, 78480, Note_on_c, 0, 59, 80
2, 78719, Note_on_c, 0, 59, 0
2, 78720, Note_on_c, 0, 47, 80
2, 78959, Note_on_c, 0, 47, 0
2, 78960, Note_on_c, 0, 64, 80
2, 79079, Note_on_c, 0, 64, 0
2, 79080, Note_on_c, 0, 63, 80
2, 79199, Note_on_c, 0, 63, 0
2, 79200, Note_on_c, 0, 64, 80
2, 79439, Note_on_c, 0, 64, 0
2, 79440, Note_on_c, 0, 67, 80
2, 79679, Note_on_c, 0, 67, 0
2, 79680, Note_on_c, 0, 71, 80
2, 79919, Note_on_c, 0, 71, 0
2, 79920, Note_on_c, 0, 76, 80
2, 80039, Note_on_c, 0, 76, 0
2, 80040, Note_on_c, 0, 75, 80
2, 80159, Note_on_c, 0, 75, 0
2, 80160, Note_on_c, 0, 76, 80
2, 80399, Note_on_c, 0, 76, 0
2, 80760, Note_on_c, 0, 48, 80
2, 80819, Note_on_c, 0, 48, 0
2, 80820, Note_on_c, 0, 47, 80
2, 80879, Note_on_c, 0, 47, 0
2, 80880, Note_on_c, 0, 48, 80
2, 80999, Note_on_c, 0, 48, 0
2, 81240, Note_on_c, 0, 57, 80
2, 81299, Note_on_c, 0, 57, 0
2, 81300, Note_on_c, 0, 56, 80
2, 81359, Note_on_c, 0, 56, 0
2, 81360, Note_on_c, 0, 57, 80
2, 81479, Note_on_c, 0, 57, 0
2, 81720, Note_on_c, 0, 64, 80
2, 81779, Note_on_c, 0, 64, 0
2, 81780, Note_on_c, 0, 62, 80
2, 81839, Note_on_c, 0, 62, 0
2, 81840, Note_on_c, 0, 64, 80
2, 81959, Note_on_c, 0, 64, 0
2, 82200, Note_on_c, 0, 47, 80
2, 82259, Note_on_c, 0, 47, 0
2, 82260, Note_on_c, 0, 45, 80
2, 82319, Note_on_c, 0, 45, 0
2, 82320, Note_on_c, 0, 47, 80
2, 82439, Note_on_c, 0, 47, 0
2, 82680, Note_on_c, 0, 55, 80
2, 82739, Note_on_c, 0, 55, 0
2, 82740, Note_on_c, 0, 54, 80
2, 82799, Note_on_c, 0, 54, 0
2, 82800, Note_on_c, 0, 55, 80
2, 82919, Note_on_c, 0, 55, 0
2, 83160, Note_on_c, 0, 62, 80
2, 83219, Note_on_c, 0, 62, 0
2, 83220, Note_on_c, 0, 60, 80
2, 83279, Note_on_c, 0, 60, 0
2, 83280, Note_on_c, 0, 62, 80
2, 83399, Note_on_c, 0, 62, 0
2, 83640, Note_on_c, 0, 45, 80
2, 83699, Note_on_c, 0, 45, 0
2, 83700, Note_on_c, 0, 43, 80
2, 83759, Note_on_c, 0, 43, 0
2, 83760, Note_on_c, 0, 45, 80
2, 83879, Note_on_c, 0, 45, 0
2, 84120, Note_on_c, 0, 52, 80
2, 84179, Note_on_c, 0, 52, 0
2, 84180, Note_on_c, 0, 50, 80
2, 84239, Note_on_c, 0, 50, 0
2, 84240, Note_on_c, 0, 52, 80
2, 84359, Note_on_c, 0, 52, 0
2, 84600, Note_on_c, 0, 60, 80
2, 84659, Note_on_c, 0, 60, 0
2, 84660, Note_on_c, 0, 59, 80
2, 84719, Note_on_c, 0, 59, 0
2, 84720, Note_on_c, 0, 60, 80
2, 84839, Note_on_c, 0, 60, 0
2, 85080, Note_on_c, 0, 69, 80
2, 85139, Note_on_c, 0, 69, 0
2, 85140, Note_on_c, 0, 67, 80
2, 85199, Note_on_c, 0, 67, 0
2, 85200, Note_on_c, 0, 69, 80
2, 85319, Note_on_c, 0, 69, 0
2, 85560, Note_on_c, 0, 78, 80
2, 85619, Note_on_c, 0, 78, 0
2, 85620, Note_on_c, 0, 76, 80
2, 85679, Note_on_c, 0, 76, 0
2, 85680, Note_on_c, 0, 78, 80
2, 85799, Note_on_c, 0, 78, 0
2, 86040, Note_on_c, 0, 81, 80
2, 86099, Note_on_c, 0, 81, 0
2, 86100, Note_on_c, 0, 79, 80
2, 86159, Note_on_c, 0, 79, 0
2, 86160, Note_on_c, 0, 81, 80
2, 86279, Note_on_c, 0, 81, 0
2, 86460, Note_on_c, 0, 67, 80
2, 86519, Note_on_c, 0, 67, 0
2, 86520, Note_on_c, 0, 69, 80
2, 86579, Note_on_c, 0, 69, 0
2, 86580, Note_on_c, 0, 71, 80
2, 86639, Note_on_c, 0, 71, 0
2, 86640, Note_on_c, 0, 74, 80
2, 86699, Note_on_c, 0, 74, 0
2, 86700, Note_on_c, 0, 71, 80
2, 86759, Note_on_c, 0, 71, 0
2, 86760, Note_on_c, 0, 69, 80
2, 86819, Note_on_c, 0, 69, 0
2, 86820, Note_on_c, 0, 67, 80
2, 86879, Note_on_c, 0, 67, 0
2, 86940, Note_on_c, 0, 67, 80
2, 86999, Note_on_c, 0, 67, 0
2, 87000, Note_on_c, 0, 69, 80
2, 87059, Note_on_c, 0, 69, 0
2, 87060, Note_on_c, 0, 71, 80
2, 87119, Note_on_c, 0, 71, 0
2, 87120, Note_on_c, 0, 74, 80
2, 87179, Note_on_c, 0, 74, 0
2, 87180, Note_on_c, 0, 71, 80
2, 87239, Note_on_c, 0, 71, 0
2, 87240, Note_on_c, 0, 69, 80
2, 87299, Note_on_c, 0, 69, 0
2, 87300, Note_on_c, 0, 67, 80
2, 87359, Note_on_c, 0, 67, 0
2, 87420, Note_on_c, 0, 67, 80
2, 87479, Note_on_c, 0, 67, 0
2, 87480, Note_on_c, 0, 69, 80
2, 87539, Note_on_c, 0, 69, 0
2, 87540, Note_on_c, 0, 71, 80
2, 87599, Note_on_c, 0, 71, 0
2, 87600, Note_on_c, 0, 74, 80
2, 87659, Note_on_c, 0, 74, 0
2, 87660, Note_on_c, 0, 71, 80
2, 87719, Note_on_c, 0, 71, 0
2, 87720, Note_on_c, 0, 69, 80
2, 87779, Note_on_c, 0, 69, 0
2, 87780, Note_on_c, 0, 67, 80
2, 87839, Note_on_c, 0, 67, 0
2, 87840, Note_on_c, 0, 72, 80
2, 88079, Note_on_c, 0, 72, 0
2, 88320, Note_on_c, 0, 57, 80
2, 88559, Note_on_c, 0, 57, 0
2, 88800, Note_on_c, 0, 52, 80
2, 89039, Note_on_c, 0, 52, 0
2, 89280, Note_on_c, 0, 54, 80
2, 89399, Note_on_c, 0, 54, 0
2, 89400, Note_on_c, 0, 57, 80
2, 89459, Note_on_c, 0, 57, 0
2, 89460, Note_on_c, 0, 55, 80
2, 89519, Note_on_c, 0, 55, 0
2, 89520, Note_on_c, 0, 57, 80
2, 89639, Note_on_c, 0, 57, 0
2, 89640, Note_on_c, 0, 62, 80
2, 89699, Note_on_c, 0, 62, 0
2, 89700, Note_on_c, 0, 60, 80
2, 89759, Note_on_c, 0, 60, 0
2, 89760, Note_on_c, 0, 62, 80
2, 89879, Note_on_c, 0, 62, 0
2, 89880, Note_on_c, 0, 55, 80
2, 89939, Note_on_c, 0, 55, 0
2, 89940, Note_on_c, 0, 54, 80
2, 89999, Note_on_c, 0, 54, 0
2, 90000, Note_on_c, 0, 55, 80
2, 90119, Note_on_c, 0, 55, 0
2, 90120, Note_on_c, 0, 60, 80
2, 90179, Note_on_c, 0, 60, 0
2, 90180, Note_on_c, 0, 59, 80
2, 90239, Note_on_c, 0, 59, 0
2, 90240, Note_on_c, 0, 60, 80
2, 90359, Note_on_c, 0, 60, 0
2, 90360, Note_on_c, 0, 54, 80
2, 90419, Note_on_c, 0, 54, 0
2, 90420, Note_on_c, 0, 52, 80
2, 90479, Note_on_c, 0, 52, 0
2, 90480, Note_on_c, 0, 54, 80
2, 90599, Note_on_c, 0, 54, 0
2, 90600, Note_on_c, 0, 59, 80
2, 90659, Note_on_c, 0, 59, 0
2, 90660, Note_on_c, 0, 57, 80
2, 90719, Note_on_c, 0, 57, 0
2, 90720, Note_on_c, 0, 59, 80
2, 90839, Note_on_c, 0, 59, 0
2, 90840, Note_on_c, 0, 55, 80
2, 90959, Note_on_c, 0, 55, 0
2, 90960, Note_on_c, 0, 54, 80
2, 91079, Note_on_c, 0, 54, 0
2, 91080, Note_on_c, 0, 55, 80
2, 91199, Note_on_c, 0, 55, 0
2, 91200, Note_on_c, 0, 59, 80
2, 91259, Note_on_c, 0, 59, 0
2, 91260, Note_on_c, 0, 57, 80
2, 91319, Note_on_c, 0, 57, 0
2, 91320, Note_on_c, 0, 55, 80
2, 91439, Note_on_c, 0, 55, 0
2, 91440, Note_on_c, 0, 62, 80
2, 91499, Note_on_c, 0, 62, 0
2, 91500, Note_on_c, 0, 60, 80
2, 91559, Note_on_c, 0, 60, 0
2, 91560, Note_on_c, 0, 59, 80
2, 91679, Note_on_c, 0, 59, 0
2, 91680, Note_on_c, 0, 67, 80
2, 91919, Note_on_c, 0, 67, 0
2, 91920, End_track
0, 0, End_of_file
