0, 0, Header, 1, 2, 480
1, 0, Start_track
1, 0, Unknown_meta_event, 8, 34, 71, 111, 108, 100, 98, 101, 114, 103, 32, 86, 97, 114, 105, 97, 116, 105, 111, 110, 115, 58, 32, 86, 97, 114, 105, 97, 116, 105, 111, 110, 32, 88, 86, 0
1, 0, Unknown_meta_event, 9, 8, 66, 87, 86, 32, 57, 56, 56, 0
1, 0, Unknown_meta_event, 10, 11, 74, 46, 32, 83, 46, 32, 66, 97, 99, 104, 0
1, 0, Time_signature, 2, 2, 24, 8
1, 0, Key_signature, -2, "major"
1, 0, Program_c, 0, 46
1, 2, Control_c, 0, 7, 100
1, 4, Control_c, 0, 10, 64
1, 6, Control_c, 0, 91, 30
1, 8, Control_c, 0, 93, 30
1, 120, Tempo, 625000
1, 120, Note_on_c, 0, 67, 80
1, 239, Note_on_c, 0, 67, 0
1, 240, Note_on_c, 0, 67, 80
1, 359, Note_on_c, 0, 67, 0
1, 360, Note_on_c, 0, 65, 80
1, 479, Note_on_c, 0, 65, 0
1, 480, Note_on_c, 0, 65, 80
1, 599, Note_on_c, 0, 65, 0
1, 600, Note_on_c, 0, 63, 80
1, 719, Note_on_c, 0, 63, 0
1, 720, Note_on_c, 0, 63, 80
1, 839, Note_on_c, 0, 63, 0
1, 840, Note_on_c, 0, 62, 80
1, 959, Note_on_c, 0, 62, 0
1, 960, Note_on_c, 0, 62, 80
1, 1080, Note_on_c, 0, 74, 80
1, 1199, Note_on_c, 0, 74, 0
1, 1200, Note_on_c, 0, 74, 80
1, 1319, Note_on_c, 0, 74, 0
1, 1320, Note_on_c, 0, 76, 80
1, 1439, Note_on_c, 0, 62, 0
1, 1439, Note_on_c, 0, 76, 0
1, 1440, Note_on_c, 0, 76, 80
1, 1559, Note_on_c, 0, 76, 0
1, 1560, Note_on_c, 0, 60, 80
1, 1560, Note_on_c, 0, 78, 80
1, 1679, Note_on_c, 0, 60, 0
1, 1679, Note_on_c, 0, 78, 0
1, 1680, Note_on_c, 0, 58, 80
1, 1680, Note_on_c, 0, 78, 80
1, 1799, Note_on_c, 0, 58, 0
1, 1799, Note_on_c, 0, 78, 0
1, 1800, Note_on_c, 0, 57, 80
1, 1800, Note_on_c, 0, 79, 80
1, 1919, Note_on_c, 0, 57, 0
1, 1919, Note_on_c, 0, 79, 0
1, 1920, Note_on_c, 0, 55, 80
1, 1920, Note_on_c, 0, 79, 80
1, 2039, Note_on_c, 0, 55, 0
1, 2040, Note_on_c, 0, 61, 80
1, 2159, Note_on_c, 0, 61, 0
1, 2160, Note_on_c, 0, 61, 80
1, 2219, Note_on_c, 0, 61, 0
1, 2220, Note_on_c, 0, 62, 80
1, 2279, Note_on_c, 0, 62, 0
1, 2280, Note_on_c, 0, 61, 80
1, 2399, Note_on_c, 0, 61, 0
1, 2399, Note_on_c, 0, 79, 0
1, 2400, Note_on_c, 0, 67, 80
1, 2520, Note_on_c, 0, 81, 80
1, 2639, Note_on_c, 0, 81, 0
1, 2640, Note_on_c, 0, 82, 80
1, 2759, Note_on_c, 0, 82, 0
1, 2760, Note_on_c, 0, 84, 80
1, 2879, Note_on_c, 0, 67, 0
1, 2879, Note_on_c, 0, 84, 0
1, 2880, Note_on_c, 0, 86, 80
1, 2999, Note_on_c, 0, 86, 0
1, 3000, Note_on_c, 0, 81, 80
1, 3119, Note_on_c, 0, 81, 0
1, 3120, Note_on_c, 0, 66, 80
1, 3120, Note_on_c, 0, 81, 80
1, 3179, Note_on_c, 0, 81, 0
1, 3180, Note_on_c, 0, 80, 80
1, 3239, Note_on_c, 0, 66, 0
1, 3239, Note_on_c, 0, 80, 0
1, 3240, Note_on_c, 0, 64, 80
1, 3240, Note_on_c, 0, 81, 80
1, 3359, Note_on_c, 0, 64, 0
1, 3359, Note_on_c, 0, 81, 0
1, 3360, Note_on_c, 0, 66, 80
1, 3360, Note_on_c, 0, 74, 80
1, 3479, Note_on_c, 0, 66, 0
1, 3480, Note_on_c, 0, 69, 80
1, 3599, Note_on_c, 0, 69, 0
1, 3600, Note_on_c, 0, 67, 80
1, 3719, Note_on_c, 0, 67, 0
1, 3720, Note_on_c, 0, 69, 80
1, 3839, Note_on_c, 0, 69, 0
1, 3839, Note_on_c, 0, 74, 0
1, 3840, Note_on_c, 0, 70, 80
1, 4079, Note_on_c, 0, 70, 0
1, 4080, Note_on_c, 0, 75, 80
1, 4199, Note_on_c, 0, 75, 0
1, 4200, Note_on_c, 0, 77, 80
1, 4319, Note_on_c, 0, 77, 0
1, 4320, Note_on_c, 0, 75, 80
1, 4439, Note_on_c, 0, 75, 0
1, 4440, Note_on_c, 0, 74, 80
1, 4559, Note_on_c, 0, 74, 0
1, 4560, Note_on_c, 0, 69, 80
1, 4560, Note_on_c, 0, 74, 80
1, 4679, Note_on_c, 0, 74, 0
1, 4680, Note_on_c, 0, 72, 80
1, 4799, Note_on_c, 0, 69, 0
1, 4799, Note_on_c, 0, 72, 0
1, 4800, Note_on_c, 0, 62, 80
1, 4800, Note_on_c, 0, 70, 80
1, 4859, Note_on_c, 0, 62, 0
1, 4860, Note_on_c, 0, 60, 80
1, 4919, Note_on_c, 0, 60, 0
1, 4920, Note_on_c, 0, 63, 80
1, 5039, Note_on_c, 0, 63, 0
1, 5039, Note_on_c, 0, 70, 0
1, 5040, Note_on_c, 0, 62, 80
1, 5159, Note_on_c, 0, 62, 0
1, 5160, Note_on_c, 0, 60, 80
1, 5279, Note_on_c, 0, 60, 0
1, 5280, Note_on_c, 0, 58, 80
1, 5399, Note_on_c, 0, 58, 0
1, 5400, Note_on_c, 0, 57, 80
1, 5519, Note_on_c, 0, 57, 0
1, 5520, Note_on_c, 0, 55, 80
1, 5520, Note_on_c, 0, 72, 80
1, 5639, Note_on_c, 0, 55, 0
1, 5640, Note_on_c, 0, 57, 80
1, 5759, Note_on_c, 0, 57, 0
1, 5759, Note_on_c, 0, 72, 0
1, 5760, Note_on_c, 0, 58, 80
1, 5760, Note_on_c, 0, 79, 80
1, 5819, Note_on_c, 0, 79, 0
1, 5820, Note_on_c, 0, 81, 80
1, 5879, Note_on_c, 0, 58, 0
1, 5879, Note_on_c, 0, 81, 0
1, 5880, Note_on_c, 0, 62, 80
1, 5880, Note_on_c, 0, 78, 80
1, 5999, Note_on_c, 0, 62, 0
1, 5999, Note_on_c, 0, 78, 0
1, 6000, Note_on_c, 0, 67, 80
1, 6000, Note_on_c, 0, 79, 80
1, 6119, Note_on_c, 0, 79, 0
1, 6120, Note_on_c, 0, 81, 80
1, 6239, Note_on_c, 0, 81, 0
1, 6240, Note_on_c, 0, 82, 80
1, 6359, Note_on_c, 0, 82, 0
1, 6360, Note_on_c, 0, 84, 80
1, 6479, Note_on_c, 0, 67, 0
1, 6479, Note_on_c, 0, 84, 0
1, 6480, Note_on_c, 0, 67, 80
1, 6480, Note_on_c, 0, 86, 80
1, 6539, Note_on_c, 0, 67, 0
1, 6540, Note_on_c, 0, 66, 80
1, 6599, Note_on_c, 0, 66, 0
1, 6599, Note_on_c, 0, 86, 0
1, 6600, Note_on_c, 0, 67, 80
1, 6600, Note_on_c, 0, 84, 80
1, 6659, Note_on_c, 0, 67, 0
1, 6660, Note_on_c, 0, 66, 80
1, 6719, Note_on_c, 0, 66, 0
1, 6719, Note_on_c, 0, 84, 0
1, 6720, Note_on_c, 0, 67, 80
1, 6720, Note_on_c, 0, 82, 80
1, 6839, Note_on_c, 0, 82, 0
1, 6840, Note_on_c, 0, 81, 80
1, 6899, Note_on_c, 0, 81, 0
1, 6900, Note_on_c, 0, 79, 80
1, 6959, Note_on_c, 0, 67, 0
1, 6959, Note_on_c, 0, 79, 0
1, 6960, Note_on_c, 0, 74, 80
1, 7200, Note_on_c, 0, 66, 80
1, 7319, Note_on_c, 0, 66, 0
1, 7320, Note_on_c, 0, 67, 80
1, 7439, Note_on_c, 0, 67, 0
1, 7439, Note_on_c, 0, 74, 0
1, 7440, Note_on_c, 0, 69, 80
1, 7440, Note_on_c, 0, 75, 80
1, 7559, Note_on_c, 0, 69, 0
1, 7679, Note_on_c, 0, 75, 0
1, 7680, Note_on_c, 0, 70, 80
1, 7680, Note_on_c, 0, 74, 80
1, 7799, Note_on_c, 0, 70, 0
1, 7800, Note_on_c, 0, 69, 80
1, 7919, Note_on_c, 0, 69, 0
1, 7919, Note_on_c, 0, 74, 0
1, 7920, Note_on_c, 0, 69, 80
1, 8039, Note_on_c, 0, 69, 0
1, 8040, Note_on_c, 0, 67, 80
1, 8159, Note_on_c, 0, 67, 0
1, 8160, Note_on_c, 0, 67, 80
1, 8279, Note_on_c, 0, 67, 0
1, 8280, Note_on_c, 0, 66, 80
1, 8280, Note_on_c, 0, 75, 80
1, 8399, Note_on_c, 0, 66, 0
1, 8399, Note_on_c, 0, 75, 0
1, 8400, Note_on_c, 0, 66, 80
1, 8400, Note_on_c, 0, 74, 80
1, 8519, Note_on_c, 0, 66, 0
1, 8519, Note_on_c, 0, 74, 0
1, 8520, Note_on_c, 0, 67, 80
1, 8520, Note_on_c, 0, 72, 80
1, 8639, Note_on_c, 0, 67, 0
1, 8639, Note_on_c, 0, 72, 0
1, 8640, Note_on_c, 0, 67, 80
1, 8640, Note_on_c, 0, 70, 80
1, 8759, Note_on_c, 0, 70, 0
1, 8760, Note_on_c, 0, 72, 80
1, 8879, Note_on_c, 0, 67, 0
1, 8879, Note_on_c, 0, 72, 0
1, 8880, Note_on_c, 0, 72, 80
1, 8999, Note_on_c, 0, 72, 0
1, 9000, Note_on_c, 0, 74, 80
1, 9119, Note_on_c, 0, 74, 0
1, 9120, Note_on_c, 0, 74, 80
1, 9239, Note_on_c, 0, 74, 0
1, 9240, Note_on_c, 0, 75, 80
1, 9359, Note_on_c, 0, 75, 0
1, 9360, Note_on_c, 0, 60, 80
1, 9360, Note_on_c, 0, 75, 80
1, 9479, Note_on_c, 0, 75, 0
1, 9480, Note_on_c, 0, 74, 80
1, 9599, Note_on_c, 0, 60, 0
1, 9599, Note_on_c, 0, 74, 0
1, 9600, Note_on_c, 0, 58, 80
1, 9600, Note_on_c, 0, 74, 80
1, 9839, Note_on_c, 0, 58, 0
1, 9839, Note_on_c, 0, 74, 0
1, 9840, Note_on_c, 0, 67, 80
1, 9959, Note_on_c, 0, 67, 0
1, 9960, Note_on_c, 0, 65, 80
1, 10199, Note_on_c, 0, 65, 0
1, 10200, Note_on_c, 0, 64, 80
1, 10320, Note_on_c, 0, 81, 80
1, 10439, Note_on_c, 0, 64, 0
1, 10440, Note_on_c, 0, 62, 80
1, 10559, Note_on_c, 0, 62, 0
1, 10559, Note_on_c, 0, 81, 0
1, 10560, Note_on_c, 0, 61, 80
1, 10560, Note_on_c, 0, 82, 80
1, 10799, Note_on_c, 0, 61, 0
1, 10799, Note_on_c, 0, 82, 0
1, 10800, Note_on_c, 0, 70, 80
1, 10800, Note_on_c, 0, 74, 80
1, 10919, Note_on_c, 0, 74, 0
1, 10920, Note_on_c, 0, 76, 80
1, 11039, Note_on_c, 0, 70, 0
1, 11039, Note_on_c, 0, 76, 0
1, 11040, Note_on_c, 0, 69, 80
1, 11160, Note_on_c, 0, 77, 80
1, 11279, Note_on_c, 0, 69, 0
1, 11280, Note_on_c, 0, 61, 80
1, 11399, Note_on_c, 0, 77, 0
1, 11400, Note_on_c, 0, 79, 80
1, 11519, Note_on_c, 0, 61, 0
1, 11519, Note_on_c, 0, 79, 0
1, 11520, Note_on_c, 0, 81, 80
1, 11759, Note_on_c, 0, 81, 0
1, 11760, Note_on_c, 0, 62, 80
1, 11760, Note_on_c, 0, 70, 80
1, 11819, Note_on_c, 0, 62, 0
1, 11820, Note_on_c, 0, 61, 80
1, 11879, Note_on_c, 0, 61, 0
1, 11880, Note_on_c, 0, 62, 80
1, 11999, Note_on_c, 0, 70, 0
1, 12000, Note_on_c, 0, 72, 80
1, 12119, Note_on_c, 0, 62, 0
1, 12120, Note_on_c, 0, 62, 80
1, 12239, Note_on_c, 0, 72, 0
1, 12240, Note_on_c, 0, 81, 80
1, 12359, Note_on_c, 0, 62, 0
1, 12360, Note_on_c, 0, 62, 80
1, 12479, Note_on_c, 0, 81, 0
1, 12599, Note_on_c, 0, 62, 0
1, 12600, Note_on_c, 0, 64, 80
1, 12659, Note_on_c, 0, 64, 0
1, 12660, Note_on_c, 0, 62, 80
1, 12719, Note_on_c, 0, 62, 0
1, 12720, Note_on_c, 0, 61, 80
1, 12720, Note_on_c, 0, 79, 80
1, 12779, Note_on_c, 0, 79, 0
1, 12780, Note_on_c, 0, 81, 80
1, 12839, Note_on_c, 0, 61, 0
1, 12839, Note_on_c, 0, 81, 0
1, 12840, Note_on_c, 0, 59, 80
1, 12840, Note_on_c, 0, 79, 80
1, 12959, Note_on_c, 0, 59, 0
1, 12960, Note_on_c, 0, 61, 80
1, 13079, Note_on_c, 0, 61, 0
1, 13079, Note_on_c, 0, 79, 0
1, 13080, Note_on_c, 0, 64, 80
1, 13080, Note_on_c, 0, 79, 80
1, 13199, Note_on_c, 0, 64, 0
1, 13200, Note_on_c, 0, 69, 80
1, 13319, Note_on_c, 0, 79, 0
1, 13320, Note_on_c, 0, 79, 80
1, 13439, Note_on_c, 0, 69, 0
1, 13439, Note_on_c, 0, 79, 0
1, 13560, Note_on_c, 0, 77, 80
1, 13619, Note_on_c, 0, 77, 0
1, 13620, Note_on_c, 0, 79, 80
1, 13679, Note_on_c, 0, 79, 0
1, 13680, Note_on_c, 0, 62, 80
1, 13680, Note_on_c, 0, 81, 80
1, 13799, Note_on_c, 0, 81, 0
1, 13800, Note_on_c, 0, 82, 80
1, 13919, Note_on_c, 0, 82, 0
1, 13920, Note_on_c, 0, 81, 80
1, 14039, Note_on_c, 0, 62, 0
1, 14039, Note_on_c, 0, 81, 0
1, 14040, Note_on_c, 0, 64, 80
1, 14040, Note_on_c, 0, 77, 80
1, 14099, Note_on_c, 0, 64, 0
1, 14100, Note_on_c, 0, 65, 80
1, 14159, Note_on_c, 0, 65, 0
1, 14159, Note_on_c, 0, 77, 0
1, 14160, Note_on_c, 0, 64, 80
1, 14160, Note_on_c, 0, 73, 80
1, 14219, Note_on_c, 0, 64, 0
1, 14220, Note_on_c, 0, 62, 80
1, 14279, Note_on_c, 0, 62, 0
1, 14280, Note_on_c, 0, 64, 80
1, 14399, Note_on_c, 0, 64, 0
1, 14399, Note_on_c, 0, 73, 0
1, 14400, Note_on_c, 0, 62, 80
1, 14640, Note_on_c, 0, 79, 80
1, 14879, Note_on_c, 0, 62, 0
1, 14879, Note_on_c, 0, 79, 0
1, 15000, Note_on_c, 0, 78, 80
1, 15059, Note_on_c, 0, 78, 0
1, 15060, Note_on_c, 0, 76, 80
1, 15119, Note_on_c, 0, 76, 0
1, 15120, Note_on_c, 0, 78, 80
1, 15359, Note_on_c, 0, 78, 0
1, 15480, Note_on_c, 0, 67, 80
1, 15599, Note_on_c, 0, 67, 0
1, 15600, Note_on_c, 0, 67, 80
1, 15719, Note_on_c, 0, 67, 0
1, 15720, Note_on_c, 0, 65, 80
1, 15839, Note_on_c, 0, 65, 0
1, 15840, Note_on_c, 0, 65, 80
1, 15959, Note_on_c, 0, 65, 0
1, 15960, Note_on_c, 0, 63, 80
1, 16079, Note_on_c, 0, 63, 0
1, 16080, Note_on_c, 0, 63, 80
1, 16199, Note_on_c, 0, 63, 0
1, 16200, Note_on_c, 0, 62, 80
1, 16319, Note_on_c, 0, 62, 0
1, 16320, Note_on_c, 0, 62, 80
1, 16440, Note_on_c, 0, 74, 80
1, 16559, Note_on_c, 0, 74, 0
1, 16560, Note_on_c, 0, 74, 80
1, 16679, Note_on_c, 0, 74, 0
1, 16680, Note_on_c, 0, 76, 80
1, 16799, Note_on_c, 0, 62, 0
1, 16799, Note_on_c, 0, 76, 0
1, 16800, Note_on_c, 0, 76, 80
1, 16919, Note_on_c, 0, 76, 0
1, 16920, Note_on_c, 0, 60, 80
1, 16920, Note_on_c, 0, 78, 80
1, 17039, Note_on_c, 0, 60, 0
1, 17039, Note_on_c, 0, 78, 0
1, 17040, Note_on_c, 0, 58, 80
1, 17040, Note_on_c, 0, 78, 80
1, 17159, Note_on_c, 0, 58, 0
1, 17159, Note_on_c, 0, 78, 0
1, 17160, Note_on_c, 0, 57, 80
1, 17160, Note_on_c, 0, 79, 80
1, 17279, Note_on_c, 0, 57, 0
1, 17279, Note_on_c, 0, 79, 0
1, 17280, Note_on_c, 0, 55, 80
1, 17280, Note_on_c, 0, 79, 80
1, 17399, Note_on_c, 0, 55, 0
1, 17400, Note_on_c, 0, 61, 80
1, 17519, Note_on_c, 0, 61, 0
1, 17520, Note_on_c, 0, 61, 80
1, 17579, Note_on_c, 0, 61, 0
1, 17580, Note_on_c, 0, 62, 80
1, 17639, Note_on_c, 0, 62, 0
1, 17640, Note_on_c, 0, 61, 80
1, 17759, Note_on_c, 0, 61, 0
1, 17759, Note_on_c, 0, 79, 0
1, 17760, Note_on_c, 0, 67, 80
1, 17880, Note_on_c, 0, 81, 80
1, 17999, Note_on_c, 0, 81, 0
1, 18000, Note_on_c, 0, 82, 80
1, 18119, Note_on_c, 0, 82, 0
1, 18120, Note_on_c, 0, 84, 80
1, 18239, Note_on_c, 0, 67, 0
1, 18239, Note_on_c, 0, 84, 0
1, 18240, Note_on_c, 0, 86, 80
1, 18359, Note_on_c, 0, 86, 0
1, 18360, Note_on_c, 0, 81, 80
1, 18479, Note_on_c, 0, 81, 0
1, 18480, Note_on_c, 0, 66, 80
1, 18480, Note_on_c, 0, 81, 80
1, 18539, Note_on_c, 0, 81, 0
1, 18540, Note_on_c, 0, 80, 80
1, 18599, Note_on_c, 0, 66, 0
1, 18599, Note_on_c, 0, 80, 0
1, 18600, Note_on_c, 0, 64, 80
1, 18600, Note_on_c, 0, 81, 80
1, 18719, Note_on_c, 0, 64, 0
1, 18719, Note_on_c, 0, 81, 0
1, 18720, Note_on_c, 0, 66, 80
1, 18720, Note_on_c, 0, 74, 80
1, 18839, Note_on_c, 0, 66, 0
1, 18840, Note_on_c, 0, 69, 80
1, 18959, Note_on_c, 0, 69, 0
1, 18960, Note_on_c, 0, 67, 80
1, 19079, Note_on_c, 0, 67, 0
1, 19080, Note_on_c, 0, 69, 80
1, 19199, Note_on_c, 0, 69, 0
1, 19199, Note_on_c, 0, 74, 0
1, 19200, Note_on_c, 0, 70, 80
1, 19439, Note_on_c, 0, 70, 0
1, 19440, Note_on_c, 0, 75, 80
1, 19559, Note_on_c, 0, 75, 0
1, 19560, Note_on_c, 0, 77, 80
1, 19679, Note_on_c, 0, 77, 0
1, 19680, Note_on_c, 0, 75, 80
1, 19799, Note_on_c, 0, 75, 0
1, 19800, Note_on_c, 0, 74, 80
1, 19919, Note_on_c, 0, 74, 0
1, 19920, Note_on_c, 0, 69, 80
1, 19920, Note_on_c, 0, 74, 80
1, 20039, Note_on_c, 0, 74, 0
1, 20040, Note_on_c, 0, 72, 80
1, 20159, Note_on_c, 0, 69, 0
1, 20159, Note_on_c, 0, 72, 0
1, 20160, Note_on_c, 0, 62, 80
1, 20160, Note_on_c, 0, 70, 80
1, 20219, Note_on_c, 0, 62, 0
1, 20220, Note_on_c, 0, 60, 80
1, 20279, Note_on_c, 0, 60, 0
1, 20280, Note_on_c, 0, 63, 80
1, 20399, Note_on_c, 0, 63, 0
1, 20399, Note_on_c, 0, 70, 0
1, 20400, Note_on_c, 0, 62, 80
1, 20519, Note_on_c, 0, 62, 0
1, 20520, Note_on_c, 0, 60, 80
1, 20639, Note_on_c, 0, 60, 0
1, 20640, Note_on_c, 0, 58, 80
1, 20759, Note_on_c, 0, 58, 0
1, 20760, Note_on_c, 0, 57, 80
1, 20879, Note_on_c, 0, 57, 0
1, 20880, Note_on_c, 0, 55, 80
1, 20880, Note_on_c, 0, 72, 80
1, 20999, Note_on_c, 0, 55, 0
1, 21000, Note_on_c, 0, 57, 80
1, 21119, Note_on_c, 0, 57, 0
1, 21119, Note_on_c, 0, 72, 0
1, 21120, Note_on_c, 0, 58, 80
1, 21120, Note_on_c, 0, 79, 80
1, 21179, Note_on_c, 0, 79, 0
1, 21180, Note_on_c, 0, 81, 80
1, 21239, Note_on_c, 0, 58, 0
1, 21239, Note_on_c, 0, 81, 0
1, 21240, Note_on_c, 0, 62, 80
1, 21240, Note_on_c, 0, 78, 80
1, 21359, Note_on_c, 0, 62, 0
1, 21359, Note_on_c, 0, 78, 0
1, 21360, Note_on_c, 0, 67, 80
1, 21360, Note_on_c, 0, 79, 80
1, 21479, Note_on_c, 0, 79, 0
1, 21480, Note_on_c, 0, 81, 80
1, 21599, Note_on_c, 0, 81, 0
1, 21600, Note_on_c, 0, 82, 80
1, 21719, Note_on_c, 0, 82, 0
1, 21720, Note_on_c, 0, 84, 80
1, 21839, Note_on_c, 0, 67, 0
1, 21839, Note_on_c, 0, 84, 0
1, 21840, Note_on_c, 0, 67, 80
1, 21840, Note_on_c, 0, 86, 80
1, 21899, Note_on_c, 0, 67, 0
1, 21900, Note_on_c, 0, 66, 80
1, 21959, Note_on_c, 0, 66, 0
1, 21959, Note_on_c, 0, 86, 0
1, 21960, Note_on_c, 0, 67, 80
1, 21960, Note_on_c, 0, 84, 80
1, 22019, Note_on_c, 0, 67, 0
1, 22020, Note_on_c, 0, 66, 80
1, 22079, Note_on_c, 0, 66, 0
1, 22079, Note_on_c, 0, 84, 0
1, 22080, Note_on_c, 0, 67, 80
1, 22080, Note_on_c, 0, 82, 80
1, 22199, Note_on_c, 0, 82, 0
1, 22200, Note_on_c, 0, 81, 80
1, 22259, Note_on_c, 0, 81, 0
1, 22260, Note_on_c, 0, 79, 80
1, 22319, Note_on_c, 0, 67, 0
1, 22319, Note_on_c, 0, 79, 0
1, 22320, Note_on_c, 0, 74, 80
1, 22560, Note_on_c, 0, 66, 80
1, 22679, Note_on_c, 0, 66, 0
1, 22680, Note_on_c, 0, 67, 80
1, 22799, Note_on_c, 0, 67, 0
1, 22799, Note_on_c, 0, 74, 0
1, 22800, Note_on_c, 0, 69, 80
1, 22800, Note_on_c, 0, 75, 80
1, 22919, Note_on_c, 0, 69, 0
1, 23039, Note_on_c, 0, 75, 0
1, 23040, Note_on_c, 0, 70, 80
1, 23040, Note_on_c, 0, 74, 80
1, 23159, Note_on_c, 0, 70, 0
1, 23160, Note_on_c, 0, 69, 80
1, 23279, Note_on_c, 0, 69, 0
1, 23279, Note_on_c, 0, 74, 0
1, 23280, Note_on_c, 0, 69, 80
1, 23399, Note_on_c, 0, 69, 0
1, 23400, Note_on_c, 0, 67, 80
1, 23519, Note_on_c, 0, 67, 0
1, 23520, Note_on_c, 0, 67, 80
1, 23639, Note_on_c, 0, 67, 0
1, 23640, Note_on_c, 0, 66, 80
1, 23640, Note_on_c, 0, 75, 80
1, 23759, Note_on_c, 0, 66, 0
1, 23759, Note_on_c, 0, 75, 0
1, 23760, Note_on_c, 0, 66, 80
1, 23760, Note_on_c, 0, 74, 80
1, 23879, Note_on_c, 0, 66, 0
1, 23879, Note_on_c, 0, 74, 0
1, 23880, Note_on_c, 0, 67, 80
1, 23880, Note_on_c, 0, 72, 80
1, 23999, Note_on_c, 0, 67, 0
1, 23999, Note_on_c, 0, 72, 0
1, 24000, Note_on_c, 0, 67, 80
1, 24000, Note_on_c, 0, 70, 80
1, 24119, Note_on_c, 0, 70, 0
1, 24120, Note_on_c, 0, 72, 80
1, 24239, Note_on_c, 0, 67, 0
1, 24239, Note_on_c, 0, 72, 0
1, 24240, Note_on_c, 0, 72, 80
1, 24359, Note_on_c, 0, 72, 0
1, 24360, Note_on_c, 0, 74, 80
1, 24479, Note_on_c, 0, 74, 0
1, 24480, Note_on_c, 0, 74, 80
1, 24599, Note_on_c, 0, 74, 0
1, 24600, Note_on_c, 0, 75, 80
1, 24719, Note_on_c, 0, 75, 0
1, 24720, Note_on_c, 0, 60, 80
1, 24720, Note_on_c, 0, 75, 80
1, 24839, Note_on_c, 0, 75, 0
1, 24840, Note_on_c, 0, 74, 80
1, 24959, Note_on_c, 0, 60, 0
1, 24959, Note_on_c, 0, 74, 0
1, 24960, Note_on_c, 0, 58, 80
1, 24960, Note_on_c, 0, 74, 80
1, 25199, Note_on_c, 0, 58, 0
1, 25199, Note_on_c, 0, 74, 0
1, 25200, Note_on_c, 0, 67, 80
1, 25319, Note_on_c, 0, 67, 0
1, 25320, Note_on_c, 0, 65, 80
1, 25559, Note_on_c, 0, 65, 0
1, 25560, Note_on_c, 0, 64, 80
1, 25680, Note_on_c, 0, 81, 80
1, 25799, Note_on_c, 0, 64, 0
1, 25800, Note_on_c, 0, 62, 80
1, 25919, Note_on_c, 0, 62, 0
1, 25919, Note_on_c, 0, 81, 0
1, 25920, Note_on_c, 0, 61, 80
1, 25920, Note_on_c, 0, 82, 80
1, 26159, Note_on_c, 0, 61, 0
1, 26159, Note_on_c, 0, 82, 0
1, 26160, Note_on_c, 0, 70, 80
1, 26160, Note_on_c, 0, 74, 80
1, 26279, Note_on_c, 0, 74, 0
1, 26280, Note_on_c, 0, 76, 80
1, 26399, Note_on_c, 0, 70, 0
1, 26399, Note_on_c, 0, 76, 0
1, 26400, Note_on_c, 0, 69, 80
1, 26520, Note_on_c, 0, 77, 80
1, 26639, Note_on_c, 0, 69, 0
1, 26640, Note_on_c, 0, 61, 80
1, 26759, Note_on_c, 0, 77, 0
1, 26760, Note_on_c, 0, 79, 80
1, 26879, Note_on_c, 0, 61, 0
1, 26879, Note_on_c, 0, 79, 0
1, 26880, Note_on_c, 0, 81, 80
1, 27119, Note_on_c, 0, 81, 0
1, 27120, Note_on_c, 0, 62, 80
1, 27120, Note_on_c, 0, 70, 80
1, 27179, Note_on_c, 0, 62, 0
1, 27180, Note_on_c, 0, 61, 80
1, 27239, Note_on_c, 0, 61, 0
1, 27240, Note_on_c, 0, 62, 80
1, 27359, Note_on_c, 0, 70, 0
1, 27360, Note_on_c, 0, 72, 80
1, 27479, Note_on_c, 0, 62, 0
1, 27480, Note_on_c, 0, 62, 80
1, 27599, Note_on_c, 0, 72, 0
1, 27600, Note_on_c, 0, 81, 80
1, 27719, Note_on_c, 0, 62, 0
1, 27720, Note_on_c, 0, 62, 80
1, 27839, Note_on_c, 0, 81, 0
1, 27959, Note_on_c, 0, 62, 0
1, 27960, Note_on_c, 0, 64, 80
1, 28019, Note_on_c, 0, 64, 0
1, 28020, Note_on_c, 0, 62, 80
1, 28079, Note_on_c, 0, 62, 0
1, 28080, Note_on_c, 0, 61, 80
1, 28080, Note_on_c, 0, 79, 80
1, 28139, Note_on_c, 0, 79, 0
1, 28140, Note_on_c, 0, 81, 80
1, 28199, Note_on_c, 0, 61, 0
1, 28199, Note_on_c, 0, 81, 0
1, 28200, Note_on_c, 0, 59, 80
1, 28200, Note_on_c, 0, 79, 80
1, 28319, Note_on_c, 0, 59, 0
1, 28320, Note_on_c, 0, 61, 80
1, 28439, Note_on_c, 0, 61, 0
1, 28439, Note_on_c, 0, 79, 0
1, 28440, Note_on_c, 0, 64, 80
1, 28440, Note_on_c, 0, 79, 80
1, 28559, Note_on_c, 0, 64, 0
1, 28560, Note_on_c, 0, 69, 80
1, 28679, Note_on_c, 0, 79, 0
1, 28680, Note_on_c, 0, 79, 80
1, 28799, Note_on_c, 0, 69, 0
1, 28799, Note_on_c, 0, 79, 0
1, 28920, Note_on_c, 0, 77, 80
1, 28979, Note_on_c, 0, 77, 0
1, 28980, Note_on_c, 0, 79, 80
1, 29039, Note_on_c, 0, 79, 0
1, 29040, Note_on_c, 0, 62, 80
1, 29040, Note_on_c, 0, 81, 80
1, 29159, Note_on_c, 0, 81, 0
1, 29160, Note_on_c, 0, 82, 80
1, 29279, Note_on_c, 0, 82, 0
1, 29280, Note_on_c, 0, 81, 80
1, 29399, Note_on_c, 0, 62, 0
1, 29399, Note_on_c, 0, 81, 0
1, 29400, Note_on_c, 0, 64, 80
1, 29400, Note_on_c, 0, 77, 80
1, 29459, Note_on_c, 0, 64, 0
1, 29460, Note_on_c, 0, 65, 80
1, 29519, Note_on_c, 0, 65, 0
1, 29519, Note_on_c, 0, 77, 0
1, 29520, Note_on_c, 0, 64, 80
1, 29520, Note_on_c, 0, 73, 80
1, 29579, Note_on_c, 0, 64, 0
1, 29580, Note_on_c, 0, 62, 80
1, 29639, Note_on_c, 0, 62, 0
1, 29640, Note_on_c, 0, 64, 80
1, 29759, Note_on_c, 0, 64, 0
1, 29759, Note_on_c, 0, 73, 0
1, 29760, Note_on_c, 0, 62, 80
1, 30000, Note_on_c, 0, 79, 80
1, 30239, Note_on_c, 0, 62, 0
1, 30239, Note_on_c, 0, 79, 0
1, 30360, Note_on_c, 0, 78, 80
1, 30419, Note_on_c, 0, 78, 0
1, 30420, Note_on_c, 0, 76, 80
1, 30479, Note_on_c, 0, 76, 0
1, 30480, Note_on_c, 0, 78, 80
1, 30719, Note_on_c, 0, 78, 0
1, 30960, Note_on_c, 0, 66, 80
1, 31199, Note_on_c, 0, 66, 0
1, 31200, Note_on_c, 0, 67, 80
1, 31439, Note_on_c, 0, 67, 0
1, 31440, Note_on_c, 0, 69, 80
1, 31679, Note_on_c, 0, 69, 0
1, 31680, Note_on_c, 0, 62, 80
1, 31799, Note_on_c, 0, 62, 0
1, 31800, Note_on_c, 0, 74, 80
1, 31920, Note_on_c, 0, 75, 80
1, 32039, Note_on_c, 0, 74, 0
1, 32040, Note_on_c, 0, 72, 80
1, 32159, Note_on_c, 0, 75, 0
1, 32160, Note_on_c, 0, 74, 80
1, 32279, Note_on_c, 0, 72, 0
1, 32280, Note_on_c, 0, 70, 80
1, 32399, Note_on_c, 0, 74, 0
1, 32400, Note_on_c, 0, 72, 80
1, 32519, Note_on_c, 0, 70, 0
1, 32520, Note_on_c, 0, 69, 80
1, 32639, Note_on_c, 0, 69, 0
1, 32639, Note_on_c, 0, 72, 0
1, 32640, Note_on_c, 0, 70, 80
1, 32640, Note_on_c, 0, 79, 80
1, 32759, Note_on_c, 0, 79, 0
1, 32760, Note_on_c, 0, 67, 80
1, 32879, Note_on_c, 0, 70, 0
1, 32880, Note_on_c, 0, 63, 80
1, 32999, Note_on_c, 0, 67, 0
1, 33000, Note_on_c, 0, 68, 80
1, 33119, Note_on_c, 0, 63, 0
1, 33119, Note_on_c, 0, 68, 0
1, 33120, Note_on_c, 0, 62, 80
1, 33240, Note_on_c, 0, 70, 80
1, 33359, Note_on_c, 0, 62, 0
1, 33360, Note_on_c, 0, 67, 80
1, 33479, Note_on_c, 0, 70, 0
1, 33480, Note_on_c, 0, 72, 80
1, 33599, Note_on_c, 0, 67, 0
1, 33599, Note_on_c, 0, 72, 0
1, 33600, Note_on_c, 0, 65, 80
1, 33600, Note_on_c, 0, 70, 80
1, 33719, Note_on_c, 0, 65, 0
1, 33720, Note_on_c, 0, 67, 80
1, 33839, Note_on_c, 0, 67, 0
1, 33839, Note_on_c, 0, 70, 0
1, 33840, Note_on_c, 0, 68, 80
1, 33840, Note_on_c, 0, 77, 80
1, 34079, Note_on_c, 0, 68, 0
1, 34079, Note_on_c, 0, 77, 0
1, 34080, Note_on_c, 0, 79, 80
1, 34200, Note_on_c, 0, 70, 80
1, 34319, Note_on_c, 0, 79, 0
1, 34320, Note_on_c, 0, 74, 80
1, 34439, Note_on_c, 0, 70, 0
1, 34440, Note_on_c, 0, 68, 80
1, 34559, Note_on_c, 0, 68, 0
1, 34559, Note_on_c, 0, 74, 0
1, 34560, Note_on_c, 0, 67, 80
1, 34560, Note_on_c, 0, 75, 80
1, 34679, Note_on_c, 0, 67, 0
1, 34679, Note_on_c, 0, 75, 0
1, 34680, Note_on_c, 0, 70, 80
1, 34680, Note_on_c, 0, 74, 80
1, 34799, Note_on_c, 0, 70, 0
1, 34799, Note_on_c, 0, 74, 0
1, 34800, Note_on_c, 0, 75, 80
1, 34800, Note_on_c, 0, 72, 80
1, 34919, Note_on_c, 0, 75, 0
1, 34920, Note_on_c, 0, 79, 80
1, 35039, Note_on_c, 0, 79, 0
1, 35039, Note_on_c, 0, 72, 0
1, 35040, Note_on_c, 0, 77, 80
1, 35159, Note_on_c, 0, 77, 0
1, 35160, Note_on_c, 0, 75, 80
1, 35160, Note_on_c, 0, 70, 80
1, 35279, Note_on_c, 0, 75, 0
1, 35280, Note_on_c, 0, 74, 80
1, 35399, Note_on_c, 0, 74, 0
1, 35399, Note_on_c, 0, 70, 0
1, 35400, Note_on_c, 0, 72, 80
1, 35519, Note_on_c, 0, 72, 0
1, 35520, Note_on_c, 0, 70, 80
1, 35520, Note_on_c, 0, 74, 80
1, 35639, Note_on_c, 0, 74, 0
1, 35640, Note_on_c, 0, 70, 80
1, 35759, Note_on_c, 0, 70, 0
1, 35760, Note_on_c, 0, 65, 80
1, 35879, Note_on_c, 0, 65, 0
1, 35880, Note_on_c, 0, 62, 80
1, 35999, Note_on_c, 0, 62, 0
1, 36000, Note_on_c, 0, 63, 80
1, 36119, Note_on_c, 0, 63, 0
1, 36120, Note_on_c, 0, 65, 80
1, 36239, Note_on_c, 0, 65, 0
1, 36240, Note_on_c, 0, 67, 80
1, 36359, Note_on_c, 0, 67, 0
1, 36360, Note_on_c, 0, 68, 80
1, 36479, Note_on_c, 0, 68, 0
1, 36480, Note_on_c, 0, 70, 80
1, 36599, Note_on_c, 0, 70, 0
1, 36600, Note_on_c, 0, 68, 80
1, 36659, Note_on_c, 0, 68, 0
1, 36660, Note_on_c, 0, 67, 80
1, 36719, Note_on_c, 0, 67, 0
1, 36720, Note_on_c, 0, 65, 80
1, 36779, Note_on_c, 0, 65, 0
1, 36780, Note_on_c, 0, 67, 80
1, 36839, Note_on_c, 0, 67, 0
1, 36840, Note_on_c, 0, 68, 80
1, 36959, Note_on_c, 0, 68, 0
1, 36960, Note_on_c, 0, 67, 80
1, 37079, Note_on_c, 0, 67, 0
1, 37080, Note_on_c, 0, 65, 80
1, 37139, Note_on_c, 0, 65, 0
1, 37140, Note_on_c, 0, 63, 80
1, 37199, Note_on_c, 0, 63, 0
1, 37200, Note_on_c, 0, 65, 80
1, 37259, Note_on_c, 0, 65, 0
1, 37260, Note_on_c, 0, 63, 80
1, 37319, Note_on_c, 0, 63, 0
1, 37320, Note_on_c, 0, 62, 80
1, 37439, Note_on_c, 0, 62, 0
1, 37439, Note_on_c, 0, 70, 0
1, 37440, Note_on_c, 0, 63, 80
1, 37560, Note_on_c, 0, 72, 80
1, 37619, Note_on_c, 0, 72, 0
1, 37620, Note_on_c, 0, 74, 80
1, 37679, Note_on_c, 0, 63, 0
1, 37679, Note_on_c, 0, 74, 0
1, 37680, Note_on_c, 0, 75, 80
1, 37739, Note_on_c, 0, 75, 0
1, 37740, Note_on_c, 0, 74, 80
1, 37799, Note_on_c, 0, 74, 0
1, 37800, Note_on_c, 0, 72, 80
1, 37919, Note_on_c, 0, 72, 0
1, 37920, Note_on_c, 0, 74, 80
1, 38039, Note_on_c, 0, 74, 0
1, 38040, Note_on_c, 0, 75, 80
1, 38099, Note_on_c, 0, 75, 0
1, 38100, Note_on_c, 0, 77, 80
1, 38159, Note_on_c, 0, 77, 0
1, 38160, Note_on_c, 0, 75, 80
1, 38219, Note_on_c, 0, 75, 0
1, 38220, Note_on_c, 0, 77, 80
1, 38279, Note_on_c, 0, 77, 0
1, 38280, Note_on_c, 0, 79, 80
1, 38399, Note_on_c, 0, 79, 0
1, 38400, Note_on_c, 0, 77, 80
1, 38520, Note_on_c, 0, 68, 80
1, 38639, Note_on_c, 0, 68, 0
1, 38639, Note_on_c, 0, 77, 0
1, 38640, Note_on_c, 0, 68, 80
1, 38759, Note_on_c, 0, 68, 0
1, 38760, Note_on_c, 0, 67, 80
1, 38879, Note_on_c, 0, 67, 0
1, 38880, Note_on_c, 0, 66, 80
1, 38999, Note_on_c, 0, 66, 0
1, 39000, Note_on_c, 0, 65, 80
1, 39119, Note_on_c, 0, 65, 0
1, 39120, Note_on_c, 0, 74, 80
1, 39239, Note_on_c, 0, 74, 0
1, 39240, Note_on_c, 0, 65, 80
1, 39359, Note_on_c, 0, 65, 0
1, 39360, Note_on_c, 0, 63, 80
1, 39480, Note_on_c, 0, 72, 80
1, 39599, Note_on_c, 0, 72, 0
1, 39720, Note_on_c, 0, 74, 80
1, 39839, Note_on_c, 0, 74, 0
1, 39840, Note_on_c, 0, 75, 80
1, 39959, Note_on_c, 0, 63, 0
1, 39959, Note_on_c, 0, 75, 0
1, 39960, Note_on_c, 0, 62, 80
1, 39960, Note_on_c, 0, 76, 80
1, 40079, Note_on_c, 0, 62, 0
1, 40079, Note_on_c, 0, 76, 0
1, 40080, Note_on_c, 0, 60, 80
1, 40080, Note_on_c, 0, 67, 80
1, 40199, Note_on_c, 0, 60, 0
1, 40199, Note_on_c, 0, 67, 0
1, 40200, Note_on_c, 0, 58, 80
1, 40200, Note_on_c, 0, 76, 80
1, 40319, Note_on_c, 0, 58, 0
1, 40319, Note_on_c, 0, 76, 0
1, 40320, Note_on_c, 0, 57, 80
1, 40320, Note_on_c, 0, 78, 80
1, 40439, Note_on_c, 0, 57, 0
1, 40440, Note_on_c, 0, 58, 80
1, 40559, Note_on_c, 0, 58, 0
1, 40560, Note_on_c, 0, 60, 80
1, 40679, Note_on_c, 0, 60, 0
1, 40680, Note_on_c, 0, 62, 80
1, 40799, Note_on_c, 0, 62, 0
1, 40799, Note_on_c, 0, 78, 0
1, 40800, Note_on_c, 0, 63, 80
1, 40919, Note_on_c, 0, 63, 0
1, 40920, Note_on_c, 0, 62, 80
1, 40920, Note_on_c, 0, 79, 80
1, 41039, Note_on_c, 0, 62, 0
1, 41039, Note_on_c, 0, 79, 0
1, 41040, Note_on_c, 0, 63, 80
1, 41040, Note_on_c, 0, 81, 80
1, 41159, Note_on_c, 0, 81, 0
1, 41160, Note_on_c, 0, 82, 80
1, 41279, Note_on_c, 0, 82, 0
1, 41280, Note_on_c, 0, 84, 80
1, 41399, Note_on_c, 0, 84, 0
1, 41399, Note_on_c, 0, 63, 0
1, 41400, Note_on_c, 0, 60, 80
1, 41400, Note_on_c, 0, 82, 80
1, 41519, Note_on_c, 0, 60, 0
1, 41519, Note_on_c, 0, 82, 0
1, 41520, Note_on_c, 0, 62, 80
1, 41520, Note_on_c, 0, 81, 80
1, 41639, Note_on_c, 0, 81, 0
1, 41640, Note_on_c, 0, 79, 80
1, 41759, Note_on_c, 0, 62, 0
1, 41759, Note_on_c, 0, 79, 0
1, 41760, Note_on_c, 0, 78, 80
1, 41879, Note_on_c, 0, 78, 0
1, 41880, Note_on_c, 0, 79, 80
1, 41999, Note_on_c, 0, 79, 0
1, 42000, Note_on_c, 0, 69, 80
1, 42000, Note_on_c, 0, 78, 80
1, 42239, Note_on_c, 0, 69, 0
1, 42239, Note_on_c, 0, 78, 0
1, 42240, Note_on_c, 0, 74, 80
1, 42360, Note_on_c, 0, 81, 80
1, 42479, Note_on_c, 0, 81, 0
1, 42480, Note_on_c, 0, 79, 80
1, 42599, Note_on_c, 0, 74, 0
1, 42600, Note_on_c, 0, 72, 80
1, 42719, Note_on_c, 0, 72, 0
1, 42719, Note_on_c, 0, 79, 0
1, 42720, Note_on_c, 0, 70, 80
1, 42839, Note_on_c, 0, 70, 0
1, 42840, Note_on_c, 0, 69, 80
1, 42959, Note_on_c, 0, 69, 0
1, 42960, Note_on_c, 0, 67, 80
1, 42960, Note_on_c, 0, 72, 80
1, 43079, Note_on_c, 0, 67, 0
1, 43080, Note_on_c, 0, 65, 80
1, 43199, Note_on_c, 0, 65, 0
1, 43199, Note_on_c, 0, 72, 0
1, 43200, Note_on_c, 0, 63, 80
1, 43200, Note_on_c, 0, 67, 80
1, 43319, Note_on_c, 0, 63, 0
1, 43320, Note_on_c, 0, 62, 80
1, 43439, Note_on_c, 0, 62, 0
1, 43440, Note_on_c, 0, 60, 80
1, 43559, Note_on_c, 0, 60, 0
1, 43559, Note_on_c, 0, 67, 0
1, 43560, Note_on_c, 0, 63, 80
1, 43560, Note_on_c, 0, 69, 80
1, 43679, Note_on_c, 0, 63, 0
1, 43679, Note_on_c, 0, 69, 0
1, 43680, Note_on_c, 0, 62, 80
1, 43680, Note_on_c, 0, 70, 80
1, 43799, Note_on_c, 0, 62, 0
1, 43799, Note_on_c, 0, 70, 0
1, 43800, Note_on_c, 0, 64, 80
1, 43800, Note_on_c, 0, 72, 80
1, 43919, Note_on_c, 0, 64, 0
1, 43919, Note_on_c, 0, 72, 0
1, 43920, Note_on_c, 0, 66, 80
1, 43920, Note_on_c, 0, 74, 80
1, 43979, Note_on_c, 0, 66, 0
1, 43980, Note_on_c, 0, 67, 80
1, 44039, Note_on_c, 0, 67, 0
1, 44039, Note_on_c, 0, 74, 0
1, 44040, Note_on_c, 0, 57, 80
1, 44040, Note_on_c, 0, 76, 80
1, 44159, Note_on_c, 0, 76, 0
1, 44160, Note_on_c, 0, 78, 80
1, 44279, Note_on_c, 0, 78, 0
1, 44279, Note_on_c, 0, 57, 0
1, 44280, Note_on_c, 0, 63, 80
1, 44280, Note_on_c, 0, 79, 80
1, 44399, Note_on_c, 0, 63, 0
1, 44399, Note_on_c, 0, 79, 0
1, 44400, Note_on_c, 0, 62, 80
1, 44400, Note_on_c, 0, 81, 80
1, 44519, Note_on_c, 0, 62, 0
1, 44519, Note_on_c, 0, 81, 0
1, 44520, Note_on_c, 0, 60, 80
1, 44520, Note_on_c, 0, 78, 80
1, 44639, Note_on_c, 0, 60, 0
1, 44639, Note_on_c, 0, 78, 0
1, 44640, Note_on_c, 0, 58, 80
1, 44640, Note_on_c, 0, 79, 80
1, 44759, Note_on_c, 0, 58, 0
1, 44759, Note_on_c, 0, 79, 0
1, 44760, Note_on_c, 0, 57, 80
1, 44760, Note_on_c, 0, 78, 80
1, 44879, Note_on_c, 0, 57, 0
1, 44879, Note_on_c, 0, 78, 0
1, 44880, Note_on_c, 0, 55, 80
1, 44880, Note_on_c, 0, 76, 80
1, 44939, Note_on_c, 0, 76, 0
1, 44940, Note_on_c, 0, 74, 80
1, 44999, Note_on_c, 0, 55, 0
1, 44999, Note_on_c, 0, 74, 0
1, 45000, Note_on_c, 0, 54, 80
1, 45000, Note_on_c, 0, 84, 80
1, 45119, Note_on_c, 0, 54, 0
1, 45119, Note_on_c, 0, 84, 0
1, 45120, Note_on_c, 0, 55, 80
1, 45240, Note_on_c, 0, 78, 80
1, 45359, Note_on_c, 0, 78, 0
1, 45360, Note_on_c, 0, 79, 80
1, 45479, Note_on_c, 0, 79, 0
1, 45480, Note_on_c, 0, 81, 80
1, 45599, Note_on_c, 0, 55, 0
1, 45599, Note_on_c, 0, 81, 0
1, 45600, Note_on_c, 0, 82, 80
1, 45719, Note_on_c, 0, 82, 0
1, 45720, Note_on_c, 0, 84, 80
1, 45839, Note_on_c, 0, 84, 0
1, 45840, Note_on_c, 0, 86, 80
1, 46079, Note_on_c, 0, 86, 0
1, 46320, Note_on_c, 0, 66, 80
1, 46559, Note_on_c, 0, 66, 0
1, 46560, Note_on_c, 0, 67, 80
1, 46799, Note_on_c, 0, 67, 0
1, 46800, Note_on_c, 0, 69, 80
1, 47039, Note_on_c, 0, 69, 0
1, 47040, Note_on_c, 0, 62, 80
1, 47159, Note_on_c, 0, 62, 0
1, 47160, Note_on_c, 0, 74, 80
1, 47280, Note_on_c, 0, 75, 80
1, 47399, Note_on_c, 0, 74, 0
1, 47400, Note_on_c, 0, 72, 80
1, 47519, Note_on_c, 0, 75, 0
1, 47520, Note_on_c, 0, 74, 80
1, 47639, Note_on_c, 0, 72, 0
1, 47640, Note_on_c, 0, 70, 80
1, 47759, Note_on_c, 0, 74, 0
1, 47760, Note_on_c, 0, 72, 80
1, 47879, Note_on_c, 0, 70, 0
1, 47880, Note_on_c, 0, 69, 80
1, 47999, Note_on_c, 0, 69, 0
1, 47999, Note_on_c, 0, 72, 0
1, 48000, Note_on_c, 0, 70, 80
1, 48000, Note_on_c, 0, 79, 80
1, 48119, Note_on_c, 0, 79, 0
1, 48120, Note_on_c, 0, 67, 80
1, 48239, Note_on_c, 0, 70, 0
1, 48240, Note_on_c, 0, 63, 80
1, 48359, Note_on_c, 0, 67, 0
1, 48360, Note_on_c, 0, 68, 80
1, 48479, Note_on_c, 0, 63, 0
1, 48479, Note_on_c, 0, 68, 0
1, 48480, Note_on_c, 0, 62, 80
1, 48600, Note_on_c, 0, 70, 80
1, 48719, Note_on_c, 0, 62, 0
1, 48720, Note_on_c, 0, 67, 80
1, 48839, Note_on_c, 0, 70, 0
1, 48840, Note_on_c, 0, 72, 80
1, 48959, Note_on_c, 0, 67, 0
1, 48959, Note_on_c, 0, 72, 0
1, 48960, Note_on_c, 0, 65, 80
1, 48960, Note_on_c, 0, 70, 80
1, 49079, Note_on_c, 0, 65, 0
1, 49080, Note_on_c, 0, 67, 80
1, 49199, Note_on_c, 0, 67, 0
1, 49199, Note_on_c, 0, 70, 0
1, 49200, Note_on_c, 0, 68, 80
1, 49200, Note_on_c, 0, 77, 80
1, 49439, Note_on_c, 0, 68, 0
1, 49439, Note_on_c, 0, 77, 0
1, 49440, Note_on_c, 0, 79, 80
1, 49560, Note_on_c, 0, 70, 80
1, 49679, Note_on_c, 0, 79, 0
1, 49680, Note_on_c, 0, 74, 80
1, 49799, Note_on_c, 0, 70, 0
1, 49800, Note_on_c, 0, 68, 80
1, 49919, Note_on_c, 0, 68, 0
1, 49919, Note_on_c, 0, 74, 0
1, 49920, Note_on_c, 0, 67, 80
1, 49920, Note_on_c, 0, 75, 80
1, 50039, Note_on_c, 0, 67, 0
1, 50039, Note_on_c, 0, 75, 0
1, 50040, Note_on_c, 0, 70, 80
1, 50040, Note_on_c, 0, 74, 80
1, 50159, Note_on_c, 0, 70, 0
1, 50159, Note_on_c, 0, 74, 0
1, 50160, Note_on_c, 0, 75, 80
1, 50160, Note_on_c, 0, 72, 80
1, 50279, Note_on_c, 0, 75, 0
1, 50280, Note_on_c, 0, 79, 80
1, 50399, Note_on_c, 0, 79, 0
1, 50399, Note_on_c, 0, 72, 0
1, 50400, Note_on_c, 0, 77, 80
1, 50519, Note_on_c, 0, 77, 0
1, 50520, Note_on_c, 0, 75, 80
1, 50520, Note_on_c, 0, 70, 80
1, 50639, Note_on_c, 0, 75, 0
1, 50640, Note_on_c, 0, 74, 80
1, 50759, Note_on_c, 0, 74, 0
1, 50759, Note_on_c, 0, 70, 0
1, 50760, Note_on_c, 0, 72, 80
1, 50879, Note_on_c, 0, 72, 0
1, 50880, Note_on_c, 0, 70, 80
1, 50880, Note_on_c, 0, 74, 80
1, 50999, Note_on_c, 0, 74, 0
1, 51000, Note_on_c, 0, 70, 80
1, 51119, Note_on_c, 0, 70, 0
1, 51120, Note_on_c, 0, 65, 80
1, 51239, Note_on_c, 0, 65, 0
1, 51240, Note_on_c, 0, 62, 80
1, 51359, Note_on_c, 0, 62, 0
1, 51360, Note_on_c, 0, 63, 80
1, 51479, Note_on_c, 0, 63, 0
1, 51480, Note_on_c, 0, 65, 80
1, 51599, Note_on_c, 0, 65, 0
1, 51600, Note_on_c, 0, 67, 80
1, 51719, Note_on_c, 0, 67, 0
1, 51720, Note_on_c, 0, 68, 80
1, 51839, Note_on_c, 0, 68, 0
1, 51840, Note_on_c, 0, 70, 80
1, 51959, Note_on_c, 0, 70, 0
1, 51960, Note_on_c, 0, 68, 80
1, 52019, Note_on_c, 0, 68, 0
1, 52020, Note_on_c, 0, 67, 80
1, 52079, Note_on_c, 0, 67, 0
1, 52080, Note_on_c, 0, 65, 80
1, 52139, Note_on_c, 0, 65, 0
1, 52140, Note_on_c, 0, 67, 80
1, 52199, Note_on_c, 0, 67, 0
1, 52200, Note_on_c, 0, 68, 80
1, 52319, Note_on_c, 0, 68, 0
1, 52320, Note_on_c, 0, 67, 80
1, 52439, Note_on_c, 0, 67, 0
1, 52440, Note_on_c, 0, 65, 80
1, 52499, Note_on_c, 0, 65, 0
1, 52500, Note_on_c, 0, 63, 80
1, 52559, Note_on_c, 0, 63, 0
1, 52560, Note_on_c, 0, 65, 80
1, 52619, Note_on_c, 0, 65, 0
1, 52620, Note_on_c, 0, 63, 80
1, 52679, Note_on_c, 0, 63, 0
1, 52680, Note_on_c, 0, 62, 80
1, 52799, Note_on_c, 0, 62, 0
1, 52799, Note_on_c, 0, 70, 0
1, 52800, Note_on_c, 0, 63, 80
1, 52920, Note_on_c, 0, 72, 80
1, 52979, Note_on_c, 0, 72, 0
1, 52980, Note_on_c, 0, 74, 80
1, 53039, Note_on_c, 0, 63, 0
1, 53039, Note_on_c, 0, 74, 0
1, 53040, Note_on_c, 0, 75, 80
1, 53099, Note_on_c, 0, 75, 0
1, 53100, Note_on_c, 0, 74, 80
1, 53159, Note_on_c, 0, 74, 0
1, 53160, Note_on_c, 0, 72, 80
1, 53279, Note_on_c, 0, 72, 0
1, 53280, Note_on_c, 0, 74, 80
1, 53399, Note_on_c, 0, 74, 0
1, 53400, Note_on_c, 0, 75, 80
1, 53459, Note_on_c, 0, 75, 0
1, 53460, Note_on_c, 0, 77, 80
1, 53519, Note_on_c, 0, 77, 0
1, 53520, Note_on_c, 0, 75, 80
1, 53579, Note_on_c, 0, 75, 0
1, 53580, Note_on_c, 0, 77, 80
1, 53639, Note_on_c, 0, 77, 0
1, 53640, Note_on_c, 0, 79, 80
1, 53759, Note_on_c, 0, 79, 0
1, 53760, Note_on_c, 0, 77, 80
1, 53880, Note_on_c, 0, 68, 80
1, 53999, Note_on_c, 0, 68, 0
1, 53999, Note_on_c, 0, 77, 0
1, 54000, Note_on_c, 0, 68, 80
1, 54119, Note_on_c, 0, 68, 0
1, 54120, Note_on_c, 0, 67, 80
1, 54239, Note_on_c, 0, 67, 0
1, 54240, Note_on_c, 0, 66, 80
1, 54359, Note_on_c, 0, 66, 0
1, 54360, Note_on_c, 0, 65, 80
1, 54479, Note_on_c, 0, 65, 0
1, 54480, Note_on_c, 0, 74, 80
1, 54599, Note_on_c, 0, 74, 0
1, 54600, Note_on_c, 0, 65, 80
1, 54719, Note_on_c, 0, 65, 0
1, 54720, Note_on_c, 0, 63, 80
1, 54840, Note_on_c, 0, 72, 80
1, 54959, Note_on_c, 0, 72, 0
1, 55080, Note_on_c, 0, 74, 80
1, 55199, Note_on_c, 0, 74, 0
1, 55200, Note_on_c, 0, 75, 80
1, 55319, Note_on_c, 0, 63, 0
1, 55319, Note_on_c, 0, 75, 0
1, 55320, Note_on_c, 0, 62, 80
1, 55320, Note_on_c, 0, 76, 80
1, 55439, Note_on_c, 0, 62, 0
1, 55439, Note_on_c, 0, 76, 0
1, 55440, Note_on_c, 0, 60, 80
1, 55440, Note_on_c, 0, 67, 80
1, 55559, Note_on_c, 0, 60, 0
1, 55559, Note_on_c, 0, 67, 0
1, 55560, Note_on_c, 0, 58, 80
1, 55560, Note_on_c, 0, 76, 80
1, 55679, Note_on_c, 0, 58, 0
1, 55679, Note_on_c, 0, 76, 0
1, 55680, Note_on_c, 0, 57, 80
1, 55680, Note_on_c, 0, 78, 80
1, 55799, Note_on_c, 0, 57, 0
1, 55800, Note_on_c, 0, 58, 80
1, 55919, Note_on_c, 0, 58, 0
1, 55920, Note_on_c, 0, 60, 80
1, 56039, Note_on_c, 0, 60, 0
1, 56040, Note_on_c, 0, 62, 80
1, 56159, Note_on_c, 0, 62, 0
1, 56159, Note_on_c, 0, 78, 0
1, 56160, Note_on_c, 0, 63, 80
1, 56279, Note_on_c, 0, 63, 0
1, 56280, Note_on_c, 0, 62, 80
1, 56280, Note_on_c, 0, 79, 80
1, 56399, Note_on_c, 0, 62, 0
1, 56399, Note_on_c, 0, 79, 0
1, 56400, Note_on_c, 0, 63, 80
1, 56400, Note_on_c, 0, 81, 80
1, 56519, Note_on_c, 0, 81, 0
1, 56520, Note_on_c, 0, 82, 80
1, 56639, Note_on_c, 0, 82, 0
1, 56640, Note_on_c, 0, 84, 80
1, 56759, Note_on_c, 0, 84, 0
1, 56759, Note_on_c, 0, 63, 0
1, 56760, Note_on_c, 0, 60, 80
1, 56760, Note_on_c, 0, 82, 80
1, 56879, Note_on_c, 0, 60, 0
1, 56879, Note_on_c, 0, 82, 0
1, 56880, Note_on_c, 0, 62, 80
1, 56880, Note_on_c, 0, 81, 80
1, 56999, Note_on_c, 0, 81, 0
1, 57000, Note_on_c, 0, 79, 80
1, 57119, Note_on_c, 0, 62, 0
1, 57119, Note_on_c, 0, 79, 0
1, 57120, Note_on_c, 0, 78, 80
1, 57239, Note_on_c, 0, 78, 0
1, 57240, Note_on_c, 0, 79, 80
1, 57359, Note_on_c, 0, 79, 0
1, 57360, Note_on_c, 0, 69, 80
1, 57360, Note_on_c, 0, 78, 80
1, 57599, Note_on_c, 0, 69, 0
1, 57599, Note_on_c, 0, 78, 0
1, 57600, Note_on_c, 0, 74, 80
1, 57720, Note_on_c, 0, 81, 80
1, 57839, Note_on_c, 0, 81, 0
1, 57840, Note_on_c, 0, 79, 80
1, 57959, Note_on_c, 0, 74, 0
1, 57960, Note_on_c, 0, 72, 80
1, 58079, Note_on_c, 0, 72, 0
1, 58079, Note_on_c, 0, 79, 0
1, 58080, Note_on_c, 0, 70, 80
1, 58199, Note_on_c, 0, 70, 0
1, 58200, Note_on_c, 0, 69, 80
1, 58319, Note_on_c, 0, 69, 0
1, 58320, Note_on_c, 0, 67, 80
1, 58320, Note_on_c, 0, 72, 80
1, 58439, Note_on_c, 0, 67, 0
1, 58440, Note_on_c, 0, 65, 80
1, 58559, Note_on_c, 0, 65, 0
1, 58559, Note_on_c, 0, 72, 0
1, 58560, Note_on_c, 0, 63, 80
1, 58560, Note_on_c, 0, 67, 80
1, 58679, Note_on_c, 0, 63, 0
1, 58680, Note_on_c, 0, 62, 80
1, 58799, Note_on_c, 0, 62, 0
1, 58800, Note_on_c, 0, 60, 80
1, 58919, Note_on_c, 0, 60, 0
1, 58919, Note_on_c, 0, 67, 0
1, 58920, Note_on_c, 0, 63, 80
1, 58920, Note_on_c, 0, 69, 80
1, 59039, Note_on_c, 0, 63, 0
1, 59039, Note_on_c, 0, 69, 0
1, 59040, Note_on_c, 0, 62, 80
1, 59040, Note_on_c, 0, 70, 80
1, 59159, Note_on_c, 0, 62, 0
1, 59159, Note_on_c, 0, 70, 0
1, 59160, Note_on_c, 0, 64, 80
1, 59160, Note_on_c, 0, 72, 80
1, 59279, Note_on_c, 0, 64, 0
1, 59279, Note_on_c, 0, 72, 0
1, 59280, Note_on_c, 0, 66, 80
1, 59280, Note_on_c, 0, 74, 80
1, 59339, Note_on_c, 0, 66, 0
1, 59340, Note_on_c, 0, 67, 80
1, 59399, Note_on_c, 0, 67, 0
1, 59399, Note_on_c, 0, 74, 0
1, 59400, Note_on_c, 0, 57, 80
1, 59400, Note_on_c, 0, 76, 80
1, 59519, Note_on_c, 0, 76, 0
1, 59520, Note_on_c, 0, 78, 80
1, 59639, Note_on_c, 0, 78, 0
1, 59639, Note_on_c, 0, 57, 0
1, 59640, Note_on_c, 0, 63, 80
1, 59640, Note_on_c, 0, 79, 80
1, 59759, Note_on_c, 0, 63, 0
1, 59759, Note_on_c, 0, 79, 0
1, 59760, Note_on_c, 0, 62, 80
1, 59760, Note_on_c, 0, 81, 80
1, 59879, Note_on_c, 0, 62, 0
1, 59879, Note_on_c, 0, 81, 0
1, 59880, Note_on_c, 0, 60, 80
1, 59880, Note_on_c, 0, 78, 80
1, 59999, Note_on_c, 0, 60, 0
1, 59999, Note_on_c, 0, 78, 0
1, 60000, Note_on_c, 0, 58, 80
1, 60000, Note_on_c, 0, 79, 80
1, 60119, Note_on_c, 0, 58, 0
1, 60119, Note_on_c, 0, 79, 0
1, 60120, Note_on_c, 0, 57, 80
1, 60120, Note_on_c, 0, 78, 80
1, 60239, Note_on_c, 0, 57, 0
1, 60239, Note_on_c, 0, 78, 0
1, 60240, Note_on_c, 0, 55, 80
1, 60240, Note_on_c, 0, 76, 80
1, 60299, Note_on_c, 0, 76, 0
1, 60300, Note_on_c, 0, 74, 80
1, 60359, Note_on_c, 0, 55, 0
1, 60359, Note_on_c, 0, 74, 0
1, 60360, Note_on_c, 0, 54, 80
1, 60360, Note_on_c, 0, 84, 80
1, 60479, Note_on_c, 0, 54, 0
1, 60479, Note_on_c, 0, 84, 0
1, 60480, Note_on_c, 0, 55, 80
1, 60600, Note_on_c, 0, 78, 80
1, 60719, Note_on_c, 0, 78, 0
1, 60720, Note_on_c, 0, 79, 80
1, 60839, Note_on_c, 0, 79, 0
1, 60840, Note_on_c, 0, 81, 80
1, 60959, Note_on_c, 0, 55, 0
1, 60959, Note_on_c, 0, 81, 0
1, 60960, Note_on_c, 0, 82, 80
1, 61079, Note_on_c, 0, 82, 0
1, 61080, Note_on_c, 0, 84, 80
1, 61199, Note_on_c, 0, 84, 0
1, 61200, Note_on_c, 0, 86, 80
1, 61439, Note_on_c, 0, 86, 0
1, 61440, End_track
2, 0, Start_track
2, 0, Key_signature, -2, "major"
2, 0, Note_on_c, 0, 55, 80
2, 239, Note_on_c, 0, 55, 0
2, 240, Note_on_c, 0, 43, 80
2, 479, Note_on_c, 0, 43, 0
2, 720, Note_on_c, 0, 55, 80
2, 959, Note_on_c, 0, 55, 0
2, 1080, Note_on_c, 0, 54, 80
2, 1139, Note_on_c, 0, 54, 0
2, 1140, Note_on_c, 0, 52, 80
2, 1199, Note_on_c, 0, 52, 0
2, 1200, Note_on_c, 0, 54, 80
2, 1439, Note_on_c, 0, 54, 0
2, 1680, Note_on_c, 0, 50, 80
2, 1919, Note_on_c, 0, 50, 0
2, 1920, Note_on_c, 0, 51, 80
2, 2159, Note_on_c, 0, 51, 0
2, 2160, Note_on_c, 0, 52, 80
2, 2399, Note_on_c, 0, 52, 0
2, 2640, Note_on_c, 0, 63, 80
2, 2879, Note_on_c, 0, 63, 0
2, 2880, Note_on_c, 0, 62, 80
2, 2999, Note_on_c, 0, 62, 0
2, 3000, Note_on_c, 0, 61, 80
2, 3119, Note_on_c, 0, 61, 0
2, 3120, Note_on_c, 0, 62, 80
2, 3359, Note_on_c, 0, 62, 0
2, 3480, Note_on_c, 0, 60, 80
2, 3599, Note_on_c, 0, 60, 0
2, 3600, Note_on_c, 0, 58, 80
2, 3719, Note_on_c, 0, 58, 0
2, 3720, Note_on_c, 0, 57, 80
2, 3839, Note_on_c, 0, 57, 0
2, 3840, Note_on_c, 0, 55, 80
2, 3899, Note_on_c, 0, 55, 0
2, 3900, Note_on_c, 0, 54, 80
2, 3959, Note_on_c, 0, 54, 0
2, 3960, Note_on_c, 0, 55, 80
2, 4079, Note_on_c, 0, 55, 0
2, 4080, Note_on_c, 0, 48, 80
2, 4199, Note_on_c, 0, 48, 0
2, 4200, Note_on_c, 0, 55, 80
2, 4319, Note_on_c, 0, 55, 0
2, 4320, Note_on_c, 0, 60, 80
2, 4439, Note_on_c, 0, 60, 0
2, 4440, Note_on_c, 0, 54, 80
2, 4559, Note_on_c, 0, 54, 0
2, 4560, Note_on_c, 0, 54, 80
2, 4679, Note_on_c, 0, 54, 0
2, 4680, Note_on_c, 0, 55, 80
2, 4799, Note_on_c, 0, 55, 0
2, 4800, Note_on_c, 0, 55, 80
2, 4919, Note_on_c, 0, 55, 0
2, 4920, Note_on_c, 0, 54, 80
2, 5039, Note_on_c, 0, 54, 0
2, 5040, Note_on_c, 0, 55, 80
2, 5159, Note_on_c, 0, 55, 0
2, 5160, Note_on_c, 0, 57, 80
2, 5279, Note_on_c, 0, 57, 0
2, 5280, Note_on_c, 0, 50, 80
2, 5519, Note_on_c, 0, 50, 0
2, 5520, Note_on_c, 0, 51, 80
2, 5759, Note_on_c, 0, 51, 0
2, 5760, Note_on_c, 0, 46, 80
2, 5999, Note_on_c, 0, 46, 0
2, 6000, Note_on_c, 0, 58, 80
2, 6119, Note_on_c, 0, 58, 0
2, 6120, Note_on_c, 0, 60, 80
2, 6239, Note_on_c, 0, 60, 0
2, 6240, Note_on_c, 0, 62, 80
2, 6479, Note_on_c, 0, 62, 0
2, 6480, Note_on_c, 0, 62, 80
2, 6719, Note_on_c, 0, 62, 0
2, 6720, Note_on_c, 0, 55, 80
2, 6959, Note_on_c, 0, 55, 0
2, 6960, Note_on_c, 0, 46, 80
2, 7019, Note_on_c, 0, 46, 0
2, 7020, Note_on_c, 0, 48, 80
2, 7079, Note_on_c, 0, 48, 0
2, 7080, Note_on_c, 0, 50, 80
2, 7139, Note_on_c, 0, 50, 0
2, 7140, Note_on_c, 0, 46, 80
2, 7199, Note_on_c, 0, 46, 0
2, 7200, Note_on_c, 0, 43, 80
2, 7439, Note_on_c, 0, 43, 0
2, 7800, Note_on_c, 0, 54, 80
2, 7919, Note_on_c, 0, 54, 0
2, 7920, Note_on_c, 0, 55, 80
2, 8039, Note_on_c, 0, 55, 0
2, 8040, Note_on_c, 0, 57, 80
2, 8159, Note_on_c, 0, 57, 0
2, 8160, Note_on_c, 0, 58, 80
2, 8399, Note_on_c, 0, 58, 0
2, 8400, Note_on_c, 0, 57, 80
2, 8639, Note_on_c, 0, 57, 0
2, 8640, Note_on_c, 0, 55, 80
2, 8759, Note_on_c, 0, 55, 0
2, 8760, Note_on_c, 0, 54, 80
2, 8999, Note_on_c, 0, 54, 0
2, 9000, Note_on_c, 0, 52, 80
2, 9119, Note_on_c, 0, 52, 0
2, 9120, Note_on_c, 0, 54, 80
2, 9179, Note_on_c, 0, 54, 0
2, 9180, Note_on_c, 0, 57, 80
2, 9239, Note_on_c, 0, 57, 0
2, 9240, Note_on_c, 0, 55, 80
2, 9479, Note_on_c, 0, 55, 0
2, 9480, Note_on_c, 0, 54, 80
2, 9599, Note_on_c, 0, 54, 0
2, 9600, Note_on_c, 0, 55, 80
2, 9719, Note_on_c, 0, 55, 0
2, 9720, Note_on_c, 0, 57, 80
2, 9839, Note_on_c, 0, 57, 0
2, 9840, Note_on_c, 0, 58, 80
2, 9959, Note_on_c, 0, 58, 0
2, 9960, Note_on_c, 0, 57, 80
2, 10079, Note_on_c, 0, 57, 0
2, 10080, Note_on_c, 0, 55, 80
2, 10139, Note_on_c, 0, 55, 0
2, 10140, Note_on_c, 0, 57, 80
2, 10199, Note_on_c, 0, 57, 0
2, 10200, Note_on_c, 0, 55, 80
2, 10319, Note_on_c, 0, 55, 0
2, 10320, Note_on_c, 0, 53, 80
2, 10379, Note_on_c, 0, 53, 0
2, 10380, Note_on_c, 0, 55, 80
2, 10439, Note_on_c, 0, 55, 0
2, 10440, Note_on_c, 0, 53, 80
2, 10559, Note_on_c, 0, 53, 0
2, 10560, Note_on_c, 0, 52, 80
2, 10679, Note_on_c, 0, 52, 0
2, 10680, Note_on_c, 0, 53, 80
2, 10799, Note_on_c, 0, 53, 0
2, 10800, Note_on_c, 0, 55, 80
2, 10919, Note_on_c, 0, 55, 0
2, 10920, Note_on_c, 0, 52, 80
2, 11039, Note_on_c, 0, 52, 0
2, 11040, Note_on_c, 0, 49, 80
2, 11159, Note_on_c, 0, 49, 0
2, 11160, Note_on_c, 0, 50, 80
2, 11279, Note_on_c, 0, 50, 0
2, 11280, Note_on_c, 0, 52, 80
2, 11399, Note_on_c, 0, 52, 0
2, 11400, Note_on_c, 0, 49, 80
2, 11519, Note_on_c, 0, 49, 0
2, 11520, Note_on_c, 0, 53, 80
2, 11579, Note_on_c, 0, 53, 0
2, 11580, Note_on_c, 0, 52, 80
2, 11639, Note_on_c, 0, 52, 0
2, 11640, Note_on_c, 0, 50, 80
2, 11759, Note_on_c, 0, 50, 0
2, 11760, Note_on_c, 0, 55, 80
2, 12239, Note_on_c, 0, 55, 0
2, 12240, Note_on_c, 0, 54, 80
2, 12479, Note_on_c, 0, 54, 0
2, 12480, Note_on_c, 0, 58, 80
2, 12719, Note_on_c, 0, 58, 0
2, 12720, Note_on_c, 0, 52, 80
2, 12959, Note_on_c, 0, 52, 0
2, 12960, Note_on_c, 0, 57, 80
2, 13199, Note_on_c, 0, 57, 0
2, 13200, Note_on_c, 0, 49, 80
2, 13439, Note_on_c, 0, 49, 0
2, 13440, Note_on_c, 0, 50, 80
2, 13679, Note_on_c, 0, 50, 0
2, 13680, Note_on_c, 0, 53, 80
2, 13799, Note_on_c, 0, 53, 0
2, 13800, Note_on_c, 0, 52, 80
2, 13919, Note_on_c, 0, 52, 0
2, 13920, Note_on_c, 0, 53, 80
2, 14159, Note_on_c, 0, 53, 0
2, 14160, Note_on_c, 0, 57, 80
2, 14399, Note_on_c, 0, 57, 0
2, 14400, Note_on_c, 0, 62, 80
2, 14519, Note_on_c, 0, 62, 0
2, 14520, Note_on_c, 0, 60, 80
2, 14579, Note_on_c, 0, 60, 0
2, 14580, Note_on_c, 0, 58, 80
2, 14639, Note_on_c, 0, 58, 0
2, 14640, Note_on_c, 0, 57, 80
2, 14699, Note_on_c, 0, 57, 0
2, 14700, Note_on_c, 0, 55, 80
2, 14759, Note_on_c, 0, 55, 0
2, 14760, Note_on_c, 0, 57, 80
2, 14879, Note_on_c, 0, 57, 0
2, 14880, Note_on_c, 0, 50, 80
2, 15359, Note_on_c, 0, 50, 0
2, 15360, Note_on_c, 0, 55, 80
2, 15599, Note_on_c, 0, 55, 0
2, 15600, Note_on_c, 0, 43, 80
2, 15839, Note_on_c, 0, 43, 0
2, 16080, Note_on_c, 0, 55, 80
2, 16319, Note_on_c, 0, 55, 0
2, 16440, Note_on_c, 0, 54, 80
2, 16499, Note_on_c, 0, 54, 0
2, 16500, Note_on_c, 0, 52, 80
2, 16559, Note_on_c, 0, 52, 0
2, 16560, Note_on_c, 0, 54, 80
2, 16799, Note_on_c, 0, 54, 0
2, 17040, Note_on_c, 0, 50, 80
2, 17279, Note_on_c, 0, 50, 0
2, 17280, Note_on_c, 0, 51, 80
2, 17519, Note_on_c, 0, 51, 0
2, 17520, Note_on_c, 0, 52, 80
2, 17759, Note_on_c, 0, 52, 0
2, 18000, Note_on_c, 0, 63, 80
2, 18239, Note_on_c, 0, 63, 0
2, 18240, Note_on_c, 0, 62, 80
2, 18359, Note_on_c, 0, 62, 0
2, 18360, Note_on_c, 0, 61, 80
2, 18479, Note_on_c, 0, 61, 0
2, 18480, Note_on_c, 0, 62, 80
2, 18719, Note_on_c, 0, 62, 0
2, 18840, Note_on_c, 0, 60, 80
2, 18959, Note_on_c, 0, 60, 0
2, 18960, Note_on_c, 0, 58, 80
2, 19079, Note_on_c, 0, 58, 0
2, 19080, Note_on_c, 0, 57, 80
2, 19199, Note_on_c, 0, 57, 0
2, 19200, Note_on_c, 0, 55, 80
2, 19259, Note_on_c, 0, 55, 0
2, 19260, Note_on_c, 0, 54, 80
2, 19319, Note_on_c, 0, 54, 0
2, 19320, Note_on_c, 0, 55, 80
2, 19439, Note_on_c, 0, 55, 0
2, 19440, Note_on_c, 0, 48, 80
2, 19559, Note_on_c, 0, 48, 0
2, 19560, Note_on_c, 0, 55, 80
2, 19679, Note_on_c, 0, 55, 0
2, 19680, Note_on_c, 0, 60, 80
2, 19799, Note_on_c, 0, 60, 0
2, 19800, Note_on_c, 0, 54, 80
2, 19919, Note_on_c, 0, 54, 0
2, 19920, Note_on_c, 0, 54, 80
2, 20039, Note_on_c, 0, 54, 0
2, 20040, Note_on_c, 0, 55, 80
2, 20159, Note_on_c, 0, 55, 0
2, 20160, Note_on_c, 0, 55, 80
2, 20279, Note_on_c, 0, 55, 0
2, 20280, Note_on_c, 0, 54, 80
2, 20399, Note_on_c, 0, 54, 0
2, 20400, Note_on_c, 0, 55, 80
2, 20519, Note_on_c, 0, 55, 0
2, 20520, Note_on_c, 0, 57, 80
2, 20639, Note_on_c, 0, 57, 0
2, 20640, Note_on_c, 0, 50, 80
2, 20879, Note_on_c, 0, 50, 0
2, 20880, Note_on_c, 0, 51, 80
2, 21119, Note_on_c, 0, 51, 0
2, 21120, Note_on_c, 0, 46, 80
2, 21359, Note_on_c, 0, 46, 0
2, 21360, Note_on_c, 0, 58, 80
2, 21479, Note_on_c, 0, 58, 0
2, 21480, Note_on_c, 0, 60, 80
2, 21599, Note_on_c, 0, 60, 0
2, 21600, Note_on_c, 0, 62, 80
2, 21839, Note_on_c, 0, 62, 0
2, 21840, Note_on_c, 0, 62, 80
2, 22079, Note_on_c, 0, 62, 0
2, 22080, Note_on_c, 0, 55, 80
2, 22319, Note_on_c, 0, 55, 0
2, 22320, Note_on_c, 0, 46, 80
2, 22379, Note_on_c, 0, 46, 0
2, 22380, Note_on_c, 0, 48, 80
2, 22439, Note_on_c, 0, 48, 0
2, 22440, Note_on_c, 0, 50, 80
2, 22499, Note_on_c, 0, 50, 0
2, 22500, Note_on_c, 0, 46, 80
2, 22559, Note_on_c, 0, 46, 0
2, 22560, Note_on_c, 0, 43, 80
2, 22799, Note_on_c, 0, 43, 0
2, 23160, Note_on_c, 0, 54, 80
2, 23279, Note_on_c, 0, 54, 0
2, 23280, Note_on_c, 0, 55, 80
2, 23399, Note_on_c, 0, 55, 0
2, 23400, Note_on_c, 0, 57, 80
2, 23519, Note_on_c, 0, 57, 0
2, 23520, Note_on_c, 0, 58, 80
2, 23759, Note_on_c, 0, 58, 0
2, 23760, Note_on_c, 0, 57, 80
2, 23999, Note_on_c, 0, 57, 0
2, 24000, Note_on_c, 0, 55, 80
2, 24119, Note_on_c, 0, 55, 0
2, 24120, Note_on_c, 0, 54, 80
2, 24359, Note_on_c, 0, 54, 0
2, 24360, Note_on_c, 0, 52, 80
2, 24479, Note_on_c, 0, 52, 0
2, 24480, Note_on_c, 0, 54, 80
2, 24539, Note_on_c, 0, 54, 0
2, 24540, Note_on_c, 0, 57, 80
2, 24599, Note_on_c, 0, 57, 0
2, 24600, Note_on_c, 0, 55, 80
2, 24839, Note_on_c, 0, 55, 0
2, 24840, Note_on_c, 0, 54, 80
2, 24959, Note_on_c, 0, 54, 0
2, 24960, Note_on_c, 0, 55, 80
2, 25079, Note_on_c, 0, 55, 0
2, 25080, Note_on_c, 0, 57, 80
2, 25199, Note_on_c, 0, 57, 0
2, 25200, Note_on_c, 0, 58, 80
2, 25319, Note_on_c, 0, 58, 0
2, 25320, Note_on_c, 0, 57, 80
2, 25439, Note_on_c, 0, 57, 0
2, 25440, Note_on_c, 0, 55, 80
2, 25499, Note_on_c, 0, 55, 0
2, 25500, Note_on_c, 0, 57, 80
2, 25559, Note_on_c, 0, 57, 0
2, 25560, Note_on_c, 0, 55, 80
2, 25679, Note_on_c, 0, 55, 0
2, 25680, Note_on_c, 0, 53, 80
2, 25739, Note_on_c, 0, 53, 0
2, 25740, Note_on_c, 0, 55, 80
2, 25799, Note_on_c, 0, 55, 0
2, 25800, Note_on_c, 0, 53, 80
2, 25919, Note_on_c, 0, 53, 0
2, 25920, Note_on_c, 0, 52, 80
2, 26039, Note_on_c, 0, 52, 0
2, 26040, Note_on_c, 0, 53, 80
2, 26159, Note_on_c, 0, 53, 0
2, 26160, Note_on_c, 0, 55, 80
2, 26279, Note_on_c, 0, 55, 0
2, 26280, Note_on_c, 0, 52, 80
2, 26399, Note_on_c, 0, 52, 0
2, 26400, Note_on_c, 0, 49, 80
2, 26519, Note_on_c, 0, 49, 0
2, 26520, Note_on_c, 0, 50, 80
2, 26639, Note_on_c, 0, 50, 0
2, 26640, Note_on_c, 0, 52, 80
2, 26759, Note_on_c, 0, 52, 0
2, 26760, Note_on_c, 0, 49, 80
2, 26879, Note_on_c, 0, 49, 0
2, 26880, Note_on_c, 0, 53, 80
2, 26939, Note_on_c, 0, 53, 0
2, 26940, Note_on_c, 0, 52, 80
2, 26999, Note_on_c, 0, 52, 0
2, 27000, Note_on_c, 0, 50, 80
2, 27119, Note_on_c, 0, 50, 0
2, 27120, Note_on_c, 0, 55, 80
2, 27599, Note_on_c, 0, 55, 0
2, 27600, Note_on_c, 0, 54, 80
2, 27839, Note_on_c, 0, 54, 0
2, 27840, Note_on_c, 0, 58, 80
2, 28079, Note_on_c, 0, 58, 0
2, 28080, Note_on_c, 0, 52, 80
2, 28319, Note_on_c, 0, 52, 0
2, 28320, Note_on_c, 0, 57, 80
2, 28559, Note_on_c, 0, 57, 0
2, 28560, Note_on_c, 0, 49, 80
2, 28799, Note_on_c, 0, 49, 0
2, 28800, Note_on_c, 0, 50, 80
2, 29039, Note_on_c, 0, 50, 0
2, 29040, Note_on_c, 0, 53, 80
2, 29159, Note_on_c, 0, 53, 0
2, 29160, Note_on_c, 0, 52, 80
2, 29279, Note_on_c, 0, 52, 0
2, 29280, Note_on_c, 0, 53, 80
2, 29519, Note_on_c, 0, 53, 0
2, 29520, Note_on_c, 0, 57, 80
2, 29759, Note_on_c, 0, 57, 0
2, 29760, Note_on_c, 0, 62, 80
2, 29879, Note_on_c, 0, 62, 0
2, 29880, Note_on_c, 0, 60, 80
2, 29939, Note_on_c, 0, 60, 0
2, 29940, Note_on_c, 0, 58, 80
2, 29999, Note_on_c, 0, 58, 0
2, 30000, Note_on_c, 0, 57, 80
2, 30059, Note_on_c, 0, 57, 0
2, 30060, Note_on_c, 0, 55, 80
2, 30119, Note_on_c, 0, 55, 0
2, 30120, Note_on_c, 0, 57, 80
2, 30239, Note_on_c, 0, 57, 0
2, 30240, Note_on_c, 0, 50, 80
2, 30719, Note_on_c, 0, 50, 0
2, 30720, Note_on_c, 0, 50, 80
2, 30839, Note_on_c, 0, 50, 0
2, 30840, Note_on_c, 0, 63, 80
2, 30959, Note_on_c, 0, 63, 0
2, 30960, Note_on_c, 0, 63, 80
2, 31079, Note_on_c, 0, 63, 0
2, 31080, Note_on_c, 0, 62, 80
2, 31199, Note_on_c, 0, 62, 0
2, 31200, Note_on_c, 0, 62, 80
2, 31319, Note_on_c, 0, 62, 0
2, 31320, Note_on_c, 0, 60, 80
2, 31439, Note_on_c, 0, 60, 0
2, 31440, Note_on_c, 0, 60, 80
2, 31559, Note_on_c, 0, 60, 0
2, 31560, Note_on_c, 0, 58, 80
2, 31679, Note_on_c, 0, 58, 0
2, 31680, Note_on_c, 0, 58, 80
2, 31799, Note_on_c, 0, 58, 0
2, 31800, Note_on_c, 0, 54, 80
2, 31919, Note_on_c, 0, 54, 0
2, 31920, Note_on_c, 0, 54, 80
2, 32039, Note_on_c, 0, 54, 0
2, 32040, Note_on_c, 0, 55, 80
2, 32159, Note_on_c, 0, 55, 0
2, 32160, Note_on_c, 0, 55, 80
2, 32279, Note_on_c, 0, 55, 0
2, 32280, Note_on_c, 0, 50, 80
2, 32399, Note_on_c, 0, 50, 0
2, 32400, Note_on_c, 0, 50, 80
2, 32639, Note_on_c, 0, 50, 0
2, 32760, Note_on_c, 0, 48, 80
2, 32819, Note_on_c, 0, 48, 0
2, 32820, Note_on_c, 0, 46, 80
2, 32879, Note_on_c, 0, 46, 0
2, 32880, Note_on_c, 0, 48, 80
2, 32999, Note_on_c, 0, 48, 0
2, 33000, Note_on_c, 0, 41, 80
2, 33119, Note_on_c, 0, 41, 0
2, 33120, Note_on_c, 0, 53, 80
2, 33239, Note_on_c, 0, 53, 0
2, 33240, Note_on_c, 0, 46, 80
2, 33359, Note_on_c, 0, 46, 0
2, 33360, Note_on_c, 0, 51, 80
2, 33599, Note_on_c, 0, 51, 0
2, 33720, Note_on_c, 0, 50, 80
2, 33779, Note_on_c, 0, 50, 0
2, 33780, Note_on_c, 0, 48, 80
2, 33839, Note_on_c, 0, 48, 0
2, 33840, Note_on_c, 0, 50, 80
2, 33899, Note_on_c, 0, 50, 0
2, 33900, Note_on_c, 0, 48, 80
2, 33959, Note_on_c, 0, 48, 0
2, 33960, Note_on_c, 0, 46, 80
2, 34079, Note_on_c, 0, 46, 0
2, 34080, Note_on_c, 0, 51, 80
2, 34199, Note_on_c, 0, 51, 0
2, 34200, Note_on_c, 0, 43, 80
2, 34319, Note_on_c, 0, 43, 0
2, 34320, Note_on_c, 0, 44, 80
2, 34439, Note_on_c, 0, 44, 0
2, 34440, Note_on_c, 0, 46, 80
2, 34559, Note_on_c, 0, 46, 0
2, 34560, Note_on_c, 0, 36, 80
2, 34679, Note_on_c, 0, 36, 0
2, 34680, Note_on_c, 0, 43, 80
2, 34799, Note_on_c, 0, 43, 0
2, 34800, Note_on_c, 0, 48, 80
2, 34919, Note_on_c, 0, 48, 0
2, 34920, Note_on_c, 0, 46, 80
2, 35039, Note_on_c, 0, 46, 0
2, 35040, Note_on_c, 0, 44, 80
2, 35159, Note_on_c, 0, 44, 0
2, 35160, Note_on_c, 0, 43, 80
2, 35279, Note_on_c, 0, 43, 0
2, 35280, Note_on_c, 0, 44, 80
2, 35519, Note_on_c, 0, 44, 0
2, 35640, Note_on_c, 0, 56, 80
2, 35759, Note_on_c, 0, 56, 0
2, 35760, Note_on_c, 0, 58, 80
2, 35879, Note_on_c, 0, 58, 0
2, 35880, Note_on_c, 0, 56, 80
2, 35999, Note_on_c, 0, 56, 0
2, 36000, Note_on_c, 0, 55, 80
2, 36119, Note_on_c, 0, 55, 0
2, 36120, Note_on_c, 0, 53, 80
2, 36239, Note_on_c, 0, 53, 0
2, 36240, Note_on_c, 0, 51, 80
2, 36359, Note_on_c, 0, 51, 0
2, 36360, Note_on_c, 0, 53, 80
2, 36479, Note_on_c, 0, 53, 0
2, 36480, Note_on_c, 0, 55, 80
2, 36599, Note_on_c, 0, 55, 0
2, 36600, Note_on_c, 0, 56, 80
2, 36719, Note_on_c, 0, 56, 0
2, 36720, Note_on_c, 0, 58, 80
2, 36959, Note_on_c, 0, 58, 0
2, 36960, Note_on_c, 0, 46, 80
2, 37319, Note_on_c, 0, 46, 0
2, 37320, Note_on_c, 0, 56, 80
2, 37439, Note_on_c, 0, 56, 0
2, 37440, Note_on_c, 0, 55, 80
2, 37559, Note_on_c, 0, 55, 0
2, 37560, Note_on_c, 0, 53, 80
2, 37679, Note_on_c, 0, 53, 0
2, 37680, Note_on_c, 0, 53, 80
2, 37799, Note_on_c, 0, 53, 0
2, 37800, Note_on_c, 0, 51, 80
2, 37919, Note_on_c, 0, 51, 0
2, 37920, Note_on_c, 0, 53, 80
2, 38039, Note_on_c, 0, 53, 0
2, 38040, Note_on_c, 0, 55, 80
2, 38159, Note_on_c, 0, 55, 0
2, 38160, Note_on_c, 0, 55, 80
2, 38279, Note_on_c, 0, 55, 0
2, 38280, Note_on_c, 0, 56, 80
2, 38399, Note_on_c, 0, 56, 0
2, 38400, Note_on_c, 0, 48, 80
2, 38639, Note_on_c, 0, 48, 0
2, 38640, Note_on_c, 0, 47, 80
2, 38879, Note_on_c, 0, 47, 0
2, 39000, Note_on_c, 0, 45, 80
2, 39119, Note_on_c, 0, 45, 0
2, 39120, Note_on_c, 0, 47, 80
2, 39239, Note_on_c, 0, 47, 0
2, 39240, Note_on_c, 0, 43, 80
2, 39359, Note_on_c, 0, 43, 0
2, 39360, Note_on_c, 0, 48, 80
2, 39599, Note_on_c, 0, 48, 0
2, 39600, Note_on_c, 0, 60, 80
2, 39839, Note_on_c, 0, 60, 0
2, 40080, Note_on_c, 0, 48, 80
2, 40319, Note_on_c, 0, 48, 0
2, 40440, Note_on_c, 0, 62, 80
2, 40559, Note_on_c, 0, 62, 0
2, 40560, Note_on_c, 0, 63, 80
2, 40679, Note_on_c, 0, 63, 0
2, 40680, Note_on_c, 0, 58, 80
2, 40799, Note_on_c, 0, 58, 0
2, 40800, Note_on_c, 0, 57, 80
2, 40919, Note_on_c, 0, 57, 0
2, 40920, Note_on_c, 0, 58, 80
2, 41039, Note_on_c, 0, 58, 0
2, 41040, Note_on_c, 0, 60, 80
2, 41159, Note_on_c, 0, 60, 0
2, 41160, Note_on_c, 0, 55, 80
2, 41279, Note_on_c, 0, 55, 0
2, 41520, Note_on_c, 0, 54, 80
2, 41639, Note_on_c, 0, 54, 0
2, 41640, Note_on_c, 0, 55, 80
2, 41759, Note_on_c, 0, 55, 0
2, 41760, Note_on_c, 0, 57, 80
2, 41879, Note_on_c, 0, 57, 0
2, 41880, Note_on_c, 0, 58, 80
2, 41939, Note_on_c, 0, 58, 0
2, 41940, Note_on_c, 0, 60, 80
2, 41999, Note_on_c, 0, 60, 0
2, 42000, Note_on_c, 0, 62, 80
2, 42059, Note_on_c, 0, 62, 0
2, 42060, Note_on_c, 0, 63, 80
2, 42119, Note_on_c, 0, 63, 0
2, 42120, Note_on_c, 0, 60, 80
2, 42239, Note_on_c, 0, 60, 0
2, 42240, Note_on_c, 0, 58, 80
2, 42299, Note_on_c, 0, 58, 0
2, 42300, Note_on_c, 0, 62, 80
2, 42359, Note_on_c, 0, 62, 0
2, 42360, Note_on_c, 0, 60, 80
2, 42479, Note_on_c, 0, 60, 0
2, 42480, Note_on_c, 0, 58, 80
2, 42539, Note_on_c, 0, 58, 0
2, 42540, Note_on_c, 0, 60, 80
2, 42599, Note_on_c, 0, 60, 0
2, 42600, Note_on_c, 0, 57, 80
2, 42719, Note_on_c, 0, 57, 0
2, 42720, Note_on_c, 0, 55, 80
2, 42779, Note_on_c, 0, 55, 0
2, 42780, Note_on_c, 0, 57, 80
2, 42839, Note_on_c, 0, 57, 0
2, 42840, Note_on_c, 0, 53, 80
2, 42959, Note_on_c, 0, 53, 0
2, 42960, Note_on_c, 0, 51, 80
2, 43019, Note_on_c, 0, 51, 0
2, 43020, Note_on_c, 0, 53, 80
2, 43079, Note_on_c, 0, 53, 0
2, 43080, Note_on_c, 0, 50, 80
2, 43199, Note_on_c, 0, 50, 0
2, 43200, Note_on_c, 0, 48, 80
2, 43319, Note_on_c, 0, 48, 0
2, 43320, Note_on_c, 0, 51, 80
2, 43379, Note_on_c, 0, 51, 0
2, 43380, Note_on_c, 0, 50, 80
2, 43439, Note_on_c, 0, 50, 0
2, 43440, Note_on_c, 0, 51, 80
2, 43559, Note_on_c, 0, 51, 0
2, 43560, Note_on_c, 0, 42, 80
2, 43679, Note_on_c, 0, 42, 0
2, 43680, Note_on_c, 0, 43, 80
2, 43919, Note_on_c, 0, 43, 0
2, 44040, Note_on_c, 0, 48, 80
2, 44159, Note_on_c, 0, 48, 0
2, 44160, Note_on_c, 0, 50, 80
2, 44399, Note_on_c, 0, 50, 0
2, 44520, Note_on_c, 0, 51, 80
2, 44639, Note_on_c, 0, 51, 0
2, 44640, Note_on_c, 0, 48, 80
2, 44879, Note_on_c, 0, 48, 0
2, 44880, Note_on_c, 0, 50, 80
2, 45119, Note_on_c, 0, 50, 0
2, 45120, Note_on_c, 0, 55, 80
2, 45239, Note_on_c, 0, 55, 0
2, 45240, Note_on_c, 0, 50, 80
2, 45299, Note_on_c, 0, 50, 0
2, 45300, Note_on_c, 0, 48, 80
2, 45359, Note_on_c, 0, 48, 0
2, 45360, Note_on_c, 0, 46, 80
2, 45419, Note_on_c, 0, 46, 0
2, 45420, Note_on_c, 0, 48, 80
2, 45479, Note_on_c, 0, 48, 0
2, 45480, Note_on_c, 0, 45, 80
2, 45599, Note_on_c, 0, 45, 0
2, 45600, Note_on_c, 0, 43, 80
2, 46079, Note_on_c, 0, 43, 0
2, 46080, Note_on_c, 0, 50, 80
2, 46199, Note_on_c, 0, 50, 0
2, 46200, Note_on_c, 0, 63, 80
2, 46319, Note_on_c, 0, 63, 0
2, 46320, Note_on_c, 0, 63, 80
2, 46439, Note_on_c, 0, 63, 0
2, 46440, Note_on_c, 0, 62, 80
2, 46559, Note_on_c, 0, 62, 0
2, 46560, Note_on_c, 0, 62, 80
2, 46679, Note_on_c, 0, 62, 0
2, 46680, Note_on_c, 0, 60, 80
2, 46799, Note_on_c, 0, 60, 0
2, 46800, Note_on_c, 0, 60, 80
2, 46919, Note_on_c, 0, 60, 0
2, 46920, Note_on_c, 0, 58, 80
2, 47039, Note_on_c, 0, 58, 0
2, 47040, Note_on_c, 0, 58, 80
2, 47159, Note_on_c, 0, 58, 0
2, 47160, Note_on_c, 0, 54, 80
2, 47279, Note_on_c, 0, 54, 0
2, 47280, Note_on_c, 0, 54, 80
2, 47399, Note_on_c, 0, 54, 0
2, 47400, Note_on_c, 0, 55, 80
2, 47519, Note_on_c, 0, 55, 0
2, 47520, Note_on_c, 0, 55, 80
2, 47639, Note_on_c, 0, 55, 0
2, 47640, Note_on_c, 0, 50, 80
2, 47759, Note_on_c, 0, 50, 0
2, 47760, Note_on_c, 0, 50, 80
2, 47999, Note_on_c, 0, 50, 0
2, 48120, Note_on_c, 0, 48, 80
2, 48179, Note_on_c, 0, 48, 0
2, 48180, Note_on_c, 0, 46, 80
2, 48239, Note_on_c, 0, 46, 0
2, 48240, Note_on_c, 0, 48, 80
2, 48359, Note_on_c, 0, 48, 0
2, 48360, Note_on_c, 0, 41, 80
2, 48479, Note_on_c, 0, 41, 0
2, 48480, Note_on_c, 0, 53, 80
2, 48599, Note_on_c, 0, 53, 0
2, 48600, Note_on_c, 0, 46, 80
2, 48719, Note_on_c, 0, 46, 0
2, 48720, Note_on_c, 0, 51, 80
2, 48959, Note_on_c, 0, 51, 0
2, 49080, Note_on_c, 0, 50, 80
2, 49139, Note_on_c, 0, 50, 0
2, 49140, Note_on_c, 0, 48, 80
2, 49199, Note_on_c, 0, 48, 0
2, 49200, Note_on_c, 0, 50, 80
2, 49259, Note_on_c, 0, 50, 0
2, 49260, Note_on_c, 0, 48, 80
2, 49319, Note_on_c, 0, 48, 0
2, 49320, Note_on_c, 0, 46, 80
2, 49439, Note_on_c, 0, 46, 0
2, 49440, Note_on_c, 0, 51, 80
2, 49559, Note_on_c, 0, 51, 0
2, 49560, Note_on_c, 0, 43, 80
2, 49679, Note_on_c, 0, 43, 0
2, 49680, Note_on_c, 0, 44, 80
2, 49799, Note_on_c, 0, 44, 0
2, 49800, Note_on_c, 0, 46, 80
2, 49919, Note_on_c, 0, 46, 0
2, 49920, Note_on_c, 0, 36, 80
2, 50039, Note_on_c, 0, 36, 0
2, 50040, Note_on_c, 0, 43, 80
2, 50159, Note_on_c, 0, 43, 0
2, 50160, Note_on_c, 0, 48, 80
2, 50279, Note_on_c, 0, 48, 0
2, 50280, Note_on_c, 0, 46, 80
2, 50399, Note_on_c, 0, 46, 0
2, 50400, Note_on_c, 0, 44, 80
2, 50519, Note_on_c, 0, 44, 0
2, 50520, Note_on_c, 0, 43, 80
2, 50639, Note_on_c, 0, 43, 0
2, 50640, Note_on_c, 0, 44, 80
2, 50879, Note_on_c, 0, 44, 0
2, 51000, Note_on_c, 0, 56, 80
2, 51119, Note_on_c, 0, 56, 0
2, 51120, Note_on_c, 0, 58, 80
2, 51239, Note_on_c, 0, 58, 0
2, 51240, Note_on_c, 0, 56, 80
2, 51359, Note_on_c, 0, 56, 0
2, 51360, Note_on_c, 0, 55, 80
2, 51479, Note_on_c, 0, 55, 0
2, 51480, Note_on_c, 0, 53, 80
2, 51599, Note_on_c, 0, 53, 0
2, 51600, Note_on_c, 0, 51, 80
2, 51719, Note_on_c, 0, 51, 0
2, 51720, Note_on_c, 0, 53, 80
2, 51839, Note_on_c, 0, 53, 0
2, 51840, Note_on_c, 0, 55, 80
2, 51959, Note_on_c, 0, 55, 0
2, 51960, Note_on_c, 0, 56, 80
2, 52079, Note_on_c, 0, 56, 0
2, 52080, Note_on_c, 0, 58, 80
2, 52319, Note_on_c, 0, 58, 0
2, 52320, Note_on_c, 0, 46, 80
2, 52679, Note_on_c, 0, 46, 0
2, 52680, Note_on_c, 0, 56, 80
2, 52799, Note_on_c, 0, 56, 0
2, 52800, Note_on_c, 0, 55, 80
2, 52919, Note_on_c, 0, 55, 0
2, 52920, Note_on_c, 0, 53, 80
2, 53039, Note_on_c, 0, 53, 0
2, 53040, Note_on_c, 0, 53, 80
2, 53159, Note_on_c, 0, 53, 0
2, 53160, Note_on_c, 0, 51, 80
2, 53279, Note_on_c, 0, 51, 0
2, 53280, Note_on_c, 0, 53, 80
2, 53399, Note_on_c, 0, 53, 0
2, 53400, Note_on_c, 0, 55, 80
2, 53519, Note_on_c, 0, 55, 0
2, 53520, Note_on_c, 0, 55, 80
2, 53639, Note_on_c, 0, 55, 0
2, 53640, Note_on_c, 0, 56, 80
2, 53759, Note_on_c, 0, 56, 0
2, 53760, Note_on_c, 0, 48, 80
2, 53999, Note_on_c, 0, 48, 0
2, 54000, Note_on_c, 0, 47, 80
2, 54239, Note_on_c, 0, 47, 0
2, 54360, Note_on_c, 0, 45, 80
2, 54479, Note_on_c, 0, 45, 0
2, 54480, Note_on_c, 0, 47, 80
2, 54599, Note_on_c, 0, 47, 0
2, 54600, Note_on_c, 0, 43, 80
2, 54719, Note_on_c, 0, 43, 0
2, 54720, Note_on_c, 0, 48, 80
2, 54959, Note_on_c, 0, 48, 0
2, 54960, Note_on_c, 0, 60, 80
2, 55199, Note_on_c, 0, 60, 0
2, 55440, Note_on_c, 0, 48, 80
2, 55679, Note_on_c, 0, 48, 0
2, 55800, Note_on_c, 0, 62, 80
2, 55919, Note_on_c, 0, 62, 0
2, 55920, Note_on_c, 0, 63, 80
2, 56039, Note_on_c, 0, 63, 0
2, 56040, Note_on_c, 0, 58, 80
2, 56159, Note_on_c, 0, 58, 0
2, 56160, Note_on_c, 0, 57, 80
2, 56279, Note_on_c, 0, 57, 0
2, 56280, Note_on_c, 0, 58, 80
2, 56399, Note_on_c, 0, 58, 0
2, 56400, Note_on_c, 0, 60, 80
2, 56519, Note_on_c, 0, 60, 0
2, 56520, Note_on_c, 0, 55, 80
2, 56639, Note_on_c, 0, 55, 0
2, 56880, Note_on_c, 0, 54, 80
2, 56999, Note_on_c, 0, 54, 0
2, 57000, Note_on_c, 0, 55, 80
2, 57119, Note_on_c, 0, 55, 0
2, 57120, Note_on_c, 0, 57, 80
2, 57239, Note_on_c, 0, 57, 0
2, 57240, Note_on_c, 0, 58, 80
2, 57299, Note_on_c, 0, 58, 0
2, 57300, Note_on_c, 0, 60, 80
2, 57359, Note_on_c, 0, 60, 0
2, 57360, Note_on_c, 0, 62, 80
2, 57419, Note_on_c, 0, 62, 0
2, 57420, Note_on_c, 0, 63, 80
2, 57479, Note_on_c, 0, 63, 0
2, 57480, Note_on_c, 0, 60, 80
2, 57599, Note_on_c, 0, 60, 0
2, 57600, Note_on_c, 0, 58, 80
2, 57659, Note_on_c, 0, 58, 0
2, 57660, Note_on_c, 0, 62, 80
2, 57719, Note_on_c, 0, 62, 0
2, 57720, Note_on_c, 0, 60, 80
2, 57839, Note_on_c, 0, 60, 0
2, 57840, Note_on_c, 0, 58, 80
2, 57899, Note_on_c, 0, 58, 0
2, 57900, Note_on_c, 0, 60, 80
2, 57959, Note_on_c, 0, 60, 0
2, 57960, Note_on_c, 0, 57, 80
2, 58079, Note_on_c, 0, 57, 0
2, 58080, Note_on_c, 0, 55, 80
2, 58139, Note_on_c, 0, 55, 0
2, 58140, Note_on_c, 0, 57, 80
2, 58199, Note_on_c, 0, 57, 0
2, 58200, Note_on_c, 0, 53, 80
2, 58319, Note_on_c, 0, 53, 0
2, 58320, Note_on_c, 0, 51, 80
2, 58379, Note_on_c, 0, 51, 0
2, 58380, Note_on_c, 0, 53, 80
2, 58439, Note_on_c, 0, 53, 0
2, 58440, Note_on_c, 0, 50, 80
2, 58559, Note_on_c, 0, 50, 0
2, 58560, Note_on_c, 0, 48, 80
2, 58679, Note_on_c, 0, 48, 0
2, 58680, Note_on_c, 0, 51, 80
2, 58739, Note_on_c, 0, 51, 0
2, 58740, Note_on_c, 0, 50, 80
2, 58799, Note_on_c, 0, 50, 0
2, 58800, Note_on_c, 0, 51, 80
2, 58919, Note_on_c, 0, 51, 0
2, 58920, Note_on_c, 0, 42, 80
2, 59039, Note_on_c, 0, 42, 0
2, 59040, Note_on_c, 0, 43, 80
2, 59279, Note_on_c, 0, 43, 0
2, 59400, Note_on_c, 0, 48, 80
2, 59519, Note_on_c, 0, 48, 0
2, 59520, Note_on_c, 0, 50, 80
2, 59759, Note_on_c, 0, 50, 0
2, 59880, Note_on_c, 0, 51, 80
2, 59999, Note_on_c, 0, 51, 0
2, 60000, Note_on_c, 0, 48, 80
2, 60239, Note_on_c, 0, 48, 0
2, 60240, Note_on_c, 0, 50, 80
2, 60479, Note_on_c, 0, 50, 0
2, 60480, Note_on_c, 0, 55, 80
2, 60599, Note_on_c, 0, 55, 0
2, 60600, Note_on_c, 0, 50, 80
2, 60659, Note_on_c, 0, 50, 0
2, 60660, Note_on_c, 0, 48, 80
2, 60719, Note_on_c, 0, 48, 0
2, 60720, Note_on_c, 0, 46, 80
2, 60779, Note_on_c, 0, 46, 0
2, 60780, Note_on_c, 0, 48, 80
2, 60839, Note_on_c, 0, 48, 0
2, 60840, Note_on_c, 0, 45, 80
2, 60959, Note_on_c, 0, 45, 0
2, 60960, Note_on_c, 0, 43, 80
2, 61439, Note_on_c, 0, 43, 0
2, 61440, End_track
0, 0, End_of_file
