0, 0, Header, 1, 4, 480
1, 0, Start_track
1, 0, Unknown_meta_event, 8, 46, 67, 111, 110, 116, 114, 97, 112, 117, 110, 99, 116, 117, 115, 32, 88, 32, 97, 32, 52, 46, 32, 97, 108, 108, 97, 32, 68, 101, 99, 105, 109, 97, 32, 40, 65, 32, 61, 32, 52, 49, 53, 32, 72, 122, 41, 0
1, 0, Unknown_meta_event, 9, 26, 66, 87, 86, 32, 49, 48, 56, 48, 32, 84, 104, 101, 32, 65, 114, 116, 32, 111, 102, 32, 70, 117, 103, 117, 101, 0
1, 0, Unknown_meta_event, 10, 11, 74, 46, 32, 83, 46, 32, 66, 97, 99, 104, 0
1, 0, Time_signature, 4, 2, 24, 8
1, 0, Key_signature, 4, "major"
1, 0, Program_c, 0, 46
1, 2, Control_c, 0, 7, 100
1, 4, Control_c, 0, 10, 64
1, 6, Control_c, 0, 91, 30
1, 8, Control_c, 0, 93, 30
1, 14880, Note_on_c, 0, 71, 127
1, 15356, Note_on_c, 0, 71, 0
1, 15360, Note_on_c, 0, 70, 127
1, 15836, Note_on_c, 0, 70, 0
1, 15840, Note_on_c, 0, 75, 127
1, 16316, Note_on_c, 0, 75, 0
1, 16800, Note_on_c, 0, 67, 127
1, 17276, Note_on_c, 0, 67, 0
1, 17280, Note_on_c, 0, 68, 127
1, 17756, Note_on_c, 0, 68, 0
1, 17760, Note_on_c, 0, 63, 127
1, 18236, Note_on_c, 0, 63, 0
1, 18240, Note_on_c, 0, 68, 127
1, 18476, Note_on_c, 0, 68, 0
1, 18480, Note_on_c, 0, 66, 127
1, 18716, Note_on_c, 0, 66, 0
1, 18720, Note_on_c, 0, 64, 127
1, 18956, Note_on_c, 0, 64, 0
1, 18960, Note_on_c, 0, 63, 127
1, 19196, Note_on_c, 0, 63, 0
1, 19200, Note_on_c, 0, 61, 127
1, 19436, Note_on_c, 0, 61, 0
1, 19440, Note_on_c, 0, 59, 127
1, 19676, Note_on_c, 0, 59, 0
1, 19680, Note_on_c, 0, 58, 127
1, 20399, Note_on_c, 0, 58, 0
1, 20400, Note_on_c, 0, 60, 127
1, 20636, Note_on_c, 0, 60, 0
1, 20640, Note_on_c, 0, 61, 127
1, 20876, Note_on_c, 0, 61, 0
1, 20880, Note_on_c, 0, 63, 127
1, 21116, Note_on_c, 0, 63, 0
1, 21120, Note_on_c, 0, 64, 127
1, 21356, Note_on_c, 0, 64, 0
1, 21360, Note_on_c, 0, 63, 127
1, 21596, Note_on_c, 0, 63, 0
1, 21600, Note_on_c, 0, 64, 127
1, 21836, Note_on_c, 0, 64, 0
1, 21840, Note_on_c, 0, 61, 127
1, 22076, Note_on_c, 0, 61, 0
1, 22080, Note_on_c, 0, 63, 127
1, 22316, Note_on_c, 0, 63, 0
1, 22320, Note_on_c, 0, 65, 127
1, 22556, Note_on_c, 0, 65, 0
1, 22560, Note_on_c, 0, 66, 127
1, 22796, Note_on_c, 0, 66, 0
1, 22800, Note_on_c, 0, 68, 127
1, 23036, Note_on_c, 0, 68, 0
1, 23040, Note_on_c, 0, 69, 127
1, 23276, Note_on_c, 0, 69, 0
1, 23280, Note_on_c, 0, 68, 127
1, 23516, Note_on_c, 0, 68, 0
1, 23520, Note_on_c, 0, 69, 127
1, 23756, Note_on_c, 0, 69, 0
1, 23760, Note_on_c, 0, 66, 127
1, 23996, Note_on_c, 0, 66, 0
1, 24000, Note_on_c, 0, 68, 127
1, 24476, Note_on_c, 0, 68, 0
1, 24480, Note_on_c, 0, 73, 127
1, 25199, Note_on_c, 0, 73, 0
1, 25200, Note_on_c, 0, 71, 127
1, 25436, Note_on_c, 0, 71, 0
1, 25440, Note_on_c, 0, 73, 127
1, 25676, Note_on_c, 0, 73, 0
1, 25680, Note_on_c, 0, 70, 127
1, 25916, Note_on_c, 0, 70, 0
1, 25920, Note_on_c, 0, 71, 127
1, 26396, Note_on_c, 0, 71, 0
1, 26400, Note_on_c, 0, 72, 127
1, 26876, Note_on_c, 0, 72, 0
1, 26880, Note_on_c, 0, 73, 127
1, 27356, Note_on_c, 0, 73, 0
1, 27360, Note_on_c, 0, 66, 127
1, 27836, Note_on_c, 0, 66, 0
1, 27840, Note_on_c, 0, 64, 127
1, 28316, Note_on_c, 0, 64, 0
1, 28320, Note_on_c, 0, 68, 127
1, 28796, Note_on_c, 0, 68, 0
1, 28800, Note_on_c, 0, 73, 80
1, 29519, Note_on_c, 0, 73, 0
1, 29520, Note_on_c, 0, 75, 127
1, 29756, Note_on_c, 0, 75, 0
1, 29760, Note_on_c, 0, 76, 127
1, 29996, Note_on_c, 0, 76, 0
1, 30000, Note_on_c, 0, 78, 127
1, 30236, Note_on_c, 0, 78, 0
1, 30240, Note_on_c, 0, 80, 127
1, 31199, Note_on_c, 0, 80, 0
1, 31200, Note_on_c, 0, 81, 127
1, 31436, Note_on_c, 0, 81, 0
1, 31440, Note_on_c, 0, 80, 127
1, 31676, Note_on_c, 0, 80, 0
1, 31680, Note_on_c, 0, 78, 127
1, 31916, Note_on_c, 0, 78, 0
1, 31920, Note_on_c, 0, 76, 127
1, 32156, Note_on_c, 0, 76, 0
1, 32160, Note_on_c, 0, 78, 127
1, 32636, Note_on_c, 0, 78, 0
1, 32640, Note_on_c, 0, 71, 127
1, 34799, Note_on_c, 0, 71, 0
1, 34800, Note_on_c, 0, 65, 127
1, 35036, Note_on_c, 0, 65, 0
1, 35040, Note_on_c, 0, 66, 127
1, 35276, Note_on_c, 0, 66, 0
1, 35280, Note_on_c, 0, 68, 127
1, 35516, Note_on_c, 0, 68, 0
1, 35520, Note_on_c, 0, 69, 127
1, 37439, Note_on_c, 0, 69, 0
1, 37440, Note_on_c, 0, 68, 127
1, 38639, Note_on_c, 0, 68, 0
1, 38640, Note_on_c, 0, 73, 127
1, 39116, Note_on_c, 0, 73, 0
1, 39120, Note_on_c, 0, 72, 127
1, 39356, Note_on_c, 0, 72, 0
1, 39360, Note_on_c, 0, 73, 127
1, 40799, Note_on_c, 0, 73, 0
1, 40800, Note_on_c, 0, 72, 127
1, 41276, Note_on_c, 0, 72, 0
1, 42240, Note_on_c, 0, 80, 127
1, 43196, Note_on_c, 0, 80, 0
1, 43200, Note_on_c, 0, 73, 80
1, 43919, Note_on_c, 0, 73, 0
1, 43920, Note_on_c, 0, 75, 127
1, 44156, Note_on_c, 0, 75, 0
1, 44160, Note_on_c, 0, 76, 80
1, 44879, Note_on_c, 0, 76, 0
1, 44880, Note_on_c, 0, 78, 127
1, 45116, Note_on_c, 0, 78, 0
1, 45120, Note_on_c, 0, 80, 127
1, 46076, Note_on_c, 0, 80, 0
1, 46080, Note_on_c, 0, 81, 127
1, 47036, Note_on_c, 0, 81, 0
1, 47040, Note_on_c, 0, 80, 80
1, 47759, Note_on_c, 0, 80, 0
1, 47760, Note_on_c, 0, 78, 127
1, 47996, Note_on_c, 0, 78, 0
1, 48000, Note_on_c, 0, 76, 127
1, 49199, Note_on_c, 0, 76, 0
1, 49200, Note_on_c, 0, 75, 127
1, 49436, Note_on_c, 0, 75, 0
1, 49440, Note_on_c, 0, 77, 127
1, 49676, Note_on_c, 0, 77, 0
1, 49680, Note_on_c, 0, 79, 127
1, 49916, Note_on_c, 0, 79, 0
1, 49920, Note_on_c, 0, 80, 127
1, 50156, Note_on_c, 0, 80, 0
1, 50160, Note_on_c, 0, 78, 127
1, 50276, Note_on_c, 0, 78, 0
1, 50280, Note_on_c, 0, 76, 127
1, 50396, Note_on_c, 0, 76, 0
1, 50400, Note_on_c, 0, 75, 127
1, 51119, Note_on_c, 0, 75, 0
1, 51120, Note_on_c, 0, 73, 127
1, 51356, Note_on_c, 0, 73, 0
1, 51360, Note_on_c, 0, 71, 127
1, 51596, Note_on_c, 0, 71, 0
1, 51600, Note_on_c, 0, 70, 127
1, 51836, Note_on_c, 0, 70, 0
1, 51840, Note_on_c, 0, 68, 127
1, 52076, Note_on_c, 0, 68, 0
1, 52080, Note_on_c, 0, 67, 127
1, 52316, Note_on_c, 0, 67, 0
1, 52320, Note_on_c, 0, 68, 127
1, 52556, Note_on_c, 0, 68, 0
1, 52560, Note_on_c, 0, 70, 127
1, 52796, Note_on_c, 0, 70, 0
1, 52800, Note_on_c, 0, 72, 127
1, 53036, Note_on_c, 0, 72, 0
1, 53040, Note_on_c, 0, 73, 127
1, 53276, Note_on_c, 0, 73, 0
1, 53280, Note_on_c, 0, 75, 127
1, 53516, Note_on_c, 0, 75, 0
1, 53520, Note_on_c, 0, 76, 127
1, 53756, Note_on_c, 0, 76, 0
1, 53760, Note_on_c, 0, 78, 127
1, 53996, Note_on_c, 0, 78, 0
1, 54000, Note_on_c, 0, 80, 127
1, 54236, Note_on_c, 0, 80, 0
1, 54240, Note_on_c, 0, 81, 127
1, 54476, Note_on_c, 0, 81, 0
1, 54480, Note_on_c, 0, 78, 127
1, 54716, Note_on_c, 0, 78, 0
1, 54720, Note_on_c, 0, 75, 127
1, 54956, Note_on_c, 0, 75, 0
1, 54960, Note_on_c, 0, 80, 127
1, 55196, Note_on_c, 0, 80, 0
1, 55200, Note_on_c, 0, 78, 127
1, 55436, Note_on_c, 0, 78, 0
1, 55440, Note_on_c, 0, 80, 127
1, 55676, Note_on_c, 0, 80, 0
1, 55680, Note_on_c, 0, 76, 127
1, 55916, Note_on_c, 0, 76, 0
1, 55920, Note_on_c, 0, 78, 127
1, 56156, Note_on_c, 0, 78, 0
1, 56160, Note_on_c, 0, 80, 127
1, 56396, Note_on_c, 0, 80, 0
1, 56400, Note_on_c, 0, 76, 127
1, 56636, Note_on_c, 0, 76, 0
1, 56640, Note_on_c, 0, 73, 127
1, 56876, Note_on_c, 0, 73, 0
1, 56880, Note_on_c, 0, 78, 127
1, 57116, Note_on_c, 0, 78, 0
1, 57120, Note_on_c, 0, 76, 127
1, 57356, Note_on_c, 0, 76, 0
1, 57360, Note_on_c, 0, 78, 127
1, 57596, Note_on_c, 0, 78, 0
1, 57600, Note_on_c, 0, 75, 127
1, 57836, Note_on_c, 0, 75, 0
1, 57840, Note_on_c, 0, 76, 127
1, 58076, Note_on_c, 0, 76, 0
1, 58080, Note_on_c, 0, 78, 127
1, 58316, Note_on_c, 0, 78, 0
1, 58320, Note_on_c, 0, 75, 127
1, 58556, Note_on_c, 0, 75, 0
1, 58560, Note_on_c, 0, 76, 80
1, 59279, Note_on_c, 0, 76, 0
1, 59280, Note_on_c, 0, 78, 127
1, 59516, Note_on_c, 0, 78, 0
1, 59520, Note_on_c, 0, 80, 80
1, 60239, Note_on_c, 0, 80, 0
1, 60240, Note_on_c, 0, 78, 127
1, 60476, Note_on_c, 0, 78, 0
1, 60480, Note_on_c, 0, 76, 127
1, 60716, Note_on_c, 0, 76, 0
1, 60720, Note_on_c, 0, 75, 127
1, 60956, Note_on_c, 0, 75, 0
1, 60960, Note_on_c, 0, 73, 127
1, 61196, Note_on_c, 0, 73, 0
1, 61200, Note_on_c, 0, 72, 127
1, 61436, Note_on_c, 0, 72, 0
1, 61440, Note_on_c, 0, 73, 127
1, 62639, Note_on_c, 0, 73, 0
1, 62640, Note_on_c, 0, 70, 127
1, 62876, Note_on_c, 0, 70, 0
1, 62880, Note_on_c, 0, 72, 127
1, 63356, Note_on_c, 0, 72, 0
1, 63360, Note_on_c, 0, 73, 127
1, 63596, Note_on_c, 0, 73, 0
1, 63600, Note_on_c, 0, 69, 127
1, 63836, Note_on_c, 0, 69, 0
1, 63840, Note_on_c, 0, 68, 127
1, 64076, Note_on_c, 0, 68, 0
1, 64080, Note_on_c, 0, 66, 127
1, 64316, Note_on_c, 0, 66, 0
1, 64320, Note_on_c, 0, 64, 127
1, 64796, Note_on_c, 0, 64, 0
1, 64800, Note_on_c, 0, 76, 127
1, 65519, Note_on_c, 0, 76, 0
1, 65520, Note_on_c, 0, 75, 127
1, 65756, Note_on_c, 0, 75, 0
1, 65760, Note_on_c, 0, 77, 127
1, 65996, Note_on_c, 0, 77, 0
1, 66000, Note_on_c, 0, 79, 127
1, 66236, Note_on_c, 0, 79, 0
1, 66240, Note_on_c, 0, 80, 127
1, 68399, Note_on_c, 0, 80, 0
1, 68400, Note_on_c, 0, 80, 127
1, 68636, Note_on_c, 0, 80, 0
1, 68640, Note_on_c, 0, 78, 127
1, 68876, Note_on_c, 0, 78, 0
1, 68880, Note_on_c, 0, 76, 127
1, 69116, Note_on_c, 0, 76, 0
1, 69120, Note_on_c, 0, 75, 127
1, 69596, Note_on_c, 0, 75, 0
1, 69600, Note_on_c, 0, 80, 127
1, 70076, Note_on_c, 0, 80, 0
1, 70560, Note_on_c, 0, 78, 127
1, 71036, Note_on_c, 0, 78, 0
1, 71040, Note_on_c, 0, 76, 127
1, 71996, Note_on_c, 0, 76, 0
1, 72000, Note_on_c, 0, 75, 127
1, 73439, Note_on_c, 0, 75, 0
1, 73440, Note_on_c, 0, 77, 127
1, 73676, Note_on_c, 0, 77, 0
1, 73680, Note_on_c, 0, 78, 127
1, 73916, Note_on_c, 0, 78, 0
1, 73920, Note_on_c, 0, 80, 127
1, 74396, Note_on_c, 0, 80, 0
1, 74400, Note_on_c, 0, 73, 127
1, 75359, Note_on_c, 0, 73, 0
1, 75360, Note_on_c, 0, 75, 127
1, 75596, Note_on_c, 0, 75, 0
1, 75600, Note_on_c, 0, 76, 127
1, 75836, Note_on_c, 0, 76, 0
1, 75840, Note_on_c, 0, 78, 127
1, 76316, Note_on_c, 0, 78, 0
1, 76320, Note_on_c, 0, 71, 127
1, 77039, Note_on_c, 0, 71, 0
1, 77040, Note_on_c, 0, 70, 127
1, 77276, Note_on_c, 0, 70, 0
1, 77280, Note_on_c, 0, 72, 127
1, 77516, Note_on_c, 0, 72, 0
1, 77520, Note_on_c, 0, 73, 127
1, 77756, Note_on_c, 0, 73, 0
1, 77760, Note_on_c, 0, 75, 127
1, 78236, Note_on_c, 0, 75, 0
1, 78240, Note_on_c, 0, 68, 127
1, 78959, Note_on_c, 0, 68, 0
1, 78960, Note_on_c, 0, 68, 127
1, 79196, Note_on_c, 0, 68, 0
1, 79200, Note_on_c, 0, 73, 127
1, 79436, Note_on_c, 0, 73, 0
1, 79440, Note_on_c, 0, 72, 127
1, 79676, Note_on_c, 0, 72, 0
1, 79680, Note_on_c, 0, 73, 127
1, 81119, Note_on_c, 0, 73, 0
1, 81120, Note_on_c, 0, 73, 127
1, 81596, Note_on_c, 0, 73, 0
1, 81600, Note_on_c, 0, 72, 127
1, 82556, Note_on_c, 0, 72, 0
1, 82560, Note_on_c, 0, 73, 127
1, 82796, Note_on_c, 0, 73, 0
1, 82800, Note_on_c, 0, 69, 127
1, 83036, Note_on_c, 0, 69, 0
1, 83040, Note_on_c, 0, 71, 127
1, 83759, Note_on_c, 0, 71, 0
1, 83760, Note_on_c, 0, 68, 127
1, 83996, Note_on_c, 0, 68, 0
1, 84000, Note_on_c, 0, 69, 127
1, 84719, Note_on_c, 0, 69, 0
1, 84720, Note_on_c, 0, 68, 127
1, 84956, Note_on_c, 0, 68, 0
1, 84960, Note_on_c, 0, 73, 127
1, 85679, Note_on_c, 0, 73, 0
1, 85680, Note_on_c, 0, 72, 127
1, 85916, Note_on_c, 0, 72, 0
1, 85920, Note_on_c, 0, 73, 127
1, 86639, Note_on_c, 0, 73, 0
1, 86640, Note_on_c, 0, 72, 127
1, 86876, Note_on_c, 0, 72, 0
1, 86880, Note_on_c, 0, 73, 127
1, 87116, Note_on_c, 0, 73, 0
1, 87120, Note_on_c, 0, 75, 127
1, 87356, Note_on_c, 0, 75, 0
1, 87360, Note_on_c, 0, 76, 80
1, 88079, Note_on_c, 0, 76, 0
1, 88080, Note_on_c, 0, 75, 127
1, 88316, Note_on_c, 0, 75, 0
1, 88320, Note_on_c, 0, 73, 127
1, 89519, Note_on_c, 0, 73, 0
1, 89520, Note_on_c, 0, 72, 127
1, 89756, Note_on_c, 0, 72, 0
1, 89760, Note_on_c, 0, 73, 127
1, 89996, Note_on_c, 0, 73, 0
1, 90000, Note_on_c, 0, 75, 127
1, 90236, Note_on_c, 0, 75, 0
1, 90240, Note_on_c, 0, 72, 127
1, 90716, Note_on_c, 0, 72, 0
1, 94560, Note_on_c, 0, 73, 127
1, 94796, Note_on_c, 0, 73, 0
1, 94800, Note_on_c, 0, 75, 127
1, 95036, Note_on_c, 0, 75, 0
1, 95040, Note_on_c, 0, 76, 127
1, 95276, Note_on_c, 0, 76, 0
1, 95280, Note_on_c, 0, 78, 127
1, 95516, Note_on_c, 0, 78, 0
1, 95520, Note_on_c, 0, 80, 127
1, 95756, Note_on_c, 0, 80, 0
1, 95760, Note_on_c, 0, 76, 127
1, 95996, Note_on_c, 0, 76, 0
1, 96000, Note_on_c, 0, 78, 127
1, 96236, Note_on_c, 0, 78, 0
1, 96240, Note_on_c, 0, 80, 127
1, 96476, Note_on_c, 0, 80, 0
1, 96480, Note_on_c, 0, 81, 127
1, 96716, Note_on_c, 0, 81, 0
1, 96720, Note_on_c, 0, 78, 127
1, 96956, Note_on_c, 0, 78, 0
1, 96960, Note_on_c, 0, 75, 127
1, 97196, Note_on_c, 0, 75, 0
1, 97200, Note_on_c, 0, 80, 127
1, 97436, Note_on_c, 0, 80, 0
1, 97440, Note_on_c, 0, 78, 127
1, 97676, Note_on_c, 0, 78, 0
1, 97680, Note_on_c, 0, 80, 127
1, 97916, Note_on_c, 0, 80, 0
1, 97920, Note_on_c, 0, 76, 127
1, 98156, Note_on_c, 0, 76, 0
1, 98160, Note_on_c, 0, 75, 127
1, 98396, Note_on_c, 0, 75, 0
1, 98400, Note_on_c, 0, 73, 127
1, 99119, Note_on_c, 0, 73, 0
1, 99120, Note_on_c, 0, 70, 127
1, 99356, Note_on_c, 0, 70, 0
1, 99360, Note_on_c, 0, 71, 127
1, 99596, Note_on_c, 0, 71, 0
1, 99600, Note_on_c, 0, 73, 127
1, 99836, Note_on_c, 0, 73, 0
1, 99840, Note_on_c, 0, 75, 127
1, 100076, Note_on_c, 0, 75, 0
1, 100080, Note_on_c, 0, 73, 127
1, 100316, Note_on_c, 0, 73, 0
1, 100320, Note_on_c, 0, 71, 127
1, 101039, Note_on_c, 0, 71, 0
1, 101040, Note_on_c, 0, 70, 127
1, 101276, Note_on_c, 0, 70, 0
1, 101280, Note_on_c, 0, 75, 127
1, 102239, Note_on_c, 0, 75, 0
1, 102240, Note_on_c, 0, 73, 127
1, 102716, Note_on_c, 0, 73, 0
1, 102720, Note_on_c, 0, 71, 127
1, 103196, Note_on_c, 0, 71, 0
1, 103200, Note_on_c, 0, 70, 127
1, 103676, Note_on_c, 0, 70, 0
1, 103680, Note_on_c, 0, 68, 127
1, 104636, Note_on_c, 0, 68, 0
1, 109920, Note_on_c, 0, 68, 127
1, 110156, Note_on_c, 0, 68, 0
1, 110160, Note_on_c, 0, 70, 127
1, 110396, Note_on_c, 0, 70, 0
1, 110400, Note_on_c, 0, 72, 127
1, 110636, Note_on_c, 0, 72, 0
1, 110640, Note_on_c, 0, 73, 127
1, 110876, Note_on_c, 0, 73, 0
1, 110880, Note_on_c, 0, 75, 127
1, 111116, Note_on_c, 0, 75, 0
1, 111120, Note_on_c, 0, 76, 127
1, 111356, Note_on_c, 0, 76, 0
1, 111360, Note_on_c, 0, 78, 127
1, 111596, Note_on_c, 0, 78, 0
1, 111600, Note_on_c, 0, 80, 127
1, 111836, Note_on_c, 0, 80, 0
1, 111840, Note_on_c, 0, 81, 127
1, 112076, Note_on_c, 0, 81, 0
1, 112080, Note_on_c, 0, 78, 127
1, 112316, Note_on_c, 0, 78, 0
1, 112320, Note_on_c, 0, 75, 127
1, 112556, Note_on_c, 0, 75, 0
1, 112560, Note_on_c, 0, 80, 127
1, 112796, Note_on_c, 0, 80, 0
1, 112800, Note_on_c, 0, 78, 127
1, 113036, Note_on_c, 0, 78, 0
1, 113040, Note_on_c, 0, 80, 127
1, 113276, Note_on_c, 0, 80, 0
1, 113280, Note_on_c, 0, 76, 127
1, 113516, Note_on_c, 0, 76, 0
1, 113520, Note_on_c, 0, 78, 127
1, 113756, Note_on_c, 0, 78, 0
1, 113760, Note_on_c, 0, 76, 127
1, 113996, Note_on_c, 0, 76, 0
1, 114000, Note_on_c, 0, 75, 127
1, 114236, Note_on_c, 0, 75, 0
1, 114240, Note_on_c, 0, 73, 127
1, 114476, Note_on_c, 0, 73, 0
1, 114480, Note_on_c, 0, 75, 127
1, 114716, Note_on_c, 0, 75, 0
1, 114720, Note_on_c, 0, 76, 127
1, 114956, Note_on_c, 0, 76, 0
1, 114960, Note_on_c, 0, 73, 127
1, 115196, Note_on_c, 0, 73, 0
1, 115200, Note_on_c, 0, 75, 127
1, 115436, Note_on_c, 0, 75, 0
1, 115440, Note_on_c, 0, 77, 127
1, 115676, Note_on_c, 0, 77, 0
1, 115680, Note_on_c, 0, 78, 127
1, 116636, Note_on_c, 0, 78, 0
1, 116640, Note_on_c, 0, 77, 127
1, 117116, Note_on_c, 0, 77, 0
1, 117120, Note_on_c, 0, 78, 127
1, 117596, Note_on_c, 0, 78, 0
1, 117600, Note_on_c, 0, 73, 127
1, 118076, Note_on_c, 0, 73, 0
1, 118080, Note_on_c, 0, 78, 127
1, 119519, Note_on_c, 0, 78, 0
1, 119520, Note_on_c, 0, 76, 127
1, 119756, Note_on_c, 0, 76, 0
1, 119760, Note_on_c, 0, 75, 127
1, 119996, Note_on_c, 0, 75, 0
1, 120000, Note_on_c, 0, 76, 127
1, 120476, Note_on_c, 0, 76, 0
1, 120480, Note_on_c, 0, 73, 127
1, 120956, Note_on_c, 0, 73, 0
1, 120960, Note_on_c, 0, 71, 80
1, 122399, Note_on_c, 0, 71, 0
1, 122400, Note_on_c, 0, 71, 127
1, 122876, Note_on_c, 0, 71, 0
1, 122880, Note_on_c, 0, 76, 127
1, 124079, Note_on_c, 0, 76, 0
1, 124080, Note_on_c, 0, 78, 127
1, 124316, Note_on_c, 0, 78, 0
1, 124320, Note_on_c, 0, 76, 127
1, 124556, Note_on_c, 0, 76, 0
1, 124560, Note_on_c, 0, 78, 127
1, 124796, Note_on_c, 0, 78, 0
1, 124800, Note_on_c, 0, 75, 127
1, 125276, Note_on_c, 0, 75, 0
1, 125280, Note_on_c, 0, 68, 127
1, 125756, Note_on_c, 0, 68, 0
1, 125760, Note_on_c, 0, 69, 127
1, 126236, Note_on_c, 0, 69, 0
1, 126240, Note_on_c, 0, 64, 127
1, 126716, Note_on_c, 0, 64, 0
1, 127200, Note_on_c, 0, 73, 127
1, 127676, Note_on_c, 0, 73, 0
1, 127680, Note_on_c, 0, 71, 127
1, 128156, Note_on_c, 0, 71, 0
1, 128160, Note_on_c, 0, 76, 127
1, 128636, Note_on_c, 0, 76, 0
1, 128640, Note_on_c, 0, 69, 127
1, 128876, Note_on_c, 0, 69, 0
1, 128880, Note_on_c, 0, 71, 127
1, 129116, Note_on_c, 0, 71, 0
1, 129120, Note_on_c, 0, 73, 127
1, 129356, Note_on_c, 0, 73, 0
1, 129360, Note_on_c, 0, 75, 127
1, 129596, Note_on_c, 0, 75, 0
1, 129600, Note_on_c, 0, 76, 127
1, 129836, Note_on_c, 0, 76, 0
1, 129840, Note_on_c, 0, 78, 127
1, 130076, Note_on_c, 0, 78, 0
1, 130080, Note_on_c, 0, 80, 127
1, 130799, Note_on_c, 0, 80, 0
1, 130800, Note_on_c, 0, 78, 127
1, 131036, Note_on_c, 0, 78, 0
1, 131040, Note_on_c, 0, 76, 127
1, 131276, Note_on_c, 0, 76, 0
1, 131280, Note_on_c, 0, 75, 127
1, 131516, Note_on_c, 0, 75, 0
1, 131520, Note_on_c, 0, 73, 127
1, 132476, Note_on_c, 0, 73, 0
1, 132480, Note_on_c, 0, 71, 127
1, 133679, Note_on_c, 0, 71, 0
1, 133680, Note_on_c, 0, 71, 127
1, 133916, Note_on_c, 0, 71, 0
1, 133920, Note_on_c, 0, 73, 127
1, 134156, Note_on_c, 0, 73, 0
1, 134160, Note_on_c, 0, 75, 127
1, 134396, Note_on_c, 0, 75, 0
1, 134400, Note_on_c, 0, 76, 127
1, 135599, Note_on_c, 0, 76, 0
1, 135600, Note_on_c, 0, 77, 127
1, 135836, Note_on_c, 0, 77, 0
1, 135840, Note_on_c, 0, 78, 127
1, 136076, Note_on_c, 0, 78, 0
1, 136080, Note_on_c, 0, 80, 127
1, 136316, Note_on_c, 0, 80, 0
1, 136320, Note_on_c, 0, 81, 127
1, 137276, Note_on_c, 0, 81, 0
1, 137520, Note_on_c, 0, 73, 127
1, 137756, Note_on_c, 0, 73, 0
1, 137760, Note_on_c, 0, 75, 127
1, 137996, Note_on_c, 0, 75, 0
1, 138000, Note_on_c, 0, 76, 127
1, 138236, Note_on_c, 0, 76, 0
1, 138240, Note_on_c, 0, 78, 127
1, 139439, Note_on_c, 0, 78, 0
1, 139440, Note_on_c, 0, 79, 127
1, 139676, Note_on_c, 0, 79, 0
1, 139680, Note_on_c, 0, 80, 127
1, 139916, Note_on_c, 0, 80, 0
1, 139920, Note_on_c, 0, 82, 127
1, 140156, Note_on_c, 0, 82, 0
1, 140160, Note_on_c, 0, 83, 127
1, 141116, Note_on_c, 0, 83, 0
1, 141360, Note_on_c, 0, 75, 127
1, 141596, Note_on_c, 0, 75, 0
1, 141600, Note_on_c, 0, 76, 127
1, 141836, Note_on_c, 0, 76, 0
1, 141840, Note_on_c, 0, 78, 127
1, 142076, Note_on_c, 0, 78, 0
1, 142080, Note_on_c, 0, 80, 127
1, 143036, Note_on_c, 0, 80, 0
1, 143040, Note_on_c, 0, 73, 80
1, 143759, Note_on_c, 0, 73, 0
1, 143760, Note_on_c, 0, 75, 127
1, 143996, Note_on_c, 0, 75, 0
1, 144000, Note_on_c, 0, 76, 80
1, 144719, Note_on_c, 0, 76, 0
1, 144720, Note_on_c, 0, 78, 127
1, 144956, Note_on_c, 0, 78, 0
1, 144960, Note_on_c, 0, 80, 127
1, 145916, Note_on_c, 0, 80, 0
1, 145920, Note_on_c, 0, 81, 127
1, 146876, Note_on_c, 0, 81, 0
1, 146880, Note_on_c, 0, 80, 80
1, 147599, Note_on_c, 0, 80, 0
1, 147600, Note_on_c, 0, 78, 127
1, 147836, Note_on_c, 0, 78, 0
1, 147840, Note_on_c, 0, 76, 127
1, 149039, Note_on_c, 0, 76, 0
1, 149040, Note_on_c, 0, 75, 127
1, 149276, Note_on_c, 0, 75, 0
1, 149280, Note_on_c, 0, 76, 127
1, 149516, Note_on_c, 0, 76, 0
1, 149520, Note_on_c, 0, 78, 127
1, 149756, Note_on_c, 0, 78, 0
1, 149760, Note_on_c, 0, 80, 127
1, 149996, Note_on_c, 0, 80, 0
1, 150000, Note_on_c, 0, 76, 127
1, 150236, Note_on_c, 0, 76, 0
1, 150240, Note_on_c, 0, 78, 127
1, 150959, Note_on_c, 0, 78, 0
1, 150960, Note_on_c, 0, 73, 127
1, 151196, Note_on_c, 0, 73, 0
1, 151200, Note_on_c, 0, 75, 127
1, 151436, Note_on_c, 0, 75, 0
1, 151440, Note_on_c, 0, 78, 127
1, 151676, Note_on_c, 0, 78, 0
1, 151680, Note_on_c, 0, 71, 127
1, 152636, Note_on_c, 0, 71, 0
1, 152640, Note_on_c, 0, 69, 127
1, 153839, Note_on_c, 0, 69, 0
1, 153840, Note_on_c, 0, 66, 127
1, 154076, Note_on_c, 0, 66, 0
1, 154080, Note_on_c, 0, 68, 127
1, 154316, Note_on_c, 0, 68, 0
1, 154320, Note_on_c, 0, 71, 127
1, 154556, Note_on_c, 0, 71, 0
1, 154560, Note_on_c, 0, 76, 127
1, 155999, Note_on_c, 0, 76, 0
1, 156000, Note_on_c, 0, 70, 127
1, 156476, Note_on_c, 0, 70, 0
1, 156480, Note_on_c, 0, 75, 127
1, 157919, Note_on_c, 0, 75, 0
1, 157920, Note_on_c, 0, 73, 127
1, 158396, Note_on_c, 0, 73, 0
1, 158640, Note_on_c, 0, 75, 127
1, 158876, Note_on_c, 0, 75, 0
1, 158880, Note_on_c, 0, 76, 127
1, 159116, Note_on_c, 0, 76, 0
1, 159120, Note_on_c, 0, 80, 127
1, 159356, Note_on_c, 0, 80, 0
1, 159360, Note_on_c, 0, 73, 127
1, 160316, Note_on_c, 0, 73, 0
1, 160320, Note_on_c, 0, 71, 127
1, 161519, Note_on_c, 0, 71, 0
1, 161520, Note_on_c, 0, 68, 127
1, 161756, Note_on_c, 0, 68, 0
1, 161760, Note_on_c, 0, 70, 127
1, 161996, Note_on_c, 0, 70, 0
1, 162000, Note_on_c, 0, 72, 127
1, 162236, Note_on_c, 0, 72, 0
1, 162240, Note_on_c, 0, 73, 127
1, 162716, Note_on_c, 0, 73, 0
1, 162720, Note_on_c, 0, 68, 127
1, 163196, Note_on_c, 0, 68, 0
1, 163680, Note_on_c, 0, 76, 127
1, 164156, Note_on_c, 0, 76, 0
1, 164160, Note_on_c, 0, 75, 127
1, 164636, Note_on_c, 0, 75, 0
1, 164640, Note_on_c, 0, 80, 127
1, 165116, Note_on_c, 0, 80, 0
1, 165120, Note_on_c, 0, 73, 127
1, 165356, Note_on_c, 0, 73, 0
1, 165360, Note_on_c, 0, 75, 127
1, 165596, Note_on_c, 0, 75, 0
1, 165600, Note_on_c, 0, 76, 127
1, 165836, Note_on_c, 0, 76, 0
1, 165840, Note_on_c, 0, 78, 127
1, 166076, Note_on_c, 0, 78, 0
1, 166080, Note_on_c, 0, 80, 127
1, 166316, Note_on_c, 0, 80, 0
1, 166320, Note_on_c, 0, 81, 127
1, 166556, Note_on_c, 0, 81, 0
1, 166560, Note_on_c, 0, 83, 127
1, 167279, Note_on_c, 0, 83, 0
1, 167280, Note_on_c, 0, 81, 127
1, 167516, Note_on_c, 0, 81, 0
1, 167520, Note_on_c, 0, 80, 127
1, 167756, Note_on_c, 0, 80, 0
1, 167760, Note_on_c, 0, 78, 127
1, 167996, Note_on_c, 0, 78, 0
1, 168000, Note_on_c, 0, 76, 127
1, 168956, Note_on_c, 0, 76, 0
1, 168960, Note_on_c, 0, 75, 127
1, 169916, Note_on_c, 0, 75, 0
1, 172080, Note_on_c, 0, 71, 127
1, 172316, Note_on_c, 0, 71, 0
1, 172320, Note_on_c, 0, 73, 127
1, 172556, Note_on_c, 0, 73, 0
1, 172560, Note_on_c, 0, 71, 127
1, 172796, Note_on_c, 0, 71, 0
1, 172800, Note_on_c, 0, 69, 127
1, 173756, Note_on_c, 0, 69, 0
1, 174960, Note_on_c, 0, 76, 127
1, 175196, Note_on_c, 0, 76, 0
1, 175200, Note_on_c, 0, 78, 127
1, 175436, Note_on_c, 0, 78, 0
1, 175440, Note_on_c, 0, 76, 127
1, 175676, Note_on_c, 0, 76, 0
1, 175680, Note_on_c, 0, 75, 127
1, 176156, Note_on_c, 0, 75, 0
1, 176160, Note_on_c, 0, 80, 127
1, 176636, Note_on_c, 0, 80, 0
1, 176640, Note_on_c, 0, 76, 127
1, 176876, Note_on_c, 0, 76, 0
1, 176880, Note_on_c, 0, 80, 127
1, 177116, Note_on_c, 0, 80, 0
1, 177120, Note_on_c, 0, 81, 127
1, 177356, Note_on_c, 0, 81, 0
1, 177360, Note_on_c, 0, 80, 127
1, 177596, Note_on_c, 0, 80, 0
1, 177600, Note_on_c, 0, 78, 127
1, 178076, Note_on_c, 0, 78, 0
1, 178080, Note_on_c, 0, 83, 127
1, 178556, Note_on_c, 0, 83, 0
1, 178560, Note_on_c, 0, 76, 127
1, 179036, Note_on_c, 0, 76, 0
1, 179040, Note_on_c, 0, 81, 127
1, 179516, Note_on_c, 0, 81, 0
1, 180000, Note_on_c, 0, 76, 127
1, 180959, Note_on_c, 0, 76, 0
1, 180960, Note_on_c, 0, 74, 127
1, 181436, Note_on_c, 0, 74, 0
1, 181920, Note_on_c, 0, 73, 127
1, 182879, Note_on_c, 0, 73, 0
1, 182880, Note_on_c, 0, 71, 127
1, 183356, Note_on_c, 0, 71, 0
1, 183840, Note_on_c, 0, 69, 127
1, 184799, Note_on_c, 0, 69, 0
1, 184800, Note_on_c, 0, 68, 127
1, 185519, Note_on_c, 0, 68, 0
1, 185520, Note_on_c, 0, 66, 127
1, 185756, Note_on_c, 0, 66, 0
1, 185760, Note_on_c, 0, 78, 127
1, 186479, Note_on_c, 0, 78, 0
1, 186480, Note_on_c, 0, 75, 127
1, 186716, Note_on_c, 0, 75, 0
1, 186720, Note_on_c, 0, 77, 127
1, 187196, Note_on_c, 0, 77, 0
1, 187200, Note_on_c, 0, 76, 127
1, 188639, Note_on_c, 0, 76, 0
1, 188640, Note_on_c, 0, 74, 127
1, 188876, Note_on_c, 0, 74, 0
1, 188880, Note_on_c, 0, 73, 127
1, 189116, Note_on_c, 0, 73, 0
1, 189120, Note_on_c, 0, 74, 127
1, 190559, Note_on_c, 0, 74, 0
1, 190560, Note_on_c, 0, 73, 127
1, 190796, Note_on_c, 0, 73, 0
1, 190800, Note_on_c, 0, 71, 127
1, 191036, Note_on_c, 0, 71, 0
1, 191040, Note_on_c, 0, 73, 127
1, 191276, Note_on_c, 0, 73, 0
1, 191280, Note_on_c, 0, 74, 127
1, 191516, Note_on_c, 0, 74, 0
1, 191520, Note_on_c, 0, 76, 127
1, 192239, Note_on_c, 0, 76, 0
1, 192240, Note_on_c, 0, 73, 127
1, 192476, Note_on_c, 0, 73, 0
1, 192480, Note_on_c, 0, 75, 127
1, 192716, Note_on_c, 0, 75, 0
1, 192720, Note_on_c, 0, 76, 127
1, 192956, Note_on_c, 0, 76, 0
1, 192960, Note_on_c, 0, 78, 127
1, 193436, Note_on_c, 0, 78, 0
1, 193440, Note_on_c, 0, 69, 127
1, 194159, Note_on_c, 0, 69, 0
1, 194160, Note_on_c, 0, 66, 127
1, 194396, Note_on_c, 0, 66, 0
1, 194400, Note_on_c, 0, 68, 127
1, 194636, Note_on_c, 0, 68, 0
1, 194640, Note_on_c, 0, 69, 127
1, 194876, Note_on_c, 0, 69, 0
1, 194880, Note_on_c, 0, 71, 127
1, 195116, Note_on_c, 0, 71, 0
1, 195120, Note_on_c, 0, 73, 127
1, 195356, Note_on_c, 0, 73, 0
1, 195360, Note_on_c, 0, 74, 127
1, 195596, Note_on_c, 0, 74, 0
1, 195600, Note_on_c, 0, 71, 127
1, 195836, Note_on_c, 0, 71, 0
1, 195840, Note_on_c, 0, 73, 127
1, 196316, Note_on_c, 0, 73, 0
1, 196320, Note_on_c, 0, 76, 127
1, 196796, Note_on_c, 0, 76, 0
1, 196800, Note_on_c, 0, 69, 80
1, 197519, Note_on_c, 0, 69, 0
1, 197520, Note_on_c, 0, 71, 127
1, 197756, Note_on_c, 0, 71, 0
1, 197760, Note_on_c, 0, 73, 80
1, 198479, Note_on_c, 0, 73, 0
1, 198480, Note_on_c, 0, 75, 127
1, 198716, Note_on_c, 0, 75, 0
1, 198720, Note_on_c, 0, 76, 127
1, 199676, Note_on_c, 0, 76, 0
1, 199680, Note_on_c, 0, 78, 127
1, 200636, Note_on_c, 0, 78, 0
1, 200640, Note_on_c, 0, 76, 80
1, 201359, Note_on_c, 0, 76, 0
1, 201360, Note_on_c, 0, 74, 127
1, 201596, Note_on_c, 0, 74, 0
1, 201600, Note_on_c, 0, 73, 127
1, 202799, Note_on_c, 0, 73, 0
1, 202800, Note_on_c, 0, 71, 127
1, 203036, Note_on_c, 0, 71, 0
1, 203040, Note_on_c, 0, 73, 127
1, 203276, Note_on_c, 0, 73, 0
1, 203280, Note_on_c, 0, 75, 127
1, 203516, Note_on_c, 0, 75, 0
1, 203520, Note_on_c, 0, 76, 127
1, 203996, Note_on_c, 0, 76, 0
1, 204000, Note_on_c, 0, 64, 127
1, 204236, Note_on_c, 0, 64, 0
1, 204240, Note_on_c, 0, 66, 127
1, 204476, Note_on_c, 0, 66, 0
1, 204480, Note_on_c, 0, 68, 127
1, 204716, Note_on_c, 0, 68, 0
1, 204720, Note_on_c, 0, 69, 127
1, 204956, Note_on_c, 0, 69, 0
1, 204960, Note_on_c, 0, 71, 127
1, 205196, Note_on_c, 0, 71, 0
1, 205200, Note_on_c, 0, 73, 127
1, 205436, Note_on_c, 0, 73, 0
1, 205440, Note_on_c, 0, 74, 127
1, 205676, Note_on_c, 0, 74, 0
1, 205680, Note_on_c, 0, 76, 127
1, 205916, Note_on_c, 0, 76, 0
1, 205920, Note_on_c, 0, 78, 127
1, 206156, Note_on_c, 0, 78, 0
1, 206160, Note_on_c, 0, 74, 127
1, 206396, Note_on_c, 0, 74, 0
1, 206400, Note_on_c, 0, 71, 127
1, 206636, Note_on_c, 0, 71, 0
1, 206640, Note_on_c, 0, 76, 127
1, 206876, Note_on_c, 0, 76, 0
1, 206880, Note_on_c, 0, 74, 127
1, 207116, Note_on_c, 0, 74, 0
1, 207120, Note_on_c, 0, 76, 127
1, 207356, Note_on_c, 0, 76, 0
1, 207360, Note_on_c, 0, 73, 127
1, 207596, Note_on_c, 0, 73, 0
1, 207600, Note_on_c, 0, 74, 127
1, 207836, Note_on_c, 0, 74, 0
1, 207840, Note_on_c, 0, 76, 127
1, 208076, Note_on_c, 0, 76, 0
1, 208080, Note_on_c, 0, 73, 127
1, 208316, Note_on_c, 0, 73, 0
1, 208320, Note_on_c, 0, 69, 127
1, 208556, Note_on_c, 0, 69, 0
1, 208560, Note_on_c, 0, 66, 127
1, 208796, Note_on_c, 0, 66, 0
1, 208800, Note_on_c, 0, 78, 127
1, 209759, Note_on_c, 0, 78, 0
1, 209760, Note_on_c, 0, 78, 127
1, 210236, Note_on_c, 0, 78, 0
1, 210720, Note_on_c, 0, 77, 127
1, 211196, Note_on_c, 0, 77, 0
1, 211200, Note_on_c, 0, 78, 127
1, 211436, Note_on_c, 0, 78, 0
1, 211440, Note_on_c, 0, 76, 127
1, 211676, Note_on_c, 0, 76, 0
1, 211680, Note_on_c, 0, 74, 127
1, 211916, Note_on_c, 0, 74, 0
1, 211920, Note_on_c, 0, 73, 127
1, 212156, Note_on_c, 0, 73, 0
1, 212160, Note_on_c, 0, 72, 127
1, 212636, Note_on_c, 0, 72, 0
1, 212640, Note_on_c, 0, 73, 127
1, 213116, Note_on_c, 0, 73, 0
1, 213120, Note_on_c, 0, 75, 127
1, 214319, Note_on_c, 0, 75, 0
1, 214320, Note_on_c, 0, 68, 127
1, 214556, Note_on_c, 0, 68, 0
1, 214560, Note_on_c, 0, 73, 127
1, 214796, Note_on_c, 0, 73, 0
1, 214800, Note_on_c, 0, 71, 127
1, 215036, Note_on_c, 0, 71, 0
1, 215040, Note_on_c, 0, 69, 127
1, 217199, Note_on_c, 0, 69, 0
1, 217200, Note_on_c, 0, 69, 127
1, 217436, Note_on_c, 0, 69, 0
1, 217440, Note_on_c, 0, 68, 127
1, 217676, Note_on_c, 0, 68, 0
1, 217680, Note_on_c, 0, 66, 127
1, 217916, Note_on_c, 0, 66, 0
1, 217920, Note_on_c, 0, 64, 80
1, 218639, Note_on_c, 0, 64, 0
1, 218640, Note_on_c, 0, 64, 127
1, 218876, Note_on_c, 0, 64, 0
1, 218880, Note_on_c, 0, 63, 127
1, 219116, Note_on_c, 0, 63, 0
1, 219120, Note_on_c, 0, 68, 127
1, 219356, Note_on_c, 0, 68, 0
1, 219600, Note_on_c, 0, 66, 127
1, 219836, Note_on_c, 0, 66, 0
1, 219840, Note_on_c, 0, 64, 127
1, 220076, Note_on_c, 0, 64, 0
1, 220080, Note_on_c, 0, 63, 127
1, 220316, Note_on_c, 0, 63, 0
1, 220320, Note_on_c, 0, 64, 127
1, 220556, Note_on_c, 0, 64, 0
1, 220560, Note_on_c, 0, 66, 127
1, 220796, Note_on_c, 0, 66, 0
1, 220800, Note_on_c, 0, 68, 127
1, 221036, Note_on_c, 0, 68, 0
1, 221040, Note_on_c, 0, 66, 127
1, 221276, Note_on_c, 0, 66, 0
1, 221280, Note_on_c, 0, 68, 127
1, 221516, Note_on_c, 0, 68, 0
1, 221520, Note_on_c, 0, 69, 127
1, 221756, Note_on_c, 0, 69, 0
1, 221760, Note_on_c, 0, 71, 127
1, 221996, Note_on_c, 0, 71, 0
1, 222000, Note_on_c, 0, 73, 127
1, 222236, Note_on_c, 0, 73, 0
1, 222240, Note_on_c, 0, 74, 127
1, 222476, Note_on_c, 0, 74, 0
1, 222480, Note_on_c, 0, 71, 127
1, 222716, Note_on_c, 0, 71, 0
1, 222720, Note_on_c, 0, 73, 127
1, 223676, Note_on_c, 0, 73, 0
1, 223680, Note_on_c, 0, 71, 127
1, 224156, Note_on_c, 0, 71, 0
1, 224160, Note_on_c, 0, 76, 127
1, 224396, Note_on_c, 0, 76, 0
1, 224400, Note_on_c, 0, 75, 127
1, 224636, Note_on_c, 0, 75, 0
1, 224640, Note_on_c, 0, 76, 80
1, 225359, Note_on_c, 0, 76, 0
1, 225360, Note_on_c, 0, 72, 127
1, 225596, Note_on_c, 0, 72, 0
1, 225600, Note_on_c, 0, 73, 127
1, 227999, Note_on_c, 0, 73, 0
1, 228000, Note_on_c, 0, 72, 127
1, 228476, Note_on_c, 0, 72, 0
1, 228480, Note_on_c, 0, 73, 127
1, 229436, Note_on_c, 0, 73, 0
1, 229437, End_track
2, 0, Start_track
2, 0, Key_signature, 4, "major"
2, 480, Note_on_c, 0, 60, 127
2, 956, Note_on_c, 0, 60, 0
2, 960, Note_on_c, 0, 61, 127
2, 1436, Note_on_c, 0, 61, 0
2, 1440, Note_on_c, 0, 56, 127
2, 1916, Note_on_c, 0, 56, 0
2, 2400, Note_on_c, 0, 64, 127
2, 2876, Note_on_c, 0, 64, 0
2, 2880, Note_on_c, 0, 63, 127
2, 3356, Note_on_c, 0, 63, 0
2, 3360, Note_on_c, 0, 68, 127
2, 3836, Note_on_c, 0, 68, 0
2, 3840, Note_on_c, 0, 61, 127
2, 4076, Note_on_c, 0, 61, 0
2, 4080, Note_on_c, 0, 63, 127
2, 4316, Note_on_c, 0, 63, 0
2, 4320, Note_on_c, 0, 64, 127
2, 4556, Note_on_c, 0, 64, 0
2, 4560, Note_on_c, 0, 66, 127
2, 4796, Note_on_c, 0, 66, 0
2, 4800, Note_on_c, 0, 68, 127
2, 5036, Note_on_c, 0, 68, 0
2, 5040, Note_on_c, 0, 69, 127
2, 5276, Note_on_c, 0, 69, 0
2, 5280, Note_on_c, 0, 71, 127
2, 5999, Note_on_c, 0, 71, 0
2, 6000, Note_on_c, 0, 69, 127
2, 6236, Note_on_c, 0, 69, 0
2, 6240, Note_on_c, 0, 68, 127
2, 6476, Note_on_c, 0, 68, 0
2, 6480, Note_on_c, 0, 66, 127
2, 6716, Note_on_c, 0, 66, 0
2, 6720, Note_on_c, 0, 65, 127
2, 6956, Note_on_c, 0, 65, 0
2, 6960, Note_on_c, 0, 61, 127
2, 7196, Note_on_c, 0, 61, 0
2, 7200, Note_on_c, 0, 66, 127
2, 7919, Note_on_c, 0, 66, 0
2, 7920, Note_on_c, 0, 63, 127
2, 8156, Note_on_c, 0, 63, 0
2, 8160, Note_on_c, 0, 65, 127
2, 8396, Note_on_c, 0, 65, 0
2, 8400, Note_on_c, 0, 68, 127
2, 8636, Note_on_c, 0, 68, 0
2, 8640, Note_on_c, 0, 69, 127
2, 9839, Note_on_c, 0, 69, 0
2, 9840, Note_on_c, 0, 66, 127
2, 10076, Note_on_c, 0, 66, 0
2, 10080, Note_on_c, 0, 68, 127
2, 10316, Note_on_c, 0, 68, 0
2, 10320, Note_on_c, 0, 72, 127
2, 10556, Note_on_c, 0, 72, 0
2, 10560, Note_on_c, 0, 73, 127
2, 11759, Note_on_c, 0, 73, 0
2, 11760, Note_on_c, 0, 71, 127
2, 11996, Note_on_c, 0, 71, 0
2, 12000, Note_on_c, 0, 69, 127
2, 12236, Note_on_c, 0, 69, 0
2, 12240, Note_on_c, 0, 68, 127
2, 12476, Note_on_c, 0, 68, 0
2, 12480, Note_on_c, 0, 66, 127
2, 12716, Note_on_c, 0, 66, 0
2, 12720, Note_on_c, 0, 64, 127
2, 12956, Note_on_c, 0, 64, 0
2, 12960, Note_on_c, 0, 63, 127
2, 13436, Note_on_c, 0, 63, 0
2, 13440, Note_on_c, 0, 68, 80
2, 14159, Note_on_c, 0, 68, 0
2, 14160, Note_on_c, 0, 66, 127
2, 14396, Note_on_c, 0, 66, 0
2, 14400, Note_on_c, 0, 64, 127
2, 14876, Note_on_c, 0, 64, 0
2, 14880, Note_on_c, 0, 63, 127
2, 15116, Note_on_c, 0, 63, 0
2, 15120, Note_on_c, 0, 65, 127
2, 15356, Note_on_c, 0, 65, 0
2, 15360, Note_on_c, 0, 67, 127
2, 15836, Note_on_c, 0, 67, 0
2, 15840, Note_on_c, 0, 68, 127
2, 16076, Note_on_c, 0, 68, 0
2, 16080, Note_on_c, 0, 70, 127
2, 16316, Note_on_c, 0, 70, 0
2, 16320, Note_on_c, 0, 71, 127
2, 16796, Note_on_c, 0, 71, 0
2, 16800, Note_on_c, 0, 70, 127
2, 17276, Note_on_c, 0, 70, 0
2, 17280, Note_on_c, 0, 68, 127
2, 18236, Note_on_c, 0, 68, 0
2, 25440, Note_on_c, 0, 67, 127
2, 25916, Note_on_c, 0, 67, 0
2, 25920, Note_on_c, 0, 68, 127
2, 26396, Note_on_c, 0, 68, 0
2, 26400, Note_on_c, 0, 63, 127
2, 26876, Note_on_c, 0, 63, 0
2, 27360, Note_on_c, 0, 69, 127
2, 27836, Note_on_c, 0, 69, 0
2, 27840, Note_on_c, 0, 68, 127
2, 28316, Note_on_c, 0, 68, 0
2, 28320, Note_on_c, 0, 73, 127
2, 28796, Note_on_c, 0, 73, 0
2, 28800, Note_on_c, 0, 66, 127
2, 29036, Note_on_c, 0, 66, 0
2, 29040, Note_on_c, 0, 68, 127
2, 29276, Note_on_c, 0, 68, 0
2, 29280, Note_on_c, 0, 70, 127
2, 29516, Note_on_c, 0, 70, 0
2, 29520, Note_on_c, 0, 72, 127
2, 29756, Note_on_c, 0, 72, 0
2, 29760, Note_on_c, 0, 73, 127
2, 29996, Note_on_c, 0, 73, 0
2, 30000, Note_on_c, 0, 75, 127
2, 30236, Note_on_c, 0, 75, 0
2, 30240, Note_on_c, 0, 76, 127
2, 30959, Note_on_c, 0, 76, 0
2, 30960, Note_on_c, 0, 75, 127
2, 31196, Note_on_c, 0, 75, 0
2, 31200, Note_on_c, 0, 73, 127
2, 31436, Note_on_c, 0, 73, 0
2, 31440, Note_on_c, 0, 71, 127
2, 31676, Note_on_c, 0, 71, 0
2, 31680, Note_on_c, 0, 69, 127
2, 31916, Note_on_c, 0, 69, 0
2, 31920, Note_on_c, 0, 68, 127
2, 32156, Note_on_c, 0, 68, 0
2, 32160, Note_on_c, 0, 69, 127
2, 33119, Note_on_c, 0, 69, 0
2, 33120, Note_on_c, 0, 68, 127
2, 33356, Note_on_c, 0, 68, 0
2, 33360, Note_on_c, 0, 66, 127
2, 33596, Note_on_c, 0, 66, 0
2, 33600, Note_on_c, 0, 64, 127
2, 33836, Note_on_c, 0, 64, 0
2, 33840, Note_on_c, 0, 66, 127
2, 34076, Note_on_c, 0, 66, 0
2, 34080, Note_on_c, 0, 64, 127
2, 34316, Note_on_c, 0, 64, 0
2, 34320, Note_on_c, 0, 62, 127
2, 34556, Note_on_c, 0, 62, 0
2, 34560, Note_on_c, 0, 61, 80
2, 35999, Note_on_c, 0, 61, 0
2, 36000, Note_on_c, 0, 63, 127
2, 36236, Note_on_c, 0, 63, 0
2, 36240, Note_on_c, 0, 64, 127
2, 36476, Note_on_c, 0, 64, 0
2, 36480, Note_on_c, 0, 66, 127
2, 36716, Note_on_c, 0, 66, 0
2, 36720, Note_on_c, 0, 64, 127
2, 36956, Note_on_c, 0, 64, 0
2, 36960, Note_on_c, 0, 63, 127
2, 37196, Note_on_c, 0, 63, 0
2, 37200, Note_on_c, 0, 61, 127
2, 37436, Note_on_c, 0, 61, 0
2, 37440, Note_on_c, 0, 59, 127
2, 37916, Note_on_c, 0, 59, 0
2, 37920, Note_on_c, 0, 64, 127
2, 38396, Note_on_c, 0, 64, 0
2, 38400, Note_on_c, 0, 64, 127
2, 39599, Note_on_c, 0, 64, 0
2, 39600, Note_on_c, 0, 65, 127
2, 39836, Note_on_c, 0, 65, 0
2, 39840, Note_on_c, 0, 66, 127
2, 40076, Note_on_c, 0, 66, 0
2, 40080, Note_on_c, 0, 67, 127
2, 40316, Note_on_c, 0, 67, 0
2, 40320, Note_on_c, 0, 68, 127
2, 41276, Note_on_c, 0, 68, 0
2, 44160, Note_on_c, 0, 73, 127
2, 45116, Note_on_c, 0, 73, 0
2, 45120, Note_on_c, 0, 68, 80
2, 45839, Note_on_c, 0, 68, 0
2, 45840, Note_on_c, 0, 70, 127
2, 46076, Note_on_c, 0, 70, 0
2, 46080, Note_on_c, 0, 72, 80
2, 46799, Note_on_c, 0, 72, 0
2, 46800, Note_on_c, 0, 73, 127
2, 47036, Note_on_c, 0, 73, 0
2, 47040, Note_on_c, 0, 75, 127
2, 47996, Note_on_c, 0, 75, 0
2, 48000, Note_on_c, 0, 68, 127
2, 48956, Note_on_c, 0, 68, 0
2, 63360, Note_on_c, 0, 73, 127
2, 64316, Note_on_c, 0, 73, 0
2, 64320, Note_on_c, 0, 68, 80
2, 65039, Note_on_c, 0, 68, 0
2, 65040, Note_on_c, 0, 70, 127
2, 65276, Note_on_c, 0, 70, 0
2, 65280, Note_on_c, 0, 71, 80
2, 65999, Note_on_c, 0, 71, 0
2, 66000, Note_on_c, 0, 73, 127
2, 66236, Note_on_c, 0, 73, 0
2, 66240, Note_on_c, 0, 75, 127
2, 67196, Note_on_c, 0, 75, 0
2, 67200, Note_on_c, 0, 76, 127
2, 68156, Note_on_c, 0, 76, 0
2, 68160, Note_on_c, 0, 75, 80
2, 68879, Note_on_c, 0, 75, 0
2, 68880, Note_on_c, 0, 73, 127
2, 69116, Note_on_c, 0, 73, 0
2, 69120, Note_on_c, 0, 72, 127
2, 70319, Note_on_c, 0, 72, 0
2, 70320, Note_on_c, 0, 68, 127
2, 70556, Note_on_c, 0, 68, 0
2, 70560, Note_on_c, 0, 70, 127
2, 70796, Note_on_c, 0, 70, 0
2, 70800, Note_on_c, 0, 72, 127
2, 71036, Note_on_c, 0, 72, 0
2, 71040, Note_on_c, 0, 73, 127
2, 72239, Note_on_c, 0, 73, 0
2, 72240, Note_on_c, 0, 73, 127
2, 72476, Note_on_c, 0, 73, 0
2, 72480, Note_on_c, 0, 71, 127
2, 72716, Note_on_c, 0, 71, 0
2, 72720, Note_on_c, 0, 70, 127
2, 72956, Note_on_c, 0, 70, 0
2, 72960, Note_on_c, 0, 71, 127
2, 74159, Note_on_c, 0, 71, 0
2, 74160, Note_on_c, 0, 71, 127
2, 74396, Note_on_c, 0, 71, 0
2, 74400, Note_on_c, 0, 69, 127
2, 74636, Note_on_c, 0, 69, 0
2, 74640, Note_on_c, 0, 68, 127
2, 74876, Note_on_c, 0, 68, 0
2, 74880, Note_on_c, 0, 69, 127
2, 76079, Note_on_c, 0, 69, 0
2, 76080, Note_on_c, 0, 69, 127
2, 76316, Note_on_c, 0, 69, 0
2, 76320, Note_on_c, 0, 68, 127
2, 76556, Note_on_c, 0, 68, 0
2, 76560, Note_on_c, 0, 66, 127
2, 76796, Note_on_c, 0, 66, 0
2, 76800, Note_on_c, 0, 68, 127
2, 77999, Note_on_c, 0, 68, 0
2, 78000, Note_on_c, 0, 66, 127
2, 78236, Note_on_c, 0, 66, 0
2, 78240, Note_on_c, 0, 64, 127
2, 78476, Note_on_c, 0, 64, 0
2, 78480, Note_on_c, 0, 63, 127
2, 78716, Note_on_c, 0, 63, 0
2, 78720, Note_on_c, 0, 64, 80
2, 80159, Note_on_c, 0, 64, 0
2, 80160, Note_on_c, 0, 64, 127
2, 80636, Note_on_c, 0, 64, 0
2, 80640, Note_on_c, 0, 63, 80
2, 82079, Note_on_c, 0, 63, 0
2, 82080, Note_on_c, 0, 63, 127
2, 82556, Note_on_c, 0, 63, 0
2, 82560, Note_on_c, 0, 68, 127
2, 83516, Note_on_c, 0, 68, 0
2, 83520, Note_on_c, 0, 61, 80
2, 84239, Note_on_c, 0, 61, 0
2, 84240, Note_on_c, 0, 63, 127
2, 84476, Note_on_c, 0, 63, 0
2, 84480, Note_on_c, 0, 64, 80
2, 85199, Note_on_c, 0, 64, 0
2, 85200, Note_on_c, 0, 66, 127
2, 85436, Note_on_c, 0, 66, 0
2, 85440, Note_on_c, 0, 68, 127
2, 86396, Note_on_c, 0, 68, 0
2, 86400, Note_on_c, 0, 69, 127
2, 87356, Note_on_c, 0, 69, 0
2, 87360, Note_on_c, 0, 68, 80
2, 88079, Note_on_c, 0, 68, 0
2, 88080, Note_on_c, 0, 66, 127
2, 88316, Note_on_c, 0, 66, 0
2, 88320, Note_on_c, 0, 64, 127
2, 89519, Note_on_c, 0, 64, 0
2, 89520, Note_on_c, 0, 63, 127
2, 89756, Note_on_c, 0, 63, 0
2, 89760, Note_on_c, 0, 64, 127
2, 89996, Note_on_c, 0, 64, 0
2, 90000, Note_on_c, 0, 66, 127
2, 90236, Note_on_c, 0, 66, 0
2, 90240, Note_on_c, 0, 68, 127
2, 90716, Note_on_c, 0, 68, 0
2, 90720, Note_on_c, 0, 73, 127
2, 91439, Note_on_c, 0, 73, 0
2, 91440, Note_on_c, 0, 71, 127
2, 91676, Note_on_c, 0, 71, 0
2, 91680, Note_on_c, 0, 69, 127
2, 91916, Note_on_c, 0, 69, 0
2, 91920, Note_on_c, 0, 68, 127
2, 92156, Note_on_c, 0, 68, 0
2, 92160, Note_on_c, 0, 66, 127
2, 92636, Note_on_c, 0, 66, 0
2, 92640, Note_on_c, 0, 71, 127
2, 93359, Note_on_c, 0, 71, 0
2, 93360, Note_on_c, 0, 69, 127
2, 93596, Note_on_c, 0, 69, 0
2, 93600, Note_on_c, 0, 68, 127
2, 93836, Note_on_c, 0, 68, 0
2, 93840, Note_on_c, 0, 66, 127
2, 94076, Note_on_c, 0, 66, 0
2, 94080, Note_on_c, 0, 64, 127
2, 94556, Note_on_c, 0, 64, 0
2, 94560, Note_on_c, 0, 69, 127
2, 95036, Note_on_c, 0, 69, 0
2, 95520, Note_on_c, 0, 68, 127
2, 95996, Note_on_c, 0, 68, 0
2, 96000, Note_on_c, 0, 75, 127
2, 96476, Note_on_c, 0, 75, 0
2, 98400, Note_on_c, 0, 61, 127
2, 98876, Note_on_c, 0, 61, 0
2, 98880, Note_on_c, 0, 64, 127
2, 99356, Note_on_c, 0, 64, 0
2, 99360, Note_on_c, 0, 59, 127
2, 99836, Note_on_c, 0, 59, 0
2, 100320, Note_on_c, 0, 68, 127
2, 100796, Note_on_c, 0, 68, 0
2, 100800, Note_on_c, 0, 66, 127
2, 101276, Note_on_c, 0, 66, 0
2, 101280, Note_on_c, 0, 71, 127
2, 101756, Note_on_c, 0, 71, 0
2, 101760, Note_on_c, 0, 64, 127
2, 101996, Note_on_c, 0, 64, 0
2, 102000, Note_on_c, 0, 66, 127
2, 102236, Note_on_c, 0, 66, 0
2, 102240, Note_on_c, 0, 68, 127
2, 102476, Note_on_c, 0, 68, 0
2, 102480, Note_on_c, 0, 70, 127
2, 102716, Note_on_c, 0, 70, 0
2, 102720, Note_on_c, 0, 71, 127
2, 102956, Note_on_c, 0, 71, 0
2, 102960, Note_on_c, 0, 73, 127
2, 103196, Note_on_c, 0, 73, 0
2, 103200, Note_on_c, 0, 75, 127
2, 103919, Note_on_c, 0, 75, 0
2, 103920, Note_on_c, 0, 73, 127
2, 104156, Note_on_c, 0, 73, 0
2, 104160, Note_on_c, 0, 71, 127
2, 104396, Note_on_c, 0, 71, 0
2, 104400, Note_on_c, 0, 70, 127
2, 104636, Note_on_c, 0, 70, 0
2, 104640, Note_on_c, 0, 68, 127
2, 105839, Note_on_c, 0, 68, 0
2, 105840, Note_on_c, 0, 65, 127
2, 106076, Note_on_c, 0, 65, 0
2, 106080, Note_on_c, 0, 67, 127
2, 106556, Note_on_c, 0, 67, 0
2, 113760, Note_on_c, 0, 61, 127
2, 113996, Note_on_c, 0, 61, 0
2, 114000, Note_on_c, 0, 63, 127
2, 114236, Note_on_c, 0, 63, 0
2, 114240, Note_on_c, 0, 64, 127
2, 114476, Note_on_c, 0, 64, 0
2, 114480, Note_on_c, 0, 66, 127
2, 114716, Note_on_c, 0, 66, 0
2, 114720, Note_on_c, 0, 68, 127
2, 114956, Note_on_c, 0, 68, 0
2, 114960, Note_on_c, 0, 70, 127
2, 115196, Note_on_c, 0, 70, 0
2, 115200, Note_on_c, 0, 71, 127
2, 115436, Note_on_c, 0, 71, 0
2, 115440, Note_on_c, 0, 73, 127
2, 115676, Note_on_c, 0, 73, 0
2, 115680, Note_on_c, 0, 74, 127
2, 115916, Note_on_c, 0, 74, 0
2, 115920, Note_on_c, 0, 71, 127
2, 116156, Note_on_c, 0, 71, 0
2, 116160, Note_on_c, 0, 68, 127
2, 116396, Note_on_c, 0, 68, 0
2, 116400, Note_on_c, 0, 73, 127
2, 116636, Note_on_c, 0, 73, 0
2, 116640, Note_on_c, 0, 71, 127
2, 116876, Note_on_c, 0, 71, 0
2, 116880, Note_on_c, 0, 73, 127
2, 117116, Note_on_c, 0, 73, 0
2, 117120, Note_on_c, 0, 69, 127
2, 117356, Note_on_c, 0, 69, 0
2, 117360, Note_on_c, 0, 71, 127
2, 117596, Note_on_c, 0, 71, 0
2, 117600, Note_on_c, 0, 69, 127
2, 117836, Note_on_c, 0, 69, 0
2, 117840, Note_on_c, 0, 68, 127
2, 118076, Note_on_c, 0, 68, 0
2, 118080, Note_on_c, 0, 66, 127
2, 118316, Note_on_c, 0, 66, 0
2, 118320, Note_on_c, 0, 68, 127
2, 118556, Note_on_c, 0, 68, 0
2, 118560, Note_on_c, 0, 69, 127
2, 118796, Note_on_c, 0, 69, 0
2, 118800, Note_on_c, 0, 66, 127
2, 119036, Note_on_c, 0, 66, 0
2, 119040, Note_on_c, 0, 68, 127
2, 119276, Note_on_c, 0, 68, 0
2, 119280, Note_on_c, 0, 70, 127
2, 119516, Note_on_c, 0, 70, 0
2, 119520, Note_on_c, 0, 71, 127
2, 119996, Note_on_c, 0, 71, 0
2, 120480, Note_on_c, 0, 69, 127
2, 121439, Note_on_c, 0, 69, 0
2, 121440, Note_on_c, 0, 63, 127
2, 121916, Note_on_c, 0, 63, 0
2, 121920, Note_on_c, 0, 68, 127
2, 123359, Note_on_c, 0, 68, 0
2, 123360, Note_on_c, 0, 73, 127
2, 123836, Note_on_c, 0, 73, 0
2, 123840, Note_on_c, 0, 66, 127
2, 125039, Note_on_c, 0, 66, 0
2, 125040, Note_on_c, 0, 66, 127
2, 125276, Note_on_c, 0, 66, 0
2, 125280, Note_on_c, 0, 64, 127
2, 125516, Note_on_c, 0, 64, 0
2, 125520, Note_on_c, 0, 63, 127
2, 125756, Note_on_c, 0, 63, 0
2, 125760, Note_on_c, 0, 64, 127
2, 125996, Note_on_c, 0, 64, 0
2, 126000, Note_on_c, 0, 63, 127
2, 126236, Note_on_c, 0, 63, 0
2, 126240, Note_on_c, 0, 61, 127
2, 126476, Note_on_c, 0, 61, 0
2, 126480, Note_on_c, 0, 60, 127
2, 126716, Note_on_c, 0, 60, 0
2, 126720, Note_on_c, 0, 61, 127
2, 126956, Note_on_c, 0, 61, 0
2, 126960, Note_on_c, 0, 63, 127
2, 127196, Note_on_c, 0, 63, 0
2, 127200, Note_on_c, 0, 64, 127
2, 127919, Note_on_c, 0, 64, 0
2, 127920, Note_on_c, 0, 63, 127
2, 128156, Note_on_c, 0, 63, 0
2, 128160, Note_on_c, 0, 61, 127
2, 129119, Note_on_c, 0, 61, 0
2, 129120, Note_on_c, 0, 73, 127
2, 129356, Note_on_c, 0, 73, 0
2, 129360, Note_on_c, 0, 72, 127
2, 129596, Note_on_c, 0, 72, 0
2, 129600, Note_on_c, 0, 73, 127
2, 129836, Note_on_c, 0, 73, 0
2, 129840, Note_on_c, 0, 75, 127
2, 130076, Note_on_c, 0, 75, 0
2, 130080, Note_on_c, 0, 76, 127
2, 131039, Note_on_c, 0, 76, 0
2, 131040, Note_on_c, 0, 68, 127
2, 131516, Note_on_c, 0, 68, 0
2, 131520, Note_on_c, 0, 69, 127
2, 131996, Note_on_c, 0, 69, 0
2, 132000, Note_on_c, 0, 61, 127
2, 132236, Note_on_c, 0, 61, 0
2, 132240, Note_on_c, 0, 63, 127
2, 132476, Note_on_c, 0, 63, 0
2, 132480, Note_on_c, 0, 64, 127
2, 132716, Note_on_c, 0, 64, 0
2, 132720, Note_on_c, 0, 63, 127
2, 132956, Note_on_c, 0, 63, 0
2, 132960, Note_on_c, 0, 64, 127
2, 133196, Note_on_c, 0, 64, 0
2, 133200, Note_on_c, 0, 66, 127
2, 133436, Note_on_c, 0, 66, 0
2, 133440, Note_on_c, 0, 68, 80
2, 134159, Note_on_c, 0, 68, 0
2, 134160, Note_on_c, 0, 66, 127
2, 134396, Note_on_c, 0, 66, 0
2, 134400, Note_on_c, 0, 64, 127
2, 134636, Note_on_c, 0, 64, 0
2, 134640, Note_on_c, 0, 68, 127
2, 134876, Note_on_c, 0, 68, 0
2, 134880, Note_on_c, 0, 69, 127
2, 135116, Note_on_c, 0, 69, 0
2, 135120, Note_on_c, 0, 71, 127
2, 135356, Note_on_c, 0, 71, 0
2, 135360, Note_on_c, 0, 73, 127
2, 137039, Note_on_c, 0, 73, 0
2, 137040, Note_on_c, 0, 71, 127
2, 137276, Note_on_c, 0, 71, 0
2, 137280, Note_on_c, 0, 69, 80
2, 137999, Note_on_c, 0, 69, 0
2, 138000, Note_on_c, 0, 68, 127
2, 138236, Note_on_c, 0, 68, 0
2, 138240, Note_on_c, 0, 66, 127
2, 138476, Note_on_c, 0, 66, 0
2, 138480, Note_on_c, 0, 70, 127
2, 138716, Note_on_c, 0, 70, 0
2, 138720, Note_on_c, 0, 71, 127
2, 138956, Note_on_c, 0, 71, 0
2, 138960, Note_on_c, 0, 73, 127
2, 139196, Note_on_c, 0, 73, 0
2, 139200, Note_on_c, 0, 75, 127
2, 140879, Note_on_c, 0, 75, 0
2, 140880, Note_on_c, 0, 73, 127
2, 141116, Note_on_c, 0, 73, 0
2, 141120, Note_on_c, 0, 71, 80
2, 141839, Note_on_c, 0, 71, 0
2, 141840, Note_on_c, 0, 69, 127
2, 142076, Note_on_c, 0, 69, 0
2, 142080, Note_on_c, 0, 71, 127
2, 143036, Note_on_c, 0, 71, 0
2, 143040, Note_on_c, 0, 64, 80
2, 143759, Note_on_c, 0, 64, 0
2, 143760, Note_on_c, 0, 66, 127
2, 143996, Note_on_c, 0, 66, 0
2, 144000, Note_on_c, 0, 68, 80
2, 144719, Note_on_c, 0, 68, 0
2, 144720, Note_on_c, 0, 69, 127
2, 144956, Note_on_c, 0, 69, 0
2, 144960, Note_on_c, 0, 71, 127
2, 145916, Note_on_c, 0, 71, 0
2, 145920, Note_on_c, 0, 73, 127
2, 146876, Note_on_c, 0, 73, 0
2, 146880, Note_on_c, 0, 71, 80
2, 147599, Note_on_c, 0, 71, 0
2, 147600, Note_on_c, 0, 69, 127
2, 147836, Note_on_c, 0, 69, 0
2, 147840, Note_on_c, 0, 68, 127
2, 149039, Note_on_c, 0, 68, 0
2, 149040, Note_on_c, 0, 66, 127
2, 149276, Note_on_c, 0, 66, 0
2, 149280, Note_on_c, 0, 68, 127
2, 149516, Note_on_c, 0, 68, 0
2, 149520, Note_on_c, 0, 69, 127
2, 149756, Note_on_c, 0, 69, 0
2, 149760, Note_on_c, 0, 71, 127
2, 150716, Note_on_c, 0, 71, 0
2, 151920, Note_on_c, 0, 63, 127
2, 152156, Note_on_c, 0, 63, 0
2, 152160, Note_on_c, 0, 64, 127
2, 152396, Note_on_c, 0, 64, 0
2, 152400, Note_on_c, 0, 68, 127
2, 152636, Note_on_c, 0, 68, 0
2, 152640, Note_on_c, 0, 61, 127
2, 153116, Note_on_c, 0, 61, 0
2, 153120, Note_on_c, 0, 63, 127
2, 153596, Note_on_c, 0, 63, 0
2, 153600, Note_on_c, 0, 64, 80
2, 154319, Note_on_c, 0, 64, 0
2, 154320, Note_on_c, 0, 63, 127
2, 154556, Note_on_c, 0, 63, 0
2, 154560, Note_on_c, 0, 61, 127
2, 154796, Note_on_c, 0, 61, 0
2, 154800, Note_on_c, 0, 56, 127
2, 155036, Note_on_c, 0, 56, 0
2, 155040, Note_on_c, 0, 57, 127
2, 155276, Note_on_c, 0, 57, 0
2, 155280, Note_on_c, 0, 61, 127
2, 155516, Note_on_c, 0, 61, 0
2, 155520, Note_on_c, 0, 66, 127
2, 156719, Note_on_c, 0, 66, 0
2, 156720, Note_on_c, 0, 69, 127
2, 156956, Note_on_c, 0, 69, 0
2, 156960, Note_on_c, 0, 68, 127
2, 157196, Note_on_c, 0, 68, 0
2, 157200, Note_on_c, 0, 63, 127
2, 157436, Note_on_c, 0, 63, 0
2, 157440, Note_on_c, 0, 64, 127
2, 158396, Note_on_c, 0, 64, 0
2, 159600, Note_on_c, 0, 65, 127
2, 159836, Note_on_c, 0, 65, 0
2, 159840, Note_on_c, 0, 66, 127
2, 160076, Note_on_c, 0, 66, 0
2, 160080, Note_on_c, 0, 69, 127
2, 160316, Note_on_c, 0, 69, 0
2, 160320, Note_on_c, 0, 63, 127
2, 160796, Note_on_c, 0, 63, 0
2, 160800, Note_on_c, 0, 65, 127
2, 161276, Note_on_c, 0, 65, 0
2, 161280, Note_on_c, 0, 66, 127
2, 161516, Note_on_c, 0, 66, 0
2, 161520, Note_on_c, 0, 65, 127
2, 161756, Note_on_c, 0, 65, 0
2, 161760, Note_on_c, 0, 66, 127
2, 162236, Note_on_c, 0, 66, 0
2, 162240, Note_on_c, 0, 69, 127
2, 162716, Note_on_c, 0, 69, 0
2, 162720, Note_on_c, 0, 65, 127
2, 163196, Note_on_c, 0, 65, 0
2, 163680, Note_on_c, 0, 73, 127
2, 164156, Note_on_c, 0, 73, 0
2, 164160, Note_on_c, 0, 71, 127
2, 164636, Note_on_c, 0, 71, 0
2, 164640, Note_on_c, 0, 76, 127
2, 165116, Note_on_c, 0, 76, 0
2, 165120, Note_on_c, 0, 69, 127
2, 165356, Note_on_c, 0, 69, 0
2, 165360, Note_on_c, 0, 71, 127
2, 165596, Note_on_c, 0, 71, 0
2, 165600, Note_on_c, 0, 73, 127
2, 165836, Note_on_c, 0, 73, 0
2, 165840, Note_on_c, 0, 75, 127
2, 166076, Note_on_c, 0, 75, 0
2, 166080, Note_on_c, 0, 76, 127
2, 166316, Note_on_c, 0, 76, 0
2, 166320, Note_on_c, 0, 78, 127
2, 166556, Note_on_c, 0, 78, 0
2, 166560, Note_on_c, 0, 80, 127
2, 167279, Note_on_c, 0, 80, 0
2, 167280, Note_on_c, 0, 78, 127
2, 167516, Note_on_c, 0, 78, 0
2, 167520, Note_on_c, 0, 76, 127
2, 167756, Note_on_c, 0, 76, 0
2, 167760, Note_on_c, 0, 75, 127
2, 167996, Note_on_c, 0, 75, 0
2, 168000, Note_on_c, 0, 73, 127
2, 168956, Note_on_c, 0, 73, 0
2, 168960, Note_on_c, 0, 72, 127
2, 169916, Note_on_c, 0, 72, 0
2, 171120, Note_on_c, 0, 66, 127
2, 171356, Note_on_c, 0, 66, 0
2, 171360, Note_on_c, 0, 68, 127
2, 171596, Note_on_c, 0, 68, 0
2, 171600, Note_on_c, 0, 66, 127
2, 171836, Note_on_c, 0, 66, 0
2, 171840, Note_on_c, 0, 65, 127
2, 172316, Note_on_c, 0, 65, 0
2, 172320, Note_on_c, 0, 68, 127
2, 172796, Note_on_c, 0, 68, 0
2, 173040, Note_on_c, 0, 66, 127
2, 173276, Note_on_c, 0, 66, 0
2, 173280, Note_on_c, 0, 64, 127
2, 173516, Note_on_c, 0, 64, 0
2, 173520, Note_on_c, 0, 66, 127
2, 173756, Note_on_c, 0, 66, 0
2, 173760, Note_on_c, 0, 68, 127
2, 174236, Note_on_c, 0, 68, 0
2, 174240, Note_on_c, 0, 63, 127
2, 174716, Note_on_c, 0, 63, 0
2, 174720, Note_on_c, 0, 64, 127
2, 175196, Note_on_c, 0, 64, 0
2, 175200, Note_on_c, 0, 71, 127
2, 175676, Note_on_c, 0, 71, 0
2, 175680, Note_on_c, 0, 66, 127
2, 176156, Note_on_c, 0, 66, 0
2, 176160, Note_on_c, 0, 75, 127
2, 176636, Note_on_c, 0, 75, 0
2, 176640, Note_on_c, 0, 68, 127
2, 177116, Note_on_c, 0, 68, 0
2, 177840, Note_on_c, 0, 73, 127
2, 178076, Note_on_c, 0, 73, 0
2, 178080, Note_on_c, 0, 74, 127
2, 178316, Note_on_c, 0, 74, 0
2, 178320, Note_on_c, 0, 73, 127
2, 178556, Note_on_c, 0, 73, 0
2, 178560, Note_on_c, 0, 71, 127
2, 179036, Note_on_c, 0, 71, 0
2, 179040, Note_on_c, 0, 76, 127
2, 179516, Note_on_c, 0, 76, 0
2, 179520, Note_on_c, 0, 69, 127
2, 179996, Note_on_c, 0, 69, 0
2, 180000, Note_on_c, 0, 71, 127
2, 180476, Note_on_c, 0, 71, 0
2, 180720, Note_on_c, 0, 66, 127
2, 180956, Note_on_c, 0, 66, 0
2, 180960, Note_on_c, 0, 68, 127
2, 181196, Note_on_c, 0, 68, 0
2, 181200, Note_on_c, 0, 66, 127
2, 181436, Note_on_c, 0, 66, 0
2, 181440, Note_on_c, 0, 64, 127
2, 181916, Note_on_c, 0, 64, 0
2, 181920, Note_on_c, 0, 69, 127
2, 182396, Note_on_c, 0, 69, 0
2, 182640, Note_on_c, 0, 62, 127
2, 182876, Note_on_c, 0, 62, 0
2, 182880, Note_on_c, 0, 64, 127
2, 183116, Note_on_c, 0, 64, 0
2, 183120, Note_on_c, 0, 62, 127
2, 183356, Note_on_c, 0, 62, 0
2, 183360, Note_on_c, 0, 61, 127
2, 183836, Note_on_c, 0, 61, 0
2, 183840, Note_on_c, 0, 66, 127
2, 184316, Note_on_c, 0, 66, 0
2, 184560, Note_on_c, 0, 59, 127
2, 184796, Note_on_c, 0, 59, 0
2, 184800, Note_on_c, 0, 61, 127
2, 185036, Note_on_c, 0, 61, 0
2, 185040, Note_on_c, 0, 59, 127
2, 185276, Note_on_c, 0, 59, 0
2, 185280, Note_on_c, 0, 57, 127
2, 185756, Note_on_c, 0, 57, 0
2, 185760, Note_on_c, 0, 69, 127
2, 186479, Note_on_c, 0, 69, 0
2, 186480, Note_on_c, 0, 66, 127
2, 186716, Note_on_c, 0, 66, 0
2, 186720, Note_on_c, 0, 68, 127
2, 187439, Note_on_c, 0, 68, 0
2, 187440, Note_on_c, 0, 66, 127
2, 187676, Note_on_c, 0, 66, 0
2, 187680, Note_on_c, 0, 64, 127
2, 187916, Note_on_c, 0, 64, 0
2, 187920, Note_on_c, 0, 62, 127
2, 188156, Note_on_c, 0, 62, 0
2, 188160, Note_on_c, 0, 61, 127
2, 188636, Note_on_c, 0, 61, 0
2, 188640, Note_on_c, 0, 66, 127
2, 189359, Note_on_c, 0, 66, 0
2, 189360, Note_on_c, 0, 64, 127
2, 189596, Note_on_c, 0, 64, 0
2, 189600, Note_on_c, 0, 62, 127
2, 189836, Note_on_c, 0, 62, 0
2, 189840, Note_on_c, 0, 61, 127
2, 190076, Note_on_c, 0, 61, 0
2, 190080, Note_on_c, 0, 59, 127
2, 190556, Note_on_c, 0, 59, 0
2, 190560, Note_on_c, 0, 64, 127
2, 191279, Note_on_c, 0, 64, 0
2, 191280, Note_on_c, 0, 62, 127
2, 191516, Note_on_c, 0, 62, 0
2, 191520, Note_on_c, 0, 61, 127
2, 191756, Note_on_c, 0, 61, 0
2, 191760, Note_on_c, 0, 59, 127
2, 191996, Note_on_c, 0, 59, 0
2, 192000, Note_on_c, 0, 57, 80
2, 192719, Note_on_c, 0, 57, 0
2, 192720, Note_on_c, 0, 56, 127
2, 192956, Note_on_c, 0, 56, 0
2, 192960, Note_on_c, 0, 57, 127
2, 193196, Note_on_c, 0, 57, 0
2, 193200, Note_on_c, 0, 59, 127
2, 193436, Note_on_c, 0, 59, 0
2, 193440, Note_on_c, 0, 61, 127
2, 193676, Note_on_c, 0, 61, 0
2, 193680, Note_on_c, 0, 63, 127
2, 193916, Note_on_c, 0, 63, 0
2, 193920, Note_on_c, 0, 64, 127
2, 194396, Note_on_c, 0, 64, 0
2, 194400, Note_on_c, 0, 59, 127
2, 194876, Note_on_c, 0, 59, 0
2, 196080, Note_on_c, 0, 71, 127
2, 196316, Note_on_c, 0, 71, 0
2, 196320, Note_on_c, 0, 69, 127
2, 196556, Note_on_c, 0, 69, 0
2, 196560, Note_on_c, 0, 68, 127
2, 196796, Note_on_c, 0, 68, 0
2, 196800, Note_on_c, 0, 66, 127
2, 197036, Note_on_c, 0, 66, 0
2, 197040, Note_on_c, 0, 65, 127
2, 197276, Note_on_c, 0, 65, 0
2, 197280, Note_on_c, 0, 66, 127
2, 197516, Note_on_c, 0, 66, 0
2, 197520, Note_on_c, 0, 68, 127
2, 197756, Note_on_c, 0, 68, 0
2, 197760, Note_on_c, 0, 69, 127
2, 197996, Note_on_c, 0, 69, 0
2, 198000, Note_on_c, 0, 68, 127
2, 198236, Note_on_c, 0, 68, 0
2, 198240, Note_on_c, 0, 69, 127
2, 198476, Note_on_c, 0, 69, 0
2, 198480, Note_on_c, 0, 66, 127
2, 198716, Note_on_c, 0, 66, 0
2, 198720, Note_on_c, 0, 71, 127
2, 198956, Note_on_c, 0, 71, 0
2, 198960, Note_on_c, 0, 74, 127
2, 199196, Note_on_c, 0, 74, 0
2, 199200, Note_on_c, 0, 73, 127
2, 199436, Note_on_c, 0, 73, 0
2, 199440, Note_on_c, 0, 71, 127
2, 199676, Note_on_c, 0, 71, 0
2, 199680, Note_on_c, 0, 69, 80
2, 200399, Note_on_c, 0, 69, 0
2, 200400, Note_on_c, 0, 74, 127
2, 200636, Note_on_c, 0, 74, 0
2, 200880, Note_on_c, 0, 74, 127
2, 201116, Note_on_c, 0, 74, 0
2, 201120, Note_on_c, 0, 73, 127
2, 201356, Note_on_c, 0, 73, 0
2, 201360, Note_on_c, 0, 71, 127
2, 201596, Note_on_c, 0, 71, 0
2, 201600, Note_on_c, 0, 69, 127
2, 201836, Note_on_c, 0, 69, 0
2, 201840, Note_on_c, 0, 68, 127
2, 202076, Note_on_c, 0, 68, 0
2, 202080, Note_on_c, 0, 66, 127
2, 202316, Note_on_c, 0, 66, 0
2, 202320, Note_on_c, 0, 68, 127
2, 202556, Note_on_c, 0, 68, 0
2, 202560, Note_on_c, 0, 69, 127
2, 202796, Note_on_c, 0, 69, 0
2, 202800, Note_on_c, 0, 68, 127
2, 203036, Note_on_c, 0, 68, 0
2, 203040, Note_on_c, 0, 69, 127
2, 203276, Note_on_c, 0, 69, 0
2, 203280, Note_on_c, 0, 66, 127
2, 203516, Note_on_c, 0, 66, 0
2, 203520, Note_on_c, 0, 71, 127
2, 203996, Note_on_c, 0, 71, 0
2, 204960, Note_on_c, 0, 64, 127
2, 205436, Note_on_c, 0, 64, 0
2, 205440, Note_on_c, 0, 66, 127
2, 205676, Note_on_c, 0, 66, 0
2, 205680, Note_on_c, 0, 68, 127
2, 205916, Note_on_c, 0, 68, 0
2, 205920, Note_on_c, 0, 69, 127
2, 206396, Note_on_c, 0, 69, 0
2, 206880, Note_on_c, 0, 68, 127
2, 207839, Note_on_c, 0, 68, 0
2, 207840, Note_on_c, 0, 61, 127
2, 208316, Note_on_c, 0, 61, 0
2, 208560, Note_on_c, 0, 66, 127
2, 208796, Note_on_c, 0, 66, 0
2, 208800, Note_on_c, 0, 68, 127
2, 209036, Note_on_c, 0, 68, 0
2, 209040, Note_on_c, 0, 69, 127
2, 209276, Note_on_c, 0, 69, 0
2, 209280, Note_on_c, 0, 71, 127
2, 209516, Note_on_c, 0, 71, 0
2, 209520, Note_on_c, 0, 73, 127
2, 209756, Note_on_c, 0, 73, 0
2, 209760, Note_on_c, 0, 74, 127
2, 209996, Note_on_c, 0, 74, 0
2, 210000, Note_on_c, 0, 71, 127
2, 210236, Note_on_c, 0, 71, 0
2, 210240, Note_on_c, 0, 68, 127
2, 210476, Note_on_c, 0, 68, 0
2, 210480, Note_on_c, 0, 73, 127
2, 210716, Note_on_c, 0, 73, 0
2, 210720, Note_on_c, 0, 71, 127
2, 210956, Note_on_c, 0, 71, 0
2, 210960, Note_on_c, 0, 73, 127
2, 211196, Note_on_c, 0, 73, 0
2, 211200, Note_on_c, 0, 69, 127
2, 212156, Note_on_c, 0, 69, 0
2, 212160, Note_on_c, 0, 68, 127
2, 212636, Note_on_c, 0, 68, 0
2, 212640, Note_on_c, 0, 69, 127
2, 213359, Note_on_c, 0, 69, 0
2, 213360, Note_on_c, 0, 68, 127
2, 213596, Note_on_c, 0, 68, 0
2, 213600, Note_on_c, 0, 66, 127
2, 213836, Note_on_c, 0, 66, 0
2, 213840, Note_on_c, 0, 68, 127
2, 214076, Note_on_c, 0, 68, 0
2, 214080, Note_on_c, 0, 64, 127
2, 215279, Note_on_c, 0, 64, 0
2, 215280, Note_on_c, 0, 68, 127
2, 215516, Note_on_c, 0, 68, 0
2, 215520, Note_on_c, 0, 66, 127
2, 215756, Note_on_c, 0, 66, 0
2, 215760, Note_on_c, 0, 64, 127
2, 215996, Note_on_c, 0, 64, 0
2, 216000, Note_on_c, 0, 63, 127
2, 216476, Note_on_c, 0, 63, 0
2, 216480, Note_on_c, 0, 61, 127
2, 216956, Note_on_c, 0, 61, 0
2, 216960, Note_on_c, 0, 60, 127
2, 217196, Note_on_c, 0, 60, 0
2, 217200, Note_on_c, 0, 61, 127
2, 217436, Note_on_c, 0, 61, 0
2, 217440, Note_on_c, 0, 63, 80
2, 218159, Note_on_c, 0, 63, 0
2, 218160, Note_on_c, 0, 63, 127
2, 218396, Note_on_c, 0, 63, 0
2, 218400, Note_on_c, 0, 61, 127
2, 219359, Note_on_c, 0, 61, 0
2, 219360, Note_on_c, 0, 60, 127
2, 219836, Note_on_c, 0, 60, 0
2, 219840, Note_on_c, 0, 61, 127
2, 220316, Note_on_c, 0, 61, 0
2, 220320, Note_on_c, 0, 56, 127
2, 220796, Note_on_c, 0, 56, 0
2, 221280, Note_on_c, 0, 64, 127
2, 221756, Note_on_c, 0, 64, 0
2, 221760, Note_on_c, 0, 63, 127
2, 222236, Note_on_c, 0, 63, 0
2, 222240, Note_on_c, 0, 68, 127
2, 222716, Note_on_c, 0, 68, 0
2, 222720, Note_on_c, 0, 61, 127
2, 222956, Note_on_c, 0, 61, 0
2, 222960, Note_on_c, 0, 63, 127
2, 223196, Note_on_c, 0, 63, 0
2, 223200, Note_on_c, 0, 64, 127
2, 223436, Note_on_c, 0, 64, 0
2, 223440, Note_on_c, 0, 66, 127
2, 223676, Note_on_c, 0, 66, 0
2, 223680, Note_on_c, 0, 68, 127
2, 223916, Note_on_c, 0, 68, 0
2, 223920, Note_on_c, 0, 69, 127
2, 224156, Note_on_c, 0, 69, 0
2, 224160, Note_on_c, 0, 71, 127
2, 224879, Note_on_c, 0, 71, 0
2, 224880, Note_on_c, 0, 69, 127
2, 225116, Note_on_c, 0, 69, 0
2, 225120, Note_on_c, 0, 68, 127
2, 225356, Note_on_c, 0, 68, 0
2, 225360, Note_on_c, 0, 66, 127
2, 225596, Note_on_c, 0, 66, 0
2, 225600, Note_on_c, 0, 64, 127
2, 225836, Note_on_c, 0, 64, 0
2, 225840, Note_on_c, 0, 66, 127
2, 226076, Note_on_c, 0, 66, 0
2, 226080, Note_on_c, 0, 68, 127
2, 229439, Note_on_c, 0, 68, 0
2, 229440, End_track
3, 0, Start_track
3, 0, Key_signature, 4, "major"
3, 0, Program_c, 1, 46
3, 2, Control_c, 1, 7, 100
3, 4, Control_c, 1, 10, 64
3, 6, Control_c, 1, 91, 30
3, 8, Control_c, 1, 93, 30
3, 5280, Note_on_c, 1, 53, 127
3, 5756, Note_on_c, 1, 53, 0
3, 5760, Note_on_c, 1, 54, 127
3, 6236, Note_on_c, 1, 54, 0
3, 6240, Note_on_c, 1, 49, 127
3, 6716, Note_on_c, 1, 49, 0
3, 7200, Note_on_c, 1, 57, 127
3, 7676, Note_on_c, 1, 57, 0
3, 7680, Note_on_c, 1, 56, 127
3, 8156, Note_on_c, 1, 56, 0
3, 8160, Note_on_c, 1, 61, 127
3, 8636, Note_on_c, 1, 61, 0
3, 8640, Note_on_c, 1, 54, 127
3, 8876, Note_on_c, 1, 54, 0
3, 8880, Note_on_c, 1, 56, 127
3, 9116, Note_on_c, 1, 56, 0
3, 9120, Note_on_c, 1, 57, 127
3, 9356, Note_on_c, 1, 57, 0
3, 9360, Note_on_c, 1, 59, 127
3, 9596, Note_on_c, 1, 59, 0
3, 9600, Note_on_c, 1, 61, 127
3, 9836, Note_on_c, 1, 61, 0
3, 9840, Note_on_c, 1, 63, 127
3, 10076, Note_on_c, 1, 63, 0
3, 10080, Note_on_c, 1, 64, 80
3, 10799, Note_on_c, 1, 64, 0
3, 10800, Note_on_c, 1, 63, 127
3, 11036, Note_on_c, 1, 63, 0
3, 11040, Note_on_c, 1, 61, 127
3, 11276, Note_on_c, 1, 61, 0
3, 11280, Note_on_c, 1, 59, 127
3, 11516, Note_on_c, 1, 59, 0
3, 11520, Note_on_c, 1, 57, 127
3, 11756, Note_on_c, 1, 57, 0
3, 11760, Note_on_c, 1, 56, 127
3, 11996, Note_on_c, 1, 56, 0
3, 12000, Note_on_c, 1, 61, 127
3, 12476, Note_on_c, 1, 61, 0
3, 12960, Note_on_c, 1, 60, 127
3, 13196, Note_on_c, 1, 60, 0
3, 13200, Note_on_c, 1, 58, 127
3, 13436, Note_on_c, 1, 58, 0
3, 13440, Note_on_c, 1, 60, 127
3, 13676, Note_on_c, 1, 60, 0
3, 13680, Note_on_c, 1, 61, 127
3, 13916, Note_on_c, 1, 61, 0
3, 13920, Note_on_c, 1, 63, 80
3, 14639, Note_on_c, 1, 63, 0
3, 14640, Note_on_c, 1, 61, 127
3, 14876, Note_on_c, 1, 61, 0
3, 14880, Note_on_c, 1, 63, 127
3, 16799, Note_on_c, 1, 63, 0
3, 16800, Note_on_c, 1, 61, 127
3, 17276, Note_on_c, 1, 61, 0
3, 17280, Note_on_c, 1, 59, 127
3, 18236, Note_on_c, 1, 59, 0
3, 18480, Note_on_c, 1, 51, 127
3, 18716, Note_on_c, 1, 51, 0
3, 18720, Note_on_c, 1, 56, 127
3, 19679, Note_on_c, 1, 56, 0
3, 19680, Note_on_c, 1, 54, 127
3, 19916, Note_on_c, 1, 54, 0
3, 19920, Note_on_c, 1, 53, 127
3, 20156, Note_on_c, 1, 53, 0
3, 20160, Note_on_c, 1, 54, 127
3, 21116, Note_on_c, 1, 54, 0
3, 21120, Note_on_c, 1, 52, 127
3, 21356, Note_on_c, 1, 52, 0
3, 21360, Note_on_c, 1, 54, 127
3, 21596, Note_on_c, 1, 54, 0
3, 21600, Note_on_c, 1, 56, 127
3, 21836, Note_on_c, 1, 56, 0
3, 21840, Note_on_c, 1, 58, 127
3, 22076, Note_on_c, 1, 58, 0
3, 22080, Note_on_c, 1, 59, 127
3, 23036, Note_on_c, 1, 59, 0
3, 23040, Note_on_c, 1, 57, 127
3, 23276, Note_on_c, 1, 57, 0
3, 23280, Note_on_c, 1, 59, 127
3, 23516, Note_on_c, 1, 59, 0
3, 23520, Note_on_c, 1, 61, 127
3, 23756, Note_on_c, 1, 61, 0
3, 23760, Note_on_c, 1, 63, 127
3, 23996, Note_on_c, 1, 63, 0
3, 24000, Note_on_c, 1, 64, 127
3, 24956, Note_on_c, 1, 64, 0
3, 24960, Note_on_c, 1, 63, 127
3, 25436, Note_on_c, 1, 63, 0
3, 25440, Note_on_c, 1, 64, 127
3, 25676, Note_on_c, 1, 64, 0
3, 25680, Note_on_c, 1, 61, 127
3, 25916, Note_on_c, 1, 61, 0
3, 25920, Note_on_c, 1, 63, 127
3, 26156, Note_on_c, 1, 63, 0
3, 26160, Note_on_c, 1, 56, 127
3, 26396, Note_on_c, 1, 56, 0
3, 26400, Note_on_c, 1, 57, 127
3, 26876, Note_on_c, 1, 57, 0
3, 26880, Note_on_c, 1, 56, 127
3, 27356, Note_on_c, 1, 56, 0
3, 27360, Note_on_c, 1, 61, 127
3, 27836, Note_on_c, 1, 61, 0
3, 28320, Note_on_c, 1, 53, 127
3, 28796, Note_on_c, 1, 53, 0
3, 28800, Note_on_c, 1, 54, 127
3, 29276, Note_on_c, 1, 54, 0
3, 29280, Note_on_c, 1, 49, 127
3, 29756, Note_on_c, 1, 49, 0
3, 29760, Note_on_c, 1, 56, 127
3, 29996, Note_on_c, 1, 56, 0
3, 30000, Note_on_c, 1, 54, 127
3, 30236, Note_on_c, 1, 54, 0
3, 30240, Note_on_c, 1, 52, 127
3, 30476, Note_on_c, 1, 52, 0
3, 30480, Note_on_c, 1, 51, 127
3, 30716, Note_on_c, 1, 51, 0
3, 30720, Note_on_c, 1, 49, 127
3, 30956, Note_on_c, 1, 49, 0
3, 30960, Note_on_c, 1, 47, 127
3, 31196, Note_on_c, 1, 47, 0
3, 31200, Note_on_c, 1, 45, 80
3, 31919, Note_on_c, 1, 45, 0
3, 31920, Note_on_c, 1, 47, 127
3, 32156, Note_on_c, 1, 47, 0
3, 32160, Note_on_c, 1, 49, 127
3, 32396, Note_on_c, 1, 49, 0
3, 32400, Note_on_c, 1, 51, 127
3, 32636, Note_on_c, 1, 51, 0
3, 32640, Note_on_c, 1, 52, 127
3, 32876, Note_on_c, 1, 52, 0
3, 32880, Note_on_c, 1, 54, 127
3, 33116, Note_on_c, 1, 54, 0
3, 33120, Note_on_c, 1, 52, 127
3, 34076, Note_on_c, 1, 52, 0
3, 34080, Note_on_c, 1, 54, 127
3, 34316, Note_on_c, 1, 54, 0
3, 34320, Note_on_c, 1, 56, 127
3, 34556, Note_on_c, 1, 56, 0
3, 34560, Note_on_c, 1, 57, 127
3, 35759, Note_on_c, 1, 57, 0
3, 35760, Note_on_c, 1, 56, 127
3, 35996, Note_on_c, 1, 56, 0
3, 36000, Note_on_c, 1, 54, 127
3, 36236, Note_on_c, 1, 54, 0
3, 36240, Note_on_c, 1, 52, 127
3, 36476, Note_on_c, 1, 52, 0
3, 36480, Note_on_c, 1, 51, 127
3, 36956, Note_on_c, 1, 51, 0
3, 36960, Note_on_c, 1, 52, 127
3, 37196, Note_on_c, 1, 52, 0
3, 37200, Note_on_c, 1, 54, 127
3, 37436, Note_on_c, 1, 54, 0
3, 37440, Note_on_c, 1, 56, 127
3, 37916, Note_on_c, 1, 56, 0
3, 37920, Note_on_c, 1, 61, 127
3, 38396, Note_on_c, 1, 61, 0
3, 38400, Note_on_c, 1, 49, 127
3, 38876, Note_on_c, 1, 49, 0
3, 39840, Note_on_c, 1, 61, 127
3, 40316, Note_on_c, 1, 61, 0
3, 40320, Note_on_c, 1, 63, 127
3, 41276, Note_on_c, 1, 63, 0
3, 48000, Note_on_c, 1, 61, 127
3, 48956, Note_on_c, 1, 61, 0
3, 48960, Note_on_c, 1, 56, 80
3, 49679, Note_on_c, 1, 56, 0
3, 49680, Note_on_c, 1, 58, 127
3, 49916, Note_on_c, 1, 58, 0
3, 49920, Note_on_c, 1, 59, 80
3, 50639, Note_on_c, 1, 59, 0
3, 50640, Note_on_c, 1, 61, 127
3, 50876, Note_on_c, 1, 61, 0
3, 50880, Note_on_c, 1, 63, 127
3, 51836, Note_on_c, 1, 63, 0
3, 51840, Note_on_c, 1, 64, 127
3, 52796, Note_on_c, 1, 64, 0
3, 52800, Note_on_c, 1, 63, 80
3, 53519, Note_on_c, 1, 63, 0
3, 53520, Note_on_c, 1, 61, 127
3, 53756, Note_on_c, 1, 61, 0
3, 53760, Note_on_c, 1, 60, 127
3, 54959, Note_on_c, 1, 60, 0
3, 54960, Note_on_c, 1, 56, 127
3, 55196, Note_on_c, 1, 56, 0
3, 55200, Note_on_c, 1, 58, 127
3, 55436, Note_on_c, 1, 58, 0
3, 55440, Note_on_c, 1, 60, 127
3, 55676, Note_on_c, 1, 60, 0
3, 55680, Note_on_c, 1, 61, 127
3, 55916, Note_on_c, 1, 61, 0
3, 55920, Note_on_c, 1, 63, 127
3, 56156, Note_on_c, 1, 63, 0
3, 56160, Note_on_c, 1, 64, 127
3, 56879, Note_on_c, 1, 64, 0
3, 56880, Note_on_c, 1, 63, 127
3, 57116, Note_on_c, 1, 63, 0
3, 57120, Note_on_c, 1, 61, 127
3, 57356, Note_on_c, 1, 61, 0
3, 57360, Note_on_c, 1, 63, 127
3, 57596, Note_on_c, 1, 63, 0
3, 57600, Note_on_c, 1, 60, 127
3, 57836, Note_on_c, 1, 60, 0
3, 57840, Note_on_c, 1, 61, 127
3, 58076, Note_on_c, 1, 61, 0
3, 58080, Note_on_c, 1, 63, 127
3, 58799, Note_on_c, 1, 63, 0
3, 58800, Note_on_c, 1, 56, 127
3, 59036, Note_on_c, 1, 56, 0
3, 59040, Note_on_c, 1, 61, 127
3, 59759, Note_on_c, 1, 61, 0
3, 59760, Note_on_c, 1, 63, 127
3, 59996, Note_on_c, 1, 63, 0
3, 60000, Note_on_c, 1, 64, 127
3, 60719, Note_on_c, 1, 64, 0
3, 60720, Note_on_c, 1, 66, 127
3, 60956, Note_on_c, 1, 66, 0
3, 60960, Note_on_c, 1, 68, 127
3, 61679, Note_on_c, 1, 68, 0
3, 61680, Note_on_c, 1, 66, 127
3, 61916, Note_on_c, 1, 66, 0
3, 61920, Note_on_c, 1, 64, 127
3, 62156, Note_on_c, 1, 64, 0
3, 62160, Note_on_c, 1, 63, 127
3, 62396, Note_on_c, 1, 63, 0
3, 62400, Note_on_c, 1, 64, 127
3, 62876, Note_on_c, 1, 64, 0
3, 62880, Note_on_c, 1, 63, 127
3, 63356, Note_on_c, 1, 63, 0
3, 63360, Note_on_c, 1, 56, 127
3, 63836, Note_on_c, 1, 56, 0
3, 63840, Note_on_c, 1, 58, 127
3, 64076, Note_on_c, 1, 58, 0
3, 64080, Note_on_c, 1, 60, 127
3, 64316, Note_on_c, 1, 60, 0
3, 64320, Note_on_c, 1, 61, 127
3, 65276, Note_on_c, 1, 61, 0
3, 65280, Note_on_c, 1, 59, 80
3, 65999, Note_on_c, 1, 59, 0
3, 66000, Note_on_c, 1, 58, 127
3, 66236, Note_on_c, 1, 58, 0
3, 66240, Note_on_c, 1, 59, 127
3, 67439, Note_on_c, 1, 59, 0
3, 67440, Note_on_c, 1, 59, 127
3, 67676, Note_on_c, 1, 59, 0
3, 67680, Note_on_c, 1, 57, 127
3, 67916, Note_on_c, 1, 57, 0
3, 67920, Note_on_c, 1, 56, 127
3, 68156, Note_on_c, 1, 56, 0
3, 68160, Note_on_c, 1, 57, 80
3, 68879, Note_on_c, 1, 57, 0
3, 68880, Note_on_c, 1, 61, 127
3, 69116, Note_on_c, 1, 61, 0
3, 69120, Note_on_c, 1, 68, 127
3, 70076, Note_on_c, 1, 68, 0
3, 83040, Note_on_c, 1, 53, 127
3, 83516, Note_on_c, 1, 53, 0
3, 83520, Note_on_c, 1, 54, 127
3, 83996, Note_on_c, 1, 54, 0
3, 84000, Note_on_c, 1, 49, 127
3, 84476, Note_on_c, 1, 49, 0
3, 84960, Note_on_c, 1, 57, 127
3, 85436, Note_on_c, 1, 57, 0
3, 85440, Note_on_c, 1, 56, 127
3, 85916, Note_on_c, 1, 56, 0
3, 85920, Note_on_c, 1, 61, 127
3, 86396, Note_on_c, 1, 61, 0
3, 86400, Note_on_c, 1, 54, 127
3, 86636, Note_on_c, 1, 54, 0
3, 86640, Note_on_c, 1, 56, 127
3, 86876, Note_on_c, 1, 56, 0
3, 86880, Note_on_c, 1, 57, 127
3, 87116, Note_on_c, 1, 57, 0
3, 87120, Note_on_c, 1, 59, 127
3, 87356, Note_on_c, 1, 59, 0
3, 87360, Note_on_c, 1, 61, 127
3, 87596, Note_on_c, 1, 61, 0
3, 87600, Note_on_c, 1, 63, 127
3, 87836, Note_on_c, 1, 63, 0
3, 87840, Note_on_c, 1, 64, 127
3, 88559, Note_on_c, 1, 64, 0
3, 88560, Note_on_c, 1, 63, 127
3, 88796, Note_on_c, 1, 63, 0
3, 88800, Note_on_c, 1, 61, 127
3, 89036, Note_on_c, 1, 61, 0
3, 89040, Note_on_c, 1, 59, 127
3, 89276, Note_on_c, 1, 59, 0
3, 89280, Note_on_c, 1, 59, 127
3, 89339, Note_on_c, 1, 59, 0
3, 89340, Note_on_c, 1, 57, 80
3, 89399, Note_on_c, 1, 57, 0
3, 89400, Note_on_c, 1, 59, 127
3, 89459, Note_on_c, 1, 59, 0
3, 89460, Note_on_c, 1, 57, 80
3, 89519, Note_on_c, 1, 57, 0
3, 89520, Note_on_c, 1, 59, 127
3, 89579, Note_on_c, 1, 59, 0
3, 89580, Note_on_c, 1, 57, 80
3, 89639, Note_on_c, 1, 57, 0
3, 89640, Note_on_c, 1, 59, 127
3, 89699, Note_on_c, 1, 59, 0
3, 89700, Note_on_c, 1, 57, 80
3, 89759, Note_on_c, 1, 57, 0
3, 89760, Note_on_c, 1, 59, 127
3, 89819, Note_on_c, 1, 59, 0
3, 89820, Note_on_c, 1, 57, 80
3, 89879, Note_on_c, 1, 57, 0
3, 89880, Note_on_c, 1, 59, 127
3, 89939, Note_on_c, 1, 59, 0
3, 89940, Note_on_c, 1, 57, 80
3, 89999, Note_on_c, 1, 57, 0
3, 90000, Note_on_c, 1, 59, 127
3, 90059, Note_on_c, 1, 59, 0
3, 90060, Note_on_c, 1, 57, 80
3, 90119, Note_on_c, 1, 57, 0
3, 90120, Note_on_c, 1, 59, 127
3, 90179, Note_on_c, 1, 59, 0
3, 90180, Note_on_c, 1, 57, 80
3, 90239, Note_on_c, 1, 57, 0
3, 90240, Note_on_c, 1, 56, 127
3, 91679, Note_on_c, 1, 56, 0
3, 91680, Note_on_c, 1, 61, 127
3, 91916, Note_on_c, 1, 61, 0
3, 91920, Note_on_c, 1, 59, 127
3, 92156, Note_on_c, 1, 59, 0
3, 92160, Note_on_c, 1, 57, 127
3, 92396, Note_on_c, 1, 57, 0
3, 92400, Note_on_c, 1, 56, 127
3, 92636, Note_on_c, 1, 56, 0
3, 92640, Note_on_c, 1, 54, 127
3, 93116, Note_on_c, 1, 54, 0
3, 93600, Note_on_c, 1, 59, 127
3, 93836, Note_on_c, 1, 59, 0
3, 93840, Note_on_c, 1, 57, 127
3, 94076, Note_on_c, 1, 57, 0
3, 94080, Note_on_c, 1, 56, 127
3, 94316, Note_on_c, 1, 56, 0
3, 94320, Note_on_c, 1, 54, 127
3, 94556, Note_on_c, 1, 54, 0
3, 94560, Note_on_c, 1, 52, 127
3, 95279, Note_on_c, 1, 52, 0
3, 95280, Note_on_c, 1, 51, 127
3, 95516, Note_on_c, 1, 51, 0
3, 95520, Note_on_c, 1, 52, 127
3, 95996, Note_on_c, 1, 52, 0
3, 96000, Note_on_c, 1, 57, 127
3, 96476, Note_on_c, 1, 57, 0
3, 96480, Note_on_c, 1, 51, 127
3, 96956, Note_on_c, 1, 51, 0
3, 96960, Note_on_c, 1, 56, 127
3, 98159, Note_on_c, 1, 56, 0
3, 98160, Note_on_c, 1, 54, 127
3, 98396, Note_on_c, 1, 54, 0
3, 98400, Note_on_c, 1, 52, 127
3, 98636, Note_on_c, 1, 52, 0
3, 98640, Note_on_c, 1, 54, 127
3, 98876, Note_on_c, 1, 54, 0
3, 98880, Note_on_c, 1, 56, 127
3, 99356, Note_on_c, 1, 56, 0
3, 99360, Note_on_c, 1, 51, 127
3, 99836, Note_on_c, 1, 51, 0
3, 99840, Note_on_c, 1, 56, 80
3, 100559, Note_on_c, 1, 56, 0
3, 100560, Note_on_c, 1, 58, 127
3, 100796, Note_on_c, 1, 58, 0
3, 100800, Note_on_c, 1, 59, 127
3, 101036, Note_on_c, 1, 59, 0
3, 101040, Note_on_c, 1, 61, 127
3, 101276, Note_on_c, 1, 61, 0
3, 101280, Note_on_c, 1, 59, 127
3, 101516, Note_on_c, 1, 59, 0
3, 101520, Note_on_c, 1, 58, 127
3, 101756, Note_on_c, 1, 58, 0
3, 101760, Note_on_c, 1, 56, 80
3, 103199, Note_on_c, 1, 56, 0
3, 103200, Note_on_c, 1, 55, 127
3, 103676, Note_on_c, 1, 55, 0
3, 103680, Note_on_c, 1, 56, 127
3, 104156, Note_on_c, 1, 56, 0
3, 104160, Note_on_c, 1, 51, 127
3, 104636, Note_on_c, 1, 51, 0
3, 104640, Note_on_c, 1, 63, 127
3, 105116, Note_on_c, 1, 63, 0
3, 105120, Note_on_c, 1, 61, 127
3, 105356, Note_on_c, 1, 61, 0
3, 105360, Note_on_c, 1, 59, 127
3, 105596, Note_on_c, 1, 59, 0
3, 105600, Note_on_c, 1, 58, 127
3, 106076, Note_on_c, 1, 58, 0
3, 106080, Note_on_c, 1, 51, 127
3, 106316, Note_on_c, 1, 51, 0
3, 106320, Note_on_c, 1, 53, 127
3, 106556, Note_on_c, 1, 53, 0
3, 106560, Note_on_c, 1, 55, 127
3, 106796, Note_on_c, 1, 55, 0
3, 106800, Note_on_c, 1, 56, 127
3, 107036, Note_on_c, 1, 56, 0
3, 107040, Note_on_c, 1, 58, 127
3, 107276, Note_on_c, 1, 58, 0
3, 107280, Note_on_c, 1, 59, 127
3, 107516, Note_on_c, 1, 59, 0
3, 107520, Note_on_c, 1, 61, 127
3, 107756, Note_on_c, 1, 61, 0
3, 107760, Note_on_c, 1, 63, 127
3, 107996, Note_on_c, 1, 63, 0
3, 108000, Note_on_c, 1, 64, 127
3, 108236, Note_on_c, 1, 64, 0
3, 108240, Note_on_c, 1, 61, 127
3, 108476, Note_on_c, 1, 61, 0
3, 108480, Note_on_c, 1, 58, 127
3, 108716, Note_on_c, 1, 58, 0
3, 108720, Note_on_c, 1, 63, 127
3, 108956, Note_on_c, 1, 63, 0
3, 108960, Note_on_c, 1, 61, 127
3, 109196, Note_on_c, 1, 61, 0
3, 109200, Note_on_c, 1, 63, 127
3, 109436, Note_on_c, 1, 63, 0
3, 109440, Note_on_c, 1, 60, 127
3, 109676, Note_on_c, 1, 60, 0
3, 109680, Note_on_c, 1, 56, 127
3, 109916, Note_on_c, 1, 56, 0
3, 109920, Note_on_c, 1, 61, 127
3, 110396, Note_on_c, 1, 61, 0
3, 110400, Note_on_c, 1, 54, 127
3, 110876, Note_on_c, 1, 54, 0
3, 110880, Note_on_c, 1, 57, 127
3, 111356, Note_on_c, 1, 57, 0
3, 111360, Note_on_c, 1, 51, 127
3, 111836, Note_on_c, 1, 51, 0
3, 111840, Note_on_c, 1, 49, 127
3, 112316, Note_on_c, 1, 49, 0
3, 112800, Note_on_c, 1, 48, 127
3, 113276, Note_on_c, 1, 48, 0
3, 113280, Note_on_c, 1, 49, 127
3, 113756, Note_on_c, 1, 49, 0
3, 124800, Note_on_c, 1, 56, 127
3, 125756, Note_on_c, 1, 56, 0
3, 125760, Note_on_c, 1, 49, 80
3, 126479, Note_on_c, 1, 49, 0
3, 126480, Note_on_c, 1, 51, 127
3, 126716, Note_on_c, 1, 51, 0
3, 126720, Note_on_c, 1, 52, 80
3, 127439, Note_on_c, 1, 52, 0
3, 127440, Note_on_c, 1, 54, 127
3, 127676, Note_on_c, 1, 54, 0
3, 127680, Note_on_c, 1, 56, 127
3, 128636, Note_on_c, 1, 56, 0
3, 128640, Note_on_c, 1, 57, 127
3, 129596, Note_on_c, 1, 57, 0
3, 129600, Note_on_c, 1, 56, 80
3, 130319, Note_on_c, 1, 56, 0
3, 130320, Note_on_c, 1, 54, 127
3, 130556, Note_on_c, 1, 54, 0
3, 130560, Note_on_c, 1, 52, 127
3, 131759, Note_on_c, 1, 52, 0
3, 131760, Note_on_c, 1, 51, 127
3, 131996, Note_on_c, 1, 51, 0
3, 132000, Note_on_c, 1, 52, 127
3, 132236, Note_on_c, 1, 52, 0
3, 132240, Note_on_c, 1, 54, 127
3, 132476, Note_on_c, 1, 54, 0
3, 132480, Note_on_c, 1, 56, 127
3, 132716, Note_on_c, 1, 56, 0
3, 132720, Note_on_c, 1, 59, 127
3, 132956, Note_on_c, 1, 59, 0
3, 132960, Note_on_c, 1, 61, 127
3, 133196, Note_on_c, 1, 61, 0
3, 133200, Note_on_c, 1, 63, 127
3, 133436, Note_on_c, 1, 63, 0
3, 133440, Note_on_c, 1, 64, 80
3, 134159, Note_on_c, 1, 64, 0
3, 134160, Note_on_c, 1, 63, 127
3, 134396, Note_on_c, 1, 63, 0
3, 134400, Note_on_c, 1, 61, 80
3, 135119, Note_on_c, 1, 61, 0
3, 135120, Note_on_c, 1, 59, 127
3, 135356, Note_on_c, 1, 59, 0
3, 135360, Note_on_c, 1, 57, 80
3, 136079, Note_on_c, 1, 57, 0
3, 136080, Note_on_c, 1, 56, 127
3, 136316, Note_on_c, 1, 56, 0
3, 136320, Note_on_c, 1, 54, 127
3, 136556, Note_on_c, 1, 54, 0
3, 136560, Note_on_c, 1, 61, 127
3, 136796, Note_on_c, 1, 61, 0
3, 136800, Note_on_c, 1, 63, 127
3, 137036, Note_on_c, 1, 63, 0
3, 137040, Note_on_c, 1, 65, 127
3, 137276, Note_on_c, 1, 65, 0
3, 137280, Note_on_c, 1, 66, 80
3, 137999, Note_on_c, 1, 66, 0
3, 138000, Note_on_c, 1, 64, 127
3, 138236, Note_on_c, 1, 64, 0
3, 138240, Note_on_c, 1, 63, 80
3, 138959, Note_on_c, 1, 63, 0
3, 138960, Note_on_c, 1, 61, 127
3, 139196, Note_on_c, 1, 61, 0
3, 139200, Note_on_c, 1, 59, 80
3, 139919, Note_on_c, 1, 59, 0
3, 139920, Note_on_c, 1, 58, 127
3, 140156, Note_on_c, 1, 58, 0
3, 140160, Note_on_c, 1, 56, 127
3, 140396, Note_on_c, 1, 56, 0
3, 140400, Note_on_c, 1, 63, 127
3, 140636, Note_on_c, 1, 63, 0
3, 140640, Note_on_c, 1, 65, 127
3, 140876, Note_on_c, 1, 65, 0
3, 140880, Note_on_c, 1, 67, 127
3, 141116, Note_on_c, 1, 67, 0
3, 141120, Note_on_c, 1, 68, 80
3, 141839, Note_on_c, 1, 68, 0
3, 141840, Note_on_c, 1, 66, 127
3, 142076, Note_on_c, 1, 66, 0
3, 142080, Note_on_c, 1, 64, 127
3, 142316, Note_on_c, 1, 64, 0
3, 142320, Note_on_c, 1, 63, 127
3, 142556, Note_on_c, 1, 63, 0
3, 142560, Note_on_c, 1, 64, 127
3, 142796, Note_on_c, 1, 64, 0
3, 142800, Note_on_c, 1, 59, 127
3, 143036, Note_on_c, 1, 59, 0
3, 143040, Note_on_c, 1, 61, 127
3, 143276, Note_on_c, 1, 61, 0
3, 143280, Note_on_c, 1, 59, 127
3, 143516, Note_on_c, 1, 59, 0
3, 143520, Note_on_c, 1, 61, 127
3, 143756, Note_on_c, 1, 61, 0
3, 143760, Note_on_c, 1, 57, 127
3, 143996, Note_on_c, 1, 57, 0
3, 144000, Note_on_c, 1, 56, 127
3, 144236, Note_on_c, 1, 56, 0
3, 144240, Note_on_c, 1, 54, 127
3, 144476, Note_on_c, 1, 54, 0
3, 144480, Note_on_c, 1, 52, 127
3, 145199, Note_on_c, 1, 52, 0
3, 145200, Note_on_c, 1, 51, 127
3, 145436, Note_on_c, 1, 51, 0
3, 145440, Note_on_c, 1, 52, 127
3, 145676, Note_on_c, 1, 52, 0
3, 145680, Note_on_c, 1, 56, 127
3, 146159, Note_on_c, 1, 56, 0
3, 146160, Note_on_c, 1, 54, 127
3, 146396, Note_on_c, 1, 54, 0
3, 146400, Note_on_c, 1, 52, 127
3, 146636, Note_on_c, 1, 52, 0
3, 146640, Note_on_c, 1, 54, 127
3, 146876, Note_on_c, 1, 54, 0
3, 146880, Note_on_c, 1, 56, 80
3, 147599, Note_on_c, 1, 56, 0
3, 147600, Note_on_c, 1, 57, 127
3, 147836, Note_on_c, 1, 57, 0
3, 147840, Note_on_c, 1, 59, 80
3, 149279, Note_on_c, 1, 59, 0
3, 149280, Note_on_c, 1, 52, 127
3, 149999, Note_on_c, 1, 52, 0
3, 150000, Note_on_c, 1, 49, 127
3, 150236, Note_on_c, 1, 49, 0
3, 150240, Note_on_c, 1, 51, 127
3, 150476, Note_on_c, 1, 51, 0
3, 150480, Note_on_c, 1, 54, 127
3, 150716, Note_on_c, 1, 54, 0
3, 150720, Note_on_c, 1, 59, 80
3, 151439, Note_on_c, 1, 59, 0
3, 151440, Note_on_c, 1, 57, 127
3, 151676, Note_on_c, 1, 57, 0
3, 151680, Note_on_c, 1, 56, 127
3, 152879, Note_on_c, 1, 56, 0
3, 152880, Note_on_c, 1, 52, 127
3, 153116, Note_on_c, 1, 52, 0
3, 153120, Note_on_c, 1, 54, 127
3, 153356, Note_on_c, 1, 54, 0
3, 153360, Note_on_c, 1, 59, 127
3, 153596, Note_on_c, 1, 59, 0
3, 153600, Note_on_c, 1, 52, 127
3, 154556, Note_on_c, 1, 52, 0
3, 155040, Note_on_c, 1, 57, 127
3, 155759, Note_on_c, 1, 57, 0
3, 155760, Note_on_c, 1, 49, 127
3, 155996, Note_on_c, 1, 49, 0
3, 156000, Note_on_c, 1, 51, 127
3, 156236, Note_on_c, 1, 51, 0
3, 156240, Note_on_c, 1, 54, 127
3, 156476, Note_on_c, 1, 54, 0
3, 156480, Note_on_c, 1, 48, 80
3, 157199, Note_on_c, 1, 48, 0
3, 157200, Note_on_c, 1, 48, 127
3, 157436, Note_on_c, 1, 48, 0
3, 157440, Note_on_c, 1, 49, 127
3, 157676, Note_on_c, 1, 49, 0
3, 157680, Note_on_c, 1, 51, 127
3, 157916, Note_on_c, 1, 51, 0
3, 157920, Note_on_c, 1, 52, 127
3, 158156, Note_on_c, 1, 52, 0
3, 158160, Note_on_c, 1, 56, 127
3, 158396, Note_on_c, 1, 56, 0
3, 158400, Note_on_c, 1, 61, 80
3, 159119, Note_on_c, 1, 61, 0
3, 159120, Note_on_c, 1, 59, 127
3, 159356, Note_on_c, 1, 59, 0
3, 159360, Note_on_c, 1, 57, 127
3, 160559, Note_on_c, 1, 57, 0
3, 160560, Note_on_c, 1, 54, 127
3, 160796, Note_on_c, 1, 54, 0
3, 160800, Note_on_c, 1, 56, 127
3, 161036, Note_on_c, 1, 56, 0
3, 161040, Note_on_c, 1, 61, 127
3, 161276, Note_on_c, 1, 61, 0
3, 161280, Note_on_c, 1, 54, 127
3, 161756, Note_on_c, 1, 54, 0
3, 161760, Note_on_c, 1, 61, 127
3, 161996, Note_on_c, 1, 61, 0
3, 162000, Note_on_c, 1, 63, 127
3, 162236, Note_on_c, 1, 63, 0
3, 162240, Note_on_c, 1, 64, 127
3, 162476, Note_on_c, 1, 64, 0
3, 162480, Note_on_c, 1, 63, 127
3, 162716, Note_on_c, 1, 63, 0
3, 162720, Note_on_c, 1, 61, 127
3, 162956, Note_on_c, 1, 61, 0
3, 162960, Note_on_c, 1, 60, 127
3, 163196, Note_on_c, 1, 60, 0
3, 163200, Note_on_c, 1, 61, 127
3, 163436, Note_on_c, 1, 61, 0
3, 163440, Note_on_c, 1, 56, 127
3, 163676, Note_on_c, 1, 56, 0
3, 163680, Note_on_c, 1, 68, 127
3, 164399, Note_on_c, 1, 68, 0
3, 164400, Note_on_c, 1, 63, 127
3, 164636, Note_on_c, 1, 63, 0
3, 164640, Note_on_c, 1, 61, 127
3, 164876, Note_on_c, 1, 61, 0
3, 164880, Note_on_c, 1, 60, 127
3, 165116, Note_on_c, 1, 60, 0
3, 165120, Note_on_c, 1, 66, 127
3, 165596, Note_on_c, 1, 66, 0
3, 165600, Note_on_c, 1, 61, 127
3, 166076, Note_on_c, 1, 61, 0
3, 166320, Note_on_c, 1, 61, 127
3, 166556, Note_on_c, 1, 61, 0
3, 166560, Note_on_c, 1, 59, 127
3, 166796, Note_on_c, 1, 59, 0
3, 166800, Note_on_c, 1, 57, 127
3, 167036, Note_on_c, 1, 57, 0
3, 167040, Note_on_c, 1, 56, 80
3, 167759, Note_on_c, 1, 56, 0
3, 167760, Note_on_c, 1, 60, 127
3, 167996, Note_on_c, 1, 60, 0
3, 168000, Note_on_c, 1, 61, 127
3, 168476, Note_on_c, 1, 61, 0
3, 168480, Note_on_c, 1, 56, 127
3, 168956, Note_on_c, 1, 56, 0
3, 168960, Note_on_c, 1, 68, 127
3, 169196, Note_on_c, 1, 68, 0
3, 169200, Note_on_c, 1, 63, 127
3, 169436, Note_on_c, 1, 63, 0
3, 169440, Note_on_c, 1, 61, 127
3, 169676, Note_on_c, 1, 61, 0
3, 169680, Note_on_c, 1, 63, 127
3, 169916, Note_on_c, 1, 63, 0
3, 169920, Note_on_c, 1, 64, 127
3, 170396, Note_on_c, 1, 64, 0
3, 170400, Note_on_c, 1, 60, 127
3, 170876, Note_on_c, 1, 60, 0
3, 170880, Note_on_c, 1, 61, 127
3, 171356, Note_on_c, 1, 61, 0
3, 171360, Note_on_c, 1, 56, 127
3, 171836, Note_on_c, 1, 56, 0
3, 171840, Note_on_c, 1, 59, 127
3, 172316, Note_on_c, 1, 59, 0
3, 172320, Note_on_c, 1, 53, 127
3, 172796, Note_on_c, 1, 53, 0
3, 172800, Note_on_c, 1, 54, 127
3, 173276, Note_on_c, 1, 54, 0
3, 173280, Note_on_c, 1, 59, 127
3, 173756, Note_on_c, 1, 59, 0
3, 174000, Note_on_c, 1, 59, 127
3, 174236, Note_on_c, 1, 59, 0
3, 174240, Note_on_c, 1, 57, 127
3, 174476, Note_on_c, 1, 57, 0
3, 174480, Note_on_c, 1, 59, 127
3, 174716, Note_on_c, 1, 59, 0
3, 174720, Note_on_c, 1, 61, 127
3, 175196, Note_on_c, 1, 61, 0
3, 175200, Note_on_c, 1, 56, 127
3, 175676, Note_on_c, 1, 56, 0
3, 175680, Note_on_c, 1, 59, 127
3, 176156, Note_on_c, 1, 59, 0
3, 176160, Note_on_c, 1, 60, 127
3, 176636, Note_on_c, 1, 60, 0
3, 176640, Note_on_c, 1, 61, 127
3, 177116, Note_on_c, 1, 61, 0
3, 177120, Note_on_c, 1, 59, 127
3, 177596, Note_on_c, 1, 59, 0
3, 177600, Note_on_c, 1, 57, 127
3, 178076, Note_on_c, 1, 57, 0
3, 178080, Note_on_c, 1, 54, 127
3, 178556, Note_on_c, 1, 54, 0
3, 178560, Note_on_c, 1, 56, 127
3, 178796, Note_on_c, 1, 56, 0
3, 178800, Note_on_c, 1, 59, 127
3, 179036, Note_on_c, 1, 59, 0
3, 179040, Note_on_c, 1, 57, 127
3, 179276, Note_on_c, 1, 57, 0
3, 179280, Note_on_c, 1, 59, 127
3, 179516, Note_on_c, 1, 59, 0
3, 179520, Note_on_c, 1, 61, 127
3, 179996, Note_on_c, 1, 61, 0
3, 180000, Note_on_c, 1, 56, 127
3, 180476, Note_on_c, 1, 56, 0
3, 180480, Note_on_c, 1, 57, 127
3, 180956, Note_on_c, 1, 57, 0
3, 180960, Note_on_c, 1, 59, 127
3, 181679, Note_on_c, 1, 59, 0
3, 181680, Note_on_c, 1, 56, 127
3, 181916, Note_on_c, 1, 56, 0
3, 181920, Note_on_c, 1, 57, 127
3, 182156, Note_on_c, 1, 57, 0
3, 182160, Note_on_c, 1, 56, 127
3, 182396, Note_on_c, 1, 56, 0
3, 182400, Note_on_c, 1, 54, 127
3, 182876, Note_on_c, 1, 54, 0
3, 182880, Note_on_c, 1, 59, 127
3, 183356, Note_on_c, 1, 59, 0
3, 183600, Note_on_c, 1, 52, 127
3, 183836, Note_on_c, 1, 52, 0
3, 183840, Note_on_c, 1, 54, 127
3, 184076, Note_on_c, 1, 54, 0
3, 184080, Note_on_c, 1, 52, 127
3, 184316, Note_on_c, 1, 52, 0
3, 184320, Note_on_c, 1, 50, 127
3, 184796, Note_on_c, 1, 50, 0
3, 184800, Note_on_c, 1, 56, 127
3, 185276, Note_on_c, 1, 56, 0
3, 185520, Note_on_c, 1, 49, 127
3, 185756, Note_on_c, 1, 49, 0
3, 185760, Note_on_c, 1, 50, 127
3, 185996, Note_on_c, 1, 50, 0
3, 186000, Note_on_c, 1, 48, 127
3, 186236, Note_on_c, 1, 48, 0
3, 186240, Note_on_c, 1, 49, 127
3, 186716, Note_on_c, 1, 49, 0
3, 187200, Note_on_c, 1, 61, 80
3, 187919, Note_on_c, 1, 61, 0
3, 187920, Note_on_c, 1, 59, 127
3, 188156, Note_on_c, 1, 59, 0
3, 188160, Note_on_c, 1, 58, 127
3, 188396, Note_on_c, 1, 58, 0
3, 188400, Note_on_c, 1, 56, 127
3, 188636, Note_on_c, 1, 56, 0
3, 188640, Note_on_c, 1, 54, 127
3, 189116, Note_on_c, 1, 54, 0
3, 189120, Note_on_c, 1, 59, 80
3, 189839, Note_on_c, 1, 59, 0
3, 189840, Note_on_c, 1, 57, 127
3, 190076, Note_on_c, 1, 57, 0
3, 190080, Note_on_c, 1, 56, 127
3, 190316, Note_on_c, 1, 56, 0
3, 190320, Note_on_c, 1, 54, 127
3, 190556, Note_on_c, 1, 54, 0
3, 190560, Note_on_c, 1, 52, 127
3, 191036, Note_on_c, 1, 52, 0
3, 191040, Note_on_c, 1, 57, 80
3, 191759, Note_on_c, 1, 57, 0
3, 191760, Note_on_c, 1, 56, 127
3, 191996, Note_on_c, 1, 56, 0
3, 192000, Note_on_c, 1, 54, 127
3, 193916, Note_on_c, 1, 54, 0
3, 193920, Note_on_c, 1, 52, 80
3, 194639, Note_on_c, 1, 52, 0
3, 194640, Note_on_c, 1, 54, 127
3, 194876, Note_on_c, 1, 54, 0
3, 194880, Note_on_c, 1, 56, 127
3, 195116, Note_on_c, 1, 56, 0
3, 195120, Note_on_c, 1, 57, 127
3, 195356, Note_on_c, 1, 57, 0
3, 195360, Note_on_c, 1, 59, 127
3, 195596, Note_on_c, 1, 59, 0
3, 195600, Note_on_c, 1, 56, 127
3, 195836, Note_on_c, 1, 56, 0
3, 195840, Note_on_c, 1, 57, 127
3, 196316, Note_on_c, 1, 57, 0
3, 196320, Note_on_c, 1, 52, 127
3, 196796, Note_on_c, 1, 52, 0
3, 196800, Note_on_c, 1, 54, 127
3, 197276, Note_on_c, 1, 54, 0
3, 197280, Note_on_c, 1, 49, 127
3, 197756, Note_on_c, 1, 49, 0
3, 198240, Note_on_c, 1, 57, 127
3, 198716, Note_on_c, 1, 57, 0
3, 198720, Note_on_c, 1, 56, 127
3, 199196, Note_on_c, 1, 56, 0
3, 199200, Note_on_c, 1, 61, 127
3, 199676, Note_on_c, 1, 61, 0
3, 199680, Note_on_c, 1, 54, 127
3, 199916, Note_on_c, 1, 54, 0
3, 199920, Note_on_c, 1, 56, 127
3, 200156, Note_on_c, 1, 56, 0
3, 200160, Note_on_c, 1, 57, 127
3, 200396, Note_on_c, 1, 57, 0
3, 200400, Note_on_c, 1, 59, 127
3, 200636, Note_on_c, 1, 59, 0
3, 200640, Note_on_c, 1, 61, 127
3, 200876, Note_on_c, 1, 61, 0
3, 200880, Note_on_c, 1, 62, 127
3, 201116, Note_on_c, 1, 62, 0
3, 201120, Note_on_c, 1, 64, 127
3, 201839, Note_on_c, 1, 64, 0
3, 201840, Note_on_c, 1, 62, 127
3, 202076, Note_on_c, 1, 62, 0
3, 202080, Note_on_c, 1, 61, 127
3, 202316, Note_on_c, 1, 61, 0
3, 202320, Note_on_c, 1, 59, 127
3, 202556, Note_on_c, 1, 59, 0
3, 202560, Note_on_c, 1, 57, 127
3, 203516, Note_on_c, 1, 57, 0
3, 203520, Note_on_c, 1, 56, 127
3, 203996, Note_on_c, 1, 56, 0
3, 204000, Note_on_c, 1, 64, 127
3, 204476, Note_on_c, 1, 64, 0
3, 204480, Note_on_c, 1, 62, 127
3, 204956, Note_on_c, 1, 62, 0
3, 204960, Note_on_c, 1, 61, 127
3, 205436, Note_on_c, 1, 61, 0
3, 205440, Note_on_c, 1, 59, 127
3, 206396, Note_on_c, 1, 59, 0
3, 206400, Note_on_c, 1, 64, 127
3, 207356, Note_on_c, 1, 64, 0
3, 207360, Note_on_c, 1, 57, 127
3, 207596, Note_on_c, 1, 57, 0
3, 207600, Note_on_c, 1, 59, 127
3, 207836, Note_on_c, 1, 59, 0
3, 207840, Note_on_c, 1, 61, 127
3, 208076, Note_on_c, 1, 61, 0
3, 208080, Note_on_c, 1, 57, 127
3, 208316, Note_on_c, 1, 57, 0
3, 208320, Note_on_c, 1, 62, 127
3, 208556, Note_on_c, 1, 62, 0
3, 208560, Note_on_c, 1, 61, 127
3, 208796, Note_on_c, 1, 61, 0
3, 208800, Note_on_c, 1, 59, 127
3, 209036, Note_on_c, 1, 59, 0
3, 209040, Note_on_c, 1, 57, 127
3, 209276, Note_on_c, 1, 57, 0
3, 209280, Note_on_c, 1, 56, 127
3, 209516, Note_on_c, 1, 56, 0
3, 209520, Note_on_c, 1, 57, 127
3, 209756, Note_on_c, 1, 57, 0
3, 209760, Note_on_c, 1, 59, 127
3, 209996, Note_on_c, 1, 59, 0
3, 210000, Note_on_c, 1, 56, 127
3, 210236, Note_on_c, 1, 56, 0
3, 210240, Note_on_c, 1, 61, 127
3, 210716, Note_on_c, 1, 61, 0
3, 210720, Note_on_c, 1, 49, 127
3, 211196, Note_on_c, 1, 49, 0
3, 211200, Note_on_c, 1, 54, 127
3, 211676, Note_on_c, 1, 54, 0
3, 211680, Note_on_c, 1, 66, 80
3, 212399, Note_on_c, 1, 66, 0
3, 212400, Note_on_c, 1, 64, 127
3, 212636, Note_on_c, 1, 64, 0
3, 212640, Note_on_c, 1, 63, 127
3, 212876, Note_on_c, 1, 63, 0
3, 212880, Note_on_c, 1, 61, 127
3, 213116, Note_on_c, 1, 61, 0
3, 213120, Note_on_c, 1, 60, 127
3, 213356, Note_on_c, 1, 60, 0
3, 213360, Note_on_c, 1, 61, 127
3, 213596, Note_on_c, 1, 61, 0
3, 213600, Note_on_c, 1, 63, 127
3, 213836, Note_on_c, 1, 63, 0
3, 213840, Note_on_c, 1, 60, 127
3, 214076, Note_on_c, 1, 60, 0
3, 214080, Note_on_c, 1, 61, 127
3, 214316, Note_on_c, 1, 61, 0
3, 214320, Note_on_c, 1, 59, 127
3, 214556, Note_on_c, 1, 59, 0
3, 214560, Note_on_c, 1, 57, 127
3, 214796, Note_on_c, 1, 57, 0
3, 214800, Note_on_c, 1, 56, 127
3, 215036, Note_on_c, 1, 56, 0
3, 215040, Note_on_c, 1, 54, 127
3, 215276, Note_on_c, 1, 54, 0
3, 215280, Note_on_c, 1, 49, 127
3, 215516, Note_on_c, 1, 49, 0
3, 215520, Note_on_c, 1, 51, 127
3, 215756, Note_on_c, 1, 51, 0
3, 215760, Note_on_c, 1, 52, 127
3, 215996, Note_on_c, 1, 52, 0
3, 216000, Note_on_c, 1, 54, 127
3, 216236, Note_on_c, 1, 54, 0
3, 216240, Note_on_c, 1, 56, 127
3, 216476, Note_on_c, 1, 56, 0
3, 216480, Note_on_c, 1, 57, 127
3, 216716, Note_on_c, 1, 57, 0
3, 216720, Note_on_c, 1, 54, 127
3, 216956, Note_on_c, 1, 54, 0
3, 216960, Note_on_c, 1, 56, 127
3, 218876, Note_on_c, 1, 56, 0
3, 219360, Note_on_c, 1, 56, 127
3, 219836, Note_on_c, 1, 56, 0
3, 219840, Note_on_c, 1, 57, 127
3, 220316, Note_on_c, 1, 57, 0
3, 220320, Note_on_c, 1, 52, 127
3, 220796, Note_on_c, 1, 52, 0
3, 221280, Note_on_c, 1, 61, 127
3, 221756, Note_on_c, 1, 61, 0
3, 221760, Note_on_c, 1, 59, 127
3, 222236, Note_on_c, 1, 59, 0
3, 222240, Note_on_c, 1, 64, 127
3, 222716, Note_on_c, 1, 64, 0
3, 222720, Note_on_c, 1, 57, 127
3, 222956, Note_on_c, 1, 57, 0
3, 222960, Note_on_c, 1, 59, 127
3, 223196, Note_on_c, 1, 59, 0
3, 223200, Note_on_c, 1, 61, 127
3, 223436, Note_on_c, 1, 61, 0
3, 223440, Note_on_c, 1, 63, 127
3, 223676, Note_on_c, 1, 63, 0
3, 223680, Note_on_c, 1, 64, 127
3, 223916, Note_on_c, 1, 64, 0
3, 223920, Note_on_c, 1, 66, 127
3, 224156, Note_on_c, 1, 66, 0
3, 224160, Note_on_c, 1, 68, 127
3, 224879, Note_on_c, 1, 68, 0
3, 224880, Note_on_c, 1, 66, 127
3, 225116, Note_on_c, 1, 66, 0
3, 225120, Note_on_c, 1, 64, 127
3, 225356, Note_on_c, 1, 64, 0
3, 225360, Note_on_c, 1, 63, 127
3, 225596, Note_on_c, 1, 63, 0
3, 225600, Note_on_c, 1, 61, 80
3, 226319, Note_on_c, 1, 61, 0
3, 226320, Note_on_c, 1, 63, 127
3, 226556, Note_on_c, 1, 63, 0
3, 226560, Note_on_c, 1, 64, 127
3, 227036, Note_on_c, 1, 64, 0
3, 227040, Note_on_c, 1, 63, 127
3, 227276, Note_on_c, 1, 63, 0
3, 227280, Note_on_c, 1, 61, 127
3, 227516, Note_on_c, 1, 61, 0
3, 227520, Note_on_c, 1, 63, 127
3, 227756, Note_on_c, 1, 63, 0
3, 227760, Note_on_c, 1, 64, 127
3, 227996, Note_on_c, 1, 64, 0
3, 228000, Note_on_c, 1, 66, 127
3, 228959, Note_on_c, 1, 66, 0
3, 228960, Note_on_c, 1, 65, 127
3, 229436, Note_on_c, 1, 65, 0
3, 229437, End_track
4, 0, Start_track
4, 0, Key_signature, 4, "major"
4, 12000, Note_on_c, 1, 52, 127
4, 12476, Note_on_c, 1, 52, 0
4, 12480, Note_on_c, 1, 51, 127
4, 12956, Note_on_c, 1, 51, 0
4, 12960, Note_on_c, 1, 56, 127
4, 13436, Note_on_c, 1, 56, 0
4, 13920, Note_on_c, 1, 48, 127
4, 14396, Note_on_c, 1, 48, 0
4, 14400, Note_on_c, 1, 49, 127
4, 14876, Note_on_c, 1, 49, 0
4, 14880, Note_on_c, 1, 44, 127
4, 15356, Note_on_c, 1, 44, 0
4, 15360, Note_on_c, 1, 51, 127
4, 15596, Note_on_c, 1, 51, 0
4, 15600, Note_on_c, 1, 49, 127
4, 15836, Note_on_c, 1, 49, 0
4, 15840, Note_on_c, 1, 47, 127
4, 16076, Note_on_c, 1, 47, 0
4, 16080, Note_on_c, 1, 46, 127
4, 16316, Note_on_c, 1, 46, 0
4, 16320, Note_on_c, 1, 44, 127
4, 16556, Note_on_c, 1, 44, 0
4, 16560, Note_on_c, 1, 42, 127
4, 16796, Note_on_c, 1, 42, 0
4, 16800, Note_on_c, 1, 40, 127
4, 17519, Note_on_c, 1, 40, 0
4, 17520, Note_on_c, 1, 42, 127
4, 17756, Note_on_c, 1, 42, 0
4, 17760, Note_on_c, 1, 44, 127
4, 17996, Note_on_c, 1, 44, 0
4, 18000, Note_on_c, 1, 46, 127
4, 18236, Note_on_c, 1, 46, 0
4, 18240, Note_on_c, 1, 47, 127
4, 18716, Note_on_c, 1, 47, 0
4, 18720, Note_on_c, 1, 44, 127
4, 19196, Note_on_c, 1, 44, 0
4, 19200, Note_on_c, 1, 46, 127
4, 19676, Note_on_c, 1, 46, 0
4, 19680, Note_on_c, 1, 51, 80
4, 20399, Note_on_c, 1, 51, 0
4, 20400, Note_on_c, 1, 44, 127
4, 20636, Note_on_c, 1, 44, 0
4, 20640, Note_on_c, 1, 46, 127
4, 20876, Note_on_c, 1, 46, 0
4, 20880, Note_on_c, 1, 48, 127
4, 21116, Note_on_c, 1, 48, 0
4, 21120, Note_on_c, 1, 49, 127
4, 22076, Note_on_c, 1, 49, 0
4, 22080, Note_on_c, 1, 47, 127
4, 22316, Note_on_c, 1, 47, 0
4, 22320, Note_on_c, 1, 49, 127
4, 22556, Note_on_c, 1, 49, 0
4, 22560, Note_on_c, 1, 51, 127
4, 22796, Note_on_c, 1, 51, 0
4, 22800, Note_on_c, 1, 53, 127
4, 23036, Note_on_c, 1, 53, 0
4, 23040, Note_on_c, 1, 54, 127
4, 23996, Note_on_c, 1, 54, 0
4, 24000, Note_on_c, 1, 49, 127
4, 24236, Note_on_c, 1, 49, 0
4, 24240, Note_on_c, 1, 51, 127
4, 24476, Note_on_c, 1, 51, 0
4, 24480, Note_on_c, 1, 52, 127
4, 24716, Note_on_c, 1, 52, 0
4, 24720, Note_on_c, 1, 54, 127
4, 24956, Note_on_c, 1, 54, 0
4, 24960, Note_on_c, 1, 56, 127
4, 26159, Note_on_c, 1, 56, 0
4, 26160, Note_on_c, 1, 52, 127
4, 26396, Note_on_c, 1, 52, 0
4, 26400, Note_on_c, 1, 54, 127
4, 26636, Note_on_c, 1, 54, 0
4, 26640, Note_on_c, 1, 51, 127
4, 26876, Note_on_c, 1, 51, 0
4, 26880, Note_on_c, 1, 52, 127
4, 27116, Note_on_c, 1, 52, 0
4, 27120, Note_on_c, 1, 51, 127
4, 27356, Note_on_c, 1, 51, 0
4, 27360, Note_on_c, 1, 49, 127
4, 27596, Note_on_c, 1, 49, 0
4, 27600, Note_on_c, 1, 48, 127
4, 27836, Note_on_c, 1, 48, 0
4, 27840, Note_on_c, 1, 49, 127
4, 28076, Note_on_c, 1, 49, 0
4, 28080, Note_on_c, 1, 45, 127
4, 28316, Note_on_c, 1, 45, 0
4, 28320, Note_on_c, 1, 47, 127
4, 28556, Note_on_c, 1, 47, 0
4, 28560, Note_on_c, 1, 44, 127
4, 28796, Note_on_c, 1, 44, 0
4, 28800, Note_on_c, 1, 46, 127
4, 29036, Note_on_c, 1, 46, 0
4, 29040, Note_on_c, 1, 48, 127
4, 29276, Note_on_c, 1, 48, 0
4, 29280, Note_on_c, 1, 49, 127
4, 29756, Note_on_c, 1, 49, 0
4, 30240, Note_on_c, 1, 40, 127
4, 30716, Note_on_c, 1, 40, 0
4, 30720, Note_on_c, 1, 42, 80
4, 32159, Note_on_c, 1, 42, 0
4, 32160, Note_on_c, 1, 40, 127
4, 32396, Note_on_c, 1, 40, 0
4, 32400, Note_on_c, 1, 42, 127
4, 32636, Note_on_c, 1, 42, 0
4, 32640, Note_on_c, 1, 44, 80
4, 34079, Note_on_c, 1, 44, 0
4, 34080, Note_on_c, 1, 45, 127
4, 34316, Note_on_c, 1, 45, 0
4, 34320, Note_on_c, 1, 47, 127
4, 34556, Note_on_c, 1, 47, 0
4, 34560, Note_on_c, 1, 49, 127
4, 35036, Note_on_c, 1, 49, 0
4, 35040, Note_on_c, 1, 51, 127
4, 35276, Note_on_c, 1, 51, 0
4, 35280, Note_on_c, 1, 53, 127
4, 35516, Note_on_c, 1, 53, 0
4, 35520, Note_on_c, 1, 54, 127
4, 35756, Note_on_c, 1, 54, 0
4, 35760, Note_on_c, 1, 52, 127
4, 35996, Note_on_c, 1, 52, 0
4, 36000, Note_on_c, 1, 51, 127
4, 36236, Note_on_c, 1, 51, 0
4, 36240, Note_on_c, 1, 49, 127
4, 36476, Note_on_c, 1, 49, 0
4, 36480, Note_on_c, 1, 47, 127
4, 36956, Note_on_c, 1, 47, 0
4, 36960, Note_on_c, 1, 49, 127
4, 37196, Note_on_c, 1, 49, 0
4, 37200, Note_on_c, 1, 51, 127
4, 37436, Note_on_c, 1, 51, 0
4, 37440, Note_on_c, 1, 52, 127
4, 37676, Note_on_c, 1, 52, 0
4, 37680, Note_on_c, 1, 51, 127
4, 37916, Note_on_c, 1, 51, 0
4, 37920, Note_on_c, 1, 49, 127
4, 38156, Note_on_c, 1, 49, 0
4, 38160, Note_on_c, 1, 47, 127
4, 38396, Note_on_c, 1, 47, 0
4, 38400, Note_on_c, 1, 45, 127
4, 38876, Note_on_c, 1, 45, 0
4, 38880, Note_on_c, 1, 57, 127
4, 39116, Note_on_c, 1, 57, 0
4, 39120, Note_on_c, 1, 56, 127
4, 39356, Note_on_c, 1, 56, 0
4, 39360, Note_on_c, 1, 57, 127
4, 39836, Note_on_c, 1, 57, 0
4, 39840, Note_on_c, 1, 45, 127
4, 40316, Note_on_c, 1, 45, 0
4, 40320, Note_on_c, 1, 44, 127
4, 40796, Note_on_c, 1, 44, 0
4, 40800, Note_on_c, 1, 56, 127
4, 41036, Note_on_c, 1, 56, 0
4, 41040, Note_on_c, 1, 57, 127
4, 41276, Note_on_c, 1, 57, 0
4, 41280, Note_on_c, 1, 56, 127
4, 41516, Note_on_c, 1, 56, 0
4, 41520, Note_on_c, 1, 54, 127
4, 41756, Note_on_c, 1, 54, 0
4, 41760, Note_on_c, 1, 52, 127
4, 41996, Note_on_c, 1, 52, 0
4, 42000, Note_on_c, 1, 51, 127
4, 42236, Note_on_c, 1, 51, 0
4, 42240, Note_on_c, 1, 52, 127
4, 42476, Note_on_c, 1, 52, 0
4, 42480, Note_on_c, 1, 51, 127
4, 42716, Note_on_c, 1, 51, 0
4, 42720, Note_on_c, 1, 52, 127
4, 42956, Note_on_c, 1, 52, 0
4, 42960, Note_on_c, 1, 54, 127
4, 43196, Note_on_c, 1, 54, 0
4, 43200, Note_on_c, 1, 52, 127
4, 43436, Note_on_c, 1, 52, 0
4, 43440, Note_on_c, 1, 51, 127
4, 43676, Note_on_c, 1, 51, 0
4, 43680, Note_on_c, 1, 49, 127
4, 43916, Note_on_c, 1, 49, 0
4, 43920, Note_on_c, 1, 48, 127
4, 44156, Note_on_c, 1, 48, 0
4, 44160, Note_on_c, 1, 49, 127
4, 44396, Note_on_c, 1, 49, 0
4, 44400, Note_on_c, 1, 37, 127
4, 44636, Note_on_c, 1, 37, 0
4, 44640, Note_on_c, 1, 49, 127
4, 44876, Note_on_c, 1, 49, 0
4, 44880, Note_on_c, 1, 51, 127
4, 45116, Note_on_c, 1, 51, 0
4, 45120, Note_on_c, 1, 52, 127
4, 45356, Note_on_c, 1, 52, 0
4, 45360, Note_on_c, 1, 56, 127
4, 45596, Note_on_c, 1, 56, 0
4, 45600, Note_on_c, 1, 61, 127
4, 45836, Note_on_c, 1, 61, 0
4, 45840, Note_on_c, 1, 64, 127
4, 46076, Note_on_c, 1, 64, 0
4, 46080, Note_on_c, 1, 63, 127
4, 46316, Note_on_c, 1, 63, 0
4, 46320, Note_on_c, 1, 64, 127
4, 46556, Note_on_c, 1, 64, 0
4, 46560, Note_on_c, 1, 66, 127
4, 46796, Note_on_c, 1, 66, 0
4, 46800, Note_on_c, 1, 63, 127
4, 47036, Note_on_c, 1, 63, 0
4, 47040, Note_on_c, 1, 60, 127
4, 47276, Note_on_c, 1, 60, 0
4, 47280, Note_on_c, 1, 61, 127
4, 47516, Note_on_c, 1, 61, 0
4, 47520, Note_on_c, 1, 63, 127
4, 47756, Note_on_c, 1, 63, 0
4, 47760, Note_on_c, 1, 60, 127
4, 47996, Note_on_c, 1, 60, 0
4, 48000, Note_on_c, 1, 61, 127
4, 48476, Note_on_c, 1, 61, 0
4, 48480, Note_on_c, 1, 49, 127
4, 48956, Note_on_c, 1, 49, 0
4, 57600, Note_on_c, 1, 56, 127
4, 58556, Note_on_c, 1, 56, 0
4, 58560, Note_on_c, 1, 49, 80
4, 59279, Note_on_c, 1, 49, 0
4, 59280, Note_on_c, 1, 51, 127
4, 59516, Note_on_c, 1, 51, 0
4, 59520, Note_on_c, 1, 52, 80
4, 60239, Note_on_c, 1, 52, 0
4, 60240, Note_on_c, 1, 54, 127
4, 60476, Note_on_c, 1, 54, 0
4, 60480, Note_on_c, 1, 56, 127
4, 61436, Note_on_c, 1, 56, 0
4, 61440, Note_on_c, 1, 57, 127
4, 62396, Note_on_c, 1, 57, 0
4, 62400, Note_on_c, 1, 56, 80
4, 63119, Note_on_c, 1, 56, 0
4, 63120, Note_on_c, 1, 54, 127
4, 63356, Note_on_c, 1, 54, 0
4, 63360, Note_on_c, 1, 52, 127
4, 64559, Note_on_c, 1, 52, 0
4, 64560, Note_on_c, 1, 51, 127
4, 64796, Note_on_c, 1, 51, 0
4, 64800, Note_on_c, 1, 52, 127
4, 65036, Note_on_c, 1, 52, 0
4, 65040, Note_on_c, 1, 54, 127
4, 65276, Note_on_c, 1, 54, 0
4, 65280, Note_on_c, 1, 56, 127
4, 66479, Note_on_c, 1, 56, 0
4, 66480, Note_on_c, 1, 54, 127
4, 66716, Note_on_c, 1, 54, 0
4, 66720, Note_on_c, 1, 52, 127
4, 66956, Note_on_c, 1, 52, 0
4, 66960, Note_on_c, 1, 51, 127
4, 67196, Note_on_c, 1, 51, 0
4, 67200, Note_on_c, 1, 49, 127
4, 68156, Note_on_c, 1, 49, 0
4, 68160, Note_on_c, 1, 54, 127
4, 69359, Note_on_c, 1, 54, 0
4, 69360, Note_on_c, 1, 54, 127
4, 69596, Note_on_c, 1, 54, 0
4, 69600, Note_on_c, 1, 52, 127
4, 69836, Note_on_c, 1, 52, 0
4, 69840, Note_on_c, 1, 51, 127
4, 70076, Note_on_c, 1, 51, 0
4, 70080, Note_on_c, 1, 52, 127
4, 71279, Note_on_c, 1, 52, 0
4, 71280, Note_on_c, 1, 51, 127
4, 71516, Note_on_c, 1, 51, 0
4, 71520, Note_on_c, 1, 52, 127
4, 71756, Note_on_c, 1, 52, 0
4, 71760, Note_on_c, 1, 54, 127
4, 71996, Note_on_c, 1, 54, 0
4, 72000, Note_on_c, 1, 56, 127
4, 73199, Note_on_c, 1, 56, 0
4, 73200, Note_on_c, 1, 57, 127
4, 73436, Note_on_c, 1, 57, 0
4, 73440, Note_on_c, 1, 56, 127
4, 73676, Note_on_c, 1, 56, 0
4, 73680, Note_on_c, 1, 54, 127
4, 73916, Note_on_c, 1, 54, 0
4, 73920, Note_on_c, 1, 54, 127
4, 73979, Note_on_c, 1, 54, 0
4, 73980, Note_on_c, 1, 53, 80
4, 74039, Note_on_c, 1, 53, 0
4, 74040, Note_on_c, 1, 54, 127
4, 74099, Note_on_c, 1, 54, 0
4, 74100, Note_on_c, 1, 53, 80
4, 74159, Note_on_c, 1, 53, 0
4, 74160, Note_on_c, 1, 54, 127
4, 74219, Note_on_c, 1, 54, 0
4, 74220, Note_on_c, 1, 53, 80
4, 74279, Note_on_c, 1, 53, 0
4, 74280, Note_on_c, 1, 54, 127
4, 74339, Note_on_c, 1, 54, 0
4, 74340, Note_on_c, 1, 53, 80
4, 74399, Note_on_c, 1, 53, 0
4, 74400, Note_on_c, 1, 54, 127
4, 74459, Note_on_c, 1, 54, 0
4, 74460, Note_on_c, 1, 53, 80
4, 74519, Note_on_c, 1, 53, 0
4, 74520, Note_on_c, 1, 54, 127
4, 74579, Note_on_c, 1, 54, 0
4, 74580, Note_on_c, 1, 53, 80
4, 74639, Note_on_c, 1, 53, 0
4, 74640, Note_on_c, 1, 51, 127
4, 74756, Note_on_c, 1, 51, 0
4, 74760, Note_on_c, 1, 53, 127
4, 74876, Note_on_c, 1, 53, 0
4, 74880, Note_on_c, 1, 54, 127
4, 75116, Note_on_c, 1, 54, 0
4, 75120, Note_on_c, 1, 56, 127
4, 75356, Note_on_c, 1, 56, 0
4, 75360, Note_on_c, 1, 54, 127
4, 75596, Note_on_c, 1, 54, 0
4, 75600, Note_on_c, 1, 52, 127
4, 75836, Note_on_c, 1, 52, 0
4, 75840, Note_on_c, 1, 52, 127
4, 75899, Note_on_c, 1, 52, 0
4, 75900, Note_on_c, 1, 51, 80
4, 75959, Note_on_c, 1, 51, 0
4, 75960, Note_on_c, 1, 52, 127
4, 76019, Note_on_c, 1, 52, 0
4, 76020, Note_on_c, 1, 51, 80
4, 76079, Note_on_c, 1, 51, 0
4, 76080, Note_on_c, 1, 52, 127
4, 76139, Note_on_c, 1, 52, 0
4, 76140, Note_on_c, 1, 51, 80
4, 76199, Note_on_c, 1, 51, 0
4, 76200, Note_on_c, 1, 52, 127
4, 76259, Note_on_c, 1, 52, 0
4, 76260, Note_on_c, 1, 51, 80
4, 76319, Note_on_c, 1, 51, 0
4, 76320, Note_on_c, 1, 52, 127
4, 76379, Note_on_c, 1, 52, 0
4, 76380, Note_on_c, 1, 51, 80
4, 76439, Note_on_c, 1, 51, 0
4, 76440, Note_on_c, 1, 52, 127
4, 76499, Note_on_c, 1, 52, 0
4, 76500, Note_on_c, 1, 51, 80
4, 76559, Note_on_c, 1, 51, 0
4, 76560, Note_on_c, 1, 49, 127
4, 76676, Note_on_c, 1, 49, 0
4, 76680, Note_on_c, 1, 51, 127
4, 76796, Note_on_c, 1, 51, 0
4, 76800, Note_on_c, 1, 52, 127
4, 77276, Note_on_c, 1, 52, 0
4, 77280, Note_on_c, 1, 51, 127
4, 77516, Note_on_c, 1, 51, 0
4, 77520, Note_on_c, 1, 49, 127
4, 77756, Note_on_c, 1, 49, 0
4, 77760, Note_on_c, 1, 49, 127
4, 77819, Note_on_c, 1, 49, 0
4, 77820, Note_on_c, 1, 48, 80
4, 77879, Note_on_c, 1, 48, 0
4, 77880, Note_on_c, 1, 49, 127
4, 77939, Note_on_c, 1, 49, 0
4, 77940, Note_on_c, 1, 48, 80
4, 77999, Note_on_c, 1, 48, 0
4, 78000, Note_on_c, 1, 49, 127
4, 78059, Note_on_c, 1, 49, 0
4, 78060, Note_on_c, 1, 48, 80
4, 78119, Note_on_c, 1, 48, 0
4, 78120, Note_on_c, 1, 49, 127
4, 78179, Note_on_c, 1, 49, 0
4, 78180, Note_on_c, 1, 48, 80
4, 78239, Note_on_c, 1, 48, 0
4, 78240, Note_on_c, 1, 49, 127
4, 78299, Note_on_c, 1, 49, 0
4, 78300, Note_on_c, 1, 48, 80
4, 78359, Note_on_c, 1, 48, 0
4, 78360, Note_on_c, 1, 49, 127
4, 78419, Note_on_c, 1, 49, 0
4, 78420, Note_on_c, 1, 48, 80
4, 78479, Note_on_c, 1, 48, 0
4, 78480, Note_on_c, 1, 46, 127
4, 78596, Note_on_c, 1, 46, 0
4, 78600, Note_on_c, 1, 48, 127
4, 78716, Note_on_c, 1, 48, 0
4, 78720, Note_on_c, 1, 49, 127
4, 79919, Note_on_c, 1, 49, 0
4, 79920, Note_on_c, 1, 40, 127
4, 80156, Note_on_c, 1, 40, 0
4, 80160, Note_on_c, 1, 45, 127
4, 80396, Note_on_c, 1, 45, 0
4, 80400, Note_on_c, 1, 44, 127
4, 80636, Note_on_c, 1, 44, 0
4, 80640, Note_on_c, 1, 42, 127
4, 80876, Note_on_c, 1, 42, 0
4, 80880, Note_on_c, 1, 44, 127
4, 81116, Note_on_c, 1, 44, 0
4, 81120, Note_on_c, 1, 45, 127
4, 81356, Note_on_c, 1, 45, 0
4, 81360, Note_on_c, 1, 42, 127
4, 81596, Note_on_c, 1, 42, 0
4, 81600, Note_on_c, 1, 39, 127
4, 81836, Note_on_c, 1, 39, 0
4, 81840, Note_on_c, 1, 44, 127
4, 82076, Note_on_c, 1, 44, 0
4, 82080, Note_on_c, 1, 42, 127
4, 82316, Note_on_c, 1, 42, 0
4, 82320, Note_on_c, 1, 44, 127
4, 82556, Note_on_c, 1, 44, 0
4, 82560, Note_on_c, 1, 40, 127
4, 82796, Note_on_c, 1, 40, 0
4, 82800, Note_on_c, 1, 42, 127
4, 83036, Note_on_c, 1, 42, 0
4, 83040, Note_on_c, 1, 44, 127
4, 83276, Note_on_c, 1, 44, 0
4, 83280, Note_on_c, 1, 41, 127
4, 83516, Note_on_c, 1, 41, 0
4, 83520, Note_on_c, 1, 45, 127
4, 83996, Note_on_c, 1, 45, 0
4, 84000, Note_on_c, 1, 42, 127
4, 84476, Note_on_c, 1, 42, 0
4, 84480, Note_on_c, 1, 49, 80
4, 85199, Note_on_c, 1, 49, 0
4, 85200, Note_on_c, 1, 51, 127
4, 85436, Note_on_c, 1, 51, 0
4, 85440, Note_on_c, 1, 52, 80
4, 86159, Note_on_c, 1, 52, 0
4, 86160, Note_on_c, 1, 53, 127
4, 86396, Note_on_c, 1, 53, 0
4, 86400, Note_on_c, 1, 54, 127
4, 87356, Note_on_c, 1, 54, 0
4, 87360, Note_on_c, 1, 52, 127
4, 87596, Note_on_c, 1, 52, 0
4, 87600, Note_on_c, 1, 54, 127
4, 87836, Note_on_c, 1, 54, 0
4, 87840, Note_on_c, 1, 56, 127
4, 88316, Note_on_c, 1, 56, 0
4, 88320, Note_on_c, 1, 57, 127
4, 88796, Note_on_c, 1, 57, 0
4, 88800, Note_on_c, 1, 56, 127
4, 89276, Note_on_c, 1, 56, 0
4, 89760, Note_on_c, 1, 54, 127
4, 90479, Note_on_c, 1, 54, 0
4, 90480, Note_on_c, 1, 54, 127
4, 90716, Note_on_c, 1, 54, 0
4, 90720, Note_on_c, 1, 52, 127
4, 90956, Note_on_c, 1, 52, 0
4, 90960, Note_on_c, 1, 51, 127
4, 91196, Note_on_c, 1, 51, 0
4, 91200, Note_on_c, 1, 52, 127
4, 92639, Note_on_c, 1, 52, 0
4, 92640, Note_on_c, 1, 51, 127
4, 92876, Note_on_c, 1, 51, 0
4, 92880, Note_on_c, 1, 49, 127
4, 93116, Note_on_c, 1, 49, 0
4, 93120, Note_on_c, 1, 51, 127
4, 94559, Note_on_c, 1, 51, 0
4, 94560, Note_on_c, 1, 49, 127
4, 94796, Note_on_c, 1, 49, 0
4, 94800, Note_on_c, 1, 48, 127
4, 95036, Note_on_c, 1, 48, 0
4, 95040, Note_on_c, 1, 49, 127
4, 96959, Note_on_c, 1, 49, 0
4, 96960, Note_on_c, 1, 48, 127
4, 97916, Note_on_c, 1, 48, 0
4, 97920, Note_on_c, 1, 49, 127
4, 98876, Note_on_c, 1, 49, 0
4, 98880, Note_on_c, 1, 44, 80
4, 99599, Note_on_c, 1, 44, 0
4, 99600, Note_on_c, 1, 46, 127
4, 99836, Note_on_c, 1, 46, 0
4, 99840, Note_on_c, 1, 47, 80
4, 100559, Note_on_c, 1, 47, 0
4, 100560, Note_on_c, 1, 49, 127
4, 100796, Note_on_c, 1, 49, 0
4, 100800, Note_on_c, 1, 51, 127
4, 101756, Note_on_c, 1, 51, 0
4, 101760, Note_on_c, 1, 52, 127
4, 102716, Note_on_c, 1, 52, 0
4, 102720, Note_on_c, 1, 51, 80
4, 103439, Note_on_c, 1, 51, 0
4, 103440, Note_on_c, 1, 49, 127
4, 103676, Note_on_c, 1, 49, 0
4, 103680, Note_on_c, 1, 47, 127
4, 104879, Note_on_c, 1, 47, 0
4, 104880, Note_on_c, 1, 46, 127
4, 105116, Note_on_c, 1, 46, 0
4, 105120, Note_on_c, 1, 47, 127
4, 105356, Note_on_c, 1, 47, 0
4, 105360, Note_on_c, 1, 49, 127
4, 105596, Note_on_c, 1, 49, 0
4, 105600, Note_on_c, 1, 51, 127
4, 105836, Note_on_c, 1, 51, 0
4, 105840, Note_on_c, 1, 50, 127
4, 106076, Note_on_c, 1, 50, 0
4, 106080, Note_on_c, 1, 51, 127
4, 106556, Note_on_c, 1, 51, 0
4, 107040, Note_on_c, 1, 51, 127
4, 107516, Note_on_c, 1, 51, 0
4, 107520, Note_on_c, 1, 53, 127
4, 107756, Note_on_c, 1, 53, 0
4, 107760, Note_on_c, 1, 55, 127
4, 107996, Note_on_c, 1, 55, 0
4, 108000, Note_on_c, 1, 56, 127
4, 108956, Note_on_c, 1, 56, 0
4, 108960, Note_on_c, 1, 55, 127
4, 109196, Note_on_c, 1, 55, 0
4, 109200, Note_on_c, 1, 53, 127
4, 109436, Note_on_c, 1, 53, 0
4, 109440, Note_on_c, 1, 54, 127
4, 109916, Note_on_c, 1, 54, 0
4, 109920, Note_on_c, 1, 52, 127
4, 110396, Note_on_c, 1, 52, 0
4, 110400, Note_on_c, 1, 51, 127
4, 110876, Note_on_c, 1, 51, 0
4, 110880, Note_on_c, 1, 49, 127
4, 111356, Note_on_c, 1, 49, 0
4, 111360, Note_on_c, 1, 48, 127
4, 111836, Note_on_c, 1, 48, 0
4, 111840, Note_on_c, 1, 49, 127
4, 112076, Note_on_c, 1, 49, 0
4, 112080, Note_on_c, 1, 45, 127
4, 112316, Note_on_c, 1, 45, 0
4, 112320, Note_on_c, 1, 42, 127
4, 112796, Note_on_c, 1, 42, 0
4, 112800, Note_on_c, 1, 44, 127
4, 113276, Note_on_c, 1, 44, 0
4, 113280, Note_on_c, 1, 37, 127
4, 113756, Note_on_c, 1, 37, 0
4, 117600, Note_on_c, 1, 42, 127
4, 117836, Note_on_c, 1, 42, 0
4, 117840, Note_on_c, 1, 44, 127
4, 118076, Note_on_c, 1, 44, 0
4, 118080, Note_on_c, 1, 45, 127
4, 118316, Note_on_c, 1, 45, 0
4, 118320, Note_on_c, 1, 47, 127
4, 118556, Note_on_c, 1, 47, 0
4, 118560, Note_on_c, 1, 49, 127
4, 118796, Note_on_c, 1, 49, 0
4, 118800, Note_on_c, 1, 51, 127
4, 119036, Note_on_c, 1, 51, 0
4, 119040, Note_on_c, 1, 52, 127
4, 119276, Note_on_c, 1, 52, 0
4, 119280, Note_on_c, 1, 54, 127
4, 119516, Note_on_c, 1, 54, 0
4, 119520, Note_on_c, 1, 56, 127
4, 119756, Note_on_c, 1, 56, 0
4, 119760, Note_on_c, 1, 52, 127
4, 119996, Note_on_c, 1, 52, 0
4, 120000, Note_on_c, 1, 49, 127
4, 120236, Note_on_c, 1, 49, 0
4, 120240, Note_on_c, 1, 54, 127
4, 120476, Note_on_c, 1, 54, 0
4, 120480, Note_on_c, 1, 52, 127
4, 120716, Note_on_c, 1, 52, 0
4, 120720, Note_on_c, 1, 54, 127
4, 120956, Note_on_c, 1, 54, 0
4, 120960, Note_on_c, 1, 51, 127
4, 121196, Note_on_c, 1, 51, 0
4, 121200, Note_on_c, 1, 52, 127
4, 121436, Note_on_c, 1, 52, 0
4, 121440, Note_on_c, 1, 54, 127
4, 121676, Note_on_c, 1, 54, 0
4, 121680, Note_on_c, 1, 51, 127
4, 121916, Note_on_c, 1, 51, 0
4, 121920, Note_on_c, 1, 47, 127
4, 122156, Note_on_c, 1, 47, 0
4, 122160, Note_on_c, 1, 52, 127
4, 122396, Note_on_c, 1, 52, 0
4, 122400, Note_on_c, 1, 51, 127
4, 122636, Note_on_c, 1, 51, 0
4, 122640, Note_on_c, 1, 52, 127
4, 122876, Note_on_c, 1, 52, 0
4, 122880, Note_on_c, 1, 49, 127
4, 123116, Note_on_c, 1, 49, 0
4, 123120, Note_on_c, 1, 51, 127
4, 123356, Note_on_c, 1, 51, 0
4, 123360, Note_on_c, 1, 52, 127
4, 123596, Note_on_c, 1, 52, 0
4, 123600, Note_on_c, 1, 49, 127
4, 123836, Note_on_c, 1, 49, 0
4, 123840, Note_on_c, 1, 46, 127
4, 124076, Note_on_c, 1, 46, 0
4, 124080, Note_on_c, 1, 51, 127
4, 124316, Note_on_c, 1, 51, 0
4, 124320, Note_on_c, 1, 49, 127
4, 124556, Note_on_c, 1, 49, 0
4, 124560, Note_on_c, 1, 51, 127
4, 124796, Note_on_c, 1, 51, 0
4, 124800, Note_on_c, 1, 48, 127
4, 125756, Note_on_c, 1, 48, 0
4, 125760, Note_on_c, 1, 49, 127
4, 127199, Note_on_c, 1, 49, 0
4, 127200, Note_on_c, 1, 45, 127
4, 127676, Note_on_c, 1, 45, 0
4, 127680, Note_on_c, 1, 52, 80
4, 128399, Note_on_c, 1, 52, 0
4, 128400, Note_on_c, 1, 49, 127
4, 128636, Note_on_c, 1, 49, 0
4, 128640, Note_on_c, 1, 54, 80
4, 129359, Note_on_c, 1, 54, 0
4, 129360, Note_on_c, 1, 54, 127
4, 129596, Note_on_c, 1, 54, 0
4, 129600, Note_on_c, 1, 52, 80
4, 130319, Note_on_c, 1, 52, 0
4, 130320, Note_on_c, 1, 51, 127
4, 130556, Note_on_c, 1, 51, 0
4, 130560, Note_on_c, 1, 49, 80
4, 131279, Note_on_c, 1, 49, 0
4, 131280, Note_on_c, 1, 47, 127
4, 131516, Note_on_c, 1, 47, 0
4, 131520, Note_on_c, 1, 45, 127
4, 132476, Note_on_c, 1, 45, 0
4, 132480, Note_on_c, 1, 52, 127
4, 133436, Note_on_c, 1, 52, 0
4, 135600, Note_on_c, 1, 49, 127
4, 135836, Note_on_c, 1, 49, 0
4, 135840, Note_on_c, 1, 51, 127
4, 136076, Note_on_c, 1, 51, 0
4, 136080, Note_on_c, 1, 53, 127
4, 136316, Note_on_c, 1, 53, 0
4, 136320, Note_on_c, 1, 54, 127
4, 137276, Note_on_c, 1, 54, 0
4, 139440, Note_on_c, 1, 51, 127
4, 139676, Note_on_c, 1, 51, 0
4, 139680, Note_on_c, 1, 53, 127
4, 139916, Note_on_c, 1, 53, 0
4, 139920, Note_on_c, 1, 55, 127
4, 140156, Note_on_c, 1, 55, 0
4, 140160, Note_on_c, 1, 56, 127
4, 141116, Note_on_c, 1, 56, 0
4, 142560, Note_on_c, 1, 54, 127
4, 143036, Note_on_c, 1, 54, 0
4, 143040, Note_on_c, 1, 56, 127
4, 143516, Note_on_c, 1, 56, 0
4, 143520, Note_on_c, 1, 52, 127
4, 143996, Note_on_c, 1, 52, 0
4, 144480, Note_on_c, 1, 49, 127
4, 144956, Note_on_c, 1, 49, 0
4, 144960, Note_on_c, 1, 47, 127
4, 145436, Note_on_c, 1, 47, 0
4, 145440, Note_on_c, 1, 52, 127
4, 145916, Note_on_c, 1, 52, 0
4, 145920, Note_on_c, 1, 45, 127
4, 146156, Note_on_c, 1, 45, 0
4, 146160, Note_on_c, 1, 47, 127
4, 146396, Note_on_c, 1, 47, 0
4, 146400, Note_on_c, 1, 49, 127
4, 146636, Note_on_c, 1, 49, 0
4, 146640, Note_on_c, 1, 51, 127
4, 146876, Note_on_c, 1, 51, 0
4, 146880, Note_on_c, 1, 52, 127
4, 147116, Note_on_c, 1, 52, 0
4, 147120, Note_on_c, 1, 54, 127
4, 147356, Note_on_c, 1, 54, 0
4, 147360, Note_on_c, 1, 56, 127
4, 148079, Note_on_c, 1, 56, 0
4, 148080, Note_on_c, 1, 54, 127
4, 148316, Note_on_c, 1, 54, 0
4, 148320, Note_on_c, 1, 52, 127
4, 148556, Note_on_c, 1, 52, 0
4, 148560, Note_on_c, 1, 51, 127
4, 148796, Note_on_c, 1, 51, 0
4, 148800, Note_on_c, 1, 49, 127
4, 149756, Note_on_c, 1, 49, 0
4, 149760, Note_on_c, 1, 47, 127
4, 150716, Note_on_c, 1, 47, 0
4, 161280, Note_on_c, 1, 54, 127
4, 162236, Note_on_c, 1, 54, 0
4, 162240, Note_on_c, 1, 49, 80
4, 162959, Note_on_c, 1, 49, 0
4, 162960, Note_on_c, 1, 51, 127
4, 163196, Note_on_c, 1, 51, 0
4, 163200, Note_on_c, 1, 52, 80
4, 163919, Note_on_c, 1, 52, 0
4, 163920, Note_on_c, 1, 54, 127
4, 164156, Note_on_c, 1, 54, 0
4, 164160, Note_on_c, 1, 56, 127
4, 165116, Note_on_c, 1, 56, 0
4, 165120, Note_on_c, 1, 57, 127
4, 166076, Note_on_c, 1, 57, 0
4, 166080, Note_on_c, 1, 56, 80
4, 166799, Note_on_c, 1, 56, 0
4, 166800, Note_on_c, 1, 54, 127
4, 167036, Note_on_c, 1, 54, 0
4, 167040, Note_on_c, 1, 52, 127
4, 168239, Note_on_c, 1, 52, 0
4, 168240, Note_on_c, 1, 51, 127
4, 168476, Note_on_c, 1, 51, 0
4, 168480, Note_on_c, 1, 52, 127
4, 168716, Note_on_c, 1, 52, 0
4, 168720, Note_on_c, 1, 54, 127
4, 168956, Note_on_c, 1, 54, 0
4, 168960, Note_on_c, 1, 56, 127
4, 169916, Note_on_c, 1, 56, 0
4, 170160, Note_on_c, 1, 56, 127
4, 170396, Note_on_c, 1, 56, 0
4, 170400, Note_on_c, 1, 54, 127
4, 170636, Note_on_c, 1, 54, 0
4, 170640, Note_on_c, 1, 56, 127
4, 170876, Note_on_c, 1, 56, 0
4, 170880, Note_on_c, 1, 57, 127
4, 171356, Note_on_c, 1, 57, 0
4, 171360, Note_on_c, 1, 53, 127
4, 171836, Note_on_c, 1, 53, 0
4, 171840, Note_on_c, 1, 56, 127
4, 172316, Note_on_c, 1, 56, 0
4, 172320, Note_on_c, 1, 49, 127
4, 172796, Note_on_c, 1, 49, 0
4, 172800, Note_on_c, 1, 50, 127
4, 173276, Note_on_c, 1, 50, 0
4, 173280, Note_on_c, 1, 51, 127
4, 173756, Note_on_c, 1, 51, 0
4, 173760, Note_on_c, 1, 52, 127
4, 174236, Note_on_c, 1, 52, 0
4, 175920, Note_on_c, 1, 51, 127
4, 176156, Note_on_c, 1, 51, 0
4, 176160, Note_on_c, 1, 52, 127
4, 176396, Note_on_c, 1, 52, 0
4, 176400, Note_on_c, 1, 51, 127
4, 176636, Note_on_c, 1, 51, 0
4, 176640, Note_on_c, 1, 49, 127
4, 177116, Note_on_c, 1, 49, 0
4, 177120, Note_on_c, 1, 52, 127
4, 177596, Note_on_c, 1, 52, 0
4, 178080, Note_on_c, 1, 50, 127
4, 179039, Note_on_c, 1, 50, 0
4, 179040, Note_on_c, 1, 49, 127
4, 179516, Note_on_c, 1, 49, 0
4, 179760, Note_on_c, 1, 52, 127
4, 179996, Note_on_c, 1, 52, 0
4, 180000, Note_on_c, 1, 50, 127
4, 180236, Note_on_c, 1, 50, 0
4, 180240, Note_on_c, 1, 52, 127
4, 180476, Note_on_c, 1, 52, 0
4, 180480, Note_on_c, 1, 54, 127
4, 180956, Note_on_c, 1, 54, 0
4, 180960, Note_on_c, 1, 47, 127
4, 181436, Note_on_c, 1, 47, 0
4, 181440, Note_on_c, 1, 49, 127
4, 182396, Note_on_c, 1, 49, 0
4, 182400, Note_on_c, 1, 50, 127
4, 182876, Note_on_c, 1, 50, 0
4, 182880, Note_on_c, 1, 44, 127
4, 183356, Note_on_c, 1, 44, 0
4, 183360, Note_on_c, 1, 45, 127
4, 184316, Note_on_c, 1, 45, 0
4, 184320, Note_on_c, 1, 47, 127
4, 184796, Note_on_c, 1, 47, 0
4, 184800, Note_on_c, 1, 41, 127
4, 185276, Note_on_c, 1, 41, 0
4, 185280, Note_on_c, 1, 42, 127
4, 186236, Note_on_c, 1, 42, 0
4, 186240, Note_on_c, 1, 37, 127
4, 187196, Note_on_c, 1, 37, 0
4, 196320, Note_on_c, 1, 49, 127
4, 196796, Note_on_c, 1, 49, 0
4, 196800, Note_on_c, 1, 50, 127
4, 197276, Note_on_c, 1, 50, 0
4, 197280, Note_on_c, 1, 45, 127
4, 197756, Note_on_c, 1, 45, 0
4, 198240, Note_on_c, 1, 54, 127
4, 198716, Note_on_c, 1, 54, 0
4, 198720, Note_on_c, 1, 52, 127
4, 199196, Note_on_c, 1, 52, 0
4, 199200, Note_on_c, 1, 57, 127
4, 199676, Note_on_c, 1, 57, 0
4, 199680, Note_on_c, 1, 50, 127
4, 199916, Note_on_c, 1, 50, 0
4, 199920, Note_on_c, 1, 52, 127
4, 200156, Note_on_c, 1, 52, 0
4, 200160, Note_on_c, 1, 54, 127
4, 200396, Note_on_c, 1, 54, 0
4, 200400, Note_on_c, 1, 56, 127
4, 200636, Note_on_c, 1, 56, 0
4, 200640, Note_on_c, 1, 57, 127
4, 200876, Note_on_c, 1, 57, 0
4, 200880, Note_on_c, 1, 59, 127
4, 201116, Note_on_c, 1, 59, 0
4, 201120, Note_on_c, 1, 61, 127
4, 201839, Note_on_c, 1, 61, 0
4, 201840, Note_on_c, 1, 59, 127
4, 202076, Note_on_c, 1, 59, 0
4, 202080, Note_on_c, 1, 57, 127
4, 202316, Note_on_c, 1, 57, 0
4, 202320, Note_on_c, 1, 56, 127
4, 202556, Note_on_c, 1, 56, 0
4, 202560, Note_on_c, 1, 54, 127
4, 203516, Note_on_c, 1, 54, 0
4, 203520, Note_on_c, 1, 52, 127
4, 204476, Note_on_c, 1, 52, 0
4, 218880, Note_on_c, 1, 56, 127
4, 219836, Note_on_c, 1, 56, 0
4, 219840, Note_on_c, 1, 49, 80
4, 220559, Note_on_c, 1, 49, 0
4, 220560, Note_on_c, 1, 51, 127
4, 220796, Note_on_c, 1, 51, 0
4, 220800, Note_on_c, 1, 52, 80
4, 221519, Note_on_c, 1, 52, 0
4, 221520, Note_on_c, 1, 54, 127
4, 221756, Note_on_c, 1, 54, 0
4, 221760, Note_on_c, 1, 56, 127
4, 222716, Note_on_c, 1, 56, 0
4, 222720, Note_on_c, 1, 57, 127
4, 223676, Note_on_c, 1, 57, 0
4, 223680, Note_on_c, 1, 56, 80
4, 224399, Note_on_c, 1, 56, 0
4, 224400, Note_on_c, 1, 54, 127
4, 224636, Note_on_c, 1, 54, 0
4, 224640, Note_on_c, 1, 52, 127
4, 225839, Note_on_c, 1, 52, 0
4, 225840, Note_on_c, 1, 51, 127
4, 226076, Note_on_c, 1, 51, 0
4, 226080, Note_on_c, 1, 52, 127
4, 226316, Note_on_c, 1, 52, 0
4, 226320, Note_on_c, 1, 54, 127
4, 226556, Note_on_c, 1, 54, 0
4, 226560, Note_on_c, 1, 56, 127
4, 228476, Note_on_c, 1, 56, 0
4, 228480, Note_on_c, 1, 49, 127
4, 229436, Note_on_c, 1, 49, 0
4, 229437, End_track
0, 0, End_of_file
