0, 0, Header, 1, 2, 480
1, 0, Start_track
1, 0, Unknown_meta_event, 8, 35, 71, 111, 108, 100, 98, 101, 114, 103, 32, 86, 97, 114, 105, 97, 116, 105, 111, 110, 115, 58, 32, 86, 97, 114, 105, 97, 116, 105, 111, 110, 32, 86, 73, 73, 0
1, 0, Unknown_meta_event, 9, 8, 66, 87, 86, 32, 57, 56, 56, 0
1, 0, Unknown_meta_event, 10, 11, 74, 46, 32, 83, 46, 32, 66, 97, 99, 104, 0
1, 0, Time_signature, 6, 3, 24, 8
1, 0, Key_signature, 1, "major"
1, 0, Program_c, 0, 46
1, 0, Note_on_c, 0, 71, 80
1, 2, Control_c, 0, 7, 100
1, 4, Control_c, 0, 10, 64
1, 6, Control_c, 0, 91, 30
1, 8, Control_c, 0, 93, 30
1, 359, Note_on_c, 0, 71, 0
1, 360, Note_on_c, 0, 69, 64
1, 470, Note_on_c, 0, 69, 0
1, 480, Note_on_c, 0, 71, 64
1, 710, Note_on_c, 0, 71, 0
1, 720, Note_on_c, 0, 62, 80
1, 1079, Note_on_c, 0, 62, 0
1, 1080, Note_on_c, 0, 67, 64
1, 1190, Note_on_c, 0, 67, 0
1, 1200, Note_on_c, 0, 71, 64
1, 1430, Note_on_c, 0, 71, 0
1, 1440, Note_on_c, 0, 71, 64
1, 1495, Note_on_c, 0, 71, 0
1, 1500, Note_on_c, 0, 69, 64
1, 1555, Note_on_c, 0, 69, 0
1, 1560, Note_on_c, 0, 71, 64
1, 1615, Note_on_c, 0, 71, 0
1, 1620, Note_on_c, 0, 69, 64
1, 1675, Note_on_c, 0, 69, 0
1, 1680, Note_on_c, 0, 71, 64
1, 1735, Note_on_c, 0, 71, 0
1, 1740, Note_on_c, 0, 69, 64
1, 1795, Note_on_c, 0, 69, 0
1, 1800, Note_on_c, 0, 67, 64
1, 1910, Note_on_c, 0, 67, 0
1, 1920, Note_on_c, 0, 69, 64
1, 2150, Note_on_c, 0, 69, 0
1, 2160, Note_on_c, 0, 74, 80
1, 2879, Note_on_c, 0, 74, 0
1, 2880, Note_on_c, 0, 79, 64
1, 2935, Note_on_c, 0, 79, 0
1, 2940, Note_on_c, 0, 78, 64
1, 2995, Note_on_c, 0, 78, 0
1, 3000, Note_on_c, 0, 79, 64
1, 3230, Note_on_c, 0, 79, 0
1, 3240, Note_on_c, 0, 78, 64
1, 3350, Note_on_c, 0, 78, 0
1, 3360, Note_on_c, 0, 79, 64
1, 3590, Note_on_c, 0, 79, 0
1, 3600, Note_on_c, 0, 69, 80
1, 3959, Note_on_c, 0, 69, 0
1, 3960, Note_on_c, 0, 76, 64
1, 4070, Note_on_c, 0, 76, 0
1, 4080, Note_on_c, 0, 79, 64
1, 4310, Note_on_c, 0, 79, 0
1, 4320, Note_on_c, 0, 79, 64
1, 4375, Note_on_c, 0, 79, 0
1, 4380, Note_on_c, 0, 78, 64
1, 4435, Note_on_c, 0, 78, 0
1, 4440, Note_on_c, 0, 79, 64
1, 4495, Note_on_c, 0, 79, 0
1, 4500, Note_on_c, 0, 78, 64
1, 4555, Note_on_c, 0, 78, 0
1, 4560, Note_on_c, 0, 79, 64
1, 4615, Note_on_c, 0, 79, 0
1, 4620, Note_on_c, 0, 78, 64
1, 4675, Note_on_c, 0, 78, 0
1, 4680, Note_on_c, 0, 76, 64
1, 4790, Note_on_c, 0, 76, 0
1, 4800, Note_on_c, 0, 78, 64
1, 5030, Note_on_c, 0, 78, 0
1, 5040, Note_on_c, 0, 74, 80
1, 6239, Note_on_c, 0, 74, 0
1, 6240, Note_on_c, 0, 76, 64
1, 6295, Note_on_c, 0, 76, 0
1, 6300, Note_on_c, 0, 78, 64
1, 6355, Note_on_c, 0, 78, 0
1, 6360, Note_on_c, 0, 79, 64
1, 6415, Note_on_c, 0, 79, 0
1, 6420, Note_on_c, 0, 81, 64
1, 6475, Note_on_c, 0, 81, 0
1, 6480, Note_on_c, 0, 83, 80
1, 6839, Note_on_c, 0, 83, 0
1, 6840, Note_on_c, 0, 79, 64
1, 6950, Note_on_c, 0, 79, 0
1, 6960, Note_on_c, 0, 74, 64
1, 7190, Note_on_c, 0, 74, 0
1, 7200, Note_on_c, 0, 76, 64
1, 7670, Note_on_c, 0, 76, 0
1, 7680, Note_on_c, 0, 78, 64
1, 7735, Note_on_c, 0, 78, 0
1, 7740, Note_on_c, 0, 79, 64
1, 7795, Note_on_c, 0, 79, 0
1, 7800, Note_on_c, 0, 81, 64
1, 7855, Note_on_c, 0, 81, 0
1, 7860, Note_on_c, 0, 83, 64
1, 7915, Note_on_c, 0, 83, 0
1, 7920, Note_on_c, 0, 84, 80
1, 8279, Note_on_c, 0, 84, 0
1, 8280, Note_on_c, 0, 81, 64
1, 8390, Note_on_c, 0, 81, 0
1, 8400, Note_on_c, 0, 76, 64
1, 8630, Note_on_c, 0, 76, 0
1, 8640, Note_on_c, 0, 78, 80
1, 8999, Note_on_c, 0, 78, 0
1, 9000, Note_on_c, 0, 74, 64
1, 9110, Note_on_c, 0, 74, 0
1, 9120, Note_on_c, 0, 79, 64
1, 9350, Note_on_c, 0, 79, 0
1, 9360, Note_on_c, 0, 69, 80
1, 9719, Note_on_c, 0, 69, 0
1, 9720, Note_on_c, 0, 71, 64
1, 9830, Note_on_c, 0, 71, 0
1, 9840, Note_on_c, 0, 72, 64
1, 10070, Note_on_c, 0, 72, 0
1, 10080, Note_on_c, 0, 72, 80
1, 10319, Note_on_c, 0, 72, 0
1, 10320, Note_on_c, 0, 71, 80
1, 11160, Note_on_c, 0, 69, 64
1, 11270, Note_on_c, 0, 69, 0
1, 11280, Note_on_c, 0, 67, 64
1, 11390, Note_on_c, 0, 67, 0
1, 11399, Note_on_c, 0, 71, 0
1, 11400, Note_on_c, 0, 66, 64
1, 11510, Note_on_c, 0, 66, 0
1, 11520, Note_on_c, 0, 67, 64
1, 11990, Note_on_c, 0, 67, 0
1, 12000, Note_on_c, 0, 74, 64
1, 12230, Note_on_c, 0, 74, 0
1, 12240, Note_on_c, 0, 79, 64
1, 12295, Note_on_c, 0, 79, 0
1, 12300, Note_on_c, 0, 78, 64
1, 12355, Note_on_c, 0, 78, 0
1, 12360, Note_on_c, 0, 79, 64
1, 13199, Note_on_c, 0, 79, 0
1, 13200, Note_on_c, 0, 81, 64
1, 13310, Note_on_c, 0, 81, 0
1, 13320, Note_on_c, 0, 79, 64
1, 13430, Note_on_c, 0, 79, 0
1, 13440, Note_on_c, 0, 78, 64
1, 13550, Note_on_c, 0, 78, 0
1, 13560, Note_on_c, 0, 76, 64
1, 13670, Note_on_c, 0, 76, 0
1, 13680, Note_on_c, 0, 78, 64
1, 13735, Note_on_c, 0, 78, 0
1, 13740, Note_on_c, 0, 76, 64
1, 13795, Note_on_c, 0, 76, 0
1, 13800, Note_on_c, 0, 78, 64
1, 14759, Note_on_c, 0, 78, 0
1, 14760, Note_on_c, 0, 79, 64
1, 14870, Note_on_c, 0, 79, 0
1, 14880, Note_on_c, 0, 78, 64
1, 15110, Note_on_c, 0, 78, 0
1, 15120, Note_on_c, 0, 76, 80
1, 15479, Note_on_c, 0, 76, 0
1, 15480, Note_on_c, 0, 73, 64
1, 15590, Note_on_c, 0, 73, 0
1, 15600, Note_on_c, 0, 74, 64
1, 15830, Note_on_c, 0, 74, 0
1, 15840, Note_on_c, 0, 74, 64
1, 15895, Note_on_c, 0, 74, 0
1, 15900, Note_on_c, 0, 73, 64
1, 15955, Note_on_c, 0, 73, 0
1, 15960, Note_on_c, 0, 74, 64
1, 16015, Note_on_c, 0, 74, 0
1, 16020, Note_on_c, 0, 73, 64
1, 16075, Note_on_c, 0, 73, 0
1, 16080, Note_on_c, 0, 74, 64
1, 16135, Note_on_c, 0, 74, 0
1, 16140, Note_on_c, 0, 73, 64
1, 16195, Note_on_c, 0, 73, 0
1, 16200, Note_on_c, 0, 74, 64
1, 16310, Note_on_c, 0, 74, 0
1, 16320, Note_on_c, 0, 76, 64
1, 16550, Note_on_c, 0, 76, 0
1, 16560, Note_on_c, 0, 69, 80
1, 17759, Note_on_c, 0, 69, 0
1, 17760, Note_on_c, 0, 71, 64
1, 17815, Note_on_c, 0, 71, 0
1, 17820, Note_on_c, 0, 73, 64
1, 17875, Note_on_c, 0, 73, 0
1, 17880, Note_on_c, 0, 74, 64
1, 17935, Note_on_c, 0, 74, 0
1, 17940, Note_on_c, 0, 76, 64
1, 17995, Note_on_c, 0, 76, 0
1, 18000, Note_on_c, 0, 78, 80
1, 18359, Note_on_c, 0, 78, 0
1, 18360, Note_on_c, 0, 74, 64
1, 18470, Note_on_c, 0, 74, 0
1, 18480, Note_on_c, 0, 69, 64
1, 18710, Note_on_c, 0, 69, 0
1, 18720, Note_on_c, 0, 71, 64
1, 19190, Note_on_c, 0, 71, 0
1, 19200, Note_on_c, 0, 73, 64
1, 19255, Note_on_c, 0, 73, 0
1, 19260, Note_on_c, 0, 74, 64
1, 19315, Note_on_c, 0, 74, 0
1, 19320, Note_on_c, 0, 76, 64
1, 19375, Note_on_c, 0, 76, 0
1, 19380, Note_on_c, 0, 78, 64
1, 19435, Note_on_c, 0, 78, 0
1, 19440, Note_on_c, 0, 79, 80
1, 19799, Note_on_c, 0, 79, 0
1, 19800, Note_on_c, 0, 76, 64
1, 19910, Note_on_c, 0, 76, 0
1, 19920, Note_on_c, 0, 71, 64
1, 20150, Note_on_c, 0, 71, 0
1, 20160, Note_on_c, 0, 71, 80
1, 20399, Note_on_c, 0, 71, 0
1, 20400, Note_on_c, 0, 73, 80
1, 20520, Note_on_c, 0, 69, 64
1, 20630, Note_on_c, 0, 69, 0
1, 20640, Note_on_c, 0, 81, 64
1, 20759, Note_on_c, 0, 73, 0
1, 20870, Note_on_c, 0, 81, 0
1, 20880, Note_on_c, 0, 74, 80
1, 21239, Note_on_c, 0, 74, 0
1, 21240, Note_on_c, 0, 76, 64
1, 21350, Note_on_c, 0, 76, 0
1, 21360, Note_on_c, 0, 73, 64
1, 21590, Note_on_c, 0, 73, 0
1, 21600, Note_on_c, 0, 73, 80
1, 21839, Note_on_c, 0, 73, 0
1, 21840, Note_on_c, 0, 74, 80
1, 23040, Note_on_c, 0, 71, 80
1, 23279, Note_on_c, 0, 74, 0
1, 23399, Note_on_c, 0, 71, 0
1, 23400, Note_on_c, 0, 69, 64
1, 23510, Note_on_c, 0, 69, 0
1, 23520, Note_on_c, 0, 71, 64
1, 23750, Note_on_c, 0, 71, 0
1, 23760, Note_on_c, 0, 62, 80
1, 24119, Note_on_c, 0, 62, 0
1, 24120, Note_on_c, 0, 67, 64
1, 24230, Note_on_c, 0, 67, 0
1, 24240, Note_on_c, 0, 71, 64
1, 24470, Note_on_c, 0, 71, 0
1, 24480, Note_on_c, 0, 71, 64
1, 24535, Note_on_c, 0, 71, 0
1, 24540, Note_on_c, 0, 69, 64
1, 24595, Note_on_c, 0, 69, 0
1, 24600, Note_on_c, 0, 71, 64
1, 24655, Note_on_c, 0, 71, 0
1, 24660, Note_on_c, 0, 69, 64
1, 24715, Note_on_c, 0, 69, 0
1, 24720, Note_on_c, 0, 71, 64
1, 24775, Note_on_c, 0, 71, 0
1, 24780, Note_on_c, 0, 69, 64
1, 24835, Note_on_c, 0, 69, 0
1, 24840, Note_on_c, 0, 67, 64
1, 24950, Note_on_c, 0, 67, 0
1, 24960, Note_on_c, 0, 69, 64
1, 25190, Note_on_c, 0, 69, 0
1, 25200, Note_on_c, 0, 74, 80
1, 25919, Note_on_c, 0, 74, 0
1, 25920, Note_on_c, 0, 79, 64
1, 25975, Note_on_c, 0, 79, 0
1, 25980, Note_on_c, 0, 78, 64
1, 26035, Note_on_c, 0, 78, 0
1, 26040, Note_on_c, 0, 79, 64
1, 26270, Note_on_c, 0, 79, 0
1, 26280, Note_on_c, 0, 78, 64
1, 26390, Note_on_c, 0, 78, 0
1, 26400, Note_on_c, 0, 79, 64
1, 26630, Note_on_c, 0, 79, 0
1, 26640, Note_on_c, 0, 69, 80
1, 26999, Note_on_c, 0, 69, 0
1, 27000, Note_on_c, 0, 76, 64
1, 27110, Note_on_c, 0, 76, 0
1, 27120, Note_on_c, 0, 79, 64
1, 27350, Note_on_c, 0, 79, 0
1, 27360, Note_on_c, 0, 79, 64
1, 27415, Note_on_c, 0, 79, 0
1, 27420, Note_on_c, 0, 78, 64
1, 27475, Note_on_c, 0, 78, 0
1, 27480, Note_on_c, 0, 79, 64
1, 27535, Note_on_c, 0, 79, 0
1, 27540, Note_on_c, 0, 78, 64
1, 27595, Note_on_c, 0, 78, 0
1, 27600, Note_on_c, 0, 79, 64
1, 27655, Note_on_c, 0, 79, 0
1, 27660, Note_on_c, 0, 78, 64
1, 27715, Note_on_c, 0, 78, 0
1, 27720, Note_on_c, 0, 76, 64
1, 27830, Note_on_c, 0, 76, 0
1, 27840, Note_on_c, 0, 78, 64
1, 28070, Note_on_c, 0, 78, 0
1, 28080, Note_on_c, 0, 74, 80
1, 29279, Note_on_c, 0, 74, 0
1, 29280, Note_on_c, 0, 76, 64
1, 29335, Note_on_c, 0, 76, 0
1, 29340, Note_on_c, 0, 78, 64
1, 29395, Note_on_c, 0, 78, 0
1, 29400, Note_on_c, 0, 79, 64
1, 29455, Note_on_c, 0, 79, 0
1, 29460, Note_on_c, 0, 81, 64
1, 29515, Note_on_c, 0, 81, 0
1, 29520, Note_on_c, 0, 83, 80
1, 29879, Note_on_c, 0, 83, 0
1, 29880, Note_on_c, 0, 79, 64
1, 29990, Note_on_c, 0, 79, 0
1, 30000, Note_on_c, 0, 74, 64
1, 30230, Note_on_c, 0, 74, 0
1, 30240, Note_on_c, 0, 76, 64
1, 30710, Note_on_c, 0, 76, 0
1, 30720, Note_on_c, 0, 78, 64
1, 30775, Note_on_c, 0, 78, 0
1, 30780, Note_on_c, 0, 79, 64
1, 30835, Note_on_c, 0, 79, 0
1, 30840, Note_on_c, 0, 81, 64
1, 30895, Note_on_c, 0, 81, 0
1, 30900, Note_on_c, 0, 83, 64
1, 30955, Note_on_c, 0, 83, 0
1, 30960, Note_on_c, 0, 84, 80
1, 31319, Note_on_c, 0, 84, 0
1, 31320, Note_on_c, 0, 81, 64
1, 31430, Note_on_c, 0, 81, 0
1, 31440, Note_on_c, 0, 76, 64
1, 31670, Note_on_c, 0, 76, 0
1, 31680, Note_on_c, 0, 78, 80
1, 32039, Note_on_c, 0, 78, 0
1, 32040, Note_on_c, 0, 74, 64
1, 32150, Note_on_c, 0, 74, 0
1, 32160, Note_on_c, 0, 79, 64
1, 32390, Note_on_c, 0, 79, 0
1, 32400, Note_on_c, 0, 69, 80
1, 32759, Note_on_c, 0, 69, 0
1, 32760, Note_on_c, 0, 71, 64
1, 32870, Note_on_c, 0, 71, 0
1, 32880, Note_on_c, 0, 72, 64
1, 33110, Note_on_c, 0, 72, 0
1, 33120, Note_on_c, 0, 72, 80
1, 33359, Note_on_c, 0, 72, 0
1, 33360, Note_on_c, 0, 71, 80
1, 34200, Note_on_c, 0, 69, 64
1, 34310, Note_on_c, 0, 69, 0
1, 34320, Note_on_c, 0, 67, 64
1, 34430, Note_on_c, 0, 67, 0
1, 34439, Note_on_c, 0, 71, 0
1, 34440, Note_on_c, 0, 66, 64
1, 34550, Note_on_c, 0, 66, 0
1, 34560, Note_on_c, 0, 67, 64
1, 35030, Note_on_c, 0, 67, 0
1, 35040, Note_on_c, 0, 74, 64
1, 35270, Note_on_c, 0, 74, 0
1, 35280, Note_on_c, 0, 79, 64
1, 35335, Note_on_c, 0, 79, 0
1, 35340, Note_on_c, 0, 78, 64
1, 35395, Note_on_c, 0, 78, 0
1, 35400, Note_on_c, 0, 79, 64
1, 36239, Note_on_c, 0, 79, 0
1, 36240, Note_on_c, 0, 81, 64
1, 36350, Note_on_c, 0, 81, 0
1, 36360, Note_on_c, 0, 79, 64
1, 36470, Note_on_c, 0, 79, 0
1, 36480, Note_on_c, 0, 78, 64
1, 36590, Note_on_c, 0, 78, 0
1, 36600, Note_on_c, 0, 76, 64
1, 36710, Note_on_c, 0, 76, 0
1, 36720, Note_on_c, 0, 78, 64
1, 36775, Note_on_c, 0, 78, 0
1, 36780, Note_on_c, 0, 76, 64
1, 36835, Note_on_c, 0, 76, 0
1, 36840, Note_on_c, 0, 78, 64
1, 37799, Note_on_c, 0, 78, 0
1, 37800, Note_on_c, 0, 79, 64
1, 37910, Note_on_c, 0, 79, 0
1, 37920, Note_on_c, 0, 78, 64
1, 38150, Note_on_c, 0, 78, 0
1, 38160, Note_on_c, 0, 76, 80
1, 38519, Note_on_c, 0, 76, 0
1, 38520, Note_on_c, 0, 73, 64
1, 38630, Note_on_c, 0, 73, 0
1, 38640, Note_on_c, 0, 74, 64
1, 38870, Note_on_c, 0, 74, 0
1, 38880, Note_on_c, 0, 74, 64
1, 38935, Note_on_c, 0, 74, 0
1, 38940, Note_on_c, 0, 73, 64
1, 38995, Note_on_c, 0, 73, 0
1, 39000, Note_on_c, 0, 74, 64
1, 39055, Note_on_c, 0, 74, 0
1, 39060, Note_on_c, 0, 73, 64
1, 39115, Note_on_c, 0, 73, 0
1, 39120, Note_on_c, 0, 74, 64
1, 39175, Note_on_c, 0, 74, 0
1, 39180, Note_on_c, 0, 73, 64
1, 39235, Note_on_c, 0, 73, 0
1, 39240, Note_on_c, 0, 74, 64
1, 39350, Note_on_c, 0, 74, 0
1, 39360, Note_on_c, 0, 76, 64
1, 39590, Note_on_c, 0, 76, 0
1, 39600, Note_on_c, 0, 69, 80
1, 40799, Note_on_c, 0, 69, 0
1, 40800, Note_on_c, 0, 71, 64
1, 40855, Note_on_c, 0, 71, 0
1, 40860, Note_on_c, 0, 73, 64
1, 40915, Note_on_c, 0, 73, 0
1, 40920, Note_on_c, 0, 74, 64
1, 40975, Note_on_c, 0, 74, 0
1, 40980, Note_on_c, 0, 76, 64
1, 41035, Note_on_c, 0, 76, 0
1, 41040, Note_on_c, 0, 78, 80
1, 41399, Note_on_c, 0, 78, 0
1, 41400, Note_on_c, 0, 74, 64
1, 41510, Note_on_c, 0, 74, 0
1, 41520, Note_on_c, 0, 69, 64
1, 41750, Note_on_c, 0, 69, 0
1, 41760, Note_on_c, 0, 71, 64
1, 42230, Note_on_c, 0, 71, 0
1, 42240, Note_on_c, 0, 73, 64
1, 42295, Note_on_c, 0, 73, 0
1, 42300, Note_on_c, 0, 74, 64
1, 42355, Note_on_c, 0, 74, 0
1, 42360, Note_on_c, 0, 76, 64
1, 42415, Note_on_c, 0, 76, 0
1, 42420, Note_on_c, 0, 78, 64
1, 42475, Note_on_c, 0, 78, 0
1, 42480, Note_on_c, 0, 79, 80
1, 42839, Note_on_c, 0, 79, 0
1, 42840, Note_on_c, 0, 76, 64
1, 42950, Note_on_c, 0, 76, 0
1, 42960, Note_on_c, 0, 71, 64
1, 43190, Note_on_c, 0, 71, 0
1, 43200, Note_on_c, 0, 71, 80
1, 43439, Note_on_c, 0, 71, 0
1, 43440, Note_on_c, 0, 73, 80
1, 43560, Note_on_c, 0, 69, 64
1, 43670, Note_on_c, 0, 69, 0
1, 43680, Note_on_c, 0, 81, 64
1, 43799, Note_on_c, 0, 73, 0
1, 43910, Note_on_c, 0, 81, 0
1, 43920, Note_on_c, 0, 74, 80
1, 44279, Note_on_c, 0, 74, 0
1, 44280, Note_on_c, 0, 76, 64
1, 44390, Note_on_c, 0, 76, 0
1, 44400, Note_on_c, 0, 73, 64
1, 44630, Note_on_c, 0, 73, 0
1, 44640, Note_on_c, 0, 73, 80
1, 44879, Note_on_c, 0, 73, 0
1, 44880, Note_on_c, 0, 74, 80
1, 46080, Note_on_c, 0, 78, 80
1, 46319, Note_on_c, 0, 74, 0
1, 46439, Note_on_c, 0, 78, 0
1, 46440, Note_on_c, 0, 76, 64
1, 46550, Note_on_c, 0, 76, 0
1, 46560, Note_on_c, 0, 78, 64
1, 46790, Note_on_c, 0, 78, 0
1, 46800, Note_on_c, 0, 69, 80
1, 47159, Note_on_c, 0, 69, 0
1, 47160, Note_on_c, 0, 74, 64
1, 47270, Note_on_c, 0, 74, 0
1, 47280, Note_on_c, 0, 78, 64
1, 47510, Note_on_c, 0, 78, 0
1, 47520, Note_on_c, 0, 79, 80
1, 47879, Note_on_c, 0, 79, 0
1, 47880, Note_on_c, 0, 78, 64
1, 47990, Note_on_c, 0, 78, 0
1, 48000, Note_on_c, 0, 79, 64
1, 48230, Note_on_c, 0, 79, 0
1, 48240, Note_on_c, 0, 83, 80
1, 48959, Note_on_c, 0, 83, 0
1, 48960, Note_on_c, 0, 76, 64
1, 49430, Note_on_c, 0, 76, 0
1, 49440, Note_on_c, 0, 78, 64
1, 49495, Note_on_c, 0, 78, 0
1, 49500, Note_on_c, 0, 79, 64
1, 49555, Note_on_c, 0, 79, 0
1, 49560, Note_on_c, 0, 81, 64
1, 49615, Note_on_c, 0, 81, 0
1, 49620, Note_on_c, 0, 83, 64
1, 49675, Note_on_c, 0, 83, 0
1, 49680, Note_on_c, 0, 84, 64
1, 49790, Note_on_c, 0, 84, 0
1, 49800, Note_on_c, 0, 83, 64
1, 49910, Note_on_c, 0, 83, 0
1, 49920, Note_on_c, 0, 81, 64
1, 50030, Note_on_c, 0, 81, 0
1, 50040, Note_on_c, 0, 79, 64
1, 50150, Note_on_c, 0, 79, 0
1, 50160, Note_on_c, 0, 78, 64
1, 50270, Note_on_c, 0, 78, 0
1, 50280, Note_on_c, 0, 76, 64
1, 50390, Note_on_c, 0, 76, 0
1, 50400, Note_on_c, 0, 76, 64
1, 50455, Note_on_c, 0, 76, 0
1, 50460, Note_on_c, 0, 75, 64
1, 50515, Note_on_c, 0, 75, 0
1, 50520, Note_on_c, 0, 76, 64
1, 50575, Note_on_c, 0, 76, 0
1, 50580, Note_on_c, 0, 75, 64
1, 50635, Note_on_c, 0, 75, 0
1, 50640, Note_on_c, 0, 76, 64
1, 50695, Note_on_c, 0, 76, 0
1, 50700, Note_on_c, 0, 75, 64
1, 50755, Note_on_c, 0, 75, 0
1, 50760, Note_on_c, 0, 73, 64
1, 50870, Note_on_c, 0, 73, 0
1, 50880, Note_on_c, 0, 75, 64
1, 51110, Note_on_c, 0, 75, 0
1, 51120, Note_on_c, 0, 71, 80
1, 52199, Note_on_c, 0, 71, 0
1, 52200, Note_on_c, 0, 83, 80
1, 52559, Note_on_c, 0, 83, 0
1, 52560, Note_on_c, 0, 79, 80
1, 52919, Note_on_c, 0, 79, 0
1, 52920, Note_on_c, 0, 75, 64
1, 53030, Note_on_c, 0, 75, 0
1, 53040, Note_on_c, 0, 76, 64
1, 53270, Note_on_c, 0, 76, 0
1, 53280, Note_on_c, 0, 72, 80
1, 53639, Note_on_c, 0, 72, 0
1, 53640, Note_on_c, 0, 76, 64
1, 53750, Note_on_c, 0, 76, 0
1, 53760, Note_on_c, 0, 80, 64
1, 53990, Note_on_c, 0, 80, 0
1, 54000, Note_on_c, 0, 81, 64
1, 54470, Note_on_c, 0, 81, 0
1, 54480, Note_on_c, 0, 83, 64
1, 54535, Note_on_c, 0, 83, 0
1, 54540, Note_on_c, 0, 81, 64
1, 54595, Note_on_c, 0, 81, 0
1, 54600, Note_on_c, 0, 79, 64
1, 54655, Note_on_c, 0, 79, 0
1, 54660, Note_on_c, 0, 78, 64
1, 54715, Note_on_c, 0, 78, 0
1, 54720, Note_on_c, 0, 79, 80
1, 55079, Note_on_c, 0, 79, 0
1, 55080, Note_on_c, 0, 81, 64
1, 55190, Note_on_c, 0, 81, 0
1, 55200, Note_on_c, 0, 83, 64
1, 55430, Note_on_c, 0, 83, 0
1, 55440, Note_on_c, 0, 76, 80
1, 55799, Note_on_c, 0, 76, 0
1, 55800, Note_on_c, 0, 78, 64
1, 55910, Note_on_c, 0, 78, 0
1, 55920, Note_on_c, 0, 75, 64
1, 56150, Note_on_c, 0, 75, 0
1, 56160, Note_on_c, 0, 76, 80
1, 56519, Note_on_c, 0, 76, 0
1, 56520, Note_on_c, 0, 71, 64
1, 56630, Note_on_c, 0, 71, 0
1, 56640, Note_on_c, 0, 67, 64
1, 56870, Note_on_c, 0, 67, 0
1, 56880, Note_on_c, 0, 64, 64
1, 57350, Note_on_c, 0, 64, 0
1, 57360, Note_on_c, 0, 71, 64
1, 57590, Note_on_c, 0, 71, 0
1, 57600, Note_on_c, 0, 71, 80
1, 57959, Note_on_c, 0, 71, 0
1, 57960, Note_on_c, 0, 68, 64
1, 58070, Note_on_c, 0, 68, 0
1, 58080, Note_on_c, 0, 69, 64
1, 58310, Note_on_c, 0, 69, 0
1, 58320, Note_on_c, 0, 74, 64
1, 58550, Note_on_c, 0, 74, 0
1, 58560, Note_on_c, 0, 76, 64
1, 58670, Note_on_c, 0, 76, 0
1, 58680, Note_on_c, 0, 74, 64
1, 58790, Note_on_c, 0, 74, 0
1, 58800, Note_on_c, 0, 72, 64
1, 58910, Note_on_c, 0, 72, 0
1, 58920, Note_on_c, 0, 71, 64
1, 59030, Note_on_c, 0, 71, 0
1, 59040, Note_on_c, 0, 72, 80
1, 59399, Note_on_c, 0, 72, 0
1, 59400, Note_on_c, 0, 76, 64
1, 59510, Note_on_c, 0, 76, 0
1, 59520, Note_on_c, 0, 74, 64
1, 59750, Note_on_c, 0, 74, 0
1, 59760, Note_on_c, 0, 76, 80
1, 60119, Note_on_c, 0, 76, 0
1, 60120, Note_on_c, 0, 79, 64
1, 60230, Note_on_c, 0, 79, 0
1, 60240, Note_on_c, 0, 78, 64
1, 60470, Note_on_c, 0, 78, 0
1, 60480, Note_on_c, 0, 79, 64
1, 60710, Note_on_c, 0, 79, 0
1, 60720, Note_on_c, 0, 81, 64
1, 60830, Note_on_c, 0, 81, 0
1, 60840, Note_on_c, 0, 79, 64
1, 60950, Note_on_c, 0, 79, 0
1, 60960, Note_on_c, 0, 78, 64
1, 61070, Note_on_c, 0, 78, 0
1, 61080, Note_on_c, 0, 76, 64
1, 61190, Note_on_c, 0, 76, 0
1, 61200, Note_on_c, 0, 81, 80
1, 61559, Note_on_c, 0, 81, 0
1, 61560, Note_on_c, 0, 83, 64
1, 61670, Note_on_c, 0, 83, 0
1, 61680, Note_on_c, 0, 79, 64
1, 61910, Note_on_c, 0, 79, 0
1, 61920, Note_on_c, 0, 79, 64
1, 61975, Note_on_c, 0, 79, 0
1, 61980, Note_on_c, 0, 78, 64
1, 62035, Note_on_c, 0, 78, 0
1, 62040, Note_on_c, 0, 79, 64
1, 62095, Note_on_c, 0, 79, 0
1, 62100, Note_on_c, 0, 78, 64
1, 62155, Note_on_c, 0, 78, 0
1, 62160, Note_on_c, 0, 79, 64
1, 62215, Note_on_c, 0, 79, 0
1, 62220, Note_on_c, 0, 78, 64
1, 62275, Note_on_c, 0, 78, 0
1, 62280, Note_on_c, 0, 76, 64
1, 62390, Note_on_c, 0, 76, 0
1, 62400, Note_on_c, 0, 78, 64
1, 62630, Note_on_c, 0, 78, 0
1, 62640, Note_on_c, 0, 74, 80
1, 63839, Note_on_c, 0, 74, 0
1, 63840, Note_on_c, 0, 76, 64
1, 63895, Note_on_c, 0, 76, 0
1, 63900, Note_on_c, 0, 78, 64
1, 63955, Note_on_c, 0, 78, 0
1, 63960, Note_on_c, 0, 79, 64
1, 64015, Note_on_c, 0, 79, 0
1, 64020, Note_on_c, 0, 81, 64
1, 64075, Note_on_c, 0, 81, 0
1, 64080, Note_on_c, 0, 83, 80
1, 64439, Note_on_c, 0, 83, 0
1, 64440, Note_on_c, 0, 79, 64
1, 64550, Note_on_c, 0, 79, 0
1, 64560, Note_on_c, 0, 74, 64
1, 64790, Note_on_c, 0, 74, 0
1, 64800, Note_on_c, 0, 76, 64
1, 65270, Note_on_c, 0, 76, 0
1, 65280, Note_on_c, 0, 78, 64
1, 65335, Note_on_c, 0, 78, 0
1, 65340, Note_on_c, 0, 79, 64
1, 65395, Note_on_c, 0, 79, 0
1, 65400, Note_on_c, 0, 81, 64
1, 65455, Note_on_c, 0, 81, 0
1, 65460, Note_on_c, 0, 83, 64
1, 65515, Note_on_c, 0, 83, 0
1, 65520, Note_on_c, 0, 84, 80
1, 65879, Note_on_c, 0, 84, 0
1, 65880, Note_on_c, 0, 81, 64
1, 65990, Note_on_c, 0, 81, 0
1, 66000, Note_on_c, 0, 76, 64
1, 66230, Note_on_c, 0, 76, 0
1, 66240, Note_on_c, 0, 78, 80
1, 66599, Note_on_c, 0, 78, 0
1, 66600, Note_on_c, 0, 74, 64
1, 66710, Note_on_c, 0, 74, 0
1, 66720, Note_on_c, 0, 86, 64
1, 66950, Note_on_c, 0, 86, 0
1, 66960, Note_on_c, 0, 79, 80
1, 67319, Note_on_c, 0, 79, 0
1, 67320, Note_on_c, 0, 81, 64
1, 67430, Note_on_c, 0, 81, 0
1, 67440, Note_on_c, 0, 78, 64
1, 67670, Note_on_c, 0, 78, 0
1, 67680, Note_on_c, 0, 79, 80
1, 69119, Note_on_c, 0, 79, 0
1, 69120, Note_on_c, 0, 78, 80
1, 69479, Note_on_c, 0, 78, 0
1, 69480, Note_on_c, 0, 76, 64
1, 69590, Note_on_c, 0, 76, 0
1, 69600, Note_on_c, 0, 78, 64
1, 69830, Note_on_c, 0, 78, 0
1, 69840, Note_on_c, 0, 69, 80
1, 70199, Note_on_c, 0, 69, 0
1, 70200, Note_on_c, 0, 74, 64
1, 70310, Note_on_c, 0, 74, 0
1, 70320, Note_on_c, 0, 78, 64
1, 70550, Note_on_c, 0, 78, 0
1, 70560, Note_on_c, 0, 79, 80
1, 70919, Note_on_c, 0, 79, 0
1, 70920, Note_on_c, 0, 78, 64
1, 71030, Note_on_c, 0, 78, 0
1, 71040, Note_on_c, 0, 79, 64
1, 71270, Note_on_c, 0, 79, 0
1, 71280, Note_on_c, 0, 83, 80
1, 71999, Note_on_c, 0, 83, 0
1, 72000, Note_on_c, 0, 76, 64
1, 72470, Note_on_c, 0, 76, 0
1, 72480, Note_on_c, 0, 78, 64
1, 72535, Note_on_c, 0, 78, 0
1, 72540, Note_on_c, 0, 79, 64
1, 72595, Note_on_c, 0, 79, 0
1, 72600, Note_on_c, 0, 81, 64
1, 72655, Note_on_c, 0, 81, 0
1, 72660, Note_on_c, 0, 83, 64
1, 72715, Note_on_c, 0, 83, 0
1, 72720, Note_on_c, 0, 84, 64
1, 72830, Note_on_c, 0, 84, 0
1, 72840, Note_on_c, 0, 83, 64
1, 72950, Note_on_c, 0, 83, 0
1, 72960, Note_on_c, 0, 81, 64
1, 73070, Note_on_c, 0, 81, 0
1, 73080, Note_on_c, 0, 79, 64
1, 73190, Note_on_c, 0, 79, 0
1, 73200, Note_on_c, 0, 78, 64
1, 73310, Note_on_c, 0, 78, 0
1, 73320, Note_on_c, 0, 76, 64
1, 73430, Note_on_c, 0, 76, 0
1, 73440, Note_on_c, 0, 76, 64
1, 73495, Note_on_c, 0, 76, 0
1, 73500, Note_on_c, 0, 75, 64
1, 73555, Note_on_c, 0, 75, 0
1, 73560, Note_on_c, 0, 76, 64
1, 73615, Note_on_c, 0, 76, 0
1, 73620, Note_on_c, 0, 75, 64
1, 73675, Note_on_c, 0, 75, 0
1, 73680, Note_on_c, 0, 76, 64
1, 73735, Note_on_c, 0, 76, 0
1, 73740, Note_on_c, 0, 75, 64
1, 73795, Note_on_c, 0, 75, 0
1, 73800, Note_on_c, 0, 73, 64
1, 73910, Note_on_c, 0, 73, 0
1, 73920, Note_on_c, 0, 75, 64
1, 74150, Note_on_c, 0, 75, 0
1, 74160, Note_on_c, 0, 71, 80
1, 75239, Note_on_c, 0, 71, 0
1, 75240, Note_on_c, 0, 83, 80
1, 75599, Note_on_c, 0, 83, 0
1, 75600, Note_on_c, 0, 79, 80
1, 75959, Note_on_c, 0, 79, 0
1, 75960, Note_on_c, 0, 75, 64
1, 76070, Note_on_c, 0, 75, 0
1, 76080, Note_on_c, 0, 76, 64
1, 76310, Note_on_c, 0, 76, 0
1, 76320, Note_on_c, 0, 72, 80
1, 76679, Note_on_c, 0, 72, 0
1, 76680, Note_on_c, 0, 76, 64
1, 76790, Note_on_c, 0, 76, 0
1, 76800, Note_on_c, 0, 80, 64
1, 77030, Note_on_c, 0, 80, 0
1, 77040, Note_on_c, 0, 81, 64
1, 77510, Note_on_c, 0, 81, 0
1, 77520, Note_on_c, 0, 83, 64
1, 77575, Note_on_c, 0, 83, 0
1, 77580, Note_on_c, 0, 81, 64
1, 77635, Note_on_c, 0, 81, 0
1, 77640, Note_on_c, 0, 79, 64
1, 77695, Note_on_c, 0, 79, 0
1, 77700, Note_on_c, 0, 78, 64
1, 77755, Note_on_c, 0, 78, 0
1, 77760, Note_on_c, 0, 79, 80
1, 78119, Note_on_c, 0, 79, 0
1, 78120, Note_on_c, 0, 81, 64
1, 78230, Note_on_c, 0, 81, 0
1, 78240, Note_on_c, 0, 83, 64
1, 78470, Note_on_c, 0, 83, 0
1, 78480, Note_on_c, 0, 76, 80
1, 78839, Note_on_c, 0, 76, 0
1, 78840, Note_on_c, 0, 78, 64
1, 78950, Note_on_c, 0, 78, 0
1, 78960, Note_on_c, 0, 75, 64
1, 79190, Note_on_c, 0, 75, 0
1, 79200, Note_on_c, 0, 76, 80
1, 79559, Note_on_c, 0, 76, 0
1, 79560, Note_on_c, 0, 71, 64
1, 79670, Note_on_c, 0, 71, 0
1, 79680, Note_on_c, 0, 67, 64
1, 79910, Note_on_c, 0, 67, 0
1, 79920, Note_on_c, 0, 64, 64
1, 80390, Note_on_c, 0, 64, 0
1, 80400, Note_on_c, 0, 71, 64
1, 80630, Note_on_c, 0, 71, 0
1, 80640, Note_on_c, 0, 71, 80
1, 80999, Note_on_c, 0, 71, 0
1, 81000, Note_on_c, 0, 68, 64
1, 81110, Note_on_c, 0, 68, 0
1, 81120, Note_on_c, 0, 69, 64
1, 81350, Note_on_c, 0, 69, 0
1, 81360, Note_on_c, 0, 74, 64
1, 81590, Note_on_c, 0, 74, 0
1, 81600, Note_on_c, 0, 76, 64
1, 81710, Note_on_c, 0, 76, 0
1, 81720, Note_on_c, 0, 74, 64
1, 81830, Note_on_c, 0, 74, 0
1, 81840, Note_on_c, 0, 72, 64
1, 81950, Note_on_c, 0, 72, 0
1, 81960, Note_on_c, 0, 71, 64
1, 82070, Note_on_c, 0, 71, 0
1, 82080, Note_on_c, 0, 72, 80
1, 82439, Note_on_c, 0, 72, 0
1, 82440, Note_on_c, 0, 76, 64
1, 82550, Note_on_c, 0, 76, 0
1, 82560, Note_on_c, 0, 74, 64
1, 82790, Note_on_c, 0, 74, 0
1, 82800, Note_on_c, 0, 76, 80
1, 83159, Note_on_c, 0, 76, 0
1, 83160, Note_on_c, 0, 79, 64
1, 83270, Note_on_c, 0, 79, 0
1, 83280, Note_on_c, 0, 78, 64
1, 83510, Note_on_c, 0, 78, 0
1, 83520, Note_on_c, 0, 79, 64
1, 83750, Note_on_c, 0, 79, 0
1, 83760, Note_on_c, 0, 81, 64
1, 83870, Note_on_c, 0, 81, 0
1, 83880, Note_on_c, 0, 79, 64
1, 83990, Note_on_c, 0, 79, 0
1, 84000, Note_on_c, 0, 78, 64
1, 84110, Note_on_c, 0, 78, 0
1, 84120, Note_on_c, 0, 76, 64
1, 84230, Note_on_c, 0, 76, 0
1, 84240, Note_on_c, 0, 81, 80
1, 84599, Note_on_c, 0, 81, 0
1, 84600, Note_on_c, 0, 83, 64
1, 84710, Note_on_c, 0, 83, 0
1, 84720, Note_on_c, 0, 79, 64
1, 84950, Note_on_c, 0, 79, 0
1, 84960, Note_on_c, 0, 79, 64
1, 85015, Note_on_c, 0, 79, 0
1, 85020, Note_on_c, 0, 78, 64
1, 85075, Note_on_c, 0, 78, 0
1, 85080, Note_on_c, 0, 79, 64
1, 85135, Note_on_c, 0, 79, 0
1, 85140, Note_on_c, 0, 78, 64
1, 85195, Note_on_c, 0, 78, 0
1, 85200, Note_on_c, 0, 79, 64
1, 85255, Note_on_c, 0, 79, 0
1, 85260, Note_on_c, 0, 78, 64
1, 85315, Note_on_c, 0, 78, 0
1, 85320, Note_on_c, 0, 76, 64
1, 85430, Note_on_c, 0, 76, 0
1, 85440, Note_on_c, 0, 78, 64
1, 85670, Note_on_c, 0, 78, 0
1, 85680, Note_on_c, 0, 74, 80
1, 86879, Note_on_c, 0, 74, 0
1, 86880, Note_on_c, 0, 76, 64
1, 86935, Note_on_c, 0, 76, 0
1, 86940, Note_on_c, 0, 78, 64
1, 86995, Note_on_c, 0, 78, 0
1, 87000, Note_on_c, 0, 79, 64
1, 87055, Note_on_c, 0, 79, 0
1, 87060, Note_on_c, 0, 81, 64
1, 87115, Note_on_c, 0, 81, 0
1, 87120, Note_on_c, 0, 83, 80
1, 87479, Note_on_c, 0, 83, 0
1, 87480, Note_on_c, 0, 79, 64
1, 87590, Note_on_c, 0, 79, 0
1, 87600, Note_on_c, 0, 74, 64
1, 87830, Note_on_c, 0, 74, 0
1, 87840, Note_on_c, 0, 76, 64
1, 88310, Note_on_c, 0, 76, 0
1, 88320, Note_on_c, 0, 78, 64
1, 88375, Note_on_c, 0, 78, 0
1, 88380, Note_on_c, 0, 79, 64
1, 88435, Note_on_c, 0, 79, 0
1, 88440, Note_on_c, 0, 81, 64
1, 88495, Note_on_c, 0, 81, 0
1, 88500, Note_on_c, 0, 83, 64
1, 88555, Note_on_c, 0, 83, 0
1, 88560, Note_on_c, 0, 84, 80
1, 88919, Note_on_c, 0, 84, 0
1, 88920, Note_on_c, 0, 81, 64
1, 89030, Note_on_c, 0, 81, 0
1, 89040, Note_on_c, 0, 76, 64
1, 89270, Note_on_c, 0, 76, 0
1, 89280, Note_on_c, 0, 78, 80
1, 89639, Note_on_c, 0, 78, 0
1, 89640, Note_on_c, 0, 74, 64
1, 89750, Note_on_c, 0, 74, 0
1, 89760, Note_on_c, 0, 86, 64
1, 89990, Note_on_c, 0, 86, 0
1, 90000, Note_on_c, 0, 79, 80
1, 90359, Note_on_c, 0, 79, 0
1, 90360, Note_on_c, 0, 81, 64
1, 90470, Note_on_c, 0, 81, 0
1, 90480, Note_on_c, 0, 78, 64
1, 90710, Note_on_c, 0, 78, 0
1, 90720, Note_on_c, 0, 79, 80
1, 92159, Note_on_c, 0, 79, 0
1, 92160, End_track
2, 0, Start_track
2, 0, Key_signature, 1, "major"
2, 0, Note_on_c, 0, 55, 64
2, 55, Note_on_c, 0, 55, 0
2, 60, Note_on_c, 0, 54, 64
2, 115, Note_on_c, 0, 54, 0
2, 120, Note_on_c, 0, 55, 80
2, 479, Note_on_c, 0, 55, 0
2, 480, Note_on_c, 0, 43, 64
2, 710, Note_on_c, 0, 43, 0
2, 720, Note_on_c, 0, 55, 64
2, 775, Note_on_c, 0, 55, 0
2, 780, Note_on_c, 0, 54, 64
2, 835, Note_on_c, 0, 54, 0
2, 840, Note_on_c, 0, 55, 64
2, 2159, Note_on_c, 0, 55, 0
2, 2160, Note_on_c, 0, 55, 64
2, 2215, Note_on_c, 0, 55, 0
2, 2220, Note_on_c, 0, 54, 64
2, 2275, Note_on_c, 0, 54, 0
2, 2280, Note_on_c, 0, 55, 64
2, 2335, Note_on_c, 0, 55, 0
2, 2340, Note_on_c, 0, 54, 64
2, 2395, Note_on_c, 0, 54, 0
2, 2400, Note_on_c, 0, 55, 64
2, 2455, Note_on_c, 0, 55, 0
2, 2460, Note_on_c, 0, 54, 64
2, 2515, Note_on_c, 0, 54, 0
2, 2520, Note_on_c, 0, 52, 64
2, 2630, Note_on_c, 0, 52, 0
2, 2640, Note_on_c, 0, 50, 64
2, 2870, Note_on_c, 0, 50, 0
2, 2880, Note_on_c, 0, 52, 64
2, 3350, Note_on_c, 0, 52, 0
2, 3360, Note_on_c, 0, 62, 64
2, 3590, Note_on_c, 0, 62, 0
2, 3600, Note_on_c, 0, 61, 64
2, 4070, Note_on_c, 0, 61, 0
2, 4080, Note_on_c, 0, 57, 64
2, 4310, Note_on_c, 0, 57, 0
2, 4320, Note_on_c, 0, 62, 80
2, 5399, Note_on_c, 0, 62, 0
2, 5400, Note_on_c, 0, 64, 64
2, 5510, Note_on_c, 0, 64, 0
2, 5520, Note_on_c, 0, 60, 64
2, 5750, Note_on_c, 0, 60, 0
2, 5760, Note_on_c, 0, 59, 80
2, 6119, Note_on_c, 0, 59, 0
2, 6120, Note_on_c, 0, 60, 64
2, 6230, Note_on_c, 0, 60, 0
2, 6240, Note_on_c, 0, 57, 64
2, 6470, Note_on_c, 0, 57, 0
2, 6480, Note_on_c, 0, 55, 80
2, 6839, Note_on_c, 0, 55, 0
2, 6840, Note_on_c, 0, 57, 64
2, 6950, Note_on_c, 0, 57, 0
2, 6960, Note_on_c, 0, 59, 64
2, 7190, Note_on_c, 0, 59, 0
2, 7200, Note_on_c, 0, 60, 80
2, 7559, Note_on_c, 0, 60, 0
2, 7560, Note_on_c, 0, 62, 64
2, 7670, Note_on_c, 0, 62, 0
2, 7680, Note_on_c, 0, 59, 64
2, 7910, Note_on_c, 0, 59, 0
2, 7920, Note_on_c, 0, 57, 80
2, 8279, Note_on_c, 0, 57, 0
2, 8280, Note_on_c, 0, 59, 64
2, 8390, Note_on_c, 0, 59, 0
2, 8400, Note_on_c, 0, 60, 64
2, 8630, Note_on_c, 0, 60, 0
2, 8640, Note_on_c, 0, 62, 80
2, 8999, Note_on_c, 0, 62, 0
2, 9000, Note_on_c, 0, 60, 64
2, 9110, Note_on_c, 0, 60, 0
2, 9120, Note_on_c, 0, 59, 64
2, 9350, Note_on_c, 0, 59, 0
2, 9360, Note_on_c, 0, 60, 64
2, 9830, Note_on_c, 0, 60, 0
2, 9840, Note_on_c, 0, 62, 64
2, 10070, Note_on_c, 0, 62, 0
2, 10080, Note_on_c, 0, 55, 80
2, 10439, Note_on_c, 0, 55, 0
2, 10440, Note_on_c, 0, 54, 64
2, 10550, Note_on_c, 0, 54, 0
2, 10560, Note_on_c, 0, 55, 64
2, 10790, Note_on_c, 0, 55, 0
2, 10800, Note_on_c, 0, 50, 80
2, 11159, Note_on_c, 0, 50, 0
2, 11160, Note_on_c, 0, 57, 64
2, 11270, Note_on_c, 0, 57, 0
2, 11280, Note_on_c, 0, 60, 64
2, 11510, Note_on_c, 0, 60, 0
2, 11520, Note_on_c, 0, 59, 64
2, 11575, Note_on_c, 0, 59, 0
2, 11580, Note_on_c, 0, 60, 64
2, 11635, Note_on_c, 0, 60, 0
2, 11640, Note_on_c, 0, 59, 64
2, 11870, Note_on_c, 0, 59, 0
2, 11880, Note_on_c, 0, 57, 64
2, 11990, Note_on_c, 0, 57, 0
2, 12000, Note_on_c, 0, 59, 64
2, 12230, Note_on_c, 0, 59, 0
2, 12240, Note_on_c, 0, 52, 80
2, 12599, Note_on_c, 0, 52, 0
2, 12600, Note_on_c, 0, 59, 64
2, 12710, Note_on_c, 0, 59, 0
2, 12720, Note_on_c, 0, 62, 64
2, 12950, Note_on_c, 0, 62, 0
2, 12960, Note_on_c, 0, 62, 64
2, 13015, Note_on_c, 0, 62, 0
2, 13020, Note_on_c, 0, 61, 64
2, 13075, Note_on_c, 0, 61, 0
2, 13080, Note_on_c, 0, 62, 64
2, 13135, Note_on_c, 0, 62, 0
2, 13140, Note_on_c, 0, 61, 64
2, 13195, Note_on_c, 0, 61, 0
2, 13200, Note_on_c, 0, 62, 64
2, 13255, Note_on_c, 0, 62, 0
2, 13260, Note_on_c, 0, 61, 64
2, 13315, Note_on_c, 0, 61, 0
2, 13320, Note_on_c, 0, 59, 64
2, 13430, Note_on_c, 0, 59, 0
2, 13440, Note_on_c, 0, 57, 64
2, 13670, Note_on_c, 0, 57, 0
2, 13680, Note_on_c, 0, 62, 80
2, 14039, Note_on_c, 0, 62, 0
2, 14040, Note_on_c, 0, 61, 64
2, 14150, Note_on_c, 0, 61, 0
2, 14160, Note_on_c, 0, 62, 64
2, 14390, Note_on_c, 0, 62, 0
2, 14400, Note_on_c, 0, 55, 80
2, 14759, Note_on_c, 0, 55, 0
2, 14760, Note_on_c, 0, 59, 64
2, 14870, Note_on_c, 0, 59, 0
2, 14880, Note_on_c, 0, 62, 64
2, 15110, Note_on_c, 0, 62, 0
2, 15120, Note_on_c, 0, 67, 80
2, 16079, Note_on_c, 0, 67, 0
2, 16080, Note_on_c, 0, 69, 64
2, 16190, Note_on_c, 0, 69, 0
2, 16200, Note_on_c, 0, 67, 64
2, 16310, Note_on_c, 0, 67, 0
2, 16320, Note_on_c, 0, 66, 64
2, 16430, Note_on_c, 0, 66, 0
2, 16440, Note_on_c, 0, 64, 64
2, 16550, Note_on_c, 0, 64, 0
2, 16560, Note_on_c, 0, 66, 80
2, 16919, Note_on_c, 0, 66, 0
2, 16920, Note_on_c, 0, 67, 64
2, 17030, Note_on_c, 0, 67, 0
2, 17040, Note_on_c, 0, 69, 64
2, 17270, Note_on_c, 0, 69, 0
2, 17280, Note_on_c, 0, 62, 80
2, 17639, Note_on_c, 0, 62, 0
2, 17640, Note_on_c, 0, 57, 64
2, 17750, Note_on_c, 0, 57, 0
2, 17760, Note_on_c, 0, 54, 64
2, 17990, Note_on_c, 0, 54, 0
2, 18000, Note_on_c, 0, 50, 80
2, 18359, Note_on_c, 0, 50, 0
2, 18360, Note_on_c, 0, 52, 64
2, 18470, Note_on_c, 0, 52, 0
2, 18480, Note_on_c, 0, 54, 64
2, 18710, Note_on_c, 0, 54, 0
2, 18720, Note_on_c, 0, 55, 80
2, 19079, Note_on_c, 0, 55, 0
2, 19080, Note_on_c, 0, 57, 64
2, 19190, Note_on_c, 0, 57, 0
2, 19200, Note_on_c, 0, 54, 64
2, 19430, Note_on_c, 0, 54, 0
2, 19440, Note_on_c, 0, 52, 80
2, 19799, Note_on_c, 0, 52, 0
2, 19800, Note_on_c, 0, 54, 64
2, 19910, Note_on_c, 0, 54, 0
2, 19920, Note_on_c, 0, 55, 64
2, 20150, Note_on_c, 0, 55, 0
2, 20160, Note_on_c, 0, 57, 80
2, 20519, Note_on_c, 0, 57, 0
2, 20520, Note_on_c, 0, 55, 64
2, 20630, Note_on_c, 0, 55, 0
2, 20640, Note_on_c, 0, 54, 64
2, 20870, Note_on_c, 0, 54, 0
2, 20880, Note_on_c, 0, 59, 80
2, 21239, Note_on_c, 0, 59, 0
2, 21240, Note_on_c, 0, 55, 64
2, 21350, Note_on_c, 0, 55, 0
2, 21360, Note_on_c, 0, 57, 64
2, 21590, Note_on_c, 0, 57, 0
2, 21600, Note_on_c, 0, 50, 80
2, 21959, Note_on_c, 0, 50, 0
2, 21960, Note_on_c, 0, 54, 64
2, 22070, Note_on_c, 0, 54, 0
2, 22080, Note_on_c, 0, 57, 64
2, 22310, Note_on_c, 0, 57, 0
2, 22320, Note_on_c, 0, 62, 80
2, 23039, Note_on_c, 0, 62, 0
2, 23040, Note_on_c, 0, 55, 64
2, 23095, Note_on_c, 0, 55, 0
2, 23100, Note_on_c, 0, 54, 64
2, 23155, Note_on_c, 0, 54, 0
2, 23160, Note_on_c, 0, 55, 80
2, 23519, Note_on_c, 0, 55, 0
2, 23520, Note_on_c, 0, 43, 64
2, 23750, Note_on_c, 0, 43, 0
2, 23760, Note_on_c, 0, 55, 64
2, 23815, Note_on_c, 0, 55, 0
2, 23820, Note_on_c, 0, 54, 64
2, 23875, Note_on_c, 0, 54, 0
2, 23880, Note_on_c, 0, 55, 64
2, 25199, Note_on_c, 0, 55, 0
2, 25200, Note_on_c, 0, 55, 64
2, 25255, Note_on_c, 0, 55, 0
2, 25260, Note_on_c, 0, 54, 64
2, 25315, Note_on_c, 0, 54, 0
2, 25320, Note_on_c, 0, 55, 64
2, 25375, Note_on_c, 0, 55, 0
2, 25380, Note_on_c, 0, 54, 64
2, 25435, Note_on_c, 0, 54, 0
2, 25440, Note_on_c, 0, 55, 64
2, 25495, Note_on_c, 0, 55, 0
2, 25500, Note_on_c, 0, 54, 64
2, 25555, Note_on_c, 0, 54, 0
2, 25560, Note_on_c, 0, 52, 64
2, 25670, Note_on_c, 0, 52, 0
2, 25680, Note_on_c, 0, 50, 64
2, 25910, Note_on_c, 0, 50, 0
2, 25920, Note_on_c, 0, 52, 64
2, 26390, Note_on_c, 0, 52, 0
2, 26400, Note_on_c, 0, 62, 64
2, 26630, Note_on_c, 0, 62, 0
2, 26640, Note_on_c, 0, 61, 64
2, 27110, Note_on_c, 0, 61, 0
2, 27120, Note_on_c, 0, 57, 64
2, 27350, Note_on_c, 0, 57, 0
2, 27360, Note_on_c, 0, 62, 80
2, 28439, Note_on_c, 0, 62, 0
2, 28440, Note_on_c, 0, 64, 64
2, 28550, Note_on_c, 0, 64, 0
2, 28560, Note_on_c, 0, 60, 64
2, 28790, Note_on_c, 0, 60, 0
2, 28800, Note_on_c, 0, 59, 80
2, 29159, Note_on_c, 0, 59, 0
2, 29160, Note_on_c, 0, 60, 64
2, 29270, Note_on_c, 0, 60, 0
2, 29280, Note_on_c, 0, 57, 64
2, 29510, Note_on_c, 0, 57, 0
2, 29520, Note_on_c, 0, 55, 80
2, 29879, Note_on_c, 0, 55, 0
2, 29880, Note_on_c, 0, 57, 64
2, 29990, Note_on_c, 0, 57, 0
2, 30000, Note_on_c, 0, 59, 64
2, 30230, Note_on_c, 0, 59, 0
2, 30240, Note_on_c, 0, 60, 80
2, 30599, Note_on_c, 0, 60, 0
2, 30600, Note_on_c, 0, 62, 64
2, 30710, Note_on_c, 0, 62, 0
2, 30720, Note_on_c, 0, 59, 64
2, 30950, Note_on_c, 0, 59, 0
2, 30960, Note_on_c, 0, 57, 80
2, 31319, Note_on_c, 0, 57, 0
2, 31320, Note_on_c, 0, 59, 64
2, 31430, Note_on_c, 0, 59, 0
2, 31440, Note_on_c, 0, 60, 64
2, 31670, Note_on_c, 0, 60, 0
2, 31680, Note_on_c, 0, 62, 80
2, 32039, Note_on_c, 0, 62, 0
2, 32040, Note_on_c, 0, 60, 64
2, 32150, Note_on_c, 0, 60, 0
2, 32160, Note_on_c, 0, 59, 64
2, 32390, Note_on_c, 0, 59, 0
2, 32400, Note_on_c, 0, 60, 64
2, 32870, Note_on_c, 0, 60, 0
2, 32880, Note_on_c, 0, 62, 64
2, 33110, Note_on_c, 0, 62, 0
2, 33120, Note_on_c, 0, 55, 80
2, 33479, Note_on_c, 0, 55, 0
2, 33480, Note_on_c, 0, 54, 64
2, 33590, Note_on_c, 0, 54, 0
2, 33600, Note_on_c, 0, 55, 64
2, 33830, Note_on_c, 0, 55, 0
2, 33840, Note_on_c, 0, 50, 80
2, 34199, Note_on_c, 0, 50, 0
2, 34200, Note_on_c, 0, 57, 64
2, 34310, Note_on_c, 0, 57, 0
2, 34320, Note_on_c, 0, 60, 64
2, 34550, Note_on_c, 0, 60, 0
2, 34560, Note_on_c, 0, 59, 64
2, 34615, Note_on_c, 0, 59, 0
2, 34620, Note_on_c, 0, 60, 64
2, 34675, Note_on_c, 0, 60, 0
2, 34680, Note_on_c, 0, 59, 64
2, 34910, Note_on_c, 0, 59, 0
2, 34920, Note_on_c, 0, 57, 64
2, 35030, Note_on_c, 0, 57, 0
2, 35040, Note_on_c, 0, 59, 64
2, 35270, Note_on_c, 0, 59, 0
2, 35280, Note_on_c, 0, 52, 80
2, 35639, Note_on_c, 0, 52, 0
2, 35640, Note_on_c, 0, 59, 64
2, 35750, Note_on_c, 0, 59, 0
2, 35760, Note_on_c, 0, 62, 64
2, 35990, Note_on_c, 0, 62, 0
2, 36000, Note_on_c, 0, 62, 64
2, 36055, Note_on_c, 0, 62, 0
2, 36060, Note_on_c, 0, 61, 64
2, 36115, Note_on_c, 0, 61, 0
2, 36120, Note_on_c, 0, 62, 64
2, 36175, Note_on_c, 0, 62, 0
2, 36180, Note_on_c, 0, 61, 64
2, 36235, Note_on_c, 0, 61, 0
2, 36240, Note_on_c, 0, 62, 64
2, 36295, Note_on_c, 0, 62, 0
2, 36300, Note_on_c, 0, 61, 64
2, 36355, Note_on_c, 0, 61, 0
2, 36360, Note_on_c, 0, 59, 64
2, 36470, Note_on_c, 0, 59, 0
2, 36480, Note_on_c, 0, 57, 64
2, 36710, Note_on_c, 0, 57, 0
2, 36720, Note_on_c, 0, 62, 80
2, 37079, Note_on_c, 0, 62, 0
2, 37080, Note_on_c, 0, 61, 64
2, 37190, Note_on_c, 0, 61, 0
2, 37200, Note_on_c, 0, 62, 64
2, 37430, Note_on_c, 0, 62, 0
2, 37440, Note_on_c, 0, 55, 80
2, 37799, Note_on_c, 0, 55, 0
2, 37800, Note_on_c, 0, 59, 64
2, 37910, Note_on_c, 0, 59, 0
2, 37920, Note_on_c, 0, 62, 64
2, 38150, Note_on_c, 0, 62, 0
2, 38160, Note_on_c, 0, 67, 80
2, 39119, Note_on_c, 0, 67, 0
2, 39120, Note_on_c, 0, 69, 64
2, 39230, Note_on_c, 0, 69, 0
2, 39240, Note_on_c, 0, 67, 64
2, 39350, Note_on_c, 0, 67, 0
2, 39360, Note_on_c, 0, 66, 64
2, 39470, Note_on_c, 0, 66, 0
2, 39480, Note_on_c, 0, 64, 64
2, 39590, Note_on_c, 0, 64, 0
2, 39600, Note_on_c, 0, 66, 80
2, 39959, Note_on_c, 0, 66, 0
2, 39960, Note_on_c, 0, 67, 64
2, 40070, Note_on_c, 0, 67, 0
2, 40080, Note_on_c, 0, 69, 64
2, 40310, Note_on_c, 0, 69, 0
2, 40320, Note_on_c, 0, 62, 80
2, 40679, Note_on_c, 0, 62, 0
2, 40680, Note_on_c, 0, 57, 64
2, 40790, Note_on_c, 0, 57, 0
2, 40800, Note_on_c, 0, 54, 64
2, 41030, Note_on_c, 0, 54, 0
2, 41040, Note_on_c, 0, 50, 80
2, 41399, Note_on_c, 0, 50, 0
2, 41400, Note_on_c, 0, 52, 64
2, 41510, Note_on_c, 0, 52, 0
2, 41520, Note_on_c, 0, 54, 64
2, 41750, Note_on_c, 0, 54, 0
2, 41760, Note_on_c, 0, 55, 80
2, 42119, Note_on_c, 0, 55, 0
2, 42120, Note_on_c, 0, 57, 64
2, 42230, Note_on_c, 0, 57, 0
2, 42240, Note_on_c, 0, 54, 64
2, 42470, Note_on_c, 0, 54, 0
2, 42480, Note_on_c, 0, 52, 80
2, 42839, Note_on_c, 0, 52, 0
2, 42840, Note_on_c, 0, 54, 64
2, 42950, Note_on_c, 0, 54, 0
2, 42960, Note_on_c, 0, 55, 64
2, 43190, Note_on_c, 0, 55, 0
2, 43200, Note_on_c, 0, 57, 80
2, 43559, Note_on_c, 0, 57, 0
2, 43560, Note_on_c, 0, 55, 64
2, 43670, Note_on_c, 0, 55, 0
2, 43680, Note_on_c, 0, 54, 64
2, 43910, Note_on_c, 0, 54, 0
2, 43920, Note_on_c, 0, 59, 80
2, 44279, Note_on_c, 0, 59, 0
2, 44280, Note_on_c, 0, 55, 64
2, 44390, Note_on_c, 0, 55, 0
2, 44400, Note_on_c, 0, 57, 64
2, 44630, Note_on_c, 0, 57, 0
2, 44640, Note_on_c, 0, 50, 80
2, 44999, Note_on_c, 0, 50, 0
2, 45000, Note_on_c, 0, 54, 64
2, 45110, Note_on_c, 0, 54, 0
2, 45120, Note_on_c, 0, 57, 64
2, 45350, Note_on_c, 0, 57, 0
2, 45360, Note_on_c, 0, 62, 80
2, 46079, Note_on_c, 0, 62, 0
2, 46080, Note_on_c, 0, 62, 64
2, 46550, Note_on_c, 0, 62, 0
2, 46560, Note_on_c, 0, 50, 64
2, 46790, Note_on_c, 0, 50, 0
2, 46800, Note_on_c, 0, 62, 64
2, 47270, Note_on_c, 0, 62, 0
2, 47280, Note_on_c, 0, 60, 64
2, 47510, Note_on_c, 0, 60, 0
2, 47520, Note_on_c, 0, 60, 64
2, 47575, Note_on_c, 0, 60, 0
2, 47580, Note_on_c, 0, 59, 64
2, 47635, Note_on_c, 0, 59, 0
2, 47640, Note_on_c, 0, 60, 64
2, 47695, Note_on_c, 0, 60, 0
2, 47700, Note_on_c, 0, 59, 64
2, 47755, Note_on_c, 0, 59, 0
2, 47760, Note_on_c, 0, 60, 64
2, 47815, Note_on_c, 0, 60, 0
2, 47820, Note_on_c, 0, 59, 64
2, 47875, Note_on_c, 0, 59, 0
2, 47880, Note_on_c, 0, 57, 64
2, 47990, Note_on_c, 0, 57, 0
2, 48000, Note_on_c, 0, 59, 64
2, 48230, Note_on_c, 0, 59, 0
2, 48240, Note_on_c, 0, 55, 80
2, 48599, Note_on_c, 0, 55, 0
2, 48600, Note_on_c, 0, 57, 64
2, 48710, Note_on_c, 0, 57, 0
2, 48720, Note_on_c, 0, 59, 64
2, 48950, Note_on_c, 0, 59, 0
2, 48960, Note_on_c, 0, 60, 80
2, 49319, Note_on_c, 0, 60, 0
2, 49320, Note_on_c, 0, 62, 64
2, 49430, Note_on_c, 0, 62, 0
2, 49440, Note_on_c, 0, 59, 64
2, 49670, Note_on_c, 0, 59, 0
2, 49680, Note_on_c, 0, 57, 80
2, 50039, Note_on_c, 0, 57, 0
2, 50040, Note_on_c, 0, 59, 64
2, 50150, Note_on_c, 0, 59, 0
2, 50160, Note_on_c, 0, 60, 64
2, 50390, Note_on_c, 0, 60, 0
2, 50400, Note_on_c, 0, 59, 64
2, 50870, Note_on_c, 0, 59, 0
2, 50880, Note_on_c, 0, 47, 64
2, 51110, Note_on_c, 0, 47, 0
2, 51120, Note_on_c, 0, 59, 80
2, 51479, Note_on_c, 0, 59, 0
2, 51480, Note_on_c, 0, 57, 64
2, 51590, Note_on_c, 0, 57, 0
2, 51600, Note_on_c, 0, 59, 64
2, 51830, Note_on_c, 0, 59, 0
2, 51840, Note_on_c, 0, 55, 64
2, 52310, Note_on_c, 0, 55, 0
2, 52320, Note_on_c, 0, 57, 64
2, 52375, Note_on_c, 0, 57, 0
2, 52380, Note_on_c, 0, 59, 64
2, 52435, Note_on_c, 0, 59, 0
2, 52440, Note_on_c, 0, 61, 64
2, 52495, Note_on_c, 0, 61, 0
2, 52500, Note_on_c, 0, 63, 64
2, 52555, Note_on_c, 0, 63, 0
2, 52560, Note_on_c, 0, 64, 80
2, 52919, Note_on_c, 0, 64, 0
2, 52920, Note_on_c, 0, 59, 64
2, 53030, Note_on_c, 0, 59, 0
2, 53040, Note_on_c, 0, 55, 64
2, 53270, Note_on_c, 0, 55, 0
2, 53280, Note_on_c, 0, 57, 64
2, 53750, Note_on_c, 0, 57, 0
2, 53760, Note_on_c, 0, 59, 64
2, 53815, Note_on_c, 0, 59, 0
2, 53820, Note_on_c, 0, 60, 64
2, 53875, Note_on_c, 0, 60, 0
2, 53880, Note_on_c, 0, 62, 64
2, 53935, Note_on_c, 0, 62, 0
2, 53940, Note_on_c, 0, 64, 64
2, 53995, Note_on_c, 0, 64, 0
2, 54000, Note_on_c, 0, 65, 80
2, 54359, Note_on_c, 0, 65, 0
2, 54360, Note_on_c, 0, 64, 64
2, 54470, Note_on_c, 0, 64, 0
2, 54480, Note_on_c, 0, 63, 64
2, 54710, Note_on_c, 0, 63, 0
2, 54720, Note_on_c, 0, 64, 64
2, 55190, Note_on_c, 0, 64, 0
2, 55200, Note_on_c, 0, 55, 64
2, 55430, Note_on_c, 0, 55, 0
2, 55440, Note_on_c, 0, 60, 80
2, 55799, Note_on_c, 0, 60, 0
2, 55800, Note_on_c, 0, 57, 64
2, 55910, Note_on_c, 0, 57, 0
2, 55920, Note_on_c, 0, 59, 64
2, 56150, Note_on_c, 0, 59, 0
2, 56160, Note_on_c, 0, 52, 80
2, 57239, Note_on_c, 0, 52, 0
2, 57240, Note_on_c, 0, 64, 64
2, 57350, Note_on_c, 0, 64, 0
2, 57360, Note_on_c, 0, 62, 64
2, 57590, Note_on_c, 0, 62, 0
2, 57600, Note_on_c, 0, 62, 64
2, 57655, Note_on_c, 0, 62, 0
2, 57660, Note_on_c, 0, 60, 64
2, 57715, Note_on_c, 0, 60, 0
2, 57720, Note_on_c, 0, 62, 64
2, 57775, Note_on_c, 0, 62, 0
2, 57780, Note_on_c, 0, 60, 64
2, 57835, Note_on_c, 0, 60, 0
2, 57840, Note_on_c, 0, 62, 64
2, 57895, Note_on_c, 0, 62, 0
2, 57900, Note_on_c, 0, 60, 64
2, 57955, Note_on_c, 0, 60, 0
2, 57960, Note_on_c, 0, 59, 64
2, 58070, Note_on_c, 0, 59, 0
2, 58080, Note_on_c, 0, 60, 64
2, 58310, Note_on_c, 0, 60, 0
2, 58320, Note_on_c, 0, 56, 80
2, 58679, Note_on_c, 0, 56, 0
2, 58680, Note_on_c, 0, 59, 64
2, 58790, Note_on_c, 0, 59, 0
2, 58800, Note_on_c, 0, 52, 64
2, 59030, Note_on_c, 0, 52, 0
2, 59040, Note_on_c, 0, 57, 80
2, 59399, Note_on_c, 0, 57, 0
2, 59400, Note_on_c, 0, 60, 64
2, 59510, Note_on_c, 0, 60, 0
2, 59520, Note_on_c, 0, 59, 64
2, 59750, Note_on_c, 0, 59, 0
2, 59760, Note_on_c, 0, 60, 80
2, 60119, Note_on_c, 0, 60, 0
2, 60120, Note_on_c, 0, 59, 64
2, 60230, Note_on_c, 0, 59, 0
2, 60240, Note_on_c, 0, 57, 64
2, 60470, Note_on_c, 0, 57, 0
2, 60480, Note_on_c, 0, 59, 80
2, 60839, Note_on_c, 0, 59, 0
2, 60840, Note_on_c, 0, 64, 64
2, 60950, Note_on_c, 0, 64, 0
2, 60960, Note_on_c, 0, 62, 64
2, 61190, Note_on_c, 0, 62, 0
2, 61200, Note_on_c, 0, 62, 64
2, 61255, Note_on_c, 0, 62, 0
2, 61260, Note_on_c, 0, 61, 64
2, 61315, Note_on_c, 0, 61, 0
2, 61320, Note_on_c, 0, 62, 64
2, 61375, Note_on_c, 0, 62, 0
2, 61380, Note_on_c, 0, 61, 64
2, 61435, Note_on_c, 0, 61, 0
2, 61440, Note_on_c, 0, 62, 64
2, 61495, Note_on_c, 0, 62, 0
2, 61500, Note_on_c, 0, 61, 64
2, 61555, Note_on_c, 0, 61, 0
2, 61560, Note_on_c, 0, 59, 64
2, 61670, Note_on_c, 0, 59, 0
2, 61680, Note_on_c, 0, 61, 64
2, 61910, Note_on_c, 0, 61, 0
2, 61920, Note_on_c, 0, 62, 80
2, 62999, Note_on_c, 0, 62, 0
2, 63000, Note_on_c, 0, 64, 64
2, 63110, Note_on_c, 0, 64, 0
2, 63120, Note_on_c, 0, 60, 64
2, 63350, Note_on_c, 0, 60, 0
2, 63360, Note_on_c, 0, 59, 80
2, 63719, Note_on_c, 0, 59, 0
2, 63720, Note_on_c, 0, 60, 64
2, 63830, Note_on_c, 0, 60, 0
2, 63840, Note_on_c, 0, 57, 64
2, 64070, Note_on_c, 0, 57, 0
2, 64080, Note_on_c, 0, 55, 80
2, 64439, Note_on_c, 0, 55, 0
2, 64440, Note_on_c, 0, 57, 64
2, 64550, Note_on_c, 0, 57, 0
2, 64560, Note_on_c, 0, 59, 64
2, 64790, Note_on_c, 0, 59, 0
2, 64800, Note_on_c, 0, 60, 80
2, 65159, Note_on_c, 0, 60, 0
2, 65160, Note_on_c, 0, 62, 64
2, 65270, Note_on_c, 0, 62, 0
2, 65280, Note_on_c, 0, 59, 64
2, 65510, Note_on_c, 0, 59, 0
2, 65520, Note_on_c, 0, 57, 80
2, 65879, Note_on_c, 0, 57, 0
2, 65880, Note_on_c, 0, 59, 64
2, 65990, Note_on_c, 0, 59, 0
2, 66000, Note_on_c, 0, 60, 64
2, 66230, Note_on_c, 0, 60, 0
2, 66240, Note_on_c, 0, 62, 80
2, 66599, Note_on_c, 0, 62, 0
2, 66600, Note_on_c, 0, 60, 64
2, 66710, Note_on_c, 0, 60, 0
2, 66720, Note_on_c, 0, 59, 64
2, 66950, Note_on_c, 0, 59, 0
2, 66960, Note_on_c, 0, 64, 80
2, 67319, Note_on_c, 0, 64, 0
2, 67320, Note_on_c, 0, 60, 64
2, 67430, Note_on_c, 0, 60, 0
2, 67440, Note_on_c, 0, 62, 64
2, 67670, Note_on_c, 0, 62, 0
2, 67680, Note_on_c, 0, 55, 80
2, 68039, Note_on_c, 0, 55, 0
2, 68040, Note_on_c, 0, 50, 64
2, 68150, Note_on_c, 0, 50, 0
2, 68160, Note_on_c, 0, 47, 64
2, 68390, Note_on_c, 0, 47, 0
2, 68400, Note_on_c, 0, 43, 80
2, 69119, Note_on_c, 0, 43, 0
2, 69120, Note_on_c, 0, 62, 64
2, 69590, Note_on_c, 0, 62, 0
2, 69600, Note_on_c, 0, 50, 64
2, 69830, Note_on_c, 0, 50, 0
2, 69840, Note_on_c, 0, 62, 64
2, 70310, Note_on_c, 0, 62, 0
2, 70320, Note_on_c, 0, 60, 64
2, 70550, Note_on_c, 0, 60, 0
2, 70560, Note_on_c, 0, 60, 64
2, 70615, Note_on_c, 0, 60, 0
2, 70620, Note_on_c, 0, 59, 64
2, 70675, Note_on_c, 0, 59, 0
2, 70680, Note_on_c, 0, 60, 64
2, 70735, Note_on_c, 0, 60, 0
2, 70740, Note_on_c, 0, 59, 64
2, 70795, Note_on_c, 0, 59, 0
2, 70800, Note_on_c, 0, 60, 64
2, 70855, Note_on_c, 0, 60, 0
2, 70860, Note_on_c, 0, 59, 64
2, 70915, Note_on_c, 0, 59, 0
2, 70920, Note_on_c, 0, 57, 64
2, 71030, Note_on_c, 0, 57, 0
2, 71040, Note_on_c, 0, 59, 64
2, 71270, Note_on_c, 0, 59, 0
2, 71280, Note_on_c, 0, 55, 80
2, 71639, Note_on_c, 0, 55, 0
2, 71640, Note_on_c, 0, 57, 64
2, 71750, Note_on_c, 0, 57, 0
2, 71760, Note_on_c, 0, 59, 64
2, 71990, Note_on_c, 0, 59, 0
2, 72000, Note_on_c, 0, 60, 80
2, 72359, Note_on_c, 0, 60, 0
2, 72360, Note_on_c, 0, 62, 64
2, 72470, Note_on_c, 0, 62, 0
2, 72480, Note_on_c, 0, 59, 64
2, 72710, Note_on_c, 0, 59, 0
2, 72720, Note_on_c, 0, 57, 80
2, 73079, Note_on_c, 0, 57, 0
2, 73080, Note_on_c, 0, 59, 64
2, 73190, Note_on_c, 0, 59, 0
2, 73200, Note_on_c, 0, 60, 64
2, 73430, Note_on_c, 0, 60, 0
2, 73440, Note_on_c, 0, 59, 64
2, 73910, Note_on_c, 0, 59, 0
2, 73920, Note_on_c, 0, 47, 64
2, 74150, Note_on_c, 0, 47, 0
2, 74160, Note_on_c, 0, 59, 80
2, 74519, Note_on_c, 0, 59, 0
2, 74520, Note_on_c, 0, 57, 64
2, 74630, Note_on_c, 0, 57, 0
2, 74640, Note_on_c, 0, 59, 64
2, 74870, Note_on_c, 0, 59, 0
2, 74880, Note_on_c, 0, 55, 64
2, 75350, Note_on_c, 0, 55, 0
2, 75360, Note_on_c, 0, 57, 64
2, 75415, Note_on_c, 0, 57, 0
2, 75420, Note_on_c, 0, 59, 64
2, 75475, Note_on_c, 0, 59, 0
2, 75480, Note_on_c, 0, 61, 64
2, 75535, Note_on_c, 0, 61, 0
2, 75540, Note_on_c, 0, 63, 64
2, 75595, Note_on_c, 0, 63, 0
2, 75600, Note_on_c, 0, 64, 80
2, 75959, Note_on_c, 0, 64, 0
2, 75960, Note_on_c, 0, 59, 64
2, 76070, Note_on_c, 0, 59, 0
2, 76080, Note_on_c, 0, 55, 64
2, 76310, Note_on_c, 0, 55, 0
2, 76320, Note_on_c, 0, 57, 64
2, 76790, Note_on_c, 0, 57, 0
2, 76800, Note_on_c, 0, 59, 64
2, 76855, Note_on_c, 0, 59, 0
2, 76860, Note_on_c, 0, 60, 64
2, 76915, Note_on_c, 0, 60, 0
2, 76920, Note_on_c, 0, 62, 64
2, 76975, Note_on_c, 0, 62, 0
2, 76980, Note_on_c, 0, 64, 64
2, 77035, Note_on_c, 0, 64, 0
2, 77040, Note_on_c, 0, 65, 80
2, 77399, Note_on_c, 0, 65, 0
2, 77400, Note_on_c, 0, 64, 64
2, 77510, Note_on_c, 0, 64, 0
2, 77520, Note_on_c, 0, 63, 64
2, 77750, Note_on_c, 0, 63, 0
2, 77760, Note_on_c, 0, 64, 64
2, 78230, Note_on_c, 0, 64, 0
2, 78240, Note_on_c, 0, 55, 64
2, 78470, Note_on_c, 0, 55, 0
2, 78480, Note_on_c, 0, 60, 80
2, 78839, Note_on_c, 0, 60, 0
2, 78840, Note_on_c, 0, 57, 64
2, 78950, Note_on_c, 0, 57, 0
2, 78960, Note_on_c, 0, 59, 64
2, 79190, Note_on_c, 0, 59, 0
2, 79200, Note_on_c, 0, 52, 80
2, 80279, Note_on_c, 0, 52, 0
2, 80280, Note_on_c, 0, 64, 64
2, 80390, Note_on_c, 0, 64, 0
2, 80400, Note_on_c, 0, 62, 64
2, 80630, Note_on_c, 0, 62, 0
2, 80640, Note_on_c, 0, 62, 64
2, 80695, Note_on_c, 0, 62, 0
2, 80700, Note_on_c, 0, 60, 64
2, 80755, Note_on_c, 0, 60, 0
2, 80760, Note_on_c, 0, 62, 64
2, 80815, Note_on_c, 0, 62, 0
2, 80820, Note_on_c, 0, 60, 64
2, 80875, Note_on_c, 0, 60, 0
2, 80880, Note_on_c, 0, 62, 64
2, 80935, Note_on_c, 0, 62, 0
2, 80940, Note_on_c, 0, 60, 64
2, 80995, Note_on_c, 0, 60, 0
2, 81000, Note_on_c, 0, 59, 64
2, 81110, Note_on_c, 0, 59, 0
2, 81120, Note_on_c, 0, 60, 64
2, 81350, Note_on_c, 0, 60, 0
2, 81360, Note_on_c, 0, 56, 80
2, 81719, Note_on_c, 0, 56, 0
2, 81720, Note_on_c, 0, 59, 64
2, 81830, Note_on_c, 0, 59, 0
2, 81840, Note_on_c, 0, 52, 64
2, 82070, Note_on_c, 0, 52, 0
2, 82080, Note_on_c, 0, 57, 80
2, 82439, Note_on_c, 0, 57, 0
2, 82440, Note_on_c, 0, 60, 64
2, 82550, Note_on_c, 0, 60, 0
2, 82560, Note_on_c, 0, 59, 64
2, 82790, Note_on_c, 0, 59, 0
2, 82800, Note_on_c, 0, 60, 80
2, 83159, Note_on_c, 0, 60, 0
2, 83160, Note_on_c, 0, 59, 64
2, 83270, Note_on_c, 0, 59, 0
2, 83280, Note_on_c, 0, 57, 64
2, 83510, Note_on_c, 0, 57, 0
2, 83520, Note_on_c, 0, 59, 80
2, 83879, Note_on_c, 0, 59, 0
2, 83880, Note_on_c, 0, 64, 64
2, 83990, Note_on_c, 0, 64, 0
2, 84000, Note_on_c, 0, 62, 64
2, 84230, Note_on_c, 0, 62, 0
2, 84240, Note_on_c, 0, 62, 64
2, 84295, Note_on_c, 0, 62, 0
2, 84300, Note_on_c, 0, 61, 64
2, 84355, Note_on_c, 0, 61, 0
2, 84360, Note_on_c, 0, 62, 64
2, 84415, Note_on_c, 0, 62, 0
2, 84420, Note_on_c, 0, 61, 64
2, 84475, Note_on_c, 0, 61, 0
2, 84480, Note_on_c, 0, 62, 64
2, 84535, Note_on_c, 0, 62, 0
2, 84540, Note_on_c, 0, 61, 64
2, 84595, Note_on_c, 0, 61, 0
2, 84600, Note_on_c, 0, 59, 64
2, 84710, Note_on_c, 0, 59, 0
2, 84720, Note_on_c, 0, 61, 64
2, 84950, Note_on_c, 0, 61, 0
2, 84960, Note_on_c, 0, 62, 80
2, 86039, Note_on_c, 0, 62, 0
2, 86040, Note_on_c, 0, 64, 64
2, 86150, Note_on_c, 0, 64, 0
2, 86160, Note_on_c, 0, 60, 64
2, 86390, Note_on_c, 0, 60, 0
2, 86400, Note_on_c, 0, 59, 80
2, 86759, Note_on_c, 0, 59, 0
2, 86760, Note_on_c, 0, 60, 64
2, 86870, Note_on_c, 0, 60, 0
2, 86880, Note_on_c, 0, 57, 64
2, 87110, Note_on_c, 0, 57, 0
2, 87120, Note_on_c, 0, 55, 80
2, 87479, Note_on_c, 0, 55, 0
2, 87480, Note_on_c, 0, 57, 64
2, 87590, Note_on_c, 0, 57, 0
2, 87600, Note_on_c, 0, 59, 64
2, 87830, Note_on_c, 0, 59, 0
2, 87840, Note_on_c, 0, 60, 80
2, 88199, Note_on_c, 0, 60, 0
2, 88200, Note_on_c, 0, 62, 64
2, 88310, Note_on_c, 0, 62, 0
2, 88320, Note_on_c, 0, 59, 64
2, 88550, Note_on_c, 0, 59, 0
2, 88560, Note_on_c, 0, 57, 80
2, 88919, Note_on_c, 0, 57, 0
2, 88920, Note_on_c, 0, 59, 64
2, 89030, Note_on_c, 0, 59, 0
2, 89040, Note_on_c, 0, 60, 64
2, 89270, Note_on_c, 0, 60, 0
2, 89280, Note_on_c, 0, 62, 80
2, 89639, Note_on_c, 0, 62, 0
2, 89640, Note_on_c, 0, 60, 64
2, 89750, Note_on_c, 0, 60, 0
2, 89760, Note_on_c, 0, 59, 64
2, 89990, Note_on_c, 0, 59, 0
2, 90000, Note_on_c, 0, 64, 80
2, 90359, Note_on_c, 0, 64, 0
2, 90360, Note_on_c, 0, 60, 64
2, 90470, Note_on_c, 0, 60, 0
2, 90480, Note_on_c, 0, 62, 64
2, 90710, Note_on_c, 0, 62, 0
2, 90720, Note_on_c, 0, 55, 80
2, 91079, Note_on_c, 0, 55, 0
2, 91080, Note_on_c, 0, 50, 64
2, 91190, Note_on_c, 0, 50, 0
2, 91200, Note_on_c, 0, 47, 64
2, 91430, Note_on_c, 0, 47, 0
2, 91440, Note_on_c, 0, 43, 80
2, 92159, Note_on_c, 0, 43, 0
2, 92160, End_track
0, 0, End_of_file
