0, 0, Header, 1, 4, 480
1, 0, Start_track
1, 0, Unknown_meta_event, 8, 47, 84, 104, 101, 32, 65, 114, 116, 32, 111, 102, 32, 70, 117, 103, 117, 101, 32, 67, 111, 110, 116, 114, 97, 112, 117, 110, 99, 116, 117, 115, 32, 73, 73, 32, 40, 65, 32, 61, 32, 52, 49, 53, 32, 72, 122, 41, 0
1, 0, Unknown_meta_event, 9, 9, 66, 87, 86, 32, 49, 48, 56, 48, 0
1, 0, Unknown_meta_event, 10, 11, 74, 46, 32, 83, 46, 32, 66, 97, 99, 104, 0
1, 0, Time_signature, 2, 1, 24, 8
1, 0, Key_signature, 4, "major"
1, 0, Program_c, 0, 46
1, 2, Control_c, 0, 7, 100
1, 4, Control_c, 0, 10, 64
1, 6, Control_c, 0, 91, 30
1, 8, Control_c, 0, 93, 30
1, 23040, Note_on_c, 0, 68, 80
1, 23999, Note_on_c, 0, 68, 0
1, 24000, Note_on_c, 0, 73, 80
1, 24959, Note_on_c, 0, 73, 0
1, 24960, Note_on_c, 0, 71, 80
1, 25919, Note_on_c, 0, 71, 0
1, 25920, Note_on_c, 0, 68, 80
1, 26879, Note_on_c, 0, 68, 0
1, 26880, Note_on_c, 0, 67, 80
1, 27839, Note_on_c, 0, 67, 0
1, 27840, Note_on_c, 0, 68, 80
1, 28319, Note_on_c, 0, 68, 0
1, 28320, Note_on_c, 0, 70, 80
1, 28799, Note_on_c, 0, 70, 0
1, 28800, Note_on_c, 0, 71, 80
1, 30119, Note_on_c, 0, 71, 0
1, 30120, Note_on_c, 0, 73, 80
1, 30239, Note_on_c, 0, 73, 0
1, 30240, Note_on_c, 0, 71, 80
1, 30599, Note_on_c, 0, 71, 0
1, 30600, Note_on_c, 0, 70, 80
1, 30719, Note_on_c, 0, 70, 0
1, 30720, Note_on_c, 0, 68, 80
1, 34559, Note_on_c, 0, 68, 0
1, 34560, Note_on_c, 0, 61, 80
1, 38759, Note_on_c, 0, 61, 0
1, 38760, Note_on_c, 0, 60, 80
1, 38879, Note_on_c, 0, 60, 0
1, 38880, Note_on_c, 0, 61, 80
1, 39239, Note_on_c, 0, 61, 0
1, 39240, Note_on_c, 0, 64, 80
1, 39359, Note_on_c, 0, 64, 0
1, 39360, Note_on_c, 0, 63, 80
1, 39719, Note_on_c, 0, 63, 0
1, 39720, Note_on_c, 0, 61, 80
1, 39839, Note_on_c, 0, 61, 0
1, 39840, Note_on_c, 0, 67, 80
1, 40199, Note_on_c, 0, 67, 0
1, 40200, Note_on_c, 0, 68, 80
1, 40319, Note_on_c, 0, 68, 0
1, 40320, Note_on_c, 0, 70, 80
1, 40679, Note_on_c, 0, 70, 0
1, 40680, Note_on_c, 0, 71, 80
1, 40799, Note_on_c, 0, 71, 0
1, 40800, Note_on_c, 0, 73, 80
1, 41159, Note_on_c, 0, 73, 0
1, 41160, Note_on_c, 0, 64, 80
1, 41639, Note_on_c, 0, 64, 0
1, 41640, Note_on_c, 0, 63, 80
1, 41699, Note_on_c, 0, 63, 0
1, 41700, Note_on_c, 0, 61, 80
1, 41759, Note_on_c, 0, 61, 0
1, 41760, Note_on_c, 0, 60, 80
1, 42119, Note_on_c, 0, 60, 0
1, 42120, Note_on_c, 0, 61, 80
1, 42239, Note_on_c, 0, 61, 0
1, 42240, Note_on_c, 0, 60, 80
1, 42719, Note_on_c, 0, 60, 0
1, 48000, Note_on_c, 0, 68, 80
1, 48959, Note_on_c, 0, 68, 0
1, 48960, Note_on_c, 0, 73, 80
1, 49919, Note_on_c, 0, 73, 0
1, 49920, Note_on_c, 0, 71, 80
1, 50879, Note_on_c, 0, 71, 0
1, 50880, Note_on_c, 0, 68, 80
1, 51839, Note_on_c, 0, 68, 0
1, 51840, Note_on_c, 0, 67, 80
1, 52799, Note_on_c, 0, 67, 0
1, 52800, Note_on_c, 0, 68, 80
1, 53279, Note_on_c, 0, 68, 0
1, 53280, Note_on_c, 0, 70, 80
1, 53759, Note_on_c, 0, 70, 0
1, 53760, Note_on_c, 0, 71, 80
1, 55079, Note_on_c, 0, 71, 0
1, 55080, Note_on_c, 0, 73, 80
1, 55199, Note_on_c, 0, 73, 0
1, 55200, Note_on_c, 0, 71, 80
1, 55559, Note_on_c, 0, 71, 0
1, 55560, Note_on_c, 0, 70, 80
1, 55679, Note_on_c, 0, 70, 0
1, 55680, Note_on_c, 0, 71, 80
1, 56159, Note_on_c, 0, 71, 0
1, 56160, Note_on_c, 0, 80, 80
1, 56999, Note_on_c, 0, 80, 0
1, 57000, Note_on_c, 0, 78, 80
1, 57119, Note_on_c, 0, 78, 0
1, 57120, Note_on_c, 0, 76, 80
1, 57479, Note_on_c, 0, 76, 0
1, 57480, Note_on_c, 0, 75, 80
1, 57959, Note_on_c, 0, 75, 0
1, 57960, Note_on_c, 0, 76, 80
1, 58079, Note_on_c, 0, 76, 0
1, 58080, Note_on_c, 0, 75, 80
1, 58439, Note_on_c, 0, 75, 0
1, 58440, Note_on_c, 0, 73, 80
1, 58919, Note_on_c, 0, 73, 0
1, 58920, Note_on_c, 0, 75, 80
1, 59039, Note_on_c, 0, 75, 0
1, 59040, Note_on_c, 0, 73, 80
1, 59399, Note_on_c, 0, 73, 0
1, 59400, Note_on_c, 0, 72, 80
1, 59519, Note_on_c, 0, 72, 0
1, 59520, Note_on_c, 0, 73, 80
1, 60479, Note_on_c, 0, 73, 0
1, 63720, Note_on_c, 0, 80, 80
1, 63839, Note_on_c, 0, 80, 0
1, 63840, Note_on_c, 0, 79, 80
1, 64199, Note_on_c, 0, 79, 0
1, 64200, Note_on_c, 0, 80, 80
1, 64319, Note_on_c, 0, 80, 0
1, 64320, Note_on_c, 0, 73, 80
1, 64799, Note_on_c, 0, 73, 0
1, 64800, Note_on_c, 0, 78, 80
1, 65639, Note_on_c, 0, 78, 0
1, 65640, Note_on_c, 0, 76, 80
1, 65759, Note_on_c, 0, 76, 0
1, 65760, Note_on_c, 0, 75, 80
1, 66119, Note_on_c, 0, 75, 0
1, 66120, Note_on_c, 0, 73, 80
1, 66239, Note_on_c, 0, 73, 0
1, 66240, Note_on_c, 0, 75, 80
1, 66719, Note_on_c, 0, 75, 0
1, 66720, Note_on_c, 0, 80, 80
1, 67199, Note_on_c, 0, 80, 0
1, 67200, Note_on_c, 0, 73, 80
1, 67679, Note_on_c, 0, 73, 0
1, 67680, Note_on_c, 0, 75, 80
1, 68159, Note_on_c, 0, 75, 0
1, 68160, Note_on_c, 0, 63, 80
1, 68639, Note_on_c, 0, 63, 0
1, 68640, Note_on_c, 0, 64, 80
1, 69119, Note_on_c, 0, 64, 0
1, 69120, Note_on_c, 0, 63, 80
1, 69599, Note_on_c, 0, 63, 0
1, 69600, Note_on_c, 0, 75, 80
1, 70439, Note_on_c, 0, 75, 0
1, 70440, Note_on_c, 0, 73, 80
1, 70559, Note_on_c, 0, 73, 0
1, 70560, Note_on_c, 0, 71, 80
1, 70919, Note_on_c, 0, 71, 0
1, 70920, Note_on_c, 0, 70, 80
1, 71039, Note_on_c, 0, 70, 0
1, 71040, Note_on_c, 0, 71, 80
1, 71399, Note_on_c, 0, 71, 0
1, 71400, Note_on_c, 0, 73, 80
1, 71519, Note_on_c, 0, 73, 0
1, 71520, Note_on_c, 0, 75, 80
1, 72359, Note_on_c, 0, 75, 0
1, 72360, Note_on_c, 0, 76, 80
1, 72479, Note_on_c, 0, 76, 0
1, 72480, Note_on_c, 0, 75, 80
1, 72839, Note_on_c, 0, 75, 0
1, 72840, Note_on_c, 0, 73, 80
1, 72959, Note_on_c, 0, 73, 0
1, 72960, Note_on_c, 0, 80, 80
1, 73439, Note_on_c, 0, 80, 0
1, 77160, Note_on_c, 0, 75, 80
1, 77279, Note_on_c, 0, 75, 0
1, 77280, Note_on_c, 0, 74, 80
1, 77639, Note_on_c, 0, 74, 0
1, 77640, Note_on_c, 0, 75, 80
1, 77759, Note_on_c, 0, 75, 0
1, 77760, Note_on_c, 0, 68, 80
1, 78239, Note_on_c, 0, 68, 0
1, 78240, Note_on_c, 0, 73, 80
1, 79079, Note_on_c, 0, 73, 0
1, 79080, Note_on_c, 0, 71, 80
1, 79199, Note_on_c, 0, 71, 0
1, 79200, Note_on_c, 0, 69, 80
1, 79559, Note_on_c, 0, 69, 0
1, 79560, Note_on_c, 0, 68, 80
1, 79679, Note_on_c, 0, 68, 0
1, 79680, Note_on_c, 0, 69, 80
1, 80999, Note_on_c, 0, 69, 0
1, 81000, Note_on_c, 0, 68, 80
1, 81119, Note_on_c, 0, 68, 0
1, 81120, Note_on_c, 0, 66, 80
1, 81479, Note_on_c, 0, 66, 0
1, 81480, Note_on_c, 0, 64, 80
1, 81599, Note_on_c, 0, 64, 0
1, 81600, Note_on_c, 0, 66, 80
1, 82919, Note_on_c, 0, 66, 0
1, 82920, Note_on_c, 0, 64, 80
1, 83039, Note_on_c, 0, 64, 0
1, 83040, Note_on_c, 0, 66, 80
1, 83399, Note_on_c, 0, 66, 0
1, 83400, Note_on_c, 0, 68, 80
1, 83519, Note_on_c, 0, 68, 0
1, 83520, Note_on_c, 0, 69, 80
1, 83879, Note_on_c, 0, 69, 0
1, 83880, Note_on_c, 0, 71, 80
1, 83999, Note_on_c, 0, 71, 0
1, 84000, Note_on_c, 0, 73, 80
1, 84359, Note_on_c, 0, 73, 0
1, 84360, Note_on_c, 0, 75, 80
1, 84479, Note_on_c, 0, 75, 0
1, 84480, Note_on_c, 0, 76, 80
1, 85439, Note_on_c, 0, 76, 0
1, 85440, Note_on_c, 0, 83, 80
1, 86399, Note_on_c, 0, 83, 0
1, 86400, Note_on_c, 0, 80, 80
1, 87359, Note_on_c, 0, 80, 0
1, 87360, Note_on_c, 0, 76, 80
1, 88319, Note_on_c, 0, 76, 0
1, 88320, Note_on_c, 0, 75, 80
1, 89279, Note_on_c, 0, 75, 0
1, 89280, Note_on_c, 0, 76, 80
1, 89759, Note_on_c, 0, 76, 0
1, 89760, Note_on_c, 0, 78, 80
1, 90239, Note_on_c, 0, 78, 0
1, 90240, Note_on_c, 0, 80, 80
1, 91559, Note_on_c, 0, 80, 0
1, 91560, Note_on_c, 0, 81, 80
1, 91679, Note_on_c, 0, 81, 0
1, 91680, Note_on_c, 0, 80, 80
1, 92039, Note_on_c, 0, 80, 0
1, 92040, Note_on_c, 0, 78, 80
1, 92159, Note_on_c, 0, 78, 0
1, 92160, Note_on_c, 0, 77, 80
1, 93119, Note_on_c, 0, 77, 0
1, 93120, Note_on_c, 0, 78, 80
1, 93599, Note_on_c, 0, 78, 0
1, 93600, Note_on_c, 0, 80, 80
1, 94439, Note_on_c, 0, 80, 0
1, 94440, Note_on_c, 0, 73, 80
1, 94559, Note_on_c, 0, 73, 0
1, 94560, Note_on_c, 0, 78, 80
1, 94919, Note_on_c, 0, 78, 0
1, 94920, Note_on_c, 0, 76, 80
1, 95039, Note_on_c, 0, 76, 0
1, 95040, Note_on_c, 0, 74, 80
1, 95399, Note_on_c, 0, 74, 0
1, 95400, Note_on_c, 0, 73, 80
1, 95519, Note_on_c, 0, 73, 0
1, 95520, Note_on_c, 0, 71, 80
1, 95879, Note_on_c, 0, 71, 0
1, 95880, Note_on_c, 0, 69, 80
1, 95999, Note_on_c, 0, 69, 0
1, 96000, Note_on_c, 0, 68, 80
1, 96959, Note_on_c, 0, 68, 0
1, 104040, Note_on_c, 0, 78, 80
1, 104159, Note_on_c, 0, 78, 0
1, 104160, Note_on_c, 0, 76, 80
1, 104519, Note_on_c, 0, 76, 0
1, 104520, Note_on_c, 0, 74, 80
1, 104639, Note_on_c, 0, 74, 0
1, 104640, Note_on_c, 0, 73, 80
1, 104999, Note_on_c, 0, 73, 0
1, 105000, Note_on_c, 0, 71, 80
1, 105119, Note_on_c, 0, 71, 0
1, 105120, Note_on_c, 0, 69, 80
1, 105479, Note_on_c, 0, 69, 0
1, 105480, Note_on_c, 0, 68, 80
1, 105599, Note_on_c, 0, 68, 0
1, 105600, Note_on_c, 0, 69, 80
1, 106559, Note_on_c, 0, 69, 0
1, 106560, Note_on_c, 0, 74, 80
1, 107879, Note_on_c, 0, 74, 0
1, 107880, Note_on_c, 0, 73, 80
1, 107999, Note_on_c, 0, 73, 0
1, 108000, Note_on_c, 0, 72, 80
1, 108359, Note_on_c, 0, 72, 0
1, 108360, Note_on_c, 0, 73, 80
1, 108479, Note_on_c, 0, 73, 0
1, 108480, Note_on_c, 0, 66, 80
1, 108959, Note_on_c, 0, 66, 0
1, 108960, Note_on_c, 0, 71, 80
1, 109919, Note_on_c, 0, 71, 0
1, 109920, Note_on_c, 0, 69, 80
1, 110399, Note_on_c, 0, 69, 0
1, 110400, Note_on_c, 0, 68, 80
1, 111719, Note_on_c, 0, 68, 0
1, 111720, Note_on_c, 0, 76, 80
1, 111839, Note_on_c, 0, 76, 0
1, 111840, Note_on_c, 0, 78, 80
1, 112199, Note_on_c, 0, 78, 0
1, 112200, Note_on_c, 0, 76, 80
1, 112319, Note_on_c, 0, 76, 0
1, 112320, Note_on_c, 0, 75, 80
1, 112679, Note_on_c, 0, 75, 0
1, 112680, Note_on_c, 0, 73, 80
1, 112799, Note_on_c, 0, 73, 0
1, 112800, Note_on_c, 0, 72, 80
1, 113159, Note_on_c, 0, 72, 0
1, 113160, Note_on_c, 0, 73, 80
1, 113279, Note_on_c, 0, 73, 0
1, 113280, Note_on_c, 0, 72, 80
1, 113639, Note_on_c, 0, 72, 0
1, 113640, Note_on_c, 0, 80, 80
1, 113759, Note_on_c, 0, 80, 0
1, 113760, Note_on_c, 0, 81, 80
1, 114119, Note_on_c, 0, 81, 0
1, 114120, Note_on_c, 0, 80, 80
1, 114239, Note_on_c, 0, 80, 0
1, 114240, Note_on_c, 0, 78, 80
1, 114599, Note_on_c, 0, 78, 0
1, 114600, Note_on_c, 0, 76, 80
1, 114719, Note_on_c, 0, 76, 0
1, 114720, Note_on_c, 0, 75, 80
1, 115079, Note_on_c, 0, 75, 0
1, 115080, Note_on_c, 0, 76, 80
1, 115199, Note_on_c, 0, 76, 0
1, 115200, Note_on_c, 0, 78, 80
1, 115559, Note_on_c, 0, 78, 0
1, 115560, Note_on_c, 0, 76, 80
1, 115679, Note_on_c, 0, 76, 0
1, 115680, Note_on_c, 0, 75, 80
1, 116039, Note_on_c, 0, 75, 0
1, 116040, Note_on_c, 0, 73, 80
1, 116519, Note_on_c, 0, 73, 0
1, 116520, Note_on_c, 0, 75, 80
1, 116639, Note_on_c, 0, 75, 0
1, 116640, Note_on_c, 0, 73, 80
1, 116999, Note_on_c, 0, 73, 0
1, 117000, Note_on_c, 0, 72, 80
1, 117119, Note_on_c, 0, 72, 0
1, 117120, Note_on_c, 0, 73, 80
1, 117599, Note_on_c, 0, 73, 0
1, 118560, Note_on_c, 0, 69, 80
1, 119399, Note_on_c, 0, 69, 0
1, 119400, Note_on_c, 0, 69, 80
1, 119519, Note_on_c, 0, 69, 0
1, 119520, Note_on_c, 0, 68, 80
1, 119879, Note_on_c, 0, 68, 0
1, 119880, Note_on_c, 0, 66, 80
1, 119999, Note_on_c, 0, 66, 0
1, 120000, Note_on_c, 0, 64, 80
1, 120359, Note_on_c, 0, 64, 0
1, 120360, Note_on_c, 0, 63, 80
1, 120479, Note_on_c, 0, 63, 0
1, 120480, Note_on_c, 0, 61, 80
1, 120839, Note_on_c, 0, 61, 0
1, 120840, Note_on_c, 0, 60, 80
1, 120959, Note_on_c, 0, 60, 0
1, 120960, Note_on_c, 0, 61, 80
1, 121319, Note_on_c, 0, 61, 0
1, 121320, Note_on_c, 0, 73, 80
1, 121439, Note_on_c, 0, 73, 0
1, 121440, Note_on_c, 0, 75, 80
1, 121799, Note_on_c, 0, 75, 0
1, 121800, Note_on_c, 0, 76, 80
1, 121919, Note_on_c, 0, 76, 0
1, 121920, Note_on_c, 0, 78, 80
1, 123359, Note_on_c, 0, 78, 0
1, 123360, Note_on_c, 0, 76, 80
1, 123719, Note_on_c, 0, 76, 0
1, 123720, Note_on_c, 0, 75, 80
1, 123839, Note_on_c, 0, 75, 0
1, 123840, Note_on_c, 0, 76, 80
1, 124319, Note_on_c, 0, 76, 0
1, 124320, Note_on_c, 0, 80, 80
1, 124799, Note_on_c, 0, 80, 0
1, 124800, Note_on_c, 0, 73, 80
1, 125759, Note_on_c, 0, 73, 0
1, 125760, Note_on_c, 0, 75, 80
1, 126239, Note_on_c, 0, 75, 0
1, 126240, Note_on_c, 0, 77, 80
1, 126719, Note_on_c, 0, 77, 0
1, 126720, Note_on_c, 0, 78, 80
1, 128159, Note_on_c, 0, 78, 0
1, 128160, Note_on_c, 0, 73, 80
1, 128999, Note_on_c, 0, 73, 0
1, 129000, Note_on_c, 0, 75, 80
1, 129119, Note_on_c, 0, 75, 0
1, 129120, Note_on_c, 0, 73, 80
1, 129479, Note_on_c, 0, 73, 0
1, 129480, Note_on_c, 0, 71, 80
1, 129959, Note_on_c, 0, 71, 0
1, 129960, Note_on_c, 0, 73, 80
1, 130079, Note_on_c, 0, 73, 0
1, 130080, Note_on_c, 0, 71, 80
1, 130439, Note_on_c, 0, 71, 0
1, 130440, Note_on_c, 0, 69, 80
1, 130919, Note_on_c, 0, 69, 0
1, 130920, Note_on_c, 0, 69, 80
1, 131039, Note_on_c, 0, 69, 0
1, 131040, Note_on_c, 0, 68, 80
1, 131399, Note_on_c, 0, 68, 0
1, 131400, Note_on_c, 0, 66, 80
1, 131519, Note_on_c, 0, 66, 0
1, 131520, Note_on_c, 0, 64, 80
1, 131879, Note_on_c, 0, 64, 0
1, 131880, Note_on_c, 0, 71, 80
1, 131999, Note_on_c, 0, 71, 0
1, 132000, Note_on_c, 0, 69, 80
1, 132359, Note_on_c, 0, 69, 0
1, 132360, Note_on_c, 0, 68, 80
1, 132479, Note_on_c, 0, 68, 0
1, 132480, Note_on_c, 0, 67, 80
1, 133199, Note_on_c, 0, 67, 0
1, 133320, Note_on_c, 0, 67, 80
1, 133439, Note_on_c, 0, 67, 0
1, 133440, Note_on_c, 0, 68, 80
1, 134159, Note_on_c, 0, 68, 0
1, 134280, Note_on_c, 0, 68, 80
1, 134399, Note_on_c, 0, 68, 0
1, 134400, Note_on_c, 0, 73, 80
1, 134759, Note_on_c, 0, 73, 0
1, 134760, Note_on_c, 0, 75, 80
1, 134879, Note_on_c, 0, 75, 0
1, 134880, Note_on_c, 0, 76, 80
1, 135359, Note_on_c, 0, 76, 0
1, 135360, Note_on_c, 0, 75, 80
1, 136679, Note_on_c, 0, 75, 0
1, 136680, Note_on_c, 0, 80, 80
1, 136799, Note_on_c, 0, 80, 0
1, 136800, Note_on_c, 0, 79, 80
1, 137159, Note_on_c, 0, 79, 0
1, 137160, Note_on_c, 0, 80, 80
1, 137279, Note_on_c, 0, 80, 0
1, 137280, Note_on_c, 0, 75, 80
1, 137639, Note_on_c, 0, 75, 0
1, 137640, Note_on_c, 0, 77, 80
1, 137759, Note_on_c, 0, 77, 0
1, 137760, Note_on_c, 0, 78, 80
1, 138719, Note_on_c, 0, 78, 0
1, 138720, Note_on_c, 0, 76, 80
1, 139679, Note_on_c, 0, 76, 0
1, 139680, Note_on_c, 0, 75, 80
1, 140039, Note_on_c, 0, 75, 0
1, 140040, Note_on_c, 0, 73, 80
1, 140159, Note_on_c, 0, 73, 0
1, 140160, Note_on_c, 0, 72, 80
1, 140639, Note_on_c, 0, 72, 0
1, 140640, Note_on_c, 0, 75, 80
1, 141119, Note_on_c, 0, 75, 0
1, 141120, Note_on_c, 0, 68, 80
1, 142559, Note_on_c, 0, 68, 0
1, 142560, Note_on_c, 0, 61, 80
1, 143519, Note_on_c, 0, 61, 0
1, 143520, Note_on_c, 0, 66, 80
1, 144359, Note_on_c, 0, 66, 0
1, 144360, Note_on_c, 0, 69, 80
1, 144479, Note_on_c, 0, 69, 0
1, 144480, Note_on_c, 0, 68, 80
1, 144839, Note_on_c, 0, 68, 0
1, 144840, Note_on_c, 0, 66, 80
1, 145319, Note_on_c, 0, 66, 0
1, 145320, Note_on_c, 0, 68, 80
1, 145439, Note_on_c, 0, 68, 0
1, 145440, Note_on_c, 0, 66, 80
1, 145799, Note_on_c, 0, 66, 0
1, 145800, Note_on_c, 0, 64, 80
1, 146279, Note_on_c, 0, 64, 0
1, 146280, Note_on_c, 0, 66, 80
1, 146399, Note_on_c, 0, 66, 0
1, 146400, Note_on_c, 0, 64, 80
1, 146759, Note_on_c, 0, 64, 0
1, 146760, Note_on_c, 0, 63, 80
1, 147239, Note_on_c, 0, 63, 0
1, 147240, Note_on_c, 0, 64, 80
1, 147359, Note_on_c, 0, 64, 0
1, 147360, Note_on_c, 0, 63, 80
1, 147719, Note_on_c, 0, 63, 0
1, 147720, Note_on_c, 0, 61, 80
1, 148199, Note_on_c, 0, 61, 0
1, 148200, Note_on_c, 0, 58, 80
1, 148319, Note_on_c, 0, 58, 0
1, 148320, Note_on_c, 0, 60, 80
1, 148679, Note_on_c, 0, 60, 0
1, 148680, Note_on_c, 0, 63, 80
1, 148799, Note_on_c, 0, 63, 0
1, 148800, Note_on_c, 0, 56, 80
1, 149159, Note_on_c, 0, 56, 0
1, 149160, Note_on_c, 0, 66, 80
1, 149279, Note_on_c, 0, 66, 0
1, 149280, Note_on_c, 0, 64, 80
1, 149639, Note_on_c, 0, 64, 0
1, 149640, Note_on_c, 0, 63, 80
1, 149759, Note_on_c, 0, 63, 0
1, 149760, Note_on_c, 0, 61, 80
1, 150719, Note_on_c, 0, 61, 0
1, 150720, Note_on_c, 0, 68, 80
1, 151679, Note_on_c, 0, 68, 0
1, 151680, Note_on_c, 0, 64, 80
1, 152639, Note_on_c, 0, 64, 0
1, 152640, Note_on_c, 0, 61, 80
1, 153599, Note_on_c, 0, 61, 0
1, 153600, Note_on_c, 0, 60, 80
1, 154559, Note_on_c, 0, 60, 0
1, 154560, Note_on_c, 0, 61, 80
1, 155039, Note_on_c, 0, 61, 0
1, 155040, Note_on_c, 0, 63, 80
1, 155519, Note_on_c, 0, 63, 0
1, 155520, Note_on_c, 0, 64, 80
1, 156839, Note_on_c, 0, 64, 0
1, 156840, Note_on_c, 0, 66, 80
1, 156959, Note_on_c, 0, 66, 0
1, 156960, Note_on_c, 0, 64, 80
1, 157319, Note_on_c, 0, 64, 0
1, 157320, Note_on_c, 0, 63, 80
1, 157439, Note_on_c, 0, 63, 0
1, 157440, Note_on_c, 0, 61, 80
1, 161279, Note_on_c, 0, 61, 0
1, 161280, End_track
2, 0, Start_track
2, 0, Key_signature, 4, "major"
2, 15360, Note_on_c, 0, 61, 80
2, 16319, Note_on_c, 0, 61, 0
2, 16320, Note_on_c, 0, 68, 80
2, 17279, Note_on_c, 0, 68, 0
2, 17280, Note_on_c, 0, 64, 80
2, 18239, Note_on_c, 0, 64, 0
2, 18240, Note_on_c, 0, 61, 80
2, 19199, Note_on_c, 0, 61, 0
2, 19200, Note_on_c, 0, 60, 80
2, 20159, Note_on_c, 0, 60, 0
2, 20160, Note_on_c, 0, 61, 80
2, 20639, Note_on_c, 0, 61, 0
2, 20640, Note_on_c, 0, 63, 80
2, 21119, Note_on_c, 0, 63, 0
2, 21120, Note_on_c, 0, 64, 80
2, 22439, Note_on_c, 0, 64, 0
2, 22440, Note_on_c, 0, 66, 80
2, 22559, Note_on_c, 0, 66, 0
2, 22560, Note_on_c, 0, 64, 80
2, 22919, Note_on_c, 0, 64, 0
2, 22920, Note_on_c, 0, 63, 80
2, 23039, Note_on_c, 0, 63, 0
2, 23040, Note_on_c, 0, 61, 80
2, 23399, Note_on_c, 0, 61, 0
2, 23400, Note_on_c, 0, 63, 80
2, 23519, Note_on_c, 0, 63, 0
2, 23520, Note_on_c, 0, 64, 80
2, 23879, Note_on_c, 0, 64, 0
2, 23880, Note_on_c, 0, 66, 80
2, 23999, Note_on_c, 0, 66, 0
2, 24000, Note_on_c, 0, 68, 80
2, 25319, Note_on_c, 0, 68, 0
2, 25320, Note_on_c, 0, 66, 80
2, 25439, Note_on_c, 0, 66, 0
2, 25440, Note_on_c, 0, 64, 80
2, 25799, Note_on_c, 0, 64, 0
2, 25800, Note_on_c, 0, 63, 80
2, 26279, Note_on_c, 0, 63, 0
2, 26280, Note_on_c, 0, 64, 80
2, 26399, Note_on_c, 0, 64, 0
2, 26400, Note_on_c, 0, 63, 80
2, 26759, Note_on_c, 0, 63, 0
2, 26760, Note_on_c, 0, 61, 80
2, 27239, Note_on_c, 0, 61, 0
2, 27240, Note_on_c, 0, 61, 80
2, 27359, Note_on_c, 0, 61, 0
2, 27360, Note_on_c, 0, 63, 80
2, 27719, Note_on_c, 0, 63, 0
2, 27720, Note_on_c, 0, 64, 80
2, 27839, Note_on_c, 0, 64, 0
2, 27840, Note_on_c, 0, 63, 80
2, 28319, Note_on_c, 0, 63, 0
2, 28320, Note_on_c, 0, 61, 80
2, 28799, Note_on_c, 0, 61, 0
2, 28800, Note_on_c, 0, 59, 80
2, 29279, Note_on_c, 0, 59, 0
2, 29280, Note_on_c, 0, 63, 80
2, 29759, Note_on_c, 0, 63, 0
2, 29760, Note_on_c, 0, 64, 80
2, 30239, Note_on_c, 0, 64, 0
2, 30240, Note_on_c, 0, 63, 80
2, 31079, Note_on_c, 0, 63, 0
2, 31080, Note_on_c, 0, 60, 80
2, 31199, Note_on_c, 0, 60, 0
2, 31200, Note_on_c, 0, 61, 80
2, 31559, Note_on_c, 0, 61, 0
2, 31560, Note_on_c, 0, 63, 80
2, 31679, Note_on_c, 0, 63, 0
2, 31680, Note_on_c, 0, 64, 80
2, 32159, Note_on_c, 0, 64, 0
2, 32160, Note_on_c, 0, 63, 80
2, 32999, Note_on_c, 0, 63, 0
2, 33000, Note_on_c, 0, 63, 80
2, 33119, Note_on_c, 0, 63, 0
2, 33120, Note_on_c, 0, 61, 80
2, 33479, Note_on_c, 0, 61, 0
2, 33480, Note_on_c, 0, 60, 80
2, 33599, Note_on_c, 0, 60, 0
2, 33600, Note_on_c, 0, 61, 80
2, 34079, Note_on_c, 0, 61, 0
2, 34080, Note_on_c, 0, 59, 80
2, 35039, Note_on_c, 0, 59, 0
2, 35040, Note_on_c, 0, 57, 80
2, 35399, Note_on_c, 0, 57, 0
2, 35400, Note_on_c, 0, 56, 80
2, 35519, Note_on_c, 0, 56, 0
2, 35520, Note_on_c, 0, 57, 80
2, 35999, Note_on_c, 0, 57, 0
2, 36000, Note_on_c, 0, 56, 80
2, 36839, Note_on_c, 0, 56, 0
2, 36840, Note_on_c, 0, 53, 80
2, 36959, Note_on_c, 0, 53, 0
2, 36960, Note_on_c, 0, 54, 80
2, 37319, Note_on_c, 0, 54, 0
2, 37320, Note_on_c, 0, 56, 80
2, 37439, Note_on_c, 0, 56, 0
2, 37440, Note_on_c, 0, 57, 80
2, 37919, Note_on_c, 0, 57, 0
2, 37920, Note_on_c, 0, 56, 80
2, 38399, Note_on_c, 0, 56, 0
2, 38400, Note_on_c, 0, 55, 80
2, 38879, Note_on_c, 0, 55, 0
2, 41280, Note_on_c, 0, 58, 80
2, 42239, Note_on_c, 0, 58, 0
2, 42240, Note_on_c, 0, 56, 80
2, 42599, Note_on_c, 0, 56, 0
2, 42600, Note_on_c, 0, 63, 80
2, 42719, Note_on_c, 0, 63, 0
2, 42720, Note_on_c, 0, 64, 80
2, 43079, Note_on_c, 0, 64, 0
2, 43080, Note_on_c, 0, 66, 80
2, 43199, Note_on_c, 0, 66, 0
2, 43200, Note_on_c, 0, 68, 80
2, 44159, Note_on_c, 0, 68, 0
2, 44160, Note_on_c, 0, 64, 80
2, 45119, Note_on_c, 0, 64, 0
2, 45120, Note_on_c, 0, 61, 80
2, 46079, Note_on_c, 0, 61, 0
2, 46080, Note_on_c, 0, 60, 80
2, 47039, Note_on_c, 0, 60, 0
2, 47040, Note_on_c, 0, 61, 80
2, 47519, Note_on_c, 0, 61, 0
2, 47520, Note_on_c, 0, 63, 80
2, 47999, Note_on_c, 0, 63, 0
2, 48000, Note_on_c, 0, 64, 80
2, 49319, Note_on_c, 0, 64, 0
2, 49320, Note_on_c, 0, 68, 80
2, 49439, Note_on_c, 0, 68, 0
2, 49440, Note_on_c, 0, 67, 80
2, 49799, Note_on_c, 0, 67, 0
2, 49800, Note_on_c, 0, 65, 80
2, 49919, Note_on_c, 0, 65, 0
2, 49920, Note_on_c, 0, 63, 80
2, 51239, Note_on_c, 0, 63, 0
2, 51240, Note_on_c, 0, 56, 80
2, 51359, Note_on_c, 0, 56, 0
2, 51360, Note_on_c, 0, 61, 80
2, 51719, Note_on_c, 0, 61, 0
2, 51720, Note_on_c, 0, 59, 80
2, 51839, Note_on_c, 0, 59, 0
2, 51840, Note_on_c, 0, 58, 80
2, 52799, Note_on_c, 0, 58, 0
2, 53160, Note_on_c, 0, 63, 80
2, 53279, Note_on_c, 0, 63, 0
2, 53280, Note_on_c, 0, 65, 80
2, 53639, Note_on_c, 0, 65, 0
2, 53640, Note_on_c, 0, 67, 80
2, 53759, Note_on_c, 0, 67, 0
2, 53760, Note_on_c, 0, 68, 80
2, 55199, Note_on_c, 0, 68, 0
2, 55200, Note_on_c, 0, 67, 80
2, 55679, Note_on_c, 0, 67, 0
2, 55680, Note_on_c, 0, 68, 80
2, 56039, Note_on_c, 0, 68, 0
2, 56040, Note_on_c, 0, 66, 80
2, 56159, Note_on_c, 0, 66, 0
2, 56160, Note_on_c, 0, 64, 80
2, 56519, Note_on_c, 0, 64, 0
2, 56520, Note_on_c, 0, 63, 80
2, 56639, Note_on_c, 0, 63, 0
2, 56640, Note_on_c, 0, 61, 80
2, 57119, Note_on_c, 0, 61, 0
2, 57120, Note_on_c, 0, 66, 80
2, 57599, Note_on_c, 0, 66, 0
2, 57600, Note_on_c, 0, 64, 80
2, 58559, Note_on_c, 0, 64, 0
2, 58560, Note_on_c, 0, 63, 80
2, 59519, Note_on_c, 0, 63, 0
2, 59520, Note_on_c, 0, 61, 80
2, 60479, Note_on_c, 0, 61, 0
2, 61800, Note_on_c, 0, 69, 80
2, 61919, Note_on_c, 0, 69, 0
2, 61920, Note_on_c, 0, 68, 80
2, 62279, Note_on_c, 0, 68, 0
2, 62280, Note_on_c, 0, 66, 80
2, 62399, Note_on_c, 0, 66, 0
2, 62400, Note_on_c, 0, 64, 80
2, 62759, Note_on_c, 0, 64, 0
2, 62760, Note_on_c, 0, 63, 80
2, 62879, Note_on_c, 0, 63, 0
2, 62880, Note_on_c, 0, 61, 80
2, 63239, Note_on_c, 0, 61, 0
2, 63240, Note_on_c, 0, 60, 80
2, 63359, Note_on_c, 0, 60, 0
2, 63360, Note_on_c, 0, 61, 80
2, 63839, Note_on_c, 0, 61, 0
2, 63840, Note_on_c, 0, 73, 80
2, 64319, Note_on_c, 0, 73, 0
2, 64320, Note_on_c, 0, 70, 80
2, 64799, Note_on_c, 0, 70, 0
2, 64800, Note_on_c, 0, 72, 80
2, 65279, Note_on_c, 0, 72, 0
2, 65280, Note_on_c, 0, 73, 80
2, 65759, Note_on_c, 0, 73, 0
2, 66720, Note_on_c, 0, 71, 80
2, 67559, Note_on_c, 0, 71, 0
2, 67560, Note_on_c, 0, 69, 80
2, 67679, Note_on_c, 0, 69, 0
2, 67680, Note_on_c, 0, 68, 80
2, 68039, Note_on_c, 0, 68, 0
2, 68040, Note_on_c, 0, 66, 80
2, 68159, Note_on_c, 0, 66, 0
2, 68160, Note_on_c, 0, 68, 80
2, 69119, Note_on_c, 0, 68, 0
2, 69120, Note_on_c, 0, 67, 80
2, 69599, Note_on_c, 0, 67, 0
2, 69600, Note_on_c, 0, 71, 80
2, 70079, Note_on_c, 0, 71, 0
2, 70080, Note_on_c, 0, 65, 80
2, 70559, Note_on_c, 0, 65, 0
2, 70560, Note_on_c, 0, 67, 80
2, 71039, Note_on_c, 0, 67, 0
2, 71040, Note_on_c, 0, 68, 80
2, 71399, Note_on_c, 0, 68, 0
2, 71400, Note_on_c, 0, 69, 80
2, 71519, Note_on_c, 0, 69, 0
2, 71520, Note_on_c, 0, 68, 80
2, 71879, Note_on_c, 0, 68, 0
2, 71880, Note_on_c, 0, 66, 80
2, 71999, Note_on_c, 0, 66, 0
2, 72000, Note_on_c, 0, 64, 80
2, 72359, Note_on_c, 0, 64, 0
2, 72360, Note_on_c, 0, 68, 80
2, 72479, Note_on_c, 0, 68, 0
2, 72480, Note_on_c, 0, 66, 80
2, 72839, Note_on_c, 0, 66, 0
2, 72840, Note_on_c, 0, 64, 80
2, 73319, Note_on_c, 0, 64, 0
2, 73320, Note_on_c, 0, 63, 80
2, 73439, Note_on_c, 0, 63, 0
2, 73440, Note_on_c, 0, 65, 80
2, 73799, Note_on_c, 0, 65, 0
2, 73800, Note_on_c, 0, 67, 80
2, 73919, Note_on_c, 0, 67, 0
2, 73920, Note_on_c, 0, 68, 80
2, 74279, Note_on_c, 0, 68, 0
2, 74280, Note_on_c, 0, 70, 80
2, 74399, Note_on_c, 0, 70, 0
2, 74400, Note_on_c, 0, 71, 80
2, 74759, Note_on_c, 0, 71, 0
2, 74760, Note_on_c, 0, 68, 80
2, 74879, Note_on_c, 0, 68, 0
2, 74880, Note_on_c, 0, 70, 80
2, 75239, Note_on_c, 0, 70, 0
2, 75240, Note_on_c, 0, 71, 80
2, 75359, Note_on_c, 0, 71, 0
2, 75360, Note_on_c, 0, 70, 80
2, 75719, Note_on_c, 0, 70, 0
2, 75720, Note_on_c, 0, 68, 80
2, 75839, Note_on_c, 0, 68, 0
2, 75840, Note_on_c, 0, 70, 80
2, 76199, Note_on_c, 0, 70, 0
2, 76200, Note_on_c, 0, 68, 80
2, 76319, Note_on_c, 0, 68, 0
2, 76320, Note_on_c, 0, 67, 80
2, 76679, Note_on_c, 0, 67, 0
2, 76680, Note_on_c, 0, 68, 80
2, 76799, Note_on_c, 0, 68, 0
2, 76800, Note_on_c, 0, 63, 80
2, 77759, Note_on_c, 0, 63, 0
2, 77760, Note_on_c, 0, 65, 80
2, 78239, Note_on_c, 0, 65, 0
2, 78240, Note_on_c, 0, 67, 80
2, 78719, Note_on_c, 0, 67, 0
2, 78720, Note_on_c, 0, 68, 80
2, 79199, Note_on_c, 0, 68, 0
2, 79200, Note_on_c, 0, 59, 80
2, 79679, Note_on_c, 0, 59, 0
2, 79680, Note_on_c, 0, 61, 80
2, 80159, Note_on_c, 0, 61, 0
2, 80160, Note_on_c, 0, 66, 80
2, 80639, Note_on_c, 0, 66, 0
2, 80640, Note_on_c, 0, 59, 80
2, 80999, Note_on_c, 0, 59, 0
2, 81000, Note_on_c, 0, 64, 80
2, 81119, Note_on_c, 0, 64, 0
2, 81120, Note_on_c, 0, 63, 80
2, 81479, Note_on_c, 0, 63, 0
2, 81480, Note_on_c, 0, 61, 80
2, 81959, Note_on_c, 0, 61, 0
2, 81960, Note_on_c, 0, 63, 80
2, 82079, Note_on_c, 0, 63, 0
2, 82080, Note_on_c, 0, 61, 80
2, 82439, Note_on_c, 0, 61, 0
2, 82440, Note_on_c, 0, 60, 80
2, 82559, Note_on_c, 0, 60, 0
2, 82560, Note_on_c, 0, 61, 80
2, 83999, Note_on_c, 0, 61, 0
2, 84000, Note_on_c, 0, 66, 80
2, 84479, Note_on_c, 0, 66, 0
2, 84480, Note_on_c, 0, 59, 80
2, 85799, Note_on_c, 0, 59, 0
2, 85800, Note_on_c, 0, 57, 80
2, 85919, Note_on_c, 0, 57, 0
2, 85920, Note_on_c, 0, 56, 80
2, 86279, Note_on_c, 0, 56, 0
2, 86280, Note_on_c, 0, 54, 80
2, 86399, Note_on_c, 0, 54, 0
2, 86400, Note_on_c, 0, 52, 80
2, 86759, Note_on_c, 0, 52, 0
2, 86760, Note_on_c, 0, 64, 80
2, 86879, Note_on_c, 0, 64, 0
2, 86880, Note_on_c, 0, 66, 80
2, 87239, Note_on_c, 0, 66, 0
2, 87240, Note_on_c, 0, 68, 80
2, 87359, Note_on_c, 0, 68, 0
2, 87360, Note_on_c, 0, 69, 80
2, 87719, Note_on_c, 0, 69, 0
2, 87720, Note_on_c, 0, 71, 80
2, 87839, Note_on_c, 0, 71, 0
2, 87840, Note_on_c, 0, 73, 80
2, 88199, Note_on_c, 0, 73, 0
2, 88200, Note_on_c, 0, 69, 80
2, 88319, Note_on_c, 0, 69, 0
2, 88320, Note_on_c, 0, 71, 80
2, 88799, Note_on_c, 0, 71, 0
2, 88800, Note_on_c, 0, 66, 80
2, 89279, Note_on_c, 0, 66, 0
2, 89280, Note_on_c, 0, 71, 80
2, 91199, Note_on_c, 0, 71, 0
2, 91200, Note_on_c, 0, 73, 80
2, 91679, Note_on_c, 0, 73, 0
2, 91680, Note_on_c, 0, 71, 80
2, 92039, Note_on_c, 0, 71, 0
2, 92040, Note_on_c, 0, 69, 80
2, 92159, Note_on_c, 0, 69, 0
2, 92160, Note_on_c, 0, 68, 80
2, 93119, Note_on_c, 0, 68, 0
2, 93120, Note_on_c, 0, 73, 80
2, 94079, Note_on_c, 0, 73, 0
2, 94080, Note_on_c, 0, 69, 80
2, 95039, Note_on_c, 0, 69, 0
2, 95040, Note_on_c, 0, 66, 80
2, 95999, Note_on_c, 0, 66, 0
2, 96000, Note_on_c, 0, 65, 80
2, 96959, Note_on_c, 0, 65, 0
2, 96960, Note_on_c, 0, 66, 80
2, 97439, Note_on_c, 0, 66, 0
2, 97440, Note_on_c, 0, 68, 80
2, 97919, Note_on_c, 0, 68, 0
2, 97920, Note_on_c, 0, 69, 80
2, 99239, Note_on_c, 0, 69, 0
2, 99240, Note_on_c, 0, 71, 80
2, 99359, Note_on_c, 0, 71, 0
2, 99360, Note_on_c, 0, 69, 80
2, 99719, Note_on_c, 0, 69, 0
2, 99720, Note_on_c, 0, 68, 80
2, 99839, Note_on_c, 0, 68, 0
2, 99840, Note_on_c, 0, 66, 80
2, 100319, Note_on_c, 0, 66, 0
2, 100320, Note_on_c, 0, 69, 80
2, 100799, Note_on_c, 0, 69, 0
2, 100800, Note_on_c, 0, 68, 80
2, 101279, Note_on_c, 0, 68, 0
2, 101280, Note_on_c, 0, 71, 80
2, 102119, Note_on_c, 0, 71, 0
2, 102120, Note_on_c, 0, 64, 80
2, 102239, Note_on_c, 0, 64, 0
2, 102240, Note_on_c, 0, 66, 80
2, 102599, Note_on_c, 0, 66, 0
2, 102600, Note_on_c, 0, 68, 80
2, 102719, Note_on_c, 0, 68, 0
2, 102720, Note_on_c, 0, 69, 80
2, 103079, Note_on_c, 0, 69, 0
2, 103080, Note_on_c, 0, 71, 80
2, 103199, Note_on_c, 0, 71, 0
2, 103200, Note_on_c, 0, 73, 80
2, 103559, Note_on_c, 0, 73, 0
2, 103560, Note_on_c, 0, 69, 80
2, 103679, Note_on_c, 0, 69, 0
2, 103680, Note_on_c, 0, 71, 80
2, 104639, Note_on_c, 0, 71, 0
2, 104640, Note_on_c, 0, 64, 80
2, 105959, Note_on_c, 0, 64, 0
2, 105960, Note_on_c, 0, 67, 80
2, 106079, Note_on_c, 0, 67, 0
2, 106080, Note_on_c, 0, 66, 80
2, 106439, Note_on_c, 0, 66, 0
2, 106440, Note_on_c, 0, 64, 80
2, 106559, Note_on_c, 0, 64, 0
2, 106560, Note_on_c, 0, 66, 80
2, 107039, Note_on_c, 0, 66, 0
2, 107040, Note_on_c, 0, 68, 80
2, 107519, Note_on_c, 0, 68, 0
2, 107520, Note_on_c, 0, 69, 80
2, 108479, Note_on_c, 0, 69, 0
2, 109800, Note_on_c, 0, 66, 80
2, 109919, Note_on_c, 0, 66, 0
2, 109920, Note_on_c, 0, 65, 80
2, 110279, Note_on_c, 0, 65, 0
2, 110280, Note_on_c, 0, 66, 80
2, 110399, Note_on_c, 0, 66, 0
2, 110400, Note_on_c, 0, 63, 80
2, 110879, Note_on_c, 0, 63, 0
2, 110880, Note_on_c, 0, 64, 80
2, 111719, Note_on_c, 0, 64, 0
2, 111720, Note_on_c, 0, 61, 80
2, 111839, Note_on_c, 0, 61, 0
2, 111840, Note_on_c, 0, 60, 80
2, 112199, Note_on_c, 0, 60, 0
2, 112200, Note_on_c, 0, 61, 80
2, 112319, Note_on_c, 0, 61, 0
2, 112320, Note_on_c, 0, 66, 80
2, 113759, Note_on_c, 0, 66, 0
2, 113760, Note_on_c, 0, 64, 80
2, 114239, Note_on_c, 0, 64, 0
2, 114240, Note_on_c, 0, 63, 80
2, 114719, Note_on_c, 0, 63, 0
2, 114720, Note_on_c, 0, 68, 80
2, 115679, Note_on_c, 0, 68, 0
2, 117480, Note_on_c, 0, 69, 80
2, 117599, Note_on_c, 0, 69, 0
2, 117600, Note_on_c, 0, 68, 80
2, 117959, Note_on_c, 0, 68, 0
2, 117960, Note_on_c, 0, 66, 80
2, 118439, Note_on_c, 0, 66, 0
2, 118440, Note_on_c, 0, 68, 80
2, 118559, Note_on_c, 0, 68, 0
2, 118560, Note_on_c, 0, 66, 80
2, 118919, Note_on_c, 0, 66, 0
2, 118920, Note_on_c, 0, 64, 80
2, 119039, Note_on_c, 0, 64, 0
2, 119040, Note_on_c, 0, 63, 80
2, 119519, Note_on_c, 0, 63, 0
2, 119520, Note_on_c, 0, 56, 80
2, 119999, Note_on_c, 0, 56, 0
2, 120000, Note_on_c, 0, 57, 80
2, 120959, Note_on_c, 0, 57, 0
2, 120960, Note_on_c, 0, 56, 80
2, 121439, Note_on_c, 0, 56, 0
2, 121440, Note_on_c, 0, 68, 80
2, 121919, Note_on_c, 0, 68, 0
2, 121920, Note_on_c, 0, 70, 80
2, 122399, Note_on_c, 0, 70, 0
2, 122400, Note_on_c, 0, 72, 80
2, 122879, Note_on_c, 0, 72, 0
2, 122880, Note_on_c, 0, 73, 80
2, 123359, Note_on_c, 0, 73, 0
2, 125160, Note_on_c, 0, 66, 80
2, 125279, Note_on_c, 0, 66, 0
2, 125280, Note_on_c, 0, 68, 80
2, 125639, Note_on_c, 0, 68, 0
2, 125640, Note_on_c, 0, 69, 80
2, 125759, Note_on_c, 0, 69, 0
2, 125760, Note_on_c, 0, 71, 80
2, 127199, Note_on_c, 0, 71, 0
2, 127200, Note_on_c, 0, 69, 80
2, 127559, Note_on_c, 0, 69, 0
2, 127560, Note_on_c, 0, 68, 80
2, 127679, Note_on_c, 0, 68, 0
2, 127680, Note_on_c, 0, 69, 80
2, 128159, Note_on_c, 0, 69, 0
2, 128160, Note_on_c, 0, 68, 80
2, 128639, Note_on_c, 0, 68, 0
2, 128640, Note_on_c, 0, 66, 80
2, 129599, Note_on_c, 0, 66, 0
2, 129600, Note_on_c, 0, 64, 80
2, 130559, Note_on_c, 0, 64, 0
2, 130560, Note_on_c, 0, 63, 80
2, 131519, Note_on_c, 0, 63, 0
2, 131520, Note_on_c, 0, 61, 80
2, 131999, Note_on_c, 0, 61, 0
2, 132000, Note_on_c, 0, 64, 80
2, 132839, Note_on_c, 0, 64, 0
2, 132840, Note_on_c, 0, 64, 80
2, 132959, Note_on_c, 0, 64, 0
2, 132960, Note_on_c, 0, 63, 80
2, 133799, Note_on_c, 0, 63, 0
2, 133800, Note_on_c, 0, 63, 80
2, 133919, Note_on_c, 0, 63, 0
2, 133920, Note_on_c, 0, 61, 80
2, 134399, Note_on_c, 0, 61, 0
2, 135240, Note_on_c, 0, 73, 80
2, 135359, Note_on_c, 0, 73, 0
2, 135360, Note_on_c, 0, 71, 80
2, 135719, Note_on_c, 0, 71, 0
2, 135720, Note_on_c, 0, 70, 80
2, 135839, Note_on_c, 0, 70, 0
2, 135840, Note_on_c, 0, 68, 80
2, 136199, Note_on_c, 0, 68, 0
2, 136200, Note_on_c, 0, 67, 80
2, 136319, Note_on_c, 0, 67, 0
2, 136320, Note_on_c, 0, 68, 80
2, 137279, Note_on_c, 0, 68, 0
2, 137760, Note_on_c, 0, 75, 80
2, 138599, Note_on_c, 0, 75, 0
2, 138600, Note_on_c, 0, 68, 80
2, 138719, Note_on_c, 0, 68, 0
2, 138720, Note_on_c, 0, 73, 80
2, 139079, Note_on_c, 0, 73, 0
2, 139080, Note_on_c, 0, 71, 80
2, 139199, Note_on_c, 0, 71, 0
2, 139200, Note_on_c, 0, 69, 80
2, 139559, Note_on_c, 0, 69, 0
2, 139560, Note_on_c, 0, 68, 80
2, 139679, Note_on_c, 0, 68, 0
2, 139680, Note_on_c, 0, 66, 80
2, 140039, Note_on_c, 0, 66, 0
2, 140040, Note_on_c, 0, 64, 80
2, 140159, Note_on_c, 0, 64, 0
2, 140160, Note_on_c, 0, 63, 80
2, 141479, Note_on_c, 0, 63, 0
2, 141480, Note_on_c, 0, 66, 80
2, 141599, Note_on_c, 0, 66, 0
2, 141600, Note_on_c, 0, 64, 80
2, 141959, Note_on_c, 0, 64, 0
2, 141960, Note_on_c, 0, 63, 80
2, 142079, Note_on_c, 0, 63, 0
2, 142080, Note_on_c, 0, 61, 80
2, 142439, Note_on_c, 0, 61, 0
2, 142440, Note_on_c, 0, 59, 80
2, 142559, Note_on_c, 0, 59, 0
2, 142560, Note_on_c, 0, 57, 80
2, 142919, Note_on_c, 0, 57, 0
2, 142920, Note_on_c, 0, 56, 80
2, 143039, Note_on_c, 0, 56, 0
2, 143040, Note_on_c, 0, 57, 80
2, 143999, Note_on_c, 0, 57, 0
2, 144000, Note_on_c, 0, 56, 80
2, 145439, Note_on_c, 0, 56, 0
2, 145440, Note_on_c, 0, 58, 80
2, 145919, Note_on_c, 0, 58, 0
2, 145920, Note_on_c, 0, 60, 80
2, 146879, Note_on_c, 0, 60, 0
2, 146880, Note_on_c, 0, 55, 80
2, 147839, Note_on_c, 0, 55, 0
2, 147840, Note_on_c, 0, 56, 80
2, 148799, Note_on_c, 0, 56, 0
2, 149280, Note_on_c, 0, 60, 80
2, 149759, Note_on_c, 0, 60, 0
2, 149760, Note_on_c, 0, 61, 80
2, 150119, Note_on_c, 0, 61, 0
2, 150120, Note_on_c, 0, 64, 80
2, 150239, Note_on_c, 0, 64, 0
2, 150240, Note_on_c, 0, 63, 80
2, 150599, Note_on_c, 0, 63, 0
2, 150600, Note_on_c, 0, 61, 80
2, 150719, Note_on_c, 0, 61, 0
2, 150720, Note_on_c, 0, 60, 80
2, 151079, Note_on_c, 0, 60, 0
2, 151080, Note_on_c, 0, 56, 80
2, 151199, Note_on_c, 0, 56, 0
2, 151200, Note_on_c, 0, 58, 80
2, 151559, Note_on_c, 0, 58, 0
2, 151560, Note_on_c, 0, 60, 80
2, 151679, Note_on_c, 0, 60, 0
2, 151680, Note_on_c, 0, 61, 80
2, 152159, Note_on_c, 0, 61, 0
2, 152160, Note_on_c, 0, 59, 80
2, 153119, Note_on_c, 0, 59, 0
2, 153120, Note_on_c, 0, 57, 80
2, 153959, Note_on_c, 0, 57, 0
2, 153960, Note_on_c, 0, 57, 80
2, 154079, Note_on_c, 0, 57, 0
2, 154080, Note_on_c, 0, 56, 80
2, 154439, Note_on_c, 0, 56, 0
2, 154440, Note_on_c, 0, 54, 80
2, 154559, Note_on_c, 0, 54, 0
2, 154560, Note_on_c, 0, 52, 80
2, 155039, Note_on_c, 0, 52, 0
2, 155040, Note_on_c, 0, 57, 80
2, 155519, Note_on_c, 0, 57, 0
2, 155520, Note_on_c, 0, 56, 80
2, 156479, Note_on_c, 0, 56, 0
2, 156480, Note_on_c, 0, 57, 80
2, 156959, Note_on_c, 0, 57, 0
2, 156960, Note_on_c, 0, 56, 80
2, 157799, Note_on_c, 0, 56, 0
2, 157800, Note_on_c, 0, 53, 80
2, 157919, Note_on_c, 0, 53, 0
2, 157920, Note_on_c, 0, 54, 80
2, 158279, Note_on_c, 0, 54, 0
2, 158280, Note_on_c, 0, 56, 80
2, 158399, Note_on_c, 0, 56, 0
2, 158400, Note_on_c, 0, 57, 80
2, 159719, Note_on_c, 0, 57, 0
2, 159720, Note_on_c, 0, 56, 80
2, 159839, Note_on_c, 0, 56, 0
2, 159840, Note_on_c, 0, 57, 80
2, 160199, Note_on_c, 0, 57, 0
2, 160200, Note_on_c, 0, 54, 80
2, 160319, Note_on_c, 0, 54, 0
2, 160320, Note_on_c, 0, 56, 80
2, 161279, Note_on_c, 0, 56, 0
2, 161280, End_track
3, 0, Start_track
3, 0, Key_signature, 4, "major"
3, 0, Program_c, 1, 46
3, 2, Control_c, 1, 7, 100
3, 4, Control_c, 1, 10, 64
3, 6, Control_c, 1, 91, 30
3, 8, Control_c, 1, 93, 30
3, 7680, Note_on_c, 1, 56, 80
3, 8639, Note_on_c, 1, 56, 0
3, 8640, Note_on_c, 1, 61, 80
3, 9599, Note_on_c, 1, 61, 0
3, 9600, Note_on_c, 1, 59, 80
3, 10559, Note_on_c, 1, 59, 0
3, 10560, Note_on_c, 1, 56, 80
3, 11519, Note_on_c, 1, 56, 0
3, 11520, Note_on_c, 1, 55, 80
3, 12479, Note_on_c, 1, 55, 0
3, 12480, Note_on_c, 1, 56, 80
3, 12959, Note_on_c, 1, 56, 0
3, 12960, Note_on_c, 1, 58, 80
3, 13439, Note_on_c, 1, 58, 0
3, 13440, Note_on_c, 1, 59, 80
3, 14759, Note_on_c, 1, 59, 0
3, 14760, Note_on_c, 1, 61, 80
3, 14879, Note_on_c, 1, 61, 0
3, 14880, Note_on_c, 1, 59, 80
3, 15239, Note_on_c, 1, 59, 0
3, 15240, Note_on_c, 1, 57, 80
3, 15359, Note_on_c, 1, 57, 0
3, 15360, Note_on_c, 1, 56, 80
3, 16679, Note_on_c, 1, 56, 0
3, 16680, Note_on_c, 1, 66, 80
3, 16799, Note_on_c, 1, 66, 0
3, 16800, Note_on_c, 1, 64, 80
3, 17159, Note_on_c, 1, 64, 0
3, 17160, Note_on_c, 1, 63, 80
3, 17279, Note_on_c, 1, 63, 0
3, 17280, Note_on_c, 1, 61, 80
3, 17639, Note_on_c, 1, 61, 0
3, 17640, Note_on_c, 1, 59, 80
3, 17759, Note_on_c, 1, 59, 0
3, 17760, Note_on_c, 1, 57, 80
3, 18119, Note_on_c, 1, 57, 0
3, 18120, Note_on_c, 1, 56, 80
3, 18239, Note_on_c, 1, 56, 0
3, 18240, Note_on_c, 1, 57, 80
3, 18599, Note_on_c, 1, 57, 0
3, 18600, Note_on_c, 1, 56, 80
3, 18719, Note_on_c, 1, 56, 0
3, 18720, Note_on_c, 1, 54, 80
3, 19079, Note_on_c, 1, 54, 0
3, 19080, Note_on_c, 1, 52, 80
3, 19199, Note_on_c, 1, 52, 0
3, 19200, Note_on_c, 1, 51, 80
3, 20159, Note_on_c, 1, 51, 0
3, 20520, Note_on_c, 1, 56, 80
3, 20639, Note_on_c, 1, 56, 0
3, 20640, Note_on_c, 1, 58, 80
3, 20999, Note_on_c, 1, 58, 0
3, 21000, Note_on_c, 1, 60, 80
3, 21119, Note_on_c, 1, 60, 0
3, 21120, Note_on_c, 1, 61, 80
3, 22559, Note_on_c, 1, 61, 0
3, 22560, Note_on_c, 1, 60, 80
3, 23039, Note_on_c, 1, 60, 0
3, 23040, Note_on_c, 1, 61, 80
3, 23759, Note_on_c, 1, 61, 0
3, 23880, Note_on_c, 1, 63, 80
3, 23999, Note_on_c, 1, 63, 0
3, 24000, Note_on_c, 1, 64, 80
3, 24959, Note_on_c, 1, 64, 0
3, 24960, Note_on_c, 1, 63, 80
3, 25439, Note_on_c, 1, 63, 0
3, 25440, Note_on_c, 1, 59, 80
3, 26399, Note_on_c, 1, 59, 0
3, 26400, Note_on_c, 1, 56, 80
3, 26879, Note_on_c, 1, 56, 0
3, 26880, Note_on_c, 1, 58, 80
3, 27839, Note_on_c, 1, 58, 0
3, 28200, Note_on_c, 1, 51, 80
3, 28319, Note_on_c, 1, 51, 0
3, 28320, Note_on_c, 1, 53, 80
3, 28679, Note_on_c, 1, 53, 0
3, 28680, Note_on_c, 1, 55, 80
3, 28799, Note_on_c, 1, 55, 0
3, 28800, Note_on_c, 1, 56, 80
3, 30239, Note_on_c, 1, 56, 0
3, 30240, Note_on_c, 1, 55, 80
3, 30719, Note_on_c, 1, 55, 0
3, 30720, Note_on_c, 1, 56, 80
3, 31199, Note_on_c, 1, 56, 0
3, 31200, Note_on_c, 1, 58, 80
3, 31559, Note_on_c, 1, 58, 0
3, 31560, Note_on_c, 1, 60, 80
3, 31679, Note_on_c, 1, 60, 0
3, 31680, Note_on_c, 1, 61, 80
3, 32159, Note_on_c, 1, 61, 0
3, 32160, Note_on_c, 1, 54, 80
3, 32999, Note_on_c, 1, 54, 0
3, 33000, Note_on_c, 1, 54, 80
3, 33119, Note_on_c, 1, 54, 0
3, 33120, Note_on_c, 1, 52, 80
3, 33479, Note_on_c, 1, 52, 0
3, 33480, Note_on_c, 1, 51, 80
3, 33599, Note_on_c, 1, 51, 0
3, 33600, Note_on_c, 1, 52, 80
3, 34079, Note_on_c, 1, 52, 0
3, 34080, Note_on_c, 1, 53, 80
3, 34919, Note_on_c, 1, 53, 0
3, 34920, Note_on_c, 1, 49, 80
3, 35039, Note_on_c, 1, 49, 0
3, 35040, Note_on_c, 1, 51, 80
3, 35399, Note_on_c, 1, 51, 0
3, 35400, Note_on_c, 1, 53, 80
3, 35519, Note_on_c, 1, 53, 0
3, 35520, Note_on_c, 1, 54, 80
3, 35999, Note_on_c, 1, 54, 0
3, 36000, Note_on_c, 1, 47, 80
3, 36839, Note_on_c, 1, 47, 0
3, 36840, Note_on_c, 1, 44, 80
3, 36959, Note_on_c, 1, 44, 0
3, 36960, Note_on_c, 1, 45, 80
3, 37319, Note_on_c, 1, 45, 0
3, 37320, Note_on_c, 1, 47, 80
3, 37439, Note_on_c, 1, 47, 0
3, 37440, Note_on_c, 1, 49, 80
3, 37799, Note_on_c, 1, 49, 0
3, 37800, Note_on_c, 1, 48, 80
3, 37919, Note_on_c, 1, 48, 0
3, 37920, Note_on_c, 1, 49, 80
3, 38399, Note_on_c, 1, 49, 0
3, 38400, Note_on_c, 1, 51, 80
3, 38879, Note_on_c, 1, 51, 0
3, 41280, Note_on_c, 1, 55, 80
3, 42239, Note_on_c, 1, 55, 0
3, 42240, Note_on_c, 1, 51, 80
3, 42719, Note_on_c, 1, 51, 0
3, 43560, Note_on_c, 1, 56, 80
3, 43679, Note_on_c, 1, 56, 0
3, 43680, Note_on_c, 1, 58, 80
3, 44039, Note_on_c, 1, 58, 0
3, 44040, Note_on_c, 1, 60, 80
3, 44159, Note_on_c, 1, 60, 0
3, 44160, Note_on_c, 1, 61, 80
3, 44639, Note_on_c, 1, 61, 0
3, 44640, Note_on_c, 1, 59, 80
3, 45599, Note_on_c, 1, 59, 0
3, 45600, Note_on_c, 1, 57, 80
3, 46439, Note_on_c, 1, 57, 0
3, 46440, Note_on_c, 1, 54, 80
3, 46559, Note_on_c, 1, 54, 0
3, 46560, Note_on_c, 1, 52, 80
3, 46919, Note_on_c, 1, 52, 0
3, 46920, Note_on_c, 1, 51, 80
3, 47039, Note_on_c, 1, 51, 0
3, 47040, Note_on_c, 1, 56, 80
3, 48359, Note_on_c, 1, 56, 0
3, 48360, Note_on_c, 1, 61, 80
3, 48479, Note_on_c, 1, 61, 0
3, 48480, Note_on_c, 1, 60, 80
3, 48839, Note_on_c, 1, 60, 0
3, 48840, Note_on_c, 1, 61, 80
3, 48959, Note_on_c, 1, 61, 0
3, 48960, Note_on_c, 1, 55, 80
3, 49439, Note_on_c, 1, 55, 0
3, 49440, Note_on_c, 1, 58, 80
3, 50279, Note_on_c, 1, 58, 0
3, 50280, Note_on_c, 1, 51, 80
3, 50399, Note_on_c, 1, 51, 0
3, 50400, Note_on_c, 1, 56, 80
3, 50759, Note_on_c, 1, 56, 0
3, 50760, Note_on_c, 1, 54, 80
3, 50879, Note_on_c, 1, 54, 0
3, 50880, Note_on_c, 1, 52, 80
3, 52319, Note_on_c, 1, 52, 0
3, 52320, Note_on_c, 1, 51, 80
3, 52799, Note_on_c, 1, 51, 0
3, 54120, Note_on_c, 1, 66, 80
3, 54239, Note_on_c, 1, 66, 0
3, 54240, Note_on_c, 1, 64, 80
3, 54599, Note_on_c, 1, 64, 0
3, 54600, Note_on_c, 1, 63, 80
3, 54719, Note_on_c, 1, 63, 0
3, 54720, Note_on_c, 1, 62, 80
3, 55199, Note_on_c, 1, 62, 0
3, 55200, Note_on_c, 1, 63, 80
3, 55679, Note_on_c, 1, 63, 0
3, 55680, Note_on_c, 1, 56, 80
3, 56639, Note_on_c, 1, 56, 0
3, 56640, Note_on_c, 1, 58, 80
3, 57119, Note_on_c, 1, 58, 0
3, 57120, Note_on_c, 1, 60, 80
3, 57599, Note_on_c, 1, 60, 0
3, 57600, Note_on_c, 1, 61, 80
3, 58559, Note_on_c, 1, 61, 0
3, 59880, Note_on_c, 1, 56, 80
3, 59999, Note_on_c, 1, 56, 0
3, 60000, Note_on_c, 1, 58, 80
3, 60359, Note_on_c, 1, 58, 0
3, 60360, Note_on_c, 1, 60, 80
3, 60479, Note_on_c, 1, 60, 0
3, 60480, Note_on_c, 1, 61, 80
3, 60839, Note_on_c, 1, 61, 0
3, 60840, Note_on_c, 1, 63, 80
3, 60959, Note_on_c, 1, 63, 0
3, 60960, Note_on_c, 1, 64, 80
3, 61319, Note_on_c, 1, 64, 0
3, 61320, Note_on_c, 1, 61, 80
3, 61439, Note_on_c, 1, 61, 0
3, 61440, Note_on_c, 1, 63, 80
3, 61919, Note_on_c, 1, 63, 0
3, 61920, Note_on_c, 1, 51, 80
3, 62399, Note_on_c, 1, 51, 0
3, 62400, Note_on_c, 1, 52, 80
3, 62879, Note_on_c, 1, 52, 0
3, 62880, Note_on_c, 1, 54, 80
3, 63359, Note_on_c, 1, 54, 0
3, 63360, Note_on_c, 1, 56, 80
3, 63839, Note_on_c, 1, 56, 0
3, 65760, Note_on_c, 1, 61, 80
3, 66599, Note_on_c, 1, 61, 0
3, 66600, Note_on_c, 1, 59, 80
3, 66719, Note_on_c, 1, 59, 0
3, 66720, Note_on_c, 1, 57, 80
3, 67079, Note_on_c, 1, 57, 0
3, 67080, Note_on_c, 1, 56, 80
3, 67199, Note_on_c, 1, 56, 0
3, 67200, Note_on_c, 1, 57, 80
3, 67679, Note_on_c, 1, 57, 0
3, 67680, Note_on_c, 1, 58, 80
3, 68159, Note_on_c, 1, 58, 0
3, 68160, Note_on_c, 1, 60, 80
3, 68639, Note_on_c, 1, 60, 0
3, 68640, Note_on_c, 1, 61, 80
3, 69479, Note_on_c, 1, 61, 0
3, 69480, Note_on_c, 1, 59, 80
3, 69599, Note_on_c, 1, 59, 0
3, 69600, Note_on_c, 1, 58, 80
3, 69959, Note_on_c, 1, 58, 0
3, 69960, Note_on_c, 1, 56, 80
3, 70079, Note_on_c, 1, 56, 0
3, 70080, Note_on_c, 1, 58, 80
3, 70559, Note_on_c, 1, 58, 0
3, 70560, Note_on_c, 1, 63, 80
3, 71039, Note_on_c, 1, 63, 0
3, 71040, Note_on_c, 1, 56, 80
3, 71999, Note_on_c, 1, 56, 0
3, 72000, Note_on_c, 1, 61, 80
3, 72959, Note_on_c, 1, 61, 0
3, 72960, Note_on_c, 1, 59, 80
3, 73919, Note_on_c, 1, 59, 0
3, 73920, Note_on_c, 1, 56, 80
3, 74879, Note_on_c, 1, 56, 0
3, 74880, Note_on_c, 1, 55, 80
3, 75839, Note_on_c, 1, 55, 0
3, 75840, Note_on_c, 1, 56, 80
3, 76319, Note_on_c, 1, 56, 0
3, 76320, Note_on_c, 1, 58, 80
3, 76799, Note_on_c, 1, 58, 0
3, 76800, Note_on_c, 1, 59, 80
3, 78119, Note_on_c, 1, 59, 0
3, 78120, Note_on_c, 1, 61, 80
3, 78239, Note_on_c, 1, 61, 0
3, 78240, Note_on_c, 1, 59, 80
3, 78599, Note_on_c, 1, 59, 0
3, 78600, Note_on_c, 1, 58, 80
3, 78719, Note_on_c, 1, 58, 0
3, 78720, Note_on_c, 1, 56, 80
3, 80039, Note_on_c, 1, 56, 0
3, 80040, Note_on_c, 1, 54, 80
3, 80159, Note_on_c, 1, 54, 0
3, 80160, Note_on_c, 1, 52, 80
3, 80519, Note_on_c, 1, 52, 0
3, 80520, Note_on_c, 1, 51, 80
3, 80639, Note_on_c, 1, 51, 0
3, 80640, Note_on_c, 1, 52, 80
3, 81119, Note_on_c, 1, 52, 0
3, 81120, Note_on_c, 1, 57, 80
3, 81599, Note_on_c, 1, 57, 0
3, 81600, Note_on_c, 1, 51, 80
3, 82079, Note_on_c, 1, 51, 0
3, 82080, Note_on_c, 1, 56, 80
3, 82559, Note_on_c, 1, 56, 0
3, 82560, Note_on_c, 1, 49, 80
3, 83039, Note_on_c, 1, 49, 0
3, 83040, Note_on_c, 1, 51, 80
3, 83399, Note_on_c, 1, 51, 0
3, 83400, Note_on_c, 1, 52, 80
3, 83519, Note_on_c, 1, 52, 0
3, 83520, Note_on_c, 1, 54, 80
3, 83879, Note_on_c, 1, 54, 0
3, 83880, Note_on_c, 1, 56, 80
3, 83999, Note_on_c, 1, 56, 0
3, 84000, Note_on_c, 1, 57, 80
3, 84839, Note_on_c, 1, 57, 0
3, 84840, Note_on_c, 1, 56, 80
3, 84959, Note_on_c, 1, 56, 0
3, 84960, Note_on_c, 1, 54, 80
3, 85319, Note_on_c, 1, 54, 0
3, 85320, Note_on_c, 1, 52, 80
3, 85439, Note_on_c, 1, 52, 0
3, 85440, Note_on_c, 1, 51, 80
3, 86399, Note_on_c, 1, 51, 0
3, 86400, Note_on_c, 1, 52, 80
3, 86879, Note_on_c, 1, 52, 0
3, 87840, Note_on_c, 1, 57, 80
3, 88679, Note_on_c, 1, 57, 0
3, 88680, Note_on_c, 1, 61, 80
3, 88799, Note_on_c, 1, 61, 0
3, 88800, Note_on_c, 1, 59, 80
3, 89159, Note_on_c, 1, 59, 0
3, 89160, Note_on_c, 1, 57, 80
3, 89279, Note_on_c, 1, 57, 0
3, 89280, Note_on_c, 1, 56, 80
3, 89639, Note_on_c, 1, 56, 0
3, 89640, Note_on_c, 1, 54, 80
3, 89759, Note_on_c, 1, 54, 0
3, 89760, Note_on_c, 1, 52, 80
3, 90119, Note_on_c, 1, 52, 0
3, 90120, Note_on_c, 1, 51, 80
3, 90239, Note_on_c, 1, 51, 0
3, 90240, Note_on_c, 1, 52, 80
3, 90599, Note_on_c, 1, 52, 0
3, 90600, Note_on_c, 1, 64, 80
3, 90719, Note_on_c, 1, 64, 0
3, 90720, Note_on_c, 1, 63, 80
3, 91079, Note_on_c, 1, 63, 0
3, 91080, Note_on_c, 1, 64, 80
3, 91199, Note_on_c, 1, 64, 0
3, 91200, Note_on_c, 1, 57, 80
3, 91679, Note_on_c, 1, 57, 0
3, 91680, Note_on_c, 1, 62, 80
3, 92519, Note_on_c, 1, 62, 0
3, 92520, Note_on_c, 1, 62, 80
3, 92639, Note_on_c, 1, 62, 0
3, 92640, Note_on_c, 1, 61, 80
3, 92999, Note_on_c, 1, 61, 0
3, 93000, Note_on_c, 1, 59, 80
3, 93119, Note_on_c, 1, 59, 0
3, 93120, Note_on_c, 1, 57, 80
3, 93479, Note_on_c, 1, 57, 0
3, 93480, Note_on_c, 1, 56, 80
3, 93599, Note_on_c, 1, 56, 0
3, 93600, Note_on_c, 1, 54, 80
3, 93959, Note_on_c, 1, 54, 0
3, 93960, Note_on_c, 1, 53, 80
3, 94079, Note_on_c, 1, 53, 0
3, 94080, Note_on_c, 1, 54, 80
3, 94439, Note_on_c, 1, 54, 0
3, 94440, Note_on_c, 1, 56, 80
3, 94559, Note_on_c, 1, 56, 0
3, 94560, Note_on_c, 1, 57, 80
3, 95519, Note_on_c, 1, 57, 0
3, 95520, Note_on_c, 1, 56, 80
3, 95879, Note_on_c, 1, 56, 0
3, 95880, Note_on_c, 1, 57, 80
3, 95999, Note_on_c, 1, 57, 0
3, 96000, Note_on_c, 1, 59, 80
3, 96479, Note_on_c, 1, 59, 0
3, 96480, Note_on_c, 1, 62, 80
3, 96959, Note_on_c, 1, 62, 0
3, 96960, Note_on_c, 1, 61, 80
3, 98399, Note_on_c, 1, 61, 0
3, 98400, Note_on_c, 1, 61, 80
3, 98879, Note_on_c, 1, 61, 0
3, 98880, Note_on_c, 1, 63, 80
3, 99359, Note_on_c, 1, 63, 0
3, 99360, Note_on_c, 1, 64, 80
3, 100199, Note_on_c, 1, 64, 0
3, 100200, Note_on_c, 1, 64, 80
3, 100319, Note_on_c, 1, 64, 0
3, 100320, Note_on_c, 1, 62, 80
3, 100679, Note_on_c, 1, 62, 0
3, 100680, Note_on_c, 1, 61, 80
3, 100799, Note_on_c, 1, 61, 0
3, 100800, Note_on_c, 1, 59, 80
3, 101159, Note_on_c, 1, 59, 0
3, 101160, Note_on_c, 1, 57, 80
3, 101279, Note_on_c, 1, 57, 0
3, 101280, Note_on_c, 1, 56, 80
3, 101639, Note_on_c, 1, 56, 0
3, 101640, Note_on_c, 1, 54, 80
3, 101759, Note_on_c, 1, 54, 0
3, 101760, Note_on_c, 1, 52, 80
3, 102239, Note_on_c, 1, 52, 0
3, 104160, Note_on_c, 1, 47, 80
3, 104639, Note_on_c, 1, 47, 0
3, 104640, Note_on_c, 1, 49, 80
3, 105119, Note_on_c, 1, 49, 0
3, 105120, Note_on_c, 1, 50, 80
3, 105599, Note_on_c, 1, 50, 0
3, 105600, Note_on_c, 1, 52, 80
3, 106079, Note_on_c, 1, 52, 0
3, 106080, Note_on_c, 1, 57, 80
3, 107039, Note_on_c, 1, 57, 0
3, 107040, Note_on_c, 1, 62, 80
3, 107519, Note_on_c, 1, 62, 0
3, 107520, Note_on_c, 1, 64, 80
3, 108479, Note_on_c, 1, 64, 0
3, 108840, Note_on_c, 1, 59, 80
3, 108959, Note_on_c, 1, 59, 0
3, 108960, Note_on_c, 1, 57, 80
3, 109319, Note_on_c, 1, 57, 0
3, 109320, Note_on_c, 1, 56, 80
3, 109439, Note_on_c, 1, 56, 0
3, 109440, Note_on_c, 1, 54, 80
3, 109919, Note_on_c, 1, 54, 0
3, 109920, Note_on_c, 1, 62, 80
3, 110399, Note_on_c, 1, 62, 0
3, 110400, Note_on_c, 1, 60, 80
3, 110879, Note_on_c, 1, 60, 0
3, 110880, Note_on_c, 1, 61, 80
3, 111599, Note_on_c, 1, 61, 0
3, 113760, Note_on_c, 1, 61, 80
3, 114719, Note_on_c, 1, 61, 0
3, 114720, Note_on_c, 1, 60, 80
3, 115199, Note_on_c, 1, 60, 0
3, 115200, Note_on_c, 1, 61, 80
3, 116159, Note_on_c, 1, 61, 0
3, 116160, Note_on_c, 1, 63, 80
3, 117119, Note_on_c, 1, 63, 0
3, 117120, Note_on_c, 1, 56, 80
3, 117599, Note_on_c, 1, 56, 0
3, 117600, Note_on_c, 1, 58, 80
3, 117959, Note_on_c, 1, 58, 0
3, 117960, Note_on_c, 1, 60, 80
3, 118079, Note_on_c, 1, 60, 0
3, 118080, Note_on_c, 1, 61, 80
3, 118559, Note_on_c, 1, 61, 0
3, 119520, Note_on_c, 1, 51, 80
3, 119999, Note_on_c, 1, 51, 0
3, 120000, Note_on_c, 1, 52, 80
3, 120479, Note_on_c, 1, 52, 0
3, 120480, Note_on_c, 1, 54, 80
3, 120959, Note_on_c, 1, 54, 0
3, 120960, Note_on_c, 1, 56, 80
3, 121919, Note_on_c, 1, 56, 0
3, 123240, Note_on_c, 1, 56, 80
3, 123359, Note_on_c, 1, 56, 0
3, 123360, Note_on_c, 1, 58, 80
3, 123719, Note_on_c, 1, 58, 0
3, 123720, Note_on_c, 1, 60, 80
3, 123839, Note_on_c, 1, 60, 0
3, 123840, Note_on_c, 1, 61, 80
3, 124319, Note_on_c, 1, 61, 0
3, 124320, Note_on_c, 1, 53, 80
3, 124799, Note_on_c, 1, 53, 0
3, 124800, Note_on_c, 1, 54, 80
3, 125279, Note_on_c, 1, 54, 0
3, 131040, Note_on_c, 1, 56, 80
3, 131999, Note_on_c, 1, 56, 0
3, 132000, Note_on_c, 1, 61, 80
3, 132959, Note_on_c, 1, 61, 0
3, 132960, Note_on_c, 1, 59, 80
3, 133919, Note_on_c, 1, 59, 0
3, 133920, Note_on_c, 1, 56, 80
3, 134879, Note_on_c, 1, 56, 0
3, 134880, Note_on_c, 1, 55, 80
3, 135359, Note_on_c, 1, 55, 0
3, 135360, Note_on_c, 1, 56, 80
3, 135839, Note_on_c, 1, 56, 0
3, 135840, Note_on_c, 1, 58, 80
3, 136319, Note_on_c, 1, 58, 0
3, 136320, Note_on_c, 1, 59, 80
3, 137639, Note_on_c, 1, 59, 0
3, 137640, Note_on_c, 1, 61, 80
3, 137759, Note_on_c, 1, 61, 0
3, 137760, Note_on_c, 1, 60, 80
3, 138119, Note_on_c, 1, 60, 0
3, 138120, Note_on_c, 1, 58, 80
3, 138239, Note_on_c, 1, 58, 0
3, 138240, Note_on_c, 1, 56, 80
3, 139199, Note_on_c, 1, 56, 0
3, 139200, Note_on_c, 1, 57, 80
3, 140519, Note_on_c, 1, 57, 0
3, 140520, Note_on_c, 1, 57, 80
3, 140639, Note_on_c, 1, 57, 0
3, 140640, Note_on_c, 1, 56, 80
3, 140999, Note_on_c, 1, 56, 0
3, 141000, Note_on_c, 1, 54, 80
3, 141119, Note_on_c, 1, 54, 0
3, 141120, Note_on_c, 1, 52, 80
3, 141479, Note_on_c, 1, 52, 0
3, 141480, Note_on_c, 1, 51, 80
3, 141599, Note_on_c, 1, 51, 0
3, 141600, Note_on_c, 1, 49, 80
3, 141959, Note_on_c, 1, 49, 0
3, 141960, Note_on_c, 1, 48, 80
3, 142079, Note_on_c, 1, 48, 0
3, 142080, Note_on_c, 1, 49, 80
3, 142559, Note_on_c, 1, 49, 0
3, 142560, Note_on_c, 1, 51, 80
3, 142919, Note_on_c, 1, 51, 0
3, 142920, Note_on_c, 1, 53, 80
3, 143039, Note_on_c, 1, 53, 0
3, 143040, Note_on_c, 1, 54, 80
3, 143399, Note_on_c, 1, 54, 0
3, 143400, Note_on_c, 1, 52, 80
3, 143519, Note_on_c, 1, 52, 0
3, 143520, Note_on_c, 1, 51, 80
3, 143879, Note_on_c, 1, 51, 0
3, 143880, Note_on_c, 1, 49, 80
3, 143999, Note_on_c, 1, 49, 0
3, 144000, Note_on_c, 1, 48, 80
3, 144959, Note_on_c, 1, 48, 0
3, 144960, Note_on_c, 1, 49, 80
3, 145919, Note_on_c, 1, 49, 0
3, 145920, Note_on_c, 1, 51, 80
3, 146879, Note_on_c, 1, 51, 0
3, 146880, Note_on_c, 1, 52, 80
3, 147839, Note_on_c, 1, 52, 0
3, 147840, Note_on_c, 1, 51, 80
3, 148799, Note_on_c, 1, 51, 0
3, 149280, Note_on_c, 1, 56, 80
3, 149759, Note_on_c, 1, 56, 0
3, 149760, Note_on_c, 1, 56, 80
3, 150719, Note_on_c, 1, 56, 0
3, 152040, Note_on_c, 1, 49, 80
3, 152159, Note_on_c, 1, 49, 0
3, 152160, Note_on_c, 1, 51, 80
3, 152519, Note_on_c, 1, 51, 0
3, 152520, Note_on_c, 1, 52, 80
3, 152639, Note_on_c, 1, 52, 0
3, 152640, Note_on_c, 1, 54, 80
3, 152999, Note_on_c, 1, 54, 0
3, 153000, Note_on_c, 1, 56, 80
3, 153119, Note_on_c, 1, 56, 0
3, 153120, Note_on_c, 1, 54, 80
3, 153479, Note_on_c, 1, 54, 0
3, 153480, Note_on_c, 1, 52, 80
3, 153599, Note_on_c, 1, 52, 0
3, 153600, Note_on_c, 1, 51, 80
3, 153959, Note_on_c, 1, 51, 0
3, 153960, Note_on_c, 1, 54, 80
3, 154079, Note_on_c, 1, 54, 0
3, 154080, Note_on_c, 1, 52, 80
3, 154439, Note_on_c, 1, 52, 0
3, 154440, Note_on_c, 1, 51, 80
3, 154559, Note_on_c, 1, 51, 0
3, 154560, Note_on_c, 1, 49, 80
3, 155519, Note_on_c, 1, 49, 0
3, 155520, Note_on_c, 1, 48, 80
3, 155999, Note_on_c, 1, 48, 0
3, 156000, Note_on_c, 1, 49, 80
3, 156959, Note_on_c, 1, 49, 0
3, 156960, Note_on_c, 1, 48, 80
3, 157439, Note_on_c, 1, 48, 0
3, 157440, Note_on_c, 1, 49, 80
3, 157919, Note_on_c, 1, 49, 0
3, 157920, Note_on_c, 1, 51, 80
3, 158279, Note_on_c, 1, 51, 0
3, 158280, Note_on_c, 1, 53, 80
3, 158399, Note_on_c, 1, 53, 0
3, 158400, Note_on_c, 1, 54, 80
3, 159719, Note_on_c, 1, 54, 0
3, 159720, Note_on_c, 1, 53, 80
3, 159839, Note_on_c, 1, 53, 0
3, 159840, Note_on_c, 1, 54, 80
3, 160199, Note_on_c, 1, 54, 0
3, 160200, Note_on_c, 1, 51, 80
3, 160319, Note_on_c, 1, 51, 0
3, 160320, Note_on_c, 1, 53, 80
3, 161279, Note_on_c, 1, 53, 0
3, 161280, End_track
4, 0, Start_track
4, 0, Key_signature, 4, "major"
4, 0, Note_on_c, 1, 49, 80
4, 959, Note_on_c, 1, 49, 0
4, 960, Note_on_c, 1, 56, 80
4, 1919, Note_on_c, 1, 56, 0
4, 1920, Note_on_c, 1, 52, 80
4, 2879, Note_on_c, 1, 52, 0
4, 2880, Note_on_c, 1, 49, 80
4, 3839, Note_on_c, 1, 49, 0
4, 3840, Note_on_c, 1, 48, 80
4, 4799, Note_on_c, 1, 48, 0
4, 4800, Note_on_c, 1, 49, 80
4, 5279, Note_on_c, 1, 49, 0
4, 5280, Note_on_c, 1, 51, 80
4, 5759, Note_on_c, 1, 51, 0
4, 5760, Note_on_c, 1, 52, 80
4, 7079, Note_on_c, 1, 52, 0
4, 7080, Note_on_c, 1, 54, 80
4, 7199, Note_on_c, 1, 54, 0
4, 7200, Note_on_c, 1, 52, 80
4, 7559, Note_on_c, 1, 52, 0
4, 7560, Note_on_c, 1, 51, 80
4, 7679, Note_on_c, 1, 51, 0
4, 7680, Note_on_c, 1, 49, 80
4, 8039, Note_on_c, 1, 49, 0
4, 8040, Note_on_c, 1, 51, 80
4, 8159, Note_on_c, 1, 51, 0
4, 8160, Note_on_c, 1, 49, 80
4, 8519, Note_on_c, 1, 49, 0
4, 8520, Note_on_c, 1, 47, 80
4, 8999, Note_on_c, 1, 47, 0
4, 9000, Note_on_c, 1, 49, 80
4, 9119, Note_on_c, 1, 49, 0
4, 9120, Note_on_c, 1, 47, 80
4, 9479, Note_on_c, 1, 47, 0
4, 9480, Note_on_c, 1, 46, 80
4, 9959, Note_on_c, 1, 46, 0
4, 9960, Note_on_c, 1, 44, 80
4, 10079, Note_on_c, 1, 44, 0
4, 10080, Note_on_c, 1, 46, 80
4, 10439, Note_on_c, 1, 46, 0
4, 10440, Note_on_c, 1, 47, 80
4, 10559, Note_on_c, 1, 47, 0
4, 10560, Note_on_c, 1, 49, 80
4, 10919, Note_on_c, 1, 49, 0
4, 10920, Note_on_c, 1, 51, 80
4, 11039, Note_on_c, 1, 51, 0
4, 11040, Note_on_c, 1, 52, 80
4, 11399, Note_on_c, 1, 52, 0
4, 11400, Note_on_c, 1, 49, 80
4, 11519, Note_on_c, 1, 49, 0
4, 11520, Note_on_c, 1, 51, 80
4, 11879, Note_on_c, 1, 51, 0
4, 11880, Note_on_c, 1, 52, 80
4, 11999, Note_on_c, 1, 52, 0
4, 12000, Note_on_c, 1, 51, 80
4, 12359, Note_on_c, 1, 51, 0
4, 12360, Note_on_c, 1, 49, 80
4, 12479, Note_on_c, 1, 49, 0
4, 12480, Note_on_c, 1, 47, 80
4, 12839, Note_on_c, 1, 47, 0
4, 12840, Note_on_c, 1, 46, 80
4, 12959, Note_on_c, 1, 46, 0
4, 12960, Note_on_c, 1, 44, 80
4, 13319, Note_on_c, 1, 44, 0
4, 13320, Note_on_c, 1, 43, 80
4, 13439, Note_on_c, 1, 43, 0
4, 13440, Note_on_c, 1, 44, 80
4, 13799, Note_on_c, 1, 44, 0
4, 13800, Note_on_c, 1, 56, 80
4, 13919, Note_on_c, 1, 56, 0
4, 13920, Note_on_c, 1, 55, 80
4, 14279, Note_on_c, 1, 55, 0
4, 14280, Note_on_c, 1, 56, 80
4, 14399, Note_on_c, 1, 56, 0
4, 14400, Note_on_c, 1, 49, 80
4, 14879, Note_on_c, 1, 49, 0
4, 14880, Note_on_c, 1, 54, 80
4, 15719, Note_on_c, 1, 54, 0
4, 15720, Note_on_c, 1, 52, 80
4, 15839, Note_on_c, 1, 52, 0
4, 15840, Note_on_c, 1, 51, 80
4, 16199, Note_on_c, 1, 51, 0
4, 16200, Note_on_c, 1, 49, 80
4, 16319, Note_on_c, 1, 49, 0
4, 16320, Note_on_c, 1, 48, 80
4, 17279, Note_on_c, 1, 48, 0
4, 17280, Note_on_c, 1, 49, 80
4, 17759, Note_on_c, 1, 49, 0
4, 17760, Note_on_c, 1, 37, 80
4, 18239, Note_on_c, 1, 37, 0
4, 18240, Note_on_c, 1, 42, 80
4, 18599, Note_on_c, 1, 42, 0
4, 18600, Note_on_c, 1, 44, 80
4, 18719, Note_on_c, 1, 44, 0
4, 18720, Note_on_c, 1, 45, 80
4, 19559, Note_on_c, 1, 45, 0
4, 19560, Note_on_c, 1, 45, 80
4, 19679, Note_on_c, 1, 45, 0
4, 19680, Note_on_c, 1, 44, 80
4, 20039, Note_on_c, 1, 44, 0
4, 20040, Note_on_c, 1, 42, 80
4, 20159, Note_on_c, 1, 42, 0
4, 20160, Note_on_c, 1, 40, 80
4, 20639, Note_on_c, 1, 40, 0
4, 20640, Note_on_c, 1, 39, 80
4, 21119, Note_on_c, 1, 39, 0
4, 21120, Note_on_c, 1, 37, 80
4, 21479, Note_on_c, 1, 37, 0
4, 21480, Note_on_c, 1, 49, 80
4, 21599, Note_on_c, 1, 49, 0
4, 21600, Note_on_c, 1, 51, 80
4, 21959, Note_on_c, 1, 51, 0
4, 21960, Note_on_c, 1, 52, 80
4, 22079, Note_on_c, 1, 52, 0
4, 22080, Note_on_c, 1, 54, 80
4, 22439, Note_on_c, 1, 54, 0
4, 22440, Note_on_c, 1, 57, 80
4, 22559, Note_on_c, 1, 57, 0
4, 22560, Note_on_c, 1, 56, 80
4, 22919, Note_on_c, 1, 56, 0
4, 22920, Note_on_c, 1, 54, 80
4, 23039, Note_on_c, 1, 54, 0
4, 23040, Note_on_c, 1, 52, 80
4, 23399, Note_on_c, 1, 52, 0
4, 23400, Note_on_c, 1, 54, 80
4, 23519, Note_on_c, 1, 54, 0
4, 23520, Note_on_c, 1, 52, 80
4, 23879, Note_on_c, 1, 52, 0
4, 23880, Note_on_c, 1, 51, 80
4, 23999, Note_on_c, 1, 51, 0
4, 24000, Note_on_c, 1, 49, 80
4, 24359, Note_on_c, 1, 49, 0
4, 24360, Note_on_c, 1, 51, 80
4, 24479, Note_on_c, 1, 51, 0
4, 24480, Note_on_c, 1, 52, 80
4, 24839, Note_on_c, 1, 52, 0
4, 24840, Note_on_c, 1, 54, 80
4, 24959, Note_on_c, 1, 54, 0
4, 24960, Note_on_c, 1, 56, 80
4, 25919, Note_on_c, 1, 56, 0
4, 25920, Note_on_c, 1, 52, 80
4, 27239, Note_on_c, 1, 52, 0
4, 27240, Note_on_c, 1, 52, 80
4, 27359, Note_on_c, 1, 52, 0
4, 27360, Note_on_c, 1, 51, 80
4, 27719, Note_on_c, 1, 51, 0
4, 27720, Note_on_c, 1, 49, 80
4, 27839, Note_on_c, 1, 49, 0
4, 27840, Note_on_c, 1, 47, 80
4, 28319, Note_on_c, 1, 47, 0
4, 28320, Note_on_c, 1, 46, 80
4, 28799, Note_on_c, 1, 46, 0
4, 29160, Note_on_c, 1, 44, 80
4, 29279, Note_on_c, 1, 44, 0
4, 29280, Note_on_c, 1, 46, 80
4, 29639, Note_on_c, 1, 46, 0
4, 29640, Note_on_c, 1, 47, 80
4, 29759, Note_on_c, 1, 47, 0
4, 29760, Note_on_c, 1, 49, 80
4, 30239, Note_on_c, 1, 49, 0
4, 30240, Note_on_c, 1, 51, 80
4, 30719, Note_on_c, 1, 51, 0
4, 30720, Note_on_c, 1, 52, 80
4, 32039, Note_on_c, 1, 52, 0
4, 32040, Note_on_c, 1, 51, 80
4, 32159, Note_on_c, 1, 51, 0
4, 32160, Note_on_c, 1, 49, 80
4, 32519, Note_on_c, 1, 49, 0
4, 32520, Note_on_c, 1, 48, 80
4, 32639, Note_on_c, 1, 48, 0
4, 32640, Note_on_c, 1, 49, 80
4, 33959, Note_on_c, 1, 49, 0
4, 33960, Note_on_c, 1, 47, 80
4, 34079, Note_on_c, 1, 47, 0
4, 34080, Note_on_c, 1, 45, 80
4, 34439, Note_on_c, 1, 45, 0
4, 34440, Note_on_c, 1, 44, 80
4, 34559, Note_on_c, 1, 44, 0
4, 34560, Note_on_c, 1, 45, 80
4, 35879, Note_on_c, 1, 45, 0
4, 35880, Note_on_c, 1, 44, 80
4, 35999, Note_on_c, 1, 44, 0
4, 36000, Note_on_c, 1, 42, 80
4, 36359, Note_on_c, 1, 42, 0
4, 36360, Note_on_c, 1, 41, 80
4, 36479, Note_on_c, 1, 41, 0
4, 36480, Note_on_c, 1, 40, 80
4, 38159, Note_on_c, 1, 40, 0
4, 38160, Note_on_c, 1, 40, 80
4, 38399, Note_on_c, 1, 40, 0
4, 38400, Note_on_c, 1, 39, 80
4, 41279, Note_on_c, 1, 39, 0
4, 41280, Note_on_c, 1, 51, 80
4, 42239, Note_on_c, 1, 51, 0
4, 42240, Note_on_c, 1, 44, 80
4, 42719, Note_on_c, 1, 44, 0
4, 44520, Note_on_c, 1, 49, 80
4, 44639, Note_on_c, 1, 49, 0
4, 44640, Note_on_c, 1, 51, 80
4, 44999, Note_on_c, 1, 51, 0
4, 45000, Note_on_c, 1, 52, 80
4, 45119, Note_on_c, 1, 52, 0
4, 45120, Note_on_c, 1, 54, 80
4, 45479, Note_on_c, 1, 54, 0
4, 45480, Note_on_c, 1, 56, 80
4, 45599, Note_on_c, 1, 56, 0
4, 45600, Note_on_c, 1, 54, 80
4, 45959, Note_on_c, 1, 54, 0
4, 45960, Note_on_c, 1, 52, 80
4, 46079, Note_on_c, 1, 52, 0
4, 46080, Note_on_c, 1, 51, 80
4, 46439, Note_on_c, 1, 51, 0
4, 46440, Note_on_c, 1, 57, 80
4, 46559, Note_on_c, 1, 57, 0
4, 46560, Note_on_c, 1, 56, 80
4, 46919, Note_on_c, 1, 56, 0
4, 46920, Note_on_c, 1, 54, 80
4, 47039, Note_on_c, 1, 54, 0
4, 47040, Note_on_c, 1, 52, 80
4, 47399, Note_on_c, 1, 52, 0
4, 47400, Note_on_c, 1, 51, 80
4, 47519, Note_on_c, 1, 51, 0
4, 47520, Note_on_c, 1, 49, 80
4, 47879, Note_on_c, 1, 49, 0
4, 47880, Note_on_c, 1, 48, 80
4, 47999, Note_on_c, 1, 48, 0
4, 48000, Note_on_c, 1, 49, 80
4, 48479, Note_on_c, 1, 49, 0
4, 48480, Note_on_c, 1, 52, 80
4, 48959, Note_on_c, 1, 52, 0
4, 48960, Note_on_c, 1, 46, 80
4, 49439, Note_on_c, 1, 46, 0
4, 49440, Note_on_c, 1, 51, 80
4, 49919, Note_on_c, 1, 51, 0
4, 49920, Note_on_c, 1, 44, 80
4, 50879, Note_on_c, 1, 44, 0
4, 50880, Note_on_c, 1, 49, 80
4, 52199, Note_on_c, 1, 49, 0
4, 52200, Note_on_c, 1, 46, 80
4, 52319, Note_on_c, 1, 46, 0
4, 52320, Note_on_c, 1, 51, 80
4, 52679, Note_on_c, 1, 51, 0
4, 52680, Note_on_c, 1, 49, 80
4, 52799, Note_on_c, 1, 49, 0
4, 52800, Note_on_c, 1, 47, 80
4, 53279, Note_on_c, 1, 47, 0
4, 53280, Note_on_c, 1, 46, 80
4, 53759, Note_on_c, 1, 46, 0
4, 53760, Note_on_c, 1, 44, 80
4, 54239, Note_on_c, 1, 44, 0
4, 57600, Note_on_c, 1, 49, 80
4, 58559, Note_on_c, 1, 49, 0
4, 58560, Note_on_c, 1, 56, 80
4, 59519, Note_on_c, 1, 56, 0
4, 59520, Note_on_c, 1, 52, 80
4, 60479, Note_on_c, 1, 52, 0
4, 60480, Note_on_c, 1, 49, 80
4, 61439, Note_on_c, 1, 49, 0
4, 61440, Note_on_c, 1, 48, 80
4, 62399, Note_on_c, 1, 48, 0
4, 62400, Note_on_c, 1, 49, 80
4, 62879, Note_on_c, 1, 49, 0
4, 62880, Note_on_c, 1, 51, 80
4, 63359, Note_on_c, 1, 51, 0
4, 63360, Note_on_c, 1, 52, 80
4, 64679, Note_on_c, 1, 52, 0
4, 64680, Note_on_c, 1, 54, 80
4, 64799, Note_on_c, 1, 54, 0
4, 64800, Note_on_c, 1, 52, 80
4, 65159, Note_on_c, 1, 52, 0
4, 65160, Note_on_c, 1, 51, 80
4, 65279, Note_on_c, 1, 51, 0
4, 65280, Note_on_c, 1, 49, 80
4, 65759, Note_on_c, 1, 49, 0
4, 67680, Note_on_c, 1, 54, 80
4, 68519, Note_on_c, 1, 54, 0
4, 68520, Note_on_c, 1, 52, 80
4, 68639, Note_on_c, 1, 52, 0
4, 68640, Note_on_c, 1, 51, 80
4, 68999, Note_on_c, 1, 51, 0
4, 69000, Note_on_c, 1, 49, 80
4, 69119, Note_on_c, 1, 49, 0
4, 69120, Note_on_c, 1, 51, 80
4, 70079, Note_on_c, 1, 51, 0
4, 96360, Note_on_c, 1, 50, 80
4, 96479, Note_on_c, 1, 50, 0
4, 96480, Note_on_c, 1, 49, 80
4, 96839, Note_on_c, 1, 49, 0
4, 96840, Note_on_c, 1, 47, 80
4, 96959, Note_on_c, 1, 47, 0
4, 96960, Note_on_c, 1, 45, 80
4, 97319, Note_on_c, 1, 45, 0
4, 97320, Note_on_c, 1, 44, 80
4, 97439, Note_on_c, 1, 44, 0
4, 97440, Note_on_c, 1, 42, 80
4, 97799, Note_on_c, 1, 42, 0
4, 97800, Note_on_c, 1, 41, 80
4, 97919, Note_on_c, 1, 41, 0
4, 97920, Note_on_c, 1, 42, 80
4, 98279, Note_on_c, 1, 42, 0
4, 98280, Note_on_c, 1, 54, 80
4, 98399, Note_on_c, 1, 54, 0
4, 98400, Note_on_c, 1, 53, 80
4, 98759, Note_on_c, 1, 53, 0
4, 98760, Note_on_c, 1, 54, 80
4, 98879, Note_on_c, 1, 54, 0
4, 98880, Note_on_c, 1, 47, 80
4, 100799, Note_on_c, 1, 47, 0
4, 100800, Note_on_c, 1, 52, 80
4, 101759, Note_on_c, 1, 52, 0
4, 101760, Note_on_c, 1, 49, 80
4, 102719, Note_on_c, 1, 49, 0
4, 102720, Note_on_c, 1, 45, 80
4, 103679, Note_on_c, 1, 45, 0
4, 103680, Note_on_c, 1, 44, 80
4, 104639, Note_on_c, 1, 44, 0
4, 104640, Note_on_c, 1, 45, 80
4, 105119, Note_on_c, 1, 45, 0
4, 105120, Note_on_c, 1, 47, 80
4, 105599, Note_on_c, 1, 47, 0
4, 105600, Note_on_c, 1, 49, 80
4, 106919, Note_on_c, 1, 49, 0
4, 106920, Note_on_c, 1, 50, 80
4, 107039, Note_on_c, 1, 50, 0
4, 107040, Note_on_c, 1, 49, 80
4, 107399, Note_on_c, 1, 49, 0
4, 107400, Note_on_c, 1, 47, 80
4, 107519, Note_on_c, 1, 47, 0
4, 107520, Note_on_c, 1, 45, 80
4, 107879, Note_on_c, 1, 45, 0
4, 107880, Note_on_c, 1, 57, 80
4, 107999, Note_on_c, 1, 57, 0
4, 108000, Note_on_c, 1, 56, 80
4, 108359, Note_on_c, 1, 56, 0
4, 108360, Note_on_c, 1, 57, 80
4, 108479, Note_on_c, 1, 57, 0
4, 108480, Note_on_c, 1, 51, 80
4, 108959, Note_on_c, 1, 51, 0
4, 108960, Note_on_c, 1, 53, 80
4, 109439, Note_on_c, 1, 53, 0
4, 109440, Note_on_c, 1, 54, 80
4, 110759, Note_on_c, 1, 54, 0
4, 110760, Note_on_c, 1, 52, 80
4, 110879, Note_on_c, 1, 52, 0
4, 110880, Note_on_c, 1, 51, 80
4, 111239, Note_on_c, 1, 51, 0
4, 111240, Note_on_c, 1, 49, 80
4, 111359, Note_on_c, 1, 49, 0
4, 111360, Note_on_c, 1, 57, 80
4, 113279, Note_on_c, 1, 57, 0
4, 113280, Note_on_c, 1, 56, 80
4, 113759, Note_on_c, 1, 56, 0
4, 115200, Note_on_c, 1, 49, 80
4, 116159, Note_on_c, 1, 49, 0
4, 116160, Note_on_c, 1, 56, 80
4, 117119, Note_on_c, 1, 56, 0
4, 117120, Note_on_c, 1, 52, 80
4, 118079, Note_on_c, 1, 52, 0
4, 118080, Note_on_c, 1, 49, 80
4, 119039, Note_on_c, 1, 49, 0
4, 119040, Note_on_c, 1, 48, 80
4, 119999, Note_on_c, 1, 48, 0
4, 120000, Note_on_c, 1, 49, 80
4, 120479, Note_on_c, 1, 49, 0
4, 120480, Note_on_c, 1, 51, 80
4, 120959, Note_on_c, 1, 51, 0
4, 120960, Note_on_c, 1, 52, 80
4, 122279, Note_on_c, 1, 52, 0
4, 122280, Note_on_c, 1, 54, 80
4, 122399, Note_on_c, 1, 54, 0
4, 122400, Note_on_c, 1, 52, 80
4, 122759, Note_on_c, 1, 52, 0
4, 122760, Note_on_c, 1, 51, 80
4, 122879, Note_on_c, 1, 51, 0
4, 122880, Note_on_c, 1, 49, 80
4, 124199, Note_on_c, 1, 49, 0
4, 124200, Note_on_c, 1, 50, 80
4, 124319, Note_on_c, 1, 50, 0
4, 124320, Note_on_c, 1, 49, 80
4, 124679, Note_on_c, 1, 49, 0
4, 124680, Note_on_c, 1, 47, 80
4, 124799, Note_on_c, 1, 47, 0
4, 124800, Note_on_c, 1, 45, 80
4, 126119, Note_on_c, 1, 45, 0
4, 126120, Note_on_c, 1, 47, 80
4, 126239, Note_on_c, 1, 47, 0
4, 126240, Note_on_c, 1, 45, 80
4, 126599, Note_on_c, 1, 45, 0
4, 126600, Note_on_c, 1, 44, 80
4, 126719, Note_on_c, 1, 44, 0
4, 126720, Note_on_c, 1, 42, 80
4, 127079, Note_on_c, 1, 42, 0
4, 127080, Note_on_c, 1, 49, 80
4, 127199, Note_on_c, 1, 49, 0
4, 127200, Note_on_c, 1, 51, 80
4, 127559, Note_on_c, 1, 51, 0
4, 127560, Note_on_c, 1, 53, 80
4, 127679, Note_on_c, 1, 53, 0
4, 127680, Note_on_c, 1, 54, 80
4, 128039, Note_on_c, 1, 54, 0
4, 128040, Note_on_c, 1, 56, 80
4, 128159, Note_on_c, 1, 56, 0
4, 128160, Note_on_c, 1, 54, 80
4, 128519, Note_on_c, 1, 54, 0
4, 128520, Note_on_c, 1, 52, 80
4, 128639, Note_on_c, 1, 52, 0
4, 128640, Note_on_c, 1, 51, 80
4, 129119, Note_on_c, 1, 51, 0
4, 129120, Note_on_c, 1, 56, 80
4, 129599, Note_on_c, 1, 56, 0
4, 129600, Note_on_c, 1, 49, 80
4, 130079, Note_on_c, 1, 49, 0
4, 130080, Note_on_c, 1, 54, 80
4, 130559, Note_on_c, 1, 54, 0
4, 130560, Note_on_c, 1, 48, 80
4, 131519, Note_on_c, 1, 48, 0
4, 131520, Note_on_c, 1, 49, 80
4, 132479, Note_on_c, 1, 49, 0
4, 132480, Note_on_c, 1, 51, 80
4, 133439, Note_on_c, 1, 51, 0
4, 133440, Note_on_c, 1, 52, 80
4, 134399, Note_on_c, 1, 52, 0
4, 134400, Note_on_c, 1, 46, 80
4, 135359, Note_on_c, 1, 46, 0
4, 135360, Note_on_c, 1, 47, 80
4, 136799, Note_on_c, 1, 47, 0
4, 136800, Note_on_c, 1, 49, 80
4, 137279, Note_on_c, 1, 49, 0
4, 137280, Note_on_c, 1, 51, 80
4, 138239, Note_on_c, 1, 51, 0
4, 138240, Note_on_c, 1, 52, 80
4, 138719, Note_on_c, 1, 52, 0
4, 138720, Note_on_c, 1, 49, 80
4, 139199, Note_on_c, 1, 49, 0
4, 139200, Note_on_c, 1, 54, 80
4, 140639, Note_on_c, 1, 54, 0
4, 140640, Note_on_c, 1, 48, 80
4, 141119, Note_on_c, 1, 48, 0
4, 141120, Note_on_c, 1, 49, 80
4, 141599, Note_on_c, 1, 49, 0
4, 141600, Note_on_c, 1, 44, 80
4, 142079, Note_on_c, 1, 44, 0
4, 142080, Note_on_c, 1, 45, 80
4, 143519, Note_on_c, 1, 45, 0
4, 143520, Note_on_c, 1, 42, 80
4, 143999, Note_on_c, 1, 42, 0
4, 144000, Note_on_c, 1, 44, 80
4, 149159, Note_on_c, 1, 44, 0
4, 149160, Note_on_c, 1, 45, 80
4, 149279, Note_on_c, 1, 45, 0
4, 149280, Note_on_c, 1, 44, 80
4, 149639, Note_on_c, 1, 44, 0
4, 149640, Note_on_c, 1, 42, 80
4, 150119, Note_on_c, 1, 42, 0
4, 150120, Note_on_c, 1, 44, 80
4, 150239, Note_on_c, 1, 44, 0
4, 150240, Note_on_c, 1, 42, 80
4, 150599, Note_on_c, 1, 42, 0
4, 150600, Note_on_c, 1, 40, 80
4, 151079, Note_on_c, 1, 40, 0
4, 151080, Note_on_c, 1, 42, 80
4, 151199, Note_on_c, 1, 42, 0
4, 151200, Note_on_c, 1, 40, 80
4, 151559, Note_on_c, 1, 40, 0
4, 151560, Note_on_c, 1, 39, 80
4, 151679, Note_on_c, 1, 39, 0
4, 151680, Note_on_c, 1, 37, 80
4, 152159, Note_on_c, 1, 37, 0
4, 153000, Note_on_c, 1, 39, 80
4, 153119, Note_on_c, 1, 39, 0
4, 153120, Note_on_c, 1, 40, 80
4, 153479, Note_on_c, 1, 40, 0
4, 153480, Note_on_c, 1, 42, 80
4, 153599, Note_on_c, 1, 42, 0
4, 153600, Note_on_c, 1, 44, 80
4, 154559, Note_on_c, 1, 44, 0
4, 154920, Note_on_c, 1, 45, 80
4, 155039, Note_on_c, 1, 45, 0
4, 155040, Note_on_c, 1, 44, 80
4, 155399, Note_on_c, 1, 44, 0
4, 155400, Note_on_c, 1, 42, 80
4, 155519, Note_on_c, 1, 42, 0
4, 155520, Note_on_c, 1, 44, 80
4, 155879, Note_on_c, 1, 44, 0
4, 155880, Note_on_c, 1, 40, 80
4, 155999, Note_on_c, 1, 40, 0
4, 156000, Note_on_c, 1, 39, 80
4, 156359, Note_on_c, 1, 39, 0
4, 156360, Note_on_c, 1, 37, 80
4, 156479, Note_on_c, 1, 37, 0
4, 156480, Note_on_c, 1, 42, 80
4, 156959, Note_on_c, 1, 42, 0
4, 156960, Note_on_c, 1, 44, 80
4, 157439, Note_on_c, 1, 44, 0
4, 157440, Note_on_c, 1, 45, 80
4, 157799, Note_on_c, 1, 45, 0
4, 157800, Note_on_c, 1, 47, 80
4, 157919, Note_on_c, 1, 47, 0
4, 157920, Note_on_c, 1, 45, 80
4, 158279, Note_on_c, 1, 45, 0
4, 158280, Note_on_c, 1, 44, 80
4, 158399, Note_on_c, 1, 44, 0
4, 158400, Note_on_c, 1, 42, 80
4, 158759, Note_on_c, 1, 42, 0
4, 158760, Note_on_c, 1, 44, 80
4, 158879, Note_on_c, 1, 44, 0
4, 158880, Note_on_c, 1, 45, 80
4, 159239, Note_on_c, 1, 45, 0
4, 159240, Note_on_c, 1, 42, 80
4, 159359, Note_on_c, 1, 42, 0
4, 159360, Note_on_c, 1, 49, 80
4, 160319, Note_on_c, 1, 49, 0
4, 160320, Note_on_c, 1, 37, 80
4, 161279, Note_on_c, 1, 37, 0
4, 161280, End_track
0, 0, End_of_file
