0, 0, Header, 1, 4, 480
1, 0, Start_track
1, 0, Unknown_meta_event, 8, 47, 84, 104, 101, 32, 65, 114, 116, 32, 111, 102, 32, 70, 117, 103, 117, 101, 32, 67, 111, 110, 116, 114, 97, 112, 117, 110, 99, 116, 117, 115, 32, 73, 86, 32, 40, 65, 32, 61, 32, 52, 49, 53, 32, 72, 122, 41, 0
1, 0, Unknown_meta_event, 9, 9, 66, 87, 86, 32, 49, 48, 56, 48, 0
1, 0, Unknown_meta_event, 10, 11, 74, 46, 32, 83, 46, 32, 66, 97, 99, 104, 0
1, 0, Time_signature, 2, 1, 24, 8
1, 0, Key_signature, 4, "major"
1, 0, Program_c, 0, 46
1, 0, Note_on_c, 0, 68, 80
1, 2, Control_c, 0, 7, 100
1, 4, Control_c, 0, 10, 64
1, 6, Control_c, 0, 91, 30
1, 8, Control_c, 0, 93, 30
1, 959, Note_on_c, 0, 68, 0
1, 960, Note_on_c, 0, 61, 80
1, 1919, Note_on_c, 0, 61, 0
1, 1920, Note_on_c, 0, 64, 80
1, 2879, Note_on_c, 0, 64, 0
1, 2880, Note_on_c, 0, 68, 80
1, 3839, Note_on_c, 0, 68, 0
1, 3840, Note_on_c, 0, 69, 80
1, 4799, Note_on_c, 0, 69, 0
1, 4800, Note_on_c, 0, 68, 80
1, 5279, Note_on_c, 0, 68, 0
1, 5280, Note_on_c, 0, 66, 80
1, 5759, Note_on_c, 0, 66, 0
1, 5760, Note_on_c, 0, 64, 80
1, 6959, Note_on_c, 0, 64, 0
1, 6960, Note_on_c, 0, 63, 80
1, 7199, Note_on_c, 0, 63, 0
1, 7200, Note_on_c, 0, 64, 80
1, 7439, Note_on_c, 0, 64, 0
1, 7440, Note_on_c, 0, 66, 80
1, 7679, Note_on_c, 0, 66, 0
1, 7680, Note_on_c, 0, 68, 80
1, 8879, Note_on_c, 0, 68, 0
1, 8880, Note_on_c, 0, 69, 80
1, 9119, Note_on_c, 0, 69, 0
1, 9120, Note_on_c, 0, 68, 80
1, 9359, Note_on_c, 0, 68, 0
1, 9360, Note_on_c, 0, 67, 80
1, 9599, Note_on_c, 0, 67, 0
1, 9600, Note_on_c, 0, 68, 80
1, 10799, Note_on_c, 0, 68, 0
1, 10800, Note_on_c, 0, 69, 80
1, 11039, Note_on_c, 0, 69, 0
1, 11040, Note_on_c, 0, 68, 80
1, 11279, Note_on_c, 0, 68, 0
1, 11280, Note_on_c, 0, 67, 80
1, 11519, Note_on_c, 0, 67, 0
1, 11520, Note_on_c, 0, 68, 80
1, 11999, Note_on_c, 0, 68, 0
1, 12000, Note_on_c, 0, 73, 80
1, 12479, Note_on_c, 0, 73, 0
1, 12480, Note_on_c, 0, 66, 80
1, 12959, Note_on_c, 0, 66, 0
1, 12960, Note_on_c, 0, 69, 80
1, 13919, Note_on_c, 0, 69, 0
1, 13920, Note_on_c, 0, 63, 80
1, 14399, Note_on_c, 0, 63, 0
1, 14400, Note_on_c, 0, 68, 80
1, 14879, Note_on_c, 0, 68, 0
1, 14880, Note_on_c, 0, 66, 80
1, 15839, Note_on_c, 0, 66, 0
1, 15840, Note_on_c, 0, 64, 80
1, 16319, Note_on_c, 0, 64, 0
1, 16320, Note_on_c, 0, 69, 80
1, 17759, Note_on_c, 0, 69, 0
1, 17760, Note_on_c, 0, 68, 80
1, 18239, Note_on_c, 0, 68, 0
1, 18240, Note_on_c, 0, 73, 80
1, 19679, Note_on_c, 0, 73, 0
1, 19680, Note_on_c, 0, 71, 80
1, 20159, Note_on_c, 0, 71, 0
1, 20160, Note_on_c, 0, 69, 80
1, 21599, Note_on_c, 0, 69, 0
1, 21600, Note_on_c, 0, 68, 80
1, 21839, Note_on_c, 0, 68, 0
1, 21840, Note_on_c, 0, 66, 80
1, 22079, Note_on_c, 0, 66, 0
1, 22080, Note_on_c, 0, 64, 80
1, 23279, Note_on_c, 0, 64, 0
1, 23280, Note_on_c, 0, 76, 80
1, 23519, Note_on_c, 0, 76, 0
1, 23520, Note_on_c, 0, 75, 80
1, 23759, Note_on_c, 0, 75, 0
1, 23760, Note_on_c, 0, 73, 80
1, 23999, Note_on_c, 0, 73, 0
1, 24000, Note_on_c, 0, 75, 80
1, 24239, Note_on_c, 0, 75, 0
1, 24240, Note_on_c, 0, 76, 80
1, 24479, Note_on_c, 0, 76, 0
1, 24480, Note_on_c, 0, 78, 80
1, 24719, Note_on_c, 0, 78, 0
1, 24720, Note_on_c, 0, 75, 80
1, 24959, Note_on_c, 0, 75, 0
1, 24960, Note_on_c, 0, 80, 80
1, 25919, Note_on_c, 0, 80, 0
1, 26400, Note_on_c, 0, 68, 80
1, 26879, Note_on_c, 0, 68, 0
1, 26880, Note_on_c, 0, 64, 80
1, 28799, Note_on_c, 0, 64, 0
1, 28800, Note_on_c, 0, 63, 80
1, 29279, Note_on_c, 0, 63, 0
1, 29280, Note_on_c, 0, 75, 80
1, 29759, Note_on_c, 0, 75, 0
1, 29760, Note_on_c, 0, 71, 80
1, 30959, Note_on_c, 0, 71, 0
1, 30960, Note_on_c, 0, 71, 80
1, 31199, Note_on_c, 0, 71, 0
1, 31200, Note_on_c, 0, 70, 80
1, 31439, Note_on_c, 0, 70, 0
1, 31440, Note_on_c, 0, 68, 80
1, 31679, Note_on_c, 0, 68, 0
1, 31680, Note_on_c, 0, 70, 80
1, 31919, Note_on_c, 0, 70, 0
1, 31920, Note_on_c, 0, 72, 80
1, 32159, Note_on_c, 0, 72, 0
1, 32160, Note_on_c, 0, 73, 80
1, 32639, Note_on_c, 0, 73, 0
1, 32640, Note_on_c, 0, 75, 80
1, 33839, Note_on_c, 0, 75, 0
1, 33840, Note_on_c, 0, 72, 80
1, 34079, Note_on_c, 0, 72, 0
1, 34080, Note_on_c, 0, 73, 80
1, 34319, Note_on_c, 0, 73, 0
1, 34320, Note_on_c, 0, 75, 80
1, 34559, Note_on_c, 0, 75, 0
1, 34560, Note_on_c, 0, 68, 80
1, 35999, Note_on_c, 0, 68, 0
1, 36000, Note_on_c, 0, 73, 80
1, 36479, Note_on_c, 0, 73, 0
1, 36480, Note_on_c, 0, 69, 80
1, 37919, Note_on_c, 0, 69, 0
1, 37920, Note_on_c, 0, 71, 80
1, 38399, Note_on_c, 0, 71, 0
1, 38400, Note_on_c, 0, 68, 80
1, 39839, Note_on_c, 0, 68, 0
1, 39840, Note_on_c, 0, 69, 80
1, 40319, Note_on_c, 0, 69, 0
1, 40320, Note_on_c, 0, 66, 80
1, 41759, Note_on_c, 0, 66, 0
1, 41760, Note_on_c, 0, 68, 80
1, 42239, Note_on_c, 0, 68, 0
1, 42240, Note_on_c, 0, 64, 80
1, 43199, Note_on_c, 0, 64, 0
1, 49920, Note_on_c, 0, 71, 80
1, 50879, Note_on_c, 0, 71, 0
1, 50880, Note_on_c, 0, 64, 80
1, 51839, Note_on_c, 0, 64, 0
1, 51840, Note_on_c, 0, 68, 80
1, 52799, Note_on_c, 0, 68, 0
1, 52800, Note_on_c, 0, 71, 80
1, 53759, Note_on_c, 0, 71, 0
1, 53760, Note_on_c, 0, 73, 80
1, 54719, Note_on_c, 0, 73, 0
1, 54720, Note_on_c, 0, 71, 80
1, 55199, Note_on_c, 0, 71, 0
1, 55200, Note_on_c, 0, 69, 80
1, 55679, Note_on_c, 0, 69, 0
1, 55680, Note_on_c, 0, 68, 80
1, 56879, Note_on_c, 0, 68, 0
1, 56880, Note_on_c, 0, 66, 80
1, 57119, Note_on_c, 0, 66, 0
1, 57120, Note_on_c, 0, 68, 80
1, 57359, Note_on_c, 0, 68, 0
1, 57360, Note_on_c, 0, 70, 80
1, 57599, Note_on_c, 0, 70, 0
1, 57600, Note_on_c, 0, 71, 80
1, 58559, Note_on_c, 0, 71, 0
1, 60000, Note_on_c, 0, 75, 80
1, 60479, Note_on_c, 0, 75, 0
1, 60480, Note_on_c, 0, 71, 80
1, 61919, Note_on_c, 0, 71, 0
1, 61920, Note_on_c, 0, 70, 80
1, 62159, Note_on_c, 0, 70, 0
1, 62160, Note_on_c, 0, 71, 80
1, 62399, Note_on_c, 0, 71, 0
1, 62400, Note_on_c, 0, 73, 80
1, 63599, Note_on_c, 0, 73, 0
1, 63600, Note_on_c, 0, 66, 80
1, 63839, Note_on_c, 0, 66, 0
1, 63840, Note_on_c, 0, 68, 80
1, 64079, Note_on_c, 0, 68, 0
1, 64080, Note_on_c, 0, 70, 80
1, 64319, Note_on_c, 0, 70, 0
1, 64320, Note_on_c, 0, 71, 80
1, 65759, Note_on_c, 0, 71, 0
1, 65760, Note_on_c, 0, 73, 80
1, 66239, Note_on_c, 0, 73, 0
1, 66240, Note_on_c, 0, 69, 80
1, 67199, Note_on_c, 0, 69, 0
1, 67680, Note_on_c, 0, 73, 80
1, 68159, Note_on_c, 0, 73, 0
1, 68160, Note_on_c, 0, 69, 80
1, 68639, Note_on_c, 0, 69, 0
1, 68640, Note_on_c, 0, 81, 80
1, 69599, Note_on_c, 0, 81, 0
1, 69600, Note_on_c, 0, 80, 80
1, 69839, Note_on_c, 0, 80, 0
1, 69840, Note_on_c, 0, 78, 80
1, 70079, Note_on_c, 0, 78, 0
1, 70080, Note_on_c, 0, 80, 80
1, 70319, Note_on_c, 0, 80, 0
1, 70320, Note_on_c, 0, 78, 80
1, 70559, Note_on_c, 0, 78, 0
1, 70560, Note_on_c, 0, 77, 80
1, 70799, Note_on_c, 0, 77, 0
1, 70800, Note_on_c, 0, 80, 80
1, 71039, Note_on_c, 0, 80, 0
1, 71040, Note_on_c, 0, 73, 80
1, 71999, Note_on_c, 0, 73, 0
1, 72480, Note_on_c, 0, 73, 80
1, 72959, Note_on_c, 0, 73, 0
1, 72960, Note_on_c, 0, 69, 80
1, 73679, Note_on_c, 0, 69, 0
1, 73680, Note_on_c, 0, 69, 80
1, 73919, Note_on_c, 0, 69, 0
1, 73920, Note_on_c, 0, 68, 80
1, 74879, Note_on_c, 0, 68, 0
1, 75360, Note_on_c, 0, 80, 80
1, 75839, Note_on_c, 0, 80, 0
1, 75840, Note_on_c, 0, 76, 80
1, 76799, Note_on_c, 0, 76, 0
1, 77280, Note_on_c, 0, 78, 80
1, 77759, Note_on_c, 0, 78, 0
1, 77760, Note_on_c, 0, 72, 80
1, 77999, Note_on_c, 0, 72, 0
1, 78000, Note_on_c, 0, 73, 80
1, 78239, Note_on_c, 0, 73, 0
1, 78240, Note_on_c, 0, 75, 80
1, 78959, Note_on_c, 0, 75, 0
1, 78960, Note_on_c, 0, 68, 80
1, 79199, Note_on_c, 0, 68, 0
1, 79200, Note_on_c, 0, 70, 80
1, 79439, Note_on_c, 0, 70, 0
1, 79440, Note_on_c, 0, 72, 80
1, 79679, Note_on_c, 0, 72, 0
1, 79680, Note_on_c, 0, 73, 80
1, 80879, Note_on_c, 0, 73, 0
1, 80880, Note_on_c, 0, 70, 80
1, 81119, Note_on_c, 0, 70, 0
1, 81120, Note_on_c, 0, 71, 80
1, 81359, Note_on_c, 0, 71, 0
1, 81360, Note_on_c, 0, 73, 80
1, 81599, Note_on_c, 0, 73, 0
1, 81600, Note_on_c, 0, 75, 80
1, 82799, Note_on_c, 0, 75, 0
1, 82800, Note_on_c, 0, 78, 80
1, 83039, Note_on_c, 0, 78, 0
1, 83040, Note_on_c, 0, 76, 80
1, 83279, Note_on_c, 0, 76, 0
1, 83280, Note_on_c, 0, 75, 80
1, 83519, Note_on_c, 0, 75, 0
1, 83520, Note_on_c, 0, 73, 80
1, 84719, Note_on_c, 0, 73, 0
1, 84720, Note_on_c, 0, 76, 80
1, 84959, Note_on_c, 0, 76, 0
1, 84960, Note_on_c, 0, 75, 80
1, 85199, Note_on_c, 0, 75, 0
1, 85200, Note_on_c, 0, 73, 80
1, 85439, Note_on_c, 0, 73, 0
1, 85440, Note_on_c, 0, 71, 80
1, 86639, Note_on_c, 0, 71, 0
1, 86640, Note_on_c, 0, 75, 80
1, 86879, Note_on_c, 0, 75, 0
1, 86880, Note_on_c, 0, 73, 80
1, 87119, Note_on_c, 0, 73, 0
1, 87120, Note_on_c, 0, 71, 80
1, 87359, Note_on_c, 0, 71, 0
1, 87360, Note_on_c, 0, 70, 80
1, 88559, Note_on_c, 0, 70, 0
1, 88560, Note_on_c, 0, 68, 80
1, 88799, Note_on_c, 0, 68, 0
1, 88800, Note_on_c, 0, 67, 80
1, 89039, Note_on_c, 0, 67, 0
1, 89040, Note_on_c, 0, 70, 80
1, 89279, Note_on_c, 0, 70, 0
1, 89280, Note_on_c, 0, 68, 80
1, 89519, Note_on_c, 0, 68, 0
1, 89520, Note_on_c, 0, 70, 80
1, 89759, Note_on_c, 0, 70, 0
1, 89760, Note_on_c, 0, 71, 80
1, 90479, Note_on_c, 0, 71, 0
1, 90480, Note_on_c, 0, 70, 80
1, 90719, Note_on_c, 0, 70, 0
1, 90720, Note_on_c, 0, 68, 80
1, 90959, Note_on_c, 0, 68, 0
1, 90960, Note_on_c, 0, 71, 80
1, 91199, Note_on_c, 0, 71, 0
1, 91200, Note_on_c, 0, 70, 80
1, 91439, Note_on_c, 0, 70, 0
1, 91440, Note_on_c, 0, 71, 80
1, 91679, Note_on_c, 0, 71, 0
1, 91680, Note_on_c, 0, 73, 80
1, 92399, Note_on_c, 0, 73, 0
1, 92400, Note_on_c, 0, 71, 80
1, 92639, Note_on_c, 0, 71, 0
1, 92640, Note_on_c, 0, 70, 80
1, 92879, Note_on_c, 0, 70, 0
1, 92880, Note_on_c, 0, 73, 80
1, 93119, Note_on_c, 0, 73, 0
1, 93120, Note_on_c, 0, 71, 80
1, 93359, Note_on_c, 0, 71, 0
1, 93360, Note_on_c, 0, 73, 80
1, 93599, Note_on_c, 0, 73, 0
1, 93600, Note_on_c, 0, 75, 80
1, 94319, Note_on_c, 0, 75, 0
1, 94320, Note_on_c, 0, 73, 80
1, 94559, Note_on_c, 0, 73, 0
1, 94560, Note_on_c, 0, 72, 80
1, 94799, Note_on_c, 0, 72, 0
1, 94800, Note_on_c, 0, 75, 80
1, 95039, Note_on_c, 0, 75, 0
1, 95040, Note_on_c, 0, 73, 80
1, 95279, Note_on_c, 0, 73, 0
1, 95280, Note_on_c, 0, 75, 80
1, 95519, Note_on_c, 0, 75, 0
1, 95520, Note_on_c, 0, 76, 80
1, 96479, Note_on_c, 0, 76, 0
1, 96480, Note_on_c, 0, 75, 80
1, 97439, Note_on_c, 0, 75, 0
1, 97440, Note_on_c, 0, 73, 80
1, 97919, Note_on_c, 0, 73, 0
1, 97920, Note_on_c, 0, 71, 80
1, 98399, Note_on_c, 0, 71, 0
1, 98400, Note_on_c, 0, 80, 80
1, 99359, Note_on_c, 0, 80, 0
1, 99360, Note_on_c, 0, 79, 80
1, 99839, Note_on_c, 0, 79, 0
1, 99840, Note_on_c, 0, 80, 80
1, 100319, Note_on_c, 0, 80, 0
1, 100320, Note_on_c, 0, 75, 80
1, 100799, Note_on_c, 0, 75, 0
1, 100800, Note_on_c, 0, 71, 80
1, 101759, Note_on_c, 0, 71, 0
1, 102240, Note_on_c, 0, 71, 80
1, 102719, Note_on_c, 0, 71, 0
1, 102720, Note_on_c, 0, 68, 80
1, 103679, Note_on_c, 0, 68, 0
1, 104160, Note_on_c, 0, 80, 80
1, 104639, Note_on_c, 0, 80, 0
1, 104640, Note_on_c, 0, 76, 80
1, 105599, Note_on_c, 0, 76, 0
1, 106080, Note_on_c, 0, 76, 80
1, 106559, Note_on_c, 0, 76, 0
1, 106560, Note_on_c, 0, 73, 80
1, 107519, Note_on_c, 0, 73, 0
1, 107760, Note_on_c, 0, 83, 80
1, 107999, Note_on_c, 0, 83, 0
1, 108000, Note_on_c, 0, 81, 80
1, 108239, Note_on_c, 0, 81, 0
1, 108240, Note_on_c, 0, 80, 80
1, 108479, Note_on_c, 0, 80, 0
1, 108480, Note_on_c, 0, 78, 80
1, 108719, Note_on_c, 0, 78, 0
1, 108720, Note_on_c, 0, 76, 80
1, 108959, Note_on_c, 0, 76, 0
1, 108960, Note_on_c, 0, 75, 80
1, 109199, Note_on_c, 0, 75, 0
1, 109200, Note_on_c, 0, 73, 80
1, 109439, Note_on_c, 0, 73, 0
1, 109440, Note_on_c, 0, 71, 80
1, 109919, Note_on_c, 0, 71, 0
1, 109920, Note_on_c, 0, 73, 80
1, 110399, Note_on_c, 0, 73, 0
1, 110400, Note_on_c, 0, 69, 80
1, 111839, Note_on_c, 0, 69, 0
1, 111840, Note_on_c, 0, 78, 80
1, 112319, Note_on_c, 0, 78, 0
1, 112320, Note_on_c, 0, 75, 80
1, 113519, Note_on_c, 0, 75, 0
1, 113520, Note_on_c, 0, 80, 80
1, 113759, Note_on_c, 0, 80, 0
1, 113760, Note_on_c, 0, 78, 80
1, 113999, Note_on_c, 0, 78, 0
1, 114000, Note_on_c, 0, 76, 80
1, 114239, Note_on_c, 0, 76, 0
1, 114240, Note_on_c, 0, 75, 80
1, 114479, Note_on_c, 0, 75, 0
1, 114480, Note_on_c, 0, 73, 80
1, 114719, Note_on_c, 0, 73, 0
1, 114720, Note_on_c, 0, 71, 80
1, 114959, Note_on_c, 0, 71, 0
1, 114960, Note_on_c, 0, 69, 80
1, 115199, Note_on_c, 0, 69, 0
1, 115200, Note_on_c, 0, 68, 80
1, 115439, Note_on_c, 0, 68, 0
1, 115440, Note_on_c, 0, 76, 80
1, 115679, Note_on_c, 0, 76, 0
1, 115680, Note_on_c, 0, 75, 80
1, 115919, Note_on_c, 0, 75, 0
1, 115920, Note_on_c, 0, 74, 80
1, 116159, Note_on_c, 0, 74, 0
1, 116160, Note_on_c, 0, 75, 80
1, 117359, Note_on_c, 0, 75, 0
1, 117360, Note_on_c, 0, 76, 80
1, 117599, Note_on_c, 0, 76, 0
1, 117600, Note_on_c, 0, 75, 80
1, 117839, Note_on_c, 0, 75, 0
1, 117840, Note_on_c, 0, 74, 80
1, 118079, Note_on_c, 0, 74, 0
1, 118080, Note_on_c, 0, 75, 80
1, 119279, Note_on_c, 0, 75, 0
1, 119280, Note_on_c, 0, 78, 80
1, 119519, Note_on_c, 0, 78, 0
1, 119520, Note_on_c, 0, 77, 80
1, 119759, Note_on_c, 0, 77, 0
1, 119760, Note_on_c, 0, 75, 80
1, 119999, Note_on_c, 0, 75, 0
1, 120000, Note_on_c, 0, 77, 80
1, 120239, Note_on_c, 0, 77, 0
1, 120240, Note_on_c, 0, 78, 80
1, 120479, Note_on_c, 0, 78, 0
1, 120480, Note_on_c, 0, 80, 80
1, 120959, Note_on_c, 0, 80, 0
1, 120960, Note_on_c, 0, 73, 80
1, 122399, Note_on_c, 0, 73, 0
1, 122400, Note_on_c, 0, 73, 80
1, 122879, Note_on_c, 0, 73, 0
1, 122880, Note_on_c, 0, 69, 80
1, 124079, Note_on_c, 0, 69, 0
1, 124080, Note_on_c, 0, 74, 80
1, 124319, Note_on_c, 0, 74, 0
1, 124320, Note_on_c, 0, 73, 80
1, 124559, Note_on_c, 0, 73, 0
1, 124560, Note_on_c, 0, 72, 80
1, 124799, Note_on_c, 0, 72, 0
1, 124800, Note_on_c, 0, 73, 80
1, 125999, Note_on_c, 0, 73, 0
1, 126000, Note_on_c, 0, 74, 80
1, 126239, Note_on_c, 0, 74, 0
1, 126240, Note_on_c, 0, 73, 80
1, 126479, Note_on_c, 0, 73, 0
1, 126480, Note_on_c, 0, 72, 80
1, 126719, Note_on_c, 0, 72, 0
1, 126720, Note_on_c, 0, 73, 80
1, 127679, Note_on_c, 0, 73, 0
1, 145920, Note_on_c, 0, 75, 80
1, 146879, Note_on_c, 0, 75, 0
1, 146880, Note_on_c, 0, 68, 80
1, 147839, Note_on_c, 0, 68, 0
1, 147840, Note_on_c, 0, 71, 80
1, 148799, Note_on_c, 0, 71, 0
1, 148800, Note_on_c, 0, 75, 80
1, 149759, Note_on_c, 0, 75, 0
1, 149760, Note_on_c, 0, 78, 80
1, 150719, Note_on_c, 0, 78, 0
1, 150720, Note_on_c, 0, 77, 80
1, 151199, Note_on_c, 0, 77, 0
1, 151200, Note_on_c, 0, 75, 80
1, 151679, Note_on_c, 0, 75, 0
1, 151680, Note_on_c, 0, 74, 80
1, 152879, Note_on_c, 0, 74, 0
1, 152880, Note_on_c, 0, 70, 80
1, 153119, Note_on_c, 0, 70, 0
1, 153120, Note_on_c, 0, 72, 80
1, 153359, Note_on_c, 0, 72, 0
1, 153360, Note_on_c, 0, 74, 80
1, 153599, Note_on_c, 0, 74, 0
1, 153600, Note_on_c, 0, 75, 80
1, 154799, Note_on_c, 0, 75, 0
1, 154800, Note_on_c, 0, 76, 80
1, 155039, Note_on_c, 0, 76, 0
1, 155040, Note_on_c, 0, 78, 80
1, 155279, Note_on_c, 0, 78, 0
1, 155280, Note_on_c, 0, 75, 80
1, 155519, Note_on_c, 0, 75, 0
1, 155520, Note_on_c, 0, 76, 80
1, 155759, Note_on_c, 0, 76, 0
1, 155760, Note_on_c, 0, 75, 80
1, 155999, Note_on_c, 0, 75, 0
1, 156000, Note_on_c, 0, 73, 80
1, 156719, Note_on_c, 0, 73, 0
1, 156720, Note_on_c, 0, 75, 80
1, 156959, Note_on_c, 0, 75, 0
1, 156960, Note_on_c, 0, 76, 80
1, 157199, Note_on_c, 0, 76, 0
1, 157200, Note_on_c, 0, 73, 80
1, 157439, Note_on_c, 0, 73, 0
1, 157440, Note_on_c, 0, 75, 80
1, 157679, Note_on_c, 0, 75, 0
1, 157680, Note_on_c, 0, 73, 80
1, 157919, Note_on_c, 0, 73, 0
1, 157920, Note_on_c, 0, 71, 80
1, 158639, Note_on_c, 0, 71, 0
1, 158640, Note_on_c, 0, 73, 80
1, 158879, Note_on_c, 0, 73, 0
1, 158880, Note_on_c, 0, 74, 80
1, 159119, Note_on_c, 0, 74, 0
1, 159120, Note_on_c, 0, 71, 80
1, 159359, Note_on_c, 0, 71, 0
1, 159360, Note_on_c, 0, 73, 80
1, 159599, Note_on_c, 0, 73, 0
1, 159600, Note_on_c, 0, 71, 80
1, 159839, Note_on_c, 0, 71, 0
1, 159840, Note_on_c, 0, 70, 80
1, 160559, Note_on_c, 0, 70, 0
1, 160560, Note_on_c, 0, 71, 80
1, 160799, Note_on_c, 0, 71, 0
1, 160800, Note_on_c, 0, 73, 80
1, 161039, Note_on_c, 0, 73, 0
1, 161040, Note_on_c, 0, 70, 80
1, 161279, Note_on_c, 0, 70, 0
1, 161280, Note_on_c, 0, 71, 80
1, 164159, Note_on_c, 0, 71, 0
1, 164160, Note_on_c, 0, 70, 80
1, 165119, Note_on_c, 0, 70, 0
1, 165120, Note_on_c, 0, 71, 80
1, 166079, Note_on_c, 0, 71, 0
1, 166560, Note_on_c, 0, 71, 80
1, 167039, Note_on_c, 0, 71, 0
1, 167040, Note_on_c, 0, 68, 80
1, 167999, Note_on_c, 0, 68, 0
1, 168480, Note_on_c, 0, 80, 80
1, 168959, Note_on_c, 0, 80, 0
1, 168960, Note_on_c, 0, 76, 80
1, 169919, Note_on_c, 0, 76, 0
1, 170400, Note_on_c, 0, 73, 80
1, 170879, Note_on_c, 0, 73, 0
1, 170880, Note_on_c, 0, 70, 80
1, 171839, Note_on_c, 0, 70, 0
1, 172320, Note_on_c, 0, 73, 80
1, 172799, Note_on_c, 0, 73, 0
1, 172800, Note_on_c, 0, 78, 80
1, 175919, Note_on_c, 0, 78, 0
1, 175920, Note_on_c, 0, 78, 80
1, 176159, Note_on_c, 0, 78, 0
1, 176160, Note_on_c, 0, 76, 80
1, 176399, Note_on_c, 0, 76, 0
1, 176400, Note_on_c, 0, 75, 80
1, 176639, Note_on_c, 0, 75, 0
1, 176640, Note_on_c, 0, 76, 80
1, 177599, Note_on_c, 0, 76, 0
1, 177840, Note_on_c, 0, 78, 80
1, 178079, Note_on_c, 0, 78, 0
1, 178080, Note_on_c, 0, 80, 80
1, 178319, Note_on_c, 0, 80, 0
1, 178320, Note_on_c, 0, 81, 80
1, 178559, Note_on_c, 0, 81, 0
1, 178560, Note_on_c, 0, 83, 80
1, 178799, Note_on_c, 0, 83, 0
1, 178800, Note_on_c, 0, 76, 80
1, 179039, Note_on_c, 0, 76, 0
1, 179040, Note_on_c, 0, 74, 80
1, 179279, Note_on_c, 0, 74, 0
1, 179280, Note_on_c, 0, 73, 80
1, 179519, Note_on_c, 0, 73, 0
1, 179520, Note_on_c, 0, 74, 80
1, 180959, Note_on_c, 0, 74, 0
1, 180960, Note_on_c, 0, 73, 80
1, 181439, Note_on_c, 0, 73, 0
1, 181680, Note_on_c, 0, 75, 80
1, 181919, Note_on_c, 0, 75, 0
1, 181920, Note_on_c, 0, 77, 80
1, 182159, Note_on_c, 0, 77, 0
1, 182160, Note_on_c, 0, 78, 80
1, 182399, Note_on_c, 0, 78, 0
1, 182400, Note_on_c, 0, 80, 80
1, 182639, Note_on_c, 0, 80, 0
1, 182640, Note_on_c, 0, 73, 80
1, 182879, Note_on_c, 0, 73, 0
1, 182880, Note_on_c, 0, 71, 80
1, 183119, Note_on_c, 0, 71, 0
1, 183120, Note_on_c, 0, 69, 80
1, 183359, Note_on_c, 0, 69, 0
1, 183360, Note_on_c, 0, 71, 80
1, 184559, Note_on_c, 0, 71, 0
1, 184560, Note_on_c, 0, 69, 80
1, 184799, Note_on_c, 0, 69, 0
1, 184800, Note_on_c, 0, 71, 80
1, 185039, Note_on_c, 0, 71, 0
1, 185040, Note_on_c, 0, 74, 80
1, 185279, Note_on_c, 0, 74, 0
1, 185280, Note_on_c, 0, 73, 80
1, 186719, Note_on_c, 0, 73, 0
1, 186720, Note_on_c, 0, 71, 80
1, 186959, Note_on_c, 0, 71, 0
1, 186960, Note_on_c, 0, 73, 80
1, 187199, Note_on_c, 0, 73, 0
1, 187200, Note_on_c, 0, 74, 80
1, 188639, Note_on_c, 0, 74, 0
1, 188640, Note_on_c, 0, 73, 80
1, 188879, Note_on_c, 0, 73, 0
1, 188880, Note_on_c, 0, 74, 80
1, 189119, Note_on_c, 0, 74, 0
1, 189120, Note_on_c, 0, 76, 80
1, 190559, Note_on_c, 0, 76, 0
1, 190560, Note_on_c, 0, 74, 80
1, 190799, Note_on_c, 0, 74, 0
1, 190800, Note_on_c, 0, 76, 80
1, 191039, Note_on_c, 0, 76, 0
1, 191040, Note_on_c, 0, 78, 80
1, 192479, Note_on_c, 0, 78, 0
1, 192480, Note_on_c, 0, 76, 80
1, 192719, Note_on_c, 0, 76, 0
1, 192720, Note_on_c, 0, 78, 80
1, 192959, Note_on_c, 0, 78, 0
1, 192960, Note_on_c, 0, 80, 80
1, 194159, Note_on_c, 0, 80, 0
1, 194160, Note_on_c, 0, 73, 80
1, 194399, Note_on_c, 0, 73, 0
1, 194400, Note_on_c, 0, 78, 80
1, 195359, Note_on_c, 0, 78, 0
1, 195360, Note_on_c, 0, 77, 80
1, 195839, Note_on_c, 0, 77, 0
1, 195840, Note_on_c, 0, 78, 80
1, 196319, Note_on_c, 0, 78, 0
1, 197280, Note_on_c, 0, 78, 80
1, 197759, Note_on_c, 0, 78, 0
1, 197760, Note_on_c, 0, 75, 80
1, 198719, Note_on_c, 0, 75, 0
1, 198960, Note_on_c, 0, 76, 80
1, 199199, Note_on_c, 0, 76, 0
1, 199200, Note_on_c, 0, 75, 80
1, 199439, Note_on_c, 0, 75, 0
1, 199440, Note_on_c, 0, 73, 80
1, 199679, Note_on_c, 0, 73, 0
1, 199680, Note_on_c, 0, 71, 80
1, 200639, Note_on_c, 0, 71, 0
1, 201120, Note_on_c, 0, 71, 80
1, 201599, Note_on_c, 0, 71, 0
1, 201600, Note_on_c, 0, 68, 80
1, 202559, Note_on_c, 0, 68, 0
1, 202800, Note_on_c, 0, 78, 80
1, 203039, Note_on_c, 0, 78, 0
1, 203040, Note_on_c, 0, 76, 80
1, 203279, Note_on_c, 0, 76, 0
1, 203280, Note_on_c, 0, 75, 80
1, 203519, Note_on_c, 0, 75, 0
1, 203520, Note_on_c, 0, 73, 80
1, 203759, Note_on_c, 0, 73, 0
1, 203760, Note_on_c, 0, 74, 80
1, 203999, Note_on_c, 0, 74, 0
1, 204000, Note_on_c, 0, 73, 80
1, 204239, Note_on_c, 0, 73, 0
1, 204240, Note_on_c, 0, 72, 80
1, 204479, Note_on_c, 0, 72, 0
1, 204480, Note_on_c, 0, 73, 80
1, 205679, Note_on_c, 0, 73, 0
1, 205680, Note_on_c, 0, 74, 80
1, 205919, Note_on_c, 0, 74, 0
1, 205920, Note_on_c, 0, 73, 80
1, 206159, Note_on_c, 0, 73, 0
1, 206160, Note_on_c, 0, 72, 80
1, 206399, Note_on_c, 0, 72, 0
1, 206400, Note_on_c, 0, 73, 80
1, 207599, Note_on_c, 0, 73, 0
1, 207600, Note_on_c, 0, 74, 80
1, 207839, Note_on_c, 0, 74, 0
1, 207840, Note_on_c, 0, 73, 80
1, 208079, Note_on_c, 0, 73, 0
1, 208080, Note_on_c, 0, 72, 80
1, 208319, Note_on_c, 0, 72, 0
1, 208320, Note_on_c, 0, 73, 80
1, 209039, Note_on_c, 0, 73, 0
1, 209040, Note_on_c, 0, 75, 80
1, 209279, Note_on_c, 0, 75, 0
1, 209280, Note_on_c, 0, 76, 80
1, 209759, Note_on_c, 0, 76, 0
1, 209760, Note_on_c, 0, 80, 80
1, 210239, Note_on_c, 0, 80, 0
1, 210240, Note_on_c, 0, 76, 80
1, 210719, Note_on_c, 0, 76, 0
1, 211200, Note_on_c, 0, 73, 80
1, 211679, Note_on_c, 0, 73, 0
1, 211680, Note_on_c, 0, 68, 80
1, 212639, Note_on_c, 0, 68, 0
1, 212640, Note_on_c, 0, 71, 80
1, 213599, Note_on_c, 0, 71, 0
1, 213600, Note_on_c, 0, 75, 80
1, 214559, Note_on_c, 0, 75, 0
1, 214560, Note_on_c, 0, 76, 80
1, 215519, Note_on_c, 0, 76, 0
1, 215520, Note_on_c, 0, 75, 80
1, 216479, Note_on_c, 0, 75, 0
1, 216480, Note_on_c, 0, 73, 80
1, 217439, Note_on_c, 0, 73, 0
1, 217440, Note_on_c, 0, 72, 80
1, 218159, Note_on_c, 0, 72, 0
1, 218160, Note_on_c, 0, 68, 80
1, 218399, Note_on_c, 0, 68, 0
1, 218400, Note_on_c, 0, 70, 80
1, 218639, Note_on_c, 0, 70, 0
1, 218640, Note_on_c, 0, 72, 80
1, 218879, Note_on_c, 0, 72, 0
1, 218880, Note_on_c, 0, 73, 80
1, 219839, Note_on_c, 0, 73, 0
1, 220320, Note_on_c, 0, 73, 80
1, 220799, Note_on_c, 0, 73, 0
1, 220800, Note_on_c, 0, 69, 80
1, 221759, Note_on_c, 0, 69, 0
1, 222960, Note_on_c, 0, 69, 80
1, 223199, Note_on_c, 0, 69, 0
1, 223200, Note_on_c, 0, 71, 80
1, 223439, Note_on_c, 0, 71, 0
1, 223440, Note_on_c, 0, 73, 80
1, 223679, Note_on_c, 0, 73, 0
1, 223680, Note_on_c, 0, 71, 80
1, 223919, Note_on_c, 0, 71, 0
1, 223920, Note_on_c, 0, 69, 80
1, 224159, Note_on_c, 0, 69, 0
1, 224160, Note_on_c, 0, 68, 80
1, 224399, Note_on_c, 0, 68, 0
1, 224400, Note_on_c, 0, 66, 80
1, 224639, Note_on_c, 0, 66, 0
1, 224640, Note_on_c, 0, 68, 80
1, 227039, Note_on_c, 0, 68, 0
1, 227040, Note_on_c, 0, 66, 80
1, 227519, Note_on_c, 0, 66, 0
1, 227520, Note_on_c, 0, 71, 80
1, 228959, Note_on_c, 0, 71, 0
1, 228960, Note_on_c, 0, 68, 80
1, 229439, Note_on_c, 0, 68, 0
1, 229440, Note_on_c, 0, 73, 80
1, 230879, Note_on_c, 0, 73, 0
1, 230880, Note_on_c, 0, 70, 80
1, 231359, Note_on_c, 0, 70, 0
1, 231360, Note_on_c, 0, 75, 80
1, 232559, Note_on_c, 0, 75, 0
1, 232560, Note_on_c, 0, 76, 80
1, 232799, Note_on_c, 0, 76, 0
1, 232800, Note_on_c, 0, 78, 80
1, 233039, Note_on_c, 0, 78, 0
1, 233040, Note_on_c, 0, 73, 80
1, 233279, Note_on_c, 0, 73, 0
1, 233280, Note_on_c, 0, 72, 80
1, 233519, Note_on_c, 0, 72, 0
1, 233520, Note_on_c, 0, 81, 80
1, 233759, Note_on_c, 0, 81, 0
1, 233760, Note_on_c, 0, 80, 80
1, 233999, Note_on_c, 0, 80, 0
1, 234000, Note_on_c, 0, 78, 80
1, 234239, Note_on_c, 0, 78, 0
1, 234240, Note_on_c, 0, 76, 80
1, 236639, Note_on_c, 0, 76, 0
1, 236640, Note_on_c, 0, 75, 80
1, 236879, Note_on_c, 0, 75, 0
1, 236880, Note_on_c, 0, 73, 80
1, 237119, Note_on_c, 0, 73, 0
1, 237120, Note_on_c, 0, 75, 80
1, 238559, Note_on_c, 0, 75, 0
1, 238560, Note_on_c, 0, 73, 80
1, 238799, Note_on_c, 0, 73, 0
1, 238800, Note_on_c, 0, 72, 80
1, 239039, Note_on_c, 0, 72, 0
1, 239040, Note_on_c, 0, 73, 80
1, 240479, Note_on_c, 0, 73, 0
1, 240480, Note_on_c, 0, 71, 80
1, 240719, Note_on_c, 0, 71, 0
1, 240720, Note_on_c, 0, 69, 80
1, 240959, Note_on_c, 0, 69, 0
1, 240960, Note_on_c, 0, 71, 80
1, 243119, Note_on_c, 0, 71, 0
1, 243120, Note_on_c, 0, 69, 80
1, 243359, Note_on_c, 0, 69, 0
1, 243360, Note_on_c, 0, 71, 80
1, 243599, Note_on_c, 0, 71, 0
1, 243600, Note_on_c, 0, 68, 80
1, 243839, Note_on_c, 0, 68, 0
1, 243840, Note_on_c, 0, 69, 80
1, 244079, Note_on_c, 0, 69, 0
1, 244080, Note_on_c, 0, 73, 80
1, 244319, Note_on_c, 0, 73, 0
1, 244320, Note_on_c, 0, 74, 80
1, 244559, Note_on_c, 0, 74, 0
1, 244560, Note_on_c, 0, 71, 80
1, 244799, Note_on_c, 0, 71, 0
1, 244800, Note_on_c, 0, 73, 80
1, 245039, Note_on_c, 0, 73, 0
1, 245040, Note_on_c, 0, 78, 80
1, 245279, Note_on_c, 0, 78, 0
1, 245280, Note_on_c, 0, 73, 80
1, 245519, Note_on_c, 0, 73, 0
1, 245520, Note_on_c, 0, 71, 80
1, 245999, Note_on_c, 0, 71, 0
1, 246000, Note_on_c, 0, 69, 80
1, 246239, Note_on_c, 0, 69, 0
1, 246240, Note_on_c, 0, 71, 80
1, 246479, Note_on_c, 0, 71, 0
1, 246480, Note_on_c, 0, 74, 80
1, 246719, Note_on_c, 0, 74, 0
1, 246720, Note_on_c, 0, 73, 80
1, 246959, Note_on_c, 0, 73, 0
1, 246960, Note_on_c, 0, 71, 80
1, 247199, Note_on_c, 0, 71, 0
1, 247200, Note_on_c, 0, 69, 80
1, 247439, Note_on_c, 0, 69, 0
1, 247440, Note_on_c, 0, 68, 80
1, 247679, Note_on_c, 0, 68, 0
1, 247680, Note_on_c, 0, 66, 80
1, 247919, Note_on_c, 0, 66, 0
1, 247920, Note_on_c, 0, 65, 80
1, 248159, Note_on_c, 0, 65, 0
1, 248160, Note_on_c, 0, 66, 80
1, 248639, Note_on_c, 0, 66, 0
1, 249120, Note_on_c, 0, 68, 80
1, 249599, Note_on_c, 0, 68, 0
1, 249600, Note_on_c, 0, 67, 80
1, 250559, Note_on_c, 0, 67, 0
1, 250560, Note_on_c, 0, 68, 80
1, 251039, Note_on_c, 0, 68, 0
1, 252720, Note_on_c, 0, 80, 80
1, 252959, Note_on_c, 0, 80, 0
1, 252960, Note_on_c, 0, 78, 80
1, 253199, Note_on_c, 0, 78, 0
1, 253200, Note_on_c, 0, 75, 80
1, 253439, Note_on_c, 0, 75, 0
1, 253440, Note_on_c, 0, 76, 80
1, 253679, Note_on_c, 0, 76, 0
1, 253680, Note_on_c, 0, 80, 80
1, 253919, Note_on_c, 0, 80, 0
1, 253920, Note_on_c, 0, 73, 80
1, 254159, Note_on_c, 0, 73, 0
1, 254160, Note_on_c, 0, 72, 80
1, 254399, Note_on_c, 0, 72, 0
1, 254400, Note_on_c, 0, 73, 80
1, 255599, Note_on_c, 0, 73, 0
1, 255600, Note_on_c, 0, 76, 80
1, 255839, Note_on_c, 0, 76, 0
1, 255840, Note_on_c, 0, 75, 80
1, 256079, Note_on_c, 0, 75, 0
1, 256080, Note_on_c, 0, 73, 80
1, 256319, Note_on_c, 0, 73, 0
1, 256320, Note_on_c, 0, 72, 80
1, 256559, Note_on_c, 0, 72, 0
1, 256560, Note_on_c, 0, 73, 80
1, 256799, Note_on_c, 0, 73, 0
1, 256800, Note_on_c, 0, 70, 80
1, 257039, Note_on_c, 0, 70, 0
1, 257040, Note_on_c, 0, 72, 80
1, 257279, Note_on_c, 0, 72, 0
1, 257280, Note_on_c, 0, 73, 80
1, 257999, Note_on_c, 0, 73, 0
1, 258000, Note_on_c, 0, 72, 80
1, 258239, Note_on_c, 0, 72, 0
1, 258240, Note_on_c, 0, 73, 80
1, 258959, Note_on_c, 0, 73, 0
1, 258960, Note_on_c, 0, 72, 80
1, 259199, Note_on_c, 0, 72, 0
1, 259200, Note_on_c, 0, 73, 80
1, 259919, Note_on_c, 0, 73, 0
1, 259920, Note_on_c, 0, 74, 80
1, 260159, Note_on_c, 0, 74, 0
1, 260160, Note_on_c, 0, 68, 80
1, 260639, Note_on_c, 0, 68, 0
1, 261360, Note_on_c, 0, 73, 80
1, 261599, Note_on_c, 0, 73, 0
1, 261600, Note_on_c, 0, 75, 80
1, 261839, Note_on_c, 0, 75, 0
1, 261840, Note_on_c, 0, 78, 80
1, 262079, Note_on_c, 0, 78, 0
1, 262080, Note_on_c, 0, 72, 80
1, 263039, Note_on_c, 0, 72, 0
1, 263040, Note_on_c, 0, 73, 80
1, 264959, Note_on_c, 0, 73, 0
1, 264960, End_track
2, 0, Start_track
2, 0, Key_signature, 4, "major"
2, 7680, Note_on_c, 0, 61, 80
2, 8639, Note_on_c, 0, 61, 0
2, 8640, Note_on_c, 0, 56, 80
2, 9599, Note_on_c, 0, 56, 0
2, 9600, Note_on_c, 0, 59, 80
2, 10559, Note_on_c, 0, 59, 0
2, 10560, Note_on_c, 0, 63, 80
2, 11519, Note_on_c, 0, 63, 0
2, 11520, Note_on_c, 0, 64, 80
2, 12479, Note_on_c, 0, 64, 0
2, 12480, Note_on_c, 0, 63, 80
2, 12959, Note_on_c, 0, 63, 0
2, 12960, Note_on_c, 0, 61, 80
2, 13439, Note_on_c, 0, 61, 0
2, 13440, Note_on_c, 0, 60, 80
2, 14639, Note_on_c, 0, 60, 0
2, 14640, Note_on_c, 0, 56, 80
2, 14879, Note_on_c, 0, 56, 0
2, 14880, Note_on_c, 0, 58, 80
2, 15119, Note_on_c, 0, 58, 0
2, 15120, Note_on_c, 0, 60, 80
2, 15359, Note_on_c, 0, 60, 0
2, 15360, Note_on_c, 0, 61, 80
2, 16559, Note_on_c, 0, 61, 0
2, 16560, Note_on_c, 0, 59, 80
2, 16799, Note_on_c, 0, 59, 0
2, 16800, Note_on_c, 0, 61, 80
2, 17039, Note_on_c, 0, 61, 0
2, 17040, Note_on_c, 0, 63, 80
2, 17279, Note_on_c, 0, 63, 0
2, 17280, Note_on_c, 0, 64, 80
2, 18479, Note_on_c, 0, 64, 0
2, 18480, Note_on_c, 0, 63, 80
2, 18719, Note_on_c, 0, 63, 0
2, 18720, Note_on_c, 0, 64, 80
2, 18959, Note_on_c, 0, 64, 0
2, 18960, Note_on_c, 0, 66, 80
2, 19199, Note_on_c, 0, 66, 0
2, 19200, Note_on_c, 0, 68, 80
2, 20399, Note_on_c, 0, 68, 0
2, 20400, Note_on_c, 0, 66, 80
2, 20639, Note_on_c, 0, 66, 0
2, 20640, Note_on_c, 0, 64, 80
2, 20879, Note_on_c, 0, 64, 0
2, 20880, Note_on_c, 0, 63, 80
2, 21119, Note_on_c, 0, 63, 0
2, 21120, Note_on_c, 0, 61, 80
2, 22319, Note_on_c, 0, 61, 0
2, 22320, Note_on_c, 0, 63, 80
2, 22559, Note_on_c, 0, 63, 0
2, 22560, Note_on_c, 0, 61, 80
2, 22799, Note_on_c, 0, 61, 0
2, 22800, Note_on_c, 0, 60, 80
2, 23039, Note_on_c, 0, 60, 0
2, 23040, Note_on_c, 0, 61, 80
2, 23519, Note_on_c, 0, 61, 0
2, 23520, Note_on_c, 0, 66, 80
2, 23999, Note_on_c, 0, 66, 0
2, 24000, Note_on_c, 0, 60, 80
2, 24479, Note_on_c, 0, 60, 0
2, 24480, Note_on_c, 0, 63, 80
2, 25439, Note_on_c, 0, 63, 0
2, 25440, Note_on_c, 0, 56, 80
2, 25919, Note_on_c, 0, 56, 0
2, 25920, Note_on_c, 0, 61, 80
2, 27119, Note_on_c, 0, 61, 0
2, 27120, Note_on_c, 0, 62, 80
2, 27359, Note_on_c, 0, 62, 0
2, 27360, Note_on_c, 0, 61, 80
2, 27599, Note_on_c, 0, 61, 0
2, 27600, Note_on_c, 0, 60, 80
2, 27839, Note_on_c, 0, 60, 0
2, 27840, Note_on_c, 0, 61, 80
2, 28319, Note_on_c, 0, 61, 0
2, 28320, Note_on_c, 0, 73, 80
2, 29279, Note_on_c, 0, 73, 0
2, 29280, Note_on_c, 0, 71, 80
2, 29519, Note_on_c, 0, 71, 0
2, 29520, Note_on_c, 0, 70, 80
2, 29759, Note_on_c, 0, 70, 0
2, 29760, Note_on_c, 0, 68, 80
2, 29999, Note_on_c, 0, 68, 0
2, 30000, Note_on_c, 0, 66, 80
2, 30239, Note_on_c, 0, 66, 0
2, 30240, Note_on_c, 0, 64, 80
2, 30479, Note_on_c, 0, 64, 0
2, 30480, Note_on_c, 0, 63, 80
2, 30719, Note_on_c, 0, 63, 0
2, 30720, Note_on_c, 0, 61, 80
2, 31199, Note_on_c, 0, 61, 0
2, 31200, Note_on_c, 0, 66, 80
2, 31919, Note_on_c, 0, 66, 0
2, 31920, Note_on_c, 0, 68, 80
2, 32159, Note_on_c, 0, 68, 0
2, 32160, Note_on_c, 0, 66, 80
2, 32399, Note_on_c, 0, 66, 0
2, 32400, Note_on_c, 0, 64, 80
2, 32639, Note_on_c, 0, 64, 0
2, 32640, Note_on_c, 0, 66, 80
2, 32879, Note_on_c, 0, 66, 0
2, 32880, Note_on_c, 0, 68, 80
2, 33119, Note_on_c, 0, 68, 0
2, 33120, Note_on_c, 0, 69, 80
2, 33359, Note_on_c, 0, 69, 0
2, 33360, Note_on_c, 0, 66, 80
2, 33599, Note_on_c, 0, 66, 0
2, 33600, Note_on_c, 0, 63, 80
2, 35039, Note_on_c, 0, 63, 0
2, 35040, Note_on_c, 0, 61, 80
2, 35279, Note_on_c, 0, 61, 0
2, 35280, Note_on_c, 0, 63, 80
2, 35519, Note_on_c, 0, 63, 0
2, 35520, Note_on_c, 0, 64, 80
2, 36959, Note_on_c, 0, 64, 0
2, 36960, Note_on_c, 0, 66, 80
2, 37439, Note_on_c, 0, 66, 0
2, 37440, Note_on_c, 0, 63, 80
2, 38879, Note_on_c, 0, 63, 0
2, 38880, Note_on_c, 0, 64, 80
2, 39359, Note_on_c, 0, 64, 0
2, 39360, Note_on_c, 0, 61, 80
2, 40799, Note_on_c, 0, 61, 0
2, 40800, Note_on_c, 0, 63, 80
2, 41279, Note_on_c, 0, 63, 0
2, 41280, Note_on_c, 0, 60, 80
2, 42239, Note_on_c, 0, 60, 0
2, 42240, Note_on_c, 0, 61, 80
2, 43199, Note_on_c, 0, 61, 0
2, 43440, Note_on_c, 0, 71, 80
2, 43679, Note_on_c, 0, 71, 0
2, 43680, Note_on_c, 0, 69, 80
2, 43919, Note_on_c, 0, 69, 0
2, 43920, Note_on_c, 0, 68, 80
2, 44159, Note_on_c, 0, 68, 0
2, 44160, Note_on_c, 0, 66, 80
2, 45359, Note_on_c, 0, 66, 0
2, 45360, Note_on_c, 0, 73, 80
2, 45599, Note_on_c, 0, 73, 0
2, 45600, Note_on_c, 0, 71, 80
2, 45839, Note_on_c, 0, 71, 0
2, 45840, Note_on_c, 0, 69, 80
2, 46079, Note_on_c, 0, 69, 0
2, 46080, Note_on_c, 0, 68, 80
2, 47279, Note_on_c, 0, 68, 0
2, 47280, Note_on_c, 0, 74, 80
2, 47519, Note_on_c, 0, 74, 0
2, 47520, Note_on_c, 0, 73, 80
2, 47759, Note_on_c, 0, 73, 0
2, 47760, Note_on_c, 0, 71, 80
2, 47999, Note_on_c, 0, 71, 0
2, 48000, Note_on_c, 0, 69, 80
2, 49199, Note_on_c, 0, 69, 0
2, 49200, Note_on_c, 0, 69, 80
2, 49439, Note_on_c, 0, 69, 0
2, 49440, Note_on_c, 0, 68, 80
2, 49679, Note_on_c, 0, 68, 0
2, 49680, Note_on_c, 0, 66, 80
2, 49919, Note_on_c, 0, 66, 0
2, 49920, Note_on_c, 0, 64, 80
2, 50399, Note_on_c, 0, 64, 0
2, 50400, Note_on_c, 0, 62, 80
2, 50879, Note_on_c, 0, 62, 0
2, 50880, Note_on_c, 0, 61, 80
2, 51839, Note_on_c, 0, 61, 0
2, 51840, Note_on_c, 0, 59, 80
2, 52079, Note_on_c, 0, 59, 0
2, 52080, Note_on_c, 0, 65, 80
2, 52319, Note_on_c, 0, 65, 0
2, 52320, Note_on_c, 0, 64, 80
2, 52559, Note_on_c, 0, 64, 0
2, 52560, Note_on_c, 0, 63, 80
2, 52799, Note_on_c, 0, 63, 0
2, 52800, Note_on_c, 0, 64, 80
2, 53999, Note_on_c, 0, 64, 0
2, 54000, Note_on_c, 0, 71, 80
2, 54239, Note_on_c, 0, 71, 0
2, 54240, Note_on_c, 0, 69, 80
2, 54479, Note_on_c, 0, 69, 0
2, 54480, Note_on_c, 0, 68, 80
2, 54719, Note_on_c, 0, 68, 0
2, 54720, Note_on_c, 0, 66, 80
2, 54959, Note_on_c, 0, 66, 0
2, 54960, Note_on_c, 0, 68, 80
2, 55199, Note_on_c, 0, 68, 0
2, 55200, Note_on_c, 0, 66, 80
2, 55439, Note_on_c, 0, 66, 0
2, 55440, Note_on_c, 0, 64, 80
2, 55679, Note_on_c, 0, 64, 0
2, 55680, Note_on_c, 0, 63, 80
2, 55919, Note_on_c, 0, 63, 0
2, 55920, Note_on_c, 0, 61, 80
2, 56159, Note_on_c, 0, 61, 0
2, 56160, Note_on_c, 0, 63, 80
2, 56639, Note_on_c, 0, 63, 0
2, 56640, Note_on_c, 0, 61, 80
2, 57119, Note_on_c, 0, 61, 0
2, 57600, Note_on_c, 0, 66, 80
2, 58559, Note_on_c, 0, 66, 0
2, 58560, Note_on_c, 0, 59, 80
2, 59519, Note_on_c, 0, 59, 0
2, 59520, Note_on_c, 0, 63, 80
2, 60479, Note_on_c, 0, 63, 0
2, 60480, Note_on_c, 0, 66, 80
2, 61439, Note_on_c, 0, 66, 0
2, 61440, Note_on_c, 0, 68, 80
2, 62399, Note_on_c, 0, 68, 0
2, 62400, Note_on_c, 0, 66, 80
2, 62879, Note_on_c, 0, 66, 0
2, 62880, Note_on_c, 0, 64, 80
2, 63359, Note_on_c, 0, 64, 0
2, 63360, Note_on_c, 0, 63, 80
2, 64559, Note_on_c, 0, 63, 0
2, 64560, Note_on_c, 0, 61, 80
2, 64799, Note_on_c, 0, 61, 0
2, 64800, Note_on_c, 0, 63, 80
2, 65039, Note_on_c, 0, 63, 0
2, 65040, Note_on_c, 0, 65, 80
2, 65279, Note_on_c, 0, 65, 0
2, 65280, Note_on_c, 0, 66, 80
2, 66479, Note_on_c, 0, 66, 0
2, 66480, Note_on_c, 0, 67, 80
2, 66719, Note_on_c, 0, 67, 0
2, 66720, Note_on_c, 0, 66, 80
2, 66959, Note_on_c, 0, 66, 0
2, 66960, Note_on_c, 0, 65, 80
2, 67199, Note_on_c, 0, 65, 0
2, 67200, Note_on_c, 0, 66, 80
2, 68399, Note_on_c, 0, 66, 0
2, 68400, Note_on_c, 0, 67, 80
2, 68639, Note_on_c, 0, 67, 0
2, 68640, Note_on_c, 0, 66, 80
2, 68879, Note_on_c, 0, 66, 0
2, 68880, Note_on_c, 0, 65, 80
2, 69119, Note_on_c, 0, 65, 0
2, 69120, Note_on_c, 0, 66, 80
2, 69599, Note_on_c, 0, 66, 0
2, 69600, Note_on_c, 0, 71, 80
2, 70079, Note_on_c, 0, 71, 0
2, 70080, Note_on_c, 0, 65, 80
2, 70559, Note_on_c, 0, 65, 0
2, 70560, Note_on_c, 0, 68, 80
2, 71279, Note_on_c, 0, 68, 0
2, 71280, Note_on_c, 0, 67, 80
2, 71519, Note_on_c, 0, 67, 0
2, 71520, Note_on_c, 0, 66, 80
2, 71759, Note_on_c, 0, 66, 0
2, 71760, Note_on_c, 0, 65, 80
2, 71999, Note_on_c, 0, 65, 0
2, 72000, Note_on_c, 0, 66, 80
2, 73199, Note_on_c, 0, 66, 0
2, 73200, Note_on_c, 0, 65, 80
2, 73439, Note_on_c, 0, 65, 0
2, 73440, Note_on_c, 0, 66, 80
2, 74159, Note_on_c, 0, 66, 0
2, 74160, Note_on_c, 0, 66, 80
2, 74399, Note_on_c, 0, 66, 0
2, 74400, Note_on_c, 0, 64, 80
2, 74639, Note_on_c, 0, 64, 0
2, 74640, Note_on_c, 0, 63, 80
2, 74879, Note_on_c, 0, 63, 0
2, 74880, Note_on_c, 0, 61, 80
2, 75359, Note_on_c, 0, 61, 0
2, 76320, Note_on_c, 0, 68, 80
2, 76799, Note_on_c, 0, 68, 0
2, 76800, Note_on_c, 0, 64, 80
2, 77279, Note_on_c, 0, 64, 0
2, 77280, Note_on_c, 0, 69, 80
2, 77759, Note_on_c, 0, 69, 0
2, 77760, Note_on_c, 0, 63, 80
2, 78479, Note_on_c, 0, 63, 0
2, 78480, Note_on_c, 0, 69, 80
2, 78719, Note_on_c, 0, 69, 0
2, 78720, Note_on_c, 0, 68, 80
2, 78959, Note_on_c, 0, 68, 0
2, 78960, Note_on_c, 0, 66, 80
2, 79199, Note_on_c, 0, 66, 0
2, 79200, Note_on_c, 0, 64, 80
2, 79439, Note_on_c, 0, 64, 0
2, 79440, Note_on_c, 0, 66, 80
2, 79679, Note_on_c, 0, 66, 0
2, 79680, Note_on_c, 0, 68, 80
2, 80879, Note_on_c, 0, 68, 0
2, 80880, Note_on_c, 0, 67, 80
2, 81119, Note_on_c, 0, 67, 0
2, 81120, Note_on_c, 0, 68, 80
2, 81599, Note_on_c, 0, 68, 0
2, 81840, Note_on_c, 0, 63, 80
2, 82079, Note_on_c, 0, 63, 0
2, 82080, Note_on_c, 0, 64, 80
2, 82319, Note_on_c, 0, 64, 0
2, 82320, Note_on_c, 0, 66, 80
2, 82559, Note_on_c, 0, 66, 0
2, 82560, Note_on_c, 0, 68, 80
2, 83519, Note_on_c, 0, 68, 0
2, 83760, Note_on_c, 0, 61, 80
2, 83999, Note_on_c, 0, 61, 0
2, 84000, Note_on_c, 0, 63, 80
2, 84239, Note_on_c, 0, 63, 0
2, 84240, Note_on_c, 0, 64, 80
2, 84479, Note_on_c, 0, 64, 0
2, 84480, Note_on_c, 0, 66, 80
2, 85439, Note_on_c, 0, 66, 0
2, 85680, Note_on_c, 0, 59, 80
2, 85919, Note_on_c, 0, 59, 0
2, 85920, Note_on_c, 0, 61, 80
2, 86159, Note_on_c, 0, 61, 0
2, 86160, Note_on_c, 0, 63, 80
2, 86399, Note_on_c, 0, 63, 0
2, 86400, Note_on_c, 0, 64, 80
2, 87599, Note_on_c, 0, 64, 0
2, 87600, Note_on_c, 0, 63, 80
2, 87839, Note_on_c, 0, 63, 0
2, 87840, Note_on_c, 0, 61, 80
2, 88079, Note_on_c, 0, 61, 0
2, 88080, Note_on_c, 0, 64, 80
2, 88319, Note_on_c, 0, 64, 0
2, 88320, Note_on_c, 0, 63, 80
2, 89999, Note_on_c, 0, 63, 0
2, 90000, Note_on_c, 0, 68, 80
2, 90239, Note_on_c, 0, 68, 0
2, 90240, Note_on_c, 0, 64, 80
2, 90719, Note_on_c, 0, 64, 0
2, 90720, Note_on_c, 0, 68, 80
2, 91919, Note_on_c, 0, 68, 0
2, 91920, Note_on_c, 0, 70, 80
2, 92159, Note_on_c, 0, 70, 0
2, 92160, Note_on_c, 0, 67, 80
2, 92639, Note_on_c, 0, 67, 0
2, 92640, Note_on_c, 0, 70, 80
2, 93839, Note_on_c, 0, 70, 0
2, 93840, Note_on_c, 0, 71, 80
2, 94079, Note_on_c, 0, 71, 0
2, 94080, Note_on_c, 0, 68, 80
2, 95519, Note_on_c, 0, 68, 0
2, 95520, Note_on_c, 0, 67, 80
2, 95759, Note_on_c, 0, 67, 0
2, 95760, Note_on_c, 0, 68, 80
2, 95999, Note_on_c, 0, 68, 0
2, 96000, Note_on_c, 0, 70, 80
2, 96479, Note_on_c, 0, 70, 0
2, 96480, Note_on_c, 0, 73, 80
2, 96959, Note_on_c, 0, 73, 0
2, 96960, Note_on_c, 0, 67, 80
2, 97439, Note_on_c, 0, 67, 0
2, 97440, Note_on_c, 0, 70, 80
2, 98159, Note_on_c, 0, 70, 0
2, 98160, Note_on_c, 0, 68, 80
2, 98399, Note_on_c, 0, 68, 0
2, 98400, Note_on_c, 0, 71, 80
2, 98879, Note_on_c, 0, 71, 0
2, 99120, Note_on_c, 0, 76, 80
2, 99359, Note_on_c, 0, 76, 0
2, 99360, Note_on_c, 0, 75, 80
2, 99599, Note_on_c, 0, 75, 0
2, 99600, Note_on_c, 0, 73, 80
2, 100079, Note_on_c, 0, 73, 0
2, 100080, Note_on_c, 0, 73, 80
2, 100319, Note_on_c, 0, 73, 0
2, 100320, Note_on_c, 0, 71, 80
2, 100559, Note_on_c, 0, 71, 0
2, 100560, Note_on_c, 0, 70, 80
2, 100799, Note_on_c, 0, 70, 0
2, 100800, Note_on_c, 0, 68, 80
2, 101759, Note_on_c, 0, 68, 0
2, 102000, Note_on_c, 0, 69, 80
2, 102239, Note_on_c, 0, 69, 0
2, 102240, Note_on_c, 0, 68, 80
2, 102479, Note_on_c, 0, 68, 0
2, 102480, Note_on_c, 0, 66, 80
2, 102719, Note_on_c, 0, 66, 0
2, 102720, Note_on_c, 0, 64, 80
2, 103679, Note_on_c, 0, 64, 0
2, 103920, Note_on_c, 0, 78, 80
2, 104159, Note_on_c, 0, 78, 0
2, 104160, Note_on_c, 0, 76, 80
2, 104399, Note_on_c, 0, 76, 0
2, 104400, Note_on_c, 0, 75, 80
2, 104639, Note_on_c, 0, 75, 0
2, 104640, Note_on_c, 0, 73, 80
2, 105599, Note_on_c, 0, 73, 0
2, 105840, Note_on_c, 0, 74, 80
2, 106079, Note_on_c, 0, 74, 0
2, 106080, Note_on_c, 0, 73, 80
2, 106319, Note_on_c, 0, 73, 0
2, 106320, Note_on_c, 0, 71, 80
2, 106559, Note_on_c, 0, 71, 0
2, 106560, Note_on_c, 0, 69, 80
2, 107519, Note_on_c, 0, 69, 0
2, 108960, Note_on_c, 0, 69, 80
2, 109439, Note_on_c, 0, 69, 0
2, 109440, Note_on_c, 0, 66, 80
2, 110639, Note_on_c, 0, 66, 0
2, 110640, Note_on_c, 0, 68, 80
2, 110879, Note_on_c, 0, 68, 0
2, 110880, Note_on_c, 0, 66, 80
2, 111119, Note_on_c, 0, 66, 0
2, 111120, Note_on_c, 0, 64, 80
2, 111359, Note_on_c, 0, 64, 0
2, 111360, Note_on_c, 0, 63, 80
2, 111599, Note_on_c, 0, 63, 0
2, 111600, Note_on_c, 0, 71, 80
2, 111839, Note_on_c, 0, 71, 0
2, 111840, Note_on_c, 0, 69, 80
2, 112079, Note_on_c, 0, 69, 0
2, 112080, Note_on_c, 0, 68, 80
2, 112319, Note_on_c, 0, 68, 0
2, 112320, Note_on_c, 0, 66, 80
2, 112559, Note_on_c, 0, 66, 0
2, 112560, Note_on_c, 0, 69, 80
2, 112799, Note_on_c, 0, 69, 0
2, 112800, Note_on_c, 0, 68, 80
2, 113039, Note_on_c, 0, 68, 0
2, 113040, Note_on_c, 0, 73, 80
2, 113279, Note_on_c, 0, 73, 0
2, 113280, Note_on_c, 0, 71, 80
2, 113759, Note_on_c, 0, 71, 0
2, 113760, Note_on_c, 0, 63, 80
2, 114239, Note_on_c, 0, 63, 0
2, 114240, Note_on_c, 0, 59, 80
2, 115679, Note_on_c, 0, 59, 0
2, 115680, Note_on_c, 0, 67, 80
2, 116159, Note_on_c, 0, 67, 0
2, 116160, Note_on_c, 0, 66, 80
2, 116399, Note_on_c, 0, 66, 0
2, 116400, Note_on_c, 0, 72, 80
2, 116639, Note_on_c, 0, 72, 0
2, 116640, Note_on_c, 0, 71, 80
2, 116879, Note_on_c, 0, 71, 0
2, 116880, Note_on_c, 0, 70, 80
2, 117119, Note_on_c, 0, 70, 0
2, 117120, Note_on_c, 0, 71, 80
2, 118319, Note_on_c, 0, 71, 0
2, 118320, Note_on_c, 0, 72, 80
2, 118559, Note_on_c, 0, 72, 0
2, 118560, Note_on_c, 0, 71, 80
2, 118799, Note_on_c, 0, 71, 0
2, 118800, Note_on_c, 0, 70, 80
2, 119039, Note_on_c, 0, 70, 0
2, 119040, Note_on_c, 0, 71, 80
2, 120719, Note_on_c, 0, 71, 0
2, 120720, Note_on_c, 0, 71, 80
2, 121199, Note_on_c, 0, 71, 0
2, 121200, Note_on_c, 0, 69, 80
2, 121439, Note_on_c, 0, 69, 0
2, 121440, Note_on_c, 0, 68, 80
2, 121679, Note_on_c, 0, 68, 0
2, 121680, Note_on_c, 0, 66, 80
2, 121919, Note_on_c, 0, 66, 0
2, 121920, Note_on_c, 0, 68, 80
2, 123119, Note_on_c, 0, 68, 0
2, 123120, Note_on_c, 0, 67, 80
2, 123359, Note_on_c, 0, 67, 0
2, 123360, Note_on_c, 0, 66, 80
2, 123599, Note_on_c, 0, 66, 0
2, 123600, Note_on_c, 0, 65, 80
2, 123839, Note_on_c, 0, 65, 0
2, 123840, Note_on_c, 0, 66, 80
2, 125039, Note_on_c, 0, 66, 0
2, 125040, Note_on_c, 0, 67, 80
2, 125279, Note_on_c, 0, 67, 0
2, 125280, Note_on_c, 0, 66, 80
2, 125519, Note_on_c, 0, 66, 0
2, 125520, Note_on_c, 0, 65, 80
2, 125759, Note_on_c, 0, 65, 0
2, 125760, Note_on_c, 0, 66, 80
2, 126239, Note_on_c, 0, 66, 0
2, 126240, Note_on_c, 0, 67, 80
2, 126959, Note_on_c, 0, 67, 0
2, 126960, Note_on_c, 0, 68, 80
2, 127199, Note_on_c, 0, 68, 0
2, 127200, Note_on_c, 0, 67, 80
2, 127439, Note_on_c, 0, 67, 0
2, 127440, Note_on_c, 0, 68, 80
2, 127679, Note_on_c, 0, 68, 0
2, 127680, Note_on_c, 0, 70, 80
2, 129119, Note_on_c, 0, 70, 0
2, 129120, Note_on_c, 0, 69, 80
2, 129599, Note_on_c, 0, 69, 0
2, 129600, Note_on_c, 0, 66, 80
2, 130079, Note_on_c, 0, 66, 0
2, 130080, Note_on_c, 0, 63, 80
2, 130559, Note_on_c, 0, 63, 0
2, 130560, Note_on_c, 0, 68, 80
2, 131999, Note_on_c, 0, 68, 0
2, 132000, Note_on_c, 0, 61, 80
2, 132479, Note_on_c, 0, 61, 0
2, 132480, Note_on_c, 0, 69, 80
2, 133919, Note_on_c, 0, 69, 0
2, 133920, Note_on_c, 0, 59, 80
2, 134399, Note_on_c, 0, 59, 0
2, 134400, Note_on_c, 0, 68, 80
2, 135839, Note_on_c, 0, 68, 0
2, 135840, Note_on_c, 0, 69, 80
2, 136319, Note_on_c, 0, 69, 0
2, 136320, Note_on_c, 0, 66, 80
2, 137519, Note_on_c, 0, 66, 0
2, 137520, Note_on_c, 0, 69, 80
2, 137759, Note_on_c, 0, 69, 0
2, 137760, Note_on_c, 0, 68, 80
2, 137999, Note_on_c, 0, 68, 0
2, 138000, Note_on_c, 0, 66, 80
2, 138239, Note_on_c, 0, 66, 0
2, 138240, Note_on_c, 0, 68, 80
2, 139199, Note_on_c, 0, 68, 0
2, 139200, Note_on_c, 0, 61, 80
2, 140159, Note_on_c, 0, 61, 0
2, 140160, Note_on_c, 0, 64, 80
2, 141119, Note_on_c, 0, 64, 0
2, 141120, Note_on_c, 0, 68, 80
2, 142079, Note_on_c, 0, 68, 0
2, 142080, Note_on_c, 0, 71, 80
2, 143039, Note_on_c, 0, 71, 0
2, 143040, Note_on_c, 0, 70, 80
2, 143519, Note_on_c, 0, 70, 0
2, 143520, Note_on_c, 0, 68, 80
2, 143999, Note_on_c, 0, 68, 0
2, 144000, Note_on_c, 0, 67, 80
2, 145199, Note_on_c, 0, 67, 0
2, 145200, Note_on_c, 0, 63, 80
2, 145439, Note_on_c, 0, 63, 0
2, 145440, Note_on_c, 0, 65, 80
2, 145679, Note_on_c, 0, 65, 0
2, 145680, Note_on_c, 0, 67, 80
2, 145919, Note_on_c, 0, 67, 0
2, 145920, Note_on_c, 0, 68, 80
2, 146159, Note_on_c, 0, 68, 0
2, 146160, Note_on_c, 0, 69, 80
2, 146399, Note_on_c, 0, 69, 0
2, 146400, Note_on_c, 0, 68, 80
2, 146639, Note_on_c, 0, 68, 0
2, 146640, Note_on_c, 0, 67, 80
2, 146879, Note_on_c, 0, 67, 0
2, 146880, Note_on_c, 0, 68, 80
2, 147119, Note_on_c, 0, 68, 0
2, 147120, Note_on_c, 0, 73, 80
2, 147359, Note_on_c, 0, 73, 0
2, 147360, Note_on_c, 0, 71, 80
2, 147599, Note_on_c, 0, 71, 0
2, 147600, Note_on_c, 0, 70, 80
2, 147839, Note_on_c, 0, 70, 0
2, 147840, Note_on_c, 0, 68, 80
2, 148079, Note_on_c, 0, 68, 0
2, 148080, Note_on_c, 0, 69, 80
2, 148319, Note_on_c, 0, 69, 0
2, 148320, Note_on_c, 0, 68, 80
2, 148559, Note_on_c, 0, 68, 0
2, 148560, Note_on_c, 0, 67, 80
2, 148799, Note_on_c, 0, 67, 0
2, 148800, Note_on_c, 0, 68, 80
2, 149039, Note_on_c, 0, 68, 0
2, 149040, Note_on_c, 0, 73, 80
2, 149279, Note_on_c, 0, 73, 0
2, 149280, Note_on_c, 0, 71, 80
2, 149519, Note_on_c, 0, 71, 0
2, 149520, Note_on_c, 0, 70, 80
2, 149759, Note_on_c, 0, 70, 0
2, 149760, Note_on_c, 0, 69, 80
2, 149999, Note_on_c, 0, 69, 0
2, 150000, Note_on_c, 0, 77, 80
2, 150239, Note_on_c, 0, 77, 0
2, 150240, Note_on_c, 0, 75, 80
2, 150479, Note_on_c, 0, 75, 0
2, 150480, Note_on_c, 0, 73, 80
2, 150719, Note_on_c, 0, 73, 0
2, 150720, Note_on_c, 0, 72, 80
2, 150959, Note_on_c, 0, 72, 0
2, 150960, Note_on_c, 0, 69, 80
2, 151199, Note_on_c, 0, 69, 0
2, 151200, Note_on_c, 0, 69, 80
2, 151439, Note_on_c, 0, 69, 0
2, 151440, Note_on_c, 0, 72, 80
2, 151679, Note_on_c, 0, 72, 0
2, 151680, Note_on_c, 0, 65, 80
2, 151919, Note_on_c, 0, 65, 0
2, 151920, Note_on_c, 0, 66, 80
2, 152159, Note_on_c, 0, 66, 0
2, 152160, Note_on_c, 0, 65, 80
2, 152399, Note_on_c, 0, 65, 0
2, 152400, Note_on_c, 0, 66, 80
2, 152639, Note_on_c, 0, 66, 0
2, 152640, Note_on_c, 0, 68, 80
2, 153119, Note_on_c, 0, 68, 0
2, 153120, Note_on_c, 0, 65, 80
2, 153599, Note_on_c, 0, 65, 0
2, 153600, Note_on_c, 0, 63, 80
2, 154079, Note_on_c, 0, 63, 0
2, 154080, Note_on_c, 0, 70, 80
2, 154559, Note_on_c, 0, 70, 0
2, 154560, Note_on_c, 0, 68, 80
2, 155759, Note_on_c, 0, 68, 0
2, 155760, Note_on_c, 0, 67, 80
2, 155999, Note_on_c, 0, 67, 0
2, 156000, Note_on_c, 0, 65, 80
2, 156239, Note_on_c, 0, 65, 0
2, 156240, Note_on_c, 0, 68, 80
2, 156479, Note_on_c, 0, 68, 0
2, 156480, Note_on_c, 0, 67, 80
2, 156959, Note_on_c, 0, 67, 0
2, 156960, Note_on_c, 0, 68, 80
2, 157439, Note_on_c, 0, 68, 0
2, 157440, Note_on_c, 0, 70, 80
2, 157919, Note_on_c, 0, 70, 0
2, 157920, Note_on_c, 0, 68, 80
2, 158159, Note_on_c, 0, 68, 0
2, 158160, Note_on_c, 0, 67, 80
2, 158399, Note_on_c, 0, 67, 0
2, 158400, Note_on_c, 0, 68, 80
2, 159839, Note_on_c, 0, 68, 0
2, 159840, Note_on_c, 0, 66, 80
2, 160079, Note_on_c, 0, 66, 0
2, 160080, Note_on_c, 0, 65, 80
2, 160319, Note_on_c, 0, 65, 0
2, 160320, Note_on_c, 0, 66, 80
2, 160799, Note_on_c, 0, 66, 0
2, 161760, Note_on_c, 0, 65, 80
2, 162479, Note_on_c, 0, 65, 0
2, 162480, Note_on_c, 0, 66, 80
2, 162719, Note_on_c, 0, 66, 0
2, 162720, Note_on_c, 0, 68, 80
2, 162959, Note_on_c, 0, 68, 0
2, 162960, Note_on_c, 0, 65, 80
2, 163199, Note_on_c, 0, 65, 0
2, 163200, Note_on_c, 0, 66, 80
2, 163679, Note_on_c, 0, 66, 0
2, 163680, Note_on_c, 0, 64, 80
2, 163919, Note_on_c, 0, 64, 0
2, 163920, Note_on_c, 0, 67, 80
2, 164159, Note_on_c, 0, 67, 0
2, 164160, Note_on_c, 0, 66, 80
2, 164399, Note_on_c, 0, 66, 0
2, 164400, Note_on_c, 0, 64, 80
2, 164639, Note_on_c, 0, 64, 0
2, 164640, Note_on_c, 0, 63, 80
2, 164879, Note_on_c, 0, 63, 0
2, 164880, Note_on_c, 0, 61, 80
2, 165119, Note_on_c, 0, 61, 0
2, 165120, Note_on_c, 0, 63, 80
2, 165599, Note_on_c, 0, 63, 0
2, 165600, Note_on_c, 0, 66, 80
2, 166079, Note_on_c, 0, 66, 0
2, 166080, Note_on_c, 0, 63, 80
2, 166559, Note_on_c, 0, 63, 0
2, 166560, Note_on_c, 0, 66, 80
2, 167279, Note_on_c, 0, 66, 0
2, 167280, Note_on_c, 0, 66, 80
2, 167519, Note_on_c, 0, 66, 0
2, 167520, Note_on_c, 0, 64, 80
2, 167759, Note_on_c, 0, 64, 0
2, 167760, Note_on_c, 0, 63, 80
2, 167999, Note_on_c, 0, 63, 0
2, 168000, Note_on_c, 0, 64, 80
2, 168479, Note_on_c, 0, 64, 0
2, 169440, Note_on_c, 0, 68, 80
2, 169919, Note_on_c, 0, 68, 0
2, 169920, Note_on_c, 0, 64, 80
2, 170399, Note_on_c, 0, 64, 0
2, 170400, Note_on_c, 0, 68, 80
2, 171119, Note_on_c, 0, 68, 0
2, 171120, Note_on_c, 0, 68, 80
2, 171359, Note_on_c, 0, 68, 0
2, 171360, Note_on_c, 0, 66, 80
2, 171599, Note_on_c, 0, 66, 0
2, 171600, Note_on_c, 0, 65, 80
2, 171839, Note_on_c, 0, 65, 0
2, 171840, Note_on_c, 0, 66, 80
2, 172799, Note_on_c, 0, 66, 0
2, 173280, Note_on_c, 0, 75, 80
2, 173759, Note_on_c, 0, 75, 0
2, 173760, Note_on_c, 0, 72, 80
2, 174239, Note_on_c, 0, 72, 0
2, 174240, Note_on_c, 0, 73, 80
2, 174959, Note_on_c, 0, 73, 0
2, 174960, Note_on_c, 0, 70, 80
2, 175199, Note_on_c, 0, 70, 0
2, 175200, Note_on_c, 0, 72, 80
2, 175439, Note_on_c, 0, 72, 0
2, 175440, Note_on_c, 0, 73, 80
2, 175679, Note_on_c, 0, 73, 0
2, 175680, Note_on_c, 0, 75, 80
2, 176879, Note_on_c, 0, 75, 0
2, 176880, Note_on_c, 0, 75, 80
2, 177119, Note_on_c, 0, 75, 0
2, 177120, Note_on_c, 0, 73, 80
2, 177359, Note_on_c, 0, 73, 0
2, 177360, Note_on_c, 0, 72, 80
2, 177599, Note_on_c, 0, 72, 0
2, 177600, Note_on_c, 0, 73, 80
2, 178559, Note_on_c, 0, 73, 0
2, 179760, Note_on_c, 0, 69, 80
2, 179999, Note_on_c, 0, 69, 0
2, 180000, Note_on_c, 0, 68, 80
2, 180239, Note_on_c, 0, 68, 0
2, 180240, Note_on_c, 0, 66, 80
2, 180479, Note_on_c, 0, 66, 0
2, 180480, Note_on_c, 0, 64, 80
2, 180719, Note_on_c, 0, 64, 0
2, 180720, Note_on_c, 0, 71, 80
2, 180959, Note_on_c, 0, 71, 0
2, 180960, Note_on_c, 0, 69, 80
2, 181199, Note_on_c, 0, 69, 0
2, 181200, Note_on_c, 0, 68, 80
2, 181439, Note_on_c, 0, 68, 0
2, 181440, Note_on_c, 0, 69, 80
2, 181919, Note_on_c, 0, 69, 0
2, 183600, Note_on_c, 0, 66, 80
2, 183839, Note_on_c, 0, 66, 0
2, 183840, Note_on_c, 0, 65, 80
2, 184079, Note_on_c, 0, 65, 0
2, 184080, Note_on_c, 0, 63, 80
2, 184319, Note_on_c, 0, 63, 0
2, 184320, Note_on_c, 0, 61, 80
2, 184799, Note_on_c, 0, 61, 0
2, 185520, Note_on_c, 0, 66, 80
2, 185759, Note_on_c, 0, 66, 0
2, 185760, Note_on_c, 0, 68, 80
2, 185999, Note_on_c, 0, 68, 0
2, 186000, Note_on_c, 0, 69, 80
2, 186239, Note_on_c, 0, 69, 0
2, 186240, Note_on_c, 0, 62, 80
2, 186719, Note_on_c, 0, 62, 0
2, 187440, Note_on_c, 0, 68, 80
2, 187679, Note_on_c, 0, 68, 0
2, 187680, Note_on_c, 0, 69, 80
2, 187919, Note_on_c, 0, 69, 0
2, 187920, Note_on_c, 0, 71, 80
2, 188159, Note_on_c, 0, 71, 0
2, 188160, Note_on_c, 0, 65, 80
2, 188639, Note_on_c, 0, 65, 0
2, 189360, Note_on_c, 0, 69, 80
2, 189599, Note_on_c, 0, 69, 0
2, 189600, Note_on_c, 0, 73, 80
2, 189839, Note_on_c, 0, 73, 0
2, 189840, Note_on_c, 0, 67, 80
2, 190079, Note_on_c, 0, 67, 0
2, 190080, Note_on_c, 0, 66, 80
2, 190559, Note_on_c, 0, 66, 0
2, 191280, Note_on_c, 0, 68, 80
2, 191519, Note_on_c, 0, 68, 0
2, 191520, Note_on_c, 0, 69, 80
2, 191759, Note_on_c, 0, 69, 0
2, 191760, Note_on_c, 0, 66, 80
2, 191999, Note_on_c, 0, 66, 0
2, 192000, Note_on_c, 0, 68, 80
2, 192479, Note_on_c, 0, 68, 0
2, 195120, Note_on_c, 0, 74, 80
2, 195359, Note_on_c, 0, 74, 0
2, 195360, Note_on_c, 0, 73, 80
2, 195599, Note_on_c, 0, 73, 0
2, 195600, Note_on_c, 0, 71, 80
2, 195839, Note_on_c, 0, 71, 0
2, 195840, Note_on_c, 0, 69, 80
2, 196319, Note_on_c, 0, 69, 0
2, 197040, Note_on_c, 0, 71, 80
2, 197279, Note_on_c, 0, 71, 0
2, 197280, Note_on_c, 0, 69, 80
2, 197519, Note_on_c, 0, 69, 0
2, 197520, Note_on_c, 0, 68, 80
2, 197759, Note_on_c, 0, 68, 0
2, 197760, Note_on_c, 0, 66, 80
2, 198719, Note_on_c, 0, 66, 0
2, 199200, Note_on_c, 0, 66, 80
2, 199679, Note_on_c, 0, 66, 0
2, 199680, Note_on_c, 0, 63, 80
2, 200639, Note_on_c, 0, 63, 0
2, 200880, Note_on_c, 0, 69, 80
2, 201119, Note_on_c, 0, 69, 0
2, 201120, Note_on_c, 0, 68, 80
2, 201359, Note_on_c, 0, 68, 0
2, 201360, Note_on_c, 0, 66, 80
2, 201599, Note_on_c, 0, 66, 0
2, 201600, Note_on_c, 0, 64, 80
2, 202559, Note_on_c, 0, 64, 0
2, 203040, Note_on_c, 0, 68, 80
2, 203519, Note_on_c, 0, 68, 0
2, 203520, Note_on_c, 0, 64, 80
2, 204719, Note_on_c, 0, 64, 0
2, 204720, Note_on_c, 0, 66, 80
2, 204959, Note_on_c, 0, 66, 0
2, 204960, Note_on_c, 0, 64, 80
2, 205199, Note_on_c, 0, 64, 0
2, 205200, Note_on_c, 0, 63, 80
2, 205439, Note_on_c, 0, 63, 0
2, 205440, Note_on_c, 0, 61, 80
2, 205919, Note_on_c, 0, 61, 0
2, 205920, Note_on_c, 0, 64, 80
2, 206639, Note_on_c, 0, 64, 0
2, 206640, Note_on_c, 0, 66, 80
2, 206879, Note_on_c, 0, 66, 0
2, 206880, Note_on_c, 0, 64, 80
2, 207119, Note_on_c, 0, 64, 0
2, 207120, Note_on_c, 0, 63, 80
2, 207359, Note_on_c, 0, 63, 0
2, 207360, Note_on_c, 0, 61, 80
2, 207839, Note_on_c, 0, 61, 0
2, 207840, Note_on_c, 0, 63, 80
2, 208319, Note_on_c, 0, 63, 0
2, 208320, Note_on_c, 0, 64, 80
2, 208559, Note_on_c, 0, 64, 0
2, 208560, Note_on_c, 0, 68, 80
2, 208799, Note_on_c, 0, 68, 0
2, 208800, Note_on_c, 0, 70, 80
2, 209039, Note_on_c, 0, 70, 0
2, 209040, Note_on_c, 0, 72, 80
2, 209279, Note_on_c, 0, 72, 0
2, 209280, Note_on_c, 0, 73, 80
2, 209759, Note_on_c, 0, 73, 0
2, 209760, Note_on_c, 0, 76, 80
2, 210239, Note_on_c, 0, 76, 0
2, 210240, Note_on_c, 0, 73, 80
2, 210719, Note_on_c, 0, 73, 0
2, 210720, Note_on_c, 0, 68, 80
2, 211199, Note_on_c, 0, 68, 0
2, 211200, Note_on_c, 0, 64, 80
2, 212159, Note_on_c, 0, 64, 0
2, 212160, Note_on_c, 0, 59, 80
2, 213119, Note_on_c, 0, 59, 0
2, 213120, Note_on_c, 0, 63, 80
2, 214079, Note_on_c, 0, 63, 0
2, 214080, Note_on_c, 0, 67, 80
2, 215039, Note_on_c, 0, 67, 0
2, 215040, Note_on_c, 0, 68, 80
2, 215999, Note_on_c, 0, 68, 0
2, 216000, Note_on_c, 0, 66, 80
2, 216479, Note_on_c, 0, 66, 0
2, 216480, Note_on_c, 0, 64, 80
2, 216959, Note_on_c, 0, 64, 0
2, 216960, Note_on_c, 0, 63, 80
2, 218159, Note_on_c, 0, 63, 0
2, 218160, Note_on_c, 0, 60, 80
2, 218399, Note_on_c, 0, 60, 0
2, 218400, Note_on_c, 0, 61, 80
2, 218639, Note_on_c, 0, 61, 0
2, 218640, Note_on_c, 0, 63, 80
2, 218879, Note_on_c, 0, 63, 0
2, 218880, Note_on_c, 0, 56, 80
2, 219359, Note_on_c, 0, 56, 0
2, 219360, Note_on_c, 0, 68, 80
2, 219839, Note_on_c, 0, 68, 0
2, 219840, Note_on_c, 0, 65, 80
2, 220799, Note_on_c, 0, 65, 0
2, 221040, Note_on_c, 0, 65, 80
2, 221279, Note_on_c, 0, 65, 0
2, 221280, Note_on_c, 0, 66, 80
2, 221519, Note_on_c, 0, 66, 0
2, 221520, Note_on_c, 0, 68, 80
2, 221759, Note_on_c, 0, 68, 0
2, 221760, Note_on_c, 0, 66, 80
2, 221999, Note_on_c, 0, 66, 0
2, 222000, Note_on_c, 0, 64, 80
2, 222239, Note_on_c, 0, 64, 0
2, 222240, Note_on_c, 0, 63, 80
2, 222479, Note_on_c, 0, 63, 0
2, 222480, Note_on_c, 0, 61, 80
2, 222719, Note_on_c, 0, 61, 0
2, 222720, Note_on_c, 0, 59, 80
2, 223199, Note_on_c, 0, 59, 0
2, 224880, Note_on_c, 0, 63, 80
2, 225119, Note_on_c, 0, 63, 0
2, 225120, Note_on_c, 0, 64, 80
2, 225359, Note_on_c, 0, 64, 0
2, 225360, Note_on_c, 0, 66, 80
2, 225599, Note_on_c, 0, 66, 0
2, 225600, Note_on_c, 0, 64, 80
2, 225839, Note_on_c, 0, 64, 0
2, 225840, Note_on_c, 0, 62, 80
2, 226079, Note_on_c, 0, 62, 0
2, 226080, Note_on_c, 0, 61, 80
2, 226319, Note_on_c, 0, 61, 0
2, 226320, Note_on_c, 0, 60, 80
2, 226559, Note_on_c, 0, 60, 0
2, 226560, Note_on_c, 0, 61, 80
2, 227039, Note_on_c, 0, 61, 0
2, 228000, Note_on_c, 0, 63, 80
2, 228479, Note_on_c, 0, 63, 0
2, 228480, Note_on_c, 0, 59, 80
2, 228959, Note_on_c, 0, 59, 0
2, 229920, Note_on_c, 0, 65, 80
2, 230399, Note_on_c, 0, 65, 0
2, 230400, Note_on_c, 0, 61, 80
2, 230879, Note_on_c, 0, 61, 0
2, 231840, Note_on_c, 0, 67, 80
2, 232319, Note_on_c, 0, 67, 0
2, 232320, Note_on_c, 0, 63, 80
2, 232799, Note_on_c, 0, 63, 0
2, 234480, Note_on_c, 0, 73, 80
2, 234719, Note_on_c, 0, 73, 0
2, 234720, Note_on_c, 0, 72, 80
2, 234959, Note_on_c, 0, 72, 0
2, 234960, Note_on_c, 0, 75, 80
2, 235199, Note_on_c, 0, 75, 0
2, 235200, Note_on_c, 0, 73, 80
2, 235439, Note_on_c, 0, 73, 0
2, 235440, Note_on_c, 0, 71, 80
2, 235679, Note_on_c, 0, 71, 0
2, 235680, Note_on_c, 0, 69, 80
2, 235919, Note_on_c, 0, 69, 0
2, 235920, Note_on_c, 0, 68, 80
2, 236159, Note_on_c, 0, 68, 0
2, 236160, Note_on_c, 0, 69, 80
2, 236399, Note_on_c, 0, 69, 0
2, 236400, Note_on_c, 0, 68, 80
2, 236639, Note_on_c, 0, 68, 0
2, 236640, Note_on_c, 0, 66, 80
2, 237359, Note_on_c, 0, 66, 0
2, 237360, Note_on_c, 0, 68, 80
2, 237599, Note_on_c, 0, 68, 0
2, 237600, Note_on_c, 0, 69, 80
2, 237839, Note_on_c, 0, 69, 0
2, 237840, Note_on_c, 0, 66, 80
2, 238079, Note_on_c, 0, 66, 0
2, 238080, Note_on_c, 0, 68, 80
2, 238319, Note_on_c, 0, 68, 0
2, 238320, Note_on_c, 0, 66, 80
2, 238559, Note_on_c, 0, 66, 0
2, 238560, Note_on_c, 0, 64, 80
2, 239279, Note_on_c, 0, 64, 0
2, 239280, Note_on_c, 0, 66, 80
2, 239519, Note_on_c, 0, 66, 0
2, 239520, Note_on_c, 0, 68, 80
2, 239759, Note_on_c, 0, 68, 0
2, 239760, Note_on_c, 0, 64, 80
2, 239999, Note_on_c, 0, 64, 0
2, 240000, Note_on_c, 0, 66, 80
2, 240239, Note_on_c, 0, 66, 0
2, 240240, Note_on_c, 0, 64, 80
2, 240479, Note_on_c, 0, 64, 0
2, 240480, Note_on_c, 0, 62, 80
2, 241199, Note_on_c, 0, 62, 0
2, 241200, Note_on_c, 0, 65, 80
2, 241439, Note_on_c, 0, 65, 0
2, 241440, Note_on_c, 0, 66, 80
2, 241679, Note_on_c, 0, 66, 0
2, 241680, Note_on_c, 0, 63, 80
2, 241919, Note_on_c, 0, 63, 0
2, 241920, Note_on_c, 0, 65, 80
2, 242159, Note_on_c, 0, 65, 0
2, 242160, Note_on_c, 0, 66, 80
2, 242399, Note_on_c, 0, 66, 0
2, 242400, Note_on_c, 0, 68, 80
2, 242879, Note_on_c, 0, 68, 0
2, 242880, Note_on_c, 0, 61, 80
2, 243359, Note_on_c, 0, 61, 0
2, 246240, Note_on_c, 0, 56, 80
2, 246719, Note_on_c, 0, 56, 0
2, 246720, Note_on_c, 0, 57, 80
2, 247199, Note_on_c, 0, 57, 0
2, 247200, Note_on_c, 0, 59, 80
2, 247679, Note_on_c, 0, 59, 0
2, 247680, Note_on_c, 0, 61, 80
2, 248639, Note_on_c, 0, 61, 0
2, 249120, Note_on_c, 0, 56, 80
2, 249599, Note_on_c, 0, 56, 0
2, 249600, Note_on_c, 0, 58, 80
2, 250559, Note_on_c, 0, 58, 0
2, 251040, Note_on_c, 0, 64, 80
2, 251999, Note_on_c, 0, 64, 0
2, 252000, Note_on_c, 0, 63, 80
2, 252479, Note_on_c, 0, 63, 0
2, 253440, Note_on_c, 0, 68, 80
2, 254399, Note_on_c, 0, 68, 0
2, 254400, Note_on_c, 0, 61, 80
2, 255359, Note_on_c, 0, 61, 0
2, 255360, Note_on_c, 0, 64, 80
2, 256319, Note_on_c, 0, 64, 0
2, 256320, Note_on_c, 0, 68, 80
2, 257279, Note_on_c, 0, 68, 0
2, 257280, Note_on_c, 0, 69, 80
2, 258239, Note_on_c, 0, 69, 0
2, 258240, Note_on_c, 0, 68, 80
2, 258719, Note_on_c, 0, 68, 0
2, 258720, Note_on_c, 0, 66, 80
2, 259199, Note_on_c, 0, 66, 0
2, 259200, Note_on_c, 0, 65, 80
2, 260399, Note_on_c, 0, 65, 0
2, 260400, Note_on_c, 0, 61, 80
2, 260639, Note_on_c, 0, 61, 0
2, 260640, Note_on_c, 0, 63, 80
2, 260879, Note_on_c, 0, 63, 0
2, 260880, Note_on_c, 0, 65, 80
2, 261119, Note_on_c, 0, 65, 0
2, 261120, Note_on_c, 0, 66, 80
2, 262319, Note_on_c, 0, 66, 0
2, 262320, Note_on_c, 0, 65, 80
2, 262559, Note_on_c, 0, 65, 0
2, 262560, Note_on_c, 0, 66, 80
2, 262799, Note_on_c, 0, 66, 0
2, 262800, Note_on_c, 0, 63, 80
2, 263039, Note_on_c, 0, 63, 0
2, 263040, Note_on_c, 0, 65, 80
2, 264959, Note_on_c, 0, 65, 0
2, 264960, End_track
3, 0, Start_track
3, 0, Key_signature, 4, "major"
3, 0, Program_c, 1, 46
3, 2, Control_c, 1, 7, 100
3, 4, Control_c, 1, 10, 64
3, 6, Control_c, 1, 91, 30
3, 8, Control_c, 1, 93, 30
3, 19200, Note_on_c, 1, 56, 80
3, 20159, Note_on_c, 1, 56, 0
3, 20160, Note_on_c, 1, 49, 80
3, 21119, Note_on_c, 1, 49, 0
3, 21120, Note_on_c, 1, 52, 80
3, 22079, Note_on_c, 1, 52, 0
3, 22080, Note_on_c, 1, 56, 80
3, 23039, Note_on_c, 1, 56, 0
3, 23040, Note_on_c, 1, 57, 80
3, 23999, Note_on_c, 1, 57, 0
3, 24000, Note_on_c, 1, 56, 80
3, 24479, Note_on_c, 1, 56, 0
3, 24480, Note_on_c, 1, 54, 80
3, 24959, Note_on_c, 1, 54, 0
3, 24960, Note_on_c, 1, 52, 80
3, 26159, Note_on_c, 1, 52, 0
3, 26160, Note_on_c, 1, 51, 80
3, 26399, Note_on_c, 1, 51, 0
3, 26400, Note_on_c, 1, 52, 80
3, 26639, Note_on_c, 1, 52, 0
3, 26640, Note_on_c, 1, 54, 80
3, 26879, Note_on_c, 1, 54, 0
3, 26880, Note_on_c, 1, 56, 80
3, 28079, Note_on_c, 1, 56, 0
3, 28080, Note_on_c, 1, 57, 80
3, 28319, Note_on_c, 1, 57, 0
3, 28320, Note_on_c, 1, 56, 80
3, 28559, Note_on_c, 1, 56, 0
3, 28560, Note_on_c, 1, 55, 80
3, 28799, Note_on_c, 1, 55, 0
3, 28800, Note_on_c, 1, 56, 80
3, 29999, Note_on_c, 1, 56, 0
3, 30000, Note_on_c, 1, 57, 80
3, 30239, Note_on_c, 1, 57, 0
3, 30240, Note_on_c, 1, 56, 80
3, 30479, Note_on_c, 1, 56, 0
3, 30480, Note_on_c, 1, 55, 80
3, 30719, Note_on_c, 1, 55, 0
3, 30720, Note_on_c, 1, 56, 80
3, 31199, Note_on_c, 1, 56, 0
3, 31200, Note_on_c, 1, 61, 80
3, 31679, Note_on_c, 1, 61, 0
3, 31680, Note_on_c, 1, 54, 80
3, 32159, Note_on_c, 1, 54, 0
3, 32160, Note_on_c, 1, 57, 80
3, 33119, Note_on_c, 1, 57, 0
3, 33120, Note_on_c, 1, 51, 80
3, 33599, Note_on_c, 1, 51, 0
3, 33600, Note_on_c, 1, 56, 80
3, 34079, Note_on_c, 1, 56, 0
3, 34080, Note_on_c, 1, 54, 80
3, 34559, Note_on_c, 1, 54, 0
3, 34560, Note_on_c, 1, 52, 80
3, 34799, Note_on_c, 1, 52, 0
3, 34800, Note_on_c, 1, 51, 80
3, 35039, Note_on_c, 1, 51, 0
3, 35040, Note_on_c, 1, 52, 80
3, 35279, Note_on_c, 1, 52, 0
3, 35280, Note_on_c, 1, 54, 80
3, 35519, Note_on_c, 1, 54, 0
3, 35520, Note_on_c, 1, 56, 80
3, 35999, Note_on_c, 1, 56, 0
3, 36720, Note_on_c, 1, 49, 80
3, 36959, Note_on_c, 1, 49, 0
3, 36960, Note_on_c, 1, 51, 80
3, 37199, Note_on_c, 1, 51, 0
3, 37200, Note_on_c, 1, 52, 80
3, 37439, Note_on_c, 1, 52, 0
3, 37440, Note_on_c, 1, 54, 80
3, 37919, Note_on_c, 1, 54, 0
3, 38640, Note_on_c, 1, 48, 80
3, 38879, Note_on_c, 1, 48, 0
3, 38880, Note_on_c, 1, 49, 80
3, 39119, Note_on_c, 1, 49, 0
3, 39120, Note_on_c, 1, 51, 80
3, 39359, Note_on_c, 1, 51, 0
3, 39360, Note_on_c, 1, 52, 80
3, 39839, Note_on_c, 1, 52, 0
3, 40560, Note_on_c, 1, 46, 80
3, 40799, Note_on_c, 1, 46, 0
3, 40800, Note_on_c, 1, 48, 80
3, 41039, Note_on_c, 1, 48, 0
3, 41040, Note_on_c, 1, 49, 80
3, 41279, Note_on_c, 1, 49, 0
3, 41280, Note_on_c, 1, 51, 80
3, 41759, Note_on_c, 1, 51, 0
3, 42480, Note_on_c, 1, 56, 80
3, 42719, Note_on_c, 1, 56, 0
3, 42720, Note_on_c, 1, 57, 80
3, 42959, Note_on_c, 1, 57, 0
3, 42960, Note_on_c, 1, 59, 80
3, 43199, Note_on_c, 1, 59, 0
3, 43200, Note_on_c, 1, 61, 80
3, 44399, Note_on_c, 1, 61, 0
3, 44400, Note_on_c, 1, 58, 80
3, 44639, Note_on_c, 1, 58, 0
3, 44640, Note_on_c, 1, 59, 80
3, 44879, Note_on_c, 1, 59, 0
3, 44880, Note_on_c, 1, 61, 80
3, 45119, Note_on_c, 1, 61, 0
3, 45120, Note_on_c, 1, 63, 80
3, 46319, Note_on_c, 1, 63, 0
3, 46320, Note_on_c, 1, 60, 80
3, 46559, Note_on_c, 1, 60, 0
3, 46560, Note_on_c, 1, 61, 80
3, 46799, Note_on_c, 1, 61, 0
3, 46800, Note_on_c, 1, 63, 80
3, 47039, Note_on_c, 1, 63, 0
3, 47040, Note_on_c, 1, 64, 80
3, 48239, Note_on_c, 1, 64, 0
3, 48240, Note_on_c, 1, 64, 80
3, 48479, Note_on_c, 1, 64, 0
3, 48480, Note_on_c, 1, 63, 80
3, 48719, Note_on_c, 1, 63, 0
3, 48720, Note_on_c, 1, 61, 80
3, 48959, Note_on_c, 1, 61, 0
3, 48960, Note_on_c, 1, 59, 80
3, 51359, Note_on_c, 1, 59, 0
3, 51360, Note_on_c, 1, 57, 80
3, 51839, Note_on_c, 1, 57, 0
3, 51840, Note_on_c, 1, 56, 80
3, 52319, Note_on_c, 1, 56, 0
3, 52320, Note_on_c, 1, 59, 80
3, 52799, Note_on_c, 1, 59, 0
3, 52800, Note_on_c, 1, 56, 80
3, 53999, Note_on_c, 1, 56, 0
3, 54000, Note_on_c, 1, 56, 80
3, 54239, Note_on_c, 1, 56, 0
3, 54240, Note_on_c, 1, 54, 80
3, 54479, Note_on_c, 1, 54, 0
3, 54480, Note_on_c, 1, 52, 80
3, 54719, Note_on_c, 1, 52, 0
3, 54720, Note_on_c, 1, 51, 80
3, 54959, Note_on_c, 1, 51, 0
3, 54960, Note_on_c, 1, 49, 80
3, 55199, Note_on_c, 1, 49, 0
3, 55200, Note_on_c, 1, 51, 80
3, 56159, Note_on_c, 1, 51, 0
3, 56160, Note_on_c, 1, 56, 80
3, 56399, Note_on_c, 1, 56, 0
3, 56400, Note_on_c, 1, 54, 80
3, 56639, Note_on_c, 1, 54, 0
3, 56640, Note_on_c, 1, 52, 80
3, 56879, Note_on_c, 1, 52, 0
3, 56880, Note_on_c, 1, 51, 80
3, 57119, Note_on_c, 1, 51, 0
3, 57120, Note_on_c, 1, 52, 80
3, 58079, Note_on_c, 1, 52, 0
3, 58080, Note_on_c, 1, 51, 80
3, 58319, Note_on_c, 1, 51, 0
3, 58320, Note_on_c, 1, 49, 80
3, 58559, Note_on_c, 1, 49, 0
3, 58560, Note_on_c, 1, 51, 80
3, 58799, Note_on_c, 1, 51, 0
3, 58800, Note_on_c, 1, 52, 80
3, 59039, Note_on_c, 1, 52, 0
3, 59040, Note_on_c, 1, 54, 80
3, 59759, Note_on_c, 1, 54, 0
3, 59760, Note_on_c, 1, 56, 80
3, 59999, Note_on_c, 1, 56, 0
3, 60000, Note_on_c, 1, 57, 80
3, 60959, Note_on_c, 1, 57, 0
3, 60960, Note_on_c, 1, 56, 80
3, 61199, Note_on_c, 1, 56, 0
3, 61200, Note_on_c, 1, 54, 80
3, 61439, Note_on_c, 1, 54, 0
3, 61440, Note_on_c, 1, 52, 80
3, 62399, Note_on_c, 1, 52, 0
3, 65280, Note_on_c, 1, 61, 80
3, 66239, Note_on_c, 1, 61, 0
3, 66240, Note_on_c, 1, 54, 80
3, 67199, Note_on_c, 1, 54, 0
3, 67200, Note_on_c, 1, 57, 80
3, 68159, Note_on_c, 1, 57, 0
3, 68160, Note_on_c, 1, 61, 80
3, 69119, Note_on_c, 1, 61, 0
3, 69120, Note_on_c, 1, 62, 80
3, 70079, Note_on_c, 1, 62, 0
3, 70080, Note_on_c, 1, 61, 80
3, 70559, Note_on_c, 1, 61, 0
3, 70560, Note_on_c, 1, 59, 80
3, 71039, Note_on_c, 1, 59, 0
3, 71040, Note_on_c, 1, 57, 80
3, 72239, Note_on_c, 1, 57, 0
3, 72240, Note_on_c, 1, 56, 80
3, 72479, Note_on_c, 1, 56, 0
3, 72480, Note_on_c, 1, 57, 80
3, 72719, Note_on_c, 1, 57, 0
3, 72720, Note_on_c, 1, 59, 80
3, 72959, Note_on_c, 1, 59, 0
3, 72960, Note_on_c, 1, 61, 80
3, 73199, Note_on_c, 1, 61, 0
3, 73200, Note_on_c, 1, 62, 80
3, 73439, Note_on_c, 1, 62, 0
3, 73440, Note_on_c, 1, 61, 80
3, 73679, Note_on_c, 1, 61, 0
3, 73680, Note_on_c, 1, 60, 80
3, 73919, Note_on_c, 1, 60, 0
3, 73920, Note_on_c, 1, 61, 80
3, 74159, Note_on_c, 1, 61, 0
3, 74160, Note_on_c, 1, 51, 80
3, 74399, Note_on_c, 1, 51, 0
3, 74400, Note_on_c, 1, 52, 80
3, 74639, Note_on_c, 1, 52, 0
3, 74640, Note_on_c, 1, 54, 80
3, 74879, Note_on_c, 1, 54, 0
3, 74880, Note_on_c, 1, 56, 80
3, 75119, Note_on_c, 1, 56, 0
3, 75120, Note_on_c, 1, 49, 80
3, 75359, Note_on_c, 1, 49, 0
3, 75360, Note_on_c, 1, 61, 80
3, 76079, Note_on_c, 1, 61, 0
3, 76080, Note_on_c, 1, 62, 80
3, 76319, Note_on_c, 1, 62, 0
3, 76320, Note_on_c, 1, 61, 80
3, 76559, Note_on_c, 1, 61, 0
3, 76560, Note_on_c, 1, 60, 80
3, 76799, Note_on_c, 1, 60, 0
3, 76800, Note_on_c, 1, 61, 80
3, 77039, Note_on_c, 1, 61, 0
3, 77040, Note_on_c, 1, 64, 80
3, 77279, Note_on_c, 1, 64, 0
3, 77280, Note_on_c, 1, 63, 80
3, 77519, Note_on_c, 1, 63, 0
3, 77520, Note_on_c, 1, 61, 80
3, 77759, Note_on_c, 1, 61, 0
3, 77760, Note_on_c, 1, 68, 80
3, 78239, Note_on_c, 1, 68, 0
3, 78240, Note_on_c, 1, 60, 80
3, 79199, Note_on_c, 1, 60, 0
3, 79200, Note_on_c, 1, 61, 80
3, 79439, Note_on_c, 1, 61, 0
3, 79440, Note_on_c, 1, 63, 80
3, 79679, Note_on_c, 1, 63, 0
3, 79680, Note_on_c, 1, 64, 80
3, 81119, Note_on_c, 1, 64, 0
3, 81120, Note_on_c, 1, 63, 80
3, 81599, Note_on_c, 1, 63, 0
3, 81600, Note_on_c, 1, 59, 80
3, 83039, Note_on_c, 1, 59, 0
3, 83040, Note_on_c, 1, 61, 80
3, 83519, Note_on_c, 1, 61, 0
3, 83520, Note_on_c, 1, 58, 80
3, 84959, Note_on_c, 1, 58, 0
3, 84960, Note_on_c, 1, 59, 80
3, 85439, Note_on_c, 1, 59, 0
3, 85440, Note_on_c, 1, 56, 80
3, 86879, Note_on_c, 1, 56, 0
3, 86880, Note_on_c, 1, 58, 80
3, 87359, Note_on_c, 1, 58, 0
3, 87360, Note_on_c, 1, 55, 80
3, 88799, Note_on_c, 1, 55, 0
3, 88800, Note_on_c, 1, 51, 80
3, 89759, Note_on_c, 1, 51, 0
3, 89760, Note_on_c, 1, 56, 80
3, 90719, Note_on_c, 1, 56, 0
3, 90720, Note_on_c, 1, 52, 80
3, 91679, Note_on_c, 1, 52, 0
3, 91680, Note_on_c, 1, 49, 80
3, 92159, Note_on_c, 1, 49, 0
3, 92160, Note_on_c, 1, 58, 80
3, 92639, Note_on_c, 1, 58, 0
3, 92640, Note_on_c, 1, 55, 80
3, 93599, Note_on_c, 1, 55, 0
3, 93600, Note_on_c, 1, 55, 80
3, 94079, Note_on_c, 1, 55, 0
3, 94080, Note_on_c, 1, 56, 80
3, 94559, Note_on_c, 1, 56, 0
3, 94560, Note_on_c, 1, 63, 80
3, 95039, Note_on_c, 1, 63, 0
3, 95040, Note_on_c, 1, 56, 80
3, 95519, Note_on_c, 1, 56, 0
3, 95520, Note_on_c, 1, 61, 80
3, 96239, Note_on_c, 1, 61, 0
3, 96240, Note_on_c, 1, 59, 80
3, 96479, Note_on_c, 1, 59, 0
3, 96480, Note_on_c, 1, 58, 80
3, 96719, Note_on_c, 1, 58, 0
3, 96720, Note_on_c, 1, 61, 80
3, 96959, Note_on_c, 1, 61, 0
3, 96960, Note_on_c, 1, 59, 80
3, 97199, Note_on_c, 1, 59, 0
3, 97200, Note_on_c, 1, 58, 80
3, 97439, Note_on_c, 1, 58, 0
3, 97440, Note_on_c, 1, 56, 80
3, 97679, Note_on_c, 1, 56, 0
3, 97680, Note_on_c, 1, 55, 80
3, 97919, Note_on_c, 1, 55, 0
3, 97920, Note_on_c, 1, 56, 80
3, 98639, Note_on_c, 1, 56, 0
3, 98640, Note_on_c, 1, 58, 80
3, 98879, Note_on_c, 1, 58, 0
3, 98880, Note_on_c, 1, 59, 80
3, 98939, Note_on_c, 1, 59, 0
3, 98940, Note_on_c, 1, 58, 80
3, 98999, Note_on_c, 1, 58, 0
3, 99000, Note_on_c, 1, 59, 80
3, 99059, Note_on_c, 1, 59, 0
3, 99060, Note_on_c, 1, 58, 80
3, 99119, Note_on_c, 1, 58, 0
3, 99120, Note_on_c, 1, 59, 80
3, 99179, Note_on_c, 1, 59, 0
3, 99180, Note_on_c, 1, 58, 80
3, 99239, Note_on_c, 1, 58, 0
3, 99240, Note_on_c, 1, 59, 80
3, 99299, Note_on_c, 1, 59, 0
3, 99300, Note_on_c, 1, 58, 80
3, 99359, Note_on_c, 1, 58, 0
3, 99360, Note_on_c, 1, 59, 80
3, 99419, Note_on_c, 1, 59, 0
3, 99420, Note_on_c, 1, 58, 80
3, 99479, Note_on_c, 1, 58, 0
3, 99480, Note_on_c, 1, 59, 80
3, 99539, Note_on_c, 1, 59, 0
3, 99540, Note_on_c, 1, 58, 80
3, 99599, Note_on_c, 1, 58, 0
3, 99600, Note_on_c, 1, 59, 80
3, 99659, Note_on_c, 1, 59, 0
3, 99660, Note_on_c, 1, 58, 80
3, 99719, Note_on_c, 1, 58, 0
3, 99720, Note_on_c, 1, 59, 80
3, 99779, Note_on_c, 1, 59, 0
3, 99780, Note_on_c, 1, 58, 80
3, 99839, Note_on_c, 1, 58, 0
3, 99840, Note_on_c, 1, 56, 80
3, 100799, Note_on_c, 1, 56, 0
3, 101040, Note_on_c, 1, 61, 80
3, 101279, Note_on_c, 1, 61, 0
3, 101280, Note_on_c, 1, 59, 80
3, 101519, Note_on_c, 1, 59, 0
3, 101520, Note_on_c, 1, 57, 80
3, 101759, Note_on_c, 1, 57, 0
3, 101760, Note_on_c, 1, 56, 80
3, 102719, Note_on_c, 1, 56, 0
3, 102960, Note_on_c, 1, 57, 80
3, 103199, Note_on_c, 1, 57, 0
3, 103200, Note_on_c, 1, 56, 80
3, 103439, Note_on_c, 1, 56, 0
3, 103440, Note_on_c, 1, 54, 80
3, 103679, Note_on_c, 1, 54, 0
3, 103680, Note_on_c, 1, 52, 80
3, 104639, Note_on_c, 1, 52, 0
3, 104880, Note_on_c, 1, 66, 80
3, 105119, Note_on_c, 1, 66, 0
3, 105120, Note_on_c, 1, 64, 80
3, 105359, Note_on_c, 1, 64, 0
3, 105360, Note_on_c, 1, 63, 80
3, 105599, Note_on_c, 1, 63, 0
3, 105600, Note_on_c, 1, 61, 80
3, 106559, Note_on_c, 1, 61, 0
3, 106800, Note_on_c, 1, 62, 80
3, 107039, Note_on_c, 1, 62, 0
3, 107040, Note_on_c, 1, 61, 80
3, 107279, Note_on_c, 1, 61, 0
3, 107280, Note_on_c, 1, 59, 80
3, 107519, Note_on_c, 1, 59, 0
3, 107520, Note_on_c, 1, 57, 80
3, 107999, Note_on_c, 1, 57, 0
3, 108000, Note_on_c, 1, 66, 80
3, 108479, Note_on_c, 1, 66, 0
3, 108480, Note_on_c, 1, 63, 80
3, 109439, Note_on_c, 1, 63, 0
3, 109680, Note_on_c, 1, 59, 80
3, 109919, Note_on_c, 1, 59, 0
3, 109920, Note_on_c, 1, 57, 80
3, 110159, Note_on_c, 1, 57, 0
3, 110160, Note_on_c, 1, 56, 80
3, 110399, Note_on_c, 1, 56, 0
3, 110400, Note_on_c, 1, 54, 80
3, 112319, Note_on_c, 1, 54, 0
3, 112560, Note_on_c, 1, 61, 80
3, 112799, Note_on_c, 1, 61, 0
3, 112800, Note_on_c, 1, 59, 80
3, 113039, Note_on_c, 1, 59, 0
3, 113040, Note_on_c, 1, 57, 80
3, 113279, Note_on_c, 1, 57, 0
3, 113280, Note_on_c, 1, 56, 80
3, 114239, Note_on_c, 1, 56, 0
3, 114480, Note_on_c, 1, 57, 80
3, 114719, Note_on_c, 1, 57, 0
3, 114720, Note_on_c, 1, 56, 80
3, 114959, Note_on_c, 1, 56, 0
3, 114960, Note_on_c, 1, 54, 80
3, 115199, Note_on_c, 1, 54, 0
3, 115200, Note_on_c, 1, 56, 80
3, 115679, Note_on_c, 1, 56, 0
3, 115680, Note_on_c, 1, 58, 80
3, 116159, Note_on_c, 1, 58, 0
3, 116160, Note_on_c, 1, 59, 80
3, 116639, Note_on_c, 1, 59, 0
3, 116640, Note_on_c, 1, 63, 80
3, 117119, Note_on_c, 1, 63, 0
3, 117120, Note_on_c, 1, 59, 80
3, 118079, Note_on_c, 1, 59, 0
3, 118560, Note_on_c, 1, 63, 80
3, 119039, Note_on_c, 1, 63, 0
3, 119040, Note_on_c, 1, 59, 80
3, 119999, Note_on_c, 1, 59, 0
3, 120480, Note_on_c, 1, 62, 80
3, 120959, Note_on_c, 1, 62, 0
3, 120960, Note_on_c, 1, 56, 80
3, 121919, Note_on_c, 1, 56, 0
3, 122880, Note_on_c, 1, 61, 80
3, 123839, Note_on_c, 1, 61, 0
3, 123840, Note_on_c, 1, 54, 80
3, 124799, Note_on_c, 1, 54, 0
3, 124800, Note_on_c, 1, 57, 80
3, 125759, Note_on_c, 1, 57, 0
3, 125760, Note_on_c, 1, 61, 80
3, 126719, Note_on_c, 1, 61, 0
3, 126720, Note_on_c, 1, 64, 80
3, 127679, Note_on_c, 1, 64, 0
3, 127680, Note_on_c, 1, 63, 80
3, 128159, Note_on_c, 1, 63, 0
3, 128160, Note_on_c, 1, 61, 80
3, 128639, Note_on_c, 1, 61, 0
3, 128640, Note_on_c, 1, 60, 80
3, 129839, Note_on_c, 1, 60, 0
3, 129840, Note_on_c, 1, 56, 80
3, 130079, Note_on_c, 1, 56, 0
3, 130080, Note_on_c, 1, 58, 80
3, 130319, Note_on_c, 1, 58, 0
3, 130320, Note_on_c, 1, 60, 80
3, 130559, Note_on_c, 1, 60, 0
3, 130560, Note_on_c, 1, 61, 80
3, 131039, Note_on_c, 1, 61, 0
3, 131040, Note_on_c, 1, 56, 80
3, 131519, Note_on_c, 1, 56, 0
3, 131520, Note_on_c, 1, 64, 80
3, 132959, Note_on_c, 1, 64, 0
3, 132960, Note_on_c, 1, 54, 80
3, 133439, Note_on_c, 1, 54, 0
3, 133440, Note_on_c, 1, 63, 80
3, 134879, Note_on_c, 1, 63, 0
3, 134880, Note_on_c, 1, 64, 80
3, 135359, Note_on_c, 1, 64, 0
3, 135360, Note_on_c, 1, 61, 80
3, 136559, Note_on_c, 1, 61, 0
3, 136560, Note_on_c, 1, 64, 80
3, 136799, Note_on_c, 1, 64, 0
3, 136800, Note_on_c, 1, 63, 80
3, 137039, Note_on_c, 1, 63, 0
3, 137040, Note_on_c, 1, 61, 80
3, 137279, Note_on_c, 1, 61, 0
3, 137280, Note_on_c, 1, 60, 80
3, 138479, Note_on_c, 1, 60, 0
3, 138480, Note_on_c, 1, 62, 80
3, 138719, Note_on_c, 1, 62, 0
3, 138720, Note_on_c, 1, 61, 80
3, 138959, Note_on_c, 1, 61, 0
3, 138960, Note_on_c, 1, 60, 80
3, 139199, Note_on_c, 1, 60, 0
3, 139200, Note_on_c, 1, 61, 80
3, 139439, Note_on_c, 1, 61, 0
3, 139440, Note_on_c, 1, 66, 80
3, 139679, Note_on_c, 1, 66, 0
3, 139680, Note_on_c, 1, 64, 80
3, 139919, Note_on_c, 1, 64, 0
3, 139920, Note_on_c, 1, 63, 80
3, 140159, Note_on_c, 1, 63, 0
3, 140160, Note_on_c, 1, 61, 80
3, 140399, Note_on_c, 1, 61, 0
3, 140400, Note_on_c, 1, 62, 80
3, 140639, Note_on_c, 1, 62, 0
3, 140640, Note_on_c, 1, 61, 80
3, 140879, Note_on_c, 1, 61, 0
3, 140880, Note_on_c, 1, 60, 80
3, 141119, Note_on_c, 1, 60, 0
3, 141120, Note_on_c, 1, 61, 80
3, 141359, Note_on_c, 1, 61, 0
3, 141360, Note_on_c, 1, 66, 80
3, 141599, Note_on_c, 1, 66, 0
3, 141600, Note_on_c, 1, 64, 80
3, 141839, Note_on_c, 1, 64, 0
3, 141840, Note_on_c, 1, 63, 80
3, 142079, Note_on_c, 1, 63, 0
3, 142080, Note_on_c, 1, 62, 80
3, 142319, Note_on_c, 1, 62, 0
3, 142320, Note_on_c, 1, 63, 80
3, 142559, Note_on_c, 1, 63, 0
3, 142560, Note_on_c, 1, 62, 80
3, 142799, Note_on_c, 1, 62, 0
3, 142800, Note_on_c, 1, 63, 80
3, 143039, Note_on_c, 1, 63, 0
3, 143040, Note_on_c, 1, 65, 80
3, 143279, Note_on_c, 1, 65, 0
3, 143280, Note_on_c, 1, 63, 80
3, 143519, Note_on_c, 1, 63, 0
3, 143520, Note_on_c, 1, 65, 80
3, 143759, Note_on_c, 1, 65, 0
3, 143760, Note_on_c, 1, 62, 80
3, 143999, Note_on_c, 1, 62, 0
3, 144000, Note_on_c, 1, 58, 80
3, 144239, Note_on_c, 1, 58, 0
3, 144240, Note_on_c, 1, 59, 80
3, 144479, Note_on_c, 1, 59, 0
3, 144480, Note_on_c, 1, 58, 80
3, 144719, Note_on_c, 1, 58, 0
3, 144720, Note_on_c, 1, 59, 80
3, 144959, Note_on_c, 1, 59, 0
3, 144960, Note_on_c, 1, 61, 80
3, 145439, Note_on_c, 1, 61, 0
3, 145440, Note_on_c, 1, 58, 80
3, 145919, Note_on_c, 1, 58, 0
3, 145920, Note_on_c, 1, 56, 80
3, 146399, Note_on_c, 1, 56, 0
3, 146400, Note_on_c, 1, 63, 80
3, 146879, Note_on_c, 1, 63, 0
3, 146880, Note_on_c, 1, 59, 80
3, 147359, Note_on_c, 1, 59, 0
3, 148320, Note_on_c, 1, 63, 80
3, 148799, Note_on_c, 1, 63, 0
3, 148800, Note_on_c, 1, 59, 80
3, 149279, Note_on_c, 1, 59, 0
3, 149280, Note_on_c, 1, 63, 80
3, 150239, Note_on_c, 1, 63, 0
3, 150240, Note_on_c, 1, 57, 80
3, 150719, Note_on_c, 1, 57, 0
3, 151200, Note_on_c, 1, 53, 80
3, 151439, Note_on_c, 1, 53, 0
3, 151440, Note_on_c, 1, 54, 80
3, 151679, Note_on_c, 1, 54, 0
3, 151680, Note_on_c, 1, 56, 80
3, 152639, Note_on_c, 1, 56, 0
3, 153120, Note_on_c, 1, 58, 80
3, 153839, Note_on_c, 1, 58, 0
3, 153840, Note_on_c, 1, 59, 80
3, 154079, Note_on_c, 1, 59, 0
3, 154080, Note_on_c, 1, 61, 80
3, 154319, Note_on_c, 1, 61, 0
3, 154320, Note_on_c, 1, 58, 80
3, 154559, Note_on_c, 1, 58, 0
3, 154560, Note_on_c, 1, 59, 80
3, 155039, Note_on_c, 1, 59, 0
3, 155040, Note_on_c, 1, 60, 80
3, 155519, Note_on_c, 1, 60, 0
3, 155520, Note_on_c, 1, 61, 80
3, 156959, Note_on_c, 1, 61, 0
3, 156960, Note_on_c, 1, 59, 80
3, 157439, Note_on_c, 1, 59, 0
3, 157440, Note_on_c, 1, 58, 80
3, 157919, Note_on_c, 1, 58, 0
3, 157920, Note_on_c, 1, 63, 80
3, 158399, Note_on_c, 1, 63, 0
3, 158400, Note_on_c, 1, 59, 80
3, 158639, Note_on_c, 1, 59, 0
3, 158640, Note_on_c, 1, 58, 80
3, 158879, Note_on_c, 1, 58, 0
3, 158880, Note_on_c, 1, 59, 80
3, 159359, Note_on_c, 1, 59, 0
3, 159360, Note_on_c, 1, 56, 80
3, 159839, Note_on_c, 1, 56, 0
3, 159840, Note_on_c, 1, 61, 80
3, 160319, Note_on_c, 1, 61, 0
3, 160320, Note_on_c, 1, 62, 80
3, 160799, Note_on_c, 1, 62, 0
3, 160800, Note_on_c, 1, 64, 80
3, 161519, Note_on_c, 1, 64, 0
3, 161520, Note_on_c, 1, 58, 80
3, 161759, Note_on_c, 1, 58, 0
3, 161760, Note_on_c, 1, 59, 80
3, 161999, Note_on_c, 1, 59, 0
3, 162000, Note_on_c, 1, 61, 80
3, 162239, Note_on_c, 1, 61, 0
3, 162240, Note_on_c, 1, 62, 80
3, 163439, Note_on_c, 1, 62, 0
3, 163440, Note_on_c, 1, 61, 80
3, 164639, Note_on_c, 1, 61, 0
3, 164640, Note_on_c, 1, 54, 80
3, 165359, Note_on_c, 1, 54, 0
3, 165360, Note_on_c, 1, 54, 80
3, 165599, Note_on_c, 1, 54, 0
3, 165600, Note_on_c, 1, 56, 80
3, 165839, Note_on_c, 1, 56, 0
3, 165840, Note_on_c, 1, 58, 80
3, 166079, Note_on_c, 1, 58, 0
3, 166080, Note_on_c, 1, 59, 80
3, 166559, Note_on_c, 1, 59, 0
3, 167520, Note_on_c, 1, 59, 80
3, 167999, Note_on_c, 1, 59, 0
3, 168000, Note_on_c, 1, 56, 80
3, 168959, Note_on_c, 1, 56, 0
3, 169200, Note_on_c, 1, 56, 80
3, 169439, Note_on_c, 1, 56, 0
3, 169440, Note_on_c, 1, 58, 80
3, 169679, Note_on_c, 1, 58, 0
3, 169680, Note_on_c, 1, 60, 80
3, 169919, Note_on_c, 1, 60, 0
3, 169920, Note_on_c, 1, 61, 80
3, 170399, Note_on_c, 1, 61, 0
3, 171360, Note_on_c, 1, 61, 80
3, 171839, Note_on_c, 1, 61, 0
3, 171840, Note_on_c, 1, 58, 80
3, 172799, Note_on_c, 1, 58, 0
3, 173040, Note_on_c, 1, 58, 80
3, 173279, Note_on_c, 1, 58, 0
3, 173280, Note_on_c, 1, 60, 80
3, 173519, Note_on_c, 1, 60, 0
3, 173520, Note_on_c, 1, 61, 80
3, 173759, Note_on_c, 1, 61, 0
3, 173760, Note_on_c, 1, 63, 80
3, 174239, Note_on_c, 1, 63, 0
3, 174240, Note_on_c, 1, 69, 80
3, 174719, Note_on_c, 1, 69, 0
3, 174720, Note_on_c, 1, 63, 80
3, 174959, Note_on_c, 1, 63, 0
3, 174960, Note_on_c, 1, 61, 80
3, 175199, Note_on_c, 1, 61, 0
3, 175200, Note_on_c, 1, 63, 80
3, 175679, Note_on_c, 1, 63, 0
3, 175680, Note_on_c, 1, 60, 80
3, 176639, Note_on_c, 1, 60, 0
3, 177120, Note_on_c, 1, 56, 80
3, 177599, Note_on_c, 1, 56, 0
3, 177600, Note_on_c, 1, 52, 80
3, 178559, Note_on_c, 1, 52, 0
3, 179040, Note_on_c, 1, 59, 80
3, 179519, Note_on_c, 1, 59, 0
3, 179520, Note_on_c, 1, 56, 80
3, 179999, Note_on_c, 1, 56, 0
3, 180000, Note_on_c, 1, 59, 80
3, 180479, Note_on_c, 1, 59, 0
3, 180960, Note_on_c, 1, 52, 80
3, 181439, Note_on_c, 1, 52, 0
3, 181440, Note_on_c, 1, 49, 80
3, 182399, Note_on_c, 1, 49, 0
3, 182880, Note_on_c, 1, 56, 80
3, 183359, Note_on_c, 1, 56, 0
3, 183360, Note_on_c, 1, 53, 80
3, 183839, Note_on_c, 1, 53, 0
3, 183840, Note_on_c, 1, 56, 80
3, 184799, Note_on_c, 1, 56, 0
3, 184800, Note_on_c, 1, 54, 80
3, 185039, Note_on_c, 1, 54, 0
3, 185040, Note_on_c, 1, 53, 80
3, 185279, Note_on_c, 1, 53, 0
3, 185280, Note_on_c, 1, 54, 80
3, 186479, Note_on_c, 1, 54, 0
3, 186480, Note_on_c, 1, 53, 80
3, 186719, Note_on_c, 1, 53, 0
3, 186720, Note_on_c, 1, 54, 80
3, 186959, Note_on_c, 1, 54, 0
3, 186960, Note_on_c, 1, 57, 80
3, 187199, Note_on_c, 1, 57, 0
3, 187200, Note_on_c, 1, 56, 80
3, 188399, Note_on_c, 1, 56, 0
3, 188400, Note_on_c, 1, 54, 80
3, 188639, Note_on_c, 1, 54, 0
3, 188640, Note_on_c, 1, 56, 80
3, 188879, Note_on_c, 1, 56, 0
3, 188880, Note_on_c, 1, 59, 80
3, 189119, Note_on_c, 1, 59, 0
3, 189120, Note_on_c, 1, 57, 80
3, 190319, Note_on_c, 1, 57, 0
3, 190320, Note_on_c, 1, 56, 80
3, 190559, Note_on_c, 1, 56, 0
3, 190560, Note_on_c, 1, 57, 80
3, 190799, Note_on_c, 1, 57, 0
3, 190800, Note_on_c, 1, 61, 80
3, 191039, Note_on_c, 1, 61, 0
3, 191040, Note_on_c, 1, 59, 80
3, 192239, Note_on_c, 1, 59, 0
3, 192240, Note_on_c, 1, 57, 80
3, 192479, Note_on_c, 1, 57, 0
3, 192480, Note_on_c, 1, 59, 80
3, 192719, Note_on_c, 1, 59, 0
3, 192720, Note_on_c, 1, 62, 80
3, 192959, Note_on_c, 1, 62, 0
3, 192960, Note_on_c, 1, 61, 80
3, 193199, Note_on_c, 1, 61, 0
3, 193200, Note_on_c, 1, 59, 80
3, 193439, Note_on_c, 1, 59, 0
3, 193440, Note_on_c, 1, 57, 80
3, 193679, Note_on_c, 1, 57, 0
3, 193680, Note_on_c, 1, 56, 80
3, 193919, Note_on_c, 1, 56, 0
3, 193920, Note_on_c, 1, 57, 80
3, 194639, Note_on_c, 1, 57, 0
3, 194640, Note_on_c, 1, 59, 80
3, 194879, Note_on_c, 1, 59, 0
3, 194880, Note_on_c, 1, 57, 80
3, 194939, Note_on_c, 1, 57, 0
3, 194940, Note_on_c, 1, 56, 80
3, 194999, Note_on_c, 1, 56, 0
3, 195000, Note_on_c, 1, 57, 80
3, 195059, Note_on_c, 1, 57, 0
3, 195060, Note_on_c, 1, 56, 80
3, 195119, Note_on_c, 1, 56, 0
3, 195120, Note_on_c, 1, 57, 80
3, 195179, Note_on_c, 1, 57, 0
3, 195180, Note_on_c, 1, 56, 80
3, 195239, Note_on_c, 1, 56, 0
3, 195240, Note_on_c, 1, 57, 80
3, 195299, Note_on_c, 1, 57, 0
3, 195300, Note_on_c, 1, 56, 80
3, 195359, Note_on_c, 1, 56, 0
3, 195360, Note_on_c, 1, 57, 80
3, 195419, Note_on_c, 1, 57, 0
3, 195420, Note_on_c, 1, 56, 80
3, 195479, Note_on_c, 1, 56, 0
3, 195480, Note_on_c, 1, 57, 80
3, 195539, Note_on_c, 1, 57, 0
3, 195540, Note_on_c, 1, 56, 80
3, 195599, Note_on_c, 1, 56, 0
3, 195600, Note_on_c, 1, 57, 80
3, 195659, Note_on_c, 1, 57, 0
3, 195660, Note_on_c, 1, 56, 80
3, 195719, Note_on_c, 1, 56, 0
3, 195840, Note_on_c, 1, 54, 80
3, 196079, Note_on_c, 1, 54, 0
3, 196080, Note_on_c, 1, 62, 80
3, 196319, Note_on_c, 1, 62, 0
3, 196320, Note_on_c, 1, 61, 80
3, 196559, Note_on_c, 1, 61, 0
3, 196560, Note_on_c, 1, 59, 80
3, 196799, Note_on_c, 1, 59, 0
3, 196800, Note_on_c, 1, 57, 80
3, 197759, Note_on_c, 1, 57, 0
3, 198000, Note_on_c, 1, 59, 80
3, 198239, Note_on_c, 1, 59, 0
3, 198240, Note_on_c, 1, 57, 80
3, 198479, Note_on_c, 1, 57, 0
3, 198480, Note_on_c, 1, 56, 80
3, 198719, Note_on_c, 1, 56, 0
3, 198720, Note_on_c, 1, 54, 80
3, 199679, Note_on_c, 1, 54, 0
3, 199920, Note_on_c, 1, 61, 80
3, 200159, Note_on_c, 1, 61, 0
3, 200160, Note_on_c, 1, 59, 80
3, 200399, Note_on_c, 1, 59, 0
3, 200400, Note_on_c, 1, 57, 80
3, 200639, Note_on_c, 1, 57, 0
3, 200640, Note_on_c, 1, 56, 80
3, 201599, Note_on_c, 1, 56, 0
3, 201840, Note_on_c, 1, 57, 80
3, 202079, Note_on_c, 1, 57, 0
3, 202080, Note_on_c, 1, 56, 80
3, 202319, Note_on_c, 1, 56, 0
3, 202320, Note_on_c, 1, 54, 80
3, 202559, Note_on_c, 1, 54, 0
3, 202560, Note_on_c, 1, 52, 80
3, 203519, Note_on_c, 1, 52, 0
3, 203520, Note_on_c, 1, 56, 80
3, 204479, Note_on_c, 1, 56, 0
3, 204480, Note_on_c, 1, 49, 80
3, 205439, Note_on_c, 1, 49, 0
3, 205440, Note_on_c, 1, 52, 80
3, 206399, Note_on_c, 1, 52, 0
3, 206400, Note_on_c, 1, 56, 80
3, 207359, Note_on_c, 1, 56, 0
3, 207360, Note_on_c, 1, 57, 80
3, 208319, Note_on_c, 1, 57, 0
3, 208320, Note_on_c, 1, 56, 80
3, 208799, Note_on_c, 1, 56, 0
3, 208800, Note_on_c, 1, 54, 80
3, 209279, Note_on_c, 1, 54, 0
3, 209280, Note_on_c, 1, 52, 80
3, 210479, Note_on_c, 1, 52, 0
3, 210480, Note_on_c, 1, 51, 80
3, 210719, Note_on_c, 1, 51, 0
3, 210720, Note_on_c, 1, 52, 80
3, 210959, Note_on_c, 1, 52, 0
3, 210960, Note_on_c, 1, 54, 80
3, 211199, Note_on_c, 1, 54, 0
3, 211200, Note_on_c, 1, 56, 80
3, 211439, Note_on_c, 1, 56, 0
3, 211440, Note_on_c, 1, 57, 80
3, 211679, Note_on_c, 1, 57, 0
3, 211680, Note_on_c, 1, 56, 80
3, 211919, Note_on_c, 1, 56, 0
3, 211920, Note_on_c, 1, 55, 80
3, 212159, Note_on_c, 1, 55, 0
3, 212160, Note_on_c, 1, 56, 80
3, 213359, Note_on_c, 1, 56, 0
3, 213360, Note_on_c, 1, 56, 80
3, 213599, Note_on_c, 1, 56, 0
3, 213600, Note_on_c, 1, 54, 80
3, 213839, Note_on_c, 1, 54, 0
3, 213840, Note_on_c, 1, 52, 80
3, 214079, Note_on_c, 1, 52, 0
3, 214080, Note_on_c, 1, 51, 80
3, 214559, Note_on_c, 1, 51, 0
3, 214560, Note_on_c, 1, 49, 80
3, 215279, Note_on_c, 1, 49, 0
3, 215280, Note_on_c, 1, 51, 80
3, 215519, Note_on_c, 1, 51, 0
3, 215520, Note_on_c, 1, 49, 80
3, 215759, Note_on_c, 1, 49, 0
3, 215760, Note_on_c, 1, 48, 80
3, 215999, Note_on_c, 1, 48, 0
3, 216000, Note_on_c, 1, 49, 80
3, 216239, Note_on_c, 1, 49, 0
3, 216240, Note_on_c, 1, 51, 80
3, 216479, Note_on_c, 1, 51, 0
3, 216480, Note_on_c, 1, 52, 80
3, 216719, Note_on_c, 1, 52, 0
3, 216720, Note_on_c, 1, 54, 80
3, 216959, Note_on_c, 1, 54, 0
3, 216960, Note_on_c, 1, 56, 80
3, 217199, Note_on_c, 1, 56, 0
3, 219120, Note_on_c, 1, 59, 80
3, 219359, Note_on_c, 1, 59, 0
3, 219360, Note_on_c, 1, 61, 80
3, 219599, Note_on_c, 1, 61, 0
3, 219600, Note_on_c, 1, 62, 80
3, 219839, Note_on_c, 1, 62, 0
3, 219840, Note_on_c, 1, 61, 80
3, 220079, Note_on_c, 1, 61, 0
3, 220080, Note_on_c, 1, 59, 80
3, 220319, Note_on_c, 1, 59, 0
3, 220320, Note_on_c, 1, 57, 80
3, 220559, Note_on_c, 1, 57, 0
3, 220560, Note_on_c, 1, 56, 80
3, 220799, Note_on_c, 1, 56, 0
3, 220800, Note_on_c, 1, 54, 80
3, 221279, Note_on_c, 1, 54, 0
3, 221280, Note_on_c, 1, 61, 80
3, 221759, Note_on_c, 1, 61, 0
3, 221760, Note_on_c, 1, 57, 80
3, 222959, Note_on_c, 1, 57, 0
3, 222960, Note_on_c, 1, 54, 80
3, 223199, Note_on_c, 1, 54, 0
3, 223200, Note_on_c, 1, 56, 80
3, 223439, Note_on_c, 1, 56, 0
3, 223440, Note_on_c, 1, 57, 80
3, 223679, Note_on_c, 1, 57, 0
3, 223680, Note_on_c, 1, 56, 80
3, 223919, Note_on_c, 1, 56, 0
3, 223920, Note_on_c, 1, 54, 80
3, 224159, Note_on_c, 1, 54, 0
3, 224160, Note_on_c, 1, 52, 80
3, 224399, Note_on_c, 1, 52, 0
3, 224400, Note_on_c, 1, 51, 80
3, 224639, Note_on_c, 1, 51, 0
3, 224640, Note_on_c, 1, 52, 80
3, 226799, Note_on_c, 1, 52, 0
3, 226800, Note_on_c, 1, 52, 80
3, 227039, Note_on_c, 1, 52, 0
3, 227040, Note_on_c, 1, 51, 80
3, 227279, Note_on_c, 1, 51, 0
3, 227280, Note_on_c, 1, 49, 80
3, 227519, Note_on_c, 1, 49, 0
3, 227520, Note_on_c, 1, 51, 80
3, 227999, Note_on_c, 1, 51, 0
3, 228000, Note_on_c, 1, 54, 80
3, 228959, Note_on_c, 1, 54, 0
3, 228960, Note_on_c, 1, 53, 80
3, 229199, Note_on_c, 1, 53, 0
3, 229200, Note_on_c, 1, 51, 80
3, 229439, Note_on_c, 1, 51, 0
3, 229440, Note_on_c, 1, 53, 80
3, 229919, Note_on_c, 1, 53, 0
3, 229920, Note_on_c, 1, 56, 80
3, 230879, Note_on_c, 1, 56, 0
3, 230880, Note_on_c, 1, 55, 80
3, 231119, Note_on_c, 1, 55, 0
3, 231120, Note_on_c, 1, 53, 80
3, 231359, Note_on_c, 1, 53, 0
3, 231360, Note_on_c, 1, 55, 80
3, 231839, Note_on_c, 1, 55, 0
3, 231840, Note_on_c, 1, 58, 80
3, 232799, Note_on_c, 1, 58, 0
3, 232800, Note_on_c, 1, 57, 80
3, 233279, Note_on_c, 1, 57, 0
3, 233280, Note_on_c, 1, 56, 80
3, 234719, Note_on_c, 1, 56, 0
3, 234720, Note_on_c, 1, 54, 80
3, 235199, Note_on_c, 1, 54, 0
3, 235200, Note_on_c, 1, 56, 80
3, 235679, Note_on_c, 1, 56, 0
3, 235680, Note_on_c, 1, 61, 80
3, 236639, Note_on_c, 1, 61, 0
3, 236640, Note_on_c, 1, 57, 80
3, 237119, Note_on_c, 1, 57, 0
3, 237120, Note_on_c, 1, 54, 80
3, 237599, Note_on_c, 1, 54, 0
3, 237600, Note_on_c, 1, 51, 80
3, 238079, Note_on_c, 1, 51, 0
3, 238560, Note_on_c, 1, 56, 80
3, 239039, Note_on_c, 1, 56, 0
3, 239040, Note_on_c, 1, 52, 80
3, 239519, Note_on_c, 1, 52, 0
3, 239520, Note_on_c, 1, 49, 80
3, 239999, Note_on_c, 1, 49, 0
3, 240480, Note_on_c, 1, 54, 80
3, 240959, Note_on_c, 1, 54, 0
3, 240960, Note_on_c, 1, 50, 80
3, 241439, Note_on_c, 1, 50, 0
3, 241440, Note_on_c, 1, 47, 80
3, 241919, Note_on_c, 1, 47, 0
3, 241920, Note_on_c, 1, 49, 80
3, 243119, Note_on_c, 1, 49, 0
3, 243120, Note_on_c, 1, 49, 80
3, 243359, Note_on_c, 1, 49, 0
3, 243360, Note_on_c, 1, 51, 80
3, 243599, Note_on_c, 1, 51, 0
3, 243600, Note_on_c, 1, 53, 80
3, 243839, Note_on_c, 1, 53, 0
3, 243840, Note_on_c, 1, 54, 80
3, 244319, Note_on_c, 1, 54, 0
3, 245760, Note_on_c, 1, 61, 80
3, 246719, Note_on_c, 1, 61, 0
3, 246720, Note_on_c, 1, 54, 80
3, 247679, Note_on_c, 1, 54, 0
3, 247680, Note_on_c, 1, 57, 80
3, 248639, Note_on_c, 1, 57, 0
3, 248640, Note_on_c, 1, 61, 80
3, 249599, Note_on_c, 1, 61, 0
3, 249600, Note_on_c, 1, 64, 80
3, 250559, Note_on_c, 1, 64, 0
3, 250560, Note_on_c, 1, 63, 80
3, 251039, Note_on_c, 1, 63, 0
3, 251040, Note_on_c, 1, 61, 80
3, 251519, Note_on_c, 1, 61, 0
3, 251520, Note_on_c, 1, 60, 80
3, 252719, Note_on_c, 1, 60, 0
3, 252720, Note_on_c, 1, 56, 80
3, 252959, Note_on_c, 1, 56, 0
3, 252960, Note_on_c, 1, 58, 80
3, 253199, Note_on_c, 1, 58, 0
3, 253200, Note_on_c, 1, 60, 80
3, 253439, Note_on_c, 1, 60, 0
3, 253440, Note_on_c, 1, 61, 80
3, 253919, Note_on_c, 1, 61, 0
3, 253920, Note_on_c, 1, 56, 80
3, 254639, Note_on_c, 1, 56, 0
3, 254640, Note_on_c, 1, 57, 80
3, 254879, Note_on_c, 1, 57, 0
3, 254880, Note_on_c, 1, 56, 80
3, 255119, Note_on_c, 1, 56, 0
3, 255120, Note_on_c, 1, 55, 80
3, 255359, Note_on_c, 1, 55, 0
3, 255360, Note_on_c, 1, 56, 80
3, 255599, Note_on_c, 1, 56, 0
3, 255600, Note_on_c, 1, 46, 80
3, 255839, Note_on_c, 1, 46, 0
3, 255840, Note_on_c, 1, 48, 80
3, 256079, Note_on_c, 1, 48, 0
3, 256080, Note_on_c, 1, 49, 80
3, 256319, Note_on_c, 1, 49, 0
3, 256320, Note_on_c, 1, 51, 80
3, 256559, Note_on_c, 1, 51, 0
3, 256560, Note_on_c, 1, 52, 80
3, 256799, Note_on_c, 1, 52, 0
3, 256800, Note_on_c, 1, 54, 80
3, 257039, Note_on_c, 1, 54, 0
3, 257040, Note_on_c, 1, 51, 80
3, 257279, Note_on_c, 1, 51, 0
3, 257280, Note_on_c, 1, 53, 80
3, 257519, Note_on_c, 1, 53, 0
3, 257520, Note_on_c, 1, 56, 80
3, 257759, Note_on_c, 1, 56, 0
3, 257760, Note_on_c, 1, 54, 80
3, 258479, Note_on_c, 1, 54, 0
3, 258480, Note_on_c, 1, 53, 80
3, 258719, Note_on_c, 1, 53, 0
3, 258720, Note_on_c, 1, 57, 80
3, 259439, Note_on_c, 1, 57, 0
3, 259440, Note_on_c, 1, 56, 80
3, 259679, Note_on_c, 1, 56, 0
3, 259680, Note_on_c, 1, 59, 80
3, 260639, Note_on_c, 1, 59, 0
3, 260640, Note_on_c, 1, 58, 80
3, 260879, Note_on_c, 1, 58, 0
3, 260880, Note_on_c, 1, 56, 80
3, 261119, Note_on_c, 1, 56, 0
3, 261120, Note_on_c, 1, 58, 80
3, 261599, Note_on_c, 1, 58, 0
3, 261600, Note_on_c, 1, 57, 80
3, 262559, Note_on_c, 1, 57, 0
3, 262560, Note_on_c, 1, 56, 80
3, 262799, Note_on_c, 1, 56, 0
3, 262800, Note_on_c, 1, 54, 80
3, 263039, Note_on_c, 1, 54, 0
3, 263040, Note_on_c, 1, 56, 80
3, 264959, Note_on_c, 1, 56, 0
3, 264960, End_track
4, 0, Start_track
4, 0, Key_signature, 4, "major"
4, 26880, Note_on_c, 1, 49, 80
4, 27839, Note_on_c, 1, 49, 0
4, 27840, Note_on_c, 1, 44, 80
4, 28799, Note_on_c, 1, 44, 0
4, 28800, Note_on_c, 1, 47, 80
4, 29759, Note_on_c, 1, 47, 0
4, 29760, Note_on_c, 1, 51, 80
4, 30719, Note_on_c, 1, 51, 0
4, 30720, Note_on_c, 1, 52, 80
4, 31679, Note_on_c, 1, 52, 0
4, 31680, Note_on_c, 1, 51, 80
4, 32159, Note_on_c, 1, 51, 0
4, 32160, Note_on_c, 1, 49, 80
4, 32639, Note_on_c, 1, 49, 0
4, 32640, Note_on_c, 1, 48, 80
4, 33839, Note_on_c, 1, 48, 0
4, 33840, Note_on_c, 1, 44, 80
4, 34079, Note_on_c, 1, 44, 0
4, 34080, Note_on_c, 1, 46, 80
4, 34319, Note_on_c, 1, 46, 0
4, 34320, Note_on_c, 1, 48, 80
4, 34559, Note_on_c, 1, 48, 0
4, 34560, Note_on_c, 1, 49, 80
4, 35759, Note_on_c, 1, 49, 0
4, 35760, Note_on_c, 1, 47, 80
4, 35999, Note_on_c, 1, 47, 0
4, 36000, Note_on_c, 1, 45, 80
4, 36239, Note_on_c, 1, 45, 0
4, 36240, Note_on_c, 1, 44, 80
4, 36479, Note_on_c, 1, 44, 0
4, 36480, Note_on_c, 1, 42, 80
4, 37679, Note_on_c, 1, 42, 0
4, 37680, Note_on_c, 1, 45, 80
4, 37919, Note_on_c, 1, 45, 0
4, 37920, Note_on_c, 1, 44, 80
4, 38159, Note_on_c, 1, 44, 0
4, 38160, Note_on_c, 1, 42, 80
4, 38399, Note_on_c, 1, 42, 0
4, 38400, Note_on_c, 1, 40, 80
4, 39599, Note_on_c, 1, 40, 0
4, 39600, Note_on_c, 1, 44, 80
4, 39839, Note_on_c, 1, 44, 0
4, 39840, Note_on_c, 1, 42, 80
4, 40079, Note_on_c, 1, 42, 0
4, 40080, Note_on_c, 1, 40, 80
4, 40319, Note_on_c, 1, 40, 0
4, 40320, Note_on_c, 1, 39, 80
4, 41519, Note_on_c, 1, 39, 0
4, 41520, Note_on_c, 1, 42, 80
4, 41759, Note_on_c, 1, 42, 0
4, 41760, Note_on_c, 1, 40, 80
4, 41999, Note_on_c, 1, 40, 0
4, 42000, Note_on_c, 1, 39, 80
4, 42239, Note_on_c, 1, 39, 0
4, 42240, Note_on_c, 1, 37, 80
4, 42719, Note_on_c, 1, 37, 0
4, 42720, Note_on_c, 1, 49, 80
4, 43199, Note_on_c, 1, 49, 0
4, 43200, Note_on_c, 1, 45, 80
4, 43679, Note_on_c, 1, 45, 0
4, 43680, Note_on_c, 1, 42, 80
4, 44159, Note_on_c, 1, 42, 0
4, 44160, Note_on_c, 1, 39, 80
4, 44639, Note_on_c, 1, 39, 0
4, 44640, Note_on_c, 1, 51, 80
4, 45119, Note_on_c, 1, 51, 0
4, 45120, Note_on_c, 1, 47, 80
4, 45599, Note_on_c, 1, 47, 0
4, 45600, Note_on_c, 1, 44, 80
4, 46079, Note_on_c, 1, 44, 0
4, 46080, Note_on_c, 1, 40, 80
4, 46559, Note_on_c, 1, 40, 0
4, 46560, Note_on_c, 1, 52, 80
4, 47039, Note_on_c, 1, 52, 0
4, 47040, Note_on_c, 1, 49, 80
4, 47519, Note_on_c, 1, 49, 0
4, 47520, Note_on_c, 1, 45, 80
4, 47999, Note_on_c, 1, 45, 0
4, 48000, Note_on_c, 1, 42, 80
4, 48479, Note_on_c, 1, 42, 0
4, 48480, Note_on_c, 1, 54, 80
4, 48959, Note_on_c, 1, 54, 0
4, 48960, Note_on_c, 1, 51, 80
4, 49439, Note_on_c, 1, 51, 0
4, 49440, Note_on_c, 1, 47, 80
4, 49919, Note_on_c, 1, 47, 0
4, 49920, Note_on_c, 1, 44, 80
4, 50159, Note_on_c, 1, 44, 0
4, 50160, Note_on_c, 1, 40, 80
4, 50399, Note_on_c, 1, 40, 0
4, 50400, Note_on_c, 1, 42, 80
4, 50639, Note_on_c, 1, 42, 0
4, 50640, Note_on_c, 1, 44, 80
4, 50879, Note_on_c, 1, 44, 0
4, 50880, Note_on_c, 1, 45, 80
4, 51119, Note_on_c, 1, 45, 0
4, 51120, Note_on_c, 1, 47, 80
4, 51359, Note_on_c, 1, 47, 0
4, 51360, Note_on_c, 1, 49, 80
4, 51599, Note_on_c, 1, 49, 0
4, 51600, Note_on_c, 1, 51, 80
4, 51839, Note_on_c, 1, 51, 0
4, 51840, Note_on_c, 1, 52, 80
4, 53039, Note_on_c, 1, 52, 0
4, 53040, Note_on_c, 1, 50, 80
4, 53279, Note_on_c, 1, 50, 0
4, 53280, Note_on_c, 1, 49, 80
4, 53519, Note_on_c, 1, 49, 0
4, 53520, Note_on_c, 1, 47, 80
4, 53759, Note_on_c, 1, 47, 0
4, 53760, Note_on_c, 1, 45, 80
4, 54719, Note_on_c, 1, 45, 0
4, 54720, Note_on_c, 1, 47, 80
4, 55679, Note_on_c, 1, 47, 0
4, 55680, Note_on_c, 1, 48, 80
4, 56639, Note_on_c, 1, 48, 0
4, 56640, Note_on_c, 1, 49, 80
4, 57599, Note_on_c, 1, 49, 0
4, 57600, Note_on_c, 1, 47, 80
4, 58559, Note_on_c, 1, 47, 0
4, 59040, Note_on_c, 1, 51, 80
4, 59519, Note_on_c, 1, 51, 0
4, 59520, Note_on_c, 1, 47, 80
4, 59999, Note_on_c, 1, 47, 0
4, 60000, Note_on_c, 1, 54, 80
4, 60239, Note_on_c, 1, 54, 0
4, 60240, Note_on_c, 1, 52, 80
4, 60479, Note_on_c, 1, 52, 0
4, 60480, Note_on_c, 1, 51, 80
4, 60719, Note_on_c, 1, 51, 0
4, 60720, Note_on_c, 1, 49, 80
4, 60959, Note_on_c, 1, 49, 0
4, 60960, Note_on_c, 1, 50, 80
4, 61679, Note_on_c, 1, 50, 0
4, 61680, Note_on_c, 1, 50, 80
4, 61919, Note_on_c, 1, 50, 0
4, 61920, Note_on_c, 1, 49, 80
4, 62159, Note_on_c, 1, 49, 0
4, 62160, Note_on_c, 1, 47, 80
4, 62399, Note_on_c, 1, 47, 0
4, 62400, Note_on_c, 1, 46, 80
4, 62639, Note_on_c, 1, 46, 0
4, 62640, Note_on_c, 1, 42, 80
4, 62879, Note_on_c, 1, 42, 0
4, 62880, Note_on_c, 1, 44, 80
4, 63119, Note_on_c, 1, 44, 0
4, 63120, Note_on_c, 1, 46, 80
4, 63359, Note_on_c, 1, 46, 0
4, 63360, Note_on_c, 1, 47, 80
4, 63839, Note_on_c, 1, 47, 0
4, 63840, Note_on_c, 1, 45, 80
4, 64319, Note_on_c, 1, 45, 0
4, 64320, Note_on_c, 1, 44, 80
4, 65279, Note_on_c, 1, 44, 0
4, 65280, Note_on_c, 1, 42, 80
4, 65519, Note_on_c, 1, 42, 0
4, 65520, Note_on_c, 1, 44, 80
4, 65759, Note_on_c, 1, 44, 0
4, 65760, Note_on_c, 1, 45, 80
4, 65999, Note_on_c, 1, 45, 0
4, 66000, Note_on_c, 1, 49, 80
4, 66239, Note_on_c, 1, 49, 0
4, 66240, Note_on_c, 1, 54, 80
4, 66719, Note_on_c, 1, 54, 0
4, 72960, Note_on_c, 1, 54, 80
4, 73919, Note_on_c, 1, 54, 0
4, 73920, Note_on_c, 1, 49, 80
4, 74879, Note_on_c, 1, 49, 0
4, 74880, Note_on_c, 1, 52, 80
4, 75839, Note_on_c, 1, 52, 0
4, 75840, Note_on_c, 1, 56, 80
4, 76799, Note_on_c, 1, 56, 0
4, 76800, Note_on_c, 1, 57, 80
4, 77759, Note_on_c, 1, 57, 0
4, 77760, Note_on_c, 1, 56, 80
4, 78239, Note_on_c, 1, 56, 0
4, 78240, Note_on_c, 1, 54, 80
4, 78719, Note_on_c, 1, 54, 0
4, 78720, Note_on_c, 1, 52, 80
4, 79919, Note_on_c, 1, 52, 0
4, 79920, Note_on_c, 1, 51, 80
4, 80159, Note_on_c, 1, 51, 0
4, 80160, Note_on_c, 1, 52, 80
4, 80399, Note_on_c, 1, 52, 0
4, 80400, Note_on_c, 1, 54, 80
4, 80639, Note_on_c, 1, 54, 0
4, 80640, Note_on_c, 1, 56, 80
4, 81599, Note_on_c, 1, 56, 0
4, 82080, Note_on_c, 1, 56, 80
4, 82559, Note_on_c, 1, 56, 0
4, 82560, Note_on_c, 1, 52, 80
4, 83519, Note_on_c, 1, 52, 0
4, 84000, Note_on_c, 1, 54, 80
4, 84479, Note_on_c, 1, 54, 0
4, 84480, Note_on_c, 1, 51, 80
4, 85439, Note_on_c, 1, 51, 0
4, 85920, Note_on_c, 1, 52, 80
4, 86399, Note_on_c, 1, 52, 0
4, 86400, Note_on_c, 1, 49, 80
4, 87599, Note_on_c, 1, 49, 0
4, 87600, Note_on_c, 1, 47, 80
4, 87839, Note_on_c, 1, 47, 0
4, 87840, Note_on_c, 1, 46, 80
4, 88079, Note_on_c, 1, 46, 0
4, 88080, Note_on_c, 1, 49, 80
4, 88319, Note_on_c, 1, 49, 0
4, 88320, Note_on_c, 1, 47, 80
4, 89039, Note_on_c, 1, 47, 0
4, 89040, Note_on_c, 1, 46, 80
4, 89279, Note_on_c, 1, 46, 0
4, 89280, Note_on_c, 1, 47, 80
4, 89759, Note_on_c, 1, 47, 0
4, 89760, Note_on_c, 1, 44, 80
4, 90239, Note_on_c, 1, 44, 0
4, 90240, Note_on_c, 1, 49, 80
4, 90959, Note_on_c, 1, 49, 0
4, 90960, Note_on_c, 1, 47, 80
4, 91199, Note_on_c, 1, 47, 0
4, 91200, Note_on_c, 1, 49, 80
4, 91679, Note_on_c, 1, 49, 0
4, 91680, Note_on_c, 1, 46, 80
4, 92159, Note_on_c, 1, 46, 0
4, 92160, Note_on_c, 1, 51, 80
4, 92879, Note_on_c, 1, 51, 0
4, 92880, Note_on_c, 1, 49, 80
4, 93119, Note_on_c, 1, 49, 0
4, 93120, Note_on_c, 1, 51, 80
4, 93599, Note_on_c, 1, 51, 0
4, 93600, Note_on_c, 1, 47, 80
4, 94079, Note_on_c, 1, 47, 0
4, 94080, Note_on_c, 1, 52, 80
4, 94799, Note_on_c, 1, 52, 0
4, 94800, Note_on_c, 1, 51, 80
4, 95039, Note_on_c, 1, 51, 0
4, 95040, Note_on_c, 1, 52, 80
4, 95519, Note_on_c, 1, 52, 0
4, 95520, Note_on_c, 1, 49, 80
4, 95999, Note_on_c, 1, 49, 0
4, 96000, Note_on_c, 1, 55, 80
4, 96959, Note_on_c, 1, 55, 0
4, 97440, Note_on_c, 1, 51, 80
4, 97919, Note_on_c, 1, 51, 0
4, 97920, Note_on_c, 1, 56, 80
4, 98399, Note_on_c, 1, 56, 0
4, 98400, Note_on_c, 1, 52, 80
4, 98879, Note_on_c, 1, 52, 0
4, 98880, Note_on_c, 1, 49, 80
4, 99359, Note_on_c, 1, 49, 0
4, 99360, Note_on_c, 1, 51, 80
4, 99839, Note_on_c, 1, 51, 0
4, 99840, Note_on_c, 1, 44, 80
4, 100799, Note_on_c, 1, 44, 0
4, 101280, Note_on_c, 1, 56, 80
4, 101759, Note_on_c, 1, 56, 0
4, 101760, Note_on_c, 1, 52, 80
4, 102719, Note_on_c, 1, 52, 0
4, 103200, Note_on_c, 1, 52, 80
4, 103679, Note_on_c, 1, 52, 0
4, 103680, Note_on_c, 1, 49, 80
4, 104639, Note_on_c, 1, 49, 0
4, 105120, Note_on_c, 1, 61, 80
4, 105599, Note_on_c, 1, 61, 0
4, 105600, Note_on_c, 1, 57, 80
4, 106559, Note_on_c, 1, 57, 0
4, 107040, Note_on_c, 1, 57, 80
4, 107519, Note_on_c, 1, 57, 0
4, 107520, Note_on_c, 1, 54, 80
4, 108479, Note_on_c, 1, 54, 0
4, 108720, Note_on_c, 1, 56, 80
4, 108959, Note_on_c, 1, 56, 0
4, 108960, Note_on_c, 1, 54, 80
4, 109199, Note_on_c, 1, 54, 0
4, 109200, Note_on_c, 1, 52, 80
4, 109439, Note_on_c, 1, 52, 0
4, 109440, Note_on_c, 1, 51, 80
4, 110399, Note_on_c, 1, 51, 0
4, 110640, Note_on_c, 1, 52, 80
4, 110879, Note_on_c, 1, 52, 0
4, 110880, Note_on_c, 1, 51, 80
4, 111119, Note_on_c, 1, 51, 0
4, 111120, Note_on_c, 1, 49, 80
4, 111359, Note_on_c, 1, 49, 0
4, 111360, Note_on_c, 1, 47, 80
4, 112319, Note_on_c, 1, 47, 0
4, 115200, Note_on_c, 1, 52, 80
4, 116159, Note_on_c, 1, 52, 0
4, 116160, Note_on_c, 1, 47, 80
4, 117119, Note_on_c, 1, 47, 0
4, 117120, Note_on_c, 1, 51, 80
4, 118079, Note_on_c, 1, 51, 0
4, 118080, Note_on_c, 1, 54, 80
4, 119039, Note_on_c, 1, 54, 0
4, 119040, Note_on_c, 1, 57, 80
4, 119999, Note_on_c, 1, 57, 0
4, 120000, Note_on_c, 1, 56, 80
4, 120479, Note_on_c, 1, 56, 0
4, 120480, Note_on_c, 1, 54, 80
4, 120959, Note_on_c, 1, 54, 0
4, 120960, Note_on_c, 1, 53, 80
4, 122159, Note_on_c, 1, 53, 0
4, 122160, Note_on_c, 1, 49, 80
4, 122399, Note_on_c, 1, 49, 0
4, 122400, Note_on_c, 1, 51, 80
4, 122639, Note_on_c, 1, 51, 0
4, 122640, Note_on_c, 1, 53, 80
4, 122879, Note_on_c, 1, 53, 0
4, 122880, Note_on_c, 1, 54, 80
4, 123359, Note_on_c, 1, 54, 0
4, 123360, Note_on_c, 1, 49, 80
4, 123839, Note_on_c, 1, 49, 0
4, 123840, Note_on_c, 1, 45, 80
4, 124799, Note_on_c, 1, 45, 0
4, 125280, Note_on_c, 1, 49, 80
4, 125759, Note_on_c, 1, 49, 0
4, 125760, Note_on_c, 1, 45, 80
4, 126719, Note_on_c, 1, 45, 0
4, 126960, Note_on_c, 1, 47, 80
4, 127199, Note_on_c, 1, 47, 0
4, 127200, Note_on_c, 1, 46, 80
4, 127439, Note_on_c, 1, 46, 0
4, 127440, Note_on_c, 1, 44, 80
4, 127679, Note_on_c, 1, 44, 0
4, 127680, Note_on_c, 1, 43, 80
4, 127919, Note_on_c, 1, 43, 0
4, 127920, Note_on_c, 1, 39, 80
4, 128159, Note_on_c, 1, 39, 0
4, 128160, Note_on_c, 1, 41, 80
4, 128399, Note_on_c, 1, 41, 0
4, 128400, Note_on_c, 1, 43, 80
4, 128639, Note_on_c, 1, 43, 0
4, 128640, Note_on_c, 1, 44, 80
4, 128879, Note_on_c, 1, 44, 0
4, 128880, Note_on_c, 1, 56, 80
4, 129119, Note_on_c, 1, 56, 0
4, 129120, Note_on_c, 1, 54, 80
4, 129359, Note_on_c, 1, 54, 0
4, 129360, Note_on_c, 1, 52, 80
4, 129599, Note_on_c, 1, 52, 0
4, 129600, Note_on_c, 1, 51, 80
4, 129839, Note_on_c, 1, 51, 0
4, 129840, Note_on_c, 1, 52, 80
4, 130079, Note_on_c, 1, 52, 0
4, 130080, Note_on_c, 1, 54, 80
4, 130319, Note_on_c, 1, 54, 0
4, 130320, Note_on_c, 1, 51, 80
4, 130559, Note_on_c, 1, 51, 0
4, 130560, Note_on_c, 1, 52, 80
4, 130799, Note_on_c, 1, 52, 0
4, 130800, Note_on_c, 1, 54, 80
4, 131039, Note_on_c, 1, 54, 0
4, 131040, Note_on_c, 1, 52, 80
4, 131279, Note_on_c, 1, 52, 0
4, 131280, Note_on_c, 1, 51, 80
4, 131519, Note_on_c, 1, 51, 0
4, 131520, Note_on_c, 1, 49, 80
4, 131759, Note_on_c, 1, 49, 0
4, 131760, Note_on_c, 1, 47, 80
4, 131999, Note_on_c, 1, 47, 0
4, 132000, Note_on_c, 1, 45, 80
4, 132239, Note_on_c, 1, 45, 0
4, 132240, Note_on_c, 1, 44, 80
4, 132479, Note_on_c, 1, 44, 0
4, 132480, Note_on_c, 1, 42, 80
4, 132719, Note_on_c, 1, 42, 0
4, 132720, Note_on_c, 1, 44, 80
4, 132959, Note_on_c, 1, 44, 0
4, 132960, Note_on_c, 1, 45, 80
4, 133199, Note_on_c, 1, 45, 0
4, 133200, Note_on_c, 1, 42, 80
4, 133439, Note_on_c, 1, 42, 0
4, 133440, Note_on_c, 1, 47, 80
4, 133679, Note_on_c, 1, 47, 0
4, 133680, Note_on_c, 1, 49, 80
4, 133919, Note_on_c, 1, 49, 0
4, 133920, Note_on_c, 1, 51, 80
4, 134159, Note_on_c, 1, 51, 0
4, 134160, Note_on_c, 1, 47, 80
4, 134399, Note_on_c, 1, 47, 0
4, 134400, Note_on_c, 1, 52, 80
4, 134639, Note_on_c, 1, 52, 0
4, 134640, Note_on_c, 1, 54, 80
4, 134879, Note_on_c, 1, 54, 0
4, 134880, Note_on_c, 1, 56, 80
4, 135119, Note_on_c, 1, 56, 0
4, 135120, Note_on_c, 1, 52, 80
4, 135359, Note_on_c, 1, 52, 0
4, 135360, Note_on_c, 1, 57, 80
4, 135599, Note_on_c, 1, 57, 0
4, 135600, Note_on_c, 1, 56, 80
4, 135839, Note_on_c, 1, 56, 0
4, 135840, Note_on_c, 1, 54, 80
4, 136079, Note_on_c, 1, 54, 0
4, 136080, Note_on_c, 1, 52, 80
4, 136319, Note_on_c, 1, 52, 0
4, 136320, Note_on_c, 1, 51, 80
4, 136559, Note_on_c, 1, 51, 0
4, 136560, Note_on_c, 1, 49, 80
4, 136799, Note_on_c, 1, 49, 0
4, 136800, Note_on_c, 1, 48, 80
4, 137039, Note_on_c, 1, 48, 0
4, 137040, Note_on_c, 1, 46, 80
4, 137279, Note_on_c, 1, 46, 0
4, 137280, Note_on_c, 1, 44, 80
4, 137519, Note_on_c, 1, 44, 0
4, 137520, Note_on_c, 1, 42, 80
4, 137759, Note_on_c, 1, 42, 0
4, 137760, Note_on_c, 1, 40, 80
4, 137999, Note_on_c, 1, 40, 0
4, 138000, Note_on_c, 1, 39, 80
4, 138239, Note_on_c, 1, 39, 0
4, 138240, Note_on_c, 1, 37, 80
4, 138719, Note_on_c, 1, 37, 0
4, 138720, Note_on_c, 1, 56, 80
4, 139199, Note_on_c, 1, 56, 0
4, 139200, Note_on_c, 1, 52, 80
4, 139679, Note_on_c, 1, 52, 0
4, 139680, Note_on_c, 1, 49, 80
4, 140159, Note_on_c, 1, 49, 0
4, 140640, Note_on_c, 1, 44, 80
4, 141119, Note_on_c, 1, 44, 0
4, 141120, Note_on_c, 1, 40, 80
4, 141599, Note_on_c, 1, 40, 0
4, 141600, Note_on_c, 1, 37, 80
4, 142079, Note_on_c, 1, 37, 0
4, 142320, Note_on_c, 1, 54, 80
4, 142559, Note_on_c, 1, 54, 0
4, 142560, Note_on_c, 1, 53, 80
4, 142799, Note_on_c, 1, 53, 0
4, 142800, Note_on_c, 1, 51, 80
4, 143039, Note_on_c, 1, 51, 0
4, 143040, Note_on_c, 1, 50, 80
4, 143279, Note_on_c, 1, 50, 0
4, 143280, Note_on_c, 1, 48, 80
4, 143519, Note_on_c, 1, 48, 0
4, 143520, Note_on_c, 1, 50, 80
4, 143759, Note_on_c, 1, 50, 0
4, 143760, Note_on_c, 1, 46, 80
4, 143999, Note_on_c, 1, 46, 0
4, 144000, Note_on_c, 1, 51, 80
4, 144479, Note_on_c, 1, 51, 0
4, 144480, Note_on_c, 1, 39, 80
4, 144959, Note_on_c, 1, 39, 0
4, 144960, Note_on_c, 1, 46, 80
4, 145439, Note_on_c, 1, 46, 0
4, 145440, Note_on_c, 1, 49, 80
4, 145919, Note_on_c, 1, 49, 0
4, 145920, Note_on_c, 1, 47, 80
4, 146399, Note_on_c, 1, 47, 0
4, 147360, Note_on_c, 1, 56, 80
4, 147839, Note_on_c, 1, 56, 0
4, 147840, Note_on_c, 1, 53, 80
4, 148799, Note_on_c, 1, 53, 0
4, 149280, Note_on_c, 1, 56, 80
4, 149759, Note_on_c, 1, 56, 0
4, 149760, Note_on_c, 1, 53, 80
4, 150239, Note_on_c, 1, 53, 0
4, 150240, Note_on_c, 1, 48, 80
4, 150719, Note_on_c, 1, 48, 0
4, 150720, Note_on_c, 1, 45, 80
4, 151199, Note_on_c, 1, 45, 0
4, 151200, Note_on_c, 1, 41, 80
4, 151679, Note_on_c, 1, 41, 0
4, 152160, Note_on_c, 1, 46, 80
4, 152639, Note_on_c, 1, 46, 0
4, 152640, Note_on_c, 1, 53, 80
4, 153119, Note_on_c, 1, 53, 0
4, 153120, Note_on_c, 1, 56, 80
4, 154079, Note_on_c, 1, 56, 0
4, 154080, Note_on_c, 1, 55, 80
4, 154559, Note_on_c, 1, 55, 0
4, 154560, Note_on_c, 1, 56, 80
4, 155759, Note_on_c, 1, 56, 0
4, 155760, Note_on_c, 1, 58, 80
4, 155999, Note_on_c, 1, 58, 0
4, 156000, Note_on_c, 1, 59, 80
4, 156239, Note_on_c, 1, 59, 0
4, 156240, Note_on_c, 1, 56, 80
4, 156479, Note_on_c, 1, 56, 0
4, 156480, Note_on_c, 1, 58, 80
4, 156959, Note_on_c, 1, 58, 0
4, 156960, Note_on_c, 1, 56, 80
4, 157439, Note_on_c, 1, 56, 0
4, 157440, Note_on_c, 1, 55, 80
4, 157919, Note_on_c, 1, 55, 0
4, 157920, Note_on_c, 1, 51, 80
4, 158399, Note_on_c, 1, 51, 0
4, 158400, Note_on_c, 1, 52, 80
4, 158879, Note_on_c, 1, 52, 0
4, 158880, Note_on_c, 1, 53, 80
4, 159839, Note_on_c, 1, 53, 0
4, 159840, Note_on_c, 1, 54, 80
4, 160799, Note_on_c, 1, 54, 0
4, 160800, Note_on_c, 1, 55, 80
4, 161759, Note_on_c, 1, 55, 0
4, 161760, Note_on_c, 1, 56, 80
4, 162479, Note_on_c, 1, 56, 0
4, 162480, Note_on_c, 1, 54, 80
4, 162719, Note_on_c, 1, 54, 0
4, 162720, Note_on_c, 1, 53, 80
4, 162959, Note_on_c, 1, 53, 0
4, 162960, Note_on_c, 1, 56, 80
4, 163199, Note_on_c, 1, 56, 0
4, 163200, Note_on_c, 1, 54, 80
4, 164159, Note_on_c, 1, 54, 0
4, 164160, Note_on_c, 1, 42, 80
4, 165119, Note_on_c, 1, 42, 0
4, 165120, Note_on_c, 1, 47, 80
4, 166079, Note_on_c, 1, 47, 0
4, 166320, Note_on_c, 1, 47, 80
4, 166559, Note_on_c, 1, 47, 0
4, 166560, Note_on_c, 1, 49, 80
4, 166799, Note_on_c, 1, 49, 0
4, 166800, Note_on_c, 1, 51, 80
4, 167039, Note_on_c, 1, 51, 0
4, 167040, Note_on_c, 1, 52, 80
4, 167999, Note_on_c, 1, 52, 0
4, 168240, Note_on_c, 1, 54, 80
4, 168479, Note_on_c, 1, 54, 0
4, 168480, Note_on_c, 1, 52, 80
4, 168719, Note_on_c, 1, 52, 0
4, 168720, Note_on_c, 1, 51, 80
4, 168959, Note_on_c, 1, 51, 0
4, 168960, Note_on_c, 1, 49, 80
4, 169919, Note_on_c, 1, 49, 0
4, 170160, Note_on_c, 1, 49, 80
4, 170399, Note_on_c, 1, 49, 0
4, 170400, Note_on_c, 1, 51, 80
4, 170639, Note_on_c, 1, 51, 0
4, 170640, Note_on_c, 1, 52, 80
4, 170879, Note_on_c, 1, 52, 0
4, 170880, Note_on_c, 1, 54, 80
4, 171839, Note_on_c, 1, 54, 0
4, 172080, Note_on_c, 1, 56, 80
4, 172319, Note_on_c, 1, 56, 0
4, 172320, Note_on_c, 1, 54, 80
4, 172559, Note_on_c, 1, 54, 0
4, 172560, Note_on_c, 1, 52, 80
4, 172799, Note_on_c, 1, 52, 0
4, 172800, Note_on_c, 1, 51, 80
4, 173759, Note_on_c, 1, 51, 0
4, 174000, Note_on_c, 1, 51, 80
4, 174239, Note_on_c, 1, 51, 0
4, 174240, Note_on_c, 1, 52, 80
4, 174479, Note_on_c, 1, 52, 0
4, 174480, Note_on_c, 1, 54, 80
4, 174719, Note_on_c, 1, 54, 0
4, 174720, Note_on_c, 1, 56, 80
4, 175679, Note_on_c, 1, 56, 0
4, 176160, Note_on_c, 1, 56, 80
4, 176639, Note_on_c, 1, 56, 0
4, 176640, Note_on_c, 1, 49, 80
4, 177599, Note_on_c, 1, 49, 0
4, 177840, Note_on_c, 1, 49, 80
4, 178079, Note_on_c, 1, 49, 0
4, 178080, Note_on_c, 1, 47, 80
4, 178319, Note_on_c, 1, 47, 0
4, 178320, Note_on_c, 1, 45, 80
4, 178559, Note_on_c, 1, 45, 0
4, 178560, Note_on_c, 1, 44, 80
4, 179039, Note_on_c, 1, 44, 0
4, 180000, Note_on_c, 1, 52, 80
4, 180479, Note_on_c, 1, 52, 0
4, 180480, Note_on_c, 1, 45, 80
4, 181439, Note_on_c, 1, 45, 0
4, 181680, Note_on_c, 1, 45, 80
4, 181919, Note_on_c, 1, 45, 0
4, 181920, Note_on_c, 1, 44, 80
4, 182159, Note_on_c, 1, 44, 0
4, 182160, Note_on_c, 1, 42, 80
4, 182399, Note_on_c, 1, 42, 0
4, 182400, Note_on_c, 1, 41, 80
4, 182879, Note_on_c, 1, 41, 0
4, 183840, Note_on_c, 1, 49, 80
4, 184319, Note_on_c, 1, 49, 0
4, 184320, Note_on_c, 1, 42, 80
4, 184799, Note_on_c, 1, 42, 0
4, 184800, Note_on_c, 1, 44, 80
4, 185279, Note_on_c, 1, 44, 0
4, 185280, Note_on_c, 1, 45, 80
4, 185759, Note_on_c, 1, 45, 0
4, 185760, Note_on_c, 1, 42, 80
4, 186239, Note_on_c, 1, 42, 0
4, 186240, Note_on_c, 1, 47, 80
4, 186719, Note_on_c, 1, 47, 0
4, 186720, Note_on_c, 1, 50, 80
4, 187199, Note_on_c, 1, 50, 0
4, 187200, Note_on_c, 1, 47, 80
4, 187679, Note_on_c, 1, 47, 0
4, 187680, Note_on_c, 1, 44, 80
4, 188159, Note_on_c, 1, 44, 0
4, 188160, Note_on_c, 1, 49, 80
4, 188639, Note_on_c, 1, 49, 0
4, 188640, Note_on_c, 1, 53, 80
4, 189119, Note_on_c, 1, 53, 0
4, 189120, Note_on_c, 1, 49, 80
4, 189599, Note_on_c, 1, 49, 0
4, 189600, Note_on_c, 1, 45, 80
4, 190079, Note_on_c, 1, 45, 0
4, 190080, Note_on_c, 1, 50, 80
4, 190559, Note_on_c, 1, 50, 0
4, 190560, Note_on_c, 1, 54, 80
4, 191039, Note_on_c, 1, 54, 0
4, 191040, Note_on_c, 1, 51, 80
4, 191519, Note_on_c, 1, 51, 0
4, 191520, Note_on_c, 1, 47, 80
4, 191999, Note_on_c, 1, 47, 0
4, 192000, Note_on_c, 1, 52, 80
4, 192479, Note_on_c, 1, 52, 0
4, 192480, Note_on_c, 1, 56, 80
4, 192959, Note_on_c, 1, 56, 0
4, 192960, Note_on_c, 1, 53, 80
4, 193439, Note_on_c, 1, 53, 0
4, 193440, Note_on_c, 1, 49, 80
4, 193919, Note_on_c, 1, 49, 0
4, 193920, Note_on_c, 1, 54, 80
4, 194399, Note_on_c, 1, 54, 0
4, 194400, Note_on_c, 1, 50, 80
4, 194879, Note_on_c, 1, 50, 0
4, 194880, Note_on_c, 1, 47, 80
4, 195359, Note_on_c, 1, 47, 0
4, 195360, Note_on_c, 1, 49, 80
4, 195839, Note_on_c, 1, 49, 0
4, 195840, Note_on_c, 1, 54, 80
4, 196319, Note_on_c, 1, 54, 0
4, 196320, Note_on_c, 1, 57, 80
4, 196799, Note_on_c, 1, 57, 0
4, 196800, Note_on_c, 1, 54, 80
4, 197759, Note_on_c, 1, 54, 0
4, 198240, Note_on_c, 1, 54, 80
4, 198719, Note_on_c, 1, 54, 0
4, 198720, Note_on_c, 1, 51, 80
4, 199679, Note_on_c, 1, 51, 0
4, 200160, Note_on_c, 1, 56, 80
4, 200639, Note_on_c, 1, 56, 0
4, 200640, Note_on_c, 1, 52, 80
4, 201599, Note_on_c, 1, 52, 0
4, 202080, Note_on_c, 1, 52, 80
4, 202559, Note_on_c, 1, 52, 0
4, 202560, Note_on_c, 1, 49, 80
4, 203999, Note_on_c, 1, 49, 0
4, 204000, Note_on_c, 1, 52, 80
4, 204959, Note_on_c, 1, 52, 0
4, 204960, Note_on_c, 1, 45, 80
4, 205919, Note_on_c, 1, 45, 0
4, 205920, Note_on_c, 1, 49, 80
4, 206879, Note_on_c, 1, 49, 0
4, 206880, Note_on_c, 1, 52, 80
4, 207839, Note_on_c, 1, 52, 0
4, 207840, Note_on_c, 1, 54, 80
4, 208559, Note_on_c, 1, 54, 0
4, 208560, Note_on_c, 1, 52, 80
4, 209039, Note_on_c, 1, 52, 0
4, 209040, Note_on_c, 1, 51, 80
4, 209279, Note_on_c, 1, 51, 0
4, 209280, Note_on_c, 1, 49, 80
4, 210479, Note_on_c, 1, 49, 0
4, 210480, Note_on_c, 1, 48, 80
4, 210719, Note_on_c, 1, 48, 0
4, 210720, Note_on_c, 1, 49, 80
4, 210959, Note_on_c, 1, 49, 0
4, 210960, Note_on_c, 1, 51, 80
4, 211199, Note_on_c, 1, 51, 0
4, 211200, Note_on_c, 1, 52, 80
4, 212399, Note_on_c, 1, 52, 0
4, 212400, Note_on_c, 1, 52, 80
4, 212639, Note_on_c, 1, 52, 0
4, 212640, Note_on_c, 1, 51, 80
4, 212879, Note_on_c, 1, 51, 0
4, 212880, Note_on_c, 1, 49, 80
4, 213119, Note_on_c, 1, 49, 0
4, 213120, Note_on_c, 1, 47, 80
4, 214319, Note_on_c, 1, 47, 0
4, 214320, Note_on_c, 1, 46, 80
4, 214799, Note_on_c, 1, 46, 0
4, 214800, Note_on_c, 1, 45, 80
4, 215039, Note_on_c, 1, 45, 0
4, 215040, Note_on_c, 1, 44, 80
4, 217199, Note_on_c, 1, 44, 0
4, 217200, Note_on_c, 1, 54, 80
4, 217439, Note_on_c, 1, 54, 0
4, 217440, Note_on_c, 1, 56, 80
4, 217679, Note_on_c, 1, 56, 0
4, 217680, Note_on_c, 1, 57, 80
4, 217919, Note_on_c, 1, 57, 0
4, 217920, Note_on_c, 1, 56, 80
4, 218159, Note_on_c, 1, 56, 0
4, 218160, Note_on_c, 1, 54, 80
4, 218399, Note_on_c, 1, 54, 0
4, 218400, Note_on_c, 1, 52, 80
4, 218639, Note_on_c, 1, 52, 0
4, 218640, Note_on_c, 1, 51, 80
4, 218879, Note_on_c, 1, 51, 0
4, 218880, Note_on_c, 1, 53, 80
4, 219839, Note_on_c, 1, 53, 0
4, 220320, Note_on_c, 1, 49, 80
4, 220799, Note_on_c, 1, 49, 0
4, 220800, Note_on_c, 1, 42, 80
4, 221279, Note_on_c, 1, 42, 0
4, 222240, Note_on_c, 1, 54, 80
4, 222719, Note_on_c, 1, 54, 0
4, 222720, Note_on_c, 1, 51, 80
4, 223679, Note_on_c, 1, 51, 0
4, 224160, Note_on_c, 1, 47, 80
4, 224639, Note_on_c, 1, 47, 0
4, 224640, Note_on_c, 1, 52, 80
4, 225119, Note_on_c, 1, 52, 0
4, 225120, Note_on_c, 1, 47, 80
4, 225599, Note_on_c, 1, 47, 0
4, 225600, Note_on_c, 1, 44, 80
4, 226079, Note_on_c, 1, 44, 0
4, 226080, Note_on_c, 1, 40, 80
4, 226559, Note_on_c, 1, 40, 0
4, 226560, Note_on_c, 1, 45, 80
4, 227759, Note_on_c, 1, 45, 0
4, 227760, Note_on_c, 1, 44, 80
4, 227999, Note_on_c, 1, 44, 0
4, 228000, Note_on_c, 1, 42, 80
4, 228239, Note_on_c, 1, 42, 0
4, 228240, Note_on_c, 1, 45, 80
4, 228479, Note_on_c, 1, 45, 0
4, 228480, Note_on_c, 1, 44, 80
4, 228719, Note_on_c, 1, 44, 0
4, 228720, Note_on_c, 1, 46, 80
4, 228959, Note_on_c, 1, 46, 0
4, 228960, Note_on_c, 1, 47, 80
4, 229679, Note_on_c, 1, 47, 0
4, 229680, Note_on_c, 1, 46, 80
4, 229919, Note_on_c, 1, 46, 0
4, 229920, Note_on_c, 1, 44, 80
4, 230159, Note_on_c, 1, 44, 0
4, 230160, Note_on_c, 1, 47, 80
4, 230399, Note_on_c, 1, 47, 0
4, 230400, Note_on_c, 1, 46, 80
4, 230639, Note_on_c, 1, 46, 0
4, 230640, Note_on_c, 1, 48, 80
4, 230879, Note_on_c, 1, 48, 0
4, 230880, Note_on_c, 1, 49, 80
4, 231599, Note_on_c, 1, 49, 0
4, 231600, Note_on_c, 1, 48, 80
4, 231839, Note_on_c, 1, 48, 0
4, 231840, Note_on_c, 1, 46, 80
4, 232079, Note_on_c, 1, 46, 0
4, 232080, Note_on_c, 1, 49, 80
4, 232319, Note_on_c, 1, 49, 0
4, 232320, Note_on_c, 1, 48, 80
4, 232559, Note_on_c, 1, 48, 0
4, 232560, Note_on_c, 1, 49, 80
4, 232799, Note_on_c, 1, 49, 0
4, 232800, Note_on_c, 1, 51, 80
4, 233519, Note_on_c, 1, 51, 0
4, 233520, Note_on_c, 1, 49, 80
4, 233759, Note_on_c, 1, 49, 0
4, 233760, Note_on_c, 1, 48, 80
4, 233999, Note_on_c, 1, 48, 0
4, 234000, Note_on_c, 1, 51, 80
4, 234239, Note_on_c, 1, 51, 0
4, 234240, Note_on_c, 1, 49, 80
4, 234719, Note_on_c, 1, 49, 0
4, 234720, Note_on_c, 1, 51, 80
4, 235199, Note_on_c, 1, 51, 0
4, 235200, Note_on_c, 1, 52, 80
4, 235679, Note_on_c, 1, 52, 0
4, 235680, Note_on_c, 1, 49, 80
4, 236159, Note_on_c, 1, 49, 0
4, 236160, Note_on_c, 1, 54, 80
4, 237119, Note_on_c, 1, 54, 0
4, 237600, Note_on_c, 1, 47, 80
4, 238079, Note_on_c, 1, 47, 0
4, 238080, Note_on_c, 1, 52, 80
4, 239039, Note_on_c, 1, 52, 0
4, 239520, Note_on_c, 1, 40, 80
4, 239999, Note_on_c, 1, 40, 0
4, 240000, Note_on_c, 1, 45, 80
4, 241199, Note_on_c, 1, 45, 0
4, 241200, Note_on_c, 1, 44, 80
4, 241439, Note_on_c, 1, 44, 0
4, 241440, Note_on_c, 1, 45, 80
4, 241679, Note_on_c, 1, 45, 0
4, 241680, Note_on_c, 1, 42, 80
4, 241919, Note_on_c, 1, 42, 0
4, 241920, Note_on_c, 1, 45, 80
4, 242159, Note_on_c, 1, 45, 0
4, 242160, Note_on_c, 1, 44, 80
4, 242399, Note_on_c, 1, 44, 0
4, 242400, Note_on_c, 1, 42, 80
4, 242639, Note_on_c, 1, 42, 0
4, 242640, Note_on_c, 1, 41, 80
4, 242879, Note_on_c, 1, 41, 0
4, 242880, Note_on_c, 1, 42, 80
4, 244079, Note_on_c, 1, 42, 0
4, 244080, Note_on_c, 1, 41, 80
4, 244319, Note_on_c, 1, 41, 0
4, 244320, Note_on_c, 1, 42, 80
4, 244559, Note_on_c, 1, 42, 0
4, 244560, Note_on_c, 1, 44, 80
4, 244799, Note_on_c, 1, 44, 0
4, 244800, Note_on_c, 1, 45, 80
4, 245039, Note_on_c, 1, 45, 0
4, 245040, Note_on_c, 1, 42, 80
4, 245279, Note_on_c, 1, 42, 0
4, 245280, Note_on_c, 1, 45, 80
4, 245519, Note_on_c, 1, 45, 0
4, 245520, Note_on_c, 1, 49, 80
4, 245759, Note_on_c, 1, 49, 0
4, 245760, Note_on_c, 1, 54, 80
4, 247919, Note_on_c, 1, 54, 0
4, 247920, Note_on_c, 1, 49, 80
4, 248159, Note_on_c, 1, 49, 0
4, 248160, Note_on_c, 1, 47, 80
4, 248399, Note_on_c, 1, 47, 0
4, 248400, Note_on_c, 1, 44, 80
4, 248639, Note_on_c, 1, 44, 0
4, 248640, Note_on_c, 1, 45, 80
4, 248879, Note_on_c, 1, 45, 0
4, 248880, Note_on_c, 1, 49, 80
4, 249119, Note_on_c, 1, 49, 0
4, 249120, Note_on_c, 1, 42, 80
4, 249359, Note_on_c, 1, 42, 0
4, 249360, Note_on_c, 1, 40, 80
4, 249599, Note_on_c, 1, 40, 0
4, 249600, Note_on_c, 1, 39, 80
4, 249839, Note_on_c, 1, 39, 0
4, 249840, Note_on_c, 1, 51, 80
4, 250079, Note_on_c, 1, 51, 0
4, 250080, Note_on_c, 1, 49, 80
4, 250319, Note_on_c, 1, 49, 0
4, 250320, Note_on_c, 1, 46, 80
4, 250559, Note_on_c, 1, 46, 0
4, 250560, Note_on_c, 1, 47, 80
4, 250799, Note_on_c, 1, 47, 0
4, 250800, Note_on_c, 1, 51, 80
4, 251039, Note_on_c, 1, 51, 0
4, 251040, Note_on_c, 1, 44, 80
4, 251279, Note_on_c, 1, 44, 0
4, 251280, Note_on_c, 1, 43, 80
4, 251519, Note_on_c, 1, 43, 0
4, 251520, Note_on_c, 1, 44, 80
4, 251759, Note_on_c, 1, 44, 0
4, 251760, Note_on_c, 1, 56, 80
4, 251999, Note_on_c, 1, 56, 0
4, 252000, Note_on_c, 1, 54, 80
4, 252239, Note_on_c, 1, 54, 0
4, 252240, Note_on_c, 1, 51, 80
4, 252479, Note_on_c, 1, 51, 0
4, 252480, Note_on_c, 1, 52, 80
4, 254399, Note_on_c, 1, 52, 0
4, 254400, Note_on_c, 1, 45, 80
4, 255359, Note_on_c, 1, 45, 0
4, 255360, Note_on_c, 1, 44, 80
4, 257279, Note_on_c, 1, 44, 0
4, 257280, Note_on_c, 1, 49, 80
4, 264959, Note_on_c, 1, 49, 0
4, 264960, End_track
0, 0, End_of_file
