0, 0, Header, 1, 2, 480
1, 0, Start_track
1, 0, Unknown_meta_event, 10, 11, 74, 46, 32, 83, 46, 32, 66, 97, 99, 104, 0
1, 0, Unknown_meta_event, 9, 8, 66, 87, 86, 32, 57, 56, 56, 0
1, 0, Unknown_meta_event, 8, 36, 71, 111, 108, 100, 98, 101, 114, 103, 32, 86, 97, 114, 105, 97, 116, 105, 111, 110, 115, 58, 32, 86, 97, 114, 105, 97, 116, 105, 111, 110, 32, 88, 88, 73, 88, 0
1, 0, Time_signature, 3, 2, 24, 8
1, 0, Key_signature, 1, "major"
1, 0, Program_c, 0, 46
1, 2, Control_c, 0, 7, 100
1, 4, Control_c, 0, 10, 64
1, 6, Control_c, 0, 91, 30
1, 8, Control_c, 0, 93, 30
1, 360, Note_on_c, 0, 62, 80
1, 360, Note_on_c, 0, 59, 80
1, 360, Note_on_c, 0, 67, 80
1, 479, Note_on_c, 0, 62, 0
1, 479, Note_on_c, 0, 59, 0
1, 479, Note_on_c, 0, 67, 0
1, 600, Note_on_c, 0, 62, 80
1, 600, Note_on_c, 0, 59, 80
1, 600, Note_on_c, 0, 67, 80
1, 719, Note_on_c, 0, 62, 0
1, 719, Note_on_c, 0, 59, 0
1, 719, Note_on_c, 0, 67, 0
1, 840, Note_on_c, 0, 62, 80
1, 840, Note_on_c, 0, 59, 80
1, 840, Note_on_c, 0, 67, 80
1, 959, Note_on_c, 0, 62, 0
1, 959, Note_on_c, 0, 59, 0
1, 959, Note_on_c, 0, 67, 0
1, 1080, Note_on_c, 0, 62, 80
1, 1080, Note_on_c, 0, 59, 80
1, 1080, Note_on_c, 0, 67, 80
1, 1199, Note_on_c, 0, 62, 0
1, 1199, Note_on_c, 0, 59, 0
1, 1199, Note_on_c, 0, 67, 0
1, 1320, Note_on_c, 0, 62, 80
1, 1320, Note_on_c, 0, 59, 80
1, 1320, Note_on_c, 0, 67, 80
1, 1439, Note_on_c, 0, 62, 0
1, 1439, Note_on_c, 0, 59, 0
1, 1439, Note_on_c, 0, 67, 0
1, 1800, Note_on_c, 0, 69, 80
1, 1800, Note_on_c, 0, 66, 80
1, 1800, Note_on_c, 0, 74, 80
1, 1919, Note_on_c, 0, 69, 0
1, 1919, Note_on_c, 0, 66, 0
1, 1919, Note_on_c, 0, 74, 0
1, 2040, Note_on_c, 0, 69, 80
1, 2040, Note_on_c, 0, 66, 80
1, 2040, Note_on_c, 0, 74, 80
1, 2159, Note_on_c, 0, 69, 0
1, 2159, Note_on_c, 0, 66, 0
1, 2159, Note_on_c, 0, 74, 0
1, 2280, Note_on_c, 0, 69, 80
1, 2280, Note_on_c, 0, 66, 80
1, 2280, Note_on_c, 0, 74, 80
1, 2399, Note_on_c, 0, 69, 0
1, 2399, Note_on_c, 0, 66, 0
1, 2399, Note_on_c, 0, 74, 0
1, 2520, Note_on_c, 0, 69, 80
1, 2520, Note_on_c, 0, 66, 80
1, 2520, Note_on_c, 0, 74, 80
1, 2639, Note_on_c, 0, 69, 0
1, 2639, Note_on_c, 0, 66, 0
1, 2639, Note_on_c, 0, 74, 0
1, 2760, Note_on_c, 0, 69, 80
1, 2760, Note_on_c, 0, 66, 80
1, 2760, Note_on_c, 0, 74, 80
1, 2879, Note_on_c, 0, 69, 0
1, 2879, Note_on_c, 0, 66, 0
1, 2879, Note_on_c, 0, 74, 0
1, 3240, Note_on_c, 0, 76, 80
1, 3240, Note_on_c, 0, 71, 80
1, 3240, Note_on_c, 0, 79, 80
1, 3359, Note_on_c, 0, 76, 0
1, 3359, Note_on_c, 0, 71, 0
1, 3359, Note_on_c, 0, 79, 0
1, 3480, Note_on_c, 0, 76, 80
1, 3480, Note_on_c, 0, 71, 80
1, 3480, Note_on_c, 0, 79, 80
1, 3599, Note_on_c, 0, 76, 0
1, 3599, Note_on_c, 0, 71, 0
1, 3599, Note_on_c, 0, 79, 0
1, 3720, Note_on_c, 0, 76, 80
1, 3720, Note_on_c, 0, 71, 80
1, 3720, Note_on_c, 0, 79, 80
1, 3839, Note_on_c, 0, 76, 0
1, 3839, Note_on_c, 0, 71, 0
1, 3839, Note_on_c, 0, 79, 0
1, 3960, Note_on_c, 0, 76, 80
1, 3960, Note_on_c, 0, 71, 80
1, 3960, Note_on_c, 0, 79, 80
1, 4079, Note_on_c, 0, 76, 0
1, 4079, Note_on_c, 0, 71, 0
1, 4079, Note_on_c, 0, 79, 0
1, 4200, Note_on_c, 0, 76, 80
1, 4200, Note_on_c, 0, 73, 80
1, 4200, Note_on_c, 0, 79, 80
1, 4319, Note_on_c, 0, 76, 0
1, 4319, Note_on_c, 0, 73, 0
1, 4319, Note_on_c, 0, 79, 0
1, 4320, Note_on_c, 0, 74, 80
1, 4320, Note_on_c, 0, 69, 80
1, 4320, Note_on_c, 0, 78, 80
1, 4439, Note_on_c, 0, 74, 0
1, 4439, Note_on_c, 0, 69, 0
1, 4439, Note_on_c, 0, 78, 0
1, 4880, Note_on_c, 0, 84, 80
1, 4959, Note_on_c, 0, 84, 0
1, 4960, Note_on_c, 0, 83, 80
1, 5039, Note_on_c, 0, 83, 0
1, 5040, Note_on_c, 0, 72, 80
1, 5119, Note_on_c, 0, 72, 0
1, 5120, Note_on_c, 0, 83, 80
1, 5199, Note_on_c, 0, 83, 0
1, 5200, Note_on_c, 0, 81, 80
1, 5279, Note_on_c, 0, 81, 0
1, 5280, Note_on_c, 0, 71, 80
1, 5359, Note_on_c, 0, 71, 0
1, 5360, Note_on_c, 0, 81, 80
1, 5439, Note_on_c, 0, 81, 0
1, 5440, Note_on_c, 0, 79, 80
1, 5519, Note_on_c, 0, 79, 0
1, 5520, Note_on_c, 0, 69, 80
1, 5599, Note_on_c, 0, 69, 0
1, 5600, Note_on_c, 0, 79, 80
1, 5679, Note_on_c, 0, 79, 0
1, 5680, Note_on_c, 0, 78, 80
1, 5759, Note_on_c, 0, 78, 0
1, 5760, Note_on_c, 0, 74, 80
1, 5760, Note_on_c, 0, 71, 80
1, 5760, Note_on_c, 0, 79, 80
1, 5999, Note_on_c, 0, 74, 0
1, 5999, Note_on_c, 0, 71, 0
1, 5999, Note_on_c, 0, 79, 0
1, 6120, Note_on_c, 0, 74, 80
1, 6120, Note_on_c, 0, 71, 80
1, 6120, Note_on_c, 0, 79, 80
1, 6239, Note_on_c, 0, 74, 0
1, 6239, Note_on_c, 0, 71, 0
1, 6239, Note_on_c, 0, 79, 0
1, 6360, Note_on_c, 0, 74, 80
1, 6360, Note_on_c, 0, 71, 80
1, 6360, Note_on_c, 0, 79, 80
1, 6479, Note_on_c, 0, 74, 0
1, 6479, Note_on_c, 0, 71, 0
1, 6479, Note_on_c, 0, 79, 0
1, 6600, Note_on_c, 0, 74, 80
1, 6600, Note_on_c, 0, 71, 80
1, 6600, Note_on_c, 0, 79, 80
1, 6719, Note_on_c, 0, 74, 0
1, 6719, Note_on_c, 0, 71, 0
1, 6719, Note_on_c, 0, 79, 0
1, 6840, Note_on_c, 0, 74, 80
1, 6840, Note_on_c, 0, 71, 80
1, 6840, Note_on_c, 0, 79, 80
1, 6959, Note_on_c, 0, 74, 0
1, 6959, Note_on_c, 0, 71, 0
1, 6959, Note_on_c, 0, 79, 0
1, 7080, Note_on_c, 0, 74, 80
1, 7080, Note_on_c, 0, 71, 80
1, 7080, Note_on_c, 0, 77, 80
1, 7199, Note_on_c, 0, 74, 0
1, 7199, Note_on_c, 0, 71, 0
1, 7199, Note_on_c, 0, 77, 0
1, 7560, Note_on_c, 0, 72, 80
1, 7560, Note_on_c, 0, 67, 80
1, 7560, Note_on_c, 0, 76, 80
1, 7679, Note_on_c, 0, 72, 0
1, 7679, Note_on_c, 0, 67, 0
1, 7679, Note_on_c, 0, 76, 0
1, 7800, Note_on_c, 0, 72, 80
1, 7800, Note_on_c, 0, 67, 80
1, 7800, Note_on_c, 0, 76, 80
1, 7919, Note_on_c, 0, 72, 0
1, 7919, Note_on_c, 0, 67, 0
1, 7919, Note_on_c, 0, 76, 0
1, 8040, Note_on_c, 0, 72, 80
1, 8040, Note_on_c, 0, 67, 80
1, 8040, Note_on_c, 0, 76, 80
1, 8159, Note_on_c, 0, 72, 0
1, 8159, Note_on_c, 0, 67, 0
1, 8159, Note_on_c, 0, 76, 0
1, 8280, Note_on_c, 0, 72, 80
1, 8280, Note_on_c, 0, 67, 80
1, 8280, Note_on_c, 0, 76, 80
1, 8399, Note_on_c, 0, 72, 0
1, 8399, Note_on_c, 0, 67, 0
1, 8399, Note_on_c, 0, 76, 0
1, 8520, Note_on_c, 0, 72, 80
1, 8520, Note_on_c, 0, 67, 80
1, 8520, Note_on_c, 0, 76, 80
1, 8639, Note_on_c, 0, 72, 0
1, 8639, Note_on_c, 0, 67, 0
1, 8639, Note_on_c, 0, 76, 0
1, 9000, Note_on_c, 0, 69, 80
1, 9000, Note_on_c, 0, 66, 80
1, 9000, Note_on_c, 0, 74, 80
1, 9119, Note_on_c, 0, 69, 0
1, 9119, Note_on_c, 0, 66, 0
1, 9119, Note_on_c, 0, 74, 0
1, 9240, Note_on_c, 0, 69, 80
1, 9240, Note_on_c, 0, 66, 80
1, 9240, Note_on_c, 0, 74, 80
1, 9359, Note_on_c, 0, 69, 0
1, 9359, Note_on_c, 0, 66, 0
1, 9359, Note_on_c, 0, 74, 0
1, 9480, Note_on_c, 0, 69, 80
1, 9480, Note_on_c, 0, 66, 80
1, 9480, Note_on_c, 0, 74, 80
1, 9599, Note_on_c, 0, 69, 0
1, 9599, Note_on_c, 0, 66, 0
1, 9599, Note_on_c, 0, 74, 0
1, 9720, Note_on_c, 0, 69, 80
1, 9720, Note_on_c, 0, 66, 80
1, 9720, Note_on_c, 0, 74, 80
1, 9839, Note_on_c, 0, 69, 0
1, 9839, Note_on_c, 0, 66, 0
1, 9839, Note_on_c, 0, 74, 0
1, 9960, Note_on_c, 0, 69, 80
1, 9960, Note_on_c, 0, 66, 80
1, 9960, Note_on_c, 0, 72, 80
1, 10079, Note_on_c, 0, 69, 0
1, 10079, Note_on_c, 0, 66, 0
1, 10079, Note_on_c, 0, 72, 0
1, 10080, Note_on_c, 0, 67, 80
1, 10080, Note_on_c, 0, 62, 80
1, 10080, Note_on_c, 0, 71, 80
1, 10199, Note_on_c, 0, 67, 0
1, 10199, Note_on_c, 0, 62, 0
1, 10199, Note_on_c, 0, 71, 0
1, 10640, Note_on_c, 0, 69, 80
1, 10719, Note_on_c, 0, 69, 0
1, 10720, Note_on_c, 0, 71, 80
1, 10799, Note_on_c, 0, 71, 0
1, 10800, Note_on_c, 0, 72, 80
1, 10879, Note_on_c, 0, 72, 0
1, 10880, Note_on_c, 0, 71, 80
1, 10959, Note_on_c, 0, 71, 0
1, 10960, Note_on_c, 0, 69, 80
1, 11039, Note_on_c, 0, 69, 0
1, 11040, Note_on_c, 0, 71, 80
1, 11119, Note_on_c, 0, 71, 0
1, 11120, Note_on_c, 0, 69, 80
1, 11199, Note_on_c, 0, 69, 0
1, 11200, Note_on_c, 0, 67, 80
1, 11279, Note_on_c, 0, 67, 0
1, 11280, Note_on_c, 0, 76, 80
1, 11359, Note_on_c, 0, 76, 0
1, 11360, Note_on_c, 0, 74, 80
1, 11439, Note_on_c, 0, 74, 0
1, 11440, Note_on_c, 0, 72, 80
1, 11519, Note_on_c, 0, 72, 0
1, 11520, Note_on_c, 0, 74, 80
1, 11599, Note_on_c, 0, 74, 0
1, 11680, Note_on_c, 0, 67, 80
1, 11759, Note_on_c, 0, 67, 0
1, 11760, Note_on_c, 0, 66, 80
1, 11839, Note_on_c, 0, 66, 0
1, 11840, Note_on_c, 0, 66, 80
1, 11919, Note_on_c, 0, 66, 0
1, 11920, Note_on_c, 0, 60, 80
1, 11999, Note_on_c, 0, 60, 0
1, 12160, Note_on_c, 0, 67, 80
1, 12239, Note_on_c, 0, 67, 0
1, 12240, Note_on_c, 0, 69, 80
1, 12319, Note_on_c, 0, 69, 0
1, 12320, Note_on_c, 0, 66, 80
1, 12399, Note_on_c, 0, 66, 0
1, 12640, Note_on_c, 0, 71, 80
1, 12719, Note_on_c, 0, 71, 0
1, 12720, Note_on_c, 0, 73, 80
1, 12799, Note_on_c, 0, 73, 0
1, 12800, Note_on_c, 0, 69, 80
1, 12879, Note_on_c, 0, 69, 0
1, 13120, Note_on_c, 0, 74, 80
1, 13199, Note_on_c, 0, 74, 0
1, 13200, Note_on_c, 0, 73, 80
1, 13279, Note_on_c, 0, 73, 0
1, 13280, Note_on_c, 0, 67, 80
1, 13359, Note_on_c, 0, 67, 0
1, 13600, Note_on_c, 0, 74, 80
1, 13679, Note_on_c, 0, 74, 0
1, 13680, Note_on_c, 0, 76, 80
1, 13759, Note_on_c, 0, 76, 0
1, 13760, Note_on_c, 0, 73, 80
1, 13839, Note_on_c, 0, 73, 0
1, 14080, Note_on_c, 0, 78, 80
1, 14159, Note_on_c, 0, 78, 0
1, 14160, Note_on_c, 0, 74, 80
1, 14239, Note_on_c, 0, 74, 0
1, 14240, Note_on_c, 0, 71, 80
1, 14319, Note_on_c, 0, 71, 0
1, 14560, Note_on_c, 0, 72, 80
1, 14639, Note_on_c, 0, 72, 0
1, 14640, Note_on_c, 0, 71, 80
1, 14719, Note_on_c, 0, 71, 0
1, 14720, Note_on_c, 0, 67, 80
1, 14799, Note_on_c, 0, 67, 0
1, 15040, Note_on_c, 0, 69, 80
1, 15119, Note_on_c, 0, 69, 0
1, 15120, Note_on_c, 0, 67, 80
1, 15199, Note_on_c, 0, 67, 0
1, 15200, Note_on_c, 0, 64, 80
1, 15279, Note_on_c, 0, 64, 0
1, 15520, Note_on_c, 0, 66, 80
1, 15599, Note_on_c, 0, 66, 0
1, 15600, Note_on_c, 0, 64, 80
1, 15679, Note_on_c, 0, 64, 0
1, 15680, Note_on_c, 0, 61, 80
1, 15759, Note_on_c, 0, 61, 0
1, 16000, Note_on_c, 0, 66, 80
1, 16079, Note_on_c, 0, 66, 0
1, 16080, Note_on_c, 0, 64, 80
1, 16159, Note_on_c, 0, 64, 0
1, 16160, Note_on_c, 0, 61, 80
1, 16239, Note_on_c, 0, 61, 0
1, 16480, Note_on_c, 0, 62, 80
1, 16559, Note_on_c, 0, 62, 0
1, 16560, Note_on_c, 0, 61, 80
1, 16639, Note_on_c, 0, 61, 0
1, 16640, Note_on_c, 0, 57, 80
1, 16719, Note_on_c, 0, 57, 0
1, 16960, Note_on_c, 0, 59, 80
1, 17039, Note_on_c, 0, 59, 0
1, 17040, Note_on_c, 0, 57, 80
1, 17119, Note_on_c, 0, 57, 0
1, 17120, Note_on_c, 0, 54, 80
1, 17199, Note_on_c, 0, 54, 0
1, 17440, Note_on_c, 0, 59, 80
1, 17519, Note_on_c, 0, 59, 0
1, 17520, Note_on_c, 0, 57, 80
1, 17599, Note_on_c, 0, 57, 0
1, 17600, Note_on_c, 0, 54, 80
1, 17679, Note_on_c, 0, 54, 0
1, 17920, Note_on_c, 0, 55, 80
1, 17999, Note_on_c, 0, 55, 0
1, 18000, Note_on_c, 0, 54, 80
1, 18079, Note_on_c, 0, 54, 0
1, 18080, Note_on_c, 0, 50, 80
1, 18159, Note_on_c, 0, 50, 0
1, 18400, Note_on_c, 0, 52, 80
1, 18479, Note_on_c, 0, 52, 0
1, 18480, Note_on_c, 0, 50, 80
1, 18559, Note_on_c, 0, 50, 0
1, 18560, Note_on_c, 0, 47, 80
1, 18639, Note_on_c, 0, 47, 0
1, 18880, Note_on_c, 0, 52, 80
1, 18959, Note_on_c, 0, 52, 0
1, 18960, Note_on_c, 0, 50, 80
1, 19039, Note_on_c, 0, 50, 0
1, 19040, Note_on_c, 0, 47, 80
1, 19119, Note_on_c, 0, 47, 0
1, 19360, Note_on_c, 0, 48, 80
1, 19439, Note_on_c, 0, 48, 0
1, 19440, Note_on_c, 0, 47, 80
1, 19519, Note_on_c, 0, 47, 0
1, 19520, Note_on_c, 0, 43, 80
1, 19599, Note_on_c, 0, 43, 0
1, 19840, Note_on_c, 0, 45, 80
1, 19919, Note_on_c, 0, 45, 0
1, 19920, Note_on_c, 0, 43, 80
1, 19999, Note_on_c, 0, 43, 0
1, 20000, Note_on_c, 0, 40, 80
1, 20079, Note_on_c, 0, 40, 0
1, 20240, Note_on_c, 0, 55, 80
1, 20319, Note_on_c, 0, 55, 0
1, 20320, Note_on_c, 0, 57, 80
1, 20399, Note_on_c, 0, 57, 0
1, 20400, Note_on_c, 0, 67, 80
1, 20479, Note_on_c, 0, 67, 0
1, 20480, Note_on_c, 0, 57, 80
1, 20559, Note_on_c, 0, 57, 0
1, 20560, Note_on_c, 0, 55, 80
1, 20639, Note_on_c, 0, 55, 0
1, 20720, Note_on_c, 0, 54, 80
1, 20799, Note_on_c, 0, 54, 0
1, 20800, Note_on_c, 0, 57, 80
1, 20879, Note_on_c, 0, 57, 0
1, 20880, Note_on_c, 0, 62, 80
1, 20959, Note_on_c, 0, 62, 0
1, 20960, Note_on_c, 0, 55, 80
1, 21039, Note_on_c, 0, 55, 0
1, 21040, Note_on_c, 0, 54, 80
1, 21119, Note_on_c, 0, 54, 0
1, 21200, Note_on_c, 0, 52, 80
1, 21279, Note_on_c, 0, 52, 0
1, 21280, Note_on_c, 0, 55, 80
1, 21359, Note_on_c, 0, 55, 0
1, 21360, Note_on_c, 0, 61, 80
1, 21439, Note_on_c, 0, 61, 0
1, 21440, Note_on_c, 0, 55, 80
1, 21519, Note_on_c, 0, 55, 0
1, 21520, Note_on_c, 0, 52, 80
1, 21599, Note_on_c, 0, 52, 0
1, 21960, Note_on_c, 0, 57, 80
1, 21960, Note_on_c, 0, 54, 80
1, 21960, Note_on_c, 0, 62, 80
1, 22079, Note_on_c, 0, 57, 0
1, 22079, Note_on_c, 0, 54, 0
1, 22079, Note_on_c, 0, 62, 0
1, 22200, Note_on_c, 0, 57, 80
1, 22200, Note_on_c, 0, 54, 80
1, 22200, Note_on_c, 0, 62, 80
1, 22319, Note_on_c, 0, 57, 0
1, 22319, Note_on_c, 0, 54, 0
1, 22319, Note_on_c, 0, 62, 0
1, 22440, Note_on_c, 0, 57, 80
1, 22440, Note_on_c, 0, 54, 80
1, 22440, Note_on_c, 0, 62, 80
1, 22559, Note_on_c, 0, 57, 0
1, 22559, Note_on_c, 0, 54, 0
1, 22559, Note_on_c, 0, 62, 0
1, 23400, Note_on_c, 0, 62, 80
1, 23400, Note_on_c, 0, 59, 80
1, 23400, Note_on_c, 0, 67, 80
1, 23519, Note_on_c, 0, 62, 0
1, 23519, Note_on_c, 0, 59, 0
1, 23519, Note_on_c, 0, 67, 0
1, 23640, Note_on_c, 0, 62, 80
1, 23640, Note_on_c, 0, 59, 80
1, 23640, Note_on_c, 0, 67, 80
1, 23759, Note_on_c, 0, 62, 0
1, 23759, Note_on_c, 0, 59, 0
1, 23759, Note_on_c, 0, 67, 0
1, 23880, Note_on_c, 0, 62, 80
1, 23880, Note_on_c, 0, 59, 80
1, 23880, Note_on_c, 0, 67, 80
1, 23999, Note_on_c, 0, 62, 0
1, 23999, Note_on_c, 0, 59, 0
1, 23999, Note_on_c, 0, 67, 0
1, 24120, Note_on_c, 0, 62, 80
1, 24120, Note_on_c, 0, 59, 80
1, 24120, Note_on_c, 0, 67, 80
1, 24239, Note_on_c, 0, 62, 0
1, 24239, Note_on_c, 0, 59, 0
1, 24239, Note_on_c, 0, 67, 0
1, 24360, Note_on_c, 0, 62, 80
1, 24360, Note_on_c, 0, 59, 80
1, 24360, Note_on_c, 0, 67, 80
1, 24479, Note_on_c, 0, 62, 0
1, 24479, Note_on_c, 0, 59, 0
1, 24479, Note_on_c, 0, 67, 0
1, 24840, Note_on_c, 0, 69, 80
1, 24840, Note_on_c, 0, 66, 80
1, 24840, Note_on_c, 0, 74, 80
1, 24959, Note_on_c, 0, 69, 0
1, 24959, Note_on_c, 0, 66, 0
1, 24959, Note_on_c, 0, 74, 0
1, 25080, Note_on_c, 0, 69, 80
1, 25080, Note_on_c, 0, 66, 80
1, 25080, Note_on_c, 0, 74, 80
1, 25199, Note_on_c, 0, 69, 0
1, 25199, Note_on_c, 0, 66, 0
1, 25199, Note_on_c, 0, 74, 0
1, 25320, Note_on_c, 0, 69, 80
1, 25320, Note_on_c, 0, 66, 80
1, 25320, Note_on_c, 0, 74, 80
1, 25439, Note_on_c, 0, 69, 0
1, 25439, Note_on_c, 0, 66, 0
1, 25439, Note_on_c, 0, 74, 0
1, 25560, Note_on_c, 0, 69, 80
1, 25560, Note_on_c, 0, 66, 80
1, 25560, Note_on_c, 0, 74, 80
1, 25679, Note_on_c, 0, 69, 0
1, 25679, Note_on_c, 0, 66, 0
1, 25679, Note_on_c, 0, 74, 0
1, 25800, Note_on_c, 0, 69, 80
1, 25800, Note_on_c, 0, 66, 80
1, 25800, Note_on_c, 0, 74, 80
1, 25919, Note_on_c, 0, 69, 0
1, 25919, Note_on_c, 0, 66, 0
1, 25919, Note_on_c, 0, 74, 0
1, 26280, Note_on_c, 0, 76, 80
1, 26280, Note_on_c, 0, 71, 80
1, 26280, Note_on_c, 0, 79, 80
1, 26399, Note_on_c, 0, 76, 0
1, 26399, Note_on_c, 0, 71, 0
1, 26399, Note_on_c, 0, 79, 0
1, 26520, Note_on_c, 0, 76, 80
1, 26520, Note_on_c, 0, 71, 80
1, 26520, Note_on_c, 0, 79, 80
1, 26639, Note_on_c, 0, 76, 0
1, 26639, Note_on_c, 0, 71, 0
1, 26639, Note_on_c, 0, 79, 0
1, 26760, Note_on_c, 0, 76, 80
1, 26760, Note_on_c, 0, 71, 80
1, 26760, Note_on_c, 0, 79, 80
1, 26879, Note_on_c, 0, 76, 0
1, 26879, Note_on_c, 0, 71, 0
1, 26879, Note_on_c, 0, 79, 0
1, 27000, Note_on_c, 0, 76, 80
1, 27000, Note_on_c, 0, 71, 80
1, 27000, Note_on_c, 0, 79, 80
1, 27119, Note_on_c, 0, 76, 0
1, 27119, Note_on_c, 0, 71, 0
1, 27119, Note_on_c, 0, 79, 0
1, 27240, Note_on_c, 0, 76, 80
1, 27240, Note_on_c, 0, 73, 80
1, 27240, Note_on_c, 0, 79, 80
1, 27359, Note_on_c, 0, 76, 0
1, 27359, Note_on_c, 0, 73, 0
1, 27359, Note_on_c, 0, 79, 0
1, 27360, Note_on_c, 0, 74, 80
1, 27360, Note_on_c, 0, 69, 80
1, 27360, Note_on_c, 0, 78, 80
1, 27479, Note_on_c, 0, 74, 0
1, 27479, Note_on_c, 0, 69, 0
1, 27479, Note_on_c, 0, 78, 0
1, 27920, Note_on_c, 0, 84, 80
1, 27999, Note_on_c, 0, 84, 0
1, 28000, Note_on_c, 0, 83, 80
1, 28079, Note_on_c, 0, 83, 0
1, 28080, Note_on_c, 0, 72, 80
1, 28159, Note_on_c, 0, 72, 0
1, 28160, Note_on_c, 0, 83, 80
1, 28239, Note_on_c, 0, 83, 0
1, 28240, Note_on_c, 0, 81, 80
1, 28319, Note_on_c, 0, 81, 0
1, 28320, Note_on_c, 0, 71, 80
1, 28399, Note_on_c, 0, 71, 0
1, 28400, Note_on_c, 0, 81, 80
1, 28479, Note_on_c, 0, 81, 0
1, 28480, Note_on_c, 0, 79, 80
1, 28559, Note_on_c, 0, 79, 0
1, 28560, Note_on_c, 0, 69, 80
1, 28639, Note_on_c, 0, 69, 0
1, 28640, Note_on_c, 0, 79, 80
1, 28719, Note_on_c, 0, 79, 0
1, 28720, Note_on_c, 0, 78, 80
1, 28799, Note_on_c, 0, 78, 0
1, 28800, Note_on_c, 0, 74, 80
1, 28800, Note_on_c, 0, 71, 80
1, 28800, Note_on_c, 0, 79, 80
1, 29039, Note_on_c, 0, 74, 0
1, 29039, Note_on_c, 0, 71, 0
1, 29039, Note_on_c, 0, 79, 0
1, 29160, Note_on_c, 0, 74, 80
1, 29160, Note_on_c, 0, 71, 80
1, 29160, Note_on_c, 0, 79, 80
1, 29279, Note_on_c, 0, 74, 0
1, 29279, Note_on_c, 0, 71, 0
1, 29279, Note_on_c, 0, 79, 0
1, 29400, Note_on_c, 0, 74, 80
1, 29400, Note_on_c, 0, 71, 80
1, 29400, Note_on_c, 0, 79, 80
1, 29519, Note_on_c, 0, 74, 0
1, 29519, Note_on_c, 0, 71, 0
1, 29519, Note_on_c, 0, 79, 0
1, 29640, Note_on_c, 0, 74, 80
1, 29640, Note_on_c, 0, 71, 80
1, 29640, Note_on_c, 0, 79, 80
1, 29759, Note_on_c, 0, 74, 0
1, 29759, Note_on_c, 0, 71, 0
1, 29759, Note_on_c, 0, 79, 0
1, 29880, Note_on_c, 0, 74, 80
1, 29880, Note_on_c, 0, 71, 80
1, 29880, Note_on_c, 0, 79, 80
1, 29999, Note_on_c, 0, 74, 0
1, 29999, Note_on_c, 0, 71, 0
1, 29999, Note_on_c, 0, 79, 0
1, 30120, Note_on_c, 0, 74, 80
1, 30120, Note_on_c, 0, 71, 80
1, 30120, Note_on_c, 0, 77, 80
1, 30239, Note_on_c, 0, 74, 0
1, 30239, Note_on_c, 0, 71, 0
1, 30239, Note_on_c, 0, 77, 0
1, 30600, Note_on_c, 0, 72, 80
1, 30600, Note_on_c, 0, 67, 80
1, 30600, Note_on_c, 0, 76, 80
1, 30719, Note_on_c, 0, 72, 0
1, 30719, Note_on_c, 0, 67, 0
1, 30719, Note_on_c, 0, 76, 0
1, 30840, Note_on_c, 0, 72, 80
1, 30840, Note_on_c, 0, 67, 80
1, 30840, Note_on_c, 0, 76, 80
1, 30959, Note_on_c, 0, 72, 0
1, 30959, Note_on_c, 0, 67, 0
1, 30959, Note_on_c, 0, 76, 0
1, 31080, Note_on_c, 0, 72, 80
1, 31080, Note_on_c, 0, 67, 80
1, 31080, Note_on_c, 0, 76, 80
1, 31199, Note_on_c, 0, 72, 0
1, 31199, Note_on_c, 0, 67, 0
1, 31199, Note_on_c, 0, 76, 0
1, 31320, Note_on_c, 0, 72, 80
1, 31320, Note_on_c, 0, 67, 80
1, 31320, Note_on_c, 0, 76, 80
1, 31439, Note_on_c, 0, 72, 0
1, 31439, Note_on_c, 0, 67, 0
1, 31439, Note_on_c, 0, 76, 0
1, 31560, Note_on_c, 0, 72, 80
1, 31560, Note_on_c, 0, 67, 80
1, 31560, Note_on_c, 0, 76, 80
1, 31679, Note_on_c, 0, 72, 0
1, 31679, Note_on_c, 0, 67, 0
1, 31679, Note_on_c, 0, 76, 0
1, 32040, Note_on_c, 0, 69, 80
1, 32040, Note_on_c, 0, 66, 80
1, 32040, Note_on_c, 0, 74, 80
1, 32159, Note_on_c, 0, 69, 0
1, 32159, Note_on_c, 0, 66, 0
1, 32159, Note_on_c, 0, 74, 0
1, 32280, Note_on_c, 0, 69, 80
1, 32280, Note_on_c, 0, 66, 80
1, 32280, Note_on_c, 0, 74, 80
1, 32399, Note_on_c, 0, 69, 0
1, 32399, Note_on_c, 0, 66, 0
1, 32399, Note_on_c, 0, 74, 0
1, 32520, Note_on_c, 0, 69, 80
1, 32520, Note_on_c, 0, 66, 80
1, 32520, Note_on_c, 0, 74, 80
1, 32639, Note_on_c, 0, 69, 0
1, 32639, Note_on_c, 0, 66, 0
1, 32639, Note_on_c, 0, 74, 0
1, 32760, Note_on_c, 0, 69, 80
1, 32760, Note_on_c, 0, 66, 80
1, 32760, Note_on_c, 0, 74, 80
1, 32879, Note_on_c, 0, 69, 0
1, 32879, Note_on_c, 0, 66, 0
1, 32879, Note_on_c, 0, 74, 0
1, 33000, Note_on_c, 0, 69, 80
1, 33000, Note_on_c, 0, 66, 80
1, 33000, Note_on_c, 0, 72, 80
1, 33119, Note_on_c, 0, 69, 0
1, 33119, Note_on_c, 0, 66, 0
1, 33119, Note_on_c, 0, 72, 0
1, 33120, Note_on_c, 0, 67, 80
1, 33120, Note_on_c, 0, 62, 80
1, 33120, Note_on_c, 0, 71, 80
1, 33239, Note_on_c, 0, 67, 0
1, 33239, Note_on_c, 0, 62, 0
1, 33239, Note_on_c, 0, 71, 0
1, 33680, Note_on_c, 0, 69, 80
1, 33759, Note_on_c, 0, 69, 0
1, 33760, Note_on_c, 0, 71, 80
1, 33839, Note_on_c, 0, 71, 0
1, 33840, Note_on_c, 0, 72, 80
1, 33919, Note_on_c, 0, 72, 0
1, 33920, Note_on_c, 0, 71, 80
1, 33999, Note_on_c, 0, 71, 0
1, 34000, Note_on_c, 0, 69, 80
1, 34079, Note_on_c, 0, 69, 0
1, 34080, Note_on_c, 0, 71, 80
1, 34159, Note_on_c, 0, 71, 0
1, 34160, Note_on_c, 0, 69, 80
1, 34239, Note_on_c, 0, 69, 0
1, 34240, Note_on_c, 0, 67, 80
1, 34319, Note_on_c, 0, 67, 0
1, 34320, Note_on_c, 0, 76, 80
1, 34399, Note_on_c, 0, 76, 0
1, 34400, Note_on_c, 0, 74, 80
1, 34479, Note_on_c, 0, 74, 0
1, 34480, Note_on_c, 0, 72, 80
1, 34559, Note_on_c, 0, 72, 0
1, 34560, Note_on_c, 0, 74, 80
1, 34639, Note_on_c, 0, 74, 0
1, 34720, Note_on_c, 0, 67, 80
1, 34799, Note_on_c, 0, 67, 0
1, 34800, Note_on_c, 0, 66, 80
1, 34879, Note_on_c, 0, 66, 0
1, 34880, Note_on_c, 0, 66, 80
1, 34959, Note_on_c, 0, 66, 0
1, 34960, Note_on_c, 0, 60, 80
1, 35039, Note_on_c, 0, 60, 0
1, 35200, Note_on_c, 0, 67, 80
1, 35279, Note_on_c, 0, 67, 0
1, 35280, Note_on_c, 0, 69, 80
1, 35359, Note_on_c, 0, 69, 0
1, 35360, Note_on_c, 0, 66, 80
1, 35439, Note_on_c, 0, 66, 0
1, 35680, Note_on_c, 0, 71, 80
1, 35759, Note_on_c, 0, 71, 0
1, 35760, Note_on_c, 0, 73, 80
1, 35839, Note_on_c, 0, 73, 0
1, 35840, Note_on_c, 0, 69, 80
1, 35919, Note_on_c, 0, 69, 0
1, 36160, Note_on_c, 0, 74, 80
1, 36239, Note_on_c, 0, 74, 0
1, 36240, Note_on_c, 0, 73, 80
1, 36319, Note_on_c, 0, 73, 0
1, 36320, Note_on_c, 0, 67, 80
1, 36399, Note_on_c, 0, 67, 0
1, 36640, Note_on_c, 0, 74, 80
1, 36719, Note_on_c, 0, 74, 0
1, 36720, Note_on_c, 0, 76, 80
1, 36799, Note_on_c, 0, 76, 0
1, 36800, Note_on_c, 0, 73, 80
1, 36879, Note_on_c, 0, 73, 0
1, 37120, Note_on_c, 0, 78, 80
1, 37199, Note_on_c, 0, 78, 0
1, 37200, Note_on_c, 0, 74, 80
1, 37279, Note_on_c, 0, 74, 0
1, 37280, Note_on_c, 0, 71, 80
1, 37359, Note_on_c, 0, 71, 0
1, 37600, Note_on_c, 0, 72, 80
1, 37679, Note_on_c, 0, 72, 0
1, 37680, Note_on_c, 0, 71, 80
1, 37759, Note_on_c, 0, 71, 0
1, 37760, Note_on_c, 0, 67, 80
1, 37839, Note_on_c, 0, 67, 0
1, 38080, Note_on_c, 0, 69, 80
1, 38159, Note_on_c, 0, 69, 0
1, 38160, Note_on_c, 0, 67, 80
1, 38239, Note_on_c, 0, 67, 0
1, 38240, Note_on_c, 0, 64, 80
1, 38319, Note_on_c, 0, 64, 0
1, 38560, Note_on_c, 0, 66, 80
1, 38639, Note_on_c, 0, 66, 0
1, 38640, Note_on_c, 0, 64, 80
1, 38719, Note_on_c, 0, 64, 0
1, 38720, Note_on_c, 0, 61, 80
1, 38799, Note_on_c, 0, 61, 0
1, 39040, Note_on_c, 0, 66, 80
1, 39119, Note_on_c, 0, 66, 0
1, 39120, Note_on_c, 0, 64, 80
1, 39199, Note_on_c, 0, 64, 0
1, 39200, Note_on_c, 0, 61, 80
1, 39279, Note_on_c, 0, 61, 0
1, 39520, Note_on_c, 0, 62, 80
1, 39599, Note_on_c, 0, 62, 0
1, 39600, Note_on_c, 0, 61, 80
1, 39679, Note_on_c, 0, 61, 0
1, 39680, Note_on_c, 0, 57, 80
1, 39759, Note_on_c, 0, 57, 0
1, 40000, Note_on_c, 0, 59, 80
1, 40079, Note_on_c, 0, 59, 0
1, 40080, Note_on_c, 0, 57, 80
1, 40159, Note_on_c, 0, 57, 0
1, 40160, Note_on_c, 0, 54, 80
1, 40239, Note_on_c, 0, 54, 0
1, 40480, Note_on_c, 0, 59, 80
1, 40559, Note_on_c, 0, 59, 0
1, 40560, Note_on_c, 0, 57, 80
1, 40639, Note_on_c, 0, 57, 0
1, 40640, Note_on_c, 0, 54, 80
1, 40719, Note_on_c, 0, 54, 0
1, 40960, Note_on_c, 0, 55, 80
1, 41039, Note_on_c, 0, 55, 0
1, 41040, Note_on_c, 0, 54, 80
1, 41119, Note_on_c, 0, 54, 0
1, 41120, Note_on_c, 0, 50, 80
1, 41199, Note_on_c, 0, 50, 0
1, 41440, Note_on_c, 0, 52, 80
1, 41519, Note_on_c, 0, 52, 0
1, 41520, Note_on_c, 0, 50, 80
1, 41599, Note_on_c, 0, 50, 0
1, 41600, Note_on_c, 0, 47, 80
1, 41679, Note_on_c, 0, 47, 0
1, 41920, Note_on_c, 0, 52, 80
1, 41999, Note_on_c, 0, 52, 0
1, 42000, Note_on_c, 0, 50, 80
1, 42079, Note_on_c, 0, 50, 0
1, 42080, Note_on_c, 0, 47, 80
1, 42159, Note_on_c, 0, 47, 0
1, 42400, Note_on_c, 0, 48, 80
1, 42479, Note_on_c, 0, 48, 0
1, 42480, Note_on_c, 0, 47, 80
1, 42559, Note_on_c, 0, 47, 0
1, 42560, Note_on_c, 0, 43, 80
1, 42639, Note_on_c, 0, 43, 0
1, 42880, Note_on_c, 0, 45, 80
1, 42959, Note_on_c, 0, 45, 0
1, 42960, Note_on_c, 0, 43, 80
1, 43039, Note_on_c, 0, 43, 0
1, 43040, Note_on_c, 0, 40, 80
1, 43119, Note_on_c, 0, 40, 0
1, 43280, Note_on_c, 0, 55, 80
1, 43359, Note_on_c, 0, 55, 0
1, 43360, Note_on_c, 0, 57, 80
1, 43439, Note_on_c, 0, 57, 0
1, 43440, Note_on_c, 0, 67, 80
1, 43519, Note_on_c, 0, 67, 0
1, 43520, Note_on_c, 0, 57, 80
1, 43599, Note_on_c, 0, 57, 0
1, 43600, Note_on_c, 0, 55, 80
1, 43679, Note_on_c, 0, 55, 0
1, 43760, Note_on_c, 0, 54, 80
1, 43839, Note_on_c, 0, 54, 0
1, 43840, Note_on_c, 0, 57, 80
1, 43919, Note_on_c, 0, 57, 0
1, 43920, Note_on_c, 0, 62, 80
1, 43999, Note_on_c, 0, 62, 0
1, 44000, Note_on_c, 0, 55, 80
1, 44079, Note_on_c, 0, 55, 0
1, 44080, Note_on_c, 0, 54, 80
1, 44159, Note_on_c, 0, 54, 0
1, 44240, Note_on_c, 0, 52, 80
1, 44319, Note_on_c, 0, 52, 0
1, 44320, Note_on_c, 0, 55, 80
1, 44399, Note_on_c, 0, 55, 0
1, 44400, Note_on_c, 0, 61, 80
1, 44479, Note_on_c, 0, 61, 0
1, 44480, Note_on_c, 0, 55, 80
1, 44559, Note_on_c, 0, 55, 0
1, 44560, Note_on_c, 0, 52, 80
1, 44639, Note_on_c, 0, 52, 0
1, 45000, Note_on_c, 0, 57, 80
1, 45000, Note_on_c, 0, 54, 80
1, 45000, Note_on_c, 0, 62, 80
1, 45119, Note_on_c, 0, 57, 0
1, 45119, Note_on_c, 0, 54, 0
1, 45119, Note_on_c, 0, 62, 0
1, 45240, Note_on_c, 0, 57, 80
1, 45240, Note_on_c, 0, 54, 80
1, 45240, Note_on_c, 0, 62, 80
1, 45359, Note_on_c, 0, 57, 0
1, 45359, Note_on_c, 0, 54, 0
1, 45359, Note_on_c, 0, 62, 0
1, 45480, Note_on_c, 0, 57, 80
1, 45480, Note_on_c, 0, 54, 80
1, 45480, Note_on_c, 0, 62, 80
1, 45599, Note_on_c, 0, 57, 0
1, 45599, Note_on_c, 0, 54, 0
1, 45599, Note_on_c, 0, 62, 0
1, 46240, Note_on_c, 0, 83, 80
1, 46319, Note_on_c, 0, 83, 0
1, 46320, Note_on_c, 0, 81, 80
1, 46399, Note_on_c, 0, 81, 0
1, 46400, Note_on_c, 0, 78, 80
1, 46479, Note_on_c, 0, 78, 0
1, 46720, Note_on_c, 0, 79, 80
1, 46799, Note_on_c, 0, 79, 0
1, 46800, Note_on_c, 0, 78, 80
1, 46879, Note_on_c, 0, 78, 0
1, 46880, Note_on_c, 0, 74, 80
1, 46959, Note_on_c, 0, 74, 0
1, 47200, Note_on_c, 0, 76, 80
1, 47279, Note_on_c, 0, 76, 0
1, 47280, Note_on_c, 0, 74, 80
1, 47359, Note_on_c, 0, 74, 0
1, 47360, Note_on_c, 0, 71, 80
1, 47439, Note_on_c, 0, 71, 0
1, 47680, Note_on_c, 0, 76, 80
1, 47759, Note_on_c, 0, 76, 0
1, 47760, Note_on_c, 0, 74, 80
1, 47839, Note_on_c, 0, 74, 0
1, 47840, Note_on_c, 0, 71, 80
1, 47919, Note_on_c, 0, 71, 0
1, 48160, Note_on_c, 0, 72, 80
1, 48239, Note_on_c, 0, 72, 0
1, 48240, Note_on_c, 0, 71, 80
1, 48319, Note_on_c, 0, 71, 0
1, 48320, Note_on_c, 0, 67, 80
1, 48399, Note_on_c, 0, 67, 0
1, 48640, Note_on_c, 0, 69, 80
1, 48719, Note_on_c, 0, 69, 0
1, 48720, Note_on_c, 0, 67, 80
1, 48799, Note_on_c, 0, 67, 0
1, 48800, Note_on_c, 0, 64, 80
1, 48879, Note_on_c, 0, 64, 0
1, 49120, Note_on_c, 0, 65, 80
1, 49199, Note_on_c, 0, 65, 0
1, 49200, Note_on_c, 0, 64, 80
1, 49279, Note_on_c, 0, 64, 0
1, 49280, Note_on_c, 0, 60, 80
1, 49359, Note_on_c, 0, 60, 0
1, 49600, Note_on_c, 0, 62, 80
1, 49679, Note_on_c, 0, 62, 0
1, 49680, Note_on_c, 0, 60, 80
1, 49759, Note_on_c, 0, 60, 0
1, 49760, Note_on_c, 0, 57, 80
1, 49839, Note_on_c, 0, 57, 0
1, 50080, Note_on_c, 0, 59, 80
1, 50159, Note_on_c, 0, 59, 0
1, 50160, Note_on_c, 0, 57, 80
1, 50239, Note_on_c, 0, 57, 0
1, 50240, Note_on_c, 0, 54, 80
1, 50319, Note_on_c, 0, 54, 0
1, 50560, Note_on_c, 0, 55, 80
1, 50639, Note_on_c, 0, 55, 0
1, 50640, Note_on_c, 0, 54, 80
1, 50719, Note_on_c, 0, 54, 0
1, 50720, Note_on_c, 0, 51, 80
1, 50799, Note_on_c, 0, 51, 0
1, 51040, Note_on_c, 0, 52, 80
1, 51119, Note_on_c, 0, 52, 0
1, 51120, Note_on_c, 0, 51, 80
1, 51199, Note_on_c, 0, 51, 0
1, 51200, Note_on_c, 0, 47, 80
1, 51279, Note_on_c, 0, 47, 0
1, 51520, Note_on_c, 0, 48, 80
1, 51599, Note_on_c, 0, 48, 0
1, 51600, Note_on_c, 0, 47, 80
1, 51679, Note_on_c, 0, 47, 0
1, 51680, Note_on_c, 0, 43, 80
1, 51759, Note_on_c, 0, 43, 0
1, 52200, Note_on_c, 0, 71, 80
1, 52200, Note_on_c, 0, 67, 80
1, 52200, Note_on_c, 0, 76, 80
1, 52319, Note_on_c, 0, 71, 0
1, 52319, Note_on_c, 0, 67, 0
1, 52319, Note_on_c, 0, 76, 0
1, 52440, Note_on_c, 0, 71, 80
1, 52440, Note_on_c, 0, 67, 80
1, 52440, Note_on_c, 0, 76, 80
1, 52559, Note_on_c, 0, 71, 0
1, 52559, Note_on_c, 0, 67, 0
1, 52559, Note_on_c, 0, 76, 0
1, 52680, Note_on_c, 0, 71, 80
1, 52680, Note_on_c, 0, 67, 80
1, 52680, Note_on_c, 0, 76, 80
1, 52799, Note_on_c, 0, 71, 0
1, 52799, Note_on_c, 0, 67, 0
1, 52799, Note_on_c, 0, 76, 0
1, 52920, Note_on_c, 0, 71, 80
1, 52920, Note_on_c, 0, 67, 80
1, 52920, Note_on_c, 0, 76, 80
1, 53039, Note_on_c, 0, 71, 0
1, 53039, Note_on_c, 0, 67, 0
1, 53039, Note_on_c, 0, 76, 0
1, 53160, Note_on_c, 0, 71, 80
1, 53160, Note_on_c, 0, 67, 80
1, 53160, Note_on_c, 0, 76, 80
1, 53279, Note_on_c, 0, 71, 0
1, 53279, Note_on_c, 0, 67, 0
1, 53279, Note_on_c, 0, 76, 0
1, 53640, Note_on_c, 0, 71, 80
1, 53640, Note_on_c, 0, 67, 80
1, 53640, Note_on_c, 0, 76, 80
1, 53759, Note_on_c, 0, 71, 0
1, 53759, Note_on_c, 0, 67, 0
1, 53759, Note_on_c, 0, 76, 0
1, 53880, Note_on_c, 0, 71, 80
1, 53880, Note_on_c, 0, 67, 80
1, 53880, Note_on_c, 0, 76, 80
1, 53999, Note_on_c, 0, 71, 0
1, 53999, Note_on_c, 0, 67, 0
1, 53999, Note_on_c, 0, 76, 0
1, 54120, Note_on_c, 0, 71, 80
1, 54120, Note_on_c, 0, 67, 80
1, 54120, Note_on_c, 0, 76, 80
1, 54239, Note_on_c, 0, 71, 0
1, 54239, Note_on_c, 0, 67, 0
1, 54239, Note_on_c, 0, 76, 0
1, 54360, Note_on_c, 0, 71, 80
1, 54360, Note_on_c, 0, 67, 80
1, 54360, Note_on_c, 0, 76, 80
1, 54479, Note_on_c, 0, 71, 0
1, 54479, Note_on_c, 0, 67, 0
1, 54479, Note_on_c, 0, 76, 0
1, 54600, Note_on_c, 0, 71, 80
1, 54600, Note_on_c, 0, 67, 80
1, 54600, Note_on_c, 0, 76, 80
1, 54719, Note_on_c, 0, 71, 0
1, 54719, Note_on_c, 0, 67, 0
1, 54719, Note_on_c, 0, 76, 0
1, 54800, Note_on_c, 0, 78, 80
1, 54879, Note_on_c, 0, 78, 0
1, 54880, Note_on_c, 0, 79, 80
1, 54959, Note_on_c, 0, 79, 0
1, 54960, Note_on_c, 0, 81, 80
1, 55039, Note_on_c, 0, 81, 0
1, 55040, Note_on_c, 0, 83, 80
1, 55119, Note_on_c, 0, 83, 0
1, 55120, Note_on_c, 0, 84, 80
1, 55279, Note_on_c, 0, 84, 0
1, 55280, Note_on_c, 0, 83, 80
1, 55359, Note_on_c, 0, 83, 0
1, 55360, Note_on_c, 0, 81, 80
1, 55439, Note_on_c, 0, 81, 0
1, 55440, Note_on_c, 0, 79, 80
1, 55519, Note_on_c, 0, 79, 0
1, 55520, Note_on_c, 0, 78, 80
1, 55599, Note_on_c, 0, 78, 0
1, 55600, Note_on_c, 0, 76, 80
1, 55679, Note_on_c, 0, 76, 0
1, 55680, Note_on_c, 0, 75, 80
1, 55759, Note_on_c, 0, 75, 0
1, 55760, Note_on_c, 0, 72, 80
1, 55839, Note_on_c, 0, 72, 0
1, 55840, Note_on_c, 0, 71, 80
1, 55919, Note_on_c, 0, 71, 0
1, 55920, Note_on_c, 0, 69, 80
1, 55999, Note_on_c, 0, 69, 0
1, 56000, Note_on_c, 0, 67, 80
1, 56079, Note_on_c, 0, 67, 0
1, 56080, Note_on_c, 0, 66, 80
1, 56159, Note_on_c, 0, 66, 0
1, 56160, Note_on_c, 0, 64, 80
1, 56279, Note_on_c, 0, 64, 0
1, 56280, Note_on_c, 0, 71, 80
1, 56280, Note_on_c, 0, 67, 80
1, 56280, Note_on_c, 0, 76, 80
1, 56399, Note_on_c, 0, 71, 0
1, 56399, Note_on_c, 0, 67, 0
1, 56399, Note_on_c, 0, 76, 0
1, 56520, Note_on_c, 0, 71, 80
1, 56520, Note_on_c, 0, 67, 80
1, 56520, Note_on_c, 0, 76, 80
1, 56639, Note_on_c, 0, 71, 0
1, 56639, Note_on_c, 0, 67, 0
1, 56639, Note_on_c, 0, 76, 0
1, 56760, Note_on_c, 0, 67, 80
1, 56760, Note_on_c, 0, 64, 80
1, 56760, Note_on_c, 0, 72, 80
1, 56879, Note_on_c, 0, 67, 0
1, 56879, Note_on_c, 0, 64, 0
1, 56879, Note_on_c, 0, 72, 0
1, 57000, Note_on_c, 0, 67, 80
1, 57000, Note_on_c, 0, 64, 80
1, 57000, Note_on_c, 0, 72, 80
1, 57119, Note_on_c, 0, 67, 0
1, 57119, Note_on_c, 0, 64, 0
1, 57119, Note_on_c, 0, 72, 0
1, 57240, Note_on_c, 0, 64, 80
1, 57240, Note_on_c, 0, 59, 80
1, 57240, Note_on_c, 0, 67, 80
1, 57359, Note_on_c, 0, 64, 0
1, 57359, Note_on_c, 0, 59, 0
1, 57359, Note_on_c, 0, 67, 0
1, 57480, Note_on_c, 0, 64, 80
1, 57480, Note_on_c, 0, 59, 80
1, 57480, Note_on_c, 0, 67, 80
1, 57599, Note_on_c, 0, 64, 0
1, 57599, Note_on_c, 0, 59, 0
1, 57599, Note_on_c, 0, 67, 0
1, 57680, Note_on_c, 0, 52, 80
1, 57759, Note_on_c, 0, 52, 0
1, 57760, Note_on_c, 0, 53, 80
1, 57839, Note_on_c, 0, 53, 0
1, 57840, Note_on_c, 0, 54, 80
1, 57840, Note_on_c, 0, 53, 80
1, 57919, Note_on_c, 0, 54, 0
1, 57919, Note_on_c, 0, 53, 0
1, 57920, Note_on_c, 0, 55, 80
1, 57999, Note_on_c, 0, 55, 0
1, 58000, Note_on_c, 0, 56, 80
1, 58079, Note_on_c, 0, 56, 0
1, 58160, Note_on_c, 0, 59, 80
1, 58239, Note_on_c, 0, 59, 0
1, 58240, Note_on_c, 0, 60, 80
1, 58319, Note_on_c, 0, 60, 0
1, 58320, Note_on_c, 0, 62, 80
1, 58399, Note_on_c, 0, 62, 0
1, 58400, Note_on_c, 0, 60, 80
1, 58479, Note_on_c, 0, 60, 0
1, 58480, Note_on_c, 0, 59, 80
1, 58559, Note_on_c, 0, 59, 0
1, 58560, Note_on_c, 0, 60, 80
1, 58639, Note_on_c, 0, 60, 0
1, 58640, Note_on_c, 0, 62, 80
1, 58719, Note_on_c, 0, 62, 0
1, 58720, Note_on_c, 0, 64, 80
1, 58799, Note_on_c, 0, 64, 0
1, 58800, Note_on_c, 0, 66, 80
1, 58879, Note_on_c, 0, 66, 0
1, 58880, Note_on_c, 0, 67, 80
1, 58959, Note_on_c, 0, 67, 0
1, 58960, Note_on_c, 0, 69, 80
1, 59039, Note_on_c, 0, 69, 0
1, 59120, Note_on_c, 0, 50, 80
1, 59199, Note_on_c, 0, 50, 0
1, 59200, Note_on_c, 0, 51, 80
1, 59279, Note_on_c, 0, 51, 0
1, 59280, Note_on_c, 0, 52, 80
1, 59280, Note_on_c, 0, 51, 80
1, 59359, Note_on_c, 0, 52, 0
1, 59359, Note_on_c, 0, 51, 0
1, 59360, Note_on_c, 0, 53, 80
1, 59439, Note_on_c, 0, 53, 0
1, 59440, Note_on_c, 0, 54, 80
1, 59519, Note_on_c, 0, 54, 0
1, 59600, Note_on_c, 0, 57, 80
1, 59679, Note_on_c, 0, 57, 0
1, 59680, Note_on_c, 0, 59, 80
1, 59759, Note_on_c, 0, 59, 0
1, 59760, Note_on_c, 0, 60, 80
1, 59839, Note_on_c, 0, 60, 0
1, 59840, Note_on_c, 0, 59, 80
1, 59919, Note_on_c, 0, 59, 0
1, 59920, Note_on_c, 0, 57, 80
1, 59999, Note_on_c, 0, 57, 0
1, 60000, Note_on_c, 0, 59, 80
1, 60079, Note_on_c, 0, 59, 0
1, 60080, Note_on_c, 0, 60, 80
1, 60159, Note_on_c, 0, 60, 0
1, 60160, Note_on_c, 0, 62, 80
1, 60239, Note_on_c, 0, 62, 0
1, 60240, Note_on_c, 0, 64, 80
1, 60319, Note_on_c, 0, 64, 0
1, 60320, Note_on_c, 0, 66, 80
1, 60399, Note_on_c, 0, 66, 0
1, 60400, Note_on_c, 0, 67, 80
1, 60479, Note_on_c, 0, 67, 0
1, 60480, Note_on_c, 0, 60, 80
1, 60559, Note_on_c, 0, 60, 0
1, 60640, Note_on_c, 0, 66, 80
1, 60719, Note_on_c, 0, 66, 0
1, 60720, Note_on_c, 0, 64, 80
1, 60799, Note_on_c, 0, 64, 0
1, 60800, Note_on_c, 0, 60, 80
1, 60879, Note_on_c, 0, 60, 0
1, 61120, Note_on_c, 0, 62, 80
1, 61199, Note_on_c, 0, 62, 0
1, 61200, Note_on_c, 0, 60, 80
1, 61279, Note_on_c, 0, 60, 0
1, 61280, Note_on_c, 0, 57, 80
1, 61359, Note_on_c, 0, 57, 0
1, 61600, Note_on_c, 0, 59, 80
1, 61679, Note_on_c, 0, 59, 0
1, 61680, Note_on_c, 0, 57, 80
1, 61759, Note_on_c, 0, 57, 0
1, 61760, Note_on_c, 0, 54, 80
1, 61839, Note_on_c, 0, 54, 0
1, 62080, Note_on_c, 0, 71, 80
1, 62159, Note_on_c, 0, 71, 0
1, 62160, Note_on_c, 0, 69, 80
1, 62239, Note_on_c, 0, 69, 0
1, 62240, Note_on_c, 0, 66, 80
1, 62319, Note_on_c, 0, 66, 0
1, 62560, Note_on_c, 0, 67, 80
1, 62639, Note_on_c, 0, 67, 0
1, 62640, Note_on_c, 0, 66, 80
1, 62719, Note_on_c, 0, 66, 0
1, 62720, Note_on_c, 0, 62, 80
1, 62799, Note_on_c, 0, 62, 0
1, 63040, Note_on_c, 0, 64, 80
1, 63119, Note_on_c, 0, 64, 0
1, 63120, Note_on_c, 0, 62, 80
1, 63199, Note_on_c, 0, 62, 0
1, 63200, Note_on_c, 0, 59, 80
1, 63279, Note_on_c, 0, 59, 0
1, 63520, Note_on_c, 0, 76, 80
1, 63599, Note_on_c, 0, 76, 0
1, 63600, Note_on_c, 0, 74, 80
1, 63679, Note_on_c, 0, 74, 0
1, 63680, Note_on_c, 0, 71, 80
1, 63759, Note_on_c, 0, 71, 0
1, 64000, Note_on_c, 0, 72, 80
1, 64079, Note_on_c, 0, 72, 0
1, 64080, Note_on_c, 0, 71, 80
1, 64159, Note_on_c, 0, 71, 0
1, 64160, Note_on_c, 0, 67, 80
1, 64239, Note_on_c, 0, 67, 0
1, 64480, Note_on_c, 0, 69, 80
1, 64559, Note_on_c, 0, 69, 0
1, 64560, Note_on_c, 0, 67, 80
1, 64639, Note_on_c, 0, 67, 0
1, 64640, Note_on_c, 0, 64, 80
1, 64719, Note_on_c, 0, 64, 0
1, 64960, Note_on_c, 0, 81, 80
1, 65039, Note_on_c, 0, 81, 0
1, 65040, Note_on_c, 0, 79, 80
1, 65119, Note_on_c, 0, 79, 0
1, 65120, Note_on_c, 0, 76, 80
1, 65199, Note_on_c, 0, 76, 0
1, 65440, Note_on_c, 0, 77, 80
1, 65519, Note_on_c, 0, 77, 0
1, 65520, Note_on_c, 0, 76, 80
1, 65599, Note_on_c, 0, 76, 0
1, 65600, Note_on_c, 0, 72, 80
1, 65679, Note_on_c, 0, 72, 0
1, 65920, Note_on_c, 0, 74, 80
1, 65999, Note_on_c, 0, 74, 0
1, 66000, Note_on_c, 0, 72, 80
1, 66079, Note_on_c, 0, 72, 0
1, 66080, Note_on_c, 0, 69, 80
1, 66159, Note_on_c, 0, 69, 0
1, 66320, Note_on_c, 0, 69, 80
1, 66399, Note_on_c, 0, 69, 0
1, 66400, Note_on_c, 0, 71, 80
1, 66479, Note_on_c, 0, 71, 0
1, 66480, Note_on_c, 0, 72, 80
1, 66559, Note_on_c, 0, 72, 0
1, 66560, Note_on_c, 0, 74, 80
1, 66639, Note_on_c, 0, 74, 0
1, 66640, Note_on_c, 0, 76, 80
1, 66799, Note_on_c, 0, 76, 0
1, 66800, Note_on_c, 0, 74, 80
1, 66879, Note_on_c, 0, 74, 0
1, 66880, Note_on_c, 0, 72, 80
1, 66959, Note_on_c, 0, 72, 0
1, 66960, Note_on_c, 0, 71, 80
1, 67039, Note_on_c, 0, 71, 0
1, 67040, Note_on_c, 0, 69, 80
1, 67119, Note_on_c, 0, 69, 0
1, 67120, Note_on_c, 0, 67, 80
1, 67279, Note_on_c, 0, 67, 0
1, 67280, Note_on_c, 0, 66, 80
1, 67359, Note_on_c, 0, 66, 0
1, 67360, Note_on_c, 0, 67, 80
1, 67439, Note_on_c, 0, 67, 0
1, 67440, Note_on_c, 0, 69, 80
1, 67519, Note_on_c, 0, 69, 0
1, 67520, Note_on_c, 0, 71, 80
1, 67599, Note_on_c, 0, 71, 0
1, 67600, Note_on_c, 0, 72, 80
1, 67620, Note_on_c, 0, 72, 80
1, 67679, Note_on_c, 0, 72, 0
1, 67679, Note_on_c, 0, 72, 0
1, 67680, Note_on_c, 0, 71, 80
1, 67919, Note_on_c, 0, 71, 0
1, 68040, Note_on_c, 0, 74, 80
1, 68040, Note_on_c, 0, 71, 80
1, 68040, Note_on_c, 0, 79, 80
1, 68159, Note_on_c, 0, 74, 0
1, 68159, Note_on_c, 0, 71, 0
1, 68159, Note_on_c, 0, 79, 0
1, 68280, Note_on_c, 0, 74, 80
1, 68280, Note_on_c, 0, 71, 80
1, 68280, Note_on_c, 0, 79, 80
1, 68399, Note_on_c, 0, 74, 0
1, 68399, Note_on_c, 0, 71, 0
1, 68399, Note_on_c, 0, 79, 0
1, 68520, Note_on_c, 0, 74, 80
1, 68520, Note_on_c, 0, 71, 80
1, 68520, Note_on_c, 0, 79, 80
1, 68639, Note_on_c, 0, 74, 0
1, 68639, Note_on_c, 0, 71, 0
1, 68639, Note_on_c, 0, 79, 0
1, 69280, Note_on_c, 0, 83, 80
1, 69359, Note_on_c, 0, 83, 0
1, 69360, Note_on_c, 0, 81, 80
1, 69439, Note_on_c, 0, 81, 0
1, 69440, Note_on_c, 0, 78, 80
1, 69519, Note_on_c, 0, 78, 0
1, 69760, Note_on_c, 0, 79, 80
1, 69839, Note_on_c, 0, 79, 0
1, 69840, Note_on_c, 0, 78, 80
1, 69919, Note_on_c, 0, 78, 0
1, 69920, Note_on_c, 0, 74, 80
1, 69999, Note_on_c, 0, 74, 0
1, 70240, Note_on_c, 0, 76, 80
1, 70319, Note_on_c, 0, 76, 0
1, 70320, Note_on_c, 0, 74, 80
1, 70399, Note_on_c, 0, 74, 0
1, 70400, Note_on_c, 0, 71, 80
1, 70479, Note_on_c, 0, 71, 0
1, 70720, Note_on_c, 0, 76, 80
1, 70799, Note_on_c, 0, 76, 0
1, 70800, Note_on_c, 0, 74, 80
1, 70879, Note_on_c, 0, 74, 0
1, 70880, Note_on_c, 0, 71, 80
1, 70959, Note_on_c, 0, 71, 0
1, 71200, Note_on_c, 0, 72, 80
1, 71279, Note_on_c, 0, 72, 0
1, 71280, Note_on_c, 0, 71, 80
1, 71359, Note_on_c, 0, 71, 0
1, 71360, Note_on_c, 0, 67, 80
1, 71439, Note_on_c, 0, 67, 0
1, 71680, Note_on_c, 0, 69, 80
1, 71759, Note_on_c, 0, 69, 0
1, 71760, Note_on_c, 0, 67, 80
1, 71839, Note_on_c, 0, 67, 0
1, 71840, Note_on_c, 0, 64, 80
1, 71919, Note_on_c, 0, 64, 0
1, 72160, Note_on_c, 0, 65, 80
1, 72239, Note_on_c, 0, 65, 0
1, 72240, Note_on_c, 0, 64, 80
1, 72319, Note_on_c, 0, 64, 0
1, 72320, Note_on_c, 0, 60, 80
1, 72399, Note_on_c, 0, 60, 0
1, 72640, Note_on_c, 0, 62, 80
1, 72719, Note_on_c, 0, 62, 0
1, 72720, Note_on_c, 0, 60, 80
1, 72799, Note_on_c, 0, 60, 0
1, 72800, Note_on_c, 0, 57, 80
1, 72879, Note_on_c, 0, 57, 0
1, 73120, Note_on_c, 0, 59, 80
1, 73199, Note_on_c, 0, 59, 0
1, 73200, Note_on_c, 0, 57, 80
1, 73279, Note_on_c, 0, 57, 0
1, 73280, Note_on_c, 0, 54, 80
1, 73359, Note_on_c, 0, 54, 0
1, 73600, Note_on_c, 0, 55, 80
1, 73679, Note_on_c, 0, 55, 0
1, 73680, Note_on_c, 0, 54, 80
1, 73759, Note_on_c, 0, 54, 0
1, 73760, Note_on_c, 0, 51, 80
1, 73839, Note_on_c, 0, 51, 0
1, 74080, Note_on_c, 0, 52, 80
1, 74159, Note_on_c, 0, 52, 0
1, 74160, Note_on_c, 0, 51, 80
1, 74239, Note_on_c, 0, 51, 0
1, 74240, Note_on_c, 0, 47, 80
1, 74319, Note_on_c, 0, 47, 0
1, 74560, Note_on_c, 0, 48, 80
1, 74639, Note_on_c, 0, 48, 0
1, 74640, Note_on_c, 0, 47, 80
1, 74719, Note_on_c, 0, 47, 0
1, 74720, Note_on_c, 0, 43, 80
1, 74799, Note_on_c, 0, 43, 0
1, 75240, Note_on_c, 0, 71, 80
1, 75240, Note_on_c, 0, 67, 80
1, 75240, Note_on_c, 0, 76, 80
1, 75359, Note_on_c, 0, 71, 0
1, 75359, Note_on_c, 0, 67, 0
1, 75359, Note_on_c, 0, 76, 0
1, 75480, Note_on_c, 0, 71, 80
1, 75480, Note_on_c, 0, 67, 80
1, 75480, Note_on_c, 0, 76, 80
1, 75599, Note_on_c, 0, 71, 0
1, 75599, Note_on_c, 0, 67, 0
1, 75599, Note_on_c, 0, 76, 0
1, 75720, Note_on_c, 0, 71, 80
1, 75720, Note_on_c, 0, 67, 80
1, 75720, Note_on_c, 0, 76, 80
1, 75839, Note_on_c, 0, 71, 0
1, 75839, Note_on_c, 0, 67, 0
1, 75839, Note_on_c, 0, 76, 0
1, 75960, Note_on_c, 0, 71, 80
1, 75960, Note_on_c, 0, 67, 80
1, 75960, Note_on_c, 0, 76, 80
1, 76079, Note_on_c, 0, 71, 0
1, 76079, Note_on_c, 0, 67, 0
1, 76079, Note_on_c, 0, 76, 0
1, 76200, Note_on_c, 0, 71, 80
1, 76200, Note_on_c, 0, 67, 80
1, 76200, Note_on_c, 0, 76, 80
1, 76319, Note_on_c, 0, 71, 0
1, 76319, Note_on_c, 0, 67, 0
1, 76319, Note_on_c, 0, 76, 0
1, 76680, Note_on_c, 0, 71, 80
1, 76680, Note_on_c, 0, 67, 80
1, 76680, Note_on_c, 0, 76, 80
1, 76799, Note_on_c, 0, 71, 0
1, 76799, Note_on_c, 0, 67, 0
1, 76799, Note_on_c, 0, 76, 0
1, 76920, Note_on_c, 0, 71, 80
1, 76920, Note_on_c, 0, 67, 80
1, 76920, Note_on_c, 0, 76, 80
1, 77039, Note_on_c, 0, 71, 0
1, 77039, Note_on_c, 0, 67, 0
1, 77039, Note_on_c, 0, 76, 0
1, 77160, Note_on_c, 0, 71, 80
1, 77160, Note_on_c, 0, 67, 80
1, 77160, Note_on_c, 0, 76, 80
1, 77279, Note_on_c, 0, 71, 0
1, 77279, Note_on_c, 0, 67, 0
1, 77279, Note_on_c, 0, 76, 0
1, 77400, Note_on_c, 0, 71, 80
1, 77400, Note_on_c, 0, 67, 80
1, 77400, Note_on_c, 0, 76, 80
1, 77519, Note_on_c, 0, 71, 0
1, 77519, Note_on_c, 0, 67, 0
1, 77519, Note_on_c, 0, 76, 0
1, 77640, Note_on_c, 0, 71, 80
1, 77640, Note_on_c, 0, 67, 80
1, 77640, Note_on_c, 0, 76, 80
1, 77759, Note_on_c, 0, 71, 0
1, 77759, Note_on_c, 0, 67, 0
1, 77759, Note_on_c, 0, 76, 0
1, 77840, Note_on_c, 0, 78, 80
1, 77919, Note_on_c, 0, 78, 0
1, 77920, Note_on_c, 0, 79, 80
1, 77999, Note_on_c, 0, 79, 0
1, 78000, Note_on_c, 0, 81, 80
1, 78079, Note_on_c, 0, 81, 0
1, 78080, Note_on_c, 0, 83, 80
1, 78159, Note_on_c, 0, 83, 0
1, 78160, Note_on_c, 0, 84, 80
1, 78319, Note_on_c, 0, 84, 0
1, 78320, Note_on_c, 0, 83, 80
1, 78399, Note_on_c, 0, 83, 0
1, 78400, Note_on_c, 0, 81, 80
1, 78479, Note_on_c, 0, 81, 0
1, 78480, Note_on_c, 0, 79, 80
1, 78559, Note_on_c, 0, 79, 0
1, 78560, Note_on_c, 0, 78, 80
1, 78639, Note_on_c, 0, 78, 0
1, 78640, Note_on_c, 0, 76, 80
1, 78719, Note_on_c, 0, 76, 0
1, 78720, Note_on_c, 0, 75, 80
1, 78799, Note_on_c, 0, 75, 0
1, 78800, Note_on_c, 0, 72, 80
1, 78879, Note_on_c, 0, 72, 0
1, 78880, Note_on_c, 0, 71, 80
1, 78959, Note_on_c, 0, 71, 0
1, 78960, Note_on_c, 0, 69, 80
1, 79039, Note_on_c, 0, 69, 0
1, 79040, Note_on_c, 0, 67, 80
1, 79119, Note_on_c, 0, 67, 0
1, 79120, Note_on_c, 0, 66, 80
1, 79199, Note_on_c, 0, 66, 0
1, 79200, Note_on_c, 0, 64, 80
1, 79319, Note_on_c, 0, 64, 0
1, 79320, Note_on_c, 0, 71, 80
1, 79320, Note_on_c, 0, 67, 80
1, 79320, Note_on_c, 0, 76, 80
1, 79439, Note_on_c, 0, 71, 0
1, 79439, Note_on_c, 0, 67, 0
1, 79439, Note_on_c, 0, 76, 0
1, 79560, Note_on_c, 0, 71, 80
1, 79560, Note_on_c, 0, 67, 80
1, 79560, Note_on_c, 0, 76, 80
1, 79679, Note_on_c, 0, 71, 0
1, 79679, Note_on_c, 0, 67, 0
1, 79679, Note_on_c, 0, 76, 0
1, 79800, Note_on_c, 0, 67, 80
1, 79800, Note_on_c, 0, 64, 80
1, 79800, Note_on_c, 0, 72, 80
1, 79919, Note_on_c, 0, 67, 0
1, 79919, Note_on_c, 0, 64, 0
1, 79919, Note_on_c, 0, 72, 0
1, 80040, Note_on_c, 0, 67, 80
1, 80040, Note_on_c, 0, 64, 80
1, 80040, Note_on_c, 0, 72, 80
1, 80159, Note_on_c, 0, 67, 0
1, 80159, Note_on_c, 0, 64, 0
1, 80159, Note_on_c, 0, 72, 0
1, 80280, Note_on_c, 0, 64, 80
1, 80280, Note_on_c, 0, 59, 80
1, 80280, Note_on_c, 0, 67, 80
1, 80399, Note_on_c, 0, 64, 0
1, 80399, Note_on_c, 0, 59, 0
1, 80399, Note_on_c, 0, 67, 0
1, 80520, Note_on_c, 0, 64, 80
1, 80520, Note_on_c, 0, 59, 80
1, 80520, Note_on_c, 0, 67, 80
1, 80639, Note_on_c, 0, 64, 0
1, 80639, Note_on_c, 0, 59, 0
1, 80639, Note_on_c, 0, 67, 0
1, 80720, Note_on_c, 0, 52, 80
1, 80799, Note_on_c, 0, 52, 0
1, 80800, Note_on_c, 0, 53, 80
1, 80879, Note_on_c, 0, 53, 0
1, 80880, Note_on_c, 0, 54, 80
1, 80880, Note_on_c, 0, 53, 80
1, 80959, Note_on_c, 0, 54, 0
1, 80959, Note_on_c, 0, 53, 0
1, 80960, Note_on_c, 0, 55, 80
1, 81039, Note_on_c, 0, 55, 0
1, 81040, Note_on_c, 0, 56, 80
1, 81119, Note_on_c, 0, 56, 0
1, 81200, Note_on_c, 0, 59, 80
1, 81279, Note_on_c, 0, 59, 0
1, 81280, Note_on_c, 0, 60, 80
1, 81359, Note_on_c, 0, 60, 0
1, 81360, Note_on_c, 0, 62, 80
1, 81439, Note_on_c, 0, 62, 0
1, 81440, Note_on_c, 0, 60, 80
1, 81519, Note_on_c, 0, 60, 0
1, 81520, Note_on_c, 0, 59, 80
1, 81599, Note_on_c, 0, 59, 0
1, 81600, Note_on_c, 0, 60, 80
1, 81679, Note_on_c, 0, 60, 0
1, 81680, Note_on_c, 0, 62, 80
1, 81759, Note_on_c, 0, 62, 0
1, 81760, Note_on_c, 0, 64, 80
1, 81839, Note_on_c, 0, 64, 0
1, 81840, Note_on_c, 0, 66, 80
1, 81919, Note_on_c, 0, 66, 0
1, 81920, Note_on_c, 0, 67, 80
1, 81999, Note_on_c, 0, 67, 0
1, 82000, Note_on_c, 0, 69, 80
1, 82079, Note_on_c, 0, 69, 0
1, 82160, Note_on_c, 0, 50, 80
1, 82239, Note_on_c, 0, 50, 0
1, 82240, Note_on_c, 0, 51, 80
1, 82319, Note_on_c, 0, 51, 0
1, 82320, Note_on_c, 0, 52, 80
1, 82320, Note_on_c, 0, 51, 80
1, 82399, Note_on_c, 0, 52, 0
1, 82399, Note_on_c, 0, 51, 0
1, 82400, Note_on_c, 0, 53, 80
1, 82479, Note_on_c, 0, 53, 0
1, 82480, Note_on_c, 0, 54, 80
1, 82559, Note_on_c, 0, 54, 0
1, 82640, Note_on_c, 0, 57, 80
1, 82719, Note_on_c, 0, 57, 0
1, 82720, Note_on_c, 0, 59, 80
1, 82799, Note_on_c, 0, 59, 0
1, 82800, Note_on_c, 0, 60, 80
1, 82879, Note_on_c, 0, 60, 0
1, 82880, Note_on_c, 0, 59, 80
1, 82959, Note_on_c, 0, 59, 0
1, 82960, Note_on_c, 0, 57, 80
1, 83039, Note_on_c, 0, 57, 0
1, 83040, Note_on_c, 0, 59, 80
1, 83119, Note_on_c, 0, 59, 0
1, 83120, Note_on_c, 0, 60, 80
1, 83199, Note_on_c, 0, 60, 0
1, 83200, Note_on_c, 0, 62, 80
1, 83279, Note_on_c, 0, 62, 0
1, 83280, Note_on_c, 0, 64, 80
1, 83359, Note_on_c, 0, 64, 0
1, 83360, Note_on_c, 0, 66, 80
1, 83439, Note_on_c, 0, 66, 0
1, 83440, Note_on_c, 0, 67, 80
1, 83519, Note_on_c, 0, 67, 0
1, 83520, Note_on_c, 0, 60, 80
1, 83599, Note_on_c, 0, 60, 0
1, 83680, Note_on_c, 0, 66, 80
1, 83759, Note_on_c, 0, 66, 0
1, 83760, Note_on_c, 0, 64, 80
1, 83839, Note_on_c, 0, 64, 0
1, 83840, Note_on_c, 0, 60, 80
1, 83919, Note_on_c, 0, 60, 0
1, 84160, Note_on_c, 0, 62, 80
1, 84239, Note_on_c, 0, 62, 0
1, 84240, Note_on_c, 0, 60, 80
1, 84319, Note_on_c, 0, 60, 0
1, 84320, Note_on_c, 0, 57, 80
1, 84399, Note_on_c, 0, 57, 0
1, 84640, Note_on_c, 0, 59, 80
1, 84719, Note_on_c, 0, 59, 0
1, 84720, Note_on_c, 0, 57, 80
1, 84799, Note_on_c, 0, 57, 0
1, 84800, Note_on_c, 0, 54, 80
1, 84879, Note_on_c, 0, 54, 0
1, 85120, Note_on_c, 0, 71, 80
1, 85199, Note_on_c, 0, 71, 0
1, 85200, Note_on_c, 0, 69, 80
1, 85279, Note_on_c, 0, 69, 0
1, 85280, Note_on_c, 0, 66, 80
1, 85359, Note_on_c, 0, 66, 0
1, 85600, Note_on_c, 0, 67, 80
1, 85679, Note_on_c, 0, 67, 0
1, 85680, Note_on_c, 0, 66, 80
1, 85759, Note_on_c, 0, 66, 0
1, 85760, Note_on_c, 0, 62, 80
1, 85839, Note_on_c, 0, 62, 0
1, 86080, Note_on_c, 0, 64, 80
1, 86159, Note_on_c, 0, 64, 0
1, 86160, Note_on_c, 0, 62, 80
1, 86239, Note_on_c, 0, 62, 0
1, 86240, Note_on_c, 0, 59, 80
1, 86319, Note_on_c, 0, 59, 0
1, 86560, Note_on_c, 0, 76, 80
1, 86639, Note_on_c, 0, 76, 0
1, 86640, Note_on_c, 0, 74, 80
1, 86719, Note_on_c, 0, 74, 0
1, 86720, Note_on_c, 0, 71, 80
1, 86799, Note_on_c, 0, 71, 0
1, 87040, Note_on_c, 0, 72, 80
1, 87119, Note_on_c, 0, 72, 0
1, 87120, Note_on_c, 0, 71, 80
1, 87199, Note_on_c, 0, 71, 0
1, 87200, Note_on_c, 0, 67, 80
1, 87279, Note_on_c, 0, 67, 0
1, 87520, Note_on_c, 0, 69, 80
1, 87599, Note_on_c, 0, 69, 0
1, 87600, Note_on_c, 0, 67, 80
1, 87679, Note_on_c, 0, 67, 0
1, 87680, Note_on_c, 0, 64, 80
1, 87759, Note_on_c, 0, 64, 0
1, 88000, Note_on_c, 0, 81, 80
1, 88079, Note_on_c, 0, 81, 0
1, 88080, Note_on_c, 0, 79, 80
1, 88159, Note_on_c, 0, 79, 0
1, 88160, Note_on_c, 0, 76, 80
1, 88239, Note_on_c, 0, 76, 0
1, 88480, Note_on_c, 0, 77, 80
1, 88559, Note_on_c, 0, 77, 0
1, 88560, Note_on_c, 0, 76, 80
1, 88639, Note_on_c, 0, 76, 0
1, 88640, Note_on_c, 0, 72, 80
1, 88719, Note_on_c, 0, 72, 0
1, 88960, Note_on_c, 0, 74, 80
1, 89039, Note_on_c, 0, 74, 0
1, 89040, Note_on_c, 0, 72, 80
1, 89119, Note_on_c, 0, 72, 0
1, 89120, Note_on_c, 0, 69, 80
1, 89199, Note_on_c, 0, 69, 0
1, 89360, Note_on_c, 0, 69, 80
1, 89439, Note_on_c, 0, 69, 0
1, 89440, Note_on_c, 0, 71, 80
1, 89519, Note_on_c, 0, 71, 0
1, 89520, Note_on_c, 0, 72, 80
1, 89599, Note_on_c, 0, 72, 0
1, 89600, Note_on_c, 0, 74, 80
1, 89679, Note_on_c, 0, 74, 0
1, 89680, Note_on_c, 0, 76, 80
1, 89839, Note_on_c, 0, 76, 0
1, 89840, Note_on_c, 0, 74, 80
1, 89919, Note_on_c, 0, 74, 0
1, 89920, Note_on_c, 0, 72, 80
1, 89999, Note_on_c, 0, 72, 0
1, 90000, Note_on_c, 0, 71, 80
1, 90079, Note_on_c, 0, 71, 0
1, 90080, Note_on_c, 0, 69, 80
1, 90159, Note_on_c, 0, 69, 0
1, 90160, Note_on_c, 0, 67, 80
1, 90319, Note_on_c, 0, 67, 0
1, 90320, Note_on_c, 0, 66, 80
1, 90399, Note_on_c, 0, 66, 0
1, 90400, Note_on_c, 0, 67, 80
1, 90479, Note_on_c, 0, 67, 0
1, 90480, Note_on_c, 0, 69, 80
1, 90559, Note_on_c, 0, 69, 0
1, 90560, Note_on_c, 0, 71, 80
1, 90639, Note_on_c, 0, 71, 0
1, 90640, Note_on_c, 0, 72, 80
1, 90660, Note_on_c, 0, 72, 80
1, 90719, Note_on_c, 0, 72, 0
1, 90719, Note_on_c, 0, 72, 0
1, 90720, Note_on_c, 0, 71, 80
1, 90959, Note_on_c, 0, 71, 0
1, 91080, Note_on_c, 0, 74, 80
1, 91080, Note_on_c, 0, 71, 80
1, 91080, Note_on_c, 0, 79, 80
1, 91199, Note_on_c, 0, 74, 0
1, 91199, Note_on_c, 0, 71, 0
1, 91199, Note_on_c, 0, 79, 0
1, 91320, Note_on_c, 0, 74, 80
1, 91320, Note_on_c, 0, 71, 80
1, 91320, Note_on_c, 0, 79, 80
1, 91439, Note_on_c, 0, 74, 0
1, 91439, Note_on_c, 0, 71, 0
1, 91439, Note_on_c, 0, 79, 0
1, 91560, Note_on_c, 0, 74, 80
1, 91560, Note_on_c, 0, 71, 80
1, 91560, Note_on_c, 0, 79, 80
1, 91679, Note_on_c, 0, 74, 0
1, 91679, Note_on_c, 0, 71, 0
1, 91679, Note_on_c, 0, 79, 0
1, 91680, End_track
2, 0, Start_track
2, 0, Key_signature, 1, "major"
2, 0, Note_on_c, 0, 55, 80
2, 239, Note_on_c, 0, 55, 0
2, 240, Note_on_c, 0, 43, 80
2, 479, Note_on_c, 0, 43, 0
2, 480, Note_on_c, 0, 60, 80
2, 480, Note_on_c, 0, 57, 80
2, 480, Note_on_c, 0, 66, 80
2, 599, Note_on_c, 0, 60, 0
2, 599, Note_on_c, 0, 57, 0
2, 599, Note_on_c, 0, 66, 0
2, 720, Note_on_c, 0, 60, 80
2, 720, Note_on_c, 0, 57, 80
2, 720, Note_on_c, 0, 66, 80
2, 839, Note_on_c, 0, 60, 0
2, 839, Note_on_c, 0, 57, 0
2, 839, Note_on_c, 0, 66, 0
2, 960, Note_on_c, 0, 60, 80
2, 960, Note_on_c, 0, 57, 80
2, 960, Note_on_c, 0, 66, 80
2, 1079, Note_on_c, 0, 60, 0
2, 1079, Note_on_c, 0, 57, 0
2, 1079, Note_on_c, 0, 66, 0
2, 1200, Note_on_c, 0, 60, 80
2, 1200, Note_on_c, 0, 57, 80
2, 1200, Note_on_c, 0, 66, 80
2, 1319, Note_on_c, 0, 60, 0
2, 1319, Note_on_c, 0, 57, 0
2, 1319, Note_on_c, 0, 66, 0
2, 1440, Note_on_c, 0, 54, 80
2, 1679, Note_on_c, 0, 54, 0
2, 1680, Note_on_c, 0, 42, 80
2, 1919, Note_on_c, 0, 42, 0
2, 1920, Note_on_c, 0, 67, 80
2, 1920, Note_on_c, 0, 64, 80
2, 1920, Note_on_c, 0, 73, 80
2, 2039, Note_on_c, 0, 67, 0
2, 2039, Note_on_c, 0, 64, 0
2, 2039, Note_on_c, 0, 73, 0
2, 2160, Note_on_c, 0, 67, 80
2, 2160, Note_on_c, 0, 64, 80
2, 2160, Note_on_c, 0, 73, 80
2, 2279, Note_on_c, 0, 67, 0
2, 2279, Note_on_c, 0, 64, 0
2, 2279, Note_on_c, 0, 73, 0
2, 2400, Note_on_c, 0, 67, 80
2, 2400, Note_on_c, 0, 64, 80
2, 2400, Note_on_c, 0, 73, 80
2, 2519, Note_on_c, 0, 67, 0
2, 2519, Note_on_c, 0, 64, 0
2, 2519, Note_on_c, 0, 73, 0
2, 2640, Note_on_c, 0, 67, 80
2, 2640, Note_on_c, 0, 64, 80
2, 2640, Note_on_c, 0, 73, 80
2, 2759, Note_on_c, 0, 67, 0
2, 2759, Note_on_c, 0, 64, 0
2, 2759, Note_on_c, 0, 73, 0
2, 2880, Note_on_c, 0, 52, 80
2, 3119, Note_on_c, 0, 52, 0
2, 3120, Note_on_c, 0, 40, 80
2, 3359, Note_on_c, 0, 40, 0
2, 3360, Note_on_c, 0, 74, 80
2, 3360, Note_on_c, 0, 69, 80
2, 3360, Note_on_c, 0, 78, 80
2, 3479, Note_on_c, 0, 74, 0
2, 3479, Note_on_c, 0, 69, 0
2, 3479, Note_on_c, 0, 78, 0
2, 3600, Note_on_c, 0, 73, 80
2, 3600, Note_on_c, 0, 67, 80
2, 3600, Note_on_c, 0, 76, 80
2, 3719, Note_on_c, 0, 73, 0
2, 3719, Note_on_c, 0, 67, 0
2, 3719, Note_on_c, 0, 76, 0
2, 3840, Note_on_c, 0, 74, 80
2, 3840, Note_on_c, 0, 69, 80
2, 3840, Note_on_c, 0, 78, 80
2, 3959, Note_on_c, 0, 74, 0
2, 3959, Note_on_c, 0, 69, 0
2, 3959, Note_on_c, 0, 78, 0
2, 4080, Note_on_c, 0, 73, 80
2, 4080, Note_on_c, 0, 67, 80
2, 4080, Note_on_c, 0, 76, 80
2, 4199, Note_on_c, 0, 73, 0
2, 4199, Note_on_c, 0, 67, 0
2, 4199, Note_on_c, 0, 76, 0
2, 4440, Note_on_c, 0, 62, 80
2, 4559, Note_on_c, 0, 62, 0
2, 4560, Note_on_c, 0, 57, 80
2, 4679, Note_on_c, 0, 57, 0
2, 4680, Note_on_c, 0, 54, 80
2, 4799, Note_on_c, 0, 54, 0
2, 4800, Note_on_c, 0, 50, 80
2, 4979, Note_on_c, 0, 50, 0
2, 4980, Note_on_c, 0, 62, 80
2, 5039, Note_on_c, 0, 62, 0
2, 5040, Note_on_c, 0, 52, 80
2, 5219, Note_on_c, 0, 52, 0
2, 5220, Note_on_c, 0, 60, 80
2, 5279, Note_on_c, 0, 60, 0
2, 5280, Note_on_c, 0, 50, 80
2, 5459, Note_on_c, 0, 50, 0
2, 5460, Note_on_c, 0, 59, 80
2, 5519, Note_on_c, 0, 59, 0
2, 5520, Note_on_c, 0, 48, 80
2, 5699, Note_on_c, 0, 48, 0
2, 5700, Note_on_c, 0, 57, 80
2, 5759, Note_on_c, 0, 57, 0
2, 5760, Note_on_c, 0, 47, 80
2, 5999, Note_on_c, 0, 47, 0
2, 6000, Note_on_c, 0, 59, 80
2, 6239, Note_on_c, 0, 59, 0
2, 6240, Note_on_c, 0, 72, 80
2, 6240, Note_on_c, 0, 69, 80
2, 6240, Note_on_c, 0, 78, 80
2, 6359, Note_on_c, 0, 72, 0
2, 6359, Note_on_c, 0, 69, 0
2, 6359, Note_on_c, 0, 78, 0
2, 6480, Note_on_c, 0, 72, 80
2, 6480, Note_on_c, 0, 69, 80
2, 6480, Note_on_c, 0, 78, 80
2, 6599, Note_on_c, 0, 72, 0
2, 6599, Note_on_c, 0, 69, 0
2, 6599, Note_on_c, 0, 78, 0
2, 6720, Note_on_c, 0, 72, 80
2, 6720, Note_on_c, 0, 69, 80
2, 6720, Note_on_c, 0, 78, 80
2, 6839, Note_on_c, 0, 72, 0
2, 6839, Note_on_c, 0, 69, 0
2, 6839, Note_on_c, 0, 78, 0
2, 6960, Note_on_c, 0, 72, 80
2, 6960, Note_on_c, 0, 69, 80
2, 6960, Note_on_c, 0, 76, 80
2, 7079, Note_on_c, 0, 72, 0
2, 7079, Note_on_c, 0, 69, 0
2, 7079, Note_on_c, 0, 76, 0
2, 7200, Note_on_c, 0, 48, 80
2, 7439, Note_on_c, 0, 48, 0
2, 7440, Note_on_c, 0, 60, 80
2, 7679, Note_on_c, 0, 60, 0
2, 7680, Note_on_c, 0, 71, 80
2, 7680, Note_on_c, 0, 65, 80
2, 7680, Note_on_c, 0, 74, 80
2, 7799, Note_on_c, 0, 71, 0
2, 7799, Note_on_c, 0, 65, 0
2, 7799, Note_on_c, 0, 74, 0
2, 7920, Note_on_c, 0, 71, 80
2, 7920, Note_on_c, 0, 65, 80
2, 7920, Note_on_c, 0, 74, 80
2, 8039, Note_on_c, 0, 71, 0
2, 8039, Note_on_c, 0, 65, 0
2, 8039, Note_on_c, 0, 74, 0
2, 8160, Note_on_c, 0, 71, 80
2, 8160, Note_on_c, 0, 65, 80
2, 8160, Note_on_c, 0, 74, 80
2, 8279, Note_on_c, 0, 71, 0
2, 8279, Note_on_c, 0, 65, 0
2, 8279, Note_on_c, 0, 74, 0
2, 8400, Note_on_c, 0, 69, 80
2, 8400, Note_on_c, 0, 64, 80
2, 8400, Note_on_c, 0, 72, 80
2, 8519, Note_on_c, 0, 69, 0
2, 8519, Note_on_c, 0, 64, 0
2, 8519, Note_on_c, 0, 72, 0
2, 8640, Note_on_c, 0, 50, 80
2, 8879, Note_on_c, 0, 50, 0
2, 8880, Note_on_c, 0, 62, 80
2, 9119, Note_on_c, 0, 62, 0
2, 9120, Note_on_c, 0, 67, 80
2, 9120, Note_on_c, 0, 64, 80
2, 9120, Note_on_c, 0, 73, 80
2, 9239, Note_on_c, 0, 67, 0
2, 9239, Note_on_c, 0, 64, 0
2, 9239, Note_on_c, 0, 73, 0
2, 9360, Note_on_c, 0, 67, 80
2, 9360, Note_on_c, 0, 64, 80
2, 9360, Note_on_c, 0, 73, 80
2, 9479, Note_on_c, 0, 67, 0
2, 9479, Note_on_c, 0, 64, 0
2, 9479, Note_on_c, 0, 73, 0
2, 9600, Note_on_c, 0, 67, 80
2, 9600, Note_on_c, 0, 64, 80
2, 9600, Note_on_c, 0, 73, 80
2, 9719, Note_on_c, 0, 67, 0
2, 9719, Note_on_c, 0, 64, 0
2, 9719, Note_on_c, 0, 73, 0
2, 9840, Note_on_c, 0, 66, 80
2, 9840, Note_on_c, 0, 62, 80
2, 9840, Note_on_c, 0, 69, 80
2, 9959, Note_on_c, 0, 66, 0
2, 9959, Note_on_c, 0, 62, 0
2, 9959, Note_on_c, 0, 69, 0
2, 10200, Note_on_c, 0, 55, 80
2, 10319, Note_on_c, 0, 55, 0
2, 10320, Note_on_c, 0, 50, 80
2, 10439, Note_on_c, 0, 50, 0
2, 10440, Note_on_c, 0, 47, 80
2, 10559, Note_on_c, 0, 47, 0
2, 10560, Note_on_c, 0, 43, 80
2, 10739, Note_on_c, 0, 43, 0
2, 10740, Note_on_c, 0, 55, 80
2, 10799, Note_on_c, 0, 55, 0
2, 10800, Note_on_c, 0, 54, 80
2, 10979, Note_on_c, 0, 54, 0
2, 10980, Note_on_c, 0, 62, 80
2, 11039, Note_on_c, 0, 62, 0
2, 11040, Note_on_c, 0, 55, 80
2, 11219, Note_on_c, 0, 55, 0
2, 11220, Note_on_c, 0, 64, 80
2, 11279, Note_on_c, 0, 64, 0
2, 11280, Note_on_c, 0, 57, 80
2, 11459, Note_on_c, 0, 57, 0
2, 11460, Note_on_c, 0, 66, 80
2, 11519, Note_on_c, 0, 66, 0
2, 11520, Note_on_c, 0, 59, 80
2, 11599, Note_on_c, 0, 59, 0
2, 11600, Note_on_c, 0, 62, 80
2, 11679, Note_on_c, 0, 62, 0
2, 11920, Note_on_c, 0, 57, 80
2, 11999, Note_on_c, 0, 57, 0
2, 12000, Note_on_c, 0, 59, 80
2, 12079, Note_on_c, 0, 59, 0
2, 12080, Note_on_c, 0, 62, 80
2, 12159, Note_on_c, 0, 62, 0
2, 12400, Note_on_c, 0, 60, 80
2, 12479, Note_on_c, 0, 60, 0
2, 12480, Note_on_c, 0, 62, 80
2, 12559, Note_on_c, 0, 62, 0
2, 12560, Note_on_c, 0, 67, 80
2, 12639, Note_on_c, 0, 67, 0
2, 12880, Note_on_c, 0, 64, 80
2, 12959, Note_on_c, 0, 64, 0
2, 12960, Note_on_c, 0, 66, 80
2, 13039, Note_on_c, 0, 66, 0
2, 13040, Note_on_c, 0, 69, 80
2, 13119, Note_on_c, 0, 69, 0
2, 13360, Note_on_c, 0, 64, 80
2, 13439, Note_on_c, 0, 64, 0
2, 13440, Note_on_c, 0, 66, 80
2, 13519, Note_on_c, 0, 66, 0
2, 13520, Note_on_c, 0, 69, 80
2, 13599, Note_on_c, 0, 69, 0
2, 13840, Note_on_c, 0, 67, 80
2, 13919, Note_on_c, 0, 67, 0
2, 13920, Note_on_c, 0, 69, 80
2, 13999, Note_on_c, 0, 69, 0
2, 14000, Note_on_c, 0, 74, 80
2, 14079, Note_on_c, 0, 74, 0
2, 14320, Note_on_c, 0, 69, 80
2, 14399, Note_on_c, 0, 69, 0
2, 14400, Note_on_c, 0, 67, 80
2, 14479, Note_on_c, 0, 67, 0
2, 14480, Note_on_c, 0, 71, 80
2, 14559, Note_on_c, 0, 71, 0
2, 14800, Note_on_c, 0, 66, 80
2, 14879, Note_on_c, 0, 66, 0
2, 14880, Note_on_c, 0, 64, 80
2, 14959, Note_on_c, 0, 64, 0
2, 14960, Note_on_c, 0, 67, 80
2, 15039, Note_on_c, 0, 67, 0
2, 15280, Note_on_c, 0, 62, 80
2, 15359, Note_on_c, 0, 62, 0
2, 15360, Note_on_c, 0, 61, 80
2, 15439, Note_on_c, 0, 61, 0
2, 15440, Note_on_c, 0, 64, 80
2, 15519, Note_on_c, 0, 64, 0
2, 15760, Note_on_c, 0, 59, 80
2, 15839, Note_on_c, 0, 59, 0
2, 15840, Note_on_c, 0, 57, 80
2, 15919, Note_on_c, 0, 57, 0
2, 15920, Note_on_c, 0, 61, 80
2, 15999, Note_on_c, 0, 61, 0
2, 16240, Note_on_c, 0, 59, 80
2, 16319, Note_on_c, 0, 59, 0
2, 16320, Note_on_c, 0, 57, 80
2, 16399, Note_on_c, 0, 57, 0
2, 16400, Note_on_c, 0, 61, 80
2, 16479, Note_on_c, 0, 61, 0
2, 16720, Note_on_c, 0, 55, 80
2, 16799, Note_on_c, 0, 55, 0
2, 16800, Note_on_c, 0, 54, 80
2, 16879, Note_on_c, 0, 54, 0
2, 16880, Note_on_c, 0, 57, 80
2, 16959, Note_on_c, 0, 57, 0
2, 17200, Note_on_c, 0, 52, 80
2, 17279, Note_on_c, 0, 52, 0
2, 17280, Note_on_c, 0, 50, 80
2, 17359, Note_on_c, 0, 50, 0
2, 17360, Note_on_c, 0, 54, 80
2, 17439, Note_on_c, 0, 54, 0
2, 17680, Note_on_c, 0, 52, 80
2, 17759, Note_on_c, 0, 52, 0
2, 17760, Note_on_c, 0, 50, 80
2, 17839, Note_on_c, 0, 50, 0
2, 17840, Note_on_c, 0, 53, 80
2, 17919, Note_on_c, 0, 53, 0
2, 18160, Note_on_c, 0, 48, 80
2, 18239, Note_on_c, 0, 48, 0
2, 18240, Note_on_c, 0, 47, 80
2, 18319, Note_on_c, 0, 47, 0
2, 18320, Note_on_c, 0, 50, 80
2, 18399, Note_on_c, 0, 50, 0
2, 18640, Note_on_c, 0, 45, 80
2, 18719, Note_on_c, 0, 45, 0
2, 18720, Note_on_c, 0, 43, 80
2, 18799, Note_on_c, 0, 43, 0
2, 18800, Note_on_c, 0, 47, 80
2, 18879, Note_on_c, 0, 47, 0
2, 19120, Note_on_c, 0, 45, 80
2, 19199, Note_on_c, 0, 45, 0
2, 19200, Note_on_c, 0, 43, 80
2, 19279, Note_on_c, 0, 43, 0
2, 19280, Note_on_c, 0, 47, 80
2, 19359, Note_on_c, 0, 47, 0
2, 19600, Note_on_c, 0, 42, 80
2, 19679, Note_on_c, 0, 42, 0
2, 19680, Note_on_c, 0, 40, 80
2, 19759, Note_on_c, 0, 40, 0
2, 19760, Note_on_c, 0, 43, 80
2, 19839, Note_on_c, 0, 43, 0
2, 20080, Note_on_c, 0, 38, 80
2, 20159, Note_on_c, 0, 38, 0
2, 20160, Note_on_c, 0, 37, 80
2, 20399, Note_on_c, 0, 37, 0
2, 20400, Note_on_c, 0, 49, 80
2, 20639, Note_on_c, 0, 49, 0
2, 20640, Note_on_c, 0, 50, 80
2, 20879, Note_on_c, 0, 50, 0
2, 20880, Note_on_c, 0, 42, 80
2, 21119, Note_on_c, 0, 42, 0
2, 21120, Note_on_c, 0, 43, 80
2, 21359, Note_on_c, 0, 43, 0
2, 21360, Note_on_c, 0, 45, 80
2, 21599, Note_on_c, 0, 45, 0
2, 21600, Note_on_c, 0, 38, 80
2, 21839, Note_on_c, 0, 38, 0
2, 21840, Note_on_c, 0, 50, 80
2, 22079, Note_on_c, 0, 50, 0
2, 22080, Note_on_c, 0, 55, 80
2, 22080, Note_on_c, 0, 52, 80
2, 22080, Note_on_c, 0, 61, 80
2, 22199, Note_on_c, 0, 55, 0
2, 22199, Note_on_c, 0, 52, 0
2, 22199, Note_on_c, 0, 61, 0
2, 22320, Note_on_c, 0, 55, 80
2, 22320, Note_on_c, 0, 52, 80
2, 22320, Note_on_c, 0, 61, 80
2, 22439, Note_on_c, 0, 55, 0
2, 22439, Note_on_c, 0, 52, 0
2, 22439, Note_on_c, 0, 61, 0
2, 22560, Note_on_c, 0, 38, 80
2, 23039, Note_on_c, 0, 38, 0
2, 23040, Note_on_c, 0, 55, 80
2, 23279, Note_on_c, 0, 55, 0
2, 23280, Note_on_c, 0, 43, 80
2, 23519, Note_on_c, 0, 43, 0
2, 23520, Note_on_c, 0, 60, 80
2, 23520, Note_on_c, 0, 57, 80
2, 23520, Note_on_c, 0, 66, 80
2, 23639, Note_on_c, 0, 60, 0
2, 23639, Note_on_c, 0, 57, 0
2, 23639, Note_on_c, 0, 66, 0
2, 23760, Note_on_c, 0, 60, 80
2, 23760, Note_on_c, 0, 57, 80
2, 23760, Note_on_c, 0, 66, 80
2, 23879, Note_on_c, 0, 60, 0
2, 23879, Note_on_c, 0, 57, 0
2, 23879, Note_on_c, 0, 66, 0
2, 24000, Note_on_c, 0, 60, 80
2, 24000, Note_on_c, 0, 57, 80
2, 24000, Note_on_c, 0, 66, 80
2, 24119, Note_on_c, 0, 60, 0
2, 24119, Note_on_c, 0, 57, 0
2, 24119, Note_on_c, 0, 66, 0
2, 24240, Note_on_c, 0, 60, 80
2, 24240, Note_on_c, 0, 57, 80
2, 24240, Note_on_c, 0, 66, 80
2, 24359, Note_on_c, 0, 60, 0
2, 24359, Note_on_c, 0, 57, 0
2, 24359, Note_on_c, 0, 66, 0
2, 24480, Note_on_c, 0, 54, 80
2, 24719, Note_on_c, 0, 54, 0
2, 24720, Note_on_c, 0, 42, 80
2, 24959, Note_on_c, 0, 42, 0
2, 24960, Note_on_c, 0, 67, 80
2, 24960, Note_on_c, 0, 64, 80
2, 24960, Note_on_c, 0, 73, 80
2, 25079, Note_on_c, 0, 67, 0
2, 25079, Note_on_c, 0, 64, 0
2, 25079, Note_on_c, 0, 73, 0
2, 25200, Note_on_c, 0, 67, 80
2, 25200, Note_on_c, 0, 64, 80
2, 25200, Note_on_c, 0, 73, 80
2, 25319, Note_on_c, 0, 67, 0
2, 25319, Note_on_c, 0, 64, 0
2, 25319, Note_on_c, 0, 73, 0
2, 25440, Note_on_c, 0, 67, 80
2, 25440, Note_on_c, 0, 64, 80
2, 25440, Note_on_c, 0, 73, 80
2, 25559, Note_on_c, 0, 67, 0
2, 25559, Note_on_c, 0, 64, 0
2, 25559, Note_on_c, 0, 73, 0
2, 25680, Note_on_c, 0, 67, 80
2, 25680, Note_on_c, 0, 64, 80
2, 25680, Note_on_c, 0, 73, 80
2, 25799, Note_on_c, 0, 67, 0
2, 25799, Note_on_c, 0, 64, 0
2, 25799, Note_on_c, 0, 73, 0
2, 25920, Note_on_c, 0, 52, 80
2, 26159, Note_on_c, 0, 52, 0
2, 26160, Note_on_c, 0, 40, 80
2, 26399, Note_on_c, 0, 40, 0
2, 26400, Note_on_c, 0, 74, 80
2, 26400, Note_on_c, 0, 69, 80
2, 26400, Note_on_c, 0, 78, 80
2, 26519, Note_on_c, 0, 74, 0
2, 26519, Note_on_c, 0, 69, 0
2, 26519, Note_on_c, 0, 78, 0
2, 26640, Note_on_c, 0, 73, 80
2, 26640, Note_on_c, 0, 67, 80
2, 26640, Note_on_c, 0, 76, 80
2, 26759, Note_on_c, 0, 73, 0
2, 26759, Note_on_c, 0, 67, 0
2, 26759, Note_on_c, 0, 76, 0
2, 26880, Note_on_c, 0, 74, 80
2, 26880, Note_on_c, 0, 69, 80
2, 26880, Note_on_c, 0, 78, 80
2, 26999, Note_on_c, 0, 74, 0
2, 26999, Note_on_c, 0, 69, 0
2, 26999, Note_on_c, 0, 78, 0
2, 27120, Note_on_c, 0, 73, 80
2, 27120, Note_on_c, 0, 67, 80
2, 27120, Note_on_c, 0, 76, 80
2, 27239, Note_on_c, 0, 73, 0
2, 27239, Note_on_c, 0, 67, 0
2, 27239, Note_on_c, 0, 76, 0
2, 27480, Note_on_c, 0, 62, 80
2, 27599, Note_on_c, 0, 62, 0
2, 27600, Note_on_c, 0, 57, 80
2, 27719, Note_on_c, 0, 57, 0
2, 27720, Note_on_c, 0, 54, 80
2, 27839, Note_on_c, 0, 54, 0
2, 27840, Note_on_c, 0, 50, 80
2, 28019, Note_on_c, 0, 50, 0
2, 28020, Note_on_c, 0, 62, 80
2, 28079, Note_on_c, 0, 62, 0
2, 28080, Note_on_c, 0, 52, 80
2, 28259, Note_on_c, 0, 52, 0
2, 28260, Note_on_c, 0, 60, 80
2, 28319, Note_on_c, 0, 60, 0
2, 28320, Note_on_c, 0, 50, 80
2, 28499, Note_on_c, 0, 50, 0
2, 28500, Note_on_c, 0, 59, 80
2, 28559, Note_on_c, 0, 59, 0
2, 28560, Note_on_c, 0, 48, 80
2, 28739, Note_on_c, 0, 48, 0
2, 28740, Note_on_c, 0, 57, 80
2, 28799, Note_on_c, 0, 57, 0
2, 28800, Note_on_c, 0, 47, 80
2, 29039, Note_on_c, 0, 47, 0
2, 29040, Note_on_c, 0, 59, 80
2, 29279, Note_on_c, 0, 59, 0
2, 29280, Note_on_c, 0, 72, 80
2, 29280, Note_on_c, 0, 69, 80
2, 29280, Note_on_c, 0, 78, 80
2, 29399, Note_on_c, 0, 72, 0
2, 29399, Note_on_c, 0, 69, 0
2, 29399, Note_on_c, 0, 78, 0
2, 29520, Note_on_c, 0, 72, 80
2, 29520, Note_on_c, 0, 69, 80
2, 29520, Note_on_c, 0, 78, 80
2, 29639, Note_on_c, 0, 72, 0
2, 29639, Note_on_c, 0, 69, 0
2, 29639, Note_on_c, 0, 78, 0
2, 29760, Note_on_c, 0, 72, 80
2, 29760, Note_on_c, 0, 69, 80
2, 29760, Note_on_c, 0, 78, 80
2, 29879, Note_on_c, 0, 72, 0
2, 29879, Note_on_c, 0, 69, 0
2, 29879, Note_on_c, 0, 78, 0
2, 30000, Note_on_c, 0, 72, 80
2, 30000, Note_on_c, 0, 69, 80
2, 30000, Note_on_c, 0, 76, 80
2, 30119, Note_on_c, 0, 72, 0
2, 30119, Note_on_c, 0, 69, 0
2, 30119, Note_on_c, 0, 76, 0
2, 30240, Note_on_c, 0, 48, 80
2, 30479, Note_on_c, 0, 48, 0
2, 30480, Note_on_c, 0, 60, 80
2, 30719, Note_on_c, 0, 60, 0
2, 30720, Note_on_c, 0, 71, 80
2, 30720, Note_on_c, 0, 65, 80
2, 30720, Note_on_c, 0, 74, 80
2, 30839, Note_on_c, 0, 71, 0
2, 30839, Note_on_c, 0, 65, 0
2, 30839, Note_on_c, 0, 74, 0
2, 30960, Note_on_c, 0, 71, 80
2, 30960, Note_on_c, 0, 65, 80
2, 30960, Note_on_c, 0, 74, 80
2, 31079, Note_on_c, 0, 71, 0
2, 31079, Note_on_c, 0, 65, 0
2, 31079, Note_on_c, 0, 74, 0
2, 31200, Note_on_c, 0, 71, 80
2, 31200, Note_on_c, 0, 65, 80
2, 31200, Note_on_c, 0, 74, 80
2, 31319, Note_on_c, 0, 71, 0
2, 31319, Note_on_c, 0, 65, 0
2, 31319, Note_on_c, 0, 74, 0
2, 31440, Note_on_c, 0, 69, 80
2, 31440, Note_on_c, 0, 64, 80
2, 31440, Note_on_c, 0, 72, 80
2, 31559, Note_on_c, 0, 69, 0
2, 31559, Note_on_c, 0, 64, 0
2, 31559, Note_on_c, 0, 72, 0
2, 31680, Note_on_c, 0, 50, 80
2, 31919, Note_on_c, 0, 50, 0
2, 31920, Note_on_c, 0, 62, 80
2, 32159, Note_on_c, 0, 62, 0
2, 32160, Note_on_c, 0, 67, 80
2, 32160, Note_on_c, 0, 64, 80
2, 32160, Note_on_c, 0, 73, 80
2, 32279, Note_on_c, 0, 67, 0
2, 32279, Note_on_c, 0, 64, 0
2, 32279, Note_on_c, 0, 73, 0
2, 32400, Note_on_c, 0, 67, 80
2, 32400, Note_on_c, 0, 64, 80
2, 32400, Note_on_c, 0, 73, 80
2, 32519, Note_on_c, 0, 67, 0
2, 32519, Note_on_c, 0, 64, 0
2, 32519, Note_on_c, 0, 73, 0
2, 32640, Note_on_c, 0, 67, 80
2, 32640, Note_on_c, 0, 64, 80
2, 32640, Note_on_c, 0, 73, 80
2, 32759, Note_on_c, 0, 67, 0
2, 32759, Note_on_c, 0, 64, 0
2, 32759, Note_on_c, 0, 73, 0
2, 32880, Note_on_c, 0, 66, 80
2, 32880, Note_on_c, 0, 62, 80
2, 32880, Note_on_c, 0, 69, 80
2, 32999, Note_on_c, 0, 66, 0
2, 32999, Note_on_c, 0, 62, 0
2, 32999, Note_on_c, 0, 69, 0
2, 33240, Note_on_c, 0, 55, 80
2, 33359, Note_on_c, 0, 55, 0
2, 33360, Note_on_c, 0, 50, 80
2, 33479, Note_on_c, 0, 50, 0
2, 33480, Note_on_c, 0, 47, 80
2, 33599, Note_on_c, 0, 47, 0
2, 33600, Note_on_c, 0, 43, 80
2, 33779, Note_on_c, 0, 43, 0
2, 33780, Note_on_c, 0, 55, 80
2, 33839, Note_on_c, 0, 55, 0
2, 33840, Note_on_c, 0, 54, 80
2, 34019, Note_on_c, 0, 54, 0
2, 34020, Note_on_c, 0, 62, 80
2, 34079, Note_on_c, 0, 62, 0
2, 34080, Note_on_c, 0, 55, 80
2, 34259, Note_on_c, 0, 55, 0
2, 34260, Note_on_c, 0, 64, 80
2, 34319, Note_on_c, 0, 64, 0
2, 34320, Note_on_c, 0, 57, 80
2, 34499, Note_on_c, 0, 57, 0
2, 34500, Note_on_c, 0, 66, 80
2, 34559, Note_on_c, 0, 66, 0
2, 34560, Note_on_c, 0, 59, 80
2, 34639, Note_on_c, 0, 59, 0
2, 34640, Note_on_c, 0, 62, 80
2, 34719, Note_on_c, 0, 62, 0
2, 34960, Note_on_c, 0, 57, 80
2, 35039, Note_on_c, 0, 57, 0
2, 35040, Note_on_c, 0, 59, 80
2, 35119, Note_on_c, 0, 59, 0
2, 35120, Note_on_c, 0, 62, 80
2, 35199, Note_on_c, 0, 62, 0
2, 35440, Note_on_c, 0, 60, 80
2, 35519, Note_on_c, 0, 60, 0
2, 35520, Note_on_c, 0, 62, 80
2, 35599, Note_on_c, 0, 62, 0
2, 35600, Note_on_c, 0, 67, 80
2, 35679, Note_on_c, 0, 67, 0
2, 35920, Note_on_c, 0, 64, 80
2, 35999, Note_on_c, 0, 64, 0
2, 36000, Note_on_c, 0, 66, 80
2, 36079, Note_on_c, 0, 66, 0
2, 36080, Note_on_c, 0, 69, 80
2, 36159, Note_on_c, 0, 69, 0
2, 36400, Note_on_c, 0, 64, 80
2, 36479, Note_on_c, 0, 64, 0
2, 36480, Note_on_c, 0, 66, 80
2, 36559, Note_on_c, 0, 66, 0
2, 36560, Note_on_c, 0, 69, 80
2, 36639, Note_on_c, 0, 69, 0
2, 36880, Note_on_c, 0, 67, 80
2, 36959, Note_on_c, 0, 67, 0
2, 36960, Note_on_c, 0, 69, 80
2, 37039, Note_on_c, 0, 69, 0
2, 37040, Note_on_c, 0, 74, 80
2, 37119, Note_on_c, 0, 74, 0
2, 37360, Note_on_c, 0, 69, 80
2, 37439, Note_on_c, 0, 69, 0
2, 37440, Note_on_c, 0, 67, 80
2, 37519, Note_on_c, 0, 67, 0
2, 37520, Note_on_c, 0, 71, 80
2, 37599, Note_on_c, 0, 71, 0
2, 37840, Note_on_c, 0, 66, 80
2, 37919, Note_on_c, 0, 66, 0
2, 37920, Note_on_c, 0, 64, 80
2, 37999, Note_on_c, 0, 64, 0
2, 38000, Note_on_c, 0, 67, 80
2, 38079, Note_on_c, 0, 67, 0
2, 38320, Note_on_c, 0, 62, 80
2, 38399, Note_on_c, 0, 62, 0
2, 38400, Note_on_c, 0, 61, 80
2, 38479, Note_on_c, 0, 61, 0
2, 38480, Note_on_c, 0, 64, 80
2, 38559, Note_on_c, 0, 64, 0
2, 38800, Note_on_c, 0, 59, 80
2, 38879, Note_on_c, 0, 59, 0
2, 38880, Note_on_c, 0, 57, 80
2, 38959, Note_on_c, 0, 57, 0
2, 38960, Note_on_c, 0, 61, 80
2, 39039, Note_on_c, 0, 61, 0
2, 39280, Note_on_c, 0, 59, 80
2, 39359, Note_on_c, 0, 59, 0
2, 39360, Note_on_c, 0, 57, 80
2, 39439, Note_on_c, 0, 57, 0
2, 39440, Note_on_c, 0, 61, 80
2, 39519, Note_on_c, 0, 61, 0
2, 39760, Note_on_c, 0, 55, 80
2, 39839, Note_on_c, 0, 55, 0
2, 39840, Note_on_c, 0, 54, 80
2, 39919, Note_on_c, 0, 54, 0
2, 39920, Note_on_c, 0, 57, 80
2, 39999, Note_on_c, 0, 57, 0
2, 40240, Note_on_c, 0, 52, 80
2, 40319, Note_on_c, 0, 52, 0
2, 40320, Note_on_c, 0, 50, 80
2, 40399, Note_on_c, 0, 50, 0
2, 40400, Note_on_c, 0, 54, 80
2, 40479, Note_on_c, 0, 54, 0
2, 40720, Note_on_c, 0, 52, 80
2, 40799, Note_on_c, 0, 52, 0
2, 40800, Note_on_c, 0, 50, 80
2, 40879, Note_on_c, 0, 50, 0
2, 40880, Note_on_c, 0, 53, 80
2, 40959, Note_on_c, 0, 53, 0
2, 41200, Note_on_c, 0, 48, 80
2, 41279, Note_on_c, 0, 48, 0
2, 41280, Note_on_c, 0, 47, 80
2, 41359, Note_on_c, 0, 47, 0
2, 41360, Note_on_c, 0, 50, 80
2, 41439, Note_on_c, 0, 50, 0
2, 41680, Note_on_c, 0, 45, 80
2, 41759, Note_on_c, 0, 45, 0
2, 41760, Note_on_c, 0, 43, 80
2, 41839, Note_on_c, 0, 43, 0
2, 41840, Note_on_c, 0, 47, 80
2, 41919, Note_on_c, 0, 47, 0
2, 42160, Note_on_c, 0, 45, 80
2, 42239, Note_on_c, 0, 45, 0
2, 42240, Note_on_c, 0, 43, 80
2, 42319, Note_on_c, 0, 43, 0
2, 42320, Note_on_c, 0, 47, 80
2, 42399, Note_on_c, 0, 47, 0
2, 42640, Note_on_c, 0, 42, 80
2, 42719, Note_on_c, 0, 42, 0
2, 42720, Note_on_c, 0, 40, 80
2, 42799, Note_on_c, 0, 40, 0
2, 42800, Note_on_c, 0, 43, 80
2, 42879, Note_on_c, 0, 43, 0
2, 43120, Note_on_c, 0, 38, 80
2, 43199, Note_on_c, 0, 38, 0
2, 43200, Note_on_c, 0, 37, 80
2, 43439, Note_on_c, 0, 37, 0
2, 43440, Note_on_c, 0, 49, 80
2, 43679, Note_on_c, 0, 49, 0
2, 43680, Note_on_c, 0, 50, 80
2, 43919, Note_on_c, 0, 50, 0
2, 43920, Note_on_c, 0, 42, 80
2, 44159, Note_on_c, 0, 42, 0
2, 44160, Note_on_c, 0, 43, 80
2, 44399, Note_on_c, 0, 43, 0
2, 44400, Note_on_c, 0, 45, 80
2, 44639, Note_on_c, 0, 45, 0
2, 44640, Note_on_c, 0, 38, 80
2, 44879, Note_on_c, 0, 38, 0
2, 44880, Note_on_c, 0, 50, 80
2, 45119, Note_on_c, 0, 50, 0
2, 45120, Note_on_c, 0, 55, 80
2, 45120, Note_on_c, 0, 52, 80
2, 45120, Note_on_c, 0, 61, 80
2, 45239, Note_on_c, 0, 55, 0
2, 45239, Note_on_c, 0, 52, 0
2, 45239, Note_on_c, 0, 61, 0
2, 45360, Note_on_c, 0, 55, 80
2, 45360, Note_on_c, 0, 52, 80
2, 45360, Note_on_c, 0, 61, 80
2, 45479, Note_on_c, 0, 55, 0
2, 45479, Note_on_c, 0, 52, 0
2, 45479, Note_on_c, 0, 61, 0
2, 45600, Note_on_c, 0, 38, 80
2, 46079, Note_on_c, 0, 38, 0
2, 46080, Note_on_c, 0, 74, 80
2, 46159, Note_on_c, 0, 74, 0
2, 46160, Note_on_c, 0, 78, 80
2, 46239, Note_on_c, 0, 78, 0
2, 46480, Note_on_c, 0, 76, 80
2, 46559, Note_on_c, 0, 76, 0
2, 46560, Note_on_c, 0, 74, 80
2, 46639, Note_on_c, 0, 74, 0
2, 46640, Note_on_c, 0, 78, 80
2, 46719, Note_on_c, 0, 78, 0
2, 46960, Note_on_c, 0, 72, 80
2, 47039, Note_on_c, 0, 72, 0
2, 47040, Note_on_c, 0, 71, 80
2, 47119, Note_on_c, 0, 71, 0
2, 47120, Note_on_c, 0, 74, 80
2, 47199, Note_on_c, 0, 74, 0
2, 47440, Note_on_c, 0, 69, 80
2, 47519, Note_on_c, 0, 69, 0
2, 47520, Note_on_c, 0, 67, 80
2, 47599, Note_on_c, 0, 67, 0
2, 47600, Note_on_c, 0, 71, 80
2, 47679, Note_on_c, 0, 71, 0
2, 47920, Note_on_c, 0, 69, 80
2, 47999, Note_on_c, 0, 69, 0
2, 48000, Note_on_c, 0, 67, 80
2, 48079, Note_on_c, 0, 67, 0
2, 48080, Note_on_c, 0, 71, 80
2, 48159, Note_on_c, 0, 71, 0
2, 48400, Note_on_c, 0, 66, 80
2, 48479, Note_on_c, 0, 66, 0
2, 48480, Note_on_c, 0, 64, 80
2, 48559, Note_on_c, 0, 64, 0
2, 48560, Note_on_c, 0, 67, 80
2, 48639, Note_on_c, 0, 67, 0
2, 48880, Note_on_c, 0, 62, 80
2, 48959, Note_on_c, 0, 62, 0
2, 48960, Note_on_c, 0, 60, 80
2, 49039, Note_on_c, 0, 60, 0
2, 49040, Note_on_c, 0, 64, 80
2, 49119, Note_on_c, 0, 64, 0
2, 49360, Note_on_c, 0, 59, 80
2, 49439, Note_on_c, 0, 59, 0
2, 49440, Note_on_c, 0, 57, 80
2, 49519, Note_on_c, 0, 57, 0
2, 49520, Note_on_c, 0, 60, 80
2, 49599, Note_on_c, 0, 60, 0
2, 49840, Note_on_c, 0, 55, 80
2, 49919, Note_on_c, 0, 55, 0
2, 49920, Note_on_c, 0, 54, 80
2, 49999, Note_on_c, 0, 54, 0
2, 50000, Note_on_c, 0, 57, 80
2, 50079, Note_on_c, 0, 57, 0
2, 50320, Note_on_c, 0, 52, 80
2, 50399, Note_on_c, 0, 52, 0
2, 50400, Note_on_c, 0, 51, 80
2, 50479, Note_on_c, 0, 51, 0
2, 50480, Note_on_c, 0, 55, 80
2, 50559, Note_on_c, 0, 55, 0
2, 50800, Note_on_c, 0, 49, 80
2, 50879, Note_on_c, 0, 49, 0
2, 50880, Note_on_c, 0, 47, 80
2, 50959, Note_on_c, 0, 47, 0
2, 50960, Note_on_c, 0, 51, 80
2, 51039, Note_on_c, 0, 51, 0
2, 51280, Note_on_c, 0, 45, 80
2, 51359, Note_on_c, 0, 45, 0
2, 51360, Note_on_c, 0, 43, 80
2, 51439, Note_on_c, 0, 43, 0
2, 51440, Note_on_c, 0, 47, 80
2, 51519, Note_on_c, 0, 47, 0
2, 51760, Note_on_c, 0, 42, 80
2, 51839, Note_on_c, 0, 42, 0
2, 51840, Note_on_c, 0, 40, 80
2, 52079, Note_on_c, 0, 40, 0
2, 52080, Note_on_c, 0, 52, 80
2, 52319, Note_on_c, 0, 52, 0
2, 52320, Note_on_c, 0, 69, 80
2, 52320, Note_on_c, 0, 66, 80
2, 52320, Note_on_c, 0, 75, 80
2, 52439, Note_on_c, 0, 69, 0
2, 52439, Note_on_c, 0, 66, 0
2, 52439, Note_on_c, 0, 75, 0
2, 52560, Note_on_c, 0, 69, 80
2, 52560, Note_on_c, 0, 66, 80
2, 52560, Note_on_c, 0, 75, 80
2, 52679, Note_on_c, 0, 69, 0
2, 52679, Note_on_c, 0, 66, 0
2, 52679, Note_on_c, 0, 75, 0
2, 52800, Note_on_c, 0, 59, 80
2, 52800, Note_on_c, 0, 67, 80
2, 52919, Note_on_c, 0, 59, 0
2, 52919, Note_on_c, 0, 67, 0
2, 53040, Note_on_c, 0, 69, 80
2, 53040, Note_on_c, 0, 66, 80
2, 53040, Note_on_c, 0, 75, 80
2, 53159, Note_on_c, 0, 69, 0
2, 53159, Note_on_c, 0, 66, 0
2, 53159, Note_on_c, 0, 75, 0
2, 53280, Note_on_c, 0, 48, 80
2, 53519, Note_on_c, 0, 48, 0
2, 53520, Note_on_c, 0, 60, 80
2, 53759, Note_on_c, 0, 60, 0
2, 53760, Note_on_c, 0, 69, 80
2, 53760, Note_on_c, 0, 66, 80
2, 53760, Note_on_c, 0, 75, 80
2, 53879, Note_on_c, 0, 69, 0
2, 53879, Note_on_c, 0, 66, 0
2, 53879, Note_on_c, 0, 75, 0
2, 54000, Note_on_c, 0, 69, 80
2, 54000, Note_on_c, 0, 66, 80
2, 54000, Note_on_c, 0, 75, 80
2, 54119, Note_on_c, 0, 69, 0
2, 54119, Note_on_c, 0, 66, 0
2, 54119, Note_on_c, 0, 75, 0
2, 54240, Note_on_c, 0, 59, 80
2, 54240, Note_on_c, 0, 71, 80
2, 54359, Note_on_c, 0, 59, 0
2, 54359, Note_on_c, 0, 71, 0
2, 54480, Note_on_c, 0, 69, 80
2, 54480, Note_on_c, 0, 66, 80
2, 54480, Note_on_c, 0, 75, 80
2, 54599, Note_on_c, 0, 69, 0
2, 54599, Note_on_c, 0, 66, 0
2, 54599, Note_on_c, 0, 75, 0
2, 54720, Note_on_c, 0, 57, 80
2, 54959, Note_on_c, 0, 57, 0
2, 54960, Note_on_c, 0, 51, 80
2, 55199, Note_on_c, 0, 51, 0
2, 55200, Note_on_c, 0, 52, 80
2, 55439, Note_on_c, 0, 52, 0
2, 55440, Note_on_c, 0, 57, 80
2, 55679, Note_on_c, 0, 57, 0
2, 55680, Note_on_c, 0, 59, 80
2, 55919, Note_on_c, 0, 59, 0
2, 55920, Note_on_c, 0, 47, 80
2, 56159, Note_on_c, 0, 47, 0
2, 56160, Note_on_c, 0, 52, 80
2, 56399, Note_on_c, 0, 52, 0
2, 56400, Note_on_c, 0, 69, 80
2, 56400, Note_on_c, 0, 66, 80
2, 56400, Note_on_c, 0, 75, 80
2, 56519, Note_on_c, 0, 69, 0
2, 56519, Note_on_c, 0, 66, 0
2, 56519, Note_on_c, 0, 75, 0
2, 56640, Note_on_c, 0, 66, 80
2, 56640, Note_on_c, 0, 63, 80
2, 56640, Note_on_c, 0, 71, 80
2, 56759, Note_on_c, 0, 66, 0
2, 56759, Note_on_c, 0, 63, 0
2, 56759, Note_on_c, 0, 71, 0
2, 56880, Note_on_c, 0, 66, 80
2, 56880, Note_on_c, 0, 63, 80
2, 56880, Note_on_c, 0, 71, 80
2, 56999, Note_on_c, 0, 66, 0
2, 56999, Note_on_c, 0, 63, 0
2, 56999, Note_on_c, 0, 71, 0
2, 57120, Note_on_c, 0, 63, 80
2, 57120, Note_on_c, 0, 57, 80
2, 57120, Note_on_c, 0, 66, 80
2, 57239, Note_on_c, 0, 63, 0
2, 57239, Note_on_c, 0, 57, 0
2, 57239, Note_on_c, 0, 66, 0
2, 57360, Note_on_c, 0, 63, 80
2, 57360, Note_on_c, 0, 57, 80
2, 57360, Note_on_c, 0, 66, 80
2, 57479, Note_on_c, 0, 63, 0
2, 57479, Note_on_c, 0, 57, 0
2, 57479, Note_on_c, 0, 66, 0
2, 57600, Note_on_c, 0, 48, 80
2, 57839, Note_on_c, 0, 48, 0
2, 57840, Note_on_c, 0, 59, 80
2, 58079, Note_on_c, 0, 59, 0
2, 58080, Note_on_c, 0, 57, 80
2, 58319, Note_on_c, 0, 57, 0
2, 58320, Note_on_c, 0, 56, 80
2, 58559, Note_on_c, 0, 56, 0
2, 58560, Note_on_c, 0, 57, 80
2, 58799, Note_on_c, 0, 57, 0
2, 58800, Note_on_c, 0, 48, 80
2, 59039, Note_on_c, 0, 48, 0
2, 59040, Note_on_c, 0, 47, 80
2, 59279, Note_on_c, 0, 47, 0
2, 59280, Note_on_c, 0, 57, 80
2, 59519, Note_on_c, 0, 57, 0
2, 59520, Note_on_c, 0, 55, 80
2, 59759, Note_on_c, 0, 55, 0
2, 59760, Note_on_c, 0, 54, 80
2, 59999, Note_on_c, 0, 54, 0
2, 60000, Note_on_c, 0, 55, 80
2, 60239, Note_on_c, 0, 55, 0
2, 60240, Note_on_c, 0, 47, 80
2, 60479, Note_on_c, 0, 47, 0
2, 60480, Note_on_c, 0, 45, 80
2, 60559, Note_on_c, 0, 45, 0
2, 60560, Note_on_c, 0, 57, 80
2, 60639, Note_on_c, 0, 57, 0
2, 60880, Note_on_c, 0, 59, 80
2, 60959, Note_on_c, 0, 59, 0
2, 60960, Note_on_c, 0, 57, 80
2, 61039, Note_on_c, 0, 57, 0
2, 61040, Note_on_c, 0, 60, 80
2, 61119, Note_on_c, 0, 60, 0
2, 61360, Note_on_c, 0, 55, 80
2, 61439, Note_on_c, 0, 55, 0
2, 61440, Note_on_c, 0, 54, 80
2, 61519, Note_on_c, 0, 54, 0
2, 61520, Note_on_c, 0, 57, 80
2, 61599, Note_on_c, 0, 57, 0
2, 61840, Note_on_c, 0, 52, 80
2, 61919, Note_on_c, 0, 52, 0
2, 61920, Note_on_c, 0, 47, 80
2, 61999, Note_on_c, 0, 47, 0
2, 62000, Note_on_c, 0, 62, 80
2, 62079, Note_on_c, 0, 62, 0
2, 62320, Note_on_c, 0, 64, 80
2, 62399, Note_on_c, 0, 64, 0
2, 62400, Note_on_c, 0, 62, 80
2, 62479, Note_on_c, 0, 62, 0
2, 62480, Note_on_c, 0, 66, 80
2, 62559, Note_on_c, 0, 66, 0
2, 62800, Note_on_c, 0, 60, 80
2, 62879, Note_on_c, 0, 60, 0
2, 62880, Note_on_c, 0, 59, 80
2, 62959, Note_on_c, 0, 59, 0
2, 62960, Note_on_c, 0, 62, 80
2, 63039, Note_on_c, 0, 62, 0
2, 63280, Note_on_c, 0, 57, 80
2, 63359, Note_on_c, 0, 57, 0
2, 63360, Note_on_c, 0, 50, 80
2, 63439, Note_on_c, 0, 50, 0
2, 63440, Note_on_c, 0, 62, 80
2, 63519, Note_on_c, 0, 62, 0
2, 63760, Note_on_c, 0, 69, 80
2, 63839, Note_on_c, 0, 69, 0
2, 63840, Note_on_c, 0, 67, 80
2, 63919, Note_on_c, 0, 67, 0
2, 63920, Note_on_c, 0, 71, 80
2, 63999, Note_on_c, 0, 71, 0
2, 64240, Note_on_c, 0, 65, 80
2, 64319, Note_on_c, 0, 65, 0
2, 64320, Note_on_c, 0, 64, 80
2, 64399, Note_on_c, 0, 64, 0
2, 64400, Note_on_c, 0, 67, 80
2, 64479, Note_on_c, 0, 67, 0
2, 64720, Note_on_c, 0, 62, 80
2, 64799, Note_on_c, 0, 62, 0
2, 64800, Note_on_c, 0, 60, 80
2, 64879, Note_on_c, 0, 60, 0
2, 64880, Note_on_c, 0, 72, 80
2, 64959, Note_on_c, 0, 72, 0
2, 65200, Note_on_c, 0, 74, 80
2, 65279, Note_on_c, 0, 74, 0
2, 65280, Note_on_c, 0, 72, 80
2, 65359, Note_on_c, 0, 72, 0
2, 65360, Note_on_c, 0, 76, 80
2, 65439, Note_on_c, 0, 76, 0
2, 65680, Note_on_c, 0, 71, 80
2, 65759, Note_on_c, 0, 71, 0
2, 65760, Note_on_c, 0, 69, 80
2, 65839, Note_on_c, 0, 69, 0
2, 65840, Note_on_c, 0, 72, 80
2, 65919, Note_on_c, 0, 72, 0
2, 66160, Note_on_c, 0, 67, 80
2, 66239, Note_on_c, 0, 67, 0
2, 66240, Note_on_c, 0, 66, 80
2, 66479, Note_on_c, 0, 66, 0
2, 66480, Note_on_c, 0, 57, 80
2, 66719, Note_on_c, 0, 57, 0
2, 66720, Note_on_c, 0, 59, 80
2, 66959, Note_on_c, 0, 59, 0
2, 66960, Note_on_c, 0, 60, 80
2, 67199, Note_on_c, 0, 60, 0
2, 67200, Note_on_c, 0, 62, 80
2, 67439, Note_on_c, 0, 62, 0
2, 67440, Note_on_c, 0, 50, 80
2, 67679, Note_on_c, 0, 50, 0
2, 67680, Note_on_c, 0, 55, 80
2, 67919, Note_on_c, 0, 55, 0
2, 67920, Note_on_c, 0, 43, 80
2, 68159, Note_on_c, 0, 43, 0
2, 68160, Note_on_c, 0, 72, 80
2, 68160, Note_on_c, 0, 69, 80
2, 68160, Note_on_c, 0, 78, 80
2, 68279, Note_on_c, 0, 72, 0
2, 68279, Note_on_c, 0, 69, 0
2, 68279, Note_on_c, 0, 78, 0
2, 68400, Note_on_c, 0, 72, 80
2, 68400, Note_on_c, 0, 69, 80
2, 68400, Note_on_c, 0, 78, 80
2, 68519, Note_on_c, 0, 72, 0
2, 68519, Note_on_c, 0, 69, 0
2, 68519, Note_on_c, 0, 78, 0
2, 68640, Note_on_c, 0, 55, 80
2, 69119, Note_on_c, 0, 55, 0
2, 69120, Note_on_c, 0, 74, 80
2, 69199, Note_on_c, 0, 74, 0
2, 69200, Note_on_c, 0, 78, 80
2, 69279, Note_on_c, 0, 78, 0
2, 69520, Note_on_c, 0, 76, 80
2, 69599, Note_on_c, 0, 76, 0
2, 69600, Note_on_c, 0, 74, 80
2, 69679, Note_on_c, 0, 74, 0
2, 69680, Note_on_c, 0, 78, 80
2, 69759, Note_on_c, 0, 78, 0
2, 70000, Note_on_c, 0, 72, 80
2, 70079, Note_on_c, 0, 72, 0
2, 70080, Note_on_c, 0, 71, 80
2, 70159, Note_on_c, 0, 71, 0
2, 70160, Note_on_c, 0, 74, 80
2, 70239, Note_on_c, 0, 74, 0
2, 70480, Note_on_c, 0, 69, 80
2, 70559, Note_on_c, 0, 69, 0
2, 70560, Note_on_c, 0, 67, 80
2, 70639, Note_on_c, 0, 67, 0
2, 70640, Note_on_c, 0, 71, 80
2, 70719, Note_on_c, 0, 71, 0
2, 70960, Note_on_c, 0, 69, 80
2, 71039, Note_on_c, 0, 69, 0
2, 71040, Note_on_c, 0, 67, 80
2, 71119, Note_on_c, 0, 67, 0
2, 71120, Note_on_c, 0, 71, 80
2, 71199, Note_on_c, 0, 71, 0
2, 71440, Note_on_c, 0, 66, 80
2, 71519, Note_on_c, 0, 66, 0
2, 71520, Note_on_c, 0, 64, 80
2, 71599, Note_on_c, 0, 64, 0
2, 71600, Note_on_c, 0, 67, 80
2, 71679, Note_on_c, 0, 67, 0
2, 71920, Note_on_c, 0, 62, 80
2, 71999, Note_on_c, 0, 62, 0
2, 72000, Note_on_c, 0, 60, 80
2, 72079, Note_on_c, 0, 60, 0
2, 72080, Note_on_c, 0, 64, 80
2, 72159, Note_on_c, 0, 64, 0
2, 72400, Note_on_c, 0, 59, 80
2, 72479, Note_on_c, 0, 59, 0
2, 72480, Note_on_c, 0, 57, 80
2, 72559, Note_on_c, 0, 57, 0
2, 72560, Note_on_c, 0, 60, 80
2, 72639, Note_on_c, 0, 60, 0
2, 72880, Note_on_c, 0, 55, 80
2, 72959, Note_on_c, 0, 55, 0
2, 72960, Note_on_c, 0, 54, 80
2, 73039, Note_on_c, 0, 54, 0
2, 73040, Note_on_c, 0, 57, 80
2, 73119, Note_on_c, 0, 57, 0
2, 73360, Note_on_c, 0, 52, 80
2, 73439, Note_on_c, 0, 52, 0
2, 73440, Note_on_c, 0, 51, 80
2, 73519, Note_on_c, 0, 51, 0
2, 73520, Note_on_c, 0, 55, 80
2, 73599, Note_on_c, 0, 55, 0
2, 73840, Note_on_c, 0, 49, 80
2, 73919, Note_on_c, 0, 49, 0
2, 73920, Note_on_c, 0, 47, 80
2, 73999, Note_on_c, 0, 47, 0
2, 74000, Note_on_c, 0, 51, 80
2, 74079, Note_on_c, 0, 51, 0
2, 74320, Note_on_c, 0, 45, 80
2, 74399, Note_on_c, 0, 45, 0
2, 74400, Note_on_c, 0, 43, 80
2, 74479, Note_on_c, 0, 43, 0
2, 74480, Note_on_c, 0, 47, 80
2, 74559, Note_on_c, 0, 47, 0
2, 74800, Note_on_c, 0, 42, 80
2, 74879, Note_on_c, 0, 42, 0
2, 74880, Note_on_c, 0, 40, 80
2, 75119, Note_on_c, 0, 40, 0
2, 75120, Note_on_c, 0, 52, 80
2, 75359, Note_on_c, 0, 52, 0
2, 75360, Note_on_c, 0, 69, 80
2, 75360, Note_on_c, 0, 66, 80
2, 75360, Note_on_c, 0, 75, 80
2, 75479, Note_on_c, 0, 69, 0
2, 75479, Note_on_c, 0, 66, 0
2, 75479, Note_on_c, 0, 75, 0
2, 75600, Note_on_c, 0, 69, 80
2, 75600, Note_on_c, 0, 66, 80
2, 75600, Note_on_c, 0, 75, 80
2, 75719, Note_on_c, 0, 69, 0
2, 75719, Note_on_c, 0, 66, 0
2, 75719, Note_on_c, 0, 75, 0
2, 75840, Note_on_c, 0, 59, 80
2, 75840, Note_on_c, 0, 67, 80
2, 75959, Note_on_c, 0, 59, 0
2, 75959, Note_on_c, 0, 67, 0
2, 76080, Note_on_c, 0, 69, 80
2, 76080, Note_on_c, 0, 66, 80
2, 76080, Note_on_c, 0, 75, 80
2, 76199, Note_on_c, 0, 69, 0
2, 76199, Note_on_c, 0, 66, 0
2, 76199, Note_on_c, 0, 75, 0
2, 76320, Note_on_c, 0, 48, 80
2, 76559, Note_on_c, 0, 48, 0
2, 76560, Note_on_c, 0, 60, 80
2, 76799, Note_on_c, 0, 60, 0
2, 76800, Note_on_c, 0, 69, 80
2, 76800, Note_on_c, 0, 66, 80
2, 76800, Note_on_c, 0, 75, 80
2, 76919, Note_on_c, 0, 69, 0
2, 76919, Note_on_c, 0, 66, 0
2, 76919, Note_on_c, 0, 75, 0
2, 77040, Note_on_c, 0, 69, 80
2, 77040, Note_on_c, 0, 66, 80
2, 77040, Note_on_c, 0, 75, 80
2, 77159, Note_on_c, 0, 69, 0
2, 77159, Note_on_c, 0, 66, 0
2, 77159, Note_on_c, 0, 75, 0
2, 77280, Note_on_c, 0, 59, 80
2, 77280, Note_on_c, 0, 71, 80
2, 77399, Note_on_c, 0, 59, 0
2, 77399, Note_on_c, 0, 71, 0
2, 77520, Note_on_c, 0, 69, 80
2, 77520, Note_on_c, 0, 66, 80
2, 77520, Note_on_c, 0, 75, 80
2, 77639, Note_on_c, 0, 69, 0
2, 77639, Note_on_c, 0, 66, 0
2, 77639, Note_on_c, 0, 75, 0
2, 77760, Note_on_c, 0, 57, 80
2, 77999, Note_on_c, 0, 57, 0
2, 78000, Note_on_c, 0, 51, 80
2, 78239, Note_on_c, 0, 51, 0
2, 78240, Note_on_c, 0, 52, 80
2, 78479, Note_on_c, 0, 52, 0
2, 78480, Note_on_c, 0, 57, 80
2, 78719, Note_on_c, 0, 57, 0
2, 78720, Note_on_c, 0, 59, 80
2, 78959, Note_on_c, 0, 59, 0
2, 78960, Note_on_c, 0, 47, 80
2, 79199, Note_on_c, 0, 47, 0
2, 79200, Note_on_c, 0, 52, 80
2, 79439, Note_on_c, 0, 52, 0
2, 79440, Note_on_c, 0, 69, 80
2, 79440, Note_on_c, 0, 66, 80
2, 79440, Note_on_c, 0, 75, 80
2, 79559, Note_on_c, 0, 69, 0
2, 79559, Note_on_c, 0, 66, 0
2, 79559, Note_on_c, 0, 75, 0
2, 79680, Note_on_c, 0, 66, 80
2, 79680, Note_on_c, 0, 63, 80
2, 79680, Note_on_c, 0, 71, 80
2, 79799, Note_on_c, 0, 66, 0
2, 79799, Note_on_c, 0, 63, 0
2, 79799, Note_on_c, 0, 71, 0
2, 79920, Note_on_c, 0, 66, 80
2, 79920, Note_on_c, 0, 63, 80
2, 79920, Note_on_c, 0, 71, 80
2, 80039, Note_on_c, 0, 66, 0
2, 80039, Note_on_c, 0, 63, 0
2, 80039, Note_on_c, 0, 71, 0
2, 80160, Note_on_c, 0, 63, 80
2, 80160, Note_on_c, 0, 57, 80
2, 80160, Note_on_c, 0, 66, 80
2, 80279, Note_on_c, 0, 63, 0
2, 80279, Note_on_c, 0, 57, 0
2, 80279, Note_on_c, 0, 66, 0
2, 80400, Note_on_c, 0, 63, 80
2, 80400, Note_on_c, 0, 57, 80
2, 80400, Note_on_c, 0, 66, 80
2, 80519, Note_on_c, 0, 63, 0
2, 80519, Note_on_c, 0, 57, 0
2, 80519, Note_on_c, 0, 66, 0
2, 80640, Note_on_c, 0, 48, 80
2, 80879, Note_on_c, 0, 48, 0
2, 80880, Note_on_c, 0, 59, 80
2, 81119, Note_on_c, 0, 59, 0
2, 81120, Note_on_c, 0, 57, 80
2, 81359, Note_on_c, 0, 57, 0
2, 81360, Note_on_c, 0, 56, 80
2, 81599, Note_on_c, 0, 56, 0
2, 81600, Note_on_c, 0, 57, 80
2, 81839, Note_on_c, 0, 57, 0
2, 81840, Note_on_c, 0, 48, 80
2, 82079, Note_on_c, 0, 48, 0
2, 82080, Note_on_c, 0, 47, 80
2, 82319, Note_on_c, 0, 47, 0
2, 82320, Note_on_c, 0, 57, 80
2, 82559, Note_on_c, 0, 57, 0
2, 82560, Note_on_c, 0, 55, 80
2, 82799, Note_on_c, 0, 55, 0
2, 82800, Note_on_c, 0, 54, 80
2, 83039, Note_on_c, 0, 54, 0
2, 83040, Note_on_c, 0, 55, 80
2, 83279, Note_on_c, 0, 55, 0
2, 83280, Note_on_c, 0, 47, 80
2, 83519, Note_on_c, 0, 47, 0
2, 83520, Note_on_c, 0, 45, 80
2, 83599, Note_on_c, 0, 45, 0
2, 83600, Note_on_c, 0, 57, 80
2, 83679, Note_on_c, 0, 57, 0
2, 83920, Note_on_c, 0, 59, 80
2, 83999, Note_on_c, 0, 59, 0
2, 84000, Note_on_c, 0, 57, 80
2, 84079, Note_on_c, 0, 57, 0
2, 84080, Note_on_c, 0, 60, 80
2, 84159, Note_on_c, 0, 60, 0
2, 84400, Note_on_c, 0, 55, 80
2, 84479, Note_on_c, 0, 55, 0
2, 84480, Note_on_c, 0, 54, 80
2, 84559, Note_on_c, 0, 54, 0
2, 84560, Note_on_c, 0, 57, 80
2, 84639, Note_on_c, 0, 57, 0
2, 84880, Note_on_c, 0, 52, 80
2, 84959, Note_on_c, 0, 52, 0
2, 84960, Note_on_c, 0, 47, 80
2, 85039, Note_on_c, 0, 47, 0
2, 85040, Note_on_c, 0, 62, 80
2, 85119, Note_on_c, 0, 62, 0
2, 85360, Note_on_c, 0, 64, 80
2, 85439, Note_on_c, 0, 64, 0
2, 85440, Note_on_c, 0, 62, 80
2, 85519, Note_on_c, 0, 62, 0
2, 85520, Note_on_c, 0, 66, 80
2, 85599, Note_on_c, 0, 66, 0
2, 85840, Note_on_c, 0, 60, 80
2, 85919, Note_on_c, 0, 60, 0
2, 85920, Note_on_c, 0, 59, 80
2, 85999, Note_on_c, 0, 59, 0
2, 86000, Note_on_c, 0, 62, 80
2, 86079, Note_on_c, 0, 62, 0
2, 86320, Note_on_c, 0, 57, 80
2, 86399, Note_on_c, 0, 57, 0
2, 86400, Note_on_c, 0, 50, 80
2, 86479, Note_on_c, 0, 50, 0
2, 86480, Note_on_c, 0, 62, 80
2, 86559, Note_on_c, 0, 62, 0
2, 86800, Note_on_c, 0, 69, 80
2, 86879, Note_on_c, 0, 69, 0
2, 86880, Note_on_c, 0, 67, 80
2, 86959, Note_on_c, 0, 67, 0
2, 86960, Note_on_c, 0, 71, 80
2, 87039, Note_on_c, 0, 71, 0
2, 87280, Note_on_c, 0, 65, 80
2, 87359, Note_on_c, 0, 65, 0
2, 87360, Note_on_c, 0, 64, 80
2, 87439, Note_on_c, 0, 64, 0
2, 87440, Note_on_c, 0, 67, 80
2, 87519, Note_on_c, 0, 67, 0
2, 87760, Note_on_c, 0, 62, 80
2, 87839, Note_on_c, 0, 62, 0
2, 87840, Note_on_c, 0, 60, 80
2, 87919, Note_on_c, 0, 60, 0
2, 87920, Note_on_c, 0, 72, 80
2, 87999, Note_on_c, 0, 72, 0
2, 88240, Note_on_c, 0, 74, 80
2, 88319, Note_on_c, 0, 74, 0
2, 88320, Note_on_c, 0, 72, 80
2, 88399, Note_on_c, 0, 72, 0
2, 88400, Note_on_c, 0, 76, 80
2, 88479, Note_on_c, 0, 76, 0
2, 88720, Note_on_c, 0, 71, 80
2, 88799, Note_on_c, 0, 71, 0
2, 88800, Note_on_c, 0, 69, 80
2, 88879, Note_on_c, 0, 69, 0
2, 88880, Note_on_c, 0, 72, 80
2, 88959, Note_on_c, 0, 72, 0
2, 89200, Note_on_c, 0, 67, 80
2, 89279, Note_on_c, 0, 67, 0
2, 89280, Note_on_c, 0, 66, 80
2, 89519, Note_on_c, 0, 66, 0
2, 89520, Note_on_c, 0, 57, 80
2, 89759, Note_on_c, 0, 57, 0
2, 89760, Note_on_c, 0, 59, 80
2, 89999, Note_on_c, 0, 59, 0
2, 90000, Note_on_c, 0, 60, 80
2, 90239, Note_on_c, 0, 60, 0
2, 90240, Note_on_c, 0, 62, 80
2, 90479, Note_on_c, 0, 62, 0
2, 90480, Note_on_c, 0, 50, 80
2, 90719, Note_on_c, 0, 50, 0
2, 90720, Note_on_c, 0, 55, 80
2, 90959, Note_on_c, 0, 55, 0
2, 90960, Note_on_c, 0, 43, 80
2, 91199, Note_on_c, 0, 43, 0
2, 91200, Note_on_c, 0, 72, 80
2, 91200, Note_on_c, 0, 69, 80
2, 91200, Note_on_c, 0, 78, 80
2, 91319, Note_on_c, 0, 72, 0
2, 91319, Note_on_c, 0, 69, 0
2, 91319, Note_on_c, 0, 78, 0
2, 91440, Note_on_c, 0, 72, 80
2, 91440, Note_on_c, 0, 69, 80
2, 91440, Note_on_c, 0, 78, 80
2, 91559, Note_on_c, 0, 72, 0
2, 91559, Note_on_c, 0, 69, 0
2, 91559, Note_on_c, 0, 78, 0
2, 91680, Note_on_c, 0, 55, 80
2, 92159, Note_on_c, 0, 55, 0
2, 92160, End_track
0, 0, End_of_file
