0, 0, Header, 1, 2, 480
1, 0, Start_track
1, 0, Unknown_meta_event, 8, 34, 71, 111, 108, 100, 98, 101, 114, 103, 32, 86, 97, 114, 105, 97, 116, 105, 111, 110, 115, 32, 58, 32, 86, 97, 114, 105, 97, 116, 105, 111, 110, 32, 73, 0
1, 0, Unknown_meta_event, 9, 8, 66, 87, 86, 32, 57, 56, 56, 0
1, 0, Unknown_meta_event, 10, 11, 74, 46, 32, 83, 46, 32, 66, 97, 99, 104, 0
1, 0, Time_signature, 3, 2, 24, 8
1, 0, Key_signature, 1, "major"
1, 0, Program_c, 0, 46
1, 0, Note_on_c, 0, 67, 80
1, 2, Control_c, 0, 7, 100
1, 4, Control_c, 0, 10, 64
1, 6, Control_c, 0, 91, 30
1, 8, Control_c, 0, 93, 30
1, 119, Note_on_c, 0, 67, 0
1, 120, Note_on_c, 0, 66, 80
1, 239, Note_on_c, 0, 66, 0
1, 240, Note_on_c, 0, 67, 80
1, 599, Note_on_c, 0, 67, 0
1, 600, Note_on_c, 0, 62, 80
1, 719, Note_on_c, 0, 62, 0
1, 720, Note_on_c, 0, 64, 80
1, 839, Note_on_c, 0, 64, 0
1, 840, Note_on_c, 0, 66, 80
1, 959, Note_on_c, 0, 66, 0
1, 960, Note_on_c, 0, 67, 80
1, 1079, Note_on_c, 0, 67, 0
1, 1080, Note_on_c, 0, 69, 80
1, 1199, Note_on_c, 0, 69, 0
1, 1200, Note_on_c, 0, 71, 80
1, 1319, Note_on_c, 0, 71, 0
1, 1320, Note_on_c, 0, 73, 80
1, 1439, Note_on_c, 0, 73, 0
1, 1440, Note_on_c, 0, 74, 80
1, 1559, Note_on_c, 0, 74, 0
1, 1560, Note_on_c, 0, 73, 80
1, 1679, Note_on_c, 0, 73, 0
1, 1680, Note_on_c, 0, 74, 80
1, 2039, Note_on_c, 0, 74, 0
1, 2040, Note_on_c, 0, 69, 80
1, 2159, Note_on_c, 0, 69, 0
1, 2160, Note_on_c, 0, 71, 80
1, 2279, Note_on_c, 0, 71, 0
1, 2280, Note_on_c, 0, 73, 80
1, 2399, Note_on_c, 0, 73, 0
1, 2400, Note_on_c, 0, 74, 80
1, 2519, Note_on_c, 0, 74, 0
1, 2520, Note_on_c, 0, 76, 80
1, 2639, Note_on_c, 0, 76, 0
1, 2640, Note_on_c, 0, 78, 80
1, 2759, Note_on_c, 0, 78, 0
1, 2760, Note_on_c, 0, 74, 80
1, 2879, Note_on_c, 0, 74, 0
1, 2880, Note_on_c, 0, 79, 80
1, 2999, Note_on_c, 0, 79, 0
1, 3000, Note_on_c, 0, 78, 80
1, 3119, Note_on_c, 0, 78, 0
1, 3120, Note_on_c, 0, 79, 80
1, 3479, Note_on_c, 0, 79, 0
1, 3480, Note_on_c, 0, 78, 80
1, 3599, Note_on_c, 0, 78, 0
1, 3600, Note_on_c, 0, 76, 80
1, 3719, Note_on_c, 0, 76, 0
1, 3720, Note_on_c, 0, 74, 80
1, 3839, Note_on_c, 0, 74, 0
1, 3840, Note_on_c, 0, 73, 80
1, 3959, Note_on_c, 0, 73, 0
1, 3960, Note_on_c, 0, 76, 80
1, 4079, Note_on_c, 0, 76, 0
1, 4080, Note_on_c, 0, 69, 80
1, 4199, Note_on_c, 0, 69, 0
1, 4200, Note_on_c, 0, 67, 80
1, 4319, Note_on_c, 0, 67, 0
1, 4320, Note_on_c, 0, 66, 80
1, 4439, Note_on_c, 0, 66, 0
1, 4440, Note_on_c, 0, 64, 80
1, 4559, Note_on_c, 0, 64, 0
1, 4560, Note_on_c, 0, 62, 80
1, 4679, Note_on_c, 0, 62, 0
1, 4680, Note_on_c, 0, 61, 80
1, 4799, Note_on_c, 0, 61, 0
1, 4800, Note_on_c, 0, 62, 80
1, 4919, Note_on_c, 0, 62, 0
1, 4920, Note_on_c, 0, 66, 80
1, 5039, Note_on_c, 0, 66, 0
1, 5040, Note_on_c, 0, 57, 80
1, 5159, Note_on_c, 0, 57, 0
1, 5160, Note_on_c, 0, 55, 80
1, 5279, Note_on_c, 0, 55, 0
1, 5280, Note_on_c, 0, 54, 80
1, 5399, Note_on_c, 0, 54, 0
1, 5400, Note_on_c, 0, 57, 80
1, 5519, Note_on_c, 0, 57, 0
1, 5520, Note_on_c, 0, 54, 80
1, 5759, Note_on_c, 0, 54, 0
1, 6000, Note_on_c, 0, 74, 80
1, 6119, Note_on_c, 0, 74, 0
1, 6120, Note_on_c, 0, 72, 80
1, 6239, Note_on_c, 0, 72, 0
1, 6240, Note_on_c, 0, 74, 80
1, 6479, Note_on_c, 0, 74, 0
1, 6480, Note_on_c, 0, 67, 80
1, 6719, Note_on_c, 0, 67, 0
1, 6720, Note_on_c, 0, 59, 80
1, 6959, Note_on_c, 0, 59, 0
1, 6960, Note_on_c, 0, 74, 80
1, 7199, Note_on_c, 0, 74, 0
1, 7440, Note_on_c, 0, 76, 80
1, 7559, Note_on_c, 0, 76, 0
1, 7560, Note_on_c, 0, 74, 80
1, 7679, Note_on_c, 0, 74, 0
1, 7680, Note_on_c, 0, 76, 80
1, 7919, Note_on_c, 0, 76, 0
1, 7920, Note_on_c, 0, 69, 80
1, 8159, Note_on_c, 0, 69, 0
1, 8160, Note_on_c, 0, 60, 80
1, 8399, Note_on_c, 0, 60, 0
1, 8400, Note_on_c, 0, 76, 80
1, 8639, Note_on_c, 0, 76, 0
1, 8880, Note_on_c, 0, 78, 80
1, 8999, Note_on_c, 0, 78, 0
1, 9000, Note_on_c, 0, 76, 80
1, 9119, Note_on_c, 0, 76, 0
1, 9120, Note_on_c, 0, 78, 80
1, 9359, Note_on_c, 0, 78, 0
1, 9360, Note_on_c, 0, 74, 80
1, 9599, Note_on_c, 0, 74, 0
1, 9600, Note_on_c, 0, 81, 80
1, 9839, Note_on_c, 0, 81, 0
1, 9840, Note_on_c, 0, 72, 80
1, 10319, Note_on_c, 0, 72, 0
1, 10320, Note_on_c, 0, 71, 80
1, 10559, Note_on_c, 0, 71, 0
1, 10680, Note_on_c, 0, 67, 80
1, 10799, Note_on_c, 0, 67, 0
1, 10800, Note_on_c, 0, 71, 80
1, 10919, Note_on_c, 0, 71, 0
1, 10920, Note_on_c, 0, 74, 80
1, 11039, Note_on_c, 0, 74, 0
1, 11040, Note_on_c, 0, 79, 80
1, 11159, Note_on_c, 0, 79, 0
1, 11160, Note_on_c, 0, 74, 80
1, 11279, Note_on_c, 0, 74, 0
1, 11280, Note_on_c, 0, 79, 80
1, 11399, Note_on_c, 0, 79, 0
1, 11400, Note_on_c, 0, 81, 80
1, 11519, Note_on_c, 0, 81, 0
1, 11520, Note_on_c, 0, 83, 80
1, 11639, Note_on_c, 0, 83, 0
1, 11640, Note_on_c, 0, 79, 80
1, 11759, Note_on_c, 0, 79, 0
1, 11760, Note_on_c, 0, 74, 80
1, 11879, Note_on_c, 0, 74, 0
1, 11880, Note_on_c, 0, 71, 80
1, 11999, Note_on_c, 0, 71, 0
1, 12000, Note_on_c, 0, 67, 80
1, 12119, Note_on_c, 0, 67, 0
1, 12120, Note_on_c, 0, 71, 80
1, 12239, Note_on_c, 0, 71, 0
1, 12240, Note_on_c, 0, 74, 80
1, 12359, Note_on_c, 0, 74, 0
1, 12360, Note_on_c, 0, 79, 80
1, 12479, Note_on_c, 0, 79, 0
1, 12480, Note_on_c, 0, 83, 80
1, 12599, Note_on_c, 0, 83, 0
1, 12600, Note_on_c, 0, 79, 80
1, 12719, Note_on_c, 0, 79, 0
1, 12720, Note_on_c, 0, 78, 80
1, 12839, Note_on_c, 0, 78, 0
1, 12840, Note_on_c, 0, 76, 80
1, 12959, Note_on_c, 0, 76, 0
1, 12960, Note_on_c, 0, 81, 80
1, 13079, Note_on_c, 0, 81, 0
1, 13080, Note_on_c, 0, 76, 80
1, 13199, Note_on_c, 0, 76, 0
1, 13200, Note_on_c, 0, 73, 80
1, 13319, Note_on_c, 0, 73, 0
1, 13320, Note_on_c, 0, 69, 80
1, 13439, Note_on_c, 0, 69, 0
1, 13440, Note_on_c, 0, 66, 80
1, 13559, Note_on_c, 0, 66, 0
1, 13560, Note_on_c, 0, 69, 80
1, 13679, Note_on_c, 0, 69, 0
1, 13680, Note_on_c, 0, 73, 80
1, 13799, Note_on_c, 0, 73, 0
1, 13800, Note_on_c, 0, 76, 80
1, 13919, Note_on_c, 0, 76, 0
1, 13920, Note_on_c, 0, 81, 80
1, 14039, Note_on_c, 0, 81, 0
1, 14040, Note_on_c, 0, 78, 80
1, 14159, Note_on_c, 0, 78, 0
1, 14160, Note_on_c, 0, 76, 80
1, 14279, Note_on_c, 0, 76, 0
1, 14280, Note_on_c, 0, 74, 80
1, 14399, Note_on_c, 0, 74, 0
1, 14400, Note_on_c, 0, 79, 80
1, 14519, Note_on_c, 0, 79, 0
1, 14520, Note_on_c, 0, 74, 80
1, 14639, Note_on_c, 0, 74, 0
1, 14640, Note_on_c, 0, 71, 80
1, 14759, Note_on_c, 0, 71, 0
1, 14760, Note_on_c, 0, 67, 80
1, 14879, Note_on_c, 0, 67, 0
1, 14880, Note_on_c, 0, 64, 80
1, 14999, Note_on_c, 0, 64, 0
1, 15000, Note_on_c, 0, 67, 80
1, 15119, Note_on_c, 0, 67, 0
1, 15120, Note_on_c, 0, 71, 80
1, 15239, Note_on_c, 0, 71, 0
1, 15240, Note_on_c, 0, 74, 80
1, 15359, Note_on_c, 0, 74, 0
1, 15360, Note_on_c, 0, 79, 80
1, 15479, Note_on_c, 0, 79, 0
1, 15480, Note_on_c, 0, 78, 80
1, 15599, Note_on_c, 0, 78, 0
1, 15600, Note_on_c, 0, 76, 80
1, 15719, Note_on_c, 0, 76, 0
1, 15720, Note_on_c, 0, 74, 80
1, 15839, Note_on_c, 0, 74, 0
1, 15840, Note_on_c, 0, 73, 80
1, 15959, Note_on_c, 0, 73, 0
1, 15960, Note_on_c, 0, 67, 80
1, 16079, Note_on_c, 0, 67, 0
1, 16080, Note_on_c, 0, 64, 80
1, 16199, Note_on_c, 0, 64, 0
1, 16200, Note_on_c, 0, 61, 80
1, 16319, Note_on_c, 0, 61, 0
1, 16320, Note_on_c, 0, 57, 80
1, 16439, Note_on_c, 0, 57, 0
1, 16440, Note_on_c, 0, 61, 80
1, 16559, Note_on_c, 0, 61, 0
1, 16560, Note_on_c, 0, 64, 80
1, 16679, Note_on_c, 0, 64, 0
1, 16680, Note_on_c, 0, 67, 80
1, 16799, Note_on_c, 0, 67, 0
1, 16800, Note_on_c, 0, 73, 80
1, 16919, Note_on_c, 0, 73, 0
1, 16920, Note_on_c, 0, 76, 80
1, 17039, Note_on_c, 0, 76, 0
1, 17040, Note_on_c, 0, 74, 80
1, 17159, Note_on_c, 0, 74, 0
1, 17160, Note_on_c, 0, 73, 80
1, 17279, Note_on_c, 0, 73, 0
1, 17280, Note_on_c, 0, 74, 80
1, 17519, Note_on_c, 0, 74, 0
1, 17520, Note_on_c, 0, 54, 80
1, 17759, Note_on_c, 0, 54, 0
1, 17760, Note_on_c, 0, 54, 80
1, 17999, Note_on_c, 0, 54, 0
1, 18000, Note_on_c, 0, 69, 80
1, 18239, Note_on_c, 0, 69, 0
1, 18240, Note_on_c, 0, 74, 80
1, 18479, Note_on_c, 0, 74, 0
1, 18480, Note_on_c, 0, 78, 80
1, 18719, Note_on_c, 0, 78, 0
1, 18720, Note_on_c, 0, 71, 80
1, 18959, Note_on_c, 0, 71, 0
1, 18960, Note_on_c, 0, 55, 80
1, 19199, Note_on_c, 0, 55, 0
1, 19200, Note_on_c, 0, 55, 80
1, 19439, Note_on_c, 0, 55, 0
1, 19440, Note_on_c, 0, 71, 80
1, 19679, Note_on_c, 0, 71, 0
1, 19680, Note_on_c, 0, 76, 80
1, 19919, Note_on_c, 0, 76, 0
1, 19920, Note_on_c, 0, 79, 80
1, 20159, Note_on_c, 0, 79, 0
1, 20160, Note_on_c, 0, 73, 80
1, 20279, Note_on_c, 0, 73, 0
1, 20280, Note_on_c, 0, 76, 80
1, 20399, Note_on_c, 0, 76, 0
1, 20400, Note_on_c, 0, 69, 80
1, 20519, Note_on_c, 0, 69, 0
1, 20520, Note_on_c, 0, 67, 80
1, 20639, Note_on_c, 0, 67, 0
1, 20640, Note_on_c, 0, 66, 80
1, 20759, Note_on_c, 0, 66, 0
1, 20760, Note_on_c, 0, 69, 80
1, 20879, Note_on_c, 0, 69, 0
1, 20880, Note_on_c, 0, 74, 80
1, 20999, Note_on_c, 0, 74, 0
1, 21000, Note_on_c, 0, 78, 80
1, 21119, Note_on_c, 0, 78, 0
1, 21120, Note_on_c, 0, 79, 80
1, 21239, Note_on_c, 0, 79, 0
1, 21240, Note_on_c, 0, 76, 80
1, 21359, Note_on_c, 0, 76, 0
1, 21360, Note_on_c, 0, 74, 80
1, 21479, Note_on_c, 0, 74, 0
1, 21480, Note_on_c, 0, 73, 80
1, 21599, Note_on_c, 0, 73, 0
1, 21600, Note_on_c, 0, 78, 80
1, 21719, Note_on_c, 0, 78, 0
1, 21720, Note_on_c, 0, 74, 80
1, 21839, Note_on_c, 0, 74, 0
1, 21840, Note_on_c, 0, 73, 80
1, 21959, Note_on_c, 0, 73, 0
1, 21960, Note_on_c, 0, 71, 80
1, 22079, Note_on_c, 0, 71, 0
1, 22080, Note_on_c, 0, 69, 80
1, 22199, Note_on_c, 0, 69, 0
1, 22200, Note_on_c, 0, 67, 80
1, 22319, Note_on_c, 0, 67, 0
1, 22320, Note_on_c, 0, 66, 80
1, 22439, Note_on_c, 0, 66, 0
1, 22440, Note_on_c, 0, 64, 80
1, 22559, Note_on_c, 0, 64, 0
1, 22560, Note_on_c, 0, 62, 80
1, 23039, Note_on_c, 0, 62, 0
1, 23040, Note_on_c, 0, 67, 80
1, 23159, Note_on_c, 0, 67, 0
1, 23160, Note_on_c, 0, 66, 80
1, 23279, Note_on_c, 0, 66, 0
1, 23280, Note_on_c, 0, 67, 80
1, 23639, Note_on_c, 0, 67, 0
1, 23640, Note_on_c, 0, 62, 80
1, 23759, Note_on_c, 0, 62, 0
1, 23760, Note_on_c, 0, 64, 80
1, 23879, Note_on_c, 0, 64, 0
1, 23880, Note_on_c, 0, 66, 80
1, 23999, Note_on_c, 0, 66, 0
1, 24000, Note_on_c, 0, 67, 80
1, 24119, Note_on_c, 0, 67, 0
1, 24120, Note_on_c, 0, 69, 80
1, 24239, Note_on_c, 0, 69, 0
1, 24240, Note_on_c, 0, 71, 80
1, 24359, Note_on_c, 0, 71, 0
1, 24360, Note_on_c, 0, 73, 80
1, 24479, Note_on_c, 0, 73, 0
1, 24480, Note_on_c, 0, 74, 80
1, 24599, Note_on_c, 0, 74, 0
1, 24600, Note_on_c, 0, 73, 80
1, 24719, Note_on_c, 0, 73, 0
1, 24720, Note_on_c, 0, 74, 80
1, 25079, Note_on_c, 0, 74, 0
1, 25080, Note_on_c, 0, 69, 80
1, 25199, Note_on_c, 0, 69, 0
1, 25200, Note_on_c, 0, 71, 80
1, 25319, Note_on_c, 0, 71, 0
1, 25320, Note_on_c, 0, 73, 80
1, 25439, Note_on_c, 0, 73, 0
1, 25440, Note_on_c, 0, 74, 80
1, 25559, Note_on_c, 0, 74, 0
1, 25560, Note_on_c, 0, 76, 80
1, 25679, Note_on_c, 0, 76, 0
1, 25680, Note_on_c, 0, 78, 80
1, 25799, Note_on_c, 0, 78, 0
1, 25800, Note_on_c, 0, 74, 80
1, 25919, Note_on_c, 0, 74, 0
1, 25920, Note_on_c, 0, 79, 80
1, 26039, Note_on_c, 0, 79, 0
1, 26040, Note_on_c, 0, 78, 80
1, 26159, Note_on_c, 0, 78, 0
1, 26160, Note_on_c, 0, 79, 80
1, 26519, Note_on_c, 0, 79, 0
1, 26520, Note_on_c, 0, 78, 80
1, 26639, Note_on_c, 0, 78, 0
1, 26640, Note_on_c, 0, 76, 80
1, 26759, Note_on_c, 0, 76, 0
1, 26760, Note_on_c, 0, 74, 80
1, 26879, Note_on_c, 0, 74, 0
1, 26880, Note_on_c, 0, 73, 80
1, 26999, Note_on_c, 0, 73, 0
1, 27000, Note_on_c, 0, 76, 80
1, 27119, Note_on_c, 0, 76, 0
1, 27120, Note_on_c, 0, 69, 80
1, 27239, Note_on_c, 0, 69, 0
1, 27240, Note_on_c, 0, 67, 80
1, 27359, Note_on_c, 0, 67, 0
1, 27360, Note_on_c, 0, 66, 80
1, 27479, Note_on_c, 0, 66, 0
1, 27480, Note_on_c, 0, 64, 80
1, 27599, Note_on_c, 0, 64, 0
1, 27600, Note_on_c, 0, 62, 80
1, 27719, Note_on_c, 0, 62, 0
1, 27720, Note_on_c, 0, 61, 80
1, 27839, Note_on_c, 0, 61, 0
1, 27840, Note_on_c, 0, 62, 80
1, 27959, Note_on_c, 0, 62, 0
1, 27960, Note_on_c, 0, 66, 80
1, 28079, Note_on_c, 0, 66, 0
1, 28080, Note_on_c, 0, 57, 80
1, 28199, Note_on_c, 0, 57, 0
1, 28200, Note_on_c, 0, 55, 80
1, 28319, Note_on_c, 0, 55, 0
1, 28320, Note_on_c, 0, 54, 80
1, 28439, Note_on_c, 0, 54, 0
1, 28440, Note_on_c, 0, 57, 80
1, 28559, Note_on_c, 0, 57, 0
1, 28560, Note_on_c, 0, 54, 80
1, 28799, Note_on_c, 0, 54, 0
1, 29040, Note_on_c, 0, 74, 80
1, 29159, Note_on_c, 0, 74, 0
1, 29160, Note_on_c, 0, 72, 80
1, 29279, Note_on_c, 0, 72, 0
1, 29280, Note_on_c, 0, 74, 80
1, 29519, Note_on_c, 0, 74, 0
1, 29520, Note_on_c, 0, 67, 80
1, 29759, Note_on_c, 0, 67, 0
1, 29760, Note_on_c, 0, 59, 80
1, 29999, Note_on_c, 0, 59, 0
1, 30000, Note_on_c, 0, 74, 80
1, 30239, Note_on_c, 0, 74, 0
1, 30480, Note_on_c, 0, 76, 80
1, 30599, Note_on_c, 0, 76, 0
1, 30600, Note_on_c, 0, 74, 80
1, 30719, Note_on_c, 0, 74, 0
1, 30720, Note_on_c, 0, 76, 80
1, 30959, Note_on_c, 0, 76, 0
1, 30960, Note_on_c, 0, 69, 80
1, 31199, Note_on_c, 0, 69, 0
1, 31200, Note_on_c, 0, 60, 80
1, 31439, Note_on_c, 0, 60, 0
1, 31440, Note_on_c, 0, 76, 80
1, 31679, Note_on_c, 0, 76, 0
1, 31920, Note_on_c, 0, 78, 80
1, 32039, Note_on_c, 0, 78, 0
1, 32040, Note_on_c, 0, 76, 80
1, 32159, Note_on_c, 0, 76, 0
1, 32160, Note_on_c, 0, 78, 80
1, 32399, Note_on_c, 0, 78, 0
1, 32400, Note_on_c, 0, 74, 80
1, 32639, Note_on_c, 0, 74, 0
1, 32640, Note_on_c, 0, 81, 80
1, 32879, Note_on_c, 0, 81, 0
1, 32880, Note_on_c, 0, 72, 80
1, 33359, Note_on_c, 0, 72, 0
1, 33360, Note_on_c, 0, 71, 80
1, 33599, Note_on_c, 0, 71, 0
1, 33720, Note_on_c, 0, 67, 80
1, 33839, Note_on_c, 0, 67, 0
1, 33840, Note_on_c, 0, 71, 80
1, 33959, Note_on_c, 0, 71, 0
1, 33960, Note_on_c, 0, 74, 80
1, 34079, Note_on_c, 0, 74, 0
1, 34080, Note_on_c, 0, 79, 80
1, 34199, Note_on_c, 0, 79, 0
1, 34200, Note_on_c, 0, 74, 80
1, 34319, Note_on_c, 0, 74, 0
1, 34320, Note_on_c, 0, 79, 80
1, 34439, Note_on_c, 0, 79, 0
1, 34440, Note_on_c, 0, 81, 80
1, 34559, Note_on_c, 0, 81, 0
1, 34560, Note_on_c, 0, 83, 80
1, 34679, Note_on_c, 0, 83, 0
1, 34680, Note_on_c, 0, 79, 80
1, 34799, Note_on_c, 0, 79, 0
1, 34800, Note_on_c, 0, 74, 80
1, 34919, Note_on_c, 0, 74, 0
1, 34920, Note_on_c, 0, 71, 80
1, 35039, Note_on_c, 0, 71, 0
1, 35040, Note_on_c, 0, 67, 80
1, 35159, Note_on_c, 0, 67, 0
1, 35160, Note_on_c, 0, 71, 80
1, 35279, Note_on_c, 0, 71, 0
1, 35280, Note_on_c, 0, 74, 80
1, 35399, Note_on_c, 0, 74, 0
1, 35400, Note_on_c, 0, 79, 80
1, 35519, Note_on_c, 0, 79, 0
1, 35520, Note_on_c, 0, 83, 80
1, 35639, Note_on_c, 0, 83, 0
1, 35640, Note_on_c, 0, 79, 80
1, 35759, Note_on_c, 0, 79, 0
1, 35760, Note_on_c, 0, 78, 80
1, 35879, Note_on_c, 0, 78, 0
1, 35880, Note_on_c, 0, 76, 80
1, 35999, Note_on_c, 0, 76, 0
1, 36000, Note_on_c, 0, 81, 80
1, 36119, Note_on_c, 0, 81, 0
1, 36120, Note_on_c, 0, 76, 80
1, 36239, Note_on_c, 0, 76, 0
1, 36240, Note_on_c, 0, 73, 80
1, 36359, Note_on_c, 0, 73, 0
1, 36360, Note_on_c, 0, 69, 80
1, 36479, Note_on_c, 0, 69, 0
1, 36480, Note_on_c, 0, 66, 80
1, 36599, Note_on_c, 0, 66, 0
1, 36600, Note_on_c, 0, 69, 80
1, 36719, Note_on_c, 0, 69, 0
1, 36720, Note_on_c, 0, 73, 80
1, 36839, Note_on_c, 0, 73, 0
1, 36840, Note_on_c, 0, 76, 80
1, 36959, Note_on_c, 0, 76, 0
1, 36960, Note_on_c, 0, 81, 80
1, 37079, Note_on_c, 0, 81, 0
1, 37080, Note_on_c, 0, 78, 80
1, 37199, Note_on_c, 0, 78, 0
1, 37200, Note_on_c, 0, 76, 80
1, 37319, Note_on_c, 0, 76, 0
1, 37320, Note_on_c, 0, 74, 80
1, 37439, Note_on_c, 0, 74, 0
1, 37440, Note_on_c, 0, 79, 80
1, 37559, Note_on_c, 0, 79, 0
1, 37560, Note_on_c, 0, 74, 80
1, 37679, Note_on_c, 0, 74, 0
1, 37680, Note_on_c, 0, 71, 80
1, 37799, Note_on_c, 0, 71, 0
1, 37800, Note_on_c, 0, 67, 80
1, 37919, Note_on_c, 0, 67, 0
1, 37920, Note_on_c, 0, 64, 80
1, 38039, Note_on_c, 0, 64, 0
1, 38040, Note_on_c, 0, 67, 80
1, 38159, Note_on_c, 0, 67, 0
1, 38160, Note_on_c, 0, 71, 80
1, 38279, Note_on_c, 0, 71, 0
1, 38280, Note_on_c, 0, 74, 80
1, 38399, Note_on_c, 0, 74, 0
1, 38400, Note_on_c, 0, 79, 80
1, 38519, Note_on_c, 0, 79, 0
1, 38520, Note_on_c, 0, 78, 80
1, 38639, Note_on_c, 0, 78, 0
1, 38640, Note_on_c, 0, 76, 80
1, 38759, Note_on_c, 0, 76, 0
1, 38760, Note_on_c, 0, 74, 80
1, 38879, Note_on_c, 0, 74, 0
1, 38880, Note_on_c, 0, 73, 80
1, 38999, Note_on_c, 0, 73, 0
1, 39000, Note_on_c, 0, 67, 80
1, 39119, Note_on_c, 0, 67, 0
1, 39120, Note_on_c, 0, 64, 80
1, 39239, Note_on_c, 0, 64, 0
1, 39240, Note_on_c, 0, 61, 80
1, 39359, Note_on_c, 0, 61, 0
1, 39360, Note_on_c, 0, 57, 80
1, 39479, Note_on_c, 0, 57, 0
1, 39480, Note_on_c, 0, 61, 80
1, 39599, Note_on_c, 0, 61, 0
1, 39600, Note_on_c, 0, 64, 80
1, 39719, Note_on_c, 0, 64, 0
1, 39720, Note_on_c, 0, 67, 80
1, 39839, Note_on_c, 0, 67, 0
1, 39840, Note_on_c, 0, 73, 80
1, 39959, Note_on_c, 0, 73, 0
1, 39960, Note_on_c, 0, 76, 80
1, 40079, Note_on_c, 0, 76, 0
1, 40080, Note_on_c, 0, 74, 80
1, 40199, Note_on_c, 0, 74, 0
1, 40200, Note_on_c, 0, 73, 80
1, 40319, Note_on_c, 0, 73, 0
1, 40320, Note_on_c, 0, 74, 80
1, 40559, Note_on_c, 0, 74, 0
1, 40560, Note_on_c, 0, 54, 80
1, 40799, Note_on_c, 0, 54, 0
1, 40800, Note_on_c, 0, 54, 80
1, 41039, Note_on_c, 0, 54, 0
1, 41040, Note_on_c, 0, 69, 80
1, 41279, Note_on_c, 0, 69, 0
1, 41280, Note_on_c, 0, 74, 80
1, 41519, Note_on_c, 0, 74, 0
1, 41520, Note_on_c, 0, 78, 80
1, 41759, Note_on_c, 0, 78, 0
1, 41760, Note_on_c, 0, 71, 80
1, 41999, Note_on_c, 0, 71, 0
1, 42000, Note_on_c, 0, 55, 80
1, 42239, Note_on_c, 0, 55, 0
1, 42240, Note_on_c, 0, 55, 80
1, 42479, Note_on_c, 0, 55, 0
1, 42480, Note_on_c, 0, 71, 80
1, 42719, Note_on_c, 0, 71, 0
1, 42720, Note_on_c, 0, 76, 80
1, 42959, Note_on_c, 0, 76, 0
1, 42960, Note_on_c, 0, 79, 80
1, 43199, Note_on_c, 0, 79, 0
1, 43200, Note_on_c, 0, 73, 80
1, 43319, Note_on_c, 0, 73, 0
1, 43320, Note_on_c, 0, 76, 80
1, 43439, Note_on_c, 0, 76, 0
1, 43440, Note_on_c, 0, 69, 80
1, 43559, Note_on_c, 0, 69, 0
1, 43560, Note_on_c, 0, 67, 80
1, 43679, Note_on_c, 0, 67, 0
1, 43680, Note_on_c, 0, 66, 80
1, 43799, Note_on_c, 0, 66, 0
1, 43800, Note_on_c, 0, 69, 80
1, 43919, Note_on_c, 0, 69, 0
1, 43920, Note_on_c, 0, 74, 80
1, 44039, Note_on_c, 0, 74, 0
1, 44040, Note_on_c, 0, 78, 80
1, 44159, Note_on_c, 0, 78, 0
1, 44160, Note_on_c, 0, 79, 80
1, 44279, Note_on_c, 0, 79, 0
1, 44280, Note_on_c, 0, 76, 80
1, 44399, Note_on_c, 0, 76, 0
1, 44400, Note_on_c, 0, 74, 80
1, 44519, Note_on_c, 0, 74, 0
1, 44520, Note_on_c, 0, 73, 80
1, 44639, Note_on_c, 0, 73, 0
1, 44640, Note_on_c, 0, 78, 80
1, 44759, Note_on_c, 0, 78, 0
1, 44760, Note_on_c, 0, 74, 80
1, 44879, Note_on_c, 0, 74, 0
1, 44880, Note_on_c, 0, 73, 80
1, 44999, Note_on_c, 0, 73, 0
1, 45000, Note_on_c, 0, 71, 80
1, 45119, Note_on_c, 0, 71, 0
1, 45120, Note_on_c, 0, 69, 80
1, 45239, Note_on_c, 0, 69, 0
1, 45240, Note_on_c, 0, 67, 80
1, 45359, Note_on_c, 0, 67, 0
1, 45360, Note_on_c, 0, 66, 80
1, 45479, Note_on_c, 0, 66, 0
1, 45480, Note_on_c, 0, 64, 80
1, 45599, Note_on_c, 0, 64, 0
1, 45600, Note_on_c, 0, 62, 80
1, 46079, Note_on_c, 0, 62, 0
1, 46080, Note_on_c, 0, 78, 80
1, 46199, Note_on_c, 0, 78, 0
1, 46200, Note_on_c, 0, 79, 80
1, 46319, Note_on_c, 0, 79, 0
1, 46320, Note_on_c, 0, 81, 80
1, 46679, Note_on_c, 0, 81, 0
1, 46680, Note_on_c, 0, 83, 80
1, 46799, Note_on_c, 0, 83, 0
1, 46800, Note_on_c, 0, 81, 80
1, 46919, Note_on_c, 0, 81, 0
1, 46920, Note_on_c, 0, 79, 80
1, 47039, Note_on_c, 0, 79, 0
1, 47040, Note_on_c, 0, 78, 80
1, 47159, Note_on_c, 0, 78, 0
1, 47160, Note_on_c, 0, 76, 80
1, 47279, Note_on_c, 0, 76, 0
1, 47280, Note_on_c, 0, 74, 80
1, 47399, Note_on_c, 0, 74, 0
1, 47400, Note_on_c, 0, 72, 80
1, 47519, Note_on_c, 0, 72, 0
1, 47520, Note_on_c, 0, 71, 80
1, 47639, Note_on_c, 0, 71, 0
1, 47640, Note_on_c, 0, 72, 80
1, 47759, Note_on_c, 0, 72, 0
1, 47760, Note_on_c, 0, 74, 80
1, 48119, Note_on_c, 0, 74, 0
1, 48120, Note_on_c, 0, 76, 80
1, 48239, Note_on_c, 0, 76, 0
1, 48240, Note_on_c, 0, 74, 80
1, 48359, Note_on_c, 0, 74, 0
1, 48360, Note_on_c, 0, 72, 80
1, 48479, Note_on_c, 0, 72, 0
1, 48480, Note_on_c, 0, 71, 80
1, 48599, Note_on_c, 0, 71, 0
1, 48600, Note_on_c, 0, 69, 80
1, 48719, Note_on_c, 0, 69, 0
1, 48720, Note_on_c, 0, 67, 80
1, 48839, Note_on_c, 0, 67, 0
1, 48840, Note_on_c, 0, 66, 80
1, 48959, Note_on_c, 0, 66, 0
1, 48960, Note_on_c, 0, 64, 80
1, 49079, Note_on_c, 0, 64, 0
1, 49080, Note_on_c, 0, 68, 80
1, 49199, Note_on_c, 0, 68, 0
1, 49200, Note_on_c, 0, 69, 80
1, 49319, Note_on_c, 0, 69, 0
1, 49320, Note_on_c, 0, 71, 80
1, 49439, Note_on_c, 0, 71, 0
1, 49440, Note_on_c, 0, 69, 80
1, 49559, Note_on_c, 0, 69, 0
1, 49560, Note_on_c, 0, 64, 80
1, 49679, Note_on_c, 0, 64, 0
1, 49680, Note_on_c, 0, 69, 80
1, 49799, Note_on_c, 0, 69, 0
1, 49800, Note_on_c, 0, 71, 80
1, 49919, Note_on_c, 0, 71, 0
1, 49920, Note_on_c, 0, 72, 80
1, 50039, Note_on_c, 0, 72, 0
1, 50040, Note_on_c, 0, 69, 80
1, 50159, Note_on_c, 0, 69, 0
1, 50160, Note_on_c, 0, 75, 80
1, 50279, Note_on_c, 0, 75, 0
1, 50280, Note_on_c, 0, 76, 80
1, 50399, Note_on_c, 0, 76, 0
1, 50400, Note_on_c, 0, 78, 80
1, 50519, Note_on_c, 0, 78, 0
1, 50520, Note_on_c, 0, 76, 80
1, 50639, Note_on_c, 0, 76, 0
1, 50640, Note_on_c, 0, 75, 80
1, 50759, Note_on_c, 0, 75, 0
1, 50760, Note_on_c, 0, 73, 80
1, 50879, Note_on_c, 0, 73, 0
1, 50880, Note_on_c, 0, 71, 80
1, 51959, Note_on_c, 0, 71, 0
1, 51960, Note_on_c, 0, 75, 80
1, 52079, Note_on_c, 0, 75, 0
1, 52080, Note_on_c, 0, 76, 80
1, 52439, Note_on_c, 0, 76, 0
1, 52440, Note_on_c, 0, 63, 80
1, 52559, Note_on_c, 0, 63, 0
1, 52560, Note_on_c, 0, 64, 80
1, 52919, Note_on_c, 0, 64, 0
1, 52920, Note_on_c, 0, 51, 80
1, 53039, Note_on_c, 0, 51, 0
1, 53040, Note_on_c, 0, 52, 80
1, 53279, Note_on_c, 0, 52, 0
1, 53400, Note_on_c, 0, 80, 80
1, 53519, Note_on_c, 0, 80, 0
1, 53520, Note_on_c, 0, 81, 80
1, 53879, Note_on_c, 0, 81, 0
1, 53880, Note_on_c, 0, 68, 80
1, 53999, Note_on_c, 0, 68, 0
1, 54000, Note_on_c, 0, 69, 80
1, 54359, Note_on_c, 0, 69, 0
1, 54360, Note_on_c, 0, 56, 80
1, 54479, Note_on_c, 0, 56, 0
1, 54480, Note_on_c, 0, 57, 80
1, 54839, Note_on_c, 0, 57, 0
1, 54840, Note_on_c, 0, 59, 80
1, 54959, Note_on_c, 0, 59, 0
1, 54960, Note_on_c, 0, 60, 80
1, 55079, Note_on_c, 0, 60, 0
1, 55080, Note_on_c, 0, 66, 80
1, 55199, Note_on_c, 0, 66, 0
1, 55200, Note_on_c, 0, 59, 80
1, 55319, Note_on_c, 0, 59, 0
1, 55320, Note_on_c, 0, 63, 80
1, 55439, Note_on_c, 0, 63, 0
1, 55440, Note_on_c, 0, 64, 80
1, 55559, Note_on_c, 0, 64, 0
1, 55560, Note_on_c, 0, 67, 80
1, 55679, Note_on_c, 0, 67, 0
1, 55680, Note_on_c, 0, 66, 80
1, 55799, Note_on_c, 0, 66, 0
1, 55800, Note_on_c, 0, 64, 80
1, 55919, Note_on_c, 0, 64, 0
1, 55920, Note_on_c, 0, 63, 80
1, 56039, Note_on_c, 0, 63, 0
1, 56040, Note_on_c, 0, 69, 80
1, 56159, Note_on_c, 0, 69, 0
1, 56160, Note_on_c, 0, 67, 80
1, 56279, Note_on_c, 0, 67, 0
1, 56280, Note_on_c, 0, 66, 80
1, 56399, Note_on_c, 0, 66, 0
1, 56400, Note_on_c, 0, 64, 80
1, 56519, Note_on_c, 0, 64, 0
1, 56520, Note_on_c, 0, 63, 80
1, 56639, Note_on_c, 0, 63, 0
1, 56640, Note_on_c, 0, 64, 80
1, 56759, Note_on_c, 0, 64, 0
1, 56760, Note_on_c, 0, 67, 80
1, 56879, Note_on_c, 0, 67, 0
1, 56880, Note_on_c, 0, 59, 80
1, 56999, Note_on_c, 0, 59, 0
1, 57000, Note_on_c, 0, 57, 80
1, 57119, Note_on_c, 0, 57, 0
1, 57120, Note_on_c, 0, 55, 80
1, 57239, Note_on_c, 0, 55, 0
1, 57240, Note_on_c, 0, 59, 80
1, 57359, Note_on_c, 0, 59, 0
1, 57360, Note_on_c, 0, 52, 80
1, 57599, Note_on_c, 0, 52, 0
1, 57840, Note_on_c, 0, 76, 80
1, 58079, Note_on_c, 0, 76, 0
1, 58080, Note_on_c, 0, 72, 80
1, 58319, Note_on_c, 0, 72, 0
1, 58320, Note_on_c, 0, 76, 80
1, 58559, Note_on_c, 0, 76, 0
1, 58560, Note_on_c, 0, 81, 80
1, 58799, Note_on_c, 0, 81, 0
1, 58800, Note_on_c, 0, 69, 80
1, 59039, Note_on_c, 0, 69, 0
1, 59280, Note_on_c, 0, 74, 80
1, 59519, Note_on_c, 0, 74, 0
1, 59520, Note_on_c, 0, 71, 80
1, 59759, Note_on_c, 0, 71, 0
1, 59760, Note_on_c, 0, 74, 80
1, 59999, Note_on_c, 0, 74, 0
1, 60000, Note_on_c, 0, 79, 80
1, 60239, Note_on_c, 0, 79, 0
1, 60240, Note_on_c, 0, 67, 80
1, 60479, Note_on_c, 0, 67, 0
1, 60480, Note_on_c, 0, 72, 80
1, 60599, Note_on_c, 0, 72, 0
1, 60600, Note_on_c, 0, 69, 80
1, 60719, Note_on_c, 0, 69, 0
1, 60720, Note_on_c, 0, 64, 80
1, 60839, Note_on_c, 0, 64, 0
1, 60840, Note_on_c, 0, 60, 80
1, 60959, Note_on_c, 0, 60, 0
1, 60960, Note_on_c, 0, 57, 80
1, 61079, Note_on_c, 0, 57, 0
1, 61080, Note_on_c, 0, 60, 80
1, 61199, Note_on_c, 0, 60, 0
1, 61200, Note_on_c, 0, 64, 80
1, 61319, Note_on_c, 0, 64, 0
1, 61320, Note_on_c, 0, 69, 80
1, 61439, Note_on_c, 0, 69, 0
1, 61440, Note_on_c, 0, 72, 80
1, 61559, Note_on_c, 0, 72, 0
1, 61560, Note_on_c, 0, 69, 80
1, 61679, Note_on_c, 0, 69, 0
1, 61680, Note_on_c, 0, 72, 80
1, 61799, Note_on_c, 0, 72, 0
1, 61800, Note_on_c, 0, 76, 80
1, 61919, Note_on_c, 0, 76, 0
1, 61920, Note_on_c, 0, 78, 80
1, 62039, Note_on_c, 0, 78, 0
1, 62040, Note_on_c, 0, 72, 80
1, 62159, Note_on_c, 0, 72, 0
1, 62160, Note_on_c, 0, 69, 80
1, 62279, Note_on_c, 0, 69, 0
1, 62280, Note_on_c, 0, 66, 80
1, 62399, Note_on_c, 0, 66, 0
1, 62400, Note_on_c, 0, 62, 80
1, 62519, Note_on_c, 0, 62, 0
1, 62520, Note_on_c, 0, 66, 80
1, 62639, Note_on_c, 0, 66, 0
1, 62640, Note_on_c, 0, 69, 80
1, 62759, Note_on_c, 0, 69, 0
1, 62760, Note_on_c, 0, 72, 80
1, 62879, Note_on_c, 0, 72, 0
1, 62880, Note_on_c, 0, 78, 80
1, 62999, Note_on_c, 0, 78, 0
1, 63000, Note_on_c, 0, 72, 80
1, 63119, Note_on_c, 0, 72, 0
1, 63120, Note_on_c, 0, 78, 80
1, 63239, Note_on_c, 0, 78, 0
1, 63240, Note_on_c, 0, 81, 80
1, 63359, Note_on_c, 0, 81, 0
1, 63360, Note_on_c, 0, 83, 80
1, 63479, Note_on_c, 0, 83, 0
1, 63480, Note_on_c, 0, 79, 80
1, 63599, Note_on_c, 0, 79, 0
1, 63600, Note_on_c, 0, 74, 80
1, 63719, Note_on_c, 0, 74, 0
1, 63720, Note_on_c, 0, 71, 80
1, 63839, Note_on_c, 0, 71, 0
1, 63840, Note_on_c, 0, 67, 80
1, 63959, Note_on_c, 0, 67, 0
1, 63960, Note_on_c, 0, 71, 80
1, 64079, Note_on_c, 0, 71, 0
1, 64080, Note_on_c, 0, 74, 80
1, 64199, Note_on_c, 0, 74, 0
1, 64200, Note_on_c, 0, 79, 80
1, 64319, Note_on_c, 0, 79, 0
1, 64320, Note_on_c, 0, 83, 80
1, 64439, Note_on_c, 0, 83, 0
1, 64440, Note_on_c, 0, 77, 80
1, 64559, Note_on_c, 0, 77, 0
1, 64560, Note_on_c, 0, 83, 80
1, 64679, Note_on_c, 0, 83, 0
1, 64680, Note_on_c, 0, 86, 80
1, 64799, Note_on_c, 0, 86, 0
1, 64800, Note_on_c, 0, 76, 80
1, 64919, Note_on_c, 0, 76, 0
1, 64920, Note_on_c, 0, 86, 80
1, 65039, Note_on_c, 0, 86, 0
1, 65040, Note_on_c, 0, 84, 80
1, 65159, Note_on_c, 0, 84, 0
1, 65160, Note_on_c, 0, 76, 80
1, 65279, Note_on_c, 0, 76, 0
1, 65280, Note_on_c, 0, 74, 80
1, 65399, Note_on_c, 0, 74, 0
1, 65400, Note_on_c, 0, 84, 80
1, 65519, Note_on_c, 0, 84, 0
1, 65520, Note_on_c, 0, 83, 80
1, 65639, Note_on_c, 0, 83, 0
1, 65640, Note_on_c, 0, 74, 80
1, 65759, Note_on_c, 0, 74, 0
1, 65760, Note_on_c, 0, 72, 80
1, 65879, Note_on_c, 0, 72, 0
1, 65880, Note_on_c, 0, 76, 80
1, 65999, Note_on_c, 0, 76, 0
1, 66000, Note_on_c, 0, 78, 80
1, 66119, Note_on_c, 0, 78, 0
1, 66120, Note_on_c, 0, 79, 80
1, 66239, Note_on_c, 0, 79, 0
1, 66240, Note_on_c, 0, 81, 80
1, 66359, Note_on_c, 0, 81, 0
1, 66360, Note_on_c, 0, 72, 80
1, 66479, Note_on_c, 0, 72, 0
1, 66480, Note_on_c, 0, 71, 80
1, 66599, Note_on_c, 0, 71, 0
1, 66600, Note_on_c, 0, 69, 80
1, 66719, Note_on_c, 0, 69, 0
1, 66720, Note_on_c, 0, 71, 80
1, 66839, Note_on_c, 0, 71, 0
1, 66840, Note_on_c, 0, 74, 80
1, 66959, Note_on_c, 0, 74, 0
1, 66960, Note_on_c, 0, 71, 80
1, 67079, Note_on_c, 0, 71, 0
1, 67080, Note_on_c, 0, 67, 80
1, 67199, Note_on_c, 0, 67, 0
1, 67200, Note_on_c, 0, 72, 80
1, 67319, Note_on_c, 0, 72, 0
1, 67320, Note_on_c, 0, 69, 80
1, 67439, Note_on_c, 0, 69, 0
1, 67440, Note_on_c, 0, 67, 80
1, 67559, Note_on_c, 0, 67, 0
1, 67560, Note_on_c, 0, 66, 80
1, 67679, Note_on_c, 0, 66, 0
1, 67680, Note_on_c, 0, 71, 80
1, 67799, Note_on_c, 0, 71, 0
1, 67800, Note_on_c, 0, 67, 80
1, 67919, Note_on_c, 0, 67, 0
1, 67920, Note_on_c, 0, 66, 80
1, 68039, Note_on_c, 0, 66, 0
1, 68040, Note_on_c, 0, 64, 80
1, 68159, Note_on_c, 0, 64, 0
1, 68160, Note_on_c, 0, 62, 80
1, 68279, Note_on_c, 0, 62, 0
1, 68280, Note_on_c, 0, 60, 80
1, 68399, Note_on_c, 0, 60, 0
1, 68400, Note_on_c, 0, 59, 80
1, 68519, Note_on_c, 0, 59, 0
1, 68520, Note_on_c, 0, 57, 80
1, 68639, Note_on_c, 0, 57, 0
1, 68640, Note_on_c, 0, 55, 80
1, 69119, Note_on_c, 0, 55, 0
1, 69120, Note_on_c, 0, 78, 80
1, 69239, Note_on_c, 0, 78, 0
1, 69240, Note_on_c, 0, 79, 80
1, 69359, Note_on_c, 0, 79, 0
1, 69360, Note_on_c, 0, 81, 80
1, 69719, Note_on_c, 0, 81, 0
1, 69720, Note_on_c, 0, 83, 80
1, 69839, Note_on_c, 0, 83, 0
1, 69840, Note_on_c, 0, 81, 80
1, 69959, Note_on_c, 0, 81, 0
1, 69960, Note_on_c, 0, 79, 80
1, 70079, Note_on_c, 0, 79, 0
1, 70080, Note_on_c, 0, 78, 80
1, 70199, Note_on_c, 0, 78, 0
1, 70200, Note_on_c, 0, 76, 80
1, 70319, Note_on_c, 0, 76, 0
1, 70320, Note_on_c, 0, 74, 80
1, 70439, Note_on_c, 0, 74, 0
1, 70440, Note_on_c, 0, 72, 80
1, 70559, Note_on_c, 0, 72, 0
1, 70560, Note_on_c, 0, 71, 80
1, 70679, Note_on_c, 0, 71, 0
1, 70680, Note_on_c, 0, 72, 80
1, 70799, Note_on_c, 0, 72, 0
1, 70800, Note_on_c, 0, 74, 80
1, 71159, Note_on_c, 0, 74, 0
1, 71160, Note_on_c, 0, 76, 80
1, 71279, Note_on_c, 0, 76, 0
1, 71280, Note_on_c, 0, 74, 80
1, 71399, Note_on_c, 0, 74, 0
1, 71400, Note_on_c, 0, 72, 80
1, 71519, Note_on_c, 0, 72, 0
1, 71520, Note_on_c, 0, 71, 80
1, 71639, Note_on_c, 0, 71, 0
1, 71640, Note_on_c, 0, 69, 80
1, 71759, Note_on_c, 0, 69, 0
1, 71760, Note_on_c, 0, 67, 80
1, 71879, Note_on_c, 0, 67, 0
1, 71880, Note_on_c, 0, 66, 80
1, 71999, Note_on_c, 0, 66, 0
1, 72000, Note_on_c, 0, 64, 80
1, 72119, Note_on_c, 0, 64, 0
1, 72120, Note_on_c, 0, 68, 80
1, 72239, Note_on_c, 0, 68, 0
1, 72240, Note_on_c, 0, 69, 80
1, 72359, Note_on_c, 0, 69, 0
1, 72360, Note_on_c, 0, 71, 80
1, 72479, Note_on_c, 0, 71, 0
1, 72480, Note_on_c, 0, 69, 80
1, 72599, Note_on_c, 0, 69, 0
1, 72600, Note_on_c, 0, 64, 80
1, 72719, Note_on_c, 0, 64, 0
1, 72720, Note_on_c, 0, 69, 80
1, 72839, Note_on_c, 0, 69, 0
1, 72840, Note_on_c, 0, 71, 80
1, 72959, Note_on_c, 0, 71, 0
1, 72960, Note_on_c, 0, 72, 80
1, 73079, Note_on_c, 0, 72, 0
1, 73080, Note_on_c, 0, 69, 80
1, 73199, Note_on_c, 0, 69, 0
1, 73200, Note_on_c, 0, 75, 80
1, 73319, Note_on_c, 0, 75, 0
1, 73320, Note_on_c, 0, 76, 80
1, 73439, Note_on_c, 0, 76, 0
1, 73440, Note_on_c, 0, 78, 80
1, 73559, Note_on_c, 0, 78, 0
1, 73560, Note_on_c, 0, 76, 80
1, 73679, Note_on_c, 0, 76, 0
1, 73680, Note_on_c, 0, 75, 80
1, 73799, Note_on_c, 0, 75, 0
1, 73800, Note_on_c, 0, 73, 80
1, 73919, Note_on_c, 0, 73, 0
1, 73920, Note_on_c, 0, 71, 80
1, 74999, Note_on_c, 0, 71, 0
1, 75000, Note_on_c, 0, 75, 80
1, 75119, Note_on_c, 0, 75, 0
1, 75120, Note_on_c, 0, 76, 80
1, 75479, Note_on_c, 0, 76, 0
1, 75480, Note_on_c, 0, 63, 80
1, 75599, Note_on_c, 0, 63, 0
1, 75600, Note_on_c, 0, 64, 80
1, 75959, Note_on_c, 0, 64, 0
1, 75960, Note_on_c, 0, 51, 80
1, 76079, Note_on_c, 0, 51, 0
1, 76080, Note_on_c, 0, 52, 80
1, 76319, Note_on_c, 0, 52, 0
1, 76440, Note_on_c, 0, 80, 80
1, 76559, Note_on_c, 0, 80, 0
1, 76560, Note_on_c, 0, 81, 80
1, 76919, Note_on_c, 0, 81, 0
1, 76920, Note_on_c, 0, 68, 80
1, 77039, Note_on_c, 0, 68, 0
1, 77040, Note_on_c, 0, 69, 80
1, 77399, Note_on_c, 0, 69, 0
1, 77400, Note_on_c, 0, 56, 80
1, 77519, Note_on_c, 0, 56, 0
1, 77520, Note_on_c, 0, 57, 80
1, 77879, Note_on_c, 0, 57, 0
1, 77880, Note_on_c, 0, 59, 80
1, 77999, Note_on_c, 0, 59, 0
1, 78000, Note_on_c, 0, 60, 80
1, 78119, Note_on_c, 0, 60, 0
1, 78120, Note_on_c, 0, 66, 80
1, 78239, Note_on_c, 0, 66, 0
1, 78240, Note_on_c, 0, 59, 80
1, 78359, Note_on_c, 0, 59, 0
1, 78360, Note_on_c, 0, 63, 80
1, 78479, Note_on_c, 0, 63, 0
1, 78480, Note_on_c, 0, 64, 80
1, 78599, Note_on_c, 0, 64, 0
1, 78600, Note_on_c, 0, 67, 80
1, 78719, Note_on_c, 0, 67, 0
1, 78720, Note_on_c, 0, 66, 80
1, 78839, Note_on_c, 0, 66, 0
1, 78840, Note_on_c, 0, 64, 80
1, 78959, Note_on_c, 0, 64, 0
1, 78960, Note_on_c, 0, 63, 80
1, 79079, Note_on_c, 0, 63, 0
1, 79080, Note_on_c, 0, 69, 80
1, 79199, Note_on_c, 0, 69, 0
1, 79200, Note_on_c, 0, 67, 80
1, 79319, Note_on_c, 0, 67, 0
1, 79320, Note_on_c, 0, 66, 80
1, 79439, Note_on_c, 0, 66, 0
1, 79440, Note_on_c, 0, 64, 80
1, 79559, Note_on_c, 0, 64, 0
1, 79560, Note_on_c, 0, 63, 80
1, 79679, Note_on_c, 0, 63, 0
1, 79680, Note_on_c, 0, 64, 80
1, 79799, Note_on_c, 0, 64, 0
1, 79800, Note_on_c, 0, 67, 80
1, 79919, Note_on_c, 0, 67, 0
1, 79920, Note_on_c, 0, 59, 80
1, 80039, Note_on_c, 0, 59, 0
1, 80040, Note_on_c, 0, 57, 80
1, 80159, Note_on_c, 0, 57, 0
1, 80160, Note_on_c, 0, 55, 80
1, 80279, Note_on_c, 0, 55, 0
1, 80280, Note_on_c, 0, 59, 80
1, 80399, Note_on_c, 0, 59, 0
1, 80400, Note_on_c, 0, 52, 80
1, 80639, Note_on_c, 0, 52, 0
1, 80880, Note_on_c, 0, 76, 80
1, 81119, Note_on_c, 0, 76, 0
1, 81120, Note_on_c, 0, 72, 80
1, 81359, Note_on_c, 0, 72, 0
1, 81360, Note_on_c, 0, 76, 80
1, 81599, Note_on_c, 0, 76, 0
1, 81600, Note_on_c, 0, 81, 80
1, 81839, Note_on_c, 0, 81, 0
1, 81840, Note_on_c, 0, 69, 80
1, 82079, Note_on_c, 0, 69, 0
1, 82320, Note_on_c, 0, 74, 80
1, 82559, Note_on_c, 0, 74, 0
1, 82560, Note_on_c, 0, 71, 80
1, 82799, Note_on_c, 0, 71, 0
1, 82800, Note_on_c, 0, 74, 80
1, 83039, Note_on_c, 0, 74, 0
1, 83040, Note_on_c, 0, 79, 80
1, 83279, Note_on_c, 0, 79, 0
1, 83280, Note_on_c, 0, 67, 80
1, 83519, Note_on_c, 0, 67, 0
1, 83520, Note_on_c, 0, 72, 80
1, 83639, Note_on_c, 0, 72, 0
1, 83640, Note_on_c, 0, 69, 80
1, 83759, Note_on_c, 0, 69, 0
1, 83760, Note_on_c, 0, 64, 80
1, 83879, Note_on_c, 0, 64, 0
1, 83880, Note_on_c, 0, 60, 80
1, 83999, Note_on_c, 0, 60, 0
1, 84000, Note_on_c, 0, 57, 80
1, 84119, Note_on_c, 0, 57, 0
1, 84120, Note_on_c, 0, 60, 80
1, 84239, Note_on_c, 0, 60, 0
1, 84240, Note_on_c, 0, 64, 80
1, 84359, Note_on_c, 0, 64, 0
1, 84360, Note_on_c, 0, 69, 80
1, 84479, Note_on_c, 0, 69, 0
1, 84480, Note_on_c, 0, 72, 80
1, 84599, Note_on_c, 0, 72, 0
1, 84600, Note_on_c, 0, 69, 80
1, 84719, Note_on_c, 0, 69, 0
1, 84720, Note_on_c, 0, 72, 80
1, 84839, Note_on_c, 0, 72, 0
1, 84840, Note_on_c, 0, 76, 80
1, 84959, Note_on_c, 0, 76, 0
1, 84960, Note_on_c, 0, 78, 80
1, 85079, Note_on_c, 0, 78, 0
1, 85080, Note_on_c, 0, 72, 80
1, 85199, Note_on_c, 0, 72, 0
1, 85200, Note_on_c, 0, 69, 80
1, 85319, Note_on_c, 0, 69, 0
1, 85320, Note_on_c, 0, 66, 80
1, 85439, Note_on_c, 0, 66, 0
1, 85440, Note_on_c, 0, 62, 80
1, 85559, Note_on_c, 0, 62, 0
1, 85560, Note_on_c, 0, 66, 80
1, 85679, Note_on_c, 0, 66, 0
1, 85680, Note_on_c, 0, 69, 80
1, 85799, Note_on_c, 0, 69, 0
1, 85800, Note_on_c, 0, 72, 80
1, 85919, Note_on_c, 0, 72, 0
1, 85920, Note_on_c, 0, 78, 80
1, 86039, Note_on_c, 0, 78, 0
1, 86040, Note_on_c, 0, 72, 80
1, 86159, Note_on_c, 0, 72, 0
1, 86160, Note_on_c, 0, 78, 80
1, 86279, Note_on_c, 0, 78, 0
1, 86280, Note_on_c, 0, 81, 80
1, 86399, Note_on_c, 0, 81, 0
1, 86400, Note_on_c, 0, 83, 80
1, 86519, Note_on_c, 0, 83, 0
1, 86520, Note_on_c, 0, 79, 80
1, 86639, Note_on_c, 0, 79, 0
1, 86640, Note_on_c, 0, 74, 80
1, 86759, Note_on_c, 0, 74, 0
1, 86760, Note_on_c, 0, 71, 80
1, 86879, Note_on_c, 0, 71, 0
1, 86880, Note_on_c, 0, 67, 80
1, 86999, Note_on_c, 0, 67, 0
1, 87000, Note_on_c, 0, 71, 80
1, 87119, Note_on_c, 0, 71, 0
1, 87120, Note_on_c, 0, 74, 80
1, 87239, Note_on_c, 0, 74, 0
1, 87240, Note_on_c, 0, 79, 80
1, 87359, Note_on_c, 0, 79, 0
1, 87360, Note_on_c, 0, 83, 80
1, 87479, Note_on_c, 0, 83, 0
1, 87480, Note_on_c, 0, 77, 80
1, 87599, Note_on_c, 0, 77, 0
1, 87600, Note_on_c, 0, 83, 80
1, 87719, Note_on_c, 0, 83, 0
1, 87720, Note_on_c, 0, 86, 80
1, 87839, Note_on_c, 0, 86, 0
1, 87840, Note_on_c, 0, 76, 80
1, 87959, Note_on_c, 0, 76, 0
1, 87960, Note_on_c, 0, 86, 80
1, 88079, Note_on_c, 0, 86, 0
1, 88080, Note_on_c, 0, 84, 80
1, 88199, Note_on_c, 0, 84, 0
1, 88200, Note_on_c, 0, 76, 80
1, 88319, Note_on_c, 0, 76, 0
1, 88320, Note_on_c, 0, 74, 80
1, 88439, Note_on_c, 0, 74, 0
1, 88440, Note_on_c, 0, 84, 80
1, 88559, Note_on_c, 0, 84, 0
1, 88560, Note_on_c, 0, 83, 80
1, 88679, Note_on_c, 0, 83, 0
1, 88680, Note_on_c, 0, 74, 80
1, 88799, Note_on_c, 0, 74, 0
1, 88800, Note_on_c, 0, 72, 80
1, 88919, Note_on_c, 0, 72, 0
1, 88920, Note_on_c, 0, 76, 80
1, 89039, Note_on_c, 0, 76, 0
1, 89040, Note_on_c, 0, 78, 80
1, 89159, Note_on_c, 0, 78, 0
1, 89160, Note_on_c, 0, 79, 80
1, 89279, Note_on_c, 0, 79, 0
1, 89280, Note_on_c, 0, 81, 80
1, 89399, Note_on_c, 0, 81, 0
1, 89400, Note_on_c, 0, 72, 80
1, 89519, Note_on_c, 0, 72, 0
1, 89520, Note_on_c, 0, 71, 80
1, 89639, Note_on_c, 0, 71, 0
1, 89640, Note_on_c, 0, 69, 80
1, 89759, Note_on_c, 0, 69, 0
1, 89760, Note_on_c, 0, 71, 80
1, 89879, Note_on_c, 0, 71, 0
1, 89880, Note_on_c, 0, 74, 80
1, 89999, Note_on_c, 0, 74, 0
1, 90000, Note_on_c, 0, 71, 80
1, 90119, Note_on_c, 0, 71, 0
1, 90120, Note_on_c, 0, 67, 80
1, 90239, Note_on_c, 0, 67, 0
1, 90240, Note_on_c, 0, 72, 80
1, 90359, Note_on_c, 0, 72, 0
1, 90360, Note_on_c, 0, 69, 80
1, 90479, Note_on_c, 0, 69, 0
1, 90480, Note_on_c, 0, 67, 80
1, 90599, Note_on_c, 0, 67, 0
1, 90600, Note_on_c, 0, 66, 80
1, 90719, Note_on_c, 0, 66, 0
1, 90720, Note_on_c, 0, 71, 80
1, 90839, Note_on_c, 0, 71, 0
1, 90840, Note_on_c, 0, 67, 80
1, 90959, Note_on_c, 0, 67, 0
1, 90960, Note_on_c, 0, 66, 80
1, 91079, Note_on_c, 0, 66, 0
1, 91080, Note_on_c, 0, 64, 80
1, 91199, Note_on_c, 0, 64, 0
1, 91200, Note_on_c, 0, 62, 80
1, 91319, Note_on_c, 0, 62, 0
1, 91320, Note_on_c, 0, 60, 80
1, 91439, Note_on_c, 0, 60, 0
1, 91440, Note_on_c, 0, 59, 80
1, 91559, Note_on_c, 0, 59, 0
1, 91560, Note_on_c, 0, 57, 80
1, 91679, Note_on_c, 0, 57, 0
1, 91680, Note_on_c, 0, 55, 80
1, 92159, Note_on_c, 0, 55, 0
1, 92160, End_track
2, 0, Start_track
2, 0, Key_signature, 1, "major"
2, 0, Note_on_c, 0, 43, 80
2, 239, Note_on_c, 0, 43, 0
2, 240, Note_on_c, 0, 59, 80
2, 359, Note_on_c, 0, 59, 0
2, 360, Note_on_c, 0, 57, 80
2, 479, Note_on_c, 0, 57, 0
2, 480, Note_on_c, 0, 59, 80
2, 719, Note_on_c, 0, 59, 0
2, 720, Note_on_c, 0, 55, 80
2, 959, Note_on_c, 0, 55, 0
2, 960, Note_on_c, 0, 43, 80
2, 1199, Note_on_c, 0, 43, 0
2, 1200, Note_on_c, 0, 55, 80
2, 1439, Note_on_c, 0, 55, 0
2, 1440, Note_on_c, 0, 42, 80
2, 1679, Note_on_c, 0, 42, 0
2, 1680, Note_on_c, 0, 54, 80
2, 1799, Note_on_c, 0, 54, 0
2, 1800, Note_on_c, 0, 52, 80
2, 1919, Note_on_c, 0, 52, 0
2, 1920, Note_on_c, 0, 54, 80
2, 2159, Note_on_c, 0, 54, 0
2, 2160, Note_on_c, 0, 50, 80
2, 2399, Note_on_c, 0, 50, 0
2, 2400, Note_on_c, 0, 42, 80
2, 2639, Note_on_c, 0, 42, 0
2, 2640, Note_on_c, 0, 50, 80
2, 2879, Note_on_c, 0, 50, 0
2, 2880, Note_on_c, 0, 40, 80
2, 3119, Note_on_c, 0, 40, 0
2, 3120, Note_on_c, 0, 52, 80
2, 3239, Note_on_c, 0, 52, 0
2, 3240, Note_on_c, 0, 50, 80
2, 3359, Note_on_c, 0, 50, 0
2, 3360, Note_on_c, 0, 52, 80
2, 3599, Note_on_c, 0, 52, 0
2, 3600, Note_on_c, 0, 55, 80
2, 3839, Note_on_c, 0, 55, 0
2, 3840, Note_on_c, 0, 45, 80
2, 4079, Note_on_c, 0, 45, 0
2, 4080, Note_on_c, 0, 61, 80
2, 4319, Note_on_c, 0, 61, 0
2, 4320, Note_on_c, 0, 50, 80
2, 4559, Note_on_c, 0, 50, 0
2, 4560, Note_on_c, 0, 54, 80
2, 4679, Note_on_c, 0, 54, 0
2, 4680, Note_on_c, 0, 52, 80
2, 4799, Note_on_c, 0, 52, 0
2, 4800, Note_on_c, 0, 54, 80
2, 5039, Note_on_c, 0, 54, 0
2, 5040, Note_on_c, 0, 50, 80
2, 5279, Note_on_c, 0, 50, 0
2, 5280, Note_on_c, 0, 38, 80
2, 5519, Note_on_c, 0, 38, 0
2, 5640, Note_on_c, 0, 48, 80
2, 5759, Note_on_c, 0, 48, 0
2, 5760, Note_on_c, 0, 47, 80
2, 5879, Note_on_c, 0, 47, 0
2, 5880, Note_on_c, 0, 45, 80
2, 5999, Note_on_c, 0, 45, 0
2, 6000, Note_on_c, 0, 47, 80
2, 6359, Note_on_c, 0, 47, 0
2, 6360, Note_on_c, 0, 50, 80
2, 6479, Note_on_c, 0, 50, 0
2, 6480, Note_on_c, 0, 52, 80
2, 6599, Note_on_c, 0, 52, 0
2, 6600, Note_on_c, 0, 54, 80
2, 6719, Note_on_c, 0, 54, 0
2, 6720, Note_on_c, 0, 55, 80
2, 6839, Note_on_c, 0, 55, 0
2, 6840, Note_on_c, 0, 57, 80
2, 6959, Note_on_c, 0, 57, 0
2, 6960, Note_on_c, 0, 59, 80
2, 7079, Note_on_c, 0, 59, 0
2, 7080, Note_on_c, 0, 55, 80
2, 7199, Note_on_c, 0, 55, 0
2, 7200, Note_on_c, 0, 48, 80
2, 7319, Note_on_c, 0, 48, 0
2, 7320, Note_on_c, 0, 47, 80
2, 7439, Note_on_c, 0, 47, 0
2, 7440, Note_on_c, 0, 48, 80
2, 7799, Note_on_c, 0, 48, 0
2, 7800, Note_on_c, 0, 52, 80
2, 7919, Note_on_c, 0, 52, 0
2, 7920, Note_on_c, 0, 54, 80
2, 8039, Note_on_c, 0, 54, 0
2, 8040, Note_on_c, 0, 55, 80
2, 8159, Note_on_c, 0, 55, 0
2, 8160, Note_on_c, 0, 57, 80
2, 8279, Note_on_c, 0, 57, 0
2, 8280, Note_on_c, 0, 59, 80
2, 8399, Note_on_c, 0, 59, 0
2, 8400, Note_on_c, 0, 60, 80
2, 8519, Note_on_c, 0, 60, 0
2, 8520, Note_on_c, 0, 57, 80
2, 8639, Note_on_c, 0, 57, 0
2, 8640, Note_on_c, 0, 50, 80
2, 8759, Note_on_c, 0, 50, 0
2, 8760, Note_on_c, 0, 49, 80
2, 8879, Note_on_c, 0, 49, 0
2, 8880, Note_on_c, 0, 50, 80
2, 9239, Note_on_c, 0, 50, 0
2, 9240, Note_on_c, 0, 57, 80
2, 9359, Note_on_c, 0, 57, 0
2, 9360, Note_on_c, 0, 59, 80
2, 9479, Note_on_c, 0, 59, 0
2, 9480, Note_on_c, 0, 60, 80
2, 9599, Note_on_c, 0, 60, 0
2, 9600, Note_on_c, 0, 62, 80
2, 9719, Note_on_c, 0, 62, 0
2, 9720, Note_on_c, 0, 64, 80
2, 9839, Note_on_c, 0, 64, 0
2, 9840, Note_on_c, 0, 66, 80
2, 9959, Note_on_c, 0, 66, 0
2, 9960, Note_on_c, 0, 62, 80
2, 10079, Note_on_c, 0, 62, 0
2, 10080, Note_on_c, 0, 67, 80
2, 10199, Note_on_c, 0, 67, 0
2, 10200, Note_on_c, 0, 66, 80
2, 10319, Note_on_c, 0, 66, 0
2, 10320, Note_on_c, 0, 67, 80
2, 10439, Note_on_c, 0, 67, 0
2, 10440, Note_on_c, 0, 62, 80
2, 10559, Note_on_c, 0, 62, 0
2, 10560, Note_on_c, 0, 59, 80
2, 10679, Note_on_c, 0, 59, 0
2, 10680, Note_on_c, 0, 62, 80
2, 10799, Note_on_c, 0, 62, 0
2, 10800, Note_on_c, 0, 55, 80
2, 10919, Note_on_c, 0, 55, 0
2, 10920, Note_on_c, 0, 59, 80
2, 11039, Note_on_c, 0, 59, 0
2, 11040, Note_on_c, 0, 50, 80
2, 11159, Note_on_c, 0, 50, 0
2, 11160, Note_on_c, 0, 55, 80
2, 11279, Note_on_c, 0, 55, 0
2, 11280, Note_on_c, 0, 47, 80
2, 11399, Note_on_c, 0, 47, 0
2, 11400, Note_on_c, 0, 50, 80
2, 11519, Note_on_c, 0, 50, 0
2, 11520, Note_on_c, 0, 43, 80
2, 11759, Note_on_c, 0, 43, 0
2, 11760, Note_on_c, 0, 55, 80
2, 11999, Note_on_c, 0, 55, 0
2, 12000, Note_on_c, 0, 59, 80
2, 12239, Note_on_c, 0, 59, 0
2, 12240, Note_on_c, 0, 55, 80
2, 12479, Note_on_c, 0, 55, 0
2, 12480, Note_on_c, 0, 43, 80
2, 12719, Note_on_c, 0, 43, 0
2, 12720, Note_on_c, 0, 55, 80
2, 12959, Note_on_c, 0, 55, 0
2, 12960, Note_on_c, 0, 42, 80
2, 13199, Note_on_c, 0, 42, 0
2, 13200, Note_on_c, 0, 54, 80
2, 13439, Note_on_c, 0, 54, 0
2, 13440, Note_on_c, 0, 57, 80
2, 13679, Note_on_c, 0, 57, 0
2, 13680, Note_on_c, 0, 54, 80
2, 13919, Note_on_c, 0, 54, 0
2, 13920, Note_on_c, 0, 42, 80
2, 14159, Note_on_c, 0, 42, 0
2, 14160, Note_on_c, 0, 54, 80
2, 14399, Note_on_c, 0, 54, 0
2, 14400, Note_on_c, 0, 40, 80
2, 14639, Note_on_c, 0, 40, 0
2, 14640, Note_on_c, 0, 52, 80
2, 14879, Note_on_c, 0, 52, 0
2, 14880, Note_on_c, 0, 55, 80
2, 15119, Note_on_c, 0, 55, 0
2, 15120, Note_on_c, 0, 52, 80
2, 15359, Note_on_c, 0, 52, 0
2, 15360, Note_on_c, 0, 40, 80
2, 15599, Note_on_c, 0, 40, 0
2, 15600, Note_on_c, 0, 55, 80
2, 15839, Note_on_c, 0, 55, 0
2, 15840, Note_on_c, 0, 45, 80
2, 16079, Note_on_c, 0, 45, 0
2, 16080, Note_on_c, 0, 52, 80
2, 16319, Note_on_c, 0, 52, 0
2, 16320, Note_on_c, 0, 57, 80
2, 16559, Note_on_c, 0, 57, 0
2, 16560, Note_on_c, 0, 52, 80
2, 16799, Note_on_c, 0, 52, 0
2, 16800, Note_on_c, 0, 45, 80
2, 17039, Note_on_c, 0, 45, 0
2, 17040, Note_on_c, 0, 55, 80
2, 17279, Note_on_c, 0, 55, 0
2, 17280, Note_on_c, 0, 54, 80
2, 17399, Note_on_c, 0, 54, 0
2, 17400, Note_on_c, 0, 57, 80
2, 17519, Note_on_c, 0, 57, 0
2, 17520, Note_on_c, 0, 62, 80
2, 17639, Note_on_c, 0, 62, 0
2, 17640, Note_on_c, 0, 66, 80
2, 17759, Note_on_c, 0, 66, 0
2, 17760, Note_on_c, 0, 69, 80
2, 17879, Note_on_c, 0, 69, 0
2, 17880, Note_on_c, 0, 66, 80
2, 17999, Note_on_c, 0, 66, 0
2, 18000, Note_on_c, 0, 62, 80
2, 18119, Note_on_c, 0, 62, 0
2, 18120, Note_on_c, 0, 57, 80
2, 18239, Note_on_c, 0, 57, 0
2, 18240, Note_on_c, 0, 54, 80
2, 18359, Note_on_c, 0, 54, 0
2, 18360, Note_on_c, 0, 57, 80
2, 18479, Note_on_c, 0, 57, 0
2, 18480, Note_on_c, 0, 50, 80
2, 18599, Note_on_c, 0, 50, 0
2, 18600, Note_on_c, 0, 54, 80
2, 18719, Note_on_c, 0, 54, 0
2, 18720, Note_on_c, 0, 55, 80
2, 18839, Note_on_c, 0, 55, 0
2, 18840, Note_on_c, 0, 59, 80
2, 18959, Note_on_c, 0, 59, 0
2, 18960, Note_on_c, 0, 62, 80
2, 19079, Note_on_c, 0, 62, 0
2, 19080, Note_on_c, 0, 67, 80
2, 19199, Note_on_c, 0, 67, 0
2, 19200, Note_on_c, 0, 71, 80
2, 19319, Note_on_c, 0, 71, 0
2, 19320, Note_on_c, 0, 67, 80
2, 19439, Note_on_c, 0, 67, 0
2, 19440, Note_on_c, 0, 62, 80
2, 19559, Note_on_c, 0, 62, 0
2, 19560, Note_on_c, 0, 59, 80
2, 19679, Note_on_c, 0, 59, 0
2, 19680, Note_on_c, 0, 55, 80
2, 19799, Note_on_c, 0, 55, 0
2, 19800, Note_on_c, 0, 59, 80
2, 19919, Note_on_c, 0, 59, 0
2, 19920, Note_on_c, 0, 52, 80
2, 20039, Note_on_c, 0, 52, 0
2, 20040, Note_on_c, 0, 55, 80
2, 20159, Note_on_c, 0, 55, 0
2, 20160, Note_on_c, 0, 57, 80
2, 20399, Note_on_c, 0, 57, 0
2, 20400, Note_on_c, 0, 61, 80
2, 20639, Note_on_c, 0, 61, 0
2, 20640, Note_on_c, 0, 62, 80
2, 20759, Note_on_c, 0, 62, 0
2, 20760, Note_on_c, 0, 57, 80
2, 20879, Note_on_c, 0, 57, 0
2, 20880, Note_on_c, 0, 54, 80
2, 20999, Note_on_c, 0, 54, 0
2, 21000, Note_on_c, 0, 50, 80
2, 21119, Note_on_c, 0, 50, 0
2, 21120, Note_on_c, 0, 57, 80
2, 21359, Note_on_c, 0, 57, 0
2, 21360, Note_on_c, 0, 45, 80
2, 21599, Note_on_c, 0, 45, 0
2, 21600, Note_on_c, 0, 38, 80
2, 21719, Note_on_c, 0, 38, 0
2, 21720, Note_on_c, 0, 50, 80
2, 21839, Note_on_c, 0, 50, 0
2, 21840, Note_on_c, 0, 52, 80
2, 21959, Note_on_c, 0, 52, 0
2, 21960, Note_on_c, 0, 54, 80
2, 22079, Note_on_c, 0, 54, 0
2, 22080, Note_on_c, 0, 55, 80
2, 22199, Note_on_c, 0, 55, 0
2, 22200, Note_on_c, 0, 57, 80
2, 22319, Note_on_c, 0, 57, 0
2, 22320, Note_on_c, 0, 59, 80
2, 22439, Note_on_c, 0, 59, 0
2, 22440, Note_on_c, 0, 61, 80
2, 22559, Note_on_c, 0, 61, 0
2, 22560, Note_on_c, 0, 62, 80
2, 23039, Note_on_c, 0, 62, 0
2, 23040, Note_on_c, 0, 43, 80
2, 23279, Note_on_c, 0, 43, 0
2, 23280, Note_on_c, 0, 59, 80
2, 23399, Note_on_c, 0, 59, 0
2, 23400, Note_on_c, 0, 57, 80
2, 23519, Note_on_c, 0, 57, 0
2, 23520, Note_on_c, 0, 59, 80
2, 23759, Note_on_c, 0, 59, 0
2, 23760, Note_on_c, 0, 55, 80
2, 23999, Note_on_c, 0, 55, 0
2, 24000, Note_on_c, 0, 43, 80
2, 24239, Note_on_c, 0, 43, 0
2, 24240, Note_on_c, 0, 55, 80
2, 24479, Note_on_c, 0, 55, 0
2, 24480, Note_on_c, 0, 42, 80
2, 24719, Note_on_c, 0, 42, 0
2, 24720, Note_on_c, 0, 54, 80
2, 24839, Note_on_c, 0, 54, 0
2, 24840, Note_on_c, 0, 52, 80
2, 24959, Note_on_c, 0, 52, 0
2, 24960, Note_on_c, 0, 54, 80
2, 25199, Note_on_c, 0, 54, 0
2, 25200, Note_on_c, 0, 50, 80
2, 25439, Note_on_c, 0, 50, 0
2, 25440, Note_on_c, 0, 42, 80
2, 25679, Note_on_c, 0, 42, 0
2, 25680, Note_on_c, 0, 50, 80
2, 25919, Note_on_c, 0, 50, 0
2, 25920, Note_on_c, 0, 40, 80
2, 26159, Note_on_c, 0, 40, 0
2, 26160, Note_on_c, 0, 52, 80
2, 26279, Note_on_c, 0, 52, 0
2, 26280, Note_on_c, 0, 50, 80
2, 26399, Note_on_c, 0, 50, 0
2, 26400, Note_on_c, 0, 52, 80
2, 26639, Note_on_c, 0, 52, 0
2, 26640, Note_on_c, 0, 55, 80
2, 26879, Note_on_c, 0, 55, 0
2, 26880, Note_on_c, 0, 45, 80
2, 27119, Note_on_c, 0, 45, 0
2, 27120, Note_on_c, 0, 61, 80
2, 27359, Note_on_c, 0, 61, 0
2, 27360, Note_on_c, 0, 50, 80
2, 27599, Note_on_c, 0, 50, 0
2, 27600, Note_on_c, 0, 54, 80
2, 27719, Note_on_c, 0, 54, 0
2, 27720, Note_on_c, 0, 52, 80
2, 27839, Note_on_c, 0, 52, 0
2, 27840, Note_on_c, 0, 54, 80
2, 28079, Note_on_c, 0, 54, 0
2, 28080, Note_on_c, 0, 50, 80
2, 28319, Note_on_c, 0, 50, 0
2, 28320, Note_on_c, 0, 38, 80
2, 28559, Note_on_c, 0, 38, 0
2, 28680, Note_on_c, 0, 48, 80
2, 28799, Note_on_c, 0, 48, 0
2, 28800, Note_on_c, 0, 47, 80
2, 28919, Note_on_c, 0, 47, 0
2, 28920, Note_on_c, 0, 45, 80
2, 29039, Note_on_c, 0, 45, 0
2, 29040, Note_on_c, 0, 47, 80
2, 29399, Note_on_c, 0, 47, 0
2, 29400, Note_on_c, 0, 50, 80
2, 29519, Note_on_c, 0, 50, 0
2, 29520, Note_on_c, 0, 52, 80
2, 29639, Note_on_c, 0, 52, 0
2, 29640, Note_on_c, 0, 54, 80
2, 29759, Note_on_c, 0, 54, 0
2, 29760, Note_on_c, 0, 55, 80
2, 29879, Note_on_c, 0, 55, 0
2, 29880, Note_on_c, 0, 57, 80
2, 29999, Note_on_c, 0, 57, 0
2, 30000, Note_on_c, 0, 59, 80
2, 30119, Note_on_c, 0, 59, 0
2, 30120, Note_on_c, 0, 55, 80
2, 30239, Note_on_c, 0, 55, 0
2, 30240, Note_on_c, 0, 48, 80
2, 30359, Note_on_c, 0, 48, 0
2, 30360, Note_on_c, 0, 47, 80
2, 30479, Note_on_c, 0, 47, 0
2, 30480, Note_on_c, 0, 48, 80
2, 30839, Note_on_c, 0, 48, 0
2, 30840, Note_on_c, 0, 52, 80
2, 30959, Note_on_c, 0, 52, 0
2, 30960, Note_on_c, 0, 54, 80
2, 31079, Note_on_c, 0, 54, 0
2, 31080, Note_on_c, 0, 55, 80
2, 31199, Note_on_c, 0, 55, 0
2, 31200, Note_on_c, 0, 57, 80
2, 31319, Note_on_c, 0, 57, 0
2, 31320, Note_on_c, 0, 59, 80
2, 31439, Note_on_c, 0, 59, 0
2, 31440, Note_on_c, 0, 60, 80
2, 31559, Note_on_c, 0, 60, 0
2, 31560, Note_on_c, 0, 57, 80
2, 31679, Note_on_c, 0, 57, 0
2, 31680, Note_on_c, 0, 50, 80
2, 31799, Note_on_c, 0, 50, 0
2, 31800, Note_on_c, 0, 49, 80
2, 31919, Note_on_c, 0, 49, 0
2, 31920, Note_on_c, 0, 50, 80
2, 32279, Note_on_c, 0, 50, 0
2, 32280, Note_on_c, 0, 57, 80
2, 32399, Note_on_c, 0, 57, 0
2, 32400, Note_on_c, 0, 59, 80
2, 32519, Note_on_c, 0, 59, 0
2, 32520, Note_on_c, 0, 60, 80
2, 32639, Note_on_c, 0, 60, 0
2, 32640, Note_on_c, 0, 62, 80
2, 32759, Note_on_c, 0, 62, 0
2, 32760, Note_on_c, 0, 64, 80
2, 32879, Note_on_c, 0, 64, 0
2, 32880, Note_on_c, 0, 66, 80
2, 32999, Note_on_c, 0, 66, 0
2, 33000, Note_on_c, 0, 62, 80
2, 33119, Note_on_c, 0, 62, 0
2, 33120, Note_on_c, 0, 67, 80
2, 33239, Note_on_c, 0, 67, 0
2, 33240, Note_on_c, 0, 66, 80
2, 33359, Note_on_c, 0, 66, 0
2, 33360, Note_on_c, 0, 67, 80
2, 33479, Note_on_c, 0, 67, 0
2, 33480, Note_on_c, 0, 62, 80
2, 33599, Note_on_c, 0, 62, 0
2, 33600, Note_on_c, 0, 59, 80
2, 33719, Note_on_c, 0, 59, 0
2, 33720, Note_on_c, 0, 62, 80
2, 33839, Note_on_c, 0, 62, 0
2, 33840, Note_on_c, 0, 55, 80
2, 33959, Note_on_c, 0, 55, 0
2, 33960, Note_on_c, 0, 59, 80
2, 34079, Note_on_c, 0, 59, 0
2, 34080, Note_on_c, 0, 50, 80
2, 34199, Note_on_c, 0, 50, 0
2, 34200, Note_on_c, 0, 55, 80
2, 34319, Note_on_c, 0, 55, 0
2, 34320, Note_on_c, 0, 47, 80
2, 34439, Note_on_c, 0, 47, 0
2, 34440, Note_on_c, 0, 50, 80
2, 34559, Note_on_c, 0, 50, 0
2, 34560, Note_on_c, 0, 43, 80
2, 34799, Note_on_c, 0, 43, 0
2, 34800, Note_on_c, 0, 55, 80
2, 35039, Note_on_c, 0, 55, 0
2, 35040, Note_on_c, 0, 59, 80
2, 35279, Note_on_c, 0, 59, 0
2, 35280, Note_on_c, 0, 55, 80
2, 35519, Note_on_c, 0, 55, 0
2, 35520, Note_on_c, 0, 43, 80
2, 35759, Note_on_c, 0, 43, 0
2, 35760, Note_on_c, 0, 55, 80
2, 35999, Note_on_c, 0, 55, 0
2, 36000, Note_on_c, 0, 42, 80
2, 36239, Note_on_c, 0, 42, 0
2, 36240, Note_on_c, 0, 54, 80
2, 36479, Note_on_c, 0, 54, 0
2, 36480, Note_on_c, 0, 57, 80
2, 36719, Note_on_c, 0, 57, 0
2, 36720, Note_on_c, 0, 54, 80
2, 36959, Note_on_c, 0, 54, 0
2, 36960, Note_on_c, 0, 42, 80
2, 37199, Note_on_c, 0, 42, 0
2, 37200, Note_on_c, 0, 54, 80
2, 37439, Note_on_c, 0, 54, 0
2, 37440, Note_on_c, 0, 40, 80
2, 37679, Note_on_c, 0, 40, 0
2, 37680, Note_on_c, 0, 52, 80
2, 37919, Note_on_c, 0, 52, 0
2, 37920, Note_on_c, 0, 55, 80
2, 38159, Note_on_c, 0, 55, 0
2, 38160, Note_on_c, 0, 52, 80
2, 38399, Note_on_c, 0, 52, 0
2, 38400, Note_on_c, 0, 40, 80
2, 38639, Note_on_c, 0, 40, 0
2, 38640, Note_on_c, 0, 55, 80
2, 38879, Note_on_c, 0, 55, 0
2, 38880, Note_on_c, 0, 45, 80
2, 39119, Note_on_c, 0, 45, 0
2, 39120, Note_on_c, 0, 52, 80
2, 39359, Note_on_c, 0, 52, 0
2, 39360, Note_on_c, 0, 57, 80
2, 39599, Note_on_c, 0, 57, 0
2, 39600, Note_on_c, 0, 52, 80
2, 39839, Note_on_c, 0, 52, 0
2, 39840, Note_on_c, 0, 45, 80
2, 40079, Note_on_c, 0, 45, 0
2, 40080, Note_on_c, 0, 55, 80
2, 40319, Note_on_c, 0, 55, 0
2, 40320, Note_on_c, 0, 54, 80
2, 40439, Note_on_c, 0, 54, 0
2, 40440, Note_on_c, 0, 57, 80
2, 40559, Note_on_c, 0, 57, 0
2, 40560, Note_on_c, 0, 62, 80
2, 40679, Note_on_c, 0, 62, 0
2, 40680, Note_on_c, 0, 66, 80
2, 40799, Note_on_c, 0, 66, 0
2, 40800, Note_on_c, 0, 69, 80
2, 40919, Note_on_c, 0, 69, 0
2, 40920, Note_on_c, 0, 66, 80
2, 41039, Note_on_c, 0, 66, 0
2, 41040, Note_on_c, 0, 62, 80
2, 41159, Note_on_c, 0, 62, 0
2, 41160, Note_on_c, 0, 57, 80
2, 41279, Note_on_c, 0, 57, 0
2, 41280, Note_on_c, 0, 54, 80
2, 41399, Note_on_c, 0, 54, 0
2, 41400, Note_on_c, 0, 57, 80
2, 41519, Note_on_c, 0, 57, 0
2, 41520, Note_on_c, 0, 50, 80
2, 41639, Note_on_c, 0, 50, 0
2, 41640, Note_on_c, 0, 54, 80
2, 41759, Note_on_c, 0, 54, 0
2, 41760, Note_on_c, 0, 55, 80
2, 41879, Note_on_c, 0, 55, 0
2, 41880, Note_on_c, 0, 59, 80
2, 41999, Note_on_c, 0, 59, 0
2, 42000, Note_on_c, 0, 62, 80
2, 42119, Note_on_c, 0, 62, 0
2, 42120, Note_on_c, 0, 67, 80
2, 42239, Note_on_c, 0, 67, 0
2, 42240, Note_on_c, 0, 71, 80
2, 42359, Note_on_c, 0, 71, 0
2, 42360, Note_on_c, 0, 67, 80
2, 42479, Note_on_c, 0, 67, 0
2, 42480, Note_on_c, 0, 62, 80
2, 42599, Note_on_c, 0, 62, 0
2, 42600, Note_on_c, 0, 59, 80
2, 42719, Note_on_c, 0, 59, 0
2, 42720, Note_on_c, 0, 55, 80
2, 42839, Note_on_c, 0, 55, 0
2, 42840, Note_on_c, 0, 59, 80
2, 42959, Note_on_c, 0, 59, 0
2, 42960, Note_on_c, 0, 52, 80
2, 43079, Note_on_c, 0, 52, 0
2, 43080, Note_on_c, 0, 55, 80
2, 43199, Note_on_c, 0, 55, 0
2, 43200, Note_on_c, 0, 57, 80
2, 43439, Note_on_c, 0, 57, 0
2, 43440, Note_on_c, 0, 61, 80
2, 43679, Note_on_c, 0, 61, 0
2, 43680, Note_on_c, 0, 62, 80
2, 43799, Note_on_c, 0, 62, 0
2, 43800, Note_on_c, 0, 57, 80
2, 43919, Note_on_c, 0, 57, 0
2, 43920, Note_on_c, 0, 54, 80
2, 44039, Note_on_c, 0, 54, 0
2, 44040, Note_on_c, 0, 50, 80
2, 44159, Note_on_c, 0, 50, 0
2, 44160, Note_on_c, 0, 57, 80
2, 44399, Note_on_c, 0, 57, 0
2, 44400, Note_on_c, 0, 45, 80
2, 44639, Note_on_c, 0, 45, 0
2, 44640, Note_on_c, 0, 38, 80
2, 44759, Note_on_c, 0, 38, 0
2, 44760, Note_on_c, 0, 50, 80
2, 44879, Note_on_c, 0, 50, 0
2, 44880, Note_on_c, 0, 52, 80
2, 44999, Note_on_c, 0, 52, 0
2, 45000, Note_on_c, 0, 54, 80
2, 45119, Note_on_c, 0, 54, 0
2, 45120, Note_on_c, 0, 55, 80
2, 45239, Note_on_c, 0, 55, 0
2, 45240, Note_on_c, 0, 57, 80
2, 45359, Note_on_c, 0, 57, 0
2, 45360, Note_on_c, 0, 59, 80
2, 45479, Note_on_c, 0, 59, 0
2, 45480, Note_on_c, 0, 61, 80
2, 45599, Note_on_c, 0, 61, 0
2, 45600, Note_on_c, 0, 62, 80
2, 46079, Note_on_c, 0, 62, 0
2, 46080, Note_on_c, 0, 38, 80
2, 46319, Note_on_c, 0, 38, 0
2, 46320, Note_on_c, 0, 54, 80
2, 46439, Note_on_c, 0, 54, 0
2, 46440, Note_on_c, 0, 52, 80
2, 46559, Note_on_c, 0, 52, 0
2, 46560, Note_on_c, 0, 54, 80
2, 46799, Note_on_c, 0, 54, 0
2, 46800, Note_on_c, 0, 50, 80
2, 47039, Note_on_c, 0, 50, 0
2, 47040, Note_on_c, 0, 38, 80
2, 47279, Note_on_c, 0, 38, 0
2, 47280, Note_on_c, 0, 54, 80
2, 47519, Note_on_c, 0, 54, 0
2, 47520, Note_on_c, 0, 43, 80
2, 47759, Note_on_c, 0, 43, 0
2, 47760, Note_on_c, 0, 59, 80
2, 47879, Note_on_c, 0, 59, 0
2, 47880, Note_on_c, 0, 57, 80
2, 47999, Note_on_c, 0, 57, 0
2, 48000, Note_on_c, 0, 59, 80
2, 48239, Note_on_c, 0, 59, 0
2, 48240, Note_on_c, 0, 55, 80
2, 48479, Note_on_c, 0, 55, 0
2, 48480, Note_on_c, 0, 43, 80
2, 48719, Note_on_c, 0, 43, 0
2, 48720, Note_on_c, 0, 59, 80
2, 48959, Note_on_c, 0, 59, 0
2, 48960, Note_on_c, 0, 48, 80
2, 49199, Note_on_c, 0, 48, 0
2, 49200, Note_on_c, 0, 60, 80
2, 49319, Note_on_c, 0, 60, 0
2, 49320, Note_on_c, 0, 59, 80
2, 49439, Note_on_c, 0, 59, 0
2, 49440, Note_on_c, 0, 60, 80
2, 49679, Note_on_c, 0, 60, 0
2, 49680, Note_on_c, 0, 54, 80
2, 49919, Note_on_c, 0, 54, 0
2, 49920, Note_on_c, 0, 57, 80
2, 50159, Note_on_c, 0, 57, 0
2, 50160, Note_on_c, 0, 60, 80
2, 50399, Note_on_c, 0, 60, 0
2, 50400, Note_on_c, 0, 57, 80
2, 50639, Note_on_c, 0, 57, 0
2, 50640, Note_on_c, 0, 54, 80
2, 50879, Note_on_c, 0, 54, 0
2, 50880, Note_on_c, 0, 51, 80
2, 50999, Note_on_c, 0, 51, 0
2, 51000, Note_on_c, 0, 47, 80
2, 51119, Note_on_c, 0, 47, 0
2, 51120, Note_on_c, 0, 51, 80
2, 51239, Note_on_c, 0, 51, 0
2, 51240, Note_on_c, 0, 54, 80
2, 51359, Note_on_c, 0, 54, 0
2, 51360, Note_on_c, 0, 59, 80
2, 51479, Note_on_c, 0, 59, 0
2, 51480, Note_on_c, 0, 63, 80
2, 51599, Note_on_c, 0, 63, 0
2, 51600, Note_on_c, 0, 66, 80
2, 51719, Note_on_c, 0, 66, 0
2, 51720, Note_on_c, 0, 69, 80
2, 51839, Note_on_c, 0, 69, 0
2, 51840, Note_on_c, 0, 67, 80
2, 52199, Note_on_c, 0, 67, 0
2, 52200, Note_on_c, 0, 66, 80
2, 52319, Note_on_c, 0, 66, 0
2, 52320, Note_on_c, 0, 67, 80
2, 52679, Note_on_c, 0, 67, 0
2, 52680, Note_on_c, 0, 54, 80
2, 52799, Note_on_c, 0, 54, 0
2, 52800, Note_on_c, 0, 55, 80
2, 53159, Note_on_c, 0, 55, 0
2, 53160, Note_on_c, 0, 47, 80
2, 53279, Note_on_c, 0, 47, 0
2, 53280, Note_on_c, 0, 48, 80
2, 53639, Note_on_c, 0, 48, 0
2, 53640, Note_on_c, 0, 71, 80
2, 53759, Note_on_c, 0, 71, 0
2, 53760, Note_on_c, 0, 72, 80
2, 54119, Note_on_c, 0, 72, 0
2, 54120, Note_on_c, 0, 59, 80
2, 54239, Note_on_c, 0, 59, 0
2, 54240, Note_on_c, 0, 60, 80
2, 54599, Note_on_c, 0, 60, 0
2, 54600, Note_on_c, 0, 52, 80
2, 54719, Note_on_c, 0, 52, 0
2, 54720, Note_on_c, 0, 51, 80
2, 54959, Note_on_c, 0, 51, 0
2, 54960, Note_on_c, 0, 57, 80
2, 55199, Note_on_c, 0, 57, 0
2, 55200, Note_on_c, 0, 55, 80
2, 55439, Note_on_c, 0, 55, 0
2, 55440, Note_on_c, 0, 46, 80
2, 55679, Note_on_c, 0, 46, 0
2, 55680, Note_on_c, 0, 47, 80
2, 55919, Note_on_c, 0, 47, 0
2, 55920, Note_on_c, 0, 54, 80
2, 56159, Note_on_c, 0, 54, 0
2, 56160, Note_on_c, 0, 52, 80
2, 56399, Note_on_c, 0, 52, 0
2, 56400, Note_on_c, 0, 55, 80
2, 56519, Note_on_c, 0, 55, 0
2, 56520, Note_on_c, 0, 54, 80
2, 56639, Note_on_c, 0, 54, 0
2, 56640, Note_on_c, 0, 55, 80
2, 56879, Note_on_c, 0, 55, 0
2, 56880, Note_on_c, 0, 52, 80
2, 57119, Note_on_c, 0, 52, 0
2, 57120, Note_on_c, 0, 40, 80
2, 57359, Note_on_c, 0, 40, 0
2, 57480, Note_on_c, 0, 50, 80
2, 57599, Note_on_c, 0, 50, 0
2, 57600, Note_on_c, 0, 48, 80
2, 57719, Note_on_c, 0, 48, 0
2, 57720, Note_on_c, 0, 52, 80
2, 57839, Note_on_c, 0, 52, 0
2, 57840, Note_on_c, 0, 57, 80
2, 57959, Note_on_c, 0, 57, 0
2, 57960, Note_on_c, 0, 60, 80
2, 58079, Note_on_c, 0, 60, 0
2, 58080, Note_on_c, 0, 64, 80
2, 58199, Note_on_c, 0, 64, 0
2, 58200, Note_on_c, 0, 60, 80
2, 58319, Note_on_c, 0, 60, 0
2, 58320, Note_on_c, 0, 57, 80
2, 58439, Note_on_c, 0, 57, 0
2, 58440, Note_on_c, 0, 52, 80
2, 58559, Note_on_c, 0, 52, 0
2, 58560, Note_on_c, 0, 48, 80
2, 58679, Note_on_c, 0, 48, 0
2, 58680, Note_on_c, 0, 52, 80
2, 58799, Note_on_c, 0, 52, 0
2, 58800, Note_on_c, 0, 50, 80
2, 58919, Note_on_c, 0, 50, 0
2, 58920, Note_on_c, 0, 48, 80
2, 59039, Note_on_c, 0, 48, 0
2, 59040, Note_on_c, 0, 47, 80
2, 59159, Note_on_c, 0, 47, 0
2, 59160, Note_on_c, 0, 50, 80
2, 59279, Note_on_c, 0, 50, 0
2, 59280, Note_on_c, 0, 55, 80
2, 59399, Note_on_c, 0, 55, 0
2, 59400, Note_on_c, 0, 59, 80
2, 59519, Note_on_c, 0, 59, 0
2, 59520, Note_on_c, 0, 62, 80
2, 59639, Note_on_c, 0, 62, 0
2, 59640, Note_on_c, 0, 59, 80
2, 59759, Note_on_c, 0, 59, 0
2, 59760, Note_on_c, 0, 55, 80
2, 59879, Note_on_c, 0, 55, 0
2, 59880, Note_on_c, 0, 50, 80
2, 59999, Note_on_c, 0, 50, 0
2, 60000, Note_on_c, 0, 47, 80
2, 60119, Note_on_c, 0, 47, 0
2, 60120, Note_on_c, 0, 50, 80
2, 60239, Note_on_c, 0, 50, 0
2, 60240, Note_on_c, 0, 48, 80
2, 60359, Note_on_c, 0, 48, 0
2, 60360, Note_on_c, 0, 47, 80
2, 60479, Note_on_c, 0, 47, 0
2, 60480, Note_on_c, 0, 45, 80
2, 60719, Note_on_c, 0, 45, 0
2, 60720, Note_on_c, 0, 48, 80
2, 60959, Note_on_c, 0, 48, 0
2, 60960, Note_on_c, 0, 52, 80
2, 61199, Note_on_c, 0, 52, 0
2, 61200, Note_on_c, 0, 55, 80
2, 61439, Note_on_c, 0, 55, 0
2, 61440, Note_on_c, 0, 54, 80
2, 61679, Note_on_c, 0, 54, 0
2, 61680, Note_on_c, 0, 52, 80
2, 61919, Note_on_c, 0, 52, 0
2, 61920, Note_on_c, 0, 50, 80
2, 62159, Note_on_c, 0, 50, 0
2, 62160, Note_on_c, 0, 54, 80
2, 62399, Note_on_c, 0, 54, 0
2, 62400, Note_on_c, 0, 57, 80
2, 62639, Note_on_c, 0, 57, 0
2, 62640, Note_on_c, 0, 60, 80
2, 62879, Note_on_c, 0, 60, 0
2, 62880, Note_on_c, 0, 59, 80
2, 63119, Note_on_c, 0, 59, 0
2, 63120, Note_on_c, 0, 57, 80
2, 63359, Note_on_c, 0, 57, 0
2, 63360, Note_on_c, 0, 55, 80
2, 63599, Note_on_c, 0, 55, 0
2, 63600, Note_on_c, 0, 59, 80
2, 63839, Note_on_c, 0, 59, 0
2, 63840, Note_on_c, 0, 62, 80
2, 64079, Note_on_c, 0, 62, 0
2, 64080, Note_on_c, 0, 65, 80
2, 64319, Note_on_c, 0, 65, 0
2, 64320, Note_on_c, 0, 64, 80
2, 64559, Note_on_c, 0, 64, 0
2, 64560, Note_on_c, 0, 62, 80
2, 64799, Note_on_c, 0, 62, 0
2, 64800, Note_on_c, 0, 60, 80
2, 65039, Note_on_c, 0, 60, 0
2, 65040, Note_on_c, 0, 64, 80
2, 65279, Note_on_c, 0, 64, 0
2, 65280, Note_on_c, 0, 66, 80
2, 65519, Note_on_c, 0, 66, 0
2, 65520, Note_on_c, 0, 68, 80
2, 65759, Note_on_c, 0, 68, 0
2, 65760, Note_on_c, 0, 69, 80
2, 65999, Note_on_c, 0, 69, 0
2, 66000, Note_on_c, 0, 67, 80
2, 66239, Note_on_c, 0, 67, 0
2, 66240, Note_on_c, 0, 66, 80
2, 66479, Note_on_c, 0, 66, 0
2, 66480, Note_on_c, 0, 62, 80
2, 66719, Note_on_c, 0, 62, 0
2, 66720, Note_on_c, 0, 67, 80
2, 66959, Note_on_c, 0, 67, 0
2, 66960, Note_on_c, 0, 55, 80
2, 67199, Note_on_c, 0, 55, 0
2, 67200, Note_on_c, 0, 62, 80
2, 67439, Note_on_c, 0, 62, 0
2, 67440, Note_on_c, 0, 50, 80
2, 67679, Note_on_c, 0, 50, 0
2, 67680, Note_on_c, 0, 55, 80
2, 67799, Note_on_c, 0, 55, 0
2, 67800, Note_on_c, 0, 43, 80
2, 67919, Note_on_c, 0, 43, 0
2, 67920, Note_on_c, 0, 45, 80
2, 68039, Note_on_c, 0, 45, 0
2, 68040, Note_on_c, 0, 47, 80
2, 68159, Note_on_c, 0, 47, 0
2, 68160, Note_on_c, 0, 48, 80
2, 68279, Note_on_c, 0, 48, 0
2, 68280, Note_on_c, 0, 50, 80
2, 68399, Note_on_c, 0, 50, 0
2, 68400, Note_on_c, 0, 52, 80
2, 68519, Note_on_c, 0, 52, 0
2, 68520, Note_on_c, 0, 54, 80
2, 68639, Note_on_c, 0, 54, 0
2, 68640, Note_on_c, 0, 55, 80
2, 69119, Note_on_c, 0, 55, 0
2, 69120, Note_on_c, 0, 38, 80
2, 69359, Note_on_c, 0, 38, 0
2, 69360, Note_on_c, 0, 54, 80
2, 69479, Note_on_c, 0, 54, 0
2, 69480, Note_on_c, 0, 52, 80
2, 69599, Note_on_c, 0, 52, 0
2, 69600, Note_on_c, 0, 54, 80
2, 69839, Note_on_c, 0, 54, 0
2, 69840, Note_on_c, 0, 50, 80
2, 70079, Note_on_c, 0, 50, 0
2, 70080, Note_on_c, 0, 38, 80
2, 70319, Note_on_c, 0, 38, 0
2, 70320, Note_on_c, 0, 54, 80
2, 70559, Note_on_c, 0, 54, 0
2, 70560, Note_on_c, 0, 43, 80
2, 70799, Note_on_c, 0, 43, 0
2, 70800, Note_on_c, 0, 59, 80
2, 70919, Note_on_c, 0, 59, 0
2, 70920, Note_on_c, 0, 57, 80
2, 71039, Note_on_c, 0, 57, 0
2, 71040, Note_on_c, 0, 59, 80
2, 71279, Note_on_c, 0, 59, 0
2, 71280, Note_on_c, 0, 55, 80
2, 71519, Note_on_c, 0, 55, 0
2, 71520, Note_on_c, 0, 43, 80
2, 71759, Note_on_c, 0, 43, 0
2, 71760, Note_on_c, 0, 59, 80
2, 71999, Note_on_c, 0, 59, 0
2, 72000, Note_on_c, 0, 48, 80
2, 72239, Note_on_c, 0, 48, 0
2, 72240, Note_on_c, 0, 60, 80
2, 72359, Note_on_c, 0, 60, 0
2, 72360, Note_on_c, 0, 59, 80
2, 72479, Note_on_c, 0, 59, 0
2, 72480, Note_on_c, 0, 60, 80
2, 72719, Note_on_c, 0, 60, 0
2, 72720, Note_on_c, 0, 54, 80
2, 72959, Note_on_c, 0, 54, 0
2, 72960, Note_on_c, 0, 57, 80
2, 73199, Note_on_c, 0, 57, 0
2, 73200, Note_on_c, 0, 60, 80
2, 73439, Note_on_c, 0, 60, 0
2, 73440, Note_on_c, 0, 57, 80
2, 73679, Note_on_c, 0, 57, 0
2, 73680, Note_on_c, 0, 54, 80
2, 73919, Note_on_c, 0, 54, 0
2, 73920, Note_on_c, 0, 51, 80
2, 74039, Note_on_c, 0, 51, 0
2, 74040, Note_on_c, 0, 47, 80
2, 74159, Note_on_c, 0, 47, 0
2, 74160, Note_on_c, 0, 51, 80
2, 74279, Note_on_c, 0, 51, 0
2, 74280, Note_on_c, 0, 54, 80
2, 74399, Note_on_c, 0, 54, 0
2, 74400, Note_on_c, 0, 59, 80
2, 74519, Note_on_c, 0, 59, 0
2, 74520, Note_on_c, 0, 63, 80
2, 74639, Note_on_c, 0, 63, 0
2, 74640, Note_on_c, 0, 66, 80
2, 74759, Note_on_c, 0, 66, 0
2, 74760, Note_on_c, 0, 69, 80
2, 74879, Note_on_c, 0, 69, 0
2, 74880, Note_on_c, 0, 67, 80
2, 75239, Note_on_c, 0, 67, 0
2, 75240, Note_on_c, 0, 66, 80
2, 75359, Note_on_c, 0, 66, 0
2, 75360, Note_on_c, 0, 67, 80
2, 75719, Note_on_c, 0, 67, 0
2, 75720, Note_on_c, 0, 54, 80
2, 75839, Note_on_c, 0, 54, 0
2, 75840, Note_on_c, 0, 55, 80
2, 76199, Note_on_c, 0, 55, 0
2, 76200, Note_on_c, 0, 47, 80
2, 76319, Note_on_c, 0, 47, 0
2, 76320, Note_on_c, 0, 48, 80
2, 76679, Note_on_c, 0, 48, 0
2, 76680, Note_on_c, 0, 71, 80
2, 76799, Note_on_c, 0, 71, 0
2, 76800, Note_on_c, 0, 72, 80
2, 77159, Note_on_c, 0, 72, 0
2, 77160, Note_on_c, 0, 59, 80
2, 77279, Note_on_c, 0, 59, 0
2, 77280, Note_on_c, 0, 60, 80
2, 77639, Note_on_c, 0, 60, 0
2, 77640, Note_on_c, 0, 52, 80
2, 77759, Note_on_c, 0, 52, 0
2, 77760, Note_on_c, 0, 51, 80
2, 77999, Note_on_c, 0, 51, 0
2, 78000, Note_on_c, 0, 57, 80
2, 78239, Note_on_c, 0, 57, 0
2, 78240, Note_on_c, 0, 55, 80
2, 78479, Note_on_c, 0, 55, 0
2, 78480, Note_on_c, 0, 46, 80
2, 78719, Note_on_c, 0, 46, 0
2, 78720, Note_on_c, 0, 47, 80
2, 78959, Note_on_c, 0, 47, 0
2, 78960, Note_on_c, 0, 54, 80
2, 79199, Note_on_c, 0, 54, 0
2, 79200, Note_on_c, 0, 52, 80
2, 79439, Note_on_c, 0, 52, 0
2, 79440, Note_on_c, 0, 55, 80
2, 79559, Note_on_c, 0, 55, 0
2, 79560, Note_on_c, 0, 54, 80
2, 79679, Note_on_c, 0, 54, 0
2, 79680, Note_on_c, 0, 55, 80
2, 79919, Note_on_c, 0, 55, 0
2, 79920, Note_on_c, 0, 52, 80
2, 80159, Note_on_c, 0, 52, 0
2, 80160, Note_on_c, 0, 40, 80
2, 80399, Note_on_c, 0, 40, 0
2, 80520, Note_on_c, 0, 50, 80
2, 80639, Note_on_c, 0, 50, 0
2, 80640, Note_on_c, 0, 48, 80
2, 80759, Note_on_c, 0, 48, 0
2, 80760, Note_on_c, 0, 52, 80
2, 80879, Note_on_c, 0, 52, 0
2, 80880, Note_on_c, 0, 57, 80
2, 80999, Note_on_c, 0, 57, 0
2, 81000, Note_on_c, 0, 60, 80
2, 81119, Note_on_c, 0, 60, 0
2, 81120, Note_on_c, 0, 64, 80
2, 81239, Note_on_c, 0, 64, 0
2, 81240, Note_on_c, 0, 60, 80
2, 81359, Note_on_c, 0, 60, 0
2, 81360, Note_on_c, 0, 57, 80
2, 81479, Note_on_c, 0, 57, 0
2, 81480, Note_on_c, 0, 52, 80
2, 81599, Note_on_c, 0, 52, 0
2, 81600, Note_on_c, 0, 48, 80
2, 81719, Note_on_c, 0, 48, 0
2, 81720, Note_on_c, 0, 52, 80
2, 81839, Note_on_c, 0, 52, 0
2, 81840, Note_on_c, 0, 50, 80
2, 81959, Note_on_c, 0, 50, 0
2, 81960, Note_on_c, 0, 48, 80
2, 82079, Note_on_c, 0, 48, 0
2, 82080, Note_on_c, 0, 47, 80
2, 82199, Note_on_c, 0, 47, 0
2, 82200, Note_on_c, 0, 50, 80
2, 82319, Note_on_c, 0, 50, 0
2, 82320, Note_on_c, 0, 55, 80
2, 82439, Note_on_c, 0, 55, 0
2, 82440, Note_on_c, 0, 59, 80
2, 82559, Note_on_c, 0, 59, 0
2, 82560, Note_on_c, 0, 62, 80
2, 82679, Note_on_c, 0, 62, 0
2, 82680, Note_on_c, 0, 59, 80
2, 82799, Note_on_c, 0, 59, 0
2, 82800, Note_on_c, 0, 55, 80
2, 82919, Note_on_c, 0, 55, 0
2, 82920, Note_on_c, 0, 50, 80
2, 83039, Note_on_c, 0, 50, 0
2, 83040, Note_on_c, 0, 47, 80
2, 83159, Note_on_c, 0, 47, 0
2, 83160, Note_on_c, 0, 50, 80
2, 83279, Note_on_c, 0, 50, 0
2, 83280, Note_on_c, 0, 48, 80
2, 83399, Note_on_c, 0, 48, 0
2, 83400, Note_on_c, 0, 47, 80
2, 83519, Note_on_c, 0, 47, 0
2, 83520, Note_on_c, 0, 45, 80
2, 83759, Note_on_c, 0, 45, 0
2, 83760, Note_on_c, 0, 48, 80
2, 83999, Note_on_c, 0, 48, 0
2, 84000, Note_on_c, 0, 52, 80
2, 84239, Note_on_c, 0, 52, 0
2, 84240, Note_on_c, 0, 55, 80
2, 84479, Note_on_c, 0, 55, 0
2, 84480, Note_on_c, 0, 54, 80
2, 84719, Note_on_c, 0, 54, 0
2, 84720, Note_on_c, 0, 52, 80
2, 84959, Note_on_c, 0, 52, 0
2, 84960, Note_on_c, 0, 50, 80
2, 85199, Note_on_c, 0, 50, 0
2, 85200, Note_on_c, 0, 54, 80
2, 85439, Note_on_c, 0, 54, 0
2, 85440, Note_on_c, 0, 57, 80
2, 85679, Note_on_c, 0, 57, 0
2, 85680, Note_on_c, 0, 60, 80
2, 85919, Note_on_c, 0, 60, 0
2, 85920, Note_on_c, 0, 59, 80
2, 86159, Note_on_c, 0, 59, 0
2, 86160, Note_on_c, 0, 57, 80
2, 86399, Note_on_c, 0, 57, 0
2, 86400, Note_on_c, 0, 55, 80
2, 86639, Note_on_c, 0, 55, 0
2, 86640, Note_on_c, 0, 59, 80
2, 86879, Note_on_c, 0, 59, 0
2, 86880, Note_on_c, 0, 62, 80
2, 87119, Note_on_c, 0, 62, 0
2, 87120, Note_on_c, 0, 65, 80
2, 87359, Note_on_c, 0, 65, 0
2, 87360, Note_on_c, 0, 64, 80
2, 87599, Note_on_c, 0, 64, 0
2, 87600, Note_on_c, 0, 62, 80
2, 87839, Note_on_c, 0, 62, 0
2, 87840, Note_on_c, 0, 60, 80
2, 88079, Note_on_c, 0, 60, 0
2, 88080, Note_on_c, 0, 64, 80
2, 88319, Note_on_c, 0, 64, 0
2, 88320, Note_on_c, 0, 66, 80
2, 88559, Note_on_c, 0, 66, 0
2, 88560, Note_on_c, 0, 68, 80
2, 88799, Note_on_c, 0, 68, 0
2, 88800, Note_on_c, 0, 69, 80
2, 89039, Note_on_c, 0, 69, 0
2, 89040, Note_on_c, 0, 67, 80
2, 89279, Note_on_c, 0, 67, 0
2, 89280, Note_on_c, 0, 66, 80
2, 89519, Note_on_c, 0, 66, 0
2, 89520, Note_on_c, 0, 62, 80
2, 89759, Note_on_c, 0, 62, 0
2, 89760, Note_on_c, 0, 67, 80
2, 89999, Note_on_c, 0, 67, 0
2, 90000, Note_on_c, 0, 55, 80
2, 90239, Note_on_c, 0, 55, 0
2, 90240, Note_on_c, 0, 62, 80
2, 90479, Note_on_c, 0, 62, 0
2, 90480, Note_on_c, 0, 50, 80
2, 90719, Note_on_c, 0, 50, 0
2, 90720, Note_on_c, 0, 55, 80
2, 90839, Note_on_c, 0, 55, 0
2, 90840, Note_on_c, 0, 43, 80
2, 90959, Note_on_c, 0, 43, 0
2, 90960, Note_on_c, 0, 45, 80
2, 91079, Note_on_c, 0, 45, 0
2, 91080, Note_on_c, 0, 47, 80
2, 91199, Note_on_c, 0, 47, 0
2, 91200, Note_on_c, 0, 48, 80
2, 91319, Note_on_c, 0, 48, 0
2, 91320, Note_on_c, 0, 50, 80
2, 91439, Note_on_c, 0, 50, 0
2, 91440, Note_on_c, 0, 52, 80
2, 91559, Note_on_c, 0, 52, 0
2, 91560, Note_on_c, 0, 54, 80
2, 91679, Note_on_c, 0, 54, 0
2, 91680, Note_on_c, 0, 55, 80
2, 92159, Note_on_c, 0, 55, 0
2, 92160, End_track
0, 0, End_of_file
