0, 0, Header, 1, 2, 480
1, 0, Start_track
1, 0, Unknown_meta_event, 10, 11, 74, 46, 32, 83, 46, 32, 66, 97, 99, 104, 0
1, 0, Unknown_meta_event, 8, 35, 71, 111, 108, 100, 98, 101, 114, 103, 32, 86, 97, 114, 105, 97, 116, 105, 111, 110, 115, 58, 32, 86, 97, 114, 105, 97, 116, 105, 111, 110, 32, 88, 86, 73, 0
1, 0, Unknown_meta_event, 9, 8, 66, 87, 86, 32, 57, 56, 56, 0
1, 0, Time_signature, 2, 1, 24, 8
1, 0, Key_signature, 1, "major"
1, 0, Program_c, 0, 46
1, 2, Control_c, 0, 7, 100
1, 4, Control_c, 0, 10, 64
1, 6, Control_c, 0, 91, 30
1, 8, Control_c, 0, 93, 30
1, 540, Note_on_c, 0, 67, 80
1, 599, Note_on_c, 0, 67, 0
1, 600, Note_on_c, 0, 69, 80
1, 659, Note_on_c, 0, 69, 0
1, 660, Note_on_c, 0, 71, 80
1, 719, Note_on_c, 0, 71, 0
1, 720, Note_on_c, 0, 72, 80
1, 779, Note_on_c, 0, 72, 0
1, 780, Note_on_c, 0, 74, 80
1, 839, Note_on_c, 0, 74, 0
1, 840, Note_on_c, 0, 76, 80
1, 899, Note_on_c, 0, 76, 0
1, 900, Note_on_c, 0, 78, 80
1, 959, Note_on_c, 0, 78, 0
1, 960, Note_on_c, 0, 79, 80
1, 1199, Note_on_c, 0, 79, 0
1, 1320, Note_on_c, 0, 74, 80
1, 1439, Note_on_c, 0, 74, 0
1, 1440, Note_on_c, 0, 71, 80
1, 1679, Note_on_c, 0, 71, 0
1, 1800, Note_on_c, 0, 67, 80
1, 1919, Note_on_c, 0, 67, 0
1, 1920, Note_on_c, 0, 74, 80
1, 1979, Note_on_c, 0, 74, 0
1, 1980, Note_on_c, 0, 72, 80
1, 2039, Note_on_c, 0, 72, 0
1, 2040, Note_on_c, 0, 74, 80
1, 2639, Note_on_c, 0, 74, 0
1, 2640, Note_on_c, 0, 76, 80
1, 2879, Note_on_c, 0, 76, 0
1, 2880, Note_on_c, 0, 74, 80
1, 2939, Note_on_c, 0, 74, 0
1, 2940, Note_on_c, 0, 72, 80
1, 2999, Note_on_c, 0, 72, 0
1, 3000, Note_on_c, 0, 71, 80
1, 3059, Note_on_c, 0, 71, 0
1, 3060, Note_on_c, 0, 72, 80
1, 3119, Note_on_c, 0, 72, 0
1, 3120, Note_on_c, 0, 74, 80
1, 3179, Note_on_c, 0, 74, 0
1, 3180, Note_on_c, 0, 72, 80
1, 3239, Note_on_c, 0, 72, 0
1, 3240, Note_on_c, 0, 74, 80
1, 3299, Note_on_c, 0, 74, 0
1, 3300, Note_on_c, 0, 72, 80
1, 3359, Note_on_c, 0, 72, 0
1, 3360, Note_on_c, 0, 74, 80
1, 3419, Note_on_c, 0, 74, 0
1, 3420, Note_on_c, 0, 72, 80
1, 3479, Note_on_c, 0, 72, 0
1, 3480, Note_on_c, 0, 74, 80
1, 3539, Note_on_c, 0, 74, 0
1, 3540, Note_on_c, 0, 72, 80
1, 3659, Note_on_c, 0, 72, 0
1, 3660, Note_on_c, 0, 71, 80
1, 3719, Note_on_c, 0, 71, 0
1, 3720, Note_on_c, 0, 72, 80
1, 3779, Note_on_c, 0, 72, 0
1, 3780, Note_on_c, 0, 74, 80
1, 3839, Note_on_c, 0, 74, 0
1, 3840, Note_on_c, 0, 67, 80
1, 4199, Note_on_c, 0, 67, 0
1, 4200, Note_on_c, 0, 79, 80
1, 4259, Note_on_c, 0, 79, 0
1, 4260, Note_on_c, 0, 78, 80
1, 4319, Note_on_c, 0, 78, 0
1, 4320, Note_on_c, 0, 79, 80
1, 4679, Note_on_c, 0, 79, 0
1, 4680, Note_on_c, 0, 76, 80
1, 4799, Note_on_c, 0, 76, 0
1, 4800, Note_on_c, 0, 74, 80
1, 5039, Note_on_c, 0, 74, 0
1, 5040, Note_on_c, 0, 73, 80
1, 5160, Note_on_c, 0, 83, 80
1, 5279, Note_on_c, 0, 83, 0
1, 5280, Note_on_c, 0, 81, 80
1, 5399, Note_on_c, 0, 73, 0
1, 5639, Note_on_c, 0, 81, 0
1, 5640, Note_on_c, 0, 79, 80
1, 5759, Note_on_c, 0, 79, 0
1, 5760, Note_on_c, 0, 79, 80
1, 5819, Note_on_c, 0, 79, 0
1, 5820, Note_on_c, 0, 78, 80
1, 5879, Note_on_c, 0, 78, 0
1, 5880, Note_on_c, 0, 76, 80
1, 5939, Note_on_c, 0, 76, 0
1, 5940, Note_on_c, 0, 78, 80
1, 5999, Note_on_c, 0, 78, 0
1, 6000, Note_on_c, 0, 79, 80
1, 6059, Note_on_c, 0, 79, 0
1, 6060, Note_on_c, 0, 78, 80
1, 6119, Note_on_c, 0, 78, 0
1, 6120, Note_on_c, 0, 79, 80
1, 6179, Note_on_c, 0, 79, 0
1, 6180, Note_on_c, 0, 78, 80
1, 6239, Note_on_c, 0, 78, 0
1, 6240, Note_on_c, 0, 79, 80
1, 6299, Note_on_c, 0, 79, 0
1, 6300, Note_on_c, 0, 78, 80
1, 6359, Note_on_c, 0, 78, 0
1, 6360, Note_on_c, 0, 79, 80
1, 6419, Note_on_c, 0, 79, 0
1, 6420, Note_on_c, 0, 78, 80
1, 6479, Note_on_c, 0, 78, 0
1, 6480, Note_on_c, 0, 79, 80
1, 6719, Note_on_c, 0, 79, 0
1, 6720, Note_on_c, 0, 79, 80
1, 6959, Note_on_c, 0, 79, 0
1, 6960, Note_on_c, 0, 81, 80
1, 7980, Note_on_c, 0, 81, 80
1, 8039, Note_on_c, 0, 81, 0
1, 8040, Note_on_c, 0, 79, 80
1, 8099, Note_on_c, 0, 79, 0
1, 8100, Note_on_c, 0, 78, 80
1, 8159, Note_on_c, 0, 78, 0
1, 8160, Note_on_c, 0, 79, 80
1, 8219, Note_on_c, 0, 81, 0
1, 8519, Note_on_c, 0, 79, 0
1, 8520, Note_on_c, 0, 74, 80
1, 8625, Note_on_c, 0, 76, 80
1, 8639, Note_on_c, 0, 76, 0
1, 8640, Note_on_c, 0, 77, 80
1, 8699, Note_on_c, 0, 77, 0
1, 8700, Note_on_c, 0, 76, 80
1, 8759, Note_on_c, 0, 76, 0
1, 8760, Note_on_c, 0, 77, 80
1, 9359, Note_on_c, 0, 77, 0
1, 9360, Note_on_c, 0, 79, 80
1, 9540, Note_on_c, 0, 77, 80
1, 9599, Note_on_c, 0, 77, 0
1, 9599, Note_on_c, 0, 79, 0
1, 9599, Note_on_c, 0, 74, 0
1, 9600, Note_on_c, 0, 72, 80
1, 9600, Note_on_c, 0, 76, 80
1, 9839, Note_on_c, 0, 72, 0
1, 9899, Note_on_c, 0, 76, 0
1, 9900, Note_on_c, 0, 76, 80
1, 9959, Note_on_c, 0, 76, 0
1, 9960, Note_on_c, 0, 74, 80
1, 10019, Note_on_c, 0, 74, 0
1, 10020, Note_on_c, 0, 72, 80
1, 10079, Note_on_c, 0, 72, 0
1, 10080, Note_on_c, 0, 72, 80
1, 10319, Note_on_c, 0, 72, 0
1, 10380, Note_on_c, 0, 71, 80
1, 10439, Note_on_c, 0, 71, 0
1, 10440, Note_on_c, 0, 69, 80
1, 10499, Note_on_c, 0, 69, 0
1, 10500, Note_on_c, 0, 67, 80
1, 10559, Note_on_c, 0, 67, 0
1, 10560, Note_on_c, 0, 69, 80
1, 10919, Note_on_c, 0, 69, 0
1, 10920, Note_on_c, 0, 69, 80
1, 11039, Note_on_c, 0, 69, 0
1, 11040, Note_on_c, 0, 79, 80
1, 11099, Note_on_c, 0, 79, 0
1, 11100, Note_on_c, 0, 77, 80
1, 11159, Note_on_c, 0, 77, 0
1, 11160, Note_on_c, 0, 79, 80
1, 11399, Note_on_c, 0, 79, 0
1, 11400, Note_on_c, 0, 79, 80
1, 11519, Note_on_c, 0, 79, 0
1, 11520, Note_on_c, 0, 74, 80
1, 11520, Note_on_c, 0, 71, 80
1, 11520, Note_on_c, 0, 79, 80
1, 11999, Note_on_c, 0, 74, 0
1, 11999, Note_on_c, 0, 71, 0
1, 12059, Note_on_c, 0, 79, 0
1, 12060, Note_on_c, 0, 83, 80
1, 12119, Note_on_c, 0, 83, 0
1, 12120, Note_on_c, 0, 81, 80
1, 12179, Note_on_c, 0, 81, 0
1, 12180, Note_on_c, 0, 79, 80
1, 12239, Note_on_c, 0, 79, 0
1, 12240, Note_on_c, 0, 78, 80
1, 12299, Note_on_c, 0, 78, 0
1, 12300, Note_on_c, 0, 76, 80
1, 12359, Note_on_c, 0, 76, 0
1, 12360, Note_on_c, 0, 74, 80
1, 12419, Note_on_c, 0, 74, 0
1, 12420, Note_on_c, 0, 72, 80
1, 12479, Note_on_c, 0, 72, 0
1, 12480, Note_on_c, 0, 81, 80
1, 12839, Note_on_c, 0, 81, 0
1, 12840, Note_on_c, 0, 72, 80
1, 12959, Note_on_c, 0, 72, 0
1, 12960, Note_on_c, 0, 81, 80
1, 13319, Note_on_c, 0, 81, 0
1, 13320, Note_on_c, 0, 72, 80
1, 13439, Note_on_c, 0, 72, 0
1, 13440, Note_on_c, 0, 72, 80
1, 13499, Note_on_c, 0, 72, 0
1, 13500, Note_on_c, 0, 71, 80
1, 13559, Note_on_c, 0, 71, 0
1, 13560, Note_on_c, 0, 69, 80
1, 13619, Note_on_c, 0, 69, 0
1, 13620, Note_on_c, 0, 71, 80
1, 13679, Note_on_c, 0, 71, 0
1, 13680, Note_on_c, 0, 72, 80
1, 13739, Note_on_c, 0, 72, 0
1, 13740, Note_on_c, 0, 71, 80
1, 13799, Note_on_c, 0, 71, 0
1, 13800, Note_on_c, 0, 72, 80
1, 13859, Note_on_c, 0, 72, 0
1, 13860, Note_on_c, 0, 71, 80
1, 13919, Note_on_c, 0, 71, 0
1, 13920, Note_on_c, 0, 72, 80
1, 13979, Note_on_c, 0, 72, 0
1, 13980, Note_on_c, 0, 71, 80
1, 14039, Note_on_c, 0, 71, 0
1, 14040, Note_on_c, 0, 72, 80
1, 14099, Note_on_c, 0, 72, 0
1, 14100, Note_on_c, 0, 71, 80
1, 14159, Note_on_c, 0, 71, 0
1, 14220, Note_on_c, 0, 69, 80
1, 14279, Note_on_c, 0, 69, 0
1, 14280, Note_on_c, 0, 67, 80
1, 14339, Note_on_c, 0, 67, 0
1, 14340, Note_on_c, 0, 66, 80
1, 14399, Note_on_c, 0, 66, 0
1, 14400, Note_on_c, 0, 67, 80
1, 14519, Note_on_c, 0, 67, 0
1, 14520, Note_on_c, 0, 74, 80
1, 14639, Note_on_c, 0, 74, 0
1, 14640, Note_on_c, 0, 76, 80
1, 14759, Note_on_c, 0, 76, 0
1, 14760, Note_on_c, 0, 78, 80
1, 14879, Note_on_c, 0, 78, 0
1, 14880, Note_on_c, 0, 79, 80
1, 14999, Note_on_c, 0, 79, 0
1, 15000, Note_on_c, 0, 78, 80
1, 15119, Note_on_c, 0, 78, 0
1, 15120, Note_on_c, 0, 79, 80
1, 15239, Note_on_c, 0, 79, 0
1, 15240, Note_on_c, 0, 81, 80
1, 15359, Note_on_c, 0, 81, 0
1, 15360, Note_on_c, 0, 71, 80
1, 15360, Note_on_c, 0, 83, 80
1, 15479, Note_on_c, 0, 71, 0
1, 15599, Note_on_c, 0, 83, 0
1, 15660, Note_on_c, 0, 81, 80
1, 15719, Note_on_c, 0, 81, 0
1, 15720, Note_on_c, 0, 79, 80
1, 15779, Note_on_c, 0, 79, 0
1, 15780, Note_on_c, 0, 78, 80
1, 15839, Note_on_c, 0, 78, 0
1, 15840, Note_on_c, 0, 79, 80
1, 16079, Note_on_c, 0, 79, 0
1, 16140, Note_on_c, 0, 78, 80
1, 16199, Note_on_c, 0, 78, 0
1, 16200, Note_on_c, 0, 76, 80
1, 16259, Note_on_c, 0, 76, 0
1, 16260, Note_on_c, 0, 75, 80
1, 16319, Note_on_c, 0, 75, 0
1, 16320, Note_on_c, 0, 76, 80
1, 16679, Note_on_c, 0, 76, 0
1, 16680, Note_on_c, 0, 71, 80
1, 16799, Note_on_c, 0, 71, 0
1, 16800, Note_on_c, 0, 74, 80
1, 16859, Note_on_c, 0, 74, 0
1, 16860, Note_on_c, 0, 73, 80
1, 16919, Note_on_c, 0, 73, 0
1, 16920, Note_on_c, 0, 74, 80
1, 17159, Note_on_c, 0, 74, 0
1, 17160, Note_on_c, 0, 71, 80
1, 17160, Note_on_c, 0, 74, 80
1, 17220, Note_on_c, 0, 74, 80
1, 17279, Note_on_c, 0, 74, 0
1, 17279, Note_on_c, 0, 71, 0
1, 17279, Note_on_c, 0, 74, 0
1, 17280, Note_on_c, 0, 69, 80
1, 17280, Note_on_c, 0, 73, 80
1, 17579, Note_on_c, 0, 73, 0
1, 17580, Note_on_c, 0, 76, 80
1, 17639, Note_on_c, 0, 76, 0
1, 17640, Note_on_c, 0, 78, 80
1, 17699, Note_on_c, 0, 78, 0
1, 17700, Note_on_c, 0, 79, 80
1, 17759, Note_on_c, 0, 69, 0
1, 17759, Note_on_c, 0, 79, 0
1, 17760, Note_on_c, 0, 81, 80
1, 18119, Note_on_c, 0, 81, 0
1, 18120, Note_on_c, 0, 81, 80
1, 18239, Note_on_c, 0, 81, 0
1, 18240, Note_on_c, 0, 74, 80
1, 18240, Note_on_c, 0, 81, 80
1, 18599, Note_on_c, 0, 74, 0
1, 18600, Note_on_c, 0, 78, 80
1, 18719, Note_on_c, 0, 78, 0
1, 18719, Note_on_c, 0, 81, 0
1, 18720, Note_on_c, 0, 71, 80
1, 19020, Note_on_c, 0, 81, 80
1, 19079, Note_on_c, 0, 81, 0
1, 19080, Note_on_c, 0, 79, 80
1, 19139, Note_on_c, 0, 79, 0
1, 19140, Note_on_c, 0, 78, 80
1, 19199, Note_on_c, 0, 78, 0
1, 19200, Note_on_c, 0, 79, 80
1, 19439, Note_on_c, 0, 79, 0
1, 19500, Note_on_c, 0, 78, 80
1, 19559, Note_on_c, 0, 78, 0
1, 19560, Note_on_c, 0, 76, 80
1, 19619, Note_on_c, 0, 76, 0
1, 19620, Note_on_c, 0, 75, 80
1, 19679, Note_on_c, 0, 75, 0
1, 19679, Note_on_c, 0, 71, 0
1, 19680, Note_on_c, 0, 76, 80
1, 20039, Note_on_c, 0, 76, 0
1, 20040, Note_on_c, 0, 83, 80
1, 20159, Note_on_c, 0, 83, 0
1, 20160, Note_on_c, 0, 71, 80
1, 20160, Note_on_c, 0, 76, 80
1, 20219, Note_on_c, 0, 76, 0
1, 20220, Note_on_c, 0, 74, 80
1, 20279, Note_on_c, 0, 74, 0
1, 20280, Note_on_c, 0, 72, 80
1, 20339, Note_on_c, 0, 72, 0
1, 20340, Note_on_c, 0, 74, 80
1, 20399, Note_on_c, 0, 74, 0
1, 20400, Note_on_c, 0, 76, 80
1, 20459, Note_on_c, 0, 76, 0
1, 20460, Note_on_c, 0, 74, 80
1, 20519, Note_on_c, 0, 74, 0
1, 20520, Note_on_c, 0, 76, 80
1, 20579, Note_on_c, 0, 76, 0
1, 20580, Note_on_c, 0, 74, 80
1, 20639, Note_on_c, 0, 74, 0
1, 20640, Note_on_c, 0, 76, 80
1, 20699, Note_on_c, 0, 76, 0
1, 20700, Note_on_c, 0, 74, 80
1, 20759, Note_on_c, 0, 74, 0
1, 20760, Note_on_c, 0, 76, 80
1, 20819, Note_on_c, 0, 76, 0
1, 20820, Note_on_c, 0, 74, 80
1, 20879, Note_on_c, 0, 74, 0
1, 20880, Note_on_c, 0, 73, 80
1, 20999, Note_on_c, 0, 73, 0
1, 21000, Note_on_c, 0, 71, 80
1, 21119, Note_on_c, 0, 71, 0
1, 21119, Note_on_c, 0, 71, 0
1, 21120, Note_on_c, 0, 69, 80
1, 21120, Note_on_c, 0, 73, 80
1, 21359, Note_on_c, 0, 73, 0
1, 21420, Note_on_c, 0, 74, 80
1, 21479, Note_on_c, 0, 74, 0
1, 21480, Note_on_c, 0, 73, 80
1, 21539, Note_on_c, 0, 73, 0
1, 21540, Note_on_c, 0, 74, 80
1, 21599, Note_on_c, 0, 69, 0
1, 21599, Note_on_c, 0, 74, 0
1, 21600, Note_on_c, 0, 71, 80
1, 21600, Note_on_c, 0, 76, 80
1, 21659, Note_on_c, 0, 76, 0
1, 21660, Note_on_c, 0, 74, 80
1, 21719, Note_on_c, 0, 74, 0
1, 21720, Note_on_c, 0, 76, 80
1, 21779, Note_on_c, 0, 76, 0
1, 21780, Note_on_c, 0, 74, 80
1, 21839, Note_on_c, 0, 74, 0
1, 21840, Note_on_c, 0, 76, 80
1, 21899, Note_on_c, 0, 76, 0
1, 21900, Note_on_c, 0, 74, 80
1, 21959, Note_on_c, 0, 74, 0
1, 21960, Note_on_c, 0, 73, 80
1, 22019, Note_on_c, 0, 73, 0
1, 22020, Note_on_c, 0, 74, 80
1, 22079, Note_on_c, 0, 71, 0
1, 22079, Note_on_c, 0, 74, 0
1, 22080, Note_on_c, 0, 73, 80
1, 22080, Note_on_c, 0, 76, 80
1, 22559, Note_on_c, 0, 73, 0
1, 22559, Note_on_c, 0, 76, 0
1, 22620, Note_on_c, 0, 74, 80
1, 22679, Note_on_c, 0, 74, 0
1, 22680, Note_on_c, 0, 73, 80
1, 22739, Note_on_c, 0, 73, 0
1, 22740, Note_on_c, 0, 71, 80
1, 22799, Note_on_c, 0, 71, 0
1, 22800, Note_on_c, 0, 69, 80
1, 22859, Note_on_c, 0, 69, 0
1, 22860, Note_on_c, 0, 67, 80
1, 22919, Note_on_c, 0, 67, 0
1, 22920, Note_on_c, 0, 66, 80
1, 22979, Note_on_c, 0, 66, 0
1, 22980, Note_on_c, 0, 64, 80
1, 23039, Note_on_c, 0, 64, 0
1, 23040, Note_on_c, 0, 62, 80
1, 23399, Note_on_c, 0, 62, 0
1, 23400, Note_on_c, 0, 66, 80
1, 23519, Note_on_c, 0, 66, 0
1, 23520, Note_on_c, 0, 69, 80
1, 23579, Note_on_c, 0, 69, 0
1, 23580, Note_on_c, 0, 67, 80
1, 23639, Note_on_c, 0, 67, 0
1, 23640, Note_on_c, 0, 69, 80
1, 23879, Note_on_c, 0, 69, 0
1, 23880, Note_on_c, 0, 71, 80
1, 23999, Note_on_c, 0, 71, 0
1, 24000, Note_on_c, 0, 69, 80
1, 24000, Note_on_c, 0, 66, 80
1, 24000, Note_on_c, 0, 72, 80
1, 24479, Note_on_c, 0, 69, 0
1, 24479, Note_on_c, 0, 66, 0
1, 24779, Note_on_c, 0, 72, 0
1, 24780, Note_on_c, 0, 72, 80
1, 24839, Note_on_c, 0, 72, 0
1, 24840, Note_on_c, 0, 71, 80
1, 24899, Note_on_c, 0, 71, 0
1, 24900, Note_on_c, 0, 69, 80
1, 24959, Note_on_c, 0, 69, 0
1, 24960, Note_on_c, 0, 71, 80
1, 25199, Note_on_c, 0, 71, 0
1, 25260, Note_on_c, 0, 73, 80
1, 25319, Note_on_c, 0, 73, 0
1, 25320, Note_on_c, 0, 74, 80
1, 25379, Note_on_c, 0, 74, 0
1, 25380, Note_on_c, 0, 76, 80
1, 25439, Note_on_c, 0, 76, 0
1, 25440, Note_on_c, 0, 74, 80
1, 25499, Note_on_c, 0, 74, 0
1, 25500, Note_on_c, 0, 73, 80
1, 25559, Note_on_c, 0, 73, 0
1, 25560, Note_on_c, 0, 74, 80
1, 25739, Note_on_c, 0, 74, 0
1, 25740, Note_on_c, 0, 73, 80
1, 25799, Note_on_c, 0, 73, 0
1, 25800, Note_on_c, 0, 59, 80
1, 25800, Note_on_c, 0, 74, 80
1, 25859, Note_on_c, 0, 74, 0
1, 25860, Note_on_c, 0, 76, 80
1, 25919, Note_on_c, 0, 59, 0
1, 25919, Note_on_c, 0, 76, 0
1, 25920, Note_on_c, 0, 61, 80
1, 25920, Note_on_c, 0, 69, 80
1, 26159, Note_on_c, 0, 69, 0
1, 26220, Note_on_c, 0, 76, 80
1, 26279, Note_on_c, 0, 76, 0
1, 26280, Note_on_c, 0, 78, 80
1, 26339, Note_on_c, 0, 78, 0
1, 26340, Note_on_c, 0, 79, 80
1, 26399, Note_on_c, 0, 61, 0
1, 26399, Note_on_c, 0, 79, 0
1, 26400, Note_on_c, 0, 81, 80
1, 26759, Note_on_c, 0, 81, 0
1, 26760, Note_on_c, 0, 73, 80
1, 26879, Note_on_c, 0, 73, 0
1, 26880, Note_on_c, 0, 74, 80
1, 27599, Note_on_c, 0, 74, 0
1, 27600, Note_on_c, 0, 78, 80
1, 27659, Note_on_c, 0, 78, 0
1, 27660, Note_on_c, 0, 76, 80
1, 27719, Note_on_c, 0, 76, 0
1, 27720, Note_on_c, 0, 74, 80
1, 27779, Note_on_c, 0, 74, 0
1, 27780, Note_on_c, 0, 76, 80
1, 27839, Note_on_c, 0, 76, 0
1, 27840, Note_on_c, 0, 72, 80
1, 27840, Note_on_c, 0, 78, 80
1, 27899, Note_on_c, 0, 78, 0
1, 27900, Note_on_c, 0, 76, 80
1, 27959, Note_on_c, 0, 76, 0
1, 27960, Note_on_c, 0, 74, 80
1, 28019, Note_on_c, 0, 74, 0
1, 28020, Note_on_c, 0, 76, 80
1, 28079, Note_on_c, 0, 76, 0
1, 28080, Note_on_c, 0, 78, 80
1, 28139, Note_on_c, 0, 78, 0
1, 28140, Note_on_c, 0, 76, 80
1, 28199, Note_on_c, 0, 76, 0
1, 28200, Note_on_c, 0, 78, 80
1, 28259, Note_on_c, 0, 78, 0
1, 28260, Note_on_c, 0, 76, 80
1, 28319, Note_on_c, 0, 76, 0
1, 28320, Note_on_c, 0, 78, 80
1, 28379, Note_on_c, 0, 78, 0
1, 28380, Note_on_c, 0, 76, 80
1, 28439, Note_on_c, 0, 76, 0
1, 28440, Note_on_c, 0, 78, 80
1, 28499, Note_on_c, 0, 78, 0
1, 28500, Note_on_c, 0, 76, 80
1, 28559, Note_on_c, 0, 76, 0
1, 28560, Note_on_c, 0, 74, 80
1, 28799, Note_on_c, 0, 72, 0
1, 28799, Note_on_c, 0, 74, 0
1, 28800, Note_on_c, 0, 69, 80
1, 28800, Note_on_c, 0, 66, 80
1, 28800, Note_on_c, 0, 74, 80
1, 30719, Note_on_c, 0, 69, 0
1, 30719, Note_on_c, 0, 66, 0
1, 30719, Note_on_c, 0, 74, 0
1, 31260, Note_on_c, 0, 67, 80
1, 31319, Note_on_c, 0, 67, 0
1, 31320, Note_on_c, 0, 69, 80
1, 31379, Note_on_c, 0, 69, 0
1, 31380, Note_on_c, 0, 71, 80
1, 31439, Note_on_c, 0, 71, 0
1, 31440, Note_on_c, 0, 72, 80
1, 31499, Note_on_c, 0, 72, 0
1, 31500, Note_on_c, 0, 74, 80
1, 31559, Note_on_c, 0, 74, 0
1, 31560, Note_on_c, 0, 76, 80
1, 31619, Note_on_c, 0, 76, 0
1, 31620, Note_on_c, 0, 78, 80
1, 31679, Note_on_c, 0, 78, 0
1, 31680, Note_on_c, 0, 79, 80
1, 31919, Note_on_c, 0, 79, 0
1, 32040, Note_on_c, 0, 74, 80
1, 32159, Note_on_c, 0, 74, 0
1, 32160, Note_on_c, 0, 71, 80
1, 32399, Note_on_c, 0, 71, 0
1, 32520, Note_on_c, 0, 67, 80
1, 32639, Note_on_c, 0, 67, 0
1, 32640, Note_on_c, 0, 74, 80
1, 32699, Note_on_c, 0, 74, 0
1, 32700, Note_on_c, 0, 72, 80
1, 32759, Note_on_c, 0, 72, 0
1, 32760, Note_on_c, 0, 74, 80
1, 33359, Note_on_c, 0, 74, 0
1, 33360, Note_on_c, 0, 76, 80
1, 33599, Note_on_c, 0, 76, 0
1, 33600, Note_on_c, 0, 74, 80
1, 33659, Note_on_c, 0, 74, 0
1, 33660, Note_on_c, 0, 72, 80
1, 33719, Note_on_c, 0, 72, 0
1, 33720, Note_on_c, 0, 71, 80
1, 33779, Note_on_c, 0, 71, 0
1, 33780, Note_on_c, 0, 72, 80
1, 33839, Note_on_c, 0, 72, 0
1, 33840, Note_on_c, 0, 74, 80
1, 33899, Note_on_c, 0, 74, 0
1, 33900, Note_on_c, 0, 72, 80
1, 33959, Note_on_c, 0, 72, 0
1, 33960, Note_on_c, 0, 74, 80
1, 34019, Note_on_c, 0, 74, 0
1, 34020, Note_on_c, 0, 72, 80
1, 34079, Note_on_c, 0, 72, 0
1, 34080, Note_on_c, 0, 74, 80
1, 34139, Note_on_c, 0, 74, 0
1, 34140, Note_on_c, 0, 72, 80
1, 34199, Note_on_c, 0, 72, 0
1, 34200, Note_on_c, 0, 74, 80
1, 34259, Note_on_c, 0, 74, 0
1, 34260, Note_on_c, 0, 72, 80
1, 34379, Note_on_c, 0, 72, 0
1, 34380, Note_on_c, 0, 71, 80
1, 34439, Note_on_c, 0, 71, 0
1, 34440, Note_on_c, 0, 72, 80
1, 34499, Note_on_c, 0, 72, 0
1, 34500, Note_on_c, 0, 74, 80
1, 34559, Note_on_c, 0, 74, 0
1, 34560, Note_on_c, 0, 67, 80
1, 34919, Note_on_c, 0, 67, 0
1, 34920, Note_on_c, 0, 79, 80
1, 34979, Note_on_c, 0, 79, 0
1, 34980, Note_on_c, 0, 78, 80
1, 35039, Note_on_c, 0, 78, 0
1, 35040, Note_on_c, 0, 79, 80
1, 35399, Note_on_c, 0, 79, 0
1, 35400, Note_on_c, 0, 76, 80
1, 35519, Note_on_c, 0, 76, 0
1, 35520, Note_on_c, 0, 74, 80
1, 35759, Note_on_c, 0, 74, 0
1, 35760, Note_on_c, 0, 73, 80
1, 35880, Note_on_c, 0, 83, 80
1, 35999, Note_on_c, 0, 83, 0
1, 36000, Note_on_c, 0, 81, 80
1, 36119, Note_on_c, 0, 73, 0
1, 36359, Note_on_c, 0, 81, 0
1, 36360, Note_on_c, 0, 79, 80
1, 36479, Note_on_c, 0, 79, 0
1, 36480, Note_on_c, 0, 79, 80
1, 36539, Note_on_c, 0, 79, 0
1, 36540, Note_on_c, 0, 78, 80
1, 36599, Note_on_c, 0, 78, 0
1, 36600, Note_on_c, 0, 76, 80
1, 36659, Note_on_c, 0, 76, 0
1, 36660, Note_on_c, 0, 78, 80
1, 36719, Note_on_c, 0, 78, 0
1, 36720, Note_on_c, 0, 79, 80
1, 36779, Note_on_c, 0, 79, 0
1, 36780, Note_on_c, 0, 78, 80
1, 36839, Note_on_c, 0, 78, 0
1, 36840, Note_on_c, 0, 79, 80
1, 36899, Note_on_c, 0, 79, 0
1, 36900, Note_on_c, 0, 78, 80
1, 36959, Note_on_c, 0, 78, 0
1, 36960, Note_on_c, 0, 79, 80
1, 37019, Note_on_c, 0, 79, 0
1, 37020, Note_on_c, 0, 78, 80
1, 37079, Note_on_c, 0, 78, 0
1, 37080, Note_on_c, 0, 79, 80
1, 37139, Note_on_c, 0, 79, 0
1, 37140, Note_on_c, 0, 78, 80
1, 37199, Note_on_c, 0, 78, 0
1, 37200, Note_on_c, 0, 79, 80
1, 37439, Note_on_c, 0, 79, 0
1, 37440, Note_on_c, 0, 79, 80
1, 37679, Note_on_c, 0, 79, 0
1, 37680, Note_on_c, 0, 81, 80
1, 38700, Note_on_c, 0, 81, 80
1, 38759, Note_on_c, 0, 81, 0
1, 38760, Note_on_c, 0, 79, 80
1, 38819, Note_on_c, 0, 79, 0
1, 38820, Note_on_c, 0, 78, 80
1, 38879, Note_on_c, 0, 78, 0
1, 38880, Note_on_c, 0, 79, 80
1, 38939, Note_on_c, 0, 81, 0
1, 39239, Note_on_c, 0, 79, 0
1, 39240, Note_on_c, 0, 74, 80
1, 39345, Note_on_c, 0, 76, 80
1, 39359, Note_on_c, 0, 76, 0
1, 39360, Note_on_c, 0, 77, 80
1, 39419, Note_on_c, 0, 77, 0
1, 39420, Note_on_c, 0, 76, 80
1, 39479, Note_on_c, 0, 76, 0
1, 39480, Note_on_c, 0, 77, 80
1, 40079, Note_on_c, 0, 77, 0
1, 40080, Note_on_c, 0, 79, 80
1, 40260, Note_on_c, 0, 77, 80
1, 40319, Note_on_c, 0, 77, 0
1, 40319, Note_on_c, 0, 79, 0
1, 40319, Note_on_c, 0, 74, 0
1, 40320, Note_on_c, 0, 72, 80
1, 40320, Note_on_c, 0, 76, 80
1, 40559, Note_on_c, 0, 72, 0
1, 40619, Note_on_c, 0, 76, 0
1, 40620, Note_on_c, 0, 76, 80
1, 40679, Note_on_c, 0, 76, 0
1, 40680, Note_on_c, 0, 74, 80
1, 40739, Note_on_c, 0, 74, 0
1, 40740, Note_on_c, 0, 72, 80
1, 40799, Note_on_c, 0, 72, 0
1, 40800, Note_on_c, 0, 72, 80
1, 41039, Note_on_c, 0, 72, 0
1, 41100, Note_on_c, 0, 71, 80
1, 41159, Note_on_c, 0, 71, 0
1, 41160, Note_on_c, 0, 69, 80
1, 41219, Note_on_c, 0, 69, 0
1, 41220, Note_on_c, 0, 67, 80
1, 41279, Note_on_c, 0, 67, 0
1, 41280, Note_on_c, 0, 69, 80
1, 41639, Note_on_c, 0, 69, 0
1, 41640, Note_on_c, 0, 69, 80
1, 41759, Note_on_c, 0, 69, 0
1, 41760, Note_on_c, 0, 79, 80
1, 41819, Note_on_c, 0, 79, 0
1, 41820, Note_on_c, 0, 77, 80
1, 41879, Note_on_c, 0, 77, 0
1, 41880, Note_on_c, 0, 79, 80
1, 42119, Note_on_c, 0, 79, 0
1, 42120, Note_on_c, 0, 79, 80
1, 42239, Note_on_c, 0, 79, 0
1, 42240, Note_on_c, 0, 74, 80
1, 42240, Note_on_c, 0, 71, 80
1, 42240, Note_on_c, 0, 79, 80
1, 42719, Note_on_c, 0, 74, 0
1, 42719, Note_on_c, 0, 71, 0
1, 42779, Note_on_c, 0, 79, 0
1, 42780, Note_on_c, 0, 83, 80
1, 42839, Note_on_c, 0, 83, 0
1, 42840, Note_on_c, 0, 81, 80
1, 42899, Note_on_c, 0, 81, 0
1, 42900, Note_on_c, 0, 79, 80
1, 42959, Note_on_c, 0, 79, 0
1, 42960, Note_on_c, 0, 78, 80
1, 43019, Note_on_c, 0, 78, 0
1, 43020, Note_on_c, 0, 76, 80
1, 43079, Note_on_c, 0, 76, 0
1, 43080, Note_on_c, 0, 74, 80
1, 43139, Note_on_c, 0, 74, 0
1, 43140, Note_on_c, 0, 72, 80
1, 43199, Note_on_c, 0, 72, 0
1, 43200, Note_on_c, 0, 81, 80
1, 43559, Note_on_c, 0, 81, 0
1, 43560, Note_on_c, 0, 72, 80
1, 43679, Note_on_c, 0, 72, 0
1, 43680, Note_on_c, 0, 81, 80
1, 44039, Note_on_c, 0, 81, 0
1, 44040, Note_on_c, 0, 72, 80
1, 44159, Note_on_c, 0, 72, 0
1, 44160, Note_on_c, 0, 72, 80
1, 44219, Note_on_c, 0, 72, 0
1, 44220, Note_on_c, 0, 71, 80
1, 44279, Note_on_c, 0, 71, 0
1, 44280, Note_on_c, 0, 69, 80
1, 44339, Note_on_c, 0, 69, 0
1, 44340, Note_on_c, 0, 71, 80
1, 44399, Note_on_c, 0, 71, 0
1, 44400, Note_on_c, 0, 72, 80
1, 44459, Note_on_c, 0, 72, 0
1, 44460, Note_on_c, 0, 71, 80
1, 44519, Note_on_c, 0, 71, 0
1, 44520, Note_on_c, 0, 72, 80
1, 44579, Note_on_c, 0, 72, 0
1, 44580, Note_on_c, 0, 71, 80
1, 44639, Note_on_c, 0, 71, 0
1, 44640, Note_on_c, 0, 72, 80
1, 44699, Note_on_c, 0, 72, 0
1, 44700, Note_on_c, 0, 71, 80
1, 44759, Note_on_c, 0, 71, 0
1, 44760, Note_on_c, 0, 72, 80
1, 44819, Note_on_c, 0, 72, 0
1, 44820, Note_on_c, 0, 71, 80
1, 44879, Note_on_c, 0, 71, 0
1, 44940, Note_on_c, 0, 69, 80
1, 44999, Note_on_c, 0, 69, 0
1, 45000, Note_on_c, 0, 67, 80
1, 45059, Note_on_c, 0, 67, 0
1, 45060, Note_on_c, 0, 66, 80
1, 45119, Note_on_c, 0, 66, 0
1, 45120, Note_on_c, 0, 67, 80
1, 45239, Note_on_c, 0, 67, 0
1, 45240, Note_on_c, 0, 74, 80
1, 45359, Note_on_c, 0, 74, 0
1, 45360, Note_on_c, 0, 76, 80
1, 45479, Note_on_c, 0, 76, 0
1, 45480, Note_on_c, 0, 78, 80
1, 45599, Note_on_c, 0, 78, 0
1, 45600, Note_on_c, 0, 79, 80
1, 45719, Note_on_c, 0, 79, 0
1, 45720, Note_on_c, 0, 78, 80
1, 45839, Note_on_c, 0, 78, 0
1, 45840, Note_on_c, 0, 79, 80
1, 45959, Note_on_c, 0, 79, 0
1, 45960, Note_on_c, 0, 81, 80
1, 46079, Note_on_c, 0, 81, 0
1, 46080, Note_on_c, 0, 71, 80
1, 46080, Note_on_c, 0, 83, 80
1, 46199, Note_on_c, 0, 71, 0
1, 46319, Note_on_c, 0, 83, 0
1, 46380, Note_on_c, 0, 81, 80
1, 46439, Note_on_c, 0, 81, 0
1, 46440, Note_on_c, 0, 79, 80
1, 46499, Note_on_c, 0, 79, 0
1, 46500, Note_on_c, 0, 78, 80
1, 46559, Note_on_c, 0, 78, 0
1, 46560, Note_on_c, 0, 79, 80
1, 46799, Note_on_c, 0, 79, 0
1, 46860, Note_on_c, 0, 78, 80
1, 46919, Note_on_c, 0, 78, 0
1, 46920, Note_on_c, 0, 76, 80
1, 46979, Note_on_c, 0, 76, 0
1, 46980, Note_on_c, 0, 75, 80
1, 47039, Note_on_c, 0, 75, 0
1, 47040, Note_on_c, 0, 76, 80
1, 47399, Note_on_c, 0, 76, 0
1, 47400, Note_on_c, 0, 71, 80
1, 47519, Note_on_c, 0, 71, 0
1, 47520, Note_on_c, 0, 74, 80
1, 47579, Note_on_c, 0, 74, 0
1, 47580, Note_on_c, 0, 73, 80
1, 47639, Note_on_c, 0, 73, 0
1, 47640, Note_on_c, 0, 74, 80
1, 47879, Note_on_c, 0, 74, 0
1, 47880, Note_on_c, 0, 71, 80
1, 47880, Note_on_c, 0, 74, 80
1, 47940, Note_on_c, 0, 74, 80
1, 47999, Note_on_c, 0, 74, 0
1, 47999, Note_on_c, 0, 71, 0
1, 47999, Note_on_c, 0, 74, 0
1, 48000, Note_on_c, 0, 69, 80
1, 48000, Note_on_c, 0, 73, 80
1, 48299, Note_on_c, 0, 73, 0
1, 48300, Note_on_c, 0, 76, 80
1, 48359, Note_on_c, 0, 76, 0
1, 48360, Note_on_c, 0, 78, 80
1, 48419, Note_on_c, 0, 78, 0
1, 48420, Note_on_c, 0, 79, 80
1, 48479, Note_on_c, 0, 69, 0
1, 48479, Note_on_c, 0, 79, 0
1, 48480, Note_on_c, 0, 81, 80
1, 48839, Note_on_c, 0, 81, 0
1, 48840, Note_on_c, 0, 81, 80
1, 48959, Note_on_c, 0, 81, 0
1, 48960, Note_on_c, 0, 74, 80
1, 48960, Note_on_c, 0, 81, 80
1, 49319, Note_on_c, 0, 74, 0
1, 49320, Note_on_c, 0, 78, 80
1, 49439, Note_on_c, 0, 78, 0
1, 49439, Note_on_c, 0, 81, 0
1, 49440, Note_on_c, 0, 71, 80
1, 49740, Note_on_c, 0, 81, 80
1, 49799, Note_on_c, 0, 81, 0
1, 49800, Note_on_c, 0, 79, 80
1, 49859, Note_on_c, 0, 79, 0
1, 49860, Note_on_c, 0, 78, 80
1, 49919, Note_on_c, 0, 78, 0
1, 49920, Note_on_c, 0, 79, 80
1, 50159, Note_on_c, 0, 79, 0
1, 50220, Note_on_c, 0, 78, 80
1, 50279, Note_on_c, 0, 78, 0
1, 50280, Note_on_c, 0, 76, 80
1, 50339, Note_on_c, 0, 76, 0
1, 50340, Note_on_c, 0, 75, 80
1, 50399, Note_on_c, 0, 75, 0
1, 50399, Note_on_c, 0, 71, 0
1, 50400, Note_on_c, 0, 76, 80
1, 50759, Note_on_c, 0, 76, 0
1, 50760, Note_on_c, 0, 83, 80
1, 50879, Note_on_c, 0, 83, 0
1, 50880, Note_on_c, 0, 71, 80
1, 50880, Note_on_c, 0, 76, 80
1, 50939, Note_on_c, 0, 76, 0
1, 50940, Note_on_c, 0, 74, 80
1, 50999, Note_on_c, 0, 74, 0
1, 51000, Note_on_c, 0, 72, 80
1, 51059, Note_on_c, 0, 72, 0
1, 51060, Note_on_c, 0, 74, 80
1, 51119, Note_on_c, 0, 74, 0
1, 51120, Note_on_c, 0, 76, 80
1, 51179, Note_on_c, 0, 76, 0
1, 51180, Note_on_c, 0, 74, 80
1, 51239, Note_on_c, 0, 74, 0
1, 51240, Note_on_c, 0, 76, 80
1, 51299, Note_on_c, 0, 76, 0
1, 51300, Note_on_c, 0, 74, 80
1, 51359, Note_on_c, 0, 74, 0
1, 51360, Note_on_c, 0, 76, 80
1, 51419, Note_on_c, 0, 76, 0
1, 51420, Note_on_c, 0, 74, 80
1, 51479, Note_on_c, 0, 74, 0
1, 51480, Note_on_c, 0, 76, 80
1, 51539, Note_on_c, 0, 76, 0
1, 51540, Note_on_c, 0, 74, 80
1, 51599, Note_on_c, 0, 74, 0
1, 51600, Note_on_c, 0, 73, 80
1, 51719, Note_on_c, 0, 73, 0
1, 51720, Note_on_c, 0, 71, 80
1, 51839, Note_on_c, 0, 71, 0
1, 51839, Note_on_c, 0, 71, 0
1, 51840, Note_on_c, 0, 69, 80
1, 51840, Note_on_c, 0, 73, 80
1, 52079, Note_on_c, 0, 73, 0
1, 52140, Note_on_c, 0, 74, 80
1, 52199, Note_on_c, 0, 74, 0
1, 52200, Note_on_c, 0, 73, 80
1, 52259, Note_on_c, 0, 73, 0
1, 52260, Note_on_c, 0, 74, 80
1, 52319, Note_on_c, 0, 69, 0
1, 52319, Note_on_c, 0, 74, 0
1, 52320, Note_on_c, 0, 71, 80
1, 52320, Note_on_c, 0, 76, 80
1, 52379, Note_on_c, 0, 76, 0
1, 52380, Note_on_c, 0, 74, 80
1, 52439, Note_on_c, 0, 74, 0
1, 52440, Note_on_c, 0, 76, 80
1, 52499, Note_on_c, 0, 76, 0
1, 52500, Note_on_c, 0, 74, 80
1, 52559, Note_on_c, 0, 74, 0
1, 52560, Note_on_c, 0, 76, 80
1, 52619, Note_on_c, 0, 76, 0
1, 52620, Note_on_c, 0, 74, 80
1, 52679, Note_on_c, 0, 74, 0
1, 52680, Note_on_c, 0, 73, 80
1, 52739, Note_on_c, 0, 73, 0
1, 52740, Note_on_c, 0, 74, 80
1, 52799, Note_on_c, 0, 71, 0
1, 52799, Note_on_c, 0, 74, 0
1, 52800, Note_on_c, 0, 73, 80
1, 52800, Note_on_c, 0, 76, 80
1, 53279, Note_on_c, 0, 73, 0
1, 53279, Note_on_c, 0, 76, 0
1, 53340, Note_on_c, 0, 74, 80
1, 53399, Note_on_c, 0, 74, 0
1, 53400, Note_on_c, 0, 73, 80
1, 53459, Note_on_c, 0, 73, 0
1, 53460, Note_on_c, 0, 71, 80
1, 53519, Note_on_c, 0, 71, 0
1, 53520, Note_on_c, 0, 69, 80
1, 53579, Note_on_c, 0, 69, 0
1, 53580, Note_on_c, 0, 67, 80
1, 53639, Note_on_c, 0, 67, 0
1, 53640, Note_on_c, 0, 66, 80
1, 53699, Note_on_c, 0, 66, 0
1, 53700, Note_on_c, 0, 64, 80
1, 53759, Note_on_c, 0, 64, 0
1, 53760, Note_on_c, 0, 62, 80
1, 54119, Note_on_c, 0, 62, 0
1, 54120, Note_on_c, 0, 66, 80
1, 54239, Note_on_c, 0, 66, 0
1, 54240, Note_on_c, 0, 69, 80
1, 54299, Note_on_c, 0, 69, 0
1, 54300, Note_on_c, 0, 67, 80
1, 54359, Note_on_c, 0, 67, 0
1, 54360, Note_on_c, 0, 69, 80
1, 54599, Note_on_c, 0, 69, 0
1, 54600, Note_on_c, 0, 71, 80
1, 54719, Note_on_c, 0, 71, 0
1, 54720, Note_on_c, 0, 69, 80
1, 54720, Note_on_c, 0, 66, 80
1, 54720, Note_on_c, 0, 72, 80
1, 55199, Note_on_c, 0, 69, 0
1, 55199, Note_on_c, 0, 66, 0
1, 55499, Note_on_c, 0, 72, 0
1, 55500, Note_on_c, 0, 72, 80
1, 55559, Note_on_c, 0, 72, 0
1, 55560, Note_on_c, 0, 71, 80
1, 55619, Note_on_c, 0, 71, 0
1, 55620, Note_on_c, 0, 69, 80
1, 55679, Note_on_c, 0, 69, 0
1, 55680, Note_on_c, 0, 71, 80
1, 55919, Note_on_c, 0, 71, 0
1, 55980, Note_on_c, 0, 73, 80
1, 56039, Note_on_c, 0, 73, 0
1, 56040, Note_on_c, 0, 74, 80
1, 56099, Note_on_c, 0, 74, 0
1, 56100, Note_on_c, 0, 76, 80
1, 56159, Note_on_c, 0, 76, 0
1, 56160, Note_on_c, 0, 74, 80
1, 56219, Note_on_c, 0, 74, 0
1, 56220, Note_on_c, 0, 73, 80
1, 56279, Note_on_c, 0, 73, 0
1, 56280, Note_on_c, 0, 74, 80
1, 56459, Note_on_c, 0, 74, 0
1, 56460, Note_on_c, 0, 73, 80
1, 56519, Note_on_c, 0, 73, 0
1, 56520, Note_on_c, 0, 59, 80
1, 56520, Note_on_c, 0, 74, 80
1, 56579, Note_on_c, 0, 74, 0
1, 56580, Note_on_c, 0, 76, 80
1, 56639, Note_on_c, 0, 59, 0
1, 56639, Note_on_c, 0, 76, 0
1, 56640, Note_on_c, 0, 61, 80
1, 56640, Note_on_c, 0, 69, 80
1, 56879, Note_on_c, 0, 69, 0
1, 56940, Note_on_c, 0, 76, 80
1, 56999, Note_on_c, 0, 76, 0
1, 57000, Note_on_c, 0, 78, 80
1, 57059, Note_on_c, 0, 78, 0
1, 57060, Note_on_c, 0, 79, 80
1, 57119, Note_on_c, 0, 61, 0
1, 57119, Note_on_c, 0, 79, 0
1, 57120, Note_on_c, 0, 81, 80
1, 57479, Note_on_c, 0, 81, 0
1, 57480, Note_on_c, 0, 73, 80
1, 57599, Note_on_c, 0, 73, 0
1, 57600, Note_on_c, 0, 74, 80
1, 58319, Note_on_c, 0, 74, 0
1, 58320, Note_on_c, 0, 78, 80
1, 58379, Note_on_c, 0, 78, 0
1, 58380, Note_on_c, 0, 76, 80
1, 58439, Note_on_c, 0, 76, 0
1, 58440, Note_on_c, 0, 74, 80
1, 58499, Note_on_c, 0, 74, 0
1, 58500, Note_on_c, 0, 76, 80
1, 58559, Note_on_c, 0, 76, 0
1, 58560, Note_on_c, 0, 72, 80
1, 58560, Note_on_c, 0, 78, 80
1, 58619, Note_on_c, 0, 78, 0
1, 58620, Note_on_c, 0, 76, 80
1, 58679, Note_on_c, 0, 76, 0
1, 58680, Note_on_c, 0, 74, 80
1, 58739, Note_on_c, 0, 74, 0
1, 58740, Note_on_c, 0, 76, 80
1, 58799, Note_on_c, 0, 76, 0
1, 58800, Note_on_c, 0, 78, 80
1, 58859, Note_on_c, 0, 78, 0
1, 58860, Note_on_c, 0, 76, 80
1, 58919, Note_on_c, 0, 76, 0
1, 58920, Note_on_c, 0, 78, 80
1, 58979, Note_on_c, 0, 78, 0
1, 58980, Note_on_c, 0, 76, 80
1, 59039, Note_on_c, 0, 76, 0
1, 59040, Note_on_c, 0, 78, 80
1, 59099, Note_on_c, 0, 78, 0
1, 59100, Note_on_c, 0, 76, 80
1, 59159, Note_on_c, 0, 76, 0
1, 59160, Note_on_c, 0, 78, 80
1, 59219, Note_on_c, 0, 78, 0
1, 59220, Note_on_c, 0, 76, 80
1, 59279, Note_on_c, 0, 76, 0
1, 59280, Note_on_c, 0, 74, 80
1, 59519, Note_on_c, 0, 72, 0
1, 59519, Note_on_c, 0, 74, 0
1, 59520, Time_signature, 3, 3, 24, 8
1, 59520, Note_on_c, 0, 74, 80
1, 59759, Note_on_c, 0, 74, 0
1, 59760, Note_on_c, 0, 81, 80
1, 59879, Note_on_c, 0, 81, 0
1, 59880, Note_on_c, 0, 79, 80
1, 59999, Note_on_c, 0, 79, 0
1, 60000, Note_on_c, 0, 78, 80
1, 60119, Note_on_c, 0, 78, 0
1, 60120, Note_on_c, 0, 76, 80
1, 60239, Note_on_c, 0, 76, 0
1, 60240, Note_on_c, 0, 79, 80
1, 60299, Note_on_c, 0, 79, 0
1, 60300, Note_on_c, 0, 78, 80
1, 60359, Note_on_c, 0, 78, 0
1, 60360, Note_on_c, 0, 76, 80
1, 60419, Note_on_c, 0, 76, 0
1, 60420, Note_on_c, 0, 78, 80
1, 60479, Note_on_c, 0, 78, 0
1, 60480, Note_on_c, 0, 74, 80
1, 60480, Note_on_c, 0, 79, 80
1, 60599, Note_on_c, 0, 74, 0
1, 60600, Note_on_c, 0, 72, 80
1, 60719, Note_on_c, 0, 72, 0
1, 60719, Note_on_c, 0, 79, 0
1, 60720, Note_on_c, 0, 71, 80
1, 60720, Note_on_c, 0, 81, 80
1, 60839, Note_on_c, 0, 71, 0
1, 60840, Note_on_c, 0, 69, 80
1, 60959, Note_on_c, 0, 69, 0
1, 60959, Note_on_c, 0, 81, 0
1, 60960, Note_on_c, 0, 71, 80
1, 60960, Note_on_c, 0, 74, 80
1, 61079, Note_on_c, 0, 74, 0
1, 61080, Note_on_c, 0, 78, 80
1, 61199, Note_on_c, 0, 71, 0
1, 61199, Note_on_c, 0, 78, 0
1, 61200, Note_on_c, 0, 72, 80
1, 61200, Note_on_c, 0, 76, 80
1, 61319, Note_on_c, 0, 76, 0
1, 61320, Note_on_c, 0, 79, 80
1, 61439, Note_on_c, 0, 72, 0
1, 61439, Note_on_c, 0, 79, 0
1, 61440, Note_on_c, 0, 74, 80
1, 61440, Note_on_c, 0, 78, 80
1, 61559, Note_on_c, 0, 78, 0
1, 61560, Note_on_c, 0, 81, 80
1, 61679, Note_on_c, 0, 74, 0
1, 61679, Note_on_c, 0, 81, 0
1, 61680, Note_on_c, 0, 67, 80
1, 61680, Note_on_c, 0, 79, 80
1, 61799, Note_on_c, 0, 67, 0
1, 61800, Note_on_c, 0, 71, 80
1, 61919, Note_on_c, 0, 71, 0
1, 61919, Note_on_c, 0, 79, 0
1, 61920, Note_on_c, 0, 69, 80
1, 61920, Note_on_c, 0, 78, 80
1, 62039, Note_on_c, 0, 69, 0
1, 62040, Note_on_c, 0, 72, 80
1, 62159, Note_on_c, 0, 72, 0
1, 62159, Note_on_c, 0, 78, 0
1, 62160, Note_on_c, 0, 71, 80
1, 62160, Note_on_c, 0, 79, 80
1, 62279, Note_on_c, 0, 71, 0
1, 62280, Note_on_c, 0, 74, 80
1, 62399, Note_on_c, 0, 74, 0
1, 62399, Note_on_c, 0, 79, 0
1, 62400, Note_on_c, 0, 72, 80
1, 62400, Note_on_c, 0, 76, 80
1, 62520, Note_on_c, 0, 69, 80
1, 62639, Note_on_c, 0, 69, 0
1, 62639, Note_on_c, 0, 76, 0
1, 62640, Note_on_c, 0, 67, 80
1, 62640, Note_on_c, 0, 75, 80
1, 62759, Note_on_c, 0, 67, 0
1, 62760, Note_on_c, 0, 66, 80
1, 62879, Note_on_c, 0, 66, 0
1, 62879, Note_on_c, 0, 75, 0
1, 62880, Note_on_c, 0, 64, 80
1, 62880, Note_on_c, 0, 76, 80
1, 62999, Note_on_c, 0, 64, 0
1, 63119, Note_on_c, 0, 76, 0
1, 63120, Note_on_c, 0, 66, 80
1, 63120, Note_on_c, 0, 81, 80
1, 63239, Note_on_c, 0, 72, 0
1, 63240, Note_on_c, 0, 79, 80
1, 63359, Note_on_c, 0, 79, 0
1, 63359, Note_on_c, 0, 66, 0
1, 63360, Note_on_c, 0, 78, 80
1, 63360, Note_on_c, 0, 67, 80
1, 63479, Note_on_c, 0, 78, 0
1, 63480, Note_on_c, 0, 76, 80
1, 63599, Note_on_c, 0, 76, 0
1, 63599, Note_on_c, 0, 67, 0
1, 63600, Note_on_c, 0, 75, 80
1, 63600, Note_on_c, 0, 69, 80
1, 63719, Note_on_c, 0, 75, 0
1, 63720, Note_on_c, 0, 76, 80
1, 63839, Note_on_c, 0, 76, 0
1, 63839, Note_on_c, 0, 69, 0
1, 63840, Note_on_c, 0, 71, 80
1, 63840, Note_on_c, 0, 63, 80
1, 63959, Note_on_c, 0, 63, 0
1, 63960, Note_on_c, 0, 66, 80
1, 64079, Note_on_c, 0, 66, 0
1, 64079, Note_on_c, 0, 81, 0
1, 64080, Note_on_c, 0, 64, 80
1, 64080, Note_on_c, 0, 79, 80
1, 64199, Note_on_c, 0, 64, 0
1, 64199, Note_on_c, 0, 79, 0
1, 64200, Note_on_c, 0, 67, 80
1, 64200, Note_on_c, 0, 76, 80
1, 64319, Note_on_c, 0, 67, 0
1, 64319, Note_on_c, 0, 76, 0
1, 64320, Note_on_c, 0, 66, 80
1, 64320, Note_on_c, 0, 76, 80
1, 64439, Note_on_c, 0, 66, 0
1, 64439, Note_on_c, 0, 76, 0
1, 64440, Note_on_c, 0, 69, 80
1, 64440, Note_on_c, 0, 75, 80
1, 64559, Note_on_c, 0, 69, 0
1, 64559, Note_on_c, 0, 75, 0
1, 64560, Note_on_c, 0, 67, 80
1, 64560, Note_on_c, 0, 83, 80
1, 64679, Note_on_c, 0, 71, 0
1, 64680, Note_on_c, 0, 73, 80
1, 64799, Note_on_c, 0, 73, 0
1, 64799, Note_on_c, 0, 67, 0
1, 64800, Note_on_c, 0, 75, 80
1, 64800, Note_on_c, 0, 66, 80
1, 64919, Note_on_c, 0, 75, 0
1, 64920, Note_on_c, 0, 76, 80
1, 65039, Note_on_c, 0, 76, 0
1, 65039, Note_on_c, 0, 66, 0
1, 65040, Note_on_c, 0, 78, 80
1, 65159, Note_on_c, 0, 78, 0
1, 65160, Note_on_c, 0, 75, 80
1, 65279, Note_on_c, 0, 75, 0
1, 65280, Note_on_c, 0, 76, 80
1, 65399, Note_on_c, 0, 83, 0
1, 65400, Note_on_c, 0, 84, 80
1, 65519, Note_on_c, 0, 76, 0
1, 65519, Note_on_c, 0, 84, 0
1, 65520, Note_on_c, 0, 64, 80
1, 65520, Note_on_c, 0, 83, 80
1, 65639, Note_on_c, 0, 83, 0
1, 65640, Note_on_c, 0, 81, 80
1, 65759, Note_on_c, 0, 64, 0
1, 65759, Note_on_c, 0, 81, 0
1, 65760, Note_on_c, 0, 63, 80
1, 65760, Note_on_c, 0, 79, 80
1, 65879, Note_on_c, 0, 79, 0
1, 65880, Note_on_c, 0, 78, 80
1, 65999, Note_on_c, 0, 63, 0
1, 65999, Note_on_c, 0, 78, 0
1, 66000, Note_on_c, 0, 64, 80
1, 66000, Note_on_c, 0, 79, 80
1, 66119, Note_on_c, 0, 79, 0
1, 66120, Note_on_c, 0, 76, 80
1, 66239, Note_on_c, 0, 76, 0
1, 66240, Note_on_c, 0, 81, 80
1, 66359, Note_on_c, 0, 81, 0
1, 66360, Note_on_c, 0, 76, 80
1, 66479, Note_on_c, 0, 76, 0
1, 66480, Note_on_c, 0, 83, 80
1, 66599, Note_on_c, 0, 83, 0
1, 66600, Note_on_c, 0, 76, 80
1, 66719, Note_on_c, 0, 76, 0
1, 66720, Note_on_c, 0, 84, 80
1, 66839, Note_on_c, 0, 84, 0
1, 66840, Note_on_c, 0, 83, 80
1, 66959, Note_on_c, 0, 83, 0
1, 66960, Note_on_c, 0, 81, 80
1, 67079, Note_on_c, 0, 81, 0
1, 67080, Note_on_c, 0, 79, 80
1, 67199, Note_on_c, 0, 79, 0
1, 67199, Note_on_c, 0, 64, 0
1, 67200, Note_on_c, 0, 78, 80
1, 67319, Note_on_c, 0, 78, 0
1, 67320, Note_on_c, 0, 76, 80
1, 67439, Note_on_c, 0, 76, 0
1, 67440, Note_on_c, 0, 69, 80
1, 67440, Note_on_c, 0, 74, 80
1, 67559, Note_on_c, 0, 74, 0
1, 67560, Note_on_c, 0, 78, 80
1, 67679, Note_on_c, 0, 69, 0
1, 67679, Note_on_c, 0, 78, 0
1, 67680, Note_on_c, 0, 71, 80
1, 67680, Note_on_c, 0, 76, 80
1, 67799, Note_on_c, 0, 76, 0
1, 67800, Note_on_c, 0, 79, 80
1, 67919, Note_on_c, 0, 71, 0
1, 67919, Note_on_c, 0, 79, 0
1, 67920, Note_on_c, 0, 72, 80
1, 67920, Note_on_c, 0, 78, 80
1, 68039, Note_on_c, 0, 78, 0
1, 68040, Note_on_c, 0, 81, 80
1, 68159, Note_on_c, 0, 72, 0
1, 68159, Note_on_c, 0, 81, 0
1, 68160, Note_on_c, 0, 74, 80
1, 68160, Note_on_c, 0, 79, 80
1, 68279, Note_on_c, 0, 79, 0
1, 68280, Note_on_c, 0, 81, 80
1, 68399, Note_on_c, 0, 74, 0
1, 68399, Note_on_c, 0, 81, 0
1, 68400, Note_on_c, 0, 76, 80
1, 68400, Note_on_c, 0, 83, 80
1, 68459, Note_on_c, 0, 83, 0
1, 68460, Note_on_c, 0, 81, 80
1, 68519, Note_on_c, 0, 81, 0
1, 68520, Note_on_c, 0, 83, 80
1, 68579, Note_on_c, 0, 83, 0
1, 68580, Note_on_c, 0, 81, 80
1, 68639, Note_on_c, 0, 76, 0
1, 68639, Note_on_c, 0, 81, 0
1, 68640, Note_on_c, 0, 78, 80
1, 68640, Note_on_c, 0, 83, 80
1, 68699, Note_on_c, 0, 83, 0
1, 68700, Note_on_c, 0, 81, 80
1, 68759, Note_on_c, 0, 81, 0
1, 68760, Note_on_c, 0, 79, 80
1, 68819, Note_on_c, 0, 79, 0
1, 68820, Note_on_c, 0, 81, 80
1, 68879, Note_on_c, 0, 78, 0
1, 68879, Note_on_c, 0, 81, 0
1, 68880, Note_on_c, 0, 79, 80
1, 68880, Note_on_c, 0, 83, 80
1, 69359, Note_on_c, 0, 79, 0
1, 69359, Note_on_c, 0, 83, 0
1, 69360, Note_on_c, 0, 74, 80
1, 69360, Note_on_c, 0, 79, 80
1, 69599, Note_on_c, 0, 74, 0
1, 69599, Note_on_c, 0, 79, 0
1, 69600, Note_on_c, 0, 67, 80
1, 69600, Note_on_c, 0, 76, 80
1, 69839, Note_on_c, 0, 67, 0
1, 69839, Note_on_c, 0, 76, 0
1, 69840, Note_on_c, 0, 69, 80
1, 69840, Note_on_c, 0, 78, 80
1, 70079, Note_on_c, 0, 69, 0
1, 70079, Note_on_c, 0, 78, 0
1, 70080, Note_on_c, 0, 66, 80
1, 70080, Note_on_c, 0, 75, 80
1, 70319, Note_on_c, 0, 66, 0
1, 70319, Note_on_c, 0, 75, 0
1, 70320, Note_on_c, 0, 67, 80
1, 70320, Note_on_c, 0, 76, 80
1, 70559, Note_on_c, 0, 67, 0
1, 70560, Note_on_c, 0, 69, 80
1, 70619, Note_on_c, 0, 69, 0
1, 70620, Note_on_c, 0, 68, 80
1, 70679, Note_on_c, 0, 68, 0
1, 70680, Note_on_c, 0, 69, 80
1, 70739, Note_on_c, 0, 69, 0
1, 70740, Note_on_c, 0, 68, 80
1, 70799, Note_on_c, 0, 68, 0
1, 70799, Note_on_c, 0, 76, 0
1, 70800, Note_on_c, 0, 69, 80
1, 70859, Note_on_c, 0, 69, 0
1, 70860, Note_on_c, 0, 68, 80
1, 70919, Note_on_c, 0, 68, 0
1, 70920, Note_on_c, 0, 66, 80
1, 70979, Note_on_c, 0, 66, 0
1, 70980, Note_on_c, 0, 68, 80
1, 71039, Note_on_c, 0, 68, 0
1, 71040, Note_on_c, 0, 69, 80
1, 71280, Note_on_c, 0, 76, 80
1, 71399, Note_on_c, 0, 76, 0
1, 71400, Note_on_c, 0, 74, 80
1, 71519, Note_on_c, 0, 69, 0
1, 71519, Note_on_c, 0, 74, 0
1, 71520, Note_on_c, 0, 67, 80
1, 71520, Note_on_c, 0, 72, 80
1, 71639, Note_on_c, 0, 72, 0
1, 71640, Note_on_c, 0, 71, 80
1, 71759, Note_on_c, 0, 67, 0
1, 71759, Note_on_c, 0, 71, 0
1, 71760, Note_on_c, 0, 69, 80
1, 71760, Note_on_c, 0, 72, 80
1, 71999, Note_on_c, 0, 69, 0
1, 71999, Note_on_c, 0, 72, 0
1, 72000, Note_on_c, 0, 67, 80
1, 72000, Note_on_c, 0, 74, 80
1, 72239, Note_on_c, 0, 74, 0
1, 72240, Note_on_c, 0, 76, 80
1, 72479, Note_on_c, 0, 67, 0
1, 72479, Note_on_c, 0, 76, 0
1, 72480, Note_on_c, 0, 66, 80
1, 72480, Note_on_c, 0, 69, 80
1, 72599, Note_on_c, 0, 69, 0
1, 72600, Note_on_c, 0, 72, 80
1, 72719, Note_on_c, 0, 66, 0
1, 72719, Note_on_c, 0, 72, 0
1, 72720, Note_on_c, 0, 67, 80
1, 72720, Note_on_c, 0, 71, 80
1, 72839, Note_on_c, 0, 71, 0
1, 72840, Note_on_c, 0, 74, 80
1, 72959, Note_on_c, 0, 67, 0
1, 72959, Note_on_c, 0, 74, 0
1, 72960, Note_on_c, 0, 64, 80
1, 72960, Note_on_c, 0, 73, 80
1, 73079, Note_on_c, 0, 73, 0
1, 73080, Note_on_c, 0, 76, 80
1, 73199, Note_on_c, 0, 64, 0
1, 73199, Note_on_c, 0, 76, 0
1, 73200, Note_on_c, 0, 66, 80
1, 73200, Note_on_c, 0, 74, 80
1, 73259, Note_on_c, 0, 74, 0
1, 73260, Note_on_c, 0, 76, 80
1, 73319, Note_on_c, 0, 66, 0
1, 73319, Note_on_c, 0, 76, 0
1, 73320, Note_on_c, 0, 78, 80
1, 73439, Note_on_c, 0, 78, 0
1, 73440, Note_on_c, 0, 50, 80
1, 73440, Note_on_c, 0, 79, 80
1, 73499, Note_on_c, 0, 79, 0
1, 73500, Note_on_c, 0, 78, 80
1, 73559, Note_on_c, 0, 50, 0
1, 73559, Note_on_c, 0, 78, 0
1, 73560, Note_on_c, 0, 48, 80
1, 73560, Note_on_c, 0, 76, 80
1, 73619, Note_on_c, 0, 76, 0
1, 73620, Note_on_c, 0, 78, 80
1, 73679, Note_on_c, 0, 48, 0
1, 73679, Note_on_c, 0, 78, 0
1, 73680, Note_on_c, 0, 47, 80
1, 73680, Note_on_c, 0, 79, 80
1, 73739, Note_on_c, 0, 79, 0
1, 73740, Note_on_c, 0, 78, 80
1, 73799, Note_on_c, 0, 47, 0
1, 73799, Note_on_c, 0, 78, 0
1, 73800, Note_on_c, 0, 45, 80
1, 73800, Note_on_c, 0, 76, 80
1, 73859, Note_on_c, 0, 76, 0
1, 73860, Note_on_c, 0, 78, 80
1, 73919, Note_on_c, 0, 45, 0
1, 73919, Note_on_c, 0, 78, 0
1, 73920, Note_on_c, 0, 79, 80
1, 74159, Note_on_c, 0, 79, 0
1, 74160, Note_on_c, 0, 55, 80
1, 74160, Note_on_c, 0, 78, 80
1, 74279, Note_on_c, 0, 78, 0
1, 74280, Note_on_c, 0, 76, 80
1, 74399, Note_on_c, 0, 55, 0
1, 74399, Note_on_c, 0, 76, 0
1, 74400, Note_on_c, 0, 54, 80
1, 74400, Note_on_c, 0, 74, 80
1, 74519, Note_on_c, 0, 74, 0
1, 74520, Note_on_c, 0, 72, 80
1, 74639, Note_on_c, 0, 54, 0
1, 74639, Note_on_c, 0, 72, 0
1, 74640, Note_on_c, 0, 55, 80
1, 74640, Note_on_c, 0, 71, 80
1, 74759, Note_on_c, 0, 71, 0
1, 74760, Note_on_c, 0, 74, 80
1, 74879, Note_on_c, 0, 74, 0
1, 74880, Note_on_c, 0, 72, 80
1, 74999, Note_on_c, 0, 72, 0
1, 75000, Note_on_c, 0, 76, 80
1, 75119, Note_on_c, 0, 76, 0
1, 75120, Note_on_c, 0, 74, 80
1, 75239, Note_on_c, 0, 74, 0
1, 75240, Note_on_c, 0, 77, 80
1, 75359, Note_on_c, 0, 77, 0
1, 75360, Note_on_c, 0, 76, 80
1, 75599, Note_on_c, 0, 55, 0
1, 75600, Note_on_c, 0, 66, 80
1, 75839, Note_on_c, 0, 66, 0
1, 75840, Note_on_c, 0, 69, 80
1, 75899, Note_on_c, 0, 69, 0
1, 75900, Note_on_c, 0, 67, 80
1, 75959, Note_on_c, 0, 67, 0
1, 75960, Note_on_c, 0, 66, 80
1, 76019, Note_on_c, 0, 66, 0
1, 76020, Note_on_c, 0, 67, 80
1, 76079, Note_on_c, 0, 67, 0
1, 76080, Note_on_c, 0, 69, 80
1, 76199, Note_on_c, 0, 76, 0
1, 76200, Note_on_c, 0, 74, 80
1, 76319, Note_on_c, 0, 69, 0
1, 76319, Note_on_c, 0, 74, 0
1, 76320, Note_on_c, 0, 72, 80
1, 76439, Note_on_c, 0, 72, 0
1, 76440, Note_on_c, 0, 71, 80
1, 76559, Note_on_c, 0, 71, 0
1, 76560, Note_on_c, 0, 72, 80
1, 76679, Note_on_c, 0, 72, 0
1, 76680, Note_on_c, 0, 78, 80
1, 76799, Note_on_c, 0, 78, 0
1, 76800, Note_on_c, 0, 81, 80
1, 76919, Note_on_c, 0, 81, 0
1, 76920, Note_on_c, 0, 74, 80
1, 77039, Note_on_c, 0, 74, 0
1, 77040, Note_on_c, 0, 72, 80
1, 77159, Note_on_c, 0, 72, 0
1, 77160, Note_on_c, 0, 71, 80
1, 77279, Note_on_c, 0, 71, 0
1, 77280, Note_on_c, 0, 72, 80
1, 77399, Note_on_c, 0, 72, 0
1, 77400, Note_on_c, 0, 69, 80
1, 77519, Note_on_c, 0, 69, 0
1, 77520, Note_on_c, 0, 71, 80
1, 77639, Note_on_c, 0, 71, 0
1, 77640, Note_on_c, 0, 76, 80
1, 77759, Note_on_c, 0, 76, 0
1, 77760, Note_on_c, 0, 74, 80
1, 77879, Note_on_c, 0, 74, 0
1, 77880, Note_on_c, 0, 72, 80
1, 77999, Note_on_c, 0, 72, 0
1, 78000, Note_on_c, 0, 74, 80
1, 78119, Note_on_c, 0, 74, 0
1, 78120, Note_on_c, 0, 80, 80
1, 78239, Note_on_c, 0, 80, 0
1, 78240, Note_on_c, 0, 83, 80
1, 78359, Note_on_c, 0, 83, 0
1, 78360, Note_on_c, 0, 76, 80
1, 78479, Note_on_c, 0, 76, 0
1, 78480, Note_on_c, 0, 74, 80
1, 78599, Note_on_c, 0, 74, 0
1, 78600, Note_on_c, 0, 72, 80
1, 78719, Note_on_c, 0, 72, 0
1, 78720, Note_on_c, 0, 74, 80
1, 78839, Note_on_c, 0, 74, 0
1, 78840, Note_on_c, 0, 71, 80
1, 78959, Note_on_c, 0, 71, 0
1, 78960, Note_on_c, 0, 72, 80
1, 79080, Note_on_c, 0, 67, 80
1, 79199, Note_on_c, 0, 67, 0
1, 79200, Note_on_c, 0, 66, 80
1, 79319, Note_on_c, 0, 66, 0
1, 79320, Note_on_c, 0, 67, 80
1, 79439, Note_on_c, 0, 67, 0
1, 79440, Note_on_c, 0, 69, 80
1, 79559, Note_on_c, 0, 69, 0
1, 79560, Note_on_c, 0, 66, 80
1, 79679, Note_on_c, 0, 66, 0
1, 79680, Note_on_c, 0, 62, 80
1, 79799, Note_on_c, 0, 72, 0
1, 79800, Note_on_c, 0, 71, 80
1, 79919, Note_on_c, 0, 71, 0
1, 79920, Note_on_c, 0, 69, 80
1, 80039, Note_on_c, 0, 69, 0
1, 80040, Note_on_c, 0, 71, 80
1, 80159, Note_on_c, 0, 71, 0
1, 80160, Note_on_c, 0, 72, 80
1, 80279, Note_on_c, 0, 72, 0
1, 80280, Note_on_c, 0, 69, 80
1, 80399, Note_on_c, 0, 69, 0
1, 80400, Note_on_c, 0, 74, 80
1, 80519, Note_on_c, 0, 62, 0
1, 80520, Note_on_c, 0, 66, 80
1, 80639, Note_on_c, 0, 66, 0
1, 80640, Note_on_c, 0, 64, 80
1, 80759, Note_on_c, 0, 64, 0
1, 80760, Note_on_c, 0, 67, 80
1, 80879, Note_on_c, 0, 67, 0
1, 80879, Note_on_c, 0, 74, 0
1, 80880, Note_on_c, 0, 66, 80
1, 80880, Note_on_c, 0, 71, 80
1, 81119, Note_on_c, 0, 66, 0
1, 81119, Note_on_c, 0, 71, 0
1, 81120, Note_on_c, 0, 59, 80
1, 81120, Note_on_c, 0, 67, 80
1, 81359, Note_on_c, 0, 59, 0
1, 81359, Note_on_c, 0, 67, 0
1, 81360, Note_on_c, 0, 60, 80
1, 81360, Note_on_c, 0, 69, 80
1, 81599, Note_on_c, 0, 60, 0
1, 81599, Note_on_c, 0, 69, 0
1, 81600, Note_on_c, 0, 57, 80
1, 81600, Note_on_c, 0, 66, 80
1, 81839, Note_on_c, 0, 57, 0
1, 81839, Note_on_c, 0, 66, 0
1, 81840, Note_on_c, 0, 59, 80
1, 81840, Note_on_c, 0, 67, 80
1, 82319, Note_on_c, 0, 59, 0
1, 82319, Note_on_c, 0, 67, 0
1, 82800, Note_on_c, 0, 81, 80
1, 82919, Note_on_c, 0, 81, 0
1, 82920, Note_on_c, 0, 79, 80
1, 83039, Note_on_c, 0, 79, 0
1, 83040, Note_on_c, 0, 78, 80
1, 83159, Note_on_c, 0, 78, 0
1, 83160, Note_on_c, 0, 76, 80
1, 83279, Note_on_c, 0, 76, 0
1, 83280, Note_on_c, 0, 79, 80
1, 83339, Note_on_c, 0, 79, 0
1, 83340, Note_on_c, 0, 78, 80
1, 83399, Note_on_c, 0, 78, 0
1, 83400, Note_on_c, 0, 76, 80
1, 83459, Note_on_c, 0, 76, 0
1, 83460, Note_on_c, 0, 78, 80
1, 83519, Note_on_c, 0, 78, 0
1, 83520, Note_on_c, 0, 74, 80
1, 83520, Note_on_c, 0, 79, 80
1, 83639, Note_on_c, 0, 74, 0
1, 83640, Note_on_c, 0, 72, 80
1, 83759, Note_on_c, 0, 72, 0
1, 83759, Note_on_c, 0, 79, 0
1, 83760, Note_on_c, 0, 71, 80
1, 83760, Note_on_c, 0, 81, 80
1, 83879, Note_on_c, 0, 71, 0
1, 83880, Note_on_c, 0, 69, 80
1, 83999, Note_on_c, 0, 69, 0
1, 83999, Note_on_c, 0, 81, 0
1, 84000, Note_on_c, 0, 71, 80
1, 84000, Note_on_c, 0, 74, 80
1, 84119, Note_on_c, 0, 74, 0
1, 84120, Note_on_c, 0, 78, 80
1, 84239, Note_on_c, 0, 71, 0
1, 84239, Note_on_c, 0, 78, 0
1, 84240, Note_on_c, 0, 72, 80
1, 84240, Note_on_c, 0, 76, 80
1, 84359, Note_on_c, 0, 76, 0
1, 84360, Note_on_c, 0, 79, 80
1, 84479, Note_on_c, 0, 72, 0
1, 84479, Note_on_c, 0, 79, 0
1, 84480, Note_on_c, 0, 74, 80
1, 84480, Note_on_c, 0, 78, 80
1, 84599, Note_on_c, 0, 78, 0
1, 84600, Note_on_c, 0, 81, 80
1, 84719, Note_on_c, 0, 74, 0
1, 84719, Note_on_c, 0, 81, 0
1, 84720, Note_on_c, 0, 67, 80
1, 84720, Note_on_c, 0, 79, 80
1, 84839, Note_on_c, 0, 67, 0
1, 84840, Note_on_c, 0, 71, 80
1, 84959, Note_on_c, 0, 71, 0
1, 84959, Note_on_c, 0, 79, 0
1, 84960, Note_on_c, 0, 69, 80
1, 84960, Note_on_c, 0, 78, 80
1, 85079, Note_on_c, 0, 69, 0
1, 85080, Note_on_c, 0, 72, 80
1, 85199, Note_on_c, 0, 72, 0
1, 85199, Note_on_c, 0, 78, 0
1, 85200, Note_on_c, 0, 71, 80
1, 85200, Note_on_c, 0, 79, 80
1, 85319, Note_on_c, 0, 71, 0
1, 85320, Note_on_c, 0, 74, 80
1, 85439, Note_on_c, 0, 74, 0
1, 85439, Note_on_c, 0, 79, 0
1, 85440, Note_on_c, 0, 72, 80
1, 85440, Note_on_c, 0, 76, 80
1, 85560, Note_on_c, 0, 69, 80
1, 85679, Note_on_c, 0, 69, 0
1, 85679, Note_on_c, 0, 76, 0
1, 85680, Note_on_c, 0, 67, 80
1, 85680, Note_on_c, 0, 75, 80
1, 85799, Note_on_c, 0, 67, 0
1, 85800, Note_on_c, 0, 66, 80
1, 85919, Note_on_c, 0, 66, 0
1, 85919, Note_on_c, 0, 75, 0
1, 85920, Note_on_c, 0, 64, 80
1, 85920, Note_on_c, 0, 76, 80
1, 86039, Note_on_c, 0, 64, 0
1, 86159, Note_on_c, 0, 76, 0
1, 86160, Note_on_c, 0, 66, 80
1, 86160, Note_on_c, 0, 81, 80
1, 86279, Note_on_c, 0, 72, 0
1, 86280, Note_on_c, 0, 79, 80
1, 86399, Note_on_c, 0, 79, 0
1, 86399, Note_on_c, 0, 66, 0
1, 86400, Note_on_c, 0, 78, 80
1, 86400, Note_on_c, 0, 67, 80
1, 86519, Note_on_c, 0, 78, 0
1, 86520, Note_on_c, 0, 76, 80
1, 86639, Note_on_c, 0, 76, 0
1, 86639, Note_on_c, 0, 67, 0
1, 86640, Note_on_c, 0, 75, 80
1, 86640, Note_on_c, 0, 69, 80
1, 86759, Note_on_c, 0, 75, 0
1, 86760, Note_on_c, 0, 76, 80
1, 86879, Note_on_c, 0, 76, 0
1, 86879, Note_on_c, 0, 69, 0
1, 86880, Note_on_c, 0, 71, 80
1, 86880, Note_on_c, 0, 63, 80
1, 86999, Note_on_c, 0, 63, 0
1, 87000, Note_on_c, 0, 66, 80
1, 87119, Note_on_c, 0, 66, 0
1, 87119, Note_on_c, 0, 81, 0
1, 87120, Note_on_c, 0, 64, 80
1, 87120, Note_on_c, 0, 79, 80
1, 87239, Note_on_c, 0, 64, 0
1, 87239, Note_on_c, 0, 79, 0
1, 87240, Note_on_c, 0, 67, 80
1, 87240, Note_on_c, 0, 76, 80
1, 87359, Note_on_c, 0, 67, 0
1, 87359, Note_on_c, 0, 76, 0
1, 87360, Note_on_c, 0, 66, 80
1, 87360, Note_on_c, 0, 76, 80
1, 87479, Note_on_c, 0, 66, 0
1, 87479, Note_on_c, 0, 76, 0
1, 87480, Note_on_c, 0, 69, 80
1, 87480, Note_on_c, 0, 75, 80
1, 87599, Note_on_c, 0, 69, 0
1, 87599, Note_on_c, 0, 75, 0
1, 87600, Note_on_c, 0, 67, 80
1, 87600, Note_on_c, 0, 83, 80
1, 87719, Note_on_c, 0, 71, 0
1, 87720, Note_on_c, 0, 73, 80
1, 87839, Note_on_c, 0, 73, 0
1, 87839, Note_on_c, 0, 67, 0
1, 87840, Note_on_c, 0, 75, 80
1, 87840, Note_on_c, 0, 66, 80
1, 87959, Note_on_c, 0, 75, 0
1, 87960, Note_on_c, 0, 76, 80
1, 88079, Note_on_c, 0, 76, 0
1, 88079, Note_on_c, 0, 66, 0
1, 88080, Note_on_c, 0, 78, 80
1, 88199, Note_on_c, 0, 78, 0
1, 88200, Note_on_c, 0, 75, 80
1, 88319, Note_on_c, 0, 75, 0
1, 88320, Note_on_c, 0, 76, 80
1, 88439, Note_on_c, 0, 83, 0
1, 88440, Note_on_c, 0, 84, 80
1, 88559, Note_on_c, 0, 76, 0
1, 88559, Note_on_c, 0, 84, 0
1, 88560, Note_on_c, 0, 64, 80
1, 88560, Note_on_c, 0, 83, 80
1, 88679, Note_on_c, 0, 83, 0
1, 88680, Note_on_c, 0, 81, 80
1, 88799, Note_on_c, 0, 64, 0
1, 88799, Note_on_c, 0, 81, 0
1, 88800, Note_on_c, 0, 63, 80
1, 88800, Note_on_c, 0, 79, 80
1, 88919, Note_on_c, 0, 79, 0
1, 88920, Note_on_c, 0, 78, 80
1, 89039, Note_on_c, 0, 63, 0
1, 89039, Note_on_c, 0, 78, 0
1, 89040, Note_on_c, 0, 64, 80
1, 89040, Note_on_c, 0, 79, 80
1, 89159, Note_on_c, 0, 79, 0
1, 89160, Note_on_c, 0, 76, 80
1, 89279, Note_on_c, 0, 76, 0
1, 89280, Note_on_c, 0, 81, 80
1, 89399, Note_on_c, 0, 81, 0
1, 89400, Note_on_c, 0, 76, 80
1, 89519, Note_on_c, 0, 76, 0
1, 89520, Note_on_c, 0, 83, 80
1, 89639, Note_on_c, 0, 83, 0
1, 89640, Note_on_c, 0, 76, 80
1, 89759, Note_on_c, 0, 76, 0
1, 89760, Note_on_c, 0, 84, 80
1, 89879, Note_on_c, 0, 84, 0
1, 89880, Note_on_c, 0, 83, 80
1, 89999, Note_on_c, 0, 83, 0
1, 90000, Note_on_c, 0, 81, 80
1, 90119, Note_on_c, 0, 81, 0
1, 90120, Note_on_c, 0, 79, 80
1, 90239, Note_on_c, 0, 79, 0
1, 90239, Note_on_c, 0, 64, 0
1, 90240, Note_on_c, 0, 78, 80
1, 90359, Note_on_c, 0, 78, 0
1, 90360, Note_on_c, 0, 76, 80
1, 90479, Note_on_c, 0, 76, 0
1, 90480, Note_on_c, 0, 69, 80
1, 90480, Note_on_c, 0, 74, 80
1, 90599, Note_on_c, 0, 74, 0
1, 90600, Note_on_c, 0, 78, 80
1, 90719, Note_on_c, 0, 69, 0
1, 90719, Note_on_c, 0, 78, 0
1, 90720, Note_on_c, 0, 71, 80
1, 90720, Note_on_c, 0, 76, 80
1, 90839, Note_on_c, 0, 76, 0
1, 90840, Note_on_c, 0, 79, 80
1, 90959, Note_on_c, 0, 71, 0
1, 90959, Note_on_c, 0, 79, 0
1, 90960, Note_on_c, 0, 72, 80
1, 90960, Note_on_c, 0, 78, 80
1, 91079, Note_on_c, 0, 78, 0
1, 91080, Note_on_c, 0, 81, 80
1, 91199, Note_on_c, 0, 72, 0
1, 91199, Note_on_c, 0, 81, 0
1, 91200, Note_on_c, 0, 74, 80
1, 91200, Note_on_c, 0, 79, 80
1, 91319, Note_on_c, 0, 79, 0
1, 91320, Note_on_c, 0, 81, 80
1, 91439, Note_on_c, 0, 74, 0
1, 91439, Note_on_c, 0, 81, 0
1, 91440, Note_on_c, 0, 76, 80
1, 91440, Note_on_c, 0, 83, 80
1, 91499, Note_on_c, 0, 83, 0
1, 91500, Note_on_c, 0, 81, 80
1, 91559, Note_on_c, 0, 81, 0
1, 91560, Note_on_c, 0, 83, 80
1, 91619, Note_on_c, 0, 83, 0
1, 91620, Note_on_c, 0, 81, 80
1, 91679, Note_on_c, 0, 76, 0
1, 91679, Note_on_c, 0, 81, 0
1, 91680, Note_on_c, 0, 78, 80
1, 91680, Note_on_c, 0, 83, 80
1, 91739, Note_on_c, 0, 83, 0
1, 91740, Note_on_c, 0, 81, 80
1, 91799, Note_on_c, 0, 81, 0
1, 91800, Note_on_c, 0, 79, 80
1, 91859, Note_on_c, 0, 79, 0
1, 91860, Note_on_c, 0, 81, 80
1, 91919, Note_on_c, 0, 78, 0
1, 91919, Note_on_c, 0, 81, 0
1, 91920, Note_on_c, 0, 79, 80
1, 91920, Note_on_c, 0, 83, 80
1, 92399, Note_on_c, 0, 79, 0
1, 92399, Note_on_c, 0, 83, 0
1, 92400, Note_on_c, 0, 74, 80
1, 92400, Note_on_c, 0, 79, 80
1, 92639, Note_on_c, 0, 74, 0
1, 92639, Note_on_c, 0, 79, 0
1, 92640, Note_on_c, 0, 67, 80
1, 92640, Note_on_c, 0, 76, 80
1, 92879, Note_on_c, 0, 67, 0
1, 92879, Note_on_c, 0, 76, 0
1, 92880, Note_on_c, 0, 69, 80
1, 92880, Note_on_c, 0, 78, 80
1, 93119, Note_on_c, 0, 69, 0
1, 93119, Note_on_c, 0, 78, 0
1, 93120, Note_on_c, 0, 66, 80
1, 93120, Note_on_c, 0, 75, 80
1, 93359, Note_on_c, 0, 66, 0
1, 93359, Note_on_c, 0, 75, 0
1, 93360, Note_on_c, 0, 67, 80
1, 93360, Note_on_c, 0, 76, 80
1, 93599, Note_on_c, 0, 67, 0
1, 93600, Note_on_c, 0, 69, 80
1, 93659, Note_on_c, 0, 69, 0
1, 93660, Note_on_c, 0, 68, 80
1, 93719, Note_on_c, 0, 68, 0
1, 93720, Note_on_c, 0, 69, 80
1, 93779, Note_on_c, 0, 69, 0
1, 93780, Note_on_c, 0, 68, 80
1, 93839, Note_on_c, 0, 68, 0
1, 93839, Note_on_c, 0, 76, 0
1, 93840, Note_on_c, 0, 69, 80
1, 93899, Note_on_c, 0, 69, 0
1, 93900, Note_on_c, 0, 68, 80
1, 93959, Note_on_c, 0, 68, 0
1, 93960, Note_on_c, 0, 66, 80
1, 94019, Note_on_c, 0, 66, 0
1, 94020, Note_on_c, 0, 68, 80
1, 94079, Note_on_c, 0, 68, 0
1, 94080, Note_on_c, 0, 69, 80
1, 94320, Note_on_c, 0, 76, 80
1, 94439, Note_on_c, 0, 76, 0
1, 94440, Note_on_c, 0, 74, 80
1, 94559, Note_on_c, 0, 69, 0
1, 94559, Note_on_c, 0, 74, 0
1, 94560, Note_on_c, 0, 67, 80
1, 94560, Note_on_c, 0, 72, 80
1, 94679, Note_on_c, 0, 72, 0
1, 94680, Note_on_c, 0, 71, 80
1, 94799, Note_on_c, 0, 67, 0
1, 94799, Note_on_c, 0, 71, 0
1, 94800, Note_on_c, 0, 69, 80
1, 94800, Note_on_c, 0, 72, 80
1, 95039, Note_on_c, 0, 69, 0
1, 95039, Note_on_c, 0, 72, 0
1, 95040, Note_on_c, 0, 67, 80
1, 95040, Note_on_c, 0, 74, 80
1, 95279, Note_on_c, 0, 74, 0
1, 95280, Note_on_c, 0, 76, 80
1, 95519, Note_on_c, 0, 67, 0
1, 95519, Note_on_c, 0, 76, 0
1, 95520, Note_on_c, 0, 66, 80
1, 95520, Note_on_c, 0, 69, 80
1, 95639, Note_on_c, 0, 69, 0
1, 95640, Note_on_c, 0, 72, 80
1, 95759, Note_on_c, 0, 66, 0
1, 95759, Note_on_c, 0, 72, 0
1, 95760, Note_on_c, 0, 67, 80
1, 95760, Note_on_c, 0, 71, 80
1, 95879, Note_on_c, 0, 71, 0
1, 95880, Note_on_c, 0, 74, 80
1, 95999, Note_on_c, 0, 67, 0
1, 95999, Note_on_c, 0, 74, 0
1, 96000, Note_on_c, 0, 64, 80
1, 96000, Note_on_c, 0, 73, 80
1, 96119, Note_on_c, 0, 73, 0
1, 96120, Note_on_c, 0, 76, 80
1, 96239, Note_on_c, 0, 64, 0
1, 96239, Note_on_c, 0, 76, 0
1, 96240, Note_on_c, 0, 66, 80
1, 96240, Note_on_c, 0, 74, 80
1, 96299, Note_on_c, 0, 74, 0
1, 96300, Note_on_c, 0, 76, 80
1, 96359, Note_on_c, 0, 66, 0
1, 96359, Note_on_c, 0, 76, 0
1, 96360, Note_on_c, 0, 78, 80
1, 96479, Note_on_c, 0, 78, 0
1, 96480, Note_on_c, 0, 50, 80
1, 96480, Note_on_c, 0, 79, 80
1, 96539, Note_on_c, 0, 79, 0
1, 96540, Note_on_c, 0, 78, 80
1, 96599, Note_on_c, 0, 50, 0
1, 96599, Note_on_c, 0, 78, 0
1, 96600, Note_on_c, 0, 48, 80
1, 96600, Note_on_c, 0, 76, 80
1, 96659, Note_on_c, 0, 76, 0
1, 96660, Note_on_c, 0, 78, 80
1, 96719, Note_on_c, 0, 48, 0
1, 96719, Note_on_c, 0, 78, 0
1, 96720, Note_on_c, 0, 47, 80
1, 96720, Note_on_c, 0, 79, 80
1, 96779, Note_on_c, 0, 79, 0
1, 96780, Note_on_c, 0, 78, 80
1, 96839, Note_on_c, 0, 47, 0
1, 96839, Note_on_c, 0, 78, 0
1, 96840, Note_on_c, 0, 45, 80
1, 96840, Note_on_c, 0, 76, 80
1, 96899, Note_on_c, 0, 76, 0
1, 96900, Note_on_c, 0, 78, 80
1, 96959, Note_on_c, 0, 45, 0
1, 96959, Note_on_c, 0, 78, 0
1, 96960, Note_on_c, 0, 79, 80
1, 97199, Note_on_c, 0, 79, 0
1, 97200, Note_on_c, 0, 55, 80
1, 97200, Note_on_c, 0, 78, 80
1, 97319, Note_on_c, 0, 78, 0
1, 97320, Note_on_c, 0, 76, 80
1, 97439, Note_on_c, 0, 55, 0
1, 97439, Note_on_c, 0, 76, 0
1, 97440, Note_on_c, 0, 54, 80
1, 97440, Note_on_c, 0, 74, 80
1, 97559, Note_on_c, 0, 74, 0
1, 97560, Note_on_c, 0, 72, 80
1, 97679, Note_on_c, 0, 54, 0
1, 97679, Note_on_c, 0, 72, 0
1, 97680, Note_on_c, 0, 55, 80
1, 97680, Note_on_c, 0, 71, 80
1, 97799, Note_on_c, 0, 71, 0
1, 97800, Note_on_c, 0, 74, 80
1, 97919, Note_on_c, 0, 74, 0
1, 97920, Note_on_c, 0, 72, 80
1, 98039, Note_on_c, 0, 72, 0
1, 98040, Note_on_c, 0, 76, 80
1, 98159, Note_on_c, 0, 76, 0
1, 98160, Note_on_c, 0, 74, 80
1, 98279, Note_on_c, 0, 74, 0
1, 98280, Note_on_c, 0, 77, 80
1, 98399, Note_on_c, 0, 77, 0
1, 98400, Note_on_c, 0, 76, 80
1, 98639, Note_on_c, 0, 55, 0
1, 98640, Note_on_c, 0, 66, 80
1, 98879, Note_on_c, 0, 66, 0
1, 98880, Note_on_c, 0, 69, 80
1, 98939, Note_on_c, 0, 69, 0
1, 98940, Note_on_c, 0, 67, 80
1, 98999, Note_on_c, 0, 67, 0
1, 99000, Note_on_c, 0, 66, 80
1, 99059, Note_on_c, 0, 66, 0
1, 99060, Note_on_c, 0, 67, 80
1, 99119, Note_on_c, 0, 67, 0
1, 99120, Note_on_c, 0, 69, 80
1, 99239, Note_on_c, 0, 76, 0
1, 99240, Note_on_c, 0, 74, 80
1, 99359, Note_on_c, 0, 69, 0
1, 99359, Note_on_c, 0, 74, 0
1, 99360, Note_on_c, 0, 72, 80
1, 99479, Note_on_c, 0, 72, 0
1, 99480, Note_on_c, 0, 71, 80
1, 99599, Note_on_c, 0, 71, 0
1, 99600, Note_on_c, 0, 72, 80
1, 99719, Note_on_c, 0, 72, 0
1, 99720, Note_on_c, 0, 78, 80
1, 99839, Note_on_c, 0, 78, 0
1, 99840, Note_on_c, 0, 81, 80
1, 99959, Note_on_c, 0, 81, 0
1, 99960, Note_on_c, 0, 74, 80
1, 100079, Note_on_c, 0, 74, 0
1, 100080, Note_on_c, 0, 72, 80
1, 100199, Note_on_c, 0, 72, 0
1, 100200, Note_on_c, 0, 71, 80
1, 100319, Note_on_c, 0, 71, 0
1, 100320, Note_on_c, 0, 72, 80
1, 100439, Note_on_c, 0, 72, 0
1, 100440, Note_on_c, 0, 69, 80
1, 100559, Note_on_c, 0, 69, 0
1, 100560, Note_on_c, 0, 71, 80
1, 100679, Note_on_c, 0, 71, 0
1, 100680, Note_on_c, 0, 76, 80
1, 100799, Note_on_c, 0, 76, 0
1, 100800, Note_on_c, 0, 74, 80
1, 100919, Note_on_c, 0, 74, 0
1, 100920, Note_on_c, 0, 72, 80
1, 101039, Note_on_c, 0, 72, 0
1, 101040, Note_on_c, 0, 74, 80
1, 101159, Note_on_c, 0, 74, 0
1, 101160, Note_on_c, 0, 80, 80
1, 101279, Note_on_c, 0, 80, 0
1, 101280, Note_on_c, 0, 83, 80
1, 101399, Note_on_c, 0, 83, 0
1, 101400, Note_on_c, 0, 76, 80
1, 101519, Note_on_c, 0, 76, 0
1, 101520, Note_on_c, 0, 74, 80
1, 101639, Note_on_c, 0, 74, 0
1, 101640, Note_on_c, 0, 72, 80
1, 101759, Note_on_c, 0, 72, 0
1, 101760, Note_on_c, 0, 74, 80
1, 101879, Note_on_c, 0, 74, 0
1, 101880, Note_on_c, 0, 71, 80
1, 101999, Note_on_c, 0, 71, 0
1, 102000, Note_on_c, 0, 72, 80
1, 102120, Note_on_c, 0, 67, 80
1, 102239, Note_on_c, 0, 67, 0
1, 102240, Note_on_c, 0, 66, 80
1, 102359, Note_on_c, 0, 66, 0
1, 102360, Note_on_c, 0, 67, 80
1, 102479, Note_on_c, 0, 67, 0
1, 102480, Note_on_c, 0, 69, 80
1, 102599, Note_on_c, 0, 69, 0
1, 102600, Note_on_c, 0, 66, 80
1, 102719, Note_on_c, 0, 66, 0
1, 102720, Note_on_c, 0, 62, 80
1, 102839, Note_on_c, 0, 72, 0
1, 102840, Note_on_c, 0, 71, 80
1, 102959, Note_on_c, 0, 71, 0
1, 102960, Note_on_c, 0, 69, 80
1, 103079, Note_on_c, 0, 69, 0
1, 103080, Note_on_c, 0, 71, 80
1, 103199, Note_on_c, 0, 71, 0
1, 103200, Note_on_c, 0, 72, 80
1, 103319, Note_on_c, 0, 72, 0
1, 103320, Note_on_c, 0, 69, 80
1, 103439, Note_on_c, 0, 69, 0
1, 103440, Note_on_c, 0, 74, 80
1, 103559, Note_on_c, 0, 62, 0
1, 103560, Note_on_c, 0, 66, 80
1, 103679, Note_on_c, 0, 66, 0
1, 103680, Note_on_c, 0, 64, 80
1, 103799, Note_on_c, 0, 64, 0
1, 103800, Note_on_c, 0, 67, 80
1, 103919, Note_on_c, 0, 67, 0
1, 103919, Note_on_c, 0, 74, 0
1, 103920, Note_on_c, 0, 66, 80
1, 103920, Note_on_c, 0, 71, 80
1, 104159, Note_on_c, 0, 66, 0
1, 104159, Note_on_c, 0, 71, 0
1, 104160, Note_on_c, 0, 59, 80
1, 104160, Note_on_c, 0, 67, 80
1, 104399, Note_on_c, 0, 59, 0
1, 104399, Note_on_c, 0, 67, 0
1, 104400, Note_on_c, 0, 60, 80
1, 104400, Note_on_c, 0, 69, 80
1, 104639, Note_on_c, 0, 60, 0
1, 104639, Note_on_c, 0, 69, 0
1, 104640, Note_on_c, 0, 57, 80
1, 104640, Note_on_c, 0, 66, 80
1, 104879, Note_on_c, 0, 57, 0
1, 104879, Note_on_c, 0, 66, 0
1, 104880, Time_signature, 4, 2, 24, 8
1, 104880, Note_on_c, 0, 62, 80
1, 104880, Note_on_c, 0, 59, 80
1, 104880, Note_on_c, 0, 67, 80
1, 106799, Note_on_c, 0, 62, 0
1, 106799, Note_on_c, 0, 59, 0
1, 106799, Note_on_c, 0, 67, 0
1, 106800, End_track
2, 0, Start_track
2, 0, Key_signature, 1, "major"
2, 0, Note_on_c, 0, 47, 80
2, 0, Note_on_c, 0, 50, 80
2, 0, Note_on_c, 0, 43, 80
2, 0, Note_on_c, 0, 55, 80
2, 479, Note_on_c, 0, 47, 0
2, 479, Note_on_c, 0, 50, 0
2, 479, Note_on_c, 0, 43, 0
2, 479, Note_on_c, 0, 55, 0
2, 1800, Note_on_c, 0, 59, 80
2, 1800, Note_on_c, 0, 55, 80
2, 1919, Note_on_c, 0, 59, 0
2, 1919, Note_on_c, 0, 55, 0
2, 1920, Note_on_c, 0, 57, 80
2, 1920, Note_on_c, 0, 54, 80
2, 2399, Note_on_c, 0, 57, 0
2, 2399, Note_on_c, 0, 54, 0
2, 2460, Note_on_c, 0, 50, 80
2, 2519, Note_on_c, 0, 50, 0
2, 2520, Note_on_c, 0, 52, 80
2, 2579, Note_on_c, 0, 52, 0
2, 2580, Note_on_c, 0, 54, 80
2, 2639, Note_on_c, 0, 54, 0
2, 2640, Note_on_c, 0, 55, 80
2, 2699, Note_on_c, 0, 55, 0
2, 2700, Note_on_c, 0, 57, 80
2, 2759, Note_on_c, 0, 57, 0
2, 2760, Note_on_c, 0, 59, 80
2, 2819, Note_on_c, 0, 59, 0
2, 2820, Note_on_c, 0, 60, 80
2, 2879, Note_on_c, 0, 60, 0
2, 2880, Note_on_c, 0, 62, 80
2, 3239, Note_on_c, 0, 62, 0
2, 3240, Note_on_c, 0, 57, 80
2, 3359, Note_on_c, 0, 57, 0
2, 3360, Note_on_c, 0, 54, 80
2, 3719, Note_on_c, 0, 54, 0
2, 3720, Note_on_c, 0, 50, 80
2, 3839, Note_on_c, 0, 50, 0
2, 3840, Note_on_c, 0, 52, 80
2, 4559, Note_on_c, 0, 52, 0
2, 4560, Note_on_c, 0, 55, 80
2, 4799, Note_on_c, 0, 55, 0
2, 4800, Note_on_c, 0, 54, 80
2, 4859, Note_on_c, 0, 54, 0
2, 4860, Note_on_c, 0, 52, 80
2, 4919, Note_on_c, 0, 52, 0
2, 4920, Note_on_c, 0, 50, 80
2, 4979, Note_on_c, 0, 50, 0
2, 4980, Note_on_c, 0, 52, 80
2, 5039, Note_on_c, 0, 52, 0
2, 5040, Note_on_c, 0, 54, 80
2, 5099, Note_on_c, 0, 54, 0
2, 5100, Note_on_c, 0, 52, 80
2, 5159, Note_on_c, 0, 52, 0
2, 5160, Note_on_c, 0, 54, 80
2, 5219, Note_on_c, 0, 54, 0
2, 5220, Note_on_c, 0, 52, 80
2, 5279, Note_on_c, 0, 52, 0
2, 5280, Note_on_c, 0, 54, 80
2, 5339, Note_on_c, 0, 54, 0
2, 5340, Note_on_c, 0, 52, 80
2, 5399, Note_on_c, 0, 52, 0
2, 5400, Note_on_c, 0, 54, 80
2, 5459, Note_on_c, 0, 54, 0
2, 5460, Note_on_c, 0, 52, 80
2, 5579, Note_on_c, 0, 52, 0
2, 5580, Note_on_c, 0, 50, 80
2, 5639, Note_on_c, 0, 50, 0
2, 5640, Note_on_c, 0, 52, 80
2, 5699, Note_on_c, 0, 52, 0
2, 5700, Note_on_c, 0, 54, 80
2, 5759, Note_on_c, 0, 54, 0
2, 5760, Note_on_c, 0, 50, 80
2, 6119, Note_on_c, 0, 50, 0
2, 6120, Note_on_c, 0, 60, 80
2, 6179, Note_on_c, 0, 60, 0
2, 6180, Note_on_c, 0, 59, 80
2, 6239, Note_on_c, 0, 59, 0
2, 6240, Note_on_c, 0, 60, 80
2, 6599, Note_on_c, 0, 60, 0
2, 6600, Note_on_c, 0, 57, 80
2, 6719, Note_on_c, 0, 57, 0
2, 6720, Note_on_c, 0, 54, 80
2, 7079, Note_on_c, 0, 54, 0
2, 7080, Note_on_c, 0, 64, 80
2, 7199, Note_on_c, 0, 64, 0
2, 7200, Note_on_c, 0, 62, 80
2, 7559, Note_on_c, 0, 62, 0
2, 7560, Note_on_c, 0, 60, 80
2, 7679, Note_on_c, 0, 60, 0
2, 7680, Note_on_c, 0, 60, 80
2, 7739, Note_on_c, 0, 60, 0
2, 7740, Note_on_c, 0, 59, 80
2, 7799, Note_on_c, 0, 59, 0
2, 7800, Note_on_c, 0, 57, 80
2, 7859, Note_on_c, 0, 57, 0
2, 7860, Note_on_c, 0, 59, 80
2, 7919, Note_on_c, 0, 59, 0
2, 7920, Note_on_c, 0, 60, 80
2, 7979, Note_on_c, 0, 60, 0
2, 7980, Note_on_c, 0, 59, 80
2, 8039, Note_on_c, 0, 59, 0
2, 8040, Note_on_c, 0, 60, 80
2, 8099, Note_on_c, 0, 60, 0
2, 8100, Note_on_c, 0, 59, 80
2, 8159, Note_on_c, 0, 59, 0
2, 8160, Note_on_c, 0, 60, 80
2, 8219, Note_on_c, 0, 60, 0
2, 8220, Note_on_c, 0, 59, 80
2, 8279, Note_on_c, 0, 59, 0
2, 8280, Note_on_c, 0, 60, 80
2, 8339, Note_on_c, 0, 60, 0
2, 8340, Note_on_c, 0, 59, 80
2, 8399, Note_on_c, 0, 59, 0
2, 8400, Note_on_c, 0, 59, 80
2, 8639, Note_on_c, 0, 59, 0
2, 8640, Note_on_c, 0, 59, 80
2, 8879, Note_on_c, 0, 59, 0
2, 8940, Note_on_c, 0, 60, 80
2, 8999, Note_on_c, 0, 60, 0
2, 9000, Note_on_c, 0, 59, 80
2, 9059, Note_on_c, 0, 59, 0
2, 9060, Note_on_c, 0, 57, 80
2, 9119, Note_on_c, 0, 57, 0
2, 9120, Note_on_c, 0, 59, 80
2, 9479, Note_on_c, 0, 59, 0
2, 9480, Note_on_c, 0, 55, 80
2, 9599, Note_on_c, 0, 55, 0
2, 9600, Note_on_c, 0, 60, 80
2, 9659, Note_on_c, 0, 60, 0
2, 9660, Note_on_c, 0, 59, 80
2, 9719, Note_on_c, 0, 59, 0
2, 9720, Note_on_c, 0, 60, 80
2, 10319, Note_on_c, 0, 60, 0
2, 10320, Note_on_c, 0, 60, 80
2, 10379, Note_on_c, 0, 60, 0
2, 10380, Note_on_c, 0, 62, 80
2, 10439, Note_on_c, 0, 62, 0
2, 10440, Note_on_c, 0, 60, 80
2, 10499, Note_on_c, 0, 60, 0
2, 10500, Note_on_c, 0, 59, 80
2, 10559, Note_on_c, 0, 59, 0
2, 10560, Note_on_c, 0, 60, 80
2, 10799, Note_on_c, 0, 60, 0
2, 10860, Note_on_c, 0, 59, 80
2, 10919, Note_on_c, 0, 59, 0
2, 10920, Note_on_c, 0, 57, 80
2, 10979, Note_on_c, 0, 57, 0
2, 10980, Note_on_c, 0, 55, 80
2, 11039, Note_on_c, 0, 55, 0
2, 11040, Note_on_c, 0, 57, 80
2, 11279, Note_on_c, 0, 57, 0
2, 11340, Note_on_c, 0, 55, 80
2, 11399, Note_on_c, 0, 55, 0
2, 11400, Note_on_c, 0, 54, 80
2, 11459, Note_on_c, 0, 54, 0
2, 11460, Note_on_c, 0, 52, 80
2, 11519, Note_on_c, 0, 52, 0
2, 11520, Note_on_c, 0, 50, 80
2, 12479, Note_on_c, 0, 50, 0
2, 12600, Note_on_c, 0, 48, 80
2, 12659, Note_on_c, 0, 48, 0
2, 12660, Note_on_c, 0, 47, 80
2, 12719, Note_on_c, 0, 47, 0
2, 12720, Note_on_c, 0, 45, 80
2, 12779, Note_on_c, 0, 45, 0
2, 12780, Note_on_c, 0, 43, 80
2, 12839, Note_on_c, 0, 43, 0
2, 12840, Note_on_c, 0, 42, 80
2, 12899, Note_on_c, 0, 42, 0
2, 12900, Note_on_c, 0, 40, 80
2, 12959, Note_on_c, 0, 40, 0
2, 12960, Note_on_c, 0, 38, 80
2, 13079, Note_on_c, 0, 38, 0
2, 13080, Note_on_c, 0, 42, 80
2, 13199, Note_on_c, 0, 42, 0
2, 13200, Note_on_c, 0, 45, 80
2, 13319, Note_on_c, 0, 45, 0
2, 13320, Note_on_c, 0, 50, 80
2, 13439, Note_on_c, 0, 50, 0
2, 13440, Note_on_c, 0, 43, 80
2, 13559, Note_on_c, 0, 43, 0
2, 13560, Note_on_c, 0, 50, 80
2, 13679, Note_on_c, 0, 50, 0
2, 13680, Note_on_c, 0, 52, 80
2, 13799, Note_on_c, 0, 52, 0
2, 13800, Note_on_c, 0, 54, 80
2, 13919, Note_on_c, 0, 54, 0
2, 13920, Note_on_c, 0, 55, 80
2, 14039, Note_on_c, 0, 55, 0
2, 14040, Note_on_c, 0, 54, 80
2, 14159, Note_on_c, 0, 54, 0
2, 14160, Note_on_c, 0, 55, 80
2, 14279, Note_on_c, 0, 55, 0
2, 14280, Note_on_c, 0, 57, 80
2, 14399, Note_on_c, 0, 57, 0
2, 14400, Note_on_c, 0, 60, 80
2, 14459, Note_on_c, 0, 60, 0
2, 14460, Note_on_c, 0, 59, 80
2, 14519, Note_on_c, 0, 59, 0
2, 14520, Note_on_c, 0, 60, 80
2, 14579, Note_on_c, 0, 60, 0
2, 14580, Note_on_c, 0, 59, 80
2, 14639, Note_on_c, 0, 59, 0
2, 14640, Note_on_c, 0, 60, 80
2, 14699, Note_on_c, 0, 60, 0
2, 14700, Note_on_c, 0, 59, 80
2, 14759, Note_on_c, 0, 59, 0
2, 14760, Note_on_c, 0, 60, 80
2, 14819, Note_on_c, 0, 60, 0
2, 14820, Note_on_c, 0, 59, 80
2, 14879, Note_on_c, 0, 59, 0
2, 14880, Note_on_c, 0, 60, 80
2, 14939, Note_on_c, 0, 60, 0
2, 14940, Note_on_c, 0, 59, 80
2, 14999, Note_on_c, 0, 59, 0
2, 15000, Note_on_c, 0, 60, 80
2, 15059, Note_on_c, 0, 60, 0
2, 15060, Note_on_c, 0, 59, 80
2, 15119, Note_on_c, 0, 59, 0
2, 15180, Note_on_c, 0, 57, 80
2, 15239, Note_on_c, 0, 57, 0
2, 15240, Note_on_c, 0, 55, 80
2, 15299, Note_on_c, 0, 55, 0
2, 15300, Note_on_c, 0, 54, 80
2, 15359, Note_on_c, 0, 54, 0
2, 15360, Note_on_c, 0, 55, 80
2, 15479, Note_on_c, 0, 55, 0
2, 15480, Note_on_c, 0, 59, 80
2, 15599, Note_on_c, 0, 59, 0
2, 15600, Note_on_c, 0, 61, 80
2, 15719, Note_on_c, 0, 61, 0
2, 15720, Note_on_c, 0, 63, 80
2, 15839, Note_on_c, 0, 63, 0
2, 15840, Note_on_c, 0, 64, 80
2, 15959, Note_on_c, 0, 64, 0
2, 15960, Note_on_c, 0, 63, 80
2, 16079, Note_on_c, 0, 63, 0
2, 16080, Note_on_c, 0, 64, 80
2, 16199, Note_on_c, 0, 64, 0
2, 16200, Note_on_c, 0, 66, 80
2, 16319, Note_on_c, 0, 66, 0
2, 16320, Note_on_c, 0, 67, 80
2, 16679, Note_on_c, 0, 67, 0
2, 16680, Note_on_c, 0, 55, 80
2, 16799, Note_on_c, 0, 55, 0
2, 16800, Note_on_c, 0, 67, 80
2, 17159, Note_on_c, 0, 67, 0
2, 17160, Note_on_c, 0, 67, 80
2, 17279, Note_on_c, 0, 67, 0
2, 17280, Note_on_c, 0, 67, 80
2, 17759, Note_on_c, 0, 67, 0
2, 18060, Note_on_c, 0, 67, 80
2, 18119, Note_on_c, 0, 67, 0
2, 18120, Note_on_c, 0, 66, 80
2, 18179, Note_on_c, 0, 66, 0
2, 18180, Note_on_c, 0, 64, 80
2, 18239, Note_on_c, 0, 64, 0
2, 18240, Note_on_c, 0, 66, 80
2, 18479, Note_on_c, 0, 66, 0
2, 18540, Note_on_c, 0, 59, 80
2, 18599, Note_on_c, 0, 59, 0
2, 18600, Note_on_c, 0, 61, 80
2, 18659, Note_on_c, 0, 61, 0
2, 18660, Note_on_c, 0, 63, 80
2, 18719, Note_on_c, 0, 63, 0
2, 18720, Note_on_c, 0, 64, 80
2, 19079, Note_on_c, 0, 64, 0
2, 19080, Note_on_c, 0, 64, 80
2, 19199, Note_on_c, 0, 64, 0
2, 19200, Note_on_c, 0, 64, 80
2, 19679, Note_on_c, 0, 64, 0
2, 19980, Note_on_c, 0, 60, 80
2, 20039, Note_on_c, 0, 60, 0
2, 20040, Note_on_c, 0, 59, 80
2, 20099, Note_on_c, 0, 59, 0
2, 20100, Note_on_c, 0, 57, 80
2, 20159, Note_on_c, 0, 57, 0
2, 20160, Note_on_c, 0, 56, 80
2, 20519, Note_on_c, 0, 56, 0
2, 20520, Note_on_c, 0, 59, 80
2, 20639, Note_on_c, 0, 59, 0
2, 20640, Note_on_c, 0, 52, 80
2, 20999, Note_on_c, 0, 52, 0
2, 21000, Note_on_c, 0, 56, 80
2, 21119, Note_on_c, 0, 56, 0
2, 21120, Note_on_c, 0, 57, 80
2, 21599, Note_on_c, 0, 57, 0
2, 21720, Note_on_c, 0, 45, 80
2, 21779, Note_on_c, 0, 45, 0
2, 21780, Note_on_c, 0, 47, 80
2, 21839, Note_on_c, 0, 47, 0
2, 21840, Note_on_c, 0, 49, 80
2, 21899, Note_on_c, 0, 49, 0
2, 21900, Note_on_c, 0, 50, 80
2, 21959, Note_on_c, 0, 50, 0
2, 21960, Note_on_c, 0, 52, 80
2, 22019, Note_on_c, 0, 52, 0
2, 22020, Note_on_c, 0, 54, 80
2, 22079, Note_on_c, 0, 54, 0
2, 22080, Note_on_c, 0, 55, 80
2, 22439, Note_on_c, 0, 55, 0
2, 22440, Note_on_c, 0, 52, 80
2, 22559, Note_on_c, 0, 52, 0
2, 22560, Note_on_c, 0, 49, 80
2, 22919, Note_on_c, 0, 49, 0
2, 22920, Note_on_c, 0, 45, 80
2, 23039, Note_on_c, 0, 45, 0
2, 23040, Note_on_c, 0, 54, 80
2, 23519, Note_on_c, 0, 54, 0
2, 23820, Note_on_c, 0, 55, 80
2, 23879, Note_on_c, 0, 55, 0
2, 23880, Note_on_c, 0, 54, 80
2, 23939, Note_on_c, 0, 54, 0
2, 23940, Note_on_c, 0, 52, 80
2, 23999, Note_on_c, 0, 52, 0
2, 24000, Note_on_c, 0, 50, 80
2, 24239, Note_on_c, 0, 50, 0
2, 24300, Note_on_c, 0, 48, 80
2, 24359, Note_on_c, 0, 48, 0
2, 24360, Note_on_c, 0, 47, 80
2, 24419, Note_on_c, 0, 47, 0
2, 24420, Note_on_c, 0, 45, 80
2, 24479, Note_on_c, 0, 45, 0
2, 24480, Note_on_c, 0, 43, 80
2, 24719, Note_on_c, 0, 43, 0
2, 24780, Note_on_c, 0, 50, 80
2, 24839, Note_on_c, 0, 50, 0
2, 24840, Note_on_c, 0, 52, 80
2, 24899, Note_on_c, 0, 52, 0
2, 24900, Note_on_c, 0, 54, 80
2, 24959, Note_on_c, 0, 54, 0
2, 24960, Note_on_c, 0, 55, 80
2, 25019, Note_on_c, 0, 55, 0
2, 25020, Note_on_c, 0, 54, 80
2, 25079, Note_on_c, 0, 54, 0
2, 25080, Note_on_c, 0, 55, 80
2, 25319, Note_on_c, 0, 55, 0
2, 25320, Note_on_c, 0, 43, 80
2, 25439, Note_on_c, 0, 43, 0
2, 25440, Note_on_c, 0, 55, 80
2, 25799, Note_on_c, 0, 55, 0
2, 25800, Note_on_c, 0, 55, 80
2, 25919, Note_on_c, 0, 55, 0
2, 25920, Note_on_c, 0, 55, 80
2, 26399, Note_on_c, 0, 55, 0
2, 26700, Note_on_c, 0, 55, 80
2, 26759, Note_on_c, 0, 55, 0
2, 26760, Note_on_c, 0, 54, 80
2, 26819, Note_on_c, 0, 54, 0
2, 26820, Note_on_c, 0, 52, 80
2, 26879, Note_on_c, 0, 52, 0
2, 26880, Note_on_c, 0, 54, 80
2, 26999, Note_on_c, 0, 54, 0
2, 27060, Note_on_c, 0, 50, 80
2, 27119, Note_on_c, 0, 50, 0
2, 27120, Note_on_c, 0, 52, 80
2, 27179, Note_on_c, 0, 52, 0
2, 27180, Note_on_c, 0, 54, 80
2, 27239, Note_on_c, 0, 54, 0
2, 27240, Note_on_c, 0, 55, 80
2, 27299, Note_on_c, 0, 55, 0
2, 27300, Note_on_c, 0, 57, 80
2, 27359, Note_on_c, 0, 57, 0
2, 27360, Note_on_c, 0, 59, 80
2, 27719, Note_on_c, 0, 59, 0
2, 27720, Note_on_c, 0, 55, 80
2, 27839, Note_on_c, 0, 55, 0
2, 27840, Note_on_c, 0, 57, 80
2, 28319, Note_on_c, 0, 57, 0
2, 28320, Note_on_c, 0, 45, 80
2, 28799, Note_on_c, 0, 45, 0
2, 28800, Note_on_c, 0, 38, 80
2, 29399, Note_on_c, 0, 38, 0
2, 29400, Note_on_c, 0, 50, 80
2, 29459, Note_on_c, 0, 50, 0
2, 29460, Note_on_c, 0, 52, 80
2, 29519, Note_on_c, 0, 52, 0
2, 29520, Note_on_c, 0, 54, 80
2, 29579, Note_on_c, 0, 54, 0
2, 29580, Note_on_c, 0, 55, 80
2, 29639, Note_on_c, 0, 55, 0
2, 29640, Note_on_c, 0, 57, 80
2, 29699, Note_on_c, 0, 57, 0
2, 29700, Note_on_c, 0, 59, 80
2, 29759, Note_on_c, 0, 59, 0
2, 29760, Note_on_c, 0, 60, 80
2, 30119, Note_on_c, 0, 60, 0
2, 30120, Note_on_c, 0, 57, 80
2, 30239, Note_on_c, 0, 57, 0
2, 30240, Note_on_c, 0, 54, 80
2, 30599, Note_on_c, 0, 54, 0
2, 30600, Note_on_c, 0, 50, 80
2, 30719, Note_on_c, 0, 50, 0
2, 30720, Note_on_c, 0, 47, 80
2, 30720, Note_on_c, 0, 50, 80
2, 30720, Note_on_c, 0, 43, 80
2, 30720, Note_on_c, 0, 55, 80
2, 31199, Note_on_c, 0, 47, 0
2, 31199, Note_on_c, 0, 50, 0
2, 31199, Note_on_c, 0, 43, 0
2, 31199, Note_on_c, 0, 55, 0
2, 32520, Note_on_c, 0, 59, 80
2, 32520, Note_on_c, 0, 55, 80
2, 32639, Note_on_c, 0, 59, 0
2, 32639, Note_on_c, 0, 55, 0
2, 32640, Note_on_c, 0, 57, 80
2, 32640, Note_on_c, 0, 54, 80
2, 33119, Note_on_c, 0, 57, 0
2, 33119, Note_on_c, 0, 54, 0
2, 33180, Note_on_c, 0, 50, 80
2, 33239, Note_on_c, 0, 50, 0
2, 33240, Note_on_c, 0, 52, 80
2, 33299, Note_on_c, 0, 52, 0
2, 33300, Note_on_c, 0, 54, 80
2, 33359, Note_on_c, 0, 54, 0
2, 33360, Note_on_c, 0, 55, 80
2, 33419, Note_on_c, 0, 55, 0
2, 33420, Note_on_c, 0, 57, 80
2, 33479, Note_on_c, 0, 57, 0
2, 33480, Note_on_c, 0, 59, 80
2, 33539, Note_on_c, 0, 59, 0
2, 33540, Note_on_c, 0, 60, 80
2, 33599, Note_on_c, 0, 60, 0
2, 33600, Note_on_c, 0, 62, 80
2, 33959, Note_on_c, 0, 62, 0
2, 33960, Note_on_c, 0, 57, 80
2, 34079, Note_on_c, 0, 57, 0
2, 34080, Note_on_c, 0, 54, 80
2, 34439, Note_on_c, 0, 54, 0
2, 34440, Note_on_c, 0, 50, 80
2, 34559, Note_on_c, 0, 50, 0
2, 34560, Note_on_c, 0, 52, 80
2, 35279, Note_on_c, 0, 52, 0
2, 35280, Note_on_c, 0, 55, 80
2, 35519, Note_on_c, 0, 55, 0
2, 35520, Note_on_c, 0, 54, 80
2, 35579, Note_on_c, 0, 54, 0
2, 35580, Note_on_c, 0, 52, 80
2, 35639, Note_on_c, 0, 52, 0
2, 35640, Note_on_c, 0, 50, 80
2, 35699, Note_on_c, 0, 50, 0
2, 35700, Note_on_c, 0, 52, 80
2, 35759, Note_on_c, 0, 52, 0
2, 35760, Note_on_c, 0, 54, 80
2, 35819, Note_on_c, 0, 54, 0
2, 35820, Note_on_c, 0, 52, 80
2, 35879, Note_on_c, 0, 52, 0
2, 35880, Note_on_c, 0, 54, 80
2, 35939, Note_on_c, 0, 54, 0
2, 35940, Note_on_c, 0, 52, 80
2, 35999, Note_on_c, 0, 52, 0
2, 36000, Note_on_c, 0, 54, 80
2, 36059, Note_on_c, 0, 54, 0
2, 36060, Note_on_c, 0, 52, 80
2, 36119, Note_on_c, 0, 52, 0
2, 36120, Note_on_c, 0, 54, 80
2, 36179, Note_on_c, 0, 54, 0
2, 36180, Note_on_c, 0, 52, 80
2, 36299, Note_on_c, 0, 52, 0
2, 36300, Note_on_c, 0, 50, 80
2, 36359, Note_on_c, 0, 50, 0
2, 36360, Note_on_c, 0, 52, 80
2, 36419, Note_on_c, 0, 52, 0
2, 36420, Note_on_c, 0, 54, 80
2, 36479, Note_on_c, 0, 54, 0
2, 36480, Note_on_c, 0, 50, 80
2, 36839, Note_on_c, 0, 50, 0
2, 36840, Note_on_c, 0, 60, 80
2, 36899, Note_on_c, 0, 60, 0
2, 36900, Note_on_c, 0, 59, 80
2, 36959, Note_on_c, 0, 59, 0
2, 36960, Note_on_c, 0, 60, 80
2, 37319, Note_on_c, 0, 60, 0
2, 37320, Note_on_c, 0, 57, 80
2, 37439, Note_on_c, 0, 57, 0
2, 37440, Note_on_c, 0, 54, 80
2, 37799, Note_on_c, 0, 54, 0
2, 37800, Note_on_c, 0, 64, 80
2, 37919, Note_on_c, 0, 64, 0
2, 37920, Note_on_c, 0, 62, 80
2, 38279, Note_on_c, 0, 62, 0
2, 38280, Note_on_c, 0, 60, 80
2, 38399, Note_on_c, 0, 60, 0
2, 38400, Note_on_c, 0, 60, 80
2, 38459, Note_on_c, 0, 60, 0
2, 38460, Note_on_c, 0, 59, 80
2, 38519, Note_on_c, 0, 59, 0
2, 38520, Note_on_c, 0, 57, 80
2, 38579, Note_on_c, 0, 57, 0
2, 38580, Note_on_c, 0, 59, 80
2, 38639, Note_on_c, 0, 59, 0
2, 38640, Note_on_c, 0, 60, 80
2, 38699, Note_on_c, 0, 60, 0
2, 38700, Note_on_c, 0, 59, 80
2, 38759, Note_on_c, 0, 59, 0
2, 38760, Note_on_c, 0, 60, 80
2, 38819, Note_on_c, 0, 60, 0
2, 38820, Note_on_c, 0, 59, 80
2, 38879, Note_on_c, 0, 59, 0
2, 38880, Note_on_c, 0, 60, 80
2, 38939, Note_on_c, 0, 60, 0
2, 38940, Note_on_c, 0, 59, 80
2, 38999, Note_on_c, 0, 59, 0
2, 39000, Note_on_c, 0, 60, 80
2, 39059, Note_on_c, 0, 60, 0
2, 39060, Note_on_c, 0, 59, 80
2, 39119, Note_on_c, 0, 59, 0
2, 39120, Note_on_c, 0, 59, 80
2, 39359, Note_on_c, 0, 59, 0
2, 39360, Note_on_c, 0, 59, 80
2, 39599, Note_on_c, 0, 59, 0
2, 39660, Note_on_c, 0, 60, 80
2, 39719, Note_on_c, 0, 60, 0
2, 39720, Note_on_c, 0, 59, 80
2, 39779, Note_on_c, 0, 59, 0
2, 39780, Note_on_c, 0, 57, 80
2, 39839, Note_on_c, 0, 57, 0
2, 39840, Note_on_c, 0, 59, 80
2, 40199, Note_on_c, 0, 59, 0
2, 40200, Note_on_c, 0, 55, 80
2, 40319, Note_on_c, 0, 55, 0
2, 40320, Note_on_c, 0, 60, 80
2, 40379, Note_on_c, 0, 60, 0
2, 40380, Note_on_c, 0, 59, 80
2, 40439, Note_on_c, 0, 59, 0
2, 40440, Note_on_c, 0, 60, 80
2, 41039, Note_on_c, 0, 60, 0
2, 41040, Note_on_c, 0, 60, 80
2, 41099, Note_on_c, 0, 60, 0
2, 41100, Note_on_c, 0, 62, 80
2, 41159, Note_on_c, 0, 62, 0
2, 41160, Note_on_c, 0, 60, 80
2, 41219, Note_on_c, 0, 60, 0
2, 41220, Note_on_c, 0, 59, 80
2, 41279, Note_on_c, 0, 59, 0
2, 41280, Note_on_c, 0, 60, 80
2, 41519, Note_on_c, 0, 60, 0
2, 41580, Note_on_c, 0, 59, 80
2, 41639, Note_on_c, 0, 59, 0
2, 41640, Note_on_c, 0, 57, 80
2, 41699, Note_on_c, 0, 57, 0
2, 41700, Note_on_c, 0, 55, 80
2, 41759, Note_on_c, 0, 55, 0
2, 41760, Note_on_c, 0, 57, 80
2, 41999, Note_on_c, 0, 57, 0
2, 42060, Note_on_c, 0, 55, 80
2, 42119, Note_on_c, 0, 55, 0
2, 42120, Note_on_c, 0, 54, 80
2, 42179, Note_on_c, 0, 54, 0
2, 42180, Note_on_c, 0, 52, 80
2, 42239, Note_on_c, 0, 52, 0
2, 42240, Note_on_c, 0, 50, 80
2, 43199, Note_on_c, 0, 50, 0
2, 43320, Note_on_c, 0, 48, 80
2, 43379, Note_on_c, 0, 48, 0
2, 43380, Note_on_c, 0, 47, 80
2, 43439, Note_on_c, 0, 47, 0
2, 43440, Note_on_c, 0, 45, 80
2, 43499, Note_on_c, 0, 45, 0
2, 43500, Note_on_c, 0, 43, 80
2, 43559, Note_on_c, 0, 43, 0
2, 43560, Note_on_c, 0, 42, 80
2, 43619, Note_on_c, 0, 42, 0
2, 43620, Note_on_c, 0, 40, 80
2, 43679, Note_on_c, 0, 40, 0
2, 43680, Note_on_c, 0, 38, 80
2, 43799, Note_on_c, 0, 38, 0
2, 43800, Note_on_c, 0, 42, 80
2, 43919, Note_on_c, 0, 42, 0
2, 43920, Note_on_c, 0, 45, 80
2, 44039, Note_on_c, 0, 45, 0
2, 44040, Note_on_c, 0, 50, 80
2, 44159, Note_on_c, 0, 50, 0
2, 44160, Note_on_c, 0, 43, 80
2, 44279, Note_on_c, 0, 43, 0
2, 44280, Note_on_c, 0, 50, 80
2, 44399, Note_on_c, 0, 50, 0
2, 44400, Note_on_c, 0, 52, 80
2, 44519, Note_on_c, 0, 52, 0
2, 44520, Note_on_c, 0, 54, 80
2, 44639, Note_on_c, 0, 54, 0
2, 44640, Note_on_c, 0, 55, 80
2, 44759, Note_on_c, 0, 55, 0
2, 44760, Note_on_c, 0, 54, 80
2, 44879, Note_on_c, 0, 54, 0
2, 44880, Note_on_c, 0, 55, 80
2, 44999, Note_on_c, 0, 55, 0
2, 45000, Note_on_c, 0, 57, 80
2, 45119, Note_on_c, 0, 57, 0
2, 45120, Note_on_c, 0, 60, 80
2, 45179, Note_on_c, 0, 60, 0
2, 45180, Note_on_c, 0, 59, 80
2, 45239, Note_on_c, 0, 59, 0
2, 45240, Note_on_c, 0, 60, 80
2, 45299, Note_on_c, 0, 60, 0
2, 45300, Note_on_c, 0, 59, 80
2, 45359, Note_on_c, 0, 59, 0
2, 45360, Note_on_c, 0, 60, 80
2, 45419, Note_on_c, 0, 60, 0
2, 45420, Note_on_c, 0, 59, 80
2, 45479, Note_on_c, 0, 59, 0
2, 45480, Note_on_c, 0, 60, 80
2, 45539, Note_on_c, 0, 60, 0
2, 45540, Note_on_c, 0, 59, 80
2, 45599, Note_on_c, 0, 59, 0
2, 45600, Note_on_c, 0, 60, 80
2, 45659, Note_on_c, 0, 60, 0
2, 45660, Note_on_c, 0, 59, 80
2, 45719, Note_on_c, 0, 59, 0
2, 45720, Note_on_c, 0, 60, 80
2, 45779, Note_on_c, 0, 60, 0
2, 45780, Note_on_c, 0, 59, 80
2, 45839, Note_on_c, 0, 59, 0
2, 45900, Note_on_c, 0, 57, 80
2, 45959, Note_on_c, 0, 57, 0
2, 45960, Note_on_c, 0, 55, 80
2, 46019, Note_on_c, 0, 55, 0
2, 46020, Note_on_c, 0, 54, 80
2, 46079, Note_on_c, 0, 54, 0
2, 46080, Note_on_c, 0, 55, 80
2, 46199, Note_on_c, 0, 55, 0
2, 46200, Note_on_c, 0, 59, 80
2, 46319, Note_on_c, 0, 59, 0
2, 46320, Note_on_c, 0, 61, 80
2, 46439, Note_on_c, 0, 61, 0
2, 46440, Note_on_c, 0, 63, 80
2, 46559, Note_on_c, 0, 63, 0
2, 46560, Note_on_c, 0, 64, 80
2, 46679, Note_on_c, 0, 64, 0
2, 46680, Note_on_c, 0, 63, 80
2, 46799, Note_on_c, 0, 63, 0
2, 46800, Note_on_c, 0, 64, 80
2, 46919, Note_on_c, 0, 64, 0
2, 46920, Note_on_c, 0, 66, 80
2, 47039, Note_on_c, 0, 66, 0
2, 47040, Note_on_c, 0, 67, 80
2, 47399, Note_on_c, 0, 67, 0
2, 47400, Note_on_c, 0, 55, 80
2, 47519, Note_on_c, 0, 55, 0
2, 47520, Note_on_c, 0, 67, 80
2, 47879, Note_on_c, 0, 67, 0
2, 47880, Note_on_c, 0, 67, 80
2, 47999, Note_on_c, 0, 67, 0
2, 48000, Note_on_c, 0, 67, 80
2, 48479, Note_on_c, 0, 67, 0
2, 48780, Note_on_c, 0, 67, 80
2, 48839, Note_on_c, 0, 67, 0
2, 48840, Note_on_c, 0, 66, 80
2, 48899, Note_on_c, 0, 66, 0
2, 48900, Note_on_c, 0, 64, 80
2, 48959, Note_on_c, 0, 64, 0
2, 48960, Note_on_c, 0, 66, 80
2, 49199, Note_on_c, 0, 66, 0
2, 49260, Note_on_c, 0, 59, 80
2, 49319, Note_on_c, 0, 59, 0
2, 49320, Note_on_c, 0, 61, 80
2, 49379, Note_on_c, 0, 61, 0
2, 49380, Note_on_c, 0, 63, 80
2, 49439, Note_on_c, 0, 63, 0
2, 49440, Note_on_c, 0, 64, 80
2, 49799, Note_on_c, 0, 64, 0
2, 49800, Note_on_c, 0, 64, 80
2, 49919, Note_on_c, 0, 64, 0
2, 49920, Note_on_c, 0, 64, 80
2, 50399, Note_on_c, 0, 64, 0
2, 50700, Note_on_c, 0, 60, 80
2, 50759, Note_on_c, 0, 60, 0
2, 50760, Note_on_c, 0, 59, 80
2, 50819, Note_on_c, 0, 59, 0
2, 50820, Note_on_c, 0, 57, 80
2, 50879, Note_on_c, 0, 57, 0
2, 50880, Note_on_c, 0, 56, 80
2, 51239, Note_on_c, 0, 56, 0
2, 51240, Note_on_c, 0, 59, 80
2, 51359, Note_on_c, 0, 59, 0
2, 51360, Note_on_c, 0, 52, 80
2, 51719, Note_on_c, 0, 52, 0
2, 51720, Note_on_c, 0, 56, 80
2, 51839, Note_on_c, 0, 56, 0
2, 51840, Note_on_c, 0, 57, 80
2, 52319, Note_on_c, 0, 57, 0
2, 52440, Note_on_c, 0, 45, 80
2, 52499, Note_on_c, 0, 45, 0
2, 52500, Note_on_c, 0, 47, 80
2, 52559, Note_on_c, 0, 47, 0
2, 52560, Note_on_c, 0, 49, 80
2, 52619, Note_on_c, 0, 49, 0
2, 52620, Note_on_c, 0, 50, 80
2, 52679, Note_on_c, 0, 50, 0
2, 52680, Note_on_c, 0, 52, 80
2, 52739, Note_on_c, 0, 52, 0
2, 52740, Note_on_c, 0, 54, 80
2, 52799, Note_on_c, 0, 54, 0
2, 52800, Note_on_c, 0, 55, 80
2, 53159, Note_on_c, 0, 55, 0
2, 53160, Note_on_c, 0, 52, 80
2, 53279, Note_on_c, 0, 52, 0
2, 53280, Note_on_c, 0, 49, 80
2, 53639, Note_on_c, 0, 49, 0
2, 53640, Note_on_c, 0, 45, 80
2, 53759, Note_on_c, 0, 45, 0
2, 53760, Note_on_c, 0, 54, 80
2, 54239, Note_on_c, 0, 54, 0
2, 54540, Note_on_c, 0, 55, 80
2, 54599, Note_on_c, 0, 55, 0
2, 54600, Note_on_c, 0, 54, 80
2, 54659, Note_on_c, 0, 54, 0
2, 54660, Note_on_c, 0, 52, 80
2, 54719, Note_on_c, 0, 52, 0
2, 54720, Note_on_c, 0, 50, 80
2, 54959, Note_on_c, 0, 50, 0
2, 55020, Note_on_c, 0, 48, 80
2, 55079, Note_on_c, 0, 48, 0
2, 55080, Note_on_c, 0, 47, 80
2, 55139, Note_on_c, 0, 47, 0
2, 55140, Note_on_c, 0, 45, 80
2, 55199, Note_on_c, 0, 45, 0
2, 55200, Note_on_c, 0, 43, 80
2, 55439, Note_on_c, 0, 43, 0
2, 55500, Note_on_c, 0, 50, 80
2, 55559, Note_on_c, 0, 50, 0
2, 55560, Note_on_c, 0, 52, 80
2, 55619, Note_on_c, 0, 52, 0
2, 55620, Note_on_c, 0, 54, 80
2, 55679, Note_on_c, 0, 54, 0
2, 55680, Note_on_c, 0, 55, 80
2, 55739, Note_on_c, 0, 55, 0
2, 55740, Note_on_c, 0, 54, 80
2, 55799, Note_on_c, 0, 54, 0
2, 55800, Note_on_c, 0, 55, 80
2, 56039, Note_on_c, 0, 55, 0
2, 56040, Note_on_c, 0, 43, 80
2, 56159, Note_on_c, 0, 43, 0
2, 56160, Note_on_c, 0, 55, 80
2, 56519, Note_on_c, 0, 55, 0
2, 56520, Note_on_c, 0, 55, 80
2, 56639, Note_on_c, 0, 55, 0
2, 56640, Note_on_c, 0, 55, 80
2, 57119, Note_on_c, 0, 55, 0
2, 57420, Note_on_c, 0, 55, 80
2, 57479, Note_on_c, 0, 55, 0
2, 57480, Note_on_c, 0, 54, 80
2, 57539, Note_on_c, 0, 54, 0
2, 57540, Note_on_c, 0, 52, 80
2, 57599, Note_on_c, 0, 52, 0
2, 57600, Note_on_c, 0, 54, 80
2, 57719, Note_on_c, 0, 54, 0
2, 57780, Note_on_c, 0, 50, 80
2, 57839, Note_on_c, 0, 50, 0
2, 57840, Note_on_c, 0, 52, 80
2, 57899, Note_on_c, 0, 52, 0
2, 57900, Note_on_c, 0, 54, 80
2, 57959, Note_on_c, 0, 54, 0
2, 57960, Note_on_c, 0, 55, 80
2, 58019, Note_on_c, 0, 55, 0
2, 58020, Note_on_c, 0, 57, 80
2, 58079, Note_on_c, 0, 57, 0
2, 58080, Note_on_c, 0, 59, 80
2, 58439, Note_on_c, 0, 59, 0
2, 58440, Note_on_c, 0, 55, 80
2, 58559, Note_on_c, 0, 55, 0
2, 58560, Note_on_c, 0, 57, 80
2, 59039, Note_on_c, 0, 57, 0
2, 59040, Note_on_c, 0, 45, 80
2, 59519, Note_on_c, 0, 45, 0
2, 59520, Note_on_c, 0, 38, 80
2, 59999, Note_on_c, 0, 38, 0
2, 64800, Note_on_c, 0, 59, 80
2, 64919, Note_on_c, 0, 59, 0
2, 64920, Note_on_c, 0, 57, 80
2, 65039, Note_on_c, 0, 57, 0
2, 65040, Note_on_c, 0, 55, 80
2, 65159, Note_on_c, 0, 55, 0
2, 65160, Note_on_c, 0, 54, 80
2, 65279, Note_on_c, 0, 54, 0
2, 65280, Note_on_c, 0, 55, 80
2, 65519, Note_on_c, 0, 55, 0
2, 65520, Note_on_c, 0, 57, 80
2, 65759, Note_on_c, 0, 57, 0
2, 65760, Note_on_c, 0, 59, 80
2, 65999, Note_on_c, 0, 59, 0
2, 66000, Note_on_c, 0, 52, 80
2, 66119, Note_on_c, 0, 52, 0
2, 66120, Note_on_c, 0, 55, 80
2, 66239, Note_on_c, 0, 55, 0
2, 66240, Note_on_c, 0, 54, 80
2, 66359, Note_on_c, 0, 54, 0
2, 66360, Note_on_c, 0, 57, 80
2, 66479, Note_on_c, 0, 57, 0
2, 66480, Note_on_c, 0, 55, 80
2, 66599, Note_on_c, 0, 55, 0
2, 66600, Note_on_c, 0, 59, 80
2, 66719, Note_on_c, 0, 59, 0
2, 66720, Note_on_c, 0, 57, 80
2, 66959, Note_on_c, 0, 57, 0
2, 66960, Note_on_c, 0, 59, 80
2, 67199, Note_on_c, 0, 59, 0
2, 67200, Note_on_c, 0, 60, 80
2, 67439, Note_on_c, 0, 60, 0
2, 67440, Note_on_c, 0, 54, 80
2, 67559, Note_on_c, 0, 54, 0
2, 67560, Note_on_c, 0, 57, 80
2, 67679, Note_on_c, 0, 57, 0
2, 67680, Note_on_c, 0, 55, 80
2, 67799, Note_on_c, 0, 55, 0
2, 67800, Note_on_c, 0, 59, 80
2, 67919, Note_on_c, 0, 59, 0
2, 67920, Note_on_c, 0, 57, 80
2, 68039, Note_on_c, 0, 57, 0
2, 68040, Note_on_c, 0, 60, 80
2, 68159, Note_on_c, 0, 60, 0
2, 68160, Note_on_c, 0, 59, 80
2, 68399, Note_on_c, 0, 59, 0
2, 68400, Note_on_c, 0, 60, 80
2, 68639, Note_on_c, 0, 60, 0
2, 68640, Note_on_c, 0, 62, 80
2, 68879, Note_on_c, 0, 62, 0
2, 68880, Note_on_c, 0, 55, 80
2, 68999, Note_on_c, 0, 55, 0
2, 69000, Note_on_c, 0, 59, 80
2, 69119, Note_on_c, 0, 59, 0
2, 69120, Note_on_c, 0, 57, 80
2, 69239, Note_on_c, 0, 57, 0
2, 69240, Note_on_c, 0, 60, 80
2, 69359, Note_on_c, 0, 60, 0
2, 69360, Note_on_c, 0, 59, 80
2, 69479, Note_on_c, 0, 59, 0
2, 69480, Note_on_c, 0, 62, 80
2, 69599, Note_on_c, 0, 62, 0
2, 69600, Note_on_c, 0, 60, 80
2, 69839, Note_on_c, 0, 60, 0
2, 69840, Note_on_c, 0, 57, 80
2, 70079, Note_on_c, 0, 57, 0
2, 70080, Note_on_c, 0, 59, 80
2, 70319, Note_on_c, 0, 59, 0
2, 70320, Note_on_c, 0, 52, 80
2, 70559, Note_on_c, 0, 52, 0
2, 70560, Note_on_c, 0, 64, 80
2, 70679, Note_on_c, 0, 64, 0
2, 70680, Note_on_c, 0, 62, 80
2, 70799, Note_on_c, 0, 62, 0
2, 70800, Note_on_c, 0, 60, 80
2, 70919, Note_on_c, 0, 60, 0
2, 70920, Note_on_c, 0, 59, 80
2, 71039, Note_on_c, 0, 59, 0
2, 71040, Note_on_c, 0, 60, 80
2, 71279, Note_on_c, 0, 60, 0
2, 71280, Note_on_c, 0, 62, 80
2, 71519, Note_on_c, 0, 62, 0
2, 71520, Note_on_c, 0, 64, 80
2, 71759, Note_on_c, 0, 64, 0
2, 71760, Note_on_c, 0, 57, 80
2, 71879, Note_on_c, 0, 57, 0
2, 71880, Note_on_c, 0, 60, 80
2, 71999, Note_on_c, 0, 60, 0
2, 72000, Note_on_c, 0, 59, 80
2, 72119, Note_on_c, 0, 59, 0
2, 72120, Note_on_c, 0, 62, 80
2, 72239, Note_on_c, 0, 62, 0
2, 72240, Note_on_c, 0, 61, 80
2, 72359, Note_on_c, 0, 61, 0
2, 72360, Note_on_c, 0, 64, 80
2, 72479, Note_on_c, 0, 64, 0
2, 72480, Note_on_c, 0, 62, 80
2, 73319, Note_on_c, 0, 62, 0
2, 73920, Note_on_c, 0, 47, 80
2, 74159, Note_on_c, 0, 47, 0
2, 74160, Note_on_c, 0, 48, 80
2, 74399, Note_on_c, 0, 48, 0
2, 74400, Note_on_c, 0, 50, 80
2, 74639, Note_on_c, 0, 50, 0
2, 74640, Note_on_c, 0, 43, 80
2, 74759, Note_on_c, 0, 43, 0
2, 74760, Note_on_c, 0, 47, 80
2, 74879, Note_on_c, 0, 47, 0
2, 74880, Note_on_c, 0, 45, 80
2, 74999, Note_on_c, 0, 45, 0
2, 75000, Note_on_c, 0, 48, 80
2, 75119, Note_on_c, 0, 48, 0
2, 75120, Note_on_c, 0, 47, 80
2, 75239, Note_on_c, 0, 47, 0
2, 75240, Note_on_c, 0, 50, 80
2, 75359, Note_on_c, 0, 50, 0
2, 75360, Note_on_c, 0, 48, 80
2, 75479, Note_on_c, 0, 48, 0
2, 75480, Note_on_c, 0, 47, 80
2, 75599, Note_on_c, 0, 47, 0
2, 75600, Note_on_c, 0, 45, 80
2, 75719, Note_on_c, 0, 45, 0
2, 75720, Note_on_c, 0, 43, 80
2, 75839, Note_on_c, 0, 43, 0
2, 75840, Note_on_c, 0, 42, 80
2, 75959, Note_on_c, 0, 42, 0
2, 75960, Note_on_c, 0, 40, 80
2, 76079, Note_on_c, 0, 40, 0
2, 76080, Note_on_c, 0, 42, 80
2, 76319, Note_on_c, 0, 42, 0
2, 76320, Note_on_c, 0, 47, 80
2, 76379, Note_on_c, 0, 47, 0
2, 76380, Note_on_c, 0, 45, 80
2, 76439, Note_on_c, 0, 45, 0
2, 76440, Note_on_c, 0, 43, 80
2, 76499, Note_on_c, 0, 43, 0
2, 76500, Note_on_c, 0, 45, 80
2, 76559, Note_on_c, 0, 45, 0
2, 76560, Note_on_c, 0, 47, 80
2, 76799, Note_on_c, 0, 47, 0
2, 76800, Note_on_c, 0, 38, 80
2, 76919, Note_on_c, 0, 38, 0
2, 76920, Note_on_c, 0, 42, 80
2, 77039, Note_on_c, 0, 42, 0
2, 77040, Note_on_c, 0, 40, 80
2, 77159, Note_on_c, 0, 40, 0
2, 77160, Note_on_c, 0, 43, 80
2, 77279, Note_on_c, 0, 43, 0
2, 77280, Note_on_c, 0, 42, 80
2, 77399, Note_on_c, 0, 42, 0
2, 77400, Note_on_c, 0, 45, 80
2, 77519, Note_on_c, 0, 45, 0
2, 77520, Note_on_c, 0, 43, 80
2, 77759, Note_on_c, 0, 43, 0
2, 77760, Note_on_c, 0, 47, 80
2, 77819, Note_on_c, 0, 47, 0
2, 77820, Note_on_c, 0, 45, 80
2, 77879, Note_on_c, 0, 45, 0
2, 77880, Note_on_c, 0, 43, 80
2, 77939, Note_on_c, 0, 43, 0
2, 77940, Note_on_c, 0, 45, 80
2, 77999, Note_on_c, 0, 45, 0
2, 78000, Note_on_c, 0, 47, 80
2, 78239, Note_on_c, 0, 47, 0
2, 78240, Note_on_c, 0, 40, 80
2, 78359, Note_on_c, 0, 40, 0
2, 78360, Note_on_c, 0, 44, 80
2, 78479, Note_on_c, 0, 44, 0
2, 78480, Note_on_c, 0, 42, 80
2, 78599, Note_on_c, 0, 42, 0
2, 78600, Note_on_c, 0, 45, 80
2, 78719, Note_on_c, 0, 45, 0
2, 78720, Note_on_c, 0, 44, 80
2, 78839, Note_on_c, 0, 44, 0
2, 78840, Note_on_c, 0, 47, 80
2, 78959, Note_on_c, 0, 47, 0
2, 78960, Note_on_c, 0, 45, 80
2, 79079, Note_on_c, 0, 45, 0
2, 79080, Note_on_c, 0, 52, 80
2, 79199, Note_on_c, 0, 52, 0
2, 79200, Note_on_c, 0, 57, 80
2, 79319, Note_on_c, 0, 57, 0
2, 79320, Note_on_c, 0, 55, 80
2, 79439, Note_on_c, 0, 55, 0
2, 79440, Note_on_c, 0, 54, 80
2, 79559, Note_on_c, 0, 54, 0
2, 79560, Note_on_c, 0, 52, 80
2, 79679, Note_on_c, 0, 52, 0
2, 79680, Note_on_c, 0, 54, 80
2, 79799, Note_on_c, 0, 54, 0
2, 79800, Note_on_c, 0, 55, 80
2, 79919, Note_on_c, 0, 55, 0
2, 79920, Note_on_c, 0, 54, 80
2, 80039, Note_on_c, 0, 54, 0
2, 80040, Note_on_c, 0, 52, 80
2, 80159, Note_on_c, 0, 52, 0
2, 80160, Note_on_c, 0, 50, 80
2, 80279, Note_on_c, 0, 50, 0
2, 80280, Note_on_c, 0, 48, 80
2, 80399, Note_on_c, 0, 48, 0
2, 80400, Note_on_c, 0, 47, 80
2, 80519, Note_on_c, 0, 47, 0
2, 80520, Note_on_c, 0, 50, 80
2, 80639, Note_on_c, 0, 50, 0
2, 80640, Note_on_c, 0, 48, 80
2, 80759, Note_on_c, 0, 48, 0
2, 80760, Note_on_c, 0, 52, 80
2, 80879, Note_on_c, 0, 52, 0
2, 80880, Note_on_c, 0, 50, 80
2, 80999, Note_on_c, 0, 50, 0
2, 81000, Note_on_c, 0, 54, 80
2, 81119, Note_on_c, 0, 54, 0
2, 81120, Note_on_c, 0, 52, 80
2, 81359, Note_on_c, 0, 52, 0
2, 81360, Note_on_c, 0, 48, 80
2, 81599, Note_on_c, 0, 48, 0
2, 81600, Note_on_c, 0, 50, 80
2, 81839, Note_on_c, 0, 50, 0
2, 81840, Note_on_c, 0, 43, 80
2, 81959, Note_on_c, 0, 43, 0
2, 81960, Note_on_c, 0, 42, 80
2, 82079, Note_on_c, 0, 42, 0
2, 82080, Note_on_c, 0, 43, 80
2, 82199, Note_on_c, 0, 43, 0
2, 82200, Note_on_c, 0, 45, 80
2, 82319, Note_on_c, 0, 45, 0
2, 82320, Note_on_c, 0, 47, 80
2, 82439, Note_on_c, 0, 47, 0
2, 82440, Note_on_c, 0, 48, 80
2, 82559, Note_on_c, 0, 48, 0
2, 82560, Note_on_c, 0, 50, 80
2, 82799, Note_on_c, 0, 50, 0
2, 82800, Note_on_c, 0, 38, 80
2, 83039, Note_on_c, 0, 38, 0
2, 87840, Note_on_c, 0, 59, 80
2, 87959, Note_on_c, 0, 59, 0
2, 87960, Note_on_c, 0, 57, 80
2, 88079, Note_on_c, 0, 57, 0
2, 88080, Note_on_c, 0, 55, 80
2, 88199, Note_on_c, 0, 55, 0
2, 88200, Note_on_c, 0, 54, 80
2, 88319, Note_on_c, 0, 54, 0
2, 88320, Note_on_c, 0, 55, 80
2, 88559, Note_on_c, 0, 55, 0
2, 88560, Note_on_c, 0, 57, 80
2, 88799, Note_on_c, 0, 57, 0
2, 88800, Note_on_c, 0, 59, 80
2, 89039, Note_on_c, 0, 59, 0
2, 89040, Note_on_c, 0, 52, 80
2, 89159, Note_on_c, 0, 52, 0
2, 89160, Note_on_c, 0, 55, 80
2, 89279, Note_on_c, 0, 55, 0
2, 89280, Note_on_c, 0, 54, 80
2, 89399, Note_on_c, 0, 54, 0
2, 89400, Note_on_c, 0, 57, 80
2, 89519, Note_on_c, 0, 57, 0
2, 89520, Note_on_c, 0, 55, 80
2, 89639, Note_on_c, 0, 55, 0
2, 89640, Note_on_c, 0, 59, 80
2, 89759, Note_on_c, 0, 59, 0
2, 89760, Note_on_c, 0, 57, 80
2, 89999, Note_on_c, 0, 57, 0
2, 90000, Note_on_c, 0, 59, 80
2, 90239, Note_on_c, 0, 59, 0
2, 90240, Note_on_c, 0, 60, 80
2, 90479, Note_on_c, 0, 60, 0
2, 90480, Note_on_c, 0, 54, 80
2, 90599, Note_on_c, 0, 54, 0
2, 90600, Note_on_c, 0, 57, 80
2, 90719, Note_on_c, 0, 57, 0
2, 90720, Note_on_c, 0, 55, 80
2, 90839, Note_on_c, 0, 55, 0
2, 90840, Note_on_c, 0, 59, 80
2, 90959, Note_on_c, 0, 59, 0
2, 90960, Note_on_c, 0, 57, 80
2, 91079, Note_on_c, 0, 57, 0
2, 91080, Note_on_c, 0, 60, 80
2, 91199, Note_on_c, 0, 60, 0
2, 91200, Note_on_c, 0, 59, 80
2, 91439, Note_on_c, 0, 59, 0
2, 91440, Note_on_c, 0, 60, 80
2, 91679, Note_on_c, 0, 60, 0
2, 91680, Note_on_c, 0, 62, 80
2, 91919, Note_on_c, 0, 62, 0
2, 91920, Note_on_c, 0, 55, 80
2, 92039, Note_on_c, 0, 55, 0
2, 92040, Note_on_c, 0, 59, 80
2, 92159, Note_on_c, 0, 59, 0
2, 92160, Note_on_c, 0, 57, 80
2, 92279, Note_on_c, 0, 57, 0
2, 92280, Note_on_c, 0, 60, 80
2, 92399, Note_on_c, 0, 60, 0
2, 92400, Note_on_c, 0, 59, 80
2, 92519, Note_on_c, 0, 59, 0
2, 92520, Note_on_c, 0, 62, 80
2, 92639, Note_on_c, 0, 62, 0
2, 92640, Note_on_c, 0, 60, 80
2, 92879, Note_on_c, 0, 60, 0
2, 92880, Note_on_c, 0, 57, 80
2, 93119, Note_on_c, 0, 57, 0
2, 93120, Note_on_c, 0, 59, 80
2, 93359, Note_on_c, 0, 59, 0
2, 93360, Note_on_c, 0, 52, 80
2, 93599, Note_on_c, 0, 52, 0
2, 93600, Note_on_c, 0, 64, 80
2, 93719, Note_on_c, 0, 64, 0
2, 93720, Note_on_c, 0, 62, 80
2, 93839, Note_on_c, 0, 62, 0
2, 93840, Note_on_c, 0, 60, 80
2, 93959, Note_on_c, 0, 60, 0
2, 93960, Note_on_c, 0, 59, 80
2, 94079, Note_on_c, 0, 59, 0
2, 94080, Note_on_c, 0, 60, 80
2, 94319, Note_on_c, 0, 60, 0
2, 94320, Note_on_c, 0, 62, 80
2, 94559, Note_on_c, 0, 62, 0
2, 94560, Note_on_c, 0, 64, 80
2, 94799, Note_on_c, 0, 64, 0
2, 94800, Note_on_c, 0, 57, 80
2, 94919, Note_on_c, 0, 57, 0
2, 94920, Note_on_c, 0, 60, 80
2, 95039, Note_on_c, 0, 60, 0
2, 95040, Note_on_c, 0, 59, 80
2, 95159, Note_on_c, 0, 59, 0
2, 95160, Note_on_c, 0, 62, 80
2, 95279, Note_on_c, 0, 62, 0
2, 95280, Note_on_c, 0, 61, 80
2, 95399, Note_on_c, 0, 61, 0
2, 95400, Note_on_c, 0, 64, 80
2, 95519, Note_on_c, 0, 64, 0
2, 95520, Note_on_c, 0, 62, 80
2, 96359, Note_on_c, 0, 62, 0
2, 96960, Note_on_c, 0, 47, 80
2, 97199, Note_on_c, 0, 47, 0
2, 97200, Note_on_c, 0, 48, 80
2, 97439, Note_on_c, 0, 48, 0
2, 97440, Note_on_c, 0, 50, 80
2, 97679, Note_on_c, 0, 50, 0
2, 97680, Note_on_c, 0, 43, 80
2, 97799, Note_on_c, 0, 43, 0
2, 97800, Note_on_c, 0, 47, 80
2, 97919, Note_on_c, 0, 47, 0
2, 97920, Note_on_c, 0, 45, 80
2, 98039, Note_on_c, 0, 45, 0
2, 98040, Note_on_c, 0, 48, 80
2, 98159, Note_on_c, 0, 48, 0
2, 98160, Note_on_c, 0, 47, 80
2, 98279, Note_on_c, 0, 47, 0
2, 98280, Note_on_c, 0, 50, 80
2, 98399, Note_on_c, 0, 50, 0
2, 98400, Note_on_c, 0, 48, 80
2, 98519, Note_on_c, 0, 48, 0
2, 98520, Note_on_c, 0, 47, 80
2, 98639, Note_on_c, 0, 47, 0
2, 98640, Note_on_c, 0, 45, 80
2, 98759, Note_on_c, 0, 45, 0
2, 98760, Note_on_c, 0, 43, 80
2, 98879, Note_on_c, 0, 43, 0
2, 98880, Note_on_c, 0, 42, 80
2, 98999, Note_on_c, 0, 42, 0
2, 99000, Note_on_c, 0, 40, 80
2, 99119, Note_on_c, 0, 40, 0
2, 99120, Note_on_c, 0, 42, 80
2, 99359, Note_on_c, 0, 42, 0
2, 99360, Note_on_c, 0, 47, 80
2, 99419, Note_on_c, 0, 47, 0
2, 99420, Note_on_c, 0, 45, 80
2, 99479, Note_on_c, 0, 45, 0
2, 99480, Note_on_c, 0, 43, 80
2, 99539, Note_on_c, 0, 43, 0
2, 99540, Note_on_c, 0, 45, 80
2, 99599, Note_on_c, 0, 45, 0
2, 99600, Note_on_c, 0, 47, 80
2, 99839, Note_on_c, 0, 47, 0
2, 99840, Note_on_c, 0, 38, 80
2, 99959, Note_on_c, 0, 38, 0
2, 99960, Note_on_c, 0, 42, 80
2, 100079, Note_on_c, 0, 42, 0
2, 100080, Note_on_c, 0, 40, 80
2, 100199, Note_on_c, 0, 40, 0
2, 100200, Note_on_c, 0, 43, 80
2, 100319, Note_on_c, 0, 43, 0
2, 100320, Note_on_c, 0, 42, 80
2, 100439, Note_on_c, 0, 42, 0
2, 100440, Note_on_c, 0, 45, 80
2, 100559, Note_on_c, 0, 45, 0
2, 100560, Note_on_c, 0, 43, 80
2, 100799, Note_on_c, 0, 43, 0
2, 100800, Note_on_c, 0, 47, 80
2, 100859, Note_on_c, 0, 47, 0
2, 100860, Note_on_c, 0, 45, 80
2, 100919, Note_on_c, 0, 45, 0
2, 100920, Note_on_c, 0, 43, 80
2, 100979, Note_on_c, 0, 43, 0
2, 100980, Note_on_c, 0, 45, 80
2, 101039, Note_on_c, 0, 45, 0
2, 101040, Note_on_c, 0, 47, 80
2, 101279, Note_on_c, 0, 47, 0
2, 101280, Note_on_c, 0, 40, 80
2, 101399, Note_on_c, 0, 40, 0
2, 101400, Note_on_c, 0, 44, 80
2, 101519, Note_on_c, 0, 44, 0
2, 101520, Note_on_c, 0, 42, 80
2, 101639, Note_on_c, 0, 42, 0
2, 101640, Note_on_c, 0, 45, 80
2, 101759, Note_on_c, 0, 45, 0
2, 101760, Note_on_c, 0, 44, 80
2, 101879, Note_on_c, 0, 44, 0
2, 101880, Note_on_c, 0, 47, 80
2, 101999, Note_on_c, 0, 47, 0
2, 102000, Note_on_c, 0, 45, 80
2, 102119, Note_on_c, 0, 45, 0
2, 102120, Note_on_c, 0, 52, 80
2, 102239, Note_on_c, 0, 52, 0
2, 102240, Note_on_c, 0, 57, 80
2, 102359, Note_on_c, 0, 57, 0
2, 102360, Note_on_c, 0, 55, 80
2, 102479, Note_on_c, 0, 55, 0
2, 102480, Note_on_c, 0, 54, 80
2, 102599, Note_on_c, 0, 54, 0
2, 102600, Note_on_c, 0, 52, 80
2, 102719, Note_on_c, 0, 52, 0
2, 102720, Note_on_c, 0, 54, 80
2, 102839, Note_on_c, 0, 54, 0
2, 102840, Note_on_c, 0, 55, 80
2, 102959, Note_on_c, 0, 55, 0
2, 102960, Note_on_c, 0, 54, 80
2, 103079, Note_on_c, 0, 54, 0
2, 103080, Note_on_c, 0, 52, 80
2, 103199, Note_on_c, 0, 52, 0
2, 103200, Note_on_c, 0, 50, 80
2, 103319, Note_on_c, 0, 50, 0
2, 103320, Note_on_c, 0, 48, 80
2, 103439, Note_on_c, 0, 48, 0
2, 103440, Note_on_c, 0, 47, 80
2, 103559, Note_on_c, 0, 47, 0
2, 103560, Note_on_c, 0, 50, 80
2, 103679, Note_on_c, 0, 50, 0
2, 103680, Note_on_c, 0, 48, 80
2, 103799, Note_on_c, 0, 48, 0
2, 103800, Note_on_c, 0, 52, 80
2, 103919, Note_on_c, 0, 52, 0
2, 103920, Note_on_c, 0, 50, 80
2, 104039, Note_on_c, 0, 50, 0
2, 104040, Note_on_c, 0, 54, 80
2, 104159, Note_on_c, 0, 54, 0
2, 104160, Note_on_c, 0, 52, 80
2, 104399, Note_on_c, 0, 52, 0
2, 104400, Note_on_c, 0, 48, 80
2, 104639, Note_on_c, 0, 48, 0
2, 104640, Note_on_c, 0, 50, 80
2, 104879, Note_on_c, 0, 50, 0
2, 104880, Note_on_c, 0, 43, 80
2, 106799, Note_on_c, 0, 43, 0
2, 106800, End_track
0, 0, End_of_file
