0, 0, Header, 1, 4, 480
1, 0, Start_track
1, 0, Unknown_meta_event, 8, 59, 67, 111, 110, 116, 114, 97, 112, 117, 110, 99, 116, 117, 115, 32, 86, 73, 73, 32, 97, 32, 52, 32, 112, 101, 114, 32, 65, 117, 103, 109, 101, 110, 116, 32, 101, 116, 32, 68, 105, 109, 105, 110, 117, 105, 116, 32, 40, 65, 32, 61, 32, 52, 49, 53, 32, 72, 122, 41, 0
1, 0, Unknown_meta_event, 9, 26, 66, 87, 86, 32, 49, 48, 56, 48, 32, 84, 104, 101, 32, 65, 114, 116, 32, 111, 102, 32, 70, 117, 103, 117, 101, 0
1, 0, Unknown_meta_event, 10, 11, 74, 46, 32, 83, 46, 32, 66, 97, 99, 104, 0
1, 0, Time_signature, 2, 1, 24, 8
1, 0, Key_signature, 4, "major"
1, 0, Program_c, 0, 46
1, 2, Control_c, 0, 7, 100
1, 4, Control_c, 0, 10, 64
1, 6, Control_c, 0, 91, 30
1, 8, Control_c, 0, 93, 30
1, 1920, Note_on_c, 0, 80, 80
1, 2879, Note_on_c, 0, 80, 0
1, 2880, Note_on_c, 0, 73, 80
1, 3599, Note_on_c, 0, 73, 0
1, 3600, Note_on_c, 0, 75, 80
1, 3839, Note_on_c, 0, 75, 0
1, 3840, Note_on_c, 0, 76, 80
1, 4559, Note_on_c, 0, 76, 0
1, 4560, Note_on_c, 0, 78, 80
1, 4799, Note_on_c, 0, 78, 0
1, 4800, Note_on_c, 0, 80, 80
1, 5759, Note_on_c, 0, 80, 0
1, 5760, Note_on_c, 0, 81, 80
1, 6719, Note_on_c, 0, 81, 0
1, 6720, Note_on_c, 0, 80, 80
1, 7439, Note_on_c, 0, 80, 0
1, 7440, Note_on_c, 0, 78, 80
1, 7679, Note_on_c, 0, 78, 0
1, 7680, Note_on_c, 0, 76, 80
1, 8879, Note_on_c, 0, 76, 0
1, 8880, Note_on_c, 0, 75, 80
1, 9119, Note_on_c, 0, 75, 0
1, 9120, Note_on_c, 0, 76, 80
1, 9359, Note_on_c, 0, 76, 0
1, 9360, Note_on_c, 0, 78, 80
1, 9599, Note_on_c, 0, 78, 0
1, 9600, Note_on_c, 0, 80, 80
1, 10199, Note_on_c, 0, 80, 0
1, 10200, Note_on_c, 0, 78, 80
1, 10319, Note_on_c, 0, 78, 0
1, 10320, Note_on_c, 0, 76, 80
1, 10439, Note_on_c, 0, 76, 0
1, 10440, Note_on_c, 0, 75, 80
1, 10559, Note_on_c, 0, 75, 0
1, 10560, Note_on_c, 0, 73, 80
1, 11159, Note_on_c, 0, 73, 0
1, 11160, Note_on_c, 0, 73, 80
1, 11279, Note_on_c, 0, 73, 0
1, 11280, Note_on_c, 0, 75, 80
1, 11399, Note_on_c, 0, 75, 0
1, 11400, Note_on_c, 0, 76, 80
1, 11519, Note_on_c, 0, 76, 0
1, 11520, Note_on_c, 0, 75, 80
1, 11639, Note_on_c, 0, 75, 0
1, 11640, Note_on_c, 0, 73, 80
1, 11759, Note_on_c, 0, 73, 0
1, 11760, Note_on_c, 0, 71, 80
1, 11879, Note_on_c, 0, 71, 0
1, 11880, Note_on_c, 0, 70, 80
1, 11999, Note_on_c, 0, 70, 0
1, 12000, Note_on_c, 0, 68, 80
1, 12239, Note_on_c, 0, 68, 0
1, 12600, Note_on_c, 0, 75, 80
1, 12719, Note_on_c, 0, 75, 0
1, 12720, Note_on_c, 0, 80, 80
1, 12839, Note_on_c, 0, 80, 0
1, 12840, Note_on_c, 0, 78, 80
1, 12959, Note_on_c, 0, 78, 0
1, 12960, Note_on_c, 0, 76, 80
1, 13079, Note_on_c, 0, 76, 0
1, 13080, Note_on_c, 0, 75, 80
1, 13199, Note_on_c, 0, 75, 0
1, 13200, Note_on_c, 0, 73, 80
1, 13319, Note_on_c, 0, 73, 0
1, 13320, Note_on_c, 0, 71, 80
1, 13439, Note_on_c, 0, 71, 0
1, 13440, Note_on_c, 0, 70, 80
1, 13919, Note_on_c, 0, 70, 0
1, 14520, Note_on_c, 0, 73, 80
1, 14639, Note_on_c, 0, 73, 0
1, 14640, Note_on_c, 0, 75, 80
1, 14759, Note_on_c, 0, 75, 0
1, 14760, Note_on_c, 0, 76, 80
1, 14879, Note_on_c, 0, 76, 0
1, 14880, Note_on_c, 0, 78, 80
1, 15479, Note_on_c, 0, 78, 0
1, 15480, Note_on_c, 0, 78, 80
1, 15599, Note_on_c, 0, 78, 0
1, 15600, Note_on_c, 0, 76, 80
1, 15719, Note_on_c, 0, 76, 0
1, 15720, Note_on_c, 0, 75, 80
1, 15839, Note_on_c, 0, 75, 0
1, 15840, Note_on_c, 0, 76, 80
1, 16439, Note_on_c, 0, 76, 0
1, 16440, Note_on_c, 0, 78, 80
1, 16559, Note_on_c, 0, 78, 0
1, 16560, Note_on_c, 0, 76, 80
1, 16679, Note_on_c, 0, 76, 0
1, 16680, Note_on_c, 0, 75, 80
1, 16799, Note_on_c, 0, 75, 0
1, 16800, Note_on_c, 0, 73, 80
1, 17399, Note_on_c, 0, 73, 0
1, 17400, Note_on_c, 0, 76, 80
1, 17519, Note_on_c, 0, 76, 0
1, 17520, Note_on_c, 0, 75, 80
1, 17639, Note_on_c, 0, 75, 0
1, 17640, Note_on_c, 0, 73, 80
1, 17759, Note_on_c, 0, 73, 0
1, 17760, Note_on_c, 0, 72, 80
1, 18359, Note_on_c, 0, 72, 0
1, 18360, Note_on_c, 0, 72, 80
1, 18479, Note_on_c, 0, 72, 0
1, 18480, Note_on_c, 0, 73, 80
1, 18599, Note_on_c, 0, 73, 0
1, 18600, Note_on_c, 0, 75, 80
1, 18719, Note_on_c, 0, 75, 0
1, 18720, Note_on_c, 0, 76, 80
1, 19319, Note_on_c, 0, 76, 0
1, 19320, Note_on_c, 0, 75, 80
1, 19439, Note_on_c, 0, 75, 0
1, 19440, Note_on_c, 0, 76, 80
1, 19559, Note_on_c, 0, 76, 0
1, 19560, Note_on_c, 0, 78, 80
1, 19679, Note_on_c, 0, 78, 0
1, 19680, Note_on_c, 0, 80, 80
1, 20159, Note_on_c, 0, 80, 0
1, 20160, Note_on_c, 0, 78, 80
1, 20759, Note_on_c, 0, 78, 0
1, 20760, Note_on_c, 0, 81, 80
1, 20879, Note_on_c, 0, 81, 0
1, 20880, Note_on_c, 0, 80, 80
1, 20999, Note_on_c, 0, 80, 0
1, 21000, Note_on_c, 0, 78, 80
1, 21119, Note_on_c, 0, 78, 0
1, 21120, Note_on_c, 0, 77, 80
1, 21719, Note_on_c, 0, 77, 0
1, 21720, Note_on_c, 0, 77, 80
1, 21839, Note_on_c, 0, 77, 0
1, 21840, Note_on_c, 0, 78, 80
1, 21959, Note_on_c, 0, 78, 0
1, 21960, Note_on_c, 0, 80, 80
1, 22079, Note_on_c, 0, 80, 0
1, 22080, Note_on_c, 0, 73, 80
1, 22559, Note_on_c, 0, 73, 0
1, 22560, Note_on_c, 0, 74, 80
1, 23039, Note_on_c, 0, 74, 0
1, 23040, Note_on_c, 0, 73, 80
1, 23519, Note_on_c, 0, 73, 0
1, 24000, Note_on_c, 0, 68, 80
1, 24479, Note_on_c, 0, 68, 0
1, 24480, Note_on_c, 0, 73, 80
1, 24839, Note_on_c, 0, 73, 0
1, 24840, Note_on_c, 0, 71, 80
1, 24959, Note_on_c, 0, 71, 0
1, 24960, Note_on_c, 0, 69, 80
1, 25319, Note_on_c, 0, 69, 0
1, 25320, Note_on_c, 0, 68, 80
1, 25439, Note_on_c, 0, 68, 0
1, 25440, Note_on_c, 0, 66, 80
1, 25919, Note_on_c, 0, 66, 0
1, 25920, Note_on_c, 0, 65, 80
1, 26399, Note_on_c, 0, 65, 0
1, 26400, Note_on_c, 0, 66, 80
1, 26759, Note_on_c, 0, 66, 0
1, 26760, Note_on_c, 0, 68, 80
1, 26879, Note_on_c, 0, 68, 0
1, 26880, Note_on_c, 0, 69, 80
1, 27479, Note_on_c, 0, 69, 0
1, 27480, Note_on_c, 0, 71, 80
1, 27599, Note_on_c, 0, 71, 0
1, 27600, Note_on_c, 0, 69, 80
1, 27719, Note_on_c, 0, 69, 0
1, 27720, Note_on_c, 0, 68, 80
1, 27839, Note_on_c, 0, 68, 0
1, 27840, Note_on_c, 0, 66, 80
1, 28439, Note_on_c, 0, 66, 0
1, 28440, Note_on_c, 0, 67, 80
1, 28559, Note_on_c, 0, 67, 0
1, 28560, Note_on_c, 0, 66, 80
1, 28679, Note_on_c, 0, 66, 0
1, 28680, Note_on_c, 0, 64, 80
1, 28799, Note_on_c, 0, 64, 0
1, 28800, Note_on_c, 0, 62, 80
1, 28919, Note_on_c, 0, 62, 0
1, 28920, Note_on_c, 0, 66, 80
1, 29039, Note_on_c, 0, 66, 0
1, 29040, Note_on_c, 0, 68, 80
1, 29159, Note_on_c, 0, 68, 0
1, 29160, Note_on_c, 0, 69, 80
1, 29279, Note_on_c, 0, 69, 0
1, 29280, Note_on_c, 0, 71, 80
1, 29879, Note_on_c, 0, 71, 0
1, 29880, Note_on_c, 0, 71, 80
1, 29999, Note_on_c, 0, 71, 0
1, 30000, Note_on_c, 0, 69, 80
1, 30119, Note_on_c, 0, 69, 0
1, 30120, Note_on_c, 0, 68, 80
1, 30239, Note_on_c, 0, 68, 0
1, 30240, Note_on_c, 0, 69, 80
1, 30359, Note_on_c, 0, 69, 0
1, 30360, Note_on_c, 0, 71, 80
1, 30479, Note_on_c, 0, 71, 0
1, 30480, Note_on_c, 0, 73, 80
1, 30599, Note_on_c, 0, 73, 0
1, 30600, Note_on_c, 0, 74, 80
1, 30719, Note_on_c, 0, 74, 0
1, 30720, Note_on_c, 0, 76, 80
1, 30839, Note_on_c, 0, 76, 0
1, 30840, Note_on_c, 0, 74, 80
1, 30959, Note_on_c, 0, 74, 0
1, 30960, Note_on_c, 0, 73, 80
1, 31079, Note_on_c, 0, 73, 0
1, 31080, Note_on_c, 0, 71, 80
1, 31199, Note_on_c, 0, 71, 0
1, 31200, Note_on_c, 0, 69, 80
1, 31799, Note_on_c, 0, 69, 0
1, 31800, Note_on_c, 0, 68, 80
1, 31919, Note_on_c, 0, 68, 0
1, 31920, Note_on_c, 0, 66, 80
1, 32039, Note_on_c, 0, 66, 0
1, 32040, Note_on_c, 0, 64, 80
1, 32159, Note_on_c, 0, 64, 0
1, 32160, Note_on_c, 0, 63, 80
1, 32279, Note_on_c, 0, 63, 0
1, 32280, Note_on_c, 0, 66, 80
1, 32399, Note_on_c, 0, 66, 0
1, 32400, Note_on_c, 0, 64, 80
1, 32519, Note_on_c, 0, 64, 0
1, 32520, Note_on_c, 0, 63, 80
1, 32639, Note_on_c, 0, 63, 0
1, 32640, Note_on_c, 0, 64, 80
1, 33359, Note_on_c, 0, 64, 0
1, 33360, Note_on_c, 0, 69, 80
1, 33719, Note_on_c, 0, 69, 0
1, 33720, Note_on_c, 0, 69, 80
1, 33839, Note_on_c, 0, 69, 0
1, 33840, Note_on_c, 0, 68, 80
1, 33959, Note_on_c, 0, 68, 0
1, 33960, Note_on_c, 0, 66, 80
1, 34079, Note_on_c, 0, 66, 0
1, 34080, Note_on_c, 0, 68, 80
1, 34319, Note_on_c, 0, 68, 0
1, 34320, Note_on_c, 0, 70, 80
1, 34439, Note_on_c, 0, 70, 0
1, 34440, Note_on_c, 0, 71, 80
1, 34559, Note_on_c, 0, 71, 0
1, 34560, Note_on_c, 0, 73, 80
1, 34679, Note_on_c, 0, 73, 0
1, 34680, Note_on_c, 0, 70, 80
1, 34799, Note_on_c, 0, 70, 0
1, 34800, Note_on_c, 0, 71, 80
1, 34919, Note_on_c, 0, 71, 0
1, 34920, Note_on_c, 0, 73, 80
1, 35039, Note_on_c, 0, 73, 0
1, 35040, Note_on_c, 0, 66, 80
1, 35279, Note_on_c, 0, 66, 0
1, 35280, Note_on_c, 0, 74, 80
1, 35519, Note_on_c, 0, 74, 0
1, 35520, Note_on_c, 0, 73, 80
1, 36239, Note_on_c, 0, 73, 0
1, 36240, Note_on_c, 0, 75, 80
1, 36479, Note_on_c, 0, 75, 0
1, 36480, Note_on_c, 0, 76, 80
1, 37799, Note_on_c, 0, 76, 0
1, 37800, Note_on_c, 0, 74, 80
1, 37919, Note_on_c, 0, 74, 0
1, 37920, Note_on_c, 0, 73, 80
1, 38519, Note_on_c, 0, 73, 0
1, 38520, Note_on_c, 0, 68, 80
1, 38639, Note_on_c, 0, 68, 0
1, 38640, Note_on_c, 0, 73, 80
1, 38999, Note_on_c, 0, 73, 0
1, 39000, Note_on_c, 0, 71, 80
1, 39119, Note_on_c, 0, 71, 0
1, 39120, Note_on_c, 0, 73, 80
1, 39239, Note_on_c, 0, 73, 0
1, 39240, Note_on_c, 0, 74, 80
1, 39359, Note_on_c, 0, 74, 0
1, 39360, Note_on_c, 0, 76, 80
1, 39959, Note_on_c, 0, 76, 0
1, 39960, Note_on_c, 0, 78, 80
1, 40079, Note_on_c, 0, 78, 0
1, 40080, Note_on_c, 0, 76, 80
1, 40199, Note_on_c, 0, 76, 0
1, 40200, Note_on_c, 0, 74, 80
1, 40319, Note_on_c, 0, 74, 0
1, 40320, Note_on_c, 0, 73, 80
1, 40919, Note_on_c, 0, 73, 0
1, 40920, Note_on_c, 0, 73, 80
1, 41039, Note_on_c, 0, 73, 0
1, 41040, Note_on_c, 0, 71, 80
1, 41159, Note_on_c, 0, 71, 0
1, 41160, Note_on_c, 0, 69, 80
1, 41279, Note_on_c, 0, 69, 0
1, 41280, Note_on_c, 0, 68, 80
1, 41399, Note_on_c, 0, 68, 0
1, 41400, Note_on_c, 0, 74, 80
1, 41519, Note_on_c, 0, 74, 0
1, 41520, Note_on_c, 0, 73, 80
1, 41759, Note_on_c, 0, 73, 0
1, 41760, Note_on_c, 0, 71, 80
1, 42359, Note_on_c, 0, 71, 0
1, 42360, Note_on_c, 0, 69, 80
1, 42479, Note_on_c, 0, 69, 0
1, 42480, Note_on_c, 0, 68, 80
1, 42599, Note_on_c, 0, 68, 0
1, 42600, Note_on_c, 0, 66, 80
1, 42719, Note_on_c, 0, 66, 0
1, 42720, Note_on_c, 0, 68, 80
1, 42839, Note_on_c, 0, 68, 0
1, 42840, Note_on_c, 0, 66, 80
1, 42959, Note_on_c, 0, 66, 0
1, 42960, Note_on_c, 0, 64, 80
1, 43199, Note_on_c, 0, 64, 0
1, 43200, Note_on_c, 0, 71, 80
1, 43799, Note_on_c, 0, 71, 0
1, 43800, Note_on_c, 0, 70, 80
1, 43919, Note_on_c, 0, 70, 0
1, 43920, Note_on_c, 0, 71, 80
1, 44039, Note_on_c, 0, 71, 0
1, 44040, Note_on_c, 0, 73, 80
1, 44159, Note_on_c, 0, 73, 0
1, 44160, Note_on_c, 0, 66, 80
1, 44639, Note_on_c, 0, 66, 0
1, 45120, Note_on_c, 0, 71, 80
1, 45599, Note_on_c, 0, 71, 0
1, 45600, Note_on_c, 0, 64, 80
1, 45959, Note_on_c, 0, 64, 0
1, 45960, Note_on_c, 0, 66, 80
1, 46079, Note_on_c, 0, 66, 0
1, 46080, Note_on_c, 0, 68, 80
1, 46439, Note_on_c, 0, 68, 0
1, 46440, Note_on_c, 0, 69, 80
1, 46559, Note_on_c, 0, 69, 0
1, 46560, Note_on_c, 0, 71, 80
1, 47039, Note_on_c, 0, 71, 0
1, 47040, Note_on_c, 0, 73, 80
1, 47519, Note_on_c, 0, 73, 0
1, 47520, Note_on_c, 0, 71, 80
1, 47879, Note_on_c, 0, 71, 0
1, 47880, Note_on_c, 0, 69, 80
1, 47999, Note_on_c, 0, 69, 0
1, 48000, Note_on_c, 0, 68, 80
1, 48599, Note_on_c, 0, 68, 0
1, 48600, Note_on_c, 0, 66, 80
1, 48719, Note_on_c, 0, 66, 0
1, 48720, Note_on_c, 0, 68, 80
1, 48839, Note_on_c, 0, 68, 0
1, 48840, Note_on_c, 0, 69, 80
1, 48959, Note_on_c, 0, 69, 0
1, 48960, Note_on_c, 0, 71, 80
1, 49559, Note_on_c, 0, 71, 0
1, 49560, Note_on_c, 0, 73, 80
1, 49679, Note_on_c, 0, 73, 0
1, 49680, Note_on_c, 0, 71, 80
1, 49799, Note_on_c, 0, 71, 0
1, 49800, Note_on_c, 0, 70, 80
1, 49919, Note_on_c, 0, 70, 0
1, 49920, Note_on_c, 0, 71, 80
1, 50039, Note_on_c, 0, 71, 0
1, 50040, Note_on_c, 0, 73, 80
1, 50159, Note_on_c, 0, 73, 0
1, 50160, Note_on_c, 0, 75, 80
1, 50279, Note_on_c, 0, 75, 0
1, 50280, Note_on_c, 0, 76, 80
1, 50399, Note_on_c, 0, 76, 0
1, 50400, Note_on_c, 0, 78, 80
1, 50999, Note_on_c, 0, 78, 0
1, 51000, Note_on_c, 0, 76, 80
1, 51119, Note_on_c, 0, 76, 0
1, 51120, Note_on_c, 0, 75, 80
1, 51239, Note_on_c, 0, 75, 0
1, 51240, Note_on_c, 0, 73, 80
1, 51359, Note_on_c, 0, 73, 0
1, 51360, Note_on_c, 0, 72, 80
1, 51839, Note_on_c, 0, 72, 0
1, 51840, Note_on_c, 0, 73, 80
1, 52319, Note_on_c, 0, 73, 0
1, 52440, Note_on_c, 0, 68, 80
1, 52559, Note_on_c, 0, 68, 0
1, 52560, Note_on_c, 0, 70, 80
1, 52679, Note_on_c, 0, 70, 0
1, 52680, Note_on_c, 0, 72, 80
1, 52799, Note_on_c, 0, 72, 0
1, 52800, Note_on_c, 0, 73, 80
1, 52919, Note_on_c, 0, 73, 0
1, 52920, Note_on_c, 0, 75, 80
1, 53039, Note_on_c, 0, 75, 0
1, 53040, Note_on_c, 0, 76, 80
1, 53519, Note_on_c, 0, 76, 0
1, 53520, Note_on_c, 0, 75, 80
1, 53879, Note_on_c, 0, 75, 0
1, 53880, Note_on_c, 0, 75, 80
1, 53999, Note_on_c, 0, 75, 0
1, 54000, Note_on_c, 0, 80, 80
1, 54119, Note_on_c, 0, 80, 0
1, 54120, Note_on_c, 0, 78, 80
1, 54239, Note_on_c, 0, 78, 0
1, 54240, Note_on_c, 0, 76, 80
1, 54359, Note_on_c, 0, 76, 0
1, 54360, Note_on_c, 0, 75, 80
1, 54479, Note_on_c, 0, 75, 0
1, 54480, Note_on_c, 0, 73, 80
1, 54599, Note_on_c, 0, 73, 0
1, 54600, Note_on_c, 0, 72, 80
1, 54719, Note_on_c, 0, 72, 0
1, 54720, Note_on_c, 0, 73, 80
1, 54839, Note_on_c, 0, 73, 0
1, 54840, Note_on_c, 0, 69, 80
1, 54959, Note_on_c, 0, 69, 0
1, 54960, Note_on_c, 0, 68, 80
1, 55079, Note_on_c, 0, 68, 0
1, 55080, Note_on_c, 0, 66, 80
1, 55199, Note_on_c, 0, 66, 0
1, 55200, Note_on_c, 0, 64, 80
1, 55319, Note_on_c, 0, 64, 0
1, 55320, Note_on_c, 0, 63, 80
1, 55439, Note_on_c, 0, 63, 0
1, 55440, Note_on_c, 0, 61, 80
1, 55559, Note_on_c, 0, 61, 0
1, 55560, Note_on_c, 0, 60, 80
1, 55679, Note_on_c, 0, 60, 0
1, 55680, Note_on_c, 0, 61, 80
1, 55799, Note_on_c, 0, 61, 0
1, 55800, Note_on_c, 0, 68, 80
1, 55919, Note_on_c, 0, 68, 0
1, 55920, Note_on_c, 0, 73, 80
1, 56279, Note_on_c, 0, 73, 0
1, 56280, Note_on_c, 0, 76, 80
1, 56399, Note_on_c, 0, 76, 0
1, 56400, Note_on_c, 0, 75, 80
1, 56519, Note_on_c, 0, 75, 0
1, 56520, Note_on_c, 0, 73, 80
1, 56639, Note_on_c, 0, 73, 0
1, 56640, Note_on_c, 0, 75, 80
1, 56759, Note_on_c, 0, 75, 0
1, 56760, Note_on_c, 0, 80, 80
1, 56999, Note_on_c, 0, 80, 0
1, 57000, Note_on_c, 0, 68, 80
1, 57119, Note_on_c, 0, 68, 0
1, 57120, Note_on_c, 0, 69, 80
1, 57239, Note_on_c, 0, 69, 0
1, 57240, Note_on_c, 0, 73, 80
1, 57359, Note_on_c, 0, 73, 0
1, 57360, Note_on_c, 0, 78, 80
1, 57479, Note_on_c, 0, 78, 0
1, 57480, Note_on_c, 0, 66, 80
1, 57599, Note_on_c, 0, 66, 0
1, 57600, Note_on_c, 0, 68, 80
1, 57719, Note_on_c, 0, 68, 0
1, 57720, Note_on_c, 0, 71, 80
1, 57839, Note_on_c, 0, 71, 0
1, 57840, Note_on_c, 0, 76, 80
1, 57959, Note_on_c, 0, 76, 0
1, 57960, Note_on_c, 0, 75, 80
1, 58079, Note_on_c, 0, 75, 0
1, 58080, Note_on_c, 0, 73, 80
1, 58439, Note_on_c, 0, 73, 0
1, 58440, Note_on_c, 0, 75, 80
1, 58559, Note_on_c, 0, 75, 0
1, 58560, Note_on_c, 0, 68, 80
1, 58799, Note_on_c, 0, 68, 0
1, 58800, Note_on_c, 0, 73, 80
1, 59159, Note_on_c, 0, 73, 0
1, 59160, Note_on_c, 0, 75, 80
1, 59279, Note_on_c, 0, 75, 0
1, 59280, Note_on_c, 0, 73, 80
1, 59399, Note_on_c, 0, 73, 0
1, 59400, Note_on_c, 0, 71, 80
1, 59519, Note_on_c, 0, 71, 0
1, 59520, Note_on_c, 0, 76, 80
1, 59759, Note_on_c, 0, 76, 0
1, 59760, Note_on_c, 0, 69, 80
1, 60119, Note_on_c, 0, 69, 0
1, 60120, Note_on_c, 0, 71, 80
1, 60239, Note_on_c, 0, 71, 0
1, 60240, Note_on_c, 0, 69, 80
1, 60359, Note_on_c, 0, 69, 0
1, 60360, Note_on_c, 0, 68, 80
1, 60479, Note_on_c, 0, 68, 0
1, 60480, Note_on_c, 0, 66, 80
1, 60719, Note_on_c, 0, 66, 0
1, 60720, Note_on_c, 0, 78, 80
1, 61079, Note_on_c, 0, 78, 0
1, 61080, Note_on_c, 0, 81, 80
1, 61199, Note_on_c, 0, 81, 0
1, 61200, Note_on_c, 0, 80, 80
1, 61319, Note_on_c, 0, 80, 0
1, 61320, Note_on_c, 0, 78, 80
1, 61439, Note_on_c, 0, 78, 0
1, 61440, Note_on_c, 0, 77, 80
1, 61679, Note_on_c, 0, 77, 0
1, 61680, Note_on_c, 0, 76, 80
1, 62039, Note_on_c, 0, 76, 0
1, 62040, Note_on_c, 0, 80, 80
1, 62159, Note_on_c, 0, 80, 0
1, 62160, Note_on_c, 0, 78, 80
1, 62279, Note_on_c, 0, 78, 0
1, 62280, Note_on_c, 0, 76, 80
1, 62399, Note_on_c, 0, 76, 0
1, 62400, Note_on_c, 0, 75, 80
1, 62639, Note_on_c, 0, 75, 0
1, 62640, Note_on_c, 0, 74, 80
1, 62999, Note_on_c, 0, 74, 0
1, 63000, Note_on_c, 0, 78, 80
1, 63119, Note_on_c, 0, 78, 0
1, 63120, Note_on_c, 0, 76, 80
1, 63239, Note_on_c, 0, 76, 0
1, 63240, Note_on_c, 0, 74, 80
1, 63359, Note_on_c, 0, 74, 0
1, 63360, Note_on_c, 0, 73, 80
1, 63839, Note_on_c, 0, 73, 0
1, 63840, Note_on_c, 0, 72, 80
1, 64079, Note_on_c, 0, 72, 0
1, 64080, Note_on_c, 0, 71, 80
1, 64559, Note_on_c, 0, 71, 0
1, 64560, Note_on_c, 0, 69, 80
1, 64679, Note_on_c, 0, 69, 0
1, 64680, Note_on_c, 0, 68, 80
1, 64799, Note_on_c, 0, 68, 0
1, 64800, Note_on_c, 0, 66, 80
1, 64919, Note_on_c, 0, 66, 0
1, 64920, Note_on_c, 0, 76, 80
1, 65039, Note_on_c, 0, 76, 0
1, 65040, Note_on_c, 0, 75, 80
1, 65159, Note_on_c, 0, 75, 0
1, 65160, Note_on_c, 0, 73, 80
1, 65279, Note_on_c, 0, 73, 0
1, 65280, Note_on_c, 0, 72, 80
1, 65639, Note_on_c, 0, 72, 0
1, 65640, Note_on_c, 0, 73, 80
1, 65759, Note_on_c, 0, 73, 0
1, 65760, Note_on_c, 0, 75, 80
1, 66119, Note_on_c, 0, 75, 0
1, 66120, Note_on_c, 0, 72, 80
1, 66239, Note_on_c, 0, 72, 0
1, 66240, Note_on_c, 0, 73, 80
1, 66359, Note_on_c, 0, 73, 0
1, 66360, Note_on_c, 0, 76, 80
1, 66479, Note_on_c, 0, 76, 0
1, 66480, Note_on_c, 0, 75, 80
1, 66599, Note_on_c, 0, 75, 0
1, 66600, Note_on_c, 0, 73, 80
1, 66719, Note_on_c, 0, 73, 0
1, 66720, Note_on_c, 0, 72, 80
1, 66839, Note_on_c, 0, 72, 0
1, 66840, Note_on_c, 0, 75, 80
1, 66959, Note_on_c, 0, 75, 0
1, 66960, Note_on_c, 0, 68, 80
1, 67079, Note_on_c, 0, 68, 0
1, 67080, Note_on_c, 0, 66, 80
1, 67199, Note_on_c, 0, 66, 0
1, 67200, Note_on_c, 0, 64, 80
1, 67319, Note_on_c, 0, 64, 0
1, 67320, Note_on_c, 0, 66, 80
1, 67439, Note_on_c, 0, 66, 0
1, 67440, Note_on_c, 0, 64, 80
1, 67559, Note_on_c, 0, 64, 0
1, 67560, Note_on_c, 0, 63, 80
1, 67679, Note_on_c, 0, 63, 0
1, 67680, Note_on_c, 0, 61, 80
1, 67799, Note_on_c, 0, 61, 0
1, 67800, Note_on_c, 0, 64, 80
1, 67919, Note_on_c, 0, 64, 0
1, 67920, Note_on_c, 0, 69, 80
1, 68039, Note_on_c, 0, 69, 0
1, 68040, Note_on_c, 0, 68, 80
1, 68159, Note_on_c, 0, 68, 0
1, 68160, Note_on_c, 0, 66, 80
1, 68279, Note_on_c, 0, 66, 0
1, 68280, Note_on_c, 0, 64, 80
1, 68399, Note_on_c, 0, 64, 0
1, 68400, Note_on_c, 0, 63, 80
1, 68519, Note_on_c, 0, 63, 0
1, 68520, Note_on_c, 0, 64, 80
1, 68639, Note_on_c, 0, 64, 0
1, 68640, Note_on_c, 0, 66, 80
1, 68759, Note_on_c, 0, 66, 0
1, 68760, Note_on_c, 0, 69, 80
1, 68879, Note_on_c, 0, 69, 0
1, 68880, Note_on_c, 0, 73, 80
1, 68999, Note_on_c, 0, 73, 0
1, 69000, Note_on_c, 0, 72, 80
1, 69119, Note_on_c, 0, 72, 0
1, 69120, Note_on_c, 0, 73, 80
1, 69599, Note_on_c, 0, 73, 0
1, 69720, Note_on_c, 0, 73, 80
1, 69839, Note_on_c, 0, 73, 0
1, 69840, Note_on_c, 0, 71, 80
1, 69959, Note_on_c, 0, 71, 0
1, 69960, Note_on_c, 0, 69, 80
1, 70079, Note_on_c, 0, 69, 0
1, 70080, Note_on_c, 0, 68, 80
1, 70559, Note_on_c, 0, 68, 0
1, 70680, Note_on_c, 0, 72, 80
1, 70799, Note_on_c, 0, 72, 0
1, 70800, Note_on_c, 0, 73, 80
1, 70919, Note_on_c, 0, 73, 0
1, 70920, Note_on_c, 0, 75, 80
1, 71039, Note_on_c, 0, 75, 0
1, 71040, Note_on_c, 0, 76, 80
1, 71159, Note_on_c, 0, 76, 0
1, 71160, Note_on_c, 0, 78, 80
1, 71279, Note_on_c, 0, 78, 0
1, 71280, Note_on_c, 0, 76, 80
1, 71399, Note_on_c, 0, 76, 0
1, 71400, Note_on_c, 0, 75, 80
1, 71519, Note_on_c, 0, 75, 0
1, 71520, Note_on_c, 0, 73, 80
1, 71999, Note_on_c, 0, 73, 0
1, 72000, Note_on_c, 0, 80, 80
1, 72719, Note_on_c, 0, 80, 0
1, 72720, Note_on_c, 0, 78, 80
1, 72959, Note_on_c, 0, 78, 0
1, 72960, Note_on_c, 0, 76, 80
1, 73679, Note_on_c, 0, 76, 0
1, 73680, Note_on_c, 0, 75, 80
1, 73919, Note_on_c, 0, 75, 0
1, 73920, Note_on_c, 0, 73, 80
1, 74879, Note_on_c, 0, 73, 0
1, 74880, Note_on_c, 0, 72, 80
1, 75839, Note_on_c, 0, 72, 0
1, 75840, Note_on_c, 0, 73, 80
1, 76319, Note_on_c, 0, 73, 0
1, 76320, Note_on_c, 0, 75, 80
1, 76799, Note_on_c, 0, 75, 0
1, 76800, Note_on_c, 0, 76, 80
1, 78239, Note_on_c, 0, 76, 0
1, 78240, Note_on_c, 0, 76, 80
1, 78479, Note_on_c, 0, 76, 0
1, 78480, Note_on_c, 0, 75, 80
1, 78719, Note_on_c, 0, 75, 0
1, 78720, Note_on_c, 0, 73, 80
1, 78839, Note_on_c, 0, 73, 0
1, 78840, Note_on_c, 0, 68, 80
1, 78959, Note_on_c, 0, 68, 0
1, 78960, Note_on_c, 0, 73, 80
1, 79319, Note_on_c, 0, 73, 0
1, 79320, Note_on_c, 0, 75, 80
1, 79439, Note_on_c, 0, 75, 0
1, 79440, Note_on_c, 0, 73, 80
1, 79559, Note_on_c, 0, 73, 0
1, 79560, Note_on_c, 0, 72, 80
1, 79679, Note_on_c, 0, 72, 0
1, 79680, Note_on_c, 0, 73, 80
1, 79919, Note_on_c, 0, 73, 0
1, 79920, Note_on_c, 0, 80, 80
1, 80159, Note_on_c, 0, 80, 0
1, 80160, Note_on_c, 0, 73, 80
1, 80519, Note_on_c, 0, 73, 0
1, 80520, Note_on_c, 0, 75, 80
1, 80639, Note_on_c, 0, 75, 0
1, 80640, Note_on_c, 0, 76, 80
1, 80999, Note_on_c, 0, 76, 0
1, 81000, Note_on_c, 0, 78, 80
1, 81119, Note_on_c, 0, 78, 0
1, 81120, Note_on_c, 0, 80, 80
1, 81599, Note_on_c, 0, 80, 0
1, 81600, Note_on_c, 0, 81, 80
1, 82079, Note_on_c, 0, 81, 0
1, 82080, Note_on_c, 0, 80, 80
1, 82439, Note_on_c, 0, 80, 0
1, 82440, Note_on_c, 0, 78, 80
1, 82559, Note_on_c, 0, 78, 0
1, 82560, Note_on_c, 0, 76, 80
1, 83159, Note_on_c, 0, 76, 0
1, 83160, Note_on_c, 0, 75, 80
1, 83279, Note_on_c, 0, 75, 0
1, 83280, Note_on_c, 0, 76, 80
1, 83399, Note_on_c, 0, 76, 0
1, 83400, Note_on_c, 0, 78, 80
1, 83519, Note_on_c, 0, 78, 0
1, 83520, Note_on_c, 0, 80, 80
1, 83639, Note_on_c, 0, 80, 0
1, 83640, Note_on_c, 0, 76, 80
1, 83759, Note_on_c, 0, 76, 0
1, 83760, Note_on_c, 0, 75, 80
1, 83879, Note_on_c, 0, 75, 0
1, 83880, Note_on_c, 0, 73, 80
1, 83999, Note_on_c, 0, 73, 0
1, 84000, Note_on_c, 0, 71, 80
1, 84239, Note_on_c, 0, 71, 0
1, 94080, Note_on_c, 0, 73, 80
1, 95999, Note_on_c, 0, 73, 0
1, 96000, Note_on_c, 0, 80, 80
1, 97439, Note_on_c, 0, 80, 0
1, 97440, Note_on_c, 0, 78, 80
1, 97919, Note_on_c, 0, 78, 0
1, 97920, Note_on_c, 0, 76, 80
1, 99359, Note_on_c, 0, 76, 0
1, 99360, Note_on_c, 0, 75, 80
1, 99839, Note_on_c, 0, 75, 0
1, 99840, Note_on_c, 0, 73, 80
1, 101759, Note_on_c, 0, 73, 0
1, 101760, Note_on_c, 0, 72, 80
1, 103679, Note_on_c, 0, 72, 0
1, 103680, Note_on_c, 0, 73, 80
1, 105119, Note_on_c, 0, 73, 0
1, 105120, Note_on_c, 0, 75, 80
1, 105599, Note_on_c, 0, 75, 0
1, 105600, Note_on_c, 0, 76, 80
1, 105720, Note_on_c, 0, 73, 80
1, 105839, Note_on_c, 0, 73, 0
1, 105840, Note_on_c, 0, 71, 80
1, 105959, Note_on_c, 0, 71, 0
1, 105960, Note_on_c, 0, 69, 80
1, 106079, Note_on_c, 0, 69, 0
1, 106080, Note_on_c, 0, 68, 80
1, 106679, Note_on_c, 0, 68, 0
1, 106680, Note_on_c, 0, 69, 80
1, 106799, Note_on_c, 0, 69, 0
1, 106800, Note_on_c, 0, 68, 80
1, 106919, Note_on_c, 0, 68, 0
1, 106920, Note_on_c, 0, 66, 80
1, 107039, Note_on_c, 0, 66, 0
1, 107040, Note_on_c, 0, 64, 80
1, 107279, Note_on_c, 0, 64, 0
1, 107280, Note_on_c, 0, 66, 80
1, 107399, Note_on_c, 0, 66, 0
1, 107400, Note_on_c, 0, 68, 80
1, 107519, Note_on_c, 0, 68, 0
1, 107520, Note_on_c, 0, 69, 80
1, 107759, Note_on_c, 0, 69, 0
1, 107760, Note_on_c, 0, 73, 80
1, 107999, Note_on_c, 0, 73, 0
1, 107999, Note_on_c, 0, 76, 0
1, 108000, Note_on_c, 0, 72, 80
1, 108000, Note_on_c, 0, 78, 80
1, 108239, Note_on_c, 0, 72, 0
1, 108240, Note_on_c, 0, 75, 80
1, 108479, Note_on_c, 0, 78, 0
1, 108480, Note_on_c, 0, 76, 80
1, 108719, Note_on_c, 0, 75, 0
1, 108720, Note_on_c, 0, 73, 80
1, 108959, Note_on_c, 0, 76, 0
1, 108960, Note_on_c, 0, 75, 80
1, 109199, Note_on_c, 0, 73, 0
1, 109200, Note_on_c, 0, 72, 80
1, 109439, Note_on_c, 0, 72, 0
1, 109439, Note_on_c, 0, 75, 0
1, 109440, Note_on_c, 0, 73, 80
1, 109440, Note_on_c, 0, 73, 80
1, 109559, Note_on_c, 0, 73, 0
1, 109560, Note_on_c, 0, 69, 80
1, 109679, Note_on_c, 0, 69, 0
1, 109680, Note_on_c, 0, 68, 80
1, 109799, Note_on_c, 0, 68, 0
1, 109800, Note_on_c, 0, 66, 80
1, 109919, Note_on_c, 0, 66, 0
1, 109920, Note_on_c, 0, 64, 80
1, 110039, Note_on_c, 0, 64, 0
1, 110040, Note_on_c, 0, 68, 80
1, 110279, Note_on_c, 0, 68, 0
1, 110280, Note_on_c, 0, 67, 80
1, 110399, Note_on_c, 0, 67, 0
1, 110400, Note_on_c, 0, 70, 80
1, 110519, Note_on_c, 0, 73, 0
1, 110520, Note_on_c, 0, 75, 80
1, 110639, Note_on_c, 0, 70, 0
1, 110639, Note_on_c, 0, 75, 0
1, 110640, Note_on_c, 0, 73, 80
1, 110759, Note_on_c, 0, 73, 0
1, 110760, Note_on_c, 0, 72, 80
1, 110879, Note_on_c, 0, 72, 0
1, 110880, Note_on_c, 0, 73, 80
1, 110999, Note_on_c, 0, 73, 0
1, 111000, Note_on_c, 0, 75, 80
1, 111119, Note_on_c, 0, 75, 0
1, 111120, Note_on_c, 0, 76, 80
1, 111239, Note_on_c, 0, 76, 0
1, 111240, Note_on_c, 0, 75, 80
1, 111359, Note_on_c, 0, 75, 0
1, 111360, Note_on_c, 0, 78, 80
1, 111479, Note_on_c, 0, 78, 0
1, 111480, Note_on_c, 0, 76, 80
1, 111599, Note_on_c, 0, 76, 0
1, 111600, Note_on_c, 0, 75, 80
1, 111719, Note_on_c, 0, 75, 0
1, 111720, Note_on_c, 0, 73, 80
1, 111839, Note_on_c, 0, 73, 0
1, 111840, Note_on_c, 0, 75, 80
1, 111959, Note_on_c, 0, 75, 0
1, 111960, Note_on_c, 0, 72, 80
1, 112079, Note_on_c, 0, 72, 0
1, 112080, Note_on_c, 0, 64, 80
1, 112080, Note_on_c, 0, 73, 80
1, 112439, Note_on_c, 0, 64, 0
1, 112440, Note_on_c, 0, 61, 80
1, 112559, Note_on_c, 0, 61, 0
1, 112560, Note_on_c, 0, 63, 80
1, 112679, Note_on_c, 0, 63, 0
1, 112680, Note_on_c, 0, 64, 80
1, 112799, Note_on_c, 0, 64, 0
1, 112799, Note_on_c, 0, 73, 0
1, 112800, Note_on_c, 0, 66, 80
1, 112800, Note_on_c, 0, 72, 80
1, 112919, Note_on_c, 0, 66, 0
1, 112920, Note_on_c, 0, 68, 80
1, 113039, Note_on_c, 0, 68, 0
1, 113040, Note_on_c, 0, 69, 80
1, 113159, Note_on_c, 0, 69, 0
1, 113160, Note_on_c, 0, 66, 80
1, 113279, Note_on_c, 0, 66, 0
1, 113279, Note_on_c, 0, 72, 0
1, 113280, Note_on_c, 0, 65, 80
1, 113280, Note_on_c, 0, 73, 80
1, 113399, Note_on_c, 0, 65, 0
1, 113400, Note_on_c, 0, 68, 80
1, 113519, Note_on_c, 0, 68, 0
1, 113520, Note_on_c, 0, 66, 80
1, 113639, Note_on_c, 0, 66, 0
1, 113640, Note_on_c, 0, 65, 80
1, 113759, Note_on_c, 0, 65, 0
1, 113760, Note_on_c, 0, 66, 80
1, 113999, Note_on_c, 0, 73, 0
1, 114000, Note_on_c, 0, 73, 80
1, 114239, Note_on_c, 0, 73, 0
1, 114240, Note_on_c, 0, 72, 80
1, 114479, Note_on_c, 0, 66, 0
1, 114479, Note_on_c, 0, 72, 0
1, 114480, Note_on_c, 0, 69, 80
1, 114480, Note_on_c, 0, 71, 80
1, 114719, Note_on_c, 0, 69, 0
1, 114720, Note_on_c, 0, 68, 80
1, 114839, Note_on_c, 0, 71, 0
1, 114840, Note_on_c, 0, 74, 80
1, 114959, Note_on_c, 0, 74, 0
1, 114960, Note_on_c, 0, 73, 80
1, 115079, Note_on_c, 0, 73, 0
1, 115080, Note_on_c, 0, 71, 80
1, 115199, Note_on_c, 0, 68, 0
1, 115199, Note_on_c, 0, 71, 0
1, 115200, Note_on_c, 0, 63, 80
1, 115200, Note_on_c, 0, 69, 80
1, 115319, Note_on_c, 0, 69, 0
1, 115320, Note_on_c, 0, 68, 80
1, 115439, Note_on_c, 0, 68, 0
1, 115440, Note_on_c, 0, 66, 80
1, 115559, Note_on_c, 0, 66, 0
1, 115560, Note_on_c, 0, 69, 80
1, 115679, Note_on_c, 0, 63, 0
1, 115680, Note_on_c, 0, 60, 80
1, 115799, Note_on_c, 0, 69, 0
1, 115800, Note_on_c, 0, 69, 80
1, 115919, Note_on_c, 0, 69, 0
1, 115920, Note_on_c, 0, 68, 80
1, 116039, Note_on_c, 0, 68, 0
1, 116040, Note_on_c, 0, 66, 80
1, 116159, Note_on_c, 0, 60, 0
1, 116159, Note_on_c, 0, 66, 0
1, 116160, Note_on_c, 0, 61, 80
1, 116160, Note_on_c, 0, 65, 80
1, 117119, Note_on_c, 0, 61, 0
1, 117119, Note_on_c, 0, 65, 0
1, 117120, End_track
2, 0, Start_track
2, 0, Key_signature, 4, "major"
2, 3840, Note_on_c, 0, 73, 80
2, 4319, Note_on_c, 0, 73, 0
2, 4320, Note_on_c, 0, 68, 80
2, 4679, Note_on_c, 0, 68, 0
2, 4680, Note_on_c, 0, 70, 80
2, 4799, Note_on_c, 0, 70, 0
2, 4800, Note_on_c, 0, 71, 80
2, 5159, Note_on_c, 0, 71, 0
2, 5160, Note_on_c, 0, 73, 80
2, 5279, Note_on_c, 0, 73, 0
2, 5280, Note_on_c, 0, 75, 80
2, 5759, Note_on_c, 0, 75, 0
2, 5760, Note_on_c, 0, 76, 80
2, 6239, Note_on_c, 0, 76, 0
2, 6240, Note_on_c, 0, 75, 80
2, 6599, Note_on_c, 0, 75, 0
2, 6600, Note_on_c, 0, 73, 80
2, 6719, Note_on_c, 0, 73, 0
2, 6720, Note_on_c, 0, 72, 80
2, 7319, Note_on_c, 0, 72, 0
2, 7320, Note_on_c, 0, 68, 80
2, 7439, Note_on_c, 0, 68, 0
2, 7440, Note_on_c, 0, 70, 80
2, 7559, Note_on_c, 0, 70, 0
2, 7560, Note_on_c, 0, 72, 80
2, 7679, Note_on_c, 0, 72, 0
2, 7680, Note_on_c, 0, 73, 80
2, 7799, Note_on_c, 0, 73, 0
2, 7800, Note_on_c, 0, 69, 80
2, 7919, Note_on_c, 0, 69, 0
2, 7920, Note_on_c, 0, 68, 80
2, 8039, Note_on_c, 0, 68, 0
2, 8040, Note_on_c, 0, 66, 80
2, 8159, Note_on_c, 0, 66, 0
2, 8160, Note_on_c, 0, 64, 80
2, 8759, Note_on_c, 0, 64, 0
2, 8760, Note_on_c, 0, 68, 80
2, 8879, Note_on_c, 0, 68, 0
2, 8880, Note_on_c, 0, 70, 80
2, 8999, Note_on_c, 0, 70, 0
2, 9000, Note_on_c, 0, 72, 80
2, 9119, Note_on_c, 0, 72, 0
2, 9120, Note_on_c, 0, 73, 80
2, 9719, Note_on_c, 0, 73, 0
2, 9720, Note_on_c, 0, 73, 80
2, 9839, Note_on_c, 0, 73, 0
2, 9840, Note_on_c, 0, 71, 80
2, 9959, Note_on_c, 0, 71, 0
2, 9960, Note_on_c, 0, 70, 80
2, 10079, Note_on_c, 0, 70, 0
2, 10080, Note_on_c, 0, 71, 80
2, 10679, Note_on_c, 0, 71, 0
2, 10680, Note_on_c, 0, 71, 80
2, 10799, Note_on_c, 0, 71, 0
2, 10800, Note_on_c, 0, 70, 80
2, 10919, Note_on_c, 0, 70, 0
2, 10920, Note_on_c, 0, 68, 80
2, 11039, Note_on_c, 0, 68, 0
2, 11040, Note_on_c, 0, 67, 80
2, 11519, Note_on_c, 0, 67, 0
2, 11520, Note_on_c, 0, 68, 80
2, 11999, Note_on_c, 0, 68, 0
2, 12000, Note_on_c, 0, 75, 80
2, 12359, Note_on_c, 0, 75, 0
2, 12360, Note_on_c, 0, 73, 80
2, 12479, Note_on_c, 0, 73, 0
2, 12480, Note_on_c, 0, 71, 80
2, 12839, Note_on_c, 0, 71, 0
2, 12840, Note_on_c, 0, 70, 80
2, 12959, Note_on_c, 0, 70, 0
2, 12960, Note_on_c, 0, 68, 80
2, 13439, Note_on_c, 0, 68, 0
2, 13440, Note_on_c, 0, 67, 80
2, 13919, Note_on_c, 0, 67, 0
2, 13920, Note_on_c, 0, 68, 80
2, 14279, Note_on_c, 0, 68, 0
2, 14280, Note_on_c, 0, 70, 80
2, 14399, Note_on_c, 0, 70, 0
2, 14400, Note_on_c, 0, 71, 80
2, 14999, Note_on_c, 0, 71, 0
2, 15000, Note_on_c, 0, 73, 80
2, 15119, Note_on_c, 0, 73, 0
2, 15120, Note_on_c, 0, 71, 80
2, 15239, Note_on_c, 0, 71, 0
2, 15240, Note_on_c, 0, 69, 80
2, 15359, Note_on_c, 0, 69, 0
2, 15360, Note_on_c, 0, 68, 80
2, 15959, Note_on_c, 0, 68, 0
2, 15960, Note_on_c, 0, 68, 80
2, 16079, Note_on_c, 0, 68, 0
2, 16080, Note_on_c, 0, 70, 80
2, 16199, Note_on_c, 0, 70, 0
2, 16200, Note_on_c, 0, 72, 80
2, 16319, Note_on_c, 0, 72, 0
2, 16320, Note_on_c, 0, 73, 80
2, 16919, Note_on_c, 0, 73, 0
2, 16920, Note_on_c, 0, 71, 80
2, 17039, Note_on_c, 0, 71, 0
2, 17040, Note_on_c, 0, 69, 80
2, 17159, Note_on_c, 0, 69, 0
2, 17160, Note_on_c, 0, 68, 80
2, 17279, Note_on_c, 0, 68, 0
2, 17280, Note_on_c, 0, 66, 80
2, 17879, Note_on_c, 0, 66, 0
2, 17880, Note_on_c, 0, 63, 80
2, 17999, Note_on_c, 0, 63, 0
2, 18000, Note_on_c, 0, 64, 80
2, 18119, Note_on_c, 0, 64, 0
2, 18120, Note_on_c, 0, 66, 80
2, 18239, Note_on_c, 0, 66, 0
2, 18240, Note_on_c, 0, 68, 80
2, 18839, Note_on_c, 0, 68, 0
2, 18840, Note_on_c, 0, 66, 80
2, 18959, Note_on_c, 0, 66, 0
2, 18960, Note_on_c, 0, 68, 80
2, 19079, Note_on_c, 0, 68, 0
2, 19080, Note_on_c, 0, 70, 80
2, 19199, Note_on_c, 0, 70, 0
2, 19200, Note_on_c, 0, 71, 80
2, 19439, Note_on_c, 0, 71, 0
2, 19440, Note_on_c, 0, 73, 80
2, 19559, Note_on_c, 0, 73, 0
2, 19560, Note_on_c, 0, 75, 80
2, 19679, Note_on_c, 0, 75, 0
2, 19680, Note_on_c, 0, 76, 80
2, 20279, Note_on_c, 0, 76, 0
2, 20280, Note_on_c, 0, 76, 80
2, 20399, Note_on_c, 0, 76, 0
2, 20400, Note_on_c, 0, 74, 80
2, 20519, Note_on_c, 0, 74, 0
2, 20520, Note_on_c, 0, 73, 80
2, 20639, Note_on_c, 0, 73, 0
2, 20640, Note_on_c, 0, 74, 80
2, 21239, Note_on_c, 0, 74, 0
2, 21240, Note_on_c, 0, 73, 80
2, 21359, Note_on_c, 0, 73, 0
2, 21360, Note_on_c, 0, 71, 80
2, 21479, Note_on_c, 0, 71, 0
2, 21480, Note_on_c, 0, 69, 80
2, 21599, Note_on_c, 0, 69, 0
2, 21600, Note_on_c, 0, 71, 80
2, 22199, Note_on_c, 0, 71, 0
2, 22200, Note_on_c, 0, 71, 80
2, 22319, Note_on_c, 0, 71, 0
2, 22320, Note_on_c, 0, 69, 80
2, 22439, Note_on_c, 0, 69, 0
2, 22440, Note_on_c, 0, 68, 80
2, 22559, Note_on_c, 0, 68, 0
2, 22560, Note_on_c, 0, 66, 80
2, 22799, Note_on_c, 0, 66, 0
2, 22800, Note_on_c, 0, 71, 80
2, 23039, Note_on_c, 0, 71, 0
2, 23040, Note_on_c, 0, 65, 80
2, 23159, Note_on_c, 0, 65, 0
2, 23160, Note_on_c, 0, 61, 80
2, 23279, Note_on_c, 0, 61, 0
2, 23280, Note_on_c, 0, 63, 80
2, 23399, Note_on_c, 0, 63, 0
2, 23400, Note_on_c, 0, 65, 80
2, 23519, Note_on_c, 0, 65, 0
2, 23520, Note_on_c, 0, 66, 80
2, 24119, Note_on_c, 0, 66, 0
2, 24120, Note_on_c, 0, 66, 80
2, 24239, Note_on_c, 0, 66, 0
2, 24240, Note_on_c, 0, 65, 80
2, 24359, Note_on_c, 0, 65, 0
2, 24360, Note_on_c, 0, 63, 80
2, 24479, Note_on_c, 0, 63, 0
2, 24480, Note_on_c, 0, 65, 80
2, 24959, Note_on_c, 0, 65, 0
2, 24960, Note_on_c, 0, 66, 80
2, 25319, Note_on_c, 0, 66, 0
2, 25320, Note_on_c, 0, 64, 80
2, 25439, Note_on_c, 0, 64, 0
2, 25440, Note_on_c, 0, 62, 80
2, 25919, Note_on_c, 0, 62, 0
2, 25920, Note_on_c, 0, 61, 80
2, 26879, Note_on_c, 0, 61, 0
2, 26880, Note_on_c, 0, 54, 80
2, 27599, Note_on_c, 0, 54, 0
2, 27600, Note_on_c, 0, 56, 80
2, 27839, Note_on_c, 0, 56, 0
2, 27840, Note_on_c, 0, 57, 80
2, 28199, Note_on_c, 0, 57, 0
2, 28200, Note_on_c, 0, 59, 80
2, 28319, Note_on_c, 0, 59, 0
2, 28320, Note_on_c, 0, 61, 80
2, 28799, Note_on_c, 0, 61, 0
2, 28800, Note_on_c, 0, 62, 80
2, 29759, Note_on_c, 0, 62, 0
2, 29760, Note_on_c, 0, 61, 80
2, 30479, Note_on_c, 0, 61, 0
2, 30480, Note_on_c, 0, 59, 80
2, 30719, Note_on_c, 0, 59, 0
2, 30720, Note_on_c, 0, 57, 80
2, 31919, Note_on_c, 0, 57, 0
2, 31920, Note_on_c, 0, 56, 80
2, 32159, Note_on_c, 0, 56, 0
2, 32160, Note_on_c, 0, 57, 80
2, 32399, Note_on_c, 0, 57, 0
2, 32400, Note_on_c, 0, 59, 80
2, 32639, Note_on_c, 0, 59, 0
2, 32640, Note_on_c, 0, 61, 80
2, 33119, Note_on_c, 0, 61, 0
2, 34320, Note_on_c, 0, 67, 80
2, 34559, Note_on_c, 0, 67, 0
2, 34560, Note_on_c, 0, 66, 80
2, 34799, Note_on_c, 0, 66, 0
2, 35280, Note_on_c, 0, 71, 80
2, 35639, Note_on_c, 0, 71, 0
2, 35640, Note_on_c, 0, 71, 80
2, 35759, Note_on_c, 0, 71, 0
2, 35760, Note_on_c, 0, 69, 80
2, 35879, Note_on_c, 0, 69, 0
2, 35880, Note_on_c, 0, 68, 80
2, 35999, Note_on_c, 0, 68, 0
2, 36000, Note_on_c, 0, 69, 80
2, 36599, Note_on_c, 0, 69, 0
2, 36600, Note_on_c, 0, 69, 80
2, 36719, Note_on_c, 0, 69, 0
2, 36720, Note_on_c, 0, 68, 80
2, 36839, Note_on_c, 0, 68, 0
2, 36840, Note_on_c, 0, 66, 80
2, 36959, Note_on_c, 0, 66, 0
2, 36960, Note_on_c, 0, 68, 80
2, 37079, Note_on_c, 0, 68, 0
2, 37080, Note_on_c, 0, 69, 80
2, 37199, Note_on_c, 0, 69, 0
2, 37200, Note_on_c, 0, 71, 80
2, 37559, Note_on_c, 0, 71, 0
2, 37560, Note_on_c, 0, 69, 80
2, 37679, Note_on_c, 0, 69, 0
2, 37680, Note_on_c, 0, 68, 80
2, 38039, Note_on_c, 0, 68, 0
2, 38040, Note_on_c, 0, 61, 80
2, 38159, Note_on_c, 0, 61, 0
2, 38160, Note_on_c, 0, 66, 80
2, 38639, Note_on_c, 0, 66, 0
2, 38640, Note_on_c, 0, 64, 80
2, 38759, Note_on_c, 0, 64, 0
2, 38760, Note_on_c, 0, 66, 80
2, 38879, Note_on_c, 0, 66, 0
2, 38880, Note_on_c, 0, 68, 80
2, 39479, Note_on_c, 0, 68, 0
2, 39480, Note_on_c, 0, 69, 80
2, 39599, Note_on_c, 0, 69, 0
2, 39600, Note_on_c, 0, 71, 80
2, 39719, Note_on_c, 0, 71, 0
2, 39720, Note_on_c, 0, 68, 80
2, 39839, Note_on_c, 0, 68, 0
2, 39840, Note_on_c, 0, 69, 80
2, 40439, Note_on_c, 0, 69, 0
2, 40440, Note_on_c, 0, 69, 80
2, 40559, Note_on_c, 0, 69, 0
2, 40560, Note_on_c, 0, 68, 80
2, 40679, Note_on_c, 0, 68, 0
2, 40680, Note_on_c, 0, 66, 80
2, 40799, Note_on_c, 0, 66, 0
2, 40800, Note_on_c, 0, 64, 80
2, 41879, Note_on_c, 0, 64, 0
2, 41880, Note_on_c, 0, 66, 80
2, 41999, Note_on_c, 0, 66, 0
2, 42000, Note_on_c, 0, 64, 80
2, 42119, Note_on_c, 0, 64, 0
2, 42120, Note_on_c, 0, 63, 80
2, 42239, Note_on_c, 0, 63, 0
2, 42240, Note_on_c, 0, 64, 80
2, 42719, Note_on_c, 0, 64, 0
2, 42720, Note_on_c, 0, 71, 80
2, 43079, Note_on_c, 0, 71, 0
2, 43080, Note_on_c, 0, 69, 80
2, 43199, Note_on_c, 0, 69, 0
2, 43200, Note_on_c, 0, 68, 80
2, 43559, Note_on_c, 0, 68, 0
2, 43560, Note_on_c, 0, 66, 80
2, 43679, Note_on_c, 0, 66, 0
2, 43680, Note_on_c, 0, 64, 80
2, 44159, Note_on_c, 0, 64, 0
2, 44160, Note_on_c, 0, 63, 80
2, 44639, Note_on_c, 0, 63, 0
2, 44640, Note_on_c, 0, 64, 80
2, 44999, Note_on_c, 0, 64, 0
2, 45000, Note_on_c, 0, 66, 80
2, 45119, Note_on_c, 0, 66, 0
2, 45120, Note_on_c, 0, 68, 80
2, 45719, Note_on_c, 0, 68, 0
2, 45720, Note_on_c, 0, 69, 80
2, 45839, Note_on_c, 0, 69, 0
2, 45840, Note_on_c, 0, 68, 80
2, 45959, Note_on_c, 0, 68, 0
2, 45960, Note_on_c, 0, 66, 80
2, 46079, Note_on_c, 0, 66, 0
2, 46080, Note_on_c, 0, 64, 80
2, 46679, Note_on_c, 0, 64, 0
2, 46680, Note_on_c, 0, 66, 80
2, 46799, Note_on_c, 0, 66, 0
2, 46800, Note_on_c, 0, 64, 80
2, 46919, Note_on_c, 0, 64, 0
2, 46920, Note_on_c, 0, 62, 80
2, 47039, Note_on_c, 0, 62, 0
2, 47040, Note_on_c, 0, 61, 80
2, 47159, Note_on_c, 0, 61, 0
2, 47160, Note_on_c, 0, 63, 80
2, 47279, Note_on_c, 0, 63, 0
2, 47280, Note_on_c, 0, 64, 80
2, 47639, Note_on_c, 0, 64, 0
2, 47640, Note_on_c, 0, 64, 80
2, 47759, Note_on_c, 0, 64, 0
2, 47760, Note_on_c, 0, 63, 80
2, 48119, Note_on_c, 0, 63, 0
2, 48120, Note_on_c, 0, 63, 80
2, 48239, Note_on_c, 0, 63, 0
2, 48240, Note_on_c, 0, 61, 80
2, 48359, Note_on_c, 0, 61, 0
2, 48360, Note_on_c, 0, 60, 80
2, 48479, Note_on_c, 0, 60, 0
2, 48480, Note_on_c, 0, 61, 80
2, 48959, Note_on_c, 0, 61, 0
2, 48960, Note_on_c, 0, 59, 80
2, 49079, Note_on_c, 0, 59, 0
2, 49080, Note_on_c, 0, 63, 80
2, 49199, Note_on_c, 0, 63, 0
2, 49200, Note_on_c, 0, 64, 80
2, 49319, Note_on_c, 0, 64, 0
2, 49320, Note_on_c, 0, 66, 80
2, 49439, Note_on_c, 0, 66, 0
2, 49440, Note_on_c, 0, 68, 80
2, 49919, Note_on_c, 0, 68, 0
2, 49920, Note_on_c, 0, 66, 80
2, 50279, Note_on_c, 0, 66, 0
2, 50280, Note_on_c, 0, 68, 80
2, 50399, Note_on_c, 0, 68, 0
2, 50400, Note_on_c, 0, 69, 80
2, 50519, Note_on_c, 0, 69, 0
2, 50520, Note_on_c, 0, 61, 80
2, 50639, Note_on_c, 0, 61, 0
2, 50640, Note_on_c, 0, 60, 80
2, 50759, Note_on_c, 0, 60, 0
2, 50760, Note_on_c, 0, 58, 80
2, 50879, Note_on_c, 0, 58, 0
2, 50880, Note_on_c, 0, 60, 80
2, 51359, Note_on_c, 0, 60, 0
2, 51480, Note_on_c, 0, 69, 80
2, 51599, Note_on_c, 0, 69, 0
2, 51600, Note_on_c, 0, 68, 80
2, 51719, Note_on_c, 0, 68, 0
2, 51720, Note_on_c, 0, 66, 80
2, 51839, Note_on_c, 0, 66, 0
2, 51840, Note_on_c, 0, 68, 80
2, 51959, Note_on_c, 0, 68, 0
2, 51960, Note_on_c, 0, 66, 80
2, 52079, Note_on_c, 0, 66, 0
2, 52080, Note_on_c, 0, 64, 80
2, 52199, Note_on_c, 0, 64, 0
2, 52200, Note_on_c, 0, 63, 80
2, 52319, Note_on_c, 0, 63, 0
2, 52320, Note_on_c, 0, 61, 80
2, 52559, Note_on_c, 0, 61, 0
2, 52920, Note_on_c, 0, 68, 80
2, 53039, Note_on_c, 0, 68, 0
2, 53040, Note_on_c, 0, 73, 80
2, 53159, Note_on_c, 0, 73, 0
2, 53160, Note_on_c, 0, 71, 80
2, 53279, Note_on_c, 0, 71, 0
2, 53280, Note_on_c, 0, 69, 80
2, 53399, Note_on_c, 0, 69, 0
2, 53400, Note_on_c, 0, 68, 80
2, 53519, Note_on_c, 0, 68, 0
2, 53520, Note_on_c, 0, 69, 80
2, 53639, Note_on_c, 0, 69, 0
2, 53640, Note_on_c, 0, 66, 80
2, 53759, Note_on_c, 0, 66, 0
2, 53760, Note_on_c, 0, 63, 80
2, 53999, Note_on_c, 0, 63, 0
2, 54720, Note_on_c, 0, 61, 80
2, 55199, Note_on_c, 0, 61, 0
2, 55200, Note_on_c, 0, 68, 80
2, 55559, Note_on_c, 0, 68, 0
2, 55560, Note_on_c, 0, 66, 80
2, 55679, Note_on_c, 0, 66, 0
2, 55680, Note_on_c, 0, 64, 80
2, 56039, Note_on_c, 0, 64, 0
2, 56040, Note_on_c, 0, 63, 80
2, 56159, Note_on_c, 0, 63, 0
2, 56160, Note_on_c, 0, 61, 80
2, 56639, Note_on_c, 0, 61, 0
2, 56640, Note_on_c, 0, 60, 80
2, 57119, Note_on_c, 0, 60, 0
2, 57120, Note_on_c, 0, 61, 80
2, 57479, Note_on_c, 0, 61, 0
2, 57480, Note_on_c, 0, 63, 80
2, 57599, Note_on_c, 0, 63, 0
2, 57600, Note_on_c, 0, 64, 80
2, 58199, Note_on_c, 0, 64, 0
2, 58200, Note_on_c, 0, 66, 80
2, 58319, Note_on_c, 0, 66, 0
2, 58320, Note_on_c, 0, 64, 80
2, 58439, Note_on_c, 0, 64, 0
2, 58440, Note_on_c, 0, 63, 80
2, 58559, Note_on_c, 0, 63, 0
2, 58560, Note_on_c, 0, 61, 80
2, 59039, Note_on_c, 0, 61, 0
2, 65280, Note_on_c, 0, 68, 80
2, 67199, Note_on_c, 0, 68, 0
2, 67200, Note_on_c, 0, 61, 80
2, 68639, Note_on_c, 0, 61, 0
2, 68640, Note_on_c, 0, 63, 80
2, 69119, Note_on_c, 0, 63, 0
2, 69120, Note_on_c, 0, 64, 80
2, 70559, Note_on_c, 0, 64, 0
2, 70560, Note_on_c, 0, 66, 80
2, 71039, Note_on_c, 0, 66, 0
2, 71040, Note_on_c, 0, 68, 80
2, 72959, Note_on_c, 0, 68, 0
2, 72960, Note_on_c, 0, 69, 80
2, 74879, Note_on_c, 0, 69, 0
2, 74880, Note_on_c, 0, 68, 80
2, 76319, Note_on_c, 0, 68, 0
2, 76320, Note_on_c, 0, 66, 80
2, 76799, Note_on_c, 0, 66, 0
2, 76800, Note_on_c, 0, 64, 80
2, 79199, Note_on_c, 0, 64, 0
2, 79200, Note_on_c, 0, 63, 80
2, 79679, Note_on_c, 0, 63, 0
2, 79680, Note_on_c, 0, 64, 80
2, 80159, Note_on_c, 0, 64, 0
2, 80160, Note_on_c, 0, 66, 80
2, 80639, Note_on_c, 0, 66, 0
2, 80640, Note_on_c, 0, 68, 80
2, 81119, Note_on_c, 0, 68, 0
2, 81120, Note_on_c, 0, 61, 80
2, 81479, Note_on_c, 0, 61, 0
2, 81480, Note_on_c, 0, 63, 80
2, 81599, Note_on_c, 0, 63, 0
2, 81600, Note_on_c, 0, 64, 80
2, 81959, Note_on_c, 0, 64, 0
2, 81960, Note_on_c, 0, 66, 80
2, 82079, Note_on_c, 0, 66, 0
2, 82080, Note_on_c, 0, 68, 80
2, 82559, Note_on_c, 0, 68, 0
2, 82560, Note_on_c, 0, 69, 80
2, 83039, Note_on_c, 0, 69, 0
2, 83040, Note_on_c, 0, 68, 80
2, 83399, Note_on_c, 0, 68, 0
2, 83400, Note_on_c, 0, 66, 80
2, 83519, Note_on_c, 0, 66, 0
2, 83520, Note_on_c, 0, 64, 80
2, 84119, Note_on_c, 0, 64, 0
2, 84120, Note_on_c, 0, 63, 80
2, 84239, Note_on_c, 0, 63, 0
2, 84240, Note_on_c, 0, 64, 80
2, 84359, Note_on_c, 0, 64, 0
2, 84360, Note_on_c, 0, 66, 80
2, 84479, Note_on_c, 0, 66, 0
2, 84480, Note_on_c, 0, 68, 80
2, 84959, Note_on_c, 0, 68, 0
2, 84960, Note_on_c, 0, 73, 80
2, 85319, Note_on_c, 0, 73, 0
2, 85320, Note_on_c, 0, 71, 80
2, 85439, Note_on_c, 0, 71, 0
2, 85440, Note_on_c, 0, 69, 80
2, 85799, Note_on_c, 0, 69, 0
2, 85800, Note_on_c, 0, 68, 80
2, 85919, Note_on_c, 0, 68, 0
2, 85920, Note_on_c, 0, 66, 80
2, 86399, Note_on_c, 0, 66, 0
2, 86400, Note_on_c, 0, 65, 80
2, 86879, Note_on_c, 0, 65, 0
2, 86880, Note_on_c, 0, 66, 80
2, 87239, Note_on_c, 0, 66, 0
2, 87240, Note_on_c, 0, 68, 80
2, 87359, Note_on_c, 0, 68, 0
2, 87360, Note_on_c, 0, 69, 80
2, 87959, Note_on_c, 0, 69, 0
2, 87960, Note_on_c, 0, 71, 80
2, 88079, Note_on_c, 0, 71, 0
2, 88080, Note_on_c, 0, 69, 80
2, 88199, Note_on_c, 0, 69, 0
2, 88200, Note_on_c, 0, 68, 80
2, 88319, Note_on_c, 0, 68, 0
2, 88320, Note_on_c, 0, 66, 80
2, 88919, Note_on_c, 0, 66, 0
2, 88920, Note_on_c, 0, 65, 80
2, 89039, Note_on_c, 0, 65, 0
2, 89040, Note_on_c, 0, 66, 80
2, 89159, Note_on_c, 0, 66, 0
2, 89160, Note_on_c, 0, 68, 80
2, 89279, Note_on_c, 0, 68, 0
2, 89280, Note_on_c, 0, 69, 80
2, 89399, Note_on_c, 0, 69, 0
2, 89400, Note_on_c, 0, 71, 80
2, 89519, Note_on_c, 0, 71, 0
2, 89520, Note_on_c, 0, 69, 80
2, 89639, Note_on_c, 0, 69, 0
2, 89640, Note_on_c, 0, 68, 80
2, 89759, Note_on_c, 0, 68, 0
2, 89760, Note_on_c, 0, 66, 80
2, 89879, Note_on_c, 0, 66, 0
2, 89880, Note_on_c, 0, 64, 80
2, 89999, Note_on_c, 0, 64, 0
2, 90000, Note_on_c, 0, 63, 80
2, 90119, Note_on_c, 0, 63, 0
2, 90120, Note_on_c, 0, 61, 80
2, 90239, Note_on_c, 0, 61, 0
2, 90240, Note_on_c, 0, 63, 80
2, 90839, Note_on_c, 0, 63, 0
2, 90840, Note_on_c, 0, 63, 80
2, 90959, Note_on_c, 0, 63, 0
2, 90960, Note_on_c, 0, 64, 80
2, 91079, Note_on_c, 0, 64, 0
2, 91080, Note_on_c, 0, 66, 80
2, 91199, Note_on_c, 0, 66, 0
2, 91200, Note_on_c, 0, 68, 80
2, 91439, Note_on_c, 0, 68, 0
2, 91440, Note_on_c, 0, 61, 80
2, 91919, Note_on_c, 0, 61, 0
2, 91920, Note_on_c, 0, 59, 80
2, 92039, Note_on_c, 0, 59, 0
2, 92040, Note_on_c, 0, 57, 80
2, 92159, Note_on_c, 0, 57, 0
2, 92160, Note_on_c, 0, 56, 80
2, 92279, Note_on_c, 0, 56, 0
2, 92280, Note_on_c, 0, 59, 80
2, 92399, Note_on_c, 0, 59, 0
2, 92400, Note_on_c, 0, 61, 80
2, 92519, Note_on_c, 0, 61, 0
2, 92520, Note_on_c, 0, 63, 80
2, 92639, Note_on_c, 0, 63, 0
2, 92640, Note_on_c, 0, 64, 80
2, 92759, Note_on_c, 0, 64, 0
2, 92760, Note_on_c, 0, 66, 80
2, 92879, Note_on_c, 0, 66, 0
2, 92880, Note_on_c, 0, 68, 80
2, 92999, Note_on_c, 0, 68, 0
2, 93000, Note_on_c, 0, 69, 80
2, 93119, Note_on_c, 0, 69, 0
2, 93120, Note_on_c, 0, 71, 80
2, 93359, Note_on_c, 0, 71, 0
2, 93360, Note_on_c, 0, 62, 80
2, 93719, Note_on_c, 0, 62, 0
2, 93720, Note_on_c, 0, 66, 80
2, 93839, Note_on_c, 0, 66, 0
2, 93840, Note_on_c, 0, 64, 80
2, 93959, Note_on_c, 0, 64, 0
2, 93960, Note_on_c, 0, 62, 80
2, 94079, Note_on_c, 0, 62, 0
2, 94080, Note_on_c, 0, 61, 80
2, 94559, Note_on_c, 0, 61, 0
2, 95160, Note_on_c, 0, 68, 80
2, 95279, Note_on_c, 0, 68, 0
2, 95280, Note_on_c, 0, 69, 80
2, 95399, Note_on_c, 0, 69, 0
2, 95400, Note_on_c, 0, 71, 80
2, 95519, Note_on_c, 0, 71, 0
2, 95520, Note_on_c, 0, 69, 80
2, 95639, Note_on_c, 0, 69, 0
2, 95640, Note_on_c, 0, 68, 80
2, 95759, Note_on_c, 0, 68, 0
2, 95760, Note_on_c, 0, 66, 80
2, 95879, Note_on_c, 0, 66, 0
2, 95880, Note_on_c, 0, 64, 80
2, 95999, Note_on_c, 0, 64, 0
2, 96000, Note_on_c, 0, 63, 80
2, 96239, Note_on_c, 0, 63, 0
2, 96240, Note_on_c, 0, 75, 80
2, 96479, Note_on_c, 0, 75, 0
2, 96480, Note_on_c, 0, 68, 80
2, 96839, Note_on_c, 0, 68, 0
2, 96840, Note_on_c, 0, 70, 80
2, 96959, Note_on_c, 0, 70, 0
2, 96960, Note_on_c, 0, 72, 80
2, 97319, Note_on_c, 0, 72, 0
2, 97320, Note_on_c, 0, 73, 80
2, 97439, Note_on_c, 0, 73, 0
2, 97440, Note_on_c, 0, 75, 80
2, 97919, Note_on_c, 0, 75, 0
2, 97920, Note_on_c, 0, 76, 80
2, 98399, Note_on_c, 0, 76, 0
2, 98400, Note_on_c, 0, 75, 80
2, 98759, Note_on_c, 0, 75, 0
2, 98760, Note_on_c, 0, 73, 80
2, 98879, Note_on_c, 0, 73, 0
2, 98880, Note_on_c, 0, 72, 80
2, 99479, Note_on_c, 0, 72, 0
2, 99480, Note_on_c, 0, 68, 80
2, 99599, Note_on_c, 0, 68, 0
2, 99600, Note_on_c, 0, 70, 80
2, 99719, Note_on_c, 0, 70, 0
2, 99720, Note_on_c, 0, 72, 80
2, 99839, Note_on_c, 0, 72, 0
2, 99840, Note_on_c, 0, 73, 80
2, 100319, Note_on_c, 0, 73, 0
2, 100320, Note_on_c, 0, 68, 80
2, 101039, Note_on_c, 0, 68, 0
2, 101040, Note_on_c, 0, 66, 80
2, 101159, Note_on_c, 0, 66, 0
2, 101160, Note_on_c, 0, 68, 80
2, 101279, Note_on_c, 0, 68, 0
2, 101280, Note_on_c, 0, 69, 80
2, 101519, Note_on_c, 0, 69, 0
2, 101520, Note_on_c, 0, 66, 80
2, 101879, Note_on_c, 0, 66, 0
2, 101880, Note_on_c, 0, 68, 80
2, 101999, Note_on_c, 0, 68, 0
2, 102000, Note_on_c, 0, 66, 80
2, 102119, Note_on_c, 0, 66, 0
2, 102120, Note_on_c, 0, 64, 80
2, 102239, Note_on_c, 0, 64, 0
2, 102240, Note_on_c, 0, 63, 80
2, 102359, Note_on_c, 0, 63, 0
2, 102360, Note_on_c, 0, 61, 80
2, 102479, Note_on_c, 0, 61, 0
2, 102480, Note_on_c, 0, 63, 80
2, 102599, Note_on_c, 0, 63, 0
2, 102600, Note_on_c, 0, 64, 80
2, 102719, Note_on_c, 0, 64, 0
2, 102720, Note_on_c, 0, 66, 80
2, 102959, Note_on_c, 0, 66, 0
2, 102960, Note_on_c, 0, 69, 80
2, 103199, Note_on_c, 0, 69, 0
2, 103200, Note_on_c, 0, 63, 80
2, 103679, Note_on_c, 0, 63, 0
2, 103680, Note_on_c, 0, 68, 80
2, 104039, Note_on_c, 0, 68, 0
2, 104040, Note_on_c, 0, 66, 80
2, 104159, Note_on_c, 0, 66, 0
2, 104160, Note_on_c, 0, 64, 80
2, 104519, Note_on_c, 0, 64, 0
2, 104520, Note_on_c, 0, 63, 80
2, 104639, Note_on_c, 0, 63, 0
2, 104640, Note_on_c, 0, 61, 80
2, 105119, Note_on_c, 0, 61, 0
2, 105120, Note_on_c, 0, 60, 80
2, 105599, Note_on_c, 0, 60, 0
2, 105600, Note_on_c, 0, 61, 80
2, 105959, Note_on_c, 0, 61, 0
2, 105960, Note_on_c, 0, 63, 80
2, 106079, Note_on_c, 0, 63, 0
2, 106080, Note_on_c, 0, 64, 80
2, 106679, Note_on_c, 0, 64, 0
2, 106680, Note_on_c, 0, 66, 80
2, 106799, Note_on_c, 0, 66, 0
2, 106800, Note_on_c, 0, 64, 80
2, 106919, Note_on_c, 0, 64, 0
2, 106920, Note_on_c, 0, 63, 80
2, 107039, Note_on_c, 0, 63, 0
2, 107040, Note_on_c, 0, 61, 80
2, 107759, Note_on_c, 0, 61, 0
2, 107760, Note_on_c, 0, 69, 80
2, 108239, Note_on_c, 0, 69, 0
2, 108240, Note_on_c, 0, 68, 80
2, 108359, Note_on_c, 0, 68, 0
2, 108360, Note_on_c, 0, 66, 80
2, 108479, Note_on_c, 0, 66, 0
2, 108480, Note_on_c, 0, 68, 80
2, 108719, Note_on_c, 0, 68, 0
2, 108720, Note_on_c, 0, 64, 80
2, 108959, Note_on_c, 0, 64, 0
2, 108960, Note_on_c, 0, 66, 80
2, 109199, Note_on_c, 0, 66, 0
2, 109200, Note_on_c, 0, 63, 80
2, 109439, Note_on_c, 0, 63, 0
2, 109440, Note_on_c, 0, 64, 80
2, 109679, Note_on_c, 0, 64, 0
2, 110160, Note_on_c, 0, 61, 80
2, 110639, Note_on_c, 0, 61, 0
2, 112080, Note_on_c, 0, 55, 80
2, 112319, Note_on_c, 0, 55, 0
2, 112320, Note_on_c, 0, 56, 80
2, 113279, Note_on_c, 0, 56, 0
2, 113280, Note_on_c, 0, 57, 80
2, 113879, Note_on_c, 0, 57, 0
2, 113880, Note_on_c, 0, 59, 80
2, 113999, Note_on_c, 0, 59, 0
2, 114000, Note_on_c, 0, 57, 80
2, 114119, Note_on_c, 0, 57, 0
2, 114120, Note_on_c, 0, 56, 80
2, 114239, Note_on_c, 0, 56, 0
2, 114240, Note_on_c, 0, 54, 80
2, 114359, Note_on_c, 0, 54, 0
2, 114360, Note_on_c, 0, 53, 80
2, 114479, Note_on_c, 0, 53, 0
2, 114480, Note_on_c, 0, 51, 80
2, 114599, Note_on_c, 0, 51, 0
2, 114600, Note_on_c, 0, 54, 80
2, 114719, Note_on_c, 0, 54, 0
2, 114720, Note_on_c, 0, 53, 80
2, 115199, Note_on_c, 0, 53, 0
2, 115200, Note_on_c, 0, 54, 80
2, 116159, Note_on_c, 0, 54, 0
2, 116160, Note_on_c, 0, 56, 80
2, 117119, Note_on_c, 0, 56, 0
2, 117120, End_track
3, 0, Start_track
3, 0, Key_signature, 4, "major"
3, 0, Program_c, 1, 46
3, 0, Note_on_c, 1, 61, 80
3, 2, Control_c, 1, 7, 100
3, 4, Control_c, 1, 10, 64
3, 6, Control_c, 1, 91, 30
3, 8, Control_c, 1, 93, 30
3, 479, Note_on_c, 1, 61, 0
3, 480, Note_on_c, 1, 68, 80
3, 839, Note_on_c, 1, 68, 0
3, 840, Note_on_c, 1, 66, 80
3, 959, Note_on_c, 1, 66, 0
3, 960, Note_on_c, 1, 64, 80
3, 1319, Note_on_c, 1, 64, 0
3, 1320, Note_on_c, 1, 63, 80
3, 1439, Note_on_c, 1, 63, 0
3, 1440, Note_on_c, 1, 61, 80
3, 1919, Note_on_c, 1, 61, 0
3, 1920, Note_on_c, 1, 60, 80
3, 2399, Note_on_c, 1, 60, 0
3, 2400, Note_on_c, 1, 61, 80
3, 2759, Note_on_c, 1, 61, 0
3, 2760, Note_on_c, 1, 63, 80
3, 2879, Note_on_c, 1, 63, 0
3, 2880, Note_on_c, 1, 64, 80
3, 3479, Note_on_c, 1, 64, 0
3, 3480, Note_on_c, 1, 66, 80
3, 3599, Note_on_c, 1, 66, 0
3, 3600, Note_on_c, 1, 64, 80
3, 3719, Note_on_c, 1, 64, 0
3, 3720, Note_on_c, 1, 63, 80
3, 3839, Note_on_c, 1, 63, 0
3, 3840, Note_on_c, 1, 61, 80
3, 3959, Note_on_c, 1, 61, 0
3, 3960, Note_on_c, 1, 60, 80
3, 4079, Note_on_c, 1, 60, 0
3, 4080, Note_on_c, 1, 61, 80
3, 4439, Note_on_c, 1, 61, 0
3, 4440, Note_on_c, 1, 61, 80
3, 4559, Note_on_c, 1, 61, 0
3, 4560, Note_on_c, 1, 59, 80
3, 4679, Note_on_c, 1, 59, 0
3, 4680, Note_on_c, 1, 58, 80
3, 4799, Note_on_c, 1, 58, 0
3, 4800, Note_on_c, 1, 56, 80
3, 4919, Note_on_c, 1, 56, 0
3, 4920, Note_on_c, 1, 55, 80
3, 5039, Note_on_c, 1, 55, 0
3, 5040, Note_on_c, 1, 56, 80
3, 5399, Note_on_c, 1, 56, 0
3, 5400, Note_on_c, 1, 56, 80
3, 5519, Note_on_c, 1, 56, 0
3, 5520, Note_on_c, 1, 58, 80
3, 5639, Note_on_c, 1, 58, 0
3, 5640, Note_on_c, 1, 60, 80
3, 5759, Note_on_c, 1, 60, 0
3, 5760, Note_on_c, 1, 61, 80
3, 5879, Note_on_c, 1, 61, 0
3, 5880, Note_on_c, 1, 59, 80
3, 5999, Note_on_c, 1, 59, 0
3, 6000, Note_on_c, 1, 57, 80
3, 6119, Note_on_c, 1, 57, 0
3, 6120, Note_on_c, 1, 56, 80
3, 6239, Note_on_c, 1, 56, 0
3, 6240, Note_on_c, 1, 54, 80
3, 6359, Note_on_c, 1, 54, 0
3, 6360, Note_on_c, 1, 53, 80
3, 6479, Note_on_c, 1, 53, 0
3, 6480, Note_on_c, 1, 54, 80
3, 6839, Note_on_c, 1, 54, 0
3, 6840, Note_on_c, 1, 57, 80
3, 6959, Note_on_c, 1, 57, 0
3, 6960, Note_on_c, 1, 56, 80
3, 7079, Note_on_c, 1, 56, 0
3, 7080, Note_on_c, 1, 54, 80
3, 7199, Note_on_c, 1, 54, 0
3, 7200, Note_on_c, 1, 52, 80
3, 7559, Note_on_c, 1, 52, 0
3, 7560, Note_on_c, 1, 51, 80
3, 7679, Note_on_c, 1, 51, 0
3, 7680, Note_on_c, 1, 49, 80
3, 8279, Note_on_c, 1, 49, 0
3, 8280, Note_on_c, 1, 56, 80
3, 8399, Note_on_c, 1, 56, 0
3, 8400, Note_on_c, 1, 58, 80
3, 8519, Note_on_c, 1, 58, 0
3, 8520, Note_on_c, 1, 60, 80
3, 8639, Note_on_c, 1, 60, 0
3, 8640, Note_on_c, 1, 61, 80
3, 9239, Note_on_c, 1, 61, 0
3, 9240, Note_on_c, 1, 56, 80
3, 9359, Note_on_c, 1, 56, 0
3, 9360, Note_on_c, 1, 54, 80
3, 9479, Note_on_c, 1, 54, 0
3, 9480, Note_on_c, 1, 52, 80
3, 9599, Note_on_c, 1, 52, 0
3, 9600, Note_on_c, 1, 51, 80
3, 10079, Note_on_c, 1, 51, 0
3, 10080, Note_on_c, 1, 56, 80
3, 10439, Note_on_c, 1, 56, 0
3, 10440, Note_on_c, 1, 54, 80
3, 10559, Note_on_c, 1, 54, 0
3, 10560, Note_on_c, 1, 52, 80
3, 10919, Note_on_c, 1, 52, 0
3, 10920, Note_on_c, 1, 51, 80
3, 11039, Note_on_c, 1, 51, 0
3, 11040, Note_on_c, 1, 49, 80
3, 11519, Note_on_c, 1, 49, 0
3, 11520, Note_on_c, 1, 47, 80
3, 11639, Note_on_c, 1, 47, 0
3, 11640, Note_on_c, 1, 49, 80
3, 11759, Note_on_c, 1, 49, 0
3, 11760, Note_on_c, 1, 51, 80
3, 12119, Note_on_c, 1, 51, 0
3, 12120, Note_on_c, 1, 51, 80
3, 12239, Note_on_c, 1, 51, 0
3, 12240, Note_on_c, 1, 53, 80
3, 12359, Note_on_c, 1, 53, 0
3, 12360, Note_on_c, 1, 55, 80
3, 12479, Note_on_c, 1, 55, 0
3, 12480, Note_on_c, 1, 56, 80
3, 12959, Note_on_c, 1, 56, 0
3, 13560, Note_on_c, 1, 58, 80
3, 13679, Note_on_c, 1, 58, 0
3, 13680, Note_on_c, 1, 63, 80
3, 13799, Note_on_c, 1, 63, 0
3, 13800, Note_on_c, 1, 61, 80
3, 13919, Note_on_c, 1, 61, 0
3, 13920, Note_on_c, 1, 59, 80
3, 14039, Note_on_c, 1, 59, 0
3, 14040, Note_on_c, 1, 58, 80
3, 14159, Note_on_c, 1, 58, 0
3, 14160, Note_on_c, 1, 56, 80
3, 14279, Note_on_c, 1, 56, 0
3, 14280, Note_on_c, 1, 55, 80
3, 14399, Note_on_c, 1, 55, 0
3, 14400, Note_on_c, 1, 56, 80
3, 14639, Note_on_c, 1, 56, 0
3, 15360, Note_on_c, 1, 56, 80
3, 15839, Note_on_c, 1, 56, 0
3, 15840, Note_on_c, 1, 49, 80
3, 16199, Note_on_c, 1, 49, 0
3, 16200, Note_on_c, 1, 51, 80
3, 16319, Note_on_c, 1, 51, 0
3, 16320, Note_on_c, 1, 52, 80
3, 16679, Note_on_c, 1, 52, 0
3, 16680, Note_on_c, 1, 54, 80
3, 16799, Note_on_c, 1, 54, 0
3, 16800, Note_on_c, 1, 56, 80
3, 17279, Note_on_c, 1, 56, 0
3, 17280, Note_on_c, 1, 57, 80
3, 17759, Note_on_c, 1, 57, 0
3, 17760, Note_on_c, 1, 56, 80
3, 18119, Note_on_c, 1, 56, 0
3, 18120, Note_on_c, 1, 54, 80
3, 18239, Note_on_c, 1, 54, 0
3, 18240, Note_on_c, 1, 52, 80
3, 18839, Note_on_c, 1, 52, 0
3, 18840, Note_on_c, 1, 51, 80
3, 18959, Note_on_c, 1, 51, 0
3, 18960, Note_on_c, 1, 52, 80
3, 19079, Note_on_c, 1, 52, 0
3, 19080, Note_on_c, 1, 54, 80
3, 19199, Note_on_c, 1, 54, 0
3, 19200, Note_on_c, 1, 56, 80
3, 19799, Note_on_c, 1, 56, 0
3, 19800, Note_on_c, 1, 54, 80
3, 19919, Note_on_c, 1, 54, 0
3, 19920, Note_on_c, 1, 56, 80
3, 20039, Note_on_c, 1, 56, 0
3, 20040, Note_on_c, 1, 57, 80
3, 20159, Note_on_c, 1, 57, 0
3, 20160, Note_on_c, 1, 59, 80
3, 20519, Note_on_c, 1, 59, 0
3, 20520, Note_on_c, 1, 54, 80
3, 20639, Note_on_c, 1, 54, 0
3, 20640, Note_on_c, 1, 59, 80
3, 20999, Note_on_c, 1, 59, 0
3, 21000, Note_on_c, 1, 57, 80
3, 21119, Note_on_c, 1, 57, 0
3, 21120, Note_on_c, 1, 56, 80
3, 21719, Note_on_c, 1, 56, 0
3, 21720, Note_on_c, 1, 49, 80
3, 21839, Note_on_c, 1, 49, 0
3, 21840, Note_on_c, 1, 51, 80
3, 21959, Note_on_c, 1, 51, 0
3, 21960, Note_on_c, 1, 53, 80
3, 22079, Note_on_c, 1, 53, 0
3, 22080, Note_on_c, 1, 54, 80
3, 22679, Note_on_c, 1, 54, 0
3, 22680, Note_on_c, 1, 53, 80
3, 22799, Note_on_c, 1, 53, 0
3, 22800, Note_on_c, 1, 54, 80
3, 22919, Note_on_c, 1, 54, 0
3, 22920, Note_on_c, 1, 56, 80
3, 23039, Note_on_c, 1, 56, 0
3, 23040, Note_on_c, 1, 57, 80
3, 23639, Note_on_c, 1, 57, 0
3, 23640, Note_on_c, 1, 56, 80
3, 23759, Note_on_c, 1, 56, 0
3, 23760, Note_on_c, 1, 57, 80
3, 23879, Note_on_c, 1, 57, 0
3, 23880, Note_on_c, 1, 59, 80
3, 23999, Note_on_c, 1, 59, 0
3, 24000, Note_on_c, 1, 61, 80
3, 24599, Note_on_c, 1, 61, 0
3, 24600, Note_on_c, 1, 59, 80
3, 24719, Note_on_c, 1, 59, 0
3, 24720, Note_on_c, 1, 57, 80
3, 24839, Note_on_c, 1, 57, 0
3, 24840, Note_on_c, 1, 56, 80
3, 24959, Note_on_c, 1, 56, 0
3, 24960, Note_on_c, 1, 54, 80
3, 25559, Note_on_c, 1, 54, 0
3, 25560, Note_on_c, 1, 54, 80
3, 25679, Note_on_c, 1, 54, 0
3, 25680, Note_on_c, 1, 56, 80
3, 25799, Note_on_c, 1, 56, 0
3, 25800, Note_on_c, 1, 57, 80
3, 25919, Note_on_c, 1, 57, 0
3, 25920, Note_on_c, 1, 56, 80
3, 26399, Note_on_c, 1, 56, 0
3, 30720, Note_on_c, 1, 57, 80
3, 31199, Note_on_c, 1, 57, 0
3, 31200, Note_on_c, 1, 64, 80
3, 31559, Note_on_c, 1, 64, 0
3, 31560, Note_on_c, 1, 62, 80
3, 31679, Note_on_c, 1, 62, 0
3, 31680, Note_on_c, 1, 61, 80
3, 32039, Note_on_c, 1, 61, 0
3, 32040, Note_on_c, 1, 59, 80
3, 32159, Note_on_c, 1, 59, 0
3, 32160, Note_on_c, 1, 57, 80
3, 32639, Note_on_c, 1, 57, 0
3, 32640, Note_on_c, 1, 56, 80
3, 33119, Note_on_c, 1, 56, 0
3, 33120, Note_on_c, 1, 57, 80
3, 33479, Note_on_c, 1, 57, 0
3, 33480, Note_on_c, 1, 59, 80
3, 33599, Note_on_c, 1, 59, 0
3, 33600, Note_on_c, 1, 61, 80
3, 34199, Note_on_c, 1, 61, 0
3, 34200, Note_on_c, 1, 62, 80
3, 34319, Note_on_c, 1, 62, 0
3, 34320, Note_on_c, 1, 61, 80
3, 34439, Note_on_c, 1, 61, 0
3, 34440, Note_on_c, 1, 59, 80
3, 34559, Note_on_c, 1, 59, 0
3, 34560, Note_on_c, 1, 58, 80
3, 34679, Note_on_c, 1, 58, 0
3, 34680, Note_on_c, 1, 61, 80
3, 34799, Note_on_c, 1, 61, 0
3, 34800, Note_on_c, 1, 62, 80
3, 34919, Note_on_c, 1, 62, 0
3, 34920, Note_on_c, 1, 64, 80
3, 35039, Note_on_c, 1, 64, 0
3, 35040, Note_on_c, 1, 66, 80
3, 35759, Note_on_c, 1, 66, 0
3, 35760, Note_on_c, 1, 61, 80
3, 36119, Note_on_c, 1, 61, 0
3, 36120, Note_on_c, 1, 61, 80
3, 36239, Note_on_c, 1, 61, 0
3, 36240, Note_on_c, 1, 59, 80
3, 36359, Note_on_c, 1, 59, 0
3, 36360, Note_on_c, 1, 57, 80
3, 36479, Note_on_c, 1, 57, 0
3, 36480, Note_on_c, 1, 59, 80
3, 36959, Note_on_c, 1, 59, 0
3, 36960, Note_on_c, 1, 64, 80
3, 37319, Note_on_c, 1, 64, 0
3, 37320, Note_on_c, 1, 62, 80
3, 37439, Note_on_c, 1, 62, 0
3, 37440, Note_on_c, 1, 61, 80
3, 37799, Note_on_c, 1, 61, 0
3, 37800, Note_on_c, 1, 59, 80
3, 37919, Note_on_c, 1, 59, 0
3, 37920, Note_on_c, 1, 57, 80
3, 38399, Note_on_c, 1, 57, 0
3, 38400, Note_on_c, 1, 56, 80
3, 39119, Note_on_c, 1, 56, 0
3, 39120, Note_on_c, 1, 57, 80
3, 39239, Note_on_c, 1, 57, 0
3, 39240, Note_on_c, 1, 59, 80
3, 39359, Note_on_c, 1, 59, 0
3, 39360, Note_on_c, 1, 61, 80
3, 39959, Note_on_c, 1, 61, 0
3, 39960, Note_on_c, 1, 62, 80
3, 40079, Note_on_c, 1, 62, 0
3, 40080, Note_on_c, 1, 61, 80
3, 40199, Note_on_c, 1, 61, 0
3, 40200, Note_on_c, 1, 59, 80
3, 40319, Note_on_c, 1, 59, 0
3, 40320, Note_on_c, 1, 57, 80
3, 40919, Note_on_c, 1, 57, 0
3, 40920, Note_on_c, 1, 57, 80
3, 41039, Note_on_c, 1, 57, 0
3, 41040, Note_on_c, 1, 56, 80
3, 41159, Note_on_c, 1, 56, 0
3, 41160, Note_on_c, 1, 54, 80
3, 41279, Note_on_c, 1, 54, 0
3, 41280, Note_on_c, 1, 52, 80
3, 41519, Note_on_c, 1, 52, 0
3, 41520, Note_on_c, 1, 57, 80
3, 41879, Note_on_c, 1, 57, 0
3, 41880, Note_on_c, 1, 57, 80
3, 41999, Note_on_c, 1, 57, 0
3, 42000, Note_on_c, 1, 56, 80
3, 42119, Note_on_c, 1, 56, 0
3, 42120, Note_on_c, 1, 54, 80
3, 42239, Note_on_c, 1, 54, 0
3, 42240, Note_on_c, 1, 56, 80
3, 42359, Note_on_c, 1, 56, 0
3, 42360, Note_on_c, 1, 54, 80
3, 42479, Note_on_c, 1, 54, 0
3, 42480, Note_on_c, 1, 52, 80
3, 42599, Note_on_c, 1, 52, 0
3, 42600, Note_on_c, 1, 51, 80
3, 42719, Note_on_c, 1, 51, 0
3, 42720, Note_on_c, 1, 52, 80
3, 44159, Note_on_c, 1, 52, 0
3, 44160, Note_on_c, 1, 59, 80
3, 45599, Note_on_c, 1, 59, 0
3, 45600, Note_on_c, 1, 57, 80
3, 46079, Note_on_c, 1, 57, 0
3, 46080, Note_on_c, 1, 56, 80
3, 47519, Note_on_c, 1, 56, 0
3, 47520, Note_on_c, 1, 54, 80
3, 47999, Note_on_c, 1, 54, 0
3, 48000, Note_on_c, 1, 52, 80
3, 49919, Note_on_c, 1, 52, 0
3, 49920, Note_on_c, 1, 51, 80
3, 51839, Note_on_c, 1, 51, 0
3, 51840, Note_on_c, 1, 52, 80
3, 53279, Note_on_c, 1, 52, 0
3, 53280, Note_on_c, 1, 54, 80
3, 53759, Note_on_c, 1, 54, 0
3, 53760, Note_on_c, 1, 56, 80
3, 56159, Note_on_c, 1, 56, 0
3, 56160, Note_on_c, 1, 57, 80
3, 56639, Note_on_c, 1, 57, 0
3, 56640, Note_on_c, 1, 56, 80
3, 57119, Note_on_c, 1, 56, 0
3, 57120, Note_on_c, 1, 54, 80
3, 57599, Note_on_c, 1, 54, 0
3, 57600, Note_on_c, 1, 52, 80
3, 58079, Note_on_c, 1, 52, 0
3, 58320, Note_on_c, 1, 54, 80
3, 58679, Note_on_c, 1, 54, 0
3, 58680, Note_on_c, 1, 56, 80
3, 58799, Note_on_c, 1, 56, 0
3, 58800, Note_on_c, 1, 54, 80
3, 58919, Note_on_c, 1, 54, 0
3, 58920, Note_on_c, 1, 52, 80
3, 59039, Note_on_c, 1, 52, 0
3, 59040, Note_on_c, 1, 51, 80
3, 59279, Note_on_c, 1, 51, 0
3, 59280, Note_on_c, 1, 56, 80
3, 59639, Note_on_c, 1, 56, 0
3, 59640, Note_on_c, 1, 57, 80
3, 59759, Note_on_c, 1, 57, 0
3, 59760, Note_on_c, 1, 56, 80
3, 59879, Note_on_c, 1, 56, 0
3, 59880, Note_on_c, 1, 54, 80
3, 59999, Note_on_c, 1, 54, 0
3, 60000, Note_on_c, 1, 52, 80
3, 60119, Note_on_c, 1, 52, 0
3, 60120, Note_on_c, 1, 56, 80
3, 60239, Note_on_c, 1, 56, 0
3, 60240, Note_on_c, 1, 61, 80
3, 60359, Note_on_c, 1, 61, 0
3, 60360, Note_on_c, 1, 59, 80
3, 60479, Note_on_c, 1, 59, 0
3, 60480, Note_on_c, 1, 57, 80
3, 60719, Note_on_c, 1, 57, 0
3, 60720, Note_on_c, 1, 58, 80
3, 60959, Note_on_c, 1, 58, 0
3, 60960, Note_on_c, 1, 59, 80
3, 61199, Note_on_c, 1, 59, 0
3, 61200, Note_on_c, 1, 60, 80
3, 61439, Note_on_c, 1, 60, 0
3, 61440, Note_on_c, 1, 61, 80
3, 61559, Note_on_c, 1, 61, 0
3, 61560, Note_on_c, 1, 59, 80
3, 61679, Note_on_c, 1, 59, 0
3, 61680, Note_on_c, 1, 58, 80
3, 61799, Note_on_c, 1, 58, 0
3, 61800, Note_on_c, 1, 56, 80
3, 61919, Note_on_c, 1, 56, 0
3, 61920, Note_on_c, 1, 58, 80
3, 62159, Note_on_c, 1, 58, 0
3, 62160, Note_on_c, 1, 57, 80
3, 62519, Note_on_c, 1, 57, 0
3, 62520, Note_on_c, 1, 61, 80
3, 62639, Note_on_c, 1, 61, 0
3, 62640, Note_on_c, 1, 59, 80
3, 62759, Note_on_c, 1, 59, 0
3, 62760, Note_on_c, 1, 57, 80
3, 62879, Note_on_c, 1, 57, 0
3, 62880, Note_on_c, 1, 56, 80
3, 63119, Note_on_c, 1, 56, 0
3, 63120, Note_on_c, 1, 68, 80
3, 63479, Note_on_c, 1, 68, 0
3, 63480, Note_on_c, 1, 68, 80
3, 63599, Note_on_c, 1, 68, 0
3, 63600, Note_on_c, 1, 66, 80
3, 63719, Note_on_c, 1, 66, 0
3, 63720, Note_on_c, 1, 64, 80
3, 63839, Note_on_c, 1, 64, 0
3, 63840, Note_on_c, 1, 63, 80
3, 64079, Note_on_c, 1, 63, 0
3, 64080, Note_on_c, 1, 62, 80
3, 64319, Note_on_c, 1, 62, 0
3, 64320, Note_on_c, 1, 61, 80
3, 64559, Note_on_c, 1, 61, 0
3, 64560, Note_on_c, 1, 60, 80
3, 64799, Note_on_c, 1, 60, 0
3, 64800, Note_on_c, 1, 61, 80
3, 65039, Note_on_c, 1, 61, 0
3, 65040, Note_on_c, 1, 66, 80
3, 65399, Note_on_c, 1, 66, 0
3, 65400, Note_on_c, 1, 64, 80
3, 65519, Note_on_c, 1, 64, 0
3, 65520, Note_on_c, 1, 63, 80
3, 65639, Note_on_c, 1, 63, 0
3, 65640, Note_on_c, 1, 61, 80
3, 65759, Note_on_c, 1, 61, 0
3, 65760, Note_on_c, 1, 60, 80
3, 65999, Note_on_c, 1, 60, 0
3, 66000, Note_on_c, 1, 63, 80
3, 66239, Note_on_c, 1, 63, 0
3, 66240, Note_on_c, 1, 56, 80
3, 66479, Note_on_c, 1, 56, 0
3, 66960, Note_on_c, 1, 48, 80
3, 67199, Note_on_c, 1, 48, 0
3, 67200, Note_on_c, 1, 49, 80
3, 67439, Note_on_c, 1, 49, 0
3, 68160, Note_on_c, 1, 49, 80
3, 69119, Note_on_c, 1, 49, 0
3, 69120, Note_on_c, 1, 56, 80
3, 69839, Note_on_c, 1, 56, 0
3, 69840, Note_on_c, 1, 54, 80
3, 70079, Note_on_c, 1, 54, 0
3, 70080, Note_on_c, 1, 52, 80
3, 70799, Note_on_c, 1, 52, 0
3, 70800, Note_on_c, 1, 51, 80
3, 71039, Note_on_c, 1, 51, 0
3, 71040, Note_on_c, 1, 49, 80
3, 71999, Note_on_c, 1, 49, 0
3, 72000, Note_on_c, 1, 48, 80
3, 72959, Note_on_c, 1, 48, 0
3, 72960, Note_on_c, 1, 49, 80
3, 73679, Note_on_c, 1, 49, 0
3, 73680, Note_on_c, 1, 51, 80
3, 73919, Note_on_c, 1, 51, 0
3, 73920, Note_on_c, 1, 52, 80
3, 75119, Note_on_c, 1, 52, 0
3, 75120, Note_on_c, 1, 54, 80
3, 75359, Note_on_c, 1, 54, 0
3, 75360, Note_on_c, 1, 52, 80
3, 75599, Note_on_c, 1, 52, 0
3, 75600, Note_on_c, 1, 51, 80
3, 75839, Note_on_c, 1, 51, 0
3, 75840, Note_on_c, 1, 49, 80
3, 77279, Note_on_c, 1, 49, 0
3, 77520, Note_on_c, 1, 48, 80
3, 77879, Note_on_c, 1, 48, 0
3, 77880, Note_on_c, 1, 51, 80
3, 77999, Note_on_c, 1, 51, 0
3, 78000, Note_on_c, 1, 49, 80
3, 78119, Note_on_c, 1, 49, 0
3, 78120, Note_on_c, 1, 48, 80
3, 78239, Note_on_c, 1, 48, 0
3, 78240, Note_on_c, 1, 49, 80
3, 78359, Note_on_c, 1, 49, 0
3, 78360, Note_on_c, 1, 51, 80
3, 78479, Note_on_c, 1, 51, 0
3, 78480, Note_on_c, 1, 52, 80
3, 78599, Note_on_c, 1, 52, 0
3, 78600, Note_on_c, 1, 54, 80
3, 78719, Note_on_c, 1, 54, 0
3, 78720, Note_on_c, 1, 56, 80
3, 78839, Note_on_c, 1, 56, 0
3, 78840, Note_on_c, 1, 54, 80
3, 78959, Note_on_c, 1, 54, 0
3, 78960, Note_on_c, 1, 52, 80
3, 79079, Note_on_c, 1, 52, 0
3, 79080, Note_on_c, 1, 54, 80
3, 79199, Note_on_c, 1, 54, 0
3, 79200, Note_on_c, 1, 56, 80
3, 79679, Note_on_c, 1, 56, 0
3, 79800, Note_on_c, 1, 62, 80
3, 79919, Note_on_c, 1, 62, 0
3, 79920, Note_on_c, 1, 61, 80
3, 80039, Note_on_c, 1, 61, 0
3, 80040, Note_on_c, 1, 59, 80
3, 80159, Note_on_c, 1, 59, 0
3, 80160, Note_on_c, 1, 57, 80
3, 80279, Note_on_c, 1, 57, 0
3, 80280, Note_on_c, 1, 56, 80
3, 80399, Note_on_c, 1, 56, 0
3, 80400, Note_on_c, 1, 54, 80
3, 80639, Note_on_c, 1, 54, 0
3, 80640, Note_on_c, 1, 61, 80
3, 81119, Note_on_c, 1, 61, 0
3, 81360, Note_on_c, 1, 61, 80
3, 81719, Note_on_c, 1, 61, 0
3, 81720, Note_on_c, 1, 60, 80
3, 81839, Note_on_c, 1, 60, 0
3, 81840, Note_on_c, 1, 61, 80
3, 81959, Note_on_c, 1, 61, 0
3, 81960, Note_on_c, 1, 63, 80
3, 82079, Note_on_c, 1, 63, 0
3, 82080, Note_on_c, 1, 64, 80
3, 82199, Note_on_c, 1, 64, 0
3, 82200, Note_on_c, 1, 66, 80
3, 82319, Note_on_c, 1, 66, 0
3, 82320, Note_on_c, 1, 64, 80
3, 82439, Note_on_c, 1, 64, 0
3, 82440, Note_on_c, 1, 63, 80
3, 82559, Note_on_c, 1, 63, 0
3, 82560, Note_on_c, 1, 61, 80
3, 83039, Note_on_c, 1, 61, 0
3, 83040, Note_on_c, 1, 59, 80
3, 84599, Note_on_c, 1, 59, 0
3, 84600, Note_on_c, 1, 62, 80
3, 84719, Note_on_c, 1, 62, 0
3, 84720, Note_on_c, 1, 61, 80
3, 84839, Note_on_c, 1, 61, 0
3, 84840, Note_on_c, 1, 59, 80
3, 84959, Note_on_c, 1, 59, 0
3, 84960, Note_on_c, 1, 57, 80
3, 85319, Note_on_c, 1, 57, 0
3, 85320, Note_on_c, 1, 56, 80
3, 85439, Note_on_c, 1, 56, 0
3, 85440, Note_on_c, 1, 54, 80
3, 85919, Note_on_c, 1, 54, 0
3, 86160, Note_on_c, 1, 62, 80
3, 86399, Note_on_c, 1, 62, 0
3, 86400, Note_on_c, 1, 56, 80
3, 86639, Note_on_c, 1, 56, 0
3, 86880, Note_on_c, 1, 61, 80
3, 87359, Note_on_c, 1, 61, 0
3, 87360, Note_on_c, 1, 54, 80
3, 87719, Note_on_c, 1, 54, 0
3, 87720, Note_on_c, 1, 56, 80
3, 87839, Note_on_c, 1, 56, 0
3, 87840, Note_on_c, 1, 57, 80
3, 88199, Note_on_c, 1, 57, 0
3, 88200, Note_on_c, 1, 59, 80
3, 88319, Note_on_c, 1, 59, 0
3, 88320, Note_on_c, 1, 61, 80
3, 88799, Note_on_c, 1, 61, 0
3, 88800, Note_on_c, 1, 62, 80
3, 89279, Note_on_c, 1, 62, 0
3, 89280, Note_on_c, 1, 61, 80
3, 89639, Note_on_c, 1, 61, 0
3, 89640, Note_on_c, 1, 59, 80
3, 89759, Note_on_c, 1, 59, 0
3, 89760, Note_on_c, 1, 57, 80
3, 90359, Note_on_c, 1, 57, 0
3, 90360, Note_on_c, 1, 54, 80
3, 90479, Note_on_c, 1, 54, 0
3, 90480, Note_on_c, 1, 56, 80
3, 90599, Note_on_c, 1, 56, 0
3, 90600, Note_on_c, 1, 57, 80
3, 90719, Note_on_c, 1, 57, 0
3, 90720, Note_on_c, 1, 59, 80
3, 91319, Note_on_c, 1, 59, 0
3, 91320, Note_on_c, 1, 59, 80
3, 91439, Note_on_c, 1, 59, 0
3, 91440, Note_on_c, 1, 57, 80
3, 91559, Note_on_c, 1, 57, 0
3, 91560, Note_on_c, 1, 56, 80
3, 91679, Note_on_c, 1, 56, 0
3, 91680, Note_on_c, 1, 54, 80
3, 91799, Note_on_c, 1, 54, 0
3, 91800, Note_on_c, 1, 52, 80
3, 91919, Note_on_c, 1, 52, 0
3, 91920, Note_on_c, 1, 51, 80
3, 92039, Note_on_c, 1, 51, 0
3, 92040, Note_on_c, 1, 49, 80
3, 92159, Note_on_c, 1, 49, 0
3, 92160, Note_on_c, 1, 47, 80
3, 92639, Note_on_c, 1, 47, 0
3, 93240, Note_on_c, 1, 61, 80
3, 93359, Note_on_c, 1, 61, 0
3, 93360, Note_on_c, 1, 59, 80
3, 93479, Note_on_c, 1, 59, 0
3, 93480, Note_on_c, 1, 57, 80
3, 93599, Note_on_c, 1, 57, 0
3, 93600, Note_on_c, 1, 56, 80
3, 94199, Note_on_c, 1, 56, 0
3, 94200, Note_on_c, 1, 49, 80
3, 94319, Note_on_c, 1, 49, 0
3, 94320, Note_on_c, 1, 51, 80
3, 94439, Note_on_c, 1, 51, 0
3, 94440, Note_on_c, 1, 53, 80
3, 94559, Note_on_c, 1, 53, 0
3, 94560, Note_on_c, 1, 54, 80
3, 94799, Note_on_c, 1, 54, 0
3, 95640, Note_on_c, 1, 64, 80
3, 95759, Note_on_c, 1, 64, 0
3, 95760, Note_on_c, 1, 63, 80
3, 95879, Note_on_c, 1, 63, 0
3, 95880, Note_on_c, 1, 61, 80
3, 95999, Note_on_c, 1, 61, 0
3, 96000, Note_on_c, 1, 60, 80
3, 96599, Note_on_c, 1, 60, 0
3, 96600, Note_on_c, 1, 56, 80
3, 96719, Note_on_c, 1, 56, 0
3, 96720, Note_on_c, 1, 61, 80
3, 96959, Note_on_c, 1, 61, 0
3, 96960, Note_on_c, 1, 63, 80
3, 97079, Note_on_c, 1, 63, 0
3, 97080, Note_on_c, 1, 64, 80
3, 97199, Note_on_c, 1, 64, 0
3, 97200, Note_on_c, 1, 63, 80
3, 97319, Note_on_c, 1, 63, 0
3, 97320, Note_on_c, 1, 61, 80
3, 97439, Note_on_c, 1, 61, 0
3, 97440, Note_on_c, 1, 60, 80
3, 97679, Note_on_c, 1, 60, 0
3, 98040, Note_on_c, 1, 56, 80
3, 98159, Note_on_c, 1, 56, 0
3, 98160, Note_on_c, 1, 58, 80
3, 98279, Note_on_c, 1, 58, 0
3, 98280, Note_on_c, 1, 60, 80
3, 98399, Note_on_c, 1, 60, 0
3, 98400, Note_on_c, 1, 61, 80
3, 98639, Note_on_c, 1, 61, 0
3, 99000, Note_on_c, 1, 58, 80
3, 99119, Note_on_c, 1, 58, 0
3, 99120, Note_on_c, 1, 60, 80
3, 99239, Note_on_c, 1, 60, 0
3, 99240, Note_on_c, 1, 61, 80
3, 99359, Note_on_c, 1, 61, 0
3, 99360, Note_on_c, 1, 63, 80
3, 99479, Note_on_c, 1, 63, 0
3, 99480, Note_on_c, 1, 64, 80
3, 99599, Note_on_c, 1, 64, 0
3, 99600, Note_on_c, 1, 66, 80
3, 99719, Note_on_c, 1, 66, 0
3, 99720, Note_on_c, 1, 68, 80
3, 99839, Note_on_c, 1, 68, 0
3, 99840, Note_on_c, 1, 64, 80
3, 100319, Note_on_c, 1, 64, 0
3, 100920, Note_on_c, 1, 49, 80
3, 101039, Note_on_c, 1, 49, 0
3, 101040, Note_on_c, 1, 51, 80
3, 101159, Note_on_c, 1, 51, 0
3, 101160, Note_on_c, 1, 53, 80
3, 101279, Note_on_c, 1, 53, 0
3, 101280, Note_on_c, 1, 54, 80
3, 101399, Note_on_c, 1, 54, 0
3, 101400, Note_on_c, 1, 56, 80
3, 101519, Note_on_c, 1, 56, 0
3, 101520, Note_on_c, 1, 57, 80
3, 101639, Note_on_c, 1, 57, 0
3, 101640, Note_on_c, 1, 54, 80
3, 101759, Note_on_c, 1, 54, 0
3, 101760, Note_on_c, 1, 56, 80
3, 101999, Note_on_c, 1, 56, 0
3, 102000, Note_on_c, 1, 51, 80
3, 102239, Note_on_c, 1, 51, 0
3, 102720, Note_on_c, 1, 57, 80
3, 102959, Note_on_c, 1, 57, 0
3, 102960, Note_on_c, 1, 54, 80
3, 103199, Note_on_c, 1, 54, 0
3, 103680, Note_on_c, 1, 56, 80
3, 104159, Note_on_c, 1, 56, 0
3, 104160, Note_on_c, 1, 61, 80
3, 104519, Note_on_c, 1, 61, 0
3, 104520, Note_on_c, 1, 59, 80
3, 104639, Note_on_c, 1, 59, 0
3, 104640, Note_on_c, 1, 57, 80
3, 104999, Note_on_c, 1, 57, 0
3, 105000, Note_on_c, 1, 56, 80
3, 105119, Note_on_c, 1, 56, 0
3, 105120, Note_on_c, 1, 54, 80
3, 105599, Note_on_c, 1, 54, 0
3, 105600, Note_on_c, 1, 52, 80
3, 106199, Note_on_c, 1, 52, 0
3, 106200, Note_on_c, 1, 52, 80
3, 106319, Note_on_c, 1, 52, 0
3, 106320, Note_on_c, 1, 54, 80
3, 106439, Note_on_c, 1, 54, 0
3, 106440, Note_on_c, 1, 56, 80
3, 106559, Note_on_c, 1, 56, 0
3, 106560, Note_on_c, 1, 57, 80
3, 107159, Note_on_c, 1, 57, 0
3, 107160, Note_on_c, 1, 59, 80
3, 107279, Note_on_c, 1, 59, 0
3, 107280, Note_on_c, 1, 57, 80
3, 107399, Note_on_c, 1, 57, 0
3, 107400, Note_on_c, 1, 56, 80
3, 107519, Note_on_c, 1, 56, 0
3, 107520, Note_on_c, 1, 54, 80
3, 107759, Note_on_c, 1, 54, 0
3, 108600, Note_on_c, 1, 46, 80
3, 108719, Note_on_c, 1, 46, 0
3, 108720, Note_on_c, 1, 48, 80
3, 108839, Note_on_c, 1, 48, 0
3, 108840, Note_on_c, 1, 49, 80
3, 108959, Note_on_c, 1, 49, 0
3, 108960, Note_on_c, 1, 51, 80
3, 109079, Note_on_c, 1, 51, 0
3, 109080, Note_on_c, 1, 52, 80
3, 109199, Note_on_c, 1, 52, 0
3, 109200, Note_on_c, 1, 54, 80
3, 109319, Note_on_c, 1, 54, 0
3, 109320, Note_on_c, 1, 51, 80
3, 109439, Note_on_c, 1, 51, 0
3, 109440, Note_on_c, 1, 56, 80
3, 109679, Note_on_c, 1, 56, 0
3, 110160, Note_on_c, 1, 52, 80
3, 110639, Note_on_c, 1, 52, 0
3, 112080, Note_on_c, 1, 49, 80
3, 112199, Note_on_c, 1, 49, 0
3, 112200, Note_on_c, 1, 51, 80
3, 112319, Note_on_c, 1, 51, 0
3, 112320, Note_on_c, 1, 52, 80
3, 112799, Note_on_c, 1, 52, 0
3, 112800, Note_on_c, 1, 51, 80
3, 113279, Note_on_c, 1, 51, 0
3, 113280, Note_on_c, 1, 49, 80
3, 113759, Note_on_c, 1, 49, 0
3, 114000, Note_on_c, 1, 61, 80
3, 114239, Note_on_c, 1, 61, 0
3, 114240, Note_on_c, 1, 63, 80
3, 114479, Note_on_c, 1, 63, 0
3, 114480, Note_on_c, 1, 66, 80
3, 114719, Note_on_c, 1, 66, 0
3, 114720, Note_on_c, 1, 61, 80
3, 114959, Note_on_c, 1, 61, 0
3, 114960, Note_on_c, 1, 56, 80
3, 115199, Note_on_c, 1, 56, 0
3, 115200, Note_on_c, 1, 57, 80
3, 115679, Note_on_c, 1, 57, 0
3, 115680, Note_on_c, 1, 51, 80
3, 116159, Note_on_c, 1, 51, 0
3, 116160, Note_on_c, 1, 49, 80
3, 117119, Note_on_c, 1, 49, 0
3, 117120, End_track
4, 0, Start_track
4, 0, Key_signature, 4, "major"
4, 7680, Note_on_c, 1, 49, 80
4, 9599, Note_on_c, 1, 49, 0
4, 9600, Note_on_c, 1, 44, 80
4, 11039, Note_on_c, 1, 44, 0
4, 11040, Note_on_c, 1, 46, 80
4, 11519, Note_on_c, 1, 46, 0
4, 11520, Note_on_c, 1, 47, 80
4, 12959, Note_on_c, 1, 47, 0
4, 12960, Note_on_c, 1, 49, 80
4, 13439, Note_on_c, 1, 49, 0
4, 13440, Note_on_c, 1, 51, 80
4, 15359, Note_on_c, 1, 51, 0
4, 15360, Note_on_c, 1, 52, 80
4, 17279, Note_on_c, 1, 52, 0
4, 17280, Note_on_c, 1, 51, 80
4, 18719, Note_on_c, 1, 51, 0
4, 18720, Note_on_c, 1, 49, 80
4, 19199, Note_on_c, 1, 49, 0
4, 19200, Note_on_c, 1, 47, 80
4, 21599, Note_on_c, 1, 47, 0
4, 21600, Note_on_c, 1, 44, 80
4, 22079, Note_on_c, 1, 44, 0
4, 22080, Note_on_c, 1, 45, 80
4, 22559, Note_on_c, 1, 45, 0
4, 22560, Note_on_c, 1, 47, 80
4, 23039, Note_on_c, 1, 47, 0
4, 23040, Note_on_c, 1, 49, 80
4, 23999, Note_on_c, 1, 49, 0
4, 25080, Note_on_c, 1, 42, 80
4, 25199, Note_on_c, 1, 42, 0
4, 25200, Note_on_c, 1, 44, 80
4, 25319, Note_on_c, 1, 44, 0
4, 25320, Note_on_c, 1, 45, 80
4, 25439, Note_on_c, 1, 45, 0
4, 25440, Note_on_c, 1, 47, 80
4, 26039, Note_on_c, 1, 47, 0
4, 26040, Note_on_c, 1, 44, 80
4, 26159, Note_on_c, 1, 44, 0
4, 26160, Note_on_c, 1, 49, 80
4, 26279, Note_on_c, 1, 49, 0
4, 26280, Note_on_c, 1, 47, 80
4, 26399, Note_on_c, 1, 47, 0
4, 26400, Note_on_c, 1, 45, 80
4, 26519, Note_on_c, 1, 45, 0
4, 26520, Note_on_c, 1, 44, 80
4, 26639, Note_on_c, 1, 44, 0
4, 26640, Note_on_c, 1, 42, 80
4, 26759, Note_on_c, 1, 42, 0
4, 26760, Note_on_c, 1, 41, 80
4, 26879, Note_on_c, 1, 41, 0
4, 26880, Note_on_c, 1, 42, 80
4, 26999, Note_on_c, 1, 42, 0
4, 27000, Note_on_c, 1, 45, 80
4, 27119, Note_on_c, 1, 45, 0
4, 27120, Note_on_c, 1, 47, 80
4, 27239, Note_on_c, 1, 47, 0
4, 27240, Note_on_c, 1, 49, 80
4, 27359, Note_on_c, 1, 49, 0
4, 27360, Note_on_c, 1, 50, 80
4, 27959, Note_on_c, 1, 50, 0
4, 27960, Note_on_c, 1, 50, 80
4, 28079, Note_on_c, 1, 50, 0
4, 28080, Note_on_c, 1, 49, 80
4, 28199, Note_on_c, 1, 49, 0
4, 28200, Note_on_c, 1, 47, 80
4, 28319, Note_on_c, 1, 47, 0
4, 28320, Note_on_c, 1, 47, 80
4, 28379, Note_on_c, 1, 47, 0
4, 28380, Note_on_c, 1, 46, 80
4, 28439, Note_on_c, 1, 46, 0
4, 28440, Note_on_c, 1, 47, 80
4, 28499, Note_on_c, 1, 47, 0
4, 28500, Note_on_c, 1, 46, 80
4, 28559, Note_on_c, 1, 46, 0
4, 28560, Note_on_c, 1, 47, 80
4, 28619, Note_on_c, 1, 47, 0
4, 28620, Note_on_c, 1, 46, 80
4, 28679, Note_on_c, 1, 46, 0
4, 28680, Note_on_c, 1, 44, 80
4, 28739, Note_on_c, 1, 44, 0
4, 28740, Note_on_c, 1, 46, 80
4, 28799, Note_on_c, 1, 46, 0
4, 28800, Note_on_c, 1, 47, 80
4, 29399, Note_on_c, 1, 47, 0
4, 29400, Note_on_c, 1, 49, 80
4, 29519, Note_on_c, 1, 49, 0
4, 29520, Note_on_c, 1, 50, 80
4, 29639, Note_on_c, 1, 50, 0
4, 29640, Note_on_c, 1, 52, 80
4, 29759, Note_on_c, 1, 52, 0
4, 29760, Note_on_c, 1, 54, 80
4, 30239, Note_on_c, 1, 54, 0
4, 30240, Note_on_c, 1, 52, 80
4, 30599, Note_on_c, 1, 52, 0
4, 30600, Note_on_c, 1, 50, 80
4, 30719, Note_on_c, 1, 50, 0
4, 30720, Note_on_c, 1, 49, 80
4, 31319, Note_on_c, 1, 49, 0
4, 31320, Note_on_c, 1, 50, 80
4, 31439, Note_on_c, 1, 50, 0
4, 31440, Note_on_c, 1, 49, 80
4, 31559, Note_on_c, 1, 49, 0
4, 31560, Note_on_c, 1, 47, 80
4, 31679, Note_on_c, 1, 47, 0
4, 31680, Note_on_c, 1, 45, 80
4, 31919, Note_on_c, 1, 45, 0
4, 31920, Note_on_c, 1, 49, 80
4, 32159, Note_on_c, 1, 49, 0
4, 32160, Note_on_c, 1, 42, 80
4, 32639, Note_on_c, 1, 42, 0
4, 32640, Note_on_c, 1, 40, 80
4, 32759, Note_on_c, 1, 40, 0
4, 32760, Note_on_c, 1, 44, 80
4, 32879, Note_on_c, 1, 44, 0
4, 32880, Note_on_c, 1, 45, 80
4, 32999, Note_on_c, 1, 45, 0
4, 33000, Note_on_c, 1, 47, 80
4, 33119, Note_on_c, 1, 47, 0
4, 33120, Note_on_c, 1, 49, 80
4, 33239, Note_on_c, 1, 49, 0
4, 33240, Note_on_c, 1, 47, 80
4, 33359, Note_on_c, 1, 47, 0
4, 33360, Note_on_c, 1, 49, 80
4, 33479, Note_on_c, 1, 49, 0
4, 33480, Note_on_c, 1, 50, 80
4, 33599, Note_on_c, 1, 50, 0
4, 33600, Note_on_c, 1, 52, 80
4, 35159, Note_on_c, 1, 52, 0
4, 35160, Note_on_c, 1, 50, 80
4, 35279, Note_on_c, 1, 50, 0
4, 35280, Note_on_c, 1, 49, 80
4, 35399, Note_on_c, 1, 49, 0
4, 35400, Note_on_c, 1, 47, 80
4, 35519, Note_on_c, 1, 47, 0
4, 35520, Note_on_c, 1, 54, 80
4, 36479, Note_on_c, 1, 54, 0
4, 36480, Note_on_c, 1, 52, 80
4, 36959, Note_on_c, 1, 52, 0
4, 37440, Note_on_c, 1, 52, 80
4, 37919, Note_on_c, 1, 52, 0
4, 37920, Note_on_c, 1, 45, 80
4, 38279, Note_on_c, 1, 45, 0
4, 38280, Note_on_c, 1, 47, 80
4, 38399, Note_on_c, 1, 47, 0
4, 38400, Note_on_c, 1, 49, 80
4, 38759, Note_on_c, 1, 49, 0
4, 38760, Note_on_c, 1, 50, 80
4, 38879, Note_on_c, 1, 50, 0
4, 38880, Note_on_c, 1, 52, 80
4, 39839, Note_on_c, 1, 52, 0
4, 39840, Note_on_c, 1, 54, 80
4, 40559, Note_on_c, 1, 54, 0
4, 40560, Note_on_c, 1, 52, 80
4, 40679, Note_on_c, 1, 52, 0
4, 40680, Note_on_c, 1, 50, 80
4, 40799, Note_on_c, 1, 50, 0
4, 40800, Note_on_c, 1, 49, 80
4, 41399, Note_on_c, 1, 49, 0
4, 41400, Note_on_c, 1, 47, 80
4, 41519, Note_on_c, 1, 47, 0
4, 41520, Note_on_c, 1, 49, 80
4, 41639, Note_on_c, 1, 49, 0
4, 41640, Note_on_c, 1, 51, 80
4, 41759, Note_on_c, 1, 51, 0
4, 41760, Note_on_c, 1, 52, 80
4, 42719, Note_on_c, 1, 52, 0
4, 42840, Note_on_c, 1, 45, 80
4, 42959, Note_on_c, 1, 45, 0
4, 42960, Note_on_c, 1, 44, 80
4, 43079, Note_on_c, 1, 44, 0
4, 43080, Note_on_c, 1, 42, 80
4, 43199, Note_on_c, 1, 42, 0
4, 43200, Note_on_c, 1, 40, 80
4, 43319, Note_on_c, 1, 40, 0
4, 43320, Note_on_c, 1, 44, 80
4, 43439, Note_on_c, 1, 44, 0
4, 43440, Note_on_c, 1, 45, 80
4, 43559, Note_on_c, 1, 45, 0
4, 43560, Note_on_c, 1, 47, 80
4, 43679, Note_on_c, 1, 47, 0
4, 43680, Note_on_c, 1, 49, 80
4, 44159, Note_on_c, 1, 49, 0
4, 44280, Note_on_c, 1, 35, 80
4, 44399, Note_on_c, 1, 35, 0
4, 44400, Note_on_c, 1, 47, 80
4, 44519, Note_on_c, 1, 47, 0
4, 44520, Note_on_c, 1, 45, 80
4, 44639, Note_on_c, 1, 45, 0
4, 44640, Note_on_c, 1, 44, 80
4, 44759, Note_on_c, 1, 44, 0
4, 44760, Note_on_c, 1, 42, 80
4, 44879, Note_on_c, 1, 42, 0
4, 44880, Note_on_c, 1, 40, 80
4, 44999, Note_on_c, 1, 40, 0
4, 45000, Note_on_c, 1, 39, 80
4, 45119, Note_on_c, 1, 39, 0
4, 45120, Note_on_c, 1, 40, 80
4, 45239, Note_on_c, 1, 40, 0
4, 45240, Note_on_c, 1, 47, 80
4, 45359, Note_on_c, 1, 47, 0
4, 45360, Note_on_c, 1, 52, 80
4, 45479, Note_on_c, 1, 52, 0
4, 45480, Note_on_c, 1, 51, 80
4, 45599, Note_on_c, 1, 51, 0
4, 45600, Note_on_c, 1, 49, 80
4, 46199, Note_on_c, 1, 49, 0
4, 46200, Note_on_c, 1, 49, 80
4, 46319, Note_on_c, 1, 49, 0
4, 46320, Note_on_c, 1, 47, 80
4, 46439, Note_on_c, 1, 47, 0
4, 46440, Note_on_c, 1, 45, 80
4, 46559, Note_on_c, 1, 45, 0
4, 46560, Note_on_c, 1, 44, 80
4, 46919, Note_on_c, 1, 44, 0
4, 46920, Note_on_c, 1, 44, 80
4, 47039, Note_on_c, 1, 44, 0
4, 47040, Note_on_c, 1, 45, 80
4, 47399, Note_on_c, 1, 45, 0
4, 47400, Note_on_c, 1, 46, 80
4, 47519, Note_on_c, 1, 46, 0
4, 47520, Note_on_c, 1, 47, 80
4, 47879, Note_on_c, 1, 47, 0
4, 47880, Note_on_c, 1, 48, 80
4, 47999, Note_on_c, 1, 48, 0
4, 48000, Note_on_c, 1, 49, 80
4, 48359, Note_on_c, 1, 49, 0
4, 48360, Note_on_c, 1, 51, 80
4, 48479, Note_on_c, 1, 51, 0
4, 48480, Note_on_c, 1, 52, 80
4, 48839, Note_on_c, 1, 52, 0
4, 48840, Note_on_c, 1, 54, 80
4, 48959, Note_on_c, 1, 54, 0
4, 48960, Note_on_c, 1, 56, 80
4, 49319, Note_on_c, 1, 56, 0
4, 49320, Note_on_c, 1, 57, 80
4, 49439, Note_on_c, 1, 57, 0
4, 49440, Note_on_c, 1, 59, 80
4, 49799, Note_on_c, 1, 59, 0
4, 49800, Note_on_c, 1, 61, 80
4, 49919, Note_on_c, 1, 61, 0
4, 49920, Note_on_c, 1, 54, 80
4, 50159, Note_on_c, 1, 54, 0
4, 51840, Note_on_c, 1, 49, 80
4, 52319, Note_on_c, 1, 49, 0
4, 52320, Note_on_c, 1, 56, 80
4, 52679, Note_on_c, 1, 56, 0
4, 52680, Note_on_c, 1, 54, 80
4, 52799, Note_on_c, 1, 54, 0
4, 52800, Note_on_c, 1, 52, 80
4, 53159, Note_on_c, 1, 52, 0
4, 53160, Note_on_c, 1, 51, 80
4, 53279, Note_on_c, 1, 51, 0
4, 53280, Note_on_c, 1, 49, 80
4, 53759, Note_on_c, 1, 49, 0
4, 53760, Note_on_c, 1, 48, 80
4, 54239, Note_on_c, 1, 48, 0
4, 54240, Note_on_c, 1, 49, 80
4, 54599, Note_on_c, 1, 49, 0
4, 54600, Note_on_c, 1, 51, 80
4, 54719, Note_on_c, 1, 51, 0
4, 54720, Note_on_c, 1, 52, 80
4, 55319, Note_on_c, 1, 52, 0
4, 55320, Note_on_c, 1, 54, 80
4, 55439, Note_on_c, 1, 54, 0
4, 55440, Note_on_c, 1, 52, 80
4, 55559, Note_on_c, 1, 52, 0
4, 55560, Note_on_c, 1, 51, 80
4, 55679, Note_on_c, 1, 51, 0
4, 55680, Note_on_c, 1, 49, 80
4, 56159, Note_on_c, 1, 49, 0
4, 56400, Note_on_c, 1, 54, 80
4, 56879, Note_on_c, 1, 54, 0
4, 56880, Note_on_c, 1, 52, 80
4, 57359, Note_on_c, 1, 52, 0
4, 57360, Note_on_c, 1, 51, 80
4, 57839, Note_on_c, 1, 51, 0
4, 57840, Note_on_c, 1, 49, 80
4, 57959, Note_on_c, 1, 49, 0
4, 57960, Note_on_c, 1, 47, 80
4, 58079, Note_on_c, 1, 47, 0
4, 58080, Note_on_c, 1, 46, 80
4, 58439, Note_on_c, 1, 46, 0
4, 58440, Note_on_c, 1, 48, 80
4, 58559, Note_on_c, 1, 48, 0
4, 58560, Note_on_c, 1, 49, 80
4, 58799, Note_on_c, 1, 49, 0
4, 58800, Note_on_c, 1, 46, 80
4, 59039, Note_on_c, 1, 46, 0
4, 59040, Note_on_c, 1, 42, 80
4, 59279, Note_on_c, 1, 42, 0
4, 59280, Note_on_c, 1, 44, 80
4, 59519, Note_on_c, 1, 44, 0
4, 59520, Note_on_c, 1, 49, 80
4, 59759, Note_on_c, 1, 49, 0
4, 59760, Note_on_c, 1, 51, 80
4, 59999, Note_on_c, 1, 51, 0
4, 60000, Note_on_c, 1, 52, 80
4, 60599, Note_on_c, 1, 52, 0
4, 60600, Note_on_c, 1, 56, 80
4, 60719, Note_on_c, 1, 56, 0
4, 60720, Note_on_c, 1, 54, 80
4, 60839, Note_on_c, 1, 54, 0
4, 60840, Note_on_c, 1, 52, 80
4, 60959, Note_on_c, 1, 52, 0
4, 60960, Note_on_c, 1, 51, 80
4, 61199, Note_on_c, 1, 51, 0
4, 61200, Note_on_c, 1, 56, 80
4, 61439, Note_on_c, 1, 56, 0
4, 61440, Note_on_c, 1, 49, 80
4, 61679, Note_on_c, 1, 49, 0
4, 61920, Note_on_c, 1, 54, 80
4, 62159, Note_on_c, 1, 54, 0
4, 62400, Note_on_c, 1, 47, 80
4, 62639, Note_on_c, 1, 47, 0
4, 62880, Note_on_c, 1, 52, 80
4, 63119, Note_on_c, 1, 52, 0
4, 63360, Note_on_c, 1, 45, 80
4, 63599, Note_on_c, 1, 45, 0
4, 63600, Note_on_c, 1, 57, 80
4, 63959, Note_on_c, 1, 57, 0
4, 63960, Note_on_c, 1, 56, 80
4, 64079, Note_on_c, 1, 56, 0
4, 64080, Note_on_c, 1, 54, 80
4, 64199, Note_on_c, 1, 54, 0
4, 64200, Note_on_c, 1, 53, 80
4, 64319, Note_on_c, 1, 53, 0
4, 64320, Note_on_c, 1, 54, 80
4, 64559, Note_on_c, 1, 54, 0
4, 64560, Note_on_c, 1, 56, 80
4, 64799, Note_on_c, 1, 56, 0
4, 64800, Note_on_c, 1, 57, 80
4, 65039, Note_on_c, 1, 57, 0
4, 65040, Note_on_c, 1, 54, 80
4, 65279, Note_on_c, 1, 54, 0
4, 65280, Note_on_c, 1, 56, 80
4, 65879, Note_on_c, 1, 56, 0
4, 65880, Note_on_c, 1, 57, 80
4, 65999, Note_on_c, 1, 57, 0
4, 66000, Note_on_c, 1, 56, 80
4, 66119, Note_on_c, 1, 56, 0
4, 66120, Note_on_c, 1, 54, 80
4, 66239, Note_on_c, 1, 54, 0
4, 66240, Note_on_c, 1, 52, 80
4, 66599, Note_on_c, 1, 52, 0
4, 66600, Note_on_c, 1, 54, 80
4, 66719, Note_on_c, 1, 54, 0
4, 66720, Note_on_c, 1, 56, 80
4, 66959, Note_on_c, 1, 56, 0
4, 67320, Note_on_c, 1, 45, 80
4, 67439, Note_on_c, 1, 45, 0
4, 67440, Note_on_c, 1, 44, 80
4, 67559, Note_on_c, 1, 44, 0
4, 67560, Note_on_c, 1, 42, 80
4, 67679, Note_on_c, 1, 42, 0
4, 67680, Note_on_c, 1, 40, 80
4, 67799, Note_on_c, 1, 40, 0
4, 67800, Note_on_c, 1, 39, 80
4, 67919, Note_on_c, 1, 39, 0
4, 67920, Note_on_c, 1, 37, 80
4, 68039, Note_on_c, 1, 37, 0
4, 68040, Note_on_c, 1, 36, 80
4, 68159, Note_on_c, 1, 36, 0
4, 68160, Note_on_c, 1, 37, 80
4, 68639, Note_on_c, 1, 37, 0
4, 68760, Note_on_c, 1, 54, 80
4, 68879, Note_on_c, 1, 54, 0
4, 68880, Note_on_c, 1, 52, 80
4, 68999, Note_on_c, 1, 52, 0
4, 69000, Note_on_c, 1, 51, 80
4, 69119, Note_on_c, 1, 51, 0
4, 69120, Note_on_c, 1, 49, 80
4, 69239, Note_on_c, 1, 49, 0
4, 69240, Note_on_c, 1, 48, 80
4, 69359, Note_on_c, 1, 48, 0
4, 69360, Note_on_c, 1, 49, 80
4, 69479, Note_on_c, 1, 49, 0
4, 69480, Note_on_c, 1, 51, 80
4, 69599, Note_on_c, 1, 51, 0
4, 69600, Note_on_c, 1, 52, 80
4, 70079, Note_on_c, 1, 52, 0
4, 70200, Note_on_c, 1, 40, 80
4, 70319, Note_on_c, 1, 40, 0
4, 70320, Note_on_c, 1, 42, 80
4, 70439, Note_on_c, 1, 42, 0
4, 70440, Note_on_c, 1, 44, 80
4, 70559, Note_on_c, 1, 44, 0
4, 70560, Note_on_c, 1, 45, 80
4, 70799, Note_on_c, 1, 45, 0
4, 70800, Note_on_c, 1, 42, 80
4, 71039, Note_on_c, 1, 42, 0
4, 71040, Note_on_c, 1, 49, 80
4, 71159, Note_on_c, 1, 49, 0
4, 71160, Note_on_c, 1, 37, 80
4, 71279, Note_on_c, 1, 37, 0
4, 71280, Note_on_c, 1, 49, 80
4, 71399, Note_on_c, 1, 49, 0
4, 71400, Note_on_c, 1, 51, 80
4, 71519, Note_on_c, 1, 51, 0
4, 71520, Note_on_c, 1, 52, 80
4, 71639, Note_on_c, 1, 52, 0
4, 71640, Note_on_c, 1, 56, 80
4, 71759, Note_on_c, 1, 56, 0
4, 71760, Note_on_c, 1, 54, 80
4, 71879, Note_on_c, 1, 54, 0
4, 71880, Note_on_c, 1, 52, 80
4, 71999, Note_on_c, 1, 52, 0
4, 72000, Note_on_c, 1, 51, 80
4, 72119, Note_on_c, 1, 51, 0
4, 72120, Note_on_c, 1, 49, 80
4, 72239, Note_on_c, 1, 49, 0
4, 72240, Note_on_c, 1, 51, 80
4, 72359, Note_on_c, 1, 51, 0
4, 72360, Note_on_c, 1, 52, 80
4, 72479, Note_on_c, 1, 52, 0
4, 72480, Note_on_c, 1, 51, 80
4, 72599, Note_on_c, 1, 51, 0
4, 72600, Note_on_c, 1, 52, 80
4, 72719, Note_on_c, 1, 52, 0
4, 72720, Note_on_c, 1, 49, 80
4, 72839, Note_on_c, 1, 49, 0
4, 72840, Note_on_c, 1, 51, 80
4, 72959, Note_on_c, 1, 51, 0
4, 72960, Note_on_c, 1, 52, 80
4, 73079, Note_on_c, 1, 52, 0
4, 73080, Note_on_c, 1, 51, 80
4, 73199, Note_on_c, 1, 51, 0
4, 73200, Note_on_c, 1, 52, 80
4, 73319, Note_on_c, 1, 52, 0
4, 73320, Note_on_c, 1, 54, 80
4, 73439, Note_on_c, 1, 54, 0
4, 73440, Note_on_c, 1, 52, 80
4, 73559, Note_on_c, 1, 52, 0
4, 73560, Note_on_c, 1, 51, 80
4, 73679, Note_on_c, 1, 51, 0
4, 73680, Note_on_c, 1, 49, 80
4, 73799, Note_on_c, 1, 49, 0
4, 73800, Note_on_c, 1, 48, 80
4, 73919, Note_on_c, 1, 48, 0
4, 73920, Note_on_c, 1, 49, 80
4, 74039, Note_on_c, 1, 49, 0
4, 74040, Note_on_c, 1, 47, 80
4, 74159, Note_on_c, 1, 47, 0
4, 74160, Note_on_c, 1, 45, 80
4, 74279, Note_on_c, 1, 45, 0
4, 74280, Note_on_c, 1, 44, 80
4, 74399, Note_on_c, 1, 44, 0
4, 74400, Note_on_c, 1, 42, 80
4, 74519, Note_on_c, 1, 42, 0
4, 74520, Note_on_c, 1, 44, 80
4, 74639, Note_on_c, 1, 44, 0
4, 74640, Note_on_c, 1, 45, 80
4, 74759, Note_on_c, 1, 45, 0
4, 74760, Note_on_c, 1, 42, 80
4, 74879, Note_on_c, 1, 42, 0
4, 74880, Note_on_c, 1, 44, 80
4, 74999, Note_on_c, 1, 44, 0
4, 75000, Note_on_c, 1, 42, 80
4, 75119, Note_on_c, 1, 42, 0
4, 75120, Note_on_c, 1, 44, 80
4, 75239, Note_on_c, 1, 44, 0
4, 75240, Note_on_c, 1, 45, 80
4, 75359, Note_on_c, 1, 45, 0
4, 75360, Note_on_c, 1, 44, 80
4, 75479, Note_on_c, 1, 44, 0
4, 75480, Note_on_c, 1, 56, 80
4, 75599, Note_on_c, 1, 56, 0
4, 75600, Note_on_c, 1, 54, 80
4, 75719, Note_on_c, 1, 54, 0
4, 75720, Note_on_c, 1, 56, 80
4, 75839, Note_on_c, 1, 56, 0
4, 75840, Note_on_c, 1, 52, 80
4, 75959, Note_on_c, 1, 52, 0
4, 75960, Note_on_c, 1, 56, 80
4, 76079, Note_on_c, 1, 56, 0
4, 76080, Note_on_c, 1, 61, 80
4, 76199, Note_on_c, 1, 61, 0
4, 76200, Note_on_c, 1, 59, 80
4, 76319, Note_on_c, 1, 59, 0
4, 76320, Note_on_c, 1, 57, 80
4, 76439, Note_on_c, 1, 57, 0
4, 76440, Note_on_c, 1, 56, 80
4, 76559, Note_on_c, 1, 56, 0
4, 76560, Note_on_c, 1, 54, 80
4, 76679, Note_on_c, 1, 54, 0
4, 76680, Note_on_c, 1, 57, 80
4, 76799, Note_on_c, 1, 57, 0
4, 76800, Note_on_c, 1, 56, 80
4, 76919, Note_on_c, 1, 56, 0
4, 76920, Note_on_c, 1, 54, 80
4, 77039, Note_on_c, 1, 54, 0
4, 77040, Note_on_c, 1, 52, 80
4, 77159, Note_on_c, 1, 52, 0
4, 77160, Note_on_c, 1, 51, 80
4, 77279, Note_on_c, 1, 51, 0
4, 77280, Note_on_c, 1, 49, 80
4, 77399, Note_on_c, 1, 49, 0
4, 77400, Note_on_c, 1, 47, 80
4, 77519, Note_on_c, 1, 47, 0
4, 77520, Note_on_c, 1, 45, 80
4, 77639, Note_on_c, 1, 45, 0
4, 77640, Note_on_c, 1, 44, 80
4, 77759, Note_on_c, 1, 44, 0
4, 77760, Note_on_c, 1, 45, 80
4, 78239, Note_on_c, 1, 45, 0
4, 78240, Note_on_c, 1, 44, 80
4, 79199, Note_on_c, 1, 44, 0
4, 80760, Note_on_c, 1, 57, 80
4, 80879, Note_on_c, 1, 57, 0
4, 80880, Note_on_c, 1, 56, 80
4, 80999, Note_on_c, 1, 56, 0
4, 81000, Note_on_c, 1, 54, 80
4, 81119, Note_on_c, 1, 54, 0
4, 81120, Note_on_c, 1, 52, 80
4, 81239, Note_on_c, 1, 52, 0
4, 81240, Note_on_c, 1, 51, 80
4, 81359, Note_on_c, 1, 51, 0
4, 81360, Note_on_c, 1, 49, 80
4, 81599, Note_on_c, 1, 49, 0
4, 82680, Note_on_c, 1, 54, 80
4, 82799, Note_on_c, 1, 54, 0
4, 82800, Note_on_c, 1, 56, 80
4, 82919, Note_on_c, 1, 56, 0
4, 82920, Note_on_c, 1, 57, 80
4, 83039, Note_on_c, 1, 57, 0
4, 83040, Note_on_c, 1, 59, 80
4, 83279, Note_on_c, 1, 59, 0
4, 83280, Note_on_c, 1, 47, 80
4, 83519, Note_on_c, 1, 47, 0
4, 83520, Note_on_c, 1, 52, 80
4, 83759, Note_on_c, 1, 52, 0
4, 83760, Note_on_c, 1, 54, 80
4, 83999, Note_on_c, 1, 54, 0
4, 84000, Note_on_c, 1, 56, 80
4, 84239, Note_on_c, 1, 56, 0
4, 84240, Note_on_c, 1, 54, 80
4, 84479, Note_on_c, 1, 54, 0
4, 84480, Note_on_c, 1, 53, 80
4, 84959, Note_on_c, 1, 53, 0
4, 85080, Note_on_c, 1, 49, 80
4, 85199, Note_on_c, 1, 49, 0
4, 85200, Note_on_c, 1, 51, 80
4, 85319, Note_on_c, 1, 51, 0
4, 85320, Note_on_c, 1, 53, 80
4, 85439, Note_on_c, 1, 53, 0
4, 85440, Note_on_c, 1, 54, 80
4, 85559, Note_on_c, 1, 54, 0
4, 85560, Note_on_c, 1, 49, 80
4, 85679, Note_on_c, 1, 49, 0
4, 85680, Note_on_c, 1, 54, 80
4, 85799, Note_on_c, 1, 54, 0
4, 85800, Note_on_c, 1, 52, 80
4, 85919, Note_on_c, 1, 52, 0
4, 85920, Note_on_c, 1, 50, 80
4, 86039, Note_on_c, 1, 50, 0
4, 86040, Note_on_c, 1, 49, 80
4, 86159, Note_on_c, 1, 49, 0
4, 86160, Note_on_c, 1, 47, 80
4, 86279, Note_on_c, 1, 47, 0
4, 86280, Note_on_c, 1, 45, 80
4, 86399, Note_on_c, 1, 45, 0
4, 86400, Note_on_c, 1, 47, 80
4, 86519, Note_on_c, 1, 47, 0
4, 86520, Note_on_c, 1, 50, 80
4, 86639, Note_on_c, 1, 50, 0
4, 86640, Note_on_c, 1, 49, 80
4, 86759, Note_on_c, 1, 49, 0
4, 86760, Note_on_c, 1, 47, 80
4, 86879, Note_on_c, 1, 47, 0
4, 86880, Note_on_c, 1, 45, 80
4, 86999, Note_on_c, 1, 45, 0
4, 87000, Note_on_c, 1, 44, 80
4, 87119, Note_on_c, 1, 44, 0
4, 87120, Note_on_c, 1, 42, 80
4, 87239, Note_on_c, 1, 42, 0
4, 87240, Note_on_c, 1, 41, 80
4, 87359, Note_on_c, 1, 41, 0
4, 87360, Note_on_c, 1, 42, 80
4, 87479, Note_on_c, 1, 42, 0
4, 87480, Note_on_c, 1, 49, 80
4, 87599, Note_on_c, 1, 49, 0
4, 87600, Note_on_c, 1, 54, 80
4, 87959, Note_on_c, 1, 54, 0
4, 87960, Note_on_c, 1, 53, 80
4, 88079, Note_on_c, 1, 53, 0
4, 88080, Note_on_c, 1, 54, 80
4, 88199, Note_on_c, 1, 54, 0
4, 88200, Note_on_c, 1, 56, 80
4, 88319, Note_on_c, 1, 56, 0
4, 88320, Note_on_c, 1, 57, 80
4, 88439, Note_on_c, 1, 57, 0
4, 88440, Note_on_c, 1, 54, 80
4, 88559, Note_on_c, 1, 54, 0
4, 88560, Note_on_c, 1, 56, 80
4, 88679, Note_on_c, 1, 56, 0
4, 88680, Note_on_c, 1, 57, 80
4, 88799, Note_on_c, 1, 57, 0
4, 88800, Note_on_c, 1, 59, 80
4, 89039, Note_on_c, 1, 59, 0
4, 89040, Note_on_c, 1, 47, 80
4, 89279, Note_on_c, 1, 47, 0
4, 89280, Note_on_c, 1, 54, 80
4, 89759, Note_on_c, 1, 54, 0
4, 90000, Note_on_c, 1, 42, 80
4, 90239, Note_on_c, 1, 42, 0
4, 90240, Note_on_c, 1, 47, 80
4, 90599, Note_on_c, 1, 47, 0
4, 90600, Note_on_c, 1, 45, 80
4, 90719, Note_on_c, 1, 45, 0
4, 90720, Note_on_c, 1, 44, 80
4, 91079, Note_on_c, 1, 44, 0
4, 91080, Note_on_c, 1, 42, 80
4, 91199, Note_on_c, 1, 42, 0
4, 91200, Note_on_c, 1, 40, 80
4, 91679, Note_on_c, 1, 40, 0
4, 91680, Note_on_c, 1, 39, 80
4, 92159, Note_on_c, 1, 39, 0
4, 92160, Note_on_c, 1, 40, 80
4, 92519, Note_on_c, 1, 40, 0
4, 92520, Note_on_c, 1, 42, 80
4, 92639, Note_on_c, 1, 42, 0
4, 92640, Note_on_c, 1, 44, 80
4, 93239, Note_on_c, 1, 44, 0
4, 93240, Note_on_c, 1, 45, 80
4, 93359, Note_on_c, 1, 45, 0
4, 93360, Note_on_c, 1, 44, 80
4, 93479, Note_on_c, 1, 44, 0
4, 93480, Note_on_c, 1, 42, 80
4, 93599, Note_on_c, 1, 42, 0
4, 93600, Note_on_c, 1, 40, 80
4, 93719, Note_on_c, 1, 40, 0
4, 93720, Note_on_c, 1, 50, 80
4, 93839, Note_on_c, 1, 50, 0
4, 93840, Note_on_c, 1, 49, 80
4, 93959, Note_on_c, 1, 49, 0
4, 93960, Note_on_c, 1, 47, 80
4, 94079, Note_on_c, 1, 47, 0
4, 94080, Note_on_c, 1, 45, 80
4, 94559, Note_on_c, 1, 45, 0
4, 94680, Note_on_c, 1, 57, 80
4, 94799, Note_on_c, 1, 57, 0
4, 94800, Note_on_c, 1, 56, 80
4, 94919, Note_on_c, 1, 56, 0
4, 94920, Note_on_c, 1, 54, 80
4, 95039, Note_on_c, 1, 54, 0
4, 95040, Note_on_c, 1, 53, 80
4, 95279, Note_on_c, 1, 53, 0
4, 95280, Note_on_c, 1, 49, 80
4, 95519, Note_on_c, 1, 49, 0
4, 95520, Note_on_c, 1, 54, 80
4, 96119, Note_on_c, 1, 54, 0
4, 96120, Note_on_c, 1, 54, 80
4, 96239, Note_on_c, 1, 54, 0
4, 96240, Note_on_c, 1, 52, 80
4, 96359, Note_on_c, 1, 52, 0
4, 96360, Note_on_c, 1, 51, 80
4, 96479, Note_on_c, 1, 51, 0
4, 96480, Note_on_c, 1, 52, 80
4, 96839, Note_on_c, 1, 52, 0
4, 96840, Note_on_c, 1, 49, 80
4, 96959, Note_on_c, 1, 49, 0
4, 96960, Note_on_c, 1, 56, 80
4, 97439, Note_on_c, 1, 56, 0
4, 97560, Note_on_c, 1, 44, 80
4, 97679, Note_on_c, 1, 44, 0
4, 97680, Note_on_c, 1, 46, 80
4, 97799, Note_on_c, 1, 46, 0
4, 97800, Note_on_c, 1, 48, 80
4, 97919, Note_on_c, 1, 48, 0
4, 97920, Note_on_c, 1, 49, 80
4, 98399, Note_on_c, 1, 49, 0
4, 98520, Note_on_c, 1, 51, 80
4, 98639, Note_on_c, 1, 51, 0
4, 98640, Note_on_c, 1, 52, 80
4, 98759, Note_on_c, 1, 52, 0
4, 98760, Note_on_c, 1, 54, 80
4, 98879, Note_on_c, 1, 54, 0
4, 98880, Note_on_c, 1, 56, 80
4, 99839, Note_on_c, 1, 56, 0
4, 99960, Note_on_c, 1, 57, 80
4, 100079, Note_on_c, 1, 57, 0
4, 100080, Note_on_c, 1, 56, 80
4, 100199, Note_on_c, 1, 56, 0
4, 100200, Note_on_c, 1, 54, 80
4, 100319, Note_on_c, 1, 54, 0
4, 100320, Note_on_c, 1, 52, 80
4, 100439, Note_on_c, 1, 52, 0
4, 100440, Note_on_c, 1, 51, 80
4, 100559, Note_on_c, 1, 51, 0
4, 100560, Note_on_c, 1, 49, 80
4, 100679, Note_on_c, 1, 49, 0
4, 100680, Note_on_c, 1, 52, 80
4, 100799, Note_on_c, 1, 52, 0
4, 100800, Note_on_c, 1, 45, 80
4, 101759, Note_on_c, 1, 45, 0
4, 101760, Note_on_c, 1, 44, 80
4, 102239, Note_on_c, 1, 44, 0
4, 102360, Note_on_c, 1, 56, 80
4, 102479, Note_on_c, 1, 56, 0
4, 102480, Note_on_c, 1, 54, 80
4, 102599, Note_on_c, 1, 54, 0
4, 102600, Note_on_c, 1, 52, 80
4, 102719, Note_on_c, 1, 52, 0
4, 102720, Note_on_c, 1, 51, 80
4, 102839, Note_on_c, 1, 51, 0
4, 102840, Note_on_c, 1, 49, 80
4, 102959, Note_on_c, 1, 49, 0
4, 102960, Note_on_c, 1, 51, 80
4, 103079, Note_on_c, 1, 51, 0
4, 103080, Note_on_c, 1, 52, 80
4, 103199, Note_on_c, 1, 52, 0
4, 103200, Note_on_c, 1, 54, 80
4, 103319, Note_on_c, 1, 54, 0
4, 103320, Note_on_c, 1, 57, 80
4, 103439, Note_on_c, 1, 57, 0
4, 103440, Note_on_c, 1, 56, 80
4, 103559, Note_on_c, 1, 56, 0
4, 103560, Note_on_c, 1, 54, 80
4, 103679, Note_on_c, 1, 54, 0
4, 103680, Note_on_c, 1, 52, 80
4, 103799, Note_on_c, 1, 52, 0
4, 103800, Note_on_c, 1, 54, 80
4, 103919, Note_on_c, 1, 54, 0
4, 103920, Note_on_c, 1, 52, 80
4, 104039, Note_on_c, 1, 52, 0
4, 104040, Note_on_c, 1, 51, 80
4, 104159, Note_on_c, 1, 51, 0
4, 104160, Note_on_c, 1, 49, 80
4, 104279, Note_on_c, 1, 49, 0
4, 104280, Note_on_c, 1, 51, 80
4, 104399, Note_on_c, 1, 51, 0
4, 104400, Note_on_c, 1, 52, 80
4, 104759, Note_on_c, 1, 52, 0
4, 104760, Note_on_c, 1, 56, 80
4, 104879, Note_on_c, 1, 56, 0
4, 104880, Note_on_c, 1, 54, 80
4, 104999, Note_on_c, 1, 54, 0
4, 105000, Note_on_c, 1, 52, 80
4, 105119, Note_on_c, 1, 52, 0
4, 105120, Note_on_c, 1, 51, 80
4, 105239, Note_on_c, 1, 51, 0
4, 105240, Note_on_c, 1, 56, 80
4, 105359, Note_on_c, 1, 56, 0
4, 105360, Note_on_c, 1, 54, 80
4, 105479, Note_on_c, 1, 54, 0
4, 105480, Note_on_c, 1, 56, 80
4, 105599, Note_on_c, 1, 56, 0
4, 105600, Note_on_c, 1, 49, 80
4, 106079, Note_on_c, 1, 49, 0
4, 107640, Note_on_c, 1, 56, 80
4, 107759, Note_on_c, 1, 56, 0
4, 107760, Note_on_c, 1, 54, 80
4, 107879, Note_on_c, 1, 54, 0
4, 107880, Note_on_c, 1, 52, 80
4, 107999, Note_on_c, 1, 52, 0
4, 108000, Note_on_c, 1, 51, 80
4, 108119, Note_on_c, 1, 51, 0
4, 108120, Note_on_c, 1, 49, 80
4, 108239, Note_on_c, 1, 49, 0
4, 108240, Note_on_c, 1, 48, 80
4, 108359, Note_on_c, 1, 48, 0
4, 108360, Note_on_c, 1, 51, 80
4, 108479, Note_on_c, 1, 51, 0
4, 108480, Note_on_c, 1, 44, 80
4, 109559, Note_on_c, 1, 44, 0
4, 109560, Note_on_c, 1, 54, 80
4, 109679, Note_on_c, 1, 54, 0
4, 109680, Note_on_c, 1, 52, 80
4, 109799, Note_on_c, 1, 52, 0
4, 109800, Note_on_c, 1, 51, 80
4, 109919, Note_on_c, 1, 51, 0
4, 109920, Note_on_c, 1, 49, 80
4, 110039, Note_on_c, 1, 49, 0
4, 110040, Note_on_c, 1, 47, 80
4, 110159, Note_on_c, 1, 47, 0
4, 110160, Note_on_c, 1, 45, 80
4, 110279, Note_on_c, 1, 45, 0
4, 110280, Note_on_c, 1, 49, 80
4, 110399, Note_on_c, 1, 49, 0
4, 110400, Note_on_c, 1, 43, 80
4, 110879, Note_on_c, 1, 43, 0
4, 112080, Note_on_c, 1, 45, 80
4, 112319, Note_on_c, 1, 45, 0
4, 112320, Note_on_c, 1, 44, 80
4, 113279, Note_on_c, 1, 44, 0
4, 113280, Note_on_c, 1, 49, 80
4, 116159, Note_on_c, 1, 49, 0
4, 116160, Note_on_c, 1, 37, 80
4, 117119, Note_on_c, 1, 37, 0
4, 117120, End_track
0, 0, End_of_file
