0, 0, Header, 1, 2, 480
1, 0, Start_track
1, 0, Unknown_meta_event, 8, 33, 71, 111, 108, 100, 98, 101, 114, 103, 32, 86, 97, 114, 105, 97, 116, 105, 111, 110, 115, 58, 32, 86, 97, 114, 105, 97, 116, 105, 111, 110, 32, 88, 0
1, 0, Unknown_meta_event, 9, 8, 66, 87, 86, 32, 57, 56, 56, 0
1, 0, Unknown_meta_event, 10, 11, 74, 46, 32, 83, 46, 32, 66, 97, 99, 104, 0
1, 0, Time_signature, 2, 1, 24, 8
1, 0, Key_signature, 1, "major"
1, 0, Program_c, 0, 46
1, 2, Control_c, 0, 7, 100
1, 4, Control_c, 0, 10, 64
1, 6, Control_c, 0, 91, 30
1, 8, Control_c, 0, 93, 30
1, 15360, Note_on_c, 0, 79, 80
1, 15419, Note_on_c, 0, 79, 0
1, 15420, Note_on_c, 0, 78, 80
1, 15479, Note_on_c, 0, 78, 0
1, 15480, Note_on_c, 0, 79, 80
1, 15599, Note_on_c, 0, 79, 0
1, 16320, Note_on_c, 0, 81, 80
1, 16379, Note_on_c, 0, 81, 0
1, 16380, Note_on_c, 0, 79, 80
1, 16439, Note_on_c, 0, 79, 0
1, 16440, Note_on_c, 0, 81, 80
1, 16499, Note_on_c, 0, 81, 0
1, 16500, Note_on_c, 0, 79, 80
1, 16559, Note_on_c, 0, 79, 0
1, 16560, Note_on_c, 0, 81, 80
1, 16619, Note_on_c, 0, 81, 0
1, 16620, Note_on_c, 0, 79, 80
1, 16679, Note_on_c, 0, 79, 0
1, 16680, Note_on_c, 0, 81, 80
1, 16739, Note_on_c, 0, 81, 0
1, 16740, Note_on_c, 0, 79, 80
1, 16799, Note_on_c, 0, 79, 0
1, 16800, Note_on_c, 0, 81, 80
1, 16859, Note_on_c, 0, 81, 0
1, 16860, Note_on_c, 0, 79, 80
1, 16919, Note_on_c, 0, 79, 0
1, 16920, Note_on_c, 0, 81, 80
1, 16979, Note_on_c, 0, 81, 0
1, 16980, Note_on_c, 0, 79, 80
1, 17039, Note_on_c, 0, 79, 0
1, 17040, Note_on_c, 0, 78, 80
1, 17159, Note_on_c, 0, 78, 0
1, 17160, Note_on_c, 0, 79, 80
1, 17279, Note_on_c, 0, 79, 0
1, 17280, Note_on_c, 0, 81, 80
1, 17759, Note_on_c, 0, 81, 0
1, 17760, Note_on_c, 0, 78, 80
1, 18239, Note_on_c, 0, 78, 0
1, 18240, Note_on_c, 0, 74, 80
1, 18719, Note_on_c, 0, 74, 0
1, 18720, Note_on_c, 0, 78, 80
1, 19199, Note_on_c, 0, 78, 0
1, 19200, Note_on_c, 0, 71, 80
1, 19679, Note_on_c, 0, 71, 0
1, 19680, Note_on_c, 0, 76, 80
1, 20159, Note_on_c, 0, 76, 0
1, 20160, Note_on_c, 0, 64, 80
1, 20639, Note_on_c, 0, 64, 0
1, 20640, Note_on_c, 0, 74, 80
1, 21119, Note_on_c, 0, 74, 0
1, 21120, Note_on_c, 0, 74, 80
1, 21179, Note_on_c, 0, 74, 0
1, 21180, Note_on_c, 0, 73, 80
1, 21239, Note_on_c, 0, 73, 0
1, 21240, Note_on_c, 0, 74, 80
1, 21299, Note_on_c, 0, 74, 0
1, 21300, Note_on_c, 0, 73, 80
1, 21359, Note_on_c, 0, 73, 0
1, 21360, Note_on_c, 0, 74, 80
1, 21419, Note_on_c, 0, 74, 0
1, 21420, Note_on_c, 0, 73, 80
1, 21479, Note_on_c, 0, 73, 0
1, 21480, Note_on_c, 0, 74, 80
1, 21539, Note_on_c, 0, 74, 0
1, 21540, Note_on_c, 0, 73, 80
1, 21599, Note_on_c, 0, 73, 0
1, 21600, Note_on_c, 0, 71, 80
1, 21839, Note_on_c, 0, 71, 0
1, 21840, Note_on_c, 0, 73, 80
1, 22079, Note_on_c, 0, 73, 0
1, 22080, Note_on_c, 0, 69, 80
1, 22319, Note_on_c, 0, 69, 0
1, 22320, Note_on_c, 0, 71, 80
1, 22559, Note_on_c, 0, 71, 0
1, 22560, Note_on_c, 0, 73, 80
1, 22799, Note_on_c, 0, 73, 0
1, 22800, Note_on_c, 0, 69, 80
1, 23039, Note_on_c, 0, 69, 0
1, 23040, Note_on_c, 0, 69, 80
1, 23040, Note_on_c, 0, 74, 80
1, 23519, Note_on_c, 0, 74, 0
1, 23520, Note_on_c, 0, 62, 80
1, 23999, Note_on_c, 0, 69, 0
1, 23999, Note_on_c, 0, 62, 0
1, 24000, Note_on_c, 0, 71, 80
1, 24000, Note_on_c, 0, 74, 80
1, 24059, Note_on_c, 0, 71, 0
1, 24060, Note_on_c, 0, 69, 80
1, 24119, Note_on_c, 0, 69, 0
1, 24120, Note_on_c, 0, 71, 80
1, 24179, Note_on_c, 0, 71, 0
1, 24180, Note_on_c, 0, 69, 80
1, 24239, Note_on_c, 0, 69, 0
1, 24240, Note_on_c, 0, 71, 80
1, 24299, Note_on_c, 0, 71, 0
1, 24300, Note_on_c, 0, 69, 80
1, 24359, Note_on_c, 0, 69, 0
1, 24360, Note_on_c, 0, 71, 80
1, 24419, Note_on_c, 0, 71, 0
1, 24420, Note_on_c, 0, 69, 80
1, 24479, Note_on_c, 0, 69, 0
1, 24480, Note_on_c, 0, 71, 80
1, 24539, Note_on_c, 0, 71, 0
1, 24540, Note_on_c, 0, 69, 80
1, 24599, Note_on_c, 0, 69, 0
1, 24600, Note_on_c, 0, 71, 80
1, 24659, Note_on_c, 0, 71, 0
1, 24660, Note_on_c, 0, 69, 80
1, 24719, Note_on_c, 0, 69, 0
1, 24720, Note_on_c, 0, 67, 80
1, 24839, Note_on_c, 0, 67, 0
1, 24840, Note_on_c, 0, 69, 80
1, 24959, Note_on_c, 0, 69, 0
1, 24959, Note_on_c, 0, 74, 0
1, 24960, Note_on_c, 0, 71, 80
1, 25439, Note_on_c, 0, 71, 0
1, 25440, Note_on_c, 0, 67, 80
1, 25440, Note_on_c, 0, 62, 80
1, 25919, Note_on_c, 0, 67, 0
1, 25919, Note_on_c, 0, 62, 0
1, 25920, Note_on_c, 0, 64, 80
1, 25920, Note_on_c, 0, 74, 80
1, 26399, Note_on_c, 0, 64, 0
1, 26400, Note_on_c, 0, 67, 80
1, 26879, Note_on_c, 0, 67, 0
1, 26879, Note_on_c, 0, 74, 0
1, 26880, Note_on_c, 0, 64, 80
1, 27359, Note_on_c, 0, 64, 0
1, 27360, Note_on_c, 0, 69, 80
1, 27839, Note_on_c, 0, 69, 0
1, 27840, Note_on_c, 0, 57, 80
1, 27840, Note_on_c, 0, 73, 80
1, 28319, Note_on_c, 0, 57, 0
1, 28320, Note_on_c, 0, 67, 80
1, 28799, Note_on_c, 0, 67, 0
1, 28799, Note_on_c, 0, 73, 0
1, 28800, Note_on_c, 0, 67, 80
1, 28800, Note_on_c, 0, 74, 80
1, 28859, Note_on_c, 0, 67, 0
1, 28860, Note_on_c, 0, 66, 80
1, 28919, Note_on_c, 0, 66, 0
1, 28920, Note_on_c, 0, 67, 80
1, 28979, Note_on_c, 0, 67, 0
1, 28980, Note_on_c, 0, 66, 80
1, 29039, Note_on_c, 0, 66, 0
1, 29040, Note_on_c, 0, 67, 80
1, 29099, Note_on_c, 0, 67, 0
1, 29100, Note_on_c, 0, 66, 80
1, 29159, Note_on_c, 0, 66, 0
1, 29160, Note_on_c, 0, 67, 80
1, 29219, Note_on_c, 0, 67, 0
1, 29220, Note_on_c, 0, 66, 80
1, 29279, Note_on_c, 0, 66, 0
1, 29280, Note_on_c, 0, 64, 80
1, 29519, Note_on_c, 0, 64, 0
1, 29520, Note_on_c, 0, 66, 80
1, 29759, Note_on_c, 0, 66, 0
1, 29760, Note_on_c, 0, 62, 80
1, 30719, Note_on_c, 0, 62, 0
1, 30719, Note_on_c, 0, 74, 0
1, 46080, Note_on_c, 0, 79, 80
1, 46139, Note_on_c, 0, 79, 0
1, 46140, Note_on_c, 0, 78, 80
1, 46199, Note_on_c, 0, 78, 0
1, 46200, Note_on_c, 0, 79, 80
1, 46319, Note_on_c, 0, 79, 0
1, 47040, Note_on_c, 0, 81, 80
1, 47099, Note_on_c, 0, 81, 0
1, 47100, Note_on_c, 0, 79, 80
1, 47159, Note_on_c, 0, 79, 0
1, 47160, Note_on_c, 0, 81, 80
1, 47219, Note_on_c, 0, 81, 0
1, 47220, Note_on_c, 0, 79, 80
1, 47279, Note_on_c, 0, 79, 0
1, 47280, Note_on_c, 0, 81, 80
1, 47339, Note_on_c, 0, 81, 0
1, 47340, Note_on_c, 0, 79, 80
1, 47399, Note_on_c, 0, 79, 0
1, 47400, Note_on_c, 0, 81, 80
1, 47459, Note_on_c, 0, 81, 0
1, 47460, Note_on_c, 0, 79, 80
1, 47519, Note_on_c, 0, 79, 0
1, 47520, Note_on_c, 0, 81, 80
1, 47579, Note_on_c, 0, 81, 0
1, 47580, Note_on_c, 0, 79, 80
1, 47639, Note_on_c, 0, 79, 0
1, 47640, Note_on_c, 0, 81, 80
1, 47699, Note_on_c, 0, 81, 0
1, 47700, Note_on_c, 0, 79, 80
1, 47759, Note_on_c, 0, 79, 0
1, 47760, Note_on_c, 0, 78, 80
1, 47879, Note_on_c, 0, 78, 0
1, 47880, Note_on_c, 0, 79, 80
1, 47999, Note_on_c, 0, 79, 0
1, 48000, Note_on_c, 0, 81, 80
1, 48479, Note_on_c, 0, 81, 0
1, 48480, Note_on_c, 0, 78, 80
1, 48959, Note_on_c, 0, 78, 0
1, 48960, Note_on_c, 0, 74, 80
1, 49439, Note_on_c, 0, 74, 0
1, 49440, Note_on_c, 0, 78, 80
1, 49919, Note_on_c, 0, 78, 0
1, 49920, Note_on_c, 0, 71, 80
1, 50399, Note_on_c, 0, 71, 0
1, 50400, Note_on_c, 0, 76, 80
1, 50879, Note_on_c, 0, 76, 0
1, 50880, Note_on_c, 0, 64, 80
1, 51359, Note_on_c, 0, 64, 0
1, 51360, Note_on_c, 0, 74, 80
1, 51839, Note_on_c, 0, 74, 0
1, 51840, Note_on_c, 0, 74, 80
1, 51899, Note_on_c, 0, 74, 0
1, 51900, Note_on_c, 0, 73, 80
1, 51959, Note_on_c, 0, 73, 0
1, 51960, Note_on_c, 0, 74, 80
1, 52019, Note_on_c, 0, 74, 0
1, 52020, Note_on_c, 0, 73, 80
1, 52079, Note_on_c, 0, 73, 0
1, 52080, Note_on_c, 0, 74, 80
1, 52139, Note_on_c, 0, 74, 0
1, 52140, Note_on_c, 0, 73, 80
1, 52199, Note_on_c, 0, 73, 0
1, 52200, Note_on_c, 0, 74, 80
1, 52259, Note_on_c, 0, 74, 0
1, 52260, Note_on_c, 0, 73, 80
1, 52319, Note_on_c, 0, 73, 0
1, 52320, Note_on_c, 0, 71, 80
1, 52559, Note_on_c, 0, 71, 0
1, 52560, Note_on_c, 0, 73, 80
1, 52799, Note_on_c, 0, 73, 0
1, 52800, Note_on_c, 0, 69, 80
1, 53039, Note_on_c, 0, 69, 0
1, 53040, Note_on_c, 0, 71, 80
1, 53279, Note_on_c, 0, 71, 0
1, 53280, Note_on_c, 0, 73, 80
1, 53519, Note_on_c, 0, 73, 0
1, 53520, Note_on_c, 0, 69, 80
1, 53759, Note_on_c, 0, 69, 0
1, 53760, Note_on_c, 0, 69, 80
1, 53760, Note_on_c, 0, 74, 80
1, 54239, Note_on_c, 0, 74, 0
1, 54240, Note_on_c, 0, 62, 80
1, 54719, Note_on_c, 0, 69, 0
1, 54719, Note_on_c, 0, 62, 0
1, 54720, Note_on_c, 0, 71, 80
1, 54720, Note_on_c, 0, 74, 80
1, 54779, Note_on_c, 0, 71, 0
1, 54780, Note_on_c, 0, 69, 80
1, 54839, Note_on_c, 0, 69, 0
1, 54840, Note_on_c, 0, 71, 80
1, 54899, Note_on_c, 0, 71, 0
1, 54900, Note_on_c, 0, 69, 80
1, 54959, Note_on_c, 0, 69, 0
1, 54960, Note_on_c, 0, 71, 80
1, 55019, Note_on_c, 0, 71, 0
1, 55020, Note_on_c, 0, 69, 80
1, 55079, Note_on_c, 0, 69, 0
1, 55080, Note_on_c, 0, 71, 80
1, 55139, Note_on_c, 0, 71, 0
1, 55140, Note_on_c, 0, 69, 80
1, 55199, Note_on_c, 0, 69, 0
1, 55200, Note_on_c, 0, 71, 80
1, 55259, Note_on_c, 0, 71, 0
1, 55260, Note_on_c, 0, 69, 80
1, 55319, Note_on_c, 0, 69, 0
1, 55320, Note_on_c, 0, 71, 80
1, 55379, Note_on_c, 0, 71, 0
1, 55380, Note_on_c, 0, 69, 80
1, 55439, Note_on_c, 0, 69, 0
1, 55440, Note_on_c, 0, 67, 80
1, 55559, Note_on_c, 0, 67, 0
1, 55560, Note_on_c, 0, 69, 80
1, 55679, Note_on_c, 0, 69, 0
1, 55679, Note_on_c, 0, 74, 0
1, 55680, Note_on_c, 0, 71, 80
1, 56159, Note_on_c, 0, 71, 0
1, 56160, Note_on_c, 0, 67, 80
1, 56160, Note_on_c, 0, 62, 80
1, 56639, Note_on_c, 0, 67, 0
1, 56639, Note_on_c, 0, 62, 0
1, 56640, Note_on_c, 0, 64, 80
1, 56640, Note_on_c, 0, 74, 80
1, 57119, Note_on_c, 0, 64, 0
1, 57120, Note_on_c, 0, 67, 80
1, 57599, Note_on_c, 0, 67, 0
1, 57599, Note_on_c, 0, 74, 0
1, 57600, Note_on_c, 0, 64, 80
1, 58079, Note_on_c, 0, 64, 0
1, 58080, Note_on_c, 0, 69, 80
1, 58559, Note_on_c, 0, 69, 0
1, 58560, Note_on_c, 0, 57, 80
1, 58560, Note_on_c, 0, 73, 80
1, 59039, Note_on_c, 0, 57, 0
1, 59040, Note_on_c, 0, 67, 80
1, 59519, Note_on_c, 0, 67, 0
1, 59519, Note_on_c, 0, 73, 0
1, 59520, Note_on_c, 0, 67, 80
1, 59520, Note_on_c, 0, 74, 80
1, 59579, Note_on_c, 0, 67, 0
1, 59580, Note_on_c, 0, 66, 80
1, 59639, Note_on_c, 0, 66, 0
1, 59640, Note_on_c, 0, 67, 80
1, 59699, Note_on_c, 0, 67, 0
1, 59700, Note_on_c, 0, 66, 80
1, 59759, Note_on_c, 0, 66, 0
1, 59760, Note_on_c, 0, 67, 80
1, 59819, Note_on_c, 0, 67, 0
1, 59820, Note_on_c, 0, 66, 80
1, 59879, Note_on_c, 0, 66, 0
1, 59880, Note_on_c, 0, 67, 80
1, 59939, Note_on_c, 0, 67, 0
1, 59940, Note_on_c, 0, 66, 80
1, 59999, Note_on_c, 0, 66, 0
1, 60000, Note_on_c, 0, 64, 80
1, 60239, Note_on_c, 0, 64, 0
1, 60240, Note_on_c, 0, 66, 80
1, 60479, Note_on_c, 0, 66, 0
1, 60480, Note_on_c, 0, 62, 80
1, 61439, Note_on_c, 0, 62, 0
1, 61439, Note_on_c, 0, 74, 0
1, 61440, Note_on_c, 0, 78, 80
1, 61499, Note_on_c, 0, 78, 0
1, 61500, Note_on_c, 0, 76, 80
1, 61559, Note_on_c, 0, 76, 0
1, 61560, Note_on_c, 0, 78, 80
1, 61679, Note_on_c, 0, 78, 0
1, 62400, Note_on_c, 0, 79, 80
1, 62459, Note_on_c, 0, 79, 0
1, 62460, Note_on_c, 0, 78, 80
1, 62519, Note_on_c, 0, 78, 0
1, 62520, Note_on_c, 0, 79, 80
1, 62579, Note_on_c, 0, 79, 0
1, 62580, Note_on_c, 0, 78, 80
1, 62639, Note_on_c, 0, 78, 0
1, 62640, Note_on_c, 0, 79, 80
1, 62699, Note_on_c, 0, 79, 0
1, 62700, Note_on_c, 0, 78, 80
1, 62759, Note_on_c, 0, 78, 0
1, 62760, Note_on_c, 0, 79, 80
1, 62819, Note_on_c, 0, 79, 0
1, 62820, Note_on_c, 0, 78, 80
1, 62879, Note_on_c, 0, 78, 0
1, 62880, Note_on_c, 0, 79, 80
1, 62939, Note_on_c, 0, 79, 0
1, 62940, Note_on_c, 0, 78, 80
1, 62999, Note_on_c, 0, 78, 0
1, 63000, Note_on_c, 0, 79, 80
1, 63059, Note_on_c, 0, 79, 0
1, 63060, Note_on_c, 0, 78, 80
1, 63119, Note_on_c, 0, 78, 0
1, 63120, Note_on_c, 0, 76, 80
1, 63239, Note_on_c, 0, 76, 0
1, 63240, Note_on_c, 0, 78, 80
1, 63359, Note_on_c, 0, 78, 0
1, 63360, Note_on_c, 0, 79, 80
1, 63839, Note_on_c, 0, 79, 0
1, 63840, Note_on_c, 0, 74, 80
1, 64319, Note_on_c, 0, 74, 0
1, 64320, Note_on_c, 0, 71, 80
1, 64799, Note_on_c, 0, 71, 0
1, 64800, Note_on_c, 0, 74, 80
1, 65279, Note_on_c, 0, 74, 0
1, 65280, Note_on_c, 0, 72, 80
1, 65759, Note_on_c, 0, 72, 0
1, 65760, Note_on_c, 0, 77, 80
1, 66239, Note_on_c, 0, 77, 0
1, 66240, Note_on_c, 0, 65, 80
1, 66719, Note_on_c, 0, 65, 0
1, 66720, Note_on_c, 0, 76, 80
1, 67199, Note_on_c, 0, 76, 0
1, 67200, Note_on_c, 0, 76, 80
1, 67259, Note_on_c, 0, 76, 0
1, 67260, Note_on_c, 0, 75, 80
1, 67319, Note_on_c, 0, 75, 0
1, 67320, Note_on_c, 0, 76, 80
1, 67379, Note_on_c, 0, 76, 0
1, 67380, Note_on_c, 0, 75, 80
1, 67439, Note_on_c, 0, 75, 0
1, 67440, Note_on_c, 0, 76, 80
1, 67499, Note_on_c, 0, 76, 0
1, 67500, Note_on_c, 0, 75, 80
1, 67559, Note_on_c, 0, 75, 0
1, 67560, Note_on_c, 0, 76, 80
1, 67619, Note_on_c, 0, 76, 0
1, 67620, Note_on_c, 0, 75, 80
1, 67679, Note_on_c, 0, 75, 0
1, 67680, Note_on_c, 0, 73, 80
1, 67919, Note_on_c, 0, 73, 0
1, 67920, Note_on_c, 0, 75, 80
1, 68159, Note_on_c, 0, 75, 0
1, 68160, Note_on_c, 0, 71, 80
1, 68399, Note_on_c, 0, 71, 0
1, 68400, Note_on_c, 0, 73, 80
1, 68639, Note_on_c, 0, 73, 0
1, 68640, Note_on_c, 0, 75, 80
1, 68879, Note_on_c, 0, 75, 0
1, 68880, Note_on_c, 0, 71, 80
1, 69119, Note_on_c, 0, 71, 0
1, 69120, Note_on_c, 0, 71, 80
1, 69120, Note_on_c, 0, 76, 80
1, 69599, Note_on_c, 0, 76, 0
1, 69600, Note_on_c, 0, 64, 80
1, 70079, Note_on_c, 0, 71, 0
1, 70079, Note_on_c, 0, 64, 0
1, 70080, Note_on_c, 0, 72, 80
1, 70080, Note_on_c, 0, 76, 80
1, 70139, Note_on_c, 0, 72, 0
1, 70140, Note_on_c, 0, 71, 80
1, 70199, Note_on_c, 0, 71, 0
1, 70200, Note_on_c, 0, 72, 80
1, 70259, Note_on_c, 0, 72, 0
1, 70260, Note_on_c, 0, 71, 80
1, 70319, Note_on_c, 0, 71, 0
1, 70320, Note_on_c, 0, 72, 80
1, 70379, Note_on_c, 0, 72, 0
1, 70380, Note_on_c, 0, 71, 80
1, 70439, Note_on_c, 0, 71, 0
1, 70440, Note_on_c, 0, 72, 80
1, 70499, Note_on_c, 0, 72, 0
1, 70500, Note_on_c, 0, 71, 80
1, 70559, Note_on_c, 0, 71, 0
1, 70560, Note_on_c, 0, 72, 80
1, 70619, Note_on_c, 0, 72, 0
1, 70620, Note_on_c, 0, 71, 80
1, 70679, Note_on_c, 0, 71, 0
1, 70680, Note_on_c, 0, 72, 80
1, 70739, Note_on_c, 0, 72, 0
1, 70740, Note_on_c, 0, 71, 80
1, 70799, Note_on_c, 0, 71, 0
1, 70800, Note_on_c, 0, 69, 80
1, 70919, Note_on_c, 0, 69, 0
1, 70920, Note_on_c, 0, 71, 80
1, 71039, Note_on_c, 0, 71, 0
1, 71039, Note_on_c, 0, 76, 0
1, 71040, Note_on_c, 0, 72, 80
1, 71519, Note_on_c, 0, 72, 0
1, 71520, Note_on_c, 0, 69, 80
1, 71520, Note_on_c, 0, 64, 80
1, 71999, Note_on_c, 0, 69, 0
1, 71999, Note_on_c, 0, 64, 0
1, 72000, Note_on_c, 0, 66, 80
1, 72000, Note_on_c, 0, 76, 80
1, 72479, Note_on_c, 0, 66, 0
1, 72480, Note_on_c, 0, 69, 80
1, 72959, Note_on_c, 0, 69, 0
1, 72959, Note_on_c, 0, 76, 0
1, 72960, Note_on_c, 0, 66, 80
1, 73439, Note_on_c, 0, 66, 0
1, 73440, Note_on_c, 0, 71, 80
1, 73919, Note_on_c, 0, 71, 0
1, 73920, Note_on_c, 0, 59, 80
1, 73920, Note_on_c, 0, 75, 80
1, 74399, Note_on_c, 0, 59, 0
1, 74400, Note_on_c, 0, 69, 80
1, 74879, Note_on_c, 0, 69, 0
1, 74879, Note_on_c, 0, 75, 0
1, 74880, Note_on_c, 0, 69, 80
1, 74880, Note_on_c, 0, 76, 80
1, 74939, Note_on_c, 0, 69, 0
1, 74940, Note_on_c, 0, 67, 80
1, 74999, Note_on_c, 0, 67, 0
1, 75000, Note_on_c, 0, 69, 80
1, 75059, Note_on_c, 0, 69, 0
1, 75060, Note_on_c, 0, 67, 80
1, 75119, Note_on_c, 0, 67, 0
1, 75120, Note_on_c, 0, 69, 80
1, 75179, Note_on_c, 0, 69, 0
1, 75180, Note_on_c, 0, 67, 80
1, 75239, Note_on_c, 0, 67, 0
1, 75240, Note_on_c, 0, 69, 80
1, 75299, Note_on_c, 0, 69, 0
1, 75300, Note_on_c, 0, 67, 80
1, 75359, Note_on_c, 0, 67, 0
1, 75360, Note_on_c, 0, 66, 80
1, 75599, Note_on_c, 0, 66, 0
1, 75600, Note_on_c, 0, 67, 80
1, 75839, Note_on_c, 0, 67, 0
1, 75839, Note_on_c, 0, 76, 0
1, 75840, Note_on_c, 0, 64, 80
1, 76080, Note_on_c, 0, 74, 80
1, 76319, Note_on_c, 0, 74, 0
1, 76320, Note_on_c, 0, 73, 80
1, 76559, Note_on_c, 0, 73, 0
1, 76560, Note_on_c, 0, 71, 80
1, 76799, Note_on_c, 0, 64, 0
1, 76799, Note_on_c, 0, 71, 0
1, 76800, Note_on_c, 0, 69, 80
1, 77279, Note_on_c, 0, 69, 0
1, 77280, Note_on_c, 0, 79, 80
1, 77760, Note_on_c, 0, 69, 80
1, 78239, Note_on_c, 0, 79, 0
1, 78240, Note_on_c, 0, 77, 80
1, 78479, Note_on_c, 0, 77, 0
1, 78480, Note_on_c, 0, 76, 80
1, 78719, Note_on_c, 0, 69, 0
1, 78719, Note_on_c, 0, 76, 0
1, 78720, Note_on_c, 0, 77, 80
1, 79200, Note_on_c, 0, 74, 80
1, 79679, Note_on_c, 0, 74, 0
1, 79679, Note_on_c, 0, 77, 0
1, 79680, Note_on_c, 0, 71, 80
1, 80159, Note_on_c, 0, 71, 0
1, 80160, Note_on_c, 0, 67, 80
1, 80160, Note_on_c, 0, 76, 80
1, 80399, Note_on_c, 0, 76, 0
1, 80400, Note_on_c, 0, 74, 80
1, 80639, Note_on_c, 0, 67, 0
1, 80639, Note_on_c, 0, 74, 0
1, 80640, Note_on_c, 0, 76, 80
1, 81120, Note_on_c, 0, 72, 80
1, 81359, Note_on_c, 0, 72, 0
1, 81360, Note_on_c, 0, 71, 80
1, 81599, Note_on_c, 0, 71, 0
1, 81599, Note_on_c, 0, 76, 0
1, 81600, Note_on_c, 0, 72, 80
1, 82080, Note_on_c, 0, 78, 80
1, 82319, Note_on_c, 0, 78, 0
1, 82320, Note_on_c, 0, 79, 80
1, 82559, Note_on_c, 0, 72, 0
1, 82559, Note_on_c, 0, 79, 0
1, 82560, Note_on_c, 0, 81, 80
1, 82799, Note_on_c, 0, 81, 0
1, 82800, Note_on_c, 0, 83, 80
1, 83039, Note_on_c, 0, 83, 0
1, 83040, Note_on_c, 0, 79, 80
1, 83279, Note_on_c, 0, 79, 0
1, 83280, Note_on_c, 0, 81, 80
1, 83519, Note_on_c, 0, 81, 0
1, 83520, Note_on_c, 0, 78, 80
1, 83999, Note_on_c, 0, 78, 0
1, 84000, Note_on_c, 0, 72, 80
1, 84000, Note_on_c, 0, 81, 80
1, 84479, Note_on_c, 0, 72, 0
1, 84479, Note_on_c, 0, 81, 0
1, 84480, Note_on_c, 0, 71, 80
1, 84960, Note_on_c, 0, 79, 80
1, 85199, Note_on_c, 0, 79, 0
1, 85200, Note_on_c, 0, 78, 80
1, 85439, Note_on_c, 0, 71, 0
1, 85439, Note_on_c, 0, 78, 0
1, 85440, Note_on_c, 0, 79, 80
1, 85919, Note_on_c, 0, 79, 0
1, 85920, Note_on_c, 0, 67, 80
1, 85920, Note_on_c, 0, 71, 80
1, 86399, Note_on_c, 0, 67, 0
1, 86399, Note_on_c, 0, 71, 0
1, 86400, Note_on_c, 0, 64, 80
1, 86880, Note_on_c, 0, 69, 80
1, 87119, Note_on_c, 0, 69, 0
1, 87120, Note_on_c, 0, 71, 80
1, 87359, Note_on_c, 0, 71, 0
1, 87360, Note_on_c, 0, 72, 80
1, 87839, Note_on_c, 0, 64, 0
1, 87840, Note_on_c, 0, 69, 80
1, 88079, Note_on_c, 0, 69, 0
1, 88080, Note_on_c, 0, 67, 80
1, 88319, Note_on_c, 0, 67, 0
1, 88319, Note_on_c, 0, 72, 0
1, 88320, Note_on_c, 0, 66, 80
1, 88799, Note_on_c, 0, 66, 0
1, 88800, Note_on_c, 0, 67, 80
1, 88800, Note_on_c, 0, 71, 80
1, 89279, Note_on_c, 0, 67, 0
1, 89279, Note_on_c, 0, 71, 0
1, 89280, Note_on_c, 0, 69, 80
1, 89760, Note_on_c, 0, 66, 80
1, 90239, Note_on_c, 0, 66, 0
1, 90239, Note_on_c, 0, 69, 0
1, 90240, Note_on_c, 0, 67, 80
1, 92159, Note_on_c, 0, 67, 0
1, 92160, Note_on_c, 0, 78, 80
1, 92219, Note_on_c, 0, 78, 0
1, 92220, Note_on_c, 0, 76, 80
1, 92279, Note_on_c, 0, 76, 0
1, 92280, Note_on_c, 0, 78, 80
1, 92399, Note_on_c, 0, 78, 0
1, 93120, Note_on_c, 0, 79, 80
1, 93179, Note_on_c, 0, 79, 0
1, 93180, Note_on_c, 0, 78, 80
1, 93239, Note_on_c, 0, 78, 0
1, 93240, Note_on_c, 0, 79, 80
1, 93299, Note_on_c, 0, 79, 0
1, 93300, Note_on_c, 0, 78, 80
1, 93359, Note_on_c, 0, 78, 0
1, 93360, Note_on_c, 0, 79, 80
1, 93419, Note_on_c, 0, 79, 0
1, 93420, Note_on_c, 0, 78, 80
1, 93479, Note_on_c, 0, 78, 0
1, 93480, Note_on_c, 0, 79, 80
1, 93539, Note_on_c, 0, 79, 0
1, 93540, Note_on_c, 0, 78, 80
1, 93599, Note_on_c, 0, 78, 0
1, 93600, Note_on_c, 0, 79, 80
1, 93659, Note_on_c, 0, 79, 0
1, 93660, Note_on_c, 0, 78, 80
1, 93719, Note_on_c, 0, 78, 0
1, 93720, Note_on_c, 0, 79, 80
1, 93779, Note_on_c, 0, 79, 0
1, 93780, Note_on_c, 0, 78, 80
1, 93839, Note_on_c, 0, 78, 0
1, 93840, Note_on_c, 0, 76, 80
1, 93959, Note_on_c, 0, 76, 0
1, 93960, Note_on_c, 0, 78, 80
1, 94079, Note_on_c, 0, 78, 0
1, 94080, Note_on_c, 0, 79, 80
1, 94559, Note_on_c, 0, 79, 0
1, 94560, Note_on_c, 0, 74, 80
1, 95039, Note_on_c, 0, 74, 0
1, 95040, Note_on_c, 0, 71, 80
1, 95519, Note_on_c, 0, 71, 0
1, 95520, Note_on_c, 0, 74, 80
1, 95999, Note_on_c, 0, 74, 0
1, 96000, Note_on_c, 0, 72, 80
1, 96479, Note_on_c, 0, 72, 0
1, 96480, Note_on_c, 0, 77, 80
1, 96959, Note_on_c, 0, 77, 0
1, 96960, Note_on_c, 0, 65, 80
1, 97439, Note_on_c, 0, 65, 0
1, 97440, Note_on_c, 0, 76, 80
1, 97919, Note_on_c, 0, 76, 0
1, 97920, Note_on_c, 0, 76, 80
1, 97979, Note_on_c, 0, 76, 0
1, 97980, Note_on_c, 0, 75, 80
1, 98039, Note_on_c, 0, 75, 0
1, 98040, Note_on_c, 0, 76, 80
1, 98099, Note_on_c, 0, 76, 0
1, 98100, Note_on_c, 0, 75, 80
1, 98159, Note_on_c, 0, 75, 0
1, 98160, Note_on_c, 0, 76, 80
1, 98219, Note_on_c, 0, 76, 0
1, 98220, Note_on_c, 0, 75, 80
1, 98279, Note_on_c, 0, 75, 0
1, 98280, Note_on_c, 0, 76, 80
1, 98339, Note_on_c, 0, 76, 0
1, 98340, Note_on_c, 0, 75, 80
1, 98399, Note_on_c, 0, 75, 0
1, 98400, Note_on_c, 0, 73, 80
1, 98639, Note_on_c, 0, 73, 0
1, 98640, Note_on_c, 0, 75, 80
1, 98879, Note_on_c, 0, 75, 0
1, 98880, Note_on_c, 0, 71, 80
1, 99119, Note_on_c, 0, 71, 0
1, 99120, Note_on_c, 0, 73, 80
1, 99359, Note_on_c, 0, 73, 0
1, 99360, Note_on_c, 0, 75, 80
1, 99599, Note_on_c, 0, 75, 0
1, 99600, Note_on_c, 0, 71, 80
1, 99839, Note_on_c, 0, 71, 0
1, 99840, Note_on_c, 0, 71, 80
1, 99840, Note_on_c, 0, 76, 80
1, 100319, Note_on_c, 0, 76, 0
1, 100320, Note_on_c, 0, 64, 80
1, 100799, Note_on_c, 0, 71, 0
1, 100799, Note_on_c, 0, 64, 0
1, 100800, Note_on_c, 0, 72, 80
1, 100800, Note_on_c, 0, 76, 80
1, 100859, Note_on_c, 0, 72, 0
1, 100860, Note_on_c, 0, 71, 80
1, 100919, Note_on_c, 0, 71, 0
1, 100920, Note_on_c, 0, 72, 80
1, 100979, Note_on_c, 0, 72, 0
1, 100980, Note_on_c, 0, 71, 80
1, 101039, Note_on_c, 0, 71, 0
1, 101040, Note_on_c, 0, 72, 80
1, 101099, Note_on_c, 0, 72, 0
1, 101100, Note_on_c, 0, 71, 80
1, 101159, Note_on_c, 0, 71, 0
1, 101160, Note_on_c, 0, 72, 80
1, 101219, Note_on_c, 0, 72, 0
1, 101220, Note_on_c, 0, 71, 80
1, 101279, Note_on_c, 0, 71, 0
1, 101280, Note_on_c, 0, 72, 80
1, 101339, Note_on_c, 0, 72, 0
1, 101340, Note_on_c, 0, 71, 80
1, 101399, Note_on_c, 0, 71, 0
1, 101400, Note_on_c, 0, 72, 80
1, 101459, Note_on_c, 0, 72, 0
1, 101460, Note_on_c, 0, 71, 80
1, 101519, Note_on_c, 0, 71, 0
1, 101520, Note_on_c, 0, 69, 80
1, 101639, Note_on_c, 0, 69, 0
1, 101640, Note_on_c, 0, 71, 80
1, 101759, Note_on_c, 0, 71, 0
1, 101759, Note_on_c, 0, 76, 0
1, 101760, Note_on_c, 0, 72, 80
1, 102239, Note_on_c, 0, 72, 0
1, 102240, Note_on_c, 0, 69, 80
1, 102240, Note_on_c, 0, 64, 80
1, 102719, Note_on_c, 0, 69, 0
1, 102719, Note_on_c, 0, 64, 0
1, 102720, Note_on_c, 0, 66, 80
1, 102720, Note_on_c, 0, 76, 80
1, 103199, Note_on_c, 0, 66, 0
1, 103200, Note_on_c, 0, 69, 80
1, 103679, Note_on_c, 0, 69, 0
1, 103679, Note_on_c, 0, 76, 0
1, 103680, Note_on_c, 0, 66, 80
1, 104159, Note_on_c, 0, 66, 0
1, 104160, Note_on_c, 0, 71, 80
1, 104639, Note_on_c, 0, 71, 0
1, 104640, Note_on_c, 0, 59, 80
1, 104640, Note_on_c, 0, 75, 80
1, 105119, Note_on_c, 0, 59, 0
1, 105120, Note_on_c, 0, 69, 80
1, 105599, Note_on_c, 0, 69, 0
1, 105599, Note_on_c, 0, 75, 0
1, 105600, Note_on_c, 0, 69, 80
1, 105600, Note_on_c, 0, 76, 80
1, 105659, Note_on_c, 0, 69, 0
1, 105660, Note_on_c, 0, 67, 80
1, 105719, Note_on_c, 0, 67, 0
1, 105720, Note_on_c, 0, 69, 80
1, 105779, Note_on_c, 0, 69, 0
1, 105780, Note_on_c, 0, 67, 80
1, 105839, Note_on_c, 0, 67, 0
1, 105840, Note_on_c, 0, 69, 80
1, 105899, Note_on_c, 0, 69, 0
1, 105900, Note_on_c, 0, 67, 80
1, 105959, Note_on_c, 0, 67, 0
1, 105960, Note_on_c, 0, 69, 80
1, 106019, Note_on_c, 0, 69, 0
1, 106020, Note_on_c, 0, 67, 80
1, 106079, Note_on_c, 0, 67, 0
1, 106080, Note_on_c, 0, 66, 80
1, 106319, Note_on_c, 0, 66, 0
1, 106320, Note_on_c, 0, 67, 80
1, 106559, Note_on_c, 0, 67, 0
1, 106559, Note_on_c, 0, 76, 0
1, 106560, Note_on_c, 0, 64, 80
1, 106800, Note_on_c, 0, 74, 80
1, 107039, Note_on_c, 0, 74, 0
1, 107040, Note_on_c, 0, 73, 80
1, 107279, Note_on_c, 0, 73, 0
1, 107280, Note_on_c, 0, 71, 80
1, 107519, Note_on_c, 0, 64, 0
1, 107519, Note_on_c, 0, 71, 0
1, 107520, Note_on_c, 0, 69, 80
1, 107999, Note_on_c, 0, 69, 0
1, 108000, Note_on_c, 0, 79, 80
1, 108480, Note_on_c, 0, 69, 80
1, 108959, Note_on_c, 0, 79, 0
1, 108960, Note_on_c, 0, 77, 80
1, 109199, Note_on_c, 0, 77, 0
1, 109200, Note_on_c, 0, 76, 80
1, 109439, Note_on_c, 0, 69, 0
1, 109439, Note_on_c, 0, 76, 0
1, 109440, Note_on_c, 0, 77, 80
1, 109920, Note_on_c, 0, 74, 80
1, 110399, Note_on_c, 0, 74, 0
1, 110399, Note_on_c, 0, 77, 0
1, 110400, Note_on_c, 0, 71, 80
1, 110879, Note_on_c, 0, 71, 0
1, 110880, Note_on_c, 0, 67, 80
1, 110880, Note_on_c, 0, 76, 80
1, 111119, Note_on_c, 0, 76, 0
1, 111120, Note_on_c, 0, 74, 80
1, 111359, Note_on_c, 0, 67, 0
1, 111359, Note_on_c, 0, 74, 0
1, 111360, Note_on_c, 0, 76, 80
1, 111840, Note_on_c, 0, 72, 80
1, 112079, Note_on_c, 0, 72, 0
1, 112080, Note_on_c, 0, 71, 80
1, 112319, Note_on_c, 0, 71, 0
1, 112319, Note_on_c, 0, 76, 0
1, 112320, Note_on_c, 0, 72, 80
1, 112800, Note_on_c, 0, 78, 80
1, 113039, Note_on_c, 0, 78, 0
1, 113040, Note_on_c, 0, 79, 80
1, 113279, Note_on_c, 0, 72, 0
1, 113279, Note_on_c, 0, 79, 0
1, 113280, Note_on_c, 0, 81, 80
1, 113519, Note_on_c, 0, 81, 0
1, 113520, Note_on_c, 0, 83, 80
1, 113759, Note_on_c, 0, 83, 0
1, 113760, Note_on_c, 0, 79, 80
1, 113999, Note_on_c, 0, 79, 0
1, 114000, Note_on_c, 0, 81, 80
1, 114239, Note_on_c, 0, 81, 0
1, 114240, Note_on_c, 0, 78, 80
1, 114719, Note_on_c, 0, 78, 0
1, 114720, Note_on_c, 0, 72, 80
1, 114720, Note_on_c, 0, 81, 80
1, 115199, Note_on_c, 0, 72, 0
1, 115199, Note_on_c, 0, 81, 0
1, 115200, Note_on_c, 0, 71, 80
1, 115680, Note_on_c, 0, 79, 80
1, 115919, Note_on_c, 0, 79, 0
1, 115920, Note_on_c, 0, 78, 80
1, 116159, Note_on_c, 0, 71, 0
1, 116159, Note_on_c, 0, 78, 0
1, 116160, Note_on_c, 0, 79, 80
1, 116639, Note_on_c, 0, 79, 0
1, 116640, Note_on_c, 0, 67, 80
1, 116640, Note_on_c, 0, 71, 80
1, 117119, Note_on_c, 0, 67, 0
1, 117119, Note_on_c, 0, 71, 0
1, 117120, Note_on_c, 0, 64, 80
1, 117600, Note_on_c, 0, 69, 80
1, 117839, Note_on_c, 0, 69, 0
1, 117840, Note_on_c, 0, 71, 80
1, 118079, Note_on_c, 0, 71, 0
1, 118080, Note_on_c, 0, 72, 80
1, 118559, Note_on_c, 0, 64, 0
1, 118560, Note_on_c, 0, 69, 80
1, 118799, Note_on_c, 0, 69, 0
1, 118800, Note_on_c, 0, 67, 80
1, 119039, Note_on_c, 0, 67, 0
1, 119039, Note_on_c, 0, 72, 0
1, 119040, Note_on_c, 0, 66, 80
1, 119519, Note_on_c, 0, 66, 0
1, 119520, Note_on_c, 0, 67, 80
1, 119520, Note_on_c, 0, 71, 80
1, 119999, Note_on_c, 0, 67, 0
1, 119999, Note_on_c, 0, 71, 0
1, 120000, Note_on_c, 0, 69, 80
1, 120480, Note_on_c, 0, 66, 80
1, 120959, Note_on_c, 0, 66, 0
1, 120959, Note_on_c, 0, 69, 0
1, 120960, Note_on_c, 0, 67, 80
1, 122879, Note_on_c, 0, 67, 0
1, 122880, End_track
2, 0, Start_track
2, 0, Key_signature, 1, "major"
2, 0, Note_on_c, 0, 55, 80
2, 59, Note_on_c, 0, 55, 0
2, 60, Note_on_c, 0, 54, 80
2, 119, Note_on_c, 0, 54, 0
2, 120, Note_on_c, 0, 55, 80
2, 239, Note_on_c, 0, 55, 0
2, 960, Note_on_c, 0, 57, 80
2, 1019, Note_on_c, 0, 57, 0
2, 1020, Note_on_c, 0, 55, 80
2, 1079, Note_on_c, 0, 55, 0
2, 1080, Note_on_c, 0, 57, 80
2, 1139, Note_on_c, 0, 57, 0
2, 1140, Note_on_c, 0, 55, 80
2, 1199, Note_on_c, 0, 55, 0
2, 1200, Note_on_c, 0, 57, 80
2, 1259, Note_on_c, 0, 57, 0
2, 1260, Note_on_c, 0, 55, 80
2, 1319, Note_on_c, 0, 55, 0
2, 1320, Note_on_c, 0, 57, 80
2, 1379, Note_on_c, 0, 57, 0
2, 1380, Note_on_c, 0, 55, 80
2, 1439, Note_on_c, 0, 55, 0
2, 1440, Note_on_c, 0, 57, 80
2, 1499, Note_on_c, 0, 57, 0
2, 1500, Note_on_c, 0, 55, 80
2, 1559, Note_on_c, 0, 55, 0
2, 1560, Note_on_c, 0, 57, 80
2, 1619, Note_on_c, 0, 57, 0
2, 1620, Note_on_c, 0, 55, 80
2, 1679, Note_on_c, 0, 55, 0
2, 1680, Note_on_c, 0, 54, 80
2, 1799, Note_on_c, 0, 54, 0
2, 1800, Note_on_c, 0, 55, 80
2, 1919, Note_on_c, 0, 55, 0
2, 1920, Note_on_c, 0, 57, 80
2, 2399, Note_on_c, 0, 57, 0
2, 2400, Note_on_c, 0, 54, 80
2, 2879, Note_on_c, 0, 54, 0
2, 2880, Note_on_c, 0, 50, 80
2, 3359, Note_on_c, 0, 50, 0
2, 3360, Note_on_c, 0, 54, 80
2, 3839, Note_on_c, 0, 54, 0
2, 3840, Note_on_c, 0, 52, 80
2, 4319, Note_on_c, 0, 52, 0
2, 4320, Note_on_c, 0, 57, 80
2, 4799, Note_on_c, 0, 57, 0
2, 4800, Note_on_c, 0, 45, 80
2, 5279, Note_on_c, 0, 45, 0
2, 5280, Note_on_c, 0, 55, 80
2, 5759, Note_on_c, 0, 55, 0
2, 5760, Note_on_c, 0, 55, 80
2, 5819, Note_on_c, 0, 55, 0
2, 5820, Note_on_c, 0, 54, 80
2, 5879, Note_on_c, 0, 54, 0
2, 5880, Note_on_c, 0, 55, 80
2, 5939, Note_on_c, 0, 55, 0
2, 5940, Note_on_c, 0, 54, 80
2, 5999, Note_on_c, 0, 54, 0
2, 6000, Note_on_c, 0, 55, 80
2, 6059, Note_on_c, 0, 55, 0
2, 6060, Note_on_c, 0, 54, 80
2, 6119, Note_on_c, 0, 54, 0
2, 6120, Note_on_c, 0, 55, 80
2, 6179, Note_on_c, 0, 55, 0
2, 6180, Note_on_c, 0, 54, 80
2, 6239, Note_on_c, 0, 54, 0
2, 6240, Note_on_c, 0, 52, 80
2, 6479, Note_on_c, 0, 52, 0
2, 6480, Note_on_c, 0, 54, 80
2, 6719, Note_on_c, 0, 54, 0
2, 6720, Note_on_c, 0, 50, 80
2, 6959, Note_on_c, 0, 50, 0
2, 6960, Note_on_c, 0, 52, 80
2, 7199, Note_on_c, 0, 52, 0
2, 7200, Note_on_c, 0, 48, 80
2, 7439, Note_on_c, 0, 48, 0
2, 7440, Note_on_c, 0, 50, 80
2, 7679, Note_on_c, 0, 50, 0
2, 7680, Note_on_c, 0, 47, 80
2, 7680, Note_on_c, 0, 62, 80
2, 7739, Note_on_c, 0, 62, 0
2, 7740, Note_on_c, 0, 60, 80
2, 7799, Note_on_c, 0, 60, 0
2, 7800, Note_on_c, 0, 62, 80
2, 7919, Note_on_c, 0, 47, 0
2, 7919, Note_on_c, 0, 62, 0
2, 7920, Note_on_c, 0, 50, 80
2, 8159, Note_on_c, 0, 50, 0
2, 8160, Note_on_c, 0, 52, 80
2, 8399, Note_on_c, 0, 52, 0
2, 8400, Note_on_c, 0, 54, 80
2, 8639, Note_on_c, 0, 54, 0
2, 8640, Note_on_c, 0, 55, 80
2, 8640, Note_on_c, 0, 64, 80
2, 8699, Note_on_c, 0, 64, 0
2, 8700, Note_on_c, 0, 62, 80
2, 8759, Note_on_c, 0, 62, 0
2, 8760, Note_on_c, 0, 64, 80
2, 8819, Note_on_c, 0, 64, 0
2, 8820, Note_on_c, 0, 62, 80
2, 8879, Note_on_c, 0, 62, 0
2, 8880, Note_on_c, 0, 64, 80
2, 8939, Note_on_c, 0, 64, 0
2, 8940, Note_on_c, 0, 62, 80
2, 8999, Note_on_c, 0, 62, 0
2, 9000, Note_on_c, 0, 64, 80
2, 9059, Note_on_c, 0, 64, 0
2, 9060, Note_on_c, 0, 62, 80
2, 9119, Note_on_c, 0, 55, 0
2, 9119, Note_on_c, 0, 62, 0
2, 9120, Note_on_c, 0, 47, 80
2, 9120, Note_on_c, 0, 64, 80
2, 9179, Note_on_c, 0, 64, 0
2, 9180, Note_on_c, 0, 62, 80
2, 9239, Note_on_c, 0, 62, 0
2, 9240, Note_on_c, 0, 64, 80
2, 9299, Note_on_c, 0, 64, 0
2, 9300, Note_on_c, 0, 62, 80
2, 9359, Note_on_c, 0, 62, 0
2, 9360, Note_on_c, 0, 60, 80
2, 9479, Note_on_c, 0, 60, 0
2, 9480, Note_on_c, 0, 62, 80
2, 9599, Note_on_c, 0, 47, 0
2, 9599, Note_on_c, 0, 62, 0
2, 9600, Note_on_c, 0, 48, 80
2, 9600, Note_on_c, 0, 64, 80
2, 10079, Note_on_c, 0, 64, 0
2, 10080, Note_on_c, 0, 60, 80
2, 10559, Note_on_c, 0, 48, 0
2, 10559, Note_on_c, 0, 60, 0
2, 10560, Note_on_c, 0, 57, 80
2, 11039, Note_on_c, 0, 57, 0
2, 11040, Note_on_c, 0, 45, 80
2, 11040, Note_on_c, 0, 60, 80
2, 11519, Note_on_c, 0, 45, 0
2, 11519, Note_on_c, 0, 60, 0
2, 11520, Note_on_c, 0, 57, 80
2, 11999, Note_on_c, 0, 57, 0
2, 12000, Note_on_c, 0, 62, 80
2, 12479, Note_on_c, 0, 62, 0
2, 12480, Note_on_c, 0, 50, 80
2, 12959, Note_on_c, 0, 50, 0
2, 12960, Note_on_c, 0, 60, 80
2, 13439, Note_on_c, 0, 60, 0
2, 13440, Note_on_c, 0, 43, 80
2, 13440, Note_on_c, 0, 60, 80
2, 13499, Note_on_c, 0, 60, 0
2, 13500, Note_on_c, 0, 59, 80
2, 13559, Note_on_c, 0, 59, 0
2, 13560, Note_on_c, 0, 60, 80
2, 13619, Note_on_c, 0, 60, 0
2, 13620, Note_on_c, 0, 59, 80
2, 13679, Note_on_c, 0, 59, 0
2, 13680, Note_on_c, 0, 60, 80
2, 13739, Note_on_c, 0, 60, 0
2, 13740, Note_on_c, 0, 59, 80
2, 13799, Note_on_c, 0, 59, 0
2, 13800, Note_on_c, 0, 60, 80
2, 13859, Note_on_c, 0, 60, 0
2, 13860, Note_on_c, 0, 59, 80
2, 13919, Note_on_c, 0, 43, 0
2, 13919, Note_on_c, 0, 59, 0
2, 13920, Note_on_c, 0, 50, 80
2, 13920, Note_on_c, 0, 60, 80
2, 13979, Note_on_c, 0, 60, 0
2, 13980, Note_on_c, 0, 59, 80
2, 14039, Note_on_c, 0, 59, 0
2, 14040, Note_on_c, 0, 57, 80
2, 14159, Note_on_c, 0, 57, 0
2, 14160, Note_on_c, 0, 59, 80
2, 14399, Note_on_c, 0, 50, 0
2, 14399, Note_on_c, 0, 59, 0
2, 14400, Note_on_c, 0, 47, 80
2, 14400, Note_on_c, 0, 55, 80
2, 14639, Note_on_c, 0, 55, 0
2, 14640, Note_on_c, 0, 59, 80
2, 14879, Note_on_c, 0, 47, 0
2, 14879, Note_on_c, 0, 59, 0
2, 14880, Note_on_c, 0, 50, 80
2, 14880, Note_on_c, 0, 57, 80
2, 15119, Note_on_c, 0, 57, 0
2, 15120, Note_on_c, 0, 60, 80
2, 15359, Note_on_c, 0, 50, 0
2, 15359, Note_on_c, 0, 60, 0
2, 15360, Note_on_c, 0, 55, 80
2, 15360, Note_on_c, 0, 59, 80
2, 15599, Note_on_c, 0, 59, 0
2, 15600, Note_on_c, 0, 57, 80
2, 15839, Note_on_c, 0, 57, 0
2, 15840, Note_on_c, 0, 59, 80
2, 16319, Note_on_c, 0, 55, 0
2, 16319, Note_on_c, 0, 59, 0
2, 16320, Note_on_c, 0, 64, 80
2, 16800, Note_on_c, 0, 52, 80
2, 17279, Note_on_c, 0, 52, 0
2, 17279, Note_on_c, 0, 64, 0
2, 17280, Note_on_c, 0, 54, 80
2, 17760, Note_on_c, 0, 57, 80
2, 18239, Note_on_c, 0, 54, 0
2, 18239, Note_on_c, 0, 57, 0
2, 18240, Note_on_c, 0, 62, 80
2, 18720, Note_on_c, 0, 50, 80
2, 19199, Note_on_c, 0, 50, 0
2, 19199, Note_on_c, 0, 62, 0
2, 19200, Note_on_c, 0, 55, 80
2, 19680, Note_on_c, 0, 59, 80
2, 20159, Note_on_c, 0, 55, 0
2, 20159, Note_on_c, 0, 59, 0
2, 20160, Note_on_c, 0, 64, 80
2, 20640, Note_on_c, 0, 52, 80
2, 21119, Note_on_c, 0, 52, 0
2, 21119, Note_on_c, 0, 64, 0
2, 21120, Note_on_c, 0, 57, 80
2, 21600, Note_on_c, 0, 62, 80
2, 22079, Note_on_c, 0, 57, 0
2, 22079, Note_on_c, 0, 62, 0
2, 22080, Note_on_c, 0, 61, 80
2, 22559, Note_on_c, 0, 61, 0
2, 22560, Note_on_c, 0, 55, 80
2, 22560, Note_on_c, 0, 64, 80
2, 23039, Note_on_c, 0, 55, 0
2, 23039, Note_on_c, 0, 64, 0
2, 23040, Note_on_c, 0, 54, 80
2, 23040, Note_on_c, 0, 57, 80
2, 23279, Note_on_c, 0, 57, 0
2, 23280, Note_on_c, 0, 59, 80
2, 23519, Note_on_c, 0, 59, 0
2, 23520, Note_on_c, 0, 57, 80
2, 23759, Note_on_c, 0, 57, 0
2, 23760, Note_on_c, 0, 55, 80
2, 23999, Note_on_c, 0, 54, 0
2, 23999, Note_on_c, 0, 55, 0
2, 24000, Note_on_c, 0, 54, 80
2, 24480, Note_on_c, 0, 50, 80
2, 24959, Note_on_c, 0, 50, 0
2, 24959, Note_on_c, 0, 54, 0
2, 24960, Note_on_c, 0, 43, 80
2, 24960, Note_on_c, 0, 55, 80
2, 25439, Note_on_c, 0, 43, 0
2, 25440, Note_on_c, 0, 47, 80
2, 25919, Note_on_c, 0, 47, 0
2, 25919, Note_on_c, 0, 55, 0
2, 25920, Note_on_c, 0, 43, 80
2, 26399, Note_on_c, 0, 43, 0
2, 26400, Note_on_c, 0, 40, 80
2, 26879, Note_on_c, 0, 40, 0
2, 26880, Note_on_c, 0, 45, 80
2, 27360, Note_on_c, 0, 52, 80
2, 27839, Note_on_c, 0, 45, 0
2, 27839, Note_on_c, 0, 52, 0
2, 27840, Note_on_c, 0, 57, 80
2, 28320, Note_on_c, 0, 45, 80
2, 28799, Note_on_c, 0, 45, 0
2, 28799, Note_on_c, 0, 57, 0
2, 28800, Note_on_c, 0, 50, 80
2, 29040, Note_on_c, 0, 57, 80
2, 29279, Note_on_c, 0, 57, 0
2, 29280, Note_on_c, 0, 55, 80
2, 29519, Note_on_c, 0, 55, 0
2, 29520, Note_on_c, 0, 57, 80
2, 29759, Note_on_c, 0, 57, 0
2, 29760, Note_on_c, 0, 54, 80
2, 30719, Note_on_c, 0, 50, 0
2, 30719, Note_on_c, 0, 54, 0
2, 30720, Note_on_c, 0, 55, 80
2, 30779, Note_on_c, 0, 55, 0
2, 30780, Note_on_c, 0, 54, 80
2, 30839, Note_on_c, 0, 54, 0
2, 30840, Note_on_c, 0, 55, 80
2, 30959, Note_on_c, 0, 55, 0
2, 31680, Note_on_c, 0, 57, 80
2, 31739, Note_on_c, 0, 57, 0
2, 31740, Note_on_c, 0, 55, 80
2, 31799, Note_on_c, 0, 55, 0
2, 31800, Note_on_c, 0, 57, 80
2, 31859, Note_on_c, 0, 57, 0
2, 31860, Note_on_c, 0, 55, 80
2, 31919, Note_on_c, 0, 55, 0
2, 31920, Note_on_c, 0, 57, 80
2, 31979, Note_on_c, 0, 57, 0
2, 31980, Note_on_c, 0, 55, 80
2, 32039, Note_on_c, 0, 55, 0
2, 32040, Note_on_c, 0, 57, 80
2, 32099, Note_on_c, 0, 57, 0
2, 32100, Note_on_c, 0, 55, 80
2, 32159, Note_on_c, 0, 55, 0
2, 32160, Note_on_c, 0, 57, 80
2, 32219, Note_on_c, 0, 57, 0
2, 32220, Note_on_c, 0, 55, 80
2, 32279, Note_on_c, 0, 55, 0
2, 32280, Note_on_c, 0, 57, 80
2, 32339, Note_on_c, 0, 57, 0
2, 32340, Note_on_c, 0, 55, 80
2, 32399, Note_on_c, 0, 55, 0
2, 32400, Note_on_c, 0, 54, 80
2, 32519, Note_on_c, 0, 54, 0
2, 32520, Note_on_c, 0, 55, 80
2, 32639, Note_on_c, 0, 55, 0
2, 32640, Note_on_c, 0, 57, 80
2, 33119, Note_on_c, 0, 57, 0
2, 33120, Note_on_c, 0, 54, 80
2, 33599, Note_on_c, 0, 54, 0
2, 33600, Note_on_c, 0, 50, 80
2, 34079, Note_on_c, 0, 50, 0
2, 34080, Note_on_c, 0, 54, 80
2, 34559, Note_on_c, 0, 54, 0
2, 34560, Note_on_c, 0, 52, 80
2, 35039, Note_on_c, 0, 52, 0
2, 35040, Note_on_c, 0, 57, 80
2, 35519, Note_on_c, 0, 57, 0
2, 35520, Note_on_c, 0, 45, 80
2, 35999, Note_on_c, 0, 45, 0
2, 36000, Note_on_c, 0, 55, 80
2, 36479, Note_on_c, 0, 55, 0
2, 36480, Note_on_c, 0, 55, 80
2, 36539, Note_on_c, 0, 55, 0
2, 36540, Note_on_c, 0, 54, 80
2, 36599, Note_on_c, 0, 54, 0
2, 36600, Note_on_c, 0, 55, 80
2, 36659, Note_on_c, 0, 55, 0
2, 36660, Note_on_c, 0, 54, 80
2, 36719, Note_on_c, 0, 54, 0
2, 36720, Note_on_c, 0, 55, 80
2, 36779, Note_on_c, 0, 55, 0
2, 36780, Note_on_c, 0, 54, 80
2, 36839, Note_on_c, 0, 54, 0
2, 36840, Note_on_c, 0, 55, 80
2, 36899, Note_on_c, 0, 55, 0
2, 36900, Note_on_c, 0, 54, 80
2, 36959, Note_on_c, 0, 54, 0
2, 36960, Note_on_c, 0, 52, 80
2, 37199, Note_on_c, 0, 52, 0
2, 37200, Note_on_c, 0, 54, 80
2, 37439, Note_on_c, 0, 54, 0
2, 37440, Note_on_c, 0, 50, 80
2, 37679, Note_on_c, 0, 50, 0
2, 37680, Note_on_c, 0, 52, 80
2, 37919, Note_on_c, 0, 52, 0
2, 37920, Note_on_c, 0, 48, 80
2, 38159, Note_on_c, 0, 48, 0
2, 38160, Note_on_c, 0, 50, 80
2, 38399, Note_on_c, 0, 50, 0
2, 38400, Note_on_c, 0, 47, 80
2, 38400, Note_on_c, 0, 62, 80
2, 38459, Note_on_c, 0, 62, 0
2, 38460, Note_on_c, 0, 60, 80
2, 38519, Note_on_c, 0, 60, 0
2, 38520, Note_on_c, 0, 62, 80
2, 38639, Note_on_c, 0, 47, 0
2, 38639, Note_on_c, 0, 62, 0
2, 38640, Note_on_c, 0, 50, 80
2, 38879, Note_on_c, 0, 50, 0
2, 38880, Note_on_c, 0, 52, 80
2, 39119, Note_on_c, 0, 52, 0
2, 39120, Note_on_c, 0, 54, 80
2, 39359, Note_on_c, 0, 54, 0
2, 39360, Note_on_c, 0, 55, 80
2, 39360, Note_on_c, 0, 64, 80
2, 39419, Note_on_c, 0, 64, 0
2, 39420, Note_on_c, 0, 62, 80
2, 39479, Note_on_c, 0, 62, 0
2, 39480, Note_on_c, 0, 64, 80
2, 39539, Note_on_c, 0, 64, 0
2, 39540, Note_on_c, 0, 62, 80
2, 39599, Note_on_c, 0, 62, 0
2, 39600, Note_on_c, 0, 64, 80
2, 39659, Note_on_c, 0, 64, 0
2, 39660, Note_on_c, 0, 62, 80
2, 39719, Note_on_c, 0, 62, 0
2, 39720, Note_on_c, 0, 64, 80
2, 39779, Note_on_c, 0, 64, 0
2, 39780, Note_on_c, 0, 62, 80
2, 39839, Note_on_c, 0, 55, 0
2, 39839, Note_on_c, 0, 62, 0
2, 39840, Note_on_c, 0, 47, 80
2, 39840, Note_on_c, 0, 64, 80
2, 39899, Note_on_c, 0, 64, 0
2, 39900, Note_on_c, 0, 62, 80
2, 39959, Note_on_c, 0, 62, 0
2, 39960, Note_on_c, 0, 64, 80
2, 40019, Note_on_c, 0, 64, 0
2, 40020, Note_on_c, 0, 62, 80
2, 40079, Note_on_c, 0, 62, 0
2, 40080, Note_on_c, 0, 60, 80
2, 40199, Note_on_c, 0, 60, 0
2, 40200, Note_on_c, 0, 62, 80
2, 40319, Note_on_c, 0, 47, 0
2, 40319, Note_on_c, 0, 62, 0
2, 40320, Note_on_c, 0, 48, 80
2, 40320, Note_on_c, 0, 64, 80
2, 40799, Note_on_c, 0, 64, 0
2, 40800, Note_on_c, 0, 60, 80
2, 41279, Note_on_c, 0, 48, 0
2, 41279, Note_on_c, 0, 60, 0
2, 41280, Note_on_c, 0, 57, 80
2, 41759, Note_on_c, 0, 57, 0
2, 41760, Note_on_c, 0, 45, 80
2, 41760, Note_on_c, 0, 60, 80
2, 42239, Note_on_c, 0, 45, 0
2, 42239, Note_on_c, 0, 60, 0
2, 42240, Note_on_c, 0, 57, 80
2, 42719, Note_on_c, 0, 57, 0
2, 42720, Note_on_c, 0, 62, 80
2, 43199, Note_on_c, 0, 62, 0
2, 43200, Note_on_c, 0, 50, 80
2, 43679, Note_on_c, 0, 50, 0
2, 43680, Note_on_c, 0, 60, 80
2, 44159, Note_on_c, 0, 60, 0
2, 44160, Note_on_c, 0, 43, 80
2, 44160, Note_on_c, 0, 60, 80
2, 44219, Note_on_c, 0, 60, 0
2, 44220, Note_on_c, 0, 59, 80
2, 44279, Note_on_c, 0, 59, 0
2, 44280, Note_on_c, 0, 60, 80
2, 44339, Note_on_c, 0, 60, 0
2, 44340, Note_on_c, 0, 59, 80
2, 44399, Note_on_c, 0, 59, 0
2, 44400, Note_on_c, 0, 60, 80
2, 44459, Note_on_c, 0, 60, 0
2, 44460, Note_on_c, 0, 59, 80
2, 44519, Note_on_c, 0, 59, 0
2, 44520, Note_on_c, 0, 60, 80
2, 44579, Note_on_c, 0, 60, 0
2, 44580, Note_on_c, 0, 59, 80
2, 44639, Note_on_c, 0, 43, 0
2, 44639, Note_on_c, 0, 59, 0
2, 44640, Note_on_c, 0, 50, 80
2, 44640, Note_on_c, 0, 60, 80
2, 44699, Note_on_c, 0, 60, 0
2, 44700, Note_on_c, 0, 59, 80
2, 44759, Note_on_c, 0, 59, 0
2, 44760, Note_on_c, 0, 57, 80
2, 44879, Note_on_c, 0, 57, 0
2, 44880, Note_on_c, 0, 59, 80
2, 45119, Note_on_c, 0, 50, 0
2, 45119, Note_on_c, 0, 59, 0
2, 45120, Note_on_c, 0, 47, 80
2, 45120, Note_on_c, 0, 55, 80
2, 45359, Note_on_c, 0, 55, 0
2, 45360, Note_on_c, 0, 59, 80
2, 45599, Note_on_c, 0, 47, 0
2, 45599, Note_on_c, 0, 59, 0
2, 45600, Note_on_c, 0, 50, 80
2, 45600, Note_on_c, 0, 57, 80
2, 45839, Note_on_c, 0, 57, 0
2, 45840, Note_on_c, 0, 60, 80
2, 46079, Note_on_c, 0, 50, 0
2, 46079, Note_on_c, 0, 60, 0
2, 46080, Note_on_c, 0, 55, 80
2, 46080, Note_on_c, 0, 59, 80
2, 46319, Note_on_c, 0, 59, 0
2, 46320, Note_on_c, 0, 57, 80
2, 46559, Note_on_c, 0, 57, 0
2, 46560, Note_on_c, 0, 59, 80
2, 47039, Note_on_c, 0, 55, 0
2, 47039, Note_on_c, 0, 59, 0
2, 47040, Note_on_c, 0, 64, 80
2, 47520, Note_on_c, 0, 52, 80
2, 47999, Note_on_c, 0, 52, 0
2, 47999, Note_on_c, 0, 64, 0
2, 48000, Note_on_c, 0, 54, 80
2, 48480, Note_on_c, 0, 57, 80
2, 48959, Note_on_c, 0, 54, 0
2, 48959, Note_on_c, 0, 57, 0
2, 48960, Note_on_c, 0, 62, 80
2, 49440, Note_on_c, 0, 50, 80
2, 49919, Note_on_c, 0, 50, 0
2, 49919, Note_on_c, 0, 62, 0
2, 49920, Note_on_c, 0, 55, 80
2, 50400, Note_on_c, 0, 59, 80
2, 50879, Note_on_c, 0, 55, 0
2, 50879, Note_on_c, 0, 59, 0
2, 50880, Note_on_c, 0, 64, 80
2, 51360, Note_on_c, 0, 52, 80
2, 51839, Note_on_c, 0, 52, 0
2, 51839, Note_on_c, 0, 64, 0
2, 51840, Note_on_c, 0, 57, 80
2, 52320, Note_on_c, 0, 62, 80
2, 52799, Note_on_c, 0, 57, 0
2, 52799, Note_on_c, 0, 62, 0
2, 52800, Note_on_c, 0, 61, 80
2, 53279, Note_on_c, 0, 61, 0
2, 53280, Note_on_c, 0, 55, 80
2, 53280, Note_on_c, 0, 64, 80
2, 53759, Note_on_c, 0, 55, 0
2, 53759, Note_on_c, 0, 64, 0
2, 53760, Note_on_c, 0, 54, 80
2, 53760, Note_on_c, 0, 57, 80
2, 53999, Note_on_c, 0, 57, 0
2, 54000, Note_on_c, 0, 59, 80
2, 54239, Note_on_c, 0, 59, 0
2, 54240, Note_on_c, 0, 57, 80
2, 54479, Note_on_c, 0, 57, 0
2, 54480, Note_on_c, 0, 55, 80
2, 54719, Note_on_c, 0, 54, 0
2, 54719, Note_on_c, 0, 55, 0
2, 54720, Note_on_c, 0, 54, 80
2, 55200, Note_on_c, 0, 50, 80
2, 55679, Note_on_c, 0, 50, 0
2, 55679, Note_on_c, 0, 54, 0
2, 55680, Note_on_c, 0, 43, 80
2, 55680, Note_on_c, 0, 55, 80
2, 56159, Note_on_c, 0, 43, 0
2, 56160, Note_on_c, 0, 47, 80
2, 56639, Note_on_c, 0, 47, 0
2, 56639, Note_on_c, 0, 55, 0
2, 56640, Note_on_c, 0, 43, 80
2, 57119, Note_on_c, 0, 43, 0
2, 57120, Note_on_c, 0, 40, 80
2, 57599, Note_on_c, 0, 40, 0
2, 57600, Note_on_c, 0, 45, 80
2, 58080, Note_on_c, 0, 52, 80
2, 58559, Note_on_c, 0, 45, 0
2, 58559, Note_on_c, 0, 52, 0
2, 58560, Note_on_c, 0, 57, 80
2, 59040, Note_on_c, 0, 45, 80
2, 59519, Note_on_c, 0, 45, 0
2, 59519, Note_on_c, 0, 57, 0
2, 59520, Note_on_c, 0, 50, 80
2, 59760, Note_on_c, 0, 57, 80
2, 59999, Note_on_c, 0, 57, 0
2, 60000, Note_on_c, 0, 55, 80
2, 60239, Note_on_c, 0, 55, 0
2, 60240, Note_on_c, 0, 57, 80
2, 60479, Note_on_c, 0, 57, 0
2, 60480, Note_on_c, 0, 54, 80
2, 61439, Note_on_c, 0, 50, 0
2, 61439, Note_on_c, 0, 54, 0
2, 61440, Note_on_c, 0, 50, 80
2, 61679, Note_on_c, 0, 50, 0
2, 61680, Note_on_c, 0, 52, 80
2, 61919, Note_on_c, 0, 52, 0
2, 61920, Note_on_c, 0, 54, 80
2, 62159, Note_on_c, 0, 54, 0
2, 62160, Note_on_c, 0, 55, 80
2, 62399, Note_on_c, 0, 55, 0
2, 62400, Note_on_c, 0, 57, 80
2, 62879, Note_on_c, 0, 57, 0
2, 62880, Note_on_c, 0, 48, 80
2, 63359, Note_on_c, 0, 48, 0
2, 63360, Note_on_c, 0, 47, 80
2, 63599, Note_on_c, 0, 47, 0
2, 63600, Note_on_c, 0, 50, 80
2, 63839, Note_on_c, 0, 50, 0
2, 63840, Note_on_c, 0, 52, 80
2, 64079, Note_on_c, 0, 52, 0
2, 64080, Note_on_c, 0, 54, 80
2, 64319, Note_on_c, 0, 54, 0
2, 64320, Note_on_c, 0, 55, 80
2, 64559, Note_on_c, 0, 55, 0
2, 64560, Note_on_c, 0, 57, 80
2, 64799, Note_on_c, 0, 57, 0
2, 64800, Note_on_c, 0, 59, 80
2, 65279, Note_on_c, 0, 59, 0
2, 65760, Note_on_c, 0, 57, 80
2, 65999, Note_on_c, 0, 57, 0
2, 66000, Note_on_c, 0, 56, 80
2, 66239, Note_on_c, 0, 56, 0
2, 66240, Note_on_c, 0, 57, 80
2, 67199, Note_on_c, 0, 57, 0
2, 67680, Note_on_c, 0, 54, 80
2, 68159, Note_on_c, 0, 54, 0
2, 68160, Note_on_c, 0, 59, 80
2, 68639, Note_on_c, 0, 59, 0
2, 68640, Note_on_c, 0, 57, 80
2, 69119, Note_on_c, 0, 57, 0
2, 69120, Note_on_c, 0, 55, 80
2, 69359, Note_on_c, 0, 55, 0
2, 69360, Note_on_c, 0, 57, 80
2, 69599, Note_on_c, 0, 57, 0
2, 69600, Note_on_c, 0, 59, 80
2, 69839, Note_on_c, 0, 59, 0
2, 69840, Note_on_c, 0, 57, 80
2, 70079, Note_on_c, 0, 57, 0
2, 70080, Note_on_c, 0, 55, 80
2, 70319, Note_on_c, 0, 55, 0
2, 70320, Note_on_c, 0, 54, 80
2, 70559, Note_on_c, 0, 54, 0
2, 70560, Note_on_c, 0, 55, 80
2, 70799, Note_on_c, 0, 55, 0
2, 70800, Note_on_c, 0, 52, 80
2, 71039, Note_on_c, 0, 52, 0
2, 71040, Note_on_c, 0, 57, 80
2, 71279, Note_on_c, 0, 57, 0
2, 71280, Note_on_c, 0, 59, 80
2, 71519, Note_on_c, 0, 59, 0
2, 71520, Note_on_c, 0, 60, 80
2, 71759, Note_on_c, 0, 60, 0
2, 71760, Note_on_c, 0, 59, 80
2, 71999, Note_on_c, 0, 59, 0
2, 72000, Note_on_c, 0, 57, 80
2, 72239, Note_on_c, 0, 57, 0
2, 72240, Note_on_c, 0, 55, 80
2, 72479, Note_on_c, 0, 55, 0
2, 72480, Note_on_c, 0, 57, 80
2, 72719, Note_on_c, 0, 57, 0
2, 72720, Note_on_c, 0, 54, 80
2, 72959, Note_on_c, 0, 54, 0
2, 72960, Note_on_c, 0, 59, 80
2, 73199, Note_on_c, 0, 59, 0
2, 73200, Note_on_c, 0, 57, 80
2, 73439, Note_on_c, 0, 57, 0
2, 73440, Note_on_c, 0, 55, 80
2, 73679, Note_on_c, 0, 55, 0
2, 73680, Note_on_c, 0, 57, 80
2, 73919, Note_on_c, 0, 57, 0
2, 73920, Note_on_c, 0, 59, 80
2, 74159, Note_on_c, 0, 59, 0
2, 74160, Note_on_c, 0, 57, 80
2, 74399, Note_on_c, 0, 57, 0
2, 74400, Note_on_c, 0, 59, 80
2, 74639, Note_on_c, 0, 59, 0
2, 74640, Note_on_c, 0, 47, 80
2, 74879, Note_on_c, 0, 47, 0
2, 74880, Note_on_c, 0, 52, 80
2, 75119, Note_on_c, 0, 52, 0
2, 75120, Note_on_c, 0, 47, 80
2, 75359, Note_on_c, 0, 47, 0
2, 75360, Note_on_c, 0, 45, 80
2, 75599, Note_on_c, 0, 45, 0
2, 75600, Note_on_c, 0, 47, 80
2, 75839, Note_on_c, 0, 47, 0
2, 75840, Note_on_c, 0, 43, 80
2, 76079, Note_on_c, 0, 43, 0
2, 76080, Note_on_c, 0, 42, 80
2, 76319, Note_on_c, 0, 42, 0
2, 76320, Note_on_c, 0, 43, 80
2, 76559, Note_on_c, 0, 43, 0
2, 76560, Note_on_c, 0, 40, 80
2, 76799, Note_on_c, 0, 40, 0
2, 76800, Note_on_c, 0, 49, 80
2, 76859, Note_on_c, 0, 49, 0
2, 76860, Note_on_c, 0, 47, 80
2, 76919, Note_on_c, 0, 47, 0
2, 76920, Note_on_c, 0, 49, 80
2, 77039, Note_on_c, 0, 49, 0
2, 77760, Note_on_c, 0, 50, 80
2, 77819, Note_on_c, 0, 50, 0
2, 77820, Note_on_c, 0, 49, 80
2, 77879, Note_on_c, 0, 49, 0
2, 77880, Note_on_c, 0, 50, 80
2, 77939, Note_on_c, 0, 50, 0
2, 77940, Note_on_c, 0, 49, 80
2, 77999, Note_on_c, 0, 49, 0
2, 78000, Note_on_c, 0, 50, 80
2, 78059, Note_on_c, 0, 50, 0
2, 78060, Note_on_c, 0, 49, 80
2, 78119, Note_on_c, 0, 49, 0
2, 78120, Note_on_c, 0, 50, 80
2, 78179, Note_on_c, 0, 50, 0
2, 78180, Note_on_c, 0, 49, 80
2, 78239, Note_on_c, 0, 49, 0
2, 78240, Note_on_c, 0, 50, 80
2, 78299, Note_on_c, 0, 50, 0
2, 78300, Note_on_c, 0, 49, 80
2, 78359, Note_on_c, 0, 49, 0
2, 78360, Note_on_c, 0, 50, 80
2, 78419, Note_on_c, 0, 50, 0
2, 78420, Note_on_c, 0, 49, 80
2, 78479, Note_on_c, 0, 49, 0
2, 78480, Note_on_c, 0, 47, 80
2, 78599, Note_on_c, 0, 47, 0
2, 78600, Note_on_c, 0, 49, 80
2, 78719, Note_on_c, 0, 49, 0
2, 78720, Note_on_c, 0, 50, 80
2, 79199, Note_on_c, 0, 50, 0
2, 79200, Note_on_c, 0, 47, 80
2, 79679, Note_on_c, 0, 47, 0
2, 79680, Note_on_c, 0, 43, 80
2, 80159, Note_on_c, 0, 43, 0
2, 80160, Note_on_c, 0, 47, 80
2, 80639, Note_on_c, 0, 47, 0
2, 80640, Note_on_c, 0, 48, 80
2, 81119, Note_on_c, 0, 48, 0
2, 81120, Note_on_c, 0, 52, 80
2, 81599, Note_on_c, 0, 52, 0
2, 81600, Note_on_c, 0, 45, 80
2, 82079, Note_on_c, 0, 45, 0
2, 82080, Note_on_c, 0, 55, 80
2, 82559, Note_on_c, 0, 55, 0
2, 82560, Note_on_c, 0, 55, 80
2, 82619, Note_on_c, 0, 55, 0
2, 82620, Note_on_c, 0, 54, 80
2, 82679, Note_on_c, 0, 54, 0
2, 82680, Note_on_c, 0, 55, 80
2, 82739, Note_on_c, 0, 55, 0
2, 82740, Note_on_c, 0, 54, 80
2, 82799, Note_on_c, 0, 54, 0
2, 82800, Note_on_c, 0, 55, 80
2, 82859, Note_on_c, 0, 55, 0
2, 82860, Note_on_c, 0, 54, 80
2, 82919, Note_on_c, 0, 54, 0
2, 82920, Note_on_c, 0, 55, 80
2, 82979, Note_on_c, 0, 55, 0
2, 82980, Note_on_c, 0, 54, 80
2, 83039, Note_on_c, 0, 54, 0
2, 83040, Note_on_c, 0, 52, 80
2, 83279, Note_on_c, 0, 52, 0
2, 83280, Note_on_c, 0, 54, 80
2, 83519, Note_on_c, 0, 54, 0
2, 83520, Note_on_c, 0, 50, 80
2, 83759, Note_on_c, 0, 50, 0
2, 83760, Note_on_c, 0, 52, 80
2, 83999, Note_on_c, 0, 52, 0
2, 84000, Note_on_c, 0, 54, 80
2, 84239, Note_on_c, 0, 54, 0
2, 84240, Note_on_c, 0, 50, 80
2, 84479, Note_on_c, 0, 50, 0
2, 84480, Note_on_c, 0, 55, 80
2, 84480, Note_on_c, 0, 62, 80
2, 84959, Note_on_c, 0, 55, 0
2, 84960, Note_on_c, 0, 57, 80
2, 85439, Note_on_c, 0, 57, 0
2, 85439, Note_on_c, 0, 62, 0
2, 85440, Note_on_c, 0, 59, 80
2, 85440, Note_on_c, 0, 64, 80
2, 85499, Note_on_c, 0, 64, 0
2, 85500, Note_on_c, 0, 62, 80
2, 85559, Note_on_c, 0, 62, 0
2, 85560, Note_on_c, 0, 64, 80
2, 85619, Note_on_c, 0, 64, 0
2, 85620, Note_on_c, 0, 62, 80
2, 85679, Note_on_c, 0, 62, 0
2, 85680, Note_on_c, 0, 64, 80
2, 85739, Note_on_c, 0, 64, 0
2, 85740, Note_on_c, 0, 62, 80
2, 85799, Note_on_c, 0, 62, 0
2, 85800, Note_on_c, 0, 64, 80
2, 85859, Note_on_c, 0, 64, 0
2, 85860, Note_on_c, 0, 62, 80
2, 85919, Note_on_c, 0, 59, 0
2, 85919, Note_on_c, 0, 62, 0
2, 85920, Note_on_c, 0, 55, 80
2, 85920, Note_on_c, 0, 64, 80
2, 85979, Note_on_c, 0, 64, 0
2, 85980, Note_on_c, 0, 62, 80
2, 86039, Note_on_c, 0, 62, 0
2, 86040, Note_on_c, 0, 64, 80
2, 86099, Note_on_c, 0, 64, 0
2, 86100, Note_on_c, 0, 62, 80
2, 86159, Note_on_c, 0, 62, 0
2, 86160, Note_on_c, 0, 60, 80
2, 86279, Note_on_c, 0, 60, 0
2, 86280, Note_on_c, 0, 62, 80
2, 86399, Note_on_c, 0, 55, 0
2, 86399, Note_on_c, 0, 62, 0
2, 86400, Note_on_c, 0, 50, 80
2, 86400, Note_on_c, 0, 64, 80
2, 86879, Note_on_c, 0, 64, 0
2, 86880, Note_on_c, 0, 60, 80
2, 87359, Note_on_c, 0, 50, 0
2, 87359, Note_on_c, 0, 60, 0
2, 87360, Note_on_c, 0, 57, 80
2, 87839, Note_on_c, 0, 57, 0
2, 87840, Note_on_c, 0, 57, 80
2, 87840, Note_on_c, 0, 60, 80
2, 88319, Note_on_c, 0, 57, 0
2, 88319, Note_on_c, 0, 60, 0
2, 88320, Note_on_c, 0, 50, 80
2, 88320, Note_on_c, 0, 57, 80
2, 88799, Note_on_c, 0, 57, 0
2, 88800, Note_on_c, 0, 62, 80
2, 89279, Note_on_c, 0, 50, 0
2, 89279, Note_on_c, 0, 62, 0
2, 89280, Note_on_c, 0, 50, 80
2, 89759, Note_on_c, 0, 50, 0
2, 89760, Note_on_c, 0, 50, 80
2, 89760, Note_on_c, 0, 60, 80
2, 90239, Note_on_c, 0, 50, 0
2, 90239, Note_on_c, 0, 60, 0
2, 90240, Note_on_c, 0, 55, 80
2, 90240, Note_on_c, 0, 60, 80
2, 90299, Note_on_c, 0, 60, 0
2, 90300, Note_on_c, 0, 59, 80
2, 90359, Note_on_c, 0, 59, 0
2, 90360, Note_on_c, 0, 60, 80
2, 90419, Note_on_c, 0, 60, 0
2, 90420, Note_on_c, 0, 59, 80
2, 90479, Note_on_c, 0, 59, 0
2, 90480, Note_on_c, 0, 60, 80
2, 90539, Note_on_c, 0, 60, 0
2, 90540, Note_on_c, 0, 59, 80
2, 90599, Note_on_c, 0, 59, 0
2, 90600, Note_on_c, 0, 60, 80
2, 90659, Note_on_c, 0, 60, 0
2, 90660, Note_on_c, 0, 59, 80
2, 90719, Note_on_c, 0, 59, 0
2, 90720, Note_on_c, 0, 57, 80
2, 90959, Note_on_c, 0, 57, 0
2, 90960, Note_on_c, 0, 59, 80
2, 91199, Note_on_c, 0, 55, 0
2, 91199, Note_on_c, 0, 59, 0
2, 91200, Note_on_c, 0, 43, 80
2, 91200, Note_on_c, 0, 55, 80
2, 92159, Note_on_c, 0, 43, 0
2, 92159, Note_on_c, 0, 55, 0
2, 92160, Note_on_c, 0, 50, 80
2, 92399, Note_on_c, 0, 50, 0
2, 92400, Note_on_c, 0, 52, 80
2, 92639, Note_on_c, 0, 52, 0
2, 92640, Note_on_c, 0, 54, 80
2, 92879, Note_on_c, 0, 54, 0
2, 92880, Note_on_c, 0, 55, 80
2, 93119, Note_on_c, 0, 55, 0
2, 93120, Note_on_c, 0, 57, 80
2, 93599, Note_on_c, 0, 57, 0
2, 93600, Note_on_c, 0, 48, 80
2, 94079, Note_on_c, 0, 48, 0
2, 94080, Note_on_c, 0, 47, 80
2, 94319, Note_on_c, 0, 47, 0
2, 94320, Note_on_c, 0, 50, 80
2, 94559, Note_on_c, 0, 50, 0
2, 94560, Note_on_c, 0, 52, 80
2, 94799, Note_on_c, 0, 52, 0
2, 94800, Note_on_c, 0, 54, 80
2, 95039, Note_on_c, 0, 54, 0
2, 95040, Note_on_c, 0, 55, 80
2, 95279, Note_on_c, 0, 55, 0
2, 95280, Note_on_c, 0, 57, 80
2, 95519, Note_on_c, 0, 57, 0
2, 95520, Note_on_c, 0, 59, 80
2, 95999, Note_on_c, 0, 59, 0
2, 96480, Note_on_c, 0, 57, 80
2, 96719, Note_on_c, 0, 57, 0
2, 96720, Note_on_c, 0, 56, 80
2, 96959, Note_on_c, 0, 56, 0
2, 96960, Note_on_c, 0, 57, 80
2, 97919, Note_on_c, 0, 57, 0
2, 98400, Note_on_c, 0, 54, 80
2, 98879, Note_on_c, 0, 54, 0
2, 98880, Note_on_c, 0, 59, 80
2, 99359, Note_on_c, 0, 59, 0
2, 99360, Note_on_c, 0, 57, 80
2, 99839, Note_on_c, 0, 57, 0
2, 99840, Note_on_c, 0, 55, 80
2, 100079, Note_on_c, 0, 55, 0
2, 100080, Note_on_c, 0, 57, 80
2, 100319, Note_on_c, 0, 57, 0
2, 100320, Note_on_c, 0, 59, 80
2, 100559, Note_on_c, 0, 59, 0
2, 100560, Note_on_c, 0, 57, 80
2, 100799, Note_on_c, 0, 57, 0
2, 100800, Note_on_c, 0, 55, 80
2, 101039, Note_on_c, 0, 55, 0
2, 101040, Note_on_c, 0, 54, 80
2, 101279, Note_on_c, 0, 54, 0
2, 101280, Note_on_c, 0, 55, 80
2, 101519, Note_on_c, 0, 55, 0
2, 101520, Note_on_c, 0, 52, 80
2, 101759, Note_on_c, 0, 52, 0
2, 101760, Note_on_c, 0, 57, 80
2, 101999, Note_on_c, 0, 57, 0
2, 102000, Note_on_c, 0, 59, 80
2, 102239, Note_on_c, 0, 59, 0
2, 102240, Note_on_c, 0, 60, 80
2, 102479, Note_on_c, 0, 60, 0
2, 102480, Note_on_c, 0, 59, 80
2, 102719, Note_on_c, 0, 59, 0
2, 102720, Note_on_c, 0, 57, 80
2, 102959, Note_on_c, 0, 57, 0
2, 102960, Note_on_c, 0, 55, 80
2, 103199, Note_on_c, 0, 55, 0
2, 103200, Note_on_c, 0, 57, 80
2, 103439, Note_on_c, 0, 57, 0
2, 103440, Note_on_c, 0, 54, 80
2, 103679, Note_on_c, 0, 54, 0
2, 103680, Note_on_c, 0, 59, 80
2, 103919, Note_on_c, 0, 59, 0
2, 103920, Note_on_c, 0, 57, 80
2, 104159, Note_on_c, 0, 57, 0
2, 104160, Note_on_c, 0, 55, 80
2, 104399, Note_on_c, 0, 55, 0
2, 104400, Note_on_c, 0, 57, 80
2, 104639, Note_on_c, 0, 57, 0
2, 104640, Note_on_c, 0, 59, 80
2, 104879, Note_on_c, 0, 59, 0
2, 104880, Note_on_c, 0, 57, 80
2, 105119, Note_on_c, 0, 57, 0
2, 105120, Note_on_c, 0, 59, 80
2, 105359, Note_on_c, 0, 59, 0
2, 105360, Note_on_c, 0, 47, 80
2, 105599, Note_on_c, 0, 47, 0
2, 105600, Note_on_c, 0, 52, 80
2, 105839, Note_on_c, 0, 52, 0
2, 105840, Note_on_c, 0, 47, 80
2, 106079, Note_on_c, 0, 47, 0
2, 106080, Note_on_c, 0, 45, 80
2, 106319, Note_on_c, 0, 45, 0
2, 106320, Note_on_c, 0, 47, 80
2, 106559, Note_on_c, 0, 47, 0
2, 106560, Note_on_c, 0, 43, 80
2, 106799, Note_on_c, 0, 43, 0
2, 106800, Note_on_c, 0, 42, 80
2, 107039, Note_on_c, 0, 42, 0
2, 107040, Note_on_c, 0, 43, 80
2, 107279, Note_on_c, 0, 43, 0
2, 107280, Note_on_c, 0, 40, 80
2, 107519, Note_on_c, 0, 40, 0
2, 107520, Note_on_c, 0, 49, 80
2, 107579, Note_on_c, 0, 49, 0
2, 107580, Note_on_c, 0, 47, 80
2, 107639, Note_on_c, 0, 47, 0
2, 107640, Note_on_c, 0, 49, 80
2, 107759, Note_on_c, 0, 49, 0
2, 108480, Note_on_c, 0, 50, 80
2, 108539, Note_on_c, 0, 50, 0
2, 108540, Note_on_c, 0, 49, 80
2, 108599, Note_on_c, 0, 49, 0
2, 108600, Note_on_c, 0, 50, 80
2, 108659, Note_on_c, 0, 50, 0
2, 108660, Note_on_c, 0, 49, 80
2, 108719, Note_on_c, 0, 49, 0
2, 108720, Note_on_c, 0, 50, 80
2, 108779, Note_on_c, 0, 50, 0
2, 108780, Note_on_c, 0, 49, 80
2, 108839, Note_on_c, 0, 49, 0
2, 108840, Note_on_c, 0, 50, 80
2, 108899, Note_on_c, 0, 50, 0
2, 108900, Note_on_c, 0, 49, 80
2, 108959, Note_on_c, 0, 49, 0
2, 108960, Note_on_c, 0, 50, 80
2, 109019, Note_on_c, 0, 50, 0
2, 109020, Note_on_c, 0, 49, 80
2, 109079, Note_on_c, 0, 49, 0
2, 109080, Note_on_c, 0, 50, 80
2, 109139, Note_on_c, 0, 50, 0
2, 109140, Note_on_c, 0, 49, 80
2, 109199, Note_on_c, 0, 49, 0
2, 109200, Note_on_c, 0, 47, 80
2, 109319, Note_on_c, 0, 47, 0
2, 109320, Note_on_c, 0, 49, 80
2, 109439, Note_on_c, 0, 49, 0
2, 109440, Note_on_c, 0, 50, 80
2, 109919, Note_on_c, 0, 50, 0
2, 109920, Note_on_c, 0, 47, 80
2, 110399, Note_on_c, 0, 47, 0
2, 110400, Note_on_c, 0, 43, 80
2, 110879, Note_on_c, 0, 43, 0
2, 110880, Note_on_c, 0, 47, 80
2, 111359, Note_on_c, 0, 47, 0
2, 111360, Note_on_c, 0, 48, 80
2, 111839, Note_on_c, 0, 48, 0
2, 111840, Note_on_c, 0, 52, 80
2, 112319, Note_on_c, 0, 52, 0
2, 112320, Note_on_c, 0, 45, 80
2, 112799, Note_on_c, 0, 45, 0
2, 112800, Note_on_c, 0, 55, 80
2, 113279, Note_on_c, 0, 55, 0
2, 113280, Note_on_c, 0, 55, 80
2, 113339, Note_on_c, 0, 55, 0
2, 113340, Note_on_c, 0, 54, 80
2, 113399, Note_on_c, 0, 54, 0
2, 113400, Note_on_c, 0, 55, 80
2, 113459, Note_on_c, 0, 55, 0
2, 113460, Note_on_c, 0, 54, 80
2, 113519, Note_on_c, 0, 54, 0
2, 113520, Note_on_c, 0, 55, 80
2, 113579, Note_on_c, 0, 55, 0
2, 113580, Note_on_c, 0, 54, 80
2, 113639, Note_on_c, 0, 54, 0
2, 113640, Note_on_c, 0, 55, 80
2, 113699, Note_on_c, 0, 55, 0
2, 113700, Note_on_c, 0, 54, 80
2, 113759, Note_on_c, 0, 54, 0
2, 113760, Note_on_c, 0, 52, 80
2, 113999, Note_on_c, 0, 52, 0
2, 114000, Note_on_c, 0, 54, 80
2, 114239, Note_on_c, 0, 54, 0
2, 114240, Note_on_c, 0, 50, 80
2, 114479, Note_on_c, 0, 50, 0
2, 114480, Note_on_c, 0, 52, 80
2, 114719, Note_on_c, 0, 52, 0
2, 114720, Note_on_c, 0, 54, 80
2, 114959, Note_on_c, 0, 54, 0
2, 114960, Note_on_c, 0, 50, 80
2, 115199, Note_on_c, 0, 50, 0
2, 115200, Note_on_c, 0, 55, 80
2, 115200, Note_on_c, 0, 62, 80
2, 115679, Note_on_c, 0, 55, 0
2, 115680, Note_on_c, 0, 57, 80
2, 116159, Note_on_c, 0, 57, 0
2, 116159, Note_on_c, 0, 62, 0
2, 116160, Note_on_c, 0, 59, 80
2, 116160, Note_on_c, 0, 64, 80
2, 116219, Note_on_c, 0, 64, 0
2, 116220, Note_on_c, 0, 62, 80
2, 116279, Note_on_c, 0, 62, 0
2, 116280, Note_on_c, 0, 64, 80
2, 116339, Note_on_c, 0, 64, 0
2, 116340, Note_on_c, 0, 62, 80
2, 116399, Note_on_c, 0, 62, 0
2, 116400, Note_on_c, 0, 64, 80
2, 116459, Note_on_c, 0, 64, 0
2, 116460, Note_on_c, 0, 62, 80
2, 116519, Note_on_c, 0, 62, 0
2, 116520, Note_on_c, 0, 64, 80
2, 116579, Note_on_c, 0, 64, 0
2, 116580, Note_on_c, 0, 62, 80
2, 116639, Note_on_c, 0, 59, 0
2, 116639, Note_on_c, 0, 62, 0
2, 116640, Note_on_c, 0, 55, 80
2, 116640, Note_on_c, 0, 64, 80
2, 116699, Note_on_c, 0, 64, 0
2, 116700, Note_on_c, 0, 62, 80
2, 116759, Note_on_c, 0, 62, 0
2, 116760, Note_on_c, 0, 64, 80
2, 116819, Note_on_c, 0, 64, 0
2, 116820, Note_on_c, 0, 62, 80
2, 116879, Note_on_c, 0, 62, 0
2, 116880, Note_on_c, 0, 60, 80
2, 116999, Note_on_c, 0, 60, 0
2, 117000, Note_on_c, 0, 62, 80
2, 117119, Note_on_c, 0, 55, 0
2, 117119, Note_on_c, 0, 62, 0
2, 117120, Note_on_c, 0, 50, 80
2, 117120, Note_on_c, 0, 64, 80
2, 117599, Note_on_c, 0, 64, 0
2, 117600, Note_on_c, 0, 60, 80
2, 118079, Note_on_c, 0, 50, 0
2, 118079, Note_on_c, 0, 60, 0
2, 118080, Note_on_c, 0, 57, 80
2, 118559, Note_on_c, 0, 57, 0
2, 118560, Note_on_c, 0, 57, 80
2, 118560, Note_on_c, 0, 60, 80
2, 119039, Note_on_c, 0, 57, 0
2, 119039, Note_on_c, 0, 60, 0
2, 119040, Note_on_c, 0, 50, 80
2, 119040, Note_on_c, 0, 57, 80
2, 119519, Note_on_c, 0, 57, 0
2, 119520, Note_on_c, 0, 62, 80
2, 119999, Note_on_c, 0, 50, 0
2, 119999, Note_on_c, 0, 62, 0
2, 120000, Note_on_c, 0, 50, 80
2, 120479, Note_on_c, 0, 50, 0
2, 120480, Note_on_c, 0, 50, 80
2, 120480, Note_on_c, 0, 60, 80
2, 120959, Note_on_c, 0, 50, 0
2, 120959, Note_on_c, 0, 60, 0
2, 120960, Note_on_c, 0, 55, 80
2, 120960, Note_on_c, 0, 60, 80
2, 121019, Note_on_c, 0, 60, 0
2, 121020, Note_on_c, 0, 59, 80
2, 121079, Note_on_c, 0, 59, 0
2, 121080, Note_on_c, 0, 60, 80
2, 121139, Note_on_c, 0, 60, 0
2, 121140, Note_on_c, 0, 59, 80
2, 121199, Note_on_c, 0, 59, 0
2, 121200, Note_on_c, 0, 60, 80
2, 121259, Note_on_c, 0, 60, 0
2, 121260, Note_on_c, 0, 59, 80
2, 121319, Note_on_c, 0, 59, 0
2, 121320, Note_on_c, 0, 60, 80
2, 121379, Note_on_c, 0, 60, 0
2, 121380, Note_on_c, 0, 59, 80
2, 121439, Note_on_c, 0, 59, 0
2, 121440, Note_on_c, 0, 57, 80
2, 121679, Note_on_c, 0, 57, 0
2, 121680, Note_on_c, 0, 59, 80
2, 121919, Note_on_c, 0, 55, 0
2, 121919, Note_on_c, 0, 59, 0
2, 121920, Note_on_c, 0, 43, 80
2, 121920, Note_on_c, 0, 55, 80
2, 122879, Note_on_c, 0, 43, 0
2, 122879, Note_on_c, 0, 55, 0
2, 122880, End_track
0, 0, End_of_file
