0, 0, Header, 1, 4, 480
1, 0, Start_track
1, 0, Unknown_meta_event, 8, 46, 84, 104, 101, 32, 65, 114, 116, 32, 111, 102, 32, 70, 117, 103, 117, 101, 32, 67, 111, 110, 116, 114, 97, 112, 117, 110, 99, 116, 117, 115, 32, 86, 32, 40, 65, 32, 61, 32, 52, 49, 53, 32, 72, 122, 41, 0
1, 0, Unknown_meta_event, 9, 9, 66, 87, 86, 32, 49, 48, 56, 48, 0
1, 0, Unknown_meta_event, 10, 11, 74, 46, 32, 83, 46, 32, 66, 97, 99, 104, 0
1, 0, Time_signature, 2, 1, 24, 8
1, 0, Key_signature, 4, "major"
1, 0, Tempo, 454545
1, 0, Program_c, 0, 46
1, 2, Control_c, 0, 7, 100
1, 4, Control_c, 0, 10, 64
1, 6, Control_c, 0, 91, 30
1, 8, Control_c, 0, 93, 30
1, 11520, Note_on_c, 0, 73, 80
1, 12479, Note_on_c, 0, 73, 0
1, 12480, Note_on_c, 0, 80, 80
1, 13199, Note_on_c, 0, 80, 0
1, 13200, Note_on_c, 0, 78, 80
1, 13439, Note_on_c, 0, 78, 0
1, 13440, Note_on_c, 0, 76, 80
1, 14159, Note_on_c, 0, 76, 0
1, 14160, Note_on_c, 0, 75, 80
1, 14399, Note_on_c, 0, 75, 0
1, 14400, Note_on_c, 0, 73, 80
1, 15359, Note_on_c, 0, 73, 0
1, 15360, Note_on_c, 0, 72, 80
1, 16319, Note_on_c, 0, 72, 0
1, 16320, Note_on_c, 0, 73, 80
1, 17039, Note_on_c, 0, 73, 0
1, 17040, Note_on_c, 0, 75, 80
1, 17279, Note_on_c, 0, 75, 0
1, 17280, Note_on_c, 0, 76, 80
1, 18479, Note_on_c, 0, 76, 0
1, 18480, Note_on_c, 0, 80, 80
1, 18719, Note_on_c, 0, 80, 0
1, 18720, Note_on_c, 0, 78, 80
1, 18959, Note_on_c, 0, 78, 0
1, 18960, Note_on_c, 0, 76, 80
1, 19199, Note_on_c, 0, 76, 0
1, 19200, Note_on_c, 0, 75, 80
1, 19439, Note_on_c, 0, 75, 0
1, 19440, Note_on_c, 0, 79, 80
1, 19679, Note_on_c, 0, 79, 0
1, 19680, Note_on_c, 0, 80, 80
1, 19919, Note_on_c, 0, 80, 0
1, 19920, Note_on_c, 0, 82, 80
1, 20159, Note_on_c, 0, 82, 0
1, 20160, Note_on_c, 0, 83, 80
1, 21359, Note_on_c, 0, 83, 0
1, 21360, Note_on_c, 0, 83, 80
1, 21599, Note_on_c, 0, 83, 0
1, 21600, Note_on_c, 0, 81, 80
1, 21839, Note_on_c, 0, 81, 0
1, 21840, Note_on_c, 0, 80, 80
1, 22079, Note_on_c, 0, 80, 0
1, 22080, Note_on_c, 0, 81, 80
1, 23279, Note_on_c, 0, 81, 0
1, 23280, Note_on_c, 0, 81, 80
1, 23519, Note_on_c, 0, 81, 0
1, 23520, Note_on_c, 0, 80, 80
1, 23759, Note_on_c, 0, 80, 0
1, 23760, Note_on_c, 0, 78, 80
1, 23999, Note_on_c, 0, 78, 0
1, 24000, Note_on_c, 0, 80, 80
1, 25439, Note_on_c, 0, 80, 0
1, 25440, Note_on_c, 0, 81, 80
1, 25919, Note_on_c, 0, 81, 0
1, 25920, Note_on_c, 0, 78, 80
1, 28319, Note_on_c, 0, 78, 0
1, 28320, Note_on_c, 0, 76, 80
1, 28799, Note_on_c, 0, 76, 0
1, 28800, Note_on_c, 0, 75, 80
1, 29759, Note_on_c, 0, 75, 0
1, 30720, Note_on_c, 0, 73, 80
1, 31679, Note_on_c, 0, 73, 0
1, 31680, Note_on_c, 0, 68, 80
1, 32399, Note_on_c, 0, 68, 0
1, 32400, Note_on_c, 0, 70, 80
1, 32639, Note_on_c, 0, 70, 0
1, 32640, Note_on_c, 0, 71, 80
1, 33359, Note_on_c, 0, 71, 0
1, 33360, Note_on_c, 0, 73, 80
1, 33599, Note_on_c, 0, 73, 0
1, 33600, Note_on_c, 0, 75, 80
1, 34559, Note_on_c, 0, 75, 0
1, 34560, Note_on_c, 0, 76, 80
1, 35519, Note_on_c, 0, 76, 0
1, 35520, Note_on_c, 0, 75, 80
1, 36239, Note_on_c, 0, 75, 0
1, 36240, Note_on_c, 0, 73, 80
1, 36479, Note_on_c, 0, 73, 0
1, 36480, Note_on_c, 0, 71, 80
1, 37679, Note_on_c, 0, 71, 0
1, 37680, Note_on_c, 0, 70, 80
1, 37919, Note_on_c, 0, 70, 0
1, 37920, Note_on_c, 0, 71, 80
1, 38159, Note_on_c, 0, 71, 0
1, 38160, Note_on_c, 0, 73, 80
1, 38399, Note_on_c, 0, 73, 0
1, 38400, Note_on_c, 0, 75, 80
1, 38879, Note_on_c, 0, 75, 0
1, 38880, Note_on_c, 0, 74, 80
1, 39599, Note_on_c, 0, 74, 0
1, 39600, Note_on_c, 0, 77, 80
1, 39839, Note_on_c, 0, 77, 0
1, 39840, Note_on_c, 0, 75, 80
1, 40079, Note_on_c, 0, 75, 0
1, 40080, Note_on_c, 0, 74, 80
1, 40319, Note_on_c, 0, 74, 0
1, 40320, Note_on_c, 0, 75, 80
1, 40559, Note_on_c, 0, 75, 0
1, 40560, Note_on_c, 0, 73, 80
1, 40799, Note_on_c, 0, 73, 0
1, 40800, Note_on_c, 0, 71, 80
1, 41039, Note_on_c, 0, 71, 0
1, 41040, Note_on_c, 0, 70, 80
1, 41279, Note_on_c, 0, 70, 0
1, 41280, Note_on_c, 0, 71, 80
1, 41999, Note_on_c, 0, 71, 0
1, 42000, Note_on_c, 0, 70, 80
1, 42239, Note_on_c, 0, 70, 0
1, 42240, Note_on_c, 0, 68, 80
1, 43439, Note_on_c, 0, 68, 0
1, 43440, Note_on_c, 0, 69, 80
1, 43679, Note_on_c, 0, 69, 0
1, 43680, Note_on_c, 0, 68, 80
1, 43919, Note_on_c, 0, 68, 0
1, 43920, Note_on_c, 0, 66, 80
1, 44159, Note_on_c, 0, 66, 0
1, 44160, Note_on_c, 0, 68, 80
1, 44399, Note_on_c, 0, 68, 0
1, 44400, Note_on_c, 0, 71, 80
1, 44639, Note_on_c, 0, 71, 0
1, 44640, Note_on_c, 0, 73, 80
1, 44879, Note_on_c, 0, 73, 0
1, 44880, Note_on_c, 0, 75, 80
1, 45119, Note_on_c, 0, 75, 0
1, 45120, Note_on_c, 0, 76, 80
1, 45359, Note_on_c, 0, 76, 0
1, 45360, Note_on_c, 0, 78, 80
1, 45599, Note_on_c, 0, 78, 0
1, 45600, Note_on_c, 0, 80, 80
1, 46319, Note_on_c, 0, 80, 0
1, 46320, Note_on_c, 0, 78, 80
1, 46559, Note_on_c, 0, 78, 0
1, 46560, Note_on_c, 0, 76, 80
1, 46799, Note_on_c, 0, 76, 0
1, 46800, Note_on_c, 0, 75, 80
1, 47039, Note_on_c, 0, 75, 0
1, 47040, Note_on_c, 0, 76, 80
1, 47279, Note_on_c, 0, 76, 0
1, 47280, Note_on_c, 0, 75, 80
1, 47519, Note_on_c, 0, 75, 0
1, 47520, Note_on_c, 0, 73, 80
1, 47759, Note_on_c, 0, 73, 0
1, 47760, Note_on_c, 0, 72, 80
1, 47999, Note_on_c, 0, 72, 0
1, 48000, Note_on_c, 0, 73, 80
1, 48239, Note_on_c, 0, 73, 0
1, 48240, Note_on_c, 0, 68, 80
1, 48479, Note_on_c, 0, 68, 0
1, 48480, Note_on_c, 0, 70, 80
1, 48719, Note_on_c, 0, 70, 0
1, 48720, Note_on_c, 0, 72, 80
1, 48959, Note_on_c, 0, 72, 0
1, 48960, Note_on_c, 0, 73, 80
1, 50159, Note_on_c, 0, 73, 0
1, 50160, Note_on_c, 0, 71, 80
1, 50399, Note_on_c, 0, 71, 0
1, 50400, Note_on_c, 0, 69, 80
1, 50639, Note_on_c, 0, 69, 0
1, 50640, Note_on_c, 0, 68, 80
1, 50879, Note_on_c, 0, 68, 0
1, 50880, Note_on_c, 0, 66, 80
1, 53039, Note_on_c, 0, 66, 0
1, 53040, Note_on_c, 0, 64, 80
1, 53279, Note_on_c, 0, 64, 0
1, 53280, Note_on_c, 0, 69, 80
1, 53759, Note_on_c, 0, 69, 0
1, 53760, Note_on_c, 0, 68, 80
1, 54239, Note_on_c, 0, 68, 0
1, 62400, Note_on_c, 0, 71, 80
1, 63359, Note_on_c, 0, 71, 0
1, 63360, Note_on_c, 0, 64, 80
1, 64079, Note_on_c, 0, 64, 0
1, 64080, Note_on_c, 0, 66, 80
1, 64319, Note_on_c, 0, 66, 0
1, 64320, Note_on_c, 0, 68, 80
1, 65039, Note_on_c, 0, 68, 0
1, 65040, Note_on_c, 0, 69, 80
1, 65279, Note_on_c, 0, 69, 0
1, 65280, Note_on_c, 0, 71, 80
1, 66239, Note_on_c, 0, 71, 0
1, 66240, Note_on_c, 0, 73, 80
1, 67199, Note_on_c, 0, 73, 0
1, 67200, Note_on_c, 0, 71, 80
1, 67919, Note_on_c, 0, 71, 0
1, 67920, Note_on_c, 0, 69, 80
1, 68159, Note_on_c, 0, 69, 0
1, 68160, Note_on_c, 0, 68, 80
1, 69359, Note_on_c, 0, 68, 0
1, 69360, Note_on_c, 0, 66, 80
1, 69599, Note_on_c, 0, 66, 0
1, 69600, Note_on_c, 0, 68, 80
1, 69839, Note_on_c, 0, 68, 0
1, 69840, Note_on_c, 0, 69, 80
1, 70079, Note_on_c, 0, 69, 0
1, 70080, Note_on_c, 0, 71, 80
1, 71279, Note_on_c, 0, 71, 0
1, 71280, Note_on_c, 0, 73, 80
1, 71519, Note_on_c, 0, 73, 0
1, 71520, Note_on_c, 0, 71, 80
1, 71759, Note_on_c, 0, 71, 0
1, 71760, Note_on_c, 0, 69, 80
1, 71999, Note_on_c, 0, 69, 0
1, 72000, Note_on_c, 0, 68, 80
1, 72479, Note_on_c, 0, 68, 0
1, 72480, Note_on_c, 0, 76, 80
1, 73439, Note_on_c, 0, 76, 0
1, 73440, Note_on_c, 0, 75, 80
1, 74399, Note_on_c, 0, 75, 0
1, 74400, Note_on_c, 0, 73, 80
1, 75359, Note_on_c, 0, 73, 0
1, 75360, Note_on_c, 0, 71, 80
1, 76319, Note_on_c, 0, 71, 0
1, 76320, Note_on_c, 0, 69, 80
1, 77519, Note_on_c, 0, 69, 0
1, 77520, Note_on_c, 0, 68, 80
1, 77759, Note_on_c, 0, 68, 0
1, 77760, Note_on_c, 0, 71, 80
1, 77999, Note_on_c, 0, 71, 0
1, 78000, Note_on_c, 0, 70, 80
1, 78239, Note_on_c, 0, 70, 0
1, 78240, Note_on_c, 0, 71, 80
1, 78719, Note_on_c, 0, 71, 0
1, 78720, Note_on_c, 0, 65, 80
1, 78959, Note_on_c, 0, 65, 0
1, 78960, Note_on_c, 0, 61, 80
1, 79199, Note_on_c, 0, 61, 0
1, 79200, Note_on_c, 0, 66, 80
1, 79919, Note_on_c, 0, 66, 0
1, 79920, Note_on_c, 0, 78, 80
1, 80159, Note_on_c, 0, 78, 0
1, 80160, Note_on_c, 0, 76, 80
1, 80639, Note_on_c, 0, 76, 0
1, 80640, Note_on_c, 0, 69, 80
1, 81359, Note_on_c, 0, 69, 0
1, 81360, Note_on_c, 0, 68, 80
1, 81599, Note_on_c, 0, 68, 0
1, 81600, Note_on_c, 0, 73, 80
1, 82079, Note_on_c, 0, 73, 0
1, 84000, Note_on_c, 0, 73, 80
1, 84479, Note_on_c, 0, 73, 0
1, 84480, Note_on_c, 0, 78, 80
1, 85919, Note_on_c, 0, 78, 0
1, 85920, Note_on_c, 0, 76, 80
1, 86159, Note_on_c, 0, 76, 0
1, 86160, Note_on_c, 0, 74, 80
1, 86399, Note_on_c, 0, 74, 0
1, 86400, Note_on_c, 0, 76, 80
1, 87599, Note_on_c, 0, 76, 0
1, 87600, Note_on_c, 0, 74, 80
1, 87839, Note_on_c, 0, 74, 0
1, 87840, Note_on_c, 0, 73, 80
1, 88559, Note_on_c, 0, 73, 0
1, 88560, Note_on_c, 0, 66, 80
1, 88799, Note_on_c, 0, 66, 0
1, 88800, Note_on_c, 0, 64, 80
1, 89039, Note_on_c, 0, 64, 0
1, 89040, Note_on_c, 0, 62, 80
1, 89279, Note_on_c, 0, 62, 0
1, 89280, Note_on_c, 0, 61, 80
1, 89519, Note_on_c, 0, 61, 0
1, 89520, Note_on_c, 0, 64, 80
1, 89759, Note_on_c, 0, 64, 0
1, 89760, Note_on_c, 0, 66, 80
1, 89999, Note_on_c, 0, 66, 0
1, 90000, Note_on_c, 0, 68, 80
1, 90239, Note_on_c, 0, 68, 0
1, 90240, Note_on_c, 0, 69, 80
1, 90479, Note_on_c, 0, 69, 0
1, 90480, Note_on_c, 0, 64, 80
1, 90719, Note_on_c, 0, 64, 0
1, 90720, Note_on_c, 0, 69, 80
1, 91439, Note_on_c, 0, 69, 0
1, 91440, Note_on_c, 0, 71, 80
1, 91679, Note_on_c, 0, 71, 0
1, 91680, Note_on_c, 0, 69, 80
1, 91919, Note_on_c, 0, 69, 0
1, 91920, Note_on_c, 0, 68, 80
1, 92159, Note_on_c, 0, 68, 0
1, 92160, Note_on_c, 0, 69, 80
1, 92399, Note_on_c, 0, 69, 0
1, 92400, Note_on_c, 0, 71, 80
1, 92639, Note_on_c, 0, 71, 0
1, 92640, Note_on_c, 0, 73, 80
1, 93359, Note_on_c, 0, 73, 0
1, 93360, Note_on_c, 0, 74, 80
1, 93599, Note_on_c, 0, 74, 0
1, 93600, Note_on_c, 0, 76, 80
1, 94319, Note_on_c, 0, 76, 0
1, 94320, Note_on_c, 0, 74, 80
1, 94559, Note_on_c, 0, 74, 0
1, 94560, Note_on_c, 0, 73, 80
1, 94799, Note_on_c, 0, 73, 0
1, 94800, Note_on_c, 0, 71, 80
1, 95039, Note_on_c, 0, 71, 0
1, 95040, Note_on_c, 0, 69, 80
1, 95759, Note_on_c, 0, 69, 0
1, 95760, Note_on_c, 0, 71, 80
1, 95999, Note_on_c, 0, 71, 0
1, 96000, Note_on_c, 0, 73, 80
1, 96479, Note_on_c, 0, 73, 0
1, 96480, Note_on_c, 0, 71, 80
1, 96959, Note_on_c, 0, 71, 0
1, 96960, Note_on_c, 0, 76, 80
1, 98159, Note_on_c, 0, 76, 0
1, 98160, Note_on_c, 0, 75, 80
1, 98399, Note_on_c, 0, 75, 0
1, 98400, Note_on_c, 0, 76, 80
1, 98639, Note_on_c, 0, 76, 0
1, 98640, Note_on_c, 0, 78, 80
1, 98879, Note_on_c, 0, 78, 0
1, 98880, Note_on_c, 0, 71, 80
1, 100319, Note_on_c, 0, 71, 0
1, 100320, Note_on_c, 0, 76, 80
1, 100799, Note_on_c, 0, 76, 0
1, 100800, Note_on_c, 0, 71, 80
1, 101519, Note_on_c, 0, 71, 0
1, 101520, Note_on_c, 0, 73, 80
1, 101759, Note_on_c, 0, 73, 0
1, 101760, Note_on_c, 0, 74, 80
1, 102479, Note_on_c, 0, 74, 0
1, 102480, Note_on_c, 0, 76, 80
1, 102719, Note_on_c, 0, 76, 0
1, 102720, Note_on_c, 0, 78, 80
1, 103199, Note_on_c, 0, 78, 0
1, 103200, Note_on_c, 0, 73, 80
1, 103919, Note_on_c, 0, 73, 0
1, 103920, Note_on_c, 0, 75, 80
1, 104159, Note_on_c, 0, 75, 0
1, 104160, Note_on_c, 0, 76, 80
1, 104879, Note_on_c, 0, 76, 0
1, 104880, Note_on_c, 0, 78, 80
1, 105119, Note_on_c, 0, 78, 0
1, 105120, Note_on_c, 0, 80, 80
1, 105599, Note_on_c, 0, 80, 0
1, 105600, Note_on_c, 0, 75, 80
1, 105839, Note_on_c, 0, 75, 0
1, 105840, Note_on_c, 0, 76, 80
1, 106079, Note_on_c, 0, 76, 0
1, 106080, Note_on_c, 0, 78, 80
1, 106559, Note_on_c, 0, 78, 0
1, 106560, Note_on_c, 0, 73, 80
1, 106799, Note_on_c, 0, 73, 0
1, 106800, Note_on_c, 0, 75, 80
1, 107039, Note_on_c, 0, 75, 0
1, 107040, Note_on_c, 0, 76, 80
1, 107519, Note_on_c, 0, 76, 0
1, 107520, Note_on_c, 0, 75, 80
1, 108479, Note_on_c, 0, 75, 0
1, 108480, Note_on_c, 0, 80, 80
1, 109199, Note_on_c, 0, 80, 0
1, 109200, Note_on_c, 0, 78, 80
1, 109439, Note_on_c, 0, 78, 0
1, 109440, Note_on_c, 0, 76, 80
1, 110159, Note_on_c, 0, 76, 0
1, 110160, Note_on_c, 0, 75, 80
1, 110399, Note_on_c, 0, 75, 0
1, 110400, Note_on_c, 0, 73, 80
1, 111359, Note_on_c, 0, 73, 0
1, 111360, Note_on_c, 0, 72, 80
1, 112319, Note_on_c, 0, 72, 0
1, 112320, Note_on_c, 0, 73, 80
1, 113039, Note_on_c, 0, 73, 0
1, 113040, Note_on_c, 0, 75, 80
1, 113279, Note_on_c, 0, 75, 0
1, 113280, Note_on_c, 0, 76, 80
1, 114479, Note_on_c, 0, 76, 0
1, 114480, Note_on_c, 0, 78, 80
1, 114719, Note_on_c, 0, 78, 0
1, 114720, Note_on_c, 0, 76, 80
1, 114959, Note_on_c, 0, 76, 0
1, 114960, Note_on_c, 0, 75, 80
1, 115199, Note_on_c, 0, 75, 0
1, 115200, Note_on_c, 0, 73, 80
1, 116639, Note_on_c, 0, 73, 0
1, 116640, Note_on_c, 0, 68, 80
1, 117599, Note_on_c, 0, 68, 0
1, 117600, Note_on_c, 0, 71, 80
1, 118079, Note_on_c, 0, 71, 0
1, 118080, Note_on_c, 0, 64, 80
1, 119279, Note_on_c, 0, 64, 0
1, 119280, Note_on_c, 0, 68, 80
1, 119519, Note_on_c, 0, 68, 0
1, 119520, Note_on_c, 0, 66, 80
1, 119759, Note_on_c, 0, 66, 0
1, 119760, Note_on_c, 0, 64, 80
1, 119999, Note_on_c, 0, 64, 0
1, 120000, Note_on_c, 0, 63, 80
1, 122159, Note_on_c, 0, 63, 0
1, 122160, Note_on_c, 0, 61, 80
1, 122399, Note_on_c, 0, 61, 0
1, 122400, Note_on_c, 0, 60, 80
1, 122639, Note_on_c, 0, 60, 0
1, 122640, Note_on_c, 0, 61, 80
1, 122879, Note_on_c, 0, 61, 0
1, 122880, Note_on_c, 0, 60, 80
1, 123359, Note_on_c, 0, 60, 0
1, 123360, Note_on_c, 0, 75, 80
1, 123839, Note_on_c, 0, 75, 0
1, 123840, Note_on_c, 0, 80, 80
1, 124559, Note_on_c, 0, 80, 0
1, 124560, Note_on_c, 0, 78, 80
1, 124799, Note_on_c, 0, 78, 0
1, 124800, Note_on_c, 0, 76, 80
1, 125519, Note_on_c, 0, 76, 0
1, 125520, Note_on_c, 0, 75, 80
1, 125759, Note_on_c, 0, 75, 0
1, 125760, Note_on_c, 0, 73, 80
1, 126239, Note_on_c, 0, 73, 0
1, 126240, Note_on_c, 0, 78, 80
1, 126959, Note_on_c, 0, 78, 0
1, 126960, Note_on_c, 0, 76, 80
1, 127199, Note_on_c, 0, 76, 0
1, 127200, Note_on_c, 0, 75, 80
1, 127919, Note_on_c, 0, 75, 0
1, 127920, Note_on_c, 0, 73, 80
1, 128159, Note_on_c, 0, 73, 0
1, 128160, Note_on_c, 0, 71, 80
1, 128639, Note_on_c, 0, 71, 0
1, 128640, Note_on_c, 0, 76, 80
1, 128879, Note_on_c, 0, 76, 0
1, 128880, Note_on_c, 0, 75, 80
1, 129119, Note_on_c, 0, 75, 0
1, 129120, Note_on_c, 0, 73, 80
1, 129599, Note_on_c, 0, 73, 0
1, 129600, Note_on_c, 0, 78, 80
1, 129839, Note_on_c, 0, 78, 0
1, 129840, Note_on_c, 0, 76, 80
1, 130079, Note_on_c, 0, 76, 0
1, 130080, Note_on_c, 0, 75, 80
1, 130559, Note_on_c, 0, 75, 0
1, 130560, Note_on_c, 0, 80, 80
1, 131519, Note_on_c, 0, 80, 0
1, 131520, Note_on_c, 0, 73, 80
1, 132239, Note_on_c, 0, 73, 0
1, 132240, Note_on_c, 0, 75, 80
1, 132479, Note_on_c, 0, 75, 0
1, 132480, Note_on_c, 0, 76, 80
1, 133199, Note_on_c, 0, 76, 0
1, 133200, Note_on_c, 0, 78, 80
1, 133439, Note_on_c, 0, 78, 0
1, 133440, Note_on_c, 0, 80, 80
1, 134399, Note_on_c, 0, 80, 0
1, 134400, Note_on_c, 0, 81, 80
1, 135359, Note_on_c, 0, 81, 0
1, 135360, Note_on_c, 0, 80, 80
1, 136079, Note_on_c, 0, 80, 0
1, 136080, Note_on_c, 0, 78, 80
1, 136319, Note_on_c, 0, 78, 0
1, 136320, Note_on_c, 0, 76, 80
1, 137519, Note_on_c, 0, 76, 0
1, 137520, Note_on_c, 0, 75, 80
1, 137759, Note_on_c, 0, 75, 0
1, 137760, Note_on_c, 0, 76, 80
1, 137999, Note_on_c, 0, 76, 0
1, 138000, Note_on_c, 0, 78, 80
1, 138239, Note_on_c, 0, 78, 0
1, 138240, Note_on_c, 0, 80, 80
1, 138479, Note_on_c, 0, 80, 0
1, 138480, Note_on_c, 0, 78, 80
1, 138719, Note_on_c, 0, 78, 0
1, 138720, Note_on_c, 0, 76, 80
1, 138959, Note_on_c, 0, 76, 0
1, 138960, Note_on_c, 0, 80, 80
1, 139199, Note_on_c, 0, 80, 0
1, 139200, Note_on_c, 0, 73, 80
1, 140639, Note_on_c, 0, 73, 0
1, 140640, Note_on_c, 0, 71, 80
1, 141599, Note_on_c, 0, 71, 0
1, 141600, Note_on_c, 0, 69, 80
1, 142079, Note_on_c, 0, 69, 0
1, 142080, Note_on_c, 0, 68, 80
1, 143279, Note_on_c, 0, 68, 0
1, 143280, Note_on_c, 0, 61, 80
1, 143519, Note_on_c, 0, 61, 0
1, 143520, Note_on_c, 0, 66, 80
1, 143759, Note_on_c, 0, 66, 0
1, 143760, Note_on_c, 0, 69, 80
1, 143999, Note_on_c, 0, 69, 0
1, 144000, Note_on_c, 0, 63, 80
1, 145439, Note_on_c, 0, 63, 0
1, 145440, Note_on_c, 0, 61, 80
1, 146159, Note_on_c, 0, 61, 0
1, 146160, Note_on_c, 0, 60, 80
1, 146399, Note_on_c, 0, 60, 0
1, 146400, Note_on_c, 0, 61, 80
1, 146639, Note_on_c, 0, 61, 0
1, 146640, Note_on_c, 0, 58, 80
1, 146879, Note_on_c, 0, 58, 0
1, 146880, Note_on_c, 0, 60, 80
1, 147119, Note_on_c, 0, 60, 0
1, 147120, Note_on_c, 0, 63, 80
1, 147359, Note_on_c, 0, 63, 0
1, 147360, Note_on_c, 0, 68, 80
1, 148079, Note_on_c, 0, 68, 0
1, 148080, Note_on_c, 0, 69, 80
1, 148319, Note_on_c, 0, 69, 0
1, 148320, Note_on_c, 0, 68, 80
1, 148559, Note_on_c, 0, 68, 0
1, 148560, Note_on_c, 0, 66, 80
1, 148799, Note_on_c, 0, 66, 0
1, 148800, Note_on_c, 0, 64, 80
1, 149039, Note_on_c, 0, 64, 0
1, 149040, Note_on_c, 0, 63, 80
1, 149279, Note_on_c, 0, 63, 0
1, 149280, Note_on_c, 0, 61, 80
1, 149519, Note_on_c, 0, 61, 0
1, 149520, Note_on_c, 0, 63, 80
1, 149759, Note_on_c, 0, 63, 0
1, 149760, Note_on_c, 0, 64, 80
1, 149999, Note_on_c, 0, 64, 0
1, 150000, Note_on_c, 0, 66, 80
1, 150239, Note_on_c, 0, 66, 0
1, 150240, Note_on_c, 0, 68, 80
1, 150959, Note_on_c, 0, 68, 0
1, 150960, Note_on_c, 0, 66, 80
1, 151199, Note_on_c, 0, 66, 0
1, 151200, Note_on_c, 0, 64, 80
1, 151439, Note_on_c, 0, 64, 0
1, 151440, Note_on_c, 0, 66, 80
1, 151679, Note_on_c, 0, 66, 0
1, 151680, Note_on_c, 0, 68, 80
1, 151919, Note_on_c, 0, 68, 0
1, 151920, Note_on_c, 0, 66, 80
1, 152159, Note_on_c, 0, 66, 0
1, 152160, Note_on_c, 0, 64, 80
1, 152399, Note_on_c, 0, 64, 0
1, 152400, Note_on_c, 0, 63, 80
1, 152639, Note_on_c, 0, 63, 0
1, 152640, Note_on_c, 0, 61, 80
1, 152879, Note_on_c, 0, 61, 0
1, 152880, Note_on_c, 0, 69, 80
1, 153119, Note_on_c, 0, 69, 0
1, 153120, Note_on_c, 0, 68, 80
1, 153359, Note_on_c, 0, 68, 0
1, 153360, Note_on_c, 0, 66, 80
1, 153599, Note_on_c, 0, 66, 0
1, 153600, Note_on_c, 0, 64, 80
1, 153839, Note_on_c, 0, 64, 0
1, 153840, Note_on_c, 0, 68, 80
1, 154079, Note_on_c, 0, 68, 0
1, 154080, Note_on_c, 0, 70, 80
1, 154319, Note_on_c, 0, 70, 0
1, 154320, Note_on_c, 0, 71, 80
1, 154559, Note_on_c, 0, 71, 0
1, 154560, Note_on_c, 0, 73, 80
1, 155759, Note_on_c, 0, 73, 0
1, 155760, Note_on_c, 0, 74, 80
1, 155999, Note_on_c, 0, 74, 0
1, 156000, Note_on_c, 0, 73, 80
1, 156239, Note_on_c, 0, 73, 0
1, 156240, Note_on_c, 0, 71, 80
1, 156479, Note_on_c, 0, 71, 0
1, 156480, Note_on_c, 0, 69, 80
1, 156719, Note_on_c, 0, 69, 0
1, 156720, Note_on_c, 0, 73, 80
1, 156959, Note_on_c, 0, 73, 0
1, 156960, Note_on_c, 0, 75, 80
1, 157199, Note_on_c, 0, 75, 0
1, 157200, Note_on_c, 0, 77, 80
1, 157439, Note_on_c, 0, 77, 0
1, 157440, Note_on_c, 0, 78, 80
1, 158639, Note_on_c, 0, 78, 0
1, 158640, Note_on_c, 0, 80, 80
1, 158879, Note_on_c, 0, 80, 0
1, 158880, Note_on_c, 0, 78, 80
1, 159119, Note_on_c, 0, 78, 0
1, 159120, Note_on_c, 0, 76, 80
1, 159359, Note_on_c, 0, 76, 0
1, 159360, Note_on_c, 0, 75, 80
1, 159599, Note_on_c, 0, 75, 0
1, 159600, Note_on_c, 0, 72, 80
1, 159839, Note_on_c, 0, 72, 0
1, 159840, Note_on_c, 0, 73, 80
1, 161039, Note_on_c, 0, 73, 0
1, 161040, Note_on_c, 0, 78, 80
1, 161279, Note_on_c, 0, 78, 0
1, 161280, Note_on_c, 0, 72, 80
1, 161759, Note_on_c, 0, 72, 0
1, 161760, Note_on_c, 0, 73, 80
1, 162719, Note_on_c, 0, 73, 0
1, 162720, Note_on_c, 0, 72, 80
1, 163199, Note_on_c, 0, 72, 0
1, 163200, Note_on_c, 0, 73, 80
1, 164159, Note_on_c, 0, 73, 0
1, 164400, Note_on_c, 0, 73, 80
1, 164639, Note_on_c, 0, 73, 0
1, 164640, Note_on_c, 0, 71, 80
1, 164879, Note_on_c, 0, 71, 0
1, 164880, Note_on_c, 0, 69, 80
1, 165119, Note_on_c, 0, 69, 0
1, 165120, Note_on_c, 0, 68, 80
1, 165359, Note_on_c, 0, 68, 0
1, 165360, Note_on_c, 0, 69, 80
1, 165599, Note_on_c, 0, 69, 0
1, 165600, Note_on_c, 0, 68, 80
1, 165839, Note_on_c, 0, 68, 0
1, 165840, Note_on_c, 0, 66, 80
1, 166079, Note_on_c, 0, 66, 0
1, 166080, Note_on_c, 0, 65, 80
1, 166319, Note_on_c, 0, 65, 0
1, 166320, Note_on_c, 0, 66, 80
1, 166559, Note_on_c, 0, 66, 0
1, 166560, Note_on_c, 0, 65, 80
1, 166799, Note_on_c, 0, 65, 0
1, 166800, Note_on_c, 0, 68, 80
1, 167039, Note_on_c, 0, 68, 0
1, 167040, Note_on_c, 0, 63, 80
1, 167279, Note_on_c, 0, 63, 0
1, 167280, Note_on_c, 0, 61, 80
1, 167519, Note_on_c, 0, 61, 0
1, 167520, Note_on_c, 0, 63, 80
1, 167759, Note_on_c, 0, 63, 0
1, 167760, Note_on_c, 0, 66, 80
1, 167999, Note_on_c, 0, 66, 0
1, 168000, Note_on_c, 0, 65, 80
1, 168239, Note_on_c, 0, 65, 0
1, 168240, Note_on_c, 0, 68, 80
1, 168480, Note_on_c, 0, 71, 80
1, 170159, Note_on_c, 0, 68, 0
1, 170159, Note_on_c, 0, 71, 0
1, 170160, Note_on_c, 0, 69, 80
1, 170399, Note_on_c, 0, 69, 0
1, 170400, Note_on_c, 0, 68, 80
1, 170400, Note_on_c, 0, 73, 80
1, 170639, Note_on_c, 0, 68, 0
1, 170639, Note_on_c, 0, 73, 0
1, 170640, Note_on_c, 0, 66, 80
1, 170640, Note_on_c, 0, 72, 80
1, 170879, Note_on_c, 0, 66, 0
1, 170879, Note_on_c, 0, 72, 0
1, 170880, Note_on_c, 0, 65, 80
1, 170880, Note_on_c, 0, 73, 80
1, 172799, Note_on_c, 0, 65, 0
1, 172799, Note_on_c, 0, 73, 0
1, 172800, End_track
2, 0, Start_track
2, 0, Key_signature, 4, "major"
2, 0, Note_on_c, 0, 68, 80
2, 959, Note_on_c, 0, 68, 0
2, 960, Note_on_c, 0, 61, 80
2, 1679, Note_on_c, 0, 61, 0
2, 1680, Note_on_c, 0, 63, 80
2, 1919, Note_on_c, 0, 63, 0
2, 1920, Note_on_c, 0, 64, 80
2, 2639, Note_on_c, 0, 64, 0
2, 2640, Note_on_c, 0, 66, 80
2, 2879, Note_on_c, 0, 66, 0
2, 2880, Note_on_c, 0, 68, 80
2, 3839, Note_on_c, 0, 68, 0
2, 3840, Note_on_c, 0, 69, 80
2, 4799, Note_on_c, 0, 69, 0
2, 4800, Note_on_c, 0, 68, 80
2, 5519, Note_on_c, 0, 68, 0
2, 5520, Note_on_c, 0, 66, 80
2, 5759, Note_on_c, 0, 66, 0
2, 5760, Note_on_c, 0, 64, 80
2, 6959, Note_on_c, 0, 64, 0
2, 6960, Note_on_c, 0, 63, 80
2, 7199, Note_on_c, 0, 63, 0
2, 7200, Note_on_c, 0, 64, 80
2, 7439, Note_on_c, 0, 64, 0
2, 7440, Note_on_c, 0, 66, 80
2, 7679, Note_on_c, 0, 66, 0
2, 7680, Note_on_c, 0, 68, 80
2, 7919, Note_on_c, 0, 68, 0
2, 7920, Note_on_c, 0, 69, 80
2, 8159, Note_on_c, 0, 69, 0
2, 8160, Note_on_c, 0, 71, 80
2, 8879, Note_on_c, 0, 71, 0
2, 8880, Note_on_c, 0, 69, 80
2, 9119, Note_on_c, 0, 69, 0
2, 9120, Note_on_c, 0, 68, 80
2, 9359, Note_on_c, 0, 68, 0
2, 9360, Note_on_c, 0, 69, 80
2, 9599, Note_on_c, 0, 69, 0
2, 9600, Note_on_c, 0, 63, 80
2, 9839, Note_on_c, 0, 63, 0
2, 9840, Note_on_c, 0, 64, 80
2, 10079, Note_on_c, 0, 64, 0
2, 10080, Note_on_c, 0, 66, 80
2, 10799, Note_on_c, 0, 66, 0
2, 10800, Note_on_c, 0, 68, 80
2, 11039, Note_on_c, 0, 68, 0
2, 11040, Note_on_c, 0, 64, 80
2, 11279, Note_on_c, 0, 64, 0
2, 11280, Note_on_c, 0, 66, 80
2, 11519, Note_on_c, 0, 66, 0
2, 11520, Note_on_c, 0, 68, 80
2, 11759, Note_on_c, 0, 68, 0
2, 11760, Note_on_c, 0, 66, 80
2, 11999, Note_on_c, 0, 66, 0
2, 12000, Note_on_c, 0, 64, 80
2, 12239, Note_on_c, 0, 64, 0
2, 12240, Note_on_c, 0, 63, 80
2, 12479, Note_on_c, 0, 63, 0
2, 12480, Note_on_c, 0, 61, 80
2, 12719, Note_on_c, 0, 61, 0
2, 12720, Note_on_c, 0, 58, 80
2, 12959, Note_on_c, 0, 58, 0
2, 12960, Note_on_c, 0, 60, 80
2, 13439, Note_on_c, 0, 60, 0
2, 13440, Note_on_c, 0, 61, 80
2, 14639, Note_on_c, 0, 61, 0
2, 14640, Note_on_c, 0, 63, 80
2, 14879, Note_on_c, 0, 63, 0
2, 14880, Note_on_c, 0, 64, 80
2, 15119, Note_on_c, 0, 64, 0
2, 15120, Note_on_c, 0, 66, 80
2, 15359, Note_on_c, 0, 66, 0
2, 15360, Note_on_c, 0, 68, 80
2, 15599, Note_on_c, 0, 68, 0
2, 15600, Note_on_c, 0, 63, 80
2, 15839, Note_on_c, 0, 63, 0
2, 15840, Note_on_c, 0, 68, 80
2, 16559, Note_on_c, 0, 68, 0
2, 16560, Note_on_c, 0, 61, 80
2, 16799, Note_on_c, 0, 61, 0
2, 16800, Note_on_c, 0, 66, 80
2, 17279, Note_on_c, 0, 66, 0
2, 17280, Note_on_c, 0, 64, 80
2, 17519, Note_on_c, 0, 64, 0
2, 17520, Note_on_c, 0, 68, 80
2, 17759, Note_on_c, 0, 68, 0
2, 17760, Note_on_c, 0, 70, 80
2, 17999, Note_on_c, 0, 70, 0
2, 18000, Note_on_c, 0, 72, 80
2, 18239, Note_on_c, 0, 72, 0
2, 18240, Note_on_c, 0, 73, 80
2, 18479, Note_on_c, 0, 73, 0
2, 18480, Note_on_c, 0, 68, 80
2, 18719, Note_on_c, 0, 68, 0
2, 18720, Note_on_c, 0, 73, 80
2, 19199, Note_on_c, 0, 73, 0
2, 19200, Note_on_c, 0, 71, 80
2, 20159, Note_on_c, 0, 71, 0
2, 22320, Note_on_c, 0, 80, 80
2, 22559, Note_on_c, 0, 80, 0
2, 22560, Note_on_c, 0, 78, 80
2, 22799, Note_on_c, 0, 78, 0
2, 22800, Note_on_c, 0, 76, 80
2, 23039, Note_on_c, 0, 76, 0
2, 23040, Note_on_c, 0, 75, 80
2, 24239, Note_on_c, 0, 75, 0
2, 24240, Note_on_c, 0, 78, 80
2, 24479, Note_on_c, 0, 78, 0
2, 24480, Note_on_c, 0, 76, 80
2, 24719, Note_on_c, 0, 76, 0
2, 24720, Note_on_c, 0, 75, 80
2, 24959, Note_on_c, 0, 75, 0
2, 24960, Note_on_c, 0, 76, 80
2, 25919, Note_on_c, 0, 76, 0
2, 25920, Note_on_c, 0, 75, 80
2, 27119, Note_on_c, 0, 75, 0
2, 27120, Note_on_c, 0, 68, 80
2, 27359, Note_on_c, 0, 68, 0
2, 27360, Note_on_c, 0, 70, 80
2, 27599, Note_on_c, 0, 70, 0
2, 27600, Note_on_c, 0, 72, 80
2, 27839, Note_on_c, 0, 72, 0
2, 27840, Note_on_c, 0, 73, 80
2, 28079, Note_on_c, 0, 73, 0
2, 28080, Note_on_c, 0, 68, 80
2, 28319, Note_on_c, 0, 68, 0
2, 28320, Note_on_c, 0, 73, 80
2, 29039, Note_on_c, 0, 73, 0
2, 29040, Note_on_c, 0, 73, 80
2, 29279, Note_on_c, 0, 73, 0
2, 29280, Note_on_c, 0, 72, 80
2, 29519, Note_on_c, 0, 72, 0
2, 29520, Note_on_c, 0, 70, 80
2, 29759, Note_on_c, 0, 70, 0
2, 29760, Note_on_c, 0, 72, 80
2, 30719, Note_on_c, 0, 72, 0
2, 30960, Note_on_c, 0, 56, 80
2, 31199, Note_on_c, 0, 56, 0
2, 31200, Note_on_c, 0, 58, 80
2, 31439, Note_on_c, 0, 58, 0
2, 31440, Note_on_c, 0, 60, 80
2, 31679, Note_on_c, 0, 60, 0
2, 31680, Note_on_c, 0, 61, 80
2, 31919, Note_on_c, 0, 61, 0
2, 31920, Note_on_c, 0, 63, 80
2, 32159, Note_on_c, 0, 63, 0
2, 32160, Note_on_c, 0, 64, 80
2, 32879, Note_on_c, 0, 64, 0
2, 32880, Note_on_c, 0, 66, 80
2, 33119, Note_on_c, 0, 66, 0
2, 33120, Note_on_c, 0, 68, 80
2, 33839, Note_on_c, 0, 68, 0
2, 33840, Note_on_c, 0, 66, 80
2, 34079, Note_on_c, 0, 66, 0
2, 34080, Note_on_c, 0, 64, 80
2, 34319, Note_on_c, 0, 64, 0
2, 34320, Note_on_c, 0, 63, 80
2, 34559, Note_on_c, 0, 63, 0
2, 34560, Note_on_c, 0, 61, 80
2, 35039, Note_on_c, 0, 61, 0
2, 35040, Note_on_c, 0, 73, 80
2, 35759, Note_on_c, 0, 73, 0
2, 35760, Note_on_c, 0, 73, 80
2, 35999, Note_on_c, 0, 73, 0
2, 36000, Note_on_c, 0, 71, 80
2, 36239, Note_on_c, 0, 71, 0
2, 36240, Note_on_c, 0, 70, 80
2, 36479, Note_on_c, 0, 70, 0
2, 36480, Note_on_c, 0, 68, 80
2, 36719, Note_on_c, 0, 68, 0
2, 36720, Note_on_c, 0, 63, 80
2, 36959, Note_on_c, 0, 63, 0
2, 36960, Note_on_c, 0, 65, 80
2, 37199, Note_on_c, 0, 65, 0
2, 37200, Note_on_c, 0, 67, 80
2, 37439, Note_on_c, 0, 67, 0
2, 37440, Note_on_c, 0, 68, 80
2, 38639, Note_on_c, 0, 68, 0
2, 38640, Note_on_c, 0, 67, 80
2, 38879, Note_on_c, 0, 67, 0
2, 38880, Note_on_c, 0, 68, 80
2, 39119, Note_on_c, 0, 68, 0
2, 39120, Note_on_c, 0, 70, 80
2, 39359, Note_on_c, 0, 70, 0
2, 39360, Note_on_c, 0, 71, 80
2, 40319, Note_on_c, 0, 71, 0
2, 40320, Note_on_c, 0, 70, 80
2, 41519, Note_on_c, 0, 70, 0
2, 41520, Note_on_c, 0, 70, 80
2, 41759, Note_on_c, 0, 70, 0
2, 41760, Note_on_c, 0, 68, 80
2, 41999, Note_on_c, 0, 68, 0
2, 42000, Note_on_c, 0, 67, 80
2, 42239, Note_on_c, 0, 67, 0
2, 42240, Note_on_c, 0, 68, 80
2, 42479, Note_on_c, 0, 68, 0
2, 42480, Note_on_c, 0, 66, 80
2, 42719, Note_on_c, 0, 66, 0
2, 42720, Note_on_c, 0, 64, 80
2, 42959, Note_on_c, 0, 64, 0
2, 42960, Note_on_c, 0, 63, 80
2, 43199, Note_on_c, 0, 63, 0
2, 43200, Note_on_c, 0, 64, 80
2, 43919, Note_on_c, 0, 64, 0
2, 43920, Note_on_c, 0, 66, 80
2, 44159, Note_on_c, 0, 66, 0
2, 44160, Note_on_c, 0, 59, 80
2, 44639, Note_on_c, 0, 59, 0
2, 48000, Note_on_c, 0, 61, 80
2, 48959, Note_on_c, 0, 61, 0
2, 48960, Note_on_c, 0, 68, 80
2, 49679, Note_on_c, 0, 68, 0
2, 49680, Note_on_c, 0, 66, 80
2, 49919, Note_on_c, 0, 66, 0
2, 49920, Note_on_c, 0, 64, 80
2, 50639, Note_on_c, 0, 64, 0
2, 50640, Note_on_c, 0, 63, 80
2, 50879, Note_on_c, 0, 63, 0
2, 50880, Note_on_c, 0, 61, 80
2, 51839, Note_on_c, 0, 61, 0
2, 51840, Note_on_c, 0, 60, 80
2, 52799, Note_on_c, 0, 60, 0
2, 52800, Note_on_c, 0, 61, 80
2, 53519, Note_on_c, 0, 61, 0
2, 53520, Note_on_c, 0, 63, 80
2, 53759, Note_on_c, 0, 63, 0
2, 53760, Note_on_c, 0, 64, 80
2, 54959, Note_on_c, 0, 64, 0
2, 54960, Note_on_c, 0, 66, 80
2, 55199, Note_on_c, 0, 66, 0
2, 55200, Note_on_c, 0, 64, 80
2, 55439, Note_on_c, 0, 64, 0
2, 55440, Note_on_c, 0, 62, 80
2, 55679, Note_on_c, 0, 62, 0
2, 55680, Note_on_c, 0, 61, 80
2, 57839, Note_on_c, 0, 61, 0
2, 57840, Note_on_c, 0, 62, 80
2, 58079, Note_on_c, 0, 62, 0
2, 58080, Note_on_c, 0, 61, 80
2, 58319, Note_on_c, 0, 61, 0
2, 58320, Note_on_c, 0, 59, 80
2, 58559, Note_on_c, 0, 59, 0
2, 58560, Note_on_c, 0, 57, 80
2, 60719, Note_on_c, 0, 57, 0
2, 60720, Note_on_c, 0, 61, 80
2, 60959, Note_on_c, 0, 61, 0
2, 60960, Note_on_c, 0, 59, 80
2, 61199, Note_on_c, 0, 59, 0
2, 61200, Note_on_c, 0, 57, 80
2, 61439, Note_on_c, 0, 57, 0
2, 61440, Note_on_c, 0, 56, 80
2, 62159, Note_on_c, 0, 56, 0
2, 62160, Note_on_c, 0, 68, 80
2, 62399, Note_on_c, 0, 68, 0
2, 62400, Note_on_c, 0, 66, 80
2, 62639, Note_on_c, 0, 66, 0
2, 62640, Note_on_c, 0, 64, 80
2, 62879, Note_on_c, 0, 64, 0
2, 62880, Note_on_c, 0, 66, 80
2, 63359, Note_on_c, 0, 66, 0
2, 63360, Note_on_c, 0, 59, 80
2, 63839, Note_on_c, 0, 59, 0
2, 64560, Note_on_c, 0, 64, 80
2, 64799, Note_on_c, 0, 64, 0
2, 64800, Note_on_c, 0, 63, 80
2, 65039, Note_on_c, 0, 63, 0
2, 65040, Note_on_c, 0, 61, 80
2, 65279, Note_on_c, 0, 61, 0
2, 65280, Note_on_c, 0, 66, 80
2, 65519, Note_on_c, 0, 66, 0
2, 65520, Note_on_c, 0, 68, 80
2, 65759, Note_on_c, 0, 68, 0
2, 65760, Note_on_c, 0, 69, 80
2, 66479, Note_on_c, 0, 69, 0
2, 66480, Note_on_c, 0, 68, 80
2, 66719, Note_on_c, 0, 68, 0
2, 66720, Note_on_c, 0, 69, 80
2, 67199, Note_on_c, 0, 69, 0
2, 67200, Note_on_c, 0, 68, 80
2, 67679, Note_on_c, 0, 68, 0
2, 67680, Note_on_c, 0, 63, 80
2, 68159, Note_on_c, 0, 63, 0
2, 68160, Note_on_c, 0, 64, 80
2, 69359, Note_on_c, 0, 64, 0
2, 69360, Note_on_c, 0, 63, 80
2, 69599, Note_on_c, 0, 63, 0
2, 69600, Note_on_c, 0, 64, 80
2, 69839, Note_on_c, 0, 64, 0
2, 69840, Note_on_c, 0, 66, 80
2, 70079, Note_on_c, 0, 66, 0
2, 70080, Note_on_c, 0, 68, 80
2, 71279, Note_on_c, 0, 68, 0
2, 71280, Note_on_c, 0, 69, 80
2, 71519, Note_on_c, 0, 69, 0
2, 71520, Note_on_c, 0, 68, 80
2, 71759, Note_on_c, 0, 68, 0
2, 71760, Note_on_c, 0, 66, 80
2, 71999, Note_on_c, 0, 66, 0
2, 72000, Note_on_c, 0, 64, 80
2, 72479, Note_on_c, 0, 64, 0
2, 72480, Note_on_c, 0, 68, 80
2, 72959, Note_on_c, 0, 68, 0
2, 72960, Note_on_c, 0, 66, 80
2, 73919, Note_on_c, 0, 66, 0
2, 73920, Note_on_c, 0, 64, 80
2, 74879, Note_on_c, 0, 64, 0
2, 74880, Note_on_c, 0, 63, 80
2, 75839, Note_on_c, 0, 63, 0
2, 75840, Note_on_c, 0, 61, 80
2, 76799, Note_on_c, 0, 61, 0
2, 76800, Note_on_c, 0, 59, 80
2, 77279, Note_on_c, 0, 59, 0
2, 77760, Note_on_c, 0, 66, 80
2, 78719, Note_on_c, 0, 66, 0
2, 78720, Note_on_c, 0, 73, 80
2, 79439, Note_on_c, 0, 73, 0
2, 79440, Note_on_c, 0, 71, 80
2, 79679, Note_on_c, 0, 71, 0
2, 79680, Note_on_c, 0, 69, 80
2, 80399, Note_on_c, 0, 69, 0
2, 80400, Note_on_c, 0, 68, 80
2, 80639, Note_on_c, 0, 68, 0
2, 80640, Note_on_c, 0, 66, 80
2, 81599, Note_on_c, 0, 66, 0
2, 81600, Note_on_c, 0, 65, 80
2, 82559, Note_on_c, 0, 65, 0
2, 82560, Note_on_c, 0, 66, 80
2, 83279, Note_on_c, 0, 66, 0
2, 83280, Note_on_c, 0, 68, 80
2, 83519, Note_on_c, 0, 68, 0
2, 83520, Note_on_c, 0, 69, 80
2, 84719, Note_on_c, 0, 69, 0
2, 84720, Note_on_c, 0, 71, 80
2, 84959, Note_on_c, 0, 71, 0
2, 84960, Note_on_c, 0, 69, 80
2, 85199, Note_on_c, 0, 69, 0
2, 85200, Note_on_c, 0, 68, 80
2, 85439, Note_on_c, 0, 68, 0
2, 85440, Note_on_c, 0, 66, 80
2, 85679, Note_on_c, 0, 66, 0
2, 85680, Note_on_c, 0, 69, 80
2, 85919, Note_on_c, 0, 69, 0
2, 85920, Note_on_c, 0, 68, 80
2, 86159, Note_on_c, 0, 68, 0
2, 86160, Note_on_c, 0, 66, 80
2, 86399, Note_on_c, 0, 66, 0
2, 86400, Note_on_c, 0, 68, 80
2, 86879, Note_on_c, 0, 68, 0
2, 86880, Note_on_c, 0, 71, 80
2, 87359, Note_on_c, 0, 71, 0
2, 87360, Note_on_c, 0, 64, 80
2, 88079, Note_on_c, 0, 64, 0
2, 88080, Note_on_c, 0, 66, 80
2, 88319, Note_on_c, 0, 66, 0
2, 88320, Note_on_c, 0, 64, 80
2, 88559, Note_on_c, 0, 64, 0
2, 88560, Note_on_c, 0, 62, 80
2, 88799, Note_on_c, 0, 62, 0
2, 88800, Note_on_c, 0, 61, 80
2, 89039, Note_on_c, 0, 61, 0
2, 89040, Note_on_c, 0, 59, 80
2, 89279, Note_on_c, 0, 59, 0
2, 89280, Note_on_c, 0, 61, 80
2, 89759, Note_on_c, 0, 61, 0
2, 90480, Note_on_c, 0, 56, 80
2, 90719, Note_on_c, 0, 56, 0
2, 90720, Note_on_c, 0, 57, 80
2, 90959, Note_on_c, 0, 57, 0
2, 90960, Note_on_c, 0, 59, 80
2, 91199, Note_on_c, 0, 59, 0
2, 91200, Note_on_c, 0, 61, 80
2, 91439, Note_on_c, 0, 61, 0
2, 91440, Note_on_c, 0, 59, 80
2, 91679, Note_on_c, 0, 59, 0
2, 91680, Note_on_c, 0, 62, 80
2, 92159, Note_on_c, 0, 62, 0
2, 92160, Note_on_c, 0, 61, 80
2, 92639, Note_on_c, 0, 61, 0
2, 92640, Note_on_c, 0, 66, 80
2, 92879, Note_on_c, 0, 66, 0
2, 92880, Note_on_c, 0, 68, 80
2, 93119, Note_on_c, 0, 68, 0
2, 93120, Note_on_c, 0, 69, 80
2, 93359, Note_on_c, 0, 69, 0
2, 93360, Note_on_c, 0, 71, 80
2, 93599, Note_on_c, 0, 71, 0
2, 93600, Note_on_c, 0, 73, 80
2, 94319, Note_on_c, 0, 73, 0
2, 94320, Note_on_c, 0, 71, 80
2, 94559, Note_on_c, 0, 71, 0
2, 94560, Note_on_c, 0, 69, 80
2, 94799, Note_on_c, 0, 69, 0
2, 94800, Note_on_c, 0, 68, 80
2, 95039, Note_on_c, 0, 68, 0
2, 95040, Note_on_c, 0, 66, 80
2, 95279, Note_on_c, 0, 66, 0
2, 95280, Note_on_c, 0, 68, 80
2, 95519, Note_on_c, 0, 68, 0
2, 95520, Note_on_c, 0, 69, 80
2, 96239, Note_on_c, 0, 69, 0
2, 96240, Note_on_c, 0, 66, 80
2, 96479, Note_on_c, 0, 66, 0
2, 96480, Note_on_c, 0, 68, 80
2, 97199, Note_on_c, 0, 68, 0
2, 97200, Note_on_c, 0, 64, 80
2, 97439, Note_on_c, 0, 64, 0
2, 97440, Note_on_c, 0, 66, 80
2, 97679, Note_on_c, 0, 66, 0
2, 97680, Note_on_c, 0, 68, 80
2, 97919, Note_on_c, 0, 68, 0
2, 97920, Note_on_c, 0, 69, 80
2, 99119, Note_on_c, 0, 69, 0
2, 99120, Note_on_c, 0, 69, 80
2, 99359, Note_on_c, 0, 69, 0
2, 99360, Note_on_c, 0, 68, 80
2, 99599, Note_on_c, 0, 68, 0
2, 99600, Note_on_c, 0, 66, 80
2, 99839, Note_on_c, 0, 66, 0
2, 99840, Note_on_c, 0, 68, 80
2, 100319, Note_on_c, 0, 68, 0
2, 101280, Note_on_c, 0, 71, 80
2, 101759, Note_on_c, 0, 71, 0
2, 101760, Note_on_c, 0, 66, 80
2, 102479, Note_on_c, 0, 66, 0
2, 102480, Note_on_c, 0, 68, 80
2, 102719, Note_on_c, 0, 68, 0
2, 102720, Note_on_c, 0, 69, 80
2, 103439, Note_on_c, 0, 69, 0
2, 103440, Note_on_c, 0, 71, 80
2, 103679, Note_on_c, 0, 71, 0
2, 103680, Note_on_c, 0, 73, 80
2, 104159, Note_on_c, 0, 73, 0
2, 104160, Note_on_c, 0, 68, 80
2, 104879, Note_on_c, 0, 68, 0
2, 104880, Note_on_c, 0, 69, 80
2, 105119, Note_on_c, 0, 69, 0
2, 105120, Note_on_c, 0, 71, 80
2, 106079, Note_on_c, 0, 71, 0
2, 106080, Note_on_c, 0, 69, 80
2, 107039, Note_on_c, 0, 69, 0
2, 107040, Note_on_c, 0, 68, 80
2, 107759, Note_on_c, 0, 68, 0
2, 107760, Note_on_c, 0, 70, 80
2, 107999, Note_on_c, 0, 70, 0
2, 108000, Note_on_c, 0, 68, 80
2, 108239, Note_on_c, 0, 68, 0
2, 108240, Note_on_c, 0, 67, 80
2, 108479, Note_on_c, 0, 67, 0
2, 108480, Note_on_c, 0, 68, 80
2, 108959, Note_on_c, 0, 68, 0
2, 110400, Note_on_c, 0, 61, 80
2, 111359, Note_on_c, 0, 61, 0
2, 111360, Note_on_c, 0, 68, 80
2, 112079, Note_on_c, 0, 68, 0
2, 112080, Note_on_c, 0, 66, 80
2, 112319, Note_on_c, 0, 66, 0
2, 112320, Note_on_c, 0, 64, 80
2, 113039, Note_on_c, 0, 64, 0
2, 113040, Note_on_c, 0, 63, 80
2, 113279, Note_on_c, 0, 63, 0
2, 113280, Note_on_c, 0, 61, 80
2, 114239, Note_on_c, 0, 61, 0
2, 114240, Note_on_c, 0, 60, 80
2, 115199, Note_on_c, 0, 60, 0
2, 115200, Note_on_c, 0, 61, 80
2, 115919, Note_on_c, 0, 61, 0
2, 115920, Note_on_c, 0, 63, 80
2, 116159, Note_on_c, 0, 63, 0
2, 116160, Note_on_c, 0, 64, 80
2, 117359, Note_on_c, 0, 64, 0
2, 117360, Note_on_c, 0, 66, 80
2, 117599, Note_on_c, 0, 66, 0
2, 117600, Note_on_c, 0, 64, 80
2, 117839, Note_on_c, 0, 64, 0
2, 117840, Note_on_c, 0, 62, 80
2, 118079, Note_on_c, 0, 62, 0
2, 118080, Note_on_c, 0, 61, 80
2, 120239, Note_on_c, 0, 61, 0
2, 120240, Note_on_c, 0, 61, 80
2, 120479, Note_on_c, 0, 61, 0
2, 120480, Note_on_c, 0, 59, 80
2, 120719, Note_on_c, 0, 59, 0
2, 120720, Note_on_c, 0, 57, 80
2, 120959, Note_on_c, 0, 57, 0
2, 120960, Note_on_c, 0, 56, 80
2, 122399, Note_on_c, 0, 56, 0
2, 122400, Note_on_c, 0, 55, 80
2, 122879, Note_on_c, 0, 55, 0
2, 122880, Note_on_c, 0, 56, 80
2, 123359, Note_on_c, 0, 56, 0
2, 124320, Note_on_c, 0, 68, 80
2, 124799, Note_on_c, 0, 68, 0
2, 124800, Note_on_c, 0, 73, 80
2, 125519, Note_on_c, 0, 73, 0
2, 125520, Note_on_c, 0, 71, 80
2, 125759, Note_on_c, 0, 71, 0
2, 125760, Note_on_c, 0, 69, 80
2, 126479, Note_on_c, 0, 69, 0
2, 126480, Note_on_c, 0, 68, 80
2, 126719, Note_on_c, 0, 68, 0
2, 126720, Note_on_c, 0, 66, 80
2, 127199, Note_on_c, 0, 66, 0
2, 127200, Note_on_c, 0, 71, 80
2, 127919, Note_on_c, 0, 71, 0
2, 127920, Note_on_c, 0, 69, 80
2, 128159, Note_on_c, 0, 69, 0
2, 128160, Note_on_c, 0, 68, 80
2, 128879, Note_on_c, 0, 68, 0
2, 128880, Note_on_c, 0, 66, 80
2, 129119, Note_on_c, 0, 66, 0
2, 129120, Note_on_c, 0, 64, 80
2, 129599, Note_on_c, 0, 64, 0
2, 129600, Note_on_c, 0, 69, 80
2, 129839, Note_on_c, 0, 69, 0
2, 129840, Note_on_c, 0, 68, 80
2, 130079, Note_on_c, 0, 68, 0
2, 130080, Note_on_c, 0, 66, 80
2, 130559, Note_on_c, 0, 66, 0
2, 130560, Note_on_c, 0, 71, 80
2, 130799, Note_on_c, 0, 71, 0
2, 130800, Note_on_c, 0, 69, 80
2, 131039, Note_on_c, 0, 69, 0
2, 131040, Note_on_c, 0, 71, 80
2, 131759, Note_on_c, 0, 71, 0
2, 131760, Note_on_c, 0, 68, 80
2, 131999, Note_on_c, 0, 68, 0
2, 132000, Note_on_c, 0, 69, 80
2, 132479, Note_on_c, 0, 69, 0
2, 132480, Note_on_c, 0, 68, 80
2, 132719, Note_on_c, 0, 68, 0
2, 132720, Note_on_c, 0, 72, 80
2, 132959, Note_on_c, 0, 72, 0
2, 132960, Note_on_c, 0, 73, 80
2, 133199, Note_on_c, 0, 73, 0
2, 133200, Note_on_c, 0, 75, 80
2, 133439, Note_on_c, 0, 75, 0
2, 133440, Note_on_c, 0, 76, 80
2, 134399, Note_on_c, 0, 76, 0
2, 134640, Note_on_c, 0, 80, 80
2, 134879, Note_on_c, 0, 80, 0
2, 134880, Note_on_c, 0, 78, 80
2, 135119, Note_on_c, 0, 78, 0
2, 135120, Note_on_c, 0, 76, 80
2, 135359, Note_on_c, 0, 76, 0
2, 135360, Note_on_c, 0, 75, 80
2, 135599, Note_on_c, 0, 75, 0
2, 135600, Note_on_c, 0, 73, 80
2, 135839, Note_on_c, 0, 73, 0
2, 135840, Note_on_c, 0, 75, 80
2, 136319, Note_on_c, 0, 75, 0
2, 136320, Note_on_c, 0, 73, 80
2, 137279, Note_on_c, 0, 73, 0
2, 147840, Note_on_c, 0, 61, 80
2, 148799, Note_on_c, 0, 61, 0
2, 148800, Note_on_c, 0, 68, 80
2, 149519, Note_on_c, 0, 68, 0
2, 149520, Note_on_c, 0, 66, 80
2, 149759, Note_on_c, 0, 66, 0
2, 149760, Note_on_c, 0, 64, 80
2, 150479, Note_on_c, 0, 64, 0
2, 150480, Note_on_c, 0, 63, 80
2, 150719, Note_on_c, 0, 63, 0
2, 150720, Note_on_c, 0, 61, 80
2, 151679, Note_on_c, 0, 61, 0
2, 151680, Note_on_c, 0, 60, 80
2, 152639, Note_on_c, 0, 60, 0
2, 152640, Note_on_c, 0, 61, 80
2, 153359, Note_on_c, 0, 61, 0
2, 153360, Note_on_c, 0, 63, 80
2, 153599, Note_on_c, 0, 63, 0
2, 153600, Note_on_c, 0, 64, 80
2, 154799, Note_on_c, 0, 64, 0
2, 154800, Note_on_c, 0, 66, 80
2, 155039, Note_on_c, 0, 66, 0
2, 155040, Note_on_c, 0, 64, 80
2, 155279, Note_on_c, 0, 64, 0
2, 155280, Note_on_c, 0, 63, 80
2, 155519, Note_on_c, 0, 63, 0
2, 155520, Note_on_c, 0, 61, 80
2, 156959, Note_on_c, 0, 61, 0
2, 157680, Note_on_c, 0, 68, 80
2, 157919, Note_on_c, 0, 68, 0
2, 157920, Note_on_c, 0, 69, 80
2, 158159, Note_on_c, 0, 69, 0
2, 158160, Note_on_c, 0, 71, 80
2, 158399, Note_on_c, 0, 71, 0
2, 158400, Note_on_c, 0, 73, 80
2, 159359, Note_on_c, 0, 73, 0
2, 159360, Note_on_c, 0, 68, 80
2, 160559, Note_on_c, 0, 68, 0
2, 160560, Note_on_c, 0, 68, 80
2, 160799, Note_on_c, 0, 68, 0
2, 160800, Note_on_c, 0, 66, 80
2, 161519, Note_on_c, 0, 66, 0
2, 161520, Note_on_c, 0, 68, 80
2, 161759, Note_on_c, 0, 68, 0
2, 161760, Note_on_c, 0, 69, 80
2, 162239, Note_on_c, 0, 69, 0
2, 162240, Note_on_c, 0, 68, 80
2, 162719, Note_on_c, 0, 68, 0
2, 162720, Note_on_c, 0, 66, 80
2, 163200, Note_on_c, 0, 61, 80
2, 163679, Note_on_c, 0, 66, 0
2, 163680, Note_on_c, 0, 65, 80
2, 164159, Note_on_c, 0, 61, 0
2, 164159, Note_on_c, 0, 65, 0
2, 164160, Note_on_c, 0, 68, 80
2, 164879, Note_on_c, 0, 68, 0
2, 164880, Note_on_c, 0, 66, 80
2, 165119, Note_on_c, 0, 66, 0
2, 165120, Note_on_c, 0, 65, 80
2, 165839, Note_on_c, 0, 65, 0
2, 165840, Note_on_c, 0, 63, 80
2, 166079, Note_on_c, 0, 63, 0
2, 166080, Note_on_c, 0, 61, 80
2, 167039, Note_on_c, 0, 61, 0
2, 167040, Note_on_c, 0, 60, 80
2, 167999, Note_on_c, 0, 60, 0
2, 168000, Note_on_c, 0, 61, 80
2, 168719, Note_on_c, 0, 61, 0
2, 168720, Note_on_c, 0, 63, 80
2, 168959, Note_on_c, 0, 63, 0
2, 168960, Note_on_c, 0, 65, 80
2, 170159, Note_on_c, 0, 65, 0
2, 170160, Note_on_c, 0, 66, 80
2, 170399, Note_on_c, 0, 66, 0
2, 170400, Note_on_c, 0, 65, 80
2, 170639, Note_on_c, 0, 65, 0
2, 170640, Note_on_c, 0, 63, 80
2, 170879, Note_on_c, 0, 63, 0
2, 170880, Note_on_c, 0, 61, 80
2, 172799, Note_on_c, 0, 61, 0
2, 172800, End_track
3, 0, Start_track
3, 0, Key_signature, 4, "major"
3, 0, Program_c, 1, 46
3, 2, Control_c, 1, 7, 100
3, 4, Control_c, 1, 10, 64
3, 6, Control_c, 1, 91, 30
3, 8, Control_c, 1, 93, 30
3, 17280, Note_on_c, 1, 61, 80
3, 18239, Note_on_c, 1, 61, 0
3, 18240, Note_on_c, 1, 56, 80
3, 18959, Note_on_c, 1, 56, 0
3, 18960, Note_on_c, 1, 58, 80
3, 19199, Note_on_c, 1, 58, 0
3, 19200, Note_on_c, 1, 59, 80
3, 19919, Note_on_c, 1, 59, 0
3, 19920, Note_on_c, 1, 61, 80
3, 20159, Note_on_c, 1, 61, 0
3, 20160, Note_on_c, 1, 63, 80
3, 21119, Note_on_c, 1, 63, 0
3, 21120, Note_on_c, 1, 64, 80
3, 22079, Note_on_c, 1, 64, 0
3, 22080, Note_on_c, 1, 63, 80
3, 22799, Note_on_c, 1, 63, 0
3, 22800, Note_on_c, 1, 61, 80
3, 23039, Note_on_c, 1, 61, 0
3, 23040, Note_on_c, 1, 60, 80
3, 24239, Note_on_c, 1, 60, 0
3, 24240, Note_on_c, 1, 56, 80
3, 24479, Note_on_c, 1, 56, 0
3, 24480, Note_on_c, 1, 58, 80
3, 24719, Note_on_c, 1, 58, 0
3, 24720, Note_on_c, 1, 60, 80
3, 24959, Note_on_c, 1, 60, 0
3, 24960, Note_on_c, 1, 61, 80
3, 26159, Note_on_c, 1, 61, 0
3, 26160, Note_on_c, 1, 61, 80
3, 26399, Note_on_c, 1, 61, 0
3, 26400, Note_on_c, 1, 60, 80
3, 26639, Note_on_c, 1, 60, 0
3, 26640, Note_on_c, 1, 58, 80
3, 26879, Note_on_c, 1, 58, 0
3, 26880, Note_on_c, 1, 60, 80
3, 27359, Note_on_c, 1, 60, 0
3, 27360, Note_on_c, 1, 61, 80
3, 27599, Note_on_c, 1, 61, 0
3, 27600, Note_on_c, 1, 63, 80
3, 27839, Note_on_c, 1, 63, 0
3, 27840, Note_on_c, 1, 64, 80
3, 28079, Note_on_c, 1, 64, 0
3, 28080, Note_on_c, 1, 63, 80
3, 28319, Note_on_c, 1, 63, 0
3, 28320, Note_on_c, 1, 64, 80
3, 28559, Note_on_c, 1, 64, 0
3, 28560, Note_on_c, 1, 66, 80
3, 28799, Note_on_c, 1, 66, 0
3, 28800, Note_on_c, 1, 68, 80
3, 29279, Note_on_c, 1, 68, 0
3, 29280, Note_on_c, 1, 63, 80
3, 29759, Note_on_c, 1, 63, 0
3, 29760, Note_on_c, 1, 68, 80
3, 30719, Note_on_c, 1, 68, 0
3, 36480, Note_on_c, 1, 56, 80
3, 37439, Note_on_c, 1, 56, 0
3, 37440, Note_on_c, 1, 63, 80
3, 38159, Note_on_c, 1, 63, 0
3, 38160, Note_on_c, 1, 61, 80
3, 38399, Note_on_c, 1, 61, 0
3, 38400, Note_on_c, 1, 59, 80
3, 39119, Note_on_c, 1, 59, 0
3, 39120, Note_on_c, 1, 58, 80
3, 39359, Note_on_c, 1, 58, 0
3, 39360, Note_on_c, 1, 56, 80
3, 40319, Note_on_c, 1, 56, 0
3, 40320, Note_on_c, 1, 55, 80
3, 41279, Note_on_c, 1, 55, 0
3, 41280, Note_on_c, 1, 56, 80
3, 41999, Note_on_c, 1, 56, 0
3, 42000, Note_on_c, 1, 58, 80
3, 42239, Note_on_c, 1, 58, 0
3, 42240, Note_on_c, 1, 59, 80
3, 43439, Note_on_c, 1, 59, 0
3, 43440, Note_on_c, 1, 61, 80
3, 43679, Note_on_c, 1, 61, 0
3, 43680, Note_on_c, 1, 59, 80
3, 43919, Note_on_c, 1, 59, 0
3, 43920, Note_on_c, 1, 57, 80
3, 44159, Note_on_c, 1, 57, 0
3, 44160, Note_on_c, 1, 56, 80
3, 45119, Note_on_c, 1, 56, 0
3, 45360, Note_on_c, 1, 63, 80
3, 45599, Note_on_c, 1, 63, 0
3, 45600, Note_on_c, 1, 61, 80
3, 45839, Note_on_c, 1, 61, 0
3, 45840, Note_on_c, 1, 60, 80
3, 46079, Note_on_c, 1, 60, 0
3, 46080, Note_on_c, 1, 61, 80
3, 47279, Note_on_c, 1, 61, 0
3, 47280, Note_on_c, 1, 60, 80
3, 47519, Note_on_c, 1, 60, 0
3, 47520, Note_on_c, 1, 63, 80
3, 47999, Note_on_c, 1, 63, 0
3, 48000, Note_on_c, 1, 56, 80
3, 49439, Note_on_c, 1, 56, 0
3, 49440, Note_on_c, 1, 61, 80
3, 50639, Note_on_c, 1, 61, 0
3, 50640, Note_on_c, 1, 59, 80
3, 50879, Note_on_c, 1, 59, 0
3, 50880, Note_on_c, 1, 57, 80
3, 52079, Note_on_c, 1, 57, 0
3, 52080, Note_on_c, 1, 57, 80
3, 52319, Note_on_c, 1, 57, 0
3, 52320, Note_on_c, 1, 56, 80
3, 52559, Note_on_c, 1, 56, 0
3, 52560, Note_on_c, 1, 54, 80
3, 52799, Note_on_c, 1, 54, 0
3, 52800, Note_on_c, 1, 56, 80
3, 53519, Note_on_c, 1, 56, 0
3, 53520, Note_on_c, 1, 54, 80
3, 53759, Note_on_c, 1, 54, 0
3, 53760, Note_on_c, 1, 56, 80
3, 54239, Note_on_c, 1, 56, 0
3, 54240, Note_on_c, 1, 57, 80
3, 54719, Note_on_c, 1, 57, 0
3, 54720, Note_on_c, 1, 59, 80
3, 55919, Note_on_c, 1, 59, 0
3, 55920, Note_on_c, 1, 57, 80
3, 56159, Note_on_c, 1, 57, 0
3, 56160, Note_on_c, 1, 56, 80
3, 56399, Note_on_c, 1, 56, 0
3, 56400, Note_on_c, 1, 54, 80
3, 56639, Note_on_c, 1, 54, 0
3, 56640, Note_on_c, 1, 52, 80
3, 57119, Note_on_c, 1, 52, 0
3, 57120, Note_on_c, 1, 54, 80
3, 57599, Note_on_c, 1, 54, 0
3, 57600, Note_on_c, 1, 56, 80
3, 58799, Note_on_c, 1, 56, 0
3, 58800, Note_on_c, 1, 54, 80
3, 59039, Note_on_c, 1, 54, 0
3, 59040, Note_on_c, 1, 52, 80
3, 59279, Note_on_c, 1, 52, 0
3, 59280, Note_on_c, 1, 51, 80
3, 59519, Note_on_c, 1, 51, 0
3, 59520, Note_on_c, 1, 49, 80
3, 59999, Note_on_c, 1, 49, 0
3, 60000, Note_on_c, 1, 51, 80
3, 60479, Note_on_c, 1, 51, 0
3, 60480, Note_on_c, 1, 52, 80
3, 60959, Note_on_c, 1, 52, 0
3, 60960, Note_on_c, 1, 54, 80
3, 61679, Note_on_c, 1, 54, 0
3, 61680, Note_on_c, 1, 54, 80
3, 61919, Note_on_c, 1, 54, 0
3, 61920, Note_on_c, 1, 52, 80
3, 62879, Note_on_c, 1, 52, 0
3, 62880, Note_on_c, 1, 51, 80
3, 63359, Note_on_c, 1, 51, 0
3, 63360, Note_on_c, 1, 52, 80
3, 63599, Note_on_c, 1, 52, 0
3, 63600, Note_on_c, 1, 47, 80
3, 63839, Note_on_c, 1, 47, 0
3, 63840, Note_on_c, 1, 49, 80
3, 64079, Note_on_c, 1, 49, 0
3, 64080, Note_on_c, 1, 51, 80
3, 64319, Note_on_c, 1, 51, 0
3, 64320, Note_on_c, 1, 52, 80
3, 64799, Note_on_c, 1, 52, 0
3, 66000, Note_on_c, 1, 47, 80
3, 66239, Note_on_c, 1, 47, 0
3, 66240, Note_on_c, 1, 52, 80
3, 66959, Note_on_c, 1, 52, 0
3, 66960, Note_on_c, 1, 51, 80
3, 67199, Note_on_c, 1, 51, 0
3, 67200, Note_on_c, 1, 52, 80
3, 67439, Note_on_c, 1, 52, 0
3, 67440, Note_on_c, 1, 56, 80
3, 67679, Note_on_c, 1, 56, 0
3, 67680, Note_on_c, 1, 59, 80
3, 69359, Note_on_c, 1, 59, 0
3, 69360, Note_on_c, 1, 57, 80
3, 69599, Note_on_c, 1, 57, 0
3, 69600, Note_on_c, 1, 56, 80
3, 69839, Note_on_c, 1, 56, 0
3, 69840, Note_on_c, 1, 54, 80
3, 70079, Note_on_c, 1, 54, 0
3, 70080, Note_on_c, 1, 52, 80
3, 71279, Note_on_c, 1, 52, 0
3, 71280, Note_on_c, 1, 51, 80
3, 71519, Note_on_c, 1, 51, 0
3, 71520, Note_on_c, 1, 52, 80
3, 71759, Note_on_c, 1, 52, 0
3, 71760, Note_on_c, 1, 54, 80
3, 71999, Note_on_c, 1, 54, 0
3, 72000, Note_on_c, 1, 56, 80
3, 72479, Note_on_c, 1, 56, 0
3, 76800, Note_on_c, 1, 59, 80
3, 77759, Note_on_c, 1, 59, 0
3, 77760, Note_on_c, 1, 54, 80
3, 78479, Note_on_c, 1, 54, 0
3, 78480, Note_on_c, 1, 56, 80
3, 78719, Note_on_c, 1, 56, 0
3, 78720, Note_on_c, 1, 57, 80
3, 79439, Note_on_c, 1, 57, 0
3, 79440, Note_on_c, 1, 59, 80
3, 79679, Note_on_c, 1, 59, 0
3, 79680, Note_on_c, 1, 61, 80
3, 80639, Note_on_c, 1, 61, 0
3, 80640, Note_on_c, 1, 62, 80
3, 81599, Note_on_c, 1, 62, 0
3, 81600, Note_on_c, 1, 61, 80
3, 82319, Note_on_c, 1, 61, 0
3, 82320, Note_on_c, 1, 59, 80
3, 82559, Note_on_c, 1, 59, 0
3, 82560, Note_on_c, 1, 57, 80
3, 83759, Note_on_c, 1, 57, 0
3, 83760, Note_on_c, 1, 56, 80
3, 83999, Note_on_c, 1, 56, 0
3, 84000, Note_on_c, 1, 57, 80
3, 84239, Note_on_c, 1, 57, 0
3, 84240, Note_on_c, 1, 59, 80
3, 84479, Note_on_c, 1, 59, 0
3, 84480, Note_on_c, 1, 61, 80
3, 85679, Note_on_c, 1, 61, 0
3, 85680, Note_on_c, 1, 61, 80
3, 85919, Note_on_c, 1, 61, 0
3, 85920, Note_on_c, 1, 59, 80
3, 86159, Note_on_c, 1, 59, 0
3, 86160, Note_on_c, 1, 57, 80
3, 86399, Note_on_c, 1, 57, 0
3, 86400, Note_on_c, 1, 59, 80
3, 87599, Note_on_c, 1, 59, 0
3, 87600, Note_on_c, 1, 52, 80
3, 87839, Note_on_c, 1, 52, 0
3, 87840, Note_on_c, 1, 57, 80
3, 88799, Note_on_c, 1, 57, 0
3, 88800, Note_on_c, 1, 56, 80
3, 89279, Note_on_c, 1, 56, 0
3, 89280, Note_on_c, 1, 57, 80
3, 89759, Note_on_c, 1, 57, 0
3, 91200, Note_on_c, 1, 64, 80
3, 92159, Note_on_c, 1, 64, 0
3, 92160, Note_on_c, 1, 57, 80
3, 92879, Note_on_c, 1, 57, 0
3, 92880, Note_on_c, 1, 59, 80
3, 93119, Note_on_c, 1, 59, 0
3, 93120, Note_on_c, 1, 61, 80
3, 93839, Note_on_c, 1, 61, 0
3, 93840, Note_on_c, 1, 62, 80
3, 94079, Note_on_c, 1, 62, 0
3, 94080, Note_on_c, 1, 64, 80
3, 95039, Note_on_c, 1, 64, 0
3, 95040, Note_on_c, 1, 66, 80
3, 95999, Note_on_c, 1, 66, 0
3, 96000, Note_on_c, 1, 64, 80
3, 96719, Note_on_c, 1, 64, 0
3, 96720, Note_on_c, 1, 62, 80
3, 96959, Note_on_c, 1, 62, 0
3, 96960, Note_on_c, 1, 61, 80
3, 98159, Note_on_c, 1, 61, 0
3, 98160, Note_on_c, 1, 59, 80
3, 98399, Note_on_c, 1, 59, 0
3, 98400, Note_on_c, 1, 61, 80
3, 98639, Note_on_c, 1, 61, 0
3, 98640, Note_on_c, 1, 63, 80
3, 98879, Note_on_c, 1, 63, 0
3, 98880, Note_on_c, 1, 64, 80
3, 100319, Note_on_c, 1, 64, 0
3, 100800, Note_on_c, 1, 64, 80
3, 101279, Note_on_c, 1, 64, 0
3, 101280, Note_on_c, 1, 59, 80
3, 101999, Note_on_c, 1, 59, 0
3, 102000, Note_on_c, 1, 61, 80
3, 102239, Note_on_c, 1, 61, 0
3, 102240, Note_on_c, 1, 62, 80
3, 102959, Note_on_c, 1, 62, 0
3, 102960, Note_on_c, 1, 64, 80
3, 103199, Note_on_c, 1, 64, 0
3, 103200, Note_on_c, 1, 66, 80
3, 103679, Note_on_c, 1, 66, 0
3, 103680, Note_on_c, 1, 61, 80
3, 104399, Note_on_c, 1, 61, 0
3, 104400, Note_on_c, 1, 63, 80
3, 104639, Note_on_c, 1, 63, 0
3, 104640, Note_on_c, 1, 64, 80
3, 105359, Note_on_c, 1, 64, 0
3, 105360, Note_on_c, 1, 66, 80
3, 105599, Note_on_c, 1, 66, 0
3, 105600, Note_on_c, 1, 68, 80
3, 106079, Note_on_c, 1, 68, 0
3, 106080, Note_on_c, 1, 63, 80
3, 106319, Note_on_c, 1, 63, 0
3, 106320, Note_on_c, 1, 64, 80
3, 106559, Note_on_c, 1, 64, 0
3, 106560, Note_on_c, 1, 66, 80
3, 107039, Note_on_c, 1, 66, 0
3, 107040, Note_on_c, 1, 61, 80
3, 107759, Note_on_c, 1, 61, 0
3, 107760, Note_on_c, 1, 61, 80
3, 107999, Note_on_c, 1, 61, 0
3, 108000, Note_on_c, 1, 60, 80
3, 108239, Note_on_c, 1, 60, 0
3, 108240, Note_on_c, 1, 58, 80
3, 108479, Note_on_c, 1, 58, 0
3, 108480, Note_on_c, 1, 60, 80
3, 109439, Note_on_c, 1, 60, 0
3, 109440, Note_on_c, 1, 61, 80
3, 109679, Note_on_c, 1, 61, 0
3, 109680, Note_on_c, 1, 56, 80
3, 109919, Note_on_c, 1, 56, 0
3, 109920, Note_on_c, 1, 59, 80
3, 110639, Note_on_c, 1, 59, 0
3, 110640, Note_on_c, 1, 56, 80
3, 110879, Note_on_c, 1, 56, 0
3, 110880, Note_on_c, 1, 57, 80
3, 111119, Note_on_c, 1, 57, 0
3, 111120, Note_on_c, 1, 66, 80
3, 111359, Note_on_c, 1, 66, 0
3, 111360, Note_on_c, 1, 63, 80
3, 111839, Note_on_c, 1, 63, 0
3, 111840, Note_on_c, 1, 56, 80
3, 112559, Note_on_c, 1, 56, 0
3, 112560, Note_on_c, 1, 56, 80
3, 112799, Note_on_c, 1, 56, 0
3, 112800, Note_on_c, 1, 58, 80
3, 113039, Note_on_c, 1, 58, 0
3, 113040, Note_on_c, 1, 60, 80
3, 113279, Note_on_c, 1, 60, 0
3, 113280, Note_on_c, 1, 61, 80
3, 113759, Note_on_c, 1, 61, 0
3, 114720, Note_on_c, 1, 68, 80
3, 115199, Note_on_c, 1, 68, 0
3, 115200, Note_on_c, 1, 69, 80
3, 115679, Note_on_c, 1, 69, 0
3, 115680, Note_on_c, 1, 57, 80
3, 116159, Note_on_c, 1, 57, 0
3, 116160, Note_on_c, 1, 56, 80
3, 116399, Note_on_c, 1, 56, 0
3, 116400, Note_on_c, 1, 54, 80
3, 116639, Note_on_c, 1, 54, 0
3, 116640, Note_on_c, 1, 56, 80
3, 116879, Note_on_c, 1, 56, 0
3, 116880, Note_on_c, 1, 57, 80
3, 117119, Note_on_c, 1, 57, 0
3, 117120, Note_on_c, 1, 59, 80
3, 118319, Note_on_c, 1, 59, 0
3, 118320, Note_on_c, 1, 59, 80
3, 118559, Note_on_c, 1, 59, 0
3, 118560, Note_on_c, 1, 57, 80
3, 118799, Note_on_c, 1, 57, 0
3, 118800, Note_on_c, 1, 56, 80
3, 119039, Note_on_c, 1, 56, 0
3, 119040, Note_on_c, 1, 54, 80
3, 121199, Note_on_c, 1, 54, 0
3, 121200, Note_on_c, 1, 54, 80
3, 121439, Note_on_c, 1, 54, 0
3, 121440, Note_on_c, 1, 52, 80
3, 121679, Note_on_c, 1, 52, 0
3, 121680, Note_on_c, 1, 51, 80
3, 121919, Note_on_c, 1, 51, 0
3, 121920, Note_on_c, 1, 52, 80
3, 122879, Note_on_c, 1, 52, 0
3, 122880, Note_on_c, 1, 51, 80
3, 123359, Note_on_c, 1, 51, 0
3, 124800, Note_on_c, 1, 61, 80
3, 125279, Note_on_c, 1, 61, 0
3, 125280, Note_on_c, 1, 66, 80
3, 125999, Note_on_c, 1, 66, 0
3, 126000, Note_on_c, 1, 64, 80
3, 126239, Note_on_c, 1, 64, 0
3, 126240, Note_on_c, 1, 63, 80
3, 126959, Note_on_c, 1, 63, 0
3, 126960, Note_on_c, 1, 61, 80
3, 127199, Note_on_c, 1, 61, 0
3, 127200, Note_on_c, 1, 59, 80
3, 127679, Note_on_c, 1, 59, 0
3, 127680, Note_on_c, 1, 64, 80
3, 128399, Note_on_c, 1, 64, 0
3, 128400, Note_on_c, 1, 63, 80
3, 128639, Note_on_c, 1, 63, 0
3, 128640, Note_on_c, 1, 61, 80
3, 130079, Note_on_c, 1, 61, 0
3, 130080, Note_on_c, 1, 63, 80
3, 130799, Note_on_c, 1, 63, 0
3, 130800, Note_on_c, 1, 61, 80
3, 131039, Note_on_c, 1, 61, 0
3, 131040, Note_on_c, 1, 63, 80
3, 131279, Note_on_c, 1, 63, 0
3, 131280, Note_on_c, 1, 65, 80
3, 131519, Note_on_c, 1, 65, 0
3, 131520, Note_on_c, 1, 66, 80
3, 132479, Note_on_c, 1, 66, 0
3, 132480, Note_on_c, 1, 68, 80
3, 133439, Note_on_c, 1, 68, 0
3, 133440, Note_on_c, 1, 61, 80
3, 134159, Note_on_c, 1, 61, 0
3, 134160, Note_on_c, 1, 63, 80
3, 134399, Note_on_c, 1, 63, 0
3, 134400, Note_on_c, 1, 64, 80
3, 135119, Note_on_c, 1, 64, 0
3, 135120, Note_on_c, 1, 66, 80
3, 135359, Note_on_c, 1, 66, 0
3, 135360, Note_on_c, 1, 68, 80
3, 136319, Note_on_c, 1, 68, 0
3, 136320, Note_on_c, 1, 69, 80
3, 137279, Note_on_c, 1, 69, 0
3, 137280, Note_on_c, 1, 68, 80
3, 137999, Note_on_c, 1, 68, 0
3, 138000, Note_on_c, 1, 66, 80
3, 138239, Note_on_c, 1, 66, 0
3, 138240, Note_on_c, 1, 64, 80
3, 139439, Note_on_c, 1, 64, 0
3, 139440, Note_on_c, 1, 63, 80
3, 139679, Note_on_c, 1, 63, 0
3, 139680, Note_on_c, 1, 65, 80
3, 139919, Note_on_c, 1, 65, 0
3, 139920, Note_on_c, 1, 66, 80
3, 140159, Note_on_c, 1, 66, 0
3, 140160, Note_on_c, 1, 68, 80
3, 140399, Note_on_c, 1, 68, 0
3, 140400, Note_on_c, 1, 66, 80
3, 140639, Note_on_c, 1, 66, 0
3, 140640, Note_on_c, 1, 65, 80
3, 140879, Note_on_c, 1, 65, 0
3, 140880, Note_on_c, 1, 68, 80
3, 141119, Note_on_c, 1, 68, 0
3, 141120, Note_on_c, 1, 61, 80
3, 141599, Note_on_c, 1, 61, 0
3, 141600, Note_on_c, 1, 66, 80
3, 142319, Note_on_c, 1, 66, 0
3, 142320, Note_on_c, 1, 60, 80
3, 142559, Note_on_c, 1, 60, 0
3, 142560, Note_on_c, 1, 61, 80
3, 142799, Note_on_c, 1, 61, 0
3, 142800, Note_on_c, 1, 64, 80
3, 143039, Note_on_c, 1, 64, 0
3, 143040, Note_on_c, 1, 57, 80
3, 144239, Note_on_c, 1, 57, 0
3, 144240, Note_on_c, 1, 56, 80
3, 144479, Note_on_c, 1, 56, 0
3, 144480, Note_on_c, 1, 54, 80
3, 144719, Note_on_c, 1, 54, 0
3, 144720, Note_on_c, 1, 56, 80
3, 144959, Note_on_c, 1, 56, 0
3, 144960, Note_on_c, 1, 52, 80
3, 145919, Note_on_c, 1, 52, 0
3, 145920, Note_on_c, 1, 51, 80
3, 146879, Note_on_c, 1, 51, 0
3, 146880, Note_on_c, 1, 56, 80
3, 147599, Note_on_c, 1, 56, 0
3, 147600, Note_on_c, 1, 54, 80
3, 147839, Note_on_c, 1, 54, 0
3, 147840, Note_on_c, 1, 52, 80
3, 148559, Note_on_c, 1, 52, 0
3, 148560, Note_on_c, 1, 51, 80
3, 148799, Note_on_c, 1, 51, 0
3, 148800, Note_on_c, 1, 49, 80
3, 149759, Note_on_c, 1, 49, 0
3, 149760, Note_on_c, 1, 48, 80
3, 150719, Note_on_c, 1, 48, 0
3, 150720, Note_on_c, 1, 49, 80
3, 151439, Note_on_c, 1, 49, 0
3, 151440, Note_on_c, 1, 51, 80
3, 151679, Note_on_c, 1, 51, 0
3, 151680, Note_on_c, 1, 52, 80
3, 152879, Note_on_c, 1, 52, 0
3, 152880, Note_on_c, 1, 54, 80
3, 153119, Note_on_c, 1, 54, 0
3, 153120, Note_on_c, 1, 52, 80
3, 153359, Note_on_c, 1, 52, 0
3, 153360, Note_on_c, 1, 51, 80
3, 153599, Note_on_c, 1, 51, 0
3, 153600, Note_on_c, 1, 49, 80
3, 153839, Note_on_c, 1, 49, 0
3, 153840, Note_on_c, 1, 52, 80
3, 154079, Note_on_c, 1, 52, 0
3, 154080, Note_on_c, 1, 54, 80
3, 154319, Note_on_c, 1, 54, 0
3, 154320, Note_on_c, 1, 56, 80
3, 154559, Note_on_c, 1, 56, 0
3, 154560, Note_on_c, 1, 57, 80
3, 155759, Note_on_c, 1, 57, 0
3, 155760, Note_on_c, 1, 59, 80
3, 155999, Note_on_c, 1, 59, 0
3, 156000, Note_on_c, 1, 57, 80
3, 156239, Note_on_c, 1, 57, 0
3, 156240, Note_on_c, 1, 56, 80
3, 156479, Note_on_c, 1, 56, 0
3, 156480, Note_on_c, 1, 54, 80
3, 156719, Note_on_c, 1, 54, 0
3, 156720, Note_on_c, 1, 57, 80
3, 156959, Note_on_c, 1, 57, 0
3, 156960, Note_on_c, 1, 59, 80
3, 157199, Note_on_c, 1, 59, 0
3, 157200, Note_on_c, 1, 61, 80
3, 157439, Note_on_c, 1, 61, 0
3, 157440, Note_on_c, 1, 62, 80
3, 158399, Note_on_c, 1, 62, 0
3, 158400, Note_on_c, 1, 61, 80
3, 158879, Note_on_c, 1, 61, 0
3, 158880, Note_on_c, 1, 66, 80
3, 159839, Note_on_c, 1, 66, 0
3, 159840, Note_on_c, 1, 64, 80
3, 160079, Note_on_c, 1, 64, 0
3, 160080, Note_on_c, 1, 63, 80
3, 160319, Note_on_c, 1, 63, 0
3, 160320, Note_on_c, 1, 61, 80
3, 160559, Note_on_c, 1, 61, 0
3, 160560, Note_on_c, 1, 64, 80
3, 160799, Note_on_c, 1, 64, 0
3, 160800, Note_on_c, 1, 63, 80
3, 161039, Note_on_c, 1, 63, 0
3, 161040, Note_on_c, 1, 61, 80
3, 161279, Note_on_c, 1, 61, 0
3, 161280, Note_on_c, 1, 63, 80
3, 161759, Note_on_c, 1, 63, 0
3, 161760, Note_on_c, 1, 64, 80
3, 162239, Note_on_c, 1, 64, 0
3, 162240, Note_on_c, 1, 63, 80
3, 162479, Note_on_c, 1, 63, 0
3, 162480, Note_on_c, 1, 61, 80
3, 162719, Note_on_c, 1, 61, 0
3, 162720, Note_on_c, 1, 63, 80
3, 163199, Note_on_c, 1, 63, 0
3, 163200, Note_on_c, 1, 56, 80
3, 163200, Note_on_c, 1, 61, 80
3, 164159, Note_on_c, 1, 56, 0
3, 164159, Note_on_c, 1, 61, 0
3, 164400, Note_on_c, 1, 51, 80
3, 164639, Note_on_c, 1, 51, 0
3, 164640, Note_on_c, 1, 53, 80
3, 164879, Note_on_c, 1, 53, 0
3, 164880, Note_on_c, 1, 54, 80
3, 165119, Note_on_c, 1, 54, 0
3, 165120, Note_on_c, 1, 56, 80
3, 165359, Note_on_c, 1, 56, 0
3, 165360, Note_on_c, 1, 54, 80
3, 165599, Note_on_c, 1, 54, 0
3, 165600, Note_on_c, 1, 56, 80
3, 165839, Note_on_c, 1, 56, 0
3, 165840, Note_on_c, 1, 57, 80
3, 166079, Note_on_c, 1, 57, 0
3, 166080, Note_on_c, 1, 59, 80
3, 166319, Note_on_c, 1, 59, 0
3, 166320, Note_on_c, 1, 57, 80
3, 166559, Note_on_c, 1, 57, 0
3, 166560, Note_on_c, 1, 59, 80
3, 166799, Note_on_c, 1, 59, 0
3, 166800, Note_on_c, 1, 53, 80
3, 167039, Note_on_c, 1, 53, 0
3, 167040, Note_on_c, 1, 54, 80
3, 167279, Note_on_c, 1, 54, 0
3, 167280, Note_on_c, 1, 56, 80
3, 167519, Note_on_c, 1, 56, 0
3, 167520, Note_on_c, 1, 54, 80
3, 167759, Note_on_c, 1, 54, 0
3, 167760, Note_on_c, 1, 51, 80
3, 167999, Note_on_c, 1, 51, 0
3, 168000, Note_on_c, 1, 56, 80
3, 168239, Note_on_c, 1, 56, 0
3, 168240, Note_on_c, 1, 54, 80
3, 168479, Note_on_c, 1, 54, 0
3, 168480, Note_on_c, 1, 53, 80
3, 168719, Note_on_c, 1, 53, 0
3, 168720, Note_on_c, 1, 51, 80
3, 168959, Note_on_c, 1, 51, 0
3, 168960, Note_on_c, 1, 49, 80
3, 170159, Note_on_c, 1, 49, 0
3, 170160, Note_on_c, 1, 48, 80
3, 170399, Note_on_c, 1, 48, 0
3, 170400, Note_on_c, 1, 49, 80
3, 170639, Note_on_c, 1, 49, 0
3, 170640, Note_on_c, 1, 51, 80
3, 170879, Note_on_c, 1, 51, 0
3, 170880, Note_on_c, 1, 53, 80
3, 172799, Note_on_c, 1, 53, 0
3, 172800, End_track
4, 0, Start_track
4, 0, Key_signature, 4, "major"
4, 5760, Note_on_c, 1, 49, 80
4, 6719, Note_on_c, 1, 49, 0
4, 6720, Note_on_c, 1, 56, 80
4, 7439, Note_on_c, 1, 56, 0
4, 7440, Note_on_c, 1, 54, 80
4, 7679, Note_on_c, 1, 54, 0
4, 7680, Note_on_c, 1, 52, 80
4, 8399, Note_on_c, 1, 52, 0
4, 8400, Note_on_c, 1, 51, 80
4, 8639, Note_on_c, 1, 51, 0
4, 8640, Note_on_c, 1, 49, 80
4, 9599, Note_on_c, 1, 49, 0
4, 9600, Note_on_c, 1, 48, 80
4, 10559, Note_on_c, 1, 48, 0
4, 10560, Note_on_c, 1, 49, 80
4, 11279, Note_on_c, 1, 49, 0
4, 11280, Note_on_c, 1, 51, 80
4, 11519, Note_on_c, 1, 51, 0
4, 11520, Note_on_c, 1, 52, 80
4, 12719, Note_on_c, 1, 52, 0
4, 12720, Note_on_c, 1, 54, 80
4, 12959, Note_on_c, 1, 54, 0
4, 12960, Note_on_c, 1, 52, 80
4, 13199, Note_on_c, 1, 52, 0
4, 13200, Note_on_c, 1, 51, 80
4, 13439, Note_on_c, 1, 51, 0
4, 13440, Note_on_c, 1, 49, 80
4, 13679, Note_on_c, 1, 49, 0
4, 13680, Note_on_c, 1, 52, 80
4, 13919, Note_on_c, 1, 52, 0
4, 13920, Note_on_c, 1, 54, 80
4, 14159, Note_on_c, 1, 54, 0
4, 14160, Note_on_c, 1, 56, 80
4, 14399, Note_on_c, 1, 56, 0
4, 14400, Note_on_c, 1, 57, 80
4, 15359, Note_on_c, 1, 57, 0
4, 15360, Note_on_c, 1, 56, 80
4, 16079, Note_on_c, 1, 56, 0
4, 16080, Note_on_c, 1, 44, 80
4, 16319, Note_on_c, 1, 44, 0
4, 16320, Note_on_c, 1, 46, 80
4, 17039, Note_on_c, 1, 46, 0
4, 17040, Note_on_c, 1, 48, 80
4, 17279, Note_on_c, 1, 48, 0
4, 17280, Note_on_c, 1, 49, 80
4, 17999, Note_on_c, 1, 49, 0
4, 18000, Note_on_c, 1, 51, 80
4, 18239, Note_on_c, 1, 51, 0
4, 18240, Note_on_c, 1, 52, 80
4, 18719, Note_on_c, 1, 52, 0
4, 18720, Note_on_c, 1, 49, 80
4, 19199, Note_on_c, 1, 49, 0
4, 19200, Note_on_c, 1, 56, 80
4, 20399, Note_on_c, 1, 56, 0
4, 20400, Note_on_c, 1, 56, 80
4, 20639, Note_on_c, 1, 56, 0
4, 20640, Note_on_c, 1, 57, 80
4, 20879, Note_on_c, 1, 57, 0
4, 20880, Note_on_c, 1, 59, 80
4, 21119, Note_on_c, 1, 59, 0
4, 21120, Note_on_c, 1, 61, 80
4, 22079, Note_on_c, 1, 61, 0
4, 22080, Note_on_c, 1, 54, 80
4, 23279, Note_on_c, 1, 54, 0
4, 23280, Note_on_c, 1, 54, 80
4, 23519, Note_on_c, 1, 54, 0
4, 23520, Note_on_c, 1, 52, 80
4, 23759, Note_on_c, 1, 52, 0
4, 23760, Note_on_c, 1, 51, 80
4, 23999, Note_on_c, 1, 51, 0
4, 24000, Note_on_c, 1, 52, 80
4, 25199, Note_on_c, 1, 52, 0
4, 25200, Note_on_c, 1, 52, 80
4, 25439, Note_on_c, 1, 52, 0
4, 25440, Note_on_c, 1, 51, 80
4, 25679, Note_on_c, 1, 51, 0
4, 25680, Note_on_c, 1, 49, 80
4, 25919, Note_on_c, 1, 49, 0
4, 25920, Note_on_c, 1, 51, 80
4, 26879, Note_on_c, 1, 51, 0
4, 26880, Note_on_c, 1, 56, 80
4, 29999, Note_on_c, 1, 56, 0
4, 30000, Note_on_c, 1, 57, 80
4, 30239, Note_on_c, 1, 57, 0
4, 30240, Note_on_c, 1, 56, 80
4, 30479, Note_on_c, 1, 56, 0
4, 30480, Note_on_c, 1, 54, 80
4, 30719, Note_on_c, 1, 54, 0
4, 30720, Note_on_c, 1, 52, 80
4, 32159, Note_on_c, 1, 52, 0
4, 32160, Note_on_c, 1, 49, 80
4, 32639, Note_on_c, 1, 49, 0
4, 32640, Note_on_c, 1, 56, 80
4, 33119, Note_on_c, 1, 56, 0
4, 33120, Note_on_c, 1, 52, 80
4, 33599, Note_on_c, 1, 52, 0
4, 33600, Note_on_c, 1, 59, 80
4, 34799, Note_on_c, 1, 59, 0
4, 34800, Note_on_c, 1, 59, 80
4, 35039, Note_on_c, 1, 59, 0
4, 35040, Note_on_c, 1, 58, 80
4, 35279, Note_on_c, 1, 58, 0
4, 35280, Note_on_c, 1, 56, 80
4, 35519, Note_on_c, 1, 56, 0
4, 35520, Note_on_c, 1, 55, 80
4, 36479, Note_on_c, 1, 55, 0
4, 36480, Note_on_c, 1, 56, 80
4, 37679, Note_on_c, 1, 56, 0
4, 37680, Note_on_c, 1, 54, 80
4, 37919, Note_on_c, 1, 54, 0
4, 37920, Note_on_c, 1, 52, 80
4, 38399, Note_on_c, 1, 52, 0
4, 38400, Note_on_c, 1, 51, 80
4, 41279, Note_on_c, 1, 51, 0
4, 42240, Note_on_c, 1, 56, 80
4, 43199, Note_on_c, 1, 56, 0
4, 43200, Note_on_c, 1, 49, 80
4, 43919, Note_on_c, 1, 49, 0
4, 43920, Note_on_c, 1, 51, 80
4, 44159, Note_on_c, 1, 51, 0
4, 44160, Note_on_c, 1, 52, 80
4, 44879, Note_on_c, 1, 52, 0
4, 44880, Note_on_c, 1, 54, 80
4, 45119, Note_on_c, 1, 54, 0
4, 45120, Note_on_c, 1, 56, 80
4, 46079, Note_on_c, 1, 56, 0
4, 46080, Note_on_c, 1, 57, 80
4, 47039, Note_on_c, 1, 57, 0
4, 47040, Note_on_c, 1, 56, 80
4, 47759, Note_on_c, 1, 56, 0
4, 47760, Note_on_c, 1, 54, 80
4, 47999, Note_on_c, 1, 54, 0
4, 48000, Note_on_c, 1, 52, 80
4, 49199, Note_on_c, 1, 52, 0
4, 49200, Note_on_c, 1, 51, 80
4, 49439, Note_on_c, 1, 51, 0
4, 49440, Note_on_c, 1, 52, 80
4, 49679, Note_on_c, 1, 52, 0
4, 49680, Note_on_c, 1, 54, 80
4, 49919, Note_on_c, 1, 54, 0
4, 49920, Note_on_c, 1, 56, 80
4, 50879, Note_on_c, 1, 56, 0
4, 51120, Note_on_c, 1, 56, 80
4, 51359, Note_on_c, 1, 56, 0
4, 51360, Note_on_c, 1, 54, 80
4, 51599, Note_on_c, 1, 54, 0
4, 51600, Note_on_c, 1, 52, 80
4, 51839, Note_on_c, 1, 52, 0
4, 51840, Note_on_c, 1, 51, 80
4, 52799, Note_on_c, 1, 51, 0
4, 52800, Note_on_c, 1, 49, 80
4, 53999, Note_on_c, 1, 49, 0
4, 54000, Note_on_c, 1, 49, 80
4, 54239, Note_on_c, 1, 49, 0
4, 54240, Note_on_c, 1, 47, 80
4, 54479, Note_on_c, 1, 47, 0
4, 54480, Note_on_c, 1, 45, 80
4, 54719, Note_on_c, 1, 45, 0
4, 54720, Note_on_c, 1, 44, 80
4, 55679, Note_on_c, 1, 44, 0
4, 55680, Note_on_c, 1, 45, 80
4, 56879, Note_on_c, 1, 45, 0
4, 56880, Note_on_c, 1, 45, 80
4, 57119, Note_on_c, 1, 45, 0
4, 57120, Note_on_c, 1, 44, 80
4, 57359, Note_on_c, 1, 44, 0
4, 57360, Note_on_c, 1, 42, 80
4, 57599, Note_on_c, 1, 42, 0
4, 57600, Note_on_c, 1, 41, 80
4, 58559, Note_on_c, 1, 41, 0
4, 58560, Note_on_c, 1, 42, 80
4, 59759, Note_on_c, 1, 42, 0
4, 59760, Note_on_c, 1, 42, 80
4, 59999, Note_on_c, 1, 42, 0
4, 60000, Note_on_c, 1, 40, 80
4, 60239, Note_on_c, 1, 40, 0
4, 60240, Note_on_c, 1, 39, 80
4, 60479, Note_on_c, 1, 39, 0
4, 60480, Note_on_c, 1, 37, 80
4, 60959, Note_on_c, 1, 37, 0
4, 60960, Note_on_c, 1, 39, 80
4, 61439, Note_on_c, 1, 39, 0
4, 61440, Note_on_c, 1, 40, 80
4, 62399, Note_on_c, 1, 40, 0
4, 62400, Note_on_c, 1, 47, 80
4, 63119, Note_on_c, 1, 47, 0
4, 63120, Note_on_c, 1, 45, 80
4, 63359, Note_on_c, 1, 45, 0
4, 63360, Note_on_c, 1, 44, 80
4, 64079, Note_on_c, 1, 44, 0
4, 64080, Note_on_c, 1, 42, 80
4, 64319, Note_on_c, 1, 42, 0
4, 64320, Note_on_c, 1, 40, 80
4, 65279, Note_on_c, 1, 40, 0
4, 65280, Note_on_c, 1, 39, 80
4, 66239, Note_on_c, 1, 39, 0
4, 66240, Note_on_c, 1, 40, 80
4, 66959, Note_on_c, 1, 40, 0
4, 66960, Note_on_c, 1, 42, 80
4, 67199, Note_on_c, 1, 42, 0
4, 67200, Note_on_c, 1, 44, 80
4, 68399, Note_on_c, 1, 44, 0
4, 68400, Note_on_c, 1, 45, 80
4, 68639, Note_on_c, 1, 45, 0
4, 68640, Note_on_c, 1, 44, 80
4, 68879, Note_on_c, 1, 44, 0
4, 68880, Note_on_c, 1, 42, 80
4, 69119, Note_on_c, 1, 42, 0
4, 69120, Note_on_c, 1, 40, 80
4, 70319, Note_on_c, 1, 40, 0
4, 70320, Note_on_c, 1, 44, 80
4, 70559, Note_on_c, 1, 44, 0
4, 70560, Note_on_c, 1, 45, 80
4, 70799, Note_on_c, 1, 45, 0
4, 70800, Note_on_c, 1, 47, 80
4, 71039, Note_on_c, 1, 47, 0
4, 71040, Note_on_c, 1, 49, 80
4, 72239, Note_on_c, 1, 49, 0
4, 72240, Note_on_c, 1, 51, 80
4, 72479, Note_on_c, 1, 51, 0
4, 72480, Note_on_c, 1, 49, 80
4, 72719, Note_on_c, 1, 49, 0
4, 72720, Note_on_c, 1, 47, 80
4, 72959, Note_on_c, 1, 47, 0
4, 72960, Note_on_c, 1, 46, 80
4, 73199, Note_on_c, 1, 46, 0
4, 73200, Note_on_c, 1, 49, 80
4, 73439, Note_on_c, 1, 49, 0
4, 73440, Note_on_c, 1, 47, 80
4, 73679, Note_on_c, 1, 47, 0
4, 73680, Note_on_c, 1, 46, 80
4, 73919, Note_on_c, 1, 46, 0
4, 73920, Note_on_c, 1, 44, 80
4, 74159, Note_on_c, 1, 44, 0
4, 74160, Note_on_c, 1, 42, 80
4, 74399, Note_on_c, 1, 42, 0
4, 74400, Note_on_c, 1, 44, 80
4, 74639, Note_on_c, 1, 44, 0
4, 74640, Note_on_c, 1, 46, 80
4, 74879, Note_on_c, 1, 46, 0
4, 74880, Note_on_c, 1, 47, 80
4, 75119, Note_on_c, 1, 47, 0
4, 75120, Note_on_c, 1, 49, 80
4, 75359, Note_on_c, 1, 49, 0
4, 75360, Note_on_c, 1, 51, 80
4, 75599, Note_on_c, 1, 51, 0
4, 75600, Note_on_c, 1, 52, 80
4, 75839, Note_on_c, 1, 52, 0
4, 75840, Note_on_c, 1, 54, 80
4, 76079, Note_on_c, 1, 54, 0
4, 76080, Note_on_c, 1, 56, 80
4, 76319, Note_on_c, 1, 56, 0
4, 76320, Note_on_c, 1, 54, 80
4, 76559, Note_on_c, 1, 54, 0
4, 76560, Note_on_c, 1, 52, 80
4, 76799, Note_on_c, 1, 52, 0
4, 76800, Note_on_c, 1, 51, 80
4, 77039, Note_on_c, 1, 51, 0
4, 77040, Note_on_c, 1, 47, 80
4, 77279, Note_on_c, 1, 47, 0
4, 77280, Note_on_c, 1, 52, 80
4, 78239, Note_on_c, 1, 52, 0
4, 78240, Note_on_c, 1, 50, 80
4, 78719, Note_on_c, 1, 50, 0
4, 78720, Note_on_c, 1, 49, 80
4, 80879, Note_on_c, 1, 49, 0
4, 80880, Note_on_c, 1, 42, 80
4, 81119, Note_on_c, 1, 42, 0
4, 81120, Note_on_c, 1, 47, 80
4, 81839, Note_on_c, 1, 47, 0
4, 81840, Note_on_c, 1, 47, 80
4, 82079, Note_on_c, 1, 47, 0
4, 82080, Note_on_c, 1, 45, 80
4, 82319, Note_on_c, 1, 45, 0
4, 82320, Note_on_c, 1, 44, 80
4, 82559, Note_on_c, 1, 44, 0
4, 82560, Note_on_c, 1, 42, 80
4, 82799, Note_on_c, 1, 42, 0
4, 82800, Note_on_c, 1, 49, 80
4, 83039, Note_on_c, 1, 49, 0
4, 83040, Note_on_c, 1, 51, 80
4, 83279, Note_on_c, 1, 51, 0
4, 83280, Note_on_c, 1, 53, 80
4, 83519, Note_on_c, 1, 53, 0
4, 83520, Note_on_c, 1, 54, 80
4, 84959, Note_on_c, 1, 54, 0
4, 84960, Note_on_c, 1, 52, 80
4, 85439, Note_on_c, 1, 52, 0
4, 85440, Note_on_c, 1, 50, 80
4, 86639, Note_on_c, 1, 50, 0
4, 86640, Note_on_c, 1, 50, 80
4, 86879, Note_on_c, 1, 50, 0
4, 86880, Note_on_c, 1, 49, 80
4, 87119, Note_on_c, 1, 49, 0
4, 87120, Note_on_c, 1, 47, 80
4, 87359, Note_on_c, 1, 47, 0
4, 87360, Note_on_c, 1, 49, 80
4, 88079, Note_on_c, 1, 49, 0
4, 88080, Note_on_c, 1, 50, 80
4, 88319, Note_on_c, 1, 50, 0
4, 88320, Note_on_c, 1, 52, 80
4, 89279, Note_on_c, 1, 52, 0
4, 89280, Note_on_c, 1, 45, 80
4, 89999, Note_on_c, 1, 45, 0
4, 90000, Note_on_c, 1, 47, 80
4, 90239, Note_on_c, 1, 47, 0
4, 90240, Note_on_c, 1, 49, 80
4, 90959, Note_on_c, 1, 49, 0
4, 90960, Note_on_c, 1, 50, 80
4, 91199, Note_on_c, 1, 50, 0
4, 91200, Note_on_c, 1, 52, 80
4, 92159, Note_on_c, 1, 52, 0
4, 92160, Note_on_c, 1, 54, 80
4, 93119, Note_on_c, 1, 54, 0
4, 93120, Note_on_c, 1, 52, 80
4, 93839, Note_on_c, 1, 52, 0
4, 93840, Note_on_c, 1, 50, 80
4, 94079, Note_on_c, 1, 50, 0
4, 94080, Note_on_c, 1, 49, 80
4, 95279, Note_on_c, 1, 49, 0
4, 95280, Note_on_c, 1, 47, 80
4, 95519, Note_on_c, 1, 47, 0
4, 95520, Note_on_c, 1, 49, 80
4, 95759, Note_on_c, 1, 49, 0
4, 95760, Note_on_c, 1, 50, 80
4, 95999, Note_on_c, 1, 50, 0
4, 96000, Note_on_c, 1, 52, 80
4, 100319, Note_on_c, 1, 52, 0
4, 101760, Note_on_c, 1, 59, 80
4, 102239, Note_on_c, 1, 59, 0
4, 102240, Note_on_c, 1, 54, 80
4, 102959, Note_on_c, 1, 54, 0
4, 102960, Note_on_c, 1, 56, 80
4, 103199, Note_on_c, 1, 56, 0
4, 103200, Note_on_c, 1, 57, 80
4, 103919, Note_on_c, 1, 57, 0
4, 103920, Note_on_c, 1, 59, 80
4, 104159, Note_on_c, 1, 59, 0
4, 104160, Note_on_c, 1, 61, 80
4, 104639, Note_on_c, 1, 61, 0
4, 104640, Note_on_c, 1, 56, 80
4, 105359, Note_on_c, 1, 56, 0
4, 105360, Note_on_c, 1, 57, 80
4, 105599, Note_on_c, 1, 57, 0
4, 105600, Note_on_c, 1, 59, 80
4, 106079, Note_on_c, 1, 59, 0
4, 106080, Note_on_c, 1, 54, 80
4, 106319, Note_on_c, 1, 54, 0
4, 106320, Note_on_c, 1, 56, 80
4, 106559, Note_on_c, 1, 56, 0
4, 106560, Note_on_c, 1, 57, 80
4, 107039, Note_on_c, 1, 57, 0
4, 107040, Note_on_c, 1, 52, 80
4, 107279, Note_on_c, 1, 52, 0
4, 107280, Note_on_c, 1, 54, 80
4, 107519, Note_on_c, 1, 54, 0
4, 107520, Note_on_c, 1, 56, 80
4, 108719, Note_on_c, 1, 56, 0
4, 108720, Note_on_c, 1, 54, 80
4, 108959, Note_on_c, 1, 54, 0
4, 108960, Note_on_c, 1, 52, 80
4, 109199, Note_on_c, 1, 52, 0
4, 109200, Note_on_c, 1, 51, 80
4, 109439, Note_on_c, 1, 51, 0
4, 109440, Note_on_c, 1, 49, 80
4, 110399, Note_on_c, 1, 49, 0
4, 110880, Note_on_c, 1, 54, 80
4, 111599, Note_on_c, 1, 54, 0
4, 111600, Note_on_c, 1, 51, 80
4, 111839, Note_on_c, 1, 51, 0
4, 111840, Note_on_c, 1, 52, 80
4, 113519, Note_on_c, 1, 52, 0
4, 113520, Note_on_c, 1, 51, 80
4, 113759, Note_on_c, 1, 51, 0
4, 113760, Note_on_c, 1, 52, 80
4, 113999, Note_on_c, 1, 52, 0
4, 114000, Note_on_c, 1, 54, 80
4, 114239, Note_on_c, 1, 54, 0
4, 114240, Note_on_c, 1, 56, 80
4, 115439, Note_on_c, 1, 56, 0
4, 115440, Note_on_c, 1, 53, 80
4, 115679, Note_on_c, 1, 53, 0
4, 115680, Note_on_c, 1, 54, 80
4, 116159, Note_on_c, 1, 54, 0
4, 116160, Note_on_c, 1, 49, 80
4, 117119, Note_on_c, 1, 49, 0
4, 117120, Note_on_c, 1, 44, 80
4, 118079, Note_on_c, 1, 44, 0
4, 118080, Note_on_c, 1, 45, 80
4, 119039, Note_on_c, 1, 45, 0
4, 119040, Note_on_c, 1, 46, 80
4, 119999, Note_on_c, 1, 46, 0
4, 120000, Note_on_c, 1, 47, 80
4, 120959, Note_on_c, 1, 47, 0
4, 120960, Note_on_c, 1, 48, 80
4, 121919, Note_on_c, 1, 48, 0
4, 121920, Note_on_c, 1, 49, 80
4, 122879, Note_on_c, 1, 49, 0
4, 122880, Note_on_c, 1, 44, 80
4, 123359, Note_on_c, 1, 44, 0
4, 123840, Note_on_c, 1, 56, 80
4, 124319, Note_on_c, 1, 56, 0
4, 124320, Note_on_c, 1, 61, 80
4, 125039, Note_on_c, 1, 61, 0
4, 125040, Note_on_c, 1, 59, 80
4, 125279, Note_on_c, 1, 59, 0
4, 125280, Note_on_c, 1, 57, 80
4, 125999, Note_on_c, 1, 57, 0
4, 126000, Note_on_c, 1, 56, 80
4, 126239, Note_on_c, 1, 56, 0
4, 126240, Note_on_c, 1, 54, 80
4, 126719, Note_on_c, 1, 54, 0
4, 126720, Note_on_c, 1, 59, 80
4, 127439, Note_on_c, 1, 59, 0
4, 127440, Note_on_c, 1, 57, 80
4, 127679, Note_on_c, 1, 57, 0
4, 127680, Note_on_c, 1, 56, 80
4, 128399, Note_on_c, 1, 56, 0
4, 128400, Note_on_c, 1, 54, 80
4, 128639, Note_on_c, 1, 54, 0
4, 128640, Note_on_c, 1, 52, 80
4, 129119, Note_on_c, 1, 52, 0
4, 129120, Note_on_c, 1, 57, 80
4, 129359, Note_on_c, 1, 57, 0
4, 129360, Note_on_c, 1, 56, 80
4, 129599, Note_on_c, 1, 56, 0
4, 129600, Note_on_c, 1, 54, 80
4, 130079, Note_on_c, 1, 54, 0
4, 130080, Note_on_c, 1, 59, 80
4, 130319, Note_on_c, 1, 59, 0
4, 130320, Note_on_c, 1, 57, 80
4, 130559, Note_on_c, 1, 57, 0
4, 130560, Note_on_c, 1, 56, 80
4, 131519, Note_on_c, 1, 56, 0
4, 131520, Note_on_c, 1, 54, 80
4, 132479, Note_on_c, 1, 54, 0
4, 132480, Note_on_c, 1, 49, 80
4, 133439, Note_on_c, 1, 49, 0
4, 133680, Note_on_c, 1, 66, 80
4, 133919, Note_on_c, 1, 66, 0
4, 133920, Note_on_c, 1, 64, 80
4, 134159, Note_on_c, 1, 64, 0
4, 134160, Note_on_c, 1, 63, 80
4, 134399, Note_on_c, 1, 63, 0
4, 134400, Note_on_c, 1, 61, 80
4, 135839, Note_on_c, 1, 61, 0
4, 135840, Note_on_c, 1, 60, 80
4, 136319, Note_on_c, 1, 60, 0
4, 136320, Note_on_c, 1, 61, 80
4, 136559, Note_on_c, 1, 61, 0
4, 136560, Note_on_c, 1, 54, 80
4, 136799, Note_on_c, 1, 54, 0
4, 136800, Note_on_c, 1, 56, 80
4, 137039, Note_on_c, 1, 56, 0
4, 137040, Note_on_c, 1, 57, 80
4, 137279, Note_on_c, 1, 57, 0
4, 137280, Note_on_c, 1, 59, 80
4, 137519, Note_on_c, 1, 59, 0
4, 137520, Note_on_c, 1, 47, 80
4, 137759, Note_on_c, 1, 47, 0
4, 137760, Note_on_c, 1, 49, 80
4, 137999, Note_on_c, 1, 49, 0
4, 138000, Note_on_c, 1, 51, 80
4, 138239, Note_on_c, 1, 51, 0
4, 138240, Note_on_c, 1, 52, 80
4, 138479, Note_on_c, 1, 52, 0
4, 138480, Note_on_c, 1, 54, 80
4, 138719, Note_on_c, 1, 54, 0
4, 138720, Note_on_c, 1, 56, 80
4, 138959, Note_on_c, 1, 56, 0
4, 138960, Note_on_c, 1, 52, 80
4, 139199, Note_on_c, 1, 52, 0
4, 139200, Note_on_c, 1, 57, 80
4, 139679, Note_on_c, 1, 57, 0
4, 139680, Note_on_c, 1, 56, 80
4, 139919, Note_on_c, 1, 56, 0
4, 139920, Note_on_c, 1, 54, 80
4, 140159, Note_on_c, 1, 54, 0
4, 140160, Note_on_c, 1, 53, 80
4, 140639, Note_on_c, 1, 53, 0
4, 140640, Note_on_c, 1, 56, 80
4, 141119, Note_on_c, 1, 56, 0
4, 141120, Note_on_c, 1, 57, 80
4, 141359, Note_on_c, 1, 57, 0
4, 141360, Note_on_c, 1, 44, 80
4, 141599, Note_on_c, 1, 44, 0
4, 141600, Note_on_c, 1, 45, 80
4, 141839, Note_on_c, 1, 45, 0
4, 141840, Note_on_c, 1, 47, 80
4, 142079, Note_on_c, 1, 47, 0
4, 142080, Note_on_c, 1, 49, 80
4, 142319, Note_on_c, 1, 49, 0
4, 142320, Note_on_c, 1, 51, 80
4, 142559, Note_on_c, 1, 51, 0
4, 142560, Note_on_c, 1, 52, 80
4, 142799, Note_on_c, 1, 52, 0
4, 142800, Note_on_c, 1, 49, 80
4, 143039, Note_on_c, 1, 49, 0
4, 143040, Note_on_c, 1, 54, 80
4, 143279, Note_on_c, 1, 54, 0
4, 143280, Note_on_c, 1, 52, 80
4, 143519, Note_on_c, 1, 52, 0
4, 143520, Note_on_c, 1, 51, 80
4, 143759, Note_on_c, 1, 51, 0
4, 143760, Note_on_c, 1, 54, 80
4, 143999, Note_on_c, 1, 54, 0
4, 144000, Note_on_c, 1, 48, 80
4, 144239, Note_on_c, 1, 48, 0
4, 144240, Note_on_c, 1, 49, 80
4, 144479, Note_on_c, 1, 49, 0
4, 144480, Note_on_c, 1, 51, 80
4, 144719, Note_on_c, 1, 51, 0
4, 144720, Note_on_c, 1, 48, 80
4, 144959, Note_on_c, 1, 48, 0
4, 144960, Note_on_c, 1, 49, 80
4, 145199, Note_on_c, 1, 49, 0
4, 145200, Note_on_c, 1, 47, 80
4, 145439, Note_on_c, 1, 47, 0
4, 145440, Note_on_c, 1, 45, 80
4, 145679, Note_on_c, 1, 45, 0
4, 145680, Note_on_c, 1, 49, 80
4, 145919, Note_on_c, 1, 49, 0
4, 145920, Note_on_c, 1, 43, 80
4, 146159, Note_on_c, 1, 43, 0
4, 146160, Note_on_c, 1, 44, 80
4, 146399, Note_on_c, 1, 44, 0
4, 146400, Note_on_c, 1, 46, 80
4, 146639, Note_on_c, 1, 46, 0
4, 146640, Note_on_c, 1, 43, 80
4, 146879, Note_on_c, 1, 43, 0
4, 146880, Note_on_c, 1, 44, 80
4, 147119, Note_on_c, 1, 44, 0
4, 147120, Note_on_c, 1, 54, 80
4, 147359, Note_on_c, 1, 54, 0
4, 147360, Note_on_c, 1, 52, 80
4, 147599, Note_on_c, 1, 52, 0
4, 147600, Note_on_c, 1, 51, 80
4, 147839, Note_on_c, 1, 51, 0
4, 147840, Note_on_c, 1, 49, 80
4, 149039, Note_on_c, 1, 49, 0
4, 149040, Note_on_c, 1, 47, 80
4, 149279, Note_on_c, 1, 47, 0
4, 149280, Note_on_c, 1, 45, 80
4, 149759, Note_on_c, 1, 45, 0
4, 149760, Note_on_c, 1, 44, 80
4, 149999, Note_on_c, 1, 44, 0
4, 150000, Note_on_c, 1, 45, 80
4, 150239, Note_on_c, 1, 45, 0
4, 150240, Note_on_c, 1, 44, 80
4, 150479, Note_on_c, 1, 44, 0
4, 150480, Note_on_c, 1, 42, 80
4, 150719, Note_on_c, 1, 42, 0
4, 150720, Note_on_c, 1, 40, 80
4, 151199, Note_on_c, 1, 40, 0
4, 151200, Note_on_c, 1, 45, 80
4, 151679, Note_on_c, 1, 45, 0
4, 151680, Note_on_c, 1, 44, 80
4, 153119, Note_on_c, 1, 44, 0
4, 153120, Note_on_c, 1, 46, 80
4, 153359, Note_on_c, 1, 46, 0
4, 153360, Note_on_c, 1, 48, 80
4, 153599, Note_on_c, 1, 48, 0
4, 153600, Note_on_c, 1, 49, 80
4, 154799, Note_on_c, 1, 49, 0
4, 154800, Note_on_c, 1, 48, 80
4, 155039, Note_on_c, 1, 48, 0
4, 155040, Note_on_c, 1, 49, 80
4, 155279, Note_on_c, 1, 49, 0
4, 155280, Note_on_c, 1, 51, 80
4, 155519, Note_on_c, 1, 51, 0
4, 155520, Note_on_c, 1, 52, 80
4, 155999, Note_on_c, 1, 52, 0
4, 156000, Note_on_c, 1, 53, 80
4, 156479, Note_on_c, 1, 53, 0
4, 156480, Note_on_c, 1, 54, 80
4, 157679, Note_on_c, 1, 54, 0
4, 157680, Note_on_c, 1, 53, 80
4, 157919, Note_on_c, 1, 53, 0
4, 157920, Note_on_c, 1, 54, 80
4, 158159, Note_on_c, 1, 54, 0
4, 158160, Note_on_c, 1, 56, 80
4, 158399, Note_on_c, 1, 56, 0
4, 158400, Note_on_c, 1, 57, 80
4, 159119, Note_on_c, 1, 57, 0
4, 159120, Note_on_c, 1, 58, 80
4, 159359, Note_on_c, 1, 58, 0
4, 159360, Note_on_c, 1, 60, 80
4, 159599, Note_on_c, 1, 60, 0
4, 159600, Note_on_c, 1, 56, 80
4, 159839, Note_on_c, 1, 56, 0
4, 159840, Note_on_c, 1, 61, 80
4, 160079, Note_on_c, 1, 61, 0
4, 160080, Note_on_c, 1, 59, 80
4, 160319, Note_on_c, 1, 59, 0
4, 160320, Note_on_c, 1, 58, 80
4, 160559, Note_on_c, 1, 58, 0
4, 160560, Note_on_c, 1, 56, 80
4, 160799, Note_on_c, 1, 56, 0
4, 160800, Note_on_c, 1, 57, 80
4, 161759, Note_on_c, 1, 57, 0
4, 161760, Note_on_c, 1, 56, 80
4, 161999, Note_on_c, 1, 56, 0
4, 162000, Note_on_c, 1, 55, 80
4, 162239, Note_on_c, 1, 55, 0
4, 162240, Note_on_c, 1, 56, 80
4, 162719, Note_on_c, 1, 56, 0
4, 162720, Note_on_c, 1, 44, 80
4, 163199, Note_on_c, 1, 44, 0
4, 163200, Note_on_c, 1, 49, 80
4, 163200, Note_on_c, 1, 56, 80
4, 164159, Note_on_c, 1, 49, 0
4, 164159, Note_on_c, 1, 56, 0
4, 164160, Note_on_c, 1, 49, 80
4, 164879, Note_on_c, 1, 49, 0
4, 164880, Note_on_c, 1, 51, 80
4, 165119, Note_on_c, 1, 51, 0
4, 165120, Note_on_c, 1, 49, 80
4, 165120, Note_on_c, 1, 53, 80
4, 165839, Note_on_c, 1, 53, 0
4, 165840, Note_on_c, 1, 54, 80
4, 166079, Note_on_c, 1, 49, 0
4, 166079, Note_on_c, 1, 54, 0
4, 166080, Note_on_c, 1, 56, 80
4, 167039, Note_on_c, 1, 56, 0
4, 167040, Note_on_c, 1, 49, 80
4, 167040, Note_on_c, 1, 57, 80
4, 167999, Note_on_c, 1, 49, 0
4, 167999, Note_on_c, 1, 57, 0
4, 168000, Note_on_c, 1, 56, 80
4, 168719, Note_on_c, 1, 56, 0
4, 168720, Note_on_c, 1, 54, 80
4, 168959, Note_on_c, 1, 54, 0
4, 168960, Note_on_c, 1, 52, 80
4, 169200, Note_on_c, 1, 47, 80
4, 169439, Note_on_c, 1, 47, 0
4, 169440, Note_on_c, 1, 45, 80
4, 169679, Note_on_c, 1, 45, 0
4, 169680, Note_on_c, 1, 44, 80
4, 169919, Note_on_c, 1, 44, 0
4, 169920, Note_on_c, 1, 42, 80
4, 170159, Note_on_c, 1, 52, 0
4, 170160, Note_on_c, 1, 51, 80
4, 170399, Note_on_c, 1, 51, 0
4, 170400, Note_on_c, 1, 52, 80
4, 170639, Note_on_c, 1, 52, 0
4, 170640, Note_on_c, 1, 54, 80
4, 170879, Note_on_c, 1, 42, 0
4, 170879, Note_on_c, 1, 54, 0
4, 170880, Note_on_c, 1, 49, 80
4, 170880, Note_on_c, 1, 56, 80
4, 172799, Note_on_c, 1, 49, 0
4, 172799, Note_on_c, 1, 56, 0
4, 172800, End_track
0, 0, End_of_file
