0, 0, Header, 1, 4, 480
1, 0, Start_track
1, 0, Unknown_meta_event, 8, 31, 67, 111, 110, 116, 114, 97, 112, 117, 110, 99, 116, 117, 115, 32, 88, 73, 73, 32, 40, 65, 32, 61, 32, 52, 49, 53, 32, 72, 122, 41, 0
1, 0, Unknown_meta_event, 9, 26, 66, 87, 86, 32, 49, 48, 56, 48, 32, 84, 104, 101, 32, 65, 114, 116, 32, 111, 102, 32, 70, 117, 103, 117, 101, 0
1, 0, Unknown_meta_event, 10, 11, 74, 46, 32, 83, 46, 32, 66, 97, 99, 104, 0
1, 0, Time_signature, 3, 2, 24, 8
1, 0, Key_signature, 4, "major"
1, 0, Program_c, 0, 46
1, 2, Control_c, 0, 7, 100
1, 4, Control_c, 0, 10, 64
1, 6, Control_c, 0, 91, 30
1, 8, Control_c, 0, 93, 30
1, 18720, Note_on_c, 0, 68, 100
1, 19195, Note_on_c, 0, 68, 0
1, 19200, Note_on_c, 0, 73, 100
1, 20155, Note_on_c, 0, 73, 0
1, 20160, Note_on_c, 0, 71, 100
1, 20635, Note_on_c, 0, 71, 0
1, 20640, Note_on_c, 0, 68, 100
1, 21595, Note_on_c, 0, 68, 0
1, 21600, Note_on_c, 0, 67, 100
1, 22075, Note_on_c, 0, 67, 0
1, 22080, Note_on_c, 0, 68, 100
1, 22555, Note_on_c, 0, 68, 0
1, 22560, Note_on_c, 0, 70, 100
1, 23035, Note_on_c, 0, 70, 0
1, 23040, Note_on_c, 0, 71, 80
1, 23759, Note_on_c, 0, 71, 0
1, 23760, Note_on_c, 0, 73, 100
1, 23999, Note_on_c, 0, 73, 0
1, 24000, Note_on_c, 0, 71, 100
1, 24239, Note_on_c, 0, 71, 0
1, 24240, Note_on_c, 0, 69, 100
1, 24479, Note_on_c, 0, 69, 0
1, 24480, Note_on_c, 0, 68, 80
1, 25199, Note_on_c, 0, 68, 0
1, 25200, Note_on_c, 0, 69, 100
1, 25439, Note_on_c, 0, 69, 0
1, 25440, Note_on_c, 0, 68, 100
1, 25679, Note_on_c, 0, 68, 0
1, 25680, Note_on_c, 0, 66, 100
1, 25919, Note_on_c, 0, 66, 0
1, 25920, Note_on_c, 0, 64, 80
1, 26639, Note_on_c, 0, 64, 0
1, 26640, Note_on_c, 0, 66, 100
1, 26879, Note_on_c, 0, 66, 0
1, 26880, Note_on_c, 0, 64, 100
1, 27119, Note_on_c, 0, 64, 0
1, 27120, Note_on_c, 0, 63, 100
1, 27359, Note_on_c, 0, 63, 0
1, 27360, Note_on_c, 0, 64, 100
1, 27599, Note_on_c, 0, 64, 0
1, 27600, Note_on_c, 0, 66, 100
1, 27839, Note_on_c, 0, 66, 0
1, 27840, Note_on_c, 0, 68, 100
1, 28559, Note_on_c, 0, 68, 0
1, 28560, Note_on_c, 0, 70, 100
1, 28679, Note_on_c, 0, 70, 0
1, 28680, Note_on_c, 0, 72, 100
1, 28799, Note_on_c, 0, 72, 0
1, 28800, Note_on_c, 0, 73, 100
1, 28919, Note_on_c, 0, 73, 0
1, 28920, Note_on_c, 0, 75, 100
1, 29039, Note_on_c, 0, 75, 0
1, 29040, Note_on_c, 0, 76, 100
1, 29159, Note_on_c, 0, 76, 0
1, 29160, Note_on_c, 0, 78, 100
1, 29279, Note_on_c, 0, 78, 0
1, 29280, Note_on_c, 0, 80, 100
1, 29879, Note_on_c, 0, 80, 0
1, 29880, Note_on_c, 0, 81, 100
1, 29999, Note_on_c, 0, 81, 0
1, 30000, Note_on_c, 0, 80, 100
1, 30119, Note_on_c, 0, 80, 0
1, 30120, Note_on_c, 0, 78, 100
1, 30239, Note_on_c, 0, 78, 0
1, 30240, Note_on_c, 0, 76, 100
1, 30479, Note_on_c, 0, 76, 0
1, 30480, Note_on_c, 0, 75, 100
1, 30719, Note_on_c, 0, 75, 0
1, 30720, Note_on_c, 0, 73, 100
1, 31439, Note_on_c, 0, 73, 0
1, 31440, Note_on_c, 0, 72, 100
1, 31559, Note_on_c, 0, 72, 0
1, 31560, Note_on_c, 0, 70, 100
1, 31679, Note_on_c, 0, 70, 0
1, 31680, Note_on_c, 0, 72, 100
1, 32155, Note_on_c, 0, 72, 0
1, 32160, Note_on_c, 0, 73, 100
1, 32879, Note_on_c, 0, 73, 0
1, 32880, Note_on_c, 0, 75, 100
1, 33119, Note_on_c, 0, 75, 0
1, 33120, Note_on_c, 0, 76, 100
1, 33839, Note_on_c, 0, 76, 0
1, 33840, Note_on_c, 0, 78, 100
1, 34079, Note_on_c, 0, 78, 0
1, 34080, Note_on_c, 0, 76, 100
1, 34319, Note_on_c, 0, 76, 0
1, 34320, Note_on_c, 0, 75, 100
1, 34559, Note_on_c, 0, 75, 0
1, 34560, Note_on_c, 0, 73, 100
1, 35515, Note_on_c, 0, 73, 0
1, 35640, Note_on_c, 0, 73, 100
1, 35759, Note_on_c, 0, 73, 0
1, 35760, Note_on_c, 0, 75, 100
1, 35879, Note_on_c, 0, 75, 0
1, 35880, Note_on_c, 0, 77, 100
1, 35999, Note_on_c, 0, 77, 0
1, 36000, Note_on_c, 0, 78, 100
1, 36119, Note_on_c, 0, 78, 0
1, 36120, Note_on_c, 0, 77, 100
1, 36239, Note_on_c, 0, 77, 0
1, 36240, Note_on_c, 0, 78, 100
1, 36359, Note_on_c, 0, 78, 0
1, 36360, Note_on_c, 0, 80, 100
1, 36479, Note_on_c, 0, 80, 0
1, 36480, Note_on_c, 0, 81, 100
1, 36719, Note_on_c, 0, 81, 0
1, 38400, Note_on_c, 0, 73, 100
1, 39119, Note_on_c, 0, 73, 0
1, 39120, Note_on_c, 0, 71, 100
1, 39359, Note_on_c, 0, 71, 0
1, 39360, Note_on_c, 0, 69, 100
1, 39599, Note_on_c, 0, 69, 0
1, 39600, Note_on_c, 0, 68, 100
1, 39839, Note_on_c, 0, 68, 0
1, 39840, Note_on_c, 0, 66, 100
1, 40079, Note_on_c, 0, 66, 0
1, 40080, Note_on_c, 0, 65, 100
1, 40319, Note_on_c, 0, 65, 0
1, 40320, Note_on_c, 0, 66, 100
1, 40559, Note_on_c, 0, 66, 0
1, 40560, Note_on_c, 0, 62, 100
1, 40799, Note_on_c, 0, 62, 0
1, 40800, Note_on_c, 0, 61, 100
1, 41999, Note_on_c, 0, 61, 0
1, 42000, Note_on_c, 0, 62, 100
1, 42119, Note_on_c, 0, 62, 0
1, 42120, Note_on_c, 0, 64, 100
1, 42239, Note_on_c, 0, 64, 0
1, 42240, Note_on_c, 0, 66, 100
1, 42479, Note_on_c, 0, 66, 0
1, 42480, Note_on_c, 0, 64, 100
1, 42719, Note_on_c, 0, 64, 0
1, 42720, Note_on_c, 0, 62, 100
1, 42959, Note_on_c, 0, 62, 0
1, 42960, Note_on_c, 0, 61, 100
1, 43199, Note_on_c, 0, 61, 0
1, 43200, Note_on_c, 0, 59, 100
1, 43799, Note_on_c, 0, 59, 0
1, 43800, Note_on_c, 0, 61, 100
1, 43919, Note_on_c, 0, 61, 0
1, 43920, Note_on_c, 0, 62, 100
1, 44039, Note_on_c, 0, 62, 0
1, 44040, Note_on_c, 0, 59, 100
1, 44159, Note_on_c, 0, 59, 0
1, 44160, Note_on_c, 0, 61, 100
1, 44279, Note_on_c, 0, 61, 0
1, 44280, Note_on_c, 0, 57, 100
1, 44399, Note_on_c, 0, 57, 0
1, 44400, Note_on_c, 0, 59, 100
1, 44519, Note_on_c, 0, 59, 0
1, 44520, Note_on_c, 0, 56, 100
1, 44639, Note_on_c, 0, 56, 0
1, 44640, Note_on_c, 0, 57, 100
1, 45239, Note_on_c, 0, 57, 0
1, 45240, Note_on_c, 0, 59, 100
1, 45359, Note_on_c, 0, 59, 0
1, 45360, Note_on_c, 0, 61, 100
1, 45479, Note_on_c, 0, 61, 0
1, 45480, Note_on_c, 0, 62, 100
1, 45599, Note_on_c, 0, 62, 0
1, 45600, Note_on_c, 0, 64, 100
1, 46559, Note_on_c, 0, 64, 0
1, 46560, Note_on_c, 0, 76, 80
1, 46799, Note_on_c, 0, 76, 0
1, 46800, Note_on_c, 0, 74, 80
1, 47039, Note_on_c, 0, 74, 0
1, 47040, Note_on_c, 0, 73, 100
1, 47279, Note_on_c, 0, 73, 0
1, 47280, Note_on_c, 0, 76, 100
1, 47519, Note_on_c, 0, 76, 0
1, 47520, Note_on_c, 0, 71, 100
1, 47639, Note_on_c, 0, 71, 0
1, 47640, Note_on_c, 0, 69, 100
1, 47759, Note_on_c, 0, 69, 0
1, 47760, Note_on_c, 0, 68, 100
1, 47879, Note_on_c, 0, 68, 0
1, 47880, Note_on_c, 0, 66, 100
1, 47999, Note_on_c, 0, 66, 0
1, 48000, Note_on_c, 0, 64, 100
1, 48599, Note_on_c, 0, 64, 0
1, 48600, Note_on_c, 0, 66, 100
1, 48719, Note_on_c, 0, 66, 0
1, 48720, Note_on_c, 0, 64, 100
1, 48839, Note_on_c, 0, 64, 0
1, 48840, Note_on_c, 0, 62, 100
1, 48959, Note_on_c, 0, 62, 0
1, 48960, Note_on_c, 0, 61, 100
1, 49079, Note_on_c, 0, 61, 0
1, 49080, Note_on_c, 0, 63, 100
1, 49199, Note_on_c, 0, 63, 0
1, 49200, Note_on_c, 0, 65, 100
1, 49319, Note_on_c, 0, 65, 0
1, 49320, Note_on_c, 0, 66, 100
1, 49439, Note_on_c, 0, 66, 0
1, 49440, Note_on_c, 0, 68, 100
1, 50395, Note_on_c, 0, 68, 0
1, 50400, Note_on_c, 0, 69, 100
1, 50519, Note_on_c, 0, 69, 0
1, 50520, Note_on_c, 0, 68, 100
1, 50639, Note_on_c, 0, 68, 0
1, 50640, Note_on_c, 0, 69, 100
1, 50759, Note_on_c, 0, 69, 0
1, 50760, Note_on_c, 0, 71, 100
1, 50879, Note_on_c, 0, 71, 0
1, 50880, Note_on_c, 0, 73, 100
1, 50999, Note_on_c, 0, 73, 0
1, 51000, Note_on_c, 0, 71, 100
1, 51119, Note_on_c, 0, 71, 0
1, 51120, Note_on_c, 0, 73, 100
1, 51239, Note_on_c, 0, 73, 0
1, 51240, Note_on_c, 0, 74, 100
1, 51359, Note_on_c, 0, 74, 0
1, 51360, Note_on_c, 0, 76, 100
1, 51479, Note_on_c, 0, 76, 0
1, 51480, Note_on_c, 0, 74, 100
1, 51599, Note_on_c, 0, 74, 0
1, 51600, Note_on_c, 0, 73, 100
1, 51719, Note_on_c, 0, 73, 0
1, 51720, Note_on_c, 0, 71, 100
1, 51839, Note_on_c, 0, 71, 0
1, 51840, Note_on_c, 0, 69, 100
1, 51959, Note_on_c, 0, 69, 0
1, 51960, Note_on_c, 0, 67, 100
1, 52079, Note_on_c, 0, 67, 0
1, 52080, Note_on_c, 0, 66, 100
1, 52199, Note_on_c, 0, 66, 0
1, 52200, Note_on_c, 0, 67, 100
1, 52319, Note_on_c, 0, 67, 0
1, 52320, Note_on_c, 0, 69, 100
1, 52555, Note_on_c, 0, 69, 0
1, 52560, Note_on_c, 0, 69, 100
1, 53035, Note_on_c, 0, 69, 0
1, 53040, Note_on_c, 0, 71, 100
1, 53159, Note_on_c, 0, 71, 0
1, 53160, Note_on_c, 0, 73, 100
1, 53279, Note_on_c, 0, 73, 0
1, 53280, Note_on_c, 0, 74, 80
1, 54959, Note_on_c, 0, 74, 0
1, 54960, Note_on_c, 0, 76, 100
1, 55079, Note_on_c, 0, 76, 0
1, 55080, Note_on_c, 0, 78, 100
1, 55199, Note_on_c, 0, 78, 0
1, 55200, Note_on_c, 0, 76, 100
1, 55439, Note_on_c, 0, 76, 0
1, 55440, Note_on_c, 0, 74, 100
1, 55679, Note_on_c, 0, 74, 0
1, 55680, Note_on_c, 0, 73, 100
1, 57359, Note_on_c, 0, 73, 0
1, 57360, Note_on_c, 0, 75, 100
1, 57479, Note_on_c, 0, 75, 0
1, 57480, Note_on_c, 0, 76, 100
1, 57599, Note_on_c, 0, 76, 0
1, 57600, Note_on_c, 0, 75, 100
1, 57719, Note_on_c, 0, 75, 0
1, 57720, Note_on_c, 0, 73, 100
1, 57839, Note_on_c, 0, 73, 0
1, 57840, Note_on_c, 0, 72, 100
1, 57959, Note_on_c, 0, 72, 0
1, 57960, Note_on_c, 0, 73, 100
1, 58079, Note_on_c, 0, 73, 0
1, 58080, Note_on_c, 0, 72, 100
1, 58319, Note_on_c, 0, 72, 0
1, 58320, Note_on_c, 0, 73, 100
1, 58559, Note_on_c, 0, 73, 0
1, 58560, Note_on_c, 0, 75, 100
1, 59035, Note_on_c, 0, 75, 0
1, 59040, Note_on_c, 0, 68, 100
1, 59279, Note_on_c, 0, 68, 0
1, 59280, Note_on_c, 0, 80, 100
1, 59755, Note_on_c, 0, 80, 0
1, 59760, Note_on_c, 0, 78, 100
1, 59879, Note_on_c, 0, 78, 0
1, 59880, Note_on_c, 0, 76, 100
1, 59999, Note_on_c, 0, 76, 0
1, 60000, Note_on_c, 0, 75, 100
1, 60119, Note_on_c, 0, 75, 0
1, 60120, Note_on_c, 0, 78, 100
1, 60239, Note_on_c, 0, 78, 0
1, 60240, Note_on_c, 0, 76, 100
1, 60359, Note_on_c, 0, 76, 0
1, 60360, Note_on_c, 0, 75, 100
1, 60479, Note_on_c, 0, 75, 0
1, 60480, Note_on_c, 0, 73, 100
1, 60599, Note_on_c, 0, 73, 0
1, 60600, Note_on_c, 0, 72, 100
1, 60719, Note_on_c, 0, 72, 0
1, 60720, Note_on_c, 0, 73, 100
1, 60839, Note_on_c, 0, 73, 0
1, 60840, Note_on_c, 0, 75, 100
1, 60959, Note_on_c, 0, 75, 0
1, 60960, Note_on_c, 0, 76, 100
1, 61559, Note_on_c, 0, 76, 0
1, 61560, Note_on_c, 0, 75, 100
1, 61679, Note_on_c, 0, 75, 0
1, 61680, Note_on_c, 0, 76, 100
1, 61799, Note_on_c, 0, 76, 0
1, 61800, Note_on_c, 0, 78, 100
1, 61919, Note_on_c, 0, 78, 0
1, 61920, Note_on_c, 0, 80, 100
1, 62039, Note_on_c, 0, 80, 0
1, 62040, Note_on_c, 0, 78, 100
1, 62159, Note_on_c, 0, 78, 0
1, 62160, Note_on_c, 0, 80, 100
1, 62279, Note_on_c, 0, 80, 0
1, 62280, Note_on_c, 0, 81, 100
1, 62399, Note_on_c, 0, 81, 0
1, 62400, Note_on_c, 0, 80, 100
1, 62519, Note_on_c, 0, 80, 0
1, 62520, Note_on_c, 0, 78, 100
1, 62639, Note_on_c, 0, 78, 0
1, 62640, Note_on_c, 0, 76, 100
1, 62759, Note_on_c, 0, 76, 0
1, 62760, Note_on_c, 0, 75, 100
1, 62879, Note_on_c, 0, 75, 0
1, 62880, Note_on_c, 0, 73, 100
1, 63479, Note_on_c, 0, 73, 0
1, 63480, Note_on_c, 0, 72, 100
1, 63599, Note_on_c, 0, 72, 0
1, 63600, Note_on_c, 0, 73, 100
1, 63719, Note_on_c, 0, 73, 0
1, 63720, Note_on_c, 0, 75, 100
1, 63839, Note_on_c, 0, 75, 0
1, 63840, Note_on_c, 0, 73, 100
1, 63959, Note_on_c, 0, 73, 0
1, 63960, Note_on_c, 0, 71, 100
1, 64079, Note_on_c, 0, 71, 0
1, 64080, Note_on_c, 0, 69, 100
1, 64199, Note_on_c, 0, 69, 0
1, 64200, Note_on_c, 0, 68, 100
1, 64319, Note_on_c, 0, 68, 0
1, 64320, Note_on_c, 0, 70, 100
1, 64439, Note_on_c, 0, 70, 0
1, 64440, Note_on_c, 0, 72, 100
1, 64559, Note_on_c, 0, 72, 0
1, 64560, Note_on_c, 0, 73, 100
1, 64679, Note_on_c, 0, 73, 0
1, 64680, Note_on_c, 0, 75, 100
1, 64799, Note_on_c, 0, 75, 0
1, 64800, Note_on_c, 0, 76, 100
1, 64919, Note_on_c, 0, 76, 0
1, 64920, Note_on_c, 0, 75, 100
1, 65039, Note_on_c, 0, 75, 0
1, 65040, Note_on_c, 0, 76, 100
1, 65159, Note_on_c, 0, 76, 0
1, 65160, Note_on_c, 0, 78, 100
1, 65279, Note_on_c, 0, 78, 0
1, 65280, Note_on_c, 0, 76, 100
1, 65399, Note_on_c, 0, 76, 0
1, 65400, Note_on_c, 0, 75, 100
1, 65519, Note_on_c, 0, 75, 0
1, 65520, Note_on_c, 0, 73, 100
1, 65639, Note_on_c, 0, 73, 0
1, 65640, Note_on_c, 0, 72, 100
1, 65759, Note_on_c, 0, 72, 0
1, 65760, Note_on_c, 0, 73, 100
1, 65879, Note_on_c, 0, 73, 0
1, 65880, Note_on_c, 0, 75, 100
1, 65999, Note_on_c, 0, 75, 0
1, 66000, Note_on_c, 0, 76, 100
1, 66119, Note_on_c, 0, 76, 0
1, 66120, Note_on_c, 0, 73, 100
1, 66239, Note_on_c, 0, 73, 0
1, 66240, Note_on_c, 0, 69, 100
1, 66359, Note_on_c, 0, 69, 0
1, 66360, Note_on_c, 0, 68, 100
1, 66479, Note_on_c, 0, 68, 0
1, 66480, Note_on_c, 0, 69, 100
1, 66599, Note_on_c, 0, 69, 0
1, 66600, Note_on_c, 0, 71, 100
1, 66719, Note_on_c, 0, 71, 0
1, 66720, Note_on_c, 0, 69, 100
1, 66959, Note_on_c, 0, 69, 0
1, 66960, Note_on_c, 0, 73, 100
1, 67199, Note_on_c, 0, 73, 0
1, 67200, Note_on_c, 0, 69, 100
1, 67439, Note_on_c, 0, 69, 0
1, 67440, Note_on_c, 0, 73, 100
1, 67679, Note_on_c, 0, 73, 0
1, 67680, Note_on_c, 0, 78, 100
1, 67799, Note_on_c, 0, 78, 0
1, 67800, Note_on_c, 0, 76, 100
1, 67919, Note_on_c, 0, 76, 0
1, 67920, Note_on_c, 0, 78, 100
1, 68039, Note_on_c, 0, 78, 0
1, 68040, Note_on_c, 0, 80, 100
1, 68159, Note_on_c, 0, 80, 0
1, 68160, Note_on_c, 0, 78, 100
1, 68279, Note_on_c, 0, 78, 0
1, 68280, Note_on_c, 0, 76, 100
1, 68399, Note_on_c, 0, 76, 0
1, 68400, Note_on_c, 0, 75, 100
1, 68759, Note_on_c, 0, 75, 0
1, 68760, Note_on_c, 0, 76, 100
1, 68879, Note_on_c, 0, 76, 0
1, 68880, Note_on_c, 0, 75, 100
1, 68999, Note_on_c, 0, 75, 0
1, 69000, Note_on_c, 0, 73, 100
1, 69119, Note_on_c, 0, 73, 0
1, 69120, Note_on_c, 0, 72, 100
1, 69239, Note_on_c, 0, 72, 0
1, 69240, Note_on_c, 0, 70, 100
1, 69359, Note_on_c, 0, 70, 0
1, 69360, Note_on_c, 0, 72, 100
1, 69479, Note_on_c, 0, 72, 0
1, 69480, Note_on_c, 0, 73, 100
1, 69599, Note_on_c, 0, 73, 0
1, 69600, Note_on_c, 0, 72, 100
1, 69719, Note_on_c, 0, 72, 0
1, 69720, Note_on_c, 0, 75, 100
1, 69839, Note_on_c, 0, 75, 0
1, 69840, Note_on_c, 0, 63, 100
1, 70199, Note_on_c, 0, 63, 0
1, 70200, Note_on_c, 0, 64, 100
1, 70319, Note_on_c, 0, 64, 0
1, 70320, Note_on_c, 0, 66, 100
1, 70439, Note_on_c, 0, 66, 0
1, 70440, Note_on_c, 0, 68, 100
1, 70499, Note_on_c, 0, 68, 0
1, 70500, Note_on_c, 0, 69, 100
1, 70559, Note_on_c, 0, 69, 0
1, 70560, Note_on_c, 0, 68, 80
1, 76559, Note_on_c, 0, 68, 0
1, 76560, Note_on_c, 0, 66, 100
1, 76679, Note_on_c, 0, 66, 0
1, 76680, Note_on_c, 0, 65, 100
1, 76799, Note_on_c, 0, 65, 0
1, 76800, Note_on_c, 0, 66, 100
1, 76919, Note_on_c, 0, 66, 0
1, 76920, Note_on_c, 0, 68, 100
1, 77039, Note_on_c, 0, 68, 0
1, 77040, Note_on_c, 0, 69, 100
1, 77159, Note_on_c, 0, 69, 0
1, 77160, Note_on_c, 0, 71, 100
1, 77279, Note_on_c, 0, 71, 0
1, 77280, Note_on_c, 0, 73, 100
1, 77999, Note_on_c, 0, 73, 0
1, 78000, Note_on_c, 0, 71, 100
1, 78239, Note_on_c, 0, 71, 0
1, 78240, Note_on_c, 0, 69, 100
1, 78479, Note_on_c, 0, 69, 0
1, 78480, Note_on_c, 0, 68, 100
1, 78719, Note_on_c, 0, 68, 0
1, 78720, Note_on_c, 0, 66, 100
1, 78839, Note_on_c, 0, 66, 0
1, 78840, Note_on_c, 0, 68, 100
1, 78959, Note_on_c, 0, 68, 0
1, 78960, Note_on_c, 0, 69, 100
1, 79199, Note_on_c, 0, 69, 0
1, 79200, Note_on_c, 0, 68, 80
1, 80639, Note_on_c, 0, 68, 0
1, 82080, Note_on_c, 0, 68, 100
1, 82555, Note_on_c, 0, 68, 0
1, 82560, Note_on_c, 0, 61, 100
1, 83515, Note_on_c, 0, 61, 0
1, 83520, Note_on_c, 0, 64, 100
1, 83995, Note_on_c, 0, 64, 0
1, 84000, Note_on_c, 0, 68, 100
1, 84955, Note_on_c, 0, 68, 0
1, 84960, Note_on_c, 0, 69, 100
1, 85435, Note_on_c, 0, 69, 0
1, 85440, Note_on_c, 0, 68, 100
1, 85915, Note_on_c, 0, 68, 0
1, 85920, Note_on_c, 0, 66, 100
1, 86395, Note_on_c, 0, 66, 0
1, 86400, Note_on_c, 0, 64, 80
1, 87119, Note_on_c, 0, 64, 0
1, 87120, Note_on_c, 0, 63, 100
1, 87359, Note_on_c, 0, 63, 0
1, 87360, Note_on_c, 0, 64, 100
1, 87599, Note_on_c, 0, 64, 0
1, 87600, Note_on_c, 0, 66, 100
1, 87839, Note_on_c, 0, 66, 0
1, 87840, Note_on_c, 0, 68, 100
1, 88315, Note_on_c, 0, 68, 0
1, 88560, Note_on_c, 0, 66, 100
1, 88799, Note_on_c, 0, 66, 0
1, 88800, Note_on_c, 0, 64, 100
1, 89039, Note_on_c, 0, 64, 0
1, 89040, Note_on_c, 0, 63, 100
1, 89279, Note_on_c, 0, 63, 0
1, 89280, Note_on_c, 0, 61, 100
1, 89755, Note_on_c, 0, 61, 0
1, 90000, Note_on_c, 0, 59, 100
1, 90239, Note_on_c, 0, 59, 0
1, 90240, Note_on_c, 0, 57, 100
1, 90479, Note_on_c, 0, 57, 0
1, 90480, Note_on_c, 0, 56, 100
1, 90719, Note_on_c, 0, 56, 0
1, 90720, Note_on_c, 0, 54, 100
1, 90959, Note_on_c, 0, 54, 0
1, 90960, Note_on_c, 0, 56, 100
1, 91199, Note_on_c, 0, 56, 0
1, 91200, Note_on_c, 0, 57, 100
1, 91439, Note_on_c, 0, 57, 0
1, 91440, Note_on_c, 0, 59, 100
1, 91679, Note_on_c, 0, 59, 0
1, 91680, Note_on_c, 0, 61, 100
1, 91919, Note_on_c, 0, 61, 0
1, 91920, Note_on_c, 0, 62, 100
1, 92159, Note_on_c, 0, 62, 0
1, 92160, Note_on_c, 0, 61, 100
1, 92399, Note_on_c, 0, 61, 0
1, 92400, Note_on_c, 0, 63, 100
1, 92519, Note_on_c, 0, 63, 0
1, 92520, Note_on_c, 0, 64, 100
1, 92639, Note_on_c, 0, 64, 0
1, 92640, Note_on_c, 0, 66, 80
1, 93359, Note_on_c, 0, 66, 0
1, 93360, Note_on_c, 0, 68, 100
1, 93479, Note_on_c, 0, 68, 0
1, 93480, Note_on_c, 0, 66, 100
1, 93599, Note_on_c, 0, 66, 0
1, 93600, Note_on_c, 0, 64, 100
1, 93839, Note_on_c, 0, 64, 0
1, 93840, Note_on_c, 0, 66, 100
1, 93959, Note_on_c, 0, 66, 0
1, 93960, Note_on_c, 0, 68, 100
1, 94079, Note_on_c, 0, 68, 0
1, 94080, Note_on_c, 0, 69, 100
1, 94799, Note_on_c, 0, 69, 0
1, 94800, Note_on_c, 0, 71, 100
1, 94919, Note_on_c, 0, 71, 0
1, 94920, Note_on_c, 0, 69, 100
1, 95039, Note_on_c, 0, 69, 0
1, 95040, Note_on_c, 0, 68, 100
1, 95515, Note_on_c, 0, 68, 0
1, 95760, Note_on_c, 0, 76, 100
1, 95999, Note_on_c, 0, 76, 0
1, 96000, Note_on_c, 0, 75, 100
1, 96239, Note_on_c, 0, 75, 0
1, 96240, Note_on_c, 0, 73, 100
1, 96479, Note_on_c, 0, 73, 0
1, 96480, Note_on_c, 0, 71, 100
1, 96719, Note_on_c, 0, 71, 0
1, 96720, Note_on_c, 0, 73, 100
1, 96959, Note_on_c, 0, 73, 0
1, 96960, Note_on_c, 0, 73, 100
1, 97000, Note_on_c, 0, 73, 0
1, 97040, Note_on_c, 0, 72, 100
1, 97080, Note_on_c, 0, 73, 100
1, 97099, Note_on_c, 0, 72, 0
1, 97120, Note_on_c, 0, 73, 0
1, 97160, Note_on_c, 0, 72, 100
1, 97200, Note_on_c, 0, 73, 100
1, 97219, Note_on_c, 0, 72, 0
1, 97240, Note_on_c, 0, 73, 0
1, 97280, Note_on_c, 0, 72, 100
1, 97320, Note_on_c, 0, 73, 100
1, 97339, Note_on_c, 0, 72, 0
1, 97360, Note_on_c, 0, 73, 0
1, 97400, Note_on_c, 0, 72, 100
1, 97440, Note_on_c, 0, 73, 100
1, 97459, Note_on_c, 0, 72, 0
1, 97480, Note_on_c, 0, 73, 0
1, 97520, Note_on_c, 0, 72, 100
1, 97560, Note_on_c, 0, 73, 100
1, 97579, Note_on_c, 0, 72, 0
1, 97600, Note_on_c, 0, 73, 0
1, 97640, Note_on_c, 0, 72, 100
1, 97680, Note_on_c, 0, 73, 100
1, 97699, Note_on_c, 0, 72, 0
1, 97720, Note_on_c, 0, 73, 0
1, 97760, Note_on_c, 0, 72, 100
1, 97800, Note_on_c, 0, 73, 100
1, 97819, Note_on_c, 0, 72, 0
1, 97840, Note_on_c, 0, 73, 0
1, 97880, Note_on_c, 0, 72, 100
1, 97920, Note_on_c, 0, 73, 80
1, 97939, Note_on_c, 0, 72, 0
1, 99479, Note_on_c, 0, 73, 0
1, 99480, Note_on_c, 0, 75, 100
1, 99599, Note_on_c, 0, 75, 0
1, 99600, Note_on_c, 0, 76, 100
1, 99719, Note_on_c, 0, 76, 0
1, 99720, Note_on_c, 0, 75, 100
1, 99839, Note_on_c, 0, 75, 0
1, 99840, Note_on_c, 0, 73, 100
1, 100079, Note_on_c, 0, 73, 0
1, 100080, Note_on_c, 0, 72, 100
1, 100319, Note_on_c, 0, 72, 0
1, 100320, Note_on_c, 0, 73, 100
1, 100559, Note_on_c, 0, 73, 0
1, 100560, Note_on_c, 0, 75, 100
1, 100799, Note_on_c, 0, 75, 0
1, 100800, Note_on_c, 0, 76, 100
1, 101039, Note_on_c, 0, 76, 0
1, 101040, Note_on_c, 0, 78, 100
1, 101279, Note_on_c, 0, 78, 0
1, 101280, Note_on_c, 0, 80, 100
1, 101755, Note_on_c, 0, 80, 0
1, 102000, Note_on_c, 0, 72, 100
1, 102239, Note_on_c, 0, 72, 0
1, 102240, Note_on_c, 0, 73, 100
1, 102359, Note_on_c, 0, 73, 0
1, 102360, Note_on_c, 0, 75, 100
1, 102479, Note_on_c, 0, 75, 0
1, 102480, Note_on_c, 0, 76, 100
1, 102599, Note_on_c, 0, 76, 0
1, 102600, Note_on_c, 0, 78, 100
1, 102719, Note_on_c, 0, 78, 0
1, 102720, Note_on_c, 0, 76, 100
1, 103195, Note_on_c, 0, 76, 0
1, 103440, Note_on_c, 0, 65, 100
1, 103679, Note_on_c, 0, 65, 0
1, 103680, Note_on_c, 0, 66, 100
1, 103799, Note_on_c, 0, 66, 0
1, 103800, Note_on_c, 0, 68, 100
1, 103919, Note_on_c, 0, 68, 0
1, 103920, Note_on_c, 0, 69, 100
1, 104039, Note_on_c, 0, 69, 0
1, 104040, Note_on_c, 0, 71, 100
1, 104159, Note_on_c, 0, 71, 0
1, 104160, Note_on_c, 0, 69, 100
1, 104635, Note_on_c, 0, 69, 0
1, 104880, Note_on_c, 0, 66, 100
1, 105119, Note_on_c, 0, 66, 0
1, 105120, Note_on_c, 0, 73, 100
1, 105239, Note_on_c, 0, 73, 0
1, 105240, Note_on_c, 0, 71, 100
1, 105359, Note_on_c, 0, 71, 0
1, 105360, Note_on_c, 0, 69, 100
1, 105479, Note_on_c, 0, 69, 0
1, 105480, Note_on_c, 0, 68, 100
1, 105599, Note_on_c, 0, 68, 0
1, 105600, Note_on_c, 0, 66, 100
1, 106075, Note_on_c, 0, 66, 0
1, 106080, Note_on_c, 0, 78, 100
1, 106555, Note_on_c, 0, 78, 0
1, 106560, Note_on_c, 0, 76, 100
1, 106679, Note_on_c, 0, 76, 0
1, 106680, Note_on_c, 0, 75, 100
1, 106799, Note_on_c, 0, 75, 0
1, 106800, Note_on_c, 0, 73, 100
1, 106919, Note_on_c, 0, 73, 0
1, 106920, Note_on_c, 0, 71, 100
1, 107039, Note_on_c, 0, 71, 0
1, 107040, Note_on_c, 0, 69, 100
1, 107515, Note_on_c, 0, 69, 0
1, 107520, Note_on_c, 0, 81, 100
1, 107995, Note_on_c, 0, 81, 0
1, 108000, Note_on_c, 0, 80, 100
1, 108119, Note_on_c, 0, 80, 0
1, 108120, Note_on_c, 0, 78, 100
1, 108239, Note_on_c, 0, 78, 0
1, 108240, Note_on_c, 0, 76, 100
1, 108359, Note_on_c, 0, 76, 0
1, 108360, Note_on_c, 0, 75, 100
1, 108479, Note_on_c, 0, 75, 0
1, 108480, Note_on_c, 0, 73, 100
1, 108955, Note_on_c, 0, 73, 0
1, 109200, Note_on_c, 0, 72, 100
1, 109439, Note_on_c, 0, 72, 0
1, 109440, Note_on_c, 0, 73, 100
1, 109679, Note_on_c, 0, 73, 0
1, 109680, Note_on_c, 0, 75, 100
1, 109919, Note_on_c, 0, 75, 0
1, 109920, Note_on_c, 0, 76, 100
1, 110159, Note_on_c, 0, 76, 0
1, 110160, Note_on_c, 0, 78, 100
1, 110399, Note_on_c, 0, 78, 0
1, 110400, Note_on_c, 0, 80, 100
1, 110875, Note_on_c, 0, 80, 0
1, 113280, Note_on_c, 0, 68, 100
1, 113399, Note_on_c, 0, 68, 0
1, 113400, Note_on_c, 0, 66, 100
1, 113519, Note_on_c, 0, 66, 0
1, 113520, Note_on_c, 0, 64, 100
1, 113639, Note_on_c, 0, 64, 0
1, 113640, Note_on_c, 0, 63, 100
1, 113759, Note_on_c, 0, 63, 0
1, 113760, Note_on_c, 0, 61, 100
1, 113879, Note_on_c, 0, 61, 0
1, 113880, Note_on_c, 0, 60, 100
1, 113999, Note_on_c, 0, 60, 0
1, 114000, Note_on_c, 0, 61, 100
1, 114119, Note_on_c, 0, 61, 0
1, 114120, Note_on_c, 0, 63, 100
1, 114239, Note_on_c, 0, 63, 0
1, 114240, Note_on_c, 0, 64, 100
1, 114479, Note_on_c, 0, 64, 0
1, 114480, Note_on_c, 0, 66, 100
1, 114719, Note_on_c, 0, 66, 0
1, 114720, Note_on_c, 0, 68, 100
1, 114959, Note_on_c, 0, 68, 0
1, 114960, Note_on_c, 0, 69, 100
1, 115199, Note_on_c, 0, 69, 0
1, 115200, Note_on_c, 0, 68, 100
1, 115439, Note_on_c, 0, 68, 0
1, 115440, Note_on_c, 0, 70, 100
1, 115559, Note_on_c, 0, 70, 0
1, 115560, Note_on_c, 0, 72, 100
1, 115679, Note_on_c, 0, 72, 0
1, 115680, Note_on_c, 0, 73, 100
1, 116399, Note_on_c, 0, 73, 0
1, 116400, Note_on_c, 0, 75, 100
1, 116519, Note_on_c, 0, 75, 0
1, 116520, Note_on_c, 0, 73, 100
1, 116639, Note_on_c, 0, 73, 0
1, 116640, Note_on_c, 0, 71, 100
1, 116879, Note_on_c, 0, 71, 0
1, 116880, Note_on_c, 0, 75, 100
1, 117119, Note_on_c, 0, 75, 0
1, 117120, Note_on_c, 0, 68, 100
1, 117595, Note_on_c, 0, 68, 0
1, 117720, Note_on_c, 0, 71, 100
1, 117839, Note_on_c, 0, 71, 0
1, 117840, Note_on_c, 0, 70, 100
1, 117959, Note_on_c, 0, 70, 0
1, 117960, Note_on_c, 0, 68, 100
1, 118079, Note_on_c, 0, 68, 0
1, 118080, Note_on_c, 0, 67, 100
1, 118319, Note_on_c, 0, 67, 0
1, 118320, Note_on_c, 0, 68, 100
1, 118439, Note_on_c, 0, 68, 0
1, 118440, Note_on_c, 0, 70, 100
1, 118559, Note_on_c, 0, 70, 0
1, 118560, Note_on_c, 0, 71, 100
1, 118799, Note_on_c, 0, 71, 0
1, 118800, Note_on_c, 0, 73, 100
1, 119039, Note_on_c, 0, 73, 0
1, 119040, Note_on_c, 0, 75, 100
1, 119279, Note_on_c, 0, 75, 0
1, 119280, Note_on_c, 0, 76, 100
1, 119519, Note_on_c, 0, 76, 0
1, 119520, Note_on_c, 0, 75, 100
1, 119759, Note_on_c, 0, 75, 0
1, 119760, Note_on_c, 0, 73, 100
1, 119999, Note_on_c, 0, 73, 0
1, 120000, Note_on_c, 0, 71, 100
1, 120239, Note_on_c, 0, 71, 0
1, 120240, Note_on_c, 0, 73, 100
1, 120479, Note_on_c, 0, 73, 0
1, 120480, Note_on_c, 0, 71, 100
1, 120719, Note_on_c, 0, 71, 0
1, 120720, Note_on_c, 0, 70, 100
1, 120959, Note_on_c, 0, 70, 0
1, 120960, Note_on_c, 0, 68, 100
1, 121435, Note_on_c, 0, 68, 0
1, 121440, Note_on_c, 0, 66, 100
1, 121915, Note_on_c, 0, 66, 0
1, 122040, Note_on_c, 0, 66, 100
1, 122159, Note_on_c, 0, 66, 0
1, 122160, Note_on_c, 0, 68, 100
1, 122279, Note_on_c, 0, 68, 0
1, 122280, Note_on_c, 0, 70, 100
1, 122399, Note_on_c, 0, 70, 0
1, 122400, Note_on_c, 0, 71, 100
1, 122519, Note_on_c, 0, 71, 0
1, 122520, Note_on_c, 0, 73, 100
1, 122639, Note_on_c, 0, 73, 0
1, 122640, Note_on_c, 0, 75, 100
1, 122759, Note_on_c, 0, 75, 0
1, 122760, Note_on_c, 0, 76, 100
1, 122879, Note_on_c, 0, 76, 0
1, 122880, Note_on_c, 0, 75, 100
1, 122999, Note_on_c, 0, 75, 0
1, 123000, Note_on_c, 0, 80, 100
1, 123119, Note_on_c, 0, 80, 0
1, 123120, Note_on_c, 0, 78, 100
1, 123239, Note_on_c, 0, 78, 0
1, 123240, Note_on_c, 0, 76, 100
1, 123359, Note_on_c, 0, 76, 0
1, 123360, Note_on_c, 0, 75, 100
1, 123479, Note_on_c, 0, 75, 0
1, 123480, Note_on_c, 0, 73, 100
1, 123599, Note_on_c, 0, 73, 0
1, 123600, Note_on_c, 0, 71, 100
1, 123719, Note_on_c, 0, 71, 0
1, 123720, Note_on_c, 0, 69, 100
1, 123839, Note_on_c, 0, 69, 0
1, 123840, Note_on_c, 0, 71, 100
1, 123959, Note_on_c, 0, 71, 0
1, 123960, Note_on_c, 0, 73, 100
1, 124079, Note_on_c, 0, 73, 0
1, 124080, Note_on_c, 0, 75, 100
1, 124199, Note_on_c, 0, 75, 0
1, 124200, Note_on_c, 0, 73, 100
1, 124319, Note_on_c, 0, 73, 0
1, 124320, Note_on_c, 0, 71, 100
1, 124795, Note_on_c, 0, 71, 0
1, 125040, Note_on_c, 0, 71, 100
1, 125279, Note_on_c, 0, 71, 0
1, 125280, Note_on_c, 0, 69, 100
1, 125399, Note_on_c, 0, 69, 0
1, 125400, Note_on_c, 0, 68, 100
1, 125519, Note_on_c, 0, 68, 0
1, 125520, Note_on_c, 0, 66, 100
1, 125639, Note_on_c, 0, 66, 0
1, 125640, Note_on_c, 0, 69, 100
1, 125759, Note_on_c, 0, 69, 0
1, 125760, Note_on_c, 0, 73, 100
1, 126235, Note_on_c, 0, 73, 0
1, 126360, Note_on_c, 0, 68, 100
1, 126479, Note_on_c, 0, 68, 0
1, 126480, Note_on_c, 0, 66, 100
1, 126599, Note_on_c, 0, 66, 0
1, 126600, Note_on_c, 0, 64, 100
1, 126719, Note_on_c, 0, 64, 0
1, 126720, Note_on_c, 0, 63, 100
1, 126959, Note_on_c, 0, 63, 0
1, 126960, Note_on_c, 0, 64, 100
1, 127079, Note_on_c, 0, 64, 0
1, 127080, Note_on_c, 0, 66, 100
1, 127199, Note_on_c, 0, 66, 0
1, 127200, Note_on_c, 0, 68, 100
1, 127439, Note_on_c, 0, 68, 0
1, 127440, Note_on_c, 0, 69, 100
1, 127679, Note_on_c, 0, 69, 0
1, 127680, Note_on_c, 0, 71, 100
1, 127919, Note_on_c, 0, 71, 0
1, 127920, Note_on_c, 0, 73, 100
1, 128159, Note_on_c, 0, 73, 0
1, 128160, Note_on_c, 0, 71, 100
1, 128399, Note_on_c, 0, 71, 0
1, 128400, Note_on_c, 0, 69, 100
1, 128639, Note_on_c, 0, 69, 0
1, 128640, Note_on_c, 0, 68, 100
1, 128879, Note_on_c, 0, 68, 0
1, 128880, Note_on_c, 0, 66, 100
1, 129119, Note_on_c, 0, 66, 0
1, 129120, Note_on_c, 0, 64, 100
1, 129719, Note_on_c, 0, 64, 0
1, 129720, Note_on_c, 0, 63, 100
1, 129839, Note_on_c, 0, 63, 0
1, 129840, Note_on_c, 0, 64, 100
1, 129959, Note_on_c, 0, 64, 0
1, 129960, Note_on_c, 0, 66, 100
1, 130079, Note_on_c, 0, 66, 0
1, 130080, Note_on_c, 0, 68, 100
1, 130679, Note_on_c, 0, 68, 0
1, 130680, Note_on_c, 0, 66, 100
1, 130799, Note_on_c, 0, 66, 0
1, 130800, Note_on_c, 0, 68, 100
1, 130919, Note_on_c, 0, 68, 0
1, 130920, Note_on_c, 0, 69, 100
1, 131039, Note_on_c, 0, 69, 0
1, 131040, Note_on_c, 0, 71, 100
1, 131279, Note_on_c, 0, 71, 0
1, 131280, Note_on_c, 0, 73, 100
1, 131399, Note_on_c, 0, 73, 0
1, 131400, Note_on_c, 0, 75, 100
1, 131519, Note_on_c, 0, 75, 0
1, 131520, Note_on_c, 0, 76, 80
1, 132479, Note_on_c, 0, 76, 0
1, 132480, Note_on_c, 0, 75, 100
1, 132719, Note_on_c, 0, 75, 0
1, 132720, Note_on_c, 0, 78, 100
1, 132959, Note_on_c, 0, 78, 0
1, 132960, Note_on_c, 0, 71, 100
1, 133435, Note_on_c, 0, 71, 0
1, 141120, Note_on_c, 0, 68, 100
1, 141239, Note_on_c, 0, 68, 0
1, 141240, Note_on_c, 0, 66, 100
1, 141359, Note_on_c, 0, 66, 0
1, 141360, Note_on_c, 0, 64, 100
1, 141479, Note_on_c, 0, 64, 0
1, 141480, Note_on_c, 0, 63, 100
1, 141599, Note_on_c, 0, 63, 0
1, 141600, Note_on_c, 0, 61, 100
1, 142199, Note_on_c, 0, 61, 0
1, 142200, Note_on_c, 0, 60, 100
1, 142319, Note_on_c, 0, 60, 0
1, 142320, Note_on_c, 0, 61, 100
1, 142439, Note_on_c, 0, 61, 0
1, 142440, Note_on_c, 0, 63, 100
1, 142559, Note_on_c, 0, 63, 0
1, 142560, Note_on_c, 0, 64, 100
1, 142799, Note_on_c, 0, 64, 0
1, 142800, Note_on_c, 0, 66, 100
1, 143039, Note_on_c, 0, 66, 0
1, 143040, Note_on_c, 0, 68, 100
1, 143759, Note_on_c, 0, 68, 0
1, 143760, Note_on_c, 0, 69, 100
1, 143879, Note_on_c, 0, 69, 0
1, 143880, Note_on_c, 0, 71, 100
1, 143999, Note_on_c, 0, 71, 0
1, 144000, Note_on_c, 0, 69, 100
1, 144475, Note_on_c, 0, 69, 0
1, 144480, Note_on_c, 0, 68, 100
1, 145199, Note_on_c, 0, 68, 0
1, 145200, Note_on_c, 0, 66, 100
1, 145439, Note_on_c, 0, 66, 0
1, 145440, Note_on_c, 0, 64, 80
1, 146159, Note_on_c, 0, 64, 0
1, 146160, Note_on_c, 0, 63, 100
1, 146399, Note_on_c, 0, 63, 0
1, 146400, Note_on_c, 0, 64, 100
1, 146639, Note_on_c, 0, 64, 0
1, 146640, Note_on_c, 0, 66, 100
1, 146879, Note_on_c, 0, 66, 0
1, 146880, Note_on_c, 0, 68, 100
1, 147479, Note_on_c, 0, 68, 0
1, 147480, Note_on_c, 0, 69, 100
1, 147599, Note_on_c, 0, 69, 0
1, 147600, Note_on_c, 0, 68, 100
1, 147719, Note_on_c, 0, 68, 0
1, 147720, Note_on_c, 0, 66, 100
1, 147839, Note_on_c, 0, 66, 0
1, 147840, Note_on_c, 0, 64, 100
1, 148079, Note_on_c, 0, 64, 0
1, 148080, Note_on_c, 0, 68, 100
1, 148319, Note_on_c, 0, 68, 0
1, 148320, Note_on_c, 0, 63, 100
1, 148919, Note_on_c, 0, 63, 0
1, 148920, Note_on_c, 0, 64, 100
1, 149039, Note_on_c, 0, 64, 0
1, 149040, Note_on_c, 0, 63, 100
1, 149159, Note_on_c, 0, 63, 0
1, 149160, Note_on_c, 0, 61, 100
1, 149279, Note_on_c, 0, 61, 0
1, 149280, Note_on_c, 0, 63, 100
1, 149519, Note_on_c, 0, 63, 0
1, 149520, Note_on_c, 0, 64, 100
1, 149759, Note_on_c, 0, 64, 0
1, 149760, Note_on_c, 0, 66, 100
1, 150359, Note_on_c, 0, 66, 0
1, 150360, Note_on_c, 0, 68, 100
1, 150479, Note_on_c, 0, 68, 0
1, 150480, Note_on_c, 0, 66, 100
1, 150599, Note_on_c, 0, 66, 0
1, 150600, Note_on_c, 0, 64, 100
1, 150719, Note_on_c, 0, 64, 0
1, 150720, Note_on_c, 0, 63, 100
1, 150959, Note_on_c, 0, 63, 0
1, 150960, Note_on_c, 0, 66, 100
1, 151199, Note_on_c, 0, 66, 0
1, 151200, Note_on_c, 0, 61, 100
1, 151799, Note_on_c, 0, 61, 0
1, 151800, Note_on_c, 0, 63, 100
1, 151919, Note_on_c, 0, 63, 0
1, 151920, Note_on_c, 0, 61, 100
1, 152039, Note_on_c, 0, 61, 0
1, 152040, Note_on_c, 0, 60, 100
1, 152159, Note_on_c, 0, 60, 0
1, 152160, Note_on_c, 0, 61, 100
1, 152399, Note_on_c, 0, 61, 0
1, 152400, Note_on_c, 0, 66, 100
1, 152639, Note_on_c, 0, 66, 0
1, 152640, Note_on_c, 0, 64, 80
1, 153359, Note_on_c, 0, 64, 0
1, 153360, Note_on_c, 0, 66, 100
1, 153479, Note_on_c, 0, 66, 0
1, 153480, Note_on_c, 0, 68, 100
1, 153599, Note_on_c, 0, 68, 0
1, 153600, Note_on_c, 0, 69, 100
1, 153719, Note_on_c, 0, 69, 0
1, 153720, Note_on_c, 0, 73, 100
1, 153839, Note_on_c, 0, 73, 0
1, 153840, Note_on_c, 0, 71, 100
1, 153959, Note_on_c, 0, 71, 0
1, 153960, Note_on_c, 0, 69, 100
1, 154079, Note_on_c, 0, 69, 0
1, 154080, Note_on_c, 0, 68, 100
1, 154199, Note_on_c, 0, 68, 0
1, 154200, Note_on_c, 0, 69, 100
1, 154319, Note_on_c, 0, 69, 0
1, 154320, Note_on_c, 0, 68, 100
1, 154439, Note_on_c, 0, 68, 0
1, 154440, Note_on_c, 0, 66, 100
1, 154559, Note_on_c, 0, 66, 0
1, 154560, Note_on_c, 0, 64, 100
1, 155159, Note_on_c, 0, 64, 0
1, 155160, Note_on_c, 0, 66, 100
1, 155279, Note_on_c, 0, 66, 0
1, 155280, Note_on_c, 0, 64, 100
1, 155399, Note_on_c, 0, 64, 0
1, 155400, Note_on_c, 0, 63, 100
1, 155519, Note_on_c, 0, 63, 0
1, 155520, Note_on_c, 0, 61, 100
1, 155759, Note_on_c, 0, 61, 0
1, 156000, Note_on_c, 0, 80, 100
1, 156119, Note_on_c, 0, 80, 0
1, 156120, Note_on_c, 0, 78, 100
1, 156239, Note_on_c, 0, 78, 0
1, 156240, Note_on_c, 0, 76, 100
1, 156359, Note_on_c, 0, 76, 0
1, 156360, Note_on_c, 0, 75, 100
1, 156479, Note_on_c, 0, 75, 0
1, 156480, Note_on_c, 0, 73, 100
1, 157199, Note_on_c, 0, 73, 0
1, 157200, Note_on_c, 0, 75, 100
1, 157439, Note_on_c, 0, 75, 0
1, 157440, Note_on_c, 0, 76, 100
1, 157679, Note_on_c, 0, 76, 0
1, 157680, Note_on_c, 0, 78, 100
1, 157919, Note_on_c, 0, 78, 0
1, 157920, Note_on_c, 0, 76, 100
1, 158039, Note_on_c, 0, 76, 0
1, 158040, Note_on_c, 0, 73, 100
1, 158159, Note_on_c, 0, 73, 0
1, 158160, Note_on_c, 0, 71, 100
1, 158279, Note_on_c, 0, 71, 0
1, 158280, Note_on_c, 0, 69, 100
1, 158399, Note_on_c, 0, 69, 0
1, 158400, Note_on_c, 0, 68, 80
1, 161879, Note_on_c, 0, 68, 0
1, 161880, Note_on_c, 0, 73, 100
1, 161939, Note_on_c, 0, 73, 0
1, 161940, Note_on_c, 0, 75, 100
1, 161999, Note_on_c, 0, 75, 0
1, 162000, Note_on_c, 0, 77, 100
1, 162059, Note_on_c, 0, 77, 0
1, 162060, Note_on_c, 0, 75, 100
1, 162119, Note_on_c, 0, 75, 0
1, 162120, Note_on_c, 0, 73, 100
1, 162239, Note_on_c, 0, 73, 0
1, 162240, Note_on_c, 0, 80, 80
1, 162719, Note_on_c, 0, 80, 0
1, 162720, End_track
2, 0, Start_track
2, 0, Key_signature, 4, "major"
2, 12960, Note_on_c, 0, 61, 100
2, 13435, Note_on_c, 0, 61, 0
2, 13440, Note_on_c, 0, 68, 100
2, 14395, Note_on_c, 0, 68, 0
2, 14400, Note_on_c, 0, 64, 100
2, 14875, Note_on_c, 0, 64, 0
2, 14880, Note_on_c, 0, 61, 100
2, 15835, Note_on_c, 0, 61, 0
2, 15840, Note_on_c, 0, 60, 100
2, 16315, Note_on_c, 0, 60, 0
2, 16320, Note_on_c, 0, 61, 100
2, 16795, Note_on_c, 0, 61, 0
2, 16800, Note_on_c, 0, 63, 100
2, 17275, Note_on_c, 0, 63, 0
2, 17280, Note_on_c, 0, 64, 80
2, 17999, Note_on_c, 0, 64, 0
2, 18000, Note_on_c, 0, 66, 100
2, 18239, Note_on_c, 0, 66, 0
2, 18240, Note_on_c, 0, 64, 100
2, 18479, Note_on_c, 0, 64, 0
2, 18480, Note_on_c, 0, 63, 100
2, 18719, Note_on_c, 0, 63, 0
2, 18720, Note_on_c, 0, 61, 100
2, 19195, Note_on_c, 0, 61, 0
2, 19440, Note_on_c, 0, 63, 100
2, 19679, Note_on_c, 0, 63, 0
2, 19680, Note_on_c, 0, 64, 100
2, 19919, Note_on_c, 0, 64, 0
2, 19920, Note_on_c, 0, 66, 100
2, 20159, Note_on_c, 0, 66, 0
2, 20160, Note_on_c, 0, 68, 100
2, 20635, Note_on_c, 0, 68, 0
2, 20880, Note_on_c, 0, 70, 100
2, 21119, Note_on_c, 0, 70, 0
2, 21120, Note_on_c, 0, 71, 100
2, 21359, Note_on_c, 0, 71, 0
2, 21360, Note_on_c, 0, 73, 100
2, 21599, Note_on_c, 0, 73, 0
2, 21600, Note_on_c, 0, 75, 100
2, 21839, Note_on_c, 0, 75, 0
2, 21840, Note_on_c, 0, 73, 100
2, 22079, Note_on_c, 0, 73, 0
2, 22080, Note_on_c, 0, 71, 100
2, 22319, Note_on_c, 0, 71, 0
2, 22320, Note_on_c, 0, 70, 100
2, 22559, Note_on_c, 0, 70, 0
2, 22560, Note_on_c, 0, 68, 100
2, 22799, Note_on_c, 0, 68, 0
2, 22800, Note_on_c, 0, 67, 100
2, 23039, Note_on_c, 0, 67, 0
2, 23040, Note_on_c, 0, 68, 80
2, 23759, Note_on_c, 0, 68, 0
2, 23760, Note_on_c, 0, 69, 100
2, 23999, Note_on_c, 0, 69, 0
2, 24000, Note_on_c, 0, 68, 100
2, 24239, Note_on_c, 0, 68, 0
2, 24240, Note_on_c, 0, 66, 100
2, 24479, Note_on_c, 0, 66, 0
2, 24480, Note_on_c, 0, 64, 80
2, 25199, Note_on_c, 0, 64, 0
2, 25200, Note_on_c, 0, 66, 100
2, 25439, Note_on_c, 0, 66, 0
2, 25440, Note_on_c, 0, 64, 100
2, 25679, Note_on_c, 0, 64, 0
2, 25680, Note_on_c, 0, 63, 100
2, 25919, Note_on_c, 0, 63, 0
2, 25920, Note_on_c, 0, 61, 80
2, 26639, Note_on_c, 0, 61, 0
2, 26640, Note_on_c, 0, 63, 100
2, 26879, Note_on_c, 0, 63, 0
2, 26880, Note_on_c, 0, 61, 100
2, 27119, Note_on_c, 0, 61, 0
2, 27120, Note_on_c, 0, 60, 100
2, 27359, Note_on_c, 0, 60, 0
2, 27360, Note_on_c, 0, 61, 100
2, 27599, Note_on_c, 0, 61, 0
2, 27600, Note_on_c, 0, 63, 100
2, 27839, Note_on_c, 0, 63, 0
2, 27840, Note_on_c, 0, 64, 100
2, 28559, Note_on_c, 0, 64, 0
2, 28560, Note_on_c, 0, 66, 100
2, 28679, Note_on_c, 0, 66, 0
2, 28680, Note_on_c, 0, 63, 100
2, 28799, Note_on_c, 0, 63, 0
2, 28800, Note_on_c, 0, 64, 100
2, 29039, Note_on_c, 0, 64, 0
2, 29040, Note_on_c, 0, 68, 100
2, 29279, Note_on_c, 0, 68, 0
2, 29280, Note_on_c, 0, 61, 100
2, 29519, Note_on_c, 0, 61, 0
2, 29520, Note_on_c, 0, 56, 100
2, 29639, Note_on_c, 0, 56, 0
2, 29640, Note_on_c, 0, 58, 100
2, 29759, Note_on_c, 0, 58, 0
2, 29760, Note_on_c, 0, 60, 100
2, 29999, Note_on_c, 0, 60, 0
2, 30000, Note_on_c, 0, 61, 100
2, 30119, Note_on_c, 0, 61, 0
2, 30120, Note_on_c, 0, 63, 100
2, 30239, Note_on_c, 0, 63, 0
2, 30240, Note_on_c, 0, 61, 100
2, 30479, Note_on_c, 0, 61, 0
2, 30480, Note_on_c, 0, 60, 100
2, 30719, Note_on_c, 0, 60, 0
2, 30720, Note_on_c, 0, 61, 100
2, 30839, Note_on_c, 0, 61, 0
2, 30840, Note_on_c, 0, 63, 100
2, 30959, Note_on_c, 0, 63, 0
2, 30960, Note_on_c, 0, 64, 100
2, 31079, Note_on_c, 0, 64, 0
2, 31080, Note_on_c, 0, 66, 100
2, 31199, Note_on_c, 0, 66, 0
2, 31200, Note_on_c, 0, 68, 100
2, 32639, Note_on_c, 0, 68, 0
2, 32640, Note_on_c, 0, 69, 80
2, 33119, Note_on_c, 0, 69, 0
2, 33120, Note_on_c, 0, 68, 100
2, 33359, Note_on_c, 0, 68, 0
2, 33360, Note_on_c, 0, 61, 100
2, 33835, Note_on_c, 0, 61, 0
2, 33840, Note_on_c, 0, 63, 100
2, 34079, Note_on_c, 0, 63, 0
2, 34080, Note_on_c, 0, 61, 100
2, 34319, Note_on_c, 0, 61, 0
2, 34320, Note_on_c, 0, 59, 100
2, 34559, Note_on_c, 0, 59, 0
2, 34560, Note_on_c, 0, 57, 80
2, 34919, Note_on_c, 0, 57, 0
2, 34920, Note_on_c, 0, 59, 100
2, 34979, Note_on_c, 0, 59, 0
2, 34980, Note_on_c, 0, 57, 100
2, 35039, Note_on_c, 0, 57, 0
2, 35040, Note_on_c, 0, 56, 100
2, 35515, Note_on_c, 0, 56, 0
2, 36000, Note_on_c, 0, 66, 100
2, 36119, Note_on_c, 0, 66, 0
2, 36120, Note_on_c, 0, 68, 100
2, 36239, Note_on_c, 0, 68, 0
2, 36240, Note_on_c, 0, 69, 100
2, 36359, Note_on_c, 0, 69, 0
2, 36360, Note_on_c, 0, 71, 100
2, 36479, Note_on_c, 0, 71, 0
2, 36480, Note_on_c, 0, 73, 100
2, 37079, Note_on_c, 0, 73, 0
2, 37080, Note_on_c, 0, 75, 100
2, 37199, Note_on_c, 0, 75, 0
2, 37200, Note_on_c, 0, 73, 100
2, 37319, Note_on_c, 0, 73, 0
2, 37320, Note_on_c, 0, 71, 100
2, 37439, Note_on_c, 0, 71, 0
2, 37440, Note_on_c, 0, 69, 100
2, 37679, Note_on_c, 0, 69, 0
2, 37680, Note_on_c, 0, 68, 100
2, 37919, Note_on_c, 0, 68, 0
2, 37920, Note_on_c, 0, 66, 100
2, 38639, Note_on_c, 0, 66, 0
2, 38640, Note_on_c, 0, 65, 100
2, 38759, Note_on_c, 0, 65, 0
2, 38760, Note_on_c, 0, 63, 100
2, 38879, Note_on_c, 0, 63, 0
2, 38880, Note_on_c, 0, 65, 100
2, 39355, Note_on_c, 0, 65, 0
2, 39360, Note_on_c, 0, 66, 100
2, 40079, Note_on_c, 0, 66, 0
2, 40080, Note_on_c, 0, 68, 100
2, 40319, Note_on_c, 0, 68, 0
2, 40320, Note_on_c, 0, 69, 80
2, 41039, Note_on_c, 0, 69, 0
2, 41040, Note_on_c, 0, 71, 100
2, 41279, Note_on_c, 0, 71, 0
2, 41280, Note_on_c, 0, 69, 100
2, 41519, Note_on_c, 0, 69, 0
2, 41520, Note_on_c, 0, 68, 100
2, 41759, Note_on_c, 0, 68, 0
2, 41760, Note_on_c, 0, 66, 80
2, 42479, Note_on_c, 0, 66, 0
2, 42480, Note_on_c, 0, 67, 100
2, 42719, Note_on_c, 0, 67, 0
2, 42720, Note_on_c, 0, 66, 100
2, 42959, Note_on_c, 0, 66, 0
2, 42960, Note_on_c, 0, 64, 100
2, 43199, Note_on_c, 0, 64, 0
2, 43200, Note_on_c, 0, 62, 80
2, 43919, Note_on_c, 0, 62, 0
2, 43920, Note_on_c, 0, 66, 100
2, 44159, Note_on_c, 0, 66, 0
2, 44160, Note_on_c, 0, 64, 100
2, 44399, Note_on_c, 0, 64, 0
2, 44400, Note_on_c, 0, 62, 100
2, 44639, Note_on_c, 0, 62, 0
2, 44640, Note_on_c, 0, 61, 100
2, 45239, Note_on_c, 0, 61, 0
2, 45240, Note_on_c, 0, 62, 100
2, 45359, Note_on_c, 0, 62, 0
2, 45360, Note_on_c, 0, 64, 100
2, 45479, Note_on_c, 0, 64, 0
2, 45480, Note_on_c, 0, 62, 100
2, 45599, Note_on_c, 0, 62, 0
2, 45600, Note_on_c, 0, 61, 100
2, 45719, Note_on_c, 0, 61, 0
2, 45720, Note_on_c, 0, 62, 100
2, 45839, Note_on_c, 0, 62, 0
2, 45840, Note_on_c, 0, 61, 100
2, 45959, Note_on_c, 0, 61, 0
2, 45960, Note_on_c, 0, 59, 100
2, 46079, Note_on_c, 0, 59, 0
2, 46080, Note_on_c, 0, 57, 100
2, 46319, Note_on_c, 0, 57, 0
2, 46320, Note_on_c, 0, 56, 100
2, 46439, Note_on_c, 0, 56, 0
2, 46440, Note_on_c, 0, 54, 100
2, 46559, Note_on_c, 0, 54, 0
2, 46560, Note_on_c, 0, 52, 100
2, 47159, Note_on_c, 0, 52, 0
2, 47160, Note_on_c, 0, 54, 100
2, 47279, Note_on_c, 0, 54, 0
2, 47280, Note_on_c, 0, 56, 100
2, 47399, Note_on_c, 0, 56, 0
2, 47400, Note_on_c, 0, 57, 100
2, 47519, Note_on_c, 0, 57, 0
2, 47520, Note_on_c, 0, 59, 100
2, 47995, Note_on_c, 0, 59, 0
2, 48000, Note_on_c, 0, 61, 100
2, 48119, Note_on_c, 0, 61, 0
2, 48120, Note_on_c, 0, 62, 100
2, 48239, Note_on_c, 0, 62, 0
2, 48240, Note_on_c, 0, 61, 100
2, 48359, Note_on_c, 0, 61, 0
2, 48360, Note_on_c, 0, 59, 100
2, 48479, Note_on_c, 0, 59, 0
2, 48480, Note_on_c, 0, 57, 100
2, 49079, Note_on_c, 0, 57, 0
2, 49080, Note_on_c, 0, 59, 100
2, 49199, Note_on_c, 0, 59, 0
2, 49200, Note_on_c, 0, 61, 100
2, 49319, Note_on_c, 0, 61, 0
2, 49320, Note_on_c, 0, 62, 100
2, 49439, Note_on_c, 0, 62, 0
2, 49440, Note_on_c, 0, 61, 100
2, 49679, Note_on_c, 0, 61, 0
2, 49680, Note_on_c, 0, 59, 100
2, 49799, Note_on_c, 0, 59, 0
2, 49800, Note_on_c, 0, 57, 100
2, 49919, Note_on_c, 0, 57, 0
2, 49920, Note_on_c, 0, 56, 100
2, 50159, Note_on_c, 0, 56, 0
2, 50160, Note_on_c, 0, 68, 100
2, 50399, Note_on_c, 0, 68, 0
2, 50400, Note_on_c, 0, 66, 100
2, 50875, Note_on_c, 0, 66, 0
2, 50880, Note_on_c, 0, 64, 100
2, 51599, Note_on_c, 0, 64, 0
2, 51600, Note_on_c, 0, 66, 100
2, 51719, Note_on_c, 0, 66, 0
2, 51720, Note_on_c, 0, 67, 100
2, 51839, Note_on_c, 0, 67, 0
2, 51840, Note_on_c, 0, 66, 100
2, 51959, Note_on_c, 0, 66, 0
2, 51960, Note_on_c, 0, 64, 100
2, 52079, Note_on_c, 0, 64, 0
2, 52080, Note_on_c, 0, 62, 100
2, 52199, Note_on_c, 0, 62, 0
2, 52200, Note_on_c, 0, 64, 100
2, 52319, Note_on_c, 0, 64, 0
2, 52320, Note_on_c, 0, 66, 100
2, 52439, Note_on_c, 0, 66, 0
2, 52440, Note_on_c, 0, 64, 100
2, 52559, Note_on_c, 0, 64, 0
2, 52560, Note_on_c, 0, 66, 100
2, 52679, Note_on_c, 0, 66, 0
2, 52680, Note_on_c, 0, 67, 100
2, 52799, Note_on_c, 0, 67, 0
2, 52800, Note_on_c, 0, 66, 100
2, 53039, Note_on_c, 0, 66, 0
2, 53040, Note_on_c, 0, 64, 100
2, 53279, Note_on_c, 0, 64, 0
2, 53280, Note_on_c, 0, 62, 100
2, 53755, Note_on_c, 0, 62, 0
2, 53880, Note_on_c, 0, 56, 100
2, 53999, Note_on_c, 0, 56, 0
2, 54000, Note_on_c, 0, 54, 100
2, 54119, Note_on_c, 0, 54, 0
2, 54120, Note_on_c, 0, 57, 100
2, 54239, Note_on_c, 0, 57, 0
2, 54240, Note_on_c, 0, 59, 100
2, 54359, Note_on_c, 0, 59, 0
2, 54360, Note_on_c, 0, 61, 100
2, 54479, Note_on_c, 0, 61, 0
2, 54480, Note_on_c, 0, 62, 100
2, 54599, Note_on_c, 0, 62, 0
2, 54600, Note_on_c, 0, 61, 100
2, 54719, Note_on_c, 0, 61, 0
2, 54720, Note_on_c, 0, 59, 100
2, 54959, Note_on_c, 0, 59, 0
2, 54960, Note_on_c, 0, 56, 100
2, 55199, Note_on_c, 0, 56, 0
2, 55200, Note_on_c, 0, 57, 100
2, 55439, Note_on_c, 0, 57, 0
2, 55440, Note_on_c, 0, 59, 100
2, 55679, Note_on_c, 0, 59, 0
2, 55680, Note_on_c, 0, 61, 100
2, 55919, Note_on_c, 0, 61, 0
2, 55920, Note_on_c, 0, 65, 100
2, 56159, Note_on_c, 0, 65, 0
2, 56160, Note_on_c, 0, 66, 100
2, 56279, Note_on_c, 0, 66, 0
2, 56280, Note_on_c, 0, 68, 100
2, 56399, Note_on_c, 0, 68, 0
2, 56400, Note_on_c, 0, 69, 100
2, 56519, Note_on_c, 0, 69, 0
2, 56520, Note_on_c, 0, 71, 100
2, 56639, Note_on_c, 0, 71, 0
2, 56640, Note_on_c, 0, 69, 100
2, 56759, Note_on_c, 0, 69, 0
2, 56760, Note_on_c, 0, 73, 100
2, 56879, Note_on_c, 0, 73, 0
2, 56880, Note_on_c, 0, 68, 100
2, 56999, Note_on_c, 0, 68, 0
2, 57000, Note_on_c, 0, 71, 100
2, 57119, Note_on_c, 0, 71, 0
2, 57120, Note_on_c, 0, 69, 100
2, 57359, Note_on_c, 0, 69, 0
2, 57360, Note_on_c, 0, 66, 100
2, 57599, Note_on_c, 0, 66, 0
2, 57600, Note_on_c, 0, 68, 100
2, 57839, Note_on_c, 0, 68, 0
2, 57840, Note_on_c, 0, 69, 100
2, 58079, Note_on_c, 0, 69, 0
2, 58080, Note_on_c, 0, 68, 100
2, 58319, Note_on_c, 0, 68, 0
2, 58320, Note_on_c, 0, 64, 100
2, 58559, Note_on_c, 0, 64, 0
2, 58560, Note_on_c, 0, 60, 100
2, 58679, Note_on_c, 0, 60, 0
2, 58680, Note_on_c, 0, 61, 100
2, 58799, Note_on_c, 0, 61, 0
2, 58800, Note_on_c, 0, 63, 100
2, 58919, Note_on_c, 0, 63, 0
2, 58920, Note_on_c, 0, 60, 100
2, 59039, Note_on_c, 0, 60, 0
2, 59040, Note_on_c, 0, 61, 100
2, 59639, Note_on_c, 0, 61, 0
2, 59640, Note_on_c, 0, 64, 100
2, 59759, Note_on_c, 0, 64, 0
2, 59760, Note_on_c, 0, 63, 100
2, 59879, Note_on_c, 0, 63, 0
2, 59880, Note_on_c, 0, 61, 100
2, 59999, Note_on_c, 0, 61, 0
2, 60000, Note_on_c, 0, 60, 100
2, 60475, Note_on_c, 0, 60, 0
2, 60480, Note_on_c, 0, 61, 100
2, 61079, Note_on_c, 0, 61, 0
2, 61080, Note_on_c, 0, 63, 100
2, 61199, Note_on_c, 0, 63, 0
2, 61200, Note_on_c, 0, 64, 100
2, 61319, Note_on_c, 0, 64, 0
2, 61320, Note_on_c, 0, 66, 100
2, 61439, Note_on_c, 0, 66, 0
2, 61440, Note_on_c, 0, 68, 100
2, 62159, Note_on_c, 0, 68, 0
2, 62160, Note_on_c, 0, 63, 100
2, 62399, Note_on_c, 0, 63, 0
2, 62400, Note_on_c, 0, 64, 100
2, 62639, Note_on_c, 0, 64, 0
2, 62640, Note_on_c, 0, 68, 100
2, 62879, Note_on_c, 0, 68, 0
2, 62880, Note_on_c, 0, 69, 80
2, 63239, Note_on_c, 0, 69, 0
2, 63240, Note_on_c, 0, 68, 100
2, 63299, Note_on_c, 0, 68, 0
2, 63300, Note_on_c, 0, 66, 100
2, 63359, Note_on_c, 0, 66, 0
2, 63360, Note_on_c, 0, 64, 100
2, 63479, Note_on_c, 0, 64, 0
2, 63480, Note_on_c, 0, 63, 100
2, 63599, Note_on_c, 0, 63, 0
2, 63600, Note_on_c, 0, 64, 100
2, 63719, Note_on_c, 0, 64, 0
2, 63720, Note_on_c, 0, 66, 100
2, 63839, Note_on_c, 0, 66, 0
2, 63840, Note_on_c, 0, 64, 100
2, 63959, Note_on_c, 0, 64, 0
2, 63960, Note_on_c, 0, 63, 100
2, 64079, Note_on_c, 0, 63, 0
2, 64080, Note_on_c, 0, 61, 100
2, 64555, Note_on_c, 0, 61, 0
2, 64560, Note_on_c, 0, 60, 100
2, 64799, Note_on_c, 0, 60, 0
2, 64800, Note_on_c, 0, 61, 100
2, 65039, Note_on_c, 0, 61, 0
2, 65040, Note_on_c, 0, 56, 100
2, 65279, Note_on_c, 0, 56, 0
2, 65280, Note_on_c, 0, 61, 100
2, 65399, Note_on_c, 0, 61, 0
2, 65400, Note_on_c, 0, 63, 100
2, 65519, Note_on_c, 0, 63, 0
2, 65520, Note_on_c, 0, 64, 100
2, 65879, Note_on_c, 0, 64, 0
2, 65880, Note_on_c, 0, 66, 100
2, 65999, Note_on_c, 0, 66, 0
2, 66000, Note_on_c, 0, 68, 100
2, 66119, Note_on_c, 0, 68, 0
2, 66120, Note_on_c, 0, 64, 100
2, 66239, Note_on_c, 0, 64, 0
2, 66240, Note_on_c, 0, 61, 100
2, 66715, Note_on_c, 0, 61, 0
2, 67440, Note_on_c, 0, 61, 100
2, 67679, Note_on_c, 0, 61, 0
2, 67680, Note_on_c, 0, 63, 100
2, 67919, Note_on_c, 0, 63, 0
2, 67920, Note_on_c, 0, 59, 100
2, 68159, Note_on_c, 0, 59, 0
2, 68160, Note_on_c, 0, 63, 100
2, 68399, Note_on_c, 0, 63, 0
2, 68400, Note_on_c, 0, 66, 100
2, 68759, Note_on_c, 0, 66, 0
2, 68760, Note_on_c, 0, 68, 100
2, 68879, Note_on_c, 0, 68, 0
2, 68880, Note_on_c, 0, 66, 100
2, 68999, Note_on_c, 0, 66, 0
2, 69000, Note_on_c, 0, 64, 100
2, 69119, Note_on_c, 0, 64, 0
2, 69120, Note_on_c, 0, 63, 100
2, 69359, Note_on_c, 0, 63, 0
2, 69360, Note_on_c, 0, 68, 100
2, 69599, Note_on_c, 0, 68, 0
2, 70560, Note_on_c, 0, 61, 100
2, 70679, Note_on_c, 0, 61, 0
2, 70680, Note_on_c, 0, 63, 100
2, 70799, Note_on_c, 0, 63, 0
2, 70800, Note_on_c, 0, 64, 100
2, 70919, Note_on_c, 0, 64, 0
2, 70920, Note_on_c, 0, 66, 100
2, 71039, Note_on_c, 0, 66, 0
2, 71040, Note_on_c, 0, 68, 100
2, 71759, Note_on_c, 0, 68, 0
2, 71760, Note_on_c, 0, 66, 100
2, 71999, Note_on_c, 0, 66, 0
2, 72000, Note_on_c, 0, 64, 100
2, 72239, Note_on_c, 0, 64, 0
2, 72240, Note_on_c, 0, 63, 100
2, 72479, Note_on_c, 0, 63, 0
2, 72480, Note_on_c, 0, 61, 100
2, 73199, Note_on_c, 0, 61, 0
2, 73200, Note_on_c, 0, 60, 100
2, 73319, Note_on_c, 0, 60, 0
2, 73320, Note_on_c, 0, 58, 100
2, 73439, Note_on_c, 0, 58, 0
2, 73440, Note_on_c, 0, 60, 100
2, 73915, Note_on_c, 0, 60, 0
2, 73920, Note_on_c, 0, 61, 100
2, 74639, Note_on_c, 0, 61, 0
2, 74640, Note_on_c, 0, 63, 100
2, 74879, Note_on_c, 0, 63, 0
2, 74880, Note_on_c, 0, 64, 100
2, 75119, Note_on_c, 0, 64, 0
2, 75120, Note_on_c, 0, 63, 100
2, 75359, Note_on_c, 0, 63, 0
2, 75360, Note_on_c, 0, 64, 100
2, 75599, Note_on_c, 0, 64, 0
2, 75600, Note_on_c, 0, 66, 100
2, 75839, Note_on_c, 0, 66, 0
2, 75840, Note_on_c, 0, 64, 100
2, 76079, Note_on_c, 0, 64, 0
2, 76080, Note_on_c, 0, 63, 100
2, 76319, Note_on_c, 0, 63, 0
2, 76320, Note_on_c, 0, 61, 100
2, 76559, Note_on_c, 0, 61, 0
2, 76800, Note_on_c, 0, 63, 100
2, 77039, Note_on_c, 0, 63, 0
2, 77400, Note_on_c, 0, 65, 100
2, 77519, Note_on_c, 0, 65, 0
2, 77520, Note_on_c, 0, 66, 100
2, 77639, Note_on_c, 0, 66, 0
2, 77640, Note_on_c, 0, 68, 100
2, 77759, Note_on_c, 0, 68, 0
2, 77760, Note_on_c, 0, 69, 100
2, 77999, Note_on_c, 0, 69, 0
2, 78000, Note_on_c, 0, 68, 100
2, 78239, Note_on_c, 0, 68, 0
2, 78240, Note_on_c, 0, 66, 100
2, 78479, Note_on_c, 0, 66, 0
2, 78480, Note_on_c, 0, 65, 100
2, 78719, Note_on_c, 0, 65, 0
2, 78720, Note_on_c, 0, 63, 100
2, 79195, Note_on_c, 0, 63, 0
2, 79320, Note_on_c, 0, 63, 100
2, 79439, Note_on_c, 0, 63, 0
2, 79440, Note_on_c, 0, 65, 100
2, 79559, Note_on_c, 0, 65, 0
2, 79560, Note_on_c, 0, 66, 100
2, 79679, Note_on_c, 0, 66, 0
2, 79680, Note_on_c, 0, 65, 100
2, 80639, Note_on_c, 0, 65, 0
2, 87840, Note_on_c, 0, 61, 100
2, 88315, Note_on_c, 0, 61, 0
2, 88320, Note_on_c, 0, 56, 100
2, 89275, Note_on_c, 0, 56, 0
2, 89280, Note_on_c, 0, 57, 100
2, 89755, Note_on_c, 0, 57, 0
2, 89760, Note_on_c, 0, 61, 100
2, 90715, Note_on_c, 0, 61, 0
2, 90720, Note_on_c, 0, 62, 100
2, 91195, Note_on_c, 0, 62, 0
2, 91200, Note_on_c, 0, 61, 100
2, 91675, Note_on_c, 0, 61, 0
2, 91680, Note_on_c, 0, 59, 100
2, 92155, Note_on_c, 0, 59, 0
2, 92160, Note_on_c, 0, 57, 80
2, 92879, Note_on_c, 0, 57, 0
2, 92880, Note_on_c, 0, 56, 100
2, 93119, Note_on_c, 0, 56, 0
2, 93120, Note_on_c, 0, 58, 100
2, 93359, Note_on_c, 0, 58, 0
2, 93360, Note_on_c, 0, 59, 100
2, 93599, Note_on_c, 0, 59, 0
2, 93600, Note_on_c, 0, 61, 80
2, 94319, Note_on_c, 0, 61, 0
2, 94320, Note_on_c, 0, 60, 100
2, 94559, Note_on_c, 0, 60, 0
2, 94560, Note_on_c, 0, 61, 100
2, 94799, Note_on_c, 0, 61, 0
2, 94800, Note_on_c, 0, 63, 100
2, 95039, Note_on_c, 0, 63, 0
2, 95040, Note_on_c, 0, 64, 100
2, 95159, Note_on_c, 0, 64, 0
2, 95160, Note_on_c, 0, 63, 100
2, 95279, Note_on_c, 0, 63, 0
2, 95280, Note_on_c, 0, 64, 100
2, 95399, Note_on_c, 0, 64, 0
2, 95400, Note_on_c, 0, 66, 100
2, 95519, Note_on_c, 0, 66, 0
2, 95520, Note_on_c, 0, 68, 100
2, 95759, Note_on_c, 0, 68, 0
2, 95760, Note_on_c, 0, 61, 100
2, 95999, Note_on_c, 0, 61, 0
2, 96000, Note_on_c, 0, 59, 100
2, 96239, Note_on_c, 0, 59, 0
2, 96240, Note_on_c, 0, 57, 100
2, 96479, Note_on_c, 0, 57, 0
2, 96480, Note_on_c, 0, 56, 100
2, 96955, Note_on_c, 0, 56, 0
2, 97200, Note_on_c, 0, 54, 100
2, 97439, Note_on_c, 0, 54, 0
2, 97440, Note_on_c, 0, 52, 100
2, 97679, Note_on_c, 0, 52, 0
2, 97680, Note_on_c, 0, 51, 100
2, 97919, Note_on_c, 0, 51, 0
2, 97920, Note_on_c, 0, 49, 100
2, 98159, Note_on_c, 0, 49, 0
2, 98160, Note_on_c, 0, 51, 100
2, 98399, Note_on_c, 0, 51, 0
2, 98400, Note_on_c, 0, 52, 100
2, 98639, Note_on_c, 0, 52, 0
2, 98640, Note_on_c, 0, 54, 100
2, 98879, Note_on_c, 0, 54, 0
2, 98880, Note_on_c, 0, 56, 100
2, 99119, Note_on_c, 0, 56, 0
2, 99120, Note_on_c, 0, 57, 100
2, 99359, Note_on_c, 0, 57, 0
2, 99360, Note_on_c, 0, 56, 80
2, 100079, Note_on_c, 0, 56, 0
2, 100080, Note_on_c, 0, 57, 100
2, 100319, Note_on_c, 0, 57, 0
2, 100320, Note_on_c, 0, 56, 100
2, 100559, Note_on_c, 0, 56, 0
2, 100560, Note_on_c, 0, 54, 100
2, 100799, Note_on_c, 0, 54, 0
2, 100800, Note_on_c, 0, 61, 100
2, 101039, Note_on_c, 0, 61, 0
2, 101040, Note_on_c, 0, 63, 100
2, 101279, Note_on_c, 0, 63, 0
2, 101280, Note_on_c, 0, 64, 100
2, 101519, Note_on_c, 0, 64, 0
2, 101520, Note_on_c, 0, 66, 100
2, 101759, Note_on_c, 0, 66, 0
2, 101760, Note_on_c, 0, 68, 100
2, 101999, Note_on_c, 0, 68, 0
2, 102000, Note_on_c, 0, 66, 100
2, 102239, Note_on_c, 0, 66, 0
2, 102240, Note_on_c, 0, 64, 100
2, 102479, Note_on_c, 0, 64, 0
2, 102480, Note_on_c, 0, 63, 100
2, 102719, Note_on_c, 0, 63, 0
2, 102720, Note_on_c, 0, 61, 100
2, 102959, Note_on_c, 0, 61, 0
2, 102960, Note_on_c, 0, 62, 100
2, 103199, Note_on_c, 0, 62, 0
2, 103200, Note_on_c, 0, 61, 100
2, 103439, Note_on_c, 0, 61, 0
2, 103440, Note_on_c, 0, 59, 100
2, 103679, Note_on_c, 0, 59, 0
2, 103680, Note_on_c, 0, 57, 100
2, 103919, Note_on_c, 0, 57, 0
2, 103920, Note_on_c, 0, 56, 100
2, 104159, Note_on_c, 0, 56, 0
2, 104160, Note_on_c, 0, 54, 100
2, 105359, Note_on_c, 0, 54, 0
2, 105360, Note_on_c, 0, 61, 100
2, 105599, Note_on_c, 0, 61, 0
2, 105600, Note_on_c, 0, 66, 100
2, 106075, Note_on_c, 0, 66, 0
2, 106320, Note_on_c, 0, 56, 100
2, 106559, Note_on_c, 0, 56, 0
2, 106560, Note_on_c, 0, 57, 100
2, 106799, Note_on_c, 0, 57, 0
2, 106800, Note_on_c, 0, 64, 100
2, 107039, Note_on_c, 0, 64, 0
2, 107040, Note_on_c, 0, 69, 100
2, 107515, Note_on_c, 0, 69, 0
2, 107760, Note_on_c, 0, 60, 100
2, 107999, Note_on_c, 0, 60, 0
2, 108000, Note_on_c, 0, 61, 100
2, 108239, Note_on_c, 0, 61, 0
2, 108240, Note_on_c, 0, 56, 100
2, 108359, Note_on_c, 0, 56, 0
2, 108360, Note_on_c, 0, 54, 100
2, 108479, Note_on_c, 0, 54, 0
2, 108480, Note_on_c, 0, 52, 100
2, 108719, Note_on_c, 0, 52, 0
2, 108720, Note_on_c, 0, 57, 100
2, 108959, Note_on_c, 0, 57, 0
2, 108960, Note_on_c, 0, 56, 100
2, 109199, Note_on_c, 0, 56, 0
2, 109200, Note_on_c, 0, 63, 100
2, 109439, Note_on_c, 0, 63, 0
2, 109440, Note_on_c, 0, 61, 80
2, 110159, Note_on_c, 0, 61, 0
2, 110160, Note_on_c, 0, 63, 100
2, 110399, Note_on_c, 0, 63, 0
2, 110400, Note_on_c, 0, 64, 100
2, 110639, Note_on_c, 0, 64, 0
2, 110640, Note_on_c, 0, 66, 100
2, 110879, Note_on_c, 0, 66, 0
2, 110880, Note_on_c, 0, 68, 100
2, 111479, Note_on_c, 0, 68, 0
2, 111480, Note_on_c, 0, 66, 100
2, 111599, Note_on_c, 0, 66, 0
2, 111600, Note_on_c, 0, 64, 100
2, 111719, Note_on_c, 0, 64, 0
2, 111720, Note_on_c, 0, 63, 100
2, 111839, Note_on_c, 0, 63, 0
2, 111840, Note_on_c, 0, 61, 100
2, 112439, Note_on_c, 0, 61, 0
2, 112440, Note_on_c, 0, 49, 100
2, 112559, Note_on_c, 0, 49, 0
2, 112560, Note_on_c, 0, 61, 100
2, 112679, Note_on_c, 0, 61, 0
2, 112680, Note_on_c, 0, 63, 100
2, 112799, Note_on_c, 0, 63, 0
2, 112800, Note_on_c, 0, 64, 100
2, 112919, Note_on_c, 0, 64, 0
2, 112920, Note_on_c, 0, 66, 100
2, 113039, Note_on_c, 0, 66, 0
2, 113040, Note_on_c, 0, 68, 100
2, 113159, Note_on_c, 0, 68, 0
2, 113160, Note_on_c, 0, 66, 100
2, 113279, Note_on_c, 0, 66, 0
2, 113280, Note_on_c, 0, 64, 100
2, 113519, Note_on_c, 0, 64, 0
2, 113520, Note_on_c, 0, 52, 100
2, 113759, Note_on_c, 0, 52, 0
2, 113760, Note_on_c, 0, 54, 100
2, 114235, Note_on_c, 0, 54, 0
2, 114240, Note_on_c, 0, 52, 100
2, 114959, Note_on_c, 0, 52, 0
2, 114960, Note_on_c, 0, 51, 100
2, 115199, Note_on_c, 0, 51, 0
2, 115200, Note_on_c, 0, 52, 100
2, 115675, Note_on_c, 0, 52, 0
2, 115680, Note_on_c, 0, 64, 100
2, 116879, Note_on_c, 0, 64, 0
2, 116880, Note_on_c, 0, 63, 100
2, 116999, Note_on_c, 0, 63, 0
2, 117000, Note_on_c, 0, 66, 100
2, 117119, Note_on_c, 0, 66, 0
2, 117120, Note_on_c, 0, 64, 100
2, 117239, Note_on_c, 0, 64, 0
2, 117240, Note_on_c, 0, 61, 100
2, 117359, Note_on_c, 0, 61, 0
2, 117360, Note_on_c, 0, 59, 100
2, 117479, Note_on_c, 0, 59, 0
2, 117480, Note_on_c, 0, 58, 100
2, 117599, Note_on_c, 0, 58, 0
2, 117600, Note_on_c, 0, 56, 100
2, 117839, Note_on_c, 0, 56, 0
2, 117840, Note_on_c, 0, 58, 100
2, 118079, Note_on_c, 0, 58, 0
2, 118080, Note_on_c, 0, 59, 100
2, 118199, Note_on_c, 0, 59, 0
2, 118200, Note_on_c, 0, 58, 100
2, 118319, Note_on_c, 0, 58, 0
2, 118320, Note_on_c, 0, 59, 100
2, 118439, Note_on_c, 0, 59, 0
2, 118440, Note_on_c, 0, 61, 100
2, 118559, Note_on_c, 0, 61, 0
2, 118560, Note_on_c, 0, 63, 100
2, 118679, Note_on_c, 0, 63, 0
2, 118680, Note_on_c, 0, 64, 100
2, 118799, Note_on_c, 0, 64, 0
2, 118800, Note_on_c, 0, 63, 100
2, 118919, Note_on_c, 0, 63, 0
2, 118920, Note_on_c, 0, 61, 100
2, 119039, Note_on_c, 0, 61, 0
2, 119040, Note_on_c, 0, 59, 100
2, 119159, Note_on_c, 0, 59, 0
2, 119160, Note_on_c, 0, 58, 100
2, 119279, Note_on_c, 0, 58, 0
2, 119280, Note_on_c, 0, 56, 100
2, 119399, Note_on_c, 0, 56, 0
2, 119400, Note_on_c, 0, 55, 100
2, 119519, Note_on_c, 0, 55, 0
2, 119520, Note_on_c, 0, 56, 100
2, 119995, Note_on_c, 0, 56, 0
2, 126720, Note_on_c, 0, 59, 100
2, 126839, Note_on_c, 0, 59, 0
2, 126840, Note_on_c, 0, 57, 100
2, 126959, Note_on_c, 0, 57, 0
2, 126960, Note_on_c, 0, 56, 100
2, 127079, Note_on_c, 0, 56, 0
2, 127080, Note_on_c, 0, 54, 100
2, 127199, Note_on_c, 0, 54, 0
2, 127200, Note_on_c, 0, 52, 100
2, 127799, Note_on_c, 0, 52, 0
2, 127800, Note_on_c, 0, 51, 100
2, 127919, Note_on_c, 0, 51, 0
2, 127920, Note_on_c, 0, 52, 100
2, 128039, Note_on_c, 0, 52, 0
2, 128040, Note_on_c, 0, 54, 100
2, 128159, Note_on_c, 0, 54, 0
2, 128160, Note_on_c, 0, 56, 100
2, 128399, Note_on_c, 0, 56, 0
2, 128400, Note_on_c, 0, 57, 100
2, 128639, Note_on_c, 0, 57, 0
2, 128640, Note_on_c, 0, 59, 100
2, 129359, Note_on_c, 0, 59, 0
2, 129360, Note_on_c, 0, 61, 100
2, 129479, Note_on_c, 0, 61, 0
2, 129480, Note_on_c, 0, 62, 100
2, 129599, Note_on_c, 0, 62, 0
2, 129600, Note_on_c, 0, 61, 100
2, 130075, Note_on_c, 0, 61, 0
2, 130080, Note_on_c, 0, 59, 100
2, 130799, Note_on_c, 0, 59, 0
2, 130800, Note_on_c, 0, 57, 100
2, 131039, Note_on_c, 0, 57, 0
2, 131040, Note_on_c, 0, 56, 80
2, 131759, Note_on_c, 0, 56, 0
2, 131760, Note_on_c, 0, 54, 100
2, 131999, Note_on_c, 0, 54, 0
2, 132000, Note_on_c, 0, 56, 100
2, 132239, Note_on_c, 0, 56, 0
2, 132240, Note_on_c, 0, 58, 100
2, 132479, Note_on_c, 0, 58, 0
2, 132480, Note_on_c, 0, 59, 100
2, 133079, Note_on_c, 0, 59, 0
2, 133080, Note_on_c, 0, 61, 100
2, 133199, Note_on_c, 0, 61, 0
2, 133200, Note_on_c, 0, 59, 100
2, 133319, Note_on_c, 0, 59, 0
2, 133320, Note_on_c, 0, 57, 100
2, 133439, Note_on_c, 0, 57, 0
2, 133440, Note_on_c, 0, 56, 100
2, 133679, Note_on_c, 0, 56, 0
2, 133680, Note_on_c, 0, 59, 100
2, 133919, Note_on_c, 0, 59, 0
2, 133920, Note_on_c, 0, 54, 100
2, 134519, Note_on_c, 0, 54, 0
2, 134520, Note_on_c, 0, 56, 100
2, 134639, Note_on_c, 0, 56, 0
2, 134640, Note_on_c, 0, 54, 100
2, 134759, Note_on_c, 0, 54, 0
2, 134760, Note_on_c, 0, 52, 100
2, 134879, Note_on_c, 0, 52, 0
2, 134880, Note_on_c, 0, 54, 100
2, 135119, Note_on_c, 0, 54, 0
2, 135120, Note_on_c, 0, 56, 100
2, 135359, Note_on_c, 0, 56, 0
2, 135360, Note_on_c, 0, 57, 100
2, 135479, Note_on_c, 0, 57, 0
2, 135480, Note_on_c, 0, 59, 100
2, 135599, Note_on_c, 0, 59, 0
2, 135600, Note_on_c, 0, 57, 100
2, 135719, Note_on_c, 0, 57, 0
2, 135720, Note_on_c, 0, 56, 100
2, 135839, Note_on_c, 0, 56, 0
2, 135840, Note_on_c, 0, 57, 100
2, 136079, Note_on_c, 0, 57, 0
2, 136080, Note_on_c, 0, 59, 100
2, 136319, Note_on_c, 0, 59, 0
2, 136320, Note_on_c, 0, 61, 100
2, 136559, Note_on_c, 0, 61, 0
2, 136560, Note_on_c, 0, 62, 100
2, 136799, Note_on_c, 0, 62, 0
2, 136800, Note_on_c, 0, 61, 100
2, 137039, Note_on_c, 0, 61, 0
2, 137040, Note_on_c, 0, 64, 100
2, 137279, Note_on_c, 0, 64, 0
2, 137280, Note_on_c, 0, 62, 100
2, 137519, Note_on_c, 0, 62, 0
2, 137520, Note_on_c, 0, 61, 100
2, 137759, Note_on_c, 0, 61, 0
2, 137760, Note_on_c, 0, 59, 100
2, 137879, Note_on_c, 0, 59, 0
2, 137880, Note_on_c, 0, 57, 100
2, 137999, Note_on_c, 0, 57, 0
2, 138000, Note_on_c, 0, 56, 100
2, 138119, Note_on_c, 0, 56, 0
2, 138120, Note_on_c, 0, 58, 100
2, 138239, Note_on_c, 0, 58, 0
2, 138240, Note_on_c, 0, 60, 100
2, 138479, Note_on_c, 0, 60, 0
2, 138480, Note_on_c, 0, 61, 100
2, 138719, Note_on_c, 0, 61, 0
2, 138720, Note_on_c, 0, 63, 100
2, 138959, Note_on_c, 0, 63, 0
2, 138960, Note_on_c, 0, 64, 100
2, 139199, Note_on_c, 0, 64, 0
2, 139200, Note_on_c, 0, 63, 100
2, 139439, Note_on_c, 0, 63, 0
2, 139440, Note_on_c, 0, 66, 100
2, 139679, Note_on_c, 0, 66, 0
2, 139680, Note_on_c, 0, 64, 100
2, 139919, Note_on_c, 0, 64, 0
2, 139920, Note_on_c, 0, 63, 100
2, 140159, Note_on_c, 0, 63, 0
2, 140160, Note_on_c, 0, 61, 100
2, 140279, Note_on_c, 0, 61, 0
2, 140280, Note_on_c, 0, 63, 100
2, 140399, Note_on_c, 0, 63, 0
2, 140400, Note_on_c, 0, 61, 100
2, 140519, Note_on_c, 0, 61, 0
2, 140520, Note_on_c, 0, 60, 100
2, 140639, Note_on_c, 0, 60, 0
2, 140640, Note_on_c, 0, 61, 100
2, 140879, Note_on_c, 0, 61, 0
2, 140880, Note_on_c, 0, 63, 100
2, 141119, Note_on_c, 0, 63, 0
2, 141120, Note_on_c, 0, 64, 100
2, 141239, Note_on_c, 0, 64, 0
2, 141240, Note_on_c, 0, 63, 100
2, 141359, Note_on_c, 0, 63, 0
2, 141360, Note_on_c, 0, 61, 100
2, 141719, Note_on_c, 0, 61, 0
2, 141720, Note_on_c, 0, 59, 100
2, 141839, Note_on_c, 0, 59, 0
2, 141840, Note_on_c, 0, 57, 100
2, 141959, Note_on_c, 0, 57, 0
2, 141960, Note_on_c, 0, 56, 100
2, 142079, Note_on_c, 0, 56, 0
2, 142080, Note_on_c, 0, 54, 100
2, 142319, Note_on_c, 0, 54, 0
2, 142320, Note_on_c, 0, 49, 100
2, 142799, Note_on_c, 0, 49, 0
2, 142800, Note_on_c, 0, 51, 100
2, 143039, Note_on_c, 0, 51, 0
2, 143040, Note_on_c, 0, 52, 100
2, 143279, Note_on_c, 0, 52, 0
2, 143280, Note_on_c, 0, 49, 100
2, 143519, Note_on_c, 0, 49, 0
2, 143520, Note_on_c, 0, 56, 100
2, 143995, Note_on_c, 0, 56, 0
2, 144600, Note_on_c, 0, 69, 100
2, 144719, Note_on_c, 0, 69, 0
2, 144720, Note_on_c, 0, 68, 100
2, 144839, Note_on_c, 0, 68, 0
2, 144840, Note_on_c, 0, 66, 100
2, 144959, Note_on_c, 0, 66, 0
2, 144960, Note_on_c, 0, 64, 100
2, 145079, Note_on_c, 0, 64, 0
2, 145080, Note_on_c, 0, 61, 100
2, 145199, Note_on_c, 0, 61, 0
2, 145200, Note_on_c, 0, 63, 100
2, 145319, Note_on_c, 0, 63, 0
2, 145320, Note_on_c, 0, 60, 100
2, 145439, Note_on_c, 0, 60, 0
2, 145440, Note_on_c, 0, 61, 80
2, 146159, Note_on_c, 0, 61, 0
2, 146160, Note_on_c, 0, 59, 100
2, 146399, Note_on_c, 0, 59, 0
2, 146400, Note_on_c, 0, 61, 100
2, 146639, Note_on_c, 0, 61, 0
2, 146640, Note_on_c, 0, 63, 100
2, 146879, Note_on_c, 0, 63, 0
2, 146880, Note_on_c, 0, 64, 100
2, 146999, Note_on_c, 0, 64, 0
2, 147000, Note_on_c, 0, 63, 100
2, 147119, Note_on_c, 0, 63, 0
2, 147120, Note_on_c, 0, 61, 100
2, 147359, Note_on_c, 0, 61, 0
2, 147360, Note_on_c, 0, 68, 100
2, 147599, Note_on_c, 0, 68, 0
2, 148080, Note_on_c, 0, 56, 100
2, 148559, Note_on_c, 0, 56, 0
2, 148560, Note_on_c, 0, 51, 100
2, 148679, Note_on_c, 0, 51, 0
2, 148680, Note_on_c, 0, 49, 100
2, 148799, Note_on_c, 0, 49, 0
2, 148800, Note_on_c, 0, 51, 100
2, 149039, Note_on_c, 0, 51, 0
2, 149040, Note_on_c, 0, 59, 100
2, 149159, Note_on_c, 0, 59, 0
2, 149160, Note_on_c, 0, 58, 100
2, 149279, Note_on_c, 0, 58, 0
2, 149280, Note_on_c, 0, 56, 100
2, 149399, Note_on_c, 0, 56, 0
2, 149400, Note_on_c, 0, 58, 100
2, 149519, Note_on_c, 0, 58, 0
2, 149520, Note_on_c, 0, 59, 100
2, 149639, Note_on_c, 0, 59, 0
2, 149640, Note_on_c, 0, 61, 100
2, 149759, Note_on_c, 0, 61, 0
2, 149760, Note_on_c, 0, 63, 100
2, 149879, Note_on_c, 0, 63, 0
2, 149880, Note_on_c, 0, 61, 100
2, 149999, Note_on_c, 0, 61, 0
2, 150000, Note_on_c, 0, 60, 100
2, 150475, Note_on_c, 0, 60, 0
2, 150480, Note_on_c, 0, 63, 100
2, 150719, Note_on_c, 0, 63, 0
2, 150720, Note_on_c, 0, 59, 100
2, 150959, Note_on_c, 0, 59, 0
2, 150960, Note_on_c, 0, 54, 100
2, 151319, Note_on_c, 0, 54, 0
2, 151320, Note_on_c, 0, 56, 100
2, 151439, Note_on_c, 0, 56, 0
2, 151440, Note_on_c, 0, 54, 100
2, 151559, Note_on_c, 0, 54, 0
2, 151560, Note_on_c, 0, 52, 100
2, 151679, Note_on_c, 0, 52, 0
2, 151680, Note_on_c, 0, 51, 100
2, 151919, Note_on_c, 0, 51, 0
2, 151920, Note_on_c, 0, 57, 100
2, 152395, Note_on_c, 0, 57, 0
2, 152400, Note_on_c, 0, 57, 100
2, 152639, Note_on_c, 0, 57, 0
2, 152640, Note_on_c, 0, 56, 100
2, 153239, Note_on_c, 0, 56, 0
2, 153240, Note_on_c, 0, 59, 100
2, 153359, Note_on_c, 0, 59, 0
2, 153360, Note_on_c, 0, 57, 100
2, 153479, Note_on_c, 0, 57, 0
2, 153480, Note_on_c, 0, 56, 100
2, 153599, Note_on_c, 0, 56, 0
2, 153600, Note_on_c, 0, 54, 100
2, 153719, Note_on_c, 0, 54, 0
2, 153720, Note_on_c, 0, 57, 100
2, 153839, Note_on_c, 0, 57, 0
2, 153840, Note_on_c, 0, 56, 100
2, 153959, Note_on_c, 0, 56, 0
2, 153960, Note_on_c, 0, 54, 100
2, 154079, Note_on_c, 0, 54, 0
2, 154080, Note_on_c, 0, 61, 100
2, 154319, Note_on_c, 0, 61, 0
2, 154560, Note_on_c, 0, 68, 100
2, 154679, Note_on_c, 0, 68, 0
2, 154680, Note_on_c, 0, 66, 100
2, 154799, Note_on_c, 0, 66, 0
2, 154800, Note_on_c, 0, 64, 100
2, 154919, Note_on_c, 0, 64, 0
2, 154920, Note_on_c, 0, 63, 100
2, 155039, Note_on_c, 0, 63, 0
2, 155040, Note_on_c, 0, 61, 100
2, 155639, Note_on_c, 0, 61, 0
2, 155640, Note_on_c, 0, 60, 100
2, 155759, Note_on_c, 0, 60, 0
2, 155760, Note_on_c, 0, 61, 100
2, 155879, Note_on_c, 0, 61, 0
2, 155880, Note_on_c, 0, 63, 100
2, 155999, Note_on_c, 0, 63, 0
2, 156000, Note_on_c, 0, 64, 100
2, 156599, Note_on_c, 0, 64, 0
2, 156600, Note_on_c, 0, 66, 100
2, 156719, Note_on_c, 0, 66, 0
2, 156720, Note_on_c, 0, 68, 100
2, 156839, Note_on_c, 0, 68, 0
2, 156840, Note_on_c, 0, 69, 100
2, 156959, Note_on_c, 0, 69, 0
2, 156960, Note_on_c, 0, 68, 100
2, 157079, Note_on_c, 0, 68, 0
2, 157080, Note_on_c, 0, 61, 100
2, 157199, Note_on_c, 0, 61, 0
2, 157200, Note_on_c, 0, 59, 100
2, 157319, Note_on_c, 0, 59, 0
2, 157320, Note_on_c, 0, 57, 100
2, 157439, Note_on_c, 0, 57, 0
2, 157440, Note_on_c, 0, 56, 100
2, 157559, Note_on_c, 0, 56, 0
2, 157560, Note_on_c, 0, 54, 100
2, 157679, Note_on_c, 0, 54, 0
2, 157680, Note_on_c, 0, 56, 100
2, 157799, Note_on_c, 0, 56, 0
2, 157800, Note_on_c, 0, 57, 100
2, 157919, Note_on_c, 0, 57, 0
2, 157920, Note_on_c, 0, 56, 100
2, 158159, Note_on_c, 0, 56, 0
2, 158160, Note_on_c, 0, 63, 100
2, 158399, Note_on_c, 0, 63, 0
2, 158400, Note_on_c, 0, 64, 100
2, 158639, Note_on_c, 0, 64, 0
2, 158640, Note_on_c, 0, 60, 100
2, 158999, Note_on_c, 0, 60, 0
2, 159000, Note_on_c, 0, 61, 100
2, 159119, Note_on_c, 0, 61, 0
2, 159120, Note_on_c, 0, 63, 100
2, 159239, Note_on_c, 0, 63, 0
2, 159240, Note_on_c, 0, 61, 100
2, 159359, Note_on_c, 0, 61, 0
2, 159360, Note_on_c, 0, 60, 100
2, 159479, Note_on_c, 0, 60, 0
2, 159480, Note_on_c, 0, 58, 100
2, 159599, Note_on_c, 0, 58, 0
2, 159600, Note_on_c, 0, 60, 100
2, 159719, Note_on_c, 0, 60, 0
2, 159720, Note_on_c, 0, 61, 100
2, 159839, Note_on_c, 0, 61, 0
2, 159840, Note_on_c, 0, 63, 100
2, 159959, Note_on_c, 0, 63, 0
2, 159960, Note_on_c, 0, 68, 100
2, 160079, Note_on_c, 0, 68, 0
2, 160080, Note_on_c, 0, 66, 100
2, 160199, Note_on_c, 0, 66, 0
2, 160200, Note_on_c, 0, 64, 100
2, 160319, Note_on_c, 0, 64, 0
2, 160320, Note_on_c, 0, 63, 100
2, 160439, Note_on_c, 0, 63, 0
2, 160440, Note_on_c, 0, 61, 100
2, 160559, Note_on_c, 0, 61, 0
2, 160560, Note_on_c, 0, 60, 100
2, 160679, Note_on_c, 0, 60, 0
2, 160680, Note_on_c, 0, 58, 100
2, 160799, Note_on_c, 0, 58, 0
2, 160800, Note_on_c, 0, 60, 100
2, 160919, Note_on_c, 0, 60, 0
2, 160920, Note_on_c, 0, 61, 100
2, 161039, Note_on_c, 0, 61, 0
2, 161040, Note_on_c, 0, 63, 100
2, 161159, Note_on_c, 0, 63, 0
2, 161160, Note_on_c, 0, 65, 100
2, 161219, Note_on_c, 0, 65, 0
2, 161220, Note_on_c, 0, 66, 100
2, 161279, Note_on_c, 0, 66, 0
2, 161280, Note_on_c, 0, 65, 100
2, 161399, Note_on_c, 0, 65, 0
2, 161400, Note_on_c, 0, 63, 100
2, 161519, Note_on_c, 0, 63, 0
2, 161520, Note_on_c, 0, 61, 100
2, 161759, Note_on_c, 0, 61, 0
2, 161760, Note_on_c, 0, 68, 100
2, 162719, Note_on_c, 0, 68, 0
2, 162720, End_track
3, 0, Start_track
3, 0, Key_signature, 4, "major"
3, 0, Program_c, 1, 46
3, 2, Control_c, 1, 7, 100
3, 4, Control_c, 1, 10, 64
3, 6, Control_c, 1, 91, 30
3, 8, Control_c, 1, 93, 30
3, 5760, Note_on_c, 1, 56, 100
3, 6235, Note_on_c, 1, 56, 0
3, 6240, Note_on_c, 1, 61, 100
3, 7195, Note_on_c, 1, 61, 0
3, 7200, Note_on_c, 1, 59, 100
3, 7675, Note_on_c, 1, 59, 0
3, 7680, Note_on_c, 1, 56, 100
3, 8635, Note_on_c, 1, 56, 0
3, 8640, Note_on_c, 1, 55, 100
3, 9115, Note_on_c, 1, 55, 0
3, 9120, Note_on_c, 1, 56, 100
3, 9595, Note_on_c, 1, 56, 0
3, 9600, Note_on_c, 1, 58, 100
3, 10075, Note_on_c, 1, 58, 0
3, 10080, Note_on_c, 1, 59, 80
3, 10799, Note_on_c, 1, 59, 0
3, 10800, Note_on_c, 1, 61, 100
3, 11039, Note_on_c, 1, 61, 0
3, 11040, Note_on_c, 1, 59, 100
3, 11279, Note_on_c, 1, 59, 0
3, 11280, Note_on_c, 1, 57, 100
3, 11519, Note_on_c, 1, 57, 0
3, 11520, Note_on_c, 1, 56, 80
3, 12239, Note_on_c, 1, 56, 0
3, 12240, Note_on_c, 1, 57, 100
3, 12479, Note_on_c, 1, 57, 0
3, 12480, Note_on_c, 1, 56, 100
3, 12719, Note_on_c, 1, 56, 0
3, 12720, Note_on_c, 1, 54, 100
3, 12959, Note_on_c, 1, 54, 0
3, 12960, Note_on_c, 1, 52, 100
3, 13079, Note_on_c, 1, 52, 0
3, 13080, Note_on_c, 1, 54, 100
3, 13199, Note_on_c, 1, 54, 0
3, 13200, Note_on_c, 1, 52, 100
3, 13319, Note_on_c, 1, 52, 0
3, 13320, Note_on_c, 1, 51, 100
3, 13439, Note_on_c, 1, 51, 0
3, 13440, Note_on_c, 1, 49, 100
3, 13679, Note_on_c, 1, 49, 0
3, 13680, Note_on_c, 1, 56, 100
3, 13919, Note_on_c, 1, 56, 0
3, 13920, Note_on_c, 1, 58, 100
3, 14159, Note_on_c, 1, 58, 0
3, 14160, Note_on_c, 1, 60, 100
3, 14399, Note_on_c, 1, 60, 0
3, 14400, Note_on_c, 1, 61, 100
3, 14875, Note_on_c, 1, 61, 0
3, 15120, Note_on_c, 1, 63, 100
3, 15359, Note_on_c, 1, 63, 0
3, 15360, Note_on_c, 1, 64, 100
3, 15599, Note_on_c, 1, 64, 0
3, 15600, Note_on_c, 1, 66, 100
3, 15839, Note_on_c, 1, 66, 0
3, 15840, Note_on_c, 1, 68, 100
3, 16079, Note_on_c, 1, 68, 0
3, 16080, Note_on_c, 1, 66, 100
3, 16319, Note_on_c, 1, 66, 0
3, 16320, Note_on_c, 1, 64, 100
3, 16559, Note_on_c, 1, 64, 0
3, 16560, Note_on_c, 1, 63, 100
3, 16799, Note_on_c, 1, 63, 0
3, 16800, Note_on_c, 1, 61, 100
3, 17039, Note_on_c, 1, 61, 0
3, 17040, Note_on_c, 1, 60, 100
3, 17279, Note_on_c, 1, 60, 0
3, 17280, Note_on_c, 1, 61, 80
3, 17999, Note_on_c, 1, 61, 0
3, 18000, Note_on_c, 1, 60, 100
3, 18239, Note_on_c, 1, 60, 0
3, 18240, Note_on_c, 1, 61, 100
3, 18479, Note_on_c, 1, 61, 0
3, 18480, Note_on_c, 1, 63, 100
3, 18719, Note_on_c, 1, 63, 0
3, 18720, Note_on_c, 1, 56, 100
3, 18959, Note_on_c, 1, 56, 0
3, 18960, Note_on_c, 1, 54, 100
3, 19199, Note_on_c, 1, 54, 0
3, 19200, Note_on_c, 1, 52, 100
3, 19439, Note_on_c, 1, 52, 0
3, 19440, Note_on_c, 1, 51, 100
3, 19679, Note_on_c, 1, 51, 0
3, 19680, Note_on_c, 1, 49, 100
3, 19919, Note_on_c, 1, 49, 0
3, 19920, Note_on_c, 1, 51, 100
3, 20159, Note_on_c, 1, 51, 0
3, 20160, Note_on_c, 1, 52, 100
3, 20399, Note_on_c, 1, 52, 0
3, 20400, Note_on_c, 1, 54, 100
3, 20639, Note_on_c, 1, 54, 0
3, 20640, Note_on_c, 1, 56, 100
3, 20879, Note_on_c, 1, 56, 0
3, 20880, Note_on_c, 1, 55, 100
3, 21119, Note_on_c, 1, 55, 0
3, 21120, Note_on_c, 1, 56, 100
3, 21359, Note_on_c, 1, 56, 0
3, 21360, Note_on_c, 1, 58, 100
3, 21599, Note_on_c, 1, 58, 0
3, 21600, Note_on_c, 1, 59, 100
3, 21839, Note_on_c, 1, 59, 0
3, 21840, Note_on_c, 1, 61, 100
3, 22079, Note_on_c, 1, 61, 0
3, 22080, Note_on_c, 1, 63, 100
3, 23279, Note_on_c, 1, 63, 0
3, 23280, Note_on_c, 1, 56, 100
3, 23519, Note_on_c, 1, 56, 0
3, 23520, Note_on_c, 1, 51, 100
3, 23995, Note_on_c, 1, 51, 0
3, 24240, Note_on_c, 1, 61, 100
3, 24479, Note_on_c, 1, 61, 0
3, 24480, Note_on_c, 1, 59, 100
3, 24719, Note_on_c, 1, 59, 0
3, 24720, Note_on_c, 1, 52, 100
3, 24959, Note_on_c, 1, 52, 0
3, 24960, Note_on_c, 1, 47, 100
3, 25435, Note_on_c, 1, 47, 0
3, 25680, Note_on_c, 1, 57, 100
3, 25919, Note_on_c, 1, 57, 0
3, 25920, Note_on_c, 1, 56, 100
3, 26159, Note_on_c, 1, 56, 0
3, 26160, Note_on_c, 1, 61, 100
3, 26279, Note_on_c, 1, 61, 0
3, 26280, Note_on_c, 1, 63, 100
3, 26399, Note_on_c, 1, 63, 0
3, 26400, Note_on_c, 1, 64, 100
3, 26639, Note_on_c, 1, 64, 0
3, 26640, Note_on_c, 1, 60, 100
3, 26879, Note_on_c, 1, 60, 0
3, 26880, Note_on_c, 1, 61, 100
3, 27119, Note_on_c, 1, 61, 0
3, 27120, Note_on_c, 1, 54, 100
3, 27359, Note_on_c, 1, 54, 0
3, 27360, Note_on_c, 1, 56, 80
3, 28079, Note_on_c, 1, 56, 0
3, 28080, Note_on_c, 1, 54, 100
3, 28319, Note_on_c, 1, 54, 0
3, 28320, Note_on_c, 1, 52, 100
3, 28559, Note_on_c, 1, 52, 0
3, 28560, Note_on_c, 1, 51, 100
3, 28799, Note_on_c, 1, 51, 0
3, 28800, Note_on_c, 1, 49, 100
3, 29399, Note_on_c, 1, 49, 0
3, 29400, Note_on_c, 1, 51, 100
3, 29519, Note_on_c, 1, 51, 0
3, 29520, Note_on_c, 1, 52, 100
3, 29639, Note_on_c, 1, 52, 0
3, 29640, Note_on_c, 1, 54, 100
3, 29759, Note_on_c, 1, 54, 0
3, 29760, Note_on_c, 1, 56, 100
3, 30359, Note_on_c, 1, 56, 0
3, 30360, Note_on_c, 1, 68, 100
3, 30479, Note_on_c, 1, 68, 0
3, 30480, Note_on_c, 1, 56, 100
3, 30599, Note_on_c, 1, 56, 0
3, 30600, Note_on_c, 1, 54, 100
3, 30719, Note_on_c, 1, 54, 0
3, 30720, Note_on_c, 1, 52, 100
3, 30839, Note_on_c, 1, 52, 0
3, 30840, Note_on_c, 1, 51, 100
3, 30959, Note_on_c, 1, 51, 0
3, 30960, Note_on_c, 1, 49, 100
3, 31079, Note_on_c, 1, 49, 0
3, 31080, Note_on_c, 1, 51, 100
3, 31199, Note_on_c, 1, 51, 0
3, 31200, Note_on_c, 1, 52, 100
3, 31439, Note_on_c, 1, 52, 0
3, 31440, Note_on_c, 1, 64, 100
3, 31679, Note_on_c, 1, 64, 0
3, 31680, Note_on_c, 1, 63, 100
3, 32155, Note_on_c, 1, 63, 0
3, 32160, Note_on_c, 1, 64, 80
3, 32879, Note_on_c, 1, 64, 0
3, 32880, Note_on_c, 1, 66, 100
3, 33119, Note_on_c, 1, 66, 0
3, 33120, Note_on_c, 1, 64, 100
3, 33595, Note_on_c, 1, 64, 0
3, 33600, Note_on_c, 1, 52, 100
3, 34799, Note_on_c, 1, 52, 0
3, 34800, Note_on_c, 1, 54, 100
3, 34919, Note_on_c, 1, 54, 0
3, 34920, Note_on_c, 1, 51, 100
3, 35039, Note_on_c, 1, 51, 0
3, 35040, Note_on_c, 1, 53, 100
3, 35159, Note_on_c, 1, 53, 0
3, 35160, Note_on_c, 1, 56, 100
3, 35279, Note_on_c, 1, 56, 0
3, 35280, Note_on_c, 1, 57, 100
3, 35399, Note_on_c, 1, 57, 0
3, 35400, Note_on_c, 1, 59, 100
3, 35519, Note_on_c, 1, 59, 0
3, 35520, Note_on_c, 1, 61, 100
3, 35759, Note_on_c, 1, 61, 0
3, 35760, Note_on_c, 1, 59, 100
3, 35999, Note_on_c, 1, 59, 0
3, 36000, Note_on_c, 1, 57, 100
3, 36119, Note_on_c, 1, 57, 0
3, 36120, Note_on_c, 1, 59, 100
3, 36239, Note_on_c, 1, 59, 0
3, 36240, Note_on_c, 1, 57, 100
3, 36359, Note_on_c, 1, 57, 0
3, 36360, Note_on_c, 1, 56, 100
3, 36479, Note_on_c, 1, 56, 0
3, 36480, Note_on_c, 1, 54, 100
3, 36599, Note_on_c, 1, 54, 0
3, 36600, Note_on_c, 1, 53, 100
3, 36719, Note_on_c, 1, 53, 0
3, 36720, Note_on_c, 1, 54, 100
3, 36839, Note_on_c, 1, 54, 0
3, 36840, Note_on_c, 1, 56, 100
3, 36959, Note_on_c, 1, 56, 0
3, 36960, Note_on_c, 1, 57, 100
3, 37079, Note_on_c, 1, 57, 0
3, 37080, Note_on_c, 1, 59, 100
3, 37199, Note_on_c, 1, 59, 0
3, 37200, Note_on_c, 1, 61, 100
3, 37319, Note_on_c, 1, 61, 0
3, 37320, Note_on_c, 1, 63, 100
3, 37439, Note_on_c, 1, 63, 0
3, 37440, Note_on_c, 1, 61, 100
3, 37915, Note_on_c, 1, 61, 0
3, 44640, Note_on_c, 1, 57, 100
3, 44759, Note_on_c, 1, 57, 0
3, 44760, Note_on_c, 1, 59, 100
3, 44879, Note_on_c, 1, 59, 0
3, 44880, Note_on_c, 1, 61, 100
3, 44999, Note_on_c, 1, 61, 0
3, 45000, Note_on_c, 1, 62, 100
3, 45119, Note_on_c, 1, 62, 0
3, 45120, Note_on_c, 1, 64, 100
3, 45719, Note_on_c, 1, 64, 0
3, 45720, Note_on_c, 1, 66, 100
3, 45839, Note_on_c, 1, 66, 0
3, 45840, Note_on_c, 1, 64, 100
3, 45959, Note_on_c, 1, 64, 0
3, 45960, Note_on_c, 1, 62, 100
3, 46079, Note_on_c, 1, 62, 0
3, 46080, Note_on_c, 1, 61, 100
3, 46319, Note_on_c, 1, 61, 0
3, 46320, Note_on_c, 1, 59, 100
3, 46559, Note_on_c, 1, 59, 0
3, 46560, Note_on_c, 1, 57, 100
3, 47279, Note_on_c, 1, 57, 0
3, 47280, Note_on_c, 1, 56, 100
3, 47399, Note_on_c, 1, 56, 0
3, 47400, Note_on_c, 1, 54, 100
3, 47519, Note_on_c, 1, 54, 0
3, 47520, Note_on_c, 1, 56, 100
3, 47995, Note_on_c, 1, 56, 0
3, 48000, Note_on_c, 1, 57, 100
3, 48719, Note_on_c, 1, 57, 0
3, 48720, Note_on_c, 1, 59, 100
3, 48959, Note_on_c, 1, 59, 0
3, 48960, Note_on_c, 1, 61, 80
3, 49679, Note_on_c, 1, 61, 0
3, 49680, Note_on_c, 1, 62, 100
3, 49919, Note_on_c, 1, 62, 0
3, 49920, Note_on_c, 1, 61, 100
3, 50159, Note_on_c, 1, 61, 0
3, 50160, Note_on_c, 1, 59, 100
3, 50399, Note_on_c, 1, 59, 0
3, 50400, Note_on_c, 1, 57, 100
3, 50999, Note_on_c, 1, 57, 0
3, 51000, Note_on_c, 1, 56, 100
3, 51119, Note_on_c, 1, 56, 0
3, 51120, Note_on_c, 1, 57, 100
3, 51239, Note_on_c, 1, 57, 0
3, 51240, Note_on_c, 1, 59, 100
3, 51359, Note_on_c, 1, 59, 0
3, 51360, Note_on_c, 1, 61, 100
3, 51599, Note_on_c, 1, 61, 0
3, 51600, Note_on_c, 1, 57, 100
3, 51839, Note_on_c, 1, 57, 0
3, 51840, Note_on_c, 1, 62, 100
3, 52439, Note_on_c, 1, 62, 0
3, 52440, Note_on_c, 1, 61, 100
3, 52559, Note_on_c, 1, 61, 0
3, 52560, Note_on_c, 1, 62, 100
3, 52679, Note_on_c, 1, 62, 0
3, 52680, Note_on_c, 1, 64, 100
3, 52799, Note_on_c, 1, 64, 0
3, 52800, Note_on_c, 1, 62, 100
3, 53039, Note_on_c, 1, 62, 0
3, 53040, Note_on_c, 1, 61, 100
3, 53279, Note_on_c, 1, 61, 0
3, 53280, Note_on_c, 1, 59, 100
3, 53399, Note_on_c, 1, 59, 0
3, 53400, Note_on_c, 1, 57, 100
3, 53519, Note_on_c, 1, 57, 0
3, 53520, Note_on_c, 1, 59, 100
3, 53639, Note_on_c, 1, 59, 0
3, 53640, Note_on_c, 1, 61, 100
3, 53759, Note_on_c, 1, 61, 0
3, 53760, Note_on_c, 1, 59, 100
3, 53999, Note_on_c, 1, 59, 0
3, 54000, Note_on_c, 1, 57, 100
3, 54239, Note_on_c, 1, 57, 0
3, 54240, Note_on_c, 1, 56, 100
3, 54479, Note_on_c, 1, 56, 0
3, 54480, Note_on_c, 1, 54, 100
3, 54719, Note_on_c, 1, 54, 0
3, 54720, Note_on_c, 1, 56, 100
3, 54959, Note_on_c, 1, 56, 0
3, 54960, Note_on_c, 1, 52, 100
3, 55199, Note_on_c, 1, 52, 0
3, 55200, Note_on_c, 1, 54, 100
3, 55439, Note_on_c, 1, 54, 0
3, 55440, Note_on_c, 1, 56, 100
3, 55679, Note_on_c, 1, 56, 0
3, 55680, Note_on_c, 1, 57, 100
3, 55799, Note_on_c, 1, 57, 0
3, 55800, Note_on_c, 1, 59, 100
3, 55919, Note_on_c, 1, 59, 0
3, 55920, Note_on_c, 1, 61, 100
3, 56039, Note_on_c, 1, 61, 0
3, 56040, Note_on_c, 1, 59, 100
3, 56159, Note_on_c, 1, 59, 0
3, 56160, Note_on_c, 1, 57, 100
3, 56399, Note_on_c, 1, 57, 0
3, 56400, Note_on_c, 1, 56, 100
3, 56639, Note_on_c, 1, 56, 0
3, 56640, Note_on_c, 1, 54, 100
3, 56879, Note_on_c, 1, 54, 0
3, 56880, Note_on_c, 1, 53, 100
3, 57119, Note_on_c, 1, 53, 0
3, 57120, Note_on_c, 1, 54, 100
3, 57359, Note_on_c, 1, 54, 0
3, 57360, Note_on_c, 1, 51, 100
3, 57599, Note_on_c, 1, 51, 0
3, 57600, Note_on_c, 1, 52, 100
3, 57839, Note_on_c, 1, 52, 0
3, 57840, Note_on_c, 1, 54, 100
3, 58079, Note_on_c, 1, 54, 0
3, 58080, Note_on_c, 1, 56, 100
3, 58199, Note_on_c, 1, 56, 0
3, 58200, Note_on_c, 1, 54, 100
3, 58319, Note_on_c, 1, 54, 0
3, 58320, Note_on_c, 1, 56, 100
3, 58439, Note_on_c, 1, 56, 0
3, 58440, Note_on_c, 1, 57, 100
3, 58559, Note_on_c, 1, 57, 0
3, 58560, Note_on_c, 1, 56, 100
3, 58799, Note_on_c, 1, 56, 0
3, 58800, Note_on_c, 1, 54, 100
3, 59039, Note_on_c, 1, 54, 0
3, 59040, Note_on_c, 1, 52, 100
3, 59159, Note_on_c, 1, 52, 0
3, 59160, Note_on_c, 1, 54, 100
3, 59279, Note_on_c, 1, 54, 0
3, 59280, Note_on_c, 1, 56, 100
3, 59639, Note_on_c, 1, 56, 0
3, 59640, Note_on_c, 1, 58, 100
3, 59759, Note_on_c, 1, 58, 0
3, 59760, Note_on_c, 1, 60, 100
3, 59879, Note_on_c, 1, 60, 0
3, 59880, Note_on_c, 1, 61, 100
3, 59999, Note_on_c, 1, 61, 0
3, 60000, Note_on_c, 1, 63, 100
3, 60239, Note_on_c, 1, 63, 0
3, 60240, Note_on_c, 1, 68, 100
3, 60719, Note_on_c, 1, 68, 0
3, 60720, Note_on_c, 1, 66, 100
3, 60959, Note_on_c, 1, 66, 0
3, 60960, Note_on_c, 1, 64, 100
3, 61199, Note_on_c, 1, 64, 0
3, 61200, Note_on_c, 1, 68, 100
3, 61439, Note_on_c, 1, 68, 0
3, 61440, Note_on_c, 1, 61, 100
3, 61915, Note_on_c, 1, 61, 0
3, 62520, Note_on_c, 1, 48, 100
3, 62639, Note_on_c, 1, 48, 0
3, 62640, Note_on_c, 1, 49, 100
3, 62759, Note_on_c, 1, 49, 0
3, 62760, Note_on_c, 1, 51, 100
3, 62879, Note_on_c, 1, 51, 0
3, 62880, Note_on_c, 1, 52, 100
3, 62999, Note_on_c, 1, 52, 0
3, 63000, Note_on_c, 1, 56, 100
3, 63119, Note_on_c, 1, 56, 0
3, 63120, Note_on_c, 1, 54, 100
3, 63239, Note_on_c, 1, 54, 0
3, 63240, Note_on_c, 1, 57, 100
3, 63359, Note_on_c, 1, 57, 0
3, 63360, Note_on_c, 1, 56, 80
3, 64079, Note_on_c, 1, 56, 0
3, 64080, Note_on_c, 1, 57, 100
3, 64319, Note_on_c, 1, 57, 0
3, 64320, Note_on_c, 1, 56, 100
3, 64559, Note_on_c, 1, 56, 0
3, 64560, Note_on_c, 1, 54, 100
3, 64799, Note_on_c, 1, 54, 0
3, 64800, Note_on_c, 1, 52, 100
3, 64919, Note_on_c, 1, 52, 0
3, 64920, Note_on_c, 1, 54, 100
3, 65039, Note_on_c, 1, 54, 0
3, 65040, Note_on_c, 1, 56, 100
3, 65279, Note_on_c, 1, 56, 0
3, 65280, Note_on_c, 1, 49, 100
3, 65519, Note_on_c, 1, 49, 0
3, 66000, Note_on_c, 1, 61, 100
3, 66479, Note_on_c, 1, 61, 0
3, 66480, Note_on_c, 1, 66, 100
3, 66599, Note_on_c, 1, 66, 0
3, 66600, Note_on_c, 1, 65, 100
3, 66719, Note_on_c, 1, 65, 0
3, 66720, Note_on_c, 1, 66, 100
3, 66959, Note_on_c, 1, 66, 0
3, 66960, Note_on_c, 1, 57, 100
3, 67079, Note_on_c, 1, 57, 0
3, 67080, Note_on_c, 1, 59, 100
3, 67199, Note_on_c, 1, 59, 0
3, 67200, Note_on_c, 1, 61, 100
3, 67319, Note_on_c, 1, 61, 0
3, 67320, Note_on_c, 1, 59, 100
3, 67439, Note_on_c, 1, 59, 0
3, 67440, Note_on_c, 1, 57, 100
3, 67559, Note_on_c, 1, 57, 0
3, 67560, Note_on_c, 1, 56, 100
3, 67679, Note_on_c, 1, 56, 0
3, 67680, Note_on_c, 1, 54, 100
3, 67799, Note_on_c, 1, 54, 0
3, 67800, Note_on_c, 1, 56, 100
3, 67919, Note_on_c, 1, 56, 0
3, 67920, Note_on_c, 1, 57, 100
3, 68395, Note_on_c, 1, 57, 0
3, 68400, Note_on_c, 1, 58, 100
3, 68875, Note_on_c, 1, 58, 0
3, 68880, Note_on_c, 1, 63, 100
3, 69239, Note_on_c, 1, 63, 0
3, 69240, Note_on_c, 1, 61, 100
3, 69359, Note_on_c, 1, 61, 0
3, 69360, Note_on_c, 1, 63, 100
3, 69479, Note_on_c, 1, 63, 0
3, 69480, Note_on_c, 1, 64, 100
3, 69599, Note_on_c, 1, 64, 0
3, 69600, Note_on_c, 1, 66, 100
3, 69839, Note_on_c, 1, 66, 0
3, 69840, Note_on_c, 1, 60, 100
3, 70315, Note_on_c, 1, 60, 0
3, 70320, Note_on_c, 1, 60, 100
3, 70559, Note_on_c, 1, 60, 0
3, 70560, Note_on_c, 1, 61, 100
3, 71159, Note_on_c, 1, 61, 0
3, 71160, Note_on_c, 1, 58, 100
3, 71279, Note_on_c, 1, 58, 0
3, 71280, Note_on_c, 1, 60, 100
3, 71399, Note_on_c, 1, 60, 0
3, 71400, Note_on_c, 1, 61, 100
3, 71519, Note_on_c, 1, 61, 0
3, 71520, Note_on_c, 1, 63, 100
3, 71639, Note_on_c, 1, 63, 0
3, 71640, Note_on_c, 1, 60, 100
3, 71759, Note_on_c, 1, 60, 0
3, 71760, Note_on_c, 1, 61, 100
3, 71879, Note_on_c, 1, 61, 0
3, 71880, Note_on_c, 1, 63, 100
3, 71999, Note_on_c, 1, 63, 0
3, 72000, Note_on_c, 1, 56, 100
3, 72239, Note_on_c, 1, 56, 0
3, 72480, Note_on_c, 1, 49, 100
3, 72599, Note_on_c, 1, 49, 0
3, 72600, Note_on_c, 1, 51, 100
3, 72719, Note_on_c, 1, 51, 0
3, 72720, Note_on_c, 1, 52, 100
3, 72839, Note_on_c, 1, 52, 0
3, 72840, Note_on_c, 1, 54, 100
3, 72959, Note_on_c, 1, 54, 0
3, 72960, Note_on_c, 1, 56, 100
3, 73559, Note_on_c, 1, 56, 0
3, 73560, Note_on_c, 1, 57, 100
3, 73679, Note_on_c, 1, 57, 0
3, 73680, Note_on_c, 1, 56, 100
3, 73799, Note_on_c, 1, 56, 0
3, 73800, Note_on_c, 1, 54, 100
3, 73919, Note_on_c, 1, 54, 0
3, 73920, Note_on_c, 1, 52, 100
3, 74519, Note_on_c, 1, 52, 0
3, 74520, Note_on_c, 1, 51, 100
3, 74639, Note_on_c, 1, 51, 0
3, 74640, Note_on_c, 1, 49, 100
3, 74759, Note_on_c, 1, 49, 0
3, 74760, Note_on_c, 1, 48, 100
3, 74879, Note_on_c, 1, 48, 0
3, 74880, Note_on_c, 1, 49, 100
3, 74999, Note_on_c, 1, 49, 0
3, 75000, Note_on_c, 1, 56, 100
3, 75119, Note_on_c, 1, 56, 0
3, 75120, Note_on_c, 1, 58, 100
3, 75239, Note_on_c, 1, 58, 0
3, 75240, Note_on_c, 1, 60, 100
3, 75359, Note_on_c, 1, 60, 0
3, 75360, Note_on_c, 1, 61, 100
3, 75479, Note_on_c, 1, 61, 0
3, 75480, Note_on_c, 1, 63, 100
3, 75599, Note_on_c, 1, 63, 0
3, 75600, Note_on_c, 1, 61, 100
3, 75719, Note_on_c, 1, 61, 0
3, 75720, Note_on_c, 1, 60, 100
3, 75839, Note_on_c, 1, 60, 0
3, 75840, Note_on_c, 1, 61, 100
3, 76079, Note_on_c, 1, 61, 0
3, 76080, Note_on_c, 1, 54, 100
3, 76319, Note_on_c, 1, 54, 0
3, 76320, Note_on_c, 1, 52, 100
3, 76559, Note_on_c, 1, 52, 0
3, 76560, Note_on_c, 1, 57, 100
3, 76919, Note_on_c, 1, 57, 0
3, 76920, Note_on_c, 1, 56, 100
3, 77039, Note_on_c, 1, 56, 0
3, 77040, Note_on_c, 1, 54, 100
3, 77159, Note_on_c, 1, 54, 0
3, 77160, Note_on_c, 1, 56, 100
3, 77279, Note_on_c, 1, 56, 0
3, 77280, Note_on_c, 1, 57, 100
3, 77399, Note_on_c, 1, 57, 0
3, 77400, Note_on_c, 1, 59, 100
3, 77519, Note_on_c, 1, 59, 0
3, 77520, Note_on_c, 1, 57, 100
3, 77639, Note_on_c, 1, 57, 0
3, 77640, Note_on_c, 1, 56, 100
3, 77759, Note_on_c, 1, 56, 0
3, 77760, Note_on_c, 1, 54, 100
3, 77879, Note_on_c, 1, 54, 0
3, 77880, Note_on_c, 1, 49, 100
3, 77999, Note_on_c, 1, 49, 0
3, 78000, Note_on_c, 1, 51, 100
3, 78119, Note_on_c, 1, 51, 0
3, 78120, Note_on_c, 1, 53, 100
3, 78239, Note_on_c, 1, 53, 0
3, 78240, Note_on_c, 1, 54, 100
3, 78359, Note_on_c, 1, 54, 0
3, 78360, Note_on_c, 1, 56, 100
3, 78479, Note_on_c, 1, 56, 0
3, 78480, Note_on_c, 1, 57, 100
3, 78599, Note_on_c, 1, 57, 0
3, 78600, Note_on_c, 1, 59, 100
3, 78719, Note_on_c, 1, 59, 0
3, 78720, Note_on_c, 1, 57, 100
3, 78839, Note_on_c, 1, 57, 0
3, 78840, Note_on_c, 1, 56, 100
3, 78959, Note_on_c, 1, 56, 0
3, 78960, Note_on_c, 1, 54, 100
3, 79079, Note_on_c, 1, 54, 0
3, 79080, Note_on_c, 1, 53, 100
3, 79139, Note_on_c, 1, 53, 0
3, 79140, Note_on_c, 1, 51, 100
3, 79199, Note_on_c, 1, 51, 0
3, 79200, Note_on_c, 1, 53, 100
3, 79319, Note_on_c, 1, 53, 0
3, 79320, Note_on_c, 1, 54, 100
3, 79439, Note_on_c, 1, 54, 0
3, 79440, Note_on_c, 1, 56, 100
3, 79679, Note_on_c, 1, 56, 0
3, 79680, Note_on_c, 1, 49, 100
3, 80639, Note_on_c, 1, 49, 0
3, 95040, Note_on_c, 1, 56, 100
3, 95515, Note_on_c, 1, 56, 0
3, 95520, Note_on_c, 1, 49, 100
3, 96475, Note_on_c, 1, 49, 0
3, 96480, Note_on_c, 1, 52, 100
3, 96955, Note_on_c, 1, 52, 0
3, 96960, Note_on_c, 1, 56, 100
3, 97915, Note_on_c, 1, 56, 0
3, 97920, Note_on_c, 1, 57, 100
3, 98395, Note_on_c, 1, 57, 0
3, 98400, Note_on_c, 1, 56, 100
3, 98875, Note_on_c, 1, 56, 0
3, 98880, Note_on_c, 1, 54, 100
3, 99355, Note_on_c, 1, 54, 0
3, 99360, Note_on_c, 1, 52, 80
3, 100079, Note_on_c, 1, 52, 0
3, 100080, Note_on_c, 1, 51, 100
3, 100319, Note_on_c, 1, 51, 0
3, 100320, Note_on_c, 1, 52, 100
3, 100559, Note_on_c, 1, 52, 0
3, 100560, Note_on_c, 1, 54, 100
3, 100799, Note_on_c, 1, 54, 0
3, 100800, Note_on_c, 1, 56, 100
3, 101275, Note_on_c, 1, 56, 0
3, 101520, Note_on_c, 1, 54, 100
3, 101759, Note_on_c, 1, 54, 0
3, 101760, Note_on_c, 1, 52, 100
3, 101999, Note_on_c, 1, 52, 0
3, 102000, Note_on_c, 1, 51, 100
3, 102239, Note_on_c, 1, 51, 0
3, 102240, Note_on_c, 1, 49, 100
3, 102715, Note_on_c, 1, 49, 0
3, 102960, Note_on_c, 1, 47, 100
3, 103199, Note_on_c, 1, 47, 0
3, 103200, Note_on_c, 1, 45, 100
3, 103439, Note_on_c, 1, 45, 0
3, 103440, Note_on_c, 1, 44, 100
3, 103679, Note_on_c, 1, 44, 0
3, 103680, Note_on_c, 1, 42, 100
3, 103919, Note_on_c, 1, 42, 0
3, 103920, Note_on_c, 1, 44, 100
3, 104159, Note_on_c, 1, 44, 0
3, 104160, Note_on_c, 1, 45, 100
3, 104399, Note_on_c, 1, 45, 0
3, 104400, Note_on_c, 1, 47, 100
3, 104639, Note_on_c, 1, 47, 0
3, 104640, Note_on_c, 1, 49, 100
3, 104879, Note_on_c, 1, 49, 0
3, 104880, Note_on_c, 1, 50, 100
3, 105119, Note_on_c, 1, 50, 0
3, 105120, Note_on_c, 1, 49, 80
3, 105839, Note_on_c, 1, 49, 0
3, 105840, Note_on_c, 1, 48, 100
3, 106079, Note_on_c, 1, 48, 0
3, 106080, Note_on_c, 1, 49, 100
3, 106319, Note_on_c, 1, 49, 0
3, 106320, Note_on_c, 1, 51, 100
3, 106559, Note_on_c, 1, 51, 0
3, 106560, Note_on_c, 1, 49, 80
3, 107279, Note_on_c, 1, 49, 0
3, 107280, Note_on_c, 1, 51, 100
3, 107519, Note_on_c, 1, 51, 0
3, 107520, Note_on_c, 1, 52, 100
3, 107759, Note_on_c, 1, 52, 0
3, 107760, Note_on_c, 1, 54, 100
3, 107999, Note_on_c, 1, 54, 0
3, 108000, Note_on_c, 1, 56, 80
3, 108719, Note_on_c, 1, 56, 0
3, 108720, Note_on_c, 1, 54, 100
3, 108959, Note_on_c, 1, 54, 0
3, 108960, Note_on_c, 1, 56, 100
3, 109199, Note_on_c, 1, 56, 0
3, 109200, Note_on_c, 1, 57, 100
3, 109439, Note_on_c, 1, 57, 0
3, 109440, Note_on_c, 1, 56, 100
3, 109679, Note_on_c, 1, 56, 0
3, 109680, Note_on_c, 1, 54, 100
3, 109919, Note_on_c, 1, 54, 0
3, 109920, Note_on_c, 1, 52, 100
3, 110639, Note_on_c, 1, 52, 0
3, 110640, Note_on_c, 1, 51, 100
3, 110759, Note_on_c, 1, 51, 0
3, 110760, Note_on_c, 1, 54, 100
3, 110879, Note_on_c, 1, 54, 0
3, 110880, Note_on_c, 1, 52, 100
3, 111119, Note_on_c, 1, 52, 0
3, 111120, Note_on_c, 1, 49, 100
3, 111359, Note_on_c, 1, 49, 0
3, 111360, Note_on_c, 1, 56, 100
3, 111599, Note_on_c, 1, 56, 0
3, 111600, Note_on_c, 1, 61, 100
3, 111719, Note_on_c, 1, 61, 0
3, 111720, Note_on_c, 1, 59, 100
3, 111839, Note_on_c, 1, 59, 0
3, 111840, Note_on_c, 1, 57, 100
3, 112079, Note_on_c, 1, 57, 0
3, 112080, Note_on_c, 1, 56, 100
3, 112199, Note_on_c, 1, 56, 0
3, 112200, Note_on_c, 1, 54, 100
3, 112319, Note_on_c, 1, 54, 0
3, 112320, Note_on_c, 1, 56, 100
3, 112559, Note_on_c, 1, 56, 0
3, 112560, Note_on_c, 1, 57, 100
3, 112799, Note_on_c, 1, 57, 0
3, 112800, Note_on_c, 1, 56, 100
3, 112919, Note_on_c, 1, 56, 0
3, 112920, Note_on_c, 1, 54, 100
3, 113039, Note_on_c, 1, 54, 0
3, 113040, Note_on_c, 1, 52, 100
3, 113159, Note_on_c, 1, 52, 0
3, 113160, Note_on_c, 1, 51, 100
3, 113279, Note_on_c, 1, 51, 0
3, 113280, Note_on_c, 1, 49, 100
3, 114719, Note_on_c, 1, 49, 0
3, 114720, Note_on_c, 1, 48, 100
3, 115195, Note_on_c, 1, 48, 0
3, 115200, Note_on_c, 1, 49, 100
3, 115439, Note_on_c, 1, 49, 0
3, 115440, Note_on_c, 1, 56, 100
3, 115915, Note_on_c, 1, 56, 0
3, 115920, Note_on_c, 1, 54, 100
3, 116159, Note_on_c, 1, 54, 0
3, 116160, Note_on_c, 1, 56, 100
3, 116399, Note_on_c, 1, 56, 0
3, 116400, Note_on_c, 1, 58, 100
3, 116639, Note_on_c, 1, 58, 0
3, 116640, Note_on_c, 1, 59, 80
3, 116999, Note_on_c, 1, 59, 0
3, 117000, Note_on_c, 1, 58, 100
3, 117059, Note_on_c, 1, 58, 0
3, 117060, Note_on_c, 1, 59, 100
3, 117119, Note_on_c, 1, 59, 0
3, 117120, Note_on_c, 1, 61, 100
3, 117595, Note_on_c, 1, 61, 0
3, 118080, Note_on_c, 1, 51, 100
3, 118199, Note_on_c, 1, 51, 0
3, 118200, Note_on_c, 1, 49, 100
3, 118319, Note_on_c, 1, 49, 0
3, 118320, Note_on_c, 1, 47, 100
3, 118439, Note_on_c, 1, 47, 0
3, 118440, Note_on_c, 1, 46, 100
3, 118559, Note_on_c, 1, 46, 0
3, 118560, Note_on_c, 1, 44, 100
3, 119159, Note_on_c, 1, 44, 0
3, 119160, Note_on_c, 1, 43, 100
3, 119279, Note_on_c, 1, 43, 0
3, 119280, Note_on_c, 1, 44, 100
3, 119399, Note_on_c, 1, 44, 0
3, 119400, Note_on_c, 1, 46, 100
3, 119519, Note_on_c, 1, 46, 0
3, 119520, Note_on_c, 1, 47, 100
3, 119759, Note_on_c, 1, 47, 0
3, 119760, Note_on_c, 1, 49, 100
3, 119999, Note_on_c, 1, 49, 0
3, 120000, Note_on_c, 1, 51, 100
3, 120719, Note_on_c, 1, 51, 0
3, 120720, Note_on_c, 1, 52, 100
3, 120839, Note_on_c, 1, 52, 0
3, 120840, Note_on_c, 1, 54, 100
3, 120959, Note_on_c, 1, 54, 0
3, 120960, Note_on_c, 1, 52, 100
3, 121435, Note_on_c, 1, 52, 0
3, 121440, Note_on_c, 1, 51, 100
3, 122159, Note_on_c, 1, 51, 0
3, 122160, Note_on_c, 1, 49, 100
3, 122399, Note_on_c, 1, 49, 0
3, 122400, Note_on_c, 1, 47, 80
3, 123119, Note_on_c, 1, 47, 0
3, 123120, Note_on_c, 1, 46, 100
3, 123359, Note_on_c, 1, 46, 0
3, 123360, Note_on_c, 1, 47, 100
3, 123599, Note_on_c, 1, 47, 0
3, 123600, Note_on_c, 1, 49, 100
3, 123839, Note_on_c, 1, 49, 0
3, 123840, Note_on_c, 1, 51, 80
3, 124559, Note_on_c, 1, 51, 0
3, 124560, Note_on_c, 1, 49, 100
3, 124799, Note_on_c, 1, 49, 0
3, 124800, Note_on_c, 1, 51, 100
3, 125039, Note_on_c, 1, 51, 0
3, 125040, Note_on_c, 1, 53, 100
3, 125279, Note_on_c, 1, 53, 0
3, 125280, Note_on_c, 1, 54, 80
3, 125999, Note_on_c, 1, 54, 0
3, 126000, Note_on_c, 1, 51, 100
3, 126239, Note_on_c, 1, 51, 0
3, 126240, Note_on_c, 1, 52, 100
3, 126479, Note_on_c, 1, 52, 0
3, 126480, Note_on_c, 1, 54, 100
3, 126719, Note_on_c, 1, 54, 0
3, 126720, Note_on_c, 1, 56, 100
3, 127319, Note_on_c, 1, 56, 0
3, 127320, Note_on_c, 1, 54, 100
3, 127439, Note_on_c, 1, 54, 0
3, 127440, Note_on_c, 1, 52, 100
3, 127559, Note_on_c, 1, 52, 0
3, 127560, Note_on_c, 1, 54, 100
3, 127679, Note_on_c, 1, 54, 0
3, 127680, Note_on_c, 1, 56, 100
3, 127799, Note_on_c, 1, 56, 0
3, 127800, Note_on_c, 1, 54, 100
3, 127919, Note_on_c, 1, 54, 0
3, 127920, Note_on_c, 1, 56, 100
3, 128039, Note_on_c, 1, 56, 0
3, 128040, Note_on_c, 1, 57, 100
3, 128159, Note_on_c, 1, 57, 0
3, 128160, Note_on_c, 1, 59, 100
3, 128399, Note_on_c, 1, 59, 0
3, 128400, Note_on_c, 1, 61, 100
3, 128519, Note_on_c, 1, 61, 0
3, 128520, Note_on_c, 1, 63, 100
3, 128639, Note_on_c, 1, 63, 0
3, 128640, Note_on_c, 1, 64, 100
3, 129239, Note_on_c, 1, 64, 0
3, 129240, Note_on_c, 1, 62, 100
3, 129359, Note_on_c, 1, 62, 0
3, 129360, Note_on_c, 1, 61, 100
3, 129479, Note_on_c, 1, 61, 0
3, 129480, Note_on_c, 1, 59, 100
3, 129599, Note_on_c, 1, 59, 0
3, 129600, Note_on_c, 1, 57, 100
3, 130075, Note_on_c, 1, 57, 0
3, 130080, Note_on_c, 1, 56, 100
3, 130199, Note_on_c, 1, 56, 0
3, 130200, Note_on_c, 1, 54, 100
3, 130319, Note_on_c, 1, 54, 0
3, 130320, Note_on_c, 1, 56, 100
3, 130439, Note_on_c, 1, 56, 0
3, 130440, Note_on_c, 1, 57, 100
3, 130559, Note_on_c, 1, 57, 0
3, 130560, Note_on_c, 1, 59, 100
3, 131159, Note_on_c, 1, 59, 0
3, 131160, Note_on_c, 1, 57, 100
3, 131279, Note_on_c, 1, 57, 0
3, 131280, Note_on_c, 1, 56, 100
3, 131399, Note_on_c, 1, 56, 0
3, 131400, Note_on_c, 1, 54, 100
3, 131519, Note_on_c, 1, 54, 0
3, 131520, Note_on_c, 1, 56, 100
3, 131759, Note_on_c, 1, 56, 0
3, 131760, Note_on_c, 1, 58, 100
3, 131879, Note_on_c, 1, 58, 0
3, 131880, Note_on_c, 1, 59, 100
3, 131999, Note_on_c, 1, 59, 0
3, 132000, Note_on_c, 1, 61, 100
3, 132239, Note_on_c, 1, 61, 0
3, 132240, Note_on_c, 1, 49, 100
3, 132479, Note_on_c, 1, 49, 0
3, 132480, Note_on_c, 1, 51, 100
3, 132955, Note_on_c, 1, 51, 0
3, 132960, Note_on_c, 1, 52, 100
3, 133679, Note_on_c, 1, 52, 0
3, 133680, Note_on_c, 1, 51, 100
3, 133799, Note_on_c, 1, 51, 0
3, 133800, Note_on_c, 1, 49, 100
3, 133919, Note_on_c, 1, 49, 0
3, 133920, Note_on_c, 1, 51, 100
3, 134039, Note_on_c, 1, 51, 0
3, 134040, Note_on_c, 1, 52, 100
3, 134159, Note_on_c, 1, 52, 0
3, 134160, Note_on_c, 1, 54, 100
3, 134279, Note_on_c, 1, 54, 0
3, 134280, Note_on_c, 1, 52, 100
3, 134399, Note_on_c, 1, 52, 0
3, 134400, Note_on_c, 1, 51, 100
3, 134519, Note_on_c, 1, 51, 0
3, 134520, Note_on_c, 1, 52, 100
3, 134639, Note_on_c, 1, 52, 0
3, 134640, Note_on_c, 1, 51, 100
3, 134759, Note_on_c, 1, 51, 0
3, 134760, Note_on_c, 1, 49, 100
3, 134879, Note_on_c, 1, 49, 0
3, 134880, Note_on_c, 1, 51, 100
3, 135119, Note_on_c, 1, 51, 0
3, 135120, Note_on_c, 1, 53, 100
3, 135359, Note_on_c, 1, 53, 0
3, 135360, Note_on_c, 1, 54, 100
3, 135835, Note_on_c, 1, 54, 0
3, 135960, Note_on_c, 1, 61, 100
3, 136079, Note_on_c, 1, 61, 0
3, 136080, Note_on_c, 1, 62, 100
3, 136199, Note_on_c, 1, 62, 0
3, 136200, Note_on_c, 1, 59, 100
3, 136319, Note_on_c, 1, 59, 0
3, 136320, Note_on_c, 1, 57, 100
3, 136439, Note_on_c, 1, 57, 0
3, 136440, Note_on_c, 1, 56, 100
3, 136559, Note_on_c, 1, 56, 0
3, 136560, Note_on_c, 1, 54, 100
3, 136679, Note_on_c, 1, 54, 0
3, 136680, Note_on_c, 1, 56, 100
3, 136799, Note_on_c, 1, 56, 0
3, 136800, Note_on_c, 1, 57, 100
3, 137039, Note_on_c, 1, 57, 0
3, 137040, Note_on_c, 1, 61, 100
3, 137279, Note_on_c, 1, 61, 0
3, 137280, Note_on_c, 1, 59, 100
3, 137519, Note_on_c, 1, 59, 0
3, 137520, Note_on_c, 1, 57, 100
3, 137759, Note_on_c, 1, 57, 0
3, 137760, Note_on_c, 1, 56, 100
3, 137999, Note_on_c, 1, 56, 0
3, 138000, Note_on_c, 1, 52, 100
3, 138239, Note_on_c, 1, 52, 0
3, 138240, Note_on_c, 1, 51, 100
3, 138359, Note_on_c, 1, 51, 0
3, 138360, Note_on_c, 1, 49, 100
3, 138479, Note_on_c, 1, 49, 0
3, 138480, Note_on_c, 1, 48, 100
3, 138599, Note_on_c, 1, 48, 0
3, 138600, Note_on_c, 1, 46, 100
3, 138719, Note_on_c, 1, 46, 0
3, 138720, Note_on_c, 1, 48, 100
3, 138839, Note_on_c, 1, 48, 0
3, 138840, Note_on_c, 1, 44, 100
3, 138959, Note_on_c, 1, 44, 0
3, 138960, Note_on_c, 1, 49, 100
3, 139079, Note_on_c, 1, 49, 0
3, 139080, Note_on_c, 1, 46, 100
3, 139199, Note_on_c, 1, 46, 0
3, 139200, Note_on_c, 1, 48, 100
3, 139439, Note_on_c, 1, 48, 0
3, 139440, Note_on_c, 1, 51, 100
3, 139679, Note_on_c, 1, 51, 0
3, 139680, Note_on_c, 1, 49, 100
3, 139919, Note_on_c, 1, 49, 0
3, 139920, Note_on_c, 1, 48, 100
3, 140159, Note_on_c, 1, 48, 0
3, 140160, Note_on_c, 1, 49, 100
3, 140399, Note_on_c, 1, 49, 0
3, 140400, Note_on_c, 1, 52, 100
3, 140639, Note_on_c, 1, 52, 0
3, 140640, Note_on_c, 1, 57, 100
3, 140759, Note_on_c, 1, 57, 0
3, 140760, Note_on_c, 1, 56, 100
3, 140879, Note_on_c, 1, 56, 0
3, 140880, Note_on_c, 1, 54, 100
3, 140999, Note_on_c, 1, 54, 0
3, 141000, Note_on_c, 1, 57, 100
3, 141119, Note_on_c, 1, 57, 0
3, 141120, Note_on_c, 1, 56, 100
3, 141719, Note_on_c, 1, 56, 0
3, 141720, Note_on_c, 1, 52, 100
3, 141839, Note_on_c, 1, 52, 0
3, 141840, Note_on_c, 1, 54, 100
3, 141959, Note_on_c, 1, 54, 0
3, 141960, Note_on_c, 1, 56, 100
3, 142079, Note_on_c, 1, 56, 0
3, 142080, Note_on_c, 1, 57, 100
3, 142555, Note_on_c, 1, 57, 0
3, 142560, Note_on_c, 1, 56, 100
3, 143159, Note_on_c, 1, 56, 0
3, 143160, Note_on_c, 1, 54, 100
3, 143279, Note_on_c, 1, 54, 0
3, 143280, Note_on_c, 1, 52, 100
3, 143399, Note_on_c, 1, 52, 0
3, 143400, Note_on_c, 1, 51, 100
3, 143519, Note_on_c, 1, 51, 0
3, 143520, Note_on_c, 1, 49, 100
3, 144239, Note_on_c, 1, 49, 0
3, 144240, Note_on_c, 1, 54, 100
3, 144479, Note_on_c, 1, 54, 0
3, 144480, Note_on_c, 1, 52, 100
3, 144719, Note_on_c, 1, 52, 0
3, 144720, Note_on_c, 1, 49, 100
3, 144959, Note_on_c, 1, 49, 0
3, 144960, Note_on_c, 1, 48, 80
3, 145319, Note_on_c, 1, 48, 0
3, 145320, Note_on_c, 1, 49, 100
3, 145379, Note_on_c, 1, 49, 0
3, 145380, Note_on_c, 1, 51, 100
3, 145439, Note_on_c, 1, 51, 0
3, 145440, Note_on_c, 1, 52, 100
3, 145559, Note_on_c, 1, 52, 0
3, 145560, Note_on_c, 1, 54, 100
3, 145679, Note_on_c, 1, 54, 0
3, 145680, Note_on_c, 1, 52, 100
3, 145799, Note_on_c, 1, 52, 0
3, 145800, Note_on_c, 1, 51, 100
3, 145919, Note_on_c, 1, 51, 0
3, 145920, Note_on_c, 1, 52, 100
3, 146039, Note_on_c, 1, 52, 0
3, 146040, Note_on_c, 1, 54, 100
3, 146159, Note_on_c, 1, 54, 0
3, 146160, Note_on_c, 1, 56, 100
3, 146635, Note_on_c, 1, 56, 0
3, 146640, Note_on_c, 1, 57, 100
3, 146879, Note_on_c, 1, 57, 0
3, 146880, Note_on_c, 1, 56, 100
3, 147119, Note_on_c, 1, 56, 0
3, 147120, Note_on_c, 1, 61, 100
3, 147359, Note_on_c, 1, 61, 0
3, 147360, Note_on_c, 1, 56, 100
3, 147479, Note_on_c, 1, 56, 0
3, 147480, Note_on_c, 1, 54, 100
3, 147599, Note_on_c, 1, 54, 0
3, 147600, Note_on_c, 1, 52, 100
3, 147959, Note_on_c, 1, 52, 0
3, 147960, Note_on_c, 1, 51, 100
3, 148079, Note_on_c, 1, 51, 0
3, 148080, Note_on_c, 1, 49, 100
3, 148199, Note_on_c, 1, 49, 0
3, 148200, Note_on_c, 1, 52, 100
3, 148319, Note_on_c, 1, 52, 0
3, 148320, Note_on_c, 1, 56, 100
3, 148795, Note_on_c, 1, 56, 0
3, 149520, Note_on_c, 1, 56, 100
3, 149759, Note_on_c, 1, 56, 0
3, 149760, Note_on_c, 1, 54, 100
3, 149999, Note_on_c, 1, 54, 0
3, 150000, Note_on_c, 1, 57, 100
3, 150239, Note_on_c, 1, 57, 0
3, 150240, Note_on_c, 1, 54, 100
3, 150479, Note_on_c, 1, 54, 0
3, 150480, Note_on_c, 1, 51, 100
3, 150839, Note_on_c, 1, 51, 0
3, 150840, Note_on_c, 1, 49, 100
3, 150959, Note_on_c, 1, 49, 0
3, 150960, Note_on_c, 1, 51, 100
3, 151079, Note_on_c, 1, 51, 0
3, 151080, Note_on_c, 1, 53, 100
3, 151199, Note_on_c, 1, 53, 0
3, 151200, Note_on_c, 1, 54, 100
3, 151439, Note_on_c, 1, 54, 0
3, 151440, Note_on_c, 1, 49, 100
3, 151679, Note_on_c, 1, 49, 0
3, 152640, Note_on_c, 1, 56, 100
3, 152759, Note_on_c, 1, 56, 0
3, 152760, Note_on_c, 1, 54, 100
3, 152879, Note_on_c, 1, 54, 0
3, 152880, Note_on_c, 1, 52, 100
3, 152999, Note_on_c, 1, 52, 0
3, 153000, Note_on_c, 1, 51, 100
3, 153119, Note_on_c, 1, 51, 0
3, 153120, Note_on_c, 1, 49, 100
3, 153839, Note_on_c, 1, 49, 0
3, 153840, Note_on_c, 1, 51, 100
3, 154079, Note_on_c, 1, 51, 0
3, 154080, Note_on_c, 1, 52, 100
3, 154319, Note_on_c, 1, 52, 0
3, 154320, Note_on_c, 1, 54, 100
3, 154559, Note_on_c, 1, 54, 0
3, 154560, Note_on_c, 1, 56, 100
3, 155279, Note_on_c, 1, 56, 0
3, 155280, Note_on_c, 1, 57, 100
3, 155399, Note_on_c, 1, 57, 0
3, 155400, Note_on_c, 1, 59, 100
3, 155519, Note_on_c, 1, 59, 0
3, 155520, Note_on_c, 1, 57, 100
3, 155995, Note_on_c, 1, 57, 0
3, 156000, Note_on_c, 1, 56, 100
3, 156719, Note_on_c, 1, 56, 0
3, 156720, Note_on_c, 1, 54, 100
3, 156959, Note_on_c, 1, 54, 0
3, 156960, Note_on_c, 1, 52, 100
3, 157199, Note_on_c, 1, 52, 0
3, 157200, Note_on_c, 1, 54, 100
3, 157439, Note_on_c, 1, 54, 0
3, 157440, Note_on_c, 1, 52, 100
3, 157679, Note_on_c, 1, 52, 0
3, 157680, Note_on_c, 1, 51, 100
3, 157919, Note_on_c, 1, 51, 0
3, 157920, Note_on_c, 1, 52, 100
3, 158159, Note_on_c, 1, 52, 0
3, 158160, Note_on_c, 1, 54, 100
3, 158399, Note_on_c, 1, 54, 0
3, 158400, Note_on_c, 1, 56, 100
3, 158639, Note_on_c, 1, 56, 0
3, 158880, Note_on_c, 1, 54, 100
3, 159119, Note_on_c, 1, 54, 0
3, 159480, Note_on_c, 1, 52, 100
3, 159599, Note_on_c, 1, 52, 0
3, 159600, Note_on_c, 1, 51, 100
3, 159719, Note_on_c, 1, 51, 0
3, 159720, Note_on_c, 1, 49, 100
3, 159839, Note_on_c, 1, 49, 0
3, 159840, Note_on_c, 1, 48, 100
3, 160079, Note_on_c, 1, 48, 0
3, 160080, Note_on_c, 1, 49, 100
3, 160319, Note_on_c, 1, 49, 0
3, 160320, Note_on_c, 1, 51, 100
3, 160559, Note_on_c, 1, 51, 0
3, 160560, Note_on_c, 1, 52, 100
3, 160799, Note_on_c, 1, 52, 0
3, 160800, Note_on_c, 1, 54, 100
3, 161275, Note_on_c, 1, 54, 0
3, 161400, Note_on_c, 1, 54, 100
3, 161519, Note_on_c, 1, 54, 0
3, 161520, Note_on_c, 1, 53, 100
3, 161639, Note_on_c, 1, 53, 0
3, 161640, Note_on_c, 1, 51, 100
3, 161759, Note_on_c, 1, 51, 0
3, 161760, Note_on_c, 1, 53, 100
3, 162719, Note_on_c, 1, 53, 0
3, 162720, End_track
4, 0, Start_track
4, 0, Key_signature, 4, "major"
4, 0, Note_on_c, 1, 49, 100
4, 475, Note_on_c, 1, 49, 0
4, 480, Note_on_c, 1, 56, 100
4, 1435, Note_on_c, 1, 56, 0
4, 1440, Note_on_c, 1, 52, 100
4, 1915, Note_on_c, 1, 52, 0
4, 1920, Note_on_c, 1, 49, 100
4, 2875, Note_on_c, 1, 49, 0
4, 2880, Note_on_c, 1, 48, 100
4, 3355, Note_on_c, 1, 48, 0
4, 3360, Note_on_c, 1, 49, 100
4, 3835, Note_on_c, 1, 49, 0
4, 3840, Note_on_c, 1, 51, 100
4, 4315, Note_on_c, 1, 51, 0
4, 4320, Note_on_c, 1, 52, 80
4, 5039, Note_on_c, 1, 52, 0
4, 5040, Note_on_c, 1, 54, 100
4, 5279, Note_on_c, 1, 54, 0
4, 5280, Note_on_c, 1, 52, 100
4, 5519, Note_on_c, 1, 52, 0
4, 5520, Note_on_c, 1, 51, 100
4, 5759, Note_on_c, 1, 51, 0
4, 5760, Note_on_c, 1, 49, 100
4, 6235, Note_on_c, 1, 49, 0
4, 6480, Note_on_c, 1, 51, 100
4, 6719, Note_on_c, 1, 51, 0
4, 6720, Note_on_c, 1, 52, 100
4, 6959, Note_on_c, 1, 52, 0
4, 6960, Note_on_c, 1, 54, 100
4, 7199, Note_on_c, 1, 54, 0
4, 7200, Note_on_c, 1, 56, 100
4, 7675, Note_on_c, 1, 56, 0
4, 7920, Note_on_c, 1, 58, 100
4, 8159, Note_on_c, 1, 58, 0
4, 8160, Note_on_c, 1, 59, 100
4, 8399, Note_on_c, 1, 59, 0
4, 8400, Note_on_c, 1, 61, 100
4, 8639, Note_on_c, 1, 61, 0
4, 8640, Note_on_c, 1, 63, 100
4, 8879, Note_on_c, 1, 63, 0
4, 8880, Note_on_c, 1, 61, 100
4, 9119, Note_on_c, 1, 61, 0
4, 9120, Note_on_c, 1, 59, 100
4, 9359, Note_on_c, 1, 59, 0
4, 9360, Note_on_c, 1, 58, 100
4, 9599, Note_on_c, 1, 58, 0
4, 9600, Note_on_c, 1, 56, 100
4, 9839, Note_on_c, 1, 56, 0
4, 9840, Note_on_c, 1, 55, 100
4, 10079, Note_on_c, 1, 55, 0
4, 10080, Note_on_c, 1, 56, 100
4, 10319, Note_on_c, 1, 56, 0
4, 10320, Note_on_c, 1, 54, 100
4, 10439, Note_on_c, 1, 54, 0
4, 10440, Note_on_c, 1, 52, 100
4, 10559, Note_on_c, 1, 52, 0
4, 10560, Note_on_c, 1, 52, 100
4, 10600, Note_on_c, 1, 52, 0
4, 10640, Note_on_c, 1, 51, 100
4, 10680, Note_on_c, 1, 52, 100
4, 10699, Note_on_c, 1, 51, 0
4, 10720, Note_on_c, 1, 52, 0
4, 10760, Note_on_c, 1, 51, 100
4, 10800, Note_on_c, 1, 52, 100
4, 10819, Note_on_c, 1, 51, 0
4, 10840, Note_on_c, 1, 52, 0
4, 10880, Note_on_c, 1, 51, 100
4, 10920, Note_on_c, 1, 52, 100
4, 10939, Note_on_c, 1, 51, 0
4, 10960, Note_on_c, 1, 52, 0
4, 11000, Note_on_c, 1, 51, 100
4, 11040, Note_on_c, 1, 52, 100
4, 11059, Note_on_c, 1, 51, 0
4, 11080, Note_on_c, 1, 52, 0
4, 11120, Note_on_c, 1, 51, 100
4, 11160, Note_on_c, 1, 52, 100
4, 11179, Note_on_c, 1, 51, 0
4, 11200, Note_on_c, 1, 52, 0
4, 11240, Note_on_c, 1, 51, 100
4, 11280, Note_on_c, 1, 49, 80
4, 11299, Note_on_c, 1, 51, 0
4, 11399, Note_on_c, 1, 49, 0
4, 11400, Note_on_c, 1, 51, 80
4, 11519, Note_on_c, 1, 51, 0
4, 11520, Note_on_c, 1, 52, 100
4, 11759, Note_on_c, 1, 52, 0
4, 11760, Note_on_c, 1, 51, 100
4, 11879, Note_on_c, 1, 51, 0
4, 11880, Note_on_c, 1, 49, 100
4, 11999, Note_on_c, 1, 49, 0
4, 12000, Note_on_c, 1, 49, 100
4, 12040, Note_on_c, 1, 49, 0
4, 12080, Note_on_c, 1, 48, 100
4, 12120, Note_on_c, 1, 49, 100
4, 12139, Note_on_c, 1, 48, 0
4, 12160, Note_on_c, 1, 48, 100
4, 12160, Note_on_c, 1, 49, 0
4, 12180, Note_on_c, 1, 48, 0
4, 12240, Note_on_c, 1, 49, 100
4, 12280, Note_on_c, 1, 49, 0
4, 12320, Note_on_c, 1, 48, 100
4, 12360, Note_on_c, 1, 49, 100
4, 12379, Note_on_c, 1, 48, 0
4, 12400, Note_on_c, 1, 48, 100
4, 12400, Note_on_c, 1, 49, 0
4, 12420, Note_on_c, 1, 48, 0
4, 12480, Note_on_c, 1, 49, 100
4, 12520, Note_on_c, 1, 49, 0
4, 12560, Note_on_c, 1, 48, 100
4, 12600, Note_on_c, 1, 49, 100
4, 12619, Note_on_c, 1, 48, 0
4, 12640, Note_on_c, 1, 48, 100
4, 12640, Note_on_c, 1, 49, 0
4, 12660, Note_on_c, 1, 48, 0
4, 12720, Note_on_c, 1, 45, 100
4, 12760, Note_on_c, 1, 45, 0
4, 12800, Note_on_c, 1, 48, 100
4, 12840, Note_on_c, 1, 46, 100
4, 12859, Note_on_c, 1, 48, 0
4, 12880, Note_on_c, 1, 48, 100
4, 12880, Note_on_c, 1, 46, 0
4, 12900, Note_on_c, 1, 48, 0
4, 12960, Note_on_c, 1, 49, 100
4, 13435, Note_on_c, 1, 49, 0
4, 13680, Note_on_c, 1, 40, 100
4, 13919, Note_on_c, 1, 40, 0
4, 13920, Note_on_c, 1, 42, 100
4, 14159, Note_on_c, 1, 42, 0
4, 14160, Note_on_c, 1, 44, 100
4, 14399, Note_on_c, 1, 44, 0
4, 14400, Note_on_c, 1, 45, 100
4, 14639, Note_on_c, 1, 45, 0
4, 14640, Note_on_c, 1, 44, 100
4, 14879, Note_on_c, 1, 44, 0
4, 14880, Note_on_c, 1, 47, 100
4, 14920, Note_on_c, 1, 47, 0
4, 14960, Note_on_c, 1, 45, 100
4, 15000, Note_on_c, 1, 47, 100
4, 15019, Note_on_c, 1, 45, 0
4, 15040, Note_on_c, 1, 47, 0
4, 15080, Note_on_c, 1, 45, 100
4, 15120, Note_on_c, 1, 47, 100
4, 15139, Note_on_c, 1, 45, 0
4, 15160, Note_on_c, 1, 47, 0
4, 15200, Note_on_c, 1, 45, 100
4, 15240, Note_on_c, 1, 47, 100
4, 15259, Note_on_c, 1, 45, 0
4, 15280, Note_on_c, 1, 47, 0
4, 15320, Note_on_c, 1, 45, 100
4, 15360, Note_on_c, 1, 47, 100
4, 15379, Note_on_c, 1, 45, 0
4, 15400, Note_on_c, 1, 47, 0
4, 15440, Note_on_c, 1, 45, 100
4, 15480, Note_on_c, 1, 47, 100
4, 15499, Note_on_c, 1, 45, 0
4, 15520, Note_on_c, 1, 47, 0
4, 15560, Note_on_c, 1, 45, 100
4, 15600, Note_on_c, 1, 47, 100
4, 15619, Note_on_c, 1, 45, 0
4, 15640, Note_on_c, 1, 47, 0
4, 15680, Note_on_c, 1, 45, 100
4, 15720, Note_on_c, 1, 47, 100
4, 15739, Note_on_c, 1, 45, 0
4, 15760, Note_on_c, 1, 47, 0
4, 15800, Note_on_c, 1, 45, 100
4, 15840, Note_on_c, 1, 44, 80
4, 15859, Note_on_c, 1, 45, 0
4, 17399, Note_on_c, 1, 44, 0
4, 17400, Note_on_c, 1, 42, 100
4, 17519, Note_on_c, 1, 42, 0
4, 17520, Note_on_c, 1, 40, 100
4, 17639, Note_on_c, 1, 40, 0
4, 17640, Note_on_c, 1, 42, 100
4, 17759, Note_on_c, 1, 42, 0
4, 17760, Note_on_c, 1, 44, 100
4, 17999, Note_on_c, 1, 44, 0
4, 18000, Note_on_c, 1, 45, 100
4, 18239, Note_on_c, 1, 45, 0
4, 18240, Note_on_c, 1, 44, 100
4, 18479, Note_on_c, 1, 44, 0
4, 18480, Note_on_c, 1, 42, 100
4, 18719, Note_on_c, 1, 42, 0
4, 18720, Note_on_c, 1, 40, 100
4, 18959, Note_on_c, 1, 40, 0
4, 18960, Note_on_c, 1, 39, 100
4, 19199, Note_on_c, 1, 39, 0
4, 19200, Note_on_c, 1, 37, 100
4, 19675, Note_on_c, 1, 37, 0
4, 19920, Note_on_c, 1, 45, 100
4, 20159, Note_on_c, 1, 45, 0
4, 20160, Note_on_c, 1, 44, 100
4, 20279, Note_on_c, 1, 44, 0
4, 20280, Note_on_c, 1, 42, 100
4, 20399, Note_on_c, 1, 42, 0
4, 20400, Note_on_c, 1, 40, 100
4, 20519, Note_on_c, 1, 40, 0
4, 20520, Note_on_c, 1, 39, 100
4, 20639, Note_on_c, 1, 39, 0
4, 20640, Note_on_c, 1, 40, 100
4, 21115, Note_on_c, 1, 40, 0
4, 21360, Note_on_c, 1, 52, 100
4, 21599, Note_on_c, 1, 52, 0
4, 21600, Note_on_c, 1, 51, 100
4, 21719, Note_on_c, 1, 51, 0
4, 21720, Note_on_c, 1, 49, 100
4, 21839, Note_on_c, 1, 49, 0
4, 21840, Note_on_c, 1, 47, 100
4, 21959, Note_on_c, 1, 47, 0
4, 21960, Note_on_c, 1, 46, 100
4, 22079, Note_on_c, 1, 46, 0
4, 22080, Note_on_c, 1, 47, 100
4, 22555, Note_on_c, 1, 47, 0
4, 22800, Note_on_c, 1, 51, 100
4, 23039, Note_on_c, 1, 51, 0
4, 23040, Note_on_c, 1, 44, 100
4, 23159, Note_on_c, 1, 44, 0
4, 23160, Note_on_c, 1, 46, 100
4, 23279, Note_on_c, 1, 46, 0
4, 23280, Note_on_c, 1, 47, 100
4, 23399, Note_on_c, 1, 47, 0
4, 23400, Note_on_c, 1, 49, 100
4, 23519, Note_on_c, 1, 49, 0
4, 23520, Note_on_c, 1, 51, 100
4, 23995, Note_on_c, 1, 51, 0
4, 24000, Note_on_c, 1, 39, 100
4, 24475, Note_on_c, 1, 39, 0
4, 24480, Note_on_c, 1, 40, 100
4, 24599, Note_on_c, 1, 40, 0
4, 24600, Note_on_c, 1, 42, 100
4, 24719, Note_on_c, 1, 42, 0
4, 24720, Note_on_c, 1, 44, 100
4, 24839, Note_on_c, 1, 44, 0
4, 24840, Note_on_c, 1, 45, 100
4, 24959, Note_on_c, 1, 45, 0
4, 24960, Note_on_c, 1, 47, 100
4, 25435, Note_on_c, 1, 47, 0
4, 25440, Note_on_c, 1, 35, 100
4, 25915, Note_on_c, 1, 35, 0
4, 25920, Note_on_c, 1, 37, 100
4, 26039, Note_on_c, 1, 37, 0
4, 26040, Note_on_c, 1, 39, 100
4, 26159, Note_on_c, 1, 39, 0
4, 26160, Note_on_c, 1, 40, 100
4, 26279, Note_on_c, 1, 40, 0
4, 26280, Note_on_c, 1, 42, 100
4, 26399, Note_on_c, 1, 42, 0
4, 26400, Note_on_c, 1, 44, 100
4, 26875, Note_on_c, 1, 44, 0
4, 27120, Note_on_c, 1, 45, 100
4, 27359, Note_on_c, 1, 45, 0
4, 27360, Note_on_c, 1, 44, 100
4, 27599, Note_on_c, 1, 44, 0
4, 27600, Note_on_c, 1, 42, 100
4, 27839, Note_on_c, 1, 42, 0
4, 27840, Note_on_c, 1, 40, 100
4, 28079, Note_on_c, 1, 40, 0
4, 28080, Note_on_c, 1, 39, 100
4, 28319, Note_on_c, 1, 39, 0
4, 28320, Note_on_c, 1, 37, 100
4, 28795, Note_on_c, 1, 37, 0
4, 31200, Note_on_c, 1, 49, 100
4, 31319, Note_on_c, 1, 49, 0
4, 31320, Note_on_c, 1, 51, 100
4, 31439, Note_on_c, 1, 51, 0
4, 31440, Note_on_c, 1, 52, 100
4, 31559, Note_on_c, 1, 52, 0
4, 31560, Note_on_c, 1, 54, 100
4, 31679, Note_on_c, 1, 54, 0
4, 31680, Note_on_c, 1, 56, 100
4, 31799, Note_on_c, 1, 56, 0
4, 31800, Note_on_c, 1, 57, 100
4, 31919, Note_on_c, 1, 57, 0
4, 31920, Note_on_c, 1, 56, 100
4, 32039, Note_on_c, 1, 56, 0
4, 32040, Note_on_c, 1, 54, 100
4, 32159, Note_on_c, 1, 54, 0
4, 32160, Note_on_c, 1, 52, 100
4, 32399, Note_on_c, 1, 52, 0
4, 32400, Note_on_c, 1, 51, 100
4, 32639, Note_on_c, 1, 51, 0
4, 32640, Note_on_c, 1, 49, 100
4, 32879, Note_on_c, 1, 49, 0
4, 32880, Note_on_c, 1, 48, 100
4, 33119, Note_on_c, 1, 48, 0
4, 33120, Note_on_c, 1, 49, 100
4, 33359, Note_on_c, 1, 49, 0
4, 33360, Note_on_c, 1, 47, 100
4, 33479, Note_on_c, 1, 47, 0
4, 33480, Note_on_c, 1, 45, 100
4, 33599, Note_on_c, 1, 45, 0
4, 33600, Note_on_c, 1, 44, 80
4, 34319, Note_on_c, 1, 44, 0
4, 34320, Note_on_c, 1, 42, 80
4, 34439, Note_on_c, 1, 42, 0
4, 34440, Note_on_c, 1, 44, 100
4, 34559, Note_on_c, 1, 44, 0
4, 34560, Note_on_c, 1, 45, 100
4, 34799, Note_on_c, 1, 45, 0
4, 34800, Note_on_c, 1, 42, 100
4, 35039, Note_on_c, 1, 42, 0
4, 35040, Note_on_c, 1, 49, 100
4, 35515, Note_on_c, 1, 49, 0
4, 35640, Note_on_c, 1, 45, 100
4, 35759, Note_on_c, 1, 45, 0
4, 35760, Note_on_c, 1, 47, 100
4, 35879, Note_on_c, 1, 47, 0
4, 35880, Note_on_c, 1, 49, 100
4, 35999, Note_on_c, 1, 49, 0
4, 36000, Note_on_c, 1, 51, 100
4, 36239, Note_on_c, 1, 51, 0
4, 36240, Note_on_c, 1, 49, 100
4, 36359, Note_on_c, 1, 49, 0
4, 36360, Note_on_c, 1, 47, 100
4, 36479, Note_on_c, 1, 47, 0
4, 36480, Note_on_c, 1, 45, 100
4, 36719, Note_on_c, 1, 45, 0
4, 36720, Note_on_c, 1, 44, 100
4, 36959, Note_on_c, 1, 44, 0
4, 36960, Note_on_c, 1, 42, 100
4, 37199, Note_on_c, 1, 42, 0
4, 37200, Note_on_c, 1, 41, 100
4, 37439, Note_on_c, 1, 41, 0
4, 37440, Note_on_c, 1, 42, 100
4, 37679, Note_on_c, 1, 42, 0
4, 37680, Note_on_c, 1, 44, 100
4, 37919, Note_on_c, 1, 44, 0
4, 37920, Note_on_c, 1, 45, 100
4, 38159, Note_on_c, 1, 45, 0
4, 38160, Note_on_c, 1, 44, 100
4, 38399, Note_on_c, 1, 44, 0
4, 38400, Note_on_c, 1, 45, 100
4, 38639, Note_on_c, 1, 45, 0
4, 38640, Note_on_c, 1, 47, 100
4, 38879, Note_on_c, 1, 47, 0
4, 38880, Note_on_c, 1, 49, 100
4, 39355, Note_on_c, 1, 49, 0
4, 39360, Note_on_c, 1, 50, 100
4, 39835, Note_on_c, 1, 50, 0
4, 39960, Note_on_c, 1, 50, 100
4, 40079, Note_on_c, 1, 50, 0
4, 40080, Note_on_c, 1, 49, 100
4, 40199, Note_on_c, 1, 49, 0
4, 40200, Note_on_c, 1, 47, 100
4, 40319, Note_on_c, 1, 47, 0
4, 40320, Note_on_c, 1, 45, 100
4, 40439, Note_on_c, 1, 45, 0
4, 40440, Note_on_c, 1, 44, 100
4, 40559, Note_on_c, 1, 44, 0
4, 40560, Note_on_c, 1, 42, 100
4, 40679, Note_on_c, 1, 42, 0
4, 40680, Note_on_c, 1, 41, 100
4, 40799, Note_on_c, 1, 41, 0
4, 40800, Note_on_c, 1, 42, 100
4, 40919, Note_on_c, 1, 42, 0
4, 40920, Note_on_c, 1, 37, 100
4, 41039, Note_on_c, 1, 37, 0
4, 41040, Note_on_c, 1, 39, 100
4, 41159, Note_on_c, 1, 39, 0
4, 41160, Note_on_c, 1, 41, 100
4, 41279, Note_on_c, 1, 41, 0
4, 41280, Note_on_c, 1, 42, 100
4, 41399, Note_on_c, 1, 42, 0
4, 41400, Note_on_c, 1, 44, 100
4, 41519, Note_on_c, 1, 44, 0
4, 41520, Note_on_c, 1, 45, 100
4, 41639, Note_on_c, 1, 45, 0
4, 41640, Note_on_c, 1, 47, 100
4, 41759, Note_on_c, 1, 47, 0
4, 41760, Note_on_c, 1, 45, 100
4, 41879, Note_on_c, 1, 45, 0
4, 41880, Note_on_c, 1, 44, 100
4, 41999, Note_on_c, 1, 44, 0
4, 42000, Note_on_c, 1, 42, 100
4, 42119, Note_on_c, 1, 42, 0
4, 42120, Note_on_c, 1, 44, 100
4, 42239, Note_on_c, 1, 44, 0
4, 42240, Note_on_c, 1, 45, 100
4, 42715, Note_on_c, 1, 45, 0
4, 42960, Note_on_c, 1, 46, 100
4, 43199, Note_on_c, 1, 46, 0
4, 43200, Note_on_c, 1, 47, 100
4, 43319, Note_on_c, 1, 47, 0
4, 43320, Note_on_c, 1, 49, 100
4, 43439, Note_on_c, 1, 49, 0
4, 43440, Note_on_c, 1, 50, 100
4, 43559, Note_on_c, 1, 50, 0
4, 43560, Note_on_c, 1, 47, 100
4, 43679, Note_on_c, 1, 47, 0
4, 43680, Note_on_c, 1, 44, 100
4, 44155, Note_on_c, 1, 44, 0
4, 44280, Note_on_c, 1, 49, 100
4, 44399, Note_on_c, 1, 49, 0
4, 44400, Note_on_c, 1, 50, 100
4, 44519, Note_on_c, 1, 50, 0
4, 44520, Note_on_c, 1, 52, 100
4, 44639, Note_on_c, 1, 52, 0
4, 44640, Note_on_c, 1, 54, 100
4, 44879, Note_on_c, 1, 54, 0
4, 44880, Note_on_c, 1, 52, 100
4, 44999, Note_on_c, 1, 52, 0
4, 45000, Note_on_c, 1, 50, 100
4, 45119, Note_on_c, 1, 50, 0
4, 45120, Note_on_c, 1, 49, 100
4, 45359, Note_on_c, 1, 49, 0
4, 45360, Note_on_c, 1, 47, 100
4, 45599, Note_on_c, 1, 47, 0
4, 45600, Note_on_c, 1, 45, 100
4, 45839, Note_on_c, 1, 45, 0
4, 45840, Note_on_c, 1, 44, 100
4, 46079, Note_on_c, 1, 44, 0
4, 46080, Note_on_c, 1, 45, 100
4, 46319, Note_on_c, 1, 45, 0
4, 46320, Note_on_c, 1, 47, 100
4, 46559, Note_on_c, 1, 47, 0
4, 46560, Note_on_c, 1, 49, 100
4, 46799, Note_on_c, 1, 49, 0
4, 46800, Note_on_c, 1, 50, 100
4, 47039, Note_on_c, 1, 50, 0
4, 47040, Note_on_c, 1, 52, 100
4, 47639, Note_on_c, 1, 52, 0
4, 47640, Note_on_c, 1, 54, 100
4, 47759, Note_on_c, 1, 54, 0
4, 47760, Note_on_c, 1, 52, 100
4, 47879, Note_on_c, 1, 52, 0
4, 47880, Note_on_c, 1, 50, 100
4, 47999, Note_on_c, 1, 50, 0
4, 48000, Note_on_c, 1, 49, 100
4, 48599, Note_on_c, 1, 49, 0
4, 48600, Note_on_c, 1, 50, 100
4, 48719, Note_on_c, 1, 50, 0
4, 48720, Note_on_c, 1, 49, 100
4, 48839, Note_on_c, 1, 49, 0
4, 48840, Note_on_c, 1, 47, 100
4, 48959, Note_on_c, 1, 47, 0
4, 48960, Note_on_c, 1, 45, 100
4, 49199, Note_on_c, 1, 45, 0
4, 49200, Note_on_c, 1, 44, 100
4, 49319, Note_on_c, 1, 44, 0
4, 49320, Note_on_c, 1, 42, 100
4, 49439, Note_on_c, 1, 42, 0
4, 49440, Note_on_c, 1, 41, 80
4, 50399, Note_on_c, 1, 41, 0
4, 50400, Note_on_c, 1, 42, 100
4, 50639, Note_on_c, 1, 42, 0
4, 50640, Note_on_c, 1, 38, 100
4, 50879, Note_on_c, 1, 38, 0
4, 50880, Note_on_c, 1, 45, 100
4, 51355, Note_on_c, 1, 45, 0
4, 59040, Note_on_c, 1, 49, 100
4, 59159, Note_on_c, 1, 49, 0
4, 59160, Note_on_c, 1, 51, 100
4, 59279, Note_on_c, 1, 51, 0
4, 59280, Note_on_c, 1, 52, 100
4, 59399, Note_on_c, 1, 52, 0
4, 59400, Note_on_c, 1, 54, 100
4, 59519, Note_on_c, 1, 54, 0
4, 59520, Note_on_c, 1, 56, 100
4, 60119, Note_on_c, 1, 56, 0
4, 60120, Note_on_c, 1, 57, 100
4, 60239, Note_on_c, 1, 57, 0
4, 60240, Note_on_c, 1, 56, 100
4, 60359, Note_on_c, 1, 56, 0
4, 60360, Note_on_c, 1, 54, 100
4, 60479, Note_on_c, 1, 54, 0
4, 60480, Note_on_c, 1, 52, 100
4, 60719, Note_on_c, 1, 52, 0
4, 60720, Note_on_c, 1, 51, 100
4, 60959, Note_on_c, 1, 51, 0
4, 60960, Note_on_c, 1, 49, 100
4, 61679, Note_on_c, 1, 49, 0
4, 61680, Note_on_c, 1, 48, 100
4, 61799, Note_on_c, 1, 48, 0
4, 61800, Note_on_c, 1, 46, 100
4, 61919, Note_on_c, 1, 46, 0
4, 61920, Note_on_c, 1, 48, 100
4, 62395, Note_on_c, 1, 48, 0
4, 62400, Note_on_c, 1, 49, 100
4, 63119, Note_on_c, 1, 49, 0
4, 63120, Note_on_c, 1, 51, 100
4, 63359, Note_on_c, 1, 51, 0
4, 63360, Note_on_c, 1, 52, 80
4, 64079, Note_on_c, 1, 52, 0
4, 64080, Note_on_c, 1, 54, 100
4, 64319, Note_on_c, 1, 54, 0
4, 64320, Note_on_c, 1, 52, 100
4, 64559, Note_on_c, 1, 52, 0
4, 64560, Note_on_c, 1, 51, 100
4, 64799, Note_on_c, 1, 51, 0
4, 64800, Note_on_c, 1, 49, 100
4, 65399, Note_on_c, 1, 49, 0
4, 65400, Note_on_c, 1, 47, 100
4, 65519, Note_on_c, 1, 47, 0
4, 65520, Note_on_c, 1, 49, 100
4, 65639, Note_on_c, 1, 49, 0
4, 65640, Note_on_c, 1, 51, 100
4, 65759, Note_on_c, 1, 51, 0
4, 65760, Note_on_c, 1, 52, 100
4, 65999, Note_on_c, 1, 52, 0
4, 66000, Note_on_c, 1, 49, 100
4, 66239, Note_on_c, 1, 49, 0
4, 66240, Note_on_c, 1, 54, 100
4, 66839, Note_on_c, 1, 54, 0
4, 66840, Note_on_c, 1, 52, 100
4, 66959, Note_on_c, 1, 52, 0
4, 66960, Note_on_c, 1, 54, 100
4, 67079, Note_on_c, 1, 54, 0
4, 67080, Note_on_c, 1, 56, 100
4, 67199, Note_on_c, 1, 56, 0
4, 67200, Note_on_c, 1, 54, 100
4, 67439, Note_on_c, 1, 54, 0
4, 67440, Note_on_c, 1, 52, 100
4, 67679, Note_on_c, 1, 52, 0
4, 67680, Note_on_c, 1, 51, 100
4, 68279, Note_on_c, 1, 51, 0
4, 68280, Note_on_c, 1, 49, 100
4, 68399, Note_on_c, 1, 49, 0
4, 68400, Note_on_c, 1, 51, 100
4, 68519, Note_on_c, 1, 51, 0
4, 68520, Note_on_c, 1, 52, 100
4, 68639, Note_on_c, 1, 52, 0
4, 68640, Note_on_c, 1, 54, 100
4, 68879, Note_on_c, 1, 54, 0
4, 68880, Note_on_c, 1, 51, 100
4, 69119, Note_on_c, 1, 51, 0
4, 69120, Note_on_c, 1, 56, 100
4, 69719, Note_on_c, 1, 56, 0
4, 69720, Note_on_c, 1, 54, 100
4, 69839, Note_on_c, 1, 54, 0
4, 69840, Note_on_c, 1, 56, 100
4, 69959, Note_on_c, 1, 56, 0
4, 69960, Note_on_c, 1, 57, 100
4, 70079, Note_on_c, 1, 57, 0
4, 70080, Note_on_c, 1, 56, 100
4, 70319, Note_on_c, 1, 56, 0
4, 70320, Note_on_c, 1, 51, 100
4, 70559, Note_on_c, 1, 51, 0
4, 70560, Note_on_c, 1, 52, 80
4, 71279, Note_on_c, 1, 52, 0
4, 71280, Note_on_c, 1, 51, 100
4, 71399, Note_on_c, 1, 51, 0
4, 71400, Note_on_c, 1, 49, 100
4, 71519, Note_on_c, 1, 49, 0
4, 71520, Note_on_c, 1, 48, 100
4, 71639, Note_on_c, 1, 48, 0
4, 71640, Note_on_c, 1, 44, 100
4, 71759, Note_on_c, 1, 44, 0
4, 71760, Note_on_c, 1, 46, 100
4, 71879, Note_on_c, 1, 46, 0
4, 71880, Note_on_c, 1, 48, 100
4, 71999, Note_on_c, 1, 48, 0
4, 72000, Note_on_c, 1, 49, 100
4, 72119, Note_on_c, 1, 49, 0
4, 72120, Note_on_c, 1, 48, 100
4, 72239, Note_on_c, 1, 48, 0
4, 72240, Note_on_c, 1, 49, 100
4, 72359, Note_on_c, 1, 49, 0
4, 72360, Note_on_c, 1, 51, 100
4, 72479, Note_on_c, 1, 51, 0
4, 72480, Note_on_c, 1, 52, 100
4, 73079, Note_on_c, 1, 52, 0
4, 73080, Note_on_c, 1, 51, 100
4, 73199, Note_on_c, 1, 51, 0
4, 73200, Note_on_c, 1, 52, 100
4, 73319, Note_on_c, 1, 52, 0
4, 73320, Note_on_c, 1, 54, 100
4, 73439, Note_on_c, 1, 54, 0
4, 73440, Note_on_c, 1, 56, 100
4, 73679, Note_on_c, 1, 56, 0
4, 73920, Note_on_c, 1, 37, 100
4, 74039, Note_on_c, 1, 37, 0
4, 74040, Note_on_c, 1, 39, 100
4, 74159, Note_on_c, 1, 39, 0
4, 74160, Note_on_c, 1, 40, 100
4, 74279, Note_on_c, 1, 40, 0
4, 74280, Note_on_c, 1, 42, 100
4, 74399, Note_on_c, 1, 42, 0
4, 74400, Note_on_c, 1, 44, 100
4, 75119, Note_on_c, 1, 44, 0
4, 75120, Note_on_c, 1, 42, 100
4, 75359, Note_on_c, 1, 42, 0
4, 75360, Note_on_c, 1, 40, 100
4, 75599, Note_on_c, 1, 40, 0
4, 75600, Note_on_c, 1, 39, 100
4, 75839, Note_on_c, 1, 39, 0
4, 75840, Note_on_c, 1, 40, 100
4, 75959, Note_on_c, 1, 40, 0
4, 75960, Note_on_c, 1, 44, 100
4, 76079, Note_on_c, 1, 44, 0
4, 76080, Note_on_c, 1, 46, 100
4, 76199, Note_on_c, 1, 46, 0
4, 76200, Note_on_c, 1, 48, 100
4, 76319, Note_on_c, 1, 48, 0
4, 76320, Note_on_c, 1, 49, 80
4, 79799, Note_on_c, 1, 49, 0
4, 79800, Note_on_c, 1, 44, 100
4, 79859, Note_on_c, 1, 44, 0
4, 79860, Note_on_c, 1, 42, 100
4, 79919, Note_on_c, 1, 42, 0
4, 79920, Note_on_c, 1, 41, 100
4, 79979, Note_on_c, 1, 41, 0
4, 79980, Note_on_c, 1, 42, 100
4, 80039, Note_on_c, 1, 42, 0
4, 80040, Note_on_c, 1, 44, 100
4, 80159, Note_on_c, 1, 44, 0
4, 80160, Note_on_c, 1, 37, 80
4, 80639, Note_on_c, 1, 37, 0
4, 100800, Note_on_c, 1, 49, 100
4, 101275, Note_on_c, 1, 49, 0
4, 101280, Note_on_c, 1, 44, 100
4, 102235, Note_on_c, 1, 44, 0
4, 102240, Note_on_c, 1, 45, 100
4, 102715, Note_on_c, 1, 45, 0
4, 102720, Note_on_c, 1, 49, 100
4, 103675, Note_on_c, 1, 49, 0
4, 103680, Note_on_c, 1, 50, 100
4, 104155, Note_on_c, 1, 50, 0
4, 104160, Note_on_c, 1, 49, 100
4, 104635, Note_on_c, 1, 49, 0
4, 104640, Note_on_c, 1, 47, 100
4, 105115, Note_on_c, 1, 47, 0
4, 105120, Note_on_c, 1, 45, 80
4, 105839, Note_on_c, 1, 45, 0
4, 105840, Note_on_c, 1, 44, 100
4, 106079, Note_on_c, 1, 44, 0
4, 106080, Note_on_c, 1, 46, 100
4, 106319, Note_on_c, 1, 46, 0
4, 106320, Note_on_c, 1, 48, 100
4, 106559, Note_on_c, 1, 48, 0
4, 106560, Note_on_c, 1, 49, 80
4, 107279, Note_on_c, 1, 49, 0
4, 107280, Note_on_c, 1, 48, 100
4, 107519, Note_on_c, 1, 48, 0
4, 107520, Note_on_c, 1, 49, 100
4, 107759, Note_on_c, 1, 49, 0
4, 107760, Note_on_c, 1, 51, 100
4, 107999, Note_on_c, 1, 51, 0
4, 108000, Note_on_c, 1, 52, 80
4, 108719, Note_on_c, 1, 52, 0
4, 108720, Note_on_c, 1, 51, 100
4, 108959, Note_on_c, 1, 51, 0
4, 108960, Note_on_c, 1, 52, 100
4, 109199, Note_on_c, 1, 52, 0
4, 109200, Note_on_c, 1, 54, 100
4, 109439, Note_on_c, 1, 54, 0
4, 109440, Note_on_c, 1, 52, 100
4, 109679, Note_on_c, 1, 52, 0
4, 109680, Note_on_c, 1, 51, 100
4, 109919, Note_on_c, 1, 51, 0
4, 109920, Note_on_c, 1, 49, 100
4, 110639, Note_on_c, 1, 49, 0
4, 110640, Note_on_c, 1, 47, 100
4, 110759, Note_on_c, 1, 47, 0
4, 110760, Note_on_c, 1, 45, 100
4, 110879, Note_on_c, 1, 45, 0
4, 110880, Note_on_c, 1, 44, 100
4, 110999, Note_on_c, 1, 44, 0
4, 111000, Note_on_c, 1, 42, 100
4, 111119, Note_on_c, 1, 42, 0
4, 111120, Note_on_c, 1, 40, 100
4, 111239, Note_on_c, 1, 40, 0
4, 111240, Note_on_c, 1, 39, 100
4, 111359, Note_on_c, 1, 39, 0
4, 111360, Note_on_c, 1, 37, 100
4, 111959, Note_on_c, 1, 37, 0
4, 111960, Note_on_c, 1, 36, 100
4, 112079, Note_on_c, 1, 36, 0
4, 112080, Note_on_c, 1, 37, 100
4, 112199, Note_on_c, 1, 37, 0
4, 112200, Note_on_c, 1, 39, 100
4, 112319, Note_on_c, 1, 39, 0
4, 112320, Note_on_c, 1, 40, 100
4, 112559, Note_on_c, 1, 40, 0
4, 112560, Note_on_c, 1, 42, 100
4, 112799, Note_on_c, 1, 42, 0
4, 112800, Note_on_c, 1, 44, 100
4, 113519, Note_on_c, 1, 44, 0
4, 113520, Note_on_c, 1, 45, 100
4, 113639, Note_on_c, 1, 45, 0
4, 113640, Note_on_c, 1, 47, 100
4, 113759, Note_on_c, 1, 47, 0
4, 113760, Note_on_c, 1, 45, 100
4, 114235, Note_on_c, 1, 45, 0
4, 114240, Note_on_c, 1, 44, 100
4, 114959, Note_on_c, 1, 44, 0
4, 114960, Note_on_c, 1, 42, 100
4, 115199, Note_on_c, 1, 42, 0
4, 115200, Note_on_c, 1, 40, 100
4, 115919, Note_on_c, 1, 40, 0
4, 115920, Note_on_c, 1, 39, 100
4, 116159, Note_on_c, 1, 39, 0
4, 116160, Note_on_c, 1, 40, 100
4, 116399, Note_on_c, 1, 40, 0
4, 116400, Note_on_c, 1, 42, 100
4, 116639, Note_on_c, 1, 42, 0
4, 116640, Note_on_c, 1, 44, 100
4, 117595, Note_on_c, 1, 44, 0
4, 117720, Note_on_c, 1, 44, 100
4, 117839, Note_on_c, 1, 44, 0
4, 117840, Note_on_c, 1, 42, 100
4, 117959, Note_on_c, 1, 42, 0
4, 117960, Note_on_c, 1, 40, 100
4, 118079, Note_on_c, 1, 40, 0
4, 118080, Note_on_c, 1, 39, 100
4, 118199, Note_on_c, 1, 39, 0
4, 118200, Note_on_c, 1, 40, 100
4, 118319, Note_on_c, 1, 40, 0
4, 118320, Note_on_c, 1, 39, 100
4, 118439, Note_on_c, 1, 39, 0
4, 118440, Note_on_c, 1, 37, 100
4, 118559, Note_on_c, 1, 37, 0
4, 118560, Note_on_c, 1, 35, 100
4, 118799, Note_on_c, 1, 35, 0
4, 120480, Note_on_c, 1, 44, 100
4, 121199, Note_on_c, 1, 44, 0
4, 121200, Note_on_c, 1, 46, 100
4, 121439, Note_on_c, 1, 46, 0
4, 121440, Note_on_c, 1, 47, 100
4, 121679, Note_on_c, 1, 47, 0
4, 121680, Note_on_c, 1, 49, 100
4, 121919, Note_on_c, 1, 49, 0
4, 121920, Note_on_c, 1, 51, 100
4, 122159, Note_on_c, 1, 51, 0
4, 122160, Note_on_c, 1, 52, 100
4, 122399, Note_on_c, 1, 52, 0
4, 122400, Note_on_c, 1, 51, 100
4, 122639, Note_on_c, 1, 51, 0
4, 122640, Note_on_c, 1, 55, 100
4, 122879, Note_on_c, 1, 55, 0
4, 122880, Note_on_c, 1, 56, 100
4, 124079, Note_on_c, 1, 56, 0
4, 124080, Note_on_c, 1, 54, 100
4, 124199, Note_on_c, 1, 54, 0
4, 124200, Note_on_c, 1, 52, 100
4, 124319, Note_on_c, 1, 52, 0
4, 124320, Note_on_c, 1, 51, 100
4, 124559, Note_on_c, 1, 51, 0
4, 124560, Note_on_c, 1, 53, 100
4, 124799, Note_on_c, 1, 53, 0
4, 124800, Note_on_c, 1, 54, 100
4, 125039, Note_on_c, 1, 54, 0
4, 125040, Note_on_c, 1, 56, 100
4, 125279, Note_on_c, 1, 56, 0
4, 125280, Note_on_c, 1, 57, 80
4, 125999, Note_on_c, 1, 57, 0
4, 126000, Note_on_c, 1, 54, 100
4, 126119, Note_on_c, 1, 54, 0
4, 126120, Note_on_c, 1, 57, 100
4, 126239, Note_on_c, 1, 57, 0
4, 126240, Note_on_c, 1, 56, 100
4, 126359, Note_on_c, 1, 56, 0
4, 126360, Note_on_c, 1, 59, 100
4, 126479, Note_on_c, 1, 59, 0
4, 126480, Note_on_c, 1, 57, 100
4, 126599, Note_on_c, 1, 57, 0
4, 126600, Note_on_c, 1, 61, 100
4, 126719, Note_on_c, 1, 61, 0
4, 126720, Note_on_c, 1, 59, 100
4, 127319, Note_on_c, 1, 59, 0
4, 127320, Note_on_c, 1, 57, 100
4, 127439, Note_on_c, 1, 57, 0
4, 127440, Note_on_c, 1, 56, 100
4, 127559, Note_on_c, 1, 56, 0
4, 127560, Note_on_c, 1, 54, 100
4, 127679, Note_on_c, 1, 54, 0
4, 127680, Note_on_c, 1, 52, 100
4, 128639, Note_on_c, 1, 52, 0
4, 128640, Note_on_c, 1, 40, 100
4, 128759, Note_on_c, 1, 40, 0
4, 128760, Note_on_c, 1, 42, 100
4, 128879, Note_on_c, 1, 42, 0
4, 128880, Note_on_c, 1, 44, 100
4, 128999, Note_on_c, 1, 44, 0
4, 129000, Note_on_c, 1, 45, 100
4, 129119, Note_on_c, 1, 45, 0
4, 129120, Note_on_c, 1, 44, 100
4, 129359, Note_on_c, 1, 44, 0
4, 129360, Note_on_c, 1, 40, 100
4, 129599, Note_on_c, 1, 40, 0
4, 129600, Note_on_c, 1, 45, 100
4, 129719, Note_on_c, 1, 45, 0
4, 129720, Note_on_c, 1, 47, 100
4, 129839, Note_on_c, 1, 47, 0
4, 129840, Note_on_c, 1, 49, 100
4, 129959, Note_on_c, 1, 49, 0
4, 129960, Note_on_c, 1, 51, 100
4, 130079, Note_on_c, 1, 51, 0
4, 130080, Note_on_c, 1, 52, 100
4, 130679, Note_on_c, 1, 52, 0
4, 130680, Note_on_c, 1, 51, 100
4, 130799, Note_on_c, 1, 51, 0
4, 130800, Note_on_c, 1, 52, 100
4, 130919, Note_on_c, 1, 52, 0
4, 130920, Note_on_c, 1, 54, 100
4, 131039, Note_on_c, 1, 54, 0
4, 131040, Note_on_c, 1, 56, 100
4, 131159, Note_on_c, 1, 56, 0
4, 131160, Note_on_c, 1, 54, 100
4, 131279, Note_on_c, 1, 54, 0
4, 131280, Note_on_c, 1, 52, 100
4, 131399, Note_on_c, 1, 52, 0
4, 131400, Note_on_c, 1, 51, 100
4, 131519, Note_on_c, 1, 51, 0
4, 131520, Note_on_c, 1, 49, 100
4, 132475, Note_on_c, 1, 49, 0
4, 132480, Note_on_c, 1, 47, 100
4, 132599, Note_on_c, 1, 47, 0
4, 132600, Note_on_c, 1, 49, 100
4, 132719, Note_on_c, 1, 49, 0
4, 132720, Note_on_c, 1, 47, 100
4, 132839, Note_on_c, 1, 47, 0
4, 132840, Note_on_c, 1, 45, 100
4, 132959, Note_on_c, 1, 45, 0
4, 132960, Note_on_c, 1, 44, 100
4, 133079, Note_on_c, 1, 44, 0
4, 133080, Note_on_c, 1, 45, 100
4, 133199, Note_on_c, 1, 45, 0
4, 133200, Note_on_c, 1, 44, 100
4, 133319, Note_on_c, 1, 44, 0
4, 133320, Note_on_c, 1, 42, 100
4, 133439, Note_on_c, 1, 42, 0
4, 133440, Note_on_c, 1, 40, 100
4, 133559, Note_on_c, 1, 40, 0
4, 133560, Note_on_c, 1, 42, 100
4, 133679, Note_on_c, 1, 42, 0
4, 133680, Note_on_c, 1, 44, 100
4, 133799, Note_on_c, 1, 44, 0
4, 133800, Note_on_c, 1, 45, 100
4, 133919, Note_on_c, 1, 45, 0
4, 133920, Note_on_c, 1, 47, 100
4, 134039, Note_on_c, 1, 47, 0
4, 134040, Note_on_c, 1, 49, 100
4, 134159, Note_on_c, 1, 49, 0
4, 134160, Note_on_c, 1, 51, 100
4, 134279, Note_on_c, 1, 51, 0
4, 134280, Note_on_c, 1, 49, 100
4, 134399, Note_on_c, 1, 49, 0
4, 134400, Note_on_c, 1, 47, 100
4, 134635, Note_on_c, 1, 47, 0
4, 134640, Note_on_c, 1, 47, 100
4, 135115, Note_on_c, 1, 47, 0
4, 135120, Note_on_c, 1, 45, 100
4, 135239, Note_on_c, 1, 45, 0
4, 135240, Note_on_c, 1, 44, 100
4, 135359, Note_on_c, 1, 44, 0
4, 135360, Note_on_c, 1, 42, 80
4, 137039, Note_on_c, 1, 42, 0
4, 137040, Note_on_c, 1, 40, 100
4, 137159, Note_on_c, 1, 40, 0
4, 137160, Note_on_c, 1, 38, 100
4, 137279, Note_on_c, 1, 38, 0
4, 137280, Note_on_c, 1, 40, 100
4, 137519, Note_on_c, 1, 40, 0
4, 137520, Note_on_c, 1, 42, 100
4, 137759, Note_on_c, 1, 42, 0
4, 137760, Note_on_c, 1, 44, 100
4, 139439, Note_on_c, 1, 44, 0
4, 139440, Note_on_c, 1, 42, 100
4, 139559, Note_on_c, 1, 42, 0
4, 139560, Note_on_c, 1, 40, 100
4, 139679, Note_on_c, 1, 40, 0
4, 139680, Note_on_c, 1, 42, 100
4, 139799, Note_on_c, 1, 42, 0
4, 139800, Note_on_c, 1, 44, 100
4, 139919, Note_on_c, 1, 44, 0
4, 139920, Note_on_c, 1, 45, 100
4, 140039, Note_on_c, 1, 45, 0
4, 140040, Note_on_c, 1, 44, 100
4, 140159, Note_on_c, 1, 44, 0
4, 140160, Note_on_c, 1, 45, 100
4, 140399, Note_on_c, 1, 45, 0
4, 140400, Note_on_c, 1, 44, 100
4, 140639, Note_on_c, 1, 44, 0
4, 140640, Note_on_c, 1, 42, 100
4, 141115, Note_on_c, 1, 42, 0
4, 141120, Note_on_c, 1, 49, 100
4, 141359, Note_on_c, 1, 49, 0
4, 141360, Note_on_c, 1, 37, 100
4, 141835, Note_on_c, 1, 37, 0
4, 141840, Note_on_c, 1, 39, 100
4, 141959, Note_on_c, 1, 39, 0
4, 141960, Note_on_c, 1, 40, 100
4, 142079, Note_on_c, 1, 40, 0
4, 142080, Note_on_c, 1, 42, 100
4, 142199, Note_on_c, 1, 42, 0
4, 142200, Note_on_c, 1, 39, 100
4, 142319, Note_on_c, 1, 39, 0
4, 142320, Note_on_c, 1, 40, 100
4, 142439, Note_on_c, 1, 40, 0
4, 142440, Note_on_c, 1, 42, 100
4, 142559, Note_on_c, 1, 42, 0
4, 142560, Note_on_c, 1, 44, 100
4, 142679, Note_on_c, 1, 44, 0
4, 142680, Note_on_c, 1, 45, 100
4, 142799, Note_on_c, 1, 45, 0
4, 142800, Note_on_c, 1, 44, 100
4, 142919, Note_on_c, 1, 44, 0
4, 142920, Note_on_c, 1, 42, 100
4, 143039, Note_on_c, 1, 42, 0
4, 143040, Note_on_c, 1, 40, 100
4, 143639, Note_on_c, 1, 40, 0
4, 143640, Note_on_c, 1, 42, 100
4, 143759, Note_on_c, 1, 42, 0
4, 143760, Note_on_c, 1, 40, 100
4, 143879, Note_on_c, 1, 40, 0
4, 143880, Note_on_c, 1, 39, 100
4, 143999, Note_on_c, 1, 39, 0
4, 144000, Note_on_c, 1, 37, 100
4, 144119, Note_on_c, 1, 37, 0
4, 144120, Note_on_c, 1, 39, 100
4, 144239, Note_on_c, 1, 39, 0
4, 144240, Note_on_c, 1, 37, 100
4, 144359, Note_on_c, 1, 37, 0
4, 144360, Note_on_c, 1, 36, 100
4, 144479, Note_on_c, 1, 36, 0
4, 144480, Note_on_c, 1, 37, 100
4, 144599, Note_on_c, 1, 37, 0
4, 144600, Note_on_c, 1, 39, 100
4, 144719, Note_on_c, 1, 39, 0
4, 144720, Note_on_c, 1, 40, 100
4, 144839, Note_on_c, 1, 40, 0
4, 144840, Note_on_c, 1, 42, 100
4, 144959, Note_on_c, 1, 42, 0
4, 144960, Note_on_c, 1, 44, 100
4, 145559, Note_on_c, 1, 44, 0
4, 145560, Note_on_c, 1, 45, 100
4, 145679, Note_on_c, 1, 45, 0
4, 145680, Note_on_c, 1, 44, 100
4, 145799, Note_on_c, 1, 44, 0
4, 145800, Note_on_c, 1, 42, 100
4, 145919, Note_on_c, 1, 42, 0
4, 145920, Note_on_c, 1, 44, 100
4, 146039, Note_on_c, 1, 44, 0
4, 146040, Note_on_c, 1, 45, 100
4, 146159, Note_on_c, 1, 45, 0
4, 146160, Note_on_c, 1, 47, 100
4, 146279, Note_on_c, 1, 47, 0
4, 146280, Note_on_c, 1, 49, 100
4, 146399, Note_on_c, 1, 49, 0
4, 146400, Note_on_c, 1, 47, 100
4, 146519, Note_on_c, 1, 47, 0
4, 146520, Note_on_c, 1, 45, 100
4, 146639, Note_on_c, 1, 45, 0
4, 146640, Note_on_c, 1, 44, 100
4, 146759, Note_on_c, 1, 44, 0
4, 146760, Note_on_c, 1, 42, 100
4, 146879, Note_on_c, 1, 42, 0
4, 146880, Note_on_c, 1, 40, 100
4, 146999, Note_on_c, 1, 40, 0
4, 147000, Note_on_c, 1, 42, 100
4, 147119, Note_on_c, 1, 42, 0
4, 147120, Note_on_c, 1, 40, 100
4, 147239, Note_on_c, 1, 40, 0
4, 147240, Note_on_c, 1, 39, 100
4, 147359, Note_on_c, 1, 39, 0
4, 147360, Note_on_c, 1, 40, 100
4, 147479, Note_on_c, 1, 40, 0
4, 147480, Note_on_c, 1, 42, 100
4, 147599, Note_on_c, 1, 42, 0
4, 147600, Note_on_c, 1, 44, 100
4, 147719, Note_on_c, 1, 44, 0
4, 147720, Note_on_c, 1, 45, 100
4, 147839, Note_on_c, 1, 45, 0
4, 147840, Note_on_c, 1, 44, 100
4, 147959, Note_on_c, 1, 44, 0
4, 147960, Note_on_c, 1, 42, 100
4, 148079, Note_on_c, 1, 42, 0
4, 148080, Note_on_c, 1, 40, 100
4, 148199, Note_on_c, 1, 40, 0
4, 148200, Note_on_c, 1, 44, 100
4, 148319, Note_on_c, 1, 44, 0
4, 148320, Note_on_c, 1, 47, 100
4, 148439, Note_on_c, 1, 47, 0
4, 148440, Note_on_c, 1, 49, 100
4, 148559, Note_on_c, 1, 49, 0
4, 148560, Note_on_c, 1, 47, 100
4, 148679, Note_on_c, 1, 47, 0
4, 148680, Note_on_c, 1, 46, 100
4, 148799, Note_on_c, 1, 46, 0
4, 148800, Note_on_c, 1, 47, 100
4, 149039, Note_on_c, 1, 47, 0
4, 149040, Note_on_c, 1, 44, 100
4, 149279, Note_on_c, 1, 44, 0
4, 149280, Note_on_c, 1, 47, 100
4, 149519, Note_on_c, 1, 47, 0
4, 149520, Note_on_c, 1, 44, 100
4, 149759, Note_on_c, 1, 44, 0
4, 149760, Note_on_c, 1, 39, 100
4, 149879, Note_on_c, 1, 39, 0
4, 149880, Note_on_c, 1, 40, 100
4, 149999, Note_on_c, 1, 40, 0
4, 150000, Note_on_c, 1, 39, 100
4, 150119, Note_on_c, 1, 39, 0
4, 150120, Note_on_c, 1, 37, 100
4, 150239, Note_on_c, 1, 37, 0
4, 150240, Note_on_c, 1, 39, 100
4, 150359, Note_on_c, 1, 39, 0
4, 150360, Note_on_c, 1, 40, 100
4, 150479, Note_on_c, 1, 40, 0
4, 150480, Note_on_c, 1, 42, 100
4, 150839, Note_on_c, 1, 42, 0
4, 150840, Note_on_c, 1, 40, 100
4, 150959, Note_on_c, 1, 40, 0
4, 150960, Note_on_c, 1, 42, 100
4, 151079, Note_on_c, 1, 42, 0
4, 151080, Note_on_c, 1, 44, 100
4, 151199, Note_on_c, 1, 44, 0
4, 151200, Note_on_c, 1, 45, 100
4, 151319, Note_on_c, 1, 45, 0
4, 151320, Note_on_c, 1, 47, 100
4, 151439, Note_on_c, 1, 47, 0
4, 151440, Note_on_c, 1, 45, 100
4, 151559, Note_on_c, 1, 45, 0
4, 151560, Note_on_c, 1, 44, 100
4, 151679, Note_on_c, 1, 44, 0
4, 151680, Note_on_c, 1, 45, 100
4, 151799, Note_on_c, 1, 45, 0
4, 151800, Note_on_c, 1, 42, 100
4, 151919, Note_on_c, 1, 42, 0
4, 151920, Note_on_c, 1, 54, 100
4, 152279, Note_on_c, 1, 54, 0
4, 152280, Note_on_c, 1, 52, 100
4, 152399, Note_on_c, 1, 52, 0
4, 152400, Note_on_c, 1, 51, 100
4, 152519, Note_on_c, 1, 51, 0
4, 152520, Note_on_c, 1, 49, 100
4, 152579, Note_on_c, 1, 49, 0
4, 152580, Note_on_c, 1, 48, 100
4, 152639, Note_on_c, 1, 48, 0
4, 152640, Note_on_c, 1, 49, 80
4, 158639, Note_on_c, 1, 49, 0
4, 158640, Note_on_c, 1, 51, 100
4, 158759, Note_on_c, 1, 51, 0
4, 158760, Note_on_c, 1, 52, 100
4, 158879, Note_on_c, 1, 52, 0
4, 158880, Note_on_c, 1, 51, 100
4, 158999, Note_on_c, 1, 51, 0
4, 159000, Note_on_c, 1, 49, 100
4, 159119, Note_on_c, 1, 49, 0
4, 159120, Note_on_c, 1, 48, 100
4, 159239, Note_on_c, 1, 48, 0
4, 159240, Note_on_c, 1, 46, 100
4, 159359, Note_on_c, 1, 46, 0
4, 159360, Note_on_c, 1, 44, 100
4, 160079, Note_on_c, 1, 44, 0
4, 160080, Note_on_c, 1, 46, 100
4, 160319, Note_on_c, 1, 46, 0
4, 160320, Note_on_c, 1, 48, 100
4, 160559, Note_on_c, 1, 48, 0
4, 160560, Note_on_c, 1, 49, 100
4, 160799, Note_on_c, 1, 49, 0
4, 160800, Note_on_c, 1, 51, 100
4, 160919, Note_on_c, 1, 51, 0
4, 160920, Note_on_c, 1, 49, 100
4, 161039, Note_on_c, 1, 49, 0
4, 161040, Note_on_c, 1, 48, 100
4, 161279, Note_on_c, 1, 48, 0
4, 161280, Note_on_c, 1, 49, 80
4, 162719, Note_on_c, 1, 49, 0
4, 162720, End_track
0, 0, End_of_file
