0, 0, Header, 1, 2, 480
1, 0, Start_track
1, 0, Unknown_meta_event, 8, 34, 71, 111, 108, 100, 98, 101, 114, 103, 32, 86, 97, 114, 105, 97, 116, 105, 111, 110, 115, 58, 32, 86, 97, 114, 105, 97, 116, 105, 111, 110, 32, 73, 88, 0
1, 0, Unknown_meta_event, 9, 8, 66, 87, 86, 32, 57, 56, 56, 0
1, 0, Unknown_meta_event, 10, 11, 74, 46, 32, 83, 46, 32, 66, 97, 99, 104, 0
1, 0, Time_signature, 4, 2, 24, 8
1, 0, Key_signature, 1, "major"
1, 0, Program_c, 0, 46
1, 0, Note_on_c, 0, 71, 80
1, 2, Control_c, 0, 7, 100
1, 4, Control_c, 0, 10, 64
1, 6, Control_c, 0, 91, 30
1, 8, Control_c, 0, 93, 30
1, 239, Note_on_c, 0, 71, 0
1, 240, Note_on_c, 0, 69, 80
1, 479, Note_on_c, 0, 69, 0
1, 480, Note_on_c, 0, 71, 80
1, 719, Note_on_c, 0, 71, 0
1, 720, Note_on_c, 0, 72, 80
1, 959, Note_on_c, 0, 72, 0
1, 960, Note_on_c, 0, 74, 80
1, 1199, Note_on_c, 0, 74, 0
1, 1200, Note_on_c, 0, 69, 80
1, 1439, Note_on_c, 0, 69, 0
1, 1440, Note_on_c, 0, 74, 80
1, 1679, Note_on_c, 0, 74, 0
1, 1680, Note_on_c, 0, 72, 80
1, 1919, Note_on_c, 0, 72, 0
1, 1920, Note_on_c, 0, 67, 80
1, 1920, Note_on_c, 0, 71, 80
1, 2159, Note_on_c, 0, 67, 0
1, 2159, Note_on_c, 0, 71, 0
1, 2160, Note_on_c, 0, 66, 80
1, 2160, Note_on_c, 0, 74, 80
1, 2399, Note_on_c, 0, 66, 0
1, 2399, Note_on_c, 0, 74, 0
1, 2400, Note_on_c, 0, 67, 80
1, 2400, Note_on_c, 0, 79, 80
1, 2639, Note_on_c, 0, 67, 0
1, 2640, Note_on_c, 0, 69, 80
1, 2879, Note_on_c, 0, 69, 0
1, 2879, Note_on_c, 0, 79, 0
1, 2880, Note_on_c, 0, 71, 80
1, 2880, Note_on_c, 0, 79, 80
1, 3119, Note_on_c, 0, 71, 0
1, 3119, Note_on_c, 0, 79, 0
1, 3120, Note_on_c, 0, 66, 80
1, 3120, Note_on_c, 0, 81, 80
1, 3239, Note_on_c, 0, 81, 0
1, 3240, Note_on_c, 0, 79, 80
1, 3359, Note_on_c, 0, 66, 0
1, 3359, Note_on_c, 0, 79, 0
1, 3360, Note_on_c, 0, 71, 80
1, 3360, Note_on_c, 0, 78, 80
1, 3599, Note_on_c, 0, 71, 0
1, 3600, Note_on_c, 0, 69, 80
1, 3839, Note_on_c, 0, 69, 0
1, 3839, Note_on_c, 0, 78, 0
1, 3840, Note_on_c, 0, 67, 80
1, 3840, Note_on_c, 0, 79, 80
1, 4079, Note_on_c, 0, 67, 0
1, 4079, Note_on_c, 0, 79, 0
1, 4080, Note_on_c, 0, 71, 80
1, 4080, Note_on_c, 0, 78, 80
1, 4319, Note_on_c, 0, 71, 0
1, 4319, Note_on_c, 0, 78, 0
1, 4320, Note_on_c, 0, 76, 80
1, 4320, Note_on_c, 0, 79, 80
1, 4559, Note_on_c, 0, 79, 0
1, 4560, Note_on_c, 0, 81, 80
1, 4799, Note_on_c, 0, 76, 0
1, 4799, Note_on_c, 0, 81, 0
1, 4800, Note_on_c, 0, 83, 80
1, 5039, Note_on_c, 0, 83, 0
1, 5040, Note_on_c, 0, 78, 80
1, 5160, Note_on_c, 0, 76, 80
1, 5279, Note_on_c, 0, 76, 0
1, 5279, Note_on_c, 0, 78, 0
1, 5280, Note_on_c, 0, 74, 80
1, 5280, Note_on_c, 0, 83, 80
1, 5519, Note_on_c, 0, 83, 0
1, 5520, Note_on_c, 0, 81, 80
1, 5759, Note_on_c, 0, 74, 0
1, 5759, Note_on_c, 0, 81, 0
1, 5760, Note_on_c, 0, 76, 80
1, 5760, Note_on_c, 0, 79, 80
1, 5999, Note_on_c, 0, 76, 0
1, 5999, Note_on_c, 0, 79, 0
1, 6000, Note_on_c, 0, 74, 80
1, 6000, Note_on_c, 0, 81, 80
1, 6119, Note_on_c, 0, 81, 0
1, 6120, Note_on_c, 0, 83, 80
1, 6239, Note_on_c, 0, 74, 0
1, 6239, Note_on_c, 0, 83, 0
1, 6240, Note_on_c, 0, 76, 80
1, 6240, Note_on_c, 0, 84, 80
1, 6479, Note_on_c, 0, 76, 0
1, 6480, Note_on_c, 0, 78, 80
1, 6719, Note_on_c, 0, 78, 0
1, 6719, Note_on_c, 0, 84, 0
1, 6720, Note_on_c, 0, 79, 80
1, 6959, Note_on_c, 0, 79, 0
1, 6960, Note_on_c, 0, 74, 80
1, 6960, Note_on_c, 0, 83, 80
1, 7079, Note_on_c, 0, 83, 0
1, 7080, Note_on_c, 0, 81, 80
1, 7199, Note_on_c, 0, 74, 0
1, 7199, Note_on_c, 0, 81, 0
1, 7200, Note_on_c, 0, 79, 80
1, 7200, Note_on_c, 0, 83, 80
1, 7439, Note_on_c, 0, 79, 0
1, 7439, Note_on_c, 0, 83, 0
1, 7440, Note_on_c, 0, 78, 80
1, 7440, Note_on_c, 0, 71, 80
1, 7679, Note_on_c, 0, 78, 0
1, 7679, Note_on_c, 0, 71, 0
1, 7680, Note_on_c, 0, 76, 80
1, 7680, Note_on_c, 0, 73, 80
1, 7919, Note_on_c, 0, 76, 0
1, 7919, Note_on_c, 0, 73, 0
1, 7920, Note_on_c, 0, 78, 80
1, 7920, Note_on_c, 0, 71, 80
1, 8039, Note_on_c, 0, 78, 0
1, 8040, Note_on_c, 0, 79, 80
1, 8159, Note_on_c, 0, 79, 0
1, 8159, Note_on_c, 0, 71, 0
1, 8160, Note_on_c, 0, 81, 80
1, 8160, Note_on_c, 0, 73, 80
1, 8399, Note_on_c, 0, 73, 0
1, 8400, Note_on_c, 0, 75, 80
1, 8639, Note_on_c, 0, 81, 0
1, 8639, Note_on_c, 0, 75, 0
1, 8640, Note_on_c, 0, 76, 80
1, 8879, Note_on_c, 0, 76, 0
1, 8880, Note_on_c, 0, 79, 80
1, 8880, Note_on_c, 0, 71, 80
1, 8999, Note_on_c, 0, 79, 0
1, 9000, Note_on_c, 0, 78, 80
1, 9119, Note_on_c, 0, 78, 0
1, 9119, Note_on_c, 0, 71, 0
1, 9120, Note_on_c, 0, 79, 80
1, 9120, Note_on_c, 0, 76, 80
1, 9359, Note_on_c, 0, 79, 0
1, 9359, Note_on_c, 0, 76, 0
1, 9360, Note_on_c, 0, 67, 80
1, 9360, Note_on_c, 0, 74, 80
1, 9599, Note_on_c, 0, 67, 0
1, 9599, Note_on_c, 0, 74, 0
1, 9600, Note_on_c, 0, 69, 80
1, 9600, Note_on_c, 0, 72, 80
1, 9839, Note_on_c, 0, 69, 0
1, 9839, Note_on_c, 0, 72, 0
1, 9840, Note_on_c, 0, 67, 80
1, 9840, Note_on_c, 0, 74, 80
1, 9959, Note_on_c, 0, 74, 0
1, 9960, Note_on_c, 0, 76, 80
1, 10079, Note_on_c, 0, 67, 0
1, 10079, Note_on_c, 0, 76, 0
1, 10080, Note_on_c, 0, 69, 80
1, 10080, Note_on_c, 0, 77, 80
1, 10319, Note_on_c, 0, 69, 0
1, 10320, Note_on_c, 0, 71, 80
1, 10559, Note_on_c, 0, 71, 0
1, 10559, Note_on_c, 0, 77, 0
1, 10560, Note_on_c, 0, 72, 80
1, 10799, Note_on_c, 0, 72, 0
1, 10800, Note_on_c, 0, 67, 80
1, 10800, Note_on_c, 0, 76, 80
1, 10919, Note_on_c, 0, 76, 0
1, 10920, Note_on_c, 0, 74, 80
1, 11039, Note_on_c, 0, 67, 0
1, 11039, Note_on_c, 0, 74, 0
1, 11040, Note_on_c, 0, 72, 80
1, 11040, Note_on_c, 0, 76, 80
1, 11159, Note_on_c, 0, 76, 0
1, 11160, Note_on_c, 0, 78, 80
1, 11279, Note_on_c, 0, 72, 0
1, 11279, Note_on_c, 0, 78, 0
1, 11280, Note_on_c, 0, 71, 80
1, 11280, Note_on_c, 0, 79, 80
1, 11519, Note_on_c, 0, 71, 0
1, 11519, Note_on_c, 0, 79, 0
1, 11520, Note_on_c, 0, 69, 80
1, 11759, Note_on_c, 0, 69, 0
1, 11760, Note_on_c, 0, 71, 80
1, 11760, Note_on_c, 0, 78, 80
1, 11879, Note_on_c, 0, 71, 0
1, 11880, Note_on_c, 0, 73, 80
1, 11999, Note_on_c, 0, 73, 0
1, 12000, Note_on_c, 0, 74, 80
1, 12239, Note_on_c, 0, 78, 0
1, 12240, Note_on_c, 0, 76, 80
1, 12479, Note_on_c, 0, 74, 0
1, 12479, Note_on_c, 0, 76, 0
1, 12480, Note_on_c, 0, 78, 80
1, 12719, Note_on_c, 0, 78, 0
1, 12720, Note_on_c, 0, 73, 80
1, 12720, Note_on_c, 0, 79, 80
1, 12839, Note_on_c, 0, 73, 0
1, 12840, Note_on_c, 0, 71, 80
1, 12959, Note_on_c, 0, 71, 0
1, 12959, Note_on_c, 0, 79, 0
1, 12960, Note_on_c, 0, 73, 80
1, 12960, Note_on_c, 0, 81, 80
1, 13079, Note_on_c, 0, 73, 0
1, 13080, Note_on_c, 0, 74, 80
1, 13199, Note_on_c, 0, 74, 0
1, 13199, Note_on_c, 0, 81, 0
1, 13200, Note_on_c, 0, 76, 80
1, 13200, Note_on_c, 0, 79, 80
1, 13439, Note_on_c, 0, 76, 0
1, 13439, Note_on_c, 0, 79, 0
1, 13440, Note_on_c, 0, 76, 80
1, 13440, Note_on_c, 0, 78, 80
1, 13679, Note_on_c, 0, 76, 0
1, 13680, Note_on_c, 0, 74, 80
1, 13919, Note_on_c, 0, 78, 0
1, 13920, Note_on_c, 0, 76, 80
1, 14159, Note_on_c, 0, 74, 0
1, 14160, Note_on_c, 0, 73, 80
1, 14399, Note_on_c, 0, 73, 0
1, 14399, Note_on_c, 0, 76, 0
1, 14400, Note_on_c, 0, 74, 80
1, 15359, Note_on_c, 0, 74, 0
1, 15360, Note_on_c, 0, 71, 80
1, 15599, Note_on_c, 0, 71, 0
1, 15600, Note_on_c, 0, 69, 80
1, 15839, Note_on_c, 0, 69, 0
1, 15840, Note_on_c, 0, 71, 80
1, 16079, Note_on_c, 0, 71, 0
1, 16080, Note_on_c, 0, 72, 80
1, 16319, Note_on_c, 0, 72, 0
1, 16320, Note_on_c, 0, 74, 80
1, 16559, Note_on_c, 0, 74, 0
1, 16560, Note_on_c, 0, 69, 80
1, 16799, Note_on_c, 0, 69, 0
1, 16800, Note_on_c, 0, 74, 80
1, 17039, Note_on_c, 0, 74, 0
1, 17040, Note_on_c, 0, 72, 80
1, 17279, Note_on_c, 0, 72, 0
1, 17280, Note_on_c, 0, 67, 80
1, 17280, Note_on_c, 0, 71, 80
1, 17519, Note_on_c, 0, 67, 0
1, 17519, Note_on_c, 0, 71, 0
1, 17520, Note_on_c, 0, 66, 80
1, 17520, Note_on_c, 0, 74, 80
1, 17759, Note_on_c, 0, 66, 0
1, 17759, Note_on_c, 0, 74, 0
1, 17760, Note_on_c, 0, 67, 80
1, 17760, Note_on_c, 0, 79, 80
1, 17999, Note_on_c, 0, 67, 0
1, 18000, Note_on_c, 0, 69, 80
1, 18239, Note_on_c, 0, 69, 0
1, 18239, Note_on_c, 0, 79, 0
1, 18240, Note_on_c, 0, 71, 80
1, 18240, Note_on_c, 0, 79, 80
1, 18479, Note_on_c, 0, 71, 0
1, 18479, Note_on_c, 0, 79, 0
1, 18480, Note_on_c, 0, 66, 80
1, 18480, Note_on_c, 0, 81, 80
1, 18599, Note_on_c, 0, 81, 0
1, 18600, Note_on_c, 0, 79, 80
1, 18719, Note_on_c, 0, 66, 0
1, 18719, Note_on_c, 0, 79, 0
1, 18720, Note_on_c, 0, 71, 80
1, 18720, Note_on_c, 0, 78, 80
1, 18959, Note_on_c, 0, 71, 0
1, 18960, Note_on_c, 0, 69, 80
1, 19199, Note_on_c, 0, 69, 0
1, 19199, Note_on_c, 0, 78, 0
1, 19200, Note_on_c, 0, 67, 80
1, 19200, Note_on_c, 0, 79, 80
1, 19439, Note_on_c, 0, 67, 0
1, 19439, Note_on_c, 0, 79, 0
1, 19440, Note_on_c, 0, 71, 80
1, 19440, Note_on_c, 0, 78, 80
1, 19679, Note_on_c, 0, 71, 0
1, 19679, Note_on_c, 0, 78, 0
1, 19680, Note_on_c, 0, 76, 80
1, 19680, Note_on_c, 0, 79, 80
1, 19919, Note_on_c, 0, 79, 0
1, 19920, Note_on_c, 0, 81, 80
1, 20159, Note_on_c, 0, 76, 0
1, 20159, Note_on_c, 0, 81, 0
1, 20160, Note_on_c, 0, 83, 80
1, 20399, Note_on_c, 0, 83, 0
1, 20400, Note_on_c, 0, 78, 80
1, 20520, Note_on_c, 0, 76, 80
1, 20639, Note_on_c, 0, 76, 0
1, 20639, Note_on_c, 0, 78, 0
1, 20640, Note_on_c, 0, 74, 80
1, 20640, Note_on_c, 0, 83, 80
1, 20879, Note_on_c, 0, 83, 0
1, 20880, Note_on_c, 0, 81, 80
1, 21119, Note_on_c, 0, 74, 0
1, 21119, Note_on_c, 0, 81, 0
1, 21120, Note_on_c, 0, 76, 80
1, 21120, Note_on_c, 0, 79, 80
1, 21359, Note_on_c, 0, 76, 0
1, 21359, Note_on_c, 0, 79, 0
1, 21360, Note_on_c, 0, 74, 80
1, 21360, Note_on_c, 0, 81, 80
1, 21479, Note_on_c, 0, 81, 0
1, 21480, Note_on_c, 0, 83, 80
1, 21599, Note_on_c, 0, 74, 0
1, 21599, Note_on_c, 0, 83, 0
1, 21600, Note_on_c, 0, 76, 80
1, 21600, Note_on_c, 0, 84, 80
1, 21839, Note_on_c, 0, 76, 0
1, 21840, Note_on_c, 0, 78, 80
1, 22079, Note_on_c, 0, 78, 0
1, 22079, Note_on_c, 0, 84, 0
1, 22080, Note_on_c, 0, 79, 80
1, 22319, Note_on_c, 0, 79, 0
1, 22320, Note_on_c, 0, 74, 80
1, 22320, Note_on_c, 0, 83, 80
1, 22439, Note_on_c, 0, 83, 0
1, 22440, Note_on_c, 0, 81, 80
1, 22559, Note_on_c, 0, 74, 0
1, 22559, Note_on_c, 0, 81, 0
1, 22560, Note_on_c, 0, 79, 80
1, 22560, Note_on_c, 0, 83, 80
1, 22799, Note_on_c, 0, 79, 0
1, 22799, Note_on_c, 0, 83, 0
1, 22800, Note_on_c, 0, 78, 80
1, 22800, Note_on_c, 0, 71, 80
1, 23039, Note_on_c, 0, 78, 0
1, 23039, Note_on_c, 0, 71, 0
1, 23040, Note_on_c, 0, 76, 80
1, 23040, Note_on_c, 0, 73, 80
1, 23279, Note_on_c, 0, 76, 0
1, 23279, Note_on_c, 0, 73, 0
1, 23280, Note_on_c, 0, 78, 80
1, 23280, Note_on_c, 0, 71, 80
1, 23399, Note_on_c, 0, 78, 0
1, 23400, Note_on_c, 0, 79, 80
1, 23519, Note_on_c, 0, 79, 0
1, 23519, Note_on_c, 0, 71, 0
1, 23520, Note_on_c, 0, 81, 80
1, 23520, Note_on_c, 0, 73, 80
1, 23759, Note_on_c, 0, 73, 0
1, 23760, Note_on_c, 0, 75, 80
1, 23999, Note_on_c, 0, 81, 0
1, 23999, Note_on_c, 0, 75, 0
1, 24000, Note_on_c, 0, 76, 80
1, 24239, Note_on_c, 0, 76, 0
1, 24240, Note_on_c, 0, 79, 80
1, 24240, Note_on_c, 0, 71, 80
1, 24359, Note_on_c, 0, 79, 0
1, 24360, Note_on_c, 0, 78, 80
1, 24479, Note_on_c, 0, 78, 0
1, 24479, Note_on_c, 0, 71, 0
1, 24480, Note_on_c, 0, 79, 80
1, 24480, Note_on_c, 0, 76, 80
1, 24719, Note_on_c, 0, 79, 0
1, 24719, Note_on_c, 0, 76, 0
1, 24720, Note_on_c, 0, 67, 80
1, 24720, Note_on_c, 0, 74, 80
1, 24959, Note_on_c, 0, 67, 0
1, 24959, Note_on_c, 0, 74, 0
1, 24960, Note_on_c, 0, 69, 80
1, 24960, Note_on_c, 0, 72, 80
1, 25199, Note_on_c, 0, 69, 0
1, 25199, Note_on_c, 0, 72, 0
1, 25200, Note_on_c, 0, 67, 80
1, 25200, Note_on_c, 0, 74, 80
1, 25319, Note_on_c, 0, 74, 0
1, 25320, Note_on_c, 0, 76, 80
1, 25439, Note_on_c, 0, 67, 0
1, 25439, Note_on_c, 0, 76, 0
1, 25440, Note_on_c, 0, 69, 80
1, 25440, Note_on_c, 0, 77, 80
1, 25679, Note_on_c, 0, 69, 0
1, 25680, Note_on_c, 0, 71, 80
1, 25919, Note_on_c, 0, 71, 0
1, 25919, Note_on_c, 0, 77, 0
1, 25920, Note_on_c, 0, 72, 80
1, 26159, Note_on_c, 0, 72, 0
1, 26160, Note_on_c, 0, 67, 80
1, 26160, Note_on_c, 0, 76, 80
1, 26279, Note_on_c, 0, 76, 0
1, 26280, Note_on_c, 0, 74, 80
1, 26399, Note_on_c, 0, 67, 0
1, 26399, Note_on_c, 0, 74, 0
1, 26400, Note_on_c, 0, 72, 80
1, 26400, Note_on_c, 0, 76, 80
1, 26519, Note_on_c, 0, 76, 0
1, 26520, Note_on_c, 0, 78, 80
1, 26639, Note_on_c, 0, 72, 0
1, 26639, Note_on_c, 0, 78, 0
1, 26640, Note_on_c, 0, 71, 80
1, 26640, Note_on_c, 0, 79, 80
1, 26879, Note_on_c, 0, 71, 0
1, 26879, Note_on_c, 0, 79, 0
1, 26880, Note_on_c, 0, 69, 80
1, 27119, Note_on_c, 0, 69, 0
1, 27120, Note_on_c, 0, 71, 80
1, 27120, Note_on_c, 0, 78, 80
1, 27239, Note_on_c, 0, 71, 0
1, 27240, Note_on_c, 0, 73, 80
1, 27359, Note_on_c, 0, 73, 0
1, 27360, Note_on_c, 0, 74, 80
1, 27599, Note_on_c, 0, 78, 0
1, 27600, Note_on_c, 0, 76, 80
1, 27839, Note_on_c, 0, 74, 0
1, 27839, Note_on_c, 0, 76, 0
1, 27840, Note_on_c, 0, 78, 80
1, 28079, Note_on_c, 0, 78, 0
1, 28080, Note_on_c, 0, 73, 80
1, 28080, Note_on_c, 0, 79, 80
1, 28199, Note_on_c, 0, 73, 0
1, 28200, Note_on_c, 0, 71, 80
1, 28319, Note_on_c, 0, 71, 0
1, 28319, Note_on_c, 0, 79, 0
1, 28320, Note_on_c, 0, 73, 80
1, 28320, Note_on_c, 0, 81, 80
1, 28439, Note_on_c, 0, 73, 0
1, 28440, Note_on_c, 0, 74, 80
1, 28559, Note_on_c, 0, 74, 0
1, 28559, Note_on_c, 0, 81, 0
1, 28560, Note_on_c, 0, 76, 80
1, 28560, Note_on_c, 0, 79, 80
1, 28799, Note_on_c, 0, 76, 0
1, 28799, Note_on_c, 0, 79, 0
1, 28800, Note_on_c, 0, 76, 80
1, 28800, Note_on_c, 0, 78, 80
1, 29039, Note_on_c, 0, 76, 0
1, 29040, Note_on_c, 0, 74, 80
1, 29279, Note_on_c, 0, 78, 0
1, 29280, Note_on_c, 0, 76, 80
1, 29519, Note_on_c, 0, 74, 0
1, 29520, Note_on_c, 0, 73, 80
1, 29759, Note_on_c, 0, 73, 0
1, 29759, Note_on_c, 0, 76, 0
1, 29760, Note_on_c, 0, 74, 80
1, 30719, Note_on_c, 0, 74, 0
1, 30720, Note_on_c, 0, 78, 80
1, 30959, Note_on_c, 0, 78, 0
1, 30960, Note_on_c, 0, 74, 80
1, 31199, Note_on_c, 0, 74, 0
1, 31200, Note_on_c, 0, 76, 80
1, 31439, Note_on_c, 0, 76, 0
1, 31440, Note_on_c, 0, 78, 80
1, 31679, Note_on_c, 0, 78, 0
1, 31680, Note_on_c, 0, 79, 80
1, 31919, Note_on_c, 0, 79, 0
1, 31920, Note_on_c, 0, 74, 80
1, 32159, Note_on_c, 0, 74, 0
1, 32160, Note_on_c, 0, 79, 80
1, 32399, Note_on_c, 0, 79, 0
1, 32400, Note_on_c, 0, 81, 80
1, 32639, Note_on_c, 0, 81, 0
1, 32640, Note_on_c, 0, 74, 80
1, 32640, Note_on_c, 0, 83, 80
1, 32879, Note_on_c, 0, 74, 0
1, 32879, Note_on_c, 0, 83, 0
1, 32880, Note_on_c, 0, 71, 80
1, 32880, Note_on_c, 0, 76, 80
1, 33119, Note_on_c, 0, 71, 0
1, 33119, Note_on_c, 0, 76, 0
1, 33120, Note_on_c, 0, 73, 80
1, 33120, Note_on_c, 0, 81, 80
1, 33359, Note_on_c, 0, 73, 0
1, 33360, Note_on_c, 0, 75, 80
1, 33599, Note_on_c, 0, 75, 0
1, 33599, Note_on_c, 0, 81, 0
1, 33600, Note_on_c, 0, 76, 80
1, 33600, Note_on_c, 0, 81, 80
1, 33839, Note_on_c, 0, 76, 0
1, 33839, Note_on_c, 0, 81, 0
1, 33840, Note_on_c, 0, 71, 80
1, 33840, Note_on_c, 0, 79, 80
1, 33959, Note_on_c, 0, 79, 0
1, 33960, Note_on_c, 0, 78, 80
1, 34079, Note_on_c, 0, 71, 0
1, 34079, Note_on_c, 0, 78, 0
1, 34080, Note_on_c, 0, 76, 80
1, 34080, Note_on_c, 0, 79, 80
1, 34319, Note_on_c, 0, 76, 0
1, 34319, Note_on_c, 0, 79, 0
1, 34320, Note_on_c, 0, 78, 80
1, 34559, Note_on_c, 0, 78, 0
1, 34560, Note_on_c, 0, 79, 80
1, 34799, Note_on_c, 0, 79, 0
1, 34800, Note_on_c, 0, 73, 80
1, 34800, Note_on_c, 0, 76, 80
1, 35039, Note_on_c, 0, 73, 0
1, 35040, Note_on_c, 0, 77, 80
1, 35279, Note_on_c, 0, 76, 0
1, 35280, Note_on_c, 0, 74, 80
1, 35399, Note_on_c, 0, 74, 0
1, 35400, Note_on_c, 0, 72, 80
1, 35519, Note_on_c, 0, 77, 0
1, 35519, Note_on_c, 0, 72, 0
1, 35520, Note_on_c, 0, 71, 80
1, 35639, Note_on_c, 0, 71, 0
1, 35640, Note_on_c, 0, 69, 80
1, 35759, Note_on_c, 0, 69, 0
1, 35760, Note_on_c, 0, 76, 80
1, 35760, Note_on_c, 0, 67, 80
1, 35879, Note_on_c, 0, 76, 0
1, 35879, Note_on_c, 0, 67, 0
1, 35880, Note_on_c, 0, 75, 80
1, 35880, Note_on_c, 0, 66, 80
1, 35999, Note_on_c, 0, 75, 0
1, 35999, Note_on_c, 0, 66, 0
1, 36000, Note_on_c, 0, 76, 80
1, 36000, Note_on_c, 0, 67, 80
1, 36119, Note_on_c, 0, 67, 0
1, 36120, Note_on_c, 0, 69, 80
1, 36239, Note_on_c, 0, 76, 0
1, 36239, Note_on_c, 0, 69, 0
1, 36240, Note_on_c, 0, 71, 80
1, 36359, Note_on_c, 0, 71, 0
1, 36360, Note_on_c, 0, 67, 80
1, 36390, Note_on_c, 0, 65, 80
1, 36479, Note_on_c, 0, 65, 0
1, 36479, Note_on_c, 0, 67, 0
1, 36480, Note_on_c, 0, 64, 80
1, 36720, Note_on_c, 0, 74, 80
1, 36779, Note_on_c, 0, 74, 0
1, 36780, Note_on_c, 0, 72, 80
1, 36839, Note_on_c, 0, 72, 0
1, 36839, Note_on_c, 0, 64, 0
1, 36840, Note_on_c, 0, 74, 80
1, 36840, Note_on_c, 0, 66, 80
1, 36899, Note_on_c, 0, 74, 0
1, 36900, Note_on_c, 0, 72, 80
1, 36959, Note_on_c, 0, 72, 0
1, 36959, Note_on_c, 0, 66, 0
1, 36960, Note_on_c, 0, 74, 80
1, 36960, Note_on_c, 0, 63, 80
1, 37019, Note_on_c, 0, 74, 0
1, 37020, Note_on_c, 0, 72, 80
1, 37079, Note_on_c, 0, 72, 0
1, 37080, Note_on_c, 0, 74, 80
1, 37139, Note_on_c, 0, 74, 0
1, 37140, Note_on_c, 0, 72, 80
1, 37199, Note_on_c, 0, 72, 0
1, 37200, Note_on_c, 0, 71, 80
1, 37319, Note_on_c, 0, 71, 0
1, 37320, Note_on_c, 0, 69, 80
1, 37439, Note_on_c, 0, 69, 0
1, 37439, Note_on_c, 0, 63, 0
1, 37440, Note_on_c, 0, 67, 80
1, 37440, Note_on_c, 0, 64, 80
1, 37559, Note_on_c, 0, 67, 0
1, 37560, Note_on_c, 0, 66, 80
1, 37679, Note_on_c, 0, 66, 0
1, 37679, Note_on_c, 0, 64, 0
1, 37680, Note_on_c, 0, 64, 80
1, 37799, Note_on_c, 0, 64, 0
1, 37800, Note_on_c, 0, 63, 80
1, 37919, Note_on_c, 0, 63, 0
1, 37920, Note_on_c, 0, 64, 80
1, 37920, Note_on_c, 0, 71, 80
1, 38039, Note_on_c, 0, 64, 0
1, 38040, Note_on_c, 0, 66, 80
1, 38159, Note_on_c, 0, 66, 0
1, 38160, Note_on_c, 0, 67, 80
1, 38279, Note_on_c, 0, 67, 0
1, 38280, Note_on_c, 0, 64, 80
1, 38399, Note_on_c, 0, 64, 0
1, 38399, Note_on_c, 0, 71, 0
1, 38400, Note_on_c, 0, 62, 80
1, 38639, Note_on_c, 0, 62, 0
1, 38640, Note_on_c, 0, 60, 80
1, 38640, Note_on_c, 0, 69, 80
1, 38760, Note_on_c, 0, 62, 80
1, 38879, Note_on_c, 0, 62, 0
1, 38880, Note_on_c, 0, 62, 80
1, 38939, Note_on_c, 0, 62, 0
1, 38940, Note_on_c, 0, 60, 80
1, 38999, Note_on_c, 0, 60, 0
1, 38999, Note_on_c, 0, 60, 0
1, 39000, Note_on_c, 0, 62, 80
1, 39059, Note_on_c, 0, 62, 0
1, 39060, Note_on_c, 0, 60, 80
1, 39119, Note_on_c, 0, 60, 0
1, 39119, Note_on_c, 0, 69, 0
1, 39120, Note_on_c, 0, 62, 80
1, 39120, Note_on_c, 0, 68, 80
1, 39179, Note_on_c, 0, 62, 0
1, 39180, Note_on_c, 0, 60, 80
1, 39239, Note_on_c, 0, 60, 0
1, 39240, Note_on_c, 0, 62, 80
1, 39299, Note_on_c, 0, 62, 0
1, 39300, Note_on_c, 0, 60, 80
1, 39359, Note_on_c, 0, 60, 0
1, 39359, Note_on_c, 0, 68, 0
1, 39360, Note_on_c, 0, 60, 80
1, 39360, Note_on_c, 0, 69, 80
1, 39599, Note_on_c, 0, 60, 0
1, 39599, Note_on_c, 0, 69, 0
1, 39600, Note_on_c, 0, 72, 80
1, 39719, Note_on_c, 0, 72, 0
1, 39720, Note_on_c, 0, 71, 80
1, 39839, Note_on_c, 0, 71, 0
1, 39840, Note_on_c, 0, 67, 80
1, 39840, Note_on_c, 0, 72, 80
1, 39959, Note_on_c, 0, 72, 0
1, 39960, Note_on_c, 0, 76, 80
1, 40079, Note_on_c, 0, 76, 0
1, 40080, Note_on_c, 0, 74, 80
1, 40199, Note_on_c, 0, 74, 0
1, 40200, Note_on_c, 0, 72, 80
1, 40319, Note_on_c, 0, 67, 0
1, 40319, Note_on_c, 0, 72, 0
1, 40320, Note_on_c, 0, 71, 80
1, 40560, Note_on_c, 0, 66, 80
1, 40799, Note_on_c, 0, 71, 0
1, 40800, Note_on_c, 0, 73, 80
1, 41039, Note_on_c, 0, 66, 0
1, 41040, Note_on_c, 0, 64, 80
1, 41279, Note_on_c, 0, 64, 0
1, 41279, Note_on_c, 0, 73, 0
1, 41280, Note_on_c, 0, 66, 80
1, 41280, Note_on_c, 0, 74, 80
1, 41519, Note_on_c, 0, 66, 0
1, 41520, Note_on_c, 0, 69, 80
1, 41639, Note_on_c, 0, 69, 0
1, 41640, Note_on_c, 0, 67, 80
1, 41759, Note_on_c, 0, 67, 0
1, 41760, Note_on_c, 0, 69, 80
1, 41879, Note_on_c, 0, 69, 0
1, 41880, Note_on_c, 0, 72, 80
1, 41999, Note_on_c, 0, 72, 0
1, 42000, Note_on_c, 0, 71, 80
1, 42119, Note_on_c, 0, 71, 0
1, 42120, Note_on_c, 0, 69, 80
1, 42239, Note_on_c, 0, 69, 0
1, 42239, Note_on_c, 0, 74, 0
1, 42240, Note_on_c, 0, 67, 80
1, 42480, Note_on_c, 0, 79, 80
1, 42719, Note_on_c, 0, 67, 0
1, 42719, Note_on_c, 0, 79, 0
1, 42720, Note_on_c, 0, 69, 80
1, 42720, Note_on_c, 0, 78, 80
1, 42959, Note_on_c, 0, 78, 0
1, 42960, Note_on_c, 0, 76, 80
1, 43199, Note_on_c, 0, 69, 0
1, 43199, Note_on_c, 0, 76, 0
1, 43200, Note_on_c, 0, 71, 80
1, 43200, Note_on_c, 0, 74, 80
1, 43439, Note_on_c, 0, 74, 0
1, 43440, Note_on_c, 0, 79, 80
1, 43559, Note_on_c, 0, 79, 0
1, 43560, Note_on_c, 0, 78, 80
1, 43679, Note_on_c, 0, 78, 0
1, 43680, Note_on_c, 0, 79, 80
1, 43799, Note_on_c, 0, 79, 0
1, 43800, Note_on_c, 0, 81, 80
1, 43919, Note_on_c, 0, 81, 0
1, 43920, Note_on_c, 0, 83, 80
1, 44159, Note_on_c, 0, 71, 0
1, 44159, Note_on_c, 0, 83, 0
1, 44160, Note_on_c, 0, 76, 80
1, 44399, Note_on_c, 0, 76, 0
1, 44400, Note_on_c, 0, 76, 80
1, 44400, Note_on_c, 0, 81, 80
1, 44639, Note_on_c, 0, 76, 0
1, 44639, Note_on_c, 0, 81, 0
1, 44640, Note_on_c, 0, 74, 80
1, 44640, Note_on_c, 0, 79, 80
1, 44699, Note_on_c, 0, 79, 0
1, 44700, Note_on_c, 0, 78, 80
1, 44759, Note_on_c, 0, 78, 0
1, 44760, Note_on_c, 0, 79, 80
1, 44819, Note_on_c, 0, 79, 0
1, 44820, Note_on_c, 0, 78, 80
1, 44879, Note_on_c, 0, 74, 0
1, 44879, Note_on_c, 0, 78, 0
1, 44880, Note_on_c, 0, 72, 80
1, 44880, Note_on_c, 0, 79, 80
1, 44939, Note_on_c, 0, 79, 0
1, 44940, Note_on_c, 0, 78, 80
1, 44999, Note_on_c, 0, 78, 0
1, 45000, Note_on_c, 0, 79, 80
1, 45119, Note_on_c, 0, 72, 0
1, 45119, Note_on_c, 0, 79, 0
1, 45120, Note_on_c, 0, 71, 80
1, 45120, Note_on_c, 0, 79, 80
1, 46079, Note_on_c, 0, 71, 0
1, 46079, Note_on_c, 0, 79, 0
1, 46080, Note_on_c, 0, 78, 80
1, 46319, Note_on_c, 0, 78, 0
1, 46320, Note_on_c, 0, 74, 80
1, 46559, Note_on_c, 0, 74, 0
1, 46560, Note_on_c, 0, 76, 80
1, 46799, Note_on_c, 0, 76, 0
1, 46800, Note_on_c, 0, 78, 80
1, 47039, Note_on_c, 0, 78, 0
1, 47040, Note_on_c, 0, 79, 80
1, 47279, Note_on_c, 0, 79, 0
1, 47280, Note_on_c, 0, 74, 80
1, 47519, Note_on_c, 0, 74, 0
1, 47520, Note_on_c, 0, 79, 80
1, 47759, Note_on_c, 0, 79, 0
1, 47760, Note_on_c, 0, 81, 80
1, 47999, Note_on_c, 0, 81, 0
1, 48000, Note_on_c, 0, 74, 80
1, 48000, Note_on_c, 0, 83, 80
1, 48239, Note_on_c, 0, 74, 0
1, 48239, Note_on_c, 0, 83, 0
1, 48240, Note_on_c, 0, 71, 80
1, 48240, Note_on_c, 0, 76, 80
1, 48479, Note_on_c, 0, 71, 0
1, 48479, Note_on_c, 0, 76, 0
1, 48480, Note_on_c, 0, 73, 80
1, 48480, Note_on_c, 0, 81, 80
1, 48719, Note_on_c, 0, 73, 0
1, 48720, Note_on_c, 0, 75, 80
1, 48959, Note_on_c, 0, 75, 0
1, 48959, Note_on_c, 0, 81, 0
1, 48960, Note_on_c, 0, 76, 80
1, 48960, Note_on_c, 0, 81, 80
1, 49199, Note_on_c, 0, 76, 0
1, 49199, Note_on_c, 0, 81, 0
1, 49200, Note_on_c, 0, 71, 80
1, 49200, Note_on_c, 0, 79, 80
1, 49319, Note_on_c, 0, 79, 0
1, 49320, Note_on_c, 0, 78, 80
1, 49439, Note_on_c, 0, 71, 0
1, 49439, Note_on_c, 0, 78, 0
1, 49440, Note_on_c, 0, 76, 80
1, 49440, Note_on_c, 0, 79, 80
1, 49679, Note_on_c, 0, 76, 0
1, 49679, Note_on_c, 0, 79, 0
1, 49680, Note_on_c, 0, 78, 80
1, 49919, Note_on_c, 0, 78, 0
1, 49920, Note_on_c, 0, 79, 80
1, 50159, Note_on_c, 0, 79, 0
1, 50160, Note_on_c, 0, 73, 80
1, 50160, Note_on_c, 0, 76, 80
1, 50399, Note_on_c, 0, 73, 0
1, 50400, Note_on_c, 0, 77, 80
1, 50639, Note_on_c, 0, 76, 0
1, 50640, Note_on_c, 0, 74, 80
1, 50759, Note_on_c, 0, 74, 0
1, 50760, Note_on_c, 0, 72, 80
1, 50879, Note_on_c, 0, 77, 0
1, 50879, Note_on_c, 0, 72, 0
1, 50880, Note_on_c, 0, 71, 80
1, 50999, Note_on_c, 0, 71, 0
1, 51000, Note_on_c, 0, 69, 80
1, 51119, Note_on_c, 0, 69, 0
1, 51120, Note_on_c, 0, 76, 80
1, 51120, Note_on_c, 0, 67, 80
1, 51239, Note_on_c, 0, 76, 0
1, 51239, Note_on_c, 0, 67, 0
1, 51240, Note_on_c, 0, 75, 80
1, 51240, Note_on_c, 0, 66, 80
1, 51359, Note_on_c, 0, 75, 0
1, 51359, Note_on_c, 0, 66, 0
1, 51360, Note_on_c, 0, 76, 80
1, 51360, Note_on_c, 0, 67, 80
1, 51479, Note_on_c, 0, 67, 0
1, 51480, Note_on_c, 0, 69, 80
1, 51599, Note_on_c, 0, 76, 0
1, 51599, Note_on_c, 0, 69, 0
1, 51600, Note_on_c, 0, 71, 80
1, 51719, Note_on_c, 0, 71, 0
1, 51720, Note_on_c, 0, 67, 80
1, 51750, Note_on_c, 0, 65, 80
1, 51839, Note_on_c, 0, 65, 0
1, 51839, Note_on_c, 0, 67, 0
1, 51840, Note_on_c, 0, 64, 80
1, 52080, Note_on_c, 0, 74, 80
1, 52139, Note_on_c, 0, 74, 0
1, 52140, Note_on_c, 0, 72, 80
1, 52199, Note_on_c, 0, 72, 0
1, 52199, Note_on_c, 0, 64, 0
1, 52200, Note_on_c, 0, 74, 80
1, 52200, Note_on_c, 0, 66, 80
1, 52259, Note_on_c, 0, 74, 0
1, 52260, Note_on_c, 0, 72, 80
1, 52319, Note_on_c, 0, 72, 0
1, 52319, Note_on_c, 0, 66, 0
1, 52320, Note_on_c, 0, 74, 80
1, 52320, Note_on_c, 0, 63, 80
1, 52379, Note_on_c, 0, 74, 0
1, 52380, Note_on_c, 0, 72, 80
1, 52439, Note_on_c, 0, 72, 0
1, 52440, Note_on_c, 0, 74, 80
1, 52499, Note_on_c, 0, 74, 0
1, 52500, Note_on_c, 0, 72, 80
1, 52559, Note_on_c, 0, 72, 0
1, 52560, Note_on_c, 0, 71, 80
1, 52679, Note_on_c, 0, 71, 0
1, 52680, Note_on_c, 0, 69, 80
1, 52799, Note_on_c, 0, 69, 0
1, 52799, Note_on_c, 0, 63, 0
1, 52800, Note_on_c, 0, 67, 80
1, 52800, Note_on_c, 0, 64, 80
1, 52919, Note_on_c, 0, 67, 0
1, 52920, Note_on_c, 0, 66, 80
1, 53039, Note_on_c, 0, 66, 0
1, 53039, Note_on_c, 0, 64, 0
1, 53040, Note_on_c, 0, 64, 80
1, 53159, Note_on_c, 0, 64, 0
1, 53160, Note_on_c, 0, 63, 80
1, 53279, Note_on_c, 0, 63, 0
1, 53280, Note_on_c, 0, 64, 80
1, 53280, Note_on_c, 0, 71, 80
1, 53399, Note_on_c, 0, 64, 0
1, 53400, Note_on_c, 0, 66, 80
1, 53519, Note_on_c, 0, 66, 0
1, 53520, Note_on_c, 0, 67, 80
1, 53639, Note_on_c, 0, 67, 0
1, 53640, Note_on_c, 0, 64, 80
1, 53759, Note_on_c, 0, 64, 0
1, 53759, Note_on_c, 0, 71, 0
1, 53760, Note_on_c, 0, 62, 80
1, 53999, Note_on_c, 0, 62, 0
1, 54000, Note_on_c, 0, 60, 80
1, 54000, Note_on_c, 0, 69, 80
1, 54120, Note_on_c, 0, 62, 80
1, 54239, Note_on_c, 0, 62, 0
1, 54240, Note_on_c, 0, 62, 80
1, 54299, Note_on_c, 0, 62, 0
1, 54300, Note_on_c, 0, 60, 80
1, 54359, Note_on_c, 0, 60, 0
1, 54359, Note_on_c, 0, 60, 0
1, 54360, Note_on_c, 0, 62, 80
1, 54419, Note_on_c, 0, 62, 0
1, 54420, Note_on_c, 0, 60, 80
1, 54479, Note_on_c, 0, 60, 0
1, 54479, Note_on_c, 0, 69, 0
1, 54480, Note_on_c, 0, 62, 80
1, 54480, Note_on_c, 0, 68, 80
1, 54539, Note_on_c, 0, 62, 0
1, 54540, Note_on_c, 0, 60, 80
1, 54599, Note_on_c, 0, 60, 0
1, 54600, Note_on_c, 0, 62, 80
1, 54659, Note_on_c, 0, 62, 0
1, 54660, Note_on_c, 0, 60, 80
1, 54719, Note_on_c, 0, 60, 0
1, 54719, Note_on_c, 0, 68, 0
1, 54720, Note_on_c, 0, 60, 80
1, 54720, Note_on_c, 0, 69, 80
1, 54959, Note_on_c, 0, 60, 0
1, 54959, Note_on_c, 0, 69, 0
1, 54960, Note_on_c, 0, 72, 80
1, 55079, Note_on_c, 0, 72, 0
1, 55080, Note_on_c, 0, 71, 80
1, 55199, Note_on_c, 0, 71, 0
1, 55200, Note_on_c, 0, 67, 80
1, 55200, Note_on_c, 0, 72, 80
1, 55319, Note_on_c, 0, 72, 0
1, 55320, Note_on_c, 0, 76, 80
1, 55439, Note_on_c, 0, 76, 0
1, 55440, Note_on_c, 0, 74, 80
1, 55559, Note_on_c, 0, 74, 0
1, 55560, Note_on_c, 0, 72, 80
1, 55679, Note_on_c, 0, 67, 0
1, 55679, Note_on_c, 0, 72, 0
1, 55680, Note_on_c, 0, 71, 80
1, 55920, Note_on_c, 0, 66, 80
1, 56159, Note_on_c, 0, 71, 0
1, 56160, Note_on_c, 0, 73, 80
1, 56399, Note_on_c, 0, 66, 0
1, 56400, Note_on_c, 0, 64, 80
1, 56639, Note_on_c, 0, 64, 0
1, 56639, Note_on_c, 0, 73, 0
1, 56640, Note_on_c, 0, 66, 80
1, 56640, Note_on_c, 0, 74, 80
1, 56879, Note_on_c, 0, 66, 0
1, 56880, Note_on_c, 0, 69, 80
1, 56999, Note_on_c, 0, 69, 0
1, 57000, Note_on_c, 0, 67, 80
1, 57119, Note_on_c, 0, 67, 0
1, 57120, Note_on_c, 0, 69, 80
1, 57239, Note_on_c, 0, 69, 0
1, 57240, Note_on_c, 0, 72, 80
1, 57359, Note_on_c, 0, 72, 0
1, 57360, Note_on_c, 0, 71, 80
1, 57479, Note_on_c, 0, 71, 0
1, 57480, Note_on_c, 0, 69, 80
1, 57599, Note_on_c, 0, 69, 0
1, 57599, Note_on_c, 0, 74, 0
1, 57600, Note_on_c, 0, 67, 80
1, 57840, Note_on_c, 0, 79, 80
1, 58079, Note_on_c, 0, 67, 0
1, 58079, Note_on_c, 0, 79, 0
1, 58080, Note_on_c, 0, 69, 80
1, 58080, Note_on_c, 0, 78, 80
1, 58319, Note_on_c, 0, 78, 0
1, 58320, Note_on_c, 0, 76, 80
1, 58559, Note_on_c, 0, 69, 0
1, 58559, Note_on_c, 0, 76, 0
1, 58560, Note_on_c, 0, 71, 80
1, 58560, Note_on_c, 0, 74, 80
1, 58799, Note_on_c, 0, 74, 0
1, 58800, Note_on_c, 0, 79, 80
1, 58919, Note_on_c, 0, 79, 0
1, 58920, Note_on_c, 0, 78, 80
1, 59039, Note_on_c, 0, 78, 0
1, 59040, Note_on_c, 0, 79, 80
1, 59159, Note_on_c, 0, 79, 0
1, 59160, Note_on_c, 0, 81, 80
1, 59279, Note_on_c, 0, 81, 0
1, 59280, Note_on_c, 0, 83, 80
1, 59519, Note_on_c, 0, 71, 0
1, 59519, Note_on_c, 0, 83, 0
1, 59520, Note_on_c, 0, 76, 80
1, 59759, Note_on_c, 0, 76, 0
1, 59760, Note_on_c, 0, 76, 80
1, 59760, Note_on_c, 0, 81, 80
1, 59999, Note_on_c, 0, 76, 0
1, 59999, Note_on_c, 0, 81, 0
1, 60000, Note_on_c, 0, 74, 80
1, 60000, Note_on_c, 0, 79, 80
1, 60059, Note_on_c, 0, 79, 0
1, 60060, Note_on_c, 0, 78, 80
1, 60119, Note_on_c, 0, 78, 0
1, 60120, Note_on_c, 0, 79, 80
1, 60179, Note_on_c, 0, 79, 0
1, 60180, Note_on_c, 0, 78, 80
1, 60239, Note_on_c, 0, 74, 0
1, 60239, Note_on_c, 0, 78, 0
1, 60240, Note_on_c, 0, 72, 80
1, 60240, Note_on_c, 0, 79, 80
1, 60299, Note_on_c, 0, 79, 0
1, 60300, Note_on_c, 0, 78, 80
1, 60359, Note_on_c, 0, 78, 0
1, 60360, Note_on_c, 0, 79, 80
1, 60479, Note_on_c, 0, 72, 0
1, 60479, Note_on_c, 0, 79, 0
1, 60480, Note_on_c, 0, 71, 80
1, 60480, Note_on_c, 0, 79, 80
1, 61439, Note_on_c, 0, 71, 0
1, 61439, Note_on_c, 0, 79, 0
1, 61440, End_track
2, 0, Start_track
2, 0, Key_signature, 1, "major"
2, 0, Note_on_c, 0, 43, 80
2, 479, Note_on_c, 0, 43, 0
2, 480, Note_on_c, 0, 55, 80
2, 959, Note_on_c, 0, 55, 0
2, 1200, Note_on_c, 0, 54, 80
2, 1319, Note_on_c, 0, 54, 0
2, 1320, Note_on_c, 0, 52, 80
2, 1439, Note_on_c, 0, 52, 0
2, 1440, Note_on_c, 0, 54, 80
2, 1679, Note_on_c, 0, 54, 0
2, 1680, Note_on_c, 0, 50, 80
2, 1919, Note_on_c, 0, 50, 0
2, 1920, Note_on_c, 0, 55, 80
2, 2159, Note_on_c, 0, 55, 0
2, 2160, Note_on_c, 0, 57, 80
2, 2399, Note_on_c, 0, 57, 0
2, 2400, Note_on_c, 0, 59, 80
2, 2639, Note_on_c, 0, 59, 0
2, 2640, Note_on_c, 0, 60, 80
2, 2879, Note_on_c, 0, 60, 0
2, 2880, Note_on_c, 0, 62, 80
2, 3599, Note_on_c, 0, 62, 0
2, 3600, Note_on_c, 0, 63, 80
2, 3839, Note_on_c, 0, 63, 0
2, 3840, Note_on_c, 0, 64, 80
2, 4319, Note_on_c, 0, 64, 0
2, 4560, Note_on_c, 0, 60, 80
2, 4799, Note_on_c, 0, 60, 0
2, 4800, Note_on_c, 0, 55, 80
2, 5039, Note_on_c, 0, 55, 0
2, 5040, Note_on_c, 0, 62, 80
2, 5279, Note_on_c, 0, 62, 0
2, 5280, Note_on_c, 0, 67, 80
2, 5519, Note_on_c, 0, 67, 0
2, 5520, Note_on_c, 0, 69, 80
2, 5639, Note_on_c, 0, 69, 0
2, 5640, Note_on_c, 0, 71, 80
2, 5759, Note_on_c, 0, 71, 0
2, 5760, Note_on_c, 0, 72, 80
2, 5999, Note_on_c, 0, 72, 0
2, 6000, Note_on_c, 0, 71, 80
2, 6239, Note_on_c, 0, 71, 0
2, 6240, Note_on_c, 0, 69, 80
2, 6479, Note_on_c, 0, 69, 0
2, 6480, Note_on_c, 0, 74, 80
2, 6719, Note_on_c, 0, 74, 0
2, 6720, Note_on_c, 0, 67, 80
2, 7679, Note_on_c, 0, 67, 0
2, 7920, Note_on_c, 0, 55, 80
2, 8399, Note_on_c, 0, 55, 0
2, 8400, Note_on_c, 0, 54, 80
2, 8639, Note_on_c, 0, 54, 0
2, 8640, Note_on_c, 0, 52, 80
2, 8879, Note_on_c, 0, 52, 0
2, 8880, Note_on_c, 0, 64, 80
2, 8999, Note_on_c, 0, 64, 0
2, 9000, Note_on_c, 0, 63, 80
2, 9119, Note_on_c, 0, 63, 0
2, 9120, Note_on_c, 0, 64, 80
2, 9599, Note_on_c, 0, 64, 0
2, 9840, Note_on_c, 0, 52, 80
2, 10319, Note_on_c, 0, 52, 0
2, 10320, Note_on_c, 0, 50, 80
2, 10559, Note_on_c, 0, 50, 0
2, 10560, Note_on_c, 0, 48, 80
2, 10799, Note_on_c, 0, 48, 0
2, 10800, Note_on_c, 0, 60, 80
2, 10919, Note_on_c, 0, 60, 0
2, 10920, Note_on_c, 0, 59, 80
2, 11039, Note_on_c, 0, 59, 0
2, 11040, Note_on_c, 0, 60, 80
2, 11159, Note_on_c, 0, 60, 0
2, 11160, Note_on_c, 0, 62, 80
2, 11279, Note_on_c, 0, 62, 0
2, 11280, Note_on_c, 0, 64, 80
2, 11399, Note_on_c, 0, 64, 0
2, 11400, Note_on_c, 0, 62, 80
2, 11519, Note_on_c, 0, 62, 0
2, 11520, Note_on_c, 0, 61, 80
2, 11639, Note_on_c, 0, 61, 0
2, 11640, Note_on_c, 0, 57, 80
2, 11759, Note_on_c, 0, 57, 0
2, 11760, Note_on_c, 0, 62, 80
2, 11879, Note_on_c, 0, 62, 0
2, 11880, Note_on_c, 0, 61, 80
2, 11999, Note_on_c, 0, 61, 0
2, 12000, Note_on_c, 0, 59, 80
2, 12119, Note_on_c, 0, 59, 0
2, 12120, Note_on_c, 0, 57, 80
2, 12239, Note_on_c, 0, 57, 0
2, 12240, Note_on_c, 0, 59, 80
2, 12359, Note_on_c, 0, 59, 0
2, 12360, Note_on_c, 0, 56, 80
2, 12479, Note_on_c, 0, 56, 0
2, 12480, Note_on_c, 0, 57, 80
2, 12599, Note_on_c, 0, 57, 0
2, 12600, Note_on_c, 0, 59, 80
2, 12719, Note_on_c, 0, 59, 0
2, 12720, Note_on_c, 0, 57, 80
2, 12839, Note_on_c, 0, 57, 0
2, 12840, Note_on_c, 0, 55, 80
2, 12959, Note_on_c, 0, 55, 0
2, 12960, Note_on_c, 0, 54, 80
2, 13079, Note_on_c, 0, 54, 0
2, 13080, Note_on_c, 0, 52, 80
2, 13199, Note_on_c, 0, 52, 0
2, 13200, Note_on_c, 0, 50, 80
2, 13319, Note_on_c, 0, 50, 0
2, 13320, Note_on_c, 0, 49, 80
2, 13439, Note_on_c, 0, 49, 0
2, 13440, Note_on_c, 0, 50, 80
2, 13559, Note_on_c, 0, 50, 0
2, 13560, Note_on_c, 0, 49, 80
2, 13679, Note_on_c, 0, 49, 0
2, 13680, Note_on_c, 0, 47, 80
2, 13799, Note_on_c, 0, 47, 0
2, 13800, Note_on_c, 0, 45, 80
2, 13919, Note_on_c, 0, 45, 0
2, 13920, Note_on_c, 0, 43, 80
2, 14039, Note_on_c, 0, 43, 0
2, 14040, Note_on_c, 0, 40, 80
2, 14159, Note_on_c, 0, 40, 0
2, 14160, Note_on_c, 0, 45, 80
2, 14399, Note_on_c, 0, 45, 0
2, 14400, Note_on_c, 0, 38, 80
2, 14639, Note_on_c, 0, 38, 0
2, 14640, Note_on_c, 0, 42, 80
2, 14759, Note_on_c, 0, 42, 0
2, 14760, Note_on_c, 0, 45, 80
2, 14879, Note_on_c, 0, 45, 0
2, 14880, Note_on_c, 0, 50, 80
2, 15359, Note_on_c, 0, 50, 0
2, 15360, Note_on_c, 0, 43, 80
2, 15839, Note_on_c, 0, 43, 0
2, 15840, Note_on_c, 0, 55, 80
2, 16319, Note_on_c, 0, 55, 0
2, 16560, Note_on_c, 0, 54, 80
2, 16679, Note_on_c, 0, 54, 0
2, 16680, Note_on_c, 0, 52, 80
2, 16799, Note_on_c, 0, 52, 0
2, 16800, Note_on_c, 0, 54, 80
2, 17039, Note_on_c, 0, 54, 0
2, 17040, Note_on_c, 0, 50, 80
2, 17279, Note_on_c, 0, 50, 0
2, 17280, Note_on_c, 0, 55, 80
2, 17519, Note_on_c, 0, 55, 0
2, 17520, Note_on_c, 0, 57, 80
2, 17759, Note_on_c, 0, 57, 0
2, 17760, Note_on_c, 0, 59, 80
2, 17999, Note_on_c, 0, 59, 0
2, 18000, Note_on_c, 0, 60, 80
2, 18239, Note_on_c, 0, 60, 0
2, 18240, Note_on_c, 0, 62, 80
2, 18959, Note_on_c, 0, 62, 0
2, 18960, Note_on_c, 0, 63, 80
2, 19199, Note_on_c, 0, 63, 0
2, 19200, Note_on_c, 0, 64, 80
2, 19679, Note_on_c, 0, 64, 0
2, 19920, Note_on_c, 0, 60, 80
2, 20159, Note_on_c, 0, 60, 0
2, 20160, Note_on_c, 0, 55, 80
2, 20399, Note_on_c, 0, 55, 0
2, 20400, Note_on_c, 0, 62, 80
2, 20639, Note_on_c, 0, 62, 0
2, 20640, Note_on_c, 0, 67, 80
2, 20879, Note_on_c, 0, 67, 0
2, 20880, Note_on_c, 0, 69, 80
2, 20999, Note_on_c, 0, 69, 0
2, 21000, Note_on_c, 0, 71, 80
2, 21119, Note_on_c, 0, 71, 0
2, 21120, Note_on_c, 0, 72, 80
2, 21359, Note_on_c, 0, 72, 0
2, 21360, Note_on_c, 0, 71, 80
2, 21599, Note_on_c, 0, 71, 0
2, 21600, Note_on_c, 0, 69, 80
2, 21839, Note_on_c, 0, 69, 0
2, 21840, Note_on_c, 0, 74, 80
2, 22079, Note_on_c, 0, 74, 0
2, 22080, Note_on_c, 0, 67, 80
2, 23039, Note_on_c, 0, 67, 0
2, 23280, Note_on_c, 0, 55, 80
2, 23759, Note_on_c, 0, 55, 0
2, 23760, Note_on_c, 0, 54, 80
2, 23999, Note_on_c, 0, 54, 0
2, 24000, Note_on_c, 0, 52, 80
2, 24239, Note_on_c, 0, 52, 0
2, 24240, Note_on_c, 0, 64, 80
2, 24359, Note_on_c, 0, 64, 0
2, 24360, Note_on_c, 0, 63, 80
2, 24479, Note_on_c, 0, 63, 0
2, 24480, Note_on_c, 0, 64, 80
2, 24959, Note_on_c, 0, 64, 0
2, 25200, Note_on_c, 0, 52, 80
2, 25679, Note_on_c, 0, 52, 0
2, 25680, Note_on_c, 0, 50, 80
2, 25919, Note_on_c, 0, 50, 0
2, 25920, Note_on_c, 0, 48, 80
2, 26159, Note_on_c, 0, 48, 0
2, 26160, Note_on_c, 0, 60, 80
2, 26279, Note_on_c, 0, 60, 0
2, 26280, Note_on_c, 0, 59, 80
2, 26399, Note_on_c, 0, 59, 0
2, 26400, Note_on_c, 0, 60, 80
2, 26519, Note_on_c, 0, 60, 0
2, 26520, Note_on_c, 0, 62, 80
2, 26639, Note_on_c, 0, 62, 0
2, 26640, Note_on_c, 0, 64, 80
2, 26759, Note_on_c, 0, 64, 0
2, 26760, Note_on_c, 0, 62, 80
2, 26879, Note_on_c, 0, 62, 0
2, 26880, Note_on_c, 0, 61, 80
2, 26999, Note_on_c, 0, 61, 0
2, 27000, Note_on_c, 0, 57, 80
2, 27119, Note_on_c, 0, 57, 0
2, 27120, Note_on_c, 0, 62, 80
2, 27239, Note_on_c, 0, 62, 0
2, 27240, Note_on_c, 0, 61, 80
2, 27359, Note_on_c, 0, 61, 0
2, 27360, Note_on_c, 0, 59, 80
2, 27479, Note_on_c, 0, 59, 0
2, 27480, Note_on_c, 0, 57, 80
2, 27599, Note_on_c, 0, 57, 0
2, 27600, Note_on_c, 0, 59, 80
2, 27719, Note_on_c, 0, 59, 0
2, 27720, Note_on_c, 0, 56, 80
2, 27839, Note_on_c, 0, 56, 0
2, 27840, Note_on_c, 0, 57, 80
2, 27959, Note_on_c, 0, 57, 0
2, 27960, Note_on_c, 0, 59, 80
2, 28079, Note_on_c, 0, 59, 0
2, 28080, Note_on_c, 0, 57, 80
2, 28199, Note_on_c, 0, 57, 0
2, 28200, Note_on_c, 0, 55, 80
2, 28319, Note_on_c, 0, 55, 0
2, 28320, Note_on_c, 0, 54, 80
2, 28439, Note_on_c, 0, 54, 0
2, 28440, Note_on_c, 0, 52, 80
2, 28559, Note_on_c, 0, 52, 0
2, 28560, Note_on_c, 0, 50, 80
2, 28679, Note_on_c, 0, 50, 0
2, 28680, Note_on_c, 0, 49, 80
2, 28799, Note_on_c, 0, 49, 0
2, 28800, Note_on_c, 0, 50, 80
2, 28919, Note_on_c, 0, 50, 0
2, 28920, Note_on_c, 0, 49, 80
2, 29039, Note_on_c, 0, 49, 0
2, 29040, Note_on_c, 0, 47, 80
2, 29159, Note_on_c, 0, 47, 0
2, 29160, Note_on_c, 0, 45, 80
2, 29279, Note_on_c, 0, 45, 0
2, 29280, Note_on_c, 0, 43, 80
2, 29399, Note_on_c, 0, 43, 0
2, 29400, Note_on_c, 0, 40, 80
2, 29519, Note_on_c, 0, 40, 0
2, 29520, Note_on_c, 0, 45, 80
2, 29759, Note_on_c, 0, 45, 0
2, 29760, Note_on_c, 0, 38, 80
2, 29999, Note_on_c, 0, 38, 0
2, 30000, Note_on_c, 0, 42, 80
2, 30119, Note_on_c, 0, 42, 0
2, 30120, Note_on_c, 0, 45, 80
2, 30239, Note_on_c, 0, 45, 0
2, 30240, Note_on_c, 0, 50, 80
2, 30719, Note_on_c, 0, 50, 0
2, 30720, Note_on_c, 0, 50, 80
2, 30959, Note_on_c, 0, 50, 0
2, 30960, Note_on_c, 0, 62, 80
2, 31439, Note_on_c, 0, 62, 0
2, 31440, Note_on_c, 0, 60, 80
2, 31679, Note_on_c, 0, 60, 0
2, 31680, Note_on_c, 0, 59, 80
2, 31799, Note_on_c, 0, 59, 0
2, 31800, Note_on_c, 0, 57, 80
2, 31919, Note_on_c, 0, 57, 0
2, 31920, Note_on_c, 0, 59, 80
2, 32039, Note_on_c, 0, 59, 0
2, 32040, Note_on_c, 0, 60, 80
2, 32159, Note_on_c, 0, 60, 0
2, 32160, Note_on_c, 0, 59, 80
2, 32279, Note_on_c, 0, 59, 0
2, 32280, Note_on_c, 0, 57, 80
2, 32399, Note_on_c, 0, 57, 0
2, 32400, Note_on_c, 0, 55, 80
2, 32519, Note_on_c, 0, 55, 0
2, 32520, Note_on_c, 0, 54, 80
2, 32639, Note_on_c, 0, 54, 0
2, 32640, Note_on_c, 0, 55, 80
2, 32879, Note_on_c, 0, 55, 0
2, 32880, Note_on_c, 0, 67, 80
2, 33359, Note_on_c, 0, 67, 0
2, 33360, Note_on_c, 0, 66, 80
2, 33599, Note_on_c, 0, 66, 0
2, 33600, Note_on_c, 0, 64, 80
2, 33719, Note_on_c, 0, 64, 0
2, 33720, Note_on_c, 0, 63, 80
2, 33839, Note_on_c, 0, 63, 0
2, 33840, Note_on_c, 0, 64, 80
2, 33959, Note_on_c, 0, 64, 0
2, 33960, Note_on_c, 0, 66, 80
2, 34079, Note_on_c, 0, 66, 0
2, 34080, Note_on_c, 0, 64, 80
2, 34199, Note_on_c, 0, 64, 0
2, 34200, Note_on_c, 0, 62, 80
2, 34319, Note_on_c, 0, 62, 0
2, 34320, Note_on_c, 0, 60, 80
2, 34439, Note_on_c, 0, 60, 0
2, 34440, Note_on_c, 0, 59, 80
2, 34559, Note_on_c, 0, 59, 0
2, 34560, Note_on_c, 0, 58, 80
2, 34679, Note_on_c, 0, 58, 0
2, 34680, Note_on_c, 0, 64, 80
2, 34799, Note_on_c, 0, 64, 0
2, 34800, Note_on_c, 0, 66, 80
2, 34919, Note_on_c, 0, 66, 0
2, 34920, Note_on_c, 0, 67, 80
2, 35039, Note_on_c, 0, 67, 0
2, 35040, Note_on_c, 0, 69, 80
2, 35279, Note_on_c, 0, 69, 0
2, 35280, Note_on_c, 0, 57, 80
2, 35519, Note_on_c, 0, 57, 0
2, 35520, Note_on_c, 0, 55, 80
2, 35639, Note_on_c, 0, 55, 0
2, 35640, Note_on_c, 0, 57, 80
2, 35759, Note_on_c, 0, 57, 0
2, 35760, Note_on_c, 0, 59, 80
2, 35879, Note_on_c, 0, 59, 0
2, 35880, Note_on_c, 0, 55, 80
2, 35999, Note_on_c, 0, 55, 0
2, 36000, Note_on_c, 0, 52, 80
2, 36119, Note_on_c, 0, 52, 0
2, 36120, Note_on_c, 0, 54, 80
2, 36239, Note_on_c, 0, 54, 0
2, 36240, Note_on_c, 0, 55, 80
2, 36359, Note_on_c, 0, 55, 0
2, 36360, Note_on_c, 0, 52, 80
2, 36479, Note_on_c, 0, 52, 0
2, 36480, Note_on_c, 0, 60, 80
2, 36719, Note_on_c, 0, 60, 0
2, 36720, Note_on_c, 0, 57, 80
2, 36959, Note_on_c, 0, 57, 0
2, 36960, Note_on_c, 0, 59, 80
2, 37199, Note_on_c, 0, 59, 0
2, 37200, Note_on_c, 0, 47, 80
2, 37439, Note_on_c, 0, 47, 0
2, 37440, Note_on_c, 0, 40, 80
2, 37919, Note_on_c, 0, 40, 0
2, 38160, Note_on_c, 0, 52, 80
2, 38399, Note_on_c, 0, 52, 0
2, 38640, Note_on_c, 0, 48, 80
2, 38879, Note_on_c, 0, 48, 0
2, 38880, Note_on_c, 0, 50, 80
2, 39119, Note_on_c, 0, 50, 0
2, 39120, Note_on_c, 0, 52, 80
2, 39359, Note_on_c, 0, 52, 0
2, 39360, Note_on_c, 0, 45, 80
2, 39599, Note_on_c, 0, 45, 0
2, 39600, Note_on_c, 0, 57, 80
2, 39839, Note_on_c, 0, 57, 0
2, 39840, Note_on_c, 0, 52, 80
2, 39959, Note_on_c, 0, 52, 0
2, 39960, Note_on_c, 0, 50, 80
2, 40079, Note_on_c, 0, 50, 0
2, 40080, Note_on_c, 0, 52, 80
2, 40199, Note_on_c, 0, 52, 0
2, 40200, Note_on_c, 0, 54, 80
2, 40319, Note_on_c, 0, 54, 0
2, 40320, Note_on_c, 0, 55, 80
2, 40439, Note_on_c, 0, 55, 0
2, 40440, Note_on_c, 0, 57, 80
2, 40559, Note_on_c, 0, 57, 0
2, 40560, Note_on_c, 0, 59, 80
2, 40679, Note_on_c, 0, 59, 0
2, 40680, Note_on_c, 0, 55, 80
2, 40799, Note_on_c, 0, 55, 0
2, 40800, Note_on_c, 0, 57, 80
2, 40919, Note_on_c, 0, 57, 0
2, 40920, Note_on_c, 0, 54, 80
2, 41039, Note_on_c, 0, 54, 0
2, 41040, Note_on_c, 0, 55, 80
2, 41159, Note_on_c, 0, 55, 0
2, 41160, Note_on_c, 0, 57, 80
2, 41279, Note_on_c, 0, 57, 0
2, 41280, Note_on_c, 0, 50, 80
2, 41399, Note_on_c, 0, 50, 0
2, 41400, Note_on_c, 0, 52, 80
2, 41519, Note_on_c, 0, 52, 0
2, 41520, Note_on_c, 0, 54, 80
2, 41639, Note_on_c, 0, 54, 0
2, 41640, Note_on_c, 0, 55, 80
2, 41759, Note_on_c, 0, 55, 0
2, 41760, Note_on_c, 0, 54, 80
2, 41879, Note_on_c, 0, 54, 0
2, 41880, Note_on_c, 0, 52, 80
2, 41999, Note_on_c, 0, 52, 0
2, 42000, Note_on_c, 0, 50, 80
2, 42119, Note_on_c, 0, 50, 0
2, 42120, Note_on_c, 0, 48, 80
2, 42239, Note_on_c, 0, 48, 0
2, 42240, Note_on_c, 0, 47, 80
2, 42359, Note_on_c, 0, 47, 0
2, 42360, Note_on_c, 0, 43, 80
2, 42479, Note_on_c, 0, 43, 0
2, 42480, Note_on_c, 0, 45, 80
2, 42599, Note_on_c, 0, 45, 0
2, 42600, Note_on_c, 0, 47, 80
2, 42719, Note_on_c, 0, 47, 0
2, 42720, Note_on_c, 0, 48, 80
2, 42839, Note_on_c, 0, 48, 0
2, 42840, Note_on_c, 0, 50, 80
2, 42959, Note_on_c, 0, 50, 0
2, 42960, Note_on_c, 0, 52, 80
2, 43079, Note_on_c, 0, 52, 0
2, 43080, Note_on_c, 0, 54, 80
2, 43199, Note_on_c, 0, 54, 0
2, 43200, Note_on_c, 0, 55, 80
2, 43319, Note_on_c, 0, 55, 0
2, 43320, Note_on_c, 0, 57, 80
2, 43439, Note_on_c, 0, 57, 0
2, 43440, Note_on_c, 0, 59, 80
2, 43559, Note_on_c, 0, 59, 0
2, 43560, Note_on_c, 0, 57, 80
2, 43679, Note_on_c, 0, 57, 0
2, 43680, Note_on_c, 0, 55, 80
2, 43799, Note_on_c, 0, 55, 0
2, 43800, Note_on_c, 0, 54, 80
2, 43919, Note_on_c, 0, 54, 0
2, 43920, Note_on_c, 0, 52, 80
2, 44039, Note_on_c, 0, 52, 0
2, 44040, Note_on_c, 0, 50, 80
2, 44159, Note_on_c, 0, 50, 0
2, 44160, Note_on_c, 0, 48, 80
2, 44279, Note_on_c, 0, 48, 0
2, 44280, Note_on_c, 0, 47, 80
2, 44399, Note_on_c, 0, 47, 0
2, 44400, Note_on_c, 0, 48, 80
2, 44519, Note_on_c, 0, 48, 0
2, 44520, Note_on_c, 0, 45, 80
2, 44639, Note_on_c, 0, 45, 0
2, 44640, Note_on_c, 0, 50, 80
2, 44879, Note_on_c, 0, 50, 0
2, 44880, Note_on_c, 0, 40, 80
2, 45119, Note_on_c, 0, 40, 0
2, 45120, Note_on_c, 0, 43, 80
2, 45359, Note_on_c, 0, 43, 0
2, 45360, Note_on_c, 0, 47, 80
2, 45479, Note_on_c, 0, 47, 0
2, 45480, Note_on_c, 0, 50, 80
2, 45599, Note_on_c, 0, 50, 0
2, 45600, Note_on_c, 0, 55, 80
2, 46079, Note_on_c, 0, 55, 0
2, 46080, Note_on_c, 0, 50, 80
2, 46319, Note_on_c, 0, 50, 0
2, 46320, Note_on_c, 0, 62, 80
2, 46799, Note_on_c, 0, 62, 0
2, 46800, Note_on_c, 0, 60, 80
2, 47039, Note_on_c, 0, 60, 0
2, 47040, Note_on_c, 0, 59, 80
2, 47159, Note_on_c, 0, 59, 0
2, 47160, Note_on_c, 0, 57, 80
2, 47279, Note_on_c, 0, 57, 0
2, 47280, Note_on_c, 0, 59, 80
2, 47399, Note_on_c, 0, 59, 0
2, 47400, Note_on_c, 0, 60, 80
2, 47519, Note_on_c, 0, 60, 0
2, 47520, Note_on_c, 0, 59, 80
2, 47639, Note_on_c, 0, 59, 0
2, 47640, Note_on_c, 0, 57, 80
2, 47759, Note_on_c, 0, 57, 0
2, 47760, Note_on_c, 0, 55, 80
2, 47879, Note_on_c, 0, 55, 0
2, 47880, Note_on_c, 0, 54, 80
2, 47999, Note_on_c, 0, 54, 0
2, 48000, Note_on_c, 0, 55, 80
2, 48239, Note_on_c, 0, 55, 0
2, 48240, Note_on_c, 0, 67, 80
2, 48719, Note_on_c, 0, 67, 0
2, 48720, Note_on_c, 0, 66, 80
2, 48959, Note_on_c, 0, 66, 0
2, 48960, Note_on_c, 0, 64, 80
2, 49079, Note_on_c, 0, 64, 0
2, 49080, Note_on_c, 0, 63, 80
2, 49199, Note_on_c, 0, 63, 0
2, 49200, Note_on_c, 0, 64, 80
2, 49319, Note_on_c, 0, 64, 0
2, 49320, Note_on_c, 0, 66, 80
2, 49439, Note_on_c, 0, 66, 0
2, 49440, Note_on_c, 0, 64, 80
2, 49559, Note_on_c, 0, 64, 0
2, 49560, Note_on_c, 0, 62, 80
2, 49679, Note_on_c, 0, 62, 0
2, 49680, Note_on_c, 0, 60, 80
2, 49799, Note_on_c, 0, 60, 0
2, 49800, Note_on_c, 0, 59, 80
2, 49919, Note_on_c, 0, 59, 0
2, 49920, Note_on_c, 0, 58, 80
2, 50039, Note_on_c, 0, 58, 0
2, 50040, Note_on_c, 0, 64, 80
2, 50159, Note_on_c, 0, 64, 0
2, 50160, Note_on_c, 0, 66, 80
2, 50279, Note_on_c, 0, 66, 0
2, 50280, Note_on_c, 0, 67, 80
2, 50399, Note_on_c, 0, 67, 0
2, 50400, Note_on_c, 0, 69, 80
2, 50639, Note_on_c, 0, 69, 0
2, 50640, Note_on_c, 0, 57, 80
2, 50879, Note_on_c, 0, 57, 0
2, 50880, Note_on_c, 0, 55, 80
2, 50999, Note_on_c, 0, 55, 0
2, 51000, Note_on_c, 0, 57, 80
2, 51119, Note_on_c, 0, 57, 0
2, 51120, Note_on_c, 0, 59, 80
2, 51239, Note_on_c, 0, 59, 0
2, 51240, Note_on_c, 0, 55, 80
2, 51359, Note_on_c, 0, 55, 0
2, 51360, Note_on_c, 0, 52, 80
2, 51479, Note_on_c, 0, 52, 0
2, 51480, Note_on_c, 0, 54, 80
2, 51599, Note_on_c, 0, 54, 0
2, 51600, Note_on_c, 0, 55, 80
2, 51719, Note_on_c, 0, 55, 0
2, 51720, Note_on_c, 0, 52, 80
2, 51839, Note_on_c, 0, 52, 0
2, 51840, Note_on_c, 0, 60, 80
2, 52079, Note_on_c, 0, 60, 0
2, 52080, Note_on_c, 0, 57, 80
2, 52319, Note_on_c, 0, 57, 0
2, 52320, Note_on_c, 0, 59, 80
2, 52559, Note_on_c, 0, 59, 0
2, 52560, Note_on_c, 0, 47, 80
2, 52799, Note_on_c, 0, 47, 0
2, 52800, Note_on_c, 0, 40, 80
2, 53279, Note_on_c, 0, 40, 0
2, 53520, Note_on_c, 0, 52, 80
2, 53759, Note_on_c, 0, 52, 0
2, 54000, Note_on_c, 0, 48, 80
2, 54239, Note_on_c, 0, 48, 0
2, 54240, Note_on_c, 0, 50, 80
2, 54479, Note_on_c, 0, 50, 0
2, 54480, Note_on_c, 0, 52, 80
2, 54719, Note_on_c, 0, 52, 0
2, 54720, Note_on_c, 0, 45, 80
2, 54959, Note_on_c, 0, 45, 0
2, 54960, Note_on_c, 0, 57, 80
2, 55199, Note_on_c, 0, 57, 0
2, 55200, Note_on_c, 0, 52, 80
2, 55319, Note_on_c, 0, 52, 0
2, 55320, Note_on_c, 0, 50, 80
2, 55439, Note_on_c, 0, 50, 0
2, 55440, Note_on_c, 0, 52, 80
2, 55559, Note_on_c, 0, 52, 0
2, 55560, Note_on_c, 0, 54, 80
2, 55679, Note_on_c, 0, 54, 0
2, 55680, Note_on_c, 0, 55, 80
2, 55799, Note_on_c, 0, 55, 0
2, 55800, Note_on_c, 0, 57, 80
2, 55919, Note_on_c, 0, 57, 0
2, 55920, Note_on_c, 0, 59, 80
2, 56039, Note_on_c, 0, 59, 0
2, 56040, Note_on_c, 0, 55, 80
2, 56159, Note_on_c, 0, 55, 0
2, 56160, Note_on_c, 0, 57, 80
2, 56279, Note_on_c, 0, 57, 0
2, 56280, Note_on_c, 0, 54, 80
2, 56399, Note_on_c, 0, 54, 0
2, 56400, Note_on_c, 0, 55, 80
2, 56519, Note_on_c, 0, 55, 0
2, 56520, Note_on_c, 0, 57, 80
2, 56639, Note_on_c, 0, 57, 0
2, 56640, Note_on_c, 0, 50, 80
2, 56759, Note_on_c, 0, 50, 0
2, 56760, Note_on_c, 0, 52, 80
2, 56879, Note_on_c, 0, 52, 0
2, 56880, Note_on_c, 0, 54, 80
2, 56999, Note_on_c, 0, 54, 0
2, 57000, Note_on_c, 0, 55, 80
2, 57119, Note_on_c, 0, 55, 0
2, 57120, Note_on_c, 0, 54, 80
2, 57239, Note_on_c, 0, 54, 0
2, 57240, Note_on_c, 0, 52, 80
2, 57359, Note_on_c, 0, 52, 0
2, 57360, Note_on_c, 0, 50, 80
2, 57479, Note_on_c, 0, 50, 0
2, 57480, Note_on_c, 0, 48, 80
2, 57599, Note_on_c, 0, 48, 0
2, 57600, Note_on_c, 0, 47, 80
2, 57719, Note_on_c, 0, 47, 0
2, 57720, Note_on_c, 0, 43, 80
2, 57839, Note_on_c, 0, 43, 0
2, 57840, Note_on_c, 0, 45, 80
2, 57959, Note_on_c, 0, 45, 0
2, 57960, Note_on_c, 0, 47, 80
2, 58079, Note_on_c, 0, 47, 0
2, 58080, Note_on_c, 0, 48, 80
2, 58199, Note_on_c, 0, 48, 0
2, 58200, Note_on_c, 0, 50, 80
2, 58319, Note_on_c, 0, 50, 0
2, 58320, Note_on_c, 0, 52, 80
2, 58439, Note_on_c, 0, 52, 0
2, 58440, Note_on_c, 0, 54, 80
2, 58559, Note_on_c, 0, 54, 0
2, 58560, Note_on_c, 0, 55, 80
2, 58679, Note_on_c, 0, 55, 0
2, 58680, Note_on_c, 0, 57, 80
2, 58799, Note_on_c, 0, 57, 0
2, 58800, Note_on_c, 0, 59, 80
2, 58919, Note_on_c, 0, 59, 0
2, 58920, Note_on_c, 0, 57, 80
2, 59039, Note_on_c, 0, 57, 0
2, 59040, Note_on_c, 0, 55, 80
2, 59159, Note_on_c, 0, 55, 0
2, 59160, Note_on_c, 0, 54, 80
2, 59279, Note_on_c, 0, 54, 0
2, 59280, Note_on_c, 0, 52, 80
2, 59399, Note_on_c, 0, 52, 0
2, 59400, Note_on_c, 0, 50, 80
2, 59519, Note_on_c, 0, 50, 0
2, 59520, Note_on_c, 0, 48, 80
2, 59639, Note_on_c, 0, 48, 0
2, 59640, Note_on_c, 0, 47, 80
2, 59759, Note_on_c, 0, 47, 0
2, 59760, Note_on_c, 0, 48, 80
2, 59879, Note_on_c, 0, 48, 0
2, 59880, Note_on_c, 0, 45, 80
2, 59999, Note_on_c, 0, 45, 0
2, 60000, Note_on_c, 0, 50, 80
2, 60239, Note_on_c, 0, 50, 0
2, 60240, Note_on_c, 0, 40, 80
2, 60479, Note_on_c, 0, 40, 0
2, 60480, Note_on_c, 0, 43, 80
2, 60719, Note_on_c, 0, 43, 0
2, 60720, Note_on_c, 0, 47, 80
2, 60839, Note_on_c, 0, 47, 0
2, 60840, Note_on_c, 0, 50, 80
2, 60959, Note_on_c, 0, 50, 0
2, 60960, Note_on_c, 0, 55, 80
2, 61439, Note_on_c, 0, 55, 0
2, 61440, End_track
0, 0, End_of_file
