0, 0, Header, 1, 2, 480
1, 0, Start_track
1, 0, Unknown_meta_event, 8, 30, 68, 97, 110, 99, 101, 32, 79, 102, 32, 84, 104, 101, 32, 83, 117, 103, 97, 114, 32, 80, 108, 117, 109, 32, 70, 97, 105, 114, 121, 0
1, 0, Unknown_meta_event, 10, 12, 84, 99, 104, 97, 105, 107, 111, 118, 115, 107, 121, 0
1, 0, Time_signature, 2, 2, 24, 8
1, 0, Key_signature, 5, "major"
1, 0, Tempo, 1090909
1, 0, Program_c, 0, 0
1, 2, Control_c, 0, 7, 100
1, 4, Control_c, 0, 10, 64
1, 6, Control_c, 0, 91, 30
1, 8, Control_c, 0, 93, 30
1, 240, Note_on_c, 0, 64, 45
1, 240, Note_on_c, 0, 59, 45
1, 240, Note_on_c, 0, 55, 45
1, 478, Note_on_c, 0, 64, 0
1, 478, Note_on_c, 0, 59, 0
1, 478, Note_on_c, 0, 55, 0
1, 720, Note_on_c, 0, 66, 45
1, 720, Note_on_c, 0, 60, 45
1, 720, Note_on_c, 0, 57, 45
1, 958, Note_on_c, 0, 66, 0
1, 958, Note_on_c, 0, 60, 0
1, 958, Note_on_c, 0, 57, 0
1, 1200, Note_on_c, 0, 67, 45
1, 1200, Note_on_c, 0, 61, 45
1, 1200, Note_on_c, 0, 58, 45
1, 1438, Note_on_c, 0, 67, 0
1, 1438, Note_on_c, 0, 61, 0
1, 1438, Note_on_c, 0, 58, 0
1, 1680, Note_on_c, 0, 63, 45
1, 1680, Note_on_c, 0, 60, 45
1, 1680, Note_on_c, 0, 58, 45
1, 1918, Note_on_c, 0, 63, 0
1, 1918, Note_on_c, 0, 60, 0
1, 1918, Note_on_c, 0, 58, 0
1, 2160, Note_on_c, 0, 64, 45
1, 2160, Note_on_c, 0, 59, 45
1, 2160, Note_on_c, 0, 55, 45
1, 2398, Note_on_c, 0, 64, 0
1, 2398, Note_on_c, 0, 59, 0
1, 2398, Note_on_c, 0, 55, 0
1, 2640, Note_on_c, 0, 66, 45
1, 2640, Note_on_c, 0, 60, 45
1, 2640, Note_on_c, 0, 57, 45
1, 2878, Note_on_c, 0, 66, 0
1, 2878, Note_on_c, 0, 60, 0
1, 2878, Note_on_c, 0, 57, 0
1, 3120, Note_on_c, 0, 67, 45
1, 3120, Note_on_c, 0, 61, 45
1, 3120, Note_on_c, 0, 58, 45
1, 3358, Note_on_c, 0, 67, 0
1, 3358, Note_on_c, 0, 61, 0
1, 3358, Note_on_c, 0, 58, 0
1, 3600, Note_on_c, 0, 63, 45
1, 3600, Note_on_c, 0, 60, 45
1, 3600, Note_on_c, 0, 58, 45
1, 3838, Note_on_c, 0, 63, 0
1, 3838, Note_on_c, 0, 60, 0
1, 3838, Note_on_c, 0, 58, 0
1, 4080, Note_on_c, 0, 91, 64
1, 4080, Note_on_c, 0, 83, 64
1, 4169, Note_on_c, 0, 91, 0
1, 4169, Note_on_c, 0, 83, 0
1, 4200, Note_on_c, 0, 88, 64
1, 4200, Note_on_c, 0, 79, 64
1, 4289, Note_on_c, 0, 88, 0
1, 4289, Note_on_c, 0, 79, 0
1, 4320, Note_on_c, 0, 91, 64
1, 4320, Note_on_c, 0, 83, 64
1, 4409, Note_on_c, 0, 91, 0
1, 4409, Note_on_c, 0, 83, 0
1, 4560, Note_on_c, 0, 90, 64
1, 4560, Note_on_c, 0, 81, 64
1, 4649, Note_on_c, 0, 90, 0
1, 4649, Note_on_c, 0, 81, 0
1, 4800, Note_on_c, 0, 87, 64
1, 4800, Note_on_c, 0, 78, 64
1, 4889, Note_on_c, 0, 87, 0
1, 4889, Note_on_c, 0, 78, 0
1, 5040, Note_on_c, 0, 88, 66
1, 5040, Note_on_c, 0, 79, 66
1, 5129, Note_on_c, 0, 88, 0
1, 5129, Note_on_c, 0, 79, 0
1, 5280, Note_on_c, 0, 86, 69
1, 5280, Note_on_c, 0, 80, 69
1, 5280, Note_on_c, 0, 77, 69
1, 5369, Note_on_c, 0, 86, 0
1, 5369, Note_on_c, 0, 80, 0
1, 5369, Note_on_c, 0, 77, 0
1, 5400, Note_on_c, 0, 86, 70
1, 5400, Note_on_c, 0, 80, 70
1, 5400, Note_on_c, 0, 77, 70
1, 5489, Note_on_c, 0, 86, 0
1, 5489, Note_on_c, 0, 80, 0
1, 5489, Note_on_c, 0, 77, 0
1, 5520, Note_on_c, 0, 86, 72
1, 5520, Note_on_c, 0, 80, 72
1, 5520, Note_on_c, 0, 77, 72
1, 5609, Note_on_c, 0, 86, 0
1, 5609, Note_on_c, 0, 80, 0
1, 5609, Note_on_c, 0, 77, 0
1, 5760, Note_on_c, 0, 85, 75
1, 5760, Note_on_c, 0, 82, 75
1, 5760, Note_on_c, 0, 79, 75
1, 5760, Note_on_c, 0, 76, 75
1, 5849, Note_on_c, 0, 85, 0
1, 5849, Note_on_c, 0, 82, 0
1, 5849, Note_on_c, 0, 79, 0
1, 5849, Note_on_c, 0, 76, 0
1, 5880, Note_on_c, 0, 85, 74
1, 5880, Note_on_c, 0, 82, 74
1, 5880, Note_on_c, 0, 79, 74
1, 5880, Note_on_c, 0, 76, 74
1, 5969, Note_on_c, 0, 85, 0
1, 5969, Note_on_c, 0, 82, 0
1, 5969, Note_on_c, 0, 79, 0
1, 5969, Note_on_c, 0, 76, 0
1, 6000, Note_on_c, 0, 85, 73
1, 6000, Note_on_c, 0, 82, 73
1, 6000, Note_on_c, 0, 79, 73
1, 6000, Note_on_c, 0, 76, 73
1, 6089, Note_on_c, 0, 85, 0
1, 6089, Note_on_c, 0, 82, 0
1, 6089, Note_on_c, 0, 79, 0
1, 6089, Note_on_c, 0, 76, 0
1, 6240, Note_on_c, 0, 84, 70
1, 6240, Note_on_c, 0, 81, 70
1, 6240, Note_on_c, 0, 78, 70
1, 6240, Note_on_c, 0, 75, 70
1, 6329, Note_on_c, 0, 84, 0
1, 6329, Note_on_c, 0, 81, 0
1, 6329, Note_on_c, 0, 78, 0
1, 6329, Note_on_c, 0, 75, 0
1, 6360, Note_on_c, 0, 84, 69
1, 6360, Note_on_c, 0, 81, 69
1, 6360, Note_on_c, 0, 78, 69
1, 6360, Note_on_c, 0, 75, 69
1, 6449, Note_on_c, 0, 84, 0
1, 6449, Note_on_c, 0, 81, 0
1, 6449, Note_on_c, 0, 78, 0
1, 6449, Note_on_c, 0, 75, 0
1, 6480, Note_on_c, 0, 84, 67
1, 6480, Note_on_c, 0, 81, 67
1, 6480, Note_on_c, 0, 78, 67
1, 6480, Note_on_c, 0, 75, 67
1, 6569, Note_on_c, 0, 84, 0
1, 6569, Note_on_c, 0, 81, 0
1, 6569, Note_on_c, 0, 78, 0
1, 6569, Note_on_c, 0, 75, 0
1, 6720, Note_on_c, 0, 83, 64
1, 6720, Note_on_c, 0, 79, 64
1, 6809, Note_on_c, 0, 83, 0
1, 6809, Note_on_c, 0, 79, 0
1, 6840, Note_on_c, 0, 88, 64
1, 6929, Note_on_c, 0, 88, 0
1, 6960, Note_on_c, 0, 84, 64
1, 6960, Note_on_c, 0, 81, 64
1, 7049, Note_on_c, 0, 84, 0
1, 7049, Note_on_c, 0, 81, 0
1, 7080, Note_on_c, 0, 88, 64
1, 7169, Note_on_c, 0, 88, 0
1, 7200, Note_on_c, 0, 83, 64
1, 7200, Note_on_c, 0, 79, 64
1, 7289, Note_on_c, 0, 83, 0
1, 7289, Note_on_c, 0, 79, 0
1, 7920, Note_on_c, 0, 79, 65
1, 7920, Note_on_c, 0, 72, 65
1, 8009, Note_on_c, 0, 79, 0
1, 8009, Note_on_c, 0, 72, 0
1, 8040, Note_on_c, 0, 76, 66
1, 8040, Note_on_c, 0, 67, 66
1, 8129, Note_on_c, 0, 76, 0
1, 8129, Note_on_c, 0, 67, 0
1, 8160, Note_on_c, 0, 79, 66
1, 8160, Note_on_c, 0, 72, 66
1, 8249, Note_on_c, 0, 79, 0
1, 8249, Note_on_c, 0, 72, 0
1, 8400, Note_on_c, 0, 78, 68
1, 8400, Note_on_c, 0, 72, 68
1, 8489, Note_on_c, 0, 78, 0
1, 8489, Note_on_c, 0, 72, 0
1, 8640, Note_on_c, 0, 84, 69
1, 8640, Note_on_c, 0, 78, 69
1, 8640, Note_on_c, 0, 75, 69
1, 8729, Note_on_c, 0, 84, 0
1, 8729, Note_on_c, 0, 78, 0
1, 8729, Note_on_c, 0, 75, 0
1, 8880, Note_on_c, 0, 76, 70
1, 8910, Note_on_c, 0, 79, 71
1, 8940, Note_on_c, 0, 83, 71
1, 8969, Note_on_c, 0, 76, 0
1, 8999, Note_on_c, 0, 79, 0
1, 9029, Note_on_c, 0, 83, 0
1, 9120, Note_on_c, 0, 91, 72
1, 9120, Note_on_c, 0, 88, 72
1, 9120, Note_on_c, 0, 85, 72
1, 9120, Note_on_c, 0, 82, 72
1, 9209, Note_on_c, 0, 91, 0
1, 9209, Note_on_c, 0, 88, 0
1, 9209, Note_on_c, 0, 85, 0
1, 9209, Note_on_c, 0, 82, 0
1, 9240, Note_on_c, 0, 91, 72
1, 9240, Note_on_c, 0, 88, 72
1, 9240, Note_on_c, 0, 85, 72
1, 9240, Note_on_c, 0, 82, 72
1, 9329, Note_on_c, 0, 91, 0
1, 9329, Note_on_c, 0, 88, 0
1, 9329, Note_on_c, 0, 85, 0
1, 9329, Note_on_c, 0, 82, 0
1, 9360, Note_on_c, 0, 91, 73
1, 9360, Note_on_c, 0, 88, 73
1, 9360, Note_on_c, 0, 85, 73
1, 9360, Note_on_c, 0, 82, 73
1, 9449, Note_on_c, 0, 91, 0
1, 9449, Note_on_c, 0, 88, 0
1, 9449, Note_on_c, 0, 85, 0
1, 9449, Note_on_c, 0, 82, 0
1, 9600, Note_on_c, 0, 90, 75
1, 9600, Note_on_c, 0, 86, 75
1, 9600, Note_on_c, 0, 83, 75
1, 9600, Note_on_c, 0, 80, 75
1, 9689, Note_on_c, 0, 90, 0
1, 9689, Note_on_c, 0, 86, 0
1, 9689, Note_on_c, 0, 83, 0
1, 9689, Note_on_c, 0, 80, 0
1, 9720, Note_on_c, 0, 90, 74
1, 9720, Note_on_c, 0, 86, 74
1, 9720, Note_on_c, 0, 83, 74
1, 9720, Note_on_c, 0, 80, 74
1, 9809, Note_on_c, 0, 90, 0
1, 9809, Note_on_c, 0, 86, 0
1, 9809, Note_on_c, 0, 83, 0
1, 9809, Note_on_c, 0, 80, 0
1, 9840, Note_on_c, 0, 90, 73
1, 9840, Note_on_c, 0, 86, 73
1, 9840, Note_on_c, 0, 83, 73
1, 9840, Note_on_c, 0, 80, 73
1, 9929, Note_on_c, 0, 90, 0
1, 9929, Note_on_c, 0, 86, 0
1, 9929, Note_on_c, 0, 83, 0
1, 9929, Note_on_c, 0, 80, 0
1, 10080, Note_on_c, 0, 88, 70
1, 10080, Note_on_c, 0, 85, 70
1, 10080, Note_on_c, 0, 82, 70
1, 10080, Note_on_c, 0, 78, 70
1, 10169, Note_on_c, 0, 88, 0
1, 10169, Note_on_c, 0, 85, 0
1, 10169, Note_on_c, 0, 82, 0
1, 10169, Note_on_c, 0, 78, 0
1, 10200, Note_on_c, 0, 88, 69
1, 10200, Note_on_c, 0, 85, 69
1, 10200, Note_on_c, 0, 82, 69
1, 10200, Note_on_c, 0, 78, 69
1, 10289, Note_on_c, 0, 88, 0
1, 10289, Note_on_c, 0, 85, 0
1, 10289, Note_on_c, 0, 82, 0
1, 10289, Note_on_c, 0, 78, 0
1, 10320, Note_on_c, 0, 88, 67
1, 10320, Note_on_c, 0, 85, 67
1, 10320, Note_on_c, 0, 82, 67
1, 10320, Note_on_c, 0, 78, 67
1, 10409, Note_on_c, 0, 88, 0
1, 10409, Note_on_c, 0, 85, 0
1, 10409, Note_on_c, 0, 82, 0
1, 10409, Note_on_c, 0, 78, 0
1, 10560, Note_on_c, 0, 87, 45
1, 10560, Note_on_c, 0, 83, 45
1, 10649, Note_on_c, 0, 87, 0
1, 10649, Note_on_c, 0, 83, 0
1, 10680, Note_on_c, 0, 90, 45
1, 10769, Note_on_c, 0, 90, 0
1, 10800, Note_on_c, 0, 88, 45
1, 10800, Note_on_c, 0, 82, 45
1, 10889, Note_on_c, 0, 88, 0
1, 10889, Note_on_c, 0, 82, 0
1, 10920, Note_on_c, 0, 90, 45
1, 11009, Note_on_c, 0, 90, 0
1, 11040, Note_on_c, 0, 87, 45
1, 11040, Note_on_c, 0, 83, 45
1, 11129, Note_on_c, 0, 87, 0
1, 11129, Note_on_c, 0, 83, 0
1, 11760, Note_on_c, 0, 91, 45
1, 11760, Note_on_c, 0, 83, 45
1, 11849, Note_on_c, 0, 91, 0
1, 11849, Note_on_c, 0, 83, 0
1, 11880, Note_on_c, 0, 88, 45
1, 11880, Note_on_c, 0, 79, 45
1, 11969, Note_on_c, 0, 88, 0
1, 11969, Note_on_c, 0, 79, 0
1, 12000, Note_on_c, 0, 91, 45
1, 12000, Note_on_c, 0, 83, 45
1, 12089, Note_on_c, 0, 91, 0
1, 12089, Note_on_c, 0, 83, 0
1, 12240, Note_on_c, 0, 90, 45
1, 12240, Note_on_c, 0, 81, 45
1, 12329, Note_on_c, 0, 90, 0
1, 12329, Note_on_c, 0, 81, 0
1, 12480, Note_on_c, 0, 87, 45
1, 12480, Note_on_c, 0, 78, 45
1, 12569, Note_on_c, 0, 87, 0
1, 12569, Note_on_c, 0, 78, 0
1, 12720, Note_on_c, 0, 88, 46
1, 12720, Note_on_c, 0, 79, 46
1, 12809, Note_on_c, 0, 88, 0
1, 12809, Note_on_c, 0, 79, 0
1, 12960, Note_on_c, 0, 86, 48
1, 12960, Note_on_c, 0, 80, 48
1, 12960, Note_on_c, 0, 77, 48
1, 13049, Note_on_c, 0, 86, 0
1, 13049, Note_on_c, 0, 80, 0
1, 13049, Note_on_c, 0, 77, 0
1, 13080, Note_on_c, 0, 86, 49
1, 13080, Note_on_c, 0, 80, 49
1, 13080, Note_on_c, 0, 77, 49
1, 13169, Note_on_c, 0, 86, 0
1, 13169, Note_on_c, 0, 80, 0
1, 13169, Note_on_c, 0, 77, 0
1, 13200, Note_on_c, 0, 86, 50
1, 13200, Note_on_c, 0, 80, 50
1, 13200, Note_on_c, 0, 77, 50
1, 13289, Note_on_c, 0, 86, 0
1, 13289, Note_on_c, 0, 80, 0
1, 13289, Note_on_c, 0, 77, 0
1, 13440, Note_on_c, 0, 85, 52
1, 13440, Note_on_c, 0, 82, 52
1, 13440, Note_on_c, 0, 79, 52
1, 13440, Note_on_c, 0, 76, 52
1, 13529, Note_on_c, 0, 85, 0
1, 13529, Note_on_c, 0, 82, 0
1, 13529, Note_on_c, 0, 79, 0
1, 13529, Note_on_c, 0, 76, 0
1, 13560, Note_on_c, 0, 85, 53
1, 13560, Note_on_c, 0, 82, 53
1, 13560, Note_on_c, 0, 79, 53
1, 13560, Note_on_c, 0, 76, 53
1, 13649, Note_on_c, 0, 85, 0
1, 13649, Note_on_c, 0, 82, 0
1, 13649, Note_on_c, 0, 79, 0
1, 13649, Note_on_c, 0, 76, 0
1, 13680, Note_on_c, 0, 85, 54
1, 13680, Note_on_c, 0, 82, 54
1, 13680, Note_on_c, 0, 79, 54
1, 13680, Note_on_c, 0, 76, 54
1, 13769, Note_on_c, 0, 85, 0
1, 13769, Note_on_c, 0, 82, 0
1, 13769, Note_on_c, 0, 79, 0
1, 13769, Note_on_c, 0, 76, 0
1, 13920, Note_on_c, 0, 84, 56
1, 13920, Note_on_c, 0, 81, 56
1, 13920, Note_on_c, 0, 78, 56
1, 13920, Note_on_c, 0, 75, 56
1, 14009, Note_on_c, 0, 84, 0
1, 14009, Note_on_c, 0, 81, 0
1, 14009, Note_on_c, 0, 78, 0
1, 14009, Note_on_c, 0, 75, 0
1, 14040, Note_on_c, 0, 84, 57
1, 14040, Note_on_c, 0, 81, 57
1, 14040, Note_on_c, 0, 78, 57
1, 14040, Note_on_c, 0, 75, 57
1, 14129, Note_on_c, 0, 84, 0
1, 14129, Note_on_c, 0, 81, 0
1, 14129, Note_on_c, 0, 78, 0
1, 14129, Note_on_c, 0, 75, 0
1, 14160, Note_on_c, 0, 84, 58
1, 14160, Note_on_c, 0, 81, 58
1, 14160, Note_on_c, 0, 78, 58
1, 14160, Note_on_c, 0, 75, 58
1, 14249, Note_on_c, 0, 84, 0
1, 14249, Note_on_c, 0, 81, 0
1, 14249, Note_on_c, 0, 78, 0
1, 14249, Note_on_c, 0, 75, 0
1, 14400, Note_on_c, 0, 83, 60
1, 14400, Note_on_c, 0, 79, 60
1, 14489, Note_on_c, 0, 83, 0
1, 14489, Note_on_c, 0, 79, 0
1, 14520, Note_on_c, 0, 88, 59
1, 14609, Note_on_c, 0, 88, 0
1, 14640, Note_on_c, 0, 84, 57
1, 14640, Note_on_c, 0, 81, 57
1, 14729, Note_on_c, 0, 84, 0
1, 14729, Note_on_c, 0, 81, 0
1, 14760, Note_on_c, 0, 88, 55
1, 14849, Note_on_c, 0, 88, 0
1, 14880, Note_on_c, 0, 83, 53
1, 14880, Note_on_c, 0, 79, 53
1, 14969, Note_on_c, 0, 83, 0
1, 14969, Note_on_c, 0, 79, 0
1, 15600, Note_on_c, 0, 76, 45
1, 15600, Note_on_c, 0, 70, 45
1, 15689, Note_on_c, 0, 76, 0
1, 15689, Note_on_c, 0, 70, 0
1, 15720, Note_on_c, 0, 73, 45
1, 15720, Note_on_c, 0, 66, 45
1, 15809, Note_on_c, 0, 73, 0
1, 15809, Note_on_c, 0, 66, 0
1, 15840, Note_on_c, 0, 76, 45
1, 15840, Note_on_c, 0, 70, 45
1, 15929, Note_on_c, 0, 76, 0
1, 15929, Note_on_c, 0, 70, 0
1, 16080, Note_on_c, 0, 75, 45
1, 16080, Note_on_c, 0, 71, 45
1, 16080, Note_on_c, 0, 69, 45
1, 16169, Note_on_c, 0, 75, 0
1, 16169, Note_on_c, 0, 71, 0
1, 16169, Note_on_c, 0, 69, 0
1, 16560, Note_on_c, 0, 74, 45
1, 16560, Note_on_c, 0, 68, 45
1, 16649, Note_on_c, 0, 74, 0
1, 16649, Note_on_c, 0, 68, 0
1, 16680, Note_on_c, 0, 71, 45
1, 16680, Note_on_c, 0, 64, 45
1, 16769, Note_on_c, 0, 71, 0
1, 16769, Note_on_c, 0, 64, 0
1, 16800, Note_on_c, 0, 74, 45
1, 16800, Note_on_c, 0, 68, 45
1, 16889, Note_on_c, 0, 74, 0
1, 16889, Note_on_c, 0, 68, 0
1, 17040, Note_on_c, 0, 73, 45
1, 17040, Note_on_c, 0, 69, 45
1, 17040, Note_on_c, 0, 67, 45
1, 17129, Note_on_c, 0, 73, 0
1, 17129, Note_on_c, 0, 69, 0
1, 17129, Note_on_c, 0, 67, 0
1, 17520, Note_on_c, 0, 72, 47
1, 17520, Note_on_c, 0, 66, 47
1, 17609, Note_on_c, 0, 72, 0
1, 17609, Note_on_c, 0, 66, 0
1, 17640, Note_on_c, 0, 69, 48
1, 17640, Note_on_c, 0, 62, 48
1, 17729, Note_on_c, 0, 69, 0
1, 17729, Note_on_c, 0, 62, 0
1, 17760, Note_on_c, 0, 72, 49
1, 17760, Note_on_c, 0, 66, 49
1, 17849, Note_on_c, 0, 72, 0
1, 17849, Note_on_c, 0, 66, 0
1, 18000, Note_on_c, 0, 71, 52
1, 18000, Note_on_c, 0, 67, 52
1, 18089, Note_on_c, 0, 71, 0
1, 18089, Note_on_c, 0, 67, 0
1, 18480, Note_on_c, 0, 71, 56
1, 18538, Note_on_c, 0, 71, 0
1, 18540, Note_on_c, 0, 75, 57
1, 18598, Note_on_c, 0, 75, 0
1, 18600, Note_on_c, 0, 78, 58
1, 18658, Note_on_c, 0, 78, 0
1, 18660, Note_on_c, 0, 83, 58
1, 18718, Note_on_c, 0, 83, 0
1, 18720, Note_on_c, 0, 76, 59
1, 18809, Note_on_c, 0, 76, 0
1, 19320, Note_on_c, 0, 73, 45
1, 19320, Note_on_c, 0, 67, 45
1, 19320, Note_on_c, 0, 64, 45
1, 19438, Note_on_c, 0, 73, 0
1, 19438, Note_on_c, 0, 67, 0
1, 19438, Note_on_c, 0, 64, 0
1, 19560, Note_on_c, 0, 75, 45
1, 19560, Note_on_c, 0, 69, 45
1, 19560, Note_on_c, 0, 66, 45
1, 19678, Note_on_c, 0, 75, 0
1, 19678, Note_on_c, 0, 69, 0
1, 19678, Note_on_c, 0, 66, 0
1, 19800, Note_on_c, 0, 76, 45
1, 19800, Note_on_c, 0, 73, 45
1, 19800, Note_on_c, 0, 67, 45
1, 19918, Note_on_c, 0, 76, 0
1, 19918, Note_on_c, 0, 73, 0
1, 19918, Note_on_c, 0, 67, 0
1, 20040, Note_on_c, 0, 78, 45
1, 20040, Note_on_c, 0, 75, 45
1, 20040, Note_on_c, 0, 69, 45
1, 20158, Note_on_c, 0, 78, 0
1, 20158, Note_on_c, 0, 75, 0
1, 20158, Note_on_c, 0, 69, 0
1, 20280, Note_on_c, 0, 79, 45
1, 20280, Note_on_c, 0, 76, 45
1, 20280, Note_on_c, 0, 71, 45
1, 20398, Note_on_c, 0, 79, 0
1, 20398, Note_on_c, 0, 76, 0
1, 20398, Note_on_c, 0, 71, 0
1, 20520, Note_on_c, 0, 76, 45
1, 20520, Note_on_c, 0, 73, 45
1, 20520, Note_on_c, 0, 67, 45
1, 20638, Note_on_c, 0, 76, 0
1, 20638, Note_on_c, 0, 73, 0
1, 20638, Note_on_c, 0, 67, 0
1, 20760, Note_on_c, 0, 75, 45
1, 20760, Note_on_c, 0, 71, 45
1, 20760, Note_on_c, 0, 66, 45
1, 20878, Note_on_c, 0, 75, 0
1, 20878, Note_on_c, 0, 71, 0
1, 20878, Note_on_c, 0, 66, 0
1, 20880, Note_on_c, 0, 59, 55
1, 20960, Note_on_c, 0, 61, 55
1, 20969, Note_on_c, 0, 59, 0
1, 21040, Note_on_c, 0, 59, 55
1, 21049, Note_on_c, 0, 61, 0
1, 21120, Note_on_c, 0, 57, 55
1, 21129, Note_on_c, 0, 59, 0
1, 21195, Note_on_c, 0, 55, 55
1, 21209, Note_on_c, 0, 57, 0
1, 21280, Note_on_c, 0, 59, 55
1, 21284, Note_on_c, 0, 55, 0
1, 21360, Note_on_c, 0, 55, 55
1, 21369, Note_on_c, 0, 59, 0
1, 21440, Note_on_c, 0, 59, 55
1, 21449, Note_on_c, 0, 55, 0
1, 21520, Note_on_c, 0, 55, 55
1, 21529, Note_on_c, 0, 59, 0
1, 21600, Note_on_c, 0, 59, 55
1, 21609, Note_on_c, 0, 55, 0
1, 21680, Note_on_c, 0, 55, 55
1, 21689, Note_on_c, 0, 59, 0
1, 21760, Note_on_c, 0, 59, 55
1, 21769, Note_on_c, 0, 55, 0
1, 21840, Note_on_c, 0, 55, 55
1, 21849, Note_on_c, 0, 59, 0
1, 21920, Note_on_c, 0, 59, 55
1, 21929, Note_on_c, 0, 55, 0
1, 22000, Note_on_c, 0, 57, 55
1, 22009, Note_on_c, 0, 59, 0
1, 22080, Note_on_c, 0, 55, 55
1, 22089, Note_on_c, 0, 57, 0
1, 22155, Note_on_c, 0, 54, 55
1, 22169, Note_on_c, 0, 55, 0
1, 22240, Note_on_c, 0, 57, 55
1, 22244, Note_on_c, 0, 54, 0
1, 22320, Note_on_c, 0, 54, 55
1, 22329, Note_on_c, 0, 57, 0
1, 22400, Note_on_c, 0, 57, 55
1, 22409, Note_on_c, 0, 54, 0
1, 22480, Note_on_c, 0, 54, 55
1, 22489, Note_on_c, 0, 57, 0
1, 22560, Note_on_c, 0, 57, 55
1, 22569, Note_on_c, 0, 54, 0
1, 22640, Note_on_c, 0, 54, 55
1, 22649, Note_on_c, 0, 57, 0
1, 22720, Note_on_c, 0, 57, 55
1, 22729, Note_on_c, 0, 54, 0
1, 22800, Note_on_c, 0, 59, 95
1, 22809, Note_on_c, 0, 57, 0
1, 22889, Note_on_c, 0, 59, 0
1, 23160, Note_on_c, 0, 73, 45
1, 23160, Note_on_c, 0, 67, 45
1, 23160, Note_on_c, 0, 64, 45
1, 23278, Note_on_c, 0, 73, 0
1, 23278, Note_on_c, 0, 67, 0
1, 23278, Note_on_c, 0, 64, 0
1, 23400, Note_on_c, 0, 75, 45
1, 23400, Note_on_c, 0, 69, 45
1, 23400, Note_on_c, 0, 66, 45
1, 23518, Note_on_c, 0, 75, 0
1, 23518, Note_on_c, 0, 69, 0
1, 23518, Note_on_c, 0, 66, 0
1, 23640, Note_on_c, 0, 76, 45
1, 23640, Note_on_c, 0, 73, 45
1, 23640, Note_on_c, 0, 67, 45
1, 23758, Note_on_c, 0, 76, 0
1, 23758, Note_on_c, 0, 73, 0
1, 23758, Note_on_c, 0, 67, 0
1, 23880, Note_on_c, 0, 78, 45
1, 23880, Note_on_c, 0, 75, 45
1, 23880, Note_on_c, 0, 69, 45
1, 23998, Note_on_c, 0, 78, 0
1, 23998, Note_on_c, 0, 75, 0
1, 23998, Note_on_c, 0, 69, 0
1, 24120, Note_on_c, 0, 79, 46
1, 24120, Note_on_c, 0, 76, 46
1, 24120, Note_on_c, 0, 71, 46
1, 24238, Note_on_c, 0, 79, 0
1, 24238, Note_on_c, 0, 76, 0
1, 24238, Note_on_c, 0, 71, 0
1, 24360, Note_on_c, 0, 76, 48
1, 24360, Note_on_c, 0, 73, 48
1, 24360, Note_on_c, 0, 67, 48
1, 24478, Note_on_c, 0, 76, 0
1, 24478, Note_on_c, 0, 73, 0
1, 24478, Note_on_c, 0, 67, 0
1, 24600, Note_on_c, 0, 75, 51
1, 24600, Note_on_c, 0, 71, 51
1, 24600, Note_on_c, 0, 66, 51
1, 24718, Note_on_c, 0, 75, 0
1, 24718, Note_on_c, 0, 71, 0
1, 24718, Note_on_c, 0, 66, 0
1, 24720, Note_on_c, 0, 59, 52
1, 24800, Note_on_c, 0, 61, 53
1, 24809, Note_on_c, 0, 59, 0
1, 24880, Note_on_c, 0, 59, 54
1, 24889, Note_on_c, 0, 61, 0
1, 24960, Note_on_c, 0, 57, 55
1, 24969, Note_on_c, 0, 59, 0
1, 25035, Note_on_c, 0, 55, 55
1, 25049, Note_on_c, 0, 57, 0
1, 25120, Note_on_c, 0, 59, 55
1, 25124, Note_on_c, 0, 55, 0
1, 25200, Note_on_c, 0, 55, 55
1, 25209, Note_on_c, 0, 59, 0
1, 25280, Note_on_c, 0, 59, 55
1, 25289, Note_on_c, 0, 55, 0
1, 25360, Note_on_c, 0, 55, 55
1, 25369, Note_on_c, 0, 59, 0
1, 25440, Note_on_c, 0, 59, 55
1, 25449, Note_on_c, 0, 55, 0
1, 25520, Note_on_c, 0, 55, 55
1, 25529, Note_on_c, 0, 59, 0
1, 25600, Note_on_c, 0, 59, 55
1, 25609, Note_on_c, 0, 55, 0
1, 25680, Note_on_c, 0, 55, 55
1, 25689, Note_on_c, 0, 59, 0
1, 25760, Note_on_c, 0, 59, 55
1, 25769, Note_on_c, 0, 55, 0
1, 25840, Note_on_c, 0, 57, 55
1, 25849, Note_on_c, 0, 59, 0
1, 25920, Note_on_c, 0, 55, 55
1, 25929, Note_on_c, 0, 57, 0
1, 25995, Note_on_c, 0, 54, 55
1, 26009, Note_on_c, 0, 55, 0
1, 26080, Note_on_c, 0, 57, 55
1, 26084, Note_on_c, 0, 54, 0
1, 26160, Note_on_c, 0, 54, 55
1, 26169, Note_on_c, 0, 57, 0
1, 26240, Note_on_c, 0, 57, 55
1, 26249, Note_on_c, 0, 54, 0
1, 26320, Note_on_c, 0, 54, 55
1, 26329, Note_on_c, 0, 57, 0
1, 26400, Note_on_c, 0, 57, 55
1, 26409, Note_on_c, 0, 54, 0
1, 26480, Note_on_c, 0, 54, 55
1, 26489, Note_on_c, 0, 57, 0
1, 26560, Note_on_c, 0, 57, 55
1, 26569, Note_on_c, 0, 54, 0
1, 26640, Note_on_c, 0, 59, 95
1, 26649, Note_on_c, 0, 57, 0
1, 26729, Note_on_c, 0, 59, 0
1, 27000, Note_on_c, 0, 73, 55
1, 27000, Note_on_c, 0, 67, 55
1, 27000, Note_on_c, 0, 64, 55
1, 27118, Note_on_c, 0, 73, 0
1, 27118, Note_on_c, 0, 67, 0
1, 27118, Note_on_c, 0, 64, 0
1, 27240, Note_on_c, 0, 75, 55
1, 27240, Note_on_c, 0, 69, 55
1, 27240, Note_on_c, 0, 66, 55
1, 27358, Note_on_c, 0, 75, 0
1, 27358, Note_on_c, 0, 69, 0
1, 27358, Note_on_c, 0, 66, 0
1, 27480, Note_on_c, 0, 76, 55
1, 27480, Note_on_c, 0, 73, 55
1, 27480, Note_on_c, 0, 67, 55
1, 27598, Note_on_c, 0, 76, 0
1, 27598, Note_on_c, 0, 73, 0
1, 27598, Note_on_c, 0, 67, 0
1, 27960, Note_on_c, 0, 75, 55
1, 27960, Note_on_c, 0, 69, 55
1, 27960, Note_on_c, 0, 66, 55
1, 28078, Note_on_c, 0, 75, 0
1, 28078, Note_on_c, 0, 69, 0
1, 28078, Note_on_c, 0, 66, 0
1, 28200, Note_on_c, 0, 76, 55
1, 28200, Note_on_c, 0, 73, 55
1, 28200, Note_on_c, 0, 67, 55
1, 28318, Note_on_c, 0, 76, 0
1, 28318, Note_on_c, 0, 73, 0
1, 28318, Note_on_c, 0, 67, 0
1, 28440, Note_on_c, 0, 78, 55
1, 28440, Note_on_c, 0, 75, 55
1, 28440, Note_on_c, 0, 69, 55
1, 28558, Note_on_c, 0, 78, 0
1, 28558, Note_on_c, 0, 75, 0
1, 28558, Note_on_c, 0, 69, 0
1, 28920, Note_on_c, 0, 76, 55
1, 28920, Note_on_c, 0, 73, 55
1, 28920, Note_on_c, 0, 67, 55
1, 29038, Note_on_c, 0, 76, 0
1, 29038, Note_on_c, 0, 73, 0
1, 29038, Note_on_c, 0, 67, 0
1, 29160, Note_on_c, 0, 78, 55
1, 29160, Note_on_c, 0, 74, 55
1, 29160, Note_on_c, 0, 69, 55
1, 29278, Note_on_c, 0, 78, 0
1, 29278, Note_on_c, 0, 74, 0
1, 29278, Note_on_c, 0, 69, 0
1, 29400, Note_on_c, 0, 79, 55
1, 29400, Note_on_c, 0, 76, 55
1, 29400, Note_on_c, 0, 71, 55
1, 29518, Note_on_c, 0, 79, 0
1, 29518, Note_on_c, 0, 76, 0
1, 29518, Note_on_c, 0, 71, 0
1, 29640, Note_on_c, 0, 79, 55
1, 29640, Note_on_c, 0, 76, 55
1, 29640, Note_on_c, 0, 71, 55
1, 29758, Note_on_c, 0, 79, 0
1, 29758, Note_on_c, 0, 76, 0
1, 29758, Note_on_c, 0, 71, 0
1, 29760, Note_on_c, 0, 81, 55
1, 29760, Note_on_c, 0, 76, 55
1, 29760, Note_on_c, 0, 72, 55
1, 29878, Note_on_c, 0, 81, 0
1, 29878, Note_on_c, 0, 76, 0
1, 29878, Note_on_c, 0, 72, 0
1, 29880, Note_on_c, 0, 81, 55
1, 29880, Note_on_c, 0, 76, 55
1, 29880, Note_on_c, 0, 72, 55
1, 29998, Note_on_c, 0, 81, 0
1, 29998, Note_on_c, 0, 76, 0
1, 29998, Note_on_c, 0, 72, 0
1, 30120, Note_on_c, 0, 81, 55
1, 30120, Note_on_c, 0, 76, 55
1, 30120, Note_on_c, 0, 72, 55
1, 30238, Note_on_c, 0, 81, 0
1, 30238, Note_on_c, 0, 76, 0
1, 30238, Note_on_c, 0, 72, 0
1, 30240, Note_on_c, 0, 71, 55
1, 30270, Note_on_c, 0, 75, 55
1, 30300, Note_on_c, 0, 78, 55
1, 30328, Note_on_c, 0, 83, 55
1, 30329, Note_on_c, 0, 71, 0
1, 30359, Note_on_c, 0, 75, 0
1, 30389, Note_on_c, 0, 78, 0
1, 30417, Note_on_c, 0, 83, 0
1, 30600, Note_on_c, 0, 74, 75
1, 30628, Note_on_c, 0, 74, 0
1, 30630, Note_on_c, 0, 78, 75
1, 30658, Note_on_c, 0, 78, 0
1, 30660, Note_on_c, 0, 81, 75
1, 30688, Note_on_c, 0, 81, 0
1, 30690, Note_on_c, 0, 84, 75
1, 30718, Note_on_c, 0, 84, 0
1, 30840, Note_on_c, 0, 75, 75
1, 30868, Note_on_c, 0, 75, 0
1, 30870, Note_on_c, 0, 78, 75
1, 30898, Note_on_c, 0, 78, 0
1, 30900, Note_on_c, 0, 81, 75
1, 30928, Note_on_c, 0, 81, 0
1, 30930, Note_on_c, 0, 83, 75
1, 30958, Note_on_c, 0, 83, 0
1, 31080, Note_on_c, 0, 74, 75
1, 31108, Note_on_c, 0, 74, 0
1, 31110, Note_on_c, 0, 78, 75
1, 31138, Note_on_c, 0, 78, 0
1, 31140, Note_on_c, 0, 81, 75
1, 31168, Note_on_c, 0, 81, 0
1, 31170, Note_on_c, 0, 84, 75
1, 31198, Note_on_c, 0, 84, 0
1, 31320, Note_on_c, 0, 75, 75
1, 31348, Note_on_c, 0, 75, 0
1, 31350, Note_on_c, 0, 78, 75
1, 31378, Note_on_c, 0, 78, 0
1, 31380, Note_on_c, 0, 81, 75
1, 31408, Note_on_c, 0, 81, 0
1, 31410, Note_on_c, 0, 83, 75
1, 31438, Note_on_c, 0, 83, 0
1, 31560, Note_on_c, 0, 77, 75
1, 31588, Note_on_c, 0, 77, 0
1, 31590, Note_on_c, 0, 81, 75
1, 31618, Note_on_c, 0, 81, 0
1, 31620, Note_on_c, 0, 84, 75
1, 31648, Note_on_c, 0, 84, 0
1, 31650, Note_on_c, 0, 88, 75
1, 31678, Note_on_c, 0, 88, 0
1, 31800, Note_on_c, 0, 78, 75
1, 31828, Note_on_c, 0, 78, 0
1, 31830, Note_on_c, 0, 81, 75
1, 31858, Note_on_c, 0, 81, 0
1, 31860, Note_on_c, 0, 83, 75
1, 31888, Note_on_c, 0, 83, 0
1, 31890, Note_on_c, 0, 87, 75
1, 31918, Note_on_c, 0, 87, 0
1, 32040, Note_on_c, 0, 77, 75
1, 32068, Note_on_c, 0, 77, 0
1, 32070, Note_on_c, 0, 81, 75
1, 32098, Note_on_c, 0, 81, 0
1, 32100, Note_on_c, 0, 84, 75
1, 32128, Note_on_c, 0, 84, 0
1, 32130, Note_on_c, 0, 88, 75
1, 32158, Note_on_c, 0, 88, 0
1, 32280, Note_on_c, 0, 78, 75
1, 32308, Note_on_c, 0, 78, 0
1, 32310, Note_on_c, 0, 81, 75
1, 32338, Note_on_c, 0, 81, 0
1, 32340, Note_on_c, 0, 83, 75
1, 32368, Note_on_c, 0, 83, 0
1, 32370, Note_on_c, 0, 87, 75
1, 32398, Note_on_c, 0, 87, 0
1, 32520, Note_on_c, 0, 81, 75
1, 32548, Note_on_c, 0, 81, 0
1, 32550, Note_on_c, 0, 84, 75
1, 32578, Note_on_c, 0, 84, 0
1, 32580, Note_on_c, 0, 87, 75
1, 32608, Note_on_c, 0, 87, 0
1, 32610, Note_on_c, 0, 91, 75
1, 32638, Note_on_c, 0, 91, 0
1, 32760, Note_on_c, 0, 83, 75
1, 32790, Note_on_c, 0, 87, 75
1, 32819, Note_on_c, 0, 83, 0
1, 32835, Note_on_c, 0, 90, 75
1, 32849, Note_on_c, 0, 87, 0
1, 32873, Note_on_c, 0, 90, 0
1, 33000, Note_on_c, 0, 81, 75
1, 33028, Note_on_c, 0, 81, 0
1, 33030, Note_on_c, 0, 84, 75
1, 33058, Note_on_c, 0, 84, 0
1, 33060, Note_on_c, 0, 87, 75
1, 33088, Note_on_c, 0, 87, 0
1, 33090, Note_on_c, 0, 91, 75
1, 33118, Note_on_c, 0, 91, 0
1, 33240, Note_on_c, 0, 83, 75
1, 33280, Note_on_c, 0, 87, 75
1, 33299, Note_on_c, 0, 83, 0
1, 33320, Note_on_c, 0, 90, 75
1, 33339, Note_on_c, 0, 87, 0
1, 33358, Note_on_c, 0, 90, 0
1, 33480, Note_on_c, 0, 86, 75
1, 33508, Note_on_c, 0, 86, 0
1, 33510, Note_on_c, 0, 90, 75
1, 33538, Note_on_c, 0, 90, 0
1, 33540, Note_on_c, 0, 93, 75
1, 33568, Note_on_c, 0, 93, 0
1, 33570, Note_on_c, 0, 96, 75
1, 33598, Note_on_c, 0, 96, 0
1, 33720, Note_on_c, 0, 87, 73
1, 33748, Note_on_c, 0, 87, 0
1, 33750, Note_on_c, 0, 90, 72
1, 33778, Note_on_c, 0, 90, 0
1, 33780, Note_on_c, 0, 93, 72
1, 33808, Note_on_c, 0, 93, 0
1, 33810, Note_on_c, 0, 95, 71
1, 33838, Note_on_c, 0, 95, 0
1, 33960, Note_on_c, 0, 86, 68
1, 33988, Note_on_c, 0, 86, 0
1, 33990, Note_on_c, 0, 90, 67
1, 34018, Note_on_c, 0, 90, 0
1, 34020, Note_on_c, 0, 93, 67
1, 34048, Note_on_c, 0, 93, 0
1, 34050, Note_on_c, 0, 96, 66
1, 34078, Note_on_c, 0, 96, 0
1, 34200, Note_on_c, 0, 87, 63
1, 34228, Note_on_c, 0, 87, 0
1, 34230, Note_on_c, 0, 90, 62
1, 34258, Note_on_c, 0, 90, 0
1, 34260, Note_on_c, 0, 93, 62
1, 34288, Note_on_c, 0, 93, 0
1, 34290, Note_on_c, 0, 95, 61
1, 34318, Note_on_c, 0, 95, 0
1, 34800, Note_on_c, 0, 103, 45
1, 34800, Note_on_c, 0, 95, 45
1, 34889, Note_on_c, 0, 103, 0
1, 34889, Note_on_c, 0, 95, 0
1, 34920, Note_on_c, 0, 100, 45
1, 34920, Note_on_c, 0, 91, 45
1, 35009, Note_on_c, 0, 100, 0
1, 35009, Note_on_c, 0, 91, 0
1, 35040, Note_on_c, 0, 103, 45
1, 35040, Note_on_c, 0, 95, 45
1, 35129, Note_on_c, 0, 103, 0
1, 35129, Note_on_c, 0, 95, 0
1, 35280, Note_on_c, 0, 102, 45
1, 35280, Note_on_c, 0, 93, 45
1, 35369, Note_on_c, 0, 102, 0
1, 35369, Note_on_c, 0, 93, 0
1, 35520, Note_on_c, 0, 99, 45
1, 35520, Note_on_c, 0, 90, 45
1, 35609, Note_on_c, 0, 99, 0
1, 35609, Note_on_c, 0, 90, 0
1, 35760, Note_on_c, 0, 100, 45
1, 35760, Note_on_c, 0, 91, 45
1, 35849, Note_on_c, 0, 100, 0
1, 35849, Note_on_c, 0, 91, 0
1, 36000, Note_on_c, 0, 98, 45
1, 36000, Note_on_c, 0, 92, 45
1, 36000, Note_on_c, 0, 89, 45
1, 36089, Note_on_c, 0, 98, 0
1, 36089, Note_on_c, 0, 92, 0
1, 36089, Note_on_c, 0, 89, 0
1, 36120, Note_on_c, 0, 98, 45
1, 36120, Note_on_c, 0, 92, 45
1, 36120, Note_on_c, 0, 89, 45
1, 36209, Note_on_c, 0, 98, 0
1, 36209, Note_on_c, 0, 92, 0
1, 36209, Note_on_c, 0, 89, 0
1, 36240, Note_on_c, 0, 98, 45
1, 36240, Note_on_c, 0, 92, 45
1, 36240, Note_on_c, 0, 89, 45
1, 36329, Note_on_c, 0, 98, 0
1, 36329, Note_on_c, 0, 92, 0
1, 36329, Note_on_c, 0, 89, 0
1, 36480, Note_on_c, 0, 97, 45
1, 36480, Note_on_c, 0, 94, 45
1, 36480, Note_on_c, 0, 91, 45
1, 36480, Note_on_c, 0, 88, 45
1, 36569, Note_on_c, 0, 97, 0
1, 36569, Note_on_c, 0, 94, 0
1, 36569, Note_on_c, 0, 91, 0
1, 36569, Note_on_c, 0, 88, 0
1, 36600, Note_on_c, 0, 97, 45
1, 36600, Note_on_c, 0, 94, 45
1, 36600, Note_on_c, 0, 91, 45
1, 36600, Note_on_c, 0, 88, 45
1, 36689, Note_on_c, 0, 97, 0
1, 36689, Note_on_c, 0, 94, 0
1, 36689, Note_on_c, 0, 91, 0
1, 36689, Note_on_c, 0, 88, 0
1, 36720, Note_on_c, 0, 97, 45
1, 36720, Note_on_c, 0, 94, 45
1, 36720, Note_on_c, 0, 91, 45
1, 36720, Note_on_c, 0, 88, 45
1, 36809, Note_on_c, 0, 97, 0
1, 36809, Note_on_c, 0, 94, 0
1, 36809, Note_on_c, 0, 91, 0
1, 36809, Note_on_c, 0, 88, 0
1, 36960, Note_on_c, 0, 96, 45
1, 36960, Note_on_c, 0, 93, 45
1, 36960, Note_on_c, 0, 90, 45
1, 36960, Note_on_c, 0, 87, 45
1, 37049, Note_on_c, 0, 96, 0
1, 37049, Note_on_c, 0, 93, 0
1, 37049, Note_on_c, 0, 90, 0
1, 37049, Note_on_c, 0, 87, 0
1, 37080, Note_on_c, 0, 96, 45
1, 37080, Note_on_c, 0, 93, 45
1, 37080, Note_on_c, 0, 90, 45
1, 37080, Note_on_c, 0, 87, 45
1, 37169, Note_on_c, 0, 96, 0
1, 37169, Note_on_c, 0, 93, 0
1, 37169, Note_on_c, 0, 90, 0
1, 37169, Note_on_c, 0, 87, 0
1, 37200, Note_on_c, 0, 96, 45
1, 37200, Note_on_c, 0, 93, 45
1, 37200, Note_on_c, 0, 90, 45
1, 37200, Note_on_c, 0, 87, 45
1, 37289, Note_on_c, 0, 96, 0
1, 37289, Note_on_c, 0, 93, 0
1, 37289, Note_on_c, 0, 90, 0
1, 37289, Note_on_c, 0, 87, 0
1, 37440, Note_on_c, 0, 95, 45
1, 37440, Note_on_c, 0, 91, 45
1, 37529, Note_on_c, 0, 95, 0
1, 37529, Note_on_c, 0, 91, 0
1, 37560, Note_on_c, 0, 100, 45
1, 37560, Note_on_c, 0, 88, 45
1, 37649, Note_on_c, 0, 100, 0
1, 37649, Note_on_c, 0, 88, 0
1, 37680, Note_on_c, 0, 96, 45
1, 37680, Note_on_c, 0, 93, 45
1, 37769, Note_on_c, 0, 96, 0
1, 37769, Note_on_c, 0, 93, 0
1, 37800, Note_on_c, 0, 100, 45
1, 37800, Note_on_c, 0, 88, 45
1, 37889, Note_on_c, 0, 100, 0
1, 37889, Note_on_c, 0, 88, 0
1, 37920, Note_on_c, 0, 95, 45
1, 37920, Note_on_c, 0, 91, 45
1, 38009, Note_on_c, 0, 95, 0
1, 38009, Note_on_c, 0, 91, 0
1, 38640, Note_on_c, 0, 91, 46
1, 38640, Note_on_c, 0, 84, 46
1, 38729, Note_on_c, 0, 91, 0
1, 38729, Note_on_c, 0, 84, 0
1, 38760, Note_on_c, 0, 88, 47
1, 38760, Note_on_c, 0, 79, 47
1, 38849, Note_on_c, 0, 88, 0
1, 38849, Note_on_c, 0, 79, 0
1, 38880, Note_on_c, 0, 91, 48
1, 38880, Note_on_c, 0, 84, 48
1, 38969, Note_on_c, 0, 91, 0
1, 38969, Note_on_c, 0, 84, 0
1, 39120, Note_on_c, 0, 90, 50
1, 39120, Note_on_c, 0, 84, 50
1, 39209, Note_on_c, 0, 90, 0
1, 39209, Note_on_c, 0, 84, 0
1, 39360, Note_on_c, 0, 87, 52
1, 39390, Note_on_c, 0, 90, 52
1, 39418, Note_on_c, 0, 96, 52
1, 39449, Note_on_c, 0, 87, 0
1, 39479, Note_on_c, 0, 90, 0
1, 39507, Note_on_c, 0, 96, 0
1, 39600, Note_on_c, 0, 88, 54
1, 39630, Note_on_c, 0, 91, 54
1, 39660, Note_on_c, 0, 95, 54
1, 39689, Note_on_c, 0, 88, 0
1, 39719, Note_on_c, 0, 91, 0
1, 39749, Note_on_c, 0, 95, 0
1, 39840, Note_on_c, 0, 103, 56
1, 39840, Note_on_c, 0, 100, 56
1, 39840, Note_on_c, 0, 97, 56
1, 39840, Note_on_c, 0, 94, 56
1, 39929, Note_on_c, 0, 103, 0
1, 39929, Note_on_c, 0, 100, 0
1, 39929, Note_on_c, 0, 97, 0
1, 39929, Note_on_c, 0, 94, 0
1, 39960, Note_on_c, 0, 103, 57
1, 39960, Note_on_c, 0, 100, 57
1, 39960, Note_on_c, 0, 97, 57
1, 39960, Note_on_c, 0, 94, 57
1, 40049, Note_on_c, 0, 103, 0
1, 40049, Note_on_c, 0, 100, 0
1, 40049, Note_on_c, 0, 97, 0
1, 40049, Note_on_c, 0, 94, 0
1, 40080, Note_on_c, 0, 103, 58
1, 40080, Note_on_c, 0, 100, 58
1, 40080, Note_on_c, 0, 97, 58
1, 40080, Note_on_c, 0, 94, 58
1, 40169, Note_on_c, 0, 103, 0
1, 40169, Note_on_c, 0, 100, 0
1, 40169, Note_on_c, 0, 97, 0
1, 40169, Note_on_c, 0, 94, 0
1, 40320, Note_on_c, 0, 102, 60
1, 40320, Note_on_c, 0, 98, 60
1, 40320, Note_on_c, 0, 95, 60
1, 40320, Note_on_c, 0, 92, 60
1, 40409, Note_on_c, 0, 102, 0
1, 40409, Note_on_c, 0, 98, 0
1, 40409, Note_on_c, 0, 95, 0
1, 40409, Note_on_c, 0, 92, 0
1, 40440, Note_on_c, 0, 102, 60
1, 40440, Note_on_c, 0, 98, 60
1, 40440, Note_on_c, 0, 95, 60
1, 40440, Note_on_c, 0, 92, 60
1, 40529, Note_on_c, 0, 102, 0
1, 40529, Note_on_c, 0, 98, 0
1, 40529, Note_on_c, 0, 95, 0
1, 40529, Note_on_c, 0, 92, 0
1, 40560, Note_on_c, 0, 102, 60
1, 40560, Note_on_c, 0, 98, 60
1, 40560, Note_on_c, 0, 95, 60
1, 40560, Note_on_c, 0, 92, 60
1, 40649, Note_on_c, 0, 102, 0
1, 40649, Note_on_c, 0, 98, 0
1, 40649, Note_on_c, 0, 95, 0
1, 40649, Note_on_c, 0, 92, 0
1, 40800, Note_on_c, 0, 100, 60
1, 40800, Note_on_c, 0, 97, 60
1, 40800, Note_on_c, 0, 94, 60
1, 40800, Note_on_c, 0, 90, 60
1, 40889, Note_on_c, 0, 100, 0
1, 40889, Note_on_c, 0, 97, 0
1, 40889, Note_on_c, 0, 94, 0
1, 40889, Note_on_c, 0, 90, 0
1, 40920, Note_on_c, 0, 100, 60
1, 40920, Note_on_c, 0, 97, 60
1, 40920, Note_on_c, 0, 94, 60
1, 40920, Note_on_c, 0, 90, 60
1, 41009, Note_on_c, 0, 100, 0
1, 41009, Note_on_c, 0, 97, 0
1, 41009, Note_on_c, 0, 94, 0
1, 41009, Note_on_c, 0, 90, 0
1, 41040, Note_on_c, 0, 100, 60
1, 41040, Note_on_c, 0, 97, 60
1, 41040, Note_on_c, 0, 94, 60
1, 41040, Note_on_c, 0, 90, 60
1, 41129, Note_on_c, 0, 100, 0
1, 41129, Note_on_c, 0, 97, 0
1, 41129, Note_on_c, 0, 94, 0
1, 41129, Note_on_c, 0, 90, 0
1, 41280, Note_on_c, 0, 99, 60
1, 41280, Note_on_c, 0, 95, 60
1, 41369, Note_on_c, 0, 99, 0
1, 41369, Note_on_c, 0, 95, 0
1, 41400, Note_on_c, 0, 102, 59
1, 41489, Note_on_c, 0, 102, 0
1, 41520, Note_on_c, 0, 100, 57
1, 41520, Note_on_c, 0, 94, 57
1, 41609, Note_on_c, 0, 100, 0
1, 41609, Note_on_c, 0, 94, 0
1, 41640, Note_on_c, 0, 102, 55
1, 41729, Note_on_c, 0, 102, 0
1, 41760, Note_on_c, 0, 99, 53
1, 41760, Note_on_c, 0, 95, 53
1, 41849, Note_on_c, 0, 99, 0
1, 41849, Note_on_c, 0, 95, 0
1, 42480, Note_on_c, 0, 103, 45
1, 42480, Note_on_c, 0, 95, 45
1, 42569, Note_on_c, 0, 103, 0
1, 42569, Note_on_c, 0, 95, 0
1, 42600, Note_on_c, 0, 100, 45
1, 42600, Note_on_c, 0, 91, 45
1, 42689, Note_on_c, 0, 100, 0
1, 42689, Note_on_c, 0, 91, 0
1, 42720, Note_on_c, 0, 103, 45
1, 42720, Note_on_c, 0, 95, 45
1, 42809, Note_on_c, 0, 103, 0
1, 42809, Note_on_c, 0, 95, 0
1, 42960, Note_on_c, 0, 102, 45
1, 42960, Note_on_c, 0, 93, 45
1, 43049, Note_on_c, 0, 102, 0
1, 43049, Note_on_c, 0, 93, 0
1, 43200, Note_on_c, 0, 99, 45
1, 43200, Note_on_c, 0, 90, 45
1, 43289, Note_on_c, 0, 99, 0
1, 43289, Note_on_c, 0, 90, 0
1, 43440, Note_on_c, 0, 100, 45
1, 43440, Note_on_c, 0, 91, 45
1, 43529, Note_on_c, 0, 100, 0
1, 43529, Note_on_c, 0, 91, 0
1, 43680, Note_on_c, 0, 98, 45
1, 43680, Note_on_c, 0, 92, 45
1, 43680, Note_on_c, 0, 89, 45
1, 43769, Note_on_c, 0, 98, 0
1, 43769, Note_on_c, 0, 92, 0
1, 43769, Note_on_c, 0, 89, 0
1, 43800, Note_on_c, 0, 98, 45
1, 43800, Note_on_c, 0, 92, 45
1, 43800, Note_on_c, 0, 89, 45
1, 43889, Note_on_c, 0, 98, 0
1, 43889, Note_on_c, 0, 92, 0
1, 43889, Note_on_c, 0, 89, 0
1, 43920, Note_on_c, 0, 98, 45
1, 43920, Note_on_c, 0, 92, 45
1, 43920, Note_on_c, 0, 89, 45
1, 44009, Note_on_c, 0, 98, 0
1, 44009, Note_on_c, 0, 92, 0
1, 44009, Note_on_c, 0, 89, 0
1, 44160, Note_on_c, 0, 97, 45
1, 44160, Note_on_c, 0, 94, 45
1, 44160, Note_on_c, 0, 91, 45
1, 44160, Note_on_c, 0, 88, 45
1, 44249, Note_on_c, 0, 97, 0
1, 44249, Note_on_c, 0, 94, 0
1, 44249, Note_on_c, 0, 91, 0
1, 44249, Note_on_c, 0, 88, 0
1, 44280, Note_on_c, 0, 97, 46
1, 44280, Note_on_c, 0, 94, 46
1, 44280, Note_on_c, 0, 91, 46
1, 44280, Note_on_c, 0, 88, 46
1, 44369, Note_on_c, 0, 97, 0
1, 44369, Note_on_c, 0, 94, 0
1, 44369, Note_on_c, 0, 91, 0
1, 44369, Note_on_c, 0, 88, 0
1, 44400, Note_on_c, 0, 97, 48
1, 44400, Note_on_c, 0, 94, 48
1, 44400, Note_on_c, 0, 91, 48
1, 44400, Note_on_c, 0, 88, 48
1, 44489, Note_on_c, 0, 97, 0
1, 44489, Note_on_c, 0, 94, 0
1, 44489, Note_on_c, 0, 91, 0
1, 44489, Note_on_c, 0, 88, 0
1, 44640, Note_on_c, 0, 96, 52
1, 44640, Note_on_c, 0, 93, 52
1, 44640, Note_on_c, 0, 90, 52
1, 44640, Note_on_c, 0, 87, 52
1, 44729, Note_on_c, 0, 96, 0
1, 44729, Note_on_c, 0, 93, 0
1, 44729, Note_on_c, 0, 90, 0
1, 44729, Note_on_c, 0, 87, 0
1, 44760, Note_on_c, 0, 96, 54
1, 44760, Note_on_c, 0, 93, 54
1, 44760, Note_on_c, 0, 90, 54
1, 44760, Note_on_c, 0, 87, 54
1, 44849, Note_on_c, 0, 96, 0
1, 44849, Note_on_c, 0, 93, 0
1, 44849, Note_on_c, 0, 90, 0
1, 44849, Note_on_c, 0, 87, 0
1, 44880, Note_on_c, 0, 96, 56
1, 44880, Note_on_c, 0, 93, 56
1, 44880, Note_on_c, 0, 90, 56
1, 44880, Note_on_c, 0, 87, 56
1, 44969, Note_on_c, 0, 96, 0
1, 44969, Note_on_c, 0, 93, 0
1, 44969, Note_on_c, 0, 90, 0
1, 44969, Note_on_c, 0, 87, 0
1, 45120, Note_on_c, 0, 95, 60
1, 45120, Note_on_c, 0, 91, 60
1, 45209, Note_on_c, 0, 95, 0
1, 45209, Note_on_c, 0, 91, 0
1, 45240, Note_on_c, 0, 100, 59
1, 45240, Note_on_c, 0, 88, 59
1, 45329, Note_on_c, 0, 100, 0
1, 45329, Note_on_c, 0, 88, 0
1, 45360, Note_on_c, 0, 96, 57
1, 45360, Note_on_c, 0, 93, 57
1, 45449, Note_on_c, 0, 96, 0
1, 45449, Note_on_c, 0, 93, 0
1, 45480, Note_on_c, 0, 100, 55
1, 45480, Note_on_c, 0, 88, 55
1, 45569, Note_on_c, 0, 100, 0
1, 45569, Note_on_c, 0, 88, 0
1, 45600, Note_on_c, 0, 95, 53
1, 45600, Note_on_c, 0, 91, 53
1, 45689, Note_on_c, 0, 95, 0
1, 45689, Note_on_c, 0, 91, 0
1, 46320, Note_on_c, 0, 88, 45
1, 46320, Note_on_c, 0, 82, 45
1, 46409, Note_on_c, 0, 88, 0
1, 46409, Note_on_c, 0, 82, 0
1, 46440, Note_on_c, 0, 85, 45
1, 46440, Note_on_c, 0, 78, 45
1, 46529, Note_on_c, 0, 85, 0
1, 46529, Note_on_c, 0, 78, 0
1, 46560, Note_on_c, 0, 88, 45
1, 46560, Note_on_c, 0, 82, 45
1, 46649, Note_on_c, 0, 88, 0
1, 46649, Note_on_c, 0, 82, 0
1, 46800, Note_on_c, 0, 87, 45
1, 46800, Note_on_c, 0, 83, 45
1, 46800, Note_on_c, 0, 81, 45
1, 46889, Note_on_c, 0, 87, 0
1, 46889, Note_on_c, 0, 83, 0
1, 46889, Note_on_c, 0, 81, 0
1, 47280, Note_on_c, 0, 86, 45
1, 47280, Note_on_c, 0, 80, 45
1, 47369, Note_on_c, 0, 86, 0
1, 47369, Note_on_c, 0, 80, 0
1, 47400, Note_on_c, 0, 83, 45
1, 47400, Note_on_c, 0, 76, 45
1, 47489, Note_on_c, 0, 83, 0
1, 47489, Note_on_c, 0, 76, 0
1, 47520, Note_on_c, 0, 86, 45
1, 47520, Note_on_c, 0, 80, 45
1, 47609, Note_on_c, 0, 86, 0
1, 47609, Note_on_c, 0, 80, 0
1, 47760, Note_on_c, 0, 85, 45
1, 47760, Note_on_c, 0, 81, 45
1, 47760, Note_on_c, 0, 79, 45
1, 47849, Note_on_c, 0, 85, 0
1, 47849, Note_on_c, 0, 81, 0
1, 47849, Note_on_c, 0, 79, 0
1, 48240, Note_on_c, 0, 84, 45
1, 48240, Note_on_c, 0, 78, 45
1, 48329, Note_on_c, 0, 84, 0
1, 48329, Note_on_c, 0, 78, 0
1, 48360, Note_on_c, 0, 81, 45
1, 48360, Note_on_c, 0, 74, 45
1, 48449, Note_on_c, 0, 81, 0
1, 48449, Note_on_c, 0, 74, 0
1, 48480, Note_on_c, 0, 84, 45
1, 48480, Note_on_c, 0, 78, 45
1, 48569, Note_on_c, 0, 84, 0
1, 48569, Note_on_c, 0, 78, 0
1, 48720, Note_on_c, 0, 83, 45
1, 48720, Note_on_c, 0, 79, 45
1, 48809, Note_on_c, 0, 83, 0
1, 48809, Note_on_c, 0, 79, 0
1, 49200, Note_on_c, 0, 83, 75
1, 49258, Note_on_c, 0, 83, 0
1, 49260, Note_on_c, 0, 87, 75
1, 49318, Note_on_c, 0, 87, 0
1, 49320, Note_on_c, 0, 90, 75
1, 49378, Note_on_c, 0, 90, 0
1, 49380, Note_on_c, 0, 95, 75
1, 49438, Note_on_c, 0, 95, 0
1, 49440, Note_on_c, 0, 88, 75
1, 49440, Note_on_c, 0, 83, 75
1, 49498, Note_on_c, 0, 83, 0
1, 49529, Note_on_c, 0, 88, 0
1, 49740, Note_on_c, 0, 67, 75
1, 49768, Note_on_c, 0, 71, 75
1, 49795, Note_on_c, 0, 76, 75
1, 49799, Note_on_c, 0, 67, 0
1, 49827, Note_on_c, 0, 71, 0
1, 49854, Note_on_c, 0, 76, 0
1, 49855, End_track
2, 0, Start_track
2, 0, Key_signature, 5, "major"
2, 0, Note_on_c, 0, 52, 45
2, 0, Note_on_c, 0, 40, 45
2, 238, Note_on_c, 0, 52, 0
2, 238, Note_on_c, 0, 40, 0
2, 480, Note_on_c, 0, 52, 45
2, 480, Note_on_c, 0, 40, 45
2, 718, Note_on_c, 0, 52, 0
2, 718, Note_on_c, 0, 40, 0
2, 960, Note_on_c, 0, 52, 45
2, 960, Note_on_c, 0, 40, 45
2, 1198, Note_on_c, 0, 52, 0
2, 1198, Note_on_c, 0, 40, 0
2, 1440, Note_on_c, 0, 52, 45
2, 1440, Note_on_c, 0, 40, 45
2, 1678, Note_on_c, 0, 52, 0
2, 1678, Note_on_c, 0, 40, 0
2, 1920, Note_on_c, 0, 52, 45
2, 1920, Note_on_c, 0, 40, 45
2, 2158, Note_on_c, 0, 52, 0
2, 2158, Note_on_c, 0, 40, 0
2, 2400, Note_on_c, 0, 52, 45
2, 2400, Note_on_c, 0, 40, 45
2, 2638, Note_on_c, 0, 52, 0
2, 2638, Note_on_c, 0, 40, 0
2, 2880, Note_on_c, 0, 52, 45
2, 2880, Note_on_c, 0, 40, 45
2, 3118, Note_on_c, 0, 52, 0
2, 3118, Note_on_c, 0, 40, 0
2, 3360, Note_on_c, 0, 52, 45
2, 3360, Note_on_c, 0, 40, 45
2, 3598, Note_on_c, 0, 52, 0
2, 3598, Note_on_c, 0, 40, 0
2, 3840, Note_on_c, 0, 52, 64
2, 3840, Note_on_c, 0, 40, 64
2, 3929, Note_on_c, 0, 52, 0
2, 3929, Note_on_c, 0, 40, 0
2, 4080, Note_on_c, 0, 59, 64
2, 4080, Note_on_c, 0, 55, 64
2, 4169, Note_on_c, 0, 59, 0
2, 4169, Note_on_c, 0, 55, 0
2, 4320, Note_on_c, 0, 52, 64
2, 4409, Note_on_c, 0, 52, 0
2, 4560, Note_on_c, 0, 60, 64
2, 4560, Note_on_c, 0, 57, 64
2, 4649, Note_on_c, 0, 60, 0
2, 4649, Note_on_c, 0, 57, 0
2, 4800, Note_on_c, 0, 52, 64
2, 4889, Note_on_c, 0, 52, 0
2, 5040, Note_on_c, 0, 61, 66
2, 5040, Note_on_c, 0, 58, 66
2, 5129, Note_on_c, 0, 61, 0
2, 5129, Note_on_c, 0, 58, 0
2, 5280, Note_on_c, 0, 52, 69
2, 5369, Note_on_c, 0, 52, 0
2, 5520, Note_on_c, 0, 62, 72
2, 5520, Note_on_c, 0, 59, 72
2, 5609, Note_on_c, 0, 62, 0
2, 5609, Note_on_c, 0, 59, 0
2, 5760, Note_on_c, 0, 52, 75
2, 5849, Note_on_c, 0, 52, 0
2, 6000, Note_on_c, 0, 64, 73
2, 6000, Note_on_c, 0, 61, 73
2, 6089, Note_on_c, 0, 64, 0
2, 6089, Note_on_c, 0, 61, 0
2, 6240, Note_on_c, 0, 52, 70
2, 6329, Note_on_c, 0, 52, 0
2, 6480, Note_on_c, 0, 66, 67
2, 6480, Note_on_c, 0, 63, 67
2, 6569, Note_on_c, 0, 66, 0
2, 6569, Note_on_c, 0, 63, 0
2, 6720, Note_on_c, 0, 67, 64
2, 6720, Note_on_c, 0, 64, 64
2, 6809, Note_on_c, 0, 67, 0
2, 6809, Note_on_c, 0, 64, 0
2, 6960, Note_on_c, 0, 69, 64
2, 6960, Note_on_c, 0, 66, 64
2, 6960, Note_on_c, 0, 64, 64
2, 7049, Note_on_c, 0, 69, 0
2, 7049, Note_on_c, 0, 66, 0
2, 7049, Note_on_c, 0, 64, 0
2, 7200, Note_on_c, 0, 67, 64
2, 7200, Note_on_c, 0, 64, 64
2, 7438, Note_on_c, 0, 67, 0
2, 7438, Note_on_c, 0, 64, 0
2, 7440, Note_on_c, 0, 52, 64
2, 7498, Note_on_c, 0, 52, 0
2, 7500, Note_on_c, 0, 50, 64
2, 7558, Note_on_c, 0, 50, 0
2, 7560, Note_on_c, 0, 48, 64
2, 7618, Note_on_c, 0, 48, 0
2, 7620, Note_on_c, 0, 47, 64
2, 7678, Note_on_c, 0, 47, 0
2, 7680, Note_on_c, 0, 46, 64
2, 7769, Note_on_c, 0, 46, 0
2, 7920, Note_on_c, 0, 60, 65
2, 7920, Note_on_c, 0, 55, 65
2, 7920, Note_on_c, 0, 52, 65
2, 8009, Note_on_c, 0, 60, 0
2, 8009, Note_on_c, 0, 55, 0
2, 8009, Note_on_c, 0, 52, 0
2, 8160, Note_on_c, 0, 45, 66
2, 8249, Note_on_c, 0, 45, 0
2, 8400, Note_on_c, 0, 60, 68
2, 8400, Note_on_c, 0, 54, 68
2, 8400, Note_on_c, 0, 51, 68
2, 8489, Note_on_c, 0, 60, 0
2, 8489, Note_on_c, 0, 54, 0
2, 8489, Note_on_c, 0, 51, 0
2, 8640, Note_on_c, 0, 43, 69
2, 8729, Note_on_c, 0, 43, 0
2, 8880, Note_on_c, 0, 59, 70
2, 8880, Note_on_c, 0, 55, 70
2, 8880, Note_on_c, 0, 52, 70
2, 8969, Note_on_c, 0, 59, 0
2, 8969, Note_on_c, 0, 55, 0
2, 8969, Note_on_c, 0, 52, 0
2, 9120, Note_on_c, 0, 42, 72
2, 9209, Note_on_c, 0, 42, 0
2, 9360, Note_on_c, 0, 58, 73
2, 9360, Note_on_c, 0, 54, 73
2, 9449, Note_on_c, 0, 58, 0
2, 9449, Note_on_c, 0, 54, 0
2, 9600, Note_on_c, 0, 54, 75
2, 9689, Note_on_c, 0, 54, 0
2, 9840, Note_on_c, 0, 59, 73
2, 9840, Note_on_c, 0, 56, 73
2, 9929, Note_on_c, 0, 59, 0
2, 9929, Note_on_c, 0, 56, 0
2, 10080, Note_on_c, 0, 54, 70
2, 10169, Note_on_c, 0, 54, 0
2, 10320, Note_on_c, 0, 61, 67
2, 10320, Note_on_c, 0, 58, 67
2, 10409, Note_on_c, 0, 61, 0
2, 10409, Note_on_c, 0, 58, 0
2, 10560, Note_on_c, 0, 47, 64
2, 10590, Note_on_c, 0, 54, 64
2, 10620, Note_on_c, 0, 59, 64
2, 10649, Note_on_c, 0, 47, 0
2, 10679, Note_on_c, 0, 54, 0
2, 10709, Note_on_c, 0, 59, 0
2, 10800, Note_on_c, 0, 58, 64
2, 10800, Note_on_c, 0, 54, 64
2, 10800, Note_on_c, 0, 48, 64
2, 10889, Note_on_c, 0, 58, 0
2, 10889, Note_on_c, 0, 54, 0
2, 10889, Note_on_c, 0, 48, 0
2, 11040, Note_on_c, 0, 59, 64
2, 11040, Note_on_c, 0, 54, 64
2, 11040, Note_on_c, 0, 47, 64
2, 11129, Note_on_c, 0, 59, 0
2, 11129, Note_on_c, 0, 54, 0
2, 11129, Note_on_c, 0, 47, 0
2, 11280, Note_on_c, 0, 47, 45
2, 11338, Note_on_c, 0, 47, 0
2, 11340, Note_on_c, 0, 45, 45
2, 11398, Note_on_c, 0, 45, 0
2, 11400, Note_on_c, 0, 43, 45
2, 11458, Note_on_c, 0, 43, 0
2, 11460, Note_on_c, 0, 42, 45
2, 11518, Note_on_c, 0, 42, 0
2, 11520, Note_on_c, 0, 40, 45
2, 11609, Note_on_c, 0, 40, 0
2, 11760, Note_on_c, 0, 59, 45
2, 11760, Note_on_c, 0, 55, 45
2, 11849, Note_on_c, 0, 59, 0
2, 11849, Note_on_c, 0, 55, 0
2, 12000, Note_on_c, 0, 52, 45
2, 12089, Note_on_c, 0, 52, 0
2, 12240, Note_on_c, 0, 60, 45
2, 12240, Note_on_c, 0, 57, 45
2, 12329, Note_on_c, 0, 60, 0
2, 12329, Note_on_c, 0, 57, 0
2, 12480, Note_on_c, 0, 52, 45
2, 12569, Note_on_c, 0, 52, 0
2, 12720, Note_on_c, 0, 61, 46
2, 12720, Note_on_c, 0, 58, 46
2, 12809, Note_on_c, 0, 61, 0
2, 12809, Note_on_c, 0, 58, 0
2, 12960, Note_on_c, 0, 52, 48
2, 13049, Note_on_c, 0, 52, 0
2, 13200, Note_on_c, 0, 62, 50
2, 13200, Note_on_c, 0, 59, 50
2, 13289, Note_on_c, 0, 62, 0
2, 13289, Note_on_c, 0, 59, 0
2, 13440, Note_on_c, 0, 52, 52
2, 13529, Note_on_c, 0, 52, 0
2, 13680, Note_on_c, 0, 64, 54
2, 13680, Note_on_c, 0, 61, 54
2, 13769, Note_on_c, 0, 64, 0
2, 13769, Note_on_c, 0, 61, 0
2, 13920, Note_on_c, 0, 52, 56
2, 14009, Note_on_c, 0, 52, 0
2, 14160, Note_on_c, 0, 66, 58
2, 14160, Note_on_c, 0, 63, 58
2, 14249, Note_on_c, 0, 66, 0
2, 14249, Note_on_c, 0, 63, 0
2, 14400, Note_on_c, 0, 67, 60
2, 14400, Note_on_c, 0, 64, 60
2, 14489, Note_on_c, 0, 67, 0
2, 14489, Note_on_c, 0, 64, 0
2, 14640, Note_on_c, 0, 69, 57
2, 14640, Note_on_c, 0, 66, 57
2, 14640, Note_on_c, 0, 64, 57
2, 14729, Note_on_c, 0, 69, 0
2, 14729, Note_on_c, 0, 66, 0
2, 14729, Note_on_c, 0, 64, 0
2, 14880, Note_on_c, 0, 67, 53
2, 14880, Note_on_c, 0, 64, 53
2, 15118, Note_on_c, 0, 67, 0
2, 15118, Note_on_c, 0, 64, 0
2, 15120, Note_on_c, 0, 67, 49
2, 15178, Note_on_c, 0, 67, 0
2, 15180, Note_on_c, 0, 66, 48
2, 15238, Note_on_c, 0, 66, 0
2, 15240, Note_on_c, 0, 64, 47
2, 15298, Note_on_c, 0, 64, 0
2, 15300, Note_on_c, 0, 62, 46
2, 15358, Note_on_c, 0, 62, 0
2, 15360, Note_on_c, 0, 61, 45
2, 15449, Note_on_c, 0, 61, 0
2, 15600, Note_on_c, 0, 61, 45
2, 15600, Note_on_c, 0, 54, 45
2, 16078, Note_on_c, 0, 61, 0
2, 16078, Note_on_c, 0, 54, 0
2, 16080, Note_on_c, 0, 66, 45
2, 16138, Note_on_c, 0, 66, 0
2, 16140, Note_on_c, 0, 64, 45
2, 16198, Note_on_c, 0, 64, 0
2, 16200, Note_on_c, 0, 63, 45
2, 16258, Note_on_c, 0, 63, 0
2, 16260, Note_on_c, 0, 61, 45
2, 16318, Note_on_c, 0, 61, 0
2, 16320, Note_on_c, 0, 59, 45
2, 16409, Note_on_c, 0, 59, 0
2, 16560, Note_on_c, 0, 59, 45
2, 16560, Note_on_c, 0, 52, 45
2, 17038, Note_on_c, 0, 59, 0
2, 17038, Note_on_c, 0, 52, 0
2, 17040, Note_on_c, 0, 64, 45
2, 17098, Note_on_c, 0, 64, 0
2, 17100, Note_on_c, 0, 62, 45
2, 17158, Note_on_c, 0, 62, 0
2, 17160, Note_on_c, 0, 61, 45
2, 17218, Note_on_c, 0, 61, 0
2, 17220, Note_on_c, 0, 59, 45
2, 17278, Note_on_c, 0, 59, 0
2, 17280, Note_on_c, 0, 57, 45
2, 17369, Note_on_c, 0, 57, 0
2, 17520, Note_on_c, 0, 57, 47
2, 17520, Note_on_c, 0, 50, 47
2, 17998, Note_on_c, 0, 57, 0
2, 17998, Note_on_c, 0, 50, 0
2, 18000, Note_on_c, 0, 62, 52
2, 18058, Note_on_c, 0, 62, 0
2, 18060, Note_on_c, 0, 60, 52
2, 18118, Note_on_c, 0, 60, 0
2, 18120, Note_on_c, 0, 59, 53
2, 18178, Note_on_c, 0, 59, 0
2, 18180, Note_on_c, 0, 57, 53
2, 18238, Note_on_c, 0, 57, 0
2, 18240, Note_on_c, 0, 55, 54
2, 18329, Note_on_c, 0, 55, 0
2, 18480, Note_on_c, 0, 57, 56
2, 18480, Note_on_c, 0, 54, 56
2, 18569, Note_on_c, 0, 57, 0
2, 18569, Note_on_c, 0, 54, 0
2, 18720, Note_on_c, 0, 55, 59
2, 18720, Note_on_c, 0, 52, 59
2, 18809, Note_on_c, 0, 55, 0
2, 18809, Note_on_c, 0, 52, 0
2, 18960, Note_on_c, 0, 47, 61
2, 18960, Note_on_c, 0, 35, 61
2, 19198, Note_on_c, 0, 47, 0
2, 19198, Note_on_c, 0, 35, 0
2, 19200, Note_on_c, 0, 61, 45
2, 19200, Note_on_c, 0, 55, 45
2, 19200, Note_on_c, 0, 52, 45
2, 19318, Note_on_c, 0, 61, 0
2, 19318, Note_on_c, 0, 55, 0
2, 19318, Note_on_c, 0, 52, 0
2, 19440, Note_on_c, 0, 63, 45
2, 19440, Note_on_c, 0, 57, 45
2, 19440, Note_on_c, 0, 54, 45
2, 19558, Note_on_c, 0, 63, 0
2, 19558, Note_on_c, 0, 57, 0
2, 19558, Note_on_c, 0, 54, 0
2, 19680, Note_on_c, 0, 64, 45
2, 19680, Note_on_c, 0, 61, 45
2, 19680, Note_on_c, 0, 55, 45
2, 19798, Note_on_c, 0, 64, 0
2, 19798, Note_on_c, 0, 61, 0
2, 19798, Note_on_c, 0, 55, 0
2, 19920, Note_on_c, 0, 66, 45
2, 19920, Note_on_c, 0, 63, 45
2, 19920, Note_on_c, 0, 57, 45
2, 20038, Note_on_c, 0, 66, 0
2, 20038, Note_on_c, 0, 63, 0
2, 20038, Note_on_c, 0, 57, 0
2, 20160, Note_on_c, 0, 67, 45
2, 20160, Note_on_c, 0, 64, 45
2, 20160, Note_on_c, 0, 59, 45
2, 20278, Note_on_c, 0, 67, 0
2, 20278, Note_on_c, 0, 64, 0
2, 20278, Note_on_c, 0, 59, 0
2, 20400, Note_on_c, 0, 64, 45
2, 20400, Note_on_c, 0, 61, 45
2, 20400, Note_on_c, 0, 55, 45
2, 20518, Note_on_c, 0, 64, 0
2, 20518, Note_on_c, 0, 61, 0
2, 20518, Note_on_c, 0, 55, 0
2, 20640, Note_on_c, 0, 63, 45
2, 20640, Note_on_c, 0, 59, 45
2, 20640, Note_on_c, 0, 54, 45
2, 20758, Note_on_c, 0, 63, 0
2, 20758, Note_on_c, 0, 59, 0
2, 20758, Note_on_c, 0, 54, 0
2, 20880, Note_on_c, 0, 54, 55
2, 20880, Note_on_c, 0, 51, 55
2, 21118, Note_on_c, 0, 54, 0
2, 21118, Note_on_c, 0, 51, 0
2, 21120, Note_on_c, 0, 52, 55
2, 21209, Note_on_c, 0, 52, 0
2, 21360, Note_on_c, 0, 63, 55
2, 21598, Note_on_c, 0, 63, 0
2, 21600, Note_on_c, 0, 64, 55
2, 21689, Note_on_c, 0, 64, 0
2, 21840, Note_on_c, 0, 52, 55
2, 21840, Note_on_c, 0, 49, 55
2, 22078, Note_on_c, 0, 52, 0
2, 22078, Note_on_c, 0, 49, 0
2, 22080, Note_on_c, 0, 50, 55
2, 22169, Note_on_c, 0, 50, 0
2, 22320, Note_on_c, 0, 61, 55
2, 22558, Note_on_c, 0, 61, 0
2, 22560, Note_on_c, 0, 62, 55
2, 22649, Note_on_c, 0, 62, 0
2, 22800, Note_on_c, 0, 47, 95
2, 22800, Note_on_c, 0, 35, 95
2, 22889, Note_on_c, 0, 47, 0
2, 22889, Note_on_c, 0, 35, 0
2, 23040, Note_on_c, 0, 61, 45
2, 23040, Note_on_c, 0, 55, 45
2, 23040, Note_on_c, 0, 52, 45
2, 23158, Note_on_c, 0, 61, 0
2, 23158, Note_on_c, 0, 55, 0
2, 23158, Note_on_c, 0, 52, 0
2, 23280, Note_on_c, 0, 63, 45
2, 23280, Note_on_c, 0, 57, 45
2, 23280, Note_on_c, 0, 54, 45
2, 23398, Note_on_c, 0, 63, 0
2, 23398, Note_on_c, 0, 57, 0
2, 23398, Note_on_c, 0, 54, 0
2, 23520, Note_on_c, 0, 64, 45
2, 23520, Note_on_c, 0, 61, 45
2, 23520, Note_on_c, 0, 55, 45
2, 23638, Note_on_c, 0, 64, 0
2, 23638, Note_on_c, 0, 61, 0
2, 23638, Note_on_c, 0, 55, 0
2, 23760, Note_on_c, 0, 66, 45
2, 23760, Note_on_c, 0, 63, 45
2, 23760, Note_on_c, 0, 57, 45
2, 23878, Note_on_c, 0, 66, 0
2, 23878, Note_on_c, 0, 63, 0
2, 23878, Note_on_c, 0, 57, 0
2, 24000, Note_on_c, 0, 67, 45
2, 24000, Note_on_c, 0, 64, 45
2, 24000, Note_on_c, 0, 59, 45
2, 24118, Note_on_c, 0, 67, 0
2, 24118, Note_on_c, 0, 64, 0
2, 24118, Note_on_c, 0, 59, 0
2, 24240, Note_on_c, 0, 64, 47
2, 24240, Note_on_c, 0, 61, 47
2, 24240, Note_on_c, 0, 55, 47
2, 24358, Note_on_c, 0, 64, 0
2, 24358, Note_on_c, 0, 61, 0
2, 24358, Note_on_c, 0, 55, 0
2, 24480, Note_on_c, 0, 63, 49
2, 24480, Note_on_c, 0, 59, 49
2, 24480, Note_on_c, 0, 54, 49
2, 24598, Note_on_c, 0, 63, 0
2, 24598, Note_on_c, 0, 59, 0
2, 24598, Note_on_c, 0, 54, 0
2, 24720, Note_on_c, 0, 54, 52
2, 24720, Note_on_c, 0, 51, 52
2, 24958, Note_on_c, 0, 54, 0
2, 24958, Note_on_c, 0, 51, 0
2, 24960, Note_on_c, 0, 52, 55
2, 25049, Note_on_c, 0, 52, 0
2, 25200, Note_on_c, 0, 63, 55
2, 25438, Note_on_c, 0, 63, 0
2, 25440, Note_on_c, 0, 64, 55
2, 25529, Note_on_c, 0, 64, 0
2, 25680, Note_on_c, 0, 52, 55
2, 25680, Note_on_c, 0, 49, 55
2, 25918, Note_on_c, 0, 52, 0
2, 25918, Note_on_c, 0, 49, 0
2, 25920, Note_on_c, 0, 50, 55
2, 26009, Note_on_c, 0, 50, 0
2, 26160, Note_on_c, 0, 61, 55
2, 26398, Note_on_c, 0, 61, 0
2, 26400, Note_on_c, 0, 62, 55
2, 26489, Note_on_c, 0, 62, 0
2, 26640, Note_on_c, 0, 47, 95
2, 26640, Note_on_c, 0, 35, 95
2, 26729, Note_on_c, 0, 47, 0
2, 26729, Note_on_c, 0, 35, 0
2, 26880, Note_on_c, 0, 61, 55
2, 26880, Note_on_c, 0, 55, 55
2, 26880, Note_on_c, 0, 52, 55
2, 26998, Note_on_c, 0, 61, 0
2, 26998, Note_on_c, 0, 55, 0
2, 26998, Note_on_c, 0, 52, 0
2, 27120, Note_on_c, 0, 63, 55
2, 27120, Note_on_c, 0, 57, 55
2, 27120, Note_on_c, 0, 54, 55
2, 27238, Note_on_c, 0, 63, 0
2, 27238, Note_on_c, 0, 57, 0
2, 27238, Note_on_c, 0, 54, 0
2, 27360, Note_on_c, 0, 64, 55
2, 27360, Note_on_c, 0, 61, 55
2, 27360, Note_on_c, 0, 57, 55
2, 27478, Note_on_c, 0, 64, 0
2, 27478, Note_on_c, 0, 61, 0
2, 27478, Note_on_c, 0, 57, 0
2, 27600, Note_on_c, 0, 47, 95
2, 27600, Note_on_c, 0, 35, 95
2, 27689, Note_on_c, 0, 47, 0
2, 27689, Note_on_c, 0, 35, 0
2, 27840, Note_on_c, 0, 63, 55
2, 27840, Note_on_c, 0, 57, 55
2, 27840, Note_on_c, 0, 54, 55
2, 27958, Note_on_c, 0, 63, 0
2, 27958, Note_on_c, 0, 57, 0
2, 27958, Note_on_c, 0, 54, 0
2, 28080, Note_on_c, 0, 64, 55
2, 28080, Note_on_c, 0, 61, 55
2, 28080, Note_on_c, 0, 55, 55
2, 28198, Note_on_c, 0, 64, 0
2, 28198, Note_on_c, 0, 61, 0
2, 28198, Note_on_c, 0, 55, 0
2, 28320, Note_on_c, 0, 66, 55
2, 28320, Note_on_c, 0, 63, 55
2, 28320, Note_on_c, 0, 57, 55
2, 28438, Note_on_c, 0, 66, 0
2, 28438, Note_on_c, 0, 63, 0
2, 28438, Note_on_c, 0, 57, 0
2, 28560, Note_on_c, 0, 47, 95
2, 28560, Note_on_c, 0, 35, 95
2, 28649, Note_on_c, 0, 47, 0
2, 28649, Note_on_c, 0, 35, 0
2, 28800, Note_on_c, 0, 64, 55
2, 28800, Note_on_c, 0, 61, 55
2, 28800, Note_on_c, 0, 55, 55
2, 28918, Note_on_c, 0, 64, 0
2, 28918, Note_on_c, 0, 61, 0
2, 28918, Note_on_c, 0, 55, 0
2, 29040, Note_on_c, 0, 66, 55
2, 29040, Note_on_c, 0, 63, 55
2, 29040, Note_on_c, 0, 57, 55
2, 29158, Note_on_c, 0, 66, 0
2, 29158, Note_on_c, 0, 63, 0
2, 29158, Note_on_c, 0, 57, 0
2, 29280, Note_on_c, 0, 67, 55
2, 29280, Note_on_c, 0, 64, 55
2, 29280, Note_on_c, 0, 59, 55
2, 29398, Note_on_c, 0, 67, 0
2, 29398, Note_on_c, 0, 64, 0
2, 29398, Note_on_c, 0, 59, 0
2, 29520, Note_on_c, 0, 59, 55
2, 29640, Note_on_c, 0, 67, 55
2, 29640, Note_on_c, 0, 64, 55
2, 29758, Note_on_c, 0, 67, 0
2, 29758, Note_on_c, 0, 64, 0
2, 29760, Note_on_c, 0, 69, 55
2, 29760, Note_on_c, 0, 64, 55
2, 29878, Note_on_c, 0, 69, 0
2, 29878, Note_on_c, 0, 64, 0
2, 29880, Note_on_c, 0, 69, 55
2, 29880, Note_on_c, 0, 64, 55
2, 29998, Note_on_c, 0, 69, 0
2, 29998, Note_on_c, 0, 64, 0
2, 29999, Note_on_c, 0, 59, 0
2, 30000, Note_on_c, 0, 59, 55
2, 30120, Note_on_c, 0, 69, 55
2, 30120, Note_on_c, 0, 64, 55
2, 30238, Note_on_c, 0, 69, 0
2, 30238, Note_on_c, 0, 64, 0
2, 30240, Note_on_c, 0, 66, 55
2, 30240, Note_on_c, 0, 63, 55
2, 30329, Note_on_c, 0, 66, 0
2, 30329, Note_on_c, 0, 63, 0
2, 30479, Note_on_c, 0, 59, 0
2, 30480, Note_on_c, 0, 62, 75
2, 30508, Note_on_c, 0, 62, 0
2, 30510, Note_on_c, 0, 66, 75
2, 30538, Note_on_c, 0, 66, 0
2, 30540, Note_on_c, 0, 69, 75
2, 30568, Note_on_c, 0, 69, 0
2, 30570, Note_on_c, 0, 72, 75
2, 30598, Note_on_c, 0, 72, 0
2, 30720, Note_on_c, 0, 63, 75
2, 30748, Note_on_c, 0, 63, 0
2, 30750, Note_on_c, 0, 66, 75
2, 30778, Note_on_c, 0, 66, 0
2, 30780, Note_on_c, 0, 69, 75
2, 30808, Note_on_c, 0, 69, 0
2, 30810, Note_on_c, 0, 71, 75
2, 30838, Note_on_c, 0, 71, 0
2, 30960, Note_on_c, 0, 62, 75
2, 30988, Note_on_c, 0, 62, 0
2, 30990, Note_on_c, 0, 66, 75
2, 31018, Note_on_c, 0, 66, 0
2, 31020, Note_on_c, 0, 69, 75
2, 31048, Note_on_c, 0, 69, 0
2, 31050, Note_on_c, 0, 72, 75
2, 31078, Note_on_c, 0, 72, 0
2, 31200, Note_on_c, 0, 63, 75
2, 31228, Note_on_c, 0, 63, 0
2, 31230, Note_on_c, 0, 66, 75
2, 31258, Note_on_c, 0, 66, 0
2, 31260, Note_on_c, 0, 69, 75
2, 31288, Note_on_c, 0, 69, 0
2, 31290, Note_on_c, 0, 71, 75
2, 31318, Note_on_c, 0, 71, 0
2, 31440, Note_on_c, 0, 65, 75
2, 31468, Note_on_c, 0, 65, 0
2, 31470, Note_on_c, 0, 69, 75
2, 31498, Note_on_c, 0, 69, 0
2, 31500, Note_on_c, 0, 72, 75
2, 31528, Note_on_c, 0, 72, 0
2, 31530, Note_on_c, 0, 76, 75
2, 31558, Note_on_c, 0, 76, 0
2, 31680, Note_on_c, 0, 66, 75
2, 31708, Note_on_c, 0, 66, 0
2, 31710, Note_on_c, 0, 69, 75
2, 31738, Note_on_c, 0, 69, 0
2, 31740, Note_on_c, 0, 71, 75
2, 31768, Note_on_c, 0, 71, 0
2, 31770, Note_on_c, 0, 75, 75
2, 31798, Note_on_c, 0, 75, 0
2, 31920, Note_on_c, 0, 65, 75
2, 31948, Note_on_c, 0, 65, 0
2, 31950, Note_on_c, 0, 69, 75
2, 31978, Note_on_c, 0, 69, 0
2, 31980, Note_on_c, 0, 72, 75
2, 32008, Note_on_c, 0, 72, 0
2, 32010, Note_on_c, 0, 76, 75
2, 32038, Note_on_c, 0, 76, 0
2, 32160, Note_on_c, 0, 66, 75
2, 32188, Note_on_c, 0, 66, 0
2, 32190, Note_on_c, 0, 69, 75
2, 32218, Note_on_c, 0, 69, 0
2, 32220, Note_on_c, 0, 71, 75
2, 32248, Note_on_c, 0, 71, 0
2, 32250, Note_on_c, 0, 75, 75
2, 32278, Note_on_c, 0, 75, 0
2, 32400, Note_on_c, 0, 69, 75
2, 32428, Note_on_c, 0, 69, 0
2, 32430, Note_on_c, 0, 72, 75
2, 32458, Note_on_c, 0, 72, 0
2, 32460, Note_on_c, 0, 75, 75
2, 32488, Note_on_c, 0, 75, 0
2, 32490, Note_on_c, 0, 79, 75
2, 32518, Note_on_c, 0, 79, 0
2, 32640, Note_on_c, 0, 71, 75
2, 32670, Note_on_c, 0, 75, 75
2, 32699, Note_on_c, 0, 71, 0
2, 32715, Note_on_c, 0, 78, 75
2, 32729, Note_on_c, 0, 75, 0
2, 32753, Note_on_c, 0, 78, 0
2, 32880, Note_on_c, 0, 69, 75
2, 32908, Note_on_c, 0, 69, 0
2, 32910, Note_on_c, 0, 72, 75
2, 32938, Note_on_c, 0, 72, 0
2, 32940, Note_on_c, 0, 75, 75
2, 32968, Note_on_c, 0, 75, 0
2, 32970, Note_on_c, 0, 79, 75
2, 32998, Note_on_c, 0, 79, 0
2, 33120, Note_on_c, 0, 71, 75
2, 33160, Note_on_c, 0, 75, 75
2, 33179, Note_on_c, 0, 71, 0
2, 33200, Note_on_c, 0, 78, 75
2, 33219, Note_on_c, 0, 75, 0
2, 33238, Note_on_c, 0, 78, 0
2, 33360, Note_on_c, 0, 74, 75
2, 33388, Note_on_c, 0, 74, 0
2, 33390, Note_on_c, 0, 78, 75
2, 33418, Note_on_c, 0, 78, 0
2, 33420, Note_on_c, 0, 81, 75
2, 33448, Note_on_c, 0, 81, 0
2, 33450, Note_on_c, 0, 84, 75
2, 33478, Note_on_c, 0, 84, 0
2, 33600, Note_on_c, 0, 75, 75
2, 33628, Note_on_c, 0, 75, 0
2, 33630, Note_on_c, 0, 78, 75
2, 33658, Note_on_c, 0, 78, 0
2, 33660, Note_on_c, 0, 81, 74
2, 33688, Note_on_c, 0, 81, 0
2, 33690, Note_on_c, 0, 83, 74
2, 33718, Note_on_c, 0, 83, 0
2, 33840, Note_on_c, 0, 74, 71
2, 33868, Note_on_c, 0, 74, 0
2, 33870, Note_on_c, 0, 78, 70
2, 33898, Note_on_c, 0, 78, 0
2, 33900, Note_on_c, 0, 81, 69
2, 33928, Note_on_c, 0, 81, 0
2, 33930, Note_on_c, 0, 84, 69
2, 33958, Note_on_c, 0, 84, 0
2, 34080, Note_on_c, 0, 75, 66
2, 34108, Note_on_c, 0, 75, 0
2, 34110, Note_on_c, 0, 78, 65
2, 34138, Note_on_c, 0, 78, 0
2, 34140, Note_on_c, 0, 81, 64
2, 34168, Note_on_c, 0, 81, 0
2, 34170, Note_on_c, 0, 83, 64
2, 34198, Note_on_c, 0, 83, 0
2, 34320, Note_on_c, 0, 59, 61
2, 34378, Note_on_c, 0, 59, 0
2, 34380, Note_on_c, 0, 57, 59
2, 34438, Note_on_c, 0, 57, 0
2, 34440, Note_on_c, 0, 55, 58
2, 34498, Note_on_c, 0, 55, 0
2, 34500, Note_on_c, 0, 54, 57
2, 34558, Note_on_c, 0, 54, 0
2, 34560, Note_on_c, 0, 40, 45
2, 34588, Note_on_c, 0, 52, 45
2, 34649, Note_on_c, 0, 40, 0
2, 34677, Note_on_c, 0, 52, 0
2, 34800, Note_on_c, 0, 55, 45
2, 34830, Note_on_c, 0, 59, 45
2, 34860, Note_on_c, 0, 64, 45
2, 34889, Note_on_c, 0, 55, 0
2, 34919, Note_on_c, 0, 59, 0
2, 34949, Note_on_c, 0, 64, 0
2, 35040, Note_on_c, 0, 52, 45
2, 35129, Note_on_c, 0, 52, 0
2, 35280, Note_on_c, 0, 57, 45
2, 35310, Note_on_c, 0, 60, 45
2, 35340, Note_on_c, 0, 66, 45
2, 35369, Note_on_c, 0, 57, 0
2, 35399, Note_on_c, 0, 60, 0
2, 35429, Note_on_c, 0, 66, 0
2, 35520, Note_on_c, 0, 52, 45
2, 35609, Note_on_c, 0, 52, 0
2, 35760, Note_on_c, 0, 58, 45
2, 35790, Note_on_c, 0, 61, 45
2, 35820, Note_on_c, 0, 67, 45
2, 35849, Note_on_c, 0, 58, 0
2, 35879, Note_on_c, 0, 61, 0
2, 35909, Note_on_c, 0, 67, 0
2, 36000, Note_on_c, 0, 52, 45
2, 36089, Note_on_c, 0, 52, 0
2, 36240, Note_on_c, 0, 59, 45
2, 36270, Note_on_c, 0, 62, 45
2, 36300, Note_on_c, 0, 67, 45
2, 36329, Note_on_c, 0, 59, 0
2, 36359, Note_on_c, 0, 62, 0
2, 36389, Note_on_c, 0, 67, 0
2, 36480, Note_on_c, 0, 52, 45
2, 36569, Note_on_c, 0, 52, 0
2, 36720, Note_on_c, 0, 61, 45
2, 36750, Note_on_c, 0, 64, 45
2, 36780, Note_on_c, 0, 70, 45
2, 36809, Note_on_c, 0, 61, 0
2, 36839, Note_on_c, 0, 64, 0
2, 36869, Note_on_c, 0, 70, 0
2, 36960, Note_on_c, 0, 52, 45
2, 37049, Note_on_c, 0, 52, 0
2, 37200, Note_on_c, 0, 72, 45
2, 37200, Note_on_c, 0, 66, 45
2, 37200, Note_on_c, 0, 63, 45
2, 37289, Note_on_c, 0, 72, 0
2, 37289, Note_on_c, 0, 66, 0
2, 37289, Note_on_c, 0, 63, 0
2, 37440, Note_on_c, 0, 64, 45
2, 37470, Note_on_c, 0, 67, 45
2, 37500, Note_on_c, 0, 71, 45
2, 37529, Note_on_c, 0, 64, 0
2, 37559, Note_on_c, 0, 67, 0
2, 37589, Note_on_c, 0, 71, 0
2, 37680, Note_on_c, 0, 64, 45
2, 37710, Note_on_c, 0, 66, 45
2, 37740, Note_on_c, 0, 69, 45
2, 37769, Note_on_c, 0, 64, 0
2, 37799, Note_on_c, 0, 66, 0
2, 37829, Note_on_c, 0, 69, 0
2, 37920, Note_on_c, 0, 71, 45
2, 37920, Note_on_c, 0, 67, 45
2, 37920, Note_on_c, 0, 64, 45
2, 38009, Note_on_c, 0, 71, 0
2, 38009, Note_on_c, 0, 67, 0
2, 38009, Note_on_c, 0, 64, 0
2, 38160, Note_on_c, 0, 64, 45
2, 38218, Note_on_c, 0, 64, 0
2, 38220, Note_on_c, 0, 62, 45
2, 38278, Note_on_c, 0, 62, 0
2, 38280, Note_on_c, 0, 60, 45
2, 38338, Note_on_c, 0, 60, 0
2, 38340, Note_on_c, 0, 59, 45
2, 38398, Note_on_c, 0, 59, 0
2, 38400, Note_on_c, 0, 58, 45
2, 38489, Note_on_c, 0, 58, 0
2, 38640, Note_on_c, 0, 64, 46
2, 38670, Note_on_c, 0, 67, 47
2, 38700, Note_on_c, 0, 72, 47
2, 38729, Note_on_c, 0, 64, 0
2, 38759, Note_on_c, 0, 67, 0
2, 38789, Note_on_c, 0, 72, 0
2, 38880, Note_on_c, 0, 57, 48
2, 38969, Note_on_c, 0, 57, 0
2, 39120, Note_on_c, 0, 63, 50
2, 39150, Note_on_c, 0, 66, 50
2, 39180, Note_on_c, 0, 72, 51
2, 39209, Note_on_c, 0, 63, 0
2, 39239, Note_on_c, 0, 66, 0
2, 39269, Note_on_c, 0, 72, 0
2, 39360, Note_on_c, 0, 55, 52
2, 39449, Note_on_c, 0, 55, 0
2, 39600, Note_on_c, 0, 64, 54
2, 39630, Note_on_c, 0, 67, 54
2, 39660, Note_on_c, 0, 71, 54
2, 39689, Note_on_c, 0, 64, 0
2, 39719, Note_on_c, 0, 67, 0
2, 39749, Note_on_c, 0, 71, 0
2, 39840, Note_on_c, 0, 54, 56
2, 39870, Note_on_c, 0, 66, 56
2, 39929, Note_on_c, 0, 54, 0
2, 39959, Note_on_c, 0, 66, 0
2, 40080, Note_on_c, 0, 70, 58
2, 40080, Note_on_c, 0, 66, 58
2, 40169, Note_on_c, 0, 70, 0
2, 40169, Note_on_c, 0, 66, 0
2, 40320, Note_on_c, 0, 54, 60
2, 40409, Note_on_c, 0, 54, 0
2, 40560, Note_on_c, 0, 71, 60
2, 40560, Note_on_c, 0, 68, 60
2, 40649, Note_on_c, 0, 71, 0
2, 40649, Note_on_c, 0, 68, 0
2, 40800, Note_on_c, 0, 66, 60
2, 40889, Note_on_c, 0, 66, 0
2, 41040, Note_on_c, 0, 73, 60
2, 41040, Note_on_c, 0, 70, 60
2, 41129, Note_on_c, 0, 73, 0
2, 41129, Note_on_c, 0, 70, 0
2, 41280, Note_on_c, 0, 59, 60
2, 41310, Note_on_c, 0, 66, 60
2, 41340, Note_on_c, 0, 71, 60
2, 41369, Note_on_c, 0, 59, 0
2, 41399, Note_on_c, 0, 66, 0
2, 41429, Note_on_c, 0, 71, 0
2, 41520, Note_on_c, 0, 60, 57
2, 41550, Note_on_c, 0, 66, 56
2, 41580, Note_on_c, 0, 70, 56
2, 41609, Note_on_c, 0, 60, 0
2, 41639, Note_on_c, 0, 66, 0
2, 41669, Note_on_c, 0, 70, 0
2, 41760, Note_on_c, 0, 59, 53
2, 41790, Note_on_c, 0, 66, 53
2, 41820, Note_on_c, 0, 71, 52
2, 41849, Note_on_c, 0, 59, 0
2, 41879, Note_on_c, 0, 66, 0
2, 41909, Note_on_c, 0, 71, 0
2, 42000, Note_on_c, 0, 71, 49
2, 42058, Note_on_c, 0, 71, 0
2, 42060, Note_on_c, 0, 69, 48
2, 42118, Note_on_c, 0, 69, 0
2, 42120, Note_on_c, 0, 67, 47
2, 42178, Note_on_c, 0, 67, 0
2, 42180, Note_on_c, 0, 66, 46
2, 42238, Note_on_c, 0, 66, 0
2, 42240, Note_on_c, 0, 64, 45
2, 42329, Note_on_c, 0, 64, 0
2, 42480, Note_on_c, 0, 71, 45
2, 42480, Note_on_c, 0, 67, 45
2, 42569, Note_on_c, 0, 71, 0
2, 42569, Note_on_c, 0, 67, 0
2, 42720, Note_on_c, 0, 64, 45
2, 42809, Note_on_c, 0, 64, 0
2, 42960, Note_on_c, 0, 72, 45
2, 42960, Note_on_c, 0, 69, 45
2, 43049, Note_on_c, 0, 72, 0
2, 43049, Note_on_c, 0, 69, 0
2, 43200, Note_on_c, 0, 64, 45
2, 43289, Note_on_c, 0, 64, 0
2, 43440, Note_on_c, 0, 73, 45
2, 43440, Note_on_c, 0, 70, 45
2, 43529, Note_on_c, 0, 73, 0
2, 43529, Note_on_c, 0, 70, 0
2, 43680, Note_on_c, 0, 64, 45
2, 43769, Note_on_c, 0, 64, 0
2, 43920, Note_on_c, 0, 74, 45
2, 43920, Note_on_c, 0, 71, 45
2, 44009, Note_on_c, 0, 74, 0
2, 44009, Note_on_c, 0, 71, 0
2, 44160, Note_on_c, 0, 64, 45
2, 44249, Note_on_c, 0, 64, 0
2, 44400, Note_on_c, 0, 76, 48
2, 44400, Note_on_c, 0, 73, 48
2, 44489, Note_on_c, 0, 76, 0
2, 44489, Note_on_c, 0, 73, 0
2, 44640, Note_on_c, 0, 64, 52
2, 44729, Note_on_c, 0, 64, 0
2, 44880, Note_on_c, 0, 78, 56
2, 44880, Note_on_c, 0, 75, 56
2, 44969, Note_on_c, 0, 78, 0
2, 44969, Note_on_c, 0, 75, 0
2, 45120, Note_on_c, 0, 79, 60
2, 45120, Note_on_c, 0, 76, 60
2, 45209, Note_on_c, 0, 79, 0
2, 45209, Note_on_c, 0, 76, 0
2, 45360, Note_on_c, 0, 76, 57
2, 45390, Note_on_c, 0, 78, 56
2, 45420, Note_on_c, 0, 81, 56
2, 45449, Note_on_c, 0, 76, 0
2, 45479, Note_on_c, 0, 78, 0
2, 45509, Note_on_c, 0, 81, 0
2, 45600, Note_on_c, 0, 79, 53
2, 45600, Note_on_c, 0, 76, 53
2, 45689, Note_on_c, 0, 79, 0
2, 45689, Note_on_c, 0, 76, 0
2, 45840, Note_on_c, 0, 79, 49
2, 45898, Note_on_c, 0, 79, 0
2, 45900, Note_on_c, 0, 78, 48
2, 45958, Note_on_c, 0, 78, 0
2, 45960, Note_on_c, 0, 76, 47
2, 46018, Note_on_c, 0, 76, 0
2, 46020, Note_on_c, 0, 74, 46
2, 46078, Note_on_c, 0, 74, 0
2, 46080, Note_on_c, 0, 73, 45
2, 46169, Note_on_c, 0, 73, 0
2, 46320, Note_on_c, 0, 73, 45
2, 46320, Note_on_c, 0, 66, 45
2, 46798, Note_on_c, 0, 73, 0
2, 46798, Note_on_c, 0, 66, 0
2, 46800, Note_on_c, 0, 78, 45
2, 46858, Note_on_c, 0, 78, 0
2, 46860, Note_on_c, 0, 76, 45
2, 46918, Note_on_c, 0, 76, 0
2, 46920, Note_on_c, 0, 75, 45
2, 46978, Note_on_c, 0, 75, 0
2, 46980, Note_on_c, 0, 73, 45
2, 47038, Note_on_c, 0, 73, 0
2, 47040, Note_on_c, 0, 71, 45
2, 47129, Note_on_c, 0, 71, 0
2, 47280, Note_on_c, 0, 71, 45
2, 47280, Note_on_c, 0, 64, 45
2, 47758, Note_on_c, 0, 71, 0
2, 47758, Note_on_c, 0, 64, 0
2, 47760, Note_on_c, 0, 76, 45
2, 47818, Note_on_c, 0, 76, 0
2, 47820, Note_on_c, 0, 74, 45
2, 47878, Note_on_c, 0, 74, 0
2, 47880, Note_on_c, 0, 73, 45
2, 47938, Note_on_c, 0, 73, 0
2, 47940, Note_on_c, 0, 71, 45
2, 47998, Note_on_c, 0, 71, 0
2, 48000, Note_on_c, 0, 69, 45
2, 48089, Note_on_c, 0, 69, 0
2, 48240, Note_on_c, 0, 69, 45
2, 48240, Note_on_c, 0, 62, 45
2, 48718, Note_on_c, 0, 69, 0
2, 48718, Note_on_c, 0, 62, 0
2, 48720, Note_on_c, 0, 74, 45
2, 48778, Note_on_c, 0, 74, 0
2, 48780, Note_on_c, 0, 72, 45
2, 48838, Note_on_c, 0, 72, 0
2, 48840, Note_on_c, 0, 71, 45
2, 48898, Note_on_c, 0, 71, 0
2, 48900, Note_on_c, 0, 69, 45
2, 48958, Note_on_c, 0, 69, 0
2, 48960, Note_on_c, 0, 71, 75
2, 48960, Note_on_c, 0, 67, 75
2, 49049, Note_on_c, 0, 71, 0
2, 49049, Note_on_c, 0, 67, 0
2, 49200, Note_on_c, 0, 71, 75
2, 49200, Note_on_c, 0, 66, 75
2, 49289, Note_on_c, 0, 71, 0
2, 49289, Note_on_c, 0, 66, 0
2, 49440, Note_on_c, 0, 71, 75
2, 49440, Note_on_c, 0, 67, 75
2, 49440, Note_on_c, 0, 64, 75
2, 49529, Note_on_c, 0, 71, 0
2, 49529, Note_on_c, 0, 67, 0
2, 49529, Note_on_c, 0, 64, 0
2, 49740, Note_on_c, 0, 52, 75
2, 49770, Note_on_c, 0, 55, 75
2, 49799, Note_on_c, 0, 52, 0
2, 49800, Note_on_c, 0, 59, 75
2, 49829, Note_on_c, 0, 55, 0
2, 49830, Note_on_c, 0, 64, 75
2, 49859, Note_on_c, 0, 59, 0
2, 49889, Note_on_c, 0, 64, 0
2, 49890, End_track
0, 0, End_of_file
