0, 0, Header, 1, 2, 480
1, 0, Start_track
1, 0, Time_signature, 2, 1, 24, 8
1, 0, Key_signature, 4, "major"
1, 0, Tempo, 400000
1, 0, Control_c, 0, 121, 0
1, 0, Program_c, 0, 0
1, 0, Control_c, 0, 7, 100
1, 0, Control_c, 0, 10, 64
1, 0, Control_c, 0, 91, 0
1, 0, Control_c, 0, 93, 0
1, 0, MIDI_port, 0
1, 7800, Note_on_c, 0, 68, 49
1, 7919, Note_on_c, 0, 68, 0
1, 7920, Note_on_c, 0, 69, 49
1, 8039, Note_on_c, 0, 69, 0
1, 8040, Note_on_c, 0, 68, 49
1, 8159, Note_on_c, 0, 68, 0
1, 8160, Note_on_c, 0, 67, 49
1, 8279, Note_on_c, 0, 67, 0
1, 8280, Note_on_c, 0, 68, 49
1, 8399, Note_on_c, 0, 68, 0
1, 8400, Note_on_c, 0, 73, 49
1, 8519, Note_on_c, 0, 73, 0
1, 8520, Note_on_c, 0, 76, 49
1, 8639, Note_on_c, 0, 76, 0
1, 8640, Note_on_c, 0, 75, 49
1, 8759, Note_on_c, 0, 75, 0
1, 8760, Note_on_c, 0, 73, 49
1, 8879, Note_on_c, 0, 73, 0
1, 8880, Note_on_c, 0, 75, 49
1, 8999, Note_on_c, 0, 75, 0
1, 9000, Note_on_c, 0, 73, 49
1, 9119, Note_on_c, 0, 73, 0
1, 9120, Note_on_c, 0, 72, 49
1, 9239, Note_on_c, 0, 72, 0
1, 9240, Note_on_c, 0, 73, 49
1, 9359, Note_on_c, 0, 73, 0
1, 9360, Note_on_c, 0, 76, 49
1, 9479, Note_on_c, 0, 76, 0
1, 9480, Note_on_c, 0, 80, 49
1, 9593, Note_on_c, 0, 80, 0
1, 9720, Note_on_c, 0, 68, 49
1, 9839, Note_on_c, 0, 68, 0
1, 9840, Note_on_c, 0, 69, 49
1, 9959, Note_on_c, 0, 69, 0
1, 9960, Note_on_c, 0, 68, 49
1, 10079, Note_on_c, 0, 68, 0
1, 10080, Note_on_c, 0, 67, 49
1, 10199, Note_on_c, 0, 67, 0
1, 10200, Note_on_c, 0, 68, 49
1, 10319, Note_on_c, 0, 68, 0
1, 10320, Note_on_c, 0, 73, 49
1, 10439, Note_on_c, 0, 73, 0
1, 10440, Note_on_c, 0, 76, 49
1, 10559, Note_on_c, 0, 76, 0
1, 10560, Note_on_c, 0, 75, 49
1, 10679, Note_on_c, 0, 75, 0
1, 10680, Note_on_c, 0, 73, 49
1, 10799, Note_on_c, 0, 73, 0
1, 10800, Note_on_c, 0, 75, 49
1, 10919, Note_on_c, 0, 75, 0
1, 10920, Note_on_c, 0, 73, 49
1, 11039, Note_on_c, 0, 73, 0
1, 11040, Note_on_c, 0, 72, 49
1, 11159, Note_on_c, 0, 72, 0
1, 11160, Note_on_c, 0, 73, 49
1, 11279, Note_on_c, 0, 73, 0
1, 11280, Note_on_c, 0, 76, 49
1, 11399, Note_on_c, 0, 76, 0
1, 11400, Note_on_c, 0, 80, 49
1, 11513, Note_on_c, 0, 80, 0
1, 11640, Note_on_c, 0, 69, 49
1, 11753, Note_on_c, 0, 69, 0
1, 11760, Note_on_c, 0, 73, 49
1, 11873, Note_on_c, 0, 73, 0
1, 11880, Note_on_c, 0, 75, 49
1, 11993, Note_on_c, 0, 75, 0
1, 12000, Note_on_c, 0, 78, 49
1, 12113, Note_on_c, 0, 78, 0
1, 12120, Note_on_c, 0, 81, 49
1, 12233, Note_on_c, 0, 81, 0
1, 12240, Note_on_c, 0, 85, 49
1, 12353, Note_on_c, 0, 85, 0
1, 12360, Note_on_c, 0, 87, 49
1, 12473, Note_on_c, 0, 87, 0
1, 12480, Note_on_c, 0, 95, 49
1, 12593, Note_on_c, 0, 95, 0
1, 12600, Note_on_c, 0, 93, 49
1, 12713, Note_on_c, 0, 93, 0
1, 12720, Note_on_c, 0, 92, 49
1, 12833, Note_on_c, 0, 92, 0
1, 12840, Note_on_c, 0, 90, 49
1, 12953, Note_on_c, 0, 90, 0
1, 12960, Note_on_c, 0, 88, 49
1, 13073, Note_on_c, 0, 88, 0
1, 13080, Note_on_c, 0, 87, 49
1, 13193, Note_on_c, 0, 87, 0
1, 13200, Note_on_c, 0, 90, 49
1, 13313, Note_on_c, 0, 90, 0
1, 13320, Note_on_c, 0, 85, 49
1, 13433, Note_on_c, 0, 85, 0
1, 13440, Note_on_c, 0, 84, 49
1, 13559, Note_on_c, 0, 84, 0
1, 13560, Note_on_c, 0, 87, 49
1, 13679, Note_on_c, 0, 87, 0
1, 13680, Note_on_c, 0, 81, 49
1, 13799, Note_on_c, 0, 81, 0
1, 13800, Note_on_c, 0, 80, 49
1, 13919, Note_on_c, 0, 80, 0
1, 13920, Note_on_c, 0, 78, 49
1, 14039, Note_on_c, 0, 78, 0
1, 14040, Note_on_c, 0, 81, 49
1, 14159, Note_on_c, 0, 81, 0
1, 14160, Note_on_c, 0, 76, 49
1, 14279, Note_on_c, 0, 76, 0
1, 14280, Note_on_c, 0, 75, 49
1, 14399, Note_on_c, 0, 75, 0
1, 14400, Note_on_c, 0, 78, 49
1, 14519, Note_on_c, 0, 78, 0
1, 14520, Note_on_c, 0, 73, 49
1, 14639, Note_on_c, 0, 73, 0
1, 14640, Note_on_c, 0, 72, 49
1, 14759, Note_on_c, 0, 72, 0
1, 14760, Note_on_c, 0, 75, 49
1, 14879, Note_on_c, 0, 75, 0
1, 14880, Note_on_c, 0, 69, 49
1, 14999, Note_on_c, 0, 69, 0
1, 15000, Note_on_c, 0, 68, 49
1, 15119, Note_on_c, 0, 68, 0
1, 15120, Note_on_c, 0, 71, 49
1, 15233, Note_on_c, 0, 71, 0
1, 15240, Note_on_c, 0, 69, 49
1, 15467, Note_on_c, 0, 69, 0
1, 15480, Note_on_c, 0, 68, 49
1, 15599, Note_on_c, 0, 68, 0
1, 15600, Note_on_c, 0, 69, 49
1, 15719, Note_on_c, 0, 69, 0
1, 15720, Note_on_c, 0, 68, 49
1, 15839, Note_on_c, 0, 68, 0
1, 15840, Note_on_c, 0, 67, 49
1, 15959, Note_on_c, 0, 67, 0
1, 15960, Note_on_c, 0, 68, 49
1, 16079, Note_on_c, 0, 68, 0
1, 16080, Note_on_c, 0, 73, 49
1, 16199, Note_on_c, 0, 73, 0
1, 16200, Note_on_c, 0, 76, 49
1, 16319, Note_on_c, 0, 76, 0
1, 16320, Note_on_c, 0, 75, 49
1, 16439, Note_on_c, 0, 75, 0
1, 16440, Note_on_c, 0, 73, 49
1, 16559, Note_on_c, 0, 73, 0
1, 16560, Note_on_c, 0, 75, 49
1, 16679, Note_on_c, 0, 75, 0
1, 16680, Note_on_c, 0, 73, 49
1, 16799, Note_on_c, 0, 73, 0
1, 16800, Note_on_c, 0, 72, 49
1, 16919, Note_on_c, 0, 72, 0
1, 16920, Note_on_c, 0, 73, 49
1, 17039, Note_on_c, 0, 73, 0
1, 17040, Note_on_c, 0, 76, 49
1, 17159, Note_on_c, 0, 76, 0
1, 17160, Note_on_c, 0, 80, 49
1, 17273, Note_on_c, 0, 80, 0
1, 17400, Note_on_c, 0, 68, 49
1, 17519, Note_on_c, 0, 68, 0
1, 17520, Note_on_c, 0, 70, 49
1, 17639, Note_on_c, 0, 70, 0
1, 17640, Note_on_c, 0, 68, 49
1, 17759, Note_on_c, 0, 68, 0
1, 17760, Note_on_c, 0, 67, 49
1, 17879, Note_on_c, 0, 67, 0
1, 17880, Note_on_c, 0, 68, 49
1, 17999, Note_on_c, 0, 68, 0
1, 18000, Note_on_c, 0, 73, 49
1, 18119, Note_on_c, 0, 73, 0
1, 18120, Note_on_c, 0, 76, 49
1, 18239, Note_on_c, 0, 76, 0
1, 18240, Note_on_c, 0, 75, 49
1, 18359, Note_on_c, 0, 75, 0
1, 18360, Note_on_c, 0, 73, 49
1, 18479, Note_on_c, 0, 73, 0
1, 18480, Note_on_c, 0, 75, 49
1, 18599, Note_on_c, 0, 75, 0
1, 18600, Note_on_c, 0, 73, 49
1, 18719, Note_on_c, 0, 73, 0
1, 18720, Note_on_c, 0, 72, 49
1, 18839, Note_on_c, 0, 72, 0
1, 18840, Note_on_c, 0, 73, 49
1, 18959, Note_on_c, 0, 73, 0
1, 18960, Note_on_c, 0, 76, 49
1, 19079, Note_on_c, 0, 76, 0
1, 19080, Note_on_c, 0, 80, 49
1, 19193, Note_on_c, 0, 80, 0
1, 19200, Note_on_c, 0, 75, 49
1, 19319, Note_on_c, 0, 75, 0
1, 19320, Note_on_c, 0, 76, 51
1, 19439, Note_on_c, 0, 76, 0
1, 19440, Note_on_c, 0, 75, 54
1, 19559, Note_on_c, 0, 75, 0
1, 19560, Note_on_c, 0, 74, 57
1, 19679, Note_on_c, 0, 74, 0
1, 19680, Note_on_c, 0, 75, 60
1, 19799, Note_on_c, 0, 75, 0
1, 19800, Note_on_c, 0, 83, 63
1, 19919, Note_on_c, 0, 83, 0
1, 19920, Note_on_c, 0, 82, 66
1, 20039, Note_on_c, 0, 82, 0
1, 20040, Note_on_c, 0, 80, 69
1, 20153, Note_on_c, 0, 80, 0
1, 20160, Note_on_c, 0, 79, 72
1, 20279, Note_on_c, 0, 79, 0
1, 20280, Note_on_c, 0, 88, 75
1, 20399, Note_on_c, 0, 88, 0
1, 20400, Note_on_c, 0, 87, 78
1, 20519, Note_on_c, 0, 87, 0
1, 20520, Note_on_c, 0, 85, 81
1, 20639, Note_on_c, 0, 85, 0
1, 20640, Note_on_c, 0, 83, 84
1, 20759, Note_on_c, 0, 83, 0
1, 20760, Note_on_c, 0, 82, 87
1, 20879, Note_on_c, 0, 82, 0
1, 20880, Note_on_c, 0, 80, 90
1, 20999, Note_on_c, 0, 80, 0
1, 21000, Note_on_c, 0, 79, 93
1, 21113, Note_on_c, 0, 79, 0
1, 21120, Note_on_c, 0, 82, 96
1, 21239, Note_on_c, 0, 82, 0
1, 21240, Note_on_c, 0, 80, 96
1, 21359, Note_on_c, 0, 80, 0
1, 21360, Note_on_c, 0, 83, 96
1, 21479, Note_on_c, 0, 83, 0
1, 21480, Note_on_c, 0, 74, 96
1, 21593, Note_on_c, 0, 74, 0
1, 21600, Note_on_c, 0, 76, 96
1, 21719, Note_on_c, 0, 76, 0
1, 21720, Note_on_c, 0, 75, 96
1, 21839, Note_on_c, 0, 75, 0
1, 21840, Note_on_c, 0, 80, 96
1, 21953, Note_on_c, 0, 80, 0
1, 21960, Note_on_c, 0, 70, 96
1, 22073, Note_on_c, 0, 70, 0
1, 22080, Note_on_c, 0, 74, 96
1, 22199, Note_on_c, 0, 74, 0
1, 22200, Note_on_c, 0, 71, 96
1, 22319, Note_on_c, 0, 71, 0
1, 22320, Note_on_c, 0, 75, 96
1, 22439, Note_on_c, 0, 75, 0
1, 22440, Note_on_c, 0, 67, 96
1, 22553, Note_on_c, 0, 67, 0
1, 22560, Note_on_c, 0, 70, 96
1, 22679, Note_on_c, 0, 70, 0
1, 22680, Note_on_c, 0, 68, 96
1, 22799, Note_on_c, 0, 68, 0
1, 22800, Note_on_c, 0, 67, 96
1, 22919, Note_on_c, 0, 67, 0
1, 22920, Note_on_c, 0, 68, 96
1, 23033, Note_on_c, 0, 68, 0
1, 23040, Tempo, 444444
1, 23040, Note_on_c, 0, 68, 115
1, 23040, Note_on_c, 0, 68, 96
1, 23153, Note_on_c, 0, 68, 0
1, 23160, Note_on_c, 0, 80, 96
1, 23273, Note_on_c, 0, 80, 0
1, 23280, Note_on_c, 0, 72, 96
1, 23393, Note_on_c, 0, 72, 0
1, 23400, Note_on_c, 0, 73, 96
1, 23513, Note_on_c, 0, 73, 0
1, 23519, Note_on_c, 0, 68, 0
1, 23520, Note_on_c, 0, 66, 115
1, 23520, Note_on_c, 0, 66, 96
1, 23633, Note_on_c, 0, 66, 0
1, 23640, Note_on_c, 0, 78, 96
1, 23753, Note_on_c, 0, 78, 0
1, 23760, Note_on_c, 0, 72, 96
1, 23873, Note_on_c, 0, 72, 0
1, 23880, Note_on_c, 0, 73, 96
1, 23993, Note_on_c, 0, 73, 0
1, 23999, Note_on_c, 0, 66, 0
1, 24000, Note_on_c, 0, 65, 115
1, 24000, Note_on_c, 0, 65, 96
1, 24113, Note_on_c, 0, 65, 0
1, 24120, Note_on_c, 0, 77, 96
1, 24233, Note_on_c, 0, 77, 0
1, 24240, Note_on_c, 0, 72, 96
1, 24353, Note_on_c, 0, 72, 0
1, 24360, Note_on_c, 0, 73, 96
1, 24473, Note_on_c, 0, 73, 0
1, 24479, Note_on_c, 0, 65, 0
1, 24480, Note_on_c, 0, 66, 115
1, 24480, Note_on_c, 0, 66, 96
1, 24593, Note_on_c, 0, 66, 0
1, 24600, Note_on_c, 0, 78, 96
1, 24713, Note_on_c, 0, 78, 0
1, 24720, Note_on_c, 0, 72, 96
1, 24833, Note_on_c, 0, 72, 0
1, 24840, Note_on_c, 0, 73, 96
1, 24953, Note_on_c, 0, 73, 0
1, 24959, Note_on_c, 0, 66, 0
1, 24960, Note_on_c, 0, 61, 115
1, 25079, Note_on_c, 0, 61, 0
1, 25080, Note_on_c, 0, 73, 96
1, 25199, Note_on_c, 0, 73, 0
1, 25200, Note_on_c, 0, 66, 96
1, 25319, Note_on_c, 0, 66, 0
1, 25320, Note_on_c, 0, 69, 96
1, 25433, Note_on_c, 0, 69, 0
1, 25440, Note_on_c, 0, 63, 115
1, 25559, Note_on_c, 0, 63, 0
1, 25560, Note_on_c, 0, 75, 96
1, 25679, Note_on_c, 0, 75, 0
1, 25680, Note_on_c, 0, 66, 96
1, 25799, Note_on_c, 0, 66, 0
1, 25800, Note_on_c, 0, 69, 96
1, 25913, Note_on_c, 0, 69, 0
1, 25920, Note_on_c, 0, 64, 115
1, 26039, Note_on_c, 0, 64, 0
1, 26040, Note_on_c, 0, 76, 96
1, 26159, Note_on_c, 0, 76, 0
1, 26160, Note_on_c, 0, 68, 96
1, 26279, Note_on_c, 0, 68, 0
1, 26280, Note_on_c, 0, 71, 96
1, 26393, Note_on_c, 0, 71, 0
1, 26400, Note_on_c, 0, 68, 115
1, 26519, Note_on_c, 0, 68, 0
1, 26520, Note_on_c, 0, 80, 96
1, 26639, Note_on_c, 0, 80, 0
1, 26640, Note_on_c, 0, 71, 96
1, 26759, Note_on_c, 0, 71, 0
1, 26760, Note_on_c, 0, 76, 96
1, 26873, Note_on_c, 0, 76, 0
1, 26880, Note_on_c, 0, 68, 115
1, 26999, Note_on_c, 0, 68, 0
1, 27000, Note_on_c, 0, 80, 96
1, 27113, Note_on_c, 0, 80, 0
1, 27120, Note_on_c, 0, 72, 96
1, 27233, Note_on_c, 0, 72, 0
1, 27240, Note_on_c, 0, 73, 96
1, 27353, Note_on_c, 0, 73, 0
1, 27360, Note_on_c, 0, 66, 115
1, 27479, Note_on_c, 0, 66, 0
1, 27480, Note_on_c, 0, 78, 96
1, 27593, Note_on_c, 0, 78, 0
1, 27600, Note_on_c, 0, 72, 96
1, 27713, Note_on_c, 0, 72, 0
1, 27720, Note_on_c, 0, 73, 96
1, 27833, Note_on_c, 0, 73, 0
1, 27840, Note_on_c, 0, 65, 115
1, 27959, Note_on_c, 0, 65, 0
1, 27960, Note_on_c, 0, 77, 96
1, 28073, Note_on_c, 0, 77, 0
1, 28080, Note_on_c, 0, 72, 96
1, 28193, Note_on_c, 0, 72, 0
1, 28200, Note_on_c, 0, 73, 96
1, 28313, Note_on_c, 0, 73, 0
1, 28320, Note_on_c, 0, 66, 115
1, 28439, Note_on_c, 0, 66, 0
1, 28440, Note_on_c, 0, 78, 96
1, 28553, Note_on_c, 0, 78, 0
1, 28560, Note_on_c, 0, 72, 96
1, 28673, Note_on_c, 0, 72, 0
1, 28680, Note_on_c, 0, 73, 96
1, 28793, Note_on_c, 0, 73, 0
1, 28800, Note_on_c, 0, 65, 115
1, 28919, Note_on_c, 0, 65, 0
1, 28920, Note_on_c, 0, 77, 96
1, 29033, Note_on_c, 0, 77, 0
1, 29040, Note_on_c, 0, 71, 96
1, 29153, Note_on_c, 0, 71, 0
1, 29160, Note_on_c, 0, 75, 96
1, 29273, Note_on_c, 0, 75, 0
1, 29280, Note_on_c, 0, 66, 115
1, 29399, Note_on_c, 0, 66, 0
1, 29400, Note_on_c, 0, 78, 96
1, 29513, Note_on_c, 0, 78, 0
1, 29520, Note_on_c, 0, 71, 96
1, 29633, Note_on_c, 0, 71, 0
1, 29640, Note_on_c, 0, 75, 96
1, 29753, Note_on_c, 0, 75, 0
1, 29760, Note_on_c, 0, 69, 115
1, 29879, Note_on_c, 0, 69, 0
1, 29880, Note_on_c, 0, 81, 96
1, 29993, Note_on_c, 0, 81, 0
1, 30000, Note_on_c, 0, 71, 96
1, 30113, Note_on_c, 0, 71, 0
1, 30120, Note_on_c, 0, 76, 96
1, 30233, Note_on_c, 0, 76, 0
1, 30240, Note_on_c, 0, 68, 115
1, 30359, Note_on_c, 0, 68, 0
1, 30360, Note_on_c, 0, 80, 96
1, 30473, Note_on_c, 0, 80, 0
1, 30480, Note_on_c, 0, 71, 96
1, 30593, Note_on_c, 0, 71, 0
1, 30600, Note_on_c, 0, 76, 96
1, 30713, Note_on_c, 0, 76, 0
1, 30720, Note_on_c, 0, 68, 49
1, 30833, Note_on_c, 0, 68, 0
1, 30840, Note_on_c, 0, 80, 58
1, 30959, Note_on_c, 0, 80, 0
1, 30960, Note_on_c, 0, 72, 49
1, 31073, Note_on_c, 0, 72, 0
1, 31080, Note_on_c, 0, 73, 49
1, 31193, Note_on_c, 0, 73, 0
1, 31200, Note_on_c, 0, 66, 49
1, 31313, Note_on_c, 0, 66, 0
1, 31320, Note_on_c, 0, 78, 58
1, 31439, Note_on_c, 0, 78, 0
1, 31440, Note_on_c, 0, 72, 49
1, 31553, Note_on_c, 0, 72, 0
1, 31560, Note_on_c, 0, 73, 49
1, 31673, Note_on_c, 0, 73, 0
1, 31680, Note_on_c, 0, 65, 49
1, 31793, Note_on_c, 0, 65, 0
1, 31800, Note_on_c, 0, 77, 58
1, 31919, Note_on_c, 0, 77, 0
1, 31920, Note_on_c, 0, 72, 49
1, 32033, Note_on_c, 0, 72, 0
1, 32040, Note_on_c, 0, 73, 49
1, 32153, Note_on_c, 0, 73, 0
1, 32160, Note_on_c, 0, 66, 49
1, 32273, Note_on_c, 0, 66, 0
1, 32280, Note_on_c, 0, 78, 58
1, 32399, Note_on_c, 0, 78, 0
1, 32400, Note_on_c, 0, 72, 49
1, 32513, Note_on_c, 0, 72, 0
1, 32520, Note_on_c, 0, 73, 49
1, 32633, Note_on_c, 0, 73, 0
1, 32640, Note_on_c, 0, 61, 49
1, 32753, Note_on_c, 0, 61, 0
1, 32760, Note_on_c, 0, 73, 61
1, 32879, Note_on_c, 0, 73, 0
1, 32880, Note_on_c, 0, 66, 54
1, 32993, Note_on_c, 0, 66, 0
1, 33000, Note_on_c, 0, 69, 57
1, 33113, Note_on_c, 0, 69, 0
1, 33120, Note_on_c, 0, 63, 60
1, 33233, Note_on_c, 0, 63, 0
1, 33240, Note_on_c, 0, 75, 75
1, 33359, Note_on_c, 0, 75, 0
1, 33360, Note_on_c, 0, 66, 66
1, 33473, Note_on_c, 0, 66, 0
1, 33480, Note_on_c, 0, 69, 69
1, 33593, Note_on_c, 0, 69, 0
1, 33600, Note_on_c, 0, 64, 72
1, 33713, Note_on_c, 0, 64, 0
1, 33720, Note_on_c, 0, 76, 90
1, 33839, Note_on_c, 0, 76, 0
1, 33840, Note_on_c, 0, 68, 78
1, 33953, Note_on_c, 0, 68, 0
1, 33960, Note_on_c, 0, 71, 81
1, 34073, Note_on_c, 0, 71, 0
1, 34080, Note_on_c, 0, 68, 84
1, 34193, Note_on_c, 0, 68, 0
1, 34200, Note_on_c, 0, 80, 104
1, 34319, Note_on_c, 0, 80, 0
1, 34320, Note_on_c, 0, 71, 90
1, 34433, Note_on_c, 0, 71, 0
1, 34440, Note_on_c, 0, 76, 93
1, 34553, Note_on_c, 0, 76, 0
1, 34560, Note_on_c, 0, 68, 96
1, 34673, Note_on_c, 0, 68, 0
1, 34680, Note_on_c, 0, 80, 115
1, 34799, Note_on_c, 0, 80, 0
1, 34800, Note_on_c, 0, 72, 96
1, 34913, Note_on_c, 0, 72, 0
1, 34920, Note_on_c, 0, 73, 96
1, 35033, Note_on_c, 0, 73, 0
1, 35040, Note_on_c, 0, 66, 96
1, 35153, Note_on_c, 0, 66, 0
1, 35160, Note_on_c, 0, 78, 115
1, 35279, Note_on_c, 0, 78, 0
1, 35280, Note_on_c, 0, 72, 96
1, 35393, Note_on_c, 0, 72, 0
1, 35400, Note_on_c, 0, 73, 96
1, 35513, Note_on_c, 0, 73, 0
1, 35520, Note_on_c, 0, 75, 96
1, 35633, Note_on_c, 0, 75, 0
1, 35640, Note_on_c, 0, 87, 115
1, 35759, Note_on_c, 0, 87, 0
1, 35760, Note_on_c, 0, 78, 96
1, 35873, Note_on_c, 0, 78, 0
1, 35880, Note_on_c, 0, 81, 96
1, 35993, Note_on_c, 0, 81, 0
1, 36000, Note_on_c, 0, 73, 96
1, 36113, Note_on_c, 0, 73, 0
1, 36120, Note_on_c, 0, 85, 115
1, 36239, Note_on_c, 0, 85, 0
1, 36240, Note_on_c, 0, 78, 96
1, 36353, Note_on_c, 0, 78, 0
1, 36360, Note_on_c, 0, 81, 96
1, 36473, Note_on_c, 0, 81, 0
1, 36480, Note_on_c, 0, 73, 96
1, 36593, Note_on_c, 0, 73, 0
1, 36600, Note_on_c, 0, 85, 111
1, 36719, Note_on_c, 0, 85, 0
1, 36720, Note_on_c, 0, 75, 89
1, 36833, Note_on_c, 0, 75, 0
1, 36840, Note_on_c, 0, 78, 85
1, 36953, Note_on_c, 0, 78, 0
1, 36960, Note_on_c, 0, 72, 81
1, 37073, Note_on_c, 0, 72, 0
1, 37080, Note_on_c, 0, 83, 92
1, 37199, Note_on_c, 0, 83, 0
1, 37200, Note_on_c, 0, 75, 73
1, 37313, Note_on_c, 0, 75, 0
1, 37320, Note_on_c, 0, 78, 69
1, 37433, Note_on_c, 0, 78, 0
1, 37440, Note_on_c, 0, 72, 65
1, 37553, Note_on_c, 0, 72, 0
1, 37560, Note_on_c, 0, 83, 73
1, 37679, Note_on_c, 0, 83, 0
1, 37680, Note_on_c, 0, 75, 57
1, 37793, Note_on_c, 0, 75, 0
1, 37800, Note_on_c, 0, 78, 53
1, 37913, Note_on_c, 0, 78, 0
1, 37920, Note_on_c, 0, 72, 49
1, 38033, Note_on_c, 0, 72, 0
1, 38040, Note_on_c, 0, 83, 54
1, 38159, Note_on_c, 0, 83, 0
1, 38160, Note_on_c, 0, 75, 41
1, 38273, Note_on_c, 0, 75, 0
1, 38280, Note_on_c, 0, 78, 37
1, 38393, Note_on_c, 0, 78, 0
1, 38400, Note_on_c, 0, 72, 33
1, 38513, Note_on_c, 0, 72, 0
1, 38520, Note_on_c, 0, 85, 39
1, 38639, Note_on_c, 0, 85, 0
1, 38640, Note_on_c, 0, 75, 33
1, 38753, Note_on_c, 0, 75, 0
1, 38760, Note_on_c, 0, 78, 33
1, 38873, Note_on_c, 0, 78, 0
1, 38880, Note_on_c, 0, 71, 33
1, 38993, Note_on_c, 0, 71, 0
1, 39000, Note_on_c, 0, 83, 39
1, 39119, Note_on_c, 0, 83, 0
1, 39120, Note_on_c, 0, 75, 33
1, 39233, Note_on_c, 0, 75, 0
1, 39240, Note_on_c, 0, 78, 33
1, 39353, Note_on_c, 0, 78, 0
1, 39360, Note_on_c, 0, 71, 33
1, 39473, Note_on_c, 0, 71, 0
1, 39480, Note_on_c, 0, 83, 39
1, 39599, Note_on_c, 0, 83, 0
1, 39600, Note_on_c, 0, 75, 33
1, 39713, Note_on_c, 0, 75, 0
1, 39720, Note_on_c, 0, 78, 33
1, 39833, Note_on_c, 0, 78, 0
1, 39840, Note_on_c, 0, 70, 33
1, 39953, Note_on_c, 0, 70, 0
1, 39960, Note_on_c, 0, 82, 39
1, 40079, Note_on_c, 0, 82, 0
1, 40080, Note_on_c, 0, 75, 33
1, 40193, Note_on_c, 0, 75, 0
1, 40200, Note_on_c, 0, 78, 33
1, 40313, Note_on_c, 0, 78, 0
1, 40320, Note_on_c, 0, 70, 33
1, 40433, Note_on_c, 0, 70, 0
1, 40440, Note_on_c, 0, 82, 33
1, 40553, Note_on_c, 0, 82, 0
1, 40560, Note_on_c, 0, 75, 33
1, 40673, Note_on_c, 0, 75, 0
1, 40680, Note_on_c, 0, 78, 33
1, 40793, Note_on_c, 0, 78, 0
1, 40800, Note_on_c, 0, 69, 33
1, 40913, Note_on_c, 0, 69, 0
1, 40920, Note_on_c, 0, 81, 33
1, 41033, Note_on_c, 0, 81, 0
1, 41040, Note_on_c, 0, 75, 33
1, 41153, Note_on_c, 0, 75, 0
1, 41160, Note_on_c, 0, 78, 33
1, 41273, Note_on_c, 0, 78, 0
1, 41280, Note_on_c, 0, 69, 33
1, 41393, Note_on_c, 0, 69, 0
1, 41400, Note_on_c, 0, 81, 33
1, 41513, Note_on_c, 0, 81, 0
1, 41520, Note_on_c, 0, 75, 33
1, 41633, Note_on_c, 0, 75, 0
1, 41640, Note_on_c, 0, 78, 33
1, 41753, Note_on_c, 0, 78, 0
1, 41760, Note_on_c, 0, 69, 33
1, 41873, Note_on_c, 0, 69, 0
1, 41880, Note_on_c, 0, 81, 33
1, 41993, Note_on_c, 0, 81, 0
1, 42000, Note_on_c, 0, 75, 33
1, 42113, Note_on_c, 0, 75, 0
1, 42120, Note_on_c, 0, 78, 33
1, 42233, Note_on_c, 0, 78, 0
1, 42240, Note_on_c, 0, 72, 33
1, 42353, Note_on_c, 0, 72, 0
1, 42360, Note_on_c, 0, 84, 33
1, 42473, Note_on_c, 0, 84, 0
1, 42480, Note_on_c, 0, 75, 33
1, 42593, Note_on_c, 0, 75, 0
1, 42600, Note_on_c, 0, 78, 33
1, 42713, Note_on_c, 0, 78, 0
1, 42720, Note_on_c, 0, 71, 33
1, 42833, Note_on_c, 0, 71, 0
1, 42840, Note_on_c, 0, 83, 33
1, 42953, Note_on_c, 0, 83, 0
1, 42960, Note_on_c, 0, 75, 33
1, 43073, Note_on_c, 0, 75, 0
1, 43080, Note_on_c, 0, 78, 33
1, 43193, Note_on_c, 0, 78, 0
1, 43200, Note_on_c, 0, 71, 33
1, 43313, Note_on_c, 0, 71, 0
1, 43320, Note_on_c, 0, 83, 33
1, 43433, Note_on_c, 0, 83, 0
1, 43440, Note_on_c, 0, 75, 33
1, 43553, Note_on_c, 0, 75, 0
1, 43560, Note_on_c, 0, 78, 33
1, 43673, Note_on_c, 0, 78, 0
1, 43680, Note_on_c, 0, 70, 33
1, 43793, Note_on_c, 0, 70, 0
1, 43800, Note_on_c, 0, 82, 33
1, 43913, Note_on_c, 0, 82, 0
1, 43920, Note_on_c, 0, 75, 33
1, 44033, Note_on_c, 0, 75, 0
1, 44040, Note_on_c, 0, 78, 33
1, 44153, Note_on_c, 0, 78, 0
1, 44160, Note_on_c, 0, 70, 33
1, 44273, Note_on_c, 0, 70, 0
1, 44280, Note_on_c, 0, 82, 33
1, 44393, Note_on_c, 0, 82, 0
1, 44400, Note_on_c, 0, 75, 33
1, 44513, Note_on_c, 0, 75, 0
1, 44520, Note_on_c, 0, 78, 33
1, 44633, Note_on_c, 0, 78, 0
1, 44640, Note_on_c, 0, 69, 33
1, 44753, Note_on_c, 0, 69, 0
1, 44760, Note_on_c, 0, 81, 33
1, 44873, Note_on_c, 0, 81, 0
1, 44880, Note_on_c, 0, 75, 33
1, 44993, Note_on_c, 0, 75, 0
1, 45000, Note_on_c, 0, 78, 33
1, 45113, Note_on_c, 0, 78, 0
1, 45120, Note_on_c, 0, 69, 33
1, 45233, Note_on_c, 0, 69, 0
1, 45240, Note_on_c, 0, 81, 33
1, 45353, Note_on_c, 0, 81, 0
1, 45360, Note_on_c, 0, 75, 33
1, 45473, Note_on_c, 0, 75, 0
1, 45480, Note_on_c, 0, 78, 33
1, 45593, Note_on_c, 0, 78, 0
1, 45600, Note_on_c, 0, 68, 33
1, 45713, Note_on_c, 0, 68, 0
1, 45720, Note_on_c, 0, 80, 33
1, 45833, Note_on_c, 0, 80, 0
1, 45840, Note_on_c, 0, 75, 33
1, 45953, Note_on_c, 0, 75, 0
1, 45960, Note_on_c, 0, 78, 33
1, 46073, Note_on_c, 0, 78, 0
1, 46080, Tempo, 400000
1, 46200, Note_on_c, 0, 68, 49
1, 46319, Note_on_c, 0, 68, 0
1, 46320, Note_on_c, 0, 69, 49
1, 46439, Note_on_c, 0, 69, 0
1, 46440, Note_on_c, 0, 68, 49
1, 46559, Note_on_c, 0, 68, 0
1, 46560, Note_on_c, 0, 67, 49
1, 46679, Note_on_c, 0, 67, 0
1, 46680, Note_on_c, 0, 68, 49
1, 46799, Note_on_c, 0, 68, 0
1, 46800, Note_on_c, 0, 73, 49
1, 46919, Note_on_c, 0, 73, 0
1, 46920, Note_on_c, 0, 76, 49
1, 47039, Note_on_c, 0, 76, 0
1, 47040, Note_on_c, 0, 75, 49
1, 47159, Note_on_c, 0, 75, 0
1, 47160, Note_on_c, 0, 73, 49
1, 47279, Note_on_c, 0, 73, 0
1, 47280, Note_on_c, 0, 75, 49
1, 47399, Note_on_c, 0, 75, 0
1, 47400, Note_on_c, 0, 73, 49
1, 47519, Note_on_c, 0, 73, 0
1, 47520, Note_on_c, 0, 72, 49
1, 47639, Note_on_c, 0, 72, 0
1, 47640, Note_on_c, 0, 73, 49
1, 47759, Note_on_c, 0, 73, 0
1, 47760, Note_on_c, 0, 76, 49
1, 47879, Note_on_c, 0, 76, 0
1, 47880, Note_on_c, 0, 80, 49
1, 47993, Note_on_c, 0, 80, 0
1, 48120, Note_on_c, 0, 68, 49
1, 48239, Note_on_c, 0, 68, 0
1, 48240, Note_on_c, 0, 69, 49
1, 48359, Note_on_c, 0, 69, 0
1, 48360, Note_on_c, 0, 68, 49
1, 48479, Note_on_c, 0, 68, 0
1, 48480, Note_on_c, 0, 67, 49
1, 48599, Note_on_c, 0, 67, 0
1, 48600, Note_on_c, 0, 68, 49
1, 48719, Note_on_c, 0, 68, 0
1, 48720, Note_on_c, 0, 73, 49
1, 48839, Note_on_c, 0, 73, 0
1, 48840, Note_on_c, 0, 76, 49
1, 48959, Note_on_c, 0, 76, 0
1, 48960, Note_on_c, 0, 75, 49
1, 49079, Note_on_c, 0, 75, 0
1, 49080, Note_on_c, 0, 73, 49
1, 49199, Note_on_c, 0, 73, 0
1, 49200, Note_on_c, 0, 75, 49
1, 49319, Note_on_c, 0, 75, 0
1, 49320, Note_on_c, 0, 73, 49
1, 49439, Note_on_c, 0, 73, 0
1, 49440, Note_on_c, 0, 72, 49
1, 49559, Note_on_c, 0, 72, 0
1, 49560, Note_on_c, 0, 73, 49
1, 49679, Note_on_c, 0, 73, 0
1, 49680, Note_on_c, 0, 76, 49
1, 49799, Note_on_c, 0, 76, 0
1, 49800, Note_on_c, 0, 80, 49
1, 49913, Note_on_c, 0, 80, 0
1, 50040, Note_on_c, 0, 69, 49
1, 50153, Note_on_c, 0, 69, 0
1, 50160, Note_on_c, 0, 73, 49
1, 50273, Note_on_c, 0, 73, 0
1, 50280, Note_on_c, 0, 75, 49
1, 50393, Note_on_c, 0, 75, 0
1, 50400, Note_on_c, 0, 78, 49
1, 50513, Note_on_c, 0, 78, 0
1, 50520, Note_on_c, 0, 81, 49
1, 50633, Note_on_c, 0, 81, 0
1, 50640, Note_on_c, 0, 85, 49
1, 50753, Note_on_c, 0, 85, 0
1, 50760, Note_on_c, 0, 87, 49
1, 50873, Note_on_c, 0, 87, 0
1, 50880, Note_on_c, 0, 95, 49
1, 50993, Note_on_c, 0, 95, 0
1, 51000, Note_on_c, 0, 93, 49
1, 51113, Note_on_c, 0, 93, 0
1, 51120, Note_on_c, 0, 92, 49
1, 51233, Note_on_c, 0, 92, 0
1, 51240, Note_on_c, 0, 90, 49
1, 51353, Note_on_c, 0, 90, 0
1, 51360, Note_on_c, 0, 88, 49
1, 51473, Note_on_c, 0, 88, 0
1, 51480, Note_on_c, 0, 87, 49
1, 51593, Note_on_c, 0, 87, 0
1, 51600, Note_on_c, 0, 90, 49
1, 51713, Note_on_c, 0, 90, 0
1, 51720, Note_on_c, 0, 85, 49
1, 51833, Note_on_c, 0, 85, 0
1, 51840, Note_on_c, 0, 84, 49
1, 51959, Note_on_c, 0, 84, 0
1, 51960, Note_on_c, 0, 87, 49
1, 52079, Note_on_c, 0, 87, 0
1, 52080, Note_on_c, 0, 81, 49
1, 52199, Note_on_c, 0, 81, 0
1, 52200, Note_on_c, 0, 80, 49
1, 52319, Note_on_c, 0, 80, 0
1, 52320, Note_on_c, 0, 78, 49
1, 52439, Note_on_c, 0, 78, 0
1, 52440, Note_on_c, 0, 81, 49
1, 52559, Note_on_c, 0, 81, 0
1, 52560, Note_on_c, 0, 76, 49
1, 52679, Note_on_c, 0, 76, 0
1, 52680, Note_on_c, 0, 75, 49
1, 52799, Note_on_c, 0, 75, 0
1, 52800, Note_on_c, 0, 78, 49
1, 52919, Note_on_c, 0, 78, 0
1, 52920, Note_on_c, 0, 73, 49
1, 53039, Note_on_c, 0, 73, 0
1, 53040, Note_on_c, 0, 72, 49
1, 53159, Note_on_c, 0, 72, 0
1, 53160, Note_on_c, 0, 75, 49
1, 53279, Note_on_c, 0, 75, 0
1, 53280, Note_on_c, 0, 69, 49
1, 53399, Note_on_c, 0, 69, 0
1, 53400, Note_on_c, 0, 68, 49
1, 53519, Note_on_c, 0, 68, 0
1, 53520, Note_on_c, 0, 71, 49
1, 53633, Note_on_c, 0, 71, 0
1, 53640, Note_on_c, 0, 69, 49
1, 53867, Note_on_c, 0, 69, 0
1, 53880, Note_on_c, 0, 68, 49
1, 53999, Note_on_c, 0, 68, 0
1, 54000, Note_on_c, 0, 69, 49
1, 54119, Note_on_c, 0, 69, 0
1, 54120, Note_on_c, 0, 68, 49
1, 54239, Note_on_c, 0, 68, 0
1, 54240, Note_on_c, 0, 67, 49
1, 54359, Note_on_c, 0, 67, 0
1, 54360, Note_on_c, 0, 68, 49
1, 54479, Note_on_c, 0, 68, 0
1, 54480, Note_on_c, 0, 73, 49
1, 54599, Note_on_c, 0, 73, 0
1, 54600, Note_on_c, 0, 76, 49
1, 54719, Note_on_c, 0, 76, 0
1, 54720, Note_on_c, 0, 75, 49
1, 54839, Note_on_c, 0, 75, 0
1, 54840, Note_on_c, 0, 73, 54
1, 54959, Note_on_c, 0, 73, 0
1, 54960, Note_on_c, 0, 75, 60
1, 55079, Note_on_c, 0, 75, 0
1, 55080, Note_on_c, 0, 73, 66
1, 55199, Note_on_c, 0, 73, 0
1, 55200, Note_on_c, 0, 72, 72
1, 55319, Note_on_c, 0, 72, 0
1, 55320, Note_on_c, 0, 73, 78
1, 55439, Note_on_c, 0, 73, 0
1, 55440, Note_on_c, 0, 76, 84
1, 55559, Note_on_c, 0, 76, 0
1, 55560, Note_on_c, 0, 80, 90
1, 55673, Note_on_c, 0, 80, 0
1, 55680, Note_on_c, 0, 76, 96
1, 55793, Note_on_c, 0, 76, 0
1, 55800, Note_on_c, 0, 75, 96
1, 55913, Note_on_c, 0, 75, 0
1, 55920, Note_on_c, 0, 76, 96
1, 56033, Note_on_c, 0, 76, 0
1, 56040, Note_on_c, 0, 75, 96
1, 56153, Note_on_c, 0, 75, 0
1, 56160, Note_on_c, 0, 74, 96
1, 56273, Note_on_c, 0, 74, 0
1, 56280, Note_on_c, 0, 75, 96
1, 56393, Note_on_c, 0, 75, 0
1, 56400, Note_on_c, 0, 78, 96
1, 56513, Note_on_c, 0, 78, 0
1, 56520, Note_on_c, 0, 81, 96
1, 56633, Note_on_c, 0, 81, 0
1, 56640, Note_on_c, 0, 78, 96
1, 56753, Note_on_c, 0, 78, 0
1, 56760, Note_on_c, 0, 77, 96
1, 56873, Note_on_c, 0, 77, 0
1, 56880, Note_on_c, 0, 78, 96
1, 56993, Note_on_c, 0, 78, 0
1, 57000, Note_on_c, 0, 77, 96
1, 57113, Note_on_c, 0, 77, 0
1, 57120, Note_on_c, 0, 76, 96
1, 57233, Note_on_c, 0, 76, 0
1, 57240, Note_on_c, 0, 77, 96
1, 57353, Note_on_c, 0, 77, 0
1, 57360, Note_on_c, 0, 80, 96
1, 57473, Note_on_c, 0, 80, 0
1, 57480, Note_on_c, 0, 85, 96
1, 57593, Note_on_c, 0, 85, 0
1, 57720, Note_on_c, 0, 73, 96
1, 57833, Note_on_c, 0, 73, 0
1, 57840, Note_on_c, 0, 75, 96
1, 57953, Note_on_c, 0, 75, 0
1, 57960, Note_on_c, 0, 73, 96
1, 58073, Note_on_c, 0, 73, 0
1, 58080, Note_on_c, 0, 72, 96
1, 58193, Note_on_c, 0, 72, 0
1, 58200, Note_on_c, 0, 73, 96
1, 58313, Note_on_c, 0, 73, 0
1, 58320, Note_on_c, 0, 78, 96
1, 58433, Note_on_c, 0, 78, 0
1, 58440, Note_on_c, 0, 81, 96
1, 58553, Note_on_c, 0, 81, 0
1, 58560, Note_on_c, 0, 78, 96
1, 58673, Note_on_c, 0, 78, 0
1, 58680, Note_on_c, 0, 77, 96
1, 58793, Note_on_c, 0, 77, 0
1, 58800, Note_on_c, 0, 78, 96
1, 58913, Note_on_c, 0, 78, 0
1, 58920, Note_on_c, 0, 77, 96
1, 59033, Note_on_c, 0, 77, 0
1, 59040, Note_on_c, 0, 76, 96
1, 59153, Note_on_c, 0, 76, 0
1, 59160, Note_on_c, 0, 77, 96
1, 59273, Note_on_c, 0, 77, 0
1, 59280, Note_on_c, 0, 80, 96
1, 59393, Note_on_c, 0, 80, 0
1, 59400, Note_on_c, 0, 85, 96
1, 59513, Note_on_c, 0, 85, 0
1, 59520, Note_on_c, 0, 80, 96
1, 59633, Note_on_c, 0, 80, 0
1, 59640, Note_on_c, 0, 78, 96
1, 59753, Note_on_c, 0, 78, 0
1, 59760, Note_on_c, 0, 80, 96
1, 59873, Note_on_c, 0, 80, 0
1, 59880, Note_on_c, 0, 78, 96
1, 59993, Note_on_c, 0, 78, 0
1, 60000, Note_on_c, 0, 77, 96
1, 60113, Note_on_c, 0, 77, 0
1, 60120, Note_on_c, 0, 78, 96
1, 60233, Note_on_c, 0, 78, 0
1, 60240, Note_on_c, 0, 81, 96
1, 60353, Note_on_c, 0, 81, 0
1, 60360, Note_on_c, 0, 85, 96
1, 60473, Note_on_c, 0, 85, 0
1, 60480, Note_on_c, 0, 81, 96
1, 60593, Note_on_c, 0, 81, 0
1, 60600, Note_on_c, 0, 80, 96
1, 60713, Note_on_c, 0, 80, 0
1, 60720, Note_on_c, 0, 81, 96
1, 60833, Note_on_c, 0, 81, 0
1, 60840, Note_on_c, 0, 80, 96
1, 60953, Note_on_c, 0, 80, 0
1, 60960, Note_on_c, 0, 79, 96
1, 61073, Note_on_c, 0, 79, 0
1, 61080, Note_on_c, 0, 80, 96
1, 61193, Note_on_c, 0, 80, 0
1, 61200, Note_on_c, 0, 84, 96
1, 61313, Note_on_c, 0, 84, 0
1, 61320, Note_on_c, 0, 87, 96
1, 61433, Note_on_c, 0, 87, 0
1, 61440, Note_on_c, 0, 80, 96
1, 61553, Note_on_c, 0, 80, 0
1, 61560, Note_on_c, 0, 81, 96
1, 61673, Note_on_c, 0, 81, 0
1, 61680, Note_on_c, 0, 80, 96
1, 61793, Note_on_c, 0, 80, 0
1, 61800, Note_on_c, 0, 79, 96
1, 61913, Note_on_c, 0, 79, 0
1, 61920, Note_on_c, 0, 80, 96
1, 62033, Note_on_c, 0, 80, 0
1, 62040, Note_on_c, 0, 88, 96
1, 62153, Note_on_c, 0, 88, 0
1, 62160, Note_on_c, 0, 87, 96
1, 62273, Note_on_c, 0, 87, 0
1, 62280, Note_on_c, 0, 86, 96
1, 62393, Note_on_c, 0, 86, 0
1, 62400, Note_on_c, 0, 85, 96
1, 62513, Note_on_c, 0, 85, 0
1, 62520, Note_on_c, 0, 84, 96
1, 62633, Note_on_c, 0, 84, 0
1, 62640, Note_on_c, 0, 83, 96
1, 62753, Note_on_c, 0, 83, 0
1, 62760, Note_on_c, 0, 82, 96
1, 62873, Note_on_c, 0, 82, 0
1, 62880, Note_on_c, 0, 81, 96
1, 62993, Note_on_c, 0, 81, 0
1, 63000, Note_on_c, 0, 80, 96
1, 63113, Note_on_c, 0, 80, 0
1, 63120, Note_on_c, 0, 79, 96
1, 63233, Note_on_c, 0, 79, 0
1, 63240, Note_on_c, 0, 79, 96
1, 63353, Note_on_c, 0, 79, 0
1, 63360, Note_on_c, 0, 76, 96
1, 63473, Note_on_c, 0, 76, 0
1, 63480, Note_on_c, 0, 78, 96
1, 63593, Note_on_c, 0, 78, 0
1, 63600, Note_on_c, 0, 76, 96
1, 63713, Note_on_c, 0, 76, 0
1, 63720, Note_on_c, 0, 75, 96
1, 63833, Note_on_c, 0, 75, 0
1, 63840, Note_on_c, 0, 76, 96
1, 63953, Note_on_c, 0, 76, 0
1, 63960, Note_on_c, 0, 88, 115
1, 64079, Note_on_c, 0, 88, 0
1, 64080, Note_on_c, 0, 87, 96
1, 64199, Note_on_c, 0, 87, 0
1, 64200, Note_on_c, 0, 86, 96
1, 64319, Note_on_c, 0, 86, 0
1, 64320, Note_on_c, 0, 85, 96
1, 64439, Note_on_c, 0, 85, 0
1, 64440, Note_on_c, 0, 84, 96
1, 64559, Note_on_c, 0, 84, 0
1, 64560, Note_on_c, 0, 83, 96
1, 64679, Note_on_c, 0, 83, 0
1, 64680, Note_on_c, 0, 82, 96
1, 64799, Note_on_c, 0, 82, 0
1, 64800, Note_on_c, 0, 81, 96
1, 64919, Note_on_c, 0, 81, 0
1, 64920, Note_on_c, 0, 80, 96
1, 65039, Note_on_c, 0, 80, 0
1, 65040, Note_on_c, 0, 79, 96
1, 65159, Note_on_c, 0, 79, 0
1, 65160, Note_on_c, 0, 78, 96
1, 65279, Note_on_c, 0, 78, 0
1, 65280, Note_on_c, 0, 80, 96
1, 65393, Note_on_c, 0, 80, 0
1, 65520, Note_on_c, 0, 92, 96
1, 65639, Note_on_c, 0, 92, 0
1, 65640, Note_on_c, 0, 91, 96
1, 65759, Note_on_c, 0, 91, 0
1, 65760, Note_on_c, 0, 90, 96
1, 65879, Note_on_c, 0, 90, 0
1, 65880, Note_on_c, 0, 89, 96
1, 65999, Note_on_c, 0, 89, 0
1, 66000, Note_on_c, 0, 88, 96
1, 66119, Note_on_c, 0, 88, 0
1, 66120, Note_on_c, 0, 87, 96
1, 66239, Note_on_c, 0, 87, 0
1, 66240, Note_on_c, 0, 86, 96
1, 66359, Note_on_c, 0, 86, 0
1, 66360, Note_on_c, 0, 85, 96
1, 66479, Note_on_c, 0, 85, 0
1, 66480, Note_on_c, 0, 84, 96
1, 66599, Note_on_c, 0, 84, 0
1, 66600, Note_on_c, 0, 83, 96
1, 66719, Note_on_c, 0, 83, 0
1, 66720, Note_on_c, 0, 82, 96
1, 66839, Note_on_c, 0, 82, 0
1, 66840, Note_on_c, 0, 81, 96
1, 66959, Note_on_c, 0, 81, 0
1, 66960, Note_on_c, 0, 80, 96
1, 67079, Note_on_c, 0, 80, 0
1, 67080, Note_on_c, 0, 79, 96
1, 67199, Note_on_c, 0, 79, 0
1, 67200, Note_on_c, 0, 78, 96
1, 67319, Note_on_c, 0, 78, 0
1, 67320, Note_on_c, 0, 77, 97
1, 67439, Note_on_c, 0, 77, 0
1, 67440, Note_on_c, 0, 76, 98
1, 67559, Note_on_c, 0, 76, 0
1, 67560, Note_on_c, 0, 75, 99
1, 67679, Note_on_c, 0, 75, 0
1, 67680, Note_on_c, 0, 74, 100
1, 67799, Note_on_c, 0, 74, 0
1, 67800, Note_on_c, 0, 73, 101
1, 67919, Note_on_c, 0, 73, 0
1, 67920, Note_on_c, 0, 72, 102
1, 68039, Note_on_c, 0, 72, 0
1, 68040, Note_on_c, 0, 71, 103
1, 68159, Note_on_c, 0, 71, 0
1, 68160, Note_on_c, 0, 70, 104
1, 68279, Note_on_c, 0, 70, 0
1, 68280, Note_on_c, 0, 69, 105
1, 68399, Note_on_c, 0, 69, 0
1, 68400, Note_on_c, 0, 68, 106
1, 68519, Note_on_c, 0, 68, 0
1, 68520, Note_on_c, 0, 67, 107
1, 68639, Note_on_c, 0, 67, 0
1, 68640, Note_on_c, 0, 66, 108
1, 68759, Note_on_c, 0, 66, 0
1, 68760, Note_on_c, 0, 65, 109
1, 68879, Note_on_c, 0, 65, 0
1, 68880, Note_on_c, 0, 65, 110
1, 68999, Note_on_c, 0, 65, 0
1, 69000, Note_on_c, 0, 61, 111
1, 69119, Note_on_c, 0, 61, 0
1, 69120, Note_on_c, 0, 56, 112
1, 69347, Note_on_c, 0, 56, 0
1, 69600, Note_on_c, 0, 93, 127
1, 69719, Note_on_c, 0, 93, 0
1, 69720, Note_on_c, 0, 92, 112
1, 69833, Note_on_c, 0, 92, 0
1, 69840, Note_on_c, 0, 100, 112
1, 69953, Note_on_c, 0, 100, 0
1, 69960, Note_on_c, 0, 88, 112
1, 70073, Note_on_c, 0, 88, 0
1, 70080, Note_on_c, 0, 90, 127
1, 70199, Note_on_c, 0, 90, 0
1, 70200, Note_on_c, 0, 88, 112
1, 70313, Note_on_c, 0, 88, 0
1, 70320, Note_on_c, 0, 97, 112
1, 70433, Note_on_c, 0, 97, 0
1, 70440, Note_on_c, 0, 85, 112
1, 70553, Note_on_c, 0, 85, 0
1, 70560, Note_on_c, 0, 87, 127
1, 70679, Note_on_c, 0, 87, 0
1, 70680, Note_on_c, 0, 85, 112
1, 70793, Note_on_c, 0, 85, 0
1, 70800, Note_on_c, 0, 92, 112
1, 70913, Note_on_c, 0, 92, 0
1, 70920, Note_on_c, 0, 80, 112
1, 71033, Note_on_c, 0, 80, 0
1, 71040, Note_on_c, 0, 81, 112
1, 71153, Note_on_c, 0, 81, 0
1, 71160, Note_on_c, 0, 80, 112
1, 71273, Note_on_c, 0, 80, 0
1, 71280, Note_on_c, 0, 88, 112
1, 71393, Note_on_c, 0, 88, 0
1, 71400, Note_on_c, 0, 76, 112
1, 71513, Note_on_c, 0, 76, 0
1, 71520, Note_on_c, 0, 78, 112
1, 71633, Note_on_c, 0, 78, 0
1, 71640, Note_on_c, 0, 76, 112
1, 71753, Note_on_c, 0, 76, 0
1, 71760, Note_on_c, 0, 85, 112
1, 71873, Note_on_c, 0, 85, 0
1, 71880, Note_on_c, 0, 73, 112
1, 71993, Note_on_c, 0, 73, 0
1, 72000, Note_on_c, 0, 75, 112
1, 72113, Note_on_c, 0, 75, 0
1, 72120, Note_on_c, 0, 73, 112
1, 72233, Note_on_c, 0, 73, 0
1, 72240, Note_on_c, 0, 80, 112
1, 72353, Note_on_c, 0, 80, 0
1, 72360, Note_on_c, 0, 68, 112
1, 72473, Note_on_c, 0, 68, 0
1, 72480, Note_on_c, 0, 69, 112
1, 72593, Note_on_c, 0, 69, 0
1, 72600, Note_on_c, 0, 68, 112
1, 72713, Note_on_c, 0, 68, 0
1, 72720, Note_on_c, 0, 76, 112
1, 72833, Note_on_c, 0, 76, 0
1, 72840, Note_on_c, 0, 64, 112
1, 72953, Note_on_c, 0, 64, 0
1, 72960, Note_on_c, 0, 66, 112
1, 73073, Note_on_c, 0, 66, 0
1, 73080, Note_on_c, 0, 64, 112
1, 73193, Note_on_c, 0, 64, 0
1, 73200, Note_on_c, 0, 73, 112
1, 73313, Note_on_c, 0, 73, 0
1, 73320, Note_on_c, 0, 61, 112
1, 73433, Note_on_c, 0, 61, 0
1, 73440, Note_on_c, 0, 63, 112
1, 73553, Note_on_c, 0, 63, 0
1, 73560, Note_on_c, 0, 61, 112
1, 73673, Note_on_c, 0, 61, 0
1, 73680, Note_on_c, 0, 68, 112
1, 73793, Note_on_c, 0, 68, 0
1, 73800, Note_on_c, 0, 56, 112
1, 73913, Note_on_c, 0, 56, 0
1, 73920, Note_on_c, 0, 63, 112
1, 74033, Note_on_c, 0, 63, 0
1, 74040, Note_on_c, 0, 61, 112
1, 74153, Note_on_c, 0, 61, 0
1, 74160, Note_on_c, 0, 68, 112
1, 74273, Note_on_c, 0, 68, 0
1, 74280, Note_on_c, 0, 56, 112
1, 74393, Note_on_c, 0, 56, 0
1, 74400, Note_on_c, 0, 63, 112
1, 74513, Note_on_c, 0, 63, 0
1, 74520, Note_on_c, 0, 61, 112
1, 74633, Note_on_c, 0, 61, 0
1, 74640, Note_on_c, 0, 69, 112
1, 74753, Note_on_c, 0, 69, 0
1, 74760, Note_on_c, 0, 57, 112
1, 74873, Note_on_c, 0, 57, 0
1, 74880, Note_on_c, 0, 63, 112
1, 74993, Note_on_c, 0, 63, 0
1, 75000, Note_on_c, 0, 61, 112
1, 75113, Note_on_c, 0, 61, 0
1, 75120, Note_on_c, 0, 68, 112
1, 75233, Note_on_c, 0, 68, 0
1, 75240, Note_on_c, 0, 56, 112
1, 75353, Note_on_c, 0, 56, 0
1, 75360, Note_on_c, 0, 63, 112
1, 75473, Note_on_c, 0, 63, 0
1, 75480, Note_on_c, 0, 61, 112
1, 75593, Note_on_c, 0, 61, 0
1, 75600, Note_on_c, 0, 67, 112
1, 75713, Note_on_c, 0, 67, 0
1, 75720, Note_on_c, 0, 55, 112
1, 75833, Note_on_c, 0, 55, 0
1, 75840, Note_on_c, 0, 63, 112
1, 75953, Note_on_c, 0, 63, 0
1, 75960, Note_on_c, 0, 61, 112
1, 76073, Note_on_c, 0, 61, 0
1, 76080, Note_on_c, 0, 68, 112
1, 76193, Note_on_c, 0, 68, 0
1, 76200, Note_on_c, 0, 56, 112
1, 76313, Note_on_c, 0, 56, 0
1, 76320, Note_on_c, 0, 63, 112
1, 76433, Note_on_c, 0, 63, 0
1, 76440, Note_on_c, 0, 60, 112
1, 76553, Note_on_c, 0, 60, 0
1, 76560, Note_on_c, 0, 68, 112
1, 76673, Note_on_c, 0, 68, 0
1, 76680, Note_on_c, 0, 56, 112
1, 76793, Note_on_c, 0, 56, 0
1, 76800, Key_signature, -5, "major"
1, 77760, Tempo, 461538
1, 80160, Tempo, 1000000
1, 80640, Time_signature, 4, 2, 24, 8
1, 80640, Note_on_c, 0, 68, 112
1, 81551, Note_on_c, 0, 68, 0
1, 81600, Note_on_c, 0, 70, 112
1, 81600, Note_on_c, 0, 70, 112
1, 81656, Note_on_c, 0, 70, 0
1, 81660, Note_on_c, 0, 72, 112
1, 81716, Note_on_c, 0, 72, 0
1, 81720, Note_on_c, 0, 70, 112
1, 81776, Note_on_c, 0, 70, 0
1, 81780, Note_on_c, 0, 72, 112
1, 81827, Note_on_c, 0, 70, 0
1, 81836, Note_on_c, 0, 72, 0
1, 81840, Note_on_c, 0, 68, 112
1, 82067, Note_on_c, 0, 68, 0
1, 82080, Note_on_c, 0, 73, 112
1, 82307, Note_on_c, 0, 73, 0
1, 82320, Note_on_c, 0, 75, 112
1, 82547, Note_on_c, 0, 75, 0
1, 82560, Note_on_c, 0, 77, 112
1, 83471, Note_on_c, 0, 77, 0
1, 83520, Note_on_c, 0, 80, 112
1, 84479, Note_on_c, 0, 80, 0
1, 84480, Note_on_c, 0, 78, 112
1, 84959, Note_on_c, 0, 78, 0
1, 84960, Note_on_c, 0, 77, 112
1, 85439, Note_on_c, 0, 77, 0
1, 85440, Note_on_c, 0, 75, 112
1, 85919, Note_on_c, 0, 75, 0
1, 85920, Note_on_c, 0, 77, 127
1, 86279, Note_on_c, 0, 77, 0
1, 86280, Note_on_c, 0, 73, 112
1, 86399, Note_on_c, 0, 73, 0
1, 86400, Note_on_c, 0, 68, 112
1, 87311, Note_on_c, 0, 68, 0
1, 87360, Note_on_c, 0, 70, 112
1, 89183, Note_on_c, 0, 70, 0
1, 89280, Note_on_c, 0, 71, 112
1, 89280, Note_on_c, 0, 71, 112
1, 89336, Note_on_c, 0, 71, 0
1, 89340, Note_on_c, 0, 73, 112
1, 89396, Note_on_c, 0, 73, 0
1, 89400, Note_on_c, 0, 71, 112
1, 89456, Note_on_c, 0, 71, 0
1, 89460, Note_on_c, 0, 73, 112
1, 89507, Note_on_c, 0, 71, 0
1, 89516, Note_on_c, 0, 73, 0
1, 89520, Note_on_c, 0, 70, 112
1, 89747, Note_on_c, 0, 70, 0
1, 89760, Note_on_c, 0, 75, 112
1, 89987, Note_on_c, 0, 75, 0
1, 90000, Note_on_c, 0, 77, 112
1, 90227, Note_on_c, 0, 77, 0
1, 90240, Note_on_c, 0, 78, 112
1, 90719, Note_on_c, 0, 78, 0
1, 90720, Note_on_c, 0, 77, 112
1, 91199, Note_on_c, 0, 77, 0
1, 91200, Note_on_c, 0, 75, 112
1, 91679, Note_on_c, 0, 75, 0
1, 91680, Note_on_c, 0, 77, 112
1, 92135, Note_on_c, 0, 77, 0
1, 92160, Note_on_c, 0, 73, 112
1, 93119, Note_on_c, 0, 73, 0
1, 93120, Note_on_c, 0, 72, 112
1, 93238, Note_on_c, 0, 72, 0
1, 93239, Note_on_c, 0, 73, 112
1, 93357, Note_on_c, 0, 73, 0
1, 93359, Note_on_c, 0, 75, 112
1, 93477, Note_on_c, 0, 75, 0
1, 93478, Note_on_c, 0, 73, 112
1, 93596, Note_on_c, 0, 73, 0
1, 93600, Note_on_c, 0, 77, 112
1, 93838, Note_on_c, 0, 77, 0
1, 93840, Note_on_c, 0, 75, 100
1, 94079, Note_on_c, 0, 75, 0
1, 94080, Note_on_c, 0, 75, 115
1, 95999, Note_on_c, 0, 75, 0
1, 96000, Tempo, 923080
1, 96000, Note_on_c, 0, 68, 96
1, 96911, Note_on_c, 0, 68, 0
1, 96960, Note_on_c, 0, 70, 96
1, 96960, Note_on_c, 0, 70, 96
1, 97016, Note_on_c, 0, 70, 0
1, 97020, Note_on_c, 0, 72, 96
1, 97076, Note_on_c, 0, 72, 0
1, 97080, Note_on_c, 0, 70, 96
1, 97136, Note_on_c, 0, 70, 0
1, 97140, Note_on_c, 0, 72, 96
1, 97187, Note_on_c, 0, 70, 0
1, 97196, Note_on_c, 0, 72, 0
1, 97200, Note_on_c, 0, 68, 96
1, 97427, Note_on_c, 0, 68, 0
1, 97440, Note_on_c, 0, 73, 96
1, 97667, Note_on_c, 0, 73, 0
1, 97680, Note_on_c, 0, 75, 96
1, 97907, Note_on_c, 0, 75, 0
1, 97920, Note_on_c, 0, 77, 96
1, 98831, Note_on_c, 0, 77, 0
1, 98880, Note_on_c, 0, 80, 96
1, 99839, Note_on_c, 0, 80, 0
1, 99840, Note_on_c, 0, 78, 96
1, 100319, Note_on_c, 0, 78, 0
1, 100320, Note_on_c, 0, 77, 96
1, 100799, Note_on_c, 0, 77, 0
1, 100800, Note_on_c, 0, 75, 96
1, 101279, Note_on_c, 0, 75, 0
1, 101280, Note_on_c, 0, 77, 115
1, 101338, Note_on_c, 0, 77, 0
1, 101339, Note_on_c, 0, 75, 115
1, 101397, Note_on_c, 0, 75, 0
1, 101399, Note_on_c, 0, 73, 115
1, 101457, Note_on_c, 0, 73, 0
1, 101459, Note_on_c, 0, 75, 115
1, 101517, Note_on_c, 0, 75, 0
1, 101520, Note_on_c, 0, 77, 115
1, 101638, Note_on_c, 0, 77, 0
1, 101640, Note_on_c, 0, 73, 96
1, 101759, Note_on_c, 0, 73, 0
1, 101760, Note_on_c, 0, 68, 96
1, 102671, Note_on_c, 0, 68, 0
1, 102720, Note_on_c, 0, 70, 96
1, 104543, Note_on_c, 0, 70, 0
1, 104640, Note_on_c, 0, 71, 96
1, 104640, Note_on_c, 0, 71, 96
1, 104696, Note_on_c, 0, 71, 0
1, 104700, Note_on_c, 0, 73, 96
1, 104756, Note_on_c, 0, 73, 0
1, 104760, Note_on_c, 0, 71, 96
1, 104816, Note_on_c, 0, 71, 0
1, 104820, Note_on_c, 0, 73, 96
1, 104867, Note_on_c, 0, 71, 0
1, 104876, Note_on_c, 0, 73, 0
1, 104880, Note_on_c, 0, 70, 96
1, 105107, Note_on_c, 0, 70, 0
1, 105120, Note_on_c, 0, 75, 96
1, 105347, Note_on_c, 0, 75, 0
1, 105360, Note_on_c, 0, 77, 96
1, 105587, Note_on_c, 0, 77, 0
1, 105600, Note_on_c, 0, 78, 96
1, 106079, Note_on_c, 0, 78, 0
1, 106080, Note_on_c, 0, 77, 96
1, 106559, Note_on_c, 0, 77, 0
1, 106560, Note_on_c, 0, 75, 96
1, 107039, Note_on_c, 0, 75, 0
1, 107040, Note_on_c, 0, 77, 96
1, 107495, Note_on_c, 0, 77, 0
1, 107520, Note_on_c, 0, 73, 96
1, 108203, Note_on_c, 0, 73, 0
1, 108240, Note_on_c, 0, 67, 96
1, 108299, Note_on_c, 0, 67, 0
1, 108300, Note_on_c, 0, 68, 96
1, 108359, Note_on_c, 0, 68, 0
1, 108360, Note_on_c, 0, 70, 96
1, 108419, Note_on_c, 0, 70, 0
1, 108420, Note_on_c, 0, 68, 96
1, 108479, Note_on_c, 0, 68, 0
1, 108480, Note_on_c, 0, 77, 96
1, 109199, Note_on_c, 0, 77, 0
1, 109200, Note_on_c, 0, 75, 96
1, 109427, Note_on_c, 0, 75, 0
1, 109440, Note_on_c, 0, 75, 115
1, 110399, Note_on_c, 0, 75, 0
1, 110400, Note_on_c, 0, 73, 96
1, 110855, Note_on_c, 0, 73, 0
1, 111120, Note_on_c, 0, 80, 96
1, 111347, Note_on_c, 0, 80, 0
1, 111360, Note_on_c, 0, 68, 96
1, 112271, Note_on_c, 0, 68, 0
1, 112320, Note_on_c, 0, 70, 96
1, 112320, Note_on_c, 0, 70, 96
1, 112379, Note_on_c, 0, 70, 0
1, 112380, Note_on_c, 0, 72, 96
1, 112439, Note_on_c, 0, 72, 0
1, 112440, Note_on_c, 0, 70, 96
1, 112499, Note_on_c, 0, 70, 0
1, 112500, Note_on_c, 0, 72, 96
1, 112559, Note_on_c, 0, 72, 0
1, 112560, Note_on_c, 0, 70, 96
1, 112619, Note_on_c, 0, 70, 0
1, 112679, Note_on_c, 0, 70, 0
1, 112680, Note_on_c, 0, 69, 96
1, 112799, Note_on_c, 0, 69, 0
1, 112800, Note_on_c, 0, 70, 96
1, 113159, Note_on_c, 0, 70, 0
1, 113160, Note_on_c, 0, 72, 96
1, 113279, Note_on_c, 0, 72, 0
1, 113280, Note_on_c, 0, 68, 96
1, 113507, Note_on_c, 0, 68, 0
1, 113760, Note_on_c, 0, 84, 96
1, 114376, Note_on_c, 0, 84, 0
1, 114377, Note_on_c, 0, 82, 87
1, 114513, Note_on_c, 0, 82, 0
1, 114514, Note_on_c, 0, 80, 78
1, 114650, Note_on_c, 0, 80, 0
1, 114651, Note_on_c, 0, 76, 69
1, 114787, Note_on_c, 0, 76, 0
1, 114788, Note_on_c, 0, 73, 60
1, 114924, Note_on_c, 0, 73, 0
1, 114925, Note_on_c, 0, 70, 51
1, 115119, Note_on_c, 0, 70, 0
1, 115131, Note_on_c, 0, 80, 38
1, 115199, Note_on_c, 0, 80, 0
1, 115200, Note_on_c, 0, 63, 39
1, 116159, Note_on_c, 0, 63, 0
1, 116160, Note_on_c, 0, 72, 33
1, 116192, Note_on_c, 0, 72, 0
1, 116193, Note_on_c, 0, 70, 33
1, 116518, Note_on_c, 0, 70, 0
1, 116520, Note_on_c, 0, 68, 33
1, 116639, Note_on_c, 0, 68, 0
1, 116640, Note_on_c, 0, 70, 33
1, 116999, Note_on_c, 0, 70, 0
1, 117000, Note_on_c, 0, 75, 33
1, 117119, Note_on_c, 0, 75, 0
1, 117120, Note_on_c, 0, 68, 33
1, 117575, Note_on_c, 0, 68, 0
1, 118080, Note_on_c, 0, 70, 33
1, 118535, Note_on_c, 0, 70, 0
1, 118560, Note_on_c, 0, 73, 33
1, 118711, Note_on_c, 0, 73, 0
1, 118720, Note_on_c, 0, 72, 33
1, 118871, Note_on_c, 0, 72, 0
1, 118880, Note_on_c, 0, 70, 33
1, 119031, Note_on_c, 0, 70, 0
1, 119040, Note_on_c, 0, 68, 33
1, 119951, Note_on_c, 0, 68, 0
1, 120000, Note_on_c, 0, 70, 33
1, 120000, Note_on_c, 0, 70, 33
1, 120056, Note_on_c, 0, 70, 0
1, 120060, Note_on_c, 0, 72, 36
1, 120116, Note_on_c, 0, 72, 0
1, 120120, Note_on_c, 0, 70, 40
1, 120176, Note_on_c, 0, 70, 0
1, 120180, Note_on_c, 0, 72, 44
1, 120227, Note_on_c, 0, 70, 0
1, 120236, Note_on_c, 0, 72, 0
1, 120240, Note_on_c, 0, 68, 48
1, 120467, Note_on_c, 0, 68, 0
1, 120480, Note_on_c, 0, 73, 64
1, 120707, Note_on_c, 0, 73, 0
1, 120720, Note_on_c, 0, 75, 80
1, 120947, Note_on_c, 0, 75, 0
1, 120960, Note_on_c, 0, 77, 96
1, 121871, Note_on_c, 0, 77, 0
1, 121920, Note_on_c, 0, 80, 96
1, 122879, Note_on_c, 0, 80, 0
1, 122880, Note_on_c, 0, 78, 96
1, 123359, Note_on_c, 0, 78, 0
1, 123360, Note_on_c, 0, 77, 96
1, 123839, Note_on_c, 0, 77, 0
1, 123840, Note_on_c, 0, 75, 96
1, 124319, Note_on_c, 0, 75, 0
1, 124320, Note_on_c, 0, 77, 115
1, 124378, Note_on_c, 0, 77, 0
1, 124379, Note_on_c, 0, 75, 115
1, 124437, Note_on_c, 0, 75, 0
1, 124439, Note_on_c, 0, 73, 115
1, 124497, Note_on_c, 0, 73, 0
1, 124499, Note_on_c, 0, 75, 115
1, 124557, Note_on_c, 0, 75, 0
1, 124560, Note_on_c, 0, 77, 115
1, 124678, Note_on_c, 0, 77, 0
1, 124680, Note_on_c, 0, 73, 96
1, 124799, Note_on_c, 0, 73, 0
1, 124800, Note_on_c, 0, 68, 96
1, 125711, Note_on_c, 0, 68, 0
1, 125760, Note_on_c, 0, 70, 96
1, 127583, Note_on_c, 0, 70, 0
1, 127680, Note_on_c, 0, 71, 96
1, 127680, Note_on_c, 0, 71, 96
1, 127736, Note_on_c, 0, 71, 0
1, 127740, Note_on_c, 0, 73, 96
1, 127796, Note_on_c, 0, 73, 0
1, 127800, Note_on_c, 0, 71, 96
1, 127856, Note_on_c, 0, 71, 0
1, 127860, Note_on_c, 0, 73, 96
1, 127907, Note_on_c, 0, 71, 0
1, 127916, Note_on_c, 0, 73, 0
1, 127920, Note_on_c, 0, 70, 96
1, 128147, Note_on_c, 0, 70, 0
1, 128160, Note_on_c, 0, 75, 96
1, 128387, Note_on_c, 0, 75, 0
1, 128400, Note_on_c, 0, 77, 96
1, 128627, Note_on_c, 0, 77, 0
1, 128640, Note_on_c, 0, 78, 96
1, 129119, Note_on_c, 0, 78, 0
1, 129120, Note_on_c, 0, 77, 96
1, 129599, Note_on_c, 0, 77, 0
1, 129600, Note_on_c, 0, 75, 96
1, 130079, Note_on_c, 0, 75, 0
1, 130080, Note_on_c, 0, 77, 96
1, 130535, Note_on_c, 0, 77, 0
1, 130560, Note_on_c, 0, 73, 96
1, 131243, Note_on_c, 0, 73, 0
1, 131280, Note_on_c, 0, 67, 96
1, 131339, Note_on_c, 0, 67, 0
1, 131340, Note_on_c, 0, 68, 96
1, 131399, Note_on_c, 0, 68, 0
1, 131400, Note_on_c, 0, 70, 96
1, 131459, Note_on_c, 0, 70, 0
1, 131460, Note_on_c, 0, 68, 96
1, 131519, Note_on_c, 0, 68, 0
1, 131520, Note_on_c, 0, 77, 96
1, 132239, Note_on_c, 0, 77, 0
1, 132240, Note_on_c, 0, 75, 96
1, 132467, Note_on_c, 0, 75, 0
1, 132480, Note_on_c, 0, 75, 115
1, 133439, Note_on_c, 0, 75, 0
1, 133440, Note_on_c, 0, 73, 96
1, 133895, Note_on_c, 0, 73, 0
1, 134160, Note_on_c, 0, 80, 96
1, 134387, Note_on_c, 0, 80, 0
1, 134400, Note_on_c, 0, 68, 96
1, 135311, Note_on_c, 0, 68, 0
1, 135360, Note_on_c, 0, 70, 96
1, 135360, Note_on_c, 0, 70, 96
1, 135419, Note_on_c, 0, 70, 0
1, 135420, Note_on_c, 0, 72, 96
1, 135479, Note_on_c, 0, 72, 0
1, 135480, Note_on_c, 0, 70, 96
1, 135539, Note_on_c, 0, 70, 0
1, 135540, Note_on_c, 0, 72, 96
1, 135599, Note_on_c, 0, 72, 0
1, 135600, Note_on_c, 0, 70, 96
1, 135659, Note_on_c, 0, 70, 0
1, 135719, Note_on_c, 0, 70, 0
1, 135720, Note_on_c, 0, 69, 96
1, 135839, Note_on_c, 0, 69, 0
1, 135840, Note_on_c, 0, 70, 96
1, 136199, Note_on_c, 0, 70, 0
1, 136200, Note_on_c, 0, 72, 96
1, 136319, Note_on_c, 0, 72, 0
1, 136320, Note_on_c, 0, 68, 96
1, 136547, Note_on_c, 0, 68, 0
1, 136800, Note_on_c, 0, 84, 96
1, 137416, Note_on_c, 0, 84, 0
1, 137417, Note_on_c, 0, 82, 87
1, 137553, Note_on_c, 0, 82, 0
1, 137554, Note_on_c, 0, 80, 78
1, 137690, Note_on_c, 0, 80, 0
1, 137691, Note_on_c, 0, 76, 69
1, 137827, Note_on_c, 0, 76, 0
1, 137828, Note_on_c, 0, 73, 60
1, 137964, Note_on_c, 0, 73, 0
1, 137965, Note_on_c, 0, 70, 51
1, 138159, Note_on_c, 0, 70, 0
1, 138171, Note_on_c, 0, 80, 38
1, 138239, Note_on_c, 0, 80, 0
1, 138240, Note_on_c, 0, 63, 39
1, 139199, Note_on_c, 0, 63, 0
1, 139200, Note_on_c, 0, 72, 33
1, 139232, Note_on_c, 0, 72, 0
1, 139233, Note_on_c, 0, 70, 33
1, 139558, Note_on_c, 0, 70, 0
1, 139560, Note_on_c, 0, 68, 33
1, 139679, Note_on_c, 0, 68, 0
1, 139680, Note_on_c, 0, 70, 33
1, 140039, Note_on_c, 0, 70, 0
1, 140040, Note_on_c, 0, 75, 33
1, 140159, Note_on_c, 0, 75, 0
1, 140160, Note_on_c, 0, 68, 33
1, 140615, Note_on_c, 0, 68, 0
1, 141120, Note_on_c, 0, 70, 33
1, 141575, Note_on_c, 0, 70, 0
1, 141600, Note_on_c, 0, 73, 33
1, 141751, Note_on_c, 0, 73, 0
1, 141760, Note_on_c, 0, 72, 33
1, 141911, Note_on_c, 0, 72, 0
1, 141920, Note_on_c, 0, 70, 33
1, 142071, Note_on_c, 0, 70, 0
1, 142080, Note_on_c, 0, 68, 33
1, 143039, Note_on_c, 0, 68, 0
1, 143040, Note_on_c, 0, 70, 33
1, 143040, Note_on_c, 0, 70, 33
1, 143099, Note_on_c, 0, 70, 0
1, 143100, Note_on_c, 0, 72, 34
1, 143159, Note_on_c, 0, 72, 0
1, 143160, Note_on_c, 0, 70, 35
1, 143219, Note_on_c, 0, 70, 0
1, 143220, Note_on_c, 0, 72, 36
1, 143279, Note_on_c, 0, 70, 0
1, 143279, Note_on_c, 0, 72, 0
1, 143280, Note_on_c, 0, 68, 37
1, 143519, Note_on_c, 0, 68, 0
1, 143520, Note_on_c, 0, 73, 41
1, 143759, Note_on_c, 0, 73, 0
1, 143760, Note_on_c, 0, 75, 45
1, 143999, Note_on_c, 0, 75, 0
1, 144000, Note_on_c, 0, 77, 49
1, 144911, Note_on_c, 0, 77, 0
1, 144960, Note_on_c, 0, 80, 58
1, 145919, Note_on_c, 0, 80, 0
1, 145920, Note_on_c, 0, 78, 49
1, 146399, Note_on_c, 0, 78, 0
1, 146400, Note_on_c, 0, 77, 49
1, 146879, Note_on_c, 0, 77, 0
1, 146880, Note_on_c, 0, 75, 49
1, 147359, Note_on_c, 0, 75, 0
1, 147360, Note_on_c, 0, 77, 58
1, 147418, Note_on_c, 0, 77, 0
1, 147419, Note_on_c, 0, 75, 58
1, 147477, Note_on_c, 0, 75, 0
1, 147479, Note_on_c, 0, 73, 58
1, 147537, Note_on_c, 0, 73, 0
1, 147539, Note_on_c, 0, 75, 58
1, 147597, Note_on_c, 0, 75, 0
1, 147600, Note_on_c, 0, 77, 58
1, 147718, Note_on_c, 0, 77, 0
1, 147720, Note_on_c, 0, 73, 49
1, 147839, Note_on_c, 0, 73, 0
1, 147840, Note_on_c, 0, 68, 49
1, 148751, Note_on_c, 0, 68, 0
1, 148800, Note_on_c, 0, 70, 49
1, 150623, Note_on_c, 0, 70, 0
1, 150720, Note_on_c, 0, 71, 49
1, 150720, Note_on_c, 0, 71, 49
1, 150776, Note_on_c, 0, 71, 0
1, 150780, Note_on_c, 0, 73, 49
1, 150836, Note_on_c, 0, 73, 0
1, 150840, Note_on_c, 0, 71, 49
1, 150896, Note_on_c, 0, 71, 0
1, 150900, Note_on_c, 0, 73, 49
1, 150947, Note_on_c, 0, 71, 0
1, 150956, Note_on_c, 0, 73, 0
1, 150960, Note_on_c, 0, 70, 49
1, 151187, Note_on_c, 0, 70, 0
1, 151200, Note_on_c, 0, 75, 49
1, 151427, Note_on_c, 0, 75, 0
1, 151440, Note_on_c, 0, 77, 49
1, 151667, Note_on_c, 0, 77, 0
1, 151680, Note_on_c, 0, 78, 49
1, 152159, Note_on_c, 0, 78, 0
1, 152160, Note_on_c, 0, 77, 49
1, 152639, Note_on_c, 0, 77, 0
1, 152640, Note_on_c, 0, 75, 49
1, 153119, Note_on_c, 0, 75, 0
1, 153120, Note_on_c, 0, 77, 49
1, 153575, Note_on_c, 0, 77, 0
1, 153600, Note_on_c, 0, 73, 49
1, 154283, Note_on_c, 0, 73, 0
1, 154320, Note_on_c, 0, 67, 49
1, 154379, Note_on_c, 0, 67, 0
1, 154380, Note_on_c, 0, 68, 49
1, 154439, Note_on_c, 0, 68, 0
1, 154440, Note_on_c, 0, 70, 49
1, 154499, Note_on_c, 0, 70, 0
1, 154500, Note_on_c, 0, 68, 49
1, 154559, Note_on_c, 0, 68, 0
1, 154560, Note_on_c, 0, 77, 49
1, 155279, Note_on_c, 0, 77, 0
1, 155280, Note_on_c, 0, 75, 49
1, 155519, Note_on_c, 0, 75, 0
1, 155520, Note_on_c, 0, 75, 49
1, 157343, Note_on_c, 0, 75, 0
1, 157440, Time_signature, 2, 1, 24, 8
1, 157440, Key_signature, 4, "major"
1, 157440, Tempo, 340909
1, 157560, Note_on_c, 0, 68, 49
1, 157679, Note_on_c, 0, 68, 0
1, 157680, Note_on_c, 0, 69, 49
1, 157799, Note_on_c, 0, 69, 0
1, 157800, Note_on_c, 0, 68, 49
1, 157919, Note_on_c, 0, 68, 0
1, 157920, Note_on_c, 0, 67, 49
1, 158039, Note_on_c, 0, 67, 0
1, 158040, Note_on_c, 0, 68, 49
1, 158159, Note_on_c, 0, 68, 0
1, 158160, Note_on_c, 0, 73, 49
1, 158279, Note_on_c, 0, 73, 0
1, 158280, Note_on_c, 0, 76, 49
1, 158399, Note_on_c, 0, 76, 0
1, 158400, Note_on_c, 0, 75, 49
1, 158519, Note_on_c, 0, 75, 0
1, 158520, Note_on_c, 0, 73, 49
1, 158639, Note_on_c, 0, 73, 0
1, 158640, Note_on_c, 0, 75, 49
1, 158759, Note_on_c, 0, 75, 0
1, 158760, Note_on_c, 0, 73, 49
1, 158879, Note_on_c, 0, 73, 0
1, 158880, Note_on_c, 0, 72, 49
1, 158999, Note_on_c, 0, 72, 0
1, 159000, Note_on_c, 0, 73, 49
1, 159119, Note_on_c, 0, 73, 0
1, 159120, Note_on_c, 0, 76, 49
1, 159239, Note_on_c, 0, 76, 0
1, 159240, Note_on_c, 0, 80, 49
1, 159353, Note_on_c, 0, 80, 0
1, 159480, Note_on_c, 0, 68, 49
1, 159599, Note_on_c, 0, 68, 0
1, 159600, Note_on_c, 0, 69, 49
1, 159719, Note_on_c, 0, 69, 0
1, 159720, Note_on_c, 0, 68, 49
1, 159839, Note_on_c, 0, 68, 0
1, 159840, Note_on_c, 0, 67, 49
1, 159959, Note_on_c, 0, 67, 0
1, 159960, Note_on_c, 0, 68, 49
1, 160079, Note_on_c, 0, 68, 0
1, 160080, Note_on_c, 0, 73, 49
1, 160199, Note_on_c, 0, 73, 0
1, 160200, Note_on_c, 0, 76, 49
1, 160319, Note_on_c, 0, 76, 0
1, 160320, Note_on_c, 0, 75, 49
1, 160439, Note_on_c, 0, 75, 0
1, 160440, Note_on_c, 0, 73, 49
1, 160559, Note_on_c, 0, 73, 0
1, 160560, Note_on_c, 0, 75, 49
1, 160679, Note_on_c, 0, 75, 0
1, 160680, Note_on_c, 0, 73, 49
1, 160799, Note_on_c, 0, 73, 0
1, 160800, Note_on_c, 0, 72, 49
1, 160919, Note_on_c, 0, 72, 0
1, 160920, Note_on_c, 0, 73, 49
1, 161039, Note_on_c, 0, 73, 0
1, 161040, Note_on_c, 0, 76, 49
1, 161159, Note_on_c, 0, 76, 0
1, 161160, Note_on_c, 0, 80, 49
1, 161273, Note_on_c, 0, 80, 0
1, 161400, Note_on_c, 0, 69, 49
1, 161513, Note_on_c, 0, 69, 0
1, 161520, Note_on_c, 0, 73, 49
1, 161633, Note_on_c, 0, 73, 0
1, 161640, Note_on_c, 0, 75, 49
1, 161753, Note_on_c, 0, 75, 0
1, 161760, Note_on_c, 0, 78, 49
1, 161873, Note_on_c, 0, 78, 0
1, 161880, Note_on_c, 0, 81, 49
1, 161993, Note_on_c, 0, 81, 0
1, 162000, Note_on_c, 0, 85, 49
1, 162113, Note_on_c, 0, 85, 0
1, 162120, Note_on_c, 0, 87, 49
1, 162233, Note_on_c, 0, 87, 0
1, 162240, Note_on_c, 0, 95, 49
1, 162353, Note_on_c, 0, 95, 0
1, 162360, Note_on_c, 0, 93, 49
1, 162473, Note_on_c, 0, 93, 0
1, 162480, Note_on_c, 0, 92, 49
1, 162593, Note_on_c, 0, 92, 0
1, 162600, Note_on_c, 0, 90, 49
1, 162713, Note_on_c, 0, 90, 0
1, 162720, Note_on_c, 0, 88, 49
1, 162833, Note_on_c, 0, 88, 0
1, 162840, Note_on_c, 0, 87, 49
1, 162953, Note_on_c, 0, 87, 0
1, 162960, Note_on_c, 0, 90, 49
1, 163073, Note_on_c, 0, 90, 0
1, 163080, Note_on_c, 0, 85, 49
1, 163193, Note_on_c, 0, 85, 0
1, 163200, Note_on_c, 0, 84, 49
1, 163319, Note_on_c, 0, 84, 0
1, 163320, Note_on_c, 0, 87, 49
1, 163439, Note_on_c, 0, 87, 0
1, 163440, Note_on_c, 0, 81, 49
1, 163559, Note_on_c, 0, 81, 0
1, 163560, Note_on_c, 0, 80, 49
1, 163679, Note_on_c, 0, 80, 0
1, 163680, Note_on_c, 0, 78, 49
1, 163799, Note_on_c, 0, 78, 0
1, 163800, Note_on_c, 0, 81, 49
1, 163919, Note_on_c, 0, 81, 0
1, 163920, Note_on_c, 0, 76, 49
1, 164039, Note_on_c, 0, 76, 0
1, 164040, Note_on_c, 0, 75, 49
1, 164159, Note_on_c, 0, 75, 0
1, 164160, Note_on_c, 0, 78, 49
1, 164279, Note_on_c, 0, 78, 0
1, 164280, Note_on_c, 0, 73, 49
1, 164399, Note_on_c, 0, 73, 0
1, 164400, Note_on_c, 0, 72, 49
1, 164519, Note_on_c, 0, 72, 0
1, 164520, Note_on_c, 0, 75, 49
1, 164639, Note_on_c, 0, 75, 0
1, 164640, Note_on_c, 0, 69, 49
1, 164759, Note_on_c, 0, 69, 0
1, 164760, Note_on_c, 0, 68, 49
1, 164879, Note_on_c, 0, 68, 0
1, 164880, Note_on_c, 0, 71, 49
1, 164993, Note_on_c, 0, 71, 0
1, 165000, Note_on_c, 0, 69, 49
1, 165227, Note_on_c, 0, 69, 0
1, 165240, Note_on_c, 0, 68, 49
1, 165359, Note_on_c, 0, 68, 0
1, 165360, Note_on_c, 0, 69, 49
1, 165479, Note_on_c, 0, 69, 0
1, 165480, Note_on_c, 0, 68, 49
1, 165599, Note_on_c, 0, 68, 0
1, 165600, Note_on_c, 0, 67, 49
1, 165719, Note_on_c, 0, 67, 0
1, 165720, Note_on_c, 0, 68, 49
1, 165839, Note_on_c, 0, 68, 0
1, 165840, Note_on_c, 0, 73, 49
1, 165959, Note_on_c, 0, 73, 0
1, 165960, Note_on_c, 0, 76, 49
1, 166079, Note_on_c, 0, 76, 0
1, 166080, Note_on_c, 0, 75, 49
1, 166199, Note_on_c, 0, 75, 0
1, 166200, Note_on_c, 0, 73, 52
1, 166319, Note_on_c, 0, 73, 0
1, 166320, Note_on_c, 0, 75, 56
1, 166439, Note_on_c, 0, 75, 0
1, 166440, Note_on_c, 0, 73, 60
1, 166559, Note_on_c, 0, 73, 0
1, 166560, Note_on_c, 0, 72, 64
1, 166679, Note_on_c, 0, 72, 0
1, 166680, Note_on_c, 0, 73, 68
1, 166799, Note_on_c, 0, 73, 0
1, 166800, Note_on_c, 0, 76, 72
1, 166919, Note_on_c, 0, 76, 0
1, 166920, Note_on_c, 0, 80, 76
1, 167033, Note_on_c, 0, 80, 0
1, 178720, Tempo, 599999
1, 179520, Tempo, 750002
1, 179521, End_track
2, 0, Start_track
2, 0, Key_signature, 4, "major"
2, 0, MIDI_port, 0
2, 0, Note_on_c, 0, 44, 80
2, 0, Note_on_c, 0, 56, 80
2, 2, Control_c, 0, 64, 127
2, 1921, Control_c, 0, 64, 0
2, 3647, Note_on_c, 0, 44, 0
2, 3647, Note_on_c, 0, 56, 0
2, 3840, Note_on_c, 0, 37, 96
2, 3840, Note_on_c, 0, 49, 96
2, 3842, Control_c, 0, 64, 127
2, 3991, Note_on_c, 0, 37, 0
2, 3991, Note_on_c, 0, 49, 0
2, 4000, Note_on_c, 0, 56, 96
2, 4151, Note_on_c, 0, 56, 0
2, 4160, Note_on_c, 0, 61, 96
2, 4311, Note_on_c, 0, 61, 0
2, 4320, Note_on_c, 0, 64, 96
2, 4471, Note_on_c, 0, 64, 0
2, 4480, Note_on_c, 0, 61, 96
2, 4631, Note_on_c, 0, 61, 0
2, 4640, Note_on_c, 0, 56, 96
2, 4791, Note_on_c, 0, 56, 0
2, 4800, Note_on_c, 0, 49, 96
2, 4959, Note_on_c, 0, 49, 0
2, 4960, Note_on_c, 0, 56, 96
2, 5119, Note_on_c, 0, 56, 0
2, 5120, Note_on_c, 0, 61, 96
2, 5279, Note_on_c, 0, 61, 0
2, 5280, Note_on_c, 0, 64, 85
2, 5439, Note_on_c, 0, 64, 0
2, 5440, Note_on_c, 0, 61, 73
2, 5599, Note_on_c, 0, 61, 0
2, 5600, Note_on_c, 0, 56, 61
2, 5751, Note_on_c, 0, 56, 0
2, 5760, Note_on_c, 0, 49, 49
2, 5761, Control_c, 0, 64, 0
2, 5762, Control_c, 0, 64, 127
2, 5919, Note_on_c, 0, 49, 0
2, 5920, Note_on_c, 0, 56, 49
2, 6079, Note_on_c, 0, 56, 0
2, 6080, Note_on_c, 0, 61, 49
2, 6239, Note_on_c, 0, 61, 0
2, 6240, Note_on_c, 0, 64, 49
2, 6399, Note_on_c, 0, 64, 0
2, 6400, Note_on_c, 0, 61, 49
2, 6559, Note_on_c, 0, 61, 0
2, 6560, Note_on_c, 0, 56, 49
2, 6711, Note_on_c, 0, 56, 0
2, 6720, Note_on_c, 0, 49, 49
2, 6879, Note_on_c, 0, 49, 0
2, 6880, Note_on_c, 0, 56, 49
2, 7039, Note_on_c, 0, 56, 0
2, 7040, Note_on_c, 0, 61, 49
2, 7199, Note_on_c, 0, 61, 0
2, 7200, Note_on_c, 0, 64, 49
2, 7359, Note_on_c, 0, 64, 0
2, 7360, Note_on_c, 0, 61, 49
2, 7519, Note_on_c, 0, 61, 0
2, 7520, Note_on_c, 0, 56, 49
2, 7671, Note_on_c, 0, 56, 0
2, 7680, Note_on_c, 0, 49, 49
2, 7681, Control_c, 0, 64, 0
2, 7682, Control_c, 0, 64, 127
2, 7839, Note_on_c, 0, 49, 0
2, 7840, Note_on_c, 0, 56, 49
2, 7999, Note_on_c, 0, 56, 0
2, 8000, Note_on_c, 0, 61, 49
2, 8159, Note_on_c, 0, 61, 0
2, 8160, Note_on_c, 0, 64, 49
2, 8319, Note_on_c, 0, 64, 0
2, 8320, Note_on_c, 0, 61, 49
2, 8479, Note_on_c, 0, 61, 0
2, 8480, Note_on_c, 0, 56, 49
2, 8631, Note_on_c, 0, 56, 0
2, 8640, Note_on_c, 0, 52, 49
2, 8799, Note_on_c, 0, 52, 0
2, 8800, Note_on_c, 0, 56, 49
2, 8959, Note_on_c, 0, 56, 0
2, 8960, Note_on_c, 0, 61, 49
2, 9119, Note_on_c, 0, 61, 0
2, 9120, Note_on_c, 0, 64, 49
2, 9279, Note_on_c, 0, 64, 0
2, 9280, Note_on_c, 0, 61, 49
2, 9439, Note_on_c, 0, 61, 0
2, 9440, Note_on_c, 0, 56, 49
2, 9591, Note_on_c, 0, 56, 0
2, 9600, Note_on_c, 0, 49, 49
2, 9601, Control_c, 0, 64, 0
2, 9602, Control_c, 0, 64, 127
2, 9759, Note_on_c, 0, 49, 0
2, 9760, Note_on_c, 0, 56, 49
2, 9919, Note_on_c, 0, 56, 0
2, 9920, Note_on_c, 0, 61, 49
2, 10079, Note_on_c, 0, 61, 0
2, 10080, Note_on_c, 0, 64, 49
2, 10239, Note_on_c, 0, 64, 0
2, 10240, Note_on_c, 0, 61, 49
2, 10399, Note_on_c, 0, 61, 0
2, 10400, Note_on_c, 0, 56, 49
2, 10551, Note_on_c, 0, 56, 0
2, 10560, Note_on_c, 0, 52, 49
2, 10719, Note_on_c, 0, 52, 0
2, 10720, Note_on_c, 0, 56, 49
2, 10879, Note_on_c, 0, 56, 0
2, 10880, Note_on_c, 0, 61, 49
2, 11039, Note_on_c, 0, 61, 0
2, 11040, Note_on_c, 0, 64, 49
2, 11199, Note_on_c, 0, 64, 0
2, 11200, Note_on_c, 0, 61, 49
2, 11359, Note_on_c, 0, 61, 0
2, 11360, Note_on_c, 0, 56, 49
2, 11511, Note_on_c, 0, 56, 0
2, 11520, Note_on_c, 0, 51, 49
2, 11521, Control_c, 0, 64, 0
2, 11522, Control_c, 0, 64, 127
2, 11679, Note_on_c, 0, 51, 0
2, 11680, Note_on_c, 0, 57, 49
2, 11839, Note_on_c, 0, 57, 0
2, 11840, Note_on_c, 0, 61, 49
2, 11999, Note_on_c, 0, 61, 0
2, 12000, Note_on_c, 0, 66, 49
2, 12159, Note_on_c, 0, 66, 0
2, 12160, Note_on_c, 0, 61, 49
2, 12319, Note_on_c, 0, 61, 0
2, 12320, Note_on_c, 0, 57, 49
2, 12471, Note_on_c, 0, 57, 0
2, 12480, Note_on_c, 0, 54, 49
2, 12639, Note_on_c, 0, 54, 0
2, 12640, Note_on_c, 0, 61, 49
2, 12799, Note_on_c, 0, 61, 0
2, 12800, Note_on_c, 0, 63, 49
2, 12959, Note_on_c, 0, 63, 0
2, 12960, Note_on_c, 0, 69, 49
2, 13119, Note_on_c, 0, 69, 0
2, 13120, Note_on_c, 0, 63, 49
2, 13279, Note_on_c, 0, 63, 0
2, 13280, Note_on_c, 0, 61, 49
2, 13431, Note_on_c, 0, 61, 0
2, 13440, Note_on_c, 0, 44, 49
2, 13441, Control_c, 0, 64, 0
2, 13442, Control_c, 0, 64, 127
2, 13599, Note_on_c, 0, 44, 0
2, 13600, Note_on_c, 0, 51, 49
2, 13759, Note_on_c, 0, 51, 0
2, 13760, Note_on_c, 0, 54, 49
2, 13919, Note_on_c, 0, 54, 0
2, 13920, Note_on_c, 0, 60, 49
2, 14079, Note_on_c, 0, 60, 0
2, 14080, Note_on_c, 0, 54, 49
2, 14239, Note_on_c, 0, 54, 0
2, 14240, Note_on_c, 0, 51, 49
2, 14391, Note_on_c, 0, 51, 0
2, 14400, Note_on_c, 0, 44, 49
2, 14559, Note_on_c, 0, 44, 0
2, 14560, Note_on_c, 0, 51, 49
2, 14719, Note_on_c, 0, 51, 0
2, 14720, Note_on_c, 0, 54, 49
2, 14879, Note_on_c, 0, 54, 0
2, 14880, Note_on_c, 0, 60, 49
2, 15039, Note_on_c, 0, 60, 0
2, 15040, Note_on_c, 0, 54, 49
2, 15199, Note_on_c, 0, 54, 0
2, 15200, Note_on_c, 0, 51, 49
2, 15351, Note_on_c, 0, 51, 0
2, 15360, Note_on_c, 0, 49, 49
2, 15361, Control_c, 0, 64, 0
2, 15362, Control_c, 0, 64, 127
2, 15519, Note_on_c, 0, 49, 0
2, 15520, Note_on_c, 0, 56, 49
2, 15679, Note_on_c, 0, 56, 0
2, 15680, Note_on_c, 0, 61, 49
2, 15839, Note_on_c, 0, 61, 0
2, 15840, Note_on_c, 0, 64, 49
2, 15999, Note_on_c, 0, 64, 0
2, 16000, Note_on_c, 0, 61, 49
2, 16159, Note_on_c, 0, 61, 0
2, 16160, Note_on_c, 0, 56, 49
2, 16311, Note_on_c, 0, 56, 0
2, 16320, Note_on_c, 0, 52, 49
2, 16479, Note_on_c, 0, 52, 0
2, 16480, Note_on_c, 0, 56, 49
2, 16639, Note_on_c, 0, 56, 0
2, 16640, Note_on_c, 0, 61, 49
2, 16799, Note_on_c, 0, 61, 0
2, 16800, Note_on_c, 0, 64, 49
2, 16959, Note_on_c, 0, 64, 0
2, 16960, Note_on_c, 0, 61, 49
2, 17119, Note_on_c, 0, 61, 0
2, 17120, Note_on_c, 0, 56, 49
2, 17271, Note_on_c, 0, 56, 0
2, 17280, Note_on_c, 0, 49, 49
2, 17281, Control_c, 0, 64, 0
2, 17282, Control_c, 0, 64, 127
2, 17439, Note_on_c, 0, 49, 0
2, 17440, Note_on_c, 0, 56, 49
2, 17599, Note_on_c, 0, 56, 0
2, 17600, Note_on_c, 0, 58, 49
2, 17759, Note_on_c, 0, 58, 0
2, 17760, Note_on_c, 0, 64, 49
2, 17919, Note_on_c, 0, 64, 0
2, 17920, Note_on_c, 0, 58, 49
2, 18079, Note_on_c, 0, 58, 0
2, 18080, Note_on_c, 0, 56, 49
2, 18231, Note_on_c, 0, 56, 0
2, 18240, Note_on_c, 0, 52, 49
2, 18399, Note_on_c, 0, 52, 0
2, 18400, Note_on_c, 0, 56, 49
2, 18559, Note_on_c, 0, 56, 0
2, 18560, Note_on_c, 0, 58, 49
2, 18719, Note_on_c, 0, 58, 0
2, 18720, Note_on_c, 0, 64, 49
2, 18879, Note_on_c, 0, 64, 0
2, 18880, Note_on_c, 0, 58, 49
2, 19039, Note_on_c, 0, 58, 0
2, 19040, Note_on_c, 0, 56, 49
2, 19191, Note_on_c, 0, 56, 0
2, 19200, Note_on_c, 0, 51, 49
2, 19201, Control_c, 0, 64, 0
2, 19202, Control_c, 0, 64, 127
2, 19351, Note_on_c, 0, 51, 0
2, 19360, Note_on_c, 0, 56, 52
2, 19511, Note_on_c, 0, 56, 0
2, 19520, Note_on_c, 0, 59, 56
2, 19671, Note_on_c, 0, 59, 0
2, 19680, Note_on_c, 0, 63, 60
2, 19831, Note_on_c, 0, 63, 0
2, 19840, Note_on_c, 0, 59, 64
2, 19991, Note_on_c, 0, 59, 0
2, 20000, Note_on_c, 0, 56, 68
2, 20151, Note_on_c, 0, 56, 0
2, 20160, Note_on_c, 0, 51, 72
2, 20311, Note_on_c, 0, 51, 0
2, 20320, Note_on_c, 0, 58, 76
2, 20471, Note_on_c, 0, 58, 0
2, 20480, Note_on_c, 0, 61, 80
2, 20631, Note_on_c, 0, 61, 0
2, 20640, Note_on_c, 0, 67, 84
2, 20791, Note_on_c, 0, 67, 0
2, 20800, Note_on_c, 0, 61, 88
2, 20951, Note_on_c, 0, 61, 0
2, 20960, Note_on_c, 0, 58, 92
2, 21111, Note_on_c, 0, 58, 0
2, 21120, Note_on_c, 0, 44, 96
2, 21121, Control_c, 0, 64, 0
2, 21122, Control_c, 0, 64, 127
2, 21271, Note_on_c, 0, 44, 0
2, 21280, Note_on_c, 0, 51, 96
2, 21431, Note_on_c, 0, 51, 0
2, 21440, Note_on_c, 0, 56, 96
2, 21591, Note_on_c, 0, 56, 0
2, 21600, Note_on_c, 0, 59, 96
2, 21751, Note_on_c, 0, 59, 0
2, 21760, Note_on_c, 0, 56, 96
2, 21911, Note_on_c, 0, 56, 0
2, 21920, Note_on_c, 0, 51, 96
2, 22071, Note_on_c, 0, 51, 0
2, 22080, Note_on_c, 0, 44, 96
2, 22231, Note_on_c, 0, 44, 0
2, 22240, Note_on_c, 0, 51, 96
2, 22391, Note_on_c, 0, 51, 0
2, 22400, Note_on_c, 0, 56, 96
2, 22551, Note_on_c, 0, 56, 0
2, 22560, Note_on_c, 0, 59, 96
2, 22711, Note_on_c, 0, 59, 0
2, 22720, Note_on_c, 0, 56, 96
2, 22871, Note_on_c, 0, 56, 0
2, 22880, Note_on_c, 0, 51, 96
2, 23031, Note_on_c, 0, 51, 0
2, 23040, Note_on_c, 0, 45, 96
2, 23041, Control_c, 0, 64, 0
2, 23042, Control_c, 0, 64, 127
2, 23191, Note_on_c, 0, 45, 0
2, 23200, Note_on_c, 0, 49, 96
2, 23351, Note_on_c, 0, 49, 0
2, 23360, Note_on_c, 0, 54, 96
2, 23511, Note_on_c, 0, 54, 0
2, 23520, Note_on_c, 0, 57, 96
2, 23671, Note_on_c, 0, 57, 0
2, 23680, Note_on_c, 0, 54, 96
2, 23831, Note_on_c, 0, 54, 0
2, 23840, Note_on_c, 0, 49, 96
2, 23991, Note_on_c, 0, 49, 0
2, 24000, Note_on_c, 0, 45, 96
2, 24151, Note_on_c, 0, 45, 0
2, 24160, Note_on_c, 0, 49, 96
2, 24311, Note_on_c, 0, 49, 0
2, 24320, Note_on_c, 0, 54, 96
2, 24471, Note_on_c, 0, 54, 0
2, 24480, Note_on_c, 0, 57, 96
2, 24631, Note_on_c, 0, 57, 0
2, 24640, Note_on_c, 0, 54, 96
2, 24791, Note_on_c, 0, 54, 0
2, 24800, Note_on_c, 0, 49, 96
2, 24951, Note_on_c, 0, 49, 0
2, 24960, Note_on_c, 0, 47, 96
2, 24961, Control_c, 0, 64, 0
2, 24962, Control_c, 0, 64, 127
2, 25111, Note_on_c, 0, 47, 0
2, 25120, Note_on_c, 0, 54, 96
2, 25271, Note_on_c, 0, 54, 0
2, 25280, Note_on_c, 0, 57, 96
2, 25431, Note_on_c, 0, 57, 0
2, 25440, Note_on_c, 0, 59, 96
2, 25591, Note_on_c, 0, 59, 0
2, 25600, Note_on_c, 0, 57, 96
2, 25751, Note_on_c, 0, 57, 0
2, 25760, Note_on_c, 0, 54, 96
2, 25911, Note_on_c, 0, 54, 0
2, 25920, Note_on_c, 0, 47, 96
2, 26071, Note_on_c, 0, 47, 0
2, 26080, Note_on_c, 0, 54, 96
2, 26231, Note_on_c, 0, 54, 0
2, 26240, Note_on_c, 0, 57, 96
2, 26391, Note_on_c, 0, 57, 0
2, 26400, Note_on_c, 0, 59, 96
2, 26551, Note_on_c, 0, 59, 0
2, 26560, Note_on_c, 0, 57, 96
2, 26711, Note_on_c, 0, 57, 0
2, 26720, Note_on_c, 0, 54, 96
2, 26871, Note_on_c, 0, 54, 0
2, 26880, Note_on_c, 0, 45, 96
2, 26881, Control_c, 0, 64, 0
2, 26882, Control_c, 0, 64, 127
2, 27031, Note_on_c, 0, 45, 0
2, 27040, Note_on_c, 0, 49, 96
2, 27191, Note_on_c, 0, 49, 0
2, 27200, Note_on_c, 0, 54, 96
2, 27351, Note_on_c, 0, 54, 0
2, 27360, Note_on_c, 0, 57, 96
2, 27511, Note_on_c, 0, 57, 0
2, 27520, Note_on_c, 0, 54, 96
2, 27671, Note_on_c, 0, 54, 0
2, 27680, Note_on_c, 0, 49, 96
2, 27831, Note_on_c, 0, 49, 0
2, 27840, Note_on_c, 0, 45, 96
2, 27991, Note_on_c, 0, 45, 0
2, 28000, Note_on_c, 0, 49, 96
2, 28151, Note_on_c, 0, 49, 0
2, 28160, Note_on_c, 0, 54, 96
2, 28311, Note_on_c, 0, 54, 0
2, 28320, Note_on_c, 0, 57, 96
2, 28471, Note_on_c, 0, 57, 0
2, 28480, Note_on_c, 0, 54, 96
2, 28631, Note_on_c, 0, 54, 0
2, 28640, Note_on_c, 0, 49, 96
2, 28791, Note_on_c, 0, 49, 0
2, 28800, Note_on_c, 0, 47, 96
2, 28801, Control_c, 0, 64, 0
2, 28802, Control_c, 0, 64, 127
2, 28951, Note_on_c, 0, 47, 0
2, 28960, Note_on_c, 0, 54, 96
2, 29111, Note_on_c, 0, 54, 0
2, 29120, Note_on_c, 0, 57, 96
2, 29271, Note_on_c, 0, 57, 0
2, 29280, Note_on_c, 0, 59, 96
2, 29431, Note_on_c, 0, 59, 0
2, 29440, Note_on_c, 0, 57, 96
2, 29591, Note_on_c, 0, 57, 0
2, 29600, Note_on_c, 0, 54, 96
2, 29751, Note_on_c, 0, 54, 0
2, 29760, Note_on_c, 0, 47, 96
2, 29911, Note_on_c, 0, 47, 0
2, 29920, Note_on_c, 0, 54, 96
2, 30071, Note_on_c, 0, 54, 0
2, 30080, Note_on_c, 0, 57, 96
2, 30231, Note_on_c, 0, 57, 0
2, 30240, Note_on_c, 0, 59, 96
2, 30391, Note_on_c, 0, 59, 0
2, 30400, Note_on_c, 0, 57, 96
2, 30551, Note_on_c, 0, 57, 0
2, 30560, Note_on_c, 0, 54, 96
2, 30711, Note_on_c, 0, 54, 0
2, 30720, Note_on_c, 0, 45, 49
2, 30721, Control_c, 0, 64, 0
2, 30722, Control_c, 0, 64, 127
2, 30871, Note_on_c, 0, 45, 0
2, 30880, Note_on_c, 0, 49, 49
2, 31031, Note_on_c, 0, 49, 0
2, 31040, Note_on_c, 0, 54, 49
2, 31191, Note_on_c, 0, 54, 0
2, 31200, Note_on_c, 0, 57, 49
2, 31351, Note_on_c, 0, 57, 0
2, 31360, Note_on_c, 0, 54, 49
2, 31511, Note_on_c, 0, 54, 0
2, 31520, Note_on_c, 0, 49, 49
2, 31671, Note_on_c, 0, 49, 0
2, 31680, Note_on_c, 0, 45, 49
2, 31831, Note_on_c, 0, 45, 0
2, 31840, Note_on_c, 0, 49, 49
2, 31991, Note_on_c, 0, 49, 0
2, 32000, Note_on_c, 0, 54, 49
2, 32151, Note_on_c, 0, 54, 0
2, 32160, Note_on_c, 0, 57, 49
2, 32311, Note_on_c, 0, 57, 0
2, 32320, Note_on_c, 0, 54, 49
2, 32471, Note_on_c, 0, 54, 0
2, 32480, Note_on_c, 0, 49, 49
2, 32631, Note_on_c, 0, 49, 0
2, 32640, Note_on_c, 0, 47, 49
2, 32641, Control_c, 0, 64, 0
2, 32642, Control_c, 0, 64, 127
2, 32791, Note_on_c, 0, 47, 0
2, 32800, Note_on_c, 0, 54, 52
2, 32951, Note_on_c, 0, 54, 0
2, 32960, Note_on_c, 0, 57, 56
2, 33111, Note_on_c, 0, 57, 0
2, 33120, Note_on_c, 0, 59, 60
2, 33271, Note_on_c, 0, 59, 0
2, 33280, Note_on_c, 0, 57, 64
2, 33431, Note_on_c, 0, 57, 0
2, 33440, Note_on_c, 0, 54, 68
2, 33591, Note_on_c, 0, 54, 0
2, 33600, Note_on_c, 0, 40, 72
2, 33751, Note_on_c, 0, 40, 0
2, 33760, Note_on_c, 0, 47, 76
2, 33911, Note_on_c, 0, 47, 0
2, 33920, Note_on_c, 0, 52, 80
2, 34071, Note_on_c, 0, 52, 0
2, 34080, Note_on_c, 0, 56, 84
2, 34231, Note_on_c, 0, 56, 0
2, 34240, Note_on_c, 0, 52, 88
2, 34391, Note_on_c, 0, 52, 0
2, 34400, Note_on_c, 0, 47, 92
2, 34551, Note_on_c, 0, 47, 0
2, 34560, Note_on_c, 0, 45, 96
2, 34561, Control_c, 0, 64, 0
2, 34562, Control_c, 0, 64, 127
2, 34711, Note_on_c, 0, 45, 0
2, 34720, Note_on_c, 0, 49, 96
2, 34871, Note_on_c, 0, 49, 0
2, 34880, Note_on_c, 0, 54, 96
2, 35031, Note_on_c, 0, 54, 0
2, 35040, Note_on_c, 0, 57, 96
2, 35191, Note_on_c, 0, 57, 0
2, 35200, Note_on_c, 0, 54, 96
2, 35351, Note_on_c, 0, 54, 0
2, 35360, Note_on_c, 0, 49, 96
2, 35511, Note_on_c, 0, 49, 0
2, 35520, Note_on_c, 0, 45, 96
2, 35671, Note_on_c, 0, 45, 0
2, 35680, Note_on_c, 0, 49, 96
2, 35831, Note_on_c, 0, 49, 0
2, 35840, Note_on_c, 0, 54, 96
2, 35991, Note_on_c, 0, 54, 0
2, 36000, Note_on_c, 0, 57, 96
2, 36151, Note_on_c, 0, 57, 0
2, 36160, Note_on_c, 0, 54, 96
2, 36311, Note_on_c, 0, 54, 0
2, 36320, Note_on_c, 0, 49, 96
2, 36471, Note_on_c, 0, 49, 0
2, 36480, Note_on_c, 0, 44, 96
2, 36481, Control_c, 0, 64, 0
2, 36482, Control_c, 0, 64, 127
2, 36631, Note_on_c, 0, 44, 0
2, 36640, Note_on_c, 0, 51, 91
2, 36791, Note_on_c, 0, 51, 0
2, 36800, Note_on_c, 0, 54, 86
2, 36951, Note_on_c, 0, 54, 0
2, 36960, Note_on_c, 0, 60, 81
2, 37111, Note_on_c, 0, 60, 0
2, 37120, Note_on_c, 0, 54, 75
2, 37271, Note_on_c, 0, 54, 0
2, 37280, Note_on_c, 0, 51, 70
2, 37431, Note_on_c, 0, 51, 0
2, 37440, Note_on_c, 0, 44, 65
2, 37591, Note_on_c, 0, 44, 0
2, 37600, Note_on_c, 0, 51, 60
2, 37751, Note_on_c, 0, 51, 0
2, 37760, Note_on_c, 0, 54, 54
2, 37911, Note_on_c, 0, 54, 0
2, 37920, Note_on_c, 0, 60, 49
2, 38071, Note_on_c, 0, 60, 0
2, 38080, Note_on_c, 0, 54, 44
2, 38231, Note_on_c, 0, 54, 0
2, 38240, Note_on_c, 0, 51, 39
2, 38391, Note_on_c, 0, 51, 0
2, 38400, Note_on_c, 0, 45, 39
2, 38401, Control_c, 0, 64, 0
2, 38402, Control_c, 0, 64, 127
2, 38559, Note_on_c, 0, 45, 0
2, 38560, Note_on_c, 0, 51, 33
2, 38711, Note_on_c, 0, 51, 0
2, 38720, Note_on_c, 0, 54, 33
2, 38871, Note_on_c, 0, 54, 0
2, 38880, Note_on_c, 0, 59, 33
2, 39031, Note_on_c, 0, 59, 0
2, 39040, Note_on_c, 0, 54, 33
2, 39191, Note_on_c, 0, 54, 0
2, 39200, Note_on_c, 0, 51, 33
2, 39351, Note_on_c, 0, 51, 0
2, 39360, Note_on_c, 0, 46, 33
2, 39511, Note_on_c, 0, 46, 0
2, 39520, Note_on_c, 0, 51, 33
2, 39671, Note_on_c, 0, 51, 0
2, 39680, Note_on_c, 0, 54, 33
2, 39831, Note_on_c, 0, 54, 0
2, 39840, Note_on_c, 0, 58, 33
2, 39991, Note_on_c, 0, 58, 0
2, 40000, Note_on_c, 0, 54, 33
2, 40151, Note_on_c, 0, 54, 0
2, 40160, Note_on_c, 0, 51, 33
2, 40311, Note_on_c, 0, 51, 0
2, 40320, Note_on_c, 0, 47, 33
2, 40321, Control_c, 0, 64, 0
2, 40322, Control_c, 0, 64, 127
2, 40471, Note_on_c, 0, 47, 0
2, 40480, Note_on_c, 0, 51, 33
2, 40631, Note_on_c, 0, 51, 0
2, 40640, Note_on_c, 0, 54, 33
2, 40791, Note_on_c, 0, 54, 0
2, 40800, Note_on_c, 0, 57, 33
2, 40951, Note_on_c, 0, 57, 0
2, 40960, Note_on_c, 0, 54, 33
2, 41111, Note_on_c, 0, 54, 0
2, 41120, Note_on_c, 0, 51, 33
2, 41271, Note_on_c, 0, 51, 0
2, 41280, Note_on_c, 0, 47, 33
2, 41431, Note_on_c, 0, 47, 0
2, 41440, Note_on_c, 0, 51, 33
2, 41591, Note_on_c, 0, 51, 0
2, 41600, Note_on_c, 0, 54, 33
2, 41751, Note_on_c, 0, 54, 0
2, 41760, Note_on_c, 0, 57, 33
2, 41911, Note_on_c, 0, 57, 0
2, 41920, Note_on_c, 0, 54, 33
2, 42071, Note_on_c, 0, 54, 0
2, 42080, Note_on_c, 0, 51, 33
2, 42231, Note_on_c, 0, 51, 0
2, 42240, Note_on_c, 0, 45, 39
2, 42241, Control_c, 0, 64, 0
2, 42242, Control_c, 0, 64, 127
2, 42399, Note_on_c, 0, 45, 0
2, 42400, Note_on_c, 0, 51, 33
2, 42551, Note_on_c, 0, 51, 0
2, 42560, Note_on_c, 0, 54, 33
2, 42711, Note_on_c, 0, 54, 0
2, 42720, Note_on_c, 0, 59, 33
2, 42871, Note_on_c, 0, 59, 0
2, 42880, Note_on_c, 0, 54, 33
2, 43031, Note_on_c, 0, 54, 0
2, 43040, Note_on_c, 0, 51, 33
2, 43191, Note_on_c, 0, 51, 0
2, 43200, Note_on_c, 0, 46, 33
2, 43201, Control_c, 0, 64, 0
2, 43202, Control_c, 0, 64, 127
2, 43351, Note_on_c, 0, 46, 0
2, 43360, Note_on_c, 0, 51, 33
2, 43511, Note_on_c, 0, 51, 0
2, 43520, Note_on_c, 0, 54, 33
2, 43671, Note_on_c, 0, 54, 0
2, 43680, Note_on_c, 0, 58, 33
2, 43831, Note_on_c, 0, 58, 0
2, 43840, Note_on_c, 0, 54, 33
2, 43991, Note_on_c, 0, 54, 0
2, 44000, Note_on_c, 0, 51, 33
2, 44151, Note_on_c, 0, 51, 0
2, 44160, Note_on_c, 0, 47, 33
2, 44161, Control_c, 0, 64, 0
2, 44162, Control_c, 0, 64, 127
2, 44311, Note_on_c, 0, 47, 0
2, 44320, Note_on_c, 0, 51, 33
2, 44471, Note_on_c, 0, 51, 0
2, 44480, Note_on_c, 0, 54, 33
2, 44631, Note_on_c, 0, 54, 0
2, 44640, Note_on_c, 0, 57, 33
2, 44791, Note_on_c, 0, 57, 0
2, 44800, Note_on_c, 0, 54, 33
2, 44951, Note_on_c, 0, 54, 0
2, 44960, Note_on_c, 0, 51, 33
2, 45111, Note_on_c, 0, 51, 0
2, 45120, Note_on_c, 0, 47, 33
2, 45121, Control_c, 0, 64, 0
2, 45122, Control_c, 0, 64, 127
2, 45271, Note_on_c, 0, 47, 0
2, 45280, Note_on_c, 0, 51, 33
2, 45431, Note_on_c, 0, 51, 0
2, 45440, Note_on_c, 0, 54, 33
2, 45591, Note_on_c, 0, 54, 0
2, 45600, Note_on_c, 0, 57, 33
2, 45751, Note_on_c, 0, 57, 0
2, 45760, Note_on_c, 0, 54, 33
2, 45911, Note_on_c, 0, 54, 0
2, 45920, Note_on_c, 0, 51, 33
2, 46071, Note_on_c, 0, 51, 0
2, 46080, Note_on_c, 0, 49, 49
2, 46081, Control_c, 0, 64, 0
2, 46082, Control_c, 0, 64, 127
2, 46239, Note_on_c, 0, 49, 0
2, 46240, Note_on_c, 0, 56, 49
2, 46399, Note_on_c, 0, 56, 0
2, 46400, Note_on_c, 0, 61, 49
2, 46559, Note_on_c, 0, 61, 0
2, 46560, Note_on_c, 0, 64, 49
2, 46719, Note_on_c, 0, 64, 0
2, 46720, Note_on_c, 0, 61, 49
2, 46879, Note_on_c, 0, 61, 0
2, 46880, Note_on_c, 0, 56, 49
2, 47031, Note_on_c, 0, 56, 0
2, 47040, Note_on_c, 0, 52, 49
2, 47199, Note_on_c, 0, 52, 0
2, 47200, Note_on_c, 0, 56, 49
2, 47359, Note_on_c, 0, 56, 0
2, 47360, Note_on_c, 0, 61, 49
2, 47519, Note_on_c, 0, 61, 0
2, 47520, Note_on_c, 0, 64, 49
2, 47679, Note_on_c, 0, 64, 0
2, 47680, Note_on_c, 0, 61, 49
2, 47839, Note_on_c, 0, 61, 0
2, 47840, Note_on_c, 0, 56, 49
2, 47991, Note_on_c, 0, 56, 0
2, 48000, Note_on_c, 0, 49, 49
2, 48001, Control_c, 0, 64, 0
2, 48002, Control_c, 0, 64, 127
2, 48159, Note_on_c, 0, 49, 0
2, 48160, Note_on_c, 0, 56, 49
2, 48319, Note_on_c, 0, 56, 0
2, 48320, Note_on_c, 0, 61, 49
2, 48479, Note_on_c, 0, 61, 0
2, 48480, Note_on_c, 0, 64, 49
2, 48639, Note_on_c, 0, 64, 0
2, 48640, Note_on_c, 0, 61, 49
2, 48799, Note_on_c, 0, 61, 0
2, 48800, Note_on_c, 0, 56, 49
2, 48951, Note_on_c, 0, 56, 0
2, 48960, Note_on_c, 0, 52, 49
2, 49119, Note_on_c, 0, 52, 0
2, 49120, Note_on_c, 0, 56, 49
2, 49279, Note_on_c, 0, 56, 0
2, 49280, Note_on_c, 0, 61, 49
2, 49439, Note_on_c, 0, 61, 0
2, 49440, Note_on_c, 0, 64, 49
2, 49599, Note_on_c, 0, 64, 0
2, 49600, Note_on_c, 0, 61, 49
2, 49759, Note_on_c, 0, 61, 0
2, 49760, Note_on_c, 0, 56, 49
2, 49911, Note_on_c, 0, 56, 0
2, 49920, Note_on_c, 0, 51, 49
2, 49921, Control_c, 0, 64, 0
2, 49922, Control_c, 0, 64, 127
2, 50079, Note_on_c, 0, 51, 0
2, 50080, Note_on_c, 0, 57, 49
2, 50239, Note_on_c, 0, 57, 0
2, 50240, Note_on_c, 0, 61, 49
2, 50399, Note_on_c, 0, 61, 0
2, 50400, Note_on_c, 0, 66, 49
2, 50559, Note_on_c, 0, 66, 0
2, 50560, Note_on_c, 0, 61, 49
2, 50719, Note_on_c, 0, 61, 0
2, 50720, Note_on_c, 0, 57, 49
2, 50871, Note_on_c, 0, 57, 0
2, 50880, Note_on_c, 0, 54, 49
2, 51039, Note_on_c, 0, 54, 0
2, 51040, Note_on_c, 0, 61, 49
2, 51199, Note_on_c, 0, 61, 0
2, 51200, Note_on_c, 0, 63, 49
2, 51359, Note_on_c, 0, 63, 0
2, 51360, Note_on_c, 0, 69, 49
2, 51519, Note_on_c, 0, 69, 0
2, 51520, Note_on_c, 0, 63, 49
2, 51679, Note_on_c, 0, 63, 0
2, 51680, Note_on_c, 0, 61, 49
2, 51831, Note_on_c, 0, 61, 0
2, 51840, Note_on_c, 0, 44, 49
2, 51841, Control_c, 0, 64, 0
2, 51842, Control_c, 0, 64, 127
2, 51999, Note_on_c, 0, 44, 0
2, 52000, Note_on_c, 0, 51, 49
2, 52159, Note_on_c, 0, 51, 0
2, 52160, Note_on_c, 0, 54, 49
2, 52319, Note_on_c, 0, 54, 0
2, 52320, Note_on_c, 0, 60, 49
2, 52479, Note_on_c, 0, 60, 0
2, 52480, Note_on_c, 0, 54, 49
2, 52639, Note_on_c, 0, 54, 0
2, 52640, Note_on_c, 0, 51, 49
2, 52791, Note_on_c, 0, 51, 0
2, 52800, Note_on_c, 0, 44, 49
2, 52959, Note_on_c, 0, 44, 0
2, 52960, Note_on_c, 0, 51, 49
2, 53119, Note_on_c, 0, 51, 0
2, 53120, Note_on_c, 0, 54, 49
2, 53279, Note_on_c, 0, 54, 0
2, 53280, Note_on_c, 0, 60, 49
2, 53439, Note_on_c, 0, 60, 0
2, 53440, Note_on_c, 0, 54, 49
2, 53599, Note_on_c, 0, 54, 0
2, 53600, Note_on_c, 0, 51, 49
2, 53751, Note_on_c, 0, 51, 0
2, 53760, Note_on_c, 0, 49, 49
2, 53761, Control_c, 0, 64, 0
2, 53762, Control_c, 0, 64, 127
2, 53919, Note_on_c, 0, 49, 0
2, 53920, Note_on_c, 0, 56, 49
2, 54079, Note_on_c, 0, 56, 0
2, 54080, Note_on_c, 0, 61, 49
2, 54239, Note_on_c, 0, 61, 0
2, 54240, Note_on_c, 0, 64, 49
2, 54399, Note_on_c, 0, 64, 0
2, 54400, Note_on_c, 0, 61, 49
2, 54559, Note_on_c, 0, 61, 0
2, 54560, Note_on_c, 0, 56, 49
2, 54711, Note_on_c, 0, 56, 0
2, 54720, Note_on_c, 0, 52, 49
2, 54879, Note_on_c, 0, 52, 0
2, 54880, Note_on_c, 0, 56, 56
2, 55039, Note_on_c, 0, 56, 0
2, 55040, Note_on_c, 0, 61, 64
2, 55199, Note_on_c, 0, 61, 0
2, 55200, Note_on_c, 0, 64, 72
2, 55359, Note_on_c, 0, 64, 0
2, 55360, Note_on_c, 0, 61, 80
2, 55519, Note_on_c, 0, 61, 0
2, 55520, Note_on_c, 0, 56, 88
2, 55671, Note_on_c, 0, 56, 0
2, 55680, Note_on_c, 0, 54, 96
2, 55681, Control_c, 0, 64, 0
2, 55682, Control_c, 0, 64, 127
2, 55831, Note_on_c, 0, 54, 0
2, 55840, Note_on_c, 0, 61, 96
2, 55991, Note_on_c, 0, 61, 0
2, 56000, Note_on_c, 0, 63, 96
2, 56151, Note_on_c, 0, 63, 0
2, 56160, Note_on_c, 0, 69, 96
2, 56311, Note_on_c, 0, 69, 0
2, 56320, Note_on_c, 0, 63, 96
2, 56471, Note_on_c, 0, 63, 0
2, 56480, Note_on_c, 0, 61, 96
2, 56631, Note_on_c, 0, 61, 0
2, 56640, Note_on_c, 0, 56, 96
2, 56791, Note_on_c, 0, 56, 0
2, 56800, Note_on_c, 0, 61, 96
2, 56951, Note_on_c, 0, 61, 0
2, 56960, Note_on_c, 0, 65, 96
2, 57111, Note_on_c, 0, 65, 0
2, 57120, Note_on_c, 0, 71, 96
2, 57271, Note_on_c, 0, 71, 0
2, 57280, Note_on_c, 0, 65, 96
2, 57431, Note_on_c, 0, 65, 0
2, 57440, Note_on_c, 0, 61, 96
2, 57591, Note_on_c, 0, 61, 0
2, 57600, Note_on_c, 0, 57, 96
2, 57601, Control_c, 0, 64, 0
2, 57602, Control_c, 0, 64, 127
2, 57751, Note_on_c, 0, 57, 0
2, 57760, Note_on_c, 0, 61, 96
2, 57911, Note_on_c, 0, 61, 0
2, 57920, Note_on_c, 0, 66, 96
2, 58071, Note_on_c, 0, 66, 0
2, 58080, Note_on_c, 0, 69, 96
2, 58231, Note_on_c, 0, 69, 0
2, 58240, Note_on_c, 0, 66, 96
2, 58391, Note_on_c, 0, 66, 0
2, 58400, Note_on_c, 0, 61, 96
2, 58551, Note_on_c, 0, 61, 0
2, 58560, Note_on_c, 0, 56, 96
2, 58711, Note_on_c, 0, 56, 0
2, 58720, Note_on_c, 0, 61, 96
2, 58871, Note_on_c, 0, 61, 0
2, 58880, Note_on_c, 0, 65, 96
2, 59031, Note_on_c, 0, 65, 0
2, 59040, Note_on_c, 0, 71, 96
2, 59191, Note_on_c, 0, 71, 0
2, 59200, Note_on_c, 0, 65, 96
2, 59351, Note_on_c, 0, 65, 0
2, 59360, Note_on_c, 0, 61, 96
2, 59511, Note_on_c, 0, 61, 0
2, 59520, Note_on_c, 0, 57, 96
2, 59521, Control_c, 0, 64, 0
2, 59522, Control_c, 0, 64, 127
2, 59671, Note_on_c, 0, 57, 0
2, 59680, Note_on_c, 0, 61, 96
2, 59831, Note_on_c, 0, 61, 0
2, 59840, Note_on_c, 0, 66, 96
2, 59991, Note_on_c, 0, 66, 0
2, 60000, Note_on_c, 0, 69, 96
2, 60151, Note_on_c, 0, 69, 0
2, 60160, Note_on_c, 0, 66, 96
2, 60311, Note_on_c, 0, 66, 0
2, 60320, Note_on_c, 0, 61, 96
2, 60471, Note_on_c, 0, 61, 0
2, 60480, Note_on_c, 0, 48, 96
2, 60631, Note_on_c, 0, 48, 0
2, 60640, Note_on_c, 0, 54, 96
2, 60791, Note_on_c, 0, 54, 0
2, 60800, Note_on_c, 0, 56, 96
2, 60951, Note_on_c, 0, 56, 0
2, 60960, Note_on_c, 0, 63, 96
2, 61111, Note_on_c, 0, 63, 0
2, 61120, Note_on_c, 0, 56, 96
2, 61271, Note_on_c, 0, 56, 0
2, 61280, Note_on_c, 0, 54, 96
2, 61431, Note_on_c, 0, 54, 0
2, 61440, Note_on_c, 0, 52, 96
2, 61441, Control_c, 0, 64, 0
2, 61442, Control_c, 0, 64, 127
2, 61591, Note_on_c, 0, 52, 0
2, 61600, Note_on_c, 0, 56, 96
2, 61751, Note_on_c, 0, 56, 0
2, 61760, Note_on_c, 0, 61, 96
2, 61911, Note_on_c, 0, 61, 0
2, 61920, Note_on_c, 0, 64, 96
2, 62071, Note_on_c, 0, 64, 0
2, 62080, Note_on_c, 0, 61, 96
2, 62231, Note_on_c, 0, 61, 0
2, 62240, Note_on_c, 0, 56, 96
2, 62391, Note_on_c, 0, 56, 0
2, 62400, Note_on_c, 0, 51, 96
2, 62551, Note_on_c, 0, 51, 0
2, 62560, Note_on_c, 0, 56, 96
2, 62711, Note_on_c, 0, 56, 0
2, 62720, Note_on_c, 0, 60, 96
2, 62871, Note_on_c, 0, 60, 0
2, 62880, Note_on_c, 0, 66, 96
2, 63031, Note_on_c, 0, 66, 0
2, 63040, Note_on_c, 0, 60, 96
2, 63191, Note_on_c, 0, 60, 0
2, 63200, Note_on_c, 0, 56, 96
2, 63351, Note_on_c, 0, 56, 0
2, 63360, Note_on_c, 0, 52, 96
2, 63361, Control_c, 0, 64, 0
2, 63362, Control_c, 0, 64, 127
2, 63511, Note_on_c, 0, 52, 0
2, 63520, Note_on_c, 0, 56, 96
2, 63671, Note_on_c, 0, 56, 0
2, 63680, Note_on_c, 0, 61, 96
2, 63831, Note_on_c, 0, 61, 0
2, 63840, Note_on_c, 0, 64, 96
2, 63991, Note_on_c, 0, 64, 0
2, 64000, Note_on_c, 0, 61, 96
2, 64151, Note_on_c, 0, 61, 0
2, 64160, Note_on_c, 0, 56, 96
2, 64311, Note_on_c, 0, 56, 0
2, 64320, Note_on_c, 0, 54, 96
2, 64471, Note_on_c, 0, 54, 0
2, 64480, Note_on_c, 0, 61, 96
2, 64631, Note_on_c, 0, 61, 0
2, 64640, Note_on_c, 0, 63, 96
2, 64791, Note_on_c, 0, 63, 0
2, 64800, Note_on_c, 0, 69, 96
2, 64951, Note_on_c, 0, 69, 0
2, 64960, Note_on_c, 0, 63, 96
2, 65111, Note_on_c, 0, 63, 0
2, 65120, Note_on_c, 0, 61, 96
2, 65271, Note_on_c, 0, 61, 0
2, 65280, Note_on_c, 0, 56, 96
2, 65280, Note_on_c, 0, 61, 96
2, 65280, Note_on_c, 0, 64, 96
2, 65280, Note_on_c, 0, 68, 96
2, 65281, Control_c, 0, 64, 0
2, 65507, Note_on_c, 0, 56, 0
2, 65507, Note_on_c, 0, 61, 0
2, 65507, Note_on_c, 0, 64, 0
2, 65507, Note_on_c, 0, 68, 0
2, 66240, Note_on_c, 0, 55, 115
2, 66240, Note_on_c, 0, 61, 115
2, 66240, Note_on_c, 0, 64, 115
2, 66240, Note_on_c, 0, 69, 115
2, 66242, Control_c, 0, 64, 127
2, 66719, Note_on_c, 0, 55, 0
2, 66719, Note_on_c, 0, 61, 0
2, 66719, Note_on_c, 0, 64, 0
2, 66719, Note_on_c, 0, 69, 0
2, 67201, Control_c, 0, 64, 0
2, 69120, Note_on_c, 0, 32, 112
2, 69120, Note_on_c, 0, 44, 112
2, 69122, Control_c, 0, 64, 127
2, 69347, Note_on_c, 0, 32, 0
2, 69347, Note_on_c, 0, 44, 0
2, 69600, Note_on_c, 0, 64, 112
2, 69600, Note_on_c, 0, 76, 112
2, 70055, Note_on_c, 0, 64, 0
2, 70055, Note_on_c, 0, 76, 0
2, 70080, Note_on_c, 0, 61, 112
2, 70080, Note_on_c, 0, 73, 112
2, 70535, Note_on_c, 0, 61, 0
2, 70535, Note_on_c, 0, 73, 0
2, 70560, Note_on_c, 0, 56, 112
2, 70560, Note_on_c, 0, 68, 112
2, 71015, Note_on_c, 0, 56, 0
2, 71015, Note_on_c, 0, 68, 0
2, 71040, Note_on_c, 0, 52, 112
2, 71040, Note_on_c, 0, 64, 112
2, 71041, Control_c, 0, 64, 0
2, 71495, Note_on_c, 0, 52, 0
2, 71495, Note_on_c, 0, 64, 0
2, 71520, Note_on_c, 0, 49, 112
2, 71520, Note_on_c, 0, 61, 112
2, 71975, Note_on_c, 0, 49, 0
2, 71975, Note_on_c, 0, 61, 0
2, 72000, Note_on_c, 0, 44, 112
2, 72000, Note_on_c, 0, 56, 112
2, 72455, Note_on_c, 0, 44, 0
2, 72455, Note_on_c, 0, 56, 0
2, 72480, Note_on_c, 0, 40, 112
2, 72480, Note_on_c, 0, 52, 112
2, 72935, Note_on_c, 0, 40, 0
2, 72935, Note_on_c, 0, 52, 0
2, 72960, Note_on_c, 0, 37, 112
2, 72960, Note_on_c, 0, 49, 112
2, 73415, Note_on_c, 0, 37, 0
2, 73415, Note_on_c, 0, 49, 0
2, 73440, Note_on_c, 0, 32, 112
2, 73440, Note_on_c, 0, 44, 112
2, 73895, Note_on_c, 0, 32, 0
2, 73895, Note_on_c, 0, 44, 0
2, 73920, Note_on_c, 0, 32, 112
2, 73920, Note_on_c, 0, 44, 112
2, 73922, Control_c, 0, 64, 127
2, 74375, Note_on_c, 0, 32, 0
2, 74375, Note_on_c, 0, 44, 0
2, 74400, Note_on_c, 0, 33, 112
2, 74400, Note_on_c, 0, 45, 112
2, 74855, Note_on_c, 0, 33, 0
2, 74855, Note_on_c, 0, 45, 0
2, 74880, Note_on_c, 0, 32, 112
2, 74880, Note_on_c, 0, 44, 112
2, 74881, Control_c, 0, 64, 0
2, 74882, Control_c, 0, 64, 127
2, 75335, Note_on_c, 0, 32, 0
2, 75335, Note_on_c, 0, 44, 0
2, 75360, Note_on_c, 0, 31, 112
2, 75360, Note_on_c, 0, 43, 112
2, 75815, Note_on_c, 0, 31, 0
2, 75815, Note_on_c, 0, 43, 0
2, 75840, Note_on_c, 0, 32, 112
2, 75840, Note_on_c, 0, 44, 112
2, 75841, Control_c, 0, 64, 0
2, 75842, Control_c, 0, 64, 127
2, 76751, Note_on_c, 0, 32, 0
2, 76751, Note_on_c, 0, 44, 0
2, 76800, Key_signature, -5, "major"
2, 76800, Note_on_c, 0, 37, 112
2, 76801, Control_c, 0, 64, 0
2, 76802, Control_c, 0, 64, 127
2, 76951, Note_on_c, 0, 37, 0
2, 76960, Note_on_c, 0, 44, 112
2, 77111, Note_on_c, 0, 44, 0
2, 77120, Note_on_c, 0, 49, 112
2, 77271, Note_on_c, 0, 49, 0
2, 77280, Note_on_c, 0, 53, 112
2, 77431, Note_on_c, 0, 53, 0
2, 77440, Note_on_c, 0, 56, 112
2, 77591, Note_on_c, 0, 56, 0
2, 77600, Note_on_c, 0, 61, 112
2, 77751, Note_on_c, 0, 61, 0
2, 77760, Note_on_c, 0, 65, 112
2, 77911, Note_on_c, 0, 65, 0
2, 77920, Note_on_c, 0, 61, 112
2, 78071, Note_on_c, 0, 61, 0
2, 78080, Note_on_c, 0, 56, 112
2, 78231, Note_on_c, 0, 56, 0
2, 78240, Note_on_c, 0, 53, 112
2, 78391, Note_on_c, 0, 53, 0
2, 78400, Note_on_c, 0, 49, 112
2, 78551, Note_on_c, 0, 49, 0
2, 78560, Note_on_c, 0, 44, 112
2, 78711, Note_on_c, 0, 44, 0
2, 78720, Note_on_c, 0, 37, 112
2, 78721, Control_c, 0, 64, 0
2, 78722, Control_c, 0, 64, 127
2, 78871, Note_on_c, 0, 37, 0
2, 78880, Note_on_c, 0, 44, 112
2, 79031, Note_on_c, 0, 44, 0
2, 79040, Note_on_c, 0, 49, 112
2, 79191, Note_on_c, 0, 49, 0
2, 79200, Note_on_c, 0, 53, 112
2, 79351, Note_on_c, 0, 53, 0
2, 79360, Note_on_c, 0, 56, 112
2, 79511, Note_on_c, 0, 56, 0
2, 79520, Note_on_c, 0, 61, 112
2, 79671, Note_on_c, 0, 61, 0
2, 79680, Note_on_c, 0, 65, 112
2, 79831, Note_on_c, 0, 65, 0
2, 79840, Note_on_c, 0, 61, 112
2, 79991, Note_on_c, 0, 61, 0
2, 80000, Note_on_c, 0, 56, 112
2, 80151, Note_on_c, 0, 56, 0
2, 80160, Note_on_c, 0, 53, 112
2, 80311, Note_on_c, 0, 53, 0
2, 80320, Note_on_c, 0, 49, 112
2, 80471, Note_on_c, 0, 49, 0
2, 80480, Note_on_c, 0, 44, 112
2, 80640, Note_on_c, 0, 37, 112
2, 80641, Control_c, 0, 64, 0
2, 80642, Control_c, 0, 64, 127
2, 80783, Note_on_c, 0, 44, 0
2, 80791, Note_on_c, 0, 37, 0
2, 80800, Note_on_c, 0, 56, 112
2, 80951, Note_on_c, 0, 56, 0
2, 80960, Note_on_c, 0, 60, 112
2, 81111, Note_on_c, 0, 60, 0
2, 81120, Note_on_c, 0, 63, 112
2, 81271, Note_on_c, 0, 63, 0
2, 81280, Note_on_c, 0, 60, 112
2, 81431, Note_on_c, 0, 60, 0
2, 81440, Note_on_c, 0, 56, 112
2, 81591, Note_on_c, 0, 56, 0
2, 81600, Note_on_c, 0, 49, 112
2, 81751, Note_on_c, 0, 49, 0
2, 81760, Note_on_c, 0, 56, 112
2, 81911, Note_on_c, 0, 56, 0
2, 81920, Note_on_c, 0, 60, 112
2, 82071, Note_on_c, 0, 60, 0
2, 82080, Note_on_c, 0, 66, 112
2, 82231, Note_on_c, 0, 66, 0
2, 82240, Note_on_c, 0, 60, 112
2, 82391, Note_on_c, 0, 60, 0
2, 82400, Note_on_c, 0, 56, 112
2, 82551, Note_on_c, 0, 56, 0
2, 82560, Note_on_c, 0, 49, 112
2, 82561, Control_c, 0, 64, 0
2, 82562, Control_c, 0, 64, 127
2, 82711, Note_on_c, 0, 49, 0
2, 82720, Note_on_c, 0, 56, 112
2, 82871, Note_on_c, 0, 56, 0
2, 82880, Note_on_c, 0, 61, 112
2, 83031, Note_on_c, 0, 61, 0
2, 83040, Note_on_c, 0, 65, 112
2, 83191, Note_on_c, 0, 65, 0
2, 83200, Note_on_c, 0, 61, 112
2, 83351, Note_on_c, 0, 61, 0
2, 83360, Note_on_c, 0, 56, 112
2, 83511, Note_on_c, 0, 56, 0
2, 83520, Note_on_c, 0, 49, 112
2, 83671, Note_on_c, 0, 49, 0
2, 83680, Note_on_c, 0, 56, 112
2, 83831, Note_on_c, 0, 56, 0
2, 83840, Note_on_c, 0, 65, 112
2, 83991, Note_on_c, 0, 65, 0
2, 84000, Note_on_c, 0, 68, 112
2, 84151, Note_on_c, 0, 68, 0
2, 84160, Note_on_c, 0, 65, 112
2, 84311, Note_on_c, 0, 65, 0
2, 84320, Note_on_c, 0, 56, 112
2, 84471, Note_on_c, 0, 56, 0
2, 84480, Note_on_c, 0, 66, 127
2, 84480, Note_on_c, 0, 66, 112
2, 84481, Control_c, 0, 64, 0
2, 84482, Control_c, 0, 64, 127
2, 84639, Note_on_c, 0, 66, 0
2, 84640, Note_on_c, 0, 63, 112
2, 84799, Note_on_c, 0, 63, 0
2, 84800, Note_on_c, 0, 56, 112
2, 84951, Note_on_c, 0, 56, 0
2, 84959, Note_on_c, 0, 66, 0
2, 84960, Note_on_c, 0, 65, 127
2, 84960, Note_on_c, 0, 65, 112
2, 85119, Note_on_c, 0, 65, 0
2, 85120, Note_on_c, 0, 61, 112
2, 85279, Note_on_c, 0, 61, 0
2, 85280, Note_on_c, 0, 56, 112
2, 85431, Note_on_c, 0, 56, 0
2, 85439, Note_on_c, 0, 65, 0
2, 85440, Note_on_c, 0, 63, 127
2, 85440, Note_on_c, 0, 63, 112
2, 85599, Note_on_c, 0, 63, 0
2, 85600, Note_on_c, 0, 60, 112
2, 85759, Note_on_c, 0, 60, 0
2, 85760, Note_on_c, 0, 56, 112
2, 85911, Note_on_c, 0, 56, 0
2, 85919, Note_on_c, 0, 63, 0
2, 85920, Note_on_c, 0, 61, 127
2, 85920, Note_on_c, 0, 61, 112
2, 86079, Note_on_c, 0, 61, 0
2, 86080, Note_on_c, 0, 56, 112
2, 86239, Note_on_c, 0, 56, 0
2, 86240, Note_on_c, 0, 53, 112
2, 86391, Note_on_c, 0, 53, 0
2, 86399, Note_on_c, 0, 61, 0
2, 86400, Note_on_c, 0, 44, 112
2, 86401, Control_c, 0, 64, 0
2, 86402, Control_c, 0, 64, 127
2, 86551, Note_on_c, 0, 44, 0
2, 86560, Note_on_c, 0, 51, 112
2, 86711, Note_on_c, 0, 51, 0
2, 86720, Note_on_c, 0, 56, 112
2, 86871, Note_on_c, 0, 56, 0
2, 86880, Note_on_c, 0, 60, 112
2, 87031, Note_on_c, 0, 60, 0
2, 87040, Note_on_c, 0, 56, 112
2, 87191, Note_on_c, 0, 56, 0
2, 87200, Note_on_c, 0, 51, 112
2, 87351, Note_on_c, 0, 51, 0
2, 87360, Note_on_c, 0, 42, 112
2, 87511, Note_on_c, 0, 42, 0
2, 87520, Note_on_c, 0, 54, 112
2, 87671, Note_on_c, 0, 54, 0
2, 87680, Note_on_c, 0, 58, 112
2, 87831, Note_on_c, 0, 58, 0
2, 87840, Note_on_c, 0, 61, 112
2, 87991, Note_on_c, 0, 61, 0
2, 88000, Note_on_c, 0, 58, 112
2, 88151, Note_on_c, 0, 58, 0
2, 88160, Note_on_c, 0, 54, 112
2, 88161, Control_c, 0, 64, 0
2, 88162, Control_c, 0, 64, 127
2, 88311, Note_on_c, 0, 54, 0
2, 88320, Note_on_c, 0, 46, 112
2, 88321, Control_c, 0, 64, 0
2, 88471, Note_on_c, 0, 46, 0
2, 88480, Note_on_c, 0, 53, 112
2, 88631, Note_on_c, 0, 53, 0
2, 88640, Note_on_c, 0, 58, 112
2, 88791, Note_on_c, 0, 58, 0
2, 88800, Note_on_c, 0, 62, 112
2, 88802, Control_c, 0, 64, 127
2, 88951, Note_on_c, 0, 62, 0
2, 88960, Note_on_c, 0, 58, 112
2, 89111, Note_on_c, 0, 58, 0
2, 89120, Note_on_c, 0, 53, 112
2, 89271, Note_on_c, 0, 53, 0
2, 89280, Note_on_c, 0, 46, 112
2, 89431, Note_on_c, 0, 46, 0
2, 89440, Note_on_c, 0, 58, 112
2, 89591, Note_on_c, 0, 58, 0
2, 89600, Note_on_c, 0, 62, 112
2, 89751, Note_on_c, 0, 62, 0
2, 89760, Note_on_c, 0, 68, 112
2, 89911, Note_on_c, 0, 68, 0
2, 89920, Note_on_c, 0, 62, 112
2, 90071, Note_on_c, 0, 62, 0
2, 90080, Note_on_c, 0, 58, 112
2, 90231, Note_on_c, 0, 58, 0
2, 90240, Note_on_c, 0, 51, 112
2, 90241, Control_c, 0, 64, 0
2, 90242, Control_c, 0, 64, 127
2, 90391, Note_on_c, 0, 51, 0
2, 90400, Note_on_c, 0, 66, 112
2, 90551, Note_on_c, 0, 66, 0
2, 90560, Note_on_c, 0, 58, 112
2, 90711, Note_on_c, 0, 58, 0
2, 90720, Note_on_c, 0, 53, 112
2, 90871, Note_on_c, 0, 53, 0
2, 90880, Note_on_c, 0, 65, 112
2, 91031, Note_on_c, 0, 65, 0
2, 91040, Note_on_c, 0, 57, 112
2, 91191, Note_on_c, 0, 57, 0
2, 91200, Note_on_c, 0, 54, 112
2, 91351, Note_on_c, 0, 54, 0
2, 91360, Note_on_c, 0, 63, 112
2, 91511, Note_on_c, 0, 63, 0
2, 91520, Note_on_c, 0, 58, 112
2, 91671, Note_on_c, 0, 58, 0
2, 91680, Note_on_c, 0, 56, 112
2, 91831, Note_on_c, 0, 56, 0
2, 91840, Note_on_c, 0, 66, 112
2, 91991, Note_on_c, 0, 66, 0
2, 92000, Note_on_c, 0, 60, 112
2, 92151, Note_on_c, 0, 60, 0
2, 92160, Note_on_c, 0, 49, 112
2, 92161, Control_c, 0, 64, 0
2, 92311, Note_on_c, 0, 49, 0
2, 92320, Note_on_c, 0, 56, 112
2, 92322, Control_c, 0, 64, 127
2, 92471, Note_on_c, 0, 56, 0
2, 92480, Note_on_c, 0, 61, 112
2, 92631, Note_on_c, 0, 61, 0
2, 92640, Note_on_c, 0, 65, 112
2, 92791, Note_on_c, 0, 65, 0
2, 92800, Note_on_c, 0, 61, 112
2, 92951, Note_on_c, 0, 61, 0
2, 92960, Note_on_c, 0, 56, 112
2, 93111, Note_on_c, 0, 56, 0
2, 93120, Note_on_c, 0, 51, 112
2, 93271, Note_on_c, 0, 51, 0
2, 93280, Note_on_c, 0, 55, 110
2, 93431, Note_on_c, 0, 55, 0
2, 93440, Note_on_c, 0, 61, 107
2, 93591, Note_on_c, 0, 61, 0
2, 93600, Note_on_c, 0, 63, 104
2, 93751, Note_on_c, 0, 63, 0
2, 93760, Note_on_c, 0, 61, 102
2, 93911, Note_on_c, 0, 61, 0
2, 93920, Note_on_c, 0, 55, 99
2, 94071, Note_on_c, 0, 55, 0
2, 94080, Note_on_c, 0, 44, 96
2, 94081, Control_c, 0, 64, 0
2, 94082, Control_c, 0, 64, 127
2, 94231, Note_on_c, 0, 44, 0
2, 94240, Note_on_c, 0, 51, 96
2, 94391, Note_on_c, 0, 51, 0
2, 94400, Note_on_c, 0, 56, 96
2, 94551, Note_on_c, 0, 56, 0
2, 94560, Note_on_c, 0, 60, 96
2, 94711, Note_on_c, 0, 60, 0
2, 94720, Note_on_c, 0, 56, 96
2, 94871, Note_on_c, 0, 56, 0
2, 94880, Note_on_c, 0, 51, 96
2, 95031, Note_on_c, 0, 51, 0
2, 95040, Note_on_c, 0, 44, 96
2, 95191, Note_on_c, 0, 44, 0
2, 95200, Note_on_c, 0, 51, 96
2, 95351, Note_on_c, 0, 51, 0
2, 95360, Note_on_c, 0, 54, 96
2, 95511, Note_on_c, 0, 54, 0
2, 95520, Note_on_c, 0, 58, 96
2, 95671, Note_on_c, 0, 58, 0
2, 95680, Note_on_c, 0, 54, 96
2, 95831, Note_on_c, 0, 54, 0
2, 95840, Note_on_c, 0, 51, 96
2, 95991, Note_on_c, 0, 51, 0
2, 96000, Note_on_c, 0, 44, 96
2, 96001, Control_c, 0, 64, 0
2, 96002, Control_c, 0, 64, 127
2, 96151, Note_on_c, 0, 44, 0
2, 96160, Note_on_c, 0, 56, 96
2, 96311, Note_on_c, 0, 56, 0
2, 96320, Note_on_c, 0, 60, 96
2, 96471, Note_on_c, 0, 60, 0
2, 96480, Note_on_c, 0, 63, 96
2, 96631, Note_on_c, 0, 63, 0
2, 96640, Note_on_c, 0, 60, 96
2, 96791, Note_on_c, 0, 60, 0
2, 96800, Note_on_c, 0, 56, 96
2, 96951, Note_on_c, 0, 56, 0
2, 96960, Note_on_c, 0, 49, 96
2, 97111, Note_on_c, 0, 49, 0
2, 97120, Note_on_c, 0, 56, 96
2, 97271, Note_on_c, 0, 56, 0
2, 97280, Note_on_c, 0, 60, 96
2, 97431, Note_on_c, 0, 60, 0
2, 97440, Note_on_c, 0, 66, 96
2, 97591, Note_on_c, 0, 66, 0
2, 97600, Note_on_c, 0, 60, 96
2, 97751, Note_on_c, 0, 60, 0
2, 97760, Note_on_c, 0, 56, 96
2, 97911, Note_on_c, 0, 56, 0
2, 97920, Note_on_c, 0, 49, 96
2, 97921, Control_c, 0, 64, 0
2, 97922, Control_c, 0, 64, 127
2, 98071, Note_on_c, 0, 49, 0
2, 98080, Note_on_c, 0, 56, 96
2, 98231, Note_on_c, 0, 56, 0
2, 98240, Note_on_c, 0, 61, 96
2, 98391, Note_on_c, 0, 61, 0
2, 98400, Note_on_c, 0, 65, 96
2, 98551, Note_on_c, 0, 65, 0
2, 98560, Note_on_c, 0, 61, 96
2, 98711, Note_on_c, 0, 61, 0
2, 98720, Note_on_c, 0, 56, 96
2, 98871, Note_on_c, 0, 56, 0
2, 98880, Note_on_c, 0, 49, 96
2, 99031, Note_on_c, 0, 49, 0
2, 99040, Note_on_c, 0, 56, 96
2, 99191, Note_on_c, 0, 56, 0
2, 99200, Note_on_c, 0, 65, 96
2, 99351, Note_on_c, 0, 65, 0
2, 99360, Note_on_c, 0, 68, 96
2, 99511, Note_on_c, 0, 68, 0
2, 99520, Note_on_c, 0, 65, 96
2, 99671, Note_on_c, 0, 65, 0
2, 99680, Note_on_c, 0, 56, 96
2, 99831, Note_on_c, 0, 56, 0
2, 99840, Note_on_c, 0, 66, 115
2, 99840, Note_on_c, 0, 66, 96
2, 99841, Control_c, 0, 64, 0
2, 99842, Control_c, 0, 64, 127
2, 99999, Note_on_c, 0, 66, 0
2, 100000, Note_on_c, 0, 63, 96
2, 100159, Note_on_c, 0, 63, 0
2, 100160, Note_on_c, 0, 56, 96
2, 100311, Note_on_c, 0, 56, 0
2, 100319, Note_on_c, 0, 66, 0
2, 100320, Note_on_c, 0, 65, 115
2, 100320, Note_on_c, 0, 65, 96
2, 100479, Note_on_c, 0, 65, 0
2, 100480, Note_on_c, 0, 61, 96
2, 100639, Note_on_c, 0, 61, 0
2, 100640, Note_on_c, 0, 56, 96
2, 100791, Note_on_c, 0, 56, 0
2, 100799, Note_on_c, 0, 65, 0
2, 100800, Note_on_c, 0, 63, 115
2, 100800, Note_on_c, 0, 63, 96
2, 100959, Note_on_c, 0, 63, 0
2, 100960, Note_on_c, 0, 60, 96
2, 101119, Note_on_c, 0, 60, 0
2, 101120, Note_on_c, 0, 56, 96
2, 101271, Note_on_c, 0, 56, 0
2, 101279, Note_on_c, 0, 63, 0
2, 101280, Note_on_c, 0, 61, 115
2, 101280, Note_on_c, 0, 61, 96
2, 101439, Note_on_c, 0, 61, 0
2, 101440, Note_on_c, 0, 56, 96
2, 101599, Note_on_c, 0, 56, 0
2, 101600, Note_on_c, 0, 53, 96
2, 101751, Note_on_c, 0, 53, 0
2, 101759, Note_on_c, 0, 61, 0
2, 101760, Note_on_c, 0, 44, 96
2, 101761, Control_c, 0, 64, 0
2, 101762, Control_c, 0, 64, 127
2, 101911, Note_on_c, 0, 44, 0
2, 101920, Note_on_c, 0, 51, 96
2, 102071, Note_on_c, 0, 51, 0
2, 102080, Note_on_c, 0, 56, 96
2, 102231, Note_on_c, 0, 56, 0
2, 102240, Note_on_c, 0, 60, 96
2, 102391, Note_on_c, 0, 60, 0
2, 102400, Note_on_c, 0, 56, 96
2, 102551, Note_on_c, 0, 56, 0
2, 102560, Note_on_c, 0, 51, 96
2, 102711, Note_on_c, 0, 51, 0
2, 102720, Note_on_c, 0, 42, 96
2, 102871, Note_on_c, 0, 42, 0
2, 102880, Note_on_c, 0, 54, 96
2, 103031, Note_on_c, 0, 54, 0
2, 103040, Note_on_c, 0, 58, 96
2, 103191, Note_on_c, 0, 58, 0
2, 103200, Note_on_c, 0, 61, 96
2, 103351, Note_on_c, 0, 61, 0
2, 103360, Note_on_c, 0, 58, 96
2, 103511, Note_on_c, 0, 58, 0
2, 103520, Note_on_c, 0, 54, 96
2, 103521, Control_c, 0, 64, 0
2, 103522, Control_c, 0, 64, 127
2, 103671, Note_on_c, 0, 54, 0
2, 103680, Note_on_c, 0, 46, 96
2, 103681, Control_c, 0, 64, 0
2, 103682, Control_c, 0, 64, 127
2, 103831, Note_on_c, 0, 46, 0
2, 103840, Note_on_c, 0, 53, 96
2, 103991, Note_on_c, 0, 53, 0
2, 104000, Note_on_c, 0, 58, 96
2, 104151, Note_on_c, 0, 58, 0
2, 104160, Note_on_c, 0, 62, 96
2, 104311, Note_on_c, 0, 62, 0
2, 104320, Note_on_c, 0, 58, 96
2, 104471, Note_on_c, 0, 58, 0
2, 104480, Note_on_c, 0, 53, 96
2, 104631, Note_on_c, 0, 53, 0
2, 104640, Note_on_c, 0, 46, 96
2, 104791, Note_on_c, 0, 46, 0
2, 104800, Note_on_c, 0, 58, 96
2, 104951, Note_on_c, 0, 58, 0
2, 104960, Note_on_c, 0, 62, 96
2, 105111, Note_on_c, 0, 62, 0
2, 105120, Note_on_c, 0, 68, 96
2, 105271, Note_on_c, 0, 68, 0
2, 105280, Note_on_c, 0, 62, 96
2, 105431, Note_on_c, 0, 62, 0
2, 105440, Note_on_c, 0, 58, 96
2, 105591, Note_on_c, 0, 58, 0
2, 105600, Note_on_c, 0, 51, 96
2, 105601, Control_c, 0, 64, 0
2, 105602, Control_c, 0, 64, 127
2, 105751, Note_on_c, 0, 51, 0
2, 105760, Note_on_c, 0, 66, 96
2, 105911, Note_on_c, 0, 66, 0
2, 105920, Note_on_c, 0, 58, 96
2, 106071, Note_on_c, 0, 58, 0
2, 106080, Note_on_c, 0, 53, 96
2, 106231, Note_on_c, 0, 53, 0
2, 106240, Note_on_c, 0, 65, 96
2, 106391, Note_on_c, 0, 65, 0
2, 106400, Note_on_c, 0, 57, 96
2, 106551, Note_on_c, 0, 57, 0
2, 106560, Note_on_c, 0, 54, 96
2, 106711, Note_on_c, 0, 54, 0
2, 106720, Note_on_c, 0, 63, 96
2, 106871, Note_on_c, 0, 63, 0
2, 106880, Note_on_c, 0, 58, 96
2, 107031, Note_on_c, 0, 58, 0
2, 107040, Note_on_c, 0, 56, 96
2, 107191, Note_on_c, 0, 56, 0
2, 107200, Note_on_c, 0, 66, 96
2, 107351, Note_on_c, 0, 66, 0
2, 107360, Note_on_c, 0, 60, 96
2, 107511, Note_on_c, 0, 60, 0
2, 107520, Note_on_c, 0, 49, 96
2, 107521, Control_c, 0, 64, 0
2, 107671, Note_on_c, 0, 49, 0
2, 107680, Note_on_c, 0, 56, 96
2, 107682, Control_c, 0, 64, 127
2, 107831, Note_on_c, 0, 56, 0
2, 107840, Note_on_c, 0, 61, 96
2, 107991, Note_on_c, 0, 61, 0
2, 108000, Note_on_c, 0, 65, 96
2, 108151, Note_on_c, 0, 65, 0
2, 108160, Note_on_c, 0, 61, 96
2, 108311, Note_on_c, 0, 61, 0
2, 108320, Note_on_c, 0, 56, 96
2, 108471, Note_on_c, 0, 56, 0
2, 108480, Note_on_c, 0, 51, 96
2, 108631, Note_on_c, 0, 51, 0
2, 108640, Note_on_c, 0, 55, 96
2, 108791, Note_on_c, 0, 55, 0
2, 108800, Note_on_c, 0, 61, 96
2, 108951, Note_on_c, 0, 61, 0
2, 108960, Note_on_c, 0, 63, 96
2, 109111, Note_on_c, 0, 63, 0
2, 109120, Note_on_c, 0, 61, 96
2, 109271, Note_on_c, 0, 61, 0
2, 109280, Note_on_c, 0, 55, 96
2, 109431, Note_on_c, 0, 55, 0
2, 109440, Note_on_c, 0, 49, 96
2, 109441, Control_c, 0, 64, 0
2, 109442, Control_c, 0, 64, 127
2, 109591, Note_on_c, 0, 49, 0
2, 109600, Note_on_c, 0, 56, 96
2, 109751, Note_on_c, 0, 56, 0
2, 109760, Note_on_c, 0, 60, 96
2, 109911, Note_on_c, 0, 60, 0
2, 109920, Note_on_c, 0, 66, 96
2, 110071, Note_on_c, 0, 66, 0
2, 110080, Note_on_c, 0, 60, 96
2, 110231, Note_on_c, 0, 60, 0
2, 110240, Note_on_c, 0, 56, 96
2, 110391, Note_on_c, 0, 56, 0
2, 110400, Note_on_c, 0, 49, 96
2, 110551, Note_on_c, 0, 49, 0
2, 110560, Note_on_c, 0, 56, 96
2, 110711, Note_on_c, 0, 56, 0
2, 110720, Note_on_c, 0, 61, 96
2, 110871, Note_on_c, 0, 61, 0
2, 110880, Note_on_c, 0, 65, 96
2, 111031, Note_on_c, 0, 65, 0
2, 111040, Note_on_c, 0, 61, 96
2, 111191, Note_on_c, 0, 61, 0
2, 111200, Note_on_c, 0, 56, 96
2, 111351, Note_on_c, 0, 56, 0
2, 111360, Note_on_c, 0, 44, 96
2, 111361, Control_c, 0, 64, 0
2, 111362, Control_c, 0, 64, 127
2, 111511, Note_on_c, 0, 44, 0
2, 111520, Note_on_c, 0, 51, 96
2, 111671, Note_on_c, 0, 51, 0
2, 111680, Note_on_c, 0, 56, 96
2, 111831, Note_on_c, 0, 56, 0
2, 111840, Note_on_c, 0, 60, 96
2, 111991, Note_on_c, 0, 60, 0
2, 112000, Note_on_c, 0, 56, 96
2, 112151, Note_on_c, 0, 56, 0
2, 112160, Note_on_c, 0, 51, 96
2, 112311, Note_on_c, 0, 51, 0
2, 112320, Note_on_c, 0, 44, 96
2, 112471, Note_on_c, 0, 44, 0
2, 112480, Note_on_c, 0, 51, 96
2, 112631, Note_on_c, 0, 51, 0
2, 112640, Note_on_c, 0, 55, 96
2, 112791, Note_on_c, 0, 55, 0
2, 112800, Note_on_c, 0, 61, 96
2, 112951, Note_on_c, 0, 61, 0
2, 112960, Note_on_c, 0, 55, 96
2, 113111, Note_on_c, 0, 55, 0
2, 113120, Note_on_c, 0, 51, 96
2, 113271, Note_on_c, 0, 51, 0
2, 113280, Note_on_c, 0, 44, 96
2, 113281, Control_c, 0, 64, 0
2, 113282, Control_c, 0, 64, 127
2, 113431, Note_on_c, 0, 44, 0
2, 113440, Note_on_c, 0, 51, 96
2, 113591, Note_on_c, 0, 51, 0
2, 113600, Note_on_c, 0, 56, 96
2, 113751, Note_on_c, 0, 56, 0
2, 113760, Note_on_c, 0, 60, 96
2, 113911, Note_on_c, 0, 60, 0
2, 113920, Note_on_c, 0, 56, 96
2, 114071, Note_on_c, 0, 56, 0
2, 114080, Note_on_c, 0, 51, 96
2, 114231, Note_on_c, 0, 51, 0
2, 114240, Note_on_c, 0, 49, 96
2, 114391, Note_on_c, 0, 49, 0
2, 114400, Note_on_c, 0, 56, 86
2, 114551, Note_on_c, 0, 56, 0
2, 114560, Note_on_c, 0, 61, 75
2, 114711, Note_on_c, 0, 61, 0
2, 114720, Note_on_c, 0, 64, 65
2, 114871, Note_on_c, 0, 64, 0
2, 114880, Note_on_c, 0, 61, 54
2, 115031, Note_on_c, 0, 61, 0
2, 115040, Note_on_c, 0, 56, 44
2, 115191, Note_on_c, 0, 56, 0
2, 115200, Note_on_c, 0, 39, 33
2, 115201, Control_c, 0, 64, 0
2, 115202, Control_c, 0, 64, 127
2, 115351, Note_on_c, 0, 39, 0
2, 115360, Note_on_c, 0, 51, 33
2, 115511, Note_on_c, 0, 51, 0
2, 115520, Note_on_c, 0, 56, 33
2, 115671, Note_on_c, 0, 56, 0
2, 115680, Note_on_c, 0, 60, 33
2, 115831, Note_on_c, 0, 60, 0
2, 115840, Note_on_c, 0, 56, 33
2, 115991, Note_on_c, 0, 56, 0
2, 116000, Note_on_c, 0, 51, 33
2, 116151, Note_on_c, 0, 51, 0
2, 116160, Note_on_c, 0, 39, 33
2, 116311, Note_on_c, 0, 39, 0
2, 116320, Note_on_c, 0, 51, 33
2, 116471, Note_on_c, 0, 51, 0
2, 116480, Note_on_c, 0, 55, 33
2, 116631, Note_on_c, 0, 55, 0
2, 116640, Note_on_c, 0, 61, 33
2, 116791, Note_on_c, 0, 61, 0
2, 116800, Note_on_c, 0, 55, 33
2, 116951, Note_on_c, 0, 55, 0
2, 116960, Note_on_c, 0, 51, 33
2, 117111, Note_on_c, 0, 51, 0
2, 117120, Note_on_c, 0, 44, 33
2, 117121, Control_c, 0, 64, 0
2, 117122, Control_c, 0, 64, 127
2, 117271, Note_on_c, 0, 44, 0
2, 117280, Note_on_c, 0, 51, 33
2, 117431, Note_on_c, 0, 51, 0
2, 117440, Note_on_c, 0, 56, 33
2, 117591, Note_on_c, 0, 56, 0
2, 117600, Note_on_c, 0, 60, 33
2, 117751, Note_on_c, 0, 60, 0
2, 117760, Note_on_c, 0, 56, 33
2, 117911, Note_on_c, 0, 56, 0
2, 117920, Note_on_c, 0, 51, 33
2, 118071, Note_on_c, 0, 51, 0
2, 118080, Note_on_c, 0, 42, 33
2, 118231, Note_on_c, 0, 42, 0
2, 118240, Note_on_c, 0, 54, 33
2, 118391, Note_on_c, 0, 54, 0
2, 118400, Note_on_c, 0, 58, 33
2, 118551, Note_on_c, 0, 58, 0
2, 118560, Note_on_c, 0, 61, 33
2, 118711, Note_on_c, 0, 61, 0
2, 118720, Note_on_c, 0, 58, 33
2, 118871, Note_on_c, 0, 58, 0
2, 118880, Note_on_c, 0, 54, 33
2, 119031, Note_on_c, 0, 54, 0
2, 119040, Note_on_c, 0, 44, 33
2, 119041, Control_c, 0, 64, 0
2, 119042, Control_c, 0, 64, 127
2, 119191, Note_on_c, 0, 44, 0
2, 119200, Note_on_c, 0, 56, 33
2, 119351, Note_on_c, 0, 56, 0
2, 119360, Note_on_c, 0, 60, 33
2, 119511, Note_on_c, 0, 60, 0
2, 119520, Note_on_c, 0, 63, 33
2, 119671, Note_on_c, 0, 63, 0
2, 119680, Note_on_c, 0, 60, 33
2, 119831, Note_on_c, 0, 60, 0
2, 119840, Note_on_c, 0, 56, 33
2, 119991, Note_on_c, 0, 56, 0
2, 120000, Note_on_c, 0, 49, 33
2, 120151, Note_on_c, 0, 49, 0
2, 120160, Note_on_c, 0, 56, 43
2, 120311, Note_on_c, 0, 56, 0
2, 120320, Note_on_c, 0, 60, 54
2, 120471, Note_on_c, 0, 60, 0
2, 120480, Note_on_c, 0, 66, 64
2, 120631, Note_on_c, 0, 66, 0
2, 120640, Note_on_c, 0, 60, 75
2, 120791, Note_on_c, 0, 60, 0
2, 120800, Note_on_c, 0, 56, 85
2, 120951, Note_on_c, 0, 56, 0
2, 120960, Note_on_c, 0, 49, 96
2, 120961, Control_c, 0, 64, 0
2, 120962, Control_c, 0, 64, 127
2, 121111, Note_on_c, 0, 49, 0
2, 121120, Note_on_c, 0, 56, 96
2, 121271, Note_on_c, 0, 56, 0
2, 121280, Note_on_c, 0, 61, 96
2, 121431, Note_on_c, 0, 61, 0
2, 121440, Note_on_c, 0, 65, 96
2, 121591, Note_on_c, 0, 65, 0
2, 121600, Note_on_c, 0, 61, 96
2, 121751, Note_on_c, 0, 61, 0
2, 121760, Note_on_c, 0, 56, 96
2, 121911, Note_on_c, 0, 56, 0
2, 121920, Note_on_c, 0, 49, 96
2, 122071, Note_on_c, 0, 49, 0
2, 122080, Note_on_c, 0, 56, 96
2, 122231, Note_on_c, 0, 56, 0
2, 122240, Note_on_c, 0, 65, 96
2, 122391, Note_on_c, 0, 65, 0
2, 122400, Note_on_c, 0, 68, 96
2, 122551, Note_on_c, 0, 68, 0
2, 122560, Note_on_c, 0, 65, 96
2, 122711, Note_on_c, 0, 65, 0
2, 122720, Note_on_c, 0, 56, 96
2, 122871, Note_on_c, 0, 56, 0
2, 122880, Note_on_c, 0, 66, 115
2, 122880, Note_on_c, 0, 66, 96
2, 122881, Control_c, 0, 64, 0
2, 122882, Control_c, 0, 64, 127
2, 123039, Note_on_c, 0, 66, 0
2, 123040, Note_on_c, 0, 63, 96
2, 123199, Note_on_c, 0, 63, 0
2, 123200, Note_on_c, 0, 56, 96
2, 123351, Note_on_c, 0, 56, 0
2, 123359, Note_on_c, 0, 66, 0
2, 123360, Note_on_c, 0, 65, 115
2, 123360, Note_on_c, 0, 65, 96
2, 123519, Note_on_c, 0, 65, 0
2, 123520, Note_on_c, 0, 61, 96
2, 123679, Note_on_c, 0, 61, 0
2, 123680, Note_on_c, 0, 56, 96
2, 123831, Note_on_c, 0, 56, 0
2, 123839, Note_on_c, 0, 65, 0
2, 123840, Note_on_c, 0, 63, 115
2, 123840, Note_on_c, 0, 63, 96
2, 123999, Note_on_c, 0, 63, 0
2, 124000, Note_on_c, 0, 60, 96
2, 124159, Note_on_c, 0, 60, 0
2, 124160, Note_on_c, 0, 56, 96
2, 124311, Note_on_c, 0, 56, 0
2, 124319, Note_on_c, 0, 63, 0
2, 124320, Note_on_c, 0, 61, 115
2, 124320, Note_on_c, 0, 61, 96
2, 124479, Note_on_c, 0, 61, 0
2, 124480, Note_on_c, 0, 56, 96
2, 124639, Note_on_c, 0, 56, 0
2, 124640, Note_on_c, 0, 53, 96
2, 124791, Note_on_c, 0, 53, 0
2, 124799, Note_on_c, 0, 61, 0
2, 124800, Note_on_c, 0, 44, 96
2, 124801, Control_c, 0, 64, 0
2, 124802, Control_c, 0, 64, 127
2, 124951, Note_on_c, 0, 44, 0
2, 124960, Note_on_c, 0, 51, 96
2, 125111, Note_on_c, 0, 51, 0
2, 125120, Note_on_c, 0, 56, 96
2, 125271, Note_on_c, 0, 56, 0
2, 125280, Note_on_c, 0, 60, 96
2, 125431, Note_on_c, 0, 60, 0
2, 125440, Note_on_c, 0, 56, 96
2, 125591, Note_on_c, 0, 56, 0
2, 125600, Note_on_c, 0, 51, 96
2, 125751, Note_on_c, 0, 51, 0
2, 125760, Note_on_c, 0, 42, 96
2, 125911, Note_on_c, 0, 42, 0
2, 125920, Note_on_c, 0, 54, 96
2, 126071, Note_on_c, 0, 54, 0
2, 126080, Note_on_c, 0, 58, 96
2, 126231, Note_on_c, 0, 58, 0
2, 126240, Note_on_c, 0, 61, 96
2, 126391, Note_on_c, 0, 61, 0
2, 126400, Note_on_c, 0, 58, 96
2, 126551, Note_on_c, 0, 58, 0
2, 126560, Note_on_c, 0, 54, 96
2, 126561, Control_c, 0, 64, 0
2, 126562, Control_c, 0, 64, 127
2, 126711, Note_on_c, 0, 54, 0
2, 126720, Note_on_c, 0, 46, 96
2, 126721, Control_c, 0, 64, 0
2, 126722, Control_c, 0, 64, 127
2, 126871, Note_on_c, 0, 46, 0
2, 126880, Note_on_c, 0, 53, 96
2, 127031, Note_on_c, 0, 53, 0
2, 127040, Note_on_c, 0, 58, 96
2, 127191, Note_on_c, 0, 58, 0
2, 127200, Note_on_c, 0, 62, 96
2, 127351, Note_on_c, 0, 62, 0
2, 127360, Note_on_c, 0, 58, 96
2, 127511, Note_on_c, 0, 58, 0
2, 127520, Note_on_c, 0, 53, 96
2, 127671, Note_on_c, 0, 53, 0
2, 127680, Note_on_c, 0, 46, 96
2, 127831, Note_on_c, 0, 46, 0
2, 127840, Note_on_c, 0, 58, 96
2, 127991, Note_on_c, 0, 58, 0
2, 128000, Note_on_c, 0, 62, 96
2, 128151, Note_on_c, 0, 62, 0
2, 128160, Note_on_c, 0, 68, 96
2, 128311, Note_on_c, 0, 68, 0
2, 128320, Note_on_c, 0, 62, 96
2, 128471, Note_on_c, 0, 62, 0
2, 128480, Note_on_c, 0, 58, 96
2, 128631, Note_on_c, 0, 58, 0
2, 128640, Note_on_c, 0, 51, 96
2, 128641, Control_c, 0, 64, 0
2, 128642, Control_c, 0, 64, 127
2, 128791, Note_on_c, 0, 51, 0
2, 128800, Note_on_c, 0, 66, 96
2, 128951, Note_on_c, 0, 66, 0
2, 128960, Note_on_c, 0, 58, 96
2, 129111, Note_on_c, 0, 58, 0
2, 129120, Note_on_c, 0, 53, 96
2, 129271, Note_on_c, 0, 53, 0
2, 129280, Note_on_c, 0, 65, 96
2, 129431, Note_on_c, 0, 65, 0
2, 129440, Note_on_c, 0, 57, 96
2, 129591, Note_on_c, 0, 57, 0
2, 129600, Note_on_c, 0, 54, 96
2, 129751, Note_on_c, 0, 54, 0
2, 129760, Note_on_c, 0, 63, 96
2, 129911, Note_on_c, 0, 63, 0
2, 129920, Note_on_c, 0, 58, 96
2, 130071, Note_on_c, 0, 58, 0
2, 130080, Note_on_c, 0, 56, 96
2, 130231, Note_on_c, 0, 56, 0
2, 130240, Note_on_c, 0, 66, 96
2, 130391, Note_on_c, 0, 66, 0
2, 130400, Note_on_c, 0, 60, 96
2, 130551, Note_on_c, 0, 60, 0
2, 130560, Note_on_c, 0, 49, 96
2, 130561, Control_c, 0, 64, 0
2, 130711, Note_on_c, 0, 49, 0
2, 130720, Note_on_c, 0, 56, 96
2, 130722, Control_c, 0, 64, 127
2, 130871, Note_on_c, 0, 56, 0
2, 130880, Note_on_c, 0, 61, 96
2, 131031, Note_on_c, 0, 61, 0
2, 131040, Note_on_c, 0, 65, 96
2, 131191, Note_on_c, 0, 65, 0
2, 131200, Note_on_c, 0, 61, 96
2, 131351, Note_on_c, 0, 61, 0
2, 131360, Note_on_c, 0, 56, 96
2, 131511, Note_on_c, 0, 56, 0
2, 131520, Note_on_c, 0, 51, 96
2, 131671, Note_on_c, 0, 51, 0
2, 131680, Note_on_c, 0, 55, 96
2, 131831, Note_on_c, 0, 55, 0
2, 131840, Note_on_c, 0, 61, 96
2, 131991, Note_on_c, 0, 61, 0
2, 132000, Note_on_c, 0, 63, 96
2, 132151, Note_on_c, 0, 63, 0
2, 132160, Note_on_c, 0, 61, 96
2, 132311, Note_on_c, 0, 61, 0
2, 132320, Note_on_c, 0, 55, 96
2, 132471, Note_on_c, 0, 55, 0
2, 132480, Note_on_c, 0, 49, 96
2, 132481, Control_c, 0, 64, 0
2, 132482, Control_c, 0, 64, 127
2, 132631, Note_on_c, 0, 49, 0
2, 132640, Note_on_c, 0, 56, 96
2, 132791, Note_on_c, 0, 56, 0
2, 132800, Note_on_c, 0, 60, 96
2, 132951, Note_on_c, 0, 60, 0
2, 132960, Note_on_c, 0, 66, 96
2, 133111, Note_on_c, 0, 66, 0
2, 133120, Note_on_c, 0, 60, 96
2, 133271, Note_on_c, 0, 60, 0
2, 133280, Note_on_c, 0, 56, 96
2, 133431, Note_on_c, 0, 56, 0
2, 133440, Note_on_c, 0, 49, 96
2, 133591, Note_on_c, 0, 49, 0
2, 133600, Note_on_c, 0, 56, 96
2, 133751, Note_on_c, 0, 56, 0
2, 133760, Note_on_c, 0, 61, 96
2, 133911, Note_on_c, 0, 61, 0
2, 133920, Note_on_c, 0, 65, 96
2, 134071, Note_on_c, 0, 65, 0
2, 134080, Note_on_c, 0, 61, 96
2, 134231, Note_on_c, 0, 61, 0
2, 134240, Note_on_c, 0, 56, 96
2, 134391, Note_on_c, 0, 56, 0
2, 134400, Note_on_c, 0, 44, 96
2, 134401, Control_c, 0, 64, 0
2, 134402, Control_c, 0, 64, 127
2, 134551, Note_on_c, 0, 44, 0
2, 134560, Note_on_c, 0, 51, 96
2, 134711, Note_on_c, 0, 51, 0
2, 134720, Note_on_c, 0, 56, 96
2, 134871, Note_on_c, 0, 56, 0
2, 134880, Note_on_c, 0, 60, 96
2, 135031, Note_on_c, 0, 60, 0
2, 135040, Note_on_c, 0, 56, 96
2, 135191, Note_on_c, 0, 56, 0
2, 135200, Note_on_c, 0, 51, 96
2, 135351, Note_on_c, 0, 51, 0
2, 135360, Note_on_c, 0, 44, 96
2, 135511, Note_on_c, 0, 44, 0
2, 135520, Note_on_c, 0, 51, 96
2, 135671, Note_on_c, 0, 51, 0
2, 135680, Note_on_c, 0, 55, 96
2, 135831, Note_on_c, 0, 55, 0
2, 135840, Note_on_c, 0, 61, 96
2, 135991, Note_on_c, 0, 61, 0
2, 136000, Note_on_c, 0, 55, 96
2, 136151, Note_on_c, 0, 55, 0
2, 136160, Note_on_c, 0, 51, 96
2, 136311, Note_on_c, 0, 51, 0
2, 136320, Note_on_c, 0, 44, 96
2, 136321, Control_c, 0, 64, 0
2, 136322, Control_c, 0, 64, 127
2, 136471, Note_on_c, 0, 44, 0
2, 136480, Note_on_c, 0, 51, 96
2, 136631, Note_on_c, 0, 51, 0
2, 136640, Note_on_c, 0, 56, 96
2, 136791, Note_on_c, 0, 56, 0
2, 136800, Note_on_c, 0, 60, 96
2, 136951, Note_on_c, 0, 60, 0
2, 136960, Note_on_c, 0, 56, 96
2, 137111, Note_on_c, 0, 56, 0
2, 137120, Note_on_c, 0, 51, 96
2, 137271, Note_on_c, 0, 51, 0
2, 137280, Note_on_c, 0, 49, 96
2, 137431, Note_on_c, 0, 49, 0
2, 137440, Note_on_c, 0, 56, 86
2, 137591, Note_on_c, 0, 56, 0
2, 137600, Note_on_c, 0, 61, 75
2, 137751, Note_on_c, 0, 61, 0
2, 137760, Note_on_c, 0, 64, 65
2, 137911, Note_on_c, 0, 64, 0
2, 137920, Note_on_c, 0, 61, 54
2, 138071, Note_on_c, 0, 61, 0
2, 138080, Note_on_c, 0, 56, 44
2, 138231, Note_on_c, 0, 56, 0
2, 138240, Note_on_c, 0, 39, 33
2, 138241, Control_c, 0, 64, 0
2, 138242, Control_c, 0, 64, 127
2, 138391, Note_on_c, 0, 39, 0
2, 138400, Note_on_c, 0, 51, 33
2, 138551, Note_on_c, 0, 51, 0
2, 138560, Note_on_c, 0, 56, 33
2, 138711, Note_on_c, 0, 56, 0
2, 138720, Note_on_c, 0, 60, 33
2, 138871, Note_on_c, 0, 60, 0
2, 138880, Note_on_c, 0, 56, 33
2, 139031, Note_on_c, 0, 56, 0
2, 139040, Note_on_c, 0, 51, 33
2, 139191, Note_on_c, 0, 51, 0
2, 139200, Note_on_c, 0, 39, 33
2, 139351, Note_on_c, 0, 39, 0
2, 139360, Note_on_c, 0, 51, 33
2, 139511, Note_on_c, 0, 51, 0
2, 139520, Note_on_c, 0, 55, 33
2, 139671, Note_on_c, 0, 55, 0
2, 139680, Note_on_c, 0, 61, 33
2, 139831, Note_on_c, 0, 61, 0
2, 139840, Note_on_c, 0, 55, 33
2, 139991, Note_on_c, 0, 55, 0
2, 140000, Note_on_c, 0, 51, 33
2, 140151, Note_on_c, 0, 51, 0
2, 140160, Note_on_c, 0, 44, 33
2, 140161, Control_c, 0, 64, 0
2, 140162, Control_c, 0, 64, 127
2, 140311, Note_on_c, 0, 44, 0
2, 140320, Note_on_c, 0, 51, 33
2, 140471, Note_on_c, 0, 51, 0
2, 140480, Note_on_c, 0, 56, 33
2, 140631, Note_on_c, 0, 56, 0
2, 140640, Note_on_c, 0, 60, 33
2, 140791, Note_on_c, 0, 60, 0
2, 140800, Note_on_c, 0, 56, 33
2, 140951, Note_on_c, 0, 56, 0
2, 140960, Note_on_c, 0, 51, 33
2, 141111, Note_on_c, 0, 51, 0
2, 141120, Note_on_c, 0, 42, 33
2, 141271, Note_on_c, 0, 42, 0
2, 141280, Note_on_c, 0, 54, 33
2, 141431, Note_on_c, 0, 54, 0
2, 141440, Note_on_c, 0, 58, 33
2, 141591, Note_on_c, 0, 58, 0
2, 141600, Note_on_c, 0, 61, 33
2, 141751, Note_on_c, 0, 61, 0
2, 141760, Note_on_c, 0, 58, 33
2, 141911, Note_on_c, 0, 58, 0
2, 141920, Note_on_c, 0, 54, 33
2, 142071, Note_on_c, 0, 54, 0
2, 142080, Note_on_c, 0, 44, 33
2, 142081, Control_c, 0, 64, 0
2, 142082, Control_c, 0, 64, 127
2, 142231, Note_on_c, 0, 44, 0
2, 142240, Note_on_c, 0, 56, 33
2, 142391, Note_on_c, 0, 56, 0
2, 142400, Note_on_c, 0, 60, 33
2, 142551, Note_on_c, 0, 60, 0
2, 142560, Note_on_c, 0, 63, 33
2, 142711, Note_on_c, 0, 63, 0
2, 142720, Note_on_c, 0, 60, 33
2, 142871, Note_on_c, 0, 60, 0
2, 142880, Note_on_c, 0, 56, 33
2, 143031, Note_on_c, 0, 56, 0
2, 143040, Note_on_c, 0, 49, 33
2, 143191, Note_on_c, 0, 49, 0
2, 143200, Note_on_c, 0, 56, 35
2, 143351, Note_on_c, 0, 56, 0
2, 143360, Note_on_c, 0, 60, 38
2, 143511, Note_on_c, 0, 60, 0
2, 143520, Note_on_c, 0, 66, 41
2, 143671, Note_on_c, 0, 66, 0
2, 143680, Note_on_c, 0, 60, 43
2, 143831, Note_on_c, 0, 60, 0
2, 143840, Note_on_c, 0, 56, 46
2, 143991, Note_on_c, 0, 56, 0
2, 144000, Note_on_c, 0, 49, 49
2, 144001, Control_c, 0, 64, 0
2, 144002, Control_c, 0, 64, 127
2, 144151, Note_on_c, 0, 49, 0
2, 144160, Note_on_c, 0, 56, 49
2, 144311, Note_on_c, 0, 56, 0
2, 144320, Note_on_c, 0, 61, 49
2, 144471, Note_on_c, 0, 61, 0
2, 144480, Note_on_c, 0, 65, 49
2, 144631, Note_on_c, 0, 65, 0
2, 144640, Note_on_c, 0, 61, 49
2, 144791, Note_on_c, 0, 61, 0
2, 144800, Note_on_c, 0, 56, 49
2, 144951, Note_on_c, 0, 56, 0
2, 144960, Note_on_c, 0, 49, 49
2, 145111, Note_on_c, 0, 49, 0
2, 145120, Note_on_c, 0, 56, 49
2, 145271, Note_on_c, 0, 56, 0
2, 145280, Note_on_c, 0, 65, 49
2, 145431, Note_on_c, 0, 65, 0
2, 145440, Note_on_c, 0, 80, 49
2, 145591, Note_on_c, 0, 80, 0
2, 145600, Note_on_c, 0, 53, 49
2, 145751, Note_on_c, 0, 53, 0
2, 145760, Note_on_c, 0, 44, 49
2, 145911, Note_on_c, 0, 44, 0
2, 145920, Note_on_c, 0, 66, 58
2, 145920, Note_on_c, 0, 66, 49
2, 145921, Control_c, 0, 64, 0
2, 145922, Control_c, 0, 64, 127
2, 146079, Note_on_c, 0, 66, 0
2, 146080, Note_on_c, 0, 63, 49
2, 146239, Note_on_c, 0, 63, 0
2, 146240, Note_on_c, 0, 56, 49
2, 146391, Note_on_c, 0, 56, 0
2, 146399, Note_on_c, 0, 66, 0
2, 146400, Note_on_c, 0, 65, 58
2, 146400, Note_on_c, 0, 65, 49
2, 146559, Note_on_c, 0, 65, 0
2, 146560, Note_on_c, 0, 61, 49
2, 146719, Note_on_c, 0, 61, 0
2, 146720, Note_on_c, 0, 56, 49
2, 146871, Note_on_c, 0, 56, 0
2, 146879, Note_on_c, 0, 65, 0
2, 146880, Note_on_c, 0, 63, 58
2, 146880, Note_on_c, 0, 63, 49
2, 147039, Note_on_c, 0, 63, 0
2, 147040, Note_on_c, 0, 60, 49
2, 147199, Note_on_c, 0, 60, 0
2, 147200, Note_on_c, 0, 56, 49
2, 147351, Note_on_c, 0, 56, 0
2, 147359, Note_on_c, 0, 63, 0
2, 147360, Note_on_c, 0, 61, 58
2, 147360, Note_on_c, 0, 61, 49
2, 147519, Note_on_c, 0, 61, 0
2, 147520, Note_on_c, 0, 56, 49
2, 147679, Note_on_c, 0, 56, 0
2, 147680, Note_on_c, 0, 53, 49
2, 147831, Note_on_c, 0, 53, 0
2, 147839, Note_on_c, 0, 61, 0
2, 147840, Note_on_c, 0, 44, 49
2, 147841, Control_c, 0, 64, 0
2, 147842, Control_c, 0, 64, 127
2, 147991, Note_on_c, 0, 44, 0
2, 148000, Note_on_c, 0, 51, 49
2, 148151, Note_on_c, 0, 51, 0
2, 148160, Note_on_c, 0, 56, 49
2, 148311, Note_on_c, 0, 56, 0
2, 148320, Note_on_c, 0, 60, 49
2, 148471, Note_on_c, 0, 60, 0
2, 148480, Note_on_c, 0, 56, 49
2, 148631, Note_on_c, 0, 56, 0
2, 148640, Note_on_c, 0, 51, 49
2, 148791, Note_on_c, 0, 51, 0
2, 148800, Note_on_c, 0, 42, 49
2, 148951, Note_on_c, 0, 42, 0
2, 148960, Note_on_c, 0, 54, 49
2, 149111, Note_on_c, 0, 54, 0
2, 149120, Note_on_c, 0, 58, 49
2, 149271, Note_on_c, 0, 58, 0
2, 149280, Note_on_c, 0, 61, 49
2, 149431, Note_on_c, 0, 61, 0
2, 149440, Note_on_c, 0, 58, 49
2, 149591, Note_on_c, 0, 58, 0
2, 149600, Note_on_c, 0, 54, 49
2, 149601, Control_c, 0, 64, 0
2, 149602, Control_c, 0, 64, 127
2, 149751, Note_on_c, 0, 54, 0
2, 149760, Note_on_c, 0, 46, 49
2, 149761, Control_c, 0, 64, 0
2, 149762, Control_c, 0, 64, 127
2, 149911, Note_on_c, 0, 46, 0
2, 149920, Note_on_c, 0, 53, 49
2, 150071, Note_on_c, 0, 53, 0
2, 150080, Note_on_c, 0, 58, 49
2, 150231, Note_on_c, 0, 58, 0
2, 150240, Note_on_c, 0, 62, 49
2, 150391, Note_on_c, 0, 62, 0
2, 150400, Note_on_c, 0, 58, 49
2, 150551, Note_on_c, 0, 58, 0
2, 150560, Note_on_c, 0, 53, 49
2, 150711, Note_on_c, 0, 53, 0
2, 150720, Note_on_c, 0, 46, 49
2, 150871, Note_on_c, 0, 46, 0
2, 150880, Note_on_c, 0, 58, 49
2, 151031, Note_on_c, 0, 58, 0
2, 151040, Note_on_c, 0, 62, 49
2, 151191, Note_on_c, 0, 62, 0
2, 151200, Note_on_c, 0, 68, 49
2, 151351, Note_on_c, 0, 68, 0
2, 151360, Note_on_c, 0, 62, 49
2, 151511, Note_on_c, 0, 62, 0
2, 151520, Note_on_c, 0, 58, 49
2, 151671, Note_on_c, 0, 58, 0
2, 151680, Note_on_c, 0, 51, 49
2, 151681, Control_c, 0, 64, 0
2, 151682, Control_c, 0, 64, 127
2, 151831, Note_on_c, 0, 51, 0
2, 151840, Note_on_c, 0, 66, 49
2, 151991, Note_on_c, 0, 66, 0
2, 152000, Note_on_c, 0, 58, 49
2, 152151, Note_on_c, 0, 58, 0
2, 152160, Note_on_c, 0, 53, 49
2, 152311, Note_on_c, 0, 53, 0
2, 152320, Note_on_c, 0, 65, 49
2, 152471, Note_on_c, 0, 65, 0
2, 152480, Note_on_c, 0, 57, 49
2, 152631, Note_on_c, 0, 57, 0
2, 152640, Note_on_c, 0, 54, 49
2, 152791, Note_on_c, 0, 54, 0
2, 152800, Note_on_c, 0, 63, 49
2, 152951, Note_on_c, 0, 63, 0
2, 152960, Note_on_c, 0, 58, 49
2, 153111, Note_on_c, 0, 58, 0
2, 153120, Note_on_c, 0, 56, 49
2, 153271, Note_on_c, 0, 56, 0
2, 153280, Note_on_c, 0, 66, 49
2, 153431, Note_on_c, 0, 66, 0
2, 153440, Note_on_c, 0, 60, 49
2, 153591, Note_on_c, 0, 60, 0
2, 153600, Note_on_c, 0, 49, 49
2, 153601, Control_c, 0, 64, 0
2, 153751, Note_on_c, 0, 49, 0
2, 153760, Note_on_c, 0, 56, 49
2, 153762, Control_c, 0, 64, 127
2, 153911, Note_on_c, 0, 56, 0
2, 153920, Note_on_c, 0, 61, 49
2, 154071, Note_on_c, 0, 61, 0
2, 154080, Note_on_c, 0, 65, 49
2, 154231, Note_on_c, 0, 65, 0
2, 154240, Note_on_c, 0, 61, 49
2, 154391, Note_on_c, 0, 61, 0
2, 154400, Note_on_c, 0, 56, 49
2, 154551, Note_on_c, 0, 56, 0
2, 154560, Note_on_c, 0, 51, 49
2, 154711, Note_on_c, 0, 51, 0
2, 154720, Note_on_c, 0, 55, 49
2, 154871, Note_on_c, 0, 55, 0
2, 154880, Note_on_c, 0, 61, 49
2, 155031, Note_on_c, 0, 61, 0
2, 155040, Note_on_c, 0, 63, 49
2, 155191, Note_on_c, 0, 63, 0
2, 155200, Note_on_c, 0, 61, 49
2, 155351, Note_on_c, 0, 61, 0
2, 155360, Note_on_c, 0, 55, 49
2, 155511, Note_on_c, 0, 55, 0
2, 155520, Note_on_c, 0, 49, 49
2, 155521, Control_c, 0, 64, 0
2, 155522, Control_c, 0, 64, 127
2, 155671, Note_on_c, 0, 49, 0
2, 155680, Note_on_c, 0, 56, 49
2, 155831, Note_on_c, 0, 56, 0
2, 155840, Note_on_c, 0, 60, 49
2, 155991, Note_on_c, 0, 60, 0
2, 156000, Note_on_c, 0, 66, 49
2, 156151, Note_on_c, 0, 66, 0
2, 156160, Note_on_c, 0, 60, 49
2, 156311, Note_on_c, 0, 60, 0
2, 156320, Note_on_c, 0, 56, 49
2, 156471, Note_on_c, 0, 56, 0
2, 156480, Note_on_c, 0, 49, 49
2, 156631, Note_on_c, 0, 49, 0
2, 156640, Note_on_c, 0, 56, 49
2, 156791, Note_on_c, 0, 56, 0
2, 156800, Note_on_c, 0, 60, 49
2, 156951, Note_on_c, 0, 60, 0
2, 156960, Note_on_c, 0, 66, 49
2, 157111, Note_on_c, 0, 66, 0
2, 157120, Note_on_c, 0, 60, 49
2, 157271, Note_on_c, 0, 60, 0
2, 157280, Note_on_c, 0, 56, 49
2, 157431, Note_on_c, 0, 56, 0
2, 157440, Key_signature, 4, "major"
2, 157440, Note_on_c, 0, 49, 49
2, 157441, Control_c, 0, 64, 0
2, 157442, Control_c, 0, 64, 127
2, 157599, Note_on_c, 0, 49, 0
2, 157600, Note_on_c, 0, 56, 49
2, 157759, Note_on_c, 0, 56, 0
2, 157760, Note_on_c, 0, 61, 49
2, 157919, Note_on_c, 0, 61, 0
2, 157920, Note_on_c, 0, 64, 49
2, 158079, Note_on_c, 0, 64, 0
2, 158080, Note_on_c, 0, 61, 49
2, 158239, Note_on_c, 0, 61, 0
2, 158240, Note_on_c, 0, 56, 49
2, 158391, Note_on_c, 0, 56, 0
2, 158400, Note_on_c, 0, 52, 49
2, 158559, Note_on_c, 0, 52, 0
2, 158560, Note_on_c, 0, 56, 49
2, 158719, Note_on_c, 0, 56, 0
2, 158720, Note_on_c, 0, 61, 49
2, 158879, Note_on_c, 0, 61, 0
2, 158880, Note_on_c, 0, 64, 49
2, 159039, Note_on_c, 0, 64, 0
2, 159040, Note_on_c, 0, 61, 49
2, 159199, Note_on_c, 0, 61, 0
2, 159200, Note_on_c, 0, 56, 49
2, 159351, Note_on_c, 0, 56, 0
2, 159360, Note_on_c, 0, 49, 49
2, 159361, Control_c, 0, 64, 0
2, 159362, Control_c, 0, 64, 127
2, 159519, Note_on_c, 0, 49, 0
2, 159520, Note_on_c, 0, 56, 49
2, 159679, Note_on_c, 0, 56, 0
2, 159680, Note_on_c, 0, 61, 49
2, 159839, Note_on_c, 0, 61, 0
2, 159840, Note_on_c, 0, 64, 49
2, 159999, Note_on_c, 0, 64, 0
2, 160000, Note_on_c, 0, 61, 49
2, 160159, Note_on_c, 0, 61, 0
2, 160160, Note_on_c, 0, 56, 49
2, 160311, Note_on_c, 0, 56, 0
2, 160320, Note_on_c, 0, 52, 49
2, 160479, Note_on_c, 0, 52, 0
2, 160480, Note_on_c, 0, 56, 49
2, 160639, Note_on_c, 0, 56, 0
2, 160640, Note_on_c, 0, 61, 49
2, 160799, Note_on_c, 0, 61, 0
2, 160800, Note_on_c, 0, 64, 49
2, 160959, Note_on_c, 0, 64, 0
2, 160960, Note_on_c, 0, 61, 49
2, 161119, Note_on_c, 0, 61, 0
2, 161120, Note_on_c, 0, 56, 49
2, 161271, Note_on_c, 0, 56, 0
2, 161280, Note_on_c, 0, 51, 49
2, 161281, Control_c, 0, 64, 0
2, 161282, Control_c, 0, 64, 127
2, 161439, Note_on_c, 0, 51, 0
2, 161440, Note_on_c, 0, 57, 49
2, 161599, Note_on_c, 0, 57, 0
2, 161600, Note_on_c, 0, 61, 49
2, 161759, Note_on_c, 0, 61, 0
2, 161760, Note_on_c, 0, 66, 49
2, 161919, Note_on_c, 0, 66, 0
2, 161920, Note_on_c, 0, 61, 49
2, 162079, Note_on_c, 0, 61, 0
2, 162080, Note_on_c, 0, 57, 49
2, 162231, Note_on_c, 0, 57, 0
2, 162240, Note_on_c, 0, 54, 49
2, 162399, Note_on_c, 0, 54, 0
2, 162400, Note_on_c, 0, 61, 49
2, 162559, Note_on_c, 0, 61, 0
2, 162560, Note_on_c, 0, 63, 49
2, 162719, Note_on_c, 0, 63, 0
2, 162720, Note_on_c, 0, 69, 49
2, 162879, Note_on_c, 0, 69, 0
2, 162880, Note_on_c, 0, 63, 49
2, 163039, Note_on_c, 0, 63, 0
2, 163040, Note_on_c, 0, 61, 49
2, 163191, Note_on_c, 0, 61, 0
2, 163200, Note_on_c, 0, 44, 49
2, 163201, Control_c, 0, 64, 0
2, 163202, Control_c, 0, 64, 127
2, 163359, Note_on_c, 0, 44, 0
2, 163360, Note_on_c, 0, 51, 49
2, 163519, Note_on_c, 0, 51, 0
2, 163520, Note_on_c, 0, 54, 49
2, 163679, Note_on_c, 0, 54, 0
2, 163680, Note_on_c, 0, 60, 49
2, 163839, Note_on_c, 0, 60, 0
2, 163840, Note_on_c, 0, 54, 49
2, 163999, Note_on_c, 0, 54, 0
2, 164000, Note_on_c, 0, 51, 49
2, 164151, Note_on_c, 0, 51, 0
2, 164160, Note_on_c, 0, 44, 49
2, 164319, Note_on_c, 0, 44, 0
2, 164320, Note_on_c, 0, 51, 49
2, 164479, Note_on_c, 0, 51, 0
2, 164480, Note_on_c, 0, 54, 49
2, 164639, Note_on_c, 0, 54, 0
2, 164640, Note_on_c, 0, 60, 49
2, 164799, Note_on_c, 0, 60, 0
2, 164800, Note_on_c, 0, 54, 49
2, 164959, Note_on_c, 0, 54, 0
2, 164960, Note_on_c, 0, 51, 49
2, 165111, Note_on_c, 0, 51, 0
2, 165120, Note_on_c, 0, 49, 49
2, 165121, Control_c, 0, 64, 0
2, 165122, Control_c, 0, 64, 127
2, 165279, Note_on_c, 0, 49, 0
2, 165280, Note_on_c, 0, 56, 49
2, 165439, Note_on_c, 0, 56, 0
2, 165440, Note_on_c, 0, 61, 49
2, 165599, Note_on_c, 0, 61, 0
2, 165600, Note_on_c, 0, 64, 49
2, 165759, Note_on_c, 0, 64, 0
2, 165760, Note_on_c, 0, 61, 49
2, 165919, Note_on_c, 0, 61, 0
2, 165920, Note_on_c, 0, 56, 49
2, 166071, Note_on_c, 0, 56, 0
2, 166080, Note_on_c, 0, 52, 49
2, 166239, Note_on_c, 0, 52, 0
2, 166240, Note_on_c, 0, 56, 54
2, 166399, Note_on_c, 0, 56, 0
2, 166400, Note_on_c, 0, 61, 59
2, 166559, Note_on_c, 0, 61, 0
2, 166560, Note_on_c, 0, 64, 64
2, 166719, Note_on_c, 0, 64, 0
2, 166720, Note_on_c, 0, 61, 69
2, 166879, Note_on_c, 0, 61, 0
2, 166880, Note_on_c, 0, 56, 74
2, 167031, Note_on_c, 0, 56, 0
2, 167041, Control_c, 0, 64, 0
2, 167042, End_track
0, 0, End_of_file
