0, 0, Header, 1, 2, 480
1, 0, Start_track
1, 0, Time_signature, 2, 2, 24, 8
1, 0, Key_signature, 0, "major"
1, 0, Key_signature, 0, "major"
1, 0, Tempo, 416667
1, 0, Control_c, 0, 121, 0
1, 0, Program_c, 0, 0
1, 0, Control_c, 0, 7, 100
1, 0, Control_c, 0, 10, 64
1, 0, Control_c, 0, 91, 0
1, 0, Control_c, 0, 93, 0
1, 0, MIDI_port, 0
1, 0, Note_on_c, 0, 93, 80
1, 119, Note_on_c, 0, 93, 0
1, 120, Note_on_c, 0, 92, 80
1, 239, Note_on_c, 0, 92, 0
1, 240, Note_on_c, 0, 91, 80
1, 359, Note_on_c, 0, 91, 0
1, 360, Note_on_c, 0, 90, 80
1, 479, Note_on_c, 0, 90, 0
1, 480, Note_on_c, 0, 91, 80
1, 599, Note_on_c, 0, 91, 0
1, 600, Note_on_c, 0, 90, 80
1, 719, Note_on_c, 0, 90, 0
1, 720, Note_on_c, 0, 89, 80
1, 839, Note_on_c, 0, 89, 0
1, 840, Note_on_c, 0, 88, 80
1, 959, Note_on_c, 0, 88, 0
1, 960, Note_on_c, 0, 89, 80
1, 1079, Note_on_c, 0, 89, 0
1, 1080, Note_on_c, 0, 88, 80
1, 1199, Note_on_c, 0, 88, 0
1, 1200, Note_on_c, 0, 87, 80
1, 1319, Note_on_c, 0, 87, 0
1, 1320, Note_on_c, 0, 86, 80
1, 1439, Note_on_c, 0, 86, 0
1, 1440, Note_on_c, 0, 85, 80
1, 1559, Note_on_c, 0, 85, 0
1, 1560, Note_on_c, 0, 84, 80
1, 1679, Note_on_c, 0, 84, 0
1, 1680, Note_on_c, 0, 83, 80
1, 1799, Note_on_c, 0, 83, 0
1, 1800, Note_on_c, 0, 82, 80
1, 1913, Note_on_c, 0, 82, 0
1, 1920, Note_on_c, 0, 81, 80
1, 2039, Note_on_c, 0, 81, 0
1, 2040, Note_on_c, 0, 80, 77
1, 2159, Note_on_c, 0, 80, 0
1, 2160, Note_on_c, 0, 79, 73
1, 2279, Note_on_c, 0, 79, 0
1, 2280, Note_on_c, 0, 78, 69
1, 2399, Note_on_c, 0, 78, 0
1, 2400, Note_on_c, 0, 79, 65
1, 2519, Note_on_c, 0, 79, 0
1, 2520, Note_on_c, 0, 78, 61
1, 2639, Note_on_c, 0, 78, 0
1, 2640, Note_on_c, 0, 77, 57
1, 2759, Note_on_c, 0, 77, 0
1, 2760, Note_on_c, 0, 76, 53
1, 2879, Note_on_c, 0, 76, 0
1, 2880, Note_on_c, 0, 77, 49
1, 2999, Note_on_c, 0, 77, 0
1, 3000, Note_on_c, 0, 76, 49
1, 3119, Note_on_c, 0, 76, 0
1, 3120, Note_on_c, 0, 75, 49
1, 3239, Note_on_c, 0, 75, 0
1, 3240, Note_on_c, 0, 74, 49
1, 3359, Note_on_c, 0, 74, 0
1, 3360, Note_on_c, 0, 73, 49
1, 3479, Note_on_c, 0, 73, 0
1, 3480, Note_on_c, 0, 72, 49
1, 3599, Note_on_c, 0, 72, 0
1, 3600, Note_on_c, 0, 71, 49
1, 3719, Note_on_c, 0, 71, 0
1, 3720, Note_on_c, 0, 70, 49
1, 3833, Note_on_c, 0, 70, 0
1, 3840, Note_on_c, 0, 69, 49
1, 3959, Note_on_c, 0, 69, 0
1, 3960, Note_on_c, 0, 68, 49
1, 4079, Note_on_c, 0, 68, 0
1, 4080, Note_on_c, 0, 67, 49
1, 4199, Note_on_c, 0, 67, 0
1, 4200, Note_on_c, 0, 66, 49
1, 4319, Note_on_c, 0, 66, 0
1, 4320, Note_on_c, 0, 67, 49
1, 4439, Note_on_c, 0, 67, 0
1, 4440, Note_on_c, 0, 66, 49
1, 4559, Note_on_c, 0, 66, 0
1, 4560, Note_on_c, 0, 65, 49
1, 4679, Note_on_c, 0, 65, 0
1, 4680, Note_on_c, 0, 64, 49
1, 4799, Note_on_c, 0, 64, 0
1, 4800, Note_on_c, 0, 69, 49
1, 4919, Note_on_c, 0, 69, 0
1, 4920, Note_on_c, 0, 68, 49
1, 5039, Note_on_c, 0, 68, 0
1, 5040, Note_on_c, 0, 67, 49
1, 5159, Note_on_c, 0, 67, 0
1, 5160, Note_on_c, 0, 66, 49
1, 5279, Note_on_c, 0, 66, 0
1, 5280, Note_on_c, 0, 67, 49
1, 5399, Note_on_c, 0, 67, 0
1, 5400, Note_on_c, 0, 66, 49
1, 5519, Note_on_c, 0, 66, 0
1, 5520, Note_on_c, 0, 65, 49
1, 5639, Note_on_c, 0, 65, 0
1, 5640, Note_on_c, 0, 64, 49
1, 5753, Note_on_c, 0, 64, 0
1, 5760, Note_on_c, 0, 69, 49
1, 5879, Note_on_c, 0, 69, 0
1, 5880, Note_on_c, 0, 68, 49
1, 5999, Note_on_c, 0, 68, 0
1, 6000, Note_on_c, 0, 67, 49
1, 6119, Note_on_c, 0, 67, 0
1, 6120, Note_on_c, 0, 66, 49
1, 6239, Note_on_c, 0, 66, 0
1, 6240, Note_on_c, 0, 65, 49
1, 6359, Note_on_c, 0, 65, 0
1, 6360, Note_on_c, 0, 70, 49
1, 6479, Note_on_c, 0, 70, 0
1, 6480, Note_on_c, 0, 69, 49
1, 6599, Note_on_c, 0, 69, 0
1, 6600, Note_on_c, 0, 68, 49
1, 6719, Note_on_c, 0, 68, 0
1, 6720, Note_on_c, 0, 70, 49
1, 6839, Note_on_c, 0, 70, 0
1, 6840, Note_on_c, 0, 68, 49
1, 6959, Note_on_c, 0, 68, 0
1, 6960, Note_on_c, 0, 67, 49
1, 7079, Note_on_c, 0, 67, 0
1, 7080, Note_on_c, 0, 66, 49
1, 7199, Note_on_c, 0, 66, 0
1, 7200, Note_on_c, 0, 65, 49
1, 7319, Note_on_c, 0, 65, 0
1, 7320, Note_on_c, 0, 70, 49
1, 7439, Note_on_c, 0, 70, 0
1, 7440, Note_on_c, 0, 69, 49
1, 7559, Note_on_c, 0, 69, 0
1, 7560, Note_on_c, 0, 68, 49
1, 7673, Note_on_c, 0, 68, 0
1, 7680, Note_on_c, 0, 69, 49
1, 7799, Note_on_c, 0, 69, 0
1, 7800, Note_on_c, 0, 68, 49
1, 7919, Note_on_c, 0, 68, 0
1, 7920, Note_on_c, 0, 67, 49
1, 8039, Note_on_c, 0, 67, 0
1, 8040, Note_on_c, 0, 66, 49
1, 8159, Note_on_c, 0, 66, 0
1, 8160, Note_on_c, 0, 65, 49
1, 8279, Note_on_c, 0, 65, 0
1, 8280, Note_on_c, 0, 70, 49
1, 8399, Note_on_c, 0, 70, 0
1, 8400, Note_on_c, 0, 69, 49
1, 8519, Note_on_c, 0, 69, 0
1, 8520, Note_on_c, 0, 68, 49
1, 8639, Note_on_c, 0, 68, 0
1, 8640, Note_on_c, 0, 69, 49
1, 8759, Note_on_c, 0, 69, 0
1, 8760, Note_on_c, 0, 68, 49
1, 8879, Note_on_c, 0, 68, 0
1, 8880, Note_on_c, 0, 67, 49
1, 8999, Note_on_c, 0, 67, 0
1, 9000, Note_on_c, 0, 66, 49
1, 9119, Note_on_c, 0, 66, 0
1, 9120, Note_on_c, 0, 65, 49
1, 9239, Note_on_c, 0, 65, 0
1, 9240, Note_on_c, 0, 66, 49
1, 9359, Note_on_c, 0, 66, 0
1, 9360, Note_on_c, 0, 67, 49
1, 9479, Note_on_c, 0, 67, 0
1, 9480, Note_on_c, 0, 68, 49
1, 9593, Note_on_c, 0, 68, 0
1, 9600, Note_on_c, 0, 69, 49
1, 9719, Note_on_c, 0, 69, 0
1, 9720, Note_on_c, 0, 68, 49
1, 9839, Note_on_c, 0, 68, 0
1, 9840, Note_on_c, 0, 67, 49
1, 9959, Note_on_c, 0, 67, 0
1, 9960, Note_on_c, 0, 66, 49
1, 10079, Note_on_c, 0, 66, 0
1, 10080, Note_on_c, 0, 67, 49
1, 10199, Note_on_c, 0, 67, 0
1, 10200, Note_on_c, 0, 66, 49
1, 10319, Note_on_c, 0, 66, 0
1, 10320, Note_on_c, 0, 65, 49
1, 10439, Note_on_c, 0, 65, 0
1, 10440, Note_on_c, 0, 64, 49
1, 10559, Note_on_c, 0, 64, 0
1, 10560, Note_on_c, 0, 65, 49
1, 10679, Note_on_c, 0, 65, 0
1, 10680, Note_on_c, 0, 66, 49
1, 10799, Note_on_c, 0, 66, 0
1, 10800, Note_on_c, 0, 67, 49
1, 10919, Note_on_c, 0, 67, 0
1, 10920, Note_on_c, 0, 68, 49
1, 11039, Note_on_c, 0, 68, 0
1, 11040, Note_on_c, 0, 69, 49
1, 11159, Note_on_c, 0, 69, 0
1, 11160, Note_on_c, 0, 70, 49
1, 11279, Note_on_c, 0, 70, 0
1, 11280, Note_on_c, 0, 69, 49
1, 11399, Note_on_c, 0, 69, 0
1, 11400, Note_on_c, 0, 68, 49
1, 11513, Note_on_c, 0, 68, 0
1, 11520, Note_on_c, 0, 69, 49
1, 11639, Note_on_c, 0, 69, 0
1, 11640, Note_on_c, 0, 68, 49
1, 11759, Note_on_c, 0, 68, 0
1, 11760, Note_on_c, 0, 67, 49
1, 11879, Note_on_c, 0, 67, 0
1, 11880, Note_on_c, 0, 66, 49
1, 11999, Note_on_c, 0, 66, 0
1, 12000, Note_on_c, 0, 67, 49
1, 12119, Note_on_c, 0, 67, 0
1, 12120, Note_on_c, 0, 66, 49
1, 12239, Note_on_c, 0, 66, 0
1, 12240, Note_on_c, 0, 65, 49
1, 12359, Note_on_c, 0, 65, 0
1, 12360, Note_on_c, 0, 64, 49
1, 12479, Note_on_c, 0, 64, 0
1, 12480, Note_on_c, 0, 65, 49
1, 12599, Note_on_c, 0, 65, 0
1, 12600, Note_on_c, 0, 66, 49
1, 12719, Note_on_c, 0, 66, 0
1, 12720, Note_on_c, 0, 67, 49
1, 12839, Note_on_c, 0, 67, 0
1, 12840, Note_on_c, 0, 68, 49
1, 12959, Note_on_c, 0, 68, 0
1, 12960, Note_on_c, 0, 69, 49
1, 13079, Note_on_c, 0, 69, 0
1, 13080, Note_on_c, 0, 71, 49
1, 13199, Note_on_c, 0, 71, 0
1, 13200, Note_on_c, 0, 72, 49
1, 13319, Note_on_c, 0, 72, 0
1, 13320, Note_on_c, 0, 73, 49
1, 13433, Note_on_c, 0, 73, 0
1, 13440, Note_on_c, 0, 74, 49
1, 13559, Note_on_c, 0, 74, 0
1, 13560, Note_on_c, 0, 73, 49
1, 13679, Note_on_c, 0, 73, 0
1, 13680, Note_on_c, 0, 72, 49
1, 13799, Note_on_c, 0, 72, 0
1, 13800, Note_on_c, 0, 71, 49
1, 13919, Note_on_c, 0, 71, 0
1, 13920, Note_on_c, 0, 70, 49
1, 14039, Note_on_c, 0, 70, 0
1, 14040, Note_on_c, 0, 75, 49
1, 14159, Note_on_c, 0, 75, 0
1, 14160, Note_on_c, 0, 74, 49
1, 14279, Note_on_c, 0, 74, 0
1, 14280, Note_on_c, 0, 73, 49
1, 14399, Note_on_c, 0, 73, 0
1, 14400, Note_on_c, 0, 74, 49
1, 14519, Note_on_c, 0, 74, 0
1, 14520, Note_on_c, 0, 73, 49
1, 14639, Note_on_c, 0, 73, 0
1, 14640, Note_on_c, 0, 72, 49
1, 14759, Note_on_c, 0, 72, 0
1, 14760, Note_on_c, 0, 71, 49
1, 14879, Note_on_c, 0, 71, 0
1, 14880, Note_on_c, 0, 70, 49
1, 14999, Note_on_c, 0, 70, 0
1, 15000, Note_on_c, 0, 71, 49
1, 15119, Note_on_c, 0, 71, 0
1, 15120, Note_on_c, 0, 72, 49
1, 15239, Note_on_c, 0, 72, 0
1, 15240, Note_on_c, 0, 73, 49
1, 15353, Note_on_c, 0, 73, 0
1, 15360, Note_on_c, 0, 74, 49
1, 15479, Note_on_c, 0, 74, 0
1, 15480, Note_on_c, 0, 73, 49
1, 15599, Note_on_c, 0, 73, 0
1, 15600, Note_on_c, 0, 72, 49
1, 15719, Note_on_c, 0, 72, 0
1, 15720, Note_on_c, 0, 71, 49
1, 15839, Note_on_c, 0, 71, 0
1, 15840, Note_on_c, 0, 70, 49
1, 15959, Note_on_c, 0, 70, 0
1, 15960, Note_on_c, 0, 75, 49
1, 16079, Note_on_c, 0, 75, 0
1, 16080, Note_on_c, 0, 74, 49
1, 16199, Note_on_c, 0, 74, 0
1, 16200, Note_on_c, 0, 73, 49
1, 16319, Note_on_c, 0, 73, 0
1, 16320, Note_on_c, 0, 74, 49
1, 16439, Note_on_c, 0, 74, 0
1, 16440, Note_on_c, 0, 73, 49
1, 16559, Note_on_c, 0, 73, 0
1, 16560, Note_on_c, 0, 72, 49
1, 16679, Note_on_c, 0, 72, 0
1, 16680, Note_on_c, 0, 71, 49
1, 16799, Note_on_c, 0, 71, 0
1, 16800, Note_on_c, 0, 70, 49
1, 16919, Note_on_c, 0, 70, 0
1, 16920, Note_on_c, 0, 71, 49
1, 17039, Note_on_c, 0, 71, 0
1, 17040, Note_on_c, 0, 72, 49
1, 17159, Note_on_c, 0, 72, 0
1, 17160, Note_on_c, 0, 73, 49
1, 17273, Note_on_c, 0, 73, 0
1, 17280, Note_on_c, 0, 74, 49
1, 17399, Note_on_c, 0, 74, 0
1, 17400, Note_on_c, 0, 73, 49
1, 17519, Note_on_c, 0, 73, 0
1, 17520, Note_on_c, 0, 72, 49
1, 17639, Note_on_c, 0, 72, 0
1, 17640, Note_on_c, 0, 71, 49
1, 17759, Note_on_c, 0, 71, 0
1, 17760, Note_on_c, 0, 72, 49
1, 17879, Note_on_c, 0, 72, 0
1, 17880, Note_on_c, 0, 71, 49
1, 17999, Note_on_c, 0, 71, 0
1, 18000, Note_on_c, 0, 70, 49
1, 18119, Note_on_c, 0, 70, 0
1, 18120, Note_on_c, 0, 69, 49
1, 18239, Note_on_c, 0, 69, 0
1, 18240, Note_on_c, 0, 70, 49
1, 18359, Note_on_c, 0, 70, 0
1, 18360, Note_on_c, 0, 71, 49
1, 18479, Note_on_c, 0, 71, 0
1, 18480, Note_on_c, 0, 72, 49
1, 18599, Note_on_c, 0, 72, 0
1, 18600, Note_on_c, 0, 73, 49
1, 18719, Note_on_c, 0, 73, 0
1, 18720, Note_on_c, 0, 74, 49
1, 18839, Note_on_c, 0, 74, 0
1, 18840, Note_on_c, 0, 75, 49
1, 18959, Note_on_c, 0, 75, 0
1, 18960, Note_on_c, 0, 74, 49
1, 19079, Note_on_c, 0, 74, 0
1, 19080, Note_on_c, 0, 73, 49
1, 19193, Note_on_c, 0, 73, 0
1, 19200, Note_on_c, 0, 74, 49
1, 19319, Note_on_c, 0, 74, 0
1, 19320, Note_on_c, 0, 73, 49
1, 19439, Note_on_c, 0, 73, 0
1, 19440, Note_on_c, 0, 72, 49
1, 19559, Note_on_c, 0, 72, 0
1, 19560, Note_on_c, 0, 71, 49
1, 19679, Note_on_c, 0, 71, 0
1, 19680, Note_on_c, 0, 72, 49
1, 19799, Note_on_c, 0, 72, 0
1, 19800, Note_on_c, 0, 71, 49
1, 19919, Note_on_c, 0, 71, 0
1, 19920, Note_on_c, 0, 70, 49
1, 20039, Note_on_c, 0, 70, 0
1, 20040, Note_on_c, 0, 69, 49
1, 20159, Note_on_c, 0, 69, 0
1, 20160, Note_on_c, 0, 70, 49
1, 20279, Note_on_c, 0, 70, 0
1, 20280, Note_on_c, 0, 71, 49
1, 20399, Note_on_c, 0, 71, 0
1, 20400, Note_on_c, 0, 72, 49
1, 20519, Note_on_c, 0, 72, 0
1, 20520, Note_on_c, 0, 73, 49
1, 20639, Note_on_c, 0, 73, 0
1, 20640, Note_on_c, 0, 74, 49
1, 20759, Note_on_c, 0, 74, 0
1, 20760, Note_on_c, 0, 75, 49
1, 20879, Note_on_c, 0, 75, 0
1, 20880, Note_on_c, 0, 74, 49
1, 20999, Note_on_c, 0, 74, 0
1, 21000, Note_on_c, 0, 73, 49
1, 21113, Note_on_c, 0, 73, 0
1, 21120, Note_on_c, 0, 74, 58
1, 21239, Note_on_c, 0, 74, 0
1, 21240, Note_on_c, 0, 62, 49
1, 21353, Note_on_c, 0, 62, 0
1, 21360, Note_on_c, 0, 62, 49
1, 21419, Note_on_c, 0, 62, 0
1, 21480, Note_on_c, 0, 62, 49
1, 21539, Note_on_c, 0, 62, 0
1, 21600, Note_on_c, 0, 62, 49
1, 21659, Note_on_c, 0, 62, 0
1, 21720, Note_on_c, 0, 62, 49
1, 21779, Note_on_c, 0, 62, 0
1, 21840, Note_on_c, 0, 62, 49
1, 21899, Note_on_c, 0, 62, 0
1, 21960, Note_on_c, 0, 62, 49
1, 22019, Note_on_c, 0, 62, 0
1, 22080, Note_on_c, 0, 61, 49
1, 22080, Note_on_c, 0, 63, 49
1, 22193, Note_on_c, 0, 61, 0
1, 22193, Note_on_c, 0, 63, 0
1, 22200, Note_on_c, 0, 62, 49
1, 22313, Note_on_c, 0, 62, 0
1, 22320, Note_on_c, 0, 61, 49
1, 22320, Note_on_c, 0, 63, 49
1, 22433, Note_on_c, 0, 61, 0
1, 22433, Note_on_c, 0, 63, 0
1, 22440, Note_on_c, 0, 75, 49
1, 22553, Note_on_c, 0, 75, 0
1, 22560, Note_on_c, 0, 61, 49
1, 22560, Note_on_c, 0, 63, 49
1, 22673, Note_on_c, 0, 61, 0
1, 22673, Note_on_c, 0, 63, 0
1, 22680, Note_on_c, 0, 62, 49
1, 22793, Note_on_c, 0, 62, 0
1, 22800, Note_on_c, 0, 61, 49
1, 22800, Note_on_c, 0, 63, 49
1, 22913, Note_on_c, 0, 61, 0
1, 22913, Note_on_c, 0, 63, 0
1, 22920, Note_on_c, 0, 75, 49
1, 23033, Note_on_c, 0, 75, 0
1, 23040, Note_on_c, 0, 74, 49
1, 23099, Note_on_c, 0, 74, 0
1, 23160, Note_on_c, 0, 74, 49
1, 23219, Note_on_c, 0, 74, 0
1, 23280, Note_on_c, 0, 74, 49
1, 23339, Note_on_c, 0, 74, 0
1, 23400, Note_on_c, 0, 74, 49
1, 23459, Note_on_c, 0, 74, 0
1, 23520, Note_on_c, 0, 74, 49
1, 23579, Note_on_c, 0, 74, 0
1, 23640, Note_on_c, 0, 74, 49
1, 23699, Note_on_c, 0, 74, 0
1, 23760, Note_on_c, 0, 74, 49
1, 23819, Note_on_c, 0, 74, 0
1, 23880, Note_on_c, 0, 74, 49
1, 23939, Note_on_c, 0, 74, 0
1, 24000, Note_on_c, 0, 73, 49
1, 24000, Note_on_c, 0, 75, 49
1, 24059, Note_on_c, 0, 73, 0
1, 24059, Note_on_c, 0, 75, 0
1, 24120, Note_on_c, 0, 74, 49
1, 24179, Note_on_c, 0, 74, 0
1, 24240, Note_on_c, 0, 73, 49
1, 24240, Note_on_c, 0, 75, 49
1, 24299, Note_on_c, 0, 73, 0
1, 24299, Note_on_c, 0, 75, 0
1, 24360, Note_on_c, 0, 87, 49
1, 24419, Note_on_c, 0, 87, 0
1, 24480, Note_on_c, 0, 73, 49
1, 24480, Note_on_c, 0, 75, 49
1, 24539, Note_on_c, 0, 73, 0
1, 24539, Note_on_c, 0, 75, 0
1, 24600, Note_on_c, 0, 74, 49
1, 24659, Note_on_c, 0, 74, 0
1, 24720, Note_on_c, 0, 73, 49
1, 24720, Note_on_c, 0, 75, 49
1, 24779, Note_on_c, 0, 73, 0
1, 24779, Note_on_c, 0, 75, 0
1, 24840, Note_on_c, 0, 87, 49
1, 24953, Note_on_c, 0, 87, 0
1, 24960, Note_on_c, 0, 86, 49
1, 25079, Note_on_c, 0, 86, 0
1, 25080, Note_on_c, 0, 75, 49
1, 25199, Note_on_c, 0, 75, 0
1, 25200, Note_on_c, 0, 74, 49
1, 25319, Note_on_c, 0, 74, 0
1, 25320, Note_on_c, 0, 73, 49
1, 25439, Note_on_c, 0, 73, 0
1, 25440, Note_on_c, 0, 74, 49
1, 25559, Note_on_c, 0, 74, 0
1, 25560, Note_on_c, 0, 75, 49
1, 25679, Note_on_c, 0, 75, 0
1, 25680, Note_on_c, 0, 74, 49
1, 25799, Note_on_c, 0, 74, 0
1, 25800, Note_on_c, 0, 73, 49
1, 25919, Note_on_c, 0, 73, 0
1, 25920, Note_on_c, 0, 74, 49
1, 26039, Note_on_c, 0, 74, 0
1, 26040, Note_on_c, 0, 75, 52
1, 26159, Note_on_c, 0, 75, 0
1, 26160, Note_on_c, 0, 74, 56
1, 26279, Note_on_c, 0, 74, 0
1, 26280, Note_on_c, 0, 73, 60
1, 26399, Note_on_c, 0, 73, 0
1, 26400, Note_on_c, 0, 74, 64
1, 26519, Note_on_c, 0, 74, 0
1, 26520, Note_on_c, 0, 75, 68
1, 26639, Note_on_c, 0, 75, 0
1, 26640, Note_on_c, 0, 74, 72
1, 26759, Note_on_c, 0, 74, 0
1, 26760, Note_on_c, 0, 73, 76
1, 26873, Note_on_c, 0, 73, 0
1, 26880, Note_on_c, 0, 74, 80
1, 26999, Note_on_c, 0, 74, 0
1, 27000, Note_on_c, 0, 75, 80
1, 27119, Note_on_c, 0, 75, 0
1, 27120, Note_on_c, 0, 76, 80
1, 27239, Note_on_c, 0, 76, 0
1, 27240, Note_on_c, 0, 77, 80
1, 27359, Note_on_c, 0, 77, 0
1, 27360, Note_on_c, 0, 78, 80
1, 27479, Note_on_c, 0, 78, 0
1, 27480, Note_on_c, 0, 77, 80
1, 27599, Note_on_c, 0, 77, 0
1, 27600, Note_on_c, 0, 76, 80
1, 27719, Note_on_c, 0, 76, 0
1, 27720, Note_on_c, 0, 75, 80
1, 27839, Note_on_c, 0, 75, 0
1, 27840, Note_on_c, 0, 74, 80
1, 27959, Note_on_c, 0, 74, 0
1, 27960, Note_on_c, 0, 75, 80
1, 28079, Note_on_c, 0, 75, 0
1, 28080, Note_on_c, 0, 76, 80
1, 28199, Note_on_c, 0, 76, 0
1, 28200, Note_on_c, 0, 77, 80
1, 28319, Note_on_c, 0, 77, 0
1, 28320, Note_on_c, 0, 78, 80
1, 28439, Note_on_c, 0, 78, 0
1, 28440, Note_on_c, 0, 77, 80
1, 28559, Note_on_c, 0, 77, 0
1, 28560, Note_on_c, 0, 76, 80
1, 28679, Note_on_c, 0, 76, 0
1, 28680, Note_on_c, 0, 75, 80
1, 28793, Note_on_c, 0, 75, 0
1, 28800, Note_on_c, 0, 74, 80
1, 28919, Note_on_c, 0, 74, 0
1, 28920, Note_on_c, 0, 67, 80
1, 29033, Note_on_c, 0, 67, 0
1, 29040, Note_on_c, 0, 67, 80
1, 29099, Note_on_c, 0, 67, 0
1, 29160, Note_on_c, 0, 67, 80
1, 29219, Note_on_c, 0, 67, 0
1, 29280, Note_on_c, 0, 67, 80
1, 29339, Note_on_c, 0, 67, 0
1, 29400, Note_on_c, 0, 67, 80
1, 29459, Note_on_c, 0, 67, 0
1, 29520, Note_on_c, 0, 67, 80
1, 29579, Note_on_c, 0, 67, 0
1, 29640, Note_on_c, 0, 67, 80
1, 29699, Note_on_c, 0, 67, 0
1, 29760, Note_on_c, 0, 66, 80
1, 29760, Note_on_c, 0, 68, 80
1, 29873, Note_on_c, 0, 66, 0
1, 29873, Note_on_c, 0, 68, 0
1, 29880, Note_on_c, 0, 67, 80
1, 29993, Note_on_c, 0, 67, 0
1, 30000, Note_on_c, 0, 66, 80
1, 30000, Note_on_c, 0, 68, 80
1, 30113, Note_on_c, 0, 66, 0
1, 30113, Note_on_c, 0, 68, 0
1, 30120, Note_on_c, 0, 80, 80
1, 30233, Note_on_c, 0, 80, 0
1, 30240, Note_on_c, 0, 66, 80
1, 30240, Note_on_c, 0, 68, 80
1, 30353, Note_on_c, 0, 66, 0
1, 30353, Note_on_c, 0, 68, 0
1, 30360, Note_on_c, 0, 67, 80
1, 30473, Note_on_c, 0, 67, 0
1, 30480, Note_on_c, 0, 66, 80
1, 30480, Note_on_c, 0, 68, 80
1, 30593, Note_on_c, 0, 66, 0
1, 30593, Note_on_c, 0, 68, 0
1, 30600, Note_on_c, 0, 80, 80
1, 30713, Note_on_c, 0, 80, 0
1, 30720, Note_on_c, 0, 67, 80
1, 30833, Note_on_c, 0, 67, 0
1, 30840, Note_on_c, 0, 79, 80
1, 30899, Note_on_c, 0, 79, 0
1, 30960, Note_on_c, 0, 79, 80
1, 31019, Note_on_c, 0, 79, 0
1, 31080, Note_on_c, 0, 79, 80
1, 31139, Note_on_c, 0, 79, 0
1, 31200, Note_on_c, 0, 79, 80
1, 31259, Note_on_c, 0, 79, 0
1, 31320, Note_on_c, 0, 79, 80
1, 31379, Note_on_c, 0, 79, 0
1, 31440, Note_on_c, 0, 79, 80
1, 31499, Note_on_c, 0, 79, 0
1, 31560, Note_on_c, 0, 79, 80
1, 31619, Note_on_c, 0, 79, 0
1, 31680, Note_on_c, 0, 78, 80
1, 31680, Note_on_c, 0, 80, 80
1, 31793, Note_on_c, 0, 78, 0
1, 31793, Note_on_c, 0, 80, 0
1, 31800, Note_on_c, 0, 79, 80
1, 31913, Note_on_c, 0, 79, 0
1, 31920, Note_on_c, 0, 78, 80
1, 31920, Note_on_c, 0, 80, 80
1, 32033, Note_on_c, 0, 78, 0
1, 32033, Note_on_c, 0, 80, 0
1, 32040, Note_on_c, 0, 92, 80
1, 32153, Note_on_c, 0, 92, 0
1, 32160, Note_on_c, 0, 78, 80
1, 32160, Note_on_c, 0, 80, 80
1, 32273, Note_on_c, 0, 78, 0
1, 32273, Note_on_c, 0, 80, 0
1, 32280, Note_on_c, 0, 79, 80
1, 32393, Note_on_c, 0, 79, 0
1, 32400, Note_on_c, 0, 78, 80
1, 32400, Note_on_c, 0, 80, 80
1, 32513, Note_on_c, 0, 78, 0
1, 32513, Note_on_c, 0, 80, 0
1, 32520, Note_on_c, 0, 92, 80
1, 32633, Note_on_c, 0, 92, 0
1, 32640, Note_on_c, 0, 91, 80
1, 32759, Note_on_c, 0, 91, 0
1, 32760, Note_on_c, 0, 80, 80
1, 32879, Note_on_c, 0, 80, 0
1, 32880, Note_on_c, 0, 79, 80
1, 32999, Note_on_c, 0, 79, 0
1, 33000, Note_on_c, 0, 78, 80
1, 33119, Note_on_c, 0, 78, 0
1, 33120, Note_on_c, 0, 79, 80
1, 33239, Note_on_c, 0, 79, 0
1, 33240, Note_on_c, 0, 80, 80
1, 33359, Note_on_c, 0, 80, 0
1, 33360, Note_on_c, 0, 79, 80
1, 33479, Note_on_c, 0, 79, 0
1, 33480, Note_on_c, 0, 78, 80
1, 33593, Note_on_c, 0, 78, 0
1, 33600, Note_on_c, 0, 79, 80
1, 33719, Note_on_c, 0, 79, 0
1, 33720, Note_on_c, 0, 80, 80
1, 33839, Note_on_c, 0, 80, 0
1, 33840, Note_on_c, 0, 79, 80
1, 33959, Note_on_c, 0, 79, 0
1, 33960, Note_on_c, 0, 78, 80
1, 34079, Note_on_c, 0, 78, 0
1, 34080, Note_on_c, 0, 79, 80
1, 34199, Note_on_c, 0, 79, 0
1, 34200, Note_on_c, 0, 80, 80
1, 34319, Note_on_c, 0, 80, 0
1, 34320, Note_on_c, 0, 79, 80
1, 34439, Note_on_c, 0, 79, 0
1, 34440, Note_on_c, 0, 78, 80
1, 34553, Note_on_c, 0, 78, 0
1, 34560, Note_on_c, 0, 79, 80
1, 34679, Note_on_c, 0, 79, 0
1, 34680, Note_on_c, 0, 80, 80
1, 34799, Note_on_c, 0, 80, 0
1, 34800, Note_on_c, 0, 81, 80
1, 34919, Note_on_c, 0, 81, 0
1, 34920, Note_on_c, 0, 82, 80
1, 35039, Note_on_c, 0, 82, 0
1, 35040, Note_on_c, 0, 83, 80
1, 35159, Note_on_c, 0, 83, 0
1, 35160, Note_on_c, 0, 82, 73
1, 35279, Note_on_c, 0, 82, 0
1, 35280, Note_on_c, 0, 81, 65
1, 35399, Note_on_c, 0, 81, 0
1, 35400, Note_on_c, 0, 80, 57
1, 35513, Note_on_c, 0, 80, 0
1, 35520, Note_on_c, 0, 79, 49
1, 35639, Note_on_c, 0, 79, 0
1, 35640, Note_on_c, 0, 80, 49
1, 35759, Note_on_c, 0, 80, 0
1, 35760, Note_on_c, 0, 81, 49
1, 35879, Note_on_c, 0, 81, 0
1, 35880, Note_on_c, 0, 82, 49
1, 35999, Note_on_c, 0, 82, 0
1, 36000, Note_on_c, 0, 83, 49
1, 36119, Note_on_c, 0, 83, 0
1, 36120, Note_on_c, 0, 82, 49
1, 36239, Note_on_c, 0, 82, 0
1, 36240, Note_on_c, 0, 81, 49
1, 36359, Note_on_c, 0, 81, 0
1, 36360, Note_on_c, 0, 80, 49
1, 36473, Note_on_c, 0, 80, 0
1, 36480, Note_on_c, 0, 79, 49
1, 36599, Note_on_c, 0, 79, 0
1, 36600, Note_on_c, 0, 78, 49
1, 36719, Note_on_c, 0, 78, 0
1, 36720, Note_on_c, 0, 77, 49
1, 36839, Note_on_c, 0, 77, 0
1, 36840, Note_on_c, 0, 76, 49
1, 36959, Note_on_c, 0, 76, 0
1, 36960, Note_on_c, 0, 75, 49
1, 37079, Note_on_c, 0, 75, 0
1, 37080, Note_on_c, 0, 80, 49
1, 37199, Note_on_c, 0, 80, 0
1, 37200, Note_on_c, 0, 79, 49
1, 37319, Note_on_c, 0, 79, 0
1, 37320, Note_on_c, 0, 78, 49
1, 37439, Note_on_c, 0, 78, 0
1, 37440, Note_on_c, 0, 79, 49
1, 37559, Note_on_c, 0, 79, 0
1, 37560, Note_on_c, 0, 78, 49
1, 37679, Note_on_c, 0, 78, 0
1, 37680, Note_on_c, 0, 77, 49
1, 37799, Note_on_c, 0, 77, 0
1, 37800, Note_on_c, 0, 76, 49
1, 37919, Note_on_c, 0, 76, 0
1, 37920, Note_on_c, 0, 75, 49
1, 38039, Note_on_c, 0, 75, 0
1, 38040, Note_on_c, 0, 76, 49
1, 38159, Note_on_c, 0, 76, 0
1, 38160, Note_on_c, 0, 77, 49
1, 38279, Note_on_c, 0, 77, 0
1, 38280, Note_on_c, 0, 78, 49
1, 38393, Note_on_c, 0, 78, 0
1, 38400, Note_on_c, 0, 79, 49
1, 38519, Note_on_c, 0, 79, 0
1, 38520, Note_on_c, 0, 78, 49
1, 38639, Note_on_c, 0, 78, 0
1, 38640, Note_on_c, 0, 77, 49
1, 38759, Note_on_c, 0, 77, 0
1, 38760, Note_on_c, 0, 76, 49
1, 38879, Note_on_c, 0, 76, 0
1, 38880, Note_on_c, 0, 77, 49
1, 38999, Note_on_c, 0, 77, 0
1, 39000, Note_on_c, 0, 76, 49
1, 39119, Note_on_c, 0, 76, 0
1, 39120, Note_on_c, 0, 75, 49
1, 39239, Note_on_c, 0, 75, 0
1, 39240, Note_on_c, 0, 74, 49
1, 39359, Note_on_c, 0, 74, 0
1, 39360, Note_on_c, 0, 75, 49
1, 39479, Note_on_c, 0, 75, 0
1, 39480, Note_on_c, 0, 76, 49
1, 39599, Note_on_c, 0, 76, 0
1, 39600, Note_on_c, 0, 77, 49
1, 39719, Note_on_c, 0, 77, 0
1, 39720, Note_on_c, 0, 78, 49
1, 39839, Note_on_c, 0, 78, 0
1, 39840, Note_on_c, 0, 77, 49
1, 39959, Note_on_c, 0, 77, 0
1, 39960, Note_on_c, 0, 78, 49
1, 40079, Note_on_c, 0, 78, 0
1, 40080, Note_on_c, 0, 79, 49
1, 40199, Note_on_c, 0, 79, 0
1, 40200, Note_on_c, 0, 80, 49
1, 40313, Note_on_c, 0, 80, 0
1, 40320, Note_on_c, 0, 81, 49
1, 40439, Note_on_c, 0, 81, 0
1, 40440, Note_on_c, 0, 80, 49
1, 40559, Note_on_c, 0, 80, 0
1, 40560, Note_on_c, 0, 79, 49
1, 40679, Note_on_c, 0, 79, 0
1, 40680, Note_on_c, 0, 78, 49
1, 40799, Note_on_c, 0, 78, 0
1, 40800, Note_on_c, 0, 79, 49
1, 40919, Note_on_c, 0, 79, 0
1, 40920, Note_on_c, 0, 78, 49
1, 41039, Note_on_c, 0, 78, 0
1, 41040, Note_on_c, 0, 77, 49
1, 41159, Note_on_c, 0, 77, 0
1, 41160, Note_on_c, 0, 76, 49
1, 41279, Note_on_c, 0, 76, 0
1, 41280, Note_on_c, 0, 77, 49
1, 41399, Note_on_c, 0, 77, 0
1, 41400, Note_on_c, 0, 76, 49
1, 41519, Note_on_c, 0, 76, 0
1, 41520, Note_on_c, 0, 75, 49
1, 41639, Note_on_c, 0, 75, 0
1, 41640, Note_on_c, 0, 74, 49
1, 41759, Note_on_c, 0, 74, 0
1, 41760, Note_on_c, 0, 73, 49
1, 41879, Note_on_c, 0, 73, 0
1, 41880, Note_on_c, 0, 72, 49
1, 41999, Note_on_c, 0, 72, 0
1, 42000, Note_on_c, 0, 71, 49
1, 42119, Note_on_c, 0, 71, 0
1, 42120, Note_on_c, 0, 70, 49
1, 42233, Note_on_c, 0, 70, 0
1, 42240, Note_on_c, 0, 69, 49
1, 42359, Note_on_c, 0, 69, 0
1, 42360, Note_on_c, 0, 70, 49
1, 42479, Note_on_c, 0, 70, 0
1, 42480, Note_on_c, 0, 69, 49
1, 42599, Note_on_c, 0, 69, 0
1, 42600, Note_on_c, 0, 68, 49
1, 42719, Note_on_c, 0, 68, 0
1, 42720, Note_on_c, 0, 69, 49
1, 42839, Note_on_c, 0, 69, 0
1, 42840, Note_on_c, 0, 70, 49
1, 42959, Note_on_c, 0, 70, 0
1, 42960, Note_on_c, 0, 69, 49
1, 43079, Note_on_c, 0, 69, 0
1, 43080, Note_on_c, 0, 68, 49
1, 43199, Note_on_c, 0, 68, 0
1, 43200, Note_on_c, 0, 69, 49
1, 43319, Note_on_c, 0, 69, 0
1, 43320, Note_on_c, 0, 70, 49
1, 43439, Note_on_c, 0, 70, 0
1, 43440, Note_on_c, 0, 69, 49
1, 43559, Note_on_c, 0, 69, 0
1, 43560, Note_on_c, 0, 68, 49
1, 43679, Note_on_c, 0, 68, 0
1, 43680, Note_on_c, 0, 69, 49
1, 43799, Note_on_c, 0, 69, 0
1, 43800, Note_on_c, 0, 70, 49
1, 43919, Note_on_c, 0, 70, 0
1, 43920, Note_on_c, 0, 69, 49
1, 44039, Note_on_c, 0, 69, 0
1, 44040, Note_on_c, 0, 68, 49
1, 44153, Note_on_c, 0, 68, 0
1, 44160, Note_on_c, 0, 69, 49
1, 44279, Note_on_c, 0, 69, 0
1, 44280, Note_on_c, 0, 70, 49
1, 44399, Note_on_c, 0, 70, 0
1, 44400, Note_on_c, 0, 69, 49
1, 44519, Note_on_c, 0, 69, 0
1, 44520, Note_on_c, 0, 68, 49
1, 44639, Note_on_c, 0, 68, 0
1, 44640, Note_on_c, 0, 69, 49
1, 44759, Note_on_c, 0, 69, 0
1, 44760, Note_on_c, 0, 70, 49
1, 44879, Note_on_c, 0, 70, 0
1, 44880, Note_on_c, 0, 69, 49
1, 44999, Note_on_c, 0, 69, 0
1, 45000, Note_on_c, 0, 68, 49
1, 45119, Note_on_c, 0, 68, 0
1, 45120, Note_on_c, 0, 69, 49
1, 45239, Note_on_c, 0, 69, 0
1, 45240, Note_on_c, 0, 70, 49
1, 45359, Note_on_c, 0, 70, 0
1, 45360, Note_on_c, 0, 69, 49
1, 45479, Note_on_c, 0, 69, 0
1, 45480, Note_on_c, 0, 68, 49
1, 45599, Note_on_c, 0, 68, 0
1, 45600, Note_on_c, 0, 69, 49
1, 45719, Note_on_c, 0, 69, 0
1, 45720, Note_on_c, 0, 70, 49
1, 45839, Note_on_c, 0, 70, 0
1, 45840, Note_on_c, 0, 69, 49
1, 45959, Note_on_c, 0, 69, 0
1, 45960, Note_on_c, 0, 68, 49
1, 46073, Note_on_c, 0, 68, 0
1, 46080, Note_on_c, 0, 69, 49
1, 46199, Note_on_c, 0, 69, 0
1, 46200, Note_on_c, 0, 68, 49
1, 46319, Note_on_c, 0, 68, 0
1, 46320, Note_on_c, 0, 67, 49
1, 46439, Note_on_c, 0, 67, 0
1, 46440, Note_on_c, 0, 66, 49
1, 46559, Note_on_c, 0, 66, 0
1, 46560, Note_on_c, 0, 67, 49
1, 46679, Note_on_c, 0, 67, 0
1, 46680, Note_on_c, 0, 66, 49
1, 46799, Note_on_c, 0, 66, 0
1, 46800, Note_on_c, 0, 65, 49
1, 46919, Note_on_c, 0, 65, 0
1, 46920, Note_on_c, 0, 64, 49
1, 47039, Note_on_c, 0, 64, 0
1, 47040, Note_on_c, 0, 65, 49
1, 47159, Note_on_c, 0, 65, 0
1, 47160, Note_on_c, 0, 64, 49
1, 47279, Note_on_c, 0, 64, 0
1, 47280, Note_on_c, 0, 63, 49
1, 47399, Note_on_c, 0, 63, 0
1, 47400, Note_on_c, 0, 62, 49
1, 47519, Note_on_c, 0, 62, 0
1, 47520, Note_on_c, 0, 61, 49
1, 47639, Note_on_c, 0, 61, 0
1, 47640, Note_on_c, 0, 60, 49
1, 47759, Note_on_c, 0, 60, 0
1, 47760, Note_on_c, 0, 59, 49
1, 47879, Note_on_c, 0, 59, 0
1, 47880, Note_on_c, 0, 58, 49
1, 47993, Note_on_c, 0, 58, 0
1, 48000, Note_on_c, 0, 57, 49
1, 48119, Note_on_c, 0, 57, 0
1, 48120, Note_on_c, 0, 58, 49
1, 48239, Note_on_c, 0, 58, 0
1, 48240, Note_on_c, 0, 57, 49
1, 48359, Note_on_c, 0, 57, 0
1, 48360, Note_on_c, 0, 56, 49
1, 48479, Note_on_c, 0, 56, 0
1, 48480, Note_on_c, 0, 57, 49
1, 48599, Note_on_c, 0, 57, 0
1, 48600, Note_on_c, 0, 58, 49
1, 48719, Note_on_c, 0, 58, 0
1, 48720, Note_on_c, 0, 57, 49
1, 48839, Note_on_c, 0, 57, 0
1, 48840, Note_on_c, 0, 56, 49
1, 48959, Note_on_c, 0, 56, 0
1, 48960, Note_on_c, 0, 57, 49
1, 49079, Note_on_c, 0, 57, 0
1, 49080, Note_on_c, 0, 58, 49
1, 49199, Note_on_c, 0, 58, 0
1, 49200, Note_on_c, 0, 57, 49
1, 49319, Note_on_c, 0, 57, 0
1, 49320, Note_on_c, 0, 56, 49
1, 49439, Note_on_c, 0, 56, 0
1, 49440, Note_on_c, 0, 57, 49
1, 49559, Note_on_c, 0, 57, 0
1, 49560, Note_on_c, 0, 58, 49
1, 49679, Note_on_c, 0, 58, 0
1, 49680, Note_on_c, 0, 57, 49
1, 49799, Note_on_c, 0, 57, 0
1, 49800, Note_on_c, 0, 56, 49
1, 49913, Note_on_c, 0, 56, 0
1, 49920, Note_on_c, 0, 57, 49
1, 50039, Note_on_c, 0, 57, 0
1, 50040, Note_on_c, 0, 58, 49
1, 50159, Note_on_c, 0, 58, 0
1, 50160, Note_on_c, 0, 57, 49
1, 50279, Note_on_c, 0, 57, 0
1, 50280, Note_on_c, 0, 56, 49
1, 50399, Note_on_c, 0, 56, 0
1, 50400, Note_on_c, 0, 57, 49
1, 50519, Note_on_c, 0, 57, 0
1, 50520, Note_on_c, 0, 58, 49
1, 50639, Note_on_c, 0, 58, 0
1, 50640, Note_on_c, 0, 57, 49
1, 50759, Note_on_c, 0, 57, 0
1, 50760, Note_on_c, 0, 56, 49
1, 50879, Note_on_c, 0, 56, 0
1, 50880, Note_on_c, 0, 57, 49
1, 50999, Note_on_c, 0, 57, 0
1, 51000, Note_on_c, 0, 58, 49
1, 51119, Note_on_c, 0, 58, 0
1, 51120, Note_on_c, 0, 57, 49
1, 51239, Note_on_c, 0, 57, 0
1, 51240, Note_on_c, 0, 56, 49
1, 51359, Note_on_c, 0, 56, 0
1, 51360, Note_on_c, 0, 57, 49
1, 51479, Note_on_c, 0, 57, 0
1, 51480, Note_on_c, 0, 58, 49
1, 51599, Note_on_c, 0, 58, 0
1, 51600, Note_on_c, 0, 57, 49
1, 51719, Note_on_c, 0, 57, 0
1, 51720, Note_on_c, 0, 56, 49
1, 51833, Note_on_c, 0, 56, 0
1, 51840, Note_on_c, 0, 57, 49
1, 51959, Note_on_c, 0, 57, 0
1, 51960, Note_on_c, 0, 58, 52
1, 52079, Note_on_c, 0, 58, 0
1, 52080, Note_on_c, 0, 59, 56
1, 52199, Note_on_c, 0, 59, 0
1, 52200, Note_on_c, 0, 60, 60
1, 52319, Note_on_c, 0, 60, 0
1, 52320, Note_on_c, 0, 61, 64
1, 52439, Note_on_c, 0, 61, 0
1, 52440, Note_on_c, 0, 62, 68
1, 52559, Note_on_c, 0, 62, 0
1, 52560, Note_on_c, 0, 63, 72
1, 52679, Note_on_c, 0, 63, 0
1, 52680, Note_on_c, 0, 64, 76
1, 52799, Note_on_c, 0, 64, 0
1, 52800, Note_on_c, 0, 65, 80
1, 52919, Note_on_c, 0, 65, 0
1, 52920, Note_on_c, 0, 66, 80
1, 53039, Note_on_c, 0, 66, 0
1, 53040, Note_on_c, 0, 67, 80
1, 53159, Note_on_c, 0, 67, 0
1, 53160, Note_on_c, 0, 68, 80
1, 53279, Note_on_c, 0, 68, 0
1, 53280, Note_on_c, 0, 69, 80
1, 53399, Note_on_c, 0, 69, 0
1, 53400, Note_on_c, 0, 70, 80
1, 53519, Note_on_c, 0, 70, 0
1, 53520, Note_on_c, 0, 71, 80
1, 53639, Note_on_c, 0, 71, 0
1, 53640, Note_on_c, 0, 72, 80
1, 53753, Note_on_c, 0, 72, 0
1, 53760, Note_on_c, 0, 73, 80
1, 53879, Note_on_c, 0, 73, 0
1, 53880, Note_on_c, 0, 74, 80
1, 53999, Note_on_c, 0, 74, 0
1, 54000, Note_on_c, 0, 75, 80
1, 54119, Note_on_c, 0, 75, 0
1, 54120, Note_on_c, 0, 76, 80
1, 54239, Note_on_c, 0, 76, 0
1, 54240, Note_on_c, 0, 77, 80
1, 54359, Note_on_c, 0, 77, 0
1, 54360, Note_on_c, 0, 78, 80
1, 54479, Note_on_c, 0, 78, 0
1, 54480, Note_on_c, 0, 79, 80
1, 54599, Note_on_c, 0, 79, 0
1, 54600, Note_on_c, 0, 80, 80
1, 54719, Note_on_c, 0, 80, 0
1, 54720, Note_on_c, 0, 81, 80
1, 54839, Note_on_c, 0, 81, 0
1, 54840, Note_on_c, 0, 82, 80
1, 54959, Note_on_c, 0, 82, 0
1, 54960, Note_on_c, 0, 81, 80
1, 55079, Note_on_c, 0, 81, 0
1, 55080, Note_on_c, 0, 80, 80
1, 55199, Note_on_c, 0, 80, 0
1, 55200, Note_on_c, 0, 81, 80
1, 55319, Note_on_c, 0, 81, 0
1, 55320, Note_on_c, 0, 82, 80
1, 55439, Note_on_c, 0, 82, 0
1, 55440, Note_on_c, 0, 81, 80
1, 55559, Note_on_c, 0, 81, 0
1, 55560, Note_on_c, 0, 80, 80
1, 55673, Note_on_c, 0, 80, 0
1, 55680, Note_on_c, 0, 69, 49
1, 55799, Note_on_c, 0, 69, 0
1, 55800, Note_on_c, 0, 68, 49
1, 55919, Note_on_c, 0, 68, 0
1, 55920, Note_on_c, 0, 67, 49
1, 56039, Note_on_c, 0, 67, 0
1, 56040, Note_on_c, 0, 66, 49
1, 56159, Note_on_c, 0, 66, 0
1, 56160, Note_on_c, 0, 65, 49
1, 56279, Note_on_c, 0, 65, 0
1, 56280, Note_on_c, 0, 70, 49
1, 56399, Note_on_c, 0, 70, 0
1, 56400, Note_on_c, 0, 69, 49
1, 56519, Note_on_c, 0, 69, 0
1, 56520, Note_on_c, 0, 68, 49
1, 56639, Note_on_c, 0, 68, 0
1, 56640, Note_on_c, 0, 70, 49
1, 56759, Note_on_c, 0, 70, 0
1, 56760, Note_on_c, 0, 68, 49
1, 56879, Note_on_c, 0, 68, 0
1, 56880, Note_on_c, 0, 67, 49
1, 56999, Note_on_c, 0, 67, 0
1, 57000, Note_on_c, 0, 66, 49
1, 57119, Note_on_c, 0, 66, 0
1, 57120, Note_on_c, 0, 65, 49
1, 57239, Note_on_c, 0, 65, 0
1, 57240, Note_on_c, 0, 70, 49
1, 57359, Note_on_c, 0, 70, 0
1, 57360, Note_on_c, 0, 69, 49
1, 57479, Note_on_c, 0, 69, 0
1, 57480, Note_on_c, 0, 68, 49
1, 57593, Note_on_c, 0, 68, 0
1, 57600, Note_on_c, 0, 69, 49
1, 57719, Note_on_c, 0, 69, 0
1, 57720, Note_on_c, 0, 68, 49
1, 57839, Note_on_c, 0, 68, 0
1, 57840, Note_on_c, 0, 67, 49
1, 57959, Note_on_c, 0, 67, 0
1, 57960, Note_on_c, 0, 66, 49
1, 58079, Note_on_c, 0, 66, 0
1, 58080, Note_on_c, 0, 65, 49
1, 58199, Note_on_c, 0, 65, 0
1, 58200, Note_on_c, 0, 70, 49
1, 58319, Note_on_c, 0, 70, 0
1, 58320, Note_on_c, 0, 69, 49
1, 58439, Note_on_c, 0, 69, 0
1, 58440, Note_on_c, 0, 68, 49
1, 58559, Note_on_c, 0, 68, 0
1, 58560, Note_on_c, 0, 69, 49
1, 58679, Note_on_c, 0, 69, 0
1, 58680, Note_on_c, 0, 68, 49
1, 58799, Note_on_c, 0, 68, 0
1, 58800, Note_on_c, 0, 67, 49
1, 58919, Note_on_c, 0, 67, 0
1, 58920, Note_on_c, 0, 66, 49
1, 59039, Note_on_c, 0, 66, 0
1, 59040, Note_on_c, 0, 65, 49
1, 59159, Note_on_c, 0, 65, 0
1, 59160, Note_on_c, 0, 66, 49
1, 59279, Note_on_c, 0, 66, 0
1, 59280, Note_on_c, 0, 67, 49
1, 59399, Note_on_c, 0, 67, 0
1, 59400, Note_on_c, 0, 68, 49
1, 59513, Note_on_c, 0, 68, 0
1, 59520, Note_on_c, 0, 69, 49
1, 59639, Note_on_c, 0, 69, 0
1, 59640, Note_on_c, 0, 68, 49
1, 59759, Note_on_c, 0, 68, 0
1, 59760, Note_on_c, 0, 67, 49
1, 59879, Note_on_c, 0, 67, 0
1, 59880, Note_on_c, 0, 66, 49
1, 59999, Note_on_c, 0, 66, 0
1, 60000, Note_on_c, 0, 67, 49
1, 60119, Note_on_c, 0, 67, 0
1, 60120, Note_on_c, 0, 66, 49
1, 60239, Note_on_c, 0, 66, 0
1, 60240, Note_on_c, 0, 65, 49
1, 60359, Note_on_c, 0, 65, 0
1, 60360, Note_on_c, 0, 64, 49
1, 60479, Note_on_c, 0, 64, 0
1, 60480, Note_on_c, 0, 65, 49
1, 60599, Note_on_c, 0, 65, 0
1, 60600, Note_on_c, 0, 66, 49
1, 60719, Note_on_c, 0, 66, 0
1, 60720, Note_on_c, 0, 67, 49
1, 60839, Note_on_c, 0, 67, 0
1, 60840, Note_on_c, 0, 68, 49
1, 60959, Note_on_c, 0, 68, 0
1, 60960, Note_on_c, 0, 69, 49
1, 61079, Note_on_c, 0, 69, 0
1, 61080, Note_on_c, 0, 70, 49
1, 61199, Note_on_c, 0, 70, 0
1, 61200, Note_on_c, 0, 69, 49
1, 61319, Note_on_c, 0, 69, 0
1, 61320, Note_on_c, 0, 68, 49
1, 61433, Note_on_c, 0, 68, 0
1, 61440, Note_on_c, 0, 69, 49
1, 61559, Note_on_c, 0, 69, 0
1, 61560, Note_on_c, 0, 68, 49
1, 61679, Note_on_c, 0, 68, 0
1, 61680, Note_on_c, 0, 67, 49
1, 61799, Note_on_c, 0, 67, 0
1, 61800, Note_on_c, 0, 66, 49
1, 61919, Note_on_c, 0, 66, 0
1, 61920, Note_on_c, 0, 67, 49
1, 62039, Note_on_c, 0, 67, 0
1, 62040, Note_on_c, 0, 66, 49
1, 62159, Note_on_c, 0, 66, 0
1, 62160, Note_on_c, 0, 65, 49
1, 62279, Note_on_c, 0, 65, 0
1, 62280, Note_on_c, 0, 64, 49
1, 62399, Note_on_c, 0, 64, 0
1, 62400, Note_on_c, 0, 65, 49
1, 62519, Note_on_c, 0, 65, 0
1, 62520, Note_on_c, 0, 66, 49
1, 62639, Note_on_c, 0, 66, 0
1, 62640, Note_on_c, 0, 67, 49
1, 62759, Note_on_c, 0, 67, 0
1, 62760, Note_on_c, 0, 68, 49
1, 62879, Note_on_c, 0, 68, 0
1, 62880, Note_on_c, 0, 69, 49
1, 62999, Note_on_c, 0, 69, 0
1, 63000, Note_on_c, 0, 71, 49
1, 63119, Note_on_c, 0, 71, 0
1, 63120, Note_on_c, 0, 72, 49
1, 63239, Note_on_c, 0, 72, 0
1, 63240, Note_on_c, 0, 73, 49
1, 63353, Note_on_c, 0, 73, 0
1, 63360, Note_on_c, 0, 74, 49
1, 63479, Note_on_c, 0, 74, 0
1, 63480, Note_on_c, 0, 73, 49
1, 63599, Note_on_c, 0, 73, 0
1, 63600, Note_on_c, 0, 72, 49
1, 63719, Note_on_c, 0, 72, 0
1, 63720, Note_on_c, 0, 71, 49
1, 63839, Note_on_c, 0, 71, 0
1, 63840, Note_on_c, 0, 70, 49
1, 63959, Note_on_c, 0, 70, 0
1, 63960, Note_on_c, 0, 75, 49
1, 64079, Note_on_c, 0, 75, 0
1, 64080, Note_on_c, 0, 74, 49
1, 64199, Note_on_c, 0, 74, 0
1, 64200, Note_on_c, 0, 73, 49
1, 64319, Note_on_c, 0, 73, 0
1, 64320, Note_on_c, 0, 74, 49
1, 64439, Note_on_c, 0, 74, 0
1, 64440, Note_on_c, 0, 73, 49
1, 64559, Note_on_c, 0, 73, 0
1, 64560, Note_on_c, 0, 72, 49
1, 64679, Note_on_c, 0, 72, 0
1, 64680, Note_on_c, 0, 71, 49
1, 64799, Note_on_c, 0, 71, 0
1, 64800, Note_on_c, 0, 70, 49
1, 64919, Note_on_c, 0, 70, 0
1, 64920, Note_on_c, 0, 71, 49
1, 65039, Note_on_c, 0, 71, 0
1, 65040, Note_on_c, 0, 72, 49
1, 65159, Note_on_c, 0, 72, 0
1, 65160, Note_on_c, 0, 73, 49
1, 65273, Note_on_c, 0, 73, 0
1, 65280, Note_on_c, 0, 74, 49
1, 65399, Note_on_c, 0, 74, 0
1, 65400, Note_on_c, 0, 73, 49
1, 65519, Note_on_c, 0, 73, 0
1, 65520, Note_on_c, 0, 72, 49
1, 65639, Note_on_c, 0, 72, 0
1, 65640, Note_on_c, 0, 71, 49
1, 65759, Note_on_c, 0, 71, 0
1, 65760, Note_on_c, 0, 70, 49
1, 65879, Note_on_c, 0, 70, 0
1, 65880, Note_on_c, 0, 75, 49
1, 65999, Note_on_c, 0, 75, 0
1, 66000, Note_on_c, 0, 74, 49
1, 66119, Note_on_c, 0, 74, 0
1, 66120, Note_on_c, 0, 73, 49
1, 66239, Note_on_c, 0, 73, 0
1, 66240, Note_on_c, 0, 74, 49
1, 66359, Note_on_c, 0, 74, 0
1, 66360, Note_on_c, 0, 73, 49
1, 66479, Note_on_c, 0, 73, 0
1, 66480, Note_on_c, 0, 72, 49
1, 66599, Note_on_c, 0, 72, 0
1, 66600, Note_on_c, 0, 71, 49
1, 66719, Note_on_c, 0, 71, 0
1, 66720, Note_on_c, 0, 70, 49
1, 66839, Note_on_c, 0, 70, 0
1, 66840, Note_on_c, 0, 71, 49
1, 66959, Note_on_c, 0, 71, 0
1, 66960, Note_on_c, 0, 72, 49
1, 67079, Note_on_c, 0, 72, 0
1, 67080, Note_on_c, 0, 73, 49
1, 67193, Note_on_c, 0, 73, 0
1, 67200, Note_on_c, 0, 74, 49
1, 67319, Note_on_c, 0, 74, 0
1, 67320, Note_on_c, 0, 73, 49
1, 67439, Note_on_c, 0, 73, 0
1, 67440, Note_on_c, 0, 72, 49
1, 67559, Note_on_c, 0, 72, 0
1, 67560, Note_on_c, 0, 71, 49
1, 67679, Note_on_c, 0, 71, 0
1, 67680, Note_on_c, 0, 72, 49
1, 67799, Note_on_c, 0, 72, 0
1, 67800, Note_on_c, 0, 71, 49
1, 67919, Note_on_c, 0, 71, 0
1, 67920, Note_on_c, 0, 70, 49
1, 68039, Note_on_c, 0, 70, 0
1, 68040, Note_on_c, 0, 69, 49
1, 68159, Note_on_c, 0, 69, 0
1, 68160, Note_on_c, 0, 70, 49
1, 68279, Note_on_c, 0, 70, 0
1, 68280, Note_on_c, 0, 71, 49
1, 68399, Note_on_c, 0, 71, 0
1, 68400, Note_on_c, 0, 72, 49
1, 68519, Note_on_c, 0, 72, 0
1, 68520, Note_on_c, 0, 73, 49
1, 68639, Note_on_c, 0, 73, 0
1, 68640, Note_on_c, 0, 74, 49
1, 68759, Note_on_c, 0, 74, 0
1, 68760, Note_on_c, 0, 75, 49
1, 68879, Note_on_c, 0, 75, 0
1, 68880, Note_on_c, 0, 74, 49
1, 68999, Note_on_c, 0, 74, 0
1, 69000, Note_on_c, 0, 73, 49
1, 69113, Note_on_c, 0, 73, 0
1, 69120, Note_on_c, 0, 74, 49
1, 69239, Note_on_c, 0, 74, 0
1, 69240, Note_on_c, 0, 73, 49
1, 69359, Note_on_c, 0, 73, 0
1, 69360, Note_on_c, 0, 72, 49
1, 69479, Note_on_c, 0, 72, 0
1, 69480, Note_on_c, 0, 71, 49
1, 69599, Note_on_c, 0, 71, 0
1, 69600, Note_on_c, 0, 72, 49
1, 69719, Note_on_c, 0, 72, 0
1, 69720, Note_on_c, 0, 71, 49
1, 69839, Note_on_c, 0, 71, 0
1, 69840, Note_on_c, 0, 70, 49
1, 69959, Note_on_c, 0, 70, 0
1, 69960, Note_on_c, 0, 69, 49
1, 70079, Note_on_c, 0, 69, 0
1, 70080, Note_on_c, 0, 70, 49
1, 70199, Note_on_c, 0, 70, 0
1, 70200, Note_on_c, 0, 71, 49
1, 70319, Note_on_c, 0, 71, 0
1, 70320, Note_on_c, 0, 72, 49
1, 70439, Note_on_c, 0, 72, 0
1, 70440, Note_on_c, 0, 73, 49
1, 70559, Note_on_c, 0, 73, 0
1, 70560, Note_on_c, 0, 74, 49
1, 70679, Note_on_c, 0, 74, 0
1, 70680, Note_on_c, 0, 75, 49
1, 70799, Note_on_c, 0, 75, 0
1, 70800, Note_on_c, 0, 74, 49
1, 70919, Note_on_c, 0, 74, 0
1, 70920, Note_on_c, 0, 73, 49
1, 71033, Note_on_c, 0, 73, 0
1, 71040, Note_on_c, 0, 74, 58
1, 71159, Note_on_c, 0, 74, 0
1, 71160, Note_on_c, 0, 62, 49
1, 71273, Note_on_c, 0, 62, 0
1, 71280, Note_on_c, 0, 62, 49
1, 71339, Note_on_c, 0, 62, 0
1, 71400, Note_on_c, 0, 62, 49
1, 71459, Note_on_c, 0, 62, 0
1, 71520, Note_on_c, 0, 62, 49
1, 71579, Note_on_c, 0, 62, 0
1, 71640, Note_on_c, 0, 62, 49
1, 71699, Note_on_c, 0, 62, 0
1, 71760, Note_on_c, 0, 62, 49
1, 71819, Note_on_c, 0, 62, 0
1, 71880, Note_on_c, 0, 62, 49
1, 71939, Note_on_c, 0, 62, 0
1, 72000, Note_on_c, 0, 61, 49
1, 72000, Note_on_c, 0, 63, 49
1, 72113, Note_on_c, 0, 61, 0
1, 72113, Note_on_c, 0, 63, 0
1, 72120, Note_on_c, 0, 62, 49
1, 72233, Note_on_c, 0, 62, 0
1, 72240, Note_on_c, 0, 61, 49
1, 72240, Note_on_c, 0, 63, 49
1, 72353, Note_on_c, 0, 61, 0
1, 72353, Note_on_c, 0, 63, 0
1, 72360, Note_on_c, 0, 75, 49
1, 72473, Note_on_c, 0, 75, 0
1, 72480, Note_on_c, 0, 61, 49
1, 72480, Note_on_c, 0, 63, 49
1, 72593, Note_on_c, 0, 61, 0
1, 72593, Note_on_c, 0, 63, 0
1, 72600, Note_on_c, 0, 62, 49
1, 72713, Note_on_c, 0, 62, 0
1, 72720, Note_on_c, 0, 61, 49
1, 72720, Note_on_c, 0, 63, 49
1, 72833, Note_on_c, 0, 61, 0
1, 72833, Note_on_c, 0, 63, 0
1, 72840, Note_on_c, 0, 75, 49
1, 72953, Note_on_c, 0, 75, 0
1, 72960, Note_on_c, 0, 74, 49
1, 73019, Note_on_c, 0, 74, 0
1, 73080, Note_on_c, 0, 74, 49
1, 73139, Note_on_c, 0, 74, 0
1, 73200, Note_on_c, 0, 74, 49
1, 73259, Note_on_c, 0, 74, 0
1, 73320, Note_on_c, 0, 74, 49
1, 73379, Note_on_c, 0, 74, 0
1, 73440, Note_on_c, 0, 74, 49
1, 73499, Note_on_c, 0, 74, 0
1, 73560, Note_on_c, 0, 74, 49
1, 73619, Note_on_c, 0, 74, 0
1, 73680, Note_on_c, 0, 74, 49
1, 73739, Note_on_c, 0, 74, 0
1, 73800, Note_on_c, 0, 74, 49
1, 73859, Note_on_c, 0, 74, 0
1, 73920, Note_on_c, 0, 73, 49
1, 73920, Note_on_c, 0, 75, 49
1, 73979, Note_on_c, 0, 73, 0
1, 73979, Note_on_c, 0, 75, 0
1, 74040, Note_on_c, 0, 74, 49
1, 74099, Note_on_c, 0, 74, 0
1, 74160, Note_on_c, 0, 73, 49
1, 74160, Note_on_c, 0, 75, 49
1, 74219, Note_on_c, 0, 73, 0
1, 74219, Note_on_c, 0, 75, 0
1, 74280, Note_on_c, 0, 87, 49
1, 74339, Note_on_c, 0, 87, 0
1, 74400, Note_on_c, 0, 73, 49
1, 74400, Note_on_c, 0, 75, 49
1, 74459, Note_on_c, 0, 73, 0
1, 74459, Note_on_c, 0, 75, 0
1, 74520, Note_on_c, 0, 74, 49
1, 74579, Note_on_c, 0, 74, 0
1, 74640, Note_on_c, 0, 73, 49
1, 74640, Note_on_c, 0, 75, 49
1, 74699, Note_on_c, 0, 73, 0
1, 74699, Note_on_c, 0, 75, 0
1, 74760, Note_on_c, 0, 87, 49
1, 74873, Note_on_c, 0, 87, 0
1, 74880, Note_on_c, 0, 86, 49
1, 74999, Note_on_c, 0, 86, 0
1, 75000, Note_on_c, 0, 75, 49
1, 75119, Note_on_c, 0, 75, 0
1, 75120, Note_on_c, 0, 74, 49
1, 75239, Note_on_c, 0, 74, 0
1, 75240, Note_on_c, 0, 73, 49
1, 75359, Note_on_c, 0, 73, 0
1, 75360, Note_on_c, 0, 74, 49
1, 75479, Note_on_c, 0, 74, 0
1, 75480, Note_on_c, 0, 75, 49
1, 75599, Note_on_c, 0, 75, 0
1, 75600, Note_on_c, 0, 74, 49
1, 75719, Note_on_c, 0, 74, 0
1, 75720, Note_on_c, 0, 73, 49
1, 75839, Note_on_c, 0, 73, 0
1, 75840, Note_on_c, 0, 74, 49
1, 75959, Note_on_c, 0, 74, 0
1, 75960, Note_on_c, 0, 75, 52
1, 76079, Note_on_c, 0, 75, 0
1, 76080, Note_on_c, 0, 74, 56
1, 76199, Note_on_c, 0, 74, 0
1, 76200, Note_on_c, 0, 73, 60
1, 76319, Note_on_c, 0, 73, 0
1, 76320, Note_on_c, 0, 74, 64
1, 76439, Note_on_c, 0, 74, 0
1, 76440, Note_on_c, 0, 75, 68
1, 76559, Note_on_c, 0, 75, 0
1, 76560, Note_on_c, 0, 74, 72
1, 76679, Note_on_c, 0, 74, 0
1, 76680, Note_on_c, 0, 73, 76
1, 76793, Note_on_c, 0, 73, 0
1, 76800, Note_on_c, 0, 74, 80
1, 76919, Note_on_c, 0, 74, 0
1, 76920, Note_on_c, 0, 75, 80
1, 77039, Note_on_c, 0, 75, 0
1, 77040, Note_on_c, 0, 76, 80
1, 77159, Note_on_c, 0, 76, 0
1, 77160, Note_on_c, 0, 77, 80
1, 77279, Note_on_c, 0, 77, 0
1, 77280, Note_on_c, 0, 78, 80
1, 77399, Note_on_c, 0, 78, 0
1, 77400, Note_on_c, 0, 77, 80
1, 77519, Note_on_c, 0, 77, 0
1, 77520, Note_on_c, 0, 76, 80
1, 77639, Note_on_c, 0, 76, 0
1, 77640, Note_on_c, 0, 75, 80
1, 77759, Note_on_c, 0, 75, 0
1, 77760, Note_on_c, 0, 74, 80
1, 77879, Note_on_c, 0, 74, 0
1, 77880, Note_on_c, 0, 75, 80
1, 77999, Note_on_c, 0, 75, 0
1, 78000, Note_on_c, 0, 76, 80
1, 78119, Note_on_c, 0, 76, 0
1, 78120, Note_on_c, 0, 77, 80
1, 78239, Note_on_c, 0, 77, 0
1, 78240, Note_on_c, 0, 78, 80
1, 78359, Note_on_c, 0, 78, 0
1, 78360, Note_on_c, 0, 77, 80
1, 78479, Note_on_c, 0, 77, 0
1, 78480, Note_on_c, 0, 76, 80
1, 78599, Note_on_c, 0, 76, 0
1, 78600, Note_on_c, 0, 75, 80
1, 78713, Note_on_c, 0, 75, 0
1, 78720, Note_on_c, 0, 74, 80
1, 78839, Note_on_c, 0, 74, 0
1, 78840, Note_on_c, 0, 67, 80
1, 78953, Note_on_c, 0, 67, 0
1, 78960, Note_on_c, 0, 67, 80
1, 79019, Note_on_c, 0, 67, 0
1, 79080, Note_on_c, 0, 67, 80
1, 79139, Note_on_c, 0, 67, 0
1, 79200, Note_on_c, 0, 67, 80
1, 79259, Note_on_c, 0, 67, 0
1, 79320, Note_on_c, 0, 67, 80
1, 79379, Note_on_c, 0, 67, 0
1, 79440, Note_on_c, 0, 67, 80
1, 79499, Note_on_c, 0, 67, 0
1, 79560, Note_on_c, 0, 67, 80
1, 79619, Note_on_c, 0, 67, 0
1, 79680, Note_on_c, 0, 66, 80
1, 79680, Note_on_c, 0, 68, 80
1, 79793, Note_on_c, 0, 66, 0
1, 79793, Note_on_c, 0, 68, 0
1, 79800, Note_on_c, 0, 67, 80
1, 79913, Note_on_c, 0, 67, 0
1, 79920, Note_on_c, 0, 66, 80
1, 79920, Note_on_c, 0, 68, 80
1, 80033, Note_on_c, 0, 66, 0
1, 80033, Note_on_c, 0, 68, 0
1, 80040, Note_on_c, 0, 80, 80
1, 80153, Note_on_c, 0, 80, 0
1, 80160, Note_on_c, 0, 66, 80
1, 80160, Note_on_c, 0, 68, 80
1, 80273, Note_on_c, 0, 66, 0
1, 80273, Note_on_c, 0, 68, 0
1, 80280, Note_on_c, 0, 67, 80
1, 80393, Note_on_c, 0, 67, 0
1, 80400, Note_on_c, 0, 66, 80
1, 80400, Note_on_c, 0, 68, 80
1, 80513, Note_on_c, 0, 66, 0
1, 80513, Note_on_c, 0, 68, 0
1, 80520, Note_on_c, 0, 80, 80
1, 80633, Note_on_c, 0, 80, 0
1, 80640, Note_on_c, 0, 67, 80
1, 80753, Note_on_c, 0, 67, 0
1, 80760, Note_on_c, 0, 79, 80
1, 80819, Note_on_c, 0, 79, 0
1, 80880, Note_on_c, 0, 79, 80
1, 80939, Note_on_c, 0, 79, 0
1, 81000, Note_on_c, 0, 79, 80
1, 81059, Note_on_c, 0, 79, 0
1, 81120, Note_on_c, 0, 79, 80
1, 81179, Note_on_c, 0, 79, 0
1, 81240, Note_on_c, 0, 79, 80
1, 81299, Note_on_c, 0, 79, 0
1, 81360, Note_on_c, 0, 79, 80
1, 81419, Note_on_c, 0, 79, 0
1, 81480, Note_on_c, 0, 79, 80
1, 81539, Note_on_c, 0, 79, 0
1, 81600, Note_on_c, 0, 78, 80
1, 81600, Note_on_c, 0, 80, 80
1, 81713, Note_on_c, 0, 78, 0
1, 81713, Note_on_c, 0, 80, 0
1, 81720, Note_on_c, 0, 79, 80
1, 81833, Note_on_c, 0, 79, 0
1, 81840, Note_on_c, 0, 78, 80
1, 81840, Note_on_c, 0, 80, 80
1, 81953, Note_on_c, 0, 78, 0
1, 81953, Note_on_c, 0, 80, 0
1, 81960, Note_on_c, 0, 92, 80
1, 82073, Note_on_c, 0, 92, 0
1, 82080, Note_on_c, 0, 78, 80
1, 82080, Note_on_c, 0, 80, 80
1, 82193, Note_on_c, 0, 78, 0
1, 82193, Note_on_c, 0, 80, 0
1, 82200, Note_on_c, 0, 79, 80
1, 82313, Note_on_c, 0, 79, 0
1, 82320, Note_on_c, 0, 78, 80
1, 82320, Note_on_c, 0, 80, 80
1, 82433, Note_on_c, 0, 78, 0
1, 82433, Note_on_c, 0, 80, 0
1, 82440, Note_on_c, 0, 92, 80
1, 82553, Note_on_c, 0, 92, 0
1, 82560, Note_on_c, 0, 91, 80
1, 82679, Note_on_c, 0, 91, 0
1, 82680, Note_on_c, 0, 80, 80
1, 82799, Note_on_c, 0, 80, 0
1, 82800, Note_on_c, 0, 79, 80
1, 82919, Note_on_c, 0, 79, 0
1, 82920, Note_on_c, 0, 78, 80
1, 83039, Note_on_c, 0, 78, 0
1, 83040, Note_on_c, 0, 79, 80
1, 83159, Note_on_c, 0, 79, 0
1, 83160, Note_on_c, 0, 80, 80
1, 83279, Note_on_c, 0, 80, 0
1, 83280, Note_on_c, 0, 79, 80
1, 83399, Note_on_c, 0, 79, 0
1, 83400, Note_on_c, 0, 78, 80
1, 83513, Note_on_c, 0, 78, 0
1, 83520, Note_on_c, 0, 79, 80
1, 83639, Note_on_c, 0, 79, 0
1, 83640, Note_on_c, 0, 80, 80
1, 83759, Note_on_c, 0, 80, 0
1, 83760, Note_on_c, 0, 79, 80
1, 83879, Note_on_c, 0, 79, 0
1, 83880, Note_on_c, 0, 78, 80
1, 83999, Note_on_c, 0, 78, 0
1, 84000, Note_on_c, 0, 79, 80
1, 84119, Note_on_c, 0, 79, 0
1, 84120, Note_on_c, 0, 80, 80
1, 84239, Note_on_c, 0, 80, 0
1, 84240, Note_on_c, 0, 79, 80
1, 84359, Note_on_c, 0, 79, 0
1, 84360, Note_on_c, 0, 78, 80
1, 84473, Note_on_c, 0, 78, 0
1, 84480, Note_on_c, 0, 79, 80
1, 84599, Note_on_c, 0, 79, 0
1, 84600, Note_on_c, 0, 80, 80
1, 84719, Note_on_c, 0, 80, 0
1, 84720, Note_on_c, 0, 81, 80
1, 84839, Note_on_c, 0, 81, 0
1, 84840, Note_on_c, 0, 82, 80
1, 84959, Note_on_c, 0, 82, 0
1, 84960, Note_on_c, 0, 83, 80
1, 85079, Note_on_c, 0, 83, 0
1, 85080, Note_on_c, 0, 82, 73
1, 85199, Note_on_c, 0, 82, 0
1, 85200, Note_on_c, 0, 81, 65
1, 85319, Note_on_c, 0, 81, 0
1, 85320, Note_on_c, 0, 80, 57
1, 85433, Note_on_c, 0, 80, 0
1, 85440, Note_on_c, 0, 79, 49
1, 85559, Note_on_c, 0, 79, 0
1, 85560, Note_on_c, 0, 80, 49
1, 85679, Note_on_c, 0, 80, 0
1, 85680, Note_on_c, 0, 81, 49
1, 85799, Note_on_c, 0, 81, 0
1, 85800, Note_on_c, 0, 82, 49
1, 85919, Note_on_c, 0, 82, 0
1, 85920, Note_on_c, 0, 83, 49
1, 86039, Note_on_c, 0, 83, 0
1, 86040, Note_on_c, 0, 82, 49
1, 86159, Note_on_c, 0, 82, 0
1, 86160, Note_on_c, 0, 81, 49
1, 86279, Note_on_c, 0, 81, 0
1, 86280, Note_on_c, 0, 80, 49
1, 86393, Note_on_c, 0, 80, 0
1, 86400, Note_on_c, 0, 79, 49
1, 86519, Note_on_c, 0, 79, 0
1, 86520, Note_on_c, 0, 78, 49
1, 86639, Note_on_c, 0, 78, 0
1, 86640, Note_on_c, 0, 77, 49
1, 86759, Note_on_c, 0, 77, 0
1, 86760, Note_on_c, 0, 76, 49
1, 86879, Note_on_c, 0, 76, 0
1, 86880, Note_on_c, 0, 75, 49
1, 86999, Note_on_c, 0, 75, 0
1, 87000, Note_on_c, 0, 80, 49
1, 87119, Note_on_c, 0, 80, 0
1, 87120, Note_on_c, 0, 79, 49
1, 87239, Note_on_c, 0, 79, 0
1, 87240, Note_on_c, 0, 78, 49
1, 87359, Note_on_c, 0, 78, 0
1, 87360, Note_on_c, 0, 79, 49
1, 87479, Note_on_c, 0, 79, 0
1, 87480, Note_on_c, 0, 78, 49
1, 87599, Note_on_c, 0, 78, 0
1, 87600, Note_on_c, 0, 77, 49
1, 87719, Note_on_c, 0, 77, 0
1, 87720, Note_on_c, 0, 76, 49
1, 87839, Note_on_c, 0, 76, 0
1, 87840, Note_on_c, 0, 75, 49
1, 87959, Note_on_c, 0, 75, 0
1, 87960, Note_on_c, 0, 76, 49
1, 88079, Note_on_c, 0, 76, 0
1, 88080, Note_on_c, 0, 77, 49
1, 88199, Note_on_c, 0, 77, 0
1, 88200, Note_on_c, 0, 78, 49
1, 88313, Note_on_c, 0, 78, 0
1, 88320, Note_on_c, 0, 79, 49
1, 88439, Note_on_c, 0, 79, 0
1, 88440, Note_on_c, 0, 78, 49
1, 88559, Note_on_c, 0, 78, 0
1, 88560, Note_on_c, 0, 77, 49
1, 88679, Note_on_c, 0, 77, 0
1, 88680, Note_on_c, 0, 76, 49
1, 88799, Note_on_c, 0, 76, 0
1, 88800, Note_on_c, 0, 77, 49
1, 88919, Note_on_c, 0, 77, 0
1, 88920, Note_on_c, 0, 76, 49
1, 89039, Note_on_c, 0, 76, 0
1, 89040, Note_on_c, 0, 75, 49
1, 89159, Note_on_c, 0, 75, 0
1, 89160, Note_on_c, 0, 74, 49
1, 89279, Note_on_c, 0, 74, 0
1, 89280, Note_on_c, 0, 75, 49
1, 89399, Note_on_c, 0, 75, 0
1, 89400, Note_on_c, 0, 76, 49
1, 89519, Note_on_c, 0, 76, 0
1, 89520, Note_on_c, 0, 77, 49
1, 89639, Note_on_c, 0, 77, 0
1, 89640, Note_on_c, 0, 78, 49
1, 89759, Note_on_c, 0, 78, 0
1, 89760, Note_on_c, 0, 77, 49
1, 89879, Note_on_c, 0, 77, 0
1, 89880, Note_on_c, 0, 78, 49
1, 89999, Note_on_c, 0, 78, 0
1, 90000, Note_on_c, 0, 79, 49
1, 90119, Note_on_c, 0, 79, 0
1, 90120, Note_on_c, 0, 80, 49
1, 90233, Note_on_c, 0, 80, 0
1, 90240, Note_on_c, 0, 81, 49
1, 90359, Note_on_c, 0, 81, 0
1, 90360, Note_on_c, 0, 80, 49
1, 90479, Note_on_c, 0, 80, 0
1, 90480, Note_on_c, 0, 79, 49
1, 90599, Note_on_c, 0, 79, 0
1, 90600, Note_on_c, 0, 78, 49
1, 90719, Note_on_c, 0, 78, 0
1, 90720, Note_on_c, 0, 79, 49
1, 90839, Note_on_c, 0, 79, 0
1, 90840, Note_on_c, 0, 78, 49
1, 90959, Note_on_c, 0, 78, 0
1, 90960, Note_on_c, 0, 77, 49
1, 91079, Note_on_c, 0, 77, 0
1, 91080, Note_on_c, 0, 76, 49
1, 91199, Note_on_c, 0, 76, 0
1, 91200, Note_on_c, 0, 77, 49
1, 91319, Note_on_c, 0, 77, 0
1, 91320, Note_on_c, 0, 76, 49
1, 91439, Note_on_c, 0, 76, 0
1, 91440, Note_on_c, 0, 75, 49
1, 91559, Note_on_c, 0, 75, 0
1, 91560, Note_on_c, 0, 74, 49
1, 91679, Note_on_c, 0, 74, 0
1, 91680, Note_on_c, 0, 73, 49
1, 91799, Note_on_c, 0, 73, 0
1, 91800, Note_on_c, 0, 72, 49
1, 91919, Note_on_c, 0, 72, 0
1, 91920, Note_on_c, 0, 71, 49
1, 92039, Note_on_c, 0, 71, 0
1, 92040, Note_on_c, 0, 70, 49
1, 92153, Note_on_c, 0, 70, 0
1, 92160, Note_on_c, 0, 69, 49
1, 92279, Note_on_c, 0, 69, 0
1, 92280, Note_on_c, 0, 70, 49
1, 92399, Note_on_c, 0, 70, 0
1, 92400, Note_on_c, 0, 69, 49
1, 92519, Note_on_c, 0, 69, 0
1, 92520, Note_on_c, 0, 68, 49
1, 92639, Note_on_c, 0, 68, 0
1, 92640, Note_on_c, 0, 69, 49
1, 92759, Note_on_c, 0, 69, 0
1, 92760, Note_on_c, 0, 70, 49
1, 92879, Note_on_c, 0, 70, 0
1, 92880, Note_on_c, 0, 69, 49
1, 92999, Note_on_c, 0, 69, 0
1, 93000, Note_on_c, 0, 68, 49
1, 93119, Note_on_c, 0, 68, 0
1, 93120, Note_on_c, 0, 69, 49
1, 93239, Note_on_c, 0, 69, 0
1, 93240, Note_on_c, 0, 70, 49
1, 93359, Note_on_c, 0, 70, 0
1, 93360, Note_on_c, 0, 69, 49
1, 93479, Note_on_c, 0, 69, 0
1, 93480, Note_on_c, 0, 68, 49
1, 93599, Note_on_c, 0, 68, 0
1, 93600, Note_on_c, 0, 69, 49
1, 93719, Note_on_c, 0, 69, 0
1, 93720, Note_on_c, 0, 70, 49
1, 93839, Note_on_c, 0, 70, 0
1, 93840, Note_on_c, 0, 69, 49
1, 93959, Note_on_c, 0, 69, 0
1, 93960, Note_on_c, 0, 68, 49
1, 94073, Note_on_c, 0, 68, 0
1, 94080, Note_on_c, 0, 69, 49
1, 94199, Note_on_c, 0, 69, 0
1, 94200, Note_on_c, 0, 70, 49
1, 94319, Note_on_c, 0, 70, 0
1, 94320, Note_on_c, 0, 69, 49
1, 94439, Note_on_c, 0, 69, 0
1, 94440, Note_on_c, 0, 68, 49
1, 94559, Note_on_c, 0, 68, 0
1, 94560, Note_on_c, 0, 69, 49
1, 94679, Note_on_c, 0, 69, 0
1, 94680, Note_on_c, 0, 70, 49
1, 94799, Note_on_c, 0, 70, 0
1, 94800, Note_on_c, 0, 69, 49
1, 94919, Note_on_c, 0, 69, 0
1, 94920, Note_on_c, 0, 68, 49
1, 95039, Note_on_c, 0, 68, 0
1, 95040, Note_on_c, 0, 69, 49
1, 95159, Note_on_c, 0, 69, 0
1, 95160, Note_on_c, 0, 70, 49
1, 95279, Note_on_c, 0, 70, 0
1, 95280, Note_on_c, 0, 69, 49
1, 95399, Note_on_c, 0, 69, 0
1, 95400, Note_on_c, 0, 68, 49
1, 95519, Note_on_c, 0, 68, 0
1, 95520, Note_on_c, 0, 69, 49
1, 95639, Note_on_c, 0, 69, 0
1, 95640, Note_on_c, 0, 70, 49
1, 95759, Note_on_c, 0, 70, 0
1, 95760, Note_on_c, 0, 69, 49
1, 95879, Note_on_c, 0, 69, 0
1, 95880, Note_on_c, 0, 68, 49
1, 95993, Note_on_c, 0, 68, 0
1, 96000, Note_on_c, 0, 69, 49
1, 96119, Note_on_c, 0, 69, 0
1, 96120, Note_on_c, 0, 68, 49
1, 96239, Note_on_c, 0, 68, 0
1, 96240, Note_on_c, 0, 67, 49
1, 96359, Note_on_c, 0, 67, 0
1, 96360, Note_on_c, 0, 66, 49
1, 96479, Note_on_c, 0, 66, 0
1, 96480, Note_on_c, 0, 67, 49
1, 96599, Note_on_c, 0, 67, 0
1, 96600, Note_on_c, 0, 66, 49
1, 96719, Note_on_c, 0, 66, 0
1, 96720, Note_on_c, 0, 65, 49
1, 96839, Note_on_c, 0, 65, 0
1, 96840, Note_on_c, 0, 64, 49
1, 96959, Note_on_c, 0, 64, 0
1, 96960, Note_on_c, 0, 65, 49
1, 97079, Note_on_c, 0, 65, 0
1, 97080, Note_on_c, 0, 64, 49
1, 97199, Note_on_c, 0, 64, 0
1, 97200, Note_on_c, 0, 63, 49
1, 97319, Note_on_c, 0, 63, 0
1, 97320, Note_on_c, 0, 62, 49
1, 97439, Note_on_c, 0, 62, 0
1, 97440, Note_on_c, 0, 61, 49
1, 97559, Note_on_c, 0, 61, 0
1, 97560, Note_on_c, 0, 60, 49
1, 97679, Note_on_c, 0, 60, 0
1, 97680, Note_on_c, 0, 59, 49
1, 97799, Note_on_c, 0, 59, 0
1, 97800, Note_on_c, 0, 58, 49
1, 97913, Note_on_c, 0, 58, 0
1, 97920, Note_on_c, 0, 57, 49
1, 98039, Note_on_c, 0, 57, 0
1, 98040, Note_on_c, 0, 58, 49
1, 98159, Note_on_c, 0, 58, 0
1, 98160, Note_on_c, 0, 57, 49
1, 98279, Note_on_c, 0, 57, 0
1, 98280, Note_on_c, 0, 56, 49
1, 98399, Note_on_c, 0, 56, 0
1, 98400, Note_on_c, 0, 57, 49
1, 98519, Note_on_c, 0, 57, 0
1, 98520, Note_on_c, 0, 58, 49
1, 98639, Note_on_c, 0, 58, 0
1, 98640, Note_on_c, 0, 57, 49
1, 98759, Note_on_c, 0, 57, 0
1, 98760, Note_on_c, 0, 56, 49
1, 98879, Note_on_c, 0, 56, 0
1, 98880, Note_on_c, 0, 57, 49
1, 98999, Note_on_c, 0, 57, 0
1, 99000, Note_on_c, 0, 58, 49
1, 99119, Note_on_c, 0, 58, 0
1, 99120, Note_on_c, 0, 57, 49
1, 99239, Note_on_c, 0, 57, 0
1, 99240, Note_on_c, 0, 56, 49
1, 99359, Note_on_c, 0, 56, 0
1, 99360, Note_on_c, 0, 57, 49
1, 99479, Note_on_c, 0, 57, 0
1, 99480, Note_on_c, 0, 58, 49
1, 99599, Note_on_c, 0, 58, 0
1, 99600, Note_on_c, 0, 57, 49
1, 99719, Note_on_c, 0, 57, 0
1, 99720, Note_on_c, 0, 56, 49
1, 99833, Note_on_c, 0, 56, 0
1, 99840, Note_on_c, 0, 57, 49
1, 99959, Note_on_c, 0, 57, 0
1, 99960, Note_on_c, 0, 58, 49
1, 100079, Note_on_c, 0, 58, 0
1, 100080, Note_on_c, 0, 57, 49
1, 100199, Note_on_c, 0, 57, 0
1, 100200, Note_on_c, 0, 56, 49
1, 100319, Note_on_c, 0, 56, 0
1, 100320, Note_on_c, 0, 57, 49
1, 100439, Note_on_c, 0, 57, 0
1, 100440, Note_on_c, 0, 58, 49
1, 100559, Note_on_c, 0, 58, 0
1, 100560, Note_on_c, 0, 57, 49
1, 100679, Note_on_c, 0, 57, 0
1, 100680, Note_on_c, 0, 56, 49
1, 100799, Note_on_c, 0, 56, 0
1, 100800, Note_on_c, 0, 57, 49
1, 100919, Note_on_c, 0, 57, 0
1, 100920, Note_on_c, 0, 58, 49
1, 101039, Note_on_c, 0, 58, 0
1, 101040, Note_on_c, 0, 57, 49
1, 101159, Note_on_c, 0, 57, 0
1, 101160, Note_on_c, 0, 56, 49
1, 101279, Note_on_c, 0, 56, 0
1, 101280, Note_on_c, 0, 57, 49
1, 101399, Note_on_c, 0, 57, 0
1, 101400, Note_on_c, 0, 58, 49
1, 101519, Note_on_c, 0, 58, 0
1, 101520, Note_on_c, 0, 57, 49
1, 101639, Note_on_c, 0, 57, 0
1, 101640, Note_on_c, 0, 56, 49
1, 101753, Note_on_c, 0, 56, 0
1, 101760, Note_on_c, 0, 57, 49
1, 101879, Note_on_c, 0, 57, 0
1, 101880, Note_on_c, 0, 58, 52
1, 101999, Note_on_c, 0, 58, 0
1, 102000, Note_on_c, 0, 59, 56
1, 102119, Note_on_c, 0, 59, 0
1, 102120, Note_on_c, 0, 60, 60
1, 102239, Note_on_c, 0, 60, 0
1, 102240, Note_on_c, 0, 61, 64
1, 102359, Note_on_c, 0, 61, 0
1, 102360, Note_on_c, 0, 62, 68
1, 102479, Note_on_c, 0, 62, 0
1, 102480, Note_on_c, 0, 63, 72
1, 102599, Note_on_c, 0, 63, 0
1, 102600, Note_on_c, 0, 64, 76
1, 102719, Note_on_c, 0, 64, 0
1, 102720, Note_on_c, 0, 65, 80
1, 102839, Note_on_c, 0, 65, 0
1, 102840, Note_on_c, 0, 66, 80
1, 102959, Note_on_c, 0, 66, 0
1, 102960, Note_on_c, 0, 67, 80
1, 103079, Note_on_c, 0, 67, 0
1, 103080, Note_on_c, 0, 68, 80
1, 103199, Note_on_c, 0, 68, 0
1, 103200, Note_on_c, 0, 69, 80
1, 103319, Note_on_c, 0, 69, 0
1, 103320, Note_on_c, 0, 70, 80
1, 103439, Note_on_c, 0, 70, 0
1, 103440, Note_on_c, 0, 71, 80
1, 103559, Note_on_c, 0, 71, 0
1, 103560, Note_on_c, 0, 72, 80
1, 103673, Note_on_c, 0, 72, 0
1, 103680, Note_on_c, 0, 73, 80
1, 103799, Note_on_c, 0, 73, 0
1, 103800, Note_on_c, 0, 74, 80
1, 103919, Note_on_c, 0, 74, 0
1, 103920, Note_on_c, 0, 75, 80
1, 104039, Note_on_c, 0, 75, 0
1, 104040, Note_on_c, 0, 76, 80
1, 104159, Note_on_c, 0, 76, 0
1, 104160, Note_on_c, 0, 77, 80
1, 104279, Note_on_c, 0, 77, 0
1, 104280, Note_on_c, 0, 78, 80
1, 104399, Note_on_c, 0, 78, 0
1, 104400, Note_on_c, 0, 79, 80
1, 104519, Note_on_c, 0, 79, 0
1, 104520, Note_on_c, 0, 80, 80
1, 104639, Note_on_c, 0, 80, 0
1, 104640, Note_on_c, 0, 81, 80
1, 104759, Note_on_c, 0, 81, 0
1, 104760, Note_on_c, 0, 82, 80
1, 104879, Note_on_c, 0, 82, 0
1, 104880, Note_on_c, 0, 81, 80
1, 104999, Note_on_c, 0, 81, 0
1, 105000, Note_on_c, 0, 80, 80
1, 105119, Note_on_c, 0, 80, 0
1, 105120, Note_on_c, 0, 81, 80
1, 105239, Note_on_c, 0, 81, 0
1, 105240, Note_on_c, 0, 82, 80
1, 105359, Note_on_c, 0, 82, 0
1, 105360, Note_on_c, 0, 81, 80
1, 105479, Note_on_c, 0, 81, 0
1, 105480, Note_on_c, 0, 80, 80
1, 105593, Note_on_c, 0, 80, 0
1, 105600, Note_on_c, 0, 74, 80
1, 105600, Note_on_c, 0, 77, 80
1, 105600, Note_on_c, 0, 81, 80
1, 105719, Note_on_c, 0, 74, 0
1, 105719, Note_on_c, 0, 77, 0
1, 105719, Note_on_c, 0, 81, 0
1, 105720, Note_on_c, 0, 80, 80
1, 105839, Note_on_c, 0, 80, 0
1, 105840, Note_on_c, 0, 79, 80
1, 105959, Note_on_c, 0, 79, 0
1, 105960, Note_on_c, 0, 78, 80
1, 106079, Note_on_c, 0, 78, 0
1, 106080, Note_on_c, 0, 77, 80
1, 106199, Note_on_c, 0, 77, 0
1, 106200, Note_on_c, 0, 82, 80
1, 106319, Note_on_c, 0, 82, 0
1, 106320, Note_on_c, 0, 81, 80
1, 106439, Note_on_c, 0, 81, 0
1, 106440, Note_on_c, 0, 80, 80
1, 106559, Note_on_c, 0, 80, 0
1, 106560, Note_on_c, 0, 81, 80
1, 106679, Note_on_c, 0, 81, 0
1, 106680, Note_on_c, 0, 80, 80
1, 106799, Note_on_c, 0, 80, 0
1, 106800, Note_on_c, 0, 79, 80
1, 106919, Note_on_c, 0, 79, 0
1, 106920, Note_on_c, 0, 78, 80
1, 107039, Note_on_c, 0, 78, 0
1, 107040, Note_on_c, 0, 77, 80
1, 107159, Note_on_c, 0, 77, 0
1, 107160, Note_on_c, 0, 78, 80
1, 107279, Note_on_c, 0, 78, 0
1, 107280, Note_on_c, 0, 79, 80
1, 107399, Note_on_c, 0, 79, 0
1, 107400, Note_on_c, 0, 80, 80
1, 107513, Note_on_c, 0, 80, 0
1, 107520, Note_on_c, 0, 74, 80
1, 107520, Note_on_c, 0, 77, 80
1, 107520, Note_on_c, 0, 81, 80
1, 107639, Note_on_c, 0, 74, 0
1, 107639, Note_on_c, 0, 77, 0
1, 107639, Note_on_c, 0, 81, 0
1, 107640, Note_on_c, 0, 80, 80
1, 107759, Note_on_c, 0, 80, 0
1, 107760, Note_on_c, 0, 79, 80
1, 107879, Note_on_c, 0, 79, 0
1, 107880, Note_on_c, 0, 78, 80
1, 107999, Note_on_c, 0, 78, 0
1, 108000, Note_on_c, 0, 77, 80
1, 108119, Note_on_c, 0, 77, 0
1, 108120, Note_on_c, 0, 82, 80
1, 108239, Note_on_c, 0, 82, 0
1, 108240, Note_on_c, 0, 81, 80
1, 108359, Note_on_c, 0, 81, 0
1, 108360, Note_on_c, 0, 80, 80
1, 108479, Note_on_c, 0, 80, 0
1, 108480, Note_on_c, 0, 81, 80
1, 108599, Note_on_c, 0, 81, 0
1, 108600, Note_on_c, 0, 80, 80
1, 108719, Note_on_c, 0, 80, 0
1, 108720, Note_on_c, 0, 79, 80
1, 108839, Note_on_c, 0, 79, 0
1, 108840, Note_on_c, 0, 78, 80
1, 108959, Note_on_c, 0, 78, 0
1, 108960, Note_on_c, 0, 77, 80
1, 109079, Note_on_c, 0, 77, 0
1, 109080, Note_on_c, 0, 78, 80
1, 109199, Note_on_c, 0, 78, 0
1, 109200, Note_on_c, 0, 79, 80
1, 109319, Note_on_c, 0, 79, 0
1, 109320, Note_on_c, 0, 80, 80
1, 109433, Note_on_c, 0, 80, 0
1, 109440, Note_on_c, 0, 81, 80
1, 109559, Note_on_c, 0, 81, 0
1, 109560, Note_on_c, 0, 80, 80
1, 109679, Note_on_c, 0, 80, 0
1, 109680, Note_on_c, 0, 79, 80
1, 109799, Note_on_c, 0, 79, 0
1, 109800, Note_on_c, 0, 78, 80
1, 109919, Note_on_c, 0, 78, 0
1, 109920, Note_on_c, 0, 79, 80
1, 110039, Note_on_c, 0, 79, 0
1, 110040, Note_on_c, 0, 78, 80
1, 110159, Note_on_c, 0, 78, 0
1, 110160, Note_on_c, 0, 77, 80
1, 110279, Note_on_c, 0, 77, 0
1, 110280, Note_on_c, 0, 76, 80
1, 110399, Note_on_c, 0, 76, 0
1, 110400, Note_on_c, 0, 77, 80
1, 110519, Note_on_c, 0, 77, 0
1, 110520, Note_on_c, 0, 78, 80
1, 110639, Note_on_c, 0, 78, 0
1, 110640, Note_on_c, 0, 79, 80
1, 110759, Note_on_c, 0, 79, 0
1, 110760, Note_on_c, 0, 80, 80
1, 110879, Note_on_c, 0, 80, 0
1, 110880, Note_on_c, 0, 81, 80
1, 110999, Note_on_c, 0, 81, 0
1, 111000, Note_on_c, 0, 82, 80
1, 111119, Note_on_c, 0, 82, 0
1, 111120, Note_on_c, 0, 81, 80
1, 111239, Note_on_c, 0, 81, 0
1, 111240, Note_on_c, 0, 80, 80
1, 111353, Note_on_c, 0, 80, 0
1, 111360, Note_on_c, 0, 81, 80
1, 111479, Note_on_c, 0, 81, 0
1, 111480, Note_on_c, 0, 80, 80
1, 111599, Note_on_c, 0, 80, 0
1, 111600, Note_on_c, 0, 79, 80
1, 111719, Note_on_c, 0, 79, 0
1, 111720, Note_on_c, 0, 78, 80
1, 111839, Note_on_c, 0, 78, 0
1, 111840, Note_on_c, 0, 79, 80
1, 111959, Note_on_c, 0, 79, 0
1, 111960, Note_on_c, 0, 78, 80
1, 112079, Note_on_c, 0, 78, 0
1, 112080, Note_on_c, 0, 77, 80
1, 112199, Note_on_c, 0, 77, 0
1, 112200, Note_on_c, 0, 76, 80
1, 112319, Note_on_c, 0, 76, 0
1, 112320, Note_on_c, 0, 77, 80
1, 112439, Note_on_c, 0, 77, 0
1, 112440, Note_on_c, 0, 78, 80
1, 112559, Note_on_c, 0, 78, 0
1, 112560, Note_on_c, 0, 79, 80
1, 112679, Note_on_c, 0, 79, 0
1, 112680, Note_on_c, 0, 80, 80
1, 112799, Note_on_c, 0, 80, 0
1, 112800, Note_on_c, 0, 81, 80
1, 112919, Note_on_c, 0, 81, 0
1, 112920, Note_on_c, 0, 83, 80
1, 113039, Note_on_c, 0, 83, 0
1, 113040, Note_on_c, 0, 84, 80
1, 113159, Note_on_c, 0, 84, 0
1, 113160, Note_on_c, 0, 85, 80
1, 113273, Note_on_c, 0, 85, 0
1, 113280, Note_on_c, 0, 86, 80
1, 113399, Note_on_c, 0, 86, 0
1, 113400, Note_on_c, 0, 85, 80
1, 113519, Note_on_c, 0, 85, 0
1, 113520, Note_on_c, 0, 84, 80
1, 113639, Note_on_c, 0, 84, 0
1, 113640, Note_on_c, 0, 83, 80
1, 113759, Note_on_c, 0, 83, 0
1, 113760, Note_on_c, 0, 82, 80
1, 113879, Note_on_c, 0, 82, 0
1, 113880, Note_on_c, 0, 87, 80
1, 113999, Note_on_c, 0, 87, 0
1, 114000, Note_on_c, 0, 86, 80
1, 114119, Note_on_c, 0, 86, 0
1, 114120, Note_on_c, 0, 85, 80
1, 114239, Note_on_c, 0, 85, 0
1, 114240, Note_on_c, 0, 86, 80
1, 114359, Note_on_c, 0, 86, 0
1, 114360, Note_on_c, 0, 85, 80
1, 114479, Note_on_c, 0, 85, 0
1, 114480, Note_on_c, 0, 84, 80
1, 114599, Note_on_c, 0, 84, 0
1, 114600, Note_on_c, 0, 83, 80
1, 114719, Note_on_c, 0, 83, 0
1, 114720, Note_on_c, 0, 82, 80
1, 114839, Note_on_c, 0, 82, 0
1, 114840, Note_on_c, 0, 83, 80
1, 114959, Note_on_c, 0, 83, 0
1, 114960, Note_on_c, 0, 84, 80
1, 115079, Note_on_c, 0, 84, 0
1, 115080, Note_on_c, 0, 85, 80
1, 115193, Note_on_c, 0, 85, 0
1, 115200, Note_on_c, 0, 86, 80
1, 115319, Note_on_c, 0, 86, 0
1, 115320, Note_on_c, 0, 85, 80
1, 115439, Note_on_c, 0, 85, 0
1, 115440, Note_on_c, 0, 84, 80
1, 115559, Note_on_c, 0, 84, 0
1, 115560, Note_on_c, 0, 83, 80
1, 115679, Note_on_c, 0, 83, 0
1, 115680, Note_on_c, 0, 82, 80
1, 115799, Note_on_c, 0, 82, 0
1, 115800, Note_on_c, 0, 87, 80
1, 115919, Note_on_c, 0, 87, 0
1, 115920, Note_on_c, 0, 86, 80
1, 116039, Note_on_c, 0, 86, 0
1, 116040, Note_on_c, 0, 85, 80
1, 116159, Note_on_c, 0, 85, 0
1, 116160, Note_on_c, 0, 86, 80
1, 116279, Note_on_c, 0, 86, 0
1, 116280, Note_on_c, 0, 85, 80
1, 116399, Note_on_c, 0, 85, 0
1, 116400, Note_on_c, 0, 84, 80
1, 116519, Note_on_c, 0, 84, 0
1, 116520, Note_on_c, 0, 83, 80
1, 116639, Note_on_c, 0, 83, 0
1, 116640, Note_on_c, 0, 82, 80
1, 116759, Note_on_c, 0, 82, 0
1, 116760, Note_on_c, 0, 83, 80
1, 116879, Note_on_c, 0, 83, 0
1, 116880, Note_on_c, 0, 84, 80
1, 116999, Note_on_c, 0, 84, 0
1, 117000, Note_on_c, 0, 85, 80
1, 117113, Note_on_c, 0, 85, 0
1, 117120, Note_on_c, 0, 86, 80
1, 117239, Note_on_c, 0, 86, 0
1, 117240, Note_on_c, 0, 85, 80
1, 117359, Note_on_c, 0, 85, 0
1, 117360, Note_on_c, 0, 84, 80
1, 117479, Note_on_c, 0, 84, 0
1, 117480, Note_on_c, 0, 83, 80
1, 117599, Note_on_c, 0, 83, 0
1, 117600, Note_on_c, 0, 84, 80
1, 117719, Note_on_c, 0, 84, 0
1, 117720, Note_on_c, 0, 83, 80
1, 117839, Note_on_c, 0, 83, 0
1, 117840, Note_on_c, 0, 82, 80
1, 117959, Note_on_c, 0, 82, 0
1, 117960, Note_on_c, 0, 81, 80
1, 118079, Note_on_c, 0, 81, 0
1, 118080, Note_on_c, 0, 82, 80
1, 118199, Note_on_c, 0, 82, 0
1, 118200, Note_on_c, 0, 83, 80
1, 118319, Note_on_c, 0, 83, 0
1, 118320, Note_on_c, 0, 84, 80
1, 118439, Note_on_c, 0, 84, 0
1, 118440, Note_on_c, 0, 85, 80
1, 118559, Note_on_c, 0, 85, 0
1, 118560, Note_on_c, 0, 86, 80
1, 118679, Note_on_c, 0, 86, 0
1, 118680, Note_on_c, 0, 87, 80
1, 118799, Note_on_c, 0, 87, 0
1, 118800, Note_on_c, 0, 86, 80
1, 118919, Note_on_c, 0, 86, 0
1, 118920, Note_on_c, 0, 85, 80
1, 119033, Note_on_c, 0, 85, 0
1, 119040, Note_on_c, 0, 86, 80
1, 119159, Note_on_c, 0, 86, 0
1, 119160, Note_on_c, 0, 85, 80
1, 119279, Note_on_c, 0, 85, 0
1, 119280, Note_on_c, 0, 84, 80
1, 119399, Note_on_c, 0, 84, 0
1, 119400, Note_on_c, 0, 83, 80
1, 119519, Note_on_c, 0, 83, 0
1, 119520, Note_on_c, 0, 82, 80
1, 119639, Note_on_c, 0, 82, 0
1, 119640, Note_on_c, 0, 83, 80
1, 119759, Note_on_c, 0, 83, 0
1, 119760, Note_on_c, 0, 84, 80
1, 119879, Note_on_c, 0, 84, 0
1, 119880, Note_on_c, 0, 85, 80
1, 119999, Note_on_c, 0, 85, 0
1, 120000, Note_on_c, 0, 86, 80
1, 120119, Note_on_c, 0, 86, 0
1, 120120, Note_on_c, 0, 88, 82
1, 120239, Note_on_c, 0, 88, 0
1, 120240, Note_on_c, 0, 89, 84
1, 120359, Note_on_c, 0, 89, 0
1, 120360, Note_on_c, 0, 91, 86
1, 120479, Note_on_c, 0, 91, 0
1, 120480, Note_on_c, 0, 93, 88
1, 120599, Note_on_c, 0, 93, 0
1, 120600, Note_on_c, 0, 94, 90
1, 120719, Note_on_c, 0, 94, 0
1, 120720, Note_on_c, 0, 93, 92
1, 120839, Note_on_c, 0, 93, 0
1, 120840, Note_on_c, 0, 92, 94
1, 120953, Note_on_c, 0, 92, 0
1, 120960, Note_on_c, 0, 93, 96
1, 121079, Note_on_c, 0, 93, 0
1, 121080, Note_on_c, 0, 92, 96
1, 121199, Note_on_c, 0, 92, 0
1, 121200, Note_on_c, 0, 91, 96
1, 121319, Note_on_c, 0, 91, 0
1, 121320, Note_on_c, 0, 90, 96
1, 121439, Note_on_c, 0, 90, 0
1, 121440, Note_on_c, 0, 89, 96
1, 121559, Note_on_c, 0, 89, 0
1, 121560, Note_on_c, 0, 94, 96
1, 121679, Note_on_c, 0, 94, 0
1, 121680, Note_on_c, 0, 93, 96
1, 121799, Note_on_c, 0, 93, 0
1, 121800, Note_on_c, 0, 92, 96
1, 121919, Note_on_c, 0, 92, 0
1, 121920, Note_on_c, 0, 93, 96
1, 122039, Note_on_c, 0, 93, 0
1, 122040, Note_on_c, 0, 92, 96
1, 122159, Note_on_c, 0, 92, 0
1, 122160, Note_on_c, 0, 91, 96
1, 122279, Note_on_c, 0, 91, 0
1, 122280, Note_on_c, 0, 90, 96
1, 122399, Note_on_c, 0, 90, 0
1, 122400, Note_on_c, 0, 89, 96
1, 122519, Note_on_c, 0, 89, 0
1, 122520, Note_on_c, 0, 90, 96
1, 122639, Note_on_c, 0, 90, 0
1, 122640, Note_on_c, 0, 91, 96
1, 122759, Note_on_c, 0, 91, 0
1, 122760, Note_on_c, 0, 92, 96
1, 122873, Note_on_c, 0, 92, 0
1, 122880, Note_on_c, 0, 93, 96
1, 122999, Note_on_c, 0, 93, 0
1, 123000, Note_on_c, 0, 92, 96
1, 123119, Note_on_c, 0, 92, 0
1, 123120, Note_on_c, 0, 91, 96
1, 123239, Note_on_c, 0, 91, 0
1, 123240, Note_on_c, 0, 90, 96
1, 123359, Note_on_c, 0, 90, 0
1, 123360, Note_on_c, 0, 89, 96
1, 123479, Note_on_c, 0, 89, 0
1, 123480, Note_on_c, 0, 94, 96
1, 123599, Note_on_c, 0, 94, 0
1, 123600, Note_on_c, 0, 93, 96
1, 123719, Note_on_c, 0, 93, 0
1, 123720, Note_on_c, 0, 92, 96
1, 123839, Note_on_c, 0, 92, 0
1, 123840, Note_on_c, 0, 93, 96
1, 123959, Note_on_c, 0, 93, 0
1, 123960, Note_on_c, 0, 92, 96
1, 124079, Note_on_c, 0, 92, 0
1, 124080, Note_on_c, 0, 91, 96
1, 124199, Note_on_c, 0, 91, 0
1, 124200, Note_on_c, 0, 90, 96
1, 124319, Note_on_c, 0, 90, 0
1, 124320, Note_on_c, 0, 89, 96
1, 124439, Note_on_c, 0, 89, 0
1, 124440, Note_on_c, 0, 90, 96
1, 124559, Note_on_c, 0, 90, 0
1, 124560, Note_on_c, 0, 91, 96
1, 124679, Note_on_c, 0, 91, 0
1, 124680, Note_on_c, 0, 92, 96
1, 124799, Note_on_c, 0, 92, 0
1, 124800, Note_on_c, 0, 93, 96
1, 125027, Note_on_c, 0, 93, 0
1, 125040, Note_on_c, 0, 85, 80
1, 125159, Note_on_c, 0, 85, 0
1, 125160, Note_on_c, 0, 86, 80
1, 125279, Note_on_c, 0, 86, 0
1, 125280, Note_on_c, 0, 87, 80
1, 125399, Note_on_c, 0, 87, 0
1, 125400, Note_on_c, 0, 88, 80
1, 125519, Note_on_c, 0, 88, 0
1, 125520, Note_on_c, 0, 89, 80
1, 125639, Note_on_c, 0, 89, 0
1, 125640, Note_on_c, 0, 90, 80
1, 125759, Note_on_c, 0, 90, 0
1, 125760, Note_on_c, 0, 91, 80
1, 125879, Note_on_c, 0, 91, 0
1, 125880, Note_on_c, 0, 90, 80
1, 125999, Note_on_c, 0, 90, 0
1, 126000, Note_on_c, 0, 89, 80
1, 126119, Note_on_c, 0, 89, 0
1, 126120, Note_on_c, 0, 88, 80
1, 126239, Note_on_c, 0, 88, 0
1, 126240, Note_on_c, 0, 89, 80
1, 126359, Note_on_c, 0, 89, 0
1, 126360, Note_on_c, 0, 88, 80
1, 126479, Note_on_c, 0, 88, 0
1, 126480, Note_on_c, 0, 87, 80
1, 126599, Note_on_c, 0, 87, 0
1, 126600, Note_on_c, 0, 86, 80
1, 126713, Note_on_c, 0, 86, 0
1, 126720, Note_on_c, 0, 85, 80
1, 126839, Note_on_c, 0, 85, 0
1, 126840, Note_on_c, 0, 86, 80
1, 126959, Note_on_c, 0, 86, 0
1, 126960, Note_on_c, 0, 87, 80
1, 127079, Note_on_c, 0, 87, 0
1, 127080, Note_on_c, 0, 88, 80
1, 127199, Note_on_c, 0, 88, 0
1, 127200, Note_on_c, 0, 89, 80
1, 127319, Note_on_c, 0, 89, 0
1, 127320, Note_on_c, 0, 90, 80
1, 127439, Note_on_c, 0, 90, 0
1, 127440, Note_on_c, 0, 91, 80
1, 127559, Note_on_c, 0, 91, 0
1, 127560, Note_on_c, 0, 92, 80
1, 127679, Note_on_c, 0, 92, 0
1, 127680, Note_on_c, 0, 93, 80
1, 127799, Note_on_c, 0, 93, 0
1, 127800, Note_on_c, 0, 94, 80
1, 127919, Note_on_c, 0, 94, 0
1, 127920, Note_on_c, 0, 93, 80
1, 128039, Note_on_c, 0, 93, 0
1, 128040, Note_on_c, 0, 92, 80
1, 128159, Note_on_c, 0, 92, 0
1, 128160, Note_on_c, 0, 93, 80
1, 128279, Note_on_c, 0, 93, 0
1, 128280, Note_on_c, 0, 94, 80
1, 128399, Note_on_c, 0, 94, 0
1, 128400, Note_on_c, 0, 93, 80
1, 128519, Note_on_c, 0, 93, 0
1, 128520, Note_on_c, 0, 92, 80
1, 128633, Note_on_c, 0, 92, 0
1, 128640, Note_on_c, 0, 105, 80
1, 128759, Note_on_c, 0, 105, 0
1, 128880, Note_on_c, 0, 73, 80
1, 128999, Note_on_c, 0, 73, 0
1, 129000, Note_on_c, 0, 74, 80
1, 129119, Note_on_c, 0, 74, 0
1, 129120, Note_on_c, 0, 75, 80
1, 129239, Note_on_c, 0, 75, 0
1, 129240, Note_on_c, 0, 76, 80
1, 129359, Note_on_c, 0, 76, 0
1, 129360, Note_on_c, 0, 77, 80
1, 129479, Note_on_c, 0, 77, 0
1, 129480, Note_on_c, 0, 78, 80
1, 129599, Note_on_c, 0, 78, 0
1, 129600, Note_on_c, 0, 79, 80
1, 129719, Note_on_c, 0, 79, 0
1, 129720, Note_on_c, 0, 78, 80
1, 129839, Note_on_c, 0, 78, 0
1, 129840, Note_on_c, 0, 77, 80
1, 129959, Note_on_c, 0, 77, 0
1, 129960, Note_on_c, 0, 76, 80
1, 130079, Note_on_c, 0, 76, 0
1, 130080, Note_on_c, 0, 77, 80
1, 130199, Note_on_c, 0, 77, 0
1, 130200, Note_on_c, 0, 76, 80
1, 130319, Note_on_c, 0, 76, 0
1, 130320, Note_on_c, 0, 75, 80
1, 130439, Note_on_c, 0, 75, 0
1, 130440, Note_on_c, 0, 74, 80
1, 130553, Note_on_c, 0, 74, 0
1, 130560, Note_on_c, 0, 73, 80
1, 130679, Note_on_c, 0, 73, 0
1, 130680, Note_on_c, 0, 74, 80
1, 130799, Note_on_c, 0, 74, 0
1, 130800, Note_on_c, 0, 75, 80
1, 130919, Note_on_c, 0, 75, 0
1, 130920, Note_on_c, 0, 76, 80
1, 131039, Note_on_c, 0, 76, 0
1, 131040, Note_on_c, 0, 77, 80
1, 131159, Note_on_c, 0, 77, 0
1, 131160, Note_on_c, 0, 78, 80
1, 131279, Note_on_c, 0, 78, 0
1, 131280, Note_on_c, 0, 79, 80
1, 131399, Note_on_c, 0, 79, 0
1, 131400, Note_on_c, 0, 80, 80
1, 131519, Note_on_c, 0, 80, 0
1, 131520, Note_on_c, 0, 81, 80
1, 131639, Note_on_c, 0, 81, 0
1, 131640, Note_on_c, 0, 82, 80
1, 131759, Note_on_c, 0, 82, 0
1, 131760, Note_on_c, 0, 81, 80
1, 131879, Note_on_c, 0, 81, 0
1, 131880, Note_on_c, 0, 80, 80
1, 131999, Note_on_c, 0, 80, 0
1, 132000, Note_on_c, 0, 81, 80
1, 132119, Note_on_c, 0, 81, 0
1, 132120, Note_on_c, 0, 83, 80
1, 132239, Note_on_c, 0, 83, 0
1, 132240, Note_on_c, 0, 84, 80
1, 132359, Note_on_c, 0, 84, 0
1, 132360, Note_on_c, 0, 85, 80
1, 132473, Note_on_c, 0, 85, 0
1, 132480, Note_on_c, 0, 86, 96
1, 132599, Note_on_c, 0, 86, 0
1, 132600, Note_on_c, 0, 85, 96
1, 132719, Note_on_c, 0, 85, 0
1, 132720, Note_on_c, 0, 84, 96
1, 132839, Note_on_c, 0, 84, 0
1, 132840, Note_on_c, 0, 83, 96
1, 132959, Note_on_c, 0, 83, 0
1, 132960, Note_on_c, 0, 84, 96
1, 133079, Note_on_c, 0, 84, 0
1, 133080, Note_on_c, 0, 83, 96
1, 133199, Note_on_c, 0, 83, 0
1, 133200, Note_on_c, 0, 82, 96
1, 133319, Note_on_c, 0, 82, 0
1, 133320, Note_on_c, 0, 81, 88
1, 133439, Note_on_c, 0, 81, 0
1, 133440, Note_on_c, 0, 82, 80
1, 133559, Note_on_c, 0, 82, 0
1, 133560, Note_on_c, 0, 81, 80
1, 133679, Note_on_c, 0, 81, 0
1, 133680, Note_on_c, 0, 80, 80
1, 133799, Note_on_c, 0, 80, 0
1, 133800, Note_on_c, 0, 79, 80
1, 133913, Note_on_c, 0, 79, 0
1, 133920, Note_on_c, 0, 78, 80
1, 134039, Note_on_c, 0, 78, 0
1, 134040, Note_on_c, 0, 77, 80
1, 134159, Note_on_c, 0, 77, 0
1, 134160, Note_on_c, 0, 76, 80
1, 134279, Note_on_c, 0, 76, 0
1, 134280, Note_on_c, 0, 75, 80
1, 134399, Note_on_c, 0, 75, 0
1, 134400, Note_on_c, 0, 74, 80
1, 134519, Note_on_c, 0, 74, 0
1, 134520, Note_on_c, 0, 73, 80
1, 134639, Note_on_c, 0, 73, 0
1, 134640, Note_on_c, 0, 72, 80
1, 134759, Note_on_c, 0, 72, 0
1, 134760, Note_on_c, 0, 71, 80
1, 134879, Note_on_c, 0, 71, 0
1, 134880, Note_on_c, 0, 72, 80
1, 134999, Note_on_c, 0, 72, 0
1, 135000, Note_on_c, 0, 71, 80
1, 135119, Note_on_c, 0, 71, 0
1, 135120, Note_on_c, 0, 70, 80
1, 135239, Note_on_c, 0, 70, 0
1, 135240, Note_on_c, 0, 69, 57
1, 135353, Note_on_c, 0, 69, 0
1, 135360, Note_on_c, 0, 70, 33
1, 135473, Note_on_c, 0, 70, 0
1, 135480, Note_on_c, 0, 69, 33
1, 135593, Note_on_c, 0, 69, 0
1, 135600, Note_on_c, 0, 68, 33
1, 135713, Note_on_c, 0, 68, 0
1, 135720, Note_on_c, 0, 67, 33
1, 135833, Note_on_c, 0, 67, 0
1, 135840, Note_on_c, 0, 66, 33
1, 135953, Note_on_c, 0, 66, 0
1, 135960, Note_on_c, 0, 65, 33
1, 136073, Note_on_c, 0, 65, 0
1, 136080, Note_on_c, 0, 64, 33
1, 136193, Note_on_c, 0, 64, 0
1, 136200, Note_on_c, 0, 63, 33
1, 136313, Note_on_c, 0, 63, 0
1, 136320, Note_on_c, 0, 62, 33
1, 136433, Note_on_c, 0, 62, 0
1, 136440, Note_on_c, 0, 63, 33
1, 136553, Note_on_c, 0, 63, 0
1, 136560, Note_on_c, 0, 62, 33
1, 136673, Note_on_c, 0, 62, 0
1, 136680, Note_on_c, 0, 61, 33
1, 136793, Note_on_c, 0, 61, 0
1, 138240, Note_on_c, 0, 69, 33
1, 138359, Note_on_c, 0, 69, 0
1, 138360, Note_on_c, 0, 70, 33
1, 138479, Note_on_c, 0, 70, 0
1, 138480, Note_on_c, 0, 69, 33
1, 138599, Note_on_c, 0, 69, 0
1, 138600, Note_on_c, 0, 68, 33
1, 138713, Note_on_c, 0, 68, 0
1, 139200, Note_on_c, 0, 81, 33
1, 139313, Note_on_c, 0, 81, 0
1, 140160, Note_on_c, 0, 74, 33
1, 140160, Note_on_c, 0, 86, 33
1, 140387, Note_on_c, 0, 74, 0
1, 140387, Note_on_c, 0, 86, 0
1, 140640, Note_on_c, 0, 57, 33
1, 140759, Note_on_c, 0, 57, 0
1, 140760, Note_on_c, 0, 58, 33
1, 140879, Note_on_c, 0, 58, 0
1, 140880, Note_on_c, 0, 59, 33
1, 140999, Note_on_c, 0, 59, 0
1, 141000, Note_on_c, 0, 60, 33
1, 141119, Note_on_c, 0, 60, 0
1, 141120, Note_on_c, 0, 61, 33
1, 141239, Note_on_c, 0, 61, 0
1, 141240, Note_on_c, 0, 62, 33
1, 141359, Note_on_c, 0, 62, 0
1, 141360, Note_on_c, 0, 63, 33
1, 141479, Note_on_c, 0, 63, 0
1, 141480, Note_on_c, 0, 64, 33
1, 141599, Note_on_c, 0, 64, 0
1, 141600, Note_on_c, 0, 65, 33
1, 141719, Note_on_c, 0, 65, 0
1, 141720, Note_on_c, 0, 66, 33
1, 141839, Note_on_c, 0, 66, 0
1, 141840, Note_on_c, 0, 67, 33
1, 141959, Note_on_c, 0, 67, 0
1, 141960, Note_on_c, 0, 68, 33
1, 142073, Note_on_c, 0, 68, 0
1, 142080, Note_on_c, 0, 69, 33
1, 142199, Note_on_c, 0, 69, 0
1, 142200, Note_on_c, 0, 70, 33
1, 142319, Note_on_c, 0, 70, 0
1, 142320, Note_on_c, 0, 71, 33
1, 142439, Note_on_c, 0, 71, 0
1, 142440, Note_on_c, 0, 72, 33
1, 142559, Note_on_c, 0, 72, 0
1, 142560, Note_on_c, 0, 73, 33
1, 142679, Note_on_c, 0, 73, 0
1, 142680, Note_on_c, 0, 74, 33
1, 142799, Note_on_c, 0, 74, 0
1, 142800, Note_on_c, 0, 75, 33
1, 142919, Note_on_c, 0, 75, 0
1, 142920, Note_on_c, 0, 76, 33
1, 143039, Note_on_c, 0, 76, 0
1, 143040, Note_on_c, 0, 77, 33
1, 143159, Note_on_c, 0, 77, 0
1, 143160, Note_on_c, 0, 78, 33
1, 143279, Note_on_c, 0, 78, 0
1, 143280, Note_on_c, 0, 79, 33
1, 143399, Note_on_c, 0, 79, 0
1, 143400, Note_on_c, 0, 80, 33
1, 143519, Note_on_c, 0, 80, 0
1, 143520, Note_on_c, 0, 81, 33
1, 143639, Note_on_c, 0, 81, 0
1, 143640, Note_on_c, 0, 83, 33
1, 143759, Note_on_c, 0, 83, 0
1, 143760, Note_on_c, 0, 84, 33
1, 143879, Note_on_c, 0, 84, 0
1, 143880, Note_on_c, 0, 85, 33
1, 143993, Note_on_c, 0, 85, 0
1, 144000, Note_on_c, 0, 77, 33
1, 144000, Note_on_c, 0, 81, 33
1, 144000, Note_on_c, 0, 86, 33
1, 144911, Note_on_c, 0, 77, 0
1, 144911, Note_on_c, 0, 81, 0
1, 144911, Note_on_c, 0, 86, 0
1, 144960, Note_on_c, 0, 86, 33
1, 144960, Note_on_c, 0, 89, 33
1, 144960, Note_on_c, 0, 93, 33
1, 144960, Note_on_c, 0, 98, 33
1, 145871, Note_on_c, 0, 86, 0
1, 145871, Note_on_c, 0, 89, 0
1, 145871, Note_on_c, 0, 93, 0
1, 145871, Note_on_c, 0, 98, 0
1, 145920, Note_on_c, 0, 62, 33
1, 145920, Note_on_c, 0, 74, 33
1, 146375, Note_on_c, 0, 62, 0
1, 146375, Note_on_c, 0, 74, 0
1, 146376, End_track
2, 0, Start_track
2, 0, Key_signature, 0, "major"
2, 0, Key_signature, 0, "major"
2, 0, MIDI_port, 0
2, 0, Note_on_c, 0, 57, 80
2, 0, Note_on_c, 0, 61, 80
2, 0, Note_on_c, 0, 64, 80
2, 0, Note_on_c, 0, 69, 80
2, 227, Note_on_c, 0, 57, 0
2, 227, Note_on_c, 0, 61, 0
2, 227, Note_on_c, 0, 64, 0
2, 227, Note_on_c, 0, 69, 0
2, 1920, Note_on_c, 0, 45, 80
2, 1920, Note_on_c, 0, 52, 80
2, 1920, Note_on_c, 0, 55, 80
2, 1920, Note_on_c, 0, 57, 80
2, 2147, Note_on_c, 0, 45, 0
2, 2147, Note_on_c, 0, 52, 0
2, 2147, Note_on_c, 0, 55, 0
2, 2147, Note_on_c, 0, 57, 0
2, 5760, Note_on_c, 0, 50, 49
2, 5760, Note_on_c, 0, 53, 49
2, 5760, Note_on_c, 0, 57, 49
2, 5879, Note_on_c, 0, 50, 0
2, 5879, Note_on_c, 0, 53, 0
2, 5879, Note_on_c, 0, 57, 0
2, 6720, Note_on_c, 0, 50, 49
2, 6720, Note_on_c, 0, 53, 49
2, 6720, Note_on_c, 0, 57, 49
2, 6839, Note_on_c, 0, 50, 0
2, 6839, Note_on_c, 0, 53, 0
2, 6839, Note_on_c, 0, 57, 0
2, 7200, Note_on_c, 0, 50, 49
2, 7200, Note_on_c, 0, 55, 49
2, 7200, Note_on_c, 0, 59, 49
2, 7319, Note_on_c, 0, 50, 0
2, 7319, Note_on_c, 0, 55, 0
2, 7319, Note_on_c, 0, 59, 0
2, 7680, Note_on_c, 0, 50, 49
2, 7680, Note_on_c, 0, 53, 49
2, 7680, Note_on_c, 0, 57, 49
2, 7799, Note_on_c, 0, 50, 0
2, 7799, Note_on_c, 0, 53, 0
2, 7799, Note_on_c, 0, 57, 0
2, 8640, Note_on_c, 0, 50, 49
2, 8640, Note_on_c, 0, 53, 49
2, 8640, Note_on_c, 0, 57, 49
2, 8759, Note_on_c, 0, 50, 0
2, 8759, Note_on_c, 0, 53, 0
2, 8759, Note_on_c, 0, 57, 0
2, 9120, Note_on_c, 0, 50, 49
2, 9120, Note_on_c, 0, 55, 49
2, 9120, Note_on_c, 0, 59, 49
2, 9347, Note_on_c, 0, 50, 0
2, 9347, Note_on_c, 0, 55, 0
2, 9347, Note_on_c, 0, 59, 0
2, 9600, Note_on_c, 0, 50, 49
2, 9600, Note_on_c, 0, 53, 49
2, 9600, Note_on_c, 0, 57, 49
2, 9827, Note_on_c, 0, 50, 0
2, 9827, Note_on_c, 0, 53, 0
2, 9827, Note_on_c, 0, 57, 0
2, 10080, Note_on_c, 0, 50, 49
2, 10080, Note_on_c, 0, 55, 49
2, 10080, Note_on_c, 0, 58, 49
2, 10307, Note_on_c, 0, 50, 0
2, 10307, Note_on_c, 0, 55, 0
2, 10307, Note_on_c, 0, 58, 0
2, 10560, Note_on_c, 0, 50, 49
2, 10560, Note_on_c, 0, 53, 49
2, 10560, Note_on_c, 0, 57, 49
2, 10787, Note_on_c, 0, 50, 0
2, 10787, Note_on_c, 0, 53, 0
2, 10787, Note_on_c, 0, 57, 0
2, 11040, Note_on_c, 0, 49, 49
2, 11040, Note_on_c, 0, 52, 49
2, 11040, Note_on_c, 0, 55, 49
2, 11040, Note_on_c, 0, 57, 49
2, 11267, Note_on_c, 0, 49, 0
2, 11267, Note_on_c, 0, 52, 0
2, 11267, Note_on_c, 0, 55, 0
2, 11267, Note_on_c, 0, 57, 0
2, 11520, Note_on_c, 0, 50, 49
2, 11520, Note_on_c, 0, 53, 49
2, 11520, Note_on_c, 0, 57, 49
2, 11747, Note_on_c, 0, 50, 0
2, 11747, Note_on_c, 0, 53, 0
2, 11747, Note_on_c, 0, 57, 0
2, 12000, Note_on_c, 0, 50, 49
2, 12000, Note_on_c, 0, 55, 49
2, 12000, Note_on_c, 0, 58, 49
2, 12227, Note_on_c, 0, 50, 0
2, 12227, Note_on_c, 0, 55, 0
2, 12227, Note_on_c, 0, 58, 0
2, 12480, Note_on_c, 0, 50, 49
2, 12480, Note_on_c, 0, 53, 49
2, 12480, Note_on_c, 0, 57, 49
2, 12707, Note_on_c, 0, 50, 0
2, 12707, Note_on_c, 0, 53, 0
2, 12707, Note_on_c, 0, 57, 0
2, 12960, Note_on_c, 0, 52, 49
2, 12960, Note_on_c, 0, 55, 49
2, 12960, Note_on_c, 0, 57, 49
2, 12960, Note_on_c, 0, 61, 49
2, 13187, Note_on_c, 0, 52, 0
2, 13187, Note_on_c, 0, 55, 0
2, 13187, Note_on_c, 0, 57, 0
2, 13187, Note_on_c, 0, 61, 0
2, 13440, Note_on_c, 0, 50, 49
2, 13440, Note_on_c, 0, 54, 49
2, 13440, Note_on_c, 0, 60, 49
2, 13667, Note_on_c, 0, 50, 0
2, 13667, Note_on_c, 0, 54, 0
2, 13667, Note_on_c, 0, 60, 0
2, 13920, Note_on_c, 0, 50, 49
2, 13920, Note_on_c, 0, 55, 49
2, 13920, Note_on_c, 0, 58, 49
2, 14147, Note_on_c, 0, 50, 0
2, 14147, Note_on_c, 0, 55, 0
2, 14147, Note_on_c, 0, 58, 0
2, 14400, Note_on_c, 0, 55, 49
2, 14400, Note_on_c, 0, 58, 49
2, 14400, Note_on_c, 0, 62, 49
2, 14627, Note_on_c, 0, 55, 0
2, 14627, Note_on_c, 0, 58, 0
2, 14627, Note_on_c, 0, 62, 0
2, 14880, Note_on_c, 0, 55, 49
2, 14880, Note_on_c, 0, 60, 49
2, 14880, Note_on_c, 0, 64, 49
2, 15107, Note_on_c, 0, 55, 0
2, 15107, Note_on_c, 0, 60, 0
2, 15107, Note_on_c, 0, 64, 0
2, 15360, Note_on_c, 0, 55, 49
2, 15360, Note_on_c, 0, 58, 49
2, 15360, Note_on_c, 0, 62, 49
2, 15587, Note_on_c, 0, 55, 0
2, 15587, Note_on_c, 0, 58, 0
2, 15587, Note_on_c, 0, 62, 0
2, 16320, Note_on_c, 0, 55, 49
2, 16320, Note_on_c, 0, 58, 49
2, 16320, Note_on_c, 0, 62, 49
2, 16547, Note_on_c, 0, 55, 0
2, 16547, Note_on_c, 0, 58, 0
2, 16547, Note_on_c, 0, 62, 0
2, 16800, Note_on_c, 0, 55, 49
2, 16800, Note_on_c, 0, 60, 49
2, 16800, Note_on_c, 0, 64, 49
2, 17027, Note_on_c, 0, 55, 0
2, 17027, Note_on_c, 0, 60, 0
2, 17027, Note_on_c, 0, 64, 0
2, 17280, Note_on_c, 0, 55, 49
2, 17280, Note_on_c, 0, 58, 49
2, 17280, Note_on_c, 0, 62, 49
2, 17507, Note_on_c, 0, 55, 0
2, 17507, Note_on_c, 0, 58, 0
2, 17507, Note_on_c, 0, 62, 0
2, 17760, Note_on_c, 0, 55, 49
2, 17760, Note_on_c, 0, 60, 49
2, 17760, Note_on_c, 0, 63, 49
2, 17987, Note_on_c, 0, 55, 0
2, 17987, Note_on_c, 0, 60, 0
2, 17987, Note_on_c, 0, 63, 0
2, 18240, Note_on_c, 0, 55, 49
2, 18240, Note_on_c, 0, 58, 49
2, 18240, Note_on_c, 0, 62, 49
2, 18467, Note_on_c, 0, 55, 0
2, 18467, Note_on_c, 0, 58, 0
2, 18467, Note_on_c, 0, 62, 0
2, 18720, Note_on_c, 0, 57, 49
2, 18720, Note_on_c, 0, 60, 49
2, 18720, Note_on_c, 0, 62, 49
2, 18947, Note_on_c, 0, 57, 0
2, 18947, Note_on_c, 0, 60, 0
2, 18947, Note_on_c, 0, 62, 0
2, 19200, Note_on_c, 0, 55, 49
2, 19200, Note_on_c, 0, 58, 49
2, 19200, Note_on_c, 0, 62, 49
2, 19427, Note_on_c, 0, 55, 0
2, 19427, Note_on_c, 0, 58, 0
2, 19427, Note_on_c, 0, 62, 0
2, 19680, Note_on_c, 0, 55, 49
2, 19680, Note_on_c, 0, 60, 49
2, 19680, Note_on_c, 0, 63, 49
2, 19907, Note_on_c, 0, 55, 0
2, 19907, Note_on_c, 0, 60, 0
2, 19907, Note_on_c, 0, 63, 0
2, 20160, Note_on_c, 0, 55, 49
2, 20160, Note_on_c, 0, 58, 49
2, 20160, Note_on_c, 0, 62, 49
2, 20387, Note_on_c, 0, 55, 0
2, 20387, Note_on_c, 0, 58, 0
2, 20387, Note_on_c, 0, 62, 0
2, 20640, Note_on_c, 0, 54, 49
2, 20640, Note_on_c, 0, 60, 49
2, 20640, Note_on_c, 0, 62, 49
2, 20867, Note_on_c, 0, 54, 0
2, 20867, Note_on_c, 0, 60, 0
2, 20867, Note_on_c, 0, 62, 0
2, 21120, Note_on_c, 0, 55, 49
2, 21120, Note_on_c, 0, 58, 49
2, 21239, Note_on_c, 0, 55, 0
2, 21239, Note_on_c, 0, 58, 0
2, 23040, Note_on_c, 0, 62, 49
2, 23153, Note_on_c, 0, 62, 0
2, 24960, Note_on_c, 0, 74, 49
2, 25073, Note_on_c, 0, 74, 0
2, 25920, Note_on_c, 0, 62, 49
2, 26039, Note_on_c, 0, 62, 0
2, 26160, Note_on_c, 0, 63, 56
2, 26160, Note_on_c, 0, 64, 56
2, 26279, Note_on_c, 0, 63, 0
2, 26279, Note_on_c, 0, 64, 0
2, 26400, Note_on_c, 0, 62, 64
2, 26400, Note_on_c, 0, 65, 64
2, 26519, Note_on_c, 0, 62, 0
2, 26519, Note_on_c, 0, 65, 0
2, 26640, Note_on_c, 0, 59, 72
2, 26640, Note_on_c, 0, 65, 72
2, 26759, Note_on_c, 0, 59, 0
2, 26759, Note_on_c, 0, 65, 0
2, 26880, Note_on_c, 0, 66, 80
2, 26880, Note_on_c, 0, 58, 80
2, 26993, Note_on_c, 0, 66, 0
2, 27000, Note_on_c, 0, 62, 80
2, 27113, Note_on_c, 0, 62, 0
2, 27120, Note_on_c, 0, 66, 80
2, 27233, Note_on_c, 0, 66, 0
2, 27240, Note_on_c, 0, 62, 80
2, 27353, Note_on_c, 0, 62, 0
2, 27360, Note_on_c, 0, 66, 80
2, 27473, Note_on_c, 0, 66, 0
2, 27480, Note_on_c, 0, 62, 80
2, 27593, Note_on_c, 0, 62, 0
2, 27600, Note_on_c, 0, 66, 80
2, 27713, Note_on_c, 0, 66, 0
2, 27720, Note_on_c, 0, 62, 80
2, 27833, Note_on_c, 0, 62, 0
2, 27840, Note_on_c, 0, 66, 80
2, 27953, Note_on_c, 0, 66, 0
2, 27960, Note_on_c, 0, 62, 80
2, 28073, Note_on_c, 0, 62, 0
2, 28080, Note_on_c, 0, 66, 80
2, 28193, Note_on_c, 0, 66, 0
2, 28200, Note_on_c, 0, 62, 80
2, 28313, Note_on_c, 0, 62, 0
2, 28320, Note_on_c, 0, 66, 80
2, 28433, Note_on_c, 0, 66, 0
2, 28440, Note_on_c, 0, 62, 80
2, 28553, Note_on_c, 0, 62, 0
2, 28560, Note_on_c, 0, 66, 80
2, 28673, Note_on_c, 0, 66, 0
2, 28680, Note_on_c, 0, 62, 80
2, 28703, Note_on_c, 0, 58, 0
2, 28793, Note_on_c, 0, 62, 0
2, 28800, Note_on_c, 0, 59, 80
2, 28800, Note_on_c, 0, 62, 80
2, 28800, Note_on_c, 0, 67, 80
2, 28919, Note_on_c, 0, 59, 0
2, 28919, Note_on_c, 0, 62, 0
2, 28919, Note_on_c, 0, 67, 0
2, 30720, Note_on_c, 0, 67, 80
2, 30833, Note_on_c, 0, 67, 0
2, 32640, Note_on_c, 0, 79, 80
2, 32753, Note_on_c, 0, 79, 0
2, 33600, Note_on_c, 0, 67, 80
2, 33827, Note_on_c, 0, 67, 0
2, 33840, Note_on_c, 0, 68, 80
2, 33840, Note_on_c, 0, 66, 80
2, 33959, Note_on_c, 0, 68, 0
2, 34067, Note_on_c, 0, 66, 0
2, 34080, Note_on_c, 0, 69, 80
2, 34080, Note_on_c, 0, 65, 80
2, 34199, Note_on_c, 0, 69, 0
2, 34307, Note_on_c, 0, 65, 0
2, 34320, Note_on_c, 0, 70, 80
2, 34320, Note_on_c, 0, 64, 80
2, 34439, Note_on_c, 0, 70, 0
2, 34547, Note_on_c, 0, 64, 0
2, 34560, Note_on_c, 0, 71, 80
2, 34560, Note_on_c, 0, 63, 80
2, 34673, Note_on_c, 0, 71, 0
2, 34680, Note_on_c, 0, 67, 80
2, 34793, Note_on_c, 0, 67, 0
2, 34800, Note_on_c, 0, 71, 80
2, 34913, Note_on_c, 0, 71, 0
2, 34920, Note_on_c, 0, 67, 80
2, 35033, Note_on_c, 0, 67, 0
2, 35040, Note_on_c, 0, 71, 80
2, 35153, Note_on_c, 0, 71, 0
2, 35160, Note_on_c, 0, 67, 73
2, 35273, Note_on_c, 0, 67, 0
2, 35280, Note_on_c, 0, 71, 65
2, 35393, Note_on_c, 0, 71, 0
2, 35400, Note_on_c, 0, 67, 57
2, 35513, Note_on_c, 0, 67, 0
2, 35520, Note_on_c, 0, 71, 49
2, 35633, Note_on_c, 0, 71, 0
2, 35640, Note_on_c, 0, 67, 49
2, 35753, Note_on_c, 0, 67, 0
2, 35760, Note_on_c, 0, 71, 49
2, 35873, Note_on_c, 0, 71, 0
2, 35880, Note_on_c, 0, 67, 49
2, 35993, Note_on_c, 0, 67, 0
2, 36000, Note_on_c, 0, 71, 49
2, 36113, Note_on_c, 0, 71, 0
2, 36120, Note_on_c, 0, 67, 49
2, 36233, Note_on_c, 0, 67, 0
2, 36240, Note_on_c, 0, 71, 49
2, 36353, Note_on_c, 0, 71, 0
2, 36360, Note_on_c, 0, 67, 49
2, 36383, Note_on_c, 0, 63, 0
2, 36473, Note_on_c, 0, 67, 0
2, 36480, Note_on_c, 0, 60, 49
2, 36480, Note_on_c, 0, 63, 49
2, 36480, Note_on_c, 0, 67, 49
2, 36480, Note_on_c, 0, 72, 49
2, 36593, Note_on_c, 0, 60, 0
2, 36593, Note_on_c, 0, 63, 0
2, 36593, Note_on_c, 0, 67, 0
2, 36593, Note_on_c, 0, 72, 0
2, 37440, Note_on_c, 0, 64, 49
2, 37440, Note_on_c, 0, 67, 49
2, 37440, Note_on_c, 0, 72, 49
2, 37559, Note_on_c, 0, 64, 0
2, 37559, Note_on_c, 0, 67, 0
2, 37559, Note_on_c, 0, 72, 0
2, 37920, Note_on_c, 0, 65, 49
2, 37920, Note_on_c, 0, 68, 49
2, 37920, Note_on_c, 0, 72, 49
2, 38147, Note_on_c, 0, 65, 0
2, 38147, Note_on_c, 0, 68, 0
2, 38147, Note_on_c, 0, 72, 0
2, 38400, Note_on_c, 0, 63, 49
2, 38400, Note_on_c, 0, 67, 49
2, 38400, Note_on_c, 0, 72, 49
2, 38627, Note_on_c, 0, 63, 0
2, 38627, Note_on_c, 0, 67, 0
2, 38627, Note_on_c, 0, 72, 0
2, 38880, Note_on_c, 0, 59, 49
2, 38880, Note_on_c, 0, 65, 49
2, 38880, Note_on_c, 0, 68, 49
2, 39107, Note_on_c, 0, 59, 0
2, 39107, Note_on_c, 0, 65, 0
2, 39107, Note_on_c, 0, 68, 0
2, 39360, Note_on_c, 0, 60, 49
2, 39360, Note_on_c, 0, 63, 49
2, 39360, Note_on_c, 0, 67, 49
2, 39587, Note_on_c, 0, 60, 0
2, 39587, Note_on_c, 0, 63, 0
2, 39587, Note_on_c, 0, 67, 0
2, 39840, Note_on_c, 0, 58, 49
2, 39840, Note_on_c, 0, 62, 49
2, 40067, Note_on_c, 0, 58, 0
2, 40067, Note_on_c, 0, 62, 0
2, 40320, Note_on_c, 0, 57, 49
2, 40320, Note_on_c, 0, 61, 49
2, 40320, Note_on_c, 0, 67, 49
2, 40547, Note_on_c, 0, 57, 0
2, 40547, Note_on_c, 0, 61, 0
2, 40547, Note_on_c, 0, 67, 0
2, 40800, Note_on_c, 0, 69, 58
2, 41735, Note_on_c, 0, 69, 0
2, 41760, Note_on_c, 0, 69, 49
2, 41879, Note_on_c, 0, 69, 0
2, 42240, Note_on_c, 0, 69, 49
2, 42359, Note_on_c, 0, 69, 0
2, 42720, Note_on_c, 0, 69, 49
2, 42839, Note_on_c, 0, 69, 0
2, 42960, Note_on_c, 0, 65, 49
2, 43079, Note_on_c, 0, 65, 0
2, 43200, Note_on_c, 0, 62, 49
2, 43319, Note_on_c, 0, 62, 0
2, 43440, Note_on_c, 0, 58, 49
2, 43559, Note_on_c, 0, 58, 0
2, 43680, Note_on_c, 0, 62, 49
2, 43799, Note_on_c, 0, 62, 0
2, 43920, Note_on_c, 0, 65, 49
2, 44039, Note_on_c, 0, 65, 0
2, 44160, Note_on_c, 0, 69, 49
2, 44279, Note_on_c, 0, 69, 0
2, 44640, Note_on_c, 0, 53, 49
2, 44640, Note_on_c, 0, 69, 49
2, 44759, Note_on_c, 0, 53, 0
2, 44759, Note_on_c, 0, 69, 0
2, 44880, Note_on_c, 0, 50, 49
2, 44880, Note_on_c, 0, 65, 49
2, 44999, Note_on_c, 0, 50, 0
2, 44999, Note_on_c, 0, 65, 0
2, 45120, Note_on_c, 0, 46, 49
2, 45120, Note_on_c, 0, 62, 49
2, 45239, Note_on_c, 0, 46, 0
2, 45239, Note_on_c, 0, 62, 0
2, 45360, Note_on_c, 0, 43, 49
2, 45360, Note_on_c, 0, 58, 49
2, 45479, Note_on_c, 0, 43, 0
2, 45479, Note_on_c, 0, 58, 0
2, 45600, Note_on_c, 0, 46, 49
2, 45600, Note_on_c, 0, 62, 49
2, 45719, Note_on_c, 0, 46, 0
2, 45719, Note_on_c, 0, 62, 0
2, 45840, Note_on_c, 0, 50, 49
2, 45840, Note_on_c, 0, 65, 49
2, 45959, Note_on_c, 0, 50, 0
2, 45959, Note_on_c, 0, 65, 0
2, 46080, Note_on_c, 0, 57, 49
2, 46080, Note_on_c, 0, 69, 49
2, 46199, Note_on_c, 0, 57, 0
2, 46199, Note_on_c, 0, 69, 0
2, 48480, Note_on_c, 0, 45, 49
2, 48480, Note_on_c, 0, 57, 49
2, 48599, Note_on_c, 0, 45, 0
2, 48599, Note_on_c, 0, 57, 0
2, 48720, Note_on_c, 0, 41, 49
2, 48720, Note_on_c, 0, 53, 49
2, 48839, Note_on_c, 0, 41, 0
2, 48839, Note_on_c, 0, 53, 0
2, 48960, Note_on_c, 0, 38, 49
2, 48960, Note_on_c, 0, 50, 49
2, 49079, Note_on_c, 0, 38, 0
2, 49079, Note_on_c, 0, 50, 0
2, 49200, Note_on_c, 0, 34, 49
2, 49200, Note_on_c, 0, 46, 49
2, 49319, Note_on_c, 0, 34, 0
2, 49319, Note_on_c, 0, 46, 0
2, 49440, Note_on_c, 0, 38, 49
2, 49440, Note_on_c, 0, 50, 49
2, 49559, Note_on_c, 0, 38, 0
2, 49559, Note_on_c, 0, 50, 0
2, 49680, Note_on_c, 0, 41, 49
2, 49680, Note_on_c, 0, 53, 49
2, 49799, Note_on_c, 0, 41, 0
2, 49799, Note_on_c, 0, 53, 0
2, 49920, Note_on_c, 0, 45, 49
2, 49920, Note_on_c, 0, 57, 49
2, 50159, Note_on_c, 0, 45, 0
2, 50159, Note_on_c, 0, 57, 0
2, 50400, Note_on_c, 0, 69, 49
2, 50519, Note_on_c, 0, 69, 0
2, 50640, Note_on_c, 0, 65, 49
2, 50759, Note_on_c, 0, 65, 0
2, 50880, Note_on_c, 0, 62, 49
2, 50999, Note_on_c, 0, 62, 0
2, 51120, Note_on_c, 0, 58, 49
2, 51239, Note_on_c, 0, 58, 0
2, 51360, Note_on_c, 0, 62, 49
2, 51479, Note_on_c, 0, 62, 0
2, 51600, Note_on_c, 0, 65, 49
2, 51719, Note_on_c, 0, 65, 0
2, 51840, Note_on_c, 0, 69, 49
2, 52751, Note_on_c, 0, 69, 0
2, 52800, Note_on_c, 0, 69, 80
2, 52800, Note_on_c, 0, 81, 80
2, 54167, Note_on_c, 0, 69, 0
2, 54167, Note_on_c, 0, 81, 0
2, 54240, Note_on_c, 0, 57, 80
2, 54240, Note_on_c, 0, 69, 80
2, 54695, Note_on_c, 0, 57, 0
2, 54695, Note_on_c, 0, 69, 0
2, 54720, Note_on_c, 0, 57, 80
2, 55631, Note_on_c, 0, 57, 0
2, 55680, Note_on_c, 0, 50, 49
2, 55680, Note_on_c, 0, 53, 49
2, 55680, Note_on_c, 0, 57, 49
2, 55799, Note_on_c, 0, 50, 0
2, 55799, Note_on_c, 0, 53, 0
2, 55799, Note_on_c, 0, 57, 0
2, 56640, Note_on_c, 0, 50, 49
2, 56640, Note_on_c, 0, 53, 49
2, 56640, Note_on_c, 0, 57, 49
2, 56759, Note_on_c, 0, 50, 0
2, 56759, Note_on_c, 0, 53, 0
2, 56759, Note_on_c, 0, 57, 0
2, 57120, Note_on_c, 0, 50, 49
2, 57120, Note_on_c, 0, 55, 49
2, 57120, Note_on_c, 0, 59, 49
2, 57239, Note_on_c, 0, 50, 0
2, 57239, Note_on_c, 0, 55, 0
2, 57239, Note_on_c, 0, 59, 0
2, 57600, Note_on_c, 0, 50, 49
2, 57600, Note_on_c, 0, 53, 49
2, 57600, Note_on_c, 0, 57, 49
2, 57719, Note_on_c, 0, 50, 0
2, 57719, Note_on_c, 0, 53, 0
2, 57719, Note_on_c, 0, 57, 0
2, 58560, Note_on_c, 0, 50, 49
2, 58560, Note_on_c, 0, 53, 49
2, 58560, Note_on_c, 0, 57, 49
2, 58679, Note_on_c, 0, 50, 0
2, 58679, Note_on_c, 0, 53, 0
2, 58679, Note_on_c, 0, 57, 0
2, 59040, Note_on_c, 0, 50, 49
2, 59040, Note_on_c, 0, 55, 49
2, 59040, Note_on_c, 0, 59, 49
2, 59267, Note_on_c, 0, 50, 0
2, 59267, Note_on_c, 0, 55, 0
2, 59267, Note_on_c, 0, 59, 0
2, 59520, Note_on_c, 0, 50, 49
2, 59520, Note_on_c, 0, 53, 49
2, 59520, Note_on_c, 0, 57, 49
2, 59747, Note_on_c, 0, 50, 0
2, 59747, Note_on_c, 0, 53, 0
2, 59747, Note_on_c, 0, 57, 0
2, 60000, Note_on_c, 0, 50, 49
2, 60000, Note_on_c, 0, 55, 49
2, 60000, Note_on_c, 0, 58, 49
2, 60227, Note_on_c, 0, 50, 0
2, 60227, Note_on_c, 0, 55, 0
2, 60227, Note_on_c, 0, 58, 0
2, 60480, Note_on_c, 0, 50, 49
2, 60480, Note_on_c, 0, 53, 49
2, 60480, Note_on_c, 0, 57, 49
2, 60707, Note_on_c, 0, 50, 0
2, 60707, Note_on_c, 0, 53, 0
2, 60707, Note_on_c, 0, 57, 0
2, 60960, Note_on_c, 0, 49, 49
2, 60960, Note_on_c, 0, 52, 49
2, 60960, Note_on_c, 0, 55, 49
2, 60960, Note_on_c, 0, 57, 49
2, 61187, Note_on_c, 0, 49, 0
2, 61187, Note_on_c, 0, 52, 0
2, 61187, Note_on_c, 0, 55, 0
2, 61187, Note_on_c, 0, 57, 0
2, 61440, Note_on_c, 0, 50, 49
2, 61440, Note_on_c, 0, 53, 49
2, 61440, Note_on_c, 0, 57, 49
2, 61667, Note_on_c, 0, 50, 0
2, 61667, Note_on_c, 0, 53, 0
2, 61667, Note_on_c, 0, 57, 0
2, 61920, Note_on_c, 0, 50, 49
2, 61920, Note_on_c, 0, 55, 49
2, 61920, Note_on_c, 0, 58, 49
2, 62147, Note_on_c, 0, 50, 0
2, 62147, Note_on_c, 0, 55, 0
2, 62147, Note_on_c, 0, 58, 0
2, 62400, Note_on_c, 0, 50, 49
2, 62400, Note_on_c, 0, 53, 49
2, 62400, Note_on_c, 0, 57, 49
2, 62627, Note_on_c, 0, 50, 0
2, 62627, Note_on_c, 0, 53, 0
2, 62627, Note_on_c, 0, 57, 0
2, 62880, Note_on_c, 0, 52, 49
2, 62880, Note_on_c, 0, 55, 49
2, 62880, Note_on_c, 0, 57, 49
2, 62880, Note_on_c, 0, 61, 49
2, 63107, Note_on_c, 0, 52, 0
2, 63107, Note_on_c, 0, 55, 0
2, 63107, Note_on_c, 0, 57, 0
2, 63107, Note_on_c, 0, 61, 0
2, 63360, Note_on_c, 0, 50, 49
2, 63360, Note_on_c, 0, 54, 49
2, 63360, Note_on_c, 0, 60, 49
2, 63587, Note_on_c, 0, 50, 0
2, 63587, Note_on_c, 0, 54, 0
2, 63587, Note_on_c, 0, 60, 0
2, 63840, Note_on_c, 0, 50, 49
2, 63840, Note_on_c, 0, 55, 49
2, 63840, Note_on_c, 0, 58, 49
2, 64067, Note_on_c, 0, 50, 0
2, 64067, Note_on_c, 0, 55, 0
2, 64067, Note_on_c, 0, 58, 0
2, 64320, Note_on_c, 0, 55, 49
2, 64320, Note_on_c, 0, 58, 49
2, 64320, Note_on_c, 0, 62, 49
2, 64547, Note_on_c, 0, 55, 0
2, 64547, Note_on_c, 0, 58, 0
2, 64547, Note_on_c, 0, 62, 0
2, 64800, Note_on_c, 0, 55, 49
2, 64800, Note_on_c, 0, 60, 49
2, 64800, Note_on_c, 0, 64, 49
2, 65027, Note_on_c, 0, 55, 0
2, 65027, Note_on_c, 0, 60, 0
2, 65027, Note_on_c, 0, 64, 0
2, 65280, Note_on_c, 0, 55, 49
2, 65280, Note_on_c, 0, 58, 49
2, 65280, Note_on_c, 0, 62, 49
2, 65507, Note_on_c, 0, 55, 0
2, 65507, Note_on_c, 0, 58, 0
2, 65507, Note_on_c, 0, 62, 0
2, 66240, Note_on_c, 0, 55, 49
2, 66240, Note_on_c, 0, 58, 49
2, 66240, Note_on_c, 0, 62, 49
2, 66467, Note_on_c, 0, 55, 0
2, 66467, Note_on_c, 0, 58, 0
2, 66467, Note_on_c, 0, 62, 0
2, 66720, Note_on_c, 0, 55, 49
2, 66720, Note_on_c, 0, 60, 49
2, 66720, Note_on_c, 0, 64, 49
2, 66947, Note_on_c, 0, 55, 0
2, 66947, Note_on_c, 0, 60, 0
2, 66947, Note_on_c, 0, 64, 0
2, 67200, Note_on_c, 0, 55, 49
2, 67200, Note_on_c, 0, 58, 49
2, 67200, Note_on_c, 0, 62, 49
2, 67427, Note_on_c, 0, 55, 0
2, 67427, Note_on_c, 0, 58, 0
2, 67427, Note_on_c, 0, 62, 0
2, 67680, Note_on_c, 0, 55, 49
2, 67680, Note_on_c, 0, 60, 49
2, 67680, Note_on_c, 0, 63, 49
2, 67907, Note_on_c, 0, 55, 0
2, 67907, Note_on_c, 0, 60, 0
2, 67907, Note_on_c, 0, 63, 0
2, 68160, Note_on_c, 0, 55, 49
2, 68160, Note_on_c, 0, 58, 49
2, 68160, Note_on_c, 0, 62, 49
2, 68387, Note_on_c, 0, 55, 0
2, 68387, Note_on_c, 0, 58, 0
2, 68387, Note_on_c, 0, 62, 0
2, 68640, Note_on_c, 0, 57, 49
2, 68640, Note_on_c, 0, 60, 49
2, 68640, Note_on_c, 0, 62, 49
2, 68867, Note_on_c, 0, 57, 0
2, 68867, Note_on_c, 0, 60, 0
2, 68867, Note_on_c, 0, 62, 0
2, 69120, Note_on_c, 0, 55, 49
2, 69120, Note_on_c, 0, 58, 49
2, 69120, Note_on_c, 0, 62, 49
2, 69347, Note_on_c, 0, 55, 0
2, 69347, Note_on_c, 0, 58, 0
2, 69347, Note_on_c, 0, 62, 0
2, 69600, Note_on_c, 0, 55, 49
2, 69600, Note_on_c, 0, 60, 49
2, 69600, Note_on_c, 0, 63, 49
2, 69827, Note_on_c, 0, 55, 0
2, 69827, Note_on_c, 0, 60, 0
2, 69827, Note_on_c, 0, 63, 0
2, 70080, Note_on_c, 0, 55, 49
2, 70080, Note_on_c, 0, 58, 49
2, 70080, Note_on_c, 0, 62, 49
2, 70307, Note_on_c, 0, 55, 0
2, 70307, Note_on_c, 0, 58, 0
2, 70307, Note_on_c, 0, 62, 0
2, 70560, Note_on_c, 0, 54, 49
2, 70560, Note_on_c, 0, 60, 49
2, 70560, Note_on_c, 0, 62, 49
2, 70787, Note_on_c, 0, 54, 0
2, 70787, Note_on_c, 0, 60, 0
2, 70787, Note_on_c, 0, 62, 0
2, 71040, Note_on_c, 0, 55, 49
2, 71040, Note_on_c, 0, 58, 49
2, 71159, Note_on_c, 0, 55, 0
2, 71159, Note_on_c, 0, 58, 0
2, 72960, Note_on_c, 0, 62, 49
2, 73073, Note_on_c, 0, 62, 0
2, 74880, Note_on_c, 0, 74, 49
2, 74993, Note_on_c, 0, 74, 0
2, 75840, Note_on_c, 0, 62, 49
2, 75959, Note_on_c, 0, 62, 0
2, 76080, Note_on_c, 0, 63, 56
2, 76080, Note_on_c, 0, 64, 56
2, 76199, Note_on_c, 0, 63, 0
2, 76199, Note_on_c, 0, 64, 0
2, 76320, Note_on_c, 0, 62, 64
2, 76320, Note_on_c, 0, 65, 64
2, 76439, Note_on_c, 0, 62, 0
2, 76439, Note_on_c, 0, 65, 0
2, 76560, Note_on_c, 0, 59, 72
2, 76560, Note_on_c, 0, 65, 72
2, 76679, Note_on_c, 0, 59, 0
2, 76679, Note_on_c, 0, 65, 0
2, 76800, Note_on_c, 0, 66, 80
2, 76800, Note_on_c, 0, 58, 80
2, 76913, Note_on_c, 0, 66, 0
2, 76920, Note_on_c, 0, 62, 80
2, 77033, Note_on_c, 0, 62, 0
2, 77040, Note_on_c, 0, 66, 80
2, 77153, Note_on_c, 0, 66, 0
2, 77160, Note_on_c, 0, 62, 80
2, 77273, Note_on_c, 0, 62, 0
2, 77280, Note_on_c, 0, 66, 80
2, 77393, Note_on_c, 0, 66, 0
2, 77400, Note_on_c, 0, 62, 80
2, 77513, Note_on_c, 0, 62, 0
2, 77520, Note_on_c, 0, 66, 80
2, 77633, Note_on_c, 0, 66, 0
2, 77640, Note_on_c, 0, 62, 80
2, 77753, Note_on_c, 0, 62, 0
2, 77760, Note_on_c, 0, 66, 80
2, 77873, Note_on_c, 0, 66, 0
2, 77880, Note_on_c, 0, 62, 80
2, 77993, Note_on_c, 0, 62, 0
2, 78000, Note_on_c, 0, 66, 80
2, 78113, Note_on_c, 0, 66, 0
2, 78120, Note_on_c, 0, 62, 80
2, 78233, Note_on_c, 0, 62, 0
2, 78240, Note_on_c, 0, 66, 80
2, 78353, Note_on_c, 0, 66, 0
2, 78360, Note_on_c, 0, 62, 80
2, 78473, Note_on_c, 0, 62, 0
2, 78480, Note_on_c, 0, 66, 80
2, 78593, Note_on_c, 0, 66, 0
2, 78600, Note_on_c, 0, 62, 80
2, 78623, Note_on_c, 0, 58, 0
2, 78713, Note_on_c, 0, 62, 0
2, 78720, Note_on_c, 0, 59, 80
2, 78720, Note_on_c, 0, 62, 80
2, 78720, Note_on_c, 0, 67, 80
2, 78839, Note_on_c, 0, 59, 0
2, 78839, Note_on_c, 0, 62, 0
2, 78839, Note_on_c, 0, 67, 0
2, 80640, Note_on_c, 0, 67, 80
2, 80753, Note_on_c, 0, 67, 0
2, 82560, Note_on_c, 0, 79, 80
2, 82673, Note_on_c, 0, 79, 0
2, 83520, Note_on_c, 0, 67, 80
2, 83747, Note_on_c, 0, 67, 0
2, 83760, Note_on_c, 0, 68, 80
2, 83760, Note_on_c, 0, 66, 80
2, 83879, Note_on_c, 0, 68, 0
2, 83987, Note_on_c, 0, 66, 0
2, 84000, Note_on_c, 0, 69, 80
2, 84000, Note_on_c, 0, 65, 80
2, 84119, Note_on_c, 0, 69, 0
2, 84227, Note_on_c, 0, 65, 0
2, 84240, Note_on_c, 0, 70, 80
2, 84240, Note_on_c, 0, 64, 80
2, 84359, Note_on_c, 0, 70, 0
2, 84467, Note_on_c, 0, 64, 0
2, 84480, Note_on_c, 0, 71, 80
2, 84480, Note_on_c, 0, 63, 80
2, 84593, Note_on_c, 0, 71, 0
2, 84600, Note_on_c, 0, 67, 80
2, 84713, Note_on_c, 0, 67, 0
2, 84720, Note_on_c, 0, 71, 80
2, 84833, Note_on_c, 0, 71, 0
2, 84840, Note_on_c, 0, 67, 80
2, 84953, Note_on_c, 0, 67, 0
2, 84960, Note_on_c, 0, 71, 80
2, 85073, Note_on_c, 0, 71, 0
2, 85080, Note_on_c, 0, 67, 73
2, 85193, Note_on_c, 0, 67, 0
2, 85200, Note_on_c, 0, 71, 65
2, 85313, Note_on_c, 0, 71, 0
2, 85320, Note_on_c, 0, 67, 57
2, 85433, Note_on_c, 0, 67, 0
2, 85440, Note_on_c, 0, 71, 49
2, 85553, Note_on_c, 0, 71, 0
2, 85560, Note_on_c, 0, 67, 49
2, 85673, Note_on_c, 0, 67, 0
2, 85680, Note_on_c, 0, 71, 49
2, 85793, Note_on_c, 0, 71, 0
2, 85800, Note_on_c, 0, 67, 49
2, 85913, Note_on_c, 0, 67, 0
2, 85920, Note_on_c, 0, 71, 49
2, 86033, Note_on_c, 0, 71, 0
2, 86040, Note_on_c, 0, 67, 49
2, 86153, Note_on_c, 0, 67, 0
2, 86160, Note_on_c, 0, 71, 49
2, 86273, Note_on_c, 0, 71, 0
2, 86280, Note_on_c, 0, 67, 49
2, 86303, Note_on_c, 0, 63, 0
2, 86393, Note_on_c, 0, 67, 0
2, 86400, Note_on_c, 0, 60, 49
2, 86400, Note_on_c, 0, 63, 49
2, 86400, Note_on_c, 0, 67, 49
2, 86400, Note_on_c, 0, 72, 49
2, 86513, Note_on_c, 0, 60, 0
2, 86513, Note_on_c, 0, 63, 0
2, 86513, Note_on_c, 0, 67, 0
2, 86513, Note_on_c, 0, 72, 0
2, 87360, Note_on_c, 0, 64, 49
2, 87360, Note_on_c, 0, 67, 49
2, 87360, Note_on_c, 0, 72, 49
2, 87479, Note_on_c, 0, 64, 0
2, 87479, Note_on_c, 0, 67, 0
2, 87479, Note_on_c, 0, 72, 0
2, 87840, Note_on_c, 0, 65, 49
2, 87840, Note_on_c, 0, 68, 49
2, 87840, Note_on_c, 0, 72, 49
2, 88067, Note_on_c, 0, 65, 0
2, 88067, Note_on_c, 0, 68, 0
2, 88067, Note_on_c, 0, 72, 0
2, 88320, Note_on_c, 0, 63, 49
2, 88320, Note_on_c, 0, 67, 49
2, 88320, Note_on_c, 0, 72, 49
2, 88547, Note_on_c, 0, 63, 0
2, 88547, Note_on_c, 0, 67, 0
2, 88547, Note_on_c, 0, 72, 0
2, 88800, Note_on_c, 0, 59, 49
2, 88800, Note_on_c, 0, 65, 49
2, 88800, Note_on_c, 0, 68, 49
2, 89027, Note_on_c, 0, 59, 0
2, 89027, Note_on_c, 0, 65, 0
2, 89027, Note_on_c, 0, 68, 0
2, 89280, Note_on_c, 0, 60, 49
2, 89280, Note_on_c, 0, 63, 49
2, 89280, Note_on_c, 0, 67, 49
2, 89507, Note_on_c, 0, 60, 0
2, 89507, Note_on_c, 0, 63, 0
2, 89507, Note_on_c, 0, 67, 0
2, 89760, Note_on_c, 0, 58, 49
2, 89760, Note_on_c, 0, 62, 49
2, 89987, Note_on_c, 0, 58, 0
2, 89987, Note_on_c, 0, 62, 0
2, 90240, Note_on_c, 0, 57, 49
2, 90240, Note_on_c, 0, 61, 49
2, 90240, Note_on_c, 0, 67, 49
2, 90467, Note_on_c, 0, 57, 0
2, 90467, Note_on_c, 0, 61, 0
2, 90467, Note_on_c, 0, 67, 0
2, 90720, Note_on_c, 0, 69, 58
2, 91655, Note_on_c, 0, 69, 0
2, 91680, Note_on_c, 0, 69, 49
2, 91799, Note_on_c, 0, 69, 0
2, 92160, Note_on_c, 0, 69, 49
2, 92279, Note_on_c, 0, 69, 0
2, 92640, Note_on_c, 0, 69, 49
2, 92759, Note_on_c, 0, 69, 0
2, 92880, Note_on_c, 0, 65, 49
2, 92999, Note_on_c, 0, 65, 0
2, 93120, Note_on_c, 0, 62, 49
2, 93239, Note_on_c, 0, 62, 0
2, 93360, Note_on_c, 0, 58, 49
2, 93479, Note_on_c, 0, 58, 0
2, 93600, Note_on_c, 0, 62, 49
2, 93719, Note_on_c, 0, 62, 0
2, 93840, Note_on_c, 0, 65, 49
2, 93959, Note_on_c, 0, 65, 0
2, 94080, Note_on_c, 0, 69, 49
2, 94199, Note_on_c, 0, 69, 0
2, 94560, Note_on_c, 0, 53, 49
2, 94560, Note_on_c, 0, 69, 49
2, 94679, Note_on_c, 0, 53, 0
2, 94679, Note_on_c, 0, 69, 0
2, 94800, Note_on_c, 0, 50, 49
2, 94800, Note_on_c, 0, 65, 49
2, 94919, Note_on_c, 0, 50, 0
2, 94919, Note_on_c, 0, 65, 0
2, 95040, Note_on_c, 0, 46, 49
2, 95040, Note_on_c, 0, 62, 49
2, 95159, Note_on_c, 0, 46, 0
2, 95159, Note_on_c, 0, 62, 0
2, 95280, Note_on_c, 0, 43, 49
2, 95280, Note_on_c, 0, 58, 49
2, 95399, Note_on_c, 0, 43, 0
2, 95399, Note_on_c, 0, 58, 0
2, 95520, Note_on_c, 0, 46, 49
2, 95520, Note_on_c, 0, 62, 49
2, 95639, Note_on_c, 0, 46, 0
2, 95639, Note_on_c, 0, 62, 0
2, 95760, Note_on_c, 0, 50, 49
2, 95760, Note_on_c, 0, 65, 49
2, 95879, Note_on_c, 0, 50, 0
2, 95879, Note_on_c, 0, 65, 0
2, 96000, Note_on_c, 0, 57, 49
2, 96000, Note_on_c, 0, 69, 49
2, 96119, Note_on_c, 0, 57, 0
2, 96119, Note_on_c, 0, 69, 0
2, 98400, Note_on_c, 0, 45, 49
2, 98400, Note_on_c, 0, 57, 49
2, 98519, Note_on_c, 0, 45, 0
2, 98519, Note_on_c, 0, 57, 0
2, 98640, Note_on_c, 0, 41, 49
2, 98640, Note_on_c, 0, 53, 49
2, 98759, Note_on_c, 0, 41, 0
2, 98759, Note_on_c, 0, 53, 0
2, 98880, Note_on_c, 0, 38, 49
2, 98880, Note_on_c, 0, 50, 49
2, 98999, Note_on_c, 0, 38, 0
2, 98999, Note_on_c, 0, 50, 0
2, 99120, Note_on_c, 0, 34, 49
2, 99120, Note_on_c, 0, 46, 49
2, 99239, Note_on_c, 0, 34, 0
2, 99239, Note_on_c, 0, 46, 0
2, 99360, Note_on_c, 0, 38, 49
2, 99360, Note_on_c, 0, 50, 49
2, 99479, Note_on_c, 0, 38, 0
2, 99479, Note_on_c, 0, 50, 0
2, 99600, Note_on_c, 0, 41, 49
2, 99600, Note_on_c, 0, 53, 49
2, 99719, Note_on_c, 0, 41, 0
2, 99719, Note_on_c, 0, 53, 0
2, 99840, Note_on_c, 0, 45, 49
2, 99840, Note_on_c, 0, 57, 49
2, 100079, Note_on_c, 0, 45, 0
2, 100079, Note_on_c, 0, 57, 0
2, 100320, Note_on_c, 0, 69, 49
2, 100439, Note_on_c, 0, 69, 0
2, 100560, Note_on_c, 0, 65, 49
2, 100679, Note_on_c, 0, 65, 0
2, 100800, Note_on_c, 0, 62, 49
2, 100919, Note_on_c, 0, 62, 0
2, 101040, Note_on_c, 0, 58, 49
2, 101159, Note_on_c, 0, 58, 0
2, 101280, Note_on_c, 0, 62, 49
2, 101399, Note_on_c, 0, 62, 0
2, 101520, Note_on_c, 0, 65, 49
2, 101639, Note_on_c, 0, 65, 0
2, 101760, Note_on_c, 0, 69, 49
2, 102671, Note_on_c, 0, 69, 0
2, 102720, Note_on_c, 0, 69, 80
2, 102720, Note_on_c, 0, 81, 80
2, 104087, Note_on_c, 0, 69, 0
2, 104087, Note_on_c, 0, 81, 0
2, 104160, Note_on_c, 0, 57, 80
2, 104160, Note_on_c, 0, 69, 80
2, 104615, Note_on_c, 0, 57, 0
2, 104615, Note_on_c, 0, 69, 0
2, 104640, Note_on_c, 0, 57, 80
2, 105551, Note_on_c, 0, 57, 0
2, 105600, Note_on_c, 0, 38, 80
2, 105600, Note_on_c, 0, 50, 80
2, 105827, Note_on_c, 0, 38, 0
2, 105827, Note_on_c, 0, 50, 0
2, 106560, Note_on_c, 0, 38, 80
2, 106560, Note_on_c, 0, 50, 80
2, 106787, Note_on_c, 0, 38, 0
2, 106787, Note_on_c, 0, 50, 0
2, 107040, Note_on_c, 0, 55, 80
2, 107040, Note_on_c, 0, 59, 80
2, 107040, Note_on_c, 0, 62, 80
2, 107267, Note_on_c, 0, 55, 0
2, 107267, Note_on_c, 0, 59, 0
2, 107267, Note_on_c, 0, 62, 0
2, 107520, Note_on_c, 0, 38, 80
2, 107520, Note_on_c, 0, 50, 80
2, 107747, Note_on_c, 0, 38, 0
2, 107747, Note_on_c, 0, 50, 0
2, 108480, Note_on_c, 0, 38, 80
2, 108480, Note_on_c, 0, 50, 80
2, 108707, Note_on_c, 0, 38, 0
2, 108707, Note_on_c, 0, 50, 0
2, 108960, Note_on_c, 0, 55, 80
2, 108960, Note_on_c, 0, 59, 80
2, 108960, Note_on_c, 0, 62, 80
2, 109187, Note_on_c, 0, 55, 0
2, 109187, Note_on_c, 0, 59, 0
2, 109187, Note_on_c, 0, 62, 0
2, 109440, Note_on_c, 0, 50, 80
2, 109440, Note_on_c, 0, 53, 80
2, 109440, Note_on_c, 0, 57, 80
2, 109667, Note_on_c, 0, 50, 0
2, 109667, Note_on_c, 0, 53, 0
2, 109667, Note_on_c, 0, 57, 0
2, 109920, Note_on_c, 0, 46, 80
2, 109920, Note_on_c, 0, 50, 80
2, 109920, Note_on_c, 0, 55, 80
2, 110147, Note_on_c, 0, 46, 0
2, 110147, Note_on_c, 0, 50, 0
2, 110147, Note_on_c, 0, 55, 0
2, 110400, Note_on_c, 0, 45, 80
2, 110400, Note_on_c, 0, 50, 80
2, 110400, Note_on_c, 0, 53, 80
2, 110627, Note_on_c, 0, 45, 0
2, 110627, Note_on_c, 0, 50, 0
2, 110627, Note_on_c, 0, 53, 0
2, 110880, Note_on_c, 0, 49, 80
2, 110880, Note_on_c, 0, 52, 80
2, 110880, Note_on_c, 0, 55, 80
2, 110880, Note_on_c, 0, 57, 80
2, 111107, Note_on_c, 0, 49, 0
2, 111107, Note_on_c, 0, 52, 0
2, 111107, Note_on_c, 0, 55, 0
2, 111107, Note_on_c, 0, 57, 0
2, 111360, Note_on_c, 0, 50, 80
2, 111360, Note_on_c, 0, 53, 80
2, 111360, Note_on_c, 0, 57, 80
2, 111587, Note_on_c, 0, 50, 0
2, 111587, Note_on_c, 0, 53, 0
2, 111587, Note_on_c, 0, 57, 0
2, 111840, Note_on_c, 0, 46, 80
2, 111840, Note_on_c, 0, 50, 80
2, 111840, Note_on_c, 0, 55, 80
2, 112067, Note_on_c, 0, 46, 0
2, 112067, Note_on_c, 0, 50, 0
2, 112067, Note_on_c, 0, 55, 0
2, 112320, Note_on_c, 0, 45, 80
2, 112320, Note_on_c, 0, 50, 80
2, 112320, Note_on_c, 0, 53, 80
2, 112547, Note_on_c, 0, 45, 0
2, 112547, Note_on_c, 0, 50, 0
2, 112547, Note_on_c, 0, 53, 0
2, 112800, Note_on_c, 0, 49, 80
2, 112800, Note_on_c, 0, 52, 80
2, 112800, Note_on_c, 0, 55, 80
2, 112800, Note_on_c, 0, 57, 80
2, 113027, Note_on_c, 0, 49, 0
2, 113027, Note_on_c, 0, 52, 0
2, 113027, Note_on_c, 0, 55, 0
2, 113027, Note_on_c, 0, 57, 0
2, 113280, Note_on_c, 0, 50, 80
2, 113280, Note_on_c, 0, 54, 80
2, 113280, Note_on_c, 0, 60, 80
2, 113507, Note_on_c, 0, 50, 0
2, 113507, Note_on_c, 0, 54, 0
2, 113507, Note_on_c, 0, 60, 0
2, 113760, Note_on_c, 0, 55, 80
2, 113760, Note_on_c, 0, 62, 80
2, 113987, Note_on_c, 0, 55, 0
2, 113987, Note_on_c, 0, 62, 0
2, 114240, Note_on_c, 0, 55, 80
2, 114240, Note_on_c, 0, 58, 80
2, 114240, Note_on_c, 0, 62, 80
2, 114467, Note_on_c, 0, 55, 0
2, 114467, Note_on_c, 0, 58, 0
2, 114467, Note_on_c, 0, 62, 0
2, 114720, Note_on_c, 0, 52, 80
2, 114720, Note_on_c, 0, 55, 80
2, 114720, Note_on_c, 0, 60, 80
2, 114947, Note_on_c, 0, 52, 0
2, 114947, Note_on_c, 0, 55, 0
2, 114947, Note_on_c, 0, 60, 0
2, 115200, Note_on_c, 0, 55, 80
2, 115200, Note_on_c, 0, 58, 80
2, 115200, Note_on_c, 0, 62, 80
2, 115427, Note_on_c, 0, 55, 0
2, 115427, Note_on_c, 0, 58, 0
2, 115427, Note_on_c, 0, 62, 0
2, 116160, Note_on_c, 0, 55, 80
2, 116160, Note_on_c, 0, 58, 80
2, 116160, Note_on_c, 0, 62, 80
2, 116387, Note_on_c, 0, 55, 0
2, 116387, Note_on_c, 0, 58, 0
2, 116387, Note_on_c, 0, 62, 0
2, 116640, Note_on_c, 0, 52, 80
2, 116640, Note_on_c, 0, 55, 80
2, 116640, Note_on_c, 0, 60, 80
2, 116867, Note_on_c, 0, 52, 0
2, 116867, Note_on_c, 0, 55, 0
2, 116867, Note_on_c, 0, 60, 0
2, 117120, Note_on_c, 0, 55, 80
2, 117120, Note_on_c, 0, 58, 80
2, 117120, Note_on_c, 0, 62, 80
2, 117347, Note_on_c, 0, 55, 0
2, 117347, Note_on_c, 0, 58, 0
2, 117347, Note_on_c, 0, 62, 0
2, 117600, Note_on_c, 0, 51, 80
2, 117600, Note_on_c, 0, 55, 80
2, 117600, Note_on_c, 0, 60, 80
2, 117827, Note_on_c, 0, 51, 0
2, 117827, Note_on_c, 0, 55, 0
2, 117827, Note_on_c, 0, 60, 0
2, 118080, Note_on_c, 0, 50, 80
2, 118080, Note_on_c, 0, 55, 80
2, 118080, Note_on_c, 0, 58, 80
2, 118307, Note_on_c, 0, 50, 0
2, 118307, Note_on_c, 0, 55, 0
2, 118307, Note_on_c, 0, 58, 0
2, 118560, Note_on_c, 0, 48, 80
2, 118560, Note_on_c, 0, 50, 80
2, 118560, Note_on_c, 0, 54, 80
2, 118560, Note_on_c, 0, 57, 80
2, 118787, Note_on_c, 0, 48, 0
2, 118787, Note_on_c, 0, 50, 0
2, 118787, Note_on_c, 0, 54, 0
2, 118787, Note_on_c, 0, 57, 0
2, 119040, Note_on_c, 0, 46, 80
2, 119040, Note_on_c, 0, 50, 80
2, 119040, Note_on_c, 0, 55, 80
2, 119267, Note_on_c, 0, 46, 0
2, 119267, Note_on_c, 0, 50, 0
2, 119267, Note_on_c, 0, 55, 0
2, 119520, Note_on_c, 0, 55, 80
2, 119520, Note_on_c, 0, 58, 80
2, 119520, Note_on_c, 0, 62, 80
2, 119747, Note_on_c, 0, 55, 0
2, 119747, Note_on_c, 0, 58, 0
2, 119747, Note_on_c, 0, 62, 0
2, 120000, Note_on_c, 0, 53, 80
2, 120000, Note_on_c, 0, 57, 80
2, 120000, Note_on_c, 0, 62, 80
2, 120227, Note_on_c, 0, 53, 0
2, 120227, Note_on_c, 0, 57, 0
2, 120227, Note_on_c, 0, 62, 0
2, 120480, Note_on_c, 0, 52, 88
2, 120480, Note_on_c, 0, 55, 88
2, 120480, Note_on_c, 0, 61, 88
2, 120707, Note_on_c, 0, 52, 0
2, 120707, Note_on_c, 0, 55, 0
2, 120707, Note_on_c, 0, 61, 0
2, 120960, Note_on_c, 0, 50, 115
2, 120960, Note_on_c, 0, 53, 115
2, 120960, Note_on_c, 0, 57, 115
2, 121199, Note_on_c, 0, 50, 0
2, 121199, Note_on_c, 0, 53, 0
2, 121199, Note_on_c, 0, 57, 0
2, 121200, Note_on_c, 0, 53, 115
2, 121200, Note_on_c, 0, 57, 115
2, 121200, Note_on_c, 0, 62, 115
2, 121439, Note_on_c, 0, 53, 0
2, 121439, Note_on_c, 0, 57, 0
2, 121439, Note_on_c, 0, 62, 0
2, 121920, Note_on_c, 0, 50, 96
2, 121920, Note_on_c, 0, 53, 96
2, 121920, Note_on_c, 0, 57, 96
2, 122147, Note_on_c, 0, 50, 0
2, 122147, Note_on_c, 0, 53, 0
2, 122147, Note_on_c, 0, 57, 0
2, 122400, Note_on_c, 0, 47, 96
2, 122400, Note_on_c, 0, 50, 96
2, 122400, Note_on_c, 0, 55, 96
2, 122627, Note_on_c, 0, 47, 0
2, 122627, Note_on_c, 0, 50, 0
2, 122627, Note_on_c, 0, 55, 0
2, 122880, Note_on_c, 0, 50, 115
2, 122880, Note_on_c, 0, 53, 115
2, 122880, Note_on_c, 0, 57, 115
2, 123119, Note_on_c, 0, 50, 0
2, 123119, Note_on_c, 0, 53, 0
2, 123119, Note_on_c, 0, 57, 0
2, 123120, Note_on_c, 0, 53, 115
2, 123120, Note_on_c, 0, 57, 115
2, 123120, Note_on_c, 0, 62, 115
2, 123359, Note_on_c, 0, 53, 0
2, 123359, Note_on_c, 0, 57, 0
2, 123359, Note_on_c, 0, 62, 0
2, 123840, Note_on_c, 0, 50, 96
2, 123840, Note_on_c, 0, 53, 96
2, 123840, Note_on_c, 0, 57, 96
2, 124067, Note_on_c, 0, 50, 0
2, 124067, Note_on_c, 0, 53, 0
2, 124067, Note_on_c, 0, 57, 0
2, 124320, Note_on_c, 0, 47, 96
2, 124320, Note_on_c, 0, 50, 96
2, 124320, Note_on_c, 0, 55, 96
2, 124547, Note_on_c, 0, 47, 0
2, 124547, Note_on_c, 0, 50, 0
2, 124547, Note_on_c, 0, 55, 0
2, 124800, Note_on_c, 0, 50, 96
2, 124800, Note_on_c, 0, 53, 96
2, 124800, Note_on_c, 0, 57, 96
2, 125027, Note_on_c, 0, 50, 0
2, 125027, Note_on_c, 0, 53, 0
2, 125027, Note_on_c, 0, 57, 0
2, 125280, Note_on_c, 0, 74, 80
2, 125399, Note_on_c, 0, 74, 0
2, 125520, Note_on_c, 0, 70, 80
2, 125639, Note_on_c, 0, 70, 0
2, 125760, Note_on_c, 0, 67, 80
2, 125879, Note_on_c, 0, 67, 0
2, 126000, Note_on_c, 0, 64, 80
2, 126119, Note_on_c, 0, 64, 0
2, 126240, Note_on_c, 0, 67, 80
2, 126359, Note_on_c, 0, 67, 0
2, 126480, Note_on_c, 0, 70, 80
2, 126599, Note_on_c, 0, 70, 0
2, 126720, Note_on_c, 0, 74, 80
2, 126839, Note_on_c, 0, 74, 0
2, 127680, Note_on_c, 0, 57, 80
2, 127680, Note_on_c, 0, 61, 80
2, 127680, Note_on_c, 0, 67, 80
2, 127680, Note_on_c, 0, 69, 80
2, 127907, Note_on_c, 0, 57, 0
2, 127907, Note_on_c, 0, 61, 0
2, 127907, Note_on_c, 0, 67, 0
2, 127907, Note_on_c, 0, 69, 0
2, 128640, Note_on_c, 0, 62, 80
2, 128640, Note_on_c, 0, 65, 80
2, 128867, Note_on_c, 0, 62, 0
2, 128867, Note_on_c, 0, 65, 0
2, 129120, Note_on_c, 0, 98, 80
2, 129239, Note_on_c, 0, 98, 0
2, 129360, Note_on_c, 0, 94, 80
2, 129479, Note_on_c, 0, 94, 0
2, 129600, Note_on_c, 0, 91, 80
2, 129719, Note_on_c, 0, 91, 0
2, 129840, Note_on_c, 0, 88, 80
2, 129959, Note_on_c, 0, 88, 0
2, 130080, Note_on_c, 0, 91, 80
2, 130199, Note_on_c, 0, 91, 0
2, 130320, Note_on_c, 0, 94, 80
2, 130439, Note_on_c, 0, 94, 0
2, 130560, Note_on_c, 0, 98, 80
2, 130679, Note_on_c, 0, 98, 0
2, 131520, Note_on_c, 0, 57, 80
2, 131520, Note_on_c, 0, 61, 80
2, 131520, Note_on_c, 0, 70, 80
2, 131520, Note_on_c, 0, 72, 80
2, 131639, Note_on_c, 0, 57, 0
2, 131639, Note_on_c, 0, 61, 0
2, 131639, Note_on_c, 0, 70, 0
2, 131639, Note_on_c, 0, 72, 0
2, 132480, Note_on_c, 0, 62, 96
2, 132480, Note_on_c, 0, 65, 96
2, 132480, Note_on_c, 0, 69, 96
2, 132707, Note_on_c, 0, 62, 0
2, 132707, Note_on_c, 0, 65, 0
2, 132707, Note_on_c, 0, 69, 0
2, 132960, Note_on_c, 0, 62, 96
2, 132960, Note_on_c, 0, 66, 96
2, 132960, Note_on_c, 0, 72, 96
2, 132960, Note_on_c, 0, 74, 96
2, 133187, Note_on_c, 0, 62, 0
2, 133187, Note_on_c, 0, 66, 0
2, 133187, Note_on_c, 0, 72, 0
2, 133187, Note_on_c, 0, 74, 0
2, 133440, Note_on_c, 0, 62, 80
2, 133440, Note_on_c, 0, 67, 80
2, 133440, Note_on_c, 0, 70, 80
2, 133667, Note_on_c, 0, 62, 0
2, 133667, Note_on_c, 0, 67, 0
2, 133667, Note_on_c, 0, 70, 0
2, 134400, Note_on_c, 0, 50, 80
2, 134400, Note_on_c, 0, 53, 80
2, 134400, Note_on_c, 0, 57, 80
2, 134627, Note_on_c, 0, 50, 0
2, 134627, Note_on_c, 0, 53, 0
2, 134627, Note_on_c, 0, 57, 0
2, 134880, Note_on_c, 0, 50, 80
2, 134880, Note_on_c, 0, 54, 80
2, 134880, Note_on_c, 0, 57, 80
2, 135107, Note_on_c, 0, 50, 0
2, 135107, Note_on_c, 0, 54, 0
2, 135107, Note_on_c, 0, 57, 0
2, 135360, Note_on_c, 0, 50, 33
2, 135360, Note_on_c, 0, 55, 33
2, 135360, Note_on_c, 0, 58, 33
2, 135587, Note_on_c, 0, 50, 0
2, 135587, Note_on_c, 0, 55, 0
2, 135587, Note_on_c, 0, 58, 0
2, 136320, Note_on_c, 0, 50, 33
2, 136320, Note_on_c, 0, 53, 33
2, 136320, Note_on_c, 0, 57, 33
2, 136547, Note_on_c, 0, 50, 0
2, 136547, Note_on_c, 0, 53, 0
2, 136547, Note_on_c, 0, 57, 0
2, 136800, Note_on_c, 0, 61, 39
2, 136800, Note_on_c, 0, 63, 39
2, 136919, Note_on_c, 0, 61, 0
2, 136919, Note_on_c, 0, 63, 0
2, 136920, Note_on_c, 0, 62, 33
2, 137033, Note_on_c, 0, 62, 0
2, 137040, Note_on_c, 0, 61, 33
2, 137040, Note_on_c, 0, 63, 33
2, 137153, Note_on_c, 0, 61, 0
2, 137153, Note_on_c, 0, 63, 0
2, 137160, Note_on_c, 0, 75, 33
2, 137273, Note_on_c, 0, 75, 0
2, 137280, Note_on_c, 0, 62, 33
2, 137393, Note_on_c, 0, 62, 0
2, 137400, Note_on_c, 0, 63, 33
2, 137513, Note_on_c, 0, 63, 0
2, 137520, Note_on_c, 0, 61, 33
2, 137520, Note_on_c, 0, 62, 33
2, 137633, Note_on_c, 0, 61, 0
2, 137633, Note_on_c, 0, 62, 0
2, 137640, Note_on_c, 0, 64, 33
2, 137753, Note_on_c, 0, 64, 0
2, 137760, Note_on_c, 0, 60, 33
2, 137760, Note_on_c, 0, 62, 33
2, 137873, Note_on_c, 0, 60, 0
2, 137873, Note_on_c, 0, 62, 0
2, 137880, Note_on_c, 0, 65, 33
2, 137993, Note_on_c, 0, 65, 0
2, 138000, Note_on_c, 0, 58, 33
2, 138000, Note_on_c, 0, 62, 33
2, 138113, Note_on_c, 0, 58, 0
2, 138113, Note_on_c, 0, 62, 0
2, 138120, Note_on_c, 0, 67, 33
2, 138233, Note_on_c, 0, 67, 0
2, 138240, Note_on_c, 0, 50, 33
2, 138240, Note_on_c, 0, 53, 33
2, 138240, Note_on_c, 0, 57, 33
2, 138353, Note_on_c, 0, 50, 0
2, 138353, Note_on_c, 0, 53, 0
2, 138353, Note_on_c, 0, 57, 0
2, 138720, Note_on_c, 0, 68, 39
2, 138720, Note_on_c, 0, 70, 39
2, 138839, Note_on_c, 0, 68, 0
2, 138839, Note_on_c, 0, 70, 0
2, 138840, Note_on_c, 0, 69, 33
2, 138840, Note_on_c, 0, 81, 33
2, 138953, Note_on_c, 0, 69, 0
2, 138953, Note_on_c, 0, 81, 0
2, 138960, Note_on_c, 0, 68, 33
2, 138960, Note_on_c, 0, 70, 33
2, 139073, Note_on_c, 0, 68, 0
2, 139073, Note_on_c, 0, 70, 0
2, 139080, Note_on_c, 0, 82, 33
2, 139193, Note_on_c, 0, 82, 0
2, 139200, Note_on_c, 0, 69, 33
2, 139313, Note_on_c, 0, 69, 0
2, 139320, Note_on_c, 0, 70, 33
2, 139433, Note_on_c, 0, 70, 0
2, 139440, Note_on_c, 0, 67, 33
2, 139440, Note_on_c, 0, 69, 33
2, 139553, Note_on_c, 0, 67, 0
2, 139553, Note_on_c, 0, 69, 0
2, 139560, Note_on_c, 0, 71, 33
2, 139560, Note_on_c, 0, 83, 33
2, 139673, Note_on_c, 0, 71, 0
2, 139673, Note_on_c, 0, 83, 0
2, 139680, Note_on_c, 0, 65, 33
2, 139680, Note_on_c, 0, 69, 33
2, 139793, Note_on_c, 0, 65, 0
2, 139793, Note_on_c, 0, 69, 0
2, 139800, Note_on_c, 0, 72, 33
2, 139800, Note_on_c, 0, 84, 33
2, 139913, Note_on_c, 0, 72, 0
2, 139913, Note_on_c, 0, 84, 0
2, 139920, Note_on_c, 0, 64, 33
2, 139920, Note_on_c, 0, 67, 33
2, 139920, Note_on_c, 0, 69, 33
2, 140033, Note_on_c, 0, 64, 0
2, 140033, Note_on_c, 0, 67, 0
2, 140033, Note_on_c, 0, 69, 0
2, 140040, Note_on_c, 0, 73, 33
2, 140040, Note_on_c, 0, 85, 33
2, 140153, Note_on_c, 0, 73, 0
2, 140153, Note_on_c, 0, 85, 0
2, 140160, Note_on_c, 0, 62, 33
2, 140160, Note_on_c, 0, 65, 33
2, 140160, Note_on_c, 0, 69, 33
2, 140387, Note_on_c, 0, 62, 0
2, 140387, Note_on_c, 0, 65, 0
2, 140387, Note_on_c, 0, 69, 0
2, 142080, Note_on_c, 0, 62, 33
2, 142080, Note_on_c, 0, 65, 33
2, 142080, Note_on_c, 0, 69, 33
2, 142307, Note_on_c, 0, 62, 0
2, 142307, Note_on_c, 0, 65, 0
2, 142307, Note_on_c, 0, 69, 0
2, 143040, Note_on_c, 0, 69, 33
2, 143040, Note_on_c, 0, 74, 33
2, 143040, Note_on_c, 0, 81, 33
2, 143267, Note_on_c, 0, 69, 0
2, 143267, Note_on_c, 0, 74, 0
2, 143267, Note_on_c, 0, 81, 0
2, 144000, Note_on_c, 0, 65, 33
2, 144000, Note_on_c, 0, 69, 33
2, 144227, Note_on_c, 0, 65, 0
2, 144227, Note_on_c, 0, 69, 0
2, 144960, Note_on_c, 0, 62, 33
2, 144960, Note_on_c, 0, 65, 33
2, 144960, Note_on_c, 0, 69, 33
2, 145415, Note_on_c, 0, 62, 0
2, 145415, Note_on_c, 0, 65, 0
2, 145415, Note_on_c, 0, 69, 0
2, 145920, Note_on_c, 0, 38, 33
2, 145920, Note_on_c, 0, 50, 33
2, 146375, Note_on_c, 0, 38, 0
2, 146375, Note_on_c, 0, 50, 0
2, 146376, End_track
0, 0, End_of_file
