0, 0, Header, 1, 2, 480
1, 0, Start_track
1, 0, Unknown_meta_event, 8, 10, 70, 252, 114, 32, 69, 108, 105, 115, 101, 0
1, 0, Unknown_meta_event, 10, 10, 66, 101, 101, 116, 104, 111, 118, 101, 110, 0
1, 0, Time_signature, 1, 3, 24, 8
1, 0, Key_signature, 0, "major"
1, 0, Tempo, 789476
1, 0, Program_c, 0, 0
1, 0, Note_on_c, 0, 76, 80
1, 2, Control_c, 0, 7, 100
1, 4, Control_c, 0, 10, 63
1, 6, Control_c, 0, 91, 30
1, 8, Control_c, 0, 93, 30
1, 119, Note_on_c, 0, 76, 0
1, 120, Note_on_c, 0, 75, 80
1, 239, Note_on_c, 0, 75, 0
1, 240, Time_signature, 3, 3, 24, 8
1, 240, Note_on_c, 0, 76, 80
1, 359, Note_on_c, 0, 76, 0
1, 360, Note_on_c, 0, 75, 80
1, 479, Note_on_c, 0, 75, 0
1, 480, Note_on_c, 0, 76, 80
1, 599, Note_on_c, 0, 76, 0
1, 600, Note_on_c, 0, 71, 80
1, 719, Note_on_c, 0, 71, 0
1, 720, Note_on_c, 0, 74, 80
1, 839, Note_on_c, 0, 74, 0
1, 840, Note_on_c, 0, 72, 80
1, 959, Note_on_c, 0, 72, 0
1, 960, Note_on_c, 0, 69, 80
1, 1199, Note_on_c, 0, 69, 0
1, 1320, Note_on_c, 0, 60, 80
1, 1439, Note_on_c, 0, 60, 0
1, 1440, Note_on_c, 0, 64, 80
1, 1559, Note_on_c, 0, 64, 0
1, 1560, Note_on_c, 0, 69, 80
1, 1679, Note_on_c, 0, 69, 0
1, 1680, Note_on_c, 0, 71, 80
1, 1919, Note_on_c, 0, 71, 0
1, 2040, Note_on_c, 0, 64, 80
1, 2159, Note_on_c, 0, 64, 0
1, 2160, Note_on_c, 0, 68, 80
1, 2279, Note_on_c, 0, 68, 0
1, 2280, Note_on_c, 0, 71, 80
1, 2399, Note_on_c, 0, 71, 0
1, 2400, Note_on_c, 0, 72, 80
1, 2639, Note_on_c, 0, 72, 0
1, 2760, Note_on_c, 0, 64, 80
1, 2879, Note_on_c, 0, 64, 0
1, 2880, Note_on_c, 0, 76, 80
1, 2999, Note_on_c, 0, 76, 0
1, 3000, Note_on_c, 0, 75, 80
1, 3119, Note_on_c, 0, 75, 0
1, 3120, Note_on_c, 0, 76, 80
1, 3239, Note_on_c, 0, 76, 0
1, 3240, Note_on_c, 0, 75, 80
1, 3359, Note_on_c, 0, 75, 0
1, 3360, Note_on_c, 0, 76, 80
1, 3479, Note_on_c, 0, 76, 0
1, 3480, Note_on_c, 0, 71, 80
1, 3599, Note_on_c, 0, 71, 0
1, 3600, Note_on_c, 0, 74, 80
1, 3719, Note_on_c, 0, 74, 0
1, 3720, Note_on_c, 0, 72, 80
1, 3839, Note_on_c, 0, 72, 0
1, 3840, Note_on_c, 0, 69, 80
1, 4079, Note_on_c, 0, 69, 0
1, 4200, Note_on_c, 0, 60, 80
1, 4319, Note_on_c, 0, 60, 0
1, 4320, Note_on_c, 0, 64, 80
1, 4439, Note_on_c, 0, 64, 0
1, 4440, Note_on_c, 0, 69, 80
1, 4559, Note_on_c, 0, 69, 0
1, 4560, Note_on_c, 0, 71, 80
1, 4799, Note_on_c, 0, 71, 0
1, 4920, Note_on_c, 0, 64, 80
1, 5039, Note_on_c, 0, 64, 0
1, 5040, Note_on_c, 0, 72, 80
1, 5159, Note_on_c, 0, 72, 0
1, 5160, Note_on_c, 0, 71, 80
1, 5279, Note_on_c, 0, 71, 0
1, 5280, Time_signature, 1, 2, 24, 8
1, 5280, Note_on_c, 0, 69, 80
1, 5759, Note_on_c, 0, 69, 0
1, 5760, Time_signature, 1, 3, 24, 8
1, 5760, Key_signature, 0, "major"
1, 5760, Tempo, 789476
1, 5760, Note_on_c, 0, 76, 80
1, 5879, Note_on_c, 0, 76, 0
1, 5880, Note_on_c, 0, 75, 80
1, 5999, Note_on_c, 0, 75, 0
1, 6000, Time_signature, 3, 3, 24, 8
1, 6000, Note_on_c, 0, 76, 80
1, 6119, Note_on_c, 0, 76, 0
1, 6120, Note_on_c, 0, 75, 80
1, 6239, Note_on_c, 0, 75, 0
1, 6240, Note_on_c, 0, 76, 80
1, 6359, Note_on_c, 0, 76, 0
1, 6360, Note_on_c, 0, 71, 80
1, 6479, Note_on_c, 0, 71, 0
1, 6480, Note_on_c, 0, 74, 80
1, 6599, Note_on_c, 0, 74, 0
1, 6600, Note_on_c, 0, 72, 80
1, 6719, Note_on_c, 0, 72, 0
1, 6720, Note_on_c, 0, 69, 80
1, 6959, Note_on_c, 0, 69, 0
1, 7080, Note_on_c, 0, 60, 80
1, 7199, Note_on_c, 0, 60, 0
1, 7200, Note_on_c, 0, 64, 80
1, 7319, Note_on_c, 0, 64, 0
1, 7320, Note_on_c, 0, 69, 80
1, 7439, Note_on_c, 0, 69, 0
1, 7440, Note_on_c, 0, 71, 80
1, 7679, Note_on_c, 0, 71, 0
1, 7800, Note_on_c, 0, 64, 80
1, 7919, Note_on_c, 0, 64, 0
1, 7920, Note_on_c, 0, 68, 80
1, 8039, Note_on_c, 0, 68, 0
1, 8040, Note_on_c, 0, 71, 80
1, 8159, Note_on_c, 0, 71, 0
1, 8160, Note_on_c, 0, 72, 80
1, 8399, Note_on_c, 0, 72, 0
1, 8520, Note_on_c, 0, 64, 80
1, 8639, Note_on_c, 0, 64, 0
1, 8640, Note_on_c, 0, 76, 80
1, 8759, Note_on_c, 0, 76, 0
1, 8760, Note_on_c, 0, 75, 80
1, 8879, Note_on_c, 0, 75, 0
1, 8880, Note_on_c, 0, 76, 80
1, 8999, Note_on_c, 0, 76, 0
1, 9000, Note_on_c, 0, 75, 80
1, 9119, Note_on_c, 0, 75, 0
1, 9120, Note_on_c, 0, 76, 80
1, 9239, Note_on_c, 0, 76, 0
1, 9240, Note_on_c, 0, 71, 80
1, 9359, Note_on_c, 0, 71, 0
1, 9360, Note_on_c, 0, 74, 80
1, 9479, Note_on_c, 0, 74, 0
1, 9480, Note_on_c, 0, 72, 80
1, 9599, Note_on_c, 0, 72, 0
1, 9600, Note_on_c, 0, 69, 80
1, 9839, Note_on_c, 0, 69, 0
1, 9960, Note_on_c, 0, 60, 80
1, 10079, Note_on_c, 0, 60, 0
1, 10080, Note_on_c, 0, 64, 80
1, 10199, Note_on_c, 0, 64, 0
1, 10200, Note_on_c, 0, 69, 80
1, 10319, Note_on_c, 0, 69, 0
1, 10320, Note_on_c, 0, 71, 80
1, 10559, Note_on_c, 0, 71, 0
1, 10680, Note_on_c, 0, 64, 80
1, 10799, Note_on_c, 0, 64, 0
1, 10800, Note_on_c, 0, 72, 80
1, 10919, Note_on_c, 0, 72, 0
1, 10920, Note_on_c, 0, 71, 80
1, 11039, Note_on_c, 0, 71, 0
1, 11040, Time_signature, 3, 3, 24, 8
1, 11040, Note_on_c, 0, 69, 80
1, 11279, Note_on_c, 0, 69, 0
1, 11400, Note_on_c, 0, 71, 80
1, 11519, Note_on_c, 0, 71, 0
1, 11520, Note_on_c, 0, 72, 80
1, 11639, Note_on_c, 0, 72, 0
1, 11640, Note_on_c, 0, 74, 80
1, 11759, Note_on_c, 0, 74, 0
1, 11760, Note_on_c, 0, 76, 80
1, 12119, Note_on_c, 0, 76, 0
1, 12120, Note_on_c, 0, 67, 80
1, 12239, Note_on_c, 0, 67, 0
1, 12240, Note_on_c, 0, 77, 80
1, 12359, Note_on_c, 0, 77, 0
1, 12360, Note_on_c, 0, 76, 80
1, 12479, Note_on_c, 0, 76, 0
1, 12480, Note_on_c, 0, 74, 80
1, 12839, Note_on_c, 0, 74, 0
1, 12840, Note_on_c, 0, 65, 80
1, 12959, Note_on_c, 0, 65, 0
1, 12960, Note_on_c, 0, 76, 80
1, 13079, Note_on_c, 0, 76, 0
1, 13080, Note_on_c, 0, 74, 80
1, 13199, Note_on_c, 0, 74, 0
1, 13200, Note_on_c, 0, 72, 80
1, 13559, Note_on_c, 0, 72, 0
1, 13560, Note_on_c, 0, 64, 80
1, 13679, Note_on_c, 0, 64, 0
1, 13680, Note_on_c, 0, 74, 80
1, 13799, Note_on_c, 0, 74, 0
1, 13800, Note_on_c, 0, 72, 80
1, 13919, Note_on_c, 0, 72, 0
1, 13920, Note_on_c, 0, 71, 80
1, 14159, Note_on_c, 0, 71, 0
1, 14280, Note_on_c, 0, 64, 80
1, 14399, Note_on_c, 0, 64, 0
1, 14400, Note_on_c, 0, 76, 80
1, 14519, Note_on_c, 0, 76, 0
1, 14520, Note_on_c, 0, 64, 80
1, 14639, Note_on_c, 0, 64, 0
1, 14640, Note_on_c, 0, 76, 80
1, 14759, Note_on_c, 0, 76, 0
1, 14760, Note_on_c, 0, 76, 80
1, 14879, Note_on_c, 0, 76, 0
1, 14880, Note_on_c, 0, 88, 80
1, 14999, Note_on_c, 0, 88, 0
1, 15000, Note_on_c, 0, 75, 80
1, 15119, Note_on_c, 0, 75, 0
1, 15120, Note_on_c, 0, 76, 80
1, 15239, Note_on_c, 0, 76, 0
1, 15240, Note_on_c, 0, 75, 80
1, 15359, Note_on_c, 0, 75, 0
1, 15360, Note_on_c, 0, 76, 80
1, 15479, Note_on_c, 0, 76, 0
1, 15480, Note_on_c, 0, 75, 80
1, 15599, Note_on_c, 0, 75, 0
1, 15600, Note_on_c, 0, 76, 80
1, 15719, Note_on_c, 0, 76, 0
1, 15720, Note_on_c, 0, 75, 80
1, 15839, Note_on_c, 0, 75, 0
1, 15840, Note_on_c, 0, 76, 80
1, 15959, Note_on_c, 0, 76, 0
1, 15960, Note_on_c, 0, 75, 80
1, 16079, Note_on_c, 0, 75, 0
1, 16080, Note_on_c, 0, 76, 80
1, 16199, Note_on_c, 0, 76, 0
1, 16200, Note_on_c, 0, 75, 80
1, 16319, Note_on_c, 0, 75, 0
1, 16320, Note_on_c, 0, 76, 80
1, 16439, Note_on_c, 0, 76, 0
1, 16440, Note_on_c, 0, 71, 80
1, 16559, Note_on_c, 0, 71, 0
1, 16560, Note_on_c, 0, 74, 80
1, 16679, Note_on_c, 0, 74, 0
1, 16680, Note_on_c, 0, 72, 80
1, 16799, Note_on_c, 0, 72, 0
1, 16800, Note_on_c, 0, 69, 80
1, 17039, Note_on_c, 0, 69, 0
1, 17160, Note_on_c, 0, 60, 80
1, 17279, Note_on_c, 0, 60, 0
1, 17280, Note_on_c, 0, 64, 80
1, 17399, Note_on_c, 0, 64, 0
1, 17400, Note_on_c, 0, 69, 80
1, 17519, Note_on_c, 0, 69, 0
1, 17520, Note_on_c, 0, 71, 80
1, 17759, Note_on_c, 0, 71, 0
1, 17880, Note_on_c, 0, 64, 80
1, 17999, Note_on_c, 0, 64, 0
1, 18000, Note_on_c, 0, 68, 80
1, 18119, Note_on_c, 0, 68, 0
1, 18120, Note_on_c, 0, 71, 80
1, 18239, Note_on_c, 0, 71, 0
1, 18240, Note_on_c, 0, 72, 80
1, 18479, Note_on_c, 0, 72, 0
1, 18600, Note_on_c, 0, 64, 80
1, 18719, Note_on_c, 0, 64, 0
1, 18720, Note_on_c, 0, 76, 80
1, 18839, Note_on_c, 0, 76, 0
1, 18840, Note_on_c, 0, 75, 80
1, 18959, Note_on_c, 0, 75, 0
1, 18960, Note_on_c, 0, 76, 80
1, 19079, Note_on_c, 0, 76, 0
1, 19080, Note_on_c, 0, 75, 80
1, 19199, Note_on_c, 0, 75, 0
1, 19200, Note_on_c, 0, 76, 80
1, 19319, Note_on_c, 0, 76, 0
1, 19320, Note_on_c, 0, 71, 80
1, 19439, Note_on_c, 0, 71, 0
1, 19440, Note_on_c, 0, 74, 80
1, 19559, Note_on_c, 0, 74, 0
1, 19560, Note_on_c, 0, 72, 80
1, 19679, Note_on_c, 0, 72, 0
1, 19680, Note_on_c, 0, 69, 80
1, 19919, Note_on_c, 0, 69, 0
1, 20040, Note_on_c, 0, 60, 80
1, 20159, Note_on_c, 0, 60, 0
1, 20160, Note_on_c, 0, 64, 80
1, 20279, Note_on_c, 0, 64, 0
1, 20280, Note_on_c, 0, 69, 80
1, 20399, Note_on_c, 0, 69, 0
1, 20400, Note_on_c, 0, 71, 80
1, 20639, Note_on_c, 0, 71, 0
1, 20760, Note_on_c, 0, 64, 80
1, 20879, Note_on_c, 0, 64, 0
1, 20880, Note_on_c, 0, 72, 80
1, 20999, Note_on_c, 0, 72, 0
1, 21000, Note_on_c, 0, 71, 80
1, 21119, Note_on_c, 0, 71, 0
1, 21120, Note_on_c, 0, 69, 80
1, 21359, Note_on_c, 0, 69, 0
1, 21480, Note_on_c, 0, 71, 80
1, 21599, Note_on_c, 0, 71, 0
1, 21600, Note_on_c, 0, 72, 80
1, 21719, Note_on_c, 0, 72, 0
1, 21720, Note_on_c, 0, 74, 80
1, 21839, Note_on_c, 0, 74, 0
1, 21840, Note_on_c, 0, 76, 80
1, 22199, Note_on_c, 0, 76, 0
1, 22200, Note_on_c, 0, 67, 80
1, 22319, Note_on_c, 0, 67, 0
1, 22320, Note_on_c, 0, 77, 80
1, 22439, Note_on_c, 0, 77, 0
1, 22440, Note_on_c, 0, 76, 80
1, 22559, Note_on_c, 0, 76, 0
1, 22560, Note_on_c, 0, 74, 80
1, 22919, Note_on_c, 0, 74, 0
1, 22920, Note_on_c, 0, 65, 80
1, 23039, Note_on_c, 0, 65, 0
1, 23040, Note_on_c, 0, 76, 80
1, 23159, Note_on_c, 0, 76, 0
1, 23160, Note_on_c, 0, 74, 80
1, 23279, Note_on_c, 0, 74, 0
1, 23280, Note_on_c, 0, 72, 80
1, 23639, Note_on_c, 0, 72, 0
1, 23640, Note_on_c, 0, 64, 80
1, 23759, Note_on_c, 0, 64, 0
1, 23760, Note_on_c, 0, 74, 80
1, 23879, Note_on_c, 0, 74, 0
1, 23880, Note_on_c, 0, 72, 80
1, 23999, Note_on_c, 0, 72, 0
1, 24000, Note_on_c, 0, 71, 80
1, 24239, Note_on_c, 0, 71, 0
1, 24360, Note_on_c, 0, 64, 80
1, 24479, Note_on_c, 0, 64, 0
1, 24480, Note_on_c, 0, 76, 80
1, 24599, Note_on_c, 0, 76, 0
1, 24600, Note_on_c, 0, 64, 80
1, 24719, Note_on_c, 0, 64, 0
1, 24720, Note_on_c, 0, 76, 80
1, 24839, Note_on_c, 0, 76, 0
1, 24840, Note_on_c, 0, 76, 80
1, 24959, Note_on_c, 0, 76, 0
1, 24960, Note_on_c, 0, 88, 80
1, 25079, Note_on_c, 0, 88, 0
1, 25080, Note_on_c, 0, 75, 80
1, 25199, Note_on_c, 0, 75, 0
1, 25200, Note_on_c, 0, 76, 80
1, 25319, Note_on_c, 0, 76, 0
1, 25320, Note_on_c, 0, 75, 80
1, 25439, Note_on_c, 0, 75, 0
1, 25440, Note_on_c, 0, 76, 80
1, 25559, Note_on_c, 0, 76, 0
1, 25560, Note_on_c, 0, 75, 80
1, 25679, Note_on_c, 0, 75, 0
1, 25680, Note_on_c, 0, 76, 80
1, 25799, Note_on_c, 0, 76, 0
1, 25800, Note_on_c, 0, 75, 80
1, 25919, Note_on_c, 0, 75, 0
1, 25920, Note_on_c, 0, 76, 80
1, 26039, Note_on_c, 0, 76, 0
1, 26040, Note_on_c, 0, 75, 80
1, 26159, Note_on_c, 0, 75, 0
1, 26160, Note_on_c, 0, 76, 80
1, 26279, Note_on_c, 0, 76, 0
1, 26280, Note_on_c, 0, 75, 80
1, 26399, Note_on_c, 0, 75, 0
1, 26400, Note_on_c, 0, 76, 80
1, 26519, Note_on_c, 0, 76, 0
1, 26520, Note_on_c, 0, 71, 80
1, 26639, Note_on_c, 0, 71, 0
1, 26640, Note_on_c, 0, 74, 80
1, 26759, Note_on_c, 0, 74, 0
1, 26760, Note_on_c, 0, 72, 80
1, 26879, Note_on_c, 0, 72, 0
1, 26880, Note_on_c, 0, 69, 80
1, 27119, Note_on_c, 0, 69, 0
1, 27240, Note_on_c, 0, 60, 80
1, 27359, Note_on_c, 0, 60, 0
1, 27360, Note_on_c, 0, 64, 80
1, 27479, Note_on_c, 0, 64, 0
1, 27480, Note_on_c, 0, 69, 80
1, 27599, Note_on_c, 0, 69, 0
1, 27600, Note_on_c, 0, 71, 80
1, 27839, Note_on_c, 0, 71, 0
1, 27960, Note_on_c, 0, 64, 80
1, 28079, Note_on_c, 0, 64, 0
1, 28080, Note_on_c, 0, 68, 80
1, 28199, Note_on_c, 0, 68, 0
1, 28200, Note_on_c, 0, 71, 80
1, 28319, Note_on_c, 0, 71, 0
1, 28320, Note_on_c, 0, 72, 80
1, 28559, Note_on_c, 0, 72, 0
1, 28680, Note_on_c, 0, 64, 80
1, 28799, Note_on_c, 0, 64, 0
1, 28800, Note_on_c, 0, 76, 80
1, 28919, Note_on_c, 0, 76, 0
1, 28920, Note_on_c, 0, 75, 80
1, 29039, Note_on_c, 0, 75, 0
1, 29040, Note_on_c, 0, 76, 80
1, 29159, Note_on_c, 0, 76, 0
1, 29160, Note_on_c, 0, 75, 80
1, 29279, Note_on_c, 0, 75, 0
1, 29280, Note_on_c, 0, 76, 80
1, 29399, Note_on_c, 0, 76, 0
1, 29400, Note_on_c, 0, 71, 80
1, 29519, Note_on_c, 0, 71, 0
1, 29520, Note_on_c, 0, 74, 80
1, 29639, Note_on_c, 0, 74, 0
1, 29640, Note_on_c, 0, 72, 80
1, 29759, Note_on_c, 0, 72, 0
1, 29760, Note_on_c, 0, 69, 80
1, 29999, Note_on_c, 0, 69, 0
1, 30120, Note_on_c, 0, 60, 80
1, 30239, Note_on_c, 0, 60, 0
1, 30240, Note_on_c, 0, 64, 80
1, 30359, Note_on_c, 0, 64, 0
1, 30360, Note_on_c, 0, 69, 80
1, 30479, Note_on_c, 0, 69, 0
1, 30480, Note_on_c, 0, 71, 80
1, 30719, Note_on_c, 0, 71, 0
1, 30840, Note_on_c, 0, 64, 80
1, 30959, Note_on_c, 0, 64, 0
1, 30960, Note_on_c, 0, 72, 80
1, 31079, Note_on_c, 0, 72, 0
1, 31080, Note_on_c, 0, 71, 80
1, 31199, Note_on_c, 0, 71, 0
1, 31200, Note_on_c, 0, 69, 80
1, 31439, Note_on_c, 0, 69, 0
1, 31560, Note_on_c, 0, 72, 80
1, 31560, Note_on_c, 0, 64, 80
1, 31619, Note_on_c, 0, 72, 0
1, 31619, Note_on_c, 0, 64, 0
1, 31680, Note_on_c, 0, 72, 80
1, 31680, Note_on_c, 0, 65, 80
1, 31739, Note_on_c, 0, 72, 0
1, 31739, Note_on_c, 0, 65, 0
1, 31800, Note_on_c, 0, 65, 80
1, 31800, Note_on_c, 0, 72, 80
1, 31800, Note_on_c, 0, 67, 80
1, 31800, Note_on_c, 0, 64, 80
1, 31859, Note_on_c, 0, 65, 0
1, 31859, Note_on_c, 0, 72, 0
1, 31859, Note_on_c, 0, 67, 0
1, 31859, Note_on_c, 0, 64, 0
1, 31860, Note_on_c, 0, 69, 80
1, 31919, Note_on_c, 0, 69, 0
1, 31920, Note_on_c, 0, 72, 80
1, 32399, Note_on_c, 0, 72, 0
1, 32400, Note_on_c, 0, 77, 80
1, 32579, Note_on_c, 0, 77, 0
1, 32580, Note_on_c, 0, 76, 80
1, 32639, Note_on_c, 0, 76, 0
1, 32640, Note_on_c, 0, 76, 80
1, 32879, Note_on_c, 0, 76, 0
1, 32880, Note_on_c, 0, 74, 80
1, 33119, Note_on_c, 0, 74, 0
1, 33120, Note_on_c, 0, 82, 80
1, 33299, Note_on_c, 0, 82, 0
1, 33300, Note_on_c, 0, 81, 80
1, 33359, Note_on_c, 0, 81, 0
1, 33360, Note_on_c, 0, 81, 80
1, 33479, Note_on_c, 0, 81, 0
1, 33480, Note_on_c, 0, 79, 80
1, 33599, Note_on_c, 0, 79, 0
1, 33600, Note_on_c, 0, 77, 80
1, 33719, Note_on_c, 0, 77, 0
1, 33720, Note_on_c, 0, 76, 80
1, 33839, Note_on_c, 0, 76, 0
1, 33840, Note_on_c, 0, 74, 80
1, 33959, Note_on_c, 0, 74, 0
1, 33960, Note_on_c, 0, 72, 80
1, 34079, Note_on_c, 0, 72, 0
1, 34080, Note_on_c, 0, 70, 80
1, 34319, Note_on_c, 0, 70, 0
1, 34320, Note_on_c, 0, 69, 80
1, 34545, Note_on_c, 0, 70, 80
1, 34559, Note_on_c, 0, 70, 0
1, 34559, Note_on_c, 0, 69, 0
1, 34560, Note_on_c, 0, 69, 80
1, 34619, Note_on_c, 0, 69, 0
1, 34620, Note_on_c, 0, 67, 80
1, 34679, Note_on_c, 0, 67, 0
1, 34680, Note_on_c, 0, 69, 80
1, 34739, Note_on_c, 0, 69, 0
1, 34740, Note_on_c, 0, 70, 80
1, 34799, Note_on_c, 0, 70, 0
1, 34800, Note_on_c, 0, 72, 80
1, 35279, Note_on_c, 0, 72, 0
1, 35280, Note_on_c, 0, 74, 80
1, 35399, Note_on_c, 0, 74, 0
1, 35400, Note_on_c, 0, 75, 80
1, 35519, Note_on_c, 0, 75, 0
1, 35520, Note_on_c, 0, 76, 80
1, 35879, Note_on_c, 0, 76, 0
1, 35880, Note_on_c, 0, 76, 80
1, 35999, Note_on_c, 0, 76, 0
1, 36000, Note_on_c, 0, 77, 80
1, 36119, Note_on_c, 0, 77, 0
1, 36120, Note_on_c, 0, 69, 80
1, 36239, Note_on_c, 0, 69, 0
1, 36240, Note_on_c, 0, 72, 80
1, 36479, Note_on_c, 0, 72, 0
1, 36480, Note_on_c, 0, 74, 80
1, 36539, Note_on_c, 0, 74, 0
1, 36540, Note_on_c, 0, 72, 80
1, 36599, Note_on_c, 0, 72, 0
1, 36600, Note_on_c, 0, 71, 80
1, 36659, Note_on_c, 0, 71, 0
1, 36660, Note_on_c, 0, 72, 80
1, 36719, Note_on_c, 0, 72, 0
1, 36720, Note_on_c, 0, 74, 80
1, 36899, Note_on_c, 0, 74, 0
1, 36900, Note_on_c, 0, 71, 80
1, 36959, Note_on_c, 0, 71, 0
1, 36960, Note_on_c, 0, 72, 80
1, 37019, Note_on_c, 0, 72, 0
1, 37020, Note_on_c, 0, 79, 80
1, 37079, Note_on_c, 0, 79, 0
1, 37080, Note_on_c, 0, 67, 80
1, 37139, Note_on_c, 0, 67, 0
1, 37140, Note_on_c, 0, 79, 80
1, 37199, Note_on_c, 0, 79, 0
1, 37200, Note_on_c, 0, 69, 80
1, 37259, Note_on_c, 0, 69, 0
1, 37260, Note_on_c, 0, 79, 80
1, 37319, Note_on_c, 0, 79, 0
1, 37320, Note_on_c, 0, 71, 80
1, 37379, Note_on_c, 0, 71, 0
1, 37380, Note_on_c, 0, 79, 80
1, 37439, Note_on_c, 0, 79, 0
1, 37440, Note_on_c, 0, 72, 80
1, 37499, Note_on_c, 0, 72, 0
1, 37500, Note_on_c, 0, 79, 80
1, 37559, Note_on_c, 0, 79, 0
1, 37560, Note_on_c, 0, 74, 80
1, 37619, Note_on_c, 0, 74, 0
1, 37620, Note_on_c, 0, 79, 80
1, 37679, Note_on_c, 0, 79, 0
1, 37680, Note_on_c, 0, 76, 49
1, 37739, Note_on_c, 0, 76, 0
1, 37740, Note_on_c, 0, 79, 49
1, 37799, Note_on_c, 0, 79, 0
1, 37800, Note_on_c, 0, 84, 49
1, 37859, Note_on_c, 0, 84, 0
1, 37860, Note_on_c, 0, 83, 49
1, 37919, Note_on_c, 0, 83, 0
1, 37920, Note_on_c, 0, 81, 49
1, 37979, Note_on_c, 0, 81, 0
1, 37980, Note_on_c, 0, 79, 49
1, 38039, Note_on_c, 0, 79, 0
1, 38040, Note_on_c, 0, 77, 49
1, 38099, Note_on_c, 0, 77, 0
1, 38100, Note_on_c, 0, 76, 49
1, 38159, Note_on_c, 0, 76, 0
1, 38160, Note_on_c, 0, 74, 49
1, 38219, Note_on_c, 0, 74, 0
1, 38220, Note_on_c, 0, 79, 49
1, 38279, Note_on_c, 0, 79, 0
1, 38280, Note_on_c, 0, 77, 49
1, 38339, Note_on_c, 0, 77, 0
1, 38340, Note_on_c, 0, 74, 49
1, 38399, Note_on_c, 0, 74, 0
1, 38400, Note_on_c, 0, 72, 49
1, 38459, Note_on_c, 0, 72, 0
1, 38460, Note_on_c, 0, 79, 49
1, 38519, Note_on_c, 0, 79, 0
1, 38520, Note_on_c, 0, 67, 49
1, 38579, Note_on_c, 0, 67, 0
1, 38580, Note_on_c, 0, 79, 49
1, 38639, Note_on_c, 0, 79, 0
1, 38640, Note_on_c, 0, 69, 49
1, 38699, Note_on_c, 0, 69, 0
1, 38700, Note_on_c, 0, 79, 49
1, 38759, Note_on_c, 0, 79, 0
1, 38760, Note_on_c, 0, 71, 49
1, 38819, Note_on_c, 0, 71, 0
1, 38820, Note_on_c, 0, 79, 49
1, 38879, Note_on_c, 0, 79, 0
1, 38880, Note_on_c, 0, 72, 49
1, 38939, Note_on_c, 0, 72, 0
1, 38940, Note_on_c, 0, 79, 49
1, 38999, Note_on_c, 0, 79, 0
1, 39000, Note_on_c, 0, 74, 49
1, 39059, Note_on_c, 0, 74, 0
1, 39060, Note_on_c, 0, 79, 49
1, 39119, Note_on_c, 0, 79, 0
1, 39120, Note_on_c, 0, 76, 49
1, 39179, Note_on_c, 0, 76, 0
1, 39180, Note_on_c, 0, 79, 49
1, 39239, Note_on_c, 0, 79, 0
1, 39240, Note_on_c, 0, 84, 49
1, 39299, Note_on_c, 0, 84, 0
1, 39300, Note_on_c, 0, 83, 49
1, 39359, Note_on_c, 0, 83, 0
1, 39360, Note_on_c, 0, 81, 49
1, 39419, Note_on_c, 0, 81, 0
1, 39420, Note_on_c, 0, 79, 49
1, 39479, Note_on_c, 0, 79, 0
1, 39480, Note_on_c, 0, 77, 49
1, 39539, Note_on_c, 0, 77, 0
1, 39540, Note_on_c, 0, 76, 49
1, 39599, Note_on_c, 0, 76, 0
1, 39600, Note_on_c, 0, 74, 49
1, 39659, Note_on_c, 0, 74, 0
1, 39660, Note_on_c, 0, 79, 49
1, 39719, Note_on_c, 0, 79, 0
1, 39720, Note_on_c, 0, 77, 49
1, 39779, Note_on_c, 0, 77, 0
1, 39780, Note_on_c, 0, 74, 49
1, 39839, Note_on_c, 0, 74, 0
1, 39840, Note_on_c, 0, 76, 49
1, 39899, Note_on_c, 0, 76, 0
1, 39900, Note_on_c, 0, 77, 49
1, 39959, Note_on_c, 0, 77, 0
1, 39960, Note_on_c, 0, 76, 49
1, 40019, Note_on_c, 0, 76, 0
1, 40020, Note_on_c, 0, 75, 49
1, 40079, Note_on_c, 0, 75, 0
1, 40080, Note_on_c, 0, 76, 49
1, 40139, Note_on_c, 0, 76, 0
1, 40140, Note_on_c, 0, 71, 49
1, 40199, Note_on_c, 0, 71, 0
1, 40200, Note_on_c, 0, 76, 49
1, 40259, Note_on_c, 0, 76, 0
1, 40260, Note_on_c, 0, 75, 49
1, 40319, Note_on_c, 0, 75, 0
1, 40320, Note_on_c, 0, 76, 49
1, 40379, Note_on_c, 0, 76, 0
1, 40380, Note_on_c, 0, 71, 49
1, 40439, Note_on_c, 0, 71, 0
1, 40440, Note_on_c, 0, 76, 49
1, 40499, Note_on_c, 0, 76, 0
1, 40500, Note_on_c, 0, 75, 49
1, 40559, Note_on_c, 0, 75, 0
1, 40560, Note_on_c, 0, 76, 49
1, 40919, Note_on_c, 0, 76, 0
1, 40920, Note_on_c, 0, 71, 49
1, 41039, Note_on_c, 0, 71, 0
1, 41040, Note_on_c, 0, 76, 49
1, 41159, Note_on_c, 0, 76, 0
1, 41160, Note_on_c, 0, 75, 49
1, 41279, Note_on_c, 0, 75, 0
1, 41280, Note_on_c, 0, 76, 49
1, 41639, Note_on_c, 0, 76, 0
1, 41640, Note_on_c, 0, 71, 49
1, 41759, Note_on_c, 0, 71, 0
1, 41760, Note_on_c, 0, 76, 49
1, 41879, Note_on_c, 0, 76, 0
1, 41880, Note_on_c, 0, 75, 49
1, 41999, Note_on_c, 0, 75, 0
1, 42000, Note_on_c, 0, 76, 49
1, 42119, Note_on_c, 0, 76, 0
1, 42120, Note_on_c, 0, 75, 49
1, 42239, Note_on_c, 0, 75, 0
1, 42240, Note_on_c, 0, 76, 49
1, 42359, Note_on_c, 0, 76, 0
1, 42360, Note_on_c, 0, 75, 49
1, 42479, Note_on_c, 0, 75, 0
1, 42480, Note_on_c, 0, 76, 49
1, 42599, Note_on_c, 0, 76, 0
1, 42600, Note_on_c, 0, 75, 49
1, 42719, Note_on_c, 0, 75, 0
1, 42720, Note_on_c, 0, 76, 49
1, 42839, Note_on_c, 0, 76, 0
1, 42840, Note_on_c, 0, 75, 49
1, 42959, Note_on_c, 0, 75, 0
1, 42960, Note_on_c, 0, 76, 49
1, 43079, Note_on_c, 0, 76, 0
1, 43080, Note_on_c, 0, 71, 49
1, 43199, Note_on_c, 0, 71, 0
1, 43200, Note_on_c, 0, 74, 49
1, 43319, Note_on_c, 0, 74, 0
1, 43320, Note_on_c, 0, 72, 49
1, 43439, Note_on_c, 0, 72, 0
1, 43440, Note_on_c, 0, 69, 49
1, 43679, Note_on_c, 0, 69, 0
1, 43800, Note_on_c, 0, 60, 49
1, 43919, Note_on_c, 0, 60, 0
1, 43920, Note_on_c, 0, 64, 49
1, 44039, Note_on_c, 0, 64, 0
1, 44040, Note_on_c, 0, 69, 49
1, 44159, Note_on_c, 0, 69, 0
1, 44160, Note_on_c, 0, 71, 49
1, 44399, Note_on_c, 0, 71, 0
1, 44520, Note_on_c, 0, 64, 49
1, 44639, Note_on_c, 0, 64, 0
1, 44640, Note_on_c, 0, 68, 49
1, 44759, Note_on_c, 0, 68, 0
1, 44760, Note_on_c, 0, 71, 49
1, 44879, Note_on_c, 0, 71, 0
1, 44880, Note_on_c, 0, 72, 49
1, 45119, Note_on_c, 0, 72, 0
1, 45240, Note_on_c, 0, 64, 49
1, 45359, Note_on_c, 0, 64, 0
1, 45360, Note_on_c, 0, 76, 49
1, 45479, Note_on_c, 0, 76, 0
1, 45480, Note_on_c, 0, 75, 49
1, 45599, Note_on_c, 0, 75, 0
1, 45600, Note_on_c, 0, 76, 49
1, 45719, Note_on_c, 0, 76, 0
1, 45720, Note_on_c, 0, 75, 49
1, 45839, Note_on_c, 0, 75, 0
1, 45840, Note_on_c, 0, 76, 49
1, 45959, Note_on_c, 0, 76, 0
1, 45960, Note_on_c, 0, 71, 49
1, 46079, Note_on_c, 0, 71, 0
1, 46080, Note_on_c, 0, 74, 49
1, 46199, Note_on_c, 0, 74, 0
1, 46200, Note_on_c, 0, 72, 49
1, 46319, Note_on_c, 0, 72, 0
1, 46320, Note_on_c, 0, 69, 49
1, 46559, Note_on_c, 0, 69, 0
1, 46680, Note_on_c, 0, 60, 49
1, 46799, Note_on_c, 0, 60, 0
1, 46800, Note_on_c, 0, 64, 49
1, 46919, Note_on_c, 0, 64, 0
1, 46920, Note_on_c, 0, 69, 49
1, 47039, Note_on_c, 0, 69, 0
1, 47040, Note_on_c, 0, 71, 49
1, 47279, Note_on_c, 0, 71, 0
1, 47400, Note_on_c, 0, 64, 49
1, 47519, Note_on_c, 0, 64, 0
1, 47520, Note_on_c, 0, 72, 49
1, 47639, Note_on_c, 0, 72, 0
1, 47640, Note_on_c, 0, 71, 49
1, 47759, Note_on_c, 0, 71, 0
1, 47760, Note_on_c, 0, 69, 49
1, 47999, Note_on_c, 0, 69, 0
1, 48120, Note_on_c, 0, 71, 49
1, 48239, Note_on_c, 0, 71, 0
1, 48240, Note_on_c, 0, 72, 49
1, 48359, Note_on_c, 0, 72, 0
1, 48360, Note_on_c, 0, 74, 49
1, 48479, Note_on_c, 0, 74, 0
1, 48480, Note_on_c, 0, 76, 49
1, 48839, Note_on_c, 0, 76, 0
1, 48840, Note_on_c, 0, 67, 49
1, 48959, Note_on_c, 0, 67, 0
1, 48960, Note_on_c, 0, 77, 49
1, 49079, Note_on_c, 0, 77, 0
1, 49080, Note_on_c, 0, 76, 49
1, 49199, Note_on_c, 0, 76, 0
1, 49200, Note_on_c, 0, 74, 49
1, 49559, Note_on_c, 0, 74, 0
1, 49560, Note_on_c, 0, 65, 49
1, 49679, Note_on_c, 0, 65, 0
1, 49680, Note_on_c, 0, 76, 49
1, 49799, Note_on_c, 0, 76, 0
1, 49800, Note_on_c, 0, 74, 49
1, 49919, Note_on_c, 0, 74, 0
1, 49920, Note_on_c, 0, 72, 49
1, 50279, Note_on_c, 0, 72, 0
1, 50280, Note_on_c, 0, 64, 49
1, 50399, Note_on_c, 0, 64, 0
1, 50400, Note_on_c, 0, 74, 49
1, 50519, Note_on_c, 0, 74, 0
1, 50520, Note_on_c, 0, 72, 49
1, 50639, Note_on_c, 0, 72, 0
1, 50640, Note_on_c, 0, 71, 49
1, 50879, Note_on_c, 0, 71, 0
1, 51000, Note_on_c, 0, 64, 49
1, 51119, Note_on_c, 0, 64, 0
1, 51120, Note_on_c, 0, 76, 49
1, 51239, Note_on_c, 0, 76, 0
1, 51240, Note_on_c, 0, 64, 49
1, 51359, Note_on_c, 0, 64, 0
1, 51360, Note_on_c, 0, 76, 49
1, 51479, Note_on_c, 0, 76, 0
1, 51480, Note_on_c, 0, 76, 49
1, 51599, Note_on_c, 0, 76, 0
1, 51600, Note_on_c, 0, 88, 49
1, 51719, Note_on_c, 0, 88, 0
1, 51720, Note_on_c, 0, 75, 49
1, 51839, Note_on_c, 0, 75, 0
1, 51840, Note_on_c, 0, 76, 49
1, 51959, Note_on_c, 0, 76, 0
1, 51960, Note_on_c, 0, 75, 49
1, 52079, Note_on_c, 0, 75, 0
1, 52080, Note_on_c, 0, 76, 49
1, 52199, Note_on_c, 0, 76, 0
1, 52200, Note_on_c, 0, 75, 49
1, 52319, Note_on_c, 0, 75, 0
1, 52320, Note_on_c, 0, 76, 49
1, 52439, Note_on_c, 0, 76, 0
1, 52440, Note_on_c, 0, 75, 49
1, 52559, Note_on_c, 0, 75, 0
1, 52560, Note_on_c, 0, 76, 49
1, 52679, Note_on_c, 0, 76, 0
1, 52680, Note_on_c, 0, 75, 49
1, 52799, Note_on_c, 0, 75, 0
1, 52800, Note_on_c, 0, 76, 49
1, 52919, Note_on_c, 0, 76, 0
1, 52920, Note_on_c, 0, 75, 49
1, 53039, Note_on_c, 0, 75, 0
1, 53040, Note_on_c, 0, 76, 49
1, 53159, Note_on_c, 0, 76, 0
1, 53160, Note_on_c, 0, 71, 49
1, 53279, Note_on_c, 0, 71, 0
1, 53280, Note_on_c, 0, 74, 49
1, 53399, Note_on_c, 0, 74, 0
1, 53400, Note_on_c, 0, 72, 49
1, 53519, Note_on_c, 0, 72, 0
1, 53520, Note_on_c, 0, 69, 49
1, 53759, Note_on_c, 0, 69, 0
1, 53880, Note_on_c, 0, 60, 49
1, 53999, Note_on_c, 0, 60, 0
1, 54000, Note_on_c, 0, 64, 49
1, 54119, Note_on_c, 0, 64, 0
1, 54120, Note_on_c, 0, 69, 49
1, 54239, Note_on_c, 0, 69, 0
1, 54240, Note_on_c, 0, 71, 49
1, 54479, Note_on_c, 0, 71, 0
1, 54600, Note_on_c, 0, 64, 49
1, 54719, Note_on_c, 0, 64, 0
1, 54720, Note_on_c, 0, 68, 49
1, 54839, Note_on_c, 0, 68, 0
1, 54840, Note_on_c, 0, 71, 49
1, 54959, Note_on_c, 0, 71, 0
1, 54960, Note_on_c, 0, 72, 49
1, 55199, Note_on_c, 0, 72, 0
1, 55320, Note_on_c, 0, 64, 49
1, 55439, Note_on_c, 0, 64, 0
1, 55440, Note_on_c, 0, 76, 49
1, 55559, Note_on_c, 0, 76, 0
1, 55560, Note_on_c, 0, 75, 49
1, 55679, Note_on_c, 0, 75, 0
1, 55680, Note_on_c, 0, 76, 49
1, 55799, Note_on_c, 0, 76, 0
1, 55800, Note_on_c, 0, 75, 49
1, 55919, Note_on_c, 0, 75, 0
1, 55920, Note_on_c, 0, 76, 49
1, 56039, Note_on_c, 0, 76, 0
1, 56040, Note_on_c, 0, 71, 49
1, 56159, Note_on_c, 0, 71, 0
1, 56160, Note_on_c, 0, 74, 49
1, 56279, Note_on_c, 0, 74, 0
1, 56280, Note_on_c, 0, 72, 49
1, 56399, Note_on_c, 0, 72, 0
1, 56400, Note_on_c, 0, 69, 49
1, 56639, Note_on_c, 0, 69, 0
1, 56760, Note_on_c, 0, 60, 49
1, 56879, Note_on_c, 0, 60, 0
1, 56880, Note_on_c, 0, 64, 49
1, 56999, Note_on_c, 0, 64, 0
1, 57000, Note_on_c, 0, 69, 49
1, 57119, Note_on_c, 0, 69, 0
1, 57120, Note_on_c, 0, 71, 49
1, 57359, Note_on_c, 0, 71, 0
1, 57480, Note_on_c, 0, 64, 49
1, 57599, Note_on_c, 0, 64, 0
1, 57600, Note_on_c, 0, 72, 49
1, 57719, Note_on_c, 0, 72, 0
1, 57720, Note_on_c, 0, 71, 49
1, 57839, Note_on_c, 0, 71, 0
1, 57840, Note_on_c, 0, 69, 49
1, 58079, Note_on_c, 0, 69, 0
1, 58560, Note_on_c, 0, 73, 49
1, 58560, Note_on_c, 0, 70, 49
1, 58560, Note_on_c, 0, 67, 49
1, 58560, Note_on_c, 0, 64, 49
1, 59279, Note_on_c, 0, 73, 0
1, 59279, Note_on_c, 0, 70, 0
1, 59279, Note_on_c, 0, 67, 0
1, 59279, Note_on_c, 0, 64, 0
1, 59280, Note_on_c, 0, 74, 49
1, 59280, Note_on_c, 0, 69, 49
1, 59280, Note_on_c, 0, 65, 49
1, 59759, Note_on_c, 0, 74, 0
1, 59759, Note_on_c, 0, 69, 0
1, 59759, Note_on_c, 0, 65, 0
1, 59760, Note_on_c, 0, 76, 49
1, 59760, Note_on_c, 0, 73, 49
1, 59879, Note_on_c, 0, 76, 0
1, 59879, Note_on_c, 0, 73, 0
1, 59880, Note_on_c, 0, 77, 49
1, 59880, Note_on_c, 0, 74, 49
1, 59999, Note_on_c, 0, 77, 0
1, 59999, Note_on_c, 0, 74, 0
1, 60000, Note_on_c, 0, 77, 96
1, 60000, Note_on_c, 0, 74, 96
1, 60000, Note_on_c, 0, 68, 96
1, 60479, Note_on_c, 0, 77, 0
1, 60479, Note_on_c, 0, 74, 0
1, 60479, Note_on_c, 0, 68, 0
1, 60480, Note_on_c, 0, 77, 96
1, 60480, Note_on_c, 0, 74, 96
1, 60480, Note_on_c, 0, 68, 96
1, 60719, Note_on_c, 0, 77, 0
1, 60719, Note_on_c, 0, 74, 0
1, 60719, Note_on_c, 0, 68, 0
1, 60720, Note_on_c, 0, 76, 96
1, 60720, Note_on_c, 0, 72, 96
1, 60720, Note_on_c, 0, 69, 96
1, 61439, Note_on_c, 0, 76, 0
1, 61439, Note_on_c, 0, 72, 0
1, 61439, Note_on_c, 0, 69, 0
1, 61440, Note_on_c, 0, 74, 96
1, 61440, Note_on_c, 0, 65, 96
1, 61919, Note_on_c, 0, 74, 0
1, 61919, Note_on_c, 0, 65, 0
1, 61920, Note_on_c, 0, 72, 96
1, 61920, Note_on_c, 0, 64, 96
1, 62039, Note_on_c, 0, 72, 0
1, 62039, Note_on_c, 0, 64, 0
1, 62040, Note_on_c, 0, 71, 96
1, 62040, Note_on_c, 0, 62, 96
1, 62159, Note_on_c, 0, 71, 0
1, 62159, Note_on_c, 0, 62, 0
1, 62160, Note_on_c, 0, 69, 96
1, 62160, Note_on_c, 0, 66, 96
1, 62160, Note_on_c, 0, 60, 96
1, 62639, Note_on_c, 0, 69, 0
1, 62639, Note_on_c, 0, 66, 0
1, 62639, Note_on_c, 0, 60, 0
1, 62640, Note_on_c, 0, 69, 96
1, 62640, Note_on_c, 0, 60, 96
1, 62879, Note_on_c, 0, 69, 0
1, 62879, Note_on_c, 0, 60, 0
1, 62880, Note_on_c, 0, 69, 96
1, 62880, Note_on_c, 0, 60, 96
1, 63119, Note_on_c, 0, 69, 0
1, 63119, Note_on_c, 0, 60, 0
1, 63120, Note_on_c, 0, 72, 96
1, 63120, Note_on_c, 0, 64, 96
1, 63359, Note_on_c, 0, 72, 0
1, 63359, Note_on_c, 0, 64, 0
1, 63360, Note_on_c, 0, 71, 96
1, 63360, Note_on_c, 0, 62, 96
1, 63599, Note_on_c, 0, 71, 0
1, 63599, Note_on_c, 0, 62, 0
1, 63600, Note_on_c, 0, 69, 96
1, 63600, Note_on_c, 0, 60, 96
1, 64319, Note_on_c, 0, 69, 0
1, 64319, Note_on_c, 0, 60, 0
1, 64320, Note_on_c, 0, 73, 96
1, 64320, Note_on_c, 0, 70, 96
1, 64320, Note_on_c, 0, 67, 96
1, 64320, Note_on_c, 0, 64, 96
1, 65039, Note_on_c, 0, 73, 0
1, 65039, Note_on_c, 0, 70, 0
1, 65039, Note_on_c, 0, 67, 0
1, 65039, Note_on_c, 0, 64, 0
1, 65040, Note_on_c, 0, 74, 80
1, 65040, Note_on_c, 0, 69, 80
1, 65040, Note_on_c, 0, 65, 80
1, 65519, Note_on_c, 0, 74, 0
1, 65519, Note_on_c, 0, 69, 0
1, 65519, Note_on_c, 0, 65, 0
1, 65520, Note_on_c, 0, 76, 80
1, 65520, Note_on_c, 0, 73, 80
1, 65639, Note_on_c, 0, 76, 0
1, 65639, Note_on_c, 0, 73, 0
1, 65640, Note_on_c, 0, 77, 80
1, 65640, Note_on_c, 0, 74, 80
1, 65759, Note_on_c, 0, 77, 0
1, 65759, Note_on_c, 0, 74, 0
1, 65760, Note_on_c, 0, 77, 96
1, 65760, Note_on_c, 0, 74, 96
1, 66239, Note_on_c, 0, 77, 0
1, 66239, Note_on_c, 0, 74, 0
1, 66240, Note_on_c, 0, 77, 96
1, 66240, Note_on_c, 0, 74, 96
1, 66479, Note_on_c, 0, 77, 0
1, 66479, Note_on_c, 0, 74, 0
1, 66480, Note_on_c, 0, 77, 96
1, 66480, Note_on_c, 0, 74, 96
1, 67199, Note_on_c, 0, 77, 0
1, 67199, Note_on_c, 0, 74, 0
1, 67200, Note_on_c, 0, 75, 96
1, 67200, Note_on_c, 0, 67, 96
1, 67679, Note_on_c, 0, 75, 0
1, 67679, Note_on_c, 0, 67, 0
1, 67680, Note_on_c, 0, 74, 96
1, 67680, Note_on_c, 0, 65, 96
1, 67799, Note_on_c, 0, 74, 0
1, 67799, Note_on_c, 0, 65, 0
1, 67800, Note_on_c, 0, 72, 96
1, 67800, Note_on_c, 0, 63, 96
1, 67919, Note_on_c, 0, 72, 0
1, 67919, Note_on_c, 0, 63, 0
1, 67920, Note_on_c, 0, 70, 96
1, 67920, Note_on_c, 0, 65, 96
1, 67920, Note_on_c, 0, 62, 96
1, 68399, Note_on_c, 0, 70, 0
1, 68399, Note_on_c, 0, 65, 0
1, 68399, Note_on_c, 0, 62, 0
1, 68400, Note_on_c, 0, 69, 96
1, 68400, Note_on_c, 0, 65, 96
1, 68400, Note_on_c, 0, 62, 96
1, 68639, Note_on_c, 0, 69, 0
1, 68639, Note_on_c, 0, 65, 0
1, 68639, Note_on_c, 0, 62, 0
1, 68640, Note_on_c, 0, 68, 96
1, 68640, Note_on_c, 0, 65, 96
1, 68640, Note_on_c, 0, 62, 96
1, 69119, Note_on_c, 0, 68, 0
1, 69119, Note_on_c, 0, 65, 0
1, 69119, Note_on_c, 0, 62, 0
1, 69120, Note_on_c, 0, 68, 96
1, 69120, Note_on_c, 0, 65, 96
1, 69120, Note_on_c, 0, 62, 96
1, 69359, Note_on_c, 0, 68, 0
1, 69359, Note_on_c, 0, 65, 0
1, 69359, Note_on_c, 0, 62, 0
1, 69360, Note_on_c, 0, 69, 96
1, 69360, Note_on_c, 0, 64, 96
1, 69360, Note_on_c, 0, 60, 96
1, 69839, Note_on_c, 0, 69, 0
1, 69839, Note_on_c, 0, 64, 0
1, 69839, Note_on_c, 0, 60, 0
1, 70080, Note_on_c, 0, 71, 96
1, 70080, Note_on_c, 0, 64, 96
1, 70080, Note_on_c, 0, 62, 96
1, 70319, Note_on_c, 0, 71, 0
1, 70319, Note_on_c, 0, 64, 0
1, 70319, Note_on_c, 0, 62, 0
1, 70800, Note_on_c, 0, 57, 96
1, 70879, Note_on_c, 0, 57, 0
1, 70880, Note_on_c, 0, 60, 96
1, 70959, Note_on_c, 0, 60, 0
1, 70960, Note_on_c, 0, 64, 96
1, 71039, Note_on_c, 0, 64, 0
1, 71040, Note_on_c, 0, 69, 96
1, 71119, Note_on_c, 0, 69, 0
1, 71120, Note_on_c, 0, 72, 96
1, 71199, Note_on_c, 0, 72, 0
1, 71200, Note_on_c, 0, 76, 96
1, 71279, Note_on_c, 0, 76, 0
1, 71280, Note_on_c, 0, 74, 96
1, 71359, Note_on_c, 0, 74, 0
1, 71360, Note_on_c, 0, 72, 96
1, 71439, Note_on_c, 0, 72, 0
1, 71440, Note_on_c, 0, 71, 96
1, 71519, Note_on_c, 0, 71, 0
1, 71520, Note_on_c, 0, 69, 96
1, 71599, Note_on_c, 0, 69, 0
1, 71600, Note_on_c, 0, 72, 96
1, 71679, Note_on_c, 0, 72, 0
1, 71680, Note_on_c, 0, 76, 96
1, 71759, Note_on_c, 0, 76, 0
1, 71760, Note_on_c, 0, 81, 96
1, 71839, Note_on_c, 0, 81, 0
1, 71840, Note_on_c, 0, 84, 96
1, 71919, Note_on_c, 0, 84, 0
1, 71920, Note_on_c, 0, 88, 96
1, 71999, Note_on_c, 0, 88, 0
1, 72000, Note_on_c, 0, 86, 96
1, 72079, Note_on_c, 0, 86, 0
1, 72080, Note_on_c, 0, 84, 96
1, 72159, Note_on_c, 0, 84, 0
1, 72160, Note_on_c, 0, 83, 96
1, 72239, Note_on_c, 0, 83, 0
1, 72240, Note_on_c, 0, 81, 96
1, 72319, Note_on_c, 0, 81, 0
1, 72320, Note_on_c, 0, 84, 96
1, 72399, Note_on_c, 0, 84, 0
1, 72400, Note_on_c, 0, 88, 96
1, 72479, Note_on_c, 0, 88, 0
1, 72480, Note_on_c, 0, 93, 96
1, 72559, Note_on_c, 0, 93, 0
1, 72560, Note_on_c, 0, 96, 96
1, 72639, Note_on_c, 0, 96, 0
1, 72640, Note_on_c, 0, 100, 96
1, 72719, Note_on_c, 0, 100, 0
1, 72720, Note_on_c, 0, 98, 96
1, 72799, Note_on_c, 0, 98, 0
1, 72800, Note_on_c, 0, 96, 96
1, 72879, Note_on_c, 0, 96, 0
1, 72880, Note_on_c, 0, 95, 96
1, 72959, Note_on_c, 0, 95, 0
1, 72960, Note_on_c, 0, 94, 96
1, 73039, Note_on_c, 0, 94, 0
1, 73040, Note_on_c, 0, 93, 96
1, 73119, Note_on_c, 0, 93, 0
1, 73120, Note_on_c, 0, 92, 96
1, 73199, Note_on_c, 0, 92, 0
1, 73200, Note_on_c, 0, 91, 96
1, 73279, Note_on_c, 0, 91, 0
1, 73280, Note_on_c, 0, 90, 96
1, 73359, Note_on_c, 0, 90, 0
1, 73360, Note_on_c, 0, 89, 96
1, 73439, Note_on_c, 0, 89, 0
1, 73440, Note_on_c, 0, 88, 96
1, 73519, Note_on_c, 0, 88, 0
1, 73520, Note_on_c, 0, 87, 96
1, 73599, Note_on_c, 0, 87, 0
1, 73600, Note_on_c, 0, 86, 96
1, 73679, Note_on_c, 0, 86, 0
1, 73680, Note_on_c, 0, 85, 96
1, 73759, Note_on_c, 0, 85, 0
1, 73760, Note_on_c, 0, 84, 96
1, 73839, Note_on_c, 0, 84, 0
1, 73840, Note_on_c, 0, 83, 96
1, 73919, Note_on_c, 0, 83, 0
1, 73920, Note_on_c, 0, 82, 96
1, 73999, Note_on_c, 0, 82, 0
1, 74000, Note_on_c, 0, 81, 96
1, 74079, Note_on_c, 0, 81, 0
1, 74080, Note_on_c, 0, 80, 96
1, 74159, Note_on_c, 0, 80, 0
1, 74160, Note_on_c, 0, 79, 96
1, 74239, Note_on_c, 0, 79, 0
1, 74240, Note_on_c, 0, 78, 96
1, 74319, Note_on_c, 0, 78, 0
1, 74320, Note_on_c, 0, 77, 96
1, 74399, Note_on_c, 0, 77, 0
1, 74400, Note_on_c, 0, 76, 96
1, 74519, Note_on_c, 0, 76, 0
1, 74520, Note_on_c, 0, 75, 96
1, 74639, Note_on_c, 0, 75, 0
1, 74640, Note_on_c, 0, 76, 96
1, 74759, Note_on_c, 0, 76, 0
1, 74760, Note_on_c, 0, 71, 96
1, 74879, Note_on_c, 0, 71, 0
1, 74880, Note_on_c, 0, 74, 96
1, 74999, Note_on_c, 0, 74, 0
1, 75000, Note_on_c, 0, 72, 96
1, 75119, Note_on_c, 0, 72, 0
1, 75120, Note_on_c, 0, 69, 96
1, 75359, Note_on_c, 0, 69, 0
1, 75480, Note_on_c, 0, 60, 96
1, 75599, Note_on_c, 0, 60, 0
1, 75600, Note_on_c, 0, 64, 96
1, 75719, Note_on_c, 0, 64, 0
1, 75720, Note_on_c, 0, 69, 96
1, 75839, Note_on_c, 0, 69, 0
1, 75840, Note_on_c, 0, 71, 96
1, 76079, Note_on_c, 0, 71, 0
1, 76200, Note_on_c, 0, 64, 96
1, 76319, Note_on_c, 0, 64, 0
1, 76320, Note_on_c, 0, 68, 96
1, 76439, Note_on_c, 0, 68, 0
1, 76440, Note_on_c, 0, 71, 96
1, 76559, Note_on_c, 0, 71, 0
1, 76560, Note_on_c, 0, 72, 96
1, 76799, Note_on_c, 0, 72, 0
1, 76920, Note_on_c, 0, 64, 96
1, 77039, Note_on_c, 0, 64, 0
1, 77040, Note_on_c, 0, 76, 96
1, 77159, Note_on_c, 0, 76, 0
1, 77160, Note_on_c, 0, 75, 96
1, 77279, Note_on_c, 0, 75, 0
1, 77280, Note_on_c, 0, 76, 96
1, 77399, Note_on_c, 0, 76, 0
1, 77400, Note_on_c, 0, 75, 96
1, 77519, Note_on_c, 0, 75, 0
1, 77520, Note_on_c, 0, 76, 96
1, 77639, Note_on_c, 0, 76, 0
1, 77640, Note_on_c, 0, 71, 96
1, 77759, Note_on_c, 0, 71, 0
1, 77760, Note_on_c, 0, 74, 96
1, 77879, Note_on_c, 0, 74, 0
1, 77880, Note_on_c, 0, 72, 96
1, 77999, Note_on_c, 0, 72, 0
1, 78000, Note_on_c, 0, 69, 96
1, 78239, Note_on_c, 0, 69, 0
1, 78360, Note_on_c, 0, 60, 96
1, 78479, Note_on_c, 0, 60, 0
1, 78480, Note_on_c, 0, 64, 96
1, 78599, Note_on_c, 0, 64, 0
1, 78600, Note_on_c, 0, 69, 96
1, 78719, Note_on_c, 0, 69, 0
1, 78720, Note_on_c, 0, 71, 96
1, 78959, Note_on_c, 0, 71, 0
1, 79080, Note_on_c, 0, 64, 96
1, 79199, Note_on_c, 0, 64, 0
1, 79200, Note_on_c, 0, 72, 96
1, 79319, Note_on_c, 0, 72, 0
1, 79320, Note_on_c, 0, 71, 96
1, 79439, Note_on_c, 0, 71, 0
1, 79440, Note_on_c, 0, 69, 96
1, 79679, Note_on_c, 0, 69, 0
1, 79800, Note_on_c, 0, 71, 96
1, 79919, Note_on_c, 0, 71, 0
1, 79920, Note_on_c, 0, 72, 96
1, 80039, Note_on_c, 0, 72, 0
1, 80040, Note_on_c, 0, 74, 96
1, 80159, Note_on_c, 0, 74, 0
1, 80160, Note_on_c, 0, 76, 96
1, 80519, Note_on_c, 0, 76, 0
1, 80520, Note_on_c, 0, 67, 96
1, 80639, Note_on_c, 0, 67, 0
1, 80640, Note_on_c, 0, 77, 96
1, 80759, Note_on_c, 0, 77, 0
1, 80760, Note_on_c, 0, 76, 96
1, 80879, Note_on_c, 0, 76, 0
1, 80880, Note_on_c, 0, 74, 96
1, 81239, Note_on_c, 0, 74, 0
1, 81240, Note_on_c, 0, 65, 96
1, 81359, Note_on_c, 0, 65, 0
1, 81360, Note_on_c, 0, 76, 96
1, 81479, Note_on_c, 0, 76, 0
1, 81480, Note_on_c, 0, 74, 96
1, 81599, Note_on_c, 0, 74, 0
1, 81600, Note_on_c, 0, 72, 96
1, 81959, Note_on_c, 0, 72, 0
1, 81960, Note_on_c, 0, 64, 96
1, 82079, Note_on_c, 0, 64, 0
1, 82080, Note_on_c, 0, 74, 96
1, 82199, Note_on_c, 0, 74, 0
1, 82200, Note_on_c, 0, 72, 96
1, 82319, Note_on_c, 0, 72, 0
1, 82320, Note_on_c, 0, 71, 96
1, 82559, Note_on_c, 0, 71, 0
1, 82680, Note_on_c, 0, 64, 96
1, 82799, Note_on_c, 0, 64, 0
1, 82800, Note_on_c, 0, 76, 96
1, 82919, Note_on_c, 0, 76, 0
1, 82920, Note_on_c, 0, 64, 96
1, 83039, Note_on_c, 0, 64, 0
1, 83040, Note_on_c, 0, 76, 96
1, 83159, Note_on_c, 0, 76, 0
1, 83160, Note_on_c, 0, 76, 96
1, 83279, Note_on_c, 0, 76, 0
1, 83280, Note_on_c, 0, 88, 96
1, 83399, Note_on_c, 0, 88, 0
1, 83400, Note_on_c, 0, 75, 96
1, 83519, Note_on_c, 0, 75, 0
1, 83520, Note_on_c, 0, 76, 96
1, 83639, Note_on_c, 0, 76, 0
1, 83640, Note_on_c, 0, 75, 96
1, 83759, Note_on_c, 0, 75, 0
1, 83760, Note_on_c, 0, 76, 96
1, 83879, Note_on_c, 0, 76, 0
1, 83880, Note_on_c, 0, 75, 96
1, 83999, Note_on_c, 0, 75, 0
1, 84000, Note_on_c, 0, 76, 96
1, 84119, Note_on_c, 0, 76, 0
1, 84120, Note_on_c, 0, 75, 96
1, 84239, Note_on_c, 0, 75, 0
1, 84240, Note_on_c, 0, 76, 96
1, 84359, Note_on_c, 0, 76, 0
1, 84360, Note_on_c, 0, 75, 96
1, 84479, Note_on_c, 0, 75, 0
1, 84480, Note_on_c, 0, 76, 96
1, 84599, Note_on_c, 0, 76, 0
1, 84600, Note_on_c, 0, 75, 96
1, 84719, Note_on_c, 0, 75, 0
1, 84720, Note_on_c, 0, 76, 96
1, 84839, Note_on_c, 0, 76, 0
1, 84840, Note_on_c, 0, 71, 96
1, 84959, Note_on_c, 0, 71, 0
1, 84960, Note_on_c, 0, 74, 96
1, 85079, Note_on_c, 0, 74, 0
1, 85080, Note_on_c, 0, 72, 96
1, 85199, Note_on_c, 0, 72, 0
1, 85200, Note_on_c, 0, 69, 96
1, 85439, Note_on_c, 0, 69, 0
1, 85560, Note_on_c, 0, 60, 96
1, 85679, Note_on_c, 0, 60, 0
1, 85680, Note_on_c, 0, 64, 96
1, 85799, Note_on_c, 0, 64, 0
1, 85800, Note_on_c, 0, 69, 96
1, 85919, Note_on_c, 0, 69, 0
1, 85920, Note_on_c, 0, 71, 96
1, 86159, Note_on_c, 0, 71, 0
1, 86280, Note_on_c, 0, 64, 96
1, 86399, Note_on_c, 0, 64, 0
1, 86400, Note_on_c, 0, 68, 96
1, 86519, Note_on_c, 0, 68, 0
1, 86520, Note_on_c, 0, 71, 96
1, 86639, Note_on_c, 0, 71, 0
1, 86640, Note_on_c, 0, 72, 96
1, 86879, Note_on_c, 0, 72, 0
1, 87000, Note_on_c, 0, 64, 96
1, 87119, Note_on_c, 0, 64, 0
1, 87120, Note_on_c, 0, 76, 96
1, 87239, Note_on_c, 0, 76, 0
1, 87240, Note_on_c, 0, 75, 96
1, 87359, Note_on_c, 0, 75, 0
1, 87360, Note_on_c, 0, 76, 96
1, 87479, Note_on_c, 0, 76, 0
1, 87480, Note_on_c, 0, 75, 96
1, 87599, Note_on_c, 0, 75, 0
1, 87600, Note_on_c, 0, 76, 96
1, 87719, Note_on_c, 0, 76, 0
1, 87720, Note_on_c, 0, 71, 96
1, 87839, Note_on_c, 0, 71, 0
1, 87840, Note_on_c, 0, 74, 96
1, 87959, Note_on_c, 0, 74, 0
1, 87960, Note_on_c, 0, 72, 96
1, 88079, Note_on_c, 0, 72, 0
1, 88080, Note_on_c, 0, 69, 96
1, 88319, Note_on_c, 0, 69, 0
1, 88440, Note_on_c, 0, 60, 96
1, 88559, Note_on_c, 0, 60, 0
1, 88560, Note_on_c, 0, 64, 96
1, 88679, Note_on_c, 0, 64, 0
1, 88680, Note_on_c, 0, 69, 96
1, 88799, Note_on_c, 0, 69, 0
1, 88800, Note_on_c, 0, 71, 96
1, 89039, Note_on_c, 0, 71, 0
1, 89160, Note_on_c, 0, 64, 96
1, 89279, Note_on_c, 0, 64, 0
1, 89280, Note_on_c, 0, 72, 96
1, 89399, Note_on_c, 0, 72, 0
1, 89400, Note_on_c, 0, 71, 96
1, 89519, Note_on_c, 0, 71, 0
1, 89520, Time_signature, 1, 2, 24, 8
1, 89520, Note_on_c, 0, 69, 96
1, 89520, Note_on_c, 0, 60, 96
1, 89999, Note_on_c, 0, 69, 0
1, 89999, Note_on_c, 0, 60, 0
1, 90000, End_track
2, 0, Start_track
2, 0, Key_signature, 0, "major"
2, 960, Control_c, 0, 64, 127
2, 960, Note_on_c, 0, 45, 80
2, 1079, Note_on_c, 0, 45, 0
2, 1080, Note_on_c, 0, 52, 80
2, 1199, Note_on_c, 0, 52, 0
2, 1200, Note_on_c, 0, 57, 80
2, 1319, Note_on_c, 0, 57, 0
2, 1679, Control_c, 0, 64, 0
2, 1680, Control_c, 0, 64, 127
2, 1680, Note_on_c, 0, 40, 80
2, 1799, Note_on_c, 0, 40, 0
2, 1800, Note_on_c, 0, 52, 80
2, 1919, Note_on_c, 0, 52, 0
2, 1920, Note_on_c, 0, 56, 80
2, 2039, Note_on_c, 0, 56, 0
2, 2399, Control_c, 0, 64, 0
2, 2400, Control_c, 0, 64, 127
2, 2400, Note_on_c, 0, 45, 80
2, 2519, Note_on_c, 0, 45, 0
2, 2520, Note_on_c, 0, 52, 80
2, 2639, Note_on_c, 0, 52, 0
2, 2640, Note_on_c, 0, 57, 80
2, 2759, Note_on_c, 0, 57, 0
2, 3119, Control_c, 0, 64, 0
2, 3840, Control_c, 0, 64, 127
2, 3840, Note_on_c, 0, 45, 80
2, 3959, Note_on_c, 0, 45, 0
2, 3960, Note_on_c, 0, 52, 80
2, 4079, Note_on_c, 0, 52, 0
2, 4080, Note_on_c, 0, 57, 80
2, 4199, Note_on_c, 0, 57, 0
2, 4559, Control_c, 0, 64, 0
2, 4560, Control_c, 0, 64, 127
2, 4560, Note_on_c, 0, 40, 80
2, 4679, Note_on_c, 0, 40, 0
2, 4680, Note_on_c, 0, 52, 80
2, 4799, Note_on_c, 0, 52, 0
2, 4800, Note_on_c, 0, 56, 80
2, 4919, Note_on_c, 0, 56, 0
2, 5279, Control_c, 0, 64, 0
2, 5280, Control_c, 0, 64, 127
2, 5280, Note_on_c, 0, 45, 80
2, 5399, Note_on_c, 0, 45, 0
2, 5400, Note_on_c, 0, 52, 80
2, 5519, Note_on_c, 0, 52, 0
2, 5520, Note_on_c, 0, 57, 80
2, 5639, Note_on_c, 0, 57, 0
2, 5759, Control_c, 0, 64, 0
2, 5760, Key_signature, 0, "major"
2, 6720, Control_c, 0, 64, 127
2, 6720, Note_on_c, 0, 45, 80
2, 6839, Note_on_c, 0, 45, 0
2, 6840, Note_on_c, 0, 52, 80
2, 6959, Note_on_c, 0, 52, 0
2, 6960, Note_on_c, 0, 57, 80
2, 7079, Note_on_c, 0, 57, 0
2, 7439, Control_c, 0, 64, 0
2, 7440, Control_c, 0, 64, 127
2, 7440, Note_on_c, 0, 40, 80
2, 7559, Note_on_c, 0, 40, 0
2, 7560, Note_on_c, 0, 52, 80
2, 7679, Note_on_c, 0, 52, 0
2, 7680, Note_on_c, 0, 56, 80
2, 7799, Note_on_c, 0, 56, 0
2, 8159, Control_c, 0, 64, 0
2, 8160, Control_c, 0, 64, 127
2, 8160, Note_on_c, 0, 45, 80
2, 8279, Note_on_c, 0, 45, 0
2, 8280, Note_on_c, 0, 52, 80
2, 8399, Note_on_c, 0, 52, 0
2, 8400, Note_on_c, 0, 57, 80
2, 8519, Note_on_c, 0, 57, 0
2, 8879, Control_c, 0, 64, 0
2, 9600, Control_c, 0, 64, 127
2, 9600, Note_on_c, 0, 45, 80
2, 9719, Note_on_c, 0, 45, 0
2, 9720, Note_on_c, 0, 52, 80
2, 9839, Note_on_c, 0, 52, 0
2, 9840, Note_on_c, 0, 57, 80
2, 9959, Note_on_c, 0, 57, 0
2, 10319, Control_c, 0, 64, 0
2, 10320, Control_c, 0, 64, 127
2, 10320, Note_on_c, 0, 40, 80
2, 10439, Note_on_c, 0, 40, 0
2, 10440, Note_on_c, 0, 52, 80
2, 10559, Note_on_c, 0, 52, 0
2, 10560, Note_on_c, 0, 56, 80
2, 10679, Note_on_c, 0, 56, 0
2, 11039, Control_c, 0, 64, 0
2, 11040, Control_c, 0, 64, 127
2, 11040, Note_on_c, 0, 45, 80
2, 11159, Note_on_c, 0, 45, 0
2, 11160, Note_on_c, 0, 52, 80
2, 11279, Note_on_c, 0, 52, 0
2, 11280, Note_on_c, 0, 57, 80
2, 11399, Note_on_c, 0, 57, 0
2, 11759, Control_c, 0, 64, 0
2, 11760, Control_c, 0, 64, 127
2, 11760, Note_on_c, 0, 48, 80
2, 11879, Note_on_c, 0, 48, 0
2, 11880, Note_on_c, 0, 55, 80
2, 11999, Note_on_c, 0, 55, 0
2, 12000, Note_on_c, 0, 60, 80
2, 12119, Note_on_c, 0, 60, 0
2, 12479, Control_c, 0, 64, 0
2, 12480, Control_c, 0, 64, 127
2, 12480, Note_on_c, 0, 43, 80
2, 12599, Note_on_c, 0, 43, 0
2, 12600, Note_on_c, 0, 55, 80
2, 12719, Note_on_c, 0, 55, 0
2, 12720, Note_on_c, 0, 59, 80
2, 12839, Note_on_c, 0, 59, 0
2, 13199, Control_c, 0, 64, 0
2, 13200, Control_c, 0, 64, 127
2, 13200, Note_on_c, 0, 45, 80
2, 13319, Note_on_c, 0, 45, 0
2, 13320, Note_on_c, 0, 52, 80
2, 13439, Note_on_c, 0, 52, 0
2, 13440, Note_on_c, 0, 57, 80
2, 13559, Note_on_c, 0, 57, 0
2, 13919, Control_c, 0, 64, 0
2, 13920, Control_c, 0, 64, 127
2, 13920, Note_on_c, 0, 40, 80
2, 14039, Note_on_c, 0, 40, 0
2, 14040, Note_on_c, 0, 52, 80
2, 14159, Note_on_c, 0, 52, 0
2, 14160, Note_on_c, 0, 64, 80
2, 14279, Note_on_c, 0, 64, 0
2, 14639, Control_c, 0, 64, 0
2, 16800, Control_c, 0, 64, 127
2, 16800, Note_on_c, 0, 45, 80
2, 16919, Note_on_c, 0, 45, 0
2, 16920, Note_on_c, 0, 52, 80
2, 17039, Note_on_c, 0, 52, 0
2, 17040, Note_on_c, 0, 57, 80
2, 17159, Note_on_c, 0, 57, 0
2, 17519, Control_c, 0, 64, 0
2, 17520, Control_c, 0, 64, 127
2, 17520, Note_on_c, 0, 40, 80
2, 17639, Note_on_c, 0, 40, 0
2, 17640, Note_on_c, 0, 52, 80
2, 17759, Note_on_c, 0, 52, 0
2, 17760, Note_on_c, 0, 56, 80
2, 17879, Note_on_c, 0, 56, 0
2, 18239, Control_c, 0, 64, 0
2, 18240, Control_c, 0, 64, 127
2, 18240, Note_on_c, 0, 45, 80
2, 18359, Note_on_c, 0, 45, 0
2, 18360, Note_on_c, 0, 52, 80
2, 18479, Note_on_c, 0, 52, 0
2, 18480, Note_on_c, 0, 57, 80
2, 18599, Note_on_c, 0, 57, 0
2, 18959, Control_c, 0, 64, 0
2, 19680, Control_c, 0, 64, 127
2, 19680, Note_on_c, 0, 45, 80
2, 19799, Note_on_c, 0, 45, 0
2, 19800, Note_on_c, 0, 52, 80
2, 19919, Note_on_c, 0, 52, 0
2, 19920, Note_on_c, 0, 57, 80
2, 20039, Note_on_c, 0, 57, 0
2, 20399, Control_c, 0, 64, 0
2, 20400, Control_c, 0, 64, 127
2, 20400, Note_on_c, 0, 40, 80
2, 20519, Note_on_c, 0, 40, 0
2, 20520, Note_on_c, 0, 52, 80
2, 20639, Note_on_c, 0, 52, 0
2, 20640, Note_on_c, 0, 56, 80
2, 20759, Note_on_c, 0, 56, 0
2, 21119, Control_c, 0, 64, 0
2, 21120, Note_on_c, 0, 45, 80
2, 21239, Note_on_c, 0, 45, 0
2, 21240, Note_on_c, 0, 52, 80
2, 21359, Note_on_c, 0, 52, 0
2, 21360, Note_on_c, 0, 57, 80
2, 21479, Note_on_c, 0, 57, 0
2, 21840, Control_c, 0, 64, 127
2, 21840, Note_on_c, 0, 48, 80
2, 21959, Note_on_c, 0, 48, 0
2, 21960, Note_on_c, 0, 55, 80
2, 22079, Note_on_c, 0, 55, 0
2, 22080, Note_on_c, 0, 60, 80
2, 22199, Note_on_c, 0, 60, 0
2, 22559, Control_c, 0, 64, 0
2, 22560, Control_c, 0, 64, 127
2, 22560, Note_on_c, 0, 43, 80
2, 22679, Note_on_c, 0, 43, 0
2, 22680, Note_on_c, 0, 55, 80
2, 22799, Note_on_c, 0, 55, 0
2, 22800, Note_on_c, 0, 59, 80
2, 22919, Note_on_c, 0, 59, 0
2, 23279, Control_c, 0, 64, 0
2, 23280, Control_c, 0, 64, 127
2, 23280, Note_on_c, 0, 45, 80
2, 23399, Note_on_c, 0, 45, 0
2, 23400, Note_on_c, 0, 52, 80
2, 23519, Note_on_c, 0, 52, 0
2, 23520, Note_on_c, 0, 57, 80
2, 23639, Note_on_c, 0, 57, 0
2, 23999, Control_c, 0, 64, 0
2, 24000, Control_c, 0, 64, 127
2, 24000, Note_on_c, 0, 40, 80
2, 24119, Note_on_c, 0, 40, 0
2, 24120, Note_on_c, 0, 52, 80
2, 24239, Note_on_c, 0, 52, 0
2, 24240, Note_on_c, 0, 64, 80
2, 24359, Note_on_c, 0, 64, 0
2, 24719, Control_c, 0, 64, 0
2, 26880, Control_c, 0, 64, 127
2, 26880, Note_on_c, 0, 45, 80
2, 26999, Note_on_c, 0, 45, 0
2, 27000, Note_on_c, 0, 52, 80
2, 27119, Note_on_c, 0, 52, 0
2, 27120, Note_on_c, 0, 57, 80
2, 27239, Note_on_c, 0, 57, 0
2, 27599, Control_c, 0, 64, 0
2, 27600, Control_c, 0, 64, 127
2, 27600, Note_on_c, 0, 40, 80
2, 27719, Note_on_c, 0, 40, 0
2, 27720, Note_on_c, 0, 52, 80
2, 27839, Note_on_c, 0, 52, 0
2, 27840, Note_on_c, 0, 56, 80
2, 27959, Note_on_c, 0, 56, 0
2, 28319, Control_c, 0, 64, 0
2, 28320, Control_c, 0, 64, 127
2, 28320, Note_on_c, 0, 45, 80
2, 28439, Note_on_c, 0, 45, 0
2, 28440, Note_on_c, 0, 52, 80
2, 28559, Note_on_c, 0, 52, 0
2, 28560, Note_on_c, 0, 57, 80
2, 28679, Note_on_c, 0, 57, 0
2, 29039, Control_c, 0, 64, 0
2, 29760, Control_c, 0, 64, 127
2, 29760, Note_on_c, 0, 45, 80
2, 29879, Note_on_c, 0, 45, 0
2, 29880, Note_on_c, 0, 52, 80
2, 29999, Note_on_c, 0, 52, 0
2, 30000, Note_on_c, 0, 57, 80
2, 30119, Note_on_c, 0, 57, 0
2, 30479, Control_c, 0, 64, 0
2, 30480, Control_c, 0, 64, 127
2, 30480, Note_on_c, 0, 40, 80
2, 30599, Note_on_c, 0, 40, 0
2, 30600, Note_on_c, 0, 52, 80
2, 30719, Note_on_c, 0, 52, 0
2, 30720, Note_on_c, 0, 56, 80
2, 30839, Note_on_c, 0, 56, 0
2, 31199, Control_c, 0, 64, 0
2, 31200, Note_on_c, 0, 45, 80
2, 31319, Note_on_c, 0, 45, 0
2, 31320, Note_on_c, 0, 52, 80
2, 31439, Note_on_c, 0, 52, 0
2, 31440, Note_on_c, 0, 57, 80
2, 31559, Note_on_c, 0, 57, 0
2, 31560, Note_on_c, 0, 60, 80
2, 31560, Note_on_c, 0, 58, 80
2, 31619, Note_on_c, 0, 60, 0
2, 31619, Note_on_c, 0, 58, 0
2, 31680, Note_on_c, 0, 60, 80
2, 31680, Note_on_c, 0, 57, 80
2, 31739, Note_on_c, 0, 60, 0
2, 31739, Note_on_c, 0, 57, 0
2, 31800, Note_on_c, 0, 60, 80
2, 31800, Note_on_c, 0, 58, 80
2, 31800, Note_on_c, 0, 55, 80
2, 31859, Note_on_c, 0, 60, 0
2, 31859, Note_on_c, 0, 58, 0
2, 31859, Note_on_c, 0, 55, 0
2, 31920, Note_on_c, 0, 53, 80
2, 32039, Note_on_c, 0, 53, 0
2, 32040, Note_on_c, 0, 57, 80
2, 32159, Note_on_c, 0, 57, 0
2, 32160, Note_on_c, 0, 60, 80
2, 32279, Note_on_c, 0, 60, 0
2, 32280, Note_on_c, 0, 57, 80
2, 32399, Note_on_c, 0, 57, 0
2, 32400, Note_on_c, 0, 60, 80
2, 32519, Note_on_c, 0, 60, 0
2, 32520, Note_on_c, 0, 57, 80
2, 32639, Note_on_c, 0, 57, 0
2, 32640, Note_on_c, 0, 53, 80
2, 32759, Note_on_c, 0, 53, 0
2, 32760, Note_on_c, 0, 58, 80
2, 32879, Note_on_c, 0, 58, 0
2, 32880, Note_on_c, 0, 62, 80
2, 32999, Note_on_c, 0, 62, 0
2, 33000, Note_on_c, 0, 58, 80
2, 33119, Note_on_c, 0, 58, 0
2, 33120, Note_on_c, 0, 62, 80
2, 33239, Note_on_c, 0, 62, 0
2, 33240, Note_on_c, 0, 58, 80
2, 33359, Note_on_c, 0, 58, 0
2, 33360, Note_on_c, 0, 53, 80
2, 33479, Note_on_c, 0, 53, 0
2, 33480, Note_on_c, 0, 64, 80
2, 33599, Note_on_c, 0, 64, 0
2, 33600, Note_on_c, 0, 58, 80
2, 33600, Note_on_c, 0, 55, 80
2, 33600, Note_on_c, 0, 53, 80
2, 33719, Note_on_c, 0, 58, 0
2, 33719, Note_on_c, 0, 55, 0
2, 33719, Note_on_c, 0, 53, 0
2, 33720, Note_on_c, 0, 64, 80
2, 33839, Note_on_c, 0, 64, 0
2, 33840, Note_on_c, 0, 58, 80
2, 33840, Note_on_c, 0, 55, 80
2, 33840, Note_on_c, 0, 53, 80
2, 33959, Note_on_c, 0, 58, 0
2, 33959, Note_on_c, 0, 55, 0
2, 33959, Note_on_c, 0, 53, 0
2, 33960, Note_on_c, 0, 64, 80
2, 34079, Note_on_c, 0, 64, 0
2, 34080, Note_on_c, 0, 53, 80
2, 34199, Note_on_c, 0, 53, 0
2, 34200, Note_on_c, 0, 57, 80
2, 34319, Note_on_c, 0, 57, 0
2, 34320, Note_on_c, 0, 60, 80
2, 34439, Note_on_c, 0, 60, 0
2, 34440, Note_on_c, 0, 57, 80
2, 34559, Note_on_c, 0, 57, 0
2, 34560, Note_on_c, 0, 60, 80
2, 34679, Note_on_c, 0, 60, 0
2, 34680, Note_on_c, 0, 57, 80
2, 34799, Note_on_c, 0, 57, 0
2, 34800, Note_on_c, 0, 53, 80
2, 34919, Note_on_c, 0, 53, 0
2, 34920, Note_on_c, 0, 57, 80
2, 35039, Note_on_c, 0, 57, 0
2, 35040, Note_on_c, 0, 60, 80
2, 35159, Note_on_c, 0, 60, 0
2, 35160, Note_on_c, 0, 57, 80
2, 35279, Note_on_c, 0, 57, 0
2, 35280, Note_on_c, 0, 60, 80
2, 35399, Note_on_c, 0, 60, 0
2, 35400, Note_on_c, 0, 57, 80
2, 35519, Note_on_c, 0, 57, 0
2, 35520, Note_on_c, 0, 52, 80
2, 35639, Note_on_c, 0, 52, 0
2, 35640, Note_on_c, 0, 57, 80
2, 35759, Note_on_c, 0, 57, 0
2, 35760, Note_on_c, 0, 60, 80
2, 35879, Note_on_c, 0, 60, 0
2, 35880, Note_on_c, 0, 57, 80
2, 35999, Note_on_c, 0, 57, 0
2, 36000, Note_on_c, 0, 62, 80
2, 36000, Note_on_c, 0, 50, 80
2, 36119, Note_on_c, 0, 62, 0
2, 36119, Note_on_c, 0, 50, 0
2, 36120, Note_on_c, 0, 53, 80
2, 36239, Note_on_c, 0, 53, 0
2, 36240, Note_on_c, 0, 55, 80
2, 36359, Note_on_c, 0, 55, 0
2, 36360, Note_on_c, 0, 64, 80
2, 36479, Note_on_c, 0, 64, 0
2, 36480, Note_on_c, 0, 55, 80
2, 36599, Note_on_c, 0, 55, 0
2, 36600, Note_on_c, 0, 64, 80
2, 36719, Note_on_c, 0, 64, 0
2, 36720, Note_on_c, 0, 55, 80
2, 36839, Note_on_c, 0, 55, 0
2, 36840, Note_on_c, 0, 65, 80
2, 36959, Note_on_c, 0, 65, 0
2, 36960, Note_on_c, 0, 64, 80
2, 36960, Note_on_c, 0, 60, 80
2, 37199, Note_on_c, 0, 64, 0
2, 37199, Note_on_c, 0, 60, 0
2, 37320, Note_on_c, 0, 67, 80
2, 37320, Note_on_c, 0, 65, 80
2, 37379, Note_on_c, 0, 67, 0
2, 37379, Note_on_c, 0, 65, 0
2, 37440, Note_on_c, 0, 67, 80
2, 37440, Note_on_c, 0, 64, 80
2, 37499, Note_on_c, 0, 67, 0
2, 37499, Note_on_c, 0, 64, 0
2, 37560, Note_on_c, 0, 67, 80
2, 37560, Note_on_c, 0, 65, 80
2, 37560, Note_on_c, 0, 62, 80
2, 37619, Note_on_c, 0, 67, 0
2, 37619, Note_on_c, 0, 65, 0
2, 37619, Note_on_c, 0, 62, 0
2, 37680, Note_on_c, 0, 67, 49
2, 37680, Note_on_c, 0, 64, 49
2, 37680, Note_on_c, 0, 60, 49
2, 37919, Note_on_c, 0, 67, 0
2, 37919, Note_on_c, 0, 64, 0
2, 37919, Note_on_c, 0, 60, 0
2, 37920, Note_on_c, 0, 57, 49
2, 37920, Note_on_c, 0, 53, 49
2, 38159, Note_on_c, 0, 57, 0
2, 38159, Note_on_c, 0, 53, 0
2, 38160, Note_on_c, 0, 59, 49
2, 38160, Note_on_c, 0, 55, 49
2, 38399, Note_on_c, 0, 59, 0
2, 38399, Note_on_c, 0, 55, 0
2, 38400, Note_on_c, 0, 60, 49
2, 38639, Note_on_c, 0, 60, 0
2, 38760, Note_on_c, 0, 67, 49
2, 38760, Note_on_c, 0, 65, 49
2, 38819, Note_on_c, 0, 67, 0
2, 38819, Note_on_c, 0, 65, 0
2, 38880, Note_on_c, 0, 67, 49
2, 38880, Note_on_c, 0, 64, 49
2, 38939, Note_on_c, 0, 67, 0
2, 38939, Note_on_c, 0, 64, 0
2, 39000, Note_on_c, 0, 67, 49
2, 39000, Note_on_c, 0, 65, 49
2, 39000, Note_on_c, 0, 62, 49
2, 39059, Note_on_c, 0, 67, 0
2, 39059, Note_on_c, 0, 65, 0
2, 39059, Note_on_c, 0, 62, 0
2, 39120, Note_on_c, 0, 67, 49
2, 39120, Note_on_c, 0, 64, 49
2, 39120, Note_on_c, 0, 60, 49
2, 39359, Note_on_c, 0, 67, 0
2, 39359, Note_on_c, 0, 64, 0
2, 39359, Note_on_c, 0, 60, 0
2, 39360, Note_on_c, 0, 57, 49
2, 39360, Note_on_c, 0, 53, 49
2, 39599, Note_on_c, 0, 57, 0
2, 39599, Note_on_c, 0, 53, 0
2, 39600, Note_on_c, 0, 59, 49
2, 39600, Note_on_c, 0, 55, 49
2, 39839, Note_on_c, 0, 59, 0
2, 39839, Note_on_c, 0, 55, 0
2, 39840, Note_on_c, 0, 59, 49
2, 39840, Note_on_c, 0, 56, 49
2, 40079, Note_on_c, 0, 59, 0
2, 40079, Note_on_c, 0, 56, 0
2, 43440, Control_c, 0, 64, 127
2, 43440, Note_on_c, 0, 45, 49
2, 43559, Note_on_c, 0, 45, 0
2, 43560, Note_on_c, 0, 52, 49
2, 43679, Note_on_c, 0, 52, 0
2, 43680, Note_on_c, 0, 57, 49
2, 43799, Note_on_c, 0, 57, 0
2, 44159, Control_c, 0, 64, 0
2, 44160, Control_c, 0, 64, 127
2, 44160, Note_on_c, 0, 40, 49
2, 44279, Note_on_c, 0, 40, 0
2, 44280, Note_on_c, 0, 52, 49
2, 44399, Note_on_c, 0, 52, 0
2, 44400, Note_on_c, 0, 56, 49
2, 44519, Note_on_c, 0, 56, 0
2, 44879, Control_c, 0, 64, 0
2, 44880, Control_c, 0, 64, 127
2, 44880, Note_on_c, 0, 45, 49
2, 44999, Note_on_c, 0, 45, 0
2, 45000, Note_on_c, 0, 52, 49
2, 45119, Note_on_c, 0, 52, 0
2, 45120, Note_on_c, 0, 57, 49
2, 45239, Note_on_c, 0, 57, 0
2, 45599, Control_c, 0, 64, 0
2, 46320, Control_c, 0, 64, 127
2, 46320, Note_on_c, 0, 45, 49
2, 46439, Note_on_c, 0, 45, 0
2, 46440, Note_on_c, 0, 52, 49
2, 46559, Note_on_c, 0, 52, 0
2, 46560, Note_on_c, 0, 57, 49
2, 46679, Note_on_c, 0, 57, 0
2, 47039, Control_c, 0, 64, 0
2, 47040, Control_c, 0, 64, 127
2, 47040, Note_on_c, 0, 40, 49
2, 47159, Note_on_c, 0, 40, 0
2, 47160, Note_on_c, 0, 52, 49
2, 47279, Note_on_c, 0, 52, 0
2, 47280, Note_on_c, 0, 56, 49
2, 47399, Note_on_c, 0, 56, 0
2, 47759, Control_c, 0, 64, 0
2, 47760, Control_c, 0, 64, 127
2, 47760, Note_on_c, 0, 45, 49
2, 47879, Note_on_c, 0, 45, 0
2, 47880, Note_on_c, 0, 52, 49
2, 47999, Note_on_c, 0, 52, 0
2, 48000, Note_on_c, 0, 57, 49
2, 48119, Note_on_c, 0, 57, 0
2, 48479, Control_c, 0, 64, 0
2, 48480, Control_c, 0, 64, 127
2, 48480, Note_on_c, 0, 48, 49
2, 48599, Note_on_c, 0, 48, 0
2, 48600, Note_on_c, 0, 55, 49
2, 48719, Note_on_c, 0, 55, 0
2, 48720, Note_on_c, 0, 60, 49
2, 48839, Note_on_c, 0, 60, 0
2, 49199, Control_c, 0, 64, 0
2, 49200, Control_c, 0, 64, 127
2, 49200, Note_on_c, 0, 43, 49
2, 49319, Note_on_c, 0, 43, 0
2, 49320, Note_on_c, 0, 55, 49
2, 49439, Note_on_c, 0, 55, 0
2, 49440, Note_on_c, 0, 59, 49
2, 49559, Note_on_c, 0, 59, 0
2, 49919, Control_c, 0, 64, 0
2, 49920, Control_c, 0, 64, 127
2, 49920, Note_on_c, 0, 45, 49
2, 50039, Note_on_c, 0, 45, 0
2, 50040, Note_on_c, 0, 52, 49
2, 50159, Note_on_c, 0, 52, 0
2, 50160, Note_on_c, 0, 57, 49
2, 50279, Note_on_c, 0, 57, 0
2, 50639, Control_c, 0, 64, 0
2, 50640, Note_on_c, 0, 40, 49
2, 50759, Note_on_c, 0, 40, 0
2, 50760, Note_on_c, 0, 52, 49
2, 50879, Note_on_c, 0, 52, 0
2, 50880, Note_on_c, 0, 64, 49
2, 50999, Note_on_c, 0, 64, 0
2, 53520, Control_c, 0, 64, 127
2, 53520, Note_on_c, 0, 45, 49
2, 53639, Note_on_c, 0, 45, 0
2, 53640, Note_on_c, 0, 52, 49
2, 53759, Note_on_c, 0, 52, 0
2, 53760, Note_on_c, 0, 57, 49
2, 53879, Note_on_c, 0, 57, 0
2, 54239, Control_c, 0, 64, 0
2, 54240, Control_c, 0, 64, 127
2, 54240, Note_on_c, 0, 40, 49
2, 54359, Note_on_c, 0, 40, 0
2, 54360, Note_on_c, 0, 52, 49
2, 54479, Note_on_c, 0, 52, 0
2, 54480, Note_on_c, 0, 56, 49
2, 54599, Note_on_c, 0, 56, 0
2, 54959, Control_c, 0, 64, 0
2, 54960, Control_c, 0, 64, 127
2, 54960, Note_on_c, 0, 45, 49
2, 55079, Note_on_c, 0, 45, 0
2, 55080, Note_on_c, 0, 52, 49
2, 55199, Note_on_c, 0, 52, 0
2, 55200, Note_on_c, 0, 57, 49
2, 55319, Note_on_c, 0, 57, 0
2, 55679, Control_c, 0, 64, 0
2, 56400, Control_c, 0, 64, 127
2, 56400, Note_on_c, 0, 45, 49
2, 56519, Note_on_c, 0, 45, 0
2, 56520, Note_on_c, 0, 52, 49
2, 56639, Note_on_c, 0, 52, 0
2, 56640, Note_on_c, 0, 57, 49
2, 56759, Note_on_c, 0, 57, 0
2, 57119, Control_c, 0, 64, 0
2, 57120, Control_c, 0, 64, 127
2, 57120, Note_on_c, 0, 40, 49
2, 57239, Note_on_c, 0, 40, 0
2, 57240, Note_on_c, 0, 52, 49
2, 57359, Note_on_c, 0, 52, 0
2, 57360, Note_on_c, 0, 56, 49
2, 57479, Note_on_c, 0, 56, 0
2, 57839, Control_c, 0, 64, 0
2, 57840, Control_c, 0, 64, 127
2, 57840, Note_on_c, 0, 45, 49
2, 57959, Note_on_c, 0, 45, 0
2, 57960, Note_on_c, 0, 45, 49
2, 58079, Note_on_c, 0, 45, 0
2, 58080, Note_on_c, 0, 45, 49
2, 58199, Note_on_c, 0, 45, 0
2, 58200, Note_on_c, 0, 45, 49
2, 58319, Note_on_c, 0, 45, 0
2, 58320, Note_on_c, 0, 45, 49
2, 58439, Note_on_c, 0, 45, 0
2, 58440, Note_on_c, 0, 45, 49
2, 58559, Control_c, 0, 64, 0
2, 58559, Note_on_c, 0, 45, 0
2, 58560, Control_c, 0, 64, 127
2, 58560, Note_on_c, 0, 45, 49
2, 58679, Note_on_c, 0, 45, 0
2, 58680, Note_on_c, 0, 45, 49
2, 58799, Note_on_c, 0, 45, 0
2, 58800, Note_on_c, 0, 45, 49
2, 58919, Note_on_c, 0, 45, 0
2, 58920, Note_on_c, 0, 45, 49
2, 59039, Note_on_c, 0, 45, 0
2, 59040, Note_on_c, 0, 45, 49
2, 59159, Note_on_c, 0, 45, 0
2, 59160, Note_on_c, 0, 45, 49
2, 59279, Control_c, 0, 64, 0
2, 59279, Note_on_c, 0, 45, 0
2, 59280, Control_c, 0, 64, 127
2, 59280, Note_on_c, 0, 45, 49
2, 59399, Note_on_c, 0, 45, 0
2, 59400, Note_on_c, 0, 45, 49
2, 59519, Note_on_c, 0, 45, 0
2, 59520, Note_on_c, 0, 45, 49
2, 59639, Note_on_c, 0, 45, 0
2, 59640, Note_on_c, 0, 45, 49
2, 59759, Note_on_c, 0, 45, 0
2, 59760, Note_on_c, 0, 45, 49
2, 59879, Note_on_c, 0, 45, 0
2, 59880, Note_on_c, 0, 45, 49
2, 59999, Control_c, 0, 64, 0
2, 59999, Note_on_c, 0, 45, 0
2, 60000, Control_c, 0, 64, 127
2, 60000, Note_on_c, 0, 45, 96
2, 60119, Note_on_c, 0, 45, 0
2, 60120, Note_on_c, 0, 45, 96
2, 60239, Note_on_c, 0, 45, 0
2, 60240, Note_on_c, 0, 45, 96
2, 60359, Note_on_c, 0, 45, 0
2, 60360, Note_on_c, 0, 45, 96
2, 60479, Note_on_c, 0, 45, 0
2, 60480, Note_on_c, 0, 45, 96
2, 60599, Note_on_c, 0, 45, 0
2, 60600, Note_on_c, 0, 45, 96
2, 60719, Control_c, 0, 64, 0
2, 60719, Note_on_c, 0, 45, 0
2, 60720, Control_c, 0, 64, 127
2, 60720, Note_on_c, 0, 45, 96
2, 60839, Note_on_c, 0, 45, 0
2, 60840, Note_on_c, 0, 45, 96
2, 60959, Note_on_c, 0, 45, 0
2, 60960, Note_on_c, 0, 45, 96
2, 61079, Note_on_c, 0, 45, 0
2, 61080, Note_on_c, 0, 45, 96
2, 61199, Note_on_c, 0, 45, 0
2, 61200, Note_on_c, 0, 45, 96
2, 61319, Note_on_c, 0, 45, 0
2, 61320, Note_on_c, 0, 45, 96
2, 61439, Control_c, 0, 64, 0
2, 61439, Note_on_c, 0, 45, 0
2, 61440, Control_c, 0, 64, 127
2, 61440, Note_on_c, 0, 45, 96
2, 61440, Note_on_c, 0, 38, 96
2, 61559, Note_on_c, 0, 45, 0
2, 61559, Note_on_c, 0, 38, 0
2, 61560, Note_on_c, 0, 45, 96
2, 61560, Note_on_c, 0, 38, 96
2, 61679, Note_on_c, 0, 45, 0
2, 61679, Note_on_c, 0, 38, 0
2, 61680, Note_on_c, 0, 45, 96
2, 61680, Note_on_c, 0, 38, 96
2, 61799, Note_on_c, 0, 45, 0
2, 61799, Note_on_c, 0, 38, 0
2, 61800, Note_on_c, 0, 45, 96
2, 61800, Note_on_c, 0, 38, 96
2, 61919, Note_on_c, 0, 45, 0
2, 61919, Note_on_c, 0, 38, 0
2, 61920, Note_on_c, 0, 45, 96
2, 61920, Note_on_c, 0, 38, 96
2, 62039, Note_on_c, 0, 45, 0
2, 62039, Note_on_c, 0, 38, 0
2, 62040, Note_on_c, 0, 45, 96
2, 62040, Note_on_c, 0, 38, 96
2, 62159, Control_c, 0, 64, 0
2, 62159, Note_on_c, 0, 45, 0
2, 62159, Note_on_c, 0, 38, 0
2, 62160, Control_c, 0, 64, 127
2, 62160, Note_on_c, 0, 45, 96
2, 62160, Note_on_c, 0, 39, 96
2, 62279, Note_on_c, 0, 45, 0
2, 62279, Note_on_c, 0, 39, 0
2, 62280, Note_on_c, 0, 45, 96
2, 62280, Note_on_c, 0, 39, 96
2, 62399, Note_on_c, 0, 45, 0
2, 62399, Note_on_c, 0, 39, 0
2, 62400, Note_on_c, 0, 45, 96
2, 62400, Note_on_c, 0, 39, 96
2, 62519, Note_on_c, 0, 45, 0
2, 62519, Note_on_c, 0, 39, 0
2, 62520, Note_on_c, 0, 45, 96
2, 62520, Note_on_c, 0, 39, 96
2, 62639, Note_on_c, 0, 45, 0
2, 62639, Note_on_c, 0, 39, 0
2, 62640, Note_on_c, 0, 45, 96
2, 62640, Note_on_c, 0, 39, 96
2, 62759, Note_on_c, 0, 45, 0
2, 62759, Note_on_c, 0, 39, 0
2, 62760, Note_on_c, 0, 45, 96
2, 62760, Note_on_c, 0, 39, 96
2, 62879, Control_c, 0, 64, 0
2, 62879, Note_on_c, 0, 45, 0
2, 62879, Note_on_c, 0, 39, 0
2, 62880, Control_c, 0, 64, 127
2, 62880, Note_on_c, 0, 45, 96
2, 62880, Note_on_c, 0, 40, 96
2, 62999, Note_on_c, 0, 45, 0
2, 62999, Note_on_c, 0, 40, 0
2, 63000, Note_on_c, 0, 45, 96
2, 63000, Note_on_c, 0, 40, 96
2, 63119, Note_on_c, 0, 45, 0
2, 63119, Note_on_c, 0, 40, 0
2, 63120, Note_on_c, 0, 45, 96
2, 63120, Note_on_c, 0, 40, 96
2, 63239, Note_on_c, 0, 45, 0
2, 63239, Note_on_c, 0, 40, 0
2, 63240, Note_on_c, 0, 45, 96
2, 63240, Note_on_c, 0, 40, 96
2, 63359, Note_on_c, 0, 45, 0
2, 63359, Note_on_c, 0, 40, 0
2, 63360, Note_on_c, 0, 44, 96
2, 63360, Note_on_c, 0, 40, 96
2, 63479, Note_on_c, 0, 44, 0
2, 63479, Note_on_c, 0, 40, 0
2, 63480, Note_on_c, 0, 44, 96
2, 63480, Note_on_c, 0, 40, 96
2, 63599, Control_c, 0, 64, 0
2, 63599, Note_on_c, 0, 44, 0
2, 63599, Note_on_c, 0, 40, 0
2, 63600, Control_c, 0, 64, 127
2, 63600, Note_on_c, 0, 45, 96
2, 63600, Note_on_c, 0, 33, 96
2, 63719, Note_on_c, 0, 45, 0
2, 63719, Note_on_c, 0, 33, 0
2, 63720, Note_on_c, 0, 45, 96
2, 63839, Note_on_c, 0, 45, 0
2, 63840, Note_on_c, 0, 45, 96
2, 63959, Note_on_c, 0, 45, 0
2, 63960, Note_on_c, 0, 45, 96
2, 64079, Note_on_c, 0, 45, 0
2, 64080, Note_on_c, 0, 45, 96
2, 64199, Note_on_c, 0, 45, 0
2, 64200, Note_on_c, 0, 45, 96
2, 64319, Control_c, 0, 64, 0
2, 64319, Note_on_c, 0, 45, 0
2, 64320, Control_c, 0, 64, 127
2, 64320, Note_on_c, 0, 45, 96
2, 64439, Note_on_c, 0, 45, 0
2, 64440, Note_on_c, 0, 45, 96
2, 64559, Note_on_c, 0, 45, 0
2, 64560, Note_on_c, 0, 45, 96
2, 64679, Note_on_c, 0, 45, 0
2, 64680, Note_on_c, 0, 45, 96
2, 64799, Note_on_c, 0, 45, 0
2, 64800, Note_on_c, 0, 45, 96
2, 64919, Note_on_c, 0, 45, 0
2, 64920, Note_on_c, 0, 45, 96
2, 65039, Control_c, 0, 64, 0
2, 65039, Note_on_c, 0, 45, 0
2, 65040, Control_c, 0, 64, 127
2, 65040, Note_on_c, 0, 45, 80
2, 65159, Note_on_c, 0, 45, 0
2, 65160, Note_on_c, 0, 45, 80
2, 65279, Note_on_c, 0, 45, 0
2, 65280, Note_on_c, 0, 45, 80
2, 65399, Note_on_c, 0, 45, 0
2, 65400, Note_on_c, 0, 45, 80
2, 65519, Note_on_c, 0, 45, 0
2, 65520, Note_on_c, 0, 45, 80
2, 65639, Note_on_c, 0, 45, 0
2, 65640, Note_on_c, 0, 45, 80
2, 65759, Control_c, 0, 64, 0
2, 65759, Note_on_c, 0, 45, 0
2, 65760, Control_c, 0, 64, 127
2, 65760, Note_on_c, 0, 45, 96
2, 65879, Note_on_c, 0, 45, 0
2, 65880, Note_on_c, 0, 45, 96
2, 65999, Note_on_c, 0, 45, 0
2, 66000, Note_on_c, 0, 45, 96
2, 66119, Note_on_c, 0, 45, 0
2, 66120, Note_on_c, 0, 45, 96
2, 66239, Note_on_c, 0, 45, 0
2, 66240, Note_on_c, 0, 45, 96
2, 66359, Note_on_c, 0, 45, 0
2, 66360, Note_on_c, 0, 45, 96
2, 66479, Control_c, 0, 64, 0
2, 66479, Note_on_c, 0, 45, 0
2, 66480, Control_c, 0, 64, 127
2, 66480, Note_on_c, 0, 46, 96
2, 66599, Note_on_c, 0, 46, 0
2, 66600, Note_on_c, 0, 46, 96
2, 66719, Note_on_c, 0, 46, 0
2, 66720, Note_on_c, 0, 46, 96
2, 66839, Note_on_c, 0, 46, 0
2, 66840, Note_on_c, 0, 46, 96
2, 66959, Note_on_c, 0, 46, 0
2, 66960, Note_on_c, 0, 46, 96
2, 67079, Note_on_c, 0, 46, 0
2, 67080, Note_on_c, 0, 46, 96
2, 67199, Control_c, 0, 64, 0
2, 67199, Note_on_c, 0, 46, 0
2, 67200, Control_c, 0, 64, 127
2, 67200, Note_on_c, 0, 46, 96
2, 67319, Note_on_c, 0, 46, 0
2, 67320, Note_on_c, 0, 46, 96
2, 67439, Note_on_c, 0, 46, 0
2, 67440, Note_on_c, 0, 46, 96
2, 67559, Note_on_c, 0, 46, 0
2, 67560, Note_on_c, 0, 46, 96
2, 67679, Note_on_c, 0, 46, 0
2, 67680, Note_on_c, 0, 46, 96
2, 67799, Note_on_c, 0, 46, 0
2, 67800, Note_on_c, 0, 46, 96
2, 67919, Control_c, 0, 64, 0
2, 67919, Note_on_c, 0, 46, 0
2, 67920, Control_c, 0, 64, 127
2, 67920, Note_on_c, 0, 46, 96
2, 68039, Note_on_c, 0, 46, 0
2, 68040, Note_on_c, 0, 46, 96
2, 68159, Note_on_c, 0, 46, 0
2, 68160, Note_on_c, 0, 46, 96
2, 68279, Note_on_c, 0, 46, 0
2, 68280, Note_on_c, 0, 46, 96
2, 68399, Note_on_c, 0, 46, 0
2, 68400, Note_on_c, 0, 46, 96
2, 68519, Note_on_c, 0, 46, 0
2, 68520, Note_on_c, 0, 46, 96
2, 68639, Control_c, 0, 64, 0
2, 68639, Note_on_c, 0, 46, 0
2, 68640, Control_c, 0, 64, 127
2, 68640, Note_on_c, 0, 47, 96
2, 68759, Note_on_c, 0, 47, 0
2, 68760, Note_on_c, 0, 47, 96
2, 68879, Note_on_c, 0, 47, 0
2, 68880, Note_on_c, 0, 47, 96
2, 68999, Note_on_c, 0, 47, 0
2, 69000, Note_on_c, 0, 47, 96
2, 69119, Note_on_c, 0, 47, 0
2, 69120, Note_on_c, 0, 47, 96
2, 69239, Note_on_c, 0, 47, 0
2, 69240, Note_on_c, 0, 47, 96
2, 69359, Control_c, 0, 64, 0
2, 69359, Note_on_c, 0, 47, 0
2, 69360, Control_c, 0, 64, 127
2, 69360, Note_on_c, 0, 48, 96
2, 69839, Note_on_c, 0, 48, 0
2, 70079, Control_c, 0, 64, 0
2, 70080, Control_c, 0, 64, 127
2, 70080, Note_on_c, 0, 56, 96
2, 70080, Note_on_c, 0, 52, 96
2, 70319, Note_on_c, 0, 56, 0
2, 70319, Note_on_c, 0, 52, 0
2, 70799, Control_c, 0, 64, 0
2, 70800, Note_on_c, 0, 33, 96
2, 71039, Note_on_c, 0, 33, 0
2, 71280, Note_on_c, 0, 64, 96
2, 71280, Note_on_c, 0, 60, 96
2, 71280, Note_on_c, 0, 57, 96
2, 71519, Note_on_c, 0, 64, 0
2, 71519, Note_on_c, 0, 60, 0
2, 71519, Note_on_c, 0, 57, 0
2, 71520, Note_on_c, 0, 64, 96
2, 71520, Note_on_c, 0, 60, 96
2, 71520, Note_on_c, 0, 57, 96
2, 71759, Note_on_c, 0, 64, 0
2, 71759, Note_on_c, 0, 60, 0
2, 71759, Note_on_c, 0, 57, 0
2, 72000, Note_on_c, 0, 64, 96
2, 72000, Note_on_c, 0, 60, 96
2, 72000, Note_on_c, 0, 57, 96
2, 72239, Note_on_c, 0, 64, 0
2, 72239, Note_on_c, 0, 60, 0
2, 72239, Note_on_c, 0, 57, 0
2, 72240, Note_on_c, 0, 64, 96
2, 72240, Note_on_c, 0, 60, 96
2, 72240, Note_on_c, 0, 57, 96
2, 72479, Note_on_c, 0, 64, 0
2, 72479, Note_on_c, 0, 60, 0
2, 72479, Note_on_c, 0, 57, 0
2, 72720, Note_on_c, 0, 64, 96
2, 72720, Note_on_c, 0, 60, 96
2, 72720, Note_on_c, 0, 57, 96
2, 72959, Note_on_c, 0, 64, 0
2, 72959, Note_on_c, 0, 60, 0
2, 72959, Note_on_c, 0, 57, 0
2, 72960, Note_on_c, 0, 64, 96
2, 72960, Note_on_c, 0, 60, 96
2, 72960, Note_on_c, 0, 57, 96
2, 73199, Note_on_c, 0, 64, 0
2, 73199, Note_on_c, 0, 60, 0
2, 73199, Note_on_c, 0, 57, 0
2, 75120, Control_c, 0, 64, 127
2, 75120, Note_on_c, 0, 45, 96
2, 75239, Note_on_c, 0, 45, 0
2, 75240, Note_on_c, 0, 52, 96
2, 75359, Note_on_c, 0, 52, 0
2, 75360, Note_on_c, 0, 57, 96
2, 75479, Note_on_c, 0, 57, 0
2, 75839, Control_c, 0, 64, 0
2, 75840, Control_c, 0, 64, 127
2, 75840, Note_on_c, 0, 40, 96
2, 75959, Note_on_c, 0, 40, 0
2, 75960, Note_on_c, 0, 52, 96
2, 76079, Note_on_c, 0, 52, 0
2, 76080, Note_on_c, 0, 56, 96
2, 76199, Note_on_c, 0, 56, 0
2, 76559, Control_c, 0, 64, 0
2, 76560, Control_c, 0, 64, 127
2, 76560, Note_on_c, 0, 45, 96
2, 76679, Note_on_c, 0, 45, 0
2, 76680, Note_on_c, 0, 52, 96
2, 76799, Note_on_c, 0, 52, 0
2, 76800, Note_on_c, 0, 57, 96
2, 76919, Note_on_c, 0, 57, 0
2, 77279, Control_c, 0, 64, 0
2, 78000, Control_c, 0, 64, 127
2, 78000, Note_on_c, 0, 45, 96
2, 78119, Note_on_c, 0, 45, 0
2, 78120, Note_on_c, 0, 52, 96
2, 78239, Note_on_c, 0, 52, 0
2, 78240, Note_on_c, 0, 57, 96
2, 78359, Note_on_c, 0, 57, 0
2, 78719, Control_c, 0, 64, 0
2, 78720, Control_c, 0, 64, 127
2, 78720, Note_on_c, 0, 40, 96
2, 78839, Note_on_c, 0, 40, 0
2, 78840, Note_on_c, 0, 52, 96
2, 78959, Note_on_c, 0, 52, 0
2, 78960, Note_on_c, 0, 56, 96
2, 79079, Note_on_c, 0, 56, 0
2, 79439, Control_c, 0, 64, 0
2, 79440, Control_c, 0, 64, 127
2, 79440, Note_on_c, 0, 45, 96
2, 79559, Note_on_c, 0, 45, 0
2, 79560, Note_on_c, 0, 52, 96
2, 79679, Note_on_c, 0, 52, 0
2, 79680, Note_on_c, 0, 57, 96
2, 79799, Note_on_c, 0, 57, 0
2, 80159, Control_c, 0, 64, 0
2, 80160, Control_c, 0, 64, 127
2, 80160, Note_on_c, 0, 48, 96
2, 80279, Note_on_c, 0, 48, 0
2, 80280, Note_on_c, 0, 55, 96
2, 80399, Note_on_c, 0, 55, 0
2, 80400, Note_on_c, 0, 60, 96
2, 80519, Note_on_c, 0, 60, 0
2, 80879, Control_c, 0, 64, 0
2, 80880, Control_c, 0, 64, 127
2, 80880, Note_on_c, 0, 43, 96
2, 80999, Note_on_c, 0, 43, 0
2, 81000, Note_on_c, 0, 55, 96
2, 81119, Note_on_c, 0, 55, 0
2, 81120, Note_on_c, 0, 59, 96
2, 81239, Note_on_c, 0, 59, 0
2, 81599, Control_c, 0, 64, 0
2, 81600, Control_c, 0, 64, 127
2, 81600, Note_on_c, 0, 45, 96
2, 81719, Note_on_c, 0, 45, 0
2, 81720, Note_on_c, 0, 52, 96
2, 81839, Note_on_c, 0, 52, 0
2, 81840, Note_on_c, 0, 57, 96
2, 81959, Note_on_c, 0, 57, 0
2, 82319, Control_c, 0, 64, 0
2, 82320, Note_on_c, 0, 40, 96
2, 82439, Note_on_c, 0, 40, 0
2, 82440, Note_on_c, 0, 52, 96
2, 82559, Note_on_c, 0, 52, 0
2, 82560, Note_on_c, 0, 64, 96
2, 82679, Note_on_c, 0, 64, 0
2, 85200, Control_c, 0, 64, 127
2, 85200, Note_on_c, 0, 45, 96
2, 85319, Note_on_c, 0, 45, 0
2, 85320, Note_on_c, 0, 52, 96
2, 85439, Note_on_c, 0, 52, 0
2, 85440, Note_on_c, 0, 57, 96
2, 85559, Note_on_c, 0, 57, 0
2, 85919, Control_c, 0, 64, 0
2, 85920, Control_c, 0, 64, 127
2, 85920, Note_on_c, 0, 40, 96
2, 86039, Note_on_c, 0, 40, 0
2, 86040, Note_on_c, 0, 52, 96
2, 86159, Note_on_c, 0, 52, 0
2, 86160, Note_on_c, 0, 56, 96
2, 86279, Note_on_c, 0, 56, 0
2, 86639, Control_c, 0, 64, 0
2, 86640, Control_c, 0, 64, 127
2, 86640, Note_on_c, 0, 45, 96
2, 86759, Note_on_c, 0, 45, 0
2, 86760, Note_on_c, 0, 52, 96
2, 86879, Note_on_c, 0, 52, 0
2, 86880, Note_on_c, 0, 57, 96
2, 86999, Note_on_c, 0, 57, 0
2, 87359, Control_c, 0, 64, 0
2, 88080, Control_c, 0, 64, 127
2, 88080, Note_on_c, 0, 45, 96
2, 88199, Note_on_c, 0, 45, 0
2, 88200, Note_on_c, 0, 52, 96
2, 88319, Note_on_c, 0, 52, 0
2, 88320, Note_on_c, 0, 57, 96
2, 88439, Note_on_c, 0, 57, 0
2, 88799, Control_c, 0, 64, 0
2, 88800, Control_c, 0, 64, 127
2, 88800, Note_on_c, 0, 40, 96
2, 88919, Note_on_c, 0, 40, 0
2, 88920, Note_on_c, 0, 52, 96
2, 89039, Note_on_c, 0, 52, 0
2, 89040, Note_on_c, 0, 56, 96
2, 89159, Note_on_c, 0, 56, 0
2, 89519, Control_c, 0, 64, 0
2, 89520, Note_on_c, 0, 45, 96
2, 89520, Note_on_c, 0, 33, 96
2, 89999, Note_on_c, 0, 45, 0
2, 89999, Note_on_c, 0, 33, 0
2, 90000, End_track
0, 0, End_of_file
