0, 0, Header, 1, 2, 480
1, 0, Start_track
1, 0, Time_signature, 6, 3, 24, 8
1, 0, Key_signature, 0, "major"
1, 0, Tempo, 750002
1, 0, Control_c, 0, 121, 0
1, 0, Program_c, 0, 0
1, 0, Control_c, 0, 7, 100
1, 0, Control_c, 0, 10, 64
1, 0, Control_c, 0, 91, 0
1, 0, Control_c, 0, 93, 0
1, 0, MIDI_port, 0
1, 960, Note_on_c, 0, 87, 33
1, 960, Note_on_c, 0, 99, 33
1, 1187, Note_on_c, 0, 87, 0
1, 1187, Note_on_c, 0, 99, 0
1, 1200, Note_on_c, 0, 87, 33
1, 1200, Note_on_c, 0, 99, 33
1, 1427, Note_on_c, 0, 87, 0
1, 1427, Note_on_c, 0, 99, 0
1, 1440, Note_on_c, 0, 87, 33
1, 1440, Note_on_c, 0, 99, 33
1, 1667, Note_on_c, 0, 87, 0
1, 1667, Note_on_c, 0, 99, 0
1, 2400, Note_on_c, 0, 87, 33
1, 2400, Note_on_c, 0, 99, 33
1, 2627, Note_on_c, 0, 87, 0
1, 2627, Note_on_c, 0, 99, 0
1, 2640, Note_on_c, 0, 87, 33
1, 2640, Note_on_c, 0, 99, 33
1, 2867, Note_on_c, 0, 87, 0
1, 2867, Note_on_c, 0, 99, 0
1, 2880, Note_on_c, 0, 87, 33
1, 2880, Note_on_c, 0, 99, 33
1, 3107, Note_on_c, 0, 87, 0
1, 3107, Note_on_c, 0, 99, 0
1, 3360, Note_on_c, 0, 87, 33
1, 3360, Note_on_c, 0, 99, 33
1, 3587, Note_on_c, 0, 87, 0
1, 3587, Note_on_c, 0, 99, 0
1, 3600, Note_on_c, 0, 87, 33
1, 3600, Note_on_c, 0, 99, 33
1, 3827, Note_on_c, 0, 87, 0
1, 3827, Note_on_c, 0, 99, 0
1, 4080, Tempo, 1000000
1, 4080, Note_on_c, 0, 87, 33
1, 4080, Note_on_c, 0, 99, 33
1, 4307, Note_on_c, 0, 87, 0
1, 4307, Note_on_c, 0, 99, 0
1, 4320, Tempo, 2000000
1, 4320, Note_on_c, 0, 87, 33
1, 4320, Note_on_c, 0, 99, 33
1, 4547, Note_on_c, 0, 87, 0
1, 4547, Note_on_c, 0, 99, 0
1, 4800, Tempo, 599999
1, 4800, Note_on_c, 0, 75, 64
1, 4800, Note_on_c, 0, 75, 64
1, 4913, Note_on_c, 0, 75, 0
1, 4920, Note_on_c, 0, 87, 64
1, 5027, Note_on_c, 0, 75, 0
1, 5033, Note_on_c, 0, 87, 0
1, 5040, Note_on_c, 0, 87, 64
1, 5040, Note_on_c, 0, 87, 64
1, 5153, Note_on_c, 0, 87, 0
1, 5160, Note_on_c, 0, 99, 64
1, 5267, Note_on_c, 0, 87, 0
1, 5273, Note_on_c, 0, 99, 0
1, 5280, Note_on_c, 0, 87, 64
1, 5280, Note_on_c, 0, 87, 64
1, 5393, Note_on_c, 0, 87, 0
1, 5400, Note_on_c, 0, 99, 64
1, 5507, Note_on_c, 0, 87, 0
1, 5513, Note_on_c, 0, 99, 0
1, 5520, Note_on_c, 0, 85, 64
1, 5520, Note_on_c, 0, 85, 64
1, 5633, Note_on_c, 0, 85, 0
1, 5640, Note_on_c, 0, 99, 64
1, 5747, Note_on_c, 0, 85, 0
1, 5753, Note_on_c, 0, 99, 0
1, 5760, Note_on_c, 0, 83, 64
1, 5760, Note_on_c, 0, 83, 64
1, 5873, Note_on_c, 0, 83, 0
1, 5880, Note_on_c, 0, 99, 64
1, 5987, Note_on_c, 0, 83, 0
1, 5993, Note_on_c, 0, 99, 0
1, 6000, Note_on_c, 0, 83, 64
1, 6000, Note_on_c, 0, 83, 64
1, 6113, Note_on_c, 0, 83, 0
1, 6120, Note_on_c, 0, 99, 64
1, 6227, Note_on_c, 0, 83, 0
1, 6233, Note_on_c, 0, 99, 0
1, 6240, Note_on_c, 0, 82, 64
1, 6240, Note_on_c, 0, 82, 64
1, 6353, Note_on_c, 0, 82, 0
1, 6360, Note_on_c, 0, 99, 64
1, 6467, Note_on_c, 0, 82, 0
1, 6473, Note_on_c, 0, 99, 0
1, 6480, Note_on_c, 0, 80, 64
1, 6480, Note_on_c, 0, 80, 64
1, 6593, Note_on_c, 0, 80, 0
1, 6600, Note_on_c, 0, 99, 64
1, 6707, Note_on_c, 0, 80, 0
1, 6713, Note_on_c, 0, 99, 0
1, 6720, Note_on_c, 0, 79, 64
1, 6720, Note_on_c, 0, 79, 64
1, 6833, Note_on_c, 0, 79, 0
1, 6840, Note_on_c, 0, 99, 64
1, 6947, Note_on_c, 0, 79, 0
1, 6953, Note_on_c, 0, 99, 0
1, 6960, Note_on_c, 0, 80, 64
1, 6960, Note_on_c, 0, 80, 64
1, 7073, Note_on_c, 0, 80, 0
1, 7080, Note_on_c, 0, 99, 64
1, 7187, Note_on_c, 0, 80, 0
1, 7193, Note_on_c, 0, 99, 0
1, 7200, Note_on_c, 0, 82, 64
1, 7200, Note_on_c, 0, 82, 64
1, 7313, Note_on_c, 0, 82, 0
1, 7320, Note_on_c, 0, 99, 64
1, 7427, Note_on_c, 0, 82, 0
1, 7433, Note_on_c, 0, 99, 0
1, 7440, Note_on_c, 0, 75, 64
1, 7440, Note_on_c, 0, 75, 64
1, 7553, Note_on_c, 0, 75, 0
1, 7560, Note_on_c, 0, 99, 64
1, 7667, Note_on_c, 0, 75, 0
1, 7673, Note_on_c, 0, 99, 0
1, 7680, Note_on_c, 0, 75, 64
1, 7680, Note_on_c, 0, 75, 64
1, 7793, Note_on_c, 0, 75, 0
1, 7800, Note_on_c, 0, 87, 64
1, 7907, Note_on_c, 0, 75, 0
1, 7913, Note_on_c, 0, 87, 0
1, 7920, Note_on_c, 0, 76, 64
1, 7920, Note_on_c, 0, 76, 64
1, 8033, Note_on_c, 0, 76, 0
1, 8040, Note_on_c, 0, 87, 64
1, 8147, Note_on_c, 0, 76, 0
1, 8153, Note_on_c, 0, 87, 0
1, 8160, Note_on_c, 0, 75, 64
1, 8160, Note_on_c, 0, 75, 64
1, 8273, Note_on_c, 0, 75, 0
1, 8280, Note_on_c, 0, 87, 64
1, 8387, Note_on_c, 0, 75, 0
1, 8393, Note_on_c, 0, 87, 0
1, 8400, Note_on_c, 0, 73, 64
1, 8400, Note_on_c, 0, 73, 64
1, 8513, Note_on_c, 0, 73, 0
1, 8520, Note_on_c, 0, 87, 64
1, 8627, Note_on_c, 0, 73, 0
1, 8633, Note_on_c, 0, 87, 0
1, 8640, Note_on_c, 0, 71, 64
1, 8640, Note_on_c, 0, 71, 64
1, 8753, Note_on_c, 0, 71, 0
1, 8760, Note_on_c, 0, 87, 64
1, 8867, Note_on_c, 0, 71, 0
1, 8873, Note_on_c, 0, 87, 0
1, 8880, Note_on_c, 0, 71, 64
1, 8880, Note_on_c, 0, 71, 64
1, 8993, Note_on_c, 0, 71, 0
1, 9000, Note_on_c, 0, 87, 64
1, 9107, Note_on_c, 0, 71, 0
1, 9113, Note_on_c, 0, 87, 0
1, 9120, Note_on_c, 0, 70, 64
1, 9120, Note_on_c, 0, 70, 64
1, 9233, Note_on_c, 0, 70, 0
1, 9240, Note_on_c, 0, 87, 64
1, 9347, Note_on_c, 0, 70, 0
1, 9353, Note_on_c, 0, 87, 0
1, 9360, Note_on_c, 0, 68, 64
1, 9360, Note_on_c, 0, 68, 64
1, 9473, Note_on_c, 0, 68, 0
1, 9480, Note_on_c, 0, 87, 64
1, 9587, Note_on_c, 0, 68, 0
1, 9593, Note_on_c, 0, 87, 0
1, 9600, Note_on_c, 0, 67, 64
1, 9600, Note_on_c, 0, 67, 64
1, 9713, Note_on_c, 0, 67, 0
1, 9720, Note_on_c, 0, 87, 64
1, 9827, Note_on_c, 0, 67, 0
1, 9833, Note_on_c, 0, 87, 0
1, 9840, Note_on_c, 0, 68, 64
1, 9840, Note_on_c, 0, 68, 64
1, 9953, Note_on_c, 0, 68, 0
1, 9960, Note_on_c, 0, 87, 64
1, 10067, Note_on_c, 0, 68, 0
1, 10073, Note_on_c, 0, 87, 0
1, 10080, Note_on_c, 0, 70, 64
1, 10080, Note_on_c, 0, 70, 64
1, 10193, Note_on_c, 0, 70, 0
1, 10200, Note_on_c, 0, 87, 64
1, 10307, Note_on_c, 0, 70, 0
1, 10313, Note_on_c, 0, 87, 0
1, 10320, Note_on_c, 0, 63, 64
1, 10320, Note_on_c, 0, 63, 64
1, 10433, Note_on_c, 0, 63, 0
1, 10440, Note_on_c, 0, 75, 64
1, 10547, Note_on_c, 0, 63, 0
1, 10553, Note_on_c, 0, 75, 0
1, 10560, Note_on_c, 0, 75, 64
1, 10560, Note_on_c, 0, 75, 64
1, 10673, Note_on_c, 0, 75, 0
1, 10680, Note_on_c, 0, 87, 64
1, 10787, Note_on_c, 0, 75, 0
1, 10793, Note_on_c, 0, 87, 0
1, 10800, Note_on_c, 0, 87, 64
1, 10800, Note_on_c, 0, 87, 64
1, 10913, Note_on_c, 0, 87, 0
1, 10920, Note_on_c, 0, 99, 64
1, 11027, Note_on_c, 0, 87, 0
1, 11033, Note_on_c, 0, 99, 0
1, 11040, Note_on_c, 0, 87, 64
1, 11040, Note_on_c, 0, 87, 64
1, 11153, Note_on_c, 0, 87, 0
1, 11160, Note_on_c, 0, 99, 64
1, 11267, Note_on_c, 0, 87, 0
1, 11273, Note_on_c, 0, 99, 0
1, 11280, Note_on_c, 0, 85, 64
1, 11280, Note_on_c, 0, 85, 64
1, 11393, Note_on_c, 0, 85, 0
1, 11400, Note_on_c, 0, 99, 64
1, 11507, Note_on_c, 0, 85, 0
1, 11513, Note_on_c, 0, 99, 0
1, 11520, Note_on_c, 0, 83, 64
1, 11520, Note_on_c, 0, 83, 64
1, 11633, Note_on_c, 0, 83, 0
1, 11640, Note_on_c, 0, 99, 64
1, 11747, Note_on_c, 0, 83, 0
1, 11753, Note_on_c, 0, 99, 0
1, 11760, Note_on_c, 0, 83, 64
1, 11760, Note_on_c, 0, 83, 64
1, 11873, Note_on_c, 0, 83, 0
1, 11880, Note_on_c, 0, 99, 64
1, 11987, Note_on_c, 0, 83, 0
1, 11993, Note_on_c, 0, 99, 0
1, 12000, Note_on_c, 0, 82, 64
1, 12000, Note_on_c, 0, 82, 64
1, 12113, Note_on_c, 0, 82, 0
1, 12120, Note_on_c, 0, 99, 64
1, 12227, Note_on_c, 0, 82, 0
1, 12233, Note_on_c, 0, 99, 0
1, 12240, Note_on_c, 0, 80, 64
1, 12240, Note_on_c, 0, 80, 64
1, 12353, Note_on_c, 0, 80, 0
1, 12360, Note_on_c, 0, 99, 64
1, 12467, Note_on_c, 0, 80, 0
1, 12473, Note_on_c, 0, 99, 0
1, 12480, Note_on_c, 0, 79, 64
1, 12480, Note_on_c, 0, 79, 64
1, 12593, Note_on_c, 0, 79, 0
1, 12600, Note_on_c, 0, 99, 64
1, 12707, Note_on_c, 0, 79, 0
1, 12713, Note_on_c, 0, 99, 0
1, 12720, Note_on_c, 0, 80, 64
1, 12720, Note_on_c, 0, 80, 64
1, 12833, Note_on_c, 0, 80, 0
1, 12840, Note_on_c, 0, 99, 64
1, 12947, Note_on_c, 0, 80, 0
1, 12953, Note_on_c, 0, 99, 0
1, 12960, Note_on_c, 0, 82, 64
1, 12960, Note_on_c, 0, 82, 64
1, 13073, Note_on_c, 0, 82, 0
1, 13080, Note_on_c, 0, 99, 64
1, 13187, Note_on_c, 0, 82, 0
1, 13193, Note_on_c, 0, 99, 0
1, 13200, Note_on_c, 0, 75, 64
1, 13200, Note_on_c, 0, 75, 64
1, 13313, Note_on_c, 0, 75, 0
1, 13320, Note_on_c, 0, 99, 64
1, 13427, Note_on_c, 0, 75, 0
1, 13433, Note_on_c, 0, 99, 0
1, 13440, Note_on_c, 0, 75, 64
1, 13440, Note_on_c, 0, 75, 64
1, 13553, Note_on_c, 0, 75, 0
1, 13560, Note_on_c, 0, 87, 64
1, 13667, Note_on_c, 0, 75, 0
1, 13673, Note_on_c, 0, 87, 0
1, 13680, Note_on_c, 0, 76, 64
1, 13680, Note_on_c, 0, 76, 64
1, 13793, Note_on_c, 0, 76, 0
1, 13800, Note_on_c, 0, 87, 64
1, 13907, Note_on_c, 0, 76, 0
1, 13913, Note_on_c, 0, 87, 0
1, 13920, Note_on_c, 0, 75, 64
1, 13920, Note_on_c, 0, 75, 64
1, 14033, Note_on_c, 0, 75, 0
1, 14040, Note_on_c, 0, 87, 64
1, 14147, Note_on_c, 0, 75, 0
1, 14153, Note_on_c, 0, 87, 0
1, 14160, Note_on_c, 0, 73, 64
1, 14160, Note_on_c, 0, 73, 64
1, 14273, Note_on_c, 0, 73, 0
1, 14280, Note_on_c, 0, 87, 64
1, 14387, Note_on_c, 0, 73, 0
1, 14393, Note_on_c, 0, 87, 0
1, 14400, Note_on_c, 0, 75, 64
1, 14513, Note_on_c, 0, 75, 0
1, 14520, Note_on_c, 0, 87, 64
1, 14633, Note_on_c, 0, 87, 0
1, 14640, Note_on_c, 0, 80, 64
1, 14753, Note_on_c, 0, 80, 0
1, 14760, Note_on_c, 0, 83, 64
1, 14873, Note_on_c, 0, 83, 0
1, 14880, Note_on_c, 0, 87, 64
1, 14993, Note_on_c, 0, 87, 0
1, 15000, Note_on_c, 0, 99, 64
1, 15113, Note_on_c, 0, 99, 0
1, 15120, Note_on_c, 0, 75, 64
1, 15233, Note_on_c, 0, 75, 0
1, 15240, Note_on_c, 0, 87, 64
1, 15353, Note_on_c, 0, 87, 0
1, 15360, Note_on_c, 0, 79, 64
1, 15473, Note_on_c, 0, 79, 0
1, 15480, Note_on_c, 0, 82, 64
1, 15593, Note_on_c, 0, 82, 0
1, 15600, Note_on_c, 0, 87, 64
1, 15713, Note_on_c, 0, 87, 0
1, 15720, Note_on_c, 0, 99, 64
1, 15833, Note_on_c, 0, 99, 0
1, 16320, Note_on_c, 0, 75, 64
1, 16320, Note_on_c, 0, 75, 64
1, 16433, Note_on_c, 0, 75, 0
1, 16440, Note_on_c, 0, 87, 64
1, 16547, Note_on_c, 0, 75, 0
1, 16553, Note_on_c, 0, 87, 0
1, 16560, Note_on_c, 0, 99, 64
1, 16560, Note_on_c, 0, 99, 64
1, 16673, Note_on_c, 0, 99, 0
1, 16680, Note_on_c, 0, 87, 64
1, 16787, Note_on_c, 0, 99, 0
1, 16793, Note_on_c, 0, 87, 0
1, 16800, Note_on_c, 0, 99, 64
1, 16800, Note_on_c, 0, 99, 64
1, 16913, Note_on_c, 0, 99, 0
1, 16920, Note_on_c, 0, 87, 64
1, 17027, Note_on_c, 0, 99, 0
1, 17033, Note_on_c, 0, 87, 0
1, 17040, Note_on_c, 0, 99, 64
1, 17040, Note_on_c, 0, 99, 64
1, 17153, Note_on_c, 0, 99, 0
1, 17160, Note_on_c, 0, 85, 64
1, 17210, Note_on_c, 0, 85, 0
1, 17211, Note_on_c, 0, 85, 64
1, 17267, Note_on_c, 0, 99, 0
1, 17274, Note_on_c, 0, 85, 0
1, 17280, Note_on_c, 0, 83, 64
1, 17280, Note_on_c, 0, 83, 64
1, 17393, Note_on_c, 0, 83, 0
1, 17400, Note_on_c, 0, 99, 64
1, 17507, Note_on_c, 0, 83, 0
1, 17513, Note_on_c, 0, 99, 0
1, 17520, Note_on_c, 0, 83, 64
1, 17520, Note_on_c, 0, 83, 64
1, 17633, Note_on_c, 0, 83, 0
1, 17640, Note_on_c, 0, 99, 64
1, 17747, Note_on_c, 0, 83, 0
1, 17753, Note_on_c, 0, 99, 0
1, 17760, Note_on_c, 0, 82, 64
1, 17760, Note_on_c, 0, 82, 64
1, 17873, Note_on_c, 0, 82, 0
1, 17880, Note_on_c, 0, 99, 64
1, 17987, Note_on_c, 0, 82, 0
1, 17993, Note_on_c, 0, 99, 0
1, 18000, Note_on_c, 0, 82, 64
1, 18000, Note_on_c, 0, 80, 64
1, 18050, Note_on_c, 0, 82, 0
1, 18051, Note_on_c, 0, 80, 64
1, 18114, Note_on_c, 0, 80, 0
1, 18120, Note_on_c, 0, 99, 64
1, 18227, Note_on_c, 0, 80, 0
1, 18233, Note_on_c, 0, 99, 0
1, 18240, Note_on_c, 0, 79, 64
1, 18240, Note_on_c, 0, 79, 64
1, 18353, Note_on_c, 0, 79, 0
1, 18360, Note_on_c, 0, 99, 64
1, 18467, Note_on_c, 0, 79, 0
1, 18473, Note_on_c, 0, 99, 0
1, 18480, Note_on_c, 0, 80, 64
1, 18480, Note_on_c, 0, 80, 64
1, 18593, Note_on_c, 0, 80, 0
1, 18600, Note_on_c, 0, 99, 64
1, 18707, Note_on_c, 0, 80, 0
1, 18713, Note_on_c, 0, 99, 0
1, 18720, Note_on_c, 0, 79, 64
1, 18720, Note_on_c, 0, 82, 64
1, 18749, Note_on_c, 0, 79, 0
1, 18750, Note_on_c, 0, 80, 64
1, 18779, Note_on_c, 0, 80, 0
1, 18780, Note_on_c, 0, 82, 64
1, 18836, Note_on_c, 0, 82, 0
1, 18840, Note_on_c, 0, 99, 64
1, 18947, Note_on_c, 0, 82, 0
1, 18953, Note_on_c, 0, 99, 0
1, 18960, Note_on_c, 0, 75, 64
1, 18960, Note_on_c, 0, 75, 64
1, 19073, Note_on_c, 0, 75, 0
1, 19080, Note_on_c, 0, 99, 64
1, 19187, Note_on_c, 0, 75, 0
1, 19193, Note_on_c, 0, 99, 0
1, 19200, Note_on_c, 0, 75, 64
1, 19200, Note_on_c, 0, 75, 64
1, 19313, Note_on_c, 0, 75, 0
1, 19320, Note_on_c, 0, 87, 64
1, 19427, Note_on_c, 0, 75, 0
1, 19433, Note_on_c, 0, 87, 0
1, 19440, Note_on_c, 0, 78, 64
1, 19440, Note_on_c, 0, 76, 64
1, 19490, Note_on_c, 0, 78, 0
1, 19491, Note_on_c, 0, 76, 64
1, 19554, Note_on_c, 0, 76, 0
1, 19560, Note_on_c, 0, 87, 64
1, 19667, Note_on_c, 0, 76, 0
1, 19673, Note_on_c, 0, 87, 0
1, 19680, Note_on_c, 0, 75, 64
1, 19680, Note_on_c, 0, 75, 64
1, 19793, Note_on_c, 0, 75, 0
1, 19800, Note_on_c, 0, 87, 64
1, 19907, Note_on_c, 0, 75, 0
1, 19913, Note_on_c, 0, 87, 0
1, 19920, Note_on_c, 0, 73, 64
1, 19920, Note_on_c, 0, 73, 64
1, 20033, Note_on_c, 0, 73, 0
1, 20040, Note_on_c, 0, 87, 64
1, 20147, Note_on_c, 0, 73, 0
1, 20153, Note_on_c, 0, 87, 0
1, 20160, Note_on_c, 0, 71, 64
1, 20160, Note_on_c, 0, 73, 64
1, 20210, Note_on_c, 0, 73, 0
1, 20211, Note_on_c, 0, 71, 64
1, 20273, Note_on_c, 0, 71, 0
1, 20280, Note_on_c, 0, 87, 64
1, 20388, Note_on_c, 0, 71, 0
1, 20393, Note_on_c, 0, 87, 0
1, 20400, Note_on_c, 0, 71, 64
1, 20400, Note_on_c, 0, 71, 64
1, 20513, Note_on_c, 0, 71, 0
1, 20520, Note_on_c, 0, 87, 64
1, 20627, Note_on_c, 0, 71, 0
1, 20633, Note_on_c, 0, 87, 0
1, 20640, Note_on_c, 0, 70, 64
1, 20640, Note_on_c, 0, 70, 64
1, 20753, Note_on_c, 0, 70, 0
1, 20760, Note_on_c, 0, 87, 64
1, 20867, Note_on_c, 0, 70, 0
1, 20873, Note_on_c, 0, 87, 0
1, 20880, Note_on_c, 0, 68, 64
1, 20880, Note_on_c, 0, 70, 64
1, 20930, Note_on_c, 0, 70, 0
1, 20931, Note_on_c, 0, 68, 64
1, 20993, Note_on_c, 0, 68, 0
1, 21000, Note_on_c, 0, 87, 64
1, 21108, Note_on_c, 0, 68, 0
1, 21113, Note_on_c, 0, 87, 0
1, 21120, Note_on_c, 0, 67, 64
1, 21120, Note_on_c, 0, 67, 64
1, 21233, Note_on_c, 0, 67, 0
1, 21240, Note_on_c, 0, 87, 64
1, 21347, Note_on_c, 0, 67, 0
1, 21353, Note_on_c, 0, 87, 0
1, 21360, Note_on_c, 0, 68, 64
1, 21360, Note_on_c, 0, 68, 64
1, 21473, Note_on_c, 0, 68, 0
1, 21480, Note_on_c, 0, 87, 64
1, 21587, Note_on_c, 0, 68, 0
1, 21593, Note_on_c, 0, 87, 0
1, 21600, Note_on_c, 0, 70, 64
1, 21600, Note_on_c, 0, 70, 64
1, 21713, Note_on_c, 0, 70, 0
1, 21720, Note_on_c, 0, 87, 64
1, 21827, Note_on_c, 0, 70, 0
1, 21833, Note_on_c, 0, 87, 0
1, 21840, Note_on_c, 0, 63, 64
1, 21840, Note_on_c, 0, 63, 64
1, 21953, Note_on_c, 0, 63, 0
1, 21960, Note_on_c, 0, 75, 64
1, 22067, Note_on_c, 0, 63, 0
1, 22073, Note_on_c, 0, 75, 0
1, 22080, Note_on_c, 0, 75, 64
1, 22080, Note_on_c, 0, 75, 64
1, 22193, Note_on_c, 0, 75, 0
1, 22200, Note_on_c, 0, 87, 64
1, 22307, Note_on_c, 0, 75, 0
1, 22313, Note_on_c, 0, 87, 0
1, 22320, Note_on_c, 0, 87, 64
1, 22320, Note_on_c, 0, 87, 64
1, 22433, Note_on_c, 0, 87, 0
1, 22440, Note_on_c, 0, 99, 64
1, 22547, Note_on_c, 0, 87, 0
1, 22553, Note_on_c, 0, 99, 0
1, 22560, Note_on_c, 0, 87, 64
1, 22560, Note_on_c, 0, 87, 64
1, 22673, Note_on_c, 0, 87, 0
1, 22680, Note_on_c, 0, 99, 64
1, 22787, Note_on_c, 0, 87, 0
1, 22793, Note_on_c, 0, 99, 0
1, 22800, Note_on_c, 0, 85, 64
1, 22800, Note_on_c, 0, 85, 64
1, 22913, Note_on_c, 0, 85, 0
1, 22920, Note_on_c, 0, 99, 64
1, 23027, Note_on_c, 0, 85, 0
1, 23033, Note_on_c, 0, 99, 0
1, 23040, Note_on_c, 0, 83, 64
1, 23040, Note_on_c, 0, 83, 64
1, 23153, Note_on_c, 0, 83, 0
1, 23160, Note_on_c, 0, 99, 64
1, 23267, Note_on_c, 0, 83, 0
1, 23273, Note_on_c, 0, 99, 0
1, 23280, Note_on_c, 0, 83, 64
1, 23280, Note_on_c, 0, 83, 64
1, 23393, Note_on_c, 0, 83, 0
1, 23400, Note_on_c, 0, 99, 64
1, 23507, Note_on_c, 0, 83, 0
1, 23513, Note_on_c, 0, 99, 0
1, 23520, Note_on_c, 0, 82, 64
1, 23520, Note_on_c, 0, 82, 64
1, 23633, Note_on_c, 0, 82, 0
1, 23640, Note_on_c, 0, 99, 64
1, 23747, Note_on_c, 0, 82, 0
1, 23753, Note_on_c, 0, 99, 0
1, 23760, Note_on_c, 0, 82, 64
1, 23760, Note_on_c, 0, 80, 64
1, 23810, Note_on_c, 0, 82, 0
1, 23811, Note_on_c, 0, 80, 64
1, 23874, Note_on_c, 0, 80, 0
1, 23880, Note_on_c, 0, 99, 64
1, 23987, Note_on_c, 0, 80, 0
1, 23993, Note_on_c, 0, 99, 0
1, 24000, Note_on_c, 0, 79, 64
1, 24000, Note_on_c, 0, 79, 64
1, 24113, Note_on_c, 0, 79, 0
1, 24120, Note_on_c, 0, 99, 64
1, 24227, Note_on_c, 0, 79, 0
1, 24233, Note_on_c, 0, 99, 0
1, 24240, Note_on_c, 0, 80, 64
1, 24240, Note_on_c, 0, 80, 64
1, 24353, Note_on_c, 0, 80, 0
1, 24360, Note_on_c, 0, 99, 64
1, 24467, Note_on_c, 0, 80, 0
1, 24473, Note_on_c, 0, 99, 0
1, 24480, Note_on_c, 0, 79, 64
1, 24480, Note_on_c, 0, 82, 64
1, 24509, Note_on_c, 0, 79, 0
1, 24510, Note_on_c, 0, 80, 64
1, 24539, Note_on_c, 0, 80, 0
1, 24540, Note_on_c, 0, 82, 64
1, 24596, Note_on_c, 0, 82, 0
1, 24600, Note_on_c, 0, 99, 64
1, 24707, Note_on_c, 0, 82, 0
1, 24713, Note_on_c, 0, 99, 0
1, 24720, Note_on_c, 0, 75, 64
1, 24720, Note_on_c, 0, 75, 64
1, 24833, Note_on_c, 0, 75, 0
1, 24840, Note_on_c, 0, 99, 64
1, 24947, Note_on_c, 0, 75, 0
1, 24953, Note_on_c, 0, 99, 0
1, 24960, Note_on_c, 0, 75, 64
1, 24960, Note_on_c, 0, 75, 64
1, 25073, Note_on_c, 0, 75, 0
1, 25080, Note_on_c, 0, 87, 64
1, 25187, Note_on_c, 0, 75, 0
1, 25193, Note_on_c, 0, 87, 0
1, 25200, Note_on_c, 0, 78, 64
1, 25200, Note_on_c, 0, 76, 64
1, 25250, Note_on_c, 0, 78, 0
1, 25251, Note_on_c, 0, 76, 64
1, 25314, Note_on_c, 0, 76, 0
1, 25320, Note_on_c, 0, 87, 64
1, 25427, Note_on_c, 0, 76, 0
1, 25433, Note_on_c, 0, 87, 0
1, 25440, Note_on_c, 0, 75, 64
1, 25440, Note_on_c, 0, 75, 64
1, 25553, Note_on_c, 0, 75, 0
1, 25560, Note_on_c, 0, 87, 64
1, 25667, Note_on_c, 0, 75, 0
1, 25673, Note_on_c, 0, 87, 0
1, 25680, Note_on_c, 0, 73, 64
1, 25680, Note_on_c, 0, 73, 64
1, 25793, Note_on_c, 0, 73, 0
1, 25800, Note_on_c, 0, 87, 64
1, 25907, Note_on_c, 0, 73, 0
1, 25913, Note_on_c, 0, 87, 0
1, 25920, Note_on_c, 0, 75, 64
1, 26033, Note_on_c, 0, 75, 0
1, 26040, Note_on_c, 0, 87, 64
1, 26153, Note_on_c, 0, 87, 0
1, 26160, Note_on_c, 0, 80, 64
1, 26273, Note_on_c, 0, 80, 0
1, 26280, Note_on_c, 0, 83, 64
1, 26393, Note_on_c, 0, 83, 0
1, 26400, Note_on_c, 0, 87, 64
1, 26513, Note_on_c, 0, 87, 0
1, 26520, Note_on_c, 0, 99, 64
1, 26633, Note_on_c, 0, 99, 0
1, 26640, Note_on_c, 0, 75, 64
1, 26753, Note_on_c, 0, 75, 0
1, 26760, Note_on_c, 0, 87, 64
1, 26873, Note_on_c, 0, 87, 0
1, 26880, Note_on_c, 0, 79, 64
1, 26993, Note_on_c, 0, 79, 0
1, 27000, Note_on_c, 0, 82, 64
1, 27113, Note_on_c, 0, 82, 0
1, 27120, Note_on_c, 0, 87, 64
1, 27233, Note_on_c, 0, 87, 0
1, 27240, Note_on_c, 0, 99, 64
1, 27353, Note_on_c, 0, 99, 0
1, 27600, Note_on_c, 0, 63, 64
1, 27713, Note_on_c, 0, 63, 0
1, 27720, Note_on_c, 0, 68, 64
1, 27833, Note_on_c, 0, 68, 0
1, 27840, Note_on_c, 0, 75, 64
1, 27953, Note_on_c, 0, 75, 0
1, 27960, Note_on_c, 0, 80, 64
1, 28073, Note_on_c, 0, 80, 0
1, 29400, Note_on_c, 0, 67, 50
1, 29400, Note_on_c, 0, 70, 50
1, 29519, Note_on_c, 0, 67, 0
1, 29519, Note_on_c, 0, 70, 0
1, 29640, Note_on_c, 0, 66, 54
1, 29640, Note_on_c, 0, 69, 54
1, 29759, Note_on_c, 0, 66, 0
1, 29759, Note_on_c, 0, 69, 0
1, 29880, Note_on_c, 0, 65, 58
1, 29880, Note_on_c, 0, 68, 58
1, 29999, Note_on_c, 0, 65, 0
1, 29999, Note_on_c, 0, 68, 0
1, 30120, Note_on_c, 0, 64, 62
1, 30120, Note_on_c, 0, 67, 62
1, 30233, Note_on_c, 0, 64, 0
1, 30233, Note_on_c, 0, 67, 0
1, 30240, Note_on_c, 0, 73, 64
1, 30296, Note_on_c, 0, 73, 0
1, 30300, Note_on_c, 0, 71, 64
1, 30356, Note_on_c, 0, 71, 0
1, 30360, Note_on_c, 0, 70, 64
1, 30416, Note_on_c, 0, 70, 0
1, 30420, Note_on_c, 0, 71, 64
1, 30476, Note_on_c, 0, 71, 0
1, 30480, Note_on_c, 0, 66, 64
1, 30593, Note_on_c, 0, 66, 0
1, 30600, Note_on_c, 0, 90, 64
1, 30713, Note_on_c, 0, 90, 0
1, 30720, Note_on_c, 0, 71, 64
1, 30833, Note_on_c, 0, 71, 0
1, 30840, Note_on_c, 0, 90, 64
1, 30953, Note_on_c, 0, 90, 0
1, 30960, Note_on_c, 0, 75, 64
1, 31016, Note_on_c, 0, 75, 0
1, 31020, Note_on_c, 0, 73, 64
1, 31076, Note_on_c, 0, 73, 0
1, 31080, Note_on_c, 0, 72, 64
1, 31136, Note_on_c, 0, 72, 0
1, 31140, Note_on_c, 0, 73, 64
1, 31196, Note_on_c, 0, 73, 0
1, 31200, Note_on_c, 0, 66, 64
1, 31313, Note_on_c, 0, 66, 0
1, 31320, Note_on_c, 0, 90, 64
1, 31433, Note_on_c, 0, 90, 0
1, 31440, Note_on_c, 0, 73, 64
1, 31553, Note_on_c, 0, 73, 0
1, 31560, Note_on_c, 0, 90, 64
1, 31673, Note_on_c, 0, 90, 0
1, 31680, Note_on_c, 0, 76, 64
1, 31736, Note_on_c, 0, 76, 0
1, 31740, Note_on_c, 0, 75, 62
1, 31796, Note_on_c, 0, 75, 0
1, 31800, Note_on_c, 0, 74, 59
1, 31856, Note_on_c, 0, 74, 0
1, 31860, Note_on_c, 0, 75, 57
1, 31916, Note_on_c, 0, 75, 0
1, 31920, Note_on_c, 0, 71, 54
1, 32033, Note_on_c, 0, 71, 0
1, 32040, Note_on_c, 0, 90, 49
1, 32159, Note_on_c, 0, 90, 0
1, 32280, Note_on_c, 0, 71, 50
1, 32280, Note_on_c, 0, 74, 50
1, 32399, Note_on_c, 0, 71, 0
1, 32399, Note_on_c, 0, 74, 0
1, 32520, Note_on_c, 0, 70, 54
1, 32520, Note_on_c, 0, 73, 54
1, 32639, Note_on_c, 0, 70, 0
1, 32639, Note_on_c, 0, 73, 0
1, 32760, Note_on_c, 0, 69, 58
1, 32760, Note_on_c, 0, 72, 58
1, 32879, Note_on_c, 0, 69, 0
1, 32879, Note_on_c, 0, 72, 0
1, 33000, Note_on_c, 0, 68, 62
1, 33000, Note_on_c, 0, 71, 62
1, 33113, Note_on_c, 0, 68, 0
1, 33113, Note_on_c, 0, 71, 0
1, 33120, Note_on_c, 0, 77, 64
1, 33176, Note_on_c, 0, 77, 0
1, 33180, Note_on_c, 0, 75, 64
1, 33236, Note_on_c, 0, 75, 0
1, 33240, Note_on_c, 0, 74, 64
1, 33296, Note_on_c, 0, 74, 0
1, 33300, Note_on_c, 0, 75, 64
1, 33356, Note_on_c, 0, 75, 0
1, 33360, Note_on_c, 0, 70, 64
1, 33473, Note_on_c, 0, 70, 0
1, 33480, Note_on_c, 0, 94, 64
1, 33593, Note_on_c, 0, 94, 0
1, 33600, Note_on_c, 0, 75, 64
1, 33713, Note_on_c, 0, 75, 0
1, 33720, Note_on_c, 0, 94, 64
1, 33833, Note_on_c, 0, 94, 0
1, 33840, Note_on_c, 0, 78, 64
1, 33896, Note_on_c, 0, 78, 0
1, 33900, Note_on_c, 0, 77, 64
1, 33956, Note_on_c, 0, 77, 0
1, 33960, Note_on_c, 0, 76, 64
1, 34016, Note_on_c, 0, 76, 0
1, 34020, Note_on_c, 0, 77, 64
1, 34076, Note_on_c, 0, 77, 0
1, 34080, Note_on_c, 0, 70, 64
1, 34193, Note_on_c, 0, 70, 0
1, 34200, Note_on_c, 0, 94, 64
1, 34313, Note_on_c, 0, 94, 0
1, 34320, Note_on_c, 0, 77, 64
1, 34433, Note_on_c, 0, 77, 0
1, 34440, Note_on_c, 0, 94, 64
1, 34553, Note_on_c, 0, 94, 0
1, 34560, Note_on_c, 0, 80, 64
1, 34616, Note_on_c, 0, 80, 0
1, 34620, Note_on_c, 0, 78, 64
1, 34676, Note_on_c, 0, 78, 0
1, 34680, Note_on_c, 0, 77, 64
1, 34736, Note_on_c, 0, 77, 0
1, 34740, Note_on_c, 0, 78, 64
1, 34796, Note_on_c, 0, 78, 0
1, 34800, Note_on_c, 0, 75, 64
1, 34913, Note_on_c, 0, 75, 0
1, 34920, Note_on_c, 0, 94, 64
1, 35039, Note_on_c, 0, 94, 0
1, 35160, Note_on_c, 0, 74, 64
1, 35160, Note_on_c, 0, 77, 64
1, 35279, Note_on_c, 0, 74, 0
1, 35279, Note_on_c, 0, 77, 0
1, 35400, Note_on_c, 0, 73, 64
1, 35400, Note_on_c, 0, 76, 64
1, 35519, Note_on_c, 0, 73, 0
1, 35519, Note_on_c, 0, 76, 0
1, 35640, Note_on_c, 0, 72, 64
1, 35640, Note_on_c, 0, 75, 64
1, 35759, Note_on_c, 0, 72, 0
1, 35759, Note_on_c, 0, 75, 0
1, 35880, Note_on_c, 0, 71, 64
1, 35880, Note_on_c, 0, 74, 64
1, 35993, Note_on_c, 0, 71, 0
1, 35993, Note_on_c, 0, 74, 0
1, 36000, Note_on_c, 0, 80, 64
1, 36056, Note_on_c, 0, 80, 0
1, 36060, Note_on_c, 0, 78, 64
1, 36116, Note_on_c, 0, 78, 0
1, 36120, Note_on_c, 0, 77, 64
1, 36176, Note_on_c, 0, 77, 0
1, 36180, Note_on_c, 0, 78, 64
1, 36236, Note_on_c, 0, 78, 0
1, 36240, Note_on_c, 0, 73, 64
1, 36353, Note_on_c, 0, 73, 0
1, 36360, Note_on_c, 0, 97, 64
1, 36473, Note_on_c, 0, 97, 0
1, 36480, Note_on_c, 0, 78, 64
1, 36593, Note_on_c, 0, 78, 0
1, 36600, Note_on_c, 0, 97, 64
1, 36713, Note_on_c, 0, 97, 0
1, 36720, Note_on_c, 0, 82, 64
1, 36776, Note_on_c, 0, 82, 0
1, 36780, Note_on_c, 0, 80, 64
1, 36836, Note_on_c, 0, 80, 0
1, 36840, Note_on_c, 0, 79, 64
1, 36896, Note_on_c, 0, 79, 0
1, 36900, Note_on_c, 0, 80, 64
1, 36956, Note_on_c, 0, 80, 0
1, 36960, Note_on_c, 0, 73, 64
1, 37073, Note_on_c, 0, 73, 0
1, 37080, Note_on_c, 0, 97, 64
1, 37193, Note_on_c, 0, 97, 0
1, 37200, Note_on_c, 0, 80, 64
1, 37313, Note_on_c, 0, 80, 0
1, 37320, Note_on_c, 0, 97, 64
1, 37433, Note_on_c, 0, 97, 0
1, 37440, Note_on_c, 0, 82, 64
1, 37553, Note_on_c, 0, 82, 0
1, 37560, Note_on_c, 0, 83, 64
1, 37673, Note_on_c, 0, 83, 0
1, 37680, Note_on_c, 0, 85, 64
1, 37800, Note_on_c, 0, 94, 64
1, 37800, Note_on_c, 0, 97, 64
1, 37907, Note_on_c, 0, 85, 0
1, 37913, Note_on_c, 0, 94, 0
1, 37913, Note_on_c, 0, 97, 0
1, 37920, Note_on_c, 0, 83, 64
1, 38033, Note_on_c, 0, 83, 0
1, 38040, Note_on_c, 0, 82, 64
1, 38153, Note_on_c, 0, 82, 0
1, 38160, Note_on_c, 0, 80, 64
1, 38273, Note_on_c, 0, 80, 0
1, 38280, Note_on_c, 0, 82, 64
1, 38393, Note_on_c, 0, 82, 0
1, 38400, Note_on_c, 0, 83, 64
1, 38520, Note_on_c, 0, 87, 64
1, 38520, Note_on_c, 0, 95, 64
1, 38627, Note_on_c, 0, 83, 0
1, 38633, Note_on_c, 0, 87, 0
1, 38633, Note_on_c, 0, 95, 0
1, 38640, Note_on_c, 0, 82, 64
1, 38753, Note_on_c, 0, 82, 0
1, 38760, Note_on_c, 0, 80, 64
1, 38873, Note_on_c, 0, 80, 0
1, 38880, Note_on_c, 0, 78, 64
1, 38993, Note_on_c, 0, 78, 0
1, 39000, Note_on_c, 0, 80, 64
1, 39113, Note_on_c, 0, 80, 0
1, 39120, Note_on_c, 0, 82, 64
1, 39240, Note_on_c, 0, 85, 64
1, 39240, Note_on_c, 0, 94, 64
1, 39347, Note_on_c, 0, 82, 0
1, 39353, Note_on_c, 0, 85, 0
1, 39353, Note_on_c, 0, 94, 0
1, 39360, Note_on_c, 0, 80, 64
1, 39473, Note_on_c, 0, 80, 0
1, 39480, Note_on_c, 0, 78, 64
1, 39593, Note_on_c, 0, 78, 0
1, 39600, Note_on_c, 0, 77, 64
1, 39713, Note_on_c, 0, 77, 0
1, 39720, Note_on_c, 0, 78, 64
1, 39833, Note_on_c, 0, 78, 0
1, 39840, Note_on_c, 0, 80, 64
1, 39960, Note_on_c, 0, 83, 64
1, 39960, Note_on_c, 0, 92, 64
1, 40067, Note_on_c, 0, 80, 0
1, 40073, Note_on_c, 0, 83, 0
1, 40073, Note_on_c, 0, 92, 0
1, 40080, Note_on_c, 0, 75, 64
1, 40193, Note_on_c, 0, 75, 0
1, 40200, Note_on_c, 0, 77, 64
1, 40313, Note_on_c, 0, 77, 0
1, 40320, Note_on_c, 0, 78, 64
1, 40433, Note_on_c, 0, 78, 0
1, 40440, Note_on_c, 0, 82, 64
1, 40440, Note_on_c, 0, 90, 64
1, 40553, Note_on_c, 0, 82, 0
1, 40553, Note_on_c, 0, 90, 0
1, 41040, Note_on_c, 0, 68, 64
1, 41153, Note_on_c, 0, 68, 0
1, 41160, Note_on_c, 0, 80, 64
1, 41273, Note_on_c, 0, 80, 0
1, 41280, Note_on_c, 0, 92, 64
1, 41393, Note_on_c, 0, 92, 0
1, 41400, Note_on_c, 0, 80, 64
1, 41513, Note_on_c, 0, 80, 0
1, 41520, Note_on_c, 0, 92, 64
1, 41633, Note_on_c, 0, 92, 0
1, 41640, Note_on_c, 0, 78, 64
1, 41753, Note_on_c, 0, 78, 0
1, 41760, Note_on_c, 0, 92, 64
1, 41760, Note_on_c, 0, 92, 64
1, 41873, Note_on_c, 0, 92, 0
1, 41880, Note_on_c, 0, 76, 64
1, 41987, Note_on_c, 0, 92, 0
1, 41993, Note_on_c, 0, 76, 0
1, 42000, Note_on_c, 0, 102, 64
1, 42000, Note_on_c, 0, 102, 64
1, 42113, Note_on_c, 0, 102, 0
1, 42120, Note_on_c, 0, 80, 64
1, 42227, Note_on_c, 0, 102, 0
1, 42233, Note_on_c, 0, 80, 0
1, 42240, Note_on_c, 0, 100, 64
1, 42240, Note_on_c, 0, 100, 64
1, 42353, Note_on_c, 0, 100, 0
1, 42360, Note_on_c, 0, 80, 64
1, 42467, Note_on_c, 0, 100, 0
1, 42473, Note_on_c, 0, 80, 0
1, 42480, Note_on_c, 0, 99, 64
1, 42480, Note_on_c, 0, 99, 64
1, 42593, Note_on_c, 0, 99, 0
1, 42600, Note_on_c, 0, 80, 64
1, 42707, Note_on_c, 0, 99, 0
1, 42713, Note_on_c, 0, 80, 0
1, 42720, Note_on_c, 0, 97, 64
1, 42720, Note_on_c, 0, 97, 64
1, 42833, Note_on_c, 0, 97, 0
1, 42840, Note_on_c, 0, 80, 64
1, 42947, Note_on_c, 0, 97, 0
1, 42953, Note_on_c, 0, 80, 0
1, 42960, Note_on_c, 0, 99, 64
1, 42960, Note_on_c, 0, 99, 64
1, 43073, Note_on_c, 0, 99, 0
1, 43080, Note_on_c, 0, 80, 64
1, 43187, Note_on_c, 0, 99, 0
1, 43193, Note_on_c, 0, 80, 0
1, 43200, Note_on_c, 0, 100, 64
1, 43200, Note_on_c, 0, 100, 64
1, 43313, Note_on_c, 0, 100, 0
1, 43320, Note_on_c, 0, 80, 64
1, 43427, Note_on_c, 0, 100, 0
1, 43433, Note_on_c, 0, 80, 0
1, 43440, Note_on_c, 0, 97, 64
1, 43440, Note_on_c, 0, 97, 64
1, 43553, Note_on_c, 0, 97, 0
1, 43560, Note_on_c, 0, 80, 64
1, 43667, Note_on_c, 0, 97, 0
1, 43673, Note_on_c, 0, 80, 0
1, 43920, Note_on_c, 0, 66, 64
1, 44033, Note_on_c, 0, 66, 0
1, 44040, Note_on_c, 0, 78, 64
1, 44153, Note_on_c, 0, 78, 0
1, 44160, Note_on_c, 0, 90, 64
1, 44273, Note_on_c, 0, 90, 0
1, 44280, Note_on_c, 0, 78, 64
1, 44393, Note_on_c, 0, 78, 0
1, 44400, Note_on_c, 0, 90, 64
1, 44513, Note_on_c, 0, 90, 0
1, 44520, Note_on_c, 0, 76, 64
1, 44633, Note_on_c, 0, 76, 0
1, 44640, Note_on_c, 0, 90, 64
1, 44640, Note_on_c, 0, 90, 64
1, 44753, Note_on_c, 0, 90, 0
1, 44760, Note_on_c, 0, 75, 64
1, 44867, Note_on_c, 0, 90, 0
1, 44873, Note_on_c, 0, 75, 0
1, 44880, Note_on_c, 0, 100, 64
1, 44880, Note_on_c, 0, 100, 64
1, 44993, Note_on_c, 0, 100, 0
1, 45000, Note_on_c, 0, 78, 64
1, 45107, Note_on_c, 0, 100, 0
1, 45113, Note_on_c, 0, 78, 0
1, 45120, Note_on_c, 0, 99, 64
1, 45120, Note_on_c, 0, 99, 64
1, 45233, Note_on_c, 0, 99, 0
1, 45240, Note_on_c, 0, 78, 64
1, 45347, Note_on_c, 0, 99, 0
1, 45353, Note_on_c, 0, 78, 0
1, 45360, Note_on_c, 0, 97, 64
1, 45360, Note_on_c, 0, 97, 64
1, 45473, Note_on_c, 0, 97, 0
1, 45480, Note_on_c, 0, 78, 64
1, 45587, Note_on_c, 0, 97, 0
1, 45593, Note_on_c, 0, 78, 0
1, 45600, Note_on_c, 0, 95, 64
1, 45600, Note_on_c, 0, 95, 64
1, 45713, Note_on_c, 0, 95, 0
1, 45720, Note_on_c, 0, 78, 64
1, 45827, Note_on_c, 0, 95, 0
1, 45833, Note_on_c, 0, 78, 0
1, 45840, Note_on_c, 0, 97, 64
1, 45840, Note_on_c, 0, 97, 64
1, 45953, Note_on_c, 0, 97, 0
1, 45960, Note_on_c, 0, 78, 64
1, 46067, Note_on_c, 0, 97, 0
1, 46073, Note_on_c, 0, 78, 0
1, 46080, Note_on_c, 0, 99, 64
1, 46193, Note_on_c, 0, 99, 0
1, 46200, Note_on_c, 0, 78, 64
1, 46313, Note_on_c, 0, 78, 0
1, 46320, Note_on_c, 0, 95, 64
1, 46433, Note_on_c, 0, 95, 0
1, 46440, Note_on_c, 0, 78, 64
1, 46553, Note_on_c, 0, 78, 0
1, 46800, Note_on_c, 0, 63, 64
1, 46913, Note_on_c, 0, 63, 0
1, 46920, Note_on_c, 0, 75, 64
1, 47033, Note_on_c, 0, 75, 0
1, 47040, Note_on_c, 0, 87, 64
1, 47153, Note_on_c, 0, 87, 0
1, 47160, Note_on_c, 0, 75, 64
1, 47273, Note_on_c, 0, 75, 0
1, 47280, Note_on_c, 0, 87, 64
1, 47393, Note_on_c, 0, 87, 0
1, 47400, Note_on_c, 0, 74, 64
1, 47513, Note_on_c, 0, 74, 0
1, 47520, Tempo, 571429
1, 47520, Note_on_c, 0, 87, 64
1, 47633, Note_on_c, 0, 87, 0
1, 47640, Note_on_c, 0, 73, 64
1, 47753, Note_on_c, 0, 73, 0
1, 47760, Note_on_c, 0, 87, 64
1, 47873, Note_on_c, 0, 87, 0
1, 47880, Note_on_c, 0, 73, 64
1, 47993, Note_on_c, 0, 73, 0
1, 48000, Note_on_c, 0, 87, 64
1, 48113, Note_on_c, 0, 87, 0
1, 48120, Note_on_c, 0, 71, 64
1, 48233, Note_on_c, 0, 71, 0
1, 48240, Tempo, 545456
1, 48240, Note_on_c, 0, 76, 64
1, 48240, Note_on_c, 0, 88, 64
1, 48353, Note_on_c, 0, 76, 0
1, 48353, Note_on_c, 0, 88, 0
1, 48360, Note_on_c, 0, 82, 64
1, 48360, Note_on_c, 0, 87, 64
1, 48473, Note_on_c, 0, 82, 0
1, 48473, Note_on_c, 0, 87, 0
1, 48480, Note_on_c, 0, 73, 64
1, 48480, Note_on_c, 0, 85, 64
1, 48593, Note_on_c, 0, 73, 0
1, 48593, Note_on_c, 0, 85, 0
1, 48600, Note_on_c, 0, 76, 64
1, 48600, Note_on_c, 0, 83, 64
1, 48713, Note_on_c, 0, 76, 0
1, 48713, Note_on_c, 0, 83, 0
1, 48720, Note_on_c, 0, 71, 64
1, 48720, Note_on_c, 0, 82, 64
1, 48833, Note_on_c, 0, 71, 0
1, 48833, Note_on_c, 0, 82, 0
1, 48840, Note_on_c, 0, 77, 64
1, 48840, Note_on_c, 0, 80, 64
1, 48953, Note_on_c, 0, 77, 0
1, 48953, Note_on_c, 0, 80, 0
1, 48960, Note_on_c, 0, 70, 64
1, 48960, Note_on_c, 0, 79, 64
1, 49073, Note_on_c, 0, 70, 0
1, 49073, Note_on_c, 0, 79, 0
1, 49080, Note_on_c, 0, 75, 64
1, 49080, Note_on_c, 0, 82, 64
1, 49193, Note_on_c, 0, 75, 0
1, 49193, Note_on_c, 0, 82, 0
1, 49200, Note_on_c, 0, 79, 64
1, 49200, Note_on_c, 0, 83, 64
1, 49313, Note_on_c, 0, 79, 0
1, 49313, Note_on_c, 0, 83, 0
1, 49320, Note_on_c, 0, 75, 64
1, 49320, Note_on_c, 0, 82, 64
1, 49433, Note_on_c, 0, 75, 0
1, 49433, Note_on_c, 0, 82, 0
1, 49440, Tempo, 571429
1, 49680, Note_on_c, 0, 75, 64
1, 49793, Note_on_c, 0, 75, 0
1, 49800, Note_on_c, 0, 87, 64
1, 49913, Note_on_c, 0, 87, 0
1, 49920, Note_on_c, 0, 99, 64
1, 50033, Note_on_c, 0, 99, 0
1, 50040, Note_on_c, 0, 87, 64
1, 50153, Note_on_c, 0, 87, 0
1, 50160, Note_on_c, 0, 99, 64
1, 50273, Note_on_c, 0, 99, 0
1, 50280, Note_on_c, 0, 86, 64
1, 50393, Note_on_c, 0, 86, 0
1, 50400, Note_on_c, 0, 99, 64
1, 50513, Note_on_c, 0, 99, 0
1, 50520, Note_on_c, 0, 85, 64
1, 50633, Note_on_c, 0, 85, 0
1, 50640, Note_on_c, 0, 99, 64
1, 50753, Note_on_c, 0, 99, 0
1, 50760, Note_on_c, 0, 85, 64
1, 50873, Note_on_c, 0, 85, 0
1, 50880, Note_on_c, 0, 99, 64
1, 50993, Note_on_c, 0, 99, 0
1, 51000, Note_on_c, 0, 83, 64
1, 51113, Note_on_c, 0, 83, 0
1, 51120, Tempo, 545456
1, 51120, Note_on_c, 0, 88, 64
1, 51120, Note_on_c, 0, 100, 64
1, 51233, Note_on_c, 0, 88, 0
1, 51233, Note_on_c, 0, 100, 0
1, 51240, Note_on_c, 0, 93, 64
1, 51240, Note_on_c, 0, 99, 64
1, 51353, Note_on_c, 0, 93, 0
1, 51353, Note_on_c, 0, 99, 0
1, 51360, Note_on_c, 0, 85, 64
1, 51360, Note_on_c, 0, 97, 64
1, 51473, Note_on_c, 0, 85, 0
1, 51473, Note_on_c, 0, 97, 0
1, 51480, Note_on_c, 0, 88, 64
1, 51480, Note_on_c, 0, 95, 64
1, 51593, Note_on_c, 0, 88, 0
1, 51593, Note_on_c, 0, 95, 0
1, 51600, Note_on_c, 0, 83, 64
1, 51600, Note_on_c, 0, 93, 64
1, 51713, Note_on_c, 0, 83, 0
1, 51713, Note_on_c, 0, 93, 0
1, 51720, Note_on_c, 0, 89, 64
1, 51720, Note_on_c, 0, 92, 64
1, 51833, Note_on_c, 0, 89, 0
1, 51833, Note_on_c, 0, 92, 0
1, 51840, Note_on_c, 0, 82, 64
1, 51840, Note_on_c, 0, 91, 64
1, 51953, Note_on_c, 0, 82, 0
1, 51953, Note_on_c, 0, 91, 0
1, 51960, Note_on_c, 0, 87, 64
1, 51960, Note_on_c, 0, 94, 64
1, 52073, Note_on_c, 0, 87, 0
1, 52073, Note_on_c, 0, 94, 0
1, 52560, Note_on_c, 0, 99, 64
1, 52673, Note_on_c, 0, 99, 0
1, 52680, Note_on_c, 0, 87, 64
1, 52793, Note_on_c, 0, 87, 0
1, 53280, Note_on_c, 0, 99, 64
1, 53393, Note_on_c, 0, 99, 0
1, 53400, Note_on_c, 0, 87, 64
1, 53513, Note_on_c, 0, 87, 0
1, 54000, Note_on_c, 0, 99, 64
1, 54113, Note_on_c, 0, 99, 0
1, 54120, Note_on_c, 0, 87, 64
1, 54233, Note_on_c, 0, 87, 0
1, 54480, Note_on_c, 0, 99, 64
1, 54593, Note_on_c, 0, 99, 0
1, 54600, Note_on_c, 0, 87, 64
1, 54713, Note_on_c, 0, 87, 0
1, 54960, Note_on_c, 0, 99, 64
1, 55073, Note_on_c, 0, 99, 0
1, 55080, Note_on_c, 0, 87, 64
1, 55193, Note_on_c, 0, 87, 0
1, 55440, Note_on_c, 0, 99, 64
1, 55553, Note_on_c, 0, 99, 0
1, 55560, Note_on_c, 0, 81, 64
1, 55673, Note_on_c, 0, 81, 0
1, 55680, Note_on_c, 0, 99, 64
1, 55793, Note_on_c, 0, 99, 0
1, 55800, Note_on_c, 0, 82, 64
1, 55913, Note_on_c, 0, 82, 0
1, 55920, Note_on_c, 0, 99, 64
1, 56033, Note_on_c, 0, 99, 0
1, 56040, Note_on_c, 0, 83, 64
1, 56153, Note_on_c, 0, 83, 0
1, 56160, Note_on_c, 0, 99, 64
1, 56273, Note_on_c, 0, 99, 0
1, 56280, Note_on_c, 0, 84, 64
1, 56393, Note_on_c, 0, 84, 0
1, 56400, Note_on_c, 0, 99, 64
1, 56513, Note_on_c, 0, 99, 0
1, 56520, Note_on_c, 0, 85, 64
1, 56633, Note_on_c, 0, 85, 0
1, 56640, Note_on_c, 0, 99, 64
1, 56753, Note_on_c, 0, 99, 0
1, 56760, Note_on_c, 0, 86, 64
1, 56873, Note_on_c, 0, 86, 0
1, 56880, Note_on_c, 0, 99, 64
1, 56993, Note_on_c, 0, 99, 0
1, 57000, Note_on_c, 0, 87, 64
1, 57113, Note_on_c, 0, 87, 0
1, 57120, Note_on_c, 0, 99, 64
1, 57233, Note_on_c, 0, 99, 0
1, 57240, Note_on_c, 0, 87, 64
1, 57353, Note_on_c, 0, 87, 0
1, 57360, Note_on_c, 0, 99, 64
1, 57473, Note_on_c, 0, 99, 0
1, 57480, Note_on_c, 0, 87, 64
1, 57593, Note_on_c, 0, 87, 0
1, 57600, Note_on_c, 0, 99, 64
1, 57713, Note_on_c, 0, 99, 0
1, 57720, Note_on_c, 0, 87, 63
1, 57833, Note_on_c, 0, 87, 0
1, 57840, Note_on_c, 0, 99, 62
1, 57953, Note_on_c, 0, 99, 0
1, 57960, Note_on_c, 0, 87, 61
1, 58073, Note_on_c, 0, 87, 0
1, 58080, Note_on_c, 0, 99, 59
1, 58193, Note_on_c, 0, 99, 0
1, 58200, Note_on_c, 0, 87, 58
1, 58313, Note_on_c, 0, 87, 0
1, 58320, Note_on_c, 0, 99, 57
1, 58433, Note_on_c, 0, 99, 0
1, 58440, Note_on_c, 0, 87, 56
1, 58553, Note_on_c, 0, 87, 0
1, 58560, Note_on_c, 0, 75, 54
1, 58560, Note_on_c, 0, 75, 54
1, 58673, Note_on_c, 0, 75, 0
1, 58680, Note_on_c, 0, 87, 53
1, 58793, Note_on_c, 0, 87, 0
1, 58800, Note_on_c, 0, 99, 52
1, 58913, Note_on_c, 0, 99, 0
1, 58920, Note_on_c, 0, 87, 51
1, 59015, Note_on_c, 0, 75, 0
1, 59033, Note_on_c, 0, 87, 0
1, 59040, Note_on_c, 0, 75, 49
1, 59040, Note_on_c, 0, 75, 49
1, 59153, Note_on_c, 0, 75, 0
1, 59160, Note_on_c, 0, 87, 49
1, 59273, Note_on_c, 0, 87, 0
1, 59280, Note_on_c, 0, 99, 49
1, 59393, Note_on_c, 0, 99, 0
1, 59400, Note_on_c, 0, 87, 49
1, 59495, Note_on_c, 0, 75, 0
1, 59513, Note_on_c, 0, 87, 0
1, 59520, Note_on_c, 0, 75, 49
1, 59520, Note_on_c, 0, 75, 49
1, 59633, Note_on_c, 0, 75, 0
1, 59640, Note_on_c, 0, 87, 49
1, 59753, Note_on_c, 0, 87, 0
1, 59760, Note_on_c, 0, 99, 49
1, 59873, Note_on_c, 0, 99, 0
1, 59880, Note_on_c, 0, 87, 49
1, 59975, Note_on_c, 0, 75, 0
1, 59993, Note_on_c, 0, 87, 0
1, 60000, Note_on_c, 0, 75, 49
1, 60000, Note_on_c, 0, 75, 49
1, 60113, Note_on_c, 0, 75, 0
1, 60120, Note_on_c, 0, 87, 49
1, 60233, Note_on_c, 0, 87, 0
1, 60240, Note_on_c, 0, 99, 49
1, 60353, Note_on_c, 0, 99, 0
1, 60360, Note_on_c, 0, 87, 49
1, 60455, Note_on_c, 0, 75, 0
1, 60473, Note_on_c, 0, 87, 0
1, 60480, Note_on_c, 0, 75, 49
1, 60593, Note_on_c, 0, 75, 0
1, 60600, Note_on_c, 0, 87, 49
1, 60713, Note_on_c, 0, 87, 0
1, 60720, Note_on_c, 0, 99, 49
1, 60833, Note_on_c, 0, 99, 0
1, 60840, Note_on_c, 0, 87, 49
1, 60953, Note_on_c, 0, 87, 0
1, 60960, Note_on_c, 0, 75, 49
1, 61073, Note_on_c, 0, 75, 0
1, 61080, Note_on_c, 0, 87, 49
1, 61193, Note_on_c, 0, 87, 0
1, 61200, Note_on_c, 0, 99, 49
1, 61313, Note_on_c, 0, 99, 0
1, 61320, Note_on_c, 0, 87, 49
1, 61433, Note_on_c, 0, 87, 0
1, 61440, Note_on_c, 0, 75, 49
1, 61553, Note_on_c, 0, 75, 0
1, 61560, Note_on_c, 0, 87, 49
1, 61673, Note_on_c, 0, 87, 0
1, 61680, Note_on_c, 0, 99, 49
1, 61793, Note_on_c, 0, 99, 0
1, 61800, Note_on_c, 0, 87, 49
1, 61913, Note_on_c, 0, 87, 0
1, 61920, Note_on_c, 0, 75, 49
1, 62033, Note_on_c, 0, 75, 0
1, 62040, Note_on_c, 0, 87, 49
1, 62153, Note_on_c, 0, 87, 0
1, 62160, Note_on_c, 0, 99, 49
1, 62273, Note_on_c, 0, 99, 0
1, 62280, Note_on_c, 0, 87, 49
1, 62393, Note_on_c, 0, 87, 0
1, 62400, Note_on_c, 0, 75, 49
1, 62513, Note_on_c, 0, 75, 0
1, 62520, Note_on_c, 0, 87, 49
1, 62633, Note_on_c, 0, 87, 0
1, 62640, Note_on_c, 0, 99, 49
1, 62753, Note_on_c, 0, 99, 0
1, 62760, Note_on_c, 0, 87, 49
1, 62873, Note_on_c, 0, 87, 0
1, 62880, Note_on_c, 0, 75, 49
1, 62993, Note_on_c, 0, 75, 0
1, 63000, Note_on_c, 0, 87, 49
1, 63113, Note_on_c, 0, 87, 0
1, 63120, Note_on_c, 0, 99, 49
1, 63233, Note_on_c, 0, 99, 0
1, 63240, Note_on_c, 0, 87, 49
1, 63353, Note_on_c, 0, 87, 0
1, 63360, Note_on_c, 0, 75, 49
1, 63473, Note_on_c, 0, 75, 0
1, 63480, Note_on_c, 0, 87, 49
1, 63593, Note_on_c, 0, 87, 0
1, 63600, Note_on_c, 0, 99, 49
1, 63713, Note_on_c, 0, 99, 0
1, 63720, Note_on_c, 0, 87, 49
1, 63833, Note_on_c, 0, 87, 0
1, 63840, Note_on_c, 0, 75, 49
1, 63953, Note_on_c, 0, 75, 0
1, 63960, Note_on_c, 0, 87, 49
1, 64073, Note_on_c, 0, 87, 0
1, 64080, Note_on_c, 0, 99, 49
1, 64193, Note_on_c, 0, 99, 0
1, 64200, Note_on_c, 0, 87, 49
1, 64313, Note_on_c, 0, 87, 0
1, 64320, Note_on_c, 0, 75, 49
1, 64433, Note_on_c, 0, 75, 0
1, 64440, Note_on_c, 0, 87, 49
1, 64553, Note_on_c, 0, 87, 0
1, 64560, Note_on_c, 0, 99, 49
1, 64673, Note_on_c, 0, 99, 0
1, 64680, Note_on_c, 0, 87, 49
1, 64793, Note_on_c, 0, 87, 0
1, 64800, Note_on_c, 0, 75, 49
1, 64913, Note_on_c, 0, 75, 0
1, 64920, Note_on_c, 0, 87, 49
1, 65033, Note_on_c, 0, 87, 0
1, 65040, Note_on_c, 0, 99, 49
1, 65153, Note_on_c, 0, 99, 0
1, 65160, Note_on_c, 0, 87, 49
1, 65273, Note_on_c, 0, 87, 0
1, 65280, Note_on_c, 0, 75, 49
1, 65393, Note_on_c, 0, 75, 0
1, 65400, Note_on_c, 0, 87, 49
1, 65513, Note_on_c, 0, 87, 0
1, 65520, Note_on_c, 0, 99, 49
1, 65633, Note_on_c, 0, 99, 0
1, 65640, Note_on_c, 0, 87, 49
1, 65753, Note_on_c, 0, 87, 0
1, 65760, Note_on_c, 0, 75, 49
1, 65873, Note_on_c, 0, 75, 0
1, 65880, Note_on_c, 0, 87, 49
1, 65993, Note_on_c, 0, 87, 0
1, 66000, Note_on_c, 0, 99, 49
1, 66113, Note_on_c, 0, 99, 0
1, 66120, Note_on_c, 0, 87, 49
1, 66233, Note_on_c, 0, 87, 0
1, 66240, Note_on_c, 0, 75, 49
1, 66353, Note_on_c, 0, 75, 0
1, 66360, Note_on_c, 0, 87, 49
1, 66473, Note_on_c, 0, 87, 0
1, 66480, Note_on_c, 0, 99, 49
1, 66593, Note_on_c, 0, 99, 0
1, 66600, Note_on_c, 0, 87, 49
1, 66713, Note_on_c, 0, 87, 0
1, 66720, Note_on_c, 0, 75, 49
1, 66833, Note_on_c, 0, 75, 0
1, 66840, Note_on_c, 0, 87, 49
1, 66953, Note_on_c, 0, 87, 0
1, 66960, Note_on_c, 0, 99, 49
1, 67073, Note_on_c, 0, 99, 0
1, 67080, Note_on_c, 0, 87, 49
1, 67193, Note_on_c, 0, 87, 0
1, 67200, Note_on_c, 0, 75, 49
1, 67313, Note_on_c, 0, 75, 0
1, 67320, Note_on_c, 0, 87, 49
1, 67433, Note_on_c, 0, 87, 0
1, 67440, Note_on_c, 0, 99, 49
1, 67553, Note_on_c, 0, 99, 0
1, 67560, Note_on_c, 0, 87, 49
1, 67673, Note_on_c, 0, 87, 0
1, 67680, Note_on_c, 0, 75, 49
1, 67680, Note_on_c, 0, 75, 49
1, 67793, Note_on_c, 0, 75, 0
1, 67793, Note_on_c, 0, 75, 0
1, 67800, Note_on_c, 0, 87, 49
1, 67800, Note_on_c, 0, 87, 49
1, 67913, Note_on_c, 0, 87, 0
1, 67913, Note_on_c, 0, 87, 0
1, 67920, Note_on_c, 0, 99, 49
1, 67920, Note_on_c, 0, 99, 49
1, 68033, Note_on_c, 0, 99, 0
1, 68033, Note_on_c, 0, 99, 0
1, 68040, Note_on_c, 0, 87, 49
1, 68040, Note_on_c, 0, 87, 49
1, 68153, Note_on_c, 0, 87, 0
1, 68153, Note_on_c, 0, 87, 0
1, 68160, Note_on_c, 0, 75, 49
1, 68160, Note_on_c, 0, 75, 49
1, 68273, Note_on_c, 0, 75, 0
1, 68280, Note_on_c, 0, 87, 49
1, 68387, Note_on_c, 0, 75, 0
1, 68393, Note_on_c, 0, 87, 0
1, 68400, Note_on_c, 0, 76, 49
1, 68400, Note_on_c, 0, 76, 49
1, 68513, Note_on_c, 0, 76, 0
1, 68520, Note_on_c, 0, 87, 49
1, 68627, Note_on_c, 0, 76, 0
1, 68633, Note_on_c, 0, 87, 0
1, 68640, Note_on_c, 0, 75, 49
1, 68640, Note_on_c, 0, 75, 49
1, 68753, Note_on_c, 0, 75, 0
1, 68760, Note_on_c, 0, 87, 49
1, 68867, Note_on_c, 0, 75, 0
1, 68873, Note_on_c, 0, 87, 0
1, 68880, Note_on_c, 0, 73, 49
1, 68880, Note_on_c, 0, 73, 49
1, 68993, Note_on_c, 0, 73, 0
1, 69000, Note_on_c, 0, 87, 49
1, 69107, Note_on_c, 0, 73, 0
1, 69113, Note_on_c, 0, 87, 0
1, 69120, Note_on_c, 0, 75, 49
1, 69233, Note_on_c, 0, 75, 0
1, 69240, Note_on_c, 0, 87, 49
1, 69353, Note_on_c, 0, 87, 0
1, 69360, Note_on_c, 0, 80, 49
1, 69473, Note_on_c, 0, 80, 0
1, 69480, Note_on_c, 0, 83, 49
1, 69593, Note_on_c, 0, 83, 0
1, 69600, Note_on_c, 0, 87, 49
1, 69713, Note_on_c, 0, 87, 0
1, 69720, Note_on_c, 0, 99, 49
1, 69833, Note_on_c, 0, 99, 0
1, 69840, Note_on_c, 0, 75, 49
1, 69953, Note_on_c, 0, 75, 0
1, 69960, Note_on_c, 0, 87, 49
1, 70073, Note_on_c, 0, 87, 0
1, 70080, Note_on_c, 0, 79, 49
1, 70193, Note_on_c, 0, 79, 0
1, 70200, Note_on_c, 0, 82, 49
1, 70313, Note_on_c, 0, 82, 0
1, 70320, Note_on_c, 0, 87, 49
1, 70433, Note_on_c, 0, 87, 0
1, 70440, Note_on_c, 0, 99, 49
1, 70553, Note_on_c, 0, 99, 0
1, 71040, Note_on_c, 0, 75, 49
1, 71153, Note_on_c, 0, 75, 0
1, 71160, Note_on_c, 0, 87, 50
1, 71216, Note_on_c, 0, 87, 0
1, 71220, Note_on_c, 0, 87, 51
1, 71276, Note_on_c, 0, 87, 0
1, 71280, Note_on_c, 0, 87, 52
1, 71336, Note_on_c, 0, 87, 0
1, 71340, Note_on_c, 0, 87, 53
1, 71396, Note_on_c, 0, 87, 0
1, 71400, Note_on_c, 0, 99, 54
1, 71513, Note_on_c, 0, 99, 0
1, 71520, Note_on_c, 0, 87, 56
1, 71576, Note_on_c, 0, 87, 0
1, 71580, Note_on_c, 0, 87, 57
1, 71636, Note_on_c, 0, 87, 0
1, 71640, Note_on_c, 0, 99, 58
1, 71753, Note_on_c, 0, 99, 0
1, 71760, Note_on_c, 0, 85, 60
1, 71816, Note_on_c, 0, 85, 0
1, 71820, Note_on_c, 0, 85, 61
1, 71876, Note_on_c, 0, 85, 0
1, 71880, Note_on_c, 0, 97, 62
1, 71993, Note_on_c, 0, 97, 0
1, 72000, Note_on_c, 0, 83, 80
1, 72056, Note_on_c, 0, 83, 0
1, 72060, Note_on_c, 0, 83, 80
1, 72116, Note_on_c, 0, 83, 0
1, 72120, Note_on_c, 0, 95, 80
1, 72233, Note_on_c, 0, 95, 0
1, 72240, Note_on_c, 0, 83, 80
1, 72296, Note_on_c, 0, 83, 0
1, 72300, Note_on_c, 0, 83, 80
1, 72356, Note_on_c, 0, 83, 0
1, 72360, Note_on_c, 0, 95, 80
1, 72473, Note_on_c, 0, 95, 0
1, 72480, Note_on_c, 0, 82, 80
1, 72536, Note_on_c, 0, 82, 0
1, 72540, Note_on_c, 0, 82, 80
1, 72596, Note_on_c, 0, 82, 0
1, 72600, Note_on_c, 0, 94, 80
1, 72713, Note_on_c, 0, 94, 0
1, 72720, Note_on_c, 0, 80, 80
1, 72776, Note_on_c, 0, 80, 0
1, 72780, Note_on_c, 0, 80, 80
1, 72836, Note_on_c, 0, 80, 0
1, 72840, Note_on_c, 0, 92, 80
1, 72953, Note_on_c, 0, 92, 0
1, 72960, Note_on_c, 0, 79, 80
1, 73016, Note_on_c, 0, 79, 0
1, 73020, Note_on_c, 0, 79, 80
1, 73076, Note_on_c, 0, 79, 0
1, 73080, Note_on_c, 0, 91, 80
1, 73193, Note_on_c, 0, 91, 0
1, 73200, Note_on_c, 0, 80, 80
1, 73256, Note_on_c, 0, 80, 0
1, 73260, Note_on_c, 0, 80, 80
1, 73316, Note_on_c, 0, 80, 0
1, 73320, Note_on_c, 0, 92, 80
1, 73433, Note_on_c, 0, 92, 0
1, 73440, Note_on_c, 0, 82, 80
1, 73496, Note_on_c, 0, 82, 0
1, 73500, Note_on_c, 0, 82, 80
1, 73556, Note_on_c, 0, 82, 0
1, 73560, Note_on_c, 0, 94, 80
1, 73673, Note_on_c, 0, 94, 0
1, 73680, Note_on_c, 0, 75, 80
1, 73736, Note_on_c, 0, 75, 0
1, 73740, Note_on_c, 0, 75, 80
1, 73796, Note_on_c, 0, 75, 0
1, 73800, Note_on_c, 0, 87, 80
1, 73913, Note_on_c, 0, 87, 0
1, 73920, Note_on_c, 0, 75, 80
1, 73976, Note_on_c, 0, 75, 0
1, 73980, Note_on_c, 0, 75, 80
1, 74036, Note_on_c, 0, 75, 0
1, 74040, Note_on_c, 0, 87, 80
1, 74153, Note_on_c, 0, 87, 0
1, 74160, Note_on_c, 0, 76, 80
1, 74216, Note_on_c, 0, 76, 0
1, 74220, Note_on_c, 0, 76, 80
1, 74276, Note_on_c, 0, 76, 0
1, 74280, Note_on_c, 0, 88, 80
1, 74393, Note_on_c, 0, 88, 0
1, 74400, Note_on_c, 0, 75, 80
1, 74456, Note_on_c, 0, 75, 0
1, 74460, Note_on_c, 0, 75, 80
1, 74516, Note_on_c, 0, 75, 0
1, 74520, Note_on_c, 0, 87, 80
1, 74633, Note_on_c, 0, 87, 0
1, 74640, Note_on_c, 0, 73, 80
1, 74696, Note_on_c, 0, 73, 0
1, 74700, Note_on_c, 0, 73, 80
1, 74756, Note_on_c, 0, 73, 0
1, 74760, Note_on_c, 0, 85, 80
1, 74873, Note_on_c, 0, 85, 0
1, 74880, Note_on_c, 0, 71, 80
1, 74936, Note_on_c, 0, 71, 0
1, 74940, Note_on_c, 0, 71, 80
1, 74996, Note_on_c, 0, 71, 0
1, 75000, Note_on_c, 0, 83, 80
1, 75113, Note_on_c, 0, 83, 0
1, 75120, Note_on_c, 0, 71, 80
1, 75176, Note_on_c, 0, 71, 0
1, 75180, Note_on_c, 0, 71, 80
1, 75236, Note_on_c, 0, 71, 0
1, 75240, Note_on_c, 0, 83, 80
1, 75353, Note_on_c, 0, 83, 0
1, 75360, Note_on_c, 0, 70, 80
1, 75416, Note_on_c, 0, 70, 0
1, 75420, Note_on_c, 0, 70, 80
1, 75476, Note_on_c, 0, 70, 0
1, 75480, Note_on_c, 0, 82, 80
1, 75593, Note_on_c, 0, 82, 0
1, 75600, Note_on_c, 0, 68, 80
1, 75656, Note_on_c, 0, 68, 0
1, 75660, Note_on_c, 0, 68, 80
1, 75716, Note_on_c, 0, 68, 0
1, 75720, Note_on_c, 0, 80, 80
1, 75833, Note_on_c, 0, 80, 0
1, 75840, Note_on_c, 0, 67, 80
1, 75896, Note_on_c, 0, 67, 0
1, 75900, Note_on_c, 0, 67, 80
1, 75956, Note_on_c, 0, 67, 0
1, 75960, Note_on_c, 0, 79, 80
1, 76073, Note_on_c, 0, 79, 0
1, 76080, Note_on_c, 0, 68, 80
1, 76136, Note_on_c, 0, 68, 0
1, 76140, Note_on_c, 0, 68, 80
1, 76196, Note_on_c, 0, 68, 0
1, 76200, Note_on_c, 0, 80, 80
1, 76313, Note_on_c, 0, 80, 0
1, 76320, Note_on_c, 0, 70, 80
1, 76376, Note_on_c, 0, 70, 0
1, 76380, Note_on_c, 0, 70, 80
1, 76436, Note_on_c, 0, 70, 0
1, 76440, Note_on_c, 0, 82, 80
1, 76553, Note_on_c, 0, 82, 0
1, 76560, Note_on_c, 0, 63, 80
1, 76616, Note_on_c, 0, 63, 0
1, 76620, Note_on_c, 0, 63, 80
1, 76733, Note_on_c, 0, 63, 0
1, 76740, Note_on_c, 0, 75, 80
1, 76796, Note_on_c, 0, 75, 0
1, 76800, Note_on_c, 0, 75, 80
1, 76856, Note_on_c, 0, 75, 0
1, 76860, Note_on_c, 0, 75, 80
1, 76916, Note_on_c, 0, 75, 0
1, 76920, Note_on_c, 0, 75, 80
1, 77033, Note_on_c, 0, 75, 0
1, 77040, Note_on_c, 0, 87, 80
1, 77096, Note_on_c, 0, 87, 0
1, 77100, Note_on_c, 0, 87, 80
1, 77156, Note_on_c, 0, 87, 0
1, 77160, Note_on_c, 0, 99, 80
1, 77273, Note_on_c, 0, 99, 0
1, 77280, Note_on_c, 0, 87, 80
1, 77336, Note_on_c, 0, 87, 0
1, 77340, Note_on_c, 0, 87, 80
1, 77396, Note_on_c, 0, 87, 0
1, 77400, Note_on_c, 0, 99, 80
1, 77513, Note_on_c, 0, 99, 0
1, 77520, Note_on_c, 0, 85, 80
1, 77576, Note_on_c, 0, 85, 0
1, 77580, Note_on_c, 0, 85, 80
1, 77636, Note_on_c, 0, 85, 0
1, 77640, Note_on_c, 0, 97, 80
1, 77753, Note_on_c, 0, 97, 0
1, 77760, Note_on_c, 0, 83, 80
1, 77816, Note_on_c, 0, 83, 0
1, 77820, Note_on_c, 0, 83, 80
1, 77876, Note_on_c, 0, 83, 0
1, 77880, Note_on_c, 0, 95, 80
1, 77993, Note_on_c, 0, 95, 0
1, 78000, Note_on_c, 0, 83, 80
1, 78056, Note_on_c, 0, 83, 0
1, 78060, Note_on_c, 0, 83, 80
1, 78116, Note_on_c, 0, 83, 0
1, 78120, Note_on_c, 0, 95, 80
1, 78233, Note_on_c, 0, 95, 0
1, 78240, Note_on_c, 0, 82, 80
1, 78296, Note_on_c, 0, 82, 0
1, 78300, Note_on_c, 0, 82, 80
1, 78356, Note_on_c, 0, 82, 0
1, 78360, Note_on_c, 0, 94, 80
1, 78473, Note_on_c, 0, 94, 0
1, 78480, Note_on_c, 0, 80, 80
1, 78536, Note_on_c, 0, 80, 0
1, 78540, Note_on_c, 0, 80, 80
1, 78596, Note_on_c, 0, 80, 0
1, 78600, Note_on_c, 0, 92, 80
1, 78713, Note_on_c, 0, 92, 0
1, 78720, Note_on_c, 0, 79, 80
1, 78776, Note_on_c, 0, 79, 0
1, 78780, Note_on_c, 0, 79, 80
1, 78836, Note_on_c, 0, 79, 0
1, 78840, Note_on_c, 0, 91, 80
1, 78953, Note_on_c, 0, 91, 0
1, 78960, Note_on_c, 0, 80, 80
1, 79016, Note_on_c, 0, 80, 0
1, 79020, Note_on_c, 0, 80, 80
1, 79076, Note_on_c, 0, 80, 0
1, 79080, Note_on_c, 0, 92, 80
1, 79193, Note_on_c, 0, 92, 0
1, 79200, Note_on_c, 0, 82, 80
1, 79256, Note_on_c, 0, 82, 0
1, 79260, Note_on_c, 0, 82, 80
1, 79316, Note_on_c, 0, 82, 0
1, 79320, Note_on_c, 0, 94, 80
1, 79433, Note_on_c, 0, 94, 0
1, 79440, Note_on_c, 0, 75, 80
1, 79496, Note_on_c, 0, 75, 0
1, 79500, Note_on_c, 0, 75, 80
1, 79556, Note_on_c, 0, 75, 0
1, 79560, Note_on_c, 0, 87, 80
1, 79673, Note_on_c, 0, 87, 0
1, 79680, Note_on_c, 0, 75, 80
1, 79736, Note_on_c, 0, 75, 0
1, 79740, Note_on_c, 0, 75, 80
1, 79796, Note_on_c, 0, 75, 0
1, 79800, Note_on_c, 0, 87, 80
1, 79913, Note_on_c, 0, 87, 0
1, 79920, Note_on_c, 0, 76, 64
1, 79976, Note_on_c, 0, 76, 0
1, 79980, Note_on_c, 0, 76, 64
1, 80036, Note_on_c, 0, 76, 0
1, 80040, Note_on_c, 0, 88, 64
1, 80153, Note_on_c, 0, 88, 0
1, 80160, Note_on_c, 0, 75, 64
1, 80216, Note_on_c, 0, 75, 0
1, 80220, Note_on_c, 0, 75, 64
1, 80276, Note_on_c, 0, 75, 0
1, 80280, Note_on_c, 0, 87, 64
1, 80393, Note_on_c, 0, 87, 0
1, 80400, Note_on_c, 0, 73, 64
1, 80456, Note_on_c, 0, 73, 0
1, 80460, Note_on_c, 0, 73, 64
1, 80516, Note_on_c, 0, 73, 0
1, 80520, Note_on_c, 0, 85, 64
1, 80633, Note_on_c, 0, 85, 0
1, 80640, Note_on_c, 0, 75, 64
1, 80696, Note_on_c, 0, 75, 0
1, 80700, Note_on_c, 0, 75, 64
1, 80756, Note_on_c, 0, 75, 0
1, 80760, Note_on_c, 0, 87, 64
1, 80873, Note_on_c, 0, 87, 0
1, 80880, Note_on_c, 0, 76, 64
1, 80936, Note_on_c, 0, 76, 0
1, 80940, Note_on_c, 0, 76, 64
1, 80996, Note_on_c, 0, 76, 0
1, 81000, Note_on_c, 0, 87, 64
1, 81113, Note_on_c, 0, 87, 0
1, 81120, Note_on_c, 0, 77, 64
1, 81176, Note_on_c, 0, 77, 0
1, 81180, Note_on_c, 0, 77, 64
1, 81236, Note_on_c, 0, 77, 0
1, 81240, Note_on_c, 0, 87, 64
1, 81353, Note_on_c, 0, 87, 0
1, 81360, Note_on_c, 0, 78, 64
1, 81416, Note_on_c, 0, 78, 0
1, 81420, Note_on_c, 0, 78, 64
1, 81476, Note_on_c, 0, 78, 0
1, 81480, Note_on_c, 0, 87, 64
1, 81593, Note_on_c, 0, 87, 0
1, 81600, Note_on_c, 0, 79, 64
1, 81656, Note_on_c, 0, 79, 0
1, 81660, Note_on_c, 0, 79, 64
1, 81716, Note_on_c, 0, 79, 0
1, 81720, Note_on_c, 0, 87, 64
1, 81833, Note_on_c, 0, 87, 0
1, 81840, Note_on_c, 0, 80, 64
1, 81896, Note_on_c, 0, 80, 0
1, 81900, Note_on_c, 0, 80, 64
1, 81956, Note_on_c, 0, 80, 0
1, 81960, Note_on_c, 0, 87, 64
1, 82073, Note_on_c, 0, 87, 0
1, 82080, Note_on_c, 0, 81, 64
1, 82136, Note_on_c, 0, 81, 0
1, 82140, Note_on_c, 0, 81, 64
1, 82196, Note_on_c, 0, 81, 0
1, 82200, Note_on_c, 0, 87, 64
1, 82313, Note_on_c, 0, 87, 0
1, 82320, Note_on_c, 0, 82, 64
1, 82376, Note_on_c, 0, 82, 0
1, 82380, Note_on_c, 0, 82, 64
1, 82436, Note_on_c, 0, 82, 0
1, 82440, Note_on_c, 0, 87, 64
1, 82553, Note_on_c, 0, 87, 0
1, 82560, Note_on_c, 0, 83, 64
1, 82616, Note_on_c, 0, 83, 0
1, 82620, Note_on_c, 0, 83, 64
1, 82676, Note_on_c, 0, 83, 0
1, 82680, Note_on_c, 0, 87, 64
1, 82793, Note_on_c, 0, 87, 0
1, 82800, Note_on_c, 0, 84, 64
1, 82856, Note_on_c, 0, 84, 0
1, 82860, Note_on_c, 0, 84, 64
1, 82916, Note_on_c, 0, 84, 0
1, 82920, Note_on_c, 0, 87, 64
1, 83033, Note_on_c, 0, 87, 0
1, 83040, Note_on_c, 0, 85, 64
1, 83096, Note_on_c, 0, 85, 0
1, 83100, Note_on_c, 0, 85, 64
1, 83156, Note_on_c, 0, 85, 0
1, 83160, Note_on_c, 0, 87, 64
1, 83273, Note_on_c, 0, 87, 0
1, 83280, Note_on_c, 0, 86, 64
1, 83336, Note_on_c, 0, 86, 0
1, 83340, Note_on_c, 0, 86, 64
1, 83396, Note_on_c, 0, 86, 0
1, 83400, Note_on_c, 0, 87, 64
1, 83513, Note_on_c, 0, 87, 0
1, 83520, Tempo, 666667
1, 83520, Note_on_c, 0, 87, 64
1, 83576, Note_on_c, 0, 87, 0
1, 83580, Note_on_c, 0, 87, 64
1, 83636, Note_on_c, 0, 87, 0
1, 83640, Note_on_c, 0, 99, 64
1, 83753, Note_on_c, 0, 99, 0
1, 83760, Note_on_c, 0, 88, 64
1, 83816, Note_on_c, 0, 88, 0
1, 83820, Note_on_c, 0, 88, 64
1, 83876, Note_on_c, 0, 88, 0
1, 83880, Note_on_c, 0, 99, 64
1, 83993, Note_on_c, 0, 99, 0
1, 84000, Note_on_c, 0, 89, 64
1, 84056, Note_on_c, 0, 89, 0
1, 84060, Note_on_c, 0, 89, 64
1, 84116, Note_on_c, 0, 89, 0
1, 84120, Note_on_c, 0, 99, 64
1, 84233, Note_on_c, 0, 99, 0
1, 84240, Tempo, 705881
1, 84240, Note_on_c, 0, 90, 64
1, 84296, Note_on_c, 0, 90, 0
1, 84300, Note_on_c, 0, 90, 64
1, 84356, Note_on_c, 0, 90, 0
1, 84360, Note_on_c, 0, 99, 64
1, 84473, Note_on_c, 0, 99, 0
1, 84480, Note_on_c, 0, 91, 64
1, 84536, Note_on_c, 0, 91, 0
1, 84540, Note_on_c, 0, 91, 64
1, 84596, Note_on_c, 0, 91, 0
1, 84600, Note_on_c, 0, 99, 64
1, 84713, Note_on_c, 0, 99, 0
1, 84720, Note_on_c, 0, 92, 64
1, 84776, Note_on_c, 0, 92, 0
1, 84780, Note_on_c, 0, 92, 64
1, 84836, Note_on_c, 0, 92, 0
1, 84840, Note_on_c, 0, 99, 64
1, 84953, Note_on_c, 0, 99, 0
1, 84960, Tempo, 599999
1, 85440, Note_on_c, 0, 71, 64
1, 85560, Note_on_c, 0, 70, 64
1, 85667, Note_on_c, 0, 71, 0
1, 85673, Note_on_c, 0, 70, 0
1, 85680, Note_on_c, 0, 71, 64
1, 85680, Note_on_c, 0, 69, 64
1, 85793, Note_on_c, 0, 71, 0
1, 85793, Note_on_c, 0, 69, 0
1, 85800, Note_on_c, 0, 71, 64
1, 85800, Note_on_c, 0, 68, 64
1, 85913, Note_on_c, 0, 71, 0
1, 85913, Note_on_c, 0, 68, 0
1, 85920, Note_on_c, 0, 71, 64
1, 85920, Note_on_c, 0, 67, 64
1, 86033, Note_on_c, 0, 71, 0
1, 86033, Note_on_c, 0, 67, 0
1, 86040, Note_on_c, 0, 71, 64
1, 86040, Note_on_c, 0, 66, 64
1, 86153, Note_on_c, 0, 71, 0
1, 86153, Note_on_c, 0, 66, 0
1, 86160, Note_on_c, 0, 71, 64
1, 86160, Note_on_c, 0, 65, 64
1, 86273, Note_on_c, 0, 71, 0
1, 86273, Note_on_c, 0, 65, 0
1, 86280, Note_on_c, 0, 71, 64
1, 86280, Note_on_c, 0, 64, 64
1, 86393, Note_on_c, 0, 71, 0
1, 86393, Note_on_c, 0, 64, 0
1, 86400, Note_on_c, 0, 73, 64
1, 86456, Note_on_c, 0, 73, 0
1, 86460, Note_on_c, 0, 71, 64
1, 86516, Note_on_c, 0, 71, 0
1, 86520, Note_on_c, 0, 70, 64
1, 86576, Note_on_c, 0, 70, 0
1, 86580, Note_on_c, 0, 71, 64
1, 86636, Note_on_c, 0, 71, 0
1, 86640, Note_on_c, 0, 66, 64
1, 86640, Note_on_c, 0, 66, 64
1, 86696, Note_on_c, 0, 66, 0
1, 86700, Note_on_c, 0, 78, 64
1, 86756, Note_on_c, 0, 78, 0
1, 86760, Note_on_c, 0, 78, 64
1, 86816, Note_on_c, 0, 78, 0
1, 86820, Note_on_c, 0, 78, 64
1, 86867, Note_on_c, 0, 66, 0
1, 86876, Note_on_c, 0, 78, 0
1, 86880, Note_on_c, 0, 71, 64
1, 86880, Note_on_c, 0, 71, 64
1, 86936, Note_on_c, 0, 71, 0
1, 86940, Note_on_c, 0, 83, 64
1, 86996, Note_on_c, 0, 83, 0
1, 87000, Note_on_c, 0, 83, 64
1, 87056, Note_on_c, 0, 83, 0
1, 87060, Note_on_c, 0, 83, 64
1, 87107, Note_on_c, 0, 71, 0
1, 87116, Note_on_c, 0, 83, 0
1, 87120, Note_on_c, 0, 73, 64
1, 87120, Note_on_c, 0, 73, 64
1, 87176, Note_on_c, 0, 73, 0
1, 87180, Note_on_c, 0, 85, 64
1, 87236, Note_on_c, 0, 85, 0
1, 87240, Note_on_c, 0, 85, 64
1, 87296, Note_on_c, 0, 85, 0
1, 87300, Note_on_c, 0, 85, 64
1, 87347, Note_on_c, 0, 73, 0
1, 87356, Note_on_c, 0, 85, 0
1, 87360, Note_on_c, 0, 78, 64
1, 87360, Note_on_c, 0, 78, 64
1, 87416, Note_on_c, 0, 78, 0
1, 87420, Note_on_c, 0, 90, 64
1, 87476, Note_on_c, 0, 90, 0
1, 87480, Note_on_c, 0, 90, 64
1, 87536, Note_on_c, 0, 90, 0
1, 87540, Note_on_c, 0, 90, 64
1, 87587, Note_on_c, 0, 78, 0
1, 87596, Note_on_c, 0, 90, 0
1, 87600, Note_on_c, 0, 85, 64
1, 87600, Note_on_c, 0, 85, 64
1, 87675, Note_on_c, 0, 85, 0
1, 87680, Note_on_c, 0, 90, 64
1, 87680, Note_on_c, 0, 97, 64
1, 87755, Note_on_c, 0, 90, 0
1, 87755, Note_on_c, 0, 97, 0
1, 87760, Note_on_c, 0, 90, 64
1, 87760, Note_on_c, 0, 97, 64
1, 87827, Note_on_c, 0, 85, 0
1, 87835, Note_on_c, 0, 90, 0
1, 87835, Note_on_c, 0, 97, 0
1, 87840, Note_on_c, 0, 87, 64
1, 87915, Note_on_c, 0, 87, 0
1, 87920, Note_on_c, 0, 90, 64
1, 87920, Note_on_c, 0, 99, 64
1, 87995, Note_on_c, 0, 90, 0
1, 87995, Note_on_c, 0, 99, 0
1, 88000, Note_on_c, 0, 90, 64
1, 88000, Note_on_c, 0, 99, 64
1, 88075, Note_on_c, 0, 90, 0
1, 88075, Note_on_c, 0, 99, 0
1, 88080, Note_on_c, 0, 83, 64
1, 88199, Note_on_c, 0, 83, 0
1, 88320, Note_on_c, 0, 75, 64
1, 88440, Note_on_c, 0, 74, 64
1, 88547, Note_on_c, 0, 75, 0
1, 88553, Note_on_c, 0, 74, 0
1, 88560, Note_on_c, 0, 75, 64
1, 88560, Note_on_c, 0, 73, 64
1, 88673, Note_on_c, 0, 75, 0
1, 88673, Note_on_c, 0, 73, 0
1, 88680, Note_on_c, 0, 75, 64
1, 88680, Note_on_c, 0, 72, 64
1, 88793, Note_on_c, 0, 75, 0
1, 88793, Note_on_c, 0, 72, 0
1, 88800, Note_on_c, 0, 75, 64
1, 88800, Note_on_c, 0, 71, 64
1, 88913, Note_on_c, 0, 75, 0
1, 88913, Note_on_c, 0, 71, 0
1, 88920, Note_on_c, 0, 75, 64
1, 88920, Note_on_c, 0, 70, 64
1, 89033, Note_on_c, 0, 75, 0
1, 89033, Note_on_c, 0, 70, 0
1, 89040, Note_on_c, 0, 75, 64
1, 89040, Note_on_c, 0, 69, 64
1, 89153, Note_on_c, 0, 75, 0
1, 89153, Note_on_c, 0, 69, 0
1, 89160, Note_on_c, 0, 75, 64
1, 89160, Note_on_c, 0, 68, 64
1, 89273, Note_on_c, 0, 75, 0
1, 89273, Note_on_c, 0, 68, 0
1, 89280, Note_on_c, 0, 77, 64
1, 89336, Note_on_c, 0, 77, 0
1, 89340, Note_on_c, 0, 75, 64
1, 89396, Note_on_c, 0, 75, 0
1, 89400, Note_on_c, 0, 74, 64
1, 89456, Note_on_c, 0, 74, 0
1, 89460, Note_on_c, 0, 75, 64
1, 89516, Note_on_c, 0, 75, 0
1, 89520, Note_on_c, 0, 70, 64
1, 89520, Note_on_c, 0, 70, 64
1, 89576, Note_on_c, 0, 70, 0
1, 89580, Note_on_c, 0, 82, 64
1, 89636, Note_on_c, 0, 82, 0
1, 89640, Note_on_c, 0, 82, 64
1, 89696, Note_on_c, 0, 82, 0
1, 89700, Note_on_c, 0, 82, 64
1, 89747, Note_on_c, 0, 70, 0
1, 89756, Note_on_c, 0, 82, 0
1, 89760, Note_on_c, 0, 75, 64
1, 89760, Note_on_c, 0, 75, 64
1, 89816, Note_on_c, 0, 75, 0
1, 89820, Note_on_c, 0, 87, 64
1, 89876, Note_on_c, 0, 87, 0
1, 89880, Note_on_c, 0, 87, 64
1, 89936, Note_on_c, 0, 87, 0
1, 89940, Note_on_c, 0, 87, 64
1, 89987, Note_on_c, 0, 75, 0
1, 89996, Note_on_c, 0, 87, 0
1, 90000, Note_on_c, 0, 77, 64
1, 90000, Note_on_c, 0, 77, 64
1, 90056, Note_on_c, 0, 77, 0
1, 90060, Note_on_c, 0, 89, 64
1, 90116, Note_on_c, 0, 89, 0
1, 90120, Note_on_c, 0, 89, 64
1, 90176, Note_on_c, 0, 89, 0
1, 90180, Note_on_c, 0, 89, 64
1, 90227, Note_on_c, 0, 77, 0
1, 90236, Note_on_c, 0, 89, 0
1, 90240, Note_on_c, 0, 82, 64
1, 90240, Note_on_c, 0, 82, 64
1, 90296, Note_on_c, 0, 82, 0
1, 90300, Note_on_c, 0, 94, 64
1, 90356, Note_on_c, 0, 94, 0
1, 90360, Note_on_c, 0, 94, 64
1, 90416, Note_on_c, 0, 94, 0
1, 90420, Note_on_c, 0, 94, 64
1, 90467, Note_on_c, 0, 82, 0
1, 90476, Note_on_c, 0, 94, 0
1, 90480, Note_on_c, 0, 89, 64
1, 90480, Note_on_c, 0, 89, 64
1, 90555, Note_on_c, 0, 89, 0
1, 90560, Note_on_c, 0, 94, 64
1, 90560, Note_on_c, 0, 101, 64
1, 90635, Note_on_c, 0, 94, 0
1, 90635, Note_on_c, 0, 101, 0
1, 90640, Note_on_c, 0, 94, 64
1, 90640, Note_on_c, 0, 101, 64
1, 90707, Note_on_c, 0, 89, 0
1, 90715, Note_on_c, 0, 94, 0
1, 90715, Note_on_c, 0, 101, 0
1, 90720, Note_on_c, 0, 90, 64
1, 90795, Note_on_c, 0, 90, 0
1, 90800, Note_on_c, 0, 94, 64
1, 90800, Note_on_c, 0, 102, 64
1, 90875, Note_on_c, 0, 94, 0
1, 90875, Note_on_c, 0, 102, 0
1, 90880, Note_on_c, 0, 94, 64
1, 90880, Note_on_c, 0, 102, 64
1, 90955, Note_on_c, 0, 94, 0
1, 90955, Note_on_c, 0, 102, 0
1, 90960, Note_on_c, 0, 87, 64
1, 91079, Note_on_c, 0, 87, 0
1, 91200, Note_on_c, 0, 78, 64
1, 91320, Note_on_c, 0, 77, 64
1, 91427, Note_on_c, 0, 78, 0
1, 91433, Note_on_c, 0, 77, 0
1, 91440, Note_on_c, 0, 78, 64
1, 91440, Note_on_c, 0, 76, 64
1, 91553, Note_on_c, 0, 78, 0
1, 91553, Note_on_c, 0, 76, 0
1, 91560, Note_on_c, 0, 78, 64
1, 91560, Note_on_c, 0, 75, 64
1, 91673, Note_on_c, 0, 78, 0
1, 91673, Note_on_c, 0, 75, 0
1, 91680, Note_on_c, 0, 78, 64
1, 91680, Note_on_c, 0, 74, 64
1, 91793, Note_on_c, 0, 78, 0
1, 91793, Note_on_c, 0, 74, 0
1, 91800, Note_on_c, 0, 78, 64
1, 91800, Note_on_c, 0, 73, 64
1, 91913, Note_on_c, 0, 78, 0
1, 91913, Note_on_c, 0, 73, 0
1, 91920, Note_on_c, 0, 78, 64
1, 91920, Note_on_c, 0, 72, 64
1, 92033, Note_on_c, 0, 78, 0
1, 92033, Note_on_c, 0, 72, 0
1, 92040, Note_on_c, 0, 78, 64
1, 92040, Note_on_c, 0, 71, 64
1, 92153, Note_on_c, 0, 78, 0
1, 92153, Note_on_c, 0, 71, 0
1, 92160, Note_on_c, 0, 80, 64
1, 92216, Note_on_c, 0, 80, 0
1, 92220, Note_on_c, 0, 78, 64
1, 92276, Note_on_c, 0, 78, 0
1, 92280, Note_on_c, 0, 77, 64
1, 92336, Note_on_c, 0, 77, 0
1, 92340, Note_on_c, 0, 78, 64
1, 92396, Note_on_c, 0, 78, 0
1, 92400, Note_on_c, 0, 73, 64
1, 92400, Note_on_c, 0, 73, 64
1, 92456, Note_on_c, 0, 73, 0
1, 92460, Note_on_c, 0, 85, 64
1, 92516, Note_on_c, 0, 85, 0
1, 92520, Note_on_c, 0, 85, 64
1, 92576, Note_on_c, 0, 85, 0
1, 92580, Note_on_c, 0, 85, 64
1, 92627, Note_on_c, 0, 73, 0
1, 92636, Note_on_c, 0, 85, 0
1, 92640, Note_on_c, 0, 78, 64
1, 92640, Note_on_c, 0, 78, 64
1, 92696, Note_on_c, 0, 78, 0
1, 92700, Note_on_c, 0, 90, 64
1, 92756, Note_on_c, 0, 90, 0
1, 92760, Note_on_c, 0, 90, 64
1, 92816, Note_on_c, 0, 90, 0
1, 92820, Note_on_c, 0, 90, 64
1, 92867, Note_on_c, 0, 78, 0
1, 92876, Note_on_c, 0, 90, 0
1, 92880, Note_on_c, 0, 80, 64
1, 92880, Note_on_c, 0, 80, 64
1, 92936, Note_on_c, 0, 80, 0
1, 92940, Note_on_c, 0, 92, 64
1, 92996, Note_on_c, 0, 92, 0
1, 93000, Note_on_c, 0, 92, 64
1, 93056, Note_on_c, 0, 92, 0
1, 93060, Note_on_c, 0, 92, 64
1, 93107, Note_on_c, 0, 80, 0
1, 93116, Note_on_c, 0, 92, 0
1, 93120, Note_on_c, 0, 85, 64
1, 93120, Note_on_c, 0, 85, 64
1, 93195, Note_on_c, 0, 85, 0
1, 93200, Note_on_c, 0, 92, 64
1, 93200, Note_on_c, 0, 97, 64
1, 93275, Note_on_c, 0, 92, 0
1, 93275, Note_on_c, 0, 97, 0
1, 93280, Note_on_c, 0, 92, 64
1, 93280, Note_on_c, 0, 97, 64
1, 93347, Note_on_c, 0, 85, 0
1, 93355, Note_on_c, 0, 92, 0
1, 93355, Note_on_c, 0, 97, 0
1, 93360, Note_on_c, 0, 92, 64
1, 93360, Note_on_c, 0, 97, 64
1, 93435, Note_on_c, 0, 92, 0
1, 93435, Note_on_c, 0, 97, 0
1, 93440, Note_on_c, 0, 92, 64
1, 93440, Note_on_c, 0, 97, 64
1, 93515, Note_on_c, 0, 92, 0
1, 93515, Note_on_c, 0, 97, 0
1, 93520, Note_on_c, 0, 92, 64
1, 93520, Note_on_c, 0, 97, 64
1, 93595, Note_on_c, 0, 92, 0
1, 93595, Note_on_c, 0, 97, 0
1, 93600, Note_on_c, 0, 97, 64
1, 93600, Note_on_c, 0, 94, 64
1, 93656, Note_on_c, 0, 97, 0
1, 93660, Note_on_c, 0, 99, 64
1, 93713, Note_on_c, 0, 94, 0
1, 93716, Note_on_c, 0, 99, 0
1, 93720, Note_on_c, 0, 97, 64
1, 93720, Note_on_c, 0, 93, 64
1, 93776, Note_on_c, 0, 97, 0
1, 93780, Note_on_c, 0, 99, 64
1, 93833, Note_on_c, 0, 93, 0
1, 93836, Note_on_c, 0, 99, 0
1, 93840, Note_on_c, 0, 97, 64
1, 93840, Note_on_c, 0, 92, 64
1, 93896, Note_on_c, 0, 97, 0
1, 93900, Note_on_c, 0, 99, 64
1, 93953, Note_on_c, 0, 92, 0
1, 93956, Note_on_c, 0, 99, 0
1, 93960, Note_on_c, 0, 97, 64
1, 93960, Note_on_c, 0, 91, 64
1, 94016, Note_on_c, 0, 97, 0
1, 94020, Note_on_c, 0, 99, 64
1, 94073, Note_on_c, 0, 91, 0
1, 94076, Note_on_c, 0, 99, 0
1, 94080, Note_on_c, 0, 97, 64
1, 94080, Note_on_c, 0, 90, 64
1, 94136, Note_on_c, 0, 97, 0
1, 94140, Note_on_c, 0, 99, 64
1, 94196, Note_on_c, 0, 99, 0
1, 94200, Note_on_c, 0, 97, 64
1, 94256, Note_on_c, 0, 97, 0
1, 94260, Note_on_c, 0, 99, 64
1, 94307, Note_on_c, 0, 90, 0
1, 94316, Note_on_c, 0, 99, 0
1, 94320, Note_on_c, 0, 95, 64
1, 94320, Note_on_c, 0, 92, 64
1, 94376, Note_on_c, 0, 95, 0
1, 94380, Note_on_c, 0, 97, 64
1, 94433, Note_on_c, 0, 92, 0
1, 94436, Note_on_c, 0, 97, 0
1, 94440, Note_on_c, 0, 95, 64
1, 94440, Note_on_c, 0, 91, 64
1, 94496, Note_on_c, 0, 95, 0
1, 94500, Note_on_c, 0, 97, 64
1, 94553, Note_on_c, 0, 91, 0
1, 94556, Note_on_c, 0, 97, 0
1, 94560, Note_on_c, 0, 95, 64
1, 94560, Note_on_c, 0, 90, 64
1, 94616, Note_on_c, 0, 95, 0
1, 94620, Note_on_c, 0, 97, 64
1, 94673, Note_on_c, 0, 90, 0
1, 94676, Note_on_c, 0, 97, 0
1, 94680, Note_on_c, 0, 95, 64
1, 94680, Note_on_c, 0, 89, 64
1, 94736, Note_on_c, 0, 95, 0
1, 94740, Note_on_c, 0, 97, 64
1, 94793, Note_on_c, 0, 89, 0
1, 94796, Note_on_c, 0, 97, 0
1, 94800, Note_on_c, 0, 95, 64
1, 94800, Note_on_c, 0, 87, 64
1, 94856, Note_on_c, 0, 95, 0
1, 94860, Note_on_c, 0, 97, 64
1, 94916, Note_on_c, 0, 97, 0
1, 94920, Note_on_c, 0, 95, 64
1, 94976, Note_on_c, 0, 95, 0
1, 94980, Note_on_c, 0, 97, 64
1, 95027, Note_on_c, 0, 87, 0
1, 95036, Note_on_c, 0, 97, 0
1, 95040, Note_on_c, 0, 94, 64
1, 95040, Note_on_c, 0, 90, 64
1, 95096, Note_on_c, 0, 94, 0
1, 95100, Note_on_c, 0, 95, 64
1, 95153, Note_on_c, 0, 90, 0
1, 95156, Note_on_c, 0, 95, 0
1, 95160, Note_on_c, 0, 94, 64
1, 95160, Note_on_c, 0, 89, 64
1, 95216, Note_on_c, 0, 94, 0
1, 95220, Note_on_c, 0, 95, 64
1, 95273, Note_on_c, 0, 89, 0
1, 95276, Note_on_c, 0, 95, 0
1, 95280, Note_on_c, 0, 94, 64
1, 95280, Note_on_c, 0, 87, 64
1, 95336, Note_on_c, 0, 94, 0
1, 95340, Note_on_c, 0, 95, 64
1, 95393, Note_on_c, 0, 87, 0
1, 95396, Note_on_c, 0, 95, 0
1, 95400, Note_on_c, 0, 94, 64
1, 95400, Note_on_c, 0, 86, 64
1, 95456, Note_on_c, 0, 94, 0
1, 95460, Note_on_c, 0, 95, 64
1, 95513, Note_on_c, 0, 86, 0
1, 95516, Note_on_c, 0, 95, 0
1, 95520, Note_on_c, 0, 94, 64
1, 95520, Note_on_c, 0, 85, 64
1, 95576, Note_on_c, 0, 94, 0
1, 95580, Note_on_c, 0, 95, 64
1, 95636, Note_on_c, 0, 95, 0
1, 95640, Note_on_c, 0, 94, 64
1, 95696, Note_on_c, 0, 94, 0
1, 95700, Note_on_c, 0, 95, 64
1, 95747, Note_on_c, 0, 85, 0
1, 95756, Note_on_c, 0, 95, 0
1, 95760, Note_on_c, 0, 92, 64
1, 95760, Note_on_c, 0, 89, 64
1, 95816, Note_on_c, 0, 92, 0
1, 95820, Note_on_c, 0, 94, 64
1, 95873, Note_on_c, 0, 89, 0
1, 95876, Note_on_c, 0, 94, 0
1, 95880, Note_on_c, 0, 92, 64
1, 95880, Note_on_c, 0, 87, 64
1, 95936, Note_on_c, 0, 92, 0
1, 95940, Note_on_c, 0, 94, 64
1, 95993, Note_on_c, 0, 87, 0
1, 95996, Note_on_c, 0, 94, 0
1, 96000, Note_on_c, 0, 92, 64
1, 96000, Note_on_c, 0, 86, 64
1, 96056, Note_on_c, 0, 92, 0
1, 96060, Note_on_c, 0, 94, 64
1, 96113, Note_on_c, 0, 86, 0
1, 96116, Note_on_c, 0, 94, 0
1, 96120, Note_on_c, 0, 92, 64
1, 96120, Note_on_c, 0, 85, 64
1, 96176, Note_on_c, 0, 92, 0
1, 96180, Note_on_c, 0, 94, 64
1, 96233, Note_on_c, 0, 85, 0
1, 96236, Note_on_c, 0, 94, 0
1, 96240, Note_on_c, 0, 92, 64
1, 96240, Note_on_c, 0, 83, 64
1, 96296, Note_on_c, 0, 92, 0
1, 96300, Note_on_c, 0, 87, 64
1, 96356, Note_on_c, 0, 87, 0
1, 96360, Note_on_c, 0, 88, 64
1, 96416, Note_on_c, 0, 88, 0
1, 96420, Note_on_c, 0, 89, 64
1, 96467, Note_on_c, 0, 83, 0
1, 96476, Note_on_c, 0, 89, 0
1, 96480, Note_on_c, 0, 90, 64
1, 96536, Note_on_c, 0, 90, 0
1, 96540, Note_on_c, 0, 92, 64
1, 96596, Note_on_c, 0, 92, 0
1, 96600, Note_on_c, 0, 90, 64
1, 96656, Note_on_c, 0, 90, 0
1, 96660, Note_on_c, 0, 92, 64
1, 96716, Note_on_c, 0, 92, 0
1, 96720, Note_on_c, 0, 78, 64
1, 96720, Note_on_c, 0, 78, 64
1, 96776, Note_on_c, 0, 78, 0
1, 96780, Note_on_c, 0, 90, 64
1, 96836, Note_on_c, 0, 90, 0
1, 96840, Note_on_c, 0, 92, 64
1, 96896, Note_on_c, 0, 92, 0
1, 96900, Note_on_c, 0, 90, 64
1, 96947, Note_on_c, 0, 78, 0
1, 96956, Note_on_c, 0, 90, 0
1, 96960, Note_on_c, 0, 79, 64
1, 96960, Note_on_c, 0, 79, 64
1, 97016, Note_on_c, 0, 79, 0
1, 97020, Note_on_c, 0, 91, 64
1, 97076, Note_on_c, 0, 91, 0
1, 97080, Note_on_c, 0, 92, 64
1, 97136, Note_on_c, 0, 92, 0
1, 97140, Note_on_c, 0, 91, 64
1, 97187, Note_on_c, 0, 79, 0
1, 97196, Note_on_c, 0, 91, 0
1, 97200, Note_on_c, 0, 80, 64
1, 97200, Note_on_c, 0, 80, 64
1, 97256, Note_on_c, 0, 80, 0
1, 97260, Note_on_c, 0, 92, 64
1, 97316, Note_on_c, 0, 92, 0
1, 97320, Note_on_c, 0, 93, 64
1, 97376, Note_on_c, 0, 93, 0
1, 97380, Note_on_c, 0, 92, 64
1, 97427, Note_on_c, 0, 80, 0
1, 97436, Note_on_c, 0, 92, 0
1, 97440, Note_on_c, 0, 93, 64
1, 97496, Note_on_c, 0, 93, 0
1, 97500, Note_on_c, 0, 92, 64
1, 97556, Note_on_c, 0, 92, 0
1, 97560, Note_on_c, 0, 93, 64
1, 97616, Note_on_c, 0, 93, 0
1, 97620, Note_on_c, 0, 92, 64
1, 97676, Note_on_c, 0, 92, 0
1, 97680, Note_on_c, 0, 93, 64
1, 97736, Note_on_c, 0, 93, 0
1, 97740, Note_on_c, 0, 92, 64
1, 97796, Note_on_c, 0, 92, 0
1, 97800, Note_on_c, 0, 93, 64
1, 97856, Note_on_c, 0, 93, 0
1, 97860, Note_on_c, 0, 92, 64
1, 97916, Note_on_c, 0, 92, 0
1, 97920, Note_on_c, 0, 92, 64
1, 97976, Note_on_c, 0, 92, 0
1, 97980, Note_on_c, 0, 93, 64
1, 98036, Note_on_c, 0, 93, 0
1, 98040, Note_on_c, 0, 92, 64
1, 98096, Note_on_c, 0, 92, 0
1, 98100, Note_on_c, 0, 93, 64
1, 98156, Note_on_c, 0, 93, 0
1, 98160, Note_on_c, 0, 102, 64
1, 98160, Note_on_c, 0, 92, 64
1, 98216, Note_on_c, 0, 92, 0
1, 98220, Note_on_c, 0, 93, 64
1, 98276, Note_on_c, 0, 93, 0
1, 98280, Note_on_c, 0, 92, 64
1, 98336, Note_on_c, 0, 92, 0
1, 98340, Note_on_c, 0, 93, 64
1, 98387, Note_on_c, 0, 102, 0
1, 98396, Note_on_c, 0, 93, 0
1, 98400, Note_on_c, 0, 100, 64
1, 98400, Note_on_c, 0, 92, 64
1, 98456, Note_on_c, 0, 92, 0
1, 98460, Note_on_c, 0, 93, 64
1, 98516, Note_on_c, 0, 93, 0
1, 98520, Note_on_c, 0, 92, 64
1, 98576, Note_on_c, 0, 92, 0
1, 98580, Note_on_c, 0, 93, 64
1, 98627, Note_on_c, 0, 100, 0
1, 98636, Note_on_c, 0, 93, 0
1, 98640, Note_on_c, 0, 99, 64
1, 98640, Note_on_c, 0, 92, 64
1, 98696, Note_on_c, 0, 92, 0
1, 98700, Note_on_c, 0, 93, 64
1, 98756, Note_on_c, 0, 93, 0
1, 98760, Note_on_c, 0, 92, 64
1, 98816, Note_on_c, 0, 92, 0
1, 98820, Note_on_c, 0, 93, 64
1, 98867, Note_on_c, 0, 99, 0
1, 98876, Note_on_c, 0, 93, 0
1, 98880, Note_on_c, 0, 97, 64
1, 98880, Note_on_c, 0, 92, 64
1, 98936, Note_on_c, 0, 92, 0
1, 98940, Note_on_c, 0, 93, 64
1, 98996, Note_on_c, 0, 93, 0
1, 99000, Note_on_c, 0, 92, 64
1, 99056, Note_on_c, 0, 92, 0
1, 99060, Note_on_c, 0, 93, 64
1, 99107, Note_on_c, 0, 97, 0
1, 99116, Note_on_c, 0, 93, 0
1, 99120, Note_on_c, 0, 99, 64
1, 99120, Note_on_c, 0, 92, 64
1, 99176, Note_on_c, 0, 92, 0
1, 99180, Note_on_c, 0, 93, 64
1, 99236, Note_on_c, 0, 93, 0
1, 99240, Note_on_c, 0, 92, 64
1, 99296, Note_on_c, 0, 92, 0
1, 99300, Note_on_c, 0, 93, 64
1, 99347, Note_on_c, 0, 99, 0
1, 99356, Note_on_c, 0, 93, 0
1, 99360, Note_on_c, 0, 100, 64
1, 99360, Note_on_c, 0, 92, 64
1, 99416, Note_on_c, 0, 92, 0
1, 99420, Note_on_c, 0, 93, 64
1, 99476, Note_on_c, 0, 93, 0
1, 99480, Note_on_c, 0, 92, 64
1, 99536, Note_on_c, 0, 92, 0
1, 99540, Note_on_c, 0, 93, 64
1, 99587, Note_on_c, 0, 100, 0
1, 99596, Note_on_c, 0, 93, 0
1, 99600, Note_on_c, 0, 97, 64
1, 99600, Note_on_c, 0, 92, 64
1, 99827, Note_on_c, 0, 97, 0
1, 99827, Note_on_c, 0, 92, 0
1, 99840, Note_on_c, 0, 79, 64
1, 99840, Note_on_c, 0, 79, 64
1, 99896, Note_on_c, 0, 79, 0
1, 99900, Note_on_c, 0, 91, 64
1, 99956, Note_on_c, 0, 91, 0
1, 99960, Note_on_c, 0, 93, 64
1, 100016, Note_on_c, 0, 93, 0
1, 100020, Note_on_c, 0, 91, 64
1, 100067, Note_on_c, 0, 79, 0
1, 100076, Note_on_c, 0, 91, 0
1, 100080, Note_on_c, 0, 78, 64
1, 100080, Note_on_c, 0, 78, 64
1, 100136, Note_on_c, 0, 78, 0
1, 100140, Note_on_c, 0, 90, 64
1, 100196, Note_on_c, 0, 90, 0
1, 100200, Note_on_c, 0, 92, 64
1, 100256, Note_on_c, 0, 92, 0
1, 100260, Note_on_c, 0, 90, 64
1, 100307, Note_on_c, 0, 78, 0
1, 100316, Note_on_c, 0, 90, 0
1, 100320, Note_on_c, 0, 92, 64
1, 100376, Note_on_c, 0, 92, 0
1, 100380, Note_on_c, 0, 90, 64
1, 100436, Note_on_c, 0, 90, 0
1, 100440, Note_on_c, 0, 92, 64
1, 100496, Note_on_c, 0, 92, 0
1, 100500, Note_on_c, 0, 90, 64
1, 100556, Note_on_c, 0, 90, 0
1, 100560, Note_on_c, 0, 92, 64
1, 100616, Note_on_c, 0, 92, 0
1, 100620, Note_on_c, 0, 90, 64
1, 100676, Note_on_c, 0, 90, 0
1, 100680, Note_on_c, 0, 92, 64
1, 100736, Note_on_c, 0, 92, 0
1, 100740, Note_on_c, 0, 90, 64
1, 100796, Note_on_c, 0, 90, 0
1, 100800, Note_on_c, 0, 92, 64
1, 100856, Note_on_c, 0, 92, 0
1, 100860, Note_on_c, 0, 90, 64
1, 100916, Note_on_c, 0, 90, 0
1, 100920, Note_on_c, 0, 92, 64
1, 100976, Note_on_c, 0, 92, 0
1, 100980, Note_on_c, 0, 90, 64
1, 101036, Note_on_c, 0, 90, 0
1, 101040, Note_on_c, 0, 100, 64
1, 101040, Note_on_c, 0, 92, 64
1, 101096, Note_on_c, 0, 92, 0
1, 101100, Note_on_c, 0, 90, 64
1, 101156, Note_on_c, 0, 90, 0
1, 101160, Note_on_c, 0, 92, 64
1, 101216, Note_on_c, 0, 92, 0
1, 101220, Note_on_c, 0, 90, 64
1, 101267, Note_on_c, 0, 100, 0
1, 101276, Note_on_c, 0, 90, 0
1, 101280, Note_on_c, 0, 99, 64
1, 101280, Note_on_c, 0, 92, 64
1, 101336, Note_on_c, 0, 92, 0
1, 101340, Note_on_c, 0, 90, 64
1, 101396, Note_on_c, 0, 90, 0
1, 101400, Note_on_c, 0, 92, 64
1, 101456, Note_on_c, 0, 92, 0
1, 101460, Note_on_c, 0, 90, 64
1, 101507, Note_on_c, 0, 99, 0
1, 101516, Note_on_c, 0, 90, 0
1, 101520, Note_on_c, 0, 97, 64
1, 101520, Note_on_c, 0, 92, 64
1, 101576, Note_on_c, 0, 92, 0
1, 101580, Note_on_c, 0, 90, 64
1, 101636, Note_on_c, 0, 90, 0
1, 101640, Note_on_c, 0, 92, 64
1, 101696, Note_on_c, 0, 92, 0
1, 101700, Note_on_c, 0, 90, 64
1, 101747, Note_on_c, 0, 97, 0
1, 101756, Note_on_c, 0, 90, 0
1, 101760, Note_on_c, 0, 95, 64
1, 101760, Note_on_c, 0, 92, 64
1, 101816, Note_on_c, 0, 92, 0
1, 101820, Note_on_c, 0, 90, 64
1, 101876, Note_on_c, 0, 90, 0
1, 101880, Note_on_c, 0, 92, 64
1, 101936, Note_on_c, 0, 92, 0
1, 101940, Note_on_c, 0, 90, 64
1, 101987, Note_on_c, 0, 95, 0
1, 101996, Note_on_c, 0, 90, 0
1, 102000, Note_on_c, 0, 97, 64
1, 102000, Note_on_c, 0, 92, 64
1, 102056, Note_on_c, 0, 92, 0
1, 102060, Note_on_c, 0, 90, 64
1, 102116, Note_on_c, 0, 90, 0
1, 102120, Note_on_c, 0, 92, 64
1, 102176, Note_on_c, 0, 92, 0
1, 102180, Note_on_c, 0, 90, 64
1, 102227, Note_on_c, 0, 97, 0
1, 102236, Note_on_c, 0, 90, 0
1, 102240, Note_on_c, 0, 99, 64
1, 102240, Note_on_c, 0, 92, 64
1, 102296, Note_on_c, 0, 92, 0
1, 102300, Note_on_c, 0, 90, 64
1, 102356, Note_on_c, 0, 90, 0
1, 102360, Note_on_c, 0, 92, 64
1, 102416, Note_on_c, 0, 92, 0
1, 102420, Note_on_c, 0, 90, 64
1, 102467, Note_on_c, 0, 99, 0
1, 102476, Note_on_c, 0, 90, 0
1, 102480, Note_on_c, 0, 95, 64
1, 102480, Note_on_c, 0, 90, 64
1, 102707, Note_on_c, 0, 95, 0
1, 102707, Note_on_c, 0, 90, 0
1, 102720, Note_on_c, 0, 74, 64
1, 102720, Note_on_c, 0, 74, 64
1, 102776, Note_on_c, 0, 74, 0
1, 102780, Note_on_c, 0, 86, 64
1, 102836, Note_on_c, 0, 86, 0
1, 102840, Note_on_c, 0, 87, 64
1, 102896, Note_on_c, 0, 87, 0
1, 102900, Note_on_c, 0, 86, 64
1, 102947, Note_on_c, 0, 74, 0
1, 102956, Note_on_c, 0, 86, 0
1, 102960, Note_on_c, 0, 75, 64
1, 102960, Note_on_c, 0, 75, 64
1, 103016, Note_on_c, 0, 75, 0
1, 103020, Note_on_c, 0, 87, 64
1, 103076, Note_on_c, 0, 87, 0
1, 103080, Note_on_c, 0, 88, 64
1, 103136, Note_on_c, 0, 88, 0
1, 103140, Note_on_c, 0, 87, 64
1, 103187, Note_on_c, 0, 75, 0
1, 103196, Note_on_c, 0, 87, 0
1, 103200, Note_on_c, 0, 88, 64
1, 103256, Note_on_c, 0, 88, 0
1, 103260, Note_on_c, 0, 87, 64
1, 103316, Note_on_c, 0, 87, 0
1, 103320, Note_on_c, 0, 88, 64
1, 103376, Note_on_c, 0, 88, 0
1, 103380, Note_on_c, 0, 87, 64
1, 103436, Note_on_c, 0, 87, 0
1, 103440, Note_on_c, 0, 88, 64
1, 103496, Note_on_c, 0, 88, 0
1, 103500, Note_on_c, 0, 87, 64
1, 103556, Note_on_c, 0, 87, 0
1, 103560, Note_on_c, 0, 88, 64
1, 103616, Note_on_c, 0, 88, 0
1, 103620, Note_on_c, 0, 87, 64
1, 103676, Note_on_c, 0, 87, 0
1, 103680, Note_on_c, 0, 88, 64
1, 103724, Note_on_c, 0, 88, 0
1, 103728, Note_on_c, 0, 87, 64
1, 103772, Note_on_c, 0, 87, 0
1, 103776, Note_on_c, 0, 86, 64
1, 103820, Note_on_c, 0, 86, 0
1, 103824, Note_on_c, 0, 87, 64
1, 103868, Note_on_c, 0, 87, 0
1, 103872, Note_on_c, 0, 88, 64
1, 103916, Note_on_c, 0, 88, 0
1, 103920, Note_on_c, 0, 89, 64
1, 103964, Note_on_c, 0, 89, 0
1, 103968, Note_on_c, 0, 90, 64
1, 104012, Note_on_c, 0, 90, 0
1, 104016, Note_on_c, 0, 91, 64
1, 104060, Note_on_c, 0, 91, 0
1, 104064, Note_on_c, 0, 92, 64
1, 104108, Note_on_c, 0, 92, 0
1, 104112, Note_on_c, 0, 93, 64
1, 104156, Note_on_c, 0, 93, 0
1, 104160, Note_on_c, 0, 94, 64
1, 104197, Note_on_c, 0, 94, 0
1, 104200, Note_on_c, 0, 95, 64
1, 104237, Note_on_c, 0, 95, 0
1, 104240, Note_on_c, 0, 96, 64
1, 104277, Note_on_c, 0, 96, 0
1, 104280, Note_on_c, 0, 97, 64
1, 104317, Note_on_c, 0, 97, 0
1, 104320, Note_on_c, 0, 98, 64
1, 104357, Note_on_c, 0, 98, 0
1, 104360, Note_on_c, 0, 99, 64
1, 104397, Note_on_c, 0, 99, 0
1, 104400, Note_on_c, 0, 100, 64
1, 104444, Note_on_c, 0, 100, 0
1, 104448, Note_on_c, 0, 102, 64
1, 104492, Note_on_c, 0, 102, 0
1, 104496, Note_on_c, 0, 100, 64
1, 104540, Note_on_c, 0, 100, 0
1, 104544, Note_on_c, 0, 99, 64
1, 104588, Note_on_c, 0, 99, 0
1, 104592, Note_on_c, 0, 98, 64
1, 104636, Note_on_c, 0, 98, 0
1, 104640, Note_on_c, 0, 97, 64
1, 104684, Note_on_c, 0, 97, 0
1, 104688, Note_on_c, 0, 96, 64
1, 104732, Note_on_c, 0, 96, 0
1, 104736, Note_on_c, 0, 95, 64
1, 104780, Note_on_c, 0, 95, 0
1, 104784, Note_on_c, 0, 94, 64
1, 104828, Note_on_c, 0, 94, 0
1, 104832, Note_on_c, 0, 93, 64
1, 104876, Note_on_c, 0, 93, 0
1, 104880, Note_on_c, 0, 92, 64
1, 104924, Note_on_c, 0, 92, 0
1, 104928, Note_on_c, 0, 91, 64
1, 104972, Note_on_c, 0, 91, 0
1, 104976, Note_on_c, 0, 90, 64
1, 105020, Note_on_c, 0, 90, 0
1, 105024, Note_on_c, 0, 89, 64
1, 105068, Note_on_c, 0, 89, 0
1, 105072, Note_on_c, 0, 88, 64
1, 105116, Note_on_c, 0, 88, 0
1, 105120, Note_on_c, 0, 87, 64
1, 105120, Note_on_c, 0, 87, 64
1, 105347, Note_on_c, 0, 87, 0
1, 105347, Note_on_c, 0, 87, 0
1, 105360, Note_on_c, 0, 70, 64
1, 105360, Note_on_c, 0, 70, 64
1, 105416, Note_on_c, 0, 70, 0
1, 105420, Note_on_c, 0, 82, 64
1, 105476, Note_on_c, 0, 82, 0
1, 105480, Note_on_c, 0, 83, 64
1, 105536, Note_on_c, 0, 83, 0
1, 105540, Note_on_c, 0, 82, 64
1, 105587, Note_on_c, 0, 70, 0
1, 105596, Note_on_c, 0, 82, 0
1, 105600, Note_on_c, 0, 74, 64
1, 105600, Note_on_c, 0, 74, 64
1, 105656, Note_on_c, 0, 74, 0
1, 105660, Note_on_c, 0, 86, 64
1, 105716, Note_on_c, 0, 86, 0
1, 105720, Note_on_c, 0, 87, 64
1, 105776, Note_on_c, 0, 87, 0
1, 105780, Note_on_c, 0, 86, 64
1, 105827, Note_on_c, 0, 74, 0
1, 105836, Note_on_c, 0, 86, 0
1, 105840, Note_on_c, 0, 75, 64
1, 105840, Note_on_c, 0, 75, 64
1, 105896, Note_on_c, 0, 75, 0
1, 105900, Note_on_c, 0, 87, 64
1, 105956, Note_on_c, 0, 87, 0
1, 105960, Note_on_c, 0, 88, 64
1, 106016, Note_on_c, 0, 88, 0
1, 106020, Note_on_c, 0, 87, 64
1, 106067, Note_on_c, 0, 75, 0
1, 106076, Note_on_c, 0, 87, 0
1, 106080, Note_on_c, 0, 88, 64
1, 106136, Note_on_c, 0, 88, 0
1, 106140, Note_on_c, 0, 87, 64
1, 106196, Note_on_c, 0, 87, 0
1, 106200, Note_on_c, 0, 88, 64
1, 106256, Note_on_c, 0, 88, 0
1, 106260, Note_on_c, 0, 87, 64
1, 106316, Note_on_c, 0, 87, 0
1, 106320, Note_on_c, 0, 88, 64
1, 106376, Note_on_c, 0, 88, 0
1, 106380, Note_on_c, 0, 87, 64
1, 106436, Note_on_c, 0, 87, 0
1, 106440, Note_on_c, 0, 88, 64
1, 106496, Note_on_c, 0, 88, 0
1, 106500, Note_on_c, 0, 87, 64
1, 106556, Note_on_c, 0, 87, 0
1, 106560, Note_on_c, 0, 88, 64
1, 106604, Note_on_c, 0, 88, 0
1, 106608, Note_on_c, 0, 87, 64
1, 106652, Note_on_c, 0, 87, 0
1, 106656, Note_on_c, 0, 86, 64
1, 106700, Note_on_c, 0, 86, 0
1, 106704, Note_on_c, 0, 87, 64
1, 106748, Note_on_c, 0, 87, 0
1, 106752, Note_on_c, 0, 88, 64
1, 106796, Note_on_c, 0, 88, 0
1, 106800, Note_on_c, 0, 89, 64
1, 106844, Note_on_c, 0, 89, 0
1, 106848, Note_on_c, 0, 90, 64
1, 106892, Note_on_c, 0, 90, 0
1, 106896, Note_on_c, 0, 91, 64
1, 106940, Note_on_c, 0, 91, 0
1, 106944, Note_on_c, 0, 92, 64
1, 106988, Note_on_c, 0, 92, 0
1, 106992, Note_on_c, 0, 93, 64
1, 107036, Note_on_c, 0, 93, 0
1, 107040, Note_on_c, 0, 94, 64
1, 107077, Note_on_c, 0, 94, 0
1, 107080, Note_on_c, 0, 95, 64
1, 107117, Note_on_c, 0, 95, 0
1, 107120, Note_on_c, 0, 96, 64
1, 107157, Note_on_c, 0, 96, 0
1, 107160, Note_on_c, 0, 97, 64
1, 107197, Note_on_c, 0, 97, 0
1, 107200, Note_on_c, 0, 98, 64
1, 107237, Note_on_c, 0, 98, 0
1, 107240, Note_on_c, 0, 99, 64
1, 107277, Note_on_c, 0, 99, 0
1, 107280, Note_on_c, 0, 100, 64
1, 107324, Note_on_c, 0, 100, 0
1, 107328, Note_on_c, 0, 102, 64
1, 107372, Note_on_c, 0, 102, 0
1, 107376, Note_on_c, 0, 100, 64
1, 107420, Note_on_c, 0, 100, 0
1, 107424, Note_on_c, 0, 99, 64
1, 107468, Note_on_c, 0, 99, 0
1, 107472, Note_on_c, 0, 98, 64
1, 107516, Note_on_c, 0, 98, 0
1, 107520, Note_on_c, 0, 97, 64
1, 107564, Note_on_c, 0, 97, 0
1, 107568, Note_on_c, 0, 96, 64
1, 107612, Note_on_c, 0, 96, 0
1, 107616, Note_on_c, 0, 95, 64
1, 107660, Note_on_c, 0, 95, 0
1, 107664, Note_on_c, 0, 94, 64
1, 107708, Note_on_c, 0, 94, 0
1, 107712, Note_on_c, 0, 93, 64
1, 107756, Note_on_c, 0, 93, 0
1, 107760, Note_on_c, 0, 92, 64
1, 107804, Note_on_c, 0, 92, 0
1, 107808, Note_on_c, 0, 91, 64
1, 107852, Note_on_c, 0, 91, 0
1, 107856, Note_on_c, 0, 90, 64
1, 107900, Note_on_c, 0, 90, 0
1, 107904, Note_on_c, 0, 89, 64
1, 107948, Note_on_c, 0, 89, 0
1, 107952, Note_on_c, 0, 88, 64
1, 107996, Note_on_c, 0, 88, 0
1, 108000, Note_on_c, 0, 87, 64
1, 108044, Note_on_c, 0, 87, 0
1, 108048, Note_on_c, 0, 88, 64
1, 108092, Note_on_c, 0, 88, 0
1, 108096, Note_on_c, 0, 87, 64
1, 108140, Note_on_c, 0, 87, 0
1, 108144, Note_on_c, 0, 86, 64
1, 108188, Note_on_c, 0, 86, 0
1, 108192, Note_on_c, 0, 87, 64
1, 108236, Note_on_c, 0, 87, 0
1, 108240, Note_on_c, 0, 88, 64
1, 108284, Note_on_c, 0, 88, 0
1, 108288, Note_on_c, 0, 89, 64
1, 108332, Note_on_c, 0, 89, 0
1, 108336, Note_on_c, 0, 90, 64
1, 108380, Note_on_c, 0, 90, 0
1, 108384, Note_on_c, 0, 91, 64
1, 108428, Note_on_c, 0, 91, 0
1, 108432, Note_on_c, 0, 92, 64
1, 108476, Note_on_c, 0, 92, 0
1, 108480, Note_on_c, 0, 93, 64
1, 108517, Note_on_c, 0, 93, 0
1, 108520, Note_on_c, 0, 94, 64
1, 108557, Note_on_c, 0, 94, 0
1, 108560, Note_on_c, 0, 95, 64
1, 108597, Note_on_c, 0, 95, 0
1, 108600, Note_on_c, 0, 96, 64
1, 108637, Note_on_c, 0, 96, 0
1, 108640, Note_on_c, 0, 97, 64
1, 108677, Note_on_c, 0, 97, 0
1, 108680, Note_on_c, 0, 98, 64
1, 108717, Note_on_c, 0, 98, 0
1, 108720, Note_on_c, 0, 99, 64
1, 108764, Note_on_c, 0, 99, 0
1, 108768, Note_on_c, 0, 100, 64
1, 108812, Note_on_c, 0, 100, 0
1, 108816, Note_on_c, 0, 102, 64
1, 108860, Note_on_c, 0, 102, 0
1, 108864, Note_on_c, 0, 100, 64
1, 108908, Note_on_c, 0, 100, 0
1, 108912, Note_on_c, 0, 99, 64
1, 108956, Note_on_c, 0, 99, 0
1, 108960, Note_on_c, 0, 98, 64
1, 109004, Note_on_c, 0, 98, 0
1, 109008, Note_on_c, 0, 97, 64
1, 109052, Note_on_c, 0, 97, 0
1, 109056, Note_on_c, 0, 96, 64
1, 109100, Note_on_c, 0, 96, 0
1, 109104, Note_on_c, 0, 95, 64
1, 109148, Note_on_c, 0, 95, 0
1, 109152, Note_on_c, 0, 94, 64
1, 109196, Note_on_c, 0, 94, 0
1, 109200, Note_on_c, 0, 93, 64
1, 109237, Note_on_c, 0, 93, 0
1, 109240, Note_on_c, 0, 92, 64
1, 109277, Note_on_c, 0, 92, 0
1, 109280, Note_on_c, 0, 91, 64
1, 109317, Note_on_c, 0, 91, 0
1, 109320, Note_on_c, 0, 90, 64
1, 109357, Note_on_c, 0, 90, 0
1, 109360, Note_on_c, 0, 89, 64
1, 109397, Note_on_c, 0, 89, 0
1, 109400, Note_on_c, 0, 88, 64
1, 109437, Note_on_c, 0, 88, 0
1, 109440, Time_signature, 3, 3, 24, 8
1, 109440, Note_on_c, 0, 87, 64
1, 109484, Note_on_c, 0, 87, 0
1, 109488, Note_on_c, 0, 88, 64
1, 109532, Note_on_c, 0, 88, 0
1, 109536, Note_on_c, 0, 87, 64
1, 109580, Note_on_c, 0, 87, 0
1, 109584, Note_on_c, 0, 86, 64
1, 109628, Note_on_c, 0, 86, 0
1, 109632, Note_on_c, 0, 87, 64
1, 109676, Note_on_c, 0, 87, 0
1, 109680, Note_on_c, 0, 88, 64
1, 109717, Note_on_c, 0, 88, 0
1, 109720, Note_on_c, 0, 89, 64
1, 109757, Note_on_c, 0, 89, 0
1, 109760, Note_on_c, 0, 90, 64
1, 109797, Note_on_c, 0, 90, 0
1, 109800, Note_on_c, 0, 91, 64
1, 109837, Note_on_c, 0, 91, 0
1, 109840, Note_on_c, 0, 92, 64
1, 109877, Note_on_c, 0, 92, 0
1, 109880, Note_on_c, 0, 93, 64
1, 109917, Note_on_c, 0, 93, 0
1, 109920, Note_on_c, 0, 94, 64
1, 109957, Note_on_c, 0, 94, 0
1, 109960, Note_on_c, 0, 95, 64
1, 109997, Note_on_c, 0, 95, 0
1, 110000, Note_on_c, 0, 96, 64
1, 110037, Note_on_c, 0, 96, 0
1, 110040, Note_on_c, 0, 97, 64
1, 110077, Note_on_c, 0, 97, 0
1, 110080, Note_on_c, 0, 98, 64
1, 110117, Note_on_c, 0, 98, 0
1, 110120, Note_on_c, 0, 99, 64
1, 110157, Note_on_c, 0, 99, 0
1, 110160, Time_signature, 2, 2, 24, 8
1, 110160, Tempo, 750002
1, 110160, Note_on_c, 0, 100, 64
1, 110197, Note_on_c, 0, 100, 0
1, 110200, Note_on_c, 0, 102, 64
1, 110237, Note_on_c, 0, 102, 0
1, 110240, Note_on_c, 0, 100, 64
1, 110277, Note_on_c, 0, 100, 0
1, 110280, Note_on_c, 0, 99, 64
1, 110317, Note_on_c, 0, 99, 0
1, 110320, Note_on_c, 0, 98, 64
1, 110357, Note_on_c, 0, 98, 0
1, 110360, Note_on_c, 0, 99, 64
1, 110397, Note_on_c, 0, 99, 0
1, 110400, Note_on_c, 0, 98, 64
1, 110437, Note_on_c, 0, 98, 0
1, 110440, Note_on_c, 0, 97, 64
1, 110477, Note_on_c, 0, 97, 0
1, 110480, Note_on_c, 0, 96, 64
1, 110517, Note_on_c, 0, 96, 0
1, 110520, Note_on_c, 0, 97, 64
1, 110557, Note_on_c, 0, 97, 0
1, 110560, Note_on_c, 0, 96, 64
1, 110597, Note_on_c, 0, 96, 0
1, 110600, Note_on_c, 0, 95, 64
1, 110637, Note_on_c, 0, 95, 0
1, 110640, Note_on_c, 0, 94, 64
1, 110677, Note_on_c, 0, 94, 0
1, 110680, Note_on_c, 0, 95, 64
1, 110717, Note_on_c, 0, 95, 0
1, 110720, Note_on_c, 0, 94, 64
1, 110757, Note_on_c, 0, 94, 0
1, 110760, Note_on_c, 0, 93, 64
1, 110797, Note_on_c, 0, 93, 0
1, 110800, Note_on_c, 0, 92, 64
1, 110837, Note_on_c, 0, 92, 0
1, 110840, Note_on_c, 0, 93, 64
1, 110877, Note_on_c, 0, 93, 0
1, 110880, Note_on_c, 0, 92, 64
1, 110917, Note_on_c, 0, 92, 0
1, 110920, Note_on_c, 0, 91, 64
1, 110957, Note_on_c, 0, 91, 0
1, 110960, Note_on_c, 0, 90, 64
1, 110997, Note_on_c, 0, 90, 0
1, 111000, Note_on_c, 0, 91, 64
1, 111037, Note_on_c, 0, 91, 0
1, 111040, Note_on_c, 0, 90, 64
1, 111077, Note_on_c, 0, 90, 0
1, 111080, Note_on_c, 0, 89, 64
1, 111117, Note_on_c, 0, 89, 0
1, 111120, Note_on_c, 0, 88, 64
1, 111157, Note_on_c, 0, 88, 0
1, 111160, Note_on_c, 0, 90, 64
1, 111197, Note_on_c, 0, 90, 0
1, 111200, Note_on_c, 0, 88, 64
1, 111237, Note_on_c, 0, 88, 0
1, 111240, Note_on_c, 0, 87, 64
1, 111277, Note_on_c, 0, 87, 0
1, 111280, Note_on_c, 0, 86, 64
1, 111317, Note_on_c, 0, 86, 0
1, 111320, Note_on_c, 0, 87, 64
1, 111357, Note_on_c, 0, 87, 0
1, 111360, Note_on_c, 0, 86, 64
1, 111397, Note_on_c, 0, 86, 0
1, 111400, Note_on_c, 0, 85, 64
1, 111437, Note_on_c, 0, 85, 0
1, 111440, Note_on_c, 0, 84, 64
1, 111477, Note_on_c, 0, 84, 0
1, 111480, Note_on_c, 0, 85, 64
1, 111517, Note_on_c, 0, 85, 0
1, 111520, Note_on_c, 0, 84, 64
1, 111557, Note_on_c, 0, 84, 0
1, 111560, Note_on_c, 0, 83, 64
1, 111597, Note_on_c, 0, 83, 0
1, 111600, Note_on_c, 0, 82, 64
1, 111637, Note_on_c, 0, 82, 0
1, 111640, Note_on_c, 0, 83, 64
1, 111677, Note_on_c, 0, 83, 0
1, 111680, Note_on_c, 0, 82, 64
1, 111717, Note_on_c, 0, 82, 0
1, 111720, Note_on_c, 0, 81, 64
1, 111757, Note_on_c, 0, 81, 0
1, 111760, Note_on_c, 0, 80, 64
1, 111797, Note_on_c, 0, 80, 0
1, 111800, Note_on_c, 0, 81, 64
1, 111837, Note_on_c, 0, 81, 0
1, 111840, Note_on_c, 0, 80, 64
1, 111877, Note_on_c, 0, 80, 0
1, 111880, Note_on_c, 0, 79, 64
1, 111917, Note_on_c, 0, 79, 0
1, 111920, Note_on_c, 0, 78, 64
1, 111957, Note_on_c, 0, 78, 0
1, 111960, Note_on_c, 0, 79, 64
1, 111997, Note_on_c, 0, 79, 0
1, 112000, Note_on_c, 0, 78, 64
1, 112037, Note_on_c, 0, 78, 0
1, 112040, Note_on_c, 0, 77, 64
1, 112077, Note_on_c, 0, 77, 0
1, 112080, Note_on_c, 0, 76, 64
1, 112117, Note_on_c, 0, 76, 0
1, 112120, Note_on_c, 0, 78, 64
1, 112157, Note_on_c, 0, 78, 0
1, 112160, Note_on_c, 0, 76, 64
1, 112197, Note_on_c, 0, 76, 0
1, 112200, Note_on_c, 0, 75, 64
1, 112237, Note_on_c, 0, 75, 0
1, 112240, Note_on_c, 0, 74, 64
1, 112277, Note_on_c, 0, 74, 0
1, 112280, Note_on_c, 0, 75, 64
1, 112317, Note_on_c, 0, 75, 0
1, 112320, Note_on_c, 0, 74, 64
1, 112357, Note_on_c, 0, 74, 0
1, 112360, Note_on_c, 0, 73, 64
1, 112397, Note_on_c, 0, 73, 0
1, 112400, Note_on_c, 0, 72, 64
1, 112437, Note_on_c, 0, 72, 0
1, 112440, Note_on_c, 0, 73, 64
1, 112477, Note_on_c, 0, 73, 0
1, 112480, Note_on_c, 0, 72, 64
1, 112517, Note_on_c, 0, 72, 0
1, 112520, Note_on_c, 0, 71, 64
1, 112557, Note_on_c, 0, 71, 0
1, 112560, Note_on_c, 0, 70, 64
1, 112597, Note_on_c, 0, 70, 0
1, 112600, Note_on_c, 0, 71, 64
1, 112637, Note_on_c, 0, 71, 0
1, 112640, Note_on_c, 0, 70, 64
1, 112677, Note_on_c, 0, 70, 0
1, 112680, Note_on_c, 0, 69, 64
1, 112717, Note_on_c, 0, 69, 0
1, 112720, Note_on_c, 0, 68, 64
1, 112757, Note_on_c, 0, 68, 0
1, 112760, Note_on_c, 0, 69, 64
1, 112797, Note_on_c, 0, 69, 0
1, 112800, Note_on_c, 0, 68, 64
1, 112837, Note_on_c, 0, 68, 0
1, 112840, Note_on_c, 0, 67, 64
1, 112877, Note_on_c, 0, 67, 0
1, 112880, Note_on_c, 0, 66, 64
1, 112917, Note_on_c, 0, 66, 0
1, 112920, Note_on_c, 0, 67, 64
1, 112957, Note_on_c, 0, 67, 0
1, 112960, Note_on_c, 0, 66, 64
1, 112997, Note_on_c, 0, 66, 0
1, 113000, Note_on_c, 0, 65, 64
1, 113037, Note_on_c, 0, 65, 0
1, 113040, Note_on_c, 0, 64, 64
1, 113077, Note_on_c, 0, 64, 0
1, 113080, Note_on_c, 0, 62, 64
1, 113117, Note_on_c, 0, 62, 0
1, 113120, Note_on_c, 0, 64, 64
1, 113157, Note_on_c, 0, 64, 0
1, 113160, Note_on_c, 0, 63, 64
1, 113197, Note_on_c, 0, 63, 0
1, 113200, Note_on_c, 0, 65, 64
1, 113237, Note_on_c, 0, 65, 0
1, 113240, Note_on_c, 0, 64, 64
1, 113277, Note_on_c, 0, 64, 0
1, 113280, Note_on_c, 0, 66, 64
1, 113317, Note_on_c, 0, 66, 0
1, 113320, Note_on_c, 0, 65, 64
1, 113357, Note_on_c, 0, 65, 0
1, 113360, Note_on_c, 0, 67, 64
1, 113397, Note_on_c, 0, 67, 0
1, 113400, Note_on_c, 0, 66, 64
1, 113437, Note_on_c, 0, 66, 0
1, 113440, Note_on_c, 0, 68, 64
1, 113477, Note_on_c, 0, 68, 0
1, 113480, Note_on_c, 0, 67, 64
1, 113517, Note_on_c, 0, 67, 0
1, 113520, Note_on_c, 0, 69, 64
1, 113557, Note_on_c, 0, 69, 0
1, 113560, Note_on_c, 0, 68, 64
1, 113597, Note_on_c, 0, 68, 0
1, 113600, Note_on_c, 0, 70, 64
1, 113637, Note_on_c, 0, 70, 0
1, 113640, Note_on_c, 0, 69, 64
1, 113677, Note_on_c, 0, 69, 0
1, 113680, Note_on_c, 0, 71, 64
1, 113717, Note_on_c, 0, 71, 0
1, 113720, Note_on_c, 0, 70, 64
1, 113757, Note_on_c, 0, 70, 0
1, 113760, Note_on_c, 0, 72, 64
1, 113797, Note_on_c, 0, 72, 0
1, 113800, Note_on_c, 0, 71, 64
1, 113837, Note_on_c, 0, 71, 0
1, 113840, Note_on_c, 0, 73, 64
1, 113877, Note_on_c, 0, 73, 0
1, 113880, Note_on_c, 0, 72, 64
1, 113917, Note_on_c, 0, 72, 0
1, 113920, Note_on_c, 0, 74, 64
1, 113957, Note_on_c, 0, 74, 0
1, 113960, Note_on_c, 0, 73, 64
1, 113997, Note_on_c, 0, 73, 0
1, 114000, Note_on_c, 0, 75, 64
1, 114037, Note_on_c, 0, 75, 0
1, 114040, Note_on_c, 0, 74, 65
1, 114077, Note_on_c, 0, 74, 0
1, 114080, Note_on_c, 0, 76, 66
1, 114117, Note_on_c, 0, 76, 0
1, 114120, Note_on_c, 0, 75, 68
1, 114157, Note_on_c, 0, 75, 0
1, 114160, Note_on_c, 0, 77, 69
1, 114197, Note_on_c, 0, 77, 0
1, 114200, Note_on_c, 0, 76, 70
1, 114237, Note_on_c, 0, 76, 0
1, 114240, Note_on_c, 0, 78, 72
1, 114277, Note_on_c, 0, 78, 0
1, 114280, Note_on_c, 0, 77, 73
1, 114317, Note_on_c, 0, 77, 0
1, 114320, Note_on_c, 0, 79, 74
1, 114357, Note_on_c, 0, 79, 0
1, 114360, Note_on_c, 0, 78, 76
1, 114397, Note_on_c, 0, 78, 0
1, 114400, Note_on_c, 0, 80, 77
1, 114437, Note_on_c, 0, 80, 0
1, 114440, Note_on_c, 0, 79, 78
1, 114477, Note_on_c, 0, 79, 0
1, 114480, Note_on_c, 0, 81, 80
1, 114517, Note_on_c, 0, 81, 0
1, 114520, Note_on_c, 0, 80, 81
1, 114557, Note_on_c, 0, 80, 0
1, 114560, Note_on_c, 0, 82, 82
1, 114597, Note_on_c, 0, 82, 0
1, 114600, Note_on_c, 0, 81, 84
1, 114637, Note_on_c, 0, 81, 0
1, 114640, Note_on_c, 0, 83, 85
1, 114677, Note_on_c, 0, 83, 0
1, 114680, Note_on_c, 0, 82, 86
1, 114717, Note_on_c, 0, 82, 0
1, 114720, Note_on_c, 0, 84, 88
1, 114757, Note_on_c, 0, 84, 0
1, 114760, Note_on_c, 0, 83, 89
1, 114797, Note_on_c, 0, 83, 0
1, 114800, Note_on_c, 0, 85, 90
1, 114837, Note_on_c, 0, 85, 0
1, 114840, Note_on_c, 0, 84, 92
1, 114877, Note_on_c, 0, 84, 0
1, 114880, Note_on_c, 0, 86, 93
1, 114917, Note_on_c, 0, 86, 0
1, 114920, Note_on_c, 0, 85, 94
1, 114957, Note_on_c, 0, 85, 0
1, 114960, Note_on_c, 0, 87, 96
1, 114997, Note_on_c, 0, 87, 0
1, 115000, Note_on_c, 0, 86, 96
1, 115037, Note_on_c, 0, 86, 0
1, 115040, Note_on_c, 0, 88, 96
1, 115077, Note_on_c, 0, 88, 0
1, 115080, Note_on_c, 0, 87, 96
1, 115117, Note_on_c, 0, 87, 0
1, 115120, Note_on_c, 0, 89, 96
1, 115157, Note_on_c, 0, 89, 0
1, 115160, Note_on_c, 0, 88, 96
1, 115197, Note_on_c, 0, 88, 0
1, 115200, Note_on_c, 0, 90, 96
1, 115237, Note_on_c, 0, 90, 0
1, 115240, Note_on_c, 0, 89, 96
1, 115277, Note_on_c, 0, 89, 0
1, 115280, Note_on_c, 0, 91, 96
1, 115317, Note_on_c, 0, 91, 0
1, 115320, Note_on_c, 0, 90, 96
1, 115357, Note_on_c, 0, 90, 0
1, 115360, Note_on_c, 0, 92, 96
1, 115397, Note_on_c, 0, 92, 0
1, 115400, Note_on_c, 0, 91, 96
1, 115437, Note_on_c, 0, 91, 0
1, 115440, Note_on_c, 0, 93, 96
1, 115477, Note_on_c, 0, 93, 0
1, 115480, Note_on_c, 0, 92, 96
1, 115517, Note_on_c, 0, 92, 0
1, 115520, Note_on_c, 0, 94, 96
1, 115557, Note_on_c, 0, 94, 0
1, 115560, Note_on_c, 0, 93, 96
1, 115597, Note_on_c, 0, 93, 0
1, 115600, Note_on_c, 0, 95, 96
1, 115637, Note_on_c, 0, 95, 0
1, 115640, Note_on_c, 0, 94, 96
1, 115677, Note_on_c, 0, 94, 0
1, 115680, Note_on_c, 0, 96, 96
1, 115717, Note_on_c, 0, 96, 0
1, 115720, Note_on_c, 0, 95, 96
1, 115757, Note_on_c, 0, 95, 0
1, 115760, Note_on_c, 0, 97, 96
1, 115797, Note_on_c, 0, 97, 0
1, 115800, Note_on_c, 0, 96, 96
1, 115837, Note_on_c, 0, 96, 0
1, 115840, Note_on_c, 0, 98, 96
1, 115877, Note_on_c, 0, 98, 0
1, 115880, Note_on_c, 0, 97, 96
1, 115917, Note_on_c, 0, 97, 0
1, 115920, Note_on_c, 0, 99, 96
1, 115957, Note_on_c, 0, 99, 0
1, 115960, Note_on_c, 0, 98, 96
1, 115997, Note_on_c, 0, 98, 0
1, 116000, Note_on_c, 0, 100, 96
1, 116037, Note_on_c, 0, 100, 0
1, 116040, Note_on_c, 0, 98, 96
1, 116077, Note_on_c, 0, 98, 0
1, 116080, Note_on_c, 0, 99, 96
1, 116117, Note_on_c, 0, 99, 0
1, 116120, Note_on_c, 0, 98, 96
1, 116157, Note_on_c, 0, 98, 0
1, 116160, Note_on_c, 0, 100, 96
1, 116197, Note_on_c, 0, 100, 0
1, 116200, Note_on_c, 0, 98, 96
1, 116237, Note_on_c, 0, 98, 0
1, 116240, Note_on_c, 0, 99, 96
1, 116277, Note_on_c, 0, 99, 0
1, 116280, Note_on_c, 0, 98, 96
1, 116317, Note_on_c, 0, 98, 0
1, 116320, Note_on_c, 0, 100, 96
1, 116357, Note_on_c, 0, 100, 0
1, 116360, Note_on_c, 0, 98, 96
1, 116397, Note_on_c, 0, 98, 0
1, 116400, Note_on_c, 0, 99, 96
1, 116437, Note_on_c, 0, 99, 0
1, 116440, Note_on_c, 0, 98, 96
1, 116477, Note_on_c, 0, 98, 0
1, 116480, Note_on_c, 0, 100, 96
1, 116517, Note_on_c, 0, 100, 0
1, 116520, Note_on_c, 0, 98, 96
1, 116557, Note_on_c, 0, 98, 0
1, 116560, Note_on_c, 0, 99, 96
1, 116597, Note_on_c, 0, 99, 0
1, 116600, Note_on_c, 0, 98, 96
1, 116637, Note_on_c, 0, 98, 0
1, 116640, Note_on_c, 0, 100, 96
1, 116677, Note_on_c, 0, 100, 0
1, 116680, Note_on_c, 0, 98, 96
1, 116717, Note_on_c, 0, 98, 0
1, 116720, Note_on_c, 0, 99, 96
1, 116757, Note_on_c, 0, 99, 0
1, 116760, Note_on_c, 0, 98, 96
1, 116797, Note_on_c, 0, 98, 0
1, 116800, Note_on_c, 0, 100, 96
1, 116837, Note_on_c, 0, 100, 0
1, 116840, Note_on_c, 0, 98, 96
1, 116877, Note_on_c, 0, 98, 0
1, 116880, Time_signature, 6, 3, 24, 8
1, 116880, Tempo, 545456
1, 116880, Note_on_c, 0, 99, 96
1, 116936, Note_on_c, 0, 99, 0
1, 116940, Note_on_c, 0, 100, 94
1, 116996, Note_on_c, 0, 100, 0
1, 117000, Note_on_c, 0, 99, 91
1, 117056, Note_on_c, 0, 99, 0
1, 117060, Note_on_c, 0, 100, 88
1, 117116, Note_on_c, 0, 100, 0
1, 117120, Note_on_c, 0, 99, 86
1, 117176, Note_on_c, 0, 99, 0
1, 117180, Note_on_c, 0, 100, 83
1, 117236, Note_on_c, 0, 100, 0
1, 117240, Note_on_c, 0, 99, 80
1, 117296, Note_on_c, 0, 99, 0
1, 117300, Note_on_c, 0, 100, 78
1, 117356, Note_on_c, 0, 100, 0
1, 117360, Note_on_c, 0, 99, 75
1, 117416, Note_on_c, 0, 99, 0
1, 117420, Note_on_c, 0, 100, 72
1, 117476, Note_on_c, 0, 100, 0
1, 117480, Note_on_c, 0, 99, 70
1, 117536, Note_on_c, 0, 99, 0
1, 117540, Note_on_c, 0, 100, 67
1, 117596, Note_on_c, 0, 100, 0
1, 117600, Note_on_c, 0, 99, 64
1, 117656, Note_on_c, 0, 99, 0
1, 117660, Note_on_c, 0, 100, 64
1, 117716, Note_on_c, 0, 100, 0
1, 117720, Note_on_c, 0, 99, 68
1, 117776, Note_on_c, 0, 99, 0
1, 117780, Note_on_c, 0, 100, 72
1, 117836, Note_on_c, 0, 100, 0
1, 117840, Note_on_c, 0, 99, 77
1, 117896, Note_on_c, 0, 99, 0
1, 117900, Note_on_c, 0, 100, 81
1, 117956, Note_on_c, 0, 100, 0
1, 117960, Note_on_c, 0, 99, 85
1, 118016, Note_on_c, 0, 99, 0
1, 118020, Note_on_c, 0, 100, 90
1, 118076, Note_on_c, 0, 100, 0
1, 118080, Note_on_c, 0, 99, 94
1, 118136, Note_on_c, 0, 99, 0
1, 118140, Note_on_c, 0, 100, 98
1, 118196, Note_on_c, 0, 100, 0
1, 118200, Note_on_c, 0, 99, 103
1, 118256, Note_on_c, 0, 99, 0
1, 118260, Note_on_c, 0, 100, 107
1, 118316, Note_on_c, 0, 100, 0
1, 118320, Note_on_c, 0, 99, 112
1, 118376, Note_on_c, 0, 99, 0
1, 118380, Note_on_c, 0, 100, 108
1, 118436, Note_on_c, 0, 100, 0
1, 118440, Note_on_c, 0, 99, 104
1, 118496, Note_on_c, 0, 99, 0
1, 118500, Note_on_c, 0, 100, 100
1, 118556, Note_on_c, 0, 100, 0
1, 118560, Note_on_c, 0, 99, 96
1, 118616, Note_on_c, 0, 99, 0
1, 118620, Note_on_c, 0, 100, 92
1, 118676, Note_on_c, 0, 100, 0
1, 118680, Note_on_c, 0, 99, 88
1, 118736, Note_on_c, 0, 99, 0
1, 118740, Note_on_c, 0, 100, 84
1, 118796, Note_on_c, 0, 100, 0
1, 118800, Note_on_c, 0, 99, 80
1, 118856, Note_on_c, 0, 99, 0
1, 118860, Note_on_c, 0, 100, 76
1, 118916, Note_on_c, 0, 100, 0
1, 118920, Note_on_c, 0, 99, 72
1, 118976, Note_on_c, 0, 99, 0
1, 118980, Note_on_c, 0, 100, 68
1, 119036, Note_on_c, 0, 100, 0
1, 119040, Note_on_c, 0, 99, 64
1, 119096, Note_on_c, 0, 99, 0
1, 119100, Note_on_c, 0, 100, 64
1, 119156, Note_on_c, 0, 100, 0
1, 119160, Note_on_c, 0, 99, 63
1, 119216, Note_on_c, 0, 99, 0
1, 119220, Note_on_c, 0, 100, 62
1, 119276, Note_on_c, 0, 100, 0
1, 119280, Note_on_c, 0, 99, 60
1, 119336, Note_on_c, 0, 99, 0
1, 119340, Note_on_c, 0, 100, 59
1, 119396, Note_on_c, 0, 100, 0
1, 119400, Note_on_c, 0, 99, 58
1, 119456, Note_on_c, 0, 99, 0
1, 119460, Note_on_c, 0, 100, 56
1, 119516, Note_on_c, 0, 100, 0
1, 119520, Note_on_c, 0, 99, 55
1, 119576, Note_on_c, 0, 99, 0
1, 119580, Note_on_c, 0, 100, 54
1, 119636, Note_on_c, 0, 100, 0
1, 119640, Note_on_c, 0, 99, 52
1, 119696, Note_on_c, 0, 99, 0
1, 119700, Note_on_c, 0, 100, 51
1, 119756, Note_on_c, 0, 100, 0
1, 119760, Tempo, 599999
1, 119760, Note_on_c, 0, 99, 49
1, 119816, Note_on_c, 0, 99, 0
1, 119820, Note_on_c, 0, 100, 49
1, 119876, Note_on_c, 0, 100, 0
1, 119880, Note_on_c, 0, 99, 49
1, 119936, Note_on_c, 0, 99, 0
1, 119940, Note_on_c, 0, 100, 49
1, 119996, Note_on_c, 0, 100, 0
1, 120000, Note_on_c, 0, 99, 49
1, 120056, Note_on_c, 0, 99, 0
1, 120060, Note_on_c, 0, 100, 49
1, 120116, Note_on_c, 0, 100, 0
1, 120120, Note_on_c, 0, 99, 49
1, 120176, Note_on_c, 0, 99, 0
1, 120180, Note_on_c, 0, 100, 49
1, 120236, Note_on_c, 0, 100, 0
1, 120240, Tempo, 631580
1, 120240, Note_on_c, 0, 99, 49
1, 120296, Note_on_c, 0, 99, 0
1, 120300, Note_on_c, 0, 100, 49
1, 120356, Note_on_c, 0, 100, 0
1, 120360, Note_on_c, 0, 99, 49
1, 120416, Note_on_c, 0, 99, 0
1, 120420, Note_on_c, 0, 100, 49
1, 120476, Note_on_c, 0, 100, 0
1, 120480, Note_on_c, 0, 99, 49
1, 120536, Note_on_c, 0, 99, 0
1, 120540, Note_on_c, 0, 100, 49
1, 120596, Note_on_c, 0, 100, 0
1, 120600, Note_on_c, 0, 99, 49
1, 120656, Note_on_c, 0, 99, 0
1, 120660, Note_on_c, 0, 100, 49
1, 120716, Note_on_c, 0, 100, 0
1, 120720, Note_on_c, 0, 99, 49
1, 120720, Note_on_c, 0, 87, 49
1, 120776, Note_on_c, 0, 99, 0
1, 120780, Note_on_c, 0, 100, 49
1, 120836, Note_on_c, 0, 100, 0
1, 120840, Note_on_c, 0, 99, 49
1, 120896, Note_on_c, 0, 99, 0
1, 120900, Note_on_c, 0, 100, 49
1, 120947, Note_on_c, 0, 87, 0
1, 120956, Note_on_c, 0, 100, 0
1, 120960, Note_on_c, 0, 99, 49
1, 120960, Note_on_c, 0, 87, 49
1, 121016, Note_on_c, 0, 99, 0
1, 121020, Note_on_c, 0, 100, 49
1, 121076, Note_on_c, 0, 100, 0
1, 121080, Note_on_c, 0, 99, 49
1, 121136, Note_on_c, 0, 99, 0
1, 121140, Note_on_c, 0, 100, 49
1, 121187, Note_on_c, 0, 87, 0
1, 121196, Note_on_c, 0, 100, 0
1, 121200, Note_on_c, 0, 99, 49
1, 121200, Note_on_c, 0, 87, 49
1, 121256, Note_on_c, 0, 99, 0
1, 121260, Note_on_c, 0, 100, 49
1, 121316, Note_on_c, 0, 100, 0
1, 121319, Note_on_c, 0, 87, 0
1, 121320, Note_on_c, 0, 99, 49
1, 121376, Note_on_c, 0, 99, 0
1, 121380, Note_on_c, 0, 100, 49
1, 121436, Note_on_c, 0, 100, 0
1, 121440, Note_on_c, 0, 99, 49
1, 121440, Note_on_c, 0, 87, 49
1, 121496, Note_on_c, 0, 99, 0
1, 121500, Note_on_c, 0, 100, 49
1, 121556, Note_on_c, 0, 100, 0
1, 121559, Note_on_c, 0, 87, 0
1, 121560, Note_on_c, 0, 99, 49
1, 121616, Note_on_c, 0, 99, 0
1, 121620, Note_on_c, 0, 100, 49
1, 121676, Note_on_c, 0, 100, 0
1, 121680, Note_on_c, 0, 99, 49
1, 121680, Note_on_c, 0, 87, 49
1, 121736, Note_on_c, 0, 99, 0
1, 121740, Note_on_c, 0, 100, 49
1, 121796, Note_on_c, 0, 100, 0
1, 121799, Note_on_c, 0, 87, 0
1, 121800, Note_on_c, 0, 99, 49
1, 121856, Note_on_c, 0, 99, 0
1, 121860, Note_on_c, 0, 100, 49
1, 121916, Note_on_c, 0, 100, 0
1, 121920, Note_on_c, 0, 99, 49
1, 121920, Note_on_c, 0, 87, 49
1, 121976, Note_on_c, 0, 99, 0
1, 121980, Note_on_c, 0, 100, 49
1, 122036, Note_on_c, 0, 100, 0
1, 122039, Note_on_c, 0, 87, 0
1, 122040, Note_on_c, 0, 99, 49
1, 122096, Note_on_c, 0, 99, 0
1, 122100, Note_on_c, 0, 100, 49
1, 122156, Note_on_c, 0, 100, 0
1, 122160, Note_on_c, 0, 99, 49
1, 122160, Note_on_c, 0, 87, 49
1, 122216, Note_on_c, 0, 99, 0
1, 122220, Note_on_c, 0, 100, 49
1, 122276, Note_on_c, 0, 100, 0
1, 122279, Note_on_c, 0, 87, 0
1, 122280, Note_on_c, 0, 99, 49
1, 122336, Note_on_c, 0, 99, 0
1, 122340, Note_on_c, 0, 100, 49
1, 122396, Note_on_c, 0, 100, 0
1, 122400, Note_on_c, 0, 99, 49
1, 122400, Note_on_c, 0, 87, 49
1, 122456, Note_on_c, 0, 99, 0
1, 122460, Note_on_c, 0, 100, 49
1, 122516, Note_on_c, 0, 100, 0
1, 122519, Note_on_c, 0, 87, 0
1, 122520, Note_on_c, 0, 99, 49
1, 122576, Note_on_c, 0, 99, 0
1, 122580, Note_on_c, 0, 100, 49
1, 122636, Note_on_c, 0, 100, 0
1, 122640, Note_on_c, 0, 99, 49
1, 122640, Note_on_c, 0, 87, 49
1, 122696, Note_on_c, 0, 99, 0
1, 122700, Note_on_c, 0, 100, 49
1, 122756, Note_on_c, 0, 100, 0
1, 122759, Note_on_c, 0, 87, 0
1, 122760, Note_on_c, 0, 99, 49
1, 122816, Note_on_c, 0, 99, 0
1, 122820, Note_on_c, 0, 100, 49
1, 122876, Note_on_c, 0, 100, 0
1, 122880, Note_on_c, 0, 99, 49
1, 122880, Note_on_c, 0, 87, 49
1, 122936, Note_on_c, 0, 99, 0
1, 122940, Note_on_c, 0, 100, 49
1, 122996, Note_on_c, 0, 100, 0
1, 122999, Note_on_c, 0, 87, 0
1, 123000, Note_on_c, 0, 99, 49
1, 123056, Note_on_c, 0, 99, 0
1, 123060, Note_on_c, 0, 100, 49
1, 123116, Note_on_c, 0, 100, 0
1, 123120, Note_on_c, 0, 99, 49
1, 123120, Note_on_c, 0, 87, 49
1, 123176, Note_on_c, 0, 99, 0
1, 123180, Note_on_c, 0, 100, 49
1, 123236, Note_on_c, 0, 100, 0
1, 123239, Note_on_c, 0, 87, 0
1, 123240, Note_on_c, 0, 99, 49
1, 123296, Note_on_c, 0, 99, 0
1, 123300, Note_on_c, 0, 100, 49
1, 123356, Note_on_c, 0, 100, 0
1, 123360, Note_on_c, 0, 99, 49
1, 123360, Note_on_c, 0, 87, 49
1, 123416, Note_on_c, 0, 99, 0
1, 123420, Note_on_c, 0, 100, 49
1, 123476, Note_on_c, 0, 100, 0
1, 123479, Note_on_c, 0, 87, 0
1, 123480, Note_on_c, 0, 99, 49
1, 123536, Note_on_c, 0, 99, 0
1, 123540, Note_on_c, 0, 100, 49
1, 123596, Note_on_c, 0, 100, 0
1, 123600, Note_on_c, 0, 99, 49
1, 123600, Note_on_c, 0, 87, 49
1, 123656, Note_on_c, 0, 99, 0
1, 123660, Note_on_c, 0, 100, 49
1, 123716, Note_on_c, 0, 100, 0
1, 123719, Note_on_c, 0, 87, 0
1, 123720, Note_on_c, 0, 99, 49
1, 123776, Note_on_c, 0, 99, 0
1, 123780, Note_on_c, 0, 100, 49
1, 123836, Note_on_c, 0, 100, 0
1, 123840, Note_on_c, 0, 99, 49
1, 123840, Note_on_c, 0, 87, 49
1, 123896, Note_on_c, 0, 99, 0
1, 123900, Note_on_c, 0, 100, 49
1, 123956, Note_on_c, 0, 100, 0
1, 123959, Note_on_c, 0, 87, 0
1, 123960, Note_on_c, 0, 99, 49
1, 124016, Note_on_c, 0, 99, 0
1, 124020, Note_on_c, 0, 100, 49
1, 124076, Note_on_c, 0, 100, 0
1, 124080, Note_on_c, 0, 99, 49
1, 124080, Note_on_c, 0, 87, 49
1, 124136, Note_on_c, 0, 99, 0
1, 124140, Note_on_c, 0, 100, 49
1, 124196, Note_on_c, 0, 100, 0
1, 124199, Note_on_c, 0, 87, 0
1, 124200, Note_on_c, 0, 99, 49
1, 124256, Note_on_c, 0, 99, 0
1, 124260, Note_on_c, 0, 100, 49
1, 124316, Note_on_c, 0, 100, 0
1, 124320, Note_on_c, 0, 99, 49
1, 124320, Note_on_c, 0, 87, 49
1, 124376, Note_on_c, 0, 99, 0
1, 124380, Note_on_c, 0, 100, 49
1, 124436, Note_on_c, 0, 100, 0
1, 124439, Note_on_c, 0, 87, 0
1, 124440, Note_on_c, 0, 99, 49
1, 124496, Note_on_c, 0, 99, 0
1, 124500, Note_on_c, 0, 100, 49
1, 124556, Note_on_c, 0, 100, 0
1, 124560, Note_on_c, 0, 99, 49
1, 124560, Note_on_c, 0, 87, 49
1, 124616, Note_on_c, 0, 99, 0
1, 124620, Note_on_c, 0, 100, 49
1, 124676, Note_on_c, 0, 100, 0
1, 124679, Note_on_c, 0, 87, 0
1, 124680, Note_on_c, 0, 99, 49
1, 124736, Note_on_c, 0, 99, 0
1, 124740, Note_on_c, 0, 100, 49
1, 124796, Note_on_c, 0, 100, 0
1, 124800, Note_on_c, 0, 99, 49
1, 124800, Note_on_c, 0, 87, 49
1, 124856, Note_on_c, 0, 99, 0
1, 124860, Note_on_c, 0, 100, 49
1, 124916, Note_on_c, 0, 100, 0
1, 124919, Note_on_c, 0, 87, 0
1, 124920, Note_on_c, 0, 99, 49
1, 124976, Note_on_c, 0, 99, 0
1, 124980, Note_on_c, 0, 100, 49
1, 125036, Note_on_c, 0, 100, 0
1, 125040, Note_on_c, 0, 99, 49
1, 125040, Note_on_c, 0, 87, 49
1, 125096, Note_on_c, 0, 99, 0
1, 125100, Note_on_c, 0, 100, 49
1, 125156, Note_on_c, 0, 100, 0
1, 125159, Note_on_c, 0, 87, 0
1, 125160, Note_on_c, 0, 99, 49
1, 125216, Note_on_c, 0, 99, 0
1, 125220, Note_on_c, 0, 100, 49
1, 125276, Note_on_c, 0, 100, 0
1, 125280, Note_on_c, 0, 99, 49
1, 125280, Note_on_c, 0, 87, 49
1, 125336, Note_on_c, 0, 99, 0
1, 125340, Note_on_c, 0, 100, 49
1, 125396, Note_on_c, 0, 100, 0
1, 125399, Note_on_c, 0, 87, 0
1, 125400, Note_on_c, 0, 99, 49
1, 125456, Note_on_c, 0, 99, 0
1, 125460, Note_on_c, 0, 100, 49
1, 125516, Note_on_c, 0, 100, 0
1, 125520, Note_on_c, 0, 99, 49
1, 125520, Note_on_c, 0, 87, 49
1, 125576, Note_on_c, 0, 99, 0
1, 125580, Note_on_c, 0, 100, 49
1, 125636, Note_on_c, 0, 100, 0
1, 125639, Note_on_c, 0, 87, 0
1, 125640, Note_on_c, 0, 99, 49
1, 125696, Note_on_c, 0, 99, 0
1, 125700, Note_on_c, 0, 100, 49
1, 125756, Note_on_c, 0, 100, 0
1, 125760, Note_on_c, 0, 99, 49
1, 125760, Note_on_c, 0, 87, 49
1, 125816, Note_on_c, 0, 99, 0
1, 125820, Note_on_c, 0, 100, 49
1, 125876, Note_on_c, 0, 100, 0
1, 125879, Note_on_c, 0, 87, 0
1, 125880, Note_on_c, 0, 99, 49
1, 125936, Note_on_c, 0, 99, 0
1, 125940, Note_on_c, 0, 100, 49
1, 125996, Note_on_c, 0, 100, 0
1, 126000, Note_on_c, 0, 99, 49
1, 126000, Note_on_c, 0, 87, 49
1, 126056, Note_on_c, 0, 99, 0
1, 126060, Note_on_c, 0, 100, 49
1, 126116, Note_on_c, 0, 100, 0
1, 126119, Note_on_c, 0, 87, 0
1, 126120, Note_on_c, 0, 99, 49
1, 126176, Note_on_c, 0, 99, 0
1, 126180, Note_on_c, 0, 100, 50
1, 126236, Note_on_c, 0, 100, 0
1, 126240, Tempo, 599999
1, 126240, Note_on_c, 0, 99, 51
1, 126240, Note_on_c, 0, 87, 51
1, 126296, Note_on_c, 0, 99, 0
1, 126300, Note_on_c, 0, 100, 52
1, 126356, Note_on_c, 0, 100, 0
1, 126359, Note_on_c, 0, 87, 0
1, 126360, Note_on_c, 0, 99, 53
1, 126416, Note_on_c, 0, 99, 0
1, 126420, Note_on_c, 0, 100, 54
1, 126476, Note_on_c, 0, 100, 0
1, 126480, Note_on_c, 0, 99, 55
1, 126480, Note_on_c, 0, 87, 55
1, 126536, Note_on_c, 0, 99, 0
1, 126540, Note_on_c, 0, 100, 56
1, 126596, Note_on_c, 0, 100, 0
1, 126599, Note_on_c, 0, 87, 0
1, 126600, Note_on_c, 0, 99, 57
1, 126656, Note_on_c, 0, 99, 0
1, 126660, Note_on_c, 0, 100, 58
1, 126716, Note_on_c, 0, 100, 0
1, 126720, Note_on_c, 0, 99, 59
1, 126720, Note_on_c, 0, 87, 59
1, 126776, Note_on_c, 0, 99, 0
1, 126780, Note_on_c, 0, 100, 60
1, 126836, Note_on_c, 0, 100, 0
1, 126839, Note_on_c, 0, 87, 0
1, 126840, Note_on_c, 0, 99, 61
1, 126896, Note_on_c, 0, 99, 0
1, 126900, Note_on_c, 0, 100, 62
1, 126956, Note_on_c, 0, 100, 0
1, 126960, Tempo, 545456
1, 126960, Note_on_c, 0, 99, 64
1, 127016, Note_on_c, 0, 99, 0
1, 127020, Note_on_c, 0, 100, 64
1, 127076, Note_on_c, 0, 100, 0
1, 127080, Note_on_c, 0, 99, 64
1, 127136, Note_on_c, 0, 99, 0
1, 127140, Note_on_c, 0, 87, 64
1, 127196, Note_on_c, 0, 87, 0
1, 127200, Note_on_c, 0, 87, 64
1, 127256, Note_on_c, 0, 87, 0
1, 127260, Note_on_c, 0, 88, 64
1, 127316, Note_on_c, 0, 88, 0
1, 127320, Note_on_c, 0, 87, 64
1, 127376, Note_on_c, 0, 87, 0
1, 127380, Note_on_c, 0, 75, 64
1, 127436, Note_on_c, 0, 75, 0
1, 127440, Note_on_c, 0, 87, 64
1, 127515, Note_on_c, 0, 87, 0
1, 127520, Note_on_c, 0, 88, 64
1, 127595, Note_on_c, 0, 88, 0
1, 127600, Note_on_c, 0, 87, 64
1, 127675, Note_on_c, 0, 87, 0
1, 127680, Note_on_c, 0, 99, 64
1, 127736, Note_on_c, 0, 99, 0
1, 127740, Note_on_c, 0, 100, 64
1, 127796, Note_on_c, 0, 100, 0
1, 127800, Note_on_c, 0, 99, 64
1, 127856, Note_on_c, 0, 99, 0
1, 127860, Note_on_c, 0, 87, 64
1, 127916, Note_on_c, 0, 87, 0
1, 127920, Note_on_c, 0, 87, 64
1, 127976, Note_on_c, 0, 87, 0
1, 127980, Note_on_c, 0, 88, 64
1, 128036, Note_on_c, 0, 88, 0
1, 128040, Note_on_c, 0, 87, 64
1, 128096, Note_on_c, 0, 87, 0
1, 128100, Note_on_c, 0, 75, 64
1, 128156, Note_on_c, 0, 75, 0
1, 128160, Note_on_c, 0, 87, 64
1, 128235, Note_on_c, 0, 87, 0
1, 128240, Note_on_c, 0, 88, 64
1, 128315, Note_on_c, 0, 88, 0
1, 128320, Note_on_c, 0, 87, 64
1, 128395, Note_on_c, 0, 87, 0
1, 128400, Note_on_c, 0, 99, 64
1, 128456, Note_on_c, 0, 99, 0
1, 128460, Note_on_c, 0, 100, 64
1, 128516, Note_on_c, 0, 100, 0
1, 128520, Note_on_c, 0, 99, 64
1, 128576, Note_on_c, 0, 99, 0
1, 128580, Note_on_c, 0, 87, 64
1, 128636, Note_on_c, 0, 87, 0
1, 128640, Note_on_c, 0, 87, 64
1, 128696, Note_on_c, 0, 87, 0
1, 128700, Note_on_c, 0, 88, 64
1, 128756, Note_on_c, 0, 88, 0
1, 128760, Note_on_c, 0, 87, 64
1, 128816, Note_on_c, 0, 87, 0
1, 128820, Note_on_c, 0, 75, 64
1, 128876, Note_on_c, 0, 75, 0
1, 128880, Note_on_c, 0, 87, 64
1, 128955, Note_on_c, 0, 87, 0
1, 128960, Note_on_c, 0, 88, 64
1, 129035, Note_on_c, 0, 88, 0
1, 129040, Note_on_c, 0, 87, 64
1, 129115, Note_on_c, 0, 87, 0
1, 129120, Note_on_c, 0, 99, 64
1, 129176, Note_on_c, 0, 99, 0
1, 129180, Note_on_c, 0, 100, 64
1, 129236, Note_on_c, 0, 100, 0
1, 129240, Note_on_c, 0, 99, 64
1, 129296, Note_on_c, 0, 99, 0
1, 129300, Note_on_c, 0, 87, 64
1, 129356, Note_on_c, 0, 87, 0
1, 129360, Note_on_c, 0, 87, 64
1, 129416, Note_on_c, 0, 87, 0
1, 129420, Note_on_c, 0, 88, 64
1, 129476, Note_on_c, 0, 88, 0
1, 129480, Note_on_c, 0, 87, 64
1, 129536, Note_on_c, 0, 87, 0
1, 129540, Note_on_c, 0, 75, 64
1, 129596, Note_on_c, 0, 75, 0
1, 129600, Note_on_c, 0, 87, 64
1, 129675, Note_on_c, 0, 87, 0
1, 129680, Note_on_c, 0, 88, 64
1, 129755, Note_on_c, 0, 88, 0
1, 129760, Note_on_c, 0, 87, 64
1, 129835, Note_on_c, 0, 87, 0
1, 129840, Note_on_c, 0, 99, 64
1, 129896, Note_on_c, 0, 99, 0
1, 129900, Note_on_c, 0, 100, 64
1, 129956, Note_on_c, 0, 100, 0
1, 129960, Note_on_c, 0, 99, 64
1, 130016, Note_on_c, 0, 99, 0
1, 130020, Note_on_c, 0, 87, 64
1, 130076, Note_on_c, 0, 87, 0
1, 130080, Note_on_c, 0, 71, 64
1, 130080, Note_on_c, 0, 80, 64
1, 130193, Note_on_c, 0, 71, 0
1, 130193, Note_on_c, 0, 80, 0
1, 130200, Note_on_c, 0, 75, 64
1, 130200, Note_on_c, 0, 83, 64
1, 130313, Note_on_c, 0, 75, 0
1, 130313, Note_on_c, 0, 83, 0
1, 130320, Note_on_c, 0, 80, 64
1, 130320, Note_on_c, 0, 87, 64
1, 130547, Note_on_c, 0, 80, 0
1, 130547, Note_on_c, 0, 87, 0
1, 130560, Note_on_c, 0, 99, 64
1, 130616, Note_on_c, 0, 99, 0
1, 130620, Note_on_c, 0, 100, 64
1, 130676, Note_on_c, 0, 100, 0
1, 130680, Note_on_c, 0, 99, 64
1, 130736, Note_on_c, 0, 99, 0
1, 130740, Note_on_c, 0, 87, 64
1, 130796, Note_on_c, 0, 87, 0
1, 130800, Note_on_c, 0, 70, 64
1, 130800, Note_on_c, 0, 79, 64
1, 130913, Note_on_c, 0, 70, 0
1, 130913, Note_on_c, 0, 79, 0
1, 130920, Note_on_c, 0, 73, 64
1, 130920, Note_on_c, 0, 82, 64
1, 131033, Note_on_c, 0, 73, 0
1, 131033, Note_on_c, 0, 82, 0
1, 131040, Note_on_c, 0, 79, 64
1, 131040, Note_on_c, 0, 87, 64
1, 131267, Note_on_c, 0, 79, 0
1, 131267, Note_on_c, 0, 87, 0
1, 131760, Note_on_c, 0, 75, 64
1, 131816, Note_on_c, 0, 75, 0
1, 131820, Note_on_c, 0, 87, 65
1, 131876, Note_on_c, 0, 87, 0
1, 131880, Note_on_c, 0, 88, 66
1, 131936, Note_on_c, 0, 88, 0
1, 131940, Note_on_c, 0, 87, 67
1, 131996, Note_on_c, 0, 87, 0
1, 132000, Note_on_c, 0, 87, 68
1, 132056, Note_on_c, 0, 87, 0
1, 132060, Note_on_c, 0, 99, 69
1, 132116, Note_on_c, 0, 99, 0
1, 132120, Note_on_c, 0, 100, 70
1, 132176, Note_on_c, 0, 100, 0
1, 132180, Note_on_c, 0, 99, 71
1, 132236, Note_on_c, 0, 99, 0
1, 132240, Note_on_c, 0, 87, 72
1, 132296, Note_on_c, 0, 87, 0
1, 132300, Note_on_c, 0, 99, 73
1, 132356, Note_on_c, 0, 99, 0
1, 132360, Note_on_c, 0, 100, 74
1, 132416, Note_on_c, 0, 100, 0
1, 132420, Note_on_c, 0, 99, 75
1, 132476, Note_on_c, 0, 99, 0
1, 132480, Note_on_c, 0, 85, 76
1, 132536, Note_on_c, 0, 85, 0
1, 132540, Note_on_c, 0, 97, 77
1, 132596, Note_on_c, 0, 97, 0
1, 132600, Note_on_c, 0, 99, 78
1, 132656, Note_on_c, 0, 99, 0
1, 132660, Note_on_c, 0, 97, 79
1, 132716, Note_on_c, 0, 97, 0
1, 132720, Note_on_c, 0, 83, 80
1, 132776, Note_on_c, 0, 83, 0
1, 132780, Note_on_c, 0, 95, 80
1, 132836, Note_on_c, 0, 95, 0
1, 132840, Note_on_c, 0, 97, 80
1, 132896, Note_on_c, 0, 97, 0
1, 132900, Note_on_c, 0, 95, 80
1, 132956, Note_on_c, 0, 95, 0
1, 132960, Note_on_c, 0, 83, 80
1, 133016, Note_on_c, 0, 83, 0
1, 133020, Note_on_c, 0, 95, 80
1, 133076, Note_on_c, 0, 95, 0
1, 133080, Note_on_c, 0, 97, 80
1, 133136, Note_on_c, 0, 97, 0
1, 133140, Note_on_c, 0, 95, 80
1, 133196, Note_on_c, 0, 95, 0
1, 133200, Note_on_c, 0, 82, 80
1, 133256, Note_on_c, 0, 82, 0
1, 133260, Note_on_c, 0, 94, 80
1, 133316, Note_on_c, 0, 94, 0
1, 133320, Note_on_c, 0, 95, 80
1, 133376, Note_on_c, 0, 95, 0
1, 133380, Note_on_c, 0, 94, 80
1, 133436, Note_on_c, 0, 94, 0
1, 133440, Note_on_c, 0, 80, 80
1, 133496, Note_on_c, 0, 80, 0
1, 133500, Note_on_c, 0, 92, 80
1, 133556, Note_on_c, 0, 92, 0
1, 133560, Note_on_c, 0, 94, 80
1, 133616, Note_on_c, 0, 94, 0
1, 133620, Note_on_c, 0, 92, 80
1, 133676, Note_on_c, 0, 92, 0
1, 133680, Note_on_c, 0, 79, 80
1, 133736, Note_on_c, 0, 79, 0
1, 133740, Note_on_c, 0, 91, 80
1, 133796, Note_on_c, 0, 91, 0
1, 133800, Note_on_c, 0, 92, 80
1, 133856, Note_on_c, 0, 92, 0
1, 133860, Note_on_c, 0, 91, 80
1, 133916, Note_on_c, 0, 91, 0
1, 133920, Note_on_c, 0, 80, 80
1, 133976, Note_on_c, 0, 80, 0
1, 133980, Note_on_c, 0, 92, 80
1, 134036, Note_on_c, 0, 92, 0
1, 134040, Note_on_c, 0, 94, 80
1, 134096, Note_on_c, 0, 94, 0
1, 134100, Note_on_c, 0, 92, 80
1, 134156, Note_on_c, 0, 92, 0
1, 134160, Note_on_c, 0, 82, 80
1, 134216, Note_on_c, 0, 82, 0
1, 134220, Note_on_c, 0, 94, 80
1, 134276, Note_on_c, 0, 94, 0
1, 134280, Note_on_c, 0, 95, 80
1, 134336, Note_on_c, 0, 95, 0
1, 134340, Note_on_c, 0, 94, 80
1, 134396, Note_on_c, 0, 94, 0
1, 134400, Note_on_c, 0, 75, 80
1, 134456, Note_on_c, 0, 75, 0
1, 134460, Note_on_c, 0, 87, 80
1, 134516, Note_on_c, 0, 87, 0
1, 134520, Note_on_c, 0, 88, 80
1, 134576, Note_on_c, 0, 88, 0
1, 134580, Note_on_c, 0, 87, 80
1, 134636, Note_on_c, 0, 87, 0
1, 134640, Note_on_c, 0, 75, 80
1, 134696, Note_on_c, 0, 75, 0
1, 134700, Note_on_c, 0, 87, 80
1, 134756, Note_on_c, 0, 87, 0
1, 134760, Note_on_c, 0, 88, 80
1, 134816, Note_on_c, 0, 88, 0
1, 134820, Note_on_c, 0, 87, 80
1, 134876, Note_on_c, 0, 87, 0
1, 134880, Note_on_c, 0, 76, 80
1, 134936, Note_on_c, 0, 76, 0
1, 134940, Note_on_c, 0, 88, 80
1, 134996, Note_on_c, 0, 88, 0
1, 135000, Note_on_c, 0, 90, 80
1, 135056, Note_on_c, 0, 90, 0
1, 135060, Note_on_c, 0, 88, 80
1, 135116, Note_on_c, 0, 88, 0
1, 135120, Note_on_c, 0, 75, 80
1, 135176, Note_on_c, 0, 75, 0
1, 135180, Note_on_c, 0, 87, 80
1, 135236, Note_on_c, 0, 87, 0
1, 135240, Note_on_c, 0, 88, 80
1, 135296, Note_on_c, 0, 88, 0
1, 135300, Note_on_c, 0, 87, 80
1, 135356, Note_on_c, 0, 87, 0
1, 135360, Note_on_c, 0, 73, 80
1, 135416, Note_on_c, 0, 73, 0
1, 135420, Note_on_c, 0, 85, 80
1, 135476, Note_on_c, 0, 85, 0
1, 135480, Note_on_c, 0, 87, 80
1, 135536, Note_on_c, 0, 87, 0
1, 135540, Note_on_c, 0, 85, 80
1, 135596, Note_on_c, 0, 85, 0
1, 135600, Note_on_c, 0, 71, 80
1, 135656, Note_on_c, 0, 71, 0
1, 135660, Note_on_c, 0, 83, 80
1, 135716, Note_on_c, 0, 83, 0
1, 135720, Note_on_c, 0, 85, 80
1, 135776, Note_on_c, 0, 85, 0
1, 135780, Note_on_c, 0, 83, 80
1, 135836, Note_on_c, 0, 83, 0
1, 135840, Note_on_c, 0, 71, 80
1, 135896, Note_on_c, 0, 71, 0
1, 135900, Note_on_c, 0, 83, 80
1, 135956, Note_on_c, 0, 83, 0
1, 135960, Note_on_c, 0, 85, 80
1, 136016, Note_on_c, 0, 85, 0
1, 136020, Note_on_c, 0, 83, 80
1, 136076, Note_on_c, 0, 83, 0
1, 136080, Note_on_c, 0, 70, 80
1, 136136, Note_on_c, 0, 70, 0
1, 136140, Note_on_c, 0, 82, 80
1, 136196, Note_on_c, 0, 82, 0
1, 136200, Note_on_c, 0, 83, 80
1, 136256, Note_on_c, 0, 83, 0
1, 136260, Note_on_c, 0, 82, 80
1, 136316, Note_on_c, 0, 82, 0
1, 136320, Note_on_c, 0, 68, 80
1, 136376, Note_on_c, 0, 68, 0
1, 136380, Note_on_c, 0, 80, 80
1, 136436, Note_on_c, 0, 80, 0
1, 136440, Note_on_c, 0, 82, 80
1, 136496, Note_on_c, 0, 82, 0
1, 136500, Note_on_c, 0, 80, 80
1, 136556, Note_on_c, 0, 80, 0
1, 136560, Note_on_c, 0, 67, 80
1, 136616, Note_on_c, 0, 67, 0
1, 136620, Note_on_c, 0, 79, 80
1, 136676, Note_on_c, 0, 79, 0
1, 136680, Note_on_c, 0, 80, 80
1, 136736, Note_on_c, 0, 80, 0
1, 136740, Note_on_c, 0, 79, 80
1, 136796, Note_on_c, 0, 79, 0
1, 136800, Note_on_c, 0, 68, 80
1, 136856, Note_on_c, 0, 68, 0
1, 136860, Note_on_c, 0, 80, 80
1, 136916, Note_on_c, 0, 80, 0
1, 136920, Note_on_c, 0, 82, 80
1, 136976, Note_on_c, 0, 82, 0
1, 136980, Note_on_c, 0, 80, 80
1, 137036, Note_on_c, 0, 80, 0
1, 137040, Note_on_c, 0, 70, 80
1, 137096, Note_on_c, 0, 70, 0
1, 137100, Note_on_c, 0, 82, 80
1, 137156, Note_on_c, 0, 82, 0
1, 137160, Note_on_c, 0, 83, 80
1, 137216, Note_on_c, 0, 83, 0
1, 137220, Note_on_c, 0, 82, 80
1, 137276, Note_on_c, 0, 82, 0
1, 137280, Note_on_c, 0, 63, 80
1, 137336, Note_on_c, 0, 63, 0
1, 137340, Note_on_c, 0, 75, 80
1, 137396, Note_on_c, 0, 75, 0
1, 137400, Note_on_c, 0, 76, 80
1, 137456, Note_on_c, 0, 76, 0
1, 137460, Note_on_c, 0, 75, 80
1, 137516, Note_on_c, 0, 75, 0
1, 137520, Note_on_c, 0, 75, 80
1, 137576, Note_on_c, 0, 75, 0
1, 137580, Note_on_c, 0, 87, 80
1, 137636, Note_on_c, 0, 87, 0
1, 137640, Note_on_c, 0, 88, 80
1, 137696, Note_on_c, 0, 88, 0
1, 137700, Note_on_c, 0, 87, 80
1, 137756, Note_on_c, 0, 87, 0
1, 137760, Note_on_c, 0, 87, 80
1, 137816, Note_on_c, 0, 87, 0
1, 137820, Note_on_c, 0, 99, 80
1, 137876, Note_on_c, 0, 99, 0
1, 137880, Note_on_c, 0, 100, 80
1, 137936, Note_on_c, 0, 100, 0
1, 137940, Note_on_c, 0, 99, 80
1, 137996, Note_on_c, 0, 99, 0
1, 138000, Note_on_c, 0, 87, 80
1, 138056, Note_on_c, 0, 87, 0
1, 138060, Note_on_c, 0, 99, 80
1, 138116, Note_on_c, 0, 99, 0
1, 138120, Note_on_c, 0, 100, 80
1, 138176, Note_on_c, 0, 100, 0
1, 138180, Note_on_c, 0, 99, 80
1, 138236, Note_on_c, 0, 99, 0
1, 138240, Note_on_c, 0, 85, 80
1, 138296, Note_on_c, 0, 85, 0
1, 138300, Note_on_c, 0, 97, 80
1, 138356, Note_on_c, 0, 97, 0
1, 138360, Note_on_c, 0, 99, 80
1, 138416, Note_on_c, 0, 99, 0
1, 138420, Note_on_c, 0, 97, 80
1, 138476, Note_on_c, 0, 97, 0
1, 138480, Note_on_c, 0, 84, 80
1, 138536, Note_on_c, 0, 84, 0
1, 138540, Note_on_c, 0, 96, 80
1, 138596, Note_on_c, 0, 96, 0
1, 138600, Note_on_c, 0, 97, 80
1, 138656, Note_on_c, 0, 97, 0
1, 138660, Note_on_c, 0, 96, 80
1, 138716, Note_on_c, 0, 96, 0
1, 138720, Note_on_c, 0, 84, 80
1, 138776, Note_on_c, 0, 84, 0
1, 138780, Note_on_c, 0, 96, 80
1, 138836, Note_on_c, 0, 96, 0
1, 138840, Note_on_c, 0, 97, 80
1, 138896, Note_on_c, 0, 97, 0
1, 138900, Note_on_c, 0, 96, 80
1, 138956, Note_on_c, 0, 96, 0
1, 138960, Note_on_c, 0, 81, 80
1, 139016, Note_on_c, 0, 81, 0
1, 139020, Note_on_c, 0, 93, 80
1, 139076, Note_on_c, 0, 93, 0
1, 139080, Note_on_c, 0, 95, 80
1, 139136, Note_on_c, 0, 95, 0
1, 139140, Note_on_c, 0, 93, 80
1, 139196, Note_on_c, 0, 93, 0
1, 139200, Note_on_c, 0, 80, 80
1, 139256, Note_on_c, 0, 80, 0
1, 139260, Note_on_c, 0, 92, 80
1, 139316, Note_on_c, 0, 92, 0
1, 139320, Note_on_c, 0, 93, 80
1, 139376, Note_on_c, 0, 93, 0
1, 139380, Note_on_c, 0, 92, 80
1, 139436, Note_on_c, 0, 92, 0
1, 139440, Note_on_c, 0, 80, 80
1, 139496, Note_on_c, 0, 80, 0
1, 139500, Note_on_c, 0, 92, 80
1, 139556, Note_on_c, 0, 92, 0
1, 139560, Note_on_c, 0, 93, 80
1, 139616, Note_on_c, 0, 93, 0
1, 139620, Note_on_c, 0, 92, 80
1, 139676, Note_on_c, 0, 92, 0
1, 139680, Note_on_c, 0, 78, 80
1, 139736, Note_on_c, 0, 78, 0
1, 139740, Note_on_c, 0, 90, 80
1, 139796, Note_on_c, 0, 90, 0
1, 139800, Note_on_c, 0, 92, 80
1, 139856, Note_on_c, 0, 92, 0
1, 139860, Note_on_c, 0, 90, 80
1, 139916, Note_on_c, 0, 90, 0
1, 139920, Note_on_c, 0, 76, 80
1, 139976, Note_on_c, 0, 76, 0
1, 139980, Note_on_c, 0, 88, 80
1, 140036, Note_on_c, 0, 88, 0
1, 140040, Note_on_c, 0, 90, 80
1, 140096, Note_on_c, 0, 90, 0
1, 140100, Note_on_c, 0, 88, 80
1, 140156, Note_on_c, 0, 88, 0
1, 140160, Note_on_c, 0, 73, 80
1, 140216, Note_on_c, 0, 73, 0
1, 140220, Note_on_c, 0, 85, 80
1, 140276, Note_on_c, 0, 85, 0
1, 140280, Note_on_c, 0, 87, 80
1, 140336, Note_on_c, 0, 87, 0
1, 140340, Note_on_c, 0, 85, 80
1, 140396, Note_on_c, 0, 85, 0
1, 140400, Note_on_c, 0, 75, 80
1, 140456, Note_on_c, 0, 75, 0
1, 140460, Note_on_c, 0, 87, 80
1, 140516, Note_on_c, 0, 87, 0
1, 140520, Note_on_c, 0, 88, 80
1, 140576, Note_on_c, 0, 88, 0
1, 140580, Note_on_c, 0, 87, 80
1, 140636, Note_on_c, 0, 87, 0
1, 140640, Note_on_c, 0, 76, 80
1, 140696, Note_on_c, 0, 76, 0
1, 140700, Note_on_c, 0, 88, 80
1, 140756, Note_on_c, 0, 88, 0
1, 140760, Note_on_c, 0, 90, 80
1, 140816, Note_on_c, 0, 90, 0
1, 140820, Note_on_c, 0, 88, 80
1, 140876, Note_on_c, 0, 88, 0
1, 140880, Note_on_c, 0, 75, 80
1, 140936, Note_on_c, 0, 75, 0
1, 140940, Note_on_c, 0, 87, 80
1, 140996, Note_on_c, 0, 87, 0
1, 141000, Note_on_c, 0, 88, 80
1, 141056, Note_on_c, 0, 88, 0
1, 141060, Note_on_c, 0, 87, 80
1, 141116, Note_on_c, 0, 87, 0
1, 141120, Note_on_c, 0, 73, 80
1, 141176, Note_on_c, 0, 73, 0
1, 141180, Note_on_c, 0, 85, 80
1, 141236, Note_on_c, 0, 85, 0
1, 141240, Note_on_c, 0, 87, 80
1, 141296, Note_on_c, 0, 87, 0
1, 141300, Note_on_c, 0, 85, 80
1, 141356, Note_on_c, 0, 85, 0
1, 141360, Note_on_c, 0, 75, 80
1, 141416, Note_on_c, 0, 75, 0
1, 141420, Note_on_c, 0, 87, 80
1, 141476, Note_on_c, 0, 87, 0
1, 141480, Note_on_c, 0, 76, 80
1, 141536, Note_on_c, 0, 76, 0
1, 141540, Note_on_c, 0, 77, 80
1, 141596, Note_on_c, 0, 77, 0
1, 141600, Note_on_c, 0, 78, 80
1, 141656, Note_on_c, 0, 78, 0
1, 141660, Note_on_c, 0, 79, 80
1, 141716, Note_on_c, 0, 79, 0
1, 141720, Note_on_c, 0, 80, 80
1, 141776, Note_on_c, 0, 80, 0
1, 141780, Note_on_c, 0, 81, 80
1, 141836, Note_on_c, 0, 81, 0
1, 141840, Note_on_c, 0, 82, 80
1, 141896, Note_on_c, 0, 82, 0
1, 141900, Note_on_c, 0, 83, 80
1, 141956, Note_on_c, 0, 83, 0
1, 141960, Note_on_c, 0, 84, 80
1, 142016, Note_on_c, 0, 84, 0
1, 142020, Note_on_c, 0, 85, 80
1, 142076, Note_on_c, 0, 85, 0
1, 142080, Note_on_c, 0, 86, 80
1, 142136, Note_on_c, 0, 86, 0
1, 142140, Note_on_c, 0, 87, 80
1, 142196, Note_on_c, 0, 87, 0
1, 142200, Note_on_c, 0, 88, 80
1, 142256, Note_on_c, 0, 88, 0
1, 142260, Note_on_c, 0, 89, 80
1, 142316, Note_on_c, 0, 89, 0
1, 142320, Note_on_c, 0, 90, 80
1, 142376, Note_on_c, 0, 90, 0
1, 142380, Note_on_c, 0, 91, 80
1, 142436, Note_on_c, 0, 91, 0
1, 142440, Note_on_c, 0, 92, 80
1, 142496, Note_on_c, 0, 92, 0
1, 142500, Note_on_c, 0, 93, 80
1, 142556, Note_on_c, 0, 93, 0
1, 142560, Note_on_c, 0, 94, 80
1, 142616, Note_on_c, 0, 94, 0
1, 142620, Note_on_c, 0, 95, 80
1, 142676, Note_on_c, 0, 95, 0
1, 142680, Note_on_c, 0, 96, 80
1, 142736, Note_on_c, 0, 96, 0
1, 142740, Note_on_c, 0, 97, 80
1, 142796, Note_on_c, 0, 97, 0
1, 142800, Note_on_c, 0, 98, 80
1, 142860, Note_on_c, 0, 98, 0
1, 142865, Note_on_c, 0, 99, 80
1, 142925, Note_on_c, 0, 99, 0
1, 142930, Note_on_c, 0, 102, 80
1, 142990, Note_on_c, 0, 102, 0
1, 142995, Note_on_c, 0, 100, 80
1, 143055, Note_on_c, 0, 100, 0
1, 143060, Note_on_c, 0, 97, 80
1, 143120, Note_on_c, 0, 97, 0
1, 143125, Note_on_c, 0, 94, 80
1, 143185, Note_on_c, 0, 94, 0
1, 143190, Note_on_c, 0, 91, 80
1, 143250, Note_on_c, 0, 91, 0
1, 143255, Note_on_c, 0, 86, 80
1, 143315, Note_on_c, 0, 86, 0
1, 143320, Note_on_c, 0, 87, 80
1, 143380, Note_on_c, 0, 87, 0
1, 143385, Note_on_c, 0, 90, 80
1, 143445, Note_on_c, 0, 90, 0
1, 143450, Note_on_c, 0, 88, 80
1, 143510, Note_on_c, 0, 88, 0
1, 143520, Note_on_c, 0, 85, 80
1, 143580, Note_on_c, 0, 85, 0
1, 143585, Note_on_c, 0, 82, 78
1, 143645, Note_on_c, 0, 82, 0
1, 143650, Note_on_c, 0, 79, 75
1, 143710, Note_on_c, 0, 79, 0
1, 143715, Note_on_c, 0, 76, 72
1, 143775, Note_on_c, 0, 76, 0
1, 143780, Note_on_c, 0, 73, 69
1, 143840, Note_on_c, 0, 73, 0
1, 143845, Note_on_c, 0, 70, 67
1, 143905, Note_on_c, 0, 70, 0
1, 143910, Note_on_c, 0, 67, 64
1, 143970, Note_on_c, 0, 67, 0
1, 143975, Note_on_c, 0, 64, 61
1, 144035, Note_on_c, 0, 64, 0
1, 144040, Note_on_c, 0, 61, 58
1, 144100, Note_on_c, 0, 61, 0
1, 144105, Note_on_c, 0, 58, 55
1, 144165, Note_on_c, 0, 58, 0
1, 144170, Note_on_c, 0, 55, 53
1, 144230, Note_on_c, 0, 55, 0
1, 144240, Time_signature, 9, 3, 24, 8
1, 144480, Note_on_c, 0, 59, 49
1, 144555, Note_on_c, 0, 59, 0
1, 144560, Note_on_c, 0, 63, 49
1, 144635, Note_on_c, 0, 63, 0
1, 144640, Note_on_c, 0, 68, 49
1, 144715, Note_on_c, 0, 68, 0
1, 144960, Note_on_c, 0, 71, 49
1, 145035, Note_on_c, 0, 71, 0
1, 145040, Note_on_c, 0, 75, 49
1, 145115, Note_on_c, 0, 75, 0
1, 145120, Note_on_c, 0, 83, 49
1, 145195, Note_on_c, 0, 83, 0
1, 145200, Note_on_c, 0, 80, 49
1, 145427, Note_on_c, 0, 80, 0
1, 145800, Note_on_c, 0, 71, 64
1, 145800, Note_on_c, 0, 83, 64
1, 145913, Note_on_c, 0, 71, 0
1, 145913, Note_on_c, 0, 83, 0
1, 145920, Note_on_c, 0, 71, 70
1, 145920, Note_on_c, 0, 83, 70
1, 146033, Note_on_c, 0, 71, 0
1, 146033, Note_on_c, 0, 83, 0
1, 146040, Note_on_c, 0, 71, 76
1, 146040, Note_on_c, 0, 83, 76
1, 146153, Note_on_c, 0, 71, 0
1, 146153, Note_on_c, 0, 83, 0
1, 146160, Note_on_c, 0, 71, 83
1, 146160, Note_on_c, 0, 83, 83
1, 146273, Note_on_c, 0, 71, 0
1, 146273, Note_on_c, 0, 83, 0
1, 146280, Note_on_c, 0, 71, 89
1, 146280, Note_on_c, 0, 83, 89
1, 146393, Note_on_c, 0, 71, 0
1, 146393, Note_on_c, 0, 83, 0
1, 146400, Time_signature, 6, 3, 24, 8
1, 146400, Tempo, 500000
1, 146400, Note_on_c, 0, 83, 96
1, 146459, Note_on_c, 0, 83, 0
1, 146520, Note_on_c, 0, 66, 96
1, 146579, Note_on_c, 0, 66, 0
1, 146640, Note_on_c, 0, 71, 96
1, 146640, Note_on_c, 0, 78, 96
1, 146699, Note_on_c, 0, 71, 0
1, 146699, Note_on_c, 0, 78, 0
1, 146760, Note_on_c, 0, 66, 96
1, 146819, Note_on_c, 0, 66, 0
1, 146880, Note_on_c, 0, 83, 96
1, 146939, Note_on_c, 0, 83, 0
1, 147000, Note_on_c, 0, 66, 96
1, 147059, Note_on_c, 0, 66, 0
1, 147120, Note_on_c, 0, 85, 96
1, 147179, Note_on_c, 0, 85, 0
1, 147240, Note_on_c, 0, 66, 96
1, 147299, Note_on_c, 0, 66, 0
1, 147360, Note_on_c, 0, 73, 96
1, 147360, Note_on_c, 0, 78, 96
1, 147419, Note_on_c, 0, 73, 0
1, 147419, Note_on_c, 0, 78, 0
1, 147480, Note_on_c, 0, 66, 96
1, 147539, Note_on_c, 0, 66, 0
1, 147600, Note_on_c, 0, 85, 96
1, 147659, Note_on_c, 0, 85, 0
1, 147720, Note_on_c, 0, 66, 96
1, 147779, Note_on_c, 0, 66, 0
1, 147840, Note_on_c, 0, 87, 96
1, 147953, Note_on_c, 0, 87, 0
1, 147960, Note_on_c, 0, 66, 96
1, 148073, Note_on_c, 0, 66, 0
1, 148080, Note_on_c, 0, 75, 96
1, 148193, Note_on_c, 0, 75, 0
1, 148200, Note_on_c, 0, 83, 96
1, 148313, Note_on_c, 0, 83, 0
1, 148320, Note_on_c, 0, 87, 96
1, 148433, Note_on_c, 0, 87, 0
1, 148440, Note_on_c, 0, 95, 96
1, 148553, Note_on_c, 0, 95, 0
1, 148680, Note_on_c, 0, 75, 96
1, 148680, Note_on_c, 0, 87, 96
1, 148793, Note_on_c, 0, 75, 0
1, 148793, Note_on_c, 0, 87, 0
1, 148800, Note_on_c, 0, 75, 96
1, 148800, Note_on_c, 0, 87, 96
1, 148913, Note_on_c, 0, 75, 0
1, 148913, Note_on_c, 0, 87, 0
1, 148920, Note_on_c, 0, 75, 96
1, 148920, Note_on_c, 0, 87, 96
1, 149033, Note_on_c, 0, 75, 0
1, 149033, Note_on_c, 0, 87, 0
1, 149040, Note_on_c, 0, 75, 96
1, 149040, Note_on_c, 0, 87, 96
1, 149153, Note_on_c, 0, 75, 0
1, 149153, Note_on_c, 0, 87, 0
1, 149160, Note_on_c, 0, 75, 96
1, 149160, Note_on_c, 0, 87, 96
1, 149273, Note_on_c, 0, 75, 0
1, 149273, Note_on_c, 0, 87, 0
1, 149280, Note_on_c, 0, 87, 96
1, 149339, Note_on_c, 0, 87, 0
1, 149400, Note_on_c, 0, 70, 96
1, 149459, Note_on_c, 0, 70, 0
1, 149520, Note_on_c, 0, 75, 96
1, 149520, Note_on_c, 0, 82, 96
1, 149579, Note_on_c, 0, 75, 0
1, 149579, Note_on_c, 0, 82, 0
1, 149640, Note_on_c, 0, 70, 96
1, 149699, Note_on_c, 0, 70, 0
1, 149760, Note_on_c, 0, 87, 96
1, 149819, Note_on_c, 0, 87, 0
1, 149880, Note_on_c, 0, 70, 96
1, 149939, Note_on_c, 0, 70, 0
1, 150000, Note_on_c, 0, 89, 96
1, 150059, Note_on_c, 0, 89, 0
1, 150120, Note_on_c, 0, 70, 96
1, 150179, Note_on_c, 0, 70, 0
1, 150240, Note_on_c, 0, 77, 96
1, 150240, Note_on_c, 0, 82, 96
1, 150299, Note_on_c, 0, 77, 0
1, 150299, Note_on_c, 0, 82, 0
1, 150360, Note_on_c, 0, 70, 96
1, 150419, Note_on_c, 0, 70, 0
1, 150480, Note_on_c, 0, 89, 96
1, 150539, Note_on_c, 0, 89, 0
1, 150600, Note_on_c, 0, 70, 96
1, 150659, Note_on_c, 0, 70, 0
1, 150720, Note_on_c, 0, 90, 96
1, 150833, Note_on_c, 0, 90, 0
1, 150840, Note_on_c, 0, 70, 96
1, 150953, Note_on_c, 0, 70, 0
1, 150960, Note_on_c, 0, 78, 96
1, 151073, Note_on_c, 0, 78, 0
1, 151080, Note_on_c, 0, 87, 96
1, 151193, Note_on_c, 0, 87, 0
1, 151200, Note_on_c, 0, 90, 96
1, 151313, Note_on_c, 0, 90, 0
1, 151320, Note_on_c, 0, 99, 96
1, 151433, Note_on_c, 0, 99, 0
1, 151560, Note_on_c, 0, 78, 96
1, 151560, Note_on_c, 0, 90, 96
1, 151673, Note_on_c, 0, 78, 0
1, 151673, Note_on_c, 0, 90, 0
1, 151680, Note_on_c, 0, 78, 96
1, 151680, Note_on_c, 0, 90, 96
1, 151793, Note_on_c, 0, 78, 0
1, 151793, Note_on_c, 0, 90, 0
1, 151800, Note_on_c, 0, 78, 96
1, 151800, Note_on_c, 0, 90, 96
1, 151913, Note_on_c, 0, 78, 0
1, 151913, Note_on_c, 0, 90, 0
1, 151920, Note_on_c, 0, 78, 96
1, 151920, Note_on_c, 0, 90, 96
1, 152033, Note_on_c, 0, 78, 0
1, 152033, Note_on_c, 0, 90, 0
1, 152040, Note_on_c, 0, 78, 96
1, 152040, Note_on_c, 0, 90, 96
1, 152153, Note_on_c, 0, 78, 0
1, 152153, Note_on_c, 0, 90, 0
1, 152160, Note_on_c, 0, 90, 96
1, 152273, Note_on_c, 0, 90, 0
1, 152280, Note_on_c, 0, 73, 96
1, 152393, Note_on_c, 0, 73, 0
1, 152400, Note_on_c, 0, 78, 96
1, 152400, Note_on_c, 0, 85, 96
1, 152513, Note_on_c, 0, 78, 0
1, 152513, Note_on_c, 0, 85, 0
1, 152520, Note_on_c, 0, 73, 96
1, 152633, Note_on_c, 0, 73, 0
1, 152640, Note_on_c, 0, 90, 96
1, 152753, Note_on_c, 0, 90, 0
1, 152760, Note_on_c, 0, 73, 96
1, 152873, Note_on_c, 0, 73, 0
1, 152880, Note_on_c, 0, 92, 96
1, 152993, Note_on_c, 0, 92, 0
1, 153000, Note_on_c, 0, 73, 96
1, 153113, Note_on_c, 0, 73, 0
1, 153120, Note_on_c, 0, 80, 96
1, 153120, Note_on_c, 0, 85, 96
1, 153233, Note_on_c, 0, 80, 0
1, 153233, Note_on_c, 0, 85, 0
1, 153240, Note_on_c, 0, 73, 96
1, 153353, Note_on_c, 0, 73, 0
1, 153360, Note_on_c, 0, 92, 96
1, 153473, Note_on_c, 0, 92, 0
1, 153480, Note_on_c, 0, 73, 96
1, 153593, Note_on_c, 0, 73, 0
1, 153600, Note_on_c, 0, 85, 96
1, 153600, Note_on_c, 0, 90, 96
1, 153600, Note_on_c, 0, 94, 96
1, 153713, Note_on_c, 0, 85, 0
1, 153713, Note_on_c, 0, 90, 0
1, 153713, Note_on_c, 0, 94, 0
1, 153720, Note_on_c, 0, 85, 96
1, 153720, Note_on_c, 0, 92, 96
1, 153720, Note_on_c, 0, 95, 96
1, 153833, Note_on_c, 0, 85, 0
1, 153833, Note_on_c, 0, 92, 0
1, 153833, Note_on_c, 0, 95, 0
1, 153840, Note_on_c, 0, 85, 96
1, 153840, Note_on_c, 0, 94, 96
1, 153840, Note_on_c, 0, 97, 96
1, 153953, Note_on_c, 0, 85, 0
1, 153953, Note_on_c, 0, 94, 0
1, 153953, Note_on_c, 0, 97, 0
1, 153960, Note_on_c, 0, 85, 96
1, 153960, Note_on_c, 0, 94, 96
1, 153960, Note_on_c, 0, 97, 96
1, 154073, Note_on_c, 0, 85, 0
1, 154073, Note_on_c, 0, 94, 0
1, 154073, Note_on_c, 0, 97, 0
1, 154080, Note_on_c, 0, 85, 96
1, 154080, Note_on_c, 0, 92, 96
1, 154080, Note_on_c, 0, 95, 96
1, 154193, Note_on_c, 0, 85, 0
1, 154193, Note_on_c, 0, 92, 0
1, 154193, Note_on_c, 0, 95, 0
1, 154200, Note_on_c, 0, 85, 96
1, 154200, Note_on_c, 0, 90, 96
1, 154200, Note_on_c, 0, 94, 96
1, 154313, Note_on_c, 0, 85, 0
1, 154313, Note_on_c, 0, 90, 0
1, 154313, Note_on_c, 0, 94, 0
1, 154320, Note_on_c, 0, 83, 96
1, 154320, Note_on_c, 0, 87, 96
1, 154320, Note_on_c, 0, 92, 96
1, 154433, Note_on_c, 0, 83, 0
1, 154433, Note_on_c, 0, 87, 0
1, 154433, Note_on_c, 0, 92, 0
1, 154440, Note_on_c, 0, 87, 96
1, 154440, Note_on_c, 0, 94, 96
1, 154553, Note_on_c, 0, 87, 0
1, 154553, Note_on_c, 0, 94, 0
1, 154560, Note_on_c, 0, 87, 96
1, 154560, Note_on_c, 0, 95, 96
1, 154673, Note_on_c, 0, 87, 0
1, 154673, Note_on_c, 0, 95, 0
1, 154680, Note_on_c, 0, 87, 96
1, 154680, Note_on_c, 0, 95, 96
1, 154793, Note_on_c, 0, 87, 0
1, 154793, Note_on_c, 0, 95, 0
1, 154800, Note_on_c, 0, 87, 96
1, 154800, Note_on_c, 0, 94, 96
1, 154913, Note_on_c, 0, 87, 0
1, 154913, Note_on_c, 0, 94, 0
1, 154920, Note_on_c, 0, 87, 96
1, 154920, Note_on_c, 0, 92, 96
1, 155033, Note_on_c, 0, 87, 0
1, 155033, Note_on_c, 0, 92, 0
1, 155040, Note_on_c, 0, 82, 96
1, 155040, Note_on_c, 0, 85, 96
1, 155040, Note_on_c, 0, 90, 96
1, 155153, Note_on_c, 0, 82, 0
1, 155153, Note_on_c, 0, 85, 0
1, 155153, Note_on_c, 0, 90, 0
1, 155160, Note_on_c, 0, 83, 96
1, 155160, Note_on_c, 0, 85, 96
1, 155160, Note_on_c, 0, 92, 96
1, 155273, Note_on_c, 0, 83, 0
1, 155273, Note_on_c, 0, 85, 0
1, 155273, Note_on_c, 0, 92, 0
1, 155280, Note_on_c, 0, 85, 96
1, 155280, Note_on_c, 0, 94, 96
1, 155393, Note_on_c, 0, 85, 0
1, 155393, Note_on_c, 0, 94, 0
1, 155400, Note_on_c, 0, 85, 96
1, 155400, Note_on_c, 0, 94, 96
1, 155513, Note_on_c, 0, 85, 0
1, 155513, Note_on_c, 0, 94, 0
1, 155520, Note_on_c, 0, 83, 96
1, 155520, Note_on_c, 0, 85, 96
1, 155520, Note_on_c, 0, 92, 96
1, 155633, Note_on_c, 0, 83, 0
1, 155633, Note_on_c, 0, 85, 0
1, 155633, Note_on_c, 0, 92, 0
1, 155640, Note_on_c, 0, 82, 96
1, 155640, Note_on_c, 0, 85, 96
1, 155640, Note_on_c, 0, 90, 96
1, 155753, Note_on_c, 0, 82, 0
1, 155753, Note_on_c, 0, 85, 0
1, 155753, Note_on_c, 0, 90, 0
1, 155760, Note_on_c, 0, 80, 96
1, 155760, Note_on_c, 0, 85, 96
1, 155760, Note_on_c, 0, 89, 96
1, 155873, Note_on_c, 0, 80, 0
1, 155873, Note_on_c, 0, 85, 0
1, 155873, Note_on_c, 0, 89, 0
1, 155880, Note_on_c, 0, 82, 96
1, 155880, Note_on_c, 0, 85, 96
1, 155880, Note_on_c, 0, 90, 96
1, 155993, Note_on_c, 0, 82, 0
1, 155993, Note_on_c, 0, 85, 0
1, 155993, Note_on_c, 0, 90, 0
1, 156000, Note_on_c, 0, 83, 96
1, 156000, Note_on_c, 0, 85, 96
1, 156000, Note_on_c, 0, 92, 96
1, 156113, Note_on_c, 0, 83, 0
1, 156113, Note_on_c, 0, 85, 0
1, 156113, Note_on_c, 0, 92, 0
1, 156120, Note_on_c, 0, 83, 96
1, 156120, Note_on_c, 0, 85, 96
1, 156120, Note_on_c, 0, 92, 96
1, 156233, Note_on_c, 0, 83, 0
1, 156233, Note_on_c, 0, 85, 0
1, 156233, Note_on_c, 0, 92, 0
1, 156240, Note_on_c, 0, 78, 96
1, 156240, Note_on_c, 0, 85, 96
1, 156240, Note_on_c, 0, 87, 96
1, 156353, Note_on_c, 0, 78, 0
1, 156353, Note_on_c, 0, 85, 0
1, 156353, Note_on_c, 0, 87, 0
1, 156360, Note_on_c, 0, 80, 96
1, 156360, Note_on_c, 0, 85, 96
1, 156360, Note_on_c, 0, 89, 96
1, 156473, Note_on_c, 0, 80, 0
1, 156473, Note_on_c, 0, 85, 0
1, 156473, Note_on_c, 0, 89, 0
1, 156480, Note_on_c, 0, 78, 96
1, 156480, Note_on_c, 0, 85, 96
1, 156480, Note_on_c, 0, 90, 96
1, 156707, Note_on_c, 0, 78, 0
1, 156707, Note_on_c, 0, 85, 0
1, 156707, Note_on_c, 0, 90, 0
1, 157440, Note_on_c, 0, 56, 96
1, 157440, Note_on_c, 0, 68, 96
1, 157553, Note_on_c, 0, 56, 0
1, 157553, Note_on_c, 0, 68, 0
1, 157560, Note_on_c, 0, 56, 96
1, 157560, Note_on_c, 0, 68, 96
1, 157673, Note_on_c, 0, 56, 0
1, 157673, Note_on_c, 0, 68, 0
1, 157920, Note_on_c, 0, 80, 96
1, 157920, Note_on_c, 0, 92, 96
1, 158147, Note_on_c, 0, 80, 0
1, 158147, Note_on_c, 0, 92, 0
1, 158160, Note_on_c, 0, 90, 80
1, 158160, Note_on_c, 0, 102, 80
1, 158273, Note_on_c, 0, 90, 0
1, 158273, Note_on_c, 0, 102, 0
1, 158280, Note_on_c, 0, 90, 80
1, 158280, Note_on_c, 0, 102, 80
1, 158393, Note_on_c, 0, 90, 0
1, 158393, Note_on_c, 0, 102, 0
1, 158400, Note_on_c, 0, 88, 80
1, 158400, Note_on_c, 0, 100, 80
1, 158513, Note_on_c, 0, 88, 0
1, 158513, Note_on_c, 0, 100, 0
1, 158520, Note_on_c, 0, 88, 80
1, 158520, Note_on_c, 0, 100, 80
1, 158633, Note_on_c, 0, 88, 0
1, 158633, Note_on_c, 0, 100, 0
1, 158640, Note_on_c, 0, 87, 80
1, 158640, Note_on_c, 0, 99, 80
1, 158753, Note_on_c, 0, 87, 0
1, 158753, Note_on_c, 0, 99, 0
1, 158760, Note_on_c, 0, 87, 80
1, 158760, Note_on_c, 0, 99, 80
1, 158873, Note_on_c, 0, 87, 0
1, 158873, Note_on_c, 0, 99, 0
1, 158880, Note_on_c, 0, 85, 80
1, 158880, Note_on_c, 0, 97, 80
1, 158993, Note_on_c, 0, 85, 0
1, 158993, Note_on_c, 0, 97, 0
1, 159000, Note_on_c, 0, 85, 80
1, 159000, Note_on_c, 0, 97, 80
1, 159113, Note_on_c, 0, 85, 0
1, 159113, Note_on_c, 0, 97, 0
1, 159120, Note_on_c, 0, 87, 80
1, 159120, Note_on_c, 0, 99, 80
1, 159233, Note_on_c, 0, 87, 0
1, 159233, Note_on_c, 0, 99, 0
1, 159240, Note_on_c, 0, 87, 80
1, 159240, Note_on_c, 0, 99, 80
1, 159353, Note_on_c, 0, 87, 0
1, 159353, Note_on_c, 0, 99, 0
1, 159360, Note_on_c, 0, 88, 80
1, 159360, Note_on_c, 0, 100, 80
1, 159587, Note_on_c, 0, 88, 0
1, 159587, Note_on_c, 0, 100, 0
1, 160320, Note_on_c, 0, 54, 96
1, 160320, Note_on_c, 0, 66, 96
1, 160433, Note_on_c, 0, 54, 0
1, 160433, Note_on_c, 0, 66, 0
1, 160440, Note_on_c, 0, 54, 96
1, 160440, Note_on_c, 0, 66, 96
1, 160553, Note_on_c, 0, 54, 0
1, 160553, Note_on_c, 0, 66, 0
1, 160800, Note_on_c, 0, 78, 96
1, 160800, Note_on_c, 0, 90, 96
1, 161027, Note_on_c, 0, 78, 0
1, 161027, Note_on_c, 0, 90, 0
1, 161040, Note_on_c, 0, 88, 80
1, 161040, Note_on_c, 0, 100, 80
1, 161153, Note_on_c, 0, 88, 0
1, 161153, Note_on_c, 0, 100, 0
1, 161160, Note_on_c, 0, 88, 80
1, 161160, Note_on_c, 0, 100, 80
1, 161273, Note_on_c, 0, 88, 0
1, 161273, Note_on_c, 0, 100, 0
1, 161280, Note_on_c, 0, 87, 80
1, 161280, Note_on_c, 0, 99, 80
1, 161393, Note_on_c, 0, 87, 0
1, 161393, Note_on_c, 0, 99, 0
1, 161400, Note_on_c, 0, 87, 80
1, 161400, Note_on_c, 0, 99, 80
1, 161513, Note_on_c, 0, 87, 0
1, 161513, Note_on_c, 0, 99, 0
1, 161520, Note_on_c, 0, 85, 80
1, 161520, Note_on_c, 0, 97, 80
1, 161633, Note_on_c, 0, 85, 0
1, 161633, Note_on_c, 0, 97, 0
1, 161640, Note_on_c, 0, 85, 80
1, 161640, Note_on_c, 0, 97, 80
1, 161753, Note_on_c, 0, 85, 0
1, 161753, Note_on_c, 0, 97, 0
1, 161760, Note_on_c, 0, 83, 80
1, 161760, Note_on_c, 0, 95, 80
1, 161873, Note_on_c, 0, 83, 0
1, 161873, Note_on_c, 0, 95, 0
1, 161880, Note_on_c, 0, 83, 80
1, 161880, Note_on_c, 0, 95, 80
1, 161993, Note_on_c, 0, 83, 0
1, 161993, Note_on_c, 0, 95, 0
1, 162000, Note_on_c, 0, 85, 80
1, 162000, Note_on_c, 0, 97, 80
1, 162113, Note_on_c, 0, 85, 0
1, 162113, Note_on_c, 0, 97, 0
1, 162120, Note_on_c, 0, 85, 80
1, 162120, Note_on_c, 0, 97, 80
1, 162233, Note_on_c, 0, 85, 0
1, 162233, Note_on_c, 0, 97, 0
1, 162240, Note_on_c, 0, 87, 80
1, 162240, Note_on_c, 0, 99, 80
1, 162467, Note_on_c, 0, 87, 0
1, 162467, Note_on_c, 0, 99, 0
1, 163200, Note_on_c, 0, 51, 96
1, 163200, Note_on_c, 0, 63, 96
1, 163313, Note_on_c, 0, 51, 0
1, 163313, Note_on_c, 0, 63, 0
1, 163320, Note_on_c, 0, 51, 96
1, 163320, Note_on_c, 0, 63, 96
1, 163433, Note_on_c, 0, 51, 0
1, 163433, Note_on_c, 0, 63, 0
1, 163680, Note_on_c, 0, 75, 96
1, 163680, Note_on_c, 0, 87, 96
1, 163907, Note_on_c, 0, 75, 0
1, 163907, Note_on_c, 0, 87, 0
1, 163920, Note_on_c, 0, 75, 96
1, 163920, Note_on_c, 0, 87, 96
1, 164033, Note_on_c, 0, 75, 0
1, 164033, Note_on_c, 0, 87, 0
1, 164040, Note_on_c, 0, 75, 96
1, 164040, Note_on_c, 0, 87, 96
1, 164153, Note_on_c, 0, 75, 0
1, 164153, Note_on_c, 0, 87, 0
1, 164160, Note_on_c, 0, 75, 96
1, 164160, Note_on_c, 0, 87, 96
1, 164273, Note_on_c, 0, 75, 0
1, 164273, Note_on_c, 0, 87, 0
1, 164280, Note_on_c, 0, 75, 96
1, 164280, Note_on_c, 0, 87, 96
1, 164393, Note_on_c, 0, 75, 0
1, 164393, Note_on_c, 0, 87, 0
1, 164400, Note_on_c, 0, 76, 96
1, 164400, Note_on_c, 0, 88, 96
1, 164513, Note_on_c, 0, 76, 0
1, 164513, Note_on_c, 0, 88, 0
1, 164520, Note_on_c, 0, 75, 96
1, 164520, Note_on_c, 0, 87, 96
1, 164633, Note_on_c, 0, 75, 0
1, 164633, Note_on_c, 0, 87, 0
1, 164640, Note_on_c, 0, 73, 96
1, 164640, Note_on_c, 0, 85, 96
1, 164753, Note_on_c, 0, 73, 0
1, 164753, Note_on_c, 0, 85, 0
1, 164760, Note_on_c, 0, 71, 96
1, 164760, Note_on_c, 0, 83, 96
1, 164873, Note_on_c, 0, 71, 0
1, 164873, Note_on_c, 0, 83, 0
1, 164880, Note_on_c, 0, 70, 96
1, 164880, Note_on_c, 0, 82, 96
1, 164993, Note_on_c, 0, 70, 0
1, 164993, Note_on_c, 0, 82, 0
1, 165000, Note_on_c, 0, 68, 96
1, 165000, Note_on_c, 0, 80, 96
1, 165113, Note_on_c, 0, 68, 0
1, 165113, Note_on_c, 0, 80, 0
1, 165120, Note_on_c, 0, 67, 96
1, 165120, Note_on_c, 0, 79, 96
1, 165347, Note_on_c, 0, 67, 0
1, 165347, Note_on_c, 0, 79, 0
1, 166080, Note_on_c, 0, 51, 96
1, 166080, Note_on_c, 0, 63, 96
1, 166193, Note_on_c, 0, 51, 0
1, 166193, Note_on_c, 0, 63, 0
1, 166200, Note_on_c, 0, 51, 96
1, 166200, Note_on_c, 0, 63, 96
1, 166313, Note_on_c, 0, 51, 0
1, 166313, Note_on_c, 0, 63, 0
1, 166560, Note_on_c, 0, 75, 96
1, 166560, Note_on_c, 0, 87, 96
1, 166787, Note_on_c, 0, 75, 0
1, 166787, Note_on_c, 0, 87, 0
1, 166800, Note_on_c, 0, 87, 96
1, 166800, Note_on_c, 0, 99, 96
1, 166913, Note_on_c, 0, 87, 0
1, 166913, Note_on_c, 0, 99, 0
1, 166920, Note_on_c, 0, 87, 96
1, 166920, Note_on_c, 0, 99, 96
1, 167033, Note_on_c, 0, 87, 0
1, 167033, Note_on_c, 0, 99, 0
1, 167040, Note_on_c, 0, 87, 96
1, 167040, Note_on_c, 0, 99, 96
1, 167153, Note_on_c, 0, 87, 0
1, 167153, Note_on_c, 0, 99, 0
1, 167160, Note_on_c, 0, 87, 96
1, 167160, Note_on_c, 0, 99, 96
1, 167273, Note_on_c, 0, 87, 0
1, 167273, Note_on_c, 0, 99, 0
1, 167280, Note_on_c, 0, 88, 96
1, 167280, Note_on_c, 0, 100, 96
1, 167393, Note_on_c, 0, 88, 0
1, 167393, Note_on_c, 0, 100, 0
1, 167400, Note_on_c, 0, 87, 96
1, 167400, Note_on_c, 0, 99, 96
1, 167513, Note_on_c, 0, 87, 0
1, 167513, Note_on_c, 0, 99, 0
1, 167520, Note_on_c, 0, 85, 96
1, 167520, Note_on_c, 0, 97, 96
1, 167633, Note_on_c, 0, 85, 0
1, 167633, Note_on_c, 0, 97, 0
1, 167640, Note_on_c, 0, 83, 96
1, 167640, Note_on_c, 0, 95, 96
1, 167753, Note_on_c, 0, 83, 0
1, 167753, Note_on_c, 0, 95, 0
1, 167760, Note_on_c, 0, 82, 96
1, 167760, Note_on_c, 0, 94, 96
1, 167873, Note_on_c, 0, 82, 0
1, 167873, Note_on_c, 0, 94, 0
1, 167880, Note_on_c, 0, 80, 96
1, 167880, Note_on_c, 0, 92, 96
1, 167993, Note_on_c, 0, 80, 0
1, 167993, Note_on_c, 0, 92, 0
1, 168000, Note_on_c, 0, 79, 96
1, 168000, Note_on_c, 0, 91, 96
1, 168113, Note_on_c, 0, 79, 0
1, 168113, Note_on_c, 0, 91, 0
1, 168120, Note_on_c, 0, 78, 96
1, 168120, Note_on_c, 0, 90, 96
1, 168233, Note_on_c, 0, 78, 0
1, 168233, Note_on_c, 0, 90, 0
1, 168240, Note_on_c, 0, 77, 96
1, 168240, Note_on_c, 0, 89, 96
1, 168353, Note_on_c, 0, 77, 0
1, 168353, Note_on_c, 0, 89, 0
1, 168360, Note_on_c, 0, 76, 96
1, 168360, Note_on_c, 0, 88, 96
1, 168473, Note_on_c, 0, 76, 0
1, 168473, Note_on_c, 0, 88, 0
1, 168480, Note_on_c, 0, 74, 96
1, 168480, Note_on_c, 0, 86, 96
1, 168593, Note_on_c, 0, 74, 0
1, 168593, Note_on_c, 0, 86, 0
1, 168600, Note_on_c, 0, 75, 96
1, 168600, Note_on_c, 0, 87, 96
1, 168713, Note_on_c, 0, 75, 0
1, 168713, Note_on_c, 0, 87, 0
1, 168720, Note_on_c, 0, 76, 96
1, 168720, Note_on_c, 0, 88, 96
1, 168833, Note_on_c, 0, 76, 0
1, 168833, Note_on_c, 0, 88, 0
1, 168840, Note_on_c, 0, 75, 96
1, 168840, Note_on_c, 0, 87, 96
1, 168953, Note_on_c, 0, 75, 0
1, 168953, Note_on_c, 0, 87, 0
1, 168960, Note_on_c, 0, 73, 96
1, 168960, Note_on_c, 0, 85, 96
1, 169073, Note_on_c, 0, 73, 0
1, 169073, Note_on_c, 0, 85, 0
1, 169080, Note_on_c, 0, 71, 96
1, 169080, Note_on_c, 0, 83, 96
1, 169193, Note_on_c, 0, 71, 0
1, 169193, Note_on_c, 0, 83, 0
1, 169200, Note_on_c, 0, 70, 96
1, 169200, Note_on_c, 0, 82, 96
1, 169313, Note_on_c, 0, 70, 0
1, 169313, Note_on_c, 0, 82, 0
1, 169320, Note_on_c, 0, 68, 96
1, 169320, Note_on_c, 0, 80, 96
1, 169433, Note_on_c, 0, 68, 0
1, 169433, Note_on_c, 0, 80, 0
1, 169440, Note_on_c, 0, 67, 96
1, 169440, Note_on_c, 0, 79, 96
1, 169553, Note_on_c, 0, 67, 0
1, 169553, Note_on_c, 0, 79, 0
1, 169560, Note_on_c, 0, 66, 96
1, 169560, Note_on_c, 0, 78, 96
1, 169673, Note_on_c, 0, 66, 0
1, 169673, Note_on_c, 0, 78, 0
1, 169680, Note_on_c, 0, 65, 96
1, 169680, Note_on_c, 0, 77, 96
1, 169793, Note_on_c, 0, 65, 0
1, 169793, Note_on_c, 0, 77, 0
1, 169800, Note_on_c, 0, 64, 96
1, 169800, Note_on_c, 0, 76, 96
1, 169913, Note_on_c, 0, 64, 0
1, 169913, Note_on_c, 0, 76, 0
1, 169920, Note_on_c, 0, 62, 96
1, 169920, Note_on_c, 0, 74, 96
1, 170033, Note_on_c, 0, 62, 0
1, 170033, Note_on_c, 0, 74, 0
1, 170040, Note_on_c, 0, 63, 96
1, 170040, Note_on_c, 0, 75, 96
1, 170153, Note_on_c, 0, 63, 0
1, 170153, Note_on_c, 0, 75, 0
1, 170160, Note_on_c, 0, 64, 96
1, 170160, Note_on_c, 0, 76, 96
1, 170273, Note_on_c, 0, 64, 0
1, 170273, Note_on_c, 0, 76, 0
1, 170280, Note_on_c, 0, 63, 96
1, 170280, Note_on_c, 0, 75, 96
1, 170393, Note_on_c, 0, 63, 0
1, 170393, Note_on_c, 0, 75, 0
1, 170400, Note_on_c, 0, 61, 96
1, 170400, Note_on_c, 0, 73, 96
1, 170513, Note_on_c, 0, 61, 0
1, 170513, Note_on_c, 0, 73, 0
1, 170520, Note_on_c, 0, 59, 96
1, 170520, Note_on_c, 0, 71, 96
1, 170633, Note_on_c, 0, 59, 0
1, 170633, Note_on_c, 0, 71, 0
1, 170640, Note_on_c, 0, 58, 96
1, 170640, Note_on_c, 0, 70, 96
1, 170753, Note_on_c, 0, 58, 0
1, 170753, Note_on_c, 0, 70, 0
1, 170760, Note_on_c, 0, 56, 96
1, 170760, Note_on_c, 0, 68, 96
1, 170873, Note_on_c, 0, 56, 0
1, 170873, Note_on_c, 0, 68, 0
1, 170880, Note_on_c, 0, 55, 96
1, 170880, Note_on_c, 0, 67, 96
1, 170993, Note_on_c, 0, 55, 0
1, 170993, Note_on_c, 0, 67, 0
1, 171000, Note_on_c, 0, 54, 96
1, 171000, Note_on_c, 0, 66, 96
1, 171113, Note_on_c, 0, 54, 0
1, 171113, Note_on_c, 0, 66, 0
1, 171120, Note_on_c, 0, 53, 96
1, 171120, Note_on_c, 0, 65, 96
1, 171233, Note_on_c, 0, 53, 0
1, 171233, Note_on_c, 0, 65, 0
1, 171240, Note_on_c, 0, 52, 96
1, 171240, Note_on_c, 0, 64, 96
1, 171353, Note_on_c, 0, 52, 0
1, 171353, Note_on_c, 0, 64, 0
1, 171360, Note_on_c, 0, 50, 96
1, 171360, Note_on_c, 0, 62, 96
1, 171473, Note_on_c, 0, 50, 0
1, 171473, Note_on_c, 0, 62, 0
1, 171480, Note_on_c, 0, 51, 96
1, 171480, Note_on_c, 0, 63, 96
1, 171593, Note_on_c, 0, 51, 0
1, 171593, Note_on_c, 0, 63, 0
1, 171600, Note_on_c, 0, 52, 96
1, 171600, Note_on_c, 0, 64, 96
1, 171713, Note_on_c, 0, 52, 0
1, 171713, Note_on_c, 0, 64, 0
1, 171720, Note_on_c, 0, 52, 96
1, 171720, Note_on_c, 0, 63, 96
1, 171833, Note_on_c, 0, 52, 0
1, 171833, Note_on_c, 0, 63, 0
1, 171840, Note_on_c, 0, 52, 96
1, 171840, Note_on_c, 0, 61, 96
1, 171953, Note_on_c, 0, 52, 0
1, 171953, Note_on_c, 0, 61, 0
1, 171960, Note_on_c, 0, 52, 96
1, 171960, Note_on_c, 0, 59, 96
1, 172073, Note_on_c, 0, 52, 0
1, 172073, Note_on_c, 0, 59, 0
1, 172080, Note_on_c, 0, 53, 96
1, 172080, Note_on_c, 0, 58, 96
1, 172193, Note_on_c, 0, 53, 0
1, 172193, Note_on_c, 0, 58, 0
1, 172200, Note_on_c, 0, 53, 96
1, 172200, Note_on_c, 0, 56, 96
1, 172313, Note_on_c, 0, 53, 0
1, 172313, Note_on_c, 0, 56, 0
1, 172320, Tempo, 428572
1, 172320, Note_on_c, 0, 55, 96
1, 172547, Note_on_c, 0, 55, 0
1, 172560, Note_on_c, 0, 50, 96
1, 172560, Note_on_c, 0, 62, 96
1, 172679, Note_on_c, 0, 50, 0
1, 172679, Note_on_c, 0, 62, 0
1, 172800, Note_on_c, 0, 51, 96
1, 172800, Note_on_c, 0, 63, 96
1, 172919, Note_on_c, 0, 51, 0
1, 172919, Note_on_c, 0, 63, 0
1, 173040, Note_on_c, 0, 57, 96
1, 173040, Note_on_c, 0, 69, 96
1, 173159, Note_on_c, 0, 57, 0
1, 173159, Note_on_c, 0, 69, 0
1, 173280, Note_on_c, 0, 58, 96
1, 173280, Note_on_c, 0, 70, 96
1, 173399, Note_on_c, 0, 58, 0
1, 173399, Note_on_c, 0, 70, 0
1, 173520, Note_on_c, 0, 62, 96
1, 173520, Note_on_c, 0, 74, 96
1, 173639, Note_on_c, 0, 62, 0
1, 173639, Note_on_c, 0, 74, 0
1, 173760, Note_on_c, 0, 63, 96
1, 173760, Note_on_c, 0, 75, 96
1, 173879, Note_on_c, 0, 63, 0
1, 173879, Note_on_c, 0, 75, 0
1, 174000, Note_on_c, 0, 69, 96
1, 174000, Note_on_c, 0, 81, 96
1, 174119, Note_on_c, 0, 69, 0
1, 174119, Note_on_c, 0, 81, 0
1, 174240, Note_on_c, 0, 70, 96
1, 174240, Note_on_c, 0, 82, 96
1, 174359, Note_on_c, 0, 70, 0
1, 174359, Note_on_c, 0, 82, 0
1, 174480, Note_on_c, 0, 74, 96
1, 174480, Note_on_c, 0, 86, 96
1, 174599, Note_on_c, 0, 74, 0
1, 174599, Note_on_c, 0, 86, 0
1, 174720, Note_on_c, 0, 75, 96
1, 174720, Note_on_c, 0, 87, 96
1, 174839, Note_on_c, 0, 75, 0
1, 174839, Note_on_c, 0, 87, 0
1, 174960, Note_on_c, 0, 81, 96
1, 174960, Note_on_c, 0, 93, 96
1, 175079, Note_on_c, 0, 81, 0
1, 175079, Note_on_c, 0, 93, 0
1, 175200, Note_on_c, 0, 82, 96
1, 175200, Note_on_c, 0, 94, 96
1, 175319, Note_on_c, 0, 82, 0
1, 175319, Note_on_c, 0, 94, 0
1, 175440, Note_on_c, 0, 86, 96
1, 175440, Note_on_c, 0, 98, 96
1, 175559, Note_on_c, 0, 86, 0
1, 175559, Note_on_c, 0, 98, 0
1, 175680, Note_on_c, 0, 87, 96
1, 175680, Note_on_c, 0, 99, 96
1, 175799, Note_on_c, 0, 87, 0
1, 175799, Note_on_c, 0, 99, 0
1, 175920, Note_on_c, 0, 86, 96
1, 175920, Note_on_c, 0, 98, 96
1, 176039, Note_on_c, 0, 86, 0
1, 176039, Note_on_c, 0, 98, 0
1, 176160, Note_on_c, 0, 87, 96
1, 176160, Note_on_c, 0, 99, 96
1, 176279, Note_on_c, 0, 87, 0
1, 176279, Note_on_c, 0, 99, 0
1, 176400, Note_on_c, 0, 86, 96
1, 176400, Note_on_c, 0, 98, 96
1, 176519, Note_on_c, 0, 86, 0
1, 176519, Note_on_c, 0, 98, 0
1, 176640, Note_on_c, 0, 87, 96
1, 176640, Note_on_c, 0, 99, 96
1, 176759, Note_on_c, 0, 87, 0
1, 176759, Note_on_c, 0, 99, 0
1, 176880, Note_on_c, 0, 87, 96
1, 176880, Note_on_c, 0, 99, 96
1, 176999, Note_on_c, 0, 87, 0
1, 176999, Note_on_c, 0, 99, 0
1, 177120, Note_on_c, 0, 87, 96
1, 177120, Note_on_c, 0, 99, 96
1, 177239, Note_on_c, 0, 87, 0
1, 177239, Note_on_c, 0, 99, 0
1, 177360, Note_on_c, 0, 87, 96
1, 177360, Note_on_c, 0, 99, 96
1, 177479, Note_on_c, 0, 87, 0
1, 177479, Note_on_c, 0, 99, 0
1, 177600, Note_on_c, 0, 87, 96
1, 177600, Note_on_c, 0, 99, 96
1, 177719, Note_on_c, 0, 87, 0
1, 177719, Note_on_c, 0, 99, 0
1, 177840, Note_on_c, 0, 87, 96
1, 177840, Note_on_c, 0, 99, 96
1, 177959, Note_on_c, 0, 87, 0
1, 177959, Note_on_c, 0, 99, 0
1, 178080, Note_on_c, 0, 87, 96
1, 178080, Note_on_c, 0, 99, 96
1, 178199, Note_on_c, 0, 87, 0
1, 178199, Note_on_c, 0, 99, 0
1, 178320, Note_on_c, 0, 87, 96
1, 178320, Note_on_c, 0, 99, 96
1, 178439, Note_on_c, 0, 87, 0
1, 178439, Note_on_c, 0, 99, 0
1, 178560, Note_on_c, 0, 87, 96
1, 178560, Note_on_c, 0, 99, 96
1, 178679, Note_on_c, 0, 87, 0
1, 178679, Note_on_c, 0, 99, 0
1, 178800, Note_on_c, 0, 87, 96
1, 178800, Note_on_c, 0, 99, 96
1, 178919, Note_on_c, 0, 87, 0
1, 178919, Note_on_c, 0, 99, 0
1, 179040, Note_on_c, 0, 87, 96
1, 179040, Note_on_c, 0, 99, 96
1, 179159, Note_on_c, 0, 87, 0
1, 179159, Note_on_c, 0, 99, 0
1, 179280, Note_on_c, 0, 87, 96
1, 179280, Note_on_c, 0, 99, 96
1, 179399, Note_on_c, 0, 87, 0
1, 179399, Note_on_c, 0, 99, 0
1, 179520, Note_on_c, 0, 87, 96
1, 179520, Note_on_c, 0, 99, 96
1, 179633, Note_on_c, 0, 87, 0
1, 179633, Note_on_c, 0, 99, 0
1, 179640, Note_on_c, 0, 87, 96
1, 179640, Note_on_c, 0, 99, 96
1, 179753, Note_on_c, 0, 87, 0
1, 179753, Note_on_c, 0, 99, 0
1, 179760, Note_on_c, 0, 87, 96
1, 179760, Note_on_c, 0, 99, 96
1, 179873, Note_on_c, 0, 87, 0
1, 179873, Note_on_c, 0, 99, 0
1, 179880, Note_on_c, 0, 87, 96
1, 179880, Note_on_c, 0, 99, 96
1, 179993, Note_on_c, 0, 87, 0
1, 179993, Note_on_c, 0, 99, 0
1, 180000, Note_on_c, 0, 87, 96
1, 180000, Note_on_c, 0, 99, 96
1, 180113, Note_on_c, 0, 87, 0
1, 180113, Note_on_c, 0, 99, 0
1, 180120, Note_on_c, 0, 87, 96
1, 180120, Note_on_c, 0, 99, 96
1, 180233, Note_on_c, 0, 87, 0
1, 180233, Note_on_c, 0, 99, 0
1, 180240, Note_on_c, 0, 87, 96
1, 180240, Note_on_c, 0, 99, 96
1, 180353, Note_on_c, 0, 87, 0
1, 180353, Note_on_c, 0, 99, 0
1, 180360, Note_on_c, 0, 87, 96
1, 180360, Note_on_c, 0, 99, 96
1, 180473, Note_on_c, 0, 87, 0
1, 180473, Note_on_c, 0, 99, 0
1, 180480, Note_on_c, 0, 87, 96
1, 180480, Note_on_c, 0, 99, 96
1, 180593, Note_on_c, 0, 87, 0
1, 180593, Note_on_c, 0, 99, 0
1, 180600, Note_on_c, 0, 87, 96
1, 180600, Note_on_c, 0, 99, 96
1, 180713, Note_on_c, 0, 87, 0
1, 180713, Note_on_c, 0, 99, 0
1, 180720, Note_on_c, 0, 87, 96
1, 180720, Note_on_c, 0, 99, 96
1, 180833, Note_on_c, 0, 87, 0
1, 180833, Note_on_c, 0, 99, 0
1, 180840, Note_on_c, 0, 87, 96
1, 180840, Note_on_c, 0, 99, 96
1, 180953, Note_on_c, 0, 87, 0
1, 180953, Note_on_c, 0, 99, 0
1, 180960, Tempo, 444444
1, 180960, Note_on_c, 0, 87, 96
1, 180960, Note_on_c, 0, 99, 96
1, 181073, Note_on_c, 0, 87, 0
1, 181073, Note_on_c, 0, 99, 0
1, 181080, Note_on_c, 0, 87, 96
1, 181080, Note_on_c, 0, 99, 96
1, 181193, Note_on_c, 0, 87, 0
1, 181193, Note_on_c, 0, 99, 0
1, 181200, Note_on_c, 0, 87, 96
1, 181200, Note_on_c, 0, 99, 96
1, 181313, Note_on_c, 0, 87, 0
1, 181313, Note_on_c, 0, 99, 0
1, 181320, Note_on_c, 0, 87, 96
1, 181320, Note_on_c, 0, 99, 96
1, 181433, Note_on_c, 0, 87, 0
1, 181433, Note_on_c, 0, 99, 0
1, 181440, Note_on_c, 0, 87, 96
1, 181440, Note_on_c, 0, 99, 96
1, 181553, Note_on_c, 0, 87, 0
1, 181553, Note_on_c, 0, 99, 0
1, 181560, Note_on_c, 0, 87, 96
1, 181560, Note_on_c, 0, 99, 96
1, 181673, Note_on_c, 0, 87, 0
1, 181673, Note_on_c, 0, 99, 0
1, 181680, Note_on_c, 0, 87, 96
1, 181680, Note_on_c, 0, 99, 96
1, 181793, Note_on_c, 0, 87, 0
1, 181793, Note_on_c, 0, 99, 0
1, 181800, Note_on_c, 0, 87, 96
1, 181800, Note_on_c, 0, 99, 96
1, 181913, Note_on_c, 0, 87, 0
1, 181913, Note_on_c, 0, 99, 0
1, 181920, Note_on_c, 0, 87, 96
1, 181920, Note_on_c, 0, 99, 96
1, 182033, Note_on_c, 0, 87, 0
1, 182033, Note_on_c, 0, 99, 0
1, 182040, Note_on_c, 0, 87, 96
1, 182040, Note_on_c, 0, 99, 96
1, 182153, Note_on_c, 0, 87, 0
1, 182153, Note_on_c, 0, 99, 0
1, 182160, Note_on_c, 0, 85, 96
1, 182160, Note_on_c, 0, 97, 96
1, 182273, Note_on_c, 0, 85, 0
1, 182273, Note_on_c, 0, 97, 0
1, 182280, Note_on_c, 0, 85, 96
1, 182280, Note_on_c, 0, 97, 96
1, 182393, Note_on_c, 0, 85, 0
1, 182393, Note_on_c, 0, 97, 0
1, 182400, Note_on_c, 0, 83, 96
1, 182400, Note_on_c, 0, 95, 96
1, 182513, Note_on_c, 0, 83, 0
1, 182513, Note_on_c, 0, 95, 0
1, 182520, Note_on_c, 0, 83, 96
1, 182520, Note_on_c, 0, 95, 96
1, 182633, Note_on_c, 0, 83, 0
1, 182633, Note_on_c, 0, 95, 0
1, 182640, Note_on_c, 0, 83, 96
1, 182640, Note_on_c, 0, 95, 96
1, 182753, Note_on_c, 0, 83, 0
1, 182753, Note_on_c, 0, 95, 0
1, 182760, Note_on_c, 0, 83, 96
1, 182760, Note_on_c, 0, 95, 96
1, 182873, Note_on_c, 0, 83, 0
1, 182873, Note_on_c, 0, 95, 0
1, 182880, Note_on_c, 0, 82, 96
1, 182880, Note_on_c, 0, 94, 96
1, 182993, Note_on_c, 0, 82, 0
1, 182993, Note_on_c, 0, 94, 0
1, 183000, Note_on_c, 0, 82, 96
1, 183000, Note_on_c, 0, 94, 96
1, 183113, Note_on_c, 0, 82, 0
1, 183113, Note_on_c, 0, 94, 0
1, 183120, Note_on_c, 0, 80, 96
1, 183120, Note_on_c, 0, 92, 96
1, 183233, Note_on_c, 0, 80, 0
1, 183233, Note_on_c, 0, 92, 0
1, 183240, Note_on_c, 0, 80, 96
1, 183240, Note_on_c, 0, 92, 96
1, 183353, Note_on_c, 0, 80, 0
1, 183353, Note_on_c, 0, 92, 0
1, 183360, Note_on_c, 0, 79, 96
1, 183360, Note_on_c, 0, 91, 96
1, 183473, Note_on_c, 0, 79, 0
1, 183473, Note_on_c, 0, 91, 0
1, 183480, Note_on_c, 0, 79, 96
1, 183480, Note_on_c, 0, 91, 96
1, 183593, Note_on_c, 0, 79, 0
1, 183593, Note_on_c, 0, 91, 0
1, 183600, Note_on_c, 0, 80, 96
1, 183600, Note_on_c, 0, 92, 96
1, 183713, Note_on_c, 0, 80, 0
1, 183713, Note_on_c, 0, 92, 0
1, 183720, Note_on_c, 0, 80, 96
1, 183720, Note_on_c, 0, 92, 96
1, 183833, Note_on_c, 0, 80, 0
1, 183833, Note_on_c, 0, 92, 0
1, 183840, Note_on_c, 0, 82, 96
1, 183840, Note_on_c, 0, 94, 96
1, 183953, Note_on_c, 0, 82, 0
1, 183953, Note_on_c, 0, 94, 0
1, 183960, Note_on_c, 0, 82, 96
1, 183960, Note_on_c, 0, 94, 96
1, 184073, Note_on_c, 0, 82, 0
1, 184073, Note_on_c, 0, 94, 0
1, 184080, Note_on_c, 0, 75, 96
1, 184080, Note_on_c, 0, 87, 96
1, 184193, Note_on_c, 0, 75, 0
1, 184193, Note_on_c, 0, 87, 0
1, 184200, Note_on_c, 0, 75, 96
1, 184200, Note_on_c, 0, 87, 96
1, 184313, Note_on_c, 0, 75, 0
1, 184313, Note_on_c, 0, 87, 0
1, 184320, Note_on_c, 0, 75, 96
1, 184320, Note_on_c, 0, 87, 96
1, 184433, Note_on_c, 0, 75, 0
1, 184433, Note_on_c, 0, 87, 0
1, 184440, Note_on_c, 0, 75, 96
1, 184440, Note_on_c, 0, 87, 96
1, 184553, Note_on_c, 0, 75, 0
1, 184553, Note_on_c, 0, 87, 0
1, 184560, Note_on_c, 0, 76, 96
1, 184560, Note_on_c, 0, 88, 96
1, 184673, Note_on_c, 0, 76, 0
1, 184673, Note_on_c, 0, 88, 0
1, 184680, Note_on_c, 0, 76, 96
1, 184680, Note_on_c, 0, 88, 96
1, 184793, Note_on_c, 0, 76, 0
1, 184793, Note_on_c, 0, 88, 0
1, 184800, Note_on_c, 0, 75, 96
1, 184800, Note_on_c, 0, 87, 96
1, 184913, Note_on_c, 0, 75, 0
1, 184913, Note_on_c, 0, 87, 0
1, 184920, Note_on_c, 0, 75, 96
1, 184920, Note_on_c, 0, 87, 96
1, 185033, Note_on_c, 0, 75, 0
1, 185033, Note_on_c, 0, 87, 0
1, 185040, Note_on_c, 0, 73, 96
1, 185040, Note_on_c, 0, 85, 96
1, 185153, Note_on_c, 0, 73, 0
1, 185153, Note_on_c, 0, 85, 0
1, 185160, Note_on_c, 0, 73, 96
1, 185160, Note_on_c, 0, 85, 96
1, 185273, Note_on_c, 0, 73, 0
1, 185273, Note_on_c, 0, 85, 0
1, 185280, Note_on_c, 0, 71, 96
1, 185280, Note_on_c, 0, 83, 96
1, 185393, Note_on_c, 0, 71, 0
1, 185393, Note_on_c, 0, 83, 0
1, 185400, Note_on_c, 0, 71, 96
1, 185400, Note_on_c, 0, 83, 96
1, 185513, Note_on_c, 0, 71, 0
1, 185513, Note_on_c, 0, 83, 0
1, 185520, Note_on_c, 0, 71, 96
1, 185520, Note_on_c, 0, 83, 96
1, 185633, Note_on_c, 0, 71, 0
1, 185633, Note_on_c, 0, 83, 0
1, 185640, Note_on_c, 0, 71, 96
1, 185640, Note_on_c, 0, 83, 96
1, 185753, Note_on_c, 0, 71, 0
1, 185753, Note_on_c, 0, 83, 0
1, 185760, Note_on_c, 0, 70, 96
1, 185760, Note_on_c, 0, 82, 96
1, 185873, Note_on_c, 0, 70, 0
1, 185873, Note_on_c, 0, 82, 0
1, 185880, Note_on_c, 0, 70, 96
1, 185880, Note_on_c, 0, 82, 96
1, 185993, Note_on_c, 0, 70, 0
1, 185993, Note_on_c, 0, 82, 0
1, 186000, Note_on_c, 0, 68, 96
1, 186000, Note_on_c, 0, 80, 96
1, 186113, Note_on_c, 0, 68, 0
1, 186113, Note_on_c, 0, 80, 0
1, 186120, Note_on_c, 0, 68, 96
1, 186120, Note_on_c, 0, 80, 96
1, 186233, Note_on_c, 0, 68, 0
1, 186233, Note_on_c, 0, 80, 0
1, 186240, Note_on_c, 0, 67, 96
1, 186240, Note_on_c, 0, 79, 96
1, 186353, Note_on_c, 0, 67, 0
1, 186353, Note_on_c, 0, 79, 0
1, 186360, Note_on_c, 0, 67, 96
1, 186360, Note_on_c, 0, 79, 96
1, 186473, Note_on_c, 0, 67, 0
1, 186473, Note_on_c, 0, 79, 0
1, 186480, Note_on_c, 0, 68, 96
1, 186480, Note_on_c, 0, 80, 96
1, 186593, Note_on_c, 0, 68, 0
1, 186593, Note_on_c, 0, 80, 0
1, 186600, Note_on_c, 0, 68, 96
1, 186600, Note_on_c, 0, 80, 96
1, 186713, Note_on_c, 0, 68, 0
1, 186713, Note_on_c, 0, 80, 0
1, 186720, Note_on_c, 0, 70, 96
1, 186720, Note_on_c, 0, 82, 96
1, 186833, Note_on_c, 0, 70, 0
1, 186833, Note_on_c, 0, 82, 0
1, 186840, Note_on_c, 0, 70, 96
1, 186840, Note_on_c, 0, 82, 96
1, 186953, Note_on_c, 0, 70, 0
1, 186953, Note_on_c, 0, 82, 0
1, 186960, Note_on_c, 0, 63, 96
1, 186960, Note_on_c, 0, 75, 96
1, 187073, Note_on_c, 0, 63, 0
1, 187073, Note_on_c, 0, 75, 0
1, 187080, Note_on_c, 0, 63, 96
1, 187080, Note_on_c, 0, 75, 96
1, 187193, Note_on_c, 0, 63, 0
1, 187193, Note_on_c, 0, 75, 0
1, 187200, Note_on_c, 0, 75, 96
1, 187200, Note_on_c, 0, 87, 96
1, 187313, Note_on_c, 0, 75, 0
1, 187313, Note_on_c, 0, 87, 0
1, 187320, Note_on_c, 0, 75, 96
1, 187320, Note_on_c, 0, 87, 96
1, 187433, Note_on_c, 0, 75, 0
1, 187433, Note_on_c, 0, 87, 0
1, 187440, Note_on_c, 0, 87, 96
1, 187440, Note_on_c, 0, 99, 96
1, 187553, Note_on_c, 0, 87, 0
1, 187553, Note_on_c, 0, 99, 0
1, 187560, Note_on_c, 0, 87, 96
1, 187560, Note_on_c, 0, 99, 96
1, 187673, Note_on_c, 0, 87, 0
1, 187673, Note_on_c, 0, 99, 0
1, 187680, Note_on_c, 0, 87, 96
1, 187680, Note_on_c, 0, 99, 96
1, 187793, Note_on_c, 0, 87, 0
1, 187793, Note_on_c, 0, 99, 0
1, 187800, Note_on_c, 0, 87, 96
1, 187800, Note_on_c, 0, 99, 96
1, 187913, Note_on_c, 0, 87, 0
1, 187913, Note_on_c, 0, 99, 0
1, 187920, Note_on_c, 0, 85, 96
1, 187920, Note_on_c, 0, 97, 96
1, 188033, Note_on_c, 0, 85, 0
1, 188033, Note_on_c, 0, 97, 0
1, 188040, Note_on_c, 0, 85, 96
1, 188040, Note_on_c, 0, 97, 96
1, 188153, Note_on_c, 0, 85, 0
1, 188153, Note_on_c, 0, 97, 0
1, 188160, Note_on_c, 0, 84, 96
1, 188160, Note_on_c, 0, 96, 96
1, 188273, Note_on_c, 0, 84, 0
1, 188273, Note_on_c, 0, 96, 0
1, 188280, Note_on_c, 0, 84, 96
1, 188280, Note_on_c, 0, 96, 96
1, 188393, Note_on_c, 0, 84, 0
1, 188393, Note_on_c, 0, 96, 0
1, 188400, Note_on_c, 0, 84, 96
1, 188400, Note_on_c, 0, 96, 96
1, 188513, Note_on_c, 0, 84, 0
1, 188513, Note_on_c, 0, 96, 0
1, 188520, Note_on_c, 0, 84, 96
1, 188520, Note_on_c, 0, 96, 96
1, 188633, Note_on_c, 0, 84, 0
1, 188633, Note_on_c, 0, 96, 0
1, 188640, Note_on_c, 0, 81, 96
1, 188640, Note_on_c, 0, 93, 96
1, 188753, Note_on_c, 0, 81, 0
1, 188753, Note_on_c, 0, 93, 0
1, 188760, Note_on_c, 0, 81, 96
1, 188760, Note_on_c, 0, 93, 96
1, 188873, Note_on_c, 0, 81, 0
1, 188873, Note_on_c, 0, 93, 0
1, 188880, Note_on_c, 0, 80, 96
1, 188880, Note_on_c, 0, 92, 96
1, 188993, Note_on_c, 0, 80, 0
1, 188993, Note_on_c, 0, 92, 0
1, 189000, Note_on_c, 0, 80, 96
1, 189000, Note_on_c, 0, 92, 96
1, 189113, Note_on_c, 0, 80, 0
1, 189113, Note_on_c, 0, 92, 0
1, 189120, Note_on_c, 0, 80, 96
1, 189120, Note_on_c, 0, 92, 96
1, 189233, Note_on_c, 0, 80, 0
1, 189233, Note_on_c, 0, 92, 0
1, 189240, Note_on_c, 0, 80, 96
1, 189240, Note_on_c, 0, 92, 96
1, 189353, Note_on_c, 0, 80, 0
1, 189353, Note_on_c, 0, 92, 0
1, 189360, Note_on_c, 0, 78, 96
1, 189360, Note_on_c, 0, 90, 96
1, 189473, Note_on_c, 0, 78, 0
1, 189473, Note_on_c, 0, 90, 0
1, 189480, Note_on_c, 0, 78, 96
1, 189480, Note_on_c, 0, 90, 96
1, 189593, Note_on_c, 0, 78, 0
1, 189593, Note_on_c, 0, 90, 0
1, 189600, Note_on_c, 0, 76, 96
1, 189600, Note_on_c, 0, 88, 96
1, 189827, Note_on_c, 0, 76, 0
1, 189827, Note_on_c, 0, 88, 0
1, 189840, Note_on_c, 0, 64, 96
1, 189840, Note_on_c, 0, 69, 96
1, 189840, Note_on_c, 0, 73, 96
1, 189953, Note_on_c, 0, 64, 0
1, 189953, Note_on_c, 0, 69, 0
1, 189953, Note_on_c, 0, 73, 0
1, 189960, Note_on_c, 0, 64, 96
1, 189960, Note_on_c, 0, 69, 96
1, 189960, Note_on_c, 0, 73, 96
1, 190073, Note_on_c, 0, 64, 0
1, 190073, Note_on_c, 0, 69, 0
1, 190073, Note_on_c, 0, 73, 0
1, 190080, Note_on_c, 0, 64, 96
1, 190080, Note_on_c, 0, 69, 96
1, 190080, Note_on_c, 0, 75, 96
1, 190193, Note_on_c, 0, 64, 0
1, 190193, Note_on_c, 0, 69, 0
1, 190193, Note_on_c, 0, 75, 0
1, 190200, Note_on_c, 0, 64, 96
1, 190200, Note_on_c, 0, 69, 96
1, 190200, Note_on_c, 0, 75, 96
1, 190313, Note_on_c, 0, 64, 0
1, 190313, Note_on_c, 0, 69, 0
1, 190313, Note_on_c, 0, 75, 0
1, 190320, Note_on_c, 0, 64, 96
1, 190320, Note_on_c, 0, 69, 96
1, 190320, Note_on_c, 0, 76, 96
1, 190433, Note_on_c, 0, 64, 0
1, 190433, Note_on_c, 0, 69, 0
1, 190433, Note_on_c, 0, 76, 0
1, 190440, Note_on_c, 0, 64, 96
1, 190440, Note_on_c, 0, 69, 96
1, 190440, Note_on_c, 0, 76, 96
1, 190553, Note_on_c, 0, 64, 0
1, 190553, Note_on_c, 0, 69, 0
1, 190553, Note_on_c, 0, 76, 0
1, 190560, Note_on_c, 0, 64, 96
1, 190560, Note_on_c, 0, 69, 96
1, 190560, Note_on_c, 0, 75, 96
1, 190673, Note_on_c, 0, 64, 0
1, 190673, Note_on_c, 0, 69, 0
1, 190673, Note_on_c, 0, 75, 0
1, 190680, Note_on_c, 0, 64, 96
1, 190680, Note_on_c, 0, 69, 96
1, 190680, Note_on_c, 0, 75, 96
1, 190793, Note_on_c, 0, 64, 0
1, 190793, Note_on_c, 0, 69, 0
1, 190793, Note_on_c, 0, 75, 0
1, 190800, Note_on_c, 0, 64, 96
1, 190800, Note_on_c, 0, 69, 96
1, 190800, Note_on_c, 0, 73, 96
1, 190913, Note_on_c, 0, 64, 0
1, 190913, Note_on_c, 0, 69, 0
1, 190913, Note_on_c, 0, 73, 0
1, 190920, Note_on_c, 0, 64, 96
1, 190920, Note_on_c, 0, 69, 96
1, 190920, Note_on_c, 0, 73, 96
1, 191033, Note_on_c, 0, 64, 0
1, 191033, Note_on_c, 0, 69, 0
1, 191033, Note_on_c, 0, 73, 0
1, 191040, Note_on_c, 0, 63, 96
1, 191040, Note_on_c, 0, 68, 96
1, 191040, Note_on_c, 0, 71, 96
1, 191040, Note_on_c, 0, 75, 96
1, 191153, Note_on_c, 0, 63, 0
1, 191153, Note_on_c, 0, 68, 0
1, 191153, Note_on_c, 0, 71, 0
1, 191153, Note_on_c, 0, 75, 0
1, 191160, Note_on_c, 0, 64, 96
1, 191160, Note_on_c, 0, 76, 96
1, 191273, Note_on_c, 0, 64, 0
1, 191273, Note_on_c, 0, 76, 0
1, 191280, Note_on_c, 0, 65, 96
1, 191280, Note_on_c, 0, 77, 96
1, 191393, Note_on_c, 0, 65, 0
1, 191393, Note_on_c, 0, 77, 0
1, 191400, Note_on_c, 0, 66, 96
1, 191400, Note_on_c, 0, 78, 96
1, 191513, Note_on_c, 0, 66, 0
1, 191513, Note_on_c, 0, 78, 0
1, 191520, Note_on_c, 0, 67, 96
1, 191520, Note_on_c, 0, 79, 96
1, 191633, Note_on_c, 0, 67, 0
1, 191633, Note_on_c, 0, 79, 0
1, 191640, Note_on_c, 0, 68, 96
1, 191640, Note_on_c, 0, 80, 96
1, 191753, Note_on_c, 0, 68, 0
1, 191753, Note_on_c, 0, 80, 0
1, 191760, Note_on_c, 0, 69, 96
1, 191760, Note_on_c, 0, 81, 96
1, 191873, Note_on_c, 0, 69, 0
1, 191873, Note_on_c, 0, 81, 0
1, 191880, Note_on_c, 0, 70, 96
1, 191880, Note_on_c, 0, 82, 96
1, 191993, Note_on_c, 0, 70, 0
1, 191993, Note_on_c, 0, 82, 0
1, 192000, Note_on_c, 0, 71, 96
1, 192000, Note_on_c, 0, 83, 96
1, 192113, Note_on_c, 0, 71, 0
1, 192113, Note_on_c, 0, 83, 0
1, 192120, Note_on_c, 0, 72, 96
1, 192120, Note_on_c, 0, 84, 96
1, 192233, Note_on_c, 0, 72, 0
1, 192233, Note_on_c, 0, 84, 0
1, 192240, Note_on_c, 0, 73, 96
1, 192240, Note_on_c, 0, 85, 96
1, 192353, Note_on_c, 0, 73, 0
1, 192353, Note_on_c, 0, 85, 0
1, 192360, Note_on_c, 0, 74, 96
1, 192360, Note_on_c, 0, 86, 96
1, 192473, Note_on_c, 0, 74, 0
1, 192473, Note_on_c, 0, 86, 0
1, 192480, Note_on_c, 0, 75, 96
1, 192480, Note_on_c, 0, 79, 96
1, 192480, Note_on_c, 0, 82, 96
1, 192480, Note_on_c, 0, 87, 96
1, 192593, Note_on_c, 0, 75, 0
1, 192593, Note_on_c, 0, 79, 0
1, 192593, Note_on_c, 0, 82, 0
1, 192593, Note_on_c, 0, 87, 0
1, 192600, Note_on_c, 0, 76, 98
1, 192600, Note_on_c, 0, 88, 98
1, 192713, Note_on_c, 0, 76, 0
1, 192713, Note_on_c, 0, 88, 0
1, 192720, Note_on_c, 0, 77, 101
1, 192720, Note_on_c, 0, 89, 101
1, 192833, Note_on_c, 0, 77, 0
1, 192833, Note_on_c, 0, 89, 0
1, 192840, Note_on_c, 0, 78, 103
1, 192840, Note_on_c, 0, 90, 103
1, 192953, Note_on_c, 0, 78, 0
1, 192953, Note_on_c, 0, 90, 0
1, 192960, Note_on_c, 0, 79, 106
1, 192960, Note_on_c, 0, 91, 106
1, 193073, Note_on_c, 0, 79, 0
1, 193073, Note_on_c, 0, 91, 0
1, 193080, Note_on_c, 0, 80, 108
1, 193080, Note_on_c, 0, 92, 108
1, 193193, Note_on_c, 0, 80, 0
1, 193193, Note_on_c, 0, 92, 0
1, 193200, Note_on_c, 0, 81, 111
1, 193200, Note_on_c, 0, 93, 111
1, 193313, Note_on_c, 0, 81, 0
1, 193313, Note_on_c, 0, 93, 0
1, 193320, Note_on_c, 0, 82, 113
1, 193320, Note_on_c, 0, 94, 113
1, 193433, Note_on_c, 0, 82, 0
1, 193433, Note_on_c, 0, 94, 0
1, 193440, Note_on_c, 0, 83, 116
1, 193440, Note_on_c, 0, 95, 116
1, 193553, Note_on_c, 0, 83, 0
1, 193553, Note_on_c, 0, 95, 0
1, 193560, Note_on_c, 0, 85, 118
1, 193560, Note_on_c, 0, 97, 118
1, 193673, Note_on_c, 0, 85, 0
1, 193673, Note_on_c, 0, 97, 0
1, 193680, Note_on_c, 0, 86, 121
1, 193680, Note_on_c, 0, 98, 121
1, 193793, Note_on_c, 0, 86, 0
1, 193793, Note_on_c, 0, 98, 0
1, 193800, Note_on_c, 0, 87, 123
1, 193800, Note_on_c, 0, 99, 123
1, 193913, Note_on_c, 0, 87, 0
1, 193913, Note_on_c, 0, 99, 0
1, 193920, Note_on_c, 0, 59, 126
1, 193920, Note_on_c, 0, 63, 126
1, 193920, Note_on_c, 0, 68, 126
1, 194147, Note_on_c, 0, 59, 0
1, 194147, Note_on_c, 0, 63, 0
1, 194147, Note_on_c, 0, 68, 0
1, 194400, Note_on_c, 0, 71, 126
1, 194400, Note_on_c, 0, 75, 126
1, 194400, Note_on_c, 0, 83, 126
1, 194627, Note_on_c, 0, 71, 0
1, 194627, Note_on_c, 0, 75, 0
1, 194627, Note_on_c, 0, 83, 0
1, 194640, Note_on_c, 0, 70, 126
1, 194640, Note_on_c, 0, 75, 126
1, 194640, Note_on_c, 0, 83, 126
1, 194753, Note_on_c, 0, 70, 0
1, 194753, Note_on_c, 0, 75, 0
1, 194753, Note_on_c, 0, 83, 0
1, 194760, Note_on_c, 0, 71, 126
1, 194760, Note_on_c, 0, 83, 126
1, 194873, Note_on_c, 0, 71, 0
1, 194873, Note_on_c, 0, 83, 0
1, 194880, Note_on_c, 0, 73, 126
1, 194880, Note_on_c, 0, 85, 126
1, 195107, Note_on_c, 0, 73, 0
1, 195107, Note_on_c, 0, 85, 0
1, 195120, Note_on_c, 0, 71, 126
1, 195120, Note_on_c, 0, 75, 126
1, 195120, Note_on_c, 0, 83, 126
1, 195233, Note_on_c, 0, 71, 0
1, 195233, Note_on_c, 0, 75, 0
1, 195233, Note_on_c, 0, 83, 0
1, 195240, Note_on_c, 0, 70, 126
1, 195240, Note_on_c, 0, 82, 126
1, 195353, Note_on_c, 0, 70, 0
1, 195353, Note_on_c, 0, 82, 0
1, 195360, Note_on_c, 0, 71, 126
1, 195360, Note_on_c, 0, 75, 126
1, 195360, Note_on_c, 0, 83, 126
1, 195473, Note_on_c, 0, 71, 0
1, 195473, Note_on_c, 0, 75, 0
1, 195473, Note_on_c, 0, 83, 0
1, 195480, Note_on_c, 0, 73, 126
1, 195480, Note_on_c, 0, 85, 126
1, 195593, Note_on_c, 0, 73, 0
1, 195593, Note_on_c, 0, 85, 0
1, 195600, Note_on_c, 0, 75, 126
1, 195600, Note_on_c, 0, 87, 126
1, 195827, Note_on_c, 0, 75, 0
1, 195827, Note_on_c, 0, 87, 0
1, 195840, Note_on_c, 0, 73, 126
1, 195840, Note_on_c, 0, 85, 126
1, 195953, Note_on_c, 0, 73, 0
1, 195953, Note_on_c, 0, 85, 0
1, 195960, Note_on_c, 0, 71, 126
1, 195960, Note_on_c, 0, 83, 126
1, 196073, Note_on_c, 0, 71, 0
1, 196073, Note_on_c, 0, 83, 0
1, 196080, Note_on_c, 0, 70, 126
1, 196080, Note_on_c, 0, 75, 126
1, 196080, Note_on_c, 0, 82, 126
1, 196193, Note_on_c, 0, 70, 0
1, 196193, Note_on_c, 0, 75, 0
1, 196193, Note_on_c, 0, 82, 0
1, 196200, Note_on_c, 0, 71, 126
1, 196200, Note_on_c, 0, 83, 126
1, 196313, Note_on_c, 0, 71, 0
1, 196313, Note_on_c, 0, 83, 0
1, 196320, Note_on_c, 0, 73, 126
1, 196320, Note_on_c, 0, 85, 126
1, 196547, Note_on_c, 0, 73, 0
1, 196547, Note_on_c, 0, 85, 0
1, 196560, Note_on_c, 0, 71, 126
1, 196560, Note_on_c, 0, 75, 126
1, 196560, Note_on_c, 0, 83, 126
1, 196673, Note_on_c, 0, 71, 0
1, 196673, Note_on_c, 0, 75, 0
1, 196673, Note_on_c, 0, 83, 0
1, 196680, Note_on_c, 0, 70, 126
1, 196680, Note_on_c, 0, 82, 126
1, 196793, Note_on_c, 0, 70, 0
1, 196793, Note_on_c, 0, 82, 0
1, 196800, Note_on_c, 0, 71, 126
1, 196800, Note_on_c, 0, 75, 126
1, 196800, Note_on_c, 0, 83, 126
1, 196913, Note_on_c, 0, 71, 0
1, 196913, Note_on_c, 0, 75, 0
1, 196913, Note_on_c, 0, 83, 0
1, 196920, Note_on_c, 0, 70, 126
1, 196920, Note_on_c, 0, 82, 126
1, 197033, Note_on_c, 0, 70, 0
1, 197033, Note_on_c, 0, 82, 0
1, 197040, Note_on_c, 0, 68, 126
1, 197040, Note_on_c, 0, 80, 126
1, 197267, Note_on_c, 0, 68, 0
1, 197267, Note_on_c, 0, 80, 0
1, 197280, Note_on_c, 0, 83, 126
1, 197280, Note_on_c, 0, 87, 126
1, 197280, Note_on_c, 0, 95, 126
1, 197507, Note_on_c, 0, 83, 0
1, 197507, Note_on_c, 0, 87, 0
1, 197507, Note_on_c, 0, 95, 0
1, 197520, Note_on_c, 0, 82, 126
1, 197520, Note_on_c, 0, 87, 126
1, 197520, Note_on_c, 0, 94, 126
1, 197633, Note_on_c, 0, 82, 0
1, 197633, Note_on_c, 0, 87, 0
1, 197633, Note_on_c, 0, 94, 0
1, 197640, Note_on_c, 0, 83, 126
1, 197640, Note_on_c, 0, 95, 126
1, 197753, Note_on_c, 0, 83, 0
1, 197753, Note_on_c, 0, 95, 0
1, 197760, Note_on_c, 0, 85, 126
1, 197760, Note_on_c, 0, 97, 126
1, 197987, Note_on_c, 0, 85, 0
1, 197987, Note_on_c, 0, 97, 0
1, 198000, Note_on_c, 0, 83, 126
1, 198000, Note_on_c, 0, 87, 126
1, 198000, Note_on_c, 0, 95, 126
1, 198113, Note_on_c, 0, 83, 0
1, 198113, Note_on_c, 0, 87, 0
1, 198113, Note_on_c, 0, 95, 0
1, 198120, Note_on_c, 0, 82, 126
1, 198120, Note_on_c, 0, 94, 126
1, 198233, Note_on_c, 0, 82, 0
1, 198233, Note_on_c, 0, 94, 0
1, 198240, Note_on_c, 0, 83, 126
1, 198240, Note_on_c, 0, 87, 126
1, 198240, Note_on_c, 0, 95, 126
1, 198353, Note_on_c, 0, 83, 0
1, 198353, Note_on_c, 0, 87, 0
1, 198353, Note_on_c, 0, 95, 0
1, 198360, Note_on_c, 0, 85, 126
1, 198360, Note_on_c, 0, 97, 126
1, 198473, Note_on_c, 0, 85, 0
1, 198473, Note_on_c, 0, 97, 0
1, 198480, Note_on_c, 0, 87, 126
1, 198480, Note_on_c, 0, 99, 126
1, 198707, Note_on_c, 0, 87, 0
1, 198707, Note_on_c, 0, 99, 0
1, 198720, Note_on_c, 0, 85, 126
1, 198720, Note_on_c, 0, 97, 126
1, 198833, Note_on_c, 0, 85, 0
1, 198833, Note_on_c, 0, 97, 0
1, 198840, Note_on_c, 0, 83, 126
1, 198840, Note_on_c, 0, 95, 126
1, 198953, Note_on_c, 0, 83, 0
1, 198953, Note_on_c, 0, 95, 0
1, 198960, Note_on_c, 0, 82, 126
1, 198960, Note_on_c, 0, 87, 126
1, 198960, Note_on_c, 0, 94, 126
1, 199073, Note_on_c, 0, 82, 0
1, 199073, Note_on_c, 0, 87, 0
1, 199073, Note_on_c, 0, 94, 0
1, 199080, Note_on_c, 0, 83, 126
1, 199080, Note_on_c, 0, 95, 126
1, 199193, Note_on_c, 0, 83, 0
1, 199193, Note_on_c, 0, 95, 0
1, 199200, Note_on_c, 0, 85, 126
1, 199200, Note_on_c, 0, 97, 126
1, 199427, Note_on_c, 0, 85, 0
1, 199427, Note_on_c, 0, 97, 0
1, 199440, Note_on_c, 0, 83, 126
1, 199440, Note_on_c, 0, 87, 126
1, 199440, Note_on_c, 0, 95, 126
1, 199553, Note_on_c, 0, 83, 0
1, 199553, Note_on_c, 0, 87, 0
1, 199553, Note_on_c, 0, 95, 0
1, 199560, Note_on_c, 0, 82, 126
1, 199560, Note_on_c, 0, 94, 126
1, 199673, Note_on_c, 0, 82, 0
1, 199673, Note_on_c, 0, 94, 0
1, 199680, Note_on_c, 0, 83, 126
1, 199680, Note_on_c, 0, 87, 126
1, 199680, Note_on_c, 0, 95, 126
1, 199793, Note_on_c, 0, 83, 0
1, 199793, Note_on_c, 0, 87, 0
1, 199793, Note_on_c, 0, 95, 0
1, 199800, Note_on_c, 0, 82, 126
1, 199800, Note_on_c, 0, 94, 126
1, 199913, Note_on_c, 0, 82, 0
1, 199913, Note_on_c, 0, 94, 0
1, 199920, Note_on_c, 0, 80, 126
1, 199920, Note_on_c, 0, 92, 126
1, 200147, Note_on_c, 0, 80, 0
1, 200147, Note_on_c, 0, 92, 0
1, 200160, Note_on_c, 0, 63, 126
1, 200160, Note_on_c, 0, 71, 126
1, 200160, Note_on_c, 0, 75, 126
1, 200387, Note_on_c, 0, 63, 0
1, 200387, Note_on_c, 0, 71, 0
1, 200387, Note_on_c, 0, 75, 0
1, 200400, Note_on_c, 0, 63, 126
1, 200400, Note_on_c, 0, 70, 126
1, 200400, Note_on_c, 0, 75, 126
1, 200513, Note_on_c, 0, 63, 0
1, 200513, Note_on_c, 0, 70, 0
1, 200513, Note_on_c, 0, 75, 0
1, 200520, Note_on_c, 0, 63, 126
1, 200520, Note_on_c, 0, 71, 126
1, 200520, Note_on_c, 0, 75, 126
1, 200633, Note_on_c, 0, 63, 0
1, 200633, Note_on_c, 0, 71, 0
1, 200633, Note_on_c, 0, 75, 0
1, 200640, Note_on_c, 0, 63, 126
1, 200640, Note_on_c, 0, 73, 126
1, 200640, Note_on_c, 0, 75, 126
1, 200867, Note_on_c, 0, 63, 0
1, 200867, Note_on_c, 0, 73, 0
1, 200867, Note_on_c, 0, 75, 0
1, 200880, Note_on_c, 0, 63, 126
1, 200880, Note_on_c, 0, 71, 126
1, 200880, Note_on_c, 0, 75, 126
1, 200993, Note_on_c, 0, 63, 0
1, 200993, Note_on_c, 0, 71, 0
1, 200993, Note_on_c, 0, 75, 0
1, 201000, Note_on_c, 0, 63, 126
1, 201000, Note_on_c, 0, 70, 126
1, 201000, Note_on_c, 0, 75, 126
1, 201113, Note_on_c, 0, 63, 0
1, 201113, Note_on_c, 0, 70, 0
1, 201113, Note_on_c, 0, 75, 0
1, 201120, Note_on_c, 0, 63, 126
1, 201120, Note_on_c, 0, 71, 126
1, 201120, Note_on_c, 0, 75, 126
1, 201233, Note_on_c, 0, 63, 0
1, 201233, Note_on_c, 0, 71, 0
1, 201233, Note_on_c, 0, 75, 0
1, 201240, Note_on_c, 0, 63, 126
1, 201240, Note_on_c, 0, 70, 126
1, 201240, Note_on_c, 0, 75, 126
1, 201353, Note_on_c, 0, 63, 0
1, 201353, Note_on_c, 0, 70, 0
1, 201353, Note_on_c, 0, 75, 0
1, 201360, Note_on_c, 0, 63, 126
1, 201360, Note_on_c, 0, 68, 126
1, 201360, Note_on_c, 0, 75, 126
1, 201587, Note_on_c, 0, 63, 0
1, 201587, Note_on_c, 0, 68, 0
1, 201587, Note_on_c, 0, 75, 0
1, 201600, Note_on_c, 0, 75, 126
1, 201600, Note_on_c, 0, 80, 126
1, 201600, Note_on_c, 0, 87, 126
1, 201827, Note_on_c, 0, 75, 0
1, 201827, Note_on_c, 0, 80, 0
1, 201827, Note_on_c, 0, 87, 0
1, 201840, Note_on_c, 0, 63, 126
1, 201840, Note_on_c, 0, 70, 126
1, 201840, Note_on_c, 0, 75, 126
1, 201953, Note_on_c, 0, 63, 0
1, 201953, Note_on_c, 0, 70, 0
1, 201953, Note_on_c, 0, 75, 0
1, 201960, Note_on_c, 0, 63, 126
1, 201960, Note_on_c, 0, 71, 126
1, 201960, Note_on_c, 0, 75, 126
1, 202073, Note_on_c, 0, 63, 0
1, 202073, Note_on_c, 0, 71, 0
1, 202073, Note_on_c, 0, 75, 0
1, 202080, Note_on_c, 0, 63, 126
1, 202080, Note_on_c, 0, 73, 126
1, 202080, Note_on_c, 0, 75, 126
1, 202307, Note_on_c, 0, 63, 0
1, 202307, Note_on_c, 0, 73, 0
1, 202307, Note_on_c, 0, 75, 0
1, 202320, Note_on_c, 0, 63, 126
1, 202320, Note_on_c, 0, 71, 126
1, 202320, Note_on_c, 0, 75, 126
1, 202433, Note_on_c, 0, 63, 0
1, 202433, Note_on_c, 0, 71, 0
1, 202433, Note_on_c, 0, 75, 0
1, 202440, Note_on_c, 0, 63, 126
1, 202440, Note_on_c, 0, 70, 126
1, 202440, Note_on_c, 0, 75, 126
1, 202553, Note_on_c, 0, 63, 0
1, 202553, Note_on_c, 0, 70, 0
1, 202553, Note_on_c, 0, 75, 0
1, 202560, Note_on_c, 0, 63, 126
1, 202560, Note_on_c, 0, 71, 126
1, 202560, Note_on_c, 0, 75, 126
1, 202673, Note_on_c, 0, 63, 0
1, 202673, Note_on_c, 0, 71, 0
1, 202673, Note_on_c, 0, 75, 0
1, 202680, Note_on_c, 0, 63, 126
1, 202680, Note_on_c, 0, 70, 126
1, 202680, Note_on_c, 0, 75, 126
1, 202793, Note_on_c, 0, 63, 0
1, 202793, Note_on_c, 0, 70, 0
1, 202793, Note_on_c, 0, 75, 0
1, 202800, Note_on_c, 0, 63, 126
1, 202800, Note_on_c, 0, 68, 126
1, 202800, Note_on_c, 0, 75, 126
1, 203027, Note_on_c, 0, 63, 0
1, 203027, Note_on_c, 0, 68, 0
1, 203027, Note_on_c, 0, 75, 0
1, 203040, Note_on_c, 0, 75, 126
1, 203040, Note_on_c, 0, 80, 126
1, 203040, Note_on_c, 0, 87, 126
1, 203267, Note_on_c, 0, 75, 0
1, 203267, Note_on_c, 0, 80, 0
1, 203267, Note_on_c, 0, 87, 0
1, 203280, Note_on_c, 0, 63, 126
1, 203280, Note_on_c, 0, 71, 126
1, 203280, Note_on_c, 0, 75, 126
1, 203393, Note_on_c, 0, 63, 0
1, 203393, Note_on_c, 0, 71, 0
1, 203393, Note_on_c, 0, 75, 0
1, 203400, Note_on_c, 0, 63, 126
1, 203400, Note_on_c, 0, 70, 126
1, 203400, Note_on_c, 0, 75, 126
1, 203513, Note_on_c, 0, 63, 0
1, 203513, Note_on_c, 0, 70, 0
1, 203513, Note_on_c, 0, 75, 0
1, 203520, Note_on_c, 0, 63, 126
1, 203520, Note_on_c, 0, 68, 126
1, 203520, Note_on_c, 0, 75, 126
1, 203747, Note_on_c, 0, 63, 0
1, 203747, Note_on_c, 0, 68, 0
1, 203747, Note_on_c, 0, 75, 0
1, 203760, Note_on_c, 0, 80, 126
1, 203760, Note_on_c, 0, 87, 126
1, 203760, Note_on_c, 0, 92, 126
1, 203987, Note_on_c, 0, 80, 0
1, 203987, Note_on_c, 0, 87, 0
1, 203987, Note_on_c, 0, 92, 0
1, 204000, Note_on_c, 0, 63, 126
1, 204000, Note_on_c, 0, 71, 126
1, 204000, Note_on_c, 0, 75, 126
1, 204113, Note_on_c, 0, 63, 0
1, 204113, Note_on_c, 0, 71, 0
1, 204113, Note_on_c, 0, 75, 0
1, 204120, Note_on_c, 0, 63, 126
1, 204120, Note_on_c, 0, 70, 126
1, 204120, Note_on_c, 0, 75, 126
1, 204233, Note_on_c, 0, 63, 0
1, 204233, Note_on_c, 0, 70, 0
1, 204233, Note_on_c, 0, 75, 0
1, 204240, Note_on_c, 0, 63, 126
1, 204240, Note_on_c, 0, 68, 126
1, 204240, Note_on_c, 0, 75, 126
1, 204467, Note_on_c, 0, 63, 0
1, 204467, Note_on_c, 0, 68, 0
1, 204467, Note_on_c, 0, 75, 0
1, 204480, Note_on_c, 0, 83, 126
1, 204480, Note_on_c, 0, 87, 126
1, 204480, Note_on_c, 0, 95, 126
1, 204707, Note_on_c, 0, 83, 0
1, 204707, Note_on_c, 0, 87, 0
1, 204707, Note_on_c, 0, 95, 0
1, 204720, Note_on_c, 0, 63, 126
1, 204720, Note_on_c, 0, 71, 126
1, 204720, Note_on_c, 0, 75, 126
1, 204833, Note_on_c, 0, 63, 0
1, 204833, Note_on_c, 0, 71, 0
1, 204833, Note_on_c, 0, 75, 0
1, 204840, Note_on_c, 0, 63, 126
1, 204840, Note_on_c, 0, 70, 126
1, 204840, Note_on_c, 0, 75, 126
1, 204953, Note_on_c, 0, 63, 0
1, 204953, Note_on_c, 0, 70, 0
1, 204953, Note_on_c, 0, 75, 0
1, 204960, Note_on_c, 0, 63, 126
1, 204960, Note_on_c, 0, 68, 126
1, 204960, Note_on_c, 0, 75, 126
1, 205187, Note_on_c, 0, 63, 0
1, 205187, Note_on_c, 0, 68, 0
1, 205187, Note_on_c, 0, 75, 0
1, 205200, Note_on_c, 0, 87, 126
1, 205200, Note_on_c, 0, 92, 126
1, 205200, Note_on_c, 0, 99, 126
1, 205440, Tempo, 333333
1, 205655, Note_on_c, 0, 87, 0
1, 205655, Note_on_c, 0, 92, 0
1, 205655, Note_on_c, 0, 99, 0
1, 205680, Note_on_c, 0, 87, 126
1, 205680, Note_on_c, 0, 92, 126
1, 205680, Note_on_c, 0, 99, 126
1, 205907, Note_on_c, 0, 87, 0
1, 205907, Note_on_c, 0, 92, 0
1, 205907, Note_on_c, 0, 99, 0
1, 205920, Note_on_c, 0, 87, 126
1, 205920, Note_on_c, 0, 92, 126
1, 205920, Note_on_c, 0, 99, 126
1, 206147, Note_on_c, 0, 87, 0
1, 206147, Note_on_c, 0, 92, 0
1, 206147, Note_on_c, 0, 99, 0
1, 206160, Note_on_c, 0, 87, 126
1, 206160, Note_on_c, 0, 92, 126
1, 206160, Note_on_c, 0, 99, 126
1, 206387, Note_on_c, 0, 87, 0
1, 206387, Note_on_c, 0, 92, 0
1, 206387, Note_on_c, 0, 99, 0
1, 206400, Note_on_c, 0, 87, 126
1, 206400, Note_on_c, 0, 92, 126
1, 206400, Note_on_c, 0, 99, 126
1, 206627, Note_on_c, 0, 87, 0
1, 206627, Note_on_c, 0, 92, 0
1, 206627, Note_on_c, 0, 99, 0
1, 206640, Note_on_c, 0, 87, 126
1, 206640, Note_on_c, 0, 92, 126
1, 206640, Note_on_c, 0, 99, 126
1, 206867, Note_on_c, 0, 87, 0
1, 206867, Note_on_c, 0, 92, 0
1, 206867, Note_on_c, 0, 99, 0
1, 206880, Note_on_c, 0, 87, 126
1, 206880, Note_on_c, 0, 92, 126
1, 206880, Note_on_c, 0, 99, 126
1, 207335, Note_on_c, 0, 87, 0
1, 207335, Note_on_c, 0, 92, 0
1, 207335, Note_on_c, 0, 99, 0
1, 207600, Note_on_c, 0, 59, 126
1, 207600, Note_on_c, 0, 63, 126
1, 207600, Note_on_c, 0, 68, 126
1, 208055, Note_on_c, 0, 59, 0
1, 208055, Note_on_c, 0, 63, 0
1, 208055, Note_on_c, 0, 68, 0
1, 208320, Note_on_c, 0, 80, 126
1, 208320, Note_on_c, 0, 83, 126
1, 208320, Note_on_c, 0, 87, 126
1, 208320, Note_on_c, 0, 92, 126
1, 209687, Note_on_c, 0, 80, 0
1, 209687, Note_on_c, 0, 83, 0
1, 209687, Note_on_c, 0, 87, 0
1, 209687, Note_on_c, 0, 92, 0
1, 209688, End_track
2, 0, Start_track
2, 0, Key_signature, 0, "major"
2, 0, MIDI_port, 0
2, 2, Control_c, 0, 64, 127
2, 240, Note_on_c, 0, 63, 33
2, 240, Note_on_c, 0, 75, 33
2, 467, Note_on_c, 0, 63, 0
2, 467, Note_on_c, 0, 75, 0
2, 480, Note_on_c, 0, 63, 33
2, 480, Note_on_c, 0, 75, 33
2, 707, Note_on_c, 0, 63, 0
2, 707, Note_on_c, 0, 75, 0
2, 720, Note_on_c, 0, 63, 33
2, 720, Note_on_c, 0, 75, 33
2, 947, Note_on_c, 0, 63, 0
2, 947, Note_on_c, 0, 75, 0
2, 1441, Control_c, 0, 64, 0
2, 1442, Control_c, 0, 64, 127
2, 1680, Note_on_c, 0, 63, 33
2, 1680, Note_on_c, 0, 75, 33
2, 1907, Note_on_c, 0, 63, 0
2, 1907, Note_on_c, 0, 75, 0
2, 1920, Note_on_c, 0, 63, 33
2, 1920, Note_on_c, 0, 75, 33
2, 2147, Note_on_c, 0, 63, 0
2, 2147, Note_on_c, 0, 75, 0
2, 2160, Note_on_c, 0, 63, 33
2, 2160, Note_on_c, 0, 75, 33
2, 2387, Note_on_c, 0, 63, 0
2, 2387, Note_on_c, 0, 75, 0
2, 2881, Control_c, 0, 64, 0
2, 2882, Control_c, 0, 64, 127
2, 3120, Note_on_c, 0, 63, 33
2, 3120, Note_on_c, 0, 75, 33
2, 3347, Note_on_c, 0, 63, 0
2, 3347, Note_on_c, 0, 75, 0
2, 3840, Note_on_c, 0, 63, 33
2, 3840, Note_on_c, 0, 75, 33
2, 4067, Note_on_c, 0, 63, 0
2, 4067, Note_on_c, 0, 75, 0
2, 4321, Control_c, 0, 64, 0
2, 5760, Note_on_c, 0, 56, 64
2, 5823, Note_on_c, 0, 63, 64
2, 5887, Note_on_c, 0, 71, 64
2, 5998, Note_on_c, 0, 63, 0
2, 5998, Note_on_c, 0, 71, 0
2, 5999, Note_on_c, 0, 56, 0
2, 6480, Note_on_c, 0, 59, 64
2, 6543, Note_on_c, 0, 68, 64
2, 6607, Note_on_c, 0, 75, 64
2, 6718, Note_on_c, 0, 68, 0
2, 6718, Note_on_c, 0, 75, 0
2, 6719, Note_on_c, 0, 59, 0
2, 7200, Note_on_c, 0, 63, 64
2, 7263, Note_on_c, 0, 70, 64
2, 7327, Note_on_c, 0, 79, 64
2, 7438, Note_on_c, 0, 70, 0
2, 7438, Note_on_c, 0, 79, 0
2, 7439, Note_on_c, 0, 63, 0
2, 7920, Note_on_c, 0, 67, 64
2, 7983, Note_on_c, 0, 70, 64
2, 8158, Note_on_c, 0, 70, 0
2, 8159, Note_on_c, 0, 67, 0
2, 8640, Note_on_c, 0, 68, 64
2, 8867, Note_on_c, 0, 68, 0
2, 9360, Note_on_c, 0, 59, 64
2, 9423, Note_on_c, 0, 62, 64
2, 9487, Note_on_c, 0, 65, 64
2, 9598, Note_on_c, 0, 62, 0
2, 9598, Note_on_c, 0, 65, 0
2, 9599, Note_on_c, 0, 59, 0
2, 10080, Note_on_c, 0, 63, 64
2, 10143, Note_on_c, 0, 67, 64
2, 10318, Note_on_c, 0, 67, 0
2, 10319, Note_on_c, 0, 63, 0
2, 11520, Note_on_c, 0, 56, 64
2, 11583, Note_on_c, 0, 63, 64
2, 11647, Note_on_c, 0, 71, 64
2, 11758, Note_on_c, 0, 63, 0
2, 11758, Note_on_c, 0, 71, 0
2, 11759, Note_on_c, 0, 56, 0
2, 12240, Note_on_c, 0, 59, 64
2, 12303, Note_on_c, 0, 68, 64
2, 12367, Note_on_c, 0, 75, 64
2, 12478, Note_on_c, 0, 68, 0
2, 12478, Note_on_c, 0, 75, 0
2, 12479, Note_on_c, 0, 59, 0
2, 12960, Note_on_c, 0, 63, 64
2, 13023, Note_on_c, 0, 70, 64
2, 13087, Note_on_c, 0, 79, 64
2, 13198, Note_on_c, 0, 70, 0
2, 13198, Note_on_c, 0, 79, 0
2, 13199, Note_on_c, 0, 63, 0
2, 13680, Note_on_c, 0, 67, 64
2, 13743, Note_on_c, 0, 70, 64
2, 13918, Note_on_c, 0, 70, 0
2, 13919, Note_on_c, 0, 67, 0
2, 14400, Note_on_c, 0, 68, 64
2, 14400, Note_on_c, 0, 71, 64
2, 14627, Note_on_c, 0, 68, 0
2, 14627, Note_on_c, 0, 71, 0
2, 15120, Note_on_c, 0, 63, 64
2, 15120, Note_on_c, 0, 67, 64
2, 15120, Note_on_c, 0, 73, 64
2, 15347, Note_on_c, 0, 63, 0
2, 15347, Note_on_c, 0, 67, 0
2, 15347, Note_on_c, 0, 73, 0
2, 15840, Note_on_c, 0, 56, 64
2, 15842, Control_c, 0, 64, 127
2, 15953, Note_on_c, 0, 56, 0
2, 15960, Note_on_c, 0, 63, 64
2, 16073, Note_on_c, 0, 63, 0
2, 16080, Note_on_c, 0, 71, 64
2, 16193, Note_on_c, 0, 71, 0
2, 16200, Note_on_c, 0, 80, 64
2, 16313, Note_on_c, 0, 80, 0
2, 17280, Note_on_c, 0, 44, 64
2, 17281, Control_c, 0, 64, 0
2, 17507, Note_on_c, 0, 44, 0
2, 17520, Note_on_c, 0, 51, 64
2, 17520, Note_on_c, 0, 59, 64
2, 17747, Note_on_c, 0, 51, 0
2, 17747, Note_on_c, 0, 59, 0
2, 18000, Note_on_c, 0, 47, 64
2, 18227, Note_on_c, 0, 47, 0
2, 18240, Note_on_c, 0, 56, 64
2, 18240, Note_on_c, 0, 63, 64
2, 18467, Note_on_c, 0, 56, 0
2, 18467, Note_on_c, 0, 63, 0
2, 18720, Note_on_c, 0, 51, 64
2, 18947, Note_on_c, 0, 51, 0
2, 18960, Note_on_c, 0, 58, 64
2, 18960, Note_on_c, 0, 67, 64
2, 19187, Note_on_c, 0, 58, 0
2, 19187, Note_on_c, 0, 67, 0
2, 19440, Note_on_c, 0, 67, 64
2, 19440, Note_on_c, 0, 70, 64
2, 19667, Note_on_c, 0, 67, 0
2, 19667, Note_on_c, 0, 70, 0
2, 19680, Note_on_c, 0, 67, 64
2, 19680, Note_on_c, 0, 70, 64
2, 19907, Note_on_c, 0, 67, 0
2, 19907, Note_on_c, 0, 70, 0
2, 20160, Note_on_c, 0, 68, 64
2, 20387, Note_on_c, 0, 68, 0
2, 20400, Note_on_c, 0, 68, 64
2, 20627, Note_on_c, 0, 68, 0
2, 20880, Note_on_c, 0, 59, 64
2, 20880, Note_on_c, 0, 62, 64
2, 20880, Note_on_c, 0, 65, 64
2, 21107, Note_on_c, 0, 59, 0
2, 21107, Note_on_c, 0, 62, 0
2, 21107, Note_on_c, 0, 65, 0
2, 21120, Note_on_c, 0, 59, 64
2, 21120, Note_on_c, 0, 62, 64
2, 21120, Note_on_c, 0, 65, 64
2, 21347, Note_on_c, 0, 59, 0
2, 21347, Note_on_c, 0, 62, 0
2, 21347, Note_on_c, 0, 65, 0
2, 21600, Note_on_c, 0, 51, 64
2, 21600, Note_on_c, 0, 67, 64
2, 21827, Note_on_c, 0, 51, 0
2, 21827, Note_on_c, 0, 67, 0
2, 23040, Note_on_c, 0, 44, 64
2, 23267, Note_on_c, 0, 44, 0
2, 23280, Note_on_c, 0, 51, 64
2, 23280, Note_on_c, 0, 59, 64
2, 23507, Note_on_c, 0, 51, 0
2, 23507, Note_on_c, 0, 59, 0
2, 23760, Note_on_c, 0, 47, 64
2, 23987, Note_on_c, 0, 47, 0
2, 24000, Note_on_c, 0, 56, 64
2, 24000, Note_on_c, 0, 63, 64
2, 24227, Note_on_c, 0, 56, 0
2, 24227, Note_on_c, 0, 63, 0
2, 24480, Note_on_c, 0, 51, 64
2, 24707, Note_on_c, 0, 51, 0
2, 24720, Note_on_c, 0, 58, 64
2, 24720, Note_on_c, 0, 67, 64
2, 24947, Note_on_c, 0, 58, 0
2, 24947, Note_on_c, 0, 67, 0
2, 25200, Note_on_c, 0, 61, 64
2, 25200, Note_on_c, 0, 68, 64
2, 25200, Note_on_c, 0, 70, 64
2, 25427, Note_on_c, 0, 61, 0
2, 25427, Note_on_c, 0, 68, 0
2, 25427, Note_on_c, 0, 70, 0
2, 25440, Note_on_c, 0, 63, 64
2, 25440, Note_on_c, 0, 68, 64
2, 25440, Note_on_c, 0, 70, 64
2, 25667, Note_on_c, 0, 63, 0
2, 25667, Note_on_c, 0, 68, 0
2, 25667, Note_on_c, 0, 70, 0
2, 25680, Note_on_c, 0, 64, 64
2, 25680, Note_on_c, 0, 68, 64
2, 25680, Note_on_c, 0, 70, 64
2, 25907, Note_on_c, 0, 64, 0
2, 25907, Note_on_c, 0, 68, 0
2, 25907, Note_on_c, 0, 70, 0
2, 25920, Note_on_c, 0, 63, 64
2, 25920, Note_on_c, 0, 68, 64
2, 25920, Note_on_c, 0, 71, 64
2, 26147, Note_on_c, 0, 63, 0
2, 26147, Note_on_c, 0, 68, 0
2, 26147, Note_on_c, 0, 71, 0
2, 26640, Note_on_c, 0, 51, 64
2, 26640, Note_on_c, 0, 61, 64
2, 26640, Note_on_c, 0, 67, 64
2, 26867, Note_on_c, 0, 51, 0
2, 26867, Note_on_c, 0, 61, 0
2, 26867, Note_on_c, 0, 67, 0
2, 27360, Note_on_c, 0, 44, 64
2, 27362, Control_c, 0, 64, 127
2, 27473, Note_on_c, 0, 44, 0
2, 27480, Note_on_c, 0, 59, 64
2, 27593, Note_on_c, 0, 59, 0
2, 28080, Note_on_c, 0, 83, 64
2, 28193, Note_on_c, 0, 83, 0
2, 28200, Note_on_c, 0, 87, 64
2, 28313, Note_on_c, 0, 87, 0
2, 28320, Note_on_c, 0, 92, 64
2, 28433, Note_on_c, 0, 92, 0
2, 28801, Control_c, 0, 64, 0
2, 29280, Note_on_c, 0, 71, 49
2, 29507, Note_on_c, 0, 71, 0
2, 29520, Note_on_c, 0, 71, 52
2, 29747, Note_on_c, 0, 71, 0
2, 29760, Note_on_c, 0, 71, 56
2, 29987, Note_on_c, 0, 71, 0
2, 30000, Note_on_c, 0, 71, 60
2, 30227, Note_on_c, 0, 71, 0
2, 30480, Note_on_c, 0, 59, 64
2, 30480, Note_on_c, 0, 63, 64
2, 30707, Note_on_c, 0, 59, 0
2, 30707, Note_on_c, 0, 63, 0
2, 30720, Note_on_c, 0, 54, 64
2, 30720, Note_on_c, 0, 63, 64
2, 30720, Note_on_c, 0, 66, 64
2, 30947, Note_on_c, 0, 54, 0
2, 30947, Note_on_c, 0, 63, 0
2, 30947, Note_on_c, 0, 66, 0
2, 31200, Note_on_c, 0, 58, 64
2, 31200, Note_on_c, 0, 64, 64
2, 31427, Note_on_c, 0, 58, 0
2, 31427, Note_on_c, 0, 64, 0
2, 31440, Note_on_c, 0, 54, 64
2, 31440, Note_on_c, 0, 64, 64
2, 31440, Note_on_c, 0, 66, 64
2, 31667, Note_on_c, 0, 54, 0
2, 31667, Note_on_c, 0, 64, 0
2, 31667, Note_on_c, 0, 66, 0
2, 31920, Note_on_c, 0, 59, 54
2, 31920, Note_on_c, 0, 63, 54
2, 32147, Note_on_c, 0, 59, 0
2, 32147, Note_on_c, 0, 63, 0
2, 32160, Note_on_c, 0, 75, 49
2, 32387, Note_on_c, 0, 75, 0
2, 32400, Note_on_c, 0, 75, 52
2, 32627, Note_on_c, 0, 75, 0
2, 32640, Note_on_c, 0, 75, 56
2, 32867, Note_on_c, 0, 75, 0
2, 32880, Note_on_c, 0, 75, 60
2, 33107, Note_on_c, 0, 75, 0
2, 33360, Note_on_c, 0, 63, 64
2, 33360, Note_on_c, 0, 66, 64
2, 33587, Note_on_c, 0, 63, 0
2, 33587, Note_on_c, 0, 66, 0
2, 33600, Note_on_c, 0, 58, 64
2, 33600, Note_on_c, 0, 66, 64
2, 33600, Note_on_c, 0, 70, 64
2, 33827, Note_on_c, 0, 58, 0
2, 33827, Note_on_c, 0, 66, 0
2, 33827, Note_on_c, 0, 70, 0
2, 34080, Note_on_c, 0, 62, 64
2, 34080, Note_on_c, 0, 68, 64
2, 34307, Note_on_c, 0, 62, 0
2, 34307, Note_on_c, 0, 68, 0
2, 34320, Note_on_c, 0, 58, 64
2, 34320, Note_on_c, 0, 68, 64
2, 34320, Note_on_c, 0, 70, 64
2, 34547, Note_on_c, 0, 58, 0
2, 34547, Note_on_c, 0, 68, 0
2, 34547, Note_on_c, 0, 70, 0
2, 34800, Note_on_c, 0, 63, 64
2, 34800, Note_on_c, 0, 66, 64
2, 35027, Note_on_c, 0, 63, 0
2, 35027, Note_on_c, 0, 66, 0
2, 35040, Note_on_c, 0, 78, 64
2, 35267, Note_on_c, 0, 78, 0
2, 35280, Note_on_c, 0, 78, 64
2, 35507, Note_on_c, 0, 78, 0
2, 35520, Note_on_c, 0, 78, 64
2, 35747, Note_on_c, 0, 78, 0
2, 35760, Note_on_c, 0, 78, 64
2, 35987, Note_on_c, 0, 78, 0
2, 36240, Note_on_c, 0, 66, 64
2, 36240, Note_on_c, 0, 70, 64
2, 36467, Note_on_c, 0, 66, 0
2, 36467, Note_on_c, 0, 70, 0
2, 36480, Note_on_c, 0, 61, 64
2, 36480, Note_on_c, 0, 70, 64
2, 36480, Note_on_c, 0, 73, 64
2, 36707, Note_on_c, 0, 61, 0
2, 36707, Note_on_c, 0, 70, 0
2, 36707, Note_on_c, 0, 73, 0
2, 36960, Note_on_c, 0, 65, 64
2, 36960, Note_on_c, 0, 71, 64
2, 37187, Note_on_c, 0, 65, 0
2, 37187, Note_on_c, 0, 71, 0
2, 37200, Note_on_c, 0, 61, 64
2, 37200, Note_on_c, 0, 71, 64
2, 37200, Note_on_c, 0, 73, 64
2, 37427, Note_on_c, 0, 61, 0
2, 37427, Note_on_c, 0, 71, 0
2, 37427, Note_on_c, 0, 73, 0
2, 37440, Note_on_c, 0, 78, 64
2, 37553, Note_on_c, 0, 78, 0
2, 37560, Note_on_c, 0, 80, 64
2, 37673, Note_on_c, 0, 80, 0
2, 37680, Note_on_c, 0, 66, 64
2, 37680, Note_on_c, 0, 82, 64
2, 37907, Note_on_c, 0, 66, 0
2, 37907, Note_on_c, 0, 82, 0
2, 37920, Note_on_c, 0, 80, 64
2, 38033, Note_on_c, 0, 80, 0
2, 38040, Note_on_c, 0, 78, 64
2, 38153, Note_on_c, 0, 78, 0
2, 38160, Note_on_c, 0, 71, 64
2, 38273, Note_on_c, 0, 71, 0
2, 38280, Note_on_c, 0, 73, 64
2, 38393, Note_on_c, 0, 73, 0
2, 38400, Note_on_c, 0, 59, 64
2, 38400, Note_on_c, 0, 75, 64
2, 38627, Note_on_c, 0, 59, 0
2, 38627, Note_on_c, 0, 75, 0
2, 38640, Note_on_c, 0, 73, 64
2, 38753, Note_on_c, 0, 73, 0
2, 38760, Note_on_c, 0, 71, 64
2, 38873, Note_on_c, 0, 71, 0
2, 38880, Note_on_c, 0, 70, 64
2, 38993, Note_on_c, 0, 70, 0
2, 39000, Note_on_c, 0, 71, 64
2, 39113, Note_on_c, 0, 71, 0
2, 39120, Note_on_c, 0, 61, 64
2, 39120, Note_on_c, 0, 73, 64
2, 39347, Note_on_c, 0, 61, 0
2, 39347, Note_on_c, 0, 73, 0
2, 39360, Note_on_c, 0, 71, 64
2, 39473, Note_on_c, 0, 71, 0
2, 39480, Note_on_c, 0, 70, 64
2, 39593, Note_on_c, 0, 70, 0
2, 39600, Note_on_c, 0, 68, 64
2, 39713, Note_on_c, 0, 68, 0
2, 39720, Note_on_c, 0, 70, 64
2, 39833, Note_on_c, 0, 70, 0
2, 39840, Note_on_c, 0, 61, 64
2, 39840, Note_on_c, 0, 71, 64
2, 40067, Note_on_c, 0, 61, 0
2, 40067, Note_on_c, 0, 71, 0
2, 40080, Note_on_c, 0, 66, 64
2, 40193, Note_on_c, 0, 66, 0
2, 40200, Note_on_c, 0, 68, 64
2, 40313, Note_on_c, 0, 68, 0
2, 40320, Note_on_c, 0, 54, 64
2, 40320, Note_on_c, 0, 66, 64
2, 40547, Note_on_c, 0, 54, 0
2, 40547, Note_on_c, 0, 66, 0
2, 40560, Note_on_c, 0, 66, 64
2, 40673, Note_on_c, 0, 66, 0
2, 40680, Note_on_c, 0, 78, 64
2, 40793, Note_on_c, 0, 78, 0
2, 40800, Note_on_c, 0, 67, 64
2, 40913, Note_on_c, 0, 67, 0
2, 40920, Note_on_c, 0, 79, 64
2, 41033, Note_on_c, 0, 79, 0
2, 41280, Note_on_c, 0, 64, 64
2, 41280, Note_on_c, 0, 68, 64
2, 41507, Note_on_c, 0, 64, 0
2, 41507, Note_on_c, 0, 68, 0
2, 41520, Note_on_c, 0, 63, 64
2, 41520, Note_on_c, 0, 68, 64
2, 41747, Note_on_c, 0, 63, 0
2, 41747, Note_on_c, 0, 68, 0
2, 41760, Note_on_c, 0, 61, 64
2, 41760, Note_on_c, 0, 68, 64
2, 41987, Note_on_c, 0, 61, 0
2, 41987, Note_on_c, 0, 68, 0
2, 42000, Note_on_c, 0, 75, 64
2, 42227, Note_on_c, 0, 75, 0
2, 42240, Note_on_c, 0, 73, 64
2, 42467, Note_on_c, 0, 73, 0
2, 42480, Note_on_c, 0, 56, 64
2, 42480, Note_on_c, 0, 72, 64
2, 42707, Note_on_c, 0, 56, 0
2, 42707, Note_on_c, 0, 72, 0
2, 42720, Note_on_c, 0, 70, 64
2, 42947, Note_on_c, 0, 70, 0
2, 42960, Note_on_c, 0, 72, 64
2, 43187, Note_on_c, 0, 72, 0
2, 43200, Note_on_c, 0, 61, 64
2, 43200, Note_on_c, 0, 73, 64
2, 43427, Note_on_c, 0, 61, 0
2, 43427, Note_on_c, 0, 73, 0
2, 43680, Note_on_c, 0, 67, 64
2, 43793, Note_on_c, 0, 67, 0
2, 43800, Note_on_c, 0, 79, 64
2, 43913, Note_on_c, 0, 79, 0
2, 44160, Note_on_c, 0, 63, 64
2, 44160, Note_on_c, 0, 66, 64
2, 44387, Note_on_c, 0, 63, 0
2, 44387, Note_on_c, 0, 66, 0
2, 44400, Note_on_c, 0, 61, 64
2, 44400, Note_on_c, 0, 66, 64
2, 44627, Note_on_c, 0, 61, 0
2, 44627, Note_on_c, 0, 66, 0
2, 44640, Note_on_c, 0, 59, 64
2, 44640, Note_on_c, 0, 66, 64
2, 44867, Note_on_c, 0, 59, 0
2, 44867, Note_on_c, 0, 66, 0
2, 44880, Note_on_c, 0, 73, 64
2, 45107, Note_on_c, 0, 73, 0
2, 45120, Note_on_c, 0, 71, 64
2, 45347, Note_on_c, 0, 71, 0
2, 45360, Note_on_c, 0, 54, 64
2, 45360, Note_on_c, 0, 70, 64
2, 45587, Note_on_c, 0, 54, 0
2, 45587, Note_on_c, 0, 70, 0
2, 45600, Note_on_c, 0, 68, 64
2, 45827, Note_on_c, 0, 68, 0
2, 45840, Note_on_c, 0, 70, 64
2, 46067, Note_on_c, 0, 70, 0
2, 46080, Note_on_c, 0, 59, 64
2, 46080, Note_on_c, 0, 71, 64
2, 46307, Note_on_c, 0, 59, 0
2, 46307, Note_on_c, 0, 71, 0
2, 46320, Note_on_c, 0, 75, 64
2, 46547, Note_on_c, 0, 75, 0
2, 46560, Note_on_c, 0, 62, 64
2, 46673, Note_on_c, 0, 62, 0
2, 46680, Note_on_c, 0, 74, 64
2, 46793, Note_on_c, 0, 74, 0
2, 47040, Note_on_c, 0, 55, 64
2, 47040, Note_on_c, 0, 63, 64
2, 47267, Note_on_c, 0, 55, 0
2, 47267, Note_on_c, 0, 63, 0
2, 47280, Note_on_c, 0, 56, 64
2, 47280, Note_on_c, 0, 65, 64
2, 47507, Note_on_c, 0, 56, 0
2, 47507, Note_on_c, 0, 65, 0
2, 47520, Note_on_c, 0, 58, 64
2, 47520, Note_on_c, 0, 67, 64
2, 47747, Note_on_c, 0, 58, 0
2, 47747, Note_on_c, 0, 67, 0
2, 47760, Note_on_c, 0, 58, 64
2, 47760, Note_on_c, 0, 67, 64
2, 47987, Note_on_c, 0, 58, 0
2, 47987, Note_on_c, 0, 67, 0
2, 48000, Note_on_c, 0, 59, 64
2, 48000, Note_on_c, 0, 68, 64
2, 48227, Note_on_c, 0, 59, 0
2, 48227, Note_on_c, 0, 68, 0
2, 48240, Note_on_c, 0, 61, 64
2, 48240, Note_on_c, 0, 70, 64
2, 48467, Note_on_c, 0, 61, 0
2, 48467, Note_on_c, 0, 70, 0
2, 48720, Note_on_c, 0, 62, 64
2, 48720, Note_on_c, 0, 65, 64
2, 48947, Note_on_c, 0, 62, 0
2, 48947, Note_on_c, 0, 65, 0
2, 48960, Note_on_c, 0, 63, 64
2, 48960, Note_on_c, 0, 67, 64
2, 49187, Note_on_c, 0, 63, 0
2, 49187, Note_on_c, 0, 67, 0
2, 49440, Note_on_c, 0, 74, 64
2, 49553, Note_on_c, 0, 74, 0
2, 49560, Note_on_c, 0, 86, 64
2, 49673, Note_on_c, 0, 86, 0
2, 49920, Note_on_c, 0, 67, 64
2, 49920, Note_on_c, 0, 75, 64
2, 50147, Note_on_c, 0, 67, 0
2, 50147, Note_on_c, 0, 75, 0
2, 50160, Note_on_c, 0, 68, 64
2, 50160, Note_on_c, 0, 77, 64
2, 50387, Note_on_c, 0, 68, 0
2, 50387, Note_on_c, 0, 77, 0
2, 50400, Note_on_c, 0, 70, 64
2, 50400, Note_on_c, 0, 79, 64
2, 50627, Note_on_c, 0, 70, 0
2, 50627, Note_on_c, 0, 79, 0
2, 50640, Note_on_c, 0, 70, 64
2, 50640, Note_on_c, 0, 79, 64
2, 50867, Note_on_c, 0, 70, 0
2, 50867, Note_on_c, 0, 79, 0
2, 50880, Note_on_c, 0, 71, 64
2, 50880, Note_on_c, 0, 80, 64
2, 51107, Note_on_c, 0, 71, 0
2, 51107, Note_on_c, 0, 80, 0
2, 51120, Note_on_c, 0, 73, 64
2, 51120, Note_on_c, 0, 81, 64
2, 51347, Note_on_c, 0, 73, 0
2, 51347, Note_on_c, 0, 81, 0
2, 51600, Note_on_c, 0, 74, 64
2, 51600, Note_on_c, 0, 77, 64
2, 51827, Note_on_c, 0, 74, 0
2, 51827, Note_on_c, 0, 77, 0
2, 51840, Note_on_c, 0, 75, 64
2, 51840, Note_on_c, 0, 79, 64
2, 52067, Note_on_c, 0, 75, 0
2, 52067, Note_on_c, 0, 79, 0
2, 52080, Note_on_c, 0, 74, 64
2, 52193, Note_on_c, 0, 74, 0
2, 52200, Note_on_c, 0, 86, 64
2, 52313, Note_on_c, 0, 86, 0
2, 52320, Note_on_c, 0, 75, 64
2, 52433, Note_on_c, 0, 75, 0
2, 52440, Note_on_c, 0, 87, 64
2, 52553, Note_on_c, 0, 87, 0
2, 52800, Note_on_c, 0, 75, 64
2, 52913, Note_on_c, 0, 75, 0
2, 52920, Note_on_c, 0, 87, 64
2, 53033, Note_on_c, 0, 87, 0
2, 53040, Note_on_c, 0, 76, 64
2, 53153, Note_on_c, 0, 76, 0
2, 53160, Note_on_c, 0, 88, 64
2, 53273, Note_on_c, 0, 88, 0
2, 53520, Note_on_c, 0, 76, 64
2, 53633, Note_on_c, 0, 76, 0
2, 53640, Note_on_c, 0, 88, 64
2, 53753, Note_on_c, 0, 88, 0
2, 53760, Note_on_c, 0, 77, 64
2, 53873, Note_on_c, 0, 77, 0
2, 53880, Note_on_c, 0, 89, 64
2, 53993, Note_on_c, 0, 89, 0
2, 54240, Note_on_c, 0, 78, 64
2, 54353, Note_on_c, 0, 78, 0
2, 54360, Note_on_c, 0, 90, 64
2, 54473, Note_on_c, 0, 90, 0
2, 54720, Note_on_c, 0, 79, 64
2, 54833, Note_on_c, 0, 79, 0
2, 54840, Note_on_c, 0, 91, 64
2, 54953, Note_on_c, 0, 91, 0
2, 55200, Note_on_c, 0, 80, 64
2, 55313, Note_on_c, 0, 80, 0
2, 55320, Note_on_c, 0, 92, 64
2, 55433, Note_on_c, 0, 92, 0
2, 59520, Note_on_c, 0, 63, 49
2, 59747, Note_on_c, 0, 63, 0
2, 59760, Note_on_c, 0, 75, 49
2, 59987, Note_on_c, 0, 75, 0
2, 60240, Note_on_c, 0, 73, 49
2, 60467, Note_on_c, 0, 73, 0
2, 60480, Note_on_c, 0, 56, 49
2, 60480, Note_on_c, 0, 71, 49
2, 60707, Note_on_c, 0, 56, 0
2, 60707, Note_on_c, 0, 71, 0
2, 60720, Note_on_c, 0, 71, 49
2, 60947, Note_on_c, 0, 71, 0
2, 60960, Note_on_c, 0, 70, 49
2, 61187, Note_on_c, 0, 70, 0
2, 61200, Note_on_c, 0, 59, 49
2, 61200, Note_on_c, 0, 68, 49
2, 61427, Note_on_c, 0, 59, 0
2, 61427, Note_on_c, 0, 68, 0
2, 61440, Note_on_c, 0, 67, 49
2, 61667, Note_on_c, 0, 67, 0
2, 61680, Note_on_c, 0, 68, 49
2, 61907, Note_on_c, 0, 68, 0
2, 61920, Note_on_c, 0, 67, 49
2, 61983, Note_on_c, 0, 70, 49
2, 62158, Note_on_c, 0, 70, 0
2, 62159, Note_on_c, 0, 67, 0
2, 62160, Note_on_c, 0, 63, 49
2, 62387, Note_on_c, 0, 63, 0
2, 62400, Note_on_c, 0, 63, 49
2, 62627, Note_on_c, 0, 63, 0
2, 62640, Note_on_c, 0, 55, 49
2, 62640, Note_on_c, 0, 64, 49
2, 62867, Note_on_c, 0, 55, 0
2, 62867, Note_on_c, 0, 64, 0
2, 62880, Note_on_c, 0, 63, 49
2, 63107, Note_on_c, 0, 63, 0
2, 63120, Note_on_c, 0, 61, 49
2, 63347, Note_on_c, 0, 61, 0
2, 63360, Note_on_c, 0, 56, 49
2, 63360, Note_on_c, 0, 59, 49
2, 63587, Note_on_c, 0, 56, 0
2, 63587, Note_on_c, 0, 59, 0
2, 63600, Note_on_c, 0, 59, 49
2, 63827, Note_on_c, 0, 59, 0
2, 63840, Note_on_c, 0, 58, 49
2, 64067, Note_on_c, 0, 58, 0
2, 64080, Note_on_c, 0, 52, 49
2, 64080, Note_on_c, 0, 56, 49
2, 64307, Note_on_c, 0, 52, 0
2, 64307, Note_on_c, 0, 56, 0
2, 64320, Note_on_c, 0, 55, 49
2, 64547, Note_on_c, 0, 55, 0
2, 64560, Note_on_c, 0, 56, 49
2, 64787, Note_on_c, 0, 56, 0
2, 64800, Note_on_c, 0, 55, 49
2, 64800, Note_on_c, 0, 58, 49
2, 65027, Note_on_c, 0, 55, 0
2, 65027, Note_on_c, 0, 58, 0
2, 65040, Note_on_c, 0, 51, 49
2, 65159, Note_on_c, 0, 51, 0
2, 65400, Note_on_c, 0, 63, 49
2, 65513, Note_on_c, 0, 63, 0
2, 65520, Note_on_c, 0, 75, 49
2, 65747, Note_on_c, 0, 75, 0
2, 66000, Note_on_c, 0, 73, 49
2, 66227, Note_on_c, 0, 73, 0
2, 66240, Note_on_c, 0, 56, 49
2, 66240, Note_on_c, 0, 71, 49
2, 66467, Note_on_c, 0, 56, 0
2, 66467, Note_on_c, 0, 71, 0
2, 66480, Note_on_c, 0, 71, 49
2, 66707, Note_on_c, 0, 71, 0
2, 66720, Note_on_c, 0, 70, 49
2, 66947, Note_on_c, 0, 70, 0
2, 66960, Note_on_c, 0, 59, 49
2, 66960, Note_on_c, 0, 68, 49
2, 67187, Note_on_c, 0, 59, 0
2, 67187, Note_on_c, 0, 68, 0
2, 67200, Note_on_c, 0, 67, 49
2, 67427, Note_on_c, 0, 67, 0
2, 67440, Note_on_c, 0, 68, 49
2, 67667, Note_on_c, 0, 68, 0
2, 67680, Note_on_c, 0, 67, 49
2, 67680, Note_on_c, 0, 70, 49
2, 67907, Note_on_c, 0, 67, 0
2, 67907, Note_on_c, 0, 70, 0
2, 67920, Note_on_c, 0, 63, 49
2, 68147, Note_on_c, 0, 63, 0
2, 68400, Note_on_c, 0, 61, 49
2, 68400, Note_on_c, 0, 68, 49
2, 68400, Note_on_c, 0, 70, 49
2, 68627, Note_on_c, 0, 61, 0
2, 68627, Note_on_c, 0, 68, 0
2, 68627, Note_on_c, 0, 70, 0
2, 68640, Note_on_c, 0, 63, 49
2, 68640, Note_on_c, 0, 68, 49
2, 68640, Note_on_c, 0, 70, 49
2, 68867, Note_on_c, 0, 63, 0
2, 68867, Note_on_c, 0, 68, 0
2, 68867, Note_on_c, 0, 70, 0
2, 68880, Note_on_c, 0, 64, 49
2, 68880, Note_on_c, 0, 68, 49
2, 68880, Note_on_c, 0, 70, 49
2, 69107, Note_on_c, 0, 64, 0
2, 69107, Note_on_c, 0, 68, 0
2, 69107, Note_on_c, 0, 70, 0
2, 69120, Note_on_c, 0, 63, 49
2, 69120, Note_on_c, 0, 68, 49
2, 69120, Note_on_c, 0, 71, 49
2, 69347, Note_on_c, 0, 63, 0
2, 69347, Note_on_c, 0, 68, 0
2, 69347, Note_on_c, 0, 71, 0
2, 69840, Note_on_c, 0, 63, 49
2, 69840, Note_on_c, 0, 67, 49
2, 69840, Note_on_c, 0, 73, 49
2, 70067, Note_on_c, 0, 63, 0
2, 70067, Note_on_c, 0, 67, 0
2, 70067, Note_on_c, 0, 73, 0
2, 70560, Note_on_c, 0, 56, 49
2, 70562, Control_c, 0, 64, 127
2, 70673, Note_on_c, 0, 56, 0
2, 70680, Note_on_c, 0, 63, 49
2, 70793, Note_on_c, 0, 63, 0
2, 70800, Note_on_c, 0, 71, 49
2, 70913, Note_on_c, 0, 71, 0
2, 70920, Note_on_c, 0, 80, 49
2, 71033, Note_on_c, 0, 80, 0
2, 72000, Note_on_c, 0, 44, 80
2, 72001, Control_c, 0, 64, 0
2, 72227, Note_on_c, 0, 44, 0
2, 72240, Note_on_c, 0, 51, 80
2, 72240, Note_on_c, 0, 59, 80
2, 72359, Note_on_c, 0, 51, 0
2, 72359, Note_on_c, 0, 59, 0
2, 72480, Note_on_c, 0, 51, 80
2, 72480, Note_on_c, 0, 59, 80
2, 72599, Note_on_c, 0, 51, 0
2, 72599, Note_on_c, 0, 59, 0
2, 72720, Note_on_c, 0, 47, 80
2, 72947, Note_on_c, 0, 47, 0
2, 72960, Note_on_c, 0, 56, 80
2, 72960, Note_on_c, 0, 63, 80
2, 73079, Note_on_c, 0, 56, 0
2, 73079, Note_on_c, 0, 63, 0
2, 73200, Note_on_c, 0, 56, 80
2, 73200, Note_on_c, 0, 63, 80
2, 73319, Note_on_c, 0, 56, 0
2, 73319, Note_on_c, 0, 63, 0
2, 73440, Note_on_c, 0, 51, 80
2, 73667, Note_on_c, 0, 51, 0
2, 73680, Note_on_c, 0, 58, 80
2, 73680, Note_on_c, 0, 67, 80
2, 73799, Note_on_c, 0, 58, 0
2, 73799, Note_on_c, 0, 67, 0
2, 73920, Note_on_c, 0, 58, 80
2, 73920, Note_on_c, 0, 67, 80
2, 74039, Note_on_c, 0, 58, 0
2, 74039, Note_on_c, 0, 67, 0
2, 74160, Note_on_c, 0, 55, 80
2, 74387, Note_on_c, 0, 55, 0
2, 74400, Note_on_c, 0, 63, 80
2, 74400, Note_on_c, 0, 70, 80
2, 74519, Note_on_c, 0, 63, 0
2, 74519, Note_on_c, 0, 70, 0
2, 74640, Note_on_c, 0, 63, 80
2, 74640, Note_on_c, 0, 70, 80
2, 74759, Note_on_c, 0, 63, 0
2, 74759, Note_on_c, 0, 70, 0
2, 74880, Note_on_c, 0, 56, 80
2, 75107, Note_on_c, 0, 56, 0
2, 75120, Note_on_c, 0, 63, 80
2, 75120, Note_on_c, 0, 68, 80
2, 75239, Note_on_c, 0, 63, 0
2, 75239, Note_on_c, 0, 68, 0
2, 75360, Note_on_c, 0, 63, 80
2, 75360, Note_on_c, 0, 68, 80
2, 75479, Note_on_c, 0, 63, 0
2, 75479, Note_on_c, 0, 68, 0
2, 75600, Note_on_c, 0, 59, 80
2, 75827, Note_on_c, 0, 59, 0
2, 75840, Note_on_c, 0, 62, 80
2, 75840, Note_on_c, 0, 65, 80
2, 75959, Note_on_c, 0, 62, 0
2, 75959, Note_on_c, 0, 65, 0
2, 76080, Note_on_c, 0, 62, 80
2, 76080, Note_on_c, 0, 65, 80
2, 76199, Note_on_c, 0, 62, 0
2, 76199, Note_on_c, 0, 65, 0
2, 76320, Note_on_c, 0, 51, 80
2, 76547, Note_on_c, 0, 51, 0
2, 76560, Note_on_c, 0, 58, 80
2, 76560, Note_on_c, 0, 67, 80
2, 76787, Note_on_c, 0, 58, 0
2, 76787, Note_on_c, 0, 67, 0
2, 77760, Note_on_c, 0, 44, 80
2, 77987, Note_on_c, 0, 44, 0
2, 78000, Note_on_c, 0, 51, 80
2, 78000, Note_on_c, 0, 59, 80
2, 78119, Note_on_c, 0, 51, 0
2, 78119, Note_on_c, 0, 59, 0
2, 78240, Note_on_c, 0, 51, 80
2, 78240, Note_on_c, 0, 59, 80
2, 78359, Note_on_c, 0, 51, 0
2, 78359, Note_on_c, 0, 59, 0
2, 78480, Note_on_c, 0, 47, 80
2, 78707, Note_on_c, 0, 47, 0
2, 78720, Note_on_c, 0, 56, 80
2, 78720, Note_on_c, 0, 63, 80
2, 78839, Note_on_c, 0, 56, 0
2, 78839, Note_on_c, 0, 63, 0
2, 78960, Note_on_c, 0, 56, 80
2, 78960, Note_on_c, 0, 63, 80
2, 79079, Note_on_c, 0, 56, 0
2, 79079, Note_on_c, 0, 63, 0
2, 79200, Note_on_c, 0, 51, 80
2, 79427, Note_on_c, 0, 51, 0
2, 79440, Note_on_c, 0, 58, 80
2, 79440, Note_on_c, 0, 67, 80
2, 79667, Note_on_c, 0, 58, 0
2, 79667, Note_on_c, 0, 67, 0
2, 79680, Note_on_c, 0, 67, 80
2, 79680, Note_on_c, 0, 70, 80
2, 79907, Note_on_c, 0, 67, 0
2, 79907, Note_on_c, 0, 70, 0
2, 79920, Note_on_c, 0, 68, 64
2, 79920, Note_on_c, 0, 71, 64
2, 80147, Note_on_c, 0, 68, 0
2, 80147, Note_on_c, 0, 71, 0
2, 80160, Note_on_c, 0, 66, 64
2, 80160, Note_on_c, 0, 70, 64
2, 80387, Note_on_c, 0, 66, 0
2, 80387, Note_on_c, 0, 70, 0
2, 80400, Note_on_c, 0, 64, 64
2, 80400, Note_on_c, 0, 68, 64
2, 80627, Note_on_c, 0, 64, 0
2, 80627, Note_on_c, 0, 68, 0
2, 80640, Note_on_c, 0, 63, 64
2, 80640, Note_on_c, 0, 68, 64
2, 80640, Note_on_c, 0, 71, 64
2, 80867, Note_on_c, 0, 63, 0
2, 80867, Note_on_c, 0, 68, 0
2, 80867, Note_on_c, 0, 71, 0
2, 82080, Note_on_c, 0, 51, 64
2, 82080, Note_on_c, 0, 61, 64
2, 82080, Note_on_c, 0, 67, 64
2, 82307, Note_on_c, 0, 51, 0
2, 82307, Note_on_c, 0, 61, 0
2, 82307, Note_on_c, 0, 67, 0
2, 83520, Note_on_c, 0, 44, 64
2, 83520, Note_on_c, 0, 51, 64
2, 83520, Note_on_c, 0, 59, 64
2, 83520, Note_on_c, 0, 68, 64
2, 83747, Note_on_c, 0, 44, 0
2, 83747, Note_on_c, 0, 51, 0
2, 83747, Note_on_c, 0, 59, 0
2, 83747, Note_on_c, 0, 68, 0
2, 85440, Note_on_c, 0, 68, 64
2, 85553, Note_on_c, 0, 68, 0
2, 85560, Note_on_c, 0, 67, 64
2, 85673, Note_on_c, 0, 67, 0
2, 85680, Note_on_c, 0, 66, 64
2, 85793, Note_on_c, 0, 66, 0
2, 85800, Note_on_c, 0, 65, 64
2, 85913, Note_on_c, 0, 65, 0
2, 85920, Note_on_c, 0, 64, 64
2, 86033, Note_on_c, 0, 64, 0
2, 86040, Note_on_c, 0, 63, 64
2, 86153, Note_on_c, 0, 63, 0
2, 86160, Note_on_c, 0, 62, 64
2, 86273, Note_on_c, 0, 62, 0
2, 86280, Note_on_c, 0, 61, 64
2, 86393, Note_on_c, 0, 61, 0
2, 86640, Note_on_c, 0, 59, 64
2, 86640, Note_on_c, 0, 63, 64
2, 86867, Note_on_c, 0, 59, 0
2, 86867, Note_on_c, 0, 63, 0
2, 86880, Note_on_c, 0, 54, 64
2, 86880, Note_on_c, 0, 63, 64
2, 86880, Note_on_c, 0, 66, 64
2, 87107, Note_on_c, 0, 54, 0
2, 87107, Note_on_c, 0, 63, 0
2, 87107, Note_on_c, 0, 66, 0
2, 87360, Note_on_c, 0, 58, 64
2, 87360, Note_on_c, 0, 64, 64
2, 87587, Note_on_c, 0, 58, 0
2, 87587, Note_on_c, 0, 64, 0
2, 87600, Note_on_c, 0, 54, 64
2, 87600, Note_on_c, 0, 58, 64
2, 87600, Note_on_c, 0, 66, 64
2, 87827, Note_on_c, 0, 54, 0
2, 87827, Note_on_c, 0, 58, 0
2, 87827, Note_on_c, 0, 66, 0
2, 87840, Note_on_c, 0, 47, 64
2, 88067, Note_on_c, 0, 47, 0
2, 88080, Note_on_c, 0, 54, 64
2, 88080, Note_on_c, 0, 63, 64
2, 88199, Note_on_c, 0, 54, 0
2, 88199, Note_on_c, 0, 63, 0
2, 88320, Note_on_c, 0, 71, 64
2, 88547, Note_on_c, 0, 71, 0
2, 88560, Note_on_c, 0, 70, 64
2, 88673, Note_on_c, 0, 70, 0
2, 88680, Note_on_c, 0, 69, 64
2, 88793, Note_on_c, 0, 69, 0
2, 88800, Note_on_c, 0, 68, 64
2, 88913, Note_on_c, 0, 68, 0
2, 88920, Note_on_c, 0, 67, 64
2, 89033, Note_on_c, 0, 67, 0
2, 89040, Note_on_c, 0, 66, 64
2, 89153, Note_on_c, 0, 66, 0
2, 89160, Note_on_c, 0, 65, 64
2, 89273, Note_on_c, 0, 65, 0
2, 89520, Note_on_c, 0, 63, 64
2, 89520, Note_on_c, 0, 66, 64
2, 89747, Note_on_c, 0, 63, 0
2, 89747, Note_on_c, 0, 66, 0
2, 89760, Note_on_c, 0, 58, 64
2, 89760, Note_on_c, 0, 66, 64
2, 89760, Note_on_c, 0, 70, 64
2, 89987, Note_on_c, 0, 58, 0
2, 89987, Note_on_c, 0, 66, 0
2, 89987, Note_on_c, 0, 70, 0
2, 90240, Note_on_c, 0, 62, 64
2, 90240, Note_on_c, 0, 68, 64
2, 90467, Note_on_c, 0, 62, 0
2, 90467, Note_on_c, 0, 68, 0
2, 90480, Note_on_c, 0, 58, 64
2, 90480, Note_on_c, 0, 62, 64
2, 90480, Note_on_c, 0, 70, 64
2, 90707, Note_on_c, 0, 58, 0
2, 90707, Note_on_c, 0, 62, 0
2, 90707, Note_on_c, 0, 70, 0
2, 90720, Note_on_c, 0, 51, 64
2, 90947, Note_on_c, 0, 51, 0
2, 90960, Note_on_c, 0, 58, 64
2, 90960, Note_on_c, 0, 66, 64
2, 91187, Note_on_c, 0, 58, 0
2, 91187, Note_on_c, 0, 66, 0
2, 91200, Note_on_c, 0, 75, 64
2, 91313, Note_on_c, 0, 75, 0
2, 91320, Note_on_c, 0, 74, 64
2, 91433, Note_on_c, 0, 74, 0
2, 91440, Note_on_c, 0, 73, 64
2, 91553, Note_on_c, 0, 73, 0
2, 91560, Note_on_c, 0, 72, 64
2, 91673, Note_on_c, 0, 72, 0
2, 91680, Note_on_c, 0, 71, 64
2, 91793, Note_on_c, 0, 71, 0
2, 91800, Note_on_c, 0, 70, 64
2, 91913, Note_on_c, 0, 70, 0
2, 91920, Note_on_c, 0, 69, 64
2, 92033, Note_on_c, 0, 69, 0
2, 92040, Note_on_c, 0, 68, 64
2, 92153, Note_on_c, 0, 68, 0
2, 92400, Note_on_c, 0, 66, 64
2, 92400, Note_on_c, 0, 70, 64
2, 92627, Note_on_c, 0, 66, 0
2, 92627, Note_on_c, 0, 70, 0
2, 92640, Note_on_c, 0, 61, 64
2, 92640, Note_on_c, 0, 70, 64
2, 92640, Note_on_c, 0, 73, 64
2, 92867, Note_on_c, 0, 61, 0
2, 92867, Note_on_c, 0, 70, 0
2, 92867, Note_on_c, 0, 73, 0
2, 93120, Note_on_c, 0, 65, 64
2, 93120, Note_on_c, 0, 71, 64
2, 93347, Note_on_c, 0, 65, 0
2, 93347, Note_on_c, 0, 71, 0
2, 93360, Note_on_c, 0, 61, 64
2, 93360, Note_on_c, 0, 65, 64
2, 93360, Note_on_c, 0, 73, 64
2, 93587, Note_on_c, 0, 61, 0
2, 93587, Note_on_c, 0, 65, 0
2, 93587, Note_on_c, 0, 73, 0
2, 93600, Note_on_c, 0, 66, 64
2, 93827, Note_on_c, 0, 66, 0
2, 93840, Note_on_c, 0, 78, 64
2, 93840, Note_on_c, 0, 82, 64
2, 93953, Note_on_c, 0, 78, 0
2, 93953, Note_on_c, 0, 82, 0
2, 93960, Note_on_c, 0, 80, 64
2, 93960, Note_on_c, 0, 83, 64
2, 94073, Note_on_c, 0, 80, 0
2, 94073, Note_on_c, 0, 83, 0
2, 94080, Note_on_c, 0, 82, 64
2, 94080, Note_on_c, 0, 85, 64
2, 94307, Note_on_c, 0, 82, 0
2, 94307, Note_on_c, 0, 85, 0
2, 94320, Note_on_c, 0, 59, 64
2, 94547, Note_on_c, 0, 59, 0
2, 94560, Note_on_c, 0, 71, 64
2, 94560, Note_on_c, 0, 80, 64
2, 94673, Note_on_c, 0, 71, 0
2, 94673, Note_on_c, 0, 80, 0
2, 94680, Note_on_c, 0, 73, 64
2, 94680, Note_on_c, 0, 82, 64
2, 94793, Note_on_c, 0, 73, 0
2, 94793, Note_on_c, 0, 82, 0
2, 94800, Note_on_c, 0, 75, 64
2, 94800, Note_on_c, 0, 83, 64
2, 95027, Note_on_c, 0, 75, 0
2, 95027, Note_on_c, 0, 83, 0
2, 95040, Note_on_c, 0, 61, 64
2, 95267, Note_on_c, 0, 61, 0
2, 95280, Note_on_c, 0, 70, 64
2, 95280, Note_on_c, 0, 78, 64
2, 95393, Note_on_c, 0, 70, 0
2, 95393, Note_on_c, 0, 78, 0
2, 95400, Note_on_c, 0, 71, 64
2, 95400, Note_on_c, 0, 80, 64
2, 95513, Note_on_c, 0, 71, 0
2, 95513, Note_on_c, 0, 80, 0
2, 95520, Note_on_c, 0, 73, 64
2, 95520, Note_on_c, 0, 82, 64
2, 95747, Note_on_c, 0, 73, 0
2, 95747, Note_on_c, 0, 82, 0
2, 95760, Note_on_c, 0, 61, 64
2, 95987, Note_on_c, 0, 61, 0
2, 96000, Note_on_c, 0, 68, 64
2, 96000, Note_on_c, 0, 77, 64
2, 96113, Note_on_c, 0, 68, 0
2, 96113, Note_on_c, 0, 77, 0
2, 96120, Note_on_c, 0, 70, 64
2, 96120, Note_on_c, 0, 78, 64
2, 96233, Note_on_c, 0, 70, 0
2, 96233, Note_on_c, 0, 78, 0
2, 96240, Note_on_c, 0, 71, 64
2, 96240, Note_on_c, 0, 80, 64
2, 96467, Note_on_c, 0, 71, 0
2, 96467, Note_on_c, 0, 80, 0
2, 96480, Note_on_c, 0, 66, 64
2, 96480, Note_on_c, 0, 73, 64
2, 96480, Note_on_c, 0, 82, 64
2, 96707, Note_on_c, 0, 66, 0
2, 96707, Note_on_c, 0, 73, 0
2, 96707, Note_on_c, 0, 82, 0
2, 97440, Note_on_c, 0, 64, 64
2, 97440, Note_on_c, 0, 80, 64
2, 97667, Note_on_c, 0, 64, 0
2, 97667, Note_on_c, 0, 80, 0
2, 97680, Note_on_c, 0, 63, 64
2, 97680, Note_on_c, 0, 78, 64
2, 97907, Note_on_c, 0, 63, 0
2, 97907, Note_on_c, 0, 78, 0
2, 97920, Note_on_c, 0, 61, 64
2, 97920, Note_on_c, 0, 76, 64
2, 98147, Note_on_c, 0, 61, 0
2, 98147, Note_on_c, 0, 76, 0
2, 98160, Note_on_c, 0, 87, 64
2, 98387, Note_on_c, 0, 87, 0
2, 98400, Note_on_c, 0, 85, 64
2, 98627, Note_on_c, 0, 85, 0
2, 98640, Note_on_c, 0, 84, 64
2, 98867, Note_on_c, 0, 84, 0
2, 98880, Note_on_c, 0, 82, 64
2, 99107, Note_on_c, 0, 82, 0
2, 99120, Note_on_c, 0, 84, 64
2, 99347, Note_on_c, 0, 84, 0
2, 99360, Note_on_c, 0, 73, 64
2, 99360, Note_on_c, 0, 85, 64
2, 99587, Note_on_c, 0, 73, 0
2, 99587, Note_on_c, 0, 85, 0
2, 99600, Note_on_c, 0, 88, 64
2, 99827, Note_on_c, 0, 88, 0
2, 100320, Note_on_c, 0, 63, 64
2, 100320, Note_on_c, 0, 78, 64
2, 100547, Note_on_c, 0, 63, 0
2, 100547, Note_on_c, 0, 78, 0
2, 100560, Note_on_c, 0, 61, 64
2, 100560, Note_on_c, 0, 76, 64
2, 100787, Note_on_c, 0, 61, 0
2, 100787, Note_on_c, 0, 76, 0
2, 100800, Note_on_c, 0, 59, 64
2, 100800, Note_on_c, 0, 75, 64
2, 101027, Note_on_c, 0, 59, 0
2, 101027, Note_on_c, 0, 75, 0
2, 101040, Note_on_c, 0, 85, 64
2, 101267, Note_on_c, 0, 85, 0
2, 101280, Note_on_c, 0, 83, 64
2, 101507, Note_on_c, 0, 83, 0
2, 101520, Note_on_c, 0, 66, 64
2, 101520, Note_on_c, 0, 82, 64
2, 101747, Note_on_c, 0, 66, 0
2, 101747, Note_on_c, 0, 82, 0
2, 101760, Note_on_c, 0, 80, 64
2, 101987, Note_on_c, 0, 80, 0
2, 102000, Note_on_c, 0, 82, 64
2, 102227, Note_on_c, 0, 82, 0
2, 102240, Note_on_c, 0, 71, 64
2, 102240, Note_on_c, 0, 83, 64
2, 102467, Note_on_c, 0, 71, 0
2, 102467, Note_on_c, 0, 83, 0
2, 102480, Note_on_c, 0, 87, 64
2, 102707, Note_on_c, 0, 87, 0
2, 103200, Note_on_c, 0, 63, 64
2, 103200, Note_on_c, 0, 67, 64
2, 103200, Note_on_c, 0, 75, 64
2, 103427, Note_on_c, 0, 63, 0
2, 103427, Note_on_c, 0, 67, 0
2, 103427, Note_on_c, 0, 75, 0
2, 103440, Note_on_c, 0, 65, 64
2, 103440, Note_on_c, 0, 68, 64
2, 103440, Note_on_c, 0, 74, 64
2, 103667, Note_on_c, 0, 65, 0
2, 103667, Note_on_c, 0, 68, 0
2, 103667, Note_on_c, 0, 74, 0
2, 103680, Note_on_c, 0, 67, 64
2, 103680, Note_on_c, 0, 70, 64
2, 103680, Note_on_c, 0, 73, 64
2, 103907, Note_on_c, 0, 67, 0
2, 103907, Note_on_c, 0, 70, 0
2, 103907, Note_on_c, 0, 73, 0
2, 104400, Note_on_c, 0, 68, 64
2, 104400, Note_on_c, 0, 71, 64
2, 104400, Note_on_c, 0, 76, 64
2, 104627, Note_on_c, 0, 68, 0
2, 104627, Note_on_c, 0, 71, 0
2, 104627, Note_on_c, 0, 76, 0
2, 105120, Note_on_c, 0, 63, 64
2, 105183, Note_on_c, 0, 79, 64
2, 105358, Note_on_c, 0, 79, 0
2, 105359, Note_on_c, 0, 63, 0
2, 106080, Note_on_c, 0, 63, 64
2, 106080, Note_on_c, 0, 67, 64
2, 106080, Note_on_c, 0, 75, 64
2, 106307, Note_on_c, 0, 63, 0
2, 106307, Note_on_c, 0, 67, 0
2, 106307, Note_on_c, 0, 75, 0
2, 106320, Note_on_c, 0, 65, 64
2, 106320, Note_on_c, 0, 68, 64
2, 106320, Note_on_c, 0, 74, 64
2, 106547, Note_on_c, 0, 65, 0
2, 106547, Note_on_c, 0, 68, 0
2, 106547, Note_on_c, 0, 74, 0
2, 106560, Note_on_c, 0, 67, 64
2, 106560, Note_on_c, 0, 70, 64
2, 106560, Note_on_c, 0, 73, 64
2, 106787, Note_on_c, 0, 67, 0
2, 106787, Note_on_c, 0, 70, 0
2, 106787, Note_on_c, 0, 73, 0
2, 107280, Note_on_c, 0, 68, 64
2, 107280, Note_on_c, 0, 71, 64
2, 107280, Note_on_c, 0, 76, 64
2, 107507, Note_on_c, 0, 68, 0
2, 107507, Note_on_c, 0, 71, 0
2, 107507, Note_on_c, 0, 76, 0
2, 108000, Note_on_c, 0, 63, 64
2, 108000, Note_on_c, 0, 70, 64
2, 108000, Note_on_c, 0, 79, 64
2, 108227, Note_on_c, 0, 63, 0
2, 108227, Note_on_c, 0, 70, 0
2, 108227, Note_on_c, 0, 79, 0
2, 108720, Note_on_c, 0, 56, 64
2, 108720, Note_on_c, 0, 71, 64
2, 108947, Note_on_c, 0, 56, 0
2, 108947, Note_on_c, 0, 71, 0
2, 109440, Note_on_c, 0, 51, 64
2, 109440, Note_on_c, 0, 67, 64
2, 109667, Note_on_c, 0, 51, 0
2, 109667, Note_on_c, 0, 67, 0
2, 110160, Note_on_c, 0, 44, 64
2, 110160, Note_on_c, 0, 59, 64
2, 110387, Note_on_c, 0, 44, 0
2, 110387, Note_on_c, 0, 59, 0
2, 112920, Note_on_c, 0, 43, 64
2, 112980, Note_on_c, 0, 58, 64
2, 113040, Note_on_c, 0, 61, 64
2, 113261, Note_on_c, 0, 43, 0
2, 113264, Note_on_c, 0, 58, 0
2, 113267, Note_on_c, 0, 61, 0
2, 120240, Note_on_c, 0, 75, 49
2, 120467, Note_on_c, 0, 75, 0
2, 120480, Note_on_c, 0, 87, 49
2, 120707, Note_on_c, 0, 87, 0
2, 120960, Note_on_c, 0, 85, 49
2, 121187, Note_on_c, 0, 85, 0
2, 121200, Note_on_c, 0, 68, 49
2, 121200, Note_on_c, 0, 83, 49
2, 121427, Note_on_c, 0, 68, 0
2, 121427, Note_on_c, 0, 83, 0
2, 121440, Note_on_c, 0, 83, 49
2, 121667, Note_on_c, 0, 83, 0
2, 121680, Note_on_c, 0, 82, 49
2, 121907, Note_on_c, 0, 82, 0
2, 121920, Note_on_c, 0, 71, 49
2, 121920, Note_on_c, 0, 80, 49
2, 122147, Note_on_c, 0, 71, 0
2, 122147, Note_on_c, 0, 80, 0
2, 122160, Note_on_c, 0, 79, 49
2, 122387, Note_on_c, 0, 79, 0
2, 122400, Note_on_c, 0, 80, 49
2, 122627, Note_on_c, 0, 80, 0
2, 122640, Note_on_c, 0, 79, 49
2, 122640, Note_on_c, 0, 82, 49
2, 122867, Note_on_c, 0, 79, 0
2, 122867, Note_on_c, 0, 82, 0
2, 122880, Note_on_c, 0, 75, 49
2, 123107, Note_on_c, 0, 75, 0
2, 123120, Note_on_c, 0, 75, 49
2, 123347, Note_on_c, 0, 75, 0
2, 123360, Note_on_c, 0, 67, 49
2, 123360, Note_on_c, 0, 70, 49
2, 123360, Note_on_c, 0, 76, 49
2, 123587, Note_on_c, 0, 67, 0
2, 123587, Note_on_c, 0, 70, 0
2, 123587, Note_on_c, 0, 76, 0
2, 123600, Note_on_c, 0, 75, 49
2, 123827, Note_on_c, 0, 75, 0
2, 123840, Note_on_c, 0, 73, 49
2, 124067, Note_on_c, 0, 73, 0
2, 124080, Note_on_c, 0, 68, 49
2, 124080, Note_on_c, 0, 71, 49
2, 124307, Note_on_c, 0, 68, 0
2, 124307, Note_on_c, 0, 71, 0
2, 124320, Note_on_c, 0, 68, 49
2, 124320, Note_on_c, 0, 71, 49
2, 124547, Note_on_c, 0, 68, 0
2, 124547, Note_on_c, 0, 71, 0
2, 124560, Note_on_c, 0, 66, 49
2, 124560, Note_on_c, 0, 70, 49
2, 124787, Note_on_c, 0, 66, 0
2, 124787, Note_on_c, 0, 70, 0
2, 124800, Note_on_c, 0, 64, 49
2, 124800, Note_on_c, 0, 68, 49
2, 125027, Note_on_c, 0, 64, 0
2, 125027, Note_on_c, 0, 68, 0
2, 125040, Note_on_c, 0, 67, 49
2, 125267, Note_on_c, 0, 67, 0
2, 125280, Note_on_c, 0, 68, 49
2, 125507, Note_on_c, 0, 68, 0
2, 125520, Note_on_c, 0, 67, 49
2, 125520, Note_on_c, 0, 70, 49
2, 125747, Note_on_c, 0, 67, 0
2, 125747, Note_on_c, 0, 70, 0
2, 125760, Note_on_c, 0, 63, 49
2, 125987, Note_on_c, 0, 63, 0
2, 126120, Note_on_c, 0, 63, 49
2, 126233, Note_on_c, 0, 63, 0
2, 126240, Note_on_c, 0, 75, 51
2, 126467, Note_on_c, 0, 75, 0
2, 126480, Note_on_c, 0, 75, 55
2, 126707, Note_on_c, 0, 75, 0
2, 126720, Note_on_c, 0, 73, 59
2, 126947, Note_on_c, 0, 73, 0
2, 126960, Note_on_c, 0, 56, 64
2, 126960, Note_on_c, 0, 71, 64
2, 127187, Note_on_c, 0, 56, 0
2, 127187, Note_on_c, 0, 71, 0
2, 127200, Note_on_c, 0, 71, 64
2, 127427, Note_on_c, 0, 71, 0
2, 127440, Note_on_c, 0, 70, 64
2, 127667, Note_on_c, 0, 70, 0
2, 127680, Note_on_c, 0, 59, 64
2, 127680, Note_on_c, 0, 68, 64
2, 127907, Note_on_c, 0, 59, 0
2, 127907, Note_on_c, 0, 68, 0
2, 127920, Note_on_c, 0, 67, 64
2, 128147, Note_on_c, 0, 67, 0
2, 128160, Note_on_c, 0, 68, 64
2, 128387, Note_on_c, 0, 68, 0
2, 128400, Note_on_c, 0, 67, 64
2, 128400, Note_on_c, 0, 70, 64
2, 128627, Note_on_c, 0, 67, 0
2, 128627, Note_on_c, 0, 70, 0
2, 128640, Note_on_c, 0, 63, 64
2, 128867, Note_on_c, 0, 63, 0
2, 128880, Note_on_c, 0, 63, 64
2, 129107, Note_on_c, 0, 63, 0
2, 129120, Note_on_c, 0, 59, 64
2, 129120, Note_on_c, 0, 68, 64
2, 129347, Note_on_c, 0, 59, 0
2, 129347, Note_on_c, 0, 68, 0
2, 129360, Note_on_c, 0, 60, 64
2, 129360, Note_on_c, 0, 66, 64
2, 129587, Note_on_c, 0, 60, 0
2, 129587, Note_on_c, 0, 66, 0
2, 129600, Note_on_c, 0, 61, 64
2, 129600, Note_on_c, 0, 64, 64
2, 129827, Note_on_c, 0, 61, 0
2, 129827, Note_on_c, 0, 64, 0
2, 129840, Note_on_c, 0, 63, 64
2, 130067, Note_on_c, 0, 63, 0
2, 130560, Note_on_c, 0, 63, 64
2, 130787, Note_on_c, 0, 63, 0
2, 131280, Note_on_c, 0, 56, 64
2, 131282, Control_c, 0, 64, 127
2, 131393, Note_on_c, 0, 56, 0
2, 131400, Note_on_c, 0, 63, 64
2, 131456, Note_on_c, 0, 63, 0
2, 131460, Note_on_c, 0, 71, 64
2, 131516, Note_on_c, 0, 71, 0
2, 131520, Note_on_c, 0, 80, 64
2, 131633, Note_on_c, 0, 80, 0
2, 132720, Note_on_c, 0, 32, 80
2, 132720, Note_on_c, 0, 44, 80
2, 132721, Control_c, 0, 64, 0
2, 132947, Note_on_c, 0, 32, 0
2, 132947, Note_on_c, 0, 44, 0
2, 132960, Note_on_c, 0, 51, 80
2, 132960, Note_on_c, 0, 59, 80
2, 132960, Note_on_c, 0, 63, 80
2, 133079, Note_on_c, 0, 51, 0
2, 133079, Note_on_c, 0, 59, 0
2, 133079, Note_on_c, 0, 63, 0
2, 133200, Note_on_c, 0, 56, 80
2, 133200, Note_on_c, 0, 59, 80
2, 133200, Note_on_c, 0, 63, 80
2, 133319, Note_on_c, 0, 56, 0
2, 133319, Note_on_c, 0, 59, 0
2, 133319, Note_on_c, 0, 63, 0
2, 133440, Note_on_c, 0, 35, 80
2, 133440, Note_on_c, 0, 47, 80
2, 133667, Note_on_c, 0, 35, 0
2, 133667, Note_on_c, 0, 47, 0
2, 133680, Note_on_c, 0, 51, 80
2, 133680, Note_on_c, 0, 59, 80
2, 133680, Note_on_c, 0, 63, 80
2, 133799, Note_on_c, 0, 51, 0
2, 133799, Note_on_c, 0, 59, 0
2, 133799, Note_on_c, 0, 63, 0
2, 133920, Note_on_c, 0, 56, 80
2, 133920, Note_on_c, 0, 59, 80
2, 133920, Note_on_c, 0, 63, 80
2, 134039, Note_on_c, 0, 56, 0
2, 134039, Note_on_c, 0, 59, 0
2, 134039, Note_on_c, 0, 63, 0
2, 134160, Note_on_c, 0, 39, 80
2, 134160, Note_on_c, 0, 51, 80
2, 134387, Note_on_c, 0, 39, 0
2, 134387, Note_on_c, 0, 51, 0
2, 134400, Note_on_c, 0, 55, 80
2, 134400, Note_on_c, 0, 63, 80
2, 134400, Note_on_c, 0, 67, 80
2, 134627, Note_on_c, 0, 55, 0
2, 134627, Note_on_c, 0, 63, 0
2, 134627, Note_on_c, 0, 67, 0
2, 134640, Note_on_c, 0, 58, 80
2, 134640, Note_on_c, 0, 63, 80
2, 134640, Note_on_c, 0, 67, 80
2, 134867, Note_on_c, 0, 58, 0
2, 134867, Note_on_c, 0, 63, 0
2, 134867, Note_on_c, 0, 67, 0
2, 134880, Note_on_c, 0, 43, 80
2, 135107, Note_on_c, 0, 43, 0
2, 135120, Note_on_c, 0, 61, 80
2, 135120, Note_on_c, 0, 63, 80
2, 135120, Note_on_c, 0, 70, 80
2, 135347, Note_on_c, 0, 61, 0
2, 135347, Note_on_c, 0, 63, 0
2, 135347, Note_on_c, 0, 70, 0
2, 135360, Note_on_c, 0, 58, 80
2, 135360, Note_on_c, 0, 63, 80
2, 135360, Note_on_c, 0, 70, 80
2, 135587, Note_on_c, 0, 58, 0
2, 135587, Note_on_c, 0, 63, 0
2, 135587, Note_on_c, 0, 70, 0
2, 135600, Note_on_c, 0, 44, 80
2, 135827, Note_on_c, 0, 44, 0
2, 135840, Note_on_c, 0, 63, 80
2, 135840, Note_on_c, 0, 68, 80
2, 136067, Note_on_c, 0, 63, 0
2, 136067, Note_on_c, 0, 68, 0
2, 136080, Note_on_c, 0, 59, 80
2, 136080, Note_on_c, 0, 63, 80
2, 136307, Note_on_c, 0, 59, 0
2, 136307, Note_on_c, 0, 63, 0
2, 136320, Note_on_c, 0, 40, 80
2, 136547, Note_on_c, 0, 40, 0
2, 136560, Note_on_c, 0, 59, 80
2, 136560, Note_on_c, 0, 62, 80
2, 136787, Note_on_c, 0, 59, 0
2, 136787, Note_on_c, 0, 62, 0
2, 136800, Note_on_c, 0, 58, 80
2, 136800, Note_on_c, 0, 62, 80
2, 137027, Note_on_c, 0, 58, 0
2, 137027, Note_on_c, 0, 62, 0
2, 137040, Note_on_c, 0, 39, 80
2, 137267, Note_on_c, 0, 39, 0
2, 137280, Note_on_c, 0, 55, 80
2, 137280, Note_on_c, 0, 58, 80
2, 137507, Note_on_c, 0, 55, 0
2, 137507, Note_on_c, 0, 58, 0
2, 137520, Note_on_c, 0, 67, 80
2, 137520, Note_on_c, 0, 70, 80
2, 137747, Note_on_c, 0, 67, 0
2, 137747, Note_on_c, 0, 70, 0
2, 137760, Note_on_c, 0, 79, 80
2, 137760, Note_on_c, 0, 82, 80
2, 137987, Note_on_c, 0, 79, 0
2, 137987, Note_on_c, 0, 82, 0
2, 138480, Note_on_c, 0, 44, 80
2, 138707, Note_on_c, 0, 44, 0
2, 138720, Note_on_c, 0, 57, 80
2, 138720, Note_on_c, 0, 63, 80
2, 138720, Note_on_c, 0, 66, 80
2, 138947, Note_on_c, 0, 57, 0
2, 138947, Note_on_c, 0, 63, 0
2, 138947, Note_on_c, 0, 66, 0
2, 138960, Note_on_c, 0, 60, 80
2, 138960, Note_on_c, 0, 63, 80
2, 138960, Note_on_c, 0, 66, 80
2, 139187, Note_on_c, 0, 60, 0
2, 139187, Note_on_c, 0, 63, 0
2, 139187, Note_on_c, 0, 66, 0
2, 139200, Note_on_c, 0, 48, 80
2, 139427, Note_on_c, 0, 48, 0
2, 139440, Note_on_c, 0, 57, 80
2, 139440, Note_on_c, 0, 63, 80
2, 139440, Note_on_c, 0, 66, 80
2, 139667, Note_on_c, 0, 57, 0
2, 139667, Note_on_c, 0, 63, 0
2, 139667, Note_on_c, 0, 66, 0
2, 139680, Note_on_c, 0, 60, 80
2, 139680, Note_on_c, 0, 63, 80
2, 139680, Note_on_c, 0, 66, 80
2, 139907, Note_on_c, 0, 60, 0
2, 139907, Note_on_c, 0, 63, 0
2, 139907, Note_on_c, 0, 66, 0
2, 139920, Note_on_c, 0, 52, 80
2, 140147, Note_on_c, 0, 52, 0
2, 140160, Note_on_c, 0, 64, 80
2, 140160, Note_on_c, 0, 69, 80
2, 140387, Note_on_c, 0, 64, 0
2, 140387, Note_on_c, 0, 69, 0
2, 140400, Note_on_c, 0, 60, 80
2, 140400, Note_on_c, 0, 69, 80
2, 140627, Note_on_c, 0, 60, 0
2, 140627, Note_on_c, 0, 69, 0
2, 140640, Note_on_c, 0, 61, 80
2, 140640, Note_on_c, 0, 69, 80
2, 140867, Note_on_c, 0, 61, 0
2, 140867, Note_on_c, 0, 69, 0
2, 140880, Note_on_c, 0, 66, 80
2, 140880, Note_on_c, 0, 69, 80
2, 141107, Note_on_c, 0, 66, 0
2, 141107, Note_on_c, 0, 69, 0
2, 141120, Note_on_c, 0, 64, 80
2, 141120, Note_on_c, 0, 69, 80
2, 141347, Note_on_c, 0, 64, 0
2, 141347, Note_on_c, 0, 69, 0
2, 141360, Note_on_c, 0, 63, 80
2, 141360, Note_on_c, 0, 68, 80
2, 141360, Note_on_c, 0, 71, 80
2, 141587, Note_on_c, 0, 63, 0
2, 141587, Note_on_c, 0, 68, 0
2, 141587, Note_on_c, 0, 71, 0
2, 142800, Note_on_c, 0, 51, 80
2, 142800, Note_on_c, 0, 61, 80
2, 142800, Note_on_c, 0, 67, 80
2, 143027, Note_on_c, 0, 51, 0
2, 143027, Note_on_c, 0, 61, 0
2, 143027, Note_on_c, 0, 67, 0
2, 144240, Note_on_c, 0, 44, 49
2, 144242, Control_c, 0, 64, 127
2, 144315, Note_on_c, 0, 44, 0
2, 144320, Note_on_c, 0, 51, 49
2, 144395, Note_on_c, 0, 51, 0
2, 144400, Note_on_c, 0, 56, 49
2, 144475, Note_on_c, 0, 56, 0
2, 144720, Note_on_c, 0, 71, 49
2, 144795, Note_on_c, 0, 71, 0
2, 144800, Note_on_c, 0, 75, 49
2, 144875, Note_on_c, 0, 75, 0
2, 144880, Note_on_c, 0, 80, 49
2, 144955, Note_on_c, 0, 80, 0
2, 145681, Control_c, 0, 64, 0
2, 145800, Note_on_c, 0, 68, 64
2, 145913, Note_on_c, 0, 68, 0
2, 145920, Note_on_c, 0, 67, 70
2, 145920, Note_on_c, 0, 70, 70
2, 146033, Note_on_c, 0, 67, 0
2, 146033, Note_on_c, 0, 70, 0
2, 146040, Note_on_c, 0, 66, 76
2, 146040, Note_on_c, 0, 69, 76
2, 146153, Note_on_c, 0, 66, 0
2, 146153, Note_on_c, 0, 69, 0
2, 146160, Note_on_c, 0, 65, 83
2, 146160, Note_on_c, 0, 68, 83
2, 146273, Note_on_c, 0, 65, 0
2, 146273, Note_on_c, 0, 68, 0
2, 146280, Note_on_c, 0, 64, 89
2, 146280, Note_on_c, 0, 67, 89
2, 146393, Note_on_c, 0, 64, 0
2, 146393, Note_on_c, 0, 67, 0
2, 146400, Note_on_c, 0, 47, 96
2, 146459, Note_on_c, 0, 47, 0
2, 146520, Note_on_c, 0, 63, 96
2, 146579, Note_on_c, 0, 63, 0
2, 146640, Note_on_c, 0, 54, 96
2, 146640, Note_on_c, 0, 59, 96
2, 146699, Note_on_c, 0, 54, 0
2, 146699, Note_on_c, 0, 59, 0
2, 146760, Note_on_c, 0, 63, 96
2, 146819, Note_on_c, 0, 63, 0
2, 146880, Note_on_c, 0, 47, 96
2, 146939, Note_on_c, 0, 47, 0
2, 147000, Note_on_c, 0, 63, 96
2, 147059, Note_on_c, 0, 63, 0
2, 147120, Note_on_c, 0, 42, 96
2, 147179, Note_on_c, 0, 42, 0
2, 147240, Note_on_c, 0, 64, 96
2, 147299, Note_on_c, 0, 64, 0
2, 147360, Note_on_c, 0, 54, 96
2, 147360, Note_on_c, 0, 58, 96
2, 147419, Note_on_c, 0, 54, 0
2, 147419, Note_on_c, 0, 58, 0
2, 147480, Note_on_c, 0, 64, 96
2, 147539, Note_on_c, 0, 64, 0
2, 147600, Note_on_c, 0, 42, 96
2, 147659, Note_on_c, 0, 42, 0
2, 147720, Note_on_c, 0, 64, 96
2, 147779, Note_on_c, 0, 64, 0
2, 147840, Note_on_c, 0, 47, 96
2, 147953, Note_on_c, 0, 47, 0
2, 147960, Note_on_c, 0, 63, 96
2, 148073, Note_on_c, 0, 63, 0
2, 148080, Note_on_c, 0, 54, 96
2, 148193, Note_on_c, 0, 54, 0
2, 148200, Note_on_c, 0, 47, 96
2, 148313, Note_on_c, 0, 47, 0
2, 148320, Note_on_c, 0, 42, 96
2, 148433, Note_on_c, 0, 42, 0
2, 148440, Note_on_c, 0, 35, 96
2, 148553, Note_on_c, 0, 35, 0
2, 148680, Note_on_c, 0, 71, 96
2, 148793, Note_on_c, 0, 71, 0
2, 148800, Note_on_c, 0, 71, 96
2, 148800, Note_on_c, 0, 74, 96
2, 148913, Note_on_c, 0, 71, 0
2, 148913, Note_on_c, 0, 74, 0
2, 148920, Note_on_c, 0, 70, 96
2, 148920, Note_on_c, 0, 73, 96
2, 149033, Note_on_c, 0, 70, 0
2, 149033, Note_on_c, 0, 73, 0
2, 149040, Note_on_c, 0, 69, 96
2, 149040, Note_on_c, 0, 72, 96
2, 149153, Note_on_c, 0, 69, 0
2, 149153, Note_on_c, 0, 72, 0
2, 149160, Note_on_c, 0, 68, 96
2, 149160, Note_on_c, 0, 71, 96
2, 149273, Note_on_c, 0, 68, 0
2, 149273, Note_on_c, 0, 71, 0
2, 149280, Note_on_c, 0, 51, 96
2, 149339, Note_on_c, 0, 51, 0
2, 149400, Note_on_c, 0, 66, 96
2, 149459, Note_on_c, 0, 66, 0
2, 149520, Note_on_c, 0, 58, 96
2, 149520, Note_on_c, 0, 63, 96
2, 149579, Note_on_c, 0, 58, 0
2, 149579, Note_on_c, 0, 63, 0
2, 149640, Note_on_c, 0, 66, 96
2, 149699, Note_on_c, 0, 66, 0
2, 149760, Note_on_c, 0, 51, 96
2, 149819, Note_on_c, 0, 51, 0
2, 149880, Note_on_c, 0, 66, 96
2, 149939, Note_on_c, 0, 66, 0
2, 150000, Note_on_c, 0, 46, 96
2, 150059, Note_on_c, 0, 46, 0
2, 150120, Note_on_c, 0, 68, 96
2, 150179, Note_on_c, 0, 68, 0
2, 150240, Note_on_c, 0, 58, 96
2, 150240, Note_on_c, 0, 62, 96
2, 150299, Note_on_c, 0, 58, 0
2, 150299, Note_on_c, 0, 62, 0
2, 150360, Note_on_c, 0, 68, 96
2, 150419, Note_on_c, 0, 68, 0
2, 150480, Note_on_c, 0, 46, 96
2, 150539, Note_on_c, 0, 46, 0
2, 150600, Note_on_c, 0, 68, 96
2, 150659, Note_on_c, 0, 68, 0
2, 150720, Note_on_c, 0, 51, 96
2, 150833, Note_on_c, 0, 51, 0
2, 150840, Note_on_c, 0, 66, 96
2, 150953, Note_on_c, 0, 66, 0
2, 150960, Note_on_c, 0, 58, 96
2, 151073, Note_on_c, 0, 58, 0
2, 151080, Note_on_c, 0, 51, 96
2, 151193, Note_on_c, 0, 51, 0
2, 151200, Note_on_c, 0, 46, 96
2, 151313, Note_on_c, 0, 46, 0
2, 151320, Note_on_c, 0, 39, 96
2, 151433, Note_on_c, 0, 39, 0
2, 151560, Note_on_c, 0, 75, 96
2, 151673, Note_on_c, 0, 75, 0
2, 151680, Note_on_c, 0, 74, 96
2, 151680, Note_on_c, 0, 77, 96
2, 151793, Note_on_c, 0, 74, 0
2, 151793, Note_on_c, 0, 77, 0
2, 151800, Note_on_c, 0, 73, 96
2, 151800, Note_on_c, 0, 76, 96
2, 151913, Note_on_c, 0, 73, 0
2, 151913, Note_on_c, 0, 76, 0
2, 151920, Note_on_c, 0, 72, 96
2, 151920, Note_on_c, 0, 74, 96
2, 152033, Note_on_c, 0, 72, 0
2, 152033, Note_on_c, 0, 74, 0
2, 152040, Note_on_c, 0, 71, 96
2, 152040, Note_on_c, 0, 74, 96
2, 152153, Note_on_c, 0, 71, 0
2, 152153, Note_on_c, 0, 74, 0
2, 152160, Note_on_c, 0, 54, 96
2, 152219, Note_on_c, 0, 54, 0
2, 152280, Note_on_c, 0, 70, 96
2, 152339, Note_on_c, 0, 70, 0
2, 152400, Note_on_c, 0, 61, 96
2, 152400, Note_on_c, 0, 66, 96
2, 152459, Note_on_c, 0, 61, 0
2, 152459, Note_on_c, 0, 66, 0
2, 152520, Note_on_c, 0, 70, 96
2, 152579, Note_on_c, 0, 70, 0
2, 152640, Note_on_c, 0, 54, 96
2, 152699, Note_on_c, 0, 54, 0
2, 152760, Note_on_c, 0, 70, 96
2, 152819, Note_on_c, 0, 70, 0
2, 152880, Note_on_c, 0, 49, 96
2, 152939, Note_on_c, 0, 49, 0
2, 153000, Note_on_c, 0, 71, 96
2, 153059, Note_on_c, 0, 71, 0
2, 153120, Note_on_c, 0, 61, 96
2, 153120, Note_on_c, 0, 65, 96
2, 153179, Note_on_c, 0, 61, 0
2, 153179, Note_on_c, 0, 65, 0
2, 153240, Note_on_c, 0, 71, 96
2, 153299, Note_on_c, 0, 71, 0
2, 153360, Note_on_c, 0, 49, 96
2, 153419, Note_on_c, 0, 49, 0
2, 153480, Note_on_c, 0, 71, 96
2, 153539, Note_on_c, 0, 71, 0
2, 153600, Note_on_c, 0, 54, 96
2, 153827, Note_on_c, 0, 54, 0
2, 153840, Note_on_c, 0, 61, 96
2, 153953, Note_on_c, 0, 61, 0
2, 153960, Note_on_c, 0, 70, 96
2, 154073, Note_on_c, 0, 70, 0
2, 154080, Note_on_c, 0, 78, 96
2, 154193, Note_on_c, 0, 78, 0
2, 154200, Note_on_c, 0, 82, 96
2, 154313, Note_on_c, 0, 82, 0
2, 154320, Note_on_c, 0, 47, 96
2, 154547, Note_on_c, 0, 47, 0
2, 154560, Note_on_c, 0, 59, 96
2, 154673, Note_on_c, 0, 59, 0
2, 154680, Note_on_c, 0, 68, 96
2, 154793, Note_on_c, 0, 68, 0
2, 154800, Note_on_c, 0, 75, 96
2, 154913, Note_on_c, 0, 75, 0
2, 154920, Note_on_c, 0, 80, 96
2, 155033, Note_on_c, 0, 80, 0
2, 155040, Note_on_c, 0, 49, 96
2, 155267, Note_on_c, 0, 49, 0
2, 155280, Note_on_c, 0, 58, 96
2, 155393, Note_on_c, 0, 58, 0
2, 155400, Note_on_c, 0, 66, 96
2, 155513, Note_on_c, 0, 66, 0
2, 155520, Note_on_c, 0, 73, 96
2, 155633, Note_on_c, 0, 73, 0
2, 155640, Note_on_c, 0, 78, 96
2, 155753, Note_on_c, 0, 78, 0
2, 155760, Note_on_c, 0, 61, 96
2, 155987, Note_on_c, 0, 61, 0
2, 156000, Note_on_c, 0, 77, 96
2, 156113, Note_on_c, 0, 77, 0
2, 156120, Note_on_c, 0, 68, 96
2, 156233, Note_on_c, 0, 68, 0
2, 156240, Note_on_c, 0, 61, 96
2, 156353, Note_on_c, 0, 61, 0
2, 156360, Note_on_c, 0, 71, 96
2, 156473, Note_on_c, 0, 71, 0
2, 156480, Note_on_c, 0, 66, 96
2, 156480, Note_on_c, 0, 70, 96
2, 156707, Note_on_c, 0, 66, 0
2, 156707, Note_on_c, 0, 70, 0
2, 156720, Note_on_c, 0, 42, 96
2, 156720, Note_on_c, 0, 54, 96
2, 156833, Note_on_c, 0, 42, 0
2, 156833, Note_on_c, 0, 54, 0
2, 156840, Note_on_c, 0, 42, 96
2, 156840, Note_on_c, 0, 54, 96
2, 156953, Note_on_c, 0, 42, 0
2, 156953, Note_on_c, 0, 54, 0
2, 156960, Note_on_c, 0, 43, 96
2, 156960, Note_on_c, 0, 55, 96
2, 157073, Note_on_c, 0, 43, 0
2, 157073, Note_on_c, 0, 55, 0
2, 157080, Note_on_c, 0, 43, 96
2, 157080, Note_on_c, 0, 55, 96
2, 157193, Note_on_c, 0, 43, 0
2, 157193, Note_on_c, 0, 55, 0
2, 157200, Note_on_c, 0, 44, 96
2, 157200, Note_on_c, 0, 56, 96
2, 157313, Note_on_c, 0, 44, 0
2, 157313, Note_on_c, 0, 56, 0
2, 157320, Note_on_c, 0, 44, 96
2, 157320, Note_on_c, 0, 56, 96
2, 157433, Note_on_c, 0, 44, 0
2, 157433, Note_on_c, 0, 56, 0
2, 157680, Note_on_c, 0, 68, 96
2, 157680, Note_on_c, 0, 80, 96
2, 157793, Note_on_c, 0, 68, 0
2, 157793, Note_on_c, 0, 80, 0
2, 157800, Note_on_c, 0, 68, 96
2, 157800, Note_on_c, 0, 80, 96
2, 157913, Note_on_c, 0, 68, 0
2, 157913, Note_on_c, 0, 80, 0
2, 158160, Note_on_c, 0, 80, 80
2, 158160, Note_on_c, 0, 75, 80
2, 158273, Note_on_c, 0, 80, 0
2, 158280, Note_on_c, 0, 80, 80
2, 158387, Note_on_c, 0, 75, 0
2, 158393, Note_on_c, 0, 80, 0
2, 158400, Note_on_c, 0, 80, 80
2, 158400, Note_on_c, 0, 73, 80
2, 158513, Note_on_c, 0, 80, 0
2, 158520, Note_on_c, 0, 80, 80
2, 158627, Note_on_c, 0, 73, 0
2, 158633, Note_on_c, 0, 80, 0
2, 158640, Note_on_c, 0, 80, 80
2, 158640, Note_on_c, 0, 72, 80
2, 158753, Note_on_c, 0, 80, 0
2, 158760, Note_on_c, 0, 80, 80
2, 158867, Note_on_c, 0, 72, 0
2, 158873, Note_on_c, 0, 80, 0
2, 158880, Note_on_c, 0, 80, 80
2, 158880, Note_on_c, 0, 70, 80
2, 158993, Note_on_c, 0, 80, 0
2, 159000, Note_on_c, 0, 80, 80
2, 159107, Note_on_c, 0, 70, 0
2, 159113, Note_on_c, 0, 80, 0
2, 159120, Note_on_c, 0, 80, 80
2, 159120, Note_on_c, 0, 72, 80
2, 159233, Note_on_c, 0, 80, 0
2, 159240, Note_on_c, 0, 80, 80
2, 159347, Note_on_c, 0, 72, 0
2, 159353, Note_on_c, 0, 80, 0
2, 159360, Note_on_c, 0, 73, 80
2, 159360, Note_on_c, 0, 80, 80
2, 159587, Note_on_c, 0, 73, 0
2, 159587, Note_on_c, 0, 80, 0
2, 159600, Note_on_c, 0, 44, 96
2, 159600, Note_on_c, 0, 56, 96
2, 159713, Note_on_c, 0, 44, 0
2, 159713, Note_on_c, 0, 56, 0
2, 159720, Note_on_c, 0, 44, 96
2, 159720, Note_on_c, 0, 56, 96
2, 159833, Note_on_c, 0, 44, 0
2, 159833, Note_on_c, 0, 56, 0
2, 159840, Note_on_c, 0, 43, 96
2, 159840, Note_on_c, 0, 55, 96
2, 159953, Note_on_c, 0, 43, 0
2, 159953, Note_on_c, 0, 55, 0
2, 159960, Note_on_c, 0, 43, 96
2, 159960, Note_on_c, 0, 55, 96
2, 160073, Note_on_c, 0, 43, 0
2, 160073, Note_on_c, 0, 55, 0
2, 160080, Note_on_c, 0, 42, 96
2, 160080, Note_on_c, 0, 54, 96
2, 160193, Note_on_c, 0, 42, 0
2, 160193, Note_on_c, 0, 54, 0
2, 160200, Note_on_c, 0, 42, 96
2, 160200, Note_on_c, 0, 54, 96
2, 160313, Note_on_c, 0, 42, 0
2, 160313, Note_on_c, 0, 54, 0
2, 160560, Note_on_c, 0, 66, 96
2, 160560, Note_on_c, 0, 78, 96
2, 160673, Note_on_c, 0, 66, 0
2, 160673, Note_on_c, 0, 78, 0
2, 160680, Note_on_c, 0, 66, 96
2, 160680, Note_on_c, 0, 78, 96
2, 160793, Note_on_c, 0, 66, 0
2, 160793, Note_on_c, 0, 78, 0
2, 161040, Note_on_c, 0, 78, 80
2, 161040, Note_on_c, 0, 73, 80
2, 161153, Note_on_c, 0, 78, 0
2, 161160, Note_on_c, 0, 78, 80
2, 161267, Note_on_c, 0, 73, 0
2, 161273, Note_on_c, 0, 78, 0
2, 161280, Note_on_c, 0, 78, 80
2, 161280, Note_on_c, 0, 71, 80
2, 161393, Note_on_c, 0, 78, 0
2, 161400, Note_on_c, 0, 78, 80
2, 161507, Note_on_c, 0, 71, 0
2, 161513, Note_on_c, 0, 78, 0
2, 161520, Note_on_c, 0, 78, 80
2, 161520, Note_on_c, 0, 70, 80
2, 161633, Note_on_c, 0, 78, 0
2, 161640, Note_on_c, 0, 78, 80
2, 161747, Note_on_c, 0, 70, 0
2, 161753, Note_on_c, 0, 78, 0
2, 161760, Note_on_c, 0, 78, 80
2, 161760, Note_on_c, 0, 68, 80
2, 161873, Note_on_c, 0, 78, 0
2, 161880, Note_on_c, 0, 78, 80
2, 161987, Note_on_c, 0, 68, 0
2, 161993, Note_on_c, 0, 78, 0
2, 162000, Note_on_c, 0, 78, 80
2, 162000, Note_on_c, 0, 70, 80
2, 162113, Note_on_c, 0, 78, 0
2, 162120, Note_on_c, 0, 78, 80
2, 162227, Note_on_c, 0, 70, 0
2, 162233, Note_on_c, 0, 78, 0
2, 162240, Note_on_c, 0, 71, 80
2, 162240, Note_on_c, 0, 78, 80
2, 162467, Note_on_c, 0, 71, 0
2, 162467, Note_on_c, 0, 78, 0
2, 162480, Note_on_c, 0, 41, 96
2, 162480, Note_on_c, 0, 53, 96
2, 162593, Note_on_c, 0, 41, 0
2, 162593, Note_on_c, 0, 53, 0
2, 162600, Note_on_c, 0, 41, 96
2, 162600, Note_on_c, 0, 53, 96
2, 162713, Note_on_c, 0, 41, 0
2, 162713, Note_on_c, 0, 53, 0
2, 162720, Note_on_c, 0, 40, 96
2, 162720, Note_on_c, 0, 52, 96
2, 162833, Note_on_c, 0, 40, 0
2, 162833, Note_on_c, 0, 52, 0
2, 162840, Note_on_c, 0, 40, 96
2, 162840, Note_on_c, 0, 52, 96
2, 162953, Note_on_c, 0, 40, 0
2, 162953, Note_on_c, 0, 52, 0
2, 162960, Note_on_c, 0, 39, 96
2, 162960, Note_on_c, 0, 51, 96
2, 163073, Note_on_c, 0, 39, 0
2, 163073, Note_on_c, 0, 51, 0
2, 163080, Note_on_c, 0, 39, 96
2, 163080, Note_on_c, 0, 51, 96
2, 163193, Note_on_c, 0, 39, 0
2, 163193, Note_on_c, 0, 51, 0
2, 163440, Note_on_c, 0, 63, 96
2, 163440, Note_on_c, 0, 75, 96
2, 163553, Note_on_c, 0, 63, 0
2, 163553, Note_on_c, 0, 75, 0
2, 163560, Note_on_c, 0, 63, 96
2, 163560, Note_on_c, 0, 75, 96
2, 163673, Note_on_c, 0, 63, 0
2, 163673, Note_on_c, 0, 75, 0
2, 163920, Note_on_c, 0, 63, 96
2, 163920, Note_on_c, 0, 67, 96
2, 164033, Note_on_c, 0, 63, 0
2, 164033, Note_on_c, 0, 67, 0
2, 164040, Note_on_c, 0, 63, 96
2, 164040, Note_on_c, 0, 67, 96
2, 164153, Note_on_c, 0, 63, 0
2, 164153, Note_on_c, 0, 67, 0
2, 164160, Note_on_c, 0, 65, 96
2, 164160, Note_on_c, 0, 68, 96
2, 164273, Note_on_c, 0, 65, 0
2, 164273, Note_on_c, 0, 68, 0
2, 164280, Note_on_c, 0, 65, 96
2, 164280, Note_on_c, 0, 68, 96
2, 164393, Note_on_c, 0, 65, 0
2, 164393, Note_on_c, 0, 68, 0
2, 164400, Note_on_c, 0, 66, 96
2, 164400, Note_on_c, 0, 69, 96
2, 164513, Note_on_c, 0, 66, 0
2, 164513, Note_on_c, 0, 69, 0
2, 164520, Note_on_c, 0, 66, 96
2, 164520, Note_on_c, 0, 69, 96
2, 164633, Note_on_c, 0, 66, 0
2, 164633, Note_on_c, 0, 69, 0
2, 164640, Note_on_c, 0, 64, 96
2, 164640, Note_on_c, 0, 67, 96
2, 164753, Note_on_c, 0, 64, 0
2, 164753, Note_on_c, 0, 67, 0
2, 164760, Note_on_c, 0, 64, 96
2, 164760, Note_on_c, 0, 67, 96
2, 164873, Note_on_c, 0, 64, 0
2, 164873, Note_on_c, 0, 67, 0
2, 164880, Note_on_c, 0, 62, 96
2, 164880, Note_on_c, 0, 65, 96
2, 164993, Note_on_c, 0, 62, 0
2, 164993, Note_on_c, 0, 65, 0
2, 165000, Note_on_c, 0, 62, 96
2, 165000, Note_on_c, 0, 65, 96
2, 165113, Note_on_c, 0, 62, 0
2, 165113, Note_on_c, 0, 65, 0
2, 165120, Note_on_c, 0, 63, 96
2, 165347, Note_on_c, 0, 63, 0
2, 165360, Note_on_c, 0, 34, 96
2, 165360, Note_on_c, 0, 46, 96
2, 165473, Note_on_c, 0, 34, 0
2, 165473, Note_on_c, 0, 46, 0
2, 165480, Note_on_c, 0, 34, 96
2, 165480, Note_on_c, 0, 46, 96
2, 165593, Note_on_c, 0, 34, 0
2, 165593, Note_on_c, 0, 46, 0
2, 165600, Note_on_c, 0, 38, 96
2, 165600, Note_on_c, 0, 50, 96
2, 165713, Note_on_c, 0, 38, 0
2, 165713, Note_on_c, 0, 50, 0
2, 165720, Note_on_c, 0, 38, 96
2, 165720, Note_on_c, 0, 50, 96
2, 165833, Note_on_c, 0, 38, 0
2, 165833, Note_on_c, 0, 50, 0
2, 165840, Note_on_c, 0, 39, 96
2, 165840, Note_on_c, 0, 51, 96
2, 165953, Note_on_c, 0, 39, 0
2, 165953, Note_on_c, 0, 51, 0
2, 165960, Note_on_c, 0, 39, 96
2, 165960, Note_on_c, 0, 51, 96
2, 166073, Note_on_c, 0, 39, 0
2, 166073, Note_on_c, 0, 51, 0
2, 166320, Note_on_c, 0, 63, 96
2, 166320, Note_on_c, 0, 75, 96
2, 166433, Note_on_c, 0, 63, 0
2, 166433, Note_on_c, 0, 75, 0
2, 166440, Note_on_c, 0, 63, 96
2, 166440, Note_on_c, 0, 75, 96
2, 166553, Note_on_c, 0, 63, 0
2, 166553, Note_on_c, 0, 75, 0
2, 166800, Note_on_c, 0, 67, 96
2, 166800, Note_on_c, 0, 75, 96
2, 166913, Note_on_c, 0, 67, 0
2, 166913, Note_on_c, 0, 75, 0
2, 166920, Note_on_c, 0, 67, 96
2, 166920, Note_on_c, 0, 75, 96
2, 167033, Note_on_c, 0, 67, 0
2, 167033, Note_on_c, 0, 75, 0
2, 167040, Note_on_c, 0, 68, 96
2, 167040, Note_on_c, 0, 77, 96
2, 167153, Note_on_c, 0, 68, 0
2, 167153, Note_on_c, 0, 77, 0
2, 167160, Note_on_c, 0, 68, 96
2, 167160, Note_on_c, 0, 77, 96
2, 167273, Note_on_c, 0, 68, 0
2, 167273, Note_on_c, 0, 77, 0
2, 167280, Note_on_c, 0, 69, 96
2, 167280, Note_on_c, 0, 78, 96
2, 167393, Note_on_c, 0, 69, 0
2, 167393, Note_on_c, 0, 78, 0
2, 167400, Note_on_c, 0, 69, 96
2, 167400, Note_on_c, 0, 78, 96
2, 167513, Note_on_c, 0, 69, 0
2, 167513, Note_on_c, 0, 78, 0
2, 167520, Note_on_c, 0, 70, 96
2, 167520, Note_on_c, 0, 79, 96
2, 167633, Note_on_c, 0, 70, 0
2, 167633, Note_on_c, 0, 79, 0
2, 167640, Note_on_c, 0, 70, 96
2, 167640, Note_on_c, 0, 79, 96
2, 167753, Note_on_c, 0, 70, 0
2, 167753, Note_on_c, 0, 79, 0
2, 167760, Note_on_c, 0, 74, 96
2, 167760, Note_on_c, 0, 77, 96
2, 167873, Note_on_c, 0, 74, 0
2, 167873, Note_on_c, 0, 77, 0
2, 167880, Note_on_c, 0, 74, 96
2, 167880, Note_on_c, 0, 77, 96
2, 167993, Note_on_c, 0, 74, 0
2, 167993, Note_on_c, 0, 77, 0
2, 168000, Note_on_c, 0, 70, 96
2, 168000, Note_on_c, 0, 75, 96
2, 168113, Note_on_c, 0, 70, 0
2, 168113, Note_on_c, 0, 75, 0
2, 168120, Note_on_c, 0, 70, 96
2, 168120, Note_on_c, 0, 75, 96
2, 168233, Note_on_c, 0, 70, 0
2, 168233, Note_on_c, 0, 75, 0
2, 168240, Note_on_c, 0, 68, 96
2, 168240, Note_on_c, 0, 71, 96
2, 168353, Note_on_c, 0, 68, 0
2, 168353, Note_on_c, 0, 71, 0
2, 168360, Note_on_c, 0, 68, 96
2, 168360, Note_on_c, 0, 71, 96
2, 168473, Note_on_c, 0, 68, 0
2, 168473, Note_on_c, 0, 71, 0
2, 168480, Note_on_c, 0, 66, 96
2, 168480, Note_on_c, 0, 69, 96
2, 168593, Note_on_c, 0, 66, 0
2, 168593, Note_on_c, 0, 69, 0
2, 168600, Note_on_c, 0, 66, 96
2, 168600, Note_on_c, 0, 69, 96
2, 168713, Note_on_c, 0, 66, 0
2, 168713, Note_on_c, 0, 69, 0
2, 168720, Note_on_c, 0, 67, 96
2, 168720, Note_on_c, 0, 70, 96
2, 168833, Note_on_c, 0, 67, 0
2, 168833, Note_on_c, 0, 70, 0
2, 168840, Note_on_c, 0, 67, 96
2, 168840, Note_on_c, 0, 70, 96
2, 168953, Note_on_c, 0, 67, 0
2, 168953, Note_on_c, 0, 70, 0
2, 168960, Note_on_c, 0, 64, 96
2, 168960, Note_on_c, 0, 67, 96
2, 169073, Note_on_c, 0, 64, 0
2, 169073, Note_on_c, 0, 67, 0
2, 169080, Note_on_c, 0, 64, 96
2, 169080, Note_on_c, 0, 67, 96
2, 169193, Note_on_c, 0, 64, 0
2, 169193, Note_on_c, 0, 67, 0
2, 169200, Note_on_c, 0, 62, 96
2, 169200, Note_on_c, 0, 65, 96
2, 169313, Note_on_c, 0, 62, 0
2, 169313, Note_on_c, 0, 65, 0
2, 169320, Note_on_c, 0, 62, 96
2, 169320, Note_on_c, 0, 65, 96
2, 169433, Note_on_c, 0, 62, 0
2, 169433, Note_on_c, 0, 65, 0
2, 169440, Note_on_c, 0, 58, 96
2, 169440, Note_on_c, 0, 63, 96
2, 169553, Note_on_c, 0, 58, 0
2, 169553, Note_on_c, 0, 63, 0
2, 169560, Note_on_c, 0, 58, 96
2, 169560, Note_on_c, 0, 63, 96
2, 169673, Note_on_c, 0, 58, 0
2, 169673, Note_on_c, 0, 63, 0
2, 169680, Note_on_c, 0, 56, 96
2, 169680, Note_on_c, 0, 59, 96
2, 169793, Note_on_c, 0, 56, 0
2, 169793, Note_on_c, 0, 59, 0
2, 169800, Note_on_c, 0, 56, 96
2, 169800, Note_on_c, 0, 59, 96
2, 169913, Note_on_c, 0, 56, 0
2, 169913, Note_on_c, 0, 59, 0
2, 169920, Note_on_c, 0, 54, 96
2, 169920, Note_on_c, 0, 57, 96
2, 170033, Note_on_c, 0, 54, 0
2, 170033, Note_on_c, 0, 57, 0
2, 170040, Note_on_c, 0, 54, 96
2, 170040, Note_on_c, 0, 57, 96
2, 170153, Note_on_c, 0, 54, 0
2, 170153, Note_on_c, 0, 57, 0
2, 170160, Note_on_c, 0, 55, 96
2, 170160, Note_on_c, 0, 58, 96
2, 170273, Note_on_c, 0, 55, 0
2, 170273, Note_on_c, 0, 58, 0
2, 170280, Note_on_c, 0, 55, 96
2, 170280, Note_on_c, 0, 58, 96
2, 170393, Note_on_c, 0, 55, 0
2, 170393, Note_on_c, 0, 58, 0
2, 170400, Note_on_c, 0, 52, 96
2, 170400, Note_on_c, 0, 55, 96
2, 170513, Note_on_c, 0, 52, 0
2, 170513, Note_on_c, 0, 55, 0
2, 170520, Note_on_c, 0, 52, 96
2, 170520, Note_on_c, 0, 55, 96
2, 170633, Note_on_c, 0, 52, 0
2, 170633, Note_on_c, 0, 55, 0
2, 170640, Note_on_c, 0, 50, 96
2, 170640, Note_on_c, 0, 53, 96
2, 170753, Note_on_c, 0, 50, 0
2, 170753, Note_on_c, 0, 53, 0
2, 170760, Note_on_c, 0, 50, 96
2, 170760, Note_on_c, 0, 53, 96
2, 170873, Note_on_c, 0, 50, 0
2, 170873, Note_on_c, 0, 53, 0
2, 170880, Note_on_c, 0, 46, 96
2, 170880, Note_on_c, 0, 51, 96
2, 170993, Note_on_c, 0, 46, 0
2, 170993, Note_on_c, 0, 51, 0
2, 171000, Note_on_c, 0, 46, 96
2, 171000, Note_on_c, 0, 51, 96
2, 171113, Note_on_c, 0, 46, 0
2, 171113, Note_on_c, 0, 51, 0
2, 171120, Note_on_c, 0, 44, 96
2, 171120, Note_on_c, 0, 47, 96
2, 171233, Note_on_c, 0, 44, 0
2, 171233, Note_on_c, 0, 47, 0
2, 171240, Note_on_c, 0, 44, 96
2, 171240, Note_on_c, 0, 47, 96
2, 171353, Note_on_c, 0, 44, 0
2, 171353, Note_on_c, 0, 47, 0
2, 171360, Note_on_c, 0, 42, 96
2, 171360, Note_on_c, 0, 45, 96
2, 171473, Note_on_c, 0, 42, 0
2, 171473, Note_on_c, 0, 45, 0
2, 171480, Note_on_c, 0, 42, 96
2, 171480, Note_on_c, 0, 45, 96
2, 171593, Note_on_c, 0, 42, 0
2, 171593, Note_on_c, 0, 45, 0
2, 171600, Note_on_c, 0, 43, 96
2, 171600, Note_on_c, 0, 46, 96
2, 171713, Note_on_c, 0, 43, 0
2, 171713, Note_on_c, 0, 46, 0
2, 171720, Note_on_c, 0, 43, 96
2, 171720, Note_on_c, 0, 46, 96
2, 171833, Note_on_c, 0, 43, 0
2, 171833, Note_on_c, 0, 46, 0
2, 171840, Note_on_c, 0, 43, 96
2, 171840, Note_on_c, 0, 46, 96
2, 171953, Note_on_c, 0, 43, 0
2, 171953, Note_on_c, 0, 46, 0
2, 171960, Note_on_c, 0, 43, 96
2, 171960, Note_on_c, 0, 46, 96
2, 172073, Note_on_c, 0, 43, 0
2, 172073, Note_on_c, 0, 46, 0
2, 172080, Note_on_c, 0, 38, 96
2, 172080, Note_on_c, 0, 47, 96
2, 172193, Note_on_c, 0, 38, 0
2, 172193, Note_on_c, 0, 47, 0
2, 172200, Note_on_c, 0, 38, 96
2, 172200, Note_on_c, 0, 47, 96
2, 172313, Note_on_c, 0, 38, 0
2, 172313, Note_on_c, 0, 47, 0
2, 172320, Note_on_c, 0, 39, 96
2, 172320, Note_on_c, 0, 46, 96
2, 172547, Note_on_c, 0, 39, 0
2, 172547, Note_on_c, 0, 46, 0
2, 172680, Note_on_c, 0, 50, 96
2, 172799, Note_on_c, 0, 50, 0
2, 172920, Note_on_c, 0, 51, 96
2, 173039, Note_on_c, 0, 51, 0
2, 173160, Note_on_c, 0, 57, 96
2, 173279, Note_on_c, 0, 57, 0
2, 173400, Note_on_c, 0, 58, 96
2, 173519, Note_on_c, 0, 58, 0
2, 173640, Note_on_c, 0, 50, 96
2, 173640, Note_on_c, 0, 62, 96
2, 173753, Note_on_c, 0, 50, 0
2, 173753, Note_on_c, 0, 62, 0
2, 173880, Note_on_c, 0, 51, 96
2, 173880, Note_on_c, 0, 63, 96
2, 173999, Note_on_c, 0, 51, 0
2, 173999, Note_on_c, 0, 63, 0
2, 174120, Note_on_c, 0, 57, 96
2, 174120, Note_on_c, 0, 69, 96
2, 174239, Note_on_c, 0, 57, 0
2, 174239, Note_on_c, 0, 69, 0
2, 174360, Note_on_c, 0, 58, 96
2, 174360, Note_on_c, 0, 70, 96
2, 174479, Note_on_c, 0, 58, 0
2, 174479, Note_on_c, 0, 70, 0
2, 174600, Note_on_c, 0, 62, 96
2, 174600, Note_on_c, 0, 74, 96
2, 174719, Note_on_c, 0, 62, 0
2, 174719, Note_on_c, 0, 74, 0
2, 174840, Note_on_c, 0, 63, 96
2, 174840, Note_on_c, 0, 75, 96
2, 174959, Note_on_c, 0, 63, 0
2, 174959, Note_on_c, 0, 75, 0
2, 175080, Note_on_c, 0, 69, 96
2, 175080, Note_on_c, 0, 81, 96
2, 175193, Note_on_c, 0, 69, 0
2, 175193, Note_on_c, 0, 81, 0
2, 175320, Note_on_c, 0, 70, 96
2, 175320, Note_on_c, 0, 82, 96
2, 175439, Note_on_c, 0, 70, 0
2, 175439, Note_on_c, 0, 82, 0
2, 175560, Note_on_c, 0, 74, 96
2, 175560, Note_on_c, 0, 86, 96
2, 175679, Note_on_c, 0, 74, 0
2, 175679, Note_on_c, 0, 86, 0
2, 175800, Note_on_c, 0, 75, 96
2, 175800, Note_on_c, 0, 87, 96
2, 175919, Note_on_c, 0, 75, 0
2, 175919, Note_on_c, 0, 87, 0
2, 176040, Note_on_c, 0, 74, 96
2, 176040, Note_on_c, 0, 86, 96
2, 176159, Note_on_c, 0, 74, 0
2, 176159, Note_on_c, 0, 86, 0
2, 176280, Note_on_c, 0, 75, 96
2, 176280, Note_on_c, 0, 87, 96
2, 176399, Note_on_c, 0, 75, 0
2, 176399, Note_on_c, 0, 87, 0
2, 176520, Note_on_c, 0, 74, 96
2, 176520, Note_on_c, 0, 86, 96
2, 176633, Note_on_c, 0, 74, 0
2, 176633, Note_on_c, 0, 86, 0
2, 176760, Note_on_c, 0, 73, 96
2, 176760, Note_on_c, 0, 85, 96
2, 176879, Note_on_c, 0, 73, 0
2, 176879, Note_on_c, 0, 85, 0
2, 177000, Note_on_c, 0, 70, 96
2, 177000, Note_on_c, 0, 82, 96
2, 177119, Note_on_c, 0, 70, 0
2, 177119, Note_on_c, 0, 82, 0
2, 177240, Note_on_c, 0, 67, 96
2, 177240, Note_on_c, 0, 79, 96
2, 177359, Note_on_c, 0, 67, 0
2, 177359, Note_on_c, 0, 79, 0
2, 177480, Note_on_c, 0, 63, 96
2, 177480, Note_on_c, 0, 75, 96
2, 177599, Note_on_c, 0, 63, 0
2, 177599, Note_on_c, 0, 75, 0
2, 177720, Note_on_c, 0, 61, 96
2, 177720, Note_on_c, 0, 73, 96
2, 177839, Note_on_c, 0, 61, 0
2, 177839, Note_on_c, 0, 73, 0
2, 177960, Note_on_c, 0, 58, 96
2, 177960, Note_on_c, 0, 70, 96
2, 178073, Note_on_c, 0, 58, 0
2, 178073, Note_on_c, 0, 70, 0
2, 178200, Note_on_c, 0, 55, 96
2, 178200, Note_on_c, 0, 67, 96
2, 178319, Note_on_c, 0, 55, 0
2, 178319, Note_on_c, 0, 67, 0
2, 178440, Note_on_c, 0, 51, 96
2, 178440, Note_on_c, 0, 63, 96
2, 178559, Note_on_c, 0, 51, 0
2, 178559, Note_on_c, 0, 63, 0
2, 178680, Note_on_c, 0, 49, 96
2, 178680, Note_on_c, 0, 61, 96
2, 178799, Note_on_c, 0, 49, 0
2, 178799, Note_on_c, 0, 61, 0
2, 178920, Note_on_c, 0, 46, 96
2, 178920, Note_on_c, 0, 58, 96
2, 179039, Note_on_c, 0, 46, 0
2, 179039, Note_on_c, 0, 58, 0
2, 179160, Note_on_c, 0, 43, 96
2, 179160, Note_on_c, 0, 55, 96
2, 179279, Note_on_c, 0, 43, 0
2, 179279, Note_on_c, 0, 55, 0
2, 179400, Note_on_c, 0, 39, 96
2, 179400, Note_on_c, 0, 51, 96
2, 180881, Note_on_c, 0, 39, 0
2, 180881, Note_on_c, 0, 51, 0
2, 181440, Note_on_c, 0, 63, 96
2, 181559, Note_on_c, 0, 63, 0
2, 181680, Note_on_c, 0, 75, 96
2, 181799, Note_on_c, 0, 75, 0
2, 182400, Note_on_c, 0, 32, 96
2, 182400, Note_on_c, 0, 44, 96
2, 182627, Note_on_c, 0, 32, 0
2, 182627, Note_on_c, 0, 44, 0
2, 182640, Note_on_c, 0, 51, 96
2, 182640, Note_on_c, 0, 59, 96
2, 182640, Note_on_c, 0, 63, 96
2, 182753, Note_on_c, 0, 51, 0
2, 182753, Note_on_c, 0, 59, 0
2, 182753, Note_on_c, 0, 63, 0
2, 182760, Note_on_c, 0, 51, 96
2, 182760, Note_on_c, 0, 59, 96
2, 182760, Note_on_c, 0, 63, 96
2, 182873, Note_on_c, 0, 51, 0
2, 182873, Note_on_c, 0, 59, 0
2, 182873, Note_on_c, 0, 63, 0
2, 182880, Note_on_c, 0, 56, 96
2, 182880, Note_on_c, 0, 59, 96
2, 182880, Note_on_c, 0, 63, 96
2, 183107, Note_on_c, 0, 56, 0
2, 183107, Note_on_c, 0, 59, 0
2, 183107, Note_on_c, 0, 63, 0
2, 183120, Note_on_c, 0, 35, 96
2, 183120, Note_on_c, 0, 47, 96
2, 183347, Note_on_c, 0, 35, 0
2, 183347, Note_on_c, 0, 47, 0
2, 183360, Note_on_c, 0, 51, 96
2, 183360, Note_on_c, 0, 59, 96
2, 183360, Note_on_c, 0, 63, 96
2, 183473, Note_on_c, 0, 51, 0
2, 183473, Note_on_c, 0, 59, 0
2, 183473, Note_on_c, 0, 63, 0
2, 183480, Note_on_c, 0, 51, 96
2, 183480, Note_on_c, 0, 59, 96
2, 183480, Note_on_c, 0, 63, 96
2, 183593, Note_on_c, 0, 51, 0
2, 183593, Note_on_c, 0, 59, 0
2, 183593, Note_on_c, 0, 63, 0
2, 183600, Note_on_c, 0, 56, 96
2, 183600, Note_on_c, 0, 59, 96
2, 183600, Note_on_c, 0, 63, 96
2, 183827, Note_on_c, 0, 56, 0
2, 183827, Note_on_c, 0, 59, 0
2, 183827, Note_on_c, 0, 63, 0
2, 183840, Note_on_c, 0, 39, 96
2, 183840, Note_on_c, 0, 51, 96
2, 184067, Note_on_c, 0, 39, 0
2, 184067, Note_on_c, 0, 51, 0
2, 184080, Note_on_c, 0, 55, 96
2, 184080, Note_on_c, 0, 63, 96
2, 184080, Note_on_c, 0, 67, 96
2, 184193, Note_on_c, 0, 55, 0
2, 184193, Note_on_c, 0, 63, 0
2, 184193, Note_on_c, 0, 67, 0
2, 184200, Note_on_c, 0, 55, 96
2, 184200, Note_on_c, 0, 63, 96
2, 184200, Note_on_c, 0, 67, 96
2, 184313, Note_on_c, 0, 55, 0
2, 184313, Note_on_c, 0, 63, 0
2, 184313, Note_on_c, 0, 67, 0
2, 184320, Note_on_c, 0, 58, 96
2, 184320, Note_on_c, 0, 63, 96
2, 184320, Note_on_c, 0, 67, 96
2, 184547, Note_on_c, 0, 58, 0
2, 184547, Note_on_c, 0, 63, 0
2, 184547, Note_on_c, 0, 67, 0
2, 184560, Note_on_c, 0, 43, 96
2, 184560, Note_on_c, 0, 55, 96
2, 184787, Note_on_c, 0, 43, 0
2, 184787, Note_on_c, 0, 55, 0
2, 184800, Note_on_c, 0, 61, 96
2, 184800, Note_on_c, 0, 63, 96
2, 184800, Note_on_c, 0, 70, 96
2, 184913, Note_on_c, 0, 61, 0
2, 184913, Note_on_c, 0, 63, 0
2, 184913, Note_on_c, 0, 70, 0
2, 184920, Note_on_c, 0, 61, 96
2, 184920, Note_on_c, 0, 63, 96
2, 184920, Note_on_c, 0, 70, 96
2, 185033, Note_on_c, 0, 61, 0
2, 185033, Note_on_c, 0, 63, 0
2, 185033, Note_on_c, 0, 70, 0
2, 185040, Note_on_c, 0, 61, 96
2, 185040, Note_on_c, 0, 63, 96
2, 185040, Note_on_c, 0, 70, 96
2, 185267, Note_on_c, 0, 61, 0
2, 185267, Note_on_c, 0, 63, 0
2, 185267, Note_on_c, 0, 70, 0
2, 185280, Note_on_c, 0, 44, 96
2, 185280, Note_on_c, 0, 56, 96
2, 185507, Note_on_c, 0, 44, 0
2, 185507, Note_on_c, 0, 56, 0
2, 185520, Note_on_c, 0, 59, 96
2, 185520, Note_on_c, 0, 63, 96
2, 185520, Note_on_c, 0, 68, 96
2, 185633, Note_on_c, 0, 59, 0
2, 185633, Note_on_c, 0, 63, 0
2, 185633, Note_on_c, 0, 68, 0
2, 185640, Note_on_c, 0, 59, 96
2, 185640, Note_on_c, 0, 63, 96
2, 185640, Note_on_c, 0, 68, 96
2, 185753, Note_on_c, 0, 59, 0
2, 185753, Note_on_c, 0, 63, 0
2, 185753, Note_on_c, 0, 68, 0
2, 185760, Note_on_c, 0, 59, 96
2, 185760, Note_on_c, 0, 63, 96
2, 185987, Note_on_c, 0, 59, 0
2, 185987, Note_on_c, 0, 63, 0
2, 186000, Note_on_c, 0, 40, 96
2, 186227, Note_on_c, 0, 40, 0
2, 186240, Note_on_c, 0, 58, 96
2, 186240, Note_on_c, 0, 62, 96
2, 186353, Note_on_c, 0, 58, 0
2, 186353, Note_on_c, 0, 62, 0
2, 186360, Note_on_c, 0, 58, 96
2, 186360, Note_on_c, 0, 62, 96
2, 186473, Note_on_c, 0, 58, 0
2, 186473, Note_on_c, 0, 62, 0
2, 186480, Note_on_c, 0, 58, 96
2, 186480, Note_on_c, 0, 62, 96
2, 186707, Note_on_c, 0, 58, 0
2, 186707, Note_on_c, 0, 62, 0
2, 186720, Note_on_c, 0, 39, 96
2, 186947, Note_on_c, 0, 39, 0
2, 186960, Note_on_c, 0, 55, 96
2, 186960, Note_on_c, 0, 58, 96
2, 187073, Note_on_c, 0, 55, 0
2, 187073, Note_on_c, 0, 58, 0
2, 187080, Note_on_c, 0, 55, 96
2, 187080, Note_on_c, 0, 58, 96
2, 187193, Note_on_c, 0, 55, 0
2, 187193, Note_on_c, 0, 58, 0
2, 187200, Note_on_c, 0, 55, 96
2, 187200, Note_on_c, 0, 58, 96
2, 187200, Note_on_c, 0, 63, 96
2, 187427, Note_on_c, 0, 55, 0
2, 187427, Note_on_c, 0, 58, 0
2, 187427, Note_on_c, 0, 63, 0
2, 187440, Note_on_c, 0, 67, 96
2, 187440, Note_on_c, 0, 70, 96
2, 187440, Note_on_c, 0, 75, 96
2, 187667, Note_on_c, 0, 67, 0
2, 187667, Note_on_c, 0, 70, 0
2, 187667, Note_on_c, 0, 75, 0
2, 188160, Note_on_c, 0, 32, 96
2, 188160, Note_on_c, 0, 44, 96
2, 188387, Note_on_c, 0, 32, 0
2, 188387, Note_on_c, 0, 44, 0
2, 188400, Note_on_c, 0, 54, 96
2, 188400, Note_on_c, 0, 57, 96
2, 188400, Note_on_c, 0, 63, 96
2, 188513, Note_on_c, 0, 54, 0
2, 188513, Note_on_c, 0, 57, 0
2, 188513, Note_on_c, 0, 63, 0
2, 188520, Note_on_c, 0, 54, 96
2, 188520, Note_on_c, 0, 57, 96
2, 188520, Note_on_c, 0, 63, 96
2, 188633, Note_on_c, 0, 54, 0
2, 188633, Note_on_c, 0, 57, 0
2, 188633, Note_on_c, 0, 63, 0
2, 188640, Note_on_c, 0, 54, 96
2, 188640, Note_on_c, 0, 57, 96
2, 188640, Note_on_c, 0, 63, 96
2, 188867, Note_on_c, 0, 54, 0
2, 188867, Note_on_c, 0, 57, 0
2, 188867, Note_on_c, 0, 63, 0
2, 188880, Note_on_c, 0, 36, 96
2, 188880, Note_on_c, 0, 48, 96
2, 189107, Note_on_c, 0, 36, 0
2, 189107, Note_on_c, 0, 48, 0
2, 189120, Note_on_c, 0, 57, 96
2, 189120, Note_on_c, 0, 63, 96
2, 189120, Note_on_c, 0, 69, 96
2, 189233, Note_on_c, 0, 57, 0
2, 189233, Note_on_c, 0, 63, 0
2, 189233, Note_on_c, 0, 69, 0
2, 189240, Note_on_c, 0, 57, 96
2, 189240, Note_on_c, 0, 63, 96
2, 189240, Note_on_c, 0, 69, 96
2, 189353, Note_on_c, 0, 57, 0
2, 189353, Note_on_c, 0, 63, 0
2, 189353, Note_on_c, 0, 69, 0
2, 189360, Note_on_c, 0, 57, 96
2, 189360, Note_on_c, 0, 63, 96
2, 189360, Note_on_c, 0, 69, 96
2, 189587, Note_on_c, 0, 57, 0
2, 189587, Note_on_c, 0, 63, 0
2, 189587, Note_on_c, 0, 69, 0
2, 189600, Note_on_c, 0, 37, 96
2, 189600, Note_on_c, 0, 49, 96
2, 189827, Note_on_c, 0, 37, 0
2, 189827, Note_on_c, 0, 49, 0
2, 189840, Note_on_c, 0, 52, 96
2, 189840, Note_on_c, 0, 57, 96
2, 189840, Note_on_c, 0, 61, 96
2, 189953, Note_on_c, 0, 52, 0
2, 189953, Note_on_c, 0, 57, 0
2, 189953, Note_on_c, 0, 61, 0
2, 189960, Note_on_c, 0, 52, 96
2, 189960, Note_on_c, 0, 57, 96
2, 189960, Note_on_c, 0, 61, 96
2, 190073, Note_on_c, 0, 52, 0
2, 190073, Note_on_c, 0, 57, 0
2, 190073, Note_on_c, 0, 61, 0
2, 190080, Note_on_c, 0, 51, 96
2, 190080, Note_on_c, 0, 57, 96
2, 190080, Note_on_c, 0, 61, 96
2, 190193, Note_on_c, 0, 51, 0
2, 190193, Note_on_c, 0, 57, 0
2, 190193, Note_on_c, 0, 61, 0
2, 190200, Note_on_c, 0, 51, 96
2, 190200, Note_on_c, 0, 57, 96
2, 190200, Note_on_c, 0, 61, 96
2, 190313, Note_on_c, 0, 51, 0
2, 190313, Note_on_c, 0, 57, 0
2, 190313, Note_on_c, 0, 61, 0
2, 190320, Note_on_c, 0, 49, 96
2, 190320, Note_on_c, 0, 57, 96
2, 190320, Note_on_c, 0, 61, 96
2, 190433, Note_on_c, 0, 49, 0
2, 190433, Note_on_c, 0, 57, 0
2, 190433, Note_on_c, 0, 61, 0
2, 190440, Note_on_c, 0, 49, 96
2, 190440, Note_on_c, 0, 57, 96
2, 190440, Note_on_c, 0, 61, 96
2, 190553, Note_on_c, 0, 49, 0
2, 190553, Note_on_c, 0, 57, 0
2, 190553, Note_on_c, 0, 61, 0
2, 190560, Note_on_c, 0, 51, 96
2, 190560, Note_on_c, 0, 57, 96
2, 190560, Note_on_c, 0, 61, 96
2, 190673, Note_on_c, 0, 51, 0
2, 190673, Note_on_c, 0, 57, 0
2, 190673, Note_on_c, 0, 61, 0
2, 190680, Note_on_c, 0, 51, 96
2, 190680, Note_on_c, 0, 57, 96
2, 190680, Note_on_c, 0, 61, 96
2, 190793, Note_on_c, 0, 51, 0
2, 190793, Note_on_c, 0, 57, 0
2, 190793, Note_on_c, 0, 61, 0
2, 190800, Note_on_c, 0, 52, 96
2, 190800, Note_on_c, 0, 57, 96
2, 190800, Note_on_c, 0, 61, 96
2, 190913, Note_on_c, 0, 52, 0
2, 190913, Note_on_c, 0, 57, 0
2, 190913, Note_on_c, 0, 61, 0
2, 190920, Note_on_c, 0, 52, 96
2, 190920, Note_on_c, 0, 57, 96
2, 190920, Note_on_c, 0, 61, 96
2, 191033, Note_on_c, 0, 52, 0
2, 191033, Note_on_c, 0, 57, 0
2, 191033, Note_on_c, 0, 61, 0
2, 191040, Note_on_c, 0, 51, 96
2, 191040, Note_on_c, 0, 56, 96
2, 191040, Note_on_c, 0, 59, 96
2, 191153, Note_on_c, 0, 51, 0
2, 191153, Note_on_c, 0, 56, 0
2, 191153, Note_on_c, 0, 59, 0
2, 191160, Note_on_c, 0, 50, 96
2, 191160, Note_on_c, 0, 62, 96
2, 191273, Note_on_c, 0, 50, 0
2, 191273, Note_on_c, 0, 62, 0
2, 191280, Note_on_c, 0, 49, 96
2, 191280, Note_on_c, 0, 61, 96
2, 191393, Note_on_c, 0, 49, 0
2, 191393, Note_on_c, 0, 61, 0
2, 191400, Note_on_c, 0, 48, 96
2, 191400, Note_on_c, 0, 60, 96
2, 191513, Note_on_c, 0, 48, 0
2, 191513, Note_on_c, 0, 60, 0
2, 191520, Note_on_c, 0, 47, 96
2, 191520, Note_on_c, 0, 59, 96
2, 191633, Note_on_c, 0, 47, 0
2, 191633, Note_on_c, 0, 59, 0
2, 191640, Note_on_c, 0, 46, 96
2, 191640, Note_on_c, 0, 58, 96
2, 191753, Note_on_c, 0, 46, 0
2, 191753, Note_on_c, 0, 58, 0
2, 191760, Note_on_c, 0, 45, 96
2, 191760, Note_on_c, 0, 57, 96
2, 191873, Note_on_c, 0, 45, 0
2, 191873, Note_on_c, 0, 57, 0
2, 191880, Note_on_c, 0, 44, 96
2, 191880, Note_on_c, 0, 56, 96
2, 191993, Note_on_c, 0, 44, 0
2, 191993, Note_on_c, 0, 56, 0
2, 192000, Note_on_c, 0, 43, 96
2, 192000, Note_on_c, 0, 55, 96
2, 192113, Note_on_c, 0, 43, 0
2, 192113, Note_on_c, 0, 55, 0
2, 192120, Note_on_c, 0, 42, 96
2, 192120, Note_on_c, 0, 54, 96
2, 192233, Note_on_c, 0, 42, 0
2, 192233, Note_on_c, 0, 54, 0
2, 192240, Note_on_c, 0, 41, 96
2, 192240, Note_on_c, 0, 53, 96
2, 192353, Note_on_c, 0, 41, 0
2, 192353, Note_on_c, 0, 53, 0
2, 192360, Note_on_c, 0, 40, 96
2, 192360, Note_on_c, 0, 52, 96
2, 192473, Note_on_c, 0, 40, 0
2, 192473, Note_on_c, 0, 52, 0
2, 192480, Note_on_c, 0, 39, 96
2, 192480, Note_on_c, 0, 43, 96
2, 192480, Note_on_c, 0, 46, 96
2, 192480, Note_on_c, 0, 51, 96
2, 192593, Note_on_c, 0, 39, 0
2, 192593, Note_on_c, 0, 43, 0
2, 192593, Note_on_c, 0, 46, 0
2, 192593, Note_on_c, 0, 51, 0
2, 192600, Note_on_c, 0, 38, 98
2, 192600, Note_on_c, 0, 50, 98
2, 192713, Note_on_c, 0, 38, 0
2, 192713, Note_on_c, 0, 50, 0
2, 192720, Note_on_c, 0, 37, 101
2, 192720, Note_on_c, 0, 49, 101
2, 192833, Note_on_c, 0, 37, 0
2, 192833, Note_on_c, 0, 49, 0
2, 192840, Note_on_c, 0, 36, 103
2, 192840, Note_on_c, 0, 48, 103
2, 192953, Note_on_c, 0, 36, 0
2, 192953, Note_on_c, 0, 48, 0
2, 192960, Note_on_c, 0, 35, 106
2, 192960, Note_on_c, 0, 47, 106
2, 193073, Note_on_c, 0, 35, 0
2, 193073, Note_on_c, 0, 47, 0
2, 193080, Note_on_c, 0, 34, 108
2, 193080, Note_on_c, 0, 46, 108
2, 193193, Note_on_c, 0, 34, 0
2, 193193, Note_on_c, 0, 46, 0
2, 193200, Note_on_c, 0, 33, 111
2, 193200, Note_on_c, 0, 45, 111
2, 193313, Note_on_c, 0, 33, 0
2, 193313, Note_on_c, 0, 45, 0
2, 193320, Note_on_c, 0, 32, 113
2, 193320, Note_on_c, 0, 44, 113
2, 193433, Note_on_c, 0, 32, 0
2, 193433, Note_on_c, 0, 44, 0
2, 193440, Note_on_c, 0, 31, 116
2, 193440, Note_on_c, 0, 43, 116
2, 193553, Note_on_c, 0, 31, 0
2, 193553, Note_on_c, 0, 43, 0
2, 193560, Note_on_c, 0, 30, 118
2, 193560, Note_on_c, 0, 42, 118
2, 193673, Note_on_c, 0, 30, 0
2, 193673, Note_on_c, 0, 42, 0
2, 193680, Note_on_c, 0, 28, 121
2, 193680, Note_on_c, 0, 40, 121
2, 193793, Note_on_c, 0, 28, 0
2, 193793, Note_on_c, 0, 40, 0
2, 193800, Note_on_c, 0, 27, 123
2, 193800, Note_on_c, 0, 39, 123
2, 193913, Note_on_c, 0, 27, 0
2, 193913, Note_on_c, 0, 39, 0
2, 193920, Note_on_c, 0, 32, 126
2, 193920, Note_on_c, 0, 44, 126
2, 194147, Note_on_c, 0, 32, 0
2, 194147, Note_on_c, 0, 44, 0
2, 194160, Note_on_c, 0, 39, 126
2, 194160, Note_on_c, 0, 51, 126
2, 194273, Note_on_c, 0, 39, 0
2, 194273, Note_on_c, 0, 51, 0
2, 194280, Note_on_c, 0, 44, 126
2, 194280, Note_on_c, 0, 56, 126
2, 194393, Note_on_c, 0, 44, 0
2, 194393, Note_on_c, 0, 56, 0
2, 194400, Note_on_c, 0, 51, 126
2, 194400, Note_on_c, 0, 63, 126
2, 194627, Note_on_c, 0, 51, 0
2, 194627, Note_on_c, 0, 63, 0
2, 194640, Note_on_c, 0, 32, 126
2, 194640, Note_on_c, 0, 44, 126
2, 194867, Note_on_c, 0, 32, 0
2, 194867, Note_on_c, 0, 44, 0
2, 194880, Note_on_c, 0, 39, 126
2, 194880, Note_on_c, 0, 51, 126
2, 194993, Note_on_c, 0, 39, 0
2, 194993, Note_on_c, 0, 51, 0
2, 195000, Note_on_c, 0, 44, 126
2, 195000, Note_on_c, 0, 56, 126
2, 195113, Note_on_c, 0, 44, 0
2, 195113, Note_on_c, 0, 56, 0
2, 195120, Note_on_c, 0, 51, 126
2, 195120, Note_on_c, 0, 63, 126
2, 195347, Note_on_c, 0, 51, 0
2, 195347, Note_on_c, 0, 63, 0
2, 195360, Note_on_c, 0, 32, 126
2, 195360, Note_on_c, 0, 44, 126
2, 195587, Note_on_c, 0, 32, 0
2, 195587, Note_on_c, 0, 44, 0
2, 195600, Note_on_c, 0, 39, 126
2, 195600, Note_on_c, 0, 51, 126
2, 195713, Note_on_c, 0, 39, 0
2, 195713, Note_on_c, 0, 51, 0
2, 195720, Note_on_c, 0, 44, 126
2, 195720, Note_on_c, 0, 56, 126
2, 195833, Note_on_c, 0, 44, 0
2, 195833, Note_on_c, 0, 56, 0
2, 195840, Note_on_c, 0, 51, 126
2, 195840, Note_on_c, 0, 63, 126
2, 196067, Note_on_c, 0, 51, 0
2, 196067, Note_on_c, 0, 63, 0
2, 196080, Note_on_c, 0, 32, 126
2, 196080, Note_on_c, 0, 44, 126
2, 196307, Note_on_c, 0, 32, 0
2, 196307, Note_on_c, 0, 44, 0
2, 196320, Note_on_c, 0, 39, 126
2, 196320, Note_on_c, 0, 51, 126
2, 196433, Note_on_c, 0, 39, 0
2, 196433, Note_on_c, 0, 51, 0
2, 196440, Note_on_c, 0, 44, 126
2, 196440, Note_on_c, 0, 56, 126
2, 196553, Note_on_c, 0, 44, 0
2, 196553, Note_on_c, 0, 56, 0
2, 196560, Note_on_c, 0, 51, 126
2, 196560, Note_on_c, 0, 63, 126
2, 196787, Note_on_c, 0, 51, 0
2, 196787, Note_on_c, 0, 63, 0
2, 196800, Note_on_c, 0, 32, 126
2, 196800, Note_on_c, 0, 44, 126
2, 197027, Note_on_c, 0, 32, 0
2, 197027, Note_on_c, 0, 44, 0
2, 197040, Note_on_c, 0, 39, 126
2, 197040, Note_on_c, 0, 51, 126
2, 197153, Note_on_c, 0, 39, 0
2, 197153, Note_on_c, 0, 51, 0
2, 197160, Note_on_c, 0, 44, 126
2, 197160, Note_on_c, 0, 56, 126
2, 197273, Note_on_c, 0, 44, 0
2, 197273, Note_on_c, 0, 56, 0
2, 197280, Note_on_c, 0, 51, 126
2, 197280, Note_on_c, 0, 63, 126
2, 197507, Note_on_c, 0, 51, 0
2, 197507, Note_on_c, 0, 63, 0
2, 197520, Note_on_c, 0, 32, 126
2, 197520, Note_on_c, 0, 44, 126
2, 197747, Note_on_c, 0, 32, 0
2, 197747, Note_on_c, 0, 44, 0
2, 197760, Note_on_c, 0, 39, 126
2, 197760, Note_on_c, 0, 51, 126
2, 197873, Note_on_c, 0, 39, 0
2, 197873, Note_on_c, 0, 51, 0
2, 197880, Note_on_c, 0, 44, 126
2, 197880, Note_on_c, 0, 56, 126
2, 197993, Note_on_c, 0, 44, 0
2, 197993, Note_on_c, 0, 56, 0
2, 198000, Note_on_c, 0, 51, 126
2, 198000, Note_on_c, 0, 63, 126
2, 198227, Note_on_c, 0, 51, 0
2, 198227, Note_on_c, 0, 63, 0
2, 198240, Note_on_c, 0, 32, 126
2, 198240, Note_on_c, 0, 44, 126
2, 198467, Note_on_c, 0, 32, 0
2, 198467, Note_on_c, 0, 44, 0
2, 198480, Note_on_c, 0, 39, 126
2, 198480, Note_on_c, 0, 51, 126
2, 198593, Note_on_c, 0, 39, 0
2, 198593, Note_on_c, 0, 51, 0
2, 198600, Note_on_c, 0, 44, 126
2, 198600, Note_on_c, 0, 56, 126
2, 198713, Note_on_c, 0, 44, 0
2, 198713, Note_on_c, 0, 56, 0
2, 198720, Note_on_c, 0, 51, 126
2, 198720, Note_on_c, 0, 63, 126
2, 198947, Note_on_c, 0, 51, 0
2, 198947, Note_on_c, 0, 63, 0
2, 198960, Note_on_c, 0, 32, 126
2, 198960, Note_on_c, 0, 44, 126
2, 199187, Note_on_c, 0, 32, 0
2, 199187, Note_on_c, 0, 44, 0
2, 199200, Note_on_c, 0, 39, 126
2, 199200, Note_on_c, 0, 51, 126
2, 199313, Note_on_c, 0, 39, 0
2, 199313, Note_on_c, 0, 51, 0
2, 199320, Note_on_c, 0, 44, 126
2, 199320, Note_on_c, 0, 56, 126
2, 199433, Note_on_c, 0, 44, 0
2, 199433, Note_on_c, 0, 56, 0
2, 199440, Note_on_c, 0, 51, 126
2, 199440, Note_on_c, 0, 63, 126
2, 199667, Note_on_c, 0, 51, 0
2, 199667, Note_on_c, 0, 63, 0
2, 199680, Note_on_c, 0, 32, 126
2, 199680, Note_on_c, 0, 44, 126
2, 199907, Note_on_c, 0, 32, 0
2, 199907, Note_on_c, 0, 44, 0
2, 199920, Note_on_c, 0, 39, 126
2, 199920, Note_on_c, 0, 51, 126
2, 200033, Note_on_c, 0, 39, 0
2, 200033, Note_on_c, 0, 51, 0
2, 200040, Note_on_c, 0, 44, 126
2, 200040, Note_on_c, 0, 56, 126
2, 200153, Note_on_c, 0, 44, 0
2, 200153, Note_on_c, 0, 56, 0
2, 200160, Note_on_c, 0, 47, 126
2, 200160, Note_on_c, 0, 51, 126
2, 200160, Note_on_c, 0, 59, 126
2, 200387, Note_on_c, 0, 47, 0
2, 200387, Note_on_c, 0, 51, 0
2, 200387, Note_on_c, 0, 59, 0
2, 200400, Note_on_c, 0, 46, 126
2, 200400, Note_on_c, 0, 51, 126
2, 200400, Note_on_c, 0, 58, 126
2, 200513, Note_on_c, 0, 46, 0
2, 200513, Note_on_c, 0, 51, 0
2, 200513, Note_on_c, 0, 58, 0
2, 200520, Note_on_c, 0, 47, 126
2, 200520, Note_on_c, 0, 51, 126
2, 200520, Note_on_c, 0, 59, 126
2, 200633, Note_on_c, 0, 47, 0
2, 200633, Note_on_c, 0, 51, 0
2, 200633, Note_on_c, 0, 59, 0
2, 200640, Note_on_c, 0, 49, 126
2, 200640, Note_on_c, 0, 51, 126
2, 200640, Note_on_c, 0, 61, 126
2, 200867, Note_on_c, 0, 49, 0
2, 200867, Note_on_c, 0, 51, 0
2, 200867, Note_on_c, 0, 61, 0
2, 200880, Note_on_c, 0, 47, 126
2, 200880, Note_on_c, 0, 51, 126
2, 200880, Note_on_c, 0, 59, 126
2, 200993, Note_on_c, 0, 47, 0
2, 200993, Note_on_c, 0, 51, 0
2, 200993, Note_on_c, 0, 59, 0
2, 201000, Note_on_c, 0, 46, 126
2, 201000, Note_on_c, 0, 51, 126
2, 201000, Note_on_c, 0, 58, 126
2, 201113, Note_on_c, 0, 46, 0
2, 201113, Note_on_c, 0, 51, 0
2, 201113, Note_on_c, 0, 58, 0
2, 201120, Note_on_c, 0, 47, 126
2, 201120, Note_on_c, 0, 51, 126
2, 201120, Note_on_c, 0, 59, 126
2, 201233, Note_on_c, 0, 47, 0
2, 201233, Note_on_c, 0, 51, 0
2, 201233, Note_on_c, 0, 59, 0
2, 201240, Note_on_c, 0, 46, 126
2, 201240, Note_on_c, 0, 51, 126
2, 201240, Note_on_c, 0, 58, 126
2, 201353, Note_on_c, 0, 46, 0
2, 201353, Note_on_c, 0, 51, 0
2, 201353, Note_on_c, 0, 58, 0
2, 201360, Note_on_c, 0, 44, 126
2, 201360, Note_on_c, 0, 51, 126
2, 201360, Note_on_c, 0, 56, 126
2, 201587, Note_on_c, 0, 44, 0
2, 201587, Note_on_c, 0, 51, 0
2, 201587, Note_on_c, 0, 56, 0
2, 201600, Note_on_c, 0, 32, 126
2, 201600, Note_on_c, 0, 39, 126
2, 201600, Note_on_c, 0, 44, 126
2, 201827, Note_on_c, 0, 32, 0
2, 201827, Note_on_c, 0, 39, 0
2, 201827, Note_on_c, 0, 44, 0
2, 201840, Note_on_c, 0, 46, 126
2, 201840, Note_on_c, 0, 51, 126
2, 201840, Note_on_c, 0, 58, 126
2, 201953, Note_on_c, 0, 46, 0
2, 201953, Note_on_c, 0, 51, 0
2, 201953, Note_on_c, 0, 58, 0
2, 201960, Note_on_c, 0, 47, 126
2, 201960, Note_on_c, 0, 51, 126
2, 201960, Note_on_c, 0, 59, 126
2, 202073, Note_on_c, 0, 47, 0
2, 202073, Note_on_c, 0, 51, 0
2, 202073, Note_on_c, 0, 59, 0
2, 202080, Note_on_c, 0, 49, 126
2, 202080, Note_on_c, 0, 51, 126
2, 202080, Note_on_c, 0, 61, 126
2, 202307, Note_on_c, 0, 49, 0
2, 202307, Note_on_c, 0, 51, 0
2, 202307, Note_on_c, 0, 61, 0
2, 202320, Note_on_c, 0, 47, 126
2, 202320, Note_on_c, 0, 51, 126
2, 202320, Note_on_c, 0, 59, 126
2, 202433, Note_on_c, 0, 47, 0
2, 202433, Note_on_c, 0, 51, 0
2, 202433, Note_on_c, 0, 59, 0
2, 202440, Note_on_c, 0, 46, 126
2, 202440, Note_on_c, 0, 51, 126
2, 202440, Note_on_c, 0, 58, 126
2, 202553, Note_on_c, 0, 46, 0
2, 202553, Note_on_c, 0, 51, 0
2, 202553, Note_on_c, 0, 58, 0
2, 202560, Note_on_c, 0, 47, 126
2, 202560, Note_on_c, 0, 51, 126
2, 202560, Note_on_c, 0, 59, 126
2, 202673, Note_on_c, 0, 47, 0
2, 202673, Note_on_c, 0, 51, 0
2, 202673, Note_on_c, 0, 59, 0
2, 202680, Note_on_c, 0, 46, 126
2, 202680, Note_on_c, 0, 51, 126
2, 202680, Note_on_c, 0, 58, 126
2, 202793, Note_on_c, 0, 46, 0
2, 202793, Note_on_c, 0, 51, 0
2, 202793, Note_on_c, 0, 58, 0
2, 202800, Note_on_c, 0, 44, 126
2, 202800, Note_on_c, 0, 51, 126
2, 202800, Note_on_c, 0, 56, 126
2, 203027, Note_on_c, 0, 44, 0
2, 203027, Note_on_c, 0, 51, 0
2, 203027, Note_on_c, 0, 56, 0
2, 203040, Note_on_c, 0, 32, 126
2, 203040, Note_on_c, 0, 39, 126
2, 203040, Note_on_c, 0, 44, 126
2, 203267, Note_on_c, 0, 32, 0
2, 203267, Note_on_c, 0, 39, 0
2, 203267, Note_on_c, 0, 44, 0
2, 203280, Note_on_c, 0, 47, 126
2, 203280, Note_on_c, 0, 51, 126
2, 203280, Note_on_c, 0, 59, 126
2, 203393, Note_on_c, 0, 47, 0
2, 203393, Note_on_c, 0, 51, 0
2, 203393, Note_on_c, 0, 59, 0
2, 203400, Note_on_c, 0, 46, 126
2, 203400, Note_on_c, 0, 51, 126
2, 203400, Note_on_c, 0, 58, 126
2, 203513, Note_on_c, 0, 46, 0
2, 203513, Note_on_c, 0, 51, 0
2, 203513, Note_on_c, 0, 58, 0
2, 203520, Note_on_c, 0, 44, 126
2, 203520, Note_on_c, 0, 51, 126
2, 203520, Note_on_c, 0, 56, 126
2, 203747, Note_on_c, 0, 44, 0
2, 203747, Note_on_c, 0, 51, 0
2, 203747, Note_on_c, 0, 56, 0
2, 203760, Note_on_c, 0, 32, 126
2, 203760, Note_on_c, 0, 39, 126
2, 203760, Note_on_c, 0, 44, 126
2, 203987, Note_on_c, 0, 32, 0
2, 203987, Note_on_c, 0, 39, 0
2, 203987, Note_on_c, 0, 44, 0
2, 204000, Note_on_c, 0, 47, 126
2, 204000, Note_on_c, 0, 51, 126
2, 204000, Note_on_c, 0, 59, 126
2, 204113, Note_on_c, 0, 47, 0
2, 204113, Note_on_c, 0, 51, 0
2, 204113, Note_on_c, 0, 59, 0
2, 204120, Note_on_c, 0, 46, 126
2, 204120, Note_on_c, 0, 51, 126
2, 204120, Note_on_c, 0, 58, 126
2, 204233, Note_on_c, 0, 46, 0
2, 204233, Note_on_c, 0, 51, 0
2, 204233, Note_on_c, 0, 58, 0
2, 204240, Note_on_c, 0, 44, 126
2, 204240, Note_on_c, 0, 51, 126
2, 204240, Note_on_c, 0, 56, 126
2, 204467, Note_on_c, 0, 44, 0
2, 204467, Note_on_c, 0, 51, 0
2, 204467, Note_on_c, 0, 56, 0
2, 204480, Note_on_c, 0, 32, 126
2, 204480, Note_on_c, 0, 39, 126
2, 204480, Note_on_c, 0, 44, 126
2, 204707, Note_on_c, 0, 32, 0
2, 204707, Note_on_c, 0, 39, 0
2, 204707, Note_on_c, 0, 44, 0
2, 204720, Note_on_c, 0, 47, 126
2, 204720, Note_on_c, 0, 51, 126
2, 204720, Note_on_c, 0, 59, 126
2, 204833, Note_on_c, 0, 47, 0
2, 204833, Note_on_c, 0, 51, 0
2, 204833, Note_on_c, 0, 59, 0
2, 204840, Note_on_c, 0, 46, 126
2, 204840, Note_on_c, 0, 51, 126
2, 204840, Note_on_c, 0, 58, 126
2, 204953, Note_on_c, 0, 46, 0
2, 204953, Note_on_c, 0, 51, 0
2, 204953, Note_on_c, 0, 58, 0
2, 204960, Note_on_c, 0, 44, 126
2, 204960, Note_on_c, 0, 51, 126
2, 204960, Note_on_c, 0, 56, 126
2, 205187, Note_on_c, 0, 44, 0
2, 205187, Note_on_c, 0, 51, 0
2, 205187, Note_on_c, 0, 56, 0
2, 205200, Note_on_c, 0, 32, 126
2, 205200, Note_on_c, 0, 39, 126
2, 205200, Note_on_c, 0, 44, 126
2, 205655, Note_on_c, 0, 32, 0
2, 205655, Note_on_c, 0, 39, 0
2, 205655, Note_on_c, 0, 44, 0
2, 205680, Note_on_c, 0, 44, 126
2, 205680, Note_on_c, 0, 51, 126
2, 205680, Note_on_c, 0, 56, 126
2, 205907, Note_on_c, 0, 44, 0
2, 205907, Note_on_c, 0, 51, 0
2, 205907, Note_on_c, 0, 56, 0
2, 205920, Note_on_c, 0, 56, 126
2, 205920, Note_on_c, 0, 63, 126
2, 205920, Note_on_c, 0, 68, 126
2, 206147, Note_on_c, 0, 56, 0
2, 206147, Note_on_c, 0, 63, 0
2, 206147, Note_on_c, 0, 68, 0
2, 206160, Note_on_c, 0, 68, 126
2, 206160, Note_on_c, 0, 75, 126
2, 206160, Note_on_c, 0, 80, 126
2, 206387, Note_on_c, 0, 68, 0
2, 206387, Note_on_c, 0, 75, 0
2, 206387, Note_on_c, 0, 80, 0
2, 206400, Note_on_c, 0, 56, 126
2, 206400, Note_on_c, 0, 63, 126
2, 206400, Note_on_c, 0, 68, 126
2, 206627, Note_on_c, 0, 56, 0
2, 206627, Note_on_c, 0, 63, 0
2, 206627, Note_on_c, 0, 68, 0
2, 206640, Note_on_c, 0, 44, 126
2, 206640, Note_on_c, 0, 51, 126
2, 206640, Note_on_c, 0, 56, 126
2, 206867, Note_on_c, 0, 44, 0
2, 206867, Note_on_c, 0, 51, 0
2, 206867, Note_on_c, 0, 56, 0
2, 206880, Note_on_c, 0, 32, 126
2, 206880, Note_on_c, 0, 39, 126
2, 206880, Note_on_c, 0, 44, 126
2, 206882, Control_c, 0, 64, 127
2, 207335, Note_on_c, 0, 32, 0
2, 207335, Note_on_c, 0, 39, 0
2, 207335, Note_on_c, 0, 44, 0
2, 207600, Note_on_c, 0, 44, 126
2, 207600, Note_on_c, 0, 51, 126
2, 207600, Note_on_c, 0, 56, 126
2, 208055, Note_on_c, 0, 44, 0
2, 208055, Note_on_c, 0, 51, 0
2, 208055, Note_on_c, 0, 56, 0
2, 208320, Note_on_c, 0, 59, 126
2, 208320, Note_on_c, 0, 63, 126
2, 208320, Note_on_c, 0, 68, 126
2, 208320, Note_on_c, 0, 71, 126
2, 208321, Control_c, 0, 64, 0
2, 209687, Note_on_c, 0, 59, 0
2, 209687, Note_on_c, 0, 63, 0
2, 209687, Note_on_c, 0, 68, 0
2, 209687, Note_on_c, 0, 71, 0
2, 209688, End_track
0, 0, End_of_file
