0,0, Header,1,3,480,,,,,,,,,,,,,,,,,,,,,,,,,,,,
1,0, Start_track,,,,,,,,,,,,,,,,,,,,,,,,,,,,,,,
1,0, Unknown_meta_event,8,12,76,105,101,98,101,115,116,114,97,117,109,0,,,,,,,,,,,,,,,,,
1,0, Unknown_meta_event,9,27,65,32,100,114,101,97,109,32,111,102,32,108,111,118,101,32,40,78,111,99,116,117,114,110,101,41,0,,
1,0, Unknown_meta_event,10,29,70,114,97,110,122,32,76,105,115,122,116,32,32,40,49,56,49,49,32,45,32,49,56,56,54,41,32,32,0
1,0, Time_signature,1,2,24,8,,,,,,,,,,,,,,,,,,,,,,,,,,,
1,0, Key_signature,-4," ""major""",,,,,,,,,,,,,,,,,,,,,,,,,,,,,
1,0, Program_c,0,0,,,,,,,,,,,,,,,,,,,,,,,,,,,,,
1,2, Control_c,0,7,83,,,,,,,,,,,,,,,,,,,,,,,,,,,,
1,4, Control_c,0,10,64,,,,,,,,,,,,,,,,,,,,,,,,,,,,
1,6, Control_c,0,91,30,,,,,,,,,,,,,,,,,,,,,,,,,,,,
1,8, Control_c,0,93,30,,,,,,,,,,,,,,,,,,,,,,,,,,,,
1,480, Time_signature,6,2,24,8,,,,,,,,,,,,,,,,,,,,,,,,,,,
1,480, Tempo,445633,,,,,,,,,,,,,,,,,,,,,,,,,,,,,,
1,70080, Note_on_c,0,68,80,,,,,,,,,,,,,,,,,,,,,,,,,,,,
1,70080, Note_on_c,0,64,80,,,,,,,,,,,,,,,,,,,,,,,,,,,,
1,70199, Note_on_c,0,68,0,,,,,,,,,,,,,,,,,,,,,,,,,,,,
1,70199, Note_on_c,0,64,0,,,,,,,,,,,,,,,,,,,,,,,,,,,,
1,70200, Note_on_c,0,67,80,,,,,,,,,,,,,,,,,,,,,,,,,,,,
1,70200, Note_on_c,0,63,80,,,,,,,,,,,,,,,,,,,,,,,,,,,,
1,70319, Note_on_c,0,67,0,,,,,,,,,,,,,,,,,,,,,,,,,,,,
1,70319, Note_on_c,0,63,0,,,,,,,,,,,,,,,,,,,,,,,,,,,,
1,70320, Note_on_c,0,73,80,,,,,,,,,,,,,,,,,,,,,,,,,,,,
1,70320, Note_on_c,0,68,80,,,,,,,,,,,,,,,,,,,,,,,,,,,,
1,70439, Note_on_c,0,73,0,,,,,,,,,,,,,,,,,,,,,,,,,,,,
1,70439, Note_on_c,0,68,0,,,,,,,,,,,,,,,,,,,,,,,,,,,,
1,70440, Note_on_c,0,67,80,,,,,,,,,,,,,,,,,,,,,,,,,,,,
1,70440, Note_on_c,0,63,80,,,,,,,,,,,,,,,,,,,,,,,,,,,,
1,70559, Note_on_c,0,67,0,,,,,,,,,,,,,,,,,,,,,,,,,,,,
1,70559, Note_on_c,0,63,0,,,,,,,,,,,,,,,,,,,,,,,,,,,,
1,70560, Note_on_c,0,76,80,,,,,,,,,,,,,,,,,,,,,,,,,,,,
1,70560, Note_on_c,0,73,80,,,,,,,,,,,,,,,,,,,,,,,,,,,,
1,70679, Note_on_c,0,76,0,,,,,,,,,,,,,,,,,,,,,,,,,,,,
1,70679, Note_on_c,0,73,0,,,,,,,,,,,,,,,,,,,,,,,,,,,,
1,70680, Note_on_c,0,75,80,,,,,,,,,,,,,,,,,,,,,,,,,,,,
1,70680, Note_on_c,0,70,80,,,,,,,,,,,,,,,,,,,,,,,,,,,,
1,70799, Note_on_c,0,75,0,,,,,,,,,,,,,,,,,,,,,,,,,,,,
1,70799, Note_on_c,0,70,0,,,,,,,,,,,,,,,,,,,,,,,,,,,,
1,70800, Note_on_c,0,80,80,,,,,,,,,,,,,,,,,,,,,,,,,,,,
1,70800, Note_on_c,0,76,80,,,,,,,,,,,,,,,,,,,,,,,,,,,,
1,70919, Note_on_c,0,80,0,,,,,,,,,,,,,,,,,,,,,,,,,,,,
1,70919, Note_on_c,0,76,0,,,,,,,,,,,,,,,,,,,,,,,,,,,,
1,70920, Note_on_c,0,79,80,,,,,,,,,,,,,,,,,,,,,,,,,,,,
1,70920, Note_on_c,0,75,80,,,,,,,,,,,,,,,,,,,,,,,,,,,,
1,71039, Note_on_c,0,79,0,,,,,,,,,,,,,,,,,,,,,,,,,,,,
1,71039, Note_on_c,0,75,0,,,,,,,,,,,,,,,,,,,,,,,,,,,,
1,71040, Note_on_c,0,85,80,,,,,,,,,,,,,,,,,,,,,,,,,,,,
1,71040, Note_on_c,0,80,80,,,,,,,,,,,,,,,,,,,,,,,,,,,,
1,71159, Note_on_c,0,85,0,,,,,,,,,,,,,,,,,,,,,,,,,,,,
1,71159, Note_on_c,0,80,0,,,,,,,,,,,,,,,,,,,,,,,,,,,,
1,71160, Note_on_c,0,82,80,,,,,,,,,,,,,,,,,,,,,,,,,,,,
1,71160, Note_on_c,0,79,80,,,,,,,,,,,,,,,,,,,,,,,,,,,,
1,71279, Note_on_c,0,82,0,,,,,,,,,,,,,,,,,,,,,,,,,,,,
1,71279, Note_on_c,0,79,0,,,,,,,,,,,,,,,,,,,,,,,,,,,,
1,71280, Note_on_c,0,88,80,,,,,,,,,,,,,,,,,,,,,,,,,,,,
1,71280, Note_on_c,0,85,80,,,,,,,,,,,,,,,,,,,,,,,,,,,,
1,71399, Note_on_c,0,88,0,,,,,,,,,,,,,,,,,,,,,,,,,,,,
1,71399, Note_on_c,0,85,0,,,,,,,,,,,,,,,,,,,,,,,,,,,,
1,71400, Note_on_c,0,87,80,,,,,,,,,,,,,,,,,,,,,,,,,,,,
1,71400, Note_on_c,0,82,80,,,,,,,,,,,,,,,,,,,,,,,,,,,,
1,71519, Note_on_c,0,87,0,,,,,,,,,,,,,,,,,,,,,,,,,,,,
1,71519, Note_on_c,0,82,0,,,,,,,,,,,,,,,,,,,,,,,,,,,,
1,71520, Note_on_c,0,92,80,,,,,,,,,,,,,,,,,,,,,,,,,,,,
1,71520, Note_on_c,0,88,80,,,,,,,,,,,,,,,,,,,,,,,,,,,,
1,71639, Note_on_c,0,92,0,,,,,,,,,,,,,,,,,,,,,,,,,,,,
1,71639, Note_on_c,0,88,0,,,,,,,,,,,,,,,,,,,,,,,,,,,,
1,71640, Note_on_c,0,91,80,,,,,,,,,,,,,,,,,,,,,,,,,,,,
1,71640, Note_on_c,0,87,80,,,,,,,,,,,,,,,,,,,,,,,,,,,,
1,71759, Note_on_c,0,91,0,,,,,,,,,,,,,,,,,,,,,,,,,,,,
1,71759, Note_on_c,0,87,0,,,,,,,,,,,,,,,,,,,,,,,,,,,,
1,71760, Note_on_c,0,97,80,,,,,,,,,,,,,,,,,,,,,,,,,,,,
1,71760, Note_on_c,0,92,80,,,,,,,,,,,,,,,,,,,,,,,,,,,,
1,71879, Note_on_c,0,97,0,,,,,,,,,,,,,,,,,,,,,,,,,,,,
1,71879, Note_on_c,0,92,0,,,,,,,,,,,,,,,,,,,,,,,,,,,,
1,71880, Note_on_c,0,94,80,,,,,,,,,,,,,,,,,,,,,,,,,,,,
1,71880, Note_on_c,0,91,80,,,,,,,,,,,,,,,,,,,,,,,,,,,,
1,71999, Note_on_c,0,94,0,,,,,,,,,,,,,,,,,,,,,,,,,,,,
1,71999, Note_on_c,0,91,0,,,,,,,,,,,,,,,,,,,,,,,,,,,,
1,72000, Note_on_c,0,100,80,,,,,,,,,,,,,,,,,,,,,,,,,,,,
1,72000, Note_on_c,0,97,80,,,,,,,,,,,,,,,,,,,,,,,,,,,,
1,72119, Note_on_c,0,100,0,,,,,,,,,,,,,,,,,,,,,,,,,,,,
1,72119, Note_on_c,0,97,0,,,,,,,,,,,,,,,,,,,,,,,,,,,,
1,72120, Note_on_c,0,99,80,,,,,,,,,,,,,,,,,,,,,,,,,,,,
1,72120, Note_on_c,0,94,80,,,,,,,,,,,,,,,,,,,,,,,,,,,,
1,72239, Note_on_c,0,99,0,,,,,,,,,,,,,,,,,,,,,,,,,,,,
1,72239, Note_on_c,0,94,0,,,,,,,,,,,,,,,,,,,,,,,,,,,,
1,72240, Note_on_c,0,100,96,,,,,,,,,,,,,,,,,,,,,,,,,,,,
1,72240, Note_on_c,0,97,96,,,,,,,,,,,,,,,,,,,,,,,,,,,,
1,72359, Note_on_c,0,100,0,,,,,,,,,,,,,,,,,,,,,,,,,,,,
1,72359, Note_on_c,0,97,0,,,,,,,,,,,,,,,,,,,,,,,,,,,,
1,72360, Tempo,490196,,,,,,,,,,,,,,,,,,,,,,,,,,,,,,
1,72360, Note_on_c,0,99,96,,,,,,,,,,,,,,,,,,,,,,,,,,,,
1,72360, Note_on_c,0,94,96,,,,,,,,,,,,,,,,,,,,,,,,,,,,
1,72479, Note_on_c,0,99,0,,,,,,,,,,,,,,,,,,,,,,,,,,,,
1,72479, Note_on_c,0,94,0,,,,,,,,,,,,,,,,,,,,,,,,,,,,
1,72480, Note_on_c,0,97,96,,,,,,,,,,,,,,,,,,,,,,,,,,,,
1,72480, Note_on_c,0,92,96,,,,,,,,,,,,,,,,,,,,,,,,,,,,
1,72599, Note_on_c,0,97,0,,,,,,,,,,,,,,,,,,,,,,,,,,,,
1,72599, Note_on_c,0,92,0,,,,,,,,,,,,,,,,,,,,,,,,,,,,
1,72600, Note_on_c,0,94,96,,,,,,,,,,,,,,,,,,,,,,,,,,,,
1,72600, Note_on_c,0,91,96,,,,,,,,,,,,,,,,,,,,,,,,,,,,
1,72719, Note_on_c,0,94,0,,,,,,,,,,,,,,,,,,,,,,,,,,,,
1,72719, Note_on_c,0,91,0,,,,,,,,,,,,,,,,,,,,,,,,,,,,
1,72720, Note_on_c,0,92,96,,,,,,,,,,,,,,,,,,,,,,,,,,,,
1,72720, Note_on_c,0,89,96,,,,,,,,,,,,,,,,,,,,,,,,,,,,
1,72839, Note_on_c,0,92,0,,,,,,,,,,,,,,,,,,,,,,,,,,,,
1,72839, Note_on_c,0,89,0,,,,,,,,,,,,,,,,,,,,,,,,,,,,
1,72840, Tempo,534760,,,,,,,,,,,,,,,,,,,,,,,,,,,,,,
1,72840, Note_on_c,0,91,96,,,,,,,,,,,,,,,,,,,,,,,,,,,,
1,72840, Note_on_c,0,87,96,,,,,,,,,,,,,,,,,,,,,,,,,,,,
1,72959, Note_on_c,0,91,0,,,,,,,,,,,,,,,,,,,,,,,,,,,,
1,72959, Note_on_c,0,87,0,,,,,,,,,,,,,,,,,,,,,,,,,,,,
1,72960, Note_on_c,0,92,96,,,,,,,,,,,,,,,,,,,,,,,,,,,,
1,72960, Note_on_c,0,89,96,,,,,,,,,,,,,,,,,,,,,,,,,,,,
1,73079, Note_on_c,0,92,0,,,,,,,,,,,,,,,,,,,,,,,,,,,,
1,73079, Note_on_c,0,89,0,,,,,,,,,,,,,,,,,,,,,,,,,,,,
1,73080, Note_on_c,0,91,96,,,,,,,,,,,,,,,,,,,,,,,,,,,,
1,73080, Note_on_c,0,87,96,,,,,,,,,,,,,,,,,,,,,,,,,,,,
1,73199, Note_on_c,0,91,0,,,,,,,,,,,,,,,,,,,,,,,,,,,,
1,73199, Note_on_c,0,87,0,,,,,,,,,,,,,,,,,,,,,,,,,,,,
1,73200, Note_on_c,0,89,96,,,,,,,,,,,,,,,,,,,,,,,,,,,,
1,73200, Note_on_c,0,85,96,,,,,,,,,,,,,,,,,,,,,,,,,,,,
1,73319, Note_on_c,0,89,0,,,,,,,,,,,,,,,,,,,,,,,,,,,,
1,73319, Note_on_c,0,85,0,,,,,,,,,,,,,,,,,,,,,,,,,,,,
1,73320, Tempo,612745,,,,,,,,,,,,,,,,,,,,,,,,,,,,,,
1,73320, Note_on_c,0,87,96,,,,,,,,,,,,,,,,,,,,,,,,,,,,
1,73320, Note_on_c,0,82,96,,,,,,,,,,,,,,,,,,,,,,,,,,,,
1,73439, Note_on_c,0,87,0,,,,,,,,,,,,,,,,,,,,,,,,,,,,
1,73439, Note_on_c,0,82,0,,,,,,,,,,,,,,,,,,,,,,,,,,,,
1,73440, Note_on_c,0,85,96,,,,,,,,,,,,,,,,,,,,,,,,,,,,
1,73440, Note_on_c,0,80,96,,,,,,,,,,,,,,,,,,,,,,,,,,,,
1,73559, Note_on_c,0,85,0,,,,,,,,,,,,,,,,,,,,,,,,,,,,
1,73559, Note_on_c,0,80,0,,,,,,,,,,,,,,,,,,,,,,,,,,,,
1,73560, Note_on_c,0,82,96,,,,,,,,,,,,,,,,,,,,,,,,,,,,
1,73560, Note_on_c,0,79,96,,,,,,,,,,,,,,,,,,,,,,,,,,,,
1,73679, Note_on_c,0,82,0,,,,,,,,,,,,,,,,,,,,,,,,,,,,
1,73679, Note_on_c,0,79,0,,,,,,,,,,,,,,,,,,,,,,,,,,,,
1,73680, Tempo,735296,,,,,,,,,,,,,,,,,,,,,,,,,,,,,,
1,73680, Note_on_c,0,85,96,,,,,,,,,,,,,,,,,,,,,,,,,,,,
1,73680, Note_on_c,0,80,96,,,,,,,,,,,,,,,,,,,,,,,,,,,,
1,73799, Note_on_c,0,85,0,,,,,,,,,,,,,,,,,,,,,,,,,,,,
1,73799, Note_on_c,0,80,0,,,,,,,,,,,,,,,,,,,,,,,,,,,,
1,73800, Note_on_c,0,82,80,,,,,,,,,,,,,,,,,,,,,,,,,,,,
1,73800, Note_on_c,0,79,80,,,,,,,,,,,,,,,,,,,,,,,,,,,,
1,73919, Note_on_c,0,82,0,,,,,,,,,,,,,,,,,,,,,,,,,,,,
1,73919, Note_on_c,0,79,0,,,,,,,,,,,,,,,,,,,,,,,,,,,,
1,73920, Note_on_c,0,80,80,,,,,,,,,,,,,,,,,,,,,,,,,,,,
1,73920, Note_on_c,0,76,80,,,,,,,,,,,,,,,,,,,,,,,,,,,,
1,74039, Note_on_c,0,80,0,,,,,,,,,,,,,,,,,,,,,,,,,,,,
1,74039, Note_on_c,0,76,0,,,,,,,,,,,,,,,,,,,,,,,,,,,,
1,74040, Note_on_c,0,79,80,,,,,,,,,,,,,,,,,,,,,,,,,,,,
1,74040, Note_on_c,0,75,80,,,,,,,,,,,,,,,,,,,,,,,,,,,,
1,74159, Note_on_c,0,79,0,,,,,,,,,,,,,,,,,,,,,,,,,,,,
1,74159, Note_on_c,0,75,0,,,,,,,,,,,,,,,,,,,,,,,,,,,,
1,74160, Note_on_c,0,76,80,,,,,,,,,,,,,,,,,,,,,,,,,,,,
1,74160, Note_on_c,0,73,80,,,,,,,,,,,,,,,,,,,,,,,,,,,,
1,74279, Note_on_c,0,76,0,,,,,,,,,,,,,,,,,,,,,,,,,,,,
1,74279, Note_on_c,0,73,0,,,,,,,,,,,,,,,,,,,,,,,,,,,,
1,74280, Note_on_c,0,75,80,,,,,,,,,,,,,,,,,,,,,,,,,,,,
1,74280, Note_on_c,0,70,80,,,,,,,,,,,,,,,,,,,,,,,,,,,,
1,74399, Note_on_c,0,75,0,,,,,,,,,,,,,,,,,,,,,,,,,,,,
1,74399, Note_on_c,0,70,0,,,,,,,,,,,,,,,,,,,,,,,,,,,,
1,74400, Note_on_c,0,76,80,,,,,,,,,,,,,,,,,,,,,,,,,,,,
1,74400, Note_on_c,0,73,80,,,,,,,,,,,,,,,,,,,,,,,,,,,,
1,74519, Note_on_c,0,76,0,,,,,,,,,,,,,,,,,,,,,,,,,,,,
1,74519, Note_on_c,0,73,0,,,,,,,,,,,,,,,,,,,,,,,,,,,,
1,74520, Note_on_c,0,75,80,,,,,,,,,,,,,,,,,,,,,,,,,,,,
1,74520, Note_on_c,0,70,80,,,,,,,,,,,,,,,,,,,,,,,,,,,,
1,74639, Note_on_c,0,75,0,,,,,,,,,,,,,,,,,,,,,,,,,,,,
1,74639, Note_on_c,0,70,0,,,,,,,,,,,,,,,,,,,,,,,,,,,,
1,74640, Note_on_c,0,73,80,,,,,,,,,,,,,,,,,,,,,,,,,,,,
1,74640, Note_on_c,0,68,80,,,,,,,,,,,,,,,,,,,,,,,,,,,,
1,74759, Note_on_c,0,73,0,,,,,,,,,,,,,,,,,,,,,,,,,,,,
1,74759, Note_on_c,0,68,0,,,,,,,,,,,,,,,,,,,,,,,,,,,,
1,74760, Note_on_c,0,70,80,,,,,,,,,,,,,,,,,,,,,,,,,,,,
1,74760, Note_on_c,0,67,80,,,,,,,,,,,,,,,,,,,,,,,,,,,,
1,74879, Note_on_c,0,70,0,,,,,,,,,,,,,,,,,,,,,,,,,,,,
1,74879, Note_on_c,0,67,0,,,,,,,,,,,,,,,,,,,,,,,,,,,,
1,74880, Tempo,840334,,,,,,,,,,,,,,,,,,,,,,,,,,,,,,
1,74880, Note_on_c,0,73,80,,,,,,,,,,,,,,,,,,,,,,,,,,,,
1,74880, Note_on_c,0,68,80,,,,,,,,,,,,,,,,,,,,,,,,,,,,
1,74999, Note_on_c,0,73,0,,,,,,,,,,,,,,,,,,,,,,,,,,,,
1,74999, Note_on_c,0,68,0,,,,,,,,,,,,,,,,,,,,,,,,,,,,
1,75000, Note_on_c,0,70,80,,,,,,,,,,,,,,,,,,,,,,,,,,,,
1,75000, Note_on_c,0,67,80,,,,,,,,,,,,,,,,,,,,,,,,,,,,
1,75119, Note_on_c,0,70,0,,,,,,,,,,,,,,,,,,,,,,,,,,,,
1,75119, Note_on_c,0,67,0,,,,,,,,,,,,,,,,,,,,,,,,,,,,
1,75120, Note_on_c,0,73,80,,,,,,,,,,,,,,,,,,,,,,,,,,,,
1,75120, Note_on_c,0,68,80,,,,,,,,,,,,,,,,,,,,,,,,,,,,
1,75239, Note_on_c,0,73,0,,,,,,,,,,,,,,,,,,,,,,,,,,,,
1,75239, Note_on_c,0,68,0,,,,,,,,,,,,,,,,,,,,,,,,,,,,
1,75240, Note_on_c,0,70,80,,,,,,,,,,,,,,,,,,,,,,,,,,,,
1,75240, Note_on_c,0,67,80,,,,,,,,,,,,,,,,,,,,,,,,,,,,
1,75359, Note_on_c,0,70,0,,,,,,,,,,,,,,,,,,,,,,,,,,,,
1,75359, Note_on_c,0,67,0,,,,,,,,,,,,,,,,,,,,,,,,,,,,
1,75360, Note_on_c,0,73,80,,,,,,,,,,,,,,,,,,,,,,,,,,,,
1,75360, Note_on_c,0,68,80,,,,,,,,,,,,,,,,,,,,,,,,,,,,
1,75479, Note_on_c,0,73,0,,,,,,,,,,,,,,,,,,,,,,,,,,,,
1,75479, Note_on_c,0,68,0,,,,,,,,,,,,,,,,,,,,,,,,,,,,
1,75480, Note_on_c,0,70,80,,,,,,,,,,,,,,,,,,,,,,,,,,,,
1,75480, Note_on_c,0,67,80,,,,,,,,,,,,,,,,,,,,,,,,,,,,
1,75599, Note_on_c,0,70,0,,,,,,,,,,,,,,,,,,,,,,,,,,,,
1,75599, Note_on_c,0,67,0,,,,,,,,,,,,,,,,,,,,,,,,,,,,
1,75600, Note_on_c,0,73,80,,,,,,,,,,,,,,,,,,,,,,,,,,,,
1,75600, Note_on_c,0,68,80,,,,,,,,,,,,,,,,,,,,,,,,,,,,
1,75719, Note_on_c,0,73,0,,,,,,,,,,,,,,,,,,,,,,,,,,,,
1,75719, Note_on_c,0,68,0,,,,,,,,,,,,,,,,,,,,,,,,,,,,
1,75720, Note_on_c,0,70,80,,,,,,,,,,,,,,,,,,,,,,,,,,,,
1,75720, Note_on_c,0,67,80,,,,,,,,,,,,,,,,,,,,,,,,,,,,
1,75839, Note_on_c,0,70,0,,,,,,,,,,,,,,,,,,,,,,,,,,,,
1,75839, Note_on_c,0,67,0,,,,,,,,,,,,,,,,,,,,,,,,,,,,
1,75840, Note_on_c,0,73,80,,,,,,,,,,,,,,,,,,,,,,,,,,,,
1,75840, Note_on_c,0,68,80,,,,,,,,,,,,,,,,,,,,,,,,,,,,
1,75959, Note_on_c,0,73,0,,,,,,,,,,,,,,,,,,,,,,,,,,,,
1,75959, Note_on_c,0,68,0,,,,,,,,,,,,,,,,,,,,,,,,,,,,
1,75960, Note_on_c,0,70,80,,,,,,,,,,,,,,,,,,,,,,,,,,,,
1,75960, Note_on_c,0,67,80,,,,,,,,,,,,,,,,,,,,,,,,,,,,
1,76079, Note_on_c,0,70,0,,,,,,,,,,,,,,,,,,,,,,,,,,,,
1,76079, Note_on_c,0,67,0,,,,,,,,,,,,,,,,,,,,,,,,,,,,
1,76080, Note_on_c,0,73,80,,,,,,,,,,,,,,,,,,,,,,,,,,,,
1,76080, Note_on_c,0,68,80,,,,,,,,,,,,,,,,,,,,,,,,,,,,
1,76199, Note_on_c,0,73,0,,,,,,,,,,,,,,,,,,,,,,,,,,,,
1,76199, Note_on_c,0,68,0,,,,,,,,,,,,,,,,,,,,,,,,,,,,
1,76200, Note_on_c,0,70,80,,,,,,,,,,,,,,,,,,,,,,,,,,,,
1,76200, Note_on_c,0,67,80,,,,,,,,,,,,,,,,,,,,,,,,,,,,
1,76319, Note_on_c,0,70,0,,,,,,,,,,,,,,,,,,,,,,,,,,,,
1,76319, Note_on_c,0,67,0,,,,,,,,,,,,,,,,,,,,,,,,,,,,
1,76320, Tempo,980392,,,,,,,,,,,,,,,,,,,,,,,,,,,,,,
1,76320, Note_on_c,0,73,80,,,,,,,,,,,,,,,,,,,,,,,,,,,,
1,76320, Note_on_c,0,68,80,,,,,,,,,,,,,,,,,,,,,,,,,,,,
1,76439, Note_on_c,0,73,0,,,,,,,,,,,,,,,,,,,,,,,,,,,,
1,76439, Note_on_c,0,68,0,,,,,,,,,,,,,,,,,,,,,,,,,,,,
1,76440, Note_on_c,0,70,80,,,,,,,,,,,,,,,,,,,,,,,,,,,,
1,76440, Note_on_c,0,67,80,,,,,,,,,,,,,,,,,,,,,,,,,,,,
1,76559, Note_on_c,0,70,0,,,,,,,,,,,,,,,,,,,,,,,,,,,,
1,76559, Note_on_c,0,67,0,,,,,,,,,,,,,,,,,,,,,,,,,,,,
1,76560, Note_on_c,0,73,80,,,,,,,,,,,,,,,,,,,,,,,,,,,,
1,76560, Note_on_c,0,68,80,,,,,,,,,,,,,,,,,,,,,,,,,,,,
1,76679, Note_on_c,0,73,0,,,,,,,,,,,,,,,,,,,,,,,,,,,,
1,76679, Note_on_c,0,68,0,,,,,,,,,,,,,,,,,,,,,,,,,,,,
1,76680, Note_on_c,0,70,80,,,,,,,,,,,,,,,,,,,,,,,,,,,,
1,76680, Note_on_c,0,67,80,,,,,,,,,,,,,,,,,,,,,,,,,,,,
1,76799, Note_on_c,0,70,0,,,,,,,,,,,,,,,,,,,,,,,,,,,,
1,76799, Note_on_c,0,67,0,,,,,,,,,,,,,,,,,,,,,,,,,,,,
1,76800, Tempo,1307190,,,,,,,,,,,,,,,,,,,,,,,,,,,,,,
1,76800, Note_on_c,0,73,64,,,,,,,,,,,,,,,,,,,,,,,,,,,,
1,76800, Note_on_c,0,68,64,,,,,,,,,,,,,,,,,,,,,,,,,,,,
1,76919, Note_on_c,0,73,0,,,,,,,,,,,,,,,,,,,,,,,,,,,,
1,76919, Note_on_c,0,68,0,,,,,,,,,,,,,,,,,,,,,,,,,,,,
1,76920, Note_on_c,0,70,64,,,,,,,,,,,,,,,,,,,,,,,,,,,,
1,76920, Note_on_c,0,67,64,,,,,,,,,,,,,,,,,,,,,,,,,,,,
1,77039, Note_on_c,0,70,0,,,,,,,,,,,,,,,,,,,,,,,,,,,,
1,77039, Note_on_c,0,67,0,,,,,,,,,,,,,,,,,,,,,,,,,,,,
1,77040, Note_on_c,0,73,64,,,,,,,,,,,,,,,,,,,,,,,,,,,,
1,77040, Note_on_c,0,68,64,,,,,,,,,,,,,,,,,,,,,,,,,,,,
1,77159, Note_on_c,0,73,0,,,,,,,,,,,,,,,,,,,,,,,,,,,,
1,77159, Note_on_c,0,68,0,,,,,,,,,,,,,,,,,,,,,,,,,,,,
1,77160, Note_on_c,0,70,64,,,,,,,,,,,,,,,,,,,,,,,,,,,,
1,77160, Note_on_c,0,67,64,,,,,,,,,,,,,,,,,,,,,,,,,,,,
1,77279, Note_on_c,0,70,0,,,,,,,,,,,,,,,,,,,,,,,,,,,,
1,77279, Note_on_c,0,67,0,,,,,,,,,,,,,,,,,,,,,,,,,,,,
1,77280, Note_on_c,0,73,64,,,,,,,,,,,,,,,,,,,,,,,,,,,,
1,77280, Note_on_c,0,68,64,,,,,,,,,,,,,,,,,,,,,,,,,,,,
1,77399, Note_on_c,0,73,0,,,,,,,,,,,,,,,,,,,,,,,,,,,,
1,77399, Note_on_c,0,68,0,,,,,,,,,,,,,,,,,,,,,,,,,,,,
1,77400, Note_on_c,0,70,64,,,,,,,,,,,,,,,,,,,,,,,,,,,,
1,77400, Note_on_c,0,67,64,,,,,,,,,,,,,,,,,,,,,,,,,,,,
1,77519, Note_on_c,0,70,0,,,,,,,,,,,,,,,,,,,,,,,,,,,,
1,77519, Note_on_c,0,67,0,,,,,,,,,,,,,,,,,,,,,,,,,,,,
1,77760, Note_on_c,0,74,64,,,,,,,,,,,,,,,,,,,,,,,,,,,,
1,78239, Note_on_c,0,74,0,,,,,,,,,,,,,,,,,,,,,,,,,,,,
1,78240, Key_signature,5," ""major""",,,,,,,,,,,,,,,,,,,,,,,,,,,,,
1,78240, Tempo,408497,,,,,,,,,,,,,,,,,,,,,,,,,,,,,,
1,109920, Key_signature,0," ""major""",,,,,,,,,,,,,,,,,,,,,,,,,,,,,
1,147360, Key_signature,-4," ""major""",,,,,,,,,,,,,,,,,,,,,,,,,,,,,
1,173280, Note_on_c,0,100,112,,,,,,,,,,,,,,,,,,,,,,,,,,,,
1,173399, Note_on_c,0,100,0,,,,,,,,,,,,,,,,,,,,,,,,,,,,
1,173400, Note_on_c,0,96,112,,,,,,,,,,,,,,,,,,,,,,,,,,,,
1,173519, Note_on_c,0,96,0,,,,,,,,,,,,,,,,,,,,,,,,,,,,
1,173520, Note_on_c,0,99,112,,,,,,,,,,,,,,,,,,,,,,,,,,,,
1,173639, Note_on_c,0,99,0,,,,,,,,,,,,,,,,,,,,,,,,,,,,
1,173640, Note_on_c,0,95,112,,,,,,,,,,,,,,,,,,,,,,,,,,,,
1,173759, Note_on_c,0,95,0,,,,,,,,,,,,,,,,,,,,,,,,,,,,
1,173760, Note_on_c,0,98,112,,,,,,,,,,,,,,,,,,,,,,,,,,,,
1,173879, Note_on_c,0,98,0,,,,,,,,,,,,,,,,,,,,,,,,,,,,
1,173880, Note_on_c,0,94,112,,,,,,,,,,,,,,,,,,,,,,,,,,,,
1,173999, Note_on_c,0,94,0,,,,,,,,,,,,,,,,,,,,,,,,,,,,
1,174000, Note_on_c,0,97,112,,,,,,,,,,,,,,,,,,,,,,,,,,,,
1,174119, Note_on_c,0,97,0,,,,,,,,,,,,,,,,,,,,,,,,,,,,
1,174120, Note_on_c,0,93,112,,,,,,,,,,,,,,,,,,,,,,,,,,,,
1,174239, Note_on_c,0,93,0,,,,,,,,,,,,,,,,,,,,,,,,,,,,
1,174240, Note_on_c,0,96,112,,,,,,,,,,,,,,,,,,,,,,,,,,,,
1,174359, Note_on_c,0,96,0,,,,,,,,,,,,,,,,,,,,,,,,,,,,
1,174360, Note_on_c,0,92,112,,,,,,,,,,,,,,,,,,,,,,,,,,,,
1,174479, Note_on_c,0,92,0,,,,,,,,,,,,,,,,,,,,,,,,,,,,
1,174480, Note_on_c,0,95,112,,,,,,,,,,,,,,,,,,,,,,,,,,,,
1,174599, Note_on_c,0,95,0,,,,,,,,,,,,,,,,,,,,,,,,,,,,
1,174600, Note_on_c,0,91,112,,,,,,,,,,,,,,,,,,,,,,,,,,,,
1,174719, Note_on_c,0,91,0,,,,,,,,,,,,,,,,,,,,,,,,,,,,
1,174720, Note_on_c,0,94,112,,,,,,,,,,,,,,,,,,,,,,,,,,,,
1,174839, Note_on_c,0,94,0,,,,,,,,,,,,,,,,,,,,,,,,,,,,
1,174840, Note_on_c,0,90,112,,,,,,,,,,,,,,,,,,,,,,,,,,,,
1,174959, Note_on_c,0,90,0,,,,,,,,,,,,,,,,,,,,,,,,,,,,
1,174960, Note_on_c,0,93,112,,,,,,,,,,,,,,,,,,,,,,,,,,,,
1,175079, Note_on_c,0,93,0,,,,,,,,,,,,,,,,,,,,,,,,,,,,
1,175080, Note_on_c,0,89,112,,,,,,,,,,,,,,,,,,,,,,,,,,,,
1,175199, Note_on_c,0,89,0,,,,,,,,,,,,,,,,,,,,,,,,,,,,
1,175200, Note_on_c,0,92,112,,,,,,,,,,,,,,,,,,,,,,,,,,,,
1,175319, Note_on_c,0,92,0,,,,,,,,,,,,,,,,,,,,,,,,,,,,
1,175320, Note_on_c,0,88,112,,,,,,,,,,,,,,,,,,,,,,,,,,,,
1,175439, Note_on_c,0,88,0,,,,,,,,,,,,,,,,,,,,,,,,,,,,
1,175440, Note_on_c,0,91,112,,,,,,,,,,,,,,,,,,,,,,,,,,,,
1,175559, Note_on_c,0,91,0,,,,,,,,,,,,,,,,,,,,,,,,,,,,
1,175560, Note_on_c,0,87,112,,,,,,,,,,,,,,,,,,,,,,,,,,,,
1,175679, Note_on_c,0,87,0,,,,,,,,,,,,,,,,,,,,,,,,,,,,
1,175680, Note_on_c,0,90,112,,,,,,,,,,,,,,,,,,,,,,,,,,,,
1,175799, Note_on_c,0,90,0,,,,,,,,,,,,,,,,,,,,,,,,,,,,
1,175800, Note_on_c,0,86,112,,,,,,,,,,,,,,,,,,,,,,,,,,,,
1,175919, Note_on_c,0,86,0,,,,,,,,,,,,,,,,,,,,,,,,,,,,
1,175920, Note_on_c,0,89,112,,,,,,,,,,,,,,,,,,,,,,,,,,,,
1,176039, Note_on_c,0,89,0,,,,,,,,,,,,,,,,,,,,,,,,,,,,
1,176040, Note_on_c,0,85,112,,,,,,,,,,,,,,,,,,,,,,,,,,,,
1,176159, Note_on_c,0,85,0,,,,,,,,,,,,,,,,,,,,,,,,,,,,
1,176160, Note_on_c,0,88,112,,,,,,,,,,,,,,,,,,,,,,,,,,,,
1,176279, Note_on_c,0,88,0,,,,,,,,,,,,,,,,,,,,,,,,,,,,
1,176280, Note_on_c,0,84,112,,,,,,,,,,,,,,,,,,,,,,,,,,,,
1,176399, Note_on_c,0,84,0,,,,,,,,,,,,,,,,,,,,,,,,,,,,
1,176400, Note_on_c,0,87,112,,,,,,,,,,,,,,,,,,,,,,,,,,,,
1,176519, Note_on_c,0,87,0,,,,,,,,,,,,,,,,,,,,,,,,,,,,
1,176520, Note_on_c,0,83,112,,,,,,,,,,,,,,,,,,,,,,,,,,,,
1,176639, Note_on_c,0,83,0,,,,,,,,,,,,,,,,,,,,,,,,,,,,
1,176640, Note_on_c,0,86,112,,,,,,,,,,,,,,,,,,,,,,,,,,,,
1,176759, Note_on_c,0,86,0,,,,,,,,,,,,,,,,,,,,,,,,,,,,
1,176760, Note_on_c,0,82,112,,,,,,,,,,,,,,,,,,,,,,,,,,,,
1,176879, Note_on_c,0,82,0,,,,,,,,,,,,,,,,,,,,,,,,,,,,
1,176880, Note_on_c,0,85,112,,,,,,,,,,,,,,,,,,,,,,,,,,,,
1,176999, Note_on_c,0,85,0,,,,,,,,,,,,,,,,,,,,,,,,,,,,
1,177000, Note_on_c,0,81,112,,,,,,,,,,,,,,,,,,,,,,,,,,,,
1,177119, Note_on_c,0,81,0,,,,,,,,,,,,,,,,,,,,,,,,,,,,
1,177120, Note_on_c,0,83,112,,,,,,,,,,,,,,,,,,,,,,,,,,,,
1,177239, Note_on_c,0,83,0,,,,,,,,,,,,,,,,,,,,,,,,,,,,
1,177240, Note_on_c,0,80,112,,,,,,,,,,,,,,,,,,,,,,,,,,,,
1,177359, Note_on_c,0,80,0,,,,,,,,,,,,,,,,,,,,,,,,,,,,
1,177360, Note_on_c,0,83,112,,,,,,,,,,,,,,,,,,,,,,,,,,,,
1,177479, Note_on_c,0,83,0,,,,,,,,,,,,,,,,,,,,,,,,,,,,
1,177480, Note_on_c,0,79,112,,,,,,,,,,,,,,,,,,,,,,,,,,,,
1,177599, Note_on_c,0,79,0,,,,,,,,,,,,,,,,,,,,,,,,,,,,
1,177600, Note_on_c,0,82,112,,,,,,,,,,,,,,,,,,,,,,,,,,,,
1,177719, Note_on_c,0,82,0,,,,,,,,,,,,,,,,,,,,,,,,,,,,
1,177720, Note_on_c,0,78,112,,,,,,,,,,,,,,,,,,,,,,,,,,,,
1,177839, Note_on_c,0,78,0,,,,,,,,,,,,,,,,,,,,,,,,,,,,
1,177840, Note_on_c,0,81,112,,,,,,,,,,,,,,,,,,,,,,,,,,,,
1,177959, Note_on_c,0,81,0,,,,,,,,,,,,,,,,,,,,,,,,,,,,
1,177960, Note_on_c,0,77,112,,,,,,,,,,,,,,,,,,,,,,,,,,,,
1,178079, Note_on_c,0,77,0,,,,,,,,,,,,,,,,,,,,,,,,,,,,
1,178080, Note_on_c,0,80,112,,,,,,,,,,,,,,,,,,,,,,,,,,,,
1,178199, Note_on_c,0,80,0,,,,,,,,,,,,,,,,,,,,,,,,,,,,
1,178200, Note_on_c,0,76,112,,,,,,,,,,,,,,,,,,,,,,,,,,,,
1,178319, Note_on_c,0,76,0,,,,,,,,,,,,,,,,,,,,,,,,,,,,
1,178320, Note_on_c,0,79,112,,,,,,,,,,,,,,,,,,,,,,,,,,,,
1,178439, Note_on_c,0,79,0,,,,,,,,,,,,,,,,,,,,,,,,,,,,
1,178440, Note_on_c,0,75,112,,,,,,,,,,,,,,,,,,,,,,,,,,,,
1,178559, Note_on_c,0,75,0,,,,,,,,,,,,,,,,,,,,,,,,,,,,
1,178560, Note_on_c,0,78,112,,,,,,,,,,,,,,,,,,,,,,,,,,,,
1,178679, Note_on_c,0,78,0,,,,,,,,,,,,,,,,,,,,,,,,,,,,
1,178680, Note_on_c,0,74,112,,,,,,,,,,,,,,,,,,,,,,,,,,,,
1,178799, Note_on_c,0,74,0,,,,,,,,,,,,,,,,,,,,,,,,,,,,
1,178800, Note_on_c,0,77,112,,,,,,,,,,,,,,,,,,,,,,,,,,,,
1,178919, Note_on_c,0,77,0,,,,,,,,,,,,,,,,,,,,,,,,,,,,
1,178920, Note_on_c,0,74,112,,,,,,,,,,,,,,,,,,,,,,,,,,,,
1,179039, Note_on_c,0,74,0,,,,,,,,,,,,,,,,,,,,,,,,,,,,
1,179040, Note_on_c,0,77,112,,,,,,,,,,,,,,,,,,,,,,,,,,,,
1,179040, Note_on_c,0,73,112,,,,,,,,,,,,,,,,,,,,,,,,,,,,
1,179159, Note_on_c,0,77,0,,,,,,,,,,,,,,,,,,,,,,,,,,,,
1,179159, Note_on_c,0,73,0,,,,,,,,,,,,,,,,,,,,,,,,,,,,
1,179160, Note_on_c,0,75,112,,,,,,,,,,,,,,,,,,,,,,,,,,,,
1,179279, Note_on_c,0,75,0,,,,,,,,,,,,,,,,,,,,,,,,,,,,
1,179280, Note_on_c,0,73,112,,,,,,,,,,,,,,,,,,,,,,,,,,,,
1,179399, Note_on_c,0,73,0,,,,,,,,,,,,,,,,,,,,,,,,,,,,
1,179400, Note_on_c,0,70,112,,,,,,,,,,,,,,,,,,,,,,,,,,,,
1,179519, Note_on_c,0,70,0,,,,,,,,,,,,,,,,,,,,,,,,,,,,
1,179520, Note_on_c,0,67,112,,,,,,,,,,,,,,,,,,,,,,,,,,,,
1,179639, Note_on_c,0,67,0,,,,,,,,,,,,,,,,,,,,,,,,,,,,
1,179640, Note_on_c,0,61,112,,,,,,,,,,,,,,,,,,,,,,,,,,,,
1,179759, Note_on_c,0,61,0,,,,,,,,,,,,,,,,,,,,,,,,,,,,
1,179760, Note_on_c,0,63,112,,,,,,,,,,,,,,,,,,,,,,,,,,,,
1,179879, Note_on_c,0,63,0,,,,,,,,,,,,,,,,,,,,,,,,,,,,
1,179880, Note_on_c,0,67,112,,,,,,,,,,,,,,,,,,,,,,,,,,,,
1,179999, Note_on_c,0,67,0,,,,,,,,,,,,,,,,,,,,,,,,,,,,
1,180000, Note_on_c,0,70,112,,,,,,,,,,,,,,,,,,,,,,,,,,,,
1,180119, Note_on_c,0,70,0,,,,,,,,,,,,,,,,,,,,,,,,,,,,
1,180120, Note_on_c,0,73,112,,,,,,,,,,,,,,,,,,,,,,,,,,,,
1,180239, Note_on_c,0,73,0,,,,,,,,,,,,,,,,,,,,,,,,,,,,
1,180240, Note_on_c,0,74,112,,,,,,,,,,,,,,,,,,,,,,,,,,,,
1,180359, Note_on_c,0,74,0,,,,,,,,,,,,,,,,,,,,,,,,,,,,
1,180360, Note_on_c,0,77,112,,,,,,,,,,,,,,,,,,,,,,,,,,,,
1,180479, Note_on_c,0,77,0,,,,,,,,,,,,,,,,,,,,,,,,,,,,
1,180480, Note_on_c,0,75,112,,,,,,,,,,,,,,,,,,,,,,,,,,,,
1,180599, Note_on_c,0,75,0,,,,,,,,,,,,,,,,,,,,,,,,,,,,
1,180600, Note_on_c,0,79,112,,,,,,,,,,,,,,,,,,,,,,,,,,,,
1,180719, Note_on_c,0,79,0,,,,,,,,,,,,,,,,,,,,,,,,,,,,
1,180720, Note_on_c,0,82,112,,,,,,,,,,,,,,,,,,,,,,,,,,,,
1,180839, Note_on_c,0,82,0,,,,,,,,,,,,,,,,,,,,,,,,,,,,
1,180840, Note_on_c,0,85,112,,,,,,,,,,,,,,,,,,,,,,,,,,,,
1,180959, Note_on_c,0,85,0,,,,,,,,,,,,,,,,,,,,,,,,,,,,
1,180960, Note_on_c,0,88,112,,,,,,,,,,,,,,,,,,,,,,,,,,,,
1,181079, Note_on_c,0,88,0,,,,,,,,,,,,,,,,,,,,,,,,,,,,
1,181080, Note_on_c,0,89,112,,,,,,,,,,,,,,,,,,,,,,,,,,,,
1,181199, Note_on_c,0,89,0,,,,,,,,,,,,,,,,,,,,,,,,,,,,
1,181200, Note_on_c,0,87,112,,,,,,,,,,,,,,,,,,,,,,,,,,,,
1,181319, Note_on_c,0,87,0,,,,,,,,,,,,,,,,,,,,,,,,,,,,
1,181320, Note_on_c,0,91,112,,,,,,,,,,,,,,,,,,,,,,,,,,,,
1,181439, Note_on_c,0,91,0,,,,,,,,,,,,,,,,,,,,,,,,,,,,
1,181440, Note_on_c,0,94,112,,,,,,,,,,,,,,,,,,,,,,,,,,,,
1,181559, Note_on_c,0,94,0,,,,,,,,,,,,,,,,,,,,,,,,,,,,
1,181560, Note_on_c,0,97,112,,,,,,,,,,,,,,,,,,,,,,,,,,,,
1,181679, Note_on_c,0,97,0,,,,,,,,,,,,,,,,,,,,,,,,,,,,
1,181680, Note_on_c,0,100,112,,,,,,,,,,,,,,,,,,,,,,,,,,,,
1,181799, Note_on_c,0,100,0,,,,,,,,,,,,,,,,,,,,,,,,,,,,
1,181800, Note_on_c,0,101,112,,,,,,,,,,,,,,,,,,,,,,,,,,,,
1,181919, Note_on_c,0,101,0,,,,,,,,,,,,,,,,,,,,,,,,,,,,
1,181920, Note_on_c,0,96,112,,,,,,,,,,,,,,,,,,,,,,,,,,,,
1,182039, Note_on_c,0,96,0,,,,,,,,,,,,,,,,,,,,,,,,,,,,
1,182040, Note_on_c,0,97,112,,,,,,,,,,,,,,,,,,,,,,,,,,,,
1,182159, Note_on_c,0,97,0,,,,,,,,,,,,,,,,,,,,,,,,,,,,
1,182160, Note_on_c,0,92,112,,,,,,,,,,,,,,,,,,,,,,,,,,,,
1,182279, Note_on_c,0,92,0,,,,,,,,,,,,,,,,,,,,,,,,,,,,
1,182280, Note_on_c,0,94,112,,,,,,,,,,,,,,,,,,,,,,,,,,,,
1,182399, Note_on_c,0,94,0,,,,,,,,,,,,,,,,,,,,,,,,,,,,
1,182400, Note_on_c,0,90,112,,,,,,,,,,,,,,,,,,,,,,,,,,,,
1,182519, Note_on_c,0,90,0,,,,,,,,,,,,,,,,,,,,,,,,,,,,
1,182520, Note_on_c,0,91,112,,,,,,,,,,,,,,,,,,,,,,,,,,,,
1,182639, Note_on_c,0,91,0,,,,,,,,,,,,,,,,,,,,,,,,,,,,
1,182640, Note_on_c,0,88,112,,,,,,,,,,,,,,,,,,,,,,,,,,,,
1,182759, Note_on_c,0,88,0,,,,,,,,,,,,,,,,,,,,,,,,,,,,
1,182760, Note_on_c,0,89,112,,,,,,,,,,,,,,,,,,,,,,,,,,,,
1,182879, Note_on_c,0,89,0,,,,,,,,,,,,,,,,,,,,,,,,,,,,
1,182880, Note_on_c,0,84,112,,,,,,,,,,,,,,,,,,,,,,,,,,,,
1,182999, Note_on_c,0,84,0,,,,,,,,,,,,,,,,,,,,,,,,,,,,
1,183000, Note_on_c,0,85,112,,,,,,,,,,,,,,,,,,,,,,,,,,,,
1,183119, Note_on_c,0,85,0,,,,,,,,,,,,,,,,,,,,,,,,,,,,
1,183120, Note_on_c,0,81,112,,,,,,,,,,,,,,,,,,,,,,,,,,,,
1,183239, Note_on_c,0,81,0,,,,,,,,,,,,,,,,,,,,,,,,,,,,
1,183240, Note_on_c,0,82,112,,,,,,,,,,,,,,,,,,,,,,,,,,,,
1,183359, Note_on_c,0,82,0,,,,,,,,,,,,,,,,,,,,,,,,,,,,
1,183360, Note_on_c,0,78,112,,,,,,,,,,,,,,,,,,,,,,,,,,,,
1,183479, Note_on_c,0,78,0,,,,,,,,,,,,,,,,,,,,,,,,,,,,
1,183480, Note_on_c,0,79,112,,,,,,,,,,,,,,,,,,,,,,,,,,,,
1,183599, Note_on_c,0,79,0,,,,,,,,,,,,,,,,,,,,,,,,,,,,
1,183600, Note_on_c,0,76,112,,,,,,,,,,,,,,,,,,,,,,,,,,,,
1,183719, Note_on_c,0,76,0,,,,,,,,,,,,,,,,,,,,,,,,,,,,
1,183720, Note_on_c,0,77,112,,,,,,,,,,,,,,,,,,,,,,,,,,,,
1,183839, Note_on_c,0,77,0,,,,,,,,,,,,,,,,,,,,,,,,,,,,
1,183840, Note_on_c,0,72,112,,,,,,,,,,,,,,,,,,,,,,,,,,,,
1,183959, Note_on_c,0,72,0,,,,,,,,,,,,,,,,,,,,,,,,,,,,
1,183960, Note_on_c,0,73,112,,,,,,,,,,,,,,,,,,,,,,,,,,,,
1,184079, Note_on_c,0,73,0,,,,,,,,,,,,,,,,,,,,,,,,,,,,
1,184080, Note_on_c,0,69,112,,,,,,,,,,,,,,,,,,,,,,,,,,,,
1,184199, Note_on_c,0,69,0,,,,,,,,,,,,,,,,,,,,,,,,,,,,
1,184200, Note_on_c,0,70,112,,,,,,,,,,,,,,,,,,,,,,,,,,,,
1,184319, Note_on_c,0,70,0,,,,,,,,,,,,,,,,,,,,,,,,,,,,
1,184320, Note_on_c,0,66,112,,,,,,,,,,,,,,,,,,,,,,,,,,,,
1,184439, Note_on_c,0,66,0,,,,,,,,,,,,,,,,,,,,,,,,,,,,
1,184440, Note_on_c,0,67,112,,,,,,,,,,,,,,,,,,,,,,,,,,,,
1,184559, Note_on_c,0,67,0,,,,,,,,,,,,,,,,,,,,,,,,,,,,
1,184560, Note_on_c,0,64,112,,,,,,,,,,,,,,,,,,,,,,,,,,,,
1,184679, Note_on_c,0,64,0,,,,,,,,,,,,,,,,,,,,,,,,,,,,
1,184680, Note_on_c,0,65,112,,,,,,,,,,,,,,,,,,,,,,,,,,,,
1,184799, Note_on_c,0,65,0,,,,,,,,,,,,,,,,,,,,,,,,,,,,
1,187680, Tempo,445633,,,,,,,,,,,,,,,,,,,,,,,,,,,,,,
1,188640, Note_on_c,0,84,80,,,,,,,,,,,,,,,,,,,,,,,,,,,,
1,188640, Note_on_c,0,80,80,,,,,,,,,,,,,,,,,,,,,,,,,,,,
1,188640, Note_on_c,0,75,80,,,,,,,,,,,,,,,,,,,,,,,,,,,,
1,189119, Note_on_c,0,84,0,,,,,,,,,,,,,,,,,,,,,,,,,,,,
1,189119, Note_on_c,0,80,0,,,,,,,,,,,,,,,,,,,,,,,,,,,,
1,189119, Note_on_c,0,75,0,,,,,,,,,,,,,,,,,,,,,,,,,,,,
1,189120, Note_on_c,0,84,80,,,,,,,,,,,,,,,,,,,,,,,,,,,,
1,189120, Note_on_c,0,80,80,,,,,,,,,,,,,,,,,,,,,,,,,,,,
1,189120, Note_on_c,0,75,80,,,,,,,,,,,,,,,,,,,,,,,,,,,,
1,189599, Note_on_c,0,84,0,,,,,,,,,,,,,,,,,,,,,,,,,,,,
1,189599, Note_on_c,0,80,0,,,,,,,,,,,,,,,,,,,,,,,,,,,,
1,189599, Note_on_c,0,75,0,,,,,,,,,,,,,,,,,,,,,,,,,,,,
1,191520, Note_on_c,0,84,80,,,,,,,,,,,,,,,,,,,,,,,,,,,,
1,191520, Note_on_c,0,82,80,,,,,,,,,,,,,,,,,,,,,,,,,,,,
1,191520, Note_on_c,0,76,80,,,,,,,,,,,,,,,,,,,,,,,,,,,,
1,191999, Note_on_c,0,84,0,,,,,,,,,,,,,,,,,,,,,,,,,,,,
1,191999, Note_on_c,0,82,0,,,,,,,,,,,,,,,,,,,,,,,,,,,,
1,191999, Note_on_c,0,76,0,,,,,,,,,,,,,,,,,,,,,,,,,,,,
1,192000, Note_on_c,0,84,80,,,,,,,,,,,,,,,,,,,,,,,,,,,,
1,192000, Note_on_c,0,82,80,,,,,,,,,,,,,,,,,,,,,,,,,,,,
1,192000, Note_on_c,0,76,80,,,,,,,,,,,,,,,,,,,,,,,,,,,,
1,192479, Note_on_c,0,84,0,,,,,,,,,,,,,,,,,,,,,,,,,,,,
1,192479, Note_on_c,0,82,0,,,,,,,,,,,,,,,,,,,,,,,,,,,,
1,192479, Note_on_c,0,76,0,,,,,,,,,,,,,,,,,,,,,,,,,,,,
1,194400, Note_on_c,0,84,80,,,,,,,,,,,,,,,,,,,,,,,,,,,,
1,194400, Note_on_c,0,81,80,,,,,,,,,,,,,,,,,,,,,,,,,,,,
1,194400, Note_on_c,0,75,80,,,,,,,,,,,,,,,,,,,,,,,,,,,,
1,194879, Note_on_c,0,84,0,,,,,,,,,,,,,,,,,,,,,,,,,,,,
1,194879, Note_on_c,0,81,0,,,,,,,,,,,,,,,,,,,,,,,,,,,,
1,194879, Note_on_c,0,75,0,,,,,,,,,,,,,,,,,,,,,,,,,,,,
1,194880, Note_on_c,0,84,80,,,,,,,,,,,,,,,,,,,,,,,,,,,,
1,194880, Note_on_c,0,81,80,,,,,,,,,,,,,,,,,,,,,,,,,,,,
1,194880, Note_on_c,0,75,80,,,,,,,,,,,,,,,,,,,,,,,,,,,,
1,195359, Note_on_c,0,84,0,,,,,,,,,,,,,,,,,,,,,,,,,,,,
1,195359, Note_on_c,0,81,0,,,,,,,,,,,,,,,,,,,,,,,,,,,,
1,195359, Note_on_c,0,75,0,,,,,,,,,,,,,,,,,,,,,,,,,,,,
1,197280, Note_on_c,0,84,80,,,,,,,,,,,,,,,,,,,,,,,,,,,,
1,197280, Note_on_c,0,77,80,,,,,,,,,,,,,,,,,,,,,,,,,,,,
1,197280, Note_on_c,0,74,80,,,,,,,,,,,,,,,,,,,,,,,,,,,,
1,197759, Note_on_c,0,84,0,,,,,,,,,,,,,,,,,,,,,,,,,,,,
1,197759, Note_on_c,0,77,0,,,,,,,,,,,,,,,,,,,,,,,,,,,,
1,197759, Note_on_c,0,74,0,,,,,,,,,,,,,,,,,,,,,,,,,,,,
1,197760, Note_on_c,0,77,80,,,,,,,,,,,,,,,,,,,,,,,,,,,,
1,197760, Note_on_c,0,74,80,,,,,,,,,,,,,,,,,,,,,,,,,,,,
1,198239, Note_on_c,0,77,0,,,,,,,,,,,,,,,,,,,,,,,,,,,,
1,198239, Note_on_c,0,74,0,,,,,,,,,,,,,,,,,,,,,,,,,,,,
1,200160, Note_on_c,0,80,80,,,,,,,,,,,,,,,,,,,,,,,,,,,,
1,200160, Note_on_c,0,73,80,,,,,,,,,,,,,,,,,,,,,,,,,,,,
1,200160, Note_on_c,0,70,80,,,,,,,,,,,,,,,,,,,,,,,,,,,,
1,200639, Note_on_c,0,80,0,,,,,,,,,,,,,,,,,,,,,,,,,,,,
1,200639, Note_on_c,0,73,0,,,,,,,,,,,,,,,,,,,,,,,,,,,,
1,200639, Note_on_c,0,70,0,,,,,,,,,,,,,,,,,,,,,,,,,,,,
1,200640, Note_on_c,0,73,80,,,,,,,,,,,,,,,,,,,,,,,,,,,,
1,200640, Note_on_c,0,84,80,,,,,,,,,,,,,,,,,,,,,,,,,,,,
1,200700, Note_on_c,0,75,80,,,,,,,,,,,,,,,,,,,,,,,,,,,,
1,200760, Note_on_c,0,79,80,,,,,,,,,,,,,,,,,,,,,,,,,,,,
1,201119, Note_on_c,0,73,0,,,,,,,,,,,,,,,,,,,,,,,,,,,,
1,201120, Note_on_c,0,82,80,,,,,,,,,,,,,,,,,,,,,,,,,,,,
1,201179, Note_on_c,0,75,0,,,,,,,,,,,,,,,,,,,,,,,,,,,,
1,201239, Note_on_c,0,79,0,,,,,,,,,,,,,,,,,,,,,,,,,,,,
1,201599, Note_on_c,0,82,0,,,,,,,,,,,,,,,,,,,,,,,,,,,,
1,201599, Note_on_c,0,84,0,,,,,,,,,,,,,,,,,,,,,,,,,,,,
1,203040, Note_on_c,0,80,80,,,,,,,,,,,,,,,,,,,,,,,,,,,,
1,203040, Note_on_c,0,75,80,,,,,,,,,,,,,,,,,,,,,,,,,,,,
1,203040, Note_on_c,0,72,80,,,,,,,,,,,,,,,,,,,,,,,,,,,,
1,203519, Note_on_c,0,80,0,,,,,,,,,,,,,,,,,,,,,,,,,,,,
1,203519, Note_on_c,0,75,0,,,,,,,,,,,,,,,,,,,,,,,,,,,,
1,203519, Note_on_c,0,72,0,,,,,,,,,,,,,,,,,,,,,,,,,,,,
1,203520, Note_on_c,0,80,80,,,,,,,,,,,,,,,,,,,,,,,,,,,,
1,203520, Note_on_c,0,75,80,,,,,,,,,,,,,,,,,,,,,,,,,,,,
1,203520, Note_on_c,0,72,80,,,,,,,,,,,,,,,,,,,,,,,,,,,,
1,203999, Note_on_c,0,80,0,,,,,,,,,,,,,,,,,,,,,,,,,,,,
1,203999, Note_on_c,0,75,0,,,,,,,,,,,,,,,,,,,,,,,,,,,,
1,203999, Note_on_c,0,72,0,,,,,,,,,,,,,,,,,,,,,,,,,,,,
1,205920, Note_on_c,0,84,80,,,,,,,,,,,,,,,,,,,,,,,,,,,,
1,205920, Note_on_c,0,80,80,,,,,,,,,,,,,,,,,,,,,,,,,,,,
1,205920, Note_on_c,0,75,80,,,,,,,,,,,,,,,,,,,,,,,,,,,,
1,206399, Note_on_c,0,84,0,,,,,,,,,,,,,,,,,,,,,,,,,,,,
1,206399, Note_on_c,0,80,0,,,,,,,,,,,,,,,,,,,,,,,,,,,,
1,206399, Note_on_c,0,75,0,,,,,,,,,,,,,,,,,,,,,,,,,,,,
1,206400, Note_on_c,0,84,80,,,,,,,,,,,,,,,,,,,,,,,,,,,,
1,206400, Note_on_c,0,80,80,,,,,,,,,,,,,,,,,,,,,,,,,,,,
1,206400, Note_on_c,0,75,80,,,,,,,,,,,,,,,,,,,,,,,,,,,,
1,206879, Note_on_c,0,84,0,,,,,,,,,,,,,,,,,,,,,,,,,,,,
1,206879, Note_on_c,0,80,0,,,,,,,,,,,,,,,,,,,,,,,,,,,,
1,206879, Note_on_c,0,75,0,,,,,,,,,,,,,,,,,,,,,,,,,,,,
1,208800, Note_on_c,0,84,80,,,,,,,,,,,,,,,,,,,,,,,,,,,,
1,208800, Note_on_c,0,82,80,,,,,,,,,,,,,,,,,,,,,,,,,,,,
1,208800, Note_on_c,0,76,80,,,,,,,,,,,,,,,,,,,,,,,,,,,,
1,209279, Note_on_c,0,84,0,,,,,,,,,,,,,,,,,,,,,,,,,,,,
1,209279, Note_on_c,0,82,0,,,,,,,,,,,,,,,,,,,,,,,,,,,,
1,209279, Note_on_c,0,76,0,,,,,,,,,,,,,,,,,,,,,,,,,,,,
1,209280, Note_on_c,0,84,80,,,,,,,,,,,,,,,,,,,,,,,,,,,,
1,209280, Note_on_c,0,82,80,,,,,,,,,,,,,,,,,,,,,,,,,,,,
1,209280, Note_on_c,0,76,80,,,,,,,,,,,,,,,,,,,,,,,,,,,,
1,209759, Note_on_c,0,84,0,,,,,,,,,,,,,,,,,,,,,,,,,,,,
1,209759, Note_on_c,0,82,0,,,,,,,,,,,,,,,,,,,,,,,,,,,,
1,209759, Note_on_c,0,76,0,,,,,,,,,,,,,,,,,,,,,,,,,,,,
1,214560, Note_on_c,0,89,80,,,,,,,,,,,,,,,,,,,,,,,,,,,,
1,214560, Note_on_c,0,84,80,,,,,,,,,,,,,,,,,,,,,,,,,,,,
1,214560, Note_on_c,0,80,80,,,,,,,,,,,,,,,,,,,,,,,,,,,,
1,215039, Note_on_c,0,89,0,,,,,,,,,,,,,,,,,,,,,,,,,,,,
1,215039, Note_on_c,0,84,0,,,,,,,,,,,,,,,,,,,,,,,,,,,,
1,215039, Note_on_c,0,80,0,,,,,,,,,,,,,,,,,,,,,,,,,,,,
1,215040, Note_on_c,0,89,80,,,,,,,,,,,,,,,,,,,,,,,,,,,,
1,215040, Note_on_c,0,83,80,,,,,,,,,,,,,,,,,,,,,,,,,,,,
1,215040, Note_on_c,0,80,80,,,,,,,,,,,,,,,,,,,,,,,,,,,,
1,215519, Note_on_c,0,89,0,,,,,,,,,,,,,,,,,,,,,,,,,,,,
1,215519, Note_on_c,0,83,0,,,,,,,,,,,,,,,,,,,,,,,,,,,,
1,215519, Note_on_c,0,80,0,,,,,,,,,,,,,,,,,,,,,,,,,,,,
1,217440, Note_on_c,0,82,80,,,,,,,,,,,,,,,,,,,,,,,,,,,,
1,217440, Note_on_c,0,80,80,,,,,,,,,,,,,,,,,,,,,,,,,,,,
1,217440, Note_on_c,0,76,80,,,,,,,,,,,,,,,,,,,,,,,,,,,,
1,217919, Note_on_c,0,82,0,,,,,,,,,,,,,,,,,,,,,,,,,,,,
1,217919, Note_on_c,0,80,0,,,,,,,,,,,,,,,,,,,,,,,,,,,,
1,217919, Note_on_c,0,76,0,,,,,,,,,,,,,,,,,,,,,,,,,,,,
1,217920, Note_on_c,0,82,80,,,,,,,,,,,,,,,,,,,,,,,,,,,,
1,217920, Note_on_c,0,80,80,,,,,,,,,,,,,,,,,,,,,,,,,,,,
1,217920, Note_on_c,0,76,80,,,,,,,,,,,,,,,,,,,,,,,,,,,,
1,218160, Tempo,490196,,,,,,,,,,,,,,,,,,,,,,,,,,,,,,
1,218399, Note_on_c,0,82,0,,,,,,,,,,,,,,,,,,,,,,,,,,,,
1,218399, Note_on_c,0,80,0,,,,,,,,,,,,,,,,,,,,,,,,,,,,
1,218399, Note_on_c,0,76,0,,,,,,,,,,,,,,,,,,,,,,,,,,,,
1,220320, Note_on_c,0,87,80,,,,,,,,,,,,,,,,,,,,,,,,,,,,
1,220320, Note_on_c,0,82,80,,,,,,,,,,,,,,,,,,,,,,,,,,,,
1,220320, Note_on_c,0,78,80,,,,,,,,,,,,,,,,,,,,,,,,,,,,
1,220799, Note_on_c,0,87,0,,,,,,,,,,,,,,,,,,,,,,,,,,,,
1,220799, Note_on_c,0,82,0,,,,,,,,,,,,,,,,,,,,,,,,,,,,
1,220799, Note_on_c,0,78,0,,,,,,,,,,,,,,,,,,,,,,,,,,,,
1,220800, Note_on_c,0,87,80,,,,,,,,,,,,,,,,,,,,,,,,,,,,
1,220800, Note_on_c,0,81,80,,,,,,,,,,,,,,,,,,,,,,,,,,,,
1,220800, Note_on_c,0,78,80,,,,,,,,,,,,,,,,,,,,,,,,,,,,
1,221279, Note_on_c,0,87,0,,,,,,,,,,,,,,,,,,,,,,,,,,,,
1,221279, Note_on_c,0,81,0,,,,,,,,,,,,,,,,,,,,,,,,,,,,
1,221279, Note_on_c,0,78,0,,,,,,,,,,,,,,,,,,,,,,,,,,,,
1,223200, Note_on_c,0,80,80,,,,,,,,,,,,,,,,,,,,,,,,,,,,
1,223200, Note_on_c,0,78,80,,,,,,,,,,,,,,,,,,,,,,,,,,,,
1,223200, Note_on_c,0,74,80,,,,,,,,,,,,,,,,,,,,,,,,,,,,
1,223679, Note_on_c,0,80,0,,,,,,,,,,,,,,,,,,,,,,,,,,,,
1,223679, Note_on_c,0,78,0,,,,,,,,,,,,,,,,,,,,,,,,,,,,
1,223679, Note_on_c,0,74,0,,,,,,,,,,,,,,,,,,,,,,,,,,,,
1,223680, Note_on_c,0,80,80,,,,,,,,,,,,,,,,,,,,,,,,,,,,
1,223680, Note_on_c,0,77,80,,,,,,,,,,,,,,,,,,,,,,,,,,,,
1,223680, Note_on_c,0,74,80,,,,,,,,,,,,,,,,,,,,,,,,,,,,
1,224159, Note_on_c,0,80,0,,,,,,,,,,,,,,,,,,,,,,,,,,,,
1,224159, Note_on_c,0,77,0,,,,,,,,,,,,,,,,,,,,,,,,,,,,
1,224159, Note_on_c,0,74,0,,,,,,,,,,,,,,,,,,,,,,,,,,,,
1,226080, Note_on_c,0,85,80,,,,,,,,,,,,,,,,,,,,,,,,,,,,
1,226080, Note_on_c,0,80,80,,,,,,,,,,,,,,,,,,,,,,,,,,,,
1,226080, Note_on_c,0,77,80,,,,,,,,,,,,,,,,,,,,,,,,,,,,
1,226559, Note_on_c,0,85,0,,,,,,,,,,,,,,,,,,,,,,,,,,,,
1,226559, Note_on_c,0,80,0,,,,,,,,,,,,,,,,,,,,,,,,,,,,
1,226559, Note_on_c,0,77,0,,,,,,,,,,,,,,,,,,,,,,,,,,,,
1,226560, Note_on_c,0,85,80,,,,,,,,,,,,,,,,,,,,,,,,,,,,
1,226560, Note_on_c,0,80,80,,,,,,,,,,,,,,,,,,,,,,,,,,,,
1,226560, Note_on_c,0,76,80,,,,,,,,,,,,,,,,,,,,,,,,,,,,
1,227039, Note_on_c,0,85,0,,,,,,,,,,,,,,,,,,,,,,,,,,,,
1,227039, Note_on_c,0,80,0,,,,,,,,,,,,,,,,,,,,,,,,,,,,
1,227039, Note_on_c,0,76,0,,,,,,,,,,,,,,,,,,,,,,,,,,,,
1,228960, Tempo,515996,,,,,,,,,,,,,,,,,,,,,,,,,,,,,,
1,228961, End_track,,,,,,,,,,,,,,,,,,,,,,,,,,,,,,,
2,0, Start_track,,,,,,,,,,,,,,,,,,,,,,,,,,,,,,,
2,0, Key_signature,-4," ""major""",,,,,,,,,,,,,,,,,,,,,,,,,,,,,
2,0, Program_c,1,0,,,,,,,,,,,,,,,,,,,,,,,,,,,,,
2,2, Control_c,1,7,100,,,,,,,,,,,,,,,,,,,,,,,,,,,,
2,4, Control_c,1,10,64,,,,,,,,,,,,,,,,,,,,,,,,,,,,
2,6, Control_c,1,91,30,,,,,,,,,,,,,,,,,,,,,,,,,,,,
2,8, Control_c,1,93,30,,,,,,,,,,,,,,,,,,,,,,,,,,,,
2,480, Note_on_c,1,60,64,,,,,,,,,,,,,,,,,,,,,,,,,,,,
2,720, Note_on_c,1,63,64,,,,,,,,,,,,,,,,,,,,,,,,,,,,
2,959, Note_on_c,1,63,0,,,,,,,,,,,,,,,,,,,,,,,,,,,,
2,960, Note_on_c,1,68,64,,,,,,,,,,,,,,,,,,,,,,,,,,,,
2,1199, Note_on_c,1,68,0,,,,,,,,,,,,,,,,,,,,,,,,,,,,
2,1200, Note_on_c,1,72,64,,,,,,,,,,,,,,,,,,,,,,,,,,,,
2,1439, Note_on_c,1,72,0,,,,,,,,,,,,,,,,,,,,,,,,,,,,
2,1440, Note_on_c,1,68,64,,,,,,,,,,,,,,,,,,,,,,,,,,,,
2,1679, Note_on_c,1,68,0,,,,,,,,,,,,,,,,,,,,,,,,,,,,
2,1680, Note_on_c,1,63,64,,,,,,,,,,,,,,,,,,,,,,,,,,,,
2,1919, Note_on_c,1,60,0,,,,,,,,,,,,,,,,,,,,,,,,,,,,
2,1919, Note_on_c,1,63,0,,,,,,,,,,,,,,,,,,,,,,,,,,,,
2,1920, Note_on_c,1,60,64,,,,,,,,,,,,,,,,,,,,,,,,,,,,
2,2160, Note_on_c,1,63,64,,,,,,,,,,,,,,,,,,,,,,,,,,,,
2,2399, Note_on_c,1,63,0,,,,,,,,,,,,,,,,,,,,,,,,,,,,
2,2400, Note_on_c,1,68,64,,,,,,,,,,,,,,,,,,,,,,,,,,,,
2,2639, Note_on_c,1,68,0,,,,,,,,,,,,,,,,,,,,,,,,,,,,
2,2640, Note_on_c,1,72,64,,,,,,,,,,,,,,,,,,,,,,,,,,,,
2,2879, Note_on_c,1,72,0,,,,,,,,,,,,,,,,,,,,,,,,,,,,
2,2880, Note_on_c,1,68,64,,,,,,,,,,,,,,,,,,,,,,,,,,,,
2,3119, Note_on_c,1,68,0,,,,,,,,,,,,,,,,,,,,,,,,,,,,
2,3120, Note_on_c,1,63,64,,,,,,,,,,,,,,,,,,,,,,,,,,,,
2,3359, Note_on_c,1,60,0,,,,,,,,,,,,,,,,,,,,,,,,,,,,
2,3359, Note_on_c,1,63,0,,,,,,,,,,,,,,,,,,,,,,,,,,,,
2,3360, Note_on_c,1,60,64,,,,,,,,,,,,,,,,,,,,,,,,,,,,
2,3600, Note_on_c,1,64,64,,,,,,,,,,,,,,,,,,,,,,,,,,,,
2,3839, Note_on_c,1,64,0,,,,,,,,,,,,,,,,,,,,,,,,,,,,
2,3840, Note_on_c,1,70,64,,,,,,,,,,,,,,,,,,,,,,,,,,,,
2,4079, Note_on_c,1,70,0,,,,,,,,,,,,,,,,,,,,,,,,,,,,
2,4080, Note_on_c,1,72,64,,,,,,,,,,,,,,,,,,,,,,,,,,,,
2,4319, Note_on_c,1,72,0,,,,,,,,,,,,,,,,,,,,,,,,,,,,
2,4320, Note_on_c,1,70,64,,,,,,,,,,,,,,,,,,,,,,,,,,,,
2,4559, Note_on_c,1,70,0,,,,,,,,,,,,,,,,,,,,,,,,,,,,
2,4560, Note_on_c,1,64,64,,,,,,,,,,,,,,,,,,,,,,,,,,,,
2,4799, Note_on_c,1,60,0,,,,,,,,,,,,,,,,,,,,,,,,,,,,
2,4799, Note_on_c,1,64,0,,,,,,,,,,,,,,,,,,,,,,,,,,,,
2,4800, Note_on_c,1,60,64,,,,,,,,,,,,,,,,,,,,,,,,,,,,
2,5040, Note_on_c,1,64,64,,,,,,,,,,,,,,,,,,,,,,,,,,,,
2,5279, Note_on_c,1,64,0,,,,,,,,,,,,,,,,,,,,,,,,,,,,
2,5280, Note_on_c,1,70,64,,,,,,,,,,,,,,,,,,,,,,,,,,,,
2,5519, Note_on_c,1,70,0,,,,,,,,,,,,,,,,,,,,,,,,,,,,
2,5520, Note_on_c,1,72,64,,,,,,,,,,,,,,,,,,,,,,,,,,,,
2,5759, Note_on_c,1,72,0,,,,,,,,,,,,,,,,,,,,,,,,,,,,
2,5760, Note_on_c,1,70,64,,,,,,,,,,,,,,,,,,,,,,,,,,,,
2,5999, Note_on_c,1,70,0,,,,,,,,,,,,,,,,,,,,,,,,,,,,
2,6000, Note_on_c,1,64,64,,,,,,,,,,,,,,,,,,,,,,,,,,,,
2,6239, Note_on_c,1,60,0,,,,,,,,,,,,,,,,,,,,,,,,,,,,
2,6239, Note_on_c,1,64,0,,,,,,,,,,,,,,,,,,,,,,,,,,,,
2,6240, Note_on_c,1,60,64,,,,,,,,,,,,,,,,,,,,,,,,,,,,
2,6480, Note_on_c,1,63,64,,,,,,,,,,,,,,,,,,,,,,,,,,,,
2,6719, Note_on_c,1,63,0,,,,,,,,,,,,,,,,,,,,,,,,,,,,
2,6720, Note_on_c,1,69,64,,,,,,,,,,,,,,,,,,,,,,,,,,,,
2,6959, Note_on_c,1,69,0,,,,,,,,,,,,,,,,,,,,,,,,,,,,
2,6960, Note_on_c,1,72,64,,,,,,,,,,,,,,,,,,,,,,,,,,,,
2,7199, Note_on_c,1,72,0,,,,,,,,,,,,,,,,,,,,,,,,,,,,
2,7200, Note_on_c,1,69,64,,,,,,,,,,,,,,,,,,,,,,,,,,,,
2,7439, Note_on_c,1,69,0,,,,,,,,,,,,,,,,,,,,,,,,,,,,
2,7440, Note_on_c,1,63,64,,,,,,,,,,,,,,,,,,,,,,,,,,,,
2,7679, Note_on_c,1,60,0,,,,,,,,,,,,,,,,,,,,,,,,,,,,
2,7679, Note_on_c,1,63,0,,,,,,,,,,,,,,,,,,,,,,,,,,,,
2,7680, Note_on_c,1,61,64,,,,,,,,,,,,,,,,,,,,,,,,,,,,
2,7920, Note_on_c,1,63,64,,,,,,,,,,,,,,,,,,,,,,,,,,,,
2,8159, Note_on_c,1,63,0,,,,,,,,,,,,,,,,,,,,,,,,,,,,
2,8160, Note_on_c,1,69,64,,,,,,,,,,,,,,,,,,,,,,,,,,,,
2,8399, Note_on_c,1,69,0,,,,,,,,,,,,,,,,,,,,,,,,,,,,
2,8400, Note_on_c,1,72,64,,,,,,,,,,,,,,,,,,,,,,,,,,,,
2,8639, Note_on_c,1,72,0,,,,,,,,,,,,,,,,,,,,,,,,,,,,
2,8640, Note_on_c,1,69,64,,,,,,,,,,,,,,,,,,,,,,,,,,,,
2,8879, Note_on_c,1,69,0,,,,,,,,,,,,,,,,,,,,,,,,,,,,
2,8880, Note_on_c,1,63,64,,,,,,,,,,,,,,,,,,,,,,,,,,,,
2,9119, Note_on_c,1,61,0,,,,,,,,,,,,,,,,,,,,,,,,,,,,
2,9119, Note_on_c,1,63,0,,,,,,,,,,,,,,,,,,,,,,,,,,,,
2,9120, Note_on_c,1,60,64,,,,,,,,,,,,,,,,,,,,,,,,,,,,
2,9360, Note_on_c,1,62,64,,,,,,,,,,,,,,,,,,,,,,,,,,,,
2,9599, Note_on_c,1,62,0,,,,,,,,,,,,,,,,,,,,,,,,,,,,
2,9600, Note_on_c,1,68,64,,,,,,,,,,,,,,,,,,,,,,,,,,,,
2,9839, Note_on_c,1,68,0,,,,,,,,,,,,,,,,,,,,,,,,,,,,
2,9840, Note_on_c,1,72,64,,,,,,,,,,,,,,,,,,,,,,,,,,,,
2,10079, Note_on_c,1,72,0,,,,,,,,,,,,,,,,,,,,,,,,,,,,
2,10080, Note_on_c,1,68,64,,,,,,,,,,,,,,,,,,,,,,,,,,,,
2,10319, Note_on_c,1,68,0,,,,,,,,,,,,,,,,,,,,,,,,,,,,
2,10320, Note_on_c,1,62,64,,,,,,,,,,,,,,,,,,,,,,,,,,,,
2,10559, Note_on_c,1,60,0,,,,,,,,,,,,,,,,,,,,,,,,,,,,
2,10559, Note_on_c,1,62,0,,,,,,,,,,,,,,,,,,,,,,,,,,,,
2,10800, Note_on_c,1,62,64,,,,,,,,,,,,,,,,,,,,,,,,,,,,
2,11039, Note_on_c,1,62,0,,,,,,,,,,,,,,,,,,,,,,,,,,,,
2,11040, Note_on_c,1,68,64,,,,,,,,,,,,,,,,,,,,,,,,,,,,
2,11279, Note_on_c,1,68,0,,,,,,,,,,,,,,,,,,,,,,,,,,,,
2,11280, Note_on_c,1,72,64,,,,,,,,,,,,,,,,,,,,,,,,,,,,
2,11519, Note_on_c,1,72,0,,,,,,,,,,,,,,,,,,,,,,,,,,,,
2,11520, Note_on_c,1,70,64,,,,,,,,,,,,,,,,,,,,,,,,,,,,
2,11759, Note_on_c,1,70,0,,,,,,,,,,,,,,,,,,,,,,,,,,,,
2,11760, Note_on_c,1,62,64,,,,,,,,,,,,,,,,,,,,,,,,,,,,
2,11999, Note_on_c,1,62,0,,,,,,,,,,,,,,,,,,,,,,,,,,,,
2,12240, Note_on_c,1,61,64,,,,,,,,,,,,,,,,,,,,,,,,,,,,
2,12479, Note_on_c,1,61,0,,,,,,,,,,,,,,,,,,,,,,,,,,,,
2,12480, Note_on_c,1,63,64,,,,,,,,,,,,,,,,,,,,,,,,,,,,
2,12719, Note_on_c,1,63,0,,,,,,,,,,,,,,,,,,,,,,,,,,,,
2,12720, Note_on_c,1,72,64,,,,,,,,,,,,,,,,,,,,,,,,,,,,
2,12959, Note_on_c,1,72,0,,,,,,,,,,,,,,,,,,,,,,,,,,,,
2,12960, Note_on_c,1,63,64,,,,,,,,,,,,,,,,,,,,,,,,,,,,
2,13199, Note_on_c,1,63,0,,,,,,,,,,,,,,,,,,,,,,,,,,,,
2,13200, Note_on_c,1,61,64,,,,,,,,,,,,,,,,,,,,,,,,,,,,
2,13439, Note_on_c,1,61,0,,,,,,,,,,,,,,,,,,,,,,,,,,,,
2,13680, Note_on_c,1,61,64,,,,,,,,,,,,,,,,,,,,,,,,,,,,
2,13919, Note_on_c,1,61,0,,,,,,,,,,,,,,,,,,,,,,,,,,,,
2,13920, Note_on_c,1,63,64,,,,,,,,,,,,,,,,,,,,,,,,,,,,
2,14159, Note_on_c,1,63,0,,,,,,,,,,,,,,,,,,,,,,,,,,,,
2,14160, Note_on_c,1,67,64,,,,,,,,,,,,,,,,,,,,,,,,,,,,
2,14399, Note_on_c,1,67,0,,,,,,,,,,,,,,,,,,,,,,,,,,,,
2,14400, Note_on_c,1,63,64,,,,,,,,,,,,,,,,,,,,,,,,,,,,
2,14639, Note_on_c,1,63,0,,,,,,,,,,,,,,,,,,,,,,,,,,,,
2,14640, Note_on_c,1,61,64,,,,,,,,,,,,,,,,,,,,,,,,,,,,
2,14879, Note_on_c,1,61,0,,,,,,,,,,,,,,,,,,,,,,,,,,,,
2,15120, Note_on_c,1,60,64,,,,,,,,,,,,,,,,,,,,,,,,,,,,
2,15359, Note_on_c,1,60,0,,,,,,,,,,,,,,,,,,,,,,,,,,,,
2,15360, Note_on_c,1,63,64,,,,,,,,,,,,,,,,,,,,,,,,,,,,
2,15599, Note_on_c,1,63,0,,,,,,,,,,,,,,,,,,,,,,,,,,,,
2,15600, Note_on_c,1,68,64,,,,,,,,,,,,,,,,,,,,,,,,,,,,
2,15839, Note_on_c,1,68,0,,,,,,,,,,,,,,,,,,,,,,,,,,,,
2,15840, Note_on_c,1,63,64,,,,,,,,,,,,,,,,,,,,,,,,,,,,
2,16079, Note_on_c,1,63,0,,,,,,,,,,,,,,,,,,,,,,,,,,,,
2,16080, Note_on_c,1,60,64,,,,,,,,,,,,,,,,,,,,,,,,,,,,
2,16319, Note_on_c,1,60,0,,,,,,,,,,,,,,,,,,,,,,,,,,,,
2,16560, Note_on_c,1,56,64,,,,,,,,,,,,,,,,,,,,,,,,,,,,
2,16799, Note_on_c,1,56,0,,,,,,,,,,,,,,,,,,,,,,,,,,,,
2,16800, Note_on_c,1,60,64,,,,,,,,,,,,,,,,,,,,,,,,,,,,
2,17039, Note_on_c,1,60,0,,,,,,,,,,,,,,,,,,,,,,,,,,,,
2,17040, Note_on_c,1,68,64,,,,,,,,,,,,,,,,,,,,,,,,,,,,
2,17279, Note_on_c,1,68,0,,,,,,,,,,,,,,,,,,,,,,,,,,,,
2,17280, Note_on_c,1,60,64,,,,,,,,,,,,,,,,,,,,,,,,,,,,
2,17519, Note_on_c,1,60,0,,,,,,,,,,,,,,,,,,,,,,,,,,,,
2,17520, Note_on_c,1,56,64,,,,,,,,,,,,,,,,,,,,,,,,,,,,
2,17759, Note_on_c,1,56,0,,,,,,,,,,,,,,,,,,,,,,,,,,,,
2,17760, Note_on_c,1,60,64,,,,,,,,,,,,,,,,,,,,,,,,,,,,
2,18000, Note_on_c,1,63,64,,,,,,,,,,,,,,,,,,,,,,,,,,,,
2,18239, Note_on_c,1,63,0,,,,,,,,,,,,,,,,,,,,,,,,,,,,
2,18240, Note_on_c,1,68,64,,,,,,,,,,,,,,,,,,,,,,,,,,,,
2,18479, Note_on_c,1,68,0,,,,,,,,,,,,,,,,,,,,,,,,,,,,
2,18480, Note_on_c,1,72,64,,,,,,,,,,,,,,,,,,,,,,,,,,,,
2,18719, Note_on_c,1,72,0,,,,,,,,,,,,,,,,,,,,,,,,,,,,
2,18720, Note_on_c,1,68,64,,,,,,,,,,,,,,,,,,,,,,,,,,,,
2,18959, Note_on_c,1,68,0,,,,,,,,,,,,,,,,,,,,,,,,,,,,
2,18960, Note_on_c,1,63,64,,,,,,,,,,,,,,,,,,,,,,,,,,,,
2,19199, Note_on_c,1,60,0,,,,,,,,,,,,,,,,,,,,,,,,,,,,
2,19199, Note_on_c,1,63,0,,,,,,,,,,,,,,,,,,,,,,,,,,,,
2,19200, Note_on_c,1,60,64,,,,,,,,,,,,,,,,,,,,,,,,,,,,
2,19440, Note_on_c,1,63,64,,,,,,,,,,,,,,,,,,,,,,,,,,,,
2,19679, Note_on_c,1,63,0,,,,,,,,,,,,,,,,,,,,,,,,,,,,
2,19680, Note_on_c,1,68,64,,,,,,,,,,,,,,,,,,,,,,,,,,,,
2,19919, Note_on_c,1,68,0,,,,,,,,,,,,,,,,,,,,,,,,,,,,
2,19920, Note_on_c,1,72,64,,,,,,,,,,,,,,,,,,,,,,,,,,,,
2,20159, Note_on_c,1,72,0,,,,,,,,,,,,,,,,,,,,,,,,,,,,
2,20160, Note_on_c,1,68,64,,,,,,,,,,,,,,,,,,,,,,,,,,,,
2,20399, Note_on_c,1,68,0,,,,,,,,,,,,,,,,,,,,,,,,,,,,
2,20400, Note_on_c,1,63,64,,,,,,,,,,,,,,,,,,,,,,,,,,,,
2,20639, Note_on_c,1,60,0,,,,,,,,,,,,,,,,,,,,,,,,,,,,
2,20639, Note_on_c,1,63,0,,,,,,,,,,,,,,,,,,,,,,,,,,,,
2,20640, Note_on_c,1,60,64,,,,,,,,,,,,,,,,,,,,,,,,,,,,
2,20880, Note_on_c,1,64,64,,,,,,,,,,,,,,,,,,,,,,,,,,,,
2,21119, Note_on_c,1,64,0,,,,,,,,,,,,,,,,,,,,,,,,,,,,
2,21120, Note_on_c,1,70,64,,,,,,,,,,,,,,,,,,,,,,,,,,,,
2,21359, Note_on_c,1,70,0,,,,,,,,,,,,,,,,,,,,,,,,,,,,
2,21360, Note_on_c,1,72,64,,,,,,,,,,,,,,,,,,,,,,,,,,,,
2,21599, Note_on_c,1,72,0,,,,,,,,,,,,,,,,,,,,,,,,,,,,
2,21600, Note_on_c,1,70,64,,,,,,,,,,,,,,,,,,,,,,,,,,,,
2,21839, Note_on_c,1,70,0,,,,,,,,,,,,,,,,,,,,,,,,,,,,
2,21840, Note_on_c,1,64,64,,,,,,,,,,,,,,,,,,,,,,,,,,,,
2,22079, Note_on_c,1,60,0,,,,,,,,,,,,,,,,,,,,,,,,,,,,
2,22079, Note_on_c,1,64,0,,,,,,,,,,,,,,,,,,,,,,,,,,,,
2,22080, Note_on_c,1,60,64,,,,,,,,,,,,,,,,,,,,,,,,,,,,
2,22320, Note_on_c,1,64,64,,,,,,,,,,,,,,,,,,,,,,,,,,,,
2,22559, Note_on_c,1,64,0,,,,,,,,,,,,,,,,,,,,,,,,,,,,
2,22560, Note_on_c,1,70,64,,,,,,,,,,,,,,,,,,,,,,,,,,,,
2,22799, Note_on_c,1,70,0,,,,,,,,,,,,,,,,,,,,,,,,,,,,
2,22800, Note_on_c,1,72,64,,,,,,,,,,,,,,,,,,,,,,,,,,,,
2,23039, Note_on_c,1,72,0,,,,,,,,,,,,,,,,,,,,,,,,,,,,
2,23040, Note_on_c,1,70,64,,,,,,,,,,,,,,,,,,,,,,,,,,,,
2,23279, Note_on_c,1,70,0,,,,,,,,,,,,,,,,,,,,,,,,,,,,
2,23280, Note_on_c,1,64,64,,,,,,,,,,,,,,,,,,,,,,,,,,,,
2,23519, Note_on_c,1,60,0,,,,,,,,,,,,,,,,,,,,,,,,,,,,
2,23519, Note_on_c,1,64,0,,,,,,,,,,,,,,,,,,,,,,,,,,,,
2,23520, Note_on_c,1,60,64,,,,,,,,,,,,,,,,,,,,,,,,,,,,
2,23760, Note_on_c,1,63,64,,,,,,,,,,,,,,,,,,,,,,,,,,,,
2,23999, Note_on_c,1,63,0,,,,,,,,,,,,,,,,,,,,,,,,,,,,
2,24000, Note_on_c,1,69,64,,,,,,,,,,,,,,,,,,,,,,,,,,,,
2,24239, Note_on_c,1,69,0,,,,,,,,,,,,,,,,,,,,,,,,,,,,
2,24240, Note_on_c,1,72,64,,,,,,,,,,,,,,,,,,,,,,,,,,,,
2,24479, Note_on_c,1,72,0,,,,,,,,,,,,,,,,,,,,,,,,,,,,
2,24480, Note_on_c,1,69,64,,,,,,,,,,,,,,,,,,,,,,,,,,,,
2,24719, Note_on_c,1,69,0,,,,,,,,,,,,,,,,,,,,,,,,,,,,
2,24720, Note_on_c,1,63,64,,,,,,,,,,,,,,,,,,,,,,,,,,,,
2,24959, Note_on_c,1,60,0,,,,,,,,,,,,,,,,,,,,,,,,,,,,
2,24959, Note_on_c,1,63,0,,,,,,,,,,,,,,,,,,,,,,,,,,,,
2,25200, Note_on_c,1,63,64,,,,,,,,,,,,,,,,,,,,,,,,,,,,
2,25439, Note_on_c,1,63,0,,,,,,,,,,,,,,,,,,,,,,,,,,,,
2,25440, Note_on_c,1,65,64,,,,,,,,,,,,,,,,,,,,,,,,,,,,
2,25679, Note_on_c,1,65,0,,,,,,,,,,,,,,,,,,,,,,,,,,,,
2,25680, Note_on_c,1,72,64,,,,,,,,,,,,,,,,,,,,,,,,,,,,
2,25919, Note_on_c,1,72,0,,,,,,,,,,,,,,,,,,,,,,,,,,,,
2,25920, Note_on_c,1,69,64,,,,,,,,,,,,,,,,,,,,,,,,,,,,
2,26159, Note_on_c,1,69,0,,,,,,,,,,,,,,,,,,,,,,,,,,,,
2,26160, Note_on_c,1,63,64,,,,,,,,,,,,,,,,,,,,,,,,,,,,
2,26399, Note_on_c,1,63,0,,,,,,,,,,,,,,,,,,,,,,,,,,,,
2,26640, Note_on_c,1,62,64,,,,,,,,,,,,,,,,,,,,,,,,,,,,
2,26879, Note_on_c,1,62,0,,,,,,,,,,,,,,,,,,,,,,,,,,,,
2,26880, Note_on_c,1,68,64,,,,,,,,,,,,,,,,,,,,,,,,,,,,
2,27119, Note_on_c,1,68,0,,,,,,,,,,,,,,,,,,,,,,,,,,,,
2,27120, Note_on_c,1,77,64,,,,,,,,,,,,,,,,,,,,,,,,,,,,
2,27359, Note_on_c,1,77,0,,,,,,,,,,,,,,,,,,,,,,,,,,,,
2,27360, Note_on_c,1,72,64,,,,,,,,,,,,,,,,,,,,,,,,,,,,
2,27599, Note_on_c,1,72,0,,,,,,,,,,,,,,,,,,,,,,,,,,,,
2,27600, Note_on_c,1,68,64,,,,,,,,,,,,,,,,,,,,,,,,,,,,
2,27839, Note_on_c,1,68,0,,,,,,,,,,,,,,,,,,,,,,,,,,,,
2,28080, Note_on_c,1,56,64,,,,,,,,,,,,,,,,,,,,,,,,,,,,
2,28319, Note_on_c,1,56,0,,,,,,,,,,,,,,,,,,,,,,,,,,,,
2,28320, Note_on_c,1,58,64,,,,,,,,,,,,,,,,,,,,,,,,,,,,
2,28559, Note_on_c,1,58,0,,,,,,,,,,,,,,,,,,,,,,,,,,,,
2,28560, Note_on_c,1,65,64,,,,,,,,,,,,,,,,,,,,,,,,,,,,
2,28799, Note_on_c,1,65,0,,,,,,,,,,,,,,,,,,,,,,,,,,,,
2,28800, Note_on_c,1,62,64,,,,,,,,,,,,,,,,,,,,,,,,,,,,
2,29039, Note_on_c,1,62,0,,,,,,,,,,,,,,,,,,,,,,,,,,,,
2,29040, Note_on_c,1,58,64,,,,,,,,,,,,,,,,,,,,,,,,,,,,
2,29279, Note_on_c,1,58,0,,,,,,,,,,,,,,,,,,,,,,,,,,,,
2,29520, Note_on_c,1,58,64,,,,,,,,,,,,,,,,,,,,,,,,,,,,
2,29759, Note_on_c,1,58,0,,,,,,,,,,,,,,,,,,,,,,,,,,,,
2,29760, Note_on_c,1,61,64,,,,,,,,,,,,,,,,,,,,,,,,,,,,
2,29999, Note_on_c,1,61,0,,,,,,,,,,,,,,,,,,,,,,,,,,,,
2,30000, Note_on_c,1,67,64,,,,,,,,,,,,,,,,,,,,,,,,,,,,
2,30239, Note_on_c,1,67,0,,,,,,,,,,,,,,,,,,,,,,,,,,,,
2,30240, Note_on_c,1,63,64,,,,,,,,,,,,,,,,,,,,,,,,,,,,
2,30479, Note_on_c,1,63,0,,,,,,,,,,,,,,,,,,,,,,,,,,,,
2,30480, Note_on_c,1,61,64,,,,,,,,,,,,,,,,,,,,,,,,,,,,
2,30719, Note_on_c,1,61,0,,,,,,,,,,,,,,,,,,,,,,,,,,,,
2,30960, Note_on_c,1,61,64,,,,,,,,,,,,,,,,,,,,,,,,,,,,
2,31199, Note_on_c,1,61,0,,,,,,,,,,,,,,,,,,,,,,,,,,,,
2,31200, Note_on_c,1,63,64,,,,,,,,,,,,,,,,,,,,,,,,,,,,
2,31439, Note_on_c,1,63,0,,,,,,,,,,,,,,,,,,,,,,,,,,,,
2,31440, Note_on_c,1,67,64,,,,,,,,,,,,,,,,,,,,,,,,,,,,
2,31679, Note_on_c,1,67,0,,,,,,,,,,,,,,,,,,,,,,,,,,,,
2,31680, Note_on_c,1,63,64,,,,,,,,,,,,,,,,,,,,,,,,,,,,
2,31919, Note_on_c,1,63,0,,,,,,,,,,,,,,,,,,,,,,,,,,,,
2,31920, Note_on_c,1,61,64,,,,,,,,,,,,,,,,,,,,,,,,,,,,
2,32159, Note_on_c,1,61,0,,,,,,,,,,,,,,,,,,,,,,,,,,,,
2,32400, Note_on_c,1,60,64,,,,,,,,,,,,,,,,,,,,,,,,,,,,
2,32639, Note_on_c,1,60,0,,,,,,,,,,,,,,,,,,,,,,,,,,,,
2,32640, Note_on_c,1,63,64,,,,,,,,,,,,,,,,,,,,,,,,,,,,
2,32879, Note_on_c,1,63,0,,,,,,,,,,,,,,,,,,,,,,,,,,,,
2,32880, Note_on_c,1,68,64,,,,,,,,,,,,,,,,,,,,,,,,,,,,
2,33119, Note_on_c,1,68,0,,,,,,,,,,,,,,,,,,,,,,,,,,,,
2,33120, Note_on_c,1,63,64,,,,,,,,,,,,,,,,,,,,,,,,,,,,
2,33359, Note_on_c,1,63,0,,,,,,,,,,,,,,,,,,,,,,,,,,,,
2,33360, Note_on_c,1,60,64,,,,,,,,,,,,,,,,,,,,,,,,,,,,
2,33599, Note_on_c,1,60,0,,,,,,,,,,,,,,,,,,,,,,,,,,,,
2,33840, Note_on_c,1,60,64,,,,,,,,,,,,,,,,,,,,,,,,,,,,
2,34079, Note_on_c,1,60,0,,,,,,,,,,,,,,,,,,,,,,,,,,,,
2,34080, Note_on_c,1,68,64,,,,,,,,,,,,,,,,,,,,,,,,,,,,
2,34319, Note_on_c,1,68,0,,,,,,,,,,,,,,,,,,,,,,,,,,,,
2,34320, Note_on_c,1,63,64,,,,,,,,,,,,,,,,,,,,,,,,,,,,
2,34559, Note_on_c,1,63,0,,,,,,,,,,,,,,,,,,,,,,,,,,,,
2,34560, Note_on_c,1,60,64,,,,,,,,,,,,,,,,,,,,,,,,,,,,
2,34799, Note_on_c,1,60,0,,,,,,,,,,,,,,,,,,,,,,,,,,,,
2,34800, Note_on_c,1,56,64,,,,,,,,,,,,,,,,,,,,,,,,,,,,
2,35039, Note_on_c,1,56,0,,,,,,,,,,,,,,,,,,,,,,,,,,,,
2,35280, Note_on_c,1,61,64,,,,,,,,,,,,,,,,,,,,,,,,,,,,
2,35519, Note_on_c,1,61,0,,,,,,,,,,,,,,,,,,,,,,,,,,,,
2,35520, Note_on_c,1,68,64,,,,,,,,,,,,,,,,,,,,,,,,,,,,
2,35759, Note_on_c,1,68,0,,,,,,,,,,,,,,,,,,,,,,,,,,,,
2,35760, Note_on_c,1,64,64,,,,,,,,,,,,,,,,,,,,,,,,,,,,
2,35999, Note_on_c,1,64,0,,,,,,,,,,,,,,,,,,,,,,,,,,,,
2,36000, Note_on_c,1,61,64,,,,,,,,,,,,,,,,,,,,,,,,,,,,
2,36239, Note_on_c,1,61,0,,,,,,,,,,,,,,,,,,,,,,,,,,,,
2,36240, Note_on_c,1,55,64,,,,,,,,,,,,,,,,,,,,,,,,,,,,
2,36479, Note_on_c,1,55,0,,,,,,,,,,,,,,,,,,,,,,,,,,,,
2,36480, Note_on_c,1,56,64,,,,,,,,,,,,,,,,,,,,,,,,,,,,
2,36720, Note_on_c,1,61,64,,,,,,,,,,,,,,,,,,,,,,,,,,,,
2,36959, Note_on_c,1,61,0,,,,,,,,,,,,,,,,,,,,,,,,,,,,
2,36960, Note_on_c,1,68,64,,,,,,,,,,,,,,,,,,,,,,,,,,,,
2,37199, Note_on_c,1,68,0,,,,,,,,,,,,,,,,,,,,,,,,,,,,
2,37200, Note_on_c,1,64,64,,,,,,,,,,,,,,,,,,,,,,,,,,,,
2,37439, Note_on_c,1,56,0,,,,,,,,,,,,,,,,,,,,,,,,,,,,
2,37439, Note_on_c,1,64,0,,,,,,,,,,,,,,,,,,,,,,,,,,,,
2,37440, Note_on_c,1,61,64,,,,,,,,,,,,,,,,,,,,,,,,,,,,
2,37679, Note_on_c,1,61,0,,,,,,,,,,,,,,,,,,,,,,,,,,,,
2,37680, Note_on_c,1,58,64,,,,,,,,,,,,,,,,,,,,,,,,,,,,
2,37919, Note_on_c,1,58,0,,,,,,,,,,,,,,,,,,,,,,,,,,,,
2,37920, Note_on_c,1,60,64,,,,,,,,,,,,,,,,,,,,,,,,,,,,
2,38160, Note_on_c,1,63,64,,,,,,,,,,,,,,,,,,,,,,,,,,,,
2,38399, Note_on_c,1,63,0,,,,,,,,,,,,,,,,,,,,,,,,,,,,
2,38400, Note_on_c,1,72,64,,,,,,,,,,,,,,,,,,,,,,,,,,,,
2,38639, Note_on_c,1,72,0,,,,,,,,,,,,,,,,,,,,,,,,,,,,
2,38640, Note_on_c,1,68,64,,,,,,,,,,,,,,,,,,,,,,,,,,,,
2,38879, Note_on_c,1,60,0,,,,,,,,,,,,,,,,,,,,,,,,,,,,
2,38879, Note_on_c,1,68,0,,,,,,,,,,,,,,,,,,,,,,,,,,,,
2,38880, Note_on_c,1,63,64,,,,,,,,,,,,,,,,,,,,,,,,,,,,
2,39119, Note_on_c,1,63,0,,,,,,,,,,,,,,,,,,,,,,,,,,,,
2,39120, Note_on_c,1,60,64,,,,,,,,,,,,,,,,,,,,,,,,,,,,
2,39359, Note_on_c,1,60,0,,,,,,,,,,,,,,,,,,,,,,,,,,,,
2,39600, Note_on_c,1,63,64,,,,,,,,,,,,,,,,,,,,,,,,,,,,
2,39839, Note_on_c,1,63,0,,,,,,,,,,,,,,,,,,,,,,,,,,,,
2,39840, Note_on_c,1,72,64,,,,,,,,,,,,,,,,,,,,,,,,,,,,
2,40079, Note_on_c,1,72,0,,,,,,,,,,,,,,,,,,,,,,,,,,,,
2,40080, Note_on_c,1,68,64,,,,,,,,,,,,,,,,,,,,,,,,,,,,
2,40319, Note_on_c,1,68,0,,,,,,,,,,,,,,,,,,,,,,,,,,,,
2,40320, Note_on_c,1,63,64,,,,,,,,,,,,,,,,,,,,,,,,,,,,
2,40559, Note_on_c,1,63,0,,,,,,,,,,,,,,,,,,,,,,,,,,,,
2,40560, Note_on_c,1,60,64,,,,,,,,,,,,,,,,,,,,,,,,,,,,
2,40799, Note_on_c,1,60,0,,,,,,,,,,,,,,,,,,,,,,,,,,,,
2,41040, Note_on_c,1,65,64,,,,,,,,,,,,,,,,,,,,,,,,,,,,
2,41279, Note_on_c,1,65,0,,,,,,,,,,,,,,,,,,,,,,,,,,,,
2,41280, Note_on_c,1,72,64,,,,,,,,,,,,,,,,,,,,,,,,,,,,
2,41519, Note_on_c,1,72,0,,,,,,,,,,,,,,,,,,,,,,,,,,,,
2,41520, Note_on_c,1,68,64,,,,,,,,,,,,,,,,,,,,,,,,,,,,
2,41759, Note_on_c,1,68,0,,,,,,,,,,,,,,,,,,,,,,,,,,,,
2,41760, Note_on_c,1,65,64,,,,,,,,,,,,,,,,,,,,,,,,,,,,
2,41999, Note_on_c,1,65,0,,,,,,,,,,,,,,,,,,,,,,,,,,,,
2,42000, Note_on_c,1,58,64,,,,,,,,,,,,,,,,,,,,,,,,,,,,
2,42239, Note_on_c,1,58,0,,,,,,,,,,,,,,,,,,,,,,,,,,,,
2,42240, Note_on_c,1,60,64,,,,,,,,,,,,,,,,,,,,,,,,,,,,
2,42480, Note_on_c,1,65,64,,,,,,,,,,,,,,,,,,,,,,,,,,,,
2,42719, Note_on_c,1,65,0,,,,,,,,,,,,,,,,,,,,,,,,,,,,
2,42720, Note_on_c,1,72,64,,,,,,,,,,,,,,,,,,,,,,,,,,,,
2,42959, Note_on_c,1,72,0,,,,,,,,,,,,,,,,,,,,,,,,,,,,
2,42960, Note_on_c,1,68,64,,,,,,,,,,,,,,,,,,,,,,,,,,,,
2,43199, Note_on_c,1,60,0,,,,,,,,,,,,,,,,,,,,,,,,,,,,
2,43199, Note_on_c,1,68,0,,,,,,,,,,,,,,,,,,,,,,,,,,,,
2,43200, Note_on_c,1,65,64,,,,,,,,,,,,,,,,,,,,,,,,,,,,
2,43439, Note_on_c,1,65,0,,,,,,,,,,,,,,,,,,,,,,,,,,,,
2,43440, Note_on_c,1,62,64,,,,,,,,,,,,,,,,,,,,,,,,,,,,
2,43679, Note_on_c,1,62,0,,,,,,,,,,,,,,,,,,,,,,,,,,,,
2,43680, Note_on_c,1,64,64,,,,,,,,,,,,,,,,,,,,,,,,,,,,
2,43920, Note_on_c,1,67,64,,,,,,,,,,,,,,,,,,,,,,,,,,,,
2,44159, Note_on_c,1,67,0,,,,,,,,,,,,,,,,,,,,,,,,,,,,
2,44160, Note_on_c,1,72,64,,,,,,,,,,,,,,,,,,,,,,,,,,,,
2,44399, Note_on_c,1,72,0,,,,,,,,,,,,,,,,,,,,,,,,,,,,
2,44400, Note_on_c,1,76,64,,,,,,,,,,,,,,,,,,,,,,,,,,,,
2,44639, Note_on_c,1,76,0,,,,,,,,,,,,,,,,,,,,,,,,,,,,
2,44640, Note_on_c,1,72,64,,,,,,,,,,,,,,,,,,,,,,,,,,,,
2,44879, Note_on_c,1,72,0,,,,,,,,,,,,,,,,,,,,,,,,,,,,
2,44880, Note_on_c,1,67,64,,,,,,,,,,,,,,,,,,,,,,,,,,,,
2,45119, Note_on_c,1,64,0,,,,,,,,,,,,,,,,,,,,,,,,,,,,
2,45119, Note_on_c,1,67,0,,,,,,,,,,,,,,,,,,,,,,,,,,,,
2,45120, Note_on_c,1,64,64,,,,,,,,,,,,,,,,,,,,,,,,,,,,
2,45360, Note_on_c,1,67,64,,,,,,,,,,,,,,,,,,,,,,,,,,,,
2,45599, Note_on_c,1,67,0,,,,,,,,,,,,,,,,,,,,,,,,,,,,
2,45600, Note_on_c,1,72,64,,,,,,,,,,,,,,,,,,,,,,,,,,,,
2,45839, Note_on_c,1,72,0,,,,,,,,,,,,,,,,,,,,,,,,,,,,
2,45840, Note_on_c,1,76,64,,,,,,,,,,,,,,,,,,,,,,,,,,,,
2,46079, Note_on_c,1,76,0,,,,,,,,,,,,,,,,,,,,,,,,,,,,
2,46080, Note_on_c,1,72,64,,,,,,,,,,,,,,,,,,,,,,,,,,,,
2,46319, Note_on_c,1,72,0,,,,,,,,,,,,,,,,,,,,,,,,,,,,
2,46320, Note_on_c,1,67,64,,,,,,,,,,,,,,,,,,,,,,,,,,,,
2,46559, Note_on_c,1,64,0,,,,,,,,,,,,,,,,,,,,,,,,,,,,
2,46559, Note_on_c,1,67,0,,,,,,,,,,,,,,,,,,,,,,,,,,,,
2,46560, Note_on_c,1,64,64,,,,,,,,,,,,,,,,,,,,,,,,,,,,
2,46800, Note_on_c,1,69,64,,,,,,,,,,,,,,,,,,,,,,,,,,,,
2,47039, Note_on_c,1,69,0,,,,,,,,,,,,,,,,,,,,,,,,,,,,
2,47040, Note_on_c,1,72,64,,,,,,,,,,,,,,,,,,,,,,,,,,,,
2,47279, Note_on_c,1,72,0,,,,,,,,,,,,,,,,,,,,,,,,,,,,
2,47280, Note_on_c,1,76,64,,,,,,,,,,,,,,,,,,,,,,,,,,,,
2,47519, Note_on_c,1,76,0,,,,,,,,,,,,,,,,,,,,,,,,,,,,
2,47520, Note_on_c,1,72,64,,,,,,,,,,,,,,,,,,,,,,,,,,,,
2,47759, Note_on_c,1,72,0,,,,,,,,,,,,,,,,,,,,,,,,,,,,
2,47760, Note_on_c,1,69,64,,,,,,,,,,,,,,,,,,,,,,,,,,,,
2,47999, Note_on_c,1,64,0,,,,,,,,,,,,,,,,,,,,,,,,,,,,
2,47999, Note_on_c,1,69,0,,,,,,,,,,,,,,,,,,,,,,,,,,,,
2,48000, Note_on_c,1,64,64,,,,,,,,,,,,,,,,,,,,,,,,,,,,
2,48240, Note_on_c,1,69,64,,,,,,,,,,,,,,,,,,,,,,,,,,,,
2,48479, Note_on_c,1,69,0,,,,,,,,,,,,,,,,,,,,,,,,,,,,
2,48480, Note_on_c,1,72,64,,,,,,,,,,,,,,,,,,,,,,,,,,,,
2,48719, Note_on_c,1,72,0,,,,,,,,,,,,,,,,,,,,,,,,,,,,
2,48720, Note_on_c,1,76,64,,,,,,,,,,,,,,,,,,,,,,,,,,,,
2,48959, Note_on_c,1,76,0,,,,,,,,,,,,,,,,,,,,,,,,,,,,
2,48960, Note_on_c,1,72,64,,,,,,,,,,,,,,,,,,,,,,,,,,,,
2,49199, Note_on_c,1,72,0,,,,,,,,,,,,,,,,,,,,,,,,,,,,
2,49200, Note_on_c,1,69,64,,,,,,,,,,,,,,,,,,,,,,,,,,,,
2,49439, Note_on_c,1,64,0,,,,,,,,,,,,,,,,,,,,,,,,,,,,
2,49439, Note_on_c,1,69,0,,,,,,,,,,,,,,,,,,,,,,,,,,,,
2,49440, Note_on_c,1,64,64,,,,,,,,,,,,,,,,,,,,,,,,,,,,
2,49680, Note_on_c,1,68,64,,,,,,,,,,,,,,,,,,,,,,,,,,,,
2,49919, Note_on_c,1,68,0,,,,,,,,,,,,,,,,,,,,,,,,,,,,
2,49920, Note_on_c,1,71,64,,,,,,,,,,,,,,,,,,,,,,,,,,,,
2,50159, Note_on_c,1,71,0,,,,,,,,,,,,,,,,,,,,,,,,,,,,
2,50160, Note_on_c,1,76,64,,,,,,,,,,,,,,,,,,,,,,,,,,,,
2,50399, Note_on_c,1,76,0,,,,,,,,,,,,,,,,,,,,,,,,,,,,
2,50400, Note_on_c,1,71,64,,,,,,,,,,,,,,,,,,,,,,,,,,,,
2,50639, Note_on_c,1,71,0,,,,,,,,,,,,,,,,,,,,,,,,,,,,
2,50640, Note_on_c,1,68,64,,,,,,,,,,,,,,,,,,,,,,,,,,,,
2,50879, Note_on_c,1,64,0,,,,,,,,,,,,,,,,,,,,,,,,,,,,
2,50879, Note_on_c,1,68,0,,,,,,,,,,,,,,,,,,,,,,,,,,,,
2,50880, Note_on_c,1,59,64,,,,,,,,,,,,,,,,,,,,,,,,,,,,
2,51120, Note_on_c,1,64,64,,,,,,,,,,,,,,,,,,,,,,,,,,,,
2,51359, Note_on_c,1,64,0,,,,,,,,,,,,,,,,,,,,,,,,,,,,
2,51360, Note_on_c,1,68,64,,,,,,,,,,,,,,,,,,,,,,,,,,,,
2,51599, Note_on_c,1,68,0,,,,,,,,,,,,,,,,,,,,,,,,,,,,
2,51600, Note_on_c,1,71,64,,,,,,,,,,,,,,,,,,,,,,,,,,,,
2,51839, Note_on_c,1,71,0,,,,,,,,,,,,,,,,,,,,,,,,,,,,
2,51840, Note_on_c,1,68,64,,,,,,,,,,,,,,,,,,,,,,,,,,,,
2,52079, Note_on_c,1,68,0,,,,,,,,,,,,,,,,,,,,,,,,,,,,
2,52080, Note_on_c,1,64,64,,,,,,,,,,,,,,,,,,,,,,,,,,,,
2,52319, Note_on_c,1,59,0,,,,,,,,,,,,,,,,,,,,,,,,,,,,
2,52319, Note_on_c,1,64,0,,,,,,,,,,,,,,,,,,,,,,,,,,,,
2,52320, Note_on_c,1,61,64,,,,,,,,,,,,,,,,,,,,,,,,,,,,
2,52560, Note_on_c,1,64,64,,,,,,,,,,,,,,,,,,,,,,,,,,,,
2,52799, Note_on_c,1,64,0,,,,,,,,,,,,,,,,,,,,,,,,,,,,
2,52800, Note_on_c,1,68,64,,,,,,,,,,,,,,,,,,,,,,,,,,,,
2,53039, Note_on_c,1,68,0,,,,,,,,,,,,,,,,,,,,,,,,,,,,
2,53040, Note_on_c,1,73,64,,,,,,,,,,,,,,,,,,,,,,,,,,,,
2,53279, Note_on_c,1,73,0,,,,,,,,,,,,,,,,,,,,,,,,,,,,
2,53280, Note_on_c,1,68,64,,,,,,,,,,,,,,,,,,,,,,,,,,,,
2,53519, Note_on_c,1,68,0,,,,,,,,,,,,,,,,,,,,,,,,,,,,
2,53520, Note_on_c,1,64,64,,,,,,,,,,,,,,,,,,,,,,,,,,,,
2,53759, Note_on_c,1,61,0,,,,,,,,,,,,,,,,,,,,,,,,,,,,
2,53759, Note_on_c,1,64,0,,,,,,,,,,,,,,,,,,,,,,,,,,,,
2,54000, Note_on_c,1,61,64,,,,,,,,,,,,,,,,,,,,,,,,,,,,
2,54239, Note_on_c,1,61,0,,,,,,,,,,,,,,,,,,,,,,,,,,,,
2,54240, Note_on_c,1,64,64,,,,,,,,,,,,,,,,,,,,,,,,,,,,
2,54479, Note_on_c,1,64,0,,,,,,,,,,,,,,,,,,,,,,,,,,,,
2,54480, Note_on_c,1,68,64,,,,,,,,,,,,,,,,,,,,,,,,,,,,
2,54719, Note_on_c,1,68,0,,,,,,,,,,,,,,,,,,,,,,,,,,,,
2,54720, Note_on_c,1,56,64,,,,,,,,,,,,,,,,,,,,,,,,,,,,
2,54720, Note_on_c,1,64,64,,,,,,,,,,,,,,,,,,,,,,,,,,,,
2,54959, Note_on_c,1,64,0,,,,,,,,,,,,,,,,,,,,,,,,,,,,
2,54960, Note_on_c,1,61,64,,,,,,,,,,,,,,,,,,,,,,,,,,,,
2,55199, Note_on_c,1,56,0,,,,,,,,,,,,,,,,,,,,,,,,,,,,
2,55199, Note_on_c,1,61,0,,,,,,,,,,,,,,,,,,,,,,,,,,,,
2,55200, Note_on_c,1,58,64,,,,,,,,,,,,,,,,,,,,,,,,,,,,
2,55440, Note_on_c,1,63,64,,,,,,,,,,,,,,,,,,,,,,,,,,,,
2,55679, Note_on_c,1,63,0,,,,,,,,,,,,,,,,,,,,,,,,,,,,
2,55680, Note_on_c,1,67,64,,,,,,,,,,,,,,,,,,,,,,,,,,,,
2,55919, Note_on_c,1,67,0,,,,,,,,,,,,,,,,,,,,,,,,,,,,
2,55920, Note_on_c,1,70,64,,,,,,,,,,,,,,,,,,,,,,,,,,,,
2,56159, Note_on_c,1,70,0,,,,,,,,,,,,,,,,,,,,,,,,,,,,
2,56160, Note_on_c,1,67,64,,,,,,,,,,,,,,,,,,,,,,,,,,,,
2,56399, Note_on_c,1,67,0,,,,,,,,,,,,,,,,,,,,,,,,,,,,
2,56400, Note_on_c,1,63,64,,,,,,,,,,,,,,,,,,,,,,,,,,,,
2,56639, Note_on_c,1,58,0,,,,,,,,,,,,,,,,,,,,,,,,,,,,
2,56639, Note_on_c,1,63,0,,,,,,,,,,,,,,,,,,,,,,,,,,,,
2,56640, Note_on_c,1,61,64,,,,,,,,,,,,,,,,,,,,,,,,,,,,
2,56880, Note_on_c,1,64,64,,,,,,,,,,,,,,,,,,,,,,,,,,,,
2,57119, Note_on_c,1,64,0,,,,,,,,,,,,,,,,,,,,,,,,,,,,
2,57120, Note_on_c,1,68,64,,,,,,,,,,,,,,,,,,,,,,,,,,,,
2,57359, Note_on_c,1,68,0,,,,,,,,,,,,,,,,,,,,,,,,,,,,
2,57360, Note_on_c,1,73,64,,,,,,,,,,,,,,,,,,,,,,,,,,,,
2,57599, Note_on_c,1,61,0,,,,,,,,,,,,,,,,,,,,,,,,,,,,
2,57599, Note_on_c,1,73,0,,,,,,,,,,,,,,,,,,,,,,,,,,,,
2,57600, Note_on_c,1,68,64,,,,,,,,,,,,,,,,,,,,,,,,,,,,
2,57839, Note_on_c,1,68,0,,,,,,,,,,,,,,,,,,,,,,,,,,,,
2,57840, Note_on_c,1,64,64,,,,,,,,,,,,,,,,,,,,,,,,,,,,
2,58079, Note_on_c,1,64,0,,,,,,,,,,,,,,,,,,,,,,,,,,,,
2,58080, Note_on_c,1,58,64,,,,,,,,,,,,,,,,,,,,,,,,,,,,
2,58320, Note_on_c,1,63,64,,,,,,,,,,,,,,,,,,,,,,,,,,,,
2,58559, Note_on_c,1,58,0,,,,,,,,,,,,,,,,,,,,,,,,,,,,
2,58559, Note_on_c,1,63,0,,,,,,,,,,,,,,,,,,,,,,,,,,,,
2,58560, Note_on_c,1,67,64,,,,,,,,,,,,,,,,,,,,,,,,,,,,
2,58799, Note_on_c,1,67,0,,,,,,,,,,,,,,,,,,,,,,,,,,,,
2,58800, Note_on_c,1,70,64,,,,,,,,,,,,,,,,,,,,,,,,,,,,
2,59039, Note_on_c,1,70,0,,,,,,,,,,,,,,,,,,,,,,,,,,,,
2,59040, Note_on_c,1,67,64,,,,,,,,,,,,,,,,,,,,,,,,,,,,
2,59279, Note_on_c,1,67,0,,,,,,,,,,,,,,,,,,,,,,,,,,,,
2,59280, Note_on_c,1,63,64,,,,,,,,,,,,,,,,,,,,,,,,,,,,
2,59519, Note_on_c,1,63,0,,,,,,,,,,,,,,,,,,,,,,,,,,,,
2,59520, Note_on_c,1,61,64,,,,,,,,,,,,,,,,,,,,,,,,,,,,
2,59760, Note_on_c,1,64,64,,,,,,,,,,,,,,,,,,,,,,,,,,,,
2,59999, Note_on_c,1,64,0,,,,,,,,,,,,,,,,,,,,,,,,,,,,
2,60000, Note_on_c,1,68,64,,,,,,,,,,,,,,,,,,,,,,,,,,,,
2,60239, Note_on_c,1,68,0,,,,,,,,,,,,,,,,,,,,,,,,,,,,
2,60240, Note_on_c,1,70,64,,,,,,,,,,,,,,,,,,,,,,,,,,,,
2,60479, Note_on_c,1,61,0,,,,,,,,,,,,,,,,,,,,,,,,,,,,
2,60479, Note_on_c,1,70,0,,,,,,,,,,,,,,,,,,,,,,,,,,,,
2,60480, Note_on_c,1,68,64,,,,,,,,,,,,,,,,,,,,,,,,,,,,
2,60719, Note_on_c,1,68,0,,,,,,,,,,,,,,,,,,,,,,,,,,,,
2,60720, Note_on_c,1,64,64,,,,,,,,,,,,,,,,,,,,,,,,,,,,
2,60959, Note_on_c,1,64,0,,,,,,,,,,,,,,,,,,,,,,,,,,,,
2,60960, Note_on_c,1,58,64,,,,,,,,,,,,,,,,,,,,,,,,,,,,
2,61199, Note_on_c,1,58,0,,,,,,,,,,,,,,,,,,,,,,,,,,,,
2,61200, Note_on_c,1,63,64,,,,,,,,,,,,,,,,,,,,,,,,,,,,
2,61439, Note_on_c,1,63,0,,,,,,,,,,,,,,,,,,,,,,,,,,,,
2,61440, Note_on_c,1,67,64,,,,,,,,,,,,,,,,,,,,,,,,,,,,
2,61679, Note_on_c,1,67,0,,,,,,,,,,,,,,,,,,,,,,,,,,,,
2,61680, Note_on_c,1,70,64,,,,,,,,,,,,,,,,,,,,,,,,,,,,
2,61919, Note_on_c,1,70,0,,,,,,,,,,,,,,,,,,,,,,,,,,,,
2,61920, Note_on_c,1,67,64,,,,,,,,,,,,,,,,,,,,,,,,,,,,
2,62159, Note_on_c,1,67,0,,,,,,,,,,,,,,,,,,,,,,,,,,,,
2,62160, Note_on_c,1,63,64,,,,,,,,,,,,,,,,,,,,,,,,,,,,
2,62399, Note_on_c,1,63,0,,,,,,,,,,,,,,,,,,,,,,,,,,,,
2,62400, Note_on_c,1,64,64,,,,,,,,,,,,,,,,,,,,,,,,,,,,
2,62640, Note_on_c,1,68,64,,,,,,,,,,,,,,,,,,,,,,,,,,,,
2,62879, Note_on_c,1,68,0,,,,,,,,,,,,,,,,,,,,,,,,,,,,
2,62880, Note_on_c,1,70,64,,,,,,,,,,,,,,,,,,,,,,,,,,,,
2,63119, Note_on_c,1,70,0,,,,,,,,,,,,,,,,,,,,,,,,,,,,
2,63120, Note_on_c,1,76,64,,,,,,,,,,,,,,,,,,,,,,,,,,,,
2,63359, Note_on_c,1,76,0,,,,,,,,,,,,,,,,,,,,,,,,,,,,
2,63360, Note_on_c,1,70,64,,,,,,,,,,,,,,,,,,,,,,,,,,,,
2,63599, Note_on_c,1,70,0,,,,,,,,,,,,,,,,,,,,,,,,,,,,
2,63600, Note_on_c,1,68,64,,,,,,,,,,,,,,,,,,,,,,,,,,,,
2,63839, Note_on_c,1,64,0,,,,,,,,,,,,,,,,,,,,,,,,,,,,
2,63839, Note_on_c,1,68,0,,,,,,,,,,,,,,,,,,,,,,,,,,,,
2,70320, Note_on_c,1,64,64,,,,,,,,,,,,,,,,,,,,,,,,,,,,
2,70439, Note_on_c,1,64,0,,,,,,,,,,,,,,,,,,,,,,,,,,,,
2,70440, Note_on_c,1,63,64,,,,,,,,,,,,,,,,,,,,,,,,,,,,
2,70559, Note_on_c,1,63,0,,,,,,,,,,,,,,,,,,,,,,,,,,,,
2,70560, Note_on_c,1,68,64,,,,,,,,,,,,,,,,,,,,,,,,,,,,
2,70679, Note_on_c,1,68,0,,,,,,,,,,,,,,,,,,,,,,,,,,,,
2,70680, Note_on_c,1,67,64,,,,,,,,,,,,,,,,,,,,,,,,,,,,
2,70799, Note_on_c,1,67,0,,,,,,,,,,,,,,,,,,,,,,,,,,,,
2,70800, Note_on_c,1,73,64,,,,,,,,,,,,,,,,,,,,,,,,,,,,
2,70919, Note_on_c,1,73,0,,,,,,,,,,,,,,,,,,,,,,,,,,,,
2,70920, Note_on_c,1,70,64,,,,,,,,,,,,,,,,,,,,,,,,,,,,
2,71039, Note_on_c,1,70,0,,,,,,,,,,,,,,,,,,,,,,,,,,,,
2,71040, Note_on_c,1,76,64,,,,,,,,,,,,,,,,,,,,,,,,,,,,
2,71159, Note_on_c,1,76,0,,,,,,,,,,,,,,,,,,,,,,,,,,,,
2,71160, Note_on_c,1,75,64,,,,,,,,,,,,,,,,,,,,,,,,,,,,
2,71279, Note_on_c,1,75,0,,,,,,,,,,,,,,,,,,,,,,,,,,,,
2,71280, Note_on_c,1,80,64,,,,,,,,,,,,,,,,,,,,,,,,,,,,
2,71399, Note_on_c,1,80,0,,,,,,,,,,,,,,,,,,,,,,,,,,,,
2,71400, Note_on_c,1,79,64,,,,,,,,,,,,,,,,,,,,,,,,,,,,
2,71519, Note_on_c,1,79,0,,,,,,,,,,,,,,,,,,,,,,,,,,,,
2,71520, Note_on_c,1,85,80,,,,,,,,,,,,,,,,,,,,,,,,,,,,
2,71639, Note_on_c,1,85,0,,,,,,,,,,,,,,,,,,,,,,,,,,,,
2,71640, Note_on_c,1,82,80,,,,,,,,,,,,,,,,,,,,,,,,,,,,
2,71759, Note_on_c,1,82,0,,,,,,,,,,,,,,,,,,,,,,,,,,,,
2,71760, Note_on_c,1,88,80,,,,,,,,,,,,,,,,,,,,,,,,,,,,
2,71879, Note_on_c,1,88,0,,,,,,,,,,,,,,,,,,,,,,,,,,,,
2,71880, Note_on_c,1,87,80,,,,,,,,,,,,,,,,,,,,,,,,,,,,
2,71999, Note_on_c,1,87,0,,,,,,,,,,,,,,,,,,,,,,,,,,,,
2,72000, Note_on_c,1,92,80,,,,,,,,,,,,,,,,,,,,,,,,,,,,
2,72119, Note_on_c,1,92,0,,,,,,,,,,,,,,,,,,,,,,,,,,,,
2,72120, Note_on_c,1,91,80,,,,,,,,,,,,,,,,,,,,,,,,,,,,
2,72239, Note_on_c,1,91,0,,,,,,,,,,,,,,,,,,,,,,,,,,,,
2,72240, Note_on_c,1,92,96,,,,,,,,,,,,,,,,,,,,,,,,,,,,
2,72359, Note_on_c,1,92,0,,,,,,,,,,,,,,,,,,,,,,,,,,,,
2,72360, Note_on_c,1,91,96,,,,,,,,,,,,,,,,,,,,,,,,,,,,
2,72479, Note_on_c,1,91,0,,,,,,,,,,,,,,,,,,,,,,,,,,,,
2,72480, Note_on_c,1,88,96,,,,,,,,,,,,,,,,,,,,,,,,,,,,
2,72599, Note_on_c,1,88,0,,,,,,,,,,,,,,,,,,,,,,,,,,,,
2,72600, Note_on_c,1,87,96,,,,,,,,,,,,,,,,,,,,,,,,,,,,
2,72719, Note_on_c,1,87,0,,,,,,,,,,,,,,,,,,,,,,,,,,,,
2,72720, Note_on_c,1,85,96,,,,,,,,,,,,,,,,,,,,,,,,,,,,
2,72839, Note_on_c,1,85,0,,,,,,,,,,,,,,,,,,,,,,,,,,,,
2,72840, Note_on_c,1,82,96,,,,,,,,,,,,,,,,,,,,,,,,,,,,
2,72959, Note_on_c,1,82,0,,,,,,,,,,,,,,,,,,,,,,,,,,,,
2,72960, Note_on_c,1,85,96,,,,,,,,,,,,,,,,,,,,,,,,,,,,
2,73079, Note_on_c,1,85,0,,,,,,,,,,,,,,,,,,,,,,,,,,,,
2,73080, Note_on_c,1,82,96,,,,,,,,,,,,,,,,,,,,,,,,,,,,
2,73199, Note_on_c,1,82,0,,,,,,,,,,,,,,,,,,,,,,,,,,,,
2,73200, Note_on_c,1,80,96,,,,,,,,,,,,,,,,,,,,,,,,,,,,
2,73319, Note_on_c,1,80,0,,,,,,,,,,,,,,,,,,,,,,,,,,,,
2,73320, Note_on_c,1,79,96,,,,,,,,,,,,,,,,,,,,,,,,,,,,
2,73439, Note_on_c,1,79,0,,,,,,,,,,,,,,,,,,,,,,,,,,,,
2,73440, Note_on_c,1,76,96,,,,,,,,,,,,,,,,,,,,,,,,,,,,
2,73559, Note_on_c,1,76,0,,,,,,,,,,,,,,,,,,,,,,,,,,,,
2,73560, Note_on_c,1,75,96,,,,,,,,,,,,,,,,,,,,,,,,,,,,
2,73679, Note_on_c,1,75,0,,,,,,,,,,,,,,,,,,,,,,,,,,,,
2,73680, Note_on_c,1,76,96,,,,,,,,,,,,,,,,,,,,,,,,,,,,
2,73799, Note_on_c,1,76,0,,,,,,,,,,,,,,,,,,,,,,,,,,,,
2,73800, Note_on_c,1,75,80,,,,,,,,,,,,,,,,,,,,,,,,,,,,
2,73919, Note_on_c,1,75,0,,,,,,,,,,,,,,,,,,,,,,,,,,,,
2,73920, Note_on_c,1,73,80,,,,,,,,,,,,,,,,,,,,,,,,,,,,
2,74039, Note_on_c,1,73,0,,,,,,,,,,,,,,,,,,,,,,,,,,,,
2,74040, Note_on_c,1,70,80,,,,,,,,,,,,,,,,,,,,,,,,,,,,
2,74159, Note_on_c,1,70,0,,,,,,,,,,,,,,,,,,,,,,,,,,,,
2,74160, Note_on_c,1,68,80,,,,,,,,,,,,,,,,,,,,,,,,,,,,
2,74279, Note_on_c,1,68,0,,,,,,,,,,,,,,,,,,,,,,,,,,,,
2,74280, Note_on_c,1,67,80,,,,,,,,,,,,,,,,,,,,,,,,,,,,
2,74399, Note_on_c,1,67,0,,,,,,,,,,,,,,,,,,,,,,,,,,,,
2,74400, Note_on_c,1,68,80,,,,,,,,,,,,,,,,,,,,,,,,,,,,
2,74519, Note_on_c,1,68,0,,,,,,,,,,,,,,,,,,,,,,,,,,,,
2,74520, Note_on_c,1,67,80,,,,,,,,,,,,,,,,,,,,,,,,,,,,
2,74639, Note_on_c,1,67,0,,,,,,,,,,,,,,,,,,,,,,,,,,,,
2,74640, Note_on_c,1,64,80,,,,,,,,,,,,,,,,,,,,,,,,,,,,
2,74759, Note_on_c,1,64,0,,,,,,,,,,,,,,,,,,,,,,,,,,,,
2,74760, Note_on_c,1,63,80,,,,,,,,,,,,,,,,,,,,,,,,,,,,
2,74879, Note_on_c,1,63,0,,,,,,,,,,,,,,,,,,,,,,,,,,,,
2,74880, Note_on_c,1,64,80,,,,,,,,,,,,,,,,,,,,,,,,,,,,
2,74999, Note_on_c,1,64,0,,,,,,,,,,,,,,,,,,,,,,,,,,,,
2,75000, Note_on_c,1,63,80,,,,,,,,,,,,,,,,,,,,,,,,,,,,
2,75119, Note_on_c,1,63,0,,,,,,,,,,,,,,,,,,,,,,,,,,,,
2,75120, Note_on_c,1,64,80,,,,,,,,,,,,,,,,,,,,,,,,,,,,
2,75239, Note_on_c,1,64,0,,,,,,,,,,,,,,,,,,,,,,,,,,,,
2,75240, Note_on_c,1,63,80,,,,,,,,,,,,,,,,,,,,,,,,,,,,
2,75359, Note_on_c,1,63,0,,,,,,,,,,,,,,,,,,,,,,,,,,,,
2,75360, Note_on_c,1,64,80,,,,,,,,,,,,,,,,,,,,,,,,,,,,
2,75479, Note_on_c,1,64,0,,,,,,,,,,,,,,,,,,,,,,,,,,,,
2,75480, Note_on_c,1,63,80,,,,,,,,,,,,,,,,,,,,,,,,,,,,
2,75599, Note_on_c,1,63,0,,,,,,,,,,,,,,,,,,,,,,,,,,,,
2,75600, Note_on_c,1,64,80,,,,,,,,,,,,,,,,,,,,,,,,,,,,
2,75719, Note_on_c,1,64,0,,,,,,,,,,,,,,,,,,,,,,,,,,,,
2,75720, Note_on_c,1,63,80,,,,,,,,,,,,,,,,,,,,,,,,,,,,
2,75839, Note_on_c,1,63,0,,,,,,,,,,,,,,,,,,,,,,,,,,,,
2,75840, Note_on_c,1,64,80,,,,,,,,,,,,,,,,,,,,,,,,,,,,
2,75959, Note_on_c,1,64,0,,,,,,,,,,,,,,,,,,,,,,,,,,,,
2,75960, Note_on_c,1,63,80,,,,,,,,,,,,,,,,,,,,,,,,,,,,
2,76079, Note_on_c,1,63,0,,,,,,,,,,,,,,,,,,,,,,,,,,,,
2,76080, Note_on_c,1,64,80,,,,,,,,,,,,,,,,,,,,,,,,,,,,
2,76199, Note_on_c,1,64,0,,,,,,,,,,,,,,,,,,,,,,,,,,,,
2,76200, Note_on_c,1,63,80,,,,,,,,,,,,,,,,,,,,,,,,,,,,
2,76319, Note_on_c,1,63,0,,,,,,,,,,,,,,,,,,,,,,,,,,,,
2,76320, Note_on_c,1,64,80,,,,,,,,,,,,,,,,,,,,,,,,,,,,
2,76439, Note_on_c,1,64,0,,,,,,,,,,,,,,,,,,,,,,,,,,,,
2,76440, Note_on_c,1,63,80,,,,,,,,,,,,,,,,,,,,,,,,,,,,
2,76559, Note_on_c,1,63,0,,,,,,,,,,,,,,,,,,,,,,,,,,,,
2,76560, Note_on_c,1,64,80,,,,,,,,,,,,,,,,,,,,,,,,,,,,
2,76679, Note_on_c,1,64,0,,,,,,,,,,,,,,,,,,,,,,,,,,,,
2,76680, Note_on_c,1,63,80,,,,,,,,,,,,,,,,,,,,,,,,,,,,
2,76799, Note_on_c,1,63,0,,,,,,,,,,,,,,,,,,,,,,,,,,,,
2,76800, Note_on_c,1,64,64,,,,,,,,,,,,,,,,,,,,,,,,,,,,
2,76919, Note_on_c,1,64,0,,,,,,,,,,,,,,,,,,,,,,,,,,,,
2,76920, Note_on_c,1,63,64,,,,,,,,,,,,,,,,,,,,,,,,,,,,
2,77039, Note_on_c,1,63,0,,,,,,,,,,,,,,,,,,,,,,,,,,,,
2,77040, Note_on_c,1,64,64,,,,,,,,,,,,,,,,,,,,,,,,,,,,
2,77159, Note_on_c,1,64,0,,,,,,,,,,,,,,,,,,,,,,,,,,,,
2,77160, Note_on_c,1,63,64,,,,,,,,,,,,,,,,,,,,,,,,,,,,
2,77279, Note_on_c,1,63,0,,,,,,,,,,,,,,,,,,,,,,,,,,,,
2,77280, Note_on_c,1,64,64,,,,,,,,,,,,,,,,,,,,,,,,,,,,
2,77399, Note_on_c,1,64,0,,,,,,,,,,,,,,,,,,,,,,,,,,,,
2,77400, Note_on_c,1,63,64,,,,,,,,,,,,,,,,,,,,,,,,,,,,
2,77519, Note_on_c,1,63,0,,,,,,,,,,,,,,,,,,,,,,,,,,,,
2,78240, Key_signature,5," ""major""",,,,,,,,,,,,,,,,,,,,,,,,,,,,,
2,78240, Note_on_c,1,75,80,,,,,,,,,,,,,,,,,,,,,,,,,,,,
2,78480, Note_on_c,1,63,80,,,,,,,,,,,,,,,,,,,,,,,,,,,,
2,78719, Note_on_c,1,63,0,,,,,,,,,,,,,,,,,,,,,,,,,,,,
2,78720, Note_on_c,1,66,80,,,,,,,,,,,,,,,,,,,,,,,,,,,,
2,78959, Note_on_c,1,66,0,,,,,,,,,,,,,,,,,,,,,,,,,,,,
2,78960, Note_on_c,1,71,80,,,,,,,,,,,,,,,,,,,,,,,,,,,,
2,79199, Note_on_c,1,71,0,,,,,,,,,,,,,,,,,,,,,,,,,,,,
2,79200, Note_on_c,1,66,80,,,,,,,,,,,,,,,,,,,,,,,,,,,,
2,79439, Note_on_c,1,66,0,,,,,,,,,,,,,,,,,,,,,,,,,,,,
2,79440, Note_on_c,1,63,80,,,,,,,,,,,,,,,,,,,,,,,,,,,,
2,79679, Note_on_c,1,63,0,,,,,,,,,,,,,,,,,,,,,,,,,,,,
2,79679, Note_on_c,1,75,0,,,,,,,,,,,,,,,,,,,,,,,,,,,,
2,79680, Note_on_c,1,75,80,,,,,,,,,,,,,,,,,,,,,,,,,,,,
2,79920, Note_on_c,1,63,80,,,,,,,,,,,,,,,,,,,,,,,,,,,,
2,80159, Note_on_c,1,63,0,,,,,,,,,,,,,,,,,,,,,,,,,,,,
2,80160, Note_on_c,1,66,80,,,,,,,,,,,,,,,,,,,,,,,,,,,,
2,80399, Note_on_c,1,66,0,,,,,,,,,,,,,,,,,,,,,,,,,,,,
2,80400, Note_on_c,1,71,80,,,,,,,,,,,,,,,,,,,,,,,,,,,,
2,80639, Note_on_c,1,71,0,,,,,,,,,,,,,,,,,,,,,,,,,,,,
2,80640, Note_on_c,1,66,80,,,,,,,,,,,,,,,,,,,,,,,,,,,,
2,80879, Note_on_c,1,66,0,,,,,,,,,,,,,,,,,,,,,,,,,,,,
2,80880, Note_on_c,1,63,80,,,,,,,,,,,,,,,,,,,,,,,,,,,,
2,81119, Note_on_c,1,63,0,,,,,,,,,,,,,,,,,,,,,,,,,,,,
2,81119, Note_on_c,1,75,0,,,,,,,,,,,,,,,,,,,,,,,,,,,,
2,81120, Note_on_c,1,75,80,,,,,,,,,,,,,,,,,,,,,,,,,,,,
2,81360, Note_on_c,1,63,80,,,,,,,,,,,,,,,,,,,,,,,,,,,,
2,81599, Note_on_c,1,63,0,,,,,,,,,,,,,,,,,,,,,,,,,,,,
2,81600, Note_on_c,1,67,80,,,,,,,,,,,,,,,,,,,,,,,,,,,,
2,81839, Note_on_c,1,67,0,,,,,,,,,,,,,,,,,,,,,,,,,,,,
2,81840, Note_on_c,1,73,80,,,,,,,,,,,,,,,,,,,,,,,,,,,,
2,82079, Note_on_c,1,73,0,,,,,,,,,,,,,,,,,,,,,,,,,,,,
2,82080, Note_on_c,1,67,80,,,,,,,,,,,,,,,,,,,,,,,,,,,,
2,82319, Note_on_c,1,67,0,,,,,,,,,,,,,,,,,,,,,,,,,,,,
2,82320, Note_on_c,1,63,80,,,,,,,,,,,,,,,,,,,,,,,,,,,,
2,82559, Note_on_c,1,63,0,,,,,,,,,,,,,,,,,,,,,,,,,,,,
2,82559, Note_on_c,1,75,0,,,,,,,,,,,,,,,,,,,,,,,,,,,,
2,82800, Note_on_c,1,63,80,,,,,,,,,,,,,,,,,,,,,,,,,,,,
2,83039, Note_on_c,1,63,0,,,,,,,,,,,,,,,,,,,,,,,,,,,,
2,83040, Note_on_c,1,67,80,,,,,,,,,,,,,,,,,,,,,,,,,,,,
2,83279, Note_on_c,1,67,0,,,,,,,,,,,,,,,,,,,,,,,,,,,,
2,83280, Note_on_c,1,73,80,,,,,,,,,,,,,,,,,,,,,,,,,,,,
2,83519, Note_on_c,1,73,0,,,,,,,,,,,,,,,,,,,,,,,,,,,,
2,83520, Note_on_c,1,67,80,,,,,,,,,,,,,,,,,,,,,,,,,,,,
2,83520, Note_on_c,1,75,80,,,,,,,,,,,,,,,,,,,,,,,,,,,,
2,83759, Note_on_c,1,67,0,,,,,,,,,,,,,,,,,,,,,,,,,,,,
2,83760, Note_on_c,1,63,80,,,,,,,,,,,,,,,,,,,,,,,,,,,,
2,83999, Note_on_c,1,63,0,,,,,,,,,,,,,,,,,,,,,,,,,,,,
2,83999, Note_on_c,1,75,0,,,,,,,,,,,,,,,,,,,,,,,,,,,,
2,84000, Note_on_c,1,75,80,,,,,,,,,,,,,,,,,,,,,,,,,,,,
2,84240, Note_on_c,1,63,80,,,,,,,,,,,,,,,,,,,,,,,,,,,,
2,84479, Note_on_c,1,63,0,,,,,,,,,,,,,,,,,,,,,,,,,,,,
2,84480, Note_on_c,1,66,80,,,,,,,,,,,,,,,,,,,,,,,,,,,,
2,84719, Note_on_c,1,66,0,,,,,,,,,,,,,,,,,,,,,,,,,,,,
2,84720, Note_on_c,1,73,80,,,,,,,,,,,,,,,,,,,,,,,,,,,,
2,84959, Note_on_c,1,73,0,,,,,,,,,,,,,,,,,,,,,,,,,,,,
2,84959, Note_on_c,1,75,0,,,,,,,,,,,,,,,,,,,,,,,,,,,,
2,84960, Note_on_c,1,66,80,,,,,,,,,,,,,,,,,,,,,,,,,,,,
2,84960, Note_on_c,1,75,80,,,,,,,,,,,,,,,,,,,,,,,,,,,,
2,85199, Note_on_c,1,66,0,,,,,,,,,,,,,,,,,,,,,,,,,,,,
2,85200, Note_on_c,1,63,80,,,,,,,,,,,,,,,,,,,,,,,,,,,,
2,85439, Note_on_c,1,63,0,,,,,,,,,,,,,,,,,,,,,,,,,,,,
2,85439, Note_on_c,1,75,0,,,,,,,,,,,,,,,,,,,,,,,,,,,,
2,85440, Note_on_c,1,76,80,,,,,,,,,,,,,,,,,,,,,,,,,,,,
2,85680, Note_on_c,1,63,80,,,,,,,,,,,,,,,,,,,,,,,,,,,,
2,85919, Note_on_c,1,63,0,,,,,,,,,,,,,,,,,,,,,,,,,,,,
2,85920, Note_on_c,1,66,80,,,,,,,,,,,,,,,,,,,,,,,,,,,,
2,86159, Note_on_c,1,66,0,,,,,,,,,,,,,,,,,,,,,,,,,,,,
2,86160, Note_on_c,1,72,80,,,,,,,,,,,,,,,,,,,,,,,,,,,,
2,86399, Note_on_c,1,72,0,,,,,,,,,,,,,,,,,,,,,,,,,,,,
2,86399, Note_on_c,1,76,0,,,,,,,,,,,,,,,,,,,,,,,,,,,,
2,86400, Note_on_c,1,66,80,,,,,,,,,,,,,,,,,,,,,,,,,,,,
2,86400, Note_on_c,1,75,80,,,,,,,,,,,,,,,,,,,,,,,,,,,,
2,86639, Note_on_c,1,66,0,,,,,,,,,,,,,,,,,,,,,,,,,,,,
2,86640, Note_on_c,1,63,80,,,,,,,,,,,,,,,,,,,,,,,,,,,,
2,86879, Note_on_c,1,63,0,,,,,,,,,,,,,,,,,,,,,,,,,,,,
2,86879, Note_on_c,1,75,0,,,,,,,,,,,,,,,,,,,,,,,,,,,,
2,86880, Note_on_c,1,75,80,,,,,,,,,,,,,,,,,,,,,,,,,,,,
2,87120, Note_on_c,1,63,80,,,,,,,,,,,,,,,,,,,,,,,,,,,,
2,87359, Note_on_c,1,63,0,,,,,,,,,,,,,,,,,,,,,,,,,,,,
2,87360, Note_on_c,1,65,80,,,,,,,,,,,,,,,,,,,,,,,,,,,,
2,87599, Note_on_c,1,65,0,,,,,,,,,,,,,,,,,,,,,,,,,,,,
2,87600, Note_on_c,1,71,80,,,,,,,,,,,,,,,,,,,,,,,,,,,,
2,87839, Note_on_c,1,71,0,,,,,,,,,,,,,,,,,,,,,,,,,,,,
2,87840, Note_on_c,1,65,80,,,,,,,,,,,,,,,,,,,,,,,,,,,,
2,88079, Note_on_c,1,65,0,,,,,,,,,,,,,,,,,,,,,,,,,,,,
2,88080, Note_on_c,1,63,80,,,,,,,,,,,,,,,,,,,,,,,,,,,,
2,88319, Note_on_c,1,63,0,,,,,,,,,,,,,,,,,,,,,,,,,,,,
2,88319, Note_on_c,1,75,0,,,,,,,,,,,,,,,,,,,,,,,,,,,,
2,88320, Note_on_c,1,68,80,,,,,,,,,,,,,,,,,,,,,,,,,,,,
2,88560, Note_on_c,1,59,80,,,,,,,,,,,,,,,,,,,,,,,,,,,,
2,88799, Note_on_c,1,59,0,,,,,,,,,,,,,,,,,,,,,,,,,,,,
2,88799, Note_on_c,1,68,0,,,,,,,,,,,,,,,,,,,,,,,,,,,,
2,88800, Note_on_c,1,61,80,,,,,,,,,,,,,,,,,,,,,,,,,,,,
2,89039, Note_on_c,1,61,0,,,,,,,,,,,,,,,,,,,,,,,,,,,,
2,89040, Note_on_c,1,65,80,,,,,,,,,,,,,,,,,,,,,,,,,,,,
2,89279, Note_on_c,1,65,0,,,,,,,,,,,,,,,,,,,,,,,,,,,,
2,89280, Note_on_c,1,61,80,,,,,,,,,,,,,,,,,,,,,,,,,,,,
2,89280, Note_on_c,1,68,80,,,,,,,,,,,,,,,,,,,,,,,,,,,,
2,89519, Note_on_c,1,61,0,,,,,,,,,,,,,,,,,,,,,,,,,,,,
2,89520, Note_on_c,1,59,80,,,,,,,,,,,,,,,,,,,,,,,,,,,,
2,89759, Note_on_c,1,59,0,,,,,,,,,,,,,,,,,,,,,,,,,,,,
2,89759, Note_on_c,1,68,0,,,,,,,,,,,,,,,,,,,,,,,,,,,,
2,89760, Note_on_c,1,68,80,,,,,,,,,,,,,,,,,,,,,,,,,,,,
2,90000, Note_on_c,1,61,80,,,,,,,,,,,,,,,,,,,,,,,,,,,,
2,90239, Note_on_c,1,61,0,,,,,,,,,,,,,,,,,,,,,,,,,,,,
2,90239, Note_on_c,1,68,0,,,,,,,,,,,,,,,,,,,,,,,,,,,,
2,90240, Note_on_c,1,64,80,,,,,,,,,,,,,,,,,,,,,,,,,,,,
2,90240, Note_on_c,1,70,80,,,,,,,,,,,,,,,,,,,,,,,,,,,,
2,90479, Note_on_c,1,64,0,,,,,,,,,,,,,,,,,,,,,,,,,,,,
2,90480, Note_on_c,1,66,80,,,,,,,,,,,,,,,,,,,,,,,,,,,,
2,90719, Note_on_c,1,66,0,,,,,,,,,,,,,,,,,,,,,,,,,,,,
2,90719, Note_on_c,1,70,0,,,,,,,,,,,,,,,,,,,,,,,,,,,,
2,90720, Note_on_c,1,64,80,,,,,,,,,,,,,,,,,,,,,,,,,,,,
2,90720, Note_on_c,1,71,80,,,,,,,,,,,,,,,,,,,,,,,,,,,,
2,90959, Note_on_c,1,64,0,,,,,,,,,,,,,,,,,,,,,,,,,,,,
2,90960, Note_on_c,1,61,80,,,,,,,,,,,,,,,,,,,,,,,,,,,,
2,91199, Note_on_c,1,61,0,,,,,,,,,,,,,,,,,,,,,,,,,,,,
2,91199, Note_on_c,1,71,0,,,,,,,,,,,,,,,,,,,,,,,,,,,,
2,91200, Note_on_c,1,75,80,,,,,,,,,,,,,,,,,,,,,,,,,,,,
2,91440, Note_on_c,1,64,80,,,,,,,,,,,,,,,,,,,,,,,,,,,,
2,91679, Note_on_c,1,64,0,,,,,,,,,,,,,,,,,,,,,,,,,,,,
2,91680, Note_on_c,1,66,80,,,,,,,,,,,,,,,,,,,,,,,,,,,,
2,91919, Note_on_c,1,66,0,,,,,,,,,,,,,,,,,,,,,,,,,,,,
2,91920, Note_on_c,1,70,80,,,,,,,,,,,,,,,,,,,,,,,,,,,,
2,92159, Note_on_c,1,70,0,,,,,,,,,,,,,,,,,,,,,,,,,,,,
2,92159, Note_on_c,1,75,0,,,,,,,,,,,,,,,,,,,,,,,,,,,,
2,92160, Note_on_c,1,66,80,,,,,,,,,,,,,,,,,,,,,,,,,,,,
2,92160, Note_on_c,1,73,80,,,,,,,,,,,,,,,,,,,,,,,,,,,,
2,92399, Note_on_c,1,66,0,,,,,,,,,,,,,,,,,,,,,,,,,,,,
2,92400, Note_on_c,1,64,80,,,,,,,,,,,,,,,,,,,,,,,,,,,,
2,92639, Note_on_c,1,64,0,,,,,,,,,,,,,,,,,,,,,,,,,,,,
2,92639, Note_on_c,1,73,0,,,,,,,,,,,,,,,,,,,,,,,,,,,,
2,92640, Note_on_c,1,73,80,,,,,,,,,,,,,,,,,,,,,,,,,,,,
2,92880, Note_on_c,1,63,80,,,,,,,,,,,,,,,,,,,,,,,,,,,,
2,93119, Note_on_c,1,63,0,,,,,,,,,,,,,,,,,,,,,,,,,,,,
2,93119, Note_on_c,1,73,0,,,,,,,,,,,,,,,,,,,,,,,,,,,,
2,93120, Note_on_c,1,66,80,,,,,,,,,,,,,,,,,,,,,,,,,,,,
2,93120, Note_on_c,1,71,80,,,,,,,,,,,,,,,,,,,,,,,,,,,,
2,93359, Note_on_c,1,66,0,,,,,,,,,,,,,,,,,,,,,,,,,,,,
2,93360, Note_on_c,1,63,80,,,,,,,,,,,,,,,,,,,,,,,,,,,,
2,93599, Note_on_c,1,71,0,,,,,,,,,,,,,,,,,,,,,,,,,,,,
2,93600, Note_on_c,1,68,80,,,,,,,,,,,,,,,,,,,,,,,,,,,,
2,93839, Note_on_c,1,63,0,,,,,,,,,,,,,,,,,,,,,,,,,,,,
2,93840, Note_on_c,1,62,80,,,,,,,,,,,,,,,,,,,,,,,,,,,,
2,94079, Note_on_c,1,62,0,,,,,,,,,,,,,,,,,,,,,,,,,,,,
2,94079, Note_on_c,1,68,0,,,,,,,,,,,,,,,,,,,,,,,,,,,,
2,94080, Note_on_c,1,63,80,,,,,,,,,,,,,,,,,,,,,,,,,,,,
2,94080, Note_on_c,1,66,80,,,,,,,,,,,,,,,,,,,,,,,,,,,,
2,94319, Note_on_c,1,63,0,,,,,,,,,,,,,,,,,,,,,,,,,,,,
2,94559, Note_on_c,1,66,0,,,,,,,,,,,,,,,,,,,,,,,,,,,,
2,95280, Note_on_c,1,66,80,,,,,,,,,,,,,,,,,,,,,,,,,,,,
2,95519, Note_on_c,1,66,0,,,,,,,,,,,,,,,,,,,,,,,,,,,,
2,95520, Note_on_c,1,75,85,,,,,,,,,,,,,,,,,,,,,,,,,,,,
2,95760, Note_on_c,1,63,85,,,,,,,,,,,,,,,,,,,,,,,,,,,,
2,95999, Note_on_c,1,63,0,,,,,,,,,,,,,,,,,,,,,,,,,,,,
2,96000, Note_on_c,1,66,85,,,,,,,,,,,,,,,,,,,,,,,,,,,,
2,96239, Note_on_c,1,66,0,,,,,,,,,,,,,,,,,,,,,,,,,,,,
2,96240, Note_on_c,1,71,85,,,,,,,,,,,,,,,,,,,,,,,,,,,,
2,96479, Note_on_c,1,71,0,,,,,,,,,,,,,,,,,,,,,,,,,,,,
2,96480, Note_on_c,1,66,85,,,,,,,,,,,,,,,,,,,,,,,,,,,,
2,96719, Note_on_c,1,66,0,,,,,,,,,,,,,,,,,,,,,,,,,,,,
2,96720, Note_on_c,1,63,85,,,,,,,,,,,,,,,,,,,,,,,,,,,,
2,96959, Note_on_c,1,63,0,,,,,,,,,,,,,,,,,,,,,,,,,,,,
2,96959, Note_on_c,1,75,0,,,,,,,,,,,,,,,,,,,,,,,,,,,,
2,96960, Note_on_c,1,75,85,,,,,,,,,,,,,,,,,,,,,,,,,,,,
2,97200, Note_on_c,1,63,85,,,,,,,,,,,,,,,,,,,,,,,,,,,,
2,97439, Note_on_c,1,63,0,,,,,,,,,,,,,,,,,,,,,,,,,,,,
2,97440, Note_on_c,1,67,85,,,,,,,,,,,,,,,,,,,,,,,,,,,,
2,97679, Note_on_c,1,67,0,,,,,,,,,,,,,,,,,,,,,,,,,,,,
2,97680, Note_on_c,1,73,85,,,,,,,,,,,,,,,,,,,,,,,,,,,,
2,97919, Note_on_c,1,73,0,,,,,,,,,,,,,,,,,,,,,,,,,,,,
2,97920, Note_on_c,1,67,85,,,,,,,,,,,,,,,,,,,,,,,,,,,,
2,98159, Note_on_c,1,67,0,,,,,,,,,,,,,,,,,,,,,,,,,,,,
2,98160, Note_on_c,1,63,85,,,,,,,,,,,,,,,,,,,,,,,,,,,,
2,98399, Note_on_c,1,63,0,,,,,,,,,,,,,,,,,,,,,,,,,,,,
2,98399, Note_on_c,1,75,0,,,,,,,,,,,,,,,,,,,,,,,,,,,,
2,98400, Note_on_c,1,75,87,,,,,,,,,,,,,,,,,,,,,,,,,,,,
2,98640, Note_on_c,1,63,87,,,,,,,,,,,,,,,,,,,,,,,,,,,,
2,98879, Note_on_c,1,63,0,,,,,,,,,,,,,,,,,,,,,,,,,,,,
2,98880, Note_on_c,1,66,87,,,,,,,,,,,,,,,,,,,,,,,,,,,,
2,99119, Note_on_c,1,66,0,,,,,,,,,,,,,,,,,,,,,,,,,,,,
2,99120, Note_on_c,1,72,87,,,,,,,,,,,,,,,,,,,,,,,,,,,,
2,99359, Note_on_c,1,72,0,,,,,,,,,,,,,,,,,,,,,,,,,,,,
2,99360, Note_on_c,1,66,87,,,,,,,,,,,,,,,,,,,,,,,,,,,,
2,99599, Note_on_c,1,66,0,,,,,,,,,,,,,,,,,,,,,,,,,,,,
2,99600, Note_on_c,1,63,87,,,,,,,,,,,,,,,,,,,,,,,,,,,,
2,99839, Note_on_c,1,63,0,,,,,,,,,,,,,,,,,,,,,,,,,,,,
2,99839, Note_on_c,1,75,0,,,,,,,,,,,,,,,,,,,,,,,,,,,,
2,100080, Note_on_c,1,63,87,,,,,,,,,,,,,,,,,,,,,,,,,,,,
2,100319, Note_on_c,1,63,0,,,,,,,,,,,,,,,,,,,,,,,,,,,,
2,100320, Note_on_c,1,66,87,,,,,,,,,,,,,,,,,,,,,,,,,,,,
2,100559, Note_on_c,1,66,0,,,,,,,,,,,,,,,,,,,,,,,,,,,,
2,100560, Note_on_c,1,72,87,,,,,,,,,,,,,,,,,,,,,,,,,,,,
2,100799, Note_on_c,1,72,0,,,,,,,,,,,,,,,,,,,,,,,,,,,,
2,100800, Note_on_c,1,66,87,,,,,,,,,,,,,,,,,,,,,,,,,,,,
2,100800, Note_on_c,1,75,87,,,,,,,,,,,,,,,,,,,,,,,,,,,,
2,101039, Note_on_c,1,66,0,,,,,,,,,,,,,,,,,,,,,,,,,,,,
2,101040, Note_on_c,1,63,87,,,,,,,,,,,,,,,,,,,,,,,,,,,,
2,101279, Note_on_c,1,63,0,,,,,,,,,,,,,,,,,,,,,,,,,,,,
2,101279, Note_on_c,1,75,0,,,,,,,,,,,,,,,,,,,,,,,,,,,,
2,101280, Note_on_c,1,75,90,,,,,,,,,,,,,,,,,,,,,,,,,,,,
2,101520, Note_on_c,1,64,90,,,,,,,,,,,,,,,,,,,,,,,,,,,,
2,101759, Note_on_c,1,64,0,,,,,,,,,,,,,,,,,,,,,,,,,,,,
2,101760, Note_on_c,1,67,90,,,,,,,,,,,,,,,,,,,,,,,,,,,,
2,101999, Note_on_c,1,67,0,,,,,,,,,,,,,,,,,,,,,,,,,,,,
2,102000, Note_on_c,1,72,90,,,,,,,,,,,,,,,,,,,,,,,,,,,,
2,102239, Note_on_c,1,72,0,,,,,,,,,,,,,,,,,,,,,,,,,,,,
2,102239, Note_on_c,1,75,0,,,,,,,,,,,,,,,,,,,,,,,,,,,,
2,102240, Note_on_c,1,67,90,,,,,,,,,,,,,,,,,,,,,,,,,,,,
2,102240, Note_on_c,1,76,90,,,,,,,,,,,,,,,,,,,,,,,,,,,,
2,102479, Note_on_c,1,67,0,,,,,,,,,,,,,,,,,,,,,,,,,,,,
2,102480, Note_on_c,1,64,90,,,,,,,,,,,,,,,,,,,,,,,,,,,,
2,102719, Note_on_c,1,64,0,,,,,,,,,,,,,,,,,,,,,,,,,,,,
2,102719, Note_on_c,1,76,0,,,,,,,,,,,,,,,,,,,,,,,,,,,,
2,102720, Note_on_c,1,75,90,,,,,,,,,,,,,,,,,,,,,,,,,,,,
2,102960, Note_on_c,1,64,90,,,,,,,,,,,,,,,,,,,,,,,,,,,,
2,103199, Note_on_c,1,64,0,,,,,,,,,,,,,,,,,,,,,,,,,,,,
2,103200, Note_on_c,1,67,90,,,,,,,,,,,,,,,,,,,,,,,,,,,,
2,103439, Note_on_c,1,67,0,,,,,,,,,,,,,,,,,,,,,,,,,,,,
2,103440, Note_on_c,1,72,90,,,,,,,,,,,,,,,,,,,,,,,,,,,,
2,103679, Note_on_c,1,72,0,,,,,,,,,,,,,,,,,,,,,,,,,,,,
2,103679, Note_on_c,1,75,0,,,,,,,,,,,,,,,,,,,,,,,,,,,,
2,103680, Note_on_c,1,67,90,,,,,,,,,,,,,,,,,,,,,,,,,,,,
2,103680, Note_on_c,1,76,90,,,,,,,,,,,,,,,,,,,,,,,,,,,,
2,103919, Note_on_c,1,67,0,,,,,,,,,,,,,,,,,,,,,,,,,,,,
2,103920, Note_on_c,1,64,90,,,,,,,,,,,,,,,,,,,,,,,,,,,,
2,104159, Note_on_c,1,64,0,,,,,,,,,,,,,,,,,,,,,,,,,,,,
2,104159, Note_on_c,1,76,0,,,,,,,,,,,,,,,,,,,,,,,,,,,,
2,104160, Note_on_c,1,77,90,,,,,,,,,,,,,,,,,,,,,,,,,,,,
2,104400, Note_on_c,1,65,90,,,,,,,,,,,,,,,,,,,,,,,,,,,,
2,104639, Note_on_c,1,65,0,,,,,,,,,,,,,,,,,,,,,,,,,,,,
2,104640, Note_on_c,1,69,90,,,,,,,,,,,,,,,,,,,,,,,,,,,,
2,104879, Note_on_c,1,69,0,,,,,,,,,,,,,,,,,,,,,,,,,,,,
2,104880, Note_on_c,1,72,90,,,,,,,,,,,,,,,,,,,,,,,,,,,,
2,105119, Note_on_c,1,72,0,,,,,,,,,,,,,,,,,,,,,,,,,,,,
2,105120, Note_on_c,1,69,90,,,,,,,,,,,,,,,,,,,,,,,,,,,,
2,105359, Note_on_c,1,69,0,,,,,,,,,,,,,,,,,,,,,,,,,,,,
2,105360, Note_on_c,1,65,90,,,,,,,,,,,,,,,,,,,,,,,,,,,,
2,105599, Note_on_c,1,65,0,,,,,,,,,,,,,,,,,,,,,,,,,,,,
2,106559, Note_on_c,1,77,0,,,,,,,,,,,,,,,,,,,,,,,,,,,,
2,106560, Note_on_c,1,69,96,,,,,,,,,,,,,,,,,,,,,,,,,,,,
2,106560, Note_on_c,1,57,96,,,,,,,,,,,,,,,,,,,,,,,,,,,,
2,107039, Note_on_c,1,69,0,,,,,,,,,,,,,,,,,,,,,,,,,,,,
2,107039, Note_on_c,1,57,0,,,,,,,,,,,,,,,,,,,,,,,,,,,,
2,107040, Note_on_c,1,69,96,,,,,,,,,,,,,,,,,,,,,,,,,,,,
2,107040, Note_on_c,1,57,96,,,,,,,,,,,,,,,,,,,,,,,,,,,,
2,107519, Note_on_c,1,69,0,,,,,,,,,,,,,,,,,,,,,,,,,,,,
2,107519, Note_on_c,1,57,0,,,,,,,,,,,,,,,,,,,,,,,,,,,,
2,107520, Note_on_c,1,71,96,,,,,,,,,,,,,,,,,,,,,,,,,,,,
2,107520, Note_on_c,1,59,96,,,,,,,,,,,,,,,,,,,,,,,,,,,,
2,107999, Note_on_c,1,71,0,,,,,,,,,,,,,,,,,,,,,,,,,,,,
2,107999, Note_on_c,1,59,0,,,,,,,,,,,,,,,,,,,,,,,,,,,,
2,108000, Note_on_c,1,72,96,,,,,,,,,,,,,,,,,,,,,,,,,,,,
2,108000, Note_on_c,1,60,96,,,,,,,,,,,,,,,,,,,,,,,,,,,,
2,108479, Note_on_c,1,72,0,,,,,,,,,,,,,,,,,,,,,,,,,,,,
2,108479, Note_on_c,1,60,0,,,,,,,,,,,,,,,,,,,,,,,,,,,,
2,108480, Note_on_c,1,76,96,,,,,,,,,,,,,,,,,,,,,,,,,,,,
2,108480, Note_on_c,1,64,96,,,,,,,,,,,,,,,,,,,,,,,,,,,,
2,109439, Note_on_c,1,76,0,,,,,,,,,,,,,,,,,,,,,,,,,,,,
2,109439, Note_on_c,1,64,0,,,,,,,,,,,,,,,,,,,,,,,,,,,,
2,109440, Note_on_c,1,74,96,,,,,,,,,,,,,,,,,,,,,,,,,,,,
2,109440, Note_on_c,1,62,96,,,,,,,,,,,,,,,,,,,,,,,,,,,,
2,109919, Note_on_c,1,74,0,,,,,,,,,,,,,,,,,,,,,,,,,,,,
2,109919, Note_on_c,1,62,0,,,,,,,,,,,,,,,,,,,,,,,,,,,,
2,109920, Key_signature,0," ""major""",,,,,,,,,,,,,,,,,,,,,,,,,,,,,
2,109920, Note_on_c,1,72,96,,,,,,,,,,,,,,,,,,,,,,,,,,,,
2,109920, Note_on_c,1,67,96,,,,,,,,,,,,,,,,,,,,,,,,,,,,
2,109920, Note_on_c,1,60,96,,,,,,,,,,,,,,,,,,,,,,,,,,,,
2,110399, Note_on_c,1,72,0,,,,,,,,,,,,,,,,,,,,,,,,,,,,
2,110399, Note_on_c,1,67,0,,,,,,,,,,,,,,,,,,,,,,,,,,,,
2,110399, Note_on_c,1,60,0,,,,,,,,,,,,,,,,,,,,,,,,,,,,
2,112560, Note_on_c,1,84,96,,,,,,,,,,,,,,,,,,,,,,,,,,,,
2,112560, Note_on_c,1,72,96,,,,,,,,,,,,,,,,,,,,,,,,,,,,
2,112799, Note_on_c,1,84,0,,,,,,,,,,,,,,,,,,,,,,,,,,,,
2,112799, Note_on_c,1,72,0,,,,,,,,,,,,,,,,,,,,,,,,,,,,
2,112800, Note_on_c,1,84,96,,,,,,,,,,,,,,,,,,,,,,,,,,,,
2,112800, Note_on_c,1,80,96,,,,,,,,,,,,,,,,,,,,,,,,,,,,
2,112800, Note_on_c,1,77,96,,,,,,,,,,,,,,,,,,,,,,,,,,,,
2,112800, Note_on_c,1,72,96,,,,,,,,,,,,,,,,,,,,,,,,,,,,
2,113999, Note_on_c,1,84,0,,,,,,,,,,,,,,,,,,,,,,,,,,,,
2,113999, Note_on_c,1,80,0,,,,,,,,,,,,,,,,,,,,,,,,,,,,
2,113999, Note_on_c,1,77,0,,,,,,,,,,,,,,,,,,,,,,,,,,,,
2,113999, Note_on_c,1,72,0,,,,,,,,,,,,,,,,,,,,,,,,,,,,
2,114000, Note_on_c,1,83,96,,,,,,,,,,,,,,,,,,,,,,,,,,,,
2,114000, Note_on_c,1,79,96,,,,,,,,,,,,,,,,,,,,,,,,,,,,
2,114000, Note_on_c,1,77,96,,,,,,,,,,,,,,,,,,,,,,,,,,,,
2,114000, Note_on_c,1,71,96,,,,,,,,,,,,,,,,,,,,,,,,,,,,
2,114239, Note_on_c,1,83,0,,,,,,,,,,,,,,,,,,,,,,,,,,,,
2,114239, Note_on_c,1,79,0,,,,,,,,,,,,,,,,,,,,,,,,,,,,
2,114239, Note_on_c,1,77,0,,,,,,,,,,,,,,,,,,,,,,,,,,,,
2,114239, Note_on_c,1,71,0,,,,,,,,,,,,,,,,,,,,,,,,,,,,
2,114240, Note_on_c,1,84,96,,,,,,,,,,,,,,,,,,,,,,,,,,,,
2,114240, Note_on_c,1,80,96,,,,,,,,,,,,,,,,,,,,,,,,,,,,
2,114240, Note_on_c,1,77,96,,,,,,,,,,,,,,,,,,,,,,,,,,,,
2,114240, Note_on_c,1,72,96,,,,,,,,,,,,,,,,,,,,,,,,,,,,
2,115439, Note_on_c,1,84,0,,,,,,,,,,,,,,,,,,,,,,,,,,,,
2,115439, Note_on_c,1,80,0,,,,,,,,,,,,,,,,,,,,,,,,,,,,
2,115439, Note_on_c,1,77,0,,,,,,,,,,,,,,,,,,,,,,,,,,,,
2,115439, Note_on_c,1,72,0,,,,,,,,,,,,,,,,,,,,,,,,,,,,
2,115440, Note_on_c,1,86,96,,,,,,,,,,,,,,,,,,,,,,,,,,,,
2,115440, Note_on_c,1,80,96,,,,,,,,,,,,,,,,,,,,,,,,,,,,
2,115440, Note_on_c,1,77,96,,,,,,,,,,,,,,,,,,,,,,,,,,,,
2,115440, Note_on_c,1,74,96,,,,,,,,,,,,,,,,,,,,,,,,,,,,
2,115679, Note_on_c,1,86,0,,,,,,,,,,,,,,,,,,,,,,,,,,,,
2,115679, Note_on_c,1,80,0,,,,,,,,,,,,,,,,,,,,,,,,,,,,
2,115679, Note_on_c,1,77,0,,,,,,,,,,,,,,,,,,,,,,,,,,,,
2,115679, Note_on_c,1,74,0,,,,,,,,,,,,,,,,,,,,,,,,,,,,
2,115680, Note_on_c,1,88,96,,,,,,,,,,,,,,,,,,,,,,,,,,,,
2,115680, Note_on_c,1,79,96,,,,,,,,,,,,,,,,,,,,,,,,,,,,
2,115680, Note_on_c,1,76,96,,,,,,,,,,,,,,,,,,,,,,,,,,,,
2,116879, Note_on_c,1,88,0,,,,,,,,,,,,,,,,,,,,,,,,,,,,
2,116879, Note_on_c,1,79,0,,,,,,,,,,,,,,,,,,,,,,,,,,,,
2,116879, Note_on_c,1,76,0,,,,,,,,,,,,,,,,,,,,,,,,,,,,
2,116880, Note_on_c,1,86,96,,,,,,,,,,,,,,,,,,,,,,,,,,,,
2,116880, Note_on_c,1,79,96,,,,,,,,,,,,,,,,,,,,,,,,,,,,
2,116880, Note_on_c,1,74,96,,,,,,,,,,,,,,,,,,,,,,,,,,,,
2,117119, Note_on_c,1,86,0,,,,,,,,,,,,,,,,,,,,,,,,,,,,
2,117119, Note_on_c,1,79,0,,,,,,,,,,,,,,,,,,,,,,,,,,,,
2,117119, Note_on_c,1,74,0,,,,,,,,,,,,,,,,,,,,,,,,,,,,
2,117120, Note_on_c,1,84,96,,,,,,,,,,,,,,,,,,,,,,,,,,,,
2,117120, Note_on_c,1,79,96,,,,,,,,,,,,,,,,,,,,,,,,,,,,
2,117120, Note_on_c,1,72,96,,,,,,,,,,,,,,,,,,,,,,,,,,,,
2,117599, Note_on_c,1,84,0,,,,,,,,,,,,,,,,,,,,,,,,,,,,
2,117599, Note_on_c,1,79,0,,,,,,,,,,,,,,,,,,,,,,,,,,,,
2,117599, Note_on_c,1,72,0,,,,,,,,,,,,,,,,,,,,,,,,,,,,
2,118320, Note_on_c,1,88,96,,,,,,,,,,,,,,,,,,,,,,,,,,,,
2,118320, Note_on_c,1,76,96,,,,,,,,,,,,,,,,,,,,,,,,,,,,
2,118559, Note_on_c,1,88,0,,,,,,,,,,,,,,,,,,,,,,,,,,,,
2,118559, Note_on_c,1,76,0,,,,,,,,,,,,,,,,,,,,,,,,,,,,
2,118560, Note_on_c,1,88,96,,,,,,,,,,,,,,,,,,,,,,,,,,,,
2,118560, Note_on_c,1,84,96,,,,,,,,,,,,,,,,,,,,,,,,,,,,
2,118560, Note_on_c,1,81,96,,,,,,,,,,,,,,,,,,,,,,,,,,,,
2,118560, Note_on_c,1,76,96,,,,,,,,,,,,,,,,,,,,,,,,,,,,
2,119759, Note_on_c,1,88,0,,,,,,,,,,,,,,,,,,,,,,,,,,,,
2,119759, Note_on_c,1,84,0,,,,,,,,,,,,,,,,,,,,,,,,,,,,
2,119759, Note_on_c,1,81,0,,,,,,,,,,,,,,,,,,,,,,,,,,,,
2,119759, Note_on_c,1,76,0,,,,,,,,,,,,,,,,,,,,,,,,,,,,
2,119760, Note_on_c,1,87,96,,,,,,,,,,,,,,,,,,,,,,,,,,,,
2,119760, Note_on_c,1,84,96,,,,,,,,,,,,,,,,,,,,,,,,,,,,
2,119760, Note_on_c,1,81,96,,,,,,,,,,,,,,,,,,,,,,,,,,,,
2,119760, Note_on_c,1,75,96,,,,,,,,,,,,,,,,,,,,,,,,,,,,
2,119999, Note_on_c,1,87,0,,,,,,,,,,,,,,,,,,,,,,,,,,,,
2,119999, Note_on_c,1,84,0,,,,,,,,,,,,,,,,,,,,,,,,,,,,
2,119999, Note_on_c,1,81,0,,,,,,,,,,,,,,,,,,,,,,,,,,,,
2,119999, Note_on_c,1,75,0,,,,,,,,,,,,,,,,,,,,,,,,,,,,
2,120000, Note_on_c,1,88,96,,,,,,,,,,,,,,,,,,,,,,,,,,,,
2,120000, Note_on_c,1,84,96,,,,,,,,,,,,,,,,,,,,,,,,,,,,
2,120000, Note_on_c,1,81,96,,,,,,,,,,,,,,,,,,,,,,,,,,,,
2,120000, Note_on_c,1,76,96,,,,,,,,,,,,,,,,,,,,,,,,,,,,
2,121199, Note_on_c,1,88,0,,,,,,,,,,,,,,,,,,,,,,,,,,,,
2,121199, Note_on_c,1,84,0,,,,,,,,,,,,,,,,,,,,,,,,,,,,
2,121199, Note_on_c,1,81,0,,,,,,,,,,,,,,,,,,,,,,,,,,,,
2,121199, Note_on_c,1,76,0,,,,,,,,,,,,,,,,,,,,,,,,,,,,
2,121200, Note_on_c,1,90,96,,,,,,,,,,,,,,,,,,,,,,,,,,,,
2,121200, Note_on_c,1,78,96,,,,,,,,,,,,,,,,,,,,,,,,,,,,
2,121439, Note_on_c,1,90,0,,,,,,,,,,,,,,,,,,,,,,,,,,,,
2,121439, Note_on_c,1,78,0,,,,,,,,,,,,,,,,,,,,,,,,,,,,
2,121440, Note_on_c,1,92,112,,,,,,,,,,,,,,,,,,,,,,,,,,,,
2,121440, Note_on_c,1,80,112,,,,,,,,,,,,,,,,,,,,,,,,,,,,
2,121680, Note_on_c,1,71,112,,,,,,,,,,,,,,,,,,,,,,,,,,,,
2,121919, Note_on_c,1,71,0,,,,,,,,,,,,,,,,,,,,,,,,,,,,
2,121920, Note_on_c,1,76,112,,,,,,,,,,,,,,,,,,,,,,,,,,,,
2,122159, Note_on_c,1,76,0,,,,,,,,,,,,,,,,,,,,,,,,,,,,
2,122160, Note_on_c,1,68,112,,,,,,,,,,,,,,,,,,,,,,,,,,,,
2,122399, Note_on_c,1,68,0,,,,,,,,,,,,,,,,,,,,,,,,,,,,
2,122400, Note_on_c,1,71,112,,,,,,,,,,,,,,,,,,,,,,,,,,,,
2,122639, Note_on_c,1,71,0,,,,,,,,,,,,,,,,,,,,,,,,,,,,
2,122640, Note_on_c,1,76,112,,,,,,,,,,,,,,,,,,,,,,,,,,,,
2,122879, Note_on_c,1,76,0,,,,,,,,,,,,,,,,,,,,,,,,,,,,
2,122879, Note_on_c,1,92,0,,,,,,,,,,,,,,,,,,,,,,,,,,,,
2,122879, Note_on_c,1,80,0,,,,,,,,,,,,,,,,,,,,,,,,,,,,
2,122880, Note_on_c,1,92,112,,,,,,,,,,,,,,,,,,,,,,,,,,,,
2,122880, Note_on_c,1,80,112,,,,,,,,,,,,,,,,,,,,,,,,,,,,
2,123120, Note_on_c,1,71,112,,,,,,,,,,,,,,,,,,,,,,,,,,,,
2,123359, Note_on_c,1,71,0,,,,,,,,,,,,,,,,,,,,,,,,,,,,
2,123360, Note_on_c,1,76,112,,,,,,,,,,,,,,,,,,,,,,,,,,,,
2,123599, Note_on_c,1,76,0,,,,,,,,,,,,,,,,,,,,,,,,,,,,
2,123600, Note_on_c,1,68,112,,,,,,,,,,,,,,,,,,,,,,,,,,,,
2,123839, Note_on_c,1,68,0,,,,,,,,,,,,,,,,,,,,,,,,,,,,
2,123840, Note_on_c,1,69,112,,,,,,,,,,,,,,,,,,,,,,,,,,,,
2,124079, Note_on_c,1,69,0,,,,,,,,,,,,,,,,,,,,,,,,,,,,
2,124080, Note_on_c,1,76,112,,,,,,,,,,,,,,,,,,,,,,,,,,,,
2,124319, Note_on_c,1,76,0,,,,,,,,,,,,,,,,,,,,,,,,,,,,
2,124319, Note_on_c,1,92,0,,,,,,,,,,,,,,,,,,,,,,,,,,,,
2,124319, Note_on_c,1,80,0,,,,,,,,,,,,,,,,,,,,,,,,,,,,
2,124320, Note_on_c,1,92,112,,,,,,,,,,,,,,,,,,,,,,,,,,,,
2,124320, Note_on_c,1,80,112,,,,,,,,,,,,,,,,,,,,,,,,,,,,
2,124560, Note_on_c,1,72,112,,,,,,,,,,,,,,,,,,,,,,,,,,,,
2,124799, Note_on_c,1,72,0,,,,,,,,,,,,,,,,,,,,,,,,,,,,
2,124800, Note_on_c,1,78,112,,,,,,,,,,,,,,,,,,,,,,,,,,,,
2,125039, Note_on_c,1,78,0,,,,,,,,,,,,,,,,,,,,,,,,,,,,
2,125040, Note_on_c,1,68,112,,,,,,,,,,,,,,,,,,,,,,,,,,,,
2,125279, Note_on_c,1,68,0,,,,,,,,,,,,,,,,,,,,,,,,,,,,
2,125280, Note_on_c,1,72,112,,,,,,,,,,,,,,,,,,,,,,,,,,,,
2,125519, Note_on_c,1,72,0,,,,,,,,,,,,,,,,,,,,,,,,,,,,
2,125520, Note_on_c,1,78,112,,,,,,,,,,,,,,,,,,,,,,,,,,,,
2,125759, Note_on_c,1,78,0,,,,,,,,,,,,,,,,,,,,,,,,,,,,
2,125759, Note_on_c,1,92,0,,,,,,,,,,,,,,,,,,,,,,,,,,,,
2,125759, Note_on_c,1,80,0,,,,,,,,,,,,,,,,,,,,,,,,,,,,
2,125760, Note_on_c,1,80,112,,,,,,,,,,,,,,,,,,,,,,,,,,,,
2,125999, Note_on_c,1,80,0,,,,,,,,,,,,,,,,,,,,,,,,,,,,
2,126000, Note_on_c,1,72,112,,,,,,,,,,,,,,,,,,,,,,,,,,,,
2,126239, Note_on_c,1,72,0,,,,,,,,,,,,,,,,,,,,,,,,,,,,
2,126240, Note_on_c,1,78,112,,,,,,,,,,,,,,,,,,,,,,,,,,,,
2,126479, Note_on_c,1,78,0,,,,,,,,,,,,,,,,,,,,,,,,,,,,
2,126480, Note_on_c,1,72,112,,,,,,,,,,,,,,,,,,,,,,,,,,,,
2,126719, Note_on_c,1,72,0,,,,,,,,,,,,,,,,,,,,,,,,,,,,
2,126960, Note_on_c,1,92,112,,,,,,,,,,,,,,,,,,,,,,,,,,,,
2,126960, Note_on_c,1,80,112,,,,,,,,,,,,,,,,,,,,,,,,,,,,
2,127199, Note_on_c,1,92,0,,,,,,,,,,,,,,,,,,,,,,,,,,,,
2,127199, Note_on_c,1,80,0,,,,,,,,,,,,,,,,,,,,,,,,,,,,
2,127200, Note_on_c,1,92,112,,,,,,,,,,,,,,,,,,,,,,,,,,,,
2,127200, Note_on_c,1,80,112,,,,,,,,,,,,,,,,,,,,,,,,,,,,
2,127440, Note_on_c,1,71,112,,,,,,,,,,,,,,,,,,,,,,,,,,,,
2,127679, Note_on_c,1,71,0,,,,,,,,,,,,,,,,,,,,,,,,,,,,
2,127680, Note_on_c,1,78,112,,,,,,,,,,,,,,,,,,,,,,,,,,,,
2,127919, Note_on_c,1,78,0,,,,,,,,,,,,,,,,,,,,,,,,,,,,
2,127920, Note_on_c,1,68,112,,,,,,,,,,,,,,,,,,,,,,,,,,,,
2,128159, Note_on_c,1,68,0,,,,,,,,,,,,,,,,,,,,,,,,,,,,
2,128159, Note_on_c,1,92,0,,,,,,,,,,,,,,,,,,,,,,,,,,,,
2,128159, Note_on_c,1,80,0,,,,,,,,,,,,,,,,,,,,,,,,,,,,
2,128400, Note_on_c,1,92,112,,,,,,,,,,,,,,,,,,,,,,,,,,,,
2,128400, Note_on_c,1,80,112,,,,,,,,,,,,,,,,,,,,,,,,,,,,
2,128639, Note_on_c,1,92,0,,,,,,,,,,,,,,,,,,,,,,,,,,,,
2,128639, Note_on_c,1,80,0,,,,,,,,,,,,,,,,,,,,,,,,,,,,
2,128640, Note_on_c,1,93,112,,,,,,,,,,,,,,,,,,,,,,,,,,,,
2,128640, Note_on_c,1,81,112,,,,,,,,,,,,,,,,,,,,,,,,,,,,
2,128880, Note_on_c,1,71,112,,,,,,,,,,,,,,,,,,,,,,,,,,,,
2,129119, Note_on_c,1,71,0,,,,,,,,,,,,,,,,,,,,,,,,,,,,
2,129120, Note_on_c,1,77,112,,,,,,,,,,,,,,,,,,,,,,,,,,,,
2,129359, Note_on_c,1,77,0,,,,,,,,,,,,,,,,,,,,,,,,,,,,
2,129360, Note_on_c,1,68,112,,,,,,,,,,,,,,,,,,,,,,,,,,,,
2,129599, Note_on_c,1,68,0,,,,,,,,,,,,,,,,,,,,,,,,,,,,
2,129599, Note_on_c,1,93,0,,,,,,,,,,,,,,,,,,,,,,,,,,,,
2,129599, Note_on_c,1,81,0,,,,,,,,,,,,,,,,,,,,,,,,,,,,
2,129840, Note_on_c,1,92,112,,,,,,,,,,,,,,,,,,,,,,,,,,,,
2,129840, Note_on_c,1,80,112,,,,,,,,,,,,,,,,,,,,,,,,,,,,
2,130079, Note_on_c,1,92,0,,,,,,,,,,,,,,,,,,,,,,,,,,,,
2,130079, Note_on_c,1,80,0,,,,,,,,,,,,,,,,,,,,,,,,,,,,
2,130080, Note_on_c,1,92,112,,,,,,,,,,,,,,,,,,,,,,,,,,,,
2,130080, Note_on_c,1,80,112,,,,,,,,,,,,,,,,,,,,,,,,,,,,
2,131519, Note_on_c,1,92,0,,,,,,,,,,,,,,,,,,,,,,,,,,,,
2,131519, Note_on_c,1,80,0,,,,,,,,,,,,,,,,,,,,,,,,,,,,
2,131520, Note_on_c,1,85,112,,,,,,,,,,,,,,,,,,,,,,,,,,,,
2,131520, Note_on_c,1,73,112,,,,,,,,,,,,,,,,,,,,,,,,,,,,
2,131999, Note_on_c,1,85,0,,,,,,,,,,,,,,,,,,,,,,,,,,,,
2,131999, Note_on_c,1,73,0,,,,,,,,,,,,,,,,,,,,,,,,,,,,
2,132480, Note_on_c,1,85,112,,,,,,,,,,,,,,,,,,,,,,,,,,,,
2,132480, Note_on_c,1,73,112,,,,,,,,,,,,,,,,,,,,,,,,,,,,
2,132959, Note_on_c,1,85,0,,,,,,,,,,,,,,,,,,,,,,,,,,,,
2,132959, Note_on_c,1,73,0,,,,,,,,,,,,,,,,,,,,,,,,,,,,
2,132960, Note_on_c,1,85,112,,,,,,,,,,,,,,,,,,,,,,,,,,,,
2,132960, Note_on_c,1,81,112,,,,,,,,,,,,,,,,,,,,,,,,,,,,
2,132960, Note_on_c,1,73,112,,,,,,,,,,,,,,,,,,,,,,,,,,,,
2,133439, Note_on_c,1,85,0,,,,,,,,,,,,,,,,,,,,,,,,,,,,
2,133439, Note_on_c,1,81,0,,,,,,,,,,,,,,,,,,,,,,,,,,,,
2,133439, Note_on_c,1,73,0,,,,,,,,,,,,,,,,,,,,,,,,,,,,
2,133440, Note_on_c,1,87,112,,,,,,,,,,,,,,,,,,,,,,,,,,,,
2,133440, Note_on_c,1,83,112,,,,,,,,,,,,,,,,,,,,,,,,,,,,
2,133440, Note_on_c,1,81,112,,,,,,,,,,,,,,,,,,,,,,,,,,,,
2,133440, Note_on_c,1,75,112,,,,,,,,,,,,,,,,,,,,,,,,,,,,
2,133919, Note_on_c,1,87,0,,,,,,,,,,,,,,,,,,,,,,,,,,,,
2,133919, Note_on_c,1,83,0,,,,,,,,,,,,,,,,,,,,,,,,,,,,
2,133919, Note_on_c,1,81,0,,,,,,,,,,,,,,,,,,,,,,,,,,,,
2,133919, Note_on_c,1,75,0,,,,,,,,,,,,,,,,,,,,,,,,,,,,
2,133920, Note_on_c,1,88,112,,,,,,,,,,,,,,,,,,,,,,,,,,,,
2,133920, Note_on_c,1,83,112,,,,,,,,,,,,,,,,,,,,,,,,,,,,
2,133920, Note_on_c,1,81,112,,,,,,,,,,,,,,,,,,,,,,,,,,,,
2,133920, Note_on_c,1,76,112,,,,,,,,,,,,,,,,,,,,,,,,,,,,
2,134399, Note_on_c,1,88,0,,,,,,,,,,,,,,,,,,,,,,,,,,,,
2,134399, Note_on_c,1,83,0,,,,,,,,,,,,,,,,,,,,,,,,,,,,
2,134399, Note_on_c,1,81,0,,,,,,,,,,,,,,,,,,,,,,,,,,,,
2,134399, Note_on_c,1,76,0,,,,,,,,,,,,,,,,,,,,,,,,,,,,
2,134400, Note_on_c,1,92,112,,,,,,,,,,,,,,,,,,,,,,,,,,,,
2,134400, Note_on_c,1,87,112,,,,,,,,,,,,,,,,,,,,,,,,,,,,
2,134400, Note_on_c,1,83,112,,,,,,,,,,,,,,,,,,,,,,,,,,,,
2,134400, Note_on_c,1,80,112,,,,,,,,,,,,,,,,,,,,,,,,,,,,
2,135359, Note_on_c,1,92,0,,,,,,,,,,,,,,,,,,,,,,,,,,,,
2,135359, Note_on_c,1,87,0,,,,,,,,,,,,,,,,,,,,,,,,,,,,
2,135359, Note_on_c,1,83,0,,,,,,,,,,,,,,,,,,,,,,,,,,,,
2,135359, Note_on_c,1,80,0,,,,,,,,,,,,,,,,,,,,,,,,,,,,
2,135360, Note_on_c,1,90,112,,,,,,,,,,,,,,,,,,,,,,,,,,,,
2,135360, Note_on_c,1,78,112,,,,,,,,,,,,,,,,,,,,,,,,,,,,
2,135839, Note_on_c,1,90,0,,,,,,,,,,,,,,,,,,,,,,,,,,,,
2,135839, Note_on_c,1,78,0,,,,,,,,,,,,,,,,,,,,,,,,,,,,
2,135840, Note_on_c,1,90,112,,,,,,,,,,,,,,,,,,,,,,,,,,,,
2,135840, Note_on_c,1,83,112,,,,,,,,,,,,,,,,,,,,,,,,,,,,
2,135840, Note_on_c,1,80,112,,,,,,,,,,,,,,,,,,,,,,,,,,,,
2,135840, Note_on_c,1,78,112,,,,,,,,,,,,,,,,,,,,,,,,,,,,
2,136319, Note_on_c,1,90,0,,,,,,,,,,,,,,,,,,,,,,,,,,,,
2,136319, Note_on_c,1,83,0,,,,,,,,,,,,,,,,,,,,,,,,,,,,
2,136319, Note_on_c,1,80,0,,,,,,,,,,,,,,,,,,,,,,,,,,,,
2,136319, Note_on_c,1,78,0,,,,,,,,,,,,,,,,,,,,,,,,,,,,
2,136320, Note_on_c,1,88,112,,,,,,,,,,,,,,,,,,,,,,,,,,,,
2,136320, Note_on_c,1,76,112,,,,,,,,,,,,,,,,,,,,,,,,,,,,
2,136799, Note_on_c,1,88,0,,,,,,,,,,,,,,,,,,,,,,,,,,,,
2,136799, Note_on_c,1,76,0,,,,,,,,,,,,,,,,,,,,,,,,,,,,
2,136800, Note_on_c,1,85,112,,,,,,,,,,,,,,,,,,,,,,,,,,,,
2,136800, Note_on_c,1,79,112,,,,,,,,,,,,,,,,,,,,,,,,,,,,
2,136800, Note_on_c,1,73,112,,,,,,,,,,,,,,,,,,,,,,,,,,,,
2,137279, Note_on_c,1,85,0,,,,,,,,,,,,,,,,,,,,,,,,,,,,
2,137279, Note_on_c,1,79,0,,,,,,,,,,,,,,,,,,,,,,,,,,,,
2,137279, Note_on_c,1,73,0,,,,,,,,,,,,,,,,,,,,,,,,,,,,
2,137280, Note_on_c,1,83,112,,,,,,,,,,,,,,,,,,,,,,,,,,,,
2,137280, Note_on_c,1,80,112,,,,,,,,,,,,,,,,,,,,,,,,,,,,
2,137280, Note_on_c,1,71,112,,,,,,,,,,,,,,,,,,,,,,,,,,,,
2,137759, Note_on_c,1,83,0,,,,,,,,,,,,,,,,,,,,,,,,,,,,
2,137759, Note_on_c,1,80,0,,,,,,,,,,,,,,,,,,,,,,,,,,,,
2,137759, Note_on_c,1,71,0,,,,,,,,,,,,,,,,,,,,,,,,,,,,
2,138240, Note_on_c,1,83,112,,,,,,,,,,,,,,,,,,,,,,,,,,,,
2,138240, Note_on_c,1,71,112,,,,,,,,,,,,,,,,,,,,,,,,,,,,
2,138719, Note_on_c,1,83,0,,,,,,,,,,,,,,,,,,,,,,,,,,,,
2,138719, Note_on_c,1,71,0,,,,,,,,,,,,,,,,,,,,,,,,,,,,
2,138720, Note_on_c,1,92,112,,,,,,,,,,,,,,,,,,,,,,,,,,,,
2,138720, Note_on_c,1,80,112,,,,,,,,,,,,,,,,,,,,,,,,,,,,
2,138960, Note_on_c,1,71,112,,,,,,,,,,,,,,,,,,,,,,,,,,,,
2,139199, Note_on_c,1,71,0,,,,,,,,,,,,,,,,,,,,,,,,,,,,
2,139200, Note_on_c,1,76,112,,,,,,,,,,,,,,,,,,,,,,,,,,,,
2,139439, Note_on_c,1,76,0,,,,,,,,,,,,,,,,,,,,,,,,,,,,
2,139440, Note_on_c,1,68,112,,,,,,,,,,,,,,,,,,,,,,,,,,,,
2,139679, Note_on_c,1,68,0,,,,,,,,,,,,,,,,,,,,,,,,,,,,
2,139680, Note_on_c,1,71,112,,,,,,,,,,,,,,,,,,,,,,,,,,,,
2,139919, Note_on_c,1,71,0,,,,,,,,,,,,,,,,,,,,,,,,,,,,
2,139920, Note_on_c,1,76,112,,,,,,,,,,,,,,,,,,,,,,,,,,,,
2,140159, Note_on_c,1,76,0,,,,,,,,,,,,,,,,,,,,,,,,,,,,
2,140159, Note_on_c,1,92,0,,,,,,,,,,,,,,,,,,,,,,,,,,,,
2,140159, Note_on_c,1,80,0,,,,,,,,,,,,,,,,,,,,,,,,,,,,
2,140160, Note_on_c,1,92,112,,,,,,,,,,,,,,,,,,,,,,,,,,,,
2,140160, Note_on_c,1,80,112,,,,,,,,,,,,,,,,,,,,,,,,,,,,
2,140400, Note_on_c,1,72,112,,,,,,,,,,,,,,,,,,,,,,,,,,,,
2,140639, Note_on_c,1,72,0,,,,,,,,,,,,,,,,,,,,,,,,,,,,
2,140640, Note_on_c,1,78,112,,,,,,,,,,,,,,,,,,,,,,,,,,,,
2,140879, Note_on_c,1,78,0,,,,,,,,,,,,,,,,,,,,,,,,,,,,
2,140880, Note_on_c,1,68,112,,,,,,,,,,,,,,,,,,,,,,,,,,,,
2,141119, Note_on_c,1,68,0,,,,,,,,,,,,,,,,,,,,,,,,,,,,
2,141120, Note_on_c,1,72,112,,,,,,,,,,,,,,,,,,,,,,,,,,,,
2,141359, Note_on_c,1,72,0,,,,,,,,,,,,,,,,,,,,,,,,,,,,
2,141360, Note_on_c,1,78,112,,,,,,,,,,,,,,,,,,,,,,,,,,,,
2,141599, Note_on_c,1,78,0,,,,,,,,,,,,,,,,,,,,,,,,,,,,
2,141599, Note_on_c,1,92,0,,,,,,,,,,,,,,,,,,,,,,,,,,,,
2,141599, Note_on_c,1,80,0,,,,,,,,,,,,,,,,,,,,,,,,,,,,
2,141600, Note_on_c,1,92,112,,,,,,,,,,,,,,,,,,,,,,,,,,,,
2,141600, Note_on_c,1,80,112,,,,,,,,,,,,,,,,,,,,,,,,,,,,
2,141840, Note_on_c,1,71,112,,,,,,,,,,,,,,,,,,,,,,,,,,,,
2,142079, Note_on_c,1,71,0,,,,,,,,,,,,,,,,,,,,,,,,,,,,
2,142080, Note_on_c,1,77,112,,,,,,,,,,,,,,,,,,,,,,,,,,,,
2,142319, Note_on_c,1,77,0,,,,,,,,,,,,,,,,,,,,,,,,,,,,
2,142320, Note_on_c,1,68,112,,,,,,,,,,,,,,,,,,,,,,,,,,,,
2,142559, Note_on_c,1,68,0,,,,,,,,,,,,,,,,,,,,,,,,,,,,
2,142560, Note_on_c,1,71,112,,,,,,,,,,,,,,,,,,,,,,,,,,,,
2,142799, Note_on_c,1,71,0,,,,,,,,,,,,,,,,,,,,,,,,,,,,
2,142800, Note_on_c,1,77,112,,,,,,,,,,,,,,,,,,,,,,,,,,,,
2,143039, Note_on_c,1,77,0,,,,,,,,,,,,,,,,,,,,,,,,,,,,
2,143039, Note_on_c,1,92,0,,,,,,,,,,,,,,,,,,,,,,,,,,,,
2,143039, Note_on_c,1,80,0,,,,,,,,,,,,,,,,,,,,,,,,,,,,
2,143040, Note_on_c,1,80,112,,,,,,,,,,,,,,,,,,,,,,,,,,,,
2,143279, Note_on_c,1,80,0,,,,,,,,,,,,,,,,,,,,,,,,,,,,
2,143280, Note_on_c,1,71,112,,,,,,,,,,,,,,,,,,,,,,,,,,,,
2,143519, Note_on_c,1,71,0,,,,,,,,,,,,,,,,,,,,,,,,,,,,
2,143520, Note_on_c,1,77,112,,,,,,,,,,,,,,,,,,,,,,,,,,,,
2,143759, Note_on_c,1,77,0,,,,,,,,,,,,,,,,,,,,,,,,,,,,
2,143760, Note_on_c,1,68,112,,,,,,,,,,,,,,,,,,,,,,,,,,,,
2,143999, Note_on_c,1,68,0,,,,,,,,,,,,,,,,,,,,,,,,,,,,
2,144000, Note_on_c,1,71,112,,,,,,,,,,,,,,,,,,,,,,,,,,,,
2,144239, Note_on_c,1,71,0,,,,,,,,,,,,,,,,,,,,,,,,,,,,
2,144240, Note_on_c,1,77,112,,,,,,,,,,,,,,,,,,,,,,,,,,,,
2,144479, Note_on_c,1,77,0,,,,,,,,,,,,,,,,,,,,,,,,,,,,
2,144480, Note_on_c,1,92,112,,,,,,,,,,,,,,,,,,,,,,,,,,,,
2,144480, Note_on_c,1,80,112,,,,,,,,,,,,,,,,,,,,,,,,,,,,
2,144720, Note_on_c,1,72,112,,,,,,,,,,,,,,,,,,,,,,,,,,,,
2,144959, Note_on_c,1,72,0,,,,,,,,,,,,,,,,,,,,,,,,,,,,
2,144960, Note_on_c,1,77,112,,,,,,,,,,,,,,,,,,,,,,,,,,,,
2,145199, Note_on_c,1,77,0,,,,,,,,,,,,,,,,,,,,,,,,,,,,
2,145200, Note_on_c,1,68,112,,,,,,,,,,,,,,,,,,,,,,,,,,,,
2,145439, Note_on_c,1,68,0,,,,,,,,,,,,,,,,,,,,,,,,,,,,
2,145440, Note_on_c,1,72,112,,,,,,,,,,,,,,,,,,,,,,,,,,,,
2,145679, Note_on_c,1,72,0,,,,,,,,,,,,,,,,,,,,,,,,,,,,
2,145680, Note_on_c,1,77,112,,,,,,,,,,,,,,,,,,,,,,,,,,,,
2,145919, Note_on_c,1,77,0,,,,,,,,,,,,,,,,,,,,,,,,,,,,
2,145919, Note_on_c,1,92,0,,,,,,,,,,,,,,,,,,,,,,,,,,,,
2,145919, Note_on_c,1,80,0,,,,,,,,,,,,,,,,,,,,,,,,,,,,
2,145920, Note_on_c,1,92,112,,,,,,,,,,,,,,,,,,,,,,,,,,,,
2,145920, Note_on_c,1,80,112,,,,,,,,,,,,,,,,,,,,,,,,,,,,
2,146160, Note_on_c,1,73,112,,,,,,,,,,,,,,,,,,,,,,,,,,,,
2,146399, Note_on_c,1,73,0,,,,,,,,,,,,,,,,,,,,,,,,,,,,
2,146400, Note_on_c,1,77,112,,,,,,,,,,,,,,,,,,,,,,,,,,,,
2,146639, Note_on_c,1,77,0,,,,,,,,,,,,,,,,,,,,,,,,,,,,
2,146640, Note_on_c,1,68,112,,,,,,,,,,,,,,,,,,,,,,,,,,,,
2,146879, Note_on_c,1,68,0,,,,,,,,,,,,,,,,,,,,,,,,,,,,
2,146880, Note_on_c,1,73,112,,,,,,,,,,,,,,,,,,,,,,,,,,,,
2,147119, Note_on_c,1,73,0,,,,,,,,,,,,,,,,,,,,,,,,,,,,
2,147120, Note_on_c,1,77,112,,,,,,,,,,,,,,,,,,,,,,,,,,,,
2,147359, Note_on_c,1,77,0,,,,,,,,,,,,,,,,,,,,,,,,,,,,
2,147359, Note_on_c,1,92,0,,,,,,,,,,,,,,,,,,,,,,,,,,,,
2,147359, Note_on_c,1,80,0,,,,,,,,,,,,,,,,,,,,,,,,,,,,
2,147360, Key_signature,-4," ""major""",,,,,,,,,,,,,,,,,,,,,,,,,,,,,
2,147360, Note_on_c,1,92,112,,,,,,,,,,,,,,,,,,,,,,,,,,,,
2,147360, Note_on_c,1,86,112,,,,,,,,,,,,,,,,,,,,,,,,,,,,
2,147360, Note_on_c,1,80,112,,,,,,,,,,,,,,,,,,,,,,,,,,,,
2,148319, Note_on_c,1,92,0,,,,,,,,,,,,,,,,,,,,,,,,,,,,
2,148319, Note_on_c,1,86,0,,,,,,,,,,,,,,,,,,,,,,,,,,,,
2,148319, Note_on_c,1,80,0,,,,,,,,,,,,,,,,,,,,,,,,,,,,
2,148320, Note_on_c,1,91,112,,,,,,,,,,,,,,,,,,,,,,,,,,,,
2,148320, Note_on_c,1,79,112,,,,,,,,,,,,,,,,,,,,,,,,,,,,
2,148799, Note_on_c,1,91,0,,,,,,,,,,,,,,,,,,,,,,,,,,,,
2,148799, Note_on_c,1,79,0,,,,,,,,,,,,,,,,,,,,,,,,,,,,
2,148800, Note_on_c,1,89,112,,,,,,,,,,,,,,,,,,,,,,,,,,,,
2,148800, Note_on_c,1,77,112,,,,,,,,,,,,,,,,,,,,,,,,,,,,
2,149279, Note_on_c,1,89,0,,,,,,,,,,,,,,,,,,,,,,,,,,,,
2,149279, Note_on_c,1,77,0,,,,,,,,,,,,,,,,,,,,,,,,,,,,
2,149280, Note_on_c,1,79,112,,,,,,,,,,,,,,,,,,,,,,,,,,,,
2,149280, Note_on_c,1,67,112,,,,,,,,,,,,,,,,,,,,,,,,,,,,
2,149759, Note_on_c,1,79,0,,,,,,,,,,,,,,,,,,,,,,,,,,,,
2,149759, Note_on_c,1,67,0,,,,,,,,,,,,,,,,,,,,,,,,,,,,
2,149760, Note_on_c,1,80,112,,,,,,,,,,,,,,,,,,,,,,,,,,,,
2,149760, Note_on_c,1,68,112,,,,,,,,,,,,,,,,,,,,,,,,,,,,
2,150239, Note_on_c,1,80,0,,,,,,,,,,,,,,,,,,,,,,,,,,,,
2,150239, Note_on_c,1,68,0,,,,,,,,,,,,,,,,,,,,,,,,,,,,
2,150240, Note_on_c,1,84,112,,,,,,,,,,,,,,,,,,,,,,,,,,,,
2,150240, Note_on_c,1,80,112,,,,,,,,,,,,,,,,,,,,,,,,,,,,
2,150240, Note_on_c,1,77,112,,,,,,,,,,,,,,,,,,,,,,,,,,,,
2,150240, Note_on_c,1,72,112,,,,,,,,,,,,,,,,,,,,,,,,,,,,
2,151679, Note_on_c,1,84,0,,,,,,,,,,,,,,,,,,,,,,,,,,,,
2,151679, Note_on_c,1,80,0,,,,,,,,,,,,,,,,,,,,,,,,,,,,
2,151679, Note_on_c,1,77,0,,,,,,,,,,,,,,,,,,,,,,,,,,,,
2,151679, Note_on_c,1,72,0,,,,,,,,,,,,,,,,,,,,,,,,,,,,
2,151680, Note_on_c,1,82,112,,,,,,,,,,,,,,,,,,,,,,,,,,,,
2,151680, Note_on_c,1,70,112,,,,,,,,,,,,,,,,,,,,,,,,,,,,
2,152159, Note_on_c,1,82,0,,,,,,,,,,,,,,,,,,,,,,,,,,,,
2,152159, Note_on_c,1,70,0,,,,,,,,,,,,,,,,,,,,,,,,,,,,
2,152640, Note_on_c,1,92,112,,,,,,,,,,,,,,,,,,,,,,,,,,,,
2,152640, Note_on_c,1,80,112,,,,,,,,,,,,,,,,,,,,,,,,,,,,
2,153119, Note_on_c,1,92,0,,,,,,,,,,,,,,,,,,,,,,,,,,,,
2,153119, Note_on_c,1,80,0,,,,,,,,,,,,,,,,,,,,,,,,,,,,
2,153120, Note_on_c,1,92,112,,,,,,,,,,,,,,,,,,,,,,,,,,,,
2,153120, Note_on_c,1,86,112,,,,,,,,,,,,,,,,,,,,,,,,,,,,
2,153120, Note_on_c,1,80,112,,,,,,,,,,,,,,,,,,,,,,,,,,,,
2,153839, Note_on_c,1,92,0,,,,,,,,,,,,,,,,,,,,,,,,,,,,
2,153839, Note_on_c,1,86,0,,,,,,,,,,,,,,,,,,,,,,,,,,,,
2,153839, Note_on_c,1,80,0,,,,,,,,,,,,,,,,,,,,,,,,,,,,
2,153840, Note_on_c,1,91,112,,,,,,,,,,,,,,,,,,,,,,,,,,,,
2,153840, Note_on_c,1,79,112,,,,,,,,,,,,,,,,,,,,,,,,,,,,
2,154079, Note_on_c,1,91,0,,,,,,,,,,,,,,,,,,,,,,,,,,,,
2,154079, Note_on_c,1,79,0,,,,,,,,,,,,,,,,,,,,,,,,,,,,
2,154080, Note_on_c,1,94,112,,,,,,,,,,,,,,,,,,,,,,,,,,,,
2,154080, Note_on_c,1,82,112,,,,,,,,,,,,,,,,,,,,,,,,,,,,
2,154239, Note_on_c,1,94,0,,,,,,,,,,,,,,,,,,,,,,,,,,,,
2,154239, Note_on_c,1,82,0,,,,,,,,,,,,,,,,,,,,,,,,,,,,
2,154240, Note_on_c,1,92,112,,,,,,,,,,,,,,,,,,,,,,,,,,,,
2,154240, Note_on_c,1,80,112,,,,,,,,,,,,,,,,,,,,,,,,,,,,
2,154399, Note_on_c,1,92,0,,,,,,,,,,,,,,,,,,,,,,,,,,,,
2,154399, Note_on_c,1,80,0,,,,,,,,,,,,,,,,,,,,,,,,,,,,
2,154400, Note_on_c,1,79,112,,,,,,,,,,,,,,,,,,,,,,,,,,,,
2,154400, Note_on_c,1,67,112,,,,,,,,,,,,,,,,,,,,,,,,,,,,
2,154559, Note_on_c,1,79,0,,,,,,,,,,,,,,,,,,,,,,,,,,,,
2,154559, Note_on_c,1,67,0,,,,,,,,,,,,,,,,,,,,,,,,,,,,
2,154560, Note_on_c,1,77,112,,,,,,,,,,,,,,,,,,,,,,,,,,,,
2,154560, Note_on_c,1,65,112,,,,,,,,,,,,,,,,,,,,,,,,,,,,
2,155039, Note_on_c,1,77,0,,,,,,,,,,,,,,,,,,,,,,,,,,,,
2,155039, Note_on_c,1,65,0,,,,,,,,,,,,,,,,,,,,,,,,,,,,
2,155040, Note_on_c,1,79,112,,,,,,,,,,,,,,,,,,,,,,,,,,,,
2,155040, Note_on_c,1,67,112,,,,,,,,,,,,,,,,,,,,,,,,,,,,
2,155519, Note_on_c,1,79,0,,,,,,,,,,,,,,,,,,,,,,,,,,,,
2,155519, Note_on_c,1,67,0,,,,,,,,,,,,,,,,,,,,,,,,,,,,
2,155520, Note_on_c,1,80,112,,,,,,,,,,,,,,,,,,,,,,,,,,,,
2,155520, Note_on_c,1,68,112,,,,,,,,,,,,,,,,,,,,,,,,,,,,
2,155999, Note_on_c,1,80,0,,,,,,,,,,,,,,,,,,,,,,,,,,,,
2,155999, Note_on_c,1,68,0,,,,,,,,,,,,,,,,,,,,,,,,,,,,
2,156000, Note_on_c,1,84,112,,,,,,,,,,,,,,,,,,,,,,,,,,,,
2,156000, Note_on_c,1,80,112,,,,,,,,,,,,,,,,,,,,,,,,,,,,
2,156000, Note_on_c,1,77,112,,,,,,,,,,,,,,,,,,,,,,,,,,,,
2,156000, Note_on_c,1,72,112,,,,,,,,,,,,,,,,,,,,,,,,,,,,
2,157439, Note_on_c,1,84,0,,,,,,,,,,,,,,,,,,,,,,,,,,,,
2,157439, Note_on_c,1,80,0,,,,,,,,,,,,,,,,,,,,,,,,,,,,
2,157439, Note_on_c,1,77,0,,,,,,,,,,,,,,,,,,,,,,,,,,,,
2,157439, Note_on_c,1,72,0,,,,,,,,,,,,,,,,,,,,,,,,,,,,
2,157440, Note_on_c,1,82,112,,,,,,,,,,,,,,,,,,,,,,,,,,,,
2,157440, Note_on_c,1,70,112,,,,,,,,,,,,,,,,,,,,,,,,,,,,
2,157919, Note_on_c,1,82,0,,,,,,,,,,,,,,,,,,,,,,,,,,,,
2,157919, Note_on_c,1,70,0,,,,,,,,,,,,,,,,,,,,,,,,,,,,
2,158400, Note_on_c,1,92,112,,,,,,,,,,,,,,,,,,,,,,,,,,,,
2,158400, Note_on_c,1,80,112,,,,,,,,,,,,,,,,,,,,,,,,,,,,
2,158879, Note_on_c,1,92,0,,,,,,,,,,,,,,,,,,,,,,,,,,,,
2,158879, Note_on_c,1,80,0,,,,,,,,,,,,,,,,,,,,,,,,,,,,
2,158880, Note_on_c,1,92,112,,,,,,,,,,,,,,,,,,,,,,,,,,,,
2,158880, Note_on_c,1,86,112,,,,,,,,,,,,,,,,,,,,,,,,,,,,
2,158880, Note_on_c,1,80,112,,,,,,,,,,,,,,,,,,,,,,,,,,,,
2,159599, Note_on_c,1,92,0,,,,,,,,,,,,,,,,,,,,,,,,,,,,
2,159599, Note_on_c,1,86,0,,,,,,,,,,,,,,,,,,,,,,,,,,,,
2,159599, Note_on_c,1,80,0,,,,,,,,,,,,,,,,,,,,,,,,,,,,
2,159600, Note_on_c,1,91,112,,,,,,,,,,,,,,,,,,,,,,,,,,,,
2,159600, Note_on_c,1,79,112,,,,,,,,,,,,,,,,,,,,,,,,,,,,
2,159839, Note_on_c,1,91,0,,,,,,,,,,,,,,,,,,,,,,,,,,,,
2,159839, Note_on_c,1,79,0,,,,,,,,,,,,,,,,,,,,,,,,,,,,
2,159840, Note_on_c,1,94,112,,,,,,,,,,,,,,,,,,,,,,,,,,,,
2,159840, Note_on_c,1,82,112,,,,,,,,,,,,,,,,,,,,,,,,,,,,
2,160079, Note_on_c,1,94,0,,,,,,,,,,,,,,,,,,,,,,,,,,,,
2,160079, Note_on_c,1,82,0,,,,,,,,,,,,,,,,,,,,,,,,,,,,
2,160080, Note_on_c,1,92,112,,,,,,,,,,,,,,,,,,,,,,,,,,,,
2,160080, Note_on_c,1,80,112,,,,,,,,,,,,,,,,,,,,,,,,,,,,
2,160319, Note_on_c,1,92,0,,,,,,,,,,,,,,,,,,,,,,,,,,,,
2,160319, Note_on_c,1,80,0,,,,,,,,,,,,,,,,,,,,,,,,,,,,
2,160320, Note_on_c,1,95,112,,,,,,,,,,,,,,,,,,,,,,,,,,,,
2,160320, Note_on_c,1,83,112,,,,,,,,,,,,,,,,,,,,,,,,,,,,
2,160559, Note_on_c,1,95,0,,,,,,,,,,,,,,,,,,,,,,,,,,,,
2,160559, Note_on_c,1,83,0,,,,,,,,,,,,,,,,,,,,,,,,,,,,
2,160560, Note_on_c,1,94,112,,,,,,,,,,,,,,,,,,,,,,,,,,,,
2,160560, Note_on_c,1,82,112,,,,,,,,,,,,,,,,,,,,,,,,,,,,
2,160799, Note_on_c,1,94,0,,,,,,,,,,,,,,,,,,,,,,,,,,,,
2,160799, Note_on_c,1,82,0,,,,,,,,,,,,,,,,,,,,,,,,,,,,
2,160800, Note_on_c,1,103,112,,,,,,,,,,,,,,,,,,,,,,,,,,,,
2,160800, Note_on_c,1,91,112,,,,,,,,,,,,,,,,,,,,,,,,,,,,
2,161279, Note_on_c,1,103,0,,,,,,,,,,,,,,,,,,,,,,,,,,,,
2,161279, Note_on_c,1,91,0,,,,,,,,,,,,,,,,,,,,,,,,,,,,
2,161520, Note_on_c,1,101,112,,,,,,,,,,,,,,,,,,,,,,,,,,,,
2,161520, Note_on_c,1,89,112,,,,,,,,,,,,,,,,,,,,,,,,,,,,
2,161759, Note_on_c,1,101,0,,,,,,,,,,,,,,,,,,,,,,,,,,,,
2,161759, Note_on_c,1,89,0,,,,,,,,,,,,,,,,,,,,,,,,,,,,
2,161760, Note_on_c,1,99,112,,,,,,,,,,,,,,,,,,,,,,,,,,,,
2,161760, Note_on_c,1,87,112,,,,,,,,,,,,,,,,,,,,,,,,,,,,
2,161999, Note_on_c,1,99,0,,,,,,,,,,,,,,,,,,,,,,,,,,,,
2,161999, Note_on_c,1,87,0,,,,,,,,,,,,,,,,,,,,,,,,,,,,
2,162000, Note_on_c,1,98,112,,,,,,,,,,,,,,,,,,,,,,,,,,,,
2,162000, Note_on_c,1,86,112,,,,,,,,,,,,,,,,,,,,,,,,,,,,
2,162239, Note_on_c,1,98,0,,,,,,,,,,,,,,,,,,,,,,,,,,,,
2,162239, Note_on_c,1,86,0,,,,,,,,,,,,,,,,,,,,,,,,,,,,
2,162240, Note_on_c,1,96,112,,,,,,,,,,,,,,,,,,,,,,,,,,,,
2,162240, Note_on_c,1,84,112,,,,,,,,,,,,,,,,,,,,,,,,,,,,
2,162479, Note_on_c,1,96,0,,,,,,,,,,,,,,,,,,,,,,,,,,,,
2,162479, Note_on_c,1,84,0,,,,,,,,,,,,,,,,,,,,,,,,,,,,
2,162480, Note_on_c,1,94,112,,,,,,,,,,,,,,,,,,,,,,,,,,,,
2,162480, Note_on_c,1,82,112,,,,,,,,,,,,,,,,,,,,,,,,,,,,
2,162719, Note_on_c,1,94,0,,,,,,,,,,,,,,,,,,,,,,,,,,,,
2,162719, Note_on_c,1,82,0,,,,,,,,,,,,,,,,,,,,,,,,,,,,
2,162720, Note_on_c,1,92,112,,,,,,,,,,,,,,,,,,,,,,,,,,,,
2,162720, Note_on_c,1,80,112,,,,,,,,,,,,,,,,,,,,,,,,,,,,
2,162959, Note_on_c,1,92,0,,,,,,,,,,,,,,,,,,,,,,,,,,,,
2,162959, Note_on_c,1,80,0,,,,,,,,,,,,,,,,,,,,,,,,,,,,
2,162960, Note_on_c,1,91,112,,,,,,,,,,,,,,,,,,,,,,,,,,,,
2,162960, Note_on_c,1,79,112,,,,,,,,,,,,,,,,,,,,,,,,,,,,
2,163199, Note_on_c,1,91,0,,,,,,,,,,,,,,,,,,,,,,,,,,,,
2,163199, Note_on_c,1,79,0,,,,,,,,,,,,,,,,,,,,,,,,,,,,
2,163200, Note_on_c,1,89,112,,,,,,,,,,,,,,,,,,,,,,,,,,,,
2,163200, Note_on_c,1,77,112,,,,,,,,,,,,,,,,,,,,,,,,,,,,
2,163679, Note_on_c,1,89,0,,,,,,,,,,,,,,,,,,,,,,,,,,,,
2,163679, Note_on_c,1,77,0,,,,,,,,,,,,,,,,,,,,,,,,,,,,
2,163680, Note_on_c,1,79,112,,,,,,,,,,,,,,,,,,,,,,,,,,,,
2,163680, Note_on_c,1,67,112,,,,,,,,,,,,,,,,,,,,,,,,,,,,
2,164159, Note_on_c,1,79,0,,,,,,,,,,,,,,,,,,,,,,,,,,,,
2,164159, Note_on_c,1,67,0,,,,,,,,,,,,,,,,,,,,,,,,,,,,
2,164160, Note_on_c,1,80,112,,,,,,,,,,,,,,,,,,,,,,,,,,,,
2,164160, Note_on_c,1,68,112,,,,,,,,,,,,,,,,,,,,,,,,,,,,
2,164639, Note_on_c,1,80,0,,,,,,,,,,,,,,,,,,,,,,,,,,,,
2,164639, Note_on_c,1,68,0,,,,,,,,,,,,,,,,,,,,,,,,,,,,
2,164640, Note_on_c,1,84,112,,,,,,,,,,,,,,,,,,,,,,,,,,,,
2,164640, Note_on_c,1,80,112,,,,,,,,,,,,,,,,,,,,,,,,,,,,
2,164640, Note_on_c,1,77,112,,,,,,,,,,,,,,,,,,,,,,,,,,,,
2,164640, Note_on_c,1,72,112,,,,,,,,,,,,,,,,,,,,,,,,,,,,
2,165599, Note_on_c,1,84,0,,,,,,,,,,,,,,,,,,,,,,,,,,,,
2,165599, Note_on_c,1,80,0,,,,,,,,,,,,,,,,,,,,,,,,,,,,
2,165599, Note_on_c,1,77,0,,,,,,,,,,,,,,,,,,,,,,,,,,,,
2,165599, Note_on_c,1,72,0,,,,,,,,,,,,,,,,,,,,,,,,,,,,
2,165600, Note_on_c,1,82,112,,,,,,,,,,,,,,,,,,,,,,,,,,,,
2,165600, Note_on_c,1,70,112,,,,,,,,,,,,,,,,,,,,,,,,,,,,
2,166079, Note_on_c,1,82,0,,,,,,,,,,,,,,,,,,,,,,,,,,,,
2,166079, Note_on_c,1,70,0,,,,,,,,,,,,,,,,,,,,,,,,,,,,
2,166080, Note_on_c,1,87,112,,,,,,,,,,,,,,,,,,,,,,,,,,,,
2,166080, Note_on_c,1,82,112,,,,,,,,,,,,,,,,,,,,,,,,,,,,
2,166080, Note_on_c,1,80,112,,,,,,,,,,,,,,,,,,,,,,,,,,,,
2,166080, Note_on_c,1,75,112,,,,,,,,,,,,,,,,,,,,,,,,,,,,
2,167039, Note_on_c,1,87,0,,,,,,,,,,,,,,,,,,,,,,,,,,,,
2,167039, Note_on_c,1,82,0,,,,,,,,,,,,,,,,,,,,,,,,,,,,
2,167039, Note_on_c,1,80,0,,,,,,,,,,,,,,,,,,,,,,,,,,,,
2,167039, Note_on_c,1,75,0,,,,,,,,,,,,,,,,,,,,,,,,,,,,
2,167040, Note_on_c,1,85,112,,,,,,,,,,,,,,,,,,,,,,,,,,,,
2,167040, Note_on_c,1,73,112,,,,,,,,,,,,,,,,,,,,,,,,,,,,
2,167519, Note_on_c,1,85,0,,,,,,,,,,,,,,,,,,,,,,,,,,,,
2,167519, Note_on_c,1,73,0,,,,,,,,,,,,,,,,,,,,,,,,,,,,
2,167520, Note_on_c,1,91,112,,,,,,,,,,,,,,,,,,,,,,,,,,,,
2,167520, Note_on_c,1,85,112,,,,,,,,,,,,,,,,,,,,,,,,,,,,
2,167520, Note_on_c,1,82,112,,,,,,,,,,,,,,,,,,,,,,,,,,,,
2,167520, Note_on_c,1,79,112,,,,,,,,,,,,,,,,,,,,,,,,,,,,
2,168479, Note_on_c,1,91,0,,,,,,,,,,,,,,,,,,,,,,,,,,,,
2,168479, Note_on_c,1,85,0,,,,,,,,,,,,,,,,,,,,,,,,,,,,
2,168479, Note_on_c,1,82,0,,,,,,,,,,,,,,,,,,,,,,,,,,,,
2,168479, Note_on_c,1,79,0,,,,,,,,,,,,,,,,,,,,,,,,,,,,
2,168480, Note_on_c,1,89,112,,,,,,,,,,,,,,,,,,,,,,,,,,,,
2,168480, Note_on_c,1,77,112,,,,,,,,,,,,,,,,,,,,,,,,,,,,
2,168959, Note_on_c,1,89,0,,,,,,,,,,,,,,,,,,,,,,,,,,,,
2,168959, Note_on_c,1,77,0,,,,,,,,,,,,,,,,,,,,,,,,,,,,
2,168960, Note_on_c,1,96,112,,,,,,,,,,,,,,,,,,,,,,,,,,,,
2,168960, Note_on_c,1,89,112,,,,,,,,,,,,,,,,,,,,,,,,,,,,
2,168960, Note_on_c,1,84,112,,,,,,,,,,,,,,,,,,,,,,,,,,,,
2,169919, Note_on_c,1,96,0,,,,,,,,,,,,,,,,,,,,,,,,,,,,
2,169919, Note_on_c,1,89,0,,,,,,,,,,,,,,,,,,,,,,,,,,,,
2,169919, Note_on_c,1,84,0,,,,,,,,,,,,,,,,,,,,,,,,,,,,
2,169920, Note_on_c,1,94,112,,,,,,,,,,,,,,,,,,,,,,,,,,,,
2,169920, Note_on_c,1,82,112,,,,,,,,,,,,,,,,,,,,,,,,,,,,
2,170399, Note_on_c,1,94,0,,,,,,,,,,,,,,,,,,,,,,,,,,,,
2,170399, Note_on_c,1,82,0,,,,,,,,,,,,,,,,,,,,,,,,,,,,
2,170400, Note_on_c,1,89,112,,,,,,,,,,,,,,,,,,,,,,,,,,,,
2,170460, Note_on_c,1,91,112,,,,,,,,,,,,,,,,,,,,,,,,,,,,
2,170520, Note_on_c,1,94,112,,,,,,,,,,,,,,,,,,,,,,,,,,,,
2,170580, Note_on_c,1,97,112,,,,,,,,,,,,,,,,,,,,,,,,,,,,
2,170640, Note_on_c,1,101,112,,,,,,,,,,,,,,,,,,,,,,,,,,,,
2,171839, Note_on_c,1,89,0,,,,,,,,,,,,,,,,,,,,,,,,,,,,
2,171840, Note_on_c,1,67,112,,,,,,,,,,,,,,,,,,,,,,,,,,,,
2,171899, Note_on_c,1,91,0,,,,,,,,,,,,,,,,,,,,,,,,,,,,
2,171959, Note_on_c,1,94,0,,,,,,,,,,,,,,,,,,,,,,,,,,,,
2,172019, Note_on_c,1,97,0,,,,,,,,,,,,,,,,,,,,,,,,,,,,
2,172079, Note_on_c,1,67,0,,,,,,,,,,,,,,,,,,,,,,,,,,,,
2,172079, Note_on_c,1,101,0,,,,,,,,,,,,,,,,,,,,,,,,,,,,
2,172080, Note_on_c,1,70,112,,,,,,,,,,,,,,,,,,,,,,,,,,,,
2,172319, Note_on_c,1,70,0,,,,,,,,,,,,,,,,,,,,,,,,,,,,
2,172320, Note_on_c,1,73,112,,,,,,,,,,,,,,,,,,,,,,,,,,,,
2,172559, Note_on_c,1,73,0,,,,,,,,,,,,,,,,,,,,,,,,,,,,
2,172560, Note_on_c,1,79,112,,,,,,,,,,,,,,,,,,,,,,,,,,,,
2,172799, Note_on_c,1,79,0,,,,,,,,,,,,,,,,,,,,,,,,,,,,
2,172800, Note_on_c,1,82,112,,,,,,,,,,,,,,,,,,,,,,,,,,,,
2,173039, Note_on_c,1,82,0,,,,,,,,,,,,,,,,,,,,,,,,,,,,
2,173040, Note_on_c,1,85,112,,,,,,,,,,,,,,,,,,,,,,,,,,,,
2,173279, Note_on_c,1,85,0,,,,,,,,,,,,,,,,,,,,,,,,,,,,
2,173280, Note_on_c,1,91,112,,,,,,,,,,,,,,,,,,,,,,,,,,,,
2,173399, Note_on_c,1,91,0,,,,,,,,,,,,,,,,,,,,,,,,,,,,
2,173400, Note_on_c,1,94,112,,,,,,,,,,,,,,,,,,,,,,,,,,,,
2,173519, Note_on_c,1,94,0,,,,,,,,,,,,,,,,,,,,,,,,,,,,
2,173520, Note_on_c,1,90,112,,,,,,,,,,,,,,,,,,,,,,,,,,,,
2,173639, Note_on_c,1,90,0,,,,,,,,,,,,,,,,,,,,,,,,,,,,
2,173640, Note_on_c,1,93,112,,,,,,,,,,,,,,,,,,,,,,,,,,,,
2,173759, Note_on_c,1,93,0,,,,,,,,,,,,,,,,,,,,,,,,,,,,
2,173760, Note_on_c,1,89,112,,,,,,,,,,,,,,,,,,,,,,,,,,,,
2,173879, Note_on_c,1,89,0,,,,,,,,,,,,,,,,,,,,,,,,,,,,
2,173880, Note_on_c,1,92,112,,,,,,,,,,,,,,,,,,,,,,,,,,,,
2,173999, Note_on_c,1,92,0,,,,,,,,,,,,,,,,,,,,,,,,,,,,
2,174000, Note_on_c,1,88,112,,,,,,,,,,,,,,,,,,,,,,,,,,,,
2,174119, Note_on_c,1,88,0,,,,,,,,,,,,,,,,,,,,,,,,,,,,
2,174120, Note_on_c,1,91,112,,,,,,,,,,,,,,,,,,,,,,,,,,,,
2,174239, Note_on_c,1,91,0,,,,,,,,,,,,,,,,,,,,,,,,,,,,
2,174240, Note_on_c,1,87,112,,,,,,,,,,,,,,,,,,,,,,,,,,,,
2,174359, Note_on_c,1,87,0,,,,,,,,,,,,,,,,,,,,,,,,,,,,
2,174360, Note_on_c,1,90,112,,,,,,,,,,,,,,,,,,,,,,,,,,,,
2,174479, Note_on_c,1,90,0,,,,,,,,,,,,,,,,,,,,,,,,,,,,
2,174480, Note_on_c,1,86,112,,,,,,,,,,,,,,,,,,,,,,,,,,,,
2,174599, Note_on_c,1,86,0,,,,,,,,,,,,,,,,,,,,,,,,,,,,
2,174600, Note_on_c,1,89,112,,,,,,,,,,,,,,,,,,,,,,,,,,,,
2,174719, Note_on_c,1,89,0,,,,,,,,,,,,,,,,,,,,,,,,,,,,
2,174720, Note_on_c,1,85,112,,,,,,,,,,,,,,,,,,,,,,,,,,,,
2,174839, Note_on_c,1,85,0,,,,,,,,,,,,,,,,,,,,,,,,,,,,
2,174840, Note_on_c,1,88,112,,,,,,,,,,,,,,,,,,,,,,,,,,,,
2,174959, Note_on_c,1,88,0,,,,,,,,,,,,,,,,,,,,,,,,,,,,
2,174960, Note_on_c,1,84,112,,,,,,,,,,,,,,,,,,,,,,,,,,,,
2,175079, Note_on_c,1,84,0,,,,,,,,,,,,,,,,,,,,,,,,,,,,
2,175080, Note_on_c,1,87,112,,,,,,,,,,,,,,,,,,,,,,,,,,,,
2,175199, Note_on_c,1,87,0,,,,,,,,,,,,,,,,,,,,,,,,,,,,
2,175200, Note_on_c,1,83,112,,,,,,,,,,,,,,,,,,,,,,,,,,,,
2,175319, Note_on_c,1,83,0,,,,,,,,,,,,,,,,,,,,,,,,,,,,
2,175320, Note_on_c,1,86,112,,,,,,,,,,,,,,,,,,,,,,,,,,,,
2,175439, Note_on_c,1,86,0,,,,,,,,,,,,,,,,,,,,,,,,,,,,
2,175440, Note_on_c,1,82,112,,,,,,,,,,,,,,,,,,,,,,,,,,,,
2,175559, Note_on_c,1,82,0,,,,,,,,,,,,,,,,,,,,,,,,,,,,
2,175560, Note_on_c,1,85,112,,,,,,,,,,,,,,,,,,,,,,,,,,,,
2,175679, Note_on_c,1,85,0,,,,,,,,,,,,,,,,,,,,,,,,,,,,
2,175680, Note_on_c,1,81,112,,,,,,,,,,,,,,,,,,,,,,,,,,,,
2,175799, Note_on_c,1,81,0,,,,,,,,,,,,,,,,,,,,,,,,,,,,
2,175800, Note_on_c,1,84,112,,,,,,,,,,,,,,,,,,,,,,,,,,,,
2,175919, Note_on_c,1,84,0,,,,,,,,,,,,,,,,,,,,,,,,,,,,
2,175920, Note_on_c,1,80,112,,,,,,,,,,,,,,,,,,,,,,,,,,,,
2,176039, Note_on_c,1,80,0,,,,,,,,,,,,,,,,,,,,,,,,,,,,
2,176040, Note_on_c,1,83,112,,,,,,,,,,,,,,,,,,,,,,,,,,,,
2,176159, Note_on_c,1,83,0,,,,,,,,,,,,,,,,,,,,,,,,,,,,
2,176160, Note_on_c,1,79,112,,,,,,,,,,,,,,,,,,,,,,,,,,,,
2,176279, Note_on_c,1,79,0,,,,,,,,,,,,,,,,,,,,,,,,,,,,
2,176280, Note_on_c,1,82,112,,,,,,,,,,,,,,,,,,,,,,,,,,,,
2,176399, Note_on_c,1,82,0,,,,,,,,,,,,,,,,,,,,,,,,,,,,
2,176400, Note_on_c,1,78,112,,,,,,,,,,,,,,,,,,,,,,,,,,,,
2,176519, Note_on_c,1,78,0,,,,,,,,,,,,,,,,,,,,,,,,,,,,
2,176520, Note_on_c,1,81,112,,,,,,,,,,,,,,,,,,,,,,,,,,,,
2,176639, Note_on_c,1,81,0,,,,,,,,,,,,,,,,,,,,,,,,,,,,
2,176640, Note_on_c,1,77,112,,,,,,,,,,,,,,,,,,,,,,,,,,,,
2,176759, Note_on_c,1,77,0,,,,,,,,,,,,,,,,,,,,,,,,,,,,
2,176760, Note_on_c,1,80,112,,,,,,,,,,,,,,,,,,,,,,,,,,,,
2,176879, Note_on_c,1,80,0,,,,,,,,,,,,,,,,,,,,,,,,,,,,
2,176880, Note_on_c,1,76,112,,,,,,,,,,,,,,,,,,,,,,,,,,,,
2,176999, Note_on_c,1,76,0,,,,,,,,,,,,,,,,,,,,,,,,,,,,
2,177000, Note_on_c,1,79,112,,,,,,,,,,,,,,,,,,,,,,,,,,,,
2,177119, Note_on_c,1,79,0,,,,,,,,,,,,,,,,,,,,,,,,,,,,
2,177120, Note_on_c,1,75,112,,,,,,,,,,,,,,,,,,,,,,,,,,,,
2,177239, Note_on_c,1,75,0,,,,,,,,,,,,,,,,,,,,,,,,,,,,
2,177240, Note_on_c,1,78,112,,,,,,,,,,,,,,,,,,,,,,,,,,,,
2,177359, Note_on_c,1,78,0,,,,,,,,,,,,,,,,,,,,,,,,,,,,
2,177360, Note_on_c,1,74,112,,,,,,,,,,,,,,,,,,,,,,,,,,,,
2,177479, Note_on_c,1,74,0,,,,,,,,,,,,,,,,,,,,,,,,,,,,
2,177480, Note_on_c,1,77,112,,,,,,,,,,,,,,,,,,,,,,,,,,,,
2,177599, Note_on_c,1,77,0,,,,,,,,,,,,,,,,,,,,,,,,,,,,
2,177600, Note_on_c,1,73,112,,,,,,,,,,,,,,,,,,,,,,,,,,,,
2,177719, Note_on_c,1,73,0,,,,,,,,,,,,,,,,,,,,,,,,,,,,
2,177720, Note_on_c,1,76,112,,,,,,,,,,,,,,,,,,,,,,,,,,,,
2,177839, Note_on_c,1,76,0,,,,,,,,,,,,,,,,,,,,,,,,,,,,
2,177840, Note_on_c,1,72,112,,,,,,,,,,,,,,,,,,,,,,,,,,,,
2,177959, Note_on_c,1,72,0,,,,,,,,,,,,,,,,,,,,,,,,,,,,
2,177960, Note_on_c,1,75,112,,,,,,,,,,,,,,,,,,,,,,,,,,,,
2,178079, Note_on_c,1,75,0,,,,,,,,,,,,,,,,,,,,,,,,,,,,
2,178080, Note_on_c,1,71,112,,,,,,,,,,,,,,,,,,,,,,,,,,,,
2,178199, Note_on_c,1,71,0,,,,,,,,,,,,,,,,,,,,,,,,,,,,
2,178200, Note_on_c,1,74,112,,,,,,,,,,,,,,,,,,,,,,,,,,,,
2,178319, Note_on_c,1,74,0,,,,,,,,,,,,,,,,,,,,,,,,,,,,
2,178320, Note_on_c,1,70,112,,,,,,,,,,,,,,,,,,,,,,,,,,,,
2,178439, Note_on_c,1,70,0,,,,,,,,,,,,,,,,,,,,,,,,,,,,
2,178440, Note_on_c,1,73,112,,,,,,,,,,,,,,,,,,,,,,,,,,,,
2,178559, Note_on_c,1,73,0,,,,,,,,,,,,,,,,,,,,,,,,,,,,
2,178560, Note_on_c,1,69,112,,,,,,,,,,,,,,,,,,,,,,,,,,,,
2,178679, Note_on_c,1,69,0,,,,,,,,,,,,,,,,,,,,,,,,,,,,
2,178680, Note_on_c,1,72,112,,,,,,,,,,,,,,,,,,,,,,,,,,,,
2,178799, Note_on_c,1,72,0,,,,,,,,,,,,,,,,,,,,,,,,,,,,
2,178800, Note_on_c,1,68,112,,,,,,,,,,,,,,,,,,,,,,,,,,,,
2,178919, Note_on_c,1,68,0,,,,,,,,,,,,,,,,,,,,,,,,,,,,
2,178920, Note_on_c,1,71,112,,,,,,,,,,,,,,,,,,,,,,,,,,,,
2,179039, Note_on_c,1,71,0,,,,,,,,,,,,,,,,,,,,,,,,,,,,
2,179040, Note_on_c,1,70,112,,,,,,,,,,,,,,,,,,,,,,,,,,,,
2,179040, Note_on_c,1,67,112,,,,,,,,,,,,,,,,,,,,,,,,,,,,
2,179159, Note_on_c,1,70,0,,,,,,,,,,,,,,,,,,,,,,,,,,,,
2,179159, Note_on_c,1,67,0,,,,,,,,,,,,,,,,,,,,,,,,,,,,
2,184800, Note_on_c,1,64,112,,,,,,,,,,,,,,,,,,,,,,,,,,,,
2,184919, Note_on_c,1,64,0,,,,,,,,,,,,,,,,,,,,,,,,,,,,
2,184920, Note_on_c,1,63,112,,,,,,,,,,,,,,,,,,,,,,,,,,,,
2,185039, Note_on_c,1,63,0,,,,,,,,,,,,,,,,,,,,,,,,,,,,
2,185040, Note_on_c,1,65,112,,,,,,,,,,,,,,,,,,,,,,,,,,,,
2,185159, Note_on_c,1,65,0,,,,,,,,,,,,,,,,,,,,,,,,,,,,
2,185160, Note_on_c,1,63,112,,,,,,,,,,,,,,,,,,,,,,,,,,,,
2,185279, Note_on_c,1,63,0,,,,,,,,,,,,,,,,,,,,,,,,,,,,
2,185280, Note_on_c,1,66,112,,,,,,,,,,,,,,,,,,,,,,,,,,,,
2,185399, Note_on_c,1,66,0,,,,,,,,,,,,,,,,,,,,,,,,,,,,
2,185400, Note_on_c,1,63,112,,,,,,,,,,,,,,,,,,,,,,,,,,,,
2,185519, Note_on_c,1,63,0,,,,,,,,,,,,,,,,,,,,,,,,,,,,
2,185520, Note_on_c,1,67,112,,,,,,,,,,,,,,,,,,,,,,,,,,,,
2,185639, Note_on_c,1,67,0,,,,,,,,,,,,,,,,,,,,,,,,,,,,
2,185640, Note_on_c,1,63,112,,,,,,,,,,,,,,,,,,,,,,,,,,,,
2,185759, Note_on_c,1,63,0,,,,,,,,,,,,,,,,,,,,,,,,,,,,
2,185760, Note_on_c,1,68,112,,,,,,,,,,,,,,,,,,,,,,,,,,,,
2,185879, Note_on_c,1,68,0,,,,,,,,,,,,,,,,,,,,,,,,,,,,
2,185880, Note_on_c,1,63,112,,,,,,,,,,,,,,,,,,,,,,,,,,,,
2,185999, Note_on_c,1,63,0,,,,,,,,,,,,,,,,,,,,,,,,,,,,
2,186000, Note_on_c,1,69,112,,,,,,,,,,,,,,,,,,,,,,,,,,,,
2,186119, Note_on_c,1,69,0,,,,,,,,,,,,,,,,,,,,,,,,,,,,
2,186120, Note_on_c,1,63,112,,,,,,,,,,,,,,,,,,,,,,,,,,,,
2,186239, Note_on_c,1,63,0,,,,,,,,,,,,,,,,,,,,,,,,,,,,
2,186240, Note_on_c,1,70,112,,,,,,,,,,,,,,,,,,,,,,,,,,,,
2,186359, Note_on_c,1,70,0,,,,,,,,,,,,,,,,,,,,,,,,,,,,
2,186360, Note_on_c,1,63,112,,,,,,,,,,,,,,,,,,,,,,,,,,,,
2,186479, Note_on_c,1,63,0,,,,,,,,,,,,,,,,,,,,,,,,,,,,
2,186480, Note_on_c,1,71,112,,,,,,,,,,,,,,,,,,,,,,,,,,,,
2,186599, Note_on_c,1,71,0,,,,,,,,,,,,,,,,,,,,,,,,,,,,
2,187200, Note_on_c,1,61,80,,,,,,,,,,,,,,,,,,,,,,,,,,,,
2,187679, Note_on_c,1,61,0,,,,,,,,,,,,,,,,,,,,,,,,,,,,
2,187680, Note_on_c,1,72,80,,,,,,,,,,,,,,,,,,,,,,,,,,,,
2,187920, Note_on_c,1,60,80,,,,,,,,,,,,,,,,,,,,,,,,,,,,
2,188159, Note_on_c,1,60,0,,,,,,,,,,,,,,,,,,,,,,,,,,,,
2,188160, Note_on_c,1,63,80,,,,,,,,,,,,,,,,,,,,,,,,,,,,
2,188399, Note_on_c,1,63,0,,,,,,,,,,,,,,,,,,,,,,,,,,,,
2,188400, Note_on_c,1,68,80,,,,,,,,,,,,,,,,,,,,,,,,,,,,
2,188639, Note_on_c,1,68,0,,,,,,,,,,,,,,,,,,,,,,,,,,,,
2,188640, Note_on_c,1,63,80,,,,,,,,,,,,,,,,,,,,,,,,,,,,
2,188879, Note_on_c,1,63,0,,,,,,,,,,,,,,,,,,,,,,,,,,,,
2,188880, Note_on_c,1,60,80,,,,,,,,,,,,,,,,,,,,,,,,,,,,
2,189119, Note_on_c,1,60,0,,,,,,,,,,,,,,,,,,,,,,,,,,,,
2,189119, Note_on_c,1,72,0,,,,,,,,,,,,,,,,,,,,,,,,,,,,
2,189120, Note_on_c,1,72,80,,,,,,,,,,,,,,,,,,,,,,,,,,,,
2,189360, Note_on_c,1,60,80,,,,,,,,,,,,,,,,,,,,,,,,,,,,
2,189599, Note_on_c,1,60,0,,,,,,,,,,,,,,,,,,,,,,,,,,,,
2,189600, Note_on_c,1,63,80,,,,,,,,,,,,,,,,,,,,,,,,,,,,
2,189839, Note_on_c,1,63,0,,,,,,,,,,,,,,,,,,,,,,,,,,,,
2,189840, Note_on_c,1,68,80,,,,,,,,,,,,,,,,,,,,,,,,,,,,
2,190079, Note_on_c,1,68,0,,,,,,,,,,,,,,,,,,,,,,,,,,,,
2,190080, Note_on_c,1,63,80,,,,,,,,,,,,,,,,,,,,,,,,,,,,
2,190319, Note_on_c,1,63,0,,,,,,,,,,,,,,,,,,,,,,,,,,,,
2,190320, Note_on_c,1,60,80,,,,,,,,,,,,,,,,,,,,,,,,,,,,
2,190559, Note_on_c,1,60,0,,,,,,,,,,,,,,,,,,,,,,,,,,,,
2,190559, Note_on_c,1,72,0,,,,,,,,,,,,,,,,,,,,,,,,,,,,
2,190560, Note_on_c,1,72,80,,,,,,,,,,,,,,,,,,,,,,,,,,,,
2,190800, Note_on_c,1,60,80,,,,,,,,,,,,,,,,,,,,,,,,,,,,
2,191039, Note_on_c,1,60,0,,,,,,,,,,,,,,,,,,,,,,,,,,,,
2,191040, Note_on_c,1,64,80,,,,,,,,,,,,,,,,,,,,,,,,,,,,
2,191279, Note_on_c,1,64,0,,,,,,,,,,,,,,,,,,,,,,,,,,,,
2,191280, Note_on_c,1,70,80,,,,,,,,,,,,,,,,,,,,,,,,,,,,
2,191519, Note_on_c,1,70,0,,,,,,,,,,,,,,,,,,,,,,,,,,,,
2,191520, Note_on_c,1,64,80,,,,,,,,,,,,,,,,,,,,,,,,,,,,
2,191759, Note_on_c,1,64,0,,,,,,,,,,,,,,,,,,,,,,,,,,,,
2,191760, Note_on_c,1,60,80,,,,,,,,,,,,,,,,,,,,,,,,,,,,
2,191999, Note_on_c,1,60,0,,,,,,,,,,,,,,,,,,,,,,,,,,,,
2,191999, Note_on_c,1,72,0,,,,,,,,,,,,,,,,,,,,,,,,,,,,
2,192000, Note_on_c,1,72,80,,,,,,,,,,,,,,,,,,,,,,,,,,,,
2,192240, Note_on_c,1,60,80,,,,,,,,,,,,,,,,,,,,,,,,,,,,
2,192479, Note_on_c,1,60,0,,,,,,,,,,,,,,,,,,,,,,,,,,,,
2,192479, Note_on_c,1,72,0,,,,,,,,,,,,,,,,,,,,,,,,,,,,
2,192480, Note_on_c,1,64,80,,,,,,,,,,,,,,,,,,,,,,,,,,,,
2,192719, Note_on_c,1,64,0,,,,,,,,,,,,,,,,,,,,,,,,,,,,
2,192720, Note_on_c,1,70,80,,,,,,,,,,,,,,,,,,,,,,,,,,,,
2,192959, Note_on_c,1,70,0,,,,,,,,,,,,,,,,,,,,,,,,,,,,
2,192960, Note_on_c,1,64,80,,,,,,,,,,,,,,,,,,,,,,,,,,,,
2,192960, Note_on_c,1,72,80,,,,,,,,,,,,,,,,,,,,,,,,,,,,
2,193199, Note_on_c,1,64,0,,,,,,,,,,,,,,,,,,,,,,,,,,,,
2,193200, Note_on_c,1,60,80,,,,,,,,,,,,,,,,,,,,,,,,,,,,
2,193439, Note_on_c,1,60,0,,,,,,,,,,,,,,,,,,,,,,,,,,,,
2,193439, Note_on_c,1,72,0,,,,,,,,,,,,,,,,,,,,,,,,,,,,
2,193440, Note_on_c,1,72,80,,,,,,,,,,,,,,,,,,,,,,,,,,,,
2,193680, Note_on_c,1,63,80,,,,,,,,,,,,,,,,,,,,,,,,,,,,
2,193919, Note_on_c,1,63,0,,,,,,,,,,,,,,,,,,,,,,,,,,,,
2,193920, Note_on_c,1,65,80,,,,,,,,,,,,,,,,,,,,,,,,,,,,
2,194159, Note_on_c,1,65,0,,,,,,,,,,,,,,,,,,,,,,,,,,,,
2,194160, Note_on_c,1,69,80,,,,,,,,,,,,,,,,,,,,,,,,,,,,
2,194399, Note_on_c,1,69,0,,,,,,,,,,,,,,,,,,,,,,,,,,,,
2,194399, Note_on_c,1,72,0,,,,,,,,,,,,,,,,,,,,,,,,,,,,
2,194400, Note_on_c,1,65,80,,,,,,,,,,,,,,,,,,,,,,,,,,,,
2,194400, Note_on_c,1,72,80,,,,,,,,,,,,,,,,,,,,,,,,,,,,
2,194639, Note_on_c,1,65,0,,,,,,,,,,,,,,,,,,,,,,,,,,,,
2,194640, Note_on_c,1,63,80,,,,,,,,,,,,,,,,,,,,,,,,,,,,
2,194879, Note_on_c,1,63,0,,,,,,,,,,,,,,,,,,,,,,,,,,,,
2,194879, Note_on_c,1,72,0,,,,,,,,,,,,,,,,,,,,,,,,,,,,
2,194880, Note_on_c,1,73,80,,,,,,,,,,,,,,,,,,,,,,,,,,,,
2,195120, Note_on_c,1,63,80,,,,,,,,,,,,,,,,,,,,,,,,,,,,
2,195359, Note_on_c,1,63,0,,,,,,,,,,,,,,,,,,,,,,,,,,,,
2,195360, Note_on_c,1,65,80,,,,,,,,,,,,,,,,,,,,,,,,,,,,
2,195599, Note_on_c,1,65,0,,,,,,,,,,,,,,,,,,,,,,,,,,,,
2,195600, Note_on_c,1,69,80,,,,,,,,,,,,,,,,,,,,,,,,,,,,
2,195839, Note_on_c,1,69,0,,,,,,,,,,,,,,,,,,,,,,,,,,,,
2,195839, Note_on_c,1,73,0,,,,,,,,,,,,,,,,,,,,,,,,,,,,
2,195840, Note_on_c,1,65,80,,,,,,,,,,,,,,,,,,,,,,,,,,,,
2,195840, Note_on_c,1,72,80,,,,,,,,,,,,,,,,,,,,,,,,,,,,
2,196079, Note_on_c,1,65,0,,,,,,,,,,,,,,,,,,,,,,,,,,,,
2,196080, Note_on_c,1,63,80,,,,,,,,,,,,,,,,,,,,,,,,,,,,
2,196319, Note_on_c,1,63,0,,,,,,,,,,,,,,,,,,,,,,,,,,,,
2,196319, Note_on_c,1,72,0,,,,,,,,,,,,,,,,,,,,,,,,,,,,
2,196320, Note_on_c,1,72,80,,,,,,,,,,,,,,,,,,,,,,,,,,,,
2,196560, Note_on_c,1,56,80,,,,,,,,,,,,,,,,,,,,,,,,,,,,
2,196799, Note_on_c,1,56,0,,,,,,,,,,,,,,,,,,,,,,,,,,,,
2,196800, Note_on_c,1,62,80,,,,,,,,,,,,,,,,,,,,,,,,,,,,
2,197039, Note_on_c,1,62,0,,,,,,,,,,,,,,,,,,,,,,,,,,,,
2,197040, Note_on_c,1,65,80,,,,,,,,,,,,,,,,,,,,,,,,,,,,
2,197279, Note_on_c,1,65,0,,,,,,,,,,,,,,,,,,,,,,,,,,,,
2,197280, Note_on_c,1,62,80,,,,,,,,,,,,,,,,,,,,,,,,,,,,
2,197519, Note_on_c,1,62,0,,,,,,,,,,,,,,,,,,,,,,,,,,,,
2,197520, Note_on_c,1,56,80,,,,,,,,,,,,,,,,,,,,,,,,,,,,
2,197759, Note_on_c,1,56,0,,,,,,,,,,,,,,,,,,,,,,,,,,,,
2,197759, Note_on_c,1,72,0,,,,,,,,,,,,,,,,,,,,,,,,,,,,
2,197760, Note_on_c,1,65,80,,,,,,,,,,,,,,,,,,,,,,,,,,,,
2,198000, Note_on_c,1,56,80,,,,,,,,,,,,,,,,,,,,,,,,,,,,
2,198239, Note_on_c,1,56,0,,,,,,,,,,,,,,,,,,,,,,,,,,,,
2,198239, Note_on_c,1,65,0,,,,,,,,,,,,,,,,,,,,,,,,,,,,
2,198240, Note_on_c,1,58,80,,,,,,,,,,,,,,,,,,,,,,,,,,,,
2,198479, Note_on_c,1,58,0,,,,,,,,,,,,,,,,,,,,,,,,,,,,
2,198480, Note_on_c,1,62,80,,,,,,,,,,,,,,,,,,,,,,,,,,,,
2,198719, Note_on_c,1,62,0,,,,,,,,,,,,,,,,,,,,,,,,,,,,
2,198720, Note_on_c,1,58,80,,,,,,,,,,,,,,,,,,,,,,,,,,,,
2,198720, Note_on_c,1,65,80,,,,,,,,,,,,,,,,,,,,,,,,,,,,
2,198959, Note_on_c,1,58,0,,,,,,,,,,,,,,,,,,,,,,,,,,,,
2,198960, Note_on_c,1,56,80,,,,,,,,,,,,,,,,,,,,,,,,,,,,
2,199199, Note_on_c,1,56,0,,,,,,,,,,,,,,,,,,,,,,,,,,,,
2,199199, Note_on_c,1,65,0,,,,,,,,,,,,,,,,,,,,,,,,,,,,
2,199200, Note_on_c,1,65,80,,,,,,,,,,,,,,,,,,,,,,,,,,,,
2,199440, Note_on_c,1,58,80,,,,,,,,,,,,,,,,,,,,,,,,,,,,
2,199679, Note_on_c,1,58,0,,,,,,,,,,,,,,,,,,,,,,,,,,,,
2,199679, Note_on_c,1,65,0,,,,,,,,,,,,,,,,,,,,,,,,,,,,
2,199680, Note_on_c,1,61,80,,,,,,,,,,,,,,,,,,,,,,,,,,,,
2,199680, Note_on_c,1,67,80,,,,,,,,,,,,,,,,,,,,,,,,,,,,
2,199919, Note_on_c,1,61,0,,,,,,,,,,,,,,,,,,,,,,,,,,,,
2,199920, Note_on_c,1,63,80,,,,,,,,,,,,,,,,,,,,,,,,,,,,
2,200159, Note_on_c,1,63,0,,,,,,,,,,,,,,,,,,,,,,,,,,,,
2,200159, Note_on_c,1,67,0,,,,,,,,,,,,,,,,,,,,,,,,,,,,
2,200160, Note_on_c,1,61,80,,,,,,,,,,,,,,,,,,,,,,,,,,,,
2,200160, Note_on_c,1,68,80,,,,,,,,,,,,,,,,,,,,,,,,,,,,
2,200399, Note_on_c,1,61,0,,,,,,,,,,,,,,,,,,,,,,,,,,,,
2,200400, Note_on_c,1,58,80,,,,,,,,,,,,,,,,,,,,,,,,,,,,
2,200639, Note_on_c,1,58,0,,,,,,,,,,,,,,,,,,,,,,,,,,,,
2,200639, Note_on_c,1,68,0,,,,,,,,,,,,,,,,,,,,,,,,,,,,
2,200640, Note_on_c,1,72,80,,,,,,,,,,,,,,,,,,,,,,,,,,,,
2,200880, Note_on_c,1,61,80,,,,,,,,,,,,,,,,,,,,,,,,,,,,
2,201119, Note_on_c,1,61,0,,,,,,,,,,,,,,,,,,,,,,,,,,,,
2,201120, Note_on_c,1,63,80,,,,,,,,,,,,,,,,,,,,,,,,,,,,
2,201359, Note_on_c,1,63,0,,,,,,,,,,,,,,,,,,,,,,,,,,,,
2,201360, Note_on_c,1,67,80,,,,,,,,,,,,,,,,,,,,,,,,,,,,
2,201599, Note_on_c,1,67,0,,,,,,,,,,,,,,,,,,,,,,,,,,,,
2,201599, Note_on_c,1,72,0,,,,,,,,,,,,,,,,,,,,,,,,,,,,
2,201600, Note_on_c,1,63,80,,,,,,,,,,,,,,,,,,,,,,,,,,,,
2,201600, Note_on_c,1,70,80,,,,,,,,,,,,,,,,,,,,,,,,,,,,
2,201839, Note_on_c,1,63,0,,,,,,,,,,,,,,,,,,,,,,,,,,,,
2,201840, Note_on_c,1,61,80,,,,,,,,,,,,,,,,,,,,,,,,,,,,
2,202079, Note_on_c,1,61,0,,,,,,,,,,,,,,,,,,,,,,,,,,,,
2,202079, Note_on_c,1,70,0,,,,,,,,,,,,,,,,,,,,,,,,,,,,
2,202080, Note_on_c,1,68,80,,,,,,,,,,,,,,,,,,,,,,,,,,,,
2,202320, Note_on_c,1,60,80,,,,,,,,,,,,,,,,,,,,,,,,,,,,
2,202559, Note_on_c,1,60,0,,,,,,,,,,,,,,,,,,,,,,,,,,,,
2,202560, Note_on_c,1,63,80,,,,,,,,,,,,,,,,,,,,,,,,,,,,
2,202799, Note_on_c,1,63,0,,,,,,,,,,,,,,,,,,,,,,,,,,,,
2,202800, Note_on_c,1,65,80,,,,,,,,,,,,,,,,,,,,,,,,,,,,
2,203039, Note_on_c,1,65,0,,,,,,,,,,,,,,,,,,,,,,,,,,,,
2,203040, Note_on_c,1,63,80,,,,,,,,,,,,,,,,,,,,,,,,,,,,
2,203279, Note_on_c,1,63,0,,,,,,,,,,,,,,,,,,,,,,,,,,,,
2,203280, Note_on_c,1,60,80,,,,,,,,,,,,,,,,,,,,,,,,,,,,
2,203519, Note_on_c,1,60,0,,,,,,,,,,,,,,,,,,,,,,,,,,,,
2,203519, Note_on_c,1,68,0,,,,,,,,,,,,,,,,,,,,,,,,,,,,
2,203520, Note_on_c,1,56,80,,,,,,,,,,,,,,,,,,,,,,,,,,,,
2,203759, Note_on_c,1,56,0,,,,,,,,,,,,,,,,,,,,,,,,,,,,
2,203760, Note_on_c,1,60,80,,,,,,,,,,,,,,,,,,,,,,,,,,,,
2,203999, Note_on_c,1,60,0,,,,,,,,,,,,,,,,,,,,,,,,,,,,
2,204000, Note_on_c,1,63,80,,,,,,,,,,,,,,,,,,,,,,,,,,,,
2,204239, Note_on_c,1,63,0,,,,,,,,,,,,,,,,,,,,,,,,,,,,
2,204240, Note_on_c,1,65,80,,,,,,,,,,,,,,,,,,,,,,,,,,,,
2,204479, Note_on_c,1,65,0,,,,,,,,,,,,,,,,,,,,,,,,,,,,
2,204480, Note_on_c,1,63,80,,,,,,,,,,,,,,,,,,,,,,,,,,,,
2,204719, Note_on_c,1,63,0,,,,,,,,,,,,,,,,,,,,,,,,,,,,
2,204720, Note_on_c,1,68,80,,,,,,,,,,,,,,,,,,,,,,,,,,,,
2,204959, Note_on_c,1,68,0,,,,,,,,,,,,,,,,,,,,,,,,,,,,
2,204960, Note_on_c,1,72,80,,,,,,,,,,,,,,,,,,,,,,,,,,,,
2,205200, Note_on_c,1,62,80,,,,,,,,,,,,,,,,,,,,,,,,,,,,
2,205439, Note_on_c,1,62,0,,,,,,,,,,,,,,,,,,,,,,,,,,,,
2,205440, Note_on_c,1,63,80,,,,,,,,,,,,,,,,,,,,,,,,,,,,
2,205679, Note_on_c,1,63,0,,,,,,,,,,,,,,,,,,,,,,,,,,,,
2,205680, Note_on_c,1,68,80,,,,,,,,,,,,,,,,,,,,,,,,,,,,
2,205919, Note_on_c,1,68,0,,,,,,,,,,,,,,,,,,,,,,,,,,,,
2,205920, Note_on_c,1,63,80,,,,,,,,,,,,,,,,,,,,,,,,,,,,
2,206159, Note_on_c,1,63,0,,,,,,,,,,,,,,,,,,,,,,,,,,,,
2,206160, Note_on_c,1,62,80,,,,,,,,,,,,,,,,,,,,,,,,,,,,
2,206399, Note_on_c,1,62,0,,,,,,,,,,,,,,,,,,,,,,,,,,,,
2,206399, Note_on_c,1,72,0,,,,,,,,,,,,,,,,,,,,,,,,,,,,
2,206400, Note_on_c,1,72,80,,,,,,,,,,,,,,,,,,,,,,,,,,,,
2,206640, Note_on_c,1,60,80,,,,,,,,,,,,,,,,,,,,,,,,,,,,
2,206879, Note_on_c,1,60,0,,,,,,,,,,,,,,,,,,,,,,,,,,,,
2,206880, Note_on_c,1,63,80,,,,,,,,,,,,,,,,,,,,,,,,,,,,
2,207119, Note_on_c,1,63,0,,,,,,,,,,,,,,,,,,,,,,,,,,,,
2,207120, Note_on_c,1,68,80,,,,,,,,,,,,,,,,,,,,,,,,,,,,
2,207359, Note_on_c,1,68,0,,,,,,,,,,,,,,,,,,,,,,,,,,,,
2,207360, Note_on_c,1,63,80,,,,,,,,,,,,,,,,,,,,,,,,,,,,
2,207599, Note_on_c,1,63,0,,,,,,,,,,,,,,,,,,,,,,,,,,,,
2,207600, Note_on_c,1,60,80,,,,,,,,,,,,,,,,,,,,,,,,,,,,
2,207839, Note_on_c,1,60,0,,,,,,,,,,,,,,,,,,,,,,,,,,,,
2,207839, Note_on_c,1,72,0,,,,,,,,,,,,,,,,,,,,,,,,,,,,
2,207840, Note_on_c,1,72,80,,,,,,,,,,,,,,,,,,,,,,,,,,,,
2,208080, Note_on_c,1,60,80,,,,,,,,,,,,,,,,,,,,,,,,,,,,
2,208319, Note_on_c,1,60,0,,,,,,,,,,,,,,,,,,,,,,,,,,,,
2,208320, Note_on_c,1,64,80,,,,,,,,,,,,,,,,,,,,,,,,,,,,
2,208559, Note_on_c,1,64,0,,,,,,,,,,,,,,,,,,,,,,,,,,,,
2,208560, Note_on_c,1,70,80,,,,,,,,,,,,,,,,,,,,,,,,,,,,
2,208799, Note_on_c,1,70,0,,,,,,,,,,,,,,,,,,,,,,,,,,,,
2,208800, Note_on_c,1,64,80,,,,,,,,,,,,,,,,,,,,,,,,,,,,
2,209039, Note_on_c,1,64,0,,,,,,,,,,,,,,,,,,,,,,,,,,,,
2,209040, Note_on_c,1,60,80,,,,,,,,,,,,,,,,,,,,,,,,,,,,
2,209279, Note_on_c,1,60,0,,,,,,,,,,,,,,,,,,,,,,,,,,,,
2,209279, Note_on_c,1,72,0,,,,,,,,,,,,,,,,,,,,,,,,,,,,
2,209280, Note_on_c,1,72,80,,,,,,,,,,,,,,,,,,,,,,,,,,,,
2,209520, Note_on_c,1,60,80,,,,,,,,,,,,,,,,,,,,,,,,,,,,
2,209759, Note_on_c,1,60,0,,,,,,,,,,,,,,,,,,,,,,,,,,,,
2,209759, Note_on_c,1,72,0,,,,,,,,,,,,,,,,,,,,,,,,,,,,
2,209760, Note_on_c,1,64,80,,,,,,,,,,,,,,,,,,,,,,,,,,,,
2,209999, Note_on_c,1,64,0,,,,,,,,,,,,,,,,,,,,,,,,,,,,
2,210000, Note_on_c,1,70,80,,,,,,,,,,,,,,,,,,,,,,,,,,,,
2,210239, Note_on_c,1,70,0,,,,,,,,,,,,,,,,,,,,,,,,,,,,
2,210240, Note_on_c,1,64,80,,,,,,,,,,,,,,,,,,,,,,,,,,,,
2,210240, Note_on_c,1,72,80,,,,,,,,,,,,,,,,,,,,,,,,,,,,
2,210479, Note_on_c,1,64,0,,,,,,,,,,,,,,,,,,,,,,,,,,,,
2,210480, Note_on_c,1,60,80,,,,,,,,,,,,,,,,,,,,,,,,,,,,
2,210719, Note_on_c,1,60,0,,,,,,,,,,,,,,,,,,,,,,,,,,,,
2,210719, Note_on_c,1,72,0,,,,,,,,,,,,,,,,,,,,,,,,,,,,
2,210720, Note_on_c,1,72,80,,,,,,,,,,,,,,,,,,,,,,,,,,,,
2,210960, Note_on_c,1,60,80,,,,,,,,,,,,,,,,,,,,,,,,,,,,
2,211199, Note_on_c,1,60,0,,,,,,,,,,,,,,,,,,,,,,,,,,,,
2,211200, Note_on_c,1,65,80,,,,,,,,,,,,,,,,,,,,,,,,,,,,
2,211439, Note_on_c,1,65,0,,,,,,,,,,,,,,,,,,,,,,,,,,,,
2,211440, Note_on_c,1,69,80,,,,,,,,,,,,,,,,,,,,,,,,,,,,
2,211679, Note_on_c,1,69,0,,,,,,,,,,,,,,,,,,,,,,,,,,,,
2,211679, Note_on_c,1,72,0,,,,,,,,,,,,,,,,,,,,,,,,,,,,
2,211680, Note_on_c,1,65,80,,,,,,,,,,,,,,,,,,,,,,,,,,,,
2,211680, Note_on_c,1,72,80,,,,,,,,,,,,,,,,,,,,,,,,,,,,
2,211919, Note_on_c,1,65,0,,,,,,,,,,,,,,,,,,,,,,,,,,,,
2,211920, Note_on_c,1,60,80,,,,,,,,,,,,,,,,,,,,,,,,,,,,
2,212159, Note_on_c,1,60,0,,,,,,,,,,,,,,,,,,,,,,,,,,,,
2,212159, Note_on_c,1,72,0,,,,,,,,,,,,,,,,,,,,,,,,,,,,
2,212160, Note_on_c,1,73,80,,,,,,,,,,,,,,,,,,,,,,,,,,,,
2,212400, Note_on_c,1,60,80,,,,,,,,,,,,,,,,,,,,,,,,,,,,
2,212639, Note_on_c,1,60,0,,,,,,,,,,,,,,,,,,,,,,,,,,,,
2,212640, Note_on_c,1,66,80,,,,,,,,,,,,,,,,,,,,,,,,,,,,
2,212879, Note_on_c,1,66,0,,,,,,,,,,,,,,,,,,,,,,,,,,,,
2,212880, Note_on_c,1,69,80,,,,,,,,,,,,,,,,,,,,,,,,,,,,
2,213119, Note_on_c,1,69,0,,,,,,,,,,,,,,,,,,,,,,,,,,,,
2,213119, Note_on_c,1,73,0,,,,,,,,,,,,,,,,,,,,,,,,,,,,
2,213120, Note_on_c,1,66,80,,,,,,,,,,,,,,,,,,,,,,,,,,,,
2,213120, Note_on_c,1,72,80,,,,,,,,,,,,,,,,,,,,,,,,,,,,
2,213359, Note_on_c,1,66,0,,,,,,,,,,,,,,,,,,,,,,,,,,,,
2,213360, Note_on_c,1,60,80,,,,,,,,,,,,,,,,,,,,,,,,,,,,
2,213599, Note_on_c,1,60,0,,,,,,,,,,,,,,,,,,,,,,,,,,,,
2,213599, Note_on_c,1,72,0,,,,,,,,,,,,,,,,,,,,,,,,,,,,
2,213600, Note_on_c,1,77,80,,,,,,,,,,,,,,,,,,,,,,,,,,,,
2,213840, Note_on_c,1,65,80,,,,,,,,,,,,,,,,,,,,,,,,,,,,
2,214079, Note_on_c,1,65,0,,,,,,,,,,,,,,,,,,,,,,,,,,,,
2,214080, Note_on_c,1,68,80,,,,,,,,,,,,,,,,,,,,,,,,,,,,
2,214319, Note_on_c,1,68,0,,,,,,,,,,,,,,,,,,,,,,,,,,,,
2,214320, Note_on_c,1,72,80,,,,,,,,,,,,,,,,,,,,,,,,,,,,
2,214559, Note_on_c,1,72,0,,,,,,,,,,,,,,,,,,,,,,,,,,,,
2,214560, Note_on_c,1,68,80,,,,,,,,,,,,,,,,,,,,,,,,,,,,
2,214799, Note_on_c,1,68,0,,,,,,,,,,,,,,,,,,,,,,,,,,,,
2,214800, Note_on_c,1,65,80,,,,,,,,,,,,,,,,,,,,,,,,,,,,
2,215039, Note_on_c,1,65,0,,,,,,,,,,,,,,,,,,,,,,,,,,,,
2,215280, Note_on_c,1,65,80,,,,,,,,,,,,,,,,,,,,,,,,,,,,
2,215519, Note_on_c,1,65,0,,,,,,,,,,,,,,,,,,,,,,,,,,,,
2,215520, Note_on_c,1,68,80,,,,,,,,,,,,,,,,,,,,,,,,,,,,
2,215759, Note_on_c,1,68,0,,,,,,,,,,,,,,,,,,,,,,,,,,,,
2,215760, Note_on_c,1,71,80,,,,,,,,,,,,,,,,,,,,,,,,,,,,
2,215999, Note_on_c,1,71,0,,,,,,,,,,,,,,,,,,,,,,,,,,,,
2,216000, Note_on_c,1,68,80,,,,,,,,,,,,,,,,,,,,,,,,,,,,
2,216239, Note_on_c,1,68,0,,,,,,,,,,,,,,,,,,,,,,,,,,,,
2,216240, Note_on_c,1,65,80,,,,,,,,,,,,,,,,,,,,,,,,,,,,
2,216479, Note_on_c,1,65,0,,,,,,,,,,,,,,,,,,,,,,,,,,,,
2,216479, Note_on_c,1,77,0,,,,,,,,,,,,,,,,,,,,,,,,,,,,
2,216720, Note_on_c,1,58,80,,,,,,,,,,,,,,,,,,,,,,,,,,,,
2,216959, Note_on_c,1,58,0,,,,,,,,,,,,,,,,,,,,,,,,,,,,
2,216960, Note_on_c,1,64,80,,,,,,,,,,,,,,,,,,,,,,,,,,,,
2,217199, Note_on_c,1,64,0,,,,,,,,,,,,,,,,,,,,,,,,,,,,
2,217200, Note_on_c,1,68,80,,,,,,,,,,,,,,,,,,,,,,,,,,,,
2,217439, Note_on_c,1,68,0,,,,,,,,,,,,,,,,,,,,,,,,,,,,
2,217440, Note_on_c,1,64,80,,,,,,,,,,,,,,,,,,,,,,,,,,,,
2,217679, Note_on_c,1,64,0,,,,,,,,,,,,,,,,,,,,,,,,,,,,
2,217680, Note_on_c,1,58,80,,,,,,,,,,,,,,,,,,,,,,,,,,,,
2,217919, Note_on_c,1,58,0,,,,,,,,,,,,,,,,,,,,,,,,,,,,
2,217920, Note_on_c,1,70,80,,,,,,,,,,,,,,,,,,,,,,,,,,,,
2,218160, Note_on_c,1,58,80,,,,,,,,,,,,,,,,,,,,,,,,,,,,
2,218399, Note_on_c,1,58,0,,,,,,,,,,,,,,,,,,,,,,,,,,,,
2,218400, Note_on_c,1,64,80,,,,,,,,,,,,,,,,,,,,,,,,,,,,
2,218639, Note_on_c,1,64,0,,,,,,,,,,,,,,,,,,,,,,,,,,,,
2,218640, Note_on_c,1,67,80,,,,,,,,,,,,,,,,,,,,,,,,,,,,
2,218879, Note_on_c,1,67,0,,,,,,,,,,,,,,,,,,,,,,,,,,,,
2,218880, Note_on_c,1,64,80,,,,,,,,,,,,,,,,,,,,,,,,,,,,
2,219119, Note_on_c,1,64,0,,,,,,,,,,,,,,,,,,,,,,,,,,,,
2,219120, Note_on_c,1,58,80,,,,,,,,,,,,,,,,,,,,,,,,,,,,
2,219359, Note_on_c,1,58,0,,,,,,,,,,,,,,,,,,,,,,,,,,,,
2,219359, Note_on_c,1,70,0,,,,,,,,,,,,,,,,,,,,,,,,,,,,
2,219360, Note_on_c,1,75,80,,,,,,,,,,,,,,,,,,,,,,,,,,,,
2,219600, Note_on_c,1,63,80,,,,,,,,,,,,,,,,,,,,,,,,,,,,
2,219839, Note_on_c,1,63,0,,,,,,,,,,,,,,,,,,,,,,,,,,,,
2,219840, Note_on_c,1,66,80,,,,,,,,,,,,,,,,,,,,,,,,,,,,
2,220079, Note_on_c,1,66,0,,,,,,,,,,,,,,,,,,,,,,,,,,,,
2,220080, Note_on_c,1,70,80,,,,,,,,,,,,,,,,,,,,,,,,,,,,
2,220319, Note_on_c,1,70,0,,,,,,,,,,,,,,,,,,,,,,,,,,,,
2,220320, Note_on_c,1,66,80,,,,,,,,,,,,,,,,,,,,,,,,,,,,
2,220559, Note_on_c,1,66,0,,,,,,,,,,,,,,,,,,,,,,,,,,,,
2,220560, Note_on_c,1,63,80,,,,,,,,,,,,,,,,,,,,,,,,,,,,
2,220799, Note_on_c,1,63,0,,,,,,,,,,,,,,,,,,,,,,,,,,,,
2,221040, Note_on_c,1,63,80,,,,,,,,,,,,,,,,,,,,,,,,,,,,
2,221279, Note_on_c,1,63,0,,,,,,,,,,,,,,,,,,,,,,,,,,,,
2,221280, Note_on_c,1,66,80,,,,,,,,,,,,,,,,,,,,,,,,,,,,
2,221519, Note_on_c,1,66,0,,,,,,,,,,,,,,,,,,,,,,,,,,,,
2,221520, Note_on_c,1,69,80,,,,,,,,,,,,,,,,,,,,,,,,,,,,
2,221759, Note_on_c,1,69,0,,,,,,,,,,,,,,,,,,,,,,,,,,,,
2,221760, Note_on_c,1,66,80,,,,,,,,,,,,,,,,,,,,,,,,,,,,
2,221999, Note_on_c,1,66,0,,,,,,,,,,,,,,,,,,,,,,,,,,,,
2,222000, Note_on_c,1,63,80,,,,,,,,,,,,,,,,,,,,,,,,,,,,
2,222239, Note_on_c,1,63,0,,,,,,,,,,,,,,,,,,,,,,,,,,,,
2,222239, Note_on_c,1,75,0,,,,,,,,,,,,,,,,,,,,,,,,,,,,
2,222480, Note_on_c,1,56,80,,,,,,,,,,,,,,,,,,,,,,,,,,,,
2,222719, Note_on_c,1,56,0,,,,,,,,,,,,,,,,,,,,,,,,,,,,
2,222720, Note_on_c,1,62,80,,,,,,,,,,,,,,,,,,,,,,,,,,,,
2,222959, Note_on_c,1,62,0,,,,,,,,,,,,,,,,,,,,,,,,,,,,
2,222960, Note_on_c,1,66,80,,,,,,,,,,,,,,,,,,,,,,,,,,,,
2,223199, Note_on_c,1,66,0,,,,,,,,,,,,,,,,,,,,,,,,,,,,
2,223200, Note_on_c,1,62,80,,,,,,,,,,,,,,,,,,,,,,,,,,,,
2,223439, Note_on_c,1,62,0,,,,,,,,,,,,,,,,,,,,,,,,,,,,
2,223440, Note_on_c,1,56,80,,,,,,,,,,,,,,,,,,,,,,,,,,,,
2,223679, Note_on_c,1,56,0,,,,,,,,,,,,,,,,,,,,,,,,,,,,
2,223680, Note_on_c,1,68,80,,,,,,,,,,,,,,,,,,,,,,,,,,,,
2,223920, Note_on_c,1,56,80,,,,,,,,,,,,,,,,,,,,,,,,,,,,
2,224159, Note_on_c,1,56,0,,,,,,,,,,,,,,,,,,,,,,,,,,,,
2,224160, Note_on_c,1,62,80,,,,,,,,,,,,,,,,,,,,,,,,,,,,
2,224399, Note_on_c,1,62,0,,,,,,,,,,,,,,,,,,,,,,,,,,,,
2,224400, Note_on_c,1,66,80,,,,,,,,,,,,,,,,,,,,,,,,,,,,
2,224639, Note_on_c,1,66,0,,,,,,,,,,,,,,,,,,,,,,,,,,,,
2,224640, Note_on_c,1,62,80,,,,,,,,,,,,,,,,,,,,,,,,,,,,
2,224879, Note_on_c,1,62,0,,,,,,,,,,,,,,,,,,,,,,,,,,,,
2,224880, Note_on_c,1,56,80,,,,,,,,,,,,,,,,,,,,,,,,,,,,
2,225119, Note_on_c,1,56,0,,,,,,,,,,,,,,,,,,,,,,,,,,,,
2,225119, Note_on_c,1,68,0,,,,,,,,,,,,,,,,,,,,,,,,,,,,
2,225120, Note_on_c,1,73,80,,,,,,,,,,,,,,,,,,,,,,,,,,,,
2,225360, Note_on_c,1,61,80,,,,,,,,,,,,,,,,,,,,,,,,,,,,
2,225599, Note_on_c,1,61,0,,,,,,,,,,,,,,,,,,,,,,,,,,,,
2,225600, Note_on_c,1,65,80,,,,,,,,,,,,,,,,,,,,,,,,,,,,
2,225839, Note_on_c,1,65,0,,,,,,,,,,,,,,,,,,,,,,,,,,,,
2,225840, Note_on_c,1,68,80,,,,,,,,,,,,,,,,,,,,,,,,,,,,
2,226079, Note_on_c,1,68,0,,,,,,,,,,,,,,,,,,,,,,,,,,,,
2,226080, Note_on_c,1,65,80,,,,,,,,,,,,,,,,,,,,,,,,,,,,
2,226319, Note_on_c,1,65,0,,,,,,,,,,,,,,,,,,,,,,,,,,,,
2,226320, Note_on_c,1,61,80,,,,,,,,,,,,,,,,,,,,,,,,,,,,
2,226559, Note_on_c,1,61,0,,,,,,,,,,,,,,,,,,,,,,,,,,,,
2,226559, Note_on_c,1,73,0,,,,,,,,,,,,,,,,,,,,,,,,,,,,
2,226560, Note_on_c,1,73,80,,,,,,,,,,,,,,,,,,,,,,,,,,,,
2,226800, Note_on_c,1,61,80,,,,,,,,,,,,,,,,,,,,,,,,,,,,
2,227039, Note_on_c,1,61,0,,,,,,,,,,,,,,,,,,,,,,,,,,,,
2,227040, Note_on_c,1,64,80,,,,,,,,,,,,,,,,,,,,,,,,,,,,
2,227279, Note_on_c,1,64,0,,,,,,,,,,,,,,,,,,,,,,,,,,,,
2,227280, Note_on_c,1,68,80,,,,,,,,,,,,,,,,,,,,,,,,,,,,
2,227519, Note_on_c,1,68,0,,,,,,,,,,,,,,,,,,,,,,,,,,,,
2,227519, Note_on_c,1,73,0,,,,,,,,,,,,,,,,,,,,,,,,,,,,
2,227520, Note_on_c,1,64,80,,,,,,,,,,,,,,,,,,,,,,,,,,,,
2,227520, Note_on_c,1,72,80,,,,,,,,,,,,,,,,,,,,,,,,,,,,
2,227759, Note_on_c,1,64,0,,,,,,,,,,,,,,,,,,,,,,,,,,,,
2,227760, Note_on_c,1,61,80,,,,,,,,,,,,,,,,,,,,,,,,,,,,
2,227999, Note_on_c,1,61,0,,,,,,,,,,,,,,,,,,,,,,,,,,,,
2,227999, Note_on_c,1,72,0,,,,,,,,,,,,,,,,,,,,,,,,,,,,
2,228000, Note_on_c,1,72,80,,,,,,,,,,,,,,,,,,,,,,,,,,,,
2,228240, Note_on_c,1,61,80,,,,,,,,,,,,,,,,,,,,,,,,,,,,
2,228479, Note_on_c,1,61,0,,,,,,,,,,,,,,,,,,,,,,,,,,,,
2,228480, Note_on_c,1,64,80,,,,,,,,,,,,,,,,,,,,,,,,,,,,
2,228719, Note_on_c,1,64,0,,,,,,,,,,,,,,,,,,,,,,,,,,,,
2,228720, Note_on_c,1,67,80,,,,,,,,,,,,,,,,,,,,,,,,,,,,
2,228959, Note_on_c,1,67,0,,,,,,,,,,,,,,,,,,,,,,,,,,,,
2,228959, Note_on_c,1,72,0,,,,,,,,,,,,,,,,,,,,,,,,,,,,
2,228960, Note_on_c,1,64,80,,,,,,,,,,,,,,,,,,,,,,,,,,,,
2,228960, Note_on_c,1,70,80,,,,,,,,,,,,,,,,,,,,,,,,,,,,
2,229199, Note_on_c,1,64,0,,,,,,,,,,,,,,,,,,,,,,,,,,,,
2,229200, Note_on_c,1,61,80,,,,,,,,,,,,,,,,,,,,,,,,,,,,
2,229439, Note_on_c,1,61,0,,,,,,,,,,,,,,,,,,,,,,,,,,,,
2,229439, Note_on_c,1,70,0,,,,,,,,,,,,,,,,,,,,,,,,,,,,
2,229440, Note_on_c,1,72,80,,,,,,,,,,,,,,,,,,,,,,,,,,,,
2,229680, Note_on_c,1,61,80,,,,,,,,,,,,,,,,,,,,,,,,,,,,
2,229919, Note_on_c,1,61,0,,,,,,,,,,,,,,,,,,,,,,,,,,,,
2,229920, Note_on_c,1,63,80,,,,,,,,,,,,,,,,,,,,,,,,,,,,
2,230159, Note_on_c,1,63,0,,,,,,,,,,,,,,,,,,,,,,,,,,,,
2,230160, Note_on_c,1,67,80,,,,,,,,,,,,,,,,,,,,,,,,,,,,
2,230399, Note_on_c,1,67,0,,,,,,,,,,,,,,,,,,,,,,,,,,,,
2,230399, Note_on_c,1,72,0,,,,,,,,,,,,,,,,,,,,,,,,,,,,
2,230400, Note_on_c,1,63,80,,,,,,,,,,,,,,,,,,,,,,,,,,,,
2,230400, Note_on_c,1,70,80,,,,,,,,,,,,,,,,,,,,,,,,,,,,
2,230639, Note_on_c,1,63,0,,,,,,,,,,,,,,,,,,,,,,,,,,,,
2,230640, Note_on_c,1,61,80,,,,,,,,,,,,,,,,,,,,,,,,,,,,
2,230879, Note_on_c,1,61,0,,,,,,,,,,,,,,,,,,,,,,,,,,,,
2,230879, Note_on_c,1,70,0,,,,,,,,,,,,,,,,,,,,,,,,,,,,
2,230880, Note_on_c,1,60,80,,,,,,,,,,,,,,,,,,,,,,,,,,,,
2,230940, Note_on_c,1,63,80,,,,,,,,,,,,,,,,,,,,,,,,,,,,
2,231000, Note_on_c,1,68,80,,,,,,,,,,,,,,,,,,,,,,,,,,,,
2,231359, Note_on_c,1,60,0,,,,,,,,,,,,,,,,,,,,,,,,,,,,
2,231419, Note_on_c,1,63,0,,,,,,,,,,,,,,,,,,,,,,,,,,,,
2,231479, Note_on_c,1,68,0,,,,,,,,,,,,,,,,,,,,,,,,,,,,
2,232080, Note_on_c,1,60,80,,,,,,,,,,,,,,,,,,,,,,,,,,,,
2,232319, Note_on_c,1,60,0,,,,,,,,,,,,,,,,,,,,,,,,,,,,
2,232320, Note_on_c,1,63,80,,,,,,,,,,,,,,,,,,,,,,,,,,,,
2,232559, Note_on_c,1,63,0,,,,,,,,,,,,,,,,,,,,,,,,,,,,
2,232560, Note_on_c,1,68,80,,,,,,,,,,,,,,,,,,,,,,,,,,,,
2,232799, Note_on_c,1,68,0,,,,,,,,,,,,,,,,,,,,,,,,,,,,
2,232800, Note_on_c,1,72,80,,,,,,,,,,,,,,,,,,,,,,,,,,,,
2,233039, Note_on_c,1,72,0,,,,,,,,,,,,,,,,,,,,,,,,,,,,
2,233040, Note_on_c,1,75,80,,,,,,,,,,,,,,,,,,,,,,,,,,,,
2,233279, Note_on_c,1,75,0,,,,,,,,,,,,,,,,,,,,,,,,,,,,
2,233280, Note_on_c,1,80,80,,,,,,,,,,,,,,,,,,,,,,,,,,,,
2,233519, Note_on_c,1,80,0,,,,,,,,,,,,,,,,,,,,,,,,,,,,
2,233520, Note_on_c,1,82,80,,,,,,,,,,,,,,,,,,,,,,,,,,,,
2,233759, Note_on_c,1,82,0,,,,,,,,,,,,,,,,,,,,,,,,,,,,
2,233760, Note_on_c,1,72,80,,,,,,,,,,,,,,,,,,,,,,,,,,,,
2,233760, Note_on_c,1,68,80,,,,,,,,,,,,,,,,,,,,,,,,,,,,
2,233760, Note_on_c,1,84,80,,,,,,,,,,,,,,,,,,,,,,,,,,,,
2,233760, Note_on_c,1,75,80,,,,,,,,,,,,,,,,,,,,,,,,,,,,
2,234719, Note_on_c,1,72,0,,,,,,,,,,,,,,,,,,,,,,,,,,,,
2,234719, Note_on_c,1,68,0,,,,,,,,,,,,,,,,,,,,,,,,,,,,
2,234719, Note_on_c,1,84,0,,,,,,,,,,,,,,,,,,,,,,,,,,,,
2,234719, Note_on_c,1,75,0,,,,,,,,,,,,,,,,,,,,,,,,,,,,
2,234720, Note_on_c,1,70,80,,,,,,,,,,,,,,,,,,,,,,,,,,,,
2,234720, Note_on_c,1,67,80,,,,,,,,,,,,,,,,,,,,,,,,,,,,
2,234720, Note_on_c,1,84,80,,,,,,,,,,,,,,,,,,,,,,,,,,,,
2,234720, Note_on_c,1,76,80,,,,,,,,,,,,,,,,,,,,,,,,,,,,
2,235199, Note_on_c,1,70,0,,,,,,,,,,,,,,,,,,,,,,,,,,,,
2,235199, Note_on_c,1,67,0,,,,,,,,,,,,,,,,,,,,,,,,,,,,
2,235199, Note_on_c,1,84,0,,,,,,,,,,,,,,,,,,,,,,,,,,,,
2,235199, Note_on_c,1,76,0,,,,,,,,,,,,,,,,,,,,,,,,,,,,
2,235200, Note_on_c,1,69,80,,,,,,,,,,,,,,,,,,,,,,,,,,,,
2,235200, Note_on_c,1,65,80,,,,,,,,,,,,,,,,,,,,,,,,,,,,
2,235200, Note_on_c,1,84,80,,,,,,,,,,,,,,,,,,,,,,,,,,,,
2,235200, Note_on_c,1,77,80,,,,,,,,,,,,,,,,,,,,,,,,,,,,
2,235679, Note_on_c,1,69,0,,,,,,,,,,,,,,,,,,,,,,,,,,,,
2,235679, Note_on_c,1,65,0,,,,,,,,,,,,,,,,,,,,,,,,,,,,
2,235679, Note_on_c,1,84,0,,,,,,,,,,,,,,,,,,,,,,,,,,,,
2,235679, Note_on_c,1,77,0,,,,,,,,,,,,,,,,,,,,,,,,,,,,
2,235680, Note_on_c,1,69,80,,,,,,,,,,,,,,,,,,,,,,,,,,,,
2,235680, Note_on_c,1,63,80,,,,,,,,,,,,,,,,,,,,,,,,,,,,
2,235680, Note_on_c,1,85,80,,,,,,,,,,,,,,,,,,,,,,,,,,,,
2,235680, Note_on_c,1,78,80,,,,,,,,,,,,,,,,,,,,,,,,,,,,
2,236159, Note_on_c,1,69,0,,,,,,,,,,,,,,,,,,,,,,,,,,,,
2,236159, Note_on_c,1,63,0,,,,,,,,,,,,,,,,,,,,,,,,,,,,
2,236159, Note_on_c,1,85,0,,,,,,,,,,,,,,,,,,,,,,,,,,,,
2,236159, Note_on_c,1,78,0,,,,,,,,,,,,,,,,,,,,,,,,,,,,
2,236160, Note_on_c,1,69,80,,,,,,,,,,,,,,,,,,,,,,,,,,,,
2,236160, Note_on_c,1,63,80,,,,,,,,,,,,,,,,,,,,,,,,,,,,
2,236160, Note_on_c,1,84,80,,,,,,,,,,,,,,,,,,,,,,,,,,,,
2,236160, Note_on_c,1,78,80,,,,,,,,,,,,,,,,,,,,,,,,,,,,
2,236639, Note_on_c,1,69,0,,,,,,,,,,,,,,,,,,,,,,,,,,,,
2,236639, Note_on_c,1,63,0,,,,,,,,,,,,,,,,,,,,,,,,,,,,
2,236639, Note_on_c,1,84,0,,,,,,,,,,,,,,,,,,,,,,,,,,,,
2,236639, Note_on_c,1,78,0,,,,,,,,,,,,,,,,,,,,,,,,,,,,
2,236640, Note_on_c,1,71,80,,,,,,,,,,,,,,,,,,,,,,,,,,,,
2,236640, Note_on_c,1,62,80,,,,,,,,,,,,,,,,,,,,,,,,,,,,
2,236640, Note_on_c,1,89,80,,,,,,,,,,,,,,,,,,,,,,,,,,,,
2,236640, Note_on_c,1,80,80,,,,,,,,,,,,,,,,,,,,,,,,,,,,
2,237119, Note_on_c,1,71,0,,,,,,,,,,,,,,,,,,,,,,,,,,,,
2,237119, Note_on_c,1,62,0,,,,,,,,,,,,,,,,,,,,,,,,,,,,
2,237119, Note_on_c,1,89,0,,,,,,,,,,,,,,,,,,,,,,,,,,,,
2,237119, Note_on_c,1,80,0,,,,,,,,,,,,,,,,,,,,,,,,,,,,
2,239520, Note_on_c,1,70,80,,,,,,,,,,,,,,,,,,,,,,,,,,,,
2,239520, Note_on_c,1,66,80,,,,,,,,,,,,,,,,,,,,,,,,,,,,
2,239520, Note_on_c,1,82,80,,,,,,,,,,,,,,,,,,,,,,,,,,,,
2,239520, Note_on_c,1,73,80,,,,,,,,,,,,,,,,,,,,,,,,,,,,
2,240479, Note_on_c,1,70,0,,,,,,,,,,,,,,,,,,,,,,,,,,,,
2,240479, Note_on_c,1,66,0,,,,,,,,,,,,,,,,,,,,,,,,,,,,
2,240479, Note_on_c,1,82,0,,,,,,,,,,,,,,,,,,,,,,,,,,,,
2,240479, Note_on_c,1,73,0,,,,,,,,,,,,,,,,,,,,,,,,,,,,
2,240480, Note_on_c,1,68,80,,,,,,,,,,,,,,,,,,,,,,,,,,,,
2,240480, Note_on_c,1,64,80,,,,,,,,,,,,,,,,,,,,,,,,,,,,
2,240480, Note_on_c,1,82,80,,,,,,,,,,,,,,,,,,,,,,,,,,,,
2,240480, Note_on_c,1,74,80,,,,,,,,,,,,,,,,,,,,,,,,,,,,
2,240959, Note_on_c,1,68,0,,,,,,,,,,,,,,,,,,,,,,,,,,,,
2,240959, Note_on_c,1,64,0,,,,,,,,,,,,,,,,,,,,,,,,,,,,
2,240959, Note_on_c,1,82,0,,,,,,,,,,,,,,,,,,,,,,,,,,,,
2,240959, Note_on_c,1,74,0,,,,,,,,,,,,,,,,,,,,,,,,,,,,
2,240960, Note_on_c,1,67,80,,,,,,,,,,,,,,,,,,,,,,,,,,,,
2,240960, Note_on_c,1,63,80,,,,,,,,,,,,,,,,,,,,,,,,,,,,
2,240960, Note_on_c,1,82,80,,,,,,,,,,,,,,,,,,,,,,,,,,,,
2,240960, Note_on_c,1,75,80,,,,,,,,,,,,,,,,,,,,,,,,,,,,
2,241439, Note_on_c,1,67,0,,,,,,,,,,,,,,,,,,,,,,,,,,,,
2,241439, Note_on_c,1,63,0,,,,,,,,,,,,,,,,,,,,,,,,,,,,
2,241439, Note_on_c,1,82,0,,,,,,,,,,,,,,,,,,,,,,,,,,,,
2,241439, Note_on_c,1,75,0,,,,,,,,,,,,,,,,,,,,,,,,,,,,
2,241440, Note_on_c,1,67,80,,,,,,,,,,,,,,,,,,,,,,,,,,,,
2,241440, Note_on_c,1,61,80,,,,,,,,,,,,,,,,,,,,,,,,,,,,
2,241440, Note_on_c,1,84,80,,,,,,,,,,,,,,,,,,,,,,,,,,,,
2,241440, Note_on_c,1,76,80,,,,,,,,,,,,,,,,,,,,,,,,,,,,
2,241919, Note_on_c,1,67,0,,,,,,,,,,,,,,,,,,,,,,,,,,,,
2,241919, Note_on_c,1,61,0,,,,,,,,,,,,,,,,,,,,,,,,,,,,
2,241919, Note_on_c,1,84,0,,,,,,,,,,,,,,,,,,,,,,,,,,,,
2,241919, Note_on_c,1,76,0,,,,,,,,,,,,,,,,,,,,,,,,,,,,
2,241920, Note_on_c,1,67,80,,,,,,,,,,,,,,,,,,,,,,,,,,,,
2,241920, Note_on_c,1,61,80,,,,,,,,,,,,,,,,,,,,,,,,,,,,
2,241920, Note_on_c,1,82,80,,,,,,,,,,,,,,,,,,,,,,,,,,,,
2,241920, Note_on_c,1,76,80,,,,,,,,,,,,,,,,,,,,,,,,,,,,
2,242399, Note_on_c,1,67,0,,,,,,,,,,,,,,,,,,,,,,,,,,,,
2,242399, Note_on_c,1,61,0,,,,,,,,,,,,,,,,,,,,,,,,,,,,
2,242399, Note_on_c,1,82,0,,,,,,,,,,,,,,,,,,,,,,,,,,,,
2,242399, Note_on_c,1,76,0,,,,,,,,,,,,,,,,,,,,,,,,,,,,
2,242400, Note_on_c,1,69,80,,,,,,,,,,,,,,,,,,,,,,,,,,,,
2,242400, Note_on_c,1,60,80,,,,,,,,,,,,,,,,,,,,,,,,,,,,
2,242400, Note_on_c,1,87,80,,,,,,,,,,,,,,,,,,,,,,,,,,,,
2,242400, Note_on_c,1,78,80,,,,,,,,,,,,,,,,,,,,,,,,,,,,
2,242879, Note_on_c,1,69,0,,,,,,,,,,,,,,,,,,,,,,,,,,,,
2,242879, Note_on_c,1,60,0,,,,,,,,,,,,,,,,,,,,,,,,,,,,
2,242879, Note_on_c,1,87,0,,,,,,,,,,,,,,,,,,,,,,,,,,,,
2,242879, Note_on_c,1,78,0,,,,,,,,,,,,,,,,,,,,,,,,,,,,
2,245280, Note_on_c,1,61,80,,,,,,,,,,,,,,,,,,,,,,,,,,,,
2,245340, Note_on_c,1,64,80,,,,,,,,,,,,,,,,,,,,,,,,,,,,
2,245400, Note_on_c,1,73,80,,,,,,,,,,,,,,,,,,,,,,,,,,,,
2,248159, Note_on_c,1,61,0,,,,,,,,,,,,,,,,,,,,,,,,,,,,
2,248160, Note_on_c,1,61,80,,,,,,,,,,,,,,,,,,,,,,,,,,,,
2,248160, Note_on_c,1,65,80,,,,,,,,,,,,,,,,,,,,,,,,,,,,
2,248160, Note_on_c,1,70,80,,,,,,,,,,,,,,,,,,,,,,,,,,,,
2,248219, Note_on_c,1,64,0,,,,,,,,,,,,,,,,,,,,,,,,,,,,
2,248279, Note_on_c,1,73,0,,,,,,,,,,,,,,,,,,,,,,,,,,,,
2,250079, Note_on_c,1,65,0,,,,,,,,,,,,,,,,,,,,,,,,,,,,
2,250080, Note_on_c,1,63,80,,,,,,,,,,,,,,,,,,,,,,,,,,,,
2,250559, Note_on_c,1,70,0,,,,,,,,,,,,,,,,,,,,,,,,,,,,
2,250560, Note_on_c,1,72,80,,,,,,,,,,,,,,,,,,,,,,,,,,,,
2,251039, Note_on_c,1,61,0,,,,,,,,,,,,,,,,,,,,,,,,,,,,
2,251039, Note_on_c,1,63,0,,,,,,,,,,,,,,,,,,,,,,,,,,,,
2,251039, Note_on_c,1,72,0,,,,,,,,,,,,,,,,,,,,,,,,,,,,
2,251040, Note_on_c,1,60,80,,,,,,,,,,,,,,,,,,,,,,,,,,,,
2,251040, Note_on_c,1,68,80,,,,,,,,,,,,,,,,,,,,,,,,,,,,
2,252959, Note_on_c,1,60,0,,,,,,,,,,,,,,,,,,,,,,,,,,,,
2,252960, Note_on_c,1,59,80,,,,,,,,,,,,,,,,,,,,,,,,,,,,
2,253439, Note_on_c,1,59,0,,,,,,,,,,,,,,,,,,,,,,,,,,,,
2,253440, Note_on_c,1,60,80,,,,,,,,,,,,,,,,,,,,,,,,,,,,
2,253919, Note_on_c,1,60,0,,,,,,,,,,,,,,,,,,,,,,,,,,,,
2,253919, Note_on_c,1,68,0,,,,,,,,,,,,,,,,,,,,,,,,,,,,
2,253920, Note_on_c,1,63,80,,,,,,,,,,,,,,,,,,,,,,,,,,,,
2,253920, Note_on_c,1,68,80,,,,,,,,,,,,,,,,,,,,,,,,,,,,
2,255359, Note_on_c,1,63,0,,,,,,,,,,,,,,,,,,,,,,,,,,,,
2,255360, Note_on_c,1,61,80,,,,,,,,,,,,,,,,,,,,,,,,,,,,
2,256319, Note_on_c,1,61,0,,,,,,,,,,,,,,,,,,,,,,,,,,,,
2,256320, Note_on_c,1,60,80,,,,,,,,,,,,,,,,,,,,,,,,,,,,
2,256799, Note_on_c,1,60,0,,,,,,,,,,,,,,,,,,,,,,,,,,,,
2,256799, Note_on_c,1,68,0,,,,,,,,,,,,,,,,,,,,,,,,,,,,
2,256800, Note_on_c,1,68,80,,,,,,,,,,,,,,,,,,,,,,,,,,,,
2,256800, Note_on_c,1,60,80,,,,,,,,,,,,,,,,,,,,,,,,,,,,
2,259679, Note_on_c,1,68,0,,,,,,,,,,,,,,,,,,,,,,,,,,,,
2,259679, Note_on_c,1,60,0,,,,,,,,,,,,,,,,,,,,,,,,,,,,
2,259680, End_track,,,,,,,,,,,,,,,,,,,,,,,,,,,,,,,
3,0, Start_track,,,,,,,,,,,,,,,,,,,,,,,,,,,,,,,
3,0, Key_signature,-4," ""major""",,,,,,,,,,,,,,,,,,,,,,,,,,,,,
3,0, Note_on_c,1,51,64,,,,,,,,,,,,,,,,,,,,,,,,,,,,
3,479, Note_on_c,1,51,0,,,,,,,,,,,,,,,,,,,,,,,,,,,,
3,480, Control_c,1,64,127,,,,,,,,,,,,,,,,,,,,,,,,,,,,
3,480, Note_on_c,1,44,64,,,,,,,,,,,,,,,,,,,,,,,,,,,,
3,959, Note_on_c,1,44,0,,,,,,,,,,,,,,,,,,,,,,,,,,,,
3,3359, Control_c,1,64,0,,,,,,,,,,,,,,,,,,,,,,,,,,,,
3,3360, Control_c,1,64,127,,,,,,,,,,,,,,,,,,,,,,,,,,,,
3,3360, Note_on_c,1,43,64,,,,,,,,,,,,,,,,,,,,,,,,,,,,
3,3839, Note_on_c,1,43,0,,,,,,,,,,,,,,,,,,,,,,,,,,,,
3,5760, Note_on_c,1,60,64,,,,,,,,,,,,,,,,,,,,,,,,,,,,
3,6239, Control_c,1,64,0,,,,,,,,,,,,,,,,,,,,,,,,,,,,
3,6239, Note_on_c,1,60,0,,,,,,,,,,,,,,,,,,,,,,,,,,,,
3,6240, Control_c,1,64,127,,,,,,,,,,,,,,,,,,,,,,,,,,,,
3,6240, Note_on_c,1,41,64,,,,,,,,,,,,,,,,,,,,,,,,,,,,
3,6719, Note_on_c,1,41,0,,,,,,,,,,,,,,,,,,,,,,,,,,,,
3,7200, Note_on_c,1,60,64,,,,,,,,,,,,,,,,,,,,,,,,,,,,
3,7679, Note_on_c,1,60,0,,,,,,,,,,,,,,,,,,,,,,,,,,,,
3,8640, Note_on_c,1,60,64,,,,,,,,,,,,,,,,,,,,,,,,,,,,
3,9119, Control_c,1,64,0,,,,,,,,,,,,,,,,,,,,,,,,,,,,
3,9119, Note_on_c,1,60,0,,,,,,,,,,,,,,,,,,,,,,,,,,,,
3,9120, Control_c,1,64,127,,,,,,,,,,,,,,,,,,,,,,,,,,,,
3,9120, Note_on_c,1,34,64,,,,,,,,,,,,,,,,,,,,,,,,,,,,
3,9599, Note_on_c,1,34,0,,,,,,,,,,,,,,,,,,,,,,,,,,,,
3,10560, Note_on_c,1,53,64,,,,,,,,,,,,,,,,,,,,,,,,,,,,
3,11039, Note_on_c,1,53,0,,,,,,,,,,,,,,,,,,,,,,,,,,,,
3,11520, Note_on_c,1,53,64,,,,,,,,,,,,,,,,,,,,,,,,,,,,
3,11999, Control_c,1,64,0,,,,,,,,,,,,,,,,,,,,,,,,,,,,
3,11999, Note_on_c,1,53,0,,,,,,,,,,,,,,,,,,,,,,,,,,,,
3,12000, Control_c,1,64,127,,,,,,,,,,,,,,,,,,,,,,,,,,,,
3,12000, Note_on_c,1,39,64,,,,,,,,,,,,,,,,,,,,,,,,,,,,
3,12000, Note_on_c,1,53,64,,,,,,,,,,,,,,,,,,,,,,,,,,,,
3,12479, Note_on_c,1,39,0,,,,,,,,,,,,,,,,,,,,,,,,,,,,
3,12479, Note_on_c,1,53,0,,,,,,,,,,,,,,,,,,,,,,,,,,,,
3,12480, Note_on_c,1,55,64,,,,,,,,,,,,,,,,,,,,,,,,,,,,
3,12959, Note_on_c,1,55,0,,,,,,,,,,,,,,,,,,,,,,,,,,,,
3,12960, Note_on_c,1,56,64,,,,,,,,,,,,,,,,,,,,,,,,,,,,
3,13439, Note_on_c,1,56,0,,,,,,,,,,,,,,,,,,,,,,,,,,,,
3,13440, Note_on_c,1,51,64,,,,,,,,,,,,,,,,,,,,,,,,,,,,
3,13440, Note_on_c,1,60,64,,,,,,,,,,,,,,,,,,,,,,,,,,,,
3,13919, Note_on_c,1,51,0,,,,,,,,,,,,,,,,,,,,,,,,,,,,
3,14399, Note_on_c,1,60,0,,,,,,,,,,,,,,,,,,,,,,,,,,,,
3,14400, Note_on_c,1,58,64,,,,,,,,,,,,,,,,,,,,,,,,,,,,
3,14879, Control_c,1,64,0,,,,,,,,,,,,,,,,,,,,,,,,,,,,
3,14879, Note_on_c,1,58,0,,,,,,,,,,,,,,,,,,,,,,,,,,,,
3,14880, Control_c,1,64,127,,,,,,,,,,,,,,,,,,,,,,,,,,,,
3,14880, Note_on_c,1,44,64,,,,,,,,,,,,,,,,,,,,,,,,,,,,
3,14880, Note_on_c,1,56,64,,,,,,,,,,,,,,,,,,,,,,,,,,,,
3,15359, Note_on_c,1,44,0,,,,,,,,,,,,,,,,,,,,,,,,,,,,
3,16319, Note_on_c,1,56,0,,,,,,,,,,,,,,,,,,,,,,,,,,,,
3,16320, Note_on_c,1,32,64,,,,,,,,,,,,,,,,,,,,,,,,,,,,
3,16799, Note_on_c,1,32,0,,,,,,,,,,,,,,,,,,,,,,,,,,,,
3,17280, Note_on_c,1,51,64,,,,,,,,,,,,,,,,,,,,,,,,,,,,
3,17759, Control_c,1,64,0,,,,,,,,,,,,,,,,,,,,,,,,,,,,
3,17759, Note_on_c,1,51,0,,,,,,,,,,,,,,,,,,,,,,,,,,,,
3,17760, Control_c,1,64,127,,,,,,,,,,,,,,,,,,,,,,,,,,,,
3,17760, Note_on_c,1,44,64,,,,,,,,,,,,,,,,,,,,,,,,,,,,
3,18239, Note_on_c,1,44,0,,,,,,,,,,,,,,,,,,,,,,,,,,,,
3,20639, Control_c,1,64,0,,,,,,,,,,,,,,,,,,,,,,,,,,,,
3,20640, Control_c,1,64,127,,,,,,,,,,,,,,,,,,,,,,,,,,,,
3,20640, Note_on_c,1,43,64,,,,,,,,,,,,,,,,,,,,,,,,,,,,
3,21119, Note_on_c,1,43,0,,,,,,,,,,,,,,,,,,,,,,,,,,,,
3,22080, Note_on_c,1,42,64,,,,,,,,,,,,,,,,,,,,,,,,,,,,
3,22559, Note_on_c,1,42,0,,,,,,,,,,,,,,,,,,,,,,,,,,,,
3,23040, Note_on_c,1,60,64,,,,,,,,,,,,,,,,,,,,,,,,,,,,
3,23519, Control_c,1,64,0,,,,,,,,,,,,,,,,,,,,,,,,,,,,
3,23519, Note_on_c,1,60,0,,,,,,,,,,,,,,,,,,,,,,,,,,,,
3,23520, Control_c,1,64,127,,,,,,,,,,,,,,,,,,,,,,,,,,,,
3,23520, Note_on_c,1,41,64,,,,,,,,,,,,,,,,,,,,,,,,,,,,
3,23999, Note_on_c,1,41,0,,,,,,,,,,,,,,,,,,,,,,,,,,,,
3,24480, Note_on_c,1,60,64,,,,,,,,,,,,,,,,,,,,,,,,,,,,
3,24959, Note_on_c,1,60,0,,,,,,,,,,,,,,,,,,,,,,,,,,,,
3,24960, Note_on_c,1,53,64,,,,,,,,,,,,,,,,,,,,,,,,,,,,
3,25020, Note_on_c,1,57,64,,,,,,,,,,,,,,,,,,,,,,,,,,,,
3,25080, Note_on_c,1,61,64,,,,,,,,,,,,,,,,,,,,,,,,,,,,
3,25439, Note_on_c,1,53,0,,,,,,,,,,,,,,,,,,,,,,,,,,,,
3,25499, Note_on_c,1,57,0,,,,,,,,,,,,,,,,,,,,,,,,,,,,
3,25559, Note_on_c,1,61,0,,,,,,,,,,,,,,,,,,,,,,,,,,,,
3,25920, Note_on_c,1,60,64,,,,,,,,,,,,,,,,,,,,,,,,,,,,
3,26399, Control_c,1,64,0,,,,,,,,,,,,,,,,,,,,,,,,,,,,
3,26399, Note_on_c,1,60,0,,,,,,,,,,,,,,,,,,,,,,,,,,,,
3,26400, Control_c,1,64,127,,,,,,,,,,,,,,,,,,,,,,,,,,,,
3,26400, Note_on_c,1,46,64,,,,,,,,,,,,,,,,,,,,,,,,,,,,
3,26460, Note_on_c,1,65,64,,,,,,,,,,,,,,,,,,,,,,,,,,,,
3,27839, Note_on_c,1,46,0,,,,,,,,,,,,,,,,,,,,,,,,,,,,
3,27840, Note_on_c,1,34,64,,,,,,,,,,,,,,,,,,,,,,,,,,,,
3,27899, Note_on_c,1,65,0,,,,,,,,,,,,,,,,,,,,,,,,,,,,
3,28799, Note_on_c,1,34,0,,,,,,,,,,,,,,,,,,,,,,,,,,,,
3,28800, Note_on_c,1,53,64,,,,,,,,,,,,,,,,,,,,,,,,,,,,
3,29279, Control_c,1,64,0,,,,,,,,,,,,,,,,,,,,,,,,,,,,
3,29279, Note_on_c,1,53,0,,,,,,,,,,,,,,,,,,,,,,,,,,,,
3,29280, Control_c,1,64,127,,,,,,,,,,,,,,,,,,,,,,,,,,,,
3,29280, Note_on_c,1,39,64,,,,,,,,,,,,,,,,,,,,,,,,,,,,
3,29280, Note_on_c,1,53,64,,,,,,,,,,,,,,,,,,,,,,,,,,,,
3,29759, Note_on_c,1,39,0,,,,,,,,,,,,,,,,,,,,,,,,,,,,
3,29759, Note_on_c,1,53,0,,,,,,,,,,,,,,,,,,,,,,,,,,,,
3,29760, Note_on_c,1,55,64,,,,,,,,,,,,,,,,,,,,,,,,,,,,
3,30239, Note_on_c,1,55,0,,,,,,,,,,,,,,,,,,,,,,,,,,,,
3,30240, Note_on_c,1,56,64,,,,,,,,,,,,,,,,,,,,,,,,,,,,
3,30719, Note_on_c,1,56,0,,,,,,,,,,,,,,,,,,,,,,,,,,,,
3,30720, Note_on_c,1,51,64,,,,,,,,,,,,,,,,,,,,,,,,,,,,
3,30720, Note_on_c,1,60,64,,,,,,,,,,,,,,,,,,,,,,,,,,,,
3,31199, Note_on_c,1,51,0,,,,,,,,,,,,,,,,,,,,,,,,,,,,
3,31679, Note_on_c,1,60,0,,,,,,,,,,,,,,,,,,,,,,,,,,,,
3,31680, Note_on_c,1,58,64,,,,,,,,,,,,,,,,,,,,,,,,,,,,
3,32159, Control_c,1,64,0,,,,,,,,,,,,,,,,,,,,,,,,,,,,
3,32159, Note_on_c,1,58,0,,,,,,,,,,,,,,,,,,,,,,,,,,,,
3,32160, Control_c,1,64,127,,,,,,,,,,,,,,,,,,,,,,,,,,,,
3,32160, Note_on_c,1,56,64,,,,,,,,,,,,,,,,,,,,,,,,,,,,
3,32160, Note_on_c,1,44,64,,,,,,,,,,,,,,,,,,,,,,,,,,,,
3,32639, Note_on_c,1,56,0,,,,,,,,,,,,,,,,,,,,,,,,,,,,
3,32639, Note_on_c,1,44,0,,,,,,,,,,,,,,,,,,,,,,,,,,,,
3,33600, Note_on_c,1,32,64,,,,,,,,,,,,,,,,,,,,,,,,,,,,
3,34079, Note_on_c,1,32,0,,,,,,,,,,,,,,,,,,,,,,,,,,,,
3,35039, Control_c,1,64,0,,,,,,,,,,,,,,,,,,,,,,,,,,,,
3,35040, Control_c,1,64,127,,,,,,,,,,,,,,,,,,,,,,,,,,,,
3,35040, Note_on_c,1,40,64,,,,,,,,,,,,,,,,,,,,,,,,,,,,
3,35100, Note_on_c,1,56,64,,,,,,,,,,,,,,,,,,,,,,,,,,,,
3,35999, Note_on_c,1,40,0,,,,,,,,,,,,,,,,,,,,,,,,,,,,
3,36059, Note_on_c,1,56,0,,,,,,,,,,,,,,,,,,,,,,,,,,,,
3,36480, Note_on_c,1,52,64,,,,,,,,,,,,,,,,,,,,,,,,,,,,
3,36480, Note_on_c,1,37,64,,,,,,,,,,,,,,,,,,,,,,,,,,,,
3,36959, Note_on_c,1,52,0,,,,,,,,,,,,,,,,,,,,,,,,,,,,
3,36959, Note_on_c,1,37,0,,,,,,,,,,,,,,,,,,,,,,,,,,,,
3,37919, Control_c,1,64,0,,,,,,,,,,,,,,,,,,,,,,,,,,,,
3,37920, Control_c,1,64,127,,,,,,,,,,,,,,,,,,,,,,,,,,,,
3,37920, Note_on_c,1,51,64,,,,,,,,,,,,,,,,,,,,,,,,,,,,
3,37920, Note_on_c,1,44,64,,,,,,,,,,,,,,,,,,,,,,,,,,,,
3,38399, Note_on_c,1,51,0,,,,,,,,,,,,,,,,,,,,,,,,,,,,
3,38399, Note_on_c,1,44,0,,,,,,,,,,,,,,,,,,,,,,,,,,,,
3,39360, Note_on_c,1,32,64,,,,,,,,,,,,,,,,,,,,,,,,,,,,
3,39839, Note_on_c,1,32,0,,,,,,,,,,,,,,,,,,,,,,,,,,,,
3,40799, Control_c,1,64,0,,,,,,,,,,,,,,,,,,,,,,,,,,,,
3,40800, Control_c,1,64,127,,,,,,,,,,,,,,,,,,,,,,,,,,,,
3,40800, Note_on_c,1,60,64,,,,,,,,,,,,,,,,,,,,,,,,,,,,
3,40800, Note_on_c,1,44,64,,,,,,,,,,,,,,,,,,,,,,,,,,,,
3,41279, Note_on_c,1,44,0,,,,,,,,,,,,,,,,,,,,,,,,,,,,
3,42239, Note_on_c,1,60,0,,,,,,,,,,,,,,,,,,,,,,,,,,,,
3,42240, Note_on_c,1,56,64,,,,,,,,,,,,,,,,,,,,,,,,,,,,
3,42240, Note_on_c,1,41,64,,,,,,,,,,,,,,,,,,,,,,,,,,,,
3,42719, Note_on_c,1,56,0,,,,,,,,,,,,,,,,,,,,,,,,,,,,
3,42719, Note_on_c,1,41,0,,,,,,,,,,,,,,,,,,,,,,,,,,,,
3,43679, Control_c,1,64,0,,,,,,,,,,,,,,,,,,,,,,,,,,,,
3,43680, Control_c,1,64,127,,,,,,,,,,,,,,,,,,,,,,,,,,,,
3,43680, Note_on_c,1,55,64,,,,,,,,,,,,,,,,,,,,,,,,,,,,
3,43680, Note_on_c,1,36,64,,,,,,,,,,,,,,,,,,,,,,,,,,,,
3,44159, Note_on_c,1,55,0,,,,,,,,,,,,,,,,,,,,,,,,,,,,
3,44159, Note_on_c,1,36,0,,,,,,,,,,,,,,,,,,,,,,,,,,,,
3,46559, Control_c,1,64,0,,,,,,,,,,,,,,,,,,,,,,,,,,,,
3,46560, Control_c,1,64,127,,,,,,,,,,,,,,,,,,,,,,,,,,,,
3,46560, Note_on_c,1,45,64,,,,,,,,,,,,,,,,,,,,,,,,,,,,
3,46620, Note_on_c,1,52,64,,,,,,,,,,,,,,,,,,,,,,,,,,,,
3,46680, Note_on_c,1,60,64,,,,,,,,,,,,,,,,,,,,,,,,,,,,
3,47039, Note_on_c,1,45,0,,,,,,,,,,,,,,,,,,,,,,,,,,,,
3,47099, Note_on_c,1,52,0,,,,,,,,,,,,,,,,,,,,,,,,,,,,
3,47159, Note_on_c,1,60,0,,,,,,,,,,,,,,,,,,,,,,,,,,,,
3,49439, Control_c,1,64,0,,,,,,,,,,,,,,,,,,,,,,,,,,,,
3,49440, Control_c,1,64,127,,,,,,,,,,,,,,,,,,,,,,,,,,,,
3,49440, Note_on_c,1,40,64,,,,,,,,,,,,,,,,,,,,,,,,,,,,
3,49500, Note_on_c,1,47,64,,,,,,,,,,,,,,,,,,,,,,,,,,,,
3,49560, Note_on_c,1,56,64,,,,,,,,,,,,,,,,,,,,,,,,,,,,
3,49919, Note_on_c,1,40,0,,,,,,,,,,,,,,,,,,,,,,,,,,,,
3,49979, Note_on_c,1,47,0,,,,,,,,,,,,,,,,,,,,,,,,,,,,
3,50039, Note_on_c,1,56,0,,,,,,,,,,,,,,,,,,,,,,,,,,,,
3,52319, Control_c,1,64,0,,,,,,,,,,,,,,,,,,,,,,,,,,,,
3,52320, Control_c,1,64,127,,,,,,,,,,,,,,,,,,,,,,,,,,,,
3,52320, Note_on_c,1,56,64,,,,,,,,,,,,,,,,,,,,,,,,,,,,
3,52320, Note_on_c,1,40,64,,,,,,,,,,,,,,,,,,,,,,,,,,,,
3,52799, Note_on_c,1,56,0,,,,,,,,,,,,,,,,,,,,,,,,,,,,
3,52799, Note_on_c,1,40,0,,,,,,,,,,,,,,,,,,,,,,,,,,,,
3,55199, Control_c,1,64,0,,,,,,,,,,,,,,,,,,,,,,,,,,,,
3,55200, Control_c,1,64,127,,,,,,,,,,,,,,,,,,,,,,,,,,,,
3,55200, Note_on_c,1,55,64,,,,,,,,,,,,,,,,,,,,,,,,,,,,
3,55200, Note_on_c,1,39,64,,,,,,,,,,,,,,,,,,,,,,,,,,,,
3,55679, Note_on_c,1,55,0,,,,,,,,,,,,,,,,,,,,,,,,,,,,
3,55679, Note_on_c,1,39,0,,,,,,,,,,,,,,,,,,,,,,,,,,,,
3,56640, Note_on_c,1,56,64,,,,,,,,,,,,,,,,,,,,,,,,,,,,
3,56640, Note_on_c,1,40,64,,,,,,,,,,,,,,,,,,,,,,,,,,,,
3,57119, Note_on_c,1,56,0,,,,,,,,,,,,,,,,,,,,,,,,,,,,
3,57119, Note_on_c,1,40,0,,,,,,,,,,,,,,,,,,,,,,,,,,,,
3,57600, Note_on_c,1,59,64,,,,,,,,,,,,,,,,,,,,,,,,,,,,
3,58079, Control_c,1,64,0,,,,,,,,,,,,,,,,,,,,,,,,,,,,
3,58079, Note_on_c,1,59,0,,,,,,,,,,,,,,,,,,,,,,,,,,,,
3,58080, Control_c,1,64,127,,,,,,,,,,,,,,,,,,,,,,,,,,,,
3,58080, Note_on_c,1,55,64,,,,,,,,,,,,,,,,,,,,,,,,,,,,
3,58080, Note_on_c,1,39,64,,,,,,,,,,,,,,,,,,,,,,,,,,,,
3,58559, Note_on_c,1,55,0,,,,,,,,,,,,,,,,,,,,,,,,,,,,
3,58559, Note_on_c,1,39,0,,,,,,,,,,,,,,,,,,,,,,,,,,,,
3,58560, Note_on_c,1,57,64,,,,,,,,,,,,,,,,,,,,,,,,,,,,
3,59039, Note_on_c,1,57,0,,,,,,,,,,,,,,,,,,,,,,,,,,,,
3,59040, Note_on_c,1,58,64,,,,,,,,,,,,,,,,,,,,,,,,,,,,
3,59519, Note_on_c,1,58,0,,,,,,,,,,,,,,,,,,,,,,,,,,,,
3,59520, Note_on_c,1,56,64,,,,,,,,,,,,,,,,,,,,,,,,,,,,
3,59520, Note_on_c,1,40,64,,,,,,,,,,,,,,,,,,,,,,,,,,,,
3,59999, Note_on_c,1,56,0,,,,,,,,,,,,,,,,,,,,,,,,,,,,
3,59999, Note_on_c,1,40,0,,,,,,,,,,,,,,,,,,,,,,,,,,,,
3,60480, Note_on_c,1,59,64,,,,,,,,,,,,,,,,,,,,,,,,,,,,
3,60959, Control_c,1,64,0,,,,,,,,,,,,,,,,,,,,,,,,,,,,
3,60959, Note_on_c,1,59,0,,,,,,,,,,,,,,,,,,,,,,,,,,,,
3,60960, Control_c,1,64,127,,,,,,,,,,,,,,,,,,,,,,,,,,,,
3,60960, Note_on_c,1,55,64,,,,,,,,,,,,,,,,,,,,,,,,,,,,
3,60960, Note_on_c,1,39,64,,,,,,,,,,,,,,,,,,,,,,,,,,,,
3,61439, Note_on_c,1,55,0,,,,,,,,,,,,,,,,,,,,,,,,,,,,
3,61439, Note_on_c,1,39,0,,,,,,,,,,,,,,,,,,,,,,,,,,,,
3,61440, Note_on_c,1,57,64,,,,,,,,,,,,,,,,,,,,,,,,,,,,
3,61919, Note_on_c,1,57,0,,,,,,,,,,,,,,,,,,,,,,,,,,,,
3,61920, Note_on_c,1,58,64,,,,,,,,,,,,,,,,,,,,,,,,,,,,
3,62399, Note_on_c,1,58,0,,,,,,,,,,,,,,,,,,,,,,,,,,,,
3,62400, Note_on_c,1,49,64,,,,,,,,,,,,,,,,,,,,,,,,,,,,
3,62400, Note_on_c,1,37,64,,,,,,,,,,,,,,,,,,,,,,,,,,,,
3,62879, Note_on_c,1,49,0,,,,,,,,,,,,,,,,,,,,,,,,,,,,
3,62879, Note_on_c,1,37,0,,,,,,,,,,,,,,,,,,,,,,,,,,,,
3,62880, Note_on_c,1,56,64,,,,,,,,,,,,,,,,,,,,,,,,,,,,
3,63359, Note_on_c,1,56,0,,,,,,,,,,,,,,,,,,,,,,,,,,,,
3,63360, Note_on_c,1,58,64,,,,,,,,,,,,,,,,,,,,,,,,,,,,
3,63839, Control_c,1,64,0,,,,,,,,,,,,,,,,,,,,,,,,,,,,
3,63839, Note_on_c,1,58,0,,,,,,,,,,,,,,,,,,,,,,,,,,,,
3,63840, Note_on_c,1,64,64,,,,,,,,,,,,,,,,,,,,,,,,,,,,
3,64319, Note_on_c,1,64,0,,,,,,,,,,,,,,,,,,,,,,,,,,,,
3,64320, Note_on_c,1,63,64,,,,,,,,,,,,,,,,,,,,,,,,,,,,
3,64559, Note_on_c,1,63,0,,,,,,,,,,,,,,,,,,,,,,,,,,,,
3,64800, Note_on_c,1,61,64,,,,,,,,,,,,,,,,,,,,,,,,,,,,
3,65039, Note_on_c,1,61,0,,,,,,,,,,,,,,,,,,,,,,,,,,,,
3,65280, Note_on_c,1,59,64,,,,,,,,,,,,,,,,,,,,,,,,,,,,
3,65519, Note_on_c,1,59,0,,,,,,,,,,,,,,,,,,,,,,,,,,,,
3,65760, Note_on_c,1,58,64,,,,,,,,,,,,,,,,,,,,,,,,,,,,
3,65999, Note_on_c,1,58,0,,,,,,,,,,,,,,,,,,,,,,,,,,,,
3,66240, Note_on_c,1,56,64,,,,,,,,,,,,,,,,,,,,,,,,,,,,
3,66479, Note_on_c,1,56,0,,,,,,,,,,,,,,,,,,,,,,,,,,,,
3,66720, Note_on_c,1,55,64,,,,,,,,,,,,,,,,,,,,,,,,,,,,
3,67199, Note_on_c,1,55,0,,,,,,,,,,,,,,,,,,,,,,,,,,,,
3,68160, Control_c,1,64,127,,,,,,,,,,,,,,,,,,,,,,,,,,,,
3,68160, Note_on_c,1,39,64,,,,,,,,,,,,,,,,,,,,,,,,,,,,
3,68399, Note_on_c,1,39,0,,,,,,,,,,,,,,,,,,,,,,,,,,,,
3,68400, Note_on_c,1,46,64,,,,,,,,,,,,,,,,,,,,,,,,,,,,
3,68639, Note_on_c,1,46,0,,,,,,,,,,,,,,,,,,,,,,,,,,,,
3,68640, Note_on_c,1,49,64,,,,,,,,,,,,,,,,,,,,,,,,,,,,
3,68879, Note_on_c,1,49,0,,,,,,,,,,,,,,,,,,,,,,,,,,,,
3,68880, Note_on_c,1,55,64,,,,,,,,,,,,,,,,,,,,,,,,,,,,
3,69119, Note_on_c,1,55,0,,,,,,,,,,,,,,,,,,,,,,,,,,,,
3,69120, Note_on_c,1,58,64,,,,,,,,,,,,,,,,,,,,,,,,,,,,
3,69359, Note_on_c,1,58,0,,,,,,,,,,,,,,,,,,,,,,,,,,,,
3,69360, Note_on_c,1,61,64,,,,,,,,,,,,,,,,,,,,,,,,,,,,
3,69599, Control_c,1,64,0,,,,,,,,,,,,,,,,,,,,,,,,,,,,
3,69599, Note_on_c,1,61,0,,,,,,,,,,,,,,,,,,,,,,,,,,,,
3,69600, Note_on_c,1,64,64,,,,,,,,,,,,,,,,,,,,,,,,,,,,
3,69839, Note_on_c,1,64,0,,,,,,,,,,,,,,,,,,,,,,,,,,,,
3,69840, Note_on_c,1,63,64,,,,,,,,,,,,,,,,,,,,,,,,,,,,
3,70079, Note_on_c,1,63,0,,,,,,,,,,,,,,,,,,,,,,,,,,,,
3,78240, Key_signature,5," ""major""",,,,,,,,,,,,,,,,,,,,,,,,,,,,,
3,78240, Control_c,1,64,127,,,,,,,,,,,,,,,,,,,,,,,,,,,,
3,78240, Note_on_c,1,47,80,,,,,,,,,,,,,,,,,,,,,,,,,,,,
3,78480, Note_on_c,1,54,80,,,,,,,,,,,,,,,,,,,,,,,,,,,,
3,78719, Note_on_c,1,47,0,,,,,,,,,,,,,,,,,,,,,,,,,,,,
3,78719, Note_on_c,1,54,0,,,,,,,,,,,,,,,,,,,,,,,,,,,,
3,78720, Note_on_c,1,59,80,,,,,,,,,,,,,,,,,,,,,,,,,,,,
3,78959, Note_on_c,1,59,0,,,,,,,,,,,,,,,,,,,,,,,,,,,,
3,78960, Note_on_c,1,63,80,,,,,,,,,,,,,,,,,,,,,,,,,,,,
3,79199, Note_on_c,1,63,0,,,,,,,,,,,,,,,,,,,,,,,,,,,,
3,79200, Note_on_c,1,59,80,,,,,,,,,,,,,,,,,,,,,,,,,,,,
3,79439, Note_on_c,1,59,0,,,,,,,,,,,,,,,,,,,,,,,,,,,,
3,79440, Note_on_c,1,54,80,,,,,,,,,,,,,,,,,,,,,,,,,,,,
3,79679, Note_on_c,1,54,0,,,,,,,,,,,,,,,,,,,,,,,,,,,,
3,79920, Note_on_c,1,54,80,,,,,,,,,,,,,,,,,,,,,,,,,,,,
3,80159, Note_on_c,1,54,0,,,,,,,,,,,,,,,,,,,,,,,,,,,,
3,80160, Note_on_c,1,59,80,,,,,,,,,,,,,,,,,,,,,,,,,,,,
3,80399, Note_on_c,1,59,0,,,,,,,,,,,,,,,,,,,,,,,,,,,,
3,80400, Note_on_c,1,63,80,,,,,,,,,,,,,,,,,,,,,,,,,,,,
3,80639, Note_on_c,1,63,0,,,,,,,,,,,,,,,,,,,,,,,,,,,,
3,80640, Note_on_c,1,59,80,,,,,,,,,,,,,,,,,,,,,,,,,,,,
3,80879, Note_on_c,1,59,0,,,,,,,,,,,,,,,,,,,,,,,,,,,,
3,80880, Note_on_c,1,54,80,,,,,,,,,,,,,,,,,,,,,,,,,,,,
3,81119, Control_c,1,64,0,,,,,,,,,,,,,,,,,,,,,,,,,,,,
3,81119, Note_on_c,1,54,0,,,,,,,,,,,,,,,,,,,,,,,,,,,,
3,81120, Control_c,1,64,127,,,,,,,,,,,,,,,,,,,,,,,,,,,,
3,81120, Note_on_c,1,46,80,,,,,,,,,,,,,,,,,,,,,,,,,,,,
3,81360, Note_on_c,1,55,80,,,,,,,,,,,,,,,,,,,,,,,,,,,,
3,81599, Note_on_c,1,46,0,,,,,,,,,,,,,,,,,,,,,,,,,,,,
3,81599, Note_on_c,1,55,0,,,,,,,,,,,,,,,,,,,,,,,,,,,,
3,81600, Note_on_c,1,61,80,,,,,,,,,,,,,,,,,,,,,,,,,,,,
3,81839, Note_on_c,1,61,0,,,,,,,,,,,,,,,,,,,,,,,,,,,,
3,81840, Note_on_c,1,63,80,,,,,,,,,,,,,,,,,,,,,,,,,,,,
3,82079, Note_on_c,1,63,0,,,,,,,,,,,,,,,,,,,,,,,,,,,,
3,82080, Note_on_c,1,61,80,,,,,,,,,,,,,,,,,,,,,,,,,,,,
3,82319, Note_on_c,1,61,0,,,,,,,,,,,,,,,,,,,,,,,,,,,,
3,82320, Note_on_c,1,55,80,,,,,,,,,,,,,,,,,,,,,,,,,,,,
3,82559, Note_on_c,1,55,0,,,,,,,,,,,,,,,,,,,,,,,,,,,,
3,82800, Note_on_c,1,55,80,,,,,,,,,,,,,,,,,,,,,,,,,,,,
3,83039, Note_on_c,1,55,0,,,,,,,,,,,,,,,,,,,,,,,,,,,,
3,83040, Note_on_c,1,61,80,,,,,,,,,,,,,,,,,,,,,,,,,,,,
3,83279, Note_on_c,1,61,0,,,,,,,,,,,,,,,,,,,,,,,,,,,,
3,83280, Note_on_c,1,63,80,,,,,,,,,,,,,,,,,,,,,,,,,,,,
3,83519, Note_on_c,1,63,0,,,,,,,,,,,,,,,,,,,,,,,,,,,,
3,83520, Note_on_c,1,61,80,,,,,,,,,,,,,,,,,,,,,,,,,,,,
3,83759, Note_on_c,1,61,0,,,,,,,,,,,,,,,,,,,,,,,,,,,,
3,83760, Note_on_c,1,55,80,,,,,,,,,,,,,,,,,,,,,,,,,,,,
3,83999, Control_c,1,64,0,,,,,,,,,,,,,,,,,,,,,,,,,,,,
3,83999, Note_on_c,1,55,0,,,,,,,,,,,,,,,,,,,,,,,,,,,,
3,84000, Control_c,1,64,127,,,,,,,,,,,,,,,,,,,,,,,,,,,,
3,84000, Note_on_c,1,45,80,,,,,,,,,,,,,,,,,,,,,,,,,,,,
3,84240, Note_on_c,1,54,80,,,,,,,,,,,,,,,,,,,,,,,,,,,,
3,84479, Note_on_c,1,45,0,,,,,,,,,,,,,,,,,,,,,,,,,,,,
3,84479, Note_on_c,1,54,0,,,,,,,,,,,,,,,,,,,,,,,,,,,,
3,84480, Note_on_c,1,61,80,,,,,,,,,,,,,,,,,,,,,,,,,,,,
3,84719, Note_on_c,1,61,0,,,,,,,,,,,,,,,,,,,,,,,,,,,,
3,84720, Note_on_c,1,63,80,,,,,,,,,,,,,,,,,,,,,,,,,,,,
3,84959, Note_on_c,1,63,0,,,,,,,,,,,,,,,,,,,,,,,,,,,,
3,84960, Note_on_c,1,61,80,,,,,,,,,,,,,,,,,,,,,,,,,,,,
3,85199, Note_on_c,1,61,0,,,,,,,,,,,,,,,,,,,,,,,,,,,,
3,85200, Note_on_c,1,54,80,,,,,,,,,,,,,,,,,,,,,,,,,,,,
3,85439, Note_on_c,1,54,0,,,,,,,,,,,,,,,,,,,,,,,,,,,,
3,85440, Note_on_c,1,44,80,,,,,,,,,,,,,,,,,,,,,,,,,,,,
3,85680, Note_on_c,1,54,80,,,,,,,,,,,,,,,,,,,,,,,,,,,,
3,85919, Note_on_c,1,44,0,,,,,,,,,,,,,,,,,,,,,,,,,,,,
3,85919, Note_on_c,1,54,0,,,,,,,,,,,,,,,,,,,,,,,,,,,,
3,85920, Note_on_c,1,60,80,,,,,,,,,,,,,,,,,,,,,,,,,,,,
3,86159, Note_on_c,1,60,0,,,,,,,,,,,,,,,,,,,,,,,,,,,,
3,86160, Note_on_c,1,63,80,,,,,,,,,,,,,,,,,,,,,,,,,,,,
3,86399, Note_on_c,1,63,0,,,,,,,,,,,,,,,,,,,,,,,,,,,,
3,86400, Note_on_c,1,60,80,,,,,,,,,,,,,,,,,,,,,,,,,,,,
3,86639, Note_on_c,1,60,0,,,,,,,,,,,,,,,,,,,,,,,,,,,,
3,86640, Note_on_c,1,54,80,,,,,,,,,,,,,,,,,,,,,,,,,,,,
3,86879, Control_c,1,64,0,,,,,,,,,,,,,,,,,,,,,,,,,,,,
3,86879, Note_on_c,1,54,0,,,,,,,,,,,,,,,,,,,,,,,,,,,,
3,86880, Control_c,1,64,127,,,,,,,,,,,,,,,,,,,,,,,,,,,,
3,86880, Note_on_c,1,37,80,,,,,,,,,,,,,,,,,,,,,,,,,,,,
3,87120, Note_on_c,1,53,80,,,,,,,,,,,,,,,,,,,,,,,,,,,,
3,87359, Note_on_c,1,37,0,,,,,,,,,,,,,,,,,,,,,,,,,,,,
3,87359, Note_on_c,1,53,0,,,,,,,,,,,,,,,,,,,,,,,,,,,,
3,87360, Note_on_c,1,59,80,,,,,,,,,,,,,,,,,,,,,,,,,,,,
3,87599, Note_on_c,1,59,0,,,,,,,,,,,,,,,,,,,,,,,,,,,,
3,87600, Note_on_c,1,63,80,,,,,,,,,,,,,,,,,,,,,,,,,,,,
3,87839, Note_on_c,1,63,0,,,,,,,,,,,,,,,,,,,,,,,,,,,,
3,87840, Note_on_c,1,59,80,,,,,,,,,,,,,,,,,,,,,,,,,,,,
3,88079, Note_on_c,1,59,0,,,,,,,,,,,,,,,,,,,,,,,,,,,,
3,88080, Note_on_c,1,53,80,,,,,,,,,,,,,,,,,,,,,,,,,,,,
3,88319, Note_on_c,1,53,0,,,,,,,,,,,,,,,,,,,,,,,,,,,,
3,88560, Note_on_c,1,49,80,,,,,,,,,,,,,,,,,,,,,,,,,,,,
3,88799, Note_on_c,1,49,0,,,,,,,,,,,,,,,,,,,,,,,,,,,,
3,88800, Note_on_c,1,53,80,,,,,,,,,,,,,,,,,,,,,,,,,,,,
3,89039, Note_on_c,1,53,0,,,,,,,,,,,,,,,,,,,,,,,,,,,,
3,89040, Note_on_c,1,59,80,,,,,,,,,,,,,,,,,,,,,,,,,,,,
3,89279, Note_on_c,1,59,0,,,,,,,,,,,,,,,,,,,,,,,,,,,,
3,89280, Note_on_c,1,53,80,,,,,,,,,,,,,,,,,,,,,,,,,,,,
3,89519, Note_on_c,1,53,0,,,,,,,,,,,,,,,,,,,,,,,,,,,,
3,89520, Note_on_c,1,49,80,,,,,,,,,,,,,,,,,,,,,,,,,,,,
3,89759, Control_c,1,64,0,,,,,,,,,,,,,,,,,,,,,,,,,,,,
3,89759, Note_on_c,1,49,0,,,,,,,,,,,,,,,,,,,,,,,,,,,,
3,89760, Control_c,1,64,127,,,,,,,,,,,,,,,,,,,,,,,,,,,,
3,89760, Note_on_c,1,42,80,,,,,,,,,,,,,,,,,,,,,,,,,,,,
3,90000, Note_on_c,1,52,80,,,,,,,,,,,,,,,,,,,,,,,,,,,,
3,90239, Note_on_c,1,42,0,,,,,,,,,,,,,,,,,,,,,,,,,,,,
3,90239, Note_on_c,1,52,0,,,,,,,,,,,,,,,,,,,,,,,,,,,,
3,90240, Note_on_c,1,54,80,,,,,,,,,,,,,,,,,,,,,,,,,,,,
3,90479, Note_on_c,1,54,0,,,,,,,,,,,,,,,,,,,,,,,,,,,,
3,90480, Note_on_c,1,61,80,,,,,,,,,,,,,,,,,,,,,,,,,,,,
3,90719, Note_on_c,1,61,0,,,,,,,,,,,,,,,,,,,,,,,,,,,,
3,90720, Note_on_c,1,54,80,,,,,,,,,,,,,,,,,,,,,,,,,,,,
3,90959, Note_on_c,1,54,0,,,,,,,,,,,,,,,,,,,,,,,,,,,,
3,90960, Note_on_c,1,52,80,,,,,,,,,,,,,,,,,,,,,,,,,,,,
3,91199, Note_on_c,1,52,0,,,,,,,,,,,,,,,,,,,,,,,,,,,,
3,91440, Note_on_c,1,54,80,,,,,,,,,,,,,,,,,,,,,,,,,,,,
3,91679, Note_on_c,1,54,0,,,,,,,,,,,,,,,,,,,,,,,,,,,,
3,91680, Note_on_c,1,58,80,,,,,,,,,,,,,,,,,,,,,,,,,,,,
3,91919, Note_on_c,1,58,0,,,,,,,,,,,,,,,,,,,,,,,,,,,,
3,91920, Note_on_c,1,64,80,,,,,,,,,,,,,,,,,,,,,,,,,,,,
3,92159, Note_on_c,1,64,0,,,,,,,,,,,,,,,,,,,,,,,,,,,,
3,92160, Note_on_c,1,58,80,,,,,,,,,,,,,,,,,,,,,,,,,,,,
3,92399, Note_on_c,1,58,0,,,,,,,,,,,,,,,,,,,,,,,,,,,,
3,92400, Note_on_c,1,54,80,,,,,,,,,,,,,,,,,,,,,,,,,,,,
3,92639, Control_c,1,64,0,,,,,,,,,,,,,,,,,,,,,,,,,,,,
3,92639, Note_on_c,1,54,0,,,,,,,,,,,,,,,,,,,,,,,,,,,,
3,92640, Control_c,1,64,127,,,,,,,,,,,,,,,,,,,,,,,,,,,,
3,92880, Note_on_c,1,47,80,,,,,,,,,,,,,,,,,,,,,,,,,,,,
3,93119, Note_on_c,1,47,0,,,,,,,,,,,,,,,,,,,,,,,,,,,,
3,93120, Note_on_c,1,54,80,,,,,,,,,,,,,,,,,,,,,,,,,,,,
3,93359, Note_on_c,1,54,0,,,,,,,,,,,,,,,,,,,,,,,,,,,,
3,93360, Note_on_c,1,59,80,,,,,,,,,,,,,,,,,,,,,,,,,,,,
3,93599, Note_on_c,1,59,0,,,,,,,,,,,,,,,,,,,,,,,,,,,,
3,93600, Note_on_c,1,53,80,,,,,,,,,,,,,,,,,,,,,,,,,,,,
3,93839, Note_on_c,1,53,0,,,,,,,,,,,,,,,,,,,,,,,,,,,,
3,93840, Note_on_c,1,59,80,,,,,,,,,,,,,,,,,,,,,,,,,,,,
3,94079, Note_on_c,1,59,0,,,,,,,,,,,,,,,,,,,,,,,,,,,,
3,94080, Note_on_c,1,54,80,,,,,,,,,,,,,,,,,,,,,,,,,,,,
3,94319, Note_on_c,1,54,0,,,,,,,,,,,,,,,,,,,,,,,,,,,,
3,94320, Note_on_c,1,63,80,,,,,,,,,,,,,,,,,,,,,,,,,,,,
3,94559, Note_on_c,1,63,0,,,,,,,,,,,,,,,,,,,,,,,,,,,,
3,94560, Note_on_c,1,61,80,,,,,,,,,,,,,,,,,,,,,,,,,,,,
3,94799, Note_on_c,1,61,0,,,,,,,,,,,,,,,,,,,,,,,,,,,,
3,94800, Note_on_c,1,59,80,,,,,,,,,,,,,,,,,,,,,,,,,,,,
3,95039, Note_on_c,1,59,0,,,,,,,,,,,,,,,,,,,,,,,,,,,,
3,95040, Note_on_c,1,56,80,,,,,,,,,,,,,,,,,,,,,,,,,,,,
3,95279, Note_on_c,1,56,0,,,,,,,,,,,,,,,,,,,,,,,,,,,,
3,95280, Note_on_c,1,54,80,,,,,,,,,,,,,,,,,,,,,,,,,,,,
3,95519, Control_c,1,64,0,,,,,,,,,,,,,,,,,,,,,,,,,,,,
3,95519, Note_on_c,1,54,0,,,,,,,,,,,,,,,,,,,,,,,,,,,,
3,95520, Control_c,1,64,127,,,,,,,,,,,,,,,,,,,,,,,,,,,,
3,95520, Note_on_c,1,47,85,,,,,,,,,,,,,,,,,,,,,,,,,,,,
3,95760, Note_on_c,1,54,85,,,,,,,,,,,,,,,,,,,,,,,,,,,,
3,95999, Note_on_c,1,47,0,,,,,,,,,,,,,,,,,,,,,,,,,,,,
3,95999, Note_on_c,1,54,0,,,,,,,,,,,,,,,,,,,,,,,,,,,,
3,96000, Note_on_c,1,59,85,,,,,,,,,,,,,,,,,,,,,,,,,,,,
3,96239, Note_on_c,1,59,0,,,,,,,,,,,,,,,,,,,,,,,,,,,,
3,96240, Note_on_c,1,63,85,,,,,,,,,,,,,,,,,,,,,,,,,,,,
3,96479, Note_on_c,1,63,0,,,,,,,,,,,,,,,,,,,,,,,,,,,,
3,96480, Note_on_c,1,59,85,,,,,,,,,,,,,,,,,,,,,,,,,,,,
3,96719, Note_on_c,1,59,0,,,,,,,,,,,,,,,,,,,,,,,,,,,,
3,96720, Note_on_c,1,54,85,,,,,,,,,,,,,,,,,,,,,,,,,,,,
3,96959, Note_on_c,1,54,0,,,,,,,,,,,,,,,,,,,,,,,,,,,,
3,96960, Note_on_c,1,46,85,,,,,,,,,,,,,,,,,,,,,,,,,,,,
3,97200, Note_on_c,1,55,85,,,,,,,,,,,,,,,,,,,,,,,,,,,,
3,97439, Note_on_c,1,46,0,,,,,,,,,,,,,,,,,,,,,,,,,,,,
3,97439, Note_on_c,1,55,0,,,,,,,,,,,,,,,,,,,,,,,,,,,,
3,97440, Note_on_c,1,61,85,,,,,,,,,,,,,,,,,,,,,,,,,,,,
3,97679, Note_on_c,1,61,0,,,,,,,,,,,,,,,,,,,,,,,,,,,,
3,97680, Note_on_c,1,63,85,,,,,,,,,,,,,,,,,,,,,,,,,,,,
3,97919, Note_on_c,1,63,0,,,,,,,,,,,,,,,,,,,,,,,,,,,,
3,97920, Note_on_c,1,61,85,,,,,,,,,,,,,,,,,,,,,,,,,,,,
3,98159, Note_on_c,1,61,0,,,,,,,,,,,,,,,,,,,,,,,,,,,,
3,98160, Note_on_c,1,55,85,,,,,,,,,,,,,,,,,,,,,,,,,,,,
3,98399, Control_c,1,64,0,,,,,,,,,,,,,,,,,,,,,,,,,,,,
3,98399, Note_on_c,1,55,0,,,,,,,,,,,,,,,,,,,,,,,,,,,,
3,98400, Control_c,1,64,127,,,,,,,,,,,,,,,,,,,,,,,,,,,,
3,98400, Note_on_c,1,45,87,,,,,,,,,,,,,,,,,,,,,,,,,,,,
3,98640, Note_on_c,1,54,87,,,,,,,,,,,,,,,,,,,,,,,,,,,,
3,98879, Note_on_c,1,45,0,,,,,,,,,,,,,,,,,,,,,,,,,,,,
3,98879, Note_on_c,1,54,0,,,,,,,,,,,,,,,,,,,,,,,,,,,,
3,98880, Note_on_c,1,60,87,,,,,,,,,,,,,,,,,,,,,,,,,,,,
3,99119, Note_on_c,1,60,0,,,,,,,,,,,,,,,,,,,,,,,,,,,,
3,99120, Note_on_c,1,63,87,,,,,,,,,,,,,,,,,,,,,,,,,,,,
3,99359, Note_on_c,1,63,0,,,,,,,,,,,,,,,,,,,,,,,,,,,,
3,99360, Note_on_c,1,60,87,,,,,,,,,,,,,,,,,,,,,,,,,,,,
3,99599, Note_on_c,1,60,0,,,,,,,,,,,,,,,,,,,,,,,,,,,,
3,99600, Note_on_c,1,54,87,,,,,,,,,,,,,,,,,,,,,,,,,,,,
3,99839, Note_on_c,1,54,0,,,,,,,,,,,,,,,,,,,,,,,,,,,,
3,99840, Note_on_c,1,44,87,,,,,,,,,,,,,,,,,,,,,,,,,,,,
3,100080, Note_on_c,1,54,87,,,,,,,,,,,,,,,,,,,,,,,,,,,,
3,100319, Note_on_c,1,44,0,,,,,,,,,,,,,,,,,,,,,,,,,,,,
3,100319, Note_on_c,1,54,0,,,,,,,,,,,,,,,,,,,,,,,,,,,,
3,100320, Note_on_c,1,60,87,,,,,,,,,,,,,,,,,,,,,,,,,,,,
3,100559, Note_on_c,1,60,0,,,,,,,,,,,,,,,,,,,,,,,,,,,,
3,100560, Note_on_c,1,63,87,,,,,,,,,,,,,,,,,,,,,,,,,,,,
3,100799, Note_on_c,1,63,0,,,,,,,,,,,,,,,,,,,,,,,,,,,,
3,100800, Note_on_c,1,60,87,,,,,,,,,,,,,,,,,,,,,,,,,,,,
3,101039, Note_on_c,1,60,0,,,,,,,,,,,,,,,,,,,,,,,,,,,,
3,101040, Note_on_c,1,54,87,,,,,,,,,,,,,,,,,,,,,,,,,,,,
3,101279, Control_c,1,64,0,,,,,,,,,,,,,,,,,,,,,,,,,,,,
3,101279, Note_on_c,1,54,0,,,,,,,,,,,,,,,,,,,,,,,,,,,,
3,101280, Control_c,1,64,127,,,,,,,,,,,,,,,,,,,,,,,,,,,,
3,101280, Note_on_c,1,43,90,,,,,,,,,,,,,,,,,,,,,,,,,,,,
3,101520, Note_on_c,1,55,90,,,,,,,,,,,,,,,,,,,,,,,,,,,,
3,101759, Note_on_c,1,43,0,,,,,,,,,,,,,,,,,,,,,,,,,,,,
3,101759, Note_on_c,1,55,0,,,,,,,,,,,,,,,,,,,,,,,,,,,,
3,101760, Note_on_c,1,60,90,,,,,,,,,,,,,,,,,,,,,,,,,,,,
3,101999, Note_on_c,1,60,0,,,,,,,,,,,,,,,,,,,,,,,,,,,,
3,102000, Note_on_c,1,64,90,,,,,,,,,,,,,,,,,,,,,,,,,,,,
3,102239, Note_on_c,1,64,0,,,,,,,,,,,,,,,,,,,,,,,,,,,,
3,102240, Note_on_c,1,60,90,,,,,,,,,,,,,,,,,,,,,,,,,,,,
3,102479, Note_on_c,1,60,0,,,,,,,,,,,,,,,,,,,,,,,,,,,,
3,102480, Note_on_c,1,55,90,,,,,,,,,,,,,,,,,,,,,,,,,,,,
3,102719, Note_on_c,1,55,0,,,,,,,,,,,,,,,,,,,,,,,,,,,,
3,102960, Note_on_c,1,55,90,,,,,,,,,,,,,,,,,,,,,,,,,,,,
3,103199, Note_on_c,1,55,0,,,,,,,,,,,,,,,,,,,,,,,,,,,,
3,103200, Note_on_c,1,60,90,,,,,,,,,,,,,,,,,,,,,,,,,,,,
3,103439, Note_on_c,1,60,0,,,,,,,,,,,,,,,,,,,,,,,,,,,,
3,103440, Note_on_c,1,64,90,,,,,,,,,,,,,,,,,,,,,,,,,,,,
3,103679, Note_on_c,1,64,0,,,,,,,,,,,,,,,,,,,,,,,,,,,,
3,103680, Note_on_c,1,60,90,,,,,,,,,,,,,,,,,,,,,,,,,,,,
3,103919, Note_on_c,1,60,0,,,,,,,,,,,,,,,,,,,,,,,,,,,,
3,103920, Note_on_c,1,55,90,,,,,,,,,,,,,,,,,,,,,,,,,,,,
3,104159, Control_c,1,64,0,,,,,,,,,,,,,,,,,,,,,,,,,,,,
3,104159, Note_on_c,1,55,0,,,,,,,,,,,,,,,,,,,,,,,,,,,,
3,104160, Control_c,1,64,127,,,,,,,,,,,,,,,,,,,,,,,,,,,,
3,104160, Note_on_c,1,43,90,,,,,,,,,,,,,,,,,,,,,,,,,,,,
3,104400, Note_on_c,1,57,90,,,,,,,,,,,,,,,,,,,,,,,,,,,,
3,104639, Note_on_c,1,43,0,,,,,,,,,,,,,,,,,,,,,,,,,,,,
3,104639, Note_on_c,1,57,0,,,,,,,,,,,,,,,,,,,,,,,,,,,,
3,104640, Note_on_c,1,62,90,,,,,,,,,,,,,,,,,,,,,,,,,,,,
3,104640, Note_on_c,1,60,90,,,,,,,,,,,,,,,,,,,,,,,,,,,,
3,104879, Note_on_c,1,62,0,,,,,,,,,,,,,,,,,,,,,,,,,,,,
3,104879, Note_on_c,1,60,0,,,,,,,,,,,,,,,,,,,,,,,,,,,,
3,104880, Note_on_c,1,65,90,,,,,,,,,,,,,,,,,,,,,,,,,,,,
3,105119, Note_on_c,1,65,0,,,,,,,,,,,,,,,,,,,,,,,,,,,,
3,105120, Note_on_c,1,62,90,,,,,,,,,,,,,,,,,,,,,,,,,,,,
3,105120, Note_on_c,1,60,90,,,,,,,,,,,,,,,,,,,,,,,,,,,,
3,105359, Note_on_c,1,62,0,,,,,,,,,,,,,,,,,,,,,,,,,,,,
3,105359, Note_on_c,1,60,0,,,,,,,,,,,,,,,,,,,,,,,,,,,,
3,105360, Note_on_c,1,57,90,,,,,,,,,,,,,,,,,,,,,,,,,,,,
3,105599, Note_on_c,1,57,0,,,,,,,,,,,,,,,,,,,,,,,,,,,,
3,107039, Control_c,1,64,0,,,,,,,,,,,,,,,,,,,,,,,,,,,,
3,107040, Control_c,1,64,127,,,,,,,,,,,,,,,,,,,,,,,,,,,,
3,107280, Note_on_c,1,43,96,,,,,,,,,,,,,,,,,,,,,,,,,,,,
3,107519, Note_on_c,1,43,0,,,,,,,,,,,,,,,,,,,,,,,,,,,,
3,107520, Note_on_c,1,53,96,,,,,,,,,,,,,,,,,,,,,,,,,,,,
3,107520, Note_on_c,1,50,96,,,,,,,,,,,,,,,,,,,,,,,,,,,,
3,107759, Note_on_c,1,53,0,,,,,,,,,,,,,,,,,,,,,,,,,,,,
3,107759, Note_on_c,1,50,0,,,,,,,,,,,,,,,,,,,,,,,,,,,,
3,107760, Note_on_c,1,57,96,,,,,,,,,,,,,,,,,,,,,,,,,,,,
3,107999, Note_on_c,1,57,0,,,,,,,,,,,,,,,,,,,,,,,,,,,,
3,108000, Note_on_c,1,53,96,,,,,,,,,,,,,,,,,,,,,,,,,,,,
3,108000, Note_on_c,1,50,96,,,,,,,,,,,,,,,,,,,,,,,,,,,,
3,108239, Note_on_c,1,53,0,,,,,,,,,,,,,,,,,,,,,,,,,,,,
3,108239, Note_on_c,1,50,0,,,,,,,,,,,,,,,,,,,,,,,,,,,,
3,108240, Note_on_c,1,43,96,,,,,,,,,,,,,,,,,,,,,,,,,,,,
3,108479, Note_on_c,1,43,0,,,,,,,,,,,,,,,,,,,,,,,,,,,,
3,108480, Note_on_c,1,43,96,,,,,,,,,,,,,,,,,,,,,,,,,,,,
3,108540, Note_on_c,1,53,96,,,,,,,,,,,,,,,,,,,,,,,,,,,,
3,108600, Note_on_c,1,59,96,,,,,,,,,,,,,,,,,,,,,,,,,,,,
3,108959, Control_c,1,64,0,,,,,,,,,,,,,,,,,,,,,,,,,,,,
3,108959, Note_on_c,1,43,0,,,,,,,,,,,,,,,,,,,,,,,,,,,,
3,109019, Note_on_c,1,53,0,,,,,,,,,,,,,,,,,,,,,,,,,,,,
3,109079, Note_on_c,1,59,0,,,,,,,,,,,,,,,,,,,,,,,,,,,,
3,109920, Key_signature,0," ""major""",,,,,,,,,,,,,,,,,,,,,,,,,,,,,
3,109920, Control_c,1,64,127,,,,,,,,,,,,,,,,,,,,,,,,,,,,
3,109920, Note_on_c,1,48,96,,,,,,,,,,,,,,,,,,,,,,,,,,,,
3,109920, Note_on_c,1,36,96,,,,,,,,,,,,,,,,,,,,,,,,,,,,
3,110399, Note_on_c,1,48,0,,,,,,,,,,,,,,,,,,,,,,,,,,,,
3,110399, Note_on_c,1,36,0,,,,,,,,,,,,,,,,,,,,,,,,,,,,
3,110400, Note_on_c,1,72,96,,,,,,,,,,,,,,,,,,,,,,,,,,,,
3,110639, Note_on_c,1,72,0,,,,,,,,,,,,,,,,,,,,,,,,,,,,
3,110640, Note_on_c,1,64,96,,,,,,,,,,,,,,,,,,,,,,,,,,,,
3,110879, Note_on_c,1,64,0,,,,,,,,,,,,,,,,,,,,,,,,,,,,
3,110880, Note_on_c,1,67,96,,,,,,,,,,,,,,,,,,,,,,,,,,,,
3,111119, Note_on_c,1,67,0,,,,,,,,,,,,,,,,,,,,,,,,,,,,
3,111120, Note_on_c,1,60,96,,,,,,,,,,,,,,,,,,,,,,,,,,,,
3,111359, Note_on_c,1,60,0,,,,,,,,,,,,,,,,,,,,,,,,,,,,
3,111360, Note_on_c,1,64,96,,,,,,,,,,,,,,,,,,,,,,,,,,,,
3,111599, Note_on_c,1,64,0,,,,,,,,,,,,,,,,,,,,,,,,,,,,
3,111600, Note_on_c,1,55,96,,,,,,,,,,,,,,,,,,,,,,,,,,,,
3,111839, Note_on_c,1,55,0,,,,,,,,,,,,,,,,,,,,,,,,,,,,
3,111840, Note_on_c,1,60,96,,,,,,,,,,,,,,,,,,,,,,,,,,,,
3,112079, Note_on_c,1,60,0,,,,,,,,,,,,,,,,,,,,,,,,,,,,
3,112080, Note_on_c,1,52,96,,,,,,,,,,,,,,,,,,,,,,,,,,,,
3,112319, Note_on_c,1,52,0,,,,,,,,,,,,,,,,,,,,,,,,,,,,
3,112320, Note_on_c,1,55,96,,,,,,,,,,,,,,,,,,,,,,,,,,,,
3,112559, Note_on_c,1,55,0,,,,,,,,,,,,,,,,,,,,,,,,,,,,
3,112560, Note_on_c,1,48,96,,,,,,,,,,,,,,,,,,,,,,,,,,,,
3,112799, Control_c,1,64,0,,,,,,,,,,,,,,,,,,,,,,,,,,,,
3,112799, Note_on_c,1,48,0,,,,,,,,,,,,,,,,,,,,,,,,,,,,
3,112800, Control_c,1,64,127,,,,,,,,,,,,,,,,,,,,,,,,,,,,
3,112800, Note_on_c,1,53,96,,,,,,,,,,,,,,,,,,,,,,,,,,,,
3,112800, Note_on_c,1,41,96,,,,,,,,,,,,,,,,,,,,,,,,,,,,
3,113279, Note_on_c,1,53,0,,,,,,,,,,,,,,,,,,,,,,,,,,,,
3,113279, Note_on_c,1,41,0,,,,,,,,,,,,,,,,,,,,,,,,,,,,
3,113280, Note_on_c,1,68,96,,,,,,,,,,,,,,,,,,,,,,,,,,,,
3,113519, Note_on_c,1,68,0,,,,,,,,,,,,,,,,,,,,,,,,,,,,
3,113520, Note_on_c,1,60,96,,,,,,,,,,,,,,,,,,,,,,,,,,,,
3,113759, Note_on_c,1,60,0,,,,,,,,,,,,,,,,,,,,,,,,,,,,
3,113760, Note_on_c,1,65,96,,,,,,,,,,,,,,,,,,,,,,,,,,,,
3,113999, Note_on_c,1,65,0,,,,,,,,,,,,,,,,,,,,,,,,,,,,
3,114000, Note_on_c,1,56,96,,,,,,,,,,,,,,,,,,,,,,,,,,,,
3,114239, Note_on_c,1,56,0,,,,,,,,,,,,,,,,,,,,,,,,,,,,
3,114240, Note_on_c,1,60,96,,,,,,,,,,,,,,,,,,,,,,,,,,,,
3,114479, Note_on_c,1,60,0,,,,,,,,,,,,,,,,,,,,,,,,,,,,
3,114480, Note_on_c,1,53,96,,,,,,,,,,,,,,,,,,,,,,,,,,,,
3,114719, Note_on_c,1,53,0,,,,,,,,,,,,,,,,,,,,,,,,,,,,
3,114720, Note_on_c,1,56,96,,,,,,,,,,,,,,,,,,,,,,,,,,,,
3,114959, Note_on_c,1,56,0,,,,,,,,,,,,,,,,,,,,,,,,,,,,
3,114960, Note_on_c,1,48,96,,,,,,,,,,,,,,,,,,,,,,,,,,,,
3,115199, Note_on_c,1,48,0,,,,,,,,,,,,,,,,,,,,,,,,,,,,
3,115200, Note_on_c,1,53,96,,,,,,,,,,,,,,,,,,,,,,,,,,,,
3,115439, Note_on_c,1,53,0,,,,,,,,,,,,,,,,,,,,,,,,,,,,
3,115440, Note_on_c,1,45,96,,,,,,,,,,,,,,,,,,,,,,,,,,,,
3,115679, Control_c,1,64,0,,,,,,,,,,,,,,,,,,,,,,,,,,,,
3,115679, Note_on_c,1,45,0,,,,,,,,,,,,,,,,,,,,,,,,,,,,
3,115680, Control_c,1,64,127,,,,,,,,,,,,,,,,,,,,,,,,,,,,
3,115680, Note_on_c,1,48,96,,,,,,,,,,,,,,,,,,,,,,,,,,,,
3,115680, Note_on_c,1,36,96,,,,,,,,,,,,,,,,,,,,,,,,,,,,
3,116159, Note_on_c,1,48,0,,,,,,,,,,,,,,,,,,,,,,,,,,,,
3,116159, Note_on_c,1,36,0,,,,,,,,,,,,,,,,,,,,,,,,,,,,
3,116160, Note_on_c,1,72,96,,,,,,,,,,,,,,,,,,,,,,,,,,,,
3,116399, Note_on_c,1,72,0,,,,,,,,,,,,,,,,,,,,,,,,,,,,
3,116400, Note_on_c,1,64,96,,,,,,,,,,,,,,,,,,,,,,,,,,,,
3,116639, Note_on_c,1,64,0,,,,,,,,,,,,,,,,,,,,,,,,,,,,
3,116640, Note_on_c,1,67,96,,,,,,,,,,,,,,,,,,,,,,,,,,,,
3,116879, Note_on_c,1,67,0,,,,,,,,,,,,,,,,,,,,,,,,,,,,
3,116880, Note_on_c,1,60,96,,,,,,,,,,,,,,,,,,,,,,,,,,,,
3,117119, Note_on_c,1,60,0,,,,,,,,,,,,,,,,,,,,,,,,,,,,
3,117120, Note_on_c,1,64,96,,,,,,,,,,,,,,,,,,,,,,,,,,,,
3,117359, Note_on_c,1,64,0,,,,,,,,,,,,,,,,,,,,,,,,,,,,
3,117360, Note_on_c,1,55,96,,,,,,,,,,,,,,,,,,,,,,,,,,,,
3,117599, Note_on_c,1,55,0,,,,,,,,,,,,,,,,,,,,,,,,,,,,
3,117600, Note_on_c,1,60,96,,,,,,,,,,,,,,,,,,,,,,,,,,,,
3,117839, Note_on_c,1,60,0,,,,,,,,,,,,,,,,,,,,,,,,,,,,
3,117840, Note_on_c,1,52,96,,,,,,,,,,,,,,,,,,,,,,,,,,,,
3,118079, Note_on_c,1,52,0,,,,,,,,,,,,,,,,,,,,,,,,,,,,
3,118080, Note_on_c,1,55,96,,,,,,,,,,,,,,,,,,,,,,,,,,,,
3,118319, Note_on_c,1,55,0,,,,,,,,,,,,,,,,,,,,,,,,,,,,
3,118320, Note_on_c,1,48,96,,,,,,,,,,,,,,,,,,,,,,,,,,,,
3,118559, Control_c,1,64,0,,,,,,,,,,,,,,,,,,,,,,,,,,,,
3,118559, Note_on_c,1,48,0,,,,,,,,,,,,,,,,,,,,,,,,,,,,
3,118560, Control_c,1,64,127,,,,,,,,,,,,,,,,,,,,,,,,,,,,
3,118560, Note_on_c,1,45,96,,,,,,,,,,,,,,,,,,,,,,,,,,,,
3,118560, Note_on_c,1,33,96,,,,,,,,,,,,,,,,,,,,,,,,,,,,
3,119039, Note_on_c,1,45,0,,,,,,,,,,,,,,,,,,,,,,,,,,,,
3,119039, Note_on_c,1,33,0,,,,,,,,,,,,,,,,,,,,,,,,,,,,
3,119040, Note_on_c,1,72,96,,,,,,,,,,,,,,,,,,,,,,,,,,,,
3,119279, Note_on_c,1,72,0,,,,,,,,,,,,,,,,,,,,,,,,,,,,
3,119280, Note_on_c,1,64,96,,,,,,,,,,,,,,,,,,,,,,,,,,,,
3,119519, Note_on_c,1,64,0,,,,,,,,,,,,,,,,,,,,,,,,,,,,
3,119520, Note_on_c,1,69,96,,,,,,,,,,,,,,,,,,,,,,,,,,,,
3,119759, Note_on_c,1,69,0,,,,,,,,,,,,,,,,,,,,,,,,,,,,
3,119760, Note_on_c,1,60,96,,,,,,,,,,,,,,,,,,,,,,,,,,,,
3,119999, Note_on_c,1,60,0,,,,,,,,,,,,,,,,,,,,,,,,,,,,
3,120000, Note_on_c,1,64,96,,,,,,,,,,,,,,,,,,,,,,,,,,,,
3,120239, Note_on_c,1,64,0,,,,,,,,,,,,,,,,,,,,,,,,,,,,
3,120240, Note_on_c,1,57,96,,,,,,,,,,,,,,,,,,,,,,,,,,,,
3,120479, Note_on_c,1,57,0,,,,,,,,,,,,,,,,,,,,,,,,,,,,
3,120480, Note_on_c,1,60,96,,,,,,,,,,,,,,,,,,,,,,,,,,,,
3,120719, Note_on_c,1,60,0,,,,,,,,,,,,,,,,,,,,,,,,,,,,
3,120720, Note_on_c,1,52,96,,,,,,,,,,,,,,,,,,,,,,,,,,,,
3,120959, Note_on_c,1,52,0,,,,,,,,,,,,,,,,,,,,,,,,,,,,
3,120960, Note_on_c,1,57,96,,,,,,,,,,,,,,,,,,,,,,,,,,,,
3,121199, Note_on_c,1,57,0,,,,,,,,,,,,,,,,,,,,,,,,,,,,
3,121200, Note_on_c,1,48,96,,,,,,,,,,,,,,,,,,,,,,,,,,,,
3,121439, Control_c,1,64,0,,,,,,,,,,,,,,,,,,,,,,,,,,,,
3,121439, Note_on_c,1,48,0,,,,,,,,,,,,,,,,,,,,,,,,,,,,
3,121440, Control_c,1,64,127,,,,,,,,,,,,,,,,,,,,,,,,,,,,
3,121440, Note_on_c,1,52,112,,,,,,,,,,,,,,,,,,,,,,,,,,,,
3,121440, Note_on_c,1,40,112,,,,,,,,,,,,,,,,,,,,,,,,,,,,
3,121440, Note_on_c,1,52,112,,,,,,,,,,,,,,,,,,,,,,,,,,,,
3,121679, Note_on_c,1,52,0,,,,,,,,,,,,,,,,,,,,,,,,,,,,
3,121680, Note_on_c,1,59,112,,,,,,,,,,,,,,,,,,,,,,,,,,,,
3,121919, Note_on_c,1,59,0,,,,,,,,,,,,,,,,,,,,,,,,,,,,
3,121920, Note_on_c,1,56,112,,,,,,,,,,,,,,,,,,,,,,,,,,,,
3,122159, Note_on_c,1,56,0,,,,,,,,,,,,,,,,,,,,,,,,,,,,
3,122160, Note_on_c,1,64,112,,,,,,,,,,,,,,,,,,,,,,,,,,,,
3,122399, Note_on_c,1,64,0,,,,,,,,,,,,,,,,,,,,,,,,,,,,
3,122400, Note_on_c,1,59,112,,,,,,,,,,,,,,,,,,,,,,,,,,,,
3,122639, Note_on_c,1,59,0,,,,,,,,,,,,,,,,,,,,,,,,,,,,
3,122640, Note_on_c,1,56,112,,,,,,,,,,,,,,,,,,,,,,,,,,,,
3,122879, Note_on_c,1,52,0,,,,,,,,,,,,,,,,,,,,,,,,,,,,
3,122879, Note_on_c,1,40,0,,,,,,,,,,,,,,,,,,,,,,,,,,,,
3,122879, Note_on_c,1,56,0,,,,,,,,,,,,,,,,,,,,,,,,,,,,
3,122880, Note_on_c,1,52,112,,,,,,,,,,,,,,,,,,,,,,,,,,,,
3,122880, Note_on_c,1,40,112,,,,,,,,,,,,,,,,,,,,,,,,,,,,
3,122880, Note_on_c,1,52,112,,,,,,,,,,,,,,,,,,,,,,,,,,,,
3,123119, Note_on_c,1,52,0,,,,,,,,,,,,,,,,,,,,,,,,,,,,
3,123120, Note_on_c,1,59,112,,,,,,,,,,,,,,,,,,,,,,,,,,,,
3,123359, Note_on_c,1,59,0,,,,,,,,,,,,,,,,,,,,,,,,,,,,
3,123360, Note_on_c,1,56,112,,,,,,,,,,,,,,,,,,,,,,,,,,,,
3,123599, Note_on_c,1,56,0,,,,,,,,,,,,,,,,,,,,,,,,,,,,
3,123600, Note_on_c,1,64,112,,,,,,,,,,,,,,,,,,,,,,,,,,,,
3,123839, Note_on_c,1,64,0,,,,,,,,,,,,,,,,,,,,,,,,,,,,
3,123840, Note_on_c,1,59,112,,,,,,,,,,,,,,,,,,,,,,,,,,,,
3,124079, Note_on_c,1,59,0,,,,,,,,,,,,,,,,,,,,,,,,,,,,
3,124080, Note_on_c,1,56,112,,,,,,,,,,,,,,,,,,,,,,,,,,,,
3,124319, Control_c,1,64,0,,,,,,,,,,,,,,,,,,,,,,,,,,,,
3,124319, Note_on_c,1,52,0,,,,,,,,,,,,,,,,,,,,,,,,,,,,
3,124319, Note_on_c,1,40,0,,,,,,,,,,,,,,,,,,,,,,,,,,,,
3,124319, Note_on_c,1,56,0,,,,,,,,,,,,,,,,,,,,,,,,,,,,
3,124320, Control_c,1,64,127,,,,,,,,,,,,,,,,,,,,,,,,,,,,
3,124320, Note_on_c,1,51,112,,,,,,,,,,,,,,,,,,,,,,,,,,,,
3,124320, Note_on_c,1,39,112,,,,,,,,,,,,,,,,,,,,,,,,,,,,
3,124559, Note_on_c,1,51,0,,,,,,,,,,,,,,,,,,,,,,,,,,,,
3,124559, Note_on_c,1,39,0,,,,,,,,,,,,,,,,,,,,,,,,,,,,
3,124560, Note_on_c,1,60,112,,,,,,,,,,,,,,,,,,,,,,,,,,,,
3,124799, Note_on_c,1,60,0,,,,,,,,,,,,,,,,,,,,,,,,,,,,
3,124800, Note_on_c,1,56,112,,,,,,,,,,,,,,,,,,,,,,,,,,,,
3,125039, Note_on_c,1,56,0,,,,,,,,,,,,,,,,,,,,,,,,,,,,
3,125040, Note_on_c,1,66,112,,,,,,,,,,,,,,,,,,,,,,,,,,,,
3,125279, Note_on_c,1,66,0,,,,,,,,,,,,,,,,,,,,,,,,,,,,
3,125280, Note_on_c,1,60,112,,,,,,,,,,,,,,,,,,,,,,,,,,,,
3,125519, Note_on_c,1,60,0,,,,,,,,,,,,,,,,,,,,,,,,,,,,
3,125520, Note_on_c,1,56,112,,,,,,,,,,,,,,,,,,,,,,,,,,,,
3,125759, Note_on_c,1,56,0,,,,,,,,,,,,,,,,,,,,,,,,,,,,
3,125760, Note_on_c,1,51,112,,,,,,,,,,,,,,,,,,,,,,,,,,,,
3,125999, Note_on_c,1,51,0,,,,,,,,,,,,,,,,,,,,,,,,,,,,
3,126000, Note_on_c,1,60,112,,,,,,,,,,,,,,,,,,,,,,,,,,,,
3,126239, Note_on_c,1,60,0,,,,,,,,,,,,,,,,,,,,,,,,,,,,
3,126240, Note_on_c,1,56,112,,,,,,,,,,,,,,,,,,,,,,,,,,,,
3,126479, Note_on_c,1,56,0,,,,,,,,,,,,,,,,,,,,,,,,,,,,
3,126480, Note_on_c,1,66,112,,,,,,,,,,,,,,,,,,,,,,,,,,,,
3,126719, Note_on_c,1,66,0,,,,,,,,,,,,,,,,,,,,,,,,,,,,
3,126720, Note_on_c,1,60,112,,,,,,,,,,,,,,,,,,,,,,,,,,,,
3,126959, Note_on_c,1,60,0,,,,,,,,,,,,,,,,,,,,,,,,,,,,
3,126960, Note_on_c,1,56,112,,,,,,,,,,,,,,,,,,,,,,,,,,,,
3,127199, Control_c,1,64,0,,,,,,,,,,,,,,,,,,,,,,,,,,,,
3,127199, Note_on_c,1,56,0,,,,,,,,,,,,,,,,,,,,,,,,,,,,
3,127200, Control_c,1,64,127,,,,,,,,,,,,,,,,,,,,,,,,,,,,
3,127200, Note_on_c,1,50,112,,,,,,,,,,,,,,,,,,,,,,,,,,,,
3,127200, Note_on_c,1,38,112,,,,,,,,,,,,,,,,,,,,,,,,,,,,
3,127440, Note_on_c,1,59,112,,,,,,,,,,,,,,,,,,,,,,,,,,,,
3,127679, Note_on_c,1,59,0,,,,,,,,,,,,,,,,,,,,,,,,,,,,
3,127680, Note_on_c,1,56,112,,,,,,,,,,,,,,,,,,,,,,,,,,,,
3,127919, Note_on_c,1,56,0,,,,,,,,,,,,,,,,,,,,,,,,,,,,
3,127920, Note_on_c,1,66,112,,,,,,,,,,,,,,,,,,,,,,,,,,,,
3,128159, Note_on_c,1,66,0,,,,,,,,,,,,,,,,,,,,,,,,,,,,
3,128160, Note_on_c,1,59,112,,,,,,,,,,,,,,,,,,,,,,,,,,,,
3,128399, Note_on_c,1,59,0,,,,,,,,,,,,,,,,,,,,,,,,,,,,
3,128400, Note_on_c,1,56,112,,,,,,,,,,,,,,,,,,,,,,,,,,,,
3,128639, Note_on_c,1,50,0,,,,,,,,,,,,,,,,,,,,,,,,,,,,
3,128639, Note_on_c,1,38,0,,,,,,,,,,,,,,,,,,,,,,,,,,,,
3,128639, Note_on_c,1,56,0,,,,,,,,,,,,,,,,,,,,,,,,,,,,
3,128640, Note_on_c,1,49,112,,,,,,,,,,,,,,,,,,,,,,,,,,,,
3,128640, Note_on_c,1,37,112,,,,,,,,,,,,,,,,,,,,,,,,,,,,
3,128880, Note_on_c,1,59,112,,,,,,,,,,,,,,,,,,,,,,,,,,,,
3,129119, Note_on_c,1,59,0,,,,,,,,,,,,,,,,,,,,,,,,,,,,
3,129120, Note_on_c,1,56,112,,,,,,,,,,,,,,,,,,,,,,,,,,,,
3,129359, Note_on_c,1,56,0,,,,,,,,,,,,,,,,,,,,,,,,,,,,
3,129360, Note_on_c,1,66,112,,,,,,,,,,,,,,,,,,,,,,,,,,,,
3,129599, Note_on_c,1,66,0,,,,,,,,,,,,,,,,,,,,,,,,,,,,
3,129600, Note_on_c,1,59,112,,,,,,,,,,,,,,,,,,,,,,,,,,,,
3,129839, Note_on_c,1,59,0,,,,,,,,,,,,,,,,,,,,,,,,,,,,
3,129840, Note_on_c,1,56,112,,,,,,,,,,,,,,,,,,,,,,,,,,,,
3,130079, Control_c,1,64,0,,,,,,,,,,,,,,,,,,,,,,,,,,,,
3,130079, Note_on_c,1,49,0,,,,,,,,,,,,,,,,,,,,,,,,,,,,
3,130079, Note_on_c,1,37,0,,,,,,,,,,,,,,,,,,,,,,,,,,,,
3,130079, Note_on_c,1,56,0,,,,,,,,,,,,,,,,,,,,,,,,,,,,
3,130080, Control_c,1,64,127,,,,,,,,,,,,,,,,,,,,,,,,,,,,
3,130080, Note_on_c,1,42,112,,,,,,,,,,,,,,,,,,,,,,,,,,,,
3,130319, Note_on_c,1,42,0,,,,,,,,,,,,,,,,,,,,,,,,,,,,
3,130320, Note_on_c,1,52,112,,,,,,,,,,,,,,,,,,,,,,,,,,,,
3,130559, Note_on_c,1,52,0,,,,,,,,,,,,,,,,,,,,,,,,,,,,
3,130560, Note_on_c,1,58,112,,,,,,,,,,,,,,,,,,,,,,,,,,,,
3,130799, Note_on_c,1,58,0,,,,,,,,,,,,,,,,,,,,,,,,,,,,
3,130800, Note_on_c,1,58,112,,,,,,,,,,,,,,,,,,,,,,,,,,,,
3,131039, Note_on_c,1,58,0,,,,,,,,,,,,,,,,,,,,,,,,,,,,
3,131040, Note_on_c,1,64,112,,,,,,,,,,,,,,,,,,,,,,,,,,,,
3,131279, Note_on_c,1,64,0,,,,,,,,,,,,,,,,,,,,,,,,,,,,
3,131280, Note_on_c,1,68,112,,,,,,,,,,,,,,,,,,,,,,,,,,,,
3,131519, Note_on_c,1,68,0,,,,,,,,,,,,,,,,,,,,,,,,,,,,
3,131520, Note_on_c,1,68,112,,,,,,,,,,,,,,,,,,,,,,,,,,,,
3,131759, Note_on_c,1,68,0,,,,,,,,,,,,,,,,,,,,,,,,,,,,
3,131760, Note_on_c,1,64,112,,,,,,,,,,,,,,,,,,,,,,,,,,,,
3,131999, Note_on_c,1,64,0,,,,,,,,,,,,,,,,,,,,,,,,,,,,
3,132000, Note_on_c,1,58,112,,,,,,,,,,,,,,,,,,,,,,,,,,,,
3,132239, Note_on_c,1,58,0,,,,,,,,,,,,,,,,,,,,,,,,,,,,
3,132240, Note_on_c,1,58,112,,,,,,,,,,,,,,,,,,,,,,,,,,,,
3,132479, Note_on_c,1,58,0,,,,,,,,,,,,,,,,,,,,,,,,,,,,
3,132480, Note_on_c,1,52,112,,,,,,,,,,,,,,,,,,,,,,,,,,,,
3,132719, Note_on_c,1,52,0,,,,,,,,,,,,,,,,,,,,,,,,,,,,
3,132720, Note_on_c,1,42,112,,,,,,,,,,,,,,,,,,,,,,,,,,,,
3,132959, Control_c,1,64,0,,,,,,,,,,,,,,,,,,,,,,,,,,,,
3,132959, Note_on_c,1,42,0,,,,,,,,,,,,,,,,,,,,,,,,,,,,
3,132960, Control_c,1,64,127,,,,,,,,,,,,,,,,,,,,,,,,,,,,
3,132960, Note_on_c,1,35,112,,,,,,,,,,,,,,,,,,,,,,,,,,,,
3,133199, Note_on_c,1,35,0,,,,,,,,,,,,,,,,,,,,,,,,,,,,
3,133200, Note_on_c,1,47,112,,,,,,,,,,,,,,,,,,,,,,,,,,,,
3,133439, Note_on_c,1,47,0,,,,,,,,,,,,,,,,,,,,,,,,,,,,
3,133440, Note_on_c,1,54,112,,,,,,,,,,,,,,,,,,,,,,,,,,,,
3,133679, Note_on_c,1,54,0,,,,,,,,,,,,,,,,,,,,,,,,,,,,
3,133680, Note_on_c,1,57,112,,,,,,,,,,,,,,,,,,,,,,,,,,,,
3,133919, Note_on_c,1,57,0,,,,,,,,,,,,,,,,,,,,,,,,,,,,
3,133920, Note_on_c,1,61,112,,,,,,,,,,,,,,,,,,,,,,,,,,,,
3,134159, Note_on_c,1,61,0,,,,,,,,,,,,,,,,,,,,,,,,,,,,
3,134160, Note_on_c,1,64,112,,,,,,,,,,,,,,,,,,,,,,,,,,,,
3,134399, Note_on_c,1,64,0,,,,,,,,,,,,,,,,,,,,,,,,,,,,
3,134400, Note_on_c,1,68,112,,,,,,,,,,,,,,,,,,,,,,,,,,,,
3,134639, Note_on_c,1,68,0,,,,,,,,,,,,,,,,,,,,,,,,,,,,
3,134640, Note_on_c,1,63,112,,,,,,,,,,,,,,,,,,,,,,,,,,,,
3,134879, Note_on_c,1,63,0,,,,,,,,,,,,,,,,,,,,,,,,,,,,
3,134880, Note_on_c,1,59,112,,,,,,,,,,,,,,,,,,,,,,,,,,,,
3,135119, Note_on_c,1,59,0,,,,,,,,,,,,,,,,,,,,,,,,,,,,
3,135120, Note_on_c,1,57,112,,,,,,,,,,,,,,,,,,,,,,,,,,,,
3,135359, Note_on_c,1,57,0,,,,,,,,,,,,,,,,,,,,,,,,,,,,
3,135360, Note_on_c,1,51,112,,,,,,,,,,,,,,,,,,,,,,,,,,,,
3,135599, Note_on_c,1,51,0,,,,,,,,,,,,,,,,,,,,,,,,,,,,
3,135600, Note_on_c,1,47,112,,,,,,,,,,,,,,,,,,,,,,,,,,,,
3,135839, Control_c,1,64,0,,,,,,,,,,,,,,,,,,,,,,,,,,,,
3,135839, Note_on_c,1,47,0,,,,,,,,,,,,,,,,,,,,,,,,,,,,
3,135840, Control_c,1,64,127,,,,,,,,,,,,,,,,,,,,,,,,,,,,
3,135840, Note_on_c,1,40,112,,,,,,,,,,,,,,,,,,,,,,,,,,,,
3,136079, Note_on_c,1,40,0,,,,,,,,,,,,,,,,,,,,,,,,,,,,
3,136080, Note_on_c,1,47,112,,,,,,,,,,,,,,,,,,,,,,,,,,,,
3,136319, Note_on_c,1,47,0,,,,,,,,,,,,,,,,,,,,,,,,,,,,
3,136320, Note_on_c,1,52,112,,,,,,,,,,,,,,,,,,,,,,,,,,,,
3,136559, Note_on_c,1,52,0,,,,,,,,,,,,,,,,,,,,,,,,,,,,
3,136560, Note_on_c,1,56,112,,,,,,,,,,,,,,,,,,,,,,,,,,,,
3,136799, Note_on_c,1,56,0,,,,,,,,,,,,,,,,,,,,,,,,,,,,
3,136800, Note_on_c,1,58,112,,,,,,,,,,,,,,,,,,,,,,,,,,,,
3,137039, Note_on_c,1,58,0,,,,,,,,,,,,,,,,,,,,,,,,,,,,
3,137040, Note_on_c,1,64,112,,,,,,,,,,,,,,,,,,,,,,,,,,,,
3,137279, Note_on_c,1,64,0,,,,,,,,,,,,,,,,,,,,,,,,,,,,
3,137280, Note_on_c,1,59,112,,,,,,,,,,,,,,,,,,,,,,,,,,,,
3,137519, Note_on_c,1,59,0,,,,,,,,,,,,,,,,,,,,,,,,,,,,
3,137520, Note_on_c,1,68,112,,,,,,,,,,,,,,,,,,,,,,,,,,,,
3,137759, Note_on_c,1,68,0,,,,,,,,,,,,,,,,,,,,,,,,,,,,
3,137760, Note_on_c,1,64,112,,,,,,,,,,,,,,,,,,,,,,,,,,,,
3,137999, Note_on_c,1,64,0,,,,,,,,,,,,,,,,,,,,,,,,,,,,
3,138000, Note_on_c,1,59,112,,,,,,,,,,,,,,,,,,,,,,,,,,,,
3,138239, Note_on_c,1,59,0,,,,,,,,,,,,,,,,,,,,,,,,,,,,
3,138240, Note_on_c,1,56,112,,,,,,,,,,,,,,,,,,,,,,,,,,,,
3,138479, Note_on_c,1,56,0,,,,,,,,,,,,,,,,,,,,,,,,,,,,
3,138480, Note_on_c,1,47,112,,,,,,,,,,,,,,,,,,,,,,,,,,,,
3,138719, Control_c,1,64,0,,,,,,,,,,,,,,,,,,,,,,,,,,,,
3,138719, Note_on_c,1,47,0,,,,,,,,,,,,,,,,,,,,,,,,,,,,
3,138720, Control_c,1,64,127,,,,,,,,,,,,,,,,,,,,,,,,,,,,
3,138720, Note_on_c,1,52,112,,,,,,,,,,,,,,,,,,,,,,,,,,,,
3,138720, Note_on_c,1,40,112,,,,,,,,,,,,,,,,,,,,,,,,,,,,
3,138720, Note_on_c,1,52,112,,,,,,,,,,,,,,,,,,,,,,,,,,,,
3,138959, Note_on_c,1,52,0,,,,,,,,,,,,,,,,,,,,,,,,,,,,
3,138960, Note_on_c,1,59,112,,,,,,,,,,,,,,,,,,,,,,,,,,,,
3,139199, Note_on_c,1,59,0,,,,,,,,,,,,,,,,,,,,,,,,,,,,
3,139200, Note_on_c,1,56,112,,,,,,,,,,,,,,,,,,,,,,,,,,,,
3,139439, Note_on_c,1,56,0,,,,,,,,,,,,,,,,,,,,,,,,,,,,
3,139440, Note_on_c,1,64,112,,,,,,,,,,,,,,,,,,,,,,,,,,,,
3,139679, Note_on_c,1,64,0,,,,,,,,,,,,,,,,,,,,,,,,,,,,
3,139680, Note_on_c,1,59,112,,,,,,,,,,,,,,,,,,,,,,,,,,,,
3,139919, Note_on_c,1,59,0,,,,,,,,,,,,,,,,,,,,,,,,,,,,
3,139920, Note_on_c,1,56,112,,,,,,,,,,,,,,,,,,,,,,,,,,,,
3,140159, Note_on_c,1,52,0,,,,,,,,,,,,,,,,,,,,,,,,,,,,
3,140159, Note_on_c,1,40,0,,,,,,,,,,,,,,,,,,,,,,,,,,,,
3,140159, Note_on_c,1,56,0,,,,,,,,,,,,,,,,,,,,,,,,,,,,
3,140160, Note_on_c,1,51,112,,,,,,,,,,,,,,,,,,,,,,,,,,,,
3,140160, Note_on_c,1,39,112,,,,,,,,,,,,,,,,,,,,,,,,,,,,
3,140160, Note_on_c,1,51,112,,,,,,,,,,,,,,,,,,,,,,,,,,,,
3,140399, Note_on_c,1,51,0,,,,,,,,,,,,,,,,,,,,,,,,,,,,
3,140400, Note_on_c,1,60,112,,,,,,,,,,,,,,,,,,,,,,,,,,,,
3,140639, Note_on_c,1,60,0,,,,,,,,,,,,,,,,,,,,,,,,,,,,
3,140640, Note_on_c,1,56,112,,,,,,,,,,,,,,,,,,,,,,,,,,,,
3,140879, Note_on_c,1,56,0,,,,,,,,,,,,,,,,,,,,,,,,,,,,
3,140880, Note_on_c,1,66,112,,,,,,,,,,,,,,,,,,,,,,,,,,,,
3,141119, Note_on_c,1,66,0,,,,,,,,,,,,,,,,,,,,,,,,,,,,
3,141120, Note_on_c,1,60,112,,,,,,,,,,,,,,,,,,,,,,,,,,,,
3,141359, Note_on_c,1,60,0,,,,,,,,,,,,,,,,,,,,,,,,,,,,
3,141360, Note_on_c,1,56,112,,,,,,,,,,,,,,,,,,,,,,,,,,,,
3,141599, Control_c,1,64,0,,,,,,,,,,,,,,,,,,,,,,,,,,,,
3,141599, Note_on_c,1,51,0,,,,,,,,,,,,,,,,,,,,,,,,,,,,
3,141599, Note_on_c,1,39,0,,,,,,,,,,,,,,,,,,,,,,,,,,,,
3,141599, Note_on_c,1,56,0,,,,,,,,,,,,,,,,,,,,,,,,,,,,
3,141600, Control_c,1,64,127,,,,,,,,,,,,,,,,,,,,,,,,,,,,
3,141600, Note_on_c,1,50,112,,,,,,,,,,,,,,,,,,,,,,,,,,,,
3,141600, Note_on_c,1,38,112,,,,,,,,,,,,,,,,,,,,,,,,,,,,
3,141839, Note_on_c,1,50,0,,,,,,,,,,,,,,,,,,,,,,,,,,,,
3,141839, Note_on_c,1,38,0,,,,,,,,,,,,,,,,,,,,,,,,,,,,
3,141840, Note_on_c,1,59,112,,,,,,,,,,,,,,,,,,,,,,,,,,,,
3,142079, Note_on_c,1,59,0,,,,,,,,,,,,,,,,,,,,,,,,,,,,
3,142080, Note_on_c,1,56,112,,,,,,,,,,,,,,,,,,,,,,,,,,,,
3,142319, Note_on_c,1,56,0,,,,,,,,,,,,,,,,,,,,,,,,,,,,
3,142320, Note_on_c,1,65,112,,,,,,,,,,,,,,,,,,,,,,,,,,,,
3,142559, Note_on_c,1,65,0,,,,,,,,,,,,,,,,,,,,,,,,,,,,
3,142560, Note_on_c,1,59,112,,,,,,,,,,,,,,,,,,,,,,,,,,,,
3,142799, Note_on_c,1,59,0,,,,,,,,,,,,,,,,,,,,,,,,,,,,
3,142800, Note_on_c,1,56,112,,,,,,,,,,,,,,,,,,,,,,,,,,,,
3,143039, Note_on_c,1,56,0,,,,,,,,,,,,,,,,,,,,,,,,,,,,
3,143040, Note_on_c,1,49,112,,,,,,,,,,,,,,,,,,,,,,,,,,,,
3,143279, Note_on_c,1,49,0,,,,,,,,,,,,,,,,,,,,,,,,,,,,
3,143280, Note_on_c,1,59,112,,,,,,,,,,,,,,,,,,,,,,,,,,,,
3,143519, Note_on_c,1,59,0,,,,,,,,,,,,,,,,,,,,,,,,,,,,
3,143520, Note_on_c,1,56,112,,,,,,,,,,,,,,,,,,,,,,,,,,,,
3,143759, Note_on_c,1,56,0,,,,,,,,,,,,,,,,,,,,,,,,,,,,
3,143760, Note_on_c,1,65,112,,,,,,,,,,,,,,,,,,,,,,,,,,,,
3,143999, Note_on_c,1,65,0,,,,,,,,,,,,,,,,,,,,,,,,,,,,
3,144000, Note_on_c,1,59,112,,,,,,,,,,,,,,,,,,,,,,,,,,,,
3,144239, Note_on_c,1,59,0,,,,,,,,,,,,,,,,,,,,,,,,,,,,
3,144240, Note_on_c,1,56,112,,,,,,,,,,,,,,,,,,,,,,,,,,,,
3,144479, Control_c,1,64,0,,,,,,,,,,,,,,,,,,,,,,,,,,,,
3,144479, Note_on_c,1,56,0,,,,,,,,,,,,,,,,,,,,,,,,,,,,
3,144480, Control_c,1,64,127,,,,,,,,,,,,,,,,,,,,,,,,,,,,
3,144480, Note_on_c,1,48,112,,,,,,,,,,,,,,,,,,,,,,,,,,,,
3,144480, Note_on_c,1,36,112,,,,,,,,,,,,,,,,,,,,,,,,,,,,
3,144480, Note_on_c,1,48,112,,,,,,,,,,,,,,,,,,,,,,,,,,,,
3,144719, Note_on_c,1,48,0,,,,,,,,,,,,,,,,,,,,,,,,,,,,
3,144720, Note_on_c,1,60,112,,,,,,,,,,,,,,,,,,,,,,,,,,,,
3,144959, Note_on_c,1,60,0,,,,,,,,,,,,,,,,,,,,,,,,,,,,
3,144960, Note_on_c,1,56,112,,,,,,,,,,,,,,,,,,,,,,,,,,,,
3,145199, Note_on_c,1,56,0,,,,,,,,,,,,,,,,,,,,,,,,,,,,
3,145200, Note_on_c,1,65,112,,,,,,,,,,,,,,,,,,,,,,,,,,,,
3,145439, Note_on_c,1,65,0,,,,,,,,,,,,,,,,,,,,,,,,,,,,
3,145440, Note_on_c,1,60,112,,,,,,,,,,,,,,,,,,,,,,,,,,,,
3,145679, Note_on_c,1,60,0,,,,,,,,,,,,,,,,,,,,,,,,,,,,
3,145680, Note_on_c,1,56,112,,,,,,,,,,,,,,,,,,,,,,,,,,,,
3,145919, Note_on_c,1,48,0,,,,,,,,,,,,,,,,,,,,,,,,,,,,
3,145919, Note_on_c,1,36,0,,,,,,,,,,,,,,,,,,,,,,,,,,,,
3,145919, Note_on_c,1,56,0,,,,,,,,,,,,,,,,,,,,,,,,,,,,
3,145920, Note_on_c,1,47,112,,,,,,,,,,,,,,,,,,,,,,,,,,,,
3,145920, Note_on_c,1,35,112,,,,,,,,,,,,,,,,,,,,,,,,,,,,
3,145920, Note_on_c,1,47,112,,,,,,,,,,,,,,,,,,,,,,,,,,,,
3,146159, Note_on_c,1,47,0,,,,,,,,,,,,,,,,,,,,,,,,,,,,
3,146160, Note_on_c,1,61,112,,,,,,,,,,,,,,,,,,,,,,,,,,,,
3,146399, Note_on_c,1,61,0,,,,,,,,,,,,,,,,,,,,,,,,,,,,
3,146400, Note_on_c,1,56,112,,,,,,,,,,,,,,,,,,,,,,,,,,,,
3,146639, Note_on_c,1,56,0,,,,,,,,,,,,,,,,,,,,,,,,,,,,
3,146640, Note_on_c,1,65,112,,,,,,,,,,,,,,,,,,,,,,,,,,,,
3,146879, Note_on_c,1,65,0,,,,,,,,,,,,,,,,,,,,,,,,,,,,
3,146880, Note_on_c,1,61,112,,,,,,,,,,,,,,,,,,,,,,,,,,,,
3,147119, Note_on_c,1,61,0,,,,,,,,,,,,,,,,,,,,,,,,,,,,
3,147120, Note_on_c,1,56,112,,,,,,,,,,,,,,,,,,,,,,,,,,,,
3,147359, Control_c,1,64,0,,,,,,,,,,,,,,,,,,,,,,,,,,,,
3,147359, Note_on_c,1,47,0,,,,,,,,,,,,,,,,,,,,,,,,,,,,
3,147359, Note_on_c,1,35,0,,,,,,,,,,,,,,,,,,,,,,,,,,,,
3,147359, Note_on_c,1,56,0,,,,,,,,,,,,,,,,,,,,,,,,,,,,
3,147360, Key_signature,-4," ""major""",,,,,,,,,,,,,,,,,,,,,,,,,,,,,
3,147360, Control_c,1,64,127,,,,,,,,,,,,,,,,,,,,,,,,,,,,
3,147360, Note_on_c,1,46,112,,,,,,,,,,,,,,,,,,,,,,,,,,,,
3,147360, Note_on_c,1,34,112,,,,,,,,,,,,,,,,,,,,,,,,,,,,
3,147599, Note_on_c,1,46,0,,,,,,,,,,,,,,,,,,,,,,,,,,,,
3,147599, Note_on_c,1,34,0,,,,,,,,,,,,,,,,,,,,,,,,,,,,
3,147600, Note_on_c,1,56,112,,,,,,,,,,,,,,,,,,,,,,,,,,,,
3,147839, Note_on_c,1,56,0,,,,,,,,,,,,,,,,,,,,,,,,,,,,
3,147840, Note_on_c,1,62,112,,,,,,,,,,,,,,,,,,,,,,,,,,,,
3,148079, Note_on_c,1,62,0,,,,,,,,,,,,,,,,,,,,,,,,,,,,
3,148080, Note_on_c,1,65,112,,,,,,,,,,,,,,,,,,,,,,,,,,,,
3,148319, Note_on_c,1,65,0,,,,,,,,,,,,,,,,,,,,,,,,,,,,
3,148320, Note_on_c,1,62,112,,,,,,,,,,,,,,,,,,,,,,,,,,,,
3,148559, Note_on_c,1,62,0,,,,,,,,,,,,,,,,,,,,,,,,,,,,
3,148560, Note_on_c,1,56,112,,,,,,,,,,,,,,,,,,,,,,,,,,,,
3,148799, Note_on_c,1,56,0,,,,,,,,,,,,,,,,,,,,,,,,,,,,
3,148800, Note_on_c,1,53,112,,,,,,,,,,,,,,,,,,,,,,,,,,,,
3,149039, Note_on_c,1,53,0,,,,,,,,,,,,,,,,,,,,,,,,,,,,
3,149040, Note_on_c,1,56,112,,,,,,,,,,,,,,,,,,,,,,,,,,,,
3,149279, Note_on_c,1,56,0,,,,,,,,,,,,,,,,,,,,,,,,,,,,
3,149280, Note_on_c,1,62,112,,,,,,,,,,,,,,,,,,,,,,,,,,,,
3,149519, Note_on_c,1,62,0,,,,,,,,,,,,,,,,,,,,,,,,,,,,
3,149520, Note_on_c,1,65,112,,,,,,,,,,,,,,,,,,,,,,,,,,,,
3,149759, Note_on_c,1,65,0,,,,,,,,,,,,,,,,,,,,,,,,,,,,
3,149760, Note_on_c,1,62,112,,,,,,,,,,,,,,,,,,,,,,,,,,,,
3,149999, Note_on_c,1,62,0,,,,,,,,,,,,,,,,,,,,,,,,,,,,
3,150000, Note_on_c,1,56,112,,,,,,,,,,,,,,,,,,,,,,,,,,,,
3,150239, Control_c,1,64,0,,,,,,,,,,,,,,,,,,,,,,,,,,,,
3,150239, Note_on_c,1,56,0,,,,,,,,,,,,,,,,,,,,,,,,,,,,
3,150240, Control_c,1,64,127,,,,,,,,,,,,,,,,,,,,,,,,,,,,
3,150240, Note_on_c,1,39,112,,,,,,,,,,,,,,,,,,,,,,,,,,,,
3,150479, Note_on_c,1,39,0,,,,,,,,,,,,,,,,,,,,,,,,,,,,
3,150480, Note_on_c,1,49,112,,,,,,,,,,,,,,,,,,,,,,,,,,,,
3,150719, Note_on_c,1,49,0,,,,,,,,,,,,,,,,,,,,,,,,,,,,
3,150720, Note_on_c,1,53,112,,,,,,,,,,,,,,,,,,,,,,,,,,,,
3,150959, Note_on_c,1,53,0,,,,,,,,,,,,,,,,,,,,,,,,,,,,
3,150960, Note_on_c,1,56,112,,,,,,,,,,,,,,,,,,,,,,,,,,,,
3,151199, Note_on_c,1,56,0,,,,,,,,,,,,,,,,,,,,,,,,,,,,
3,151200, Note_on_c,1,58,112,,,,,,,,,,,,,,,,,,,,,,,,,,,,
3,151439, Note_on_c,1,58,0,,,,,,,,,,,,,,,,,,,,,,,,,,,,
3,151440, Note_on_c,1,61,112,,,,,,,,,,,,,,,,,,,,,,,,,,,,
3,151679, Note_on_c,1,61,0,,,,,,,,,,,,,,,,,,,,,,,,,,,,
3,151680, Note_on_c,1,65,112,,,,,,,,,,,,,,,,,,,,,,,,,,,,
3,151919, Note_on_c,1,65,0,,,,,,,,,,,,,,,,,,,,,,,,,,,,
3,151920, Note_on_c,1,61,112,,,,,,,,,,,,,,,,,,,,,,,,,,,,
3,152159, Note_on_c,1,61,0,,,,,,,,,,,,,,,,,,,,,,,,,,,,
3,152160, Note_on_c,1,58,112,,,,,,,,,,,,,,,,,,,,,,,,,,,,
3,152399, Note_on_c,1,58,0,,,,,,,,,,,,,,,,,,,,,,,,,,,,
3,152400, Note_on_c,1,56,112,,,,,,,,,,,,,,,,,,,,,,,,,,,,
3,152639, Note_on_c,1,56,0,,,,,,,,,,,,,,,,,,,,,,,,,,,,
3,152640, Note_on_c,1,53,112,,,,,,,,,,,,,,,,,,,,,,,,,,,,
3,152879, Note_on_c,1,53,0,,,,,,,,,,,,,,,,,,,,,,,,,,,,
3,152880, Note_on_c,1,49,112,,,,,,,,,,,,,,,,,,,,,,,,,,,,
3,153119, Control_c,1,64,0,,,,,,,,,,,,,,,,,,,,,,,,,,,,
3,153119, Note_on_c,1,49,0,,,,,,,,,,,,,,,,,,,,,,,,,,,,
3,153120, Control_c,1,64,127,,,,,,,,,,,,,,,,,,,,,,,,,,,,
3,153120, Note_on_c,1,46,112,,,,,,,,,,,,,,,,,,,,,,,,,,,,
3,153120, Note_on_c,1,34,112,,,,,,,,,,,,,,,,,,,,,,,,,,,,
3,153359, Note_on_c,1,46,0,,,,,,,,,,,,,,,,,,,,,,,,,,,,
3,153359, Note_on_c,1,34,0,,,,,,,,,,,,,,,,,,,,,,,,,,,,
3,153360, Note_on_c,1,56,112,,,,,,,,,,,,,,,,,,,,,,,,,,,,
3,153599, Note_on_c,1,56,0,,,,,,,,,,,,,,,,,,,,,,,,,,,,
3,153600, Note_on_c,1,62,112,,,,,,,,,,,,,,,,,,,,,,,,,,,,
3,153839, Note_on_c,1,62,0,,,,,,,,,,,,,,,,,,,,,,,,,,,,
3,153840, Note_on_c,1,65,112,,,,,,,,,,,,,,,,,,,,,,,,,,,,
3,154079, Note_on_c,1,65,0,,,,,,,,,,,,,,,,,,,,,,,,,,,,
3,154080, Note_on_c,1,62,112,,,,,,,,,,,,,,,,,,,,,,,,,,,,
3,154319, Note_on_c,1,62,0,,,,,,,,,,,,,,,,,,,,,,,,,,,,
3,154320, Note_on_c,1,56,112,,,,,,,,,,,,,,,,,,,,,,,,,,,,
3,154559, Note_on_c,1,56,0,,,,,,,,,,,,,,,,,,,,,,,,,,,,
3,154560, Note_on_c,1,53,112,,,,,,,,,,,,,,,,,,,,,,,,,,,,
3,154799, Note_on_c,1,53,0,,,,,,,,,,,,,,,,,,,,,,,,,,,,
3,154800, Note_on_c,1,56,112,,,,,,,,,,,,,,,,,,,,,,,,,,,,
3,155039, Note_on_c,1,56,0,,,,,,,,,,,,,,,,,,,,,,,,,,,,
3,155040, Note_on_c,1,62,112,,,,,,,,,,,,,,,,,,,,,,,,,,,,
3,155279, Note_on_c,1,62,0,,,,,,,,,,,,,,,,,,,,,,,,,,,,
3,155280, Note_on_c,1,65,112,,,,,,,,,,,,,,,,,,,,,,,,,,,,
3,155519, Note_on_c,1,65,0,,,,,,,,,,,,,,,,,,,,,,,,,,,,
3,155520, Note_on_c,1,62,112,,,,,,,,,,,,,,,,,,,,,,,,,,,,
3,155759, Note_on_c,1,62,0,,,,,,,,,,,,,,,,,,,,,,,,,,,,
3,155760, Note_on_c,1,56,112,,,,,,,,,,,,,,,,,,,,,,,,,,,,
3,155999, Control_c,1,64,0,,,,,,,,,,,,,,,,,,,,,,,,,,,,
3,155999, Note_on_c,1,56,0,,,,,,,,,,,,,,,,,,,,,,,,,,,,
3,156000, Control_c,1,64,127,,,,,,,,,,,,,,,,,,,,,,,,,,,,
3,156000, Note_on_c,1,39,112,,,,,,,,,,,,,,,,,,,,,,,,,,,,
3,156239, Note_on_c,1,39,0,,,,,,,,,,,,,,,,,,,,,,,,,,,,
3,156240, Note_on_c,1,49,112,,,,,,,,,,,,,,,,,,,,,,,,,,,,
3,156479, Note_on_c,1,49,0,,,,,,,,,,,,,,,,,,,,,,,,,,,,
3,156480, Note_on_c,1,53,112,,,,,,,,,,,,,,,,,,,,,,,,,,,,
3,156719, Note_on_c,1,53,0,,,,,,,,,,,,,,,,,,,,,,,,,,,,
3,156720, Note_on_c,1,56,112,,,,,,,,,,,,,,,,,,,,,,,,,,,,
3,156959, Note_on_c,1,56,0,,,,,,,,,,,,,,,,,,,,,,,,,,,,
3,156960, Note_on_c,1,58,112,,,,,,,,,,,,,,,,,,,,,,,,,,,,
3,157199, Note_on_c,1,58,0,,,,,,,,,,,,,,,,,,,,,,,,,,,,
3,157200, Note_on_c,1,61,112,,,,,,,,,,,,,,,,,,,,,,,,,,,,
3,157439, Note_on_c,1,61,0,,,,,,,,,,,,,,,,,,,,,,,,,,,,
3,157440, Note_on_c,1,65,112,,,,,,,,,,,,,,,,,,,,,,,,,,,,
3,157679, Note_on_c,1,65,0,,,,,,,,,,,,,,,,,,,,,,,,,,,,
3,157680, Note_on_c,1,61,112,,,,,,,,,,,,,,,,,,,,,,,,,,,,
3,157919, Note_on_c,1,61,0,,,,,,,,,,,,,,,,,,,,,,,,,,,,
3,157920, Note_on_c,1,58,112,,,,,,,,,,,,,,,,,,,,,,,,,,,,
3,158159, Note_on_c,1,58,0,,,,,,,,,,,,,,,,,,,,,,,,,,,,
3,158160, Note_on_c,1,56,112,,,,,,,,,,,,,,,,,,,,,,,,,,,,
3,158399, Note_on_c,1,56,0,,,,,,,,,,,,,,,,,,,,,,,,,,,,
3,158400, Note_on_c,1,53,112,,,,,,,,,,,,,,,,,,,,,,,,,,,,
3,158639, Note_on_c,1,53,0,,,,,,,,,,,,,,,,,,,,,,,,,,,,
3,158640, Note_on_c,1,49,112,,,,,,,,,,,,,,,,,,,,,,,,,,,,
3,158879, Control_c,1,64,0,,,,,,,,,,,,,,,,,,,,,,,,,,,,
3,158879, Note_on_c,1,49,0,,,,,,,,,,,,,,,,,,,,,,,,,,,,
3,158880, Control_c,1,64,127,,,,,,,,,,,,,,,,,,,,,,,,,,,,
3,158880, Note_on_c,1,47,112,,,,,,,,,,,,,,,,,,,,,,,,,,,,
3,158880, Note_on_c,1,35,112,,,,,,,,,,,,,,,,,,,,,,,,,,,,
3,159119, Note_on_c,1,47,0,,,,,,,,,,,,,,,,,,,,,,,,,,,,
3,159119, Note_on_c,1,35,0,,,,,,,,,,,,,,,,,,,,,,,,,,,,
3,159120, Note_on_c,1,56,112,,,,,,,,,,,,,,,,,,,,,,,,,,,,
3,159359, Note_on_c,1,56,0,,,,,,,,,,,,,,,,,,,,,,,,,,,,
3,159360, Note_on_c,1,62,112,,,,,,,,,,,,,,,,,,,,,,,,,,,,
3,159599, Note_on_c,1,62,0,,,,,,,,,,,,,,,,,,,,,,,,,,,,
3,159600, Note_on_c,1,65,112,,,,,,,,,,,,,,,,,,,,,,,,,,,,
3,159839, Note_on_c,1,65,0,,,,,,,,,,,,,,,,,,,,,,,,,,,,
3,159840, Note_on_c,1,62,112,,,,,,,,,,,,,,,,,,,,,,,,,,,,
3,160079, Note_on_c,1,62,0,,,,,,,,,,,,,,,,,,,,,,,,,,,,
3,160080, Note_on_c,1,56,112,,,,,,,,,,,,,,,,,,,,,,,,,,,,
3,160319, Note_on_c,1,56,0,,,,,,,,,,,,,,,,,,,,,,,,,,,,
3,160320, Note_on_c,1,46,112,,,,,,,,,,,,,,,,,,,,,,,,,,,,
3,160320, Note_on_c,1,34,112,,,,,,,,,,,,,,,,,,,,,,,,,,,,
3,160559, Note_on_c,1,46,0,,,,,,,,,,,,,,,,,,,,,,,,,,,,
3,160559, Note_on_c,1,34,0,,,,,,,,,,,,,,,,,,,,,,,,,,,,
3,160560, Note_on_c,1,53,112,,,,,,,,,,,,,,,,,,,,,,,,,,,,
3,160799, Note_on_c,1,53,0,,,,,,,,,,,,,,,,,,,,,,,,,,,,
3,160800, Note_on_c,1,56,112,,,,,,,,,,,,,,,,,,,,,,,,,,,,
3,161039, Note_on_c,1,56,0,,,,,,,,,,,,,,,,,,,,,,,,,,,,
3,161040, Note_on_c,1,62,112,,,,,,,,,,,,,,,,,,,,,,,,,,,,
3,161279, Note_on_c,1,62,0,,,,,,,,,,,,,,,,,,,,,,,,,,,,
3,161280, Note_on_c,1,56,112,,,,,,,,,,,,,,,,,,,,,,,,,,,,
3,161519, Note_on_c,1,56,0,,,,,,,,,,,,,,,,,,,,,,,,,,,,
3,161520, Note_on_c,1,53,112,,,,,,,,,,,,,,,,,,,,,,,,,,,,
3,161759, Control_c,1,64,0,,,,,,,,,,,,,,,,,,,,,,,,,,,,
3,161759, Note_on_c,1,53,0,,,,,,,,,,,,,,,,,,,,,,,,,,,,
3,164640, Control_c,1,64,127,,,,,,,,,,,,,,,,,,,,,,,,,,,,
3,164640, Note_on_c,1,39,112,,,,,,,,,,,,,,,,,,,,,,,,,,,,
3,164879, Note_on_c,1,39,0,,,,,,,,,,,,,,,,,,,,,,,,,,,,
3,164880, Note_on_c,1,49,112,,,,,,,,,,,,,,,,,,,,,,,,,,,,
3,165119, Note_on_c,1,49,0,,,,,,,,,,,,,,,,,,,,,,,,,,,,
3,165120, Note_on_c,1,53,112,,,,,,,,,,,,,,,,,,,,,,,,,,,,
3,165359, Note_on_c,1,53,0,,,,,,,,,,,,,,,,,,,,,,,,,,,,
3,165360, Note_on_c,1,56,112,,,,,,,,,,,,,,,,,,,,,,,,,,,,
3,165599, Note_on_c,1,56,0,,,,,,,,,,,,,,,,,,,,,,,,,,,,
3,165600, Note_on_c,1,58,112,,,,,,,,,,,,,,,,,,,,,,,,,,,,
3,165839, Note_on_c,1,58,0,,,,,,,,,,,,,,,,,,,,,,,,,,,,
3,165840, Note_on_c,1,61,112,,,,,,,,,,,,,,,,,,,,,,,,,,,,
3,166079, Note_on_c,1,61,0,,,,,,,,,,,,,,,,,,,,,,,,,,,,
3,166080, Note_on_c,1,65,112,,,,,,,,,,,,,,,,,,,,,,,,,,,,
3,166319, Note_on_c,1,65,0,,,,,,,,,,,,,,,,,,,,,,,,,,,,
3,166320, Note_on_c,1,61,112,,,,,,,,,,,,,,,,,,,,,,,,,,,,
3,166559, Note_on_c,1,61,0,,,,,,,,,,,,,,,,,,,,,,,,,,,,
3,166560, Note_on_c,1,58,112,,,,,,,,,,,,,,,,,,,,,,,,,,,,
3,166799, Note_on_c,1,58,0,,,,,,,,,,,,,,,,,,,,,,,,,,,,
3,166800, Note_on_c,1,55,112,,,,,,,,,,,,,,,,,,,,,,,,,,,,
3,167039, Note_on_c,1,55,0,,,,,,,,,,,,,,,,,,,,,,,,,,,,
3,167040, Note_on_c,1,53,112,,,,,,,,,,,,,,,,,,,,,,,,,,,,
3,167279, Note_on_c,1,53,0,,,,,,,,,,,,,,,,,,,,,,,,,,,,
3,167280, Note_on_c,1,49,112,,,,,,,,,,,,,,,,,,,,,,,,,,,,
3,167519, Control_c,1,64,0,,,,,,,,,,,,,,,,,,,,,,,,,,,,
3,167519, Note_on_c,1,49,0,,,,,,,,,,,,,,,,,,,,,,,,,,,,
3,167520, Control_c,1,64,127,,,,,,,,,,,,,,,,,,,,,,,,,,,,
3,167520, Note_on_c,1,39,112,,,,,,,,,,,,,,,,,,,,,,,,,,,,
3,167759, Note_on_c,1,39,0,,,,,,,,,,,,,,,,,,,,,,,,,,,,
3,167760, Note_on_c,1,49,112,,,,,,,,,,,,,,,,,,,,,,,,,,,,
3,167999, Note_on_c,1,49,0,,,,,,,,,,,,,,,,,,,,,,,,,,,,
3,168000, Note_on_c,1,53,112,,,,,,,,,,,,,,,,,,,,,,,,,,,,
3,168239, Note_on_c,1,53,0,,,,,,,,,,,,,,,,,,,,,,,,,,,,
3,168240, Note_on_c,1,56,112,,,,,,,,,,,,,,,,,,,,,,,,,,,,
3,168479, Note_on_c,1,56,0,,,,,,,,,,,,,,,,,,,,,,,,,,,,
3,168480, Note_on_c,1,58,112,,,,,,,,,,,,,,,,,,,,,,,,,,,,
3,168719, Note_on_c,1,58,0,,,,,,,,,,,,,,,,,,,,,,,,,,,,
3,168720, Note_on_c,1,61,112,,,,,,,,,,,,,,,,,,,,,,,,,,,,
3,168959, Note_on_c,1,61,0,,,,,,,,,,,,,,,,,,,,,,,,,,,,
3,168960, Note_on_c,1,68,112,,,,,,,,,,,,,,,,,,,,,,,,,,,,
3,169199, Note_on_c,1,68,0,,,,,,,,,,,,,,,,,,,,,,,,,,,,
3,169200, Note_on_c,1,65,112,,,,,,,,,,,,,,,,,,,,,,,,,,,,
3,169439, Note_on_c,1,65,0,,,,,,,,,,,,,,,,,,,,,,,,,,,,
3,169440, Note_on_c,1,61,112,,,,,,,,,,,,,,,,,,,,,,,,,,,,
3,169679, Note_on_c,1,61,0,,,,,,,,,,,,,,,,,,,,,,,,,,,,
3,169680, Note_on_c,1,56,112,,,,,,,,,,,,,,,,,,,,,,,,,,,,
3,169919, Note_on_c,1,56,0,,,,,,,,,,,,,,,,,,,,,,,,,,,,
3,169920, Note_on_c,1,53,112,,,,,,,,,,,,,,,,,,,,,,,,,,,,
3,170159, Note_on_c,1,53,0,,,,,,,,,,,,,,,,,,,,,,,,,,,,
3,170160, Note_on_c,1,49,112,,,,,,,,,,,,,,,,,,,,,,,,,,,,
3,170399, Control_c,1,64,0,,,,,,,,,,,,,,,,,,,,,,,,,,,,
3,170399, Note_on_c,1,49,0,,,,,,,,,,,,,,,,,,,,,,,,,,,,
3,170400, Control_c,1,64,127,,,,,,,,,,,,,,,,,,,,,,,,,,,,
3,170400, Note_on_c,1,39,112,,,,,,,,,,,,,,,,,,,,,,,,,,,,
3,170639, Note_on_c,1,39,0,,,,,,,,,,,,,,,,,,,,,,,,,,,,
3,170640, Note_on_c,1,43,112,,,,,,,,,,,,,,,,,,,,,,,,,,,,
3,170879, Note_on_c,1,43,0,,,,,,,,,,,,,,,,,,,,,,,,,,,,
3,170880, Note_on_c,1,49,112,,,,,,,,,,,,,,,,,,,,,,,,,,,,
3,171119, Note_on_c,1,49,0,,,,,,,,,,,,,,,,,,,,,,,,,,,,
3,171120, Note_on_c,1,55,112,,,,,,,,,,,,,,,,,,,,,,,,,,,,
3,171359, Note_on_c,1,55,0,,,,,,,,,,,,,,,,,,,,,,,,,,,,
3,171360, Note_on_c,1,58,112,,,,,,,,,,,,,,,,,,,,,,,,,,,,
3,171599, Note_on_c,1,58,0,,,,,,,,,,,,,,,,,,,,,,,,,,,,
3,171600, Note_on_c,1,61,112,,,,,,,,,,,,,,,,,,,,,,,,,,,,
3,171839, Note_on_c,1,61,0,,,,,,,,,,,,,,,,,,,,,,,,,,,,
3,173279, Control_c,1,64,0,,,,,,,,,,,,,,,,,,,,,,,,,,,,
3,187680, Control_c,1,64,127,,,,,,,,,,,,,,,,,,,,,,,,,,,,
3,187680, Note_on_c,1,44,80,,,,,,,,,,,,,,,,,,,,,,,,,,,,
3,188159, Note_on_c,1,44,0,,,,,,,,,,,,,,,,,,,,,,,,,,,,
3,190559, Control_c,1,64,0,,,,,,,,,,,,,,,,,,,,,,,,,,,,
3,190560, Control_c,1,64,127,,,,,,,,,,,,,,,,,,,,,,,,,,,,
3,190560, Note_on_c,1,43,80,,,,,,,,,,,,,,,,,,,,,,,,,,,,
3,191039, Note_on_c,1,43,0,,,,,,,,,,,,,,,,,,,,,,,,,,,,
3,193439, Control_c,1,64,0,,,,,,,,,,,,,,,,,,,,,,,,,,,,
3,193440, Control_c,1,64,127,,,,,,,,,,,,,,,,,,,,,,,,,,,,
3,193440, Note_on_c,1,41,80,,,,,,,,,,,,,,,,,,,,,,,,,,,,
3,193919, Note_on_c,1,41,0,,,,,,,,,,,,,,,,,,,,,,,,,,,,
3,196319, Control_c,1,64,0,,,,,,,,,,,,,,,,,,,,,,,,,,,,
3,196320, Control_c,1,64,127,,,,,,,,,,,,,,,,,,,,,,,,,,,,
3,196320, Note_on_c,1,46,80,,,,,,,,,,,,,,,,,,,,,,,,,,,,
3,196320, Note_on_c,1,34,80,,,,,,,,,,,,,,,,,,,,,,,,,,,,
3,196799, Note_on_c,1,46,0,,,,,,,,,,,,,,,,,,,,,,,,,,,,
3,196799, Note_on_c,1,34,0,,,,,,,,,,,,,,,,,,,,,,,,,,,,
3,199199, Control_c,1,64,0,,,,,,,,,,,,,,,,,,,,,,,,,,,,
3,199200, Control_c,1,64,127,,,,,,,,,,,,,,,,,,,,,,,,,,,,
3,199200, Note_on_c,1,51,80,,,,,,,,,,,,,,,,,,,,,,,,,,,,
3,199200, Note_on_c,1,39,80,,,,,,,,,,,,,,,,,,,,,,,,,,,,
3,199679, Note_on_c,1,51,0,,,,,,,,,,,,,,,,,,,,,,,,,,,,
3,199679, Note_on_c,1,39,0,,,,,,,,,,,,,,,,,,,,,,,,,,,,
3,202079, Control_c,1,64,0,,,,,,,,,,,,,,,,,,,,,,,,,,,,
3,202080, Control_c,1,64,127,,,,,,,,,,,,,,,,,,,,,,,,,,,,
3,202080, Note_on_c,1,44,80,,,,,,,,,,,,,,,,,,,,,,,,,,,,
3,202080, Note_on_c,1,32,80,,,,,,,,,,,,,,,,,,,,,,,,,,,,
3,202559, Note_on_c,1,44,0,,,,,,,,,,,,,,,,,,,,,,,,,,,,
3,202559, Note_on_c,1,32,0,,,,,,,,,,,,,,,,,,,,,,,,,,,,
3,204959, Control_c,1,64,0,,,,,,,,,,,,,,,,,,,,,,,,,,,,
3,204960, Control_c,1,64,127,,,,,,,,,,,,,,,,,,,,,,,,,,,,
3,204960, Note_on_c,1,44,80,,,,,,,,,,,,,,,,,,,,,,,,,,,,
3,205020, Note_on_c,1,51,80,,,,,,,,,,,,,,,,,,,,,,,,,,,,
3,205080, Note_on_c,1,60,80,,,,,,,,,,,,,,,,,,,,,,,,,,,,
3,205439, Note_on_c,1,44,0,,,,,,,,,,,,,,,,,,,,,,,,,,,,
3,205499, Note_on_c,1,51,0,,,,,,,,,,,,,,,,,,,,,,,,,,,,
3,205559, Note_on_c,1,60,0,,,,,,,,,,,,,,,,,,,,,,,,,,,,
3,207839, Control_c,1,64,0,,,,,,,,,,,,,,,,,,,,,,,,,,,,
3,207840, Control_c,1,64,127,,,,,,,,,,,,,,,,,,,,,,,,,,,,
3,207840, Note_on_c,1,58,80,,,,,,,,,,,,,,,,,,,,,,,,,,,,
3,207840, Note_on_c,1,52,80,,,,,,,,,,,,,,,,,,,,,,,,,,,,
3,207840, Note_on_c,1,43,80,,,,,,,,,,,,,,,,,,,,,,,,,,,,
3,208319, Note_on_c,1,58,0,,,,,,,,,,,,,,,,,,,,,,,,,,,,
3,208319, Note_on_c,1,52,0,,,,,,,,,,,,,,,,,,,,,,,,,,,,
3,208319, Note_on_c,1,43,0,,,,,,,,,,,,,,,,,,,,,,,,,,,,
3,210719, Control_c,1,64,0,,,,,,,,,,,,,,,,,,,,,,,,,,,,
3,210720, Control_c,1,64,127,,,,,,,,,,,,,,,,,,,,,,,,,,,,
3,210720, Note_on_c,1,57,80,,,,,,,,,,,,,,,,,,,,,,,,,,,,
3,210720, Note_on_c,1,41,80,,,,,,,,,,,,,,,,,,,,,,,,,,,,
3,212159, Note_on_c,1,57,0,,,,,,,,,,,,,,,,,,,,,,,,,,,,
3,212159, Note_on_c,1,41,0,,,,,,,,,,,,,,,,,,,,,,,,,,,,
3,212160, Note_on_c,1,54,80,,,,,,,,,,,,,,,,,,,,,,,,,,,,
3,212160, Note_on_c,1,39,80,,,,,,,,,,,,,,,,,,,,,,,,,,,,
3,213599, Control_c,1,64,0,,,,,,,,,,,,,,,,,,,,,,,,,,,,
3,213599, Note_on_c,1,54,0,,,,,,,,,,,,,,,,,,,,,,,,,,,,
3,213599, Note_on_c,1,39,0,,,,,,,,,,,,,,,,,,,,,,,,,,,,
3,213600, Control_c,1,64,127,,,,,,,,,,,,,,,,,,,,,,,,,,,,
3,213600, Note_on_c,1,53,80,,,,,,,,,,,,,,,,,,,,,,,,,,,,
3,213600, Note_on_c,1,38,80,,,,,,,,,,,,,,,,,,,,,,,,,,,,
3,214079, Note_on_c,1,53,0,,,,,,,,,,,,,,,,,,,,,,,,,,,,
3,214079, Note_on_c,1,38,0,,,,,,,,,,,,,,,,,,,,,,,,,,,,
3,216479, Control_c,1,64,0,,,,,,,,,,,,,,,,,,,,,,,,,,,,
3,216480, Control_c,1,64,127,,,,,,,,,,,,,,,,,,,,,,,,,,,,
3,216480, Note_on_c,1,52,80,,,,,,,,,,,,,,,,,,,,,,,,,,,,
3,216480, Note_on_c,1,37,80,,,,,,,,,,,,,,,,,,,,,,,,,,,,
3,216959, Note_on_c,1,52,0,,,,,,,,,,,,,,,,,,,,,,,,,,,,
3,216959, Note_on_c,1,37,0,,,,,,,,,,,,,,,,,,,,,,,,,,,,
3,219359, Control_c,1,64,0,,,,,,,,,,,,,,,,,,,,,,,,,,,,
3,219360, Control_c,1,64,127,,,,,,,,,,,,,,,,,,,,,,,,,,,,
3,219360, Note_on_c,1,36,80,,,,,,,,,,,,,,,,,,,,,,,,,,,,
3,219420, Note_on_c,1,51,80,,,,,,,,,,,,,,,,,,,,,,,,,,,,
3,219839, Note_on_c,1,36,0,,,,,,,,,,,,,,,,,,,,,,,,,,,,
3,219899, Note_on_c,1,51,0,,,,,,,,,,,,,,,,,,,,,,,,,,,,
3,222239, Control_c,1,64,0,,,,,,,,,,,,,,,,,,,,,,,,,,,,
3,222240, Control_c,1,64,127,,,,,,,,,,,,,,,,,,,,,,,,,,,,
3,222240, Note_on_c,1,50,80,,,,,,,,,,,,,,,,,,,,,,,,,,,,
3,222240, Note_on_c,1,35,80,,,,,,,,,,,,,,,,,,,,,,,,,,,,
3,222719, Note_on_c,1,50,0,,,,,,,,,,,,,,,,,,,,,,,,,,,,
3,222719, Note_on_c,1,35,0,,,,,,,,,,,,,,,,,,,,,,,,,,,,
3,225119, Control_c,1,64,0,,,,,,,,,,,,,,,,,,,,,,,,,,,,
3,225120, Control_c,1,64,127,,,,,,,,,,,,,,,,,,,,,,,,,,,,
3,225120, Note_on_c,1,49,80,,,,,,,,,,,,,,,,,,,,,,,,,,,,
3,225120, Note_on_c,1,34,80,,,,,,,,,,,,,,,,,,,,,,,,,,,,
3,225599, Note_on_c,1,49,0,,,,,,,,,,,,,,,,,,,,,,,,,,,,
3,225599, Note_on_c,1,34,0,,,,,,,,,,,,,,,,,,,,,,,,,,,,
3,227999, Control_c,1,64,0,,,,,,,,,,,,,,,,,,,,,,,,,,,,
3,228000, Control_c,1,64,127,,,,,,,,,,,,,,,,,,,,,,,,,,,,
3,228000, Note_on_c,1,39,80,,,,,,,,,,,,,,,,,,,,,,,,,,,,
3,229440, Note_on_c,1,55,80,,,,,,,,,,,,,,,,,,,,,,,,,,,,
3,230879, Control_c,1,64,0,,,,,,,,,,,,,,,,,,,,,,,,,,,,
3,230879, Note_on_c,1,55,0,,,,,,,,,,,,,,,,,,,,,,,,,,,,
3,230879, Note_on_c,1,39,0,,,,,,,,,,,,,,,,,,,,,,,,,,,,
3,230880, Control_c,1,64,127,,,,,,,,,,,,,,,,,,,,,,,,,,,,
3,231120, Note_on_c,1,32,80,,,,,,,,,,,,,,,,,,,,,,,,,,,,
3,231359, Note_on_c,1,32,0,,,,,,,,,,,,,,,,,,,,,,,,,,,,
3,231360, Note_on_c,1,44,80,,,,,,,,,,,,,,,,,,,,,,,,,,,,
3,231599, Note_on_c,1,44,0,,,,,,,,,,,,,,,,,,,,,,,,,,,,
3,231600, Note_on_c,1,48,80,,,,,,,,,,,,,,,,,,,,,,,,,,,,
3,231839, Note_on_c,1,48,0,,,,,,,,,,,,,,,,,,,,,,,,,,,,
3,231840, Note_on_c,1,56,80,,,,,,,,,,,,,,,,,,,,,,,,,,,,
3,232079, Note_on_c,1,56,0,,,,,,,,,,,,,,,,,,,,,,,,,,,,
3,233759, Control_c,1,64,0,,,,,,,,,,,,,,,,,,,,,,,,,,,,
3,236640, Control_c,1,64,127,,,,,,,,,,,,,,,,,,,,,,,,,,,,
3,239519, Control_c,1,64,0,,,,,,,,,,,,,,,,,,,,,,,,,,,,
3,245280, Control_c,1,64,127,,,,,,,,,,,,,,,,,,,,,,,,,,,,
3,245280, Note_on_c,1,37,80,,,,,,,,,,,,,,,,,,,,,,,,,,,,
3,245340, Note_on_c,1,57,80,,,,,,,,,,,,,,,,,,,,,,,,,,,,
3,248159, Control_c,1,64,0,,,,,,,,,,,,,,,,,,,,,,,,,,,,
3,248159, Note_on_c,1,37,0,,,,,,,,,,,,,,,,,,,,,,,,,,,,
3,248160, Control_c,1,64,127,,,,,,,,,,,,,,,,,,,,,,,,,,,,
3,248160, Note_on_c,1,39,80,,,,,,,,,,,,,,,,,,,,,,,,,,,,
3,248160, Note_on_c,1,56,80,,,,,,,,,,,,,,,,,,,,,,,,,,,,
3,248219, Note_on_c,1,57,0,,,,,,,,,,,,,,,,,,,,,,,,,,,,
3,249599, Note_on_c,1,56,0,,,,,,,,,,,,,,,,,,,,,,,,,,,,
3,249600, Note_on_c,1,55,80,,,,,,,,,,,,,,,,,,,,,,,,,,,,
3,251039, Control_c,1,64,0,,,,,,,,,,,,,,,,,,,,,,,,,,,,
3,251039, Note_on_c,1,39,0,,,,,,,,,,,,,,,,,,,,,,,,,,,,
3,251039, Note_on_c,1,55,0,,,,,,,,,,,,,,,,,,,,,,,,,,,,
3,251040, Control_c,1,64,127,,,,,,,,,,,,,,,,,,,,,,,,,,,,
3,251040, Note_on_c,1,44,80,,,,,,,,,,,,,,,,,,,,,,,,,,,,
3,251040, Note_on_c,1,51,80,,,,,,,,,,,,,,,,,,,,,,,,,,,,
3,252959, Note_on_c,1,51,0,,,,,,,,,,,,,,,,,,,,,,,,,,,,
3,252960, Note_on_c,1,50,80,,,,,,,,,,,,,,,,,,,,,,,,,,,,
3,253439, Note_on_c,1,50,0,,,,,,,,,,,,,,,,,,,,,,,,,,,,
3,253440, Note_on_c,1,51,80,,,,,,,,,,,,,,,,,,,,,,,,,,,,
3,253919, Control_c,1,64,0,,,,,,,,,,,,,,,,,,,,,,,,,,,,
3,253919, Note_on_c,1,44,0,,,,,,,,,,,,,,,,,,,,,,,,,,,,
3,253919, Note_on_c,1,51,0,,,,,,,,,,,,,,,,,,,,,,,,,,,,
3,253920, Control_c,1,64,127,,,,,,,,,,,,,,,,,,,,,,,,,,,,
3,253920, Note_on_c,1,44,80,,,,,,,,,,,,,,,,,,,,,,,,,,,,
3,253920, Note_on_c,1,55,80,,,,,,,,,,,,,,,,,,,,,,,,,,,,
3,255359, Note_on_c,1,55,0,,,,,,,,,,,,,,,,,,,,,,,,,,,,
3,255360, Note_on_c,1,53,80,,,,,,,,,,,,,,,,,,,,,,,,,,,,
3,256319, Control_c,1,64,0,,,,,,,,,,,,,,,,,,,,,,,,,,,,
3,256319, Note_on_c,1,53,0,,,,,,,,,,,,,,,,,,,,,,,,,,,,
3,256320, Note_on_c,1,51,80,,,,,,,,,,,,,,,,,,,,,,,,,,,,
3,256799, Note_on_c,1,44,0,,,,,,,,,,,,,,,,,,,,,,,,,,,,
3,256799, Note_on_c,1,51,0,,,,,,,,,,,,,,,,,,,,,,,,,,,,
3,256800, Control_c,1,64,127,,,,,,,,,,,,,,,,,,,,,,,,,,,,
3,256800, Note_on_c,1,51,80,,,,,,,,,,,,,,,,,,,,,,,,,,,,
3,256800, Note_on_c,1,44,80,,,,,,,,,,,,,,,,,,,,,,,,,,,,
3,259679, Control_c,1,64,0,,,,,,,,,,,,,,,,,,,,,,,,,,,,
3,259679, Note_on_c,1,51,0,,,,,,,,,,,,,,,,,,,,,,,,,,,,
3,259679, Note_on_c,1,44,0,,,,,,,,,,,,,,,,,,,,,,,,,,,,
3,259680, End_track,,,,,,,,,,,,,,,,,,,,,,,,,,,,,,,
0,0, End_of_file,,,,,,,,,,,,,,,,,,,,,,,,,,,,,,,
