0, 0, Header, 1, 2, 480
1, 0, Start_track
1, 0, Time_signature, 4, 2, 24, 8
1, 0, Key_signature, 4, "major"
1, 0, Tempo, 1333333
1, 0, Control_c, 0, 121, 0
1, 0, Program_c, 0, 0
1, 0, Control_c, 0, 7, 100
1, 0, Control_c, 0, 10, 64
1, 0, Control_c, 0, 91, 0
1, 0, Control_c, 0, 93, 0
1, 0, MIDI_port, 0
1, 0, Note_on_c, 0, 56, 80
1, 151, Note_on_c, 0, 56, 0
1, 160, Note_on_c, 0, 61, 80
1, 311, Note_on_c, 0, 61, 0
1, 320, Note_on_c, 0, 64, 80
1, 471, Note_on_c, 0, 64, 0
1, 480, Note_on_c, 0, 56, 80
1, 631, Note_on_c, 0, 56, 0
1, 640, Note_on_c, 0, 61, 80
1, 791, Note_on_c, 0, 61, 0
1, 800, Note_on_c, 0, 64, 80
1, 951, Note_on_c, 0, 64, 0
1, 960, Note_on_c, 0, 56, 80
1, 1111, Note_on_c, 0, 56, 0
1, 1120, Note_on_c, 0, 61, 80
1, 1271, Note_on_c, 0, 61, 0
1, 1280, Note_on_c, 0, 64, 80
1, 1431, Note_on_c, 0, 64, 0
1, 1440, Note_on_c, 0, 56, 80
1, 1591, Note_on_c, 0, 56, 0
1, 1600, Note_on_c, 0, 61, 80
1, 1751, Note_on_c, 0, 61, 0
1, 1760, Note_on_c, 0, 64, 80
1, 1911, Note_on_c, 0, 64, 0
1, 1920, Note_on_c, 0, 56, 80
1, 2071, Note_on_c, 0, 56, 0
1, 2080, Note_on_c, 0, 61, 80
1, 2231, Note_on_c, 0, 61, 0
1, 2240, Note_on_c, 0, 64, 80
1, 2391, Note_on_c, 0, 64, 0
1, 2400, Note_on_c, 0, 56, 80
1, 2551, Note_on_c, 0, 56, 0
1, 2560, Note_on_c, 0, 61, 80
1, 2711, Note_on_c, 0, 61, 0
1, 2720, Note_on_c, 0, 64, 80
1, 2871, Note_on_c, 0, 64, 0
1, 2880, Note_on_c, 0, 56, 80
1, 3031, Note_on_c, 0, 56, 0
1, 3040, Note_on_c, 0, 61, 80
1, 3191, Note_on_c, 0, 61, 0
1, 3200, Note_on_c, 0, 64, 80
1, 3351, Note_on_c, 0, 64, 0
1, 3360, Note_on_c, 0, 56, 80
1, 3511, Note_on_c, 0, 56, 0
1, 3520, Note_on_c, 0, 61, 80
1, 3671, Note_on_c, 0, 61, 0
1, 3680, Note_on_c, 0, 64, 80
1, 3831, Note_on_c, 0, 64, 0
1, 3840, Note_on_c, 0, 57, 80
1, 3991, Note_on_c, 0, 57, 0
1, 4000, Note_on_c, 0, 61, 80
1, 4151, Note_on_c, 0, 61, 0
1, 4160, Note_on_c, 0, 64, 80
1, 4311, Note_on_c, 0, 64, 0
1, 4320, Note_on_c, 0, 57, 80
1, 4471, Note_on_c, 0, 57, 0
1, 4480, Note_on_c, 0, 61, 80
1, 4631, Note_on_c, 0, 61, 0
1, 4640, Note_on_c, 0, 64, 80
1, 4791, Note_on_c, 0, 64, 0
1, 4800, Note_on_c, 0, 57, 80
1, 4951, Note_on_c, 0, 57, 0
1, 4960, Note_on_c, 0, 62, 80
1, 5111, Note_on_c, 0, 62, 0
1, 5120, Note_on_c, 0, 66, 80
1, 5271, Note_on_c, 0, 66, 0
1, 5280, Note_on_c, 0, 57, 80
1, 5431, Note_on_c, 0, 57, 0
1, 5440, Note_on_c, 0, 62, 80
1, 5591, Note_on_c, 0, 62, 0
1, 5600, Note_on_c, 0, 66, 80
1, 5751, Note_on_c, 0, 66, 0
1, 5760, Note_on_c, 0, 56, 80
1, 5911, Note_on_c, 0, 56, 0
1, 5920, Note_on_c, 0, 60, 80
1, 6071, Note_on_c, 0, 60, 0
1, 6080, Note_on_c, 0, 66, 80
1, 6231, Note_on_c, 0, 66, 0
1, 6240, Note_on_c, 0, 56, 80
1, 6391, Note_on_c, 0, 56, 0
1, 6400, Note_on_c, 0, 61, 80
1, 6551, Note_on_c, 0, 61, 0
1, 6560, Note_on_c, 0, 64, 80
1, 6711, Note_on_c, 0, 64, 0
1, 6720, Note_on_c, 0, 56, 80
1, 6871, Note_on_c, 0, 56, 0
1, 6880, Note_on_c, 0, 61, 80
1, 7031, Note_on_c, 0, 61, 0
1, 7040, Note_on_c, 0, 63, 80
1, 7191, Note_on_c, 0, 63, 0
1, 7200, Note_on_c, 0, 54, 80
1, 7351, Note_on_c, 0, 54, 0
1, 7360, Note_on_c, 0, 60, 80
1, 7511, Note_on_c, 0, 60, 0
1, 7520, Note_on_c, 0, 63, 80
1, 7671, Note_on_c, 0, 63, 0
1, 7680, Note_on_c, 0, 52, 80
1, 7831, Note_on_c, 0, 52, 0
1, 7840, Note_on_c, 0, 56, 80
1, 7991, Note_on_c, 0, 56, 0
1, 8000, Note_on_c, 0, 61, 80
1, 8151, Note_on_c, 0, 61, 0
1, 8160, Note_on_c, 0, 56, 80
1, 8311, Note_on_c, 0, 56, 0
1, 8320, Note_on_c, 0, 61, 80
1, 8471, Note_on_c, 0, 61, 0
1, 8480, Note_on_c, 0, 64, 80
1, 8631, Note_on_c, 0, 64, 0
1, 8640, Note_on_c, 0, 56, 80
1, 8791, Note_on_c, 0, 56, 0
1, 8800, Note_on_c, 0, 61, 80
1, 8951, Note_on_c, 0, 61, 0
1, 8960, Note_on_c, 0, 64, 80
1, 9111, Note_on_c, 0, 64, 0
1, 9120, Note_on_c, 0, 56, 80
1, 9120, Note_on_c, 0, 68, 80
1, 9271, Note_on_c, 0, 56, 0
1, 9280, Note_on_c, 0, 61, 80
1, 9431, Note_on_c, 0, 61, 0
1, 9440, Note_on_c, 0, 64, 80
1, 9461, Note_on_c, 0, 68, 0
1, 9480, Note_on_c, 0, 68, 80
1, 9591, Note_on_c, 0, 64, 0
1, 9593, Note_on_c, 0, 68, 0
1, 9600, Note_on_c, 0, 56, 80
1, 9600, Note_on_c, 0, 68, 80
1, 9751, Note_on_c, 0, 56, 0
1, 9760, Note_on_c, 0, 63, 80
1, 9911, Note_on_c, 0, 63, 0
1, 9920, Note_on_c, 0, 66, 80
1, 10071, Note_on_c, 0, 66, 0
1, 10080, Note_on_c, 0, 56, 80
1, 10231, Note_on_c, 0, 56, 0
1, 10240, Note_on_c, 0, 63, 80
1, 10391, Note_on_c, 0, 63, 0
1, 10400, Note_on_c, 0, 66, 80
1, 10551, Note_on_c, 0, 66, 0
1, 10560, Note_on_c, 0, 56, 80
1, 10711, Note_on_c, 0, 56, 0
1, 10720, Note_on_c, 0, 63, 80
1, 10871, Note_on_c, 0, 63, 0
1, 10880, Note_on_c, 0, 66, 80
1, 10967, Note_on_c, 0, 68, 0
1, 11031, Note_on_c, 0, 66, 0
1, 11040, Note_on_c, 0, 56, 80
1, 11040, Note_on_c, 0, 68, 80
1, 11191, Note_on_c, 0, 56, 0
1, 11200, Note_on_c, 0, 63, 80
1, 11351, Note_on_c, 0, 63, 0
1, 11360, Note_on_c, 0, 66, 80
1, 11381, Note_on_c, 0, 68, 0
1, 11400, Note_on_c, 0, 68, 80
1, 11511, Note_on_c, 0, 66, 0
1, 11513, Note_on_c, 0, 68, 0
1, 11520, Note_on_c, 0, 56, 80
1, 11520, Note_on_c, 0, 68, 80
1, 11671, Note_on_c, 0, 56, 0
1, 11680, Note_on_c, 0, 61, 80
1, 11831, Note_on_c, 0, 61, 0
1, 11840, Note_on_c, 0, 64, 80
1, 11991, Note_on_c, 0, 64, 0
1, 12000, Note_on_c, 0, 56, 80
1, 12151, Note_on_c, 0, 56, 0
1, 12160, Note_on_c, 0, 61, 80
1, 12311, Note_on_c, 0, 61, 0
1, 12320, Note_on_c, 0, 64, 80
1, 12431, Note_on_c, 0, 68, 0
1, 12471, Note_on_c, 0, 64, 0
1, 12480, Note_on_c, 0, 57, 80
1, 12480, Note_on_c, 0, 69, 80
1, 12631, Note_on_c, 0, 57, 0
1, 12640, Note_on_c, 0, 61, 80
1, 12791, Note_on_c, 0, 61, 0
1, 12800, Note_on_c, 0, 66, 80
1, 12951, Note_on_c, 0, 66, 0
1, 12960, Note_on_c, 0, 57, 80
1, 13111, Note_on_c, 0, 57, 0
1, 13120, Note_on_c, 0, 61, 80
1, 13271, Note_on_c, 0, 61, 0
1, 13280, Note_on_c, 0, 66, 80
1, 13391, Note_on_c, 0, 69, 0
1, 13431, Note_on_c, 0, 66, 0
1, 13440, Note_on_c, 0, 56, 80
1, 13440, Note_on_c, 0, 68, 80
1, 13591, Note_on_c, 0, 56, 0
1, 13600, Note_on_c, 0, 59, 80
1, 13751, Note_on_c, 0, 59, 0
1, 13760, Note_on_c, 0, 64, 80
1, 13911, Note_on_c, 0, 64, 0
1, 13920, Note_on_c, 0, 56, 80
1, 14071, Note_on_c, 0, 56, 0
1, 14080, Note_on_c, 0, 59, 80
1, 14231, Note_on_c, 0, 59, 0
1, 14240, Note_on_c, 0, 64, 80
1, 14351, Note_on_c, 0, 68, 0
1, 14391, Note_on_c, 0, 64, 0
1, 14400, Note_on_c, 0, 57, 80
1, 14400, Note_on_c, 0, 66, 80
1, 14551, Note_on_c, 0, 57, 0
1, 14560, Note_on_c, 0, 59, 80
1, 14711, Note_on_c, 0, 59, 0
1, 14720, Note_on_c, 0, 63, 80
1, 14855, Note_on_c, 0, 66, 0
1, 14871, Note_on_c, 0, 63, 0
1, 14880, Note_on_c, 0, 57, 80
1, 14880, Note_on_c, 0, 71, 80
1, 15031, Note_on_c, 0, 57, 0
1, 15040, Note_on_c, 0, 59, 80
1, 15191, Note_on_c, 0, 59, 0
1, 15200, Note_on_c, 0, 63, 80
1, 15335, Note_on_c, 0, 71, 0
1, 15351, Note_on_c, 0, 63, 0
1, 15360, Note_on_c, 0, 56, 80
1, 15360, Note_on_c, 0, 64, 80
1, 15511, Note_on_c, 0, 56, 0
1, 15520, Note_on_c, 0, 59, 80
1, 15671, Note_on_c, 0, 59, 0
1, 15680, Note_on_c, 0, 64, 80
1, 15815, Note_on_c, 0, 64, 0
1, 15831, Note_on_c, 0, 64, 0
1, 15840, Note_on_c, 0, 56, 80
1, 15991, Note_on_c, 0, 56, 0
1, 16000, Note_on_c, 0, 59, 80
1, 16151, Note_on_c, 0, 59, 0
1, 16160, Note_on_c, 0, 64, 80
1, 16311, Note_on_c, 0, 64, 0
1, 16320, Note_on_c, 0, 56, 80
1, 16471, Note_on_c, 0, 56, 0
1, 16480, Note_on_c, 0, 59, 80
1, 16631, Note_on_c, 0, 59, 0
1, 16640, Note_on_c, 0, 64, 80
1, 16791, Note_on_c, 0, 64, 0
1, 16800, Note_on_c, 0, 56, 80
1, 16951, Note_on_c, 0, 56, 0
1, 16960, Note_on_c, 0, 59, 80
1, 17111, Note_on_c, 0, 59, 0
1, 17120, Note_on_c, 0, 64, 80
1, 17271, Note_on_c, 0, 64, 0
1, 17280, Note_on_c, 0, 55, 80
1, 17431, Note_on_c, 0, 55, 0
1, 17440, Note_on_c, 0, 59, 80
1, 17591, Note_on_c, 0, 59, 0
1, 17600, Note_on_c, 0, 64, 80
1, 17751, Note_on_c, 0, 64, 0
1, 17760, Note_on_c, 0, 55, 80
1, 17911, Note_on_c, 0, 55, 0
1, 17920, Note_on_c, 0, 59, 80
1, 18071, Note_on_c, 0, 59, 0
1, 18080, Note_on_c, 0, 64, 80
1, 18231, Note_on_c, 0, 64, 0
1, 18240, Note_on_c, 0, 55, 80
1, 18391, Note_on_c, 0, 55, 0
1, 18400, Note_on_c, 0, 59, 80
1, 18551, Note_on_c, 0, 59, 0
1, 18560, Note_on_c, 0, 64, 80
1, 18711, Note_on_c, 0, 64, 0
1, 18720, Note_on_c, 0, 55, 80
1, 18720, Note_on_c, 0, 67, 80
1, 18871, Note_on_c, 0, 55, 0
1, 18880, Note_on_c, 0, 59, 80
1, 19031, Note_on_c, 0, 59, 0
1, 19040, Note_on_c, 0, 64, 80
1, 19061, Note_on_c, 0, 67, 0
1, 19080, Note_on_c, 0, 67, 80
1, 19191, Note_on_c, 0, 64, 0
1, 19193, Note_on_c, 0, 67, 0
1, 19200, Note_on_c, 0, 55, 80
1, 19200, Note_on_c, 0, 67, 80
1, 19351, Note_on_c, 0, 55, 0
1, 19360, Note_on_c, 0, 59, 80
1, 19511, Note_on_c, 0, 59, 0
1, 19520, Note_on_c, 0, 65, 80
1, 19671, Note_on_c, 0, 65, 0
1, 19680, Note_on_c, 0, 55, 80
1, 19831, Note_on_c, 0, 55, 0
1, 19840, Note_on_c, 0, 59, 80
1, 19991, Note_on_c, 0, 59, 0
1, 20000, Note_on_c, 0, 65, 80
1, 20151, Note_on_c, 0, 65, 0
1, 20160, Note_on_c, 0, 55, 80
1, 20311, Note_on_c, 0, 55, 0
1, 20320, Note_on_c, 0, 59, 80
1, 20471, Note_on_c, 0, 59, 0
1, 20480, Note_on_c, 0, 65, 80
1, 20567, Note_on_c, 0, 67, 0
1, 20631, Note_on_c, 0, 65, 0
1, 20640, Note_on_c, 0, 55, 80
1, 20640, Note_on_c, 0, 67, 80
1, 20791, Note_on_c, 0, 55, 0
1, 20800, Note_on_c, 0, 59, 80
1, 20951, Note_on_c, 0, 59, 0
1, 20960, Note_on_c, 0, 65, 80
1, 20981, Note_on_c, 0, 67, 0
1, 21000, Note_on_c, 0, 67, 80
1, 21111, Note_on_c, 0, 65, 0
1, 21113, Note_on_c, 0, 67, 0
1, 21120, Note_on_c, 0, 55, 80
1, 21120, Note_on_c, 0, 67, 80
1, 21271, Note_on_c, 0, 55, 0
1, 21280, Note_on_c, 0, 60, 80
1, 21431, Note_on_c, 0, 60, 0
1, 21440, Note_on_c, 0, 64, 80
1, 21591, Note_on_c, 0, 64, 0
1, 21600, Note_on_c, 0, 55, 80
1, 21751, Note_on_c, 0, 55, 0
1, 21760, Note_on_c, 0, 59, 80
1, 21911, Note_on_c, 0, 59, 0
1, 21920, Note_on_c, 0, 64, 80
1, 22071, Note_on_c, 0, 64, 0
1, 22080, Note_on_c, 0, 55, 80
1, 22231, Note_on_c, 0, 55, 0
1, 22240, Note_on_c, 0, 61, 80
1, 22391, Note_on_c, 0, 61, 0
1, 22400, Note_on_c, 0, 64, 80
1, 22487, Note_on_c, 0, 67, 0
1, 22551, Note_on_c, 0, 64, 0
1, 22560, Note_on_c, 0, 54, 80
1, 22560, Note_on_c, 0, 66, 80
1, 22711, Note_on_c, 0, 54, 0
1, 22720, Note_on_c, 0, 61, 80
1, 22871, Note_on_c, 0, 61, 0
1, 22880, Note_on_c, 0, 64, 80
1, 23015, Note_on_c, 0, 66, 0
1, 23031, Note_on_c, 0, 64, 0
1, 23040, Note_on_c, 0, 54, 80
1, 23040, Note_on_c, 0, 66, 80
1, 23191, Note_on_c, 0, 54, 0
1, 23200, Note_on_c, 0, 59, 80
1, 23351, Note_on_c, 0, 59, 0
1, 23360, Note_on_c, 0, 62, 80
1, 23511, Note_on_c, 0, 62, 0
1, 23520, Note_on_c, 0, 54, 80
1, 23671, Note_on_c, 0, 54, 0
1, 23680, Note_on_c, 0, 59, 80
1, 23831, Note_on_c, 0, 59, 0
1, 23840, Note_on_c, 0, 62, 80
1, 23951, Note_on_c, 0, 66, 0
1, 23991, Note_on_c, 0, 62, 0
1, 24000, Note_on_c, 0, 55, 80
1, 24000, Note_on_c, 0, 67, 80
1, 24151, Note_on_c, 0, 55, 0
1, 24160, Note_on_c, 0, 59, 80
1, 24311, Note_on_c, 0, 59, 0
1, 24320, Note_on_c, 0, 61, 80
1, 24455, Note_on_c, 0, 67, 0
1, 24471, Note_on_c, 0, 61, 0
1, 24480, Note_on_c, 0, 52, 80
1, 24480, Note_on_c, 0, 64, 80
1, 24631, Note_on_c, 0, 52, 0
1, 24640, Note_on_c, 0, 59, 80
1, 24791, Note_on_c, 0, 59, 0
1, 24800, Note_on_c, 0, 61, 80
1, 24935, Note_on_c, 0, 64, 0
1, 24951, Note_on_c, 0, 61, 0
1, 24960, Note_on_c, 0, 54, 80
1, 24960, Note_on_c, 0, 66, 80
1, 25111, Note_on_c, 0, 54, 0
1, 25120, Note_on_c, 0, 59, 80
1, 25271, Note_on_c, 0, 59, 0
1, 25280, Note_on_c, 0, 62, 80
1, 25431, Note_on_c, 0, 62, 0
1, 25440, Note_on_c, 0, 54, 80
1, 25591, Note_on_c, 0, 54, 0
1, 25600, Note_on_c, 0, 59, 80
1, 25751, Note_on_c, 0, 59, 0
1, 25760, Note_on_c, 0, 62, 80
1, 25871, Note_on_c, 0, 66, 0
1, 25911, Note_on_c, 0, 62, 0
1, 25920, Note_on_c, 0, 54, 80
1, 25920, Note_on_c, 0, 66, 80
1, 26071, Note_on_c, 0, 54, 0
1, 26080, Note_on_c, 0, 58, 80
1, 26231, Note_on_c, 0, 58, 0
1, 26240, Note_on_c, 0, 61, 80
1, 26391, Note_on_c, 0, 61, 0
1, 26400, Note_on_c, 0, 54, 80
1, 26551, Note_on_c, 0, 54, 0
1, 26560, Note_on_c, 0, 58, 80
1, 26711, Note_on_c, 0, 58, 0
1, 26720, Note_on_c, 0, 61, 80
1, 26831, Note_on_c, 0, 66, 0
1, 26871, Note_on_c, 0, 61, 0
1, 26880, Note_on_c, 0, 59, 80
1, 26880, Note_on_c, 0, 59, 80
1, 27031, Note_on_c, 0, 59, 0
1, 27040, Note_on_c, 0, 62, 80
1, 27191, Note_on_c, 0, 62, 0
1, 27200, Note_on_c, 0, 66, 80
1, 27335, Note_on_c, 0, 59, 0
1, 27351, Note_on_c, 0, 66, 0
1, 27360, Note_on_c, 0, 59, 80
1, 27511, Note_on_c, 0, 59, 0
1, 27520, Note_on_c, 0, 62, 80
1, 27671, Note_on_c, 0, 62, 0
1, 27680, Note_on_c, 0, 66, 80
1, 27831, Note_on_c, 0, 66, 0
1, 27840, Note_on_c, 0, 59, 80
1, 27991, Note_on_c, 0, 59, 0
1, 28000, Note_on_c, 0, 63, 80
1, 28151, Note_on_c, 0, 63, 0
1, 28160, Note_on_c, 0, 66, 80
1, 28311, Note_on_c, 0, 66, 0
1, 28320, Note_on_c, 0, 59, 80
1, 28320, Note_on_c, 0, 71, 80
1, 28471, Note_on_c, 0, 59, 0
1, 28480, Note_on_c, 0, 63, 80
1, 28631, Note_on_c, 0, 63, 0
1, 28640, Note_on_c, 0, 66, 80
1, 28775, Note_on_c, 0, 71, 0
1, 28791, Note_on_c, 0, 66, 0
1, 28800, Note_on_c, 0, 59, 80
1, 28800, Note_on_c, 0, 72, 80
1, 28951, Note_on_c, 0, 59, 0
1, 28960, Note_on_c, 0, 64, 80
1, 29111, Note_on_c, 0, 64, 0
1, 29120, Note_on_c, 0, 67, 80
1, 29271, Note_on_c, 0, 67, 0
1, 29280, Note_on_c, 0, 59, 80
1, 29431, Note_on_c, 0, 59, 0
1, 29440, Note_on_c, 0, 64, 80
1, 29591, Note_on_c, 0, 64, 0
1, 29600, Note_on_c, 0, 67, 80
1, 29751, Note_on_c, 0, 67, 0
1, 29760, Note_on_c, 0, 59, 80
1, 29911, Note_on_c, 0, 59, 0
1, 29920, Note_on_c, 0, 64, 80
1, 30071, Note_on_c, 0, 64, 0
1, 30080, Note_on_c, 0, 67, 80
1, 30167, Note_on_c, 0, 72, 0
1, 30231, Note_on_c, 0, 67, 0
1, 30240, Note_on_c, 0, 59, 80
1, 30240, Note_on_c, 0, 70, 80
1, 30391, Note_on_c, 0, 59, 0
1, 30400, Note_on_c, 0, 64, 80
1, 30551, Note_on_c, 0, 64, 0
1, 30560, Note_on_c, 0, 67, 80
1, 30695, Note_on_c, 0, 70, 0
1, 30711, Note_on_c, 0, 67, 0
1, 30720, Note_on_c, 0, 59, 80
1, 30720, Note_on_c, 0, 71, 80
1, 30871, Note_on_c, 0, 59, 0
1, 30880, Note_on_c, 0, 63, 80
1, 31031, Note_on_c, 0, 63, 0
1, 31040, Note_on_c, 0, 66, 80
1, 31191, Note_on_c, 0, 66, 0
1, 31200, Note_on_c, 0, 59, 80
1, 31351, Note_on_c, 0, 59, 0
1, 31360, Note_on_c, 0, 63, 80
1, 31511, Note_on_c, 0, 63, 0
1, 31520, Note_on_c, 0, 66, 80
1, 31671, Note_on_c, 0, 66, 0
1, 31680, Note_on_c, 0, 59, 80
1, 31831, Note_on_c, 0, 59, 0
1, 31840, Note_on_c, 0, 63, 80
1, 31991, Note_on_c, 0, 63, 0
1, 32000, Note_on_c, 0, 66, 80
1, 32087, Note_on_c, 0, 71, 0
1, 32151, Note_on_c, 0, 66, 0
1, 32160, Note_on_c, 0, 59, 80
1, 32160, Note_on_c, 0, 71, 80
1, 32311, Note_on_c, 0, 59, 0
1, 32320, Note_on_c, 0, 63, 80
1, 32471, Note_on_c, 0, 63, 0
1, 32480, Note_on_c, 0, 66, 80
1, 32615, Note_on_c, 0, 71, 0
1, 32631, Note_on_c, 0, 66, 0
1, 32640, Note_on_c, 0, 59, 80
1, 32640, Note_on_c, 0, 72, 80
1, 32791, Note_on_c, 0, 59, 0
1, 32800, Note_on_c, 0, 64, 80
1, 32951, Note_on_c, 0, 64, 0
1, 32960, Note_on_c, 0, 67, 80
1, 33111, Note_on_c, 0, 67, 0
1, 33120, Note_on_c, 0, 59, 80
1, 33271, Note_on_c, 0, 59, 0
1, 33280, Note_on_c, 0, 64, 80
1, 33431, Note_on_c, 0, 64, 0
1, 33440, Note_on_c, 0, 67, 80
1, 33591, Note_on_c, 0, 67, 0
1, 33600, Note_on_c, 0, 59, 80
1, 33751, Note_on_c, 0, 59, 0
1, 33760, Note_on_c, 0, 64, 80
1, 33911, Note_on_c, 0, 64, 0
1, 33920, Note_on_c, 0, 67, 80
1, 34007, Note_on_c, 0, 72, 0
1, 34071, Note_on_c, 0, 67, 0
1, 34080, Note_on_c, 0, 59, 80
1, 34080, Note_on_c, 0, 70, 80
1, 34231, Note_on_c, 0, 59, 0
1, 34240, Note_on_c, 0, 64, 80
1, 34391, Note_on_c, 0, 64, 0
1, 34400, Note_on_c, 0, 67, 80
1, 34535, Note_on_c, 0, 70, 0
1, 34551, Note_on_c, 0, 67, 0
1, 34560, Note_on_c, 0, 59, 80
1, 34560, Note_on_c, 0, 71, 80
1, 34711, Note_on_c, 0, 59, 0
1, 34720, Note_on_c, 0, 63, 80
1, 34871, Note_on_c, 0, 63, 0
1, 34880, Note_on_c, 0, 66, 80
1, 35031, Note_on_c, 0, 66, 0
1, 35040, Note_on_c, 0, 59, 80
1, 35191, Note_on_c, 0, 59, 0
1, 35200, Note_on_c, 0, 63, 80
1, 35351, Note_on_c, 0, 63, 0
1, 35360, Note_on_c, 0, 66, 80
1, 35471, Note_on_c, 0, 71, 0
1, 35511, Note_on_c, 0, 66, 0
1, 35520, Note_on_c, 0, 59, 80
1, 35520, Note_on_c, 0, 71, 80
1, 35671, Note_on_c, 0, 59, 0
1, 35680, Note_on_c, 0, 62, 80
1, 35831, Note_on_c, 0, 62, 0
1, 35840, Note_on_c, 0, 65, 80
1, 35991, Note_on_c, 0, 65, 0
1, 36000, Note_on_c, 0, 59, 80
1, 36151, Note_on_c, 0, 59, 0
1, 36160, Note_on_c, 0, 62, 80
1, 36311, Note_on_c, 0, 62, 0
1, 36320, Note_on_c, 0, 65, 80
1, 36431, Note_on_c, 0, 71, 0
1, 36471, Note_on_c, 0, 65, 0
1, 36480, Note_on_c, 0, 59, 80
1, 36480, Note_on_c, 0, 71, 80
1, 36631, Note_on_c, 0, 59, 0
1, 36640, Note_on_c, 0, 61, 80
1, 36791, Note_on_c, 0, 61, 0
1, 36800, Note_on_c, 0, 68, 80
1, 36951, Note_on_c, 0, 68, 0
1, 36960, Note_on_c, 0, 59, 80
1, 37111, Note_on_c, 0, 59, 0
1, 37120, Note_on_c, 0, 61, 80
1, 37271, Note_on_c, 0, 61, 0
1, 37280, Note_on_c, 0, 68, 80
1, 37391, Note_on_c, 0, 71, 0
1, 37431, Note_on_c, 0, 68, 0
1, 37440, Note_on_c, 0, 57, 80
1, 37440, Note_on_c, 0, 69, 80
1, 37591, Note_on_c, 0, 57, 0
1, 37600, Note_on_c, 0, 61, 80
1, 37751, Note_on_c, 0, 61, 0
1, 37760, Note_on_c, 0, 66, 80
1, 37911, Note_on_c, 0, 66, 0
1, 37920, Note_on_c, 0, 57, 80
1, 38071, Note_on_c, 0, 57, 0
1, 38080, Note_on_c, 0, 61, 80
1, 38231, Note_on_c, 0, 61, 0
1, 38240, Note_on_c, 0, 66, 80
1, 38351, Note_on_c, 0, 69, 0
1, 38391, Note_on_c, 0, 66, 0
1, 38400, Note_on_c, 0, 55, 80
1, 38400, Note_on_c, 0, 67, 80
1, 38551, Note_on_c, 0, 55, 0
1, 38560, Note_on_c, 0, 59, 80
1, 38711, Note_on_c, 0, 59, 0
1, 38720, Note_on_c, 0, 62, 80
1, 38871, Note_on_c, 0, 62, 0
1, 38880, Note_on_c, 0, 55, 80
1, 39031, Note_on_c, 0, 55, 0
1, 39040, Note_on_c, 0, 59, 80
1, 39191, Note_on_c, 0, 59, 0
1, 39200, Note_on_c, 0, 62, 80
1, 39311, Note_on_c, 0, 67, 0
1, 39351, Note_on_c, 0, 62, 0
1, 39360, Note_on_c, 0, 54, 80
1, 39360, Note_on_c, 0, 66, 80
1, 39511, Note_on_c, 0, 54, 0
1, 39520, Note_on_c, 0, 57, 80
1, 39671, Note_on_c, 0, 57, 0
1, 39680, Note_on_c, 0, 63, 80
1, 39831, Note_on_c, 0, 63, 0
1, 39840, Note_on_c, 0, 54, 80
1, 39991, Note_on_c, 0, 54, 0
1, 40000, Note_on_c, 0, 57, 80
1, 40151, Note_on_c, 0, 57, 0
1, 40160, Note_on_c, 0, 63, 80
1, 40271, Note_on_c, 0, 66, 0
1, 40311, Note_on_c, 0, 63, 0
1, 40320, Note_on_c, 0, 49, 80
1, 40320, Note_on_c, 0, 61, 80
1, 40471, Note_on_c, 0, 49, 0
1, 40480, Note_on_c, 0, 54, 80
1, 40631, Note_on_c, 0, 54, 0
1, 40640, Note_on_c, 0, 57, 80
1, 40791, Note_on_c, 0, 57, 0
1, 40800, Note_on_c, 0, 49, 80
1, 40951, Note_on_c, 0, 49, 0
1, 40960, Note_on_c, 0, 54, 80
1, 41111, Note_on_c, 0, 54, 0
1, 41120, Note_on_c, 0, 57, 80
1, 41231, Note_on_c, 0, 61, 0
1, 41271, Note_on_c, 0, 57, 0
1, 41280, Note_on_c, 0, 49, 80
1, 41280, Note_on_c, 0, 61, 80
1, 41431, Note_on_c, 0, 49, 0
1, 41440, Note_on_c, 0, 54, 80
1, 41591, Note_on_c, 0, 54, 0
1, 41600, Note_on_c, 0, 56, 80
1, 41735, Note_on_c, 0, 61, 0
1, 41751, Note_on_c, 0, 56, 0
1, 41760, Note_on_c, 0, 49, 80
1, 41760, Note_on_c, 0, 61, 80
1, 41911, Note_on_c, 0, 49, 0
1, 41920, Note_on_c, 0, 53, 80
1, 42071, Note_on_c, 0, 53, 0
1, 42080, Note_on_c, 0, 56, 80
1, 42215, Note_on_c, 0, 61, 0
1, 42231, Note_on_c, 0, 56, 0
1, 42240, Note_on_c, 0, 54, 80
1, 42240, Note_on_c, 0, 54, 80
1, 42391, Note_on_c, 0, 54, 0
1, 42400, Note_on_c, 0, 57, 80
1, 42551, Note_on_c, 0, 57, 0
1, 42560, Note_on_c, 0, 61, 80
1, 42695, Note_on_c, 0, 54, 0
1, 42711, Note_on_c, 0, 61, 0
1, 42720, Note_on_c, 0, 57, 80
1, 42871, Note_on_c, 0, 57, 0
1, 42880, Note_on_c, 0, 61, 80
1, 43031, Note_on_c, 0, 61, 0
1, 43040, Note_on_c, 0, 66, 80
1, 43191, Note_on_c, 0, 66, 0
1, 43200, Note_on_c, 0, 61, 80
1, 43351, Note_on_c, 0, 61, 0
1, 43360, Note_on_c, 0, 66, 80
1, 43511, Note_on_c, 0, 66, 0
1, 43520, Note_on_c, 0, 69, 80
1, 43671, Note_on_c, 0, 69, 0
1, 43680, Note_on_c, 0, 61, 80
1, 43680, Note_on_c, 0, 73, 80
1, 43831, Note_on_c, 0, 61, 0
1, 43840, Note_on_c, 0, 66, 80
1, 43991, Note_on_c, 0, 66, 0
1, 44000, Note_on_c, 0, 69, 80
1, 44021, Note_on_c, 0, 73, 0
1, 44040, Note_on_c, 0, 73, 80
1, 44151, Note_on_c, 0, 69, 0
1, 44153, Note_on_c, 0, 73, 0
1, 44160, Note_on_c, 0, 61, 80
1, 44160, Note_on_c, 0, 73, 80
1, 44311, Note_on_c, 0, 61, 0
1, 44320, Note_on_c, 0, 68, 80
1, 44471, Note_on_c, 0, 68, 0
1, 44480, Note_on_c, 0, 71, 80
1, 44631, Note_on_c, 0, 71, 0
1, 44640, Note_on_c, 0, 61, 80
1, 44791, Note_on_c, 0, 61, 0
1, 44800, Note_on_c, 0, 68, 80
1, 44951, Note_on_c, 0, 68, 0
1, 44960, Note_on_c, 0, 71, 80
1, 45111, Note_on_c, 0, 71, 0
1, 45120, Note_on_c, 0, 61, 80
1, 45271, Note_on_c, 0, 61, 0
1, 45280, Note_on_c, 0, 68, 80
1, 45431, Note_on_c, 0, 68, 0
1, 45440, Note_on_c, 0, 71, 80
1, 45527, Note_on_c, 0, 73, 0
1, 45591, Note_on_c, 0, 71, 0
1, 45600, Note_on_c, 0, 61, 80
1, 45600, Note_on_c, 0, 73, 80
1, 45751, Note_on_c, 0, 61, 0
1, 45760, Note_on_c, 0, 68, 80
1, 45911, Note_on_c, 0, 68, 0
1, 45920, Note_on_c, 0, 71, 80
1, 45941, Note_on_c, 0, 73, 0
1, 45960, Note_on_c, 0, 73, 80
1, 46071, Note_on_c, 0, 71, 0
1, 46073, Note_on_c, 0, 73, 0
1, 46080, Note_on_c, 0, 61, 80
1, 46080, Note_on_c, 0, 73, 80
1, 46231, Note_on_c, 0, 61, 0
1, 46240, Note_on_c, 0, 66, 81
1, 46391, Note_on_c, 0, 66, 0
1, 46400, Note_on_c, 0, 69, 82
1, 46551, Note_on_c, 0, 69, 0
1, 46560, Note_on_c, 0, 61, 83
1, 46711, Note_on_c, 0, 61, 0
1, 46720, Note_on_c, 0, 66, 85
1, 46871, Note_on_c, 0, 66, 0
1, 46880, Note_on_c, 0, 69, 86
1, 46991, Note_on_c, 0, 73, 0
1, 47031, Note_on_c, 0, 69, 0
1, 47040, Note_on_c, 0, 60, 87
1, 47040, Note_on_c, 0, 72, 87
1, 47191, Note_on_c, 0, 60, 0
1, 47200, Note_on_c, 0, 66, 88
1, 47351, Note_on_c, 0, 66, 0
1, 47360, Note_on_c, 0, 69, 90
1, 47495, Note_on_c, 0, 72, 0
1, 47511, Note_on_c, 0, 69, 0
1, 47520, Note_on_c, 0, 61, 91
1, 47520, Note_on_c, 0, 73, 91
1, 47671, Note_on_c, 0, 61, 0
1, 47680, Note_on_c, 0, 66, 92
1, 47831, Note_on_c, 0, 66, 0
1, 47840, Note_on_c, 0, 69, 93
1, 47975, Note_on_c, 0, 73, 0
1, 47991, Note_on_c, 0, 69, 0
1, 48000, Note_on_c, 0, 63, 95
1, 48000, Note_on_c, 0, 75, 95
1, 48151, Note_on_c, 0, 63, 0
1, 48160, Note_on_c, 0, 66, 95
1, 48311, Note_on_c, 0, 66, 0
1, 48320, Note_on_c, 0, 68, 95
1, 48471, Note_on_c, 0, 68, 0
1, 48480, Note_on_c, 0, 63, 95
1, 48631, Note_on_c, 0, 63, 0
1, 48640, Note_on_c, 0, 66, 95
1, 48791, Note_on_c, 0, 66, 0
1, 48800, Note_on_c, 0, 68, 95
1, 48951, Note_on_c, 0, 68, 0
1, 48960, Note_on_c, 0, 63, 95
1, 49111, Note_on_c, 0, 63, 0
1, 49120, Note_on_c, 0, 66, 95
1, 49271, Note_on_c, 0, 66, 0
1, 49280, Note_on_c, 0, 68, 95
1, 49367, Note_on_c, 0, 75, 0
1, 49431, Note_on_c, 0, 68, 0
1, 49440, Note_on_c, 0, 63, 95
1, 49440, Note_on_c, 0, 75, 95
1, 49591, Note_on_c, 0, 63, 0
1, 49600, Note_on_c, 0, 66, 95
1, 49751, Note_on_c, 0, 66, 0
1, 49760, Note_on_c, 0, 68, 95
1, 49895, Note_on_c, 0, 75, 0
1, 49911, Note_on_c, 0, 68, 0
1, 49920, Note_on_c, 0, 64, 95
1, 49920, Note_on_c, 0, 76, 95
1, 50071, Note_on_c, 0, 64, 0
1, 50080, Note_on_c, 0, 68, 95
1, 50231, Note_on_c, 0, 68, 0
1, 50240, Note_on_c, 0, 73, 95
1, 50391, Note_on_c, 0, 73, 0
1, 50400, Note_on_c, 0, 64, 95
1, 50551, Note_on_c, 0, 64, 0
1, 50560, Note_on_c, 0, 68, 95
1, 50711, Note_on_c, 0, 68, 0
1, 50720, Note_on_c, 0, 73, 95
1, 50831, Note_on_c, 0, 76, 0
1, 50871, Note_on_c, 0, 73, 0
1, 50880, Note_on_c, 0, 63, 95
1, 50880, Note_on_c, 0, 75, 95
1, 51031, Note_on_c, 0, 63, 0
1, 51040, Note_on_c, 0, 66, 93
1, 51191, Note_on_c, 0, 66, 0
1, 51200, Note_on_c, 0, 69, 90
1, 51335, Note_on_c, 0, 75, 0
1, 51351, Note_on_c, 0, 69, 0
1, 51360, Note_on_c, 0, 61, 87
1, 51360, Note_on_c, 0, 73, 87
1, 51511, Note_on_c, 0, 61, 0
1, 51520, Note_on_c, 0, 64, 85
1, 51671, Note_on_c, 0, 64, 0
1, 51680, Note_on_c, 0, 70, 82
1, 51815, Note_on_c, 0, 73, 0
1, 51831, Note_on_c, 0, 70, 0
1, 51840, Note_on_c, 0, 72, 79
1, 51991, Note_on_c, 0, 72, 0
1, 52000, Note_on_c, 0, 60, 79
1, 52151, Note_on_c, 0, 60, 0
1, 52160, Note_on_c, 0, 63, 79
1, 52311, Note_on_c, 0, 63, 0
1, 52320, Note_on_c, 0, 68, 79
1, 52320, Note_on_c, 0, 68, 79
1, 52471, Note_on_c, 0, 68, 0
1, 52480, Note_on_c, 0, 60, 79
1, 52631, Note_on_c, 0, 60, 0
1, 52640, Note_on_c, 0, 63, 79
1, 52775, Note_on_c, 0, 68, 0
1, 52791, Note_on_c, 0, 63, 0
1, 52800, Note_on_c, 0, 69, 79
1, 52800, Note_on_c, 0, 69, 79
1, 52951, Note_on_c, 0, 69, 0
1, 52960, Note_on_c, 0, 60, 79
1, 53111, Note_on_c, 0, 60, 0
1, 53120, Note_on_c, 0, 63, 79
1, 53255, Note_on_c, 0, 69, 0
1, 53271, Note_on_c, 0, 63, 0
1, 53280, Note_on_c, 0, 66, 79
1, 53280, Note_on_c, 0, 66, 79
1, 53431, Note_on_c, 0, 66, 0
1, 53440, Note_on_c, 0, 60, 79
1, 53591, Note_on_c, 0, 60, 0
1, 53600, Note_on_c, 0, 63, 79
1, 53735, Note_on_c, 0, 66, 0
1, 53751, Note_on_c, 0, 63, 0
1, 53920, Note_on_c, 0, 60, 79
1, 54071, Note_on_c, 0, 60, 0
1, 54080, Note_on_c, 0, 63, 79
1, 54231, Note_on_c, 0, 63, 0
1, 54240, Note_on_c, 0, 56, 79
1, 54240, Note_on_c, 0, 56, 79
1, 54391, Note_on_c, 0, 56, 0
1, 54400, Note_on_c, 0, 60, 79
1, 54551, Note_on_c, 0, 60, 0
1, 54560, Note_on_c, 0, 63, 79
1, 54695, Note_on_c, 0, 56, 0
1, 54711, Note_on_c, 0, 63, 0
1, 54720, Note_on_c, 0, 57, 79
1, 54720, Note_on_c, 0, 57, 79
1, 54871, Note_on_c, 0, 57, 0
1, 54880, Note_on_c, 0, 60, 79
1, 55031, Note_on_c, 0, 60, 0
1, 55040, Note_on_c, 0, 63, 79
1, 55175, Note_on_c, 0, 57, 0
1, 55191, Note_on_c, 0, 63, 0
1, 55200, Note_on_c, 0, 54, 79
1, 55200, Note_on_c, 0, 54, 79
1, 55351, Note_on_c, 0, 54, 0
1, 55360, Note_on_c, 0, 60, 79
1, 55511, Note_on_c, 0, 60, 0
1, 55520, Note_on_c, 0, 63, 79
1, 55655, Note_on_c, 0, 54, 0
1, 55671, Note_on_c, 0, 63, 0
1, 55680, Note_on_c, 0, 52, 79
1, 55831, Note_on_c, 0, 52, 0
1, 55840, Note_on_c, 0, 64, 79
1, 55991, Note_on_c, 0, 64, 0
1, 56000, Note_on_c, 0, 68, 79
1, 56151, Note_on_c, 0, 68, 0
1, 56160, Note_on_c, 0, 73, 79
1, 56160, Note_on_c, 0, 73, 79
1, 56311, Note_on_c, 0, 73, 0
1, 56320, Note_on_c, 0, 64, 79
1, 56471, Note_on_c, 0, 64, 0
1, 56480, Note_on_c, 0, 68, 79
1, 56615, Note_on_c, 0, 73, 0
1, 56631, Note_on_c, 0, 68, 0
1, 56640, Note_on_c, 0, 76, 79
1, 56640, Note_on_c, 0, 76, 79
1, 56791, Note_on_c, 0, 76, 0
1, 56800, Note_on_c, 0, 64, 79
1, 56951, Note_on_c, 0, 64, 0
1, 56960, Note_on_c, 0, 68, 79
1, 57095, Note_on_c, 0, 76, 0
1, 57111, Note_on_c, 0, 68, 0
1, 57120, Note_on_c, 0, 73, 79
1, 57120, Note_on_c, 0, 73, 79
1, 57271, Note_on_c, 0, 73, 0
1, 57280, Note_on_c, 0, 64, 79
1, 57431, Note_on_c, 0, 64, 0
1, 57440, Note_on_c, 0, 68, 79
1, 57575, Note_on_c, 0, 73, 0
1, 57591, Note_on_c, 0, 68, 0
1, 57760, Note_on_c, 0, 52, 79
1, 57911, Note_on_c, 0, 52, 0
1, 57920, Note_on_c, 0, 56, 79
1, 58071, Note_on_c, 0, 56, 0
1, 58080, Note_on_c, 0, 61, 79
1, 58231, Note_on_c, 0, 61, 0
1, 58240, Note_on_c, 0, 52, 79
1, 58391, Note_on_c, 0, 52, 0
1, 58400, Note_on_c, 0, 56, 79
1, 58551, Note_on_c, 0, 56, 0
1, 58560, Note_on_c, 0, 64, 79
1, 58711, Note_on_c, 0, 64, 0
1, 58720, Note_on_c, 0, 52, 79
1, 58871, Note_on_c, 0, 52, 0
1, 58880, Note_on_c, 0, 56, 79
1, 59031, Note_on_c, 0, 56, 0
1, 59040, Note_on_c, 0, 61, 79
1, 59191, Note_on_c, 0, 61, 0
1, 59200, Note_on_c, 0, 52, 79
1, 59351, Note_on_c, 0, 52, 0
1, 59360, Note_on_c, 0, 56, 79
1, 59511, Note_on_c, 0, 56, 0
1, 59520, Note_on_c, 0, 51, 79
1, 59671, Note_on_c, 0, 51, 0
1, 59680, Note_on_c, 0, 57, 79
1, 59831, Note_on_c, 0, 57, 0
1, 59840, Note_on_c, 0, 54, 79
1, 59991, Note_on_c, 0, 54, 0
1, 60000, Note_on_c, 0, 60, 79
1, 60151, Note_on_c, 0, 60, 0
1, 60160, Note_on_c, 0, 57, 79
1, 60311, Note_on_c, 0, 57, 0
1, 60320, Note_on_c, 0, 63, 79
1, 60471, Note_on_c, 0, 63, 0
1, 60480, Note_on_c, 0, 60, 79
1, 60631, Note_on_c, 0, 60, 0
1, 60640, Note_on_c, 0, 66, 79
1, 60791, Note_on_c, 0, 66, 0
1, 60800, Note_on_c, 0, 63, 79
1, 60951, Note_on_c, 0, 63, 0
1, 60960, Note_on_c, 0, 69, 79
1, 61111, Note_on_c, 0, 69, 0
1, 61120, Note_on_c, 0, 66, 79
1, 61271, Note_on_c, 0, 66, 0
1, 61280, Note_on_c, 0, 72, 79
1, 61431, Note_on_c, 0, 72, 0
1, 61440, Note_on_c, 0, 52, 79
1, 61591, Note_on_c, 0, 52, 0
1, 61600, Note_on_c, 0, 61, 79
1, 61751, Note_on_c, 0, 61, 0
1, 61760, Note_on_c, 0, 56, 79
1, 61911, Note_on_c, 0, 56, 0
1, 61920, Note_on_c, 0, 64, 79
1, 62071, Note_on_c, 0, 64, 0
1, 62080, Note_on_c, 0, 61, 79
1, 62231, Note_on_c, 0, 61, 0
1, 62240, Note_on_c, 0, 68, 79
1, 62391, Note_on_c, 0, 68, 0
1, 62400, Note_on_c, 0, 64, 79
1, 62551, Note_on_c, 0, 64, 0
1, 62560, Note_on_c, 0, 73, 79
1, 62711, Note_on_c, 0, 73, 0
1, 62720, Note_on_c, 0, 68, 79
1, 62871, Note_on_c, 0, 68, 0
1, 62880, Note_on_c, 0, 76, 79
1, 63031, Note_on_c, 0, 76, 0
1, 63040, Note_on_c, 0, 73, 79
1, 63191, Note_on_c, 0, 73, 0
1, 63200, Note_on_c, 0, 69, 79
1, 63351, Note_on_c, 0, 69, 0
1, 63360, Note_on_c, 0, 61, 79
1, 63511, Note_on_c, 0, 61, 0
1, 63520, Note_on_c, 0, 67, 79
1, 63671, Note_on_c, 0, 67, 0
1, 63680, Note_on_c, 0, 64, 79
1, 63831, Note_on_c, 0, 64, 0
1, 63840, Note_on_c, 0, 70, 79
1, 63991, Note_on_c, 0, 70, 0
1, 64000, Note_on_c, 0, 67, 79
1, 64151, Note_on_c, 0, 67, 0
1, 64160, Note_on_c, 0, 73, 79
1, 64311, Note_on_c, 0, 73, 0
1, 64320, Note_on_c, 0, 70, 79
1, 64471, Note_on_c, 0, 70, 0
1, 64480, Note_on_c, 0, 76, 79
1, 64631, Note_on_c, 0, 76, 0
1, 64640, Note_on_c, 0, 73, 79
1, 64791, Note_on_c, 0, 73, 0
1, 64800, Note_on_c, 0, 79, 79
1, 64951, Note_on_c, 0, 79, 0
1, 64960, Note_on_c, 0, 76, 79
1, 65111, Note_on_c, 0, 76, 0
1, 65120, Note_on_c, 0, 82, 79
1, 65271, Note_on_c, 0, 82, 0
1, 65280, Note_on_c, 0, 66, 79
1, 65431, Note_on_c, 0, 66, 0
1, 65440, Note_on_c, 0, 72, 79
1, 65591, Note_on_c, 0, 72, 0
1, 65600, Note_on_c, 0, 69, 79
1, 65751, Note_on_c, 0, 69, 0
1, 65760, Note_on_c, 0, 75, 79
1, 65911, Note_on_c, 0, 75, 0
1, 65920, Note_on_c, 0, 72, 79
1, 66071, Note_on_c, 0, 72, 0
1, 66080, Note_on_c, 0, 78, 79
1, 66231, Note_on_c, 0, 78, 0
1, 66240, Note_on_c, 0, 75, 79
1, 66391, Note_on_c, 0, 75, 0
1, 66400, Note_on_c, 0, 81, 79
1, 66551, Note_on_c, 0, 81, 0
1, 66560, Note_on_c, 0, 78, 79
1, 66711, Note_on_c, 0, 78, 0
1, 66720, Note_on_c, 0, 84, 79
1, 66871, Note_on_c, 0, 84, 0
1, 66880, Note_on_c, 0, 81, 79
1, 67031, Note_on_c, 0, 81, 0
1, 67040, Note_on_c, 0, 87, 79
1, 67191, Note_on_c, 0, 87, 0
1, 67200, Note_on_c, 0, 84, 79
1, 67351, Note_on_c, 0, 84, 0
1, 67360, Note_on_c, 0, 78, 79
1, 67511, Note_on_c, 0, 78, 0
1, 67520, Note_on_c, 0, 81, 79
1, 67671, Note_on_c, 0, 81, 0
1, 67680, Note_on_c, 0, 75, 79
1, 67831, Note_on_c, 0, 75, 0
1, 67840, Note_on_c, 0, 78, 79
1, 67991, Note_on_c, 0, 78, 0
1, 68000, Note_on_c, 0, 72, 79
1, 68151, Note_on_c, 0, 72, 0
1, 68160, Note_on_c, 0, 75, 79
1, 68311, Note_on_c, 0, 75, 0
1, 68320, Note_on_c, 0, 69, 79
1, 68471, Note_on_c, 0, 69, 0
1, 68480, Note_on_c, 0, 72, 79
1, 68631, Note_on_c, 0, 72, 0
1, 68640, Note_on_c, 0, 66, 79
1, 68791, Note_on_c, 0, 66, 0
1, 68800, Note_on_c, 0, 69, 79
1, 68951, Note_on_c, 0, 69, 0
1, 68960, Note_on_c, 0, 63, 79
1, 69111, Note_on_c, 0, 63, 0
1, 69120, Note_on_c, 0, 66, 79
1, 69271, Note_on_c, 0, 66, 0
1, 69280, Note_on_c, 0, 60, 79
1, 69431, Note_on_c, 0, 60, 0
1, 69440, Note_on_c, 0, 63, 79
1, 69591, Note_on_c, 0, 63, 0
1, 69600, Note_on_c, 0, 57, 79
1, 69751, Note_on_c, 0, 57, 0
1, 69760, Note_on_c, 0, 60, 79
1, 69911, Note_on_c, 0, 60, 0
1, 69920, Note_on_c, 0, 54, 79
1, 70071, Note_on_c, 0, 54, 0
1, 70080, Note_on_c, 0, 57, 79
1, 70080, Note_on_c, 0, 57, 79
1, 70231, Note_on_c, 0, 57, 0
1, 70231, Note_on_c, 0, 57, 0
1, 70240, Note_on_c, 0, 51, 79
1, 70240, Note_on_c, 0, 51, 79
1, 70391, Note_on_c, 0, 51, 0
1, 70400, Note_on_c, 0, 54, 79
1, 70543, Note_on_c, 0, 51, 0
1, 70551, Note_on_c, 0, 54, 0
1, 70560, Note_on_c, 0, 49, 79
1, 70560, Note_on_c, 0, 49, 79
1, 70711, Note_on_c, 0, 49, 0
1, 70720, Note_on_c, 0, 54, 79
1, 70871, Note_on_c, 0, 54, 0
1, 70880, Note_on_c, 0, 57, 79
1, 71015, Note_on_c, 0, 49, 0
1, 71031, Note_on_c, 0, 57, 0
1, 71040, Note_on_c, 0, 48, 79
1, 71040, Note_on_c, 0, 48, 79
1, 71191, Note_on_c, 0, 48, 0
1, 71200, Note_on_c, 0, 54, 79
1, 71351, Note_on_c, 0, 54, 0
1, 71360, Note_on_c, 0, 56, 79
1, 71511, Note_on_c, 0, 56, 0
1, 71520, Note_on_c, 0, 57, 79
1, 71671, Note_on_c, 0, 57, 0
1, 71680, Note_on_c, 0, 56, 79
1, 71831, Note_on_c, 0, 56, 0
1, 71840, Note_on_c, 0, 54, 79
1, 71951, Note_on_c, 0, 48, 0
1, 71991, Note_on_c, 0, 54, 0
1, 72000, Note_on_c, 0, 51, 79
1, 72000, Note_on_c, 0, 51, 79
1, 72151, Note_on_c, 0, 51, 0
1, 72160, Note_on_c, 0, 54, 79
1, 72311, Note_on_c, 0, 54, 0
1, 72320, Note_on_c, 0, 57, 79
1, 72455, Note_on_c, 0, 51, 0
1, 72471, Note_on_c, 0, 57, 0
1, 72480, Note_on_c, 0, 49, 79
1, 72480, Note_on_c, 0, 49, 79
1, 72631, Note_on_c, 0, 49, 0
1, 72640, Note_on_c, 0, 54, 79
1, 72791, Note_on_c, 0, 54, 0
1, 72800, Note_on_c, 0, 57, 79
1, 72935, Note_on_c, 0, 49, 0
1, 72951, Note_on_c, 0, 57, 0
1, 72960, Note_on_c, 0, 48, 79
1, 72960, Note_on_c, 0, 48, 79
1, 73111, Note_on_c, 0, 48, 0
1, 73120, Note_on_c, 0, 54, 79
1, 73271, Note_on_c, 0, 54, 0
1, 73280, Note_on_c, 0, 56, 79
1, 73431, Note_on_c, 0, 56, 0
1, 73440, Note_on_c, 0, 57, 79
1, 73591, Note_on_c, 0, 57, 0
1, 73600, Note_on_c, 0, 56, 79
1, 73751, Note_on_c, 0, 56, 0
1, 73760, Note_on_c, 0, 54, 79
1, 73871, Note_on_c, 0, 48, 0
1, 73911, Note_on_c, 0, 54, 0
1, 73920, Note_on_c, 0, 50, 79
1, 73920, Note_on_c, 0, 50, 79
1, 74071, Note_on_c, 0, 50, 0
1, 74080, Note_on_c, 0, 54, 79
1, 74231, Note_on_c, 0, 54, 0
1, 74240, Note_on_c, 0, 57, 79
1, 74375, Note_on_c, 0, 50, 0
1, 74391, Note_on_c, 0, 57, 0
1, 74400, Note_on_c, 0, 49, 79
1, 74400, Note_on_c, 0, 49, 79
1, 74551, Note_on_c, 0, 49, 0
1, 74560, Note_on_c, 0, 54, 79
1, 74711, Note_on_c, 0, 54, 0
1, 74720, Note_on_c, 0, 57, 79
1, 74855, Note_on_c, 0, 49, 0
1, 74871, Note_on_c, 0, 57, 0
1, 74880, Note_on_c, 0, 48, 79
1, 74880, Note_on_c, 0, 48, 79
1, 75031, Note_on_c, 0, 48, 0
1, 75040, Note_on_c, 0, 54, 78
1, 75191, Note_on_c, 0, 54, 0
1, 75200, Note_on_c, 0, 56, 77
1, 75351, Note_on_c, 0, 56, 0
1, 75360, Note_on_c, 0, 57, 76
1, 75511, Note_on_c, 0, 57, 0
1, 75520, Note_on_c, 0, 56, 74
1, 75671, Note_on_c, 0, 56, 0
1, 75680, Note_on_c, 0, 54, 73
1, 75791, Note_on_c, 0, 48, 0
1, 75831, Note_on_c, 0, 54, 0
1, 75840, Note_on_c, 0, 49, 72
1, 75991, Note_on_c, 0, 49, 0
1, 76000, Note_on_c, 0, 52, 71
1, 76151, Note_on_c, 0, 52, 0
1, 76160, Note_on_c, 0, 61, 69
1, 76311, Note_on_c, 0, 61, 0
1, 76320, Note_on_c, 0, 49, 68
1, 76471, Note_on_c, 0, 49, 0
1, 76480, Note_on_c, 0, 52, 67
1, 76631, Note_on_c, 0, 52, 0
1, 76640, Note_on_c, 0, 61, 66
1, 76791, Note_on_c, 0, 61, 0
1, 76800, Note_on_c, 0, 51, 64
1, 76951, Note_on_c, 0, 51, 0
1, 76960, Note_on_c, 0, 57, 64
1, 77111, Note_on_c, 0, 57, 0
1, 77120, Note_on_c, 0, 61, 64
1, 77271, Note_on_c, 0, 61, 0
1, 77280, Note_on_c, 0, 51, 64
1, 77431, Note_on_c, 0, 51, 0
1, 77440, Note_on_c, 0, 57, 64
1, 77591, Note_on_c, 0, 57, 0
1, 77600, Note_on_c, 0, 61, 64
1, 77751, Note_on_c, 0, 61, 0
1, 77760, Note_on_c, 0, 51, 64
1, 77911, Note_on_c, 0, 51, 0
1, 77920, Note_on_c, 0, 56, 64
1, 78071, Note_on_c, 0, 56, 0
1, 78080, Note_on_c, 0, 60, 64
1, 78231, Note_on_c, 0, 60, 0
1, 78240, Note_on_c, 0, 51, 64
1, 78391, Note_on_c, 0, 51, 0
1, 78400, Note_on_c, 0, 54, 64
1, 78551, Note_on_c, 0, 54, 0
1, 78560, Note_on_c, 0, 60, 64
1, 78711, Note_on_c, 0, 60, 0
1, 78720, Note_on_c, 0, 52, 64
1, 78871, Note_on_c, 0, 52, 0
1, 78880, Note_on_c, 0, 56, 64
1, 79031, Note_on_c, 0, 56, 0
1, 79040, Note_on_c, 0, 61, 64
1, 79191, Note_on_c, 0, 61, 0
1, 79200, Note_on_c, 0, 56, 64
1, 79351, Note_on_c, 0, 56, 0
1, 79360, Note_on_c, 0, 61, 64
1, 79511, Note_on_c, 0, 61, 0
1, 79520, Note_on_c, 0, 64, 64
1, 79671, Note_on_c, 0, 64, 0
1, 79680, Note_on_c, 0, 56, 64
1, 79831, Note_on_c, 0, 56, 0
1, 79840, Note_on_c, 0, 61, 64
1, 79991, Note_on_c, 0, 61, 0
1, 80000, Note_on_c, 0, 64, 64
1, 80151, Note_on_c, 0, 64, 0
1, 80160, Note_on_c, 0, 56, 64
1, 80160, Note_on_c, 0, 68, 64
1, 80311, Note_on_c, 0, 56, 0
1, 80320, Note_on_c, 0, 61, 64
1, 80471, Note_on_c, 0, 61, 0
1, 80480, Note_on_c, 0, 64, 64
1, 80501, Note_on_c, 0, 68, 0
1, 80520, Note_on_c, 0, 68, 64
1, 80631, Note_on_c, 0, 64, 0
1, 80633, Note_on_c, 0, 68, 0
1, 80640, Note_on_c, 0, 56, 64
1, 80640, Note_on_c, 0, 68, 64
1, 80791, Note_on_c, 0, 56, 0
1, 80800, Note_on_c, 0, 63, 64
1, 80951, Note_on_c, 0, 63, 0
1, 80960, Note_on_c, 0, 66, 64
1, 81111, Note_on_c, 0, 66, 0
1, 81120, Note_on_c, 0, 56, 64
1, 81271, Note_on_c, 0, 56, 0
1, 81280, Note_on_c, 0, 63, 64
1, 81431, Note_on_c, 0, 63, 0
1, 81440, Note_on_c, 0, 66, 64
1, 81591, Note_on_c, 0, 66, 0
1, 81600, Note_on_c, 0, 56, 64
1, 81751, Note_on_c, 0, 56, 0
1, 81760, Note_on_c, 0, 63, 64
1, 81911, Note_on_c, 0, 63, 0
1, 81920, Note_on_c, 0, 66, 64
1, 82007, Note_on_c, 0, 68, 0
1, 82071, Note_on_c, 0, 66, 0
1, 82080, Note_on_c, 0, 56, 64
1, 82080, Note_on_c, 0, 68, 64
1, 82231, Note_on_c, 0, 56, 0
1, 82240, Note_on_c, 0, 63, 64
1, 82391, Note_on_c, 0, 63, 0
1, 82400, Note_on_c, 0, 66, 64
1, 82421, Note_on_c, 0, 68, 0
1, 82440, Note_on_c, 0, 68, 64
1, 82551, Note_on_c, 0, 66, 0
1, 82553, Note_on_c, 0, 68, 0
1, 82560, Note_on_c, 0, 56, 64
1, 82560, Note_on_c, 0, 68, 64
1, 82711, Note_on_c, 0, 56, 0
1, 82720, Note_on_c, 0, 61, 64
1, 82871, Note_on_c, 0, 61, 0
1, 82880, Note_on_c, 0, 64, 64
1, 83031, Note_on_c, 0, 64, 0
1, 83040, Note_on_c, 0, 56, 64
1, 83191, Note_on_c, 0, 56, 0
1, 83200, Note_on_c, 0, 61, 64
1, 83351, Note_on_c, 0, 61, 0
1, 83360, Note_on_c, 0, 64, 64
1, 83471, Note_on_c, 0, 68, 0
1, 83511, Note_on_c, 0, 64, 0
1, 83520, Note_on_c, 0, 57, 64
1, 83520, Note_on_c, 0, 69, 64
1, 83671, Note_on_c, 0, 57, 0
1, 83680, Note_on_c, 0, 61, 64
1, 83831, Note_on_c, 0, 61, 0
1, 83840, Note_on_c, 0, 66, 64
1, 83991, Note_on_c, 0, 66, 0
1, 84000, Note_on_c, 0, 57, 64
1, 84151, Note_on_c, 0, 57, 0
1, 84160, Note_on_c, 0, 61, 64
1, 84311, Note_on_c, 0, 61, 0
1, 84320, Note_on_c, 0, 66, 64
1, 84431, Note_on_c, 0, 69, 0
1, 84471, Note_on_c, 0, 66, 0
1, 84480, Note_on_c, 0, 56, 64
1, 84480, Note_on_c, 0, 68, 64
1, 84631, Note_on_c, 0, 56, 0
1, 84640, Note_on_c, 0, 59, 64
1, 84791, Note_on_c, 0, 59, 0
1, 84800, Note_on_c, 0, 64, 64
1, 84951, Note_on_c, 0, 64, 0
1, 84960, Note_on_c, 0, 56, 64
1, 85111, Note_on_c, 0, 56, 0
1, 85120, Note_on_c, 0, 59, 64
1, 85271, Note_on_c, 0, 59, 0
1, 85280, Note_on_c, 0, 64, 64
1, 85391, Note_on_c, 0, 68, 0
1, 85431, Note_on_c, 0, 64, 0
1, 85440, Note_on_c, 0, 57, 64
1, 85440, Note_on_c, 0, 66, 64
1, 85591, Note_on_c, 0, 57, 0
1, 85600, Note_on_c, 0, 59, 64
1, 85751, Note_on_c, 0, 59, 0
1, 85760, Note_on_c, 0, 63, 64
1, 85895, Note_on_c, 0, 66, 0
1, 85911, Note_on_c, 0, 63, 0
1, 85920, Note_on_c, 0, 57, 64
1, 85920, Note_on_c, 0, 71, 64
1, 86071, Note_on_c, 0, 57, 0
1, 86080, Note_on_c, 0, 59, 64
1, 86231, Note_on_c, 0, 59, 0
1, 86240, Note_on_c, 0, 63, 64
1, 86375, Note_on_c, 0, 71, 0
1, 86391, Note_on_c, 0, 63, 0
1, 86400, Note_on_c, 0, 56, 64
1, 86400, Note_on_c, 0, 64, 64
1, 86551, Note_on_c, 0, 56, 0
1, 86560, Note_on_c, 0, 59, 64
1, 86711, Note_on_c, 0, 59, 0
1, 86720, Note_on_c, 0, 64, 64
1, 86855, Note_on_c, 0, 64, 0
1, 86871, Note_on_c, 0, 64, 0
1, 86880, Note_on_c, 0, 59, 64
1, 87031, Note_on_c, 0, 59, 0
1, 87040, Note_on_c, 0, 64, 64
1, 87191, Note_on_c, 0, 64, 0
1, 87200, Note_on_c, 0, 68, 64
1, 87351, Note_on_c, 0, 68, 0
1, 87360, Note_on_c, 0, 59, 64
1, 87511, Note_on_c, 0, 59, 0
1, 87520, Note_on_c, 0, 64, 64
1, 87671, Note_on_c, 0, 64, 0
1, 87680, Note_on_c, 0, 68, 64
1, 87831, Note_on_c, 0, 68, 0
1, 87840, Note_on_c, 0, 59, 64
1, 87840, Note_on_c, 0, 71, 64
1, 87991, Note_on_c, 0, 59, 0
1, 88000, Note_on_c, 0, 64, 64
1, 88151, Note_on_c, 0, 64, 0
1, 88160, Note_on_c, 0, 68, 64
1, 88181, Note_on_c, 0, 71, 0
1, 88200, Note_on_c, 0, 71, 64
1, 88311, Note_on_c, 0, 68, 0
1, 88313, Note_on_c, 0, 71, 0
1, 88320, Note_on_c, 0, 59, 64
1, 88320, Note_on_c, 0, 71, 64
1, 88471, Note_on_c, 0, 59, 0
1, 88480, Note_on_c, 0, 66, 64
1, 88631, Note_on_c, 0, 66, 0
1, 88640, Note_on_c, 0, 69, 64
1, 88791, Note_on_c, 0, 69, 0
1, 88800, Note_on_c, 0, 59, 64
1, 88951, Note_on_c, 0, 59, 0
1, 88960, Note_on_c, 0, 66, 64
1, 89111, Note_on_c, 0, 66, 0
1, 89120, Note_on_c, 0, 69, 64
1, 89271, Note_on_c, 0, 69, 0
1, 89280, Note_on_c, 0, 59, 64
1, 89431, Note_on_c, 0, 59, 0
1, 89440, Note_on_c, 0, 66, 64
1, 89591, Note_on_c, 0, 66, 0
1, 89600, Note_on_c, 0, 69, 64
1, 89687, Note_on_c, 0, 71, 0
1, 89751, Note_on_c, 0, 69, 0
1, 89760, Note_on_c, 0, 59, 64
1, 89760, Note_on_c, 0, 71, 64
1, 89911, Note_on_c, 0, 59, 0
1, 89920, Note_on_c, 0, 66, 64
1, 90071, Note_on_c, 0, 66, 0
1, 90080, Note_on_c, 0, 69, 64
1, 90101, Note_on_c, 0, 71, 0
1, 90120, Note_on_c, 0, 71, 64
1, 90231, Note_on_c, 0, 69, 0
1, 90233, Note_on_c, 0, 71, 0
1, 90240, Note_on_c, 0, 59, 64
1, 90240, Note_on_c, 0, 71, 64
1, 90391, Note_on_c, 0, 59, 0
1, 90400, Note_on_c, 0, 64, 66
1, 90551, Note_on_c, 0, 64, 0
1, 90560, Note_on_c, 0, 68, 69
1, 90711, Note_on_c, 0, 68, 0
1, 90720, Note_on_c, 0, 59, 71
1, 90871, Note_on_c, 0, 59, 0
1, 90880, Note_on_c, 0, 64, 74
1, 91031, Note_on_c, 0, 64, 0
1, 91040, Note_on_c, 0, 68, 76
1, 91151, Note_on_c, 0, 71, 0
1, 91191, Note_on_c, 0, 68, 0
1, 91200, Note_on_c, 0, 60, 79
1, 91200, Note_on_c, 0, 72, 79
1, 91351, Note_on_c, 0, 60, 0
1, 91360, Note_on_c, 0, 66, 77
1, 91511, Note_on_c, 0, 66, 0
1, 91520, Note_on_c, 0, 68, 74
1, 91655, Note_on_c, 0, 72, 0
1, 91671, Note_on_c, 0, 68, 0
1, 91680, Note_on_c, 0, 61, 72
1, 91680, Note_on_c, 0, 73, 72
1, 91831, Note_on_c, 0, 61, 0
1, 91840, Note_on_c, 0, 66, 69
1, 91991, Note_on_c, 0, 66, 0
1, 92000, Note_on_c, 0, 68, 67
1, 92135, Note_on_c, 0, 73, 0
1, 92151, Note_on_c, 0, 68, 0
1, 92160, Note_on_c, 0, 63, 64
1, 92160, Note_on_c, 0, 75, 64
1, 92311, Note_on_c, 0, 63, 0
1, 92320, Note_on_c, 0, 66, 64
1, 92471, Note_on_c, 0, 66, 0
1, 92480, Note_on_c, 0, 68, 64
1, 92631, Note_on_c, 0, 68, 0
1, 92640, Note_on_c, 0, 63, 64
1, 92791, Note_on_c, 0, 63, 0
1, 92800, Note_on_c, 0, 66, 64
1, 92951, Note_on_c, 0, 66, 0
1, 92960, Note_on_c, 0, 68, 64
1, 93071, Note_on_c, 0, 75, 0
1, 93111, Note_on_c, 0, 68, 0
1, 93120, Note_on_c, 0, 64, 64
1, 93120, Note_on_c, 0, 76, 64
1, 93271, Note_on_c, 0, 64, 0
1, 93280, Note_on_c, 0, 68, 64
1, 93431, Note_on_c, 0, 68, 0
1, 93440, Note_on_c, 0, 73, 64
1, 93591, Note_on_c, 0, 73, 0
1, 93600, Note_on_c, 0, 64, 64
1, 93751, Note_on_c, 0, 64, 0
1, 93760, Note_on_c, 0, 68, 64
1, 93911, Note_on_c, 0, 68, 0
1, 93920, Note_on_c, 0, 73, 64
1, 94031, Note_on_c, 0, 76, 0
1, 94071, Note_on_c, 0, 73, 0
1, 94080, Note_on_c, 0, 62, 64
1, 94080, Note_on_c, 0, 74, 64
1, 94231, Note_on_c, 0, 62, 0
1, 94240, Note_on_c, 0, 66, 64
1, 94391, Note_on_c, 0, 66, 0
1, 94400, Note_on_c, 0, 69, 64
1, 94551, Note_on_c, 0, 69, 0
1, 94560, Note_on_c, 0, 62, 64
1, 94711, Note_on_c, 0, 62, 0
1, 94720, Note_on_c, 0, 66, 64
1, 94871, Note_on_c, 0, 66, 0
1, 94880, Note_on_c, 0, 69, 64
1, 94991, Note_on_c, 0, 74, 0
1, 95031, Note_on_c, 0, 69, 0
1, 95040, Note_on_c, 0, 60, 64
1, 95040, Note_on_c, 0, 72, 64
1, 95191, Note_on_c, 0, 60, 0
1, 95200, Note_on_c, 0, 66, 64
1, 95351, Note_on_c, 0, 66, 0
1, 95360, Note_on_c, 0, 68, 64
1, 95511, Note_on_c, 0, 68, 0
1, 95520, Note_on_c, 0, 60, 64
1, 95671, Note_on_c, 0, 60, 0
1, 95680, Note_on_c, 0, 66, 64
1, 95831, Note_on_c, 0, 66, 0
1, 95840, Note_on_c, 0, 68, 64
1, 95951, Note_on_c, 0, 72, 0
1, 95991, Note_on_c, 0, 68, 0
1, 96000, Note_on_c, 0, 61, 64
1, 96000, Note_on_c, 0, 73, 64
1, 96151, Note_on_c, 0, 61, 0
1, 96160, Note_on_c, 0, 64, 64
1, 96311, Note_on_c, 0, 64, 0
1, 96320, Note_on_c, 0, 68, 64
1, 96471, Note_on_c, 0, 68, 0
1, 96480, Note_on_c, 0, 61, 64
1, 96631, Note_on_c, 0, 61, 0
1, 96640, Note_on_c, 0, 64, 64
1, 96791, Note_on_c, 0, 64, 0
1, 96800, Note_on_c, 0, 68, 64
1, 96951, Note_on_c, 0, 68, 0
1, 96960, Note_on_c, 0, 61, 64
1, 97111, Note_on_c, 0, 61, 0
1, 97120, Note_on_c, 0, 65, 64
1, 97271, Note_on_c, 0, 65, 0
1, 97280, Note_on_c, 0, 68, 64
1, 97367, Note_on_c, 0, 73, 0
1, 97431, Note_on_c, 0, 68, 0
1, 97440, Note_on_c, 0, 61, 64
1, 97440, Note_on_c, 0, 73, 64
1, 97591, Note_on_c, 0, 61, 0
1, 97600, Note_on_c, 0, 65, 64
1, 97751, Note_on_c, 0, 65, 0
1, 97760, Note_on_c, 0, 68, 64
1, 97895, Note_on_c, 0, 73, 0
1, 97911, Note_on_c, 0, 68, 0
1, 97920, Note_on_c, 0, 61, 64
1, 97920, Note_on_c, 0, 74, 64
1, 98071, Note_on_c, 0, 61, 0
1, 98080, Note_on_c, 0, 66, 64
1, 98231, Note_on_c, 0, 66, 0
1, 98240, Note_on_c, 0, 69, 64
1, 98391, Note_on_c, 0, 69, 0
1, 98400, Note_on_c, 0, 61, 64
1, 98551, Note_on_c, 0, 61, 0
1, 98560, Note_on_c, 0, 66, 64
1, 98711, Note_on_c, 0, 66, 0
1, 98720, Note_on_c, 0, 69, 64
1, 98871, Note_on_c, 0, 69, 0
1, 98880, Note_on_c, 0, 61, 64
1, 99031, Note_on_c, 0, 61, 0
1, 99040, Note_on_c, 0, 66, 64
1, 99191, Note_on_c, 0, 66, 0
1, 99200, Note_on_c, 0, 69, 64
1, 99287, Note_on_c, 0, 74, 0
1, 99351, Note_on_c, 0, 69, 0
1, 99360, Note_on_c, 0, 61, 64
1, 99360, Note_on_c, 0, 72, 64
1, 99511, Note_on_c, 0, 61, 0
1, 99520, Note_on_c, 0, 66, 64
1, 99671, Note_on_c, 0, 66, 0
1, 99680, Note_on_c, 0, 69, 64
1, 99815, Note_on_c, 0, 72, 0
1, 99831, Note_on_c, 0, 69, 0
1, 99840, Note_on_c, 0, 61, 64
1, 99840, Note_on_c, 0, 73, 64
1, 99991, Note_on_c, 0, 61, 0
1, 100000, Note_on_c, 0, 65, 64
1, 100151, Note_on_c, 0, 65, 0
1, 100160, Note_on_c, 0, 68, 64
1, 100311, Note_on_c, 0, 68, 0
1, 100320, Note_on_c, 0, 61, 64
1, 100471, Note_on_c, 0, 61, 0
1, 100480, Note_on_c, 0, 65, 64
1, 100631, Note_on_c, 0, 65, 0
1, 100640, Note_on_c, 0, 68, 64
1, 100791, Note_on_c, 0, 68, 0
1, 100800, Note_on_c, 0, 61, 64
1, 100951, Note_on_c, 0, 61, 0
1, 100960, Note_on_c, 0, 65, 64
1, 101111, Note_on_c, 0, 65, 0
1, 101120, Note_on_c, 0, 68, 64
1, 101207, Note_on_c, 0, 73, 0
1, 101271, Note_on_c, 0, 68, 0
1, 101280, Note_on_c, 0, 61, 64
1, 101280, Note_on_c, 0, 73, 64
1, 101431, Note_on_c, 0, 61, 0
1, 101440, Note_on_c, 0, 65, 64
1, 101591, Note_on_c, 0, 65, 0
1, 101600, Note_on_c, 0, 68, 64
1, 101735, Note_on_c, 0, 73, 0
1, 101751, Note_on_c, 0, 68, 0
1, 101760, Note_on_c, 0, 61, 64
1, 101760, Note_on_c, 0, 74, 64
1, 101911, Note_on_c, 0, 61, 0
1, 101920, Note_on_c, 0, 66, 64
1, 102071, Note_on_c, 0, 66, 0
1, 102080, Note_on_c, 0, 69, 64
1, 102231, Note_on_c, 0, 69, 0
1, 102240, Note_on_c, 0, 61, 64
1, 102391, Note_on_c, 0, 61, 0
1, 102400, Note_on_c, 0, 66, 64
1, 102551, Note_on_c, 0, 66, 0
1, 102560, Note_on_c, 0, 69, 64
1, 102711, Note_on_c, 0, 69, 0
1, 102720, Note_on_c, 0, 61, 64
1, 102871, Note_on_c, 0, 61, 0
1, 102880, Note_on_c, 0, 66, 64
1, 103031, Note_on_c, 0, 66, 0
1, 103040, Note_on_c, 0, 69, 64
1, 103127, Note_on_c, 0, 74, 0
1, 103191, Note_on_c, 0, 69, 0
1, 103200, Note_on_c, 0, 61, 64
1, 103200, Note_on_c, 0, 72, 64
1, 103351, Note_on_c, 0, 61, 0
1, 103360, Note_on_c, 0, 66, 64
1, 103511, Note_on_c, 0, 66, 0
1, 103520, Note_on_c, 0, 69, 64
1, 103655, Note_on_c, 0, 72, 0
1, 103671, Note_on_c, 0, 69, 0
1, 103680, Note_on_c, 0, 61, 64
1, 103680, Note_on_c, 0, 73, 64
1, 103831, Note_on_c, 0, 61, 0
1, 103840, Note_on_c, 0, 65, 64
1, 103991, Note_on_c, 0, 65, 0
1, 104000, Note_on_c, 0, 68, 64
1, 104151, Note_on_c, 0, 68, 0
1, 104160, Note_on_c, 0, 61, 64
1, 104311, Note_on_c, 0, 61, 0
1, 104320, Note_on_c, 0, 65, 64
1, 104471, Note_on_c, 0, 65, 0
1, 104480, Note_on_c, 0, 68, 64
1, 104591, Note_on_c, 0, 73, 0
1, 104631, Note_on_c, 0, 68, 0
1, 104640, Note_on_c, 0, 61, 64
1, 104640, Note_on_c, 0, 73, 64
1, 104791, Note_on_c, 0, 61, 0
1, 104800, Note_on_c, 0, 66, 64
1, 104951, Note_on_c, 0, 66, 0
1, 104960, Note_on_c, 0, 69, 64
1, 105111, Note_on_c, 0, 69, 0
1, 105120, Note_on_c, 0, 61, 64
1, 105271, Note_on_c, 0, 61, 0
1, 105280, Note_on_c, 0, 66, 64
1, 105431, Note_on_c, 0, 66, 0
1, 105440, Note_on_c, 0, 69, 64
1, 105551, Note_on_c, 0, 73, 0
1, 105591, Note_on_c, 0, 69, 0
1, 105600, Note_on_c, 0, 59, 64
1, 105600, Note_on_c, 0, 71, 64
1, 105751, Note_on_c, 0, 59, 0
1, 105760, Note_on_c, 0, 66, 64
1, 105911, Note_on_c, 0, 66, 0
1, 105920, Note_on_c, 0, 69, 64
1, 106071, Note_on_c, 0, 69, 0
1, 106080, Note_on_c, 0, 59, 64
1, 106231, Note_on_c, 0, 59, 0
1, 106240, Note_on_c, 0, 66, 64
1, 106391, Note_on_c, 0, 66, 0
1, 106400, Note_on_c, 0, 69, 64
1, 106551, Note_on_c, 0, 69, 0
1, 106560, Note_on_c, 0, 59, 64
1, 106711, Note_on_c, 0, 59, 0
1, 106720, Note_on_c, 0, 66, 64
1, 106871, Note_on_c, 0, 66, 0
1, 106880, Note_on_c, 0, 69, 64
1, 106967, Note_on_c, 0, 71, 0
1, 107031, Note_on_c, 0, 69, 0
1, 107040, Note_on_c, 0, 59, 64
1, 107040, Note_on_c, 0, 71, 64
1, 107191, Note_on_c, 0, 59, 0
1, 107200, Note_on_c, 0, 64, 64
1, 107351, Note_on_c, 0, 64, 0
1, 107360, Note_on_c, 0, 68, 64
1, 107495, Note_on_c, 0, 71, 0
1, 107511, Note_on_c, 0, 68, 0
1, 107520, Note_on_c, 0, 57, 64
1, 107520, Note_on_c, 0, 69, 64
1, 107671, Note_on_c, 0, 57, 0
1, 107680, Note_on_c, 0, 64, 64
1, 107831, Note_on_c, 0, 64, 0
1, 107840, Note_on_c, 0, 68, 64
1, 107975, Note_on_c, 0, 69, 0
1, 107991, Note_on_c, 0, 68, 0
1, 108000, Note_on_c, 0, 57, 64
1, 108000, Note_on_c, 0, 69, 64
1, 108151, Note_on_c, 0, 57, 0
1, 108160, Note_on_c, 0, 63, 64
1, 108311, Note_on_c, 0, 63, 0
1, 108320, Note_on_c, 0, 66, 64
1, 108455, Note_on_c, 0, 69, 0
1, 108471, Note_on_c, 0, 66, 0
1, 108480, Note_on_c, 0, 56, 64
1, 108480, Note_on_c, 0, 68, 64
1, 108631, Note_on_c, 0, 56, 0
1, 108640, Note_on_c, 0, 63, 64
1, 108791, Note_on_c, 0, 63, 0
1, 108800, Note_on_c, 0, 66, 64
1, 108935, Note_on_c, 0, 68, 0
1, 108951, Note_on_c, 0, 66, 0
1, 108960, Note_on_c, 0, 56, 64
1, 108960, Note_on_c, 0, 68, 64
1, 109111, Note_on_c, 0, 56, 0
1, 109120, Note_on_c, 0, 61, 64
1, 109271, Note_on_c, 0, 61, 0
1, 109280, Note_on_c, 0, 64, 64
1, 109415, Note_on_c, 0, 68, 0
1, 109431, Note_on_c, 0, 64, 0
1, 109440, Note_on_c, 0, 54, 64
1, 109440, Note_on_c, 0, 66, 64
1, 109591, Note_on_c, 0, 54, 0
1, 109600, Note_on_c, 0, 61, 65
1, 109751, Note_on_c, 0, 61, 0
1, 109760, Note_on_c, 0, 63, 67
1, 109911, Note_on_c, 0, 63, 0
1, 109920, Note_on_c, 0, 54, 68
1, 110071, Note_on_c, 0, 54, 0
1, 110080, Note_on_c, 0, 61, 70
1, 110231, Note_on_c, 0, 61, 0
1, 110240, Note_on_c, 0, 63, 71
1, 110351, Note_on_c, 0, 66, 0
1, 110391, Note_on_c, 0, 63, 0
1, 110400, Note_on_c, 0, 56, 73
1, 110400, Note_on_c, 0, 68, 73
1, 110551, Note_on_c, 0, 56, 0
1, 110560, Note_on_c, 0, 61, 74
1, 110711, Note_on_c, 0, 61, 0
1, 110720, Note_on_c, 0, 63, 76
1, 110855, Note_on_c, 0, 68, 0
1, 110871, Note_on_c, 0, 63, 0
1, 110880, Note_on_c, 0, 57, 78
1, 110880, Note_on_c, 0, 69, 78
1, 111031, Note_on_c, 0, 57, 0
1, 111040, Note_on_c, 0, 61, 75
1, 111191, Note_on_c, 0, 61, 0
1, 111200, Note_on_c, 0, 63, 71
1, 111335, Note_on_c, 0, 69, 0
1, 111351, Note_on_c, 0, 63, 0
1, 111360, Note_on_c, 0, 56, 67
1, 111360, Note_on_c, 0, 68, 67
1, 111511, Note_on_c, 0, 56, 0
1, 111520, Note_on_c, 0, 61, 63
1, 111671, Note_on_c, 0, 61, 0
1, 111680, Note_on_c, 0, 64, 63
1, 111831, Note_on_c, 0, 64, 0
1, 111840, Note_on_c, 0, 56, 63
1, 111991, Note_on_c, 0, 56, 0
1, 112000, Note_on_c, 0, 61, 63
1, 112151, Note_on_c, 0, 61, 0
1, 112160, Note_on_c, 0, 64, 63
1, 112271, Note_on_c, 0, 68, 0
1, 112311, Note_on_c, 0, 64, 0
1, 112320, Note_on_c, 0, 54, 63
1, 112320, Note_on_c, 0, 68, 63
1, 112471, Note_on_c, 0, 54, 0
1, 112480, Note_on_c, 0, 60, 63
1, 112631, Note_on_c, 0, 60, 0
1, 112640, Note_on_c, 0, 63, 63
1, 112791, Note_on_c, 0, 63, 0
1, 112800, Note_on_c, 0, 54, 63
1, 112951, Note_on_c, 0, 54, 0
1, 112960, Note_on_c, 0, 60, 63
1, 113111, Note_on_c, 0, 60, 0
1, 113120, Note_on_c, 0, 63, 63
1, 113231, Note_on_c, 0, 68, 0
1, 113271, Note_on_c, 0, 63, 0
1, 113280, Note_on_c, 0, 52, 63
1, 113280, Note_on_c, 0, 61, 63
1, 113431, Note_on_c, 0, 52, 0
1, 113440, Note_on_c, 0, 56, 63
1, 113591, Note_on_c, 0, 56, 0
1, 113600, Note_on_c, 0, 61, 63
1, 113735, Note_on_c, 0, 61, 0
1, 113751, Note_on_c, 0, 61, 0
1, 113760, Note_on_c, 0, 56, 63
1, 113911, Note_on_c, 0, 56, 0
1, 113920, Note_on_c, 0, 61, 63
1, 114071, Note_on_c, 0, 61, 0
1, 114080, Note_on_c, 0, 64, 63
1, 114231, Note_on_c, 0, 64, 0
1, 114240, Note_on_c, 0, 56, 63
1, 114391, Note_on_c, 0, 56, 0
1, 114400, Note_on_c, 0, 61, 63
1, 114551, Note_on_c, 0, 61, 0
1, 114560, Note_on_c, 0, 64, 63
1, 114711, Note_on_c, 0, 64, 0
1, 114720, Note_on_c, 0, 56, 63
1, 114871, Note_on_c, 0, 56, 0
1, 114880, Note_on_c, 0, 61, 63
1, 115031, Note_on_c, 0, 61, 0
1, 115040, Note_on_c, 0, 64, 63
1, 115191, Note_on_c, 0, 64, 0
1, 115200, Note_on_c, 0, 56, 63
1, 115351, Note_on_c, 0, 56, 0
1, 115360, Note_on_c, 0, 63, 63
1, 115511, Note_on_c, 0, 63, 0
1, 115520, Note_on_c, 0, 66, 63
1, 115671, Note_on_c, 0, 66, 0
1, 115680, Note_on_c, 0, 56, 63
1, 115831, Note_on_c, 0, 56, 0
1, 115840, Note_on_c, 0, 63, 63
1, 115991, Note_on_c, 0, 63, 0
1, 116000, Note_on_c, 0, 66, 63
1, 116151, Note_on_c, 0, 66, 0
1, 116160, Note_on_c, 0, 56, 63
1, 116311, Note_on_c, 0, 56, 0
1, 116320, Note_on_c, 0, 63, 63
1, 116471, Note_on_c, 0, 63, 0
1, 116480, Note_on_c, 0, 66, 63
1, 116631, Note_on_c, 0, 66, 0
1, 116640, Note_on_c, 0, 56, 63
1, 116791, Note_on_c, 0, 56, 0
1, 116800, Note_on_c, 0, 63, 63
1, 116951, Note_on_c, 0, 63, 0
1, 116960, Note_on_c, 0, 66, 63
1, 117111, Note_on_c, 0, 66, 0
1, 117120, Note_on_c, 0, 56, 63
1, 117271, Note_on_c, 0, 56, 0
1, 117280, Note_on_c, 0, 64, 63
1, 117431, Note_on_c, 0, 64, 0
1, 117440, Note_on_c, 0, 61, 63
1, 117591, Note_on_c, 0, 61, 0
1, 117600, Note_on_c, 0, 68, 63
1, 117751, Note_on_c, 0, 68, 0
1, 117760, Note_on_c, 0, 64, 63
1, 117911, Note_on_c, 0, 64, 0
1, 117920, Note_on_c, 0, 73, 63
1, 118071, Note_on_c, 0, 73, 0
1, 118080, Note_on_c, 0, 68, 63
1, 118231, Note_on_c, 0, 68, 0
1, 118240, Note_on_c, 0, 76, 63
1, 118391, Note_on_c, 0, 76, 0
1, 118400, Note_on_c, 0, 73, 63
1, 118551, Note_on_c, 0, 73, 0
1, 118560, Note_on_c, 0, 80, 63
1, 118711, Note_on_c, 0, 80, 0
1, 118720, Note_on_c, 0, 76, 63
1, 118871, Note_on_c, 0, 76, 0
1, 118880, Note_on_c, 0, 73, 63
1, 119031, Note_on_c, 0, 73, 0
1, 119040, Note_on_c, 0, 72, 63
1, 119191, Note_on_c, 0, 72, 0
1, 119200, Note_on_c, 0, 75, 63
1, 119351, Note_on_c, 0, 75, 0
1, 119360, Note_on_c, 0, 69, 63
1, 119511, Note_on_c, 0, 69, 0
1, 119520, Note_on_c, 0, 72, 63
1, 119671, Note_on_c, 0, 72, 0
1, 119680, Note_on_c, 0, 66, 63
1, 119831, Note_on_c, 0, 66, 0
1, 119840, Note_on_c, 0, 69, 63
1, 119991, Note_on_c, 0, 69, 0
1, 120000, Note_on_c, 0, 63, 63
1, 120151, Note_on_c, 0, 63, 0
1, 120160, Note_on_c, 0, 66, 63
1, 120311, Note_on_c, 0, 66, 0
1, 120320, Note_on_c, 0, 57, 63
1, 120480, Note_on_c, 0, 60, 63
1, 120623, Note_on_c, 0, 57, 0
1, 120640, Note_on_c, 0, 56, 63
1, 120791, Note_on_c, 0, 56, 0
1, 120800, Note_on_c, 0, 54, 63
1, 120935, Note_on_c, 0, 60, 0
1, 120951, Note_on_c, 0, 54, 0
1, 120960, Note_on_c, 0, 52, 63
1, 120960, Note_on_c, 0, 61, 63
1, 121111, Note_on_c, 0, 52, 0
1, 121111, Note_on_c, 0, 61, 0
1, 121120, Note_on_c, 0, 64, 63
1, 121271, Note_on_c, 0, 64, 0
1, 121280, Note_on_c, 0, 61, 63
1, 121431, Note_on_c, 0, 61, 0
1, 121440, Note_on_c, 0, 68, 63
1, 121591, Note_on_c, 0, 68, 0
1, 121600, Note_on_c, 0, 64, 63
1, 121751, Note_on_c, 0, 64, 0
1, 121760, Note_on_c, 0, 73, 63
1, 121911, Note_on_c, 0, 73, 0
1, 121920, Note_on_c, 0, 68, 63
1, 122071, Note_on_c, 0, 68, 0
1, 122080, Note_on_c, 0, 76, 63
1, 122231, Note_on_c, 0, 76, 0
1, 122240, Note_on_c, 0, 73, 63
1, 122391, Note_on_c, 0, 73, 0
1, 122400, Note_on_c, 0, 80, 63
1, 122551, Note_on_c, 0, 80, 0
1, 122560, Note_on_c, 0, 76, 63
1, 122711, Note_on_c, 0, 76, 0
1, 122720, Note_on_c, 0, 73, 63
1, 122871, Note_on_c, 0, 73, 0
1, 122880, Note_on_c, 0, 72, 63
1, 123031, Note_on_c, 0, 72, 0
1, 123040, Note_on_c, 0, 75, 63
1, 123191, Note_on_c, 0, 75, 0
1, 123200, Note_on_c, 0, 69, 63
1, 123351, Note_on_c, 0, 69, 0
1, 123360, Note_on_c, 0, 72, 63
1, 123511, Note_on_c, 0, 72, 0
1, 123520, Note_on_c, 0, 66, 63
1, 123671, Note_on_c, 0, 66, 0
1, 123680, Note_on_c, 0, 69, 63
1, 123831, Note_on_c, 0, 69, 0
1, 123840, Note_on_c, 0, 63, 63
1, 123991, Note_on_c, 0, 63, 0
1, 124000, Note_on_c, 0, 66, 63
1, 124151, Note_on_c, 0, 66, 0
1, 124160, Note_on_c, 0, 57, 63
1, 124320, Note_on_c, 0, 60, 63
1, 124463, Note_on_c, 0, 57, 0
1, 124480, Note_on_c, 0, 56, 63
1, 124631, Note_on_c, 0, 56, 0
1, 124640, Note_on_c, 0, 54, 63
1, 124775, Note_on_c, 0, 60, 0
1, 124791, Note_on_c, 0, 54, 0
1, 124800, Note_on_c, 0, 52, 63
1, 124951, Note_on_c, 0, 52, 0
1, 124960, Note_on_c, 0, 56, 61
1, 125111, Note_on_c, 0, 56, 0
1, 125120, Note_on_c, 0, 61, 58
1, 125271, Note_on_c, 0, 61, 0
1, 125280, Note_on_c, 0, 64, 56
1, 125431, Note_on_c, 0, 64, 0
1, 125440, Note_on_c, 0, 61, 53
1, 125591, Note_on_c, 0, 61, 0
1, 125600, Note_on_c, 0, 56, 51
1, 125751, Note_on_c, 0, 56, 0
1, 125920, Note_on_c, 0, 52, 46
1, 126071, Note_on_c, 0, 52, 0
1, 126080, Note_on_c, 0, 56, 43
1, 126231, Note_on_c, 0, 56, 0
1, 126240, Note_on_c, 0, 61, 41
1, 126391, Note_on_c, 0, 61, 0
1, 126400, Note_on_c, 0, 56, 38
1, 126551, Note_on_c, 0, 56, 0
1, 126560, Note_on_c, 0, 52, 36
1, 126711, Note_on_c, 0, 52, 0
1, 126880, Note_on_c, 0, 49, 33
1, 127031, Note_on_c, 0, 49, 0
1, 127040, Note_on_c, 0, 52, 33
1, 127191, Note_on_c, 0, 52, 0
1, 127200, Note_on_c, 0, 56, 33
1, 127351, Note_on_c, 0, 56, 0
1, 127360, Note_on_c, 0, 52, 33
1, 127511, Note_on_c, 0, 52, 0
1, 127520, Note_on_c, 0, 49, 33
1, 127671, Note_on_c, 0, 49, 0
1, 127680, Note_on_c, 0, 44, 33
1, 127831, Note_on_c, 0, 44, 0
1, 127840, Note_on_c, 0, 49, 33
1, 127991, Note_on_c, 0, 49, 0
1, 128000, Note_on_c, 0, 44, 33
1, 128151, Note_on_c, 0, 44, 0
1, 128160, Note_on_c, 0, 40, 33
1, 128311, Note_on_c, 0, 40, 0
1, 128320, Note_on_c, 0, 44, 33
1, 128471, Note_on_c, 0, 44, 0
1, 128480, Note_on_c, 0, 40, 33
1, 128631, Note_on_c, 0, 40, 0
1, 129600, Note_on_c, 0, 52, 33
1, 129600, Note_on_c, 0, 56, 33
1, 129600, Note_on_c, 0, 61, 33
1, 130511, Note_on_c, 0, 52, 0
1, 130511, Note_on_c, 0, 56, 0
1, 130511, Note_on_c, 0, 61, 0
1, 130560, Note_on_c, 0, 52, 33
1, 130560, Note_on_c, 0, 56, 33
1, 130560, Note_on_c, 0, 61, 33
1, 132383, Note_on_c, 0, 52, 0
1, 132383, Note_on_c, 0, 56, 0
1, 132383, Note_on_c, 0, 61, 0
1, 132384, End_track
2, 0, Start_track
2, 0, Key_signature, 4, "major"
2, 0, MIDI_port, 0
2, 0, Note_on_c, 0, 37, 80
2, 0, Note_on_c, 0, 49, 80
2, 2, Control_c, 0, 64, 127
2, 1823, Note_on_c, 0, 37, 0
2, 1823, Note_on_c, 0, 49, 0
2, 1920, Note_on_c, 0, 35, 80
2, 1920, Note_on_c, 0, 47, 80
2, 1921, Control_c, 0, 64, 0
2, 1922, Control_c, 0, 64, 127
2, 3743, Note_on_c, 0, 35, 0
2, 3743, Note_on_c, 0, 47, 0
2, 3840, Note_on_c, 0, 33, 80
2, 3840, Note_on_c, 0, 45, 80
2, 3841, Control_c, 0, 64, 0
2, 3842, Control_c, 0, 64, 127
2, 4751, Note_on_c, 0, 33, 0
2, 4751, Note_on_c, 0, 45, 0
2, 4800, Note_on_c, 0, 30, 80
2, 4800, Note_on_c, 0, 42, 80
2, 4801, Control_c, 0, 64, 0
2, 4802, Control_c, 0, 64, 127
2, 5711, Note_on_c, 0, 30, 0
2, 5711, Note_on_c, 0, 42, 0
2, 5760, Note_on_c, 0, 32, 80
2, 5760, Note_on_c, 0, 44, 80
2, 5761, Control_c, 0, 64, 0
2, 5762, Control_c, 0, 64, 127
2, 6671, Note_on_c, 0, 32, 0
2, 6671, Note_on_c, 0, 44, 0
2, 6720, Note_on_c, 0, 32, 80
2, 6720, Note_on_c, 0, 44, 80
2, 6721, Control_c, 0, 64, 0
2, 6722, Control_c, 0, 64, 127
2, 7631, Note_on_c, 0, 32, 0
2, 7631, Note_on_c, 0, 44, 0
2, 7680, Note_on_c, 0, 37, 80
2, 7680, Note_on_c, 0, 44, 80
2, 7680, Note_on_c, 0, 49, 80
2, 7681, Control_c, 0, 64, 0
2, 7682, Control_c, 0, 64, 127
2, 9503, Note_on_c, 0, 37, 0
2, 9503, Note_on_c, 0, 44, 0
2, 9503, Note_on_c, 0, 49, 0
2, 9600, Note_on_c, 0, 36, 80
2, 9600, Note_on_c, 0, 44, 80
2, 9600, Note_on_c, 0, 48, 80
2, 9601, Control_c, 0, 64, 0
2, 9602, Control_c, 0, 64, 127
2, 11423, Note_on_c, 0, 36, 0
2, 11423, Note_on_c, 0, 44, 0
2, 11423, Note_on_c, 0, 48, 0
2, 11520, Note_on_c, 0, 37, 80
2, 11520, Note_on_c, 0, 49, 80
2, 11521, Control_c, 0, 64, 0
2, 11522, Control_c, 0, 64, 127
2, 12431, Note_on_c, 0, 37, 0
2, 12431, Note_on_c, 0, 49, 0
2, 12480, Note_on_c, 0, 30, 80
2, 12480, Note_on_c, 0, 42, 80
2, 12481, Control_c, 0, 64, 0
2, 12482, Control_c, 0, 64, 127
2, 13391, Note_on_c, 0, 30, 0
2, 13391, Note_on_c, 0, 42, 0
2, 13440, Note_on_c, 0, 35, 80
2, 13440, Note_on_c, 0, 47, 80
2, 13441, Control_c, 0, 64, 0
2, 13442, Control_c, 0, 64, 127
2, 14351, Note_on_c, 0, 35, 0
2, 14351, Note_on_c, 0, 47, 0
2, 14400, Note_on_c, 0, 35, 80
2, 14400, Note_on_c, 0, 47, 80
2, 14401, Control_c, 0, 64, 0
2, 14402, Control_c, 0, 64, 127
2, 15311, Note_on_c, 0, 35, 0
2, 15311, Note_on_c, 0, 47, 0
2, 15360, Note_on_c, 0, 40, 80
2, 15360, Note_on_c, 0, 52, 80
2, 15361, Control_c, 0, 64, 0
2, 15362, Control_c, 0, 64, 127
2, 17183, Note_on_c, 0, 40, 0
2, 17183, Note_on_c, 0, 52, 0
2, 17280, Note_on_c, 0, 40, 80
2, 17280, Note_on_c, 0, 52, 80
2, 17281, Control_c, 0, 64, 0
2, 17282, Control_c, 0, 64, 127
2, 19103, Note_on_c, 0, 40, 0
2, 19103, Note_on_c, 0, 52, 0
2, 19200, Note_on_c, 0, 38, 80
2, 19200, Note_on_c, 0, 50, 80
2, 19201, Control_c, 0, 64, 0
2, 19202, Control_c, 0, 64, 127
2, 21023, Note_on_c, 0, 38, 0
2, 21023, Note_on_c, 0, 50, 0
2, 21120, Note_on_c, 0, 36, 80
2, 21120, Note_on_c, 0, 48, 80
2, 21121, Control_c, 0, 64, 0
2, 21122, Control_c, 0, 64, 127
2, 21575, Note_on_c, 0, 36, 0
2, 21575, Note_on_c, 0, 48, 0
2, 21600, Note_on_c, 0, 35, 80
2, 21600, Note_on_c, 0, 47, 80
2, 22055, Note_on_c, 0, 35, 0
2, 22055, Note_on_c, 0, 47, 0
2, 22080, Note_on_c, 0, 34, 80
2, 22080, Note_on_c, 0, 46, 80
2, 22081, Control_c, 0, 64, 0
2, 22082, Control_c, 0, 64, 127
2, 22991, Note_on_c, 0, 34, 0
2, 22991, Note_on_c, 0, 46, 0
2, 23040, Note_on_c, 0, 35, 80
2, 23040, Note_on_c, 0, 47, 80
2, 23041, Control_c, 0, 64, 0
2, 23042, Control_c, 0, 64, 127
2, 23951, Note_on_c, 0, 35, 0
2, 23951, Note_on_c, 0, 47, 0
2, 24000, Note_on_c, 0, 40, 80
2, 24001, Control_c, 0, 64, 0
2, 24002, Control_c, 0, 64, 127
2, 24455, Note_on_c, 0, 40, 0
2, 24480, Note_on_c, 0, 43, 80
2, 24935, Note_on_c, 0, 43, 0
2, 24960, Note_on_c, 0, 42, 80
2, 24961, Control_c, 0, 64, 0
2, 24962, Control_c, 0, 64, 127
2, 25871, Note_on_c, 0, 42, 0
2, 25920, Note_on_c, 0, 30, 80
2, 25920, Note_on_c, 0, 42, 80
2, 25921, Control_c, 0, 64, 0
2, 25922, Control_c, 0, 64, 127
2, 26831, Note_on_c, 0, 30, 0
2, 26831, Note_on_c, 0, 42, 0
2, 26880, Note_on_c, 0, 35, 80
2, 26880, Note_on_c, 0, 47, 80
2, 26881, Control_c, 0, 64, 0
2, 26882, Control_c, 0, 64, 127
2, 29159, Note_on_c, 0, 35, 0
2, 29159, Note_on_c, 0, 47, 0
2, 29280, Note_on_c, 0, 40, 80
2, 29280, Note_on_c, 0, 52, 80
2, 29281, Control_c, 0, 64, 0
2, 29282, Control_c, 0, 64, 127
2, 29735, Note_on_c, 0, 40, 0
2, 29735, Note_on_c, 0, 52, 0
2, 29760, Note_on_c, 0, 43, 80
2, 29760, Note_on_c, 0, 55, 80
2, 30215, Note_on_c, 0, 43, 0
2, 30215, Note_on_c, 0, 55, 0
2, 30240, Note_on_c, 0, 40, 80
2, 30240, Note_on_c, 0, 52, 80
2, 30695, Note_on_c, 0, 40, 0
2, 30695, Note_on_c, 0, 52, 0
2, 30720, Note_on_c, 0, 35, 80
2, 30720, Note_on_c, 0, 47, 80
2, 30721, Control_c, 0, 64, 0
2, 30722, Control_c, 0, 64, 127
2, 32999, Note_on_c, 0, 35, 0
2, 32999, Note_on_c, 0, 47, 0
2, 33120, Note_on_c, 0, 40, 80
2, 33120, Note_on_c, 0, 52, 80
2, 33121, Control_c, 0, 64, 0
2, 33122, Control_c, 0, 64, 127
2, 33575, Note_on_c, 0, 40, 0
2, 33575, Note_on_c, 0, 52, 0
2, 33600, Note_on_c, 0, 43, 80
2, 33600, Note_on_c, 0, 55, 80
2, 34055, Note_on_c, 0, 43, 0
2, 34055, Note_on_c, 0, 55, 0
2, 34080, Note_on_c, 0, 40, 80
2, 34080, Note_on_c, 0, 52, 80
2, 34535, Note_on_c, 0, 40, 0
2, 34535, Note_on_c, 0, 52, 0
2, 34560, Note_on_c, 0, 35, 80
2, 34560, Note_on_c, 0, 47, 80
2, 34561, Control_c, 0, 64, 0
2, 34562, Control_c, 0, 64, 127
2, 35471, Note_on_c, 0, 35, 0
2, 35471, Note_on_c, 0, 47, 0
2, 35520, Note_on_c, 0, 32, 80
2, 35520, Note_on_c, 0, 44, 80
2, 35521, Control_c, 0, 64, 0
2, 35522, Control_c, 0, 64, 127
2, 36431, Note_on_c, 0, 32, 0
2, 36431, Note_on_c, 0, 44, 0
2, 36480, Note_on_c, 0, 29, 80
2, 36480, Note_on_c, 0, 41, 80
2, 36481, Control_c, 0, 64, 0
2, 36482, Control_c, 0, 64, 127
2, 37391, Note_on_c, 0, 29, 0
2, 37391, Note_on_c, 0, 41, 0
2, 37440, Note_on_c, 0, 30, 80
2, 37440, Note_on_c, 0, 42, 80
2, 37441, Control_c, 0, 64, 0
2, 37442, Control_c, 0, 64, 127
2, 38351, Note_on_c, 0, 30, 0
2, 38351, Note_on_c, 0, 42, 0
2, 38400, Note_on_c, 0, 35, 80
2, 38400, Note_on_c, 0, 44, 80
2, 38401, Control_c, 0, 64, 0
2, 38402, Control_c, 0, 64, 127
2, 39311, Note_on_c, 0, 35, 0
2, 39311, Note_on_c, 0, 44, 0
2, 39360, Note_on_c, 0, 36, 80
2, 39360, Note_on_c, 0, 48, 80
2, 39361, Control_c, 0, 64, 0
2, 39362, Control_c, 0, 64, 127
2, 40271, Note_on_c, 0, 36, 0
2, 40271, Note_on_c, 0, 48, 0
2, 40320, Note_on_c, 0, 37, 80
2, 40321, Control_c, 0, 64, 0
2, 40322, Control_c, 0, 64, 127
2, 41231, Note_on_c, 0, 37, 0
2, 41280, Note_on_c, 0, 37, 80
2, 41281, Control_c, 0, 64, 0
2, 41282, Control_c, 0, 64, 127
2, 42191, Note_on_c, 0, 37, 0
2, 42240, Note_on_c, 0, 30, 80
2, 42240, Note_on_c, 0, 37, 80
2, 42240, Note_on_c, 0, 42, 80
2, 42241, Control_c, 0, 64, 0
2, 42242, Control_c, 0, 64, 127
2, 44063, Note_on_c, 0, 30, 0
2, 44063, Note_on_c, 0, 37, 0
2, 44063, Note_on_c, 0, 42, 0
2, 44160, Note_on_c, 0, 41, 80
2, 44160, Note_on_c, 0, 49, 80
2, 44160, Note_on_c, 0, 53, 80
2, 44161, Control_c, 0, 64, 0
2, 44162, Control_c, 0, 64, 127
2, 45983, Note_on_c, 0, 41, 0
2, 45983, Note_on_c, 0, 49, 0
2, 45983, Note_on_c, 0, 53, 0
2, 46080, Note_on_c, 0, 42, 80
2, 46080, Note_on_c, 0, 54, 80
2, 46081, Control_c, 0, 64, 0
2, 46082, Control_c, 0, 64, 127
2, 46991, Note_on_c, 0, 42, 0
2, 46991, Note_on_c, 0, 54, 0
2, 47040, Note_on_c, 0, 39, 87
2, 47040, Note_on_c, 0, 51, 87
2, 47041, Control_c, 0, 64, 0
2, 47042, Control_c, 0, 64, 127
2, 47495, Note_on_c, 0, 39, 0
2, 47495, Note_on_c, 0, 51, 0
2, 47520, Note_on_c, 0, 37, 91
2, 47520, Note_on_c, 0, 49, 91
2, 47975, Note_on_c, 0, 37, 0
2, 47975, Note_on_c, 0, 49, 0
2, 48000, Note_on_c, 0, 36, 95
2, 48000, Note_on_c, 0, 44, 95
2, 48000, Note_on_c, 0, 48, 95
2, 48001, Control_c, 0, 64, 0
2, 48002, Control_c, 0, 64, 127
2, 49367, Note_on_c, 0, 36, 0
2, 49367, Note_on_c, 0, 44, 0
2, 49367, Note_on_c, 0, 48, 0
2, 49440, Note_on_c, 0, 36, 95
2, 49440, Note_on_c, 0, 44, 95
2, 49440, Note_on_c, 0, 48, 95
2, 49441, Control_c, 0, 64, 0
2, 49442, Control_c, 0, 64, 127
2, 49895, Note_on_c, 0, 36, 0
2, 49895, Note_on_c, 0, 44, 0
2, 49895, Note_on_c, 0, 48, 0
2, 49920, Note_on_c, 0, 37, 95
2, 49920, Note_on_c, 0, 44, 95
2, 49920, Note_on_c, 0, 49, 95
2, 49921, Control_c, 0, 64, 0
2, 49922, Control_c, 0, 64, 127
2, 50831, Note_on_c, 0, 37, 0
2, 50831, Note_on_c, 0, 44, 0
2, 50831, Note_on_c, 0, 49, 0
2, 50880, Note_on_c, 0, 30, 95
2, 50880, Note_on_c, 0, 42, 95
2, 50881, Control_c, 0, 64, 0
2, 50882, Control_c, 0, 64, 127
2, 51335, Note_on_c, 0, 30, 0
2, 51335, Note_on_c, 0, 42, 0
2, 51360, Note_on_c, 0, 31, 87
2, 51360, Note_on_c, 0, 43, 87
2, 51815, Note_on_c, 0, 31, 0
2, 51815, Note_on_c, 0, 43, 0
2, 51840, Note_on_c, 0, 32, 79
2, 51840, Note_on_c, 0, 44, 79
2, 51841, Control_c, 0, 64, 0
2, 51842, Control_c, 0, 64, 127
2, 53663, Note_on_c, 0, 32, 0
2, 53663, Note_on_c, 0, 44, 0
2, 53760, Note_on_c, 0, 32, 79
2, 53760, Note_on_c, 0, 44, 79
2, 53761, Control_c, 0, 64, 0
2, 53762, Control_c, 0, 64, 127
2, 55583, Note_on_c, 0, 32, 0
2, 55583, Note_on_c, 0, 44, 0
2, 55680, Note_on_c, 0, 32, 79
2, 55680, Note_on_c, 0, 44, 79
2, 55681, Control_c, 0, 64, 0
2, 55682, Control_c, 0, 64, 127
2, 57503, Note_on_c, 0, 32, 0
2, 57503, Note_on_c, 0, 44, 0
2, 57600, Note_on_c, 0, 32, 79
2, 57600, Note_on_c, 0, 44, 79
2, 57601, Control_c, 0, 64, 0
2, 57602, Control_c, 0, 64, 127
2, 59423, Note_on_c, 0, 32, 0
2, 59423, Note_on_c, 0, 44, 0
2, 59520, Note_on_c, 0, 32, 79
2, 59520, Note_on_c, 0, 44, 79
2, 59521, Control_c, 0, 64, 0
2, 59522, Control_c, 0, 64, 127
2, 61343, Note_on_c, 0, 32, 0
2, 61343, Note_on_c, 0, 44, 0
2, 61440, Note_on_c, 0, 32, 79
2, 61440, Note_on_c, 0, 44, 79
2, 61441, Control_c, 0, 64, 0
2, 61442, Control_c, 0, 64, 127
2, 63263, Note_on_c, 0, 32, 0
2, 63263, Note_on_c, 0, 44, 0
2, 63360, Note_on_c, 0, 32, 79
2, 63360, Note_on_c, 0, 44, 79
2, 63361, Control_c, 0, 64, 0
2, 63362, Control_c, 0, 64, 127
2, 65183, Note_on_c, 0, 32, 0
2, 65183, Note_on_c, 0, 44, 0
2, 65280, Note_on_c, 0, 32, 79
2, 65280, Note_on_c, 0, 44, 79
2, 65281, Control_c, 0, 64, 0
2, 65282, Control_c, 0, 64, 127
2, 67201, Control_c, 0, 64, 0
2, 67202, Control_c, 0, 64, 127
2, 69121, Control_c, 0, 64, 0
2, 69122, Control_c, 0, 64, 127
2, 70751, Note_on_c, 0, 32, 0
2, 70751, Note_on_c, 0, 44, 0
2, 71040, Note_on_c, 0, 32, 79
2, 71040, Note_on_c, 0, 44, 79
2, 71041, Control_c, 0, 64, 0
2, 71042, Control_c, 0, 64, 127
2, 72863, Note_on_c, 0, 32, 0
2, 72863, Note_on_c, 0, 44, 0
2, 72960, Note_on_c, 0, 32, 79
2, 72960, Note_on_c, 0, 44, 79
2, 72961, Control_c, 0, 64, 0
2, 72962, Control_c, 0, 64, 127
2, 74783, Note_on_c, 0, 32, 0
2, 74783, Note_on_c, 0, 44, 0
2, 74880, Note_on_c, 0, 32, 79
2, 74880, Note_on_c, 0, 44, 79
2, 74881, Control_c, 0, 64, 0
2, 74882, Control_c, 0, 64, 127
2, 75791, Note_on_c, 0, 32, 0
2, 75791, Note_on_c, 0, 44, 0
2, 75840, Note_on_c, 0, 33, 72
2, 75840, Note_on_c, 0, 45, 72
2, 75841, Control_c, 0, 64, 0
2, 75842, Control_c, 0, 64, 127
2, 76751, Note_on_c, 0, 33, 0
2, 76751, Note_on_c, 0, 45, 0
2, 76800, Note_on_c, 0, 30, 64
2, 76800, Note_on_c, 0, 42, 64
2, 76801, Control_c, 0, 64, 0
2, 76802, Control_c, 0, 64, 127
2, 77711, Note_on_c, 0, 30, 0
2, 77711, Note_on_c, 0, 42, 0
2, 77760, Note_on_c, 0, 32, 64
2, 77760, Note_on_c, 0, 44, 64
2, 77761, Control_c, 0, 64, 0
2, 77762, Control_c, 0, 64, 127
2, 78671, Note_on_c, 0, 32, 0
2, 78671, Note_on_c, 0, 44, 0
2, 78720, Note_on_c, 0, 37, 64
2, 78720, Note_on_c, 0, 44, 64
2, 78720, Note_on_c, 0, 49, 64
2, 78721, Control_c, 0, 64, 0
2, 78722, Control_c, 0, 64, 127
2, 80543, Note_on_c, 0, 37, 0
2, 80543, Note_on_c, 0, 44, 0
2, 80543, Note_on_c, 0, 49, 0
2, 80640, Note_on_c, 0, 36, 64
2, 80640, Note_on_c, 0, 44, 64
2, 80640, Note_on_c, 0, 48, 64
2, 80641, Control_c, 0, 64, 0
2, 80642, Control_c, 0, 64, 127
2, 82463, Note_on_c, 0, 36, 0
2, 82463, Note_on_c, 0, 44, 0
2, 82463, Note_on_c, 0, 48, 0
2, 82560, Note_on_c, 0, 37, 64
2, 82560, Note_on_c, 0, 49, 64
2, 82561, Control_c, 0, 64, 0
2, 82562, Control_c, 0, 64, 127
2, 83471, Note_on_c, 0, 37, 0
2, 83471, Note_on_c, 0, 49, 0
2, 83520, Note_on_c, 0, 30, 64
2, 83520, Note_on_c, 0, 42, 64
2, 83521, Control_c, 0, 64, 0
2, 83522, Control_c, 0, 64, 127
2, 84431, Note_on_c, 0, 30, 0
2, 84431, Note_on_c, 0, 42, 0
2, 84480, Note_on_c, 0, 35, 64
2, 84480, Note_on_c, 0, 47, 64
2, 84481, Control_c, 0, 64, 0
2, 84482, Control_c, 0, 64, 127
2, 85391, Note_on_c, 0, 35, 0
2, 85391, Note_on_c, 0, 47, 0
2, 85440, Note_on_c, 0, 35, 64
2, 85440, Note_on_c, 0, 47, 64
2, 85441, Control_c, 0, 64, 0
2, 85442, Control_c, 0, 64, 127
2, 86351, Note_on_c, 0, 35, 0
2, 86351, Note_on_c, 0, 47, 0
2, 86400, Note_on_c, 0, 40, 64
2, 86400, Note_on_c, 0, 52, 64
2, 86401, Control_c, 0, 64, 0
2, 86402, Control_c, 0, 64, 127
2, 88223, Note_on_c, 0, 40, 0
2, 88223, Note_on_c, 0, 52, 0
2, 88320, Note_on_c, 0, 39, 64
2, 88320, Note_on_c, 0, 51, 64
2, 88321, Control_c, 0, 64, 0
2, 88322, Control_c, 0, 64, 127
2, 90143, Note_on_c, 0, 39, 0
2, 90143, Note_on_c, 0, 51, 0
2, 90240, Note_on_c, 0, 40, 64
2, 90240, Note_on_c, 0, 52, 64
2, 90241, Control_c, 0, 64, 0
2, 90242, Control_c, 0, 64, 127
2, 91151, Note_on_c, 0, 40, 0
2, 91151, Note_on_c, 0, 52, 0
2, 91200, Note_on_c, 0, 39, 79
2, 91200, Note_on_c, 0, 51, 79
2, 91201, Control_c, 0, 64, 0
2, 91202, Control_c, 0, 64, 127
2, 91655, Note_on_c, 0, 39, 0
2, 91655, Note_on_c, 0, 51, 0
2, 91680, Note_on_c, 0, 37, 72
2, 91680, Note_on_c, 0, 49, 72
2, 92135, Note_on_c, 0, 37, 0
2, 92135, Note_on_c, 0, 49, 0
2, 92160, Note_on_c, 0, 36, 64
2, 92160, Note_on_c, 0, 44, 64
2, 92160, Note_on_c, 0, 48, 64
2, 92161, Control_c, 0, 64, 0
2, 92162, Control_c, 0, 64, 127
2, 93071, Note_on_c, 0, 36, 0
2, 93071, Note_on_c, 0, 44, 0
2, 93071, Note_on_c, 0, 48, 0
2, 93120, Note_on_c, 0, 37, 64
2, 93120, Note_on_c, 0, 44, 64
2, 93120, Note_on_c, 0, 49, 64
2, 93121, Control_c, 0, 64, 0
2, 93122, Control_c, 0, 64, 127
2, 94031, Note_on_c, 0, 37, 0
2, 94031, Note_on_c, 0, 44, 0
2, 94031, Note_on_c, 0, 49, 0
2, 94080, Note_on_c, 0, 30, 64
2, 94080, Note_on_c, 0, 42, 64
2, 94081, Control_c, 0, 64, 0
2, 94082, Control_c, 0, 64, 127
2, 94991, Note_on_c, 0, 30, 0
2, 94991, Note_on_c, 0, 42, 0
2, 95040, Note_on_c, 0, 32, 64
2, 95040, Note_on_c, 0, 44, 64
2, 95041, Control_c, 0, 64, 0
2, 95042, Control_c, 0, 64, 127
2, 95951, Note_on_c, 0, 32, 0
2, 95951, Note_on_c, 0, 44, 0
2, 96000, Note_on_c, 0, 37, 64
2, 96000, Note_on_c, 0, 49, 64
2, 96001, Control_c, 0, 64, 0
2, 96002, Control_c, 0, 64, 127
2, 98279, Note_on_c, 0, 37, 0
2, 98279, Note_on_c, 0, 49, 0
2, 98400, Note_on_c, 0, 42, 64
2, 98400, Note_on_c, 0, 54, 64
2, 98401, Control_c, 0, 64, 0
2, 98402, Control_c, 0, 64, 127
2, 98855, Note_on_c, 0, 42, 0
2, 98855, Note_on_c, 0, 54, 0
2, 98880, Note_on_c, 0, 45, 64
2, 98880, Note_on_c, 0, 57, 64
2, 99335, Note_on_c, 0, 45, 0
2, 99335, Note_on_c, 0, 57, 0
2, 99360, Note_on_c, 0, 42, 64
2, 99360, Note_on_c, 0, 54, 64
2, 99815, Note_on_c, 0, 42, 0
2, 99815, Note_on_c, 0, 54, 0
2, 99840, Note_on_c, 0, 37, 64
2, 99840, Note_on_c, 0, 49, 64
2, 99841, Control_c, 0, 64, 0
2, 99842, Control_c, 0, 64, 127
2, 102119, Note_on_c, 0, 37, 0
2, 102119, Note_on_c, 0, 49, 0
2, 102240, Note_on_c, 0, 42, 64
2, 102240, Note_on_c, 0, 54, 64
2, 102241, Control_c, 0, 64, 0
2, 102242, Control_c, 0, 64, 127
2, 102695, Note_on_c, 0, 42, 0
2, 102695, Note_on_c, 0, 54, 0
2, 102720, Note_on_c, 0, 45, 64
2, 102720, Note_on_c, 0, 57, 64
2, 103175, Note_on_c, 0, 45, 0
2, 103175, Note_on_c, 0, 57, 0
2, 103200, Note_on_c, 0, 42, 64
2, 103200, Note_on_c, 0, 54, 64
2, 103655, Note_on_c, 0, 42, 0
2, 103655, Note_on_c, 0, 54, 0
2, 103680, Note_on_c, 0, 37, 64
2, 103680, Note_on_c, 0, 49, 64
2, 103681, Control_c, 0, 64, 0
2, 103682, Control_c, 0, 64, 127
2, 104591, Note_on_c, 0, 37, 0
2, 104591, Note_on_c, 0, 49, 0
2, 104640, Note_on_c, 0, 30, 64
2, 104640, Note_on_c, 0, 42, 64
2, 104641, Control_c, 0, 64, 0
2, 104642, Control_c, 0, 64, 127
2, 105551, Note_on_c, 0, 30, 0
2, 105551, Note_on_c, 0, 42, 0
2, 105600, Note_on_c, 0, 39, 64
2, 105600, Note_on_c, 0, 51, 64
2, 105601, Control_c, 0, 64, 0
2, 105602, Control_c, 0, 64, 127
2, 106967, Note_on_c, 0, 39, 0
2, 106967, Note_on_c, 0, 51, 0
2, 107040, Note_on_c, 0, 40, 64
2, 107040, Note_on_c, 0, 52, 64
2, 107041, Control_c, 0, 64, 0
2, 107042, Control_c, 0, 64, 127
2, 107495, Note_on_c, 0, 40, 0
2, 107495, Note_on_c, 0, 52, 0
2, 107520, Note_on_c, 0, 40, 64
2, 107520, Note_on_c, 0, 49, 64
2, 107521, Control_c, 0, 64, 0
2, 107522, Control_c, 0, 64, 127
2, 107975, Note_on_c, 0, 40, 0
2, 107975, Note_on_c, 0, 49, 0
2, 108000, Note_on_c, 0, 39, 64
2, 108000, Note_on_c, 0, 51, 64
2, 108455, Note_on_c, 0, 39, 0
2, 108455, Note_on_c, 0, 51, 0
2, 108480, Note_on_c, 0, 36, 64
2, 108480, Note_on_c, 0, 48, 64
2, 108481, Control_c, 0, 64, 0
2, 108482, Control_c, 0, 64, 127
2, 108935, Note_on_c, 0, 36, 0
2, 108935, Note_on_c, 0, 48, 0
2, 108960, Note_on_c, 0, 37, 64
2, 108960, Note_on_c, 0, 49, 64
2, 109415, Note_on_c, 0, 37, 0
2, 109415, Note_on_c, 0, 49, 0
2, 109440, Note_on_c, 0, 33, 64
2, 109440, Note_on_c, 0, 45, 64
2, 109441, Control_c, 0, 64, 0
2, 109442, Control_c, 0, 64, 127
2, 110351, Note_on_c, 0, 33, 0
2, 110351, Note_on_c, 0, 45, 0
2, 110400, Note_on_c, 0, 32, 73
2, 110400, Note_on_c, 0, 44, 73
2, 110401, Control_c, 0, 64, 0
2, 110402, Control_c, 0, 64, 127
2, 110855, Note_on_c, 0, 32, 0
2, 110855, Note_on_c, 0, 44, 0
2, 110880, Note_on_c, 0, 30, 78
2, 110880, Note_on_c, 0, 42, 78
2, 111335, Note_on_c, 0, 30, 0
2, 111335, Note_on_c, 0, 42, 0
2, 111360, Note_on_c, 0, 32, 67
2, 111360, Note_on_c, 0, 44, 67
2, 111361, Control_c, 0, 64, 0
2, 111362, Control_c, 0, 64, 127
2, 112271, Note_on_c, 0, 32, 0
2, 112271, Note_on_c, 0, 44, 0
2, 112320, Note_on_c, 0, 32, 63
2, 112320, Note_on_c, 0, 44, 63
2, 112321, Control_c, 0, 64, 0
2, 112322, Control_c, 0, 64, 127
2, 113231, Note_on_c, 0, 32, 0
2, 113231, Note_on_c, 0, 44, 0
2, 113280, Note_on_c, 0, 37, 63
2, 113280, Note_on_c, 0, 44, 63
2, 113281, Control_c, 0, 64, 0
2, 113282, Control_c, 0, 64, 127
2, 114647, Note_on_c, 0, 44, 0
2, 114720, Note_on_c, 0, 44, 63
2, 115061, Note_on_c, 0, 44, 0
2, 115080, Note_on_c, 0, 44, 63
2, 115103, Note_on_c, 0, 37, 0
2, 115193, Note_on_c, 0, 44, 0
2, 115200, Note_on_c, 0, 36, 63
2, 115200, Note_on_c, 0, 44, 63
2, 115201, Control_c, 0, 64, 0
2, 115202, Control_c, 0, 64, 127
2, 116567, Note_on_c, 0, 44, 0
2, 116640, Note_on_c, 0, 44, 63
2, 116981, Note_on_c, 0, 44, 0
2, 117000, Note_on_c, 0, 44, 63
2, 117023, Note_on_c, 0, 36, 0
2, 117113, Note_on_c, 0, 44, 0
2, 117120, Note_on_c, 0, 37, 63
2, 117120, Note_on_c, 0, 44, 63
2, 117121, Control_c, 0, 64, 0
2, 117122, Control_c, 0, 64, 127
2, 118487, Note_on_c, 0, 44, 0
2, 118560, Note_on_c, 0, 44, 63
2, 118901, Note_on_c, 0, 44, 0
2, 118920, Note_on_c, 0, 44, 63
2, 118943, Note_on_c, 0, 37, 0
2, 119033, Note_on_c, 0, 44, 0
2, 119040, Note_on_c, 0, 32, 63
2, 119040, Note_on_c, 0, 44, 63
2, 119041, Control_c, 0, 64, 0
2, 119042, Control_c, 0, 64, 127
2, 120407, Note_on_c, 0, 44, 0
2, 120480, Note_on_c, 0, 44, 63
2, 120821, Note_on_c, 0, 44, 0
2, 120840, Note_on_c, 0, 44, 63
2, 120863, Note_on_c, 0, 32, 0
2, 120953, Note_on_c, 0, 44, 0
2, 120960, Note_on_c, 0, 37, 63
2, 120960, Note_on_c, 0, 44, 63
2, 120961, Control_c, 0, 64, 0
2, 120962, Control_c, 0, 64, 127
2, 122327, Note_on_c, 0, 44, 0
2, 122400, Note_on_c, 0, 44, 63
2, 122741, Note_on_c, 0, 44, 0
2, 122760, Note_on_c, 0, 44, 63
2, 122783, Note_on_c, 0, 37, 0
2, 122873, Note_on_c, 0, 44, 0
2, 122880, Note_on_c, 0, 32, 63
2, 122880, Note_on_c, 0, 44, 63
2, 122881, Control_c, 0, 64, 0
2, 122882, Control_c, 0, 64, 127
2, 124247, Note_on_c, 0, 44, 0
2, 124320, Note_on_c, 0, 44, 63
2, 124661, Note_on_c, 0, 44, 0
2, 124680, Note_on_c, 0, 44, 63
2, 124703, Note_on_c, 0, 32, 0
2, 124793, Note_on_c, 0, 44, 0
2, 124800, Note_on_c, 0, 37, 63
2, 124800, Note_on_c, 0, 44, 63
2, 124801, Control_c, 0, 64, 0
2, 124802, Control_c, 0, 64, 127
2, 125711, Note_on_c, 0, 44, 0
2, 125760, Note_on_c, 0, 49, 48
2, 126671, Note_on_c, 0, 49, 0
2, 126720, Note_on_c, 0, 44, 33
2, 126721, Control_c, 0, 64, 0
2, 126722, Control_c, 0, 64, 127
2, 127631, Note_on_c, 0, 44, 0
2, 128447, Note_on_c, 0, 37, 0
2, 128640, Note_on_c, 0, 37, 33
2, 128641, Control_c, 0, 64, 0
2, 128642, Control_c, 0, 64, 127
2, 129551, Note_on_c, 0, 37, 0
2, 129600, Note_on_c, 0, 37, 33
2, 129600, Note_on_c, 0, 44, 33
2, 129600, Note_on_c, 0, 49, 33
2, 129601, Control_c, 0, 64, 0
2, 129602, Control_c, 0, 64, 127
2, 130511, Note_on_c, 0, 37, 0
2, 130511, Note_on_c, 0, 44, 0
2, 130511, Note_on_c, 0, 49, 0
2, 130560, Note_on_c, 0, 37, 33
2, 130560, Note_on_c, 0, 44, 33
2, 130560, Note_on_c, 0, 49, 33
2, 130561, Control_c, 0, 64, 0
2, 130562, Control_c, 0, 64, 127
2, 132383, Note_on_c, 0, 37, 0
2, 132383, Note_on_c, 0, 44, 0
2, 132383, Note_on_c, 0, 49, 0
2, 132480, Control_c, 0, 64, 0
2, 132481, End_track
0, 0, End_of_file
