0, 0, Header, 1, 4, 480
1, 0, Start_track
1, 0, Unknown_meta_event, 8, 16, 77, 111, 111, 110, 108, 105, 103, 104, 116, 32, 45, 32, 73, 73, 73, 0
1, 0, Time_signature, 4, 2, 24, 8
1, 0, Key_signature, 4, "major"
1, 0, Tempo, 375000
1, 0, Program_c, 0, 0
1, 2, Control_c, 0, 7, 100
1, 4, Control_c, 0, 10, 45
1, 6, Control_c, 0, 91, 114
1, 8, Control_c, 0, 93, 0
1, 1440, Note_on_c, 0, 64, 80
1, 1559, Note_on_c, 0, 64, 0
1, 1560, Note_on_c, 0, 56, 80
1, 1679, Note_on_c, 0, 56, 0
1, 1680, Note_on_c, 0, 61, 80
1, 1799, Note_on_c, 0, 61, 0
1, 1800, Note_on_c, 0, 64, 80
1, 1919, Note_on_c, 0, 64, 0
1, 1920, Note_on_c, 0, 68, 80
1, 2039, Note_on_c, 0, 68, 0
1, 2040, Note_on_c, 0, 61, 80
1, 2159, Note_on_c, 0, 61, 0
1, 2160, Note_on_c, 0, 64, 80
1, 2279, Note_on_c, 0, 64, 0
1, 2280, Note_on_c, 0, 68, 80
1, 2399, Note_on_c, 0, 68, 0
1, 2400, Note_on_c, 0, 73, 80
1, 2519, Note_on_c, 0, 73, 0
1, 2520, Note_on_c, 0, 64, 80
1, 2639, Note_on_c, 0, 64, 0
1, 2640, Note_on_c, 0, 68, 80
1, 2759, Note_on_c, 0, 68, 0
1, 2760, Note_on_c, 0, 73, 80
1, 2879, Note_on_c, 0, 73, 0
1, 2880, Note_on_c, 0, 76, 80
1, 2999, Note_on_c, 0, 76, 0
1, 3000, Note_on_c, 0, 68, 80
1, 3119, Note_on_c, 0, 68, 0
1, 3120, Note_on_c, 0, 73, 80
1, 3239, Note_on_c, 0, 73, 0
1, 3240, Note_on_c, 0, 76, 80
1, 3359, Note_on_c, 0, 76, 0
1, 3360, Note_on_c, 0, 80, 80
1, 3360, Note_on_c, 0, 76, 80
1, 3360, Note_on_c, 0, 73, 80
1, 3360, Note_on_c, 0, 68, 80
1, 3599, Note_on_c, 0, 80, 0
1, 3599, Note_on_c, 0, 76, 0
1, 3599, Note_on_c, 0, 73, 0
1, 3599, Note_on_c, 0, 68, 0
1, 3600, Note_on_c, 0, 80, 80
1, 3600, Note_on_c, 0, 76, 80
1, 3600, Note_on_c, 0, 73, 80
1, 3600, Note_on_c, 0, 68, 80
1, 3719, Note_on_c, 0, 80, 0
1, 3719, Note_on_c, 0, 76, 0
1, 3719, Note_on_c, 0, 73, 0
1, 3719, Note_on_c, 0, 68, 0
1, 5280, Note_on_c, 0, 63, 80
1, 5399, Note_on_c, 0, 63, 0
1, 5400, Note_on_c, 0, 56, 80
1, 5519, Note_on_c, 0, 56, 0
1, 5520, Note_on_c, 0, 60, 80
1, 5639, Note_on_c, 0, 60, 0
1, 5640, Note_on_c, 0, 63, 80
1, 5759, Note_on_c, 0, 63, 0
1, 5760, Note_on_c, 0, 68, 80
1, 5879, Note_on_c, 0, 68, 0
1, 5880, Note_on_c, 0, 60, 80
1, 5999, Note_on_c, 0, 60, 0
1, 6000, Note_on_c, 0, 63, 80
1, 6119, Note_on_c, 0, 63, 0
1, 6120, Note_on_c, 0, 68, 80
1, 6239, Note_on_c, 0, 68, 0
1, 6240, Note_on_c, 0, 72, 80
1, 6359, Note_on_c, 0, 72, 0
1, 6360, Note_on_c, 0, 63, 80
1, 6479, Note_on_c, 0, 63, 0
1, 6480, Note_on_c, 0, 68, 80
1, 6599, Note_on_c, 0, 68, 0
1, 6600, Note_on_c, 0, 72, 80
1, 6719, Note_on_c, 0, 72, 0
1, 6720, Note_on_c, 0, 75, 80
1, 6839, Note_on_c, 0, 75, 0
1, 6840, Note_on_c, 0, 68, 80
1, 6959, Note_on_c, 0, 68, 0
1, 6960, Note_on_c, 0, 72, 80
1, 7079, Note_on_c, 0, 72, 0
1, 7080, Note_on_c, 0, 75, 80
1, 7199, Note_on_c, 0, 75, 0
1, 7200, Note_on_c, 0, 80, 80
1, 7200, Note_on_c, 0, 75, 80
1, 7200, Note_on_c, 0, 72, 80
1, 7200, Note_on_c, 0, 68, 80
1, 7439, Note_on_c, 0, 80, 0
1, 7439, Note_on_c, 0, 75, 0
1, 7439, Note_on_c, 0, 72, 0
1, 7439, Note_on_c, 0, 68, 0
1, 7440, Note_on_c, 0, 80, 80
1, 7440, Note_on_c, 0, 75, 80
1, 7440, Note_on_c, 0, 72, 80
1, 7440, Note_on_c, 0, 68, 80
1, 7559, Note_on_c, 0, 80, 0
1, 7559, Note_on_c, 0, 75, 0
1, 7559, Note_on_c, 0, 72, 0
1, 7559, Note_on_c, 0, 68, 0
1, 8640, Note_on_c, 0, 65, 80
1, 8759, Note_on_c, 0, 65, 0
1, 8760, Note_on_c, 0, 56, 80
1, 8879, Note_on_c, 0, 56, 0
1, 8880, Note_on_c, 0, 61, 80
1, 8999, Note_on_c, 0, 61, 0
1, 9000, Note_on_c, 0, 65, 80
1, 9119, Note_on_c, 0, 65, 0
1, 9120, Note_on_c, 0, 68, 80
1, 9239, Note_on_c, 0, 68, 0
1, 9240, Note_on_c, 0, 61, 80
1, 9359, Note_on_c, 0, 61, 0
1, 9360, Note_on_c, 0, 65, 80
1, 9479, Note_on_c, 0, 65, 0
1, 9480, Note_on_c, 0, 68, 80
1, 9599, Note_on_c, 0, 68, 0
1, 9600, Note_on_c, 0, 73, 80
1, 9719, Note_on_c, 0, 73, 0
1, 9720, Note_on_c, 0, 65, 80
1, 9839, Note_on_c, 0, 65, 0
1, 9840, Note_on_c, 0, 68, 80
1, 9959, Note_on_c, 0, 68, 0
1, 9960, Note_on_c, 0, 73, 80
1, 10079, Note_on_c, 0, 73, 0
1, 10080, Note_on_c, 0, 77, 80
1, 10199, Note_on_c, 0, 77, 0
1, 10200, Note_on_c, 0, 68, 80
1, 10319, Note_on_c, 0, 68, 0
1, 10320, Note_on_c, 0, 73, 80
1, 10439, Note_on_c, 0, 73, 0
1, 10440, Note_on_c, 0, 77, 80
1, 10559, Note_on_c, 0, 77, 0
1, 10560, Note_on_c, 0, 80, 80
1, 10679, Note_on_c, 0, 80, 0
1, 10680, Note_on_c, 0, 73, 80
1, 10799, Note_on_c, 0, 73, 0
1, 10800, Note_on_c, 0, 77, 80
1, 10919, Note_on_c, 0, 77, 0
1, 10920, Note_on_c, 0, 80, 80
1, 11039, Note_on_c, 0, 80, 0
1, 11040, Note_on_c, 0, 85, 80
1, 11040, Note_on_c, 0, 80, 80
1, 11040, Note_on_c, 0, 77, 80
1, 11040, Note_on_c, 0, 73, 80
1, 11279, Note_on_c, 0, 85, 0
1, 11279, Note_on_c, 0, 80, 0
1, 11279, Note_on_c, 0, 77, 0
1, 11279, Note_on_c, 0, 73, 0
1, 11280, Note_on_c, 0, 85, 80
1, 11280, Note_on_c, 0, 80, 80
1, 11280, Note_on_c, 0, 77, 80
1, 11280, Note_on_c, 0, 73, 80
1, 11399, Note_on_c, 0, 85, 0
1, 11399, Note_on_c, 0, 80, 0
1, 11399, Note_on_c, 0, 77, 0
1, 11399, Note_on_c, 0, 73, 0
1, 12000, Note_on_c, 0, 61, 80
1, 12059, Note_on_c, 0, 61, 0
1, 12120, Note_on_c, 0, 61, 80
1, 12239, Note_on_c, 0, 61, 0
1, 12240, Note_on_c, 0, 66, 80
1, 12359, Note_on_c, 0, 66, 0
1, 12360, Note_on_c, 0, 69, 80
1, 12479, Note_on_c, 0, 69, 0
1, 12480, Note_on_c, 0, 73, 80
1, 12539, Note_on_c, 0, 73, 0
1, 12600, Note_on_c, 0, 73, 80
1, 12719, Note_on_c, 0, 73, 0
1, 12720, Note_on_c, 0, 78, 80
1, 12839, Note_on_c, 0, 78, 0
1, 12840, Note_on_c, 0, 81, 80
1, 12959, Note_on_c, 0, 81, 0
1, 12960, Note_on_c, 0, 85, 80
1, 12960, Note_on_c, 0, 78, 80
1, 12960, Note_on_c, 0, 73, 80
1, 13199, Note_on_c, 0, 85, 0
1, 13199, Note_on_c, 0, 78, 0
1, 13199, Note_on_c, 0, 73, 0
1, 13200, Note_on_c, 0, 85, 80
1, 13200, Note_on_c, 0, 78, 80
1, 13200, Note_on_c, 0, 73, 80
1, 13319, Note_on_c, 0, 85, 0
1, 13319, Note_on_c, 0, 78, 0
1, 13319, Note_on_c, 0, 73, 0
1, 13920, Note_on_c, 0, 61, 80
1, 13979, Note_on_c, 0, 61, 0
1, 14040, Note_on_c, 0, 61, 80
1, 14159, Note_on_c, 0, 61, 0
1, 14160, Note_on_c, 0, 64, 80
1, 14279, Note_on_c, 0, 64, 0
1, 14280, Note_on_c, 0, 67, 80
1, 14399, Note_on_c, 0, 67, 0
1, 14400, Note_on_c, 0, 73, 80
1, 14459, Note_on_c, 0, 73, 0
1, 14520, Note_on_c, 0, 73, 80
1, 14639, Note_on_c, 0, 73, 0
1, 14640, Note_on_c, 0, 76, 80
1, 14759, Note_on_c, 0, 76, 0
1, 14760, Note_on_c, 0, 79, 80
1, 14879, Note_on_c, 0, 79, 0
1, 14880, Note_on_c, 0, 85, 80
1, 14880, Note_on_c, 0, 79, 80
1, 14880, Note_on_c, 0, 73, 80
1, 15119, Note_on_c, 0, 85, 0
1, 15119, Note_on_c, 0, 79, 0
1, 15119, Note_on_c, 0, 73, 0
1, 15120, Note_on_c, 0, 85, 80
1, 15120, Note_on_c, 0, 79, 80
1, 15120, Note_on_c, 0, 73, 80
1, 15239, Note_on_c, 0, 85, 0
1, 15239, Note_on_c, 0, 79, 0
1, 15239, Note_on_c, 0, 73, 0
1, 15360, Note_on_c, 0, 84, 80
1, 15360, Note_on_c, 0, 80, 80
1, 15360, Note_on_c, 0, 72, 80
1, 15479, Note_on_c, 0, 84, 0
1, 15479, Note_on_c, 0, 80, 0
1, 15479, Note_on_c, 0, 72, 0
1, 15600, Note_on_c, 0, 68, 80
1, 15719, Note_on_c, 0, 68, 0
1, 15720, Note_on_c, 0, 80, 80
1, 15839, Note_on_c, 0, 80, 0
1, 15840, Note_on_c, 0, 68, 80
1, 15959, Note_on_c, 0, 68, 0
1, 15960, Note_on_c, 0, 80, 80
1, 16079, Note_on_c, 0, 80, 0
1, 16080, Note_on_c, 0, 70, 80
1, 16199, Note_on_c, 0, 70, 0
1, 16200, Note_on_c, 0, 80, 80
1, 16319, Note_on_c, 0, 80, 0
1, 16320, Note_on_c, 0, 72, 80
1, 16439, Note_on_c, 0, 72, 0
1, 16440, Note_on_c, 0, 80, 80
1, 16559, Note_on_c, 0, 80, 0
1, 16560, Note_on_c, 0, 73, 80
1, 16679, Note_on_c, 0, 73, 0
1, 16680, Note_on_c, 0, 80, 80
1, 16799, Note_on_c, 0, 80, 0
1, 16800, Note_on_c, 0, 75, 80
1, 16919, Note_on_c, 0, 75, 0
1, 16920, Note_on_c, 0, 80, 80
1, 17039, Note_on_c, 0, 80, 0
1, 17040, Note_on_c, 0, 72, 80
1, 17159, Note_on_c, 0, 72, 0
1, 17160, Note_on_c, 0, 80, 80
1, 17279, Note_on_c, 0, 80, 0
1, 17280, Note_on_c, 0, 75, 80
1, 17399, Note_on_c, 0, 75, 0
1, 17400, Note_on_c, 0, 80, 80
1, 17519, Note_on_c, 0, 80, 0
1, 17520, Note_on_c, 0, 73, 80
1, 17639, Note_on_c, 0, 73, 0
1, 17640, Note_on_c, 0, 80, 80
1, 17759, Note_on_c, 0, 80, 0
1, 17760, Note_on_c, 0, 78, 80
1, 17879, Note_on_c, 0, 78, 0
1, 17880, Note_on_c, 0, 80, 80
1, 17999, Note_on_c, 0, 80, 0
1, 18000, Note_on_c, 0, 76, 80
1, 18119, Note_on_c, 0, 76, 0
1, 18120, Note_on_c, 0, 80, 80
1, 18239, Note_on_c, 0, 80, 0
1, 18240, Note_on_c, 0, 75, 80
1, 18359, Note_on_c, 0, 75, 0
1, 18360, Note_on_c, 0, 80, 80
1, 18479, Note_on_c, 0, 80, 0
1, 18480, Note_on_c, 0, 73, 80
1, 18599, Note_on_c, 0, 73, 0
1, 18600, Note_on_c, 0, 80, 80
1, 18719, Note_on_c, 0, 80, 0
1, 18720, Note_on_c, 0, 72, 80
1, 18839, Note_on_c, 0, 72, 0
1, 18840, Note_on_c, 0, 80, 80
1, 18959, Note_on_c, 0, 80, 0
1, 18960, Note_on_c, 0, 69, 80
1, 19079, Note_on_c, 0, 69, 0
1, 19080, Note_on_c, 0, 79, 80
1, 19199, Note_on_c, 0, 79, 0
1, 19200, Note_on_c, 0, 68, 80
1, 19319, Note_on_c, 0, 68, 0
1, 19320, Note_on_c, 0, 80, 80
1, 19439, Note_on_c, 0, 80, 0
1, 19440, Note_on_c, 0, 68, 80
1, 19559, Note_on_c, 0, 68, 0
1, 19560, Note_on_c, 0, 80, 80
1, 19679, Note_on_c, 0, 80, 0
1, 19680, Note_on_c, 0, 68, 80
1, 19799, Note_on_c, 0, 68, 0
1, 19800, Note_on_c, 0, 80, 80
1, 19919, Note_on_c, 0, 80, 0
1, 19920, Note_on_c, 0, 70, 80
1, 20039, Note_on_c, 0, 70, 0
1, 20040, Note_on_c, 0, 80, 80
1, 20159, Note_on_c, 0, 80, 0
1, 20160, Note_on_c, 0, 72, 80
1, 20279, Note_on_c, 0, 72, 0
1, 20280, Note_on_c, 0, 80, 80
1, 20399, Note_on_c, 0, 80, 0
1, 20400, Note_on_c, 0, 73, 80
1, 20519, Note_on_c, 0, 73, 0
1, 20520, Note_on_c, 0, 80, 80
1, 20639, Note_on_c, 0, 80, 0
1, 20640, Note_on_c, 0, 75, 80
1, 20759, Note_on_c, 0, 75, 0
1, 20760, Note_on_c, 0, 80, 80
1, 20879, Note_on_c, 0, 80, 0
1, 20880, Note_on_c, 0, 72, 80
1, 20999, Note_on_c, 0, 72, 0
1, 21000, Note_on_c, 0, 80, 80
1, 21119, Note_on_c, 0, 80, 0
1, 21120, Note_on_c, 0, 75, 80
1, 21239, Note_on_c, 0, 75, 0
1, 21240, Note_on_c, 0, 80, 80
1, 21359, Note_on_c, 0, 80, 0
1, 21360, Note_on_c, 0, 73, 80
1, 21479, Note_on_c, 0, 73, 0
1, 21480, Note_on_c, 0, 80, 80
1, 21599, Note_on_c, 0, 80, 0
1, 21600, Note_on_c, 0, 78, 80
1, 21719, Note_on_c, 0, 78, 0
1, 21720, Note_on_c, 0, 80, 80
1, 21839, Note_on_c, 0, 80, 0
1, 21840, Note_on_c, 0, 76, 80
1, 21959, Note_on_c, 0, 76, 0
1, 21960, Note_on_c, 0, 80, 80
1, 22079, Note_on_c, 0, 80, 0
1, 22080, Note_on_c, 0, 75, 80
1, 22199, Note_on_c, 0, 75, 0
1, 22200, Note_on_c, 0, 80, 80
1, 22319, Note_on_c, 0, 80, 0
1, 22320, Note_on_c, 0, 73, 80
1, 22439, Note_on_c, 0, 73, 0
1, 22440, Note_on_c, 0, 80, 80
1, 22559, Note_on_c, 0, 80, 0
1, 22560, Note_on_c, 0, 72, 80
1, 22679, Note_on_c, 0, 72, 0
1, 22680, Note_on_c, 0, 80, 80
1, 22799, Note_on_c, 0, 80, 0
1, 22800, Note_on_c, 0, 69, 80
1, 22919, Note_on_c, 0, 69, 0
1, 22920, Note_on_c, 0, 79, 80
1, 23039, Note_on_c, 0, 79, 0
1, 23040, Note_on_c, 0, 68, 80
1, 23159, Note_on_c, 0, 68, 0
1, 23160, Note_on_c, 0, 80, 80
1, 23279, Note_on_c, 0, 80, 0
1, 23280, Note_on_c, 0, 69, 80
1, 23399, Note_on_c, 0, 69, 0
1, 23400, Note_on_c, 0, 79, 80
1, 23519, Note_on_c, 0, 79, 0
1, 23520, Note_on_c, 0, 68, 80
1, 23639, Note_on_c, 0, 68, 0
1, 23640, Note_on_c, 0, 80, 80
1, 23759, Note_on_c, 0, 80, 0
1, 23760, Note_on_c, 0, 69, 80
1, 23879, Note_on_c, 0, 69, 0
1, 23880, Note_on_c, 0, 79, 80
1, 23999, Note_on_c, 0, 79, 0
1, 24000, Note_on_c, 0, 68, 80
1, 24119, Note_on_c, 0, 68, 0
1, 24120, Note_on_c, 0, 80, 80
1, 24239, Note_on_c, 0, 80, 0
1, 24240, Note_on_c, 0, 69, 80
1, 24359, Note_on_c, 0, 69, 0
1, 24360, Note_on_c, 0, 79, 80
1, 24479, Note_on_c, 0, 79, 0
1, 24480, Note_on_c, 0, 68, 80
1, 24599, Note_on_c, 0, 68, 0
1, 24600, Note_on_c, 0, 80, 80
1, 24719, Note_on_c, 0, 80, 0
1, 24720, Note_on_c, 0, 69, 80
1, 24839, Note_on_c, 0, 69, 0
1, 24840, Note_on_c, 0, 79, 80
1, 24959, Note_on_c, 0, 79, 0
1, 24960, Note_on_c, 0, 80, 80
1, 24960, Note_on_c, 0, 68, 80
1, 25199, Note_on_c, 0, 80, 0
1, 25199, Note_on_c, 0, 68, 0
1, 25440, Note_on_c, 0, 56, 80
1, 26879, Note_on_c, 0, 56, 0
1, 28320, Note_on_c, 0, 64, 80
1, 28439, Note_on_c, 0, 64, 0
1, 28440, Note_on_c, 0, 56, 80
1, 28559, Note_on_c, 0, 56, 0
1, 28560, Note_on_c, 0, 61, 80
1, 28679, Note_on_c, 0, 61, 0
1, 28680, Note_on_c, 0, 64, 80
1, 28799, Note_on_c, 0, 64, 0
1, 28800, Note_on_c, 0, 68, 80
1, 28919, Note_on_c, 0, 68, 0
1, 28920, Note_on_c, 0, 61, 80
1, 29039, Note_on_c, 0, 61, 0
1, 29040, Note_on_c, 0, 64, 80
1, 29159, Note_on_c, 0, 64, 0
1, 29160, Note_on_c, 0, 68, 80
1, 29279, Note_on_c, 0, 68, 0
1, 29280, Note_on_c, 0, 73, 80
1, 29399, Note_on_c, 0, 73, 0
1, 29400, Note_on_c, 0, 64, 80
1, 29519, Note_on_c, 0, 64, 0
1, 29520, Note_on_c, 0, 68, 80
1, 29639, Note_on_c, 0, 68, 0
1, 29640, Note_on_c, 0, 73, 80
1, 29759, Note_on_c, 0, 73, 0
1, 29760, Note_on_c, 0, 76, 80
1, 29879, Note_on_c, 0, 76, 0
1, 29880, Note_on_c, 0, 68, 80
1, 29999, Note_on_c, 0, 68, 0
1, 30000, Note_on_c, 0, 73, 80
1, 30119, Note_on_c, 0, 73, 0
1, 30120, Note_on_c, 0, 76, 80
1, 30239, Note_on_c, 0, 76, 0
1, 30240, Note_on_c, 0, 80, 80
1, 30240, Note_on_c, 0, 76, 80
1, 30240, Note_on_c, 0, 73, 80
1, 30240, Note_on_c, 0, 68, 80
1, 30479, Note_on_c, 0, 80, 0
1, 30479, Note_on_c, 0, 76, 0
1, 30479, Note_on_c, 0, 73, 0
1, 30479, Note_on_c, 0, 68, 0
1, 30480, Note_on_c, 0, 80, 80
1, 30480, Note_on_c, 0, 76, 80
1, 30480, Note_on_c, 0, 73, 80
1, 30480, Note_on_c, 0, 68, 80
1, 30599, Note_on_c, 0, 80, 0
1, 30599, Note_on_c, 0, 76, 0
1, 30599, Note_on_c, 0, 73, 0
1, 30599, Note_on_c, 0, 68, 0
1, 31680, Note_on_c, 0, 67, 80
1, 31799, Note_on_c, 0, 67, 0
1, 31800, Note_on_c, 0, 61, 80
1, 31919, Note_on_c, 0, 61, 0
1, 31920, Note_on_c, 0, 64, 80
1, 32039, Note_on_c, 0, 64, 0
1, 32040, Note_on_c, 0, 67, 80
1, 32159, Note_on_c, 0, 67, 0
1, 32160, Note_on_c, 0, 73, 80
1, 32279, Note_on_c, 0, 73, 0
1, 32280, Note_on_c, 0, 64, 80
1, 32399, Note_on_c, 0, 64, 0
1, 32400, Note_on_c, 0, 67, 80
1, 32519, Note_on_c, 0, 67, 0
1, 32520, Note_on_c, 0, 73, 80
1, 32639, Note_on_c, 0, 73, 0
1, 32640, Note_on_c, 0, 76, 80
1, 32759, Note_on_c, 0, 76, 0
1, 32760, Note_on_c, 0, 67, 80
1, 32879, Note_on_c, 0, 67, 0
1, 32880, Note_on_c, 0, 73, 80
1, 32999, Note_on_c, 0, 73, 0
1, 33000, Note_on_c, 0, 76, 80
1, 33119, Note_on_c, 0, 76, 0
1, 33120, Note_on_c, 0, 79, 80
1, 33239, Note_on_c, 0, 79, 0
1, 33240, Note_on_c, 0, 73, 80
1, 33359, Note_on_c, 0, 73, 0
1, 33360, Note_on_c, 0, 76, 80
1, 33479, Note_on_c, 0, 76, 0
1, 33480, Note_on_c, 0, 79, 80
1, 33599, Note_on_c, 0, 79, 0
1, 33600, Note_on_c, 0, 85, 80
1, 33719, Note_on_c, 0, 85, 0
1, 33720, Note_on_c, 0, 76, 80
1, 33839, Note_on_c, 0, 76, 0
1, 33840, Note_on_c, 0, 79, 80
1, 33959, Note_on_c, 0, 79, 0
1, 33960, Note_on_c, 0, 85, 80
1, 34079, Note_on_c, 0, 85, 0
1, 34080, Note_on_c, 0, 88, 80
1, 34080, Note_on_c, 0, 76, 80
1, 34319, Note_on_c, 0, 88, 0
1, 34319, Note_on_c, 0, 76, 0
1, 34320, Note_on_c, 0, 88, 80
1, 34320, Note_on_c, 0, 76, 80
1, 34439, Note_on_c, 0, 88, 0
1, 34439, Note_on_c, 0, 76, 0
1, 35520, Note_on_c, 0, 70, 80
1, 35639, Note_on_c, 0, 70, 0
1, 35640, Note_on_c, 0, 61, 80
1, 35759, Note_on_c, 0, 61, 0
1, 35760, Note_on_c, 0, 63, 80
1, 35879, Note_on_c, 0, 63, 0
1, 35880, Note_on_c, 0, 70, 80
1, 35999, Note_on_c, 0, 70, 0
1, 36000, Note_on_c, 0, 73, 80
1, 36119, Note_on_c, 0, 73, 0
1, 36120, Note_on_c, 0, 63, 80
1, 36239, Note_on_c, 0, 63, 0
1, 36240, Note_on_c, 0, 70, 80
1, 36359, Note_on_c, 0, 70, 0
1, 36360, Note_on_c, 0, 73, 80
1, 36479, Note_on_c, 0, 73, 0
1, 36480, Note_on_c, 0, 75, 80
1, 36599, Note_on_c, 0, 75, 0
1, 36600, Note_on_c, 0, 70, 80
1, 36719, Note_on_c, 0, 70, 0
1, 36720, Note_on_c, 0, 73, 80
1, 36839, Note_on_c, 0, 73, 0
1, 36840, Note_on_c, 0, 75, 80
1, 36959, Note_on_c, 0, 75, 0
1, 36960, Note_on_c, 0, 82, 80
1, 37079, Note_on_c, 0, 82, 0
1, 37080, Note_on_c, 0, 73, 80
1, 37199, Note_on_c, 0, 73, 0
1, 37200, Note_on_c, 0, 75, 80
1, 37319, Note_on_c, 0, 75, 0
1, 37320, Note_on_c, 0, 82, 80
1, 37439, Note_on_c, 0, 82, 0
1, 37440, Note_on_c, 0, 85, 80
1, 37559, Note_on_c, 0, 85, 0
1, 37560, Note_on_c, 0, 82, 80
1, 37679, Note_on_c, 0, 82, 0
1, 37680, Note_on_c, 0, 75, 80
1, 37799, Note_on_c, 0, 75, 0
1, 37800, Note_on_c, 0, 73, 80
1, 37919, Note_on_c, 0, 73, 0
1, 37920, Note_on_c, 0, 82, 80
1, 38039, Note_on_c, 0, 82, 0
1, 38040, Note_on_c, 0, 75, 80
1, 38159, Note_on_c, 0, 75, 0
1, 38160, Note_on_c, 0, 73, 80
1, 38279, Note_on_c, 0, 73, 0
1, 38280, Note_on_c, 0, 70, 80
1, 38399, Note_on_c, 0, 70, 0
1, 38400, Note_on_c, 0, 71, 80
1, 38639, Note_on_c, 0, 71, 0
1, 38880, Note_on_c, 0, 75, 80
1, 39839, Note_on_c, 0, 75, 0
1, 39840, Note_on_c, 0, 71, 80
1, 40199, Note_on_c, 0, 71, 0
1, 40200, Note_on_c, 0, 68, 80
1, 40229, Note_on_c, 0, 68, 0
1, 40230, Note_on_c, 0, 67, 80
1, 40259, Note_on_c, 0, 67, 0
1, 40260, Note_on_c, 0, 68, 80
1, 40289, Note_on_c, 0, 68, 0
1, 40290, Note_on_c, 0, 70, 80
1, 40319, Note_on_c, 0, 70, 0
1, 40320, Note_on_c, 0, 68, 80
1, 40799, Note_on_c, 0, 68, 0
1, 40800, Note_on_c, 0, 67, 80
1, 41519, Note_on_c, 0, 67, 0
1, 41520, Note_on_c, 0, 67, 80
1, 41759, Note_on_c, 0, 67, 0
1, 41760, Note_on_c, 0, 75, 80
1, 42119, Note_on_c, 0, 75, 0
1, 42120, Note_on_c, 0, 67, 80
1, 42239, Note_on_c, 0, 67, 0
1, 42240, Note_on_c, 0, 70, 80
1, 42719, Note_on_c, 0, 70, 0
1, 42720, Note_on_c, 0, 68, 80
1, 43439, Note_on_c, 0, 68, 0
1, 43440, Note_on_c, 0, 68, 80
1, 43679, Note_on_c, 0, 68, 0
1, 43680, Note_on_c, 0, 75, 80
1, 44039, Note_on_c, 0, 75, 0
1, 44040, Note_on_c, 0, 68, 80
1, 44159, Note_on_c, 0, 68, 0
1, 44160, Note_on_c, 0, 71, 80
1, 44639, Note_on_c, 0, 71, 0
1, 44640, Note_on_c, 0, 70, 80
1, 45359, Note_on_c, 0, 70, 0
1, 45360, Note_on_c, 0, 70, 80
1, 45599, Note_on_c, 0, 70, 0
1, 45600, Note_on_c, 0, 75, 80
1, 45959, Note_on_c, 0, 75, 0
1, 45960, Note_on_c, 0, 70, 80
1, 46079, Note_on_c, 0, 70, 0
1, 46080, Note_on_c, 0, 71, 80
1, 46199, Note_on_c, 0, 71, 0
1, 46320, Note_on_c, 0, 87, 80
1, 46320, Note_on_c, 0, 75, 80
1, 46799, Note_on_c, 0, 87, 0
1, 46799, Note_on_c, 0, 75, 0
1, 46800, Note_on_c, 0, 87, 80
1, 46800, Note_on_c, 0, 75, 80
1, 47279, Note_on_c, 0, 87, 0
1, 47279, Note_on_c, 0, 75, 0
1, 47280, Note_on_c, 0, 87, 80
1, 47280, Note_on_c, 0, 75, 80
1, 47399, Note_on_c, 0, 87, 0
1, 47399, Note_on_c, 0, 75, 0
1, 47520, Note_on_c, 0, 83, 80
1, 47520, Note_on_c, 0, 71, 80
1, 47639, Note_on_c, 0, 83, 0
1, 47639, Note_on_c, 0, 71, 0
1, 47760, Note_on_c, 0, 80, 80
1, 47760, Note_on_c, 0, 68, 80
1, 47879, Note_on_c, 0, 80, 0
1, 47879, Note_on_c, 0, 68, 0
1, 48000, Note_on_c, 0, 80, 80
1, 48000, Note_on_c, 0, 68, 80
1, 48119, Note_on_c, 0, 80, 0
1, 48119, Note_on_c, 0, 68, 0
1, 48240, Note_on_c, 0, 79, 80
1, 48240, Note_on_c, 0, 67, 80
1, 48719, Note_on_c, 0, 79, 0
1, 48719, Note_on_c, 0, 67, 0
1, 48720, Note_on_c, 0, 79, 80
1, 48720, Note_on_c, 0, 67, 80
1, 49199, Note_on_c, 0, 79, 0
1, 49199, Note_on_c, 0, 67, 0
1, 49200, Note_on_c, 0, 79, 80
1, 49200, Note_on_c, 0, 67, 80
1, 49319, Note_on_c, 0, 79, 0
1, 49319, Note_on_c, 0, 67, 0
1, 49440, Note_on_c, 0, 87, 80
1, 49440, Note_on_c, 0, 75, 80
1, 49559, Note_on_c, 0, 87, 0
1, 49559, Note_on_c, 0, 75, 0
1, 49680, Note_on_c, 0, 79, 80
1, 49680, Note_on_c, 0, 67, 80
1, 49799, Note_on_c, 0, 79, 0
1, 49799, Note_on_c, 0, 67, 0
1, 49920, Note_on_c, 0, 82, 80
1, 49920, Note_on_c, 0, 70, 80
1, 50039, Note_on_c, 0, 82, 0
1, 50039, Note_on_c, 0, 70, 0
1, 50160, Note_on_c, 0, 80, 80
1, 50160, Note_on_c, 0, 68, 80
1, 50639, Note_on_c, 0, 80, 0
1, 50639, Note_on_c, 0, 68, 0
1, 50640, Note_on_c, 0, 80, 80
1, 50640, Note_on_c, 0, 68, 80
1, 51119, Note_on_c, 0, 80, 0
1, 51119, Note_on_c, 0, 68, 0
1, 51120, Note_on_c, 0, 80, 80
1, 51120, Note_on_c, 0, 68, 80
1, 51239, Note_on_c, 0, 80, 0
1, 51239, Note_on_c, 0, 68, 0
1, 51360, Note_on_c, 0, 87, 80
1, 51360, Note_on_c, 0, 75, 80
1, 51479, Note_on_c, 0, 87, 0
1, 51479, Note_on_c, 0, 75, 0
1, 51600, Note_on_c, 0, 80, 80
1, 51600, Note_on_c, 0, 68, 80
1, 51719, Note_on_c, 0, 80, 0
1, 51719, Note_on_c, 0, 68, 0
1, 51840, Note_on_c, 0, 83, 80
1, 51840, Note_on_c, 0, 71, 80
1, 51959, Note_on_c, 0, 83, 0
1, 51959, Note_on_c, 0, 71, 0
1, 52080, Note_on_c, 0, 82, 80
1, 52080, Note_on_c, 0, 70, 80
1, 52559, Note_on_c, 0, 82, 0
1, 52559, Note_on_c, 0, 70, 0
1, 52560, Note_on_c, 0, 82, 80
1, 52560, Note_on_c, 0, 70, 80
1, 53039, Note_on_c, 0, 82, 0
1, 53039, Note_on_c, 0, 70, 0
1, 53040, Note_on_c, 0, 82, 80
1, 53040, Note_on_c, 0, 70, 80
1, 53159, Note_on_c, 0, 82, 0
1, 53159, Note_on_c, 0, 70, 0
1, 53280, Note_on_c, 0, 87, 80
1, 53280, Note_on_c, 0, 75, 80
1, 53399, Note_on_c, 0, 87, 0
1, 53399, Note_on_c, 0, 75, 0
1, 53520, Note_on_c, 0, 82, 80
1, 53520, Note_on_c, 0, 70, 80
1, 53639, Note_on_c, 0, 82, 0
1, 53639, Note_on_c, 0, 70, 0
1, 53760, Note_on_c, 0, 84, 80
1, 53760, Note_on_c, 0, 72, 80
1, 54719, Note_on_c, 0, 84, 0
1, 54719, Note_on_c, 0, 72, 0
1, 54720, Note_on_c, 0, 85, 80
1, 54720, Note_on_c, 0, 73, 80
1, 55679, Note_on_c, 0, 85, 0
1, 55679, Note_on_c, 0, 73, 0
1, 55680, Note_on_c, 0, 82, 80
1, 55739, Note_on_c, 0, 82, 0
1, 55740, Note_on_c, 0, 83, 80
1, 55799, Note_on_c, 0, 83, 0
1, 55800, Note_on_c, 0, 82, 80
1, 55859, Note_on_c, 0, 82, 0
1, 55860, Note_on_c, 0, 83, 80
1, 55919, Note_on_c, 0, 83, 0
1, 55920, Note_on_c, 0, 80, 80
1, 56039, Note_on_c, 0, 80, 0
1, 56040, Note_on_c, 0, 82, 80
1, 56159, Note_on_c, 0, 82, 0
1, 56160, Note_on_c, 0, 83, 80
1, 56160, Note_on_c, 0, 71, 80
1, 57599, Note_on_c, 0, 83, 0
1, 57599, Note_on_c, 0, 71, 0
1, 57600, Note_on_c, 0, 80, 80
1, 57600, Note_on_c, 0, 68, 80
1, 58559, Note_on_c, 0, 80, 0
1, 58559, Note_on_c, 0, 68, 0
1, 58560, Note_on_c, 0, 81, 80
1, 58560, Note_on_c, 0, 69, 80
1, 59519, Note_on_c, 0, 81, 0
1, 59519, Note_on_c, 0, 69, 0
1, 59520, Note_on_c, 0, 79, 80
1, 59579, Note_on_c, 0, 79, 0
1, 59580, Note_on_c, 0, 80, 80
1, 59639, Note_on_c, 0, 80, 0
1, 59640, Note_on_c, 0, 79, 80
1, 59699, Note_on_c, 0, 79, 0
1, 59700, Note_on_c, 0, 80, 80
1, 59759, Note_on_c, 0, 80, 0
1, 59760, Note_on_c, 0, 77, 80
1, 59879, Note_on_c, 0, 77, 0
1, 59880, Note_on_c, 0, 78, 80
1, 59999, Note_on_c, 0, 78, 0
1, 60000, Note_on_c, 0, 80, 80
1, 60000, Note_on_c, 0, 68, 80
1, 61439, Note_on_c, 0, 80, 0
1, 61439, Note_on_c, 0, 68, 0
1, 61440, Note_on_c, 0, 81, 80
1, 61440, Note_on_c, 0, 76, 80
1, 61440, Note_on_c, 0, 73, 80
1, 61440, Note_on_c, 0, 69, 80
1, 62519, Note_on_c, 0, 81, 0
1, 62519, Note_on_c, 0, 76, 0
1, 62519, Note_on_c, 0, 73, 0
1, 62519, Note_on_c, 0, 69, 0
1, 62520, Note_on_c, 0, 76, 80
1, 62639, Note_on_c, 0, 76, 0
1, 62640, Note_on_c, 0, 78, 80
1, 62759, Note_on_c, 0, 78, 0
1, 62760, Note_on_c, 0, 80, 80
1, 62879, Note_on_c, 0, 80, 0
1, 62880, Note_on_c, 0, 81, 80
1, 62999, Note_on_c, 0, 81, 0
1, 63000, Note_on_c, 0, 83, 80
1, 63119, Note_on_c, 0, 83, 0
1, 63120, Note_on_c, 0, 85, 80
1, 63239, Note_on_c, 0, 85, 0
1, 63240, Note_on_c, 0, 83, 80
1, 63359, Note_on_c, 0, 83, 0
1, 63360, Note_on_c, 0, 81, 80
1, 63479, Note_on_c, 0, 81, 0
1, 63480, Note_on_c, 0, 76, 80
1, 63599, Note_on_c, 0, 76, 0
1, 63600, Note_on_c, 0, 78, 80
1, 63719, Note_on_c, 0, 78, 0
1, 63720, Note_on_c, 0, 80, 80
1, 63839, Note_on_c, 0, 80, 0
1, 63840, Note_on_c, 0, 81, 80
1, 63959, Note_on_c, 0, 81, 0
1, 63960, Note_on_c, 0, 83, 80
1, 64079, Note_on_c, 0, 83, 0
1, 64080, Note_on_c, 0, 85, 80
1, 64199, Note_on_c, 0, 85, 0
1, 64200, Note_on_c, 0, 83, 80
1, 64319, Note_on_c, 0, 83, 0
1, 64320, Note_on_c, 0, 81, 80
1, 64439, Note_on_c, 0, 81, 0
1, 64440, Note_on_c, 0, 76, 80
1, 64559, Note_on_c, 0, 76, 0
1, 64560, Note_on_c, 0, 78, 80
1, 64679, Note_on_c, 0, 78, 0
1, 64680, Note_on_c, 0, 80, 80
1, 64799, Note_on_c, 0, 80, 0
1, 64800, Note_on_c, 0, 81, 80
1, 64919, Note_on_c, 0, 81, 0
1, 64920, Note_on_c, 0, 83, 80
1, 65039, Note_on_c, 0, 83, 0
1, 65040, Note_on_c, 0, 85, 80
1, 65159, Note_on_c, 0, 85, 0
1, 65160, Note_on_c, 0, 83, 80
1, 65279, Note_on_c, 0, 83, 0
1, 65280, Note_on_c, 0, 81, 80
1, 65399, Note_on_c, 0, 81, 0
1, 65400, Note_on_c, 0, 76, 80
1, 65519, Note_on_c, 0, 76, 0
1, 65520, Note_on_c, 0, 78, 80
1, 65639, Note_on_c, 0, 78, 0
1, 65640, Note_on_c, 0, 80, 80
1, 65759, Note_on_c, 0, 80, 0
1, 65760, Note_on_c, 0, 81, 80
1, 65879, Note_on_c, 0, 81, 0
1, 65880, Note_on_c, 0, 83, 80
1, 65999, Note_on_c, 0, 83, 0
1, 66000, Note_on_c, 0, 85, 80
1, 66119, Note_on_c, 0, 85, 0
1, 66120, Note_on_c, 0, 86, 80
1, 66239, Note_on_c, 0, 86, 0
1, 66240, Note_on_c, 0, 88, 80
1, 66359, Note_on_c, 0, 88, 0
1, 66360, Note_on_c, 0, 87, 80
1, 66479, Note_on_c, 0, 87, 0
1, 66480, Note_on_c, 0, 88, 80
1, 66599, Note_on_c, 0, 88, 0
1, 66600, Note_on_c, 0, 87, 80
1, 66719, Note_on_c, 0, 87, 0
1, 66720, Note_on_c, 0, 88, 80
1, 66839, Note_on_c, 0, 88, 0
1, 66840, Note_on_c, 0, 85, 80
1, 66959, Note_on_c, 0, 85, 0
1, 66960, Note_on_c, 0, 83, 80
1, 67079, Note_on_c, 0, 83, 0
1, 67080, Note_on_c, 0, 81, 80
1, 67199, Note_on_c, 0, 81, 0
1, 67200, Note_on_c, 0, 80, 80
1, 68159, Note_on_c, 0, 80, 0
1, 68160, Note_on_c, 0, 82, 80
1, 68219, Note_on_c, 0, 82, 0
1, 68220, Note_on_c, 0, 83, 80
1, 68279, Note_on_c, 0, 83, 0
1, 68280, Note_on_c, 0, 82, 80
1, 68339, Note_on_c, 0, 82, 0
1, 68340, Note_on_c, 0, 83, 80
1, 68399, Note_on_c, 0, 83, 0
1, 68400, Note_on_c, 0, 82, 80
1, 68459, Note_on_c, 0, 82, 0
1, 68460, Note_on_c, 0, 83, 80
1, 68519, Note_on_c, 0, 83, 0
1, 68520, Note_on_c, 0, 82, 80
1, 68579, Note_on_c, 0, 82, 0
1, 68580, Note_on_c, 0, 83, 80
1, 68639, Note_on_c, 0, 83, 0
1, 68640, Note_on_c, 0, 82, 80
1, 68699, Note_on_c, 0, 82, 0
1, 68700, Note_on_c, 0, 83, 80
1, 68759, Note_on_c, 0, 83, 0
1, 68760, Note_on_c, 0, 82, 80
1, 68819, Note_on_c, 0, 82, 0
1, 68820, Note_on_c, 0, 83, 80
1, 68879, Note_on_c, 0, 83, 0
1, 68880, Note_on_c, 0, 80, 80
1, 68999, Note_on_c, 0, 80, 0
1, 69000, Note_on_c, 0, 82, 80
1, 69119, Note_on_c, 0, 82, 0
1, 69120, Note_on_c, 0, 80, 80
1, 69359, Note_on_c, 0, 80, 0
1, 69600, Note_on_c, 0, 69, 80
1, 69600, Note_on_c, 0, 64, 80
1, 69600, Note_on_c, 0, 61, 80
1, 69600, Note_on_c, 0, 57, 80
1, 70199, Note_on_c, 0, 69, 0
1, 70199, Note_on_c, 0, 64, 0
1, 70199, Note_on_c, 0, 61, 0
1, 70199, Note_on_c, 0, 57, 0
1, 70200, Note_on_c, 0, 64, 80
1, 70319, Note_on_c, 0, 64, 0
1, 70320, Note_on_c, 0, 66, 80
1, 70439, Note_on_c, 0, 66, 0
1, 70440, Note_on_c, 0, 68, 80
1, 70559, Note_on_c, 0, 68, 0
1, 70560, Note_on_c, 0, 69, 80
1, 70679, Note_on_c, 0, 69, 0
1, 70680, Note_on_c, 0, 71, 80
1, 70799, Note_on_c, 0, 71, 0
1, 70800, Note_on_c, 0, 73, 80
1, 70919, Note_on_c, 0, 73, 0
1, 70920, Note_on_c, 0, 71, 80
1, 71039, Note_on_c, 0, 71, 0
1, 71040, Note_on_c, 0, 69, 80
1, 71159, Note_on_c, 0, 69, 0
1, 71160, Note_on_c, 0, 64, 80
1, 71279, Note_on_c, 0, 64, 0
1, 71280, Note_on_c, 0, 66, 80
1, 71399, Note_on_c, 0, 66, 0
1, 71400, Note_on_c, 0, 68, 80
1, 71519, Note_on_c, 0, 68, 0
1, 71520, Note_on_c, 0, 69, 80
1, 71639, Note_on_c, 0, 69, 0
1, 71640, Note_on_c, 0, 71, 80
1, 71759, Note_on_c, 0, 71, 0
1, 71760, Note_on_c, 0, 73, 80
1, 71879, Note_on_c, 0, 73, 0
1, 71880, Note_on_c, 0, 71, 80
1, 71999, Note_on_c, 0, 71, 0
1, 72000, Note_on_c, 0, 69, 80
1, 72119, Note_on_c, 0, 69, 0
1, 72120, Note_on_c, 0, 64, 80
1, 72239, Note_on_c, 0, 64, 0
1, 72240, Note_on_c, 0, 66, 80
1, 72359, Note_on_c, 0, 66, 0
1, 72360, Note_on_c, 0, 68, 80
1, 72479, Note_on_c, 0, 68, 0
1, 72480, Note_on_c, 0, 69, 80
1, 72599, Note_on_c, 0, 69, 0
1, 72600, Note_on_c, 0, 71, 80
1, 72719, Note_on_c, 0, 71, 0
1, 72720, Note_on_c, 0, 73, 80
1, 72839, Note_on_c, 0, 73, 0
1, 72840, Note_on_c, 0, 71, 80
1, 72959, Note_on_c, 0, 71, 0
1, 72960, Note_on_c, 0, 69, 80
1, 73079, Note_on_c, 0, 69, 0
1, 73080, Note_on_c, 0, 64, 80
1, 73199, Note_on_c, 0, 64, 0
1, 73200, Note_on_c, 0, 66, 80
1, 73319, Note_on_c, 0, 66, 0
1, 73320, Note_on_c, 0, 68, 80
1, 73439, Note_on_c, 0, 68, 0
1, 73440, Note_on_c, 0, 69, 80
1, 73559, Note_on_c, 0, 69, 0
1, 73560, Note_on_c, 0, 71, 80
1, 73679, Note_on_c, 0, 71, 0
1, 73680, Note_on_c, 0, 73, 80
1, 73799, Note_on_c, 0, 73, 0
1, 73800, Note_on_c, 0, 71, 80
1, 73919, Note_on_c, 0, 71, 0
1, 73920, Note_on_c, 0, 69, 80
1, 74039, Note_on_c, 0, 69, 0
1, 74040, Note_on_c, 0, 64, 80
1, 74159, Note_on_c, 0, 64, 0
1, 74160, Note_on_c, 0, 66, 80
1, 74279, Note_on_c, 0, 66, 0
1, 74280, Note_on_c, 0, 68, 80
1, 74399, Note_on_c, 0, 68, 0
1, 74400, Note_on_c, 0, 69, 80
1, 74519, Note_on_c, 0, 69, 0
1, 74520, Note_on_c, 0, 71, 80
1, 74639, Note_on_c, 0, 71, 0
1, 74640, Note_on_c, 0, 73, 80
1, 74759, Note_on_c, 0, 73, 0
1, 74760, Note_on_c, 0, 71, 80
1, 74879, Note_on_c, 0, 71, 0
1, 74880, Note_on_c, 0, 69, 80
1, 74999, Note_on_c, 0, 69, 0
1, 75000, Note_on_c, 0, 64, 80
1, 75119, Note_on_c, 0, 64, 0
1, 75120, Note_on_c, 0, 66, 80
1, 75239, Note_on_c, 0, 66, 0
1, 75240, Note_on_c, 0, 68, 80
1, 75359, Note_on_c, 0, 68, 0
1, 75360, Note_on_c, 0, 69, 80
1, 75479, Note_on_c, 0, 69, 0
1, 75480, Note_on_c, 0, 71, 80
1, 75599, Note_on_c, 0, 71, 0
1, 75600, Note_on_c, 0, 73, 80
1, 75719, Note_on_c, 0, 73, 0
1, 75720, Note_on_c, 0, 74, 80
1, 75839, Note_on_c, 0, 74, 0
1, 75840, Note_on_c, 0, 76, 80
1, 75959, Note_on_c, 0, 76, 0
1, 75960, Note_on_c, 0, 78, 80
1, 76079, Note_on_c, 0, 78, 0
1, 76080, Note_on_c, 0, 80, 80
1, 76199, Note_on_c, 0, 80, 0
1, 76200, Note_on_c, 0, 81, 80
1, 76319, Note_on_c, 0, 81, 0
1, 76320, Note_on_c, 0, 83, 80
1, 76439, Note_on_c, 0, 83, 0
1, 76440, Note_on_c, 0, 85, 80
1, 76559, Note_on_c, 0, 85, 0
1, 76560, Note_on_c, 0, 86, 80
1, 76679, Note_on_c, 0, 86, 0
1, 76680, Note_on_c, 0, 87, 80
1, 76799, Note_on_c, 0, 87, 0
1, 76800, Note_on_c, 0, 88, 80
1, 76800, Note_on_c, 0, 76, 80
1, 77759, Note_on_c, 0, 88, 0
1, 77759, Note_on_c, 0, 76, 0
1, 77760, Note_on_c, 0, 80, 80
1, 77760, Note_on_c, 0, 68, 80
1, 78719, Note_on_c, 0, 80, 0
1, 78719, Note_on_c, 0, 68, 0
1, 78720, Note_on_c, 0, 83, 80
1, 78720, Note_on_c, 0, 71, 80
1, 79679, Note_on_c, 0, 83, 0
1, 79679, Note_on_c, 0, 71, 0
1, 79680, Note_on_c, 0, 67, 80
1, 79680, Note_on_c, 0, 61, 80
1, 79680, Note_on_c, 0, 55, 80
1, 80639, Note_on_c, 0, 67, 0
1, 80639, Note_on_c, 0, 61, 0
1, 80639, Note_on_c, 0, 55, 0
1, 80640, Note_on_c, 0, 68, 80
1, 80640, Note_on_c, 0, 59, 80
1, 80640, Note_on_c, 0, 56, 80
1, 80879, Note_on_c, 0, 68, 0
1, 80879, Note_on_c, 0, 59, 0
1, 80879, Note_on_c, 0, 56, 0
1, 80880, Note_on_c, 0, 71, 80
1, 80880, Note_on_c, 0, 63, 80
1, 80999, Note_on_c, 0, 71, 0
1, 80999, Note_on_c, 0, 63, 0
1, 81120, Note_on_c, 0, 71, 80
1, 81120, Note_on_c, 0, 63, 80
1, 81239, Note_on_c, 0, 71, 0
1, 81239, Note_on_c, 0, 63, 0
1, 81360, Note_on_c, 0, 71, 80
1, 81360, Note_on_c, 0, 63, 80
1, 81479, Note_on_c, 0, 71, 0
1, 81479, Note_on_c, 0, 63, 0
1, 81600, Note_on_c, 0, 71, 80
1, 81600, Note_on_c, 0, 63, 80
1, 81719, Note_on_c, 0, 71, 0
1, 81719, Note_on_c, 0, 63, 0
1, 81840, Note_on_c, 0, 71, 80
1, 81840, Note_on_c, 0, 63, 80
1, 81959, Note_on_c, 0, 71, 0
1, 81959, Note_on_c, 0, 63, 0
1, 82080, Note_on_c, 0, 70, 80
1, 82080, Note_on_c, 0, 63, 80
1, 82199, Note_on_c, 0, 70, 0
1, 82199, Note_on_c, 0, 63, 0
1, 82320, Note_on_c, 0, 68, 80
1, 82320, Note_on_c, 0, 63, 80
1, 82439, Note_on_c, 0, 68, 0
1, 82439, Note_on_c, 0, 63, 0
1, 82560, Note_on_c, 0, 67, 80
1, 82560, Note_on_c, 0, 63, 80
1, 82799, Note_on_c, 0, 67, 0
1, 82799, Note_on_c, 0, 63, 0
1, 82800, Note_on_c, 0, 75, 80
1, 82800, Note_on_c, 0, 67, 80
1, 83039, Note_on_c, 0, 75, 0
1, 83039, Note_on_c, 0, 67, 0
1, 83040, Note_on_c, 0, 75, 80
1, 83040, Note_on_c, 0, 67, 80
1, 83279, Note_on_c, 0, 75, 0
1, 83279, Note_on_c, 0, 67, 0
1, 83280, Note_on_c, 0, 75, 80
1, 83280, Note_on_c, 0, 67, 80
1, 83519, Note_on_c, 0, 75, 0
1, 83519, Note_on_c, 0, 67, 0
1, 83520, Note_on_c, 0, 75, 80
1, 83520, Note_on_c, 0, 67, 80
1, 83759, Note_on_c, 0, 75, 0
1, 83759, Note_on_c, 0, 67, 0
1, 83760, Note_on_c, 0, 75, 80
1, 83760, Note_on_c, 0, 67, 80
1, 83999, Note_on_c, 0, 75, 0
1, 83999, Note_on_c, 0, 67, 0
1, 84000, Note_on_c, 0, 75, 80
1, 84000, Note_on_c, 0, 68, 80
1, 84239, Note_on_c, 0, 75, 0
1, 84239, Note_on_c, 0, 68, 0
1, 84240, Note_on_c, 0, 75, 80
1, 84240, Note_on_c, 0, 70, 80
1, 84479, Note_on_c, 0, 75, 0
1, 84479, Note_on_c, 0, 70, 0
1, 84480, Note_on_c, 0, 75, 80
1, 84480, Note_on_c, 0, 71, 80
1, 84719, Note_on_c, 0, 75, 0
1, 84719, Note_on_c, 0, 71, 0
1, 84720, Note_on_c, 0, 71, 80
1, 84720, Note_on_c, 0, 63, 80
1, 84959, Note_on_c, 0, 71, 0
1, 84959, Note_on_c, 0, 63, 0
1, 84960, Note_on_c, 0, 71, 80
1, 84960, Note_on_c, 0, 63, 80
1, 85199, Note_on_c, 0, 71, 0
1, 85199, Note_on_c, 0, 63, 0
1, 85200, Note_on_c, 0, 71, 80
1, 85200, Note_on_c, 0, 63, 80
1, 85439, Note_on_c, 0, 71, 0
1, 85439, Note_on_c, 0, 63, 0
1, 85440, Note_on_c, 0, 71, 80
1, 85440, Note_on_c, 0, 63, 80
1, 85679, Note_on_c, 0, 71, 0
1, 85679, Note_on_c, 0, 63, 0
1, 85680, Note_on_c, 0, 71, 80
1, 85680, Note_on_c, 0, 63, 80
1, 85919, Note_on_c, 0, 71, 0
1, 85919, Note_on_c, 0, 63, 0
1, 85920, Note_on_c, 0, 70, 80
1, 85920, Note_on_c, 0, 63, 80
1, 86159, Note_on_c, 0, 70, 0
1, 86159, Note_on_c, 0, 63, 0
1, 86160, Note_on_c, 0, 68, 80
1, 86160, Note_on_c, 0, 63, 80
1, 86399, Note_on_c, 0, 68, 0
1, 86399, Note_on_c, 0, 63, 0
1, 86400, Note_on_c, 0, 67, 80
1, 86400, Note_on_c, 0, 63, 80
1, 86639, Note_on_c, 0, 67, 0
1, 86639, Note_on_c, 0, 63, 0
1, 86640, Note_on_c, 0, 75, 80
1, 86640, Note_on_c, 0, 67, 80
1, 86879, Note_on_c, 0, 75, 0
1, 86879, Note_on_c, 0, 67, 0
1, 86880, Note_on_c, 0, 75, 80
1, 86880, Note_on_c, 0, 67, 80
1, 87119, Note_on_c, 0, 75, 0
1, 87119, Note_on_c, 0, 67, 0
1, 87120, Note_on_c, 0, 75, 80
1, 87120, Note_on_c, 0, 67, 80
1, 87359, Note_on_c, 0, 75, 0
1, 87359, Note_on_c, 0, 67, 0
1, 87360, Note_on_c, 0, 75, 80
1, 87360, Note_on_c, 0, 67, 80
1, 87599, Note_on_c, 0, 75, 0
1, 87599, Note_on_c, 0, 67, 0
1, 87600, Note_on_c, 0, 75, 80
1, 87600, Note_on_c, 0, 67, 80
1, 87839, Note_on_c, 0, 75, 0
1, 87839, Note_on_c, 0, 67, 0
1, 87840, Note_on_c, 0, 75, 80
1, 87840, Note_on_c, 0, 68, 80
1, 88079, Note_on_c, 0, 75, 0
1, 88079, Note_on_c, 0, 68, 0
1, 88080, Note_on_c, 0, 75, 80
1, 88080, Note_on_c, 0, 70, 80
1, 88319, Note_on_c, 0, 75, 0
1, 88319, Note_on_c, 0, 70, 0
1, 88320, Note_on_c, 0, 75, 80
1, 88320, Note_on_c, 0, 71, 80
1, 88439, Note_on_c, 0, 75, 0
1, 88439, Note_on_c, 0, 71, 0
1, 88560, Note_on_c, 0, 75, 80
1, 88560, Note_on_c, 0, 71, 80
1, 88679, Note_on_c, 0, 75, 0
1, 88679, Note_on_c, 0, 71, 0
1, 88800, Note_on_c, 0, 75, 80
1, 88800, Note_on_c, 0, 71, 80
1, 89039, Note_on_c, 0, 75, 0
1, 89039, Note_on_c, 0, 71, 0
1, 89040, Note_on_c, 0, 71, 80
1, 89040, Note_on_c, 0, 68, 80
1, 89279, Note_on_c, 0, 71, 0
1, 89279, Note_on_c, 0, 68, 0
1, 89520, Note_on_c, 0, 76, 80
1, 89520, Note_on_c, 0, 73, 80
1, 89639, Note_on_c, 0, 76, 0
1, 89639, Note_on_c, 0, 73, 0
1, 89760, Note_on_c, 0, 76, 80
1, 89760, Note_on_c, 0, 73, 80
1, 89999, Note_on_c, 0, 76, 0
1, 89999, Note_on_c, 0, 73, 0
1, 90000, Note_on_c, 0, 73, 80
1, 90000, Note_on_c, 0, 68, 80
1, 90239, Note_on_c, 0, 73, 0
1, 90239, Note_on_c, 0, 68, 0
1, 90480, Note_on_c, 0, 75, 80
1, 90480, Note_on_c, 0, 71, 80
1, 90599, Note_on_c, 0, 75, 0
1, 90599, Note_on_c, 0, 71, 0
1, 90720, Note_on_c, 0, 75, 80
1, 90720, Note_on_c, 0, 71, 80
1, 90959, Note_on_c, 0, 75, 0
1, 90959, Note_on_c, 0, 71, 0
1, 90960, Note_on_c, 0, 71, 80
1, 90960, Note_on_c, 0, 68, 80
1, 91199, Note_on_c, 0, 71, 0
1, 91199, Note_on_c, 0, 68, 0
1, 91440, Note_on_c, 0, 75, 80
1, 91440, Note_on_c, 0, 70, 80
1, 91559, Note_on_c, 0, 75, 0
1, 91559, Note_on_c, 0, 70, 0
1, 91680, Note_on_c, 0, 75, 80
1, 91680, Note_on_c, 0, 70, 80
1, 91919, Note_on_c, 0, 75, 0
1, 91919, Note_on_c, 0, 70, 0
1, 91920, Note_on_c, 0, 70, 80
1, 91920, Note_on_c, 0, 67, 80
1, 92159, Note_on_c, 0, 70, 0
1, 92159, Note_on_c, 0, 67, 0
1, 92160, Note_on_c, 0, 71, 80
1, 92160, Note_on_c, 0, 68, 80
1, 92399, Note_on_c, 0, 71, 0
1, 92399, Note_on_c, 0, 68, 0
1, 92400, Note_on_c, 0, 83, 80
1, 92400, Note_on_c, 0, 75, 80
1, 92400, Note_on_c, 0, 71, 80
1, 92639, Note_on_c, 0, 83, 0
1, 92639, Note_on_c, 0, 75, 0
1, 92639, Note_on_c, 0, 71, 0
1, 92640, Note_on_c, 0, 83, 80
1, 92640, Note_on_c, 0, 75, 80
1, 92640, Note_on_c, 0, 71, 80
1, 92879, Note_on_c, 0, 83, 0
1, 92879, Note_on_c, 0, 75, 0
1, 92879, Note_on_c, 0, 71, 0
1, 92880, Note_on_c, 0, 83, 80
1, 92880, Note_on_c, 0, 75, 80
1, 92880, Note_on_c, 0, 71, 80
1, 93119, Note_on_c, 0, 83, 0
1, 93119, Note_on_c, 0, 75, 0
1, 93119, Note_on_c, 0, 71, 0
1, 93120, Note_on_c, 0, 83, 80
1, 93120, Note_on_c, 0, 75, 80
1, 93120, Note_on_c, 0, 71, 80
1, 93359, Note_on_c, 0, 83, 0
1, 93359, Note_on_c, 0, 75, 0
1, 93359, Note_on_c, 0, 71, 0
1, 93360, Note_on_c, 0, 83, 80
1, 93360, Note_on_c, 0, 75, 80
1, 93360, Note_on_c, 0, 71, 80
1, 93599, Note_on_c, 0, 83, 0
1, 93599, Note_on_c, 0, 75, 0
1, 93599, Note_on_c, 0, 71, 0
1, 93600, Note_on_c, 0, 82, 80
1, 93600, Note_on_c, 0, 73, 80
1, 93600, Note_on_c, 0, 70, 80
1, 93839, Note_on_c, 0, 82, 0
1, 93839, Note_on_c, 0, 73, 0
1, 93839, Note_on_c, 0, 70, 0
1, 93840, Note_on_c, 0, 80, 80
1, 93840, Note_on_c, 0, 71, 80
1, 93840, Note_on_c, 0, 68, 80
1, 94079, Note_on_c, 0, 80, 0
1, 94079, Note_on_c, 0, 71, 0
1, 94079, Note_on_c, 0, 68, 0
1, 94080, Note_on_c, 0, 88, 80
1, 94080, Note_on_c, 0, 79, 80
1, 94080, Note_on_c, 0, 70, 80
1, 94080, Note_on_c, 0, 67, 80
1, 94319, Note_on_c, 0, 88, 0
1, 94319, Note_on_c, 0, 79, 0
1, 94319, Note_on_c, 0, 70, 0
1, 94319, Note_on_c, 0, 67, 0
1, 94320, Note_on_c, 0, 88, 80
1, 94320, Note_on_c, 0, 79, 80
1, 94320, Note_on_c, 0, 76, 80
1, 94559, Note_on_c, 0, 88, 0
1, 94559, Note_on_c, 0, 79, 0
1, 94559, Note_on_c, 0, 76, 0
1, 94560, Note_on_c, 0, 88, 80
1, 94560, Note_on_c, 0, 79, 80
1, 94560, Note_on_c, 0, 76, 80
1, 94799, Note_on_c, 0, 88, 0
1, 94799, Note_on_c, 0, 79, 0
1, 94799, Note_on_c, 0, 76, 0
1, 94800, Note_on_c, 0, 88, 80
1, 94800, Note_on_c, 0, 79, 80
1, 94800, Note_on_c, 0, 76, 80
1, 95039, Note_on_c, 0, 88, 0
1, 95039, Note_on_c, 0, 79, 0
1, 95039, Note_on_c, 0, 76, 0
1, 95040, Note_on_c, 0, 88, 80
1, 95040, Note_on_c, 0, 79, 80
1, 95040, Note_on_c, 0, 76, 80
1, 95279, Note_on_c, 0, 88, 0
1, 95279, Note_on_c, 0, 79, 0
1, 95279, Note_on_c, 0, 76, 0
1, 95280, Note_on_c, 0, 88, 80
1, 95280, Note_on_c, 0, 79, 80
1, 95280, Note_on_c, 0, 76, 80
1, 95519, Note_on_c, 0, 88, 0
1, 95519, Note_on_c, 0, 79, 0
1, 95519, Note_on_c, 0, 76, 0
1, 95520, Note_on_c, 0, 87, 80
1, 95520, Note_on_c, 0, 79, 80
1, 95520, Note_on_c, 0, 75, 80
1, 95759, Note_on_c, 0, 87, 0
1, 95759, Note_on_c, 0, 79, 0
1, 95759, Note_on_c, 0, 75, 0
1, 95760, Note_on_c, 0, 85, 80
1, 95760, Note_on_c, 0, 79, 80
1, 95760, Note_on_c, 0, 73, 80
1, 95999, Note_on_c, 0, 85, 0
1, 95999, Note_on_c, 0, 79, 0
1, 95999, Note_on_c, 0, 73, 0
1, 96000, Note_on_c, 0, 83, 80
1, 96000, Note_on_c, 0, 80, 80
1, 96000, Note_on_c, 0, 71, 80
1, 96239, Note_on_c, 0, 83, 0
1, 96239, Note_on_c, 0, 80, 0
1, 96239, Note_on_c, 0, 71, 0
1, 96240, Note_on_c, 0, 83, 80
1, 96240, Note_on_c, 0, 75, 80
1, 96240, Note_on_c, 0, 71, 80
1, 96479, Note_on_c, 0, 83, 0
1, 96479, Note_on_c, 0, 75, 0
1, 96479, Note_on_c, 0, 71, 0
1, 96480, Note_on_c, 0, 83, 80
1, 96480, Note_on_c, 0, 75, 80
1, 96480, Note_on_c, 0, 71, 80
1, 96719, Note_on_c, 0, 83, 0
1, 96719, Note_on_c, 0, 75, 0
1, 96719, Note_on_c, 0, 71, 0
1, 96720, Note_on_c, 0, 83, 80
1, 96720, Note_on_c, 0, 75, 80
1, 96720, Note_on_c, 0, 71, 80
1, 96959, Note_on_c, 0, 83, 0
1, 96959, Note_on_c, 0, 75, 0
1, 96959, Note_on_c, 0, 71, 0
1, 96960, Note_on_c, 0, 83, 80
1, 96960, Note_on_c, 0, 75, 80
1, 96960, Note_on_c, 0, 71, 80
1, 97199, Note_on_c, 0, 83, 0
1, 97199, Note_on_c, 0, 75, 0
1, 97199, Note_on_c, 0, 71, 0
1, 97200, Note_on_c, 0, 83, 80
1, 97200, Note_on_c, 0, 75, 80
1, 97200, Note_on_c, 0, 71, 80
1, 97439, Note_on_c, 0, 83, 0
1, 97439, Note_on_c, 0, 75, 0
1, 97439, Note_on_c, 0, 71, 0
1, 97440, Note_on_c, 0, 82, 80
1, 97440, Note_on_c, 0, 73, 80
1, 97440, Note_on_c, 0, 70, 80
1, 97679, Note_on_c, 0, 82, 0
1, 97679, Note_on_c, 0, 73, 0
1, 97679, Note_on_c, 0, 70, 0
1, 97680, Note_on_c, 0, 80, 80
1, 97680, Note_on_c, 0, 71, 80
1, 97680, Note_on_c, 0, 68, 80
1, 97919, Note_on_c, 0, 80, 0
1, 97919, Note_on_c, 0, 71, 0
1, 97919, Note_on_c, 0, 68, 0
1, 97920, Note_on_c, 0, 88, 80
1, 97920, Note_on_c, 0, 79, 80
1, 97920, Note_on_c, 0, 70, 80
1, 97920, Note_on_c, 0, 67, 80
1, 98159, Note_on_c, 0, 88, 0
1, 98159, Note_on_c, 0, 79, 0
1, 98159, Note_on_c, 0, 70, 0
1, 98159, Note_on_c, 0, 67, 0
1, 98160, Note_on_c, 0, 88, 80
1, 98160, Note_on_c, 0, 79, 80
1, 98160, Note_on_c, 0, 76, 80
1, 98399, Note_on_c, 0, 88, 0
1, 98399, Note_on_c, 0, 79, 0
1, 98399, Note_on_c, 0, 76, 0
1, 98400, Note_on_c, 0, 88, 80
1, 98400, Note_on_c, 0, 79, 80
1, 98400, Note_on_c, 0, 76, 80
1, 98639, Note_on_c, 0, 88, 0
1, 98639, Note_on_c, 0, 79, 0
1, 98639, Note_on_c, 0, 76, 0
1, 98640, Note_on_c, 0, 88, 80
1, 98640, Note_on_c, 0, 79, 80
1, 98640, Note_on_c, 0, 76, 80
1, 98879, Note_on_c, 0, 88, 0
1, 98879, Note_on_c, 0, 79, 0
1, 98879, Note_on_c, 0, 76, 0
1, 98880, Note_on_c, 0, 88, 80
1, 98880, Note_on_c, 0, 79, 80
1, 98880, Note_on_c, 0, 76, 80
1, 99119, Note_on_c, 0, 88, 0
1, 99119, Note_on_c, 0, 79, 0
1, 99119, Note_on_c, 0, 76, 0
1, 99120, Note_on_c, 0, 88, 80
1, 99120, Note_on_c, 0, 79, 80
1, 99120, Note_on_c, 0, 76, 80
1, 99359, Note_on_c, 0, 88, 0
1, 99359, Note_on_c, 0, 79, 0
1, 99359, Note_on_c, 0, 76, 0
1, 99360, Note_on_c, 0, 87, 80
1, 99360, Note_on_c, 0, 79, 80
1, 99360, Note_on_c, 0, 75, 80
1, 99599, Note_on_c, 0, 87, 0
1, 99599, Note_on_c, 0, 79, 0
1, 99599, Note_on_c, 0, 75, 0
1, 99600, Note_on_c, 0, 85, 80
1, 99600, Note_on_c, 0, 79, 80
1, 99600, Note_on_c, 0, 73, 80
1, 99839, Note_on_c, 0, 85, 0
1, 99839, Note_on_c, 0, 79, 0
1, 99839, Note_on_c, 0, 73, 0
1, 99840, Note_on_c, 0, 83, 80
1, 99840, Note_on_c, 0, 80, 80
1, 99840, Note_on_c, 0, 71, 80
1, 100079, Note_on_c, 0, 83, 0
1, 100079, Note_on_c, 0, 80, 0
1, 100079, Note_on_c, 0, 71, 0
1, 100080, Note_on_c, 0, 83, 80
1, 100080, Note_on_c, 0, 80, 80
1, 100319, Note_on_c, 0, 83, 0
1, 100319, Note_on_c, 0, 80, 0
1, 100320, Note_on_c, 0, 83, 80
1, 100320, Note_on_c, 0, 80, 80
1, 100559, Note_on_c, 0, 83, 0
1, 100559, Note_on_c, 0, 80, 0
1, 100560, Note_on_c, 0, 87, 80
1, 100560, Note_on_c, 0, 83, 80
1, 100799, Note_on_c, 0, 87, 0
1, 100799, Note_on_c, 0, 83, 0
1, 101040, Note_on_c, 0, 85, 80
1, 101040, Note_on_c, 0, 80, 80
1, 101279, Note_on_c, 0, 85, 0
1, 101279, Note_on_c, 0, 80, 0
1, 101280, Note_on_c, 0, 85, 80
1, 101280, Note_on_c, 0, 80, 80
1, 101519, Note_on_c, 0, 85, 0
1, 101519, Note_on_c, 0, 80, 0
1, 101520, Note_on_c, 0, 88, 80
1, 101520, Note_on_c, 0, 85, 80
1, 101759, Note_on_c, 0, 88, 0
1, 101759, Note_on_c, 0, 85, 0
1, 102000, Note_on_c, 0, 83, 80
1, 102000, Note_on_c, 0, 80, 80
1, 102119, Note_on_c, 0, 83, 0
1, 102119, Note_on_c, 0, 80, 0
1, 102240, Note_on_c, 0, 83, 80
1, 102240, Note_on_c, 0, 80, 80
1, 102479, Note_on_c, 0, 83, 0
1, 102479, Note_on_c, 0, 80, 0
1, 102480, Note_on_c, 0, 87, 80
1, 102480, Note_on_c, 0, 83, 80
1, 102719, Note_on_c, 0, 87, 0
1, 102719, Note_on_c, 0, 83, 0
1, 102960, Note_on_c, 0, 82, 80
1, 102960, Note_on_c, 0, 79, 80
1, 103079, Note_on_c, 0, 82, 0
1, 103079, Note_on_c, 0, 79, 0
1, 103200, Note_on_c, 0, 82, 80
1, 103200, Note_on_c, 0, 79, 80
1, 103439, Note_on_c, 0, 82, 0
1, 103439, Note_on_c, 0, 79, 0
1, 103440, Note_on_c, 0, 87, 80
1, 103440, Note_on_c, 0, 82, 80
1, 103679, Note_on_c, 0, 87, 0
1, 103679, Note_on_c, 0, 82, 0
1, 103920, Note_on_c, 0, 83, 80
1, 103920, Note_on_c, 0, 75, 80
1, 104039, Note_on_c, 0, 83, 0
1, 104039, Note_on_c, 0, 75, 0
1, 104160, Note_on_c, 0, 83, 80
1, 104160, Note_on_c, 0, 75, 80
1, 104399, Note_on_c, 0, 83, 0
1, 104399, Note_on_c, 0, 75, 0
1, 104400, Note_on_c, 0, 87, 80
1, 104400, Note_on_c, 0, 80, 80
1, 104639, Note_on_c, 0, 87, 0
1, 104639, Note_on_c, 0, 80, 0
1, 104880, Note_on_c, 0, 81, 80
1, 104880, Note_on_c, 0, 73, 80
1, 104999, Note_on_c, 0, 81, 0
1, 104999, Note_on_c, 0, 73, 0
1, 105120, Note_on_c, 0, 81, 80
1, 105120, Note_on_c, 0, 73, 80
1, 105359, Note_on_c, 0, 81, 0
1, 105359, Note_on_c, 0, 73, 0
1, 105360, Note_on_c, 0, 85, 80
1, 105360, Note_on_c, 0, 76, 80
1, 105599, Note_on_c, 0, 85, 0
1, 105599, Note_on_c, 0, 76, 0
1, 105840, Note_on_c, 0, 80, 80
1, 105840, Note_on_c, 0, 71, 80
1, 105959, Note_on_c, 0, 80, 0
1, 105959, Note_on_c, 0, 71, 0
1, 106080, Note_on_c, 0, 80, 80
1, 106080, Note_on_c, 0, 71, 80
1, 106319, Note_on_c, 0, 80, 0
1, 106319, Note_on_c, 0, 71, 0
1, 106320, Note_on_c, 0, 83, 80
1, 106320, Note_on_c, 0, 75, 80
1, 106559, Note_on_c, 0, 83, 0
1, 106559, Note_on_c, 0, 75, 0
1, 106800, Note_on_c, 0, 79, 80
1, 106800, Note_on_c, 0, 70, 80
1, 106919, Note_on_c, 0, 79, 0
1, 106919, Note_on_c, 0, 70, 0
1, 107040, Note_on_c, 0, 79, 80
1, 107040, Note_on_c, 0, 70, 80
1, 107279, Note_on_c, 0, 79, 0
1, 107279, Note_on_c, 0, 70, 0
1, 107280, Note_on_c, 0, 82, 80
1, 107280, Note_on_c, 0, 73, 80
1, 107519, Note_on_c, 0, 82, 0
1, 107519, Note_on_c, 0, 73, 0
1, 107520, Note_on_c, 0, 80, 80
1, 107520, Note_on_c, 0, 71, 80
1, 107999, Note_on_c, 0, 80, 0
1, 107999, Note_on_c, 0, 71, 0
1, 108960, Note_on_c, 0, 71, 80
1, 109319, Note_on_c, 0, 71, 0
1, 109320, Note_on_c, 0, 68, 80
1, 109439, Note_on_c, 0, 68, 0
1, 109440, Note_on_c, 0, 67, 80
1, 109919, Note_on_c, 0, 67, 0
1, 109920, Note_on_c, 0, 75, 80
1, 109920, Note_on_c, 0, 67, 80
1, 109920, Note_on_c, 0, 61, 80
1, 110159, Note_on_c, 0, 75, 0
1, 110159, Note_on_c, 0, 67, 0
1, 110159, Note_on_c, 0, 61, 0
1, 110400, Note_on_c, 0, 75, 80
1, 110400, Note_on_c, 0, 67, 80
1, 110400, Note_on_c, 0, 61, 80
1, 110639, Note_on_c, 0, 75, 0
1, 110639, Note_on_c, 0, 67, 0
1, 110639, Note_on_c, 0, 61, 0
1, 110880, Note_on_c, 0, 75, 80
1, 110880, Note_on_c, 0, 67, 80
1, 110880, Note_on_c, 0, 61, 80
1, 110999, Note_on_c, 0, 75, 0
1, 110999, Note_on_c, 0, 67, 0
1, 110999, Note_on_c, 0, 61, 0
1, 111120, Note_on_c, 0, 59, 80
1, 111239, Note_on_c, 0, 59, 0
1, 111240, Note_on_c, 0, 68, 80
1, 111359, Note_on_c, 0, 68, 0
1, 111360, Note_on_c, 0, 75, 80
1, 112799, Note_on_c, 0, 75, 0
1, 112800, Note_on_c, 0, 83, 80
1, 113159, Note_on_c, 0, 83, 0
1, 113160, Note_on_c, 0, 80, 80
1, 113279, Note_on_c, 0, 80, 0
1, 113280, Note_on_c, 0, 79, 80
1, 113759, Note_on_c, 0, 79, 0
1, 113760, Note_on_c, 0, 87, 80
1, 113760, Note_on_c, 0, 79, 80
1, 113760, Note_on_c, 0, 73, 80
1, 113999, Note_on_c, 0, 87, 0
1, 113999, Note_on_c, 0, 79, 0
1, 113999, Note_on_c, 0, 73, 0
1, 114240, Note_on_c, 0, 87, 80
1, 114240, Note_on_c, 0, 79, 80
1, 114240, Note_on_c, 0, 73, 80
1, 114479, Note_on_c, 0, 87, 0
1, 114479, Note_on_c, 0, 79, 0
1, 114479, Note_on_c, 0, 73, 0
1, 114720, Note_on_c, 0, 87, 80
1, 114720, Note_on_c, 0, 79, 80
1, 114720, Note_on_c, 0, 73, 80
1, 114839, Note_on_c, 0, 87, 0
1, 114839, Note_on_c, 0, 79, 0
1, 114839, Note_on_c, 0, 73, 0
1, 114960, Note_on_c, 0, 71, 80
1, 115079, Note_on_c, 0, 71, 0
1, 115080, Note_on_c, 0, 80, 80
1, 115199, Note_on_c, 0, 80, 0
1, 115200, Note_on_c, 0, 87, 80
1, 115919, Note_on_c, 0, 87, 0
1, 115920, Note_on_c, 0, 73, 80
1, 116039, Note_on_c, 0, 73, 0
1, 116040, Note_on_c, 0, 79, 80
1, 116159, Note_on_c, 0, 79, 0
1, 116160, Note_on_c, 0, 87, 80
1, 116879, Note_on_c, 0, 87, 0
1, 116880, Note_on_c, 0, 71, 80
1, 116999, Note_on_c, 0, 71, 0
1, 117000, Note_on_c, 0, 80, 80
1, 117119, Note_on_c, 0, 80, 0
1, 117120, Note_on_c, 0, 87, 80
1, 117839, Note_on_c, 0, 87, 0
1, 117840, Note_on_c, 0, 73, 80
1, 117959, Note_on_c, 0, 73, 0
1, 117960, Note_on_c, 0, 79, 80
1, 118079, Note_on_c, 0, 79, 0
1, 118080, Note_on_c, 0, 87, 80
1, 119039, Note_on_c, 0, 87, 0
1, 119040, Note_on_c, 0, 59, 80
1, 119159, Note_on_c, 0, 59, 0
1, 119160, Note_on_c, 0, 68, 80
1, 119279, Note_on_c, 0, 68, 0
1, 119280, Note_on_c, 0, 63, 80
1, 119399, Note_on_c, 0, 63, 0
1, 119400, Note_on_c, 0, 68, 80
1, 119519, Note_on_c, 0, 68, 0
1, 119520, Note_on_c, 0, 59, 80
1, 119639, Note_on_c, 0, 59, 0
1, 119640, Note_on_c, 0, 68, 80
1, 119759, Note_on_c, 0, 68, 0
1, 119760, Note_on_c, 0, 63, 80
1, 119879, Note_on_c, 0, 63, 0
1, 119880, Note_on_c, 0, 68, 80
1, 119999, Note_on_c, 0, 68, 0
1, 120000, Note_on_c, 0, 59, 80
1, 120119, Note_on_c, 0, 59, 0
1, 120120, Note_on_c, 0, 68, 80
1, 120239, Note_on_c, 0, 68, 0
1, 120240, Note_on_c, 0, 63, 80
1, 120359, Note_on_c, 0, 63, 0
1, 120360, Note_on_c, 0, 68, 80
1, 120479, Note_on_c, 0, 68, 0
1, 120480, Note_on_c, 0, 59, 80
1, 120599, Note_on_c, 0, 59, 0
1, 120600, Note_on_c, 0, 68, 80
1, 120719, Note_on_c, 0, 68, 0
1, 120720, Note_on_c, 0, 63, 80
1, 120839, Note_on_c, 0, 63, 0
1, 120840, Note_on_c, 0, 68, 80
1, 120959, Note_on_c, 0, 68, 0
1, 120960, Note_on_c, 0, 60, 80
1, 121079, Note_on_c, 0, 60, 0
1, 121080, Note_on_c, 0, 66, 80
1, 121199, Note_on_c, 0, 66, 0
1, 121200, Note_on_c, 0, 63, 80
1, 121319, Note_on_c, 0, 63, 0
1, 121320, Note_on_c, 0, 66, 80
1, 121439, Note_on_c, 0, 66, 0
1, 121440, Note_on_c, 0, 60, 80
1, 121559, Note_on_c, 0, 60, 0
1, 121560, Note_on_c, 0, 66, 80
1, 121679, Note_on_c, 0, 66, 0
1, 121680, Note_on_c, 0, 63, 80
1, 121799, Note_on_c, 0, 63, 0
1, 121800, Note_on_c, 0, 66, 80
1, 121919, Note_on_c, 0, 66, 0
1, 121920, Note_on_c, 0, 60, 80
1, 122039, Note_on_c, 0, 60, 0
1, 122040, Note_on_c, 0, 66, 80
1, 122159, Note_on_c, 0, 66, 0
1, 122160, Note_on_c, 0, 63, 80
1, 122279, Note_on_c, 0, 63, 0
1, 122280, Note_on_c, 0, 66, 80
1, 122399, Note_on_c, 0, 66, 0
1, 122400, Note_on_c, 0, 60, 80
1, 122519, Note_on_c, 0, 60, 0
1, 122520, Note_on_c, 0, 66, 80
1, 122639, Note_on_c, 0, 66, 0
1, 122640, Note_on_c, 0, 63, 80
1, 122759, Note_on_c, 0, 63, 0
1, 122760, Note_on_c, 0, 66, 80
1, 122879, Note_on_c, 0, 66, 0
1, 122880, Note_on_c, 0, 64, 80
1, 122880, Note_on_c, 0, 61, 80
1, 122999, Note_on_c, 0, 64, 0
1, 122999, Note_on_c, 0, 61, 0
1, 124320, Note_on_c, 0, 64, 80
1, 124439, Note_on_c, 0, 64, 0
1, 124440, Note_on_c, 0, 56, 80
1, 124559, Note_on_c, 0, 56, 0
1, 124560, Note_on_c, 0, 61, 80
1, 124679, Note_on_c, 0, 61, 0
1, 124680, Note_on_c, 0, 64, 80
1, 124799, Note_on_c, 0, 64, 0
1, 124800, Note_on_c, 0, 68, 80
1, 124919, Note_on_c, 0, 68, 0
1, 124920, Note_on_c, 0, 61, 80
1, 125039, Note_on_c, 0, 61, 0
1, 125040, Note_on_c, 0, 64, 80
1, 125159, Note_on_c, 0, 64, 0
1, 125160, Note_on_c, 0, 68, 80
1, 125279, Note_on_c, 0, 68, 0
1, 125280, Note_on_c, 0, 73, 80
1, 125399, Note_on_c, 0, 73, 0
1, 125400, Note_on_c, 0, 64, 80
1, 125519, Note_on_c, 0, 64, 0
1, 125520, Note_on_c, 0, 68, 80
1, 125639, Note_on_c, 0, 68, 0
1, 125640, Note_on_c, 0, 73, 80
1, 125759, Note_on_c, 0, 73, 0
1, 125760, Note_on_c, 0, 76, 80
1, 125879, Note_on_c, 0, 76, 0
1, 125880, Note_on_c, 0, 68, 80
1, 125999, Note_on_c, 0, 68, 0
1, 126000, Note_on_c, 0, 73, 80
1, 126119, Note_on_c, 0, 73, 0
1, 126120, Note_on_c, 0, 76, 80
1, 126239, Note_on_c, 0, 76, 0
1, 126240, Note_on_c, 0, 80, 80
1, 126240, Note_on_c, 0, 76, 80
1, 126240, Note_on_c, 0, 73, 80
1, 126240, Note_on_c, 0, 68, 80
1, 126479, Note_on_c, 0, 80, 0
1, 126479, Note_on_c, 0, 76, 0
1, 126479, Note_on_c, 0, 73, 0
1, 126479, Note_on_c, 0, 68, 0
1, 126480, Note_on_c, 0, 80, 80
1, 126480, Note_on_c, 0, 76, 80
1, 126480, Note_on_c, 0, 73, 80
1, 126480, Note_on_c, 0, 68, 80
1, 126599, Note_on_c, 0, 80, 0
1, 126599, Note_on_c, 0, 76, 0
1, 126599, Note_on_c, 0, 73, 0
1, 126599, Note_on_c, 0, 68, 0
1, 128160, Note_on_c, 0, 63, 80
1, 128279, Note_on_c, 0, 63, 0
1, 128280, Note_on_c, 0, 56, 80
1, 128399, Note_on_c, 0, 56, 0
1, 128400, Note_on_c, 0, 60, 80
1, 128519, Note_on_c, 0, 60, 0
1, 128520, Note_on_c, 0, 63, 80
1, 128639, Note_on_c, 0, 63, 0
1, 128640, Note_on_c, 0, 68, 80
1, 128759, Note_on_c, 0, 68, 0
1, 128760, Note_on_c, 0, 60, 80
1, 128879, Note_on_c, 0, 60, 0
1, 128880, Note_on_c, 0, 63, 80
1, 128999, Note_on_c, 0, 63, 0
1, 129000, Note_on_c, 0, 68, 80
1, 129119, Note_on_c, 0, 68, 0
1, 129120, Note_on_c, 0, 72, 80
1, 129239, Note_on_c, 0, 72, 0
1, 129240, Note_on_c, 0, 63, 80
1, 129359, Note_on_c, 0, 63, 0
1, 129360, Note_on_c, 0, 68, 80
1, 129479, Note_on_c, 0, 68, 0
1, 129480, Note_on_c, 0, 72, 80
1, 129599, Note_on_c, 0, 72, 0
1, 129600, Note_on_c, 0, 75, 80
1, 129719, Note_on_c, 0, 75, 0
1, 129720, Note_on_c, 0, 68, 80
1, 129839, Note_on_c, 0, 68, 0
1, 129840, Note_on_c, 0, 72, 80
1, 129959, Note_on_c, 0, 72, 0
1, 129960, Note_on_c, 0, 75, 80
1, 130079, Note_on_c, 0, 75, 0
1, 130080, Note_on_c, 0, 80, 80
1, 130080, Note_on_c, 0, 75, 80
1, 130080, Note_on_c, 0, 72, 80
1, 130080, Note_on_c, 0, 68, 80
1, 130319, Note_on_c, 0, 80, 0
1, 130319, Note_on_c, 0, 75, 0
1, 130319, Note_on_c, 0, 72, 0
1, 130319, Note_on_c, 0, 68, 0
1, 130320, Note_on_c, 0, 80, 80
1, 130320, Note_on_c, 0, 75, 80
1, 130320, Note_on_c, 0, 72, 80
1, 130320, Note_on_c, 0, 68, 80
1, 130439, Note_on_c, 0, 80, 0
1, 130439, Note_on_c, 0, 75, 0
1, 130439, Note_on_c, 0, 72, 0
1, 130439, Note_on_c, 0, 68, 0
1, 131520, Note_on_c, 0, 65, 80
1, 131639, Note_on_c, 0, 65, 0
1, 131640, Note_on_c, 0, 56, 80
1, 131759, Note_on_c, 0, 56, 0
1, 131760, Note_on_c, 0, 61, 80
1, 131879, Note_on_c, 0, 61, 0
1, 131880, Note_on_c, 0, 65, 80
1, 131999, Note_on_c, 0, 65, 0
1, 132000, Note_on_c, 0, 68, 80
1, 132119, Note_on_c, 0, 68, 0
1, 132120, Note_on_c, 0, 61, 80
1, 132239, Note_on_c, 0, 61, 0
1, 132240, Note_on_c, 0, 65, 80
1, 132359, Note_on_c, 0, 65, 0
1, 132360, Note_on_c, 0, 68, 80
1, 132479, Note_on_c, 0, 68, 0
1, 132480, Note_on_c, 0, 73, 80
1, 132599, Note_on_c, 0, 73, 0
1, 132600, Note_on_c, 0, 65, 80
1, 132719, Note_on_c, 0, 65, 0
1, 132720, Note_on_c, 0, 68, 80
1, 132839, Note_on_c, 0, 68, 0
1, 132840, Note_on_c, 0, 73, 80
1, 132959, Note_on_c, 0, 73, 0
1, 132960, Note_on_c, 0, 77, 80
1, 133079, Note_on_c, 0, 77, 0
1, 133080, Note_on_c, 0, 68, 80
1, 133199, Note_on_c, 0, 68, 0
1, 133200, Note_on_c, 0, 73, 80
1, 133319, Note_on_c, 0, 73, 0
1, 133320, Note_on_c, 0, 77, 80
1, 133439, Note_on_c, 0, 77, 0
1, 133440, Note_on_c, 0, 80, 80
1, 133559, Note_on_c, 0, 80, 0
1, 133560, Note_on_c, 0, 73, 80
1, 133679, Note_on_c, 0, 73, 0
1, 133680, Note_on_c, 0, 77, 80
1, 133799, Note_on_c, 0, 77, 0
1, 133800, Note_on_c, 0, 80, 80
1, 133919, Note_on_c, 0, 80, 0
1, 133920, Note_on_c, 0, 85, 80
1, 133920, Note_on_c, 0, 80, 80
1, 133920, Note_on_c, 0, 77, 80
1, 133920, Note_on_c, 0, 73, 80
1, 134159, Note_on_c, 0, 85, 0
1, 134159, Note_on_c, 0, 80, 0
1, 134159, Note_on_c, 0, 77, 0
1, 134159, Note_on_c, 0, 73, 0
1, 134160, Note_on_c, 0, 85, 80
1, 134160, Note_on_c, 0, 80, 80
1, 134160, Note_on_c, 0, 77, 80
1, 134160, Note_on_c, 0, 73, 80
1, 134279, Note_on_c, 0, 85, 0
1, 134279, Note_on_c, 0, 80, 0
1, 134279, Note_on_c, 0, 77, 0
1, 134279, Note_on_c, 0, 73, 0
1, 134880, Note_on_c, 0, 61, 80
1, 134939, Note_on_c, 0, 61, 0
1, 135000, Note_on_c, 0, 61, 80
1, 135119, Note_on_c, 0, 61, 0
1, 135120, Note_on_c, 0, 66, 80
1, 135239, Note_on_c, 0, 66, 0
1, 135240, Note_on_c, 0, 69, 80
1, 135359, Note_on_c, 0, 69, 0
1, 135360, Note_on_c, 0, 73, 80
1, 135419, Note_on_c, 0, 73, 0
1, 135480, Note_on_c, 0, 73, 80
1, 135599, Note_on_c, 0, 73, 0
1, 135600, Note_on_c, 0, 78, 80
1, 135719, Note_on_c, 0, 78, 0
1, 135720, Note_on_c, 0, 81, 80
1, 135839, Note_on_c, 0, 81, 0
1, 135840, Note_on_c, 0, 85, 80
1, 135840, Note_on_c, 0, 78, 80
1, 135840, Note_on_c, 0, 73, 80
1, 136079, Note_on_c, 0, 85, 0
1, 136079, Note_on_c, 0, 78, 0
1, 136079, Note_on_c, 0, 73, 0
1, 136080, Note_on_c, 0, 85, 80
1, 136080, Note_on_c, 0, 78, 80
1, 136080, Note_on_c, 0, 73, 80
1, 136199, Note_on_c, 0, 85, 0
1, 136199, Note_on_c, 0, 78, 0
1, 136199, Note_on_c, 0, 73, 0
1, 136800, Note_on_c, 0, 61, 80
1, 136859, Note_on_c, 0, 61, 0
1, 136920, Note_on_c, 0, 61, 80
1, 137039, Note_on_c, 0, 61, 0
1, 137040, Note_on_c, 0, 64, 80
1, 137159, Note_on_c, 0, 64, 0
1, 137160, Note_on_c, 0, 67, 80
1, 137279, Note_on_c, 0, 67, 0
1, 137280, Note_on_c, 0, 73, 80
1, 137339, Note_on_c, 0, 73, 0
1, 137400, Note_on_c, 0, 73, 80
1, 137519, Note_on_c, 0, 73, 0
1, 137520, Note_on_c, 0, 76, 80
1, 137639, Note_on_c, 0, 76, 0
1, 137640, Note_on_c, 0, 79, 80
1, 137759, Note_on_c, 0, 79, 0
1, 137760, Note_on_c, 0, 85, 80
1, 137760, Note_on_c, 0, 79, 80
1, 137760, Note_on_c, 0, 73, 80
1, 137999, Note_on_c, 0, 85, 0
1, 137999, Note_on_c, 0, 79, 0
1, 137999, Note_on_c, 0, 73, 0
1, 138000, Note_on_c, 0, 85, 80
1, 138000, Note_on_c, 0, 79, 80
1, 138000, Note_on_c, 0, 73, 80
1, 138119, Note_on_c, 0, 85, 0
1, 138119, Note_on_c, 0, 79, 0
1, 138119, Note_on_c, 0, 73, 0
1, 138240, Note_on_c, 0, 84, 80
1, 138240, Note_on_c, 0, 80, 80
1, 138240, Note_on_c, 0, 72, 80
1, 138359, Note_on_c, 0, 84, 0
1, 138359, Note_on_c, 0, 80, 0
1, 138359, Note_on_c, 0, 72, 0
1, 138480, Note_on_c, 0, 68, 80
1, 138599, Note_on_c, 0, 68, 0
1, 138600, Note_on_c, 0, 80, 80
1, 138719, Note_on_c, 0, 80, 0
1, 138720, Note_on_c, 0, 68, 80
1, 138839, Note_on_c, 0, 68, 0
1, 138840, Note_on_c, 0, 80, 80
1, 138959, Note_on_c, 0, 80, 0
1, 138960, Note_on_c, 0, 70, 80
1, 139079, Note_on_c, 0, 70, 0
1, 139080, Note_on_c, 0, 80, 80
1, 139199, Note_on_c, 0, 80, 0
1, 139200, Note_on_c, 0, 72, 80
1, 139319, Note_on_c, 0, 72, 0
1, 139320, Note_on_c, 0, 80, 80
1, 139439, Note_on_c, 0, 80, 0
1, 139440, Note_on_c, 0, 73, 80
1, 139559, Note_on_c, 0, 73, 0
1, 139560, Note_on_c, 0, 80, 80
1, 139679, Note_on_c, 0, 80, 0
1, 139680, Note_on_c, 0, 75, 80
1, 139799, Note_on_c, 0, 75, 0
1, 139800, Note_on_c, 0, 80, 80
1, 139919, Note_on_c, 0, 80, 0
1, 139920, Note_on_c, 0, 72, 80
1, 140039, Note_on_c, 0, 72, 0
1, 140040, Note_on_c, 0, 80, 80
1, 140159, Note_on_c, 0, 80, 0
1, 140160, Note_on_c, 0, 75, 80
1, 140279, Note_on_c, 0, 75, 0
1, 140280, Note_on_c, 0, 80, 80
1, 140399, Note_on_c, 0, 80, 0
1, 140400, Note_on_c, 0, 73, 80
1, 140519, Note_on_c, 0, 73, 0
1, 140520, Note_on_c, 0, 80, 80
1, 140639, Note_on_c, 0, 80, 0
1, 140640, Note_on_c, 0, 78, 80
1, 140759, Note_on_c, 0, 78, 0
1, 140760, Note_on_c, 0, 80, 80
1, 140879, Note_on_c, 0, 80, 0
1, 140880, Note_on_c, 0, 76, 80
1, 140999, Note_on_c, 0, 76, 0
1, 141000, Note_on_c, 0, 80, 80
1, 141119, Note_on_c, 0, 80, 0
1, 141120, Note_on_c, 0, 75, 80
1, 141239, Note_on_c, 0, 75, 0
1, 141240, Note_on_c, 0, 80, 80
1, 141359, Note_on_c, 0, 80, 0
1, 141360, Note_on_c, 0, 73, 80
1, 141479, Note_on_c, 0, 73, 0
1, 141480, Note_on_c, 0, 80, 80
1, 141599, Note_on_c, 0, 80, 0
1, 141600, Note_on_c, 0, 72, 80
1, 141719, Note_on_c, 0, 72, 0
1, 141720, Note_on_c, 0, 80, 80
1, 141839, Note_on_c, 0, 80, 0
1, 141840, Note_on_c, 0, 69, 80
1, 141959, Note_on_c, 0, 69, 0
1, 141960, Note_on_c, 0, 79, 80
1, 142079, Note_on_c, 0, 79, 0
1, 142080, Note_on_c, 0, 68, 80
1, 142199, Note_on_c, 0, 68, 0
1, 142200, Note_on_c, 0, 80, 80
1, 142319, Note_on_c, 0, 80, 0
1, 142320, Note_on_c, 0, 68, 80
1, 142439, Note_on_c, 0, 68, 0
1, 142440, Note_on_c, 0, 80, 80
1, 142559, Note_on_c, 0, 80, 0
1, 142560, Note_on_c, 0, 68, 80
1, 142679, Note_on_c, 0, 68, 0
1, 142680, Note_on_c, 0, 80, 80
1, 142799, Note_on_c, 0, 80, 0
1, 142800, Note_on_c, 0, 70, 80
1, 142919, Note_on_c, 0, 70, 0
1, 142920, Note_on_c, 0, 80, 80
1, 143039, Note_on_c, 0, 80, 0
1, 143040, Note_on_c, 0, 72, 80
1, 143159, Note_on_c, 0, 72, 0
1, 143160, Note_on_c, 0, 80, 80
1, 143279, Note_on_c, 0, 80, 0
1, 143280, Note_on_c, 0, 73, 80
1, 143399, Note_on_c, 0, 73, 0
1, 143400, Note_on_c, 0, 80, 80
1, 143519, Note_on_c, 0, 80, 0
1, 143520, Note_on_c, 0, 75, 80
1, 143639, Note_on_c, 0, 75, 0
1, 143640, Note_on_c, 0, 80, 80
1, 143759, Note_on_c, 0, 80, 0
1, 143760, Note_on_c, 0, 72, 80
1, 143879, Note_on_c, 0, 72, 0
1, 143880, Note_on_c, 0, 80, 80
1, 143999, Note_on_c, 0, 80, 0
1, 144000, Note_on_c, 0, 75, 80
1, 144119, Note_on_c, 0, 75, 0
1, 144120, Note_on_c, 0, 80, 80
1, 144239, Note_on_c, 0, 80, 0
1, 144240, Note_on_c, 0, 73, 80
1, 144359, Note_on_c, 0, 73, 0
1, 144360, Note_on_c, 0, 80, 80
1, 144479, Note_on_c, 0, 80, 0
1, 144480, Note_on_c, 0, 78, 80
1, 144599, Note_on_c, 0, 78, 0
1, 144600, Note_on_c, 0, 80, 80
1, 144719, Note_on_c, 0, 80, 0
1, 144720, Note_on_c, 0, 76, 80
1, 144839, Note_on_c, 0, 76, 0
1, 144840, Note_on_c, 0, 80, 80
1, 144959, Note_on_c, 0, 80, 0
1, 144960, Note_on_c, 0, 75, 80
1, 145079, Note_on_c, 0, 75, 0
1, 145080, Note_on_c, 0, 80, 80
1, 145199, Note_on_c, 0, 80, 0
1, 145200, Note_on_c, 0, 73, 80
1, 145319, Note_on_c, 0, 73, 0
1, 145320, Note_on_c, 0, 80, 80
1, 145439, Note_on_c, 0, 80, 0
1, 145440, Note_on_c, 0, 72, 80
1, 145559, Note_on_c, 0, 72, 0
1, 145560, Note_on_c, 0, 80, 80
1, 145679, Note_on_c, 0, 80, 0
1, 145680, Note_on_c, 0, 69, 80
1, 145799, Note_on_c, 0, 69, 0
1, 145800, Note_on_c, 0, 79, 80
1, 145919, Note_on_c, 0, 79, 0
1, 145920, Note_on_c, 0, 68, 80
1, 146039, Note_on_c, 0, 68, 0
1, 146040, Note_on_c, 0, 80, 80
1, 146159, Note_on_c, 0, 80, 0
1, 146160, Note_on_c, 0, 69, 80
1, 146279, Note_on_c, 0, 69, 0
1, 146280, Note_on_c, 0, 79, 80
1, 146399, Note_on_c, 0, 79, 0
1, 146400, Note_on_c, 0, 68, 80
1, 146519, Note_on_c, 0, 68, 0
1, 146520, Note_on_c, 0, 80, 80
1, 146639, Note_on_c, 0, 80, 0
1, 146640, Note_on_c, 0, 69, 80
1, 146759, Note_on_c, 0, 69, 0
1, 146760, Note_on_c, 0, 79, 80
1, 146879, Note_on_c, 0, 79, 0
1, 146880, Note_on_c, 0, 68, 80
1, 146999, Note_on_c, 0, 68, 0
1, 147000, Note_on_c, 0, 80, 80
1, 147119, Note_on_c, 0, 80, 0
1, 147120, Note_on_c, 0, 69, 80
1, 147239, Note_on_c, 0, 69, 0
1, 147240, Note_on_c, 0, 79, 80
1, 147359, Note_on_c, 0, 79, 0
1, 147360, Note_on_c, 0, 68, 80
1, 147479, Note_on_c, 0, 68, 0
1, 147480, Note_on_c, 0, 80, 80
1, 147599, Note_on_c, 0, 80, 0
1, 147600, Note_on_c, 0, 69, 80
1, 147719, Note_on_c, 0, 69, 0
1, 147720, Note_on_c, 0, 79, 80
1, 147839, Note_on_c, 0, 79, 0
1, 147840, Note_on_c, 0, 80, 80
1, 147840, Note_on_c, 0, 68, 80
1, 148079, Note_on_c, 0, 80, 0
1, 148079, Note_on_c, 0, 68, 0
1, 148320, Note_on_c, 0, 56, 80
1, 149759, Note_on_c, 0, 56, 0
1, 151200, Note_on_c, 0, 64, 80
1, 151319, Note_on_c, 0, 64, 0
1, 151320, Note_on_c, 0, 56, 80
1, 151439, Note_on_c, 0, 56, 0
1, 151440, Note_on_c, 0, 61, 80
1, 151559, Note_on_c, 0, 61, 0
1, 151560, Note_on_c, 0, 64, 80
1, 151679, Note_on_c, 0, 64, 0
1, 151680, Note_on_c, 0, 68, 80
1, 151799, Note_on_c, 0, 68, 0
1, 151800, Note_on_c, 0, 61, 80
1, 151919, Note_on_c, 0, 61, 0
1, 151920, Note_on_c, 0, 64, 80
1, 152039, Note_on_c, 0, 64, 0
1, 152040, Note_on_c, 0, 68, 80
1, 152159, Note_on_c, 0, 68, 0
1, 152160, Note_on_c, 0, 73, 80
1, 152279, Note_on_c, 0, 73, 0
1, 152280, Note_on_c, 0, 64, 80
1, 152399, Note_on_c, 0, 64, 0
1, 152400, Note_on_c, 0, 68, 80
1, 152519, Note_on_c, 0, 68, 0
1, 152520, Note_on_c, 0, 73, 80
1, 152639, Note_on_c, 0, 73, 0
1, 152640, Note_on_c, 0, 76, 80
1, 152759, Note_on_c, 0, 76, 0
1, 152760, Note_on_c, 0, 68, 80
1, 152879, Note_on_c, 0, 68, 0
1, 152880, Note_on_c, 0, 73, 80
1, 152999, Note_on_c, 0, 73, 0
1, 153000, Note_on_c, 0, 76, 80
1, 153119, Note_on_c, 0, 76, 0
1, 153120, Note_on_c, 0, 80, 80
1, 153120, Note_on_c, 0, 76, 80
1, 153120, Note_on_c, 0, 73, 80
1, 153120, Note_on_c, 0, 68, 80
1, 153359, Note_on_c, 0, 80, 0
1, 153359, Note_on_c, 0, 76, 0
1, 153359, Note_on_c, 0, 73, 0
1, 153359, Note_on_c, 0, 68, 0
1, 153360, Note_on_c, 0, 80, 80
1, 153360, Note_on_c, 0, 76, 80
1, 153360, Note_on_c, 0, 73, 80
1, 153360, Note_on_c, 0, 68, 80
1, 153479, Note_on_c, 0, 80, 0
1, 153479, Note_on_c, 0, 76, 0
1, 153479, Note_on_c, 0, 73, 0
1, 153479, Note_on_c, 0, 68, 0
1, 154560, Note_on_c, 0, 67, 80
1, 154679, Note_on_c, 0, 67, 0
1, 154680, Note_on_c, 0, 61, 80
1, 154799, Note_on_c, 0, 61, 0
1, 154800, Note_on_c, 0, 64, 80
1, 154919, Note_on_c, 0, 64, 0
1, 154920, Note_on_c, 0, 67, 80
1, 155039, Note_on_c, 0, 67, 0
1, 155040, Note_on_c, 0, 73, 80
1, 155159, Note_on_c, 0, 73, 0
1, 155160, Note_on_c, 0, 64, 80
1, 155279, Note_on_c, 0, 64, 0
1, 155280, Note_on_c, 0, 67, 80
1, 155399, Note_on_c, 0, 67, 0
1, 155400, Note_on_c, 0, 73, 80
1, 155519, Note_on_c, 0, 73, 0
1, 155520, Note_on_c, 0, 76, 80
1, 155639, Note_on_c, 0, 76, 0
1, 155640, Note_on_c, 0, 67, 80
1, 155759, Note_on_c, 0, 67, 0
1, 155760, Note_on_c, 0, 73, 80
1, 155879, Note_on_c, 0, 73, 0
1, 155880, Note_on_c, 0, 76, 80
1, 155999, Note_on_c, 0, 76, 0
1, 156000, Note_on_c, 0, 79, 80
1, 156119, Note_on_c, 0, 79, 0
1, 156120, Note_on_c, 0, 73, 80
1, 156239, Note_on_c, 0, 73, 0
1, 156240, Note_on_c, 0, 76, 80
1, 156359, Note_on_c, 0, 76, 0
1, 156360, Note_on_c, 0, 79, 80
1, 156479, Note_on_c, 0, 79, 0
1, 156480, Note_on_c, 0, 85, 80
1, 156599, Note_on_c, 0, 85, 0
1, 156600, Note_on_c, 0, 76, 80
1, 156719, Note_on_c, 0, 76, 0
1, 156720, Note_on_c, 0, 79, 80
1, 156839, Note_on_c, 0, 79, 0
1, 156840, Note_on_c, 0, 85, 80
1, 156959, Note_on_c, 0, 85, 0
1, 156960, Note_on_c, 0, 88, 80
1, 156960, Note_on_c, 0, 76, 80
1, 157199, Note_on_c, 0, 88, 0
1, 157199, Note_on_c, 0, 76, 0
1, 157200, Note_on_c, 0, 88, 80
1, 157200, Note_on_c, 0, 76, 80
1, 157319, Note_on_c, 0, 88, 0
1, 157319, Note_on_c, 0, 76, 0
1, 158400, Note_on_c, 0, 70, 80
1, 158519, Note_on_c, 0, 70, 0
1, 158520, Note_on_c, 0, 61, 80
1, 158639, Note_on_c, 0, 61, 0
1, 158640, Note_on_c, 0, 63, 80
1, 158759, Note_on_c, 0, 63, 0
1, 158760, Note_on_c, 0, 70, 80
1, 158879, Note_on_c, 0, 70, 0
1, 158880, Note_on_c, 0, 73, 80
1, 158999, Note_on_c, 0, 73, 0
1, 159000, Note_on_c, 0, 63, 80
1, 159119, Note_on_c, 0, 63, 0
1, 159120, Note_on_c, 0, 70, 80
1, 159239, Note_on_c, 0, 70, 0
1, 159240, Note_on_c, 0, 73, 80
1, 159359, Note_on_c, 0, 73, 0
1, 159360, Note_on_c, 0, 75, 80
1, 159479, Note_on_c, 0, 75, 0
1, 159480, Note_on_c, 0, 70, 80
1, 159599, Note_on_c, 0, 70, 0
1, 159600, Note_on_c, 0, 73, 80
1, 159719, Note_on_c, 0, 73, 0
1, 159720, Note_on_c, 0, 75, 80
1, 159839, Note_on_c, 0, 75, 0
1, 159840, Note_on_c, 0, 82, 80
1, 159959, Note_on_c, 0, 82, 0
1, 159960, Note_on_c, 0, 73, 80
1, 160079, Note_on_c, 0, 73, 0
1, 160080, Note_on_c, 0, 75, 80
1, 160199, Note_on_c, 0, 75, 0
1, 160200, Note_on_c, 0, 82, 80
1, 160319, Note_on_c, 0, 82, 0
1, 160320, Note_on_c, 0, 85, 80
1, 160439, Note_on_c, 0, 85, 0
1, 160440, Note_on_c, 0, 82, 80
1, 160559, Note_on_c, 0, 82, 0
1, 160560, Note_on_c, 0, 75, 80
1, 160679, Note_on_c, 0, 75, 0
1, 160680, Note_on_c, 0, 73, 80
1, 160799, Note_on_c, 0, 73, 0
1, 160800, Note_on_c, 0, 82, 80
1, 160919, Note_on_c, 0, 82, 0
1, 160920, Note_on_c, 0, 75, 80
1, 161039, Note_on_c, 0, 75, 0
1, 161040, Note_on_c, 0, 73, 80
1, 161159, Note_on_c, 0, 73, 0
1, 161160, Note_on_c, 0, 70, 80
1, 161279, Note_on_c, 0, 70, 0
1, 161280, Note_on_c, 0, 71, 80
1, 161519, Note_on_c, 0, 71, 0
1, 161760, Note_on_c, 0, 75, 80
1, 162719, Note_on_c, 0, 75, 0
1, 162720, Note_on_c, 0, 71, 80
1, 163079, Note_on_c, 0, 71, 0
1, 163080, Note_on_c, 0, 68, 80
1, 163109, Note_on_c, 0, 68, 0
1, 163110, Note_on_c, 0, 67, 80
1, 163139, Note_on_c, 0, 67, 0
1, 163140, Note_on_c, 0, 68, 80
1, 163169, Note_on_c, 0, 68, 0
1, 163170, Note_on_c, 0, 70, 80
1, 163199, Note_on_c, 0, 70, 0
1, 163200, Note_on_c, 0, 68, 80
1, 163679, Note_on_c, 0, 68, 0
1, 163680, Note_on_c, 0, 67, 80
1, 164399, Note_on_c, 0, 67, 0
1, 164400, Note_on_c, 0, 67, 80
1, 164639, Note_on_c, 0, 67, 0
1, 164640, Note_on_c, 0, 75, 80
1, 164999, Note_on_c, 0, 75, 0
1, 165000, Note_on_c, 0, 67, 80
1, 165119, Note_on_c, 0, 67, 0
1, 165120, Note_on_c, 0, 70, 80
1, 165599, Note_on_c, 0, 70, 0
1, 165600, Note_on_c, 0, 68, 80
1, 166319, Note_on_c, 0, 68, 0
1, 166320, Note_on_c, 0, 68, 80
1, 166559, Note_on_c, 0, 68, 0
1, 166560, Note_on_c, 0, 75, 80
1, 166919, Note_on_c, 0, 75, 0
1, 166920, Note_on_c, 0, 68, 80
1, 167039, Note_on_c, 0, 68, 0
1, 167040, Note_on_c, 0, 71, 80
1, 167519, Note_on_c, 0, 71, 0
1, 167520, Note_on_c, 0, 70, 80
1, 168239, Note_on_c, 0, 70, 0
1, 168240, Note_on_c, 0, 70, 80
1, 168479, Note_on_c, 0, 70, 0
1, 168480, Note_on_c, 0, 75, 80
1, 168839, Note_on_c, 0, 75, 0
1, 168840, Note_on_c, 0, 70, 80
1, 168959, Note_on_c, 0, 70, 0
1, 168960, Note_on_c, 0, 71, 80
1, 169079, Note_on_c, 0, 71, 0
1, 169200, Note_on_c, 0, 87, 80
1, 169200, Note_on_c, 0, 75, 80
1, 169679, Note_on_c, 0, 87, 0
1, 169679, Note_on_c, 0, 75, 0
1, 169680, Note_on_c, 0, 87, 80
1, 169680, Note_on_c, 0, 75, 80
1, 170159, Note_on_c, 0, 87, 0
1, 170159, Note_on_c, 0, 75, 0
1, 170160, Note_on_c, 0, 87, 80
1, 170160, Note_on_c, 0, 75, 80
1, 170279, Note_on_c, 0, 87, 0
1, 170279, Note_on_c, 0, 75, 0
1, 170400, Note_on_c, 0, 83, 80
1, 170400, Note_on_c, 0, 71, 80
1, 170519, Note_on_c, 0, 83, 0
1, 170519, Note_on_c, 0, 71, 0
1, 170640, Note_on_c, 0, 80, 80
1, 170640, Note_on_c, 0, 68, 80
1, 170759, Note_on_c, 0, 80, 0
1, 170759, Note_on_c, 0, 68, 0
1, 170880, Note_on_c, 0, 80, 80
1, 170880, Note_on_c, 0, 68, 80
1, 170999, Note_on_c, 0, 80, 0
1, 170999, Note_on_c, 0, 68, 0
1, 171120, Note_on_c, 0, 79, 80
1, 171120, Note_on_c, 0, 67, 80
1, 171599, Note_on_c, 0, 79, 0
1, 171599, Note_on_c, 0, 67, 0
1, 171600, Note_on_c, 0, 79, 80
1, 171600, Note_on_c, 0, 67, 80
1, 172079, Note_on_c, 0, 79, 0
1, 172079, Note_on_c, 0, 67, 0
1, 172080, Note_on_c, 0, 79, 80
1, 172080, Note_on_c, 0, 67, 80
1, 172199, Note_on_c, 0, 79, 0
1, 172199, Note_on_c, 0, 67, 0
1, 172320, Note_on_c, 0, 87, 80
1, 172320, Note_on_c, 0, 75, 80
1, 172439, Note_on_c, 0, 87, 0
1, 172439, Note_on_c, 0, 75, 0
1, 172560, Note_on_c, 0, 79, 80
1, 172560, Note_on_c, 0, 67, 80
1, 172679, Note_on_c, 0, 79, 0
1, 172679, Note_on_c, 0, 67, 0
1, 172800, Note_on_c, 0, 82, 80
1, 172800, Note_on_c, 0, 70, 80
1, 172919, Note_on_c, 0, 82, 0
1, 172919, Note_on_c, 0, 70, 0
1, 173040, Note_on_c, 0, 80, 80
1, 173040, Note_on_c, 0, 68, 80
1, 173519, Note_on_c, 0, 80, 0
1, 173519, Note_on_c, 0, 68, 0
1, 173520, Note_on_c, 0, 80, 80
1, 173520, Note_on_c, 0, 68, 80
1, 173999, Note_on_c, 0, 80, 0
1, 173999, Note_on_c, 0, 68, 0
1, 174000, Note_on_c, 0, 80, 80
1, 174000, Note_on_c, 0, 68, 80
1, 174119, Note_on_c, 0, 80, 0
1, 174119, Note_on_c, 0, 68, 0
1, 174240, Note_on_c, 0, 87, 80
1, 174240, Note_on_c, 0, 75, 80
1, 174359, Note_on_c, 0, 87, 0
1, 174359, Note_on_c, 0, 75, 0
1, 174480, Note_on_c, 0, 80, 80
1, 174480, Note_on_c, 0, 68, 80
1, 174599, Note_on_c, 0, 80, 0
1, 174599, Note_on_c, 0, 68, 0
1, 174720, Note_on_c, 0, 83, 80
1, 174720, Note_on_c, 0, 71, 80
1, 174839, Note_on_c, 0, 83, 0
1, 174839, Note_on_c, 0, 71, 0
1, 174960, Note_on_c, 0, 82, 80
1, 174960, Note_on_c, 0, 70, 80
1, 175439, Note_on_c, 0, 82, 0
1, 175439, Note_on_c, 0, 70, 0
1, 175440, Note_on_c, 0, 82, 80
1, 175440, Note_on_c, 0, 70, 80
1, 175919, Note_on_c, 0, 82, 0
1, 175919, Note_on_c, 0, 70, 0
1, 175920, Note_on_c, 0, 82, 80
1, 175920, Note_on_c, 0, 70, 80
1, 176039, Note_on_c, 0, 82, 0
1, 176039, Note_on_c, 0, 70, 0
1, 176160, Note_on_c, 0, 87, 80
1, 176160, Note_on_c, 0, 75, 80
1, 176279, Note_on_c, 0, 87, 0
1, 176279, Note_on_c, 0, 75, 0
1, 176400, Note_on_c, 0, 82, 80
1, 176400, Note_on_c, 0, 70, 80
1, 176519, Note_on_c, 0, 82, 0
1, 176519, Note_on_c, 0, 70, 0
1, 176640, Note_on_c, 0, 84, 80
1, 176640, Note_on_c, 0, 72, 80
1, 177599, Note_on_c, 0, 84, 0
1, 177599, Note_on_c, 0, 72, 0
1, 177600, Note_on_c, 0, 85, 80
1, 177600, Note_on_c, 0, 73, 80
1, 178559, Note_on_c, 0, 85, 0
1, 178559, Note_on_c, 0, 73, 0
1, 178560, Note_on_c, 0, 82, 80
1, 178619, Note_on_c, 0, 82, 0
1, 178620, Note_on_c, 0, 83, 80
1, 178679, Note_on_c, 0, 83, 0
1, 178680, Note_on_c, 0, 82, 80
1, 178739, Note_on_c, 0, 82, 0
1, 178740, Note_on_c, 0, 83, 80
1, 178799, Note_on_c, 0, 83, 0
1, 178800, Note_on_c, 0, 80, 80
1, 178919, Note_on_c, 0, 80, 0
1, 178920, Note_on_c, 0, 82, 80
1, 179039, Note_on_c, 0, 82, 0
1, 179040, Note_on_c, 0, 83, 80
1, 179040, Note_on_c, 0, 71, 80
1, 180479, Note_on_c, 0, 83, 0
1, 180479, Note_on_c, 0, 71, 0
1, 180480, Note_on_c, 0, 80, 80
1, 180480, Note_on_c, 0, 68, 80
1, 181439, Note_on_c, 0, 80, 0
1, 181439, Note_on_c, 0, 68, 0
1, 181440, Note_on_c, 0, 81, 80
1, 181440, Note_on_c, 0, 69, 80
1, 182399, Note_on_c, 0, 81, 0
1, 182399, Note_on_c, 0, 69, 0
1, 182400, Note_on_c, 0, 79, 80
1, 182459, Note_on_c, 0, 79, 0
1, 182460, Note_on_c, 0, 80, 80
1, 182519, Note_on_c, 0, 80, 0
1, 182520, Note_on_c, 0, 79, 80
1, 182579, Note_on_c, 0, 79, 0
1, 182580, Note_on_c, 0, 80, 80
1, 182639, Note_on_c, 0, 80, 0
1, 182640, Note_on_c, 0, 77, 80
1, 182759, Note_on_c, 0, 77, 0
1, 182760, Note_on_c, 0, 78, 80
1, 182879, Note_on_c, 0, 78, 0
1, 182880, Note_on_c, 0, 80, 80
1, 182880, Note_on_c, 0, 68, 80
1, 184319, Note_on_c, 0, 80, 0
1, 184319, Note_on_c, 0, 68, 0
1, 184320, Note_on_c, 0, 81, 80
1, 184320, Note_on_c, 0, 76, 80
1, 184320, Note_on_c, 0, 73, 80
1, 184320, Note_on_c, 0, 69, 80
1, 185399, Note_on_c, 0, 81, 0
1, 185399, Note_on_c, 0, 76, 0
1, 185399, Note_on_c, 0, 73, 0
1, 185399, Note_on_c, 0, 69, 0
1, 185400, Note_on_c, 0, 76, 80
1, 185519, Note_on_c, 0, 76, 0
1, 185520, Note_on_c, 0, 78, 80
1, 185639, Note_on_c, 0, 78, 0
1, 185640, Note_on_c, 0, 80, 80
1, 185759, Note_on_c, 0, 80, 0
1, 185760, Note_on_c, 0, 81, 80
1, 185879, Note_on_c, 0, 81, 0
1, 185880, Note_on_c, 0, 83, 80
1, 185999, Note_on_c, 0, 83, 0
1, 186000, Note_on_c, 0, 85, 80
1, 186119, Note_on_c, 0, 85, 0
1, 186120, Note_on_c, 0, 83, 80
1, 186239, Note_on_c, 0, 83, 0
1, 186240, Note_on_c, 0, 81, 80
1, 186359, Note_on_c, 0, 81, 0
1, 186360, Note_on_c, 0, 76, 80
1, 186479, Note_on_c, 0, 76, 0
1, 186480, Note_on_c, 0, 78, 80
1, 186599, Note_on_c, 0, 78, 0
1, 186600, Note_on_c, 0, 80, 80
1, 186719, Note_on_c, 0, 80, 0
1, 186720, Note_on_c, 0, 81, 80
1, 186839, Note_on_c, 0, 81, 0
1, 186840, Note_on_c, 0, 83, 80
1, 186959, Note_on_c, 0, 83, 0
1, 186960, Note_on_c, 0, 85, 80
1, 187079, Note_on_c, 0, 85, 0
1, 187080, Note_on_c, 0, 83, 80
1, 187199, Note_on_c, 0, 83, 0
1, 187200, Note_on_c, 0, 81, 80
1, 187319, Note_on_c, 0, 81, 0
1, 187320, Note_on_c, 0, 76, 80
1, 187439, Note_on_c, 0, 76, 0
1, 187440, Note_on_c, 0, 78, 80
1, 187559, Note_on_c, 0, 78, 0
1, 187560, Note_on_c, 0, 80, 80
1, 187679, Note_on_c, 0, 80, 0
1, 187680, Note_on_c, 0, 81, 80
1, 187799, Note_on_c, 0, 81, 0
1, 187800, Note_on_c, 0, 83, 80
1, 187919, Note_on_c, 0, 83, 0
1, 187920, Note_on_c, 0, 85, 80
1, 188039, Note_on_c, 0, 85, 0
1, 188040, Note_on_c, 0, 83, 80
1, 188159, Note_on_c, 0, 83, 0
1, 188160, Note_on_c, 0, 81, 80
1, 188279, Note_on_c, 0, 81, 0
1, 188280, Note_on_c, 0, 76, 80
1, 188399, Note_on_c, 0, 76, 0
1, 188400, Note_on_c, 0, 78, 80
1, 188519, Note_on_c, 0, 78, 0
1, 188520, Note_on_c, 0, 80, 80
1, 188639, Note_on_c, 0, 80, 0
1, 188640, Note_on_c, 0, 81, 80
1, 188759, Note_on_c, 0, 81, 0
1, 188760, Note_on_c, 0, 83, 80
1, 188879, Note_on_c, 0, 83, 0
1, 188880, Note_on_c, 0, 85, 80
1, 188999, Note_on_c, 0, 85, 0
1, 189000, Note_on_c, 0, 86, 80
1, 189119, Note_on_c, 0, 86, 0
1, 189120, Note_on_c, 0, 88, 80
1, 189239, Note_on_c, 0, 88, 0
1, 189240, Note_on_c, 0, 87, 80
1, 189359, Note_on_c, 0, 87, 0
1, 189360, Note_on_c, 0, 88, 80
1, 189479, Note_on_c, 0, 88, 0
1, 189480, Note_on_c, 0, 87, 80
1, 189599, Note_on_c, 0, 87, 0
1, 189600, Note_on_c, 0, 88, 80
1, 189719, Note_on_c, 0, 88, 0
1, 189720, Note_on_c, 0, 85, 80
1, 189839, Note_on_c, 0, 85, 0
1, 189840, Note_on_c, 0, 83, 80
1, 189959, Note_on_c, 0, 83, 0
1, 189960, Note_on_c, 0, 81, 80
1, 190079, Note_on_c, 0, 81, 0
1, 190080, Note_on_c, 0, 80, 80
1, 191039, Note_on_c, 0, 80, 0
1, 191040, Note_on_c, 0, 82, 80
1, 191099, Note_on_c, 0, 82, 0
1, 191100, Note_on_c, 0, 83, 80
1, 191159, Note_on_c, 0, 83, 0
1, 191160, Note_on_c, 0, 82, 80
1, 191219, Note_on_c, 0, 82, 0
1, 191220, Note_on_c, 0, 83, 80
1, 191279, Note_on_c, 0, 83, 0
1, 191280, Note_on_c, 0, 82, 80
1, 191339, Note_on_c, 0, 82, 0
1, 191340, Note_on_c, 0, 83, 80
1, 191399, Note_on_c, 0, 83, 0
1, 191400, Note_on_c, 0, 82, 80
1, 191459, Note_on_c, 0, 82, 0
1, 191460, Note_on_c, 0, 83, 80
1, 191519, Note_on_c, 0, 83, 0
1, 191520, Note_on_c, 0, 82, 80
1, 191579, Note_on_c, 0, 82, 0
1, 191580, Note_on_c, 0, 83, 80
1, 191639, Note_on_c, 0, 83, 0
1, 191640, Note_on_c, 0, 82, 80
1, 191699, Note_on_c, 0, 82, 0
1, 191700, Note_on_c, 0, 83, 80
1, 191759, Note_on_c, 0, 83, 0
1, 191760, Note_on_c, 0, 80, 80
1, 191879, Note_on_c, 0, 80, 0
1, 191880, Note_on_c, 0, 82, 80
1, 191999, Note_on_c, 0, 82, 0
1, 192000, Note_on_c, 0, 80, 80
1, 192239, Note_on_c, 0, 80, 0
1, 192480, Note_on_c, 0, 69, 80
1, 192480, Note_on_c, 0, 64, 80
1, 192480, Note_on_c, 0, 61, 80
1, 192480, Note_on_c, 0, 57, 80
1, 193079, Note_on_c, 0, 69, 0
1, 193079, Note_on_c, 0, 64, 0
1, 193079, Note_on_c, 0, 61, 0
1, 193079, Note_on_c, 0, 57, 0
1, 193080, Note_on_c, 0, 64, 80
1, 193199, Note_on_c, 0, 64, 0
1, 193200, Note_on_c, 0, 66, 80
1, 193319, Note_on_c, 0, 66, 0
1, 193320, Note_on_c, 0, 68, 80
1, 193439, Note_on_c, 0, 68, 0
1, 193440, Note_on_c, 0, 69, 80
1, 193559, Note_on_c, 0, 69, 0
1, 193560, Note_on_c, 0, 71, 80
1, 193679, Note_on_c, 0, 71, 0
1, 193680, Note_on_c, 0, 73, 80
1, 193799, Note_on_c, 0, 73, 0
1, 193800, Note_on_c, 0, 71, 80
1, 193919, Note_on_c, 0, 71, 0
1, 193920, Note_on_c, 0, 69, 80
1, 194039, Note_on_c, 0, 69, 0
1, 194040, Note_on_c, 0, 64, 80
1, 194159, Note_on_c, 0, 64, 0
1, 194160, Note_on_c, 0, 66, 80
1, 194279, Note_on_c, 0, 66, 0
1, 194280, Note_on_c, 0, 68, 80
1, 194399, Note_on_c, 0, 68, 0
1, 194400, Note_on_c, 0, 69, 80
1, 194519, Note_on_c, 0, 69, 0
1, 194520, Note_on_c, 0, 71, 80
1, 194639, Note_on_c, 0, 71, 0
1, 194640, Note_on_c, 0, 73, 80
1, 194759, Note_on_c, 0, 73, 0
1, 194760, Note_on_c, 0, 71, 80
1, 194879, Note_on_c, 0, 71, 0
1, 194880, Note_on_c, 0, 69, 80
1, 194999, Note_on_c, 0, 69, 0
1, 195000, Note_on_c, 0, 64, 80
1, 195119, Note_on_c, 0, 64, 0
1, 195120, Note_on_c, 0, 66, 80
1, 195239, Note_on_c, 0, 66, 0
1, 195240, Note_on_c, 0, 68, 80
1, 195359, Note_on_c, 0, 68, 0
1, 195360, Note_on_c, 0, 69, 80
1, 195479, Note_on_c, 0, 69, 0
1, 195480, Note_on_c, 0, 71, 80
1, 195599, Note_on_c, 0, 71, 0
1, 195600, Note_on_c, 0, 73, 80
1, 195719, Note_on_c, 0, 73, 0
1, 195720, Note_on_c, 0, 71, 80
1, 195839, Note_on_c, 0, 71, 0
1, 195840, Note_on_c, 0, 69, 80
1, 195959, Note_on_c, 0, 69, 0
1, 195960, Note_on_c, 0, 64, 80
1, 196079, Note_on_c, 0, 64, 0
1, 196080, Note_on_c, 0, 66, 80
1, 196199, Note_on_c, 0, 66, 0
1, 196200, Note_on_c, 0, 68, 80
1, 196319, Note_on_c, 0, 68, 0
1, 196320, Note_on_c, 0, 69, 80
1, 196439, Note_on_c, 0, 69, 0
1, 196440, Note_on_c, 0, 71, 80
1, 196559, Note_on_c, 0, 71, 0
1, 196560, Note_on_c, 0, 73, 80
1, 196679, Note_on_c, 0, 73, 0
1, 196680, Note_on_c, 0, 71, 80
1, 196799, Note_on_c, 0, 71, 0
1, 196800, Note_on_c, 0, 69, 80
1, 196919, Note_on_c, 0, 69, 0
1, 196920, Note_on_c, 0, 64, 80
1, 197039, Note_on_c, 0, 64, 0
1, 197040, Note_on_c, 0, 66, 80
1, 197159, Note_on_c, 0, 66, 0
1, 197160, Note_on_c, 0, 68, 80
1, 197279, Note_on_c, 0, 68, 0
1, 197280, Note_on_c, 0, 69, 80
1, 197399, Note_on_c, 0, 69, 0
1, 197400, Note_on_c, 0, 71, 80
1, 197519, Note_on_c, 0, 71, 0
1, 197520, Note_on_c, 0, 73, 80
1, 197639, Note_on_c, 0, 73, 0
1, 197640, Note_on_c, 0, 71, 80
1, 197759, Note_on_c, 0, 71, 0
1, 197760, Note_on_c, 0, 69, 80
1, 197879, Note_on_c, 0, 69, 0
1, 197880, Note_on_c, 0, 64, 80
1, 197999, Note_on_c, 0, 64, 0
1, 198000, Note_on_c, 0, 66, 80
1, 198119, Note_on_c, 0, 66, 0
1, 198120, Note_on_c, 0, 68, 80
1, 198239, Note_on_c, 0, 68, 0
1, 198240, Note_on_c, 0, 69, 80
1, 198359, Note_on_c, 0, 69, 0
1, 198360, Note_on_c, 0, 71, 80
1, 198479, Note_on_c, 0, 71, 0
1, 198480, Note_on_c, 0, 73, 80
1, 198599, Note_on_c, 0, 73, 0
1, 198600, Note_on_c, 0, 74, 80
1, 198719, Note_on_c, 0, 74, 0
1, 198720, Note_on_c, 0, 76, 80
1, 198839, Note_on_c, 0, 76, 0
1, 198840, Note_on_c, 0, 78, 80
1, 198959, Note_on_c, 0, 78, 0
1, 198960, Note_on_c, 0, 80, 80
1, 199079, Note_on_c, 0, 80, 0
1, 199080, Note_on_c, 0, 81, 80
1, 199199, Note_on_c, 0, 81, 0
1, 199200, Note_on_c, 0, 83, 80
1, 199319, Note_on_c, 0, 83, 0
1, 199320, Note_on_c, 0, 85, 80
1, 199439, Note_on_c, 0, 85, 0
1, 199440, Note_on_c, 0, 86, 80
1, 199559, Note_on_c, 0, 86, 0
1, 199560, Note_on_c, 0, 87, 80
1, 199679, Note_on_c, 0, 87, 0
1, 199680, Note_on_c, 0, 88, 80
1, 199680, Note_on_c, 0, 76, 80
1, 200639, Note_on_c, 0, 88, 0
1, 200639, Note_on_c, 0, 76, 0
1, 200640, Note_on_c, 0, 80, 80
1, 200640, Note_on_c, 0, 68, 80
1, 201599, Note_on_c, 0, 80, 0
1, 201599, Note_on_c, 0, 68, 0
1, 201600, Note_on_c, 0, 83, 80
1, 201600, Note_on_c, 0, 71, 80
1, 202559, Note_on_c, 0, 83, 0
1, 202559, Note_on_c, 0, 71, 0
1, 202560, Note_on_c, 0, 67, 80
1, 202560, Note_on_c, 0, 61, 80
1, 202560, Note_on_c, 0, 55, 80
1, 203519, Note_on_c, 0, 67, 0
1, 203519, Note_on_c, 0, 61, 0
1, 203519, Note_on_c, 0, 55, 0
1, 203520, Note_on_c, 0, 68, 80
1, 203520, Note_on_c, 0, 59, 80
1, 203520, Note_on_c, 0, 56, 80
1, 203759, Note_on_c, 0, 68, 0
1, 203759, Note_on_c, 0, 59, 0
1, 203759, Note_on_c, 0, 56, 0
1, 203760, Note_on_c, 0, 71, 80
1, 203760, Note_on_c, 0, 63, 80
1, 203879, Note_on_c, 0, 71, 0
1, 203879, Note_on_c, 0, 63, 0
1, 204000, Note_on_c, 0, 71, 80
1, 204000, Note_on_c, 0, 63, 80
1, 204119, Note_on_c, 0, 71, 0
1, 204119, Note_on_c, 0, 63, 0
1, 204240, Note_on_c, 0, 71, 80
1, 204240, Note_on_c, 0, 63, 80
1, 204359, Note_on_c, 0, 71, 0
1, 204359, Note_on_c, 0, 63, 0
1, 204480, Note_on_c, 0, 71, 80
1, 204480, Note_on_c, 0, 63, 80
1, 204599, Note_on_c, 0, 71, 0
1, 204599, Note_on_c, 0, 63, 0
1, 204720, Note_on_c, 0, 71, 80
1, 204720, Note_on_c, 0, 63, 80
1, 204839, Note_on_c, 0, 71, 0
1, 204839, Note_on_c, 0, 63, 0
1, 204960, Note_on_c, 0, 70, 80
1, 204960, Note_on_c, 0, 63, 80
1, 205079, Note_on_c, 0, 70, 0
1, 205079, Note_on_c, 0, 63, 0
1, 205200, Note_on_c, 0, 68, 80
1, 205200, Note_on_c, 0, 63, 80
1, 205319, Note_on_c, 0, 68, 0
1, 205319, Note_on_c, 0, 63, 0
1, 205440, Note_on_c, 0, 67, 80
1, 205440, Note_on_c, 0, 63, 80
1, 205679, Note_on_c, 0, 67, 0
1, 205679, Note_on_c, 0, 63, 0
1, 205680, Note_on_c, 0, 75, 80
1, 205680, Note_on_c, 0, 67, 80
1, 205919, Note_on_c, 0, 75, 0
1, 205919, Note_on_c, 0, 67, 0
1, 205920, Note_on_c, 0, 75, 80
1, 205920, Note_on_c, 0, 67, 80
1, 206159, Note_on_c, 0, 75, 0
1, 206159, Note_on_c, 0, 67, 0
1, 206160, Note_on_c, 0, 75, 80
1, 206160, Note_on_c, 0, 67, 80
1, 206399, Note_on_c, 0, 75, 0
1, 206399, Note_on_c, 0, 67, 0
1, 206400, Note_on_c, 0, 75, 80
1, 206400, Note_on_c, 0, 67, 80
1, 206639, Note_on_c, 0, 75, 0
1, 206639, Note_on_c, 0, 67, 0
1, 206640, Note_on_c, 0, 75, 80
1, 206640, Note_on_c, 0, 67, 80
1, 206879, Note_on_c, 0, 75, 0
1, 206879, Note_on_c, 0, 67, 0
1, 206880, Note_on_c, 0, 75, 80
1, 206880, Note_on_c, 0, 68, 80
1, 207119, Note_on_c, 0, 75, 0
1, 207119, Note_on_c, 0, 68, 0
1, 207120, Note_on_c, 0, 75, 80
1, 207120, Note_on_c, 0, 70, 80
1, 207359, Note_on_c, 0, 75, 0
1, 207359, Note_on_c, 0, 70, 0
1, 207360, Note_on_c, 0, 75, 80
1, 207360, Note_on_c, 0, 71, 80
1, 207599, Note_on_c, 0, 75, 0
1, 207599, Note_on_c, 0, 71, 0
1, 207600, Note_on_c, 0, 71, 80
1, 207600, Note_on_c, 0, 63, 80
1, 207839, Note_on_c, 0, 71, 0
1, 207839, Note_on_c, 0, 63, 0
1, 207840, Note_on_c, 0, 71, 80
1, 207840, Note_on_c, 0, 63, 80
1, 208079, Note_on_c, 0, 71, 0
1, 208079, Note_on_c, 0, 63, 0
1, 208080, Note_on_c, 0, 71, 80
1, 208080, Note_on_c, 0, 63, 80
1, 208319, Note_on_c, 0, 71, 0
1, 208319, Note_on_c, 0, 63, 0
1, 208320, Note_on_c, 0, 71, 80
1, 208320, Note_on_c, 0, 63, 80
1, 208559, Note_on_c, 0, 71, 0
1, 208559, Note_on_c, 0, 63, 0
1, 208560, Note_on_c, 0, 71, 80
1, 208560, Note_on_c, 0, 63, 80
1, 208799, Note_on_c, 0, 71, 0
1, 208799, Note_on_c, 0, 63, 0
1, 208800, Note_on_c, 0, 70, 80
1, 208800, Note_on_c, 0, 63, 80
1, 209039, Note_on_c, 0, 70, 0
1, 209039, Note_on_c, 0, 63, 0
1, 209040, Note_on_c, 0, 68, 80
1, 209040, Note_on_c, 0, 63, 80
1, 209279, Note_on_c, 0, 68, 0
1, 209279, Note_on_c, 0, 63, 0
1, 209280, Note_on_c, 0, 67, 80
1, 209280, Note_on_c, 0, 63, 80
1, 209519, Note_on_c, 0, 67, 0
1, 209519, Note_on_c, 0, 63, 0
1, 209520, Note_on_c, 0, 75, 80
1, 209520, Note_on_c, 0, 67, 80
1, 209759, Note_on_c, 0, 75, 0
1, 209759, Note_on_c, 0, 67, 0
1, 209760, Note_on_c, 0, 75, 80
1, 209760, Note_on_c, 0, 67, 80
1, 209999, Note_on_c, 0, 75, 0
1, 209999, Note_on_c, 0, 67, 0
1, 210000, Note_on_c, 0, 75, 80
1, 210000, Note_on_c, 0, 67, 80
1, 210239, Note_on_c, 0, 75, 0
1, 210239, Note_on_c, 0, 67, 0
1, 210240, Note_on_c, 0, 75, 80
1, 210240, Note_on_c, 0, 67, 80
1, 210479, Note_on_c, 0, 75, 0
1, 210479, Note_on_c, 0, 67, 0
1, 210480, Note_on_c, 0, 75, 80
1, 210480, Note_on_c, 0, 67, 80
1, 210719, Note_on_c, 0, 75, 0
1, 210719, Note_on_c, 0, 67, 0
1, 210720, Note_on_c, 0, 75, 80
1, 210720, Note_on_c, 0, 68, 80
1, 210959, Note_on_c, 0, 75, 0
1, 210959, Note_on_c, 0, 68, 0
1, 210960, Note_on_c, 0, 75, 80
1, 210960, Note_on_c, 0, 70, 80
1, 211199, Note_on_c, 0, 75, 0
1, 211199, Note_on_c, 0, 70, 0
1, 211200, Note_on_c, 0, 75, 80
1, 211200, Note_on_c, 0, 71, 80
1, 211319, Note_on_c, 0, 75, 0
1, 211319, Note_on_c, 0, 71, 0
1, 211440, Note_on_c, 0, 75, 80
1, 211440, Note_on_c, 0, 71, 80
1, 211559, Note_on_c, 0, 75, 0
1, 211559, Note_on_c, 0, 71, 0
1, 211680, Note_on_c, 0, 75, 80
1, 211680, Note_on_c, 0, 71, 80
1, 211919, Note_on_c, 0, 75, 0
1, 211919, Note_on_c, 0, 71, 0
1, 211920, Note_on_c, 0, 71, 80
1, 211920, Note_on_c, 0, 68, 80
1, 212159, Note_on_c, 0, 71, 0
1, 212159, Note_on_c, 0, 68, 0
1, 212400, Note_on_c, 0, 76, 80
1, 212400, Note_on_c, 0, 73, 80
1, 212519, Note_on_c, 0, 76, 0
1, 212519, Note_on_c, 0, 73, 0
1, 212640, Note_on_c, 0, 76, 80
1, 212640, Note_on_c, 0, 73, 80
1, 212879, Note_on_c, 0, 76, 0
1, 212879, Note_on_c, 0, 73, 0
1, 212880, Note_on_c, 0, 73, 80
1, 212880, Note_on_c, 0, 68, 80
1, 213119, Note_on_c, 0, 73, 0
1, 213119, Note_on_c, 0, 68, 0
1, 213360, Note_on_c, 0, 75, 80
1, 213360, Note_on_c, 0, 71, 80
1, 213479, Note_on_c, 0, 75, 0
1, 213479, Note_on_c, 0, 71, 0
1, 213600, Note_on_c, 0, 75, 80
1, 213600, Note_on_c, 0, 71, 80
1, 213839, Note_on_c, 0, 75, 0
1, 213839, Note_on_c, 0, 71, 0
1, 213840, Note_on_c, 0, 71, 80
1, 213840, Note_on_c, 0, 68, 80
1, 214079, Note_on_c, 0, 71, 0
1, 214079, Note_on_c, 0, 68, 0
1, 214320, Note_on_c, 0, 75, 80
1, 214320, Note_on_c, 0, 70, 80
1, 214439, Note_on_c, 0, 75, 0
1, 214439, Note_on_c, 0, 70, 0
1, 214560, Note_on_c, 0, 75, 80
1, 214560, Note_on_c, 0, 70, 80
1, 214799, Note_on_c, 0, 75, 0
1, 214799, Note_on_c, 0, 70, 0
1, 214800, Note_on_c, 0, 70, 80
1, 214800, Note_on_c, 0, 67, 80
1, 215039, Note_on_c, 0, 70, 0
1, 215039, Note_on_c, 0, 67, 0
1, 215040, Note_on_c, 0, 71, 80
1, 215040, Note_on_c, 0, 68, 80
1, 215279, Note_on_c, 0, 71, 0
1, 215279, Note_on_c, 0, 68, 0
1, 215280, Note_on_c, 0, 83, 80
1, 215280, Note_on_c, 0, 75, 80
1, 215280, Note_on_c, 0, 71, 80
1, 215519, Note_on_c, 0, 83, 0
1, 215519, Note_on_c, 0, 75, 0
1, 215519, Note_on_c, 0, 71, 0
1, 215520, Note_on_c, 0, 83, 80
1, 215520, Note_on_c, 0, 75, 80
1, 215520, Note_on_c, 0, 71, 80
1, 215759, Note_on_c, 0, 83, 0
1, 215759, Note_on_c, 0, 75, 0
1, 215759, Note_on_c, 0, 71, 0
1, 215760, Note_on_c, 0, 83, 80
1, 215760, Note_on_c, 0, 75, 80
1, 215760, Note_on_c, 0, 71, 80
1, 215999, Note_on_c, 0, 83, 0
1, 215999, Note_on_c, 0, 75, 0
1, 215999, Note_on_c, 0, 71, 0
1, 216000, Note_on_c, 0, 83, 80
1, 216000, Note_on_c, 0, 75, 80
1, 216000, Note_on_c, 0, 71, 80
1, 216239, Note_on_c, 0, 83, 0
1, 216239, Note_on_c, 0, 75, 0
1, 216239, Note_on_c, 0, 71, 0
1, 216240, Note_on_c, 0, 83, 80
1, 216240, Note_on_c, 0, 75, 80
1, 216240, Note_on_c, 0, 71, 80
1, 216479, Note_on_c, 0, 83, 0
1, 216479, Note_on_c, 0, 75, 0
1, 216479, Note_on_c, 0, 71, 0
1, 216480, Note_on_c, 0, 82, 80
1, 216480, Note_on_c, 0, 73, 80
1, 216480, Note_on_c, 0, 70, 80
1, 216719, Note_on_c, 0, 82, 0
1, 216719, Note_on_c, 0, 73, 0
1, 216719, Note_on_c, 0, 70, 0
1, 216720, Note_on_c, 0, 80, 80
1, 216720, Note_on_c, 0, 71, 80
1, 216720, Note_on_c, 0, 68, 80
1, 216959, Note_on_c, 0, 80, 0
1, 216959, Note_on_c, 0, 71, 0
1, 216959, Note_on_c, 0, 68, 0
1, 216960, Note_on_c, 0, 88, 80
1, 216960, Note_on_c, 0, 79, 80
1, 216960, Note_on_c, 0, 70, 80
1, 216960, Note_on_c, 0, 67, 80
1, 217199, Note_on_c, 0, 88, 0
1, 217199, Note_on_c, 0, 79, 0
1, 217199, Note_on_c, 0, 70, 0
1, 217199, Note_on_c, 0, 67, 0
1, 217200, Note_on_c, 0, 88, 80
1, 217200, Note_on_c, 0, 79, 80
1, 217200, Note_on_c, 0, 76, 80
1, 217439, Note_on_c, 0, 88, 0
1, 217439, Note_on_c, 0, 79, 0
1, 217439, Note_on_c, 0, 76, 0
1, 217440, Note_on_c, 0, 88, 80
1, 217440, Note_on_c, 0, 79, 80
1, 217440, Note_on_c, 0, 76, 80
1, 217679, Note_on_c, 0, 88, 0
1, 217679, Note_on_c, 0, 79, 0
1, 217679, Note_on_c, 0, 76, 0
1, 217680, Note_on_c, 0, 88, 80
1, 217680, Note_on_c, 0, 79, 80
1, 217680, Note_on_c, 0, 76, 80
1, 217919, Note_on_c, 0, 88, 0
1, 217919, Note_on_c, 0, 79, 0
1, 217919, Note_on_c, 0, 76, 0
1, 217920, Note_on_c, 0, 88, 80
1, 217920, Note_on_c, 0, 79, 80
1, 217920, Note_on_c, 0, 76, 80
1, 218159, Note_on_c, 0, 88, 0
1, 218159, Note_on_c, 0, 79, 0
1, 218159, Note_on_c, 0, 76, 0
1, 218160, Note_on_c, 0, 88, 80
1, 218160, Note_on_c, 0, 79, 80
1, 218160, Note_on_c, 0, 76, 80
1, 218399, Note_on_c, 0, 88, 0
1, 218399, Note_on_c, 0, 79, 0
1, 218399, Note_on_c, 0, 76, 0
1, 218400, Note_on_c, 0, 87, 80
1, 218400, Note_on_c, 0, 79, 80
1, 218400, Note_on_c, 0, 75, 80
1, 218639, Note_on_c, 0, 87, 0
1, 218639, Note_on_c, 0, 79, 0
1, 218639, Note_on_c, 0, 75, 0
1, 218640, Note_on_c, 0, 85, 80
1, 218640, Note_on_c, 0, 79, 80
1, 218640, Note_on_c, 0, 73, 80
1, 218879, Note_on_c, 0, 85, 0
1, 218879, Note_on_c, 0, 79, 0
1, 218879, Note_on_c, 0, 73, 0
1, 218880, Note_on_c, 0, 83, 80
1, 218880, Note_on_c, 0, 80, 80
1, 218880, Note_on_c, 0, 71, 80
1, 219119, Note_on_c, 0, 83, 0
1, 219119, Note_on_c, 0, 80, 0
1, 219119, Note_on_c, 0, 71, 0
1, 219120, Note_on_c, 0, 83, 80
1, 219120, Note_on_c, 0, 75, 80
1, 219120, Note_on_c, 0, 71, 80
1, 219359, Note_on_c, 0, 83, 0
1, 219359, Note_on_c, 0, 75, 0
1, 219359, Note_on_c, 0, 71, 0
1, 219360, Note_on_c, 0, 83, 80
1, 219360, Note_on_c, 0, 75, 80
1, 219360, Note_on_c, 0, 71, 80
1, 219599, Note_on_c, 0, 83, 0
1, 219599, Note_on_c, 0, 75, 0
1, 219599, Note_on_c, 0, 71, 0
1, 219600, Note_on_c, 0, 83, 80
1, 219600, Note_on_c, 0, 75, 80
1, 219600, Note_on_c, 0, 71, 80
1, 219839, Note_on_c, 0, 83, 0
1, 219839, Note_on_c, 0, 75, 0
1, 219839, Note_on_c, 0, 71, 0
1, 219840, Note_on_c, 0, 83, 80
1, 219840, Note_on_c, 0, 75, 80
1, 219840, Note_on_c, 0, 71, 80
1, 220079, Note_on_c, 0, 83, 0
1, 220079, Note_on_c, 0, 75, 0
1, 220079, Note_on_c, 0, 71, 0
1, 220080, Note_on_c, 0, 83, 80
1, 220080, Note_on_c, 0, 75, 80
1, 220080, Note_on_c, 0, 71, 80
1, 220319, Note_on_c, 0, 83, 0
1, 220319, Note_on_c, 0, 75, 0
1, 220319, Note_on_c, 0, 71, 0
1, 220320, Note_on_c, 0, 82, 80
1, 220320, Note_on_c, 0, 73, 80
1, 220320, Note_on_c, 0, 70, 80
1, 220559, Note_on_c, 0, 82, 0
1, 220559, Note_on_c, 0, 73, 0
1, 220559, Note_on_c, 0, 70, 0
1, 220560, Note_on_c, 0, 80, 80
1, 220560, Note_on_c, 0, 71, 80
1, 220560, Note_on_c, 0, 68, 80
1, 220799, Note_on_c, 0, 80, 0
1, 220799, Note_on_c, 0, 71, 0
1, 220799, Note_on_c, 0, 68, 0
1, 220800, Note_on_c, 0, 88, 80
1, 220800, Note_on_c, 0, 79, 80
1, 220800, Note_on_c, 0, 70, 80
1, 220800, Note_on_c, 0, 67, 80
1, 221039, Note_on_c, 0, 88, 0
1, 221039, Note_on_c, 0, 79, 0
1, 221039, Note_on_c, 0, 70, 0
1, 221039, Note_on_c, 0, 67, 0
1, 221040, Note_on_c, 0, 88, 80
1, 221040, Note_on_c, 0, 79, 80
1, 221040, Note_on_c, 0, 76, 80
1, 221279, Note_on_c, 0, 88, 0
1, 221279, Note_on_c, 0, 79, 0
1, 221279, Note_on_c, 0, 76, 0
1, 221280, Note_on_c, 0, 88, 80
1, 221280, Note_on_c, 0, 79, 80
1, 221280, Note_on_c, 0, 76, 80
1, 221519, Note_on_c, 0, 88, 0
1, 221519, Note_on_c, 0, 79, 0
1, 221519, Note_on_c, 0, 76, 0
1, 221520, Note_on_c, 0, 88, 80
1, 221520, Note_on_c, 0, 79, 80
1, 221520, Note_on_c, 0, 76, 80
1, 221759, Note_on_c, 0, 88, 0
1, 221759, Note_on_c, 0, 79, 0
1, 221759, Note_on_c, 0, 76, 0
1, 221760, Note_on_c, 0, 88, 80
1, 221760, Note_on_c, 0, 79, 80
1, 221760, Note_on_c, 0, 76, 80
1, 221999, Note_on_c, 0, 88, 0
1, 221999, Note_on_c, 0, 79, 0
1, 221999, Note_on_c, 0, 76, 0
1, 222000, Note_on_c, 0, 88, 80
1, 222000, Note_on_c, 0, 79, 80
1, 222000, Note_on_c, 0, 76, 80
1, 222239, Note_on_c, 0, 88, 0
1, 222239, Note_on_c, 0, 79, 0
1, 222239, Note_on_c, 0, 76, 0
1, 222240, Note_on_c, 0, 87, 80
1, 222240, Note_on_c, 0, 79, 80
1, 222240, Note_on_c, 0, 75, 80
1, 222479, Note_on_c, 0, 87, 0
1, 222479, Note_on_c, 0, 79, 0
1, 222479, Note_on_c, 0, 75, 0
1, 222480, Note_on_c, 0, 85, 80
1, 222480, Note_on_c, 0, 79, 80
1, 222480, Note_on_c, 0, 73, 80
1, 222719, Note_on_c, 0, 85, 0
1, 222719, Note_on_c, 0, 79, 0
1, 222719, Note_on_c, 0, 73, 0
1, 222720, Note_on_c, 0, 83, 80
1, 222720, Note_on_c, 0, 80, 80
1, 222720, Note_on_c, 0, 71, 80
1, 222959, Note_on_c, 0, 83, 0
1, 222959, Note_on_c, 0, 80, 0
1, 222959, Note_on_c, 0, 71, 0
1, 222960, Note_on_c, 0, 83, 80
1, 222960, Note_on_c, 0, 80, 80
1, 223199, Note_on_c, 0, 83, 0
1, 223199, Note_on_c, 0, 80, 0
1, 223200, Note_on_c, 0, 83, 80
1, 223200, Note_on_c, 0, 80, 80
1, 223439, Note_on_c, 0, 83, 0
1, 223439, Note_on_c, 0, 80, 0
1, 223440, Note_on_c, 0, 87, 80
1, 223440, Note_on_c, 0, 83, 80
1, 223679, Note_on_c, 0, 87, 0
1, 223679, Note_on_c, 0, 83, 0
1, 223920, Note_on_c, 0, 85, 80
1, 223920, Note_on_c, 0, 80, 80
1, 224159, Note_on_c, 0, 85, 0
1, 224159, Note_on_c, 0, 80, 0
1, 224160, Note_on_c, 0, 85, 80
1, 224160, Note_on_c, 0, 80, 80
1, 224399, Note_on_c, 0, 85, 0
1, 224399, Note_on_c, 0, 80, 0
1, 224400, Note_on_c, 0, 88, 80
1, 224400, Note_on_c, 0, 85, 80
1, 224639, Note_on_c, 0, 88, 0
1, 224639, Note_on_c, 0, 85, 0
1, 224880, Note_on_c, 0, 83, 80
1, 224880, Note_on_c, 0, 80, 80
1, 224999, Note_on_c, 0, 83, 0
1, 224999, Note_on_c, 0, 80, 0
1, 225120, Note_on_c, 0, 83, 80
1, 225120, Note_on_c, 0, 80, 80
1, 225359, Note_on_c, 0, 83, 0
1, 225359, Note_on_c, 0, 80, 0
1, 225360, Note_on_c, 0, 87, 80
1, 225360, Note_on_c, 0, 83, 80
1, 225599, Note_on_c, 0, 87, 0
1, 225599, Note_on_c, 0, 83, 0
1, 225840, Note_on_c, 0, 82, 80
1, 225840, Note_on_c, 0, 79, 80
1, 225959, Note_on_c, 0, 82, 0
1, 225959, Note_on_c, 0, 79, 0
1, 226080, Note_on_c, 0, 82, 80
1, 226080, Note_on_c, 0, 79, 80
1, 226319, Note_on_c, 0, 82, 0
1, 226319, Note_on_c, 0, 79, 0
1, 226320, Note_on_c, 0, 87, 80
1, 226320, Note_on_c, 0, 82, 80
1, 226559, Note_on_c, 0, 87, 0
1, 226559, Note_on_c, 0, 82, 0
1, 226800, Note_on_c, 0, 83, 80
1, 226800, Note_on_c, 0, 75, 80
1, 226919, Note_on_c, 0, 83, 0
1, 226919, Note_on_c, 0, 75, 0
1, 227040, Note_on_c, 0, 83, 80
1, 227040, Note_on_c, 0, 75, 80
1, 227279, Note_on_c, 0, 83, 0
1, 227279, Note_on_c, 0, 75, 0
1, 227280, Note_on_c, 0, 87, 80
1, 227280, Note_on_c, 0, 80, 80
1, 227519, Note_on_c, 0, 87, 0
1, 227519, Note_on_c, 0, 80, 0
1, 227760, Note_on_c, 0, 81, 80
1, 227760, Note_on_c, 0, 73, 80
1, 227879, Note_on_c, 0, 81, 0
1, 227879, Note_on_c, 0, 73, 0
1, 228000, Note_on_c, 0, 81, 80
1, 228000, Note_on_c, 0, 73, 80
1, 228239, Note_on_c, 0, 81, 0
1, 228239, Note_on_c, 0, 73, 0
1, 228240, Note_on_c, 0, 85, 80
1, 228240, Note_on_c, 0, 76, 80
1, 228479, Note_on_c, 0, 85, 0
1, 228479, Note_on_c, 0, 76, 0
1, 228720, Note_on_c, 0, 80, 80
1, 228720, Note_on_c, 0, 71, 80
1, 228839, Note_on_c, 0, 80, 0
1, 228839, Note_on_c, 0, 71, 0
1, 228960, Note_on_c, 0, 80, 80
1, 228960, Note_on_c, 0, 71, 80
1, 229199, Note_on_c, 0, 80, 0
1, 229199, Note_on_c, 0, 71, 0
1, 229200, Note_on_c, 0, 83, 80
1, 229200, Note_on_c, 0, 75, 80
1, 229439, Note_on_c, 0, 83, 0
1, 229439, Note_on_c, 0, 75, 0
1, 229680, Note_on_c, 0, 79, 80
1, 229680, Note_on_c, 0, 70, 80
1, 229799, Note_on_c, 0, 79, 0
1, 229799, Note_on_c, 0, 70, 0
1, 229920, Note_on_c, 0, 79, 80
1, 229920, Note_on_c, 0, 70, 80
1, 230159, Note_on_c, 0, 79, 0
1, 230159, Note_on_c, 0, 70, 0
1, 230160, Note_on_c, 0, 82, 80
1, 230160, Note_on_c, 0, 73, 80
1, 230399, Note_on_c, 0, 82, 0
1, 230399, Note_on_c, 0, 73, 0
1, 230400, Note_on_c, 0, 80, 80
1, 230400, Note_on_c, 0, 71, 80
1, 230879, Note_on_c, 0, 80, 0
1, 230879, Note_on_c, 0, 71, 0
1, 231840, Note_on_c, 0, 71, 80
1, 232199, Note_on_c, 0, 71, 0
1, 232200, Note_on_c, 0, 68, 80
1, 232319, Note_on_c, 0, 68, 0
1, 232320, Note_on_c, 0, 67, 80
1, 232799, Note_on_c, 0, 67, 0
1, 232800, Note_on_c, 0, 75, 80
1, 232800, Note_on_c, 0, 67, 80
1, 232800, Note_on_c, 0, 61, 80
1, 233039, Note_on_c, 0, 75, 0
1, 233039, Note_on_c, 0, 67, 0
1, 233039, Note_on_c, 0, 61, 0
1, 233280, Note_on_c, 0, 75, 80
1, 233280, Note_on_c, 0, 67, 80
1, 233280, Note_on_c, 0, 61, 80
1, 233519, Note_on_c, 0, 75, 0
1, 233519, Note_on_c, 0, 67, 0
1, 233519, Note_on_c, 0, 61, 0
1, 233760, Note_on_c, 0, 75, 80
1, 233760, Note_on_c, 0, 67, 80
1, 233760, Note_on_c, 0, 61, 80
1, 233879, Note_on_c, 0, 75, 0
1, 233879, Note_on_c, 0, 67, 0
1, 233879, Note_on_c, 0, 61, 0
1, 234000, Note_on_c, 0, 59, 80
1, 234119, Note_on_c, 0, 59, 0
1, 234120, Note_on_c, 0, 68, 80
1, 234239, Note_on_c, 0, 68, 0
1, 234240, Note_on_c, 0, 75, 80
1, 235679, Note_on_c, 0, 75, 0
1, 235680, Note_on_c, 0, 83, 80
1, 236039, Note_on_c, 0, 83, 0
1, 236040, Note_on_c, 0, 80, 80
1, 236159, Note_on_c, 0, 80, 0
1, 236160, Note_on_c, 0, 79, 80
1, 236639, Note_on_c, 0, 79, 0
1, 236640, Note_on_c, 0, 87, 80
1, 236640, Note_on_c, 0, 79, 80
1, 236640, Note_on_c, 0, 73, 80
1, 236879, Note_on_c, 0, 87, 0
1, 236879, Note_on_c, 0, 79, 0
1, 236879, Note_on_c, 0, 73, 0
1, 237120, Note_on_c, 0, 87, 80
1, 237120, Note_on_c, 0, 79, 80
1, 237120, Note_on_c, 0, 73, 80
1, 237359, Note_on_c, 0, 87, 0
1, 237359, Note_on_c, 0, 79, 0
1, 237359, Note_on_c, 0, 73, 0
1, 237600, Note_on_c, 0, 87, 80
1, 237600, Note_on_c, 0, 79, 80
1, 237600, Note_on_c, 0, 73, 80
1, 237719, Note_on_c, 0, 87, 0
1, 237719, Note_on_c, 0, 79, 0
1, 237719, Note_on_c, 0, 73, 0
1, 237840, Note_on_c, 0, 71, 80
1, 237959, Note_on_c, 0, 71, 0
1, 237960, Note_on_c, 0, 80, 80
1, 238079, Note_on_c, 0, 80, 0
1, 238080, Note_on_c, 0, 87, 80
1, 238799, Note_on_c, 0, 87, 0
1, 238800, Note_on_c, 0, 73, 80
1, 238919, Note_on_c, 0, 73, 0
1, 238920, Note_on_c, 0, 79, 80
1, 239039, Note_on_c, 0, 79, 0
1, 239040, Note_on_c, 0, 87, 80
1, 239759, Note_on_c, 0, 87, 0
1, 239760, Note_on_c, 0, 71, 80
1, 239879, Note_on_c, 0, 71, 0
1, 239880, Note_on_c, 0, 80, 80
1, 239999, Note_on_c, 0, 80, 0
1, 240000, Note_on_c, 0, 87, 80
1, 240719, Note_on_c, 0, 87, 0
1, 240720, Note_on_c, 0, 73, 80
1, 240839, Note_on_c, 0, 73, 0
1, 240840, Note_on_c, 0, 79, 80
1, 240959, Note_on_c, 0, 79, 0
1, 240960, Note_on_c, 0, 87, 80
1, 241919, Note_on_c, 0, 87, 0
1, 241920, Note_on_c, 0, 59, 80
1, 242039, Note_on_c, 0, 59, 0
1, 242040, Note_on_c, 0, 68, 80
1, 242159, Note_on_c, 0, 68, 0
1, 242160, Note_on_c, 0, 63, 80
1, 242279, Note_on_c, 0, 63, 0
1, 242280, Note_on_c, 0, 68, 80
1, 242399, Note_on_c, 0, 68, 0
1, 242400, Note_on_c, 0, 59, 80
1, 242519, Note_on_c, 0, 59, 0
1, 242520, Note_on_c, 0, 68, 80
1, 242639, Note_on_c, 0, 68, 0
1, 242640, Note_on_c, 0, 63, 80
1, 242759, Note_on_c, 0, 63, 0
1, 242760, Note_on_c, 0, 68, 80
1, 242879, Note_on_c, 0, 68, 0
1, 242880, Note_on_c, 0, 59, 80
1, 242999, Note_on_c, 0, 59, 0
1, 243000, Note_on_c, 0, 68, 80
1, 243119, Note_on_c, 0, 68, 0
1, 243120, Note_on_c, 0, 63, 80
1, 243239, Note_on_c, 0, 63, 0
1, 243240, Note_on_c, 0, 68, 80
1, 243359, Note_on_c, 0, 68, 0
1, 243360, Note_on_c, 0, 59, 80
1, 243479, Note_on_c, 0, 59, 0
1, 243480, Note_on_c, 0, 68, 80
1, 243599, Note_on_c, 0, 68, 0
1, 243600, Note_on_c, 0, 63, 80
1, 243719, Note_on_c, 0, 63, 0
1, 243720, Note_on_c, 0, 68, 80
1, 243839, Note_on_c, 0, 68, 0
1, 243840, Note_on_c, 0, 60, 80
1, 243959, Note_on_c, 0, 60, 0
1, 243960, Note_on_c, 0, 66, 80
1, 244079, Note_on_c, 0, 66, 0
1, 244080, Note_on_c, 0, 63, 80
1, 244199, Note_on_c, 0, 63, 0
1, 244200, Note_on_c, 0, 66, 80
1, 244319, Note_on_c, 0, 66, 0
1, 244320, Note_on_c, 0, 60, 80
1, 244439, Note_on_c, 0, 60, 0
1, 244440, Note_on_c, 0, 66, 80
1, 244559, Note_on_c, 0, 66, 0
1, 244560, Note_on_c, 0, 63, 80
1, 244679, Note_on_c, 0, 63, 0
1, 244680, Note_on_c, 0, 66, 80
1, 244799, Note_on_c, 0, 66, 0
1, 244800, Note_on_c, 0, 60, 80
1, 244919, Note_on_c, 0, 60, 0
1, 244920, Note_on_c, 0, 66, 80
1, 245039, Note_on_c, 0, 66, 0
1, 245040, Note_on_c, 0, 63, 80
1, 245159, Note_on_c, 0, 63, 0
1, 245160, Note_on_c, 0, 66, 80
1, 245279, Note_on_c, 0, 66, 0
1, 245280, Note_on_c, 0, 60, 80
1, 245399, Note_on_c, 0, 60, 0
1, 245400, Note_on_c, 0, 66, 80
1, 245519, Note_on_c, 0, 66, 0
1, 245520, Note_on_c, 0, 63, 80
1, 245639, Note_on_c, 0, 63, 0
1, 245640, Note_on_c, 0, 66, 80
1, 245759, Note_on_c, 0, 66, 0
1, 245760, Note_on_c, 0, 64, 80
1, 245760, Note_on_c, 0, 61, 80
1, 245879, Note_on_c, 0, 64, 0
1, 245879, Note_on_c, 0, 61, 0
1, 247200, Note_on_c, 0, 68, 80
1, 247319, Note_on_c, 0, 68, 0
1, 247320, Note_on_c, 0, 61, 80
1, 247439, Note_on_c, 0, 61, 0
1, 247440, Note_on_c, 0, 65, 80
1, 247559, Note_on_c, 0, 65, 0
1, 247560, Note_on_c, 0, 68, 80
1, 247679, Note_on_c, 0, 68, 0
1, 247680, Note_on_c, 0, 73, 80
1, 247799, Note_on_c, 0, 73, 0
1, 247800, Note_on_c, 0, 65, 80
1, 247919, Note_on_c, 0, 65, 0
1, 247920, Note_on_c, 0, 68, 80
1, 248039, Note_on_c, 0, 68, 0
1, 248040, Note_on_c, 0, 73, 80
1, 248159, Note_on_c, 0, 73, 0
1, 248160, Note_on_c, 0, 77, 80
1, 248279, Note_on_c, 0, 77, 0
1, 248280, Note_on_c, 0, 68, 80
1, 248399, Note_on_c, 0, 68, 0
1, 248400, Note_on_c, 0, 73, 80
1, 248519, Note_on_c, 0, 73, 0
1, 248520, Note_on_c, 0, 77, 80
1, 248639, Note_on_c, 0, 77, 0
1, 248640, Note_on_c, 0, 80, 80
1, 248759, Note_on_c, 0, 80, 0
1, 248760, Note_on_c, 0, 73, 80
1, 248879, Note_on_c, 0, 73, 0
1, 248880, Note_on_c, 0, 77, 80
1, 248999, Note_on_c, 0, 77, 0
1, 249000, Note_on_c, 0, 80, 80
1, 249119, Note_on_c, 0, 80, 0
1, 249120, Note_on_c, 0, 85, 80
1, 249120, Note_on_c, 0, 80, 80
1, 249120, Note_on_c, 0, 76, 80
1, 249120, Note_on_c, 0, 73, 80
1, 249359, Note_on_c, 0, 85, 0
1, 249359, Note_on_c, 0, 80, 0
1, 249359, Note_on_c, 0, 76, 0
1, 249359, Note_on_c, 0, 73, 0
1, 249360, Note_on_c, 0, 85, 80
1, 249360, Note_on_c, 0, 80, 80
1, 249360, Note_on_c, 0, 76, 80
1, 249360, Note_on_c, 0, 73, 80
1, 249479, Note_on_c, 0, 85, 0
1, 249479, Note_on_c, 0, 80, 0
1, 249479, Note_on_c, 0, 76, 0
1, 249479, Note_on_c, 0, 73, 0
1, 250560, Note_on_c, 0, 65, 80
1, 250679, Note_on_c, 0, 65, 0
1, 250680, Note_on_c, 0, 56, 80
1, 250799, Note_on_c, 0, 56, 0
1, 250800, Note_on_c, 0, 61, 80
1, 250919, Note_on_c, 0, 61, 0
1, 250920, Note_on_c, 0, 65, 80
1, 251039, Note_on_c, 0, 65, 0
1, 251040, Note_on_c, 0, 68, 80
1, 251159, Note_on_c, 0, 68, 0
1, 251160, Note_on_c, 0, 61, 80
1, 251279, Note_on_c, 0, 61, 0
1, 251280, Note_on_c, 0, 65, 80
1, 251399, Note_on_c, 0, 65, 0
1, 251400, Note_on_c, 0, 68, 80
1, 251519, Note_on_c, 0, 68, 0
1, 251520, Note_on_c, 0, 73, 80
1, 251639, Note_on_c, 0, 73, 0
1, 251640, Note_on_c, 0, 65, 80
1, 251759, Note_on_c, 0, 65, 0
1, 251760, Note_on_c, 0, 68, 80
1, 251879, Note_on_c, 0, 68, 0
1, 251880, Note_on_c, 0, 73, 80
1, 251999, Note_on_c, 0, 73, 0
1, 252000, Note_on_c, 0, 77, 80
1, 252119, Note_on_c, 0, 77, 0
1, 252120, Note_on_c, 0, 68, 80
1, 252239, Note_on_c, 0, 68, 0
1, 252240, Note_on_c, 0, 73, 80
1, 252359, Note_on_c, 0, 73, 0
1, 252360, Note_on_c, 0, 77, 80
1, 252479, Note_on_c, 0, 77, 0
1, 252480, Note_on_c, 0, 80, 80
1, 252599, Note_on_c, 0, 80, 0
1, 252600, Note_on_c, 0, 73, 80
1, 252719, Note_on_c, 0, 73, 0
1, 252720, Note_on_c, 0, 76, 80
1, 252839, Note_on_c, 0, 76, 0
1, 252840, Note_on_c, 0, 80, 80
1, 252959, Note_on_c, 0, 80, 0
1, 252960, Note_on_c, 0, 85, 80
1, 252960, Note_on_c, 0, 80, 80
1, 252960, Note_on_c, 0, 76, 80
1, 252960, Note_on_c, 0, 73, 80
1, 253199, Note_on_c, 0, 85, 0
1, 253199, Note_on_c, 0, 80, 0
1, 253199, Note_on_c, 0, 76, 0
1, 253199, Note_on_c, 0, 73, 0
1, 253200, Note_on_c, 0, 85, 80
1, 253200, Note_on_c, 0, 80, 80
1, 253200, Note_on_c, 0, 76, 80
1, 253200, Note_on_c, 0, 73, 80
1, 253319, Note_on_c, 0, 85, 0
1, 253319, Note_on_c, 0, 80, 0
1, 253319, Note_on_c, 0, 76, 0
1, 253319, Note_on_c, 0, 73, 0
1, 253920, Note_on_c, 0, 61, 80
1, 253979, Note_on_c, 0, 61, 0
1, 254040, Note_on_c, 0, 61, 80
1, 254159, Note_on_c, 0, 61, 0
1, 254160, Note_on_c, 0, 66, 80
1, 254279, Note_on_c, 0, 66, 0
1, 254280, Note_on_c, 0, 69, 80
1, 254399, Note_on_c, 0, 69, 0
1, 254400, Note_on_c, 0, 73, 80
1, 254459, Note_on_c, 0, 73, 0
1, 254520, Note_on_c, 0, 73, 80
1, 254639, Note_on_c, 0, 73, 0
1, 254640, Note_on_c, 0, 78, 80
1, 254759, Note_on_c, 0, 78, 0
1, 254760, Note_on_c, 0, 81, 80
1, 254879, Note_on_c, 0, 81, 0
1, 254880, Note_on_c, 0, 85, 80
1, 254880, Note_on_c, 0, 81, 80
1, 254880, Note_on_c, 0, 78, 80
1, 254880, Note_on_c, 0, 73, 80
1, 255119, Note_on_c, 0, 85, 0
1, 255119, Note_on_c, 0, 81, 0
1, 255119, Note_on_c, 0, 78, 0
1, 255119, Note_on_c, 0, 73, 0
1, 255120, Note_on_c, 0, 85, 80
1, 255120, Note_on_c, 0, 81, 80
1, 255120, Note_on_c, 0, 78, 80
1, 255120, Note_on_c, 0, 73, 80
1, 255239, Note_on_c, 0, 85, 0
1, 255239, Note_on_c, 0, 81, 0
1, 255239, Note_on_c, 0, 78, 0
1, 255239, Note_on_c, 0, 73, 0
1, 255840, Note_on_c, 0, 61, 80
1, 255899, Note_on_c, 0, 61, 0
1, 255960, Note_on_c, 0, 61, 80
1, 256079, Note_on_c, 0, 61, 0
1, 256080, Note_on_c, 0, 68, 80
1, 256199, Note_on_c, 0, 68, 0
1, 256200, Note_on_c, 0, 71, 80
1, 256319, Note_on_c, 0, 71, 0
1, 256320, Note_on_c, 0, 73, 80
1, 256379, Note_on_c, 0, 73, 0
1, 256440, Note_on_c, 0, 73, 80
1, 256559, Note_on_c, 0, 73, 0
1, 256560, Note_on_c, 0, 80, 80
1, 256679, Note_on_c, 0, 80, 0
1, 256680, Note_on_c, 0, 83, 80
1, 256799, Note_on_c, 0, 83, 0
1, 256800, Note_on_c, 0, 85, 80
1, 256800, Note_on_c, 0, 83, 80
1, 256800, Note_on_c, 0, 80, 80
1, 256800, Note_on_c, 0, 73, 80
1, 257039, Note_on_c, 0, 85, 0
1, 257039, Note_on_c, 0, 83, 0
1, 257039, Note_on_c, 0, 80, 0
1, 257039, Note_on_c, 0, 73, 0
1, 257040, Note_on_c, 0, 85, 80
1, 257040, Note_on_c, 0, 83, 80
1, 257040, Note_on_c, 0, 80, 80
1, 257040, Note_on_c, 0, 73, 80
1, 257159, Note_on_c, 0, 85, 0
1, 257159, Note_on_c, 0, 83, 0
1, 257159, Note_on_c, 0, 80, 0
1, 257159, Note_on_c, 0, 73, 0
1, 257280, Note_on_c, 0, 85, 80
1, 257280, Note_on_c, 0, 81, 80
1, 257280, Note_on_c, 0, 78, 80
1, 257280, Note_on_c, 0, 73, 80
1, 257519, Note_on_c, 0, 85, 0
1, 257519, Note_on_c, 0, 81, 0
1, 257519, Note_on_c, 0, 78, 0
1, 257519, Note_on_c, 0, 73, 0
1, 257760, Note_on_c, 0, 73, 80
1, 258719, Note_on_c, 0, 73, 0
1, 258720, Note_on_c, 0, 69, 80
1, 259079, Note_on_c, 0, 69, 0
1, 259080, Note_on_c, 0, 66, 80
1, 259109, Note_on_c, 0, 66, 0
1, 259110, Note_on_c, 0, 65, 80
1, 259139, Note_on_c, 0, 65, 0
1, 259140, Note_on_c, 0, 66, 80
1, 259169, Note_on_c, 0, 66, 0
1, 259170, Note_on_c, 0, 68, 80
1, 259199, Note_on_c, 0, 68, 0
1, 259200, Note_on_c, 0, 66, 80
1, 259679, Note_on_c, 0, 66, 0
1, 259680, Note_on_c, 0, 65, 80
1, 260399, Note_on_c, 0, 65, 0
1, 260400, Note_on_c, 0, 65, 80
1, 260639, Note_on_c, 0, 65, 0
1, 260640, Note_on_c, 0, 73, 80
1, 260999, Note_on_c, 0, 73, 0
1, 261000, Note_on_c, 0, 65, 80
1, 261119, Note_on_c, 0, 65, 0
1, 261120, Note_on_c, 0, 68, 80
1, 261599, Note_on_c, 0, 68, 0
1, 261600, Note_on_c, 0, 66, 80
1, 262319, Note_on_c, 0, 66, 0
1, 262320, Note_on_c, 0, 66, 80
1, 262559, Note_on_c, 0, 66, 0
1, 262560, Note_on_c, 0, 73, 80
1, 262919, Note_on_c, 0, 73, 0
1, 262920, Note_on_c, 0, 66, 80
1, 263039, Note_on_c, 0, 66, 0
1, 263040, Note_on_c, 0, 69, 80
1, 263519, Note_on_c, 0, 69, 0
1, 263520, Note_on_c, 0, 68, 80
1, 264239, Note_on_c, 0, 68, 0
1, 264240, Note_on_c, 0, 68, 80
1, 264479, Note_on_c, 0, 68, 0
1, 264480, Note_on_c, 0, 73, 80
1, 264839, Note_on_c, 0, 73, 0
1, 264840, Note_on_c, 0, 68, 80
1, 264959, Note_on_c, 0, 68, 0
1, 264960, Note_on_c, 0, 69, 80
1, 265079, Note_on_c, 0, 69, 0
1, 265080, Note_on_c, 0, 73, 80
1, 265199, Note_on_c, 0, 73, 0
1, 265200, Note_on_c, 0, 69, 80
1, 265319, Note_on_c, 0, 69, 0
1, 265320, Note_on_c, 0, 73, 80
1, 265439, Note_on_c, 0, 73, 0
1, 265440, Note_on_c, 0, 66, 80
1, 265559, Note_on_c, 0, 66, 0
1, 265560, Note_on_c, 0, 73, 80
1, 265679, Note_on_c, 0, 73, 0
1, 265680, Note_on_c, 0, 69, 80
1, 265799, Note_on_c, 0, 69, 0
1, 265800, Note_on_c, 0, 73, 80
1, 265919, Note_on_c, 0, 73, 0
1, 265920, Note_on_c, 0, 66, 80
1, 266039, Note_on_c, 0, 66, 0
1, 266040, Note_on_c, 0, 73, 80
1, 266159, Note_on_c, 0, 73, 0
1, 266160, Note_on_c, 0, 69, 80
1, 266279, Note_on_c, 0, 69, 0
1, 266280, Note_on_c, 0, 73, 80
1, 266399, Note_on_c, 0, 73, 0
1, 266400, Note_on_c, 0, 66, 80
1, 266519, Note_on_c, 0, 66, 0
1, 266520, Note_on_c, 0, 73, 80
1, 266639, Note_on_c, 0, 73, 0
1, 266640, Note_on_c, 0, 69, 80
1, 266759, Note_on_c, 0, 69, 0
1, 266760, Note_on_c, 0, 73, 80
1, 266879, Note_on_c, 0, 73, 0
1, 266880, Note_on_c, 0, 68, 80
1, 266999, Note_on_c, 0, 68, 0
1, 267000, Note_on_c, 0, 73, 80
1, 267119, Note_on_c, 0, 73, 0
1, 267120, Note_on_c, 0, 71, 80
1, 267239, Note_on_c, 0, 71, 0
1, 267240, Note_on_c, 0, 73, 80
1, 267359, Note_on_c, 0, 73, 0
1, 267360, Note_on_c, 0, 68, 80
1, 267479, Note_on_c, 0, 68, 0
1, 267480, Note_on_c, 0, 73, 80
1, 267599, Note_on_c, 0, 73, 0
1, 267600, Note_on_c, 0, 71, 80
1, 267719, Note_on_c, 0, 71, 0
1, 267720, Note_on_c, 0, 73, 80
1, 267839, Note_on_c, 0, 73, 0
1, 267840, Note_on_c, 0, 68, 80
1, 267959, Note_on_c, 0, 68, 0
1, 267960, Note_on_c, 0, 73, 80
1, 268079, Note_on_c, 0, 73, 0
1, 268080, Note_on_c, 0, 71, 80
1, 268199, Note_on_c, 0, 71, 0
1, 268200, Note_on_c, 0, 73, 80
1, 268319, Note_on_c, 0, 73, 0
1, 268320, Note_on_c, 0, 68, 80
1, 268439, Note_on_c, 0, 68, 0
1, 268440, Note_on_c, 0, 73, 80
1, 268559, Note_on_c, 0, 73, 0
1, 268560, Note_on_c, 0, 71, 80
1, 268679, Note_on_c, 0, 71, 0
1, 268680, Note_on_c, 0, 73, 80
1, 268799, Note_on_c, 0, 73, 0
1, 268800, Note_on_c, 0, 66, 80
1, 268919, Note_on_c, 0, 66, 0
1, 268920, Note_on_c, 0, 73, 80
1, 269039, Note_on_c, 0, 73, 0
1, 269040, Note_on_c, 0, 69, 80
1, 269159, Note_on_c, 0, 69, 0
1, 269160, Note_on_c, 0, 73, 80
1, 269279, Note_on_c, 0, 73, 0
1, 269280, Note_on_c, 0, 66, 80
1, 269399, Note_on_c, 0, 66, 0
1, 269400, Note_on_c, 0, 73, 80
1, 269519, Note_on_c, 0, 73, 0
1, 269520, Note_on_c, 0, 69, 80
1, 269639, Note_on_c, 0, 69, 0
1, 269640, Note_on_c, 0, 73, 80
1, 269759, Note_on_c, 0, 73, 0
1, 269760, Note_on_c, 0, 66, 80
1, 269879, Note_on_c, 0, 66, 0
1, 269880, Note_on_c, 0, 73, 80
1, 269999, Note_on_c, 0, 73, 0
1, 270000, Note_on_c, 0, 69, 80
1, 270119, Note_on_c, 0, 69, 0
1, 270120, Note_on_c, 0, 73, 80
1, 270239, Note_on_c, 0, 73, 0
1, 270240, Note_on_c, 0, 66, 80
1, 270359, Note_on_c, 0, 66, 0
1, 270360, Note_on_c, 0, 73, 80
1, 270479, Note_on_c, 0, 73, 0
1, 270480, Note_on_c, 0, 69, 80
1, 270599, Note_on_c, 0, 69, 0
1, 270600, Note_on_c, 0, 73, 80
1, 270719, Note_on_c, 0, 73, 0
1, 270720, Note_on_c, 0, 66, 80
1, 270839, Note_on_c, 0, 66, 0
1, 270840, Note_on_c, 0, 74, 80
1, 270959, Note_on_c, 0, 74, 0
1, 270960, Note_on_c, 0, 69, 80
1, 271079, Note_on_c, 0, 69, 0
1, 271080, Note_on_c, 0, 74, 80
1, 271199, Note_on_c, 0, 74, 0
1, 271200, Note_on_c, 0, 66, 80
1, 271319, Note_on_c, 0, 66, 0
1, 271320, Note_on_c, 0, 74, 80
1, 271439, Note_on_c, 0, 74, 0
1, 271440, Note_on_c, 0, 69, 80
1, 271559, Note_on_c, 0, 69, 0
1, 271560, Note_on_c, 0, 74, 80
1, 271679, Note_on_c, 0, 74, 0
1, 271680, Note_on_c, 0, 69, 80
1, 271799, Note_on_c, 0, 69, 0
1, 271800, Note_on_c, 0, 74, 80
1, 271919, Note_on_c, 0, 74, 0
1, 271920, Note_on_c, 0, 72, 80
1, 272039, Note_on_c, 0, 72, 0
1, 272040, Note_on_c, 0, 74, 80
1, 272159, Note_on_c, 0, 74, 0
1, 272160, Note_on_c, 0, 69, 80
1, 272279, Note_on_c, 0, 69, 0
1, 272280, Note_on_c, 0, 74, 80
1, 272399, Note_on_c, 0, 74, 0
1, 272400, Note_on_c, 0, 72, 80
1, 272519, Note_on_c, 0, 72, 0
1, 272520, Note_on_c, 0, 74, 80
1, 272639, Note_on_c, 0, 74, 0
1, 272640, Note_on_c, 0, 67, 80
1, 272759, Note_on_c, 0, 67, 0
1, 272760, Note_on_c, 0, 74, 80
1, 272879, Note_on_c, 0, 74, 0
1, 272880, Note_on_c, 0, 71, 80
1, 272999, Note_on_c, 0, 71, 0
1, 273000, Note_on_c, 0, 74, 80
1, 273119, Note_on_c, 0, 74, 0
1, 273120, Note_on_c, 0, 67, 80
1, 273239, Note_on_c, 0, 67, 0
1, 273240, Note_on_c, 0, 74, 80
1, 273359, Note_on_c, 0, 74, 0
1, 273360, Note_on_c, 0, 71, 80
1, 273479, Note_on_c, 0, 71, 0
1, 273480, Note_on_c, 0, 74, 80
1, 273599, Note_on_c, 0, 74, 0
1, 273600, Note_on_c, 0, 67, 80
1, 273719, Note_on_c, 0, 67, 0
1, 273720, Note_on_c, 0, 74, 80
1, 273839, Note_on_c, 0, 74, 0
1, 273840, Note_on_c, 0, 71, 80
1, 273959, Note_on_c, 0, 71, 0
1, 273960, Note_on_c, 0, 74, 80
1, 274079, Note_on_c, 0, 74, 0
1, 274080, Note_on_c, 0, 67, 80
1, 274199, Note_on_c, 0, 67, 0
1, 274200, Note_on_c, 0, 74, 80
1, 274319, Note_on_c, 0, 74, 0
1, 274320, Note_on_c, 0, 71, 80
1, 274439, Note_on_c, 0, 71, 0
1, 274440, Note_on_c, 0, 74, 80
1, 274559, Note_on_c, 0, 74, 0
1, 274560, Note_on_c, 0, 69, 80
1, 274679, Note_on_c, 0, 69, 0
1, 274680, Note_on_c, 0, 74, 80
1, 274799, Note_on_c, 0, 74, 0
1, 274800, Note_on_c, 0, 72, 80
1, 274919, Note_on_c, 0, 72, 0
1, 274920, Note_on_c, 0, 74, 80
1, 275039, Note_on_c, 0, 74, 0
1, 275040, Note_on_c, 0, 69, 80
1, 275159, Note_on_c, 0, 69, 0
1, 275160, Note_on_c, 0, 74, 80
1, 275279, Note_on_c, 0, 74, 0
1, 275280, Note_on_c, 0, 72, 80
1, 275399, Note_on_c, 0, 72, 0
1, 275400, Note_on_c, 0, 74, 80
1, 275519, Note_on_c, 0, 74, 0
1, 275520, Note_on_c, 0, 69, 80
1, 275639, Note_on_c, 0, 69, 0
1, 275640, Note_on_c, 0, 74, 80
1, 275759, Note_on_c, 0, 74, 0
1, 275760, Note_on_c, 0, 72, 80
1, 275879, Note_on_c, 0, 72, 0
1, 275880, Note_on_c, 0, 74, 80
1, 275999, Note_on_c, 0, 74, 0
1, 276000, Note_on_c, 0, 69, 80
1, 276119, Note_on_c, 0, 69, 0
1, 276120, Note_on_c, 0, 74, 80
1, 276239, Note_on_c, 0, 74, 0
1, 276240, Note_on_c, 0, 72, 80
1, 276359, Note_on_c, 0, 72, 0
1, 276360, Note_on_c, 0, 74, 80
1, 276479, Note_on_c, 0, 74, 0
1, 276480, Note_on_c, 0, 67, 80
1, 276599, Note_on_c, 0, 67, 0
1, 276600, Note_on_c, 0, 74, 80
1, 276719, Note_on_c, 0, 74, 0
1, 276720, Note_on_c, 0, 71, 80
1, 276839, Note_on_c, 0, 71, 0
1, 276840, Note_on_c, 0, 74, 80
1, 276959, Note_on_c, 0, 74, 0
1, 276960, Note_on_c, 0, 67, 80
1, 277079, Note_on_c, 0, 67, 0
1, 277080, Note_on_c, 0, 74, 80
1, 277199, Note_on_c, 0, 74, 0
1, 277200, Note_on_c, 0, 71, 80
1, 277319, Note_on_c, 0, 71, 0
1, 277320, Note_on_c, 0, 74, 80
1, 277439, Note_on_c, 0, 74, 0
1, 277440, Note_on_c, 0, 67, 80
1, 277559, Note_on_c, 0, 67, 0
1, 277560, Note_on_c, 0, 74, 80
1, 277679, Note_on_c, 0, 74, 0
1, 277680, Note_on_c, 0, 71, 80
1, 277799, Note_on_c, 0, 71, 0
1, 277800, Note_on_c, 0, 74, 80
1, 277919, Note_on_c, 0, 74, 0
1, 277920, Note_on_c, 0, 66, 80
1, 278039, Note_on_c, 0, 66, 0
1, 278040, Note_on_c, 0, 74, 80
1, 278159, Note_on_c, 0, 74, 0
1, 278160, Note_on_c, 0, 71, 80
1, 278279, Note_on_c, 0, 71, 0
1, 278280, Note_on_c, 0, 74, 80
1, 278399, Note_on_c, 0, 74, 0
1, 278400, Note_on_c, 0, 68, 80
1, 278519, Note_on_c, 0, 68, 0
1, 278520, Note_on_c, 0, 74, 80
1, 278639, Note_on_c, 0, 74, 0
1, 278640, Note_on_c, 0, 71, 80
1, 278759, Note_on_c, 0, 71, 0
1, 278760, Note_on_c, 0, 74, 80
1, 278879, Note_on_c, 0, 74, 0
1, 278880, Note_on_c, 0, 68, 80
1, 278999, Note_on_c, 0, 68, 0
1, 279000, Note_on_c, 0, 73, 80
1, 279119, Note_on_c, 0, 73, 0
1, 279120, Note_on_c, 0, 71, 80
1, 279239, Note_on_c, 0, 71, 0
1, 279240, Note_on_c, 0, 73, 80
1, 279359, Note_on_c, 0, 73, 0
1, 279360, Note_on_c, 0, 68, 80
1, 279479, Note_on_c, 0, 68, 0
1, 279480, Note_on_c, 0, 73, 80
1, 279599, Note_on_c, 0, 73, 0
1, 279600, Note_on_c, 0, 71, 80
1, 279719, Note_on_c, 0, 71, 0
1, 279720, Note_on_c, 0, 73, 80
1, 279839, Note_on_c, 0, 73, 0
1, 279840, Note_on_c, 0, 68, 80
1, 279959, Note_on_c, 0, 68, 0
1, 279960, Note_on_c, 0, 73, 80
1, 280079, Note_on_c, 0, 73, 0
1, 280080, Note_on_c, 0, 71, 80
1, 280199, Note_on_c, 0, 71, 0
1, 280200, Note_on_c, 0, 73, 80
1, 280319, Note_on_c, 0, 73, 0
1, 280320, Note_on_c, 0, 66, 80
1, 280439, Note_on_c, 0, 66, 0
1, 280440, Note_on_c, 0, 73, 80
1, 280559, Note_on_c, 0, 73, 0
1, 280560, Note_on_c, 0, 69, 80
1, 280679, Note_on_c, 0, 69, 0
1, 280680, Note_on_c, 0, 73, 80
1, 280799, Note_on_c, 0, 73, 0
1, 280800, Note_on_c, 0, 66, 80
1, 280919, Note_on_c, 0, 66, 0
1, 280920, Note_on_c, 0, 73, 80
1, 281039, Note_on_c, 0, 73, 0
1, 281040, Note_on_c, 0, 69, 80
1, 281159, Note_on_c, 0, 69, 0
1, 281160, Note_on_c, 0, 73, 80
1, 281279, Note_on_c, 0, 73, 0
1, 281280, Note_on_c, 0, 66, 80
1, 281399, Note_on_c, 0, 66, 0
1, 281400, Note_on_c, 0, 78, 80
1, 281519, Note_on_c, 0, 78, 0
1, 281520, Note_on_c, 0, 69, 80
1, 281639, Note_on_c, 0, 69, 0
1, 281640, Note_on_c, 0, 78, 80
1, 281759, Note_on_c, 0, 78, 0
1, 281760, Note_on_c, 0, 66, 80
1, 281879, Note_on_c, 0, 66, 0
1, 281880, Note_on_c, 0, 78, 80
1, 281999, Note_on_c, 0, 78, 0
1, 282000, Note_on_c, 0, 69, 80
1, 282119, Note_on_c, 0, 69, 0
1, 282120, Note_on_c, 0, 78, 80
1, 282239, Note_on_c, 0, 78, 0
1, 282240, Note_on_c, 0, 66, 80
1, 282359, Note_on_c, 0, 66, 0
1, 282360, Note_on_c, 0, 78, 80
1, 282479, Note_on_c, 0, 78, 0
1, 282480, Note_on_c, 0, 75, 80
1, 282480, Note_on_c, 0, 68, 80
1, 282599, Note_on_c, 0, 75, 0
1, 282599, Note_on_c, 0, 68, 0
1, 282600, Note_on_c, 0, 78, 80
1, 282719, Note_on_c, 0, 78, 0
1, 282720, Note_on_c, 0, 66, 80
1, 282839, Note_on_c, 0, 66, 0
1, 282840, Note_on_c, 0, 78, 80
1, 282959, Note_on_c, 0, 78, 0
1, 282960, Note_on_c, 0, 75, 80
1, 282960, Note_on_c, 0, 68, 80
1, 283079, Note_on_c, 0, 75, 0
1, 283079, Note_on_c, 0, 68, 0
1, 283080, Note_on_c, 0, 78, 80
1, 283199, Note_on_c, 0, 78, 0
1, 283200, Note_on_c, 0, 66, 80
1, 283319, Note_on_c, 0, 66, 0
1, 283320, Note_on_c, 0, 78, 80
1, 283439, Note_on_c, 0, 78, 0
1, 283440, Note_on_c, 0, 75, 80
1, 283440, Note_on_c, 0, 68, 80
1, 283559, Note_on_c, 0, 75, 0
1, 283559, Note_on_c, 0, 68, 0
1, 283560, Note_on_c, 0, 78, 80
1, 283679, Note_on_c, 0, 78, 0
1, 283680, Note_on_c, 0, 66, 80
1, 283799, Note_on_c, 0, 66, 0
1, 283800, Note_on_c, 0, 78, 80
1, 283919, Note_on_c, 0, 78, 0
1, 283920, Note_on_c, 0, 75, 80
1, 283920, Note_on_c, 0, 68, 80
1, 284039, Note_on_c, 0, 75, 0
1, 284039, Note_on_c, 0, 68, 0
1, 284040, Note_on_c, 0, 78, 80
1, 284159, Note_on_c, 0, 78, 0
1, 284160, Note_on_c, 0, 64, 80
1, 284279, Note_on_c, 0, 64, 0
1, 284280, Note_on_c, 0, 76, 80
1, 284399, Note_on_c, 0, 76, 0
1, 284400, Note_on_c, 0, 73, 80
1, 284519, Note_on_c, 0, 73, 0
1, 284520, Note_on_c, 0, 76, 80
1, 284639, Note_on_c, 0, 76, 0
1, 284640, Note_on_c, 0, 64, 80
1, 284759, Note_on_c, 0, 64, 0
1, 284760, Note_on_c, 0, 76, 80
1, 284879, Note_on_c, 0, 76, 0
1, 284880, Note_on_c, 0, 73, 80
1, 284999, Note_on_c, 0, 73, 0
1, 285000, Note_on_c, 0, 76, 80
1, 285119, Note_on_c, 0, 76, 0
1, 285120, Note_on_c, 0, 64, 80
1, 285239, Note_on_c, 0, 64, 0
1, 285240, Note_on_c, 0, 76, 80
1, 285359, Note_on_c, 0, 76, 0
1, 285360, Note_on_c, 0, 73, 80
1, 285479, Note_on_c, 0, 73, 0
1, 285480, Note_on_c, 0, 76, 80
1, 285599, Note_on_c, 0, 76, 0
1, 285600, Note_on_c, 0, 64, 80
1, 285719, Note_on_c, 0, 64, 0
1, 285720, Note_on_c, 0, 76, 80
1, 285839, Note_on_c, 0, 76, 0
1, 285840, Note_on_c, 0, 73, 80
1, 285959, Note_on_c, 0, 73, 0
1, 285960, Note_on_c, 0, 76, 80
1, 286079, Note_on_c, 0, 76, 0
1, 286080, Note_on_c, 0, 63, 80
1, 286199, Note_on_c, 0, 63, 0
1, 286200, Note_on_c, 0, 75, 80
1, 286319, Note_on_c, 0, 75, 0
1, 286320, Note_on_c, 0, 73, 80
1, 286439, Note_on_c, 0, 73, 0
1, 286440, Note_on_c, 0, 75, 80
1, 286559, Note_on_c, 0, 75, 0
1, 286560, Note_on_c, 0, 63, 80
1, 286679, Note_on_c, 0, 63, 0
1, 286680, Note_on_c, 0, 75, 80
1, 286799, Note_on_c, 0, 75, 0
1, 286800, Note_on_c, 0, 73, 80
1, 286919, Note_on_c, 0, 73, 0
1, 286920, Note_on_c, 0, 75, 80
1, 287039, Note_on_c, 0, 75, 0
1, 287040, Note_on_c, 0, 63, 80
1, 287159, Note_on_c, 0, 63, 0
1, 287160, Note_on_c, 0, 75, 80
1, 287279, Note_on_c, 0, 75, 0
1, 287280, Note_on_c, 0, 73, 80
1, 287399, Note_on_c, 0, 73, 0
1, 287400, Note_on_c, 0, 75, 80
1, 287519, Note_on_c, 0, 75, 0
1, 287520, Note_on_c, 0, 63, 80
1, 287639, Note_on_c, 0, 63, 0
1, 287640, Note_on_c, 0, 75, 80
1, 287759, Note_on_c, 0, 75, 0
1, 287760, Note_on_c, 0, 73, 80
1, 287879, Note_on_c, 0, 73, 0
1, 287880, Note_on_c, 0, 75, 80
1, 287999, Note_on_c, 0, 75, 0
1, 288000, Note_on_c, 0, 75, 80
1, 288000, Note_on_c, 0, 72, 80
1, 288000, Note_on_c, 0, 63, 80
1, 288479, Note_on_c, 0, 75, 0
1, 288479, Note_on_c, 0, 72, 0
1, 288479, Note_on_c, 0, 63, 0
1, 288480, Note_on_c, 0, 68, 80
1, 289439, Note_on_c, 0, 68, 0
1, 289440, Note_on_c, 0, 69, 80
1, 289679, Note_on_c, 0, 69, 0
1, 289680, Note_on_c, 0, 68, 80
1, 289919, Note_on_c, 0, 68, 0
1, 289920, Note_on_c, 0, 66, 80
1, 290399, Note_on_c, 0, 66, 0
1, 290400, Note_on_c, 0, 68, 80
1, 290639, Note_on_c, 0, 68, 0
1, 290640, Note_on_c, 0, 66, 80
1, 290879, Note_on_c, 0, 66, 0
1, 290880, Note_on_c, 0, 64, 80
1, 291359, Note_on_c, 0, 64, 0
1, 291360, Note_on_c, 0, 66, 80
1, 291599, Note_on_c, 0, 66, 0
1, 291600, Note_on_c, 0, 64, 80
1, 291839, Note_on_c, 0, 64, 0
1, 291840, Note_on_c, 0, 63, 80
1, 292319, Note_on_c, 0, 63, 0
1, 292320, Note_on_c, 0, 64, 80
1, 292559, Note_on_c, 0, 64, 0
1, 292560, Note_on_c, 0, 63, 80
1, 292799, Note_on_c, 0, 63, 0
1, 292800, Note_on_c, 0, 61, 80
1, 293279, Note_on_c, 0, 61, 0
1, 293280, Note_on_c, 0, 63, 80
1, 293519, Note_on_c, 0, 63, 0
1, 293520, Note_on_c, 0, 61, 80
1, 293759, Note_on_c, 0, 61, 0
1, 293760, Note_on_c, 0, 60, 80
1, 294719, Note_on_c, 0, 60, 0
1, 294720, Note_on_c, 0, 61, 80
1, 295679, Note_on_c, 0, 61, 0
1, 295680, Note_on_c, 0, 63, 80
1, 295919, Note_on_c, 0, 63, 0
1, 296160, Note_on_c, 0, 80, 80
1, 296879, Note_on_c, 0, 80, 0
1, 296880, Note_on_c, 0, 80, 80
1, 296999, Note_on_c, 0, 80, 0
1, 297120, Note_on_c, 0, 81, 80
1, 297239, Note_on_c, 0, 81, 0
1, 297360, Note_on_c, 0, 80, 80
1, 297479, Note_on_c, 0, 80, 0
1, 297600, Note_on_c, 0, 78, 80
1, 297719, Note_on_c, 0, 78, 0
1, 297840, Note_on_c, 0, 78, 80
1, 297840, Note_on_c, 0, 73, 80
1, 297840, Note_on_c, 0, 69, 80
1, 297959, Note_on_c, 0, 78, 0
1, 297959, Note_on_c, 0, 73, 0
1, 297959, Note_on_c, 0, 69, 0
1, 298080, Note_on_c, 0, 80, 80
1, 298080, Note_on_c, 0, 75, 80
1, 298080, Note_on_c, 0, 71, 80
1, 298199, Note_on_c, 0, 80, 0
1, 298199, Note_on_c, 0, 75, 0
1, 298199, Note_on_c, 0, 71, 0
1, 298320, Note_on_c, 0, 78, 80
1, 298320, Note_on_c, 0, 73, 80
1, 298320, Note_on_c, 0, 69, 80
1, 298439, Note_on_c, 0, 78, 0
1, 298439, Note_on_c, 0, 73, 0
1, 298439, Note_on_c, 0, 69, 0
1, 298560, Note_on_c, 0, 76, 80
1, 298560, Note_on_c, 0, 71, 80
1, 298560, Note_on_c, 0, 68, 80
1, 298679, Note_on_c, 0, 76, 0
1, 298679, Note_on_c, 0, 71, 0
1, 298679, Note_on_c, 0, 68, 0
1, 298800, Note_on_c, 0, 76, 80
1, 298800, Note_on_c, 0, 71, 80
1, 298800, Note_on_c, 0, 68, 80
1, 298919, Note_on_c, 0, 76, 0
1, 298919, Note_on_c, 0, 71, 0
1, 298919, Note_on_c, 0, 68, 0
1, 299040, Note_on_c, 0, 78, 80
1, 299040, Note_on_c, 0, 73, 80
1, 299040, Note_on_c, 0, 69, 80
1, 299159, Note_on_c, 0, 78, 0
1, 299159, Note_on_c, 0, 73, 0
1, 299159, Note_on_c, 0, 69, 0
1, 299280, Note_on_c, 0, 76, 80
1, 299280, Note_on_c, 0, 71, 80
1, 299280, Note_on_c, 0, 68, 80
1, 299399, Note_on_c, 0, 76, 0
1, 299399, Note_on_c, 0, 71, 0
1, 299399, Note_on_c, 0, 68, 0
1, 299520, Note_on_c, 0, 75, 80
1, 299520, Note_on_c, 0, 69, 80
1, 299520, Note_on_c, 0, 66, 80
1, 299639, Note_on_c, 0, 75, 0
1, 299639, Note_on_c, 0, 69, 0
1, 299639, Note_on_c, 0, 66, 0
1, 299760, Note_on_c, 0, 75, 80
1, 299760, Note_on_c, 0, 69, 80
1, 299760, Note_on_c, 0, 66, 80
1, 299879, Note_on_c, 0, 75, 0
1, 299879, Note_on_c, 0, 69, 0
1, 299879, Note_on_c, 0, 66, 0
1, 300000, Note_on_c, 0, 76, 80
1, 300000, Note_on_c, 0, 71, 80
1, 300000, Note_on_c, 0, 68, 80
1, 300119, Note_on_c, 0, 76, 0
1, 300119, Note_on_c, 0, 71, 0
1, 300119, Note_on_c, 0, 68, 0
1, 300240, Note_on_c, 0, 75, 80
1, 300240, Note_on_c, 0, 69, 80
1, 300240, Note_on_c, 0, 66, 80
1, 300359, Note_on_c, 0, 75, 0
1, 300359, Note_on_c, 0, 69, 0
1, 300359, Note_on_c, 0, 66, 0
1, 300480, Note_on_c, 0, 73, 80
1, 300480, Note_on_c, 0, 68, 80
1, 300480, Note_on_c, 0, 64, 80
1, 300599, Note_on_c, 0, 73, 0
1, 300599, Note_on_c, 0, 68, 0
1, 300599, Note_on_c, 0, 64, 0
1, 300720, Note_on_c, 0, 73, 80
1, 300720, Note_on_c, 0, 68, 80
1, 300720, Note_on_c, 0, 64, 80
1, 300839, Note_on_c, 0, 73, 0
1, 300839, Note_on_c, 0, 68, 0
1, 300839, Note_on_c, 0, 64, 0
1, 300960, Note_on_c, 0, 75, 80
1, 300960, Note_on_c, 0, 69, 80
1, 300960, Note_on_c, 0, 66, 80
1, 301079, Note_on_c, 0, 75, 0
1, 301079, Note_on_c, 0, 69, 0
1, 301079, Note_on_c, 0, 66, 0
1, 301200, Note_on_c, 0, 73, 80
1, 301200, Note_on_c, 0, 68, 80
1, 301200, Note_on_c, 0, 64, 80
1, 301319, Note_on_c, 0, 73, 0
1, 301319, Note_on_c, 0, 68, 0
1, 301319, Note_on_c, 0, 64, 0
1, 301440, Note_on_c, 0, 72, 80
1, 301440, Note_on_c, 0, 66, 80
1, 301440, Note_on_c, 0, 63, 80
1, 302399, Note_on_c, 0, 72, 0
1, 302399, Note_on_c, 0, 66, 0
1, 302399, Note_on_c, 0, 63, 0
1, 302400, Note_on_c, 0, 73, 80
1, 302400, Note_on_c, 0, 64, 80
1, 302400, Note_on_c, 0, 61, 80
1, 303239, Note_on_c, 0, 73, 0
1, 303239, Note_on_c, 0, 64, 0
1, 303239, Note_on_c, 0, 61, 0
1, 303280, Note_on_c, 0, 60, 80
1, 303319, Note_on_c, 0, 60, 0
1, 303320, Note_on_c, 0, 66, 80
1, 303359, Note_on_c, 0, 66, 0
1, 303360, Note_on_c, 0, 75, 80
1, 303360, Note_on_c, 0, 66, 80
1, 304799, Note_on_c, 0, 75, 0
1, 304799, Note_on_c, 0, 66, 0
1, 304800, Note_on_c, 0, 73, 80
1, 304800, Note_on_c, 0, 64, 80
1, 304800, Note_on_c, 0, 61, 80
1, 305279, Note_on_c, 0, 73, 0
1, 305279, Note_on_c, 0, 64, 0
1, 305279, Note_on_c, 0, 61, 0
1, 305280, Note_on_c, 0, 72, 80
1, 305280, Note_on_c, 0, 66, 80
1, 305280, Note_on_c, 0, 63, 80
1, 305519, Note_on_c, 0, 72, 0
1, 305519, Note_on_c, 0, 66, 0
1, 305519, Note_on_c, 0, 63, 0
1, 305760, Note_on_c, 0, 72, 80
1, 305760, Note_on_c, 0, 66, 80
1, 305760, Note_on_c, 0, 63, 80
1, 305999, Note_on_c, 0, 72, 0
1, 305999, Note_on_c, 0, 66, 0
1, 305999, Note_on_c, 0, 63, 0
1, 306240, Note_on_c, 0, 73, 80
1, 306240, Note_on_c, 0, 64, 80
1, 306240, Note_on_c, 0, 61, 80
1, 306479, Note_on_c, 0, 73, 0
1, 306479, Note_on_c, 0, 64, 0
1, 306479, Note_on_c, 0, 61, 0
1, 306720, Note_on_c, 0, 73, 80
1, 306720, Note_on_c, 0, 64, 80
1, 306720, Note_on_c, 0, 61, 80
1, 307079, Note_on_c, 0, 73, 0
1, 307079, Note_on_c, 0, 64, 0
1, 307079, Note_on_c, 0, 61, 0
1, 307120, Note_on_c, 0, 60, 80
1, 307159, Note_on_c, 0, 60, 0
1, 307160, Note_on_c, 0, 66, 80
1, 307199, Note_on_c, 0, 66, 0
1, 307200, Note_on_c, 0, 75, 80
1, 307200, Note_on_c, 0, 66, 80
1, 308639, Note_on_c, 0, 75, 0
1, 308639, Note_on_c, 0, 66, 0
1, 308640, Note_on_c, 0, 64, 80
1, 308640, Note_on_c, 0, 61, 80
1, 308879, Note_on_c, 0, 64, 0
1, 308879, Note_on_c, 0, 61, 0
1, 308880, Note_on_c, 0, 73, 80
1, 309119, Note_on_c, 0, 73, 0
1, 309120, Note_on_c, 0, 66, 80
1, 309120, Note_on_c, 0, 63, 80
1, 309359, Note_on_c, 0, 66, 0
1, 309359, Note_on_c, 0, 63, 0
1, 309360, Note_on_c, 0, 72, 80
1, 309599, Note_on_c, 0, 72, 0
1, 309600, Note_on_c, 0, 66, 80
1, 309600, Note_on_c, 0, 63, 80
1, 309839, Note_on_c, 0, 66, 0
1, 309839, Note_on_c, 0, 63, 0
1, 309840, Note_on_c, 0, 72, 80
1, 310079, Note_on_c, 0, 72, 0
1, 310080, Note_on_c, 0, 64, 80
1, 310080, Note_on_c, 0, 61, 80
1, 310319, Note_on_c, 0, 64, 0
1, 310319, Note_on_c, 0, 61, 0
1, 310320, Note_on_c, 0, 73, 80
1, 310559, Note_on_c, 0, 73, 0
1, 310560, Note_on_c, 0, 64, 80
1, 310560, Note_on_c, 0, 61, 80
1, 310799, Note_on_c, 0, 64, 0
1, 310799, Note_on_c, 0, 61, 0
1, 310800, Note_on_c, 0, 73, 80
1, 311039, Note_on_c, 0, 73, 0
1, 311040, Note_on_c, 0, 66, 80
1, 311040, Note_on_c, 0, 60, 80
1, 311279, Note_on_c, 0, 66, 0
1, 311279, Note_on_c, 0, 60, 0
1, 311280, Note_on_c, 0, 75, 80
1, 311519, Note_on_c, 0, 75, 0
1, 311520, Note_on_c, 0, 66, 80
1, 311520, Note_on_c, 0, 60, 80
1, 311759, Note_on_c, 0, 66, 0
1, 311759, Note_on_c, 0, 60, 0
1, 311760, Note_on_c, 0, 75, 80
1, 311999, Note_on_c, 0, 75, 0
1, 312000, Note_on_c, 0, 64, 80
1, 312000, Note_on_c, 0, 61, 80
1, 312239, Note_on_c, 0, 64, 0
1, 312239, Note_on_c, 0, 61, 0
1, 312240, Note_on_c, 0, 73, 80
1, 312479, Note_on_c, 0, 73, 0
1, 312480, Note_on_c, 0, 64, 80
1, 312480, Note_on_c, 0, 61, 80
1, 312719, Note_on_c, 0, 64, 0
1, 312719, Note_on_c, 0, 61, 0
1, 312720, Note_on_c, 0, 73, 80
1, 312959, Note_on_c, 0, 73, 0
1, 312960, Note_on_c, 0, 69, 80
1, 312960, Note_on_c, 0, 63, 80
1, 314879, Note_on_c, 0, 69, 0
1, 314879, Note_on_c, 0, 63, 0
1, 314880, Note_on_c, 0, 68, 80
1, 314880, Note_on_c, 0, 63, 80
1, 316799, Note_on_c, 0, 68, 0
1, 316799, Note_on_c, 0, 63, 0
1, 318240, Note_on_c, 0, 64, 80
1, 318359, Note_on_c, 0, 64, 0
1, 318360, Note_on_c, 0, 56, 80
1, 318479, Note_on_c, 0, 56, 0
1, 318480, Note_on_c, 0, 61, 80
1, 318599, Note_on_c, 0, 61, 0
1, 318600, Note_on_c, 0, 64, 80
1, 318719, Note_on_c, 0, 64, 0
1, 318720, Note_on_c, 0, 68, 80
1, 318839, Note_on_c, 0, 68, 0
1, 318840, Note_on_c, 0, 61, 80
1, 318959, Note_on_c, 0, 61, 0
1, 318960, Note_on_c, 0, 64, 80
1, 319079, Note_on_c, 0, 64, 0
1, 319080, Note_on_c, 0, 68, 80
1, 319199, Note_on_c, 0, 68, 0
1, 319200, Note_on_c, 0, 73, 80
1, 319319, Note_on_c, 0, 73, 0
1, 319320, Note_on_c, 0, 64, 80
1, 319439, Note_on_c, 0, 64, 0
1, 319440, Note_on_c, 0, 68, 80
1, 319559, Note_on_c, 0, 68, 0
1, 319560, Note_on_c, 0, 73, 80
1, 319679, Note_on_c, 0, 73, 0
1, 319680, Note_on_c, 0, 76, 80
1, 319799, Note_on_c, 0, 76, 0
1, 319800, Note_on_c, 0, 68, 80
1, 319919, Note_on_c, 0, 68, 0
1, 319920, Note_on_c, 0, 73, 80
1, 320039, Note_on_c, 0, 73, 0
1, 320040, Note_on_c, 0, 76, 80
1, 320159, Note_on_c, 0, 76, 0
1, 320160, Note_on_c, 0, 80, 80
1, 320160, Note_on_c, 0, 76, 80
1, 320160, Note_on_c, 0, 73, 80
1, 320160, Note_on_c, 0, 68, 80
1, 320399, Note_on_c, 0, 80, 0
1, 320399, Note_on_c, 0, 76, 0
1, 320399, Note_on_c, 0, 73, 0
1, 320399, Note_on_c, 0, 68, 0
1, 320400, Note_on_c, 0, 80, 80
1, 320400, Note_on_c, 0, 76, 80
1, 320400, Note_on_c, 0, 73, 80
1, 320400, Note_on_c, 0, 68, 80
1, 320519, Note_on_c, 0, 80, 0
1, 320519, Note_on_c, 0, 76, 0
1, 320519, Note_on_c, 0, 73, 0
1, 320519, Note_on_c, 0, 68, 0
1, 322080, Note_on_c, 0, 63, 80
1, 322199, Note_on_c, 0, 63, 0
1, 322200, Note_on_c, 0, 56, 80
1, 322319, Note_on_c, 0, 56, 0
1, 322320, Note_on_c, 0, 60, 80
1, 322439, Note_on_c, 0, 60, 0
1, 322440, Note_on_c, 0, 63, 80
1, 322559, Note_on_c, 0, 63, 0
1, 322560, Note_on_c, 0, 68, 80
1, 322679, Note_on_c, 0, 68, 0
1, 322680, Note_on_c, 0, 60, 80
1, 322799, Note_on_c, 0, 60, 0
1, 322800, Note_on_c, 0, 63, 80
1, 322919, Note_on_c, 0, 63, 0
1, 322920, Note_on_c, 0, 68, 80
1, 323039, Note_on_c, 0, 68, 0
1, 323040, Note_on_c, 0, 72, 80
1, 323159, Note_on_c, 0, 72, 0
1, 323160, Note_on_c, 0, 63, 80
1, 323279, Note_on_c, 0, 63, 0
1, 323280, Note_on_c, 0, 68, 80
1, 323399, Note_on_c, 0, 68, 0
1, 323400, Note_on_c, 0, 72, 80
1, 323519, Note_on_c, 0, 72, 0
1, 323520, Note_on_c, 0, 75, 80
1, 323639, Note_on_c, 0, 75, 0
1, 323640, Note_on_c, 0, 68, 80
1, 323759, Note_on_c, 0, 68, 0
1, 323760, Note_on_c, 0, 72, 80
1, 323879, Note_on_c, 0, 72, 0
1, 323880, Note_on_c, 0, 75, 80
1, 323999, Note_on_c, 0, 75, 0
1, 324000, Note_on_c, 0, 80, 80
1, 324000, Note_on_c, 0, 75, 80
1, 324000, Note_on_c, 0, 72, 80
1, 324000, Note_on_c, 0, 68, 80
1, 324239, Note_on_c, 0, 80, 0
1, 324239, Note_on_c, 0, 75, 0
1, 324239, Note_on_c, 0, 72, 0
1, 324239, Note_on_c, 0, 68, 0
1, 324240, Note_on_c, 0, 80, 80
1, 324240, Note_on_c, 0, 75, 80
1, 324240, Note_on_c, 0, 72, 80
1, 324240, Note_on_c, 0, 68, 80
1, 324359, Note_on_c, 0, 80, 0
1, 324359, Note_on_c, 0, 75, 0
1, 324359, Note_on_c, 0, 72, 0
1, 324359, Note_on_c, 0, 68, 0
1, 325440, Note_on_c, 0, 65, 80
1, 325559, Note_on_c, 0, 65, 0
1, 325560, Note_on_c, 0, 56, 80
1, 325679, Note_on_c, 0, 56, 0
1, 325680, Note_on_c, 0, 61, 80
1, 325799, Note_on_c, 0, 61, 0
1, 325800, Note_on_c, 0, 65, 80
1, 325919, Note_on_c, 0, 65, 0
1, 325920, Note_on_c, 0, 68, 80
1, 326039, Note_on_c, 0, 68, 0
1, 326040, Note_on_c, 0, 61, 80
1, 326159, Note_on_c, 0, 61, 0
1, 326160, Note_on_c, 0, 65, 80
1, 326279, Note_on_c, 0, 65, 0
1, 326280, Note_on_c, 0, 68, 80
1, 326399, Note_on_c, 0, 68, 0
1, 326400, Note_on_c, 0, 73, 80
1, 326519, Note_on_c, 0, 73, 0
1, 326520, Note_on_c, 0, 65, 80
1, 326639, Note_on_c, 0, 65, 0
1, 326640, Note_on_c, 0, 68, 80
1, 326759, Note_on_c, 0, 68, 0
1, 326760, Note_on_c, 0, 73, 80
1, 326879, Note_on_c, 0, 73, 0
1, 326880, Note_on_c, 0, 77, 80
1, 326999, Note_on_c, 0, 77, 0
1, 327000, Note_on_c, 0, 68, 80
1, 327119, Note_on_c, 0, 68, 0
1, 327120, Note_on_c, 0, 73, 80
1, 327239, Note_on_c, 0, 73, 0
1, 327240, Note_on_c, 0, 77, 80
1, 327359, Note_on_c, 0, 77, 0
1, 327360, Note_on_c, 0, 80, 80
1, 327479, Note_on_c, 0, 80, 0
1, 327480, Note_on_c, 0, 73, 80
1, 327599, Note_on_c, 0, 73, 0
1, 327600, Note_on_c, 0, 77, 80
1, 327719, Note_on_c, 0, 77, 0
1, 327720, Note_on_c, 0, 80, 80
1, 327839, Note_on_c, 0, 80, 0
1, 327840, Note_on_c, 0, 85, 80
1, 327840, Note_on_c, 0, 80, 80
1, 327840, Note_on_c, 0, 77, 80
1, 327840, Note_on_c, 0, 73, 80
1, 328079, Note_on_c, 0, 85, 0
1, 328079, Note_on_c, 0, 80, 0
1, 328079, Note_on_c, 0, 77, 0
1, 328079, Note_on_c, 0, 73, 0
1, 328080, Note_on_c, 0, 85, 80
1, 328080, Note_on_c, 0, 80, 80
1, 328080, Note_on_c, 0, 77, 80
1, 328080, Note_on_c, 0, 73, 80
1, 328199, Note_on_c, 0, 85, 0
1, 328199, Note_on_c, 0, 80, 0
1, 328199, Note_on_c, 0, 77, 0
1, 328199, Note_on_c, 0, 73, 0
1, 328800, Note_on_c, 0, 61, 80
1, 328859, Note_on_c, 0, 61, 0
1, 328920, Note_on_c, 0, 61, 80
1, 329039, Note_on_c, 0, 61, 0
1, 329040, Note_on_c, 0, 66, 80
1, 329159, Note_on_c, 0, 66, 0
1, 329160, Note_on_c, 0, 69, 80
1, 329279, Note_on_c, 0, 69, 0
1, 329280, Note_on_c, 0, 73, 80
1, 329339, Note_on_c, 0, 73, 0
1, 329400, Note_on_c, 0, 73, 80
1, 329519, Note_on_c, 0, 73, 0
1, 329520, Note_on_c, 0, 78, 80
1, 329639, Note_on_c, 0, 78, 0
1, 329640, Note_on_c, 0, 81, 80
1, 329759, Note_on_c, 0, 81, 0
1, 329760, Note_on_c, 0, 85, 80
1, 329760, Note_on_c, 0, 78, 80
1, 329760, Note_on_c, 0, 73, 80
1, 329999, Note_on_c, 0, 85, 0
1, 329999, Note_on_c, 0, 78, 0
1, 329999, Note_on_c, 0, 73, 0
1, 330000, Note_on_c, 0, 85, 80
1, 330000, Note_on_c, 0, 78, 80
1, 330000, Note_on_c, 0, 73, 80
1, 330119, Note_on_c, 0, 85, 0
1, 330119, Note_on_c, 0, 78, 0
1, 330119, Note_on_c, 0, 73, 0
1, 330720, Note_on_c, 0, 61, 80
1, 330779, Note_on_c, 0, 61, 0
1, 330840, Note_on_c, 0, 61, 80
1, 330959, Note_on_c, 0, 61, 0
1, 330960, Note_on_c, 0, 64, 80
1, 331079, Note_on_c, 0, 64, 0
1, 331080, Note_on_c, 0, 67, 80
1, 331199, Note_on_c, 0, 67, 0
1, 331200, Note_on_c, 0, 73, 80
1, 331259, Note_on_c, 0, 73, 0
1, 331320, Note_on_c, 0, 73, 80
1, 331439, Note_on_c, 0, 73, 0
1, 331440, Note_on_c, 0, 76, 80
1, 331559, Note_on_c, 0, 76, 0
1, 331560, Note_on_c, 0, 79, 80
1, 331679, Note_on_c, 0, 79, 0
1, 331680, Note_on_c, 0, 85, 80
1, 331680, Note_on_c, 0, 79, 80
1, 331680, Note_on_c, 0, 73, 80
1, 331919, Note_on_c, 0, 85, 0
1, 331919, Note_on_c, 0, 79, 0
1, 331919, Note_on_c, 0, 73, 0
1, 331920, Note_on_c, 0, 85, 80
1, 331920, Note_on_c, 0, 79, 80
1, 331920, Note_on_c, 0, 73, 80
1, 332039, Note_on_c, 0, 85, 0
1, 332039, Note_on_c, 0, 79, 0
1, 332039, Note_on_c, 0, 73, 0
1, 332160, Note_on_c, 0, 84, 80
1, 332160, Note_on_c, 0, 80, 80
1, 332160, Note_on_c, 0, 72, 80
1, 332279, Note_on_c, 0, 84, 0
1, 332279, Note_on_c, 0, 80, 0
1, 332279, Note_on_c, 0, 72, 0
1, 332400, Note_on_c, 0, 68, 80
1, 332519, Note_on_c, 0, 68, 0
1, 332520, Note_on_c, 0, 80, 80
1, 332639, Note_on_c, 0, 80, 0
1, 332640, Note_on_c, 0, 68, 80
1, 332759, Note_on_c, 0, 68, 0
1, 332760, Note_on_c, 0, 80, 80
1, 332879, Note_on_c, 0, 80, 0
1, 332880, Note_on_c, 0, 70, 80
1, 332999, Note_on_c, 0, 70, 0
1, 333000, Note_on_c, 0, 80, 80
1, 333119, Note_on_c, 0, 80, 0
1, 333120, Note_on_c, 0, 72, 80
1, 333239, Note_on_c, 0, 72, 0
1, 333240, Note_on_c, 0, 80, 80
1, 333359, Note_on_c, 0, 80, 0
1, 333360, Note_on_c, 0, 73, 80
1, 333479, Note_on_c, 0, 73, 0
1, 333480, Note_on_c, 0, 80, 80
1, 333599, Note_on_c, 0, 80, 0
1, 333600, Note_on_c, 0, 75, 80
1, 333719, Note_on_c, 0, 75, 0
1, 333720, Note_on_c, 0, 80, 80
1, 333839, Note_on_c, 0, 80, 0
1, 333840, Note_on_c, 0, 72, 80
1, 333959, Note_on_c, 0, 72, 0
1, 333960, Note_on_c, 0, 80, 80
1, 334079, Note_on_c, 0, 80, 0
1, 334080, Note_on_c, 0, 75, 80
1, 334199, Note_on_c, 0, 75, 0
1, 334200, Note_on_c, 0, 80, 80
1, 334319, Note_on_c, 0, 80, 0
1, 334320, Note_on_c, 0, 73, 80
1, 334439, Note_on_c, 0, 73, 0
1, 334440, Note_on_c, 0, 80, 80
1, 334559, Note_on_c, 0, 80, 0
1, 334560, Note_on_c, 0, 78, 80
1, 334679, Note_on_c, 0, 78, 0
1, 334680, Note_on_c, 0, 80, 80
1, 334799, Note_on_c, 0, 80, 0
1, 334800, Note_on_c, 0, 76, 80
1, 334919, Note_on_c, 0, 76, 0
1, 334920, Note_on_c, 0, 80, 80
1, 335039, Note_on_c, 0, 80, 0
1, 335040, Note_on_c, 0, 75, 80
1, 335159, Note_on_c, 0, 75, 0
1, 335160, Note_on_c, 0, 80, 80
1, 335279, Note_on_c, 0, 80, 0
1, 335280, Note_on_c, 0, 73, 80
1, 335399, Note_on_c, 0, 73, 0
1, 335400, Note_on_c, 0, 80, 80
1, 335519, Note_on_c, 0, 80, 0
1, 335520, Note_on_c, 0, 72, 80
1, 335639, Note_on_c, 0, 72, 0
1, 335640, Note_on_c, 0, 80, 80
1, 335759, Note_on_c, 0, 80, 0
1, 335760, Note_on_c, 0, 69, 80
1, 335879, Note_on_c, 0, 69, 0
1, 335880, Note_on_c, 0, 79, 80
1, 335999, Note_on_c, 0, 79, 0
1, 336000, Note_on_c, 0, 68, 80
1, 336119, Note_on_c, 0, 68, 0
1, 336120, Note_on_c, 0, 80, 80
1, 336239, Note_on_c, 0, 80, 0
1, 336240, Note_on_c, 0, 68, 80
1, 336359, Note_on_c, 0, 68, 0
1, 336360, Note_on_c, 0, 80, 80
1, 336479, Note_on_c, 0, 80, 0
1, 336480, Note_on_c, 0, 68, 80
1, 336599, Note_on_c, 0, 68, 0
1, 336600, Note_on_c, 0, 80, 80
1, 336719, Note_on_c, 0, 80, 0
1, 336720, Note_on_c, 0, 70, 80
1, 336839, Note_on_c, 0, 70, 0
1, 336840, Note_on_c, 0, 80, 80
1, 336959, Note_on_c, 0, 80, 0
1, 336960, Note_on_c, 0, 72, 80
1, 337079, Note_on_c, 0, 72, 0
1, 337080, Note_on_c, 0, 80, 80
1, 337199, Note_on_c, 0, 80, 0
1, 337200, Note_on_c, 0, 73, 80
1, 337319, Note_on_c, 0, 73, 0
1, 337320, Note_on_c, 0, 80, 80
1, 337439, Note_on_c, 0, 80, 0
1, 337440, Note_on_c, 0, 75, 80
1, 337559, Note_on_c, 0, 75, 0
1, 337560, Note_on_c, 0, 80, 80
1, 337679, Note_on_c, 0, 80, 0
1, 337680, Note_on_c, 0, 72, 80
1, 337799, Note_on_c, 0, 72, 0
1, 337800, Note_on_c, 0, 80, 80
1, 337919, Note_on_c, 0, 80, 0
1, 337920, Note_on_c, 0, 75, 80
1, 338039, Note_on_c, 0, 75, 0
1, 338040, Note_on_c, 0, 80, 80
1, 338159, Note_on_c, 0, 80, 0
1, 338160, Note_on_c, 0, 73, 80
1, 338279, Note_on_c, 0, 73, 0
1, 338280, Note_on_c, 0, 80, 80
1, 338399, Note_on_c, 0, 80, 0
1, 338400, Note_on_c, 0, 78, 80
1, 338519, Note_on_c, 0, 78, 0
1, 338520, Note_on_c, 0, 80, 80
1, 338639, Note_on_c, 0, 80, 0
1, 338640, Note_on_c, 0, 76, 80
1, 338759, Note_on_c, 0, 76, 0
1, 338760, Note_on_c, 0, 80, 80
1, 338879, Note_on_c, 0, 80, 0
1, 338880, Note_on_c, 0, 75, 80
1, 338999, Note_on_c, 0, 75, 0
1, 339000, Note_on_c, 0, 80, 80
1, 339119, Note_on_c, 0, 80, 0
1, 339120, Note_on_c, 0, 73, 80
1, 339239, Note_on_c, 0, 73, 0
1, 339240, Note_on_c, 0, 80, 80
1, 339359, Note_on_c, 0, 80, 0
1, 339360, Note_on_c, 0, 72, 80
1, 339479, Note_on_c, 0, 72, 0
1, 339480, Note_on_c, 0, 80, 80
1, 339599, Note_on_c, 0, 80, 0
1, 339600, Note_on_c, 0, 69, 80
1, 339719, Note_on_c, 0, 69, 0
1, 339720, Note_on_c, 0, 79, 80
1, 339839, Note_on_c, 0, 79, 0
1, 339840, Note_on_c, 0, 68, 80
1, 339959, Note_on_c, 0, 68, 0
1, 339960, Note_on_c, 0, 80, 80
1, 340079, Note_on_c, 0, 80, 0
1, 340080, Note_on_c, 0, 69, 80
1, 340199, Note_on_c, 0, 69, 0
1, 340200, Note_on_c, 0, 79, 80
1, 340319, Note_on_c, 0, 79, 0
1, 340320, Note_on_c, 0, 68, 80
1, 340439, Note_on_c, 0, 68, 0
1, 340440, Note_on_c, 0, 80, 80
1, 340559, Note_on_c, 0, 80, 0
1, 340560, Note_on_c, 0, 69, 80
1, 340679, Note_on_c, 0, 69, 0
1, 340680, Note_on_c, 0, 79, 80
1, 340799, Note_on_c, 0, 79, 0
1, 340800, Note_on_c, 0, 68, 80
1, 340919, Note_on_c, 0, 68, 0
1, 340920, Note_on_c, 0, 80, 80
1, 341039, Note_on_c, 0, 80, 0
1, 341040, Note_on_c, 0, 69, 80
1, 341159, Note_on_c, 0, 69, 0
1, 341160, Note_on_c, 0, 79, 80
1, 341279, Note_on_c, 0, 79, 0
1, 341280, Note_on_c, 0, 68, 80
1, 341399, Note_on_c, 0, 68, 0
1, 341400, Note_on_c, 0, 80, 80
1, 341519, Note_on_c, 0, 80, 0
1, 341520, Note_on_c, 0, 69, 80
1, 341639, Note_on_c, 0, 69, 0
1, 341640, Note_on_c, 0, 79, 80
1, 341759, Note_on_c, 0, 79, 0
1, 341760, Time_signature, 5, 2, 24, 8
1, 341760, Note_on_c, 0, 80, 80
1, 341760, Note_on_c, 0, 68, 80
1, 341999, Note_on_c, 0, 80, 0
1, 341999, Note_on_c, 0, 68, 0
1, 342240, Note_on_c, 0, 56, 80
1, 344159, Note_on_c, 0, 56, 0
1, 344160, Time_signature, 4, 2, 24, 8
1, 344640, Note_on_c, 0, 68, 80
1, 345599, Note_on_c, 0, 68, 0
1, 345600, Note_on_c, 0, 64, 80
1, 345959, Note_on_c, 0, 64, 0
1, 345960, Note_on_c, 0, 61, 80
1, 345989, Note_on_c, 0, 61, 0
1, 345990, Note_on_c, 0, 60, 80
1, 346019, Note_on_c, 0, 60, 0
1, 346020, Note_on_c, 0, 61, 80
1, 346049, Note_on_c, 0, 61, 0
1, 346050, Note_on_c, 0, 63, 80
1, 346079, Note_on_c, 0, 63, 0
1, 346080, Note_on_c, 0, 61, 80
1, 346559, Note_on_c, 0, 61, 0
1, 346560, Note_on_c, 0, 60, 80
1, 347279, Note_on_c, 0, 60, 0
1, 347280, Note_on_c, 0, 60, 80
1, 347519, Note_on_c, 0, 60, 0
1, 347520, Note_on_c, 0, 68, 80
1, 347879, Note_on_c, 0, 68, 0
1, 347880, Note_on_c, 0, 60, 80
1, 347999, Note_on_c, 0, 60, 0
1, 348000, Note_on_c, 0, 63, 80
1, 348479, Note_on_c, 0, 63, 0
1, 348480, Note_on_c, 0, 61, 80
1, 349199, Note_on_c, 0, 61, 0
1, 349200, Note_on_c, 0, 61, 80
1, 349439, Note_on_c, 0, 61, 0
1, 349440, Note_on_c, 0, 68, 80
1, 349799, Note_on_c, 0, 68, 0
1, 349800, Note_on_c, 0, 61, 80
1, 349919, Note_on_c, 0, 61, 0
1, 349920, Note_on_c, 0, 64, 80
1, 350399, Note_on_c, 0, 64, 0
1, 350400, Note_on_c, 0, 63, 80
1, 351119, Note_on_c, 0, 63, 0
1, 351120, Note_on_c, 0, 63, 80
1, 351359, Note_on_c, 0, 63, 0
1, 351360, Note_on_c, 0, 68, 80
1, 351719, Note_on_c, 0, 68, 0
1, 351720, Note_on_c, 0, 63, 80
1, 351839, Note_on_c, 0, 63, 0
1, 351840, Note_on_c, 0, 64, 80
1, 351959, Note_on_c, 0, 64, 0
1, 352080, Note_on_c, 0, 80, 80
1, 352080, Note_on_c, 0, 68, 80
1, 352559, Note_on_c, 0, 80, 0
1, 352559, Note_on_c, 0, 68, 0
1, 352560, Note_on_c, 0, 80, 80
1, 352560, Note_on_c, 0, 68, 80
1, 353039, Note_on_c, 0, 80, 0
1, 353039, Note_on_c, 0, 68, 0
1, 353040, Note_on_c, 0, 80, 80
1, 353040, Note_on_c, 0, 68, 80
1, 353159, Note_on_c, 0, 80, 0
1, 353159, Note_on_c, 0, 68, 0
1, 353280, Note_on_c, 0, 76, 80
1, 353280, Note_on_c, 0, 64, 80
1, 353399, Note_on_c, 0, 76, 0
1, 353399, Note_on_c, 0, 64, 0
1, 353520, Note_on_c, 0, 73, 80
1, 353520, Note_on_c, 0, 61, 80
1, 353639, Note_on_c, 0, 73, 0
1, 353639, Note_on_c, 0, 61, 0
1, 353760, Note_on_c, 0, 73, 80
1, 353760, Note_on_c, 0, 61, 80
1, 353879, Note_on_c, 0, 73, 0
1, 353879, Note_on_c, 0, 61, 0
1, 354000, Note_on_c, 0, 72, 80
1, 354000, Note_on_c, 0, 60, 80
1, 354479, Note_on_c, 0, 72, 0
1, 354479, Note_on_c, 0, 60, 0
1, 354480, Note_on_c, 0, 72, 80
1, 354480, Note_on_c, 0, 60, 80
1, 354959, Note_on_c, 0, 72, 0
1, 354959, Note_on_c, 0, 60, 0
1, 354960, Note_on_c, 0, 72, 80
1, 354960, Note_on_c, 0, 60, 80
1, 355079, Note_on_c, 0, 72, 0
1, 355079, Note_on_c, 0, 60, 0
1, 355200, Note_on_c, 0, 80, 80
1, 355200, Note_on_c, 0, 68, 80
1, 355319, Note_on_c, 0, 80, 0
1, 355319, Note_on_c, 0, 68, 0
1, 355440, Note_on_c, 0, 72, 80
1, 355440, Note_on_c, 0, 60, 80
1, 355559, Note_on_c, 0, 72, 0
1, 355559, Note_on_c, 0, 60, 0
1, 355680, Note_on_c, 0, 75, 80
1, 355680, Note_on_c, 0, 63, 80
1, 355799, Note_on_c, 0, 75, 0
1, 355799, Note_on_c, 0, 63, 0
1, 355920, Note_on_c, 0, 73, 80
1, 355920, Note_on_c, 0, 61, 80
1, 356399, Note_on_c, 0, 73, 0
1, 356399, Note_on_c, 0, 61, 0
1, 356400, Note_on_c, 0, 73, 80
1, 356400, Note_on_c, 0, 61, 80
1, 356879, Note_on_c, 0, 73, 0
1, 356879, Note_on_c, 0, 61, 0
1, 356880, Note_on_c, 0, 73, 80
1, 356880, Note_on_c, 0, 61, 80
1, 356999, Note_on_c, 0, 73, 0
1, 356999, Note_on_c, 0, 61, 0
1, 357120, Note_on_c, 0, 80, 80
1, 357120, Note_on_c, 0, 68, 80
1, 357239, Note_on_c, 0, 80, 0
1, 357239, Note_on_c, 0, 68, 0
1, 357360, Note_on_c, 0, 73, 80
1, 357360, Note_on_c, 0, 61, 80
1, 357479, Note_on_c, 0, 73, 0
1, 357479, Note_on_c, 0, 61, 0
1, 357600, Note_on_c, 0, 76, 80
1, 357600, Note_on_c, 0, 64, 80
1, 357719, Note_on_c, 0, 76, 0
1, 357719, Note_on_c, 0, 64, 0
1, 357840, Note_on_c, 0, 75, 80
1, 357840, Note_on_c, 0, 63, 80
1, 358319, Note_on_c, 0, 75, 0
1, 358319, Note_on_c, 0, 63, 0
1, 358320, Note_on_c, 0, 75, 80
1, 358320, Note_on_c, 0, 63, 80
1, 358799, Note_on_c, 0, 75, 0
1, 358799, Note_on_c, 0, 63, 0
1, 358800, Note_on_c, 0, 75, 80
1, 358800, Note_on_c, 0, 63, 80
1, 358919, Note_on_c, 0, 75, 0
1, 358919, Note_on_c, 0, 63, 0
1, 359040, Note_on_c, 0, 80, 80
1, 359040, Note_on_c, 0, 68, 80
1, 359159, Note_on_c, 0, 80, 0
1, 359159, Note_on_c, 0, 68, 0
1, 359280, Note_on_c, 0, 75, 80
1, 359280, Note_on_c, 0, 63, 80
1, 359399, Note_on_c, 0, 75, 0
1, 359399, Note_on_c, 0, 63, 0
1, 359520, Note_on_c, 0, 77, 80
1, 359520, Note_on_c, 0, 65, 80
1, 360479, Note_on_c, 0, 77, 0
1, 360479, Note_on_c, 0, 65, 0
1, 360480, Note_on_c, 0, 78, 80
1, 360480, Note_on_c, 0, 66, 80
1, 361439, Note_on_c, 0, 78, 0
1, 361439, Note_on_c, 0, 66, 0
1, 361440, Note_on_c, 0, 75, 80
1, 361499, Note_on_c, 0, 75, 0
1, 361500, Note_on_c, 0, 76, 80
1, 361559, Note_on_c, 0, 76, 0
1, 361560, Note_on_c, 0, 75, 80
1, 361619, Note_on_c, 0, 75, 0
1, 361620, Note_on_c, 0, 76, 80
1, 361679, Note_on_c, 0, 76, 0
1, 361680, Note_on_c, 0, 73, 80
1, 361799, Note_on_c, 0, 73, 0
1, 361800, Note_on_c, 0, 75, 80
1, 361919, Note_on_c, 0, 75, 0
1, 361920, Note_on_c, 0, 76, 80
1, 361920, Note_on_c, 0, 64, 80
1, 363359, Note_on_c, 0, 76, 0
1, 363359, Note_on_c, 0, 64, 0
1, 363360, Note_on_c, 0, 73, 80
1, 363360, Note_on_c, 0, 61, 80
1, 364319, Note_on_c, 0, 73, 0
1, 364319, Note_on_c, 0, 61, 0
1, 364320, Note_on_c, 0, 74, 80
1, 364320, Note_on_c, 0, 62, 80
1, 365279, Note_on_c, 0, 74, 0
1, 365279, Note_on_c, 0, 62, 0
1, 365280, Note_on_c, 0, 72, 80
1, 365339, Note_on_c, 0, 72, 0
1, 365340, Note_on_c, 0, 73, 80
1, 365399, Note_on_c, 0, 73, 0
1, 365400, Note_on_c, 0, 72, 80
1, 365459, Note_on_c, 0, 72, 0
1, 365460, Note_on_c, 0, 73, 80
1, 365519, Note_on_c, 0, 73, 0
1, 365520, Note_on_c, 0, 70, 80
1, 365639, Note_on_c, 0, 70, 0
1, 365640, Note_on_c, 0, 72, 80
1, 365759, Note_on_c, 0, 72, 0
1, 365760, Note_on_c, 0, 73, 80
1, 365760, Note_on_c, 0, 61, 80
1, 367199, Note_on_c, 0, 73, 0
1, 367199, Note_on_c, 0, 61, 0
1, 367200, Note_on_c, 0, 74, 80
1, 367200, Note_on_c, 0, 69, 80
1, 367200, Note_on_c, 0, 66, 80
1, 367200, Note_on_c, 0, 62, 80
1, 368279, Note_on_c, 0, 74, 0
1, 368279, Note_on_c, 0, 69, 0
1, 368279, Note_on_c, 0, 66, 0
1, 368279, Note_on_c, 0, 62, 0
1, 368280, Note_on_c, 0, 69, 80
1, 368399, Note_on_c, 0, 69, 0
1, 368400, Note_on_c, 0, 71, 80
1, 368519, Note_on_c, 0, 71, 0
1, 368520, Note_on_c, 0, 73, 80
1, 368639, Note_on_c, 0, 73, 0
1, 368640, Note_on_c, 0, 74, 80
1, 368759, Note_on_c, 0, 74, 0
1, 368760, Note_on_c, 0, 76, 80
1, 368879, Note_on_c, 0, 76, 0
1, 368880, Note_on_c, 0, 78, 80
1, 368999, Note_on_c, 0, 78, 0
1, 369000, Note_on_c, 0, 76, 80
1, 369119, Note_on_c, 0, 76, 0
1, 369120, Note_on_c, 0, 74, 80
1, 369239, Note_on_c, 0, 74, 0
1, 369240, Note_on_c, 0, 69, 80
1, 369359, Note_on_c, 0, 69, 0
1, 369360, Note_on_c, 0, 71, 80
1, 369479, Note_on_c, 0, 71, 0
1, 369480, Note_on_c, 0, 73, 80
1, 369599, Note_on_c, 0, 73, 0
1, 369600, Note_on_c, 0, 74, 80
1, 369719, Note_on_c, 0, 74, 0
1, 369720, Note_on_c, 0, 76, 80
1, 369839, Note_on_c, 0, 76, 0
1, 369840, Note_on_c, 0, 78, 80
1, 369959, Note_on_c, 0, 78, 0
1, 369960, Note_on_c, 0, 76, 80
1, 370079, Note_on_c, 0, 76, 0
1, 370080, Note_on_c, 0, 74, 80
1, 370199, Note_on_c, 0, 74, 0
1, 370200, Note_on_c, 0, 69, 80
1, 370319, Note_on_c, 0, 69, 0
1, 370320, Note_on_c, 0, 71, 80
1, 370439, Note_on_c, 0, 71, 0
1, 370440, Note_on_c, 0, 73, 80
1, 370559, Note_on_c, 0, 73, 0
1, 370560, Note_on_c, 0, 74, 80
1, 370679, Note_on_c, 0, 74, 0
1, 370680, Note_on_c, 0, 76, 80
1, 370799, Note_on_c, 0, 76, 0
1, 370800, Note_on_c, 0, 78, 80
1, 370919, Note_on_c, 0, 78, 0
1, 370920, Note_on_c, 0, 76, 80
1, 371039, Note_on_c, 0, 76, 0
1, 371040, Note_on_c, 0, 74, 80
1, 371159, Note_on_c, 0, 74, 0
1, 371160, Note_on_c, 0, 69, 80
1, 371279, Note_on_c, 0, 69, 0
1, 371280, Note_on_c, 0, 71, 80
1, 371399, Note_on_c, 0, 71, 0
1, 371400, Note_on_c, 0, 73, 80
1, 371519, Note_on_c, 0, 73, 0
1, 371520, Note_on_c, 0, 74, 80
1, 371639, Note_on_c, 0, 74, 0
1, 371640, Note_on_c, 0, 76, 80
1, 371759, Note_on_c, 0, 76, 0
1, 371760, Note_on_c, 0, 78, 80
1, 371879, Note_on_c, 0, 78, 0
1, 371880, Note_on_c, 0, 79, 80
1, 371999, Note_on_c, 0, 79, 0
1, 372000, Note_on_c, 0, 81, 80
1, 372119, Note_on_c, 0, 81, 0
1, 372120, Note_on_c, 0, 80, 80
1, 372239, Note_on_c, 0, 80, 0
1, 372240, Note_on_c, 0, 83, 80
1, 372359, Note_on_c, 0, 83, 0
1, 372360, Note_on_c, 0, 81, 80
1, 372479, Note_on_c, 0, 81, 0
1, 372480, Note_on_c, 0, 79, 80
1, 372599, Note_on_c, 0, 79, 0
1, 372600, Note_on_c, 0, 78, 80
1, 372719, Note_on_c, 0, 78, 0
1, 372720, Note_on_c, 0, 76, 80
1, 372839, Note_on_c, 0, 76, 0
1, 372840, Note_on_c, 0, 74, 80
1, 372959, Note_on_c, 0, 74, 0
1, 372960, Note_on_c, 0, 73, 80
1, 373919, Note_on_c, 0, 73, 0
1, 373920, Note_on_c, 0, 75, 80
1, 373979, Note_on_c, 0, 75, 0
1, 373980, Note_on_c, 0, 76, 80
1, 374039, Note_on_c, 0, 76, 0
1, 374040, Note_on_c, 0, 75, 80
1, 374099, Note_on_c, 0, 75, 0
1, 374100, Note_on_c, 0, 76, 80
1, 374159, Note_on_c, 0, 76, 0
1, 374160, Note_on_c, 0, 75, 80
1, 374219, Note_on_c, 0, 75, 0
1, 374220, Note_on_c, 0, 76, 80
1, 374279, Note_on_c, 0, 76, 0
1, 374280, Note_on_c, 0, 75, 80
1, 374339, Note_on_c, 0, 75, 0
1, 374340, Note_on_c, 0, 76, 80
1, 374399, Note_on_c, 0, 76, 0
1, 374400, Note_on_c, 0, 75, 80
1, 374459, Note_on_c, 0, 75, 0
1, 374460, Note_on_c, 0, 76, 80
1, 374519, Note_on_c, 0, 76, 0
1, 374520, Note_on_c, 0, 75, 80
1, 374579, Note_on_c, 0, 75, 0
1, 374580, Note_on_c, 0, 76, 80
1, 374639, Note_on_c, 0, 76, 0
1, 374640, Note_on_c, 0, 73, 80
1, 374759, Note_on_c, 0, 73, 0
1, 374760, Note_on_c, 0, 75, 80
1, 374879, Note_on_c, 0, 75, 0
1, 374880, Note_on_c, 0, 73, 80
1, 375119, Note_on_c, 0, 73, 0
1, 375960, Note_on_c, 0, 57, 80
1, 376079, Note_on_c, 0, 57, 0
1, 376080, Note_on_c, 0, 59, 80
1, 376199, Note_on_c, 0, 59, 0
1, 376200, Note_on_c, 0, 61, 80
1, 376319, Note_on_c, 0, 61, 0
1, 376320, Note_on_c, 0, 62, 80
1, 376439, Note_on_c, 0, 62, 0
1, 376440, Note_on_c, 0, 64, 80
1, 376559, Note_on_c, 0, 64, 0
1, 376560, Note_on_c, 0, 66, 80
1, 376679, Note_on_c, 0, 66, 0
1, 376680, Note_on_c, 0, 64, 80
1, 376799, Note_on_c, 0, 64, 0
1, 376800, Note_on_c, 0, 62, 80
1, 376919, Note_on_c, 0, 62, 0
1, 376920, Note_on_c, 0, 57, 80
1, 377039, Note_on_c, 0, 57, 0
1, 377040, Note_on_c, 0, 59, 80
1, 377159, Note_on_c, 0, 59, 0
1, 377160, Note_on_c, 0, 61, 80
1, 377279, Note_on_c, 0, 61, 0
1, 377280, Note_on_c, 0, 62, 80
1, 377399, Note_on_c, 0, 62, 0
1, 377400, Note_on_c, 0, 64, 80
1, 377519, Note_on_c, 0, 64, 0
1, 377520, Note_on_c, 0, 66, 80
1, 377639, Note_on_c, 0, 66, 0
1, 377640, Note_on_c, 0, 64, 80
1, 377759, Note_on_c, 0, 64, 0
1, 377760, Note_on_c, 0, 62, 80
1, 377879, Note_on_c, 0, 62, 0
1, 377880, Note_on_c, 0, 57, 80
1, 377999, Note_on_c, 0, 57, 0
1, 378000, Note_on_c, 0, 59, 80
1, 378119, Note_on_c, 0, 59, 0
1, 378120, Note_on_c, 0, 61, 80
1, 378239, Note_on_c, 0, 61, 0
1, 378240, Note_on_c, 0, 62, 80
1, 378359, Note_on_c, 0, 62, 0
1, 378360, Note_on_c, 0, 64, 80
1, 378479, Note_on_c, 0, 64, 0
1, 378480, Note_on_c, 0, 66, 80
1, 378599, Note_on_c, 0, 66, 0
1, 378600, Note_on_c, 0, 64, 80
1, 378719, Note_on_c, 0, 64, 0
1, 378720, Note_on_c, 0, 62, 80
1, 378839, Note_on_c, 0, 62, 0
1, 378840, Note_on_c, 0, 57, 80
1, 378959, Note_on_c, 0, 57, 0
1, 378960, Note_on_c, 0, 59, 80
1, 379079, Note_on_c, 0, 59, 0
1, 379080, Note_on_c, 0, 61, 80
1, 379199, Note_on_c, 0, 61, 0
1, 379200, Note_on_c, 0, 62, 80
1, 379319, Note_on_c, 0, 62, 0
1, 379320, Note_on_c, 0, 64, 80
1, 379439, Note_on_c, 0, 64, 0
1, 379440, Note_on_c, 0, 66, 80
1, 379559, Note_on_c, 0, 66, 0
1, 379560, Note_on_c, 0, 67, 80
1, 379679, Note_on_c, 0, 67, 0
1, 379680, Note_on_c, 0, 69, 80
1, 379799, Note_on_c, 0, 69, 0
1, 379800, Note_on_c, 0, 71, 80
1, 379919, Note_on_c, 0, 71, 0
1, 379920, Note_on_c, 0, 73, 80
1, 380039, Note_on_c, 0, 73, 0
1, 380040, Note_on_c, 0, 74, 80
1, 380159, Note_on_c, 0, 74, 0
1, 380160, Note_on_c, 0, 76, 80
1, 380279, Note_on_c, 0, 76, 0
1, 380280, Note_on_c, 0, 78, 80
1, 380399, Note_on_c, 0, 78, 0
1, 380400, Note_on_c, 0, 79, 80
1, 380519, Note_on_c, 0, 79, 0
1, 380520, Note_on_c, 0, 80, 80
1, 380639, Note_on_c, 0, 80, 0
1, 380640, Note_on_c, 0, 81, 80
1, 380640, Note_on_c, 0, 69, 80
1, 381599, Note_on_c, 0, 81, 0
1, 381599, Note_on_c, 0, 69, 0
1, 381600, Note_on_c, 0, 73, 80
1, 381600, Note_on_c, 0, 61, 80
1, 382559, Note_on_c, 0, 73, 0
1, 382559, Note_on_c, 0, 61, 0
1, 382560, Note_on_c, 0, 76, 80
1, 382560, Note_on_c, 0, 64, 80
1, 383519, Note_on_c, 0, 76, 0
1, 383519, Note_on_c, 0, 64, 0
1, 383520, Note_on_c, 0, 60, 80
1, 383520, Note_on_c, 0, 54, 80
1, 383520, Note_on_c, 0, 48, 80
1, 384479, Note_on_c, 0, 60, 0
1, 384479, Note_on_c, 0, 54, 0
1, 384479, Note_on_c, 0, 48, 0
1, 384480, Note_on_c, 0, 61, 80
1, 384480, Note_on_c, 0, 52, 80
1, 384480, Note_on_c, 0, 49, 80
1, 384719, Note_on_c, 0, 61, 0
1, 384719, Note_on_c, 0, 52, 0
1, 384719, Note_on_c, 0, 49, 0
1, 384720, Note_on_c, 0, 64, 80
1, 384720, Note_on_c, 0, 56, 80
1, 384839, Note_on_c, 0, 64, 0
1, 384839, Note_on_c, 0, 56, 0
1, 384960, Note_on_c, 0, 64, 80
1, 384960, Note_on_c, 0, 56, 80
1, 385079, Note_on_c, 0, 64, 0
1, 385079, Note_on_c, 0, 56, 0
1, 385200, Note_on_c, 0, 64, 80
1, 385200, Note_on_c, 0, 56, 80
1, 385319, Note_on_c, 0, 64, 0
1, 385319, Note_on_c, 0, 56, 0
1, 385440, Note_on_c, 0, 64, 80
1, 385440, Note_on_c, 0, 56, 80
1, 385559, Note_on_c, 0, 64, 0
1, 385559, Note_on_c, 0, 56, 0
1, 385680, Note_on_c, 0, 64, 80
1, 385680, Note_on_c, 0, 56, 80
1, 385799, Note_on_c, 0, 64, 0
1, 385799, Note_on_c, 0, 56, 0
1, 385920, Note_on_c, 0, 63, 80
1, 385920, Note_on_c, 0, 56, 80
1, 386039, Note_on_c, 0, 63, 0
1, 386039, Note_on_c, 0, 56, 0
1, 386160, Note_on_c, 0, 61, 80
1, 386160, Note_on_c, 0, 56, 80
1, 386279, Note_on_c, 0, 61, 0
1, 386279, Note_on_c, 0, 56, 0
1, 386400, Note_on_c, 0, 60, 80
1, 386400, Note_on_c, 0, 56, 80
1, 386639, Note_on_c, 0, 60, 0
1, 386639, Note_on_c, 0, 56, 0
1, 386640, Note_on_c, 0, 68, 80
1, 386640, Note_on_c, 0, 60, 80
1, 386879, Note_on_c, 0, 68, 0
1, 386879, Note_on_c, 0, 60, 0
1, 386880, Note_on_c, 0, 68, 80
1, 386880, Note_on_c, 0, 60, 80
1, 387119, Note_on_c, 0, 68, 0
1, 387119, Note_on_c, 0, 60, 0
1, 387120, Note_on_c, 0, 68, 80
1, 387120, Note_on_c, 0, 60, 80
1, 387359, Note_on_c, 0, 68, 0
1, 387359, Note_on_c, 0, 60, 0
1, 387360, Note_on_c, 0, 68, 80
1, 387360, Note_on_c, 0, 60, 80
1, 387599, Note_on_c, 0, 68, 0
1, 387599, Note_on_c, 0, 60, 0
1, 387600, Note_on_c, 0, 68, 80
1, 387600, Note_on_c, 0, 60, 80
1, 387839, Note_on_c, 0, 68, 0
1, 387839, Note_on_c, 0, 60, 0
1, 387840, Note_on_c, 0, 68, 80
1, 387840, Note_on_c, 0, 61, 80
1, 388079, Note_on_c, 0, 68, 0
1, 388079, Note_on_c, 0, 61, 0
1, 388080, Note_on_c, 0, 68, 80
1, 388080, Note_on_c, 0, 63, 80
1, 388319, Note_on_c, 0, 68, 0
1, 388319, Note_on_c, 0, 63, 0
1, 388320, Note_on_c, 0, 68, 80
1, 388320, Note_on_c, 0, 64, 80
1, 388439, Note_on_c, 0, 68, 0
1, 388439, Note_on_c, 0, 64, 0
1, 388560, Note_on_c, 0, 68, 80
1, 388560, Note_on_c, 0, 64, 80
1, 388679, Note_on_c, 0, 68, 0
1, 388679, Note_on_c, 0, 64, 0
1, 388800, Note_on_c, 0, 68, 80
1, 388800, Note_on_c, 0, 64, 80
1, 389039, Note_on_c, 0, 68, 0
1, 389039, Note_on_c, 0, 64, 0
1, 389040, Note_on_c, 0, 64, 80
1, 389040, Note_on_c, 0, 61, 80
1, 389279, Note_on_c, 0, 64, 0
1, 389279, Note_on_c, 0, 61, 0
1, 389520, Note_on_c, 0, 69, 80
1, 389520, Note_on_c, 0, 66, 80
1, 389639, Note_on_c, 0, 69, 0
1, 389639, Note_on_c, 0, 66, 0
1, 389760, Note_on_c, 0, 69, 80
1, 389760, Note_on_c, 0, 66, 80
1, 389999, Note_on_c, 0, 69, 0
1, 389999, Note_on_c, 0, 66, 0
1, 390000, Note_on_c, 0, 66, 80
1, 390000, Note_on_c, 0, 61, 80
1, 390239, Note_on_c, 0, 66, 0
1, 390239, Note_on_c, 0, 61, 0
1, 390480, Note_on_c, 0, 68, 80
1, 390480, Note_on_c, 0, 64, 80
1, 390599, Note_on_c, 0, 68, 0
1, 390599, Note_on_c, 0, 64, 0
1, 390720, Note_on_c, 0, 68, 80
1, 390720, Note_on_c, 0, 64, 80
1, 390959, Note_on_c, 0, 68, 0
1, 390959, Note_on_c, 0, 64, 0
1, 390960, Note_on_c, 0, 64, 80
1, 390960, Note_on_c, 0, 61, 80
1, 391199, Note_on_c, 0, 64, 0
1, 391199, Note_on_c, 0, 61, 0
1, 391440, Note_on_c, 0, 68, 80
1, 391440, Note_on_c, 0, 63, 80
1, 391559, Note_on_c, 0, 68, 0
1, 391559, Note_on_c, 0, 63, 0
1, 391680, Note_on_c, 0, 68, 80
1, 391680, Note_on_c, 0, 63, 80
1, 391919, Note_on_c, 0, 68, 0
1, 391919, Note_on_c, 0, 63, 0
1, 391920, Note_on_c, 0, 63, 80
1, 391920, Note_on_c, 0, 60, 80
1, 392159, Note_on_c, 0, 63, 0
1, 392159, Note_on_c, 0, 60, 0
1, 392160, Note_on_c, 0, 68, 80
1, 392160, Note_on_c, 0, 64, 80
1, 392160, Note_on_c, 0, 61, 80
1, 392399, Note_on_c, 0, 68, 0
1, 392399, Note_on_c, 0, 64, 0
1, 392399, Note_on_c, 0, 61, 0
1, 392400, Note_on_c, 0, 76, 80
1, 392400, Note_on_c, 0, 68, 80
1, 392400, Note_on_c, 0, 64, 80
1, 392639, Note_on_c, 0, 76, 0
1, 392639, Note_on_c, 0, 68, 0
1, 392639, Note_on_c, 0, 64, 0
1, 392640, Note_on_c, 0, 76, 80
1, 392640, Note_on_c, 0, 68, 80
1, 392640, Note_on_c, 0, 64, 80
1, 392879, Note_on_c, 0, 76, 0
1, 392879, Note_on_c, 0, 68, 0
1, 392879, Note_on_c, 0, 64, 0
1, 392880, Note_on_c, 0, 76, 80
1, 392880, Note_on_c, 0, 68, 80
1, 392880, Note_on_c, 0, 64, 80
1, 393119, Note_on_c, 0, 76, 0
1, 393119, Note_on_c, 0, 68, 0
1, 393119, Note_on_c, 0, 64, 0
1, 393120, Note_on_c, 0, 76, 80
1, 393120, Note_on_c, 0, 68, 80
1, 393120, Note_on_c, 0, 64, 80
1, 393359, Note_on_c, 0, 76, 0
1, 393359, Note_on_c, 0, 68, 0
1, 393359, Note_on_c, 0, 64, 0
1, 393360, Note_on_c, 0, 76, 80
1, 393360, Note_on_c, 0, 68, 80
1, 393360, Note_on_c, 0, 64, 80
1, 393599, Note_on_c, 0, 76, 0
1, 393599, Note_on_c, 0, 68, 0
1, 393599, Note_on_c, 0, 64, 0
1, 393600, Note_on_c, 0, 75, 80
1, 393600, Note_on_c, 0, 66, 80
1, 393600, Note_on_c, 0, 63, 80
1, 393839, Note_on_c, 0, 75, 0
1, 393839, Note_on_c, 0, 66, 0
1, 393839, Note_on_c, 0, 63, 0
1, 393840, Note_on_c, 0, 73, 80
1, 393840, Note_on_c, 0, 64, 80
1, 393840, Note_on_c, 0, 61, 80
1, 394079, Note_on_c, 0, 73, 0
1, 394079, Note_on_c, 0, 64, 0
1, 394079, Note_on_c, 0, 61, 0
1, 394080, Note_on_c, 0, 72, 80
1, 394080, Note_on_c, 0, 63, 80
1, 394080, Note_on_c, 0, 60, 80
1, 394319, Note_on_c, 0, 72, 0
1, 394319, Note_on_c, 0, 63, 0
1, 394319, Note_on_c, 0, 60, 0
1, 394320, Note_on_c, 0, 84, 80
1, 394320, Note_on_c, 0, 75, 80
1, 394320, Note_on_c, 0, 72, 80
1, 394559, Note_on_c, 0, 84, 0
1, 394559, Note_on_c, 0, 75, 0
1, 394559, Note_on_c, 0, 72, 0
1, 394560, Note_on_c, 0, 84, 80
1, 394560, Note_on_c, 0, 75, 80
1, 394560, Note_on_c, 0, 72, 80
1, 394799, Note_on_c, 0, 84, 0
1, 394799, Note_on_c, 0, 75, 0
1, 394799, Note_on_c, 0, 72, 0
1, 394800, Note_on_c, 0, 84, 80
1, 394800, Note_on_c, 0, 75, 80
1, 394800, Note_on_c, 0, 72, 80
1, 395039, Note_on_c, 0, 84, 0
1, 395039, Note_on_c, 0, 75, 0
1, 395039, Note_on_c, 0, 72, 0
1, 395040, Note_on_c, 0, 84, 80
1, 395040, Note_on_c, 0, 75, 80
1, 395040, Note_on_c, 0, 72, 80
1, 395279, Note_on_c, 0, 84, 0
1, 395279, Note_on_c, 0, 75, 0
1, 395279, Note_on_c, 0, 72, 0
1, 395280, Note_on_c, 0, 84, 80
1, 395280, Note_on_c, 0, 75, 80
1, 395280, Note_on_c, 0, 72, 80
1, 395519, Note_on_c, 0, 84, 0
1, 395519, Note_on_c, 0, 75, 0
1, 395519, Note_on_c, 0, 72, 0
1, 395520, Note_on_c, 0, 85, 80
1, 395520, Note_on_c, 0, 76, 80
1, 395520, Note_on_c, 0, 73, 80
1, 395759, Note_on_c, 0, 85, 0
1, 395759, Note_on_c, 0, 76, 0
1, 395759, Note_on_c, 0, 73, 0
1, 395760, Note_on_c, 0, 87, 80
1, 395760, Note_on_c, 0, 78, 80
1, 395760, Note_on_c, 0, 75, 80
1, 395999, Note_on_c, 0, 87, 0
1, 395999, Note_on_c, 0, 78, 0
1, 395999, Note_on_c, 0, 75, 0
1, 396000, Note_on_c, 0, 88, 80
1, 396000, Note_on_c, 0, 80, 80
1, 396000, Note_on_c, 0, 76, 80
1, 396239, Note_on_c, 0, 88, 0
1, 396239, Note_on_c, 0, 80, 0
1, 396239, Note_on_c, 0, 76, 0
1, 396240, Note_on_c, 0, 76, 80
1, 396240, Note_on_c, 0, 68, 80
1, 396240, Note_on_c, 0, 64, 80
1, 396479, Note_on_c, 0, 76, 0
1, 396479, Note_on_c, 0, 68, 0
1, 396479, Note_on_c, 0, 64, 0
1, 396480, Note_on_c, 0, 76, 80
1, 396480, Note_on_c, 0, 68, 80
1, 396480, Note_on_c, 0, 64, 80
1, 396719, Note_on_c, 0, 76, 0
1, 396719, Note_on_c, 0, 68, 0
1, 396719, Note_on_c, 0, 64, 0
1, 396720, Note_on_c, 0, 76, 80
1, 396720, Note_on_c, 0, 68, 80
1, 396720, Note_on_c, 0, 64, 80
1, 396959, Note_on_c, 0, 76, 0
1, 396959, Note_on_c, 0, 68, 0
1, 396959, Note_on_c, 0, 64, 0
1, 396960, Note_on_c, 0, 76, 80
1, 396960, Note_on_c, 0, 68, 80
1, 396960, Note_on_c, 0, 64, 80
1, 397199, Note_on_c, 0, 76, 0
1, 397199, Note_on_c, 0, 68, 0
1, 397199, Note_on_c, 0, 64, 0
1, 397200, Note_on_c, 0, 76, 80
1, 397200, Note_on_c, 0, 68, 80
1, 397200, Note_on_c, 0, 64, 80
1, 397439, Note_on_c, 0, 76, 0
1, 397439, Note_on_c, 0, 68, 0
1, 397439, Note_on_c, 0, 64, 0
1, 397440, Note_on_c, 0, 75, 80
1, 397440, Note_on_c, 0, 66, 80
1, 397440, Note_on_c, 0, 63, 80
1, 397679, Note_on_c, 0, 75, 0
1, 397679, Note_on_c, 0, 66, 0
1, 397679, Note_on_c, 0, 63, 0
1, 397680, Note_on_c, 0, 73, 80
1, 397680, Note_on_c, 0, 64, 80
1, 397680, Note_on_c, 0, 61, 80
1, 397919, Note_on_c, 0, 73, 0
1, 397919, Note_on_c, 0, 64, 0
1, 397919, Note_on_c, 0, 61, 0
1, 397920, Note_on_c, 0, 72, 80
1, 397920, Note_on_c, 0, 63, 80
1, 397920, Note_on_c, 0, 60, 80
1, 398159, Note_on_c, 0, 72, 0
1, 398159, Note_on_c, 0, 63, 0
1, 398159, Note_on_c, 0, 60, 0
1, 398160, Note_on_c, 0, 84, 80
1, 398160, Note_on_c, 0, 75, 80
1, 398160, Note_on_c, 0, 72, 80
1, 398399, Note_on_c, 0, 84, 0
1, 398399, Note_on_c, 0, 75, 0
1, 398399, Note_on_c, 0, 72, 0
1, 398400, Note_on_c, 0, 84, 80
1, 398400, Note_on_c, 0, 75, 80
1, 398400, Note_on_c, 0, 72, 80
1, 398639, Note_on_c, 0, 84, 0
1, 398639, Note_on_c, 0, 75, 0
1, 398639, Note_on_c, 0, 72, 0
1, 398640, Note_on_c, 0, 84, 80
1, 398640, Note_on_c, 0, 75, 80
1, 398640, Note_on_c, 0, 72, 80
1, 398879, Note_on_c, 0, 84, 0
1, 398879, Note_on_c, 0, 75, 0
1, 398879, Note_on_c, 0, 72, 0
1, 398880, Note_on_c, 0, 84, 80
1, 398880, Note_on_c, 0, 75, 80
1, 398880, Note_on_c, 0, 72, 80
1, 399119, Note_on_c, 0, 84, 0
1, 399119, Note_on_c, 0, 75, 0
1, 399119, Note_on_c, 0, 72, 0
1, 399120, Note_on_c, 0, 84, 80
1, 399120, Note_on_c, 0, 75, 80
1, 399120, Note_on_c, 0, 72, 80
1, 399359, Note_on_c, 0, 84, 0
1, 399359, Note_on_c, 0, 75, 0
1, 399359, Note_on_c, 0, 72, 0
1, 399360, Note_on_c, 0, 85, 80
1, 399360, Note_on_c, 0, 76, 80
1, 399360, Note_on_c, 0, 73, 80
1, 399599, Note_on_c, 0, 85, 0
1, 399599, Note_on_c, 0, 76, 0
1, 399599, Note_on_c, 0, 73, 0
1, 399600, Note_on_c, 0, 87, 80
1, 399600, Note_on_c, 0, 78, 80
1, 399600, Note_on_c, 0, 75, 80
1, 399839, Note_on_c, 0, 87, 0
1, 399839, Note_on_c, 0, 78, 0
1, 399839, Note_on_c, 0, 75, 0
1, 399840, Note_on_c, 0, 88, 80
1, 399840, Note_on_c, 0, 80, 80
1, 399840, Note_on_c, 0, 76, 80
1, 400079, Note_on_c, 0, 88, 0
1, 400079, Note_on_c, 0, 80, 0
1, 400079, Note_on_c, 0, 76, 0
1, 400080, Note_on_c, 0, 85, 80
1, 400080, Note_on_c, 0, 80, 80
1, 400199, Note_on_c, 0, 85, 0
1, 400199, Note_on_c, 0, 80, 0
1, 400320, Note_on_c, 0, 85, 80
1, 400320, Note_on_c, 0, 80, 80
1, 400559, Note_on_c, 0, 85, 0
1, 400559, Note_on_c, 0, 80, 0
1, 400560, Note_on_c, 0, 80, 80
1, 400560, Note_on_c, 0, 76, 80
1, 400799, Note_on_c, 0, 80, 0
1, 400799, Note_on_c, 0, 76, 0
1, 401040, Note_on_c, 0, 85, 80
1, 401040, Note_on_c, 0, 81, 80
1, 401159, Note_on_c, 0, 85, 0
1, 401159, Note_on_c, 0, 81, 0
1, 401280, Note_on_c, 0, 85, 80
1, 401280, Note_on_c, 0, 81, 80
1, 401519, Note_on_c, 0, 85, 0
1, 401519, Note_on_c, 0, 81, 0
1, 401520, Note_on_c, 0, 81, 80
1, 401520, Note_on_c, 0, 78, 80
1, 401759, Note_on_c, 0, 81, 0
1, 401759, Note_on_c, 0, 78, 0
1, 402000, Note_on_c, 0, 80, 80
1, 402000, Note_on_c, 0, 76, 80
1, 402119, Note_on_c, 0, 80, 0
1, 402119, Note_on_c, 0, 76, 0
1, 402240, Note_on_c, 0, 80, 80
1, 402240, Note_on_c, 0, 76, 80
1, 402479, Note_on_c, 0, 80, 0
1, 402479, Note_on_c, 0, 76, 0
1, 402480, Note_on_c, 0, 76, 80
1, 402480, Note_on_c, 0, 73, 80
1, 402719, Note_on_c, 0, 76, 0
1, 402719, Note_on_c, 0, 73, 0
1, 402960, Note_on_c, 0, 80, 80
1, 402960, Note_on_c, 0, 75, 80
1, 403079, Note_on_c, 0, 80, 0
1, 403079, Note_on_c, 0, 75, 0
1, 403200, Note_on_c, 0, 80, 80
1, 403200, Note_on_c, 0, 75, 80
1, 403439, Note_on_c, 0, 80, 0
1, 403439, Note_on_c, 0, 75, 0
1, 403440, Note_on_c, 0, 75, 80
1, 403440, Note_on_c, 0, 72, 80
1, 403679, Note_on_c, 0, 75, 0
1, 403679, Note_on_c, 0, 72, 0
1, 403920, Note_on_c, 0, 80, 80
1, 403920, Note_on_c, 0, 73, 80
1, 404039, Note_on_c, 0, 80, 0
1, 404039, Note_on_c, 0, 73, 0
1, 404160, Note_on_c, 0, 80, 80
1, 404160, Note_on_c, 0, 73, 80
1, 404399, Note_on_c, 0, 80, 0
1, 404399, Note_on_c, 0, 73, 0
1, 404400, Note_on_c, 0, 76, 80
1, 404400, Note_on_c, 0, 68, 80
1, 404639, Note_on_c, 0, 76, 0
1, 404639, Note_on_c, 0, 68, 0
1, 404880, Note_on_c, 0, 78, 80
1, 404880, Note_on_c, 0, 69, 80
1, 404999, Note_on_c, 0, 78, 0
1, 404999, Note_on_c, 0, 69, 0
1, 405120, Note_on_c, 0, 78, 80
1, 405120, Note_on_c, 0, 69, 80
1, 405359, Note_on_c, 0, 78, 0
1, 405359, Note_on_c, 0, 69, 0
1, 405360, Note_on_c, 0, 74, 80
1, 405360, Note_on_c, 0, 66, 80
1, 405599, Note_on_c, 0, 74, 0
1, 405599, Note_on_c, 0, 66, 0
1, 405840, Note_on_c, 0, 76, 80
1, 405840, Note_on_c, 0, 68, 80
1, 405959, Note_on_c, 0, 76, 0
1, 405959, Note_on_c, 0, 68, 0
1, 406080, Note_on_c, 0, 76, 80
1, 406080, Note_on_c, 0, 68, 80
1, 406319, Note_on_c, 0, 76, 0
1, 406319, Note_on_c, 0, 68, 0
1, 406320, Note_on_c, 0, 73, 80
1, 406320, Note_on_c, 0, 64, 80
1, 406559, Note_on_c, 0, 73, 0
1, 406559, Note_on_c, 0, 64, 0
1, 406800, Note_on_c, 0, 75, 80
1, 406800, Note_on_c, 0, 66, 80
1, 406919, Note_on_c, 0, 75, 0
1, 406919, Note_on_c, 0, 66, 0
1, 407040, Note_on_c, 0, 75, 80
1, 407040, Note_on_c, 0, 66, 80
1, 407279, Note_on_c, 0, 75, 0
1, 407279, Note_on_c, 0, 66, 0
1, 407280, Note_on_c, 0, 72, 80
1, 407280, Note_on_c, 0, 63, 80
1, 407519, Note_on_c, 0, 72, 0
1, 407519, Note_on_c, 0, 63, 0
1, 407520, Note_on_c, 0, 73, 80
1, 407520, Note_on_c, 0, 64, 80
1, 407999, Note_on_c, 0, 73, 0
1, 407999, Note_on_c, 0, 64, 0
1, 408960, Note_on_c, 0, 64, 80
1, 409319, Note_on_c, 0, 64, 0
1, 409320, Note_on_c, 0, 61, 80
1, 409439, Note_on_c, 0, 61, 0
1, 409440, Note_on_c, 0, 60, 80
1, 409919, Note_on_c, 0, 60, 0
1, 409920, Note_on_c, 0, 68, 80
1, 409920, Note_on_c, 0, 60, 80
1, 409920, Note_on_c, 0, 54, 80
1, 410159, Note_on_c, 0, 68, 0
1, 410159, Note_on_c, 0, 60, 0
1, 410159, Note_on_c, 0, 54, 0
1, 410400, Note_on_c, 0, 68, 80
1, 410400, Note_on_c, 0, 60, 80
1, 410400, Note_on_c, 0, 54, 80
1, 410639, Note_on_c, 0, 68, 0
1, 410639, Note_on_c, 0, 60, 0
1, 410639, Note_on_c, 0, 54, 0
1, 410880, Note_on_c, 0, 68, 80
1, 410880, Note_on_c, 0, 60, 80
1, 410880, Note_on_c, 0, 54, 80
1, 411059, Note_on_c, 0, 68, 0
1, 411059, Note_on_c, 0, 60, 0
1, 411059, Note_on_c, 0, 54, 0
1, 411240, Note_on_c, 0, 52, 80
1, 411299, Note_on_c, 0, 52, 0
1, 411300, Note_on_c, 0, 61, 80
1, 411359, Note_on_c, 0, 61, 0
1, 411360, Note_on_c, 0, 68, 80
1, 412799, Note_on_c, 0, 68, 0
1, 412800, Note_on_c, 0, 76, 80
1, 413159, Note_on_c, 0, 76, 0
1, 413160, Note_on_c, 0, 73, 80
1, 413279, Note_on_c, 0, 73, 0
1, 413280, Note_on_c, 0, 72, 80
1, 413759, Note_on_c, 0, 72, 0
1, 413760, Note_on_c, 0, 80, 80
1, 413760, Note_on_c, 0, 72, 80
1, 413760, Note_on_c, 0, 66, 80
1, 413999, Note_on_c, 0, 80, 0
1, 413999, Note_on_c, 0, 72, 0
1, 413999, Note_on_c, 0, 66, 0
1, 414240, Note_on_c, 0, 80, 80
1, 414240, Note_on_c, 0, 72, 80
1, 414240, Note_on_c, 0, 66, 80
1, 414479, Note_on_c, 0, 80, 0
1, 414479, Note_on_c, 0, 72, 0
1, 414479, Note_on_c, 0, 66, 0
1, 414720, Note_on_c, 0, 80, 80
1, 414720, Note_on_c, 0, 72, 80
1, 414720, Note_on_c, 0, 66, 80
1, 414899, Note_on_c, 0, 80, 0
1, 414899, Note_on_c, 0, 72, 0
1, 414899, Note_on_c, 0, 66, 0
1, 415080, Note_on_c, 0, 64, 80
1, 415139, Note_on_c, 0, 64, 0
1, 415140, Note_on_c, 0, 73, 80
1, 415199, Note_on_c, 0, 73, 0
1, 415200, Note_on_c, 0, 80, 80
1, 416039, Note_on_c, 0, 80, 0
1, 416040, Note_on_c, 0, 66, 80
1, 416099, Note_on_c, 0, 66, 0
1, 416100, Note_on_c, 0, 72, 80
1, 416159, Note_on_c, 0, 72, 0
1, 416160, Note_on_c, 0, 80, 80
1, 416999, Note_on_c, 0, 80, 0
1, 417000, Note_on_c, 0, 64, 80
1, 417059, Note_on_c, 0, 64, 0
1, 417060, Note_on_c, 0, 73, 80
1, 417119, Note_on_c, 0, 73, 0
1, 417120, Note_on_c, 0, 80, 80
1, 417959, Note_on_c, 0, 80, 0
1, 417960, Note_on_c, 0, 66, 80
1, 418019, Note_on_c, 0, 66, 0
1, 418020, Note_on_c, 0, 72, 80
1, 418079, Note_on_c, 0, 72, 0
1, 418080, Note_on_c, 0, 80, 80
1, 419039, Note_on_c, 0, 80, 0
1, 423840, Note_on_c, 0, 66, 80
1, 423959, Note_on_c, 0, 66, 0
1, 423960, Note_on_c, 0, 57, 80
1, 424079, Note_on_c, 0, 57, 0
1, 424080, Note_on_c, 0, 61, 80
1, 424199, Note_on_c, 0, 61, 0
1, 424200, Note_on_c, 0, 66, 80
1, 424319, Note_on_c, 0, 66, 0
1, 424320, Note_on_c, 0, 69, 80
1, 424439, Note_on_c, 0, 69, 0
1, 424440, Note_on_c, 0, 61, 80
1, 424559, Note_on_c, 0, 61, 0
1, 424560, Note_on_c, 0, 66, 80
1, 424679, Note_on_c, 0, 66, 0
1, 424680, Note_on_c, 0, 69, 80
1, 424799, Note_on_c, 0, 69, 0
1, 424800, Note_on_c, 0, 73, 80
1, 424919, Note_on_c, 0, 73, 0
1, 424920, Note_on_c, 0, 66, 80
1, 425039, Note_on_c, 0, 66, 0
1, 425040, Note_on_c, 0, 69, 80
1, 425159, Note_on_c, 0, 69, 0
1, 425160, Note_on_c, 0, 73, 80
1, 425279, Note_on_c, 0, 73, 0
1, 425280, Note_on_c, 0, 78, 80
1, 425399, Note_on_c, 0, 78, 0
1, 425400, Note_on_c, 0, 69, 80
1, 425519, Note_on_c, 0, 69, 0
1, 425520, Note_on_c, 0, 73, 80
1, 425639, Note_on_c, 0, 73, 0
1, 425640, Note_on_c, 0, 78, 80
1, 425759, Note_on_c, 0, 78, 0
1, 425760, Note_on_c, 0, 81, 80
1, 425879, Note_on_c, 0, 81, 0
1, 425880, Note_on_c, 0, 73, 80
1, 425999, Note_on_c, 0, 73, 0
1, 426000, Note_on_c, 0, 78, 80
1, 426119, Note_on_c, 0, 78, 0
1, 426120, Note_on_c, 0, 81, 80
1, 426239, Note_on_c, 0, 81, 0
1, 426240, Note_on_c, 0, 85, 80
1, 426240, Note_on_c, 0, 81, 80
1, 426240, Note_on_c, 0, 78, 80
1, 426240, Note_on_c, 0, 73, 80
1, 426479, Note_on_c, 0, 85, 0
1, 426479, Note_on_c, 0, 81, 0
1, 426479, Note_on_c, 0, 78, 0
1, 426479, Note_on_c, 0, 73, 0
1, 426480, Note_on_c, 0, 85, 80
1, 426480, Note_on_c, 0, 81, 80
1, 426480, Note_on_c, 0, 78, 80
1, 426480, Note_on_c, 0, 73, 80
1, 426599, Note_on_c, 0, 85, 0
1, 426599, Note_on_c, 0, 81, 0
1, 426599, Note_on_c, 0, 78, 0
1, 426599, Note_on_c, 0, 73, 0
1, 427680, Note_on_c, 0, 64, 80
1, 427799, Note_on_c, 0, 64, 0
1, 427800, Note_on_c, 0, 56, 80
1, 427919, Note_on_c, 0, 56, 0
1, 427920, Note_on_c, 0, 61, 80
1, 428039, Note_on_c, 0, 61, 0
1, 428040, Note_on_c, 0, 64, 80
1, 428159, Note_on_c, 0, 64, 0
1, 428160, Note_on_c, 0, 68, 80
1, 428279, Note_on_c, 0, 68, 0
1, 428280, Note_on_c, 0, 61, 80
1, 428399, Note_on_c, 0, 61, 0
1, 428400, Note_on_c, 0, 64, 80
1, 428519, Note_on_c, 0, 64, 0
1, 428520, Note_on_c, 0, 68, 80
1, 428639, Note_on_c, 0, 68, 0
1, 428640, Note_on_c, 0, 73, 80
1, 428759, Note_on_c, 0, 73, 0
1, 428760, Note_on_c, 0, 64, 80
1, 428879, Note_on_c, 0, 64, 0
1, 428880, Note_on_c, 0, 68, 80
1, 428999, Note_on_c, 0, 68, 0
1, 429000, Note_on_c, 0, 73, 80
1, 429119, Note_on_c, 0, 73, 0
1, 429120, Note_on_c, 0, 76, 80
1, 429239, Note_on_c, 0, 76, 0
1, 429240, Note_on_c, 0, 68, 80
1, 429359, Note_on_c, 0, 68, 0
1, 429360, Note_on_c, 0, 73, 80
1, 429479, Note_on_c, 0, 73, 0
1, 429480, Note_on_c, 0, 76, 80
1, 429599, Note_on_c, 0, 76, 0
1, 429600, Note_on_c, 0, 80, 80
1, 429719, Note_on_c, 0, 80, 0
1, 429720, Note_on_c, 0, 73, 80
1, 429839, Note_on_c, 0, 73, 0
1, 429840, Note_on_c, 0, 76, 80
1, 429959, Note_on_c, 0, 76, 0
1, 429960, Note_on_c, 0, 80, 80
1, 430079, Note_on_c, 0, 80, 0
1, 430080, Note_on_c, 0, 85, 80
1, 430080, Note_on_c, 0, 80, 80
1, 430080, Note_on_c, 0, 76, 80
1, 430080, Note_on_c, 0, 73, 80
1, 430319, Note_on_c, 0, 85, 0
1, 430319, Note_on_c, 0, 80, 0
1, 430319, Note_on_c, 0, 76, 0
1, 430319, Note_on_c, 0, 73, 0
1, 430320, Note_on_c, 0, 85, 80
1, 430320, Note_on_c, 0, 80, 80
1, 430320, Note_on_c, 0, 76, 80
1, 430320, Note_on_c, 0, 73, 80
1, 430439, Note_on_c, 0, 85, 0
1, 430439, Note_on_c, 0, 80, 0
1, 430439, Note_on_c, 0, 76, 0
1, 430439, Note_on_c, 0, 73, 0
1, 431760, Note_on_c, 0, 61, 80
1, 431820, Note_on_c, 0, 64, 80
1, 431880, Note_on_c, 0, 67, 80
1, 431940, Note_on_c, 0, 70, 80
1, 432000, Note_on_c, 0, 73, 80
1, 432480, Time_signature, 6, 2, 24, 8
1, 432719, Note_on_c, 0, 73, 0
1, 432719, Note_on_c, 0, 61, 0
1, 432720, Note_on_c, 0, 73, 80
1, 432779, Note_on_c, 0, 64, 0
1, 432780, Note_on_c, 0, 76, 80
1, 432839, Note_on_c, 0, 67, 0
1, 432840, Note_on_c, 0, 79, 80
1, 432899, Note_on_c, 0, 70, 0
1, 432900, Note_on_c, 0, 82, 80
1, 432960, Note_on_c, 0, 85, 80
1, 434879, Note_on_c, 0, 85, 0
1, 434879, Note_on_c, 0, 73, 0
1, 434939, Note_on_c, 0, 76, 0
1, 434999, Note_on_c, 0, 79, 0
1, 435059, Note_on_c, 0, 82, 0
1, 435360, Time_signature, 4, 2, 24, 8
1, 436560, Note_on_c, 0, 57, 80
1, 436620, Note_on_c, 0, 60, 80
1, 436680, Note_on_c, 0, 63, 80
1, 436740, Note_on_c, 0, 66, 80
1, 436800, Note_on_c, 0, 69, 80
1, 437280, Time_signature, 6, 2, 24, 8
1, 437519, Note_on_c, 0, 69, 0
1, 437519, Note_on_c, 0, 57, 0
1, 437520, Note_on_c, 0, 66, 80
1, 437579, Note_on_c, 0, 60, 0
1, 437580, Note_on_c, 0, 69, 80
1, 437639, Note_on_c, 0, 63, 0
1, 437640, Note_on_c, 0, 72, 80
1, 437699, Note_on_c, 0, 66, 0
1, 437700, Note_on_c, 0, 75, 80
1, 437759, Note_on_c, 0, 66, 0
1, 437760, Note_on_c, 0, 81, 80
1, 439679, Note_on_c, 0, 81, 0
1, 439739, Note_on_c, 0, 69, 0
1, 439799, Note_on_c, 0, 72, 0
1, 439859, Note_on_c, 0, 75, 0
1, 440160, Time_signature, 4, 2, 24, 8
1, 440280, Note_on_c, 0, 68, 80
1, 440399, Note_on_c, 0, 68, 0
1, 440400, Note_on_c, 0, 64, 80
1, 440519, Note_on_c, 0, 64, 0
1, 440520, Note_on_c, 0, 68, 80
1, 440639, Note_on_c, 0, 68, 0
1, 440640, Note_on_c, 0, 61, 80
1, 440759, Note_on_c, 0, 61, 0
1, 440760, Note_on_c, 0, 68, 80
1, 440879, Note_on_c, 0, 68, 0
1, 440880, Note_on_c, 0, 64, 80
1, 440999, Note_on_c, 0, 64, 0
1, 441000, Note_on_c, 0, 68, 80
1, 441119, Note_on_c, 0, 68, 0
1, 441120, Note_on_c, 0, 61, 80
1, 441239, Note_on_c, 0, 61, 0
1, 441240, Note_on_c, 0, 68, 80
1, 441359, Note_on_c, 0, 68, 0
1, 441360, Note_on_c, 0, 64, 80
1, 441479, Note_on_c, 0, 64, 0
1, 441480, Note_on_c, 0, 68, 80
1, 441599, Note_on_c, 0, 68, 0
1, 441600, Note_on_c, 0, 61, 80
1, 441719, Note_on_c, 0, 61, 0
1, 441720, Note_on_c, 0, 68, 80
1, 441839, Note_on_c, 0, 68, 0
1, 441840, Note_on_c, 0, 64, 80
1, 441959, Note_on_c, 0, 64, 0
1, 441960, Note_on_c, 0, 68, 80
1, 442079, Note_on_c, 0, 68, 0
1, 442080, Note_on_c, 0, 63, 80
1, 442199, Note_on_c, 0, 63, 0
1, 442200, Note_on_c, 0, 68, 80
1, 442319, Note_on_c, 0, 68, 0
1, 442320, Note_on_c, 0, 66, 80
1, 442439, Note_on_c, 0, 66, 0
1, 442440, Note_on_c, 0, 68, 80
1, 442559, Note_on_c, 0, 68, 0
1, 442560, Note_on_c, 0, 63, 80
1, 442679, Note_on_c, 0, 63, 0
1, 442680, Note_on_c, 0, 68, 80
1, 442799, Note_on_c, 0, 68, 0
1, 442800, Note_on_c, 0, 66, 80
1, 442919, Note_on_c, 0, 66, 0
1, 442920, Note_on_c, 0, 68, 80
1, 443039, Note_on_c, 0, 68, 0
1, 443040, Note_on_c, 0, 63, 80
1, 443159, Note_on_c, 0, 63, 0
1, 443160, Note_on_c, 0, 68, 80
1, 443279, Note_on_c, 0, 68, 0
1, 443280, Note_on_c, 0, 66, 80
1, 443399, Note_on_c, 0, 66, 0
1, 443400, Note_on_c, 0, 68, 80
1, 443519, Note_on_c, 0, 68, 0
1, 443520, Note_on_c, 0, 63, 80
1, 443639, Note_on_c, 0, 63, 0
1, 443640, Note_on_c, 0, 68, 80
1, 443759, Note_on_c, 0, 68, 0
1, 443760, Note_on_c, 0, 66, 80
1, 443879, Note_on_c, 0, 66, 0
1, 443880, Note_on_c, 0, 68, 80
1, 443999, Note_on_c, 0, 68, 0
1, 444000, Note_on_c, 0, 61, 80
1, 444119, Note_on_c, 0, 61, 0
1, 444120, Note_on_c, 0, 68, 80
1, 444239, Note_on_c, 0, 68, 0
1, 444240, Note_on_c, 0, 64, 80
1, 444359, Note_on_c, 0, 64, 0
1, 444360, Note_on_c, 0, 68, 80
1, 444479, Note_on_c, 0, 68, 0
1, 444480, Note_on_c, 0, 61, 80
1, 444599, Note_on_c, 0, 61, 0
1, 444600, Note_on_c, 0, 68, 80
1, 444719, Note_on_c, 0, 68, 0
1, 444720, Note_on_c, 0, 64, 80
1, 444839, Note_on_c, 0, 64, 0
1, 444840, Note_on_c, 0, 68, 80
1, 444959, Note_on_c, 0, 68, 0
1, 444960, Note_on_c, 0, 61, 80
1, 445079, Note_on_c, 0, 61, 0
1, 445080, Note_on_c, 0, 68, 80
1, 445199, Note_on_c, 0, 68, 0
1, 445200, Note_on_c, 0, 64, 80
1, 445319, Note_on_c, 0, 64, 0
1, 445320, Note_on_c, 0, 68, 80
1, 445439, Note_on_c, 0, 68, 0
1, 445440, Note_on_c, 0, 61, 80
1, 445559, Note_on_c, 0, 61, 0
1, 445560, Note_on_c, 0, 68, 80
1, 445679, Note_on_c, 0, 68, 0
1, 445680, Note_on_c, 0, 64, 80
1, 445799, Note_on_c, 0, 64, 0
1, 445800, Note_on_c, 0, 68, 80
1, 445919, Note_on_c, 0, 68, 0
1, 445920, Note_on_c, 0, 60, 80
1, 446039, Note_on_c, 0, 60, 0
1, 446040, Note_on_c, 0, 68, 80
1, 446159, Note_on_c, 0, 68, 0
1, 446160, Note_on_c, 0, 66, 80
1, 446279, Note_on_c, 0, 66, 0
1, 446280, Note_on_c, 0, 68, 80
1, 446399, Note_on_c, 0, 68, 0
1, 446400, Note_on_c, 0, 60, 80
1, 446519, Note_on_c, 0, 60, 0
1, 446520, Note_on_c, 0, 68, 80
1, 446639, Note_on_c, 0, 68, 0
1, 446640, Note_on_c, 0, 66, 80
1, 446759, Note_on_c, 0, 66, 0
1, 446760, Note_on_c, 0, 68, 80
1, 446879, Note_on_c, 0, 68, 0
1, 446880, Note_on_c, 0, 60, 80
1, 446999, Note_on_c, 0, 60, 0
1, 447000, Note_on_c, 0, 68, 80
1, 447119, Note_on_c, 0, 68, 0
1, 447120, Note_on_c, 0, 66, 80
1, 447239, Note_on_c, 0, 66, 0
1, 447240, Note_on_c, 0, 68, 80
1, 447359, Note_on_c, 0, 68, 0
1, 447360, Note_on_c, 0, 60, 80
1, 447479, Note_on_c, 0, 60, 0
1, 447480, Note_on_c, 0, 68, 80
1, 447599, Note_on_c, 0, 68, 0
1, 447600, Note_on_c, 0, 66, 80
1, 447719, Note_on_c, 0, 66, 0
1, 447720, Note_on_c, 0, 68, 80
1, 447839, Note_on_c, 0, 68, 0
1, 447840, Note_on_c, 0, 68, 80
1, 447840, Note_on_c, 0, 64, 80
1, 447840, Note_on_c, 0, 61, 80
1, 448079, Note_on_c, 0, 68, 0
1, 448079, Note_on_c, 0, 64, 0
1, 448079, Note_on_c, 0, 61, 0
1, 448320, Note_on_c, 0, 80, 80
1, 448320, Note_on_c, 0, 68, 80
1, 449279, Note_on_c, 0, 80, 0
1, 449279, Note_on_c, 0, 68, 0
1, 449280, Note_on_c, 0, 76, 80
1, 449280, Note_on_c, 0, 64, 80
1, 449639, Note_on_c, 0, 76, 0
1, 449639, Note_on_c, 0, 64, 0
1, 449640, Note_on_c, 0, 73, 80
1, 449640, Note_on_c, 0, 61, 80
1, 449759, Note_on_c, 0, 73, 0
1, 449759, Note_on_c, 0, 61, 0
1, 449760, Note_on_c, 0, 73, 80
1, 449760, Note_on_c, 0, 61, 80
1, 450239, Note_on_c, 0, 73, 0
1, 450239, Note_on_c, 0, 61, 0
1, 450240, Note_on_c, 0, 72, 80
1, 450240, Note_on_c, 0, 60, 80
1, 450959, Note_on_c, 0, 72, 0
1, 450959, Note_on_c, 0, 60, 0
1, 450960, Note_on_c, 0, 72, 80
1, 450960, Note_on_c, 0, 60, 80
1, 451199, Note_on_c, 0, 72, 0
1, 451199, Note_on_c, 0, 60, 0
1, 451200, Note_on_c, 0, 80, 80
1, 451200, Note_on_c, 0, 68, 80
1, 451559, Note_on_c, 0, 80, 0
1, 451559, Note_on_c, 0, 68, 0
1, 451560, Note_on_c, 0, 72, 80
1, 451560, Note_on_c, 0, 60, 80
1, 451679, Note_on_c, 0, 72, 0
1, 451679, Note_on_c, 0, 60, 0
1, 451680, Note_on_c, 0, 75, 80
1, 451680, Note_on_c, 0, 63, 80
1, 452159, Note_on_c, 0, 75, 0
1, 452159, Note_on_c, 0, 63, 0
1, 452160, Note_on_c, 0, 73, 80
1, 452160, Note_on_c, 0, 61, 80
1, 452879, Note_on_c, 0, 73, 0
1, 452879, Note_on_c, 0, 61, 0
1, 452880, Note_on_c, 0, 73, 80
1, 452880, Note_on_c, 0, 61, 80
1, 453119, Note_on_c, 0, 73, 0
1, 453119, Note_on_c, 0, 61, 0
1, 453120, Note_on_c, 0, 80, 80
1, 453120, Note_on_c, 0, 68, 80
1, 453479, Note_on_c, 0, 80, 0
1, 453479, Note_on_c, 0, 68, 0
1, 453480, Note_on_c, 0, 73, 80
1, 453480, Note_on_c, 0, 61, 80
1, 453599, Note_on_c, 0, 73, 0
1, 453599, Note_on_c, 0, 61, 0
1, 453600, Note_on_c, 0, 76, 80
1, 453600, Note_on_c, 0, 64, 80
1, 454079, Note_on_c, 0, 76, 0
1, 454079, Note_on_c, 0, 64, 0
1, 454080, Note_on_c, 0, 75, 80
1, 454080, Note_on_c, 0, 63, 80
1, 454799, Note_on_c, 0, 75, 0
1, 454799, Note_on_c, 0, 63, 0
1, 454800, Note_on_c, 0, 75, 80
1, 454800, Note_on_c, 0, 63, 80
1, 455039, Note_on_c, 0, 75, 0
1, 455039, Note_on_c, 0, 63, 0
1, 455040, Note_on_c, 0, 80, 80
1, 455040, Note_on_c, 0, 68, 80
1, 455399, Note_on_c, 0, 80, 0
1, 455399, Note_on_c, 0, 68, 0
1, 455400, Note_on_c, 0, 75, 80
1, 455400, Note_on_c, 0, 63, 80
1, 455519, Note_on_c, 0, 75, 0
1, 455519, Note_on_c, 0, 63, 0
1, 455520, Note_on_c, 0, 78, 80
1, 455520, Note_on_c, 0, 66, 80
1, 455759, Note_on_c, 0, 78, 0
1, 455759, Note_on_c, 0, 66, 0
1, 455760, Note_on_c, 0, 76, 80
1, 455760, Note_on_c, 0, 64, 80
1, 455999, Note_on_c, 0, 76, 0
1, 455999, Note_on_c, 0, 64, 0
1, 456000, Note_on_c, 0, 85, 80
1, 456000, Note_on_c, 0, 73, 80
1, 456119, Note_on_c, 0, 85, 0
1, 456119, Note_on_c, 0, 73, 0
1, 456240, Note_on_c, 0, 76, 80
1, 456240, Note_on_c, 0, 64, 80
1, 456359, Note_on_c, 0, 76, 0
1, 456359, Note_on_c, 0, 64, 0
1, 456480, Note_on_c, 0, 78, 80
1, 456480, Note_on_c, 0, 66, 80
1, 456719, Note_on_c, 0, 78, 0
1, 456719, Note_on_c, 0, 66, 0
1, 456720, Note_on_c, 0, 77, 80
1, 456720, Note_on_c, 0, 65, 80
1, 456959, Note_on_c, 0, 77, 0
1, 456959, Note_on_c, 0, 65, 0
1, 456960, Note_on_c, 0, 85, 80
1, 456960, Note_on_c, 0, 73, 80
1, 457079, Note_on_c, 0, 85, 0
1, 457079, Note_on_c, 0, 73, 0
1, 457200, Note_on_c, 0, 77, 80
1, 457200, Note_on_c, 0, 65, 80
1, 457319, Note_on_c, 0, 77, 0
1, 457319, Note_on_c, 0, 65, 0
1, 457440, Note_on_c, 0, 80, 80
1, 457440, Note_on_c, 0, 68, 80
1, 457679, Note_on_c, 0, 80, 0
1, 457679, Note_on_c, 0, 68, 0
1, 457680, Note_on_c, 0, 78, 80
1, 457680, Note_on_c, 0, 66, 80
1, 457919, Note_on_c, 0, 78, 0
1, 457919, Note_on_c, 0, 66, 0
1, 457920, Note_on_c, 0, 85, 80
1, 457920, Note_on_c, 0, 73, 80
1, 458039, Note_on_c, 0, 85, 0
1, 458039, Note_on_c, 0, 73, 0
1, 458160, Note_on_c, 0, 78, 80
1, 458160, Note_on_c, 0, 66, 80
1, 458279, Note_on_c, 0, 78, 0
1, 458279, Note_on_c, 0, 66, 0
1, 458400, Note_on_c, 0, 81, 80
1, 458400, Note_on_c, 0, 69, 80
1, 458639, Note_on_c, 0, 81, 0
1, 458639, Note_on_c, 0, 69, 0
1, 458640, Note_on_c, 0, 80, 80
1, 458640, Note_on_c, 0, 68, 80
1, 458879, Note_on_c, 0, 80, 0
1, 458879, Note_on_c, 0, 68, 0
1, 458880, Note_on_c, 0, 85, 80
1, 458880, Note_on_c, 0, 73, 80
1, 458999, Note_on_c, 0, 85, 0
1, 458999, Note_on_c, 0, 73, 0
1, 459120, Note_on_c, 0, 80, 80
1, 459120, Note_on_c, 0, 68, 80
1, 459239, Note_on_c, 0, 80, 0
1, 459239, Note_on_c, 0, 68, 0
1, 459360, Note_on_c, 0, 81, 80
1, 459519, Note_on_c, 0, 81, 0
1, 459520, Note_on_c, 0, 78, 80
1, 459679, Note_on_c, 0, 78, 0
1, 459680, Note_on_c, 0, 73, 80
1, 459839, Note_on_c, 0, 73, 0
1, 459840, Note_on_c, 0, 69, 80
1, 459999, Note_on_c, 0, 69, 0
1, 460000, Note_on_c, 0, 66, 80
1, 460159, Note_on_c, 0, 66, 0
1, 460160, Note_on_c, 0, 61, 80
1, 460319, Note_on_c, 0, 61, 0
1, 460320, Note_on_c, 0, 69, 80
1, 460479, Note_on_c, 0, 69, 0
1, 460480, Note_on_c, 0, 66, 80
1, 460639, Note_on_c, 0, 66, 0
1, 460640, Note_on_c, 0, 61, 80
1, 460799, Note_on_c, 0, 61, 0
1, 462240, Note_on_c, 0, 66, 80
1, 462359, Note_on_c, 0, 66, 0
1, 462360, Note_on_c, 0, 69, 80
1, 462479, Note_on_c, 0, 69, 0
1, 462480, Note_on_c, 0, 73, 80
1, 462599, Note_on_c, 0, 73, 0
1, 462600, Note_on_c, 0, 78, 80
1, 462719, Note_on_c, 0, 78, 0
1, 462720, Note_on_c, 0, 81, 80
1, 462839, Note_on_c, 0, 81, 0
1, 462840, Note_on_c, 0, 78, 80
1, 462959, Note_on_c, 0, 78, 0
1, 462960, Note_on_c, 0, 73, 80
1, 463079, Note_on_c, 0, 73, 0
1, 463080, Note_on_c, 0, 69, 80
1, 463199, Note_on_c, 0, 69, 0
1, 463200, Note_on_c, 0, 81, 80
1, 463359, Note_on_c, 0, 81, 0
1, 463360, Note_on_c, 0, 78, 80
1, 463519, Note_on_c, 0, 78, 0
1, 463520, Note_on_c, 0, 74, 80
1, 463679, Note_on_c, 0, 74, 0
1, 463680, Note_on_c, 0, 69, 80
1, 463839, Note_on_c, 0, 69, 0
1, 463840, Note_on_c, 0, 66, 80
1, 463999, Note_on_c, 0, 66, 0
1, 464000, Note_on_c, 0, 62, 80
1, 464159, Note_on_c, 0, 62, 0
1, 464160, Note_on_c, 0, 69, 80
1, 464319, Note_on_c, 0, 69, 0
1, 464320, Note_on_c, 0, 66, 80
1, 464479, Note_on_c, 0, 66, 0
1, 464480, Note_on_c, 0, 62, 80
1, 464639, Note_on_c, 0, 62, 0
1, 466080, Note_on_c, 0, 66, 80
1, 466199, Note_on_c, 0, 66, 0
1, 466200, Note_on_c, 0, 69, 80
1, 466319, Note_on_c, 0, 69, 0
1, 466320, Note_on_c, 0, 74, 80
1, 466439, Note_on_c, 0, 74, 0
1, 466440, Note_on_c, 0, 78, 80
1, 466559, Note_on_c, 0, 78, 0
1, 466560, Note_on_c, 0, 81, 80
1, 466679, Note_on_c, 0, 81, 0
1, 466680, Note_on_c, 0, 78, 80
1, 466799, Note_on_c, 0, 78, 0
1, 466800, Note_on_c, 0, 74, 80
1, 466919, Note_on_c, 0, 74, 0
1, 466920, Note_on_c, 0, 69, 80
1, 467039, Note_on_c, 0, 69, 0
1, 467040, Note_on_c, 0, 85, 80
1, 467199, Note_on_c, 0, 85, 0
1, 467200, Note_on_c, 0, 82, 80
1, 467359, Note_on_c, 0, 82, 0
1, 467360, Note_on_c, 0, 79, 80
1, 467519, Note_on_c, 0, 79, 0
1, 467520, Note_on_c, 0, 76, 80
1, 467679, Note_on_c, 0, 76, 0
1, 467680, Note_on_c, 0, 73, 80
1, 467839, Note_on_c, 0, 73, 0
1, 467840, Note_on_c, 0, 70, 80
1, 467999, Note_on_c, 0, 70, 0
1, 468000, Note_on_c, 0, 76, 80
1, 468159, Note_on_c, 0, 76, 0
1, 468160, Note_on_c, 0, 73, 80
1, 468319, Note_on_c, 0, 73, 0
1, 468320, Note_on_c, 0, 70, 80
1, 468479, Note_on_c, 0, 70, 0
1, 468480, Note_on_c, 0, 67, 80
1, 468599, Note_on_c, 0, 67, 0
1, 468600, Note_on_c, 0, 64, 80
1, 468719, Note_on_c, 0, 64, 0
1, 468720, Note_on_c, 0, 61, 80
1, 468839, Note_on_c, 0, 61, 0
1, 468840, Note_on_c, 0, 58, 80
1, 468959, Note_on_c, 0, 58, 0
1, 468960, Note_on_c, 0, 64, 80
1, 469079, Note_on_c, 0, 64, 0
1, 469080, Note_on_c, 0, 61, 80
1, 469199, Note_on_c, 0, 61, 0
1, 469920, Note_on_c, 0, 57, 80
1, 469999, Note_on_c, 0, 57, 0
1, 470000, Note_on_c, 0, 61, 80
1, 470079, Note_on_c, 0, 61, 0
1, 470080, Note_on_c, 0, 64, 80
1, 470159, Note_on_c, 0, 64, 0
1, 470160, Note_on_c, 0, 67, 80
1, 470239, Note_on_c, 0, 67, 0
1, 470240, Note_on_c, 0, 70, 80
1, 470319, Note_on_c, 0, 70, 0
1, 470320, Note_on_c, 0, 73, 80
1, 470399, Note_on_c, 0, 73, 0
1, 470400, Note_on_c, 0, 76, 80
1, 470479, Note_on_c, 0, 76, 0
1, 470480, Note_on_c, 0, 79, 80
1, 470559, Note_on_c, 0, 79, 0
1, 470560, Note_on_c, 0, 82, 80
1, 470639, Note_on_c, 0, 82, 0
1, 470640, Note_on_c, 0, 85, 80
1, 470719, Note_on_c, 0, 85, 0
1, 470720, Note_on_c, 0, 82, 80
1, 470799, Note_on_c, 0, 82, 0
1, 470800, Note_on_c, 0, 76, 80
1, 470879, Note_on_c, 0, 76, 0
1, 470880, Note_on_c, 0, 88, 80
1, 471039, Note_on_c, 0, 88, 0
1, 471040, Note_on_c, 0, 85, 80
1, 471199, Note_on_c, 0, 85, 0
1, 471200, Note_on_c, 0, 80, 80
1, 471359, Note_on_c, 0, 80, 0
1, 471360, Note_on_c, 0, 76, 80
1, 471519, Note_on_c, 0, 76, 0
1, 471520, Note_on_c, 0, 73, 80
1, 471679, Note_on_c, 0, 73, 0
1, 471680, Note_on_c, 0, 68, 80
1, 471839, Note_on_c, 0, 68, 0
1, 471840, Note_on_c, 0, 76, 80
1, 471999, Note_on_c, 0, 76, 0
1, 472000, Note_on_c, 0, 73, 80
1, 472159, Note_on_c, 0, 73, 0
1, 472160, Note_on_c, 0, 68, 80
1, 472319, Note_on_c, 0, 68, 0
1, 472320, Note_on_c, 0, 64, 80
1, 472439, Note_on_c, 0, 64, 0
1, 472440, Note_on_c, 0, 73, 80
1, 472559, Note_on_c, 0, 73, 0
1, 472560, Note_on_c, 0, 68, 80
1, 472679, Note_on_c, 0, 68, 0
1, 472680, Note_on_c, 0, 64, 80
1, 472799, Note_on_c, 0, 64, 0
1, 472800, Note_on_c, 0, 61, 80
1, 472919, Note_on_c, 0, 61, 0
1, 472920, Note_on_c, 0, 68, 80
1, 473039, Note_on_c, 0, 68, 0
1, 473040, Note_on_c, 0, 64, 80
1, 473159, Note_on_c, 0, 64, 0
1, 473160, Note_on_c, 0, 61, 80
1, 473279, Note_on_c, 0, 61, 0
1, 476640, Note_on_c, 0, 60, 80
1, 476759, Note_on_c, 0, 60, 0
1, 476760, Note_on_c, 0, 61, 80
1, 476879, Note_on_c, 0, 61, 0
1, 476880, Note_on_c, 0, 62, 80
1, 476999, Note_on_c, 0, 62, 0
1, 477000, Note_on_c, 0, 63, 80
1, 477119, Note_on_c, 0, 63, 0
1, 477120, Note_on_c, 0, 64, 80
1, 477215, Note_on_c, 0, 64, 0
1, 477216, Note_on_c, 0, 65, 80
1, 477311, Note_on_c, 0, 65, 0
1, 477312, Note_on_c, 0, 66, 80
1, 477407, Note_on_c, 0, 66, 0
1, 477408, Note_on_c, 0, 67, 80
1, 477503, Note_on_c, 0, 67, 0
1, 477504, Note_on_c, 0, 68, 80
1, 477599, Note_on_c, 0, 68, 0
1, 477600, Note_on_c, 0, 69, 80
1, 477695, Note_on_c, 0, 69, 0
1, 477696, Note_on_c, 0, 70, 80
1, 477791, Note_on_c, 0, 70, 0
1, 477792, Note_on_c, 0, 71, 80
1, 477887, Note_on_c, 0, 71, 0
1, 477888, Note_on_c, 0, 72, 80
1, 477983, Note_on_c, 0, 72, 0
1, 477984, Note_on_c, 0, 73, 80
1, 478079, Note_on_c, 0, 73, 0
1, 478080, Note_on_c, 0, 74, 80
1, 478159, Note_on_c, 0, 74, 0
1, 478160, Note_on_c, 0, 75, 80
1, 478239, Note_on_c, 0, 75, 0
1, 478240, Note_on_c, 0, 76, 80
1, 478319, Note_on_c, 0, 76, 0
1, 478320, Note_on_c, 0, 77, 80
1, 478379, Note_on_c, 0, 77, 0
1, 478380, Note_on_c, 0, 78, 80
1, 478439, Note_on_c, 0, 78, 0
1, 478440, Note_on_c, 0, 79, 80
1, 478499, Note_on_c, 0, 79, 0
1, 478500, Note_on_c, 0, 80, 80
1, 478559, Note_on_c, 0, 80, 0
1, 478560, Note_on_c, 0, 81, 80
1, 478619, Note_on_c, 0, 81, 0
1, 478620, Note_on_c, 0, 83, 80
1, 478679, Note_on_c, 0, 83, 0
1, 478680, Note_on_c, 0, 81, 80
1, 478739, Note_on_c, 0, 81, 0
1, 478740, Note_on_c, 0, 83, 80
1, 478799, Note_on_c, 0, 83, 0
1, 478800, Note_on_c, 0, 81, 80
1, 478859, Note_on_c, 0, 81, 0
1, 478860, Note_on_c, 0, 83, 80
1, 478919, Note_on_c, 0, 83, 0
1, 478920, Note_on_c, 0, 81, 80
1, 478979, Note_on_c, 0, 81, 0
1, 478980, Note_on_c, 0, 83, 80
1, 479039, Note_on_c, 0, 83, 0
1, 479040, Note_on_c, 0, 81, 80
1, 479099, Note_on_c, 0, 81, 0
1, 479100, Note_on_c, 0, 83, 80
1, 479159, Note_on_c, 0, 83, 0
1, 479160, Note_on_c, 0, 81, 80
1, 479219, Note_on_c, 0, 81, 0
1, 479220, Note_on_c, 0, 83, 80
1, 479279, Note_on_c, 0, 83, 0
1, 479280, Note_on_c, 0, 81, 80
1, 479339, Note_on_c, 0, 81, 0
1, 479340, Note_on_c, 0, 83, 80
1, 479399, Note_on_c, 0, 83, 0
1, 479400, Note_on_c, 0, 81, 80
1, 479459, Note_on_c, 0, 81, 0
1, 479460, Note_on_c, 0, 83, 80
1, 479519, Note_on_c, 0, 83, 0
1, 479520, Note_on_c, 0, 81, 80
1, 479579, Note_on_c, 0, 81, 0
1, 479580, Note_on_c, 0, 83, 80
1, 479639, Note_on_c, 0, 83, 0
1, 479640, Note_on_c, 0, 81, 80
1, 479699, Note_on_c, 0, 81, 0
1, 479700, Note_on_c, 0, 83, 80
1, 479759, Note_on_c, 0, 83, 0
1, 479760, Note_on_c, 0, 81, 80
1, 479819, Note_on_c, 0, 81, 0
1, 479820, Note_on_c, 0, 83, 80
1, 479879, Note_on_c, 0, 83, 0
1, 479880, Note_on_c, 0, 81, 80
1, 479939, Note_on_c, 0, 81, 0
1, 479940, Note_on_c, 0, 83, 80
1, 479999, Note_on_c, 0, 83, 0
1, 480000, Note_on_c, 0, 81, 80
1, 480059, Note_on_c, 0, 81, 0
1, 480060, Note_on_c, 0, 83, 80
1, 480119, Note_on_c, 0, 83, 0
1, 480120, Note_on_c, 0, 81, 80
1, 480179, Note_on_c, 0, 81, 0
1, 480180, Note_on_c, 0, 83, 80
1, 480239, Note_on_c, 0, 83, 0
1, 480240, Note_on_c, 0, 81, 80
1, 480299, Note_on_c, 0, 81, 0
1, 480300, Note_on_c, 0, 83, 80
1, 480359, Note_on_c, 0, 83, 0
1, 480360, Note_on_c, 0, 81, 80
1, 480419, Note_on_c, 0, 81, 0
1, 480420, Note_on_c, 0, 83, 80
1, 480479, Note_on_c, 0, 83, 0
1, 480480, Time_signature, 6, 2, 24, 8
1, 486240, Time_signature, 4, 2, 24, 8
1, 487680, Note_on_c, 0, 64, 80
1, 488039, Note_on_c, 0, 64, 0
1, 488040, Note_on_c, 0, 61, 80
1, 488159, Note_on_c, 0, 61, 0
1, 488160, Note_on_c, 0, 60, 80
1, 488639, Note_on_c, 0, 60, 0
1, 488640, Note_on_c, 0, 68, 80
1, 488640, Note_on_c, 0, 60, 80
1, 488640, Note_on_c, 0, 54, 80
1, 488879, Note_on_c, 0, 68, 0
1, 488879, Note_on_c, 0, 60, 0
1, 488879, Note_on_c, 0, 54, 0
1, 489120, Note_on_c, 0, 68, 80
1, 489120, Note_on_c, 0, 60, 80
1, 489120, Note_on_c, 0, 54, 80
1, 489359, Note_on_c, 0, 68, 0
1, 489359, Note_on_c, 0, 60, 0
1, 489359, Note_on_c, 0, 54, 0
1, 489600, Note_on_c, 0, 68, 80
1, 489600, Note_on_c, 0, 60, 80
1, 489600, Note_on_c, 0, 54, 80
1, 489959, Note_on_c, 0, 68, 0
1, 489959, Note_on_c, 0, 60, 0
1, 489959, Note_on_c, 0, 54, 0
1, 489960, Note_on_c, 0, 52, 80
1, 490019, Note_on_c, 0, 52, 0
1, 490020, Note_on_c, 0, 61, 80
1, 490079, Note_on_c, 0, 61, 0
1, 490080, Note_on_c, 0, 68, 80
1, 491519, Note_on_c, 0, 68, 0
1, 491520, Note_on_c, 0, 76, 80
1, 491879, Note_on_c, 0, 76, 0
1, 491880, Note_on_c, 0, 73, 80
1, 491999, Note_on_c, 0, 73, 0
1, 492000, Note_on_c, 0, 72, 80
1, 492479, Note_on_c, 0, 72, 0
1, 492480, Note_on_c, 0, 80, 80
1, 492480, Note_on_c, 0, 72, 80
1, 492480, Note_on_c, 0, 66, 80
1, 492719, Note_on_c, 0, 80, 0
1, 492719, Note_on_c, 0, 72, 0
1, 492719, Note_on_c, 0, 66, 0
1, 492960, Note_on_c, 0, 80, 80
1, 492960, Note_on_c, 0, 72, 80
1, 492960, Note_on_c, 0, 66, 80
1, 493199, Note_on_c, 0, 80, 0
1, 493199, Note_on_c, 0, 72, 0
1, 493199, Note_on_c, 0, 66, 0
1, 493440, Note_on_c, 0, 80, 80
1, 493440, Note_on_c, 0, 72, 80
1, 493440, Note_on_c, 0, 66, 80
1, 493799, Note_on_c, 0, 80, 0
1, 493799, Note_on_c, 0, 72, 0
1, 493799, Note_on_c, 0, 66, 0
1, 493800, Note_on_c, 0, 64, 80
1, 493859, Note_on_c, 0, 64, 0
1, 493860, Note_on_c, 0, 73, 80
1, 493919, Note_on_c, 0, 73, 0
1, 493920, Note_on_c, 0, 80, 80
1, 494759, Note_on_c, 0, 80, 0
1, 494760, Note_on_c, 0, 66, 80
1, 494819, Note_on_c, 0, 66, 0
1, 494820, Note_on_c, 0, 72, 80
1, 494879, Note_on_c, 0, 72, 0
1, 494880, Note_on_c, 0, 80, 80
1, 495719, Note_on_c, 0, 80, 0
1, 495720, Note_on_c, 0, 64, 80
1, 495779, Note_on_c, 0, 64, 0
1, 495780, Note_on_c, 0, 73, 80
1, 495839, Note_on_c, 0, 73, 0
1, 495840, Note_on_c, 0, 80, 80
1, 496679, Note_on_c, 0, 80, 0
1, 496680, Note_on_c, 0, 66, 80
1, 496739, Note_on_c, 0, 66, 0
1, 496740, Note_on_c, 0, 72, 80
1, 496799, Note_on_c, 0, 72, 0
1, 496800, Note_on_c, 0, 80, 80
1, 497639, Note_on_c, 0, 80, 0
1, 497640, Note_on_c, 0, 64, 80
1, 497699, Note_on_c, 0, 64, 0
1, 497700, Note_on_c, 0, 73, 80
1, 497759, Note_on_c, 0, 73, 0
1, 497760, Note_on_c, 0, 80, 80
1, 497879, Note_on_c, 0, 80, 0
1, 497880, Note_on_c, 0, 64, 80
1, 497999, Note_on_c, 0, 64, 0
1, 498000, Note_on_c, 0, 68, 80
1, 498119, Note_on_c, 0, 68, 0
1, 498120, Note_on_c, 0, 73, 80
1, 498239, Note_on_c, 0, 73, 0
1, 498240, Note_on_c, 0, 76, 80
1, 498359, Note_on_c, 0, 76, 0
1, 498360, Note_on_c, 0, 68, 80
1, 498479, Note_on_c, 0, 68, 0
1, 498480, Note_on_c, 0, 73, 80
1, 498599, Note_on_c, 0, 73, 0
1, 498600, Note_on_c, 0, 76, 80
1, 498719, Note_on_c, 0, 76, 0
1, 498720, Note_on_c, 0, 80, 80
1, 498839, Note_on_c, 0, 80, 0
1, 498840, Note_on_c, 0, 73, 80
1, 498959, Note_on_c, 0, 73, 0
1, 498960, Note_on_c, 0, 76, 80
1, 499079, Note_on_c, 0, 76, 0
1, 499080, Note_on_c, 0, 80, 80
1, 499199, Note_on_c, 0, 80, 0
1, 499200, Note_on_c, 0, 85, 80
1, 499319, Note_on_c, 0, 85, 0
1, 499320, Note_on_c, 0, 76, 80
1, 499439, Note_on_c, 0, 76, 0
1, 499440, Note_on_c, 0, 80, 80
1, 499559, Note_on_c, 0, 80, 0
1, 499560, Note_on_c, 0, 85, 80
1, 499679, Note_on_c, 0, 85, 0
1, 499680, Note_on_c, 0, 88, 80
1, 499799, Note_on_c, 0, 88, 0
1, 499800, Note_on_c, 0, 85, 80
1, 499919, Note_on_c, 0, 85, 0
1, 499920, Note_on_c, 0, 80, 80
1, 500039, Note_on_c, 0, 80, 0
1, 500040, Note_on_c, 0, 76, 80
1, 500159, Note_on_c, 0, 76, 0
1, 500160, Note_on_c, 0, 85, 80
1, 500279, Note_on_c, 0, 85, 0
1, 500280, Note_on_c, 0, 80, 80
1, 500399, Note_on_c, 0, 80, 0
1, 500400, Note_on_c, 0, 76, 80
1, 500519, Note_on_c, 0, 76, 0
1, 500520, Note_on_c, 0, 73, 80
1, 500639, Note_on_c, 0, 73, 0
1, 500640, Note_on_c, 0, 80, 80
1, 500759, Note_on_c, 0, 80, 0
1, 500760, Note_on_c, 0, 76, 80
1, 500879, Note_on_c, 0, 76, 0
1, 500880, Note_on_c, 0, 73, 80
1, 500999, Note_on_c, 0, 73, 0
1, 501000, Note_on_c, 0, 68, 80
1, 501119, Note_on_c, 0, 68, 0
1, 501120, Note_on_c, 0, 76, 80
1, 501239, Note_on_c, 0, 76, 0
1, 501240, Note_on_c, 0, 73, 80
1, 501359, Note_on_c, 0, 73, 0
1, 501360, Note_on_c, 0, 68, 80
1, 501479, Note_on_c, 0, 68, 0
1, 501480, Note_on_c, 0, 64, 80
1, 501599, Note_on_c, 0, 64, 0
1, 501600, Note_on_c, 0, 73, 80
1, 501719, Note_on_c, 0, 73, 0
1, 501720, Note_on_c, 0, 68, 80
1, 501839, Note_on_c, 0, 68, 0
1, 501840, Note_on_c, 0, 64, 80
1, 501959, Note_on_c, 0, 64, 0
1, 501960, Note_on_c, 0, 61, 80
1, 502079, Note_on_c, 0, 61, 0
1, 502080, Note_on_c, 0, 68, 80
1, 502199, Note_on_c, 0, 68, 0
1, 502200, Note_on_c, 0, 64, 80
1, 502319, Note_on_c, 0, 64, 0
1, 502320, Note_on_c, 0, 61, 80
1, 502439, Note_on_c, 0, 61, 0
1, 502440, Note_on_c, 0, 56, 80
1, 502559, Note_on_c, 0, 56, 0
1, 504480, Note_on_c, 0, 85, 80
1, 504480, Note_on_c, 0, 80, 80
1, 504480, Note_on_c, 0, 76, 80
1, 504480, Note_on_c, 0, 73, 80
1, 504719, Note_on_c, 0, 85, 0
1, 504719, Note_on_c, 0, 80, 0
1, 504719, Note_on_c, 0, 76, 0
1, 504719, Note_on_c, 0, 73, 0
1, 505440, Note_on_c, 0, 73, 80
1, 505440, Note_on_c, 0, 68, 80
1, 505440, Note_on_c, 0, 64, 80
1, 505440, Note_on_c, 0, 61, 80
1, 505679, Note_on_c, 0, 73, 0
1, 505679, Note_on_c, 0, 68, 0
1, 505679, Note_on_c, 0, 64, 0
1, 505679, Note_on_c, 0, 61, 0
1, 505680, End_track
2, 0, Start_track
2, 0, Key_signature, 4, "major"
2, 120, Note_on_c, 0, 44, 80
2, 239, Note_on_c, 0, 44, 0
2, 240, Note_on_c, 0, 49, 80
2, 359, Note_on_c, 0, 49, 0
2, 360, Note_on_c, 0, 52, 80
2, 479, Note_on_c, 0, 52, 0
2, 480, Note_on_c, 0, 56, 80
2, 599, Note_on_c, 0, 56, 0
2, 600, Note_on_c, 0, 49, 80
2, 719, Note_on_c, 0, 49, 0
2, 720, Note_on_c, 0, 52, 80
2, 839, Note_on_c, 0, 52, 0
2, 840, Note_on_c, 0, 56, 80
2, 959, Note_on_c, 0, 56, 0
2, 960, Note_on_c, 0, 61, 80
2, 1079, Note_on_c, 0, 61, 0
2, 1080, Note_on_c, 0, 52, 80
2, 1199, Note_on_c, 0, 52, 0
2, 1200, Note_on_c, 0, 56, 80
2, 1319, Note_on_c, 0, 56, 0
2, 1320, Note_on_c, 0, 61, 80
2, 1439, Note_on_c, 0, 61, 0
2, 3360, Note_on_c, 0, 49, 80
2, 3360, Note_on_c, 0, 37, 80
2, 3599, Note_on_c, 0, 49, 0
2, 3599, Note_on_c, 0, 37, 0
2, 3960, Note_on_c, 0, 44, 80
2, 4079, Note_on_c, 0, 44, 0
2, 4080, Note_on_c, 0, 48, 80
2, 4199, Note_on_c, 0, 48, 0
2, 4200, Note_on_c, 0, 51, 80
2, 4319, Note_on_c, 0, 51, 0
2, 4320, Note_on_c, 0, 56, 80
2, 4439, Note_on_c, 0, 56, 0
2, 4440, Note_on_c, 0, 48, 80
2, 4559, Note_on_c, 0, 48, 0
2, 4560, Note_on_c, 0, 51, 80
2, 4679, Note_on_c, 0, 51, 0
2, 4680, Note_on_c, 0, 56, 80
2, 4799, Note_on_c, 0, 56, 0
2, 4800, Note_on_c, 0, 60, 80
2, 4919, Note_on_c, 0, 60, 0
2, 4920, Note_on_c, 0, 51, 80
2, 5039, Note_on_c, 0, 51, 0
2, 5040, Note_on_c, 0, 56, 80
2, 5159, Note_on_c, 0, 56, 0
2, 5160, Note_on_c, 0, 60, 80
2, 5279, Note_on_c, 0, 60, 0
2, 7200, Note_on_c, 0, 48, 80
2, 7200, Note_on_c, 0, 36, 80
2, 7439, Note_on_c, 0, 48, 0
2, 7439, Note_on_c, 0, 36, 0
2, 7800, Note_on_c, 0, 49, 80
2, 7919, Note_on_c, 0, 49, 0
2, 7920, Note_on_c, 0, 53, 80
2, 8039, Note_on_c, 0, 53, 0
2, 8040, Note_on_c, 0, 56, 80
2, 8159, Note_on_c, 0, 56, 0
2, 8160, Note_on_c, 0, 61, 80
2, 8279, Note_on_c, 0, 61, 0
2, 8280, Note_on_c, 0, 53, 80
2, 8399, Note_on_c, 0, 53, 0
2, 8400, Note_on_c, 0, 56, 80
2, 8519, Note_on_c, 0, 56, 0
2, 8520, Note_on_c, 0, 61, 80
2, 8639, Note_on_c, 0, 61, 0
2, 11040, Note_on_c, 0, 47, 80
2, 11040, Note_on_c, 0, 35, 80
2, 11279, Note_on_c, 0, 47, 0
2, 11279, Note_on_c, 0, 35, 0
2, 11640, Note_on_c, 0, 49, 80
2, 11759, Note_on_c, 0, 49, 0
2, 11760, Note_on_c, 0, 54, 80
2, 11879, Note_on_c, 0, 54, 0
2, 11880, Note_on_c, 0, 57, 80
2, 11999, Note_on_c, 0, 57, 0
2, 12960, Note_on_c, 0, 33, 80
2, 13199, Note_on_c, 0, 33, 0
2, 13560, Note_on_c, 0, 49, 80
2, 13679, Note_on_c, 0, 49, 0
2, 13680, Note_on_c, 0, 52, 80
2, 13799, Note_on_c, 0, 52, 0
2, 13800, Note_on_c, 0, 55, 80
2, 13919, Note_on_c, 0, 55, 0
2, 14880, Note_on_c, 0, 33, 80
2, 15119, Note_on_c, 0, 33, 0
2, 15360, Note_on_c, 0, 44, 80
2, 15599, Note_on_c, 0, 44, 0
2, 15600, Note_on_c, 0, 60, 80
2, 15839, Note_on_c, 0, 60, 0
2, 15840, Note_on_c, 0, 60, 80
2, 16079, Note_on_c, 0, 60, 0
2, 16080, Note_on_c, 0, 61, 80
2, 16319, Note_on_c, 0, 61, 0
2, 16320, Note_on_c, 0, 63, 80
2, 16559, Note_on_c, 0, 63, 0
2, 16560, Note_on_c, 0, 64, 80
2, 16799, Note_on_c, 0, 64, 0
2, 16800, Note_on_c, 0, 66, 80
2, 17039, Note_on_c, 0, 66, 0
2, 17040, Note_on_c, 0, 63, 80
2, 17279, Note_on_c, 0, 63, 0
2, 17280, Note_on_c, 0, 66, 80
2, 17519, Note_on_c, 0, 66, 0
2, 17520, Note_on_c, 0, 64, 80
2, 17759, Note_on_c, 0, 64, 0
2, 17760, Note_on_c, 0, 69, 80
2, 17999, Note_on_c, 0, 69, 0
2, 18000, Note_on_c, 0, 68, 80
2, 18239, Note_on_c, 0, 68, 0
2, 18240, Note_on_c, 0, 66, 80
2, 18479, Note_on_c, 0, 66, 0
2, 18480, Note_on_c, 0, 64, 80
2, 18719, Note_on_c, 0, 64, 0
2, 18720, Note_on_c, 0, 63, 80
2, 18959, Note_on_c, 0, 63, 0
2, 18960, Note_on_c, 0, 61, 80
2, 19199, Note_on_c, 0, 61, 0
2, 19200, Note_on_c, 0, 44, 80
2, 19439, Note_on_c, 0, 44, 0
2, 19440, Note_on_c, 0, 60, 80
2, 19679, Note_on_c, 0, 60, 0
2, 19680, Note_on_c, 0, 60, 80
2, 19919, Note_on_c, 0, 60, 0
2, 19920, Note_on_c, 0, 61, 80
2, 20159, Note_on_c, 0, 61, 0
2, 20160, Note_on_c, 0, 63, 80
2, 20399, Note_on_c, 0, 63, 0
2, 20400, Note_on_c, 0, 64, 80
2, 20639, Note_on_c, 0, 64, 0
2, 20640, Note_on_c, 0, 66, 80
2, 20879, Note_on_c, 0, 66, 0
2, 20880, Note_on_c, 0, 63, 80
2, 21119, Note_on_c, 0, 63, 0
2, 21120, Note_on_c, 0, 66, 80
2, 21359, Note_on_c, 0, 66, 0
2, 21360, Note_on_c, 0, 64, 80
2, 21599, Note_on_c, 0, 64, 0
2, 21600, Note_on_c, 0, 69, 80
2, 21839, Note_on_c, 0, 69, 0
2, 21840, Note_on_c, 0, 68, 80
2, 22079, Note_on_c, 0, 68, 0
2, 22080, Note_on_c, 0, 66, 80
2, 22319, Note_on_c, 0, 66, 0
2, 22320, Note_on_c, 0, 64, 80
2, 22559, Note_on_c, 0, 64, 0
2, 22560, Note_on_c, 0, 63, 80
2, 22799, Note_on_c, 0, 63, 0
2, 22800, Note_on_c, 0, 61, 80
2, 23039, Note_on_c, 0, 61, 0
2, 27000, Note_on_c, 0, 44, 80
2, 27119, Note_on_c, 0, 44, 0
2, 27120, Note_on_c, 0, 49, 80
2, 27239, Note_on_c, 0, 49, 0
2, 27240, Note_on_c, 0, 52, 80
2, 27359, Note_on_c, 0, 52, 0
2, 27360, Note_on_c, 0, 56, 80
2, 27479, Note_on_c, 0, 56, 0
2, 27480, Note_on_c, 0, 49, 80
2, 27599, Note_on_c, 0, 49, 0
2, 27600, Note_on_c, 0, 52, 80
2, 27719, Note_on_c, 0, 52, 0
2, 27720, Note_on_c, 0, 56, 80
2, 27839, Note_on_c, 0, 56, 0
2, 27840, Note_on_c, 0, 61, 80
2, 27959, Note_on_c, 0, 61, 0
2, 27960, Note_on_c, 0, 52, 80
2, 28079, Note_on_c, 0, 52, 0
2, 28080, Note_on_c, 0, 56, 80
2, 28199, Note_on_c, 0, 56, 0
2, 28200, Note_on_c, 0, 61, 80
2, 28319, Note_on_c, 0, 61, 0
2, 30240, Note_on_c, 0, 49, 80
2, 30240, Note_on_c, 0, 37, 80
2, 30479, Note_on_c, 0, 49, 0
2, 30479, Note_on_c, 0, 37, 0
2, 30840, Note_on_c, 0, 52, 80
2, 30959, Note_on_c, 0, 52, 0
2, 30960, Note_on_c, 0, 55, 80
2, 31079, Note_on_c, 0, 55, 0
2, 31080, Note_on_c, 0, 61, 80
2, 31199, Note_on_c, 0, 61, 0
2, 31200, Note_on_c, 0, 64, 80
2, 31319, Note_on_c, 0, 64, 0
2, 31320, Note_on_c, 0, 55, 80
2, 31439, Note_on_c, 0, 55, 0
2, 31440, Note_on_c, 0, 61, 80
2, 31559, Note_on_c, 0, 61, 0
2, 31560, Note_on_c, 0, 64, 80
2, 31679, Note_on_c, 0, 64, 0
2, 34080, Note_on_c, 0, 46, 80
2, 34080, Note_on_c, 0, 34, 80
2, 34319, Note_on_c, 0, 46, 0
2, 34319, Note_on_c, 0, 34, 0
2, 34680, Note_on_c, 0, 51, 80
2, 34799, Note_on_c, 0, 51, 0
2, 34800, Note_on_c, 0, 58, 80
2, 34919, Note_on_c, 0, 58, 0
2, 34920, Note_on_c, 0, 61, 80
2, 35039, Note_on_c, 0, 61, 0
2, 35040, Note_on_c, 0, 63, 80
2, 35159, Note_on_c, 0, 63, 0
2, 35160, Note_on_c, 0, 58, 80
2, 35279, Note_on_c, 0, 58, 0
2, 35280, Note_on_c, 0, 61, 80
2, 35399, Note_on_c, 0, 61, 0
2, 35400, Note_on_c, 0, 63, 80
2, 35519, Note_on_c, 0, 63, 0
2, 55680, Note_on_c, 0, 70, 80
2, 56159, Note_on_c, 0, 70, 0
2, 59520, Note_on_c, 0, 67, 80
2, 59999, Note_on_c, 0, 67, 0
2, 122880, Note_on_c, 0, 56, 80
2, 122880, Note_on_c, 0, 52, 80
2, 122999, Note_on_c, 0, 56, 0
2, 122999, Note_on_c, 0, 52, 0
2, 123000, Note_on_c, 0, 44, 80
2, 123119, Note_on_c, 0, 44, 0
2, 123120, Note_on_c, 0, 49, 80
2, 123239, Note_on_c, 0, 49, 0
2, 123240, Note_on_c, 0, 52, 80
2, 123359, Note_on_c, 0, 52, 0
2, 123360, Note_on_c, 0, 56, 80
2, 123479, Note_on_c, 0, 56, 0
2, 123480, Note_on_c, 0, 49, 80
2, 123599, Note_on_c, 0, 49, 0
2, 123600, Note_on_c, 0, 52, 80
2, 123719, Note_on_c, 0, 52, 0
2, 123720, Note_on_c, 0, 56, 80
2, 123839, Note_on_c, 0, 56, 0
2, 123840, Note_on_c, 0, 61, 80
2, 123959, Note_on_c, 0, 61, 0
2, 123960, Note_on_c, 0, 52, 80
2, 124079, Note_on_c, 0, 52, 0
2, 124080, Note_on_c, 0, 56, 80
2, 124199, Note_on_c, 0, 56, 0
2, 124200, Note_on_c, 0, 61, 80
2, 124319, Note_on_c, 0, 61, 0
2, 126240, Note_on_c, 0, 49, 80
2, 126240, Note_on_c, 0, 37, 80
2, 126479, Note_on_c, 0, 49, 0
2, 126479, Note_on_c, 0, 37, 0
2, 126840, Note_on_c, 0, 44, 80
2, 126959, Note_on_c, 0, 44, 0
2, 126960, Note_on_c, 0, 48, 80
2, 127079, Note_on_c, 0, 48, 0
2, 127080, Note_on_c, 0, 51, 80
2, 127199, Note_on_c, 0, 51, 0
2, 127200, Note_on_c, 0, 56, 80
2, 127319, Note_on_c, 0, 56, 0
2, 127320, Note_on_c, 0, 48, 80
2, 127439, Note_on_c, 0, 48, 0
2, 127440, Note_on_c, 0, 51, 80
2, 127559, Note_on_c, 0, 51, 0
2, 127560, Note_on_c, 0, 56, 80
2, 127679, Note_on_c, 0, 56, 0
2, 127680, Note_on_c, 0, 60, 80
2, 127799, Note_on_c, 0, 60, 0
2, 127800, Note_on_c, 0, 51, 80
2, 127919, Note_on_c, 0, 51, 0
2, 127920, Note_on_c, 0, 56, 80
2, 128039, Note_on_c, 0, 56, 0
2, 128040, Note_on_c, 0, 60, 80
2, 128159, Note_on_c, 0, 60, 0
2, 130080, Note_on_c, 0, 48, 80
2, 130080, Note_on_c, 0, 36, 80
2, 130319, Note_on_c, 0, 48, 0
2, 130319, Note_on_c, 0, 36, 0
2, 130680, Note_on_c, 0, 49, 80
2, 130799, Note_on_c, 0, 49, 0
2, 130800, Note_on_c, 0, 53, 80
2, 130919, Note_on_c, 0, 53, 0
2, 130920, Note_on_c, 0, 56, 80
2, 131039, Note_on_c, 0, 56, 0
2, 131040, Note_on_c, 0, 61, 80
2, 131159, Note_on_c, 0, 61, 0
2, 131160, Note_on_c, 0, 53, 80
2, 131279, Note_on_c, 0, 53, 0
2, 131280, Note_on_c, 0, 56, 80
2, 131399, Note_on_c, 0, 56, 0
2, 131400, Note_on_c, 0, 61, 80
2, 131519, Note_on_c, 0, 61, 0
2, 133920, Note_on_c, 0, 47, 80
2, 133920, Note_on_c, 0, 35, 80
2, 134159, Note_on_c, 0, 47, 0
2, 134159, Note_on_c, 0, 35, 0
2, 134520, Note_on_c, 0, 49, 80
2, 134639, Note_on_c, 0, 49, 0
2, 134640, Note_on_c, 0, 54, 80
2, 134759, Note_on_c, 0, 54, 0
2, 134760, Note_on_c, 0, 57, 80
2, 134879, Note_on_c, 0, 57, 0
2, 135840, Note_on_c, 0, 33, 80
2, 136079, Note_on_c, 0, 33, 0
2, 136440, Note_on_c, 0, 49, 80
2, 136559, Note_on_c, 0, 49, 0
2, 136560, Note_on_c, 0, 52, 80
2, 136679, Note_on_c, 0, 52, 0
2, 136680, Note_on_c, 0, 55, 80
2, 136799, Note_on_c, 0, 55, 0
2, 137760, Note_on_c, 0, 33, 80
2, 137999, Note_on_c, 0, 33, 0
2, 138240, Note_on_c, 0, 44, 80
2, 138479, Note_on_c, 0, 44, 0
2, 138480, Note_on_c, 0, 60, 80
2, 138719, Note_on_c, 0, 60, 0
2, 138720, Note_on_c, 0, 60, 80
2, 138959, Note_on_c, 0, 60, 0
2, 138960, Note_on_c, 0, 61, 80
2, 139199, Note_on_c, 0, 61, 0
2, 139200, Note_on_c, 0, 63, 80
2, 139439, Note_on_c, 0, 63, 0
2, 139440, Note_on_c, 0, 64, 80
2, 139679, Note_on_c, 0, 64, 0
2, 139680, Note_on_c, 0, 66, 80
2, 139919, Note_on_c, 0, 66, 0
2, 139920, Note_on_c, 0, 63, 80
2, 140159, Note_on_c, 0, 63, 0
2, 140160, Note_on_c, 0, 66, 80
2, 140399, Note_on_c, 0, 66, 0
2, 140400, Note_on_c, 0, 64, 80
2, 140639, Note_on_c, 0, 64, 0
2, 140640, Note_on_c, 0, 69, 80
2, 140879, Note_on_c, 0, 69, 0
2, 140880, Note_on_c, 0, 68, 80
2, 141119, Note_on_c, 0, 68, 0
2, 141120, Note_on_c, 0, 66, 80
2, 141359, Note_on_c, 0, 66, 0
2, 141360, Note_on_c, 0, 64, 80
2, 141599, Note_on_c, 0, 64, 0
2, 141600, Note_on_c, 0, 63, 80
2, 141839, Note_on_c, 0, 63, 0
2, 141840, Note_on_c, 0, 61, 80
2, 142079, Note_on_c, 0, 61, 0
2, 142080, Note_on_c, 0, 44, 80
2, 142319, Note_on_c, 0, 44, 0
2, 142320, Note_on_c, 0, 60, 80
2, 142559, Note_on_c, 0, 60, 0
2, 142560, Note_on_c, 0, 60, 80
2, 142799, Note_on_c, 0, 60, 0
2, 142800, Note_on_c, 0, 61, 80
2, 143039, Note_on_c, 0, 61, 0
2, 143040, Note_on_c, 0, 63, 80
2, 143279, Note_on_c, 0, 63, 0
2, 143280, Note_on_c, 0, 64, 80
2, 143519, Note_on_c, 0, 64, 0
2, 143520, Note_on_c, 0, 66, 80
2, 143759, Note_on_c, 0, 66, 0
2, 143760, Note_on_c, 0, 63, 80
2, 143999, Note_on_c, 0, 63, 0
2, 144000, Note_on_c, 0, 66, 80
2, 144239, Note_on_c, 0, 66, 0
2, 144240, Note_on_c, 0, 64, 80
2, 144479, Note_on_c, 0, 64, 0
2, 144480, Note_on_c, 0, 69, 80
2, 144719, Note_on_c, 0, 69, 0
2, 144720, Note_on_c, 0, 68, 80
2, 144959, Note_on_c, 0, 68, 0
2, 144960, Note_on_c, 0, 66, 80
2, 145199, Note_on_c, 0, 66, 0
2, 145200, Note_on_c, 0, 64, 80
2, 145439, Note_on_c, 0, 64, 0
2, 145440, Note_on_c, 0, 63, 80
2, 145679, Note_on_c, 0, 63, 0
2, 145680, Note_on_c, 0, 61, 80
2, 145919, Note_on_c, 0, 61, 0
2, 149880, Note_on_c, 0, 44, 80
2, 149999, Note_on_c, 0, 44, 0
2, 150000, Note_on_c, 0, 49, 80
2, 150119, Note_on_c, 0, 49, 0
2, 150120, Note_on_c, 0, 52, 80
2, 150239, Note_on_c, 0, 52, 0
2, 150240, Note_on_c, 0, 56, 80
2, 150359, Note_on_c, 0, 56, 0
2, 150360, Note_on_c, 0, 49, 80
2, 150479, Note_on_c, 0, 49, 0
2, 150480, Note_on_c, 0, 52, 80
2, 150599, Note_on_c, 0, 52, 0
2, 150600, Note_on_c, 0, 56, 80
2, 150719, Note_on_c, 0, 56, 0
2, 150720, Note_on_c, 0, 61, 80
2, 150839, Note_on_c, 0, 61, 0
2, 150840, Note_on_c, 0, 52, 80
2, 150959, Note_on_c, 0, 52, 0
2, 150960, Note_on_c, 0, 56, 80
2, 151079, Note_on_c, 0, 56, 0
2, 151080, Note_on_c, 0, 61, 80
2, 151199, Note_on_c, 0, 61, 0
2, 153120, Note_on_c, 0, 49, 80
2, 153120, Note_on_c, 0, 37, 80
2, 153359, Note_on_c, 0, 49, 0
2, 153359, Note_on_c, 0, 37, 0
2, 153720, Note_on_c, 0, 52, 80
2, 153839, Note_on_c, 0, 52, 0
2, 153840, Note_on_c, 0, 55, 80
2, 153959, Note_on_c, 0, 55, 0
2, 153960, Note_on_c, 0, 61, 80
2, 154079, Note_on_c, 0, 61, 0
2, 154080, Note_on_c, 0, 64, 80
2, 154199, Note_on_c, 0, 64, 0
2, 154200, Note_on_c, 0, 55, 80
2, 154319, Note_on_c, 0, 55, 0
2, 154320, Note_on_c, 0, 61, 80
2, 154439, Note_on_c, 0, 61, 0
2, 154440, Note_on_c, 0, 64, 80
2, 154559, Note_on_c, 0, 64, 0
2, 156960, Note_on_c, 0, 46, 80
2, 156960, Note_on_c, 0, 34, 80
2, 157199, Note_on_c, 0, 46, 0
2, 157199, Note_on_c, 0, 34, 0
2, 157560, Note_on_c, 0, 51, 80
2, 157679, Note_on_c, 0, 51, 0
2, 157680, Note_on_c, 0, 58, 80
2, 157799, Note_on_c, 0, 58, 0
2, 157800, Note_on_c, 0, 61, 80
2, 157919, Note_on_c, 0, 61, 0
2, 157920, Note_on_c, 0, 63, 80
2, 158039, Note_on_c, 0, 63, 0
2, 158040, Note_on_c, 0, 58, 80
2, 158159, Note_on_c, 0, 58, 0
2, 158160, Note_on_c, 0, 61, 80
2, 158279, Note_on_c, 0, 61, 0
2, 158280, Note_on_c, 0, 63, 80
2, 158399, Note_on_c, 0, 63, 0
2, 178560, Note_on_c, 0, 70, 80
2, 179039, Note_on_c, 0, 70, 0
2, 182400, Note_on_c, 0, 67, 80
2, 182879, Note_on_c, 0, 67, 0
2, 245760, Note_on_c, 0, 56, 80
2, 245760, Note_on_c, 0, 53, 80
2, 245879, Note_on_c, 0, 56, 0
2, 245879, Note_on_c, 0, 53, 0
2, 245880, Note_on_c, 0, 49, 80
2, 245999, Note_on_c, 0, 49, 0
2, 246000, Note_on_c, 0, 52, 80
2, 246119, Note_on_c, 0, 52, 0
2, 246120, Note_on_c, 0, 56, 80
2, 246239, Note_on_c, 0, 56, 0
2, 246240, Note_on_c, 0, 61, 80
2, 246359, Note_on_c, 0, 61, 0
2, 246360, Note_on_c, 0, 52, 80
2, 246479, Note_on_c, 0, 52, 0
2, 246480, Note_on_c, 0, 56, 80
2, 246599, Note_on_c, 0, 56, 0
2, 246600, Note_on_c, 0, 61, 80
2, 246719, Note_on_c, 0, 61, 0
2, 246720, Note_on_c, 0, 65, 80
2, 246839, Note_on_c, 0, 65, 0
2, 246840, Note_on_c, 0, 56, 80
2, 246959, Note_on_c, 0, 56, 0
2, 246960, Note_on_c, 0, 61, 80
2, 247079, Note_on_c, 0, 61, 0
2, 247080, Note_on_c, 0, 65, 80
2, 247199, Note_on_c, 0, 65, 0
2, 249120, Note_on_c, 0, 49, 80
2, 249120, Note_on_c, 0, 37, 80
2, 249359, Note_on_c, 0, 49, 0
2, 249359, Note_on_c, 0, 37, 0
2, 249720, Note_on_c, 0, 49, 80
2, 249839, Note_on_c, 0, 49, 0
2, 249840, Note_on_c, 0, 53, 80
2, 249959, Note_on_c, 0, 53, 0
2, 249960, Note_on_c, 0, 56, 80
2, 250079, Note_on_c, 0, 56, 0
2, 250080, Note_on_c, 0, 61, 80
2, 250199, Note_on_c, 0, 61, 0
2, 250200, Note_on_c, 0, 53, 80
2, 250319, Note_on_c, 0, 53, 0
2, 250320, Note_on_c, 0, 56, 80
2, 250439, Note_on_c, 0, 56, 0
2, 250440, Note_on_c, 0, 61, 80
2, 250559, Note_on_c, 0, 61, 0
2, 252960, Note_on_c, 0, 47, 80
2, 252960, Note_on_c, 0, 35, 80
2, 253199, Note_on_c, 0, 47, 0
2, 253199, Note_on_c, 0, 35, 0
2, 253440, Note_on_c, 0, 49, 80
2, 253559, Note_on_c, 0, 49, 0
2, 253560, Note_on_c, 0, 49, 80
2, 253679, Note_on_c, 0, 49, 0
2, 253680, Note_on_c, 0, 54, 80
2, 253799, Note_on_c, 0, 54, 0
2, 253800, Note_on_c, 0, 57, 80
2, 253919, Note_on_c, 0, 57, 0
2, 254880, Note_on_c, 0, 33, 80
2, 255119, Note_on_c, 0, 33, 0
2, 255480, Note_on_c, 0, 49, 80
2, 255599, Note_on_c, 0, 49, 0
2, 255600, Note_on_c, 0, 56, 80
2, 255719, Note_on_c, 0, 56, 0
2, 255720, Note_on_c, 0, 59, 80
2, 255839, Note_on_c, 0, 59, 0
2, 256800, Note_on_c, 0, 29, 80
2, 257039, Note_on_c, 0, 29, 0
2, 264960, Note_on_c, 0, 54, 80
2, 265199, Note_on_c, 0, 54, 0
2, 265440, Note_on_c, 0, 61, 80
2, 266399, Note_on_c, 0, 61, 0
2, 266400, Note_on_c, 0, 57, 80
2, 266759, Note_on_c, 0, 57, 0
2, 266760, Note_on_c, 0, 54, 80
2, 266879, Note_on_c, 0, 54, 0
2, 266880, Note_on_c, 0, 54, 80
2, 267359, Note_on_c, 0, 54, 0
2, 267360, Note_on_c, 0, 53, 80
2, 268079, Note_on_c, 0, 53, 0
2, 268080, Note_on_c, 0, 53, 80
2, 268319, Note_on_c, 0, 53, 0
2, 268320, Note_on_c, 0, 61, 80
2, 268679, Note_on_c, 0, 61, 0
2, 268680, Note_on_c, 0, 53, 80
2, 268799, Note_on_c, 0, 53, 0
2, 268800, Note_on_c, 0, 56, 80
2, 269279, Note_on_c, 0, 56, 0
2, 269280, Note_on_c, 0, 54, 80
2, 269999, Note_on_c, 0, 54, 0
2, 270000, Note_on_c, 0, 54, 80
2, 270239, Note_on_c, 0, 54, 0
2, 270240, Note_on_c, 0, 61, 80
2, 270599, Note_on_c, 0, 61, 0
2, 270600, Note_on_c, 0, 54, 80
2, 270719, Note_on_c, 0, 54, 0
2, 270720, Note_on_c, 0, 54, 80
2, 270839, Note_on_c, 0, 54, 0
2, 270960, Note_on_c, 0, 54, 80
2, 271199, Note_on_c, 0, 54, 0
2, 271200, Note_on_c, 0, 62, 80
2, 271559, Note_on_c, 0, 62, 0
2, 271560, Note_on_c, 0, 54, 80
2, 271679, Note_on_c, 0, 54, 0
2, 271680, Note_on_c, 0, 54, 80
2, 271799, Note_on_c, 0, 54, 0
2, 271920, Note_on_c, 0, 54, 80
2, 272159, Note_on_c, 0, 54, 0
2, 272160, Note_on_c, 0, 62, 80
2, 272519, Note_on_c, 0, 62, 0
2, 272520, Note_on_c, 0, 54, 80
2, 272639, Note_on_c, 0, 54, 0
2, 272640, Note_on_c, 0, 55, 80
2, 272879, Note_on_c, 0, 55, 0
2, 273120, Note_on_c, 0, 50, 80
2, 274079, Note_on_c, 0, 50, 0
2, 274080, Note_on_c, 0, 47, 80
2, 274439, Note_on_c, 0, 47, 0
2, 274440, Note_on_c, 0, 43, 80
2, 274559, Note_on_c, 0, 43, 0
2, 274560, Note_on_c, 0, 43, 80
2, 275039, Note_on_c, 0, 43, 0
2, 275040, Note_on_c, 0, 42, 80
2, 275759, Note_on_c, 0, 42, 0
2, 275760, Note_on_c, 0, 42, 80
2, 275999, Note_on_c, 0, 42, 0
2, 276000, Note_on_c, 0, 50, 80
2, 276359, Note_on_c, 0, 50, 0
2, 276360, Note_on_c, 0, 42, 80
2, 276479, Note_on_c, 0, 42, 0
2, 276480, Note_on_c, 0, 45, 80
2, 276959, Note_on_c, 0, 45, 0
2, 276960, Note_on_c, 0, 43, 80
2, 277679, Note_on_c, 0, 43, 0
2, 277680, Note_on_c, 0, 43, 80
2, 277919, Note_on_c, 0, 43, 0
2, 277920, Note_on_c, 0, 50, 80
2, 278279, Note_on_c, 0, 50, 0
2, 278280, Note_on_c, 0, 42, 80
2, 278399, Note_on_c, 0, 42, 0
2, 278400, Note_on_c, 0, 42, 80
2, 278879, Note_on_c, 0, 42, 0
2, 278880, Note_on_c, 0, 41, 80
2, 279599, Note_on_c, 0, 41, 0
2, 279600, Note_on_c, 0, 41, 80
2, 279839, Note_on_c, 0, 41, 0
2, 279840, Note_on_c, 0, 49, 80
2, 280199, Note_on_c, 0, 49, 0
2, 280200, Note_on_c, 0, 41, 80
2, 280319, Note_on_c, 0, 41, 0
2, 280320, Note_on_c, 0, 42, 80
2, 280439, Note_on_c, 0, 42, 0
2, 280560, Note_on_c, 0, 42, 80
2, 280799, Note_on_c, 0, 42, 0
2, 280800, Note_on_c, 0, 45, 80
2, 281039, Note_on_c, 0, 45, 0
2, 281040, Note_on_c, 0, 42, 80
2, 281279, Note_on_c, 0, 42, 0
2, 281280, Note_on_c, 0, 38, 80
2, 281399, Note_on_c, 0, 38, 0
2, 281520, Note_on_c, 0, 38, 80
2, 281759, Note_on_c, 0, 38, 0
2, 281760, Note_on_c, 0, 42, 80
2, 281999, Note_on_c, 0, 42, 0
2, 282000, Note_on_c, 0, 38, 80
2, 282239, Note_on_c, 0, 38, 0
2, 282240, Note_on_c, 0, 36, 80
2, 283439, Note_on_c, 0, 36, 0
2, 283440, Note_on_c, 0, 36, 80
2, 283679, Note_on_c, 0, 36, 0
2, 283680, Note_on_c, 0, 39, 80
2, 283919, Note_on_c, 0, 39, 0
2, 283920, Note_on_c, 0, 36, 80
2, 284159, Note_on_c, 0, 36, 0
2, 284160, Note_on_c, 0, 37, 80
2, 284279, Note_on_c, 0, 37, 0
2, 284400, Note_on_c, 0, 37, 80
2, 284639, Note_on_c, 0, 37, 0
2, 284640, Note_on_c, 0, 40, 80
2, 284879, Note_on_c, 0, 40, 0
2, 284880, Note_on_c, 0, 37, 80
2, 285119, Note_on_c, 0, 37, 0
2, 285120, Note_on_c, 0, 33, 80
2, 285239, Note_on_c, 0, 33, 0
2, 285360, Note_on_c, 0, 33, 80
2, 285599, Note_on_c, 0, 33, 0
2, 285600, Note_on_c, 0, 37, 80
2, 285839, Note_on_c, 0, 37, 0
2, 285840, Note_on_c, 0, 33, 80
2, 286079, Note_on_c, 0, 33, 0
2, 286080, Note_on_c, 0, 30, 80
2, 286199, Note_on_c, 0, 30, 0
2, 286320, Note_on_c, 0, 30, 80
2, 286559, Note_on_c, 0, 30, 0
2, 286560, Note_on_c, 0, 33, 80
2, 286799, Note_on_c, 0, 33, 0
2, 286800, Note_on_c, 0, 30, 80
2, 287039, Note_on_c, 0, 30, 0
2, 287040, Note_on_c, 0, 31, 80
2, 287279, Note_on_c, 0, 31, 0
2, 287280, Note_on_c, 0, 31, 80
2, 287519, Note_on_c, 0, 31, 0
2, 287520, Note_on_c, 0, 34, 80
2, 287759, Note_on_c, 0, 34, 0
2, 287760, Note_on_c, 0, 31, 80
2, 287999, Note_on_c, 0, 31, 0
2, 289920, Note_on_c, 0, 61, 80
2, 289920, Note_on_c, 0, 57, 80
2, 290879, Note_on_c, 0, 61, 0
2, 290879, Note_on_c, 0, 57, 0
2, 290880, Note_on_c, 0, 59, 80
2, 290880, Note_on_c, 0, 56, 80
2, 291839, Note_on_c, 0, 59, 0
2, 291839, Note_on_c, 0, 56, 0
2, 291840, Note_on_c, 0, 57, 80
2, 291840, Note_on_c, 0, 54, 80
2, 292799, Note_on_c, 0, 57, 0
2, 292799, Note_on_c, 0, 54, 0
2, 292800, Note_on_c, 0, 56, 80
2, 292800, Note_on_c, 0, 52, 80
2, 293759, Note_on_c, 0, 56, 0
2, 293759, Note_on_c, 0, 52, 0
2, 293760, Note_on_c, 0, 54, 80
2, 293760, Note_on_c, 0, 51, 80
2, 294719, Note_on_c, 0, 54, 0
2, 294719, Note_on_c, 0, 51, 0
2, 294720, Note_on_c, 0, 52, 80
2, 294720, Note_on_c, 0, 49, 80
2, 295679, Note_on_c, 0, 52, 0
2, 295679, Note_on_c, 0, 49, 0
2, 312960, Note_on_c, 0, 61, 80
2, 312960, Note_on_c, 0, 57, 80
2, 314879, Note_on_c, 0, 61, 0
2, 314879, Note_on_c, 0, 57, 0
2, 314880, Note_on_c, 0, 60, 80
2, 314880, Note_on_c, 0, 56, 80
2, 316799, Note_on_c, 0, 60, 0
2, 316799, Note_on_c, 0, 56, 0
2, 316920, Note_on_c, 0, 44, 80
2, 317039, Note_on_c, 0, 44, 0
2, 317040, Note_on_c, 0, 49, 80
2, 317159, Note_on_c, 0, 49, 0
2, 317160, Note_on_c, 0, 52, 80
2, 317279, Note_on_c, 0, 52, 0
2, 317280, Note_on_c, 0, 56, 80
2, 317399, Note_on_c, 0, 56, 0
2, 317400, Note_on_c, 0, 49, 80
2, 317519, Note_on_c, 0, 49, 0
2, 317520, Note_on_c, 0, 52, 80
2, 317639, Note_on_c, 0, 52, 0
2, 317640, Note_on_c, 0, 56, 80
2, 317759, Note_on_c, 0, 56, 0
2, 317760, Note_on_c, 0, 61, 80
2, 317879, Note_on_c, 0, 61, 0
2, 317880, Note_on_c, 0, 52, 80
2, 317999, Note_on_c, 0, 52, 0
2, 318000, Note_on_c, 0, 56, 80
2, 318119, Note_on_c, 0, 56, 0
2, 318120, Note_on_c, 0, 61, 80
2, 318239, Note_on_c, 0, 61, 0
2, 320160, Note_on_c, 0, 49, 80
2, 320160, Note_on_c, 0, 37, 80
2, 320399, Note_on_c, 0, 49, 0
2, 320399, Note_on_c, 0, 37, 0
2, 320760, Note_on_c, 0, 44, 80
2, 320879, Note_on_c, 0, 44, 0
2, 320880, Note_on_c, 0, 48, 80
2, 320999, Note_on_c, 0, 48, 0
2, 321000, Note_on_c, 0, 51, 80
2, 321119, Note_on_c, 0, 51, 0
2, 321120, Note_on_c, 0, 56, 80
2, 321239, Note_on_c, 0, 56, 0
2, 321240, Note_on_c, 0, 48, 80
2, 321359, Note_on_c, 0, 48, 0
2, 321360, Note_on_c, 0, 51, 80
2, 321479, Note_on_c, 0, 51, 0
2, 321480, Note_on_c, 0, 56, 80
2, 321599, Note_on_c, 0, 56, 0
2, 321600, Note_on_c, 0, 60, 80
2, 321719, Note_on_c, 0, 60, 0
2, 321720, Note_on_c, 0, 52, 80
2, 321839, Note_on_c, 0, 52, 0
2, 321840, Note_on_c, 0, 56, 80
2, 321959, Note_on_c, 0, 56, 0
2, 321960, Note_on_c, 0, 60, 80
2, 322079, Note_on_c, 0, 60, 0
2, 324000, Note_on_c, 0, 48, 80
2, 324000, Note_on_c, 0, 36, 80
2, 324239, Note_on_c, 0, 48, 0
2, 324239, Note_on_c, 0, 36, 0
2, 324600, Note_on_c, 0, 49, 80
2, 324719, Note_on_c, 0, 49, 0
2, 324720, Note_on_c, 0, 53, 80
2, 324839, Note_on_c, 0, 53, 0
2, 324840, Note_on_c, 0, 56, 80
2, 324959, Note_on_c, 0, 56, 0
2, 324960, Note_on_c, 0, 61, 80
2, 325079, Note_on_c, 0, 61, 0
2, 325080, Note_on_c, 0, 53, 80
2, 325199, Note_on_c, 0, 53, 0
2, 325200, Note_on_c, 0, 56, 80
2, 325319, Note_on_c, 0, 56, 0
2, 325320, Note_on_c, 0, 61, 80
2, 325439, Note_on_c, 0, 61, 0
2, 327840, Note_on_c, 0, 47, 80
2, 327840, Note_on_c, 0, 35, 80
2, 328079, Note_on_c, 0, 47, 0
2, 328079, Note_on_c, 0, 35, 0
2, 328440, Note_on_c, 0, 49, 80
2, 328559, Note_on_c, 0, 49, 0
2, 328560, Note_on_c, 0, 54, 80
2, 328679, Note_on_c, 0, 54, 0
2, 328680, Note_on_c, 0, 57, 80
2, 328799, Note_on_c, 0, 57, 0
2, 329760, Note_on_c, 0, 33, 80
2, 329999, Note_on_c, 0, 33, 0
2, 330360, Note_on_c, 0, 49, 80
2, 330479, Note_on_c, 0, 49, 0
2, 330480, Note_on_c, 0, 52, 80
2, 330599, Note_on_c, 0, 52, 0
2, 330600, Note_on_c, 0, 55, 80
2, 330719, Note_on_c, 0, 55, 0
2, 331680, Note_on_c, 0, 33, 80
2, 331919, Note_on_c, 0, 33, 0
2, 332160, Note_on_c, 0, 44, 80
2, 332279, Note_on_c, 0, 44, 0
2, 367200, Note_on_c, 0, 54, 80
2, 367200, Note_on_c, 0, 50, 80
2, 367200, Note_on_c, 0, 45, 80
2, 367200, Note_on_c, 0, 42, 80
2, 368639, Note_on_c, 0, 54, 0
2, 368639, Note_on_c, 0, 50, 0
2, 368639, Note_on_c, 0, 45, 0
2, 368639, Note_on_c, 0, 42, 0
2, 375360, Note_on_c, 0, 42, 80
2, 375360, Note_on_c, 0, 38, 80
2, 375360, Note_on_c, 0, 33, 80
2, 375360, Note_on_c, 0, 30, 80
2, 376319, Note_on_c, 0, 42, 0
2, 376319, Note_on_c, 0, 38, 0
2, 376319, Note_on_c, 0, 33, 0
2, 376319, Note_on_c, 0, 30, 0
2, 419040, Note_on_c, 0, 52, 80
2, 419159, Note_on_c, 0, 52, 0
2, 419160, Note_on_c, 0, 61, 80
2, 419279, Note_on_c, 0, 61, 0
2, 419280, Note_on_c, 0, 56, 80
2, 419399, Note_on_c, 0, 56, 0
2, 419400, Note_on_c, 0, 61, 80
2, 419519, Note_on_c, 0, 61, 0
2, 419520, Note_on_c, 0, 52, 80
2, 419639, Note_on_c, 0, 52, 0
2, 419640, Note_on_c, 0, 61, 80
2, 419759, Note_on_c, 0, 61, 0
2, 419760, Note_on_c, 0, 56, 80
2, 419879, Note_on_c, 0, 56, 0
2, 419880, Note_on_c, 0, 61, 80
2, 419999, Note_on_c, 0, 61, 0
2, 420000, Note_on_c, 0, 52, 80
2, 420119, Note_on_c, 0, 52, 0
2, 420120, Note_on_c, 0, 61, 80
2, 420239, Note_on_c, 0, 61, 0
2, 420240, Note_on_c, 0, 56, 80
2, 420359, Note_on_c, 0, 56, 0
2, 420360, Note_on_c, 0, 61, 80
2, 420479, Note_on_c, 0, 61, 0
2, 420480, Note_on_c, 0, 52, 80
2, 420599, Note_on_c, 0, 52, 0
2, 420600, Note_on_c, 0, 61, 80
2, 420719, Note_on_c, 0, 61, 0
2, 420720, Note_on_c, 0, 56, 80
2, 420839, Note_on_c, 0, 56, 0
2, 420840, Note_on_c, 0, 61, 80
2, 420959, Note_on_c, 0, 61, 0
2, 420960, Note_on_c, 0, 53, 80
2, 420960, Note_on_c, 0, 49, 80
2, 421079, Note_on_c, 0, 53, 0
2, 421079, Note_on_c, 0, 49, 0
2, 421080, Note_on_c, 0, 61, 80
2, 421199, Note_on_c, 0, 61, 0
2, 421200, Note_on_c, 0, 56, 80
2, 421319, Note_on_c, 0, 56, 0
2, 421320, Note_on_c, 0, 61, 80
2, 421439, Note_on_c, 0, 61, 0
2, 421440, Note_on_c, 0, 53, 80
2, 421440, Note_on_c, 0, 49, 80
2, 421559, Note_on_c, 0, 53, 0
2, 421559, Note_on_c, 0, 49, 0
2, 421560, Note_on_c, 0, 61, 80
2, 421679, Note_on_c, 0, 61, 0
2, 421680, Note_on_c, 0, 56, 80
2, 421799, Note_on_c, 0, 56, 0
2, 421800, Note_on_c, 0, 61, 80
2, 421919, Note_on_c, 0, 61, 0
2, 421920, Note_on_c, 0, 53, 80
2, 421920, Note_on_c, 0, 49, 80
2, 422039, Note_on_c, 0, 53, 0
2, 422039, Note_on_c, 0, 49, 0
2, 422040, Note_on_c, 0, 61, 80
2, 422159, Note_on_c, 0, 61, 0
2, 422160, Note_on_c, 0, 56, 80
2, 422279, Note_on_c, 0, 56, 0
2, 422280, Note_on_c, 0, 61, 80
2, 422399, Note_on_c, 0, 61, 0
2, 422400, Note_on_c, 0, 53, 80
2, 422400, Note_on_c, 0, 49, 80
2, 422519, Note_on_c, 0, 53, 0
2, 422519, Note_on_c, 0, 49, 0
2, 422520, Note_on_c, 0, 61, 80
2, 422639, Note_on_c, 0, 61, 0
2, 422640, Note_on_c, 0, 56, 80
2, 422759, Note_on_c, 0, 56, 0
2, 422760, Note_on_c, 0, 61, 80
2, 422879, Note_on_c, 0, 61, 0
2, 422880, Note_on_c, 0, 61, 80
2, 422880, Note_on_c, 0, 57, 80
2, 422880, Note_on_c, 0, 54, 80
2, 422880, Note_on_c, 0, 49, 80
2, 422939, Note_on_c, 0, 61, 0
2, 422939, Note_on_c, 0, 57, 0
2, 422939, Note_on_c, 0, 54, 0
2, 422939, Note_on_c, 0, 49, 0
2, 423000, Note_on_c, 0, 49, 80
2, 423119, Note_on_c, 0, 49, 0
2, 423120, Note_on_c, 0, 54, 80
2, 423239, Note_on_c, 0, 54, 0
2, 423240, Note_on_c, 0, 57, 80
2, 423359, Note_on_c, 0, 57, 0
2, 423360, Note_on_c, 0, 61, 80
2, 423479, Note_on_c, 0, 61, 0
2, 423480, Note_on_c, 0, 54, 80
2, 423599, Note_on_c, 0, 54, 0
2, 423600, Note_on_c, 0, 57, 80
2, 423719, Note_on_c, 0, 57, 0
2, 423720, Note_on_c, 0, 61, 80
2, 423839, Note_on_c, 0, 61, 0
2, 426240, Note_on_c, 0, 45, 80
2, 426240, Note_on_c, 0, 33, 80
2, 426479, Note_on_c, 0, 45, 0
2, 426479, Note_on_c, 0, 33, 0
2, 426840, Note_on_c, 0, 49, 80
2, 426959, Note_on_c, 0, 49, 0
2, 426960, Note_on_c, 0, 52, 80
2, 427079, Note_on_c, 0, 52, 0
2, 427080, Note_on_c, 0, 56, 80
2, 427199, Note_on_c, 0, 56, 0
2, 427200, Note_on_c, 0, 61, 80
2, 427319, Note_on_c, 0, 61, 0
2, 427320, Note_on_c, 0, 52, 80
2, 427439, Note_on_c, 0, 52, 0
2, 427440, Note_on_c, 0, 56, 80
2, 427559, Note_on_c, 0, 56, 0
2, 427560, Note_on_c, 0, 61, 80
2, 427679, Note_on_c, 0, 61, 0
2, 430080, Note_on_c, 0, 44, 80
2, 430080, Note_on_c, 0, 32, 80
2, 430319, Note_on_c, 0, 44, 0
2, 430319, Note_on_c, 0, 32, 0
2, 430800, Note_on_c, 0, 49, 80
2, 430860, Note_on_c, 0, 52, 80
2, 430920, Note_on_c, 0, 55, 80
2, 430980, Note_on_c, 0, 58, 80
2, 431040, Note_on_c, 0, 61, 80
2, 431759, Note_on_c, 0, 61, 0
2, 431759, Note_on_c, 0, 49, 0
2, 431819, Note_on_c, 0, 52, 0
2, 431879, Note_on_c, 0, 55, 0
2, 431939, Note_on_c, 0, 58, 0
2, 435600, Note_on_c, 0, 45, 80
2, 435660, Note_on_c, 0, 48, 80
2, 435720, Note_on_c, 0, 51, 80
2, 435780, Note_on_c, 0, 54, 80
2, 435840, Note_on_c, 0, 57, 80
2, 436559, Note_on_c, 0, 57, 0
2, 436559, Note_on_c, 0, 45, 0
2, 436619, Note_on_c, 0, 48, 0
2, 436679, Note_on_c, 0, 51, 0
2, 436739, Note_on_c, 0, 54, 0
2, 440160, Note_on_c, 0, 49, 80
2, 440639, Note_on_c, 0, 49, 0
2, 440640, Note_on_c, 0, 56, 80
2, 441599, Note_on_c, 0, 56, 0
2, 441600, Note_on_c, 0, 52, 80
2, 441959, Note_on_c, 0, 52, 0
2, 441960, Note_on_c, 0, 49, 80
2, 442079, Note_on_c, 0, 49, 0
2, 442080, Note_on_c, 0, 49, 80
2, 442559, Note_on_c, 0, 49, 0
2, 442560, Note_on_c, 0, 48, 80
2, 443279, Note_on_c, 0, 48, 0
2, 443280, Note_on_c, 0, 48, 80
2, 443519, Note_on_c, 0, 48, 0
2, 443520, Note_on_c, 0, 56, 80
2, 443879, Note_on_c, 0, 56, 0
2, 443880, Note_on_c, 0, 48, 80
2, 443999, Note_on_c, 0, 48, 0
2, 444000, Note_on_c, 0, 51, 80
2, 444479, Note_on_c, 0, 51, 0
2, 444480, Note_on_c, 0, 49, 80
2, 445199, Note_on_c, 0, 49, 0
2, 445200, Note_on_c, 0, 49, 80
2, 445439, Note_on_c, 0, 49, 0
2, 445440, Note_on_c, 0, 56, 80
2, 445799, Note_on_c, 0, 56, 0
2, 445800, Note_on_c, 0, 49, 80
2, 445919, Note_on_c, 0, 49, 0
2, 445920, Note_on_c, 0, 52, 80
2, 446399, Note_on_c, 0, 52, 0
2, 446400, Note_on_c, 0, 51, 80
2, 447119, Note_on_c, 0, 51, 0
2, 447120, Note_on_c, 0, 51, 80
2, 447359, Note_on_c, 0, 51, 0
2, 447360, Note_on_c, 0, 56, 80
2, 447719, Note_on_c, 0, 56, 0
2, 447720, Note_on_c, 0, 51, 80
2, 447839, Note_on_c, 0, 51, 0
2, 460800, Note_on_c, 0, 57, 80
2, 460959, Note_on_c, 0, 57, 0
2, 460960, Note_on_c, 0, 54, 80
2, 461119, Note_on_c, 0, 54, 0
2, 461120, Note_on_c, 0, 49, 80
2, 461279, Note_on_c, 0, 49, 0
2, 461280, Note_on_c, 0, 57, 80
2, 461399, Note_on_c, 0, 57, 0
2, 461400, Note_on_c, 0, 54, 80
2, 461519, Note_on_c, 0, 54, 0
2, 461520, Note_on_c, 0, 49, 80
2, 461639, Note_on_c, 0, 49, 0
2, 461640, Note_on_c, 0, 45, 80
2, 461759, Note_on_c, 0, 45, 0
2, 461760, Note_on_c, 0, 49, 80
2, 461879, Note_on_c, 0, 49, 0
2, 461880, Note_on_c, 0, 54, 80
2, 461999, Note_on_c, 0, 54, 0
2, 462000, Note_on_c, 0, 57, 80
2, 462119, Note_on_c, 0, 57, 0
2, 462120, Note_on_c, 0, 61, 80
2, 462239, Note_on_c, 0, 61, 0
2, 464640, Note_on_c, 0, 57, 80
2, 464799, Note_on_c, 0, 57, 0
2, 464800, Note_on_c, 0, 54, 80
2, 464959, Note_on_c, 0, 54, 0
2, 464960, Note_on_c, 0, 50, 80
2, 465119, Note_on_c, 0, 50, 0
2, 465120, Note_on_c, 0, 57, 80
2, 465239, Note_on_c, 0, 57, 0
2, 465240, Note_on_c, 0, 54, 80
2, 465359, Note_on_c, 0, 54, 0
2, 465360, Note_on_c, 0, 50, 80
2, 465479, Note_on_c, 0, 50, 0
2, 465480, Note_on_c, 0, 45, 80
2, 465599, Note_on_c, 0, 45, 0
2, 465600, Note_on_c, 0, 50, 80
2, 465719, Note_on_c, 0, 50, 0
2, 465720, Note_on_c, 0, 54, 80
2, 465839, Note_on_c, 0, 54, 0
2, 465840, Note_on_c, 0, 57, 80
2, 465959, Note_on_c, 0, 57, 0
2, 465960, Note_on_c, 0, 62, 80
2, 466079, Note_on_c, 0, 62, 0
2, 469200, Note_on_c, 0, 58, 80
2, 469319, Note_on_c, 0, 58, 0
2, 469320, Note_on_c, 0, 55, 80
2, 469439, Note_on_c, 0, 55, 0
2, 469440, Note_on_c, 0, 52, 80
2, 469559, Note_on_c, 0, 52, 0
2, 469560, Note_on_c, 0, 49, 80
2, 469679, Note_on_c, 0, 49, 0
2, 469680, Note_on_c, 0, 52, 80
2, 469799, Note_on_c, 0, 52, 0
2, 469800, Note_on_c, 0, 55, 80
2, 469919, Note_on_c, 0, 55, 0
2, 473280, Note_on_c, 0, 56, 80
2, 473399, Note_on_c, 0, 56, 0
2, 473400, Note_on_c, 0, 64, 80
2, 473519, Note_on_c, 0, 64, 0
2, 473520, Note_on_c, 0, 61, 80
2, 473639, Note_on_c, 0, 61, 0
2, 473640, Note_on_c, 0, 56, 80
2, 473759, Note_on_c, 0, 56, 0
2, 473760, Note_on_c, 0, 52, 80
2, 473879, Note_on_c, 0, 52, 0
2, 473880, Note_on_c, 0, 61, 80
2, 473999, Note_on_c, 0, 61, 0
2, 474000, Note_on_c, 0, 56, 80
2, 474119, Note_on_c, 0, 56, 0
2, 474120, Note_on_c, 0, 52, 80
2, 474239, Note_on_c, 0, 52, 0
2, 474240, Note_on_c, 0, 49, 80
2, 474359, Note_on_c, 0, 49, 0
2, 474360, Note_on_c, 0, 56, 80
2, 474479, Note_on_c, 0, 56, 0
2, 474480, Note_on_c, 0, 52, 80
2, 474599, Note_on_c, 0, 52, 0
2, 474600, Note_on_c, 0, 49, 80
2, 474719, Note_on_c, 0, 49, 0
2, 474720, Note_on_c, 0, 44, 80
2, 474839, Note_on_c, 0, 44, 0
2, 474840, Note_on_c, 0, 45, 80
2, 474959, Note_on_c, 0, 45, 0
2, 474960, Note_on_c, 0, 46, 80
2, 475079, Note_on_c, 0, 46, 0
2, 475080, Note_on_c, 0, 47, 80
2, 475199, Note_on_c, 0, 47, 0
2, 475200, Note_on_c, 0, 48, 80
2, 475319, Note_on_c, 0, 48, 0
2, 475320, Note_on_c, 0, 49, 80
2, 475439, Note_on_c, 0, 49, 0
2, 475440, Note_on_c, 0, 50, 80
2, 475559, Note_on_c, 0, 50, 0
2, 475560, Note_on_c, 0, 51, 80
2, 475679, Note_on_c, 0, 51, 0
2, 475680, Note_on_c, 0, 52, 80
2, 475799, Note_on_c, 0, 52, 0
2, 475800, Note_on_c, 0, 53, 80
2, 475919, Note_on_c, 0, 53, 0
2, 475920, Note_on_c, 0, 54, 80
2, 476039, Note_on_c, 0, 54, 0
2, 476040, Note_on_c, 0, 55, 80
2, 476159, Note_on_c, 0, 55, 0
2, 476160, Note_on_c, 0, 56, 80
2, 476279, Note_on_c, 0, 56, 0
2, 476280, Note_on_c, 0, 57, 80
2, 476399, Note_on_c, 0, 57, 0
2, 476400, Note_on_c, 0, 58, 80
2, 476519, Note_on_c, 0, 58, 0
2, 476520, Note_on_c, 0, 59, 80
2, 476639, Note_on_c, 0, 59, 0
2, 478560, Note_on_c, 0, 66, 80
2, 478560, Note_on_c, 0, 60, 80
2, 478560, Note_on_c, 0, 56, 80
2, 480479, Note_on_c, 0, 66, 0
2, 480479, Note_on_c, 0, 60, 0
2, 480479, Note_on_c, 0, 56, 0
2, 486240, Note_on_c, 0, 49, 80
2, 486479, Note_on_c, 0, 49, 0
2, 502560, Note_on_c, 0, 64, 80
2, 502679, Note_on_c, 0, 64, 0
2, 502680, Note_on_c, 0, 61, 80
2, 502799, Note_on_c, 0, 61, 0
2, 502800, Note_on_c, 0, 56, 80
2, 502919, Note_on_c, 0, 56, 0
2, 502920, Note_on_c, 0, 52, 80
2, 503039, Note_on_c, 0, 52, 0
2, 503040, Note_on_c, 0, 61, 80
2, 503159, Note_on_c, 0, 61, 0
2, 503160, Note_on_c, 0, 56, 80
2, 503279, Note_on_c, 0, 56, 0
2, 503280, Note_on_c, 0, 52, 80
2, 503399, Note_on_c, 0, 52, 0
2, 503400, Note_on_c, 0, 56, 80
2, 503519, Note_on_c, 0, 56, 0
2, 503520, Note_on_c, 0, 49, 80
2, 503520, Note_on_c, 0, 37, 80
2, 503999, Note_on_c, 0, 49, 0
2, 503999, Note_on_c, 0, 37, 0
2, 504480, Note_on_c, 0, 49, 80
2, 504480, Note_on_c, 0, 44, 80
2, 504480, Note_on_c, 0, 40, 80
2, 504480, Note_on_c, 0, 37, 80
2, 504719, Note_on_c, 0, 49, 0
2, 504719, Note_on_c, 0, 44, 0
2, 504719, Note_on_c, 0, 40, 0
2, 504719, Note_on_c, 0, 37, 0
2, 505440, Note_on_c, 0, 49, 80
2, 505440, Note_on_c, 0, 44, 80
2, 505440, Note_on_c, 0, 40, 80
2, 505440, Note_on_c, 0, 37, 80
2, 505679, Note_on_c, 0, 49, 0
2, 505679, Note_on_c, 0, 44, 0
2, 505679, Note_on_c, 0, 40, 0
2, 505679, Note_on_c, 0, 37, 0
2, 505680, End_track
3, 0, Start_track
3, 0, Key_signature, 4, "major"
3, 0, Program_c, 1, 0
3, 2, Control_c, 1, 7, 100
3, 4, Control_c, 1, 10, 81
3, 6, Control_c, 1, 91, 112
3, 8, Control_c, 1, 93, 0
3, 3360, Note_on_c, 1, 80, 80
3, 3360, Note_on_c, 1, 76, 80
3, 3360, Note_on_c, 1, 73, 80
3, 3360, Note_on_c, 1, 68, 80
3, 3599, Note_on_c, 1, 80, 0
3, 3599, Note_on_c, 1, 76, 0
3, 3599, Note_on_c, 1, 73, 0
3, 3599, Note_on_c, 1, 68, 0
3, 7200, Note_on_c, 1, 80, 80
3, 7200, Note_on_c, 1, 75, 80
3, 7200, Note_on_c, 1, 72, 80
3, 7200, Note_on_c, 1, 68, 80
3, 7439, Note_on_c, 1, 80, 0
3, 7439, Note_on_c, 1, 75, 0
3, 7439, Note_on_c, 1, 72, 0
3, 7439, Note_on_c, 1, 68, 0
3, 11040, Note_on_c, 1, 85, 80
3, 11040, Note_on_c, 1, 80, 80
3, 11040, Note_on_c, 1, 77, 80
3, 11040, Note_on_c, 1, 73, 80
3, 11279, Note_on_c, 1, 85, 0
3, 11279, Note_on_c, 1, 80, 0
3, 11279, Note_on_c, 1, 77, 0
3, 11279, Note_on_c, 1, 73, 0
3, 12960, Note_on_c, 1, 85, 80
3, 12960, Note_on_c, 1, 78, 80
3, 12960, Note_on_c, 1, 73, 80
3, 13199, Note_on_c, 1, 85, 0
3, 13199, Note_on_c, 1, 78, 0
3, 13199, Note_on_c, 1, 73, 0
3, 14880, Note_on_c, 1, 85, 80
3, 14880, Note_on_c, 1, 79, 80
3, 14880, Note_on_c, 1, 73, 80
3, 15119, Note_on_c, 1, 85, 0
3, 15119, Note_on_c, 1, 79, 0
3, 15119, Note_on_c, 1, 73, 0
3, 30240, Note_on_c, 1, 80, 80
3, 30240, Note_on_c, 1, 76, 80
3, 30240, Note_on_c, 1, 73, 80
3, 30240, Note_on_c, 1, 68, 80
3, 30479, Note_on_c, 1, 80, 0
3, 30479, Note_on_c, 1, 76, 0
3, 30479, Note_on_c, 1, 73, 0
3, 30479, Note_on_c, 1, 68, 0
3, 34080, Note_on_c, 1, 88, 80
3, 34080, Note_on_c, 1, 76, 80
3, 34319, Note_on_c, 1, 88, 0
3, 34319, Note_on_c, 1, 76, 0
3, 53760, Note_on_c, 1, 84, 80
3, 53760, Note_on_c, 1, 72, 80
3, 54719, Note_on_c, 1, 84, 0
3, 54719, Note_on_c, 1, 72, 0
3, 54720, Note_on_c, 1, 85, 80
3, 54720, Note_on_c, 1, 73, 80
3, 55679, Note_on_c, 1, 85, 0
3, 55679, Note_on_c, 1, 73, 0
3, 56160, Note_on_c, 1, 83, 80
3, 56160, Note_on_c, 1, 71, 80
3, 57599, Note_on_c, 1, 83, 0
3, 57599, Note_on_c, 1, 71, 0
3, 57600, Note_on_c, 1, 80, 80
3, 57600, Note_on_c, 1, 68, 80
3, 58559, Note_on_c, 1, 80, 0
3, 58559, Note_on_c, 1, 68, 0
3, 58560, Note_on_c, 1, 81, 80
3, 58560, Note_on_c, 1, 69, 80
3, 59519, Note_on_c, 1, 81, 0
3, 59519, Note_on_c, 1, 69, 0
3, 60000, Note_on_c, 1, 80, 80
3, 60000, Note_on_c, 1, 68, 80
3, 61439, Note_on_c, 1, 80, 0
3, 61439, Note_on_c, 1, 68, 0
3, 63360, Note_on_c, 1, 69, 80
3, 63360, Note_on_c, 1, 64, 80
3, 63360, Note_on_c, 1, 61, 80
3, 63599, Note_on_c, 1, 69, 0
3, 63599, Note_on_c, 1, 64, 0
3, 63599, Note_on_c, 1, 61, 0
3, 64320, Note_on_c, 1, 69, 80
3, 64320, Note_on_c, 1, 64, 80
3, 64320, Note_on_c, 1, 61, 80
3, 64559, Note_on_c, 1, 69, 0
3, 64559, Note_on_c, 1, 64, 0
3, 64559, Note_on_c, 1, 61, 0
3, 65280, Note_on_c, 1, 69, 80
3, 65280, Note_on_c, 1, 64, 80
3, 65280, Note_on_c, 1, 61, 80
3, 65519, Note_on_c, 1, 69, 0
3, 65519, Note_on_c, 1, 64, 0
3, 65519, Note_on_c, 1, 61, 0
3, 65760, Note_on_c, 1, 69, 80
3, 65760, Note_on_c, 1, 64, 80
3, 65760, Note_on_c, 1, 61, 80
3, 65999, Note_on_c, 1, 69, 0
3, 65999, Note_on_c, 1, 64, 0
3, 65999, Note_on_c, 1, 61, 0
3, 66240, Note_on_c, 1, 69, 80
3, 66240, Note_on_c, 1, 64, 80
3, 66240, Note_on_c, 1, 61, 80
3, 66479, Note_on_c, 1, 69, 0
3, 66479, Note_on_c, 1, 64, 0
3, 66479, Note_on_c, 1, 61, 0
3, 66720, Note_on_c, 1, 69, 80
3, 66720, Note_on_c, 1, 64, 80
3, 66720, Note_on_c, 1, 61, 80
3, 66959, Note_on_c, 1, 69, 0
3, 66959, Note_on_c, 1, 64, 0
3, 66959, Note_on_c, 1, 61, 0
3, 67200, Note_on_c, 1, 63, 80
3, 67319, Note_on_c, 1, 63, 0
3, 67320, Note_on_c, 1, 71, 80
3, 67439, Note_on_c, 1, 71, 0
3, 67440, Note_on_c, 1, 68, 80
3, 67559, Note_on_c, 1, 68, 0
3, 67560, Note_on_c, 1, 71, 80
3, 67679, Note_on_c, 1, 71, 0
3, 67680, Note_on_c, 1, 63, 80
3, 67799, Note_on_c, 1, 63, 0
3, 67800, Note_on_c, 1, 71, 80
3, 67919, Note_on_c, 1, 71, 0
3, 67920, Note_on_c, 1, 68, 80
3, 68039, Note_on_c, 1, 68, 0
3, 68040, Note_on_c, 1, 71, 80
3, 68159, Note_on_c, 1, 71, 0
3, 68160, Note_on_c, 1, 63, 80
3, 68279, Note_on_c, 1, 63, 0
3, 68280, Note_on_c, 1, 73, 80
3, 68399, Note_on_c, 1, 73, 0
3, 68400, Note_on_c, 1, 67, 80
3, 68519, Note_on_c, 1, 67, 0
3, 68520, Note_on_c, 1, 73, 80
3, 68639, Note_on_c, 1, 73, 0
3, 68640, Note_on_c, 1, 63, 80
3, 68759, Note_on_c, 1, 63, 0
3, 68760, Note_on_c, 1, 73, 80
3, 68879, Note_on_c, 1, 73, 0
3, 68880, Note_on_c, 1, 67, 80
3, 68999, Note_on_c, 1, 67, 0
3, 69000, Note_on_c, 1, 73, 80
3, 69119, Note_on_c, 1, 73, 0
3, 69120, Note_on_c, 1, 71, 80
3, 69120, Note_on_c, 1, 68, 80
3, 69120, Note_on_c, 1, 64, 80
3, 69359, Note_on_c, 1, 71, 0
3, 69359, Note_on_c, 1, 68, 0
3, 69359, Note_on_c, 1, 64, 0
3, 103920, Note_on_c, 1, 68, 80
3, 103920, Note_on_c, 1, 63, 80
3, 104039, Note_on_c, 1, 68, 0
3, 104039, Note_on_c, 1, 63, 0
3, 104160, Note_on_c, 1, 68, 80
3, 104160, Note_on_c, 1, 63, 80
3, 104399, Note_on_c, 1, 68, 0
3, 104399, Note_on_c, 1, 63, 0
3, 104400, Note_on_c, 1, 63, 80
3, 104400, Note_on_c, 1, 59, 80
3, 104639, Note_on_c, 1, 63, 0
3, 104639, Note_on_c, 1, 59, 0
3, 104880, Note_on_c, 1, 69, 80
3, 104880, Note_on_c, 1, 64, 80
3, 104999, Note_on_c, 1, 69, 0
3, 104999, Note_on_c, 1, 64, 0
3, 105120, Note_on_c, 1, 69, 80
3, 105120, Note_on_c, 1, 64, 80
3, 105359, Note_on_c, 1, 69, 0
3, 105359, Note_on_c, 1, 64, 0
3, 105360, Note_on_c, 1, 64, 80
3, 105360, Note_on_c, 1, 61, 80
3, 105599, Note_on_c, 1, 64, 0
3, 105599, Note_on_c, 1, 61, 0
3, 105840, Note_on_c, 1, 68, 80
3, 105840, Note_on_c, 1, 63, 80
3, 105959, Note_on_c, 1, 68, 0
3, 105959, Note_on_c, 1, 63, 0
3, 106080, Note_on_c, 1, 68, 80
3, 106080, Note_on_c, 1, 63, 80
3, 106319, Note_on_c, 1, 68, 0
3, 106319, Note_on_c, 1, 63, 0
3, 106320, Note_on_c, 1, 63, 80
3, 106320, Note_on_c, 1, 59, 80
3, 106559, Note_on_c, 1, 63, 0
3, 106559, Note_on_c, 1, 59, 0
3, 106800, Note_on_c, 1, 67, 80
3, 106800, Note_on_c, 1, 61, 80
3, 106919, Note_on_c, 1, 67, 0
3, 106919, Note_on_c, 1, 61, 0
3, 107040, Note_on_c, 1, 67, 80
3, 107040, Note_on_c, 1, 61, 80
3, 107279, Note_on_c, 1, 67, 0
3, 107279, Note_on_c, 1, 61, 0
3, 107280, Note_on_c, 1, 61, 80
3, 107280, Note_on_c, 1, 58, 80
3, 107519, Note_on_c, 1, 61, 0
3, 107519, Note_on_c, 1, 58, 0
3, 126240, Note_on_c, 1, 80, 80
3, 126240, Note_on_c, 1, 76, 80
3, 126240, Note_on_c, 1, 73, 80
3, 126240, Note_on_c, 1, 68, 80
3, 126479, Note_on_c, 1, 80, 0
3, 126479, Note_on_c, 1, 76, 0
3, 126479, Note_on_c, 1, 73, 0
3, 126479, Note_on_c, 1, 68, 0
3, 130080, Note_on_c, 1, 80, 80
3, 130080, Note_on_c, 1, 75, 80
3, 130080, Note_on_c, 1, 72, 80
3, 130080, Note_on_c, 1, 68, 80
3, 130319, Note_on_c, 1, 80, 0
3, 130319, Note_on_c, 1, 75, 0
3, 130319, Note_on_c, 1, 72, 0
3, 130319, Note_on_c, 1, 68, 0
3, 133920, Note_on_c, 1, 85, 80
3, 133920, Note_on_c, 1, 80, 80
3, 133920, Note_on_c, 1, 77, 80
3, 133920, Note_on_c, 1, 73, 80
3, 134159, Note_on_c, 1, 85, 0
3, 134159, Note_on_c, 1, 80, 0
3, 134159, Note_on_c, 1, 77, 0
3, 134159, Note_on_c, 1, 73, 0
3, 135840, Note_on_c, 1, 85, 80
3, 135840, Note_on_c, 1, 78, 80
3, 135840, Note_on_c, 1, 73, 80
3, 136079, Note_on_c, 1, 85, 0
3, 136079, Note_on_c, 1, 78, 0
3, 136079, Note_on_c, 1, 73, 0
3, 137760, Note_on_c, 1, 85, 80
3, 137760, Note_on_c, 1, 79, 80
3, 137760, Note_on_c, 1, 73, 80
3, 137999, Note_on_c, 1, 85, 0
3, 137999, Note_on_c, 1, 79, 0
3, 137999, Note_on_c, 1, 73, 0
3, 153120, Note_on_c, 1, 80, 80
3, 153120, Note_on_c, 1, 76, 80
3, 153120, Note_on_c, 1, 73, 80
3, 153120, Note_on_c, 1, 68, 80
3, 153359, Note_on_c, 1, 80, 0
3, 153359, Note_on_c, 1, 76, 0
3, 153359, Note_on_c, 1, 73, 0
3, 153359, Note_on_c, 1, 68, 0
3, 156960, Note_on_c, 1, 88, 80
3, 156960, Note_on_c, 1, 76, 80
3, 157199, Note_on_c, 1, 88, 0
3, 157199, Note_on_c, 1, 76, 0
3, 176640, Note_on_c, 1, 84, 80
3, 176640, Note_on_c, 1, 72, 80
3, 177599, Note_on_c, 1, 84, 0
3, 177599, Note_on_c, 1, 72, 0
3, 177600, Note_on_c, 1, 85, 80
3, 177600, Note_on_c, 1, 73, 80
3, 178559, Note_on_c, 1, 85, 0
3, 178559, Note_on_c, 1, 73, 0
3, 179040, Note_on_c, 1, 83, 80
3, 179040, Note_on_c, 1, 71, 80
3, 180479, Note_on_c, 1, 83, 0
3, 180479, Note_on_c, 1, 71, 0
3, 180480, Note_on_c, 1, 80, 80
3, 180480, Note_on_c, 1, 68, 80
3, 181439, Note_on_c, 1, 80, 0
3, 181439, Note_on_c, 1, 68, 0
3, 181440, Note_on_c, 1, 81, 80
3, 181440, Note_on_c, 1, 69, 80
3, 182399, Note_on_c, 1, 81, 0
3, 182399, Note_on_c, 1, 69, 0
3, 182880, Note_on_c, 1, 80, 80
3, 182880, Note_on_c, 1, 68, 80
3, 184319, Note_on_c, 1, 80, 0
3, 184319, Note_on_c, 1, 68, 0
3, 186240, Note_on_c, 1, 69, 80
3, 186240, Note_on_c, 1, 64, 80
3, 186240, Note_on_c, 1, 61, 80
3, 186479, Note_on_c, 1, 69, 0
3, 186479, Note_on_c, 1, 64, 0
3, 186479, Note_on_c, 1, 61, 0
3, 187200, Note_on_c, 1, 69, 80
3, 187200, Note_on_c, 1, 64, 80
3, 187200, Note_on_c, 1, 61, 80
3, 187439, Note_on_c, 1, 69, 0
3, 187439, Note_on_c, 1, 64, 0
3, 187439, Note_on_c, 1, 61, 0
3, 188160, Note_on_c, 1, 69, 80
3, 188160, Note_on_c, 1, 64, 80
3, 188160, Note_on_c, 1, 61, 80
3, 188399, Note_on_c, 1, 69, 0
3, 188399, Note_on_c, 1, 64, 0
3, 188399, Note_on_c, 1, 61, 0
3, 188640, Note_on_c, 1, 69, 80
3, 188640, Note_on_c, 1, 64, 80
3, 188640, Note_on_c, 1, 61, 80
3, 188879, Note_on_c, 1, 69, 0
3, 188879, Note_on_c, 1, 64, 0
3, 188879, Note_on_c, 1, 61, 0
3, 189120, Note_on_c, 1, 69, 80
3, 189120, Note_on_c, 1, 64, 80
3, 189120, Note_on_c, 1, 61, 80
3, 189359, Note_on_c, 1, 69, 0
3, 189359, Note_on_c, 1, 64, 0
3, 189359, Note_on_c, 1, 61, 0
3, 189600, Note_on_c, 1, 69, 80
3, 189600, Note_on_c, 1, 64, 80
3, 189600, Note_on_c, 1, 61, 80
3, 189839, Note_on_c, 1, 69, 0
3, 189839, Note_on_c, 1, 64, 0
3, 189839, Note_on_c, 1, 61, 0
3, 190080, Note_on_c, 1, 63, 80
3, 190199, Note_on_c, 1, 63, 0
3, 190200, Note_on_c, 1, 71, 80
3, 190319, Note_on_c, 1, 71, 0
3, 190320, Note_on_c, 1, 68, 80
3, 190439, Note_on_c, 1, 68, 0
3, 190440, Note_on_c, 1, 71, 80
3, 190559, Note_on_c, 1, 71, 0
3, 190560, Note_on_c, 1, 63, 80
3, 190679, Note_on_c, 1, 63, 0
3, 190680, Note_on_c, 1, 71, 80
3, 190799, Note_on_c, 1, 71, 0
3, 190800, Note_on_c, 1, 68, 80
3, 190919, Note_on_c, 1, 68, 0
3, 190920, Note_on_c, 1, 71, 80
3, 191039, Note_on_c, 1, 71, 0
3, 191040, Note_on_c, 1, 63, 80
3, 191159, Note_on_c, 1, 63, 0
3, 191160, Note_on_c, 1, 73, 80
3, 191279, Note_on_c, 1, 73, 0
3, 191280, Note_on_c, 1, 67, 80
3, 191399, Note_on_c, 1, 67, 0
3, 191400, Note_on_c, 1, 73, 80
3, 191519, Note_on_c, 1, 73, 0
3, 191520, Note_on_c, 1, 63, 80
3, 191639, Note_on_c, 1, 63, 0
3, 191640, Note_on_c, 1, 73, 80
3, 191759, Note_on_c, 1, 73, 0
3, 191760, Note_on_c, 1, 67, 80
3, 191879, Note_on_c, 1, 67, 0
3, 191880, Note_on_c, 1, 73, 80
3, 191999, Note_on_c, 1, 73, 0
3, 192000, Note_on_c, 1, 71, 80
3, 192000, Note_on_c, 1, 68, 80
3, 192000, Note_on_c, 1, 64, 80
3, 192239, Note_on_c, 1, 71, 0
3, 192239, Note_on_c, 1, 68, 0
3, 192239, Note_on_c, 1, 64, 0
3, 226800, Note_on_c, 1, 68, 80
3, 226800, Note_on_c, 1, 63, 80
3, 226919, Note_on_c, 1, 68, 0
3, 226919, Note_on_c, 1, 63, 0
3, 227040, Note_on_c, 1, 68, 80
3, 227040, Note_on_c, 1, 63, 80
3, 227279, Note_on_c, 1, 68, 0
3, 227279, Note_on_c, 1, 63, 0
3, 227280, Note_on_c, 1, 63, 80
3, 227280, Note_on_c, 1, 59, 80
3, 227519, Note_on_c, 1, 63, 0
3, 227519, Note_on_c, 1, 59, 0
3, 227760, Note_on_c, 1, 69, 80
3, 227760, Note_on_c, 1, 64, 80
3, 227879, Note_on_c, 1, 69, 0
3, 227879, Note_on_c, 1, 64, 0
3, 228000, Note_on_c, 1, 69, 80
3, 228000, Note_on_c, 1, 64, 80
3, 228239, Note_on_c, 1, 69, 0
3, 228239, Note_on_c, 1, 64, 0
3, 228240, Note_on_c, 1, 64, 80
3, 228240, Note_on_c, 1, 61, 80
3, 228479, Note_on_c, 1, 64, 0
3, 228479, Note_on_c, 1, 61, 0
3, 228720, Note_on_c, 1, 68, 80
3, 228720, Note_on_c, 1, 63, 80
3, 228839, Note_on_c, 1, 68, 0
3, 228839, Note_on_c, 1, 63, 0
3, 228960, Note_on_c, 1, 68, 80
3, 228960, Note_on_c, 1, 63, 80
3, 229199, Note_on_c, 1, 68, 0
3, 229199, Note_on_c, 1, 63, 0
3, 229200, Note_on_c, 1, 63, 80
3, 229200, Note_on_c, 1, 59, 80
3, 229439, Note_on_c, 1, 63, 0
3, 229439, Note_on_c, 1, 59, 0
3, 229680, Note_on_c, 1, 67, 80
3, 229680, Note_on_c, 1, 61, 80
3, 229799, Note_on_c, 1, 67, 0
3, 229799, Note_on_c, 1, 61, 0
3, 229920, Note_on_c, 1, 67, 80
3, 229920, Note_on_c, 1, 61, 80
3, 230159, Note_on_c, 1, 67, 0
3, 230159, Note_on_c, 1, 61, 0
3, 230160, Note_on_c, 1, 61, 80
3, 230160, Note_on_c, 1, 58, 80
3, 230399, Note_on_c, 1, 61, 0
3, 230399, Note_on_c, 1, 58, 0
3, 249120, Note_on_c, 1, 85, 80
3, 249120, Note_on_c, 1, 80, 80
3, 249120, Note_on_c, 1, 76, 80
3, 249120, Note_on_c, 1, 73, 80
3, 249359, Note_on_c, 1, 85, 0
3, 249359, Note_on_c, 1, 80, 0
3, 249359, Note_on_c, 1, 76, 0
3, 249359, Note_on_c, 1, 73, 0
3, 252960, Note_on_c, 1, 85, 80
3, 252960, Note_on_c, 1, 80, 80
3, 252960, Note_on_c, 1, 76, 80
3, 252960, Note_on_c, 1, 73, 80
3, 253199, Note_on_c, 1, 85, 0
3, 253199, Note_on_c, 1, 80, 0
3, 253199, Note_on_c, 1, 76, 0
3, 253199, Note_on_c, 1, 73, 0
3, 254880, Note_on_c, 1, 85, 80
3, 254880, Note_on_c, 1, 81, 80
3, 254880, Note_on_c, 1, 78, 80
3, 254880, Note_on_c, 1, 73, 80
3, 255119, Note_on_c, 1, 85, 0
3, 255119, Note_on_c, 1, 81, 0
3, 255119, Note_on_c, 1, 78, 0
3, 255119, Note_on_c, 1, 73, 0
3, 256800, Note_on_c, 1, 85, 80
3, 256800, Note_on_c, 1, 83, 80
3, 256800, Note_on_c, 1, 80, 80
3, 256800, Note_on_c, 1, 73, 80
3, 257039, Note_on_c, 1, 85, 0
3, 257039, Note_on_c, 1, 83, 0
3, 257039, Note_on_c, 1, 80, 0
3, 257039, Note_on_c, 1, 73, 0
3, 320160, Note_on_c, 1, 80, 80
3, 320160, Note_on_c, 1, 76, 80
3, 320160, Note_on_c, 1, 73, 80
3, 320160, Note_on_c, 1, 68, 80
3, 320399, Note_on_c, 1, 80, 0
3, 320399, Note_on_c, 1, 76, 0
3, 320399, Note_on_c, 1, 73, 0
3, 320399, Note_on_c, 1, 68, 0
3, 324000, Note_on_c, 1, 80, 80
3, 324000, Note_on_c, 1, 75, 80
3, 324000, Note_on_c, 1, 71, 80
3, 324000, Note_on_c, 1, 68, 80
3, 324239, Note_on_c, 1, 80, 0
3, 324239, Note_on_c, 1, 75, 0
3, 324239, Note_on_c, 1, 71, 0
3, 324239, Note_on_c, 1, 68, 0
3, 327840, Note_on_c, 1, 85, 80
3, 327840, Note_on_c, 1, 80, 80
3, 327840, Note_on_c, 1, 77, 80
3, 327840, Note_on_c, 1, 73, 80
3, 328079, Note_on_c, 1, 85, 0
3, 328079, Note_on_c, 1, 80, 0
3, 328079, Note_on_c, 1, 77, 0
3, 328079, Note_on_c, 1, 73, 0
3, 329760, Note_on_c, 1, 85, 80
3, 329760, Note_on_c, 1, 78, 80
3, 329760, Note_on_c, 1, 73, 80
3, 329999, Note_on_c, 1, 85, 0
3, 329999, Note_on_c, 1, 78, 0
3, 329999, Note_on_c, 1, 73, 0
3, 331680, Note_on_c, 1, 85, 80
3, 331680, Note_on_c, 1, 79, 80
3, 331680, Note_on_c, 1, 73, 80
3, 331919, Note_on_c, 1, 85, 0
3, 331919, Note_on_c, 1, 79, 0
3, 331919, Note_on_c, 1, 73, 0
3, 332400, Note_on_c, 1, 60, 80
3, 332639, Note_on_c, 1, 60, 0
3, 332640, Note_on_c, 1, 60, 80
3, 332879, Note_on_c, 1, 60, 0
3, 332880, Note_on_c, 1, 61, 80
3, 333119, Note_on_c, 1, 61, 0
3, 333120, Note_on_c, 1, 63, 80
3, 333359, Note_on_c, 1, 63, 0
3, 333360, Note_on_c, 1, 64, 80
3, 333599, Note_on_c, 1, 64, 0
3, 333600, Note_on_c, 1, 66, 80
3, 333839, Note_on_c, 1, 66, 0
3, 333840, Note_on_c, 1, 63, 80
3, 334079, Note_on_c, 1, 63, 0
3, 334080, Note_on_c, 1, 66, 80
3, 334319, Note_on_c, 1, 66, 0
3, 334320, Note_on_c, 1, 64, 80
3, 334559, Note_on_c, 1, 64, 0
3, 334560, Note_on_c, 1, 69, 80
3, 334799, Note_on_c, 1, 69, 0
3, 334800, Note_on_c, 1, 68, 80
3, 335039, Note_on_c, 1, 68, 0
3, 335040, Note_on_c, 1, 66, 80
3, 335279, Note_on_c, 1, 66, 0
3, 335280, Note_on_c, 1, 64, 80
3, 335519, Note_on_c, 1, 64, 0
3, 335520, Note_on_c, 1, 63, 80
3, 335759, Note_on_c, 1, 63, 0
3, 335760, Note_on_c, 1, 61, 80
3, 335999, Note_on_c, 1, 61, 0
3, 336000, Note_on_c, 1, 60, 80
3, 336239, Note_on_c, 1, 60, 0
3, 336240, Note_on_c, 1, 60, 80
3, 336479, Note_on_c, 1, 60, 0
3, 336480, Note_on_c, 1, 60, 80
3, 336719, Note_on_c, 1, 60, 0
3, 336720, Note_on_c, 1, 61, 80
3, 336959, Note_on_c, 1, 61, 0
3, 336960, Note_on_c, 1, 63, 80
3, 337199, Note_on_c, 1, 63, 0
3, 337200, Note_on_c, 1, 64, 80
3, 337439, Note_on_c, 1, 64, 0
3, 337440, Note_on_c, 1, 66, 80
3, 337679, Note_on_c, 1, 66, 0
3, 337680, Note_on_c, 1, 63, 80
3, 337919, Note_on_c, 1, 63, 0
3, 337920, Note_on_c, 1, 66, 80
3, 338159, Note_on_c, 1, 66, 0
3, 338160, Note_on_c, 1, 61, 80
3, 338399, Note_on_c, 1, 61, 0
3, 338400, Note_on_c, 1, 69, 80
3, 338639, Note_on_c, 1, 69, 0
3, 338640, Note_on_c, 1, 68, 80
3, 338879, Note_on_c, 1, 68, 0
3, 338880, Note_on_c, 1, 66, 80
3, 339119, Note_on_c, 1, 66, 0
3, 339120, Note_on_c, 1, 64, 80
3, 339359, Note_on_c, 1, 64, 0
3, 339360, Note_on_c, 1, 63, 80
3, 339599, Note_on_c, 1, 63, 0
3, 339600, Note_on_c, 1, 61, 80
3, 339839, Note_on_c, 1, 61, 0
3, 359520, Note_on_c, 1, 77, 80
3, 359520, Note_on_c, 1, 65, 80
3, 360479, Note_on_c, 1, 77, 0
3, 360479, Note_on_c, 1, 65, 0
3, 360480, Note_on_c, 1, 78, 80
3, 360480, Note_on_c, 1, 66, 80
3, 361439, Note_on_c, 1, 78, 0
3, 361439, Note_on_c, 1, 66, 0
3, 361440, Note_on_c, 1, 63, 80
3, 361919, Note_on_c, 1, 63, 0
3, 361920, Note_on_c, 1, 76, 80
3, 361920, Note_on_c, 1, 64, 80
3, 363359, Note_on_c, 1, 76, 0
3, 363359, Note_on_c, 1, 64, 0
3, 363360, Note_on_c, 1, 73, 80
3, 363360, Note_on_c, 1, 61, 80
3, 364319, Note_on_c, 1, 73, 0
3, 364319, Note_on_c, 1, 61, 0
3, 364320, Note_on_c, 1, 74, 80
3, 364320, Note_on_c, 1, 62, 80
3, 365279, Note_on_c, 1, 74, 0
3, 365279, Note_on_c, 1, 62, 0
3, 365280, Note_on_c, 1, 60, 80
3, 365759, Note_on_c, 1, 60, 0
3, 365760, Note_on_c, 1, 73, 80
3, 365760, Note_on_c, 1, 61, 80
3, 367199, Note_on_c, 1, 73, 0
3, 367199, Note_on_c, 1, 61, 0
3, 367200, Note_on_c, 1, 74, 80
3, 367200, Note_on_c, 1, 69, 80
3, 367200, Note_on_c, 1, 66, 80
3, 367200, Note_on_c, 1, 62, 80
3, 368279, Note_on_c, 1, 74, 0
3, 368279, Note_on_c, 1, 69, 0
3, 368279, Note_on_c, 1, 66, 0
3, 368279, Note_on_c, 1, 62, 0
3, 375360, Note_on_c, 1, 62, 80
3, 375360, Note_on_c, 1, 57, 80
3, 375360, Note_on_c, 1, 54, 80
3, 375360, Note_on_c, 1, 50, 80
3, 375839, Note_on_c, 1, 54, 0
3, 375840, Note_on_c, 1, 54, 80
3, 375959, Note_on_c, 1, 54, 0
3, 375959, Note_on_c, 1, 62, 0
3, 375959, Note_on_c, 1, 57, 0
3, 375959, Note_on_c, 1, 50, 0
3, 380640, Note_on_c, 1, 81, 80
3, 380640, Note_on_c, 1, 69, 80
3, 381599, Note_on_c, 1, 81, 0
3, 381599, Note_on_c, 1, 69, 0
3, 381600, Note_on_c, 1, 73, 80
3, 381600, Note_on_c, 1, 61, 80
3, 382559, Note_on_c, 1, 73, 0
3, 382559, Note_on_c, 1, 61, 0
3, 382560, Note_on_c, 1, 76, 80
3, 382560, Note_on_c, 1, 64, 80
3, 383519, Note_on_c, 1, 76, 0
3, 383519, Note_on_c, 1, 64, 0
3, 383520, Note_on_c, 1, 60, 80
3, 383520, Note_on_c, 1, 54, 80
3, 383520, Note_on_c, 1, 48, 80
3, 384479, Note_on_c, 1, 60, 0
3, 384479, Note_on_c, 1, 54, 0
3, 384479, Note_on_c, 1, 48, 0
3, 384480, Note_on_c, 1, 61, 80
3, 384480, Note_on_c, 1, 52, 80
3, 384480, Note_on_c, 1, 49, 80
3, 384719, Note_on_c, 1, 61, 0
3, 384719, Note_on_c, 1, 52, 0
3, 384719, Note_on_c, 1, 49, 0
3, 400080, Note_on_c, 1, 64, 80
3, 400080, Note_on_c, 1, 61, 80
3, 400199, Note_on_c, 1, 64, 0
3, 400199, Note_on_c, 1, 61, 0
3, 400320, Note_on_c, 1, 64, 80
3, 400320, Note_on_c, 1, 61, 80
3, 400559, Note_on_c, 1, 64, 0
3, 400559, Note_on_c, 1, 61, 0
3, 400560, Note_on_c, 1, 68, 80
3, 400560, Note_on_c, 1, 64, 80
3, 400799, Note_on_c, 1, 68, 0
3, 400799, Note_on_c, 1, 64, 0
3, 401040, Note_on_c, 1, 66, 80
3, 401040, Note_on_c, 1, 61, 80
3, 401159, Note_on_c, 1, 66, 0
3, 401159, Note_on_c, 1, 61, 0
3, 401280, Note_on_c, 1, 66, 80
3, 401280, Note_on_c, 1, 61, 80
3, 401519, Note_on_c, 1, 66, 0
3, 401519, Note_on_c, 1, 61, 0
3, 401520, Note_on_c, 1, 69, 80
3, 401520, Note_on_c, 1, 66, 80
3, 401759, Note_on_c, 1, 69, 0
3, 401759, Note_on_c, 1, 66, 0
3, 402000, Note_on_c, 1, 64, 80
3, 402000, Note_on_c, 1, 61, 80
3, 402119, Note_on_c, 1, 64, 0
3, 402119, Note_on_c, 1, 61, 0
3, 402240, Note_on_c, 1, 64, 80
3, 402240, Note_on_c, 1, 61, 80
3, 402479, Note_on_c, 1, 64, 0
3, 402479, Note_on_c, 1, 61, 0
3, 402480, Note_on_c, 1, 68, 80
3, 402480, Note_on_c, 1, 64, 80
3, 402719, Note_on_c, 1, 68, 0
3, 402719, Note_on_c, 1, 64, 0
3, 402960, Note_on_c, 1, 63, 80
3, 402960, Note_on_c, 1, 59, 80
3, 403079, Note_on_c, 1, 63, 0
3, 403079, Note_on_c, 1, 59, 0
3, 403200, Note_on_c, 1, 63, 80
3, 403200, Note_on_c, 1, 59, 80
3, 403439, Note_on_c, 1, 63, 0
3, 403439, Note_on_c, 1, 59, 0
3, 403440, Note_on_c, 1, 68, 80
3, 403440, Note_on_c, 1, 63, 80
3, 403679, Note_on_c, 1, 68, 0
3, 403679, Note_on_c, 1, 63, 0
3, 426240, Note_on_c, 1, 85, 80
3, 426240, Note_on_c, 1, 81, 80
3, 426240, Note_on_c, 1, 78, 80
3, 426240, Note_on_c, 1, 73, 80
3, 426479, Note_on_c, 1, 85, 0
3, 426479, Note_on_c, 1, 81, 0
3, 426479, Note_on_c, 1, 78, 0
3, 426479, Note_on_c, 1, 73, 0
3, 430080, Note_on_c, 1, 85, 80
3, 430080, Note_on_c, 1, 80, 80
3, 430080, Note_on_c, 1, 76, 80
3, 430080, Note_on_c, 1, 73, 80
3, 430319, Note_on_c, 1, 85, 0
3, 430319, Note_on_c, 1, 80, 0
3, 430319, Note_on_c, 1, 76, 0
3, 430319, Note_on_c, 1, 73, 0
3, 478560, Note_on_c, 1, 80, 80
3, 478612, Note_on_c, 1, 80, 0
3, 478613, Note_on_c, 1, 78, 80
3, 478665, Note_on_c, 1, 78, 0
3, 478666, Note_on_c, 1, 76, 80
3, 478718, Note_on_c, 1, 76, 0
3, 478719, Note_on_c, 1, 75, 80
3, 478771, Note_on_c, 1, 75, 0
3, 478772, Note_on_c, 1, 78, 80
3, 478824, Note_on_c, 1, 78, 0
3, 478825, Note_on_c, 1, 73, 80
3, 478877, Note_on_c, 1, 73, 0
3, 478878, Note_on_c, 1, 72, 80
3, 478930, Note_on_c, 1, 72, 0
3, 478931, Note_on_c, 1, 75, 80
3, 478983, Note_on_c, 1, 75, 0
3, 478984, Note_on_c, 1, 69, 80
3, 479036, Note_on_c, 1, 69, 0
3, 479040, Note_on_c, 1, 68, 80
3, 479092, Note_on_c, 1, 68, 0
3, 479093, Note_on_c, 1, 66, 80
3, 479145, Note_on_c, 1, 66, 0
3, 479146, Note_on_c, 1, 69, 80
3, 479198, Note_on_c, 1, 69, 0
3, 479199, Note_on_c, 1, 64, 80
3, 479251, Note_on_c, 1, 64, 0
3, 479252, Note_on_c, 1, 63, 80
3, 479304, Note_on_c, 1, 63, 0
3, 479305, Note_on_c, 1, 66, 80
3, 479357, Note_on_c, 1, 66, 0
3, 479358, Note_on_c, 1, 61, 80
3, 479410, Note_on_c, 1, 61, 0
3, 479411, Note_on_c, 1, 60, 80
3, 479463, Note_on_c, 1, 60, 0
3, 479464, Note_on_c, 1, 63, 80
3, 479516, Note_on_c, 1, 63, 0
3, 498720, Note_on_c, 1, 68, 80
3, 498839, Note_on_c, 1, 68, 0
3, 498840, Note_on_c, 1, 61, 80
3, 498959, Note_on_c, 1, 61, 0
3, 498960, Note_on_c, 1, 64, 80
3, 499079, Note_on_c, 1, 64, 0
3, 499080, Note_on_c, 1, 68, 80
3, 499199, Note_on_c, 1, 68, 0
3, 499200, Note_on_c, 1, 73, 80
3, 499319, Note_on_c, 1, 73, 0
3, 499320, Note_on_c, 1, 64, 80
3, 499439, Note_on_c, 1, 64, 0
3, 499440, Note_on_c, 1, 68, 80
3, 499559, Note_on_c, 1, 68, 0
3, 499560, Note_on_c, 1, 73, 80
3, 499679, Note_on_c, 1, 73, 0
3, 499680, Note_on_c, 1, 76, 80
3, 499799, Note_on_c, 1, 76, 0
3, 499800, Note_on_c, 1, 73, 80
3, 499919, Note_on_c, 1, 73, 0
3, 499920, Note_on_c, 1, 68, 80
3, 500039, Note_on_c, 1, 68, 0
3, 500040, Note_on_c, 1, 64, 80
3, 500159, Note_on_c, 1, 64, 0
3, 500160, Note_on_c, 1, 73, 80
3, 500279, Note_on_c, 1, 73, 0
3, 500280, Note_on_c, 1, 68, 80
3, 500399, Note_on_c, 1, 68, 0
3, 500400, Note_on_c, 1, 64, 80
3, 500519, Note_on_c, 1, 64, 0
3, 500520, Note_on_c, 1, 61, 80
3, 500639, Note_on_c, 1, 61, 0
3, 500640, Note_on_c, 1, 68, 80
3, 500759, Note_on_c, 1, 68, 0
3, 500760, Note_on_c, 1, 64, 80
3, 500879, Note_on_c, 1, 64, 0
3, 500880, Note_on_c, 1, 61, 80
3, 500999, Note_on_c, 1, 61, 0
3, 501000, Note_on_c, 1, 56, 80
3, 501119, Note_on_c, 1, 56, 0
3, 504480, Note_on_c, 1, 85, 80
3, 504480, Note_on_c, 1, 80, 80
3, 504480, Note_on_c, 1, 76, 80
3, 504480, Note_on_c, 1, 73, 80
3, 504719, Note_on_c, 1, 85, 0
3, 504719, Note_on_c, 1, 80, 0
3, 504719, Note_on_c, 1, 76, 0
3, 504719, Note_on_c, 1, 73, 0
3, 505440, Note_on_c, 1, 73, 80
3, 505440, Note_on_c, 1, 68, 80
3, 505440, Note_on_c, 1, 64, 80
3, 505440, Note_on_c, 1, 61, 80
3, 505679, Note_on_c, 1, 73, 0
3, 505679, Note_on_c, 1, 68, 0
3, 505679, Note_on_c, 1, 64, 0
3, 505679, Note_on_c, 1, 61, 0
3, 505680, End_track
4, 0, Start_track
4, 0, Key_signature, 4, "major"
4, 0, Note_on_c, 1, 37, 80
4, 119, Note_on_c, 1, 37, 0
4, 240, Note_on_c, 1, 44, 80
4, 359, Note_on_c, 1, 44, 0
4, 480, Note_on_c, 1, 37, 80
4, 599, Note_on_c, 1, 37, 0
4, 720, Note_on_c, 1, 44, 80
4, 839, Note_on_c, 1, 44, 0
4, 960, Note_on_c, 1, 37, 80
4, 1079, Note_on_c, 1, 37, 0
4, 1200, Note_on_c, 1, 44, 80
4, 1319, Note_on_c, 1, 44, 0
4, 1440, Note_on_c, 1, 37, 80
4, 1559, Note_on_c, 1, 37, 0
4, 1680, Note_on_c, 1, 44, 80
4, 1799, Note_on_c, 1, 44, 0
4, 1920, Note_on_c, 1, 37, 80
4, 2039, Note_on_c, 1, 37, 0
4, 2160, Note_on_c, 1, 44, 80
4, 2279, Note_on_c, 1, 44, 0
4, 2400, Note_on_c, 1, 37, 80
4, 2519, Note_on_c, 1, 37, 0
4, 2640, Note_on_c, 1, 44, 80
4, 2759, Note_on_c, 1, 44, 0
4, 2880, Note_on_c, 1, 37, 80
4, 2999, Note_on_c, 1, 37, 0
4, 3120, Note_on_c, 1, 44, 80
4, 3239, Note_on_c, 1, 44, 0
4, 3360, Note_on_c, 1, 49, 80
4, 3360, Note_on_c, 1, 37, 80
4, 3599, Note_on_c, 1, 49, 0
4, 3599, Note_on_c, 1, 37, 0
4, 3600, Note_on_c, 1, 44, 80
4, 3719, Note_on_c, 1, 44, 0
4, 3840, Note_on_c, 1, 36, 80
4, 3959, Note_on_c, 1, 36, 0
4, 4080, Note_on_c, 1, 44, 80
4, 4199, Note_on_c, 1, 44, 0
4, 4320, Note_on_c, 1, 36, 80
4, 4439, Note_on_c, 1, 36, 0
4, 4560, Note_on_c, 1, 44, 80
4, 4679, Note_on_c, 1, 44, 0
4, 4800, Note_on_c, 1, 36, 80
4, 4919, Note_on_c, 1, 36, 0
4, 5040, Note_on_c, 1, 44, 80
4, 5159, Note_on_c, 1, 44, 0
4, 5280, Note_on_c, 1, 36, 80
4, 5399, Note_on_c, 1, 36, 0
4, 5520, Note_on_c, 1, 44, 80
4, 5639, Note_on_c, 1, 44, 0
4, 5760, Note_on_c, 1, 36, 80
4, 5879, Note_on_c, 1, 36, 0
4, 6000, Note_on_c, 1, 44, 80
4, 6119, Note_on_c, 1, 44, 0
4, 6240, Note_on_c, 1, 36, 80
4, 6359, Note_on_c, 1, 36, 0
4, 6480, Note_on_c, 1, 44, 80
4, 6599, Note_on_c, 1, 44, 0
4, 6720, Note_on_c, 1, 36, 80
4, 6839, Note_on_c, 1, 36, 0
4, 6960, Note_on_c, 1, 44, 80
4, 7079, Note_on_c, 1, 44, 0
4, 7200, Note_on_c, 1, 48, 80
4, 7200, Note_on_c, 1, 36, 80
4, 7439, Note_on_c, 1, 48, 0
4, 7439, Note_on_c, 1, 36, 0
4, 7440, Note_on_c, 1, 44, 80
4, 7559, Note_on_c, 1, 44, 0
4, 7680, Note_on_c, 1, 35, 80
4, 7799, Note_on_c, 1, 35, 0
4, 7920, Note_on_c, 1, 44, 80
4, 8039, Note_on_c, 1, 44, 0
4, 8160, Note_on_c, 1, 35, 80
4, 8279, Note_on_c, 1, 35, 0
4, 8400, Note_on_c, 1, 44, 80
4, 8519, Note_on_c, 1, 44, 0
4, 8640, Note_on_c, 1, 35, 80
4, 8759, Note_on_c, 1, 35, 0
4, 8880, Note_on_c, 1, 44, 80
4, 8999, Note_on_c, 1, 44, 0
4, 9120, Note_on_c, 1, 35, 80
4, 9239, Note_on_c, 1, 35, 0
4, 9360, Note_on_c, 1, 44, 80
4, 9479, Note_on_c, 1, 44, 0
4, 9600, Note_on_c, 1, 35, 80
4, 9719, Note_on_c, 1, 35, 0
4, 9840, Note_on_c, 1, 44, 80
4, 9959, Note_on_c, 1, 44, 0
4, 10080, Note_on_c, 1, 35, 80
4, 10199, Note_on_c, 1, 35, 0
4, 10320, Note_on_c, 1, 44, 80
4, 10439, Note_on_c, 1, 44, 0
4, 10560, Note_on_c, 1, 35, 80
4, 10679, Note_on_c, 1, 35, 0
4, 10800, Note_on_c, 1, 44, 80
4, 10919, Note_on_c, 1, 44, 0
4, 11040, Note_on_c, 1, 47, 80
4, 11040, Note_on_c, 1, 35, 80
4, 11279, Note_on_c, 1, 47, 0
4, 11279, Note_on_c, 1, 35, 0
4, 11280, Note_on_c, 1, 44, 80
4, 11399, Note_on_c, 1, 44, 0
4, 11520, Note_on_c, 1, 33, 80
4, 11639, Note_on_c, 1, 33, 0
4, 11760, Note_on_c, 1, 45, 80
4, 11879, Note_on_c, 1, 45, 0
4, 12000, Note_on_c, 1, 33, 80
4, 12119, Note_on_c, 1, 33, 0
4, 12240, Note_on_c, 1, 45, 80
4, 12359, Note_on_c, 1, 45, 0
4, 12480, Note_on_c, 1, 33, 80
4, 12599, Note_on_c, 1, 33, 0
4, 12720, Note_on_c, 1, 45, 80
4, 12839, Note_on_c, 1, 45, 0
4, 12960, Note_on_c, 1, 33, 80
4, 13199, Note_on_c, 1, 33, 0
4, 13200, Note_on_c, 1, 45, 80
4, 13319, Note_on_c, 1, 45, 0
4, 13440, Note_on_c, 1, 33, 80
4, 13559, Note_on_c, 1, 33, 0
4, 13680, Note_on_c, 1, 45, 80
4, 13799, Note_on_c, 1, 45, 0
4, 13920, Note_on_c, 1, 33, 80
4, 14039, Note_on_c, 1, 33, 0
4, 14160, Note_on_c, 1, 45, 80
4, 14279, Note_on_c, 1, 45, 0
4, 14400, Note_on_c, 1, 33, 80
4, 14519, Note_on_c, 1, 33, 0
4, 14640, Note_on_c, 1, 45, 80
4, 14759, Note_on_c, 1, 45, 0
4, 14880, Note_on_c, 1, 33, 80
4, 15119, Note_on_c, 1, 33, 0
4, 15120, Note_on_c, 1, 45, 80
4, 15239, Note_on_c, 1, 45, 0
4, 15360, Note_on_c, 1, 32, 80
4, 15599, Note_on_c, 1, 32, 0
4, 15600, Note_on_c, 1, 56, 80
4, 19199, Note_on_c, 1, 56, 0
4, 19200, Note_on_c, 1, 32, 80
4, 19439, Note_on_c, 1, 32, 0
4, 19440, Note_on_c, 1, 56, 80
4, 23039, Note_on_c, 1, 56, 0
4, 23040, Note_on_c, 1, 60, 80
4, 23040, Note_on_c, 1, 56, 80
4, 23159, Note_on_c, 1, 60, 0
4, 23159, Note_on_c, 1, 56, 0
4, 23280, Note_on_c, 1, 61, 80
4, 23280, Note_on_c, 1, 56, 80
4, 23399, Note_on_c, 1, 61, 0
4, 23399, Note_on_c, 1, 56, 0
4, 23520, Note_on_c, 1, 60, 80
4, 23520, Note_on_c, 1, 56, 80
4, 23639, Note_on_c, 1, 60, 0
4, 23639, Note_on_c, 1, 56, 0
4, 23760, Note_on_c, 1, 61, 80
4, 23760, Note_on_c, 1, 56, 80
4, 23879, Note_on_c, 1, 61, 0
4, 23879, Note_on_c, 1, 56, 0
4, 24000, Note_on_c, 1, 60, 80
4, 24000, Note_on_c, 1, 56, 80
4, 24119, Note_on_c, 1, 60, 0
4, 24119, Note_on_c, 1, 56, 0
4, 24240, Note_on_c, 1, 61, 80
4, 24240, Note_on_c, 1, 56, 80
4, 24359, Note_on_c, 1, 61, 0
4, 24359, Note_on_c, 1, 56, 0
4, 24480, Note_on_c, 1, 60, 80
4, 24480, Note_on_c, 1, 56, 80
4, 24599, Note_on_c, 1, 60, 0
4, 24599, Note_on_c, 1, 56, 0
4, 24720, Note_on_c, 1, 61, 80
4, 24720, Note_on_c, 1, 56, 80
4, 24839, Note_on_c, 1, 61, 0
4, 24839, Note_on_c, 1, 56, 0
4, 24960, Note_on_c, 1, 60, 80
4, 24960, Note_on_c, 1, 56, 80
4, 25439, Note_on_c, 1, 60, 0
4, 25439, Note_on_c, 1, 56, 0
4, 25440, Note_on_c, 1, 44, 80
4, 25440, Note_on_c, 1, 32, 80
4, 26879, Note_on_c, 1, 44, 0
4, 26879, Note_on_c, 1, 32, 0
4, 26880, Note_on_c, 1, 37, 80
4, 26999, Note_on_c, 1, 37, 0
4, 27120, Note_on_c, 1, 44, 80
4, 27239, Note_on_c, 1, 44, 0
4, 27360, Note_on_c, 1, 37, 80
4, 27479, Note_on_c, 1, 37, 0
4, 27600, Note_on_c, 1, 44, 80
4, 27719, Note_on_c, 1, 44, 0
4, 27840, Note_on_c, 1, 37, 80
4, 27959, Note_on_c, 1, 37, 0
4, 28080, Note_on_c, 1, 44, 80
4, 28199, Note_on_c, 1, 44, 0
4, 28320, Note_on_c, 1, 37, 80
4, 28439, Note_on_c, 1, 37, 0
4, 28560, Note_on_c, 1, 44, 80
4, 28679, Note_on_c, 1, 44, 0
4, 28800, Note_on_c, 1, 37, 80
4, 28919, Note_on_c, 1, 37, 0
4, 29040, Note_on_c, 1, 44, 80
4, 29159, Note_on_c, 1, 44, 0
4, 29280, Note_on_c, 1, 37, 80
4, 29399, Note_on_c, 1, 37, 0
4, 29520, Note_on_c, 1, 44, 80
4, 29639, Note_on_c, 1, 44, 0
4, 29760, Note_on_c, 1, 37, 80
4, 29879, Note_on_c, 1, 37, 0
4, 30000, Note_on_c, 1, 44, 80
4, 30119, Note_on_c, 1, 44, 0
4, 30240, Note_on_c, 1, 49, 80
4, 30240, Note_on_c, 1, 37, 80
4, 30479, Note_on_c, 1, 49, 0
4, 30479, Note_on_c, 1, 37, 0
4, 30480, Note_on_c, 1, 44, 80
4, 30599, Note_on_c, 1, 44, 0
4, 30720, Note_on_c, 1, 34, 80
4, 30839, Note_on_c, 1, 34, 0
4, 30960, Note_on_c, 1, 49, 80
4, 31079, Note_on_c, 1, 49, 0
4, 31200, Note_on_c, 1, 46, 80
4, 31319, Note_on_c, 1, 46, 0
4, 31440, Note_on_c, 1, 49, 80
4, 31559, Note_on_c, 1, 49, 0
4, 31680, Note_on_c, 1, 46, 80
4, 31799, Note_on_c, 1, 46, 0
4, 31920, Note_on_c, 1, 49, 80
4, 32039, Note_on_c, 1, 49, 0
4, 32160, Note_on_c, 1, 46, 80
4, 32279, Note_on_c, 1, 46, 0
4, 32400, Note_on_c, 1, 49, 80
4, 32519, Note_on_c, 1, 49, 0
4, 32640, Note_on_c, 1, 46, 80
4, 32759, Note_on_c, 1, 46, 0
4, 32880, Note_on_c, 1, 49, 80
4, 32999, Note_on_c, 1, 49, 0
4, 33120, Note_on_c, 1, 46, 80
4, 33239, Note_on_c, 1, 46, 0
4, 33360, Note_on_c, 1, 49, 80
4, 33479, Note_on_c, 1, 49, 0
4, 33600, Note_on_c, 1, 46, 80
4, 33719, Note_on_c, 1, 46, 0
4, 33840, Note_on_c, 1, 49, 80
4, 33959, Note_on_c, 1, 49, 0
4, 34080, Note_on_c, 1, 46, 80
4, 34080, Note_on_c, 1, 34, 80
4, 34319, Note_on_c, 1, 46, 0
4, 34319, Note_on_c, 1, 34, 0
4, 34320, Note_on_c, 1, 49, 80
4, 34439, Note_on_c, 1, 49, 0
4, 34560, Note_on_c, 1, 31, 80
4, 34679, Note_on_c, 1, 31, 0
4, 34800, Note_on_c, 1, 51, 80
4, 34919, Note_on_c, 1, 51, 0
4, 35040, Note_on_c, 1, 43, 80
4, 35159, Note_on_c, 1, 43, 0
4, 35280, Note_on_c, 1, 51, 80
4, 35399, Note_on_c, 1, 51, 0
4, 35520, Note_on_c, 1, 43, 80
4, 35639, Note_on_c, 1, 43, 0
4, 35760, Note_on_c, 1, 51, 80
4, 35879, Note_on_c, 1, 51, 0
4, 36000, Note_on_c, 1, 43, 80
4, 36119, Note_on_c, 1, 43, 0
4, 36240, Note_on_c, 1, 51, 80
4, 36359, Note_on_c, 1, 51, 0
4, 36480, Note_on_c, 1, 43, 80
4, 36599, Note_on_c, 1, 43, 0
4, 36720, Note_on_c, 1, 51, 80
4, 36839, Note_on_c, 1, 51, 0
4, 36960, Note_on_c, 1, 43, 80
4, 37079, Note_on_c, 1, 43, 0
4, 37200, Note_on_c, 1, 51, 80
4, 37319, Note_on_c, 1, 51, 0
4, 37440, Note_on_c, 1, 43, 80
4, 37559, Note_on_c, 1, 43, 0
4, 37680, Note_on_c, 1, 51, 80
4, 37799, Note_on_c, 1, 51, 0
4, 37920, Note_on_c, 1, 43, 80
4, 38039, Note_on_c, 1, 43, 0
4, 38160, Note_on_c, 1, 51, 80
4, 38279, Note_on_c, 1, 51, 0
4, 38400, Note_on_c, 1, 44, 80
4, 38519, Note_on_c, 1, 44, 0
4, 38520, Note_on_c, 1, 51, 80
4, 38639, Note_on_c, 1, 51, 0
4, 38640, Note_on_c, 1, 47, 80
4, 38759, Note_on_c, 1, 47, 0
4, 38760, Note_on_c, 1, 51, 80
4, 38879, Note_on_c, 1, 51, 0
4, 38880, Note_on_c, 1, 44, 80
4, 38999, Note_on_c, 1, 44, 0
4, 39000, Note_on_c, 1, 51, 80
4, 39119, Note_on_c, 1, 51, 0
4, 39120, Note_on_c, 1, 47, 80
4, 39239, Note_on_c, 1, 47, 0
4, 39240, Note_on_c, 1, 51, 80
4, 39359, Note_on_c, 1, 51, 0
4, 39360, Note_on_c, 1, 44, 80
4, 39479, Note_on_c, 1, 44, 0
4, 39480, Note_on_c, 1, 51, 80
4, 39599, Note_on_c, 1, 51, 0
4, 39600, Note_on_c, 1, 47, 80
4, 39719, Note_on_c, 1, 47, 0
4, 39720, Note_on_c, 1, 51, 80
4, 39839, Note_on_c, 1, 51, 0
4, 39840, Note_on_c, 1, 44, 80
4, 39959, Note_on_c, 1, 44, 0
4, 39960, Note_on_c, 1, 51, 80
4, 40079, Note_on_c, 1, 51, 0
4, 40080, Note_on_c, 1, 47, 80
4, 40199, Note_on_c, 1, 47, 0
4, 40200, Note_on_c, 1, 51, 80
4, 40319, Note_on_c, 1, 51, 0
4, 40320, Note_on_c, 1, 46, 80
4, 40439, Note_on_c, 1, 46, 0
4, 40440, Note_on_c, 1, 51, 80
4, 40559, Note_on_c, 1, 51, 0
4, 40560, Note_on_c, 1, 49, 80
4, 40679, Note_on_c, 1, 49, 0
4, 40680, Note_on_c, 1, 51, 80
4, 40799, Note_on_c, 1, 51, 0
4, 40800, Note_on_c, 1, 46, 80
4, 40919, Note_on_c, 1, 46, 0
4, 40920, Note_on_c, 1, 51, 80
4, 41039, Note_on_c, 1, 51, 0
4, 41040, Note_on_c, 1, 49, 80
4, 41159, Note_on_c, 1, 49, 0
4, 41160, Note_on_c, 1, 51, 80
4, 41279, Note_on_c, 1, 51, 0
4, 41280, Note_on_c, 1, 46, 80
4, 41399, Note_on_c, 1, 46, 0
4, 41400, Note_on_c, 1, 51, 80
4, 41519, Note_on_c, 1, 51, 0
4, 41520, Note_on_c, 1, 49, 80
4, 41639, Note_on_c, 1, 49, 0
4, 41640, Note_on_c, 1, 51, 80
4, 41759, Note_on_c, 1, 51, 0
4, 41760, Note_on_c, 1, 46, 80
4, 41879, Note_on_c, 1, 46, 0
4, 41880, Note_on_c, 1, 51, 80
4, 41999, Note_on_c, 1, 51, 0
4, 42000, Note_on_c, 1, 49, 80
4, 42119, Note_on_c, 1, 49, 0
4, 42120, Note_on_c, 1, 51, 80
4, 42239, Note_on_c, 1, 51, 0
4, 42240, Note_on_c, 1, 47, 80
4, 42359, Note_on_c, 1, 47, 0
4, 42360, Note_on_c, 1, 51, 80
4, 42479, Note_on_c, 1, 51, 0
4, 42480, Note_on_c, 1, 47, 80
4, 42599, Note_on_c, 1, 47, 0
4, 42600, Note_on_c, 1, 51, 80
4, 42719, Note_on_c, 1, 51, 0
4, 42720, Note_on_c, 1, 47, 80
4, 42839, Note_on_c, 1, 47, 0
4, 42840, Note_on_c, 1, 51, 80
4, 42959, Note_on_c, 1, 51, 0
4, 42960, Note_on_c, 1, 47, 80
4, 43079, Note_on_c, 1, 47, 0
4, 43080, Note_on_c, 1, 51, 80
4, 43199, Note_on_c, 1, 51, 0
4, 43200, Note_on_c, 1, 47, 80
4, 43319, Note_on_c, 1, 47, 0
4, 43320, Note_on_c, 1, 51, 80
4, 43439, Note_on_c, 1, 51, 0
4, 43440, Note_on_c, 1, 47, 80
4, 43559, Note_on_c, 1, 47, 0
4, 43560, Note_on_c, 1, 51, 80
4, 43679, Note_on_c, 1, 51, 0
4, 43680, Note_on_c, 1, 47, 80
4, 43799, Note_on_c, 1, 47, 0
4, 43800, Note_on_c, 1, 51, 80
4, 43919, Note_on_c, 1, 51, 0
4, 43920, Note_on_c, 1, 47, 80
4, 44039, Note_on_c, 1, 47, 0
4, 44040, Note_on_c, 1, 51, 80
4, 44159, Note_on_c, 1, 51, 0
4, 44160, Note_on_c, 1, 43, 80
4, 44279, Note_on_c, 1, 43, 0
4, 44280, Note_on_c, 1, 51, 80
4, 44399, Note_on_c, 1, 51, 0
4, 44400, Note_on_c, 1, 43, 80
4, 44519, Note_on_c, 1, 43, 0
4, 44520, Note_on_c, 1, 51, 80
4, 44639, Note_on_c, 1, 51, 0
4, 44640, Note_on_c, 1, 43, 80
4, 44759, Note_on_c, 1, 43, 0
4, 44760, Note_on_c, 1, 51, 80
4, 44879, Note_on_c, 1, 51, 0
4, 44880, Note_on_c, 1, 43, 80
4, 44999, Note_on_c, 1, 43, 0
4, 45000, Note_on_c, 1, 51, 80
4, 45119, Note_on_c, 1, 51, 0
4, 45120, Note_on_c, 1, 43, 80
4, 45239, Note_on_c, 1, 43, 0
4, 45240, Note_on_c, 1, 51, 80
4, 45359, Note_on_c, 1, 51, 0
4, 45360, Note_on_c, 1, 43, 80
4, 45479, Note_on_c, 1, 43, 0
4, 45480, Note_on_c, 1, 51, 80
4, 45599, Note_on_c, 1, 51, 0
4, 45600, Note_on_c, 1, 43, 80
4, 45719, Note_on_c, 1, 43, 0
4, 45720, Note_on_c, 1, 51, 80
4, 45839, Note_on_c, 1, 51, 0
4, 45840, Note_on_c, 1, 43, 80
4, 45959, Note_on_c, 1, 43, 0
4, 45960, Note_on_c, 1, 51, 80
4, 46079, Note_on_c, 1, 51, 0
4, 46080, Note_on_c, 1, 44, 80
4, 46199, Note_on_c, 1, 44, 0
4, 46200, Note_on_c, 1, 51, 80
4, 46319, Note_on_c, 1, 51, 0
4, 46320, Note_on_c, 1, 47, 80
4, 46439, Note_on_c, 1, 47, 0
4, 46440, Note_on_c, 1, 51, 80
4, 46559, Note_on_c, 1, 51, 0
4, 46560, Note_on_c, 1, 44, 80
4, 46679, Note_on_c, 1, 44, 0
4, 46680, Note_on_c, 1, 51, 80
4, 46799, Note_on_c, 1, 51, 0
4, 46800, Note_on_c, 1, 47, 80
4, 46919, Note_on_c, 1, 47, 0
4, 46920, Note_on_c, 1, 51, 80
4, 47039, Note_on_c, 1, 51, 0
4, 47040, Note_on_c, 1, 44, 80
4, 47159, Note_on_c, 1, 44, 0
4, 47160, Note_on_c, 1, 51, 80
4, 47279, Note_on_c, 1, 51, 0
4, 47280, Note_on_c, 1, 47, 80
4, 47399, Note_on_c, 1, 47, 0
4, 47400, Note_on_c, 1, 51, 80
4, 47519, Note_on_c, 1, 51, 0
4, 47520, Note_on_c, 1, 44, 80
4, 47639, Note_on_c, 1, 44, 0
4, 47640, Note_on_c, 1, 51, 80
4, 47759, Note_on_c, 1, 51, 0
4, 47760, Note_on_c, 1, 47, 80
4, 47879, Note_on_c, 1, 47, 0
4, 47880, Note_on_c, 1, 51, 80
4, 47999, Note_on_c, 1, 51, 0
4, 48000, Note_on_c, 1, 46, 80
4, 48119, Note_on_c, 1, 46, 0
4, 48120, Note_on_c, 1, 51, 80
4, 48239, Note_on_c, 1, 51, 0
4, 48240, Note_on_c, 1, 49, 80
4, 48359, Note_on_c, 1, 49, 0
4, 48360, Note_on_c, 1, 51, 80
4, 48479, Note_on_c, 1, 51, 0
4, 48480, Note_on_c, 1, 46, 80
4, 48599, Note_on_c, 1, 46, 0
4, 48600, Note_on_c, 1, 51, 80
4, 48719, Note_on_c, 1, 51, 0
4, 48720, Note_on_c, 1, 49, 80
4, 48839, Note_on_c, 1, 49, 0
4, 48840, Note_on_c, 1, 51, 80
4, 48959, Note_on_c, 1, 51, 0
4, 48960, Note_on_c, 1, 46, 80
4, 49079, Note_on_c, 1, 46, 0
4, 49080, Note_on_c, 1, 51, 80
4, 49199, Note_on_c, 1, 51, 0
4, 49200, Note_on_c, 1, 49, 80
4, 49319, Note_on_c, 1, 49, 0
4, 49320, Note_on_c, 1, 51, 80
4, 49439, Note_on_c, 1, 51, 0
4, 49440, Note_on_c, 1, 46, 80
4, 49559, Note_on_c, 1, 46, 0
4, 49560, Note_on_c, 1, 51, 80
4, 49679, Note_on_c, 1, 51, 0
4, 49680, Note_on_c, 1, 49, 80
4, 49799, Note_on_c, 1, 49, 0
4, 49800, Note_on_c, 1, 51, 80
4, 49919, Note_on_c, 1, 51, 0
4, 49920, Note_on_c, 1, 47, 80
4, 50039, Note_on_c, 1, 47, 0
4, 50040, Note_on_c, 1, 51, 80
4, 50159, Note_on_c, 1, 51, 0
4, 50160, Note_on_c, 1, 47, 80
4, 50279, Note_on_c, 1, 47, 0
4, 50280, Note_on_c, 1, 51, 80
4, 50399, Note_on_c, 1, 51, 0
4, 50400, Note_on_c, 1, 47, 80
4, 50519, Note_on_c, 1, 47, 0
4, 50520, Note_on_c, 1, 51, 80
4, 50639, Note_on_c, 1, 51, 0
4, 50640, Note_on_c, 1, 47, 80
4, 50759, Note_on_c, 1, 47, 0
4, 50760, Note_on_c, 1, 51, 80
4, 50879, Note_on_c, 1, 51, 0
4, 50880, Note_on_c, 1, 47, 80
4, 50999, Note_on_c, 1, 47, 0
4, 51000, Note_on_c, 1, 51, 80
4, 51119, Note_on_c, 1, 51, 0
4, 51120, Note_on_c, 1, 47, 80
4, 51239, Note_on_c, 1, 47, 0
4, 51240, Note_on_c, 1, 51, 80
4, 51359, Note_on_c, 1, 51, 0
4, 51360, Note_on_c, 1, 47, 80
4, 51479, Note_on_c, 1, 47, 0
4, 51480, Note_on_c, 1, 51, 80
4, 51599, Note_on_c, 1, 51, 0
4, 51600, Note_on_c, 1, 47, 80
4, 51719, Note_on_c, 1, 47, 0
4, 51720, Note_on_c, 1, 51, 80
4, 51839, Note_on_c, 1, 51, 0
4, 51840, Note_on_c, 1, 43, 80
4, 51959, Note_on_c, 1, 43, 0
4, 51960, Note_on_c, 1, 51, 80
4, 52079, Note_on_c, 1, 51, 0
4, 52080, Note_on_c, 1, 43, 80
4, 52199, Note_on_c, 1, 43, 0
4, 52200, Note_on_c, 1, 51, 80
4, 52319, Note_on_c, 1, 51, 0
4, 52320, Note_on_c, 1, 43, 80
4, 52439, Note_on_c, 1, 43, 0
4, 52440, Note_on_c, 1, 51, 80
4, 52559, Note_on_c, 1, 51, 0
4, 52560, Note_on_c, 1, 43, 80
4, 52679, Note_on_c, 1, 43, 0
4, 52680, Note_on_c, 1, 51, 80
4, 52799, Note_on_c, 1, 51, 0
4, 52800, Note_on_c, 1, 43, 80
4, 52919, Note_on_c, 1, 43, 0
4, 52920, Note_on_c, 1, 51, 80
4, 53039, Note_on_c, 1, 51, 0
4, 53040, Note_on_c, 1, 43, 80
4, 53159, Note_on_c, 1, 43, 0
4, 53160, Note_on_c, 1, 51, 80
4, 53279, Note_on_c, 1, 51, 0
4, 53280, Note_on_c, 1, 43, 80
4, 53399, Note_on_c, 1, 43, 0
4, 53400, Note_on_c, 1, 51, 80
4, 53519, Note_on_c, 1, 51, 0
4, 53520, Note_on_c, 1, 43, 80
4, 53639, Note_on_c, 1, 43, 0
4, 53640, Note_on_c, 1, 51, 80
4, 53759, Note_on_c, 1, 51, 0
4, 53760, Note_on_c, 1, 42, 80
4, 53879, Note_on_c, 1, 42, 0
4, 53880, Note_on_c, 1, 51, 80
4, 53999, Note_on_c, 1, 51, 0
4, 54000, Note_on_c, 1, 44, 80
4, 54119, Note_on_c, 1, 44, 0
4, 54120, Note_on_c, 1, 51, 80
4, 54239, Note_on_c, 1, 51, 0
4, 54240, Note_on_c, 1, 42, 80
4, 54359, Note_on_c, 1, 42, 0
4, 54360, Note_on_c, 1, 51, 80
4, 54479, Note_on_c, 1, 51, 0
4, 54480, Note_on_c, 1, 44, 80
4, 54599, Note_on_c, 1, 44, 0
4, 54600, Note_on_c, 1, 51, 80
4, 54719, Note_on_c, 1, 51, 0
4, 54720, Note_on_c, 1, 40, 80
4, 54839, Note_on_c, 1, 40, 0
4, 54840, Note_on_c, 1, 49, 80
4, 54959, Note_on_c, 1, 49, 0
4, 54960, Note_on_c, 1, 44, 80
4, 55079, Note_on_c, 1, 44, 0
4, 55080, Note_on_c, 1, 49, 80
4, 55199, Note_on_c, 1, 49, 0
4, 55200, Note_on_c, 1, 40, 80
4, 55319, Note_on_c, 1, 40, 0
4, 55320, Note_on_c, 1, 49, 80
4, 55439, Note_on_c, 1, 49, 0
4, 55440, Note_on_c, 1, 44, 80
4, 55559, Note_on_c, 1, 44, 0
4, 55560, Note_on_c, 1, 49, 80
4, 55679, Note_on_c, 1, 49, 0
4, 55680, Note_on_c, 1, 40, 80
4, 55799, Note_on_c, 1, 40, 0
4, 55800, Note_on_c, 1, 49, 80
4, 55919, Note_on_c, 1, 49, 0
4, 55920, Note_on_c, 1, 42, 80
4, 56039, Note_on_c, 1, 42, 0
4, 56040, Note_on_c, 1, 49, 80
4, 56159, Note_on_c, 1, 49, 0
4, 56160, Note_on_c, 1, 39, 80
4, 56279, Note_on_c, 1, 39, 0
4, 56280, Note_on_c, 1, 47, 80
4, 56399, Note_on_c, 1, 47, 0
4, 56400, Note_on_c, 1, 42, 80
4, 56519, Note_on_c, 1, 42, 0
4, 56520, Note_on_c, 1, 47, 80
4, 56639, Note_on_c, 1, 47, 0
4, 56640, Note_on_c, 1, 39, 80
4, 56759, Note_on_c, 1, 39, 0
4, 56760, Note_on_c, 1, 47, 80
4, 56879, Note_on_c, 1, 47, 0
4, 56880, Note_on_c, 1, 42, 80
4, 56999, Note_on_c, 1, 42, 0
4, 57000, Note_on_c, 1, 47, 80
4, 57119, Note_on_c, 1, 47, 0
4, 57120, Note_on_c, 1, 39, 80
4, 57239, Note_on_c, 1, 39, 0
4, 57240, Note_on_c, 1, 47, 80
4, 57359, Note_on_c, 1, 47, 0
4, 57360, Note_on_c, 1, 42, 80
4, 57479, Note_on_c, 1, 42, 0
4, 57480, Note_on_c, 1, 47, 80
4, 57599, Note_on_c, 1, 47, 0
4, 57600, Note_on_c, 1, 38, 80
4, 57719, Note_on_c, 1, 38, 0
4, 57720, Note_on_c, 1, 47, 80
4, 57839, Note_on_c, 1, 47, 0
4, 57840, Note_on_c, 1, 40, 80
4, 57959, Note_on_c, 1, 40, 0
4, 57960, Note_on_c, 1, 47, 80
4, 58079, Note_on_c, 1, 47, 0
4, 58080, Note_on_c, 1, 38, 80
4, 58199, Note_on_c, 1, 38, 0
4, 58200, Note_on_c, 1, 47, 80
4, 58319, Note_on_c, 1, 47, 0
4, 58320, Note_on_c, 1, 40, 80
4, 58439, Note_on_c, 1, 40, 0
4, 58440, Note_on_c, 1, 47, 80
4, 58559, Note_on_c, 1, 47, 0
4, 58560, Note_on_c, 1, 37, 80
4, 58679, Note_on_c, 1, 37, 0
4, 58680, Note_on_c, 1, 45, 80
4, 58799, Note_on_c, 1, 45, 0
4, 58800, Note_on_c, 1, 40, 80
4, 58919, Note_on_c, 1, 40, 0
4, 58920, Note_on_c, 1, 45, 80
4, 59039, Note_on_c, 1, 45, 0
4, 59040, Note_on_c, 1, 37, 80
4, 59159, Note_on_c, 1, 37, 0
4, 59160, Note_on_c, 1, 45, 80
4, 59279, Note_on_c, 1, 45, 0
4, 59280, Note_on_c, 1, 40, 80
4, 59399, Note_on_c, 1, 40, 0
4, 59400, Note_on_c, 1, 45, 80
4, 59519, Note_on_c, 1, 45, 0
4, 59520, Note_on_c, 1, 37, 80
4, 59639, Note_on_c, 1, 37, 0
4, 59640, Note_on_c, 1, 46, 80
4, 59759, Note_on_c, 1, 46, 0
4, 59760, Note_on_c, 1, 39, 80
4, 59879, Note_on_c, 1, 39, 0
4, 59880, Note_on_c, 1, 46, 80
4, 59999, Note_on_c, 1, 46, 0
4, 60000, Note_on_c, 1, 35, 80
4, 60119, Note_on_c, 1, 35, 0
4, 60120, Note_on_c, 1, 44, 80
4, 60239, Note_on_c, 1, 44, 0
4, 60240, Note_on_c, 1, 39, 80
4, 60359, Note_on_c, 1, 39, 0
4, 60360, Note_on_c, 1, 44, 80
4, 60479, Note_on_c, 1, 44, 0
4, 60480, Note_on_c, 1, 35, 80
4, 60599, Note_on_c, 1, 35, 0
4, 60600, Note_on_c, 1, 44, 80
4, 60719, Note_on_c, 1, 44, 0
4, 60720, Note_on_c, 1, 39, 80
4, 60839, Note_on_c, 1, 39, 0
4, 60840, Note_on_c, 1, 44, 80
4, 60959, Note_on_c, 1, 44, 0
4, 60960, Note_on_c, 1, 35, 80
4, 61079, Note_on_c, 1, 35, 0
4, 61080, Note_on_c, 1, 44, 80
4, 61199, Note_on_c, 1, 44, 0
4, 61200, Note_on_c, 1, 39, 80
4, 61319, Note_on_c, 1, 39, 0
4, 61320, Note_on_c, 1, 44, 80
4, 61439, Note_on_c, 1, 44, 0
4, 61440, Note_on_c, 1, 49, 80
4, 61440, Note_on_c, 1, 45, 80
4, 61440, Note_on_c, 1, 40, 80
4, 61440, Note_on_c, 1, 37, 80
4, 62879, Note_on_c, 1, 49, 0
4, 62879, Note_on_c, 1, 45, 0
4, 62879, Note_on_c, 1, 40, 0
4, 62879, Note_on_c, 1, 37, 0
4, 69600, Note_on_c, 1, 49, 80
4, 69600, Note_on_c, 1, 45, 80
4, 69600, Note_on_c, 1, 40, 80
4, 69600, Note_on_c, 1, 37, 80
4, 70559, Note_on_c, 1, 49, 0
4, 70559, Note_on_c, 1, 45, 0
4, 70559, Note_on_c, 1, 40, 0
4, 70559, Note_on_c, 1, 37, 0
4, 71520, Note_on_c, 1, 57, 80
4, 71520, Note_on_c, 1, 52, 80
4, 71520, Note_on_c, 1, 49, 80
4, 71759, Note_on_c, 1, 57, 0
4, 71759, Note_on_c, 1, 52, 0
4, 71759, Note_on_c, 1, 49, 0
4, 72480, Note_on_c, 1, 57, 80
4, 72480, Note_on_c, 1, 52, 80
4, 72480, Note_on_c, 1, 49, 80
4, 72719, Note_on_c, 1, 57, 0
4, 72719, Note_on_c, 1, 52, 0
4, 72719, Note_on_c, 1, 49, 0
4, 73200, Note_on_c, 1, 57, 80
4, 73200, Note_on_c, 1, 52, 80
4, 73200, Note_on_c, 1, 49, 80
4, 73319, Note_on_c, 1, 57, 0
4, 73319, Note_on_c, 1, 52, 0
4, 73319, Note_on_c, 1, 49, 0
4, 73680, Note_on_c, 1, 57, 80
4, 73680, Note_on_c, 1, 52, 80
4, 73680, Note_on_c, 1, 49, 80
4, 73799, Note_on_c, 1, 57, 0
4, 73799, Note_on_c, 1, 52, 0
4, 73799, Note_on_c, 1, 49, 0
4, 74160, Note_on_c, 1, 57, 80
4, 74160, Note_on_c, 1, 52, 80
4, 74160, Note_on_c, 1, 49, 80
4, 74279, Note_on_c, 1, 57, 0
4, 74279, Note_on_c, 1, 52, 0
4, 74279, Note_on_c, 1, 49, 0
4, 74640, Note_on_c, 1, 57, 80
4, 74640, Note_on_c, 1, 52, 80
4, 74640, Note_on_c, 1, 49, 80
4, 74759, Note_on_c, 1, 57, 0
4, 74759, Note_on_c, 1, 52, 0
4, 74759, Note_on_c, 1, 49, 0
4, 74880, Note_on_c, 1, 57, 80
4, 74880, Note_on_c, 1, 52, 80
4, 74880, Note_on_c, 1, 49, 80
4, 75359, Note_on_c, 1, 57, 0
4, 75359, Note_on_c, 1, 52, 0
4, 75359, Note_on_c, 1, 49, 0
4, 76800, Note_on_c, 1, 49, 80
4, 76919, Note_on_c, 1, 49, 0
4, 76920, Note_on_c, 1, 57, 80
4, 77039, Note_on_c, 1, 57, 0
4, 77040, Note_on_c, 1, 52, 80
4, 77159, Note_on_c, 1, 52, 0
4, 77160, Note_on_c, 1, 57, 80
4, 77279, Note_on_c, 1, 57, 0
4, 77280, Note_on_c, 1, 49, 80
4, 77399, Note_on_c, 1, 49, 0
4, 77400, Note_on_c, 1, 57, 80
4, 77519, Note_on_c, 1, 57, 0
4, 77520, Note_on_c, 1, 52, 80
4, 77639, Note_on_c, 1, 52, 0
4, 77640, Note_on_c, 1, 57, 80
4, 77759, Note_on_c, 1, 57, 0
4, 77760, Note_on_c, 1, 50, 80
4, 77879, Note_on_c, 1, 50, 0
4, 77880, Note_on_c, 1, 59, 80
4, 77999, Note_on_c, 1, 59, 0
4, 78000, Note_on_c, 1, 53, 80
4, 78119, Note_on_c, 1, 53, 0
4, 78120, Note_on_c, 1, 59, 80
4, 78239, Note_on_c, 1, 59, 0
4, 78240, Note_on_c, 1, 50, 80
4, 78359, Note_on_c, 1, 50, 0
4, 78360, Note_on_c, 1, 59, 80
4, 78479, Note_on_c, 1, 59, 0
4, 78480, Note_on_c, 1, 53, 80
4, 78599, Note_on_c, 1, 53, 0
4, 78600, Note_on_c, 1, 59, 80
4, 78719, Note_on_c, 1, 59, 0
4, 78720, Note_on_c, 1, 51, 80
4, 78839, Note_on_c, 1, 51, 0
4, 78840, Note_on_c, 1, 59, 80
4, 78959, Note_on_c, 1, 59, 0
4, 78960, Note_on_c, 1, 56, 80
4, 79079, Note_on_c, 1, 56, 0
4, 79080, Note_on_c, 1, 59, 80
4, 79199, Note_on_c, 1, 59, 0
4, 79200, Note_on_c, 1, 51, 80
4, 79319, Note_on_c, 1, 51, 0
4, 79320, Note_on_c, 1, 59, 80
4, 79439, Note_on_c, 1, 59, 0
4, 79440, Note_on_c, 1, 56, 80
4, 79559, Note_on_c, 1, 56, 0
4, 79560, Note_on_c, 1, 59, 80
4, 79679, Note_on_c, 1, 59, 0
4, 79680, Note_on_c, 1, 39, 80
4, 79799, Note_on_c, 1, 39, 0
4, 79800, Note_on_c, 1, 51, 80
4, 79919, Note_on_c, 1, 51, 0
4, 79920, Note_on_c, 1, 50, 80
4, 80039, Note_on_c, 1, 50, 0
4, 80040, Note_on_c, 1, 51, 80
4, 80159, Note_on_c, 1, 51, 0
4, 80160, Note_on_c, 1, 50, 80
4, 80279, Note_on_c, 1, 50, 0
4, 80280, Note_on_c, 1, 51, 80
4, 80399, Note_on_c, 1, 51, 0
4, 80400, Note_on_c, 1, 50, 80
4, 80519, Note_on_c, 1, 50, 0
4, 80520, Note_on_c, 1, 51, 80
4, 80639, Note_on_c, 1, 51, 0
4, 80640, Note_on_c, 1, 44, 80
4, 80879, Note_on_c, 1, 44, 0
4, 80880, Note_on_c, 1, 56, 80
4, 80999, Note_on_c, 1, 56, 0
4, 81120, Note_on_c, 1, 56, 80
4, 81239, Note_on_c, 1, 56, 0
4, 81360, Note_on_c, 1, 56, 80
4, 81479, Note_on_c, 1, 56, 0
4, 81600, Note_on_c, 1, 56, 80
4, 81719, Note_on_c, 1, 56, 0
4, 81840, Note_on_c, 1, 56, 80
4, 81959, Note_on_c, 1, 56, 0
4, 82080, Note_on_c, 1, 58, 80
4, 82199, Note_on_c, 1, 58, 0
4, 82320, Note_on_c, 1, 59, 80
4, 82439, Note_on_c, 1, 59, 0
4, 82560, Note_on_c, 1, 61, 80
4, 82560, Note_on_c, 1, 51, 80
4, 82799, Note_on_c, 1, 61, 0
4, 82799, Note_on_c, 1, 51, 0
4, 82800, Note_on_c, 1, 63, 80
4, 82800, Note_on_c, 1, 61, 80
4, 83039, Note_on_c, 1, 63, 0
4, 83039, Note_on_c, 1, 61, 0
4, 83040, Note_on_c, 1, 63, 80
4, 83040, Note_on_c, 1, 61, 80
4, 83279, Note_on_c, 1, 63, 0
4, 83279, Note_on_c, 1, 61, 0
4, 83280, Note_on_c, 1, 63, 80
4, 83280, Note_on_c, 1, 61, 80
4, 83519, Note_on_c, 1, 63, 0
4, 83519, Note_on_c, 1, 61, 0
4, 83520, Note_on_c, 1, 63, 80
4, 83520, Note_on_c, 1, 61, 80
4, 83759, Note_on_c, 1, 63, 0
4, 83759, Note_on_c, 1, 61, 0
4, 83760, Note_on_c, 1, 63, 80
4, 83760, Note_on_c, 1, 61, 80
4, 83999, Note_on_c, 1, 63, 0
4, 83999, Note_on_c, 1, 61, 0
4, 84000, Note_on_c, 1, 63, 80
4, 84000, Note_on_c, 1, 59, 80
4, 84239, Note_on_c, 1, 63, 0
4, 84239, Note_on_c, 1, 59, 0
4, 84240, Note_on_c, 1, 63, 80
4, 84240, Note_on_c, 1, 58, 80
4, 84479, Note_on_c, 1, 63, 0
4, 84479, Note_on_c, 1, 58, 0
4, 84480, Note_on_c, 1, 56, 80
4, 84480, Note_on_c, 1, 44, 80
4, 84719, Note_on_c, 1, 56, 0
4, 84719, Note_on_c, 1, 44, 0
4, 84720, Note_on_c, 1, 56, 80
4, 84959, Note_on_c, 1, 56, 0
4, 84960, Note_on_c, 1, 56, 80
4, 85199, Note_on_c, 1, 56, 0
4, 85200, Note_on_c, 1, 56, 80
4, 85439, Note_on_c, 1, 56, 0
4, 85440, Note_on_c, 1, 56, 80
4, 85679, Note_on_c, 1, 56, 0
4, 85680, Note_on_c, 1, 56, 80
4, 85919, Note_on_c, 1, 56, 0
4, 85920, Note_on_c, 1, 58, 80
4, 86159, Note_on_c, 1, 58, 0
4, 86160, Note_on_c, 1, 59, 80
4, 86399, Note_on_c, 1, 59, 0
4, 86400, Note_on_c, 1, 61, 80
4, 86400, Note_on_c, 1, 51, 80
4, 86639, Note_on_c, 1, 61, 0
4, 86639, Note_on_c, 1, 51, 0
4, 86640, Note_on_c, 1, 63, 80
4, 86640, Note_on_c, 1, 61, 80
4, 86879, Note_on_c, 1, 63, 0
4, 86879, Note_on_c, 1, 61, 0
4, 86880, Note_on_c, 1, 63, 80
4, 86880, Note_on_c, 1, 61, 80
4, 87119, Note_on_c, 1, 63, 0
4, 87119, Note_on_c, 1, 61, 0
4, 87120, Note_on_c, 1, 63, 80
4, 87120, Note_on_c, 1, 61, 80
4, 87359, Note_on_c, 1, 63, 0
4, 87359, Note_on_c, 1, 61, 0
4, 87360, Note_on_c, 1, 63, 80
4, 87360, Note_on_c, 1, 61, 80
4, 87599, Note_on_c, 1, 63, 0
4, 87599, Note_on_c, 1, 61, 0
4, 87600, Note_on_c, 1, 63, 80
4, 87600, Note_on_c, 1, 61, 80
4, 87839, Note_on_c, 1, 63, 0
4, 87839, Note_on_c, 1, 61, 0
4, 87840, Note_on_c, 1, 63, 80
4, 87840, Note_on_c, 1, 59, 80
4, 88079, Note_on_c, 1, 63, 0
4, 88079, Note_on_c, 1, 59, 0
4, 88080, Note_on_c, 1, 63, 80
4, 88080, Note_on_c, 1, 58, 80
4, 88319, Note_on_c, 1, 63, 0
4, 88319, Note_on_c, 1, 58, 0
4, 88320, Note_on_c, 1, 44, 80
4, 88439, Note_on_c, 1, 44, 0
4, 88560, Note_on_c, 1, 59, 80
4, 88560, Note_on_c, 1, 56, 80
4, 88679, Note_on_c, 1, 59, 0
4, 88679, Note_on_c, 1, 56, 0
4, 88800, Note_on_c, 1, 59, 80
4, 88800, Note_on_c, 1, 56, 80
4, 89039, Note_on_c, 1, 59, 0
4, 89039, Note_on_c, 1, 56, 0
4, 89040, Note_on_c, 1, 63, 80
4, 89040, Note_on_c, 1, 59, 80
4, 89279, Note_on_c, 1, 63, 0
4, 89279, Note_on_c, 1, 59, 0
4, 89280, Note_on_c, 1, 49, 80
4, 89399, Note_on_c, 1, 49, 0
4, 89520, Note_on_c, 1, 61, 80
4, 89520, Note_on_c, 1, 56, 80
4, 89639, Note_on_c, 1, 61, 0
4, 89639, Note_on_c, 1, 56, 0
4, 89760, Note_on_c, 1, 61, 80
4, 89760, Note_on_c, 1, 56, 80
4, 89999, Note_on_c, 1, 61, 0
4, 89999, Note_on_c, 1, 56, 0
4, 90000, Note_on_c, 1, 64, 80
4, 90000, Note_on_c, 1, 61, 80
4, 90239, Note_on_c, 1, 64, 0
4, 90239, Note_on_c, 1, 61, 0
4, 90240, Note_on_c, 1, 51, 80
4, 90359, Note_on_c, 1, 51, 0
4, 90480, Note_on_c, 1, 59, 80
4, 90480, Note_on_c, 1, 56, 80
4, 90599, Note_on_c, 1, 59, 0
4, 90599, Note_on_c, 1, 56, 0
4, 90720, Note_on_c, 1, 59, 80
4, 90720, Note_on_c, 1, 56, 80
4, 90959, Note_on_c, 1, 59, 0
4, 90959, Note_on_c, 1, 56, 0
4, 90960, Note_on_c, 1, 63, 80
4, 90960, Note_on_c, 1, 59, 80
4, 91199, Note_on_c, 1, 63, 0
4, 91199, Note_on_c, 1, 59, 0
4, 91200, Note_on_c, 1, 51, 80
4, 91319, Note_on_c, 1, 51, 0
4, 91440, Note_on_c, 1, 58, 80
4, 91440, Note_on_c, 1, 55, 80
4, 91559, Note_on_c, 1, 58, 0
4, 91559, Note_on_c, 1, 55, 0
4, 91680, Note_on_c, 1, 58, 80
4, 91680, Note_on_c, 1, 55, 80
4, 91919, Note_on_c, 1, 58, 0
4, 91919, Note_on_c, 1, 55, 0
4, 91920, Note_on_c, 1, 63, 80
4, 91920, Note_on_c, 1, 57, 80
4, 92159, Note_on_c, 1, 63, 0
4, 92159, Note_on_c, 1, 57, 0
4, 92160, Note_on_c, 1, 44, 80
4, 92160, Note_on_c, 1, 32, 80
4, 92399, Note_on_c, 1, 44, 0
4, 92399, Note_on_c, 1, 32, 0
4, 92400, Note_on_c, 1, 51, 80
4, 92400, Note_on_c, 1, 44, 80
4, 92639, Note_on_c, 1, 51, 0
4, 92639, Note_on_c, 1, 44, 0
4, 92640, Note_on_c, 1, 51, 80
4, 92640, Note_on_c, 1, 44, 80
4, 92879, Note_on_c, 1, 51, 0
4, 92879, Note_on_c, 1, 44, 0
4, 92880, Note_on_c, 1, 51, 80
4, 92880, Note_on_c, 1, 44, 80
4, 93119, Note_on_c, 1, 51, 0
4, 93119, Note_on_c, 1, 44, 0
4, 93120, Note_on_c, 1, 51, 80
4, 93120, Note_on_c, 1, 44, 80
4, 93359, Note_on_c, 1, 51, 0
4, 93359, Note_on_c, 1, 44, 0
4, 93360, Note_on_c, 1, 51, 80
4, 93360, Note_on_c, 1, 44, 80
4, 93599, Note_on_c, 1, 51, 0
4, 93599, Note_on_c, 1, 44, 0
4, 93600, Note_on_c, 1, 51, 80
4, 93600, Note_on_c, 1, 46, 80
4, 93839, Note_on_c, 1, 51, 0
4, 93839, Note_on_c, 1, 46, 0
4, 93840, Note_on_c, 1, 51, 80
4, 93840, Note_on_c, 1, 47, 80
4, 94079, Note_on_c, 1, 51, 0
4, 94079, Note_on_c, 1, 47, 0
4, 94080, Note_on_c, 1, 51, 80
4, 94080, Note_on_c, 1, 49, 80
4, 94080, Note_on_c, 1, 39, 80
4, 94319, Note_on_c, 1, 51, 0
4, 94319, Note_on_c, 1, 49, 0
4, 94319, Note_on_c, 1, 39, 0
4, 94320, Note_on_c, 1, 61, 80
4, 94320, Note_on_c, 1, 51, 80
4, 94559, Note_on_c, 1, 61, 0
4, 94559, Note_on_c, 1, 51, 0
4, 94560, Note_on_c, 1, 61, 80
4, 94560, Note_on_c, 1, 51, 80
4, 94799, Note_on_c, 1, 61, 0
4, 94799, Note_on_c, 1, 51, 0
4, 94800, Note_on_c, 1, 61, 80
4, 94800, Note_on_c, 1, 51, 80
4, 95039, Note_on_c, 1, 61, 0
4, 95039, Note_on_c, 1, 51, 0
4, 95040, Note_on_c, 1, 61, 80
4, 95040, Note_on_c, 1, 51, 80
4, 95279, Note_on_c, 1, 61, 0
4, 95279, Note_on_c, 1, 51, 0
4, 95280, Note_on_c, 1, 61, 80
4, 95280, Note_on_c, 1, 51, 80
4, 95519, Note_on_c, 1, 61, 0
4, 95519, Note_on_c, 1, 51, 0
4, 95520, Note_on_c, 1, 59, 80
4, 95520, Note_on_c, 1, 51, 80
4, 95759, Note_on_c, 1, 59, 0
4, 95759, Note_on_c, 1, 51, 0
4, 95760, Note_on_c, 1, 58, 80
4, 95760, Note_on_c, 1, 51, 80
4, 95999, Note_on_c, 1, 58, 0
4, 95999, Note_on_c, 1, 51, 0
4, 96000, Note_on_c, 1, 44, 80
4, 96000, Note_on_c, 1, 32, 80
4, 96239, Note_on_c, 1, 44, 0
4, 96239, Note_on_c, 1, 32, 0
4, 96240, Note_on_c, 1, 51, 80
4, 96240, Note_on_c, 1, 44, 80
4, 96479, Note_on_c, 1, 51, 0
4, 96479, Note_on_c, 1, 44, 0
4, 96480, Note_on_c, 1, 51, 80
4, 96480, Note_on_c, 1, 44, 80
4, 96719, Note_on_c, 1, 51, 0
4, 96719, Note_on_c, 1, 44, 0
4, 96720, Note_on_c, 1, 51, 80
4, 96720, Note_on_c, 1, 44, 80
4, 96959, Note_on_c, 1, 51, 0
4, 96959, Note_on_c, 1, 44, 0
4, 96960, Note_on_c, 1, 51, 80
4, 96960, Note_on_c, 1, 44, 80
4, 97199, Note_on_c, 1, 51, 0
4, 97199, Note_on_c, 1, 44, 0
4, 97200, Note_on_c, 1, 51, 80
4, 97200, Note_on_c, 1, 44, 80
4, 97439, Note_on_c, 1, 51, 0
4, 97439, Note_on_c, 1, 44, 0
4, 97440, Note_on_c, 1, 51, 80
4, 97440, Note_on_c, 1, 46, 80
4, 97679, Note_on_c, 1, 51, 0
4, 97679, Note_on_c, 1, 46, 0
4, 97680, Note_on_c, 1, 51, 80
4, 97680, Note_on_c, 1, 47, 80
4, 97919, Note_on_c, 1, 51, 0
4, 97919, Note_on_c, 1, 47, 0
4, 97920, Note_on_c, 1, 51, 80
4, 97920, Note_on_c, 1, 49, 80
4, 97920, Note_on_c, 1, 39, 80
4, 98159, Note_on_c, 1, 51, 0
4, 98159, Note_on_c, 1, 49, 0
4, 98159, Note_on_c, 1, 39, 0
4, 98160, Note_on_c, 1, 61, 80
4, 98160, Note_on_c, 1, 51, 80
4, 98399, Note_on_c, 1, 61, 0
4, 98399, Note_on_c, 1, 51, 0
4, 98400, Note_on_c, 1, 61, 80
4, 98400, Note_on_c, 1, 51, 80
4, 98639, Note_on_c, 1, 61, 0
4, 98639, Note_on_c, 1, 51, 0
4, 98640, Note_on_c, 1, 61, 80
4, 98640, Note_on_c, 1, 51, 80
4, 98879, Note_on_c, 1, 61, 0
4, 98879, Note_on_c, 1, 51, 0
4, 98880, Note_on_c, 1, 61, 80
4, 98880, Note_on_c, 1, 51, 80
4, 99119, Note_on_c, 1, 61, 0
4, 99119, Note_on_c, 1, 51, 0
4, 99120, Note_on_c, 1, 61, 80
4, 99120, Note_on_c, 1, 51, 80
4, 99359, Note_on_c, 1, 61, 0
4, 99359, Note_on_c, 1, 51, 0
4, 99360, Note_on_c, 1, 59, 80
4, 99360, Note_on_c, 1, 51, 80
4, 99599, Note_on_c, 1, 59, 0
4, 99599, Note_on_c, 1, 51, 0
4, 99600, Note_on_c, 1, 58, 80
4, 99600, Note_on_c, 1, 51, 80
4, 99839, Note_on_c, 1, 58, 0
4, 99839, Note_on_c, 1, 51, 0
4, 99840, Note_on_c, 1, 56, 80
4, 99840, Note_on_c, 1, 44, 80
4, 100079, Note_on_c, 1, 56, 0
4, 100079, Note_on_c, 1, 44, 0
4, 100080, Note_on_c, 1, 63, 80
4, 100080, Note_on_c, 1, 59, 80
4, 100319, Note_on_c, 1, 63, 0
4, 100319, Note_on_c, 1, 59, 0
4, 100320, Note_on_c, 1, 63, 80
4, 100320, Note_on_c, 1, 59, 80
4, 100559, Note_on_c, 1, 63, 0
4, 100559, Note_on_c, 1, 59, 0
4, 100560, Note_on_c, 1, 59, 80
4, 100560, Note_on_c, 1, 56, 80
4, 100799, Note_on_c, 1, 59, 0
4, 100799, Note_on_c, 1, 56, 0
4, 100800, Note_on_c, 1, 49, 80
4, 101039, Note_on_c, 1, 49, 0
4, 101040, Note_on_c, 1, 64, 80
4, 101040, Note_on_c, 1, 61, 80
4, 101279, Note_on_c, 1, 64, 0
4, 101279, Note_on_c, 1, 61, 0
4, 101280, Note_on_c, 1, 64, 80
4, 101280, Note_on_c, 1, 61, 80
4, 101519, Note_on_c, 1, 64, 0
4, 101519, Note_on_c, 1, 61, 0
4, 101520, Note_on_c, 1, 61, 80
4, 101520, Note_on_c, 1, 56, 80
4, 101759, Note_on_c, 1, 61, 0
4, 101759, Note_on_c, 1, 56, 0
4, 101760, Note_on_c, 1, 51, 80
4, 101999, Note_on_c, 1, 51, 0
4, 102000, Note_on_c, 1, 63, 80
4, 102000, Note_on_c, 1, 59, 80
4, 102119, Note_on_c, 1, 63, 0
4, 102119, Note_on_c, 1, 59, 0
4, 102240, Note_on_c, 1, 63, 80
4, 102240, Note_on_c, 1, 59, 80
4, 102479, Note_on_c, 1, 63, 0
4, 102479, Note_on_c, 1, 59, 0
4, 102480, Note_on_c, 1, 59, 80
4, 102480, Note_on_c, 1, 56, 80
4, 102719, Note_on_c, 1, 59, 0
4, 102719, Note_on_c, 1, 56, 0
4, 102720, Note_on_c, 1, 49, 80
4, 102839, Note_on_c, 1, 49, 0
4, 102960, Note_on_c, 1, 63, 80
4, 102960, Note_on_c, 1, 58, 80
4, 103079, Note_on_c, 1, 63, 0
4, 103079, Note_on_c, 1, 58, 0
4, 103200, Note_on_c, 1, 63, 80
4, 103200, Note_on_c, 1, 58, 80
4, 103439, Note_on_c, 1, 63, 0
4, 103439, Note_on_c, 1, 58, 0
4, 103440, Note_on_c, 1, 58, 80
4, 103440, Note_on_c, 1, 55, 80
4, 103679, Note_on_c, 1, 58, 0
4, 103679, Note_on_c, 1, 55, 0
4, 103680, Note_on_c, 1, 47, 80
4, 103919, Note_on_c, 1, 47, 0
4, 104640, Note_on_c, 1, 49, 80
4, 104759, Note_on_c, 1, 49, 0
4, 105600, Note_on_c, 1, 51, 80
4, 105719, Note_on_c, 1, 51, 0
4, 106560, Note_on_c, 1, 51, 80
4, 106679, Note_on_c, 1, 51, 0
4, 107520, Note_on_c, 1, 44, 80
4, 107639, Note_on_c, 1, 44, 0
4, 107640, Note_on_c, 1, 56, 80
4, 107759, Note_on_c, 1, 56, 0
4, 107760, Note_on_c, 1, 51, 80
4, 107879, Note_on_c, 1, 51, 0
4, 107880, Note_on_c, 1, 56, 80
4, 107999, Note_on_c, 1, 56, 0
4, 108000, Note_on_c, 1, 44, 80
4, 108119, Note_on_c, 1, 44, 0
4, 108120, Note_on_c, 1, 56, 80
4, 108239, Note_on_c, 1, 56, 0
4, 108240, Note_on_c, 1, 51, 80
4, 108359, Note_on_c, 1, 51, 0
4, 108360, Note_on_c, 1, 56, 80
4, 108479, Note_on_c, 1, 56, 0
4, 108480, Note_on_c, 1, 44, 80
4, 108599, Note_on_c, 1, 44, 0
4, 108600, Note_on_c, 1, 56, 80
4, 108719, Note_on_c, 1, 56, 0
4, 108720, Note_on_c, 1, 51, 80
4, 108839, Note_on_c, 1, 51, 0
4, 108840, Note_on_c, 1, 56, 80
4, 108959, Note_on_c, 1, 56, 0
4, 108960, Note_on_c, 1, 44, 80
4, 109079, Note_on_c, 1, 44, 0
4, 109080, Note_on_c, 1, 56, 80
4, 109199, Note_on_c, 1, 56, 0
4, 109200, Note_on_c, 1, 51, 80
4, 109319, Note_on_c, 1, 51, 0
4, 109320, Note_on_c, 1, 56, 80
4, 109439, Note_on_c, 1, 56, 0
4, 109440, Note_on_c, 1, 44, 80
4, 109559, Note_on_c, 1, 44, 0
4, 109560, Note_on_c, 1, 58, 80
4, 109679, Note_on_c, 1, 58, 0
4, 109680, Note_on_c, 1, 51, 80
4, 109799, Note_on_c, 1, 51, 0
4, 109800, Note_on_c, 1, 58, 80
4, 109919, Note_on_c, 1, 58, 0
4, 109920, Note_on_c, 1, 44, 80
4, 110039, Note_on_c, 1, 44, 0
4, 110040, Note_on_c, 1, 58, 80
4, 110159, Note_on_c, 1, 58, 0
4, 110160, Note_on_c, 1, 51, 80
4, 110279, Note_on_c, 1, 51, 0
4, 110280, Note_on_c, 1, 58, 80
4, 110399, Note_on_c, 1, 58, 0
4, 110400, Note_on_c, 1, 44, 80
4, 110519, Note_on_c, 1, 44, 0
4, 110520, Note_on_c, 1, 58, 80
4, 110639, Note_on_c, 1, 58, 0
4, 110640, Note_on_c, 1, 51, 80
4, 110759, Note_on_c, 1, 51, 0
4, 110760, Note_on_c, 1, 58, 80
4, 110879, Note_on_c, 1, 58, 0
4, 110880, Note_on_c, 1, 44, 80
4, 110999, Note_on_c, 1, 44, 0
4, 111000, Note_on_c, 1, 58, 80
4, 111119, Note_on_c, 1, 58, 0
4, 111120, Note_on_c, 1, 51, 80
4, 111239, Note_on_c, 1, 51, 0
4, 111240, Note_on_c, 1, 58, 80
4, 111359, Note_on_c, 1, 58, 0
4, 111360, Note_on_c, 1, 44, 80
4, 111479, Note_on_c, 1, 44, 0
4, 111480, Note_on_c, 1, 56, 80
4, 111599, Note_on_c, 1, 56, 0
4, 111600, Note_on_c, 1, 51, 80
4, 111719, Note_on_c, 1, 51, 0
4, 111720, Note_on_c, 1, 56, 80
4, 111839, Note_on_c, 1, 56, 0
4, 111840, Note_on_c, 1, 44, 80
4, 111959, Note_on_c, 1, 44, 0
4, 111960, Note_on_c, 1, 56, 80
4, 112079, Note_on_c, 1, 56, 0
4, 112080, Note_on_c, 1, 51, 80
4, 112199, Note_on_c, 1, 51, 0
4, 112200, Note_on_c, 1, 56, 80
4, 112319, Note_on_c, 1, 56, 0
4, 112320, Note_on_c, 1, 44, 80
4, 112439, Note_on_c, 1, 44, 0
4, 112440, Note_on_c, 1, 56, 80
4, 112559, Note_on_c, 1, 56, 0
4, 112560, Note_on_c, 1, 51, 80
4, 112679, Note_on_c, 1, 51, 0
4, 112680, Note_on_c, 1, 56, 80
4, 112799, Note_on_c, 1, 56, 0
4, 112800, Note_on_c, 1, 44, 80
4, 112919, Note_on_c, 1, 44, 0
4, 112920, Note_on_c, 1, 56, 80
4, 113039, Note_on_c, 1, 56, 0
4, 113040, Note_on_c, 1, 51, 80
4, 113159, Note_on_c, 1, 51, 0
4, 113160, Note_on_c, 1, 56, 80
4, 113279, Note_on_c, 1, 56, 0
4, 113280, Note_on_c, 1, 44, 80
4, 113399, Note_on_c, 1, 44, 0
4, 113400, Note_on_c, 1, 58, 80
4, 113519, Note_on_c, 1, 58, 0
4, 113520, Note_on_c, 1, 51, 80
4, 113639, Note_on_c, 1, 51, 0
4, 113640, Note_on_c, 1, 58, 80
4, 113759, Note_on_c, 1, 58, 0
4, 113760, Note_on_c, 1, 44, 80
4, 113879, Note_on_c, 1, 44, 0
4, 113880, Note_on_c, 1, 58, 80
4, 113999, Note_on_c, 1, 58, 0
4, 114000, Note_on_c, 1, 51, 80
4, 114119, Note_on_c, 1, 51, 0
4, 114120, Note_on_c, 1, 58, 80
4, 114239, Note_on_c, 1, 58, 0
4, 114240, Note_on_c, 1, 44, 80
4, 114359, Note_on_c, 1, 44, 0
4, 114360, Note_on_c, 1, 58, 80
4, 114479, Note_on_c, 1, 58, 0
4, 114480, Note_on_c, 1, 51, 80
4, 114599, Note_on_c, 1, 51, 0
4, 114600, Note_on_c, 1, 58, 80
4, 114719, Note_on_c, 1, 58, 0
4, 114720, Note_on_c, 1, 44, 80
4, 114839, Note_on_c, 1, 44, 0
4, 114840, Note_on_c, 1, 58, 80
4, 114959, Note_on_c, 1, 58, 0
4, 114960, Note_on_c, 1, 51, 80
4, 115079, Note_on_c, 1, 51, 0
4, 115080, Note_on_c, 1, 58, 80
4, 115199, Note_on_c, 1, 58, 0
4, 115200, Note_on_c, 1, 44, 80
4, 115319, Note_on_c, 1, 44, 0
4, 115320, Note_on_c, 1, 56, 80
4, 115439, Note_on_c, 1, 56, 0
4, 115440, Note_on_c, 1, 51, 80
4, 115559, Note_on_c, 1, 51, 0
4, 115560, Note_on_c, 1, 56, 80
4, 115679, Note_on_c, 1, 56, 0
4, 115680, Note_on_c, 1, 44, 80
4, 115799, Note_on_c, 1, 44, 0
4, 115800, Note_on_c, 1, 56, 80
4, 115919, Note_on_c, 1, 56, 0
4, 115920, Note_on_c, 1, 51, 80
4, 116039, Note_on_c, 1, 51, 0
4, 116040, Note_on_c, 1, 56, 80
4, 116159, Note_on_c, 1, 56, 0
4, 116160, Note_on_c, 1, 44, 80
4, 116279, Note_on_c, 1, 44, 0
4, 116280, Note_on_c, 1, 58, 80
4, 116399, Note_on_c, 1, 58, 0
4, 116400, Note_on_c, 1, 51, 80
4, 116519, Note_on_c, 1, 51, 0
4, 116520, Note_on_c, 1, 58, 80
4, 116639, Note_on_c, 1, 58, 0
4, 116640, Note_on_c, 1, 44, 80
4, 116759, Note_on_c, 1, 44, 0
4, 116760, Note_on_c, 1, 58, 80
4, 116879, Note_on_c, 1, 58, 0
4, 116880, Note_on_c, 1, 51, 80
4, 116999, Note_on_c, 1, 51, 0
4, 117000, Note_on_c, 1, 58, 80
4, 117119, Note_on_c, 1, 58, 0
4, 117120, Note_on_c, 1, 44, 80
4, 117239, Note_on_c, 1, 44, 0
4, 117240, Note_on_c, 1, 56, 80
4, 117359, Note_on_c, 1, 56, 0
4, 117360, Note_on_c, 1, 51, 80
4, 117479, Note_on_c, 1, 51, 0
4, 117480, Note_on_c, 1, 56, 80
4, 117599, Note_on_c, 1, 56, 0
4, 117600, Note_on_c, 1, 44, 80
4, 117719, Note_on_c, 1, 44, 0
4, 117720, Note_on_c, 1, 56, 80
4, 117839, Note_on_c, 1, 56, 0
4, 117840, Note_on_c, 1, 51, 80
4, 117959, Note_on_c, 1, 51, 0
4, 117960, Note_on_c, 1, 56, 80
4, 118079, Note_on_c, 1, 56, 0
4, 118080, Note_on_c, 1, 44, 80
4, 118199, Note_on_c, 1, 44, 0
4, 118200, Note_on_c, 1, 58, 80
4, 118319, Note_on_c, 1, 58, 0
4, 118320, Note_on_c, 1, 51, 80
4, 118439, Note_on_c, 1, 51, 0
4, 118440, Note_on_c, 1, 58, 80
4, 118559, Note_on_c, 1, 58, 0
4, 118560, Note_on_c, 1, 44, 80
4, 118679, Note_on_c, 1, 44, 0
4, 118680, Note_on_c, 1, 58, 80
4, 118799, Note_on_c, 1, 58, 0
4, 118800, Note_on_c, 1, 51, 80
4, 118919, Note_on_c, 1, 51, 0
4, 118920, Note_on_c, 1, 58, 80
4, 119039, Note_on_c, 1, 58, 0
4, 119040, Note_on_c, 1, 44, 80
4, 119159, Note_on_c, 1, 44, 0
4, 119160, Note_on_c, 1, 56, 80
4, 119279, Note_on_c, 1, 56, 0
4, 119280, Note_on_c, 1, 51, 80
4, 119399, Note_on_c, 1, 51, 0
4, 119400, Note_on_c, 1, 56, 80
4, 119519, Note_on_c, 1, 56, 0
4, 119520, Note_on_c, 1, 44, 80
4, 119639, Note_on_c, 1, 44, 0
4, 119640, Note_on_c, 1, 56, 80
4, 119759, Note_on_c, 1, 56, 0
4, 119760, Note_on_c, 1, 51, 80
4, 119879, Note_on_c, 1, 51, 0
4, 119880, Note_on_c, 1, 56, 80
4, 119999, Note_on_c, 1, 56, 0
4, 120000, Note_on_c, 1, 44, 80
4, 120119, Note_on_c, 1, 44, 0
4, 120120, Note_on_c, 1, 56, 80
4, 120239, Note_on_c, 1, 56, 0
4, 120240, Note_on_c, 1, 51, 80
4, 120359, Note_on_c, 1, 51, 0
4, 120360, Note_on_c, 1, 56, 80
4, 120479, Note_on_c, 1, 56, 0
4, 120480, Note_on_c, 1, 44, 80
4, 120599, Note_on_c, 1, 44, 0
4, 120600, Note_on_c, 1, 56, 80
4, 120719, Note_on_c, 1, 56, 0
4, 120720, Note_on_c, 1, 51, 80
4, 120839, Note_on_c, 1, 51, 0
4, 120840, Note_on_c, 1, 56, 80
4, 120959, Note_on_c, 1, 56, 0
4, 120960, Note_on_c, 1, 44, 80
4, 121079, Note_on_c, 1, 44, 0
4, 121080, Note_on_c, 1, 54, 80
4, 121199, Note_on_c, 1, 54, 0
4, 121200, Note_on_c, 1, 51, 80
4, 121319, Note_on_c, 1, 51, 0
4, 121320, Note_on_c, 1, 54, 80
4, 121439, Note_on_c, 1, 54, 0
4, 121440, Note_on_c, 1, 44, 80
4, 121559, Note_on_c, 1, 44, 0
4, 121560, Note_on_c, 1, 54, 80
4, 121679, Note_on_c, 1, 54, 0
4, 121680, Note_on_c, 1, 51, 80
4, 121799, Note_on_c, 1, 51, 0
4, 121800, Note_on_c, 1, 54, 80
4, 121919, Note_on_c, 1, 54, 0
4, 121920, Note_on_c, 1, 44, 80
4, 122039, Note_on_c, 1, 44, 0
4, 122040, Note_on_c, 1, 54, 80
4, 122159, Note_on_c, 1, 54, 0
4, 122160, Note_on_c, 1, 51, 80
4, 122279, Note_on_c, 1, 51, 0
4, 122280, Note_on_c, 1, 54, 80
4, 122399, Note_on_c, 1, 54, 0
4, 122400, Note_on_c, 1, 44, 80
4, 122519, Note_on_c, 1, 44, 0
4, 122520, Note_on_c, 1, 54, 80
4, 122639, Note_on_c, 1, 54, 0
4, 122640, Note_on_c, 1, 51, 80
4, 122759, Note_on_c, 1, 51, 0
4, 122760, Note_on_c, 1, 54, 80
4, 122879, Note_on_c, 1, 54, 0
4, 122880, Note_on_c, 1, 37, 80
4, 122999, Note_on_c, 1, 37, 0
4, 123120, Note_on_c, 1, 44, 80
4, 123239, Note_on_c, 1, 44, 0
4, 123360, Note_on_c, 1, 37, 80
4, 123479, Note_on_c, 1, 37, 0
4, 123600, Note_on_c, 1, 44, 80
4, 123719, Note_on_c, 1, 44, 0
4, 123840, Note_on_c, 1, 37, 80
4, 123959, Note_on_c, 1, 37, 0
4, 124080, Note_on_c, 1, 44, 80
4, 124199, Note_on_c, 1, 44, 0
4, 124320, Note_on_c, 1, 37, 80
4, 124439, Note_on_c, 1, 37, 0
4, 124560, Note_on_c, 1, 44, 80
4, 124679, Note_on_c, 1, 44, 0
4, 124800, Note_on_c, 1, 37, 80
4, 124919, Note_on_c, 1, 37, 0
4, 125040, Note_on_c, 1, 44, 80
4, 125159, Note_on_c, 1, 44, 0
4, 125280, Note_on_c, 1, 37, 80
4, 125399, Note_on_c, 1, 37, 0
4, 125520, Note_on_c, 1, 44, 80
4, 125639, Note_on_c, 1, 44, 0
4, 125760, Note_on_c, 1, 37, 80
4, 125879, Note_on_c, 1, 37, 0
4, 126000, Note_on_c, 1, 44, 80
4, 126119, Note_on_c, 1, 44, 0
4, 126240, Note_on_c, 1, 49, 80
4, 126240, Note_on_c, 1, 37, 80
4, 126479, Note_on_c, 1, 49, 0
4, 126479, Note_on_c, 1, 37, 0
4, 126480, Note_on_c, 1, 44, 80
4, 126599, Note_on_c, 1, 44, 0
4, 126720, Note_on_c, 1, 36, 80
4, 126839, Note_on_c, 1, 36, 0
4, 126960, Note_on_c, 1, 44, 80
4, 127079, Note_on_c, 1, 44, 0
4, 127200, Note_on_c, 1, 36, 80
4, 127319, Note_on_c, 1, 36, 0
4, 127440, Note_on_c, 1, 44, 80
4, 127559, Note_on_c, 1, 44, 0
4, 127680, Note_on_c, 1, 36, 80
4, 127799, Note_on_c, 1, 36, 0
4, 127920, Note_on_c, 1, 44, 80
4, 128039, Note_on_c, 1, 44, 0
4, 128160, Note_on_c, 1, 36, 80
4, 128279, Note_on_c, 1, 36, 0
4, 128400, Note_on_c, 1, 44, 80
4, 128519, Note_on_c, 1, 44, 0
4, 128640, Note_on_c, 1, 36, 80
4, 128759, Note_on_c, 1, 36, 0
4, 128880, Note_on_c, 1, 44, 80
4, 128999, Note_on_c, 1, 44, 0
4, 129120, Note_on_c, 1, 36, 80
4, 129239, Note_on_c, 1, 36, 0
4, 129360, Note_on_c, 1, 44, 80
4, 129479, Note_on_c, 1, 44, 0
4, 129600, Note_on_c, 1, 36, 80
4, 129719, Note_on_c, 1, 36, 0
4, 129840, Note_on_c, 1, 44, 80
4, 129959, Note_on_c, 1, 44, 0
4, 130080, Note_on_c, 1, 48, 80
4, 130080, Note_on_c, 1, 36, 80
4, 130319, Note_on_c, 1, 48, 0
4, 130319, Note_on_c, 1, 36, 0
4, 130320, Note_on_c, 1, 44, 80
4, 130439, Note_on_c, 1, 44, 0
4, 130560, Note_on_c, 1, 35, 80
4, 130679, Note_on_c, 1, 35, 0
4, 130800, Note_on_c, 1, 44, 80
4, 130919, Note_on_c, 1, 44, 0
4, 131040, Note_on_c, 1, 35, 80
4, 131159, Note_on_c, 1, 35, 0
4, 131280, Note_on_c, 1, 44, 80
4, 131399, Note_on_c, 1, 44, 0
4, 131520, Note_on_c, 1, 35, 80
4, 131639, Note_on_c, 1, 35, 0
4, 131760, Note_on_c, 1, 44, 80
4, 131879, Note_on_c, 1, 44, 0
4, 132000, Note_on_c, 1, 35, 80
4, 132119, Note_on_c, 1, 35, 0
4, 132240, Note_on_c, 1, 44, 80
4, 132359, Note_on_c, 1, 44, 0
4, 132480, Note_on_c, 1, 35, 80
4, 132599, Note_on_c, 1, 35, 0
4, 132720, Note_on_c, 1, 44, 80
4, 132839, Note_on_c, 1, 44, 0
4, 132960, Note_on_c, 1, 35, 80
4, 133079, Note_on_c, 1, 35, 0
4, 133200, Note_on_c, 1, 44, 80
4, 133319, Note_on_c, 1, 44, 0
4, 133440, Note_on_c, 1, 35, 80
4, 133559, Note_on_c, 1, 35, 0
4, 133680, Note_on_c, 1, 44, 80
4, 133799, Note_on_c, 1, 44, 0
4, 133920, Note_on_c, 1, 47, 80
4, 133920, Note_on_c, 1, 35, 80
4, 134159, Note_on_c, 1, 47, 0
4, 134159, Note_on_c, 1, 35, 0
4, 134160, Note_on_c, 1, 44, 80
4, 134279, Note_on_c, 1, 44, 0
4, 134400, Note_on_c, 1, 33, 80
4, 134519, Note_on_c, 1, 33, 0
4, 134640, Note_on_c, 1, 45, 80
4, 134759, Note_on_c, 1, 45, 0
4, 134880, Note_on_c, 1, 33, 80
4, 134999, Note_on_c, 1, 33, 0
4, 135120, Note_on_c, 1, 45, 80
4, 135239, Note_on_c, 1, 45, 0
4, 135360, Note_on_c, 1, 33, 80
4, 135479, Note_on_c, 1, 33, 0
4, 135600, Note_on_c, 1, 45, 80
4, 135719, Note_on_c, 1, 45, 0
4, 135840, Note_on_c, 1, 33, 80
4, 136079, Note_on_c, 1, 33, 0
4, 136080, Note_on_c, 1, 45, 80
4, 136199, Note_on_c, 1, 45, 0
4, 136320, Note_on_c, 1, 33, 80
4, 136439, Note_on_c, 1, 33, 0
4, 136560, Note_on_c, 1, 45, 80
4, 136679, Note_on_c, 1, 45, 0
4, 136800, Note_on_c, 1, 33, 80
4, 136919, Note_on_c, 1, 33, 0
4, 137040, Note_on_c, 1, 45, 80
4, 137159, Note_on_c, 1, 45, 0
4, 137280, Note_on_c, 1, 33, 80
4, 137399, Note_on_c, 1, 33, 0
4, 137520, Note_on_c, 1, 45, 80
4, 137639, Note_on_c, 1, 45, 0
4, 137760, Note_on_c, 1, 33, 80
4, 137999, Note_on_c, 1, 33, 0
4, 138000, Note_on_c, 1, 45, 80
4, 138119, Note_on_c, 1, 45, 0
4, 138240, Note_on_c, 1, 32, 80
4, 138479, Note_on_c, 1, 32, 0
4, 138480, Note_on_c, 1, 56, 80
4, 142079, Note_on_c, 1, 56, 0
4, 142080, Note_on_c, 1, 32, 80
4, 142319, Note_on_c, 1, 32, 0
4, 142320, Note_on_c, 1, 56, 80
4, 145919, Note_on_c, 1, 56, 0
4, 145920, Note_on_c, 1, 60, 80
4, 145920, Note_on_c, 1, 56, 80
4, 146039, Note_on_c, 1, 60, 0
4, 146039, Note_on_c, 1, 56, 0
4, 146160, Note_on_c, 1, 61, 80
4, 146160, Note_on_c, 1, 56, 80
4, 146279, Note_on_c, 1, 61, 0
4, 146279, Note_on_c, 1, 56, 0
4, 146400, Note_on_c, 1, 60, 80
4, 146400, Note_on_c, 1, 56, 80
4, 146519, Note_on_c, 1, 60, 0
4, 146519, Note_on_c, 1, 56, 0
4, 146640, Note_on_c, 1, 61, 80
4, 146640, Note_on_c, 1, 56, 80
4, 146759, Note_on_c, 1, 61, 0
4, 146759, Note_on_c, 1, 56, 0
4, 146880, Note_on_c, 1, 60, 80
4, 146880, Note_on_c, 1, 56, 80
4, 146999, Note_on_c, 1, 60, 0
4, 146999, Note_on_c, 1, 56, 0
4, 147120, Note_on_c, 1, 61, 80
4, 147120, Note_on_c, 1, 56, 80
4, 147239, Note_on_c, 1, 61, 0
4, 147239, Note_on_c, 1, 56, 0
4, 147360, Note_on_c, 1, 60, 80
4, 147360, Note_on_c, 1, 56, 80
4, 147479, Note_on_c, 1, 60, 0
4, 147479, Note_on_c, 1, 56, 0
4, 147600, Note_on_c, 1, 61, 80
4, 147600, Note_on_c, 1, 56, 80
4, 147719, Note_on_c, 1, 61, 0
4, 147719, Note_on_c, 1, 56, 0
4, 147840, Note_on_c, 1, 60, 80
4, 147840, Note_on_c, 1, 56, 80
4, 148319, Note_on_c, 1, 60, 0
4, 148319, Note_on_c, 1, 56, 0
4, 148320, Note_on_c, 1, 44, 80
4, 148320, Note_on_c, 1, 32, 80
4, 149759, Note_on_c, 1, 44, 0
4, 149759, Note_on_c, 1, 32, 0
4, 149760, Note_on_c, 1, 37, 80
4, 149879, Note_on_c, 1, 37, 0
4, 150000, Note_on_c, 1, 44, 80
4, 150119, Note_on_c, 1, 44, 0
4, 150240, Note_on_c, 1, 37, 80
4, 150359, Note_on_c, 1, 37, 0
4, 150480, Note_on_c, 1, 44, 80
4, 150599, Note_on_c, 1, 44, 0
4, 150720, Note_on_c, 1, 37, 80
4, 150839, Note_on_c, 1, 37, 0
4, 150960, Note_on_c, 1, 44, 80
4, 151079, Note_on_c, 1, 44, 0
4, 151200, Note_on_c, 1, 37, 80
4, 151319, Note_on_c, 1, 37, 0
4, 151440, Note_on_c, 1, 44, 80
4, 151559, Note_on_c, 1, 44, 0
4, 151680, Note_on_c, 1, 37, 80
4, 151799, Note_on_c, 1, 37, 0
4, 151920, Note_on_c, 1, 44, 80
4, 152039, Note_on_c, 1, 44, 0
4, 152160, Note_on_c, 1, 37, 80
4, 152279, Note_on_c, 1, 37, 0
4, 152400, Note_on_c, 1, 44, 80
4, 152519, Note_on_c, 1, 44, 0
4, 152640, Note_on_c, 1, 37, 80
4, 152759, Note_on_c, 1, 37, 0
4, 152880, Note_on_c, 1, 44, 80
4, 152999, Note_on_c, 1, 44, 0
4, 153120, Note_on_c, 1, 49, 80
4, 153120, Note_on_c, 1, 37, 80
4, 153359, Note_on_c, 1, 49, 0
4, 153359, Note_on_c, 1, 37, 0
4, 153360, Note_on_c, 1, 44, 80
4, 153479, Note_on_c, 1, 44, 0
4, 153600, Note_on_c, 1, 34, 80
4, 153719, Note_on_c, 1, 34, 0
4, 153840, Note_on_c, 1, 49, 80
4, 153959, Note_on_c, 1, 49, 0
4, 154080, Note_on_c, 1, 46, 80
4, 154199, Note_on_c, 1, 46, 0
4, 154320, Note_on_c, 1, 49, 80
4, 154439, Note_on_c, 1, 49, 0
4, 154560, Note_on_c, 1, 46, 80
4, 154679, Note_on_c, 1, 46, 0
4, 154800, Note_on_c, 1, 49, 80
4, 154919, Note_on_c, 1, 49, 0
4, 155040, Note_on_c, 1, 46, 80
4, 155159, Note_on_c, 1, 46, 0
4, 155280, Note_on_c, 1, 49, 80
4, 155399, Note_on_c, 1, 49, 0
4, 155520, Note_on_c, 1, 46, 80
4, 155639, Note_on_c, 1, 46, 0
4, 155760, Note_on_c, 1, 49, 80
4, 155879, Note_on_c, 1, 49, 0
4, 156000, Note_on_c, 1, 46, 80
4, 156119, Note_on_c, 1, 46, 0
4, 156240, Note_on_c, 1, 49, 80
4, 156359, Note_on_c, 1, 49, 0
4, 156480, Note_on_c, 1, 46, 80
4, 156599, Note_on_c, 1, 46, 0
4, 156720, Note_on_c, 1, 49, 80
4, 156839, Note_on_c, 1, 49, 0
4, 156960, Note_on_c, 1, 46, 80
4, 156960, Note_on_c, 1, 34, 80
4, 157199, Note_on_c, 1, 46, 0
4, 157199, Note_on_c, 1, 34, 0
4, 157200, Note_on_c, 1, 49, 80
4, 157319, Note_on_c, 1, 49, 0
4, 157440, Note_on_c, 1, 31, 80
4, 157559, Note_on_c, 1, 31, 0
4, 157680, Note_on_c, 1, 51, 80
4, 157799, Note_on_c, 1, 51, 0
4, 157920, Note_on_c, 1, 43, 80
4, 158039, Note_on_c, 1, 43, 0
4, 158160, Note_on_c, 1, 51, 80
4, 158279, Note_on_c, 1, 51, 0
4, 158400, Note_on_c, 1, 43, 80
4, 158519, Note_on_c, 1, 43, 0
4, 158640, Note_on_c, 1, 51, 80
4, 158759, Note_on_c, 1, 51, 0
4, 158880, Note_on_c, 1, 43, 80
4, 158999, Note_on_c, 1, 43, 0
4, 159120, Note_on_c, 1, 51, 80
4, 159239, Note_on_c, 1, 51, 0
4, 159360, Note_on_c, 1, 43, 80
4, 159479, Note_on_c, 1, 43, 0
4, 159600, Note_on_c, 1, 51, 80
4, 159719, Note_on_c, 1, 51, 0
4, 159840, Note_on_c, 1, 43, 80
4, 159959, Note_on_c, 1, 43, 0
4, 160080, Note_on_c, 1, 51, 80
4, 160199, Note_on_c, 1, 51, 0
4, 160320, Note_on_c, 1, 43, 80
4, 160439, Note_on_c, 1, 43, 0
4, 160560, Note_on_c, 1, 51, 80
4, 160679, Note_on_c, 1, 51, 0
4, 160800, Note_on_c, 1, 43, 80
4, 160919, Note_on_c, 1, 43, 0
4, 161040, Note_on_c, 1, 51, 80
4, 161159, Note_on_c, 1, 51, 0
4, 161280, Note_on_c, 1, 44, 80
4, 161399, Note_on_c, 1, 44, 0
4, 161400, Note_on_c, 1, 51, 80
4, 161519, Note_on_c, 1, 51, 0
4, 161520, Note_on_c, 1, 47, 80
4, 161639, Note_on_c, 1, 47, 0
4, 161640, Note_on_c, 1, 51, 80
4, 161759, Note_on_c, 1, 51, 0
4, 161760, Note_on_c, 1, 44, 80
4, 161879, Note_on_c, 1, 44, 0
4, 161880, Note_on_c, 1, 51, 80
4, 161999, Note_on_c, 1, 51, 0
4, 162000, Note_on_c, 1, 47, 80
4, 162119, Note_on_c, 1, 47, 0
4, 162120, Note_on_c, 1, 51, 80
4, 162239, Note_on_c, 1, 51, 0
4, 162240, Note_on_c, 1, 44, 80
4, 162359, Note_on_c, 1, 44, 0
4, 162360, Note_on_c, 1, 51, 80
4, 162479, Note_on_c, 1, 51, 0
4, 162480, Note_on_c, 1, 47, 80
4, 162599, Note_on_c, 1, 47, 0
4, 162600, Note_on_c, 1, 51, 80
4, 162719, Note_on_c, 1, 51, 0
4, 162720, Note_on_c, 1, 44, 80
4, 162839, Note_on_c, 1, 44, 0
4, 162840, Note_on_c, 1, 51, 80
4, 162959, Note_on_c, 1, 51, 0
4, 162960, Note_on_c, 1, 47, 80
4, 163079, Note_on_c, 1, 47, 0
4, 163080, Note_on_c, 1, 51, 80
4, 163199, Note_on_c, 1, 51, 0
4, 163200, Note_on_c, 1, 46, 80
4, 163319, Note_on_c, 1, 46, 0
4, 163320, Note_on_c, 1, 51, 80
4, 163439, Note_on_c, 1, 51, 0
4, 163440, Note_on_c, 1, 49, 80
4, 163559, Note_on_c, 1, 49, 0
4, 163560, Note_on_c, 1, 51, 80
4, 163679, Note_on_c, 1, 51, 0
4, 163680, Note_on_c, 1, 46, 80
4, 163799, Note_on_c, 1, 46, 0
4, 163800, Note_on_c, 1, 51, 80
4, 163919, Note_on_c, 1, 51, 0
4, 163920, Note_on_c, 1, 49, 80
4, 164039, Note_on_c, 1, 49, 0
4, 164040, Note_on_c, 1, 51, 80
4, 164159, Note_on_c, 1, 51, 0
4, 164160, Note_on_c, 1, 46, 80
4, 164279, Note_on_c, 1, 46, 0
4, 164280, Note_on_c, 1, 51, 80
4, 164399, Note_on_c, 1, 51, 0
4, 164400, Note_on_c, 1, 49, 80
4, 164519, Note_on_c, 1, 49, 0
4, 164520, Note_on_c, 1, 51, 80
4, 164639, Note_on_c, 1, 51, 0
4, 164640, Note_on_c, 1, 46, 80
4, 164759, Note_on_c, 1, 46, 0
4, 164760, Note_on_c, 1, 51, 80
4, 164879, Note_on_c, 1, 51, 0
4, 164880, Note_on_c, 1, 49, 80
4, 164999, Note_on_c, 1, 49, 0
4, 165000, Note_on_c, 1, 51, 80
4, 165119, Note_on_c, 1, 51, 0
4, 165120, Note_on_c, 1, 47, 80
4, 165239, Note_on_c, 1, 47, 0
4, 165240, Note_on_c, 1, 51, 80
4, 165359, Note_on_c, 1, 51, 0
4, 165360, Note_on_c, 1, 47, 80
4, 165479, Note_on_c, 1, 47, 0
4, 165480, Note_on_c, 1, 51, 80
4, 165599, Note_on_c, 1, 51, 0
4, 165600, Note_on_c, 1, 47, 80
4, 165719, Note_on_c, 1, 47, 0
4, 165720, Note_on_c, 1, 51, 80
4, 165839, Note_on_c, 1, 51, 0
4, 165840, Note_on_c, 1, 47, 80
4, 165959, Note_on_c, 1, 47, 0
4, 165960, Note_on_c, 1, 51, 80
4, 166079, Note_on_c, 1, 51, 0
4, 166080, Note_on_c, 1, 47, 80
4, 166199, Note_on_c, 1, 47, 0
4, 166200, Note_on_c, 1, 51, 80
4, 166319, Note_on_c, 1, 51, 0
4, 166320, Note_on_c, 1, 47, 80
4, 166439, Note_on_c, 1, 47, 0
4, 166440, Note_on_c, 1, 51, 80
4, 166559, Note_on_c, 1, 51, 0
4, 166560, Note_on_c, 1, 47, 80
4, 166679, Note_on_c, 1, 47, 0
4, 166680, Note_on_c, 1, 51, 80
4, 166799, Note_on_c, 1, 51, 0
4, 166800, Note_on_c, 1, 47, 80
4, 166919, Note_on_c, 1, 47, 0
4, 166920, Note_on_c, 1, 51, 80
4, 167039, Note_on_c, 1, 51, 0
4, 167040, Note_on_c, 1, 43, 80
4, 167159, Note_on_c, 1, 43, 0
4, 167160, Note_on_c, 1, 51, 80
4, 167279, Note_on_c, 1, 51, 0
4, 167280, Note_on_c, 1, 43, 80
4, 167399, Note_on_c, 1, 43, 0
4, 167400, Note_on_c, 1, 51, 80
4, 167519, Note_on_c, 1, 51, 0
4, 167520, Note_on_c, 1, 43, 80
4, 167639, Note_on_c, 1, 43, 0
4, 167640, Note_on_c, 1, 51, 80
4, 167759, Note_on_c, 1, 51, 0
4, 167760, Note_on_c, 1, 43, 80
4, 167879, Note_on_c, 1, 43, 0
4, 167880, Note_on_c, 1, 51, 80
4, 167999, Note_on_c, 1, 51, 0
4, 168000, Note_on_c, 1, 43, 80
4, 168119, Note_on_c, 1, 43, 0
4, 168120, Note_on_c, 1, 51, 80
4, 168239, Note_on_c, 1, 51, 0
4, 168240, Note_on_c, 1, 43, 80
4, 168359, Note_on_c, 1, 43, 0
4, 168360, Note_on_c, 1, 51, 80
4, 168479, Note_on_c, 1, 51, 0
4, 168480, Note_on_c, 1, 43, 80
4, 168599, Note_on_c, 1, 43, 0
4, 168600, Note_on_c, 1, 51, 80
4, 168719, Note_on_c, 1, 51, 0
4, 168720, Note_on_c, 1, 43, 80
4, 168839, Note_on_c, 1, 43, 0
4, 168840, Note_on_c, 1, 51, 80
4, 168959, Note_on_c, 1, 51, 0
4, 168960, Note_on_c, 1, 44, 80
4, 169079, Note_on_c, 1, 44, 0
4, 169080, Note_on_c, 1, 51, 80
4, 169199, Note_on_c, 1, 51, 0
4, 169200, Note_on_c, 1, 47, 80
4, 169319, Note_on_c, 1, 47, 0
4, 169320, Note_on_c, 1, 51, 80
4, 169439, Note_on_c, 1, 51, 0
4, 169440, Note_on_c, 1, 44, 80
4, 169559, Note_on_c, 1, 44, 0
4, 169560, Note_on_c, 1, 51, 80
4, 169679, Note_on_c, 1, 51, 0
4, 169680, Note_on_c, 1, 47, 80
4, 169799, Note_on_c, 1, 47, 0
4, 169800, Note_on_c, 1, 51, 80
4, 169919, Note_on_c, 1, 51, 0
4, 169920, Note_on_c, 1, 44, 80
4, 170039, Note_on_c, 1, 44, 0
4, 170040, Note_on_c, 1, 51, 80
4, 170159, Note_on_c, 1, 51, 0
4, 170160, Note_on_c, 1, 47, 80
4, 170279, Note_on_c, 1, 47, 0
4, 170280, Note_on_c, 1, 51, 80
4, 170399, Note_on_c, 1, 51, 0
4, 170400, Note_on_c, 1, 44, 80
4, 170519, Note_on_c, 1, 44, 0
4, 170520, Note_on_c, 1, 51, 80
4, 170639, Note_on_c, 1, 51, 0
4, 170640, Note_on_c, 1, 47, 80
4, 170759, Note_on_c, 1, 47, 0
4, 170760, Note_on_c, 1, 51, 80
4, 170879, Note_on_c, 1, 51, 0
4, 170880, Note_on_c, 1, 46, 80
4, 170999, Note_on_c, 1, 46, 0
4, 171000, Note_on_c, 1, 51, 80
4, 171119, Note_on_c, 1, 51, 0
4, 171120, Note_on_c, 1, 49, 80
4, 171239, Note_on_c, 1, 49, 0
4, 171240, Note_on_c, 1, 51, 80
4, 171359, Note_on_c, 1, 51, 0
4, 171360, Note_on_c, 1, 46, 80
4, 171479, Note_on_c, 1, 46, 0
4, 171480, Note_on_c, 1, 51, 80
4, 171599, Note_on_c, 1, 51, 0
4, 171600, Note_on_c, 1, 49, 80
4, 171719, Note_on_c, 1, 49, 0
4, 171720, Note_on_c, 1, 51, 80
4, 171839, Note_on_c, 1, 51, 0
4, 171840, Note_on_c, 1, 46, 80
4, 171959, Note_on_c, 1, 46, 0
4, 171960, Note_on_c, 1, 51, 80
4, 172079, Note_on_c, 1, 51, 0
4, 172080, Note_on_c, 1, 49, 80
4, 172199, Note_on_c, 1, 49, 0
4, 172200, Note_on_c, 1, 51, 80
4, 172319, Note_on_c, 1, 51, 0
4, 172320, Note_on_c, 1, 46, 80
4, 172439, Note_on_c, 1, 46, 0
4, 172440, Note_on_c, 1, 51, 80
4, 172559, Note_on_c, 1, 51, 0
4, 172560, Note_on_c, 1, 49, 80
4, 172679, Note_on_c, 1, 49, 0
4, 172680, Note_on_c, 1, 51, 80
4, 172799, Note_on_c, 1, 51, 0
4, 172800, Note_on_c, 1, 47, 80
4, 172919, Note_on_c, 1, 47, 0
4, 172920, Note_on_c, 1, 51, 80
4, 173039, Note_on_c, 1, 51, 0
4, 173040, Note_on_c, 1, 47, 80
4, 173159, Note_on_c, 1, 47, 0
4, 173160, Note_on_c, 1, 51, 80
4, 173279, Note_on_c, 1, 51, 0
4, 173280, Note_on_c, 1, 47, 80
4, 173399, Note_on_c, 1, 47, 0
4, 173400, Note_on_c, 1, 51, 80
4, 173519, Note_on_c, 1, 51, 0
4, 173520, Note_on_c, 1, 47, 80
4, 173639, Note_on_c, 1, 47, 0
4, 173640, Note_on_c, 1, 51, 80
4, 173759, Note_on_c, 1, 51, 0
4, 173760, Note_on_c, 1, 47, 80
4, 173879, Note_on_c, 1, 47, 0
4, 173880, Note_on_c, 1, 51, 80
4, 173999, Note_on_c, 1, 51, 0
4, 174000, Note_on_c, 1, 47, 80
4, 174119, Note_on_c, 1, 47, 0
4, 174120, Note_on_c, 1, 51, 80
4, 174239, Note_on_c, 1, 51, 0
4, 174240, Note_on_c, 1, 47, 80
4, 174359, Note_on_c, 1, 47, 0
4, 174360, Note_on_c, 1, 51, 80
4, 174479, Note_on_c, 1, 51, 0
4, 174480, Note_on_c, 1, 47, 80
4, 174599, Note_on_c, 1, 47, 0
4, 174600, Note_on_c, 1, 51, 80
4, 174719, Note_on_c, 1, 51, 0
4, 174720, Note_on_c, 1, 43, 80
4, 174839, Note_on_c, 1, 43, 0
4, 174840, Note_on_c, 1, 51, 80
4, 174959, Note_on_c, 1, 51, 0
4, 174960, Note_on_c, 1, 43, 80
4, 175079, Note_on_c, 1, 43, 0
4, 175080, Note_on_c, 1, 51, 80
4, 175199, Note_on_c, 1, 51, 0
4, 175200, Note_on_c, 1, 43, 80
4, 175319, Note_on_c, 1, 43, 0
4, 175320, Note_on_c, 1, 51, 80
4, 175439, Note_on_c, 1, 51, 0
4, 175440, Note_on_c, 1, 43, 80
4, 175559, Note_on_c, 1, 43, 0
4, 175560, Note_on_c, 1, 51, 80
4, 175679, Note_on_c, 1, 51, 0
4, 175680, Note_on_c, 1, 43, 80
4, 175799, Note_on_c, 1, 43, 0
4, 175800, Note_on_c, 1, 51, 80
4, 175919, Note_on_c, 1, 51, 0
4, 175920, Note_on_c, 1, 43, 80
4, 176039, Note_on_c, 1, 43, 0
4, 176040, Note_on_c, 1, 51, 80
4, 176159, Note_on_c, 1, 51, 0
4, 176160, Note_on_c, 1, 43, 80
4, 176279, Note_on_c, 1, 43, 0
4, 176280, Note_on_c, 1, 51, 80
4, 176399, Note_on_c, 1, 51, 0
4, 176400, Note_on_c, 1, 43, 80
4, 176519, Note_on_c, 1, 43, 0
4, 176520, Note_on_c, 1, 51, 80
4, 176639, Note_on_c, 1, 51, 0
4, 176640, Note_on_c, 1, 42, 80
4, 176759, Note_on_c, 1, 42, 0
4, 176760, Note_on_c, 1, 51, 80
4, 176879, Note_on_c, 1, 51, 0
4, 176880, Note_on_c, 1, 44, 80
4, 176999, Note_on_c, 1, 44, 0
4, 177000, Note_on_c, 1, 51, 80
4, 177119, Note_on_c, 1, 51, 0
4, 177120, Note_on_c, 1, 42, 80
4, 177239, Note_on_c, 1, 42, 0
4, 177240, Note_on_c, 1, 51, 80
4, 177359, Note_on_c, 1, 51, 0
4, 177360, Note_on_c, 1, 44, 80
4, 177479, Note_on_c, 1, 44, 0
4, 177480, Note_on_c, 1, 51, 80
4, 177599, Note_on_c, 1, 51, 0
4, 177600, Note_on_c, 1, 40, 80
4, 177719, Note_on_c, 1, 40, 0
4, 177720, Note_on_c, 1, 49, 80
4, 177839, Note_on_c, 1, 49, 0
4, 177840, Note_on_c, 1, 44, 80
4, 177959, Note_on_c, 1, 44, 0
4, 177960, Note_on_c, 1, 49, 80
4, 178079, Note_on_c, 1, 49, 0
4, 178080, Note_on_c, 1, 40, 80
4, 178199, Note_on_c, 1, 40, 0
4, 178200, Note_on_c, 1, 49, 80
4, 178319, Note_on_c, 1, 49, 0
4, 178320, Note_on_c, 1, 44, 80
4, 178439, Note_on_c, 1, 44, 0
4, 178440, Note_on_c, 1, 49, 80
4, 178559, Note_on_c, 1, 49, 0
4, 178560, Note_on_c, 1, 40, 80
4, 178679, Note_on_c, 1, 40, 0
4, 178680, Note_on_c, 1, 49, 80
4, 178799, Note_on_c, 1, 49, 0
4, 178800, Note_on_c, 1, 42, 80
4, 178919, Note_on_c, 1, 42, 0
4, 178920, Note_on_c, 1, 49, 80
4, 179039, Note_on_c, 1, 49, 0
4, 179040, Note_on_c, 1, 39, 80
4, 179159, Note_on_c, 1, 39, 0
4, 179160, Note_on_c, 1, 47, 80
4, 179279, Note_on_c, 1, 47, 0
4, 179280, Note_on_c, 1, 42, 80
4, 179399, Note_on_c, 1, 42, 0
4, 179400, Note_on_c, 1, 47, 80
4, 179519, Note_on_c, 1, 47, 0
4, 179520, Note_on_c, 1, 39, 80
4, 179639, Note_on_c, 1, 39, 0
4, 179640, Note_on_c, 1, 47, 80
4, 179759, Note_on_c, 1, 47, 0
4, 179760, Note_on_c, 1, 42, 80
4, 179879, Note_on_c, 1, 42, 0
4, 179880, Note_on_c, 1, 47, 80
4, 179999, Note_on_c, 1, 47, 0
4, 180000, Note_on_c, 1, 39, 80
4, 180119, Note_on_c, 1, 39, 0
4, 180120, Note_on_c, 1, 47, 80
4, 180239, Note_on_c, 1, 47, 0
4, 180240, Note_on_c, 1, 42, 80
4, 180359, Note_on_c, 1, 42, 0
4, 180360, Note_on_c, 1, 47, 80
4, 180479, Note_on_c, 1, 47, 0
4, 180480, Note_on_c, 1, 38, 80
4, 180599, Note_on_c, 1, 38, 0
4, 180600, Note_on_c, 1, 47, 80
4, 180719, Note_on_c, 1, 47, 0
4, 180720, Note_on_c, 1, 40, 80
4, 180839, Note_on_c, 1, 40, 0
4, 180840, Note_on_c, 1, 47, 80
4, 180959, Note_on_c, 1, 47, 0
4, 180960, Note_on_c, 1, 38, 80
4, 181079, Note_on_c, 1, 38, 0
4, 181080, Note_on_c, 1, 47, 80
4, 181199, Note_on_c, 1, 47, 0
4, 181200, Note_on_c, 1, 40, 80
4, 181319, Note_on_c, 1, 40, 0
4, 181320, Note_on_c, 1, 47, 80
4, 181439, Note_on_c, 1, 47, 0
4, 181440, Note_on_c, 1, 37, 80
4, 181559, Note_on_c, 1, 37, 0
4, 181560, Note_on_c, 1, 45, 80
4, 181679, Note_on_c, 1, 45, 0
4, 181680, Note_on_c, 1, 40, 80
4, 181799, Note_on_c, 1, 40, 0
4, 181800, Note_on_c, 1, 45, 80
4, 181919, Note_on_c, 1, 45, 0
4, 181920, Note_on_c, 1, 37, 80
4, 182039, Note_on_c, 1, 37, 0
4, 182040, Note_on_c, 1, 45, 80
4, 182159, Note_on_c, 1, 45, 0
4, 182160, Note_on_c, 1, 40, 80
4, 182279, Note_on_c, 1, 40, 0
4, 182280, Note_on_c, 1, 45, 80
4, 182399, Note_on_c, 1, 45, 0
4, 182400, Note_on_c, 1, 37, 80
4, 182519, Note_on_c, 1, 37, 0
4, 182520, Note_on_c, 1, 46, 80
4, 182639, Note_on_c, 1, 46, 0
4, 182640, Note_on_c, 1, 39, 80
4, 182759, Note_on_c, 1, 39, 0
4, 182760, Note_on_c, 1, 46, 80
4, 182879, Note_on_c, 1, 46, 0
4, 182880, Note_on_c, 1, 35, 80
4, 182999, Note_on_c, 1, 35, 0
4, 183000, Note_on_c, 1, 44, 80
4, 183119, Note_on_c, 1, 44, 0
4, 183120, Note_on_c, 1, 39, 80
4, 183239, Note_on_c, 1, 39, 0
4, 183240, Note_on_c, 1, 44, 80
4, 183359, Note_on_c, 1, 44, 0
4, 183360, Note_on_c, 1, 35, 80
4, 183479, Note_on_c, 1, 35, 0
4, 183480, Note_on_c, 1, 44, 80
4, 183599, Note_on_c, 1, 44, 0
4, 183600, Note_on_c, 1, 39, 80
4, 183719, Note_on_c, 1, 39, 0
4, 183720, Note_on_c, 1, 44, 80
4, 183839, Note_on_c, 1, 44, 0
4, 183840, Note_on_c, 1, 35, 80
4, 183959, Note_on_c, 1, 35, 0
4, 183960, Note_on_c, 1, 44, 80
4, 184079, Note_on_c, 1, 44, 0
4, 184080, Note_on_c, 1, 39, 80
4, 184199, Note_on_c, 1, 39, 0
4, 184200, Note_on_c, 1, 44, 80
4, 184319, Note_on_c, 1, 44, 0
4, 184320, Note_on_c, 1, 49, 80
4, 184320, Note_on_c, 1, 45, 80
4, 184320, Note_on_c, 1, 40, 80
4, 184320, Note_on_c, 1, 37, 80
4, 185759, Note_on_c, 1, 49, 0
4, 185759, Note_on_c, 1, 45, 0
4, 185759, Note_on_c, 1, 40, 0
4, 185759, Note_on_c, 1, 37, 0
4, 192480, Note_on_c, 1, 49, 80
4, 192480, Note_on_c, 1, 45, 80
4, 192480, Note_on_c, 1, 40, 80
4, 192480, Note_on_c, 1, 37, 80
4, 193439, Note_on_c, 1, 49, 0
4, 193439, Note_on_c, 1, 45, 0
4, 193439, Note_on_c, 1, 40, 0
4, 193439, Note_on_c, 1, 37, 0
4, 194400, Note_on_c, 1, 57, 80
4, 194400, Note_on_c, 1, 52, 80
4, 194400, Note_on_c, 1, 49, 80
4, 194639, Note_on_c, 1, 57, 0
4, 194639, Note_on_c, 1, 52, 0
4, 194639, Note_on_c, 1, 49, 0
4, 195360, Note_on_c, 1, 57, 80
4, 195360, Note_on_c, 1, 52, 80
4, 195360, Note_on_c, 1, 49, 80
4, 195599, Note_on_c, 1, 57, 0
4, 195599, Note_on_c, 1, 52, 0
4, 195599, Note_on_c, 1, 49, 0
4, 196080, Note_on_c, 1, 57, 80
4, 196080, Note_on_c, 1, 52, 80
4, 196080, Note_on_c, 1, 49, 80
4, 196199, Note_on_c, 1, 57, 0
4, 196199, Note_on_c, 1, 52, 0
4, 196199, Note_on_c, 1, 49, 0
4, 196560, Note_on_c, 1, 57, 80
4, 196560, Note_on_c, 1, 52, 80
4, 196560, Note_on_c, 1, 49, 80
4, 196679, Note_on_c, 1, 57, 0
4, 196679, Note_on_c, 1, 52, 0
4, 196679, Note_on_c, 1, 49, 0
4, 197040, Note_on_c, 1, 57, 80
4, 197040, Note_on_c, 1, 52, 80
4, 197040, Note_on_c, 1, 49, 80
4, 197159, Note_on_c, 1, 57, 0
4, 197159, Note_on_c, 1, 52, 0
4, 197159, Note_on_c, 1, 49, 0
4, 197520, Note_on_c, 1, 57, 80
4, 197520, Note_on_c, 1, 52, 80
4, 197520, Note_on_c, 1, 49, 80
4, 197639, Note_on_c, 1, 57, 0
4, 197639, Note_on_c, 1, 52, 0
4, 197639, Note_on_c, 1, 49, 0
4, 197760, Note_on_c, 1, 57, 80
4, 197760, Note_on_c, 1, 52, 80
4, 197760, Note_on_c, 1, 49, 80
4, 198239, Note_on_c, 1, 57, 0
4, 198239, Note_on_c, 1, 52, 0
4, 198239, Note_on_c, 1, 49, 0
4, 199680, Note_on_c, 1, 49, 80
4, 199799, Note_on_c, 1, 49, 0
4, 199800, Note_on_c, 1, 57, 80
4, 199919, Note_on_c, 1, 57, 0
4, 199920, Note_on_c, 1, 52, 80
4, 200039, Note_on_c, 1, 52, 0
4, 200040, Note_on_c, 1, 57, 80
4, 200159, Note_on_c, 1, 57, 0
4, 200160, Note_on_c, 1, 49, 80
4, 200279, Note_on_c, 1, 49, 0
4, 200280, Note_on_c, 1, 57, 80
4, 200399, Note_on_c, 1, 57, 0
4, 200400, Note_on_c, 1, 52, 80
4, 200519, Note_on_c, 1, 52, 0
4, 200520, Note_on_c, 1, 57, 80
4, 200639, Note_on_c, 1, 57, 0
4, 200640, Note_on_c, 1, 50, 80
4, 200759, Note_on_c, 1, 50, 0
4, 200760, Note_on_c, 1, 59, 80
4, 200879, Note_on_c, 1, 59, 0
4, 200880, Note_on_c, 1, 53, 80
4, 200999, Note_on_c, 1, 53, 0
4, 201000, Note_on_c, 1, 59, 80
4, 201119, Note_on_c, 1, 59, 0
4, 201120, Note_on_c, 1, 50, 80
4, 201239, Note_on_c, 1, 50, 0
4, 201240, Note_on_c, 1, 59, 80
4, 201359, Note_on_c, 1, 59, 0
4, 201360, Note_on_c, 1, 53, 80
4, 201479, Note_on_c, 1, 53, 0
4, 201480, Note_on_c, 1, 59, 80
4, 201599, Note_on_c, 1, 59, 0
4, 201600, Note_on_c, 1, 51, 80
4, 201719, Note_on_c, 1, 51, 0
4, 201720, Note_on_c, 1, 59, 80
4, 201839, Note_on_c, 1, 59, 0
4, 201840, Note_on_c, 1, 56, 80
4, 201959, Note_on_c, 1, 56, 0
4, 201960, Note_on_c, 1, 59, 80
4, 202079, Note_on_c, 1, 59, 0
4, 202080, Note_on_c, 1, 51, 80
4, 202199, Note_on_c, 1, 51, 0
4, 202200, Note_on_c, 1, 59, 80
4, 202319, Note_on_c, 1, 59, 0
4, 202320, Note_on_c, 1, 56, 80
4, 202439, Note_on_c, 1, 56, 0
4, 202440, Note_on_c, 1, 59, 80
4, 202559, Note_on_c, 1, 59, 0
4, 202560, Note_on_c, 1, 39, 80
4, 202679, Note_on_c, 1, 39, 0
4, 202680, Note_on_c, 1, 51, 80
4, 202799, Note_on_c, 1, 51, 0
4, 202800, Note_on_c, 1, 50, 80
4, 202919, Note_on_c, 1, 50, 0
4, 202920, Note_on_c, 1, 51, 80
4, 203039, Note_on_c, 1, 51, 0
4, 203040, Note_on_c, 1, 50, 80
4, 203159, Note_on_c, 1, 50, 0
4, 203160, Note_on_c, 1, 51, 80
4, 203279, Note_on_c, 1, 51, 0
4, 203280, Note_on_c, 1, 50, 80
4, 203399, Note_on_c, 1, 50, 0
4, 203400, Note_on_c, 1, 51, 80
4, 203519, Note_on_c, 1, 51, 0
4, 203520, Note_on_c, 1, 44, 80
4, 203759, Note_on_c, 1, 44, 0
4, 203760, Note_on_c, 1, 56, 80
4, 203879, Note_on_c, 1, 56, 0
4, 204000, Note_on_c, 1, 56, 80
4, 204119, Note_on_c, 1, 56, 0
4, 204240, Note_on_c, 1, 56, 80
4, 204359, Note_on_c, 1, 56, 0
4, 204480, Note_on_c, 1, 56, 80
4, 204599, Note_on_c, 1, 56, 0
4, 204720, Note_on_c, 1, 56, 80
4, 204839, Note_on_c, 1, 56, 0
4, 204960, Note_on_c, 1, 58, 80
4, 205079, Note_on_c, 1, 58, 0
4, 205200, Note_on_c, 1, 59, 80
4, 205319, Note_on_c, 1, 59, 0
4, 205440, Note_on_c, 1, 61, 80
4, 205440, Note_on_c, 1, 51, 80
4, 205679, Note_on_c, 1, 61, 0
4, 205679, Note_on_c, 1, 51, 0
4, 205680, Note_on_c, 1, 63, 80
4, 205680, Note_on_c, 1, 61, 80
4, 205919, Note_on_c, 1, 63, 0
4, 205919, Note_on_c, 1, 61, 0
4, 205920, Note_on_c, 1, 63, 80
4, 205920, Note_on_c, 1, 61, 80
4, 206159, Note_on_c, 1, 63, 0
4, 206159, Note_on_c, 1, 61, 0
4, 206160, Note_on_c, 1, 63, 80
4, 206160, Note_on_c, 1, 61, 80
4, 206399, Note_on_c, 1, 63, 0
4, 206399, Note_on_c, 1, 61, 0
4, 206400, Note_on_c, 1, 63, 80
4, 206400, Note_on_c, 1, 61, 80
4, 206639, Note_on_c, 1, 63, 0
4, 206639, Note_on_c, 1, 61, 0
4, 206640, Note_on_c, 1, 63, 80
4, 206640, Note_on_c, 1, 61, 80
4, 206879, Note_on_c, 1, 63, 0
4, 206879, Note_on_c, 1, 61, 0
4, 206880, Note_on_c, 1, 63, 80
4, 206880, Note_on_c, 1, 59, 80
4, 207119, Note_on_c, 1, 63, 0
4, 207119, Note_on_c, 1, 59, 0
4, 207120, Note_on_c, 1, 63, 80
4, 207120, Note_on_c, 1, 58, 80
4, 207359, Note_on_c, 1, 63, 0
4, 207359, Note_on_c, 1, 58, 0
4, 207360, Note_on_c, 1, 56, 80
4, 207360, Note_on_c, 1, 44, 80
4, 207599, Note_on_c, 1, 56, 0
4, 207599, Note_on_c, 1, 44, 0
4, 207600, Note_on_c, 1, 56, 80
4, 207839, Note_on_c, 1, 56, 0
4, 207840, Note_on_c, 1, 56, 80
4, 208079, Note_on_c, 1, 56, 0
4, 208080, Note_on_c, 1, 56, 80
4, 208319, Note_on_c, 1, 56, 0
4, 208320, Note_on_c, 1, 56, 80
4, 208559, Note_on_c, 1, 56, 0
4, 208560, Note_on_c, 1, 56, 80
4, 208799, Note_on_c, 1, 56, 0
4, 208800, Note_on_c, 1, 58, 80
4, 209039, Note_on_c, 1, 58, 0
4, 209040, Note_on_c, 1, 59, 80
4, 209279, Note_on_c, 1, 59, 0
4, 209280, Note_on_c, 1, 61, 80
4, 209280, Note_on_c, 1, 51, 80
4, 209519, Note_on_c, 1, 61, 0
4, 209519, Note_on_c, 1, 51, 0
4, 209520, Note_on_c, 1, 63, 80
4, 209520, Note_on_c, 1, 61, 80
4, 209759, Note_on_c, 1, 63, 0
4, 209759, Note_on_c, 1, 61, 0
4, 209760, Note_on_c, 1, 63, 80
4, 209760, Note_on_c, 1, 61, 80
4, 209999, Note_on_c, 1, 63, 0
4, 209999, Note_on_c, 1, 61, 0
4, 210000, Note_on_c, 1, 63, 80
4, 210000, Note_on_c, 1, 61, 80
4, 210239, Note_on_c, 1, 63, 0
4, 210239, Note_on_c, 1, 61, 0
4, 210240, Note_on_c, 1, 63, 80
4, 210240, Note_on_c, 1, 61, 80
4, 210479, Note_on_c, 1, 63, 0
4, 210479, Note_on_c, 1, 61, 0
4, 210480, Note_on_c, 1, 63, 80
4, 210480, Note_on_c, 1, 61, 80
4, 210719, Note_on_c, 1, 63, 0
4, 210719, Note_on_c, 1, 61, 0
4, 210720, Note_on_c, 1, 63, 80
4, 210720, Note_on_c, 1, 59, 80
4, 210959, Note_on_c, 1, 63, 0
4, 210959, Note_on_c, 1, 59, 0
4, 210960, Note_on_c, 1, 63, 80
4, 210960, Note_on_c, 1, 58, 80
4, 211199, Note_on_c, 1, 63, 0
4, 211199, Note_on_c, 1, 58, 0
4, 211200, Note_on_c, 1, 44, 80
4, 211319, Note_on_c, 1, 44, 0
4, 211440, Note_on_c, 1, 59, 80
4, 211440, Note_on_c, 1, 56, 80
4, 211559, Note_on_c, 1, 59, 0
4, 211559, Note_on_c, 1, 56, 0
4, 211680, Note_on_c, 1, 59, 80
4, 211680, Note_on_c, 1, 56, 80
4, 211919, Note_on_c, 1, 59, 0
4, 211919, Note_on_c, 1, 56, 0
4, 211920, Note_on_c, 1, 63, 80
4, 211920, Note_on_c, 1, 59, 80
4, 212159, Note_on_c, 1, 63, 0
4, 212159, Note_on_c, 1, 59, 0
4, 212160, Note_on_c, 1, 49, 80
4, 212279, Note_on_c, 1, 49, 0
4, 212400, Note_on_c, 1, 61, 80
4, 212400, Note_on_c, 1, 56, 80
4, 212519, Note_on_c, 1, 61, 0
4, 212519, Note_on_c, 1, 56, 0
4, 212640, Note_on_c, 1, 61, 80
4, 212640, Note_on_c, 1, 56, 80
4, 212879, Note_on_c, 1, 61, 0
4, 212879, Note_on_c, 1, 56, 0
4, 212880, Note_on_c, 1, 64, 80
4, 212880, Note_on_c, 1, 61, 80
4, 213119, Note_on_c, 1, 64, 0
4, 213119, Note_on_c, 1, 61, 0
4, 213120, Note_on_c, 1, 51, 80
4, 213239, Note_on_c, 1, 51, 0
4, 213360, Note_on_c, 1, 59, 80
4, 213360, Note_on_c, 1, 56, 80
4, 213479, Note_on_c, 1, 59, 0
4, 213479, Note_on_c, 1, 56, 0
4, 213600, Note_on_c, 1, 59, 80
4, 213600, Note_on_c, 1, 56, 80
4, 213839, Note_on_c, 1, 59, 0
4, 213839, Note_on_c, 1, 56, 0
4, 213840, Note_on_c, 1, 63, 80
4, 213840, Note_on_c, 1, 59, 80
4, 214079, Note_on_c, 1, 63, 0
4, 214079, Note_on_c, 1, 59, 0
4, 214080, Note_on_c, 1, 51, 80
4, 214199, Note_on_c, 1, 51, 0
4, 214320, Note_on_c, 1, 58, 80
4, 214320, Note_on_c, 1, 55, 80
4, 214439, Note_on_c, 1, 58, 0
4, 214439, Note_on_c, 1, 55, 0
4, 214560, Note_on_c, 1, 58, 80
4, 214560, Note_on_c, 1, 55, 80
4, 214799, Note_on_c, 1, 58, 0
4, 214799, Note_on_c, 1, 55, 0
4, 214800, Note_on_c, 1, 63, 80
4, 214800, Note_on_c, 1, 57, 80
4, 215039, Note_on_c, 1, 63, 0
4, 215039, Note_on_c, 1, 57, 0
4, 215040, Note_on_c, 1, 44, 80
4, 215040, Note_on_c, 1, 32, 80
4, 215279, Note_on_c, 1, 44, 0
4, 215279, Note_on_c, 1, 32, 0
4, 215280, Note_on_c, 1, 51, 80
4, 215280, Note_on_c, 1, 44, 80
4, 215519, Note_on_c, 1, 51, 0
4, 215519, Note_on_c, 1, 44, 0
4, 215520, Note_on_c, 1, 51, 80
4, 215520, Note_on_c, 1, 44, 80
4, 215759, Note_on_c, 1, 51, 0
4, 215759, Note_on_c, 1, 44, 0
4, 215760, Note_on_c, 1, 51, 80
4, 215760, Note_on_c, 1, 44, 80
4, 215999, Note_on_c, 1, 51, 0
4, 215999, Note_on_c, 1, 44, 0
4, 216000, Note_on_c, 1, 51, 80
4, 216000, Note_on_c, 1, 44, 80
4, 216239, Note_on_c, 1, 51, 0
4, 216239, Note_on_c, 1, 44, 0
4, 216240, Note_on_c, 1, 51, 80
4, 216240, Note_on_c, 1, 44, 80
4, 216479, Note_on_c, 1, 51, 0
4, 216479, Note_on_c, 1, 44, 0
4, 216480, Note_on_c, 1, 51, 80
4, 216480, Note_on_c, 1, 46, 80
4, 216719, Note_on_c, 1, 51, 0
4, 216719, Note_on_c, 1, 46, 0
4, 216720, Note_on_c, 1, 51, 80
4, 216720, Note_on_c, 1, 47, 80
4, 216959, Note_on_c, 1, 51, 0
4, 216959, Note_on_c, 1, 47, 0
4, 216960, Note_on_c, 1, 51, 80
4, 216960, Note_on_c, 1, 49, 80
4, 216960, Note_on_c, 1, 39, 80
4, 217199, Note_on_c, 1, 51, 0
4, 217199, Note_on_c, 1, 49, 0
4, 217199, Note_on_c, 1, 39, 0
4, 217200, Note_on_c, 1, 61, 80
4, 217200, Note_on_c, 1, 51, 80
4, 217439, Note_on_c, 1, 61, 0
4, 217439, Note_on_c, 1, 51, 0
4, 217440, Note_on_c, 1, 61, 80
4, 217440, Note_on_c, 1, 51, 80
4, 217679, Note_on_c, 1, 61, 0
4, 217679, Note_on_c, 1, 51, 0
4, 217680, Note_on_c, 1, 61, 80
4, 217680, Note_on_c, 1, 51, 80
4, 217919, Note_on_c, 1, 61, 0
4, 217919, Note_on_c, 1, 51, 0
4, 217920, Note_on_c, 1, 61, 80
4, 217920, Note_on_c, 1, 51, 80
4, 218159, Note_on_c, 1, 61, 0
4, 218159, Note_on_c, 1, 51, 0
4, 218160, Note_on_c, 1, 61, 80
4, 218160, Note_on_c, 1, 51, 80
4, 218399, Note_on_c, 1, 61, 0
4, 218399, Note_on_c, 1, 51, 0
4, 218400, Note_on_c, 1, 59, 80
4, 218400, Note_on_c, 1, 51, 80
4, 218639, Note_on_c, 1, 59, 0
4, 218639, Note_on_c, 1, 51, 0
4, 218640, Note_on_c, 1, 58, 80
4, 218640, Note_on_c, 1, 51, 80
4, 218879, Note_on_c, 1, 58, 0
4, 218879, Note_on_c, 1, 51, 0
4, 218880, Note_on_c, 1, 44, 80
4, 218880, Note_on_c, 1, 32, 80
4, 219119, Note_on_c, 1, 44, 0
4, 219119, Note_on_c, 1, 32, 0
4, 219120, Note_on_c, 1, 51, 80
4, 219120, Note_on_c, 1, 44, 80
4, 219359, Note_on_c, 1, 51, 0
4, 219359, Note_on_c, 1, 44, 0
4, 219360, Note_on_c, 1, 51, 80
4, 219360, Note_on_c, 1, 44, 80
4, 219599, Note_on_c, 1, 51, 0
4, 219599, Note_on_c, 1, 44, 0
4, 219600, Note_on_c, 1, 51, 80
4, 219600, Note_on_c, 1, 44, 80
4, 219839, Note_on_c, 1, 51, 0
4, 219839, Note_on_c, 1, 44, 0
4, 219840, Note_on_c, 1, 51, 80
4, 219840, Note_on_c, 1, 44, 80
4, 220079, Note_on_c, 1, 51, 0
4, 220079, Note_on_c, 1, 44, 0
4, 220080, Note_on_c, 1, 51, 80
4, 220080, Note_on_c, 1, 44, 80
4, 220319, Note_on_c, 1, 51, 0
4, 220319, Note_on_c, 1, 44, 0
4, 220320, Note_on_c, 1, 51, 80
4, 220320, Note_on_c, 1, 46, 80
4, 220559, Note_on_c, 1, 51, 0
4, 220559, Note_on_c, 1, 46, 0
4, 220560, Note_on_c, 1, 51, 80
4, 220560, Note_on_c, 1, 47, 80
4, 220799, Note_on_c, 1, 51, 0
4, 220799, Note_on_c, 1, 47, 0
4, 220800, Note_on_c, 1, 51, 80
4, 220800, Note_on_c, 1, 49, 80
4, 220800, Note_on_c, 1, 39, 80
4, 221039, Note_on_c, 1, 51, 0
4, 221039, Note_on_c, 1, 49, 0
4, 221039, Note_on_c, 1, 39, 0
4, 221040, Note_on_c, 1, 61, 80
4, 221040, Note_on_c, 1, 51, 80
4, 221279, Note_on_c, 1, 61, 0
4, 221279, Note_on_c, 1, 51, 0
4, 221280, Note_on_c, 1, 61, 80
4, 221280, Note_on_c, 1, 51, 80
4, 221519, Note_on_c, 1, 61, 0
4, 221519, Note_on_c, 1, 51, 0
4, 221520, Note_on_c, 1, 61, 80
4, 221520, Note_on_c, 1, 51, 80
4, 221759, Note_on_c, 1, 61, 0
4, 221759, Note_on_c, 1, 51, 0
4, 221760, Note_on_c, 1, 61, 80
4, 221760, Note_on_c, 1, 51, 80
4, 221999, Note_on_c, 1, 61, 0
4, 221999, Note_on_c, 1, 51, 0
4, 222000, Note_on_c, 1, 61, 80
4, 222000, Note_on_c, 1, 51, 80
4, 222239, Note_on_c, 1, 61, 0
4, 222239, Note_on_c, 1, 51, 0
4, 222240, Note_on_c, 1, 59, 80
4, 222240, Note_on_c, 1, 51, 80
4, 222479, Note_on_c, 1, 59, 0
4, 222479, Note_on_c, 1, 51, 0
4, 222480, Note_on_c, 1, 58, 80
4, 222480, Note_on_c, 1, 51, 80
4, 222719, Note_on_c, 1, 58, 0
4, 222719, Note_on_c, 1, 51, 0
4, 222720, Note_on_c, 1, 56, 80
4, 222720, Note_on_c, 1, 44, 80
4, 222959, Note_on_c, 1, 56, 0
4, 222959, Note_on_c, 1, 44, 0
4, 222960, Note_on_c, 1, 63, 80
4, 222960, Note_on_c, 1, 59, 80
4, 223199, Note_on_c, 1, 63, 0
4, 223199, Note_on_c, 1, 59, 0
4, 223200, Note_on_c, 1, 63, 80
4, 223200, Note_on_c, 1, 59, 80
4, 223439, Note_on_c, 1, 63, 0
4, 223439, Note_on_c, 1, 59, 0
4, 223440, Note_on_c, 1, 59, 80
4, 223440, Note_on_c, 1, 56, 80
4, 223679, Note_on_c, 1, 59, 0
4, 223679, Note_on_c, 1, 56, 0
4, 223680, Note_on_c, 1, 49, 80
4, 223919, Note_on_c, 1, 49, 0
4, 223920, Note_on_c, 1, 64, 80
4, 223920, Note_on_c, 1, 61, 80
4, 224159, Note_on_c, 1, 64, 0
4, 224159, Note_on_c, 1, 61, 0
4, 224160, Note_on_c, 1, 64, 80
4, 224160, Note_on_c, 1, 61, 80
4, 224399, Note_on_c, 1, 64, 0
4, 224399, Note_on_c, 1, 61, 0
4, 224400, Note_on_c, 1, 61, 80
4, 224400, Note_on_c, 1, 56, 80
4, 224639, Note_on_c, 1, 61, 0
4, 224639, Note_on_c, 1, 56, 0
4, 224640, Note_on_c, 1, 51, 80
4, 224879, Note_on_c, 1, 51, 0
4, 224880, Note_on_c, 1, 63, 80
4, 224880, Note_on_c, 1, 59, 80
4, 224999, Note_on_c, 1, 63, 0
4, 224999, Note_on_c, 1, 59, 0
4, 225120, Note_on_c, 1, 63, 80
4, 225120, Note_on_c, 1, 59, 80
4, 225359, Note_on_c, 1, 63, 0
4, 225359, Note_on_c, 1, 59, 0
4, 225360, Note_on_c, 1, 59, 80
4, 225360, Note_on_c, 1, 56, 80
4, 225599, Note_on_c, 1, 59, 0
4, 225599, Note_on_c, 1, 56, 0
4, 225600, Note_on_c, 1, 49, 80
4, 225719, Note_on_c, 1, 49, 0
4, 225840, Note_on_c, 1, 63, 80
4, 225840, Note_on_c, 1, 58, 80
4, 225959, Note_on_c, 1, 63, 0
4, 225959, Note_on_c, 1, 58, 0
4, 226080, Note_on_c, 1, 63, 80
4, 226080, Note_on_c, 1, 58, 80
4, 226319, Note_on_c, 1, 63, 0
4, 226319, Note_on_c, 1, 58, 0
4, 226320, Note_on_c, 1, 58, 80
4, 226320, Note_on_c, 1, 55, 80
4, 226559, Note_on_c, 1, 58, 0
4, 226559, Note_on_c, 1, 55, 0
4, 226560, Note_on_c, 1, 47, 80
4, 226799, Note_on_c, 1, 47, 0
4, 227520, Note_on_c, 1, 49, 80
4, 227639, Note_on_c, 1, 49, 0
4, 228480, Note_on_c, 1, 51, 80
4, 228599, Note_on_c, 1, 51, 0
4, 229440, Note_on_c, 1, 51, 80
4, 229559, Note_on_c, 1, 51, 0
4, 230400, Note_on_c, 1, 44, 80
4, 230519, Note_on_c, 1, 44, 0
4, 230520, Note_on_c, 1, 56, 80
4, 230639, Note_on_c, 1, 56, 0
4, 230640, Note_on_c, 1, 51, 80
4, 230759, Note_on_c, 1, 51, 0
4, 230760, Note_on_c, 1, 56, 80
4, 230879, Note_on_c, 1, 56, 0
4, 230880, Note_on_c, 1, 44, 80
4, 230999, Note_on_c, 1, 44, 0
4, 231000, Note_on_c, 1, 56, 80
4, 231119, Note_on_c, 1, 56, 0
4, 231120, Note_on_c, 1, 51, 80
4, 231239, Note_on_c, 1, 51, 0
4, 231240, Note_on_c, 1, 56, 80
4, 231359, Note_on_c, 1, 56, 0
4, 231360, Note_on_c, 1, 44, 80
4, 231479, Note_on_c, 1, 44, 0
4, 231480, Note_on_c, 1, 56, 80
4, 231599, Note_on_c, 1, 56, 0
4, 231600, Note_on_c, 1, 51, 80
4, 231719, Note_on_c, 1, 51, 0
4, 231720, Note_on_c, 1, 56, 80
4, 231839, Note_on_c, 1, 56, 0
4, 231840, Note_on_c, 1, 44, 80
4, 231959, Note_on_c, 1, 44, 0
4, 231960, Note_on_c, 1, 56, 80
4, 232079, Note_on_c, 1, 56, 0
4, 232080, Note_on_c, 1, 51, 80
4, 232199, Note_on_c, 1, 51, 0
4, 232200, Note_on_c, 1, 56, 80
4, 232319, Note_on_c, 1, 56, 0
4, 232320, Note_on_c, 1, 44, 80
4, 232439, Note_on_c, 1, 44, 0
4, 232440, Note_on_c, 1, 58, 80
4, 232559, Note_on_c, 1, 58, 0
4, 232560, Note_on_c, 1, 51, 80
4, 232679, Note_on_c, 1, 51, 0
4, 232680, Note_on_c, 1, 58, 80
4, 232799, Note_on_c, 1, 58, 0
4, 232800, Note_on_c, 1, 44, 80
4, 232919, Note_on_c, 1, 44, 0
4, 232920, Note_on_c, 1, 58, 80
4, 233039, Note_on_c, 1, 58, 0
4, 233040, Note_on_c, 1, 51, 80
4, 233159, Note_on_c, 1, 51, 0
4, 233160, Note_on_c, 1, 58, 80
4, 233279, Note_on_c, 1, 58, 0
4, 233280, Note_on_c, 1, 44, 80
4, 233399, Note_on_c, 1, 44, 0
4, 233400, Note_on_c, 1, 58, 80
4, 233519, Note_on_c, 1, 58, 0
4, 233520, Note_on_c, 1, 51, 80
4, 233639, Note_on_c, 1, 51, 0
4, 233640, Note_on_c, 1, 58, 80
4, 233759, Note_on_c, 1, 58, 0
4, 233760, Note_on_c, 1, 44, 80
4, 233879, Note_on_c, 1, 44, 0
4, 233880, Note_on_c, 1, 58, 80
4, 233999, Note_on_c, 1, 58, 0
4, 234000, Note_on_c, 1, 51, 80
4, 234119, Note_on_c, 1, 51, 0
4, 234120, Note_on_c, 1, 58, 80
4, 234239, Note_on_c, 1, 58, 0
4, 234240, Note_on_c, 1, 44, 80
4, 234359, Note_on_c, 1, 44, 0
4, 234360, Note_on_c, 1, 56, 80
4, 234479, Note_on_c, 1, 56, 0
4, 234480, Note_on_c, 1, 51, 80
4, 234599, Note_on_c, 1, 51, 0
4, 234600, Note_on_c, 1, 56, 80
4, 234719, Note_on_c, 1, 56, 0
4, 234720, Note_on_c, 1, 44, 80
4, 234839, Note_on_c, 1, 44, 0
4, 234840, Note_on_c, 1, 56, 80
4, 234959, Note_on_c, 1, 56, 0
4, 234960, Note_on_c, 1, 51, 80
4, 235079, Note_on_c, 1, 51, 0
4, 235080, Note_on_c, 1, 56, 80
4, 235199, Note_on_c, 1, 56, 0
4, 235200, Note_on_c, 1, 44, 80
4, 235319, Note_on_c, 1, 44, 0
4, 235320, Note_on_c, 1, 56, 80
4, 235439, Note_on_c, 1, 56, 0
4, 235440, Note_on_c, 1, 51, 80
4, 235559, Note_on_c, 1, 51, 0
4, 235560, Note_on_c, 1, 56, 80
4, 235679, Note_on_c, 1, 56, 0
4, 235680, Note_on_c, 1, 44, 80
4, 235799, Note_on_c, 1, 44, 0
4, 235800, Note_on_c, 1, 56, 80
4, 235919, Note_on_c, 1, 56, 0
4, 235920, Note_on_c, 1, 51, 80
4, 236039, Note_on_c, 1, 51, 0
4, 236040, Note_on_c, 1, 56, 80
4, 236159, Note_on_c, 1, 56, 0
4, 236160, Note_on_c, 1, 44, 80
4, 236279, Note_on_c, 1, 44, 0
4, 236280, Note_on_c, 1, 58, 80
4, 236399, Note_on_c, 1, 58, 0
4, 236400, Note_on_c, 1, 51, 80
4, 236519, Note_on_c, 1, 51, 0
4, 236520, Note_on_c, 1, 58, 80
4, 236639, Note_on_c, 1, 58, 0
4, 236640, Note_on_c, 1, 44, 80
4, 236759, Note_on_c, 1, 44, 0
4, 236760, Note_on_c, 1, 58, 80
4, 236879, Note_on_c, 1, 58, 0
4, 236880, Note_on_c, 1, 51, 80
4, 236999, Note_on_c, 1, 51, 0
4, 237000, Note_on_c, 1, 58, 80
4, 237119, Note_on_c, 1, 58, 0
4, 237120, Note_on_c, 1, 44, 80
4, 237239, Note_on_c, 1, 44, 0
4, 237240, Note_on_c, 1, 58, 80
4, 237359, Note_on_c, 1, 58, 0
4, 237360, Note_on_c, 1, 51, 80
4, 237479, Note_on_c, 1, 51, 0
4, 237480, Note_on_c, 1, 58, 80
4, 237599, Note_on_c, 1, 58, 0
4, 237600, Note_on_c, 1, 44, 80
4, 237719, Note_on_c, 1, 44, 0
4, 237720, Note_on_c, 1, 58, 80
4, 237839, Note_on_c, 1, 58, 0
4, 237840, Note_on_c, 1, 51, 80
4, 237959, Note_on_c, 1, 51, 0
4, 237960, Note_on_c, 1, 58, 80
4, 238079, Note_on_c, 1, 58, 0
4, 238080, Note_on_c, 1, 44, 80
4, 238199, Note_on_c, 1, 44, 0
4, 238200, Note_on_c, 1, 56, 80
4, 238319, Note_on_c, 1, 56, 0
4, 238320, Note_on_c, 1, 51, 80
4, 238439, Note_on_c, 1, 51, 0
4, 238440, Note_on_c, 1, 56, 80
4, 238559, Note_on_c, 1, 56, 0
4, 238560, Note_on_c, 1, 44, 80
4, 238679, Note_on_c, 1, 44, 0
4, 238680, Note_on_c, 1, 56, 80
4, 238799, Note_on_c, 1, 56, 0
4, 238800, Note_on_c, 1, 51, 80
4, 238919, Note_on_c, 1, 51, 0
4, 238920, Note_on_c, 1, 56, 80
4, 239039, Note_on_c, 1, 56, 0
4, 239040, Note_on_c, 1, 44, 80
4, 239159, Note_on_c, 1, 44, 0
4, 239160, Note_on_c, 1, 58, 80
4, 239279, Note_on_c, 1, 58, 0
4, 239280, Note_on_c, 1, 51, 80
4, 239399, Note_on_c, 1, 51, 0
4, 239400, Note_on_c, 1, 58, 80
4, 239519, Note_on_c, 1, 58, 0
4, 239520, Note_on_c, 1, 44, 80
4, 239639, Note_on_c, 1, 44, 0
4, 239640, Note_on_c, 1, 58, 80
4, 239759, Note_on_c, 1, 58, 0
4, 239760, Note_on_c, 1, 51, 80
4, 239879, Note_on_c, 1, 51, 0
4, 239880, Note_on_c, 1, 58, 80
4, 239999, Note_on_c, 1, 58, 0
4, 240000, Note_on_c, 1, 44, 80
4, 240119, Note_on_c, 1, 44, 0
4, 240120, Note_on_c, 1, 56, 80
4, 240239, Note_on_c, 1, 56, 0
4, 240240, Note_on_c, 1, 51, 80
4, 240359, Note_on_c, 1, 51, 0
4, 240360, Note_on_c, 1, 56, 80
4, 240479, Note_on_c, 1, 56, 0
4, 240480, Note_on_c, 1, 44, 80
4, 240599, Note_on_c, 1, 44, 0
4, 240600, Note_on_c, 1, 56, 80
4, 240719, Note_on_c, 1, 56, 0
4, 240720, Note_on_c, 1, 51, 80
4, 240839, Note_on_c, 1, 51, 0
4, 240840, Note_on_c, 1, 56, 80
4, 240959, Note_on_c, 1, 56, 0
4, 240960, Note_on_c, 1, 44, 80
4, 241079, Note_on_c, 1, 44, 0
4, 241080, Note_on_c, 1, 58, 80
4, 241199, Note_on_c, 1, 58, 0
4, 241200, Note_on_c, 1, 51, 80
4, 241319, Note_on_c, 1, 51, 0
4, 241320, Note_on_c, 1, 58, 80
4, 241439, Note_on_c, 1, 58, 0
4, 241440, Note_on_c, 1, 44, 80
4, 241559, Note_on_c, 1, 44, 0
4, 241560, Note_on_c, 1, 58, 80
4, 241679, Note_on_c, 1, 58, 0
4, 241680, Note_on_c, 1, 51, 80
4, 241799, Note_on_c, 1, 51, 0
4, 241800, Note_on_c, 1, 58, 80
4, 241919, Note_on_c, 1, 58, 0
4, 241920, Note_on_c, 1, 44, 80
4, 242039, Note_on_c, 1, 44, 0
4, 242040, Note_on_c, 1, 56, 80
4, 242159, Note_on_c, 1, 56, 0
4, 242160, Note_on_c, 1, 51, 80
4, 242279, Note_on_c, 1, 51, 0
4, 242280, Note_on_c, 1, 56, 80
4, 242399, Note_on_c, 1, 56, 0
4, 242400, Note_on_c, 1, 44, 80
4, 242519, Note_on_c, 1, 44, 0
4, 242520, Note_on_c, 1, 56, 80
4, 242639, Note_on_c, 1, 56, 0
4, 242640, Note_on_c, 1, 51, 80
4, 242759, Note_on_c, 1, 51, 0
4, 242760, Note_on_c, 1, 56, 80
4, 242879, Note_on_c, 1, 56, 0
4, 242880, Note_on_c, 1, 44, 80
4, 242999, Note_on_c, 1, 44, 0
4, 243000, Note_on_c, 1, 56, 80
4, 243119, Note_on_c, 1, 56, 0
4, 243120, Note_on_c, 1, 51, 80
4, 243239, Note_on_c, 1, 51, 0
4, 243240, Note_on_c, 1, 56, 80
4, 243359, Note_on_c, 1, 56, 0
4, 243360, Note_on_c, 1, 44, 80
4, 243479, Note_on_c, 1, 44, 0
4, 243480, Note_on_c, 1, 56, 80
4, 243599, Note_on_c, 1, 56, 0
4, 243600, Note_on_c, 1, 51, 80
4, 243719, Note_on_c, 1, 51, 0
4, 243720, Note_on_c, 1, 56, 80
4, 243839, Note_on_c, 1, 56, 0
4, 243840, Note_on_c, 1, 44, 80
4, 243959, Note_on_c, 1, 44, 0
4, 243960, Note_on_c, 1, 54, 80
4, 244079, Note_on_c, 1, 54, 0
4, 244080, Note_on_c, 1, 51, 80
4, 244199, Note_on_c, 1, 51, 0
4, 244200, Note_on_c, 1, 54, 80
4, 244319, Note_on_c, 1, 54, 0
4, 244320, Note_on_c, 1, 44, 80
4, 244439, Note_on_c, 1, 44, 0
4, 244440, Note_on_c, 1, 54, 80
4, 244559, Note_on_c, 1, 54, 0
4, 244560, Note_on_c, 1, 51, 80
4, 244679, Note_on_c, 1, 51, 0
4, 244680, Note_on_c, 1, 54, 80
4, 244799, Note_on_c, 1, 54, 0
4, 244800, Note_on_c, 1, 44, 80
4, 244919, Note_on_c, 1, 44, 0
4, 244920, Note_on_c, 1, 54, 80
4, 245039, Note_on_c, 1, 54, 0
4, 245040, Note_on_c, 1, 51, 80
4, 245159, Note_on_c, 1, 51, 0
4, 245160, Note_on_c, 1, 54, 80
4, 245279, Note_on_c, 1, 54, 0
4, 245280, Note_on_c, 1, 44, 80
4, 245399, Note_on_c, 1, 44, 0
4, 245400, Note_on_c, 1, 54, 80
4, 245519, Note_on_c, 1, 54, 0
4, 245520, Note_on_c, 1, 51, 80
4, 245639, Note_on_c, 1, 51, 0
4, 245640, Note_on_c, 1, 54, 80
4, 245759, Note_on_c, 1, 54, 0
4, 245760, Note_on_c, 1, 37, 80
4, 245879, Note_on_c, 1, 37, 0
4, 246000, Note_on_c, 1, 44, 80
4, 246119, Note_on_c, 1, 44, 0
4, 246240, Note_on_c, 1, 37, 80
4, 246359, Note_on_c, 1, 37, 0
4, 246480, Note_on_c, 1, 44, 80
4, 246599, Note_on_c, 1, 44, 0
4, 246720, Note_on_c, 1, 37, 80
4, 246839, Note_on_c, 1, 37, 0
4, 246960, Note_on_c, 1, 44, 80
4, 247079, Note_on_c, 1, 44, 0
4, 247200, Note_on_c, 1, 37, 80
4, 247319, Note_on_c, 1, 37, 0
4, 247440, Note_on_c, 1, 44, 80
4, 247559, Note_on_c, 1, 44, 0
4, 247680, Note_on_c, 1, 37, 80
4, 247799, Note_on_c, 1, 37, 0
4, 247920, Note_on_c, 1, 44, 80
4, 248039, Note_on_c, 1, 44, 0
4, 248160, Note_on_c, 1, 37, 80
4, 248279, Note_on_c, 1, 37, 0
4, 248400, Note_on_c, 1, 44, 80
4, 248519, Note_on_c, 1, 44, 0
4, 248640, Note_on_c, 1, 37, 80
4, 248759, Note_on_c, 1, 37, 0
4, 248880, Note_on_c, 1, 44, 80
4, 248999, Note_on_c, 1, 44, 0
4, 249120, Note_on_c, 1, 49, 80
4, 249120, Note_on_c, 1, 37, 80
4, 249359, Note_on_c, 1, 49, 0
4, 249359, Note_on_c, 1, 37, 0
4, 249360, Note_on_c, 1, 44, 80
4, 249479, Note_on_c, 1, 44, 0
4, 249600, Note_on_c, 1, 35, 80
4, 249719, Note_on_c, 1, 35, 0
4, 249840, Note_on_c, 1, 44, 80
4, 249959, Note_on_c, 1, 44, 0
4, 250080, Note_on_c, 1, 35, 80
4, 250199, Note_on_c, 1, 35, 0
4, 250320, Note_on_c, 1, 44, 80
4, 250439, Note_on_c, 1, 44, 0
4, 250560, Note_on_c, 1, 35, 80
4, 250679, Note_on_c, 1, 35, 0
4, 250800, Note_on_c, 1, 44, 80
4, 250919, Note_on_c, 1, 44, 0
4, 251040, Note_on_c, 1, 35, 80
4, 251159, Note_on_c, 1, 35, 0
4, 251280, Note_on_c, 1, 44, 80
4, 251399, Note_on_c, 1, 44, 0
4, 251520, Note_on_c, 1, 35, 80
4, 251639, Note_on_c, 1, 35, 0
4, 251760, Note_on_c, 1, 44, 80
4, 251879, Note_on_c, 1, 44, 0
4, 252000, Note_on_c, 1, 35, 80
4, 252119, Note_on_c, 1, 35, 0
4, 252240, Note_on_c, 1, 44, 80
4, 252359, Note_on_c, 1, 44, 0
4, 252480, Note_on_c, 1, 35, 80
4, 252599, Note_on_c, 1, 35, 0
4, 252720, Note_on_c, 1, 44, 80
4, 252839, Note_on_c, 1, 44, 0
4, 252960, Note_on_c, 1, 47, 80
4, 252960, Note_on_c, 1, 35, 80
4, 253199, Note_on_c, 1, 47, 0
4, 253199, Note_on_c, 1, 35, 0
4, 253200, Note_on_c, 1, 44, 80
4, 253319, Note_on_c, 1, 44, 0
4, 253440, Note_on_c, 1, 49, 80
4, 253559, Note_on_c, 1, 49, 0
4, 253560, Note_on_c, 1, 49, 80
4, 253679, Note_on_c, 1, 49, 0
4, 253680, Note_on_c, 1, 54, 80
4, 253799, Note_on_c, 1, 54, 0
4, 253800, Note_on_c, 1, 57, 80
4, 253919, Note_on_c, 1, 57, 0
4, 254880, Note_on_c, 1, 33, 80
4, 255119, Note_on_c, 1, 33, 0
4, 255120, Note_on_c, 1, 45, 80
4, 255239, Note_on_c, 1, 45, 0
4, 255360, Note_on_c, 1, 29, 80
4, 255479, Note_on_c, 1, 29, 0
4, 255600, Note_on_c, 1, 41, 80
4, 255719, Note_on_c, 1, 41, 0
4, 255840, Note_on_c, 1, 29, 80
4, 255959, Note_on_c, 1, 29, 0
4, 256080, Note_on_c, 1, 41, 80
4, 256199, Note_on_c, 1, 41, 0
4, 256320, Note_on_c, 1, 29, 80
4, 256439, Note_on_c, 1, 29, 0
4, 256560, Note_on_c, 1, 41, 80
4, 256679, Note_on_c, 1, 41, 0
4, 256800, Note_on_c, 1, 29, 80
4, 257039, Note_on_c, 1, 29, 0
4, 257040, Note_on_c, 1, 41, 80
4, 257159, Note_on_c, 1, 41, 0
4, 257280, Note_on_c, 1, 42, 80
4, 257280, Note_on_c, 1, 30, 80
4, 257399, Note_on_c, 1, 42, 0
4, 257399, Note_on_c, 1, 30, 0
4, 257400, Note_on_c, 1, 61, 80
4, 257519, Note_on_c, 1, 61, 0
4, 257520, Note_on_c, 1, 57, 80
4, 257639, Note_on_c, 1, 57, 0
4, 257640, Note_on_c, 1, 61, 80
4, 257759, Note_on_c, 1, 61, 0
4, 257760, Note_on_c, 1, 54, 80
4, 257879, Note_on_c, 1, 54, 0
4, 257880, Note_on_c, 1, 61, 80
4, 257999, Note_on_c, 1, 61, 0
4, 258000, Note_on_c, 1, 57, 80
4, 258119, Note_on_c, 1, 57, 0
4, 258120, Note_on_c, 1, 61, 80
4, 258239, Note_on_c, 1, 61, 0
4, 258240, Note_on_c, 1, 54, 80
4, 258359, Note_on_c, 1, 54, 0
4, 258360, Note_on_c, 1, 61, 80
4, 258479, Note_on_c, 1, 61, 0
4, 258480, Note_on_c, 1, 57, 80
4, 258599, Note_on_c, 1, 57, 0
4, 258600, Note_on_c, 1, 61, 80
4, 258719, Note_on_c, 1, 61, 0
4, 258720, Note_on_c, 1, 54, 80
4, 258839, Note_on_c, 1, 54, 0
4, 258840, Note_on_c, 1, 61, 80
4, 258959, Note_on_c, 1, 61, 0
4, 258960, Note_on_c, 1, 57, 80
4, 259079, Note_on_c, 1, 57, 0
4, 259080, Note_on_c, 1, 61, 80
4, 259199, Note_on_c, 1, 61, 0
4, 259200, Note_on_c, 1, 56, 80
4, 259319, Note_on_c, 1, 56, 0
4, 259320, Note_on_c, 1, 61, 80
4, 259439, Note_on_c, 1, 61, 0
4, 259440, Note_on_c, 1, 59, 80
4, 259559, Note_on_c, 1, 59, 0
4, 259560, Note_on_c, 1, 61, 80
4, 259679, Note_on_c, 1, 61, 0
4, 259680, Note_on_c, 1, 56, 80
4, 259799, Note_on_c, 1, 56, 0
4, 259800, Note_on_c, 1, 61, 80
4, 259919, Note_on_c, 1, 61, 0
4, 259920, Note_on_c, 1, 59, 80
4, 260039, Note_on_c, 1, 59, 0
4, 260040, Note_on_c, 1, 61, 80
4, 260159, Note_on_c, 1, 61, 0
4, 260160, Note_on_c, 1, 56, 80
4, 260279, Note_on_c, 1, 56, 0
4, 260280, Note_on_c, 1, 61, 80
4, 260399, Note_on_c, 1, 61, 0
4, 260400, Note_on_c, 1, 59, 80
4, 260519, Note_on_c, 1, 59, 0
4, 260520, Note_on_c, 1, 61, 80
4, 260639, Note_on_c, 1, 61, 0
4, 260640, Note_on_c, 1, 56, 80
4, 260759, Note_on_c, 1, 56, 0
4, 260760, Note_on_c, 1, 61, 80
4, 260879, Note_on_c, 1, 61, 0
4, 260880, Note_on_c, 1, 59, 80
4, 260999, Note_on_c, 1, 59, 0
4, 261000, Note_on_c, 1, 61, 80
4, 261119, Note_on_c, 1, 61, 0
4, 261120, Note_on_c, 1, 57, 80
4, 261239, Note_on_c, 1, 57, 0
4, 261240, Note_on_c, 1, 61, 80
4, 261359, Note_on_c, 1, 61, 0
4, 261360, Note_on_c, 1, 57, 80
4, 261479, Note_on_c, 1, 57, 0
4, 261480, Note_on_c, 1, 61, 80
4, 261599, Note_on_c, 1, 61, 0
4, 261600, Note_on_c, 1, 57, 80
4, 261719, Note_on_c, 1, 57, 0
4, 261720, Note_on_c, 1, 61, 80
4, 261839, Note_on_c, 1, 61, 0
4, 261840, Note_on_c, 1, 57, 80
4, 261959, Note_on_c, 1, 57, 0
4, 261960, Note_on_c, 1, 61, 80
4, 262079, Note_on_c, 1, 61, 0
4, 262080, Note_on_c, 1, 57, 80
4, 262199, Note_on_c, 1, 57, 0
4, 262200, Note_on_c, 1, 61, 80
4, 262319, Note_on_c, 1, 61, 0
4, 262320, Note_on_c, 1, 57, 80
4, 262439, Note_on_c, 1, 57, 0
4, 262440, Note_on_c, 1, 61, 80
4, 262559, Note_on_c, 1, 61, 0
4, 262560, Note_on_c, 1, 57, 80
4, 262679, Note_on_c, 1, 57, 0
4, 262680, Note_on_c, 1, 61, 80
4, 262799, Note_on_c, 1, 61, 0
4, 262800, Note_on_c, 1, 57, 80
4, 262919, Note_on_c, 1, 57, 0
4, 262920, Note_on_c, 1, 61, 80
4, 263039, Note_on_c, 1, 61, 0
4, 263040, Note_on_c, 1, 53, 80
4, 263159, Note_on_c, 1, 53, 0
4, 263160, Note_on_c, 1, 61, 80
4, 263279, Note_on_c, 1, 61, 0
4, 263280, Note_on_c, 1, 53, 80
4, 263399, Note_on_c, 1, 53, 0
4, 263400, Note_on_c, 1, 61, 80
4, 263519, Note_on_c, 1, 61, 0
4, 263520, Note_on_c, 1, 53, 80
4, 263639, Note_on_c, 1, 53, 0
4, 263640, Note_on_c, 1, 61, 80
4, 263759, Note_on_c, 1, 61, 0
4, 263760, Note_on_c, 1, 53, 80
4, 263879, Note_on_c, 1, 53, 0
4, 263880, Note_on_c, 1, 61, 80
4, 263999, Note_on_c, 1, 61, 0
4, 264000, Note_on_c, 1, 53, 80
4, 264119, Note_on_c, 1, 53, 0
4, 264120, Note_on_c, 1, 61, 80
4, 264239, Note_on_c, 1, 61, 0
4, 264240, Note_on_c, 1, 53, 80
4, 264359, Note_on_c, 1, 53, 0
4, 264360, Note_on_c, 1, 61, 80
4, 264479, Note_on_c, 1, 61, 0
4, 264480, Note_on_c, 1, 53, 80
4, 264599, Note_on_c, 1, 53, 0
4, 264600, Note_on_c, 1, 61, 80
4, 264719, Note_on_c, 1, 61, 0
4, 264720, Note_on_c, 1, 53, 80
4, 264839, Note_on_c, 1, 53, 0
4, 264840, Note_on_c, 1, 61, 80
4, 264959, Note_on_c, 1, 61, 0
4, 264960, Note_on_c, 1, 54, 80
4, 265199, Note_on_c, 1, 54, 0
4, 265440, Note_on_c, 1, 61, 80
4, 266399, Note_on_c, 1, 61, 0
4, 266400, Note_on_c, 1, 57, 80
4, 266759, Note_on_c, 1, 57, 0
4, 266760, Note_on_c, 1, 54, 80
4, 266879, Note_on_c, 1, 54, 0
4, 266880, Note_on_c, 1, 54, 80
4, 267359, Note_on_c, 1, 54, 0
4, 267360, Note_on_c, 1, 53, 80
4, 268079, Note_on_c, 1, 53, 0
4, 268080, Note_on_c, 1, 53, 80
4, 268319, Note_on_c, 1, 53, 0
4, 268320, Note_on_c, 1, 61, 80
4, 268679, Note_on_c, 1, 61, 0
4, 268680, Note_on_c, 1, 53, 80
4, 268799, Note_on_c, 1, 53, 0
4, 268800, Note_on_c, 1, 56, 80
4, 269279, Note_on_c, 1, 56, 0
4, 269280, Note_on_c, 1, 54, 80
4, 269999, Note_on_c, 1, 54, 0
4, 270000, Note_on_c, 1, 54, 80
4, 270239, Note_on_c, 1, 54, 0
4, 270240, Note_on_c, 1, 61, 80
4, 270599, Note_on_c, 1, 61, 0
4, 270600, Note_on_c, 1, 54, 80
4, 270719, Note_on_c, 1, 54, 0
4, 270720, Note_on_c, 1, 54, 80
4, 270839, Note_on_c, 1, 54, 0
4, 270960, Note_on_c, 1, 54, 80
4, 271199, Note_on_c, 1, 54, 0
4, 271200, Note_on_c, 1, 62, 80
4, 271559, Note_on_c, 1, 62, 0
4, 271560, Note_on_c, 1, 54, 80
4, 271679, Note_on_c, 1, 54, 0
4, 271680, Note_on_c, 1, 54, 80
4, 271799, Note_on_c, 1, 54, 0
4, 271920, Note_on_c, 1, 54, 80
4, 272159, Note_on_c, 1, 54, 0
4, 272160, Note_on_c, 1, 62, 80
4, 272519, Note_on_c, 1, 62, 0
4, 272520, Note_on_c, 1, 54, 80
4, 272639, Note_on_c, 1, 54, 0
4, 272640, Note_on_c, 1, 55, 80
4, 272879, Note_on_c, 1, 55, 0
4, 273120, Note_on_c, 1, 50, 80
4, 274079, Note_on_c, 1, 50, 0
4, 274080, Note_on_c, 1, 47, 80
4, 274439, Note_on_c, 1, 47, 0
4, 274440, Note_on_c, 1, 43, 80
4, 274559, Note_on_c, 1, 43, 0
4, 274560, Note_on_c, 1, 43, 80
4, 275039, Note_on_c, 1, 43, 0
4, 275040, Note_on_c, 1, 42, 80
4, 275759, Note_on_c, 1, 42, 0
4, 275760, Note_on_c, 1, 42, 80
4, 275999, Note_on_c, 1, 42, 0
4, 276000, Note_on_c, 1, 50, 80
4, 276359, Note_on_c, 1, 50, 0
4, 276360, Note_on_c, 1, 42, 80
4, 276479, Note_on_c, 1, 42, 0
4, 276480, Note_on_c, 1, 45, 80
4, 276959, Note_on_c, 1, 45, 0
4, 276960, Note_on_c, 1, 43, 80
4, 277679, Note_on_c, 1, 43, 0
4, 277680, Note_on_c, 1, 43, 80
4, 277919, Note_on_c, 1, 43, 0
4, 277920, Note_on_c, 1, 50, 80
4, 278279, Note_on_c, 1, 50, 0
4, 278280, Note_on_c, 1, 42, 80
4, 278399, Note_on_c, 1, 42, 0
4, 278400, Note_on_c, 1, 42, 80
4, 278879, Note_on_c, 1, 42, 0
4, 278880, Note_on_c, 1, 41, 80
4, 279599, Note_on_c, 1, 41, 0
4, 279600, Note_on_c, 1, 41, 80
4, 279839, Note_on_c, 1, 41, 0
4, 279840, Note_on_c, 1, 49, 80
4, 280199, Note_on_c, 1, 49, 0
4, 280200, Note_on_c, 1, 41, 80
4, 280319, Note_on_c, 1, 41, 0
4, 280320, Note_on_c, 1, 42, 80
4, 280439, Note_on_c, 1, 42, 0
4, 280560, Note_on_c, 1, 42, 80
4, 280799, Note_on_c, 1, 42, 0
4, 280800, Note_on_c, 1, 45, 80
4, 281039, Note_on_c, 1, 45, 0
4, 281040, Note_on_c, 1, 42, 80
4, 281279, Note_on_c, 1, 42, 0
4, 281280, Note_on_c, 1, 38, 80
4, 281399, Note_on_c, 1, 38, 0
4, 281520, Note_on_c, 1, 38, 80
4, 281759, Note_on_c, 1, 38, 0
4, 281760, Note_on_c, 1, 42, 80
4, 281999, Note_on_c, 1, 42, 0
4, 282000, Note_on_c, 1, 38, 80
4, 282239, Note_on_c, 1, 38, 0
4, 282240, Note_on_c, 1, 36, 80
4, 283439, Note_on_c, 1, 36, 0
4, 283440, Note_on_c, 1, 36, 80
4, 283679, Note_on_c, 1, 36, 0
4, 283680, Note_on_c, 1, 39, 80
4, 283919, Note_on_c, 1, 39, 0
4, 283920, Note_on_c, 1, 36, 80
4, 284159, Note_on_c, 1, 36, 0
4, 284160, Note_on_c, 1, 37, 80
4, 284279, Note_on_c, 1, 37, 0
4, 284400, Note_on_c, 1, 37, 80
4, 284639, Note_on_c, 1, 37, 0
4, 284640, Note_on_c, 1, 40, 80
4, 284879, Note_on_c, 1, 40, 0
4, 284880, Note_on_c, 1, 37, 80
4, 285119, Note_on_c, 1, 37, 0
4, 285120, Note_on_c, 1, 33, 80
4, 285239, Note_on_c, 1, 33, 0
4, 285360, Note_on_c, 1, 33, 80
4, 285599, Note_on_c, 1, 33, 0
4, 285600, Note_on_c, 1, 37, 80
4, 285839, Note_on_c, 1, 37, 0
4, 285840, Note_on_c, 1, 33, 80
4, 286079, Note_on_c, 1, 33, 0
4, 286080, Note_on_c, 1, 30, 80
4, 286199, Note_on_c, 1, 30, 0
4, 286320, Note_on_c, 1, 30, 80
4, 286559, Note_on_c, 1, 30, 0
4, 286560, Note_on_c, 1, 33, 80
4, 286799, Note_on_c, 1, 33, 0
4, 286800, Note_on_c, 1, 30, 80
4, 287039, Note_on_c, 1, 30, 0
4, 287040, Note_on_c, 1, 31, 80
4, 287279, Note_on_c, 1, 31, 0
4, 287280, Note_on_c, 1, 31, 80
4, 287519, Note_on_c, 1, 31, 0
4, 287520, Note_on_c, 1, 34, 80
4, 287759, Note_on_c, 1, 34, 0
4, 287760, Note_on_c, 1, 31, 80
4, 287999, Note_on_c, 1, 31, 0
4, 288000, Note_on_c, 1, 32, 80
4, 288119, Note_on_c, 1, 32, 0
4, 288120, Note_on_c, 1, 44, 80
4, 288239, Note_on_c, 1, 44, 0
4, 288240, Note_on_c, 1, 32, 80
4, 288359, Note_on_c, 1, 32, 0
4, 288360, Note_on_c, 1, 44, 80
4, 288479, Note_on_c, 1, 44, 0
4, 288480, Note_on_c, 1, 32, 80
4, 288599, Note_on_c, 1, 32, 0
4, 288600, Note_on_c, 1, 44, 80
4, 288719, Note_on_c, 1, 44, 0
4, 288720, Note_on_c, 1, 32, 80
4, 288839, Note_on_c, 1, 32, 0
4, 288840, Note_on_c, 1, 44, 80
4, 288959, Note_on_c, 1, 44, 0
4, 288960, Note_on_c, 1, 32, 80
4, 289079, Note_on_c, 1, 32, 0
4, 289080, Note_on_c, 1, 44, 80
4, 289199, Note_on_c, 1, 44, 0
4, 289200, Note_on_c, 1, 32, 80
4, 289319, Note_on_c, 1, 32, 0
4, 289320, Note_on_c, 1, 44, 80
4, 289439, Note_on_c, 1, 44, 0
4, 289440, Note_on_c, 1, 32, 80
4, 289559, Note_on_c, 1, 32, 0
4, 289560, Note_on_c, 1, 44, 80
4, 289679, Note_on_c, 1, 44, 0
4, 289680, Note_on_c, 1, 32, 80
4, 289799, Note_on_c, 1, 32, 0
4, 289800, Note_on_c, 1, 44, 80
4, 289919, Note_on_c, 1, 44, 0
4, 289920, Note_on_c, 1, 32, 80
4, 290039, Note_on_c, 1, 32, 0
4, 290040, Note_on_c, 1, 44, 80
4, 290159, Note_on_c, 1, 44, 0
4, 290160, Note_on_c, 1, 32, 80
4, 290279, Note_on_c, 1, 32, 0
4, 290280, Note_on_c, 1, 44, 80
4, 290399, Note_on_c, 1, 44, 0
4, 290400, Note_on_c, 1, 32, 80
4, 290519, Note_on_c, 1, 32, 0
4, 290520, Note_on_c, 1, 44, 80
4, 290639, Note_on_c, 1, 44, 0
4, 290640, Note_on_c, 1, 32, 80
4, 290759, Note_on_c, 1, 32, 0
4, 290760, Note_on_c, 1, 44, 80
4, 290879, Note_on_c, 1, 44, 0
4, 290880, Note_on_c, 1, 32, 80
4, 290999, Note_on_c, 1, 32, 0
4, 291000, Note_on_c, 1, 44, 80
4, 291119, Note_on_c, 1, 44, 0
4, 291120, Note_on_c, 1, 32, 80
4, 291239, Note_on_c, 1, 32, 0
4, 291240, Note_on_c, 1, 44, 80
4, 291359, Note_on_c, 1, 44, 0
4, 291360, Note_on_c, 1, 32, 80
4, 291479, Note_on_c, 1, 32, 0
4, 291480, Note_on_c, 1, 44, 80
4, 291599, Note_on_c, 1, 44, 0
4, 291600, Note_on_c, 1, 32, 80
4, 291719, Note_on_c, 1, 32, 0
4, 291720, Note_on_c, 1, 44, 80
4, 291839, Note_on_c, 1, 44, 0
4, 291840, Note_on_c, 1, 32, 80
4, 291959, Note_on_c, 1, 32, 0
4, 291960, Note_on_c, 1, 44, 80
4, 292079, Note_on_c, 1, 44, 0
4, 292080, Note_on_c, 1, 32, 80
4, 292199, Note_on_c, 1, 32, 0
4, 292200, Note_on_c, 1, 44, 80
4, 292319, Note_on_c, 1, 44, 0
4, 292320, Note_on_c, 1, 32, 80
4, 292439, Note_on_c, 1, 32, 0
4, 292440, Note_on_c, 1, 44, 80
4, 292559, Note_on_c, 1, 44, 0
4, 292560, Note_on_c, 1, 32, 80
4, 292679, Note_on_c, 1, 32, 0
4, 292680, Note_on_c, 1, 44, 80
4, 292799, Note_on_c, 1, 44, 0
4, 292800, Note_on_c, 1, 32, 80
4, 292919, Note_on_c, 1, 32, 0
4, 292920, Note_on_c, 1, 44, 80
4, 293039, Note_on_c, 1, 44, 0
4, 293040, Note_on_c, 1, 32, 80
4, 293159, Note_on_c, 1, 32, 0
4, 293160, Note_on_c, 1, 44, 80
4, 293279, Note_on_c, 1, 44, 0
4, 293280, Note_on_c, 1, 32, 80
4, 293399, Note_on_c, 1, 32, 0
4, 293400, Note_on_c, 1, 44, 80
4, 293519, Note_on_c, 1, 44, 0
4, 293520, Note_on_c, 1, 32, 80
4, 293639, Note_on_c, 1, 32, 0
4, 293640, Note_on_c, 1, 44, 80
4, 293759, Note_on_c, 1, 44, 0
4, 293760, Note_on_c, 1, 32, 80
4, 293879, Note_on_c, 1, 32, 0
4, 293880, Note_on_c, 1, 44, 80
4, 293999, Note_on_c, 1, 44, 0
4, 294000, Note_on_c, 1, 32, 80
4, 294119, Note_on_c, 1, 32, 0
4, 294120, Note_on_c, 1, 44, 80
4, 294239, Note_on_c, 1, 44, 0
4, 294240, Note_on_c, 1, 32, 80
4, 294359, Note_on_c, 1, 32, 0
4, 294360, Note_on_c, 1, 44, 80
4, 294479, Note_on_c, 1, 44, 0
4, 294480, Note_on_c, 1, 32, 80
4, 294599, Note_on_c, 1, 32, 0
4, 294600, Note_on_c, 1, 44, 80
4, 294719, Note_on_c, 1, 44, 0
4, 294720, Note_on_c, 1, 32, 80
4, 294839, Note_on_c, 1, 32, 0
4, 294840, Note_on_c, 1, 44, 80
4, 294959, Note_on_c, 1, 44, 0
4, 294960, Note_on_c, 1, 32, 80
4, 295079, Note_on_c, 1, 32, 0
4, 295080, Note_on_c, 1, 44, 80
4, 295199, Note_on_c, 1, 44, 0
4, 295200, Note_on_c, 1, 32, 80
4, 295319, Note_on_c, 1, 32, 0
4, 295320, Note_on_c, 1, 44, 80
4, 295439, Note_on_c, 1, 44, 0
4, 295440, Note_on_c, 1, 32, 80
4, 295559, Note_on_c, 1, 32, 0
4, 295560, Note_on_c, 1, 44, 80
4, 295599, Note_on_c, 1, 44, 0
4, 295600, Note_on_c, 1, 48, 80
4, 295639, Note_on_c, 1, 48, 0
4, 295640, Note_on_c, 1, 56, 80
4, 295679, Note_on_c, 1, 56, 0
4, 295680, Note_on_c, 1, 32, 80
4, 295799, Note_on_c, 1, 32, 0
4, 295800, Note_on_c, 1, 44, 80
4, 295919, Note_on_c, 1, 44, 0
4, 295920, Note_on_c, 1, 32, 80
4, 296039, Note_on_c, 1, 32, 0
4, 296040, Note_on_c, 1, 44, 80
4, 296159, Note_on_c, 1, 44, 0
4, 296160, Note_on_c, 1, 32, 80
4, 296279, Note_on_c, 1, 32, 0
4, 296280, Note_on_c, 1, 44, 80
4, 296399, Note_on_c, 1, 44, 0
4, 296400, Note_on_c, 1, 32, 80
4, 296519, Note_on_c, 1, 32, 0
4, 296520, Note_on_c, 1, 44, 80
4, 296639, Note_on_c, 1, 44, 0
4, 296640, Note_on_c, 1, 32, 80
4, 296759, Note_on_c, 1, 32, 0
4, 296760, Note_on_c, 1, 44, 80
4, 296879, Note_on_c, 1, 44, 0
4, 296880, Note_on_c, 1, 32, 80
4, 296999, Note_on_c, 1, 32, 0
4, 297000, Note_on_c, 1, 44, 80
4, 297119, Note_on_c, 1, 44, 0
4, 297120, Note_on_c, 1, 32, 80
4, 297239, Note_on_c, 1, 32, 0
4, 297240, Note_on_c, 1, 44, 80
4, 297359, Note_on_c, 1, 44, 0
4, 297360, Note_on_c, 1, 32, 80
4, 297479, Note_on_c, 1, 32, 0
4, 297480, Note_on_c, 1, 44, 80
4, 297599, Note_on_c, 1, 44, 0
4, 297600, Note_on_c, 1, 32, 80
4, 297719, Note_on_c, 1, 32, 0
4, 297720, Note_on_c, 1, 44, 80
4, 297839, Note_on_c, 1, 44, 0
4, 297840, Note_on_c, 1, 32, 80
4, 297959, Note_on_c, 1, 32, 0
4, 297960, Note_on_c, 1, 44, 80
4, 298079, Note_on_c, 1, 44, 0
4, 298080, Note_on_c, 1, 32, 80
4, 298199, Note_on_c, 1, 32, 0
4, 298200, Note_on_c, 1, 44, 80
4, 298319, Note_on_c, 1, 44, 0
4, 298320, Note_on_c, 1, 32, 80
4, 298439, Note_on_c, 1, 32, 0
4, 298440, Note_on_c, 1, 44, 80
4, 298559, Note_on_c, 1, 44, 0
4, 298560, Note_on_c, 1, 32, 80
4, 298679, Note_on_c, 1, 32, 0
4, 298680, Note_on_c, 1, 44, 80
4, 298799, Note_on_c, 1, 44, 0
4, 298800, Note_on_c, 1, 32, 80
4, 298919, Note_on_c, 1, 32, 0
4, 298920, Note_on_c, 1, 44, 80
4, 299039, Note_on_c, 1, 44, 0
4, 299040, Note_on_c, 1, 32, 80
4, 299159, Note_on_c, 1, 32, 0
4, 299160, Note_on_c, 1, 44, 80
4, 299279, Note_on_c, 1, 44, 0
4, 299280, Note_on_c, 1, 32, 80
4, 299399, Note_on_c, 1, 32, 0
4, 299400, Note_on_c, 1, 44, 80
4, 299519, Note_on_c, 1, 44, 0
4, 299520, Note_on_c, 1, 32, 80
4, 299639, Note_on_c, 1, 32, 0
4, 299640, Note_on_c, 1, 44, 80
4, 299759, Note_on_c, 1, 44, 0
4, 299760, Note_on_c, 1, 32, 80
4, 299879, Note_on_c, 1, 32, 0
4, 299880, Note_on_c, 1, 44, 80
4, 299999, Note_on_c, 1, 44, 0
4, 300000, Note_on_c, 1, 32, 80
4, 300119, Note_on_c, 1, 32, 0
4, 300120, Note_on_c, 1, 44, 80
4, 300239, Note_on_c, 1, 44, 0
4, 300240, Note_on_c, 1, 32, 80
4, 300359, Note_on_c, 1, 32, 0
4, 300360, Note_on_c, 1, 44, 80
4, 300479, Note_on_c, 1, 44, 0
4, 300480, Note_on_c, 1, 32, 80
4, 300599, Note_on_c, 1, 32, 0
4, 300600, Note_on_c, 1, 44, 80
4, 300719, Note_on_c, 1, 44, 0
4, 300720, Note_on_c, 1, 32, 80
4, 300839, Note_on_c, 1, 32, 0
4, 300840, Note_on_c, 1, 44, 80
4, 300959, Note_on_c, 1, 44, 0
4, 300960, Note_on_c, 1, 32, 80
4, 301079, Note_on_c, 1, 32, 0
4, 301080, Note_on_c, 1, 44, 80
4, 301199, Note_on_c, 1, 44, 0
4, 301200, Note_on_c, 1, 32, 80
4, 301319, Note_on_c, 1, 32, 0
4, 301320, Note_on_c, 1, 44, 80
4, 301439, Note_on_c, 1, 44, 0
4, 301440, Note_on_c, 1, 32, 80
4, 301559, Note_on_c, 1, 32, 0
4, 301560, Note_on_c, 1, 44, 80
4, 301679, Note_on_c, 1, 44, 0
4, 301680, Note_on_c, 1, 32, 80
4, 301799, Note_on_c, 1, 32, 0
4, 301800, Note_on_c, 1, 44, 80
4, 301919, Note_on_c, 1, 44, 0
4, 301920, Note_on_c, 1, 32, 80
4, 302039, Note_on_c, 1, 32, 0
4, 302040, Note_on_c, 1, 44, 80
4, 302159, Note_on_c, 1, 44, 0
4, 302160, Note_on_c, 1, 32, 80
4, 302279, Note_on_c, 1, 32, 0
4, 302280, Note_on_c, 1, 44, 80
4, 302399, Note_on_c, 1, 44, 0
4, 302400, Note_on_c, 1, 32, 80
4, 302519, Note_on_c, 1, 32, 0
4, 302520, Note_on_c, 1, 44, 80
4, 302639, Note_on_c, 1, 44, 0
4, 302640, Note_on_c, 1, 32, 80
4, 302759, Note_on_c, 1, 32, 0
4, 302760, Note_on_c, 1, 44, 80
4, 302879, Note_on_c, 1, 44, 0
4, 302880, Note_on_c, 1, 32, 80
4, 302999, Note_on_c, 1, 32, 0
4, 303000, Note_on_c, 1, 44, 80
4, 303119, Note_on_c, 1, 44, 0
4, 303120, Note_on_c, 1, 32, 80
4, 303239, Note_on_c, 1, 32, 0
4, 303240, Note_on_c, 1, 44, 80
4, 303359, Note_on_c, 1, 44, 0
4, 303360, Note_on_c, 1, 32, 80
4, 303479, Note_on_c, 1, 32, 0
4, 303480, Note_on_c, 1, 44, 80
4, 303599, Note_on_c, 1, 44, 0
4, 303600, Note_on_c, 1, 32, 80
4, 303719, Note_on_c, 1, 32, 0
4, 303720, Note_on_c, 1, 44, 80
4, 303839, Note_on_c, 1, 44, 0
4, 303840, Note_on_c, 1, 32, 80
4, 303959, Note_on_c, 1, 32, 0
4, 303960, Note_on_c, 1, 44, 80
4, 304079, Note_on_c, 1, 44, 0
4, 304080, Note_on_c, 1, 32, 80
4, 304199, Note_on_c, 1, 32, 0
4, 304200, Note_on_c, 1, 44, 80
4, 304319, Note_on_c, 1, 44, 0
4, 304320, Note_on_c, 1, 32, 80
4, 304439, Note_on_c, 1, 32, 0
4, 304440, Note_on_c, 1, 44, 80
4, 304559, Note_on_c, 1, 44, 0
4, 304560, Note_on_c, 1, 32, 80
4, 304679, Note_on_c, 1, 32, 0
4, 304680, Note_on_c, 1, 44, 80
4, 304799, Note_on_c, 1, 44, 0
4, 304800, Note_on_c, 1, 32, 80
4, 304919, Note_on_c, 1, 32, 0
4, 304920, Note_on_c, 1, 44, 80
4, 305039, Note_on_c, 1, 44, 0
4, 305040, Note_on_c, 1, 32, 80
4, 305159, Note_on_c, 1, 32, 0
4, 305160, Note_on_c, 1, 44, 80
4, 305279, Note_on_c, 1, 44, 0
4, 305280, Note_on_c, 1, 32, 80
4, 305399, Note_on_c, 1, 32, 0
4, 305400, Note_on_c, 1, 44, 80
4, 305519, Note_on_c, 1, 44, 0
4, 305520, Note_on_c, 1, 32, 80
4, 305639, Note_on_c, 1, 32, 0
4, 305640, Note_on_c, 1, 44, 80
4, 305759, Note_on_c, 1, 44, 0
4, 305760, Note_on_c, 1, 32, 80
4, 305879, Note_on_c, 1, 32, 0
4, 305880, Note_on_c, 1, 44, 80
4, 305999, Note_on_c, 1, 44, 0
4, 306000, Note_on_c, 1, 32, 80
4, 306119, Note_on_c, 1, 32, 0
4, 306120, Note_on_c, 1, 44, 80
4, 306239, Note_on_c, 1, 44, 0
4, 306240, Note_on_c, 1, 32, 80
4, 306359, Note_on_c, 1, 32, 0
4, 306360, Note_on_c, 1, 44, 80
4, 306479, Note_on_c, 1, 44, 0
4, 306480, Note_on_c, 1, 32, 80
4, 306599, Note_on_c, 1, 32, 0
4, 306600, Note_on_c, 1, 44, 80
4, 306719, Note_on_c, 1, 44, 0
4, 306720, Note_on_c, 1, 32, 80
4, 306839, Note_on_c, 1, 32, 0
4, 306840, Note_on_c, 1, 44, 80
4, 306959, Note_on_c, 1, 44, 0
4, 306960, Note_on_c, 1, 32, 80
4, 307079, Note_on_c, 1, 32, 0
4, 307080, Note_on_c, 1, 44, 80
4, 307199, Note_on_c, 1, 44, 0
4, 307200, Note_on_c, 1, 32, 80
4, 307319, Note_on_c, 1, 32, 0
4, 307320, Note_on_c, 1, 44, 80
4, 307439, Note_on_c, 1, 44, 0
4, 307440, Note_on_c, 1, 32, 80
4, 307559, Note_on_c, 1, 32, 0
4, 307560, Note_on_c, 1, 44, 80
4, 307679, Note_on_c, 1, 44, 0
4, 307680, Note_on_c, 1, 32, 80
4, 307799, Note_on_c, 1, 32, 0
4, 307800, Note_on_c, 1, 44, 80
4, 307919, Note_on_c, 1, 44, 0
4, 307920, Note_on_c, 1, 32, 80
4, 308039, Note_on_c, 1, 32, 0
4, 308040, Note_on_c, 1, 44, 80
4, 308159, Note_on_c, 1, 44, 0
4, 308160, Note_on_c, 1, 32, 80
4, 308279, Note_on_c, 1, 32, 0
4, 308280, Note_on_c, 1, 44, 80
4, 308399, Note_on_c, 1, 44, 0
4, 308400, Note_on_c, 1, 32, 80
4, 308519, Note_on_c, 1, 32, 0
4, 308520, Note_on_c, 1, 44, 80
4, 308639, Note_on_c, 1, 44, 0
4, 308640, Note_on_c, 1, 32, 80
4, 308759, Note_on_c, 1, 32, 0
4, 308760, Note_on_c, 1, 44, 80
4, 308879, Note_on_c, 1, 44, 0
4, 308880, Note_on_c, 1, 32, 80
4, 308999, Note_on_c, 1, 32, 0
4, 309000, Note_on_c, 1, 44, 80
4, 309119, Note_on_c, 1, 44, 0
4, 309120, Note_on_c, 1, 32, 80
4, 309239, Note_on_c, 1, 32, 0
4, 309240, Note_on_c, 1, 44, 80
4, 309359, Note_on_c, 1, 44, 0
4, 309360, Note_on_c, 1, 32, 80
4, 309479, Note_on_c, 1, 32, 0
4, 309480, Note_on_c, 1, 44, 80
4, 309599, Note_on_c, 1, 44, 0
4, 309600, Note_on_c, 1, 32, 80
4, 309719, Note_on_c, 1, 32, 0
4, 309720, Note_on_c, 1, 44, 80
4, 309839, Note_on_c, 1, 44, 0
4, 309840, Note_on_c, 1, 32, 80
4, 309959, Note_on_c, 1, 32, 0
4, 309960, Note_on_c, 1, 44, 80
4, 310079, Note_on_c, 1, 44, 0
4, 310080, Note_on_c, 1, 32, 80
4, 310199, Note_on_c, 1, 32, 0
4, 310200, Note_on_c, 1, 44, 80
4, 310319, Note_on_c, 1, 44, 0
4, 310320, Note_on_c, 1, 32, 80
4, 310439, Note_on_c, 1, 32, 0
4, 310440, Note_on_c, 1, 44, 80
4, 310559, Note_on_c, 1, 44, 0
4, 310560, Note_on_c, 1, 32, 80
4, 310679, Note_on_c, 1, 32, 0
4, 310680, Note_on_c, 1, 44, 80
4, 310799, Note_on_c, 1, 44, 0
4, 310800, Note_on_c, 1, 32, 80
4, 310919, Note_on_c, 1, 32, 0
4, 310920, Note_on_c, 1, 44, 80
4, 311039, Note_on_c, 1, 44, 0
4, 311040, Note_on_c, 1, 32, 80
4, 311159, Note_on_c, 1, 32, 0
4, 311160, Note_on_c, 1, 44, 80
4, 311279, Note_on_c, 1, 44, 0
4, 311280, Note_on_c, 1, 32, 80
4, 311399, Note_on_c, 1, 32, 0
4, 311400, Note_on_c, 1, 44, 80
4, 311519, Note_on_c, 1, 44, 0
4, 311520, Note_on_c, 1, 32, 80
4, 311639, Note_on_c, 1, 32, 0
4, 311640, Note_on_c, 1, 44, 80
4, 311759, Note_on_c, 1, 44, 0
4, 311760, Note_on_c, 1, 32, 80
4, 311879, Note_on_c, 1, 32, 0
4, 311880, Note_on_c, 1, 44, 80
4, 311999, Note_on_c, 1, 44, 0
4, 312000, Note_on_c, 1, 33, 80
4, 312119, Note_on_c, 1, 33, 0
4, 312120, Note_on_c, 1, 45, 80
4, 312239, Note_on_c, 1, 45, 0
4, 312240, Note_on_c, 1, 33, 80
4, 312359, Note_on_c, 1, 33, 0
4, 312360, Note_on_c, 1, 45, 80
4, 312479, Note_on_c, 1, 45, 0
4, 312480, Note_on_c, 1, 33, 80
4, 312599, Note_on_c, 1, 33, 0
4, 312600, Note_on_c, 1, 45, 80
4, 312719, Note_on_c, 1, 45, 0
4, 312720, Note_on_c, 1, 33, 80
4, 312839, Note_on_c, 1, 33, 0
4, 312840, Note_on_c, 1, 45, 80
4, 312959, Note_on_c, 1, 45, 0
4, 312960, Note_on_c, 1, 42, 80
4, 312960, Note_on_c, 1, 29, 80
4, 314879, Note_on_c, 1, 42, 0
4, 314879, Note_on_c, 1, 29, 0
4, 314880, Note_on_c, 1, 44, 80
4, 314880, Note_on_c, 1, 32, 80
4, 316799, Note_on_c, 1, 44, 0
4, 316799, Note_on_c, 1, 32, 0
4, 316800, Note_on_c, 1, 37, 80
4, 316919, Note_on_c, 1, 37, 0
4, 317040, Note_on_c, 1, 44, 80
4, 317159, Note_on_c, 1, 44, 0
4, 317280, Note_on_c, 1, 37, 80
4, 317399, Note_on_c, 1, 37, 0
4, 317520, Note_on_c, 1, 44, 80
4, 317639, Note_on_c, 1, 44, 0
4, 317760, Note_on_c, 1, 37, 80
4, 317879, Note_on_c, 1, 37, 0
4, 318000, Note_on_c, 1, 44, 80
4, 318119, Note_on_c, 1, 44, 0
4, 318240, Note_on_c, 1, 37, 80
4, 318359, Note_on_c, 1, 37, 0
4, 318480, Note_on_c, 1, 44, 80
4, 318599, Note_on_c, 1, 44, 0
4, 318720, Note_on_c, 1, 37, 80
4, 318839, Note_on_c, 1, 37, 0
4, 318960, Note_on_c, 1, 44, 80
4, 319079, Note_on_c, 1, 44, 0
4, 319200, Note_on_c, 1, 37, 80
4, 319319, Note_on_c, 1, 37, 0
4, 319440, Note_on_c, 1, 44, 80
4, 319559, Note_on_c, 1, 44, 0
4, 319680, Note_on_c, 1, 37, 80
4, 319799, Note_on_c, 1, 37, 0
4, 319920, Note_on_c, 1, 44, 80
4, 320039, Note_on_c, 1, 44, 0
4, 320160, Note_on_c, 1, 49, 80
4, 320160, Note_on_c, 1, 37, 80
4, 320399, Note_on_c, 1, 49, 0
4, 320399, Note_on_c, 1, 37, 0
4, 320400, Note_on_c, 1, 44, 80
4, 320519, Note_on_c, 1, 44, 0
4, 320640, Note_on_c, 1, 36, 80
4, 320759, Note_on_c, 1, 36, 0
4, 320880, Note_on_c, 1, 44, 80
4, 320999, Note_on_c, 1, 44, 0
4, 321120, Note_on_c, 1, 36, 80
4, 321239, Note_on_c, 1, 36, 0
4, 321360, Note_on_c, 1, 44, 80
4, 321479, Note_on_c, 1, 44, 0
4, 321600, Note_on_c, 1, 36, 80
4, 321719, Note_on_c, 1, 36, 0
4, 321840, Note_on_c, 1, 44, 80
4, 321959, Note_on_c, 1, 44, 0
4, 322080, Note_on_c, 1, 36, 80
4, 322199, Note_on_c, 1, 36, 0
4, 322320, Note_on_c, 1, 44, 80
4, 322439, Note_on_c, 1, 44, 0
4, 322560, Note_on_c, 1, 36, 80
4, 322679, Note_on_c, 1, 36, 0
4, 322800, Note_on_c, 1, 44, 80
4, 322919, Note_on_c, 1, 44, 0
4, 323040, Note_on_c, 1, 36, 80
4, 323159, Note_on_c, 1, 36, 0
4, 323280, Note_on_c, 1, 44, 80
4, 323399, Note_on_c, 1, 44, 0
4, 323520, Note_on_c, 1, 36, 80
4, 323639, Note_on_c, 1, 36, 0
4, 323760, Note_on_c, 1, 44, 80
4, 323879, Note_on_c, 1, 44, 0
4, 324000, Note_on_c, 1, 48, 80
4, 324000, Note_on_c, 1, 36, 80
4, 324239, Note_on_c, 1, 48, 0
4, 324239, Note_on_c, 1, 36, 0
4, 324240, Note_on_c, 1, 44, 80
4, 324359, Note_on_c, 1, 44, 0
4, 324480, Note_on_c, 1, 35, 80
4, 324599, Note_on_c, 1, 35, 0
4, 324720, Note_on_c, 1, 44, 80
4, 324839, Note_on_c, 1, 44, 0
4, 324960, Note_on_c, 1, 35, 80
4, 325079, Note_on_c, 1, 35, 0
4, 325200, Note_on_c, 1, 44, 80
4, 325319, Note_on_c, 1, 44, 0
4, 325440, Note_on_c, 1, 35, 80
4, 325559, Note_on_c, 1, 35, 0
4, 325680, Note_on_c, 1, 44, 80
4, 325799, Note_on_c, 1, 44, 0
4, 325920, Note_on_c, 1, 35, 80
4, 326039, Note_on_c, 1, 35, 0
4, 326160, Note_on_c, 1, 44, 80
4, 326279, Note_on_c, 1, 44, 0
4, 326400, Note_on_c, 1, 35, 80
4, 326519, Note_on_c, 1, 35, 0
4, 326640, Note_on_c, 1, 44, 80
4, 326759, Note_on_c, 1, 44, 0
4, 326880, Note_on_c, 1, 35, 80
4, 326999, Note_on_c, 1, 35, 0
4, 327120, Note_on_c, 1, 44, 80
4, 327239, Note_on_c, 1, 44, 0
4, 327360, Note_on_c, 1, 35, 80
4, 327479, Note_on_c, 1, 35, 0
4, 327600, Note_on_c, 1, 44, 80
4, 327719, Note_on_c, 1, 44, 0
4, 327840, Note_on_c, 1, 47, 80
4, 327840, Note_on_c, 1, 35, 80
4, 328079, Note_on_c, 1, 47, 0
4, 328079, Note_on_c, 1, 35, 0
4, 328080, Note_on_c, 1, 44, 80
4, 328199, Note_on_c, 1, 44, 0
4, 328320, Note_on_c, 1, 33, 80
4, 328439, Note_on_c, 1, 33, 0
4, 328560, Note_on_c, 1, 45, 80
4, 328679, Note_on_c, 1, 45, 0
4, 328800, Note_on_c, 1, 33, 80
4, 328919, Note_on_c, 1, 33, 0
4, 329040, Note_on_c, 1, 45, 80
4, 329159, Note_on_c, 1, 45, 0
4, 329280, Note_on_c, 1, 33, 80
4, 329399, Note_on_c, 1, 33, 0
4, 329520, Note_on_c, 1, 45, 80
4, 329639, Note_on_c, 1, 45, 0
4, 329760, Note_on_c, 1, 33, 80
4, 329999, Note_on_c, 1, 33, 0
4, 330000, Note_on_c, 1, 45, 80
4, 330119, Note_on_c, 1, 45, 0
4, 330240, Note_on_c, 1, 33, 80
4, 330359, Note_on_c, 1, 33, 0
4, 330480, Note_on_c, 1, 45, 80
4, 330599, Note_on_c, 1, 45, 0
4, 330720, Note_on_c, 1, 33, 80
4, 330839, Note_on_c, 1, 33, 0
4, 330960, Note_on_c, 1, 45, 80
4, 331079, Note_on_c, 1, 45, 0
4, 331200, Note_on_c, 1, 33, 80
4, 331319, Note_on_c, 1, 33, 0
4, 331440, Note_on_c, 1, 45, 80
4, 331559, Note_on_c, 1, 45, 0
4, 331680, Note_on_c, 1, 33, 80
4, 331919, Note_on_c, 1, 33, 0
4, 331920, Note_on_c, 1, 45, 80
4, 332039, Note_on_c, 1, 45, 0
4, 332160, Note_on_c, 1, 44, 80
4, 332160, Note_on_c, 1, 32, 80
4, 332279, Note_on_c, 1, 44, 0
4, 332279, Note_on_c, 1, 32, 0
4, 332400, Note_on_c, 1, 56, 80
4, 335999, Note_on_c, 1, 56, 0
4, 336000, Note_on_c, 1, 56, 80
4, 339839, Note_on_c, 1, 56, 0
4, 339840, Note_on_c, 1, 60, 80
4, 339840, Note_on_c, 1, 56, 80
4, 339959, Note_on_c, 1, 60, 0
4, 339959, Note_on_c, 1, 56, 0
4, 340080, Note_on_c, 1, 61, 80
4, 340080, Note_on_c, 1, 56, 80
4, 340199, Note_on_c, 1, 61, 0
4, 340199, Note_on_c, 1, 56, 0
4, 340320, Note_on_c, 1, 60, 80
4, 340320, Note_on_c, 1, 56, 80
4, 340439, Note_on_c, 1, 60, 0
4, 340439, Note_on_c, 1, 56, 0
4, 340560, Note_on_c, 1, 61, 80
4, 340560, Note_on_c, 1, 56, 80
4, 340679, Note_on_c, 1, 61, 0
4, 340679, Note_on_c, 1, 56, 0
4, 340800, Note_on_c, 1, 60, 80
4, 340800, Note_on_c, 1, 56, 80
4, 340919, Note_on_c, 1, 60, 0
4, 340919, Note_on_c, 1, 56, 0
4, 341040, Note_on_c, 1, 61, 80
4, 341040, Note_on_c, 1, 56, 80
4, 341159, Note_on_c, 1, 61, 0
4, 341159, Note_on_c, 1, 56, 0
4, 341280, Note_on_c, 1, 60, 80
4, 341280, Note_on_c, 1, 56, 80
4, 341399, Note_on_c, 1, 60, 0
4, 341399, Note_on_c, 1, 56, 0
4, 341520, Note_on_c, 1, 61, 80
4, 341520, Note_on_c, 1, 56, 80
4, 341639, Note_on_c, 1, 61, 0
4, 341639, Note_on_c, 1, 56, 0
4, 341760, Note_on_c, 1, 60, 80
4, 341760, Note_on_c, 1, 56, 80
4, 342239, Note_on_c, 1, 60, 0
4, 342239, Note_on_c, 1, 56, 0
4, 342240, Note_on_c, 1, 44, 80
4, 342240, Note_on_c, 1, 32, 80
4, 344159, Note_on_c, 1, 44, 0
4, 344159, Note_on_c, 1, 32, 0
4, 344160, Note_on_c, 1, 49, 80
4, 344279, Note_on_c, 1, 49, 0
4, 344280, Note_on_c, 1, 56, 80
4, 344399, Note_on_c, 1, 56, 0
4, 344400, Note_on_c, 1, 52, 80
4, 344519, Note_on_c, 1, 52, 0
4, 344520, Note_on_c, 1, 56, 80
4, 344639, Note_on_c, 1, 56, 0
4, 344640, Note_on_c, 1, 49, 80
4, 344759, Note_on_c, 1, 49, 0
4, 344760, Note_on_c, 1, 56, 80
4, 344879, Note_on_c, 1, 56, 0
4, 344880, Note_on_c, 1, 52, 80
4, 344999, Note_on_c, 1, 52, 0
4, 345000, Note_on_c, 1, 56, 80
4, 345119, Note_on_c, 1, 56, 0
4, 345120, Note_on_c, 1, 49, 80
4, 345239, Note_on_c, 1, 49, 0
4, 345240, Note_on_c, 1, 56, 80
4, 345359, Note_on_c, 1, 56, 0
4, 345360, Note_on_c, 1, 52, 80
4, 345479, Note_on_c, 1, 52, 0
4, 345480, Note_on_c, 1, 56, 80
4, 345599, Note_on_c, 1, 56, 0
4, 345600, Note_on_c, 1, 49, 80
4, 345719, Note_on_c, 1, 49, 0
4, 345720, Note_on_c, 1, 56, 80
4, 345839, Note_on_c, 1, 56, 0
4, 345840, Note_on_c, 1, 52, 80
4, 345959, Note_on_c, 1, 52, 0
4, 345960, Note_on_c, 1, 56, 80
4, 346079, Note_on_c, 1, 56, 0
4, 346080, Note_on_c, 1, 51, 80
4, 346199, Note_on_c, 1, 51, 0
4, 346200, Note_on_c, 1, 56, 80
4, 346319, Note_on_c, 1, 56, 0
4, 346320, Note_on_c, 1, 54, 80
4, 346439, Note_on_c, 1, 54, 0
4, 346440, Note_on_c, 1, 56, 80
4, 346559, Note_on_c, 1, 56, 0
4, 346560, Note_on_c, 1, 51, 80
4, 346679, Note_on_c, 1, 51, 0
4, 346680, Note_on_c, 1, 56, 80
4, 346799, Note_on_c, 1, 56, 0
4, 346800, Note_on_c, 1, 54, 80
4, 346919, Note_on_c, 1, 54, 0
4, 346920, Note_on_c, 1, 56, 80
4, 347039, Note_on_c, 1, 56, 0
4, 347040, Note_on_c, 1, 51, 80
4, 347159, Note_on_c, 1, 51, 0
4, 347160, Note_on_c, 1, 56, 80
4, 347279, Note_on_c, 1, 56, 0
4, 347280, Note_on_c, 1, 54, 80
4, 347399, Note_on_c, 1, 54, 0
4, 347400, Note_on_c, 1, 56, 80
4, 347519, Note_on_c, 1, 56, 0
4, 347520, Note_on_c, 1, 51, 80
4, 347639, Note_on_c, 1, 51, 0
4, 347640, Note_on_c, 1, 56, 80
4, 347759, Note_on_c, 1, 56, 0
4, 347760, Note_on_c, 1, 54, 80
4, 347879, Note_on_c, 1, 54, 0
4, 347880, Note_on_c, 1, 56, 80
4, 347999, Note_on_c, 1, 56, 0
4, 348000, Note_on_c, 1, 52, 80
4, 348119, Note_on_c, 1, 52, 0
4, 348120, Note_on_c, 1, 56, 80
4, 348239, Note_on_c, 1, 56, 0
4, 348240, Note_on_c, 1, 52, 80
4, 348359, Note_on_c, 1, 52, 0
4, 348360, Note_on_c, 1, 56, 80
4, 348479, Note_on_c, 1, 56, 0
4, 348480, Note_on_c, 1, 52, 80
4, 348599, Note_on_c, 1, 52, 0
4, 348600, Note_on_c, 1, 56, 80
4, 348719, Note_on_c, 1, 56, 0
4, 348720, Note_on_c, 1, 52, 80
4, 348839, Note_on_c, 1, 52, 0
4, 348840, Note_on_c, 1, 56, 80
4, 348959, Note_on_c, 1, 56, 0
4, 348960, Note_on_c, 1, 52, 80
4, 349079, Note_on_c, 1, 52, 0
4, 349080, Note_on_c, 1, 56, 80
4, 349199, Note_on_c, 1, 56, 0
4, 349200, Note_on_c, 1, 52, 80
4, 349319, Note_on_c, 1, 52, 0
4, 349320, Note_on_c, 1, 56, 80
4, 349439, Note_on_c, 1, 56, 0
4, 349440, Note_on_c, 1, 52, 80
4, 349559, Note_on_c, 1, 52, 0
4, 349560, Note_on_c, 1, 56, 80
4, 349679, Note_on_c, 1, 56, 0
4, 349680, Note_on_c, 1, 52, 80
4, 349799, Note_on_c, 1, 52, 0
4, 349800, Note_on_c, 1, 56, 80
4, 349919, Note_on_c, 1, 56, 0
4, 349920, Note_on_c, 1, 48, 80
4, 350039, Note_on_c, 1, 48, 0
4, 350040, Note_on_c, 1, 56, 80
4, 350159, Note_on_c, 1, 56, 0
4, 350160, Note_on_c, 1, 48, 80
4, 350279, Note_on_c, 1, 48, 0
4, 350280, Note_on_c, 1, 56, 80
4, 350399, Note_on_c, 1, 56, 0
4, 350400, Note_on_c, 1, 48, 80
4, 350519, Note_on_c, 1, 48, 0
4, 350520, Note_on_c, 1, 56, 80
4, 350639, Note_on_c, 1, 56, 0
4, 350640, Note_on_c, 1, 48, 80
4, 350759, Note_on_c, 1, 48, 0
4, 350760, Note_on_c, 1, 56, 80
4, 350879, Note_on_c, 1, 56, 0
4, 350880, Note_on_c, 1, 48, 80
4, 350999, Note_on_c, 1, 48, 0
4, 351000, Note_on_c, 1, 56, 80
4, 351119, Note_on_c, 1, 56, 0
4, 351120, Note_on_c, 1, 48, 80
4, 351239, Note_on_c, 1, 48, 0
4, 351240, Note_on_c, 1, 56, 80
4, 351359, Note_on_c, 1, 56, 0
4, 351360, Note_on_c, 1, 48, 80
4, 351479, Note_on_c, 1, 48, 0
4, 351480, Note_on_c, 1, 56, 80
4, 351599, Note_on_c, 1, 56, 0
4, 351600, Note_on_c, 1, 48, 80
4, 351719, Note_on_c, 1, 48, 0
4, 351720, Note_on_c, 1, 56, 80
4, 351839, Note_on_c, 1, 56, 0
4, 351840, Note_on_c, 1, 49, 80
4, 351959, Note_on_c, 1, 49, 0
4, 351960, Note_on_c, 1, 56, 80
4, 352079, Note_on_c, 1, 56, 0
4, 352080, Note_on_c, 1, 52, 80
4, 352199, Note_on_c, 1, 52, 0
4, 352200, Note_on_c, 1, 56, 80
4, 352319, Note_on_c, 1, 56, 0
4, 352320, Note_on_c, 1, 49, 80
4, 352439, Note_on_c, 1, 49, 0
4, 352440, Note_on_c, 1, 56, 80
4, 352559, Note_on_c, 1, 56, 0
4, 352560, Note_on_c, 1, 52, 80
4, 352679, Note_on_c, 1, 52, 0
4, 352680, Note_on_c, 1, 56, 80
4, 352799, Note_on_c, 1, 56, 0
4, 352800, Note_on_c, 1, 49, 80
4, 352919, Note_on_c, 1, 49, 0
4, 352920, Note_on_c, 1, 56, 80
4, 353039, Note_on_c, 1, 56, 0
4, 353040, Note_on_c, 1, 52, 80
4, 353159, Note_on_c, 1, 52, 0
4, 353160, Note_on_c, 1, 56, 80
4, 353279, Note_on_c, 1, 56, 0
4, 353280, Note_on_c, 1, 49, 80
4, 353399, Note_on_c, 1, 49, 0
4, 353400, Note_on_c, 1, 56, 80
4, 353519, Note_on_c, 1, 56, 0
4, 353520, Note_on_c, 1, 52, 80
4, 353639, Note_on_c, 1, 52, 0
4, 353640, Note_on_c, 1, 56, 80
4, 353759, Note_on_c, 1, 56, 0
4, 353760, Note_on_c, 1, 51, 80
4, 353879, Note_on_c, 1, 51, 0
4, 353880, Note_on_c, 1, 56, 80
4, 353999, Note_on_c, 1, 56, 0
4, 354000, Note_on_c, 1, 54, 80
4, 354119, Note_on_c, 1, 54, 0
4, 354120, Note_on_c, 1, 56, 80
4, 354239, Note_on_c, 1, 56, 0
4, 354240, Note_on_c, 1, 51, 80
4, 354359, Note_on_c, 1, 51, 0
4, 354360, Note_on_c, 1, 56, 80
4, 354479, Note_on_c, 1, 56, 0
4, 354480, Note_on_c, 1, 54, 80
4, 354599, Note_on_c, 1, 54, 0
4, 354600, Note_on_c, 1, 56, 80
4, 354719, Note_on_c, 1, 56, 0
4, 354720, Note_on_c, 1, 51, 80
4, 354839, Note_on_c, 1, 51, 0
4, 354840, Note_on_c, 1, 56, 80
4, 354959, Note_on_c, 1, 56, 0
4, 354960, Note_on_c, 1, 54, 80
4, 355079, Note_on_c, 1, 54, 0
4, 355080, Note_on_c, 1, 56, 80
4, 355199, Note_on_c, 1, 56, 0
4, 355200, Note_on_c, 1, 51, 80
4, 355319, Note_on_c, 1, 51, 0
4, 355320, Note_on_c, 1, 56, 80
4, 355439, Note_on_c, 1, 56, 0
4, 355440, Note_on_c, 1, 54, 80
4, 355559, Note_on_c, 1, 54, 0
4, 355560, Note_on_c, 1, 56, 80
4, 355679, Note_on_c, 1, 56, 0
4, 355680, Note_on_c, 1, 52, 80
4, 355799, Note_on_c, 1, 52, 0
4, 355800, Note_on_c, 1, 56, 80
4, 355919, Note_on_c, 1, 56, 0
4, 355920, Note_on_c, 1, 52, 80
4, 356039, Note_on_c, 1, 52, 0
4, 356040, Note_on_c, 1, 56, 80
4, 356159, Note_on_c, 1, 56, 0
4, 356160, Note_on_c, 1, 52, 80
4, 356279, Note_on_c, 1, 52, 0
4, 356280, Note_on_c, 1, 56, 80
4, 356399, Note_on_c, 1, 56, 0
4, 356400, Note_on_c, 1, 52, 80
4, 356519, Note_on_c, 1, 52, 0
4, 356520, Note_on_c, 1, 56, 80
4, 356639, Note_on_c, 1, 56, 0
4, 356640, Note_on_c, 1, 52, 80
4, 356759, Note_on_c, 1, 52, 0
4, 356760, Note_on_c, 1, 56, 80
4, 356879, Note_on_c, 1, 56, 0
4, 356880, Note_on_c, 1, 52, 80
4, 356999, Note_on_c, 1, 52, 0
4, 357000, Note_on_c, 1, 56, 80
4, 357119, Note_on_c, 1, 56, 0
4, 357120, Note_on_c, 1, 52, 80
4, 357239, Note_on_c, 1, 52, 0
4, 357240, Note_on_c, 1, 56, 80
4, 357359, Note_on_c, 1, 56, 0
4, 357360, Note_on_c, 1, 52, 80
4, 357479, Note_on_c, 1, 52, 0
4, 357480, Note_on_c, 1, 56, 80
4, 357599, Note_on_c, 1, 56, 0
4, 357600, Note_on_c, 1, 48, 80
4, 357719, Note_on_c, 1, 48, 0
4, 357720, Note_on_c, 1, 56, 80
4, 357839, Note_on_c, 1, 56, 0
4, 357840, Note_on_c, 1, 48, 80
4, 357959, Note_on_c, 1, 48, 0
4, 357960, Note_on_c, 1, 56, 80
4, 358079, Note_on_c, 1, 56, 0
4, 358080, Note_on_c, 1, 48, 80
4, 358199, Note_on_c, 1, 48, 0
4, 358200, Note_on_c, 1, 56, 80
4, 358319, Note_on_c, 1, 56, 0
4, 358320, Note_on_c, 1, 48, 80
4, 358439, Note_on_c, 1, 48, 0
4, 358440, Note_on_c, 1, 56, 80
4, 358559, Note_on_c, 1, 56, 0
4, 358560, Note_on_c, 1, 48, 80
4, 358679, Note_on_c, 1, 48, 0
4, 358680, Note_on_c, 1, 56, 80
4, 358799, Note_on_c, 1, 56, 0
4, 358800, Note_on_c, 1, 48, 80
4, 358919, Note_on_c, 1, 48, 0
4, 358920, Note_on_c, 1, 56, 80
4, 359039, Note_on_c, 1, 56, 0
4, 359040, Note_on_c, 1, 48, 80
4, 359159, Note_on_c, 1, 48, 0
4, 359160, Note_on_c, 1, 56, 80
4, 359279, Note_on_c, 1, 56, 0
4, 359280, Note_on_c, 1, 48, 80
4, 359399, Note_on_c, 1, 48, 0
4, 359400, Note_on_c, 1, 56, 80
4, 359519, Note_on_c, 1, 56, 0
4, 359520, Note_on_c, 1, 47, 80
4, 359639, Note_on_c, 1, 47, 0
4, 359640, Note_on_c, 1, 56, 80
4, 359759, Note_on_c, 1, 56, 0
4, 359760, Note_on_c, 1, 49, 80
4, 359879, Note_on_c, 1, 49, 0
4, 359880, Note_on_c, 1, 56, 80
4, 359999, Note_on_c, 1, 56, 0
4, 360000, Note_on_c, 1, 47, 80
4, 360119, Note_on_c, 1, 47, 0
4, 360120, Note_on_c, 1, 56, 80
4, 360239, Note_on_c, 1, 56, 0
4, 360240, Note_on_c, 1, 49, 80
4, 360359, Note_on_c, 1, 49, 0
4, 360360, Note_on_c, 1, 56, 80
4, 360479, Note_on_c, 1, 56, 0
4, 360480, Note_on_c, 1, 45, 80
4, 360599, Note_on_c, 1, 45, 0
4, 360600, Note_on_c, 1, 54, 80
4, 360719, Note_on_c, 1, 54, 0
4, 360720, Note_on_c, 1, 49, 80
4, 360839, Note_on_c, 1, 49, 0
4, 360840, Note_on_c, 1, 54, 80
4, 360959, Note_on_c, 1, 54, 0
4, 360960, Note_on_c, 1, 45, 80
4, 361079, Note_on_c, 1, 45, 0
4, 361080, Note_on_c, 1, 54, 80
4, 361199, Note_on_c, 1, 54, 0
4, 361200, Note_on_c, 1, 49, 80
4, 361319, Note_on_c, 1, 49, 0
4, 361320, Note_on_c, 1, 54, 80
4, 361439, Note_on_c, 1, 54, 0
4, 361440, Note_on_c, 1, 45, 80
4, 361559, Note_on_c, 1, 45, 0
4, 361560, Note_on_c, 1, 54, 80
4, 361679, Note_on_c, 1, 54, 0
4, 361680, Note_on_c, 1, 47, 80
4, 361799, Note_on_c, 1, 47, 0
4, 361800, Note_on_c, 1, 54, 80
4, 361919, Note_on_c, 1, 54, 0
4, 361920, Note_on_c, 1, 44, 80
4, 362039, Note_on_c, 1, 44, 0
4, 362040, Note_on_c, 1, 52, 80
4, 362159, Note_on_c, 1, 52, 0
4, 362160, Note_on_c, 1, 47, 80
4, 362279, Note_on_c, 1, 47, 0
4, 362280, Note_on_c, 1, 52, 80
4, 362399, Note_on_c, 1, 52, 0
4, 362400, Note_on_c, 1, 44, 80
4, 362519, Note_on_c, 1, 44, 0
4, 362520, Note_on_c, 1, 52, 80
4, 362639, Note_on_c, 1, 52, 0
4, 362640, Note_on_c, 1, 47, 80
4, 362759, Note_on_c, 1, 47, 0
4, 362760, Note_on_c, 1, 52, 80
4, 362879, Note_on_c, 1, 52, 0
4, 362880, Note_on_c, 1, 44, 80
4, 362999, Note_on_c, 1, 44, 0
4, 363000, Note_on_c, 1, 52, 80
4, 363119, Note_on_c, 1, 52, 0
4, 363120, Note_on_c, 1, 47, 80
4, 363239, Note_on_c, 1, 47, 0
4, 363240, Note_on_c, 1, 52, 80
4, 363359, Note_on_c, 1, 52, 0
4, 363360, Note_on_c, 1, 43, 80
4, 363479, Note_on_c, 1, 43, 0
4, 363480, Note_on_c, 1, 52, 80
4, 363599, Note_on_c, 1, 52, 0
4, 363600, Note_on_c, 1, 45, 80
4, 363719, Note_on_c, 1, 45, 0
4, 363720, Note_on_c, 1, 52, 80
4, 363839, Note_on_c, 1, 52, 0
4, 363840, Note_on_c, 1, 43, 80
4, 363959, Note_on_c, 1, 43, 0
4, 363960, Note_on_c, 1, 52, 80
4, 364079, Note_on_c, 1, 52, 0
4, 364080, Note_on_c, 1, 45, 80
4, 364199, Note_on_c, 1, 45, 0
4, 364200, Note_on_c, 1, 52, 80
4, 364319, Note_on_c, 1, 52, 0
4, 364320, Note_on_c, 1, 42, 80
4, 364439, Note_on_c, 1, 42, 0
4, 364440, Note_on_c, 1, 50, 80
4, 364559, Note_on_c, 1, 50, 0
4, 364560, Note_on_c, 1, 45, 80
4, 364679, Note_on_c, 1, 45, 0
4, 364680, Note_on_c, 1, 50, 80
4, 364799, Note_on_c, 1, 50, 0
4, 364800, Note_on_c, 1, 42, 80
4, 364919, Note_on_c, 1, 42, 0
4, 364920, Note_on_c, 1, 50, 80
4, 365039, Note_on_c, 1, 50, 0
4, 365040, Note_on_c, 1, 45, 80
4, 365159, Note_on_c, 1, 45, 0
4, 365160, Note_on_c, 1, 50, 80
4, 365279, Note_on_c, 1, 50, 0
4, 365280, Note_on_c, 1, 42, 80
4, 365399, Note_on_c, 1, 42, 0
4, 365400, Note_on_c, 1, 51, 80
4, 365519, Note_on_c, 1, 51, 0
4, 365520, Note_on_c, 1, 44, 80
4, 365639, Note_on_c, 1, 44, 0
4, 365640, Note_on_c, 1, 51, 80
4, 365759, Note_on_c, 1, 51, 0
4, 365760, Note_on_c, 1, 40, 80
4, 365879, Note_on_c, 1, 40, 0
4, 365880, Note_on_c, 1, 49, 80
4, 365999, Note_on_c, 1, 49, 0
4, 366000, Note_on_c, 1, 44, 80
4, 366119, Note_on_c, 1, 44, 0
4, 366120, Note_on_c, 1, 49, 80
4, 366239, Note_on_c, 1, 49, 0
4, 366240, Note_on_c, 1, 40, 80
4, 366359, Note_on_c, 1, 40, 0
4, 366360, Note_on_c, 1, 49, 80
4, 366479, Note_on_c, 1, 49, 0
4, 366480, Note_on_c, 1, 44, 80
4, 366599, Note_on_c, 1, 44, 0
4, 366600, Note_on_c, 1, 49, 80
4, 366719, Note_on_c, 1, 49, 0
4, 366720, Note_on_c, 1, 40, 80
4, 366839, Note_on_c, 1, 40, 0
4, 366840, Note_on_c, 1, 49, 80
4, 366959, Note_on_c, 1, 49, 0
4, 366960, Note_on_c, 1, 44, 80
4, 367079, Note_on_c, 1, 44, 0
4, 367080, Note_on_c, 1, 49, 80
4, 367199, Note_on_c, 1, 49, 0
4, 367200, Note_on_c, 1, 54, 80
4, 367200, Note_on_c, 1, 50, 80
4, 367200, Note_on_c, 1, 45, 80
4, 367200, Note_on_c, 1, 42, 80
4, 368639, Note_on_c, 1, 54, 0
4, 368639, Note_on_c, 1, 50, 0
4, 368639, Note_on_c, 1, 45, 0
4, 368639, Note_on_c, 1, 42, 0
4, 369120, Note_on_c, 1, 62, 80
4, 369120, Note_on_c, 1, 57, 80
4, 369120, Note_on_c, 1, 54, 80
4, 369599, Note_on_c, 1, 62, 0
4, 369599, Note_on_c, 1, 57, 0
4, 369599, Note_on_c, 1, 54, 0
4, 370080, Note_on_c, 1, 62, 80
4, 370080, Note_on_c, 1, 57, 80
4, 370080, Note_on_c, 1, 54, 80
4, 370559, Note_on_c, 1, 62, 0
4, 370559, Note_on_c, 1, 57, 0
4, 370559, Note_on_c, 1, 54, 0
4, 371040, Note_on_c, 1, 62, 80
4, 371040, Note_on_c, 1, 57, 80
4, 371040, Note_on_c, 1, 54, 80
4, 371519, Note_on_c, 1, 62, 0
4, 371519, Note_on_c, 1, 57, 0
4, 371519, Note_on_c, 1, 54, 0
4, 371520, Note_on_c, 1, 62, 80
4, 371520, Note_on_c, 1, 57, 80
4, 371520, Note_on_c, 1, 54, 80
4, 371999, Note_on_c, 1, 62, 0
4, 371999, Note_on_c, 1, 57, 0
4, 371999, Note_on_c, 1, 54, 0
4, 372000, Note_on_c, 1, 62, 80
4, 372000, Note_on_c, 1, 57, 80
4, 372000, Note_on_c, 1, 54, 80
4, 372479, Note_on_c, 1, 62, 0
4, 372479, Note_on_c, 1, 57, 0
4, 372479, Note_on_c, 1, 54, 0
4, 372480, Note_on_c, 1, 62, 80
4, 372480, Note_on_c, 1, 57, 80
4, 372480, Note_on_c, 1, 54, 80
4, 372959, Note_on_c, 1, 62, 0
4, 372959, Note_on_c, 1, 57, 0
4, 372959, Note_on_c, 1, 54, 0
4, 372960, Note_on_c, 1, 56, 80
4, 373079, Note_on_c, 1, 56, 0
4, 373080, Note_on_c, 1, 64, 80
4, 373199, Note_on_c, 1, 64, 0
4, 373200, Note_on_c, 1, 61, 80
4, 373319, Note_on_c, 1, 61, 0
4, 373320, Note_on_c, 1, 64, 80
4, 373439, Note_on_c, 1, 64, 0
4, 373440, Note_on_c, 1, 56, 80
4, 373559, Note_on_c, 1, 56, 0
4, 373560, Note_on_c, 1, 64, 80
4, 373679, Note_on_c, 1, 64, 0
4, 373680, Note_on_c, 1, 61, 80
4, 373799, Note_on_c, 1, 61, 0
4, 373800, Note_on_c, 1, 64, 80
4, 373919, Note_on_c, 1, 64, 0
4, 373920, Note_on_c, 1, 56, 80
4, 374039, Note_on_c, 1, 56, 0
4, 374040, Note_on_c, 1, 66, 80
4, 374159, Note_on_c, 1, 66, 0
4, 374160, Note_on_c, 1, 60, 80
4, 374279, Note_on_c, 1, 60, 0
4, 374280, Note_on_c, 1, 66, 80
4, 374399, Note_on_c, 1, 66, 0
4, 374400, Note_on_c, 1, 56, 80
4, 374519, Note_on_c, 1, 56, 0
4, 374520, Note_on_c, 1, 66, 80
4, 374639, Note_on_c, 1, 66, 0
4, 374640, Note_on_c, 1, 60, 80
4, 374759, Note_on_c, 1, 60, 0
4, 374760, Note_on_c, 1, 66, 80
4, 374879, Note_on_c, 1, 66, 0
4, 374880, Note_on_c, 1, 64, 80
4, 374880, Note_on_c, 1, 61, 80
4, 374880, Note_on_c, 1, 57, 80
4, 375119, Note_on_c, 1, 64, 0
4, 375119, Note_on_c, 1, 61, 0
4, 375119, Note_on_c, 1, 57, 0
4, 375360, Note_on_c, 1, 62, 80
4, 375360, Note_on_c, 1, 57, 80
4, 375360, Note_on_c, 1, 54, 80
4, 375360, Note_on_c, 1, 50, 80
4, 375839, Note_on_c, 1, 54, 0
4, 375840, Note_on_c, 1, 54, 80
4, 375959, Note_on_c, 1, 54, 0
4, 375959, Note_on_c, 1, 62, 0
4, 375959, Note_on_c, 1, 57, 0
4, 375959, Note_on_c, 1, 50, 0
4, 377280, Note_on_c, 1, 50, 80
4, 377280, Note_on_c, 1, 45, 80
4, 377280, Note_on_c, 1, 42, 80
4, 377519, Note_on_c, 1, 50, 0
4, 377519, Note_on_c, 1, 45, 0
4, 377519, Note_on_c, 1, 42, 0
4, 378240, Note_on_c, 1, 50, 80
4, 378240, Note_on_c, 1, 45, 80
4, 378240, Note_on_c, 1, 42, 80
4, 378479, Note_on_c, 1, 50, 0
4, 378479, Note_on_c, 1, 45, 0
4, 378479, Note_on_c, 1, 42, 0
4, 378960, Note_on_c, 1, 50, 80
4, 378960, Note_on_c, 1, 45, 80
4, 378960, Note_on_c, 1, 42, 80
4, 379199, Note_on_c, 1, 50, 0
4, 379199, Note_on_c, 1, 45, 0
4, 379199, Note_on_c, 1, 42, 0
4, 379440, Note_on_c, 1, 50, 80
4, 379440, Note_on_c, 1, 45, 80
4, 379440, Note_on_c, 1, 42, 80
4, 379679, Note_on_c, 1, 50, 0
4, 379679, Note_on_c, 1, 45, 0
4, 379679, Note_on_c, 1, 42, 0
4, 379920, Note_on_c, 1, 50, 80
4, 379920, Note_on_c, 1, 45, 80
4, 379920, Note_on_c, 1, 42, 80
4, 380159, Note_on_c, 1, 50, 0
4, 380159, Note_on_c, 1, 45, 0
4, 380159, Note_on_c, 1, 42, 0
4, 380400, Note_on_c, 1, 50, 80
4, 380400, Note_on_c, 1, 45, 80
4, 380400, Note_on_c, 1, 42, 80
4, 380639, Note_on_c, 1, 50, 0
4, 380639, Note_on_c, 1, 45, 0
4, 380639, Note_on_c, 1, 42, 0
4, 380640, Note_on_c, 1, 42, 80
4, 380759, Note_on_c, 1, 42, 0
4, 380760, Note_on_c, 1, 50, 80
4, 380879, Note_on_c, 1, 50, 0
4, 380880, Note_on_c, 1, 45, 80
4, 380999, Note_on_c, 1, 45, 0
4, 381000, Note_on_c, 1, 50, 80
4, 381119, Note_on_c, 1, 50, 0
4, 381120, Note_on_c, 1, 42, 80
4, 381239, Note_on_c, 1, 42, 0
4, 381240, Note_on_c, 1, 50, 80
4, 381359, Note_on_c, 1, 50, 0
4, 381360, Note_on_c, 1, 45, 80
4, 381479, Note_on_c, 1, 45, 0
4, 381480, Note_on_c, 1, 50, 80
4, 381599, Note_on_c, 1, 50, 0
4, 381600, Note_on_c, 1, 43, 80
4, 381719, Note_on_c, 1, 43, 0
4, 381720, Note_on_c, 1, 52, 80
4, 381839, Note_on_c, 1, 52, 0
4, 381840, Note_on_c, 1, 46, 80
4, 381959, Note_on_c, 1, 46, 0
4, 381960, Note_on_c, 1, 52, 80
4, 382079, Note_on_c, 1, 52, 0
4, 382080, Note_on_c, 1, 43, 80
4, 382199, Note_on_c, 1, 43, 0
4, 382200, Note_on_c, 1, 52, 80
4, 382319, Note_on_c, 1, 52, 0
4, 382320, Note_on_c, 1, 46, 80
4, 382439, Note_on_c, 1, 46, 0
4, 382440, Note_on_c, 1, 52, 80
4, 382559, Note_on_c, 1, 52, 0
4, 382560, Note_on_c, 1, 44, 80
4, 382679, Note_on_c, 1, 44, 0
4, 382680, Note_on_c, 1, 52, 80
4, 382799, Note_on_c, 1, 52, 0
4, 382800, Note_on_c, 1, 49, 80
4, 382919, Note_on_c, 1, 49, 0
4, 382920, Note_on_c, 1, 52, 80
4, 383039, Note_on_c, 1, 52, 0
4, 383040, Note_on_c, 1, 44, 80
4, 383159, Note_on_c, 1, 44, 0
4, 383160, Note_on_c, 1, 52, 80
4, 383279, Note_on_c, 1, 52, 0
4, 383280, Note_on_c, 1, 49, 80
4, 383399, Note_on_c, 1, 49, 0
4, 383400, Note_on_c, 1, 52, 80
4, 383519, Note_on_c, 1, 52, 0
4, 383520, Note_on_c, 1, 32, 80
4, 383639, Note_on_c, 1, 32, 0
4, 383640, Note_on_c, 1, 44, 80
4, 383759, Note_on_c, 1, 44, 0
4, 383760, Note_on_c, 1, 43, 80
4, 383879, Note_on_c, 1, 43, 0
4, 383880, Note_on_c, 1, 44, 80
4, 383999, Note_on_c, 1, 44, 0
4, 384000, Note_on_c, 1, 43, 80
4, 384119, Note_on_c, 1, 43, 0
4, 384120, Note_on_c, 1, 44, 80
4, 384239, Note_on_c, 1, 44, 0
4, 384240, Note_on_c, 1, 43, 80
4, 384359, Note_on_c, 1, 43, 0
4, 384360, Note_on_c, 1, 44, 80
4, 384479, Note_on_c, 1, 44, 0
4, 384480, Note_on_c, 1, 37, 80
4, 384719, Note_on_c, 1, 37, 0
4, 384720, Note_on_c, 1, 49, 80
4, 384839, Note_on_c, 1, 49, 0
4, 384960, Note_on_c, 1, 49, 80
4, 385079, Note_on_c, 1, 49, 0
4, 385200, Note_on_c, 1, 49, 80
4, 385319, Note_on_c, 1, 49, 0
4, 385440, Note_on_c, 1, 49, 80
4, 385559, Note_on_c, 1, 49, 0
4, 385680, Note_on_c, 1, 49, 80
4, 385799, Note_on_c, 1, 49, 0
4, 385920, Note_on_c, 1, 51, 80
4, 386039, Note_on_c, 1, 51, 0
4, 386160, Note_on_c, 1, 52, 80
4, 386279, Note_on_c, 1, 52, 0
4, 386400, Note_on_c, 1, 54, 80
4, 386400, Note_on_c, 1, 44, 80
4, 386639, Note_on_c, 1, 54, 0
4, 386639, Note_on_c, 1, 44, 0
4, 386640, Note_on_c, 1, 56, 80
4, 386640, Note_on_c, 1, 54, 80
4, 386879, Note_on_c, 1, 56, 0
4, 386879, Note_on_c, 1, 54, 0
4, 386880, Note_on_c, 1, 56, 80
4, 386880, Note_on_c, 1, 54, 80
4, 387119, Note_on_c, 1, 56, 0
4, 387119, Note_on_c, 1, 54, 0
4, 387120, Note_on_c, 1, 56, 80
4, 387120, Note_on_c, 1, 54, 80
4, 387359, Note_on_c, 1, 56, 0
4, 387359, Note_on_c, 1, 54, 0
4, 387360, Note_on_c, 1, 56, 80
4, 387360, Note_on_c, 1, 54, 80
4, 387599, Note_on_c, 1, 56, 0
4, 387599, Note_on_c, 1, 54, 0
4, 387600, Note_on_c, 1, 56, 80
4, 387600, Note_on_c, 1, 54, 80
4, 387839, Note_on_c, 1, 56, 0
4, 387839, Note_on_c, 1, 54, 0
4, 387840, Note_on_c, 1, 56, 80
4, 387840, Note_on_c, 1, 52, 80
4, 388079, Note_on_c, 1, 56, 0
4, 388079, Note_on_c, 1, 52, 0
4, 388080, Note_on_c, 1, 56, 80
4, 388080, Note_on_c, 1, 51, 80
4, 388319, Note_on_c, 1, 56, 0
4, 388319, Note_on_c, 1, 51, 0
4, 388320, Note_on_c, 1, 49, 80
4, 388320, Note_on_c, 1, 37, 80
4, 388439, Note_on_c, 1, 49, 0
4, 388439, Note_on_c, 1, 37, 0
4, 388560, Note_on_c, 1, 52, 80
4, 388560, Note_on_c, 1, 49, 80
4, 388679, Note_on_c, 1, 52, 0
4, 388679, Note_on_c, 1, 49, 0
4, 388800, Note_on_c, 1, 52, 80
4, 388800, Note_on_c, 1, 49, 80
4, 389039, Note_on_c, 1, 52, 0
4, 389039, Note_on_c, 1, 49, 0
4, 389040, Note_on_c, 1, 56, 80
4, 389040, Note_on_c, 1, 52, 80
4, 389279, Note_on_c, 1, 56, 0
4, 389279, Note_on_c, 1, 52, 0
4, 389280, Note_on_c, 1, 42, 80
4, 389399, Note_on_c, 1, 42, 0
4, 389520, Note_on_c, 1, 54, 80
4, 389520, Note_on_c, 1, 49, 80
4, 389639, Note_on_c, 1, 54, 0
4, 389639, Note_on_c, 1, 49, 0
4, 389760, Note_on_c, 1, 54, 80
4, 389760, Note_on_c, 1, 49, 80
4, 389999, Note_on_c, 1, 54, 0
4, 389999, Note_on_c, 1, 49, 0
4, 390000, Note_on_c, 1, 57, 80
4, 390000, Note_on_c, 1, 54, 80
4, 390239, Note_on_c, 1, 57, 0
4, 390239, Note_on_c, 1, 54, 0
4, 390240, Note_on_c, 1, 44, 80
4, 390359, Note_on_c, 1, 44, 0
4, 390480, Note_on_c, 1, 52, 80
4, 390480, Note_on_c, 1, 49, 80
4, 390599, Note_on_c, 1, 52, 0
4, 390599, Note_on_c, 1, 49, 0
4, 390720, Note_on_c, 1, 52, 80
4, 390720, Note_on_c, 1, 49, 80
4, 390959, Note_on_c, 1, 52, 0
4, 390959, Note_on_c, 1, 49, 0
4, 390960, Note_on_c, 1, 56, 80
4, 390960, Note_on_c, 1, 52, 80
4, 391199, Note_on_c, 1, 56, 0
4, 391199, Note_on_c, 1, 52, 0
4, 391200, Note_on_c, 1, 44, 80
4, 391319, Note_on_c, 1, 44, 0
4, 391440, Note_on_c, 1, 51, 80
4, 391440, Note_on_c, 1, 48, 80
4, 391559, Note_on_c, 1, 51, 0
4, 391559, Note_on_c, 1, 48, 0
4, 391680, Note_on_c, 1, 51, 80
4, 391680, Note_on_c, 1, 48, 80
4, 391919, Note_on_c, 1, 51, 0
4, 391919, Note_on_c, 1, 48, 0
4, 391920, Note_on_c, 1, 56, 80
4, 391920, Note_on_c, 1, 51, 80
4, 392159, Note_on_c, 1, 56, 0
4, 392159, Note_on_c, 1, 51, 0
4, 392160, Note_on_c, 1, 49, 80
4, 392160, Note_on_c, 1, 37, 80
4, 392399, Note_on_c, 1, 49, 0
4, 392399, Note_on_c, 1, 37, 0
4, 392400, Note_on_c, 1, 56, 80
4, 392400, Note_on_c, 1, 49, 80
4, 392639, Note_on_c, 1, 56, 0
4, 392639, Note_on_c, 1, 49, 0
4, 392640, Note_on_c, 1, 56, 80
4, 392640, Note_on_c, 1, 49, 80
4, 392879, Note_on_c, 1, 56, 0
4, 392879, Note_on_c, 1, 49, 0
4, 392880, Note_on_c, 1, 56, 80
4, 392880, Note_on_c, 1, 49, 80
4, 393119, Note_on_c, 1, 56, 0
4, 393119, Note_on_c, 1, 49, 0
4, 393120, Note_on_c, 1, 56, 80
4, 393120, Note_on_c, 1, 49, 80
4, 393359, Note_on_c, 1, 56, 0
4, 393359, Note_on_c, 1, 49, 0
4, 393360, Note_on_c, 1, 56, 80
4, 393360, Note_on_c, 1, 49, 80
4, 393599, Note_on_c, 1, 56, 0
4, 393599, Note_on_c, 1, 49, 0
4, 393600, Note_on_c, 1, 56, 80
4, 393600, Note_on_c, 1, 51, 80
4, 393839, Note_on_c, 1, 56, 0
4, 393839, Note_on_c, 1, 51, 0
4, 393840, Note_on_c, 1, 56, 80
4, 393840, Note_on_c, 1, 52, 80
4, 394079, Note_on_c, 1, 56, 0
4, 394079, Note_on_c, 1, 52, 0
4, 394080, Note_on_c, 1, 56, 80
4, 394080, Note_on_c, 1, 54, 80
4, 394080, Note_on_c, 1, 44, 80
4, 394319, Note_on_c, 1, 56, 0
4, 394319, Note_on_c, 1, 54, 0
4, 394319, Note_on_c, 1, 44, 0
4, 394320, Note_on_c, 1, 66, 80
4, 394320, Note_on_c, 1, 56, 80
4, 394559, Note_on_c, 1, 66, 0
4, 394559, Note_on_c, 1, 56, 0
4, 394560, Note_on_c, 1, 66, 80
4, 394560, Note_on_c, 1, 56, 80
4, 394799, Note_on_c, 1, 66, 0
4, 394799, Note_on_c, 1, 56, 0
4, 394800, Note_on_c, 1, 66, 80
4, 394800, Note_on_c, 1, 56, 80
4, 395039, Note_on_c, 1, 66, 0
4, 395039, Note_on_c, 1, 56, 0
4, 395040, Note_on_c, 1, 66, 80
4, 395040, Note_on_c, 1, 56, 80
4, 395279, Note_on_c, 1, 66, 0
4, 395279, Note_on_c, 1, 56, 0
4, 395280, Note_on_c, 1, 66, 80
4, 395280, Note_on_c, 1, 56, 80
4, 395519, Note_on_c, 1, 66, 0
4, 395519, Note_on_c, 1, 56, 0
4, 395520, Note_on_c, 1, 64, 80
4, 395520, Note_on_c, 1, 56, 80
4, 395759, Note_on_c, 1, 64, 0
4, 395759, Note_on_c, 1, 56, 0
4, 395760, Note_on_c, 1, 63, 80
4, 395760, Note_on_c, 1, 56, 80
4, 395999, Note_on_c, 1, 63, 0
4, 395999, Note_on_c, 1, 56, 0
4, 396000, Note_on_c, 1, 49, 80
4, 396000, Note_on_c, 1, 37, 80
4, 396239, Note_on_c, 1, 49, 0
4, 396239, Note_on_c, 1, 37, 0
4, 396240, Note_on_c, 1, 56, 80
4, 396240, Note_on_c, 1, 49, 80
4, 396479, Note_on_c, 1, 56, 0
4, 396479, Note_on_c, 1, 49, 0
4, 396480, Note_on_c, 1, 56, 80
4, 396480, Note_on_c, 1, 49, 80
4, 396719, Note_on_c, 1, 56, 0
4, 396719, Note_on_c, 1, 49, 0
4, 396720, Note_on_c, 1, 56, 80
4, 396720, Note_on_c, 1, 49, 80
4, 396959, Note_on_c, 1, 56, 0
4, 396959, Note_on_c, 1, 49, 0
4, 396960, Note_on_c, 1, 56, 80
4, 396960, Note_on_c, 1, 49, 80
4, 397199, Note_on_c, 1, 56, 0
4, 397199, Note_on_c, 1, 49, 0
4, 397200, Note_on_c, 1, 56, 80
4, 397200, Note_on_c, 1, 49, 80
4, 397439, Note_on_c, 1, 56, 0
4, 397439, Note_on_c, 1, 49, 0
4, 397440, Note_on_c, 1, 56, 80
4, 397440, Note_on_c, 1, 51, 80
4, 397679, Note_on_c, 1, 56, 0
4, 397679, Note_on_c, 1, 51, 0
4, 397680, Note_on_c, 1, 56, 80
4, 397680, Note_on_c, 1, 52, 80
4, 397919, Note_on_c, 1, 56, 0
4, 397919, Note_on_c, 1, 52, 0
4, 397920, Note_on_c, 1, 56, 80
4, 397920, Note_on_c, 1, 54, 80
4, 397920, Note_on_c, 1, 44, 80
4, 398159, Note_on_c, 1, 56, 0
4, 398159, Note_on_c, 1, 54, 0
4, 398159, Note_on_c, 1, 44, 0
4, 398160, Note_on_c, 1, 66, 80
4, 398160, Note_on_c, 1, 56, 80
4, 398399, Note_on_c, 1, 66, 0
4, 398399, Note_on_c, 1, 56, 0
4, 398400, Note_on_c, 1, 66, 80
4, 398400, Note_on_c, 1, 56, 80
4, 398639, Note_on_c, 1, 66, 0
4, 398639, Note_on_c, 1, 56, 0
4, 398640, Note_on_c, 1, 66, 80
4, 398640, Note_on_c, 1, 56, 80
4, 398879, Note_on_c, 1, 66, 0
4, 398879, Note_on_c, 1, 56, 0
4, 398880, Note_on_c, 1, 66, 80
4, 398880, Note_on_c, 1, 56, 80
4, 399119, Note_on_c, 1, 66, 0
4, 399119, Note_on_c, 1, 56, 0
4, 399120, Note_on_c, 1, 66, 80
4, 399120, Note_on_c, 1, 56, 80
4, 399359, Note_on_c, 1, 66, 0
4, 399359, Note_on_c, 1, 56, 0
4, 399360, Note_on_c, 1, 64, 80
4, 399360, Note_on_c, 1, 56, 80
4, 399599, Note_on_c, 1, 64, 0
4, 399599, Note_on_c, 1, 56, 0
4, 399600, Note_on_c, 1, 63, 80
4, 399600, Note_on_c, 1, 56, 80
4, 399839, Note_on_c, 1, 63, 0
4, 399839, Note_on_c, 1, 56, 0
4, 399840, Note_on_c, 1, 61, 80
4, 399840, Note_on_c, 1, 49, 80
4, 400079, Note_on_c, 1, 61, 0
4, 400079, Note_on_c, 1, 49, 0
4, 400800, Note_on_c, 1, 54, 80
4, 400919, Note_on_c, 1, 54, 0
4, 401760, Note_on_c, 1, 56, 80
4, 401879, Note_on_c, 1, 56, 0
4, 402720, Note_on_c, 1, 54, 80
4, 402839, Note_on_c, 1, 54, 0
4, 403680, Note_on_c, 1, 52, 80
4, 403799, Note_on_c, 1, 52, 0
4, 403920, Note_on_c, 1, 61, 80
4, 403920, Note_on_c, 1, 56, 80
4, 404039, Note_on_c, 1, 61, 0
4, 404039, Note_on_c, 1, 56, 0
4, 404160, Note_on_c, 1, 61, 80
4, 404160, Note_on_c, 1, 56, 80
4, 404399, Note_on_c, 1, 61, 0
4, 404399, Note_on_c, 1, 56, 0
4, 404400, Note_on_c, 1, 64, 80
4, 404400, Note_on_c, 1, 61, 80
4, 404639, Note_on_c, 1, 64, 0
4, 404639, Note_on_c, 1, 61, 0
4, 404640, Note_on_c, 1, 42, 80
4, 404759, Note_on_c, 1, 42, 0
4, 404880, Note_on_c, 1, 57, 80
4, 404880, Note_on_c, 1, 54, 80
4, 404999, Note_on_c, 1, 57, 0
4, 404999, Note_on_c, 1, 54, 0
4, 405120, Note_on_c, 1, 57, 80
4, 405120, Note_on_c, 1, 54, 80
4, 405359, Note_on_c, 1, 57, 0
4, 405359, Note_on_c, 1, 54, 0
4, 405360, Note_on_c, 1, 62, 80
4, 405360, Note_on_c, 1, 57, 80
4, 405599, Note_on_c, 1, 62, 0
4, 405599, Note_on_c, 1, 57, 0
4, 405600, Note_on_c, 1, 44, 80
4, 405719, Note_on_c, 1, 44, 0
4, 405840, Note_on_c, 1, 56, 80
4, 405840, Note_on_c, 1, 52, 80
4, 405959, Note_on_c, 1, 56, 0
4, 405959, Note_on_c, 1, 52, 0
4, 406080, Note_on_c, 1, 56, 80
4, 406080, Note_on_c, 1, 52, 80
4, 406319, Note_on_c, 1, 56, 0
4, 406319, Note_on_c, 1, 52, 0
4, 406320, Note_on_c, 1, 61, 80
4, 406320, Note_on_c, 1, 56, 80
4, 406559, Note_on_c, 1, 61, 0
4, 406559, Note_on_c, 1, 56, 0
4, 406560, Note_on_c, 1, 44, 80
4, 406679, Note_on_c, 1, 44, 0
4, 406800, Note_on_c, 1, 54, 80
4, 406800, Note_on_c, 1, 51, 80
4, 406919, Note_on_c, 1, 54, 0
4, 406919, Note_on_c, 1, 51, 0
4, 407040, Note_on_c, 1, 54, 80
4, 407040, Note_on_c, 1, 51, 80
4, 407279, Note_on_c, 1, 54, 0
4, 407279, Note_on_c, 1, 51, 0
4, 407280, Note_on_c, 1, 60, 80
4, 407280, Note_on_c, 1, 54, 80
4, 407519, Note_on_c, 1, 60, 0
4, 407519, Note_on_c, 1, 54, 0
4, 407520, Note_on_c, 1, 37, 80
4, 407639, Note_on_c, 1, 37, 0
4, 407640, Note_on_c, 1, 49, 80
4, 407759, Note_on_c, 1, 49, 0
4, 407760, Note_on_c, 1, 44, 80
4, 407879, Note_on_c, 1, 44, 0
4, 407880, Note_on_c, 1, 49, 80
4, 407999, Note_on_c, 1, 49, 0
4, 408000, Note_on_c, 1, 37, 80
4, 408119, Note_on_c, 1, 37, 0
4, 408120, Note_on_c, 1, 49, 80
4, 408239, Note_on_c, 1, 49, 0
4, 408240, Note_on_c, 1, 44, 80
4, 408359, Note_on_c, 1, 44, 0
4, 408360, Note_on_c, 1, 49, 80
4, 408479, Note_on_c, 1, 49, 0
4, 408480, Note_on_c, 1, 37, 80
4, 408599, Note_on_c, 1, 37, 0
4, 408600, Note_on_c, 1, 49, 80
4, 408719, Note_on_c, 1, 49, 0
4, 408720, Note_on_c, 1, 44, 80
4, 408839, Note_on_c, 1, 44, 0
4, 408840, Note_on_c, 1, 49, 80
4, 408959, Note_on_c, 1, 49, 0
4, 408960, Note_on_c, 1, 37, 80
4, 409079, Note_on_c, 1, 37, 0
4, 409080, Note_on_c, 1, 49, 80
4, 409199, Note_on_c, 1, 49, 0
4, 409200, Note_on_c, 1, 44, 80
4, 409319, Note_on_c, 1, 44, 0
4, 409320, Note_on_c, 1, 49, 80
4, 409439, Note_on_c, 1, 49, 0
4, 409440, Note_on_c, 1, 37, 80
4, 409559, Note_on_c, 1, 37, 0
4, 409560, Note_on_c, 1, 51, 80
4, 409679, Note_on_c, 1, 51, 0
4, 409680, Note_on_c, 1, 44, 80
4, 409799, Note_on_c, 1, 44, 0
4, 409800, Note_on_c, 1, 51, 80
4, 409919, Note_on_c, 1, 51, 0
4, 409920, Note_on_c, 1, 37, 80
4, 410039, Note_on_c, 1, 37, 0
4, 410040, Note_on_c, 1, 51, 80
4, 410159, Note_on_c, 1, 51, 0
4, 410160, Note_on_c, 1, 44, 80
4, 410279, Note_on_c, 1, 44, 0
4, 410280, Note_on_c, 1, 51, 80
4, 410399, Note_on_c, 1, 51, 0
4, 410400, Note_on_c, 1, 37, 80
4, 410519, Note_on_c, 1, 37, 0
4, 410520, Note_on_c, 1, 51, 80
4, 410639, Note_on_c, 1, 51, 0
4, 410640, Note_on_c, 1, 44, 80
4, 410759, Note_on_c, 1, 44, 0
4, 410760, Note_on_c, 1, 51, 80
4, 410879, Note_on_c, 1, 51, 0
4, 410880, Note_on_c, 1, 37, 80
4, 410999, Note_on_c, 1, 37, 0
4, 411000, Note_on_c, 1, 51, 80
4, 411119, Note_on_c, 1, 51, 0
4, 411120, Note_on_c, 1, 44, 80
4, 411239, Note_on_c, 1, 44, 0
4, 411240, Note_on_c, 1, 51, 80
4, 411359, Note_on_c, 1, 51, 0
4, 411360, Note_on_c, 1, 37, 80
4, 411479, Note_on_c, 1, 37, 0
4, 411480, Note_on_c, 1, 49, 80
4, 411599, Note_on_c, 1, 49, 0
4, 411600, Note_on_c, 1, 44, 80
4, 411719, Note_on_c, 1, 44, 0
4, 411720, Note_on_c, 1, 49, 80
4, 411839, Note_on_c, 1, 49, 0
4, 411840, Note_on_c, 1, 37, 80
4, 411959, Note_on_c, 1, 37, 0
4, 411960, Note_on_c, 1, 49, 80
4, 412079, Note_on_c, 1, 49, 0
4, 412080, Note_on_c, 1, 44, 80
4, 412199, Note_on_c, 1, 44, 0
4, 412200, Note_on_c, 1, 49, 80
4, 412319, Note_on_c, 1, 49, 0
4, 412320, Note_on_c, 1, 37, 80
4, 412439, Note_on_c, 1, 37, 0
4, 412440, Note_on_c, 1, 49, 80
4, 412559, Note_on_c, 1, 49, 0
4, 412560, Note_on_c, 1, 44, 80
4, 412679, Note_on_c, 1, 44, 0
4, 412680, Note_on_c, 1, 49, 80
4, 412799, Note_on_c, 1, 49, 0
4, 412800, Note_on_c, 1, 37, 80
4, 412919, Note_on_c, 1, 37, 0
4, 412920, Note_on_c, 1, 49, 80
4, 413039, Note_on_c, 1, 49, 0
4, 413040, Note_on_c, 1, 44, 80
4, 413159, Note_on_c, 1, 44, 0
4, 413160, Note_on_c, 1, 49, 80
4, 413279, Note_on_c, 1, 49, 0
4, 413280, Note_on_c, 1, 37, 80
4, 413399, Note_on_c, 1, 37, 0
4, 413400, Note_on_c, 1, 51, 80
4, 413519, Note_on_c, 1, 51, 0
4, 413520, Note_on_c, 1, 44, 80
4, 413639, Note_on_c, 1, 44, 0
4, 413640, Note_on_c, 1, 51, 80
4, 413759, Note_on_c, 1, 51, 0
4, 413760, Note_on_c, 1, 37, 80
4, 413879, Note_on_c, 1, 37, 0
4, 413880, Note_on_c, 1, 51, 80
4, 413999, Note_on_c, 1, 51, 0
4, 414000, Note_on_c, 1, 44, 80
4, 414119, Note_on_c, 1, 44, 0
4, 414120, Note_on_c, 1, 51, 80
4, 414239, Note_on_c, 1, 51, 0
4, 414240, Note_on_c, 1, 37, 80
4, 414359, Note_on_c, 1, 37, 0
4, 414360, Note_on_c, 1, 51, 80
4, 414479, Note_on_c, 1, 51, 0
4, 414480, Note_on_c, 1, 44, 80
4, 414599, Note_on_c, 1, 44, 0
4, 414600, Note_on_c, 1, 51, 80
4, 414719, Note_on_c, 1, 51, 0
4, 414720, Note_on_c, 1, 37, 80
4, 414839, Note_on_c, 1, 37, 0
4, 414840, Note_on_c, 1, 51, 80
4, 414959, Note_on_c, 1, 51, 0
4, 414960, Note_on_c, 1, 44, 80
4, 415079, Note_on_c, 1, 44, 0
4, 415080, Note_on_c, 1, 51, 80
4, 415199, Note_on_c, 1, 51, 0
4, 415200, Note_on_c, 1, 37, 80
4, 415319, Note_on_c, 1, 37, 0
4, 415320, Note_on_c, 1, 49, 80
4, 415439, Note_on_c, 1, 49, 0
4, 415440, Note_on_c, 1, 44, 80
4, 415559, Note_on_c, 1, 44, 0
4, 415560, Note_on_c, 1, 49, 80
4, 415679, Note_on_c, 1, 49, 0
4, 415680, Note_on_c, 1, 37, 80
4, 415799, Note_on_c, 1, 37, 0
4, 415800, Note_on_c, 1, 49, 80
4, 415919, Note_on_c, 1, 49, 0
4, 415920, Note_on_c, 1, 44, 80
4, 416039, Note_on_c, 1, 44, 0
4, 416040, Note_on_c, 1, 49, 80
4, 416159, Note_on_c, 1, 49, 0
4, 416160, Note_on_c, 1, 37, 80
4, 416279, Note_on_c, 1, 37, 0
4, 416280, Note_on_c, 1, 51, 80
4, 416399, Note_on_c, 1, 51, 0
4, 416400, Note_on_c, 1, 44, 80
4, 416519, Note_on_c, 1, 44, 0
4, 416520, Note_on_c, 1, 51, 80
4, 416639, Note_on_c, 1, 51, 0
4, 416640, Note_on_c, 1, 37, 80
4, 416759, Note_on_c, 1, 37, 0
4, 416760, Note_on_c, 1, 51, 80
4, 416879, Note_on_c, 1, 51, 0
4, 416880, Note_on_c, 1, 44, 80
4, 416999, Note_on_c, 1, 44, 0
4, 417000, Note_on_c, 1, 51, 80
4, 417119, Note_on_c, 1, 51, 0
4, 417120, Note_on_c, 1, 37, 80
4, 417239, Note_on_c, 1, 37, 0
4, 417240, Note_on_c, 1, 49, 80
4, 417359, Note_on_c, 1, 49, 0
4, 417360, Note_on_c, 1, 44, 80
4, 417479, Note_on_c, 1, 44, 0
4, 417480, Note_on_c, 1, 49, 80
4, 417599, Note_on_c, 1, 49, 0
4, 417600, Note_on_c, 1, 37, 80
4, 417719, Note_on_c, 1, 37, 0
4, 417720, Note_on_c, 1, 49, 80
4, 417839, Note_on_c, 1, 49, 0
4, 417840, Note_on_c, 1, 44, 80
4, 417959, Note_on_c, 1, 44, 0
4, 417960, Note_on_c, 1, 49, 80
4, 418079, Note_on_c, 1, 49, 0
4, 418080, Note_on_c, 1, 37, 80
4, 418199, Note_on_c, 1, 37, 0
4, 418200, Note_on_c, 1, 51, 80
4, 418319, Note_on_c, 1, 51, 0
4, 418320, Note_on_c, 1, 44, 80
4, 418439, Note_on_c, 1, 44, 0
4, 418440, Note_on_c, 1, 51, 80
4, 418559, Note_on_c, 1, 51, 0
4, 418560, Note_on_c, 1, 37, 80
4, 418679, Note_on_c, 1, 37, 0
4, 418680, Note_on_c, 1, 51, 80
4, 418799, Note_on_c, 1, 51, 0
4, 418800, Note_on_c, 1, 44, 80
4, 418919, Note_on_c, 1, 44, 0
4, 418920, Note_on_c, 1, 51, 80
4, 419039, Note_on_c, 1, 51, 0
4, 419040, Note_on_c, 1, 37, 80
4, 419159, Note_on_c, 1, 37, 0
4, 419160, Note_on_c, 1, 49, 80
4, 419279, Note_on_c, 1, 49, 0
4, 419280, Note_on_c, 1, 44, 80
4, 419399, Note_on_c, 1, 44, 0
4, 419400, Note_on_c, 1, 49, 80
4, 419519, Note_on_c, 1, 49, 0
4, 419520, Note_on_c, 1, 37, 80
4, 419639, Note_on_c, 1, 37, 0
4, 419640, Note_on_c, 1, 49, 80
4, 419759, Note_on_c, 1, 49, 0
4, 419760, Note_on_c, 1, 44, 80
4, 419879, Note_on_c, 1, 44, 0
4, 419880, Note_on_c, 1, 49, 80
4, 419999, Note_on_c, 1, 49, 0
4, 420000, Note_on_c, 1, 37, 80
4, 420119, Note_on_c, 1, 37, 0
4, 420120, Note_on_c, 1, 49, 80
4, 420239, Note_on_c, 1, 49, 0
4, 420240, Note_on_c, 1, 44, 80
4, 420359, Note_on_c, 1, 44, 0
4, 420360, Note_on_c, 1, 49, 80
4, 420479, Note_on_c, 1, 49, 0
4, 420480, Note_on_c, 1, 37, 80
4, 420599, Note_on_c, 1, 37, 0
4, 420600, Note_on_c, 1, 49, 80
4, 420719, Note_on_c, 1, 49, 0
4, 420720, Note_on_c, 1, 44, 80
4, 420839, Note_on_c, 1, 44, 0
4, 420840, Note_on_c, 1, 49, 80
4, 420959, Note_on_c, 1, 49, 0
4, 420960, Note_on_c, 1, 35, 80
4, 421079, Note_on_c, 1, 35, 0
4, 421080, Note_on_c, 1, 47, 80
4, 421199, Note_on_c, 1, 47, 0
4, 421200, Note_on_c, 1, 37, 80
4, 421319, Note_on_c, 1, 37, 0
4, 421320, Note_on_c, 1, 47, 80
4, 421439, Note_on_c, 1, 47, 0
4, 421440, Note_on_c, 1, 35, 80
4, 421559, Note_on_c, 1, 35, 0
4, 421560, Note_on_c, 1, 47, 80
4, 421679, Note_on_c, 1, 47, 0
4, 421680, Note_on_c, 1, 37, 80
4, 421799, Note_on_c, 1, 37, 0
4, 421800, Note_on_c, 1, 47, 80
4, 421919, Note_on_c, 1, 47, 0
4, 421920, Note_on_c, 1, 35, 80
4, 422039, Note_on_c, 1, 35, 0
4, 422040, Note_on_c, 1, 47, 80
4, 422159, Note_on_c, 1, 47, 0
4, 422160, Note_on_c, 1, 37, 80
4, 422279, Note_on_c, 1, 37, 0
4, 422280, Note_on_c, 1, 47, 80
4, 422399, Note_on_c, 1, 47, 0
4, 422400, Note_on_c, 1, 35, 80
4, 422519, Note_on_c, 1, 35, 0
4, 422520, Note_on_c, 1, 47, 80
4, 422639, Note_on_c, 1, 47, 0
4, 422640, Note_on_c, 1, 37, 80
4, 422759, Note_on_c, 1, 37, 0
4, 422760, Note_on_c, 1, 47, 80
4, 422879, Note_on_c, 1, 47, 0
4, 422880, Note_on_c, 1, 45, 80
4, 422880, Note_on_c, 1, 33, 80
4, 422999, Note_on_c, 1, 45, 0
4, 422999, Note_on_c, 1, 33, 0
4, 423120, Note_on_c, 1, 42, 80
4, 423239, Note_on_c, 1, 42, 0
4, 423360, Note_on_c, 1, 33, 80
4, 423479, Note_on_c, 1, 33, 0
4, 423600, Note_on_c, 1, 42, 80
4, 423719, Note_on_c, 1, 42, 0
4, 423840, Note_on_c, 1, 33, 80
4, 423959, Note_on_c, 1, 33, 0
4, 424080, Note_on_c, 1, 42, 80
4, 424199, Note_on_c, 1, 42, 0
4, 424320, Note_on_c, 1, 33, 80
4, 424439, Note_on_c, 1, 33, 0
4, 424560, Note_on_c, 1, 42, 80
4, 424679, Note_on_c, 1, 42, 0
4, 424800, Note_on_c, 1, 33, 80
4, 424919, Note_on_c, 1, 33, 0
4, 425040, Note_on_c, 1, 42, 80
4, 425159, Note_on_c, 1, 42, 0
4, 425280, Note_on_c, 1, 33, 80
4, 425399, Note_on_c, 1, 33, 0
4, 425520, Note_on_c, 1, 42, 80
4, 425639, Note_on_c, 1, 42, 0
4, 425760, Note_on_c, 1, 33, 80
4, 425879, Note_on_c, 1, 33, 0
4, 426000, Note_on_c, 1, 42, 80
4, 426119, Note_on_c, 1, 42, 0
4, 426240, Note_on_c, 1, 45, 80
4, 426240, Note_on_c, 1, 33, 80
4, 426479, Note_on_c, 1, 45, 0
4, 426479, Note_on_c, 1, 33, 0
4, 426480, Note_on_c, 1, 42, 80
4, 426599, Note_on_c, 1, 42, 0
4, 426720, Note_on_c, 1, 32, 80
4, 426839, Note_on_c, 1, 32, 0
4, 426960, Note_on_c, 1, 40, 80
4, 427079, Note_on_c, 1, 40, 0
4, 427200, Note_on_c, 1, 32, 80
4, 427319, Note_on_c, 1, 32, 0
4, 427440, Note_on_c, 1, 40, 80
4, 427559, Note_on_c, 1, 40, 0
4, 427680, Note_on_c, 1, 32, 80
4, 427799, Note_on_c, 1, 32, 0
4, 427920, Note_on_c, 1, 40, 80
4, 428039, Note_on_c, 1, 40, 0
4, 428160, Note_on_c, 1, 32, 80
4, 428279, Note_on_c, 1, 32, 0
4, 428400, Note_on_c, 1, 40, 80
4, 428519, Note_on_c, 1, 40, 0
4, 428640, Note_on_c, 1, 32, 80
4, 428759, Note_on_c, 1, 32, 0
4, 428880, Note_on_c, 1, 40, 80
4, 428999, Note_on_c, 1, 40, 0
4, 429120, Note_on_c, 1, 32, 80
4, 429239, Note_on_c, 1, 32, 0
4, 429360, Note_on_c, 1, 40, 80
4, 429479, Note_on_c, 1, 40, 0
4, 429600, Note_on_c, 1, 32, 80
4, 429719, Note_on_c, 1, 32, 0
4, 429840, Note_on_c, 1, 40, 80
4, 429959, Note_on_c, 1, 40, 0
4, 430080, Note_on_c, 1, 44, 80
4, 430080, Note_on_c, 1, 32, 80
4, 430319, Note_on_c, 1, 44, 0
4, 430319, Note_on_c, 1, 32, 0
4, 430320, Note_on_c, 1, 40, 80
4, 430439, Note_on_c, 1, 40, 0
4, 430560, Note_on_c, 1, 31, 80
4, 431279, Note_on_c, 1, 31, 0
4, 431280, Note_on_c, 1, 31, 80
4, 431340, Note_on_c, 1, 34, 80
4, 431400, Note_on_c, 1, 37, 80
4, 431460, Note_on_c, 1, 40, 80
4, 431520, Note_on_c, 1, 34, 80
4, 431579, Note_on_c, 1, 34, 0
4, 432239, Note_on_c, 1, 34, 0
4, 432239, Note_on_c, 1, 31, 0
4, 432240, Note_on_c, 1, 43, 80
4, 432300, Note_on_c, 1, 46, 80
4, 432359, Note_on_c, 1, 37, 0
4, 432360, Note_on_c, 1, 49, 80
4, 432419, Note_on_c, 1, 40, 0
4, 432420, Note_on_c, 1, 52, 80
4, 432480, Note_on_c, 1, 46, 80
4, 432539, Note_on_c, 1, 46, 0
4, 433199, Note_on_c, 1, 46, 0
4, 433199, Note_on_c, 1, 43, 0
4, 433319, Note_on_c, 1, 49, 0
4, 433379, Note_on_c, 1, 52, 0
4, 435360, Note_on_c, 1, 30, 80
4, 436079, Note_on_c, 1, 30, 0
4, 436080, Note_on_c, 1, 30, 80
4, 436140, Note_on_c, 1, 33, 80
4, 436200, Note_on_c, 1, 36, 80
4, 436260, Note_on_c, 1, 42, 80
4, 436319, Note_on_c, 1, 30, 0
4, 436320, Note_on_c, 1, 30, 80
4, 437039, Note_on_c, 1, 30, 0
4, 437040, Note_on_c, 1, 39, 80
4, 437099, Note_on_c, 1, 33, 0
4, 437100, Note_on_c, 1, 42, 80
4, 437159, Note_on_c, 1, 36, 0
4, 437160, Note_on_c, 1, 45, 80
4, 437219, Note_on_c, 1, 42, 0
4, 437220, Note_on_c, 1, 48, 80
4, 437280, Note_on_c, 1, 42, 80
4, 437339, Note_on_c, 1, 42, 0
4, 437759, Note_on_c, 1, 42, 0
4, 437759, Note_on_c, 1, 39, 0
4, 437760, Note_on_c, 1, 63, 80
4, 437760, Note_on_c, 1, 60, 80
4, 437760, Note_on_c, 1, 57, 80
4, 437760, Note_on_c, 1, 54, 80
4, 437879, Note_on_c, 1, 45, 0
4, 437939, Note_on_c, 1, 48, 0
4, 439679, Note_on_c, 1, 63, 0
4, 439679, Note_on_c, 1, 60, 0
4, 439679, Note_on_c, 1, 57, 0
4, 439679, Note_on_c, 1, 54, 0
4, 440160, Note_on_c, 1, 49, 80
4, 440639, Note_on_c, 1, 49, 0
4, 440640, Note_on_c, 1, 56, 80
4, 441599, Note_on_c, 1, 56, 0
4, 441600, Note_on_c, 1, 52, 80
4, 441959, Note_on_c, 1, 52, 0
4, 441960, Note_on_c, 1, 49, 80
4, 442079, Note_on_c, 1, 49, 0
4, 442080, Note_on_c, 1, 49, 80
4, 442559, Note_on_c, 1, 49, 0
4, 442560, Note_on_c, 1, 48, 80
4, 443279, Note_on_c, 1, 48, 0
4, 443280, Note_on_c, 1, 48, 80
4, 443519, Note_on_c, 1, 48, 0
4, 443520, Note_on_c, 1, 56, 80
4, 443879, Note_on_c, 1, 56, 0
4, 443880, Note_on_c, 1, 48, 80
4, 443999, Note_on_c, 1, 48, 0
4, 444000, Note_on_c, 1, 51, 80
4, 444479, Note_on_c, 1, 51, 0
4, 444480, Note_on_c, 1, 49, 80
4, 445199, Note_on_c, 1, 49, 0
4, 445200, Note_on_c, 1, 49, 80
4, 445439, Note_on_c, 1, 49, 0
4, 445440, Note_on_c, 1, 56, 80
4, 445799, Note_on_c, 1, 56, 0
4, 445800, Note_on_c, 1, 49, 80
4, 445919, Note_on_c, 1, 49, 0
4, 445920, Note_on_c, 1, 52, 80
4, 446399, Note_on_c, 1, 52, 0
4, 446400, Note_on_c, 1, 51, 80
4, 447119, Note_on_c, 1, 51, 0
4, 447120, Note_on_c, 1, 51, 80
4, 447359, Note_on_c, 1, 51, 0
4, 447360, Note_on_c, 1, 56, 80
4, 447719, Note_on_c, 1, 56, 0
4, 447720, Note_on_c, 1, 51, 80
4, 447839, Note_on_c, 1, 51, 0
4, 447840, Note_on_c, 1, 52, 80
4, 447959, Note_on_c, 1, 52, 0
4, 447960, Note_on_c, 1, 56, 80
4, 448079, Note_on_c, 1, 56, 0
4, 448080, Note_on_c, 1, 52, 80
4, 448199, Note_on_c, 1, 52, 0
4, 448200, Note_on_c, 1, 56, 80
4, 448319, Note_on_c, 1, 56, 0
4, 448320, Note_on_c, 1, 52, 80
4, 448439, Note_on_c, 1, 52, 0
4, 448440, Note_on_c, 1, 56, 80
4, 448559, Note_on_c, 1, 56, 0
4, 448560, Note_on_c, 1, 52, 80
4, 448679, Note_on_c, 1, 52, 0
4, 448680, Note_on_c, 1, 56, 80
4, 448799, Note_on_c, 1, 56, 0
4, 448800, Note_on_c, 1, 52, 80
4, 448919, Note_on_c, 1, 52, 0
4, 448920, Note_on_c, 1, 56, 80
4, 449039, Note_on_c, 1, 56, 0
4, 449040, Note_on_c, 1, 52, 80
4, 449159, Note_on_c, 1, 52, 0
4, 449160, Note_on_c, 1, 56, 80
4, 449279, Note_on_c, 1, 56, 0
4, 449280, Note_on_c, 1, 52, 80
4, 449399, Note_on_c, 1, 52, 0
4, 449400, Note_on_c, 1, 56, 80
4, 449519, Note_on_c, 1, 56, 0
4, 449520, Note_on_c, 1, 52, 80
4, 449639, Note_on_c, 1, 52, 0
4, 449640, Note_on_c, 1, 56, 80
4, 449759, Note_on_c, 1, 56, 0
4, 449760, Note_on_c, 1, 54, 80
4, 449879, Note_on_c, 1, 54, 0
4, 449880, Note_on_c, 1, 56, 80
4, 449999, Note_on_c, 1, 56, 0
4, 450000, Note_on_c, 1, 54, 80
4, 450119, Note_on_c, 1, 54, 0
4, 450120, Note_on_c, 1, 56, 80
4, 450239, Note_on_c, 1, 56, 0
4, 450240, Note_on_c, 1, 54, 80
4, 450359, Note_on_c, 1, 54, 0
4, 450360, Note_on_c, 1, 56, 80
4, 450479, Note_on_c, 1, 56, 0
4, 450480, Note_on_c, 1, 54, 80
4, 450599, Note_on_c, 1, 54, 0
4, 450600, Note_on_c, 1, 56, 80
4, 450719, Note_on_c, 1, 56, 0
4, 450720, Note_on_c, 1, 54, 80
4, 450839, Note_on_c, 1, 54, 0
4, 450840, Note_on_c, 1, 56, 80
4, 450959, Note_on_c, 1, 56, 0
4, 450960, Note_on_c, 1, 54, 80
4, 451079, Note_on_c, 1, 54, 0
4, 451080, Note_on_c, 1, 56, 80
4, 451199, Note_on_c, 1, 56, 0
4, 451200, Note_on_c, 1, 54, 80
4, 451319, Note_on_c, 1, 54, 0
4, 451320, Note_on_c, 1, 56, 80
4, 451439, Note_on_c, 1, 56, 0
4, 451440, Note_on_c, 1, 54, 80
4, 451559, Note_on_c, 1, 54, 0
4, 451560, Note_on_c, 1, 56, 80
4, 451679, Note_on_c, 1, 56, 0
4, 451680, Note_on_c, 1, 52, 80
4, 451799, Note_on_c, 1, 52, 0
4, 451800, Note_on_c, 1, 56, 80
4, 451919, Note_on_c, 1, 56, 0
4, 451920, Note_on_c, 1, 52, 80
4, 452039, Note_on_c, 1, 52, 0
4, 452040, Note_on_c, 1, 56, 80
4, 452159, Note_on_c, 1, 56, 0
4, 452160, Note_on_c, 1, 52, 80
4, 452279, Note_on_c, 1, 52, 0
4, 452280, Note_on_c, 1, 56, 80
4, 452399, Note_on_c, 1, 56, 0
4, 452400, Note_on_c, 1, 52, 80
4, 452519, Note_on_c, 1, 52, 0
4, 452520, Note_on_c, 1, 56, 80
4, 452639, Note_on_c, 1, 56, 0
4, 452640, Note_on_c, 1, 52, 80
4, 452759, Note_on_c, 1, 52, 0
4, 452760, Note_on_c, 1, 56, 80
4, 452879, Note_on_c, 1, 56, 0
4, 452880, Note_on_c, 1, 52, 80
4, 452999, Note_on_c, 1, 52, 0
4, 453000, Note_on_c, 1, 56, 80
4, 453119, Note_on_c, 1, 56, 0
4, 453120, Note_on_c, 1, 52, 80
4, 453239, Note_on_c, 1, 52, 0
4, 453240, Note_on_c, 1, 56, 80
4, 453359, Note_on_c, 1, 56, 0
4, 453360, Note_on_c, 1, 52, 80
4, 453479, Note_on_c, 1, 52, 0
4, 453480, Note_on_c, 1, 56, 80
4, 453599, Note_on_c, 1, 56, 0
4, 453600, Note_on_c, 1, 48, 80
4, 453719, Note_on_c, 1, 48, 0
4, 453720, Note_on_c, 1, 56, 80
4, 453839, Note_on_c, 1, 56, 0
4, 453840, Note_on_c, 1, 48, 80
4, 453959, Note_on_c, 1, 48, 0
4, 453960, Note_on_c, 1, 56, 80
4, 454079, Note_on_c, 1, 56, 0
4, 454080, Note_on_c, 1, 48, 80
4, 454199, Note_on_c, 1, 48, 0
4, 454200, Note_on_c, 1, 56, 80
4, 454319, Note_on_c, 1, 56, 0
4, 454320, Note_on_c, 1, 48, 80
4, 454439, Note_on_c, 1, 48, 0
4, 454440, Note_on_c, 1, 56, 80
4, 454559, Note_on_c, 1, 56, 0
4, 454560, Note_on_c, 1, 48, 80
4, 454679, Note_on_c, 1, 48, 0
4, 454680, Note_on_c, 1, 56, 80
4, 454799, Note_on_c, 1, 56, 0
4, 454800, Note_on_c, 1, 48, 80
4, 454919, Note_on_c, 1, 48, 0
4, 454920, Note_on_c, 1, 56, 80
4, 455039, Note_on_c, 1, 56, 0
4, 455040, Note_on_c, 1, 48, 80
4, 455159, Note_on_c, 1, 48, 0
4, 455160, Note_on_c, 1, 56, 80
4, 455279, Note_on_c, 1, 56, 0
4, 455280, Note_on_c, 1, 48, 80
4, 455399, Note_on_c, 1, 48, 0
4, 455400, Note_on_c, 1, 56, 80
4, 455519, Note_on_c, 1, 56, 0
4, 455520, Note_on_c, 1, 49, 80
4, 455639, Note_on_c, 1, 49, 0
4, 455640, Note_on_c, 1, 56, 80
4, 455759, Note_on_c, 1, 56, 0
4, 455760, Note_on_c, 1, 49, 80
4, 455879, Note_on_c, 1, 49, 0
4, 455880, Note_on_c, 1, 56, 80
4, 455999, Note_on_c, 1, 56, 0
4, 456000, Note_on_c, 1, 49, 80
4, 456119, Note_on_c, 1, 49, 0
4, 456120, Note_on_c, 1, 56, 80
4, 456239, Note_on_c, 1, 56, 0
4, 456240, Note_on_c, 1, 49, 80
4, 456359, Note_on_c, 1, 49, 0
4, 456360, Note_on_c, 1, 56, 80
4, 456479, Note_on_c, 1, 56, 0
4, 456480, Note_on_c, 1, 47, 80
4, 456599, Note_on_c, 1, 47, 0
4, 456600, Note_on_c, 1, 49, 80
4, 456719, Note_on_c, 1, 49, 0
4, 456720, Note_on_c, 1, 47, 80
4, 456839, Note_on_c, 1, 47, 0
4, 456840, Note_on_c, 1, 49, 80
4, 456959, Note_on_c, 1, 49, 0
4, 456960, Note_on_c, 1, 47, 80
4, 457079, Note_on_c, 1, 47, 0
4, 457080, Note_on_c, 1, 49, 80
4, 457199, Note_on_c, 1, 49, 0
4, 457200, Note_on_c, 1, 47, 80
4, 457319, Note_on_c, 1, 47, 0
4, 457320, Note_on_c, 1, 49, 80
4, 457439, Note_on_c, 1, 49, 0
4, 457440, Note_on_c, 1, 45, 80
4, 457559, Note_on_c, 1, 45, 0
4, 457560, Note_on_c, 1, 49, 80
4, 457679, Note_on_c, 1, 49, 0
4, 457680, Note_on_c, 1, 45, 80
4, 457799, Note_on_c, 1, 45, 0
4, 457800, Note_on_c, 1, 49, 80
4, 457919, Note_on_c, 1, 49, 0
4, 457920, Note_on_c, 1, 45, 80
4, 458039, Note_on_c, 1, 45, 0
4, 458040, Note_on_c, 1, 49, 80
4, 458159, Note_on_c, 1, 49, 0
4, 458160, Note_on_c, 1, 45, 80
4, 458279, Note_on_c, 1, 45, 0
4, 458280, Note_on_c, 1, 49, 80
4, 458399, Note_on_c, 1, 49, 0
4, 458400, Note_on_c, 1, 41, 80
4, 458519, Note_on_c, 1, 41, 0
4, 458520, Note_on_c, 1, 49, 80
4, 458639, Note_on_c, 1, 49, 0
4, 458640, Note_on_c, 1, 41, 80
4, 458759, Note_on_c, 1, 41, 0
4, 458760, Note_on_c, 1, 49, 80
4, 458879, Note_on_c, 1, 49, 0
4, 458880, Note_on_c, 1, 41, 80
4, 458999, Note_on_c, 1, 41, 0
4, 459000, Note_on_c, 1, 49, 80
4, 459119, Note_on_c, 1, 49, 0
4, 459120, Note_on_c, 1, 41, 80
4, 459239, Note_on_c, 1, 41, 0
4, 459240, Note_on_c, 1, 49, 80
4, 459359, Note_on_c, 1, 49, 0
4, 459360, Note_on_c, 1, 42, 80
4, 459360, Note_on_c, 1, 37, 80
4, 459360, Note_on_c, 1, 30, 80
4, 463199, Note_on_c, 1, 42, 0
4, 463199, Note_on_c, 1, 37, 0
4, 463199, Note_on_c, 1, 30, 0
4, 463200, Note_on_c, 1, 42, 80
4, 463200, Note_on_c, 1, 38, 80
4, 463200, Note_on_c, 1, 30, 80
4, 467039, Note_on_c, 1, 42, 0
4, 467039, Note_on_c, 1, 38, 0
4, 467039, Note_on_c, 1, 30, 0
4, 467040, Note_on_c, 1, 43, 80
4, 467040, Note_on_c, 1, 37, 80
4, 467040, Note_on_c, 1, 31, 80
4, 470879, Note_on_c, 1, 43, 0
4, 470879, Note_on_c, 1, 37, 0
4, 470879, Note_on_c, 1, 31, 0
4, 470880, Note_on_c, 1, 44, 80
4, 470880, Note_on_c, 1, 37, 80
4, 470880, Note_on_c, 1, 32, 80
4, 474719, Note_on_c, 1, 44, 0
4, 474719, Note_on_c, 1, 37, 0
4, 474719, Note_on_c, 1, 32, 0
4, 479520, Note_on_c, 1, 57, 80
4, 479572, Note_on_c, 1, 57, 0
4, 479573, Note_on_c, 1, 56, 80
4, 479625, Note_on_c, 1, 56, 0
4, 479626, Note_on_c, 1, 54, 80
4, 479678, Note_on_c, 1, 54, 0
4, 479679, Note_on_c, 1, 57, 80
4, 479731, Note_on_c, 1, 57, 0
4, 479732, Note_on_c, 1, 52, 80
4, 479784, Note_on_c, 1, 52, 0
4, 479785, Note_on_c, 1, 51, 80
4, 479837, Note_on_c, 1, 51, 0
4, 479838, Note_on_c, 1, 54, 80
4, 479890, Note_on_c, 1, 54, 0
4, 479891, Note_on_c, 1, 49, 80
4, 479943, Note_on_c, 1, 49, 0
4, 479944, Note_on_c, 1, 48, 80
4, 479996, Note_on_c, 1, 48, 0
4, 480000, Note_on_c, 1, 51, 80
4, 480079, Note_on_c, 1, 51, 0
4, 480160, Note_on_c, 1, 45, 80
4, 480239, Note_on_c, 1, 45, 0
4, 480320, Note_on_c, 1, 44, 80
4, 480399, Note_on_c, 1, 44, 0
4, 480480, Note_on_c, 1, 43, 80
4, 480480, Note_on_c, 1, 31, 80
4, 483359, Note_on_c, 1, 43, 0
4, 483359, Note_on_c, 1, 31, 0
4, 483360, Note_on_c, 1, 44, 80
4, 483360, Note_on_c, 1, 32, 80
4, 486239, Note_on_c, 1, 44, 0
4, 486239, Note_on_c, 1, 32, 0
4, 486240, Note_on_c, 1, 37, 80
4, 486359, Note_on_c, 1, 37, 0
4, 486360, Note_on_c, 1, 49, 80
4, 486479, Note_on_c, 1, 49, 0
4, 486480, Note_on_c, 1, 44, 80
4, 486599, Note_on_c, 1, 44, 0
4, 486600, Note_on_c, 1, 49, 80
4, 486719, Note_on_c, 1, 49, 0
4, 486720, Note_on_c, 1, 37, 80
4, 486839, Note_on_c, 1, 37, 0
4, 486840, Note_on_c, 1, 49, 80
4, 486959, Note_on_c, 1, 49, 0
4, 486960, Note_on_c, 1, 44, 80
4, 487079, Note_on_c, 1, 44, 0
4, 487080, Note_on_c, 1, 49, 80
4, 487199, Note_on_c, 1, 49, 0
4, 487200, Note_on_c, 1, 37, 80
4, 487319, Note_on_c, 1, 37, 0
4, 487320, Note_on_c, 1, 49, 80
4, 487439, Note_on_c, 1, 49, 0
4, 487440, Note_on_c, 1, 44, 80
4, 487559, Note_on_c, 1, 44, 0
4, 487560, Note_on_c, 1, 49, 80
4, 487679, Note_on_c, 1, 49, 0
4, 487680, Note_on_c, 1, 37, 80
4, 487799, Note_on_c, 1, 37, 0
4, 487800, Note_on_c, 1, 49, 80
4, 487919, Note_on_c, 1, 49, 0
4, 487920, Note_on_c, 1, 44, 80
4, 488039, Note_on_c, 1, 44, 0
4, 488040, Note_on_c, 1, 49, 80
4, 488159, Note_on_c, 1, 49, 0
4, 488160, Note_on_c, 1, 37, 80
4, 488279, Note_on_c, 1, 37, 0
4, 488280, Note_on_c, 1, 51, 80
4, 488399, Note_on_c, 1, 51, 0
4, 488400, Note_on_c, 1, 44, 80
4, 488519, Note_on_c, 1, 44, 0
4, 488520, Note_on_c, 1, 51, 80
4, 488639, Note_on_c, 1, 51, 0
4, 488640, Note_on_c, 1, 37, 80
4, 488759, Note_on_c, 1, 37, 0
4, 488760, Note_on_c, 1, 51, 80
4, 488879, Note_on_c, 1, 51, 0
4, 488880, Note_on_c, 1, 44, 80
4, 488999, Note_on_c, 1, 44, 0
4, 489000, Note_on_c, 1, 51, 80
4, 489119, Note_on_c, 1, 51, 0
4, 489120, Note_on_c, 1, 37, 80
4, 489239, Note_on_c, 1, 37, 0
4, 489240, Note_on_c, 1, 51, 80
4, 489359, Note_on_c, 1, 51, 0
4, 489360, Note_on_c, 1, 44, 80
4, 489479, Note_on_c, 1, 44, 0
4, 489480, Note_on_c, 1, 51, 80
4, 489599, Note_on_c, 1, 51, 0
4, 489600, Note_on_c, 1, 37, 80
4, 489719, Note_on_c, 1, 37, 0
4, 489720, Note_on_c, 1, 51, 80
4, 489839, Note_on_c, 1, 51, 0
4, 489840, Note_on_c, 1, 44, 80
4, 489959, Note_on_c, 1, 44, 0
4, 489960, Note_on_c, 1, 51, 80
4, 490079, Note_on_c, 1, 51, 0
4, 490080, Note_on_c, 1, 37, 80
4, 490199, Note_on_c, 1, 37, 0
4, 490200, Note_on_c, 1, 49, 80
4, 490319, Note_on_c, 1, 49, 0
4, 490320, Note_on_c, 1, 44, 80
4, 490439, Note_on_c, 1, 44, 0
4, 490440, Note_on_c, 1, 49, 80
4, 490559, Note_on_c, 1, 49, 0
4, 490560, Note_on_c, 1, 37, 80
4, 490679, Note_on_c, 1, 37, 0
4, 490680, Note_on_c, 1, 49, 80
4, 490799, Note_on_c, 1, 49, 0
4, 490800, Note_on_c, 1, 44, 80
4, 490919, Note_on_c, 1, 44, 0
4, 490920, Note_on_c, 1, 49, 80
4, 491039, Note_on_c, 1, 49, 0
4, 491040, Note_on_c, 1, 37, 80
4, 491159, Note_on_c, 1, 37, 0
4, 491160, Note_on_c, 1, 49, 80
4, 491279, Note_on_c, 1, 49, 0
4, 491280, Note_on_c, 1, 44, 80
4, 491399, Note_on_c, 1, 44, 0
4, 491400, Note_on_c, 1, 49, 80
4, 491519, Note_on_c, 1, 49, 0
4, 491520, Note_on_c, 1, 37, 80
4, 491639, Note_on_c, 1, 37, 0
4, 491640, Note_on_c, 1, 49, 80
4, 491759, Note_on_c, 1, 49, 0
4, 491760, Note_on_c, 1, 44, 80
4, 491879, Note_on_c, 1, 44, 0
4, 491880, Note_on_c, 1, 49, 80
4, 491999, Note_on_c, 1, 49, 0
4, 492000, Note_on_c, 1, 37, 80
4, 492119, Note_on_c, 1, 37, 0
4, 492120, Note_on_c, 1, 51, 80
4, 492239, Note_on_c, 1, 51, 0
4, 492240, Note_on_c, 1, 44, 80
4, 492359, Note_on_c, 1, 44, 0
4, 492360, Note_on_c, 1, 51, 80
4, 492479, Note_on_c, 1, 51, 0
4, 492480, Note_on_c, 1, 37, 80
4, 492599, Note_on_c, 1, 37, 0
4, 492600, Note_on_c, 1, 51, 80
4, 492719, Note_on_c, 1, 51, 0
4, 492720, Note_on_c, 1, 44, 80
4, 492839, Note_on_c, 1, 44, 0
4, 492840, Note_on_c, 1, 51, 80
4, 492959, Note_on_c, 1, 51, 0
4, 492960, Note_on_c, 1, 37, 80
4, 493079, Note_on_c, 1, 37, 0
4, 493080, Note_on_c, 1, 51, 80
4, 493199, Note_on_c, 1, 51, 0
4, 493200, Note_on_c, 1, 44, 80
4, 493319, Note_on_c, 1, 44, 0
4, 493320, Note_on_c, 1, 51, 80
4, 493439, Note_on_c, 1, 51, 0
4, 493440, Note_on_c, 1, 37, 80
4, 493559, Note_on_c, 1, 37, 0
4, 493560, Note_on_c, 1, 51, 80
4, 493679, Note_on_c, 1, 51, 0
4, 493680, Note_on_c, 1, 44, 80
4, 493799, Note_on_c, 1, 44, 0
4, 493800, Note_on_c, 1, 51, 80
4, 493919, Note_on_c, 1, 51, 0
4, 493920, Note_on_c, 1, 37, 80
4, 494039, Note_on_c, 1, 37, 0
4, 494040, Note_on_c, 1, 49, 80
4, 494159, Note_on_c, 1, 49, 0
4, 494160, Note_on_c, 1, 44, 80
4, 494279, Note_on_c, 1, 44, 0
4, 494280, Note_on_c, 1, 49, 80
4, 494399, Note_on_c, 1, 49, 0
4, 494400, Note_on_c, 1, 37, 80
4, 494519, Note_on_c, 1, 37, 0
4, 494520, Note_on_c, 1, 49, 80
4, 494639, Note_on_c, 1, 49, 0
4, 494640, Note_on_c, 1, 44, 80
4, 494759, Note_on_c, 1, 44, 0
4, 494760, Note_on_c, 1, 49, 80
4, 494879, Note_on_c, 1, 49, 0
4, 494880, Note_on_c, 1, 37, 80
4, 494999, Note_on_c, 1, 37, 0
4, 495000, Note_on_c, 1, 51, 80
4, 495119, Note_on_c, 1, 51, 0
4, 495120, Note_on_c, 1, 44, 80
4, 495239, Note_on_c, 1, 44, 0
4, 495240, Note_on_c, 1, 51, 80
4, 495359, Note_on_c, 1, 51, 0
4, 495360, Note_on_c, 1, 37, 80
4, 495479, Note_on_c, 1, 37, 0
4, 495480, Note_on_c, 1, 51, 80
4, 495599, Note_on_c, 1, 51, 0
4, 495600, Note_on_c, 1, 44, 80
4, 495719, Note_on_c, 1, 44, 0
4, 495720, Note_on_c, 1, 51, 80
4, 495839, Note_on_c, 1, 51, 0
4, 495840, Note_on_c, 1, 37, 80
4, 495959, Note_on_c, 1, 37, 0
4, 495960, Note_on_c, 1, 49, 80
4, 496079, Note_on_c, 1, 49, 0
4, 496080, Note_on_c, 1, 44, 80
4, 496199, Note_on_c, 1, 44, 0
4, 496200, Note_on_c, 1, 49, 80
4, 496319, Note_on_c, 1, 49, 0
4, 496320, Note_on_c, 1, 37, 80
4, 496439, Note_on_c, 1, 37, 0
4, 496440, Note_on_c, 1, 49, 80
4, 496559, Note_on_c, 1, 49, 0
4, 496560, Note_on_c, 1, 44, 80
4, 496679, Note_on_c, 1, 44, 0
4, 496680, Note_on_c, 1, 49, 80
4, 496799, Note_on_c, 1, 49, 0
4, 496800, Note_on_c, 1, 37, 80
4, 496919, Note_on_c, 1, 37, 0
4, 496920, Note_on_c, 1, 51, 80
4, 497039, Note_on_c, 1, 51, 0
4, 497040, Note_on_c, 1, 44, 80
4, 497159, Note_on_c, 1, 44, 0
4, 497160, Note_on_c, 1, 51, 80
4, 497279, Note_on_c, 1, 51, 0
4, 497280, Note_on_c, 1, 37, 80
4, 497399, Note_on_c, 1, 37, 0
4, 497400, Note_on_c, 1, 51, 80
4, 497519, Note_on_c, 1, 51, 0
4, 497520, Note_on_c, 1, 44, 80
4, 497639, Note_on_c, 1, 44, 0
4, 497640, Note_on_c, 1, 51, 80
4, 497759, Note_on_c, 1, 51, 0
4, 497760, Note_on_c, 1, 49, 80
4, 497760, Note_on_c, 1, 44, 80
4, 497760, Note_on_c, 1, 37, 80
4, 497879, Note_on_c, 1, 49, 0
4, 497879, Note_on_c, 1, 44, 0
4, 497879, Note_on_c, 1, 37, 0
4, 497880, Note_on_c, 1, 52, 80
4, 497999, Note_on_c, 1, 52, 0
4, 498000, Note_on_c, 1, 56, 80
4, 498119, Note_on_c, 1, 56, 0
4, 498120, Note_on_c, 1, 61, 80
4, 498239, Note_on_c, 1, 61, 0
4, 498240, Note_on_c, 1, 64, 80
4, 498359, Note_on_c, 1, 64, 0
4, 498360, Note_on_c, 1, 56, 80
4, 498479, Note_on_c, 1, 56, 0
4, 498480, Note_on_c, 1, 61, 80
4, 498599, Note_on_c, 1, 61, 0
4, 498600, Note_on_c, 1, 64, 80
4, 498719, Note_on_c, 1, 64, 0
4, 501120, Note_on_c, 1, 64, 80
4, 501239, Note_on_c, 1, 64, 0
4, 501240, Note_on_c, 1, 61, 80
4, 501359, Note_on_c, 1, 61, 0
4, 501360, Note_on_c, 1, 56, 80
4, 501479, Note_on_c, 1, 56, 0
4, 501480, Note_on_c, 1, 52, 80
4, 501599, Note_on_c, 1, 52, 0
4, 501600, Note_on_c, 1, 61, 80
4, 501719, Note_on_c, 1, 61, 0
4, 501720, Note_on_c, 1, 56, 80
4, 501839, Note_on_c, 1, 56, 0
4, 501840, Note_on_c, 1, 52, 80
4, 501959, Note_on_c, 1, 52, 0
4, 501960, Note_on_c, 1, 49, 80
4, 502079, Note_on_c, 1, 49, 0
4, 502080, Note_on_c, 1, 56, 80
4, 502199, Note_on_c, 1, 56, 0
4, 502200, Note_on_c, 1, 52, 80
4, 502319, Note_on_c, 1, 52, 0
4, 502320, Note_on_c, 1, 49, 80
4, 502439, Note_on_c, 1, 49, 0
4, 502440, Note_on_c, 1, 44, 80
4, 502559, Note_on_c, 1, 44, 0
4, 502560, Note_on_c, 1, 52, 80
4, 502679, Note_on_c, 1, 52, 0
4, 502680, Note_on_c, 1, 49, 80
4, 502799, Note_on_c, 1, 49, 0
4, 502800, Note_on_c, 1, 44, 80
4, 502919, Note_on_c, 1, 44, 0
4, 502920, Note_on_c, 1, 40, 80
4, 503039, Note_on_c, 1, 40, 0
4, 503040, Note_on_c, 1, 49, 80
4, 503159, Note_on_c, 1, 49, 0
4, 503160, Note_on_c, 1, 44, 80
4, 503279, Note_on_c, 1, 44, 0
4, 503280, Note_on_c, 1, 40, 80
4, 503399, Note_on_c, 1, 40, 0
4, 503400, Note_on_c, 1, 44, 80
4, 503519, Note_on_c, 1, 44, 0
4, 503520, Note_on_c, 1, 49, 80
4, 503520, Note_on_c, 1, 37, 80
4, 503999, Note_on_c, 1, 49, 0
4, 503999, Note_on_c, 1, 37, 0
4, 504480, Note_on_c, 1, 49, 80
4, 504480, Note_on_c, 1, 44, 80
4, 504480, Note_on_c, 1, 40, 80
4, 504480, Note_on_c, 1, 37, 80
4, 504719, Note_on_c, 1, 49, 0
4, 504719, Note_on_c, 1, 44, 0
4, 504719, Note_on_c, 1, 40, 0
4, 504719, Note_on_c, 1, 37, 0
4, 505440, Note_on_c, 1, 49, 80
4, 505440, Note_on_c, 1, 44, 80
4, 505440, Note_on_c, 1, 40, 80
4, 505440, Note_on_c, 1, 37, 80
4, 505679, Note_on_c, 1, 49, 0
4, 505679, Note_on_c, 1, 44, 0
4, 505679, Note_on_c, 1, 40, 0
4, 505679, Note_on_c, 1, 37, 0
4, 505680, End_track
0, 0, End_of_file
