0, 0, Header, 1, 2, 480
1, 0, Start_track
1, 0, Time_signature, 4, 2, 24, 8
1, 0, Key_signature, 4, "major"
1, 0, Tempo, 1111111
1, 0, Control_c, 0, 121, 0
1, 0, Program_c, 0, 0
1, 0, Control_c, 0, 7, 100
1, 0, Control_c, 0, 10, 64
1, 0, Control_c, 0, 91, 30
1, 0, Control_c, 0, 93, 30
1, 0, MIDI_port, 0
1, 0, Note_on_c, 0, 56, 80
1, 159, Note_on_c, 0, 56, 0
1, 160, Note_on_c, 0, 61, 80
1, 319, Note_on_c, 0, 61, 0
1, 320, Note_on_c, 0, 64, 80
1, 479, Note_on_c, 0, 64, 0
1, 480, Note_on_c, 0, 56, 80
1, 639, Note_on_c, 0, 56, 0
1, 640, Note_on_c, 0, 61, 80
1, 799, Note_on_c, 0, 61, 0
1, 800, Note_on_c, 0, 64, 80
1, 959, Note_on_c, 0, 64, 0
1, 960, Note_on_c, 0, 56, 80
1, 1119, Note_on_c, 0, 56, 0
1, 1120, Note_on_c, 0, 61, 80
1, 1279, Note_on_c, 0, 61, 0
1, 1280, Note_on_c, 0, 64, 80
1, 1439, Note_on_c, 0, 64, 0
1, 1440, Note_on_c, 0, 56, 80
1, 1599, Note_on_c, 0, 56, 0
1, 1600, Note_on_c, 0, 61, 80
1, 1759, Note_on_c, 0, 61, 0
1, 1760, Note_on_c, 0, 64, 80
1, 1919, Note_on_c, 0, 64, 0
1, 1920, Note_on_c, 0, 56, 80
1, 2079, Note_on_c, 0, 56, 0
1, 2080, Note_on_c, 0, 61, 80
1, 2239, Note_on_c, 0, 61, 0
1, 2240, Note_on_c, 0, 64, 80
1, 2399, Note_on_c, 0, 64, 0
1, 2400, Note_on_c, 0, 56, 80
1, 2559, Note_on_c, 0, 56, 0
1, 2560, Note_on_c, 0, 61, 80
1, 2719, Note_on_c, 0, 61, 0
1, 2720, Note_on_c, 0, 64, 80
1, 2879, Note_on_c, 0, 64, 0
1, 2880, Note_on_c, 0, 56, 80
1, 3039, Note_on_c, 0, 56, 0
1, 3040, Note_on_c, 0, 61, 80
1, 3199, Note_on_c, 0, 61, 0
1, 3200, Note_on_c, 0, 64, 80
1, 3359, Note_on_c, 0, 64, 0
1, 3360, Note_on_c, 0, 56, 80
1, 3519, Note_on_c, 0, 56, 0
1, 3520, Note_on_c, 0, 61, 80
1, 3679, Note_on_c, 0, 61, 0
1, 3680, Note_on_c, 0, 64, 80
1, 3839, Note_on_c, 0, 64, 0
1, 3840, Note_on_c, 0, 57, 80
1, 3999, Note_on_c, 0, 57, 0
1, 4000, Note_on_c, 0, 61, 80
1, 4159, Note_on_c, 0, 61, 0
1, 4160, Note_on_c, 0, 64, 80
1, 4319, Note_on_c, 0, 64, 0
1, 4320, Note_on_c, 0, 57, 80
1, 4479, Note_on_c, 0, 57, 0
1, 4480, Note_on_c, 0, 61, 80
1, 4639, Note_on_c, 0, 61, 0
1, 4640, Note_on_c, 0, 64, 80
1, 4799, Note_on_c, 0, 64, 0
1, 4800, Note_on_c, 0, 57, 80
1, 4959, Note_on_c, 0, 57, 0
1, 4960, Note_on_c, 0, 62, 80
1, 5119, Note_on_c, 0, 62, 0
1, 5120, Note_on_c, 0, 66, 80
1, 5279, Note_on_c, 0, 66, 0
1, 5280, Note_on_c, 0, 57, 80
1, 5439, Note_on_c, 0, 57, 0
1, 5440, Note_on_c, 0, 62, 80
1, 5599, Note_on_c, 0, 62, 0
1, 5600, Note_on_c, 0, 66, 80
1, 5759, Note_on_c, 0, 66, 0
1, 5760, Note_on_c, 0, 56, 80
1, 5919, Note_on_c, 0, 56, 0
1, 5920, Note_on_c, 0, 60, 80
1, 6079, Note_on_c, 0, 60, 0
1, 6080, Note_on_c, 0, 66, 80
1, 6239, Note_on_c, 0, 66, 0
1, 6240, Note_on_c, 0, 56, 80
1, 6399, Note_on_c, 0, 56, 0
1, 6400, Note_on_c, 0, 61, 80
1, 6559, Note_on_c, 0, 61, 0
1, 6560, Note_on_c, 0, 64, 80
1, 6719, Note_on_c, 0, 64, 0
1, 6720, Note_on_c, 0, 56, 80
1, 6879, Note_on_c, 0, 56, 0
1, 6880, Note_on_c, 0, 61, 80
1, 7039, Note_on_c, 0, 61, 0
1, 7040, Note_on_c, 0, 63, 80
1, 7199, Note_on_c, 0, 63, 0
1, 7200, Note_on_c, 0, 54, 80
1, 7359, Note_on_c, 0, 54, 0
1, 7360, Note_on_c, 0, 60, 80
1, 7519, Note_on_c, 0, 60, 0
1, 7520, Note_on_c, 0, 63, 80
1, 7679, Note_on_c, 0, 63, 0
1, 8160, Note_on_c, 0, 56, 80
1, 8319, Note_on_c, 0, 56, 0
1, 8320, Note_on_c, 0, 61, 80
1, 8479, Note_on_c, 0, 61, 0
1, 8480, Note_on_c, 0, 64, 80
1, 8639, Note_on_c, 0, 64, 0
1, 8640, Note_on_c, 0, 56, 80
1, 8799, Note_on_c, 0, 56, 0
1, 8800, Note_on_c, 0, 61, 80
1, 8959, Note_on_c, 0, 61, 0
1, 8960, Note_on_c, 0, 64, 80
1, 9119, Note_on_c, 0, 64, 0
1, 9120, Note_on_c, 0, 56, 80
1, 9120, Note_on_c, 0, 68, 80
1, 9279, Note_on_c, 0, 56, 0
1, 9280, Note_on_c, 0, 61, 80
1, 9439, Note_on_c, 0, 61, 0
1, 9440, Note_on_c, 0, 64, 80
1, 9479, Note_on_c, 0, 68, 0
1, 9480, Note_on_c, 0, 68, 80
1, 9599, Note_on_c, 0, 64, 0
1, 9599, Note_on_c, 0, 68, 0
1, 9600, Note_on_c, 0, 56, 80
1, 9600, Note_on_c, 0, 68, 80
1, 9759, Note_on_c, 0, 56, 0
1, 9760, Note_on_c, 0, 63, 80
1, 9919, Note_on_c, 0, 63, 0
1, 9920, Note_on_c, 0, 66, 80
1, 10079, Note_on_c, 0, 66, 0
1, 10080, Note_on_c, 0, 56, 80
1, 10239, Note_on_c, 0, 56, 0
1, 10240, Note_on_c, 0, 63, 80
1, 10399, Note_on_c, 0, 63, 0
1, 10400, Note_on_c, 0, 66, 80
1, 10559, Note_on_c, 0, 66, 0
1, 10560, Note_on_c, 0, 56, 80
1, 10719, Note_on_c, 0, 56, 0
1, 10720, Note_on_c, 0, 63, 80
1, 10879, Note_on_c, 0, 63, 0
1, 10880, Note_on_c, 0, 66, 80
1, 11039, Note_on_c, 0, 68, 0
1, 11039, Note_on_c, 0, 66, 0
1, 11040, Note_on_c, 0, 56, 80
1, 11040, Note_on_c, 0, 68, 80
1, 11199, Note_on_c, 0, 56, 0
1, 11200, Note_on_c, 0, 63, 80
1, 11359, Note_on_c, 0, 63, 0
1, 11360, Note_on_c, 0, 66, 80
1, 11399, Note_on_c, 0, 68, 0
1, 11400, Note_on_c, 0, 68, 80
1, 11519, Note_on_c, 0, 66, 0
1, 11519, Note_on_c, 0, 68, 0
1, 11520, Note_on_c, 0, 56, 80
1, 11520, Note_on_c, 0, 68, 80
1, 11679, Note_on_c, 0, 56, 0
1, 11680, Note_on_c, 0, 61, 80
1, 11839, Note_on_c, 0, 61, 0
1, 11840, Note_on_c, 0, 64, 80
1, 11999, Note_on_c, 0, 64, 0
1, 12000, Note_on_c, 0, 56, 80
1, 12159, Note_on_c, 0, 56, 0
1, 12160, Note_on_c, 0, 61, 80
1, 12319, Note_on_c, 0, 61, 0
1, 12320, Note_on_c, 0, 64, 80
1, 12479, Note_on_c, 0, 68, 0
1, 12479, Note_on_c, 0, 64, 0
1, 12480, Note_on_c, 0, 57, 80
1, 12480, Note_on_c, 0, 69, 80
1, 12639, Note_on_c, 0, 57, 0
1, 12640, Note_on_c, 0, 61, 80
1, 12799, Note_on_c, 0, 61, 0
1, 12800, Note_on_c, 0, 66, 80
1, 12959, Note_on_c, 0, 66, 0
1, 12960, Note_on_c, 0, 57, 80
1, 13119, Note_on_c, 0, 57, 0
1, 13120, Note_on_c, 0, 61, 80
1, 13279, Note_on_c, 0, 61, 0
1, 13280, Note_on_c, 0, 66, 80
1, 13439, Note_on_c, 0, 69, 0
1, 13439, Note_on_c, 0, 66, 0
1, 13440, Note_on_c, 0, 56, 80
1, 13440, Note_on_c, 0, 68, 80
1, 13599, Note_on_c, 0, 56, 0
1, 13600, Note_on_c, 0, 59, 80
1, 13759, Note_on_c, 0, 59, 0
1, 13760, Note_on_c, 0, 64, 80
1, 13919, Note_on_c, 0, 64, 0
1, 13920, Note_on_c, 0, 56, 80
1, 14079, Note_on_c, 0, 56, 0
1, 14080, Note_on_c, 0, 59, 80
1, 14239, Note_on_c, 0, 59, 0
1, 14240, Note_on_c, 0, 64, 80
1, 14399, Note_on_c, 0, 68, 0
1, 14399, Note_on_c, 0, 64, 0
1, 14400, Note_on_c, 0, 57, 80
1, 14400, Note_on_c, 0, 66, 80
1, 14559, Note_on_c, 0, 57, 0
1, 14560, Note_on_c, 0, 59, 80
1, 14719, Note_on_c, 0, 59, 0
1, 14720, Note_on_c, 0, 63, 80
1, 14879, Note_on_c, 0, 66, 0
1, 14879, Note_on_c, 0, 63, 0
1, 14880, Note_on_c, 0, 57, 80
1, 14880, Note_on_c, 0, 71, 80
1, 15039, Note_on_c, 0, 57, 0
1, 15040, Note_on_c, 0, 59, 80
1, 15199, Note_on_c, 0, 59, 0
1, 15200, Note_on_c, 0, 63, 80
1, 15359, Note_on_c, 0, 71, 0
1, 15359, Note_on_c, 0, 63, 0
1, 15360, Note_on_c, 0, 56, 80
1, 15360, Note_on_c, 0, 64, 80
1, 15519, Note_on_c, 0, 56, 0
1, 15520, Note_on_c, 0, 59, 80
1, 15679, Note_on_c, 0, 59, 0
1, 15680, Note_on_c, 0, 64, 80
1, 15839, Note_on_c, 0, 64, 0
1, 15839, Note_on_c, 0, 64, 0
1, 15840, Note_on_c, 0, 56, 80
1, 15999, Note_on_c, 0, 56, 0
1, 16000, Note_on_c, 0, 59, 80
1, 16159, Note_on_c, 0, 59, 0
1, 16160, Note_on_c, 0, 64, 80
1, 16319, Note_on_c, 0, 64, 0
1, 16320, Note_on_c, 0, 56, 80
1, 16479, Note_on_c, 0, 56, 0
1, 16480, Note_on_c, 0, 59, 80
1, 16639, Note_on_c, 0, 59, 0
1, 16640, Note_on_c, 0, 64, 80
1, 16799, Note_on_c, 0, 64, 0
1, 16800, Note_on_c, 0, 56, 80
1, 16959, Note_on_c, 0, 56, 0
1, 16960, Note_on_c, 0, 59, 80
1, 17119, Note_on_c, 0, 59, 0
1, 17120, Note_on_c, 0, 64, 80
1, 17279, Note_on_c, 0, 64, 0
1, 17280, Note_on_c, 0, 55, 80
1, 17439, Note_on_c, 0, 55, 0
1, 17440, Note_on_c, 0, 59, 80
1, 17599, Note_on_c, 0, 59, 0
1, 17600, Note_on_c, 0, 64, 80
1, 17759, Note_on_c, 0, 64, 0
1, 17760, Note_on_c, 0, 55, 80
1, 17919, Note_on_c, 0, 55, 0
1, 17920, Note_on_c, 0, 59, 80
1, 18079, Note_on_c, 0, 59, 0
1, 18080, Note_on_c, 0, 64, 80
1, 18239, Note_on_c, 0, 64, 0
1, 18240, Note_on_c, 0, 55, 80
1, 18399, Note_on_c, 0, 55, 0
1, 18400, Note_on_c, 0, 59, 80
1, 18559, Note_on_c, 0, 59, 0
1, 18560, Note_on_c, 0, 64, 80
1, 18719, Note_on_c, 0, 64, 0
1, 18720, Note_on_c, 0, 55, 80
1, 18720, Note_on_c, 0, 67, 80
1, 18879, Note_on_c, 0, 55, 0
1, 18880, Note_on_c, 0, 59, 80
1, 19039, Note_on_c, 0, 59, 0
1, 19040, Note_on_c, 0, 64, 80
1, 19079, Note_on_c, 0, 67, 0
1, 19080, Note_on_c, 0, 67, 80
1, 19199, Note_on_c, 0, 64, 0
1, 19199, Note_on_c, 0, 67, 0
1, 19200, Note_on_c, 0, 55, 80
1, 19200, Note_on_c, 0, 67, 80
1, 19359, Note_on_c, 0, 55, 0
1, 19360, Note_on_c, 0, 59, 80
1, 19519, Note_on_c, 0, 59, 0
1, 19520, Note_on_c, 0, 65, 80
1, 19679, Note_on_c, 0, 65, 0
1, 19680, Note_on_c, 0, 55, 80
1, 19839, Note_on_c, 0, 55, 0
1, 19840, Note_on_c, 0, 59, 80
1, 19999, Note_on_c, 0, 59, 0
1, 20000, Note_on_c, 0, 65, 80
1, 20159, Note_on_c, 0, 65, 0
1, 20160, Note_on_c, 0, 55, 80
1, 20319, Note_on_c, 0, 55, 0
1, 20320, Note_on_c, 0, 59, 80
1, 20479, Note_on_c, 0, 59, 0
1, 20480, Note_on_c, 0, 65, 80
1, 20639, Note_on_c, 0, 67, 0
1, 20639, Note_on_c, 0, 65, 0
1, 20640, Note_on_c, 0, 55, 80
1, 20640, Note_on_c, 0, 67, 80
1, 20799, Note_on_c, 0, 55, 0
1, 20800, Note_on_c, 0, 59, 80
1, 20959, Note_on_c, 0, 59, 0
1, 20960, Note_on_c, 0, 65, 80
1, 20999, Note_on_c, 0, 67, 0
1, 21000, Note_on_c, 0, 67, 80
1, 21119, Note_on_c, 0, 65, 0
1, 21119, Note_on_c, 0, 67, 0
1, 21120, Note_on_c, 0, 55, 80
1, 21120, Note_on_c, 0, 67, 80
1, 21279, Note_on_c, 0, 55, 0
1, 21280, Note_on_c, 0, 60, 80
1, 21439, Note_on_c, 0, 60, 0
1, 21440, Note_on_c, 0, 64, 80
1, 21599, Note_on_c, 0, 64, 0
1, 21600, Note_on_c, 0, 55, 80
1, 21759, Note_on_c, 0, 55, 0
1, 21760, Note_on_c, 0, 59, 80
1, 21919, Note_on_c, 0, 59, 0
1, 21920, Note_on_c, 0, 64, 80
1, 22079, Note_on_c, 0, 64, 0
1, 22080, Note_on_c, 0, 55, 80
1, 22239, Note_on_c, 0, 55, 0
1, 22240, Note_on_c, 0, 61, 80
1, 22399, Note_on_c, 0, 61, 0
1, 22400, Note_on_c, 0, 64, 80
1, 22559, Note_on_c, 0, 67, 0
1, 22559, Note_on_c, 0, 64, 0
1, 22560, Note_on_c, 0, 34, 80
1, 22560, Note_on_c, 0, 66, 80
1, 22719, Note_on_c, 0, 34, 0
1, 22720, Note_on_c, 0, 61, 80
1, 22879, Note_on_c, 0, 61, 0
1, 22880, Note_on_c, 0, 64, 80
1, 23039, Note_on_c, 0, 66, 0
1, 23039, Note_on_c, 0, 64, 0
1, 23040, Note_on_c, 0, 54, 80
1, 23040, Note_on_c, 0, 66, 80
1, 23199, Note_on_c, 0, 54, 0
1, 23200, Note_on_c, 0, 59, 80
1, 23359, Note_on_c, 0, 59, 0
1, 23360, Note_on_c, 0, 62, 80
1, 23519, Note_on_c, 0, 62, 0
1, 23520, Note_on_c, 0, 54, 80
1, 23679, Note_on_c, 0, 54, 0
1, 23680, Note_on_c, 0, 59, 80
1, 23839, Note_on_c, 0, 59, 0
1, 23840, Note_on_c, 0, 62, 80
1, 23999, Note_on_c, 0, 66, 0
1, 23999, Note_on_c, 0, 62, 0
1, 24000, Note_on_c, 0, 55, 80
1, 24000, Note_on_c, 0, 67, 80
1, 24159, Note_on_c, 0, 55, 0
1, 24160, Note_on_c, 0, 59, 80
1, 24319, Note_on_c, 0, 59, 0
1, 24320, Note_on_c, 0, 61, 80
1, 24479, Note_on_c, 0, 67, 0
1, 24479, Note_on_c, 0, 61, 0
1, 24480, Note_on_c, 0, 52, 80
1, 24480, Note_on_c, 0, 64, 80
1, 24639, Note_on_c, 0, 52, 0
1, 24640, Note_on_c, 0, 59, 80
1, 24799, Note_on_c, 0, 59, 0
1, 24800, Note_on_c, 0, 61, 80
1, 24959, Note_on_c, 0, 64, 0
1, 24959, Note_on_c, 0, 61, 0
1, 24960, Note_on_c, 0, 54, 80
1, 24960, Note_on_c, 0, 66, 80
1, 25119, Note_on_c, 0, 54, 0
1, 25120, Note_on_c, 0, 59, 80
1, 25279, Note_on_c, 0, 59, 0
1, 25280, Note_on_c, 0, 62, 80
1, 25439, Note_on_c, 0, 62, 0
1, 25440, Note_on_c, 0, 54, 80
1, 25599, Note_on_c, 0, 54, 0
1, 25600, Note_on_c, 0, 59, 80
1, 25759, Note_on_c, 0, 59, 0
1, 25760, Note_on_c, 0, 62, 80
1, 25919, Note_on_c, 0, 66, 0
1, 25919, Note_on_c, 0, 62, 0
1, 25920, Note_on_c, 0, 54, 80
1, 25920, Note_on_c, 0, 66, 80
1, 26079, Note_on_c, 0, 54, 0
1, 26080, Note_on_c, 0, 58, 80
1, 26239, Note_on_c, 0, 58, 0
1, 26240, Note_on_c, 0, 61, 80
1, 26399, Note_on_c, 0, 61, 0
1, 26400, Note_on_c, 0, 54, 80
1, 26559, Note_on_c, 0, 54, 0
1, 26560, Note_on_c, 0, 58, 80
1, 26719, Note_on_c, 0, 58, 0
1, 26720, Note_on_c, 0, 61, 80
1, 26879, Note_on_c, 0, 66, 0
1, 26879, Note_on_c, 0, 61, 0
1, 26880, Note_on_c, 0, 59, 80
1, 26880, Note_on_c, 0, 59, 80
1, 27039, Note_on_c, 0, 59, 0
1, 27040, Note_on_c, 0, 62, 80
1, 27199, Note_on_c, 0, 62, 0
1, 27200, Note_on_c, 0, 66, 80
1, 27359, Note_on_c, 0, 59, 0
1, 27359, Note_on_c, 0, 66, 0
1, 27360, Note_on_c, 0, 59, 80
1, 27519, Note_on_c, 0, 59, 0
1, 27520, Note_on_c, 0, 62, 80
1, 27679, Note_on_c, 0, 62, 0
1, 27680, Note_on_c, 0, 66, 80
1, 27839, Note_on_c, 0, 66, 0
1, 27840, Note_on_c, 0, 59, 80
1, 27999, Note_on_c, 0, 59, 0
1, 28000, Note_on_c, 0, 63, 80
1, 28159, Note_on_c, 0, 63, 0
1, 28160, Note_on_c, 0, 66, 80
1, 28319, Note_on_c, 0, 66, 0
1, 28320, Note_on_c, 0, 59, 80
1, 28320, Note_on_c, 0, 71, 80
1, 28479, Note_on_c, 0, 59, 0
1, 28480, Note_on_c, 0, 63, 80
1, 28639, Note_on_c, 0, 63, 0
1, 28640, Note_on_c, 0, 66, 80
1, 28799, Note_on_c, 0, 71, 0
1, 28799, Note_on_c, 0, 66, 0
1, 28800, Note_on_c, 0, 59, 80
1, 28800, Note_on_c, 0, 72, 80
1, 28959, Note_on_c, 0, 59, 0
1, 28960, Note_on_c, 0, 64, 80
1, 29119, Note_on_c, 0, 64, 0
1, 29120, Note_on_c, 0, 67, 80
1, 29279, Note_on_c, 0, 67, 0
1, 29280, Note_on_c, 0, 59, 80
1, 29439, Note_on_c, 0, 59, 0
1, 29440, Note_on_c, 0, 64, 80
1, 29599, Note_on_c, 0, 64, 0
1, 29600, Note_on_c, 0, 67, 80
1, 29759, Note_on_c, 0, 67, 0
1, 29760, Note_on_c, 0, 59, 80
1, 29919, Note_on_c, 0, 59, 0
1, 29920, Note_on_c, 0, 64, 80
1, 30079, Note_on_c, 0, 64, 0
1, 30080, Note_on_c, 0, 67, 80
1, 30239, Note_on_c, 0, 72, 0
1, 30239, Note_on_c, 0, 67, 0
1, 30240, Note_on_c, 0, 59, 80
1, 30240, Note_on_c, 0, 70, 80
1, 30399, Note_on_c, 0, 59, 0
1, 30400, Note_on_c, 0, 64, 80
1, 30559, Note_on_c, 0, 64, 0
1, 30560, Note_on_c, 0, 67, 80
1, 30719, Note_on_c, 0, 70, 0
1, 30719, Note_on_c, 0, 67, 0
1, 30720, Note_on_c, 0, 59, 80
1, 30720, Note_on_c, 0, 71, 80
1, 30879, Note_on_c, 0, 59, 0
1, 30880, Note_on_c, 0, 63, 80
1, 31039, Note_on_c, 0, 63, 0
1, 31040, Note_on_c, 0, 66, 80
1, 31199, Note_on_c, 0, 66, 0
1, 31200, Note_on_c, 0, 59, 80
1, 31359, Note_on_c, 0, 59, 0
1, 31360, Note_on_c, 0, 63, 80
1, 31519, Note_on_c, 0, 63, 0
1, 31520, Note_on_c, 0, 66, 80
1, 31679, Note_on_c, 0, 66, 0
1, 31680, Note_on_c, 0, 59, 80
1, 31839, Note_on_c, 0, 59, 0
1, 31840, Note_on_c, 0, 63, 80
1, 31999, Note_on_c, 0, 63, 0
1, 32000, Note_on_c, 0, 66, 80
1, 32159, Note_on_c, 0, 71, 0
1, 32159, Note_on_c, 0, 66, 0
1, 32160, Note_on_c, 0, 59, 80
1, 32160, Note_on_c, 0, 71, 80
1, 32319, Note_on_c, 0, 59, 0
1, 32320, Note_on_c, 0, 63, 80
1, 32479, Note_on_c, 0, 63, 0
1, 32480, Note_on_c, 0, 66, 80
1, 32639, Note_on_c, 0, 71, 0
1, 32639, Note_on_c, 0, 66, 0
1, 32640, Note_on_c, 0, 59, 80
1, 32640, Note_on_c, 0, 72, 80
1, 32799, Note_on_c, 0, 59, 0
1, 32800, Note_on_c, 0, 64, 80
1, 32959, Note_on_c, 0, 64, 0
1, 32960, Note_on_c, 0, 67, 80
1, 33119, Note_on_c, 0, 67, 0
1, 33120, Note_on_c, 0, 59, 80
1, 33279, Note_on_c, 0, 59, 0
1, 33280, Note_on_c, 0, 64, 80
1, 33439, Note_on_c, 0, 64, 0
1, 33440, Note_on_c, 0, 67, 80
1, 33599, Note_on_c, 0, 67, 0
1, 33600, Note_on_c, 0, 59, 80
1, 33759, Note_on_c, 0, 59, 0
1, 33760, Note_on_c, 0, 64, 80
1, 33919, Note_on_c, 0, 64, 0
1, 33920, Note_on_c, 0, 67, 80
1, 34079, Note_on_c, 0, 72, 0
1, 34079, Note_on_c, 0, 67, 0
1, 34080, Note_on_c, 0, 59, 80
1, 34080, Note_on_c, 0, 70, 80
1, 34239, Note_on_c, 0, 59, 0
1, 34240, Note_on_c, 0, 64, 80
1, 34399, Note_on_c, 0, 64, 0
1, 34400, Note_on_c, 0, 67, 80
1, 34559, Note_on_c, 0, 70, 0
1, 34559, Note_on_c, 0, 67, 0
1, 34560, Note_on_c, 0, 59, 80
1, 34560, Note_on_c, 0, 71, 80
1, 34719, Note_on_c, 0, 59, 0
1, 34720, Note_on_c, 0, 63, 80
1, 34879, Note_on_c, 0, 63, 0
1, 34880, Note_on_c, 0, 66, 80
1, 35039, Note_on_c, 0, 66, 0
1, 35040, Note_on_c, 0, 59, 80
1, 35199, Note_on_c, 0, 59, 0
1, 35200, Note_on_c, 0, 63, 80
1, 35359, Note_on_c, 0, 63, 0
1, 35360, Note_on_c, 0, 66, 80
1, 35519, Note_on_c, 0, 71, 0
1, 35519, Note_on_c, 0, 66, 0
1, 35520, Note_on_c, 0, 59, 80
1, 35520, Note_on_c, 0, 71, 80
1, 35679, Note_on_c, 0, 59, 0
1, 35680, Note_on_c, 0, 62, 80
1, 35839, Note_on_c, 0, 62, 0
1, 35840, Note_on_c, 0, 65, 80
1, 35999, Note_on_c, 0, 65, 0
1, 36000, Note_on_c, 0, 59, 80
1, 36159, Note_on_c, 0, 59, 0
1, 36160, Note_on_c, 0, 62, 80
1, 36319, Note_on_c, 0, 62, 0
1, 36320, Note_on_c, 0, 65, 80
1, 36479, Note_on_c, 0, 71, 0
1, 36479, Note_on_c, 0, 65, 0
1, 36480, Note_on_c, 0, 59, 80
1, 36480, Note_on_c, 0, 71, 80
1, 36639, Note_on_c, 0, 59, 0
1, 36640, Note_on_c, 0, 61, 80
1, 36799, Note_on_c, 0, 61, 0
1, 36800, Note_on_c, 0, 68, 80
1, 36959, Note_on_c, 0, 68, 0
1, 36960, Note_on_c, 0, 59, 80
1, 37119, Note_on_c, 0, 59, 0
1, 37120, Note_on_c, 0, 61, 80
1, 37279, Note_on_c, 0, 61, 0
1, 37280, Note_on_c, 0, 68, 80
1, 37439, Note_on_c, 0, 71, 0
1, 37439, Note_on_c, 0, 68, 0
1, 37440, Note_on_c, 0, 57, 80
1, 37440, Note_on_c, 0, 69, 80
1, 37599, Note_on_c, 0, 57, 0
1, 37600, Note_on_c, 0, 61, 80
1, 37759, Note_on_c, 0, 61, 0
1, 37760, Note_on_c, 0, 66, 80
1, 37919, Note_on_c, 0, 66, 0
1, 37920, Note_on_c, 0, 57, 80
1, 38079, Note_on_c, 0, 57, 0
1, 38080, Note_on_c, 0, 61, 80
1, 38239, Note_on_c, 0, 61, 0
1, 38240, Note_on_c, 0, 66, 80
1, 38399, Note_on_c, 0, 69, 0
1, 38399, Note_on_c, 0, 66, 0
1, 38400, Note_on_c, 0, 55, 80
1, 38400, Note_on_c, 0, 67, 80
1, 38559, Note_on_c, 0, 55, 0
1, 38560, Note_on_c, 0, 59, 80
1, 38719, Note_on_c, 0, 59, 0
1, 38720, Note_on_c, 0, 62, 80
1, 38879, Note_on_c, 0, 62, 0
1, 38880, Note_on_c, 0, 55, 80
1, 39039, Note_on_c, 0, 55, 0
1, 39040, Note_on_c, 0, 59, 80
1, 39199, Note_on_c, 0, 59, 0
1, 39200, Note_on_c, 0, 62, 80
1, 39359, Note_on_c, 0, 67, 0
1, 39359, Note_on_c, 0, 62, 0
1, 39360, Note_on_c, 0, 54, 80
1, 39360, Note_on_c, 0, 66, 80
1, 39519, Note_on_c, 0, 54, 0
1, 39520, Note_on_c, 0, 57, 80
1, 39679, Note_on_c, 0, 57, 0
1, 39680, Note_on_c, 0, 63, 80
1, 39839, Note_on_c, 0, 63, 0
1, 39840, Note_on_c, 0, 54, 80
1, 39999, Note_on_c, 0, 54, 0
1, 40000, Note_on_c, 0, 57, 80
1, 40159, Note_on_c, 0, 57, 0
1, 40160, Note_on_c, 0, 63, 80
1, 40319, Note_on_c, 0, 66, 0
1, 40319, Note_on_c, 0, 63, 0
1, 40320, Note_on_c, 0, 49, 80
1, 40320, Note_on_c, 0, 61, 80
1, 40479, Note_on_c, 0, 49, 0
1, 40480, Note_on_c, 0, 54, 80
1, 40639, Note_on_c, 0, 54, 0
1, 40640, Note_on_c, 0, 57, 80
1, 40799, Note_on_c, 0, 57, 0
1, 40800, Note_on_c, 0, 49, 80
1, 40959, Note_on_c, 0, 49, 0
1, 40960, Note_on_c, 0, 54, 80
1, 41119, Note_on_c, 0, 54, 0
1, 41120, Note_on_c, 0, 57, 80
1, 41279, Note_on_c, 0, 61, 0
1, 41279, Note_on_c, 0, 57, 0
1, 41280, Note_on_c, 0, 49, 80
1, 41280, Note_on_c, 0, 61, 80
1, 41439, Note_on_c, 0, 49, 0
1, 41440, Note_on_c, 0, 54, 80
1, 41599, Note_on_c, 0, 54, 0
1, 41600, Note_on_c, 0, 56, 80
1, 41759, Note_on_c, 0, 61, 0
1, 41759, Note_on_c, 0, 56, 0
1, 41760, Note_on_c, 0, 49, 80
1, 41760, Note_on_c, 0, 61, 80
1, 41919, Note_on_c, 0, 49, 0
1, 41920, Note_on_c, 0, 53, 80
1, 42079, Note_on_c, 0, 53, 0
1, 42080, Note_on_c, 0, 56, 80
1, 42239, Note_on_c, 0, 61, 0
1, 42239, Note_on_c, 0, 56, 0
1, 42240, Note_on_c, 0, 54, 80
1, 42399, Note_on_c, 0, 54, 0
1, 42400, Note_on_c, 0, 57, 80
1, 42559, Note_on_c, 0, 57, 0
1, 42560, Note_on_c, 0, 61, 80
1, 42719, Note_on_c, 0, 61, 0
1, 42720, Note_on_c, 0, 57, 80
1, 42879, Note_on_c, 0, 57, 0
1, 42880, Note_on_c, 0, 61, 80
1, 43039, Note_on_c, 0, 61, 0
1, 43040, Note_on_c, 0, 66, 80
1, 43199, Note_on_c, 0, 66, 0
1, 43200, Note_on_c, 0, 61, 80
1, 43359, Note_on_c, 0, 61, 0
1, 43360, Note_on_c, 0, 66, 80
1, 43519, Note_on_c, 0, 66, 0
1, 43520, Note_on_c, 0, 69, 80
1, 43679, Note_on_c, 0, 69, 0
1, 43680, Note_on_c, 0, 61, 80
1, 43680, Note_on_c, 0, 73, 80
1, 43839, Note_on_c, 0, 61, 0
1, 43840, Note_on_c, 0, 66, 80
1, 43999, Note_on_c, 0, 66, 0
1, 44000, Note_on_c, 0, 69, 80
1, 44039, Note_on_c, 0, 73, 0
1, 44040, Note_on_c, 0, 73, 80
1, 44159, Note_on_c, 0, 69, 0
1, 44159, Note_on_c, 0, 73, 0
1, 44160, Note_on_c, 0, 61, 80
1, 44160, Note_on_c, 0, 73, 80
1, 44319, Note_on_c, 0, 61, 0
1, 44320, Note_on_c, 0, 68, 80
1, 44479, Note_on_c, 0, 68, 0
1, 44480, Note_on_c, 0, 71, 80
1, 44639, Note_on_c, 0, 71, 0
1, 44640, Note_on_c, 0, 61, 80
1, 44799, Note_on_c, 0, 61, 0
1, 44800, Note_on_c, 0, 68, 80
1, 44959, Note_on_c, 0, 68, 0
1, 44960, Note_on_c, 0, 71, 80
1, 45119, Note_on_c, 0, 71, 0
1, 45120, Note_on_c, 0, 61, 80
1, 45279, Note_on_c, 0, 61, 0
1, 45280, Note_on_c, 0, 68, 80
1, 45439, Note_on_c, 0, 68, 0
1, 45440, Note_on_c, 0, 71, 80
1, 45599, Note_on_c, 0, 73, 0
1, 45599, Note_on_c, 0, 71, 0
1, 45600, Note_on_c, 0, 61, 80
1, 45600, Note_on_c, 0, 73, 80
1, 45759, Note_on_c, 0, 61, 0
1, 45760, Note_on_c, 0, 68, 80
1, 45919, Note_on_c, 0, 68, 0
1, 45920, Note_on_c, 0, 71, 80
1, 45959, Note_on_c, 0, 73, 0
1, 45960, Note_on_c, 0, 73, 80
1, 46079, Note_on_c, 0, 71, 0
1, 46079, Note_on_c, 0, 73, 0
1, 46080, Note_on_c, 0, 61, 80
1, 46080, Note_on_c, 0, 73, 80
1, 46239, Note_on_c, 0, 61, 0
1, 46240, Note_on_c, 0, 66, 80
1, 46399, Note_on_c, 0, 66, 0
1, 46400, Note_on_c, 0, 69, 80
1, 46559, Note_on_c, 0, 69, 0
1, 46560, Note_on_c, 0, 61, 80
1, 46719, Note_on_c, 0, 61, 0
1, 46720, Note_on_c, 0, 66, 80
1, 46879, Note_on_c, 0, 66, 0
1, 46880, Note_on_c, 0, 69, 80
1, 47039, Note_on_c, 0, 73, 0
1, 47039, Note_on_c, 0, 69, 0
1, 47040, Note_on_c, 0, 60, 80
1, 47040, Note_on_c, 0, 72, 80
1, 47199, Note_on_c, 0, 60, 0
1, 47200, Note_on_c, 0, 66, 80
1, 47359, Note_on_c, 0, 66, 0
1, 47360, Note_on_c, 0, 69, 80
1, 47519, Note_on_c, 0, 72, 0
1, 47519, Note_on_c, 0, 69, 0
1, 47520, Note_on_c, 0, 61, 80
1, 47520, Note_on_c, 0, 73, 80
1, 47679, Note_on_c, 0, 61, 0
1, 47680, Note_on_c, 0, 66, 80
1, 47839, Note_on_c, 0, 66, 0
1, 47840, Note_on_c, 0, 69, 80
1, 47999, Note_on_c, 0, 73, 0
1, 47999, Note_on_c, 0, 69, 0
1, 48000, Note_on_c, 0, 63, 80
1, 48000, Note_on_c, 0, 75, 80
1, 48159, Note_on_c, 0, 63, 0
1, 48160, Note_on_c, 0, 66, 80
1, 48319, Note_on_c, 0, 66, 0
1, 48320, Note_on_c, 0, 68, 80
1, 48479, Note_on_c, 0, 68, 0
1, 48480, Note_on_c, 0, 63, 80
1, 48639, Note_on_c, 0, 63, 0
1, 48640, Note_on_c, 0, 66, 80
1, 48799, Note_on_c, 0, 66, 0
1, 48800, Note_on_c, 0, 68, 80
1, 48959, Note_on_c, 0, 68, 0
1, 48960, Note_on_c, 0, 63, 80
1, 49119, Note_on_c, 0, 63, 0
1, 49120, Note_on_c, 0, 66, 80
1, 49279, Note_on_c, 0, 66, 0
1, 49280, Note_on_c, 0, 68, 80
1, 49439, Note_on_c, 0, 75, 0
1, 49439, Note_on_c, 0, 68, 0
1, 49440, Note_on_c, 0, 63, 80
1, 49440, Note_on_c, 0, 75, 80
1, 49599, Note_on_c, 0, 63, 0
1, 49600, Note_on_c, 0, 66, 80
1, 49759, Note_on_c, 0, 66, 0
1, 49760, Note_on_c, 0, 68, 80
1, 49919, Note_on_c, 0, 75, 0
1, 49919, Note_on_c, 0, 68, 0
1, 49920, Note_on_c, 0, 64, 80
1, 49920, Note_on_c, 0, 76, 80
1, 50079, Note_on_c, 0, 64, 0
1, 50080, Note_on_c, 0, 68, 80
1, 50239, Note_on_c, 0, 68, 0
1, 50240, Note_on_c, 0, 73, 80
1, 50399, Note_on_c, 0, 73, 0
1, 50400, Note_on_c, 0, 64, 80
1, 50559, Note_on_c, 0, 64, 0
1, 50560, Note_on_c, 0, 68, 80
1, 50719, Note_on_c, 0, 68, 0
1, 50720, Note_on_c, 0, 73, 80
1, 50879, Note_on_c, 0, 76, 0
1, 50879, Note_on_c, 0, 73, 0
1, 50880, Note_on_c, 0, 63, 80
1, 50880, Note_on_c, 0, 75, 80
1, 51039, Note_on_c, 0, 63, 0
1, 51040, Note_on_c, 0, 66, 80
1, 51199, Note_on_c, 0, 66, 0
1, 51200, Note_on_c, 0, 69, 80
1, 51359, Note_on_c, 0, 75, 0
1, 51359, Note_on_c, 0, 69, 0
1, 51360, Note_on_c, 0, 61, 80
1, 51360, Note_on_c, 0, 73, 80
1, 51519, Note_on_c, 0, 61, 0
1, 51520, Note_on_c, 0, 64, 80
1, 51679, Note_on_c, 0, 64, 0
1, 51680, Note_on_c, 0, 70, 80
1, 51839, Note_on_c, 0, 73, 0
1, 51839, Note_on_c, 0, 70, 0
1, 51840, Note_on_c, 0, 72, 80
1, 51999, Note_on_c, 0, 72, 0
1, 52000, Note_on_c, 0, 60, 80
1, 52159, Note_on_c, 0, 60, 0
1, 52160, Note_on_c, 0, 63, 80
1, 52319, Note_on_c, 0, 63, 0
1, 52320, Note_on_c, 0, 68, 80
1, 52320, Note_on_c, 0, 68, 80
1, 52479, Note_on_c, 0, 68, 0
1, 52480, Note_on_c, 0, 60, 80
1, 52639, Note_on_c, 0, 60, 0
1, 52640, Note_on_c, 0, 63, 80
1, 52799, Note_on_c, 0, 68, 0
1, 52799, Note_on_c, 0, 63, 0
1, 52800, Note_on_c, 0, 69, 80
1, 52800, Note_on_c, 0, 69, 80
1, 52959, Note_on_c, 0, 69, 0
1, 52960, Note_on_c, 0, 60, 80
1, 53119, Note_on_c, 0, 60, 0
1, 53120, Note_on_c, 0, 63, 80
1, 53279, Note_on_c, 0, 69, 0
1, 53279, Note_on_c, 0, 63, 0
1, 53280, Note_on_c, 0, 66, 80
1, 53280, Note_on_c, 0, 66, 80
1, 53439, Note_on_c, 0, 66, 0
1, 53440, Note_on_c, 0, 60, 80
1, 53599, Note_on_c, 0, 60, 0
1, 53600, Note_on_c, 0, 63, 80
1, 53759, Note_on_c, 0, 66, 0
1, 53759, Note_on_c, 0, 63, 0
1, 53920, Note_on_c, 0, 60, 80
1, 54079, Note_on_c, 0, 60, 0
1, 54080, Note_on_c, 0, 63, 80
1, 54239, Note_on_c, 0, 63, 0
1, 54240, Note_on_c, 0, 56, 80
1, 54240, Note_on_c, 0, 56, 80
1, 54399, Note_on_c, 0, 56, 0
1, 54400, Note_on_c, 0, 60, 80
1, 54559, Note_on_c, 0, 60, 0
1, 54560, Note_on_c, 0, 63, 80
1, 54719, Note_on_c, 0, 56, 0
1, 54719, Note_on_c, 0, 63, 0
1, 54720, Note_on_c, 0, 57, 80
1, 54720, Note_on_c, 0, 57, 80
1, 54879, Note_on_c, 0, 57, 0
1, 54880, Note_on_c, 0, 60, 80
1, 55039, Note_on_c, 0, 60, 0
1, 55040, Note_on_c, 0, 63, 80
1, 55199, Note_on_c, 0, 57, 0
1, 55199, Note_on_c, 0, 63, 0
1, 55200, Note_on_c, 0, 54, 80
1, 55200, Note_on_c, 0, 54, 80
1, 55359, Note_on_c, 0, 54, 0
1, 55360, Note_on_c, 0, 60, 80
1, 55519, Note_on_c, 0, 60, 0
1, 55520, Note_on_c, 0, 63, 80
1, 55679, Note_on_c, 0, 54, 0
1, 55679, Note_on_c, 0, 63, 0
1, 55680, Note_on_c, 0, 52, 80
1, 55839, Note_on_c, 0, 52, 0
1, 55840, Note_on_c, 0, 64, 80
1, 55999, Note_on_c, 0, 64, 0
1, 56000, Note_on_c, 0, 68, 80
1, 56159, Note_on_c, 0, 68, 0
1, 56160, Note_on_c, 0, 73, 80
1, 56160, Note_on_c, 0, 73, 80
1, 56319, Note_on_c, 0, 73, 0
1, 56320, Note_on_c, 0, 64, 80
1, 56479, Note_on_c, 0, 64, 0
1, 56480, Note_on_c, 0, 68, 80
1, 56639, Note_on_c, 0, 73, 0
1, 56639, Note_on_c, 0, 68, 0
1, 56640, Note_on_c, 0, 76, 80
1, 56640, Note_on_c, 0, 76, 80
1, 56799, Note_on_c, 0, 76, 0
1, 56800, Note_on_c, 0, 64, 80
1, 56959, Note_on_c, 0, 64, 0
1, 56960, Note_on_c, 0, 68, 80
1, 57119, Note_on_c, 0, 76, 0
1, 57119, Note_on_c, 0, 68, 0
1, 57120, Note_on_c, 0, 73, 80
1, 57120, Note_on_c, 0, 73, 80
1, 57279, Note_on_c, 0, 73, 0
1, 57280, Note_on_c, 0, 64, 80
1, 57439, Note_on_c, 0, 64, 0
1, 57440, Note_on_c, 0, 68, 80
1, 57599, Note_on_c, 0, 73, 0
1, 57599, Note_on_c, 0, 68, 0
1, 57760, Note_on_c, 0, 52, 80
1, 57919, Note_on_c, 0, 52, 0
1, 57920, Note_on_c, 0, 56, 80
1, 58079, Note_on_c, 0, 56, 0
1, 58080, Note_on_c, 0, 61, 80
1, 58080, Note_on_c, 0, 61, 80
1, 58239, Note_on_c, 0, 61, 0
1, 58240, Note_on_c, 0, 52, 80
1, 58399, Note_on_c, 0, 52, 0
1, 58400, Note_on_c, 0, 56, 80
1, 58559, Note_on_c, 0, 61, 0
1, 58559, Note_on_c, 0, 56, 0
1, 58560, Note_on_c, 0, 64, 80
1, 58560, Note_on_c, 0, 64, 80
1, 58719, Note_on_c, 0, 64, 0
1, 58720, Note_on_c, 0, 52, 80
1, 58879, Note_on_c, 0, 52, 0
1, 58880, Note_on_c, 0, 56, 80
1, 59039, Note_on_c, 0, 64, 0
1, 59039, Note_on_c, 0, 56, 0
1, 59040, Note_on_c, 0, 61, 80
1, 59040, Note_on_c, 0, 61, 80
1, 59199, Note_on_c, 0, 61, 0
1, 59200, Note_on_c, 0, 52, 80
1, 59359, Note_on_c, 0, 52, 0
1, 59360, Note_on_c, 0, 56, 80
1, 59519, Note_on_c, 0, 61, 0
1, 59519, Note_on_c, 0, 56, 0
1, 59520, Note_on_c, 0, 51, 80
1, 59679, Note_on_c, 0, 51, 0
1, 59680, Note_on_c, 0, 57, 80
1, 59839, Note_on_c, 0, 57, 0
1, 59840, Note_on_c, 0, 54, 80
1, 59999, Note_on_c, 0, 54, 0
1, 60000, Note_on_c, 0, 60, 80
1, 60159, Note_on_c, 0, 60, 0
1, 60160, Note_on_c, 0, 57, 80
1, 60319, Note_on_c, 0, 57, 0
1, 60320, Note_on_c, 0, 63, 80
1, 60479, Note_on_c, 0, 63, 0
1, 60480, Note_on_c, 0, 60, 80
1, 60639, Note_on_c, 0, 60, 0
1, 60640, Note_on_c, 0, 66, 80
1, 60799, Note_on_c, 0, 66, 0
1, 60800, Note_on_c, 0, 63, 80
1, 60959, Note_on_c, 0, 63, 0
1, 60960, Note_on_c, 0, 69, 80
1, 61119, Note_on_c, 0, 69, 0
1, 61120, Note_on_c, 0, 66, 80
1, 61279, Note_on_c, 0, 66, 0
1, 61280, Note_on_c, 0, 72, 80
1, 61439, Note_on_c, 0, 72, 0
1, 61440, Note_on_c, 0, 52, 80
1, 61599, Note_on_c, 0, 52, 0
1, 61600, Note_on_c, 0, 61, 80
1, 61759, Note_on_c, 0, 61, 0
1, 61760, Note_on_c, 0, 56, 80
1, 61919, Note_on_c, 0, 56, 0
1, 61920, Note_on_c, 0, 64, 80
1, 62079, Note_on_c, 0, 64, 0
1, 62080, Note_on_c, 0, 61, 80
1, 62239, Note_on_c, 0, 61, 0
1, 62240, Note_on_c, 0, 68, 80
1, 62399, Note_on_c, 0, 68, 0
1, 62400, Note_on_c, 0, 64, 80
1, 62559, Note_on_c, 0, 64, 0
1, 62560, Note_on_c, 0, 73, 80
1, 62719, Note_on_c, 0, 73, 0
1, 62720, Note_on_c, 0, 68, 80
1, 62879, Note_on_c, 0, 68, 0
1, 62880, Note_on_c, 0, 76, 80
1, 63039, Note_on_c, 0, 76, 0
1, 63040, Note_on_c, 0, 73, 80
1, 63199, Note_on_c, 0, 73, 0
1, 63200, Note_on_c, 0, 68, 80
1, 63359, Note_on_c, 0, 68, 0
1, 63360, Note_on_c, 0, 61, 80
1, 63519, Note_on_c, 0, 61, 0
1, 63520, Note_on_c, 0, 67, 80
1, 63679, Note_on_c, 0, 67, 0
1, 63680, Note_on_c, 0, 64, 80
1, 63839, Note_on_c, 0, 64, 0
1, 63840, Note_on_c, 0, 70, 80
1, 63999, Note_on_c, 0, 70, 0
1, 64000, Note_on_c, 0, 67, 80
1, 64159, Note_on_c, 0, 67, 0
1, 64160, Note_on_c, 0, 73, 80
1, 64319, Note_on_c, 0, 73, 0
1, 64320, Note_on_c, 0, 70, 80
1, 64479, Note_on_c, 0, 70, 0
1, 64480, Note_on_c, 0, 76, 80
1, 64639, Note_on_c, 0, 76, 0
1, 64640, Note_on_c, 0, 73, 80
1, 64799, Note_on_c, 0, 73, 0
1, 64800, Note_on_c, 0, 79, 80
1, 64959, Note_on_c, 0, 79, 0
1, 64960, Note_on_c, 0, 76, 80
1, 65119, Note_on_c, 0, 76, 0
1, 65120, Note_on_c, 0, 82, 80
1, 65279, Note_on_c, 0, 82, 0
1, 65280, Note_on_c, 0, 66, 80
1, 65439, Note_on_c, 0, 66, 0
1, 65440, Note_on_c, 0, 72, 80
1, 65599, Note_on_c, 0, 72, 0
1, 65600, Note_on_c, 0, 69, 80
1, 65759, Note_on_c, 0, 69, 0
1, 65760, Note_on_c, 0, 75, 80
1, 65919, Note_on_c, 0, 75, 0
1, 65920, Note_on_c, 0, 72, 80
1, 66079, Note_on_c, 0, 72, 0
1, 66080, Note_on_c, 0, 78, 80
1, 66239, Note_on_c, 0, 78, 0
1, 66240, Note_on_c, 0, 75, 80
1, 66399, Note_on_c, 0, 75, 0
1, 66400, Note_on_c, 0, 81, 80
1, 66559, Note_on_c, 0, 81, 0
1, 66560, Note_on_c, 0, 78, 80
1, 66719, Note_on_c, 0, 78, 0
1, 66720, Note_on_c, 0, 84, 80
1, 66879, Note_on_c, 0, 84, 0
1, 66880, Note_on_c, 0, 81, 80
1, 67039, Note_on_c, 0, 81, 0
1, 67040, Note_on_c, 0, 87, 80
1, 67199, Note_on_c, 0, 87, 0
1, 67200, Note_on_c, 0, 84, 80
1, 67359, Note_on_c, 0, 84, 0
1, 67360, Note_on_c, 0, 78, 80
1, 67519, Note_on_c, 0, 78, 0
1, 67520, Note_on_c, 0, 81, 80
1, 67679, Note_on_c, 0, 81, 0
1, 67680, Note_on_c, 0, 75, 80
1, 67839, Note_on_c, 0, 75, 0
1, 67840, Note_on_c, 0, 78, 80
1, 67999, Note_on_c, 0, 78, 0
1, 68000, Note_on_c, 0, 72, 80
1, 68159, Note_on_c, 0, 72, 0
1, 68160, Note_on_c, 0, 75, 80
1, 68319, Note_on_c, 0, 75, 0
1, 68320, Note_on_c, 0, 69, 80
1, 68479, Note_on_c, 0, 69, 0
1, 68480, Note_on_c, 0, 72, 80
1, 68639, Note_on_c, 0, 72, 0
1, 68640, Note_on_c, 0, 66, 80
1, 68799, Note_on_c, 0, 66, 0
1, 68800, Note_on_c, 0, 69, 80
1, 68959, Note_on_c, 0, 69, 0
1, 68960, Note_on_c, 0, 63, 80
1, 69119, Note_on_c, 0, 63, 0
1, 69120, Note_on_c, 0, 66, 80
1, 69279, Note_on_c, 0, 66, 0
1, 69280, Note_on_c, 0, 60, 80
1, 69439, Note_on_c, 0, 60, 0
1, 69440, Note_on_c, 0, 63, 80
1, 69599, Note_on_c, 0, 63, 0
1, 69600, Note_on_c, 0, 57, 80
1, 69759, Note_on_c, 0, 57, 0
1, 69760, Note_on_c, 0, 60, 80
1, 69919, Note_on_c, 0, 60, 0
1, 69920, Note_on_c, 0, 54, 80
1, 70079, Note_on_c, 0, 54, 0
1, 70080, Note_on_c, 0, 57, 80
1, 70080, Note_on_c, 0, 57, 80
1, 70239, Note_on_c, 0, 57, 0
1, 70239, Note_on_c, 0, 57, 0
1, 70240, Note_on_c, 0, 51, 80
1, 70240, Note_on_c, 0, 51, 80
1, 70399, Note_on_c, 0, 51, 0
1, 70400, Note_on_c, 0, 54, 80
1, 70559, Note_on_c, 0, 51, 0
1, 70559, Note_on_c, 0, 54, 0
1, 70560, Note_on_c, 0, 49, 80
1, 70719, Note_on_c, 0, 49, 0
1, 70720, Note_on_c, 0, 54, 80
1, 70720, Note_on_c, 0, 54, 80
1, 70879, Note_on_c, 0, 54, 0
1, 70880, Note_on_c, 0, 57, 80
1, 71039, Note_on_c, 0, 54, 0
1, 71039, Note_on_c, 0, 57, 0
1, 71040, Note_on_c, 0, 48, 80
1, 71040, Note_on_c, 0, 48, 80
1, 71199, Note_on_c, 0, 48, 0
1, 71200, Note_on_c, 0, 54, 80
1, 71359, Note_on_c, 0, 54, 0
1, 71360, Note_on_c, 0, 56, 80
1, 71519, Note_on_c, 0, 56, 0
1, 71520, Note_on_c, 0, 57, 80
1, 71679, Note_on_c, 0, 57, 0
1, 71680, Note_on_c, 0, 56, 80
1, 71839, Note_on_c, 0, 56, 0
1, 71840, Note_on_c, 0, 54, 80
1, 71999, Note_on_c, 0, 48, 0
1, 71999, Note_on_c, 0, 54, 0
1, 72000, Note_on_c, 0, 51, 80
1, 72000, Note_on_c, 0, 51, 80
1, 72159, Note_on_c, 0, 51, 0
1, 72160, Note_on_c, 0, 54, 80
1, 72319, Note_on_c, 0, 54, 0
1, 72320, Note_on_c, 0, 57, 80
1, 72479, Note_on_c, 0, 51, 0
1, 72479, Note_on_c, 0, 57, 0
1, 72480, Note_on_c, 0, 49, 80
1, 72480, Note_on_c, 0, 49, 80
1, 72639, Note_on_c, 0, 49, 0
1, 72640, Note_on_c, 0, 54, 80
1, 72799, Note_on_c, 0, 54, 0
1, 72800, Note_on_c, 0, 57, 80
1, 72959, Note_on_c, 0, 49, 0
1, 72959, Note_on_c, 0, 57, 0
1, 72960, Note_on_c, 0, 48, 80
1, 72960, Note_on_c, 0, 48, 80
1, 73119, Note_on_c, 0, 48, 0
1, 73120, Note_on_c, 0, 54, 80
1, 73279, Note_on_c, 0, 54, 0
1, 73280, Note_on_c, 0, 56, 80
1, 73439, Note_on_c, 0, 56, 0
1, 73440, Note_on_c, 0, 57, 80
1, 73599, Note_on_c, 0, 57, 0
1, 73600, Note_on_c, 0, 56, 80
1, 73759, Note_on_c, 0, 56, 0
1, 73760, Note_on_c, 0, 54, 80
1, 73919, Note_on_c, 0, 48, 0
1, 73919, Note_on_c, 0, 54, 0
1, 73920, Note_on_c, 0, 51, 80
1, 73920, Note_on_c, 0, 50, 80
1, 74079, Note_on_c, 0, 51, 0
1, 74080, Note_on_c, 0, 54, 80
1, 74239, Note_on_c, 0, 54, 0
1, 74240, Note_on_c, 0, 57, 80
1, 74399, Note_on_c, 0, 50, 0
1, 74399, Note_on_c, 0, 57, 0
1, 74400, Note_on_c, 0, 49, 80
1, 74400, Note_on_c, 0, 49, 80
1, 74559, Note_on_c, 0, 49, 0
1, 74560, Note_on_c, 0, 54, 80
1, 74719, Note_on_c, 0, 54, 0
1, 74720, Note_on_c, 0, 57, 80
1, 74879, Note_on_c, 0, 49, 0
1, 74879, Note_on_c, 0, 57, 0
1, 74880, Note_on_c, 0, 48, 80
1, 74880, Note_on_c, 0, 48, 80
1, 75039, Note_on_c, 0, 48, 0
1, 75040, Note_on_c, 0, 54, 80
1, 75199, Note_on_c, 0, 54, 0
1, 75200, Note_on_c, 0, 56, 80
1, 75359, Note_on_c, 0, 56, 0
1, 75360, Note_on_c, 0, 57, 80
1, 75519, Note_on_c, 0, 57, 0
1, 75520, Note_on_c, 0, 56, 80
1, 75679, Note_on_c, 0, 56, 0
1, 75680, Note_on_c, 0, 54, 80
1, 75839, Note_on_c, 0, 48, 0
1, 75839, Note_on_c, 0, 54, 0
1, 75840, Note_on_c, 0, 49, 80
1, 75999, Note_on_c, 0, 49, 0
1, 76000, Note_on_c, 0, 52, 80
1, 76159, Note_on_c, 0, 52, 0
1, 76160, Note_on_c, 0, 61, 80
1, 76319, Note_on_c, 0, 61, 0
1, 76320, Note_on_c, 0, 49, 80
1, 76479, Note_on_c, 0, 49, 0
1, 76480, Note_on_c, 0, 52, 80
1, 76639, Note_on_c, 0, 52, 0
1, 76640, Note_on_c, 0, 61, 80
1, 76799, Note_on_c, 0, 61, 0
1, 76800, Note_on_c, 0, 51, 80
1, 76959, Note_on_c, 0, 51, 0
1, 76960, Note_on_c, 0, 57, 80
1, 77119, Note_on_c, 0, 57, 0
1, 77120, Note_on_c, 0, 61, 80
1, 77279, Note_on_c, 0, 61, 0
1, 77280, Note_on_c, 0, 51, 80
1, 77439, Note_on_c, 0, 51, 0
1, 77440, Note_on_c, 0, 57, 80
1, 77599, Note_on_c, 0, 57, 0
1, 77600, Note_on_c, 0, 61, 80
1, 77759, Note_on_c, 0, 61, 0
1, 77760, Note_on_c, 0, 51, 80
1, 77919, Note_on_c, 0, 51, 0
1, 77920, Note_on_c, 0, 56, 80
1, 78079, Note_on_c, 0, 56, 0
1, 78080, Note_on_c, 0, 60, 80
1, 78239, Note_on_c, 0, 60, 0
1, 78240, Note_on_c, 0, 51, 80
1, 78399, Note_on_c, 0, 51, 0
1, 78400, Note_on_c, 0, 54, 80
1, 78559, Note_on_c, 0, 54, 0
1, 78560, Note_on_c, 0, 60, 80
1, 78719, Note_on_c, 0, 60, 0
1, 78720, Note_on_c, 0, 52, 80
1, 78879, Note_on_c, 0, 52, 0
1, 78880, Note_on_c, 0, 56, 80
1, 79039, Note_on_c, 0, 56, 0
1, 79040, Note_on_c, 0, 61, 80
1, 79199, Note_on_c, 0, 61, 0
1, 79200, Note_on_c, 0, 56, 80
1, 79359, Note_on_c, 0, 56, 0
1, 79360, Note_on_c, 0, 61, 80
1, 79519, Note_on_c, 0, 61, 0
1, 79520, Note_on_c, 0, 64, 80
1, 79679, Note_on_c, 0, 64, 0
1, 79680, Note_on_c, 0, 56, 80
1, 79839, Note_on_c, 0, 56, 0
1, 79840, Note_on_c, 0, 61, 80
1, 79999, Note_on_c, 0, 61, 0
1, 80000, Note_on_c, 0, 64, 80
1, 80159, Note_on_c, 0, 64, 0
1, 80160, Note_on_c, 0, 56, 80
1, 80160, Note_on_c, 0, 68, 80
1, 80319, Note_on_c, 0, 56, 0
1, 80320, Note_on_c, 0, 61, 80
1, 80479, Note_on_c, 0, 61, 0
1, 80480, Note_on_c, 0, 64, 80
1, 80519, Note_on_c, 0, 68, 0
1, 80520, Note_on_c, 0, 68, 80
1, 80639, Note_on_c, 0, 64, 0
1, 80639, Note_on_c, 0, 68, 0
1, 80640, Note_on_c, 0, 56, 80
1, 80640, Note_on_c, 0, 68, 80
1, 80799, Note_on_c, 0, 56, 0
1, 80800, Note_on_c, 0, 63, 80
1, 80959, Note_on_c, 0, 63, 0
1, 80960, Note_on_c, 0, 66, 80
1, 81119, Note_on_c, 0, 66, 0
1, 81120, Note_on_c, 0, 56, 80
1, 81279, Note_on_c, 0, 56, 0
1, 81280, Note_on_c, 0, 63, 80
1, 81439, Note_on_c, 0, 63, 0
1, 81440, Note_on_c, 0, 66, 80
1, 81599, Note_on_c, 0, 66, 0
1, 81600, Note_on_c, 0, 56, 80
1, 81759, Note_on_c, 0, 56, 0
1, 81760, Note_on_c, 0, 63, 80
1, 81919, Note_on_c, 0, 63, 0
1, 81920, Note_on_c, 0, 66, 80
1, 82079, Note_on_c, 0, 68, 0
1, 82079, Note_on_c, 0, 66, 0
1, 82080, Note_on_c, 0, 56, 80
1, 82080, Note_on_c, 0, 68, 80
1, 82239, Note_on_c, 0, 56, 0
1, 82240, Note_on_c, 0, 63, 80
1, 82399, Note_on_c, 0, 63, 0
1, 82400, Note_on_c, 0, 66, 80
1, 82439, Note_on_c, 0, 68, 0
1, 82440, Note_on_c, 0, 68, 80
1, 82559, Note_on_c, 0, 66, 0
1, 82559, Note_on_c, 0, 68, 0
1, 82560, Note_on_c, 0, 56, 80
1, 82560, Note_on_c, 0, 68, 80
1, 82719, Note_on_c, 0, 56, 0
1, 82720, Note_on_c, 0, 61, 80
1, 82879, Note_on_c, 0, 61, 0
1, 82880, Note_on_c, 0, 64, 80
1, 83039, Note_on_c, 0, 64, 0
1, 83040, Note_on_c, 0, 56, 80
1, 83199, Note_on_c, 0, 56, 0
1, 83200, Note_on_c, 0, 61, 80
1, 83359, Note_on_c, 0, 61, 0
1, 83360, Note_on_c, 0, 64, 80
1, 83519, Note_on_c, 0, 68, 0
1, 83519, Note_on_c, 0, 64, 0
1, 83520, Note_on_c, 0, 57, 80
1, 83520, Note_on_c, 0, 69, 80
1, 83679, Note_on_c, 0, 57, 0
1, 83680, Note_on_c, 0, 61, 80
1, 83839, Note_on_c, 0, 61, 0
1, 83840, Note_on_c, 0, 66, 80
1, 83999, Note_on_c, 0, 66, 0
1, 84000, Note_on_c, 0, 57, 80
1, 84159, Note_on_c, 0, 57, 0
1, 84160, Note_on_c, 0, 61, 80
1, 84319, Note_on_c, 0, 61, 0
1, 84320, Note_on_c, 0, 66, 80
1, 84479, Note_on_c, 0, 69, 0
1, 84479, Note_on_c, 0, 66, 0
1, 84480, Note_on_c, 0, 56, 80
1, 84480, Note_on_c, 0, 68, 80
1, 84639, Note_on_c, 0, 56, 0
1, 84640, Note_on_c, 0, 59, 80
1, 84799, Note_on_c, 0, 59, 0
1, 84800, Note_on_c, 0, 64, 80
1, 84959, Note_on_c, 0, 64, 0
1, 84960, Note_on_c, 0, 56, 80
1, 85119, Note_on_c, 0, 56, 0
1, 85120, Note_on_c, 0, 59, 80
1, 85279, Note_on_c, 0, 59, 0
1, 85280, Note_on_c, 0, 64, 80
1, 85439, Note_on_c, 0, 68, 0
1, 85439, Note_on_c, 0, 64, 0
1, 85440, Note_on_c, 0, 57, 80
1, 85440, Note_on_c, 0, 66, 80
1, 85599, Note_on_c, 0, 57, 0
1, 85600, Note_on_c, 0, 59, 80
1, 85759, Note_on_c, 0, 59, 0
1, 85760, Note_on_c, 0, 63, 80
1, 85919, Note_on_c, 0, 66, 0
1, 85919, Note_on_c, 0, 63, 0
1, 85920, Note_on_c, 0, 57, 80
1, 85920, Note_on_c, 0, 71, 80
1, 86079, Note_on_c, 0, 57, 0
1, 86080, Note_on_c, 0, 59, 80
1, 86239, Note_on_c, 0, 59, 0
1, 86240, Note_on_c, 0, 63, 80
1, 86399, Note_on_c, 0, 71, 0
1, 86399, Note_on_c, 0, 63, 0
1, 86400, Note_on_c, 0, 56, 80
1, 86400, Note_on_c, 0, 64, 80
1, 86559, Note_on_c, 0, 56, 0
1, 86560, Note_on_c, 0, 59, 80
1, 86719, Note_on_c, 0, 59, 0
1, 86720, Note_on_c, 0, 64, 80
1, 86879, Note_on_c, 0, 64, 0
1, 86879, Note_on_c, 0, 64, 0
1, 86880, Note_on_c, 0, 59, 80
1, 87039, Note_on_c, 0, 59, 0
1, 87040, Note_on_c, 0, 64, 80
1, 87199, Note_on_c, 0, 64, 0
1, 87200, Note_on_c, 0, 68, 80
1, 87359, Note_on_c, 0, 68, 0
1, 87360, Note_on_c, 0, 59, 80
1, 87519, Note_on_c, 0, 59, 0
1, 87520, Note_on_c, 0, 64, 80
1, 87679, Note_on_c, 0, 64, 0
1, 87680, Note_on_c, 0, 68, 80
1, 87839, Note_on_c, 0, 68, 0
1, 87840, Note_on_c, 0, 56, 80
1, 87840, Note_on_c, 0, 71, 80
1, 87999, Note_on_c, 0, 56, 0
1, 88000, Note_on_c, 0, 64, 80
1, 88159, Note_on_c, 0, 64, 0
1, 88160, Note_on_c, 0, 68, 80
1, 88199, Note_on_c, 0, 71, 0
1, 88200, Note_on_c, 0, 71, 80
1, 88319, Note_on_c, 0, 68, 0
1, 88319, Note_on_c, 0, 71, 0
1, 88320, Note_on_c, 0, 59, 80
1, 88320, Note_on_c, 0, 71, 80
1, 88479, Note_on_c, 0, 59, 0
1, 88480, Note_on_c, 0, 66, 80
1, 88639, Note_on_c, 0, 66, 0
1, 88640, Note_on_c, 0, 69, 80
1, 88799, Note_on_c, 0, 69, 0
1, 88800, Note_on_c, 0, 59, 80
1, 88959, Note_on_c, 0, 59, 0
1, 88960, Note_on_c, 0, 66, 80
1, 89119, Note_on_c, 0, 66, 0
1, 89120, Note_on_c, 0, 69, 80
1, 89279, Note_on_c, 0, 69, 0
1, 89280, Note_on_c, 0, 59, 80
1, 89439, Note_on_c, 0, 59, 0
1, 89440, Note_on_c, 0, 66, 80
1, 89599, Note_on_c, 0, 66, 0
1, 89600, Note_on_c, 0, 69, 80
1, 89759, Note_on_c, 0, 71, 0
1, 89759, Note_on_c, 0, 69, 0
1, 89760, Note_on_c, 0, 59, 80
1, 89760, Note_on_c, 0, 71, 80
1, 89919, Note_on_c, 0, 59, 0
1, 89920, Note_on_c, 0, 66, 80
1, 90079, Note_on_c, 0, 66, 0
1, 90080, Note_on_c, 0, 69, 80
1, 90119, Note_on_c, 0, 71, 0
1, 90120, Note_on_c, 0, 71, 80
1, 90239, Note_on_c, 0, 69, 0
1, 90239, Note_on_c, 0, 71, 0
1, 90240, Note_on_c, 0, 59, 80
1, 90240, Note_on_c, 0, 71, 80
1, 90399, Note_on_c, 0, 59, 0
1, 90400, Note_on_c, 0, 64, 80
1, 90559, Note_on_c, 0, 64, 0
1, 90560, Note_on_c, 0, 68, 80
1, 90719, Note_on_c, 0, 68, 0
1, 90720, Note_on_c, 0, 59, 80
1, 90879, Note_on_c, 0, 59, 0
1, 90880, Note_on_c, 0, 64, 80
1, 91039, Note_on_c, 0, 64, 0
1, 91040, Note_on_c, 0, 68, 80
1, 91199, Note_on_c, 0, 71, 0
1, 91199, Note_on_c, 0, 68, 0
1, 91200, Note_on_c, 0, 60, 80
1, 91200, Note_on_c, 0, 72, 80
1, 91359, Note_on_c, 0, 60, 0
1, 91360, Note_on_c, 0, 66, 80
1, 91519, Note_on_c, 0, 66, 0
1, 91520, Note_on_c, 0, 68, 80
1, 91679, Note_on_c, 0, 72, 0
1, 91679, Note_on_c, 0, 68, 0
1, 91680, Note_on_c, 0, 61, 80
1, 91680, Note_on_c, 0, 73, 80
1, 91839, Note_on_c, 0, 61, 0
1, 91840, Note_on_c, 0, 64, 80
1, 91999, Note_on_c, 0, 64, 0
1, 92000, Note_on_c, 0, 68, 80
1, 92159, Note_on_c, 0, 73, 0
1, 92159, Note_on_c, 0, 68, 0
1, 92160, Note_on_c, 0, 63, 80
1, 92160, Note_on_c, 0, 75, 80
1, 92319, Note_on_c, 0, 63, 0
1, 92320, Note_on_c, 0, 66, 80
1, 92479, Note_on_c, 0, 66, 0
1, 92480, Note_on_c, 0, 68, 80
1, 92639, Note_on_c, 0, 68, 0
1, 92640, Note_on_c, 0, 63, 80
1, 92799, Note_on_c, 0, 63, 0
1, 92800, Note_on_c, 0, 66, 80
1, 92959, Note_on_c, 0, 66, 0
1, 92960, Note_on_c, 0, 68, 80
1, 93119, Note_on_c, 0, 75, 0
1, 93119, Note_on_c, 0, 68, 0
1, 93120, Note_on_c, 0, 64, 80
1, 93120, Note_on_c, 0, 76, 80
1, 93279, Note_on_c, 0, 64, 0
1, 93280, Note_on_c, 0, 68, 80
1, 93439, Note_on_c, 0, 68, 0
1, 93440, Note_on_c, 0, 73, 80
1, 93599, Note_on_c, 0, 73, 0
1, 93600, Note_on_c, 0, 64, 80
1, 93759, Note_on_c, 0, 64, 0
1, 93760, Note_on_c, 0, 68, 80
1, 93919, Note_on_c, 0, 68, 0
1, 93920, Note_on_c, 0, 73, 80
1, 94079, Note_on_c, 0, 76, 0
1, 94079, Note_on_c, 0, 73, 0
1, 94080, Note_on_c, 0, 62, 80
1, 94080, Note_on_c, 0, 74, 80
1, 94239, Note_on_c, 0, 62, 0
1, 94240, Note_on_c, 0, 66, 80
1, 94399, Note_on_c, 0, 66, 0
1, 94400, Note_on_c, 0, 69, 80
1, 94559, Note_on_c, 0, 69, 0
1, 94560, Note_on_c, 0, 62, 80
1, 94719, Note_on_c, 0, 62, 0
1, 94720, Note_on_c, 0, 66, 80
1, 94879, Note_on_c, 0, 66, 0
1, 94880, Note_on_c, 0, 69, 80
1, 95039, Note_on_c, 0, 74, 0
1, 95039, Note_on_c, 0, 69, 0
1, 95040, Note_on_c, 0, 60, 80
1, 95040, Note_on_c, 0, 72, 80
1, 95199, Note_on_c, 0, 60, 0
1, 95200, Note_on_c, 0, 66, 80
1, 95359, Note_on_c, 0, 66, 0
1, 95360, Note_on_c, 0, 68, 80
1, 95519, Note_on_c, 0, 68, 0
1, 95520, Note_on_c, 0, 60, 80
1, 95679, Note_on_c, 0, 60, 0
1, 95680, Note_on_c, 0, 66, 80
1, 95839, Note_on_c, 0, 66, 0
1, 95840, Note_on_c, 0, 68, 80
1, 95999, Note_on_c, 0, 72, 0
1, 95999, Note_on_c, 0, 68, 0
1, 96000, Note_on_c, 0, 61, 80
1, 96000, Note_on_c, 0, 73, 80
1, 96159, Note_on_c, 0, 61, 0
1, 96160, Note_on_c, 0, 64, 80
1, 96319, Note_on_c, 0, 64, 0
1, 96320, Note_on_c, 0, 68, 80
1, 96479, Note_on_c, 0, 68, 0
1, 96480, Note_on_c, 0, 61, 80
1, 96639, Note_on_c, 0, 61, 0
1, 96640, Note_on_c, 0, 64, 80
1, 96799, Note_on_c, 0, 64, 0
1, 96800, Note_on_c, 0, 68, 80
1, 96959, Note_on_c, 0, 68, 0
1, 96960, Note_on_c, 0, 61, 80
1, 97119, Note_on_c, 0, 61, 0
1, 97120, Note_on_c, 0, 65, 80
1, 97279, Note_on_c, 0, 65, 0
1, 97280, Note_on_c, 0, 68, 80
1, 97439, Note_on_c, 0, 73, 0
1, 97439, Note_on_c, 0, 68, 0
1, 97440, Note_on_c, 0, 61, 80
1, 97440, Note_on_c, 0, 73, 80
1, 97599, Note_on_c, 0, 61, 0
1, 97600, Note_on_c, 0, 65, 80
1, 97759, Note_on_c, 0, 65, 0
1, 97760, Note_on_c, 0, 68, 80
1, 97919, Note_on_c, 0, 73, 0
1, 97919, Note_on_c, 0, 68, 0
1, 97920, Note_on_c, 0, 61, 80
1, 97920, Note_on_c, 0, 74, 80
1, 98079, Note_on_c, 0, 61, 0
1, 98080, Note_on_c, 0, 66, 80
1, 98239, Note_on_c, 0, 66, 0
1, 98240, Note_on_c, 0, 69, 80
1, 98399, Note_on_c, 0, 69, 0
1, 98400, Note_on_c, 0, 61, 80
1, 98559, Note_on_c, 0, 61, 0
1, 98560, Note_on_c, 0, 66, 80
1, 98719, Note_on_c, 0, 66, 0
1, 98720, Note_on_c, 0, 69, 80
1, 98879, Note_on_c, 0, 69, 0
1, 98880, Note_on_c, 0, 61, 80
1, 99039, Note_on_c, 0, 61, 0
1, 99040, Note_on_c, 0, 66, 80
1, 99199, Note_on_c, 0, 66, 0
1, 99200, Note_on_c, 0, 69, 80
1, 99359, Note_on_c, 0, 74, 0
1, 99359, Note_on_c, 0, 69, 0
1, 99360, Note_on_c, 0, 61, 80
1, 99360, Note_on_c, 0, 72, 80
1, 99519, Note_on_c, 0, 61, 0
1, 99520, Note_on_c, 0, 66, 80
1, 99679, Note_on_c, 0, 66, 0
1, 99680, Note_on_c, 0, 69, 80
1, 99839, Note_on_c, 0, 72, 0
1, 99839, Note_on_c, 0, 69, 0
1, 99840, Note_on_c, 0, 61, 80
1, 99840, Note_on_c, 0, 73, 80
1, 99999, Note_on_c, 0, 61, 0
1, 100000, Note_on_c, 0, 65, 80
1, 100159, Note_on_c, 0, 65, 0
1, 100160, Note_on_c, 0, 68, 80
1, 100319, Note_on_c, 0, 68, 0
1, 100320, Note_on_c, 0, 61, 80
1, 100479, Note_on_c, 0, 61, 0
1, 100480, Note_on_c, 0, 65, 80
1, 100639, Note_on_c, 0, 65, 0
1, 100640, Note_on_c, 0, 68, 80
1, 100799, Note_on_c, 0, 68, 0
1, 100800, Note_on_c, 0, 61, 80
1, 100959, Note_on_c, 0, 61, 0
1, 100960, Note_on_c, 0, 65, 80
1, 101119, Note_on_c, 0, 65, 0
1, 101120, Note_on_c, 0, 68, 80
1, 101279, Note_on_c, 0, 73, 0
1, 101279, Note_on_c, 0, 68, 0
1, 101280, Note_on_c, 0, 61, 80
1, 101280, Note_on_c, 0, 73, 80
1, 101439, Note_on_c, 0, 61, 0
1, 101440, Note_on_c, 0, 65, 80
1, 101599, Note_on_c, 0, 65, 0
1, 101600, Note_on_c, 0, 68, 80
1, 101759, Note_on_c, 0, 73, 0
1, 101759, Note_on_c, 0, 68, 0
1, 101760, Note_on_c, 0, 61, 80
1, 101760, Note_on_c, 0, 74, 80
1, 101919, Note_on_c, 0, 61, 0
1, 101920, Note_on_c, 0, 66, 80
1, 102079, Note_on_c, 0, 66, 0
1, 102080, Note_on_c, 0, 69, 80
1, 102239, Note_on_c, 0, 69, 0
1, 102240, Note_on_c, 0, 61, 80
1, 102399, Note_on_c, 0, 61, 0
1, 102400, Note_on_c, 0, 66, 80
1, 102559, Note_on_c, 0, 66, 0
1, 102560, Note_on_c, 0, 69, 80
1, 102719, Note_on_c, 0, 69, 0
1, 102720, Note_on_c, 0, 61, 80
1, 102879, Note_on_c, 0, 61, 0
1, 102880, Note_on_c, 0, 66, 80
1, 103039, Note_on_c, 0, 66, 0
1, 103040, Note_on_c, 0, 69, 80
1, 103199, Note_on_c, 0, 74, 0
1, 103199, Note_on_c, 0, 69, 0
1, 103200, Note_on_c, 0, 61, 80
1, 103200, Note_on_c, 0, 72, 80
1, 103359, Note_on_c, 0, 61, 0
1, 103360, Note_on_c, 0, 66, 80
1, 103519, Note_on_c, 0, 66, 0
1, 103520, Note_on_c, 0, 69, 80
1, 103679, Note_on_c, 0, 72, 0
1, 103679, Note_on_c, 0, 69, 0
1, 103680, Note_on_c, 0, 61, 80
1, 103680, Note_on_c, 0, 73, 80
1, 103839, Note_on_c, 0, 61, 0
1, 103840, Note_on_c, 0, 65, 80
1, 103999, Note_on_c, 0, 65, 0
1, 104000, Note_on_c, 0, 68, 80
1, 104159, Note_on_c, 0, 68, 0
1, 104160, Note_on_c, 0, 61, 80
1, 104319, Note_on_c, 0, 61, 0
1, 104320, Note_on_c, 0, 65, 80
1, 104479, Note_on_c, 0, 65, 0
1, 104480, Note_on_c, 0, 68, 80
1, 104639, Note_on_c, 0, 73, 0
1, 104639, Note_on_c, 0, 68, 0
1, 104640, Note_on_c, 0, 61, 80
1, 104640, Note_on_c, 0, 73, 80
1, 104799, Note_on_c, 0, 61, 0
1, 104800, Note_on_c, 0, 66, 80
1, 104959, Note_on_c, 0, 66, 0
1, 104960, Note_on_c, 0, 69, 80
1, 105119, Note_on_c, 0, 69, 0
1, 105120, Note_on_c, 0, 61, 80
1, 105279, Note_on_c, 0, 61, 0
1, 105280, Note_on_c, 0, 66, 80
1, 105439, Note_on_c, 0, 66, 0
1, 105440, Note_on_c, 0, 69, 80
1, 105599, Note_on_c, 0, 73, 0
1, 105599, Note_on_c, 0, 69, 0
1, 105600, Note_on_c, 0, 59, 80
1, 105600, Note_on_c, 0, 71, 80
1, 105759, Note_on_c, 0, 59, 0
1, 105760, Note_on_c, 0, 66, 80
1, 105919, Note_on_c, 0, 66, 0
1, 105920, Note_on_c, 0, 69, 80
1, 106079, Note_on_c, 0, 69, 0
1, 106080, Note_on_c, 0, 59, 80
1, 106239, Note_on_c, 0, 59, 0
1, 106240, Note_on_c, 0, 66, 80
1, 106399, Note_on_c, 0, 66, 0
1, 106400, Note_on_c, 0, 69, 80
1, 106559, Note_on_c, 0, 69, 0
1, 106560, Note_on_c, 0, 59, 80
1, 106719, Note_on_c, 0, 59, 0
1, 106720, Note_on_c, 0, 66, 80
1, 106879, Note_on_c, 0, 66, 0
1, 106880, Note_on_c, 0, 69, 80
1, 107039, Note_on_c, 0, 71, 0
1, 107039, Note_on_c, 0, 69, 0
1, 107040, Note_on_c, 0, 59, 80
1, 107040, Note_on_c, 0, 71, 80
1, 107199, Note_on_c, 0, 59, 0
1, 107200, Note_on_c, 0, 64, 80
1, 107359, Note_on_c, 0, 64, 0
1, 107360, Note_on_c, 0, 68, 80
1, 107519, Note_on_c, 0, 71, 0
1, 107519, Note_on_c, 0, 68, 0
1, 107520, Note_on_c, 0, 57, 80
1, 107520, Note_on_c, 0, 69, 80
1, 107679, Note_on_c, 0, 57, 0
1, 107680, Note_on_c, 0, 64, 80
1, 107839, Note_on_c, 0, 64, 0
1, 107840, Note_on_c, 0, 68, 80
1, 107999, Note_on_c, 0, 69, 0
1, 107999, Note_on_c, 0, 68, 0
1, 108000, Note_on_c, 0, 57, 80
1, 108000, Note_on_c, 0, 69, 80
1, 108159, Note_on_c, 0, 57, 0
1, 108160, Note_on_c, 0, 63, 80
1, 108319, Note_on_c, 0, 63, 0
1, 108320, Note_on_c, 0, 66, 80
1, 108479, Note_on_c, 0, 69, 0
1, 108479, Note_on_c, 0, 66, 0
1, 108480, Note_on_c, 0, 56, 80
1, 108480, Note_on_c, 0, 68, 80
1, 108639, Note_on_c, 0, 56, 0
1, 108640, Note_on_c, 0, 63, 80
1, 108799, Note_on_c, 0, 63, 0
1, 108800, Note_on_c, 0, 66, 80
1, 108959, Note_on_c, 0, 68, 0
1, 108959, Note_on_c, 0, 66, 0
1, 108960, Note_on_c, 0, 56, 80
1, 108960, Note_on_c, 0, 68, 80
1, 109119, Note_on_c, 0, 56, 0
1, 109120, Note_on_c, 0, 61, 80
1, 109279, Note_on_c, 0, 61, 0
1, 109280, Note_on_c, 0, 64, 80
1, 109439, Note_on_c, 0, 68, 0
1, 109439, Note_on_c, 0, 64, 0
1, 109440, Note_on_c, 0, 54, 80
1, 109440, Note_on_c, 0, 66, 80
1, 109599, Note_on_c, 0, 54, 0
1, 109600, Note_on_c, 0, 61, 80
1, 109759, Note_on_c, 0, 61, 0
1, 109760, Note_on_c, 0, 63, 80
1, 109919, Note_on_c, 0, 63, 0
1, 109920, Note_on_c, 0, 54, 80
1, 110079, Note_on_c, 0, 54, 0
1, 110080, Note_on_c, 0, 61, 80
1, 110239, Note_on_c, 0, 61, 0
1, 110240, Note_on_c, 0, 63, 80
1, 110399, Note_on_c, 0, 66, 0
1, 110399, Note_on_c, 0, 63, 0
1, 110400, Note_on_c, 0, 56, 80
1, 110400, Note_on_c, 0, 68, 80
1, 110559, Note_on_c, 0, 56, 0
1, 110560, Note_on_c, 0, 61, 80
1, 110719, Note_on_c, 0, 61, 0
1, 110720, Note_on_c, 0, 63, 80
1, 110879, Note_on_c, 0, 68, 0
1, 110879, Note_on_c, 0, 63, 0
1, 110880, Note_on_c, 0, 57, 80
1, 110880, Note_on_c, 0, 69, 80
1, 111039, Note_on_c, 0, 57, 0
1, 111040, Note_on_c, 0, 61, 80
1, 111199, Note_on_c, 0, 61, 0
1, 111200, Note_on_c, 0, 63, 80
1, 111359, Note_on_c, 0, 69, 0
1, 111359, Note_on_c, 0, 63, 0
1, 111360, Note_on_c, 0, 56, 80
1, 111360, Note_on_c, 0, 68, 80
1, 111519, Note_on_c, 0, 56, 0
1, 111520, Note_on_c, 0, 61, 80
1, 111679, Note_on_c, 0, 61, 0
1, 111680, Note_on_c, 0, 64, 80
1, 111839, Note_on_c, 0, 64, 0
1, 111840, Note_on_c, 0, 56, 80
1, 111999, Note_on_c, 0, 56, 0
1, 112000, Note_on_c, 0, 61, 80
1, 112159, Note_on_c, 0, 61, 0
1, 112160, Note_on_c, 0, 64, 80
1, 112319, Note_on_c, 0, 68, 0
1, 112319, Note_on_c, 0, 64, 0
1, 112320, Note_on_c, 0, 54, 80
1, 112320, Note_on_c, 0, 68, 80
1, 112479, Note_on_c, 0, 54, 0
1, 112480, Note_on_c, 0, 60, 80
1, 112639, Note_on_c, 0, 60, 0
1, 112640, Note_on_c, 0, 63, 80
1, 112799, Note_on_c, 0, 63, 0
1, 112800, Note_on_c, 0, 54, 80
1, 112959, Note_on_c, 0, 54, 0
1, 112960, Note_on_c, 0, 60, 80
1, 113119, Note_on_c, 0, 60, 0
1, 113120, Note_on_c, 0, 63, 80
1, 113279, Note_on_c, 0, 68, 0
1, 113279, Note_on_c, 0, 63, 0
1, 113280, Note_on_c, 0, 52, 80
1, 113280, Note_on_c, 0, 61, 80
1, 113439, Note_on_c, 0, 52, 0
1, 113440, Note_on_c, 0, 56, 80
1, 113599, Note_on_c, 0, 56, 0
1, 113600, Note_on_c, 0, 61, 80
1, 113759, Note_on_c, 0, 61, 0
1, 113759, Note_on_c, 0, 61, 0
1, 113760, Note_on_c, 0, 56, 80
1, 113919, Note_on_c, 0, 56, 0
1, 113920, Note_on_c, 0, 61, 80
1, 114079, Note_on_c, 0, 61, 0
1, 114080, Note_on_c, 0, 64, 80
1, 114239, Note_on_c, 0, 64, 0
1, 114240, Note_on_c, 0, 56, 80
1, 114399, Note_on_c, 0, 56, 0
1, 114400, Note_on_c, 0, 61, 80
1, 114559, Note_on_c, 0, 61, 0
1, 114560, Note_on_c, 0, 64, 80
1, 114719, Note_on_c, 0, 64, 0
1, 114720, Note_on_c, 0, 56, 80
1, 114879, Note_on_c, 0, 56, 0
1, 114880, Note_on_c, 0, 61, 80
1, 115039, Note_on_c, 0, 61, 0
1, 115040, Note_on_c, 0, 64, 80
1, 115199, Note_on_c, 0, 64, 0
1, 115200, Note_on_c, 0, 56, 80
1, 115359, Note_on_c, 0, 56, 0
1, 115360, Note_on_c, 0, 63, 80
1, 115519, Note_on_c, 0, 63, 0
1, 115520, Note_on_c, 0, 66, 80
1, 115679, Note_on_c, 0, 66, 0
1, 115680, Note_on_c, 0, 56, 80
1, 115839, Note_on_c, 0, 56, 0
1, 115840, Note_on_c, 0, 63, 80
1, 115999, Note_on_c, 0, 63, 0
1, 116000, Note_on_c, 0, 66, 80
1, 116159, Note_on_c, 0, 66, 0
1, 116160, Note_on_c, 0, 56, 80
1, 116319, Note_on_c, 0, 56, 0
1, 116320, Note_on_c, 0, 63, 80
1, 116479, Note_on_c, 0, 63, 0
1, 116480, Note_on_c, 0, 66, 80
1, 116639, Note_on_c, 0, 66, 0
1, 116640, Note_on_c, 0, 56, 80
1, 116799, Note_on_c, 0, 56, 0
1, 116800, Note_on_c, 0, 63, 80
1, 116959, Note_on_c, 0, 63, 0
1, 116960, Note_on_c, 0, 66, 80
1, 117119, Note_on_c, 0, 66, 0
1, 117120, Note_on_c, 0, 56, 80
1, 117279, Note_on_c, 0, 56, 0
1, 117280, Note_on_c, 0, 64, 80
1, 117439, Note_on_c, 0, 64, 0
1, 117440, Note_on_c, 0, 61, 80
1, 117599, Note_on_c, 0, 61, 0
1, 117600, Note_on_c, 0, 68, 80
1, 117759, Note_on_c, 0, 68, 0
1, 117760, Note_on_c, 0, 64, 80
1, 117919, Note_on_c, 0, 64, 0
1, 117920, Note_on_c, 0, 73, 80
1, 118079, Note_on_c, 0, 73, 0
1, 118080, Note_on_c, 0, 68, 80
1, 118239, Note_on_c, 0, 68, 0
1, 118240, Note_on_c, 0, 76, 80
1, 118399, Note_on_c, 0, 76, 0
1, 118400, Note_on_c, 0, 73, 80
1, 118559, Note_on_c, 0, 73, 0
1, 118560, Note_on_c, 0, 80, 80
1, 118719, Note_on_c, 0, 80, 0
1, 118720, Note_on_c, 0, 76, 80
1, 118879, Note_on_c, 0, 76, 0
1, 118880, Note_on_c, 0, 73, 80
1, 119039, Note_on_c, 0, 73, 0
1, 119040, Note_on_c, 0, 72, 80
1, 119199, Note_on_c, 0, 72, 0
1, 119200, Note_on_c, 0, 75, 80
1, 119359, Note_on_c, 0, 75, 0
1, 119360, Note_on_c, 0, 69, 80
1, 119519, Note_on_c, 0, 69, 0
1, 119520, Note_on_c, 0, 72, 80
1, 119679, Note_on_c, 0, 72, 0
1, 119680, Note_on_c, 0, 66, 80
1, 119839, Note_on_c, 0, 66, 0
1, 119840, Note_on_c, 0, 69, 80
1, 119999, Note_on_c, 0, 69, 0
1, 120000, Note_on_c, 0, 63, 80
1, 120159, Note_on_c, 0, 63, 0
1, 120160, Note_on_c, 0, 66, 80
1, 120319, Note_on_c, 0, 66, 0
1, 120320, Note_on_c, 0, 57, 80
1, 120480, Note_on_c, 0, 60, 80
1, 120639, Note_on_c, 0, 57, 0
1, 120640, Note_on_c, 0, 56, 80
1, 120799, Note_on_c, 0, 56, 0
1, 120800, Note_on_c, 0, 54, 80
1, 120959, Note_on_c, 0, 60, 0
1, 120959, Note_on_c, 0, 54, 0
1, 120960, Note_on_c, 0, 52, 80
1, 120960, Note_on_c, 0, 61, 80
1, 121119, Note_on_c, 0, 52, 0
1, 121119, Note_on_c, 0, 61, 0
1, 121120, Note_on_c, 0, 64, 80
1, 121279, Note_on_c, 0, 64, 0
1, 121280, Note_on_c, 0, 61, 80
1, 121439, Note_on_c, 0, 61, 0
1, 121440, Note_on_c, 0, 68, 80
1, 121599, Note_on_c, 0, 68, 0
1, 121600, Note_on_c, 0, 64, 80
1, 121759, Note_on_c, 0, 64, 0
1, 121760, Note_on_c, 0, 73, 80
1, 121919, Note_on_c, 0, 73, 0
1, 121920, Note_on_c, 0, 68, 80
1, 122079, Note_on_c, 0, 68, 0
1, 122080, Note_on_c, 0, 76, 80
1, 122239, Note_on_c, 0, 76, 0
1, 122240, Note_on_c, 0, 73, 80
1, 122399, Note_on_c, 0, 73, 0
1, 122400, Note_on_c, 0, 80, 80
1, 122559, Note_on_c, 0, 80, 0
1, 122560, Note_on_c, 0, 76, 80
1, 122719, Note_on_c, 0, 76, 0
1, 122720, Note_on_c, 0, 73, 80
1, 122879, Note_on_c, 0, 73, 0
1, 122880, Note_on_c, 0, 72, 80
1, 123039, Note_on_c, 0, 72, 0
1, 123040, Note_on_c, 0, 75, 80
1, 123199, Note_on_c, 0, 75, 0
1, 123200, Note_on_c, 0, 69, 80
1, 123359, Note_on_c, 0, 69, 0
1, 123360, Note_on_c, 0, 72, 80
1, 123519, Note_on_c, 0, 72, 0
1, 123520, Note_on_c, 0, 66, 80
1, 123679, Note_on_c, 0, 66, 0
1, 123680, Note_on_c, 0, 69, 80
1, 123839, Note_on_c, 0, 69, 0
1, 123840, Note_on_c, 0, 63, 80
1, 123999, Note_on_c, 0, 63, 0
1, 124000, Note_on_c, 0, 66, 80
1, 124159, Note_on_c, 0, 66, 0
1, 124160, Note_on_c, 0, 57, 80
1, 124320, Note_on_c, 0, 60, 80
1, 124479, Note_on_c, 0, 57, 0
1, 124480, Note_on_c, 0, 56, 80
1, 124639, Note_on_c, 0, 56, 0
1, 124640, Note_on_c, 0, 54, 80
1, 124799, Note_on_c, 0, 60, 0
1, 124799, Note_on_c, 0, 54, 0
1, 124800, Note_on_c, 0, 52, 80
1, 124800, Note_on_c, 0, 61, 80
1, 124959, Note_on_c, 0, 52, 0
1, 124959, Note_on_c, 0, 61, 0
1, 124960, Note_on_c, 0, 56, 80
1, 125119, Note_on_c, 0, 56, 0
1, 125120, Note_on_c, 0, 61, 80
1, 125279, Note_on_c, 0, 61, 0
1, 125280, Note_on_c, 0, 64, 80
1, 125439, Note_on_c, 0, 64, 0
1, 125440, Note_on_c, 0, 61, 80
1, 125599, Note_on_c, 0, 61, 0
1, 125600, Note_on_c, 0, 56, 80
1, 125759, Note_on_c, 0, 56, 0
1, 125920, Note_on_c, 0, 52, 80
1, 126079, Note_on_c, 0, 52, 0
1, 126080, Note_on_c, 0, 56, 80
1, 126239, Note_on_c, 0, 56, 0
1, 126240, Note_on_c, 0, 61, 80
1, 126399, Note_on_c, 0, 61, 0
1, 126400, Note_on_c, 0, 56, 80
1, 126559, Note_on_c, 0, 56, 0
1, 126560, Note_on_c, 0, 52, 80
1, 126719, Note_on_c, 0, 52, 0
1, 126880, Note_on_c, 0, 49, 80
1, 127039, Note_on_c, 0, 49, 0
1, 127040, Note_on_c, 0, 52, 80
1, 127199, Note_on_c, 0, 52, 0
1, 127200, Note_on_c, 0, 56, 80
1, 127359, Note_on_c, 0, 56, 0
1, 127360, Note_on_c, 0, 52, 80
1, 127519, Note_on_c, 0, 52, 0
1, 127520, Note_on_c, 0, 49, 80
1, 127679, Note_on_c, 0, 49, 0
1, 129600, Note_on_c, 0, 52, 80
1, 129600, Note_on_c, 0, 56, 80
1, 129600, Note_on_c, 0, 61, 80
1, 130559, Note_on_c, 0, 52, 0
1, 130559, Note_on_c, 0, 56, 0
1, 130559, Note_on_c, 0, 61, 0
1, 130560, Note_on_c, 0, 52, 80
1, 130560, Note_on_c, 0, 56, 80
1, 130560, Note_on_c, 0, 61, 80
1, 132479, Note_on_c, 0, 52, 0
1, 132479, Note_on_c, 0, 56, 0
1, 132479, Note_on_c, 0, 61, 0
1, 132480, End_track
2, 0, Start_track
2, 0, Key_signature, 4, "major"
2, 0, MIDI_port, 0
2, 0, Note_on_c, 0, 37, 80
2, 0, Note_on_c, 0, 49, 80
2, 1919, Note_on_c, 0, 37, 0
2, 1919, Note_on_c, 0, 49, 0
2, 1920, Note_on_c, 0, 35, 80
2, 1920, Note_on_c, 0, 47, 80
2, 3839, Note_on_c, 0, 35, 0
2, 3839, Note_on_c, 0, 47, 0
2, 3840, Note_on_c, 0, 33, 80
2, 3840, Note_on_c, 0, 45, 80
2, 4799, Note_on_c, 0, 33, 0
2, 4799, Note_on_c, 0, 45, 0
2, 4800, Note_on_c, 0, 30, 80
2, 4800, Note_on_c, 0, 42, 80
2, 5759, Note_on_c, 0, 30, 0
2, 5759, Note_on_c, 0, 42, 0
2, 5760, Note_on_c, 0, 32, 80
2, 5760, Note_on_c, 0, 44, 80
2, 6719, Note_on_c, 0, 32, 0
2, 6719, Note_on_c, 0, 44, 0
2, 6720, Note_on_c, 0, 32, 80
2, 6720, Note_on_c, 0, 44, 80
2, 7679, Note_on_c, 0, 32, 0
2, 7679, Note_on_c, 0, 44, 0
2, 7680, Note_on_c, 0, 37, 80
2, 7680, Note_on_c, 0, 49, 80
2, 7680, Note_on_c, 0, 52, 80
2, 7839, Note_on_c, 0, 52, 0
2, 7840, Note_on_c, 0, 56, 80
2, 7999, Note_on_c, 0, 56, 0
2, 8000, Note_on_c, 0, 61, 80
2, 8159, Note_on_c, 0, 61, 0
2, 9599, Note_on_c, 0, 37, 0
2, 9599, Note_on_c, 0, 49, 0
2, 9600, Note_on_c, 0, 36, 80
2, 9600, Note_on_c, 0, 44, 80
2, 9600, Note_on_c, 0, 48, 80
2, 11519, Note_on_c, 0, 36, 0
2, 11519, Note_on_c, 0, 44, 0
2, 11519, Note_on_c, 0, 48, 0
2, 11520, Note_on_c, 0, 37, 80
2, 11520, Note_on_c, 0, 49, 80
2, 12479, Note_on_c, 0, 37, 0
2, 12479, Note_on_c, 0, 49, 0
2, 12480, Note_on_c, 0, 30, 80
2, 12480, Note_on_c, 0, 42, 80
2, 13439, Note_on_c, 0, 30, 0
2, 13439, Note_on_c, 0, 42, 0
2, 13440, Note_on_c, 0, 35, 80
2, 13440, Note_on_c, 0, 47, 80
2, 14399, Note_on_c, 0, 35, 0
2, 14399, Note_on_c, 0, 47, 0
2, 14400, Note_on_c, 0, 35, 80
2, 14400, Note_on_c, 0, 47, 80
2, 15359, Note_on_c, 0, 35, 0
2, 15359, Note_on_c, 0, 47, 0
2, 15360, Note_on_c, 0, 40, 80
2, 15360, Note_on_c, 0, 52, 80
2, 17279, Note_on_c, 0, 40, 0
2, 17279, Note_on_c, 0, 52, 0
2, 17280, Note_on_c, 0, 40, 80
2, 17280, Note_on_c, 0, 52, 80
2, 19199, Note_on_c, 0, 40, 0
2, 19199, Note_on_c, 0, 52, 0
2, 19200, Note_on_c, 0, 38, 80
2, 19200, Note_on_c, 0, 50, 80
2, 21119, Note_on_c, 0, 38, 0
2, 21119, Note_on_c, 0, 50, 0
2, 21120, Note_on_c, 0, 36, 80
2, 21120, Note_on_c, 0, 48, 80
2, 21599, Note_on_c, 0, 36, 0
2, 21599, Note_on_c, 0, 48, 0
2, 21600, Note_on_c, 0, 35, 80
2, 21600, Note_on_c, 0, 47, 80
2, 22079, Note_on_c, 0, 35, 0
2, 22079, Note_on_c, 0, 47, 0
2, 22080, Note_on_c, 0, 34, 80
2, 22080, Note_on_c, 0, 46, 80
2, 23039, Note_on_c, 0, 34, 0
2, 23039, Note_on_c, 0, 46, 0
2, 23040, Note_on_c, 0, 35, 80
2, 23040, Note_on_c, 0, 47, 80
2, 23999, Note_on_c, 0, 35, 0
2, 23999, Note_on_c, 0, 47, 0
2, 24000, Note_on_c, 0, 40, 80
2, 24479, Note_on_c, 0, 40, 0
2, 24480, Note_on_c, 0, 43, 80
2, 24959, Note_on_c, 0, 43, 0
2, 24960, Note_on_c, 0, 42, 80
2, 25919, Note_on_c, 0, 42, 0
2, 25920, Note_on_c, 0, 30, 80
2, 25920, Note_on_c, 0, 42, 80
2, 26879, Note_on_c, 0, 30, 0
2, 26879, Note_on_c, 0, 42, 0
2, 26880, Note_on_c, 0, 35, 80
2, 26880, Note_on_c, 0, 47, 80
2, 29279, Note_on_c, 0, 35, 0
2, 29279, Note_on_c, 0, 47, 0
2, 29280, Note_on_c, 0, 40, 80
2, 29280, Note_on_c, 0, 52, 80
2, 29759, Note_on_c, 0, 40, 0
2, 29759, Note_on_c, 0, 52, 0
2, 29760, Note_on_c, 0, 43, 80
2, 29760, Note_on_c, 0, 55, 80
2, 30239, Note_on_c, 0, 43, 0
2, 30239, Note_on_c, 0, 55, 0
2, 30240, Note_on_c, 0, 40, 80
2, 30240, Note_on_c, 0, 52, 80
2, 30719, Note_on_c, 0, 40, 0
2, 30719, Note_on_c, 0, 52, 0
2, 30720, Note_on_c, 0, 35, 80
2, 30720, Note_on_c, 0, 47, 80
2, 33119, Note_on_c, 0, 35, 0
2, 33119, Note_on_c, 0, 47, 0
2, 33120, Note_on_c, 0, 40, 80
2, 33120, Note_on_c, 0, 52, 80
2, 33599, Note_on_c, 0, 40, 0
2, 33599, Note_on_c, 0, 52, 0
2, 33600, Note_on_c, 0, 43, 80
2, 33600, Note_on_c, 0, 55, 80
2, 34079, Note_on_c, 0, 43, 0
2, 34079, Note_on_c, 0, 55, 0
2, 34080, Note_on_c, 0, 40, 80
2, 34080, Note_on_c, 0, 52, 80
2, 34559, Note_on_c, 0, 40, 0
2, 34559, Note_on_c, 0, 52, 0
2, 34560, Note_on_c, 0, 35, 80
2, 34560, Note_on_c, 0, 47, 80
2, 35519, Note_on_c, 0, 35, 0
2, 35519, Note_on_c, 0, 47, 0
2, 35520, Note_on_c, 0, 32, 80
2, 35520, Note_on_c, 0, 44, 80
2, 36479, Note_on_c, 0, 32, 0
2, 36479, Note_on_c, 0, 44, 0
2, 36480, Note_on_c, 0, 29, 80
2, 36480, Note_on_c, 0, 41, 80
2, 37439, Note_on_c, 0, 29, 0
2, 37439, Note_on_c, 0, 41, 0
2, 37440, Note_on_c, 0, 30, 80
2, 37440, Note_on_c, 0, 42, 80
2, 38399, Note_on_c, 0, 30, 0
2, 38399, Note_on_c, 0, 42, 0
2, 38400, Note_on_c, 0, 35, 80
2, 38400, Note_on_c, 0, 47, 80
2, 39359, Note_on_c, 0, 35, 0
2, 39359, Note_on_c, 0, 47, 0
2, 39360, Note_on_c, 0, 36, 80
2, 39360, Note_on_c, 0, 48, 80
2, 40319, Note_on_c, 0, 36, 0
2, 40319, Note_on_c, 0, 48, 0
2, 40320, Note_on_c, 0, 37, 80
2, 41279, Note_on_c, 0, 37, 0
2, 41280, Note_on_c, 0, 37, 80
2, 42239, Note_on_c, 0, 37, 0
2, 42240, Note_on_c, 0, 30, 80
2, 42240, Note_on_c, 0, 42, 80
2, 44159, Note_on_c, 0, 30, 0
2, 44159, Note_on_c, 0, 42, 0
2, 44160, Note_on_c, 0, 41, 80
2, 44160, Note_on_c, 0, 53, 80
2, 46079, Note_on_c, 0, 41, 0
2, 46079, Note_on_c, 0, 53, 0
2, 46080, Note_on_c, 0, 42, 80
2, 46080, Note_on_c, 0, 54, 80
2, 47039, Note_on_c, 0, 42, 0
2, 47039, Note_on_c, 0, 54, 0
2, 47040, Note_on_c, 0, 39, 80
2, 47040, Note_on_c, 0, 51, 80
2, 47519, Note_on_c, 0, 39, 0
2, 47519, Note_on_c, 0, 51, 0
2, 47520, Note_on_c, 0, 37, 80
2, 47520, Note_on_c, 0, 49, 80
2, 47999, Note_on_c, 0, 37, 0
2, 47999, Note_on_c, 0, 49, 0
2, 48000, Note_on_c, 0, 36, 80
2, 48000, Note_on_c, 0, 44, 80
2, 48000, Note_on_c, 0, 48, 80
2, 49439, Note_on_c, 0, 36, 0
2, 49439, Note_on_c, 0, 44, 0
2, 49439, Note_on_c, 0, 48, 0
2, 49440, Note_on_c, 0, 36, 80
2, 49440, Note_on_c, 0, 44, 80
2, 49440, Note_on_c, 0, 48, 80
2, 49919, Note_on_c, 0, 36, 0
2, 49919, Note_on_c, 0, 44, 0
2, 49919, Note_on_c, 0, 48, 0
2, 49920, Note_on_c, 0, 37, 80
2, 49920, Note_on_c, 0, 44, 80
2, 49920, Note_on_c, 0, 49, 80
2, 50879, Note_on_c, 0, 37, 0
2, 50879, Note_on_c, 0, 44, 0
2, 50879, Note_on_c, 0, 49, 0
2, 50880, Note_on_c, 0, 30, 80
2, 50880, Note_on_c, 0, 42, 80
2, 51359, Note_on_c, 0, 30, 0
2, 51359, Note_on_c, 0, 42, 0
2, 51360, Note_on_c, 0, 31, 80
2, 51360, Note_on_c, 0, 43, 80
2, 51839, Note_on_c, 0, 31, 0
2, 51839, Note_on_c, 0, 43, 0
2, 51840, Note_on_c, 0, 32, 80
2, 51840, Note_on_c, 0, 44, 80
2, 53759, Note_on_c, 0, 32, 0
2, 53759, Note_on_c, 0, 44, 0
2, 53760, Note_on_c, 0, 32, 80
2, 53760, Note_on_c, 0, 44, 80
2, 55679, Note_on_c, 0, 32, 0
2, 55679, Note_on_c, 0, 44, 0
2, 55680, Note_on_c, 0, 32, 80
2, 55680, Note_on_c, 0, 44, 80
2, 57599, Note_on_c, 0, 32, 0
2, 57599, Note_on_c, 0, 44, 0
2, 57600, Note_on_c, 0, 32, 80
2, 57600, Note_on_c, 0, 44, 80
2, 59519, Note_on_c, 0, 32, 0
2, 59519, Note_on_c, 0, 44, 0
2, 59520, Note_on_c, 0, 32, 80
2, 59520, Note_on_c, 0, 44, 80
2, 61439, Note_on_c, 0, 32, 0
2, 61439, Note_on_c, 0, 44, 0
2, 61440, Note_on_c, 0, 32, 80
2, 61440, Note_on_c, 0, 44, 80
2, 63359, Note_on_c, 0, 32, 0
2, 63359, Note_on_c, 0, 44, 0
2, 63360, Note_on_c, 0, 32, 80
2, 63360, Note_on_c, 0, 44, 80
2, 65279, Note_on_c, 0, 32, 0
2, 65279, Note_on_c, 0, 44, 0
2, 65280, Note_on_c, 0, 32, 80
2, 65280, Note_on_c, 0, 44, 80
2, 71039, Note_on_c, 0, 32, 0
2, 71039, Note_on_c, 0, 44, 0
2, 71040, Note_on_c, 0, 32, 80
2, 71040, Note_on_c, 0, 44, 80
2, 72959, Note_on_c, 0, 32, 0
2, 72959, Note_on_c, 0, 44, 0
2, 72960, Note_on_c, 0, 32, 80
2, 72960, Note_on_c, 0, 44, 80
2, 74879, Note_on_c, 0, 32, 0
2, 74879, Note_on_c, 0, 44, 0
2, 74880, Note_on_c, 0, 32, 80
2, 74880, Note_on_c, 0, 44, 80
2, 75839, Note_on_c, 0, 32, 0
2, 75839, Note_on_c, 0, 44, 0
2, 75840, Note_on_c, 0, 33, 80
2, 75840, Note_on_c, 0, 45, 80
2, 76799, Note_on_c, 0, 33, 0
2, 76799, Note_on_c, 0, 45, 0
2, 76800, Note_on_c, 0, 30, 80
2, 76800, Note_on_c, 0, 42, 80
2, 77759, Note_on_c, 0, 30, 0
2, 77759, Note_on_c, 0, 42, 0
2, 77760, Note_on_c, 0, 32, 80
2, 77760, Note_on_c, 0, 44, 80
2, 78719, Note_on_c, 0, 32, 0
2, 78719, Note_on_c, 0, 44, 0
2, 78720, Note_on_c, 0, 37, 80
2, 78720, Note_on_c, 0, 49, 80
2, 80639, Note_on_c, 0, 37, 0
2, 80639, Note_on_c, 0, 49, 0
2, 80640, Note_on_c, 0, 36, 80
2, 80640, Note_on_c, 0, 48, 80
2, 82559, Note_on_c, 0, 36, 0
2, 82559, Note_on_c, 0, 48, 0
2, 82560, Note_on_c, 0, 37, 80
2, 82560, Note_on_c, 0, 49, 80
2, 83519, Note_on_c, 0, 37, 0
2, 83519, Note_on_c, 0, 49, 0
2, 83520, Note_on_c, 0, 30, 80
2, 83520, Note_on_c, 0, 42, 80
2, 84479, Note_on_c, 0, 30, 0
2, 84479, Note_on_c, 0, 42, 0
2, 84480, Note_on_c, 0, 35, 80
2, 84480, Note_on_c, 0, 47, 80
2, 85439, Note_on_c, 0, 35, 0
2, 85439, Note_on_c, 0, 47, 0
2, 85440, Note_on_c, 0, 35, 80
2, 85440, Note_on_c, 0, 47, 80
2, 86399, Note_on_c, 0, 35, 0
2, 86399, Note_on_c, 0, 47, 0
2, 86400, Note_on_c, 0, 40, 80
2, 86400, Note_on_c, 0, 52, 80
2, 88319, Note_on_c, 0, 40, 0
2, 88319, Note_on_c, 0, 52, 0
2, 88320, Note_on_c, 0, 39, 80
2, 88320, Note_on_c, 0, 51, 80
2, 90239, Note_on_c, 0, 39, 0
2, 90239, Note_on_c, 0, 51, 0
2, 90240, Note_on_c, 0, 40, 80
2, 90240, Note_on_c, 0, 52, 80
2, 91199, Note_on_c, 0, 40, 0
2, 91199, Note_on_c, 0, 52, 0
2, 91200, Note_on_c, 0, 39, 80
2, 91200, Note_on_c, 0, 51, 80
2, 91679, Note_on_c, 0, 39, 0
2, 91679, Note_on_c, 0, 51, 0
2, 91680, Note_on_c, 0, 37, 80
2, 91680, Note_on_c, 0, 49, 80
2, 92159, Note_on_c, 0, 37, 0
2, 92159, Note_on_c, 0, 49, 0
2, 92160, Note_on_c, 0, 36, 80
2, 92160, Note_on_c, 0, 48, 80
2, 93119, Note_on_c, 0, 36, 0
2, 93119, Note_on_c, 0, 48, 0
2, 93120, Note_on_c, 0, 37, 80
2, 93120, Note_on_c, 0, 49, 80
2, 94079, Note_on_c, 0, 37, 0
2, 94079, Note_on_c, 0, 49, 0
2, 94080, Note_on_c, 0, 30, 80
2, 94080, Note_on_c, 0, 42, 80
2, 95039, Note_on_c, 0, 30, 0
2, 95039, Note_on_c, 0, 42, 0
2, 95040, Note_on_c, 0, 32, 80
2, 95040, Note_on_c, 0, 44, 80
2, 95999, Note_on_c, 0, 32, 0
2, 95999, Note_on_c, 0, 44, 0
2, 96000, Note_on_c, 0, 37, 80
2, 96000, Note_on_c, 0, 49, 80
2, 98399, Note_on_c, 0, 37, 0
2, 98399, Note_on_c, 0, 49, 0
2, 98400, Note_on_c, 0, 42, 80
2, 98400, Note_on_c, 0, 54, 80
2, 98879, Note_on_c, 0, 42, 0
2, 98879, Note_on_c, 0, 54, 0
2, 98880, Note_on_c, 0, 45, 80
2, 98880, Note_on_c, 0, 57, 80
2, 99359, Note_on_c, 0, 45, 0
2, 99359, Note_on_c, 0, 57, 0
2, 99360, Note_on_c, 0, 42, 80
2, 99360, Note_on_c, 0, 54, 80
2, 99839, Note_on_c, 0, 42, 0
2, 99839, Note_on_c, 0, 54, 0
2, 99840, Note_on_c, 0, 37, 80
2, 99840, Note_on_c, 0, 49, 80
2, 102239, Note_on_c, 0, 37, 0
2, 102239, Note_on_c, 0, 49, 0
2, 102240, Note_on_c, 0, 42, 80
2, 102240, Note_on_c, 0, 54, 80
2, 102719, Note_on_c, 0, 42, 0
2, 102719, Note_on_c, 0, 54, 0
2, 102720, Note_on_c, 0, 45, 80
2, 102720, Note_on_c, 0, 57, 80
2, 103199, Note_on_c, 0, 45, 0
2, 103199, Note_on_c, 0, 57, 0
2, 103200, Note_on_c, 0, 42, 80
2, 103200, Note_on_c, 0, 54, 80
2, 103679, Note_on_c, 0, 42, 0
2, 103679, Note_on_c, 0, 54, 0
2, 103680, Note_on_c, 0, 37, 80
2, 103680, Note_on_c, 0, 49, 80
2, 104639, Note_on_c, 0, 37, 0
2, 104639, Note_on_c, 0, 49, 0
2, 104640, Note_on_c, 0, 30, 80
2, 104640, Note_on_c, 0, 42, 80
2, 105599, Note_on_c, 0, 30, 0
2, 105599, Note_on_c, 0, 42, 0
2, 105600, Note_on_c, 0, 39, 80
2, 105600, Note_on_c, 0, 51, 80
2, 107039, Note_on_c, 0, 39, 0
2, 107039, Note_on_c, 0, 51, 0
2, 107040, Note_on_c, 0, 40, 80
2, 107040, Note_on_c, 0, 52, 80
2, 107519, Note_on_c, 0, 40, 0
2, 107519, Note_on_c, 0, 52, 0
2, 107520, Note_on_c, 0, 37, 80
2, 107520, Note_on_c, 0, 49, 80
2, 107999, Note_on_c, 0, 37, 0
2, 107999, Note_on_c, 0, 49, 0
2, 108000, Note_on_c, 0, 39, 80
2, 108000, Note_on_c, 0, 51, 80
2, 108479, Note_on_c, 0, 39, 0
2, 108479, Note_on_c, 0, 51, 0
2, 108480, Note_on_c, 0, 36, 80
2, 108480, Note_on_c, 0, 48, 80
2, 108959, Note_on_c, 0, 36, 0
2, 108959, Note_on_c, 0, 48, 0
2, 108960, Note_on_c, 0, 37, 80
2, 108960, Note_on_c, 0, 49, 80
2, 109439, Note_on_c, 0, 37, 0
2, 109439, Note_on_c, 0, 49, 0
2, 109440, Note_on_c, 0, 33, 80
2, 109440, Note_on_c, 0, 45, 80
2, 110399, Note_on_c, 0, 33, 0
2, 110399, Note_on_c, 0, 45, 0
2, 110400, Note_on_c, 0, 32, 80
2, 110400, Note_on_c, 0, 44, 80
2, 110879, Note_on_c, 0, 32, 0
2, 110879, Note_on_c, 0, 44, 0
2, 110880, Note_on_c, 0, 30, 80
2, 110880, Note_on_c, 0, 42, 80
2, 111359, Note_on_c, 0, 30, 0
2, 111359, Note_on_c, 0, 42, 0
2, 111360, Note_on_c, 0, 32, 80
2, 111360, Note_on_c, 0, 44, 80
2, 112319, Note_on_c, 0, 32, 0
2, 112319, Note_on_c, 0, 44, 0
2, 112320, Note_on_c, 0, 32, 80
2, 112320, Note_on_c, 0, 44, 80
2, 113279, Note_on_c, 0, 32, 0
2, 113279, Note_on_c, 0, 44, 0
2, 113280, Note_on_c, 0, 37, 80
2, 113280, Note_on_c, 0, 44, 80
2, 114719, Note_on_c, 0, 44, 0
2, 114720, Note_on_c, 0, 44, 80
2, 115079, Note_on_c, 0, 44, 0
2, 115080, Note_on_c, 0, 44, 80
2, 115199, Note_on_c, 0, 37, 0
2, 115199, Note_on_c, 0, 44, 0
2, 115200, Note_on_c, 0, 36, 80
2, 115200, Note_on_c, 0, 44, 80
2, 116639, Note_on_c, 0, 44, 0
2, 116640, Note_on_c, 0, 44, 80
2, 116999, Note_on_c, 0, 44, 0
2, 117000, Note_on_c, 0, 44, 80
2, 117119, Note_on_c, 0, 36, 0
2, 117119, Note_on_c, 0, 44, 0
2, 117120, Note_on_c, 0, 37, 80
2, 117120, Note_on_c, 0, 44, 80
2, 118559, Note_on_c, 0, 44, 0
2, 118560, Note_on_c, 0, 44, 80
2, 118919, Note_on_c, 0, 44, 0
2, 118920, Note_on_c, 0, 44, 80
2, 119039, Note_on_c, 0, 37, 0
2, 119039, Note_on_c, 0, 44, 0
2, 119040, Note_on_c, 0, 32, 80
2, 119040, Note_on_c, 0, 44, 80
2, 120479, Note_on_c, 0, 44, 0
2, 120480, Note_on_c, 0, 44, 80
2, 120839, Note_on_c, 0, 44, 0
2, 120840, Note_on_c, 0, 44, 80
2, 120959, Note_on_c, 0, 32, 0
2, 120959, Note_on_c, 0, 44, 0
2, 120960, Note_on_c, 0, 37, 80
2, 120960, Note_on_c, 0, 44, 80
2, 122399, Note_on_c, 0, 44, 0
2, 122400, Note_on_c, 0, 44, 80
2, 122759, Note_on_c, 0, 44, 0
2, 122760, Note_on_c, 0, 44, 80
2, 122879, Note_on_c, 0, 37, 0
2, 122879, Note_on_c, 0, 44, 0
2, 122880, Note_on_c, 0, 32, 80
2, 122880, Note_on_c, 0, 44, 80
2, 124319, Note_on_c, 0, 44, 0
2, 124320, Note_on_c, 0, 44, 80
2, 124679, Note_on_c, 0, 44, 0
2, 124680, Note_on_c, 0, 44, 80
2, 124799, Note_on_c, 0, 32, 0
2, 124799, Note_on_c, 0, 44, 0
2, 124800, Note_on_c, 0, 37, 80
2, 124800, Note_on_c, 0, 44, 80
2, 125759, Note_on_c, 0, 44, 0
2, 125760, Note_on_c, 0, 49, 80
2, 126719, Note_on_c, 0, 49, 0
2, 126720, Note_on_c, 0, 44, 80
2, 127679, Note_on_c, 0, 44, 0
2, 127680, Note_on_c, 0, 44, 80
2, 127839, Note_on_c, 0, 44, 0
2, 127840, Note_on_c, 0, 49, 80
2, 127999, Note_on_c, 0, 49, 0
2, 128000, Note_on_c, 0, 44, 80
2, 128159, Note_on_c, 0, 44, 0
2, 128160, Note_on_c, 0, 40, 80
2, 128319, Note_on_c, 0, 40, 0
2, 128320, Note_on_c, 0, 44, 80
2, 128479, Note_on_c, 0, 44, 0
2, 128480, Note_on_c, 0, 40, 80
2, 128639, Note_on_c, 0, 37, 0
2, 128639, Note_on_c, 0, 40, 0
2, 128640, Note_on_c, 0, 37, 80
2, 129599, Note_on_c, 0, 37, 0
2, 129600, Note_on_c, 0, 37, 80
2, 129600, Note_on_c, 0, 44, 80
2, 129600, Note_on_c, 0, 49, 80
2, 130559, Note_on_c, 0, 37, 0
2, 130559, Note_on_c, 0, 44, 0
2, 130559, Note_on_c, 0, 49, 0
2, 130560, Note_on_c, 0, 37, 80
2, 130560, Note_on_c, 0, 44, 80
2, 130560, Note_on_c, 0, 49, 80
2, 132479, Note_on_c, 0, 37, 0
2, 132479, Note_on_c, 0, 44, 0
2, 132479, Note_on_c, 0, 49, 0
2, 132480, End_track
0, 0, End_of_file
