0, 0, Header, 1, 2, 480
1, 0, Start_track
1, 0, Time_signature, 1, 2, 24, 8
1, 0, Key_signature, -5, "major"
1, 0, Key_signature, 0, "major"
1, 0, Key_signature, 0, "major"
1, 0, Key_signature, 0, "major"
1, 0, Tempo, 272727
1, 0, Control_c, 0, 121, 0
1, 0, Program_c, 0, 0
1, 0, Control_c, 0, 7, 100
1, 0, Control_c, 0, 10, 64
1, 0, Control_c, 0, 91, 0
1, 0, Control_c, 0, 93, 0
1, 0, MIDI_port, 0
1, 0, Note_on_c, 0, 68, 126
1, 0, Note_on_c, 0, 73, 126
1, 455, Note_on_c, 0, 68, 0
1, 455, Note_on_c, 0, 73, 0
1, 480, Time_signature, 3, 2, 24, 8
1, 480, Note_on_c, 0, 68, 126
1, 480, Note_on_c, 0, 72, 126
1, 1391, Note_on_c, 0, 68, 0
1, 1391, Note_on_c, 0, 72, 0
1, 1440, Note_on_c, 0, 67, 126
1, 1440, Note_on_c, 0, 70, 126
1, 1895, Note_on_c, 0, 67, 0
1, 1895, Note_on_c, 0, 70, 0
1, 1920, Note_on_c, 0, 68, 126
1, 1920, Note_on_c, 0, 75, 126
1, 2159, Note_on_c, 0, 68, 0
1, 2159, Note_on_c, 0, 75, 0
1, 2880, Note_on_c, 0, 65, 126
1, 2880, Note_on_c, 0, 73, 126
1, 3119, Note_on_c, 0, 65, 0
1, 3119, Note_on_c, 0, 73, 0
1, 3360, Note_on_c, 0, 68, 126
1, 3360, Note_on_c, 0, 72, 126
1, 3599, Note_on_c, 0, 68, 0
1, 3599, Note_on_c, 0, 72, 0
1, 4320, Note_on_c, 0, 67, 126
1, 4320, Note_on_c, 0, 70, 126
1, 4559, Note_on_c, 0, 67, 0
1, 4559, Note_on_c, 0, 70, 0
1, 4800, Note_on_c, 0, 68, 126
1, 5039, Note_on_c, 0, 68, 0
1, 5760, Note_on_c, 0, 73, 126
1, 5760, Note_on_c, 0, 78, 126
1, 6215, Note_on_c, 0, 73, 0
1, 6215, Note_on_c, 0, 78, 0
1, 6240, Note_on_c, 0, 73, 126
1, 6240, Note_on_c, 0, 77, 126
1, 7151, Note_on_c, 0, 73, 0
1, 7151, Note_on_c, 0, 77, 0
1, 7200, Note_on_c, 0, 72, 126
1, 7200, Note_on_c, 0, 75, 126
1, 7655, Note_on_c, 0, 72, 0
1, 7655, Note_on_c, 0, 75, 0
1, 7680, Note_on_c, 0, 73, 126
1, 7680, Note_on_c, 0, 80, 126
1, 7919, Note_on_c, 0, 73, 0
1, 7919, Note_on_c, 0, 80, 0
1, 8640, Note_on_c, 0, 70, 126
1, 8640, Note_on_c, 0, 78, 126
1, 8879, Note_on_c, 0, 70, 0
1, 8879, Note_on_c, 0, 78, 0
1, 9120, Note_on_c, 0, 73, 126
1, 9120, Note_on_c, 0, 77, 126
1, 9359, Note_on_c, 0, 73, 0
1, 9359, Note_on_c, 0, 77, 0
1, 10080, Note_on_c, 0, 72, 126
1, 10080, Note_on_c, 0, 75, 126
1, 10319, Note_on_c, 0, 72, 0
1, 10319, Note_on_c, 0, 75, 0
1, 10560, Note_on_c, 0, 73, 126
1, 10799, Note_on_c, 0, 73, 0
1, 11520, Note_on_c, 0, 61, 126
1, 11520, Note_on_c, 0, 73, 126
1, 12431, Note_on_c, 0, 61, 0
1, 12431, Note_on_c, 0, 73, 0
1, 12480, Note_on_c, 0, 60, 126
1, 12480, Note_on_c, 0, 72, 126
1, 12935, Note_on_c, 0, 60, 0
1, 12935, Note_on_c, 0, 72, 0
1, 12960, Note_on_c, 0, 58, 126
1, 12960, Note_on_c, 0, 70, 126
1, 13415, Note_on_c, 0, 58, 0
1, 13440, Note_on_c, 0, 63, 126
1, 13871, Note_on_c, 0, 70, 0
1, 13895, Note_on_c, 0, 63, 0
1, 13920, Note_on_c, 0, 75, 126
1, 14375, Note_on_c, 0, 75, 0
1, 14400, Note_on_c, 0, 73, 126
1, 14400, Note_on_c, 0, 65, 126
1, 14855, Note_on_c, 0, 65, 0
1, 14880, Note_on_c, 0, 68, 126
1, 15311, Note_on_c, 0, 73, 0
1, 15335, Note_on_c, 0, 68, 0
1, 15360, Note_on_c, 0, 72, 126
1, 15815, Note_on_c, 0, 72, 0
1, 15840, Note_on_c, 0, 70, 126
1, 15840, Note_on_c, 0, 67, 126
1, 16295, Note_on_c, 0, 67, 0
1, 16751, Note_on_c, 0, 70, 0
1, 16800, Note_on_c, 0, 68, 126
1, 17255, Note_on_c, 0, 68, 0
1, 17280, Note_on_c, 0, 66, 126
1, 17280, Note_on_c, 0, 78, 126
1, 18191, Note_on_c, 0, 66, 0
1, 18191, Note_on_c, 0, 78, 0
1, 18240, Note_on_c, 0, 65, 126
1, 18240, Note_on_c, 0, 77, 126
1, 18695, Note_on_c, 0, 65, 0
1, 18695, Note_on_c, 0, 77, 0
1, 18720, Note_on_c, 0, 63, 126
1, 18720, Note_on_c, 0, 75, 126
1, 19175, Note_on_c, 0, 63, 0
1, 19200, Note_on_c, 0, 68, 126
1, 19631, Note_on_c, 0, 75, 0
1, 19655, Note_on_c, 0, 68, 0
1, 19680, Note_on_c, 0, 80, 126
1, 20135, Note_on_c, 0, 80, 0
1, 20160, Note_on_c, 0, 78, 126
1, 20160, Note_on_c, 0, 70, 126
1, 20615, Note_on_c, 0, 70, 0
1, 20640, Note_on_c, 0, 73, 126
1, 21071, Note_on_c, 0, 78, 0
1, 21095, Note_on_c, 0, 73, 0
1, 21120, Note_on_c, 0, 77, 126
1, 21575, Note_on_c, 0, 77, 0
1, 21600, Note_on_c, 0, 75, 126
1, 21600, Note_on_c, 0, 72, 126
1, 22055, Note_on_c, 0, 72, 0
1, 22080, Time_signature, 2, 2, 24, 8
1, 22511, Note_on_c, 0, 75, 0
1, 22560, Note_on_c, 0, 73, 126
1, 23015, Note_on_c, 0, 73, 0
1, 23040, Time_signature, 1, 2, 24, 8
1, 23040, Key_signature, -5, "major"
1, 23040, Tempo, 272727
1, 23040, Note_on_c, 0, 68, 126
1, 23040, Note_on_c, 0, 73, 126
1, 23495, Note_on_c, 0, 68, 0
1, 23495, Note_on_c, 0, 73, 0
1, 23520, Time_signature, 3, 2, 24, 8
1, 23520, Note_on_c, 0, 68, 126
1, 23520, Note_on_c, 0, 72, 126
1, 24431, Note_on_c, 0, 68, 0
1, 24431, Note_on_c, 0, 72, 0
1, 24480, Note_on_c, 0, 67, 126
1, 24480, Note_on_c, 0, 70, 126
1, 24935, Note_on_c, 0, 67, 0
1, 24935, Note_on_c, 0, 70, 0
1, 24960, Note_on_c, 0, 68, 126
1, 24960, Note_on_c, 0, 75, 126
1, 25199, Note_on_c, 0, 68, 0
1, 25199, Note_on_c, 0, 75, 0
1, 25920, Note_on_c, 0, 65, 126
1, 25920, Note_on_c, 0, 73, 126
1, 26159, Note_on_c, 0, 65, 0
1, 26159, Note_on_c, 0, 73, 0
1, 26400, Note_on_c, 0, 68, 126
1, 26400, Note_on_c, 0, 72, 126
1, 26639, Note_on_c, 0, 68, 0
1, 26639, Note_on_c, 0, 72, 0
1, 27360, Note_on_c, 0, 67, 126
1, 27360, Note_on_c, 0, 70, 126
1, 27599, Note_on_c, 0, 67, 0
1, 27599, Note_on_c, 0, 70, 0
1, 27840, Note_on_c, 0, 68, 126
1, 28079, Note_on_c, 0, 68, 0
1, 28800, Note_on_c, 0, 73, 126
1, 28800, Note_on_c, 0, 78, 126
1, 29255, Note_on_c, 0, 73, 0
1, 29255, Note_on_c, 0, 78, 0
1, 29280, Note_on_c, 0, 73, 126
1, 29280, Note_on_c, 0, 77, 126
1, 30191, Note_on_c, 0, 73, 0
1, 30191, Note_on_c, 0, 77, 0
1, 30240, Note_on_c, 0, 72, 126
1, 30240, Note_on_c, 0, 75, 126
1, 30695, Note_on_c, 0, 72, 0
1, 30695, Note_on_c, 0, 75, 0
1, 30720, Note_on_c, 0, 73, 126
1, 30720, Note_on_c, 0, 80, 126
1, 30959, Note_on_c, 0, 73, 0
1, 30959, Note_on_c, 0, 80, 0
1, 31680, Note_on_c, 0, 70, 126
1, 31680, Note_on_c, 0, 78, 126
1, 31919, Note_on_c, 0, 70, 0
1, 31919, Note_on_c, 0, 78, 0
1, 32160, Note_on_c, 0, 73, 126
1, 32160, Note_on_c, 0, 77, 126
1, 32399, Note_on_c, 0, 73, 0
1, 32399, Note_on_c, 0, 77, 0
1, 33120, Note_on_c, 0, 72, 126
1, 33120, Note_on_c, 0, 75, 126
1, 33359, Note_on_c, 0, 72, 0
1, 33359, Note_on_c, 0, 75, 0
1, 33600, Note_on_c, 0, 73, 126
1, 33839, Note_on_c, 0, 73, 0
1, 34560, Note_on_c, 0, 61, 126
1, 34560, Note_on_c, 0, 73, 126
1, 35471, Note_on_c, 0, 61, 0
1, 35471, Note_on_c, 0, 73, 0
1, 35520, Note_on_c, 0, 60, 126
1, 35520, Note_on_c, 0, 72, 126
1, 35975, Note_on_c, 0, 60, 0
1, 35975, Note_on_c, 0, 72, 0
1, 36000, Note_on_c, 0, 58, 126
1, 36000, Note_on_c, 0, 70, 126
1, 36455, Note_on_c, 0, 58, 0
1, 36480, Note_on_c, 0, 63, 126
1, 36911, Note_on_c, 0, 70, 0
1, 36935, Note_on_c, 0, 63, 0
1, 36960, Note_on_c, 0, 75, 126
1, 37415, Note_on_c, 0, 75, 0
1, 37440, Note_on_c, 0, 73, 126
1, 37440, Note_on_c, 0, 65, 126
1, 37895, Note_on_c, 0, 65, 0
1, 37920, Note_on_c, 0, 68, 126
1, 38351, Note_on_c, 0, 73, 0
1, 38375, Note_on_c, 0, 68, 0
1, 38400, Note_on_c, 0, 72, 126
1, 38855, Note_on_c, 0, 72, 0
1, 38880, Note_on_c, 0, 70, 126
1, 38880, Note_on_c, 0, 67, 126
1, 39335, Note_on_c, 0, 67, 0
1, 39791, Note_on_c, 0, 70, 0
1, 39840, Note_on_c, 0, 68, 126
1, 40295, Note_on_c, 0, 68, 0
1, 40320, Note_on_c, 0, 66, 126
1, 40320, Note_on_c, 0, 78, 126
1, 41231, Note_on_c, 0, 66, 0
1, 41231, Note_on_c, 0, 78, 0
1, 41280, Note_on_c, 0, 65, 126
1, 41280, Note_on_c, 0, 77, 126
1, 41735, Note_on_c, 0, 65, 0
1, 41735, Note_on_c, 0, 77, 0
1, 41760, Note_on_c, 0, 63, 126
1, 41760, Note_on_c, 0, 75, 126
1, 42215, Note_on_c, 0, 63, 0
1, 42240, Note_on_c, 0, 68, 126
1, 42671, Note_on_c, 0, 75, 0
1, 42695, Note_on_c, 0, 68, 0
1, 42720, Note_on_c, 0, 80, 126
1, 43175, Note_on_c, 0, 80, 0
1, 43200, Note_on_c, 0, 78, 126
1, 43200, Note_on_c, 0, 70, 126
1, 43655, Note_on_c, 0, 70, 0
1, 43680, Note_on_c, 0, 73, 126
1, 44111, Note_on_c, 0, 78, 0
1, 44135, Note_on_c, 0, 73, 0
1, 44160, Note_on_c, 0, 77, 126
1, 44615, Note_on_c, 0, 77, 0
1, 44640, Note_on_c, 0, 75, 126
1, 44640, Note_on_c, 0, 72, 126
1, 45095, Note_on_c, 0, 72, 0
1, 45120, Time_signature, 2, 2, 24, 8
1, 45551, Note_on_c, 0, 75, 0
1, 45600, Note_on_c, 0, 73, 126
1, 46055, Note_on_c, 0, 73, 0
1, 46080, Time_signature, 1, 2, 24, 8
1, 46080, Note_on_c, 0, 65, 126
1, 46080, Note_on_c, 0, 73, 126
1, 46535, Note_on_c, 0, 65, 0
1, 46535, Note_on_c, 0, 73, 0
1, 46560, Time_signature, 3, 2, 24, 8
1, 46560, Note_on_c, 0, 65, 126
1, 46560, Note_on_c, 0, 73, 126
1, 47471, Note_on_c, 0, 65, 0
1, 47471, Note_on_c, 0, 73, 0
1, 47520, Note_on_c, 0, 65, 126
1, 47520, Note_on_c, 0, 73, 126
1, 47975, Note_on_c, 0, 65, 0
1, 47975, Note_on_c, 0, 73, 0
1, 48000, Note_on_c, 0, 73, 126
1, 48000, Note_on_c, 0, 63, 126
1, 48455, Note_on_c, 0, 73, 0
1, 48480, Note_on_c, 0, 72, 126
1, 48911, Note_on_c, 0, 63, 0
1, 48935, Note_on_c, 0, 72, 0
1, 48960, Note_on_c, 0, 71, 126
1, 48960, Note_on_c, 0, 63, 126
1, 49415, Note_on_c, 0, 71, 0
1, 49415, Note_on_c, 0, 63, 0
1, 49440, Note_on_c, 0, 71, 126
1, 49440, Note_on_c, 0, 63, 126
1, 50351, Note_on_c, 0, 71, 0
1, 50351, Note_on_c, 0, 63, 0
1, 50400, Note_on_c, 0, 71, 126
1, 50400, Note_on_c, 0, 63, 126
1, 50855, Note_on_c, 0, 71, 0
1, 50855, Note_on_c, 0, 63, 0
1, 50880, Note_on_c, 0, 71, 126
1, 50880, Note_on_c, 0, 61, 126
1, 51335, Note_on_c, 0, 71, 0
1, 51360, Note_on_c, 0, 70, 126
1, 51791, Note_on_c, 0, 61, 0
1, 51815, Note_on_c, 0, 70, 0
1, 51840, Note_on_c, 0, 70, 126
1, 51840, Note_on_c, 0, 61, 126
1, 52295, Note_on_c, 0, 70, 0
1, 52295, Note_on_c, 0, 61, 0
1, 52320, Note_on_c, 0, 72, 126
1, 52320, Note_on_c, 0, 66, 126
1, 53231, Note_on_c, 0, 72, 0
1, 53231, Note_on_c, 0, 66, 0
1, 53280, Note_on_c, 0, 73, 126
1, 53280, Note_on_c, 0, 65, 126
1, 53735, Note_on_c, 0, 73, 0
1, 53735, Note_on_c, 0, 65, 0
1, 53760, Note_on_c, 0, 75, 126
1, 53760, Note_on_c, 0, 66, 126
1, 54671, Note_on_c, 0, 75, 0
1, 54671, Note_on_c, 0, 66, 0
1, 54720, Note_on_c, 0, 66, 126
1, 54720, Note_on_c, 0, 63, 126
1, 55631, Note_on_c, 0, 66, 0
1, 55631, Note_on_c, 0, 63, 0
1, 55680, Note_on_c, 0, 65, 126
1, 55680, Note_on_c, 0, 61, 126
1, 56135, Note_on_c, 0, 65, 0
1, 56135, Note_on_c, 0, 61, 0
1, 56160, Note_on_c, 0, 70, 126
1, 56160, Note_on_c, 0, 58, 126
1, 56387, Note_on_c, 0, 70, 0
1, 56400, Note_on_c, 0, 66, 126
1, 56615, Note_on_c, 0, 58, 0
1, 56627, Note_on_c, 0, 66, 0
1, 56640, Note_on_c, 0, 61, 126
1, 56640, Note_on_c, 0, 65, 126
1, 57095, Note_on_c, 0, 61, 0
1, 57095, Note_on_c, 0, 65, 0
1, 57120, Note_on_c, 0, 60, 126
1, 57120, Note_on_c, 0, 63, 126
1, 57575, Note_on_c, 0, 60, 0
1, 57575, Note_on_c, 0, 63, 0
1, 57600, Note_on_c, 0, 61, 126
1, 57600, Note_on_c, 0, 73, 126
1, 58055, Note_on_c, 0, 61, 0
1, 58055, Note_on_c, 0, 73, 0
1, 58080, Note_on_c, 0, 60, 126
1, 58080, Note_on_c, 0, 72, 126
1, 58991, Note_on_c, 0, 60, 0
1, 58991, Note_on_c, 0, 72, 0
1, 59040, Note_on_c, 0, 58, 126
1, 59040, Note_on_c, 0, 70, 126
1, 59495, Note_on_c, 0, 58, 0
1, 59495, Note_on_c, 0, 70, 0
1, 59520, Note_on_c, 0, 63, 126
1, 59520, Note_on_c, 0, 75, 126
1, 59975, Note_on_c, 0, 63, 0
1, 59975, Note_on_c, 0, 75, 0
1, 60480, Note_on_c, 0, 73, 126
1, 60480, Note_on_c, 0, 65, 126
1, 60935, Note_on_c, 0, 65, 0
1, 60960, Note_on_c, 0, 68, 126
1, 61391, Note_on_c, 0, 73, 0
1, 61415, Note_on_c, 0, 68, 0
1, 61440, Note_on_c, 0, 72, 126
1, 61895, Note_on_c, 0, 72, 0
1, 61920, Note_on_c, 0, 70, 126
1, 61920, Note_on_c, 0, 67, 126
1, 62375, Note_on_c, 0, 67, 0
1, 62831, Note_on_c, 0, 70, 0
1, 62880, Note_on_c, 0, 68, 126
1, 63335, Note_on_c, 0, 68, 0
1, 63360, Note_on_c, 0, 66, 126
1, 63360, Note_on_c, 0, 78, 126
1, 63815, Note_on_c, 0, 66, 0
1, 63815, Note_on_c, 0, 78, 0
1, 63840, Note_on_c, 0, 65, 126
1, 63840, Note_on_c, 0, 77, 126
1, 64751, Note_on_c, 0, 65, 0
1, 64751, Note_on_c, 0, 77, 0
1, 64800, Note_on_c, 0, 63, 126
1, 64800, Note_on_c, 0, 75, 126
1, 65255, Note_on_c, 0, 63, 0
1, 65255, Note_on_c, 0, 75, 0
1, 65280, Note_on_c, 0, 68, 126
1, 65280, Note_on_c, 0, 80, 126
1, 65735, Note_on_c, 0, 68, 0
1, 65735, Note_on_c, 0, 80, 0
1, 66240, Note_on_c, 0, 66, 126
1, 66240, Note_on_c, 0, 78, 126
1, 67151, Note_on_c, 0, 66, 0
1, 67151, Note_on_c, 0, 78, 0
1, 67200, Note_on_c, 0, 65, 126
1, 67200, Note_on_c, 0, 77, 126
1, 67655, Note_on_c, 0, 65, 0
1, 67655, Note_on_c, 0, 77, 0
1, 67680, Note_on_c, 0, 63, 126
1, 67680, Note_on_c, 0, 75, 126
1, 68135, Note_on_c, 0, 63, 0
1, 68135, Note_on_c, 0, 75, 0
1, 68160, Note_on_c, 0, 68, 126
1, 68160, Note_on_c, 0, 80, 126
1, 68615, Note_on_c, 0, 68, 0
1, 68615, Note_on_c, 0, 80, 0
1, 69120, Note_on_c, 0, 66, 126
1, 69120, Note_on_c, 0, 78, 126
1, 70031, Note_on_c, 0, 66, 0
1, 70031, Note_on_c, 0, 78, 0
1, 70080, Note_on_c, 0, 65, 126
1, 70080, Note_on_c, 0, 77, 126
1, 70535, Note_on_c, 0, 65, 0
1, 70535, Note_on_c, 0, 77, 0
1, 70560, Note_on_c, 0, 70, 126
1, 70560, Note_on_c, 0, 82, 126
1, 71040, Time_signature, 2, 2, 24, 8
1, 71471, Note_on_c, 0, 70, 0
1, 71471, Note_on_c, 0, 82, 0
1, 71520, Note_on_c, 0, 68, 126
1, 71520, Note_on_c, 0, 80, 126
1, 71975, Note_on_c, 0, 68, 0
1, 71975, Note_on_c, 0, 80, 0
1, 72000, Time_signature, 3, 2, 24, 8
1, 72000, Note_on_c, 0, 60, 126
1, 72000, Note_on_c, 0, 54, 126
1, 72911, Note_on_c, 0, 60, 0
1, 72960, Note_on_c, 0, 63, 126
1, 73187, Note_on_c, 0, 63, 0
1, 73200, Note_on_c, 0, 61, 126
1, 73367, Note_on_c, 0, 54, 0
1, 73427, Note_on_c, 0, 61, 0
1, 73440, Time_signature, 2, 2, 24, 8
1, 73440, Note_on_c, 0, 53, 126
1, 73440, Note_on_c, 0, 61, 126
1, 73895, Note_on_c, 0, 53, 0
1, 73895, Note_on_c, 0, 61, 0
1, 74400, Time_signature, 1, 2, 24, 8
1, 74400, Note_on_c, 0, 65, 126
1, 74400, Note_on_c, 0, 73, 126
1, 74855, Note_on_c, 0, 65, 0
1, 74855, Note_on_c, 0, 73, 0
1, 74880, Time_signature, 3, 2, 24, 8
1, 74880, Note_on_c, 0, 65, 126
1, 74880, Note_on_c, 0, 73, 126
1, 75791, Note_on_c, 0, 65, 0
1, 75791, Note_on_c, 0, 73, 0
1, 75840, Note_on_c, 0, 65, 126
1, 75840, Note_on_c, 0, 73, 126
1, 76295, Note_on_c, 0, 65, 0
1, 76295, Note_on_c, 0, 73, 0
1, 76320, Note_on_c, 0, 73, 126
1, 76320, Note_on_c, 0, 63, 126
1, 76775, Note_on_c, 0, 73, 0
1, 76800, Note_on_c, 0, 72, 126
1, 77231, Note_on_c, 0, 63, 0
1, 77255, Note_on_c, 0, 72, 0
1, 77280, Note_on_c, 0, 71, 126
1, 77280, Note_on_c, 0, 63, 126
1, 77735, Note_on_c, 0, 71, 0
1, 77735, Note_on_c, 0, 63, 0
1, 77760, Note_on_c, 0, 71, 126
1, 77760, Note_on_c, 0, 63, 126
1, 78671, Note_on_c, 0, 71, 0
1, 78671, Note_on_c, 0, 63, 0
1, 78720, Note_on_c, 0, 71, 126
1, 78720, Note_on_c, 0, 63, 126
1, 79175, Note_on_c, 0, 71, 0
1, 79175, Note_on_c, 0, 63, 0
1, 79200, Note_on_c, 0, 71, 126
1, 79200, Note_on_c, 0, 61, 126
1, 79655, Note_on_c, 0, 71, 0
1, 79680, Note_on_c, 0, 70, 126
1, 80111, Note_on_c, 0, 61, 0
1, 80135, Note_on_c, 0, 70, 0
1, 80160, Note_on_c, 0, 70, 126
1, 80160, Note_on_c, 0, 61, 126
1, 80615, Note_on_c, 0, 70, 0
1, 80615, Note_on_c, 0, 61, 0
1, 80640, Note_on_c, 0, 72, 126
1, 80640, Note_on_c, 0, 66, 126
1, 81551, Note_on_c, 0, 72, 0
1, 81551, Note_on_c, 0, 66, 0
1, 81600, Note_on_c, 0, 73, 126
1, 81600, Note_on_c, 0, 65, 126
1, 82055, Note_on_c, 0, 73, 0
1, 82055, Note_on_c, 0, 65, 0
1, 82080, Note_on_c, 0, 75, 126
1, 82080, Note_on_c, 0, 66, 126
1, 82991, Note_on_c, 0, 75, 0
1, 82991, Note_on_c, 0, 66, 0
1, 83040, Note_on_c, 0, 66, 126
1, 83040, Note_on_c, 0, 63, 126
1, 83951, Note_on_c, 0, 66, 0
1, 83951, Note_on_c, 0, 63, 0
1, 84000, Note_on_c, 0, 65, 126
1, 84000, Note_on_c, 0, 61, 126
1, 84455, Note_on_c, 0, 65, 0
1, 84455, Note_on_c, 0, 61, 0
1, 84480, Note_on_c, 0, 70, 126
1, 84480, Note_on_c, 0, 58, 126
1, 84707, Note_on_c, 0, 70, 0
1, 84720, Note_on_c, 0, 66, 126
1, 84935, Note_on_c, 0, 58, 0
1, 84947, Note_on_c, 0, 66, 0
1, 84960, Note_on_c, 0, 61, 126
1, 84960, Note_on_c, 0, 65, 126
1, 85415, Note_on_c, 0, 61, 0
1, 85415, Note_on_c, 0, 65, 0
1, 85440, Note_on_c, 0, 60, 126
1, 85440, Note_on_c, 0, 63, 126
1, 85895, Note_on_c, 0, 60, 0
1, 85895, Note_on_c, 0, 63, 0
1, 85920, Note_on_c, 0, 61, 126
1, 85920, Note_on_c, 0, 73, 126
1, 86375, Note_on_c, 0, 61, 0
1, 86375, Note_on_c, 0, 73, 0
1, 86400, Note_on_c, 0, 60, 126
1, 86400, Note_on_c, 0, 72, 126
1, 87311, Note_on_c, 0, 60, 0
1, 87311, Note_on_c, 0, 72, 0
1, 87360, Note_on_c, 0, 58, 126
1, 87360, Note_on_c, 0, 70, 126
1, 87815, Note_on_c, 0, 58, 0
1, 87815, Note_on_c, 0, 70, 0
1, 87840, Note_on_c, 0, 63, 126
1, 87840, Note_on_c, 0, 75, 126
1, 88295, Note_on_c, 0, 63, 0
1, 88295, Note_on_c, 0, 75, 0
1, 88800, Note_on_c, 0, 73, 126
1, 88800, Note_on_c, 0, 65, 126
1, 89255, Note_on_c, 0, 65, 0
1, 89280, Note_on_c, 0, 68, 126
1, 89711, Note_on_c, 0, 73, 0
1, 89735, Note_on_c, 0, 68, 0
1, 89760, Note_on_c, 0, 72, 126
1, 90215, Note_on_c, 0, 72, 0
1, 90240, Note_on_c, 0, 70, 126
1, 90240, Note_on_c, 0, 67, 126
1, 90695, Note_on_c, 0, 67, 0
1, 91151, Note_on_c, 0, 70, 0
1, 91200, Note_on_c, 0, 68, 126
1, 91655, Note_on_c, 0, 68, 0
1, 91680, Note_on_c, 0, 66, 126
1, 91680, Note_on_c, 0, 78, 126
1, 92135, Note_on_c, 0, 66, 0
1, 92135, Note_on_c, 0, 78, 0
1, 92160, Note_on_c, 0, 65, 126
1, 92160, Note_on_c, 0, 77, 126
1, 93071, Note_on_c, 0, 65, 0
1, 93071, Note_on_c, 0, 77, 0
1, 93120, Note_on_c, 0, 63, 126
1, 93120, Note_on_c, 0, 75, 126
1, 93575, Note_on_c, 0, 63, 0
1, 93575, Note_on_c, 0, 75, 0
1, 93600, Note_on_c, 0, 68, 126
1, 93600, Note_on_c, 0, 80, 126
1, 94055, Note_on_c, 0, 68, 0
1, 94055, Note_on_c, 0, 80, 0
1, 94560, Note_on_c, 0, 66, 126
1, 94560, Note_on_c, 0, 78, 126
1, 95471, Note_on_c, 0, 66, 0
1, 95471, Note_on_c, 0, 78, 0
1, 95520, Note_on_c, 0, 65, 126
1, 95520, Note_on_c, 0, 77, 126
1, 95975, Note_on_c, 0, 65, 0
1, 95975, Note_on_c, 0, 77, 0
1, 96000, Note_on_c, 0, 63, 126
1, 96000, Note_on_c, 0, 75, 126
1, 96455, Note_on_c, 0, 63, 0
1, 96455, Note_on_c, 0, 75, 0
1, 96480, Note_on_c, 0, 68, 126
1, 96480, Note_on_c, 0, 80, 126
1, 96935, Note_on_c, 0, 68, 0
1, 96935, Note_on_c, 0, 80, 0
1, 97440, Note_on_c, 0, 66, 126
1, 97440, Note_on_c, 0, 78, 126
1, 98351, Note_on_c, 0, 66, 0
1, 98351, Note_on_c, 0, 78, 0
1, 98400, Note_on_c, 0, 65, 126
1, 98400, Note_on_c, 0, 77, 126
1, 98855, Note_on_c, 0, 65, 0
1, 98855, Note_on_c, 0, 77, 0
1, 98880, Note_on_c, 0, 70, 126
1, 98880, Note_on_c, 0, 82, 126
1, 99360, Time_signature, 2, 2, 24, 8
1, 99791, Note_on_c, 0, 70, 0
1, 99791, Note_on_c, 0, 82, 0
1, 99840, Note_on_c, 0, 68, 126
1, 99840, Note_on_c, 0, 80, 126
1, 100295, Note_on_c, 0, 68, 0
1, 100295, Note_on_c, 0, 80, 0
1, 100320, Time_signature, 3, 2, 24, 8
1, 100320, Note_on_c, 0, 60, 126
1, 100320, Note_on_c, 0, 54, 126
1, 101231, Note_on_c, 0, 60, 0
1, 101280, Note_on_c, 0, 63, 126
1, 101507, Note_on_c, 0, 63, 0
1, 101520, Note_on_c, 0, 61, 126
1, 101687, Note_on_c, 0, 54, 0
1, 101747, Note_on_c, 0, 61, 0
1, 101760, Time_signature, 2, 2, 24, 8
1, 101760, Note_on_c, 0, 53, 126
1, 101760, Note_on_c, 0, 61, 126
1, 102215, Note_on_c, 0, 53, 0
1, 102215, Note_on_c, 0, 61, 0
1, 102720, Time_signature, 1, 2, 24, 8
1, 102720, Note_on_c, 0, 53, 126
1, 102720, Note_on_c, 0, 65, 126
1, 103200, Time_signature, 3, 2, 24, 8
1, 104087, Note_on_c, 0, 53, 0
1, 104087, Note_on_c, 0, 65, 0
1, 104160, Note_on_c, 0, 54, 126
1, 104160, Note_on_c, 0, 66, 126
1, 105527, Note_on_c, 0, 54, 0
1, 105527, Note_on_c, 0, 66, 0
1, 105600, Note_on_c, 0, 63, 126
1, 105600, Note_on_c, 0, 75, 126
1, 106511, Note_on_c, 0, 63, 0
1, 106511, Note_on_c, 0, 75, 0
1, 106560, Note_on_c, 0, 60, 126
1, 106560, Note_on_c, 0, 72, 126
1, 107015, Note_on_c, 0, 60, 0
1, 107015, Note_on_c, 0, 72, 0
1, 107040, Note_on_c, 0, 56, 126
1, 107040, Note_on_c, 0, 68, 126
1, 107495, Note_on_c, 0, 56, 0
1, 107495, Note_on_c, 0, 68, 0
1, 107520, Note_on_c, 0, 61, 126
1, 107520, Note_on_c, 0, 73, 126
1, 107975, Note_on_c, 0, 61, 0
1, 107975, Note_on_c, 0, 73, 0
1, 108000, Note_on_c, 0, 65, 126
1, 108000, Note_on_c, 0, 77, 126
1, 108455, Note_on_c, 0, 65, 0
1, 108455, Note_on_c, 0, 77, 0
1, 108480, Note_on_c, 0, 53, 126
1, 108480, Note_on_c, 0, 65, 126
1, 109847, Note_on_c, 0, 53, 0
1, 109847, Note_on_c, 0, 65, 0
1, 109920, Note_on_c, 0, 54, 126
1, 109920, Note_on_c, 0, 66, 126
1, 111287, Note_on_c, 0, 54, 0
1, 111287, Note_on_c, 0, 66, 0
1, 111360, Note_on_c, 0, 66, 126
1, 111360, Note_on_c, 0, 78, 126
1, 112271, Note_on_c, 0, 66, 0
1, 112271, Note_on_c, 0, 78, 0
1, 112320, Note_on_c, 0, 70, 126
1, 112320, Note_on_c, 0, 82, 126
1, 112775, Note_on_c, 0, 70, 0
1, 112775, Note_on_c, 0, 82, 0
1, 112800, Note_on_c, 0, 60, 126
1, 112800, Note_on_c, 0, 72, 126
1, 113255, Note_on_c, 0, 60, 0
1, 113255, Note_on_c, 0, 72, 0
1, 113280, Time_signature, 2, 2, 24, 8
1, 113280, Note_on_c, 0, 63, 126
1, 113280, Note_on_c, 0, 75, 126
1, 113735, Note_on_c, 0, 63, 0
1, 113735, Note_on_c, 0, 75, 0
1, 113760, Note_on_c, 0, 61, 126
1, 113760, Note_on_c, 0, 73, 126
1, 114215, Note_on_c, 0, 61, 0
1, 114215, Note_on_c, 0, 73, 0
1, 114240, Time_signature, 1, 2, 24, 8
1, 114240, Note_on_c, 0, 53, 126
1, 114240, Note_on_c, 0, 65, 126
1, 114720, Time_signature, 3, 2, 24, 8
1, 115607, Note_on_c, 0, 53, 0
1, 115607, Note_on_c, 0, 65, 0
1, 115680, Note_on_c, 0, 54, 126
1, 115680, Note_on_c, 0, 66, 126
1, 117047, Note_on_c, 0, 54, 0
1, 117047, Note_on_c, 0, 66, 0
1, 117120, Note_on_c, 0, 63, 126
1, 117120, Note_on_c, 0, 75, 126
1, 118031, Note_on_c, 0, 63, 0
1, 118031, Note_on_c, 0, 75, 0
1, 118080, Note_on_c, 0, 60, 126
1, 118080, Note_on_c, 0, 72, 126
1, 118535, Note_on_c, 0, 60, 0
1, 118535, Note_on_c, 0, 72, 0
1, 118560, Note_on_c, 0, 56, 126
1, 118560, Note_on_c, 0, 68, 126
1, 119015, Note_on_c, 0, 56, 0
1, 119015, Note_on_c, 0, 68, 0
1, 119040, Note_on_c, 0, 61, 126
1, 119040, Note_on_c, 0, 73, 126
1, 119495, Note_on_c, 0, 61, 0
1, 119495, Note_on_c, 0, 73, 0
1, 119520, Note_on_c, 0, 65, 126
1, 119520, Note_on_c, 0, 77, 126
1, 119975, Note_on_c, 0, 65, 0
1, 119975, Note_on_c, 0, 77, 0
1, 120000, Note_on_c, 0, 53, 126
1, 120000, Note_on_c, 0, 65, 126
1, 121367, Note_on_c, 0, 53, 0
1, 121367, Note_on_c, 0, 65, 0
1, 121440, Note_on_c, 0, 54, 126
1, 121440, Note_on_c, 0, 66, 126
1, 122807, Note_on_c, 0, 54, 0
1, 122807, Note_on_c, 0, 66, 0
1, 122880, Note_on_c, 0, 66, 126
1, 122880, Note_on_c, 0, 78, 126
1, 123791, Note_on_c, 0, 66, 0
1, 123791, Note_on_c, 0, 78, 0
1, 123840, Note_on_c, 0, 70, 126
1, 123840, Note_on_c, 0, 82, 126
1, 124295, Note_on_c, 0, 70, 0
1, 124295, Note_on_c, 0, 82, 0
1, 124320, Note_on_c, 0, 60, 126
1, 124320, Note_on_c, 0, 72, 126
1, 124775, Note_on_c, 0, 60, 0
1, 124775, Note_on_c, 0, 72, 0
1, 124800, Time_signature, 2, 2, 24, 8
1, 124800, Note_on_c, 0, 63, 126
1, 124800, Note_on_c, 0, 75, 126
1, 125255, Note_on_c, 0, 63, 0
1, 125255, Note_on_c, 0, 75, 0
1, 125280, Note_on_c, 0, 61, 126
1, 125280, Note_on_c, 0, 73, 126
1, 125735, Note_on_c, 0, 61, 0
1, 125735, Note_on_c, 0, 73, 0
1, 125760, Time_signature, 1, 2, 24, 8
1, 125760, Note_on_c, 0, 65, 126
1, 125760, Note_on_c, 0, 77, 126
1, 126240, Time_signature, 3, 2, 24, 8
1, 127127, Note_on_c, 0, 65, 0
1, 127127, Note_on_c, 0, 77, 0
1, 127200, Note_on_c, 0, 58, 126
1, 127200, Note_on_c, 0, 70, 126
1, 128567, Note_on_c, 0, 58, 0
1, 128567, Note_on_c, 0, 70, 0
1, 128640, Note_on_c, 0, 63, 126
1, 128640, Note_on_c, 0, 75, 126
1, 130007, Note_on_c, 0, 63, 0
1, 130007, Note_on_c, 0, 75, 0
1, 130080, Note_on_c, 0, 56, 126
1, 130080, Note_on_c, 0, 68, 126
1, 131447, Note_on_c, 0, 56, 0
1, 131447, Note_on_c, 0, 68, 0
1, 131520, Note_on_c, 0, 61, 126
1, 131520, Note_on_c, 0, 73, 126
1, 132887, Note_on_c, 0, 61, 0
1, 132887, Note_on_c, 0, 73, 0
1, 132960, Note_on_c, 0, 54, 126
1, 132960, Note_on_c, 0, 66, 126
1, 134327, Note_on_c, 0, 54, 0
1, 134327, Note_on_c, 0, 66, 0
1, 134400, Note_on_c, 0, 53, 126
1, 134400, Note_on_c, 0, 65, 126
1, 135311, Note_on_c, 0, 53, 0
1, 135311, Note_on_c, 0, 65, 0
1, 135360, Note_on_c, 0, 56, 126
1, 135360, Note_on_c, 0, 68, 126
1, 135815, Note_on_c, 0, 56, 0
1, 135815, Note_on_c, 0, 68, 0
1, 135840, Note_on_c, 0, 59, 126
1, 135840, Note_on_c, 0, 71, 126
1, 136751, Note_on_c, 0, 59, 0
1, 136751, Note_on_c, 0, 71, 0
1, 136800, Note_on_c, 0, 58, 126
1, 136800, Note_on_c, 0, 70, 126
1, 137255, Note_on_c, 0, 58, 0
1, 137255, Note_on_c, 0, 70, 0
1, 137280, Note_on_c, 0, 61, 126
1, 137280, Note_on_c, 0, 73, 126
1, 138647, Note_on_c, 0, 61, 0
1, 138647, Note_on_c, 0, 73, 0
1, 138720, Note_on_c, 0, 54, 126
1, 138720, Note_on_c, 0, 66, 126
1, 140087, Note_on_c, 0, 54, 0
1, 140087, Note_on_c, 0, 66, 0
1, 140160, Note_on_c, 0, 53, 126
1, 140160, Note_on_c, 0, 65, 126
1, 141527, Note_on_c, 0, 53, 0
1, 141527, Note_on_c, 0, 65, 0
1, 141600, Note_on_c, 0, 52, 126
1, 141600, Note_on_c, 0, 64, 126
1, 142967, Note_on_c, 0, 52, 0
1, 142967, Note_on_c, 0, 64, 0
1, 143040, Note_on_c, 0, 53, 126
1, 143040, Note_on_c, 0, 65, 126
1, 144407, Note_on_c, 0, 53, 0
1, 144407, Note_on_c, 0, 65, 0
1, 144480, Note_on_c, 0, 54, 126
1, 144480, Note_on_c, 0, 66, 126
1, 145847, Note_on_c, 0, 54, 0
1, 145847, Note_on_c, 0, 66, 0
1, 145920, Note_on_c, 0, 53, 126
1, 145920, Note_on_c, 0, 65, 126
1, 146831, Note_on_c, 0, 53, 0
1, 146831, Note_on_c, 0, 65, 0
1, 146880, Note_on_c, 0, 54, 126
1, 146880, Note_on_c, 0, 66, 126
1, 147335, Note_on_c, 0, 54, 0
1, 147335, Note_on_c, 0, 66, 0
1, 147360, Note_on_c, 0, 48, 126
1, 147360, Note_on_c, 0, 60, 126
1, 147815, Note_on_c, 0, 48, 0
1, 147815, Note_on_c, 0, 60, 0
1, 147840, Time_signature, 2, 2, 24, 8
1, 147840, Note_on_c, 0, 49, 126
1, 147840, Note_on_c, 0, 61, 126
1, 148295, Note_on_c, 0, 49, 0
1, 148295, Note_on_c, 0, 61, 0
1, 148800, Time_signature, 1, 2, 24, 8
1, 148800, Note_on_c, 0, 65, 126
1, 148800, Note_on_c, 0, 77, 126
1, 149280, Time_signature, 3, 2, 24, 8
1, 150167, Note_on_c, 0, 65, 0
1, 150167, Note_on_c, 0, 77, 0
1, 150240, Note_on_c, 0, 58, 126
1, 150240, Note_on_c, 0, 70, 126
1, 151607, Note_on_c, 0, 58, 0
1, 151607, Note_on_c, 0, 70, 0
1, 151680, Note_on_c, 0, 63, 126
1, 151680, Note_on_c, 0, 75, 126
1, 153047, Note_on_c, 0, 63, 0
1, 153047, Note_on_c, 0, 75, 0
1, 153120, Note_on_c, 0, 56, 126
1, 153120, Note_on_c, 0, 68, 126
1, 154487, Note_on_c, 0, 56, 0
1, 154487, Note_on_c, 0, 68, 0
1, 154560, Note_on_c, 0, 61, 126
1, 154560, Note_on_c, 0, 73, 126
1, 155927, Note_on_c, 0, 61, 0
1, 155927, Note_on_c, 0, 73, 0
1, 156000, Note_on_c, 0, 54, 126
1, 156000, Note_on_c, 0, 66, 126
1, 157367, Note_on_c, 0, 54, 0
1, 157367, Note_on_c, 0, 66, 0
1, 157440, Note_on_c, 0, 53, 126
1, 157440, Note_on_c, 0, 65, 126
1, 158351, Note_on_c, 0, 53, 0
1, 158351, Note_on_c, 0, 65, 0
1, 158400, Note_on_c, 0, 56, 126
1, 158400, Note_on_c, 0, 68, 126
1, 158855, Note_on_c, 0, 56, 0
1, 158855, Note_on_c, 0, 68, 0
1, 158880, Note_on_c, 0, 59, 126
1, 158880, Note_on_c, 0, 71, 126
1, 159791, Note_on_c, 0, 59, 0
1, 159791, Note_on_c, 0, 71, 0
1, 159840, Note_on_c, 0, 58, 126
1, 159840, Note_on_c, 0, 70, 126
1, 160295, Note_on_c, 0, 58, 0
1, 160295, Note_on_c, 0, 70, 0
1, 160320, Note_on_c, 0, 61, 126
1, 160320, Note_on_c, 0, 73, 126
1, 161687, Note_on_c, 0, 61, 0
1, 161687, Note_on_c, 0, 73, 0
1, 161760, Note_on_c, 0, 54, 126
1, 161760, Note_on_c, 0, 66, 126
1, 163127, Note_on_c, 0, 54, 0
1, 163127, Note_on_c, 0, 66, 0
1, 163200, Note_on_c, 0, 53, 126
1, 163200, Note_on_c, 0, 65, 126
1, 164567, Note_on_c, 0, 53, 0
1, 164567, Note_on_c, 0, 65, 0
1, 164640, Note_on_c, 0, 52, 126
1, 164640, Note_on_c, 0, 64, 126
1, 166007, Note_on_c, 0, 52, 0
1, 166007, Note_on_c, 0, 64, 0
1, 166080, Note_on_c, 0, 53, 126
1, 166080, Note_on_c, 0, 65, 126
1, 167447, Note_on_c, 0, 53, 0
1, 167447, Note_on_c, 0, 65, 0
1, 167520, Note_on_c, 0, 54, 126
1, 167520, Note_on_c, 0, 66, 126
1, 168887, Note_on_c, 0, 54, 0
1, 168887, Note_on_c, 0, 66, 0
1, 168960, Note_on_c, 0, 53, 126
1, 168960, Note_on_c, 0, 65, 126
1, 169871, Note_on_c, 0, 53, 0
1, 169871, Note_on_c, 0, 65, 0
1, 169920, Note_on_c, 0, 54, 126
1, 169920, Note_on_c, 0, 66, 126
1, 170375, Note_on_c, 0, 54, 0
1, 170375, Note_on_c, 0, 66, 0
1, 170400, Note_on_c, 0, 48, 126
1, 170400, Note_on_c, 0, 60, 126
1, 170855, Note_on_c, 0, 48, 0
1, 170855, Note_on_c, 0, 60, 0
1, 170880, Time_signature, 2, 2, 24, 8
1, 170880, Note_on_c, 0, 49, 126
1, 170880, Note_on_c, 0, 61, 126
1, 171335, Note_on_c, 0, 49, 0
1, 171335, Note_on_c, 0, 61, 0
1, 171840, Time_signature, 1, 2, 24, 8
1, 171840, Key_signature, -5, "major"
1, 171840, Tempo, 272727
1, 171840, Note_on_c, 0, 68, 126
1, 171840, Note_on_c, 0, 73, 126
1, 172295, Note_on_c, 0, 68, 0
1, 172295, Note_on_c, 0, 73, 0
1, 172320, Time_signature, 3, 2, 24, 8
1, 172320, Note_on_c, 0, 68, 126
1, 172320, Note_on_c, 0, 72, 126
1, 173231, Note_on_c, 0, 68, 0
1, 173231, Note_on_c, 0, 72, 0
1, 173280, Note_on_c, 0, 67, 126
1, 173280, Note_on_c, 0, 70, 126
1, 173735, Note_on_c, 0, 67, 0
1, 173735, Note_on_c, 0, 70, 0
1, 173760, Note_on_c, 0, 68, 126
1, 173760, Note_on_c, 0, 75, 126
1, 173999, Note_on_c, 0, 68, 0
1, 173999, Note_on_c, 0, 75, 0
1, 174720, Note_on_c, 0, 65, 126
1, 174720, Note_on_c, 0, 73, 126
1, 174959, Note_on_c, 0, 65, 0
1, 174959, Note_on_c, 0, 73, 0
1, 175200, Note_on_c, 0, 68, 126
1, 175200, Note_on_c, 0, 72, 126
1, 175439, Note_on_c, 0, 68, 0
1, 175439, Note_on_c, 0, 72, 0
1, 176160, Note_on_c, 0, 67, 126
1, 176160, Note_on_c, 0, 70, 126
1, 176399, Note_on_c, 0, 67, 0
1, 176399, Note_on_c, 0, 70, 0
1, 176640, Note_on_c, 0, 68, 126
1, 176879, Note_on_c, 0, 68, 0
1, 177600, Note_on_c, 0, 73, 126
1, 177600, Note_on_c, 0, 78, 126
1, 178055, Note_on_c, 0, 73, 0
1, 178055, Note_on_c, 0, 78, 0
1, 178080, Note_on_c, 0, 73, 126
1, 178080, Note_on_c, 0, 77, 126
1, 178991, Note_on_c, 0, 73, 0
1, 178991, Note_on_c, 0, 77, 0
1, 179040, Note_on_c, 0, 72, 126
1, 179040, Note_on_c, 0, 75, 126
1, 179495, Note_on_c, 0, 72, 0
1, 179495, Note_on_c, 0, 75, 0
1, 179520, Note_on_c, 0, 73, 126
1, 179520, Note_on_c, 0, 80, 126
1, 179759, Note_on_c, 0, 73, 0
1, 179759, Note_on_c, 0, 80, 0
1, 180480, Note_on_c, 0, 70, 126
1, 180480, Note_on_c, 0, 78, 126
1, 180719, Note_on_c, 0, 70, 0
1, 180719, Note_on_c, 0, 78, 0
1, 180960, Note_on_c, 0, 73, 126
1, 180960, Note_on_c, 0, 77, 126
1, 181199, Note_on_c, 0, 73, 0
1, 181199, Note_on_c, 0, 77, 0
1, 181920, Note_on_c, 0, 72, 126
1, 181920, Note_on_c, 0, 75, 126
1, 182159, Note_on_c, 0, 72, 0
1, 182159, Note_on_c, 0, 75, 0
1, 182400, Note_on_c, 0, 73, 126
1, 182639, Note_on_c, 0, 73, 0
1, 183360, Note_on_c, 0, 61, 126
1, 183360, Note_on_c, 0, 73, 126
1, 184271, Note_on_c, 0, 61, 0
1, 184271, Note_on_c, 0, 73, 0
1, 184320, Note_on_c, 0, 60, 126
1, 184320, Note_on_c, 0, 72, 126
1, 184775, Note_on_c, 0, 60, 0
1, 184775, Note_on_c, 0, 72, 0
1, 184800, Note_on_c, 0, 58, 126
1, 184800, Note_on_c, 0, 70, 126
1, 185255, Note_on_c, 0, 58, 0
1, 185280, Note_on_c, 0, 63, 126
1, 185711, Note_on_c, 0, 70, 0
1, 185735, Note_on_c, 0, 63, 0
1, 185760, Note_on_c, 0, 75, 126
1, 186215, Note_on_c, 0, 75, 0
1, 186240, Note_on_c, 0, 73, 126
1, 186240, Note_on_c, 0, 65, 126
1, 186695, Note_on_c, 0, 65, 0
1, 186720, Note_on_c, 0, 68, 126
1, 187151, Note_on_c, 0, 73, 0
1, 187175, Note_on_c, 0, 68, 0
1, 187200, Note_on_c, 0, 72, 126
1, 187655, Note_on_c, 0, 72, 0
1, 187680, Note_on_c, 0, 70, 126
1, 187680, Note_on_c, 0, 67, 126
1, 188135, Note_on_c, 0, 67, 0
1, 188591, Note_on_c, 0, 70, 0
1, 188640, Note_on_c, 0, 68, 126
1, 189095, Note_on_c, 0, 68, 0
1, 189120, Note_on_c, 0, 66, 126
1, 189120, Note_on_c, 0, 78, 126
1, 190031, Note_on_c, 0, 66, 0
1, 190031, Note_on_c, 0, 78, 0
1, 190080, Note_on_c, 0, 65, 126
1, 190080, Note_on_c, 0, 77, 126
1, 190535, Note_on_c, 0, 65, 0
1, 190535, Note_on_c, 0, 77, 0
1, 190560, Note_on_c, 0, 63, 126
1, 190560, Note_on_c, 0, 75, 126
1, 191015, Note_on_c, 0, 63, 0
1, 191040, Note_on_c, 0, 68, 126
1, 191471, Note_on_c, 0, 75, 0
1, 191495, Note_on_c, 0, 68, 0
1, 191520, Note_on_c, 0, 80, 126
1, 191975, Note_on_c, 0, 80, 0
1, 192000, Note_on_c, 0, 78, 126
1, 192000, Note_on_c, 0, 70, 126
1, 192455, Note_on_c, 0, 70, 0
1, 192480, Note_on_c, 0, 73, 126
1, 192911, Note_on_c, 0, 78, 0
1, 192935, Note_on_c, 0, 73, 0
1, 192960, Note_on_c, 0, 77, 126
1, 193415, Note_on_c, 0, 77, 0
1, 193440, Note_on_c, 0, 75, 126
1, 193440, Note_on_c, 0, 72, 126
1, 193895, Note_on_c, 0, 72, 0
1, 193920, Time_signature, 2, 2, 24, 8
1, 194351, Note_on_c, 0, 75, 0
1, 194400, Note_on_c, 0, 73, 126
1, 194855, Note_on_c, 0, 73, 0
1, 194880, Time_signature, 1, 2, 24, 8
1, 194880, Note_on_c, 0, 65, 126
1, 194880, Note_on_c, 0, 73, 126
1, 195335, Note_on_c, 0, 65, 0
1, 195335, Note_on_c, 0, 73, 0
1, 195360, Time_signature, 3, 2, 24, 8
1, 195360, Note_on_c, 0, 65, 126
1, 195360, Note_on_c, 0, 73, 126
1, 196271, Note_on_c, 0, 65, 0
1, 196271, Note_on_c, 0, 73, 0
1, 196320, Note_on_c, 0, 65, 126
1, 196320, Note_on_c, 0, 73, 126
1, 196775, Note_on_c, 0, 65, 0
1, 196775, Note_on_c, 0, 73, 0
1, 196800, Note_on_c, 0, 73, 126
1, 196800, Note_on_c, 0, 63, 126
1, 197255, Note_on_c, 0, 73, 0
1, 197280, Note_on_c, 0, 72, 126
1, 197711, Note_on_c, 0, 63, 0
1, 197735, Note_on_c, 0, 72, 0
1, 197760, Note_on_c, 0, 71, 126
1, 197760, Note_on_c, 0, 63, 126
1, 198215, Note_on_c, 0, 71, 0
1, 198215, Note_on_c, 0, 63, 0
1, 198240, Note_on_c, 0, 71, 126
1, 198240, Note_on_c, 0, 63, 126
1, 199151, Note_on_c, 0, 71, 0
1, 199151, Note_on_c, 0, 63, 0
1, 199200, Note_on_c, 0, 71, 126
1, 199200, Note_on_c, 0, 63, 126
1, 199655, Note_on_c, 0, 71, 0
1, 199655, Note_on_c, 0, 63, 0
1, 199680, Note_on_c, 0, 71, 126
1, 199680, Note_on_c, 0, 61, 126
1, 200135, Note_on_c, 0, 71, 0
1, 200160, Note_on_c, 0, 70, 126
1, 200591, Note_on_c, 0, 61, 0
1, 200615, Note_on_c, 0, 70, 0
1, 200640, Note_on_c, 0, 70, 126
1, 200640, Note_on_c, 0, 61, 126
1, 201095, Note_on_c, 0, 70, 0
1, 201095, Note_on_c, 0, 61, 0
1, 201120, Note_on_c, 0, 72, 126
1, 201120, Note_on_c, 0, 66, 126
1, 202031, Note_on_c, 0, 72, 0
1, 202031, Note_on_c, 0, 66, 0
1, 202080, Note_on_c, 0, 73, 126
1, 202080, Note_on_c, 0, 65, 126
1, 202535, Note_on_c, 0, 73, 0
1, 202535, Note_on_c, 0, 65, 0
1, 202560, Note_on_c, 0, 75, 126
1, 202560, Note_on_c, 0, 66, 126
1, 203471, Note_on_c, 0, 75, 0
1, 203471, Note_on_c, 0, 66, 0
1, 203520, Note_on_c, 0, 66, 126
1, 203520, Note_on_c, 0, 63, 126
1, 204431, Note_on_c, 0, 66, 0
1, 204431, Note_on_c, 0, 63, 0
1, 204480, Note_on_c, 0, 65, 126
1, 204480, Note_on_c, 0, 61, 126
1, 204935, Note_on_c, 0, 65, 0
1, 204935, Note_on_c, 0, 61, 0
1, 204960, Note_on_c, 0, 70, 126
1, 204960, Note_on_c, 0, 58, 126
1, 205187, Note_on_c, 0, 70, 0
1, 205200, Note_on_c, 0, 66, 126
1, 205415, Note_on_c, 0, 58, 0
1, 205427, Note_on_c, 0, 66, 0
1, 205440, Note_on_c, 0, 61, 126
1, 205440, Note_on_c, 0, 65, 126
1, 205895, Note_on_c, 0, 61, 0
1, 205895, Note_on_c, 0, 65, 0
1, 205920, Note_on_c, 0, 60, 126
1, 205920, Note_on_c, 0, 63, 126
1, 206375, Note_on_c, 0, 60, 0
1, 206375, Note_on_c, 0, 63, 0
1, 206400, Note_on_c, 0, 61, 126
1, 206400, Note_on_c, 0, 73, 126
1, 206855, Note_on_c, 0, 61, 0
1, 206855, Note_on_c, 0, 73, 0
1, 206880, Note_on_c, 0, 60, 126
1, 206880, Note_on_c, 0, 72, 126
1, 207791, Note_on_c, 0, 60, 0
1, 207791, Note_on_c, 0, 72, 0
1, 207840, Note_on_c, 0, 58, 126
1, 207840, Note_on_c, 0, 70, 126
1, 208295, Note_on_c, 0, 58, 0
1, 208295, Note_on_c, 0, 70, 0
1, 208320, Note_on_c, 0, 63, 126
1, 208320, Note_on_c, 0, 75, 126
1, 208775, Note_on_c, 0, 63, 0
1, 208775, Note_on_c, 0, 75, 0
1, 209280, Note_on_c, 0, 73, 126
1, 209280, Note_on_c, 0, 65, 126
1, 209735, Note_on_c, 0, 65, 0
1, 209760, Note_on_c, 0, 68, 126
1, 210191, Note_on_c, 0, 73, 0
1, 210215, Note_on_c, 0, 68, 0
1, 210240, Note_on_c, 0, 72, 126
1, 210695, Note_on_c, 0, 72, 0
1, 210720, Note_on_c, 0, 70, 126
1, 210720, Note_on_c, 0, 67, 126
1, 211175, Note_on_c, 0, 67, 0
1, 211631, Note_on_c, 0, 70, 0
1, 211680, Note_on_c, 0, 68, 126
1, 212135, Note_on_c, 0, 68, 0
1, 212160, Note_on_c, 0, 66, 126
1, 212160, Note_on_c, 0, 78, 126
1, 212615, Note_on_c, 0, 66, 0
1, 212615, Note_on_c, 0, 78, 0
1, 212640, Note_on_c, 0, 65, 126
1, 212640, Note_on_c, 0, 77, 126
1, 213551, Note_on_c, 0, 65, 0
1, 213551, Note_on_c, 0, 77, 0
1, 213600, Note_on_c, 0, 63, 126
1, 213600, Note_on_c, 0, 75, 126
1, 214055, Note_on_c, 0, 63, 0
1, 214055, Note_on_c, 0, 75, 0
1, 214080, Note_on_c, 0, 68, 126
1, 214080, Note_on_c, 0, 80, 126
1, 214535, Note_on_c, 0, 68, 0
1, 214535, Note_on_c, 0, 80, 0
1, 215040, Note_on_c, 0, 66, 126
1, 215040, Note_on_c, 0, 78, 126
1, 215951, Note_on_c, 0, 66, 0
1, 215951, Note_on_c, 0, 78, 0
1, 216000, Note_on_c, 0, 65, 126
1, 216000, Note_on_c, 0, 77, 126
1, 216455, Note_on_c, 0, 65, 0
1, 216455, Note_on_c, 0, 77, 0
1, 216480, Note_on_c, 0, 63, 126
1, 216480, Note_on_c, 0, 75, 126
1, 216935, Note_on_c, 0, 63, 0
1, 216935, Note_on_c, 0, 75, 0
1, 216960, Note_on_c, 0, 68, 126
1, 216960, Note_on_c, 0, 80, 126
1, 217415, Note_on_c, 0, 68, 0
1, 217415, Note_on_c, 0, 80, 0
1, 217920, Note_on_c, 0, 66, 126
1, 217920, Note_on_c, 0, 78, 126
1, 218831, Note_on_c, 0, 66, 0
1, 218831, Note_on_c, 0, 78, 0
1, 218880, Note_on_c, 0, 65, 126
1, 218880, Note_on_c, 0, 77, 126
1, 219335, Note_on_c, 0, 65, 0
1, 219335, Note_on_c, 0, 77, 0
1, 219360, Note_on_c, 0, 70, 126
1, 219360, Note_on_c, 0, 82, 126
1, 219840, Time_signature, 2, 2, 24, 8
1, 220271, Note_on_c, 0, 70, 0
1, 220271, Note_on_c, 0, 82, 0
1, 220320, Note_on_c, 0, 68, 126
1, 220320, Note_on_c, 0, 80, 126
1, 220775, Note_on_c, 0, 68, 0
1, 220775, Note_on_c, 0, 80, 0
1, 220800, Time_signature, 3, 2, 24, 8
1, 220800, Note_on_c, 0, 60, 126
1, 220800, Note_on_c, 0, 54, 126
1, 221711, Note_on_c, 0, 60, 0
1, 221760, Note_on_c, 0, 63, 126
1, 221987, Note_on_c, 0, 63, 0
1, 222000, Note_on_c, 0, 61, 126
1, 222167, Note_on_c, 0, 54, 0
1, 222227, Note_on_c, 0, 61, 0
1, 222240, Time_signature, 2, 2, 24, 8
1, 222240, Note_on_c, 0, 53, 126
1, 222240, Note_on_c, 0, 61, 126
1, 222695, Note_on_c, 0, 53, 0
1, 222695, Note_on_c, 0, 61, 0
1, 222696, End_track
2, 0, Start_track
2, 0, Key_signature, -5, "major"
2, 0, Key_signature, 0, "major"
2, 0, Key_signature, 0, "major"
2, 0, Key_signature, 0, "major"
2, 0, MIDI_port, 0
2, 0, Note_on_c, 0, 65, 126
2, 455, Note_on_c, 0, 65, 0
2, 480, Note_on_c, 0, 63, 126
2, 1391, Note_on_c, 0, 63, 0
2, 1440, Note_on_c, 0, 61, 126
2, 1895, Note_on_c, 0, 61, 0
2, 1920, Note_on_c, 0, 60, 126
2, 2159, Note_on_c, 0, 60, 0
2, 2880, Note_on_c, 0, 49, 126
2, 2880, Note_on_c, 0, 58, 126
2, 3119, Note_on_c, 0, 49, 0
2, 3119, Note_on_c, 0, 58, 0
2, 3360, Note_on_c, 0, 51, 126
2, 3360, Note_on_c, 0, 63, 126
2, 3599, Note_on_c, 0, 51, 0
2, 3599, Note_on_c, 0, 63, 0
2, 4320, Note_on_c, 0, 51, 126
2, 4320, Note_on_c, 0, 61, 126
2, 4559, Note_on_c, 0, 51, 0
2, 4559, Note_on_c, 0, 61, 0
2, 4800, Note_on_c, 0, 56, 126
2, 4800, Note_on_c, 0, 60, 126
2, 5039, Note_on_c, 0, 56, 0
2, 5039, Note_on_c, 0, 60, 0
2, 5760, Note_on_c, 0, 70, 126
2, 6215, Note_on_c, 0, 70, 0
2, 6240, Note_on_c, 0, 68, 126
2, 7151, Note_on_c, 0, 68, 0
2, 7200, Note_on_c, 0, 66, 126
2, 7655, Note_on_c, 0, 66, 0
2, 7680, Note_on_c, 0, 65, 126
2, 7919, Note_on_c, 0, 65, 0
2, 8640, Note_on_c, 0, 54, 126
2, 8640, Note_on_c, 0, 63, 126
2, 8879, Note_on_c, 0, 54, 0
2, 8879, Note_on_c, 0, 63, 0
2, 9120, Note_on_c, 0, 56, 126
2, 9120, Note_on_c, 0, 68, 126
2, 9359, Note_on_c, 0, 56, 0
2, 9359, Note_on_c, 0, 68, 0
2, 10080, Note_on_c, 0, 56, 126
2, 10080, Note_on_c, 0, 66, 126
2, 10319, Note_on_c, 0, 56, 0
2, 10319, Note_on_c, 0, 66, 0
2, 10560, Note_on_c, 0, 61, 126
2, 10560, Note_on_c, 0, 65, 126
2, 10799, Note_on_c, 0, 61, 0
2, 10799, Note_on_c, 0, 65, 0
2, 11520, Note_on_c, 0, 53, 126
2, 11520, Note_on_c, 0, 56, 126
2, 11975, Note_on_c, 0, 53, 0
2, 11975, Note_on_c, 0, 56, 0
2, 12000, Note_on_c, 0, 51, 126
2, 12000, Note_on_c, 0, 56, 126
2, 12911, Note_on_c, 0, 51, 0
2, 12911, Note_on_c, 0, 56, 0
2, 12960, Note_on_c, 0, 49, 126
2, 12960, Note_on_c, 0, 55, 126
2, 13415, Note_on_c, 0, 49, 0
2, 13415, Note_on_c, 0, 55, 0
2, 13440, Note_on_c, 0, 48, 126
2, 13440, Note_on_c, 0, 60, 126
2, 13895, Note_on_c, 0, 48, 0
2, 13895, Note_on_c, 0, 60, 0
2, 14400, Note_on_c, 0, 49, 126
2, 14400, Note_on_c, 0, 58, 126
2, 14855, Note_on_c, 0, 49, 0
2, 14855, Note_on_c, 0, 58, 0
2, 14880, Note_on_c, 0, 51, 126
2, 14880, Note_on_c, 0, 63, 126
2, 15335, Note_on_c, 0, 51, 0
2, 15335, Note_on_c, 0, 63, 0
2, 15840, Note_on_c, 0, 51, 126
2, 15840, Note_on_c, 0, 61, 126
2, 16295, Note_on_c, 0, 51, 0
2, 16295, Note_on_c, 0, 61, 0
2, 16320, Note_on_c, 0, 56, 126
2, 16320, Note_on_c, 0, 60, 126
2, 16775, Note_on_c, 0, 56, 0
2, 16775, Note_on_c, 0, 60, 0
2, 17280, Note_on_c, 0, 58, 126
2, 17280, Note_on_c, 0, 61, 126
2, 17735, Note_on_c, 0, 58, 0
2, 17735, Note_on_c, 0, 61, 0
2, 17760, Note_on_c, 0, 56, 126
2, 17760, Note_on_c, 0, 61, 126
2, 18671, Note_on_c, 0, 56, 0
2, 18671, Note_on_c, 0, 61, 0
2, 18720, Note_on_c, 0, 54, 126
2, 18720, Note_on_c, 0, 60, 126
2, 19175, Note_on_c, 0, 54, 0
2, 19175, Note_on_c, 0, 60, 0
2, 19200, Note_on_c, 0, 53, 126
2, 19200, Note_on_c, 0, 65, 126
2, 19655, Note_on_c, 0, 53, 0
2, 19655, Note_on_c, 0, 65, 0
2, 20160, Note_on_c, 0, 54, 126
2, 20160, Note_on_c, 0, 63, 126
2, 20615, Note_on_c, 0, 54, 0
2, 20615, Note_on_c, 0, 63, 0
2, 20640, Note_on_c, 0, 56, 126
2, 20640, Note_on_c, 0, 68, 126
2, 21095, Note_on_c, 0, 56, 0
2, 21095, Note_on_c, 0, 68, 0
2, 21600, Note_on_c, 0, 56, 126
2, 21600, Note_on_c, 0, 66, 126
2, 22055, Note_on_c, 0, 56, 0
2, 22055, Note_on_c, 0, 66, 0
2, 22080, Note_on_c, 0, 61, 126
2, 22080, Note_on_c, 0, 65, 126
2, 22535, Note_on_c, 0, 61, 0
2, 22535, Note_on_c, 0, 65, 0
2, 23040, Key_signature, -5, "major"
2, 23040, Note_on_c, 0, 65, 126
2, 23495, Note_on_c, 0, 65, 0
2, 23520, Note_on_c, 0, 63, 126
2, 24431, Note_on_c, 0, 63, 0
2, 24480, Note_on_c, 0, 61, 126
2, 24935, Note_on_c, 0, 61, 0
2, 24960, Note_on_c, 0, 60, 126
2, 25199, Note_on_c, 0, 60, 0
2, 25920, Note_on_c, 0, 49, 126
2, 25920, Note_on_c, 0, 58, 126
2, 26159, Note_on_c, 0, 49, 0
2, 26159, Note_on_c, 0, 58, 0
2, 26400, Note_on_c, 0, 51, 126
2, 26400, Note_on_c, 0, 63, 126
2, 26639, Note_on_c, 0, 51, 0
2, 26639, Note_on_c, 0, 63, 0
2, 27360, Note_on_c, 0, 51, 126
2, 27360, Note_on_c, 0, 61, 126
2, 27599, Note_on_c, 0, 51, 0
2, 27599, Note_on_c, 0, 61, 0
2, 27840, Note_on_c, 0, 56, 126
2, 27840, Note_on_c, 0, 60, 126
2, 28079, Note_on_c, 0, 56, 0
2, 28079, Note_on_c, 0, 60, 0
2, 28800, Note_on_c, 0, 70, 126
2, 29255, Note_on_c, 0, 70, 0
2, 29280, Note_on_c, 0, 68, 126
2, 30191, Note_on_c, 0, 68, 0
2, 30240, Note_on_c, 0, 66, 126
2, 30695, Note_on_c, 0, 66, 0
2, 30720, Note_on_c, 0, 65, 126
2, 30959, Note_on_c, 0, 65, 0
2, 31680, Note_on_c, 0, 54, 126
2, 31680, Note_on_c, 0, 63, 126
2, 31919, Note_on_c, 0, 54, 0
2, 31919, Note_on_c, 0, 63, 0
2, 32160, Note_on_c, 0, 56, 126
2, 32160, Note_on_c, 0, 68, 126
2, 32399, Note_on_c, 0, 56, 0
2, 32399, Note_on_c, 0, 68, 0
2, 33120, Note_on_c, 0, 56, 126
2, 33120, Note_on_c, 0, 66, 126
2, 33359, Note_on_c, 0, 56, 0
2, 33359, Note_on_c, 0, 66, 0
2, 33600, Note_on_c, 0, 61, 126
2, 33600, Note_on_c, 0, 65, 126
2, 33839, Note_on_c, 0, 61, 0
2, 33839, Note_on_c, 0, 65, 0
2, 34560, Note_on_c, 0, 53, 126
2, 34560, Note_on_c, 0, 56, 126
2, 35015, Note_on_c, 0, 53, 0
2, 35015, Note_on_c, 0, 56, 0
2, 35040, Note_on_c, 0, 51, 126
2, 35040, Note_on_c, 0, 56, 126
2, 35951, Note_on_c, 0, 51, 0
2, 35951, Note_on_c, 0, 56, 0
2, 36000, Note_on_c, 0, 49, 126
2, 36000, Note_on_c, 0, 55, 126
2, 36455, Note_on_c, 0, 49, 0
2, 36455, Note_on_c, 0, 55, 0
2, 36480, Note_on_c, 0, 48, 126
2, 36480, Note_on_c, 0, 60, 126
2, 36935, Note_on_c, 0, 48, 0
2, 36935, Note_on_c, 0, 60, 0
2, 37440, Note_on_c, 0, 49, 126
2, 37440, Note_on_c, 0, 58, 126
2, 37895, Note_on_c, 0, 49, 0
2, 37895, Note_on_c, 0, 58, 0
2, 37920, Note_on_c, 0, 51, 126
2, 37920, Note_on_c, 0, 63, 126
2, 38375, Note_on_c, 0, 51, 0
2, 38375, Note_on_c, 0, 63, 0
2, 38880, Note_on_c, 0, 51, 126
2, 38880, Note_on_c, 0, 61, 126
2, 39335, Note_on_c, 0, 51, 0
2, 39335, Note_on_c, 0, 61, 0
2, 39360, Note_on_c, 0, 56, 126
2, 39360, Note_on_c, 0, 60, 126
2, 39815, Note_on_c, 0, 56, 0
2, 39815, Note_on_c, 0, 60, 0
2, 40320, Note_on_c, 0, 58, 126
2, 40320, Note_on_c, 0, 61, 126
2, 40775, Note_on_c, 0, 58, 0
2, 40775, Note_on_c, 0, 61, 0
2, 40800, Note_on_c, 0, 56, 126
2, 40800, Note_on_c, 0, 61, 126
2, 41711, Note_on_c, 0, 56, 0
2, 41711, Note_on_c, 0, 61, 0
2, 41760, Note_on_c, 0, 54, 126
2, 41760, Note_on_c, 0, 60, 126
2, 42215, Note_on_c, 0, 54, 0
2, 42215, Note_on_c, 0, 60, 0
2, 42240, Note_on_c, 0, 53, 126
2, 42240, Note_on_c, 0, 65, 126
2, 42695, Note_on_c, 0, 53, 0
2, 42695, Note_on_c, 0, 65, 0
2, 43200, Note_on_c, 0, 54, 126
2, 43200, Note_on_c, 0, 63, 126
2, 43655, Note_on_c, 0, 54, 0
2, 43655, Note_on_c, 0, 63, 0
2, 43680, Note_on_c, 0, 56, 126
2, 43680, Note_on_c, 0, 68, 126
2, 44135, Note_on_c, 0, 56, 0
2, 44135, Note_on_c, 0, 68, 0
2, 44640, Note_on_c, 0, 56, 126
2, 44640, Note_on_c, 0, 66, 126
2, 45095, Note_on_c, 0, 56, 0
2, 45095, Note_on_c, 0, 66, 0
2, 45120, Note_on_c, 0, 61, 126
2, 45120, Note_on_c, 0, 65, 126
2, 45575, Note_on_c, 0, 61, 0
2, 45575, Note_on_c, 0, 65, 0
2, 46080, Note_on_c, 0, 61, 126
2, 46535, Note_on_c, 0, 61, 0
2, 46560, Note_on_c, 0, 58, 126
2, 47471, Note_on_c, 0, 58, 0
2, 47520, Note_on_c, 0, 56, 126
2, 47975, Note_on_c, 0, 56, 0
2, 48000, Note_on_c, 0, 55, 126
2, 48455, Note_on_c, 0, 55, 0
2, 48480, Note_on_c, 0, 56, 126
2, 48935, Note_on_c, 0, 56, 0
2, 48960, Note_on_c, 0, 56, 126
2, 49415, Note_on_c, 0, 56, 0
2, 49440, Note_on_c, 0, 56, 126
2, 50351, Note_on_c, 0, 56, 0
2, 50400, Note_on_c, 0, 54, 126
2, 50855, Note_on_c, 0, 54, 0
2, 50880, Note_on_c, 0, 53, 126
2, 51335, Note_on_c, 0, 53, 0
2, 51360, Note_on_c, 0, 54, 126
2, 51815, Note_on_c, 0, 54, 0
2, 51840, Note_on_c, 0, 54, 126
2, 52295, Note_on_c, 0, 54, 0
2, 52320, Note_on_c, 0, 51, 126
2, 52320, Note_on_c, 0, 56, 126
2, 53231, Note_on_c, 0, 51, 0
2, 53231, Note_on_c, 0, 56, 0
2, 53280, Note_on_c, 0, 49, 126
2, 53280, Note_on_c, 0, 56, 126
2, 53735, Note_on_c, 0, 49, 0
2, 53735, Note_on_c, 0, 56, 0
2, 53760, Note_on_c, 0, 48, 126
2, 53760, Note_on_c, 0, 56, 126
2, 55127, Note_on_c, 0, 48, 0
2, 55127, Note_on_c, 0, 56, 0
2, 55200, Note_on_c, 0, 56, 126
2, 55200, Note_on_c, 0, 49, 126
2, 56111, Note_on_c, 0, 56, 0
2, 56111, Note_on_c, 0, 49, 0
2, 56160, Note_on_c, 0, 54, 126
2, 56160, Note_on_c, 0, 42, 126
2, 56387, Note_on_c, 0, 54, 0
2, 56400, Note_on_c, 0, 51, 126
2, 56615, Note_on_c, 0, 42, 0
2, 56627, Note_on_c, 0, 51, 0
2, 56640, Note_on_c, 0, 44, 126
2, 56640, Note_on_c, 0, 56, 126
2, 57551, Note_on_c, 0, 44, 0
2, 57551, Note_on_c, 0, 56, 0
2, 57600, Note_on_c, 0, 53, 126
2, 57600, Note_on_c, 0, 56, 126
2, 58055, Note_on_c, 0, 53, 0
2, 58055, Note_on_c, 0, 56, 0
2, 58080, Note_on_c, 0, 51, 126
2, 58080, Note_on_c, 0, 56, 126
2, 58991, Note_on_c, 0, 51, 0
2, 58991, Note_on_c, 0, 56, 0
2, 59040, Note_on_c, 0, 49, 126
2, 59040, Note_on_c, 0, 55, 126
2, 59495, Note_on_c, 0, 49, 0
2, 59495, Note_on_c, 0, 55, 0
2, 59520, Note_on_c, 0, 48, 126
2, 59520, Note_on_c, 0, 60, 126
2, 59975, Note_on_c, 0, 48, 0
2, 59975, Note_on_c, 0, 60, 0
2, 60480, Note_on_c, 0, 49, 126
2, 60480, Note_on_c, 0, 58, 126
2, 60935, Note_on_c, 0, 49, 0
2, 60935, Note_on_c, 0, 58, 0
2, 60960, Note_on_c, 0, 51, 126
2, 60960, Note_on_c, 0, 63, 126
2, 61415, Note_on_c, 0, 51, 0
2, 61415, Note_on_c, 0, 63, 0
2, 61920, Note_on_c, 0, 49, 126
2, 61920, Note_on_c, 0, 61, 126
2, 62375, Note_on_c, 0, 49, 0
2, 62375, Note_on_c, 0, 61, 0
2, 62400, Note_on_c, 0, 56, 126
2, 62400, Note_on_c, 0, 60, 126
2, 62855, Note_on_c, 0, 56, 0
2, 62855, Note_on_c, 0, 60, 0
2, 63360, Note_on_c, 0, 58, 126
2, 63360, Note_on_c, 0, 61, 126
2, 63815, Note_on_c, 0, 58, 0
2, 63815, Note_on_c, 0, 61, 0
2, 63840, Note_on_c, 0, 56, 126
2, 63840, Note_on_c, 0, 61, 126
2, 64751, Note_on_c, 0, 56, 0
2, 64751, Note_on_c, 0, 61, 0
2, 64800, Note_on_c, 0, 54, 126
2, 64800, Note_on_c, 0, 60, 126
2, 65255, Note_on_c, 0, 54, 0
2, 65255, Note_on_c, 0, 60, 0
2, 65280, Note_on_c, 0, 53, 126
2, 65280, Note_on_c, 0, 61, 126
2, 65735, Note_on_c, 0, 53, 0
2, 65735, Note_on_c, 0, 61, 0
2, 66240, Note_on_c, 0, 58, 126
2, 66240, Note_on_c, 0, 61, 126
2, 66695, Note_on_c, 0, 58, 0
2, 66695, Note_on_c, 0, 61, 0
2, 66720, Note_on_c, 0, 56, 126
2, 66720, Note_on_c, 0, 61, 126
2, 67631, Note_on_c, 0, 56, 0
2, 67631, Note_on_c, 0, 61, 0
2, 67680, Note_on_c, 0, 54, 126
2, 67680, Note_on_c, 0, 60, 126
2, 68135, Note_on_c, 0, 54, 0
2, 68135, Note_on_c, 0, 60, 0
2, 68160, Note_on_c, 0, 53, 126
2, 68160, Note_on_c, 0, 61, 126
2, 68615, Note_on_c, 0, 53, 0
2, 68615, Note_on_c, 0, 61, 0
2, 69120, Note_on_c, 0, 58, 126
2, 69120, Note_on_c, 0, 61, 126
2, 69575, Note_on_c, 0, 58, 0
2, 69575, Note_on_c, 0, 61, 0
2, 69600, Note_on_c, 0, 56, 126
2, 69600, Note_on_c, 0, 61, 126
2, 70511, Note_on_c, 0, 56, 0
2, 70511, Note_on_c, 0, 61, 0
2, 70560, Note_on_c, 0, 55, 126
2, 70560, Note_on_c, 0, 61, 126
2, 70560, Note_on_c, 0, 64, 126
2, 71015, Note_on_c, 0, 55, 0
2, 71015, Note_on_c, 0, 61, 0
2, 71015, Note_on_c, 0, 64, 0
2, 71040, Note_on_c, 0, 56, 126
2, 71040, Note_on_c, 0, 61, 126
2, 71040, Note_on_c, 0, 65, 126
2, 71495, Note_on_c, 0, 56, 0
2, 71495, Note_on_c, 0, 61, 0
2, 71495, Note_on_c, 0, 65, 0
2, 72000, Note_on_c, 0, 32, 126
2, 72000, Note_on_c, 0, 44, 126
2, 73367, Note_on_c, 0, 32, 0
2, 73367, Note_on_c, 0, 44, 0
2, 73440, Note_on_c, 0, 37, 126
2, 73440, Note_on_c, 0, 44, 126
2, 73895, Note_on_c, 0, 37, 0
2, 73895, Note_on_c, 0, 44, 0
2, 74400, Note_on_c, 0, 61, 126
2, 74855, Note_on_c, 0, 61, 0
2, 74880, Note_on_c, 0, 58, 126
2, 75791, Note_on_c, 0, 58, 0
2, 75840, Note_on_c, 0, 56, 126
2, 76295, Note_on_c, 0, 56, 0
2, 76320, Note_on_c, 0, 55, 126
2, 76775, Note_on_c, 0, 55, 0
2, 76800, Note_on_c, 0, 56, 126
2, 77255, Note_on_c, 0, 56, 0
2, 77280, Note_on_c, 0, 56, 126
2, 77735, Note_on_c, 0, 56, 0
2, 77760, Note_on_c, 0, 56, 126
2, 78671, Note_on_c, 0, 56, 0
2, 78720, Note_on_c, 0, 54, 126
2, 79175, Note_on_c, 0, 54, 0
2, 79200, Note_on_c, 0, 53, 126
2, 79655, Note_on_c, 0, 53, 0
2, 79680, Note_on_c, 0, 54, 126
2, 80135, Note_on_c, 0, 54, 0
2, 80160, Note_on_c, 0, 54, 126
2, 80615, Note_on_c, 0, 54, 0
2, 80640, Note_on_c, 0, 51, 126
2, 80640, Note_on_c, 0, 56, 126
2, 81551, Note_on_c, 0, 51, 0
2, 81551, Note_on_c, 0, 56, 0
2, 81600, Note_on_c, 0, 49, 126
2, 81600, Note_on_c, 0, 56, 126
2, 82055, Note_on_c, 0, 49, 0
2, 82055, Note_on_c, 0, 56, 0
2, 82080, Note_on_c, 0, 48, 126
2, 82080, Note_on_c, 0, 56, 126
2, 83447, Note_on_c, 0, 48, 0
2, 83447, Note_on_c, 0, 56, 0
2, 83520, Note_on_c, 0, 56, 126
2, 83520, Note_on_c, 0, 49, 126
2, 84431, Note_on_c, 0, 56, 0
2, 84431, Note_on_c, 0, 49, 0
2, 84480, Note_on_c, 0, 54, 126
2, 84480, Note_on_c, 0, 42, 126
2, 84707, Note_on_c, 0, 54, 0
2, 84720, Note_on_c, 0, 51, 126
2, 84935, Note_on_c, 0, 42, 0
2, 84947, Note_on_c, 0, 51, 0
2, 84960, Note_on_c, 0, 44, 126
2, 84960, Note_on_c, 0, 56, 126
2, 85871, Note_on_c, 0, 44, 0
2, 85871, Note_on_c, 0, 56, 0
2, 85920, Note_on_c, 0, 53, 126
2, 85920, Note_on_c, 0, 56, 126
2, 86375, Note_on_c, 0, 53, 0
2, 86375, Note_on_c, 0, 56, 0
2, 86400, Note_on_c, 0, 51, 126
2, 86400, Note_on_c, 0, 56, 126
2, 87311, Note_on_c, 0, 51, 0
2, 87311, Note_on_c, 0, 56, 0
2, 87360, Note_on_c, 0, 49, 126
2, 87360, Note_on_c, 0, 55, 126
2, 87815, Note_on_c, 0, 49, 0
2, 87815, Note_on_c, 0, 55, 0
2, 87840, Note_on_c, 0, 48, 126
2, 87840, Note_on_c, 0, 60, 126
2, 88295, Note_on_c, 0, 48, 0
2, 88295, Note_on_c, 0, 60, 0
2, 88800, Note_on_c, 0, 49, 126
2, 88800, Note_on_c, 0, 58, 126
2, 89255, Note_on_c, 0, 49, 0
2, 89255, Note_on_c, 0, 58, 0
2, 89280, Note_on_c, 0, 51, 126
2, 89280, Note_on_c, 0, 63, 126
2, 89735, Note_on_c, 0, 51, 0
2, 89735, Note_on_c, 0, 63, 0
2, 90240, Note_on_c, 0, 49, 126
2, 90240, Note_on_c, 0, 61, 126
2, 90695, Note_on_c, 0, 49, 0
2, 90695, Note_on_c, 0, 61, 0
2, 90720, Note_on_c, 0, 56, 126
2, 90720, Note_on_c, 0, 60, 126
2, 91175, Note_on_c, 0, 56, 0
2, 91175, Note_on_c, 0, 60, 0
2, 91680, Note_on_c, 0, 58, 126
2, 91680, Note_on_c, 0, 61, 126
2, 92135, Note_on_c, 0, 58, 0
2, 92135, Note_on_c, 0, 61, 0
2, 92160, Note_on_c, 0, 56, 126
2, 92160, Note_on_c, 0, 61, 126
2, 93071, Note_on_c, 0, 56, 0
2, 93071, Note_on_c, 0, 61, 0
2, 93120, Note_on_c, 0, 54, 126
2, 93120, Note_on_c, 0, 60, 126
2, 93575, Note_on_c, 0, 54, 0
2, 93575, Note_on_c, 0, 60, 0
2, 93600, Note_on_c, 0, 53, 126
2, 93600, Note_on_c, 0, 61, 126
2, 94055, Note_on_c, 0, 53, 0
2, 94055, Note_on_c, 0, 61, 0
2, 94560, Note_on_c, 0, 58, 126
2, 94560, Note_on_c, 0, 61, 126
2, 95015, Note_on_c, 0, 58, 0
2, 95015, Note_on_c, 0, 61, 0
2, 95040, Note_on_c, 0, 56, 126
2, 95040, Note_on_c, 0, 61, 126
2, 95951, Note_on_c, 0, 56, 0
2, 95951, Note_on_c, 0, 61, 0
2, 96000, Note_on_c, 0, 54, 126
2, 96000, Note_on_c, 0, 60, 126
2, 96455, Note_on_c, 0, 54, 0
2, 96455, Note_on_c, 0, 60, 0
2, 96480, Note_on_c, 0, 53, 126
2, 96480, Note_on_c, 0, 61, 126
2, 96935, Note_on_c, 0, 53, 0
2, 96935, Note_on_c, 0, 61, 0
2, 97440, Note_on_c, 0, 58, 126
2, 97440, Note_on_c, 0, 61, 126
2, 97895, Note_on_c, 0, 58, 0
2, 97895, Note_on_c, 0, 61, 0
2, 97920, Note_on_c, 0, 56, 126
2, 97920, Note_on_c, 0, 61, 126
2, 98831, Note_on_c, 0, 56, 0
2, 98831, Note_on_c, 0, 61, 0
2, 98880, Note_on_c, 0, 55, 126
2, 98880, Note_on_c, 0, 61, 126
2, 98880, Note_on_c, 0, 64, 126
2, 99335, Note_on_c, 0, 55, 0
2, 99335, Note_on_c, 0, 61, 0
2, 99335, Note_on_c, 0, 64, 0
2, 99360, Note_on_c, 0, 56, 126
2, 99360, Note_on_c, 0, 61, 126
2, 99360, Note_on_c, 0, 65, 126
2, 99815, Note_on_c, 0, 56, 0
2, 99815, Note_on_c, 0, 61, 0
2, 99815, Note_on_c, 0, 65, 0
2, 100320, Note_on_c, 0, 32, 126
2, 100320, Note_on_c, 0, 44, 126
2, 101687, Note_on_c, 0, 32, 0
2, 101687, Note_on_c, 0, 44, 0
2, 101760, Note_on_c, 0, 37, 126
2, 101760, Note_on_c, 0, 44, 126
2, 102215, Note_on_c, 0, 37, 0
2, 102215, Note_on_c, 0, 44, 0
2, 103200, Note_on_c, 0, 44, 126
2, 103200, Note_on_c, 0, 37, 126
2, 104567, Note_on_c, 0, 37, 0
2, 104640, Note_on_c, 0, 39, 126
2, 106007, Note_on_c, 0, 39, 0
2, 106080, Note_on_c, 0, 42, 126
2, 107447, Note_on_c, 0, 42, 0
2, 107520, Note_on_c, 0, 41, 126
2, 108671, Note_on_c, 0, 44, 0
2, 108887, Note_on_c, 0, 41, 0
2, 108960, Note_on_c, 0, 44, 126
2, 108960, Note_on_c, 0, 37, 126
2, 110327, Note_on_c, 0, 37, 0
2, 110400, Note_on_c, 0, 39, 126
2, 111767, Note_on_c, 0, 39, 0
2, 111840, Note_on_c, 0, 32, 126
2, 112607, Note_on_c, 0, 44, 0
2, 112800, Note_on_c, 0, 44, 126
2, 113207, Note_on_c, 0, 32, 0
2, 113280, Note_on_c, 0, 37, 126
2, 114167, Note_on_c, 0, 44, 0
2, 114191, Note_on_c, 0, 37, 0
2, 114720, Note_on_c, 0, 44, 126
2, 114720, Note_on_c, 0, 37, 126
2, 116087, Note_on_c, 0, 37, 0
2, 116160, Note_on_c, 0, 39, 126
2, 117527, Note_on_c, 0, 39, 0
2, 117600, Note_on_c, 0, 42, 126
2, 118967, Note_on_c, 0, 42, 0
2, 119040, Note_on_c, 0, 41, 126
2, 120191, Note_on_c, 0, 44, 0
2, 120407, Note_on_c, 0, 41, 0
2, 120480, Note_on_c, 0, 44, 126
2, 120480, Note_on_c, 0, 37, 126
2, 121847, Note_on_c, 0, 37, 0
2, 121920, Note_on_c, 0, 39, 126
2, 123287, Note_on_c, 0, 39, 0
2, 123360, Note_on_c, 0, 32, 126
2, 124127, Note_on_c, 0, 44, 0
2, 124320, Note_on_c, 0, 44, 126
2, 124727, Note_on_c, 0, 32, 0
2, 124800, Note_on_c, 0, 37, 126
2, 125687, Note_on_c, 0, 44, 0
2, 125711, Note_on_c, 0, 37, 0
2, 126240, Note_on_c, 0, 50, 126
2, 126240, Note_on_c, 0, 56, 126
2, 127607, Note_on_c, 0, 50, 0
2, 127607, Note_on_c, 0, 56, 0
2, 127680, Note_on_c, 0, 49, 126
2, 127680, Note_on_c, 0, 55, 126
2, 129047, Note_on_c, 0, 49, 0
2, 129047, Note_on_c, 0, 55, 0
2, 129120, Note_on_c, 0, 48, 126
2, 129120, Note_on_c, 0, 54, 126
2, 130487, Note_on_c, 0, 48, 0
2, 130487, Note_on_c, 0, 54, 0
2, 130560, Note_on_c, 0, 47, 126
2, 130560, Note_on_c, 0, 53, 126
2, 131927, Note_on_c, 0, 47, 0
2, 131927, Note_on_c, 0, 53, 0
2, 132000, Note_on_c, 0, 49, 126
2, 132000, Note_on_c, 0, 46, 126
2, 133367, Note_on_c, 0, 46, 0
2, 133440, Note_on_c, 0, 44, 126
2, 134807, Note_on_c, 0, 44, 0
2, 134880, Note_on_c, 0, 37, 126
2, 135335, Note_on_c, 0, 37, 0
2, 135360, Note_on_c, 0, 41, 126
2, 135815, Note_on_c, 0, 41, 0
2, 135840, Note_on_c, 0, 44, 126
2, 136103, Note_on_c, 0, 49, 0
2, 136295, Note_on_c, 0, 44, 0
2, 136320, Note_on_c, 0, 49, 126
2, 136320, Note_on_c, 0, 42, 126
2, 137687, Note_on_c, 0, 42, 0
2, 137760, Note_on_c, 0, 46, 126
2, 139127, Note_on_c, 0, 46, 0
2, 139200, Note_on_c, 0, 44, 126
2, 140567, Note_on_c, 0, 44, 0
2, 140640, Note_on_c, 0, 43, 126
2, 142007, Note_on_c, 0, 43, 0
2, 142080, Note_on_c, 0, 44, 126
2, 143447, Note_on_c, 0, 44, 0
2, 143520, Note_on_c, 0, 46, 126
2, 144527, Note_on_c, 0, 49, 0
2, 144887, Note_on_c, 0, 46, 0
2, 144960, Note_on_c, 0, 49, 126
2, 144960, Note_on_c, 0, 44, 126
2, 146327, Note_on_c, 0, 49, 0
2, 146400, Note_on_c, 0, 32, 126
2, 147239, Note_on_c, 0, 44, 0
2, 147311, Note_on_c, 0, 32, 0
2, 147360, Note_on_c, 0, 44, 126
2, 147815, Note_on_c, 0, 44, 0
2, 147840, Note_on_c, 0, 37, 126
2, 148295, Note_on_c, 0, 37, 0
2, 149280, Note_on_c, 0, 50, 126
2, 149280, Note_on_c, 0, 56, 126
2, 150647, Note_on_c, 0, 50, 0
2, 150647, Note_on_c, 0, 56, 0
2, 150720, Note_on_c, 0, 49, 126
2, 150720, Note_on_c, 0, 55, 126
2, 152087, Note_on_c, 0, 49, 0
2, 152087, Note_on_c, 0, 55, 0
2, 152160, Note_on_c, 0, 48, 126
2, 152160, Note_on_c, 0, 54, 126
2, 153527, Note_on_c, 0, 48, 0
2, 153527, Note_on_c, 0, 54, 0
2, 153600, Note_on_c, 0, 47, 126
2, 153600, Note_on_c, 0, 53, 126
2, 154967, Note_on_c, 0, 47, 0
2, 154967, Note_on_c, 0, 53, 0
2, 155040, Note_on_c, 0, 49, 126
2, 155040, Note_on_c, 0, 46, 126
2, 156407, Note_on_c, 0, 46, 0
2, 156480, Note_on_c, 0, 44, 126
2, 157847, Note_on_c, 0, 44, 0
2, 157920, Note_on_c, 0, 37, 126
2, 158375, Note_on_c, 0, 37, 0
2, 158400, Note_on_c, 0, 41, 126
2, 158855, Note_on_c, 0, 41, 0
2, 158880, Note_on_c, 0, 44, 126
2, 159143, Note_on_c, 0, 49, 0
2, 159335, Note_on_c, 0, 44, 0
2, 159360, Note_on_c, 0, 49, 126
2, 159360, Note_on_c, 0, 42, 126
2, 160727, Note_on_c, 0, 42, 0
2, 160800, Note_on_c, 0, 46, 126
2, 162167, Note_on_c, 0, 46, 0
2, 162240, Note_on_c, 0, 44, 126
2, 163607, Note_on_c, 0, 44, 0
2, 163680, Note_on_c, 0, 43, 126
2, 165047, Note_on_c, 0, 43, 0
2, 165120, Note_on_c, 0, 44, 126
2, 166487, Note_on_c, 0, 44, 0
2, 166560, Note_on_c, 0, 46, 126
2, 167567, Note_on_c, 0, 49, 0
2, 167927, Note_on_c, 0, 46, 0
2, 168000, Note_on_c, 0, 49, 126
2, 168000, Note_on_c, 0, 44, 126
2, 169367, Note_on_c, 0, 49, 0
2, 169440, Note_on_c, 0, 32, 126
2, 170279, Note_on_c, 0, 44, 0
2, 170351, Note_on_c, 0, 32, 0
2, 170400, Note_on_c, 0, 44, 126
2, 170855, Note_on_c, 0, 44, 0
2, 170880, Note_on_c, 0, 37, 126
2, 171335, Note_on_c, 0, 37, 0
2, 171840, Key_signature, -5, "major"
2, 171840, Note_on_c, 0, 65, 126
2, 172295, Note_on_c, 0, 65, 0
2, 172320, Note_on_c, 0, 63, 126
2, 173231, Note_on_c, 0, 63, 0
2, 173280, Note_on_c, 0, 61, 126
2, 173735, Note_on_c, 0, 61, 0
2, 173760, Note_on_c, 0, 60, 126
2, 173999, Note_on_c, 0, 60, 0
2, 174720, Note_on_c, 0, 49, 126
2, 174720, Note_on_c, 0, 58, 126
2, 174959, Note_on_c, 0, 49, 0
2, 174959, Note_on_c, 0, 58, 0
2, 175200, Note_on_c, 0, 51, 126
2, 175200, Note_on_c, 0, 63, 126
2, 175439, Note_on_c, 0, 51, 0
2, 175439, Note_on_c, 0, 63, 0
2, 176160, Note_on_c, 0, 51, 126
2, 176160, Note_on_c, 0, 61, 126
2, 176399, Note_on_c, 0, 51, 0
2, 176399, Note_on_c, 0, 61, 0
2, 176640, Note_on_c, 0, 56, 126
2, 176640, Note_on_c, 0, 60, 126
2, 176879, Note_on_c, 0, 56, 0
2, 176879, Note_on_c, 0, 60, 0
2, 177600, Note_on_c, 0, 70, 126
2, 178055, Note_on_c, 0, 70, 0
2, 178080, Note_on_c, 0, 68, 126
2, 178991, Note_on_c, 0, 68, 0
2, 179040, Note_on_c, 0, 66, 126
2, 179495, Note_on_c, 0, 66, 0
2, 179520, Note_on_c, 0, 65, 126
2, 179759, Note_on_c, 0, 65, 0
2, 180480, Note_on_c, 0, 54, 126
2, 180480, Note_on_c, 0, 63, 126
2, 180719, Note_on_c, 0, 54, 0
2, 180719, Note_on_c, 0, 63, 0
2, 180960, Note_on_c, 0, 56, 126
2, 180960, Note_on_c, 0, 68, 126
2, 181199, Note_on_c, 0, 56, 0
2, 181199, Note_on_c, 0, 68, 0
2, 181920, Note_on_c, 0, 56, 126
2, 181920, Note_on_c, 0, 66, 126
2, 182159, Note_on_c, 0, 56, 0
2, 182159, Note_on_c, 0, 66, 0
2, 182400, Note_on_c, 0, 61, 126
2, 182400, Note_on_c, 0, 65, 126
2, 182639, Note_on_c, 0, 61, 0
2, 182639, Note_on_c, 0, 65, 0
2, 183360, Note_on_c, 0, 53, 126
2, 183360, Note_on_c, 0, 56, 126
2, 183815, Note_on_c, 0, 53, 0
2, 183815, Note_on_c, 0, 56, 0
2, 183840, Note_on_c, 0, 51, 126
2, 183840, Note_on_c, 0, 56, 126
2, 184751, Note_on_c, 0, 51, 0
2, 184751, Note_on_c, 0, 56, 0
2, 184800, Note_on_c, 0, 49, 126
2, 184800, Note_on_c, 0, 55, 126
2, 185255, Note_on_c, 0, 49, 0
2, 185255, Note_on_c, 0, 55, 0
2, 185280, Note_on_c, 0, 48, 126
2, 185280, Note_on_c, 0, 60, 126
2, 185735, Note_on_c, 0, 48, 0
2, 185735, Note_on_c, 0, 60, 0
2, 186240, Note_on_c, 0, 49, 126
2, 186240, Note_on_c, 0, 58, 126
2, 186695, Note_on_c, 0, 49, 0
2, 186695, Note_on_c, 0, 58, 0
2, 186720, Note_on_c, 0, 51, 126
2, 186720, Note_on_c, 0, 63, 126
2, 187175, Note_on_c, 0, 51, 0
2, 187175, Note_on_c, 0, 63, 0
2, 187680, Note_on_c, 0, 51, 126
2, 187680, Note_on_c, 0, 61, 126
2, 188135, Note_on_c, 0, 51, 0
2, 188135, Note_on_c, 0, 61, 0
2, 188160, Note_on_c, 0, 56, 126
2, 188160, Note_on_c, 0, 60, 126
2, 188615, Note_on_c, 0, 56, 0
2, 188615, Note_on_c, 0, 60, 0
2, 189120, Note_on_c, 0, 58, 126
2, 189120, Note_on_c, 0, 61, 126
2, 189575, Note_on_c, 0, 58, 0
2, 189575, Note_on_c, 0, 61, 0
2, 189600, Note_on_c, 0, 56, 126
2, 189600, Note_on_c, 0, 61, 126
2, 190511, Note_on_c, 0, 56, 0
2, 190511, Note_on_c, 0, 61, 0
2, 190560, Note_on_c, 0, 54, 126
2, 190560, Note_on_c, 0, 60, 126
2, 191015, Note_on_c, 0, 54, 0
2, 191015, Note_on_c, 0, 60, 0
2, 191040, Note_on_c, 0, 53, 126
2, 191040, Note_on_c, 0, 65, 126
2, 191495, Note_on_c, 0, 53, 0
2, 191495, Note_on_c, 0, 65, 0
2, 192000, Note_on_c, 0, 54, 126
2, 192000, Note_on_c, 0, 63, 126
2, 192455, Note_on_c, 0, 54, 0
2, 192455, Note_on_c, 0, 63, 0
2, 192480, Note_on_c, 0, 56, 126
2, 192480, Note_on_c, 0, 68, 126
2, 192935, Note_on_c, 0, 56, 0
2, 192935, Note_on_c, 0, 68, 0
2, 193440, Note_on_c, 0, 56, 126
2, 193440, Note_on_c, 0, 66, 126
2, 193895, Note_on_c, 0, 56, 0
2, 193895, Note_on_c, 0, 66, 0
2, 193920, Note_on_c, 0, 61, 126
2, 193920, Note_on_c, 0, 65, 126
2, 194375, Note_on_c, 0, 61, 0
2, 194375, Note_on_c, 0, 65, 0
2, 194880, Note_on_c, 0, 61, 126
2, 195335, Note_on_c, 0, 61, 0
2, 195360, Note_on_c, 0, 58, 126
2, 196271, Note_on_c, 0, 58, 0
2, 196320, Note_on_c, 0, 56, 126
2, 196775, Note_on_c, 0, 56, 0
2, 196800, Note_on_c, 0, 55, 126
2, 197255, Note_on_c, 0, 55, 0
2, 197280, Note_on_c, 0, 56, 126
2, 197735, Note_on_c, 0, 56, 0
2, 197760, Note_on_c, 0, 56, 126
2, 198215, Note_on_c, 0, 56, 0
2, 198240, Note_on_c, 0, 56, 126
2, 199151, Note_on_c, 0, 56, 0
2, 199200, Note_on_c, 0, 54, 126
2, 199655, Note_on_c, 0, 54, 0
2, 199680, Note_on_c, 0, 53, 126
2, 200135, Note_on_c, 0, 53, 0
2, 200160, Note_on_c, 0, 54, 126
2, 200615, Note_on_c, 0, 54, 0
2, 200640, Note_on_c, 0, 54, 126
2, 201095, Note_on_c, 0, 54, 0
2, 201120, Note_on_c, 0, 51, 126
2, 201120, Note_on_c, 0, 56, 126
2, 202031, Note_on_c, 0, 51, 0
2, 202031, Note_on_c, 0, 56, 0
2, 202080, Note_on_c, 0, 49, 126
2, 202080, Note_on_c, 0, 56, 126
2, 202535, Note_on_c, 0, 49, 0
2, 202535, Note_on_c, 0, 56, 0
2, 202560, Note_on_c, 0, 48, 126
2, 202560, Note_on_c, 0, 56, 126
2, 203927, Note_on_c, 0, 48, 0
2, 203927, Note_on_c, 0, 56, 0
2, 204000, Note_on_c, 0, 56, 126
2, 204000, Note_on_c, 0, 49, 126
2, 204911, Note_on_c, 0, 56, 0
2, 204911, Note_on_c, 0, 49, 0
2, 204960, Note_on_c, 0, 54, 126
2, 204960, Note_on_c, 0, 42, 126
2, 205187, Note_on_c, 0, 54, 0
2, 205200, Note_on_c, 0, 51, 126
2, 205415, Note_on_c, 0, 42, 0
2, 205427, Note_on_c, 0, 51, 0
2, 205440, Note_on_c, 0, 44, 126
2, 205440, Note_on_c, 0, 56, 126
2, 206351, Note_on_c, 0, 44, 0
2, 206351, Note_on_c, 0, 56, 0
2, 206400, Note_on_c, 0, 53, 126
2, 206400, Note_on_c, 0, 56, 126
2, 206855, Note_on_c, 0, 53, 0
2, 206855, Note_on_c, 0, 56, 0
2, 206880, Note_on_c, 0, 51, 126
2, 206880, Note_on_c, 0, 56, 126
2, 207791, Note_on_c, 0, 51, 0
2, 207791, Note_on_c, 0, 56, 0
2, 207840, Note_on_c, 0, 49, 126
2, 207840, Note_on_c, 0, 55, 126
2, 208295, Note_on_c, 0, 49, 0
2, 208295, Note_on_c, 0, 55, 0
2, 208320, Note_on_c, 0, 48, 126
2, 208320, Note_on_c, 0, 60, 126
2, 208775, Note_on_c, 0, 48, 0
2, 208775, Note_on_c, 0, 60, 0
2, 209280, Note_on_c, 0, 49, 126
2, 209280, Note_on_c, 0, 58, 126
2, 209735, Note_on_c, 0, 49, 0
2, 209735, Note_on_c, 0, 58, 0
2, 209760, Note_on_c, 0, 51, 126
2, 209760, Note_on_c, 0, 63, 126
2, 210215, Note_on_c, 0, 51, 0
2, 210215, Note_on_c, 0, 63, 0
2, 210720, Note_on_c, 0, 49, 126
2, 210720, Note_on_c, 0, 61, 126
2, 211175, Note_on_c, 0, 49, 0
2, 211175, Note_on_c, 0, 61, 0
2, 211200, Note_on_c, 0, 56, 126
2, 211200, Note_on_c, 0, 60, 126
2, 211655, Note_on_c, 0, 56, 0
2, 211655, Note_on_c, 0, 60, 0
2, 212160, Note_on_c, 0, 58, 126
2, 212160, Note_on_c, 0, 61, 126
2, 212615, Note_on_c, 0, 58, 0
2, 212615, Note_on_c, 0, 61, 0
2, 212640, Note_on_c, 0, 56, 126
2, 212640, Note_on_c, 0, 61, 126
2, 213551, Note_on_c, 0, 56, 0
2, 213551, Note_on_c, 0, 61, 0
2, 213600, Note_on_c, 0, 54, 126
2, 213600, Note_on_c, 0, 60, 126
2, 214055, Note_on_c, 0, 54, 0
2, 214055, Note_on_c, 0, 60, 0
2, 214080, Note_on_c, 0, 53, 126
2, 214080, Note_on_c, 0, 61, 126
2, 214535, Note_on_c, 0, 53, 0
2, 214535, Note_on_c, 0, 61, 0
2, 215040, Note_on_c, 0, 58, 126
2, 215040, Note_on_c, 0, 61, 126
2, 215495, Note_on_c, 0, 58, 0
2, 215495, Note_on_c, 0, 61, 0
2, 215520, Note_on_c, 0, 56, 126
2, 215520, Note_on_c, 0, 61, 126
2, 216431, Note_on_c, 0, 56, 0
2, 216431, Note_on_c, 0, 61, 0
2, 216480, Note_on_c, 0, 54, 126
2, 216480, Note_on_c, 0, 60, 126
2, 216935, Note_on_c, 0, 54, 0
2, 216935, Note_on_c, 0, 60, 0
2, 216960, Note_on_c, 0, 53, 126
2, 216960, Note_on_c, 0, 61, 126
2, 217415, Note_on_c, 0, 53, 0
2, 217415, Note_on_c, 0, 61, 0
2, 217920, Note_on_c, 0, 58, 126
2, 217920, Note_on_c, 0, 61, 126
2, 218375, Note_on_c, 0, 58, 0
2, 218375, Note_on_c, 0, 61, 0
2, 218400, Note_on_c, 0, 56, 126
2, 218400, Note_on_c, 0, 61, 126
2, 219311, Note_on_c, 0, 56, 0
2, 219311, Note_on_c, 0, 61, 0
2, 219360, Note_on_c, 0, 55, 126
2, 219360, Note_on_c, 0, 61, 126
2, 219360, Note_on_c, 0, 64, 126
2, 219815, Note_on_c, 0, 55, 0
2, 219815, Note_on_c, 0, 61, 0
2, 219815, Note_on_c, 0, 64, 0
2, 219840, Note_on_c, 0, 56, 126
2, 219840, Note_on_c, 0, 61, 126
2, 219840, Note_on_c, 0, 65, 126
2, 220295, Note_on_c, 0, 56, 0
2, 220295, Note_on_c, 0, 61, 0
2, 220295, Note_on_c, 0, 65, 0
2, 220800, Note_on_c, 0, 32, 126
2, 220800, Note_on_c, 0, 44, 126
2, 222167, Note_on_c, 0, 32, 0
2, 222167, Note_on_c, 0, 44, 0
2, 222240, Note_on_c, 0, 37, 126
2, 222240, Note_on_c, 0, 44, 126
2, 222695, Note_on_c, 0, 37, 0
2, 222695, Note_on_c, 0, 44, 0
2, 222696, End_track
0, 0, End_of_file
