0, 0, Header, 1, 2, 480
1, 0, Start_track
1, 0, Unknown_meta_event, 8, 15, 83, 121, 109, 112, 104, 111, 110, 121, 32, 78, 111, 46, 32, 53, 0
1, 0, Unknown_meta_event, 9, 8, 67, 32, 109, 105, 110, 111, 114, 0
1, 0, Unknown_meta_event, 10, 21, 76, 117, 100, 119, 105, 103, 32, 118, 97, 110, 32, 66, 101, 101, 116, 104, 111, 118, 101, 110, 0
1, 0, Time_signature, 2, 2, 24, 8
1, 0, Key_signature, -3, "major"
1, 0, Program_c, 0, 0
1, 2, Control_c, 0, 7, 100
1, 4, Control_c, 0, 10, 64
1, 6, Control_c, 0, 91, 30
1, 8, Control_c, 0, 93, 30
1, 240, Tempo, 454545
1, 240, Note_on_c, 0, 67, 80
1, 240, Note_on_c, 0, 55, 80
1, 479, Note_on_c, 0, 67, 0
1, 479, Note_on_c, 0, 55, 0
1, 480, Note_on_c, 0, 67, 80
1, 480, Note_on_c, 0, 55, 80
1, 719, Note_on_c, 0, 67, 0
1, 719, Note_on_c, 0, 55, 0
1, 720, Note_on_c, 0, 67, 80
1, 720, Note_on_c, 0, 55, 80
1, 959, Note_on_c, 0, 67, 0
1, 959, Note_on_c, 0, 55, 0
1, 960, Note_on_c, 0, 63, 80
1, 1919, Note_on_c, 0, 63, 0
1, 2160, Note_on_c, 0, 65, 80
1, 2160, Note_on_c, 0, 53, 80
1, 2399, Note_on_c, 0, 65, 0
1, 2399, Note_on_c, 0, 53, 0
1, 2400, Note_on_c, 0, 65, 80
1, 2400, Note_on_c, 0, 53, 80
1, 2639, Note_on_c, 0, 65, 0
1, 2639, Note_on_c, 0, 53, 0
1, 2640, Note_on_c, 0, 65, 80
1, 2640, Note_on_c, 0, 53, 80
1, 2879, Note_on_c, 0, 65, 0
1, 2879, Note_on_c, 0, 53, 0
1, 2880, Note_on_c, 0, 62, 80
1, 4799, Note_on_c, 0, 62, 0
1, 5040, Note_on_c, 0, 67, 80
1, 5279, Note_on_c, 0, 67, 0
1, 5280, Note_on_c, 0, 67, 80
1, 5519, Note_on_c, 0, 67, 0
1, 5520, Note_on_c, 0, 67, 80
1, 5759, Note_on_c, 0, 67, 0
1, 6000, Note_on_c, 0, 68, 80
1, 6239, Note_on_c, 0, 68, 0
1, 6240, Note_on_c, 0, 68, 80
1, 6479, Note_on_c, 0, 68, 0
1, 6480, Note_on_c, 0, 68, 80
1, 6719, Note_on_c, 0, 68, 0
1, 6720, Note_on_c, 0, 67, 80
1, 6960, Note_on_c, 0, 75, 80
1, 7199, Note_on_c, 0, 75, 0
1, 7200, Note_on_c, 0, 75, 80
1, 7439, Note_on_c, 0, 75, 0
1, 7440, Note_on_c, 0, 75, 80
1, 7679, Note_on_c, 0, 75, 0
1, 7680, Note_on_c, 0, 72, 80
1, 8879, Note_on_c, 0, 67, 0
1, 8880, Note_on_c, 0, 67, 80
1, 9119, Note_on_c, 0, 67, 0
1, 9119, Note_on_c, 0, 72, 0
1, 9120, Note_on_c, 0, 67, 80
1, 9359, Note_on_c, 0, 67, 0
1, 9360, Note_on_c, 0, 67, 80
1, 9599, Note_on_c, 0, 67, 0
1, 9840, Note_on_c, 0, 68, 80
1, 10079, Note_on_c, 0, 68, 0
1, 10080, Note_on_c, 0, 68, 80
1, 10319, Note_on_c, 0, 68, 0
1, 10320, Note_on_c, 0, 68, 80
1, 10559, Note_on_c, 0, 68, 0
1, 10560, Note_on_c, 0, 67, 80
1, 10800, Note_on_c, 0, 77, 80
1, 11039, Note_on_c, 0, 77, 0
1, 11040, Note_on_c, 0, 77, 80
1, 11279, Note_on_c, 0, 77, 0
1, 11280, Note_on_c, 0, 77, 80
1, 11519, Note_on_c, 0, 77, 0
1, 11520, Note_on_c, 0, 74, 80
1, 12719, Note_on_c, 0, 74, 0
1, 12720, Note_on_c, 0, 79, 80
1, 12959, Note_on_c, 0, 79, 0
1, 12960, Note_on_c, 0, 79, 80
1, 13199, Note_on_c, 0, 79, 0
1, 13200, Note_on_c, 0, 77, 80
1, 13439, Note_on_c, 0, 77, 0
1, 13439, Note_on_c, 0, 67, 0
1, 13440, Note_on_c, 0, 75, 80
1, 14399, Note_on_c, 0, 75, 0
1, 14400, Note_on_c, 0, 74, 80
1, 14639, Note_on_c, 0, 74, 0
1, 14640, Note_on_c, 0, 79, 80
1, 14879, Note_on_c, 0, 79, 0
1, 14880, Note_on_c, 0, 79, 80
1, 15119, Note_on_c, 0, 79, 0
1, 15120, Note_on_c, 0, 77, 80
1, 15359, Note_on_c, 0, 77, 0
1, 15360, Note_on_c, 0, 75, 80
1, 16319, Note_on_c, 0, 75, 0
1, 16320, Note_on_c, 0, 74, 80
1, 16559, Note_on_c, 0, 74, 0
1, 16560, Note_on_c, 0, 79, 80
1, 16560, Note_on_c, 0, 74, 80
1, 16560, Note_on_c, 0, 67, 80
1, 16799, Note_on_c, 0, 79, 0
1, 16799, Note_on_c, 0, 74, 0
1, 16799, Note_on_c, 0, 67, 0
1, 16800, Note_on_c, 0, 79, 80
1, 16800, Note_on_c, 0, 74, 80
1, 16800, Note_on_c, 0, 67, 80
1, 17039, Note_on_c, 0, 79, 0
1, 17039, Note_on_c, 0, 74, 0
1, 17039, Note_on_c, 0, 67, 0
1, 17040, Note_on_c, 0, 77, 80
1, 17040, Note_on_c, 0, 74, 80
1, 17040, Note_on_c, 0, 67, 80
1, 17279, Note_on_c, 0, 77, 0
1, 17279, Note_on_c, 0, 74, 0
1, 17279, Note_on_c, 0, 67, 0
1, 17280, Note_on_c, 0, 75, 96
1, 17280, Note_on_c, 0, 72, 96
1, 17280, Note_on_c, 0, 67, 96
1, 17759, Note_on_c, 0, 75, 0
1, 17759, Note_on_c, 0, 72, 0
1, 17759, Note_on_c, 0, 67, 0
1, 18240, Note_on_c, 0, 72, 96
1, 18240, Note_on_c, 0, 66, 96
1, 18240, Note_on_c, 0, 60, 96
1, 18719, Note_on_c, 0, 72, 0
1, 18719, Note_on_c, 0, 66, 0
1, 18719, Note_on_c, 0, 60, 0
1, 19200, Note_on_c, 0, 79, 96
1, 19200, Note_on_c, 0, 71, 96
1, 19200, Note_on_c, 0, 67, 96
1, 19679, Note_on_c, 0, 71, 0
1, 19679, Note_on_c, 0, 67, 0
1, 20159, Note_on_c, 0, 79, 0
1, 20400, Note_on_c, 0, 80, 96
1, 20400, Note_on_c, 0, 68, 96
1, 20639, Note_on_c, 0, 80, 0
1, 20639, Note_on_c, 0, 68, 0
1, 20640, Note_on_c, 0, 80, 96
1, 20640, Note_on_c, 0, 68, 96
1, 20879, Note_on_c, 0, 80, 0
1, 20879, Note_on_c, 0, 68, 0
1, 20880, Note_on_c, 0, 80, 96
1, 20880, Note_on_c, 0, 68, 96
1, 21119, Note_on_c, 0, 80, 0
1, 21119, Note_on_c, 0, 68, 0
1, 21120, Note_on_c, 0, 77, 96
1, 21120, Note_on_c, 0, 65, 96
1, 23039, Note_on_c, 0, 77, 0
1, 23039, Note_on_c, 0, 65, 0
1, 23280, Note_on_c, 0, 68, 96
1, 23519, Note_on_c, 0, 68, 0
1, 23520, Note_on_c, 0, 68, 96
1, 23759, Note_on_c, 0, 68, 0
1, 23760, Note_on_c, 0, 68, 96
1, 23999, Note_on_c, 0, 68, 0
1, 24000, Note_on_c, 0, 65, 96
1, 24240, Note_on_c, 0, 62, 96
1, 24479, Note_on_c, 0, 62, 0
1, 24480, Note_on_c, 0, 62, 96
1, 24719, Note_on_c, 0, 62, 0
1, 24720, Note_on_c, 0, 62, 96
1, 24959, Note_on_c, 0, 62, 0
1, 24960, Note_on_c, 0, 59, 96
1, 26879, Note_on_c, 0, 59, 0
1, 26879, Note_on_c, 0, 65, 0
1, 26880, Note_on_c, 0, 60, 96
1, 26880, Note_on_c, 0, 63, 96
1, 27119, Note_on_c, 0, 63, 0
1, 27120, Note_on_c, 0, 68, 96
1, 27359, Note_on_c, 0, 60, 0
1, 27359, Note_on_c, 0, 68, 0
1, 27360, Note_on_c, 0, 68, 96
1, 27599, Note_on_c, 0, 68, 0
1, 27600, Note_on_c, 0, 68, 96
1, 27839, Note_on_c, 0, 68, 0
1, 27840, Note_on_c, 0, 65, 96
1, 28080, Note_on_c, 0, 62, 96
1, 28319, Note_on_c, 0, 62, 0
1, 28320, Note_on_c, 0, 62, 96
1, 28559, Note_on_c, 0, 62, 0
1, 28560, Note_on_c, 0, 62, 96
1, 28799, Note_on_c, 0, 62, 0
1, 28800, Note_on_c, 0, 59, 96
1, 29999, Note_on_c, 0, 59, 0
1, 29999, Note_on_c, 0, 65, 0
1, 30000, Note_on_c, 0, 77, 96
1, 30000, Note_on_c, 0, 74, 96
1, 30239, Note_on_c, 0, 77, 0
1, 30239, Note_on_c, 0, 74, 0
1, 30240, Note_on_c, 0, 77, 96
1, 30240, Note_on_c, 0, 74, 96
1, 30479, Note_on_c, 0, 77, 0
1, 30479, Note_on_c, 0, 74, 0
1, 30480, Note_on_c, 0, 77, 96
1, 30480, Note_on_c, 0, 74, 96
1, 30719, Note_on_c, 0, 77, 0
1, 30719, Note_on_c, 0, 74, 0
1, 30720, Note_on_c, 0, 75, 96
1, 30720, Note_on_c, 0, 72, 96
1, 30959, Note_on_c, 0, 75, 0
1, 30959, Note_on_c, 0, 72, 0
1, 30960, Note_on_c, 0, 67, 96
1, 30960, Note_on_c, 0, 63, 96
1, 31199, Note_on_c, 0, 67, 0
1, 31199, Note_on_c, 0, 63, 0
1, 31200, Note_on_c, 0, 72, 96
1, 31200, Note_on_c, 0, 67, 96
1, 31200, Note_on_c, 0, 63, 96
1, 31439, Note_on_c, 0, 72, 0
1, 31439, Note_on_c, 0, 67, 0
1, 31439, Note_on_c, 0, 63, 0
1, 31440, Note_on_c, 0, 72, 96
1, 31440, Note_on_c, 0, 63, 96
1, 31679, Note_on_c, 0, 72, 0
1, 31679, Note_on_c, 0, 63, 0
1, 31680, Note_on_c, 0, 72, 96
1, 31680, Note_on_c, 0, 68, 96
1, 31680, Note_on_c, 0, 65, 96
1, 31680, Note_on_c, 0, 62, 96
1, 32879, Note_on_c, 0, 72, 0
1, 32879, Note_on_c, 0, 68, 0
1, 32879, Note_on_c, 0, 65, 0
1, 32879, Note_on_c, 0, 62, 0
1, 32880, Note_on_c, 0, 70, 96
1, 32880, Note_on_c, 0, 68, 96
1, 32880, Note_on_c, 0, 65, 96
1, 33119, Note_on_c, 0, 70, 0
1, 33119, Note_on_c, 0, 68, 0
1, 33119, Note_on_c, 0, 65, 0
1, 33120, Note_on_c, 0, 70, 96
1, 33120, Note_on_c, 0, 68, 96
1, 33120, Note_on_c, 0, 65, 96
1, 33359, Note_on_c, 0, 70, 0
1, 33359, Note_on_c, 0, 68, 0
1, 33359, Note_on_c, 0, 65, 0
1, 33360, Note_on_c, 0, 74, 96
1, 33360, Note_on_c, 0, 65, 96
1, 33599, Note_on_c, 0, 74, 0
1, 33599, Note_on_c, 0, 65, 0
1, 33600, Note_on_c, 0, 74, 96
1, 33600, Note_on_c, 0, 67, 96
1, 33600, Note_on_c, 0, 63, 96
1, 34799, Note_on_c, 0, 74, 0
1, 34799, Note_on_c, 0, 67, 0
1, 34799, Note_on_c, 0, 63, 0
1, 34800, Note_on_c, 0, 72, 96
1, 34800, Note_on_c, 0, 67, 96
1, 34800, Note_on_c, 0, 63, 96
1, 35039, Note_on_c, 0, 72, 0
1, 35039, Note_on_c, 0, 67, 0
1, 35039, Note_on_c, 0, 63, 0
1, 35040, Note_on_c, 0, 72, 96
1, 35040, Note_on_c, 0, 67, 96
1, 35040, Note_on_c, 0, 63, 96
1, 35279, Note_on_c, 0, 72, 0
1, 35279, Note_on_c, 0, 67, 0
1, 35279, Note_on_c, 0, 63, 0
1, 35280, Note_on_c, 0, 75, 96
1, 35519, Note_on_c, 0, 75, 0
1, 35520, Note_on_c, 0, 75, 96
1, 35520, Note_on_c, 0, 68, 96
1, 35520, Note_on_c, 0, 65, 96
1, 35759, Note_on_c, 0, 75, 0
1, 35759, Note_on_c, 0, 68, 0
1, 35759, Note_on_c, 0, 65, 0
1, 35760, Note_on_c, 0, 74, 96
1, 35999, Note_on_c, 0, 74, 0
1, 36000, Note_on_c, 0, 74, 96
1, 36119, Note_on_c, 0, 74, 0
1, 36240, Note_on_c, 0, 77, 96
1, 36359, Note_on_c, 0, 77, 0
1, 36480, Note_on_c, 0, 77, 96
1, 36480, Note_on_c, 0, 68, 96
1, 36480, Note_on_c, 0, 65, 96
1, 36719, Note_on_c, 0, 77, 0
1, 36719, Note_on_c, 0, 68, 0
1, 36719, Note_on_c, 0, 65, 0
1, 36720, Note_on_c, 0, 76, 96
1, 36959, Note_on_c, 0, 76, 0
1, 36960, Note_on_c, 0, 76, 96
1, 37079, Note_on_c, 0, 76, 0
1, 37200, Note_on_c, 0, 79, 96
1, 37319, Note_on_c, 0, 79, 0
1, 37440, Note_on_c, 0, 79, 96
1, 37440, Note_on_c, 0, 72, 96
1, 37440, Note_on_c, 0, 68, 96
1, 37679, Note_on_c, 0, 79, 0
1, 37679, Note_on_c, 0, 72, 0
1, 37679, Note_on_c, 0, 68, 0
1, 37680, Note_on_c, 0, 77, 96
1, 37919, Note_on_c, 0, 77, 0
1, 37920, Note_on_c, 0, 77, 96
1, 38039, Note_on_c, 0, 77, 0
1, 38160, Note_on_c, 0, 80, 96
1, 38279, Note_on_c, 0, 80, 0
1, 38400, Note_on_c, 0, 80, 96
1, 38400, Note_on_c, 0, 76, 96
1, 38400, Note_on_c, 0, 70, 96
1, 38639, Note_on_c, 0, 80, 0
1, 38639, Note_on_c, 0, 76, 0
1, 38639, Note_on_c, 0, 70, 0
1, 38640, Note_on_c, 0, 79, 96
1, 38879, Note_on_c, 0, 79, 0
1, 38880, Note_on_c, 0, 79, 96
1, 38999, Note_on_c, 0, 79, 0
1, 39120, Note_on_c, 0, 82, 96
1, 39239, Note_on_c, 0, 82, 0
1, 39360, Note_on_c, 0, 82, 96
1, 39360, Note_on_c, 0, 77, 96
1, 39599, Note_on_c, 0, 82, 0
1, 39599, Note_on_c, 0, 77, 0
1, 39600, Note_on_c, 0, 80, 96
1, 39839, Note_on_c, 0, 80, 0
1, 39840, Note_on_c, 0, 80, 96
1, 39959, Note_on_c, 0, 80, 0
1, 40080, Note_on_c, 0, 84, 96
1, 40199, Note_on_c, 0, 84, 0
1, 40320, Note_on_c, 0, 84, 96
1, 40320, Note_on_c, 0, 80, 96
1, 40320, Note_on_c, 0, 77, 96
1, 40559, Note_on_c, 0, 84, 0
1, 40559, Note_on_c, 0, 80, 0
1, 40559, Note_on_c, 0, 77, 0
1, 40560, Note_on_c, 0, 83, 96
1, 40799, Note_on_c, 0, 83, 0
1, 40800, Note_on_c, 0, 83, 96
1, 40919, Note_on_c, 0, 83, 0
1, 41040, Note_on_c, 0, 86, 96
1, 41159, Note_on_c, 0, 86, 0
1, 41280, Note_on_c, 0, 84, 96
1, 41280, Note_on_c, 0, 79, 96
1, 41280, Note_on_c, 0, 75, 96
1, 41519, Note_on_c, 0, 84, 0
1, 41519, Note_on_c, 0, 79, 0
1, 41519, Note_on_c, 0, 75, 0
1, 41520, Note_on_c, 0, 87, 96
1, 41759, Note_on_c, 0, 87, 0
1, 41760, Note_on_c, 0, 87, 96
1, 41999, Note_on_c, 0, 87, 0
1, 42000, Note_on_c, 0, 87, 96
1, 42239, Note_on_c, 0, 87, 0
1, 42240, Note_on_c, 0, 84, 96
1, 42479, Note_on_c, 0, 84, 0
1, 42480, Note_on_c, 0, 79, 96
1, 42719, Note_on_c, 0, 79, 0
1, 42720, Note_on_c, 0, 79, 96
1, 42959, Note_on_c, 0, 79, 0
1, 42960, Note_on_c, 0, 79, 96
1, 43199, Note_on_c, 0, 79, 0
1, 43200, Note_on_c, 0, 75, 96
1, 43439, Note_on_c, 0, 75, 0
1, 43440, Note_on_c, 0, 72, 96
1, 43679, Note_on_c, 0, 72, 0
1, 43680, Note_on_c, 0, 67, 96
1, 43919, Note_on_c, 0, 67, 0
1, 43920, Note_on_c, 0, 67, 96
1, 44159, Note_on_c, 0, 67, 0
1, 44160, Note_on_c, 0, 63, 96
1, 44399, Note_on_c, 0, 63, 0
1, 44400, Note_on_c, 0, 60, 96
1, 44639, Note_on_c, 0, 60, 0
1, 44640, Note_on_c, 0, 60, 96
1, 44879, Note_on_c, 0, 60, 0
1, 44880, Note_on_c, 0, 60, 96
1, 45119, Note_on_c, 0, 60, 0
1, 45120, Note_on_c, 0, 59, 96
1, 45359, Note_on_c, 0, 59, 0
1, 45360, Note_on_c, 0, 86, 96
1, 45599, Note_on_c, 0, 86, 0
1, 45600, Note_on_c, 0, 86, 96
1, 45839, Note_on_c, 0, 86, 0
1, 45840, Note_on_c, 0, 86, 96
1, 46079, Note_on_c, 0, 86, 0
1, 46080, Note_on_c, 0, 83, 96
1, 46319, Note_on_c, 0, 83, 0
1, 46320, Note_on_c, 0, 79, 96
1, 46559, Note_on_c, 0, 79, 0
1, 46560, Note_on_c, 0, 77, 96
1, 46799, Note_on_c, 0, 77, 0
1, 46800, Note_on_c, 0, 77, 96
1, 47039, Note_on_c, 0, 77, 0
1, 47040, Note_on_c, 0, 74, 96
1, 47279, Note_on_c, 0, 74, 0
1, 47280, Note_on_c, 0, 71, 96
1, 47519, Note_on_c, 0, 71, 0
1, 47520, Note_on_c, 0, 67, 96
1, 47759, Note_on_c, 0, 67, 0
1, 47760, Note_on_c, 0, 65, 96
1, 47999, Note_on_c, 0, 65, 0
1, 48000, Note_on_c, 0, 62, 96
1, 48239, Note_on_c, 0, 62, 0
1, 48240, Note_on_c, 0, 59, 96
1, 48479, Note_on_c, 0, 59, 0
1, 48480, Note_on_c, 0, 60, 96
1, 48719, Note_on_c, 0, 60, 0
1, 48720, Note_on_c, 0, 60, 96
1, 48959, Note_on_c, 0, 60, 0
1, 48960, Note_on_c, 0, 60, 96
1, 49199, Note_on_c, 0, 60, 0
1, 49200, Note_on_c, 0, 87, 96
1, 49439, Note_on_c, 0, 87, 0
1, 49440, Note_on_c, 0, 87, 96
1, 49679, Note_on_c, 0, 87, 0
1, 49680, Note_on_c, 0, 87, 96
1, 49919, Note_on_c, 0, 87, 0
1, 49920, Note_on_c, 0, 84, 96
1, 50159, Note_on_c, 0, 84, 0
1, 50160, Note_on_c, 0, 81, 96
1, 50399, Note_on_c, 0, 81, 0
1, 50400, Note_on_c, 0, 81, 96
1, 50639, Note_on_c, 0, 81, 0
1, 50640, Note_on_c, 0, 81, 96
1, 50879, Note_on_c, 0, 81, 0
1, 50880, Note_on_c, 0, 78, 96
1, 51119, Note_on_c, 0, 78, 0
1, 51120, Note_on_c, 0, 75, 96
1, 51359, Note_on_c, 0, 75, 0
1, 51360, Note_on_c, 0, 75, 96
1, 51599, Note_on_c, 0, 75, 0
1, 51600, Note_on_c, 0, 75, 96
1, 51839, Note_on_c, 0, 75, 0
1, 51840, Note_on_c, 0, 72, 96
1, 52079, Note_on_c, 0, 72, 0
1, 52080, Note_on_c, 0, 69, 96
1, 52319, Note_on_c, 0, 69, 0
1, 52320, Note_on_c, 0, 69, 96
1, 52559, Note_on_c, 0, 69, 0
1, 52560, Note_on_c, 0, 69, 96
1, 52799, Note_on_c, 0, 69, 0
1, 52800, Note_on_c, 0, 80, 96
1, 52800, Note_on_c, 0, 79, 96
1, 52800, Note_on_c, 0, 75, 96
1, 52800, Note_on_c, 0, 68, 96
1, 53279, Note_on_c, 0, 80, 0
1, 53279, Note_on_c, 0, 79, 0
1, 53279, Note_on_c, 0, 75, 0
1, 53279, Note_on_c, 0, 68, 0
1, 53760, Note_on_c, 0, 82, 96
1, 53760, Note_on_c, 0, 77, 96
1, 53760, Note_on_c, 0, 70, 96
1, 54239, Note_on_c, 0, 82, 0
1, 54239, Note_on_c, 0, 77, 0
1, 54239, Note_on_c, 0, 70, 0
1, 54960, Note_on_c, 0, 70, 96
1, 55199, Note_on_c, 0, 70, 0
1, 55200, Note_on_c, 0, 70, 96
1, 55439, Note_on_c, 0, 70, 0
1, 55440, Note_on_c, 0, 70, 96
1, 55679, Note_on_c, 0, 70, 0
1, 58560, Note_on_c, 0, 67, 96
1, 58560, Note_on_c, 0, 70, 96
1, 59039, Note_on_c, 0, 70, 0
1, 59040, Note_on_c, 0, 75, 96
1, 59519, Note_on_c, 0, 67, 0
1, 59519, Note_on_c, 0, 75, 0
1, 59520, Note_on_c, 0, 68, 96
1, 59520, Note_on_c, 0, 74, 96
1, 59999, Note_on_c, 0, 74, 0
1, 60000, Note_on_c, 0, 75, 96
1, 60479, Note_on_c, 0, 68, 0
1, 60479, Note_on_c, 0, 75, 0
1, 60480, Note_on_c, 0, 68, 96
1, 60480, Note_on_c, 0, 77, 96
1, 60959, Note_on_c, 0, 77, 0
1, 60960, Note_on_c, 0, 72, 96
1, 61439, Note_on_c, 0, 68, 0
1, 61439, Note_on_c, 0, 72, 0
1, 61440, Note_on_c, 0, 67, 96
1, 61440, Note_on_c, 0, 63, 96
1, 61440, Note_on_c, 0, 72, 96
1, 61919, Note_on_c, 0, 72, 0
1, 61920, Note_on_c, 0, 70, 96
1, 62399, Note_on_c, 0, 67, 0
1, 62399, Note_on_c, 0, 63, 0
1, 62399, Note_on_c, 0, 70, 0
1, 62400, Note_on_c, 0, 67, 96
1, 62400, Note_on_c, 0, 70, 96
1, 62879, Note_on_c, 0, 70, 0
1, 62880, Note_on_c, 0, 75, 96
1, 63359, Note_on_c, 0, 67, 0
1, 63359, Note_on_c, 0, 75, 0
1, 63360, Note_on_c, 0, 68, 96
1, 63360, Note_on_c, 0, 74, 96
1, 63839, Note_on_c, 0, 74, 0
1, 63840, Note_on_c, 0, 75, 96
1, 64319, Note_on_c, 0, 68, 0
1, 64319, Note_on_c, 0, 75, 0
1, 64320, Note_on_c, 0, 68, 96
1, 64320, Note_on_c, 0, 77, 96
1, 64799, Note_on_c, 0, 77, 0
1, 64800, Note_on_c, 0, 72, 96
1, 65279, Note_on_c, 0, 68, 0
1, 65279, Note_on_c, 0, 72, 0
1, 65280, Note_on_c, 0, 67, 96
1, 65280, Note_on_c, 0, 63, 96
1, 65280, Note_on_c, 0, 72, 96
1, 65759, Note_on_c, 0, 72, 0
1, 65760, Note_on_c, 0, 70, 96
1, 66239, Note_on_c, 0, 67, 0
1, 66239, Note_on_c, 0, 63, 0
1, 66239, Note_on_c, 0, 70, 0
1, 66240, Note_on_c, 0, 82, 96
1, 66240, Note_on_c, 0, 70, 96
1, 66719, Note_on_c, 0, 82, 0
1, 66719, Note_on_c, 0, 70, 0
1, 66720, Note_on_c, 0, 87, 96
1, 66720, Note_on_c, 0, 75, 96
1, 67199, Note_on_c, 0, 87, 0
1, 67199, Note_on_c, 0, 75, 0
1, 67200, Note_on_c, 0, 86, 96
1, 67200, Note_on_c, 0, 74, 96
1, 67679, Note_on_c, 0, 86, 0
1, 67679, Note_on_c, 0, 74, 0
1, 67680, Note_on_c, 0, 87, 96
1, 67680, Note_on_c, 0, 75, 96
1, 68159, Note_on_c, 0, 87, 0
1, 68159, Note_on_c, 0, 75, 0
1, 68160, Note_on_c, 0, 89, 96
1, 68160, Note_on_c, 0, 77, 96
1, 68639, Note_on_c, 0, 89, 0
1, 68639, Note_on_c, 0, 77, 0
1, 68640, Note_on_c, 0, 84, 96
1, 68640, Note_on_c, 0, 72, 96
1, 69119, Note_on_c, 0, 84, 0
1, 69119, Note_on_c, 0, 72, 0
1, 69120, Note_on_c, 0, 84, 96
1, 69120, Note_on_c, 0, 72, 96
1, 69599, Note_on_c, 0, 84, 0
1, 69599, Note_on_c, 0, 72, 0
1, 69600, Note_on_c, 0, 82, 96
1, 69600, Note_on_c, 0, 70, 96
1, 70079, Note_on_c, 0, 82, 0
1, 70079, Note_on_c, 0, 70, 0
1, 70080, Note_on_c, 0, 67, 96
1, 70080, Note_on_c, 0, 63, 96
1, 70080, Note_on_c, 0, 70, 96
1, 70559, Note_on_c, 0, 70, 0
1, 70560, Note_on_c, 0, 72, 96
1, 71039, Note_on_c, 0, 67, 0
1, 71039, Note_on_c, 0, 63, 0
1, 71039, Note_on_c, 0, 72, 0
1, 71040, Note_on_c, 0, 67, 96
1, 71040, Note_on_c, 0, 64, 96
1, 71040, Note_on_c, 0, 73, 96
1, 71519, Note_on_c, 0, 73, 0
1, 71520, Note_on_c, 0, 72, 96
1, 71999, Note_on_c, 0, 67, 0
1, 71999, Note_on_c, 0, 64, 0
1, 71999, Note_on_c, 0, 72, 0
1, 72000, Note_on_c, 0, 67, 96
1, 72000, Note_on_c, 0, 64, 96
1, 72000, Note_on_c, 0, 70, 96
1, 72479, Note_on_c, 0, 70, 0
1, 72480, Note_on_c, 0, 72, 96
1, 72959, Note_on_c, 0, 67, 0
1, 72959, Note_on_c, 0, 64, 0
1, 72959, Note_on_c, 0, 72, 0
1, 72960, Note_on_c, 0, 65, 96
1, 72960, Note_on_c, 0, 60, 96
1, 72960, Note_on_c, 0, 70, 96
1, 73439, Note_on_c, 0, 70, 0
1, 73440, Note_on_c, 0, 68, 96
1, 73919, Note_on_c, 0, 65, 0
1, 73919, Note_on_c, 0, 60, 0
1, 73919, Note_on_c, 0, 68, 0
1, 73920, Note_on_c, 0, 68, 96
1, 73920, Note_on_c, 0, 65, 96
1, 73920, Note_on_c, 0, 73, 96
1, 74399, Note_on_c, 0, 73, 0
1, 74400, Note_on_c, 0, 75, 96
1, 74879, Note_on_c, 0, 68, 0
1, 74879, Note_on_c, 0, 65, 0
1, 74879, Note_on_c, 0, 75, 0
1, 74880, Note_on_c, 0, 70, 96
1, 74880, Note_on_c, 0, 67, 96
1, 74880, Note_on_c, 0, 77, 96
1, 75359, Note_on_c, 0, 77, 0
1, 75360, Note_on_c, 0, 75, 96
1, 75839, Note_on_c, 0, 70, 0
1, 75839, Note_on_c, 0, 67, 0
1, 75839, Note_on_c, 0, 75, 0
1, 75840, Note_on_c, 0, 70, 96
1, 75840, Note_on_c, 0, 67, 96
1, 75840, Note_on_c, 0, 73, 96
1, 76319, Note_on_c, 0, 73, 0
1, 76320, Note_on_c, 0, 75, 96
1, 76799, Note_on_c, 0, 70, 0
1, 76799, Note_on_c, 0, 67, 0
1, 76799, Note_on_c, 0, 75, 0
1, 76800, Note_on_c, 0, 68, 96
1, 76800, Note_on_c, 0, 63, 96
1, 76800, Note_on_c, 0, 73, 96
1, 77279, Note_on_c, 0, 73, 0
1, 77280, Note_on_c, 0, 72, 96
1, 77759, Note_on_c, 0, 68, 0
1, 77759, Note_on_c, 0, 63, 0
1, 77759, Note_on_c, 0, 72, 0
1, 77760, Note_on_c, 0, 72, 96
1, 77760, Note_on_c, 0, 75, 96
1, 77760, Note_on_c, 0, 63, 96
1, 78239, Note_on_c, 0, 75, 0
1, 78239, Note_on_c, 0, 63, 0
1, 78240, Note_on_c, 0, 77, 96
1, 78240, Note_on_c, 0, 65, 96
1, 78719, Note_on_c, 0, 72, 0
1, 78719, Note_on_c, 0, 77, 0
1, 78719, Note_on_c, 0, 65, 0
1, 78720, Note_on_c, 0, 75, 96
1, 78720, Note_on_c, 0, 72, 96
1, 78720, Note_on_c, 0, 78, 96
1, 78720, Note_on_c, 0, 66, 96
1, 79199, Note_on_c, 0, 78, 0
1, 79199, Note_on_c, 0, 66, 0
1, 79200, Note_on_c, 0, 77, 96
1, 79200, Note_on_c, 0, 65, 96
1, 79679, Note_on_c, 0, 75, 0
1, 79679, Note_on_c, 0, 72, 0
1, 79679, Note_on_c, 0, 77, 0
1, 79679, Note_on_c, 0, 65, 0
1, 79680, Note_on_c, 0, 75, 96
1, 79680, Note_on_c, 0, 63, 96
1, 80159, Note_on_c, 0, 75, 0
1, 80159, Note_on_c, 0, 63, 0
1, 80160, Note_on_c, 0, 77, 96
1, 80160, Note_on_c, 0, 65, 96
1, 80639, Note_on_c, 0, 77, 0
1, 80639, Note_on_c, 0, 65, 0
1, 80640, Note_on_c, 0, 75, 96
1, 80640, Note_on_c, 0, 70, 96
1, 80640, Note_on_c, 0, 78, 96
1, 80640, Note_on_c, 0, 66, 96
1, 81119, Note_on_c, 0, 78, 0
1, 81119, Note_on_c, 0, 66, 0
1, 81120, Note_on_c, 0, 77, 96
1, 81120, Note_on_c, 0, 65, 96
1, 81599, Note_on_c, 0, 75, 0
1, 81599, Note_on_c, 0, 70, 0
1, 81599, Note_on_c, 0, 77, 0
1, 81599, Note_on_c, 0, 65, 0
1, 81600, Note_on_c, 0, 75, 96
1, 81600, Note_on_c, 0, 63, 96
1, 82079, Note_on_c, 0, 75, 0
1, 82079, Note_on_c, 0, 63, 0
1, 82080, Note_on_c, 0, 77, 96
1, 82080, Note_on_c, 0, 65, 96
1, 82559, Note_on_c, 0, 77, 0
1, 82559, Note_on_c, 0, 65, 0
1, 82560, Note_on_c, 0, 75, 96
1, 82560, Note_on_c, 0, 68, 96
1, 82560, Note_on_c, 0, 78, 96
1, 82560, Note_on_c, 0, 67, 96
1, 83039, Note_on_c, 0, 78, 0
1, 83039, Note_on_c, 0, 67, 0
1, 83040, Note_on_c, 0, 77, 96
1, 83040, Note_on_c, 0, 65, 96
1, 83519, Note_on_c, 0, 75, 0
1, 83519, Note_on_c, 0, 68, 0
1, 83519, Note_on_c, 0, 77, 0
1, 83519, Note_on_c, 0, 65, 0
1, 83520, Note_on_c, 0, 75, 96
1, 83520, Note_on_c, 0, 63, 96
1, 83999, Note_on_c, 0, 75, 0
1, 83999, Note_on_c, 0, 63, 0
1, 84000, Note_on_c, 0, 77, 96
1, 84000, Note_on_c, 0, 65, 96
1, 84479, Note_on_c, 0, 77, 0
1, 84479, Note_on_c, 0, 65, 0
1, 84480, Note_on_c, 0, 75, 96
1, 84480, Note_on_c, 0, 68, 96
1, 84480, Note_on_c, 0, 78, 96
1, 84480, Note_on_c, 0, 67, 96
1, 84959, Note_on_c, 0, 78, 0
1, 84959, Note_on_c, 0, 67, 0
1, 84960, Note_on_c, 0, 77, 96
1, 84960, Note_on_c, 0, 65, 96
1, 85439, Note_on_c, 0, 75, 0
1, 85439, Note_on_c, 0, 68, 0
1, 85439, Note_on_c, 0, 77, 0
1, 85439, Note_on_c, 0, 65, 0
1, 85440, Note_on_c, 0, 75, 96
1, 85440, Note_on_c, 0, 62, 96
1, 85919, Note_on_c, 0, 75, 0
1, 85919, Note_on_c, 0, 62, 0
1, 85920, Note_on_c, 0, 77, 96
1, 85920, Note_on_c, 0, 65, 96
1, 86399, Note_on_c, 0, 77, 0
1, 86399, Note_on_c, 0, 65, 0
1, 86400, Note_on_c, 0, 75, 96
1, 86400, Note_on_c, 0, 68, 96
1, 86400, Note_on_c, 0, 78, 96
1, 86400, Note_on_c, 0, 67, 96
1, 86879, Note_on_c, 0, 78, 0
1, 86879, Note_on_c, 0, 67, 0
1, 86880, Note_on_c, 0, 77, 96
1, 86880, Note_on_c, 0, 65, 96
1, 87359, Note_on_c, 0, 75, 0
1, 87359, Note_on_c, 0, 68, 0
1, 87359, Note_on_c, 0, 77, 0
1, 87359, Note_on_c, 0, 65, 0
1, 87360, Note_on_c, 0, 78, 96
1, 87360, Note_on_c, 0, 66, 96
1, 87839, Note_on_c, 0, 78, 0
1, 87839, Note_on_c, 0, 66, 0
1, 87840, Note_on_c, 0, 80, 96
1, 87840, Note_on_c, 0, 79, 96
1, 87840, Note_on_c, 0, 75, 96
1, 87840, Note_on_c, 0, 69, 96
1, 88319, Note_on_c, 0, 80, 0
1, 88319, Note_on_c, 0, 79, 0
1, 88319, Note_on_c, 0, 75, 0
1, 88319, Note_on_c, 0, 69, 0
1, 88320, Note_on_c, 0, 82, 96
1, 88320, Note_on_c, 0, 80, 96
1, 88320, Note_on_c, 0, 77, 96
1, 88320, Note_on_c, 0, 70, 96
1, 89519, Note_on_c, 0, 82, 0
1, 89519, Note_on_c, 0, 80, 0
1, 89519, Note_on_c, 0, 77, 0
1, 89519, Note_on_c, 0, 70, 0
1, 89520, Note_on_c, 0, 84, 96
1, 89639, Note_on_c, 0, 84, 0
1, 89760, Note_on_c, 0, 82, 96
1, 89879, Note_on_c, 0, 82, 0
1, 90000, Note_on_c, 0, 80, 96
1, 90119, Note_on_c, 0, 80, 0
1, 90240, Note_on_c, 0, 80, 96
1, 90240, Note_on_c, 0, 75, 96
1, 90240, Note_on_c, 0, 70, 96
1, 90479, Note_on_c, 0, 80, 0
1, 90479, Note_on_c, 0, 75, 0
1, 90479, Note_on_c, 0, 70, 0
1, 90480, Note_on_c, 0, 79, 96
1, 90719, Note_on_c, 0, 79, 0
1, 90720, Note_on_c, 0, 77, 96
1, 90839, Note_on_c, 0, 77, 0
1, 90960, Note_on_c, 0, 75, 96
1, 91079, Note_on_c, 0, 75, 0
1, 91200, Note_on_c, 0, 75, 96
1, 91200, Note_on_c, 0, 68, 96
1, 91439, Note_on_c, 0, 75, 0
1, 91439, Note_on_c, 0, 68, 0
1, 91440, Note_on_c, 0, 74, 96
1, 91679, Note_on_c, 0, 74, 0
1, 91680, Note_on_c, 0, 72, 96
1, 91799, Note_on_c, 0, 72, 0
1, 91920, Note_on_c, 0, 74, 96
1, 92039, Note_on_c, 0, 74, 0
1, 92160, Note_on_c, 0, 77, 96
1, 92160, Note_on_c, 0, 67, 96
1, 92399, Note_on_c, 0, 77, 0
1, 92399, Note_on_c, 0, 67, 0
1, 92400, Note_on_c, 0, 75, 96
1, 92639, Note_on_c, 0, 75, 0
1, 92640, Note_on_c, 0, 70, 96
1, 92759, Note_on_c, 0, 70, 0
1, 92880, Note_on_c, 0, 67, 96
1, 92999, Note_on_c, 0, 67, 0
1, 93120, Note_on_c, 0, 74, 96
1, 93120, Note_on_c, 0, 65, 96
1, 93359, Note_on_c, 0, 74, 0
1, 93359, Note_on_c, 0, 65, 0
1, 93360, Note_on_c, 0, 72, 96
1, 93599, Note_on_c, 0, 72, 0
1, 93600, Note_on_c, 0, 68, 96
1, 93719, Note_on_c, 0, 68, 0
1, 93840, Note_on_c, 0, 65, 96
1, 93959, Note_on_c, 0, 65, 0
1, 94080, Note_on_c, 0, 72, 96
1, 94080, Note_on_c, 0, 63, 96
1, 94319, Note_on_c, 0, 72, 0
1, 94319, Note_on_c, 0, 63, 0
1, 94320, Note_on_c, 0, 70, 96
1, 94559, Note_on_c, 0, 70, 0
1, 94560, Note_on_c, 0, 67, 96
1, 94679, Note_on_c, 0, 67, 0
1, 94800, Note_on_c, 0, 63, 96
1, 94919, Note_on_c, 0, 63, 0
1, 95280, Note_on_c, 0, 81, 96
1, 95519, Note_on_c, 0, 81, 0
1, 95520, Note_on_c, 0, 82, 96
1, 95759, Note_on_c, 0, 82, 0
1, 95760, Note_on_c, 0, 81, 96
1, 95999, Note_on_c, 0, 81, 0
1, 96000, Note_on_c, 0, 77, 96
1, 96000, Note_on_c, 0, 82, 96
1, 96239, Note_on_c, 0, 82, 0
1, 96240, Note_on_c, 0, 81, 96
1, 96479, Note_on_c, 0, 81, 0
1, 96480, Note_on_c, 0, 82, 96
1, 96719, Note_on_c, 0, 82, 0
1, 96720, Note_on_c, 0, 81, 96
1, 96959, Note_on_c, 0, 81, 0
1, 96960, Note_on_c, 0, 82, 96
1, 97079, Note_on_c, 0, 82, 0
1, 97200, Note_on_c, 0, 84, 96
1, 97319, Note_on_c, 0, 84, 0
1, 97439, Note_on_c, 0, 77, 0
1, 97440, Note_on_c, 0, 82, 96
1, 97559, Note_on_c, 0, 82, 0
1, 97680, Note_on_c, 0, 80, 96
1, 97799, Note_on_c, 0, 80, 0
1, 97920, Note_on_c, 0, 70, 96
1, 97920, Note_on_c, 0, 80, 96
1, 97920, Note_on_c, 0, 75, 96
1, 98159, Note_on_c, 0, 80, 0
1, 98159, Note_on_c, 0, 75, 0
1, 98160, Note_on_c, 0, 77, 96
1, 98399, Note_on_c, 0, 70, 0
1, 98399, Note_on_c, 0, 77, 0
1, 98400, Note_on_c, 0, 70, 96
1, 98400, Note_on_c, 0, 77, 96
1, 98519, Note_on_c, 0, 77, 0
1, 98640, Note_on_c, 0, 75, 96
1, 98759, Note_on_c, 0, 75, 0
1, 98879, Note_on_c, 0, 70, 0
1, 98880, Note_on_c, 0, 75, 96
1, 99119, Note_on_c, 0, 75, 0
1, 99120, Note_on_c, 0, 74, 96
1, 99359, Note_on_c, 0, 74, 0
1, 99360, Note_on_c, 0, 70, 96
1, 99360, Note_on_c, 0, 72, 96
1, 99479, Note_on_c, 0, 72, 0
1, 99600, Note_on_c, 0, 74, 96
1, 99719, Note_on_c, 0, 74, 0
1, 99839, Note_on_c, 0, 70, 0
1, 99840, Note_on_c, 0, 77, 96
1, 100079, Note_on_c, 0, 77, 0
1, 100080, Note_on_c, 0, 75, 96
1, 100319, Note_on_c, 0, 75, 0
1, 100320, Note_on_c, 0, 63, 96
1, 100320, Note_on_c, 0, 70, 96
1, 100439, Note_on_c, 0, 70, 0
1, 100560, Note_on_c, 0, 67, 96
1, 100679, Note_on_c, 0, 67, 0
1, 100799, Note_on_c, 0, 63, 0
1, 100800, Note_on_c, 0, 74, 96
1, 101039, Note_on_c, 0, 74, 0
1, 101040, Note_on_c, 0, 72, 96
1, 101279, Note_on_c, 0, 72, 0
1, 101280, Note_on_c, 0, 67, 96
1, 101399, Note_on_c, 0, 67, 0
1, 101520, Note_on_c, 0, 65, 96
1, 101639, Note_on_c, 0, 65, 0
1, 101760, Note_on_c, 0, 72, 96
1, 101999, Note_on_c, 0, 72, 0
1, 102000, Note_on_c, 0, 70, 96
1, 102239, Note_on_c, 0, 70, 0
1, 102240, Note_on_c, 0, 67, 96
1, 102359, Note_on_c, 0, 67, 0
1, 102480, Note_on_c, 0, 63, 96
1, 102599, Note_on_c, 0, 63, 0
1, 102720, Note_on_c, 0, 62, 96
1, 102959, Note_on_c, 0, 62, 0
1, 102960, Note_on_c, 0, 70, 96
1, 103199, Note_on_c, 0, 70, 0
1, 103200, Note_on_c, 0, 82, 96
1, 103439, Note_on_c, 0, 82, 0
1, 103440, Note_on_c, 0, 82, 96
1, 103679, Note_on_c, 0, 82, 0
1, 103680, Note_on_c, 0, 75, 96
1, 103919, Note_on_c, 0, 75, 0
1, 103920, Note_on_c, 0, 91, 96
1, 103920, Note_on_c, 0, 79, 96
1, 104159, Note_on_c, 0, 91, 0
1, 104159, Note_on_c, 0, 79, 0
1, 104160, Note_on_c, 0, 91, 96
1, 104160, Note_on_c, 0, 79, 96
1, 104399, Note_on_c, 0, 91, 0
1, 104399, Note_on_c, 0, 79, 0
1, 104400, Note_on_c, 0, 91, 96
1, 104400, Note_on_c, 0, 79, 96
1, 104639, Note_on_c, 0, 91, 0
1, 104639, Note_on_c, 0, 79, 0
1, 104640, Note_on_c, 0, 87, 96
1, 104879, Note_on_c, 0, 87, 0
1, 104880, Note_on_c, 0, 82, 96
1, 104880, Note_on_c, 0, 70, 96
1, 105119, Note_on_c, 0, 82, 0
1, 105119, Note_on_c, 0, 70, 0
1, 105120, Note_on_c, 0, 82, 96
1, 105120, Note_on_c, 0, 70, 96
1, 105359, Note_on_c, 0, 82, 0
1, 105359, Note_on_c, 0, 70, 0
1, 105360, Note_on_c, 0, 82, 96
1, 105360, Note_on_c, 0, 70, 96
1, 105599, Note_on_c, 0, 82, 0
1, 105599, Note_on_c, 0, 70, 0
1, 105600, Note_on_c, 0, 79, 96
1, 105839, Note_on_c, 0, 79, 0
1, 105840, Note_on_c, 0, 75, 96
1, 105840, Note_on_c, 0, 63, 96
1, 106079, Note_on_c, 0, 75, 0
1, 106079, Note_on_c, 0, 63, 0
1, 106080, Note_on_c, 0, 75, 96
1, 106080, Note_on_c, 0, 63, 96
1, 106319, Note_on_c, 0, 75, 0
1, 106319, Note_on_c, 0, 63, 0
1, 106320, Note_on_c, 0, 75, 96
1, 106320, Note_on_c, 0, 63, 96
1, 106559, Note_on_c, 0, 75, 0
1, 106559, Note_on_c, 0, 63, 0
1, 106560, Note_on_c, 0, 70, 96
1, 106799, Note_on_c, 0, 70, 0
1, 106800, Note_on_c, 0, 77, 96
1, 106800, Note_on_c, 0, 74, 96
1, 106800, Note_on_c, 0, 65, 96
1, 107039, Note_on_c, 0, 77, 0
1, 107039, Note_on_c, 0, 74, 0
1, 107039, Note_on_c, 0, 65, 0
1, 107040, Note_on_c, 0, 77, 96
1, 107040, Note_on_c, 0, 74, 96
1, 107040, Note_on_c, 0, 65, 96
1, 107279, Note_on_c, 0, 77, 0
1, 107279, Note_on_c, 0, 74, 0
1, 107279, Note_on_c, 0, 65, 0
1, 107280, Note_on_c, 0, 77, 96
1, 107280, Note_on_c, 0, 74, 96
1, 107280, Note_on_c, 0, 65, 96
1, 107519, Note_on_c, 0, 77, 0
1, 107519, Note_on_c, 0, 74, 0
1, 107519, Note_on_c, 0, 65, 0
1, 107520, Note_on_c, 0, 79, 96
1, 107520, Note_on_c, 0, 75, 96
1, 107520, Note_on_c, 0, 67, 96
1, 107759, Note_on_c, 0, 79, 0
1, 107759, Note_on_c, 0, 75, 0
1, 107759, Note_on_c, 0, 67, 0
1, 107760, Note_on_c, 0, 91, 96
1, 107760, Note_on_c, 0, 79, 96
1, 107999, Note_on_c, 0, 91, 0
1, 107999, Note_on_c, 0, 79, 0
1, 108000, Note_on_c, 0, 91, 96
1, 108000, Note_on_c, 0, 79, 96
1, 108239, Note_on_c, 0, 91, 0
1, 108239, Note_on_c, 0, 79, 0
1, 108240, Note_on_c, 0, 91, 96
1, 108240, Note_on_c, 0, 79, 96
1, 108479, Note_on_c, 0, 91, 0
1, 108479, Note_on_c, 0, 79, 0
1, 108480, Note_on_c, 0, 87, 96
1, 108719, Note_on_c, 0, 87, 0
1, 108720, Note_on_c, 0, 82, 96
1, 108720, Note_on_c, 0, 70, 96
1, 108959, Note_on_c, 0, 82, 0
1, 108959, Note_on_c, 0, 70, 0
1, 108960, Note_on_c, 0, 82, 96
1, 108960, Note_on_c, 0, 70, 96
1, 109199, Note_on_c, 0, 82, 0
1, 109199, Note_on_c, 0, 70, 0
1, 109200, Note_on_c, 0, 82, 96
1, 109200, Note_on_c, 0, 70, 96
1, 109439, Note_on_c, 0, 82, 0
1, 109439, Note_on_c, 0, 70, 0
1, 109440, Note_on_c, 0, 79, 96
1, 109679, Note_on_c, 0, 79, 0
1, 109680, Note_on_c, 0, 75, 96
1, 109680, Note_on_c, 0, 63, 96
1, 109919, Note_on_c, 0, 75, 0
1, 109919, Note_on_c, 0, 63, 0
1, 109920, Note_on_c, 0, 75, 96
1, 109920, Note_on_c, 0, 63, 96
1, 110159, Note_on_c, 0, 75, 0
1, 110159, Note_on_c, 0, 63, 0
1, 110160, Note_on_c, 0, 75, 96
1, 110160, Note_on_c, 0, 63, 96
1, 110399, Note_on_c, 0, 75, 0
1, 110399, Note_on_c, 0, 63, 0
1, 110400, Note_on_c, 0, 70, 96
1, 110639, Note_on_c, 0, 70, 0
1, 110640, Note_on_c, 0, 82, 96
1, 110640, Note_on_c, 0, 77, 96
1, 110640, Note_on_c, 0, 74, 96
1, 110640, Note_on_c, 0, 70, 96
1, 110879, Note_on_c, 0, 82, 0
1, 110879, Note_on_c, 0, 77, 0
1, 110879, Note_on_c, 0, 74, 0
1, 110879, Note_on_c, 0, 70, 0
1, 110880, Note_on_c, 0, 82, 96
1, 110880, Note_on_c, 0, 77, 96
1, 110880, Note_on_c, 0, 74, 96
1, 110880, Note_on_c, 0, 70, 96
1, 111119, Note_on_c, 0, 82, 0
1, 111119, Note_on_c, 0, 77, 0
1, 111119, Note_on_c, 0, 74, 0
1, 111119, Note_on_c, 0, 70, 0
1, 111120, Note_on_c, 0, 82, 96
1, 111120, Note_on_c, 0, 77, 96
1, 111120, Note_on_c, 0, 74, 96
1, 111120, Note_on_c, 0, 70, 96
1, 111359, Note_on_c, 0, 82, 0
1, 111359, Note_on_c, 0, 77, 0
1, 111359, Note_on_c, 0, 74, 0
1, 111359, Note_on_c, 0, 70, 0
1, 111360, Note_on_c, 0, 82, 96
1, 111360, Note_on_c, 0, 79, 96
1, 111360, Note_on_c, 0, 75, 96
1, 111360, Note_on_c, 0, 70, 96
1, 111839, Note_on_c, 0, 82, 0
1, 111839, Note_on_c, 0, 79, 0
1, 111839, Note_on_c, 0, 75, 0
1, 111839, Note_on_c, 0, 70, 0
1, 112560, Note_on_c, 0, 82, 96
1, 112560, Note_on_c, 0, 77, 96
1, 112560, Note_on_c, 0, 74, 96
1, 112560, Note_on_c, 0, 70, 96
1, 112799, Note_on_c, 0, 82, 0
1, 112799, Note_on_c, 0, 77, 0
1, 112799, Note_on_c, 0, 74, 0
1, 112799, Note_on_c, 0, 70, 0
1, 112800, Note_on_c, 0, 82, 96
1, 112800, Note_on_c, 0, 77, 96
1, 112800, Note_on_c, 0, 74, 96
1, 112800, Note_on_c, 0, 70, 96
1, 113039, Note_on_c, 0, 82, 0
1, 113039, Note_on_c, 0, 77, 0
1, 113039, Note_on_c, 0, 74, 0
1, 113039, Note_on_c, 0, 70, 0
1, 113040, Note_on_c, 0, 82, 96
1, 113040, Note_on_c, 0, 77, 96
1, 113040, Note_on_c, 0, 74, 96
1, 113040, Note_on_c, 0, 70, 96
1, 113279, Note_on_c, 0, 82, 0
1, 113279, Note_on_c, 0, 77, 0
1, 113279, Note_on_c, 0, 74, 0
1, 113279, Note_on_c, 0, 70, 0
1, 113280, Note_on_c, 0, 82, 96
1, 113280, Note_on_c, 0, 79, 96
1, 113280, Note_on_c, 0, 75, 96
1, 113280, Note_on_c, 0, 70, 96
1, 113759, Note_on_c, 0, 82, 0
1, 113759, Note_on_c, 0, 79, 0
1, 113759, Note_on_c, 0, 75, 0
1, 113759, Note_on_c, 0, 70, 0
1, 114480, Note_on_c, 0, 89, 96
1, 114480, Note_on_c, 0, 86, 96
1, 114480, Note_on_c, 0, 82, 96
1, 114480, Note_on_c, 0, 77, 96
1, 114719, Note_on_c, 0, 89, 0
1, 114719, Note_on_c, 0, 86, 0
1, 114719, Note_on_c, 0, 82, 0
1, 114719, Note_on_c, 0, 77, 0
1, 114720, Note_on_c, 0, 89, 96
1, 114720, Note_on_c, 0, 86, 96
1, 114720, Note_on_c, 0, 82, 96
1, 114720, Note_on_c, 0, 77, 96
1, 114959, Note_on_c, 0, 89, 0
1, 114959, Note_on_c, 0, 86, 0
1, 114959, Note_on_c, 0, 82, 0
1, 114959, Note_on_c, 0, 77, 0
1, 114960, Note_on_c, 0, 89, 96
1, 114960, Note_on_c, 0, 86, 96
1, 114960, Note_on_c, 0, 82, 96
1, 114960, Note_on_c, 0, 77, 96
1, 115199, Note_on_c, 0, 89, 0
1, 115199, Note_on_c, 0, 86, 0
1, 115199, Note_on_c, 0, 82, 0
1, 115199, Note_on_c, 0, 77, 0
1, 115200, Note_on_c, 0, 87, 96
1, 115200, Note_on_c, 0, 82, 96
1, 115200, Note_on_c, 0, 79, 96
1, 115679, Note_on_c, 0, 87, 0
1, 115679, Note_on_c, 0, 82, 0
1, 115679, Note_on_c, 0, 79, 0
1, 116160, Time_signature, 2, 2, 24, 8
1, 116160, Key_signature, -3, "major"
1, 116400, Tempo, 454545
1, 116400, Note_on_c, 0, 67, 80
1, 116400, Note_on_c, 0, 55, 80
1, 116639, Note_on_c, 0, 67, 0
1, 116639, Note_on_c, 0, 55, 0
1, 116640, Note_on_c, 0, 67, 80
1, 116640, Note_on_c, 0, 55, 80
1, 116879, Note_on_c, 0, 67, 0
1, 116879, Note_on_c, 0, 55, 0
1, 116880, Note_on_c, 0, 67, 80
1, 116880, Note_on_c, 0, 55, 80
1, 117119, Note_on_c, 0, 67, 0
1, 117119, Note_on_c, 0, 55, 0
1, 117120, Note_on_c, 0, 63, 80
1, 118079, Note_on_c, 0, 63, 0
1, 118320, Note_on_c, 0, 65, 80
1, 118320, Note_on_c, 0, 53, 80
1, 118559, Note_on_c, 0, 65, 0
1, 118559, Note_on_c, 0, 53, 0
1, 118560, Note_on_c, 0, 65, 80
1, 118560, Note_on_c, 0, 53, 80
1, 118799, Note_on_c, 0, 65, 0
1, 118799, Note_on_c, 0, 53, 0
1, 118800, Note_on_c, 0, 65, 80
1, 118800, Note_on_c, 0, 53, 80
1, 119039, Note_on_c, 0, 65, 0
1, 119039, Note_on_c, 0, 53, 0
1, 119040, Note_on_c, 0, 62, 80
1, 120959, Note_on_c, 0, 62, 0
1, 121200, Note_on_c, 0, 67, 80
1, 121439, Note_on_c, 0, 67, 0
1, 121440, Note_on_c, 0, 67, 80
1, 121679, Note_on_c, 0, 67, 0
1, 121680, Note_on_c, 0, 67, 80
1, 121919, Note_on_c, 0, 67, 0
1, 122160, Note_on_c, 0, 68, 80
1, 122399, Note_on_c, 0, 68, 0
1, 122400, Note_on_c, 0, 68, 80
1, 122639, Note_on_c, 0, 68, 0
1, 122640, Note_on_c, 0, 68, 80
1, 122879, Note_on_c, 0, 68, 0
1, 122880, Note_on_c, 0, 67, 80
1, 123120, Note_on_c, 0, 75, 80
1, 123359, Note_on_c, 0, 75, 0
1, 123360, Note_on_c, 0, 75, 80
1, 123599, Note_on_c, 0, 75, 0
1, 123600, Note_on_c, 0, 75, 80
1, 123839, Note_on_c, 0, 75, 0
1, 123840, Note_on_c, 0, 72, 80
1, 125039, Note_on_c, 0, 67, 0
1, 125040, Note_on_c, 0, 67, 80
1, 125279, Note_on_c, 0, 67, 0
1, 125279, Note_on_c, 0, 72, 0
1, 125280, Note_on_c, 0, 67, 80
1, 125519, Note_on_c, 0, 67, 0
1, 125520, Note_on_c, 0, 67, 80
1, 125759, Note_on_c, 0, 67, 0
1, 126000, Note_on_c, 0, 68, 80
1, 126239, Note_on_c, 0, 68, 0
1, 126240, Note_on_c, 0, 68, 80
1, 126479, Note_on_c, 0, 68, 0
1, 126480, Note_on_c, 0, 68, 80
1, 126719, Note_on_c, 0, 68, 0
1, 126720, Note_on_c, 0, 67, 80
1, 126960, Note_on_c, 0, 77, 80
1, 127199, Note_on_c, 0, 77, 0
1, 127200, Note_on_c, 0, 77, 80
1, 127439, Note_on_c, 0, 77, 0
1, 127440, Note_on_c, 0, 77, 80
1, 127679, Note_on_c, 0, 77, 0
1, 127680, Note_on_c, 0, 74, 80
1, 128879, Note_on_c, 0, 74, 0
1, 128880, Note_on_c, 0, 79, 80
1, 129119, Note_on_c, 0, 79, 0
1, 129120, Note_on_c, 0, 79, 80
1, 129359, Note_on_c, 0, 79, 0
1, 129360, Note_on_c, 0, 77, 80
1, 129599, Note_on_c, 0, 77, 0
1, 129599, Note_on_c, 0, 67, 0
1, 129600, Note_on_c, 0, 75, 80
1, 130559, Note_on_c, 0, 75, 0
1, 130560, Note_on_c, 0, 74, 80
1, 130799, Note_on_c, 0, 74, 0
1, 130800, Note_on_c, 0, 79, 80
1, 131039, Note_on_c, 0, 79, 0
1, 131040, Note_on_c, 0, 79, 80
1, 131279, Note_on_c, 0, 79, 0
1, 131280, Note_on_c, 0, 77, 80
1, 131519, Note_on_c, 0, 77, 0
1, 131520, Note_on_c, 0, 75, 80
1, 132479, Note_on_c, 0, 75, 0
1, 132480, Note_on_c, 0, 74, 80
1, 132719, Note_on_c, 0, 74, 0
1, 132720, Note_on_c, 0, 79, 80
1, 132720, Note_on_c, 0, 74, 80
1, 132720, Note_on_c, 0, 67, 80
1, 132959, Note_on_c, 0, 79, 0
1, 132959, Note_on_c, 0, 74, 0
1, 132959, Note_on_c, 0, 67, 0
1, 132960, Note_on_c, 0, 79, 80
1, 132960, Note_on_c, 0, 74, 80
1, 132960, Note_on_c, 0, 67, 80
1, 133199, Note_on_c, 0, 79, 0
1, 133199, Note_on_c, 0, 74, 0
1, 133199, Note_on_c, 0, 67, 0
1, 133200, Note_on_c, 0, 77, 80
1, 133200, Note_on_c, 0, 74, 80
1, 133200, Note_on_c, 0, 67, 80
1, 133439, Note_on_c, 0, 77, 0
1, 133439, Note_on_c, 0, 74, 0
1, 133439, Note_on_c, 0, 67, 0
1, 133440, Note_on_c, 0, 75, 96
1, 133440, Note_on_c, 0, 72, 96
1, 133440, Note_on_c, 0, 67, 96
1, 133919, Note_on_c, 0, 75, 0
1, 133919, Note_on_c, 0, 72, 0
1, 133919, Note_on_c, 0, 67, 0
1, 134400, Note_on_c, 0, 72, 96
1, 134400, Note_on_c, 0, 66, 96
1, 134400, Note_on_c, 0, 60, 96
1, 134879, Note_on_c, 0, 72, 0
1, 134879, Note_on_c, 0, 66, 0
1, 134879, Note_on_c, 0, 60, 0
1, 135360, Note_on_c, 0, 79, 96
1, 135360, Note_on_c, 0, 71, 96
1, 135360, Note_on_c, 0, 67, 96
1, 135839, Note_on_c, 0, 71, 0
1, 135839, Note_on_c, 0, 67, 0
1, 136319, Note_on_c, 0, 79, 0
1, 136560, Note_on_c, 0, 80, 96
1, 136560, Note_on_c, 0, 68, 96
1, 136799, Note_on_c, 0, 80, 0
1, 136799, Note_on_c, 0, 68, 0
1, 136800, Note_on_c, 0, 80, 96
1, 136800, Note_on_c, 0, 68, 96
1, 137039, Note_on_c, 0, 80, 0
1, 137039, Note_on_c, 0, 68, 0
1, 137040, Note_on_c, 0, 80, 96
1, 137040, Note_on_c, 0, 68, 96
1, 137279, Note_on_c, 0, 80, 0
1, 137279, Note_on_c, 0, 68, 0
1, 137280, Note_on_c, 0, 77, 96
1, 137280, Note_on_c, 0, 65, 96
1, 139199, Note_on_c, 0, 77, 0
1, 139199, Note_on_c, 0, 65, 0
1, 139440, Note_on_c, 0, 68, 96
1, 139679, Note_on_c, 0, 68, 0
1, 139680, Note_on_c, 0, 68, 96
1, 139919, Note_on_c, 0, 68, 0
1, 139920, Note_on_c, 0, 68, 96
1, 140159, Note_on_c, 0, 68, 0
1, 140160, Note_on_c, 0, 65, 96
1, 140400, Note_on_c, 0, 62, 96
1, 140639, Note_on_c, 0, 62, 0
1, 140640, Note_on_c, 0, 62, 96
1, 140879, Note_on_c, 0, 62, 0
1, 140880, Note_on_c, 0, 62, 96
1, 141119, Note_on_c, 0, 62, 0
1, 141120, Note_on_c, 0, 59, 96
1, 143039, Note_on_c, 0, 59, 0
1, 143039, Note_on_c, 0, 65, 0
1, 143040, Note_on_c, 0, 60, 96
1, 143040, Note_on_c, 0, 63, 96
1, 143279, Note_on_c, 0, 63, 0
1, 143280, Note_on_c, 0, 68, 96
1, 143519, Note_on_c, 0, 60, 0
1, 143519, Note_on_c, 0, 68, 0
1, 143520, Note_on_c, 0, 68, 96
1, 143759, Note_on_c, 0, 68, 0
1, 143760, Note_on_c, 0, 68, 96
1, 143999, Note_on_c, 0, 68, 0
1, 144000, Note_on_c, 0, 65, 96
1, 144240, Note_on_c, 0, 62, 96
1, 144479, Note_on_c, 0, 62, 0
1, 144480, Note_on_c, 0, 62, 96
1, 144719, Note_on_c, 0, 62, 0
1, 144720, Note_on_c, 0, 62, 96
1, 144959, Note_on_c, 0, 62, 0
1, 144960, Note_on_c, 0, 59, 96
1, 146159, Note_on_c, 0, 59, 0
1, 146159, Note_on_c, 0, 65, 0
1, 146160, Note_on_c, 0, 77, 96
1, 146160, Note_on_c, 0, 74, 96
1, 146399, Note_on_c, 0, 77, 0
1, 146399, Note_on_c, 0, 74, 0
1, 146400, Note_on_c, 0, 77, 96
1, 146400, Note_on_c, 0, 74, 96
1, 146639, Note_on_c, 0, 77, 0
1, 146639, Note_on_c, 0, 74, 0
1, 146640, Note_on_c, 0, 77, 96
1, 146640, Note_on_c, 0, 74, 96
1, 146879, Note_on_c, 0, 77, 0
1, 146879, Note_on_c, 0, 74, 0
1, 146880, Note_on_c, 0, 75, 96
1, 146880, Note_on_c, 0, 72, 96
1, 147119, Note_on_c, 0, 75, 0
1, 147119, Note_on_c, 0, 72, 0
1, 147120, Note_on_c, 0, 67, 96
1, 147120, Note_on_c, 0, 63, 96
1, 147359, Note_on_c, 0, 67, 0
1, 147359, Note_on_c, 0, 63, 0
1, 147360, Note_on_c, 0, 72, 96
1, 147360, Note_on_c, 0, 67, 96
1, 147360, Note_on_c, 0, 63, 96
1, 147599, Note_on_c, 0, 72, 0
1, 147599, Note_on_c, 0, 67, 0
1, 147599, Note_on_c, 0, 63, 0
1, 147600, Note_on_c, 0, 72, 96
1, 147600, Note_on_c, 0, 63, 96
1, 147839, Note_on_c, 0, 72, 0
1, 147839, Note_on_c, 0, 63, 0
1, 147840, Note_on_c, 0, 72, 96
1, 147840, Note_on_c, 0, 68, 96
1, 147840, Note_on_c, 0, 65, 96
1, 147840, Note_on_c, 0, 62, 96
1, 149039, Note_on_c, 0, 72, 0
1, 149039, Note_on_c, 0, 68, 0
1, 149039, Note_on_c, 0, 65, 0
1, 149039, Note_on_c, 0, 62, 0
1, 149040, Note_on_c, 0, 70, 96
1, 149040, Note_on_c, 0, 68, 96
1, 149040, Note_on_c, 0, 65, 96
1, 149279, Note_on_c, 0, 70, 0
1, 149279, Note_on_c, 0, 68, 0
1, 149279, Note_on_c, 0, 65, 0
1, 149280, Note_on_c, 0, 70, 96
1, 149280, Note_on_c, 0, 68, 96
1, 149280, Note_on_c, 0, 65, 96
1, 149519, Note_on_c, 0, 70, 0
1, 149519, Note_on_c, 0, 68, 0
1, 149519, Note_on_c, 0, 65, 0
1, 149520, Note_on_c, 0, 74, 96
1, 149520, Note_on_c, 0, 65, 96
1, 149759, Note_on_c, 0, 74, 0
1, 149759, Note_on_c, 0, 65, 0
1, 149760, Note_on_c, 0, 74, 96
1, 149760, Note_on_c, 0, 67, 96
1, 149760, Note_on_c, 0, 63, 96
1, 150959, Note_on_c, 0, 74, 0
1, 150959, Note_on_c, 0, 67, 0
1, 150959, Note_on_c, 0, 63, 0
1, 150960, Note_on_c, 0, 72, 96
1, 150960, Note_on_c, 0, 67, 96
1, 150960, Note_on_c, 0, 63, 96
1, 151199, Note_on_c, 0, 72, 0
1, 151199, Note_on_c, 0, 67, 0
1, 151199, Note_on_c, 0, 63, 0
1, 151200, Note_on_c, 0, 72, 96
1, 151200, Note_on_c, 0, 67, 96
1, 151200, Note_on_c, 0, 63, 96
1, 151439, Note_on_c, 0, 72, 0
1, 151439, Note_on_c, 0, 67, 0
1, 151439, Note_on_c, 0, 63, 0
1, 151440, Note_on_c, 0, 75, 96
1, 151679, Note_on_c, 0, 75, 0
1, 151680, Note_on_c, 0, 75, 96
1, 151680, Note_on_c, 0, 68, 96
1, 151680, Note_on_c, 0, 65, 96
1, 151919, Note_on_c, 0, 75, 0
1, 151919, Note_on_c, 0, 68, 0
1, 151919, Note_on_c, 0, 65, 0
1, 151920, Note_on_c, 0, 74, 96
1, 152159, Note_on_c, 0, 74, 0
1, 152160, Note_on_c, 0, 74, 96
1, 152279, Note_on_c, 0, 74, 0
1, 152400, Note_on_c, 0, 77, 96
1, 152519, Note_on_c, 0, 77, 0
1, 152640, Note_on_c, 0, 77, 96
1, 152640, Note_on_c, 0, 68, 96
1, 152640, Note_on_c, 0, 65, 96
1, 152879, Note_on_c, 0, 77, 0
1, 152879, Note_on_c, 0, 68, 0
1, 152879, Note_on_c, 0, 65, 0
1, 152880, Note_on_c, 0, 76, 96
1, 153119, Note_on_c, 0, 76, 0
1, 153120, Note_on_c, 0, 76, 96
1, 153239, Note_on_c, 0, 76, 0
1, 153360, Note_on_c, 0, 79, 96
1, 153479, Note_on_c, 0, 79, 0
1, 153600, Note_on_c, 0, 79, 96
1, 153600, Note_on_c, 0, 72, 96
1, 153600, Note_on_c, 0, 68, 96
1, 153839, Note_on_c, 0, 79, 0
1, 153839, Note_on_c, 0, 72, 0
1, 153839, Note_on_c, 0, 68, 0
1, 153840, Note_on_c, 0, 77, 96
1, 154079, Note_on_c, 0, 77, 0
1, 154080, Note_on_c, 0, 77, 96
1, 154199, Note_on_c, 0, 77, 0
1, 154320, Note_on_c, 0, 80, 96
1, 154439, Note_on_c, 0, 80, 0
1, 154560, Note_on_c, 0, 80, 96
1, 154560, Note_on_c, 0, 76, 96
1, 154560, Note_on_c, 0, 70, 96
1, 154799, Note_on_c, 0, 80, 0
1, 154799, Note_on_c, 0, 76, 0
1, 154799, Note_on_c, 0, 70, 0
1, 154800, Note_on_c, 0, 79, 96
1, 155039, Note_on_c, 0, 79, 0
1, 155040, Note_on_c, 0, 79, 96
1, 155159, Note_on_c, 0, 79, 0
1, 155280, Note_on_c, 0, 82, 96
1, 155399, Note_on_c, 0, 82, 0
1, 155520, Note_on_c, 0, 82, 96
1, 155520, Note_on_c, 0, 77, 96
1, 155759, Note_on_c, 0, 82, 0
1, 155759, Note_on_c, 0, 77, 0
1, 155760, Note_on_c, 0, 80, 96
1, 155999, Note_on_c, 0, 80, 0
1, 156000, Note_on_c, 0, 80, 96
1, 156119, Note_on_c, 0, 80, 0
1, 156240, Note_on_c, 0, 84, 96
1, 156359, Note_on_c, 0, 84, 0
1, 156480, Note_on_c, 0, 84, 96
1, 156480, Note_on_c, 0, 80, 96
1, 156480, Note_on_c, 0, 77, 96
1, 156719, Note_on_c, 0, 84, 0
1, 156719, Note_on_c, 0, 80, 0
1, 156719, Note_on_c, 0, 77, 0
1, 156720, Note_on_c, 0, 83, 96
1, 156959, Note_on_c, 0, 83, 0
1, 156960, Note_on_c, 0, 83, 96
1, 157079, Note_on_c, 0, 83, 0
1, 157200, Note_on_c, 0, 86, 96
1, 157319, Note_on_c, 0, 86, 0
1, 157440, Note_on_c, 0, 84, 96
1, 157440, Note_on_c, 0, 79, 96
1, 157440, Note_on_c, 0, 75, 96
1, 157679, Note_on_c, 0, 84, 0
1, 157679, Note_on_c, 0, 79, 0
1, 157679, Note_on_c, 0, 75, 0
1, 157680, Note_on_c, 0, 87, 96
1, 157919, Note_on_c, 0, 87, 0
1, 157920, Note_on_c, 0, 87, 96
1, 158159, Note_on_c, 0, 87, 0
1, 158160, Note_on_c, 0, 87, 96
1, 158399, Note_on_c, 0, 87, 0
1, 158400, Note_on_c, 0, 84, 96
1, 158639, Note_on_c, 0, 84, 0
1, 158640, Note_on_c, 0, 79, 96
1, 158879, Note_on_c, 0, 79, 0
1, 158880, Note_on_c, 0, 79, 96
1, 159119, Note_on_c, 0, 79, 0
1, 159120, Note_on_c, 0, 79, 96
1, 159359, Note_on_c, 0, 79, 0
1, 159360, Note_on_c, 0, 75, 96
1, 159599, Note_on_c, 0, 75, 0
1, 159600, Note_on_c, 0, 72, 96
1, 159839, Note_on_c, 0, 72, 0
1, 159840, Note_on_c, 0, 67, 96
1, 160079, Note_on_c, 0, 67, 0
1, 160080, Note_on_c, 0, 67, 96
1, 160319, Note_on_c, 0, 67, 0
1, 160320, Note_on_c, 0, 63, 96
1, 160559, Note_on_c, 0, 63, 0
1, 160560, Note_on_c, 0, 60, 96
1, 160799, Note_on_c, 0, 60, 0
1, 160800, Note_on_c, 0, 60, 96
1, 161039, Note_on_c, 0, 60, 0
1, 161040, Note_on_c, 0, 60, 96
1, 161279, Note_on_c, 0, 60, 0
1, 161280, Note_on_c, 0, 59, 96
1, 161519, Note_on_c, 0, 59, 0
1, 161520, Note_on_c, 0, 86, 96
1, 161759, Note_on_c, 0, 86, 0
1, 161760, Note_on_c, 0, 86, 96
1, 161999, Note_on_c, 0, 86, 0
1, 162000, Note_on_c, 0, 86, 96
1, 162239, Note_on_c, 0, 86, 0
1, 162240, Note_on_c, 0, 83, 96
1, 162479, Note_on_c, 0, 83, 0
1, 162480, Note_on_c, 0, 79, 96
1, 162719, Note_on_c, 0, 79, 0
1, 162720, Note_on_c, 0, 77, 96
1, 162959, Note_on_c, 0, 77, 0
1, 162960, Note_on_c, 0, 77, 96
1, 163199, Note_on_c, 0, 77, 0
1, 163200, Note_on_c, 0, 74, 96
1, 163439, Note_on_c, 0, 74, 0
1, 163440, Note_on_c, 0, 71, 96
1, 163679, Note_on_c, 0, 71, 0
1, 163680, Note_on_c, 0, 67, 96
1, 163919, Note_on_c, 0, 67, 0
1, 163920, Note_on_c, 0, 65, 96
1, 164159, Note_on_c, 0, 65, 0
1, 164160, Note_on_c, 0, 62, 96
1, 164399, Note_on_c, 0, 62, 0
1, 164400, Note_on_c, 0, 59, 96
1, 164639, Note_on_c, 0, 59, 0
1, 164640, Note_on_c, 0, 60, 96
1, 164879, Note_on_c, 0, 60, 0
1, 164880, Note_on_c, 0, 60, 96
1, 165119, Note_on_c, 0, 60, 0
1, 165120, Note_on_c, 0, 60, 96
1, 165359, Note_on_c, 0, 60, 0
1, 165360, Note_on_c, 0, 87, 96
1, 165599, Note_on_c, 0, 87, 0
1, 165600, Note_on_c, 0, 87, 96
1, 165839, Note_on_c, 0, 87, 0
1, 165840, Note_on_c, 0, 87, 96
1, 166079, Note_on_c, 0, 87, 0
1, 166080, Note_on_c, 0, 84, 96
1, 166319, Note_on_c, 0, 84, 0
1, 166320, Note_on_c, 0, 81, 96
1, 166559, Note_on_c, 0, 81, 0
1, 166560, Note_on_c, 0, 81, 96
1, 166799, Note_on_c, 0, 81, 0
1, 166800, Note_on_c, 0, 81, 96
1, 167039, Note_on_c, 0, 81, 0
1, 167040, Note_on_c, 0, 78, 96
1, 167279, Note_on_c, 0, 78, 0
1, 167280, Note_on_c, 0, 75, 96
1, 167519, Note_on_c, 0, 75, 0
1, 167520, Note_on_c, 0, 75, 96
1, 167759, Note_on_c, 0, 75, 0
1, 167760, Note_on_c, 0, 75, 96
1, 167999, Note_on_c, 0, 75, 0
1, 168000, Note_on_c, 0, 72, 96
1, 168239, Note_on_c, 0, 72, 0
1, 168240, Note_on_c, 0, 69, 96
1, 168479, Note_on_c, 0, 69, 0
1, 168480, Note_on_c, 0, 69, 96
1, 168719, Note_on_c, 0, 69, 0
1, 168720, Note_on_c, 0, 69, 96
1, 168959, Note_on_c, 0, 69, 0
1, 168960, Note_on_c, 0, 80, 96
1, 168960, Note_on_c, 0, 79, 96
1, 168960, Note_on_c, 0, 75, 96
1, 168960, Note_on_c, 0, 68, 96
1, 169439, Note_on_c, 0, 80, 0
1, 169439, Note_on_c, 0, 79, 0
1, 169439, Note_on_c, 0, 75, 0
1, 169439, Note_on_c, 0, 68, 0
1, 169920, Note_on_c, 0, 82, 96
1, 169920, Note_on_c, 0, 77, 96
1, 169920, Note_on_c, 0, 70, 96
1, 170399, Note_on_c, 0, 82, 0
1, 170399, Note_on_c, 0, 77, 0
1, 170399, Note_on_c, 0, 70, 0
1, 171120, Note_on_c, 0, 70, 96
1, 171359, Note_on_c, 0, 70, 0
1, 171360, Note_on_c, 0, 70, 96
1, 171599, Note_on_c, 0, 70, 0
1, 171600, Note_on_c, 0, 70, 96
1, 171839, Note_on_c, 0, 70, 0
1, 174720, Note_on_c, 0, 67, 96
1, 174720, Note_on_c, 0, 70, 96
1, 175199, Note_on_c, 0, 70, 0
1, 175200, Note_on_c, 0, 75, 96
1, 175679, Note_on_c, 0, 67, 0
1, 175679, Note_on_c, 0, 75, 0
1, 175680, Note_on_c, 0, 68, 96
1, 175680, Note_on_c, 0, 74, 96
1, 176159, Note_on_c, 0, 74, 0
1, 176160, Note_on_c, 0, 75, 96
1, 176639, Note_on_c, 0, 68, 0
1, 176639, Note_on_c, 0, 75, 0
1, 176640, Note_on_c, 0, 68, 96
1, 176640, Note_on_c, 0, 77, 96
1, 177119, Note_on_c, 0, 77, 0
1, 177120, Note_on_c, 0, 72, 96
1, 177599, Note_on_c, 0, 68, 0
1, 177599, Note_on_c, 0, 72, 0
1, 177600, Note_on_c, 0, 67, 96
1, 177600, Note_on_c, 0, 63, 96
1, 177600, Note_on_c, 0, 72, 96
1, 178079, Note_on_c, 0, 72, 0
1, 178080, Note_on_c, 0, 70, 96
1, 178559, Note_on_c, 0, 67, 0
1, 178559, Note_on_c, 0, 63, 0
1, 178559, Note_on_c, 0, 70, 0
1, 178560, Note_on_c, 0, 67, 96
1, 178560, Note_on_c, 0, 70, 96
1, 179039, Note_on_c, 0, 70, 0
1, 179040, Note_on_c, 0, 75, 96
1, 179519, Note_on_c, 0, 67, 0
1, 179519, Note_on_c, 0, 75, 0
1, 179520, Note_on_c, 0, 68, 96
1, 179520, Note_on_c, 0, 74, 96
1, 179999, Note_on_c, 0, 74, 0
1, 180000, Note_on_c, 0, 75, 96
1, 180479, Note_on_c, 0, 68, 0
1, 180479, Note_on_c, 0, 75, 0
1, 180480, Note_on_c, 0, 68, 96
1, 180480, Note_on_c, 0, 77, 96
1, 180959, Note_on_c, 0, 77, 0
1, 180960, Note_on_c, 0, 72, 96
1, 181439, Note_on_c, 0, 68, 0
1, 181439, Note_on_c, 0, 72, 0
1, 181440, Note_on_c, 0, 67, 96
1, 181440, Note_on_c, 0, 63, 96
1, 181440, Note_on_c, 0, 72, 96
1, 181919, Note_on_c, 0, 72, 0
1, 181920, Note_on_c, 0, 70, 96
1, 182399, Note_on_c, 0, 67, 0
1, 182399, Note_on_c, 0, 63, 0
1, 182399, Note_on_c, 0, 70, 0
1, 182400, Note_on_c, 0, 82, 96
1, 182400, Note_on_c, 0, 70, 96
1, 182879, Note_on_c, 0, 82, 0
1, 182879, Note_on_c, 0, 70, 0
1, 182880, Note_on_c, 0, 87, 96
1, 182880, Note_on_c, 0, 75, 96
1, 183359, Note_on_c, 0, 87, 0
1, 183359, Note_on_c, 0, 75, 0
1, 183360, Note_on_c, 0, 86, 96
1, 183360, Note_on_c, 0, 74, 96
1, 183839, Note_on_c, 0, 86, 0
1, 183839, Note_on_c, 0, 74, 0
1, 183840, Note_on_c, 0, 87, 96
1, 183840, Note_on_c, 0, 75, 96
1, 184319, Note_on_c, 0, 87, 0
1, 184319, Note_on_c, 0, 75, 0
1, 184320, Note_on_c, 0, 89, 96
1, 184320, Note_on_c, 0, 77, 96
1, 184799, Note_on_c, 0, 89, 0
1, 184799, Note_on_c, 0, 77, 0
1, 184800, Note_on_c, 0, 84, 96
1, 184800, Note_on_c, 0, 72, 96
1, 185279, Note_on_c, 0, 84, 0
1, 185279, Note_on_c, 0, 72, 0
1, 185280, Note_on_c, 0, 84, 96
1, 185280, Note_on_c, 0, 72, 96
1, 185759, Note_on_c, 0, 84, 0
1, 185759, Note_on_c, 0, 72, 0
1, 185760, Note_on_c, 0, 82, 96
1, 185760, Note_on_c, 0, 70, 96
1, 186239, Note_on_c, 0, 82, 0
1, 186239, Note_on_c, 0, 70, 0
1, 186240, Note_on_c, 0, 67, 96
1, 186240, Note_on_c, 0, 63, 96
1, 186240, Note_on_c, 0, 70, 96
1, 186719, Note_on_c, 0, 70, 0
1, 186720, Note_on_c, 0, 72, 96
1, 187199, Note_on_c, 0, 67, 0
1, 187199, Note_on_c, 0, 63, 0
1, 187199, Note_on_c, 0, 72, 0
1, 187200, Note_on_c, 0, 67, 96
1, 187200, Note_on_c, 0, 64, 96
1, 187200, Note_on_c, 0, 73, 96
1, 187679, Note_on_c, 0, 73, 0
1, 187680, Note_on_c, 0, 72, 96
1, 188159, Note_on_c, 0, 67, 0
1, 188159, Note_on_c, 0, 64, 0
1, 188159, Note_on_c, 0, 72, 0
1, 188160, Note_on_c, 0, 67, 96
1, 188160, Note_on_c, 0, 64, 96
1, 188160, Note_on_c, 0, 70, 96
1, 188639, Note_on_c, 0, 70, 0
1, 188640, Note_on_c, 0, 72, 96
1, 189119, Note_on_c, 0, 67, 0
1, 189119, Note_on_c, 0, 64, 0
1, 189119, Note_on_c, 0, 72, 0
1, 189120, Note_on_c, 0, 65, 96
1, 189120, Note_on_c, 0, 60, 96
1, 189120, Note_on_c, 0, 70, 96
1, 189599, Note_on_c, 0, 70, 0
1, 189600, Note_on_c, 0, 68, 96
1, 190079, Note_on_c, 0, 65, 0
1, 190079, Note_on_c, 0, 60, 0
1, 190079, Note_on_c, 0, 68, 0
1, 190080, Note_on_c, 0, 68, 96
1, 190080, Note_on_c, 0, 65, 96
1, 190080, Note_on_c, 0, 73, 96
1, 190559, Note_on_c, 0, 73, 0
1, 190560, Note_on_c, 0, 75, 96
1, 191039, Note_on_c, 0, 68, 0
1, 191039, Note_on_c, 0, 65, 0
1, 191039, Note_on_c, 0, 75, 0
1, 191040, Note_on_c, 0, 70, 96
1, 191040, Note_on_c, 0, 67, 96
1, 191040, Note_on_c, 0, 77, 96
1, 191519, Note_on_c, 0, 77, 0
1, 191520, Note_on_c, 0, 75, 96
1, 191999, Note_on_c, 0, 70, 0
1, 191999, Note_on_c, 0, 67, 0
1, 191999, Note_on_c, 0, 75, 0
1, 192000, Note_on_c, 0, 70, 96
1, 192000, Note_on_c, 0, 67, 96
1, 192000, Note_on_c, 0, 73, 96
1, 192479, Note_on_c, 0, 73, 0
1, 192480, Note_on_c, 0, 75, 96
1, 192959, Note_on_c, 0, 70, 0
1, 192959, Note_on_c, 0, 67, 0
1, 192959, Note_on_c, 0, 75, 0
1, 192960, Note_on_c, 0, 68, 96
1, 192960, Note_on_c, 0, 63, 96
1, 192960, Note_on_c, 0, 73, 96
1, 193439, Note_on_c, 0, 73, 0
1, 193440, Note_on_c, 0, 72, 96
1, 193919, Note_on_c, 0, 68, 0
1, 193919, Note_on_c, 0, 63, 0
1, 193919, Note_on_c, 0, 72, 0
1, 193920, Note_on_c, 0, 72, 96
1, 193920, Note_on_c, 0, 75, 96
1, 193920, Note_on_c, 0, 63, 96
1, 194399, Note_on_c, 0, 75, 0
1, 194399, Note_on_c, 0, 63, 0
1, 194400, Note_on_c, 0, 77, 96
1, 194400, Note_on_c, 0, 65, 96
1, 194879, Note_on_c, 0, 72, 0
1, 194879, Note_on_c, 0, 77, 0
1, 194879, Note_on_c, 0, 65, 0
1, 194880, Note_on_c, 0, 75, 96
1, 194880, Note_on_c, 0, 72, 96
1, 194880, Note_on_c, 0, 78, 96
1, 194880, Note_on_c, 0, 66, 96
1, 195359, Note_on_c, 0, 78, 0
1, 195359, Note_on_c, 0, 66, 0
1, 195360, Note_on_c, 0, 77, 96
1, 195360, Note_on_c, 0, 65, 96
1, 195839, Note_on_c, 0, 75, 0
1, 195839, Note_on_c, 0, 72, 0
1, 195839, Note_on_c, 0, 77, 0
1, 195839, Note_on_c, 0, 65, 0
1, 195840, Note_on_c, 0, 75, 96
1, 195840, Note_on_c, 0, 63, 96
1, 196319, Note_on_c, 0, 75, 0
1, 196319, Note_on_c, 0, 63, 0
1, 196320, Note_on_c, 0, 77, 96
1, 196320, Note_on_c, 0, 65, 96
1, 196799, Note_on_c, 0, 77, 0
1, 196799, Note_on_c, 0, 65, 0
1, 196800, Note_on_c, 0, 75, 96
1, 196800, Note_on_c, 0, 70, 96
1, 196800, Note_on_c, 0, 78, 96
1, 196800, Note_on_c, 0, 66, 96
1, 197279, Note_on_c, 0, 78, 0
1, 197279, Note_on_c, 0, 66, 0
1, 197280, Note_on_c, 0, 77, 96
1, 197280, Note_on_c, 0, 65, 96
1, 197759, Note_on_c, 0, 75, 0
1, 197759, Note_on_c, 0, 70, 0
1, 197759, Note_on_c, 0, 77, 0
1, 197759, Note_on_c, 0, 65, 0
1, 197760, Note_on_c, 0, 75, 96
1, 197760, Note_on_c, 0, 63, 96
1, 198239, Note_on_c, 0, 75, 0
1, 198239, Note_on_c, 0, 63, 0
1, 198240, Note_on_c, 0, 77, 96
1, 198240, Note_on_c, 0, 65, 96
1, 198719, Note_on_c, 0, 77, 0
1, 198719, Note_on_c, 0, 65, 0
1, 198720, Note_on_c, 0, 75, 96
1, 198720, Note_on_c, 0, 68, 96
1, 198720, Note_on_c, 0, 78, 96
1, 198720, Note_on_c, 0, 67, 96
1, 199199, Note_on_c, 0, 78, 0
1, 199199, Note_on_c, 0, 67, 0
1, 199200, Note_on_c, 0, 77, 96
1, 199200, Note_on_c, 0, 65, 96
1, 199679, Note_on_c, 0, 75, 0
1, 199679, Note_on_c, 0, 68, 0
1, 199679, Note_on_c, 0, 77, 0
1, 199679, Note_on_c, 0, 65, 0
1, 199680, Note_on_c, 0, 75, 96
1, 199680, Note_on_c, 0, 63, 96
1, 200159, Note_on_c, 0, 75, 0
1, 200159, Note_on_c, 0, 63, 0
1, 200160, Note_on_c, 0, 77, 96
1, 200160, Note_on_c, 0, 65, 96
1, 200639, Note_on_c, 0, 77, 0
1, 200639, Note_on_c, 0, 65, 0
1, 200640, Note_on_c, 0, 75, 96
1, 200640, Note_on_c, 0, 68, 96
1, 200640, Note_on_c, 0, 78, 96
1, 200640, Note_on_c, 0, 67, 96
1, 201119, Note_on_c, 0, 78, 0
1, 201119, Note_on_c, 0, 67, 0
1, 201120, Note_on_c, 0, 77, 96
1, 201120, Note_on_c, 0, 65, 96
1, 201599, Note_on_c, 0, 75, 0
1, 201599, Note_on_c, 0, 68, 0
1, 201599, Note_on_c, 0, 77, 0
1, 201599, Note_on_c, 0, 65, 0
1, 201600, Note_on_c, 0, 75, 96
1, 201600, Note_on_c, 0, 62, 96
1, 202079, Note_on_c, 0, 75, 0
1, 202079, Note_on_c, 0, 62, 0
1, 202080, Note_on_c, 0, 77, 96
1, 202080, Note_on_c, 0, 65, 96
1, 202559, Note_on_c, 0, 77, 0
1, 202559, Note_on_c, 0, 65, 0
1, 202560, Note_on_c, 0, 75, 96
1, 202560, Note_on_c, 0, 68, 96
1, 202560, Note_on_c, 0, 78, 96
1, 202560, Note_on_c, 0, 67, 96
1, 203039, Note_on_c, 0, 78, 0
1, 203039, Note_on_c, 0, 67, 0
1, 203040, Note_on_c, 0, 77, 96
1, 203040, Note_on_c, 0, 65, 96
1, 203519, Note_on_c, 0, 75, 0
1, 203519, Note_on_c, 0, 68, 0
1, 203519, Note_on_c, 0, 77, 0
1, 203519, Note_on_c, 0, 65, 0
1, 203520, Note_on_c, 0, 78, 96
1, 203520, Note_on_c, 0, 66, 96
1, 203999, Note_on_c, 0, 78, 0
1, 203999, Note_on_c, 0, 66, 0
1, 204000, Note_on_c, 0, 80, 96
1, 204000, Note_on_c, 0, 79, 96
1, 204000, Note_on_c, 0, 75, 96
1, 204000, Note_on_c, 0, 69, 96
1, 204479, Note_on_c, 0, 80, 0
1, 204479, Note_on_c, 0, 79, 0
1, 204479, Note_on_c, 0, 75, 0
1, 204479, Note_on_c, 0, 69, 0
1, 204480, Note_on_c, 0, 82, 96
1, 204480, Note_on_c, 0, 80, 96
1, 204480, Note_on_c, 0, 77, 96
1, 204480, Note_on_c, 0, 70, 96
1, 205679, Note_on_c, 0, 82, 0
1, 205679, Note_on_c, 0, 80, 0
1, 205679, Note_on_c, 0, 77, 0
1, 205679, Note_on_c, 0, 70, 0
1, 205680, Note_on_c, 0, 84, 96
1, 205799, Note_on_c, 0, 84, 0
1, 205920, Note_on_c, 0, 82, 96
1, 206039, Note_on_c, 0, 82, 0
1, 206160, Note_on_c, 0, 80, 96
1, 206279, Note_on_c, 0, 80, 0
1, 206400, Note_on_c, 0, 80, 96
1, 206400, Note_on_c, 0, 75, 96
1, 206400, Note_on_c, 0, 70, 96
1, 206639, Note_on_c, 0, 80, 0
1, 206639, Note_on_c, 0, 75, 0
1, 206639, Note_on_c, 0, 70, 0
1, 206640, Note_on_c, 0, 79, 96
1, 206879, Note_on_c, 0, 79, 0
1, 206880, Note_on_c, 0, 77, 96
1, 206999, Note_on_c, 0, 77, 0
1, 207120, Note_on_c, 0, 75, 96
1, 207239, Note_on_c, 0, 75, 0
1, 207360, Note_on_c, 0, 75, 96
1, 207360, Note_on_c, 0, 68, 96
1, 207599, Note_on_c, 0, 75, 0
1, 207599, Note_on_c, 0, 68, 0
1, 207600, Note_on_c, 0, 74, 96
1, 207839, Note_on_c, 0, 74, 0
1, 207840, Note_on_c, 0, 72, 96
1, 207959, Note_on_c, 0, 72, 0
1, 208080, Note_on_c, 0, 74, 96
1, 208199, Note_on_c, 0, 74, 0
1, 208320, Note_on_c, 0, 77, 96
1, 208320, Note_on_c, 0, 67, 96
1, 208559, Note_on_c, 0, 77, 0
1, 208559, Note_on_c, 0, 67, 0
1, 208560, Note_on_c, 0, 75, 96
1, 208799, Note_on_c, 0, 75, 0
1, 208800, Note_on_c, 0, 70, 96
1, 208919, Note_on_c, 0, 70, 0
1, 209040, Note_on_c, 0, 67, 96
1, 209159, Note_on_c, 0, 67, 0
1, 209280, Note_on_c, 0, 74, 96
1, 209280, Note_on_c, 0, 65, 96
1, 209519, Note_on_c, 0, 74, 0
1, 209519, Note_on_c, 0, 65, 0
1, 209520, Note_on_c, 0, 72, 96
1, 209759, Note_on_c, 0, 72, 0
1, 209760, Note_on_c, 0, 68, 96
1, 209879, Note_on_c, 0, 68, 0
1, 210000, Note_on_c, 0, 65, 96
1, 210119, Note_on_c, 0, 65, 0
1, 210240, Note_on_c, 0, 72, 96
1, 210240, Note_on_c, 0, 63, 96
1, 210479, Note_on_c, 0, 72, 0
1, 210479, Note_on_c, 0, 63, 0
1, 210480, Note_on_c, 0, 70, 96
1, 210719, Note_on_c, 0, 70, 0
1, 210720, Note_on_c, 0, 67, 96
1, 210839, Note_on_c, 0, 67, 0
1, 210960, Note_on_c, 0, 63, 96
1, 211079, Note_on_c, 0, 63, 0
1, 211440, Note_on_c, 0, 81, 96
1, 211679, Note_on_c, 0, 81, 0
1, 211680, Note_on_c, 0, 82, 96
1, 211919, Note_on_c, 0, 82, 0
1, 211920, Note_on_c, 0, 81, 96
1, 212159, Note_on_c, 0, 81, 0
1, 212160, Note_on_c, 0, 77, 96
1, 212160, Note_on_c, 0, 82, 96
1, 212399, Note_on_c, 0, 82, 0
1, 212400, Note_on_c, 0, 81, 96
1, 212639, Note_on_c, 0, 81, 0
1, 212640, Note_on_c, 0, 82, 96
1, 212879, Note_on_c, 0, 82, 0
1, 212880, Note_on_c, 0, 81, 96
1, 213119, Note_on_c, 0, 81, 0
1, 213120, Note_on_c, 0, 82, 96
1, 213239, Note_on_c, 0, 82, 0
1, 213360, Note_on_c, 0, 84, 96
1, 213479, Note_on_c, 0, 84, 0
1, 213599, Note_on_c, 0, 77, 0
1, 213600, Note_on_c, 0, 82, 96
1, 213719, Note_on_c, 0, 82, 0
1, 213840, Note_on_c, 0, 80, 96
1, 213959, Note_on_c, 0, 80, 0
1, 214080, Note_on_c, 0, 70, 96
1, 214080, Note_on_c, 0, 80, 96
1, 214080, Note_on_c, 0, 75, 96
1, 214319, Note_on_c, 0, 80, 0
1, 214319, Note_on_c, 0, 75, 0
1, 214320, Note_on_c, 0, 77, 96
1, 214559, Note_on_c, 0, 70, 0
1, 214559, Note_on_c, 0, 77, 0
1, 214560, Note_on_c, 0, 70, 96
1, 214560, Note_on_c, 0, 77, 96
1, 214679, Note_on_c, 0, 77, 0
1, 214800, Note_on_c, 0, 75, 96
1, 214919, Note_on_c, 0, 75, 0
1, 215039, Note_on_c, 0, 70, 0
1, 215040, Note_on_c, 0, 75, 96
1, 215279, Note_on_c, 0, 75, 0
1, 215280, Note_on_c, 0, 74, 96
1, 215519, Note_on_c, 0, 74, 0
1, 215520, Note_on_c, 0, 70, 96
1, 215520, Note_on_c, 0, 72, 96
1, 215639, Note_on_c, 0, 72, 0
1, 215760, Note_on_c, 0, 74, 96
1, 215879, Note_on_c, 0, 74, 0
1, 215999, Note_on_c, 0, 70, 0
1, 216000, Note_on_c, 0, 77, 96
1, 216239, Note_on_c, 0, 77, 0
1, 216240, Note_on_c, 0, 75, 96
1, 216479, Note_on_c, 0, 75, 0
1, 216480, Note_on_c, 0, 63, 96
1, 216480, Note_on_c, 0, 70, 96
1, 216599, Note_on_c, 0, 70, 0
1, 216720, Note_on_c, 0, 67, 96
1, 216839, Note_on_c, 0, 67, 0
1, 216959, Note_on_c, 0, 63, 0
1, 216960, Note_on_c, 0, 74, 96
1, 217199, Note_on_c, 0, 74, 0
1, 217200, Note_on_c, 0, 72, 96
1, 217439, Note_on_c, 0, 72, 0
1, 217440, Note_on_c, 0, 67, 96
1, 217559, Note_on_c, 0, 67, 0
1, 217680, Note_on_c, 0, 65, 96
1, 217799, Note_on_c, 0, 65, 0
1, 217920, Note_on_c, 0, 72, 96
1, 218159, Note_on_c, 0, 72, 0
1, 218160, Note_on_c, 0, 70, 96
1, 218399, Note_on_c, 0, 70, 0
1, 218400, Note_on_c, 0, 67, 96
1, 218519, Note_on_c, 0, 67, 0
1, 218640, Note_on_c, 0, 63, 96
1, 218759, Note_on_c, 0, 63, 0
1, 218880, Note_on_c, 0, 62, 96
1, 219119, Note_on_c, 0, 62, 0
1, 219120, Note_on_c, 0, 70, 96
1, 219359, Note_on_c, 0, 70, 0
1, 219360, Note_on_c, 0, 82, 96
1, 219599, Note_on_c, 0, 82, 0
1, 219600, Note_on_c, 0, 82, 96
1, 219839, Note_on_c, 0, 82, 0
1, 219840, Note_on_c, 0, 75, 96
1, 220079, Note_on_c, 0, 75, 0
1, 220080, Note_on_c, 0, 91, 96
1, 220080, Note_on_c, 0, 79, 96
1, 220319, Note_on_c, 0, 91, 0
1, 220319, Note_on_c, 0, 79, 0
1, 220320, Note_on_c, 0, 91, 96
1, 220320, Note_on_c, 0, 79, 96
1, 220559, Note_on_c, 0, 91, 0
1, 220559, Note_on_c, 0, 79, 0
1, 220560, Note_on_c, 0, 91, 96
1, 220560, Note_on_c, 0, 79, 96
1, 220799, Note_on_c, 0, 91, 0
1, 220799, Note_on_c, 0, 79, 0
1, 220800, Note_on_c, 0, 87, 96
1, 221039, Note_on_c, 0, 87, 0
1, 221040, Note_on_c, 0, 82, 96
1, 221040, Note_on_c, 0, 70, 96
1, 221279, Note_on_c, 0, 82, 0
1, 221279, Note_on_c, 0, 70, 0
1, 221280, Note_on_c, 0, 82, 96
1, 221280, Note_on_c, 0, 70, 96
1, 221519, Note_on_c, 0, 82, 0
1, 221519, Note_on_c, 0, 70, 0
1, 221520, Note_on_c, 0, 82, 96
1, 221520, Note_on_c, 0, 70, 96
1, 221759, Note_on_c, 0, 82, 0
1, 221759, Note_on_c, 0, 70, 0
1, 221760, Note_on_c, 0, 79, 96
1, 221999, Note_on_c, 0, 79, 0
1, 222000, Note_on_c, 0, 75, 96
1, 222000, Note_on_c, 0, 63, 96
1, 222239, Note_on_c, 0, 75, 0
1, 222239, Note_on_c, 0, 63, 0
1, 222240, Note_on_c, 0, 75, 96
1, 222240, Note_on_c, 0, 63, 96
1, 222479, Note_on_c, 0, 75, 0
1, 222479, Note_on_c, 0, 63, 0
1, 222480, Note_on_c, 0, 75, 96
1, 222480, Note_on_c, 0, 63, 96
1, 222719, Note_on_c, 0, 75, 0
1, 222719, Note_on_c, 0, 63, 0
1, 222720, Note_on_c, 0, 70, 96
1, 222959, Note_on_c, 0, 70, 0
1, 222960, Note_on_c, 0, 77, 96
1, 222960, Note_on_c, 0, 74, 96
1, 222960, Note_on_c, 0, 65, 96
1, 223199, Note_on_c, 0, 77, 0
1, 223199, Note_on_c, 0, 74, 0
1, 223199, Note_on_c, 0, 65, 0
1, 223200, Note_on_c, 0, 77, 96
1, 223200, Note_on_c, 0, 74, 96
1, 223200, Note_on_c, 0, 65, 96
1, 223439, Note_on_c, 0, 77, 0
1, 223439, Note_on_c, 0, 74, 0
1, 223439, Note_on_c, 0, 65, 0
1, 223440, Note_on_c, 0, 77, 96
1, 223440, Note_on_c, 0, 74, 96
1, 223440, Note_on_c, 0, 65, 96
1, 223679, Note_on_c, 0, 77, 0
1, 223679, Note_on_c, 0, 74, 0
1, 223679, Note_on_c, 0, 65, 0
1, 223680, Note_on_c, 0, 79, 96
1, 223680, Note_on_c, 0, 75, 96
1, 223680, Note_on_c, 0, 67, 96
1, 223919, Note_on_c, 0, 79, 0
1, 223919, Note_on_c, 0, 75, 0
1, 223919, Note_on_c, 0, 67, 0
1, 223920, Note_on_c, 0, 91, 96
1, 223920, Note_on_c, 0, 79, 96
1, 224159, Note_on_c, 0, 91, 0
1, 224159, Note_on_c, 0, 79, 0
1, 224160, Note_on_c, 0, 91, 96
1, 224160, Note_on_c, 0, 79, 96
1, 224399, Note_on_c, 0, 91, 0
1, 224399, Note_on_c, 0, 79, 0
1, 224400, Note_on_c, 0, 91, 96
1, 224400, Note_on_c, 0, 79, 96
1, 224639, Note_on_c, 0, 91, 0
1, 224639, Note_on_c, 0, 79, 0
1, 224640, Note_on_c, 0, 87, 96
1, 224879, Note_on_c, 0, 87, 0
1, 224880, Note_on_c, 0, 82, 96
1, 224880, Note_on_c, 0, 70, 96
1, 225119, Note_on_c, 0, 82, 0
1, 225119, Note_on_c, 0, 70, 0
1, 225120, Note_on_c, 0, 82, 96
1, 225120, Note_on_c, 0, 70, 96
1, 225359, Note_on_c, 0, 82, 0
1, 225359, Note_on_c, 0, 70, 0
1, 225360, Note_on_c, 0, 82, 96
1, 225360, Note_on_c, 0, 70, 96
1, 225599, Note_on_c, 0, 82, 0
1, 225599, Note_on_c, 0, 70, 0
1, 225600, Note_on_c, 0, 79, 96
1, 225839, Note_on_c, 0, 79, 0
1, 225840, Note_on_c, 0, 75, 96
1, 225840, Note_on_c, 0, 63, 96
1, 226079, Note_on_c, 0, 75, 0
1, 226079, Note_on_c, 0, 63, 0
1, 226080, Note_on_c, 0, 75, 96
1, 226080, Note_on_c, 0, 63, 96
1, 226319, Note_on_c, 0, 75, 0
1, 226319, Note_on_c, 0, 63, 0
1, 226320, Note_on_c, 0, 75, 96
1, 226320, Note_on_c, 0, 63, 96
1, 226559, Note_on_c, 0, 75, 0
1, 226559, Note_on_c, 0, 63, 0
1, 226560, Note_on_c, 0, 70, 96
1, 226799, Note_on_c, 0, 70, 0
1, 226800, Note_on_c, 0, 82, 96
1, 226800, Note_on_c, 0, 77, 96
1, 226800, Note_on_c, 0, 74, 96
1, 226800, Note_on_c, 0, 70, 96
1, 227039, Note_on_c, 0, 82, 0
1, 227039, Note_on_c, 0, 77, 0
1, 227039, Note_on_c, 0, 74, 0
1, 227039, Note_on_c, 0, 70, 0
1, 227040, Note_on_c, 0, 82, 96
1, 227040, Note_on_c, 0, 77, 96
1, 227040, Note_on_c, 0, 74, 96
1, 227040, Note_on_c, 0, 70, 96
1, 227279, Note_on_c, 0, 82, 0
1, 227279, Note_on_c, 0, 77, 0
1, 227279, Note_on_c, 0, 74, 0
1, 227279, Note_on_c, 0, 70, 0
1, 227280, Note_on_c, 0, 82, 96
1, 227280, Note_on_c, 0, 77, 96
1, 227280, Note_on_c, 0, 74, 96
1, 227280, Note_on_c, 0, 70, 96
1, 227519, Note_on_c, 0, 82, 0
1, 227519, Note_on_c, 0, 77, 0
1, 227519, Note_on_c, 0, 74, 0
1, 227519, Note_on_c, 0, 70, 0
1, 227520, Note_on_c, 0, 82, 96
1, 227520, Note_on_c, 0, 79, 96
1, 227520, Note_on_c, 0, 75, 96
1, 227520, Note_on_c, 0, 70, 96
1, 227999, Note_on_c, 0, 82, 0
1, 227999, Note_on_c, 0, 79, 0
1, 227999, Note_on_c, 0, 75, 0
1, 227999, Note_on_c, 0, 70, 0
1, 228720, Note_on_c, 0, 82, 96
1, 228720, Note_on_c, 0, 77, 96
1, 228720, Note_on_c, 0, 74, 96
1, 228720, Note_on_c, 0, 70, 96
1, 228959, Note_on_c, 0, 82, 0
1, 228959, Note_on_c, 0, 77, 0
1, 228959, Note_on_c, 0, 74, 0
1, 228959, Note_on_c, 0, 70, 0
1, 228960, Note_on_c, 0, 82, 96
1, 228960, Note_on_c, 0, 77, 96
1, 228960, Note_on_c, 0, 74, 96
1, 228960, Note_on_c, 0, 70, 96
1, 229199, Note_on_c, 0, 82, 0
1, 229199, Note_on_c, 0, 77, 0
1, 229199, Note_on_c, 0, 74, 0
1, 229199, Note_on_c, 0, 70, 0
1, 229200, Note_on_c, 0, 82, 96
1, 229200, Note_on_c, 0, 77, 96
1, 229200, Note_on_c, 0, 74, 96
1, 229200, Note_on_c, 0, 70, 96
1, 229439, Note_on_c, 0, 82, 0
1, 229439, Note_on_c, 0, 77, 0
1, 229439, Note_on_c, 0, 74, 0
1, 229439, Note_on_c, 0, 70, 0
1, 229440, Note_on_c, 0, 82, 96
1, 229440, Note_on_c, 0, 79, 96
1, 229440, Note_on_c, 0, 75, 96
1, 229440, Note_on_c, 0, 70, 96
1, 229919, Note_on_c, 0, 82, 0
1, 229919, Note_on_c, 0, 79, 0
1, 229919, Note_on_c, 0, 75, 0
1, 229919, Note_on_c, 0, 70, 0
1, 230640, Note_on_c, 0, 89, 96
1, 230640, Note_on_c, 0, 86, 96
1, 230640, Note_on_c, 0, 82, 96
1, 230640, Note_on_c, 0, 77, 96
1, 230879, Note_on_c, 0, 89, 0
1, 230879, Note_on_c, 0, 86, 0
1, 230879, Note_on_c, 0, 82, 0
1, 230879, Note_on_c, 0, 77, 0
1, 230880, Note_on_c, 0, 89, 96
1, 230880, Note_on_c, 0, 86, 96
1, 230880, Note_on_c, 0, 82, 96
1, 230880, Note_on_c, 0, 77, 96
1, 231119, Note_on_c, 0, 89, 0
1, 231119, Note_on_c, 0, 86, 0
1, 231119, Note_on_c, 0, 82, 0
1, 231119, Note_on_c, 0, 77, 0
1, 231120, Note_on_c, 0, 89, 96
1, 231120, Note_on_c, 0, 86, 96
1, 231120, Note_on_c, 0, 82, 96
1, 231120, Note_on_c, 0, 77, 96
1, 231359, Note_on_c, 0, 89, 0
1, 231359, Note_on_c, 0, 86, 0
1, 231359, Note_on_c, 0, 82, 0
1, 231359, Note_on_c, 0, 77, 0
1, 231360, Note_on_c, 0, 87, 96
1, 231360, Note_on_c, 0, 82, 96
1, 231360, Note_on_c, 0, 79, 96
1, 231839, Note_on_c, 0, 87, 0
1, 231839, Note_on_c, 0, 82, 0
1, 231839, Note_on_c, 0, 79, 0
1, 231840, End_track
2, 0, Start_track
2, 0, Key_signature, -3, "major"
2, 240, Note_on_c, 0, 43, 80
2, 479, Note_on_c, 0, 43, 0
2, 480, Note_on_c, 0, 43, 80
2, 719, Note_on_c, 0, 43, 0
2, 720, Note_on_c, 0, 43, 80
2, 959, Note_on_c, 0, 43, 0
2, 960, Note_on_c, 0, 51, 80
2, 960, Note_on_c, 0, 39, 80
2, 1919, Note_on_c, 0, 51, 0
2, 1919, Note_on_c, 0, 39, 0
2, 2160, Note_on_c, 0, 41, 80
2, 2399, Note_on_c, 0, 41, 0
2, 2400, Note_on_c, 0, 41, 80
2, 2639, Note_on_c, 0, 41, 0
2, 2640, Note_on_c, 0, 41, 80
2, 2879, Note_on_c, 0, 41, 0
2, 2880, Note_on_c, 0, 50, 80
2, 2880, Note_on_c, 0, 38, 80
2, 4799, Note_on_c, 0, 50, 0
2, 4799, Note_on_c, 0, 38, 0
2, 5760, Note_on_c, 0, 63, 80
2, 5760, Note_on_c, 0, 60, 80
2, 9119, Note_on_c, 0, 63, 0
2, 9599, Note_on_c, 0, 60, 0
2, 9600, Note_on_c, 0, 62, 80
2, 9600, Note_on_c, 0, 58, 80
2, 13439, Note_on_c, 0, 62, 0
2, 13439, Note_on_c, 0, 58, 0
2, 13440, Note_on_c, 0, 60, 80
2, 13440, Note_on_c, 0, 63, 80
2, 13679, Note_on_c, 0, 63, 0
2, 13680, Note_on_c, 0, 63, 80
2, 13919, Note_on_c, 0, 63, 0
2, 13920, Note_on_c, 0, 63, 80
2, 14159, Note_on_c, 0, 63, 0
2, 14160, Note_on_c, 0, 65, 80
2, 14399, Note_on_c, 0, 60, 0
2, 14399, Note_on_c, 0, 65, 0
2, 14400, Note_on_c, 0, 59, 80
2, 14400, Note_on_c, 0, 67, 80
2, 15359, Note_on_c, 0, 59, 0
2, 15360, Note_on_c, 0, 60, 80
2, 15599, Note_on_c, 0, 67, 0
2, 15600, Note_on_c, 0, 63, 80
2, 15839, Note_on_c, 0, 63, 0
2, 15840, Note_on_c, 0, 63, 80
2, 16079, Note_on_c, 0, 63, 0
2, 16080, Note_on_c, 0, 65, 80
2, 16319, Note_on_c, 0, 60, 0
2, 16319, Note_on_c, 0, 65, 0
2, 16320, Note_on_c, 0, 67, 80
2, 16320, Note_on_c, 0, 59, 80
2, 16559, Note_on_c, 0, 67, 0
2, 16559, Note_on_c, 0, 59, 0
2, 16560, Note_on_c, 0, 47, 80
2, 16560, Note_on_c, 0, 43, 80
2, 16560, Note_on_c, 0, 35, 80
2, 16799, Note_on_c, 0, 47, 0
2, 16799, Note_on_c, 0, 43, 0
2, 16799, Note_on_c, 0, 35, 0
2, 16800, Note_on_c, 0, 47, 80
2, 16800, Note_on_c, 0, 43, 80
2, 16800, Note_on_c, 0, 35, 80
2, 17039, Note_on_c, 0, 47, 0
2, 17039, Note_on_c, 0, 43, 0
2, 17039, Note_on_c, 0, 35, 0
2, 17040, Note_on_c, 0, 47, 80
2, 17040, Note_on_c, 0, 43, 80
2, 17040, Note_on_c, 0, 35, 80
2, 17279, Note_on_c, 0, 47, 0
2, 17279, Note_on_c, 0, 43, 0
2, 17279, Note_on_c, 0, 35, 0
2, 17280, Note_on_c, 0, 48, 96
2, 17280, Note_on_c, 0, 43, 96
2, 17280, Note_on_c, 0, 36, 96
2, 17759, Note_on_c, 0, 48, 0
2, 17759, Note_on_c, 0, 43, 0
2, 17759, Note_on_c, 0, 36, 0
2, 18240, Note_on_c, 0, 44, 96
2, 18240, Note_on_c, 0, 32, 96
2, 18719, Note_on_c, 0, 44, 0
2, 18719, Note_on_c, 0, 32, 0
2, 19200, Note_on_c, 0, 44, 96
2, 19200, Note_on_c, 0, 31, 96
2, 19679, Note_on_c, 0, 44, 0
2, 19679, Note_on_c, 0, 31, 0
2, 20400, Note_on_c, 0, 56, 96
2, 20400, Note_on_c, 0, 44, 96
2, 20639, Note_on_c, 0, 56, 0
2, 20639, Note_on_c, 0, 44, 0
2, 20640, Note_on_c, 0, 56, 96
2, 20640, Note_on_c, 0, 44, 96
2, 20879, Note_on_c, 0, 56, 0
2, 20879, Note_on_c, 0, 44, 0
2, 20880, Note_on_c, 0, 56, 96
2, 20880, Note_on_c, 0, 44, 96
2, 21119, Note_on_c, 0, 56, 0
2, 21119, Note_on_c, 0, 44, 0
2, 21120, Note_on_c, 0, 53, 96
2, 21120, Note_on_c, 0, 41, 96
2, 23039, Note_on_c, 0, 53, 0
2, 23039, Note_on_c, 0, 41, 0
2, 25200, Note_on_c, 0, 56, 96
2, 25439, Note_on_c, 0, 56, 0
2, 25440, Note_on_c, 0, 56, 96
2, 25679, Note_on_c, 0, 56, 0
2, 25680, Note_on_c, 0, 56, 96
2, 25919, Note_on_c, 0, 56, 0
2, 25920, Note_on_c, 0, 55, 96
2, 26160, Note_on_c, 0, 43, 96
2, 26160, Note_on_c, 0, 31, 96
2, 26399, Note_on_c, 0, 43, 0
2, 26399, Note_on_c, 0, 31, 0
2, 26400, Note_on_c, 0, 43, 96
2, 26400, Note_on_c, 0, 31, 96
2, 26639, Note_on_c, 0, 43, 0
2, 26639, Note_on_c, 0, 31, 0
2, 26640, Note_on_c, 0, 43, 96
2, 26640, Note_on_c, 0, 31, 96
2, 26879, Note_on_c, 0, 43, 0
2, 26879, Note_on_c, 0, 31, 0
2, 26880, Note_on_c, 0, 36, 96
2, 27359, Note_on_c, 0, 36, 0
2, 27359, Note_on_c, 0, 55, 0
2, 29040, Note_on_c, 0, 56, 96
2, 29279, Note_on_c, 0, 56, 0
2, 29280, Note_on_c, 0, 56, 96
2, 29519, Note_on_c, 0, 56, 0
2, 29520, Note_on_c, 0, 56, 96
2, 29759, Note_on_c, 0, 56, 0
2, 29760, Note_on_c, 0, 55, 96
2, 30000, Note_on_c, 0, 43, 96
2, 30239, Note_on_c, 0, 43, 0
2, 30240, Note_on_c, 0, 43, 96
2, 30479, Note_on_c, 0, 43, 0
2, 30480, Note_on_c, 0, 43, 96
2, 30719, Note_on_c, 0, 43, 0
2, 30720, Note_on_c, 0, 48, 96
2, 31199, Note_on_c, 0, 48, 0
2, 31199, Note_on_c, 0, 55, 0
2, 31920, Note_on_c, 0, 48, 96
2, 31920, Note_on_c, 0, 36, 96
2, 32159, Note_on_c, 0, 48, 0
2, 32159, Note_on_c, 0, 36, 0
2, 32160, Note_on_c, 0, 48, 96
2, 32160, Note_on_c, 0, 36, 96
2, 32399, Note_on_c, 0, 48, 0
2, 32399, Note_on_c, 0, 36, 0
2, 32400, Note_on_c, 0, 48, 96
2, 32400, Note_on_c, 0, 36, 96
2, 32639, Note_on_c, 0, 48, 0
2, 32639, Note_on_c, 0, 36, 0
2, 32640, Note_on_c, 0, 48, 96
2, 32640, Note_on_c, 0, 36, 96
2, 33119, Note_on_c, 0, 48, 0
2, 33119, Note_on_c, 0, 36, 0
2, 33840, Note_on_c, 0, 48, 96
2, 33840, Note_on_c, 0, 36, 96
2, 34079, Note_on_c, 0, 48, 0
2, 34079, Note_on_c, 0, 36, 0
2, 34080, Note_on_c, 0, 48, 96
2, 34080, Note_on_c, 0, 36, 96
2, 34319, Note_on_c, 0, 48, 0
2, 34319, Note_on_c, 0, 36, 0
2, 34320, Note_on_c, 0, 48, 96
2, 34320, Note_on_c, 0, 36, 96
2, 34559, Note_on_c, 0, 48, 0
2, 34559, Note_on_c, 0, 36, 0
2, 34560, Note_on_c, 0, 48, 96
2, 34560, Note_on_c, 0, 36, 96
2, 35039, Note_on_c, 0, 48, 0
2, 35039, Note_on_c, 0, 36, 0
2, 35520, Note_on_c, 0, 59, 96
2, 35520, Note_on_c, 0, 48, 96
2, 35999, Note_on_c, 0, 59, 0
2, 35999, Note_on_c, 0, 48, 0
2, 36480, Note_on_c, 0, 58, 96
2, 36480, Note_on_c, 0, 48, 96
2, 36959, Note_on_c, 0, 58, 0
2, 36959, Note_on_c, 0, 48, 0
2, 37440, Note_on_c, 0, 56, 96
2, 37440, Note_on_c, 0, 48, 96
2, 37919, Note_on_c, 0, 56, 0
2, 37919, Note_on_c, 0, 48, 0
2, 38400, Note_on_c, 0, 58, 96
2, 38400, Note_on_c, 0, 55, 96
2, 38400, Note_on_c, 0, 48, 96
2, 38879, Note_on_c, 0, 58, 0
2, 38879, Note_on_c, 0, 55, 0
2, 38879, Note_on_c, 0, 48, 0
2, 39360, Note_on_c, 0, 56, 96
2, 39360, Note_on_c, 0, 53, 96
2, 39360, Note_on_c, 0, 48, 96
2, 39839, Note_on_c, 0, 56, 0
2, 39839, Note_on_c, 0, 53, 0
2, 39839, Note_on_c, 0, 48, 0
2, 40320, Note_on_c, 0, 56, 96
2, 40320, Note_on_c, 0, 53, 96
2, 40320, Note_on_c, 0, 48, 96
2, 40799, Note_on_c, 0, 56, 0
2, 40799, Note_on_c, 0, 53, 0
2, 40799, Note_on_c, 0, 48, 0
2, 41280, Note_on_c, 0, 48, 96
2, 41280, Note_on_c, 0, 36, 96
2, 41759, Note_on_c, 0, 48, 0
2, 41759, Note_on_c, 0, 36, 0
2, 41760, Note_on_c, 0, 55, 96
2, 41760, Note_on_c, 0, 51, 96
2, 41760, Note_on_c, 0, 48, 96
2, 41999, Note_on_c, 0, 55, 0
2, 41999, Note_on_c, 0, 51, 0
2, 41999, Note_on_c, 0, 48, 0
2, 42000, Note_on_c, 0, 60, 96
2, 42239, Note_on_c, 0, 60, 0
2, 42240, Note_on_c, 0, 55, 96
2, 42240, Note_on_c, 0, 51, 96
2, 42240, Note_on_c, 0, 48, 96
2, 42479, Note_on_c, 0, 55, 0
2, 42479, Note_on_c, 0, 51, 0
2, 42479, Note_on_c, 0, 48, 0
2, 42480, Note_on_c, 0, 60, 96
2, 42719, Note_on_c, 0, 60, 0
2, 42720, Note_on_c, 0, 55, 96
2, 42720, Note_on_c, 0, 51, 96
2, 42720, Note_on_c, 0, 48, 96
2, 42959, Note_on_c, 0, 55, 0
2, 42959, Note_on_c, 0, 51, 0
2, 42959, Note_on_c, 0, 48, 0
2, 42960, Note_on_c, 0, 60, 96
2, 43199, Note_on_c, 0, 60, 0
2, 43200, Note_on_c, 0, 55, 96
2, 43200, Note_on_c, 0, 51, 96
2, 43200, Note_on_c, 0, 48, 96
2, 43439, Note_on_c, 0, 55, 0
2, 43439, Note_on_c, 0, 51, 0
2, 43439, Note_on_c, 0, 48, 0
2, 43440, Note_on_c, 0, 60, 96
2, 43679, Note_on_c, 0, 60, 0
2, 43680, Note_on_c, 0, 55, 96
2, 43680, Note_on_c, 0, 51, 96
2, 43680, Note_on_c, 0, 48, 96
2, 43919, Note_on_c, 0, 55, 0
2, 43919, Note_on_c, 0, 51, 0
2, 43919, Note_on_c, 0, 48, 0
2, 43920, Note_on_c, 0, 60, 96
2, 44159, Note_on_c, 0, 60, 0
2, 44160, Note_on_c, 0, 51, 96
2, 44160, Note_on_c, 0, 48, 96
2, 44399, Note_on_c, 0, 51, 0
2, 44399, Note_on_c, 0, 48, 0
2, 44400, Note_on_c, 0, 55, 96
2, 44400, Note_on_c, 0, 51, 96
2, 44400, Note_on_c, 0, 48, 96
2, 44639, Note_on_c, 0, 55, 0
2, 44639, Note_on_c, 0, 51, 0
2, 44639, Note_on_c, 0, 48, 0
2, 44640, Note_on_c, 0, 55, 96
2, 44640, Note_on_c, 0, 51, 96
2, 44640, Note_on_c, 0, 48, 96
2, 44879, Note_on_c, 0, 55, 0
2, 44879, Note_on_c, 0, 51, 0
2, 44879, Note_on_c, 0, 48, 0
2, 44880, Note_on_c, 0, 55, 96
2, 44880, Note_on_c, 0, 51, 96
2, 44880, Note_on_c, 0, 48, 96
2, 45119, Note_on_c, 0, 55, 0
2, 45119, Note_on_c, 0, 51, 0
2, 45119, Note_on_c, 0, 48, 0
2, 45120, Note_on_c, 0, 53, 96
2, 45120, Note_on_c, 0, 50, 96
2, 45120, Note_on_c, 0, 43, 96
2, 45359, Note_on_c, 0, 53, 0
2, 45359, Note_on_c, 0, 50, 0
2, 45359, Note_on_c, 0, 43, 0
2, 45360, Note_on_c, 0, 55, 96
2, 45599, Note_on_c, 0, 55, 0
2, 45600, Note_on_c, 0, 53, 96
2, 45600, Note_on_c, 0, 50, 96
2, 45600, Note_on_c, 0, 43, 96
2, 45839, Note_on_c, 0, 53, 0
2, 45839, Note_on_c, 0, 50, 0
2, 45839, Note_on_c, 0, 43, 0
2, 45840, Note_on_c, 0, 55, 96
2, 46079, Note_on_c, 0, 55, 0
2, 46080, Note_on_c, 0, 53, 96
2, 46080, Note_on_c, 0, 50, 96
2, 46080, Note_on_c, 0, 43, 96
2, 46319, Note_on_c, 0, 53, 0
2, 46319, Note_on_c, 0, 50, 0
2, 46319, Note_on_c, 0, 43, 0
2, 46320, Note_on_c, 0, 55, 96
2, 46559, Note_on_c, 0, 55, 0
2, 46560, Note_on_c, 0, 53, 96
2, 46560, Note_on_c, 0, 50, 96
2, 46560, Note_on_c, 0, 43, 96
2, 46799, Note_on_c, 0, 53, 0
2, 46799, Note_on_c, 0, 50, 0
2, 46799, Note_on_c, 0, 43, 0
2, 46800, Note_on_c, 0, 55, 96
2, 47039, Note_on_c, 0, 55, 0
2, 47040, Note_on_c, 0, 53, 96
2, 47040, Note_on_c, 0, 50, 96
2, 47040, Note_on_c, 0, 43, 96
2, 47279, Note_on_c, 0, 53, 0
2, 47279, Note_on_c, 0, 50, 0
2, 47279, Note_on_c, 0, 43, 0
2, 47280, Note_on_c, 0, 55, 96
2, 47519, Note_on_c, 0, 55, 0
2, 47520, Note_on_c, 0, 53, 96
2, 47520, Note_on_c, 0, 50, 96
2, 47520, Note_on_c, 0, 43, 96
2, 47759, Note_on_c, 0, 53, 0
2, 47759, Note_on_c, 0, 50, 0
2, 47759, Note_on_c, 0, 43, 0
2, 47760, Note_on_c, 0, 55, 96
2, 47999, Note_on_c, 0, 55, 0
2, 48000, Note_on_c, 0, 53, 96
2, 48000, Note_on_c, 0, 50, 96
2, 48000, Note_on_c, 0, 43, 96
2, 48239, Note_on_c, 0, 53, 0
2, 48239, Note_on_c, 0, 50, 0
2, 48239, Note_on_c, 0, 43, 0
2, 48240, Note_on_c, 0, 55, 96
2, 48479, Note_on_c, 0, 55, 0
2, 48480, Note_on_c, 0, 55, 96
2, 48480, Note_on_c, 0, 51, 96
2, 48480, Note_on_c, 0, 48, 96
2, 48719, Note_on_c, 0, 55, 0
2, 48719, Note_on_c, 0, 51, 0
2, 48719, Note_on_c, 0, 48, 0
2, 48720, Note_on_c, 0, 55, 96
2, 48720, Note_on_c, 0, 51, 96
2, 48720, Note_on_c, 0, 48, 96
2, 48959, Note_on_c, 0, 55, 0
2, 48959, Note_on_c, 0, 51, 0
2, 48959, Note_on_c, 0, 48, 0
2, 48960, Note_on_c, 0, 54, 96
2, 48960, Note_on_c, 0, 51, 96
2, 48960, Note_on_c, 0, 48, 96
2, 49199, Note_on_c, 0, 54, 0
2, 49199, Note_on_c, 0, 51, 0
2, 49199, Note_on_c, 0, 48, 0
2, 49200, Note_on_c, 0, 57, 96
2, 49439, Note_on_c, 0, 57, 0
2, 49440, Note_on_c, 0, 54, 96
2, 49440, Note_on_c, 0, 51, 96
2, 49440, Note_on_c, 0, 48, 96
2, 49679, Note_on_c, 0, 54, 0
2, 49679, Note_on_c, 0, 51, 0
2, 49679, Note_on_c, 0, 48, 0
2, 49680, Note_on_c, 0, 57, 96
2, 49919, Note_on_c, 0, 57, 0
2, 49920, Note_on_c, 0, 54, 96
2, 49920, Note_on_c, 0, 51, 96
2, 49920, Note_on_c, 0, 48, 96
2, 50159, Note_on_c, 0, 54, 0
2, 50159, Note_on_c, 0, 51, 0
2, 50159, Note_on_c, 0, 48, 0
2, 50160, Note_on_c, 0, 57, 96
2, 50399, Note_on_c, 0, 57, 0
2, 50400, Note_on_c, 0, 54, 96
2, 50400, Note_on_c, 0, 51, 96
2, 50400, Note_on_c, 0, 48, 96
2, 50639, Note_on_c, 0, 54, 0
2, 50639, Note_on_c, 0, 51, 0
2, 50639, Note_on_c, 0, 48, 0
2, 50640, Note_on_c, 0, 57, 96
2, 50879, Note_on_c, 0, 57, 0
2, 50880, Note_on_c, 0, 54, 96
2, 50880, Note_on_c, 0, 51, 96
2, 50880, Note_on_c, 0, 48, 96
2, 51119, Note_on_c, 0, 54, 0
2, 51119, Note_on_c, 0, 51, 0
2, 51119, Note_on_c, 0, 48, 0
2, 51120, Note_on_c, 0, 57, 96
2, 51359, Note_on_c, 0, 57, 0
2, 51360, Note_on_c, 0, 54, 96
2, 51360, Note_on_c, 0, 51, 96
2, 51360, Note_on_c, 0, 48, 96
2, 51599, Note_on_c, 0, 54, 0
2, 51599, Note_on_c, 0, 51, 0
2, 51599, Note_on_c, 0, 48, 0
2, 51600, Note_on_c, 0, 57, 96
2, 51839, Note_on_c, 0, 57, 0
2, 51840, Note_on_c, 0, 54, 96
2, 51840, Note_on_c, 0, 51, 96
2, 51840, Note_on_c, 0, 48, 96
2, 52079, Note_on_c, 0, 54, 0
2, 52079, Note_on_c, 0, 51, 0
2, 52079, Note_on_c, 0, 48, 0
2, 52080, Note_on_c, 0, 57, 96
2, 52319, Note_on_c, 0, 57, 0
2, 52320, Note_on_c, 0, 54, 96
2, 52320, Note_on_c, 0, 51, 96
2, 52320, Note_on_c, 0, 48, 96
2, 52559, Note_on_c, 0, 54, 0
2, 52559, Note_on_c, 0, 51, 0
2, 52559, Note_on_c, 0, 48, 0
2, 52560, Note_on_c, 0, 57, 96
2, 52799, Note_on_c, 0, 57, 0
2, 52800, Note_on_c, 0, 56, 96
2, 52800, Note_on_c, 0, 55, 96
2, 52800, Note_on_c, 0, 51, 96
2, 52800, Note_on_c, 0, 48, 96
2, 53279, Note_on_c, 0, 56, 0
2, 53279, Note_on_c, 0, 55, 0
2, 53279, Note_on_c, 0, 51, 0
2, 53279, Note_on_c, 0, 48, 0
2, 53760, Note_on_c, 0, 58, 96
2, 53760, Note_on_c, 0, 53, 96
2, 53760, Note_on_c, 0, 50, 96
2, 54239, Note_on_c, 0, 58, 0
2, 54239, Note_on_c, 0, 53, 0
2, 54239, Note_on_c, 0, 50, 0
2, 55680, Note_on_c, 0, 63, 96
2, 56639, Note_on_c, 0, 63, 0
2, 56640, Note_on_c, 0, 65, 96
2, 57599, Note_on_c, 0, 65, 0
2, 57600, Note_on_c, 0, 58, 96
2, 58560, Note_on_c, 0, 63, 96
2, 59519, Note_on_c, 0, 63, 0
2, 59520, Note_on_c, 0, 65, 96
2, 60479, Note_on_c, 0, 65, 0
2, 60480, Note_on_c, 0, 62, 96
2, 60719, Note_on_c, 0, 62, 0
2, 60719, Note_on_c, 0, 58, 0
2, 60720, Note_on_c, 0, 46, 96
2, 60720, Note_on_c, 0, 34, 96
2, 60959, Note_on_c, 0, 46, 0
2, 60959, Note_on_c, 0, 34, 0
2, 60960, Note_on_c, 0, 46, 96
2, 60960, Note_on_c, 0, 34, 96
2, 61199, Note_on_c, 0, 46, 0
2, 61199, Note_on_c, 0, 34, 0
2, 61200, Note_on_c, 0, 46, 96
2, 61200, Note_on_c, 0, 34, 96
2, 61439, Note_on_c, 0, 46, 0
2, 61439, Note_on_c, 0, 34, 0
2, 61440, Note_on_c, 0, 51, 96
2, 61440, Note_on_c, 0, 39, 96
2, 61919, Note_on_c, 0, 51, 0
2, 61919, Note_on_c, 0, 39, 0
2, 62400, Note_on_c, 0, 63, 96
2, 62400, Note_on_c, 0, 58, 96
2, 63359, Note_on_c, 0, 63, 0
2, 63360, Note_on_c, 0, 65, 96
2, 64319, Note_on_c, 0, 65, 0
2, 64320, Note_on_c, 0, 62, 96
2, 64559, Note_on_c, 0, 62, 0
2, 64559, Note_on_c, 0, 58, 0
2, 64560, Note_on_c, 0, 46, 96
2, 64560, Note_on_c, 0, 34, 96
2, 64799, Note_on_c, 0, 46, 0
2, 64799, Note_on_c, 0, 34, 0
2, 64800, Note_on_c, 0, 46, 96
2, 64800, Note_on_c, 0, 34, 96
2, 65039, Note_on_c, 0, 46, 0
2, 65039, Note_on_c, 0, 34, 0
2, 65040, Note_on_c, 0, 46, 96
2, 65040, Note_on_c, 0, 34, 96
2, 65279, Note_on_c, 0, 46, 0
2, 65279, Note_on_c, 0, 34, 0
2, 65280, Note_on_c, 0, 51, 96
2, 65280, Note_on_c, 0, 39, 96
2, 65759, Note_on_c, 0, 51, 0
2, 65759, Note_on_c, 0, 39, 0
2, 66240, Note_on_c, 0, 58, 96
2, 66240, Note_on_c, 0, 55, 96
2, 66240, Note_on_c, 0, 46, 96
2, 67199, Note_on_c, 0, 58, 0
2, 67199, Note_on_c, 0, 55, 0
2, 67200, Note_on_c, 0, 56, 96
2, 67200, Note_on_c, 0, 53, 96
2, 68159, Note_on_c, 0, 56, 0
2, 68159, Note_on_c, 0, 53, 0
2, 68160, Note_on_c, 0, 56, 96
2, 68160, Note_on_c, 0, 50, 96
2, 68399, Note_on_c, 0, 46, 0
2, 68400, Note_on_c, 0, 46, 96
2, 68639, Note_on_c, 0, 46, 0
2, 68640, Note_on_c, 0, 46, 96
2, 68879, Note_on_c, 0, 46, 0
2, 68880, Note_on_c, 0, 46, 96
2, 69119, Note_on_c, 0, 56, 0
2, 69119, Note_on_c, 0, 50, 0
2, 69119, Note_on_c, 0, 46, 0
2, 69120, Note_on_c, 0, 55, 96
2, 69120, Note_on_c, 0, 51, 96
2, 70079, Note_on_c, 0, 55, 0
2, 70079, Note_on_c, 0, 51, 0
2, 70080, Note_on_c, 0, 58, 96
2, 70080, Note_on_c, 0, 55, 96
2, 71039, Note_on_c, 0, 58, 0
2, 71039, Note_on_c, 0, 55, 0
2, 71040, Note_on_c, 0, 55, 96
2, 71040, Note_on_c, 0, 52, 96
2, 71999, Note_on_c, 0, 55, 0
2, 71999, Note_on_c, 0, 52, 0
2, 72240, Note_on_c, 0, 48, 96
2, 72240, Note_on_c, 0, 36, 96
2, 72479, Note_on_c, 0, 48, 0
2, 72479, Note_on_c, 0, 36, 0
2, 72480, Note_on_c, 0, 48, 96
2, 72480, Note_on_c, 0, 36, 96
2, 72719, Note_on_c, 0, 48, 0
2, 72719, Note_on_c, 0, 36, 0
2, 72720, Note_on_c, 0, 48, 96
2, 72720, Note_on_c, 0, 36, 96
2, 72959, Note_on_c, 0, 48, 0
2, 72959, Note_on_c, 0, 36, 0
2, 72960, Note_on_c, 0, 53, 96
2, 72960, Note_on_c, 0, 41, 96
2, 73439, Note_on_c, 0, 53, 0
2, 73439, Note_on_c, 0, 41, 0
2, 73920, Note_on_c, 0, 61, 96
2, 73920, Note_on_c, 0, 56, 96
2, 74879, Note_on_c, 0, 61, 0
2, 74879, Note_on_c, 0, 56, 0
2, 74880, Note_on_c, 0, 58, 96
2, 74880, Note_on_c, 0, 55, 96
2, 75839, Note_on_c, 0, 58, 0
2, 75839, Note_on_c, 0, 55, 0
2, 76080, Note_on_c, 0, 51, 96
2, 76080, Note_on_c, 0, 39, 96
2, 76319, Note_on_c, 0, 51, 0
2, 76319, Note_on_c, 0, 39, 0
2, 76320, Note_on_c, 0, 51, 96
2, 76320, Note_on_c, 0, 39, 96
2, 76559, Note_on_c, 0, 51, 0
2, 76559, Note_on_c, 0, 39, 0
2, 76560, Note_on_c, 0, 51, 96
2, 76560, Note_on_c, 0, 39, 96
2, 76799, Note_on_c, 0, 51, 0
2, 76799, Note_on_c, 0, 39, 0
2, 76800, Note_on_c, 0, 56, 96
2, 76800, Note_on_c, 0, 44, 96
2, 77279, Note_on_c, 0, 56, 0
2, 77279, Note_on_c, 0, 44, 0
2, 77760, Note_on_c, 0, 56, 96
2, 78719, Note_on_c, 0, 56, 0
2, 78960, Note_on_c, 0, 57, 96
2, 78960, Note_on_c, 0, 45, 96
2, 79199, Note_on_c, 0, 57, 0
2, 79199, Note_on_c, 0, 45, 0
2, 79200, Note_on_c, 0, 57, 96
2, 79200, Note_on_c, 0, 45, 96
2, 79439, Note_on_c, 0, 57, 0
2, 79439, Note_on_c, 0, 45, 0
2, 79440, Note_on_c, 0, 57, 96
2, 79440, Note_on_c, 0, 45, 96
2, 79679, Note_on_c, 0, 57, 0
2, 79679, Note_on_c, 0, 45, 0
2, 79680, Note_on_c, 0, 57, 96
2, 79680, Note_on_c, 0, 45, 96
2, 80159, Note_on_c, 0, 57, 0
2, 80159, Note_on_c, 0, 45, 0
2, 80880, Note_on_c, 0, 58, 96
2, 80880, Note_on_c, 0, 46, 96
2, 81119, Note_on_c, 0, 58, 0
2, 81119, Note_on_c, 0, 46, 0
2, 81120, Note_on_c, 0, 58, 96
2, 81120, Note_on_c, 0, 46, 96
2, 81359, Note_on_c, 0, 58, 0
2, 81359, Note_on_c, 0, 46, 0
2, 81360, Note_on_c, 0, 58, 96
2, 81360, Note_on_c, 0, 46, 96
2, 81599, Note_on_c, 0, 58, 0
2, 81599, Note_on_c, 0, 46, 0
2, 81600, Note_on_c, 0, 58, 96
2, 81600, Note_on_c, 0, 46, 96
2, 82079, Note_on_c, 0, 58, 0
2, 82079, Note_on_c, 0, 46, 0
2, 82800, Note_on_c, 0, 59, 96
2, 82800, Note_on_c, 0, 47, 96
2, 83039, Note_on_c, 0, 59, 0
2, 83039, Note_on_c, 0, 47, 0
2, 83040, Note_on_c, 0, 59, 96
2, 83040, Note_on_c, 0, 47, 96
2, 83279, Note_on_c, 0, 59, 0
2, 83279, Note_on_c, 0, 47, 0
2, 83280, Note_on_c, 0, 59, 96
2, 83280, Note_on_c, 0, 47, 96
2, 83519, Note_on_c, 0, 59, 0
2, 83519, Note_on_c, 0, 47, 0
2, 83520, Note_on_c, 0, 59, 96
2, 83520, Note_on_c, 0, 47, 96
2, 83999, Note_on_c, 0, 59, 0
2, 83999, Note_on_c, 0, 47, 0
2, 84720, Note_on_c, 0, 60, 96
2, 84720, Note_on_c, 0, 48, 96
2, 84959, Note_on_c, 0, 60, 0
2, 84959, Note_on_c, 0, 48, 0
2, 84960, Note_on_c, 0, 60, 96
2, 84960, Note_on_c, 0, 48, 96
2, 85199, Note_on_c, 0, 60, 0
2, 85199, Note_on_c, 0, 48, 0
2, 85200, Note_on_c, 0, 60, 96
2, 85200, Note_on_c, 0, 48, 96
2, 85439, Note_on_c, 0, 60, 0
2, 85439, Note_on_c, 0, 48, 0
2, 85440, Note_on_c, 0, 59, 96
2, 85440, Note_on_c, 0, 47, 96
2, 85919, Note_on_c, 0, 59, 0
2, 85919, Note_on_c, 0, 47, 0
2, 86640, Note_on_c, 0, 60, 96
2, 86640, Note_on_c, 0, 48, 96
2, 86879, Note_on_c, 0, 60, 0
2, 86879, Note_on_c, 0, 48, 0
2, 86880, Note_on_c, 0, 60, 96
2, 86880, Note_on_c, 0, 48, 96
2, 87119, Note_on_c, 0, 60, 0
2, 87119, Note_on_c, 0, 48, 0
2, 87120, Note_on_c, 0, 60, 96
2, 87120, Note_on_c, 0, 48, 96
2, 87359, Note_on_c, 0, 60, 0
2, 87359, Note_on_c, 0, 48, 0
2, 87360, Note_on_c, 0, 60, 96
2, 87360, Note_on_c, 0, 48, 96
2, 87839, Note_on_c, 0, 60, 0
2, 87839, Note_on_c, 0, 48, 0
2, 87840, Note_on_c, 0, 60, 96
2, 87840, Note_on_c, 0, 48, 96
2, 88079, Note_on_c, 0, 60, 0
2, 88079, Note_on_c, 0, 48, 0
2, 88080, Note_on_c, 0, 60, 96
2, 88080, Note_on_c, 0, 48, 96
2, 88319, Note_on_c, 0, 60, 0
2, 88319, Note_on_c, 0, 48, 0
2, 88320, Note_on_c, 0, 62, 96
2, 88320, Note_on_c, 0, 58, 96
2, 88320, Note_on_c, 0, 50, 96
2, 89759, Note_on_c, 0, 62, 0
2, 89759, Note_on_c, 0, 58, 0
2, 89759, Note_on_c, 0, 50, 0
2, 89760, Note_on_c, 0, 50, 96
2, 89760, Note_on_c, 0, 38, 96
2, 90239, Note_on_c, 0, 50, 0
2, 90239, Note_on_c, 0, 38, 0
2, 90240, Note_on_c, 0, 51, 96
2, 90240, Note_on_c, 0, 46, 96
2, 90240, Note_on_c, 0, 39, 96
2, 90719, Note_on_c, 0, 51, 0
2, 90719, Note_on_c, 0, 46, 0
2, 90719, Note_on_c, 0, 39, 0
2, 91200, Note_on_c, 0, 53, 96
2, 91200, Note_on_c, 0, 46, 96
2, 91200, Note_on_c, 0, 44, 96
2, 91200, Note_on_c, 0, 41, 96
2, 91679, Note_on_c, 0, 53, 0
2, 91679, Note_on_c, 0, 46, 0
2, 91679, Note_on_c, 0, 44, 0
2, 91679, Note_on_c, 0, 41, 0
2, 92160, Note_on_c, 0, 55, 96
2, 92160, Note_on_c, 0, 51, 96
2, 92160, Note_on_c, 0, 46, 96
2, 92160, Note_on_c, 0, 43, 96
2, 92639, Note_on_c, 0, 55, 0
2, 92639, Note_on_c, 0, 51, 0
2, 92639, Note_on_c, 0, 46, 0
2, 92639, Note_on_c, 0, 43, 0
2, 93120, Note_on_c, 0, 53, 96
2, 93120, Note_on_c, 0, 51, 96
2, 93120, Note_on_c, 0, 48, 96
2, 93120, Note_on_c, 0, 44, 96
2, 93599, Note_on_c, 0, 53, 0
2, 93599, Note_on_c, 0, 51, 0
2, 93599, Note_on_c, 0, 48, 0
2, 93599, Note_on_c, 0, 44, 0
2, 94080, Note_on_c, 0, 55, 96
2, 94080, Note_on_c, 0, 51, 96
2, 94080, Note_on_c, 0, 46, 96
2, 94559, Note_on_c, 0, 55, 0
2, 94559, Note_on_c, 0, 51, 0
2, 94559, Note_on_c, 0, 46, 0
2, 95040, Note_on_c, 0, 58, 96
2, 95040, Note_on_c, 0, 53, 96
2, 95040, Note_on_c, 0, 50, 96
2, 95040, Note_on_c, 0, 46, 96
2, 95519, Note_on_c, 0, 58, 0
2, 95519, Note_on_c, 0, 53, 0
2, 95519, Note_on_c, 0, 50, 0
2, 95519, Note_on_c, 0, 46, 0
2, 96000, Note_on_c, 0, 50, 96
2, 96000, Note_on_c, 0, 44, 96
2, 96000, Note_on_c, 0, 38, 96
2, 96479, Note_on_c, 0, 50, 0
2, 96479, Note_on_c, 0, 44, 0
2, 96479, Note_on_c, 0, 38, 0
2, 96480, Note_on_c, 0, 53, 96
2, 96480, Note_on_c, 0, 41, 96
2, 96959, Note_on_c, 0, 53, 0
2, 96959, Note_on_c, 0, 41, 0
2, 96960, Note_on_c, 0, 50, 96
2, 96960, Note_on_c, 0, 44, 96
2, 96960, Note_on_c, 0, 38, 96
2, 97439, Note_on_c, 0, 50, 0
2, 97439, Note_on_c, 0, 44, 0
2, 97439, Note_on_c, 0, 38, 0
2, 97440, Note_on_c, 0, 53, 96
2, 97440, Note_on_c, 0, 41, 96
2, 97919, Note_on_c, 0, 53, 0
2, 97919, Note_on_c, 0, 41, 0
2, 97920, Note_on_c, 0, 51, 96
2, 97920, Note_on_c, 0, 39, 96
2, 98399, Note_on_c, 0, 51, 0
2, 98399, Note_on_c, 0, 39, 0
2, 98400, Note_on_c, 0, 55, 96
2, 98400, Note_on_c, 0, 41, 96
2, 98879, Note_on_c, 0, 55, 0
2, 98879, Note_on_c, 0, 41, 0
2, 98880, Note_on_c, 0, 53, 96
2, 98880, Note_on_c, 0, 41, 96
2, 99359, Note_on_c, 0, 53, 0
2, 99359, Note_on_c, 0, 41, 0
2, 99360, Note_on_c, 0, 56, 96
2, 99360, Note_on_c, 0, 44, 96
2, 99839, Note_on_c, 0, 56, 0
2, 99839, Note_on_c, 0, 44, 0
2, 99840, Note_on_c, 0, 55, 96
2, 99840, Note_on_c, 0, 41, 96
2, 100319, Note_on_c, 0, 55, 0
2, 100319, Note_on_c, 0, 41, 0
2, 100320, Note_on_c, 0, 58, 96
2, 100320, Note_on_c, 0, 46, 96
2, 100799, Note_on_c, 0, 58, 0
2, 100799, Note_on_c, 0, 46, 0
2, 100800, Note_on_c, 0, 58, 96
2, 100800, Note_on_c, 0, 46, 96
2, 101279, Note_on_c, 0, 58, 0
2, 101279, Note_on_c, 0, 46, 0
2, 101280, Note_on_c, 0, 60, 96
2, 101280, Note_on_c, 0, 48, 96
2, 101759, Note_on_c, 0, 60, 0
2, 101759, Note_on_c, 0, 48, 0
2, 101760, Note_on_c, 0, 58, 96
2, 101760, Note_on_c, 0, 46, 96
2, 102239, Note_on_c, 0, 58, 0
2, 102239, Note_on_c, 0, 46, 0
2, 102240, Note_on_c, 0, 46, 96
2, 102240, Note_on_c, 0, 34, 96
2, 102719, Note_on_c, 0, 46, 0
2, 102719, Note_on_c, 0, 34, 0
2, 102720, Note_on_c, 0, 58, 96
2, 102720, Note_on_c, 0, 46, 96
2, 103199, Note_on_c, 0, 58, 0
2, 103199, Note_on_c, 0, 46, 0
2, 103200, Note_on_c, 0, 62, 96
2, 103200, Note_on_c, 0, 58, 96
2, 103200, Note_on_c, 0, 56, 96
2, 103200, Note_on_c, 0, 53, 96
2, 103679, Note_on_c, 0, 62, 0
2, 103679, Note_on_c, 0, 58, 0
2, 103679, Note_on_c, 0, 56, 0
2, 103679, Note_on_c, 0, 53, 0
2, 103680, Note_on_c, 0, 63, 96
2, 103680, Note_on_c, 0, 58, 96
2, 103680, Note_on_c, 0, 55, 96
2, 103680, Note_on_c, 0, 51, 96
2, 103919, Note_on_c, 0, 63, 0
2, 103919, Note_on_c, 0, 58, 0
2, 103919, Note_on_c, 0, 55, 0
2, 103919, Note_on_c, 0, 51, 0
2, 103920, Note_on_c, 0, 67, 96
2, 104159, Note_on_c, 0, 67, 0
2, 104160, Note_on_c, 0, 67, 96
2, 104399, Note_on_c, 0, 67, 0
2, 104400, Note_on_c, 0, 67, 96
2, 104639, Note_on_c, 0, 67, 0
2, 104640, Note_on_c, 0, 63, 96
2, 104879, Note_on_c, 0, 63, 0
2, 104880, Note_on_c, 0, 58, 96
2, 105119, Note_on_c, 0, 58, 0
2, 105120, Note_on_c, 0, 58, 96
2, 105359, Note_on_c, 0, 58, 0
2, 105360, Note_on_c, 0, 58, 96
2, 105599, Note_on_c, 0, 58, 0
2, 105600, Note_on_c, 0, 67, 96
2, 105600, Note_on_c, 0, 55, 96
2, 105839, Note_on_c, 0, 67, 0
2, 105839, Note_on_c, 0, 55, 0
2, 105840, Note_on_c, 0, 51, 96
2, 106079, Note_on_c, 0, 51, 0
2, 106080, Note_on_c, 0, 51, 96
2, 106319, Note_on_c, 0, 51, 0
2, 106320, Note_on_c, 0, 51, 96
2, 106559, Note_on_c, 0, 51, 0
2, 106560, Note_on_c, 0, 58, 96
2, 106560, Note_on_c, 0, 46, 96
2, 106799, Note_on_c, 0, 58, 0
2, 106799, Note_on_c, 0, 46, 0
2, 106800, Note_on_c, 0, 46, 96
2, 106800, Note_on_c, 0, 34, 96
2, 107039, Note_on_c, 0, 46, 0
2, 107039, Note_on_c, 0, 34, 0
2, 107040, Note_on_c, 0, 46, 96
2, 107040, Note_on_c, 0, 34, 96
2, 107279, Note_on_c, 0, 46, 0
2, 107279, Note_on_c, 0, 34, 0
2, 107280, Note_on_c, 0, 46, 96
2, 107280, Note_on_c, 0, 34, 96
2, 107519, Note_on_c, 0, 46, 0
2, 107519, Note_on_c, 0, 34, 0
2, 107520, Note_on_c, 0, 51, 96
2, 107520, Note_on_c, 0, 39, 96
2, 107759, Note_on_c, 0, 51, 0
2, 107759, Note_on_c, 0, 39, 0
2, 107760, Note_on_c, 0, 67, 96
2, 107999, Note_on_c, 0, 67, 0
2, 108000, Note_on_c, 0, 67, 96
2, 108239, Note_on_c, 0, 67, 0
2, 108240, Note_on_c, 0, 67, 96
2, 108479, Note_on_c, 0, 67, 0
2, 108480, Note_on_c, 0, 63, 96
2, 108719, Note_on_c, 0, 63, 0
2, 108720, Note_on_c, 0, 58, 96
2, 108959, Note_on_c, 0, 58, 0
2, 108960, Note_on_c, 0, 58, 96
2, 109199, Note_on_c, 0, 58, 0
2, 109200, Note_on_c, 0, 58, 96
2, 109439, Note_on_c, 0, 58, 0
2, 109440, Note_on_c, 0, 67, 96
2, 109440, Note_on_c, 0, 55, 96
2, 109679, Note_on_c, 0, 67, 0
2, 109679, Note_on_c, 0, 55, 0
2, 109680, Note_on_c, 0, 51, 96
2, 109919, Note_on_c, 0, 51, 0
2, 109920, Note_on_c, 0, 51, 96
2, 110159, Note_on_c, 0, 51, 0
2, 110160, Note_on_c, 0, 51, 96
2, 110399, Note_on_c, 0, 51, 0
2, 110400, Note_on_c, 0, 58, 96
2, 110400, Note_on_c, 0, 46, 96
2, 110639, Note_on_c, 0, 58, 0
2, 110639, Note_on_c, 0, 46, 0
2, 110640, Note_on_c, 0, 46, 96
2, 110640, Note_on_c, 0, 34, 96
2, 110879, Note_on_c, 0, 46, 0
2, 110879, Note_on_c, 0, 34, 0
2, 110880, Note_on_c, 0, 46, 96
2, 110880, Note_on_c, 0, 34, 96
2, 111119, Note_on_c, 0, 46, 0
2, 111119, Note_on_c, 0, 34, 0
2, 111120, Note_on_c, 0, 46, 96
2, 111120, Note_on_c, 0, 34, 96
2, 111359, Note_on_c, 0, 46, 0
2, 111359, Note_on_c, 0, 34, 0
2, 111360, Note_on_c, 0, 51, 96
2, 111360, Note_on_c, 0, 39, 96
2, 111839, Note_on_c, 0, 51, 0
2, 111839, Note_on_c, 0, 39, 0
2, 112560, Note_on_c, 0, 46, 96
2, 112560, Note_on_c, 0, 34, 96
2, 112799, Note_on_c, 0, 46, 0
2, 112799, Note_on_c, 0, 34, 0
2, 112800, Note_on_c, 0, 46, 96
2, 112800, Note_on_c, 0, 34, 96
2, 113039, Note_on_c, 0, 46, 0
2, 113039, Note_on_c, 0, 34, 0
2, 113040, Note_on_c, 0, 46, 96
2, 113040, Note_on_c, 0, 34, 96
2, 113279, Note_on_c, 0, 46, 0
2, 113279, Note_on_c, 0, 34, 0
2, 113280, Note_on_c, 0, 51, 96
2, 113280, Note_on_c, 0, 39, 96
2, 113759, Note_on_c, 0, 51, 0
2, 113759, Note_on_c, 0, 39, 0
2, 114480, Note_on_c, 0, 46, 96
2, 114480, Note_on_c, 0, 34, 96
2, 114719, Note_on_c, 0, 46, 0
2, 114719, Note_on_c, 0, 34, 0
2, 114720, Note_on_c, 0, 46, 96
2, 114720, Note_on_c, 0, 34, 96
2, 114959, Note_on_c, 0, 46, 0
2, 114959, Note_on_c, 0, 34, 0
2, 114960, Note_on_c, 0, 46, 96
2, 114960, Note_on_c, 0, 34, 96
2, 115199, Note_on_c, 0, 46, 0
2, 115199, Note_on_c, 0, 34, 0
2, 115200, Note_on_c, 0, 51, 96
2, 115200, Note_on_c, 0, 39, 96
2, 115679, Note_on_c, 0, 51, 0
2, 115679, Note_on_c, 0, 39, 0
2, 116160, Key_signature, -3, "major"
2, 116400, Note_on_c, 0, 43, 80
2, 116639, Note_on_c, 0, 43, 0
2, 116640, Note_on_c, 0, 43, 80
2, 116879, Note_on_c, 0, 43, 0
2, 116880, Note_on_c, 0, 43, 80
2, 117119, Note_on_c, 0, 43, 0
2, 117120, Note_on_c, 0, 51, 80
2, 117120, Note_on_c, 0, 39, 80
2, 118079, Note_on_c, 0, 51, 0
2, 118079, Note_on_c, 0, 39, 0
2, 118320, Note_on_c, 0, 41, 80
2, 118559, Note_on_c, 0, 41, 0
2, 118560, Note_on_c, 0, 41, 80
2, 118799, Note_on_c, 0, 41, 0
2, 118800, Note_on_c, 0, 41, 80
2, 119039, Note_on_c, 0, 41, 0
2, 119040, Note_on_c, 0, 50, 80
2, 119040, Note_on_c, 0, 38, 80
2, 120959, Note_on_c, 0, 50, 0
2, 120959, Note_on_c, 0, 38, 0
2, 121920, Note_on_c, 0, 63, 80
2, 121920, Note_on_c, 0, 60, 80
2, 125279, Note_on_c, 0, 63, 0
2, 125759, Note_on_c, 0, 60, 0
2, 125760, Note_on_c, 0, 62, 80
2, 125760, Note_on_c, 0, 58, 80
2, 129599, Note_on_c, 0, 62, 0
2, 129599, Note_on_c, 0, 58, 0
2, 129600, Note_on_c, 0, 60, 80
2, 129600, Note_on_c, 0, 63, 80
2, 129839, Note_on_c, 0, 63, 0
2, 129840, Note_on_c, 0, 63, 80
2, 130079, Note_on_c, 0, 63, 0
2, 130080, Note_on_c, 0, 63, 80
2, 130319, Note_on_c, 0, 63, 0
2, 130320, Note_on_c, 0, 65, 80
2, 130559, Note_on_c, 0, 60, 0
2, 130559, Note_on_c, 0, 65, 0
2, 130560, Note_on_c, 0, 59, 80
2, 130560, Note_on_c, 0, 67, 80
2, 131519, Note_on_c, 0, 59, 0
2, 131520, Note_on_c, 0, 60, 80
2, 131759, Note_on_c, 0, 67, 0
2, 131760, Note_on_c, 0, 63, 80
2, 131999, Note_on_c, 0, 63, 0
2, 132000, Note_on_c, 0, 63, 80
2, 132239, Note_on_c, 0, 63, 0
2, 132240, Note_on_c, 0, 65, 80
2, 132479, Note_on_c, 0, 60, 0
2, 132479, Note_on_c, 0, 65, 0
2, 132480, Note_on_c, 0, 67, 80
2, 132480, Note_on_c, 0, 59, 80
2, 132719, Note_on_c, 0, 67, 0
2, 132719, Note_on_c, 0, 59, 0
2, 132720, Note_on_c, 0, 47, 80
2, 132720, Note_on_c, 0, 43, 80
2, 132720, Note_on_c, 0, 35, 80
2, 132959, Note_on_c, 0, 47, 0
2, 132959, Note_on_c, 0, 43, 0
2, 132959, Note_on_c, 0, 35, 0
2, 132960, Note_on_c, 0, 47, 80
2, 132960, Note_on_c, 0, 43, 80
2, 132960, Note_on_c, 0, 35, 80
2, 133199, Note_on_c, 0, 47, 0
2, 133199, Note_on_c, 0, 43, 0
2, 133199, Note_on_c, 0, 35, 0
2, 133200, Note_on_c, 0, 47, 80
2, 133200, Note_on_c, 0, 43, 80
2, 133200, Note_on_c, 0, 35, 80
2, 133439, Note_on_c, 0, 47, 0
2, 133439, Note_on_c, 0, 43, 0
2, 133439, Note_on_c, 0, 35, 0
2, 133440, Note_on_c, 0, 48, 96
2, 133440, Note_on_c, 0, 43, 96
2, 133440, Note_on_c, 0, 36, 96
2, 133919, Note_on_c, 0, 48, 0
2, 133919, Note_on_c, 0, 43, 0
2, 133919, Note_on_c, 0, 36, 0
2, 134400, Note_on_c, 0, 44, 96
2, 134400, Note_on_c, 0, 32, 96
2, 134879, Note_on_c, 0, 44, 0
2, 134879, Note_on_c, 0, 32, 0
2, 135360, Note_on_c, 0, 44, 96
2, 135360, Note_on_c, 0, 31, 96
2, 135839, Note_on_c, 0, 44, 0
2, 135839, Note_on_c, 0, 31, 0
2, 136560, Note_on_c, 0, 56, 96
2, 136560, Note_on_c, 0, 44, 96
2, 136799, Note_on_c, 0, 56, 0
2, 136799, Note_on_c, 0, 44, 0
2, 136800, Note_on_c, 0, 56, 96
2, 136800, Note_on_c, 0, 44, 96
2, 137039, Note_on_c, 0, 56, 0
2, 137039, Note_on_c, 0, 44, 0
2, 137040, Note_on_c, 0, 56, 96
2, 137040, Note_on_c, 0, 44, 96
2, 137279, Note_on_c, 0, 56, 0
2, 137279, Note_on_c, 0, 44, 0
2, 137280, Note_on_c, 0, 53, 96
2, 137280, Note_on_c, 0, 41, 96
2, 139199, Note_on_c, 0, 53, 0
2, 139199, Note_on_c, 0, 41, 0
2, 141360, Note_on_c, 0, 56, 96
2, 141599, Note_on_c, 0, 56, 0
2, 141600, Note_on_c, 0, 56, 96
2, 141839, Note_on_c, 0, 56, 0
2, 141840, Note_on_c, 0, 56, 96
2, 142079, Note_on_c, 0, 56, 0
2, 142080, Note_on_c, 0, 55, 96
2, 142320, Note_on_c, 0, 43, 96
2, 142320, Note_on_c, 0, 31, 96
2, 142559, Note_on_c, 0, 43, 0
2, 142559, Note_on_c, 0, 31, 0
2, 142560, Note_on_c, 0, 43, 96
2, 142560, Note_on_c, 0, 31, 96
2, 142799, Note_on_c, 0, 43, 0
2, 142799, Note_on_c, 0, 31, 0
2, 142800, Note_on_c, 0, 43, 96
2, 142800, Note_on_c, 0, 31, 96
2, 143039, Note_on_c, 0, 43, 0
2, 143039, Note_on_c, 0, 31, 0
2, 143040, Note_on_c, 0, 36, 96
2, 143519, Note_on_c, 0, 36, 0
2, 143519, Note_on_c, 0, 55, 0
2, 145200, Note_on_c, 0, 56, 96
2, 145439, Note_on_c, 0, 56, 0
2, 145440, Note_on_c, 0, 56, 96
2, 145679, Note_on_c, 0, 56, 0
2, 145680, Note_on_c, 0, 56, 96
2, 145919, Note_on_c, 0, 56, 0
2, 145920, Note_on_c, 0, 55, 96
2, 146160, Note_on_c, 0, 43, 96
2, 146399, Note_on_c, 0, 43, 0
2, 146400, Note_on_c, 0, 43, 96
2, 146639, Note_on_c, 0, 43, 0
2, 146640, Note_on_c, 0, 43, 96
2, 146879, Note_on_c, 0, 43, 0
2, 146880, Note_on_c, 0, 48, 96
2, 147359, Note_on_c, 0, 48, 0
2, 147359, Note_on_c, 0, 55, 0
2, 148080, Note_on_c, 0, 48, 96
2, 148080, Note_on_c, 0, 36, 96
2, 148319, Note_on_c, 0, 48, 0
2, 148319, Note_on_c, 0, 36, 0
2, 148320, Note_on_c, 0, 48, 96
2, 148320, Note_on_c, 0, 36, 96
2, 148559, Note_on_c, 0, 48, 0
2, 148559, Note_on_c, 0, 36, 0
2, 148560, Note_on_c, 0, 48, 96
2, 148560, Note_on_c, 0, 36, 96
2, 148799, Note_on_c, 0, 48, 0
2, 148799, Note_on_c, 0, 36, 0
2, 148800, Note_on_c, 0, 48, 96
2, 148800, Note_on_c, 0, 36, 96
2, 149279, Note_on_c, 0, 48, 0
2, 149279, Note_on_c, 0, 36, 0
2, 150000, Note_on_c, 0, 48, 96
2, 150000, Note_on_c, 0, 36, 96
2, 150239, Note_on_c, 0, 48, 0
2, 150239, Note_on_c, 0, 36, 0
2, 150240, Note_on_c, 0, 48, 96
2, 150240, Note_on_c, 0, 36, 96
2, 150479, Note_on_c, 0, 48, 0
2, 150479, Note_on_c, 0, 36, 0
2, 150480, Note_on_c, 0, 48, 96
2, 150480, Note_on_c, 0, 36, 96
2, 150719, Note_on_c, 0, 48, 0
2, 150719, Note_on_c, 0, 36, 0
2, 150720, Note_on_c, 0, 48, 96
2, 150720, Note_on_c, 0, 36, 96
2, 151199, Note_on_c, 0, 48, 0
2, 151199, Note_on_c, 0, 36, 0
2, 151680, Note_on_c, 0, 59, 96
2, 151680, Note_on_c, 0, 48, 96
2, 152159, Note_on_c, 0, 59, 0
2, 152159, Note_on_c, 0, 48, 0
2, 152640, Note_on_c, 0, 58, 96
2, 152640, Note_on_c, 0, 48, 96
2, 153119, Note_on_c, 0, 58, 0
2, 153119, Note_on_c, 0, 48, 0
2, 153600, Note_on_c, 0, 56, 96
2, 153600, Note_on_c, 0, 48, 96
2, 154079, Note_on_c, 0, 56, 0
2, 154079, Note_on_c, 0, 48, 0
2, 154560, Note_on_c, 0, 58, 96
2, 154560, Note_on_c, 0, 55, 96
2, 154560, Note_on_c, 0, 48, 96
2, 155039, Note_on_c, 0, 58, 0
2, 155039, Note_on_c, 0, 55, 0
2, 155039, Note_on_c, 0, 48, 0
2, 155520, Note_on_c, 0, 56, 96
2, 155520, Note_on_c, 0, 53, 96
2, 155520, Note_on_c, 0, 48, 96
2, 155999, Note_on_c, 0, 56, 0
2, 155999, Note_on_c, 0, 53, 0
2, 155999, Note_on_c, 0, 48, 0
2, 156480, Note_on_c, 0, 56, 96
2, 156480, Note_on_c, 0, 53, 96
2, 156480, Note_on_c, 0, 48, 96
2, 156959, Note_on_c, 0, 56, 0
2, 156959, Note_on_c, 0, 53, 0
2, 156959, Note_on_c, 0, 48, 0
2, 157440, Note_on_c, 0, 48, 96
2, 157440, Note_on_c, 0, 36, 96
2, 157919, Note_on_c, 0, 48, 0
2, 157919, Note_on_c, 0, 36, 0
2, 157920, Note_on_c, 0, 55, 96
2, 157920, Note_on_c, 0, 51, 96
2, 157920, Note_on_c, 0, 48, 96
2, 158159, Note_on_c, 0, 55, 0
2, 158159, Note_on_c, 0, 51, 0
2, 158159, Note_on_c, 0, 48, 0
2, 158160, Note_on_c, 0, 60, 96
2, 158399, Note_on_c, 0, 60, 0
2, 158400, Note_on_c, 0, 55, 96
2, 158400, Note_on_c, 0, 51, 96
2, 158400, Note_on_c, 0, 48, 96
2, 158639, Note_on_c, 0, 55, 0
2, 158639, Note_on_c, 0, 51, 0
2, 158639, Note_on_c, 0, 48, 0
2, 158640, Note_on_c, 0, 60, 96
2, 158879, Note_on_c, 0, 60, 0
2, 158880, Note_on_c, 0, 55, 96
2, 158880, Note_on_c, 0, 51, 96
2, 158880, Note_on_c, 0, 48, 96
2, 159119, Note_on_c, 0, 55, 0
2, 159119, Note_on_c, 0, 51, 0
2, 159119, Note_on_c, 0, 48, 0
2, 159120, Note_on_c, 0, 60, 96
2, 159359, Note_on_c, 0, 60, 0
2, 159360, Note_on_c, 0, 55, 96
2, 159360, Note_on_c, 0, 51, 96
2, 159360, Note_on_c, 0, 48, 96
2, 159599, Note_on_c, 0, 55, 0
2, 159599, Note_on_c, 0, 51, 0
2, 159599, Note_on_c, 0, 48, 0
2, 159600, Note_on_c, 0, 60, 96
2, 159839, Note_on_c, 0, 60, 0
2, 159840, Note_on_c, 0, 55, 96
2, 159840, Note_on_c, 0, 51, 96
2, 159840, Note_on_c, 0, 48, 96
2, 160079, Note_on_c, 0, 55, 0
2, 160079, Note_on_c, 0, 51, 0
2, 160079, Note_on_c, 0, 48, 0
2, 160080, Note_on_c, 0, 60, 96
2, 160319, Note_on_c, 0, 60, 0
2, 160320, Note_on_c, 0, 51, 96
2, 160320, Note_on_c, 0, 48, 96
2, 160559, Note_on_c, 0, 51, 0
2, 160559, Note_on_c, 0, 48, 0
2, 160560, Note_on_c, 0, 55, 96
2, 160560, Note_on_c, 0, 51, 96
2, 160560, Note_on_c, 0, 48, 96
2, 160799, Note_on_c, 0, 55, 0
2, 160799, Note_on_c, 0, 51, 0
2, 160799, Note_on_c, 0, 48, 0
2, 160800, Note_on_c, 0, 55, 96
2, 160800, Note_on_c, 0, 51, 96
2, 160800, Note_on_c, 0, 48, 96
2, 161039, Note_on_c, 0, 55, 0
2, 161039, Note_on_c, 0, 51, 0
2, 161039, Note_on_c, 0, 48, 0
2, 161040, Note_on_c, 0, 55, 96
2, 161040, Note_on_c, 0, 51, 96
2, 161040, Note_on_c, 0, 48, 96
2, 161279, Note_on_c, 0, 55, 0
2, 161279, Note_on_c, 0, 51, 0
2, 161279, Note_on_c, 0, 48, 0
2, 161280, Note_on_c, 0, 53, 96
2, 161280, Note_on_c, 0, 50, 96
2, 161280, Note_on_c, 0, 43, 96
2, 161519, Note_on_c, 0, 53, 0
2, 161519, Note_on_c, 0, 50, 0
2, 161519, Note_on_c, 0, 43, 0
2, 161520, Note_on_c, 0, 55, 96
2, 161759, Note_on_c, 0, 55, 0
2, 161760, Note_on_c, 0, 53, 96
2, 161760, Note_on_c, 0, 50, 96
2, 161760, Note_on_c, 0, 43, 96
2, 161999, Note_on_c, 0, 53, 0
2, 161999, Note_on_c, 0, 50, 0
2, 161999, Note_on_c, 0, 43, 0
2, 162000, Note_on_c, 0, 55, 96
2, 162239, Note_on_c, 0, 55, 0
2, 162240, Note_on_c, 0, 53, 96
2, 162240, Note_on_c, 0, 50, 96
2, 162240, Note_on_c, 0, 43, 96
2, 162479, Note_on_c, 0, 53, 0
2, 162479, Note_on_c, 0, 50, 0
2, 162479, Note_on_c, 0, 43, 0
2, 162480, Note_on_c, 0, 55, 96
2, 162719, Note_on_c, 0, 55, 0
2, 162720, Note_on_c, 0, 53, 96
2, 162720, Note_on_c, 0, 50, 96
2, 162720, Note_on_c, 0, 43, 96
2, 162959, Note_on_c, 0, 53, 0
2, 162959, Note_on_c, 0, 50, 0
2, 162959, Note_on_c, 0, 43, 0
2, 162960, Note_on_c, 0, 55, 96
2, 163199, Note_on_c, 0, 55, 0
2, 163200, Note_on_c, 0, 53, 96
2, 163200, Note_on_c, 0, 50, 96
2, 163200, Note_on_c, 0, 43, 96
2, 163439, Note_on_c, 0, 53, 0
2, 163439, Note_on_c, 0, 50, 0
2, 163439, Note_on_c, 0, 43, 0
2, 163440, Note_on_c, 0, 55, 96
2, 163679, Note_on_c, 0, 55, 0
2, 163680, Note_on_c, 0, 53, 96
2, 163680, Note_on_c, 0, 50, 96
2, 163680, Note_on_c, 0, 43, 96
2, 163919, Note_on_c, 0, 53, 0
2, 163919, Note_on_c, 0, 50, 0
2, 163919, Note_on_c, 0, 43, 0
2, 163920, Note_on_c, 0, 55, 96
2, 164159, Note_on_c, 0, 55, 0
2, 164160, Note_on_c, 0, 53, 96
2, 164160, Note_on_c, 0, 50, 96
2, 164160, Note_on_c, 0, 43, 96
2, 164399, Note_on_c, 0, 53, 0
2, 164399, Note_on_c, 0, 50, 0
2, 164399, Note_on_c, 0, 43, 0
2, 164400, Note_on_c, 0, 55, 96
2, 164639, Note_on_c, 0, 55, 0
2, 164640, Note_on_c, 0, 55, 96
2, 164640, Note_on_c, 0, 51, 96
2, 164640, Note_on_c, 0, 48, 96
2, 164879, Note_on_c, 0, 55, 0
2, 164879, Note_on_c, 0, 51, 0
2, 164879, Note_on_c, 0, 48, 0
2, 164880, Note_on_c, 0, 55, 96
2, 164880, Note_on_c, 0, 51, 96
2, 164880, Note_on_c, 0, 48, 96
2, 165119, Note_on_c, 0, 55, 0
2, 165119, Note_on_c, 0, 51, 0
2, 165119, Note_on_c, 0, 48, 0
2, 165120, Note_on_c, 0, 54, 96
2, 165120, Note_on_c, 0, 51, 96
2, 165120, Note_on_c, 0, 48, 96
2, 165359, Note_on_c, 0, 54, 0
2, 165359, Note_on_c, 0, 51, 0
2, 165359, Note_on_c, 0, 48, 0
2, 165360, Note_on_c, 0, 57, 96
2, 165599, Note_on_c, 0, 57, 0
2, 165600, Note_on_c, 0, 54, 96
2, 165600, Note_on_c, 0, 51, 96
2, 165600, Note_on_c, 0, 48, 96
2, 165839, Note_on_c, 0, 54, 0
2, 165839, Note_on_c, 0, 51, 0
2, 165839, Note_on_c, 0, 48, 0
2, 165840, Note_on_c, 0, 57, 96
2, 166079, Note_on_c, 0, 57, 0
2, 166080, Note_on_c, 0, 54, 96
2, 166080, Note_on_c, 0, 51, 96
2, 166080, Note_on_c, 0, 48, 96
2, 166319, Note_on_c, 0, 54, 0
2, 166319, Note_on_c, 0, 51, 0
2, 166319, Note_on_c, 0, 48, 0
2, 166320, Note_on_c, 0, 57, 96
2, 166559, Note_on_c, 0, 57, 0
2, 166560, Note_on_c, 0, 54, 96
2, 166560, Note_on_c, 0, 51, 96
2, 166560, Note_on_c, 0, 48, 96
2, 166799, Note_on_c, 0, 54, 0
2, 166799, Note_on_c, 0, 51, 0
2, 166799, Note_on_c, 0, 48, 0
2, 166800, Note_on_c, 0, 57, 96
2, 167039, Note_on_c, 0, 57, 0
2, 167040, Note_on_c, 0, 54, 96
2, 167040, Note_on_c, 0, 51, 96
2, 167040, Note_on_c, 0, 48, 96
2, 167279, Note_on_c, 0, 54, 0
2, 167279, Note_on_c, 0, 51, 0
2, 167279, Note_on_c, 0, 48, 0
2, 167280, Note_on_c, 0, 57, 96
2, 167519, Note_on_c, 0, 57, 0
2, 167520, Note_on_c, 0, 54, 96
2, 167520, Note_on_c, 0, 51, 96
2, 167520, Note_on_c, 0, 48, 96
2, 167759, Note_on_c, 0, 54, 0
2, 167759, Note_on_c, 0, 51, 0
2, 167759, Note_on_c, 0, 48, 0
2, 167760, Note_on_c, 0, 57, 96
2, 167999, Note_on_c, 0, 57, 0
2, 168000, Note_on_c, 0, 54, 96
2, 168000, Note_on_c, 0, 51, 96
2, 168000, Note_on_c, 0, 48, 96
2, 168239, Note_on_c, 0, 54, 0
2, 168239, Note_on_c, 0, 51, 0
2, 168239, Note_on_c, 0, 48, 0
2, 168240, Note_on_c, 0, 57, 96
2, 168479, Note_on_c, 0, 57, 0
2, 168480, Note_on_c, 0, 54, 96
2, 168480, Note_on_c, 0, 51, 96
2, 168480, Note_on_c, 0, 48, 96
2, 168719, Note_on_c, 0, 54, 0
2, 168719, Note_on_c, 0, 51, 0
2, 168719, Note_on_c, 0, 48, 0
2, 168720, Note_on_c, 0, 57, 96
2, 168959, Note_on_c, 0, 57, 0
2, 168960, Note_on_c, 0, 56, 96
2, 168960, Note_on_c, 0, 55, 96
2, 168960, Note_on_c, 0, 51, 96
2, 168960, Note_on_c, 0, 48, 96
2, 169439, Note_on_c, 0, 56, 0
2, 169439, Note_on_c, 0, 55, 0
2, 169439, Note_on_c, 0, 51, 0
2, 169439, Note_on_c, 0, 48, 0
2, 169920, Note_on_c, 0, 58, 96
2, 169920, Note_on_c, 0, 53, 96
2, 169920, Note_on_c, 0, 50, 96
2, 170399, Note_on_c, 0, 58, 0
2, 170399, Note_on_c, 0, 53, 0
2, 170399, Note_on_c, 0, 50, 0
2, 171840, Note_on_c, 0, 63, 96
2, 172799, Note_on_c, 0, 63, 0
2, 172800, Note_on_c, 0, 65, 96
2, 173759, Note_on_c, 0, 65, 0
2, 173760, Note_on_c, 0, 58, 96
2, 174720, Note_on_c, 0, 63, 96
2, 175679, Note_on_c, 0, 63, 0
2, 175680, Note_on_c, 0, 65, 96
2, 176639, Note_on_c, 0, 65, 0
2, 176640, Note_on_c, 0, 62, 96
2, 176879, Note_on_c, 0, 62, 0
2, 176879, Note_on_c, 0, 58, 0
2, 176880, Note_on_c, 0, 46, 96
2, 176880, Note_on_c, 0, 34, 96
2, 177119, Note_on_c, 0, 46, 0
2, 177119, Note_on_c, 0, 34, 0
2, 177120, Note_on_c, 0, 46, 96
2, 177120, Note_on_c, 0, 34, 96
2, 177359, Note_on_c, 0, 46, 0
2, 177359, Note_on_c, 0, 34, 0
2, 177360, Note_on_c, 0, 46, 96
2, 177360, Note_on_c, 0, 34, 96
2, 177599, Note_on_c, 0, 46, 0
2, 177599, Note_on_c, 0, 34, 0
2, 177600, Note_on_c, 0, 51, 96
2, 177600, Note_on_c, 0, 39, 96
2, 178079, Note_on_c, 0, 51, 0
2, 178079, Note_on_c, 0, 39, 0
2, 178560, Note_on_c, 0, 63, 96
2, 178560, Note_on_c, 0, 58, 96
2, 179519, Note_on_c, 0, 63, 0
2, 179520, Note_on_c, 0, 65, 96
2, 180479, Note_on_c, 0, 65, 0
2, 180480, Note_on_c, 0, 62, 96
2, 180719, Note_on_c, 0, 62, 0
2, 180719, Note_on_c, 0, 58, 0
2, 180720, Note_on_c, 0, 46, 96
2, 180720, Note_on_c, 0, 34, 96
2, 180959, Note_on_c, 0, 46, 0
2, 180959, Note_on_c, 0, 34, 0
2, 180960, Note_on_c, 0, 46, 96
2, 180960, Note_on_c, 0, 34, 96
2, 181199, Note_on_c, 0, 46, 0
2, 181199, Note_on_c, 0, 34, 0
2, 181200, Note_on_c, 0, 46, 96
2, 181200, Note_on_c, 0, 34, 96
2, 181439, Note_on_c, 0, 46, 0
2, 181439, Note_on_c, 0, 34, 0
2, 181440, Note_on_c, 0, 51, 96
2, 181440, Note_on_c, 0, 39, 96
2, 181919, Note_on_c, 0, 51, 0
2, 181919, Note_on_c, 0, 39, 0
2, 182400, Note_on_c, 0, 58, 96
2, 182400, Note_on_c, 0, 55, 96
2, 182400, Note_on_c, 0, 46, 96
2, 183359, Note_on_c, 0, 58, 0
2, 183359, Note_on_c, 0, 55, 0
2, 183360, Note_on_c, 0, 56, 96
2, 183360, Note_on_c, 0, 53, 96
2, 184319, Note_on_c, 0, 56, 0
2, 184319, Note_on_c, 0, 53, 0
2, 184320, Note_on_c, 0, 56, 96
2, 184320, Note_on_c, 0, 50, 96
2, 184559, Note_on_c, 0, 46, 0
2, 184560, Note_on_c, 0, 46, 96
2, 184799, Note_on_c, 0, 46, 0
2, 184800, Note_on_c, 0, 46, 96
2, 185039, Note_on_c, 0, 46, 0
2, 185040, Note_on_c, 0, 46, 96
2, 185279, Note_on_c, 0, 56, 0
2, 185279, Note_on_c, 0, 50, 0
2, 185279, Note_on_c, 0, 46, 0
2, 185280, Note_on_c, 0, 55, 96
2, 185280, Note_on_c, 0, 51, 96
2, 186239, Note_on_c, 0, 55, 0
2, 186239, Note_on_c, 0, 51, 0
2, 186240, Note_on_c, 0, 58, 96
2, 186240, Note_on_c, 0, 55, 96
2, 187199, Note_on_c, 0, 58, 0
2, 187199, Note_on_c, 0, 55, 0
2, 187200, Note_on_c, 0, 55, 96
2, 187200, Note_on_c, 0, 52, 96
2, 188159, Note_on_c, 0, 55, 0
2, 188159, Note_on_c, 0, 52, 0
2, 188400, Note_on_c, 0, 48, 96
2, 188400, Note_on_c, 0, 36, 96
2, 188639, Note_on_c, 0, 48, 0
2, 188639, Note_on_c, 0, 36, 0
2, 188640, Note_on_c, 0, 48, 96
2, 188640, Note_on_c, 0, 36, 96
2, 188879, Note_on_c, 0, 48, 0
2, 188879, Note_on_c, 0, 36, 0
2, 188880, Note_on_c, 0, 48, 96
2, 188880, Note_on_c, 0, 36, 96
2, 189119, Note_on_c, 0, 48, 0
2, 189119, Note_on_c, 0, 36, 0
2, 189120, Note_on_c, 0, 53, 96
2, 189120, Note_on_c, 0, 41, 96
2, 189599, Note_on_c, 0, 53, 0
2, 189599, Note_on_c, 0, 41, 0
2, 190080, Note_on_c, 0, 61, 96
2, 190080, Note_on_c, 0, 56, 96
2, 191039, Note_on_c, 0, 61, 0
2, 191039, Note_on_c, 0, 56, 0
2, 191040, Note_on_c, 0, 58, 96
2, 191040, Note_on_c, 0, 55, 96
2, 191999, Note_on_c, 0, 58, 0
2, 191999, Note_on_c, 0, 55, 0
2, 192240, Note_on_c, 0, 51, 96
2, 192240, Note_on_c, 0, 39, 96
2, 192479, Note_on_c, 0, 51, 0
2, 192479, Note_on_c, 0, 39, 0
2, 192480, Note_on_c, 0, 51, 96
2, 192480, Note_on_c, 0, 39, 96
2, 192719, Note_on_c, 0, 51, 0
2, 192719, Note_on_c, 0, 39, 0
2, 192720, Note_on_c, 0, 51, 96
2, 192720, Note_on_c, 0, 39, 96
2, 192959, Note_on_c, 0, 51, 0
2, 192959, Note_on_c, 0, 39, 0
2, 192960, Note_on_c, 0, 56, 96
2, 192960, Note_on_c, 0, 44, 96
2, 193439, Note_on_c, 0, 56, 0
2, 193439, Note_on_c, 0, 44, 0
2, 193920, Note_on_c, 0, 56, 96
2, 194879, Note_on_c, 0, 56, 0
2, 195120, Note_on_c, 0, 57, 96
2, 195120, Note_on_c, 0, 45, 96
2, 195359, Note_on_c, 0, 57, 0
2, 195359, Note_on_c, 0, 45, 0
2, 195360, Note_on_c, 0, 57, 96
2, 195360, Note_on_c, 0, 45, 96
2, 195599, Note_on_c, 0, 57, 0
2, 195599, Note_on_c, 0, 45, 0
2, 195600, Note_on_c, 0, 57, 96
2, 195600, Note_on_c, 0, 45, 96
2, 195839, Note_on_c, 0, 57, 0
2, 195839, Note_on_c, 0, 45, 0
2, 195840, Note_on_c, 0, 57, 96
2, 195840, Note_on_c, 0, 45, 96
2, 196319, Note_on_c, 0, 57, 0
2, 196319, Note_on_c, 0, 45, 0
2, 197040, Note_on_c, 0, 58, 96
2, 197040, Note_on_c, 0, 46, 96
2, 197279, Note_on_c, 0, 58, 0
2, 197279, Note_on_c, 0, 46, 0
2, 197280, Note_on_c, 0, 58, 96
2, 197280, Note_on_c, 0, 46, 96
2, 197519, Note_on_c, 0, 58, 0
2, 197519, Note_on_c, 0, 46, 0
2, 197520, Note_on_c, 0, 58, 96
2, 197520, Note_on_c, 0, 46, 96
2, 197759, Note_on_c, 0, 58, 0
2, 197759, Note_on_c, 0, 46, 0
2, 197760, Note_on_c, 0, 58, 96
2, 197760, Note_on_c, 0, 46, 96
2, 198239, Note_on_c, 0, 58, 0
2, 198239, Note_on_c, 0, 46, 0
2, 198960, Note_on_c, 0, 59, 96
2, 198960, Note_on_c, 0, 47, 96
2, 199199, Note_on_c, 0, 59, 0
2, 199199, Note_on_c, 0, 47, 0
2, 199200, Note_on_c, 0, 59, 96
2, 199200, Note_on_c, 0, 47, 96
2, 199439, Note_on_c, 0, 59, 0
2, 199439, Note_on_c, 0, 47, 0
2, 199440, Note_on_c, 0, 59, 96
2, 199440, Note_on_c, 0, 47, 96
2, 199679, Note_on_c, 0, 59, 0
2, 199679, Note_on_c, 0, 47, 0
2, 199680, Note_on_c, 0, 59, 96
2, 199680, Note_on_c, 0, 47, 96
2, 200159, Note_on_c, 0, 59, 0
2, 200159, Note_on_c, 0, 47, 0
2, 200880, Note_on_c, 0, 60, 96
2, 200880, Note_on_c, 0, 48, 96
2, 201119, Note_on_c, 0, 60, 0
2, 201119, Note_on_c, 0, 48, 0
2, 201120, Note_on_c, 0, 60, 96
2, 201120, Note_on_c, 0, 48, 96
2, 201359, Note_on_c, 0, 60, 0
2, 201359, Note_on_c, 0, 48, 0
2, 201360, Note_on_c, 0, 60, 96
2, 201360, Note_on_c, 0, 48, 96
2, 201599, Note_on_c, 0, 60, 0
2, 201599, Note_on_c, 0, 48, 0
2, 201600, Note_on_c, 0, 59, 96
2, 201600, Note_on_c, 0, 47, 96
2, 202079, Note_on_c, 0, 59, 0
2, 202079, Note_on_c, 0, 47, 0
2, 202800, Note_on_c, 0, 60, 96
2, 202800, Note_on_c, 0, 48, 96
2, 203039, Note_on_c, 0, 60, 0
2, 203039, Note_on_c, 0, 48, 0
2, 203040, Note_on_c, 0, 60, 96
2, 203040, Note_on_c, 0, 48, 96
2, 203279, Note_on_c, 0, 60, 0
2, 203279, Note_on_c, 0, 48, 0
2, 203280, Note_on_c, 0, 60, 96
2, 203280, Note_on_c, 0, 48, 96
2, 203519, Note_on_c, 0, 60, 0
2, 203519, Note_on_c, 0, 48, 0
2, 203520, Note_on_c, 0, 60, 96
2, 203520, Note_on_c, 0, 48, 96
2, 203999, Note_on_c, 0, 60, 0
2, 203999, Note_on_c, 0, 48, 0
2, 204000, Note_on_c, 0, 60, 96
2, 204000, Note_on_c, 0, 48, 96
2, 204239, Note_on_c, 0, 60, 0
2, 204239, Note_on_c, 0, 48, 0
2, 204240, Note_on_c, 0, 60, 96
2, 204240, Note_on_c, 0, 48, 96
2, 204479, Note_on_c, 0, 60, 0
2, 204479, Note_on_c, 0, 48, 0
2, 204480, Note_on_c, 0, 62, 96
2, 204480, Note_on_c, 0, 58, 96
2, 204480, Note_on_c, 0, 50, 96
2, 205919, Note_on_c, 0, 62, 0
2, 205919, Note_on_c, 0, 58, 0
2, 205919, Note_on_c, 0, 50, 0
2, 205920, Note_on_c, 0, 50, 96
2, 205920, Note_on_c, 0, 38, 96
2, 206399, Note_on_c, 0, 50, 0
2, 206399, Note_on_c, 0, 38, 0
2, 206400, Note_on_c, 0, 51, 96
2, 206400, Note_on_c, 0, 46, 96
2, 206400, Note_on_c, 0, 39, 96
2, 206879, Note_on_c, 0, 51, 0
2, 206879, Note_on_c, 0, 46, 0
2, 206879, Note_on_c, 0, 39, 0
2, 207360, Note_on_c, 0, 53, 96
2, 207360, Note_on_c, 0, 46, 96
2, 207360, Note_on_c, 0, 44, 96
2, 207360, Note_on_c, 0, 41, 96
2, 207839, Note_on_c, 0, 53, 0
2, 207839, Note_on_c, 0, 46, 0
2, 207839, Note_on_c, 0, 44, 0
2, 207839, Note_on_c, 0, 41, 0
2, 208320, Note_on_c, 0, 55, 96
2, 208320, Note_on_c, 0, 51, 96
2, 208320, Note_on_c, 0, 46, 96
2, 208320, Note_on_c, 0, 43, 96
2, 208799, Note_on_c, 0, 55, 0
2, 208799, Note_on_c, 0, 51, 0
2, 208799, Note_on_c, 0, 46, 0
2, 208799, Note_on_c, 0, 43, 0
2, 209280, Note_on_c, 0, 53, 96
2, 209280, Note_on_c, 0, 51, 96
2, 209280, Note_on_c, 0, 48, 96
2, 209280, Note_on_c, 0, 44, 96
2, 209759, Note_on_c, 0, 53, 0
2, 209759, Note_on_c, 0, 51, 0
2, 209759, Note_on_c, 0, 48, 0
2, 209759, Note_on_c, 0, 44, 0
2, 210240, Note_on_c, 0, 55, 96
2, 210240, Note_on_c, 0, 51, 96
2, 210240, Note_on_c, 0, 46, 96
2, 210719, Note_on_c, 0, 55, 0
2, 210719, Note_on_c, 0, 51, 0
2, 210719, Note_on_c, 0, 46, 0
2, 211200, Note_on_c, 0, 58, 96
2, 211200, Note_on_c, 0, 53, 96
2, 211200, Note_on_c, 0, 50, 96
2, 211200, Note_on_c, 0, 46, 96
2, 211679, Note_on_c, 0, 58, 0
2, 211679, Note_on_c, 0, 53, 0
2, 211679, Note_on_c, 0, 50, 0
2, 211679, Note_on_c, 0, 46, 0
2, 212160, Note_on_c, 0, 50, 96
2, 212160, Note_on_c, 0, 44, 96
2, 212160, Note_on_c, 0, 38, 96
2, 212639, Note_on_c, 0, 50, 0
2, 212639, Note_on_c, 0, 44, 0
2, 212639, Note_on_c, 0, 38, 0
2, 212640, Note_on_c, 0, 53, 96
2, 212640, Note_on_c, 0, 41, 96
2, 213119, Note_on_c, 0, 53, 0
2, 213119, Note_on_c, 0, 41, 0
2, 213120, Note_on_c, 0, 50, 96
2, 213120, Note_on_c, 0, 44, 96
2, 213120, Note_on_c, 0, 38, 96
2, 213599, Note_on_c, 0, 50, 0
2, 213599, Note_on_c, 0, 44, 0
2, 213599, Note_on_c, 0, 38, 0
2, 213600, Note_on_c, 0, 53, 96
2, 213600, Note_on_c, 0, 41, 96
2, 214079, Note_on_c, 0, 53, 0
2, 214079, Note_on_c, 0, 41, 0
2, 214080, Note_on_c, 0, 51, 96
2, 214080, Note_on_c, 0, 39, 96
2, 214559, Note_on_c, 0, 51, 0
2, 214559, Note_on_c, 0, 39, 0
2, 214560, Note_on_c, 0, 55, 96
2, 214560, Note_on_c, 0, 41, 96
2, 215039, Note_on_c, 0, 55, 0
2, 215039, Note_on_c, 0, 41, 0
2, 215040, Note_on_c, 0, 53, 96
2, 215040, Note_on_c, 0, 41, 96
2, 215519, Note_on_c, 0, 53, 0
2, 215519, Note_on_c, 0, 41, 0
2, 215520, Note_on_c, 0, 56, 96
2, 215520, Note_on_c, 0, 44, 96
2, 215999, Note_on_c, 0, 56, 0
2, 215999, Note_on_c, 0, 44, 0
2, 216000, Note_on_c, 0, 55, 96
2, 216000, Note_on_c, 0, 41, 96
2, 216479, Note_on_c, 0, 55, 0
2, 216479, Note_on_c, 0, 41, 0
2, 216480, Note_on_c, 0, 58, 96
2, 216480, Note_on_c, 0, 46, 96
2, 216959, Note_on_c, 0, 58, 0
2, 216959, Note_on_c, 0, 46, 0
2, 216960, Note_on_c, 0, 58, 96
2, 216960, Note_on_c, 0, 46, 96
2, 217439, Note_on_c, 0, 58, 0
2, 217439, Note_on_c, 0, 46, 0
2, 217440, Note_on_c, 0, 60, 96
2, 217440, Note_on_c, 0, 48, 96
2, 217919, Note_on_c, 0, 60, 0
2, 217919, Note_on_c, 0, 48, 0
2, 217920, Note_on_c, 0, 58, 96
2, 217920, Note_on_c, 0, 46, 96
2, 218399, Note_on_c, 0, 58, 0
2, 218399, Note_on_c, 0, 46, 0
2, 218400, Note_on_c, 0, 46, 96
2, 218400, Note_on_c, 0, 34, 96
2, 218879, Note_on_c, 0, 46, 0
2, 218879, Note_on_c, 0, 34, 0
2, 218880, Note_on_c, 0, 58, 96
2, 218880, Note_on_c, 0, 46, 96
2, 219359, Note_on_c, 0, 58, 0
2, 219359, Note_on_c, 0, 46, 0
2, 219360, Note_on_c, 0, 62, 96
2, 219360, Note_on_c, 0, 58, 96
2, 219360, Note_on_c, 0, 56, 96
2, 219360, Note_on_c, 0, 53, 96
2, 219839, Note_on_c, 0, 62, 0
2, 219839, Note_on_c, 0, 58, 0
2, 219839, Note_on_c, 0, 56, 0
2, 219839, Note_on_c, 0, 53, 0
2, 219840, Note_on_c, 0, 63, 96
2, 219840, Note_on_c, 0, 58, 96
2, 219840, Note_on_c, 0, 55, 96
2, 219840, Note_on_c, 0, 51, 96
2, 220079, Note_on_c, 0, 63, 0
2, 220079, Note_on_c, 0, 58, 0
2, 220079, Note_on_c, 0, 55, 0
2, 220079, Note_on_c, 0, 51, 0
2, 220080, Note_on_c, 0, 67, 96
2, 220319, Note_on_c, 0, 67, 0
2, 220320, Note_on_c, 0, 67, 96
2, 220559, Note_on_c, 0, 67, 0
2, 220560, Note_on_c, 0, 67, 96
2, 220799, Note_on_c, 0, 67, 0
2, 220800, Note_on_c, 0, 63, 96
2, 221039, Note_on_c, 0, 63, 0
2, 221040, Note_on_c, 0, 58, 96
2, 221279, Note_on_c, 0, 58, 0
2, 221280, Note_on_c, 0, 58, 96
2, 221519, Note_on_c, 0, 58, 0
2, 221520, Note_on_c, 0, 58, 96
2, 221759, Note_on_c, 0, 58, 0
2, 221760, Note_on_c, 0, 67, 96
2, 221760, Note_on_c, 0, 55, 96
2, 221999, Note_on_c, 0, 67, 0
2, 221999, Note_on_c, 0, 55, 0
2, 222000, Note_on_c, 0, 51, 96
2, 222239, Note_on_c, 0, 51, 0
2, 222240, Note_on_c, 0, 51, 96
2, 222479, Note_on_c, 0, 51, 0
2, 222480, Note_on_c, 0, 51, 96
2, 222719, Note_on_c, 0, 51, 0
2, 222720, Note_on_c, 0, 58, 96
2, 222720, Note_on_c, 0, 46, 96
2, 222959, Note_on_c, 0, 58, 0
2, 222959, Note_on_c, 0, 46, 0
2, 222960, Note_on_c, 0, 46, 96
2, 222960, Note_on_c, 0, 34, 96
2, 223199, Note_on_c, 0, 46, 0
2, 223199, Note_on_c, 0, 34, 0
2, 223200, Note_on_c, 0, 46, 96
2, 223200, Note_on_c, 0, 34, 96
2, 223439, Note_on_c, 0, 46, 0
2, 223439, Note_on_c, 0, 34, 0
2, 223440, Note_on_c, 0, 46, 96
2, 223440, Note_on_c, 0, 34, 96
2, 223679, Note_on_c, 0, 46, 0
2, 223679, Note_on_c, 0, 34, 0
2, 223680, Note_on_c, 0, 51, 96
2, 223680, Note_on_c, 0, 39, 96
2, 223919, Note_on_c, 0, 51, 0
2, 223919, Note_on_c, 0, 39, 0
2, 223920, Note_on_c, 0, 67, 96
2, 224159, Note_on_c, 0, 67, 0
2, 224160, Note_on_c, 0, 67, 96
2, 224399, Note_on_c, 0, 67, 0
2, 224400, Note_on_c, 0, 67, 96
2, 224639, Note_on_c, 0, 67, 0
2, 224640, Note_on_c, 0, 63, 96
2, 224879, Note_on_c, 0, 63, 0
2, 224880, Note_on_c, 0, 58, 96
2, 225119, Note_on_c, 0, 58, 0
2, 225120, Note_on_c, 0, 58, 96
2, 225359, Note_on_c, 0, 58, 0
2, 225360, Note_on_c, 0, 58, 96
2, 225599, Note_on_c, 0, 58, 0
2, 225600, Note_on_c, 0, 67, 96
2, 225600, Note_on_c, 0, 55, 96
2, 225839, Note_on_c, 0, 67, 0
2, 225839, Note_on_c, 0, 55, 0
2, 225840, Note_on_c, 0, 51, 96
2, 226079, Note_on_c, 0, 51, 0
2, 226080, Note_on_c, 0, 51, 96
2, 226319, Note_on_c, 0, 51, 0
2, 226320, Note_on_c, 0, 51, 96
2, 226559, Note_on_c, 0, 51, 0
2, 226560, Note_on_c, 0, 58, 96
2, 226560, Note_on_c, 0, 46, 96
2, 226799, Note_on_c, 0, 58, 0
2, 226799, Note_on_c, 0, 46, 0
2, 226800, Note_on_c, 0, 46, 96
2, 226800, Note_on_c, 0, 34, 96
2, 227039, Note_on_c, 0, 46, 0
2, 227039, Note_on_c, 0, 34, 0
2, 227040, Note_on_c, 0, 46, 96
2, 227040, Note_on_c, 0, 34, 96
2, 227279, Note_on_c, 0, 46, 0
2, 227279, Note_on_c, 0, 34, 0
2, 227280, Note_on_c, 0, 46, 96
2, 227280, Note_on_c, 0, 34, 96
2, 227519, Note_on_c, 0, 46, 0
2, 227519, Note_on_c, 0, 34, 0
2, 227520, Note_on_c, 0, 51, 96
2, 227520, Note_on_c, 0, 39, 96
2, 227999, Note_on_c, 0, 51, 0
2, 227999, Note_on_c, 0, 39, 0
2, 228720, Note_on_c, 0, 46, 96
2, 228720, Note_on_c, 0, 34, 96
2, 228959, Note_on_c, 0, 46, 0
2, 228959, Note_on_c, 0, 34, 0
2, 228960, Note_on_c, 0, 46, 96
2, 228960, Note_on_c, 0, 34, 96
2, 229199, Note_on_c, 0, 46, 0
2, 229199, Note_on_c, 0, 34, 0
2, 229200, Note_on_c, 0, 46, 96
2, 229200, Note_on_c, 0, 34, 96
2, 229439, Note_on_c, 0, 46, 0
2, 229439, Note_on_c, 0, 34, 0
2, 229440, Note_on_c, 0, 51, 96
2, 229440, Note_on_c, 0, 39, 96
2, 229919, Note_on_c, 0, 51, 0
2, 229919, Note_on_c, 0, 39, 0
2, 230640, Note_on_c, 0, 46, 96
2, 230640, Note_on_c, 0, 34, 96
2, 230879, Note_on_c, 0, 46, 0
2, 230879, Note_on_c, 0, 34, 0
2, 230880, Note_on_c, 0, 46, 96
2, 230880, Note_on_c, 0, 34, 96
2, 231119, Note_on_c, 0, 46, 0
2, 231119, Note_on_c, 0, 34, 0
2, 231120, Note_on_c, 0, 46, 96
2, 231120, Note_on_c, 0, 34, 96
2, 231359, Note_on_c, 0, 46, 0
2, 231359, Note_on_c, 0, 34, 0
2, 231360, Note_on_c, 0, 51, 96
2, 231360, Note_on_c, 0, 39, 96
2, 231839, Note_on_c, 0, 51, 0
2, 231839, Note_on_c, 0, 39, 0
2, 231840, End_track
0, 0, End_of_file
