0, 0, Header, 1, 8, 480
1, 0, Start_track
1, 0, Unknown_meta_event, 8, 34, 86, 105, 118, 97, 108, 100, 105, 32, 84, 104, 101, 32, 70, 111, 117, 114, 32, 83, 101, 97, 115, 111, 110, 115, 32, 45, 32, 87, 105, 110, 116, 101, 114, 0
1, 0, Time_signature, 4, 2, 24, 8
1, 0, Key_signature, -4, "major"
1, 0, Tempo, 750002
1, 0, Program_c, 0, 40
1, 2, Control_c, 0, 7, 100
1, 4, Control_c, 0, 10, 64
1, 6, Control_c, 0, 91, 30
1, 8, Control_c, 0, 93, 30
1, 5760, Note_on_c, 0, 82, 64
1, 5879, Note_on_c, 0, 82, 0
1, 6000, Note_on_c, 0, 82, 64
1, 6119, Note_on_c, 0, 82, 0
1, 6240, Note_on_c, 0, 82, 64
1, 6359, Note_on_c, 0, 82, 0
1, 6480, Note_on_c, 0, 82, 64
1, 6599, Note_on_c, 0, 82, 0
1, 6720, Note_on_c, 0, 82, 64
1, 6839, Note_on_c, 0, 82, 0
1, 6960, Note_on_c, 0, 82, 64
1, 7079, Note_on_c, 0, 82, 0
1, 7200, Note_on_c, 0, 82, 64
1, 7319, Note_on_c, 0, 82, 0
1, 7440, Note_on_c, 0, 82, 64
1, 7559, Note_on_c, 0, 82, 0
1, 7680, Note_on_c, 0, 82, 64
1, 7799, Note_on_c, 0, 82, 0
1, 7920, Note_on_c, 0, 82, 64
1, 8039, Note_on_c, 0, 82, 0
1, 8160, Note_on_c, 0, 82, 64
1, 8279, Note_on_c, 0, 82, 0
1, 8400, Note_on_c, 0, 82, 64
1, 8519, Note_on_c, 0, 82, 0
1, 8640, Note_on_c, 0, 82, 64
1, 8759, Note_on_c, 0, 82, 0
1, 8880, Note_on_c, 0, 82, 64
1, 8999, Note_on_c, 0, 82, 0
1, 9120, Note_on_c, 0, 82, 64
1, 9239, Note_on_c, 0, 82, 0
1, 9360, Note_on_c, 0, 82, 64
1, 9479, Note_on_c, 0, 82, 0
1, 9600, Note_on_c, 0, 80, 64
1, 9719, Note_on_c, 0, 80, 0
1, 9840, Note_on_c, 0, 80, 64
1, 9959, Note_on_c, 0, 80, 0
1, 10080, Note_on_c, 0, 80, 64
1, 10199, Note_on_c, 0, 80, 0
1, 10320, Note_on_c, 0, 80, 64
1, 10439, Note_on_c, 0, 80, 0
1, 10560, Note_on_c, 0, 80, 64
1, 10679, Note_on_c, 0, 80, 0
1, 10800, Note_on_c, 0, 80, 64
1, 10919, Note_on_c, 0, 80, 0
1, 11040, Note_on_c, 0, 80, 64
1, 11159, Note_on_c, 0, 80, 0
1, 11280, Note_on_c, 0, 80, 64
1, 11399, Note_on_c, 0, 80, 0
1, 11520, Note_on_c, 0, 73, 64
1, 11639, Note_on_c, 0, 73, 0
1, 11760, Note_on_c, 0, 73, 64
1, 11879, Note_on_c, 0, 73, 0
1, 12000, Note_on_c, 0, 73, 64
1, 12119, Note_on_c, 0, 73, 0
1, 12240, Note_on_c, 0, 73, 64
1, 12359, Note_on_c, 0, 73, 0
1, 12480, Note_on_c, 0, 73, 64
1, 12599, Note_on_c, 0, 73, 0
1, 12720, Note_on_c, 0, 73, 64
1, 12839, Note_on_c, 0, 73, 0
1, 12960, Note_on_c, 0, 73, 64
1, 13079, Note_on_c, 0, 73, 0
1, 13200, Note_on_c, 0, 73, 64
1, 13319, Note_on_c, 0, 73, 0
1, 13440, Note_on_c, 0, 75, 64
1, 13559, Note_on_c, 0, 75, 0
1, 13680, Note_on_c, 0, 75, 64
1, 13799, Note_on_c, 0, 75, 0
1, 13920, Note_on_c, 0, 75, 64
1, 14039, Note_on_c, 0, 75, 0
1, 14160, Note_on_c, 0, 75, 64
1, 14279, Note_on_c, 0, 75, 0
1, 14400, Note_on_c, 0, 75, 64
1, 14519, Note_on_c, 0, 75, 0
1, 14640, Note_on_c, 0, 75, 64
1, 14759, Note_on_c, 0, 75, 0
1, 14880, Note_on_c, 0, 75, 64
1, 14999, Note_on_c, 0, 75, 0
1, 15120, Note_on_c, 0, 75, 64
1, 15239, Note_on_c, 0, 75, 0
1, 15360, Note_on_c, 0, 74, 64
1, 15479, Note_on_c, 0, 74, 0
1, 15600, Note_on_c, 0, 74, 64
1, 15719, Note_on_c, 0, 74, 0
1, 15840, Note_on_c, 0, 74, 64
1, 15959, Note_on_c, 0, 74, 0
1, 16080, Note_on_c, 0, 74, 64
1, 16199, Note_on_c, 0, 74, 0
1, 16320, Note_on_c, 0, 74, 64
1, 16439, Note_on_c, 0, 74, 0
1, 16560, Note_on_c, 0, 74, 64
1, 16679, Note_on_c, 0, 74, 0
1, 16800, Note_on_c, 0, 74, 64
1, 16919, Note_on_c, 0, 74, 0
1, 17040, Note_on_c, 0, 74, 64
1, 17159, Note_on_c, 0, 74, 0
1, 17280, Note_on_c, 0, 75, 64
1, 17399, Note_on_c, 0, 75, 0
1, 17520, Note_on_c, 0, 75, 64
1, 17639, Note_on_c, 0, 75, 0
1, 17760, Note_on_c, 0, 75, 64
1, 17879, Note_on_c, 0, 75, 0
1, 18000, Note_on_c, 0, 75, 64
1, 18119, Note_on_c, 0, 75, 0
1, 18240, Note_on_c, 0, 75, 64
1, 18359, Note_on_c, 0, 75, 0
1, 18480, Note_on_c, 0, 75, 64
1, 18599, Note_on_c, 0, 75, 0
1, 18720, Note_on_c, 0, 75, 64
1, 18839, Note_on_c, 0, 75, 0
1, 18960, Note_on_c, 0, 75, 64
1, 19079, Note_on_c, 0, 75, 0
1, 19200, Note_on_c, 0, 74, 64
1, 19319, Note_on_c, 0, 74, 0
1, 19440, Note_on_c, 0, 74, 64
1, 19559, Note_on_c, 0, 74, 0
1, 19680, Note_on_c, 0, 74, 64
1, 19799, Note_on_c, 0, 74, 0
1, 19920, Note_on_c, 0, 74, 64
1, 20039, Note_on_c, 0, 74, 0
1, 20160, Note_on_c, 0, 74, 64
1, 20279, Note_on_c, 0, 74, 0
1, 20400, Note_on_c, 0, 74, 64
1, 20519, Note_on_c, 0, 74, 0
1, 20640, Note_on_c, 0, 74, 64
1, 20759, Note_on_c, 0, 74, 0
1, 20880, Note_on_c, 0, 74, 64
1, 20999, Note_on_c, 0, 74, 0
1, 21120, Note_on_c, 0, 72, 96
1, 21179, Note_on_c, 0, 72, 0
1, 21180, Note_on_c, 0, 84, 96
1, 21239, Note_on_c, 0, 84, 0
1, 21240, Note_on_c, 0, 84, 96
1, 21299, Note_on_c, 0, 84, 0
1, 21300, Note_on_c, 0, 79, 96
1, 21359, Note_on_c, 0, 79, 0
1, 21360, Note_on_c, 0, 79, 96
1, 21419, Note_on_c, 0, 79, 0
1, 21420, Note_on_c, 0, 75, 96
1, 21479, Note_on_c, 0, 75, 0
1, 21480, Note_on_c, 0, 75, 96
1, 21539, Note_on_c, 0, 75, 0
1, 21540, Note_on_c, 0, 72, 96
1, 21599, Note_on_c, 0, 72, 0
1, 21600, Note_on_c, 0, 72, 96
1, 21659, Note_on_c, 0, 72, 0
1, 21660, Note_on_c, 0, 84, 96
1, 21719, Note_on_c, 0, 84, 0
1, 21720, Note_on_c, 0, 84, 96
1, 21779, Note_on_c, 0, 84, 0
1, 21780, Note_on_c, 0, 79, 96
1, 21839, Note_on_c, 0, 79, 0
1, 21840, Note_on_c, 0, 79, 96
1, 21899, Note_on_c, 0, 79, 0
1, 21900, Note_on_c, 0, 75, 96
1, 21959, Note_on_c, 0, 75, 0
1, 21960, Note_on_c, 0, 75, 96
1, 22019, Note_on_c, 0, 75, 0
1, 22020, Note_on_c, 0, 72, 96
1, 22079, Note_on_c, 0, 72, 0
1, 22080, Note_on_c, 0, 72, 96
1, 22139, Note_on_c, 0, 72, 0
1, 22140, Note_on_c, 0, 84, 96
1, 22199, Note_on_c, 0, 84, 0
1, 22200, Note_on_c, 0, 82, 96
1, 22259, Note_on_c, 0, 82, 0
1, 22260, Note_on_c, 0, 80, 96
1, 22319, Note_on_c, 0, 80, 0
1, 22320, Note_on_c, 0, 79, 96
1, 22379, Note_on_c, 0, 79, 0
1, 22380, Note_on_c, 0, 77, 96
1, 22439, Note_on_c, 0, 77, 0
1, 22440, Note_on_c, 0, 75, 96
1, 22499, Note_on_c, 0, 75, 0
1, 22500, Note_on_c, 0, 74, 96
1, 22559, Note_on_c, 0, 74, 0
1, 22560, Note_on_c, 0, 72, 96
1, 22619, Note_on_c, 0, 72, 0
1, 22620, Note_on_c, 0, 84, 96
1, 22679, Note_on_c, 0, 84, 0
1, 22680, Note_on_c, 0, 82, 96
1, 22739, Note_on_c, 0, 82, 0
1, 22740, Note_on_c, 0, 80, 96
1, 22799, Note_on_c, 0, 80, 0
1, 22800, Note_on_c, 0, 79, 96
1, 22859, Note_on_c, 0, 79, 0
1, 22860, Note_on_c, 0, 77, 96
1, 22919, Note_on_c, 0, 77, 0
1, 22920, Note_on_c, 0, 75, 96
1, 22979, Note_on_c, 0, 75, 0
1, 22980, Note_on_c, 0, 74, 96
1, 23039, Note_on_c, 0, 74, 0
1, 23040, Note_on_c, 0, 72, 96
1, 23099, Note_on_c, 0, 72, 0
1, 23100, Note_on_c, 0, 67, 96
1, 23159, Note_on_c, 0, 67, 0
1, 23160, Note_on_c, 0, 72, 96
1, 23219, Note_on_c, 0, 72, 0
1, 23220, Note_on_c, 0, 75, 96
1, 23279, Note_on_c, 0, 75, 0
1, 23280, Note_on_c, 0, 72, 96
1, 23339, Note_on_c, 0, 72, 0
1, 23340, Note_on_c, 0, 67, 96
1, 23399, Note_on_c, 0, 67, 0
1, 23400, Note_on_c, 0, 72, 96
1, 23459, Note_on_c, 0, 72, 0
1, 23460, Note_on_c, 0, 75, 96
1, 23519, Note_on_c, 0, 75, 0
1, 23520, Note_on_c, 0, 72, 96
1, 23579, Note_on_c, 0, 72, 0
1, 23580, Note_on_c, 0, 67, 96
1, 23639, Note_on_c, 0, 67, 0
1, 23640, Note_on_c, 0, 72, 96
1, 23699, Note_on_c, 0, 72, 0
1, 23700, Note_on_c, 0, 75, 96
1, 23759, Note_on_c, 0, 75, 0
1, 23760, Note_on_c, 0, 72, 96
1, 23819, Note_on_c, 0, 72, 0
1, 23820, Note_on_c, 0, 67, 96
1, 23879, Note_on_c, 0, 67, 0
1, 23880, Note_on_c, 0, 72, 96
1, 23939, Note_on_c, 0, 72, 0
1, 23940, Note_on_c, 0, 75, 96
1, 23999, Note_on_c, 0, 75, 0
1, 24000, Note_on_c, 0, 60, 96
1, 24959, Note_on_c, 0, 60, 0
1, 25920, Note_on_c, 0, 75, 96
1, 25979, Note_on_c, 0, 75, 0
1, 25980, Note_on_c, 0, 87, 96
1, 26039, Note_on_c, 0, 87, 0
1, 26040, Note_on_c, 0, 87, 96
1, 26099, Note_on_c, 0, 87, 0
1, 26100, Note_on_c, 0, 84, 96
1, 26159, Note_on_c, 0, 84, 0
1, 26160, Note_on_c, 0, 84, 96
1, 26219, Note_on_c, 0, 84, 0
1, 26220, Note_on_c, 0, 79, 96
1, 26279, Note_on_c, 0, 79, 0
1, 26280, Note_on_c, 0, 79, 96
1, 26339, Note_on_c, 0, 79, 0
1, 26340, Note_on_c, 0, 75, 96
1, 26399, Note_on_c, 0, 75, 0
1, 26400, Note_on_c, 0, 75, 96
1, 26459, Note_on_c, 0, 75, 0
1, 26460, Note_on_c, 0, 87, 96
1, 26519, Note_on_c, 0, 87, 0
1, 26520, Note_on_c, 0, 87, 96
1, 26579, Note_on_c, 0, 87, 0
1, 26580, Note_on_c, 0, 84, 96
1, 26639, Note_on_c, 0, 84, 0
1, 26640, Note_on_c, 0, 84, 96
1, 26699, Note_on_c, 0, 84, 0
1, 26700, Note_on_c, 0, 79, 96
1, 26759, Note_on_c, 0, 79, 0
1, 26760, Note_on_c, 0, 79, 96
1, 26819, Note_on_c, 0, 79, 0
1, 26820, Note_on_c, 0, 75, 96
1, 26879, Note_on_c, 0, 75, 0
1, 26880, Note_on_c, 0, 75, 96
1, 26939, Note_on_c, 0, 75, 0
1, 26940, Note_on_c, 0, 87, 96
1, 26999, Note_on_c, 0, 87, 0
1, 27000, Note_on_c, 0, 86, 96
1, 27059, Note_on_c, 0, 86, 0
1, 27060, Note_on_c, 0, 84, 96
1, 27119, Note_on_c, 0, 84, 0
1, 27120, Note_on_c, 0, 83, 96
1, 27179, Note_on_c, 0, 83, 0
1, 27180, Note_on_c, 0, 81, 96
1, 27239, Note_on_c, 0, 81, 0
1, 27240, Note_on_c, 0, 79, 96
1, 27299, Note_on_c, 0, 79, 0
1, 27300, Note_on_c, 0, 77, 96
1, 27359, Note_on_c, 0, 77, 0
1, 27360, Note_on_c, 0, 75, 96
1, 27419, Note_on_c, 0, 75, 0
1, 27420, Note_on_c, 0, 87, 96
1, 27479, Note_on_c, 0, 87, 0
1, 27480, Note_on_c, 0, 86, 96
1, 27539, Note_on_c, 0, 86, 0
1, 27540, Note_on_c, 0, 84, 96
1, 27599, Note_on_c, 0, 84, 0
1, 27600, Note_on_c, 0, 83, 96
1, 27659, Note_on_c, 0, 83, 0
1, 27660, Note_on_c, 0, 81, 96
1, 27719, Note_on_c, 0, 81, 0
1, 27720, Note_on_c, 0, 79, 96
1, 27779, Note_on_c, 0, 79, 0
1, 27780, Note_on_c, 0, 77, 96
1, 27839, Note_on_c, 0, 77, 0
1, 27840, Note_on_c, 0, 75, 96
1, 27899, Note_on_c, 0, 75, 0
1, 27900, Note_on_c, 0, 72, 96
1, 27959, Note_on_c, 0, 72, 0
1, 27960, Note_on_c, 0, 75, 96
1, 28019, Note_on_c, 0, 75, 0
1, 28020, Note_on_c, 0, 79, 96
1, 28079, Note_on_c, 0, 79, 0
1, 28080, Note_on_c, 0, 75, 96
1, 28139, Note_on_c, 0, 75, 0
1, 28140, Note_on_c, 0, 72, 96
1, 28199, Note_on_c, 0, 72, 0
1, 28200, Note_on_c, 0, 75, 96
1, 28259, Note_on_c, 0, 75, 0
1, 28260, Note_on_c, 0, 79, 96
1, 28319, Note_on_c, 0, 79, 0
1, 28320, Note_on_c, 0, 75, 96
1, 28379, Note_on_c, 0, 75, 0
1, 28380, Note_on_c, 0, 72, 96
1, 28439, Note_on_c, 0, 72, 0
1, 28440, Note_on_c, 0, 75, 96
1, 28499, Note_on_c, 0, 75, 0
1, 28500, Note_on_c, 0, 79, 96
1, 28559, Note_on_c, 0, 79, 0
1, 28560, Note_on_c, 0, 75, 96
1, 28619, Note_on_c, 0, 75, 0
1, 28620, Note_on_c, 0, 72, 96
1, 28679, Note_on_c, 0, 72, 0
1, 28680, Note_on_c, 0, 75, 96
1, 28739, Note_on_c, 0, 75, 0
1, 28740, Note_on_c, 0, 79, 96
1, 28799, Note_on_c, 0, 79, 0
1, 28800, Note_on_c, 0, 63, 96
1, 29759, Note_on_c, 0, 63, 0
1, 30720, Note_on_c, 0, 79, 96
1, 30779, Note_on_c, 0, 79, 0
1, 30780, Note_on_c, 0, 91, 96
1, 30839, Note_on_c, 0, 91, 0
1, 30840, Note_on_c, 0, 91, 96
1, 30899, Note_on_c, 0, 91, 0
1, 30900, Note_on_c, 0, 87, 96
1, 30959, Note_on_c, 0, 87, 0
1, 30960, Note_on_c, 0, 87, 96
1, 31019, Note_on_c, 0, 87, 0
1, 31020, Note_on_c, 0, 84, 96
1, 31079, Note_on_c, 0, 84, 0
1, 31080, Note_on_c, 0, 84, 96
1, 31139, Note_on_c, 0, 84, 0
1, 31140, Note_on_c, 0, 79, 96
1, 31199, Note_on_c, 0, 79, 0
1, 31200, Note_on_c, 0, 79, 96
1, 31259, Note_on_c, 0, 79, 0
1, 31260, Note_on_c, 0, 91, 96
1, 31319, Note_on_c, 0, 91, 0
1, 31320, Note_on_c, 0, 91, 96
1, 31379, Note_on_c, 0, 91, 0
1, 31380, Note_on_c, 0, 87, 96
1, 31439, Note_on_c, 0, 87, 0
1, 31440, Note_on_c, 0, 87, 96
1, 31499, Note_on_c, 0, 87, 0
1, 31500, Note_on_c, 0, 84, 96
1, 31559, Note_on_c, 0, 84, 0
1, 31560, Note_on_c, 0, 84, 96
1, 31619, Note_on_c, 0, 84, 0
1, 31620, Note_on_c, 0, 79, 96
1, 31679, Note_on_c, 0, 79, 0
1, 31680, Note_on_c, 0, 79, 96
1, 31739, Note_on_c, 0, 79, 0
1, 31740, Note_on_c, 0, 91, 96
1, 31799, Note_on_c, 0, 91, 0
1, 31800, Note_on_c, 0, 89, 96
1, 31859, Note_on_c, 0, 89, 0
1, 31860, Note_on_c, 0, 87, 96
1, 31919, Note_on_c, 0, 87, 0
1, 31920, Note_on_c, 0, 86, 96
1, 31979, Note_on_c, 0, 86, 0
1, 31980, Note_on_c, 0, 84, 96
1, 32039, Note_on_c, 0, 84, 0
1, 32040, Note_on_c, 0, 83, 96
1, 32099, Note_on_c, 0, 83, 0
1, 32100, Note_on_c, 0, 81, 96
1, 32159, Note_on_c, 0, 81, 0
1, 32160, Note_on_c, 0, 79, 96
1, 32219, Note_on_c, 0, 79, 0
1, 32220, Note_on_c, 0, 91, 96
1, 32279, Note_on_c, 0, 91, 0
1, 32280, Note_on_c, 0, 89, 96
1, 32339, Note_on_c, 0, 89, 0
1, 32340, Note_on_c, 0, 87, 96
1, 32399, Note_on_c, 0, 87, 0
1, 32400, Note_on_c, 0, 86, 96
1, 32459, Note_on_c, 0, 86, 0
1, 32460, Note_on_c, 0, 84, 96
1, 32519, Note_on_c, 0, 84, 0
1, 32520, Note_on_c, 0, 83, 96
1, 32579, Note_on_c, 0, 83, 0
1, 32580, Note_on_c, 0, 81, 96
1, 32639, Note_on_c, 0, 81, 0
1, 32640, Note_on_c, 0, 79, 96
1, 32699, Note_on_c, 0, 79, 0
1, 32700, Note_on_c, 0, 75, 96
1, 32759, Note_on_c, 0, 75, 0
1, 32760, Note_on_c, 0, 79, 96
1, 32819, Note_on_c, 0, 79, 0
1, 32820, Note_on_c, 0, 84, 96
1, 32879, Note_on_c, 0, 84, 0
1, 32880, Note_on_c, 0, 79, 96
1, 32939, Note_on_c, 0, 79, 0
1, 32940, Note_on_c, 0, 75, 96
1, 32999, Note_on_c, 0, 75, 0
1, 33000, Note_on_c, 0, 79, 96
1, 33059, Note_on_c, 0, 79, 0
1, 33060, Note_on_c, 0, 84, 96
1, 33119, Note_on_c, 0, 84, 0
1, 33120, Note_on_c, 0, 79, 96
1, 33179, Note_on_c, 0, 79, 0
1, 33180, Note_on_c, 0, 75, 96
1, 33239, Note_on_c, 0, 75, 0
1, 33240, Note_on_c, 0, 79, 96
1, 33299, Note_on_c, 0, 79, 0
1, 33300, Note_on_c, 0, 84, 96
1, 33359, Note_on_c, 0, 84, 0
1, 33360, Note_on_c, 0, 79, 96
1, 33419, Note_on_c, 0, 79, 0
1, 33420, Note_on_c, 0, 75, 96
1, 33479, Note_on_c, 0, 75, 0
1, 33480, Note_on_c, 0, 79, 96
1, 33539, Note_on_c, 0, 79, 0
1, 33540, Note_on_c, 0, 84, 96
1, 33599, Note_on_c, 0, 84, 0
1, 33600, Note_on_c, 0, 72, 96
1, 34079, Note_on_c, 0, 72, 0
1, 34560, Note_on_c, 0, 73, 64
1, 34679, Note_on_c, 0, 73, 0
1, 34800, Note_on_c, 0, 73, 64
1, 34919, Note_on_c, 0, 73, 0
1, 35040, Note_on_c, 0, 73, 64
1, 35159, Note_on_c, 0, 73, 0
1, 35280, Note_on_c, 0, 73, 64
1, 35399, Note_on_c, 0, 73, 0
1, 35520, Note_on_c, 0, 76, 64
1, 35639, Note_on_c, 0, 76, 0
1, 35760, Note_on_c, 0, 76, 64
1, 35879, Note_on_c, 0, 76, 0
1, 36000, Note_on_c, 0, 76, 64
1, 36119, Note_on_c, 0, 76, 0
1, 36240, Note_on_c, 0, 76, 64
1, 36359, Note_on_c, 0, 76, 0
1, 36480, Note_on_c, 0, 77, 64
1, 36539, Note_on_c, 0, 77, 0
1, 36600, Note_on_c, 0, 65, 64
1, 36659, Note_on_c, 0, 65, 0
1, 36720, Note_on_c, 0, 65, 64
1, 36779, Note_on_c, 0, 65, 0
1, 36840, Note_on_c, 0, 65, 64
1, 36899, Note_on_c, 0, 65, 0
1, 36960, Note_on_c, 0, 65, 64
1, 37019, Note_on_c, 0, 65, 0
1, 37080, Note_on_c, 0, 65, 64
1, 37139, Note_on_c, 0, 65, 0
1, 37200, Note_on_c, 0, 65, 64
1, 37259, Note_on_c, 0, 65, 0
1, 37320, Note_on_c, 0, 65, 64
1, 37379, Note_on_c, 0, 65, 0
1, 37440, Note_on_c, 0, 65, 64
1, 37499, Note_on_c, 0, 65, 0
1, 37560, Note_on_c, 0, 65, 64
1, 37619, Note_on_c, 0, 65, 0
1, 37680, Note_on_c, 0, 65, 64
1, 37739, Note_on_c, 0, 65, 0
1, 37800, Note_on_c, 0, 65, 64
1, 37859, Note_on_c, 0, 65, 0
1, 37920, Note_on_c, 0, 65, 64
1, 37979, Note_on_c, 0, 65, 0
1, 38040, Note_on_c, 0, 65, 64
1, 38099, Note_on_c, 0, 65, 0
1, 38160, Note_on_c, 0, 65, 64
1, 38219, Note_on_c, 0, 65, 0
1, 38280, Note_on_c, 0, 65, 64
1, 38339, Note_on_c, 0, 65, 0
1, 38400, Note_on_c, 0, 65, 64
1, 38459, Note_on_c, 0, 65, 0
1, 38520, Note_on_c, 0, 65, 64
1, 38579, Note_on_c, 0, 65, 0
1, 38640, Note_on_c, 0, 65, 64
1, 38699, Note_on_c, 0, 65, 0
1, 38760, Note_on_c, 0, 65, 64
1, 38819, Note_on_c, 0, 65, 0
1, 38880, Note_on_c, 0, 65, 64
1, 38939, Note_on_c, 0, 65, 0
1, 39000, Note_on_c, 0, 65, 64
1, 39059, Note_on_c, 0, 65, 0
1, 39120, Note_on_c, 0, 65, 64
1, 39179, Note_on_c, 0, 65, 0
1, 39240, Note_on_c, 0, 65, 64
1, 39299, Note_on_c, 0, 65, 0
1, 39360, Note_on_c, 0, 65, 64
1, 39419, Note_on_c, 0, 65, 0
1, 39480, Note_on_c, 0, 65, 64
1, 39539, Note_on_c, 0, 65, 0
1, 39600, Note_on_c, 0, 65, 64
1, 39659, Note_on_c, 0, 65, 0
1, 39720, Note_on_c, 0, 65, 64
1, 39779, Note_on_c, 0, 65, 0
1, 39840, Note_on_c, 0, 65, 64
1, 39899, Note_on_c, 0, 65, 0
1, 39960, Note_on_c, 0, 65, 64
1, 40019, Note_on_c, 0, 65, 0
1, 40080, Note_on_c, 0, 65, 64
1, 40139, Note_on_c, 0, 65, 0
1, 40200, Note_on_c, 0, 65, 64
1, 40259, Note_on_c, 0, 65, 0
1, 40320, Note_on_c, 0, 65, 64
1, 40379, Note_on_c, 0, 65, 0
1, 40440, Note_on_c, 0, 65, 64
1, 40499, Note_on_c, 0, 65, 0
1, 40560, Note_on_c, 0, 65, 64
1, 40619, Note_on_c, 0, 65, 0
1, 40680, Note_on_c, 0, 65, 64
1, 40739, Note_on_c, 0, 65, 0
1, 40800, Note_on_c, 0, 65, 64
1, 40859, Note_on_c, 0, 65, 0
1, 40920, Note_on_c, 0, 65, 64
1, 40979, Note_on_c, 0, 65, 0
1, 41040, Note_on_c, 0, 65, 64
1, 41099, Note_on_c, 0, 65, 0
1, 41160, Note_on_c, 0, 65, 64
1, 41219, Note_on_c, 0, 65, 0
1, 41280, Note_on_c, 0, 64, 64
1, 41399, Note_on_c, 0, 64, 0
1, 41400, Note_on_c, 0, 79, 64
1, 41459, Note_on_c, 0, 79, 0
1, 41460, Note_on_c, 0, 79, 64
1, 41519, Note_on_c, 0, 79, 0
1, 41520, Note_on_c, 0, 79, 64
1, 41579, Note_on_c, 0, 79, 0
1, 41580, Note_on_c, 0, 79, 64
1, 41639, Note_on_c, 0, 79, 0
1, 41640, Note_on_c, 0, 79, 64
1, 41699, Note_on_c, 0, 79, 0
1, 41700, Note_on_c, 0, 79, 64
1, 41759, Note_on_c, 0, 79, 0
1, 41760, Note_on_c, 0, 79, 64
1, 41879, Note_on_c, 0, 79, 0
1, 41880, Note_on_c, 0, 79, 64
1, 41999, Note_on_c, 0, 79, 0
1, 42000, Note_on_c, 0, 79, 64
1, 42119, Note_on_c, 0, 79, 0
1, 42120, Note_on_c, 0, 79, 64
1, 42239, Note_on_c, 0, 79, 0
1, 42240, Note_on_c, 0, 80, 112
1, 42359, Note_on_c, 0, 80, 0
1, 42360, Note_on_c, 0, 72, 112
1, 42479, Note_on_c, 0, 72, 0
1, 42480, Note_on_c, 0, 80, 112
1, 42599, Note_on_c, 0, 80, 0
1, 42600, Note_on_c, 0, 72, 112
1, 42719, Note_on_c, 0, 72, 0
1, 42720, Note_on_c, 0, 80, 112
1, 42839, Note_on_c, 0, 80, 0
1, 42840, Note_on_c, 0, 72, 112
1, 42959, Note_on_c, 0, 72, 0
1, 42960, Note_on_c, 0, 80, 112
1, 43079, Note_on_c, 0, 80, 0
1, 43080, Note_on_c, 0, 72, 112
1, 43199, Note_on_c, 0, 72, 0
1, 43200, Note_on_c, 0, 73, 112
1, 43319, Note_on_c, 0, 73, 0
1, 43320, Note_on_c, 0, 73, 112
1, 43379, Note_on_c, 0, 73, 0
1, 43380, Note_on_c, 0, 73, 112
1, 43439, Note_on_c, 0, 73, 0
1, 43440, Note_on_c, 0, 73, 112
1, 43499, Note_on_c, 0, 73, 0
1, 43500, Note_on_c, 0, 73, 112
1, 43559, Note_on_c, 0, 73, 0
1, 43560, Note_on_c, 0, 73, 112
1, 43619, Note_on_c, 0, 73, 0
1, 43620, Note_on_c, 0, 73, 112
1, 43679, Note_on_c, 0, 73, 0
1, 43680, Note_on_c, 0, 73, 112
1, 43799, Note_on_c, 0, 73, 0
1, 43800, Note_on_c, 0, 73, 112
1, 43919, Note_on_c, 0, 73, 0
1, 43920, Note_on_c, 0, 73, 112
1, 44039, Note_on_c, 0, 73, 0
1, 44040, Note_on_c, 0, 73, 112
1, 44159, Note_on_c, 0, 73, 0
1, 44160, Note_on_c, 0, 79, 112
1, 44279, Note_on_c, 0, 79, 0
1, 44280, Note_on_c, 0, 73, 112
1, 44399, Note_on_c, 0, 73, 0
1, 44400, Note_on_c, 0, 79, 112
1, 44519, Note_on_c, 0, 79, 0
1, 44520, Note_on_c, 0, 73, 112
1, 44639, Note_on_c, 0, 73, 0
1, 44640, Note_on_c, 0, 79, 112
1, 44759, Note_on_c, 0, 79, 0
1, 44760, Note_on_c, 0, 73, 112
1, 44879, Note_on_c, 0, 73, 0
1, 44880, Note_on_c, 0, 79, 112
1, 44999, Note_on_c, 0, 79, 0
1, 45000, Note_on_c, 0, 73, 112
1, 45119, Note_on_c, 0, 73, 0
1, 45120, Note_on_c, 0, 72, 112
1, 45239, Note_on_c, 0, 72, 0
1, 45240, Note_on_c, 0, 72, 112
1, 45299, Note_on_c, 0, 72, 0
1, 45300, Note_on_c, 0, 72, 112
1, 45359, Note_on_c, 0, 72, 0
1, 45360, Note_on_c, 0, 72, 112
1, 45419, Note_on_c, 0, 72, 0
1, 45420, Note_on_c, 0, 72, 112
1, 45479, Note_on_c, 0, 72, 0
1, 45480, Note_on_c, 0, 72, 112
1, 45539, Note_on_c, 0, 72, 0
1, 45540, Note_on_c, 0, 72, 112
1, 45599, Note_on_c, 0, 72, 0
1, 45600, Note_on_c, 0, 72, 112
1, 45719, Note_on_c, 0, 72, 0
1, 45720, Note_on_c, 0, 72, 112
1, 45839, Note_on_c, 0, 72, 0
1, 45840, Note_on_c, 0, 72, 112
1, 45959, Note_on_c, 0, 72, 0
1, 45960, Note_on_c, 0, 72, 112
1, 46079, Note_on_c, 0, 72, 0
1, 46080, Note_on_c, 0, 77, 112
1, 46199, Note_on_c, 0, 77, 0
1, 46200, Note_on_c, 0, 72, 112
1, 46319, Note_on_c, 0, 72, 0
1, 46320, Note_on_c, 0, 77, 112
1, 46439, Note_on_c, 0, 77, 0
1, 46440, Note_on_c, 0, 72, 112
1, 46559, Note_on_c, 0, 72, 0
1, 46560, Note_on_c, 0, 77, 112
1, 46679, Note_on_c, 0, 77, 0
1, 46680, Note_on_c, 0, 72, 112
1, 46799, Note_on_c, 0, 72, 0
1, 46800, Note_on_c, 0, 77, 112
1, 46919, Note_on_c, 0, 77, 0
1, 46920, Note_on_c, 0, 72, 112
1, 47039, Note_on_c, 0, 72, 0
1, 47040, Note_on_c, 0, 70, 112
1, 47159, Note_on_c, 0, 70, 0
1, 47160, Note_on_c, 0, 70, 112
1, 47219, Note_on_c, 0, 70, 0
1, 47220, Note_on_c, 0, 70, 112
1, 47279, Note_on_c, 0, 70, 0
1, 47280, Note_on_c, 0, 70, 112
1, 47339, Note_on_c, 0, 70, 0
1, 47340, Note_on_c, 0, 70, 112
1, 47399, Note_on_c, 0, 70, 0
1, 47400, Note_on_c, 0, 70, 112
1, 47459, Note_on_c, 0, 70, 0
1, 47460, Note_on_c, 0, 70, 112
1, 47519, Note_on_c, 0, 70, 0
1, 47520, Note_on_c, 0, 70, 112
1, 47639, Note_on_c, 0, 70, 0
1, 47640, Note_on_c, 0, 70, 112
1, 47759, Note_on_c, 0, 70, 0
1, 47760, Note_on_c, 0, 70, 112
1, 47879, Note_on_c, 0, 70, 0
1, 47880, Note_on_c, 0, 70, 112
1, 47999, Note_on_c, 0, 70, 0
1, 48000, Note_on_c, 0, 76, 112
1, 48119, Note_on_c, 0, 76, 0
1, 48120, Note_on_c, 0, 70, 112
1, 48239, Note_on_c, 0, 70, 0
1, 48240, Note_on_c, 0, 76, 112
1, 48359, Note_on_c, 0, 76, 0
1, 48360, Note_on_c, 0, 70, 112
1, 48479, Note_on_c, 0, 70, 0
1, 48480, Note_on_c, 0, 76, 112
1, 48599, Note_on_c, 0, 76, 0
1, 48600, Note_on_c, 0, 70, 112
1, 48719, Note_on_c, 0, 70, 0
1, 48720, Note_on_c, 0, 76, 112
1, 48839, Note_on_c, 0, 76, 0
1, 48840, Note_on_c, 0, 70, 112
1, 48959, Note_on_c, 0, 70, 0
1, 48960, Note_on_c, 0, 77, 112
1, 49019, Note_on_c, 0, 77, 0
1, 49020, Note_on_c, 0, 76, 112
1, 49079, Note_on_c, 0, 76, 0
1, 49080, Note_on_c, 0, 77, 112
1, 49139, Note_on_c, 0, 77, 0
1, 49140, Note_on_c, 0, 79, 112
1, 49199, Note_on_c, 0, 79, 0
1, 49200, Note_on_c, 0, 77, 112
1, 49259, Note_on_c, 0, 77, 0
1, 49260, Note_on_c, 0, 79, 112
1, 49319, Note_on_c, 0, 79, 0
1, 49320, Note_on_c, 0, 76, 112
1, 49379, Note_on_c, 0, 76, 0
1, 49380, Note_on_c, 0, 77, 112
1, 49439, Note_on_c, 0, 77, 0
1, 49440, Note_on_c, 0, 79, 112
1, 49499, Note_on_c, 0, 79, 0
1, 49500, Note_on_c, 0, 77, 112
1, 49559, Note_on_c, 0, 77, 0
1, 49560, Note_on_c, 0, 79, 112
1, 49619, Note_on_c, 0, 79, 0
1, 49620, Note_on_c, 0, 80, 112
1, 49679, Note_on_c, 0, 80, 0
1, 49680, Note_on_c, 0, 79, 112
1, 49739, Note_on_c, 0, 79, 0
1, 49740, Note_on_c, 0, 80, 112
1, 49799, Note_on_c, 0, 80, 0
1, 49800, Note_on_c, 0, 77, 112
1, 49859, Note_on_c, 0, 77, 0
1, 49860, Note_on_c, 0, 79, 112
1, 49919, Note_on_c, 0, 79, 0
1, 49920, Note_on_c, 0, 80, 112
1, 49979, Note_on_c, 0, 80, 0
1, 49980, Note_on_c, 0, 79, 112
1, 50039, Note_on_c, 0, 79, 0
1, 50040, Note_on_c, 0, 80, 112
1, 50099, Note_on_c, 0, 80, 0
1, 50100, Note_on_c, 0, 82, 112
1, 50159, Note_on_c, 0, 82, 0
1, 50160, Note_on_c, 0, 80, 112
1, 50219, Note_on_c, 0, 80, 0
1, 50220, Note_on_c, 0, 82, 112
1, 50279, Note_on_c, 0, 82, 0
1, 50280, Note_on_c, 0, 79, 112
1, 50339, Note_on_c, 0, 79, 0
1, 50340, Note_on_c, 0, 80, 112
1, 50399, Note_on_c, 0, 80, 0
1, 50400, Note_on_c, 0, 82, 112
1, 50459, Note_on_c, 0, 82, 0
1, 50460, Note_on_c, 0, 80, 112
1, 50519, Note_on_c, 0, 80, 0
1, 50520, Note_on_c, 0, 82, 112
1, 50579, Note_on_c, 0, 82, 0
1, 50580, Note_on_c, 0, 84, 112
1, 50639, Note_on_c, 0, 84, 0
1, 50640, Note_on_c, 0, 82, 112
1, 50699, Note_on_c, 0, 82, 0
1, 50700, Note_on_c, 0, 84, 112
1, 50759, Note_on_c, 0, 84, 0
1, 50760, Note_on_c, 0, 80, 112
1, 50819, Note_on_c, 0, 80, 0
1, 50820, Note_on_c, 0, 82, 112
1, 50879, Note_on_c, 0, 82, 0
1, 50880, Note_on_c, 0, 84, 112
1, 51119, Note_on_c, 0, 84, 0
1, 51180, Note_on_c, 0, 84, 112
1, 51239, Note_on_c, 0, 84, 0
1, 51240, Note_on_c, 0, 85, 112
1, 51299, Note_on_c, 0, 85, 0
1, 51300, Note_on_c, 0, 87, 112
1, 51359, Note_on_c, 0, 87, 0
1, 51360, Note_on_c, 0, 89, 112
1, 51419, Note_on_c, 0, 89, 0
1, 51420, Note_on_c, 0, 84, 112
1, 51479, Note_on_c, 0, 84, 0
1, 51480, Note_on_c, 0, 85, 112
1, 51539, Note_on_c, 0, 85, 0
1, 51540, Note_on_c, 0, 87, 112
1, 51599, Note_on_c, 0, 87, 0
1, 51600, Note_on_c, 0, 89, 112
1, 51659, Note_on_c, 0, 89, 0
1, 51660, Note_on_c, 0, 84, 112
1, 51719, Note_on_c, 0, 84, 0
1, 51720, Note_on_c, 0, 85, 112
1, 51779, Note_on_c, 0, 85, 0
1, 51780, Note_on_c, 0, 87, 112
1, 51839, Note_on_c, 0, 87, 0
1, 51840, Note_on_c, 0, 89, 112
1, 51899, Note_on_c, 0, 89, 0
1, 51900, Note_on_c, 0, 87, 112
1, 51959, Note_on_c, 0, 87, 0
1, 51960, Note_on_c, 0, 85, 112
1, 52019, Note_on_c, 0, 85, 0
1, 52020, Note_on_c, 0, 84, 112
1, 52079, Note_on_c, 0, 84, 0
1, 52080, Note_on_c, 0, 89, 112
1, 52139, Note_on_c, 0, 89, 0
1, 52140, Note_on_c, 0, 87, 112
1, 52199, Note_on_c, 0, 87, 0
1, 52200, Note_on_c, 0, 85, 112
1, 52259, Note_on_c, 0, 85, 0
1, 52260, Note_on_c, 0, 84, 112
1, 52319, Note_on_c, 0, 84, 0
1, 52320, Note_on_c, 0, 89, 112
1, 52379, Note_on_c, 0, 89, 0
1, 52380, Note_on_c, 0, 87, 112
1, 52439, Note_on_c, 0, 87, 0
1, 52440, Note_on_c, 0, 85, 112
1, 52499, Note_on_c, 0, 85, 0
1, 52500, Note_on_c, 0, 84, 112
1, 52559, Note_on_c, 0, 84, 0
1, 52560, Note_on_c, 0, 89, 112
1, 52619, Note_on_c, 0, 89, 0
1, 52620, Note_on_c, 0, 87, 112
1, 52679, Note_on_c, 0, 87, 0
1, 52680, Note_on_c, 0, 85, 112
1, 52739, Note_on_c, 0, 85, 0
1, 52740, Note_on_c, 0, 84, 112
1, 52799, Note_on_c, 0, 84, 0
1, 52800, Note_on_c, 0, 77, 112
1, 52859, Note_on_c, 0, 77, 0
1, 52860, Note_on_c, 0, 79, 112
1, 52919, Note_on_c, 0, 79, 0
1, 52920, Note_on_c, 0, 80, 112
1, 52979, Note_on_c, 0, 80, 0
1, 52980, Note_on_c, 0, 82, 112
1, 53039, Note_on_c, 0, 82, 0
1, 53040, Note_on_c, 0, 84, 112
1, 53099, Note_on_c, 0, 84, 0
1, 53100, Note_on_c, 0, 85, 112
1, 53159, Note_on_c, 0, 85, 0
1, 53160, Note_on_c, 0, 87, 112
1, 53219, Note_on_c, 0, 87, 0
1, 53220, Note_on_c, 0, 89, 112
1, 53279, Note_on_c, 0, 89, 0
1, 53280, Note_on_c, 0, 77, 112
1, 53339, Note_on_c, 0, 77, 0
1, 53340, Note_on_c, 0, 79, 112
1, 53399, Note_on_c, 0, 79, 0
1, 53400, Note_on_c, 0, 80, 112
1, 53459, Note_on_c, 0, 80, 0
1, 53460, Note_on_c, 0, 82, 112
1, 53519, Note_on_c, 0, 82, 0
1, 53520, Note_on_c, 0, 84, 112
1, 53579, Note_on_c, 0, 84, 0
1, 53580, Note_on_c, 0, 85, 112
1, 53639, Note_on_c, 0, 85, 0
1, 53640, Note_on_c, 0, 87, 112
1, 53699, Note_on_c, 0, 87, 0
1, 53700, Note_on_c, 0, 89, 112
1, 53759, Note_on_c, 0, 89, 0
1, 53760, Note_on_c, 0, 85, 112
1, 53999, Note_on_c, 0, 85, 0
1, 54060, Note_on_c, 0, 82, 112
1, 54119, Note_on_c, 0, 82, 0
1, 54120, Note_on_c, 0, 84, 112
1, 54179, Note_on_c, 0, 84, 0
1, 54180, Note_on_c, 0, 85, 112
1, 54239, Note_on_c, 0, 85, 0
1, 54240, Note_on_c, 0, 87, 112
1, 54299, Note_on_c, 0, 87, 0
1, 54300, Note_on_c, 0, 82, 112
1, 54359, Note_on_c, 0, 82, 0
1, 54360, Note_on_c, 0, 84, 112
1, 54419, Note_on_c, 0, 84, 0
1, 54420, Note_on_c, 0, 85, 112
1, 54479, Note_on_c, 0, 85, 0
1, 54480, Note_on_c, 0, 87, 112
1, 54539, Note_on_c, 0, 87, 0
1, 54540, Note_on_c, 0, 82, 112
1, 54599, Note_on_c, 0, 82, 0
1, 54600, Note_on_c, 0, 84, 112
1, 54659, Note_on_c, 0, 84, 0
1, 54660, Note_on_c, 0, 85, 112
1, 54719, Note_on_c, 0, 85, 0
1, 54720, Note_on_c, 0, 87, 112
1, 54779, Note_on_c, 0, 87, 0
1, 54780, Note_on_c, 0, 85, 112
1, 54839, Note_on_c, 0, 85, 0
1, 54840, Note_on_c, 0, 84, 112
1, 54899, Note_on_c, 0, 84, 0
1, 54900, Note_on_c, 0, 82, 112
1, 54959, Note_on_c, 0, 82, 0
1, 54960, Note_on_c, 0, 87, 112
1, 55019, Note_on_c, 0, 87, 0
1, 55020, Note_on_c, 0, 85, 112
1, 55079, Note_on_c, 0, 85, 0
1, 55080, Note_on_c, 0, 84, 112
1, 55139, Note_on_c, 0, 84, 0
1, 55140, Note_on_c, 0, 82, 112
1, 55199, Note_on_c, 0, 82, 0
1, 55200, Note_on_c, 0, 87, 112
1, 55259, Note_on_c, 0, 87, 0
1, 55260, Note_on_c, 0, 85, 112
1, 55319, Note_on_c, 0, 85, 0
1, 55320, Note_on_c, 0, 84, 112
1, 55379, Note_on_c, 0, 84, 0
1, 55380, Note_on_c, 0, 82, 112
1, 55439, Note_on_c, 0, 82, 0
1, 55440, Note_on_c, 0, 87, 112
1, 55499, Note_on_c, 0, 87, 0
1, 55500, Note_on_c, 0, 85, 112
1, 55559, Note_on_c, 0, 85, 0
1, 55560, Note_on_c, 0, 84, 112
1, 55619, Note_on_c, 0, 84, 0
1, 55620, Note_on_c, 0, 82, 112
1, 55679, Note_on_c, 0, 82, 0
1, 55680, Note_on_c, 0, 75, 112
1, 55739, Note_on_c, 0, 75, 0
1, 55740, Note_on_c, 0, 77, 112
1, 55799, Note_on_c, 0, 77, 0
1, 55800, Note_on_c, 0, 79, 112
1, 55859, Note_on_c, 0, 79, 0
1, 55860, Note_on_c, 0, 80, 112
1, 55919, Note_on_c, 0, 80, 0
1, 55920, Note_on_c, 0, 82, 112
1, 55979, Note_on_c, 0, 82, 0
1, 55980, Note_on_c, 0, 84, 112
1, 56039, Note_on_c, 0, 84, 0
1, 56040, Note_on_c, 0, 85, 112
1, 56099, Note_on_c, 0, 85, 0
1, 56100, Note_on_c, 0, 87, 112
1, 56159, Note_on_c, 0, 87, 0
1, 56160, Note_on_c, 0, 75, 112
1, 56219, Note_on_c, 0, 75, 0
1, 56220, Note_on_c, 0, 77, 112
1, 56279, Note_on_c, 0, 77, 0
1, 56280, Note_on_c, 0, 79, 112
1, 56339, Note_on_c, 0, 79, 0
1, 56340, Note_on_c, 0, 80, 112
1, 56399, Note_on_c, 0, 80, 0
1, 56400, Note_on_c, 0, 82, 112
1, 56459, Note_on_c, 0, 82, 0
1, 56460, Note_on_c, 0, 84, 112
1, 56519, Note_on_c, 0, 84, 0
1, 56520, Note_on_c, 0, 85, 112
1, 56579, Note_on_c, 0, 85, 0
1, 56580, Note_on_c, 0, 87, 112
1, 56639, Note_on_c, 0, 87, 0
1, 56640, Note_on_c, 0, 84, 112
1, 56879, Note_on_c, 0, 84, 0
1, 56940, Note_on_c, 0, 80, 112
1, 56999, Note_on_c, 0, 80, 0
1, 57000, Note_on_c, 0, 82, 112
1, 57059, Note_on_c, 0, 82, 0
1, 57060, Note_on_c, 0, 84, 112
1, 57119, Note_on_c, 0, 84, 0
1, 57120, Note_on_c, 0, 85, 112
1, 57179, Note_on_c, 0, 85, 0
1, 57180, Note_on_c, 0, 80, 112
1, 57239, Note_on_c, 0, 80, 0
1, 57240, Note_on_c, 0, 82, 112
1, 57299, Note_on_c, 0, 82, 0
1, 57300, Note_on_c, 0, 84, 112
1, 57359, Note_on_c, 0, 84, 0
1, 57360, Note_on_c, 0, 85, 112
1, 57419, Note_on_c, 0, 85, 0
1, 57420, Note_on_c, 0, 80, 112
1, 57479, Note_on_c, 0, 80, 0
1, 57480, Note_on_c, 0, 82, 112
1, 57539, Note_on_c, 0, 82, 0
1, 57540, Note_on_c, 0, 84, 112
1, 57599, Note_on_c, 0, 84, 0
1, 57600, Note_on_c, 0, 85, 112
1, 57659, Note_on_c, 0, 85, 0
1, 57660, Note_on_c, 0, 84, 112
1, 57719, Note_on_c, 0, 84, 0
1, 57720, Note_on_c, 0, 82, 112
1, 57779, Note_on_c, 0, 82, 0
1, 57780, Note_on_c, 0, 80, 112
1, 57839, Note_on_c, 0, 80, 0
1, 57840, Note_on_c, 0, 85, 112
1, 57899, Note_on_c, 0, 85, 0
1, 57900, Note_on_c, 0, 84, 112
1, 57959, Note_on_c, 0, 84, 0
1, 57960, Note_on_c, 0, 82, 112
1, 58019, Note_on_c, 0, 82, 0
1, 58020, Note_on_c, 0, 80, 112
1, 58079, Note_on_c, 0, 80, 0
1, 58080, Note_on_c, 0, 85, 112
1, 58139, Note_on_c, 0, 85, 0
1, 58140, Note_on_c, 0, 84, 112
1, 58199, Note_on_c, 0, 84, 0
1, 58200, Note_on_c, 0, 82, 112
1, 58259, Note_on_c, 0, 82, 0
1, 58260, Note_on_c, 0, 80, 112
1, 58319, Note_on_c, 0, 80, 0
1, 58320, Note_on_c, 0, 85, 112
1, 58379, Note_on_c, 0, 85, 0
1, 58380, Note_on_c, 0, 84, 112
1, 58439, Note_on_c, 0, 84, 0
1, 58440, Note_on_c, 0, 82, 112
1, 58499, Note_on_c, 0, 82, 0
1, 58500, Note_on_c, 0, 80, 112
1, 58559, Note_on_c, 0, 80, 0
1, 58560, Note_on_c, 0, 79, 112
1, 58619, Note_on_c, 0, 79, 0
1, 58620, Note_on_c, 0, 82, 112
1, 58679, Note_on_c, 0, 82, 0
1, 58680, Note_on_c, 0, 80, 112
1, 58739, Note_on_c, 0, 80, 0
1, 58740, Note_on_c, 0, 79, 112
1, 58799, Note_on_c, 0, 79, 0
1, 58800, Note_on_c, 0, 84, 112
1, 58859, Note_on_c, 0, 84, 0
1, 58860, Note_on_c, 0, 82, 112
1, 58919, Note_on_c, 0, 82, 0
1, 58920, Note_on_c, 0, 80, 112
1, 58979, Note_on_c, 0, 80, 0
1, 58980, Note_on_c, 0, 79, 112
1, 59039, Note_on_c, 0, 79, 0
1, 59040, Note_on_c, 0, 77, 112
1, 59099, Note_on_c, 0, 77, 0
1, 59100, Note_on_c, 0, 80, 112
1, 59159, Note_on_c, 0, 80, 0
1, 59160, Note_on_c, 0, 79, 112
1, 59219, Note_on_c, 0, 79, 0
1, 59220, Note_on_c, 0, 77, 112
1, 59279, Note_on_c, 0, 77, 0
1, 59280, Note_on_c, 0, 82, 112
1, 59339, Note_on_c, 0, 82, 0
1, 59340, Note_on_c, 0, 80, 112
1, 59399, Note_on_c, 0, 80, 0
1, 59400, Note_on_c, 0, 79, 112
1, 59459, Note_on_c, 0, 79, 0
1, 59460, Note_on_c, 0, 77, 112
1, 59519, Note_on_c, 0, 77, 0
1, 59520, Note_on_c, 0, 76, 112
1, 59579, Note_on_c, 0, 76, 0
1, 59580, Note_on_c, 0, 72, 112
1, 59639, Note_on_c, 0, 72, 0
1, 59640, Note_on_c, 0, 70, 112
1, 59699, Note_on_c, 0, 70, 0
1, 59700, Note_on_c, 0, 72, 112
1, 59759, Note_on_c, 0, 72, 0
1, 59760, Note_on_c, 0, 67, 112
1, 59819, Note_on_c, 0, 67, 0
1, 59820, Note_on_c, 0, 72, 112
1, 59879, Note_on_c, 0, 72, 0
1, 59880, Note_on_c, 0, 70, 112
1, 59939, Note_on_c, 0, 70, 0
1, 59940, Note_on_c, 0, 72, 112
1, 59999, Note_on_c, 0, 72, 0
1, 60000, Note_on_c, 0, 76, 112
1, 60059, Note_on_c, 0, 76, 0
1, 60060, Note_on_c, 0, 79, 112
1, 60119, Note_on_c, 0, 79, 0
1, 60120, Note_on_c, 0, 77, 112
1, 60179, Note_on_c, 0, 77, 0
1, 60180, Note_on_c, 0, 79, 112
1, 60239, Note_on_c, 0, 79, 0
1, 60240, Note_on_c, 0, 82, 112
1, 60299, Note_on_c, 0, 82, 0
1, 60300, Note_on_c, 0, 79, 112
1, 60359, Note_on_c, 0, 79, 0
1, 60360, Note_on_c, 0, 77, 112
1, 60419, Note_on_c, 0, 77, 0
1, 60420, Note_on_c, 0, 79, 112
1, 60479, Note_on_c, 0, 79, 0
1, 60480, Note_on_c, 0, 76, 112
1, 60539, Note_on_c, 0, 76, 0
1, 60540, Note_on_c, 0, 72, 112
1, 60599, Note_on_c, 0, 72, 0
1, 60600, Note_on_c, 0, 70, 112
1, 60659, Note_on_c, 0, 70, 0
1, 60660, Note_on_c, 0, 72, 112
1, 60719, Note_on_c, 0, 72, 0
1, 60720, Note_on_c, 0, 67, 112
1, 60779, Note_on_c, 0, 67, 0
1, 60780, Note_on_c, 0, 72, 112
1, 60839, Note_on_c, 0, 72, 0
1, 60840, Note_on_c, 0, 70, 112
1, 60899, Note_on_c, 0, 70, 0
1, 60900, Note_on_c, 0, 72, 112
1, 60959, Note_on_c, 0, 72, 0
1, 60960, Note_on_c, 0, 76, 112
1, 61019, Note_on_c, 0, 76, 0
1, 61020, Note_on_c, 0, 79, 112
1, 61079, Note_on_c, 0, 79, 0
1, 61080, Note_on_c, 0, 77, 112
1, 61139, Note_on_c, 0, 77, 0
1, 61140, Note_on_c, 0, 79, 112
1, 61199, Note_on_c, 0, 79, 0
1, 61200, Note_on_c, 0, 82, 112
1, 61259, Note_on_c, 0, 82, 0
1, 61260, Note_on_c, 0, 79, 112
1, 61319, Note_on_c, 0, 79, 0
1, 61320, Note_on_c, 0, 77, 112
1, 61379, Note_on_c, 0, 77, 0
1, 61380, Note_on_c, 0, 79, 112
1, 61439, Note_on_c, 0, 79, 0
1, 61440, Note_on_c, 0, 76, 112
1, 61499, Note_on_c, 0, 76, 0
1, 61500, Note_on_c, 0, 82, 112
1, 61559, Note_on_c, 0, 82, 0
1, 61560, Note_on_c, 0, 80, 112
1, 61619, Note_on_c, 0, 80, 0
1, 61620, Note_on_c, 0, 82, 112
1, 61679, Note_on_c, 0, 82, 0
1, 61680, Note_on_c, 0, 76, 112
1, 61739, Note_on_c, 0, 76, 0
1, 61740, Note_on_c, 0, 79, 112
1, 61799, Note_on_c, 0, 79, 0
1, 61800, Note_on_c, 0, 77, 112
1, 61859, Note_on_c, 0, 77, 0
1, 61860, Note_on_c, 0, 79, 112
1, 61919, Note_on_c, 0, 79, 0
1, 61920, Note_on_c, 0, 70, 112
1, 61979, Note_on_c, 0, 70, 0
1, 61980, Note_on_c, 0, 73, 112
1, 62039, Note_on_c, 0, 73, 0
1, 62040, Note_on_c, 0, 72, 112
1, 62099, Note_on_c, 0, 72, 0
1, 62100, Note_on_c, 0, 73, 112
1, 62159, Note_on_c, 0, 73, 0
1, 62160, Note_on_c, 0, 64, 112
1, 62219, Note_on_c, 0, 64, 0
1, 62220, Note_on_c, 0, 67, 112
1, 62279, Note_on_c, 0, 67, 0
1, 62280, Note_on_c, 0, 65, 112
1, 62339, Note_on_c, 0, 65, 0
1, 62340, Note_on_c, 0, 67, 112
1, 62399, Note_on_c, 0, 67, 0
1, 62400, Note_on_c, 0, 58, 112
1, 62879, Note_on_c, 0, 58, 0
1, 63420, Note_on_c, 0, 72, 96
1, 63479, Note_on_c, 0, 72, 0
1, 63480, Note_on_c, 0, 70, 96
1, 63539, Note_on_c, 0, 70, 0
1, 63540, Note_on_c, 0, 72, 96
1, 63599, Note_on_c, 0, 72, 0
1, 63600, Note_on_c, 0, 68, 96
1, 63659, Note_on_c, 0, 68, 0
1, 63660, Note_on_c, 0, 72, 96
1, 63719, Note_on_c, 0, 72, 0
1, 63720, Note_on_c, 0, 70, 96
1, 63779, Note_on_c, 0, 70, 0
1, 63780, Note_on_c, 0, 72, 96
1, 63839, Note_on_c, 0, 72, 0
1, 63840, Note_on_c, 0, 77, 96
1, 63899, Note_on_c, 0, 77, 0
1, 63900, Note_on_c, 0, 72, 96
1, 63959, Note_on_c, 0, 72, 0
1, 63960, Note_on_c, 0, 70, 96
1, 64019, Note_on_c, 0, 70, 0
1, 64020, Note_on_c, 0, 72, 96
1, 64079, Note_on_c, 0, 72, 0
1, 64080, Note_on_c, 0, 68, 96
1, 64139, Note_on_c, 0, 68, 0
1, 64140, Note_on_c, 0, 72, 96
1, 64199, Note_on_c, 0, 72, 0
1, 64200, Note_on_c, 0, 70, 96
1, 64259, Note_on_c, 0, 70, 0
1, 64260, Note_on_c, 0, 72, 96
1, 64319, Note_on_c, 0, 72, 0
1, 64320, Note_on_c, 0, 81, 96
1, 64379, Note_on_c, 0, 81, 0
1, 64380, Note_on_c, 0, 81, 96
1, 64439, Note_on_c, 0, 81, 0
1, 64440, Note_on_c, 0, 81, 96
1, 64499, Note_on_c, 0, 81, 0
1, 64500, Note_on_c, 0, 81, 96
1, 64559, Note_on_c, 0, 81, 0
1, 64560, Note_on_c, 0, 81, 96
1, 64619, Note_on_c, 0, 81, 0
1, 64620, Note_on_c, 0, 81, 96
1, 64679, Note_on_c, 0, 81, 0
1, 64680, Note_on_c, 0, 81, 64
1, 64739, Note_on_c, 0, 81, 0
1, 64740, Note_on_c, 0, 81, 64
1, 64799, Note_on_c, 0, 81, 0
1, 64800, Note_on_c, 0, 81, 64
1, 64859, Note_on_c, 0, 81, 0
1, 64860, Note_on_c, 0, 81, 64
1, 64919, Note_on_c, 0, 81, 0
1, 64920, Note_on_c, 0, 81, 64
1, 64979, Note_on_c, 0, 81, 0
1, 64980, Note_on_c, 0, 81, 64
1, 65039, Note_on_c, 0, 81, 0
1, 65040, Note_on_c, 0, 81, 64
1, 65099, Note_on_c, 0, 81, 0
1, 65100, Note_on_c, 0, 81, 64
1, 65159, Note_on_c, 0, 81, 0
1, 65160, Note_on_c, 0, 81, 64
1, 65219, Note_on_c, 0, 81, 0
1, 65220, Note_on_c, 0, 81, 64
1, 65279, Note_on_c, 0, 81, 0
1, 65280, Note_on_c, 0, 82, 96
1, 65339, Note_on_c, 0, 82, 0
1, 65340, Note_on_c, 0, 74, 96
1, 65399, Note_on_c, 0, 74, 0
1, 65400, Note_on_c, 0, 72, 96
1, 65459, Note_on_c, 0, 72, 0
1, 65460, Note_on_c, 0, 74, 96
1, 65519, Note_on_c, 0, 74, 0
1, 65520, Note_on_c, 0, 77, 96
1, 65579, Note_on_c, 0, 77, 0
1, 65580, Note_on_c, 0, 74, 96
1, 65639, Note_on_c, 0, 74, 0
1, 65640, Note_on_c, 0, 72, 96
1, 65699, Note_on_c, 0, 72, 0
1, 65700, Note_on_c, 0, 74, 96
1, 65759, Note_on_c, 0, 74, 0
1, 65760, Note_on_c, 0, 70, 96
1, 65819, Note_on_c, 0, 70, 0
1, 65820, Note_on_c, 0, 74, 64
1, 65879, Note_on_c, 0, 74, 0
1, 65880, Note_on_c, 0, 72, 64
1, 65939, Note_on_c, 0, 72, 0
1, 65940, Note_on_c, 0, 74, 64
1, 65999, Note_on_c, 0, 74, 0
1, 66000, Note_on_c, 0, 77, 64
1, 66059, Note_on_c, 0, 77, 0
1, 66060, Note_on_c, 0, 74, 64
1, 66119, Note_on_c, 0, 74, 0
1, 66120, Note_on_c, 0, 72, 64
1, 66179, Note_on_c, 0, 72, 0
1, 66180, Note_on_c, 0, 74, 64
1, 66239, Note_on_c, 0, 74, 0
1, 66240, Note_on_c, 0, 83, 64
1, 66299, Note_on_c, 0, 83, 0
1, 66300, Note_on_c, 0, 83, 64
1, 66359, Note_on_c, 0, 83, 0
1, 66360, Note_on_c, 0, 83, 64
1, 66419, Note_on_c, 0, 83, 0
1, 66420, Note_on_c, 0, 83, 64
1, 66479, Note_on_c, 0, 83, 0
1, 66480, Note_on_c, 0, 83, 64
1, 66539, Note_on_c, 0, 83, 0
1, 66540, Note_on_c, 0, 83, 64
1, 66599, Note_on_c, 0, 83, 0
1, 66600, Note_on_c, 0, 83, 64
1, 66659, Note_on_c, 0, 83, 0
1, 66660, Note_on_c, 0, 83, 64
1, 66719, Note_on_c, 0, 83, 0
1, 66720, Note_on_c, 0, 83, 64
1, 66779, Note_on_c, 0, 83, 0
1, 66780, Note_on_c, 0, 83, 64
1, 66839, Note_on_c, 0, 83, 0
1, 66840, Note_on_c, 0, 83, 64
1, 66899, Note_on_c, 0, 83, 0
1, 66900, Note_on_c, 0, 83, 64
1, 66959, Note_on_c, 0, 83, 0
1, 66960, Note_on_c, 0, 83, 64
1, 67019, Note_on_c, 0, 83, 0
1, 67020, Note_on_c, 0, 83, 64
1, 67079, Note_on_c, 0, 83, 0
1, 67080, Note_on_c, 0, 83, 64
1, 67139, Note_on_c, 0, 83, 0
1, 67140, Note_on_c, 0, 83, 64
1, 67199, Note_on_c, 0, 83, 0
1, 67200, Note_on_c, 0, 84, 96
1, 67259, Note_on_c, 0, 84, 0
1, 67260, Note_on_c, 0, 75, 96
1, 67319, Note_on_c, 0, 75, 0
1, 67320, Note_on_c, 0, 74, 96
1, 67379, Note_on_c, 0, 74, 0
1, 67380, Note_on_c, 0, 75, 96
1, 67439, Note_on_c, 0, 75, 0
1, 67440, Note_on_c, 0, 79, 96
1, 67499, Note_on_c, 0, 79, 0
1, 67500, Note_on_c, 0, 75, 96
1, 67559, Note_on_c, 0, 75, 0
1, 67560, Note_on_c, 0, 74, 96
1, 67619, Note_on_c, 0, 74, 0
1, 67620, Note_on_c, 0, 75, 96
1, 67679, Note_on_c, 0, 75, 0
1, 67680, Note_on_c, 0, 84, 96
1, 67739, Note_on_c, 0, 84, 0
1, 67740, Note_on_c, 0, 75, 64
1, 67799, Note_on_c, 0, 75, 0
1, 67800, Note_on_c, 0, 74, 64
1, 67859, Note_on_c, 0, 74, 0
1, 67860, Note_on_c, 0, 75, 64
1, 67919, Note_on_c, 0, 75, 0
1, 67920, Note_on_c, 0, 79, 64
1, 67979, Note_on_c, 0, 79, 0
1, 67980, Note_on_c, 0, 75, 64
1, 68039, Note_on_c, 0, 75, 0
1, 68040, Note_on_c, 0, 74, 64
1, 68099, Note_on_c, 0, 74, 0
1, 68100, Note_on_c, 0, 72, 64
1, 68159, Note_on_c, 0, 72, 0
1, 68160, Note_on_c, 0, 74, 64
1, 68219, Note_on_c, 0, 74, 0
1, 68220, Note_on_c, 0, 74, 64
1, 68279, Note_on_c, 0, 74, 0
1, 68280, Note_on_c, 0, 74, 64
1, 68339, Note_on_c, 0, 74, 0
1, 68340, Note_on_c, 0, 74, 64
1, 68399, Note_on_c, 0, 74, 0
1, 68400, Note_on_c, 0, 74, 64
1, 68459, Note_on_c, 0, 74, 0
1, 68460, Note_on_c, 0, 74, 64
1, 68519, Note_on_c, 0, 74, 0
1, 68520, Note_on_c, 0, 74, 64
1, 68579, Note_on_c, 0, 74, 0
1, 68580, Note_on_c, 0, 74, 64
1, 68639, Note_on_c, 0, 74, 0
1, 68640, Note_on_c, 0, 74, 64
1, 68699, Note_on_c, 0, 74, 0
1, 68700, Note_on_c, 0, 74, 64
1, 68759, Note_on_c, 0, 74, 0
1, 68760, Note_on_c, 0, 74, 64
1, 68819, Note_on_c, 0, 74, 0
1, 68820, Note_on_c, 0, 74, 64
1, 68879, Note_on_c, 0, 74, 0
1, 68880, Note_on_c, 0, 74, 64
1, 68939, Note_on_c, 0, 74, 0
1, 68940, Note_on_c, 0, 74, 64
1, 68999, Note_on_c, 0, 74, 0
1, 69000, Note_on_c, 0, 74, 64
1, 69059, Note_on_c, 0, 74, 0
1, 69060, Note_on_c, 0, 74, 64
1, 69119, Note_on_c, 0, 74, 0
1, 69120, Note_on_c, 0, 75, 96
1, 69179, Note_on_c, 0, 75, 0
1, 69180, Note_on_c, 0, 67, 96
1, 69239, Note_on_c, 0, 67, 0
1, 69240, Note_on_c, 0, 65, 96
1, 69299, Note_on_c, 0, 65, 0
1, 69300, Note_on_c, 0, 67, 96
1, 69359, Note_on_c, 0, 67, 0
1, 69360, Note_on_c, 0, 75, 96
1, 69419, Note_on_c, 0, 75, 0
1, 69420, Note_on_c, 0, 67, 96
1, 69479, Note_on_c, 0, 67, 0
1, 69480, Note_on_c, 0, 65, 96
1, 69539, Note_on_c, 0, 65, 0
1, 69540, Note_on_c, 0, 67, 96
1, 69599, Note_on_c, 0, 67, 0
1, 69600, Note_on_c, 0, 75, 96
1, 69659, Note_on_c, 0, 75, 0
1, 69660, Note_on_c, 0, 67, 96
1, 69719, Note_on_c, 0, 67, 0
1, 69720, Note_on_c, 0, 65, 96
1, 69779, Note_on_c, 0, 65, 0
1, 69780, Note_on_c, 0, 67, 96
1, 69839, Note_on_c, 0, 67, 0
1, 69840, Note_on_c, 0, 75, 96
1, 69899, Note_on_c, 0, 75, 0
1, 69900, Note_on_c, 0, 67, 96
1, 69959, Note_on_c, 0, 67, 0
1, 69960, Note_on_c, 0, 65, 96
1, 70019, Note_on_c, 0, 65, 0
1, 70020, Note_on_c, 0, 67, 96
1, 70079, Note_on_c, 0, 67, 0
1, 70080, Note_on_c, 0, 75, 96
1, 70139, Note_on_c, 0, 75, 0
1, 70140, Note_on_c, 0, 75, 96
1, 70199, Note_on_c, 0, 75, 0
1, 70200, Note_on_c, 0, 75, 96
1, 70259, Note_on_c, 0, 75, 0
1, 70260, Note_on_c, 0, 75, 96
1, 70319, Note_on_c, 0, 75, 0
1, 70320, Note_on_c, 0, 75, 96
1, 70379, Note_on_c, 0, 75, 0
1, 70380, Note_on_c, 0, 75, 96
1, 70439, Note_on_c, 0, 75, 0
1, 70440, Note_on_c, 0, 75, 96
1, 70499, Note_on_c, 0, 75, 0
1, 70500, Note_on_c, 0, 75, 96
1, 70559, Note_on_c, 0, 75, 0
1, 70560, Note_on_c, 0, 75, 96
1, 70619, Note_on_c, 0, 75, 0
1, 70620, Note_on_c, 0, 75, 96
1, 70679, Note_on_c, 0, 75, 0
1, 70680, Note_on_c, 0, 75, 96
1, 70739, Note_on_c, 0, 75, 0
1, 70740, Note_on_c, 0, 75, 96
1, 70799, Note_on_c, 0, 75, 0
1, 70800, Note_on_c, 0, 75, 96
1, 70859, Note_on_c, 0, 75, 0
1, 70860, Note_on_c, 0, 75, 96
1, 70919, Note_on_c, 0, 75, 0
1, 70920, Note_on_c, 0, 75, 96
1, 70979, Note_on_c, 0, 75, 0
1, 70980, Note_on_c, 0, 75, 96
1, 71039, Note_on_c, 0, 75, 0
1, 71040, Note_on_c, 0, 74, 96
1, 71099, Note_on_c, 0, 74, 0
1, 71100, Note_on_c, 0, 74, 96
1, 71159, Note_on_c, 0, 74, 0
1, 71160, Note_on_c, 0, 74, 96
1, 71219, Note_on_c, 0, 74, 0
1, 71220, Note_on_c, 0, 74, 96
1, 71279, Note_on_c, 0, 74, 0
1, 71280, Note_on_c, 0, 74, 96
1, 71339, Note_on_c, 0, 74, 0
1, 71340, Note_on_c, 0, 74, 96
1, 71399, Note_on_c, 0, 74, 0
1, 71400, Note_on_c, 0, 74, 96
1, 71459, Note_on_c, 0, 74, 0
1, 71460, Note_on_c, 0, 74, 96
1, 71519, Note_on_c, 0, 74, 0
1, 71520, Note_on_c, 0, 74, 96
1, 71579, Note_on_c, 0, 74, 0
1, 71580, Note_on_c, 0, 74, 96
1, 71639, Note_on_c, 0, 74, 0
1, 71640, Note_on_c, 0, 74, 96
1, 71699, Note_on_c, 0, 74, 0
1, 71700, Note_on_c, 0, 74, 96
1, 71759, Note_on_c, 0, 74, 0
1, 71760, Note_on_c, 0, 74, 96
1, 71819, Note_on_c, 0, 74, 0
1, 71820, Note_on_c, 0, 74, 96
1, 71879, Note_on_c, 0, 74, 0
1, 71880, Note_on_c, 0, 74, 96
1, 71939, Note_on_c, 0, 74, 0
1, 71940, Note_on_c, 0, 74, 96
1, 71999, Note_on_c, 0, 74, 0
1, 72000, Note_on_c, 0, 75, 96
1, 72479, Note_on_c, 0, 75, 0
1, 74880, Note_on_c, 0, 70, 64
1, 74999, Note_on_c, 0, 70, 0
1, 75120, Note_on_c, 0, 70, 64
1, 75239, Note_on_c, 0, 70, 0
1, 75360, Note_on_c, 0, 70, 64
1, 75479, Note_on_c, 0, 70, 0
1, 75600, Note_on_c, 0, 70, 64
1, 75719, Note_on_c, 0, 70, 0
1, 75840, Note_on_c, 0, 70, 64
1, 75959, Note_on_c, 0, 70, 0
1, 76080, Note_on_c, 0, 70, 64
1, 76199, Note_on_c, 0, 70, 0
1, 76320, Note_on_c, 0, 70, 64
1, 76439, Note_on_c, 0, 70, 0
1, 76560, Note_on_c, 0, 70, 64
1, 76679, Note_on_c, 0, 70, 0
1, 76800, Note_on_c, 0, 70, 64
1, 76919, Note_on_c, 0, 70, 0
1, 77040, Note_on_c, 0, 70, 64
1, 77159, Note_on_c, 0, 70, 0
1, 77280, Note_on_c, 0, 70, 64
1, 77399, Note_on_c, 0, 70, 0
1, 77520, Note_on_c, 0, 70, 64
1, 77639, Note_on_c, 0, 70, 0
1, 77760, Note_on_c, 0, 73, 64
1, 77819, Note_on_c, 0, 73, 0
1, 77880, Note_on_c, 0, 73, 64
1, 77939, Note_on_c, 0, 73, 0
1, 78000, Note_on_c, 0, 73, 64
1, 78059, Note_on_c, 0, 73, 0
1, 78120, Note_on_c, 0, 73, 64
1, 78179, Note_on_c, 0, 73, 0
1, 78240, Note_on_c, 0, 73, 64
1, 78299, Note_on_c, 0, 73, 0
1, 78360, Note_on_c, 0, 73, 64
1, 78419, Note_on_c, 0, 73, 0
1, 78480, Note_on_c, 0, 73, 64
1, 78539, Note_on_c, 0, 73, 0
1, 78600, Note_on_c, 0, 73, 64
1, 78659, Note_on_c, 0, 73, 0
1, 78720, Note_on_c, 0, 72, 64
1, 78839, Note_on_c, 0, 72, 0
1, 78960, Note_on_c, 0, 72, 64
1, 79079, Note_on_c, 0, 72, 0
1, 79200, Note_on_c, 0, 72, 64
1, 79319, Note_on_c, 0, 72, 0
1, 79440, Note_on_c, 0, 72, 64
1, 79559, Note_on_c, 0, 72, 0
1, 79680, Note_on_c, 0, 75, 64
1, 79739, Note_on_c, 0, 75, 0
1, 79800, Note_on_c, 0, 75, 64
1, 79859, Note_on_c, 0, 75, 0
1, 79920, Note_on_c, 0, 75, 64
1, 79979, Note_on_c, 0, 75, 0
1, 80040, Note_on_c, 0, 75, 64
1, 80099, Note_on_c, 0, 75, 0
1, 80160, Note_on_c, 0, 75, 64
1, 80219, Note_on_c, 0, 75, 0
1, 80280, Note_on_c, 0, 75, 64
1, 80339, Note_on_c, 0, 75, 0
1, 80400, Note_on_c, 0, 75, 64
1, 80459, Note_on_c, 0, 75, 0
1, 80520, Note_on_c, 0, 75, 64
1, 80579, Note_on_c, 0, 75, 0
1, 80640, Note_on_c, 0, 74, 64
1, 80759, Note_on_c, 0, 74, 0
1, 80880, Note_on_c, 0, 74, 64
1, 80999, Note_on_c, 0, 74, 0
1, 81120, Note_on_c, 0, 74, 64
1, 81239, Note_on_c, 0, 74, 0
1, 81360, Note_on_c, 0, 74, 64
1, 81479, Note_on_c, 0, 74, 0
1, 81600, Note_on_c, 0, 80, 64
1, 81659, Note_on_c, 0, 80, 0
1, 81720, Note_on_c, 0, 80, 64
1, 81779, Note_on_c, 0, 80, 0
1, 81840, Note_on_c, 0, 80, 64
1, 81899, Note_on_c, 0, 80, 0
1, 81960, Note_on_c, 0, 80, 64
1, 82019, Note_on_c, 0, 80, 0
1, 82080, Note_on_c, 0, 80, 64
1, 82139, Note_on_c, 0, 80, 0
1, 82200, Note_on_c, 0, 80, 64
1, 82259, Note_on_c, 0, 80, 0
1, 82320, Note_on_c, 0, 80, 64
1, 82379, Note_on_c, 0, 80, 0
1, 82440, Note_on_c, 0, 80, 64
1, 82499, Note_on_c, 0, 80, 0
1, 82560, Note_on_c, 0, 79, 96
1, 82679, Note_on_c, 0, 79, 0
1, 82680, Note_on_c, 0, 87, 96
1, 82799, Note_on_c, 0, 87, 0
1, 82800, Note_on_c, 0, 87, 96
1, 82919, Note_on_c, 0, 87, 0
1, 82920, Note_on_c, 0, 82, 96
1, 83039, Note_on_c, 0, 82, 0
1, 83040, Note_on_c, 0, 82, 96
1, 83159, Note_on_c, 0, 82, 0
1, 83160, Note_on_c, 0, 79, 96
1, 83279, Note_on_c, 0, 79, 0
1, 83280, Note_on_c, 0, 79, 96
1, 83399, Note_on_c, 0, 79, 0
1, 83400, Note_on_c, 0, 75, 96
1, 83519, Note_on_c, 0, 75, 0
1, 83520, Note_on_c, 0, 75, 96
1, 83759, Note_on_c, 0, 75, 0
1, 83760, Note_on_c, 0, 79, 96
1, 83999, Note_on_c, 0, 79, 0
1, 84000, Note_on_c, 0, 82, 96
1, 84239, Note_on_c, 0, 82, 0
1, 84240, Note_on_c, 0, 85, 96
1, 84479, Note_on_c, 0, 85, 0
1, 84480, Note_on_c, 0, 84, 96
1, 84599, Note_on_c, 0, 84, 0
1, 84600, Note_on_c, 0, 89, 96
1, 84719, Note_on_c, 0, 89, 0
1, 84720, Note_on_c, 0, 89, 96
1, 84839, Note_on_c, 0, 89, 0
1, 84840, Note_on_c, 0, 84, 96
1, 84959, Note_on_c, 0, 84, 0
1, 84960, Note_on_c, 0, 84, 96
1, 85079, Note_on_c, 0, 84, 0
1, 85080, Note_on_c, 0, 81, 96
1, 85199, Note_on_c, 0, 81, 0
1, 85200, Note_on_c, 0, 81, 96
1, 85319, Note_on_c, 0, 81, 0
1, 85320, Note_on_c, 0, 77, 96
1, 85439, Note_on_c, 0, 77, 0
1, 85440, Note_on_c, 0, 77, 96
1, 85679, Note_on_c, 0, 77, 0
1, 85680, Note_on_c, 0, 81, 96
1, 85919, Note_on_c, 0, 81, 0
1, 85920, Note_on_c, 0, 84, 96
1, 86159, Note_on_c, 0, 84, 0
1, 86160, Note_on_c, 0, 87, 96
1, 86399, Note_on_c, 0, 87, 0
1, 86400, Note_on_c, 0, 86, 96
1, 86519, Note_on_c, 0, 86, 0
1, 86520, Note_on_c, 0, 91, 96
1, 86639, Note_on_c, 0, 91, 0
1, 86640, Note_on_c, 0, 91, 96
1, 86759, Note_on_c, 0, 91, 0
1, 86760, Note_on_c, 0, 86, 96
1, 86879, Note_on_c, 0, 86, 0
1, 86880, Note_on_c, 0, 86, 96
1, 86999, Note_on_c, 0, 86, 0
1, 87000, Note_on_c, 0, 83, 96
1, 87119, Note_on_c, 0, 83, 0
1, 87120, Note_on_c, 0, 83, 96
1, 87239, Note_on_c, 0, 83, 0
1, 87240, Note_on_c, 0, 79, 96
1, 87359, Note_on_c, 0, 79, 0
1, 87360, Note_on_c, 0, 79, 96
1, 87599, Note_on_c, 0, 79, 0
1, 87600, Note_on_c, 0, 83, 96
1, 87839, Note_on_c, 0, 83, 0
1, 87840, Note_on_c, 0, 86, 96
1, 88079, Note_on_c, 0, 86, 0
1, 88080, Note_on_c, 0, 89, 96
1, 88319, Note_on_c, 0, 89, 0
1, 88320, Note_on_c, 0, 84, 80
1, 88320, Note_on_c, 0, 87, 80
1, 88379, Note_on_c, 0, 84, 0
1, 88379, Note_on_c, 0, 87, 0
1, 88380, Note_on_c, 0, 84, 80
1, 88380, Note_on_c, 0, 87, 80
1, 88439, Note_on_c, 0, 84, 0
1, 88439, Note_on_c, 0, 87, 0
1, 88440, Note_on_c, 0, 84, 80
1, 88440, Note_on_c, 0, 87, 80
1, 88499, Note_on_c, 0, 84, 0
1, 88499, Note_on_c, 0, 87, 0
1, 88500, Note_on_c, 0, 84, 80
1, 88500, Note_on_c, 0, 87, 80
1, 88559, Note_on_c, 0, 84, 0
1, 88559, Note_on_c, 0, 87, 0
1, 88560, Note_on_c, 0, 84, 80
1, 88560, Note_on_c, 0, 87, 80
1, 88619, Note_on_c, 0, 84, 0
1, 88619, Note_on_c, 0, 87, 0
1, 88620, Note_on_c, 0, 84, 80
1, 88620, Note_on_c, 0, 87, 80
1, 88679, Note_on_c, 0, 84, 0
1, 88679, Note_on_c, 0, 87, 0
1, 88680, Note_on_c, 0, 84, 80
1, 88680, Note_on_c, 0, 87, 80
1, 88739, Note_on_c, 0, 84, 0
1, 88739, Note_on_c, 0, 87, 0
1, 88740, Note_on_c, 0, 84, 80
1, 88740, Note_on_c, 0, 87, 80
1, 88799, Note_on_c, 0, 84, 0
1, 88799, Note_on_c, 0, 87, 0
1, 88800, Note_on_c, 0, 84, 80
1, 88800, Note_on_c, 0, 87, 80
1, 88859, Note_on_c, 0, 84, 0
1, 88859, Note_on_c, 0, 87, 0
1, 88860, Note_on_c, 0, 84, 80
1, 88860, Note_on_c, 0, 87, 80
1, 88919, Note_on_c, 0, 84, 0
1, 88919, Note_on_c, 0, 87, 0
1, 88920, Note_on_c, 0, 84, 80
1, 88920, Note_on_c, 0, 87, 80
1, 88979, Note_on_c, 0, 84, 0
1, 88979, Note_on_c, 0, 87, 0
1, 88980, Note_on_c, 0, 84, 80
1, 88980, Note_on_c, 0, 87, 80
1, 89039, Note_on_c, 0, 84, 0
1, 89039, Note_on_c, 0, 87, 0
1, 89040, Note_on_c, 0, 84, 80
1, 89040, Note_on_c, 0, 87, 80
1, 89099, Note_on_c, 0, 84, 0
1, 89099, Note_on_c, 0, 87, 0
1, 89100, Note_on_c, 0, 84, 80
1, 89100, Note_on_c, 0, 87, 80
1, 89159, Note_on_c, 0, 84, 0
1, 89159, Note_on_c, 0, 87, 0
1, 89160, Note_on_c, 0, 84, 80
1, 89160, Note_on_c, 0, 87, 80
1, 89219, Note_on_c, 0, 84, 0
1, 89219, Note_on_c, 0, 87, 0
1, 89220, Note_on_c, 0, 84, 80
1, 89220, Note_on_c, 0, 87, 80
1, 89279, Note_on_c, 0, 84, 0
1, 89279, Note_on_c, 0, 87, 0
1, 89280, Note_on_c, 0, 84, 80
1, 89280, Note_on_c, 0, 86, 80
1, 89339, Note_on_c, 0, 84, 0
1, 89339, Note_on_c, 0, 86, 0
1, 89340, Note_on_c, 0, 84, 80
1, 89340, Note_on_c, 0, 86, 80
1, 89399, Note_on_c, 0, 84, 0
1, 89399, Note_on_c, 0, 86, 0
1, 89400, Note_on_c, 0, 84, 80
1, 89400, Note_on_c, 0, 86, 80
1, 89459, Note_on_c, 0, 84, 0
1, 89459, Note_on_c, 0, 86, 0
1, 89460, Note_on_c, 0, 84, 80
1, 89460, Note_on_c, 0, 86, 80
1, 89519, Note_on_c, 0, 84, 0
1, 89519, Note_on_c, 0, 86, 0
1, 89520, Note_on_c, 0, 84, 80
1, 89520, Note_on_c, 0, 86, 80
1, 89579, Note_on_c, 0, 84, 0
1, 89579, Note_on_c, 0, 86, 0
1, 89580, Note_on_c, 0, 84, 80
1, 89580, Note_on_c, 0, 86, 80
1, 89639, Note_on_c, 0, 84, 0
1, 89639, Note_on_c, 0, 86, 0
1, 89640, Note_on_c, 0, 84, 80
1, 89640, Note_on_c, 0, 86, 80
1, 89699, Note_on_c, 0, 84, 0
1, 89699, Note_on_c, 0, 86, 0
1, 89700, Note_on_c, 0, 84, 80
1, 89700, Note_on_c, 0, 86, 80
1, 89759, Note_on_c, 0, 84, 0
1, 89759, Note_on_c, 0, 86, 0
1, 89760, Note_on_c, 0, 84, 80
1, 89760, Note_on_c, 0, 86, 80
1, 89819, Note_on_c, 0, 84, 0
1, 89819, Note_on_c, 0, 86, 0
1, 89820, Note_on_c, 0, 84, 80
1, 89820, Note_on_c, 0, 86, 80
1, 89879, Note_on_c, 0, 84, 0
1, 89879, Note_on_c, 0, 86, 0
1, 89880, Note_on_c, 0, 84, 80
1, 89880, Note_on_c, 0, 86, 80
1, 89939, Note_on_c, 0, 84, 0
1, 89939, Note_on_c, 0, 86, 0
1, 89940, Note_on_c, 0, 84, 80
1, 89940, Note_on_c, 0, 86, 80
1, 89999, Note_on_c, 0, 84, 0
1, 89999, Note_on_c, 0, 86, 0
1, 90000, Note_on_c, 0, 84, 80
1, 90000, Note_on_c, 0, 86, 80
1, 90059, Note_on_c, 0, 84, 0
1, 90059, Note_on_c, 0, 86, 0
1, 90060, Note_on_c, 0, 84, 80
1, 90060, Note_on_c, 0, 86, 80
1, 90119, Note_on_c, 0, 84, 0
1, 90119, Note_on_c, 0, 86, 0
1, 90120, Note_on_c, 0, 84, 80
1, 90120, Note_on_c, 0, 86, 80
1, 90179, Note_on_c, 0, 84, 0
1, 90179, Note_on_c, 0, 86, 0
1, 90180, Note_on_c, 0, 84, 80
1, 90180, Note_on_c, 0, 86, 80
1, 90239, Note_on_c, 0, 84, 0
1, 90239, Note_on_c, 0, 86, 0
1, 90240, Note_on_c, 0, 82, 80
1, 90240, Note_on_c, 0, 86, 80
1, 90299, Note_on_c, 0, 82, 0
1, 90299, Note_on_c, 0, 86, 0
1, 90300, Note_on_c, 0, 82, 80
1, 90300, Note_on_c, 0, 86, 80
1, 90359, Note_on_c, 0, 82, 0
1, 90359, Note_on_c, 0, 86, 0
1, 90360, Note_on_c, 0, 82, 80
1, 90360, Note_on_c, 0, 86, 80
1, 90419, Note_on_c, 0, 82, 0
1, 90419, Note_on_c, 0, 86, 0
1, 90420, Note_on_c, 0, 82, 80
1, 90420, Note_on_c, 0, 86, 80
1, 90479, Note_on_c, 0, 82, 0
1, 90479, Note_on_c, 0, 86, 0
1, 90480, Note_on_c, 0, 82, 80
1, 90480, Note_on_c, 0, 86, 80
1, 90539, Note_on_c, 0, 82, 0
1, 90539, Note_on_c, 0, 86, 0
1, 90540, Note_on_c, 0, 82, 80
1, 90540, Note_on_c, 0, 86, 80
1, 90599, Note_on_c, 0, 82, 0
1, 90599, Note_on_c, 0, 86, 0
1, 90600, Note_on_c, 0, 82, 80
1, 90600, Note_on_c, 0, 86, 80
1, 90659, Note_on_c, 0, 82, 0
1, 90659, Note_on_c, 0, 86, 0
1, 90660, Note_on_c, 0, 82, 80
1, 90660, Note_on_c, 0, 86, 80
1, 90719, Note_on_c, 0, 82, 0
1, 90719, Note_on_c, 0, 86, 0
1, 90720, Note_on_c, 0, 82, 80
1, 90720, Note_on_c, 0, 86, 80
1, 90779, Note_on_c, 0, 82, 0
1, 90779, Note_on_c, 0, 86, 0
1, 90780, Note_on_c, 0, 82, 80
1, 90780, Note_on_c, 0, 86, 80
1, 90839, Note_on_c, 0, 82, 0
1, 90839, Note_on_c, 0, 86, 0
1, 90840, Note_on_c, 0, 82, 80
1, 90840, Note_on_c, 0, 86, 80
1, 90899, Note_on_c, 0, 82, 0
1, 90899, Note_on_c, 0, 86, 0
1, 90900, Note_on_c, 0, 82, 80
1, 90900, Note_on_c, 0, 86, 80
1, 90959, Note_on_c, 0, 82, 0
1, 90959, Note_on_c, 0, 86, 0
1, 90960, Note_on_c, 0, 82, 80
1, 90960, Note_on_c, 0, 86, 80
1, 91019, Note_on_c, 0, 82, 0
1, 91019, Note_on_c, 0, 86, 0
1, 91020, Note_on_c, 0, 82, 80
1, 91020, Note_on_c, 0, 86, 80
1, 91079, Note_on_c, 0, 82, 0
1, 91079, Note_on_c, 0, 86, 0
1, 91080, Note_on_c, 0, 82, 80
1, 91080, Note_on_c, 0, 86, 80
1, 91139, Note_on_c, 0, 82, 0
1, 91139, Note_on_c, 0, 86, 0
1, 91140, Note_on_c, 0, 82, 80
1, 91140, Note_on_c, 0, 86, 80
1, 91199, Note_on_c, 0, 82, 0
1, 91199, Note_on_c, 0, 86, 0
1, 91200, Note_on_c, 0, 82, 80
1, 91200, Note_on_c, 0, 91, 80
1, 91259, Note_on_c, 0, 82, 0
1, 91259, Note_on_c, 0, 91, 0
1, 91260, Note_on_c, 0, 82, 80
1, 91260, Note_on_c, 0, 91, 80
1, 91319, Note_on_c, 0, 82, 0
1, 91319, Note_on_c, 0, 91, 0
1, 91320, Note_on_c, 0, 82, 80
1, 91320, Note_on_c, 0, 91, 80
1, 91379, Note_on_c, 0, 82, 0
1, 91379, Note_on_c, 0, 91, 0
1, 91380, Note_on_c, 0, 82, 80
1, 91380, Note_on_c, 0, 91, 80
1, 91439, Note_on_c, 0, 82, 0
1, 91439, Note_on_c, 0, 91, 0
1, 91440, Note_on_c, 0, 82, 80
1, 91440, Note_on_c, 0, 91, 80
1, 91499, Note_on_c, 0, 82, 0
1, 91499, Note_on_c, 0, 91, 0
1, 91500, Note_on_c, 0, 82, 80
1, 91500, Note_on_c, 0, 91, 80
1, 91559, Note_on_c, 0, 82, 0
1, 91559, Note_on_c, 0, 91, 0
1, 91560, Note_on_c, 0, 82, 80
1, 91560, Note_on_c, 0, 91, 80
1, 91619, Note_on_c, 0, 82, 0
1, 91619, Note_on_c, 0, 91, 0
1, 91620, Note_on_c, 0, 82, 80
1, 91620, Note_on_c, 0, 91, 80
1, 91679, Note_on_c, 0, 82, 0
1, 91679, Note_on_c, 0, 91, 0
1, 91680, Note_on_c, 0, 82, 80
1, 91680, Note_on_c, 0, 91, 80
1, 91739, Note_on_c, 0, 82, 0
1, 91739, Note_on_c, 0, 91, 0
1, 91740, Note_on_c, 0, 82, 80
1, 91740, Note_on_c, 0, 91, 80
1, 91799, Note_on_c, 0, 82, 0
1, 91799, Note_on_c, 0, 91, 0
1, 91800, Note_on_c, 0, 82, 80
1, 91800, Note_on_c, 0, 91, 80
1, 91859, Note_on_c, 0, 82, 0
1, 91859, Note_on_c, 0, 91, 0
1, 91860, Note_on_c, 0, 82, 80
1, 91860, Note_on_c, 0, 91, 80
1, 91919, Note_on_c, 0, 82, 0
1, 91919, Note_on_c, 0, 91, 0
1, 91920, Note_on_c, 0, 82, 80
1, 91920, Note_on_c, 0, 91, 80
1, 91979, Note_on_c, 0, 82, 0
1, 91979, Note_on_c, 0, 91, 0
1, 91980, Note_on_c, 0, 82, 80
1, 91980, Note_on_c, 0, 91, 80
1, 92039, Note_on_c, 0, 82, 0
1, 92039, Note_on_c, 0, 91, 0
1, 92040, Note_on_c, 0, 82, 80
1, 92040, Note_on_c, 0, 91, 80
1, 92099, Note_on_c, 0, 82, 0
1, 92099, Note_on_c, 0, 91, 0
1, 92100, Note_on_c, 0, 82, 80
1, 92100, Note_on_c, 0, 91, 80
1, 92159, Note_on_c, 0, 82, 0
1, 92159, Note_on_c, 0, 91, 0
1, 92160, Note_on_c, 0, 80, 80
1, 92160, Note_on_c, 0, 91, 80
1, 92219, Note_on_c, 0, 80, 0
1, 92219, Note_on_c, 0, 91, 0
1, 92220, Note_on_c, 0, 80, 80
1, 92220, Note_on_c, 0, 91, 80
1, 92279, Note_on_c, 0, 80, 0
1, 92279, Note_on_c, 0, 91, 0
1, 92280, Note_on_c, 0, 80, 80
1, 92280, Note_on_c, 0, 91, 80
1, 92339, Note_on_c, 0, 80, 0
1, 92339, Note_on_c, 0, 91, 0
1, 92340, Note_on_c, 0, 80, 80
1, 92340, Note_on_c, 0, 91, 80
1, 92399, Note_on_c, 0, 80, 0
1, 92399, Note_on_c, 0, 91, 0
1, 92400, Note_on_c, 0, 80, 80
1, 92400, Note_on_c, 0, 91, 80
1, 92459, Note_on_c, 0, 80, 0
1, 92459, Note_on_c, 0, 91, 0
1, 92460, Note_on_c, 0, 80, 80
1, 92460, Note_on_c, 0, 91, 80
1, 92519, Note_on_c, 0, 80, 0
1, 92519, Note_on_c, 0, 91, 0
1, 92520, Note_on_c, 0, 80, 80
1, 92520, Note_on_c, 0, 91, 80
1, 92579, Note_on_c, 0, 80, 0
1, 92579, Note_on_c, 0, 91, 0
1, 92580, Note_on_c, 0, 80, 80
1, 92580, Note_on_c, 0, 91, 80
1, 92639, Note_on_c, 0, 80, 0
1, 92639, Note_on_c, 0, 91, 0
1, 92640, Note_on_c, 0, 80, 80
1, 92640, Note_on_c, 0, 91, 80
1, 92699, Note_on_c, 0, 80, 0
1, 92699, Note_on_c, 0, 91, 0
1, 92700, Note_on_c, 0, 80, 80
1, 92700, Note_on_c, 0, 91, 80
1, 92759, Note_on_c, 0, 80, 0
1, 92759, Note_on_c, 0, 91, 0
1, 92760, Note_on_c, 0, 80, 80
1, 92760, Note_on_c, 0, 91, 80
1, 92819, Note_on_c, 0, 80, 0
1, 92819, Note_on_c, 0, 91, 0
1, 92820, Note_on_c, 0, 80, 80
1, 92820, Note_on_c, 0, 91, 80
1, 92879, Note_on_c, 0, 80, 0
1, 92879, Note_on_c, 0, 91, 0
1, 92880, Note_on_c, 0, 80, 80
1, 92880, Note_on_c, 0, 91, 80
1, 92939, Note_on_c, 0, 80, 0
1, 92939, Note_on_c, 0, 91, 0
1, 92940, Note_on_c, 0, 80, 80
1, 92940, Note_on_c, 0, 91, 80
1, 92999, Note_on_c, 0, 80, 0
1, 92999, Note_on_c, 0, 91, 0
1, 93000, Note_on_c, 0, 80, 80
1, 93000, Note_on_c, 0, 91, 80
1, 93059, Note_on_c, 0, 80, 0
1, 93059, Note_on_c, 0, 91, 0
1, 93060, Note_on_c, 0, 80, 80
1, 93060, Note_on_c, 0, 91, 80
1, 93119, Note_on_c, 0, 80, 0
1, 93119, Note_on_c, 0, 91, 0
1, 93120, Note_on_c, 0, 80, 80
1, 93120, Note_on_c, 0, 89, 80
1, 93179, Note_on_c, 0, 80, 0
1, 93179, Note_on_c, 0, 89, 0
1, 93180, Note_on_c, 0, 80, 80
1, 93180, Note_on_c, 0, 89, 80
1, 93239, Note_on_c, 0, 80, 0
1, 93239, Note_on_c, 0, 89, 0
1, 93240, Note_on_c, 0, 80, 80
1, 93240, Note_on_c, 0, 89, 80
1, 93299, Note_on_c, 0, 80, 0
1, 93299, Note_on_c, 0, 89, 0
1, 93300, Note_on_c, 0, 80, 80
1, 93300, Note_on_c, 0, 89, 80
1, 93359, Note_on_c, 0, 80, 0
1, 93359, Note_on_c, 0, 89, 0
1, 93360, Note_on_c, 0, 80, 80
1, 93360, Note_on_c, 0, 89, 80
1, 93419, Note_on_c, 0, 80, 0
1, 93419, Note_on_c, 0, 89, 0
1, 93420, Note_on_c, 0, 80, 80
1, 93420, Note_on_c, 0, 89, 80
1, 93479, Note_on_c, 0, 80, 0
1, 93479, Note_on_c, 0, 89, 0
1, 93480, Note_on_c, 0, 80, 80
1, 93480, Note_on_c, 0, 89, 80
1, 93539, Note_on_c, 0, 80, 0
1, 93539, Note_on_c, 0, 89, 0
1, 93540, Note_on_c, 0, 80, 80
1, 93540, Note_on_c, 0, 89, 80
1, 93599, Note_on_c, 0, 80, 0
1, 93599, Note_on_c, 0, 89, 0
1, 93600, Note_on_c, 0, 80, 80
1, 93600, Note_on_c, 0, 89, 80
1, 93659, Note_on_c, 0, 80, 0
1, 93659, Note_on_c, 0, 89, 0
1, 93660, Note_on_c, 0, 80, 80
1, 93660, Note_on_c, 0, 89, 80
1, 93719, Note_on_c, 0, 80, 0
1, 93719, Note_on_c, 0, 89, 0
1, 93720, Note_on_c, 0, 80, 80
1, 93720, Note_on_c, 0, 89, 80
1, 93779, Note_on_c, 0, 80, 0
1, 93779, Note_on_c, 0, 89, 0
1, 93780, Note_on_c, 0, 80, 80
1, 93780, Note_on_c, 0, 89, 80
1, 93839, Note_on_c, 0, 80, 0
1, 93839, Note_on_c, 0, 89, 0
1, 93840, Note_on_c, 0, 80, 80
1, 93840, Note_on_c, 0, 89, 80
1, 93899, Note_on_c, 0, 80, 0
1, 93899, Note_on_c, 0, 89, 0
1, 93900, Note_on_c, 0, 80, 80
1, 93900, Note_on_c, 0, 89, 80
1, 93959, Note_on_c, 0, 80, 0
1, 93959, Note_on_c, 0, 89, 0
1, 93960, Note_on_c, 0, 80, 80
1, 93960, Note_on_c, 0, 89, 80
1, 94019, Note_on_c, 0, 80, 0
1, 94019, Note_on_c, 0, 89, 0
1, 94020, Note_on_c, 0, 80, 80
1, 94020, Note_on_c, 0, 89, 80
1, 94079, Note_on_c, 0, 80, 0
1, 94079, Note_on_c, 0, 89, 0
1, 94080, Note_on_c, 0, 79, 80
1, 94080, Note_on_c, 0, 89, 80
1, 94139, Note_on_c, 0, 79, 0
1, 94139, Note_on_c, 0, 89, 0
1, 94140, Note_on_c, 0, 79, 80
1, 94140, Note_on_c, 0, 89, 80
1, 94199, Note_on_c, 0, 79, 0
1, 94199, Note_on_c, 0, 89, 0
1, 94200, Note_on_c, 0, 79, 80
1, 94200, Note_on_c, 0, 89, 80
1, 94259, Note_on_c, 0, 79, 0
1, 94259, Note_on_c, 0, 89, 0
1, 94260, Note_on_c, 0, 79, 80
1, 94260, Note_on_c, 0, 89, 80
1, 94319, Note_on_c, 0, 79, 0
1, 94319, Note_on_c, 0, 89, 0
1, 94320, Note_on_c, 0, 79, 80
1, 94320, Note_on_c, 0, 89, 80
1, 94379, Note_on_c, 0, 79, 0
1, 94379, Note_on_c, 0, 89, 0
1, 94380, Note_on_c, 0, 79, 80
1, 94380, Note_on_c, 0, 89, 80
1, 94439, Note_on_c, 0, 79, 0
1, 94439, Note_on_c, 0, 89, 0
1, 94440, Note_on_c, 0, 79, 80
1, 94440, Note_on_c, 0, 89, 80
1, 94499, Note_on_c, 0, 79, 0
1, 94499, Note_on_c, 0, 89, 0
1, 94500, Note_on_c, 0, 79, 80
1, 94500, Note_on_c, 0, 89, 80
1, 94559, Note_on_c, 0, 79, 0
1, 94559, Note_on_c, 0, 89, 0
1, 94560, Note_on_c, 0, 79, 80
1, 94560, Note_on_c, 0, 89, 80
1, 94619, Note_on_c, 0, 79, 0
1, 94619, Note_on_c, 0, 89, 0
1, 94620, Note_on_c, 0, 79, 80
1, 94620, Note_on_c, 0, 89, 80
1, 94679, Note_on_c, 0, 79, 0
1, 94679, Note_on_c, 0, 89, 0
1, 94680, Note_on_c, 0, 79, 80
1, 94680, Note_on_c, 0, 89, 80
1, 94739, Note_on_c, 0, 79, 0
1, 94739, Note_on_c, 0, 89, 0
1, 94740, Note_on_c, 0, 79, 80
1, 94740, Note_on_c, 0, 89, 80
1, 94799, Note_on_c, 0, 79, 0
1, 94799, Note_on_c, 0, 89, 0
1, 94800, Note_on_c, 0, 79, 80
1, 94800, Note_on_c, 0, 89, 80
1, 94859, Note_on_c, 0, 79, 0
1, 94859, Note_on_c, 0, 89, 0
1, 94860, Note_on_c, 0, 79, 80
1, 94860, Note_on_c, 0, 89, 80
1, 94919, Note_on_c, 0, 79, 0
1, 94919, Note_on_c, 0, 89, 0
1, 94920, Note_on_c, 0, 79, 80
1, 94920, Note_on_c, 0, 89, 80
1, 94979, Note_on_c, 0, 79, 0
1, 94979, Note_on_c, 0, 89, 0
1, 94980, Note_on_c, 0, 79, 80
1, 94980, Note_on_c, 0, 89, 80
1, 95039, Note_on_c, 0, 79, 0
1, 95039, Note_on_c, 0, 89, 0
1, 95040, Note_on_c, 0, 84, 80
1, 95040, Note_on_c, 0, 87, 80
1, 95099, Note_on_c, 0, 84, 0
1, 95099, Note_on_c, 0, 87, 0
1, 95100, Note_on_c, 0, 84, 80
1, 95100, Note_on_c, 0, 87, 80
1, 95159, Note_on_c, 0, 84, 0
1, 95159, Note_on_c, 0, 87, 0
1, 95160, Note_on_c, 0, 84, 80
1, 95160, Note_on_c, 0, 87, 80
1, 95219, Note_on_c, 0, 84, 0
1, 95219, Note_on_c, 0, 87, 0
1, 95220, Note_on_c, 0, 84, 80
1, 95220, Note_on_c, 0, 87, 80
1, 95279, Note_on_c, 0, 84, 0
1, 95279, Note_on_c, 0, 87, 0
1, 95280, Note_on_c, 0, 84, 80
1, 95280, Note_on_c, 0, 87, 80
1, 95339, Note_on_c, 0, 84, 0
1, 95339, Note_on_c, 0, 87, 0
1, 95340, Note_on_c, 0, 84, 80
1, 95340, Note_on_c, 0, 87, 80
1, 95399, Note_on_c, 0, 84, 0
1, 95399, Note_on_c, 0, 87, 0
1, 95400, Note_on_c, 0, 84, 80
1, 95400, Note_on_c, 0, 87, 80
1, 95459, Note_on_c, 0, 84, 0
1, 95459, Note_on_c, 0, 87, 0
1, 95460, Note_on_c, 0, 84, 80
1, 95460, Note_on_c, 0, 87, 80
1, 95519, Note_on_c, 0, 84, 0
1, 95519, Note_on_c, 0, 87, 0
1, 95520, Note_on_c, 0, 84, 80
1, 95520, Note_on_c, 0, 87, 80
1, 95579, Note_on_c, 0, 84, 0
1, 95579, Note_on_c, 0, 87, 0
1, 95580, Note_on_c, 0, 84, 80
1, 95580, Note_on_c, 0, 87, 80
1, 95639, Note_on_c, 0, 84, 0
1, 95639, Note_on_c, 0, 87, 0
1, 95640, Note_on_c, 0, 84, 80
1, 95640, Note_on_c, 0, 87, 80
1, 95699, Note_on_c, 0, 84, 0
1, 95699, Note_on_c, 0, 87, 0
1, 95700, Note_on_c, 0, 84, 80
1, 95700, Note_on_c, 0, 87, 80
1, 95759, Note_on_c, 0, 84, 0
1, 95759, Note_on_c, 0, 87, 0
1, 95760, Note_on_c, 0, 84, 80
1, 95760, Note_on_c, 0, 87, 80
1, 95819, Note_on_c, 0, 84, 0
1, 95819, Note_on_c, 0, 87, 0
1, 95820, Note_on_c, 0, 84, 80
1, 95820, Note_on_c, 0, 87, 80
1, 95879, Note_on_c, 0, 84, 0
1, 95879, Note_on_c, 0, 87, 0
1, 95880, Note_on_c, 0, 84, 80
1, 95880, Note_on_c, 0, 87, 80
1, 95939, Note_on_c, 0, 84, 0
1, 95939, Note_on_c, 0, 87, 0
1, 95940, Note_on_c, 0, 84, 80
1, 95940, Note_on_c, 0, 87, 80
1, 95999, Note_on_c, 0, 84, 0
1, 95999, Note_on_c, 0, 87, 0
1, 96000, Note_on_c, 0, 84, 80
1, 96000, Note_on_c, 0, 85, 80
1, 96059, Note_on_c, 0, 84, 0
1, 96059, Note_on_c, 0, 85, 0
1, 96060, Note_on_c, 0, 84, 80
1, 96060, Note_on_c, 0, 85, 80
1, 96119, Note_on_c, 0, 84, 0
1, 96119, Note_on_c, 0, 85, 0
1, 96120, Note_on_c, 0, 84, 80
1, 96120, Note_on_c, 0, 85, 80
1, 96179, Note_on_c, 0, 84, 0
1, 96179, Note_on_c, 0, 85, 0
1, 96180, Note_on_c, 0, 84, 80
1, 96180, Note_on_c, 0, 85, 80
1, 96239, Note_on_c, 0, 84, 0
1, 96239, Note_on_c, 0, 85, 0
1, 96240, Note_on_c, 0, 84, 80
1, 96240, Note_on_c, 0, 85, 80
1, 96299, Note_on_c, 0, 84, 0
1, 96299, Note_on_c, 0, 85, 0
1, 96300, Note_on_c, 0, 84, 80
1, 96300, Note_on_c, 0, 85, 80
1, 96359, Note_on_c, 0, 84, 0
1, 96359, Note_on_c, 0, 85, 0
1, 96360, Note_on_c, 0, 84, 80
1, 96360, Note_on_c, 0, 85, 80
1, 96419, Note_on_c, 0, 84, 0
1, 96419, Note_on_c, 0, 85, 0
1, 96420, Note_on_c, 0, 84, 80
1, 96420, Note_on_c, 0, 85, 80
1, 96479, Note_on_c, 0, 84, 0
1, 96479, Note_on_c, 0, 85, 0
1, 96480, Note_on_c, 0, 82, 80
1, 96480, Note_on_c, 0, 85, 80
1, 96539, Note_on_c, 0, 82, 0
1, 96539, Note_on_c, 0, 85, 0
1, 96540, Note_on_c, 0, 82, 80
1, 96540, Note_on_c, 0, 85, 80
1, 96599, Note_on_c, 0, 82, 0
1, 96599, Note_on_c, 0, 85, 0
1, 96600, Note_on_c, 0, 82, 80
1, 96600, Note_on_c, 0, 85, 80
1, 96659, Note_on_c, 0, 82, 0
1, 96659, Note_on_c, 0, 85, 0
1, 96660, Note_on_c, 0, 82, 80
1, 96660, Note_on_c, 0, 85, 80
1, 96719, Note_on_c, 0, 82, 0
1, 96719, Note_on_c, 0, 85, 0
1, 96720, Note_on_c, 0, 82, 80
1, 96720, Note_on_c, 0, 85, 80
1, 96779, Note_on_c, 0, 82, 0
1, 96779, Note_on_c, 0, 85, 0
1, 96780, Note_on_c, 0, 82, 80
1, 96780, Note_on_c, 0, 85, 80
1, 96839, Note_on_c, 0, 82, 0
1, 96839, Note_on_c, 0, 85, 0
1, 96840, Note_on_c, 0, 82, 80
1, 96840, Note_on_c, 0, 85, 80
1, 96899, Note_on_c, 0, 82, 0
1, 96899, Note_on_c, 0, 85, 0
1, 96900, Note_on_c, 0, 82, 80
1, 96900, Note_on_c, 0, 85, 80
1, 96959, Note_on_c, 0, 82, 0
1, 96959, Note_on_c, 0, 85, 0
1, 96960, Note_on_c, 0, 82, 80
1, 96960, Note_on_c, 0, 84, 80
1, 97019, Note_on_c, 0, 82, 0
1, 97019, Note_on_c, 0, 84, 0
1, 97020, Note_on_c, 0, 82, 80
1, 97020, Note_on_c, 0, 84, 80
1, 97079, Note_on_c, 0, 82, 0
1, 97079, Note_on_c, 0, 84, 0
1, 97080, Note_on_c, 0, 82, 80
1, 97080, Note_on_c, 0, 84, 80
1, 97139, Note_on_c, 0, 82, 0
1, 97139, Note_on_c, 0, 84, 0
1, 97140, Note_on_c, 0, 82, 80
1, 97140, Note_on_c, 0, 84, 80
1, 97199, Note_on_c, 0, 82, 0
1, 97199, Note_on_c, 0, 84, 0
1, 97200, Note_on_c, 0, 82, 80
1, 97200, Note_on_c, 0, 84, 80
1, 97259, Note_on_c, 0, 82, 0
1, 97259, Note_on_c, 0, 84, 0
1, 97260, Note_on_c, 0, 82, 80
1, 97260, Note_on_c, 0, 84, 80
1, 97319, Note_on_c, 0, 82, 0
1, 97319, Note_on_c, 0, 84, 0
1, 97320, Note_on_c, 0, 82, 80
1, 97320, Note_on_c, 0, 84, 80
1, 97379, Note_on_c, 0, 82, 0
1, 97379, Note_on_c, 0, 84, 0
1, 97380, Note_on_c, 0, 82, 80
1, 97380, Note_on_c, 0, 84, 80
1, 97439, Note_on_c, 0, 82, 0
1, 97439, Note_on_c, 0, 84, 0
1, 97440, Note_on_c, 0, 80, 80
1, 97440, Note_on_c, 0, 84, 80
1, 97499, Note_on_c, 0, 80, 0
1, 97499, Note_on_c, 0, 84, 0
1, 97500, Note_on_c, 0, 80, 80
1, 97500, Note_on_c, 0, 84, 80
1, 97559, Note_on_c, 0, 80, 0
1, 97559, Note_on_c, 0, 84, 0
1, 97560, Note_on_c, 0, 80, 80
1, 97560, Note_on_c, 0, 84, 80
1, 97619, Note_on_c, 0, 80, 0
1, 97619, Note_on_c, 0, 84, 0
1, 97620, Note_on_c, 0, 80, 80
1, 97620, Note_on_c, 0, 84, 80
1, 97679, Note_on_c, 0, 80, 0
1, 97679, Note_on_c, 0, 84, 0
1, 97680, Note_on_c, 0, 80, 80
1, 97680, Note_on_c, 0, 84, 80
1, 97739, Note_on_c, 0, 80, 0
1, 97739, Note_on_c, 0, 84, 0
1, 97740, Note_on_c, 0, 80, 80
1, 97740, Note_on_c, 0, 84, 80
1, 97799, Note_on_c, 0, 80, 0
1, 97799, Note_on_c, 0, 84, 0
1, 97800, Note_on_c, 0, 80, 80
1, 97800, Note_on_c, 0, 84, 80
1, 97859, Note_on_c, 0, 80, 0
1, 97859, Note_on_c, 0, 84, 0
1, 97860, Note_on_c, 0, 80, 80
1, 97860, Note_on_c, 0, 84, 80
1, 97919, Note_on_c, 0, 80, 0
1, 97919, Note_on_c, 0, 84, 0
1, 97920, Note_on_c, 0, 80, 80
1, 97920, Note_on_c, 0, 82, 80
1, 97979, Note_on_c, 0, 80, 0
1, 97979, Note_on_c, 0, 82, 0
1, 97980, Note_on_c, 0, 80, 80
1, 97980, Note_on_c, 0, 82, 80
1, 98039, Note_on_c, 0, 80, 0
1, 98039, Note_on_c, 0, 82, 0
1, 98040, Note_on_c, 0, 80, 80
1, 98040, Note_on_c, 0, 82, 80
1, 98099, Note_on_c, 0, 80, 0
1, 98099, Note_on_c, 0, 82, 0
1, 98100, Note_on_c, 0, 80, 80
1, 98100, Note_on_c, 0, 82, 80
1, 98159, Note_on_c, 0, 80, 0
1, 98159, Note_on_c, 0, 82, 0
1, 98160, Note_on_c, 0, 80, 80
1, 98160, Note_on_c, 0, 82, 80
1, 98219, Note_on_c, 0, 80, 0
1, 98219, Note_on_c, 0, 82, 0
1, 98220, Note_on_c, 0, 80, 80
1, 98220, Note_on_c, 0, 82, 80
1, 98279, Note_on_c, 0, 80, 0
1, 98279, Note_on_c, 0, 82, 0
1, 98280, Note_on_c, 0, 80, 80
1, 98280, Note_on_c, 0, 82, 80
1, 98339, Note_on_c, 0, 80, 0
1, 98339, Note_on_c, 0, 82, 0
1, 98340, Note_on_c, 0, 80, 80
1, 98340, Note_on_c, 0, 82, 80
1, 98399, Note_on_c, 0, 80, 0
1, 98399, Note_on_c, 0, 82, 0
1, 98400, Note_on_c, 0, 79, 80
1, 98400, Note_on_c, 0, 82, 80
1, 98459, Note_on_c, 0, 79, 0
1, 98459, Note_on_c, 0, 82, 0
1, 98460, Note_on_c, 0, 79, 80
1, 98460, Note_on_c, 0, 82, 80
1, 98519, Note_on_c, 0, 79, 0
1, 98519, Note_on_c, 0, 82, 0
1, 98520, Note_on_c, 0, 79, 80
1, 98520, Note_on_c, 0, 82, 80
1, 98579, Note_on_c, 0, 79, 0
1, 98579, Note_on_c, 0, 82, 0
1, 98580, Note_on_c, 0, 79, 80
1, 98580, Note_on_c, 0, 82, 80
1, 98639, Note_on_c, 0, 79, 0
1, 98639, Note_on_c, 0, 82, 0
1, 98640, Note_on_c, 0, 79, 80
1, 98640, Note_on_c, 0, 82, 80
1, 98699, Note_on_c, 0, 79, 0
1, 98699, Note_on_c, 0, 82, 0
1, 98700, Note_on_c, 0, 79, 80
1, 98700, Note_on_c, 0, 82, 80
1, 98759, Note_on_c, 0, 79, 0
1, 98759, Note_on_c, 0, 82, 0
1, 98760, Note_on_c, 0, 79, 80
1, 98760, Note_on_c, 0, 82, 80
1, 98819, Note_on_c, 0, 79, 0
1, 98819, Note_on_c, 0, 82, 0
1, 98820, Note_on_c, 0, 79, 80
1, 98820, Note_on_c, 0, 82, 80
1, 98879, Note_on_c, 0, 79, 0
1, 98879, Note_on_c, 0, 82, 0
1, 98880, Note_on_c, 0, 79, 80
1, 98880, Note_on_c, 0, 80, 80
1, 98939, Note_on_c, 0, 79, 0
1, 98939, Note_on_c, 0, 80, 0
1, 98940, Note_on_c, 0, 79, 80
1, 98940, Note_on_c, 0, 80, 80
1, 98999, Note_on_c, 0, 79, 0
1, 98999, Note_on_c, 0, 80, 0
1, 99000, Note_on_c, 0, 79, 80
1, 99000, Note_on_c, 0, 80, 80
1, 99059, Note_on_c, 0, 79, 0
1, 99059, Note_on_c, 0, 80, 0
1, 99060, Note_on_c, 0, 79, 80
1, 99060, Note_on_c, 0, 80, 80
1, 99119, Note_on_c, 0, 79, 0
1, 99119, Note_on_c, 0, 80, 0
1, 99120, Note_on_c, 0, 79, 80
1, 99120, Note_on_c, 0, 80, 80
1, 99179, Note_on_c, 0, 79, 0
1, 99179, Note_on_c, 0, 80, 0
1, 99180, Note_on_c, 0, 79, 80
1, 99180, Note_on_c, 0, 80, 80
1, 99239, Note_on_c, 0, 79, 0
1, 99239, Note_on_c, 0, 80, 0
1, 99240, Note_on_c, 0, 79, 80
1, 99240, Note_on_c, 0, 80, 80
1, 99299, Note_on_c, 0, 79, 0
1, 99299, Note_on_c, 0, 80, 0
1, 99300, Note_on_c, 0, 79, 80
1, 99300, Note_on_c, 0, 80, 80
1, 99359, Note_on_c, 0, 79, 0
1, 99359, Note_on_c, 0, 80, 0
1, 99360, Note_on_c, 0, 77, 80
1, 99360, Note_on_c, 0, 80, 80
1, 99419, Note_on_c, 0, 77, 0
1, 99419, Note_on_c, 0, 80, 0
1, 99420, Note_on_c, 0, 77, 80
1, 99420, Note_on_c, 0, 80, 80
1, 99479, Note_on_c, 0, 77, 0
1, 99479, Note_on_c, 0, 80, 0
1, 99480, Note_on_c, 0, 77, 80
1, 99480, Note_on_c, 0, 80, 80
1, 99539, Note_on_c, 0, 77, 0
1, 99539, Note_on_c, 0, 80, 0
1, 99540, Note_on_c, 0, 77, 80
1, 99540, Note_on_c, 0, 80, 80
1, 99599, Note_on_c, 0, 77, 0
1, 99599, Note_on_c, 0, 80, 0
1, 99600, Note_on_c, 0, 77, 80
1, 99600, Note_on_c, 0, 80, 80
1, 99659, Note_on_c, 0, 77, 0
1, 99659, Note_on_c, 0, 80, 0
1, 99660, Note_on_c, 0, 77, 80
1, 99660, Note_on_c, 0, 80, 80
1, 99719, Note_on_c, 0, 77, 0
1, 99719, Note_on_c, 0, 80, 0
1, 99720, Note_on_c, 0, 77, 80
1, 99720, Note_on_c, 0, 80, 80
1, 99779, Note_on_c, 0, 77, 0
1, 99779, Note_on_c, 0, 80, 0
1, 99780, Note_on_c, 0, 77, 80
1, 99780, Note_on_c, 0, 80, 80
1, 99839, Note_on_c, 0, 77, 0
1, 99839, Note_on_c, 0, 80, 0
1, 99840, Note_on_c, 0, 77, 80
1, 99840, Note_on_c, 0, 79, 80
1, 99899, Note_on_c, 0, 77, 0
1, 99899, Note_on_c, 0, 79, 0
1, 99900, Note_on_c, 0, 77, 80
1, 99900, Note_on_c, 0, 79, 80
1, 99959, Note_on_c, 0, 77, 0
1, 99959, Note_on_c, 0, 79, 0
1, 99960, Note_on_c, 0, 77, 80
1, 99960, Note_on_c, 0, 79, 80
1, 100019, Note_on_c, 0, 77, 0
1, 100019, Note_on_c, 0, 79, 0
1, 100020, Note_on_c, 0, 77, 80
1, 100020, Note_on_c, 0, 79, 80
1, 100079, Note_on_c, 0, 77, 0
1, 100079, Note_on_c, 0, 79, 0
1, 100080, Note_on_c, 0, 77, 80
1, 100080, Note_on_c, 0, 79, 80
1, 100139, Note_on_c, 0, 77, 0
1, 100139, Note_on_c, 0, 79, 0
1, 100140, Note_on_c, 0, 77, 80
1, 100140, Note_on_c, 0, 79, 80
1, 100199, Note_on_c, 0, 77, 0
1, 100199, Note_on_c, 0, 79, 0
1, 100200, Note_on_c, 0, 77, 80
1, 100200, Note_on_c, 0, 79, 80
1, 100259, Note_on_c, 0, 77, 0
1, 100259, Note_on_c, 0, 79, 0
1, 100260, Note_on_c, 0, 77, 80
1, 100260, Note_on_c, 0, 79, 80
1, 100319, Note_on_c, 0, 77, 0
1, 100319, Note_on_c, 0, 79, 0
1, 100320, Note_on_c, 0, 75, 80
1, 100320, Note_on_c, 0, 79, 80
1, 100379, Note_on_c, 0, 75, 0
1, 100379, Note_on_c, 0, 79, 0
1, 100380, Note_on_c, 0, 75, 80
1, 100380, Note_on_c, 0, 79, 80
1, 100439, Note_on_c, 0, 75, 0
1, 100439, Note_on_c, 0, 79, 0
1, 100440, Note_on_c, 0, 75, 80
1, 100440, Note_on_c, 0, 79, 80
1, 100499, Note_on_c, 0, 75, 0
1, 100499, Note_on_c, 0, 79, 0
1, 100500, Note_on_c, 0, 75, 80
1, 100500, Note_on_c, 0, 79, 80
1, 100559, Note_on_c, 0, 75, 0
1, 100559, Note_on_c, 0, 79, 0
1, 100560, Note_on_c, 0, 75, 80
1, 100560, Note_on_c, 0, 79, 80
1, 100619, Note_on_c, 0, 75, 0
1, 100619, Note_on_c, 0, 79, 0
1, 100620, Note_on_c, 0, 75, 80
1, 100620, Note_on_c, 0, 79, 80
1, 100679, Note_on_c, 0, 75, 0
1, 100679, Note_on_c, 0, 79, 0
1, 100680, Note_on_c, 0, 75, 80
1, 100680, Note_on_c, 0, 79, 80
1, 100739, Note_on_c, 0, 75, 0
1, 100739, Note_on_c, 0, 79, 0
1, 100740, Note_on_c, 0, 75, 80
1, 100740, Note_on_c, 0, 79, 80
1, 100799, Note_on_c, 0, 75, 0
1, 100799, Note_on_c, 0, 79, 0
1, 100800, Note_on_c, 0, 75, 80
1, 100800, Note_on_c, 0, 77, 80
1, 100859, Note_on_c, 0, 75, 0
1, 100859, Note_on_c, 0, 77, 0
1, 100860, Note_on_c, 0, 75, 80
1, 100860, Note_on_c, 0, 77, 80
1, 100919, Note_on_c, 0, 75, 0
1, 100919, Note_on_c, 0, 77, 0
1, 100920, Note_on_c, 0, 75, 80
1, 100920, Note_on_c, 0, 77, 80
1, 100979, Note_on_c, 0, 75, 0
1, 100979, Note_on_c, 0, 77, 0
1, 100980, Note_on_c, 0, 75, 80
1, 100980, Note_on_c, 0, 77, 80
1, 101039, Note_on_c, 0, 75, 0
1, 101039, Note_on_c, 0, 77, 0
1, 101040, Note_on_c, 0, 75, 80
1, 101040, Note_on_c, 0, 77, 80
1, 101099, Note_on_c, 0, 75, 0
1, 101099, Note_on_c, 0, 77, 0
1, 101100, Note_on_c, 0, 75, 80
1, 101100, Note_on_c, 0, 77, 80
1, 101159, Note_on_c, 0, 75, 0
1, 101159, Note_on_c, 0, 77, 0
1, 101160, Note_on_c, 0, 75, 80
1, 101160, Note_on_c, 0, 77, 80
1, 101219, Note_on_c, 0, 75, 0
1, 101219, Note_on_c, 0, 77, 0
1, 101220, Note_on_c, 0, 75, 80
1, 101220, Note_on_c, 0, 77, 80
1, 101279, Note_on_c, 0, 75, 0
1, 101279, Note_on_c, 0, 77, 0
1, 101280, Note_on_c, 0, 73, 80
1, 101280, Note_on_c, 0, 77, 80
1, 101339, Note_on_c, 0, 73, 0
1, 101339, Note_on_c, 0, 77, 0
1, 101340, Note_on_c, 0, 73, 80
1, 101340, Note_on_c, 0, 77, 80
1, 101399, Note_on_c, 0, 73, 0
1, 101399, Note_on_c, 0, 77, 0
1, 101400, Note_on_c, 0, 73, 80
1, 101400, Note_on_c, 0, 77, 80
1, 101459, Note_on_c, 0, 73, 0
1, 101459, Note_on_c, 0, 77, 0
1, 101460, Note_on_c, 0, 73, 80
1, 101460, Note_on_c, 0, 77, 80
1, 101519, Note_on_c, 0, 73, 0
1, 101519, Note_on_c, 0, 77, 0
1, 101520, Note_on_c, 0, 73, 80
1, 101520, Note_on_c, 0, 77, 80
1, 101579, Note_on_c, 0, 73, 0
1, 101579, Note_on_c, 0, 77, 0
1, 101580, Note_on_c, 0, 73, 80
1, 101580, Note_on_c, 0, 77, 80
1, 101639, Note_on_c, 0, 73, 0
1, 101639, Note_on_c, 0, 77, 0
1, 101640, Note_on_c, 0, 73, 80
1, 101640, Note_on_c, 0, 77, 80
1, 101699, Note_on_c, 0, 73, 0
1, 101699, Note_on_c, 0, 77, 0
1, 101700, Note_on_c, 0, 73, 80
1, 101700, Note_on_c, 0, 77, 80
1, 101759, Note_on_c, 0, 73, 0
1, 101759, Note_on_c, 0, 77, 0
1, 101760, Note_on_c, 0, 72, 80
1, 101760, Note_on_c, 0, 76, 80
1, 101819, Note_on_c, 0, 72, 0
1, 101819, Note_on_c, 0, 76, 0
1, 101820, Note_on_c, 0, 72, 80
1, 101820, Note_on_c, 0, 76, 80
1, 101879, Note_on_c, 0, 72, 0
1, 101879, Note_on_c, 0, 76, 0
1, 101880, Note_on_c, 0, 72, 80
1, 101880, Note_on_c, 0, 76, 80
1, 101939, Note_on_c, 0, 72, 0
1, 101939, Note_on_c, 0, 76, 0
1, 101940, Note_on_c, 0, 72, 80
1, 101940, Note_on_c, 0, 76, 80
1, 101999, Note_on_c, 0, 72, 0
1, 101999, Note_on_c, 0, 76, 0
1, 102000, Note_on_c, 0, 72, 80
1, 102000, Note_on_c, 0, 76, 80
1, 102059, Note_on_c, 0, 72, 0
1, 102059, Note_on_c, 0, 76, 0
1, 102060, Note_on_c, 0, 72, 80
1, 102060, Note_on_c, 0, 76, 80
1, 102119, Note_on_c, 0, 72, 0
1, 102119, Note_on_c, 0, 76, 0
1, 102120, Note_on_c, 0, 72, 80
1, 102120, Note_on_c, 0, 76, 80
1, 102179, Note_on_c, 0, 72, 0
1, 102179, Note_on_c, 0, 76, 0
1, 102180, Note_on_c, 0, 72, 80
1, 102180, Note_on_c, 0, 76, 80
1, 102239, Note_on_c, 0, 72, 0
1, 102239, Note_on_c, 0, 76, 0
1, 102240, Note_on_c, 0, 72, 80
1, 102240, Note_on_c, 0, 77, 80
1, 102299, Note_on_c, 0, 72, 0
1, 102299, Note_on_c, 0, 77, 0
1, 102300, Note_on_c, 0, 72, 80
1, 102300, Note_on_c, 0, 77, 80
1, 102359, Note_on_c, 0, 72, 0
1, 102359, Note_on_c, 0, 77, 0
1, 102360, Note_on_c, 0, 72, 80
1, 102360, Note_on_c, 0, 77, 80
1, 102419, Note_on_c, 0, 72, 0
1, 102419, Note_on_c, 0, 77, 0
1, 102420, Note_on_c, 0, 72, 80
1, 102420, Note_on_c, 0, 77, 80
1, 102479, Note_on_c, 0, 72, 0
1, 102479, Note_on_c, 0, 77, 0
1, 102480, Note_on_c, 0, 72, 80
1, 102480, Note_on_c, 0, 77, 80
1, 102539, Note_on_c, 0, 72, 0
1, 102539, Note_on_c, 0, 77, 0
1, 102540, Note_on_c, 0, 72, 80
1, 102540, Note_on_c, 0, 77, 80
1, 102599, Note_on_c, 0, 72, 0
1, 102599, Note_on_c, 0, 77, 0
1, 102600, Note_on_c, 0, 72, 80
1, 102600, Note_on_c, 0, 77, 80
1, 102659, Note_on_c, 0, 72, 0
1, 102659, Note_on_c, 0, 77, 0
1, 102660, Note_on_c, 0, 72, 80
1, 102660, Note_on_c, 0, 77, 80
1, 102719, Note_on_c, 0, 72, 0
1, 102719, Note_on_c, 0, 77, 0
1, 102720, Note_on_c, 0, 72, 80
1, 102720, Note_on_c, 0, 79, 80
1, 102779, Note_on_c, 0, 72, 0
1, 102779, Note_on_c, 0, 79, 0
1, 102780, Note_on_c, 0, 72, 80
1, 102780, Note_on_c, 0, 79, 80
1, 102839, Note_on_c, 0, 72, 0
1, 102839, Note_on_c, 0, 79, 0
1, 102840, Note_on_c, 0, 72, 80
1, 102840, Note_on_c, 0, 79, 80
1, 102899, Note_on_c, 0, 72, 0
1, 102899, Note_on_c, 0, 79, 0
1, 102900, Note_on_c, 0, 72, 80
1, 102900, Note_on_c, 0, 79, 80
1, 102959, Note_on_c, 0, 72, 0
1, 102959, Note_on_c, 0, 79, 0
1, 102960, Note_on_c, 0, 72, 80
1, 102960, Note_on_c, 0, 79, 80
1, 103019, Note_on_c, 0, 72, 0
1, 103019, Note_on_c, 0, 79, 0
1, 103020, Note_on_c, 0, 72, 80
1, 103020, Note_on_c, 0, 79, 80
1, 103079, Note_on_c, 0, 72, 0
1, 103079, Note_on_c, 0, 79, 0
1, 103080, Note_on_c, 0, 72, 80
1, 103080, Note_on_c, 0, 79, 80
1, 103139, Note_on_c, 0, 72, 0
1, 103139, Note_on_c, 0, 79, 0
1, 103140, Note_on_c, 0, 72, 80
1, 103140, Note_on_c, 0, 79, 80
1, 103199, Note_on_c, 0, 72, 0
1, 103199, Note_on_c, 0, 79, 0
1, 103200, Note_on_c, 0, 72, 80
1, 103200, Note_on_c, 0, 80, 80
1, 103259, Note_on_c, 0, 72, 0
1, 103259, Note_on_c, 0, 80, 0
1, 103260, Note_on_c, 0, 72, 80
1, 103260, Note_on_c, 0, 80, 80
1, 103319, Note_on_c, 0, 72, 0
1, 103319, Note_on_c, 0, 80, 0
1, 103320, Note_on_c, 0, 72, 80
1, 103320, Note_on_c, 0, 80, 80
1, 103379, Note_on_c, 0, 72, 0
1, 103379, Note_on_c, 0, 80, 0
1, 103380, Note_on_c, 0, 72, 80
1, 103380, Note_on_c, 0, 80, 80
1, 103439, Note_on_c, 0, 72, 0
1, 103439, Note_on_c, 0, 80, 0
1, 103440, Note_on_c, 0, 72, 80
1, 103440, Note_on_c, 0, 80, 80
1, 103499, Note_on_c, 0, 72, 0
1, 103499, Note_on_c, 0, 80, 0
1, 103500, Note_on_c, 0, 72, 80
1, 103500, Note_on_c, 0, 80, 80
1, 103559, Note_on_c, 0, 72, 0
1, 103559, Note_on_c, 0, 80, 0
1, 103560, Note_on_c, 0, 72, 80
1, 103560, Note_on_c, 0, 80, 80
1, 103619, Note_on_c, 0, 72, 0
1, 103619, Note_on_c, 0, 80, 0
1, 103620, Note_on_c, 0, 72, 80
1, 103620, Note_on_c, 0, 80, 80
1, 103679, Note_on_c, 0, 72, 0
1, 103679, Note_on_c, 0, 80, 0
1, 103680, Note_on_c, 0, 72, 80
1, 103680, Note_on_c, 0, 82, 80
1, 103739, Note_on_c, 0, 72, 0
1, 103739, Note_on_c, 0, 82, 0
1, 103740, Note_on_c, 0, 72, 80
1, 103740, Note_on_c, 0, 82, 80
1, 103799, Note_on_c, 0, 72, 0
1, 103799, Note_on_c, 0, 82, 0
1, 103800, Note_on_c, 0, 72, 80
1, 103800, Note_on_c, 0, 82, 80
1, 103859, Note_on_c, 0, 72, 0
1, 103859, Note_on_c, 0, 82, 0
1, 103860, Note_on_c, 0, 72, 80
1, 103860, Note_on_c, 0, 82, 80
1, 103919, Note_on_c, 0, 72, 0
1, 103919, Note_on_c, 0, 82, 0
1, 103920, Note_on_c, 0, 72, 80
1, 103920, Note_on_c, 0, 82, 80
1, 103979, Note_on_c, 0, 72, 0
1, 103979, Note_on_c, 0, 82, 0
1, 103980, Note_on_c, 0, 72, 80
1, 103980, Note_on_c, 0, 82, 80
1, 104039, Note_on_c, 0, 72, 0
1, 104039, Note_on_c, 0, 82, 0
1, 104040, Note_on_c, 0, 72, 80
1, 104040, Note_on_c, 0, 82, 80
1, 104099, Note_on_c, 0, 72, 0
1, 104099, Note_on_c, 0, 82, 0
1, 104100, Note_on_c, 0, 72, 80
1, 104100, Note_on_c, 0, 82, 80
1, 104159, Note_on_c, 0, 72, 0
1, 104159, Note_on_c, 0, 82, 0
1, 104160, Note_on_c, 0, 72, 80
1, 104160, Note_on_c, 0, 80, 80
1, 104219, Note_on_c, 0, 72, 0
1, 104219, Note_on_c, 0, 80, 0
1, 104220, Note_on_c, 0, 72, 80
1, 104220, Note_on_c, 0, 80, 80
1, 104279, Note_on_c, 0, 72, 0
1, 104279, Note_on_c, 0, 80, 0
1, 104280, Note_on_c, 0, 72, 80
1, 104280, Note_on_c, 0, 80, 80
1, 104339, Note_on_c, 0, 72, 0
1, 104339, Note_on_c, 0, 80, 0
1, 104340, Note_on_c, 0, 72, 80
1, 104340, Note_on_c, 0, 80, 80
1, 104399, Note_on_c, 0, 72, 0
1, 104399, Note_on_c, 0, 80, 0
1, 104400, Note_on_c, 0, 72, 80
1, 104400, Note_on_c, 0, 80, 80
1, 104459, Note_on_c, 0, 72, 0
1, 104459, Note_on_c, 0, 80, 0
1, 104460, Note_on_c, 0, 72, 80
1, 104460, Note_on_c, 0, 80, 80
1, 104519, Note_on_c, 0, 72, 0
1, 104519, Note_on_c, 0, 80, 0
1, 104520, Note_on_c, 0, 72, 80
1, 104520, Note_on_c, 0, 80, 80
1, 104579, Note_on_c, 0, 72, 0
1, 104579, Note_on_c, 0, 80, 0
1, 104580, Note_on_c, 0, 72, 80
1, 104580, Note_on_c, 0, 80, 80
1, 104639, Note_on_c, 0, 72, 0
1, 104639, Note_on_c, 0, 80, 0
1, 104640, Note_on_c, 0, 72, 80
1, 104640, Note_on_c, 0, 79, 80
1, 104699, Note_on_c, 0, 72, 0
1, 104699, Note_on_c, 0, 79, 0
1, 104700, Note_on_c, 0, 72, 80
1, 104700, Note_on_c, 0, 79, 80
1, 104759, Note_on_c, 0, 72, 0
1, 104759, Note_on_c, 0, 79, 0
1, 104760, Note_on_c, 0, 72, 80
1, 104760, Note_on_c, 0, 79, 80
1, 104819, Note_on_c, 0, 72, 0
1, 104819, Note_on_c, 0, 79, 0
1, 104820, Note_on_c, 0, 72, 80
1, 104820, Note_on_c, 0, 79, 80
1, 104879, Note_on_c, 0, 72, 0
1, 104879, Note_on_c, 0, 79, 0
1, 104880, Note_on_c, 0, 72, 80
1, 104880, Note_on_c, 0, 79, 80
1, 104939, Note_on_c, 0, 72, 0
1, 104939, Note_on_c, 0, 79, 0
1, 104940, Note_on_c, 0, 72, 80
1, 104940, Note_on_c, 0, 79, 80
1, 104999, Note_on_c, 0, 72, 0
1, 104999, Note_on_c, 0, 79, 0
1, 105000, Note_on_c, 0, 72, 80
1, 105000, Note_on_c, 0, 79, 80
1, 105059, Note_on_c, 0, 72, 0
1, 105059, Note_on_c, 0, 79, 0
1, 105060, Note_on_c, 0, 72, 80
1, 105060, Note_on_c, 0, 79, 80
1, 105119, Note_on_c, 0, 72, 0
1, 105119, Note_on_c, 0, 79, 0
1, 105120, Note_on_c, 0, 72, 80
1, 105120, Note_on_c, 0, 77, 80
1, 105179, Note_on_c, 0, 72, 0
1, 105179, Note_on_c, 0, 77, 0
1, 105180, Note_on_c, 0, 72, 80
1, 105180, Note_on_c, 0, 77, 80
1, 105239, Note_on_c, 0, 72, 0
1, 105239, Note_on_c, 0, 77, 0
1, 105240, Note_on_c, 0, 72, 80
1, 105240, Note_on_c, 0, 77, 80
1, 105299, Note_on_c, 0, 72, 0
1, 105299, Note_on_c, 0, 77, 0
1, 105300, Note_on_c, 0, 72, 80
1, 105300, Note_on_c, 0, 77, 80
1, 105359, Note_on_c, 0, 72, 0
1, 105359, Note_on_c, 0, 77, 0
1, 105360, Note_on_c, 0, 72, 80
1, 105360, Note_on_c, 0, 77, 80
1, 105419, Note_on_c, 0, 72, 0
1, 105419, Note_on_c, 0, 77, 0
1, 105420, Note_on_c, 0, 72, 80
1, 105420, Note_on_c, 0, 77, 80
1, 105479, Note_on_c, 0, 72, 0
1, 105479, Note_on_c, 0, 77, 0
1, 105480, Note_on_c, 0, 72, 80
1, 105480, Note_on_c, 0, 77, 80
1, 105539, Note_on_c, 0, 72, 0
1, 105539, Note_on_c, 0, 77, 0
1, 105540, Note_on_c, 0, 72, 80
1, 105540, Note_on_c, 0, 77, 80
1, 105599, Note_on_c, 0, 72, 0
1, 105599, Note_on_c, 0, 77, 0
1, 105600, Note_on_c, 0, 76, 112
1, 105600, Note_on_c, 0, 72, 112
1, 105719, Note_on_c, 0, 76, 0
1, 105719, Note_on_c, 0, 72, 0
1, 105720, Note_on_c, 0, 79, 112
1, 105779, Note_on_c, 0, 79, 0
1, 105780, Note_on_c, 0, 79, 112
1, 105839, Note_on_c, 0, 79, 0
1, 105840, Note_on_c, 0, 79, 112
1, 105899, Note_on_c, 0, 79, 0
1, 105900, Note_on_c, 0, 79, 112
1, 105959, Note_on_c, 0, 79, 0
1, 105960, Note_on_c, 0, 79, 112
1, 106019, Note_on_c, 0, 79, 0
1, 106020, Note_on_c, 0, 79, 112
1, 106079, Note_on_c, 0, 79, 0
1, 106080, Note_on_c, 0, 79, 112
1, 106199, Note_on_c, 0, 79, 0
1, 106200, Note_on_c, 0, 79, 112
1, 106319, Note_on_c, 0, 79, 0
1, 106320, Note_on_c, 0, 79, 112
1, 106439, Note_on_c, 0, 79, 0
1, 106440, Note_on_c, 0, 79, 112
1, 106559, Note_on_c, 0, 79, 0
1, 106560, Note_on_c, 0, 82, 112
1, 106679, Note_on_c, 0, 82, 0
1, 106680, Note_on_c, 0, 72, 112
1, 106799, Note_on_c, 0, 72, 0
1, 106800, Note_on_c, 0, 80, 112
1, 106919, Note_on_c, 0, 80, 0
1, 106920, Note_on_c, 0, 72, 112
1, 107039, Note_on_c, 0, 72, 0
1, 107040, Note_on_c, 0, 80, 112
1, 107159, Note_on_c, 0, 80, 0
1, 107160, Note_on_c, 0, 72, 112
1, 107279, Note_on_c, 0, 72, 0
1, 107280, Note_on_c, 0, 80, 112
1, 107399, Note_on_c, 0, 80, 0
1, 107400, Note_on_c, 0, 72, 112
1, 107519, Note_on_c, 0, 72, 0
1, 107520, Note_on_c, 0, 73, 112
1, 107639, Note_on_c, 0, 73, 0
1, 107640, Note_on_c, 0, 73, 112
1, 107699, Note_on_c, 0, 73, 0
1, 107700, Note_on_c, 0, 73, 112
1, 107759, Note_on_c, 0, 73, 0
1, 107760, Note_on_c, 0, 73, 112
1, 107819, Note_on_c, 0, 73, 0
1, 107820, Note_on_c, 0, 73, 112
1, 107879, Note_on_c, 0, 73, 0
1, 107880, Note_on_c, 0, 73, 112
1, 107939, Note_on_c, 0, 73, 0
1, 107940, Note_on_c, 0, 73, 112
1, 107999, Note_on_c, 0, 73, 0
1, 108000, Note_on_c, 0, 73, 112
1, 108119, Note_on_c, 0, 73, 0
1, 108120, Note_on_c, 0, 73, 112
1, 108239, Note_on_c, 0, 73, 0
1, 108240, Note_on_c, 0, 73, 112
1, 108359, Note_on_c, 0, 73, 0
1, 108360, Note_on_c, 0, 73, 112
1, 108479, Note_on_c, 0, 73, 0
1, 108480, Note_on_c, 0, 79, 112
1, 108599, Note_on_c, 0, 79, 0
1, 108600, Note_on_c, 0, 73, 112
1, 108719, Note_on_c, 0, 73, 0
1, 108720, Note_on_c, 0, 79, 112
1, 108839, Note_on_c, 0, 79, 0
1, 108840, Note_on_c, 0, 73, 112
1, 108959, Note_on_c, 0, 73, 0
1, 108960, Note_on_c, 0, 79, 112
1, 109079, Note_on_c, 0, 79, 0
1, 109080, Note_on_c, 0, 73, 112
1, 109199, Note_on_c, 0, 73, 0
1, 109200, Note_on_c, 0, 79, 112
1, 109319, Note_on_c, 0, 79, 0
1, 109320, Note_on_c, 0, 73, 112
1, 109439, Note_on_c, 0, 73, 0
1, 109440, Note_on_c, 0, 72, 112
1, 109559, Note_on_c, 0, 72, 0
1, 109560, Note_on_c, 0, 72, 112
1, 109619, Note_on_c, 0, 72, 0
1, 109620, Note_on_c, 0, 72, 112
1, 109679, Note_on_c, 0, 72, 0
1, 109680, Note_on_c, 0, 72, 112
1, 109739, Note_on_c, 0, 72, 0
1, 109740, Note_on_c, 0, 72, 112
1, 109799, Note_on_c, 0, 72, 0
1, 109800, Note_on_c, 0, 72, 112
1, 109859, Note_on_c, 0, 72, 0
1, 109860, Note_on_c, 0, 72, 112
1, 109919, Note_on_c, 0, 72, 0
1, 109920, Note_on_c, 0, 72, 112
1, 110039, Note_on_c, 0, 72, 0
1, 110040, Note_on_c, 0, 72, 112
1, 110159, Note_on_c, 0, 72, 0
1, 110160, Note_on_c, 0, 72, 112
1, 110279, Note_on_c, 0, 72, 0
1, 110280, Note_on_c, 0, 72, 112
1, 110399, Note_on_c, 0, 72, 0
1, 110400, Note_on_c, 0, 77, 112
1, 110519, Note_on_c, 0, 77, 0
1, 110520, Note_on_c, 0, 72, 112
1, 110639, Note_on_c, 0, 72, 0
1, 110640, Note_on_c, 0, 77, 112
1, 110759, Note_on_c, 0, 77, 0
1, 110760, Note_on_c, 0, 72, 112
1, 110879, Note_on_c, 0, 72, 0
1, 110880, Note_on_c, 0, 77, 112
1, 110999, Note_on_c, 0, 77, 0
1, 111000, Note_on_c, 0, 72, 112
1, 111119, Note_on_c, 0, 72, 0
1, 111120, Note_on_c, 0, 77, 112
1, 111239, Note_on_c, 0, 77, 0
1, 111240, Note_on_c, 0, 72, 112
1, 111359, Note_on_c, 0, 72, 0
1, 111360, Note_on_c, 0, 70, 112
1, 111479, Note_on_c, 0, 70, 0
1, 111480, Note_on_c, 0, 70, 112
1, 111539, Note_on_c, 0, 70, 0
1, 111540, Note_on_c, 0, 70, 112
1, 111599, Note_on_c, 0, 70, 0
1, 111600, Note_on_c, 0, 70, 112
1, 111659, Note_on_c, 0, 70, 0
1, 111660, Note_on_c, 0, 70, 112
1, 111719, Note_on_c, 0, 70, 0
1, 111720, Note_on_c, 0, 70, 112
1, 111779, Note_on_c, 0, 70, 0
1, 111780, Note_on_c, 0, 70, 112
1, 111839, Note_on_c, 0, 70, 0
1, 111840, Note_on_c, 0, 70, 112
1, 111959, Note_on_c, 0, 70, 0
1, 111960, Note_on_c, 0, 70, 112
1, 112079, Note_on_c, 0, 70, 0
1, 112080, Note_on_c, 0, 70, 112
1, 112199, Note_on_c, 0, 70, 0
1, 112200, Note_on_c, 0, 70, 112
1, 112319, Note_on_c, 0, 70, 0
1, 112320, Note_on_c, 0, 76, 112
1, 112379, Note_on_c, 0, 76, 0
1, 112380, Note_on_c, 0, 79, 112
1, 112439, Note_on_c, 0, 79, 0
1, 112440, Note_on_c, 0, 82, 112
1, 112499, Note_on_c, 0, 82, 0
1, 112500, Note_on_c, 0, 79, 112
1, 112559, Note_on_c, 0, 79, 0
1, 112560, Note_on_c, 0, 76, 112
1, 112619, Note_on_c, 0, 76, 0
1, 112620, Note_on_c, 0, 79, 112
1, 112679, Note_on_c, 0, 79, 0
1, 112680, Note_on_c, 0, 82, 112
1, 112739, Note_on_c, 0, 82, 0
1, 112740, Note_on_c, 0, 79, 112
1, 112799, Note_on_c, 0, 79, 0
1, 112800, Note_on_c, 0, 76, 112
1, 112859, Note_on_c, 0, 76, 0
1, 112860, Note_on_c, 0, 79, 112
1, 112919, Note_on_c, 0, 79, 0
1, 112920, Note_on_c, 0, 82, 112
1, 112979, Note_on_c, 0, 82, 0
1, 112980, Note_on_c, 0, 79, 112
1, 113039, Note_on_c, 0, 79, 0
1, 113040, Note_on_c, 0, 76, 112
1, 113099, Note_on_c, 0, 76, 0
1, 113100, Note_on_c, 0, 79, 112
1, 113159, Note_on_c, 0, 79, 0
1, 113160, Note_on_c, 0, 82, 112
1, 113219, Note_on_c, 0, 82, 0
1, 113220, Note_on_c, 0, 79, 112
1, 113279, Note_on_c, 0, 79, 0
1, 113280, Note_on_c, 0, 80, 112
1, 113399, Note_on_c, 0, 80, 0
1, 113400, Note_on_c, 0, 80, 112
1, 113459, Note_on_c, 0, 80, 0
1, 113460, Note_on_c, 0, 80, 112
1, 113519, Note_on_c, 0, 80, 0
1, 113520, Note_on_c, 0, 80, 112
1, 113579, Note_on_c, 0, 80, 0
1, 113580, Note_on_c, 0, 80, 112
1, 113639, Note_on_c, 0, 80, 0
1, 113640, Note_on_c, 0, 80, 112
1, 113699, Note_on_c, 0, 80, 0
1, 113700, Note_on_c, 0, 80, 112
1, 113759, Note_on_c, 0, 80, 0
1, 113760, Note_on_c, 0, 80, 112
1, 113879, Note_on_c, 0, 80, 0
1, 113880, Note_on_c, 0, 80, 112
1, 113999, Note_on_c, 0, 80, 0
1, 114000, Note_on_c, 0, 80, 112
1, 114119, Note_on_c, 0, 80, 0
1, 114120, Note_on_c, 0, 80, 112
1, 114239, Note_on_c, 0, 80, 0
1, 114240, Note_on_c, 0, 79, 112
1, 114359, Note_on_c, 0, 79, 0
1, 114360, Note_on_c, 0, 79, 112
1, 114419, Note_on_c, 0, 79, 0
1, 114420, Note_on_c, 0, 79, 112
1, 114479, Note_on_c, 0, 79, 0
1, 114480, Note_on_c, 0, 79, 112
1, 114539, Note_on_c, 0, 79, 0
1, 114540, Note_on_c, 0, 79, 112
1, 114599, Note_on_c, 0, 79, 0
1, 114600, Note_on_c, 0, 79, 112
1, 114659, Note_on_c, 0, 79, 0
1, 114660, Note_on_c, 0, 79, 112
1, 114719, Note_on_c, 0, 79, 0
1, 114720, Note_on_c, 0, 79, 112
1, 114839, Note_on_c, 0, 79, 0
1, 114840, Note_on_c, 0, 79, 112
1, 114959, Note_on_c, 0, 79, 0
1, 114960, Note_on_c, 0, 79, 112
1, 115079, Note_on_c, 0, 79, 0
1, 115080, Note_on_c, 0, 79, 112
1, 115199, Note_on_c, 0, 79, 0
1, 115200, Note_on_c, 0, 79, 112
1, 115319, Note_on_c, 0, 79, 0
1, 115320, Note_on_c, 0, 79, 112
1, 115379, Note_on_c, 0, 79, 0
1, 115380, Note_on_c, 0, 79, 112
1, 115439, Note_on_c, 0, 79, 0
1, 115440, Note_on_c, 0, 79, 112
1, 115499, Note_on_c, 0, 79, 0
1, 115500, Note_on_c, 0, 79, 112
1, 115559, Note_on_c, 0, 79, 0
1, 115560, Note_on_c, 0, 79, 112
1, 115619, Note_on_c, 0, 79, 0
1, 115620, Note_on_c, 0, 79, 112
1, 115679, Note_on_c, 0, 79, 0
1, 115680, Note_on_c, 0, 79, 112
1, 115799, Note_on_c, 0, 79, 0
1, 115800, Note_on_c, 0, 79, 112
1, 115919, Note_on_c, 0, 79, 0
1, 115920, Note_on_c, 0, 79, 112
1, 116039, Note_on_c, 0, 79, 0
1, 116040, Note_on_c, 0, 79, 112
1, 116159, Note_on_c, 0, 79, 0
1, 116160, Note_on_c, 0, 77, 112
1, 116279, Note_on_c, 0, 77, 0
1, 116280, Note_on_c, 0, 68, 112
1, 116339, Note_on_c, 0, 68, 0
1, 116340, Note_on_c, 0, 68, 112
1, 116399, Note_on_c, 0, 68, 0
1, 116400, Note_on_c, 0, 68, 112
1, 116459, Note_on_c, 0, 68, 0
1, 116460, Note_on_c, 0, 68, 112
1, 116519, Note_on_c, 0, 68, 0
1, 116520, Note_on_c, 0, 68, 112
1, 116579, Note_on_c, 0, 68, 0
1, 116580, Note_on_c, 0, 68, 112
1, 116639, Note_on_c, 0, 68, 0
1, 116640, Note_on_c, 0, 68, 112
1, 116759, Note_on_c, 0, 68, 0
1, 116760, Note_on_c, 0, 68, 112
1, 116879, Note_on_c, 0, 68, 0
1, 116880, Note_on_c, 0, 68, 112
1, 116999, Note_on_c, 0, 68, 0
1, 117000, Note_on_c, 0, 68, 112
1, 117119, Note_on_c, 0, 68, 0
1, 117120, Note_on_c, 0, 67, 112
1, 117239, Note_on_c, 0, 67, 0
1, 117240, Note_on_c, 0, 67, 112
1, 117299, Note_on_c, 0, 67, 0
1, 117300, Note_on_c, 0, 67, 112
1, 117359, Note_on_c, 0, 67, 0
1, 117360, Note_on_c, 0, 67, 112
1, 117419, Note_on_c, 0, 67, 0
1, 117420, Note_on_c, 0, 67, 112
1, 117479, Note_on_c, 0, 67, 0
1, 117480, Note_on_c, 0, 67, 112
1, 117539, Note_on_c, 0, 67, 0
1, 117540, Note_on_c, 0, 67, 112
1, 117599, Note_on_c, 0, 67, 0
1, 117600, Note_on_c, 0, 67, 112
1, 117719, Note_on_c, 0, 67, 0
1, 117720, Note_on_c, 0, 67, 112
1, 117839, Note_on_c, 0, 67, 0
1, 117840, Note_on_c, 0, 67, 112
1, 117959, Note_on_c, 0, 67, 0
1, 117960, Note_on_c, 0, 67, 112
1, 118079, Note_on_c, 0, 67, 0
1, 118080, Note_on_c, 0, 67, 112
1, 118199, Note_on_c, 0, 67, 0
1, 118200, Note_on_c, 0, 67, 112
1, 118259, Note_on_c, 0, 67, 0
1, 118260, Note_on_c, 0, 67, 112
1, 118319, Note_on_c, 0, 67, 0
1, 118320, Note_on_c, 0, 67, 112
1, 118379, Note_on_c, 0, 67, 0
1, 118380, Note_on_c, 0, 67, 112
1, 118439, Note_on_c, 0, 67, 0
1, 118440, Note_on_c, 0, 67, 112
1, 118499, Note_on_c, 0, 67, 0
1, 118500, Note_on_c, 0, 67, 112
1, 118559, Note_on_c, 0, 67, 0
1, 118560, Note_on_c, 0, 67, 112
1, 118679, Note_on_c, 0, 67, 0
1, 118680, Note_on_c, 0, 67, 112
1, 118799, Note_on_c, 0, 67, 0
1, 118800, Note_on_c, 0, 67, 112
1, 118919, Note_on_c, 0, 67, 0
1, 118920, Note_on_c, 0, 67, 112
1, 119039, Note_on_c, 0, 67, 0
1, 119040, Note_on_c, 0, 65, 112
1, 120959, Note_on_c, 0, 65, 0
1, 122880, Key_signature, -3, "major"
1, 122880, Tempo, 2000000
1, 122880, Note_on_c, 0, 75, 80
1, 123119, Note_on_c, 0, 75, 0
1, 123120, Note_on_c, 0, 82, 80
1, 123239, Note_on_c, 0, 82, 0
1, 123240, Note_on_c, 0, 80, 80
1, 123359, Note_on_c, 0, 80, 0
1, 123360, Note_on_c, 0, 79, 80
1, 123599, Note_on_c, 0, 79, 0
1, 123600, Note_on_c, 0, 77, 80
1, 123719, Note_on_c, 0, 77, 0
1, 123720, Note_on_c, 0, 75, 80
1, 123839, Note_on_c, 0, 75, 0
1, 123840, Note_on_c, 0, 77, 80
1, 124079, Note_on_c, 0, 77, 0
1, 124080, Note_on_c, 0, 70, 80
1, 124319, Note_on_c, 0, 70, 0
1, 124560, Note_on_c, 0, 70, 80
1, 124799, Note_on_c, 0, 70, 0
1, 124800, Note_on_c, 0, 80, 80
1, 124919, Note_on_c, 0, 80, 0
1, 124920, Note_on_c, 0, 79, 80
1, 125039, Note_on_c, 0, 79, 0
1, 125040, Note_on_c, 0, 77, 80
1, 125159, Note_on_c, 0, 77, 0
1, 125160, Note_on_c, 0, 75, 80
1, 125279, Note_on_c, 0, 75, 0
1, 125280, Note_on_c, 0, 74, 80
1, 125519, Note_on_c, 0, 74, 0
1, 125520, Note_on_c, 0, 80, 80
1, 125759, Note_on_c, 0, 80, 0
1, 125760, Note_on_c, 0, 80, 80
1, 125999, Note_on_c, 0, 80, 0
1, 126000, Note_on_c, 0, 79, 80
1, 126239, Note_on_c, 0, 79, 0
1, 126480, Note_on_c, 0, 79, 80
1, 126719, Note_on_c, 0, 79, 0
1, 126720, Note_on_c, 0, 77, 80
1, 126959, Note_on_c, 0, 77, 0
1, 126960, Note_on_c, 0, 79, 80
1, 127079, Note_on_c, 0, 79, 0
1, 127080, Note_on_c, 0, 80, 80
1, 127199, Note_on_c, 0, 80, 0
1, 127200, Note_on_c, 0, 82, 80
1, 127439, Note_on_c, 0, 82, 0
1, 127440, Note_on_c, 0, 84, 80
1, 127559, Note_on_c, 0, 84, 0
1, 127560, Note_on_c, 0, 86, 80
1, 127679, Note_on_c, 0, 86, 0
1, 127680, Note_on_c, 0, 75, 80
1, 127919, Note_on_c, 0, 75, 0
1, 127920, Note_on_c, 0, 77, 80
1, 128039, Note_on_c, 0, 77, 0
1, 128040, Note_on_c, 0, 79, 80
1, 128159, Note_on_c, 0, 79, 0
1, 128160, Note_on_c, 0, 80, 80
1, 128399, Note_on_c, 0, 80, 0
1, 128400, Note_on_c, 0, 82, 80
1, 128519, Note_on_c, 0, 82, 0
1, 128520, Note_on_c, 0, 84, 80
1, 128639, Note_on_c, 0, 84, 0
1, 128640, Note_on_c, 0, 74, 80
1, 128879, Note_on_c, 0, 74, 0
1, 128880, Note_on_c, 0, 75, 80
1, 128999, Note_on_c, 0, 75, 0
1, 129000, Note_on_c, 0, 77, 80
1, 129119, Note_on_c, 0, 77, 0
1, 129120, Note_on_c, 0, 79, 80
1, 129359, Note_on_c, 0, 79, 0
1, 129360, Note_on_c, 0, 80, 80
1, 129479, Note_on_c, 0, 80, 0
1, 129480, Note_on_c, 0, 82, 80
1, 129599, Note_on_c, 0, 82, 0
1, 129600, Note_on_c, 0, 72, 80
1, 129839, Note_on_c, 0, 72, 0
1, 129840, Note_on_c, 0, 74, 80
1, 129959, Note_on_c, 0, 74, 0
1, 129960, Note_on_c, 0, 75, 80
1, 130079, Note_on_c, 0, 75, 0
1, 130080, Note_on_c, 0, 77, 80
1, 130319, Note_on_c, 0, 77, 0
1, 130320, Note_on_c, 0, 79, 80
1, 130439, Note_on_c, 0, 79, 0
1, 130440, Note_on_c, 0, 75, 80
1, 130559, Note_on_c, 0, 75, 0
1, 130560, Note_on_c, 0, 74, 80
1, 131159, Note_on_c, 0, 74, 0
1, 131160, Note_on_c, 0, 70, 80
1, 131279, Note_on_c, 0, 70, 0
1, 131280, Note_on_c, 0, 69, 80
1, 131399, Note_on_c, 0, 69, 0
1, 131400, Note_on_c, 0, 70, 80
1, 131519, Note_on_c, 0, 70, 0
1, 131520, Note_on_c, 0, 77, 80
1, 132119, Note_on_c, 0, 77, 0
1, 132120, Note_on_c, 0, 70, 80
1, 132239, Note_on_c, 0, 70, 0
1, 132240, Note_on_c, 0, 69, 80
1, 132359, Note_on_c, 0, 69, 0
1, 132360, Note_on_c, 0, 70, 80
1, 132479, Note_on_c, 0, 70, 0
1, 132480, Note_on_c, 0, 79, 80
1, 133079, Note_on_c, 0, 79, 0
1, 133080, Note_on_c, 0, 70, 80
1, 133199, Note_on_c, 0, 70, 0
1, 133200, Note_on_c, 0, 69, 80
1, 133319, Note_on_c, 0, 69, 0
1, 133320, Note_on_c, 0, 70, 80
1, 133439, Note_on_c, 0, 70, 0
1, 133440, Note_on_c, 0, 81, 80
1, 134039, Note_on_c, 0, 81, 0
1, 134040, Note_on_c, 0, 77, 80
1, 134159, Note_on_c, 0, 77, 0
1, 134160, Note_on_c, 0, 75, 80
1, 134279, Note_on_c, 0, 75, 0
1, 134280, Note_on_c, 0, 77, 80
1, 134399, Note_on_c, 0, 77, 0
1, 134400, Note_on_c, 0, 82, 80
1, 134639, Note_on_c, 0, 82, 0
1, 134640, Note_on_c, 0, 70, 80
1, 134879, Note_on_c, 0, 70, 0
1, 135120, Note_on_c, 0, 82, 80
1, 135359, Note_on_c, 0, 82, 0
1, 135360, Note_on_c, 0, 82, 80
1, 135479, Note_on_c, 0, 82, 0
1, 135480, Note_on_c, 0, 81, 80
1, 135599, Note_on_c, 0, 81, 0
1, 135600, Note_on_c, 0, 79, 80
1, 135719, Note_on_c, 0, 79, 0
1, 135720, Note_on_c, 0, 77, 80
1, 135839, Note_on_c, 0, 77, 0
1, 135840, Note_on_c, 0, 75, 80
1, 135959, Note_on_c, 0, 75, 0
1, 135960, Note_on_c, 0, 74, 80
1, 136079, Note_on_c, 0, 74, 0
1, 136080, Note_on_c, 0, 72, 80
1, 136199, Note_on_c, 0, 72, 0
1, 136200, Note_on_c, 0, 70, 80
1, 136319, Note_on_c, 0, 70, 0
1, 136320, Note_on_c, 0, 72, 80
1, 137039, Note_on_c, 0, 72, 0
1, 137040, Note_on_c, 0, 70, 80
1, 137279, Note_on_c, 0, 70, 0
1, 137280, Note_on_c, 0, 70, 80
1, 137759, Note_on_c, 0, 70, 0
1, 138240, Note_on_c, 0, 70, 80
1, 138479, Note_on_c, 0, 70, 0
1, 138480, Note_on_c, 0, 77, 80
1, 138599, Note_on_c, 0, 77, 0
1, 138600, Note_on_c, 0, 75, 80
1, 138719, Note_on_c, 0, 75, 0
1, 138720, Note_on_c, 0, 74, 80
1, 138959, Note_on_c, 0, 74, 0
1, 138960, Note_on_c, 0, 72, 80
1, 139079, Note_on_c, 0, 72, 0
1, 139080, Note_on_c, 0, 70, 80
1, 139199, Note_on_c, 0, 70, 0
1, 139200, Note_on_c, 0, 72, 80
1, 139439, Note_on_c, 0, 72, 0
1, 139440, Note_on_c, 0, 65, 80
1, 139679, Note_on_c, 0, 65, 0
1, 139920, Note_on_c, 0, 65, 80
1, 140159, Note_on_c, 0, 65, 0
1, 140160, Note_on_c, 0, 75, 80
1, 140279, Note_on_c, 0, 75, 0
1, 140280, Note_on_c, 0, 74, 80
1, 140399, Note_on_c, 0, 74, 0
1, 140400, Note_on_c, 0, 72, 80
1, 140519, Note_on_c, 0, 72, 0
1, 140520, Note_on_c, 0, 70, 80
1, 140639, Note_on_c, 0, 70, 0
1, 140640, Note_on_c, 0, 69, 80
1, 140879, Note_on_c, 0, 69, 0
1, 140880, Note_on_c, 0, 75, 80
1, 141119, Note_on_c, 0, 75, 0
1, 141120, Note_on_c, 0, 75, 80
1, 141359, Note_on_c, 0, 75, 0
1, 141360, Note_on_c, 0, 74, 80
1, 141599, Note_on_c, 0, 74, 0
1, 141840, Note_on_c, 0, 70, 80
1, 142079, Note_on_c, 0, 70, 0
1, 142080, Note_on_c, 0, 80, 80
1, 142199, Note_on_c, 0, 80, 0
1, 142200, Note_on_c, 0, 79, 80
1, 142319, Note_on_c, 0, 79, 0
1, 142320, Note_on_c, 0, 77, 80
1, 142439, Note_on_c, 0, 77, 0
1, 142440, Note_on_c, 0, 75, 80
1, 142559, Note_on_c, 0, 75, 0
1, 142560, Note_on_c, 0, 74, 80
1, 142799, Note_on_c, 0, 74, 0
1, 142800, Note_on_c, 0, 80, 80
1, 143039, Note_on_c, 0, 80, 0
1, 143040, Note_on_c, 0, 80, 80
1, 143279, Note_on_c, 0, 80, 0
1, 143280, Note_on_c, 0, 79, 80
1, 143519, Note_on_c, 0, 79, 0
1, 143760, Note_on_c, 0, 79, 80
1, 143999, Note_on_c, 0, 79, 0
1, 144000, Note_on_c, 0, 72, 80
1, 144239, Note_on_c, 0, 72, 0
1, 144240, Note_on_c, 0, 74, 80
1, 144359, Note_on_c, 0, 74, 0
1, 144360, Note_on_c, 0, 75, 80
1, 144479, Note_on_c, 0, 75, 0
1, 144480, Note_on_c, 0, 77, 80
1, 144719, Note_on_c, 0, 77, 0
1, 144720, Note_on_c, 0, 79, 80
1, 144839, Note_on_c, 0, 79, 0
1, 144840, Note_on_c, 0, 80, 80
1, 144959, Note_on_c, 0, 80, 0
1, 144960, Note_on_c, 0, 74, 80
1, 145199, Note_on_c, 0, 74, 0
1, 145200, Note_on_c, 0, 75, 80
1, 145319, Note_on_c, 0, 75, 0
1, 145320, Note_on_c, 0, 77, 80
1, 145439, Note_on_c, 0, 77, 0
1, 145440, Note_on_c, 0, 79, 80
1, 145679, Note_on_c, 0, 79, 0
1, 145680, Note_on_c, 0, 80, 80
1, 145799, Note_on_c, 0, 80, 0
1, 145800, Note_on_c, 0, 82, 80
1, 145919, Note_on_c, 0, 82, 0
1, 145920, Note_on_c, 0, 75, 80
1, 146159, Note_on_c, 0, 75, 0
1, 146160, Note_on_c, 0, 77, 80
1, 146279, Note_on_c, 0, 77, 0
1, 146280, Note_on_c, 0, 79, 80
1, 146399, Note_on_c, 0, 79, 0
1, 146400, Note_on_c, 0, 80, 80
1, 146639, Note_on_c, 0, 80, 0
1, 146640, Note_on_c, 0, 82, 80
1, 146759, Note_on_c, 0, 82, 0
1, 146760, Note_on_c, 0, 84, 80
1, 146879, Note_on_c, 0, 84, 0
1, 146880, Note_on_c, 0, 74, 80
1, 147359, Note_on_c, 0, 74, 0
1, 147600, Note_on_c, 0, 74, 80
1, 147719, Note_on_c, 0, 74, 0
1, 147720, Note_on_c, 0, 75, 80
1, 147839, Note_on_c, 0, 75, 0
1, 147840, Note_on_c, 0, 77, 80
1, 147959, Note_on_c, 0, 77, 0
1, 147960, Note_on_c, 0, 74, 80
1, 148079, Note_on_c, 0, 74, 0
1, 148080, Note_on_c, 0, 72, 80
1, 148199, Note_on_c, 0, 72, 0
1, 148200, Note_on_c, 0, 70, 80
1, 148319, Note_on_c, 0, 70, 0
1, 148320, Note_on_c, 0, 79, 80
1, 148439, Note_on_c, 0, 79, 0
1, 148440, Note_on_c, 0, 80, 80
1, 148559, Note_on_c, 0, 80, 0
1, 148560, Note_on_c, 0, 82, 80
1, 148679, Note_on_c, 0, 82, 0
1, 148680, Note_on_c, 0, 79, 80
1, 148799, Note_on_c, 0, 79, 0
1, 148800, Note_on_c, 0, 77, 80
1, 149039, Note_on_c, 0, 77, 0
1, 149040, Note_on_c, 0, 70, 80
1, 149279, Note_on_c, 0, 70, 0
1, 149520, Note_on_c, 0, 74, 49
1, 149639, Note_on_c, 0, 74, 0
1, 149640, Note_on_c, 0, 75, 49
1, 149759, Note_on_c, 0, 75, 0
1, 149760, Note_on_c, 0, 77, 49
1, 149879, Note_on_c, 0, 77, 0
1, 149880, Note_on_c, 0, 74, 49
1, 149999, Note_on_c, 0, 74, 0
1, 150000, Note_on_c, 0, 72, 49
1, 150119, Note_on_c, 0, 72, 0
1, 150120, Note_on_c, 0, 70, 49
1, 150239, Note_on_c, 0, 70, 0
1, 150240, Note_on_c, 0, 79, 49
1, 150359, Note_on_c, 0, 79, 0
1, 150360, Note_on_c, 0, 80, 49
1, 150479, Note_on_c, 0, 80, 0
1, 150480, Note_on_c, 0, 82, 49
1, 150599, Note_on_c, 0, 82, 0
1, 150600, Note_on_c, 0, 79, 49
1, 150719, Note_on_c, 0, 79, 0
1, 150720, Note_on_c, 0, 77, 49
1, 150959, Note_on_c, 0, 77, 0
1, 150960, Note_on_c, 0, 70, 49
1, 151199, Note_on_c, 0, 70, 0
1, 151440, Note_on_c, 0, 77, 96
1, 151559, Note_on_c, 0, 77, 0
1, 151560, Note_on_c, 0, 82, 96
1, 151679, Note_on_c, 0, 82, 0
1, 151680, Note_on_c, 0, 79, 96
1, 151919, Note_on_c, 0, 79, 0
1, 151920, Note_on_c, 0, 77, 96
1, 152039, Note_on_c, 0, 77, 0
1, 152040, Note_on_c, 0, 75, 96
1, 152159, Note_on_c, 0, 75, 0
1, 152160, Note_on_c, 0, 74, 96
1, 152519, Note_on_c, 0, 74, 0
1, 152520, Note_on_c, 0, 75, 96
1, 152639, Note_on_c, 0, 75, 0
1, 152640, Note_on_c, 0, 75, 96
1, 155519, Note_on_c, 0, 75, 0
1, 155520, Note_on_c, 0, 75, 96
1, 157439, Note_on_c, 0, 75, 0
1, 159360, Time_signature, 3, 3, 24, 8
1, 159360, Key_signature, -4, "major"
1, 159360, Tempo, 750002
1, 159360, Note_on_c, 0, 72, 96
1, 159479, Note_on_c, 0, 72, 0
1, 159480, Note_on_c, 0, 80, 96
1, 159599, Note_on_c, 0, 80, 0
1, 159600, Note_on_c, 0, 79, 96
1, 159719, Note_on_c, 0, 79, 0
1, 159720, Note_on_c, 0, 77, 96
1, 159839, Note_on_c, 0, 77, 0
1, 159840, Note_on_c, 0, 76, 96
1, 159959, Note_on_c, 0, 76, 0
1, 159960, Note_on_c, 0, 77, 96
1, 160079, Note_on_c, 0, 77, 0
1, 160080, Note_on_c, 0, 72, 96
1, 160199, Note_on_c, 0, 72, 0
1, 160200, Note_on_c, 0, 80, 96
1, 160319, Note_on_c, 0, 80, 0
1, 160320, Note_on_c, 0, 79, 96
1, 160439, Note_on_c, 0, 79, 0
1, 160440, Note_on_c, 0, 77, 96
1, 160559, Note_on_c, 0, 77, 0
1, 160560, Note_on_c, 0, 76, 96
1, 160679, Note_on_c, 0, 76, 0
1, 160680, Note_on_c, 0, 77, 96
1, 160799, Note_on_c, 0, 77, 0
1, 160800, Note_on_c, 0, 72, 96
1, 160919, Note_on_c, 0, 72, 0
1, 160920, Note_on_c, 0, 80, 96
1, 161039, Note_on_c, 0, 80, 0
1, 161040, Note_on_c, 0, 79, 96
1, 161159, Note_on_c, 0, 79, 0
1, 161160, Note_on_c, 0, 77, 96
1, 161279, Note_on_c, 0, 77, 0
1, 161280, Note_on_c, 0, 76, 96
1, 161399, Note_on_c, 0, 76, 0
1, 161400, Note_on_c, 0, 77, 96
1, 161519, Note_on_c, 0, 77, 0
1, 161520, Note_on_c, 0, 72, 96
1, 161639, Note_on_c, 0, 72, 0
1, 161640, Note_on_c, 0, 80, 96
1, 161759, Note_on_c, 0, 80, 0
1, 161760, Note_on_c, 0, 79, 96
1, 161879, Note_on_c, 0, 79, 0
1, 161880, Note_on_c, 0, 77, 96
1, 161999, Note_on_c, 0, 77, 0
1, 162000, Note_on_c, 0, 76, 96
1, 162119, Note_on_c, 0, 76, 0
1, 162120, Note_on_c, 0, 77, 96
1, 162239, Note_on_c, 0, 77, 0
1, 162240, Note_on_c, 0, 72, 96
1, 162359, Note_on_c, 0, 72, 0
1, 162360, Note_on_c, 0, 73, 96
1, 162479, Note_on_c, 0, 73, 0
1, 162480, Note_on_c, 0, 72, 96
1, 162599, Note_on_c, 0, 72, 0
1, 162600, Note_on_c, 0, 70, 96
1, 162719, Note_on_c, 0, 70, 0
1, 162720, Note_on_c, 0, 72, 96
1, 162839, Note_on_c, 0, 72, 0
1, 162840, Note_on_c, 0, 73, 96
1, 162959, Note_on_c, 0, 73, 0
1, 162960, Note_on_c, 0, 65, 96
1, 163079, Note_on_c, 0, 65, 0
1, 163080, Note_on_c, 0, 73, 96
1, 163199, Note_on_c, 0, 73, 0
1, 163200, Note_on_c, 0, 72, 96
1, 163319, Note_on_c, 0, 72, 0
1, 163320, Note_on_c, 0, 70, 96
1, 163439, Note_on_c, 0, 70, 0
1, 163440, Note_on_c, 0, 72, 96
1, 163559, Note_on_c, 0, 72, 0
1, 163560, Note_on_c, 0, 73, 96
1, 163679, Note_on_c, 0, 73, 0
1, 163680, Note_on_c, 0, 65, 96
1, 163799, Note_on_c, 0, 65, 0
1, 163800, Note_on_c, 0, 73, 96
1, 163919, Note_on_c, 0, 73, 0
1, 163920, Note_on_c, 0, 72, 96
1, 164039, Note_on_c, 0, 72, 0
1, 164040, Note_on_c, 0, 70, 96
1, 164159, Note_on_c, 0, 70, 0
1, 164160, Note_on_c, 0, 72, 96
1, 164279, Note_on_c, 0, 72, 0
1, 164280, Note_on_c, 0, 73, 96
1, 164399, Note_on_c, 0, 73, 0
1, 164400, Note_on_c, 0, 65, 96
1, 164519, Note_on_c, 0, 65, 0
1, 164520, Note_on_c, 0, 73, 96
1, 164639, Note_on_c, 0, 73, 0
1, 164640, Note_on_c, 0, 72, 96
1, 164759, Note_on_c, 0, 72, 0
1, 164760, Note_on_c, 0, 70, 96
1, 164879, Note_on_c, 0, 70, 0
1, 164880, Note_on_c, 0, 72, 96
1, 164999, Note_on_c, 0, 72, 0
1, 165000, Note_on_c, 0, 73, 96
1, 165119, Note_on_c, 0, 73, 0
1, 165120, Note_on_c, 0, 65, 96
1, 165239, Note_on_c, 0, 65, 0
1, 165240, Note_on_c, 0, 67, 96
1, 165359, Note_on_c, 0, 67, 0
1, 165360, Note_on_c, 0, 68, 96
1, 165479, Note_on_c, 0, 68, 0
1, 165480, Note_on_c, 0, 67, 96
1, 165599, Note_on_c, 0, 67, 0
1, 165600, Note_on_c, 0, 68, 96
1, 165719, Note_on_c, 0, 68, 0
1, 165720, Note_on_c, 0, 65, 96
1, 165839, Note_on_c, 0, 65, 0
1, 165840, Note_on_c, 0, 72, 96
1, 165959, Note_on_c, 0, 72, 0
1, 165960, Note_on_c, 0, 73, 96
1, 166079, Note_on_c, 0, 73, 0
1, 166080, Note_on_c, 0, 75, 96
1, 166199, Note_on_c, 0, 75, 0
1, 166200, Note_on_c, 0, 73, 96
1, 166319, Note_on_c, 0, 73, 0
1, 166320, Note_on_c, 0, 75, 96
1, 166439, Note_on_c, 0, 75, 0
1, 166440, Note_on_c, 0, 72, 96
1, 166559, Note_on_c, 0, 72, 0
1, 166560, Note_on_c, 0, 77, 96
1, 166679, Note_on_c, 0, 77, 0
1, 166680, Note_on_c, 0, 79, 96
1, 166799, Note_on_c, 0, 79, 0
1, 166800, Note_on_c, 0, 80, 96
1, 166919, Note_on_c, 0, 80, 0
1, 166920, Note_on_c, 0, 79, 96
1, 167039, Note_on_c, 0, 79, 0
1, 167040, Note_on_c, 0, 80, 96
1, 167159, Note_on_c, 0, 80, 0
1, 167160, Note_on_c, 0, 77, 96
1, 167279, Note_on_c, 0, 77, 0
1, 167280, Note_on_c, 0, 80, 96
1, 167399, Note_on_c, 0, 80, 0
1, 167400, Note_on_c, 0, 84, 96
1, 167519, Note_on_c, 0, 84, 0
1, 167520, Note_on_c, 0, 82, 96
1, 167639, Note_on_c, 0, 82, 0
1, 167640, Note_on_c, 0, 80, 96
1, 167759, Note_on_c, 0, 80, 0
1, 167760, Note_on_c, 0, 82, 96
1, 167879, Note_on_c, 0, 82, 0
1, 167880, Note_on_c, 0, 84, 96
1, 167999, Note_on_c, 0, 84, 0
1, 168000, Note_on_c, 0, 77, 96
1, 168119, Note_on_c, 0, 77, 0
1, 168120, Note_on_c, 0, 84, 96
1, 168239, Note_on_c, 0, 84, 0
1, 168240, Note_on_c, 0, 82, 96
1, 168359, Note_on_c, 0, 82, 0
1, 168360, Note_on_c, 0, 80, 96
1, 168479, Note_on_c, 0, 80, 0
1, 168480, Note_on_c, 0, 82, 96
1, 168599, Note_on_c, 0, 82, 0
1, 168600, Note_on_c, 0, 84, 96
1, 168719, Note_on_c, 0, 84, 0
1, 168720, Note_on_c, 0, 77, 96
1, 168839, Note_on_c, 0, 77, 0
1, 168840, Note_on_c, 0, 85, 96
1, 168959, Note_on_c, 0, 85, 0
1, 168960, Note_on_c, 0, 84, 96
1, 169079, Note_on_c, 0, 84, 0
1, 169080, Note_on_c, 0, 82, 96
1, 169199, Note_on_c, 0, 82, 0
1, 169200, Note_on_c, 0, 84, 96
1, 169319, Note_on_c, 0, 84, 0
1, 169320, Note_on_c, 0, 85, 96
1, 169439, Note_on_c, 0, 85, 0
1, 169440, Note_on_c, 0, 77, 96
1, 169559, Note_on_c, 0, 77, 0
1, 169560, Note_on_c, 0, 85, 96
1, 169679, Note_on_c, 0, 85, 0
1, 169680, Note_on_c, 0, 84, 96
1, 169799, Note_on_c, 0, 84, 0
1, 169800, Note_on_c, 0, 82, 96
1, 169919, Note_on_c, 0, 82, 0
1, 169920, Note_on_c, 0, 84, 96
1, 170039, Note_on_c, 0, 84, 0
1, 170040, Note_on_c, 0, 85, 96
1, 170159, Note_on_c, 0, 85, 0
1, 170160, Note_on_c, 0, 77, 96
1, 170279, Note_on_c, 0, 77, 0
1, 170280, Note_on_c, 0, 84, 96
1, 170399, Note_on_c, 0, 84, 0
1, 170400, Note_on_c, 0, 82, 96
1, 170519, Note_on_c, 0, 82, 0
1, 170520, Note_on_c, 0, 80, 96
1, 170639, Note_on_c, 0, 80, 0
1, 170640, Note_on_c, 0, 82, 96
1, 170759, Note_on_c, 0, 82, 0
1, 170760, Note_on_c, 0, 84, 96
1, 170879, Note_on_c, 0, 84, 0
1, 170880, Note_on_c, 0, 77, 96
1, 170999, Note_on_c, 0, 77, 0
1, 171000, Note_on_c, 0, 84, 96
1, 171119, Note_on_c, 0, 84, 0
1, 171120, Note_on_c, 0, 82, 96
1, 171239, Note_on_c, 0, 82, 0
1, 171240, Note_on_c, 0, 80, 96
1, 171359, Note_on_c, 0, 80, 0
1, 171360, Note_on_c, 0, 82, 96
1, 171479, Note_on_c, 0, 82, 0
1, 171480, Note_on_c, 0, 84, 96
1, 171599, Note_on_c, 0, 84, 0
1, 171600, Note_on_c, 0, 77, 96
1, 171719, Note_on_c, 0, 77, 0
1, 171720, Note_on_c, 0, 85, 96
1, 171839, Note_on_c, 0, 85, 0
1, 171840, Note_on_c, 0, 84, 96
1, 171959, Note_on_c, 0, 84, 0
1, 171960, Note_on_c, 0, 82, 96
1, 172079, Note_on_c, 0, 82, 0
1, 172080, Note_on_c, 0, 84, 96
1, 172199, Note_on_c, 0, 84, 0
1, 172200, Note_on_c, 0, 85, 96
1, 172319, Note_on_c, 0, 85, 0
1, 172320, Note_on_c, 0, 77, 96
1, 172439, Note_on_c, 0, 77, 0
1, 172440, Note_on_c, 0, 85, 96
1, 172559, Note_on_c, 0, 85, 0
1, 172560, Note_on_c, 0, 84, 96
1, 172679, Note_on_c, 0, 84, 0
1, 172680, Note_on_c, 0, 82, 96
1, 172799, Note_on_c, 0, 82, 0
1, 172800, Note_on_c, 0, 84, 96
1, 172919, Note_on_c, 0, 84, 0
1, 172920, Note_on_c, 0, 85, 96
1, 173039, Note_on_c, 0, 85, 0
1, 173040, Note_on_c, 0, 84, 96
1, 173279, Note_on_c, 0, 84, 0
1, 173280, Note_on_c, 0, 77, 96
1, 173519, Note_on_c, 0, 77, 0
1, 173760, Note_on_c, 0, 82, 96
1, 173879, Note_on_c, 0, 82, 0
1, 173880, Note_on_c, 0, 80, 96
1, 173999, Note_on_c, 0, 80, 0
1, 174000, Note_on_c, 0, 79, 96
1, 174119, Note_on_c, 0, 79, 0
1, 174120, Note_on_c, 0, 77, 96
1, 174239, Note_on_c, 0, 77, 0
1, 174240, Note_on_c, 0, 76, 96
1, 174359, Note_on_c, 0, 76, 0
1, 174360, Note_on_c, 0, 74, 96
1, 174479, Note_on_c, 0, 74, 0
1, 174480, Note_on_c, 0, 72, 96
1, 174599, Note_on_c, 0, 72, 0
1, 174600, Note_on_c, 0, 74, 96
1, 174719, Note_on_c, 0, 74, 0
1, 174720, Note_on_c, 0, 76, 96
1, 174839, Note_on_c, 0, 76, 0
1, 174840, Note_on_c, 0, 77, 96
1, 174959, Note_on_c, 0, 77, 0
1, 174960, Note_on_c, 0, 79, 96
1, 175079, Note_on_c, 0, 79, 0
1, 175080, Note_on_c, 0, 80, 96
1, 175199, Note_on_c, 0, 80, 0
1, 175200, Note_on_c, 0, 82, 96
1, 175319, Note_on_c, 0, 82, 0
1, 175320, Note_on_c, 0, 80, 96
1, 175439, Note_on_c, 0, 80, 0
1, 175440, Note_on_c, 0, 79, 96
1, 175559, Note_on_c, 0, 79, 0
1, 175560, Note_on_c, 0, 77, 96
1, 175679, Note_on_c, 0, 77, 0
1, 175680, Note_on_c, 0, 76, 96
1, 175799, Note_on_c, 0, 76, 0
1, 175800, Note_on_c, 0, 74, 96
1, 175919, Note_on_c, 0, 74, 0
1, 175920, Note_on_c, 0, 72, 96
1, 176039, Note_on_c, 0, 72, 0
1, 176040, Note_on_c, 0, 74, 96
1, 176159, Note_on_c, 0, 74, 0
1, 176160, Note_on_c, 0, 76, 96
1, 176279, Note_on_c, 0, 76, 0
1, 176280, Note_on_c, 0, 77, 96
1, 176399, Note_on_c, 0, 77, 0
1, 176400, Note_on_c, 0, 79, 96
1, 176519, Note_on_c, 0, 79, 0
1, 176520, Note_on_c, 0, 80, 96
1, 176639, Note_on_c, 0, 80, 0
1, 176640, Note_on_c, 0, 82, 80
1, 176879, Note_on_c, 0, 82, 0
1, 176880, Note_on_c, 0, 80, 80
1, 177119, Note_on_c, 0, 80, 0
1, 177120, Note_on_c, 0, 79, 80
1, 177359, Note_on_c, 0, 79, 0
1, 177360, Note_on_c, 0, 80, 80
1, 177599, Note_on_c, 0, 80, 0
1, 177600, Note_on_c, 0, 79, 80
1, 177839, Note_on_c, 0, 79, 0
1, 177840, Note_on_c, 0, 77, 80
1, 178079, Note_on_c, 0, 77, 0
1, 178080, Note_on_c, 0, 82, 80
1, 178319, Note_on_c, 0, 82, 0
1, 178320, Note_on_c, 0, 80, 80
1, 178559, Note_on_c, 0, 80, 0
1, 178560, Note_on_c, 0, 79, 80
1, 178799, Note_on_c, 0, 79, 0
1, 178800, Note_on_c, 0, 80, 80
1, 179039, Note_on_c, 0, 80, 0
1, 179040, Note_on_c, 0, 79, 80
1, 179279, Note_on_c, 0, 79, 0
1, 179280, Note_on_c, 0, 77, 80
1, 179519, Note_on_c, 0, 77, 0
1, 179520, Note_on_c, 0, 82, 80
1, 179759, Note_on_c, 0, 82, 0
1, 179760, Note_on_c, 0, 80, 80
1, 179999, Note_on_c, 0, 80, 0
1, 180000, Note_on_c, 0, 79, 80
1, 180239, Note_on_c, 0, 79, 0
1, 180240, Note_on_c, 0, 80, 80
1, 180359, Note_on_c, 0, 80, 0
1, 180480, Note_on_c, 0, 80, 80
1, 180599, Note_on_c, 0, 80, 0
1, 180720, Note_on_c, 0, 80, 80
1, 180839, Note_on_c, 0, 80, 0
1, 180960, Note_on_c, 0, 81, 80
1, 181079, Note_on_c, 0, 81, 0
1, 181200, Note_on_c, 0, 81, 80
1, 181319, Note_on_c, 0, 81, 0
1, 181440, Note_on_c, 0, 81, 80
1, 181559, Note_on_c, 0, 81, 0
1, 181680, Note_on_c, 0, 82, 80
1, 181799, Note_on_c, 0, 82, 0
1, 181920, Note_on_c, 0, 82, 80
1, 182039, Note_on_c, 0, 82, 0
1, 182160, Note_on_c, 0, 82, 80
1, 182279, Note_on_c, 0, 82, 0
1, 182400, Note_on_c, 0, 83, 80
1, 182519, Note_on_c, 0, 83, 0
1, 182640, Note_on_c, 0, 83, 80
1, 182759, Note_on_c, 0, 83, 0
1, 182880, Note_on_c, 0, 83, 80
1, 182999, Note_on_c, 0, 83, 0
1, 183120, Note_on_c, 0, 84, 80
1, 183239, Note_on_c, 0, 84, 0
1, 183360, Note_on_c, 0, 84, 80
1, 183479, Note_on_c, 0, 84, 0
1, 183600, Note_on_c, 0, 84, 80
1, 183719, Note_on_c, 0, 84, 0
1, 183840, Note_on_c, 0, 84, 80
1, 183959, Note_on_c, 0, 84, 0
1, 184080, Note_on_c, 0, 84, 80
1, 184199, Note_on_c, 0, 84, 0
1, 184320, Note_on_c, 0, 84, 80
1, 184439, Note_on_c, 0, 84, 0
1, 184560, Note_on_c, 0, 84, 80
1, 184679, Note_on_c, 0, 84, 0
1, 184800, Note_on_c, 0, 84, 80
1, 184919, Note_on_c, 0, 84, 0
1, 185040, Note_on_c, 0, 84, 80
1, 185159, Note_on_c, 0, 84, 0
1, 185280, Note_on_c, 0, 84, 80
1, 185399, Note_on_c, 0, 84, 0
1, 185520, Note_on_c, 0, 84, 80
1, 185639, Note_on_c, 0, 84, 0
1, 185760, Note_on_c, 0, 84, 80
1, 185879, Note_on_c, 0, 84, 0
1, 186000, Note_on_c, 0, 82, 80
1, 186119, Note_on_c, 0, 82, 0
1, 186240, Note_on_c, 0, 82, 80
1, 186359, Note_on_c, 0, 82, 0
1, 186480, Note_on_c, 0, 82, 80
1, 186599, Note_on_c, 0, 82, 0
1, 186720, Note_on_c, 0, 80, 80
1, 187199, Note_on_c, 0, 80, 0
1, 187440, Note_on_c, 0, 80, 96
1, 187559, Note_on_c, 0, 80, 0
1, 187560, Note_on_c, 0, 79, 96
1, 187679, Note_on_c, 0, 79, 0
1, 187680, Note_on_c, 0, 77, 96
1, 187799, Note_on_c, 0, 77, 0
1, 187800, Note_on_c, 0, 75, 96
1, 187919, Note_on_c, 0, 75, 0
1, 187920, Note_on_c, 0, 73, 96
1, 188039, Note_on_c, 0, 73, 0
1, 188040, Note_on_c, 0, 72, 96
1, 188159, Note_on_c, 0, 72, 0
1, 188160, Note_on_c, 0, 70, 96
1, 188279, Note_on_c, 0, 70, 0
1, 188280, Note_on_c, 0, 68, 96
1, 188399, Note_on_c, 0, 68, 0
1, 188400, Note_on_c, 0, 67, 96
1, 188519, Note_on_c, 0, 67, 0
1, 188520, Note_on_c, 0, 65, 96
1, 188639, Note_on_c, 0, 65, 0
1, 188640, Note_on_c, 0, 64, 96
1, 188879, Note_on_c, 0, 64, 0
1, 188880, Note_on_c, 0, 79, 96
1, 188939, Note_on_c, 0, 79, 0
1, 188940, Note_on_c, 0, 77, 96
1, 188999, Note_on_c, 0, 77, 0
1, 189000, Note_on_c, 0, 76, 96
1, 189059, Note_on_c, 0, 76, 0
1, 189060, Note_on_c, 0, 74, 96
1, 189119, Note_on_c, 0, 74, 0
1, 189120, Note_on_c, 0, 72, 96
1, 189359, Note_on_c, 0, 72, 0
1, 189600, Note_on_c, 0, 79, 96
1, 189659, Note_on_c, 0, 79, 0
1, 189660, Note_on_c, 0, 77, 96
1, 189719, Note_on_c, 0, 77, 0
1, 189720, Note_on_c, 0, 76, 96
1, 189779, Note_on_c, 0, 76, 0
1, 189780, Note_on_c, 0, 74, 96
1, 189839, Note_on_c, 0, 74, 0
1, 189840, Note_on_c, 0, 72, 96
1, 190079, Note_on_c, 0, 72, 0
1, 190320, Note_on_c, 0, 84, 96
1, 190379, Note_on_c, 0, 84, 0
1, 190380, Note_on_c, 0, 82, 96
1, 190439, Note_on_c, 0, 82, 0
1, 190440, Note_on_c, 0, 80, 96
1, 190499, Note_on_c, 0, 80, 0
1, 190500, Note_on_c, 0, 79, 96
1, 190559, Note_on_c, 0, 79, 0
1, 190560, Note_on_c, 0, 77, 96
1, 190799, Note_on_c, 0, 77, 0
1, 191040, Note_on_c, 0, 84, 96
1, 191099, Note_on_c, 0, 84, 0
1, 191100, Note_on_c, 0, 82, 96
1, 191159, Note_on_c, 0, 82, 0
1, 191160, Note_on_c, 0, 80, 96
1, 191219, Note_on_c, 0, 80, 0
1, 191220, Note_on_c, 0, 79, 96
1, 191279, Note_on_c, 0, 79, 0
1, 191280, Note_on_c, 0, 77, 96
1, 191519, Note_on_c, 0, 77, 0
1, 191760, Note_on_c, 0, 82, 96
1, 191819, Note_on_c, 0, 82, 0
1, 191820, Note_on_c, 0, 80, 96
1, 191879, Note_on_c, 0, 80, 0
1, 191880, Note_on_c, 0, 79, 96
1, 191939, Note_on_c, 0, 79, 0
1, 191940, Note_on_c, 0, 77, 96
1, 191999, Note_on_c, 0, 77, 0
1, 192000, Note_on_c, 0, 76, 96
1, 192239, Note_on_c, 0, 76, 0
1, 192480, Note_on_c, 0, 82, 96
1, 192539, Note_on_c, 0, 82, 0
1, 192540, Note_on_c, 0, 80, 96
1, 192599, Note_on_c, 0, 80, 0
1, 192600, Note_on_c, 0, 79, 96
1, 192659, Note_on_c, 0, 79, 0
1, 192660, Note_on_c, 0, 77, 96
1, 192719, Note_on_c, 0, 77, 0
1, 192720, Note_on_c, 0, 76, 96
1, 192959, Note_on_c, 0, 76, 0
1, 193200, Note_on_c, 0, 77, 96
1, 193319, Note_on_c, 0, 77, 0
1, 193320, Note_on_c, 0, 75, 96
1, 193439, Note_on_c, 0, 75, 0
1, 193440, Note_on_c, 0, 73, 96
1, 193559, Note_on_c, 0, 73, 0
1, 193560, Note_on_c, 0, 72, 96
1, 193679, Note_on_c, 0, 72, 0
1, 193680, Note_on_c, 0, 70, 96
1, 193799, Note_on_c, 0, 70, 0
1, 193800, Note_on_c, 0, 68, 96
1, 193919, Note_on_c, 0, 68, 0
1, 193920, Note_on_c, 0, 67, 96
1, 194039, Note_on_c, 0, 67, 0
1, 194040, Note_on_c, 0, 65, 96
1, 194159, Note_on_c, 0, 65, 0
1, 194160, Note_on_c, 0, 64, 96
1, 194279, Note_on_c, 0, 64, 0
1, 194280, Note_on_c, 0, 62, 96
1, 194399, Note_on_c, 0, 62, 0
1, 194400, Note_on_c, 0, 60, 96
1, 194519, Note_on_c, 0, 60, 0
1, 194520, Note_on_c, 0, 58, 96
1, 194639, Note_on_c, 0, 58, 0
1, 194640, Note_on_c, 0, 56, 96
1, 194879, Note_on_c, 0, 56, 0
1, 194880, Note_on_c, 0, 58, 96
1, 195119, Note_on_c, 0, 58, 0
1, 195120, Note_on_c, 0, 60, 96
1, 195359, Note_on_c, 0, 60, 0
1, 195360, Note_on_c, 0, 65, 96
1, 195479, Note_on_c, 0, 65, 0
1, 195480, Note_on_c, 0, 67, 96
1, 195599, Note_on_c, 0, 67, 0
1, 195600, Note_on_c, 0, 68, 96
1, 195719, Note_on_c, 0, 68, 0
1, 195720, Note_on_c, 0, 67, 96
1, 195839, Note_on_c, 0, 67, 0
1, 195840, Note_on_c, 0, 68, 96
1, 195959, Note_on_c, 0, 68, 0
1, 195960, Note_on_c, 0, 65, 96
1, 196079, Note_on_c, 0, 65, 0
1, 196080, Note_on_c, 0, 72, 96
1, 196199, Note_on_c, 0, 72, 0
1, 196200, Note_on_c, 0, 73, 96
1, 196319, Note_on_c, 0, 73, 0
1, 196320, Note_on_c, 0, 75, 96
1, 196439, Note_on_c, 0, 75, 0
1, 196440, Note_on_c, 0, 73, 96
1, 196559, Note_on_c, 0, 73, 0
1, 196560, Note_on_c, 0, 75, 96
1, 196679, Note_on_c, 0, 75, 0
1, 196680, Note_on_c, 0, 72, 96
1, 196799, Note_on_c, 0, 72, 0
1, 196800, Note_on_c, 0, 77, 96
1, 196919, Note_on_c, 0, 77, 0
1, 196920, Note_on_c, 0, 79, 96
1, 197039, Note_on_c, 0, 79, 0
1, 197040, Note_on_c, 0, 80, 96
1, 197159, Note_on_c, 0, 80, 0
1, 197160, Note_on_c, 0, 79, 96
1, 197279, Note_on_c, 0, 79, 0
1, 197280, Note_on_c, 0, 80, 96
1, 197399, Note_on_c, 0, 80, 0
1, 197400, Note_on_c, 0, 77, 96
1, 197519, Note_on_c, 0, 77, 0
1, 197520, Note_on_c, 0, 79, 96
1, 197639, Note_on_c, 0, 79, 0
1, 197640, Note_on_c, 0, 80, 96
1, 197759, Note_on_c, 0, 80, 0
1, 197760, Note_on_c, 0, 82, 96
1, 197879, Note_on_c, 0, 82, 0
1, 197880, Note_on_c, 0, 80, 96
1, 197999, Note_on_c, 0, 80, 0
1, 198000, Note_on_c, 0, 82, 96
1, 198119, Note_on_c, 0, 82, 0
1, 198120, Note_on_c, 0, 79, 96
1, 198239, Note_on_c, 0, 79, 0
1, 198240, Note_on_c, 0, 76, 96
1, 198359, Note_on_c, 0, 76, 0
1, 198360, Note_on_c, 0, 77, 96
1, 198479, Note_on_c, 0, 77, 0
1, 198480, Note_on_c, 0, 79, 96
1, 198599, Note_on_c, 0, 79, 0
1, 198600, Note_on_c, 0, 77, 96
1, 198719, Note_on_c, 0, 77, 0
1, 198720, Note_on_c, 0, 79, 96
1, 198839, Note_on_c, 0, 79, 0
1, 198840, Note_on_c, 0, 76, 96
1, 198959, Note_on_c, 0, 76, 0
1, 198960, Note_on_c, 0, 77, 96
1, 199079, Note_on_c, 0, 77, 0
1, 199080, Note_on_c, 0, 79, 96
1, 199199, Note_on_c, 0, 79, 0
1, 199200, Note_on_c, 0, 80, 96
1, 199319, Note_on_c, 0, 80, 0
1, 199320, Note_on_c, 0, 79, 96
1, 199439, Note_on_c, 0, 79, 0
1, 199440, Note_on_c, 0, 80, 96
1, 199559, Note_on_c, 0, 80, 0
1, 199560, Note_on_c, 0, 77, 96
1, 199679, Note_on_c, 0, 77, 0
1, 199680, Note_on_c, 0, 79, 96
1, 199799, Note_on_c, 0, 79, 0
1, 199800, Note_on_c, 0, 80, 96
1, 199919, Note_on_c, 0, 80, 0
1, 199920, Note_on_c, 0, 82, 96
1, 200039, Note_on_c, 0, 82, 0
1, 200040, Note_on_c, 0, 80, 96
1, 200159, Note_on_c, 0, 80, 0
1, 200160, Note_on_c, 0, 82, 96
1, 200279, Note_on_c, 0, 82, 0
1, 200280, Note_on_c, 0, 79, 96
1, 200399, Note_on_c, 0, 79, 0
1, 200400, Note_on_c, 0, 80, 96
1, 200519, Note_on_c, 0, 80, 0
1, 200520, Note_on_c, 0, 82, 96
1, 200639, Note_on_c, 0, 82, 0
1, 200640, Note_on_c, 0, 84, 96
1, 200759, Note_on_c, 0, 84, 0
1, 200760, Note_on_c, 0, 82, 96
1, 200879, Note_on_c, 0, 82, 0
1, 200880, Note_on_c, 0, 84, 96
1, 200999, Note_on_c, 0, 84, 0
1, 201000, Note_on_c, 0, 80, 96
1, 201119, Note_on_c, 0, 80, 0
1, 201120, Note_on_c, 0, 79, 96
1, 201239, Note_on_c, 0, 79, 0
1, 201240, Note_on_c, 0, 80, 96
1, 201359, Note_on_c, 0, 80, 0
1, 201360, Note_on_c, 0, 82, 96
1, 201479, Note_on_c, 0, 82, 0
1, 201480, Note_on_c, 0, 80, 96
1, 201599, Note_on_c, 0, 80, 0
1, 201600, Note_on_c, 0, 82, 96
1, 201719, Note_on_c, 0, 82, 0
1, 201720, Note_on_c, 0, 79, 96
1, 201839, Note_on_c, 0, 79, 0
1, 201840, Note_on_c, 0, 77, 96
1, 201959, Note_on_c, 0, 77, 0
1, 201960, Note_on_c, 0, 79, 96
1, 202079, Note_on_c, 0, 79, 0
1, 202080, Note_on_c, 0, 80, 96
1, 202199, Note_on_c, 0, 80, 0
1, 202200, Note_on_c, 0, 79, 96
1, 202319, Note_on_c, 0, 79, 0
1, 202320, Note_on_c, 0, 80, 96
1, 202439, Note_on_c, 0, 80, 0
1, 202440, Note_on_c, 0, 77, 96
1, 202559, Note_on_c, 0, 77, 0
1, 202560, Note_on_c, 0, 72, 96
1, 203039, Note_on_c, 0, 72, 0
1, 203280, Note_on_c, 0, 89, 96
1, 203399, Note_on_c, 0, 89, 0
1, 203400, Note_on_c, 0, 87, 96
1, 203519, Note_on_c, 0, 87, 0
1, 203520, Note_on_c, 0, 85, 96
1, 203639, Note_on_c, 0, 85, 0
1, 203640, Note_on_c, 0, 84, 96
1, 203759, Note_on_c, 0, 84, 0
1, 203760, Note_on_c, 0, 82, 96
1, 203879, Note_on_c, 0, 82, 0
1, 203880, Note_on_c, 0, 80, 96
1, 203999, Note_on_c, 0, 80, 0
1, 204000, Note_on_c, 0, 79, 96
1, 204119, Note_on_c, 0, 79, 0
1, 204120, Note_on_c, 0, 77, 96
1, 204239, Note_on_c, 0, 77, 0
1, 204240, Note_on_c, 0, 79, 96
1, 204359, Note_on_c, 0, 79, 0
1, 204360, Note_on_c, 0, 80, 96
1, 204479, Note_on_c, 0, 80, 0
1, 204480, Note_on_c, 0, 82, 96
1, 204599, Note_on_c, 0, 82, 0
1, 204600, Note_on_c, 0, 79, 96
1, 204719, Note_on_c, 0, 79, 0
1, 204720, Note_on_c, 0, 87, 96
1, 204839, Note_on_c, 0, 87, 0
1, 204840, Note_on_c, 0, 85, 96
1, 204959, Note_on_c, 0, 85, 0
1, 204960, Note_on_c, 0, 84, 96
1, 205079, Note_on_c, 0, 84, 0
1, 205080, Note_on_c, 0, 82, 96
1, 205199, Note_on_c, 0, 82, 0
1, 205200, Note_on_c, 0, 80, 96
1, 205319, Note_on_c, 0, 80, 0
1, 205320, Note_on_c, 0, 79, 96
1, 205439, Note_on_c, 0, 79, 0
1, 205440, Note_on_c, 0, 77, 96
1, 205559, Note_on_c, 0, 77, 0
1, 205560, Note_on_c, 0, 76, 96
1, 205679, Note_on_c, 0, 76, 0
1, 205680, Note_on_c, 0, 77, 96
1, 205799, Note_on_c, 0, 77, 0
1, 205800, Note_on_c, 0, 79, 96
1, 205919, Note_on_c, 0, 79, 0
1, 205920, Note_on_c, 0, 80, 96
1, 206039, Note_on_c, 0, 80, 0
1, 206040, Note_on_c, 0, 77, 96
1, 206159, Note_on_c, 0, 77, 0
1, 206160, Note_on_c, 0, 85, 96
1, 206279, Note_on_c, 0, 85, 0
1, 206280, Note_on_c, 0, 84, 96
1, 206399, Note_on_c, 0, 84, 0
1, 206400, Note_on_c, 0, 82, 96
1, 206519, Note_on_c, 0, 82, 0
1, 206520, Note_on_c, 0, 80, 96
1, 206639, Note_on_c, 0, 80, 0
1, 206640, Note_on_c, 0, 79, 96
1, 206759, Note_on_c, 0, 79, 0
1, 206760, Note_on_c, 0, 77, 96
1, 206879, Note_on_c, 0, 77, 0
1, 206880, Note_on_c, 0, 75, 96
1, 206999, Note_on_c, 0, 75, 0
1, 207000, Note_on_c, 0, 74, 96
1, 207119, Note_on_c, 0, 74, 0
1, 207120, Note_on_c, 0, 75, 96
1, 207239, Note_on_c, 0, 75, 0
1, 207240, Note_on_c, 0, 77, 96
1, 207359, Note_on_c, 0, 77, 0
1, 207360, Note_on_c, 0, 79, 96
1, 207479, Note_on_c, 0, 79, 0
1, 207480, Note_on_c, 0, 75, 96
1, 207599, Note_on_c, 0, 75, 0
1, 207600, Note_on_c, 0, 84, 96
1, 207719, Note_on_c, 0, 84, 0
1, 207720, Note_on_c, 0, 82, 96
1, 207839, Note_on_c, 0, 82, 0
1, 207840, Note_on_c, 0, 80, 96
1, 207959, Note_on_c, 0, 80, 0
1, 207960, Note_on_c, 0, 79, 96
1, 208079, Note_on_c, 0, 79, 0
1, 208080, Note_on_c, 0, 77, 96
1, 208199, Note_on_c, 0, 77, 0
1, 208200, Note_on_c, 0, 75, 96
1, 208319, Note_on_c, 0, 75, 0
1, 208320, Note_on_c, 0, 74, 96
1, 208439, Note_on_c, 0, 74, 0
1, 208440, Note_on_c, 0, 72, 96
1, 208559, Note_on_c, 0, 72, 0
1, 208560, Note_on_c, 0, 74, 96
1, 208679, Note_on_c, 0, 74, 0
1, 208680, Note_on_c, 0, 75, 96
1, 208799, Note_on_c, 0, 75, 0
1, 208800, Note_on_c, 0, 77, 96
1, 208919, Note_on_c, 0, 77, 0
1, 208920, Note_on_c, 0, 74, 96
1, 209039, Note_on_c, 0, 74, 0
1, 209040, Note_on_c, 0, 82, 96
1, 209159, Note_on_c, 0, 82, 0
1, 209160, Note_on_c, 0, 80, 96
1, 209279, Note_on_c, 0, 80, 0
1, 209280, Note_on_c, 0, 79, 96
1, 209399, Note_on_c, 0, 79, 0
1, 209400, Note_on_c, 0, 77, 96
1, 209519, Note_on_c, 0, 77, 0
1, 209520, Note_on_c, 0, 75, 96
1, 209639, Note_on_c, 0, 75, 0
1, 209640, Note_on_c, 0, 74, 96
1, 209759, Note_on_c, 0, 74, 0
1, 209760, Note_on_c, 0, 72, 96
1, 209879, Note_on_c, 0, 72, 0
1, 209880, Note_on_c, 0, 71, 96
1, 209999, Note_on_c, 0, 71, 0
1, 210000, Note_on_c, 0, 72, 96
1, 210119, Note_on_c, 0, 72, 0
1, 210120, Note_on_c, 0, 74, 96
1, 210239, Note_on_c, 0, 74, 0
1, 210240, Note_on_c, 0, 75, 96
1, 210359, Note_on_c, 0, 75, 0
1, 210360, Note_on_c, 0, 72, 96
1, 210479, Note_on_c, 0, 72, 0
1, 210480, Note_on_c, 0, 80, 96
1, 210599, Note_on_c, 0, 80, 0
1, 210600, Note_on_c, 0, 79, 96
1, 210719, Note_on_c, 0, 79, 0
1, 210720, Note_on_c, 0, 77, 96
1, 210839, Note_on_c, 0, 77, 0
1, 210840, Note_on_c, 0, 75, 96
1, 210959, Note_on_c, 0, 75, 0
1, 210960, Note_on_c, 0, 74, 96
1, 211079, Note_on_c, 0, 74, 0
1, 211080, Note_on_c, 0, 72, 96
1, 211199, Note_on_c, 0, 72, 0
1, 211200, Note_on_c, 0, 71, 96
1, 211319, Note_on_c, 0, 71, 0
1, 211320, Note_on_c, 0, 74, 96
1, 211379, Note_on_c, 0, 74, 0
1, 211380, Note_on_c, 0, 72, 96
1, 211439, Note_on_c, 0, 72, 0
1, 211440, Note_on_c, 0, 71, 96
1, 211559, Note_on_c, 0, 71, 0
1, 211560, Note_on_c, 0, 62, 96
1, 211679, Note_on_c, 0, 62, 0
1, 211680, Note_on_c, 0, 55, 96
1, 211799, Note_on_c, 0, 55, 0
1, 211800, Note_on_c, 0, 71, 96
1, 211919, Note_on_c, 0, 71, 0
1, 211920, Note_on_c, 0, 72, 96
1, 212039, Note_on_c, 0, 72, 0
1, 212040, Note_on_c, 0, 75, 96
1, 212099, Note_on_c, 0, 75, 0
1, 212100, Note_on_c, 0, 74, 96
1, 212159, Note_on_c, 0, 74, 0
1, 212160, Note_on_c, 0, 72, 96
1, 212279, Note_on_c, 0, 72, 0
1, 212280, Note_on_c, 0, 62, 96
1, 212399, Note_on_c, 0, 62, 0
1, 212400, Note_on_c, 0, 55, 96
1, 212519, Note_on_c, 0, 55, 0
1, 212520, Note_on_c, 0, 72, 96
1, 212639, Note_on_c, 0, 72, 0
1, 212640, Note_on_c, 0, 74, 96
1, 212759, Note_on_c, 0, 74, 0
1, 212760, Note_on_c, 0, 77, 96
1, 212819, Note_on_c, 0, 77, 0
1, 212820, Note_on_c, 0, 75, 96
1, 212879, Note_on_c, 0, 75, 0
1, 212880, Note_on_c, 0, 74, 96
1, 212999, Note_on_c, 0, 74, 0
1, 213000, Note_on_c, 0, 62, 96
1, 213119, Note_on_c, 0, 62, 0
1, 213120, Note_on_c, 0, 55, 96
1, 213239, Note_on_c, 0, 55, 0
1, 213240, Note_on_c, 0, 74, 96
1, 213359, Note_on_c, 0, 74, 0
1, 213360, Note_on_c, 0, 75, 96
1, 213479, Note_on_c, 0, 75, 0
1, 213480, Note_on_c, 0, 79, 96
1, 213539, Note_on_c, 0, 79, 0
1, 213540, Note_on_c, 0, 77, 96
1, 213599, Note_on_c, 0, 77, 0
1, 213600, Note_on_c, 0, 75, 96
1, 213719, Note_on_c, 0, 75, 0
1, 213720, Note_on_c, 0, 62, 96
1, 213839, Note_on_c, 0, 62, 0
1, 213840, Note_on_c, 0, 55, 96
1, 213959, Note_on_c, 0, 55, 0
1, 213960, Note_on_c, 0, 75, 96
1, 214079, Note_on_c, 0, 75, 0
1, 214080, Note_on_c, 0, 74, 96
1, 214199, Note_on_c, 0, 74, 0
1, 214200, Note_on_c, 0, 77, 96
1, 214259, Note_on_c, 0, 77, 0
1, 214260, Note_on_c, 0, 75, 96
1, 214319, Note_on_c, 0, 75, 0
1, 214320, Note_on_c, 0, 74, 96
1, 214439, Note_on_c, 0, 74, 0
1, 214440, Note_on_c, 0, 62, 96
1, 214559, Note_on_c, 0, 62, 0
1, 214560, Note_on_c, 0, 55, 96
1, 214679, Note_on_c, 0, 55, 0
1, 214680, Note_on_c, 0, 74, 96
1, 214799, Note_on_c, 0, 74, 0
1, 214800, Note_on_c, 0, 83, 96
1, 214919, Note_on_c, 0, 83, 0
1, 214920, Note_on_c, 0, 86, 96
1, 214979, Note_on_c, 0, 86, 0
1, 214980, Note_on_c, 0, 84, 96
1, 215039, Note_on_c, 0, 84, 0
1, 215040, Note_on_c, 0, 83, 96
1, 215159, Note_on_c, 0, 83, 0
1, 215160, Note_on_c, 0, 77, 96
1, 215279, Note_on_c, 0, 77, 0
1, 215280, Note_on_c, 0, 55, 96
1, 215399, Note_on_c, 0, 55, 0
1, 215400, Note_on_c, 0, 77, 96
1, 215519, Note_on_c, 0, 77, 0
1, 215520, Note_on_c, 0, 83, 96
1, 215639, Note_on_c, 0, 83, 0
1, 215640, Note_on_c, 0, 86, 96
1, 215699, Note_on_c, 0, 86, 0
1, 215700, Note_on_c, 0, 84, 96
1, 215759, Note_on_c, 0, 84, 0
1, 215760, Note_on_c, 0, 83, 96
1, 215879, Note_on_c, 0, 83, 0
1, 215880, Note_on_c, 0, 77, 96
1, 215999, Note_on_c, 0, 77, 0
1, 216000, Note_on_c, 0, 55, 96
1, 216119, Note_on_c, 0, 55, 0
1, 216120, Note_on_c, 0, 83, 96
1, 216239, Note_on_c, 0, 83, 0
1, 216240, Note_on_c, 0, 84, 96
1, 216318, Note_on_c, 0, 83, 96
1, 216319, Note_on_c, 0, 84, 0
1, 216397, Note_on_c, 0, 83, 0
1, 216398, Note_on_c, 0, 84, 96
1, 216477, Note_on_c, 0, 84, 0
1, 216478, Note_on_c, 0, 83, 96
1, 216556, Note_on_c, 0, 81, 96
1, 216557, Note_on_c, 0, 83, 0
1, 216635, Note_on_c, 0, 81, 0
1, 216636, Note_on_c, 0, 83, 96
1, 216715, Note_on_c, 0, 83, 0
1, 216716, Note_on_c, 0, 80, 96
1, 216794, Note_on_c, 0, 79, 96
1, 216795, Note_on_c, 0, 80, 0
1, 216873, Note_on_c, 0, 79, 0
1, 216874, Note_on_c, 0, 80, 96
1, 216953, Note_on_c, 0, 80, 0
1, 216960, Note_on_c, 0, 79, 96
1, 217038, Note_on_c, 0, 77, 96
1, 217039, Note_on_c, 0, 79, 0
1, 217117, Note_on_c, 0, 77, 0
1, 217118, Note_on_c, 0, 79, 96
1, 217197, Note_on_c, 0, 79, 0
1, 217198, Note_on_c, 0, 77, 96
1, 217276, Note_on_c, 0, 75, 96
1, 217277, Note_on_c, 0, 77, 0
1, 217355, Note_on_c, 0, 75, 0
1, 217356, Note_on_c, 0, 77, 96
1, 217435, Note_on_c, 0, 77, 0
1, 217436, Note_on_c, 0, 75, 96
1, 217514, Note_on_c, 0, 74, 96
1, 217515, Note_on_c, 0, 75, 0
1, 217593, Note_on_c, 0, 74, 0
1, 217594, Note_on_c, 0, 75, 96
1, 217673, Note_on_c, 0, 75, 0
1, 217680, Note_on_c, 0, 74, 96
1, 217758, Note_on_c, 0, 72, 96
1, 217759, Note_on_c, 0, 74, 0
1, 217837, Note_on_c, 0, 72, 0
1, 217838, Note_on_c, 0, 74, 96
1, 217917, Note_on_c, 0, 74, 0
1, 217918, Note_on_c, 0, 72, 96
1, 217996, Note_on_c, 0, 71, 96
1, 217997, Note_on_c, 0, 72, 0
1, 218075, Note_on_c, 0, 71, 0
1, 218076, Note_on_c, 0, 72, 96
1, 218155, Note_on_c, 0, 72, 0
1, 218156, Note_on_c, 0, 71, 96
1, 218234, Note_on_c, 0, 69, 96
1, 218235, Note_on_c, 0, 71, 0
1, 218313, Note_on_c, 0, 69, 0
1, 218314, Note_on_c, 0, 71, 96
1, 218393, Note_on_c, 0, 71, 0
1, 218400, Note_on_c, 0, 68, 96
1, 218478, Note_on_c, 0, 67, 96
1, 218479, Note_on_c, 0, 68, 0
1, 218557, Note_on_c, 0, 67, 0
1, 218558, Note_on_c, 0, 68, 96
1, 218637, Note_on_c, 0, 68, 0
1, 218638, Note_on_c, 0, 67, 96
1, 218716, Note_on_c, 0, 65, 96
1, 218717, Note_on_c, 0, 67, 0
1, 218795, Note_on_c, 0, 65, 0
1, 218796, Note_on_c, 0, 67, 96
1, 218875, Note_on_c, 0, 67, 0
1, 218876, Note_on_c, 0, 65, 96
1, 218954, Note_on_c, 0, 63, 96
1, 218955, Note_on_c, 0, 65, 0
1, 219033, Note_on_c, 0, 63, 0
1, 219034, Note_on_c, 0, 65, 96
1, 219113, Note_on_c, 0, 65, 0
1, 219120, Note_on_c, 0, 63, 96
1, 219198, Note_on_c, 0, 62, 96
1, 219199, Note_on_c, 0, 63, 0
1, 219277, Note_on_c, 0, 62, 0
1, 219278, Note_on_c, 0, 63, 96
1, 219357, Note_on_c, 0, 63, 0
1, 219358, Note_on_c, 0, 62, 96
1, 219436, Note_on_c, 0, 60, 96
1, 219437, Note_on_c, 0, 62, 0
1, 219515, Note_on_c, 0, 60, 0
1, 219516, Note_on_c, 0, 62, 96
1, 219595, Note_on_c, 0, 62, 0
1, 219596, Note_on_c, 0, 60, 96
1, 219674, Note_on_c, 0, 59, 96
1, 219675, Note_on_c, 0, 60, 0
1, 219753, Note_on_c, 0, 59, 0
1, 219754, Note_on_c, 0, 60, 96
1, 219833, Note_on_c, 0, 60, 0
1, 219840, Note_on_c, 0, 55, 96
1, 219840, Note_on_c, 0, 77, 96
1, 219840, Note_on_c, 0, 71, 96
1, 219840, Note_on_c, 0, 62, 96
1, 219959, Note_on_c, 0, 55, 0
1, 219959, Note_on_c, 0, 77, 0
1, 219959, Note_on_c, 0, 71, 0
1, 219959, Note_on_c, 0, 62, 0
1, 219960, Note_on_c, 0, 75, 96
1, 220079, Note_on_c, 0, 75, 0
1, 220080, Note_on_c, 0, 74, 96
1, 220199, Note_on_c, 0, 74, 0
1, 220200, Note_on_c, 0, 72, 96
1, 220319, Note_on_c, 0, 72, 0
1, 220320, Note_on_c, 0, 71, 96
1, 220439, Note_on_c, 0, 71, 0
1, 220440, Note_on_c, 0, 69, 96
1, 220559, Note_on_c, 0, 69, 0
1, 220560, Note_on_c, 0, 67, 96
1, 220679, Note_on_c, 0, 67, 0
1, 220680, Note_on_c, 0, 69, 96
1, 220799, Note_on_c, 0, 69, 0
1, 220800, Note_on_c, 0, 71, 96
1, 220919, Note_on_c, 0, 71, 0
1, 220920, Note_on_c, 0, 72, 96
1, 221039, Note_on_c, 0, 72, 0
1, 221040, Note_on_c, 0, 74, 96
1, 221159, Note_on_c, 0, 74, 0
1, 221160, Note_on_c, 0, 75, 96
1, 221279, Note_on_c, 0, 75, 0
1, 221280, Note_on_c, 0, 77, 96
1, 221399, Note_on_c, 0, 77, 0
1, 221400, Note_on_c, 0, 75, 96
1, 221519, Note_on_c, 0, 75, 0
1, 221520, Note_on_c, 0, 74, 96
1, 221639, Note_on_c, 0, 74, 0
1, 221640, Note_on_c, 0, 72, 96
1, 221759, Note_on_c, 0, 72, 0
1, 221760, Note_on_c, 0, 71, 96
1, 221879, Note_on_c, 0, 71, 0
1, 221880, Note_on_c, 0, 69, 96
1, 221999, Note_on_c, 0, 69, 0
1, 222000, Note_on_c, 0, 67, 96
1, 222119, Note_on_c, 0, 67, 0
1, 222120, Note_on_c, 0, 69, 96
1, 222239, Note_on_c, 0, 69, 0
1, 222240, Note_on_c, 0, 71, 96
1, 222359, Note_on_c, 0, 71, 0
1, 222360, Note_on_c, 0, 72, 96
1, 222479, Note_on_c, 0, 72, 0
1, 222480, Note_on_c, 0, 74, 96
1, 222599, Note_on_c, 0, 74, 0
1, 222600, Note_on_c, 0, 75, 96
1, 222719, Note_on_c, 0, 75, 0
1, 222720, Note_on_c, 0, 77, 96
1, 222959, Note_on_c, 0, 77, 0
1, 223260, Note_on_c, 0, 71, 96
1, 223319, Note_on_c, 0, 71, 0
1, 223320, Note_on_c, 0, 72, 96
1, 223379, Note_on_c, 0, 72, 0
1, 223380, Note_on_c, 0, 74, 96
1, 223439, Note_on_c, 0, 74, 0
1, 223440, Note_on_c, 0, 65, 96
1, 223679, Note_on_c, 0, 65, 0
1, 223980, Note_on_c, 0, 62, 96
1, 224039, Note_on_c, 0, 62, 0
1, 224040, Note_on_c, 0, 63, 96
1, 224099, Note_on_c, 0, 63, 0
1, 224100, Note_on_c, 0, 65, 96
1, 224159, Note_on_c, 0, 65, 0
1, 224160, Note_on_c, 0, 55, 96
1, 224399, Note_on_c, 0, 55, 0
1, 224700, Note_on_c, 0, 59, 96
1, 224759, Note_on_c, 0, 59, 0
1, 224760, Note_on_c, 0, 60, 96
1, 224819, Note_on_c, 0, 60, 0
1, 224820, Note_on_c, 0, 62, 96
1, 224879, Note_on_c, 0, 62, 0
1, 224880, Note_on_c, 0, 63, 96
1, 225119, Note_on_c, 0, 63, 0
1, 225120, Note_on_c, 0, 65, 96
1, 225359, Note_on_c, 0, 65, 0
1, 225360, Note_on_c, 0, 67, 96
1, 225599, Note_on_c, 0, 67, 0
1, 225600, Note_on_c, 0, 72, 96
1, 225659, Note_on_c, 0, 72, 0
1, 225660, Note_on_c, 0, 67, 96
1, 225719, Note_on_c, 0, 67, 0
1, 225720, Note_on_c, 0, 63, 96
1, 225779, Note_on_c, 0, 63, 0
1, 225780, Note_on_c, 0, 60, 96
1, 225839, Note_on_c, 0, 60, 0
1, 225840, Note_on_c, 0, 55, 96
1, 226079, Note_on_c, 0, 55, 0
1, 226320, Note_on_c, 0, 74, 96
1, 226379, Note_on_c, 0, 74, 0
1, 226380, Note_on_c, 0, 71, 96
1, 226439, Note_on_c, 0, 71, 0
1, 226440, Note_on_c, 0, 67, 96
1, 226499, Note_on_c, 0, 67, 0
1, 226500, Note_on_c, 0, 62, 96
1, 226559, Note_on_c, 0, 62, 0
1, 226560, Note_on_c, 0, 55, 96
1, 226799, Note_on_c, 0, 55, 0
1, 227040, Note_on_c, 0, 75, 96
1, 227099, Note_on_c, 0, 75, 0
1, 227100, Note_on_c, 0, 72, 96
1, 227159, Note_on_c, 0, 72, 0
1, 227160, Note_on_c, 0, 67, 96
1, 227219, Note_on_c, 0, 67, 0
1, 227220, Note_on_c, 0, 63, 96
1, 227279, Note_on_c, 0, 63, 0
1, 227280, Note_on_c, 0, 55, 96
1, 227519, Note_on_c, 0, 55, 0
1, 227760, Note_on_c, 0, 77, 96
1, 227819, Note_on_c, 0, 77, 0
1, 227820, Note_on_c, 0, 74, 96
1, 227879, Note_on_c, 0, 74, 0
1, 227880, Note_on_c, 0, 71, 96
1, 227939, Note_on_c, 0, 71, 0
1, 227940, Note_on_c, 0, 67, 96
1, 227999, Note_on_c, 0, 67, 0
1, 228000, Note_on_c, 0, 55, 96
1, 228239, Note_on_c, 0, 55, 0
1, 228480, Note_on_c, 0, 79, 96
1, 228539, Note_on_c, 0, 79, 0
1, 228540, Note_on_c, 0, 75, 96
1, 228599, Note_on_c, 0, 75, 0
1, 228600, Note_on_c, 0, 72, 96
1, 228659, Note_on_c, 0, 72, 0
1, 228660, Note_on_c, 0, 67, 96
1, 228719, Note_on_c, 0, 67, 0
1, 228720, Note_on_c, 0, 55, 96
1, 228959, Note_on_c, 0, 55, 0
1, 229200, Tempo, 1000000
1, 229200, Note_on_c, 0, 84, 96
1, 229319, Note_on_c, 0, 84, 0
1, 229320, Note_on_c, 0, 82, 96
1, 229439, Note_on_c, 0, 82, 0
1, 229440, Note_on_c, 0, 80, 96
1, 229559, Note_on_c, 0, 80, 0
1, 229560, Note_on_c, 0, 79, 96
1, 229679, Note_on_c, 0, 79, 0
1, 229680, Note_on_c, 0, 77, 96
1, 229799, Note_on_c, 0, 77, 0
1, 229800, Note_on_c, 0, 75, 96
1, 229919, Note_on_c, 0, 75, 0
1, 229920, Note_on_c, 0, 74, 96
1, 230039, Note_on_c, 0, 74, 0
1, 230040, Note_on_c, 0, 72, 96
1, 230159, Note_on_c, 0, 72, 0
1, 230160, Note_on_c, 0, 71, 96
1, 230279, Note_on_c, 0, 71, 0
1, 230280, Note_on_c, 0, 68, 96
1, 230399, Note_on_c, 0, 68, 0
1, 230400, Note_on_c, 0, 67, 96
1, 230519, Note_on_c, 0, 67, 0
1, 230520, Note_on_c, 0, 65, 96
1, 230639, Note_on_c, 0, 65, 0
1, 230640, Note_on_c, 0, 55, 96
1, 230879, Note_on_c, 0, 55, 0
1, 231360, Note_on_c, 0, 79, 96
1, 231599, Note_on_c, 0, 79, 0
1, 231600, Note_on_c, 0, 77, 96
1, 231839, Note_on_c, 0, 77, 0
1, 231840, Note_on_c, 0, 75, 96
1, 232079, Note_on_c, 0, 75, 0
1, 232080, Note_on_c, 0, 74, 96
1, 232319, Note_on_c, 0, 74, 0
1, 232320, Note_on_c, 0, 75, 96
1, 232559, Note_on_c, 0, 75, 0
1, 232560, Note_on_c, 0, 77, 96
1, 232799, Note_on_c, 0, 77, 0
1, 232800, Note_on_c, 0, 79, 96
1, 233039, Note_on_c, 0, 79, 0
1, 233040, Note_on_c, 0, 77, 96
1, 233279, Note_on_c, 0, 77, 0
1, 233280, Note_on_c, 0, 75, 96
1, 233519, Note_on_c, 0, 75, 0
1, 233520, Note_on_c, 0, 74, 96
1, 233759, Note_on_c, 0, 74, 0
1, 233760, Note_on_c, 0, 75, 96
1, 233999, Note_on_c, 0, 75, 0
1, 234000, Note_on_c, 0, 77, 96
1, 234239, Note_on_c, 0, 77, 0
1, 234240, Note_on_c, 0, 79, 96
1, 234479, Note_on_c, 0, 79, 0
1, 234480, Note_on_c, 0, 80, 96
1, 234719, Note_on_c, 0, 80, 0
1, 234720, Note_on_c, 0, 82, 96
1, 234959, Note_on_c, 0, 82, 0
1, 234960, Note_on_c, 0, 80, 96
1, 235199, Note_on_c, 0, 80, 0
1, 235680, Note_on_c, 0, 79, 96
1, 235919, Note_on_c, 0, 79, 0
1, 236400, Note_on_c, 0, 77, 96
1, 236639, Note_on_c, 0, 77, 0
1, 237120, Note_on_c, 0, 80, 96
1, 237359, Note_on_c, 0, 80, 0
1, 237360, Note_on_c, 0, 79, 96
1, 237599, Note_on_c, 0, 79, 0
1, 237840, Note_on_c, 0, 67, 96
1, 238079, Note_on_c, 0, 67, 0
1, 238080, Note_on_c, 0, 65, 96
1, 238319, Note_on_c, 0, 65, 0
1, 238560, Note_on_c, 0, 82, 96
1, 238799, Note_on_c, 0, 82, 0
1, 238800, Note_on_c, 0, 80, 96
1, 239039, Note_on_c, 0, 80, 0
1, 239280, Note_on_c, 0, 68, 96
1, 239519, Note_on_c, 0, 68, 0
1, 239520, Note_on_c, 0, 67, 96
1, 239759, Note_on_c, 0, 67, 0
1, 240000, Note_on_c, 0, 79, 96
1, 240239, Note_on_c, 0, 79, 0
1, 240240, Note_on_c, 0, 80, 96
1, 240479, Note_on_c, 0, 80, 0
1, 240480, Note_on_c, 0, 82, 96
1, 240719, Note_on_c, 0, 82, 0
1, 240960, Note_on_c, 0, 72, 96
1, 241079, Note_on_c, 0, 72, 0
1, 241080, Note_on_c, 0, 74, 96
1, 241199, Note_on_c, 0, 74, 0
1, 241200, Note_on_c, 0, 75, 96
1, 241439, Note_on_c, 0, 75, 0
1, 241680, Note_on_c, 0, 80, 96
1, 241799, Note_on_c, 0, 80, 0
1, 241800, Note_on_c, 0, 79, 96
1, 241919, Note_on_c, 0, 79, 0
1, 241920, Note_on_c, 0, 77, 96
1, 242159, Note_on_c, 0, 77, 0
1, 242160, Note_on_c, 0, 75, 96
1, 242639, Note_on_c, 0, 75, 0
1, 242880, Note_on_c, 0, 79, 49
1, 243119, Note_on_c, 0, 79, 0
1, 243120, Note_on_c, 0, 80, 49
1, 243359, Note_on_c, 0, 80, 0
1, 243360, Note_on_c, 0, 82, 49
1, 243599, Note_on_c, 0, 82, 0
1, 243840, Note_on_c, 0, 72, 49
1, 243959, Note_on_c, 0, 72, 0
1, 243960, Note_on_c, 0, 74, 49
1, 244079, Note_on_c, 0, 74, 0
1, 244080, Note_on_c, 0, 75, 49
1, 244319, Note_on_c, 0, 75, 0
1, 244560, Note_on_c, 0, 80, 49
1, 244679, Note_on_c, 0, 80, 0
1, 244680, Note_on_c, 0, 79, 49
1, 244799, Note_on_c, 0, 79, 0
1, 244800, Note_on_c, 0, 77, 49
1, 245039, Note_on_c, 0, 77, 0
1, 245040, Tempo, 750002
1, 245040, Note_on_c, 0, 75, 96
1, 245099, Note_on_c, 0, 75, 0
1, 245100, Note_on_c, 0, 70, 96
1, 245159, Note_on_c, 0, 70, 0
1, 245160, Note_on_c, 0, 72, 96
1, 245219, Note_on_c, 0, 72, 0
1, 245220, Note_on_c, 0, 74, 96
1, 245279, Note_on_c, 0, 74, 0
1, 245280, Note_on_c, 0, 75, 96
1, 245339, Note_on_c, 0, 75, 0
1, 245340, Note_on_c, 0, 77, 96
1, 245399, Note_on_c, 0, 77, 0
1, 245400, Note_on_c, 0, 79, 96
1, 245459, Note_on_c, 0, 79, 0
1, 245460, Note_on_c, 0, 80, 96
1, 245519, Note_on_c, 0, 80, 0
1, 245520, Note_on_c, 0, 82, 96
1, 245579, Note_on_c, 0, 82, 0
1, 245580, Note_on_c, 0, 80, 96
1, 245639, Note_on_c, 0, 80, 0
1, 245640, Note_on_c, 0, 79, 96
1, 245699, Note_on_c, 0, 79, 0
1, 245700, Note_on_c, 0, 77, 96
1, 245759, Note_on_c, 0, 77, 0
1, 245760, Note_on_c, 0, 75, 96
1, 245819, Note_on_c, 0, 75, 0
1, 245820, Note_on_c, 0, 74, 96
1, 245879, Note_on_c, 0, 74, 0
1, 245880, Note_on_c, 0, 72, 96
1, 245939, Note_on_c, 0, 72, 0
1, 245940, Note_on_c, 0, 70, 96
1, 245999, Note_on_c, 0, 70, 0
1, 246000, Note_on_c, 0, 72, 96
1, 246059, Note_on_c, 0, 72, 0
1, 246060, Note_on_c, 0, 70, 96
1, 246119, Note_on_c, 0, 70, 0
1, 246120, Note_on_c, 0, 68, 96
1, 246179, Note_on_c, 0, 68, 0
1, 246180, Note_on_c, 0, 67, 96
1, 246239, Note_on_c, 0, 67, 0
1, 246240, Note_on_c, 0, 68, 96
1, 246299, Note_on_c, 0, 68, 0
1, 246300, Note_on_c, 0, 67, 96
1, 246359, Note_on_c, 0, 67, 0
1, 246360, Note_on_c, 0, 65, 96
1, 246419, Note_on_c, 0, 65, 0
1, 246420, Note_on_c, 0, 63, 96
1, 246479, Note_on_c, 0, 63, 0
1, 246480, Note_on_c, 0, 62, 96
1, 246539, Note_on_c, 0, 62, 0
1, 246540, Note_on_c, 0, 58, 96
1, 246599, Note_on_c, 0, 58, 0
1, 246600, Note_on_c, 0, 60, 96
1, 246659, Note_on_c, 0, 60, 0
1, 246660, Note_on_c, 0, 62, 96
1, 246719, Note_on_c, 0, 62, 0
1, 246720, Note_on_c, 0, 63, 96
1, 246779, Note_on_c, 0, 63, 0
1, 246780, Note_on_c, 0, 65, 96
1, 246839, Note_on_c, 0, 65, 0
1, 246840, Note_on_c, 0, 67, 96
1, 246899, Note_on_c, 0, 67, 0
1, 246900, Note_on_c, 0, 68, 96
1, 246959, Note_on_c, 0, 68, 0
1, 246960, Note_on_c, 0, 70, 96
1, 247019, Note_on_c, 0, 70, 0
1, 247020, Note_on_c, 0, 68, 96
1, 247079, Note_on_c, 0, 68, 0
1, 247080, Note_on_c, 0, 67, 96
1, 247139, Note_on_c, 0, 67, 0
1, 247140, Note_on_c, 0, 65, 96
1, 247199, Note_on_c, 0, 65, 0
1, 247200, Note_on_c, 0, 67, 96
1, 247259, Note_on_c, 0, 67, 0
1, 247260, Note_on_c, 0, 63, 96
1, 247319, Note_on_c, 0, 63, 0
1, 247320, Note_on_c, 0, 65, 96
1, 247379, Note_on_c, 0, 65, 0
1, 247380, Note_on_c, 0, 67, 96
1, 247439, Note_on_c, 0, 67, 0
1, 247440, Note_on_c, 0, 68, 96
1, 247499, Note_on_c, 0, 68, 0
1, 247500, Note_on_c, 0, 70, 96
1, 247559, Note_on_c, 0, 70, 0
1, 247560, Note_on_c, 0, 72, 96
1, 247619, Note_on_c, 0, 72, 0
1, 247620, Note_on_c, 0, 74, 96
1, 247679, Note_on_c, 0, 74, 0
1, 247680, Note_on_c, 0, 75, 96
1, 247739, Note_on_c, 0, 75, 0
1, 247740, Note_on_c, 0, 77, 96
1, 247799, Note_on_c, 0, 77, 0
1, 247800, Note_on_c, 0, 79, 96
1, 247859, Note_on_c, 0, 79, 0
1, 247860, Note_on_c, 0, 80, 96
1, 247919, Note_on_c, 0, 80, 0
1, 247920, Note_on_c, 0, 77, 96
1, 247979, Note_on_c, 0, 77, 0
1, 247980, Note_on_c, 0, 77, 96
1, 248039, Note_on_c, 0, 77, 0
1, 248040, Note_on_c, 0, 77, 96
1, 248099, Note_on_c, 0, 77, 0
1, 248100, Note_on_c, 0, 77, 96
1, 248159, Note_on_c, 0, 77, 0
1, 248160, Note_on_c, 0, 77, 96
1, 248219, Note_on_c, 0, 77, 0
1, 248220, Note_on_c, 0, 77, 96
1, 248279, Note_on_c, 0, 77, 0
1, 248280, Note_on_c, 0, 77, 96
1, 248339, Note_on_c, 0, 77, 0
1, 248340, Note_on_c, 0, 77, 96
1, 248399, Note_on_c, 0, 77, 0
1, 248400, Note_on_c, 0, 77, 96
1, 248459, Note_on_c, 0, 77, 0
1, 248460, Note_on_c, 0, 77, 96
1, 248519, Note_on_c, 0, 77, 0
1, 248520, Note_on_c, 0, 77, 96
1, 248579, Note_on_c, 0, 77, 0
1, 248580, Note_on_c, 0, 77, 96
1, 248639, Note_on_c, 0, 77, 0
1, 248640, Note_on_c, 0, 76, 96
1, 248699, Note_on_c, 0, 76, 0
1, 248700, Note_on_c, 0, 77, 96
1, 248759, Note_on_c, 0, 77, 0
1, 248760, Note_on_c, 0, 79, 96
1, 248819, Note_on_c, 0, 79, 0
1, 248820, Note_on_c, 0, 77, 96
1, 248879, Note_on_c, 0, 77, 0
1, 248880, Note_on_c, 0, 76, 96
1, 248939, Note_on_c, 0, 76, 0
1, 248940, Note_on_c, 0, 77, 96
1, 248999, Note_on_c, 0, 77, 0
1, 249000, Note_on_c, 0, 76, 96
1, 249059, Note_on_c, 0, 76, 0
1, 249060, Note_on_c, 0, 74, 96
1, 249119, Note_on_c, 0, 74, 0
1, 249120, Note_on_c, 0, 72, 96
1, 249179, Note_on_c, 0, 72, 0
1, 249180, Note_on_c, 0, 74, 96
1, 249239, Note_on_c, 0, 74, 0
1, 249240, Note_on_c, 0, 72, 96
1, 249299, Note_on_c, 0, 72, 0
1, 249300, Note_on_c, 0, 71, 96
1, 249359, Note_on_c, 0, 71, 0
1, 249360, Note_on_c, 0, 72, 96
1, 249419, Note_on_c, 0, 72, 0
1, 249420, Note_on_c, 0, 71, 96
1, 249479, Note_on_c, 0, 71, 0
1, 249480, Note_on_c, 0, 72, 96
1, 249539, Note_on_c, 0, 72, 0
1, 249540, Note_on_c, 0, 74, 96
1, 249599, Note_on_c, 0, 74, 0
1, 249600, Note_on_c, 0, 76, 96
1, 249659, Note_on_c, 0, 76, 0
1, 249660, Note_on_c, 0, 74, 96
1, 249719, Note_on_c, 0, 74, 0
1, 249720, Note_on_c, 0, 76, 96
1, 249779, Note_on_c, 0, 76, 0
1, 249780, Note_on_c, 0, 77, 96
1, 249839, Note_on_c, 0, 77, 0
1, 249840, Note_on_c, 0, 79, 96
1, 249899, Note_on_c, 0, 79, 0
1, 249900, Note_on_c, 0, 80, 96
1, 249959, Note_on_c, 0, 80, 0
1, 249960, Note_on_c, 0, 82, 96
1, 250019, Note_on_c, 0, 82, 0
1, 250020, Note_on_c, 0, 79, 96
1, 250079, Note_on_c, 0, 79, 0
1, 250080, Note_on_c, 0, 80, 96
1, 250139, Note_on_c, 0, 80, 0
1, 250140, Note_on_c, 0, 80, 96
1, 250199, Note_on_c, 0, 80, 0
1, 250200, Note_on_c, 0, 80, 96
1, 250259, Note_on_c, 0, 80, 0
1, 250260, Note_on_c, 0, 80, 96
1, 250319, Note_on_c, 0, 80, 0
1, 250320, Note_on_c, 0, 80, 96
1, 250379, Note_on_c, 0, 80, 0
1, 250380, Note_on_c, 0, 80, 96
1, 250439, Note_on_c, 0, 80, 0
1, 250440, Note_on_c, 0, 80, 96
1, 250499, Note_on_c, 0, 80, 0
1, 250500, Note_on_c, 0, 80, 96
1, 250559, Note_on_c, 0, 80, 0
1, 250560, Note_on_c, 0, 80, 96
1, 250619, Note_on_c, 0, 80, 0
1, 250620, Note_on_c, 0, 80, 96
1, 250679, Note_on_c, 0, 80, 0
1, 250680, Note_on_c, 0, 80, 96
1, 250739, Note_on_c, 0, 80, 0
1, 250740, Note_on_c, 0, 80, 96
1, 250799, Note_on_c, 0, 80, 0
1, 250800, Note_on_c, 0, 80, 96
1, 250859, Note_on_c, 0, 80, 0
1, 250860, Note_on_c, 0, 82, 96
1, 250919, Note_on_c, 0, 82, 0
1, 250920, Note_on_c, 0, 84, 96
1, 250979, Note_on_c, 0, 84, 0
1, 250980, Note_on_c, 0, 82, 96
1, 251039, Note_on_c, 0, 82, 0
1, 251040, Note_on_c, 0, 80, 96
1, 251099, Note_on_c, 0, 80, 0
1, 251100, Note_on_c, 0, 82, 96
1, 251159, Note_on_c, 0, 82, 0
1, 251160, Note_on_c, 0, 80, 96
1, 251219, Note_on_c, 0, 80, 0
1, 251220, Note_on_c, 0, 79, 96
1, 251279, Note_on_c, 0, 79, 0
1, 251280, Note_on_c, 0, 77, 96
1, 251339, Note_on_c, 0, 77, 0
1, 251340, Note_on_c, 0, 79, 96
1, 251399, Note_on_c, 0, 79, 0
1, 251400, Note_on_c, 0, 77, 96
1, 251459, Note_on_c, 0, 77, 0
1, 251460, Note_on_c, 0, 75, 96
1, 251519, Note_on_c, 0, 75, 0
1, 251520, Note_on_c, 0, 73, 96
1, 251579, Note_on_c, 0, 73, 0
1, 251580, Note_on_c, 0, 73, 96
1, 251639, Note_on_c, 0, 73, 0
1, 251640, Note_on_c, 0, 73, 96
1, 251699, Note_on_c, 0, 73, 0
1, 251700, Note_on_c, 0, 73, 96
1, 251759, Note_on_c, 0, 73, 0
1, 251760, Note_on_c, 0, 73, 96
1, 251819, Note_on_c, 0, 73, 0
1, 251820, Note_on_c, 0, 73, 96
1, 251879, Note_on_c, 0, 73, 0
1, 251880, Note_on_c, 0, 73, 96
1, 251939, Note_on_c, 0, 73, 0
1, 251940, Note_on_c, 0, 73, 96
1, 251999, Note_on_c, 0, 73, 0
1, 252000, Note_on_c, 0, 73, 96
1, 252059, Note_on_c, 0, 73, 0
1, 252060, Note_on_c, 0, 73, 96
1, 252119, Note_on_c, 0, 73, 0
1, 252120, Note_on_c, 0, 73, 96
1, 252179, Note_on_c, 0, 73, 0
1, 252180, Note_on_c, 0, 73, 96
1, 252239, Note_on_c, 0, 73, 0
1, 252240, Note_on_c, 0, 82, 96
1, 252299, Note_on_c, 0, 82, 0
1, 252300, Note_on_c, 0, 84, 96
1, 252359, Note_on_c, 0, 84, 0
1, 252360, Note_on_c, 0, 85, 96
1, 252419, Note_on_c, 0, 85, 0
1, 252420, Note_on_c, 0, 84, 96
1, 252479, Note_on_c, 0, 84, 0
1, 252480, Note_on_c, 0, 82, 96
1, 252539, Note_on_c, 0, 82, 0
1, 252540, Note_on_c, 0, 84, 96
1, 252599, Note_on_c, 0, 84, 0
1, 252600, Note_on_c, 0, 82, 96
1, 252659, Note_on_c, 0, 82, 0
1, 252660, Note_on_c, 0, 80, 96
1, 252719, Note_on_c, 0, 80, 0
1, 252720, Note_on_c, 0, 79, 96
1, 252779, Note_on_c, 0, 79, 0
1, 252780, Note_on_c, 0, 80, 96
1, 252839, Note_on_c, 0, 80, 0
1, 252840, Note_on_c, 0, 79, 96
1, 252899, Note_on_c, 0, 79, 0
1, 252900, Note_on_c, 0, 77, 96
1, 252959, Note_on_c, 0, 77, 0
1, 252960, Note_on_c, 0, 75, 96
1, 253019, Note_on_c, 0, 75, 0
1, 253020, Note_on_c, 0, 75, 96
1, 253079, Note_on_c, 0, 75, 0
1, 253080, Note_on_c, 0, 75, 96
1, 253139, Note_on_c, 0, 75, 0
1, 253140, Note_on_c, 0, 75, 96
1, 253199, Note_on_c, 0, 75, 0
1, 253200, Note_on_c, 0, 75, 96
1, 253259, Note_on_c, 0, 75, 0
1, 253260, Note_on_c, 0, 75, 96
1, 253319, Note_on_c, 0, 75, 0
1, 253320, Note_on_c, 0, 75, 96
1, 253379, Note_on_c, 0, 75, 0
1, 253380, Note_on_c, 0, 75, 96
1, 253439, Note_on_c, 0, 75, 0
1, 253440, Note_on_c, 0, 75, 96
1, 253499, Note_on_c, 0, 75, 0
1, 253500, Note_on_c, 0, 75, 96
1, 253559, Note_on_c, 0, 75, 0
1, 253560, Note_on_c, 0, 75, 96
1, 253619, Note_on_c, 0, 75, 0
1, 253620, Note_on_c, 0, 75, 96
1, 253679, Note_on_c, 0, 75, 0
1, 253680, Note_on_c, 0, 84, 96
1, 253739, Note_on_c, 0, 84, 0
1, 253740, Note_on_c, 0, 85, 96
1, 253799, Note_on_c, 0, 85, 0
1, 253800, Note_on_c, 0, 87, 96
1, 253859, Note_on_c, 0, 87, 0
1, 253860, Note_on_c, 0, 85, 96
1, 253919, Note_on_c, 0, 85, 0
1, 253920, Note_on_c, 0, 84, 96
1, 253979, Note_on_c, 0, 84, 0
1, 253980, Note_on_c, 0, 85, 96
1, 254039, Note_on_c, 0, 85, 0
1, 254040, Note_on_c, 0, 84, 96
1, 254099, Note_on_c, 0, 84, 0
1, 254100, Note_on_c, 0, 82, 96
1, 254159, Note_on_c, 0, 82, 0
1, 254160, Note_on_c, 0, 80, 96
1, 254219, Note_on_c, 0, 80, 0
1, 254220, Note_on_c, 0, 82, 96
1, 254279, Note_on_c, 0, 82, 0
1, 254280, Note_on_c, 0, 80, 96
1, 254339, Note_on_c, 0, 80, 0
1, 254340, Note_on_c, 0, 79, 96
1, 254399, Note_on_c, 0, 79, 0
1, 254400, Note_on_c, 0, 77, 96
1, 254459, Note_on_c, 0, 77, 0
1, 254460, Note_on_c, 0, 77, 96
1, 254519, Note_on_c, 0, 77, 0
1, 254520, Note_on_c, 0, 77, 96
1, 254579, Note_on_c, 0, 77, 0
1, 254580, Note_on_c, 0, 77, 96
1, 254639, Note_on_c, 0, 77, 0
1, 254640, Note_on_c, 0, 77, 96
1, 254699, Note_on_c, 0, 77, 0
1, 254700, Note_on_c, 0, 77, 96
1, 254759, Note_on_c, 0, 77, 0
1, 254760, Note_on_c, 0, 77, 96
1, 254819, Note_on_c, 0, 77, 0
1, 254820, Note_on_c, 0, 77, 96
1, 254879, Note_on_c, 0, 77, 0
1, 254880, Note_on_c, 0, 77, 96
1, 254939, Note_on_c, 0, 77, 0
1, 254940, Note_on_c, 0, 77, 96
1, 254999, Note_on_c, 0, 77, 0
1, 255000, Note_on_c, 0, 77, 96
1, 255059, Note_on_c, 0, 77, 0
1, 255060, Note_on_c, 0, 77, 96
1, 255119, Note_on_c, 0, 77, 0
1, 255120, Note_on_c, 0, 85, 96
1, 255179, Note_on_c, 0, 85, 0
1, 255180, Note_on_c, 0, 87, 96
1, 255239, Note_on_c, 0, 87, 0
1, 255240, Note_on_c, 0, 89, 96
1, 255299, Note_on_c, 0, 89, 0
1, 255300, Note_on_c, 0, 87, 96
1, 255359, Note_on_c, 0, 87, 0
1, 255360, Note_on_c, 0, 85, 96
1, 255419, Note_on_c, 0, 85, 0
1, 255420, Note_on_c, 0, 87, 96
1, 255479, Note_on_c, 0, 87, 0
1, 255480, Note_on_c, 0, 85, 96
1, 255539, Note_on_c, 0, 85, 0
1, 255540, Note_on_c, 0, 84, 96
1, 255599, Note_on_c, 0, 84, 0
1, 255600, Note_on_c, 0, 82, 96
1, 255659, Note_on_c, 0, 82, 0
1, 255660, Note_on_c, 0, 84, 96
1, 255719, Note_on_c, 0, 84, 0
1, 255720, Note_on_c, 0, 82, 96
1, 255779, Note_on_c, 0, 82, 0
1, 255780, Note_on_c, 0, 80, 96
1, 255839, Note_on_c, 0, 80, 0
1, 255840, Note_on_c, 0, 79, 96
1, 255899, Note_on_c, 0, 79, 0
1, 255900, Note_on_c, 0, 79, 96
1, 255959, Note_on_c, 0, 79, 0
1, 255960, Note_on_c, 0, 79, 96
1, 256019, Note_on_c, 0, 79, 0
1, 256020, Note_on_c, 0, 79, 96
1, 256079, Note_on_c, 0, 79, 0
1, 256080, Note_on_c, 0, 79, 96
1, 256139, Note_on_c, 0, 79, 0
1, 256140, Note_on_c, 0, 79, 96
1, 256199, Note_on_c, 0, 79, 0
1, 256200, Note_on_c, 0, 79, 96
1, 256259, Note_on_c, 0, 79, 0
1, 256260, Note_on_c, 0, 79, 96
1, 256319, Note_on_c, 0, 79, 0
1, 256320, Note_on_c, 0, 79, 96
1, 256379, Note_on_c, 0, 79, 0
1, 256380, Note_on_c, 0, 79, 96
1, 256439, Note_on_c, 0, 79, 0
1, 256440, Note_on_c, 0, 79, 96
1, 256499, Note_on_c, 0, 79, 0
1, 256500, Note_on_c, 0, 79, 96
1, 256559, Note_on_c, 0, 79, 0
1, 256560, Note_on_c, 0, 88, 96
1, 256619, Note_on_c, 0, 88, 0
1, 256620, Note_on_c, 0, 89, 96
1, 256679, Note_on_c, 0, 89, 0
1, 256680, Note_on_c, 0, 91, 96
1, 256739, Note_on_c, 0, 91, 0
1, 256740, Note_on_c, 0, 89, 96
1, 256799, Note_on_c, 0, 89, 0
1, 256800, Note_on_c, 0, 88, 96
1, 256859, Note_on_c, 0, 88, 0
1, 256860, Note_on_c, 0, 89, 96
1, 256919, Note_on_c, 0, 89, 0
1, 256920, Note_on_c, 0, 91, 96
1, 256979, Note_on_c, 0, 91, 0
1, 256980, Note_on_c, 0, 89, 96
1, 257039, Note_on_c, 0, 89, 0
1, 257040, Note_on_c, 0, 88, 96
1, 257099, Note_on_c, 0, 88, 0
1, 257100, Note_on_c, 0, 85, 96
1, 257159, Note_on_c, 0, 85, 0
1, 257160, Note_on_c, 0, 84, 96
1, 257219, Note_on_c, 0, 84, 0
1, 257220, Note_on_c, 0, 82, 96
1, 257279, Note_on_c, 0, 82, 0
1, 257280, Note_on_c, 0, 80, 96
1, 257339, Note_on_c, 0, 80, 0
1, 257340, Note_on_c, 0, 80, 96
1, 257399, Note_on_c, 0, 80, 0
1, 257400, Note_on_c, 0, 80, 96
1, 257459, Note_on_c, 0, 80, 0
1, 257460, Note_on_c, 0, 80, 96
1, 257519, Note_on_c, 0, 80, 0
1, 257520, Note_on_c, 0, 80, 96
1, 257579, Note_on_c, 0, 80, 0
1, 257580, Note_on_c, 0, 80, 96
1, 257639, Note_on_c, 0, 80, 0
1, 257640, Note_on_c, 0, 80, 96
1, 257699, Note_on_c, 0, 80, 0
1, 257700, Note_on_c, 0, 80, 96
1, 257759, Note_on_c, 0, 80, 0
1, 257760, Note_on_c, 0, 80, 96
1, 257819, Note_on_c, 0, 80, 0
1, 257820, Note_on_c, 0, 80, 96
1, 257879, Note_on_c, 0, 80, 0
1, 257880, Note_on_c, 0, 80, 96
1, 257939, Note_on_c, 0, 80, 0
1, 257940, Note_on_c, 0, 80, 96
1, 257999, Note_on_c, 0, 80, 0
1, 258000, Note_on_c, 0, 80, 96
1, 258059, Note_on_c, 0, 80, 0
1, 258060, Note_on_c, 0, 82, 96
1, 258119, Note_on_c, 0, 82, 0
1, 258120, Note_on_c, 0, 80, 96
1, 258179, Note_on_c, 0, 80, 0
1, 258180, Note_on_c, 0, 79, 96
1, 258239, Note_on_c, 0, 79, 0
1, 258240, Note_on_c, 0, 77, 96
1, 258299, Note_on_c, 0, 77, 0
1, 258300, Note_on_c, 0, 79, 96
1, 258359, Note_on_c, 0, 79, 0
1, 258360, Note_on_c, 0, 77, 96
1, 258419, Note_on_c, 0, 77, 0
1, 258420, Note_on_c, 0, 75, 96
1, 258479, Note_on_c, 0, 75, 0
1, 258480, Note_on_c, 0, 73, 96
1, 258539, Note_on_c, 0, 73, 0
1, 258540, Note_on_c, 0, 75, 96
1, 258599, Note_on_c, 0, 75, 0
1, 258600, Note_on_c, 0, 73, 96
1, 258659, Note_on_c, 0, 73, 0
1, 258660, Note_on_c, 0, 72, 96
1, 258719, Note_on_c, 0, 72, 0
1, 258720, Note_on_c, 0, 70, 96
1, 258779, Note_on_c, 0, 70, 0
1, 258780, Note_on_c, 0, 72, 96
1, 258839, Note_on_c, 0, 72, 0
1, 258840, Note_on_c, 0, 70, 96
1, 258899, Note_on_c, 0, 70, 0
1, 258900, Note_on_c, 0, 68, 96
1, 258959, Note_on_c, 0, 68, 0
1, 258960, Note_on_c, 0, 67, 96
1, 259019, Note_on_c, 0, 67, 0
1, 259020, Note_on_c, 0, 68, 96
1, 259079, Note_on_c, 0, 68, 0
1, 259080, Note_on_c, 0, 67, 96
1, 259139, Note_on_c, 0, 67, 0
1, 259140, Note_on_c, 0, 65, 96
1, 259199, Note_on_c, 0, 65, 0
1, 259200, Note_on_c, 0, 64, 96
1, 259259, Note_on_c, 0, 64, 0
1, 259260, Note_on_c, 0, 65, 96
1, 259319, Note_on_c, 0, 65, 0
1, 259320, Note_on_c, 0, 64, 96
1, 259379, Note_on_c, 0, 64, 0
1, 259380, Note_on_c, 0, 61, 96
1, 259439, Note_on_c, 0, 61, 0
1, 259440, Note_on_c, 0, 60, 96
1, 259499, Note_on_c, 0, 60, 0
1, 259500, Note_on_c, 0, 60, 96
1, 259559, Note_on_c, 0, 60, 0
1, 259560, Note_on_c, 0, 60, 96
1, 259619, Note_on_c, 0, 60, 0
1, 259620, Note_on_c, 0, 60, 96
1, 259679, Note_on_c, 0, 60, 0
1, 259680, Note_on_c, 0, 60, 96
1, 259739, Note_on_c, 0, 60, 0
1, 259740, Note_on_c, 0, 60, 96
1, 259799, Note_on_c, 0, 60, 0
1, 259800, Note_on_c, 0, 60, 96
1, 259859, Note_on_c, 0, 60, 0
1, 259860, Note_on_c, 0, 60, 96
1, 259919, Note_on_c, 0, 60, 0
1, 259920, Note_on_c, 0, 60, 96
1, 259979, Note_on_c, 0, 60, 0
1, 259980, Note_on_c, 0, 60, 96
1, 260039, Note_on_c, 0, 60, 0
1, 260040, Note_on_c, 0, 60, 96
1, 260099, Note_on_c, 0, 60, 0
1, 260100, Note_on_c, 0, 60, 96
1, 260159, Note_on_c, 0, 60, 0
1, 260160, Note_on_c, 0, 58, 96
1, 260219, Note_on_c, 0, 58, 0
1, 260220, Note_on_c, 0, 58, 96
1, 260279, Note_on_c, 0, 58, 0
1, 260280, Note_on_c, 0, 58, 96
1, 260339, Note_on_c, 0, 58, 0
1, 260340, Note_on_c, 0, 58, 96
1, 260399, Note_on_c, 0, 58, 0
1, 260400, Note_on_c, 0, 58, 96
1, 260459, Note_on_c, 0, 58, 0
1, 260460, Note_on_c, 0, 58, 96
1, 260519, Note_on_c, 0, 58, 0
1, 260520, Note_on_c, 0, 58, 96
1, 260579, Note_on_c, 0, 58, 0
1, 260580, Note_on_c, 0, 58, 96
1, 260639, Note_on_c, 0, 58, 0
1, 260640, Note_on_c, 0, 58, 96
1, 260699, Note_on_c, 0, 58, 0
1, 260700, Note_on_c, 0, 58, 96
1, 260759, Note_on_c, 0, 58, 0
1, 260760, Note_on_c, 0, 58, 96
1, 260819, Note_on_c, 0, 58, 0
1, 260820, Note_on_c, 0, 58, 96
1, 260879, Note_on_c, 0, 58, 0
1, 260880, Note_on_c, 0, 56, 96
1, 260939, Note_on_c, 0, 56, 0
1, 260940, Note_on_c, 0, 65, 96
1, 260999, Note_on_c, 0, 65, 0
1, 261000, Note_on_c, 0, 65, 96
1, 261059, Note_on_c, 0, 65, 0
1, 261060, Note_on_c, 0, 65, 96
1, 261119, Note_on_c, 0, 65, 0
1, 261120, Note_on_c, 0, 56, 96
1, 261179, Note_on_c, 0, 56, 0
1, 261180, Note_on_c, 0, 65, 96
1, 261239, Note_on_c, 0, 65, 0
1, 261240, Note_on_c, 0, 65, 96
1, 261299, Note_on_c, 0, 65, 0
1, 261300, Note_on_c, 0, 65, 96
1, 261359, Note_on_c, 0, 65, 0
1, 261360, Note_on_c, 0, 56, 96
1, 261419, Note_on_c, 0, 56, 0
1, 261420, Note_on_c, 0, 65, 96
1, 261479, Note_on_c, 0, 65, 0
1, 261480, Note_on_c, 0, 65, 96
1, 261539, Note_on_c, 0, 65, 0
1, 261540, Note_on_c, 0, 65, 96
1, 261599, Note_on_c, 0, 65, 0
1, 261600, Note_on_c, 0, 55, 96
1, 261659, Note_on_c, 0, 55, 0
1, 261660, Note_on_c, 0, 65, 96
1, 261719, Note_on_c, 0, 65, 0
1, 261720, Note_on_c, 0, 65, 96
1, 261779, Note_on_c, 0, 65, 0
1, 261780, Note_on_c, 0, 65, 96
1, 261839, Note_on_c, 0, 65, 0
1, 261840, Note_on_c, 0, 55, 96
1, 261899, Note_on_c, 0, 55, 0
1, 261900, Note_on_c, 0, 65, 96
1, 261959, Note_on_c, 0, 65, 0
1, 261960, Note_on_c, 0, 65, 96
1, 262019, Note_on_c, 0, 65, 0
1, 262020, Note_on_c, 0, 65, 96
1, 262079, Note_on_c, 0, 65, 0
1, 262080, Note_on_c, 0, 55, 96
1, 262139, Note_on_c, 0, 55, 0
1, 262140, Note_on_c, 0, 65, 96
1, 262199, Note_on_c, 0, 65, 0
1, 262200, Note_on_c, 0, 65, 96
1, 262259, Note_on_c, 0, 65, 0
1, 262260, Note_on_c, 0, 65, 96
1, 262319, Note_on_c, 0, 65, 0
1, 262320, Note_on_c, 0, 55, 96
1, 262379, Note_on_c, 0, 55, 0
1, 262380, Note_on_c, 0, 64, 96
1, 262439, Note_on_c, 0, 64, 0
1, 262440, Note_on_c, 0, 64, 96
1, 262499, Note_on_c, 0, 64, 0
1, 262500, Note_on_c, 0, 64, 96
1, 262559, Note_on_c, 0, 64, 0
1, 262560, Note_on_c, 0, 55, 96
1, 262619, Note_on_c, 0, 55, 0
1, 262620, Note_on_c, 0, 64, 96
1, 262679, Note_on_c, 0, 64, 0
1, 262680, Note_on_c, 0, 64, 96
1, 262739, Note_on_c, 0, 64, 0
1, 262740, Note_on_c, 0, 64, 96
1, 262799, Note_on_c, 0, 64, 0
1, 262800, Note_on_c, 0, 55, 96
1, 262859, Note_on_c, 0, 55, 0
1, 262860, Note_on_c, 0, 64, 96
1, 262919, Note_on_c, 0, 64, 0
1, 262920, Note_on_c, 0, 64, 96
1, 262979, Note_on_c, 0, 64, 0
1, 262980, Note_on_c, 0, 64, 96
1, 263039, Note_on_c, 0, 64, 0
1, 263040, Note_on_c, 0, 65, 96
1, 263099, Note_on_c, 0, 65, 0
1, 263100, Note_on_c, 0, 65, 96
1, 263159, Note_on_c, 0, 65, 0
1, 263160, Note_on_c, 0, 65, 96
1, 263219, Note_on_c, 0, 65, 0
1, 263220, Note_on_c, 0, 65, 96
1, 263279, Note_on_c, 0, 65, 0
1, 263280, Note_on_c, 0, 68, 96
1, 263339, Note_on_c, 0, 68, 0
1, 263340, Note_on_c, 0, 68, 96
1, 263399, Note_on_c, 0, 68, 0
1, 263400, Note_on_c, 0, 68, 96
1, 263459, Note_on_c, 0, 68, 0
1, 263460, Note_on_c, 0, 68, 96
1, 263519, Note_on_c, 0, 68, 0
1, 263520, Note_on_c, 0, 72, 96
1, 263579, Note_on_c, 0, 72, 0
1, 263580, Note_on_c, 0, 72, 96
1, 263639, Note_on_c, 0, 72, 0
1, 263640, Note_on_c, 0, 72, 96
1, 263699, Note_on_c, 0, 72, 0
1, 263700, Note_on_c, 0, 72, 96
1, 263759, Note_on_c, 0, 72, 0
1, 263760, Note_on_c, 0, 80, 96
1, 263819, Note_on_c, 0, 80, 0
1, 263820, Note_on_c, 0, 82, 96
1, 263879, Note_on_c, 0, 82, 0
1, 263880, Note_on_c, 0, 80, 96
1, 263939, Note_on_c, 0, 80, 0
1, 263940, Note_on_c, 0, 79, 96
1, 263999, Note_on_c, 0, 79, 0
1, 264000, Note_on_c, 0, 77, 96
1, 264059, Note_on_c, 0, 77, 0
1, 264060, Note_on_c, 0, 79, 96
1, 264119, Note_on_c, 0, 79, 0
1, 264120, Note_on_c, 0, 77, 96
1, 264179, Note_on_c, 0, 77, 0
1, 264180, Note_on_c, 0, 75, 96
1, 264239, Note_on_c, 0, 75, 0
1, 264240, Note_on_c, 0, 73, 96
1, 264299, Note_on_c, 0, 73, 0
1, 264300, Note_on_c, 0, 75, 96
1, 264359, Note_on_c, 0, 75, 0
1, 264360, Note_on_c, 0, 73, 96
1, 264419, Note_on_c, 0, 73, 0
1, 264420, Note_on_c, 0, 72, 96
1, 264479, Note_on_c, 0, 72, 0
1, 264480, Note_on_c, 0, 70, 96
1, 264539, Note_on_c, 0, 70, 0
1, 264540, Note_on_c, 0, 72, 96
1, 264599, Note_on_c, 0, 72, 0
1, 264600, Note_on_c, 0, 70, 96
1, 264659, Note_on_c, 0, 70, 0
1, 264660, Note_on_c, 0, 68, 96
1, 264719, Note_on_c, 0, 68, 0
1, 264720, Note_on_c, 0, 67, 96
1, 264779, Note_on_c, 0, 67, 0
1, 264780, Note_on_c, 0, 68, 96
1, 264839, Note_on_c, 0, 68, 0
1, 264840, Note_on_c, 0, 67, 96
1, 264899, Note_on_c, 0, 67, 0
1, 264900, Note_on_c, 0, 65, 96
1, 264959, Note_on_c, 0, 65, 0
1, 264960, Note_on_c, 0, 64, 96
1, 265019, Note_on_c, 0, 64, 0
1, 265020, Note_on_c, 0, 65, 96
1, 265079, Note_on_c, 0, 65, 0
1, 265080, Note_on_c, 0, 64, 96
1, 265139, Note_on_c, 0, 64, 0
1, 265140, Note_on_c, 0, 62, 96
1, 265199, Note_on_c, 0, 62, 0
1, 265200, Note_on_c, 0, 60, 96
1, 265259, Note_on_c, 0, 60, 0
1, 265260, Note_on_c, 0, 60, 96
1, 265319, Note_on_c, 0, 60, 0
1, 265320, Note_on_c, 0, 60, 96
1, 265379, Note_on_c, 0, 60, 0
1, 265380, Note_on_c, 0, 60, 96
1, 265439, Note_on_c, 0, 60, 0
1, 265440, Note_on_c, 0, 60, 96
1, 265499, Note_on_c, 0, 60, 0
1, 265500, Note_on_c, 0, 60, 96
1, 265559, Note_on_c, 0, 60, 0
1, 265560, Note_on_c, 0, 60, 96
1, 265619, Note_on_c, 0, 60, 0
1, 265620, Note_on_c, 0, 60, 96
1, 265679, Note_on_c, 0, 60, 0
1, 265680, Note_on_c, 0, 60, 96
1, 265739, Note_on_c, 0, 60, 0
1, 265740, Note_on_c, 0, 60, 96
1, 265799, Note_on_c, 0, 60, 0
1, 265800, Note_on_c, 0, 60, 96
1, 265859, Note_on_c, 0, 60, 0
1, 265860, Note_on_c, 0, 60, 96
1, 265919, Note_on_c, 0, 60, 0
1, 265920, Note_on_c, 0, 58, 96
1, 265979, Note_on_c, 0, 58, 0
1, 265980, Note_on_c, 0, 58, 96
1, 266039, Note_on_c, 0, 58, 0
1, 266040, Note_on_c, 0, 58, 96
1, 266099, Note_on_c, 0, 58, 0
1, 266100, Note_on_c, 0, 58, 96
1, 266159, Note_on_c, 0, 58, 0
1, 266160, Note_on_c, 0, 58, 96
1, 266219, Note_on_c, 0, 58, 0
1, 266220, Note_on_c, 0, 58, 96
1, 266279, Note_on_c, 0, 58, 0
1, 266280, Note_on_c, 0, 58, 96
1, 266339, Note_on_c, 0, 58, 0
1, 266340, Note_on_c, 0, 58, 96
1, 266399, Note_on_c, 0, 58, 0
1, 266400, Note_on_c, 0, 58, 96
1, 266459, Note_on_c, 0, 58, 0
1, 266460, Note_on_c, 0, 58, 96
1, 266519, Note_on_c, 0, 58, 0
1, 266520, Note_on_c, 0, 58, 96
1, 266579, Note_on_c, 0, 58, 0
1, 266580, Note_on_c, 0, 58, 96
1, 266639, Note_on_c, 0, 58, 0
1, 266640, Note_on_c, 0, 56, 96
1, 266699, Note_on_c, 0, 56, 0
1, 266700, Note_on_c, 0, 65, 96
1, 266759, Note_on_c, 0, 65, 0
1, 266760, Note_on_c, 0, 65, 96
1, 266819, Note_on_c, 0, 65, 0
1, 266820, Note_on_c, 0, 65, 96
1, 266879, Note_on_c, 0, 65, 0
1, 266880, Note_on_c, 0, 56, 96
1, 266939, Note_on_c, 0, 56, 0
1, 266940, Note_on_c, 0, 65, 96
1, 266999, Note_on_c, 0, 65, 0
1, 267000, Note_on_c, 0, 65, 96
1, 267059, Note_on_c, 0, 65, 0
1, 267060, Note_on_c, 0, 65, 96
1, 267119, Note_on_c, 0, 65, 0
1, 267120, Note_on_c, 0, 56, 96
1, 267179, Note_on_c, 0, 56, 0
1, 267180, Note_on_c, 0, 65, 96
1, 267239, Note_on_c, 0, 65, 0
1, 267240, Note_on_c, 0, 65, 96
1, 267299, Note_on_c, 0, 65, 0
1, 267300, Note_on_c, 0, 65, 96
1, 267359, Note_on_c, 0, 65, 0
1, 267360, Note_on_c, 0, 55, 96
1, 267419, Note_on_c, 0, 55, 0
1, 267420, Note_on_c, 0, 65, 96
1, 267479, Note_on_c, 0, 65, 0
1, 267480, Note_on_c, 0, 65, 96
1, 267539, Note_on_c, 0, 65, 0
1, 267540, Note_on_c, 0, 65, 96
1, 267599, Note_on_c, 0, 65, 0
1, 267600, Note_on_c, 0, 55, 96
1, 267659, Note_on_c, 0, 55, 0
1, 267660, Note_on_c, 0, 65, 96
1, 267719, Note_on_c, 0, 65, 0
1, 267720, Note_on_c, 0, 65, 96
1, 267779, Note_on_c, 0, 65, 0
1, 267780, Note_on_c, 0, 65, 96
1, 267839, Note_on_c, 0, 65, 0
1, 267840, Note_on_c, 0, 55, 96
1, 267899, Note_on_c, 0, 55, 0
1, 267900, Note_on_c, 0, 65, 96
1, 267959, Note_on_c, 0, 65, 0
1, 267960, Note_on_c, 0, 65, 96
1, 268019, Note_on_c, 0, 65, 0
1, 268020, Note_on_c, 0, 65, 96
1, 268079, Note_on_c, 0, 65, 0
1, 268080, Tempo, 1000000
1, 268080, Note_on_c, 0, 55, 96
1, 268139, Note_on_c, 0, 55, 0
1, 268140, Note_on_c, 0, 64, 96
1, 268199, Note_on_c, 0, 64, 0
1, 268200, Note_on_c, 0, 64, 96
1, 268259, Note_on_c, 0, 64, 0
1, 268260, Note_on_c, 0, 64, 96
1, 268319, Note_on_c, 0, 64, 0
1, 268320, Note_on_c, 0, 55, 96
1, 268379, Note_on_c, 0, 55, 0
1, 268380, Note_on_c, 0, 64, 96
1, 268439, Note_on_c, 0, 64, 0
1, 268440, Note_on_c, 0, 64, 96
1, 268499, Note_on_c, 0, 64, 0
1, 268500, Note_on_c, 0, 64, 96
1, 268559, Note_on_c, 0, 64, 0
1, 268560, Note_on_c, 0, 55, 96
1, 268619, Note_on_c, 0, 55, 0
1, 268620, Note_on_c, 0, 64, 96
1, 268679, Note_on_c, 0, 64, 0
1, 268680, Note_on_c, 0, 64, 96
1, 268739, Note_on_c, 0, 64, 0
1, 268740, Note_on_c, 0, 64, 96
1, 268799, Note_on_c, 0, 64, 0
1, 268800, Note_on_c, 0, 65, 96
1, 269519, Note_on_c, 0, 65, 0
1, 269520, End_track
2, 0, Start_track
2, 0, Key_signature, -4, "major"
2, 0, Program_c, 1, 40
2, 2, Control_c, 1, 7, 100
2, 4, Control_c, 1, 10, 64
2, 6, Control_c, 1, 91, 30
2, 8, Control_c, 1, 93, 30
2, 5760, Note_on_c, 1, 82, 64
2, 5879, Note_on_c, 1, 82, 0
2, 6000, Note_on_c, 1, 82, 64
2, 6119, Note_on_c, 1, 82, 0
2, 6240, Note_on_c, 1, 82, 64
2, 6359, Note_on_c, 1, 82, 0
2, 6480, Note_on_c, 1, 82, 64
2, 6599, Note_on_c, 1, 82, 0
2, 6720, Note_on_c, 1, 82, 64
2, 6839, Note_on_c, 1, 82, 0
2, 6960, Note_on_c, 1, 82, 64
2, 7079, Note_on_c, 1, 82, 0
2, 7200, Note_on_c, 1, 82, 64
2, 7319, Note_on_c, 1, 82, 0
2, 7440, Note_on_c, 1, 82, 64
2, 7559, Note_on_c, 1, 82, 0
2, 7680, Note_on_c, 1, 82, 64
2, 7799, Note_on_c, 1, 82, 0
2, 7920, Note_on_c, 1, 82, 64
2, 8039, Note_on_c, 1, 82, 0
2, 8160, Note_on_c, 1, 82, 64
2, 8279, Note_on_c, 1, 82, 0
2, 8400, Note_on_c, 1, 82, 64
2, 8519, Note_on_c, 1, 82, 0
2, 8640, Note_on_c, 1, 82, 64
2, 8759, Note_on_c, 1, 82, 0
2, 8880, Note_on_c, 1, 82, 64
2, 8999, Note_on_c, 1, 82, 0
2, 9120, Note_on_c, 1, 82, 64
2, 9239, Note_on_c, 1, 82, 0
2, 9360, Note_on_c, 1, 82, 64
2, 9479, Note_on_c, 1, 82, 0
2, 9600, Note_on_c, 1, 80, 64
2, 9719, Note_on_c, 1, 80, 0
2, 9840, Note_on_c, 1, 80, 64
2, 9959, Note_on_c, 1, 80, 0
2, 10080, Note_on_c, 1, 80, 64
2, 10199, Note_on_c, 1, 80, 0
2, 10320, Note_on_c, 1, 80, 64
2, 10439, Note_on_c, 1, 80, 0
2, 10560, Note_on_c, 1, 80, 64
2, 10679, Note_on_c, 1, 80, 0
2, 10800, Note_on_c, 1, 80, 64
2, 10919, Note_on_c, 1, 80, 0
2, 11040, Note_on_c, 1, 80, 64
2, 11159, Note_on_c, 1, 80, 0
2, 11280, Note_on_c, 1, 80, 64
2, 11399, Note_on_c, 1, 80, 0
2, 11520, Note_on_c, 1, 73, 64
2, 11639, Note_on_c, 1, 73, 0
2, 11760, Note_on_c, 1, 73, 64
2, 11879, Note_on_c, 1, 73, 0
2, 12000, Note_on_c, 1, 73, 64
2, 12119, Note_on_c, 1, 73, 0
2, 12240, Note_on_c, 1, 73, 64
2, 12359, Note_on_c, 1, 73, 0
2, 12480, Note_on_c, 1, 73, 64
2, 12599, Note_on_c, 1, 73, 0
2, 12720, Note_on_c, 1, 73, 64
2, 12839, Note_on_c, 1, 73, 0
2, 12960, Note_on_c, 1, 73, 64
2, 13079, Note_on_c, 1, 73, 0
2, 13200, Note_on_c, 1, 73, 64
2, 13319, Note_on_c, 1, 73, 0
2, 13440, Note_on_c, 1, 75, 64
2, 13559, Note_on_c, 1, 75, 0
2, 13680, Note_on_c, 1, 75, 64
2, 13799, Note_on_c, 1, 75, 0
2, 13920, Note_on_c, 1, 75, 64
2, 14039, Note_on_c, 1, 75, 0
2, 14160, Note_on_c, 1, 75, 64
2, 14279, Note_on_c, 1, 75, 0
2, 14400, Note_on_c, 1, 75, 64
2, 14519, Note_on_c, 1, 75, 0
2, 14640, Note_on_c, 1, 75, 64
2, 14759, Note_on_c, 1, 75, 0
2, 14880, Note_on_c, 1, 75, 64
2, 14999, Note_on_c, 1, 75, 0
2, 15120, Note_on_c, 1, 75, 64
2, 15239, Note_on_c, 1, 75, 0
2, 15360, Note_on_c, 1, 74, 64
2, 15479, Note_on_c, 1, 74, 0
2, 15600, Note_on_c, 1, 74, 64
2, 15719, Note_on_c, 1, 74, 0
2, 15840, Note_on_c, 1, 74, 64
2, 15959, Note_on_c, 1, 74, 0
2, 16080, Note_on_c, 1, 74, 64
2, 16199, Note_on_c, 1, 74, 0
2, 16320, Note_on_c, 1, 74, 64
2, 16439, Note_on_c, 1, 74, 0
2, 16560, Note_on_c, 1, 74, 64
2, 16679, Note_on_c, 1, 74, 0
2, 16800, Note_on_c, 1, 74, 64
2, 16919, Note_on_c, 1, 74, 0
2, 17040, Note_on_c, 1, 74, 64
2, 17159, Note_on_c, 1, 74, 0
2, 17280, Note_on_c, 1, 75, 64
2, 17399, Note_on_c, 1, 75, 0
2, 17520, Note_on_c, 1, 75, 64
2, 17639, Note_on_c, 1, 75, 0
2, 17760, Note_on_c, 1, 75, 64
2, 17879, Note_on_c, 1, 75, 0
2, 18000, Note_on_c, 1, 75, 64
2, 18119, Note_on_c, 1, 75, 0
2, 18240, Note_on_c, 1, 75, 64
2, 18359, Note_on_c, 1, 75, 0
2, 18480, Note_on_c, 1, 75, 64
2, 18599, Note_on_c, 1, 75, 0
2, 18720, Note_on_c, 1, 75, 64
2, 18839, Note_on_c, 1, 75, 0
2, 18960, Note_on_c, 1, 75, 64
2, 19079, Note_on_c, 1, 75, 0
2, 19200, Note_on_c, 1, 74, 64
2, 19319, Note_on_c, 1, 74, 0
2, 19440, Note_on_c, 1, 74, 64
2, 19559, Note_on_c, 1, 74, 0
2, 19680, Note_on_c, 1, 74, 64
2, 19799, Note_on_c, 1, 74, 0
2, 19920, Note_on_c, 1, 74, 64
2, 20039, Note_on_c, 1, 74, 0
2, 20160, Note_on_c, 1, 74, 64
2, 20279, Note_on_c, 1, 74, 0
2, 20400, Note_on_c, 1, 74, 64
2, 20519, Note_on_c, 1, 74, 0
2, 20640, Note_on_c, 1, 74, 64
2, 20759, Note_on_c, 1, 74, 0
2, 20880, Note_on_c, 1, 74, 64
2, 20999, Note_on_c, 1, 74, 0
2, 21120, Note_on_c, 1, 72, 96
2, 21599, Note_on_c, 1, 72, 0
2, 24000, Note_on_c, 1, 67, 64
2, 24119, Note_on_c, 1, 67, 0
2, 24240, Note_on_c, 1, 67, 64
2, 24359, Note_on_c, 1, 67, 0
2, 24480, Note_on_c, 1, 67, 64
2, 24599, Note_on_c, 1, 67, 0
2, 24720, Note_on_c, 1, 67, 64
2, 24839, Note_on_c, 1, 67, 0
2, 24960, Note_on_c, 1, 67, 64
2, 25079, Note_on_c, 1, 67, 0
2, 25200, Note_on_c, 1, 67, 64
2, 25319, Note_on_c, 1, 67, 0
2, 25440, Note_on_c, 1, 67, 64
2, 25559, Note_on_c, 1, 67, 0
2, 25680, Note_on_c, 1, 67, 64
2, 25799, Note_on_c, 1, 67, 0
2, 25920, Note_on_c, 1, 67, 64
2, 26399, Note_on_c, 1, 67, 0
2, 28800, Note_on_c, 1, 67, 64
2, 28919, Note_on_c, 1, 67, 0
2, 29040, Note_on_c, 1, 67, 64
2, 29159, Note_on_c, 1, 67, 0
2, 29280, Note_on_c, 1, 67, 64
2, 29399, Note_on_c, 1, 67, 0
2, 29520, Note_on_c, 1, 67, 64
2, 29639, Note_on_c, 1, 67, 0
2, 29760, Note_on_c, 1, 67, 64
2, 29879, Note_on_c, 1, 67, 0
2, 30000, Note_on_c, 1, 67, 64
2, 30119, Note_on_c, 1, 67, 0
2, 30240, Note_on_c, 1, 67, 64
2, 30359, Note_on_c, 1, 67, 0
2, 30480, Note_on_c, 1, 67, 64
2, 30599, Note_on_c, 1, 67, 0
2, 30720, Note_on_c, 1, 67, 64
2, 31199, Note_on_c, 1, 67, 0
2, 34560, Note_on_c, 1, 73, 64
2, 34679, Note_on_c, 1, 73, 0
2, 34800, Note_on_c, 1, 73, 64
2, 34919, Note_on_c, 1, 73, 0
2, 35040, Note_on_c, 1, 73, 64
2, 35159, Note_on_c, 1, 73, 0
2, 35280, Note_on_c, 1, 73, 64
2, 35399, Note_on_c, 1, 73, 0
2, 35520, Note_on_c, 1, 76, 64
2, 35639, Note_on_c, 1, 76, 0
2, 35760, Note_on_c, 1, 76, 64
2, 35879, Note_on_c, 1, 76, 0
2, 36000, Note_on_c, 1, 76, 64
2, 36119, Note_on_c, 1, 76, 0
2, 36240, Note_on_c, 1, 76, 64
2, 36359, Note_on_c, 1, 76, 0
2, 36480, Note_on_c, 1, 77, 64
2, 36539, Note_on_c, 1, 77, 0
2, 36600, Note_on_c, 1, 65, 64
2, 36659, Note_on_c, 1, 65, 0
2, 36720, Note_on_c, 1, 65, 64
2, 36779, Note_on_c, 1, 65, 0
2, 36840, Note_on_c, 1, 65, 64
2, 36899, Note_on_c, 1, 65, 0
2, 36960, Note_on_c, 1, 65, 64
2, 37019, Note_on_c, 1, 65, 0
2, 37080, Note_on_c, 1, 65, 64
2, 37139, Note_on_c, 1, 65, 0
2, 37200, Note_on_c, 1, 65, 64
2, 37259, Note_on_c, 1, 65, 0
2, 37320, Note_on_c, 1, 65, 64
2, 37379, Note_on_c, 1, 65, 0
2, 37440, Note_on_c, 1, 65, 64
2, 37499, Note_on_c, 1, 65, 0
2, 37560, Note_on_c, 1, 65, 64
2, 37619, Note_on_c, 1, 65, 0
2, 37680, Note_on_c, 1, 65, 64
2, 37739, Note_on_c, 1, 65, 0
2, 37800, Note_on_c, 1, 65, 64
2, 37859, Note_on_c, 1, 65, 0
2, 37920, Note_on_c, 1, 65, 64
2, 37979, Note_on_c, 1, 65, 0
2, 38040, Note_on_c, 1, 65, 64
2, 38099, Note_on_c, 1, 65, 0
2, 38160, Note_on_c, 1, 65, 64
2, 38219, Note_on_c, 1, 65, 0
2, 38280, Note_on_c, 1, 65, 64
2, 38339, Note_on_c, 1, 65, 0
2, 38400, Note_on_c, 1, 65, 64
2, 38459, Note_on_c, 1, 65, 0
2, 38520, Note_on_c, 1, 65, 64
2, 38579, Note_on_c, 1, 65, 0
2, 38640, Note_on_c, 1, 65, 64
2, 38699, Note_on_c, 1, 65, 0
2, 38760, Note_on_c, 1, 65, 64
2, 38819, Note_on_c, 1, 65, 0
2, 38880, Note_on_c, 1, 65, 64
2, 38939, Note_on_c, 1, 65, 0
2, 39000, Note_on_c, 1, 65, 64
2, 39059, Note_on_c, 1, 65, 0
2, 39120, Note_on_c, 1, 65, 64
2, 39179, Note_on_c, 1, 65, 0
2, 39240, Note_on_c, 1, 65, 64
2, 39299, Note_on_c, 1, 65, 0
2, 39360, Note_on_c, 1, 65, 64
2, 39419, Note_on_c, 1, 65, 0
2, 39480, Note_on_c, 1, 65, 64
2, 39539, Note_on_c, 1, 65, 0
2, 39600, Note_on_c, 1, 65, 64
2, 39659, Note_on_c, 1, 65, 0
2, 39720, Note_on_c, 1, 65, 64
2, 39779, Note_on_c, 1, 65, 0
2, 39840, Note_on_c, 1, 65, 64
2, 39899, Note_on_c, 1, 65, 0
2, 39960, Note_on_c, 1, 65, 64
2, 40019, Note_on_c, 1, 65, 0
2, 40080, Note_on_c, 1, 65, 64
2, 40139, Note_on_c, 1, 65, 0
2, 40200, Note_on_c, 1, 65, 64
2, 40259, Note_on_c, 1, 65, 0
2, 40320, Note_on_c, 1, 65, 64
2, 40379, Note_on_c, 1, 65, 0
2, 40440, Note_on_c, 1, 65, 64
2, 40499, Note_on_c, 1, 65, 0
2, 40560, Note_on_c, 1, 65, 64
2, 40619, Note_on_c, 1, 65, 0
2, 40680, Note_on_c, 1, 65, 64
2, 40739, Note_on_c, 1, 65, 0
2, 40800, Note_on_c, 1, 65, 64
2, 40859, Note_on_c, 1, 65, 0
2, 40920, Note_on_c, 1, 65, 64
2, 40979, Note_on_c, 1, 65, 0
2, 41040, Note_on_c, 1, 65, 64
2, 41099, Note_on_c, 1, 65, 0
2, 41160, Note_on_c, 1, 65, 64
2, 41219, Note_on_c, 1, 65, 0
2, 41280, Note_on_c, 1, 64, 64
2, 41399, Note_on_c, 1, 64, 0
2, 41400, Note_on_c, 1, 79, 64
2, 41459, Note_on_c, 1, 79, 0
2, 41460, Note_on_c, 1, 79, 64
2, 41519, Note_on_c, 1, 79, 0
2, 41520, Note_on_c, 1, 79, 64
2, 41579, Note_on_c, 1, 79, 0
2, 41580, Note_on_c, 1, 79, 64
2, 41639, Note_on_c, 1, 79, 0
2, 41640, Note_on_c, 1, 79, 64
2, 41699, Note_on_c, 1, 79, 0
2, 41700, Note_on_c, 1, 79, 64
2, 41759, Note_on_c, 1, 79, 0
2, 41760, Note_on_c, 1, 79, 64
2, 41879, Note_on_c, 1, 79, 0
2, 41880, Note_on_c, 1, 79, 64
2, 41999, Note_on_c, 1, 79, 0
2, 42000, Note_on_c, 1, 79, 64
2, 42119, Note_on_c, 1, 79, 0
2, 42120, Note_on_c, 1, 79, 64
2, 42239, Note_on_c, 1, 79, 0
2, 42240, Note_on_c, 1, 80, 112
2, 42359, Note_on_c, 1, 80, 0
2, 42360, Note_on_c, 1, 72, 112
2, 42479, Note_on_c, 1, 72, 0
2, 42480, Note_on_c, 1, 80, 112
2, 42599, Note_on_c, 1, 80, 0
2, 42600, Note_on_c, 1, 72, 112
2, 42719, Note_on_c, 1, 72, 0
2, 42720, Note_on_c, 1, 80, 112
2, 42839, Note_on_c, 1, 80, 0
2, 42840, Note_on_c, 1, 72, 112
2, 42959, Note_on_c, 1, 72, 0
2, 42960, Note_on_c, 1, 80, 112
2, 43079, Note_on_c, 1, 80, 0
2, 43080, Note_on_c, 1, 72, 112
2, 43199, Note_on_c, 1, 72, 0
2, 43200, Note_on_c, 1, 73, 112
2, 43319, Note_on_c, 1, 73, 0
2, 43320, Note_on_c, 1, 73, 112
2, 43379, Note_on_c, 1, 73, 0
2, 43380, Note_on_c, 1, 73, 112
2, 43439, Note_on_c, 1, 73, 0
2, 43440, Note_on_c, 1, 73, 112
2, 43499, Note_on_c, 1, 73, 0
2, 43500, Note_on_c, 1, 73, 112
2, 43559, Note_on_c, 1, 73, 0
2, 43560, Note_on_c, 1, 73, 112
2, 43619, Note_on_c, 1, 73, 0
2, 43620, Note_on_c, 1, 73, 112
2, 43679, Note_on_c, 1, 73, 0
2, 43680, Note_on_c, 1, 73, 112
2, 43799, Note_on_c, 1, 73, 0
2, 43800, Note_on_c, 1, 73, 112
2, 43919, Note_on_c, 1, 73, 0
2, 43920, Note_on_c, 1, 73, 112
2, 44039, Note_on_c, 1, 73, 0
2, 44040, Note_on_c, 1, 73, 112
2, 44159, Note_on_c, 1, 73, 0
2, 44160, Note_on_c, 1, 79, 112
2, 44279, Note_on_c, 1, 79, 0
2, 44280, Note_on_c, 1, 73, 112
2, 44399, Note_on_c, 1, 73, 0
2, 44400, Note_on_c, 1, 79, 112
2, 44519, Note_on_c, 1, 79, 0
2, 44520, Note_on_c, 1, 73, 112
2, 44639, Note_on_c, 1, 73, 0
2, 44640, Note_on_c, 1, 79, 112
2, 44759, Note_on_c, 1, 79, 0
2, 44760, Note_on_c, 1, 73, 112
2, 44879, Note_on_c, 1, 73, 0
2, 44880, Note_on_c, 1, 79, 112
2, 44999, Note_on_c, 1, 79, 0
2, 45000, Note_on_c, 1, 73, 112
2, 45119, Note_on_c, 1, 73, 0
2, 45120, Note_on_c, 1, 72, 112
2, 45239, Note_on_c, 1, 72, 0
2, 45240, Note_on_c, 1, 72, 112
2, 45299, Note_on_c, 1, 72, 0
2, 45300, Note_on_c, 1, 72, 112
2, 45359, Note_on_c, 1, 72, 0
2, 45360, Note_on_c, 1, 72, 112
2, 45419, Note_on_c, 1, 72, 0
2, 45420, Note_on_c, 1, 72, 112
2, 45479, Note_on_c, 1, 72, 0
2, 45480, Note_on_c, 1, 72, 112
2, 45539, Note_on_c, 1, 72, 0
2, 45540, Note_on_c, 1, 72, 112
2, 45599, Note_on_c, 1, 72, 0
2, 45600, Note_on_c, 1, 72, 112
2, 45719, Note_on_c, 1, 72, 0
2, 45720, Note_on_c, 1, 72, 112
2, 45839, Note_on_c, 1, 72, 0
2, 45840, Note_on_c, 1, 72, 112
2, 45959, Note_on_c, 1, 72, 0
2, 45960, Note_on_c, 1, 72, 112
2, 46079, Note_on_c, 1, 72, 0
2, 46080, Note_on_c, 1, 77, 112
2, 46199, Note_on_c, 1, 77, 0
2, 46200, Note_on_c, 1, 72, 112
2, 46319, Note_on_c, 1, 72, 0
2, 46320, Note_on_c, 1, 77, 112
2, 46439, Note_on_c, 1, 77, 0
2, 46440, Note_on_c, 1, 72, 112
2, 46559, Note_on_c, 1, 72, 0
2, 46560, Note_on_c, 1, 77, 112
2, 46679, Note_on_c, 1, 77, 0
2, 46680, Note_on_c, 1, 72, 112
2, 46799, Note_on_c, 1, 72, 0
2, 46800, Note_on_c, 1, 77, 112
2, 46919, Note_on_c, 1, 77, 0
2, 46920, Note_on_c, 1, 72, 112
2, 47039, Note_on_c, 1, 72, 0
2, 47040, Note_on_c, 1, 70, 112
2, 47159, Note_on_c, 1, 70, 0
2, 47160, Note_on_c, 1, 70, 112
2, 47219, Note_on_c, 1, 70, 0
2, 47220, Note_on_c, 1, 70, 112
2, 47279, Note_on_c, 1, 70, 0
2, 47280, Note_on_c, 1, 70, 112
2, 47339, Note_on_c, 1, 70, 0
2, 47340, Note_on_c, 1, 70, 112
2, 47399, Note_on_c, 1, 70, 0
2, 47400, Note_on_c, 1, 70, 112
2, 47459, Note_on_c, 1, 70, 0
2, 47460, Note_on_c, 1, 70, 112
2, 47519, Note_on_c, 1, 70, 0
2, 47520, Note_on_c, 1, 70, 112
2, 47639, Note_on_c, 1, 70, 0
2, 47640, Note_on_c, 1, 70, 112
2, 47759, Note_on_c, 1, 70, 0
2, 47760, Note_on_c, 1, 70, 112
2, 47879, Note_on_c, 1, 70, 0
2, 47880, Note_on_c, 1, 70, 112
2, 47999, Note_on_c, 1, 70, 0
2, 48000, Note_on_c, 1, 76, 112
2, 48119, Note_on_c, 1, 76, 0
2, 48120, Note_on_c, 1, 70, 112
2, 48239, Note_on_c, 1, 70, 0
2, 48240, Note_on_c, 1, 76, 112
2, 48359, Note_on_c, 1, 76, 0
2, 48360, Note_on_c, 1, 70, 112
2, 48479, Note_on_c, 1, 70, 0
2, 48480, Note_on_c, 1, 76, 112
2, 48599, Note_on_c, 1, 76, 0
2, 48600, Note_on_c, 1, 70, 112
2, 48719, Note_on_c, 1, 70, 0
2, 48720, Note_on_c, 1, 76, 112
2, 48839, Note_on_c, 1, 76, 0
2, 48840, Note_on_c, 1, 70, 112
2, 48959, Note_on_c, 1, 70, 0
2, 48960, Note_on_c, 1, 77, 112
2, 49439, Note_on_c, 1, 77, 0
2, 62400, Note_on_c, 1, 64, 64
2, 62459, Note_on_c, 1, 64, 0
2, 62460, Note_on_c, 1, 64, 64
2, 62519, Note_on_c, 1, 64, 0
2, 62520, Note_on_c, 1, 64, 64
2, 62579, Note_on_c, 1, 64, 0
2, 62580, Note_on_c, 1, 64, 64
2, 62639, Note_on_c, 1, 64, 0
2, 62640, Note_on_c, 1, 64, 64
2, 62699, Note_on_c, 1, 64, 0
2, 62700, Note_on_c, 1, 64, 64
2, 62759, Note_on_c, 1, 64, 0
2, 62760, Note_on_c, 1, 64, 64
2, 62819, Note_on_c, 1, 64, 0
2, 62820, Note_on_c, 1, 64, 64
2, 62879, Note_on_c, 1, 64, 0
2, 62880, Note_on_c, 1, 64, 64
2, 62939, Note_on_c, 1, 64, 0
2, 62940, Note_on_c, 1, 64, 64
2, 62999, Note_on_c, 1, 64, 0
2, 63000, Note_on_c, 1, 64, 64
2, 63059, Note_on_c, 1, 64, 0
2, 63060, Note_on_c, 1, 64, 64
2, 63119, Note_on_c, 1, 64, 0
2, 63120, Note_on_c, 1, 64, 64
2, 63179, Note_on_c, 1, 64, 0
2, 63180, Note_on_c, 1, 64, 64
2, 63239, Note_on_c, 1, 64, 0
2, 63240, Note_on_c, 1, 64, 64
2, 63299, Note_on_c, 1, 64, 0
2, 63300, Note_on_c, 1, 64, 64
2, 63359, Note_on_c, 1, 64, 0
2, 63360, Note_on_c, 1, 65, 96
2, 63839, Note_on_c, 1, 65, 0
2, 64320, Note_on_c, 1, 81, 96
2, 64379, Note_on_c, 1, 81, 0
2, 64380, Note_on_c, 1, 81, 96
2, 64439, Note_on_c, 1, 81, 0
2, 64440, Note_on_c, 1, 81, 96
2, 64499, Note_on_c, 1, 81, 0
2, 64500, Note_on_c, 1, 81, 96
2, 64559, Note_on_c, 1, 81, 0
2, 64560, Note_on_c, 1, 81, 96
2, 64619, Note_on_c, 1, 81, 0
2, 64620, Note_on_c, 1, 81, 96
2, 64679, Note_on_c, 1, 81, 0
2, 64680, Note_on_c, 1, 81, 96
2, 64739, Note_on_c, 1, 81, 0
2, 64740, Note_on_c, 1, 81, 96
2, 64799, Note_on_c, 1, 81, 0
2, 64800, Note_on_c, 1, 81, 96
2, 64859, Note_on_c, 1, 81, 0
2, 64860, Note_on_c, 1, 81, 96
2, 64919, Note_on_c, 1, 81, 0
2, 64920, Note_on_c, 1, 81, 96
2, 64979, Note_on_c, 1, 81, 0
2, 64980, Note_on_c, 1, 81, 96
2, 65039, Note_on_c, 1, 81, 0
2, 65040, Note_on_c, 1, 81, 96
2, 65099, Note_on_c, 1, 81, 0
2, 65100, Note_on_c, 1, 81, 96
2, 65159, Note_on_c, 1, 81, 0
2, 65160, Note_on_c, 1, 81, 96
2, 65219, Note_on_c, 1, 81, 0
2, 65220, Note_on_c, 1, 81, 96
2, 65279, Note_on_c, 1, 81, 0
2, 65280, Note_on_c, 1, 82, 96
2, 65759, Note_on_c, 1, 82, 0
2, 66240, Note_on_c, 1, 83, 64
2, 66299, Note_on_c, 1, 83, 0
2, 66300, Note_on_c, 1, 83, 64
2, 66359, Note_on_c, 1, 83, 0
2, 66360, Note_on_c, 1, 83, 64
2, 66419, Note_on_c, 1, 83, 0
2, 66420, Note_on_c, 1, 83, 64
2, 66479, Note_on_c, 1, 83, 0
2, 66480, Note_on_c, 1, 83, 64
2, 66539, Note_on_c, 1, 83, 0
2, 66540, Note_on_c, 1, 83, 64
2, 66599, Note_on_c, 1, 83, 0
2, 66600, Note_on_c, 1, 83, 64
2, 66659, Note_on_c, 1, 83, 0
2, 66660, Note_on_c, 1, 83, 64
2, 66719, Note_on_c, 1, 83, 0
2, 66720, Note_on_c, 1, 83, 64
2, 66779, Note_on_c, 1, 83, 0
2, 66780, Note_on_c, 1, 83, 64
2, 66839, Note_on_c, 1, 83, 0
2, 66840, Note_on_c, 1, 83, 64
2, 66899, Note_on_c, 1, 83, 0
2, 66900, Note_on_c, 1, 83, 64
2, 66959, Note_on_c, 1, 83, 0
2, 66960, Note_on_c, 1, 83, 64
2, 67019, Note_on_c, 1, 83, 0
2, 67020, Note_on_c, 1, 83, 64
2, 67079, Note_on_c, 1, 83, 0
2, 67080, Note_on_c, 1, 83, 64
2, 67139, Note_on_c, 1, 83, 0
2, 67140, Note_on_c, 1, 83, 64
2, 67199, Note_on_c, 1, 83, 0
2, 67200, Note_on_c, 1, 84, 96
2, 67679, Note_on_c, 1, 84, 0
2, 68160, Note_on_c, 1, 74, 64
2, 68219, Note_on_c, 1, 74, 0
2, 68220, Note_on_c, 1, 74, 64
2, 68279, Note_on_c, 1, 74, 0
2, 68280, Note_on_c, 1, 74, 64
2, 68339, Note_on_c, 1, 74, 0
2, 68340, Note_on_c, 1, 74, 64
2, 68399, Note_on_c, 1, 74, 0
2, 68400, Note_on_c, 1, 74, 64
2, 68459, Note_on_c, 1, 74, 0
2, 68460, Note_on_c, 1, 74, 64
2, 68519, Note_on_c, 1, 74, 0
2, 68520, Note_on_c, 1, 74, 64
2, 68579, Note_on_c, 1, 74, 0
2, 68580, Note_on_c, 1, 74, 64
2, 68639, Note_on_c, 1, 74, 0
2, 68640, Note_on_c, 1, 74, 64
2, 68699, Note_on_c, 1, 74, 0
2, 68700, Note_on_c, 1, 74, 64
2, 68759, Note_on_c, 1, 74, 0
2, 68760, Note_on_c, 1, 74, 64
2, 68819, Note_on_c, 1, 74, 0
2, 68820, Note_on_c, 1, 74, 64
2, 68879, Note_on_c, 1, 74, 0
2, 68880, Note_on_c, 1, 74, 64
2, 68939, Note_on_c, 1, 74, 0
2, 68940, Note_on_c, 1, 74, 64
2, 68999, Note_on_c, 1, 74, 0
2, 69000, Note_on_c, 1, 74, 64
2, 69059, Note_on_c, 1, 74, 0
2, 69060, Note_on_c, 1, 74, 64
2, 69119, Note_on_c, 1, 74, 0
2, 69120, Note_on_c, 1, 75, 96
2, 69599, Note_on_c, 1, 75, 0
2, 70080, Note_on_c, 1, 75, 96
2, 70139, Note_on_c, 1, 75, 0
2, 70140, Note_on_c, 1, 75, 96
2, 70199, Note_on_c, 1, 75, 0
2, 70200, Note_on_c, 1, 75, 96
2, 70259, Note_on_c, 1, 75, 0
2, 70260, Note_on_c, 1, 75, 96
2, 70319, Note_on_c, 1, 75, 0
2, 70320, Note_on_c, 1, 75, 96
2, 70379, Note_on_c, 1, 75, 0
2, 70380, Note_on_c, 1, 75, 96
2, 70439, Note_on_c, 1, 75, 0
2, 70440, Note_on_c, 1, 75, 96
2, 70499, Note_on_c, 1, 75, 0
2, 70500, Note_on_c, 1, 75, 96
2, 70559, Note_on_c, 1, 75, 0
2, 70560, Note_on_c, 1, 75, 96
2, 70619, Note_on_c, 1, 75, 0
2, 70620, Note_on_c, 1, 75, 96
2, 70679, Note_on_c, 1, 75, 0
2, 70680, Note_on_c, 1, 75, 96
2, 70739, Note_on_c, 1, 75, 0
2, 70740, Note_on_c, 1, 75, 96
2, 70799, Note_on_c, 1, 75, 0
2, 70800, Note_on_c, 1, 75, 96
2, 70859, Note_on_c, 1, 75, 0
2, 70860, Note_on_c, 1, 75, 96
2, 70919, Note_on_c, 1, 75, 0
2, 70920, Note_on_c, 1, 75, 96
2, 70979, Note_on_c, 1, 75, 0
2, 70980, Note_on_c, 1, 75, 96
2, 71039, Note_on_c, 1, 75, 0
2, 71040, Note_on_c, 1, 74, 96
2, 71099, Note_on_c, 1, 74, 0
2, 71100, Note_on_c, 1, 74, 96
2, 71159, Note_on_c, 1, 74, 0
2, 71160, Note_on_c, 1, 74, 96
2, 71219, Note_on_c, 1, 74, 0
2, 71220, Note_on_c, 1, 74, 96
2, 71279, Note_on_c, 1, 74, 0
2, 71280, Note_on_c, 1, 74, 96
2, 71339, Note_on_c, 1, 74, 0
2, 71340, Note_on_c, 1, 74, 96
2, 71399, Note_on_c, 1, 74, 0
2, 71400, Note_on_c, 1, 74, 96
2, 71459, Note_on_c, 1, 74, 0
2, 71460, Note_on_c, 1, 74, 96
2, 71519, Note_on_c, 1, 74, 0
2, 71520, Note_on_c, 1, 74, 96
2, 71579, Note_on_c, 1, 74, 0
2, 71580, Note_on_c, 1, 74, 96
2, 71639, Note_on_c, 1, 74, 0
2, 71640, Note_on_c, 1, 74, 96
2, 71699, Note_on_c, 1, 74, 0
2, 71700, Note_on_c, 1, 74, 96
2, 71759, Note_on_c, 1, 74, 0
2, 71760, Note_on_c, 1, 74, 96
2, 71819, Note_on_c, 1, 74, 0
2, 71820, Note_on_c, 1, 74, 96
2, 71879, Note_on_c, 1, 74, 0
2, 71880, Note_on_c, 1, 74, 96
2, 71939, Note_on_c, 1, 74, 0
2, 71940, Note_on_c, 1, 74, 96
2, 71999, Note_on_c, 1, 74, 0
2, 72000, Note_on_c, 1, 75, 96
2, 72479, Note_on_c, 1, 75, 0
2, 74880, Note_on_c, 1, 70, 64
2, 74999, Note_on_c, 1, 70, 0
2, 75120, Note_on_c, 1, 70, 64
2, 75239, Note_on_c, 1, 70, 0
2, 75360, Note_on_c, 1, 70, 64
2, 75479, Note_on_c, 1, 70, 0
2, 75600, Note_on_c, 1, 70, 64
2, 75719, Note_on_c, 1, 70, 0
2, 75840, Note_on_c, 1, 70, 64
2, 75959, Note_on_c, 1, 70, 0
2, 76080, Note_on_c, 1, 70, 64
2, 76199, Note_on_c, 1, 70, 0
2, 76320, Note_on_c, 1, 70, 64
2, 76439, Note_on_c, 1, 70, 0
2, 76560, Note_on_c, 1, 70, 64
2, 76679, Note_on_c, 1, 70, 0
2, 76800, Note_on_c, 1, 70, 64
2, 76919, Note_on_c, 1, 70, 0
2, 77040, Note_on_c, 1, 70, 64
2, 77159, Note_on_c, 1, 70, 0
2, 77280, Note_on_c, 1, 70, 64
2, 77399, Note_on_c, 1, 70, 0
2, 77520, Note_on_c, 1, 70, 64
2, 77639, Note_on_c, 1, 70, 0
2, 77760, Note_on_c, 1, 73, 64
2, 77819, Note_on_c, 1, 73, 0
2, 77880, Note_on_c, 1, 73, 64
2, 77939, Note_on_c, 1, 73, 0
2, 78000, Note_on_c, 1, 73, 64
2, 78059, Note_on_c, 1, 73, 0
2, 78120, Note_on_c, 1, 73, 64
2, 78179, Note_on_c, 1, 73, 0
2, 78240, Note_on_c, 1, 73, 64
2, 78299, Note_on_c, 1, 73, 0
2, 78360, Note_on_c, 1, 73, 64
2, 78419, Note_on_c, 1, 73, 0
2, 78480, Note_on_c, 1, 73, 64
2, 78539, Note_on_c, 1, 73, 0
2, 78600, Note_on_c, 1, 73, 64
2, 78659, Note_on_c, 1, 73, 0
2, 78720, Note_on_c, 1, 72, 64
2, 78839, Note_on_c, 1, 72, 0
2, 78960, Note_on_c, 1, 72, 64
2, 79079, Note_on_c, 1, 72, 0
2, 79200, Note_on_c, 1, 72, 64
2, 79319, Note_on_c, 1, 72, 0
2, 79440, Note_on_c, 1, 72, 64
2, 79559, Note_on_c, 1, 72, 0
2, 79680, Note_on_c, 1, 75, 64
2, 79739, Note_on_c, 1, 75, 0
2, 79800, Note_on_c, 1, 75, 64
2, 79859, Note_on_c, 1, 75, 0
2, 79920, Note_on_c, 1, 75, 64
2, 79979, Note_on_c, 1, 75, 0
2, 80040, Note_on_c, 1, 75, 64
2, 80099, Note_on_c, 1, 75, 0
2, 80160, Note_on_c, 1, 75, 64
2, 80219, Note_on_c, 1, 75, 0
2, 80280, Note_on_c, 1, 75, 64
2, 80339, Note_on_c, 1, 75, 0
2, 80400, Note_on_c, 1, 75, 64
2, 80459, Note_on_c, 1, 75, 0
2, 80520, Note_on_c, 1, 75, 64
2, 80579, Note_on_c, 1, 75, 0
2, 80640, Note_on_c, 1, 74, 64
2, 80759, Note_on_c, 1, 74, 0
2, 80880, Note_on_c, 1, 74, 64
2, 80999, Note_on_c, 1, 74, 0
2, 81120, Note_on_c, 1, 74, 64
2, 81239, Note_on_c, 1, 74, 0
2, 81360, Note_on_c, 1, 74, 64
2, 81479, Note_on_c, 1, 74, 0
2, 81600, Note_on_c, 1, 80, 64
2, 81659, Note_on_c, 1, 80, 0
2, 81720, Note_on_c, 1, 80, 64
2, 81779, Note_on_c, 1, 80, 0
2, 81840, Note_on_c, 1, 80, 64
2, 81899, Note_on_c, 1, 80, 0
2, 81960, Note_on_c, 1, 80, 64
2, 82019, Note_on_c, 1, 80, 0
2, 82080, Note_on_c, 1, 80, 64
2, 82139, Note_on_c, 1, 80, 0
2, 82200, Note_on_c, 1, 80, 64
2, 82259, Note_on_c, 1, 80, 0
2, 82320, Note_on_c, 1, 80, 64
2, 82379, Note_on_c, 1, 80, 0
2, 82440, Note_on_c, 1, 80, 64
2, 82499, Note_on_c, 1, 80, 0
2, 82560, Note_on_c, 1, 79, 96
2, 83039, Note_on_c, 1, 79, 0
2, 88320, Note_on_c, 1, 84, 49
2, 88439, Note_on_c, 1, 84, 0
2, 88440, Note_on_c, 1, 84, 49
2, 88559, Note_on_c, 1, 84, 0
2, 88560, Note_on_c, 1, 84, 49
2, 88679, Note_on_c, 1, 84, 0
2, 88680, Note_on_c, 1, 84, 49
2, 88799, Note_on_c, 1, 84, 0
2, 88800, Note_on_c, 1, 84, 49
2, 88919, Note_on_c, 1, 84, 0
2, 88920, Note_on_c, 1, 84, 49
2, 89039, Note_on_c, 1, 84, 0
2, 89040, Note_on_c, 1, 84, 49
2, 89159, Note_on_c, 1, 84, 0
2, 89160, Note_on_c, 1, 84, 49
2, 89279, Note_on_c, 1, 84, 0
2, 89280, Note_on_c, 1, 84, 49
2, 89399, Note_on_c, 1, 84, 0
2, 89400, Note_on_c, 1, 84, 49
2, 89519, Note_on_c, 1, 84, 0
2, 89520, Note_on_c, 1, 84, 49
2, 89639, Note_on_c, 1, 84, 0
2, 89640, Note_on_c, 1, 84, 49
2, 89759, Note_on_c, 1, 84, 0
2, 89760, Note_on_c, 1, 84, 49
2, 89879, Note_on_c, 1, 84, 0
2, 89880, Note_on_c, 1, 84, 49
2, 89999, Note_on_c, 1, 84, 0
2, 90000, Note_on_c, 1, 84, 49
2, 90119, Note_on_c, 1, 84, 0
2, 90120, Note_on_c, 1, 84, 49
2, 90239, Note_on_c, 1, 84, 0
2, 90240, Note_on_c, 1, 82, 49
2, 90359, Note_on_c, 1, 82, 0
2, 90360, Note_on_c, 1, 82, 49
2, 90479, Note_on_c, 1, 82, 0
2, 90480, Note_on_c, 1, 82, 49
2, 90599, Note_on_c, 1, 82, 0
2, 90600, Note_on_c, 1, 82, 49
2, 90719, Note_on_c, 1, 82, 0
2, 90720, Note_on_c, 1, 82, 49
2, 90839, Note_on_c, 1, 82, 0
2, 90840, Note_on_c, 1, 82, 49
2, 90959, Note_on_c, 1, 82, 0
2, 90960, Note_on_c, 1, 82, 49
2, 91079, Note_on_c, 1, 82, 0
2, 91080, Note_on_c, 1, 82, 49
2, 91199, Note_on_c, 1, 82, 0
2, 91200, Note_on_c, 1, 82, 49
2, 91319, Note_on_c, 1, 82, 0
2, 91320, Note_on_c, 1, 82, 49
2, 91439, Note_on_c, 1, 82, 0
2, 91440, Note_on_c, 1, 82, 49
2, 91559, Note_on_c, 1, 82, 0
2, 91560, Note_on_c, 1, 82, 49
2, 91679, Note_on_c, 1, 82, 0
2, 91680, Note_on_c, 1, 82, 49
2, 91799, Note_on_c, 1, 82, 0
2, 91800, Note_on_c, 1, 82, 49
2, 91919, Note_on_c, 1, 82, 0
2, 91920, Note_on_c, 1, 82, 49
2, 92039, Note_on_c, 1, 82, 0
2, 92040, Note_on_c, 1, 82, 49
2, 92159, Note_on_c, 1, 82, 0
2, 92160, Note_on_c, 1, 80, 49
2, 92279, Note_on_c, 1, 80, 0
2, 92280, Note_on_c, 1, 80, 49
2, 92399, Note_on_c, 1, 80, 0
2, 92400, Note_on_c, 1, 80, 49
2, 92519, Note_on_c, 1, 80, 0
2, 92520, Note_on_c, 1, 80, 49
2, 92639, Note_on_c, 1, 80, 0
2, 92640, Note_on_c, 1, 80, 49
2, 92759, Note_on_c, 1, 80, 0
2, 92760, Note_on_c, 1, 80, 49
2, 92879, Note_on_c, 1, 80, 0
2, 92880, Note_on_c, 1, 80, 49
2, 92999, Note_on_c, 1, 80, 0
2, 93000, Note_on_c, 1, 80, 49
2, 93119, Note_on_c, 1, 80, 0
2, 93120, Note_on_c, 1, 80, 49
2, 93239, Note_on_c, 1, 80, 0
2, 93240, Note_on_c, 1, 80, 49
2, 93359, Note_on_c, 1, 80, 0
2, 93360, Note_on_c, 1, 80, 49
2, 93479, Note_on_c, 1, 80, 0
2, 93480, Note_on_c, 1, 80, 49
2, 93599, Note_on_c, 1, 80, 0
2, 93600, Note_on_c, 1, 80, 49
2, 93719, Note_on_c, 1, 80, 0
2, 93720, Note_on_c, 1, 80, 49
2, 93839, Note_on_c, 1, 80, 0
2, 93840, Note_on_c, 1, 80, 49
2, 93959, Note_on_c, 1, 80, 0
2, 93960, Note_on_c, 1, 80, 49
2, 94079, Note_on_c, 1, 80, 0
2, 94080, Note_on_c, 1, 79, 49
2, 94199, Note_on_c, 1, 79, 0
2, 94200, Note_on_c, 1, 79, 49
2, 94319, Note_on_c, 1, 79, 0
2, 94320, Note_on_c, 1, 79, 49
2, 94439, Note_on_c, 1, 79, 0
2, 94440, Note_on_c, 1, 79, 49
2, 94559, Note_on_c, 1, 79, 0
2, 94560, Note_on_c, 1, 79, 49
2, 94679, Note_on_c, 1, 79, 0
2, 94680, Note_on_c, 1, 79, 49
2, 94799, Note_on_c, 1, 79, 0
2, 94800, Note_on_c, 1, 79, 49
2, 94919, Note_on_c, 1, 79, 0
2, 94920, Note_on_c, 1, 79, 49
2, 95039, Note_on_c, 1, 79, 0
2, 95040, Note_on_c, 1, 84, 49
2, 95159, Note_on_c, 1, 84, 0
2, 95160, Note_on_c, 1, 84, 49
2, 95279, Note_on_c, 1, 84, 0
2, 95280, Note_on_c, 1, 84, 49
2, 95399, Note_on_c, 1, 84, 0
2, 95400, Note_on_c, 1, 84, 49
2, 95519, Note_on_c, 1, 84, 0
2, 95520, Note_on_c, 1, 84, 49
2, 95639, Note_on_c, 1, 84, 0
2, 95640, Note_on_c, 1, 84, 49
2, 95759, Note_on_c, 1, 84, 0
2, 95760, Note_on_c, 1, 84, 49
2, 95879, Note_on_c, 1, 84, 0
2, 95880, Note_on_c, 1, 84, 49
2, 95999, Note_on_c, 1, 84, 0
2, 96000, Note_on_c, 1, 84, 49
2, 96119, Note_on_c, 1, 84, 0
2, 96120, Note_on_c, 1, 84, 49
2, 96239, Note_on_c, 1, 84, 0
2, 96240, Note_on_c, 1, 84, 49
2, 96359, Note_on_c, 1, 84, 0
2, 96360, Note_on_c, 1, 84, 49
2, 96479, Note_on_c, 1, 84, 0
2, 96480, Note_on_c, 1, 82, 49
2, 96599, Note_on_c, 1, 82, 0
2, 96600, Note_on_c, 1, 82, 49
2, 96719, Note_on_c, 1, 82, 0
2, 96720, Note_on_c, 1, 82, 49
2, 96839, Note_on_c, 1, 82, 0
2, 96840, Note_on_c, 1, 82, 49
2, 96959, Note_on_c, 1, 82, 0
2, 96960, Note_on_c, 1, 82, 49
2, 97079, Note_on_c, 1, 82, 0
2, 97080, Note_on_c, 1, 82, 49
2, 97199, Note_on_c, 1, 82, 0
2, 97200, Note_on_c, 1, 82, 49
2, 97319, Note_on_c, 1, 82, 0
2, 97320, Note_on_c, 1, 82, 49
2, 97439, Note_on_c, 1, 82, 0
2, 97440, Note_on_c, 1, 80, 49
2, 97559, Note_on_c, 1, 80, 0
2, 97560, Note_on_c, 1, 80, 49
2, 97679, Note_on_c, 1, 80, 0
2, 97680, Note_on_c, 1, 80, 49
2, 97799, Note_on_c, 1, 80, 0
2, 97800, Note_on_c, 1, 80, 49
2, 97919, Note_on_c, 1, 80, 0
2, 97920, Note_on_c, 1, 80, 49
2, 98039, Note_on_c, 1, 80, 0
2, 98040, Note_on_c, 1, 80, 49
2, 98159, Note_on_c, 1, 80, 0
2, 98160, Note_on_c, 1, 80, 49
2, 98279, Note_on_c, 1, 80, 0
2, 98280, Note_on_c, 1, 80, 49
2, 98399, Note_on_c, 1, 80, 0
2, 98400, Note_on_c, 1, 79, 49
2, 98519, Note_on_c, 1, 79, 0
2, 98520, Note_on_c, 1, 79, 49
2, 98639, Note_on_c, 1, 79, 0
2, 98640, Note_on_c, 1, 79, 49
2, 98759, Note_on_c, 1, 79, 0
2, 98760, Note_on_c, 1, 79, 49
2, 98879, Note_on_c, 1, 79, 0
2, 98880, Note_on_c, 1, 79, 49
2, 98999, Note_on_c, 1, 79, 0
2, 99000, Note_on_c, 1, 79, 49
2, 99119, Note_on_c, 1, 79, 0
2, 99120, Note_on_c, 1, 79, 49
2, 99239, Note_on_c, 1, 79, 0
2, 99240, Note_on_c, 1, 79, 49
2, 99359, Note_on_c, 1, 79, 0
2, 99360, Note_on_c, 1, 77, 49
2, 99479, Note_on_c, 1, 77, 0
2, 99480, Note_on_c, 1, 77, 49
2, 99599, Note_on_c, 1, 77, 0
2, 99600, Note_on_c, 1, 77, 49
2, 99719, Note_on_c, 1, 77, 0
2, 99720, Note_on_c, 1, 77, 49
2, 99839, Note_on_c, 1, 77, 0
2, 99840, Note_on_c, 1, 77, 49
2, 99959, Note_on_c, 1, 77, 0
2, 99960, Note_on_c, 1, 77, 49
2, 100079, Note_on_c, 1, 77, 0
2, 100080, Note_on_c, 1, 77, 49
2, 100199, Note_on_c, 1, 77, 0
2, 100200, Note_on_c, 1, 77, 49
2, 100319, Note_on_c, 1, 77, 0
2, 100320, Note_on_c, 1, 75, 49
2, 100439, Note_on_c, 1, 75, 0
2, 100440, Note_on_c, 1, 75, 49
2, 100559, Note_on_c, 1, 75, 0
2, 100560, Note_on_c, 1, 75, 49
2, 100679, Note_on_c, 1, 75, 0
2, 100680, Note_on_c, 1, 75, 49
2, 100799, Note_on_c, 1, 75, 0
2, 100800, Note_on_c, 1, 75, 49
2, 100919, Note_on_c, 1, 75, 0
2, 100920, Note_on_c, 1, 75, 49
2, 101039, Note_on_c, 1, 75, 0
2, 101040, Note_on_c, 1, 75, 49
2, 101159, Note_on_c, 1, 75, 0
2, 101160, Note_on_c, 1, 75, 49
2, 101279, Note_on_c, 1, 75, 0
2, 101280, Note_on_c, 1, 73, 49
2, 101399, Note_on_c, 1, 73, 0
2, 101400, Note_on_c, 1, 73, 49
2, 101519, Note_on_c, 1, 73, 0
2, 101520, Note_on_c, 1, 73, 49
2, 101639, Note_on_c, 1, 73, 0
2, 101640, Note_on_c, 1, 73, 49
2, 101759, Note_on_c, 1, 73, 0
2, 101760, Note_on_c, 1, 76, 49
2, 101879, Note_on_c, 1, 76, 0
2, 101880, Note_on_c, 1, 76, 49
2, 101999, Note_on_c, 1, 76, 0
2, 102000, Note_on_c, 1, 76, 49
2, 102119, Note_on_c, 1, 76, 0
2, 102120, Note_on_c, 1, 76, 49
2, 102239, Note_on_c, 1, 76, 0
2, 102240, Note_on_c, 1, 77, 49
2, 102359, Note_on_c, 1, 77, 0
2, 102360, Note_on_c, 1, 77, 49
2, 102479, Note_on_c, 1, 77, 0
2, 102480, Note_on_c, 1, 77, 49
2, 102599, Note_on_c, 1, 77, 0
2, 102600, Note_on_c, 1, 77, 49
2, 102719, Note_on_c, 1, 77, 0
2, 102720, Note_on_c, 1, 79, 49
2, 102839, Note_on_c, 1, 79, 0
2, 102840, Note_on_c, 1, 79, 49
2, 102959, Note_on_c, 1, 79, 0
2, 102960, Note_on_c, 1, 79, 49
2, 103079, Note_on_c, 1, 79, 0
2, 103080, Note_on_c, 1, 79, 49
2, 103199, Note_on_c, 1, 79, 0
2, 103200, Note_on_c, 1, 80, 49
2, 103319, Note_on_c, 1, 80, 0
2, 103320, Note_on_c, 1, 80, 49
2, 103439, Note_on_c, 1, 80, 0
2, 103440, Note_on_c, 1, 80, 49
2, 103559, Note_on_c, 1, 80, 0
2, 103560, Note_on_c, 1, 80, 49
2, 103679, Note_on_c, 1, 80, 0
2, 103680, Note_on_c, 1, 82, 49
2, 103799, Note_on_c, 1, 82, 0
2, 103800, Note_on_c, 1, 82, 49
2, 103919, Note_on_c, 1, 82, 0
2, 103920, Note_on_c, 1, 82, 49
2, 104039, Note_on_c, 1, 82, 0
2, 104040, Note_on_c, 1, 82, 49
2, 104159, Note_on_c, 1, 82, 0
2, 104160, Note_on_c, 1, 80, 49
2, 104279, Note_on_c, 1, 80, 0
2, 104280, Note_on_c, 1, 80, 49
2, 104399, Note_on_c, 1, 80, 0
2, 104400, Note_on_c, 1, 80, 49
2, 104519, Note_on_c, 1, 80, 0
2, 104520, Note_on_c, 1, 80, 49
2, 104639, Note_on_c, 1, 80, 0
2, 104640, Note_on_c, 1, 79, 49
2, 104759, Note_on_c, 1, 79, 0
2, 104760, Note_on_c, 1, 79, 49
2, 104879, Note_on_c, 1, 79, 0
2, 104880, Note_on_c, 1, 79, 49
2, 104999, Note_on_c, 1, 79, 0
2, 105000, Note_on_c, 1, 79, 49
2, 105119, Note_on_c, 1, 79, 0
2, 105120, Note_on_c, 1, 77, 49
2, 105239, Note_on_c, 1, 77, 0
2, 105240, Note_on_c, 1, 77, 49
2, 105359, Note_on_c, 1, 77, 0
2, 105360, Note_on_c, 1, 77, 49
2, 105479, Note_on_c, 1, 77, 0
2, 105480, Note_on_c, 1, 77, 49
2, 105599, Note_on_c, 1, 77, 0
2, 105600, Note_on_c, 1, 76, 112
2, 105719, Note_on_c, 1, 76, 0
2, 105720, Note_on_c, 1, 79, 112
2, 105779, Note_on_c, 1, 79, 0
2, 105780, Note_on_c, 1, 79, 112
2, 105839, Note_on_c, 1, 79, 0
2, 105840, Note_on_c, 1, 79, 112
2, 105899, Note_on_c, 1, 79, 0
2, 105900, Note_on_c, 1, 79, 112
2, 105959, Note_on_c, 1, 79, 0
2, 105960, Note_on_c, 1, 79, 112
2, 106019, Note_on_c, 1, 79, 0
2, 106020, Note_on_c, 1, 79, 112
2, 106079, Note_on_c, 1, 79, 0
2, 106080, Note_on_c, 1, 79, 112
2, 106199, Note_on_c, 1, 79, 0
2, 106200, Note_on_c, 1, 79, 112
2, 106319, Note_on_c, 1, 79, 0
2, 106320, Note_on_c, 1, 79, 112
2, 106439, Note_on_c, 1, 79, 0
2, 106440, Note_on_c, 1, 79, 112
2, 106559, Note_on_c, 1, 79, 0
2, 106560, Note_on_c, 1, 80, 112
2, 106679, Note_on_c, 1, 80, 0
2, 106680, Note_on_c, 1, 72, 112
2, 106799, Note_on_c, 1, 72, 0
2, 106800, Note_on_c, 1, 80, 112
2, 106919, Note_on_c, 1, 80, 0
2, 106920, Note_on_c, 1, 72, 112
2, 107039, Note_on_c, 1, 72, 0
2, 107040, Note_on_c, 1, 80, 112
2, 107159, Note_on_c, 1, 80, 0
2, 107160, Note_on_c, 1, 72, 112
2, 107279, Note_on_c, 1, 72, 0
2, 107280, Note_on_c, 1, 80, 112
2, 107399, Note_on_c, 1, 80, 0
2, 107400, Note_on_c, 1, 72, 112
2, 107519, Note_on_c, 1, 72, 0
2, 107520, Note_on_c, 1, 73, 112
2, 107639, Note_on_c, 1, 73, 0
2, 107640, Note_on_c, 1, 73, 112
2, 107699, Note_on_c, 1, 73, 0
2, 107700, Note_on_c, 1, 73, 112
2, 107759, Note_on_c, 1, 73, 0
2, 107760, Note_on_c, 1, 73, 112
2, 107819, Note_on_c, 1, 73, 0
2, 107820, Note_on_c, 1, 73, 112
2, 107879, Note_on_c, 1, 73, 0
2, 107880, Note_on_c, 1, 73, 112
2, 107939, Note_on_c, 1, 73, 0
2, 107940, Note_on_c, 1, 73, 112
2, 107999, Note_on_c, 1, 73, 0
2, 108000, Note_on_c, 1, 73, 112
2, 108119, Note_on_c, 1, 73, 0
2, 108120, Note_on_c, 1, 73, 112
2, 108239, Note_on_c, 1, 73, 0
2, 108240, Note_on_c, 1, 73, 112
2, 108359, Note_on_c, 1, 73, 0
2, 108360, Note_on_c, 1, 73, 112
2, 108479, Note_on_c, 1, 73, 0
2, 108480, Note_on_c, 1, 79, 112
2, 108599, Note_on_c, 1, 79, 0
2, 108600, Note_on_c, 1, 73, 112
2, 108719, Note_on_c, 1, 73, 0
2, 108720, Note_on_c, 1, 79, 112
2, 108839, Note_on_c, 1, 79, 0
2, 108840, Note_on_c, 1, 73, 112
2, 108959, Note_on_c, 1, 73, 0
2, 108960, Note_on_c, 1, 79, 112
2, 109079, Note_on_c, 1, 79, 0
2, 109080, Note_on_c, 1, 73, 112
2, 109199, Note_on_c, 1, 73, 0
2, 109200, Note_on_c, 1, 79, 112
2, 109319, Note_on_c, 1, 79, 0
2, 109320, Note_on_c, 1, 73, 112
2, 109439, Note_on_c, 1, 73, 0
2, 109440, Note_on_c, 1, 72, 112
2, 109559, Note_on_c, 1, 72, 0
2, 109560, Note_on_c, 1, 72, 112
2, 109619, Note_on_c, 1, 72, 0
2, 109620, Note_on_c, 1, 72, 112
2, 109679, Note_on_c, 1, 72, 0
2, 109680, Note_on_c, 1, 72, 112
2, 109739, Note_on_c, 1, 72, 0
2, 109740, Note_on_c, 1, 72, 112
2, 109799, Note_on_c, 1, 72, 0
2, 109800, Note_on_c, 1, 72, 112
2, 109859, Note_on_c, 1, 72, 0
2, 109860, Note_on_c, 1, 72, 112
2, 109919, Note_on_c, 1, 72, 0
2, 109920, Note_on_c, 1, 72, 112
2, 110039, Note_on_c, 1, 72, 0
2, 110040, Note_on_c, 1, 72, 112
2, 110159, Note_on_c, 1, 72, 0
2, 110160, Note_on_c, 1, 72, 112
2, 110279, Note_on_c, 1, 72, 0
2, 110280, Note_on_c, 1, 72, 112
2, 110399, Note_on_c, 1, 72, 0
2, 110400, Note_on_c, 1, 77, 112
2, 110519, Note_on_c, 1, 77, 0
2, 110520, Note_on_c, 1, 72, 112
2, 110639, Note_on_c, 1, 72, 0
2, 110640, Note_on_c, 1, 77, 112
2, 110759, Note_on_c, 1, 77, 0
2, 110760, Note_on_c, 1, 72, 112
2, 110879, Note_on_c, 1, 72, 0
2, 110880, Note_on_c, 1, 77, 112
2, 110999, Note_on_c, 1, 77, 0
2, 111000, Note_on_c, 1, 72, 112
2, 111119, Note_on_c, 1, 72, 0
2, 111120, Note_on_c, 1, 77, 112
2, 111239, Note_on_c, 1, 77, 0
2, 111240, Note_on_c, 1, 72, 112
2, 111359, Note_on_c, 1, 72, 0
2, 111360, Note_on_c, 1, 70, 112
2, 111479, Note_on_c, 1, 70, 0
2, 111480, Note_on_c, 1, 70, 112
2, 111539, Note_on_c, 1, 70, 0
2, 111540, Note_on_c, 1, 70, 112
2, 111599, Note_on_c, 1, 70, 0
2, 111600, Note_on_c, 1, 70, 112
2, 111659, Note_on_c, 1, 70, 0
2, 111660, Note_on_c, 1, 70, 112
2, 111719, Note_on_c, 1, 70, 0
2, 111720, Note_on_c, 1, 70, 112
2, 111779, Note_on_c, 1, 70, 0
2, 111780, Note_on_c, 1, 70, 112
2, 111839, Note_on_c, 1, 70, 0
2, 111840, Note_on_c, 1, 70, 112
2, 111959, Note_on_c, 1, 70, 0
2, 111960, Note_on_c, 1, 70, 112
2, 112079, Note_on_c, 1, 70, 0
2, 112080, Note_on_c, 1, 70, 112
2, 112199, Note_on_c, 1, 70, 0
2, 112200, Note_on_c, 1, 70, 112
2, 112319, Note_on_c, 1, 70, 0
2, 112320, Note_on_c, 1, 76, 112
2, 112379, Note_on_c, 1, 76, 0
2, 112380, Note_on_c, 1, 79, 112
2, 112439, Note_on_c, 1, 79, 0
2, 112440, Note_on_c, 1, 82, 112
2, 112499, Note_on_c, 1, 82, 0
2, 112500, Note_on_c, 1, 79, 112
2, 112559, Note_on_c, 1, 79, 0
2, 112560, Note_on_c, 1, 76, 112
2, 112619, Note_on_c, 1, 76, 0
2, 112620, Note_on_c, 1, 79, 112
2, 112679, Note_on_c, 1, 79, 0
2, 112680, Note_on_c, 1, 82, 112
2, 112739, Note_on_c, 1, 82, 0
2, 112740, Note_on_c, 1, 79, 112
2, 112799, Note_on_c, 1, 79, 0
2, 112800, Note_on_c, 1, 76, 112
2, 112859, Note_on_c, 1, 76, 0
2, 112860, Note_on_c, 1, 79, 112
2, 112919, Note_on_c, 1, 79, 0
2, 112920, Note_on_c, 1, 82, 112
2, 112979, Note_on_c, 1, 82, 0
2, 112980, Note_on_c, 1, 79, 112
2, 113039, Note_on_c, 1, 79, 0
2, 113040, Note_on_c, 1, 76, 112
2, 113099, Note_on_c, 1, 76, 0
2, 113100, Note_on_c, 1, 79, 112
2, 113159, Note_on_c, 1, 79, 0
2, 113160, Note_on_c, 1, 82, 112
2, 113219, Note_on_c, 1, 82, 0
2, 113220, Note_on_c, 1, 79, 112
2, 113279, Note_on_c, 1, 79, 0
2, 113280, Note_on_c, 1, 80, 112
2, 113399, Note_on_c, 1, 80, 0
2, 113400, Note_on_c, 1, 80, 112
2, 113459, Note_on_c, 1, 80, 0
2, 113460, Note_on_c, 1, 80, 112
2, 113519, Note_on_c, 1, 80, 0
2, 113520, Note_on_c, 1, 80, 112
2, 113579, Note_on_c, 1, 80, 0
2, 113580, Note_on_c, 1, 80, 112
2, 113639, Note_on_c, 1, 80, 0
2, 113640, Note_on_c, 1, 80, 112
2, 113699, Note_on_c, 1, 80, 0
2, 113700, Note_on_c, 1, 80, 112
2, 113759, Note_on_c, 1, 80, 0
2, 113760, Note_on_c, 1, 80, 112
2, 113879, Note_on_c, 1, 80, 0
2, 113880, Note_on_c, 1, 80, 112
2, 113999, Note_on_c, 1, 80, 0
2, 114000, Note_on_c, 1, 80, 112
2, 114119, Note_on_c, 1, 80, 0
2, 114120, Note_on_c, 1, 80, 112
2, 114239, Note_on_c, 1, 80, 0
2, 114240, Note_on_c, 1, 79, 112
2, 114359, Note_on_c, 1, 79, 0
2, 114360, Note_on_c, 1, 79, 112
2, 114419, Note_on_c, 1, 79, 0
2, 114420, Note_on_c, 1, 79, 112
2, 114479, Note_on_c, 1, 79, 0
2, 114480, Note_on_c, 1, 79, 112
2, 114539, Note_on_c, 1, 79, 0
2, 114540, Note_on_c, 1, 79, 112
2, 114599, Note_on_c, 1, 79, 0
2, 114600, Note_on_c, 1, 79, 112
2, 114659, Note_on_c, 1, 79, 0
2, 114660, Note_on_c, 1, 79, 112
2, 114719, Note_on_c, 1, 79, 0
2, 114720, Note_on_c, 1, 79, 112
2, 114839, Note_on_c, 1, 79, 0
2, 114840, Note_on_c, 1, 79, 112
2, 114959, Note_on_c, 1, 79, 0
2, 114960, Note_on_c, 1, 79, 112
2, 115079, Note_on_c, 1, 79, 0
2, 115080, Note_on_c, 1, 79, 112
2, 115199, Note_on_c, 1, 79, 0
2, 115200, Note_on_c, 1, 79, 112
2, 115319, Note_on_c, 1, 79, 0
2, 115320, Note_on_c, 1, 79, 112
2, 115379, Note_on_c, 1, 79, 0
2, 115380, Note_on_c, 1, 79, 112
2, 115439, Note_on_c, 1, 79, 0
2, 115440, Note_on_c, 1, 79, 112
2, 115499, Note_on_c, 1, 79, 0
2, 115500, Note_on_c, 1, 79, 112
2, 115559, Note_on_c, 1, 79, 0
2, 115560, Note_on_c, 1, 79, 112
2, 115619, Note_on_c, 1, 79, 0
2, 115620, Note_on_c, 1, 79, 112
2, 115679, Note_on_c, 1, 79, 0
2, 115680, Note_on_c, 1, 79, 112
2, 115799, Note_on_c, 1, 79, 0
2, 115800, Note_on_c, 1, 79, 112
2, 115919, Note_on_c, 1, 79, 0
2, 115920, Note_on_c, 1, 79, 112
2, 116039, Note_on_c, 1, 79, 0
2, 116040, Note_on_c, 1, 79, 112
2, 116159, Note_on_c, 1, 79, 0
2, 116160, Note_on_c, 1, 77, 112
2, 116279, Note_on_c, 1, 77, 0
2, 116280, Note_on_c, 1, 68, 112
2, 116339, Note_on_c, 1, 68, 0
2, 116340, Note_on_c, 1, 68, 112
2, 116399, Note_on_c, 1, 68, 0
2, 116400, Note_on_c, 1, 68, 112
2, 116459, Note_on_c, 1, 68, 0
2, 116460, Note_on_c, 1, 68, 112
2, 116519, Note_on_c, 1, 68, 0
2, 116520, Note_on_c, 1, 68, 112
2, 116579, Note_on_c, 1, 68, 0
2, 116580, Note_on_c, 1, 68, 112
2, 116639, Note_on_c, 1, 68, 0
2, 116640, Note_on_c, 1, 68, 112
2, 116759, Note_on_c, 1, 68, 0
2, 116760, Note_on_c, 1, 68, 112
2, 116879, Note_on_c, 1, 68, 0
2, 116880, Note_on_c, 1, 68, 112
2, 116999, Note_on_c, 1, 68, 0
2, 117000, Note_on_c, 1, 68, 112
2, 117119, Note_on_c, 1, 68, 0
2, 117120, Note_on_c, 1, 67, 112
2, 117239, Note_on_c, 1, 67, 0
2, 117240, Note_on_c, 1, 67, 112
2, 117299, Note_on_c, 1, 67, 0
2, 117300, Note_on_c, 1, 67, 112
2, 117359, Note_on_c, 1, 67, 0
2, 117360, Note_on_c, 1, 67, 112
2, 117419, Note_on_c, 1, 67, 0
2, 117420, Note_on_c, 1, 67, 112
2, 117479, Note_on_c, 1, 67, 0
2, 117480, Note_on_c, 1, 67, 112
2, 117539, Note_on_c, 1, 67, 0
2, 117540, Note_on_c, 1, 67, 112
2, 117599, Note_on_c, 1, 67, 0
2, 117600, Note_on_c, 1, 67, 112
2, 117719, Note_on_c, 1, 67, 0
2, 117720, Note_on_c, 1, 67, 112
2, 117839, Note_on_c, 1, 67, 0
2, 117840, Note_on_c, 1, 67, 112
2, 117959, Note_on_c, 1, 67, 0
2, 117960, Note_on_c, 1, 67, 112
2, 118079, Note_on_c, 1, 67, 0
2, 118080, Note_on_c, 1, 67, 112
2, 118199, Note_on_c, 1, 67, 0
2, 118200, Note_on_c, 1, 67, 112
2, 118259, Note_on_c, 1, 67, 0
2, 118260, Note_on_c, 1, 67, 112
2, 118319, Note_on_c, 1, 67, 0
2, 118320, Note_on_c, 1, 67, 112
2, 118379, Note_on_c, 1, 67, 0
2, 118380, Note_on_c, 1, 67, 112
2, 118439, Note_on_c, 1, 67, 0
2, 118440, Note_on_c, 1, 67, 112
2, 118499, Note_on_c, 1, 67, 0
2, 118500, Note_on_c, 1, 67, 112
2, 118559, Note_on_c, 1, 67, 0
2, 118560, Note_on_c, 1, 67, 112
2, 118679, Note_on_c, 1, 67, 0
2, 118680, Note_on_c, 1, 67, 112
2, 118799, Note_on_c, 1, 67, 0
2, 118800, Note_on_c, 1, 67, 112
2, 118919, Note_on_c, 1, 67, 0
2, 118920, Note_on_c, 1, 67, 112
2, 119039, Note_on_c, 1, 67, 0
2, 119040, Note_on_c, 1, 65, 112
2, 120959, Note_on_c, 1, 65, 0
2, 122880, Key_signature, -3, "major"
2, 122880, Note_on_c, 1, 75, 64
2, 122999, Note_on_c, 1, 75, 0
2, 123000, Note_on_c, 1, 79, 64
2, 123119, Note_on_c, 1, 79, 0
2, 123120, Note_on_c, 1, 82, 64
2, 123239, Note_on_c, 1, 82, 0
2, 123240, Note_on_c, 1, 79, 64
2, 123359, Note_on_c, 1, 79, 0
2, 123360, Note_on_c, 1, 75, 64
2, 123479, Note_on_c, 1, 75, 0
2, 123480, Note_on_c, 1, 79, 64
2, 123599, Note_on_c, 1, 79, 0
2, 123600, Note_on_c, 1, 82, 64
2, 123719, Note_on_c, 1, 82, 0
2, 123720, Note_on_c, 1, 79, 64
2, 123839, Note_on_c, 1, 79, 0
2, 123840, Note_on_c, 1, 74, 64
2, 123959, Note_on_c, 1, 74, 0
2, 123960, Note_on_c, 1, 77, 64
2, 124079, Note_on_c, 1, 77, 0
2, 124080, Note_on_c, 1, 82, 64
2, 124199, Note_on_c, 1, 82, 0
2, 124200, Note_on_c, 1, 77, 64
2, 124319, Note_on_c, 1, 77, 0
2, 124320, Note_on_c, 1, 74, 64
2, 124439, Note_on_c, 1, 74, 0
2, 124440, Note_on_c, 1, 77, 64
2, 124559, Note_on_c, 1, 77, 0
2, 124560, Note_on_c, 1, 82, 64
2, 124679, Note_on_c, 1, 82, 0
2, 124680, Note_on_c, 1, 77, 64
2, 124799, Note_on_c, 1, 77, 0
2, 124800, Note_on_c, 1, 74, 64
2, 124919, Note_on_c, 1, 74, 0
2, 124920, Note_on_c, 1, 77, 64
2, 125039, Note_on_c, 1, 77, 0
2, 125040, Note_on_c, 1, 80, 64
2, 125159, Note_on_c, 1, 80, 0
2, 125160, Note_on_c, 1, 77, 64
2, 125279, Note_on_c, 1, 77, 0
2, 125280, Note_on_c, 1, 74, 64
2, 125399, Note_on_c, 1, 74, 0
2, 125400, Note_on_c, 1, 77, 64
2, 125519, Note_on_c, 1, 77, 0
2, 125520, Note_on_c, 1, 80, 64
2, 125639, Note_on_c, 1, 80, 0
2, 125640, Note_on_c, 1, 77, 64
2, 125759, Note_on_c, 1, 77, 0
2, 125760, Note_on_c, 1, 75, 64
2, 125879, Note_on_c, 1, 75, 0
2, 125880, Note_on_c, 1, 79, 64
2, 125999, Note_on_c, 1, 79, 0
2, 126000, Note_on_c, 1, 82, 64
2, 126119, Note_on_c, 1, 82, 0
2, 126120, Note_on_c, 1, 79, 64
2, 126239, Note_on_c, 1, 79, 0
2, 126240, Note_on_c, 1, 75, 64
2, 126359, Note_on_c, 1, 75, 0
2, 126360, Note_on_c, 1, 79, 64
2, 126479, Note_on_c, 1, 79, 0
2, 126480, Note_on_c, 1, 82, 64
2, 126599, Note_on_c, 1, 82, 0
2, 126600, Note_on_c, 1, 79, 64
2, 126719, Note_on_c, 1, 79, 0
2, 126720, Note_on_c, 1, 77, 64
2, 126839, Note_on_c, 1, 77, 0
2, 126840, Note_on_c, 1, 74, 64
2, 126959, Note_on_c, 1, 74, 0
2, 126960, Note_on_c, 1, 82, 64
2, 127079, Note_on_c, 1, 82, 0
2, 127080, Note_on_c, 1, 80, 64
2, 127199, Note_on_c, 1, 80, 0
2, 127200, Note_on_c, 1, 79, 64
2, 127319, Note_on_c, 1, 79, 0
2, 127320, Note_on_c, 1, 77, 64
2, 127439, Note_on_c, 1, 77, 0
2, 127440, Note_on_c, 1, 75, 64
2, 127559, Note_on_c, 1, 75, 0
2, 127560, Note_on_c, 1, 74, 64
2, 127679, Note_on_c, 1, 74, 0
2, 127680, Note_on_c, 1, 79, 64
2, 127799, Note_on_c, 1, 79, 0
2, 127800, Note_on_c, 1, 72, 64
2, 127919, Note_on_c, 1, 72, 0
2, 127920, Note_on_c, 1, 80, 64
2, 128039, Note_on_c, 1, 80, 0
2, 128040, Note_on_c, 1, 79, 64
2, 128159, Note_on_c, 1, 79, 0
2, 128160, Note_on_c, 1, 77, 64
2, 128279, Note_on_c, 1, 77, 0
2, 128280, Note_on_c, 1, 75, 64
2, 128399, Note_on_c, 1, 75, 0
2, 128400, Note_on_c, 1, 74, 64
2, 128519, Note_on_c, 1, 74, 0
2, 128520, Note_on_c, 1, 72, 64
2, 128639, Note_on_c, 1, 72, 0
2, 128640, Note_on_c, 1, 77, 64
2, 128759, Note_on_c, 1, 77, 0
2, 128760, Note_on_c, 1, 70, 64
2, 128879, Note_on_c, 1, 70, 0
2, 128880, Note_on_c, 1, 79, 64
2, 128999, Note_on_c, 1, 79, 0
2, 129000, Note_on_c, 1, 77, 64
2, 129119, Note_on_c, 1, 77, 0
2, 129120, Note_on_c, 1, 75, 64
2, 129239, Note_on_c, 1, 75, 0
2, 129240, Note_on_c, 1, 74, 64
2, 129359, Note_on_c, 1, 74, 0
2, 129360, Note_on_c, 1, 72, 64
2, 129479, Note_on_c, 1, 72, 0
2, 129480, Note_on_c, 1, 70, 64
2, 129599, Note_on_c, 1, 70, 0
2, 129600, Note_on_c, 1, 75, 64
2, 129719, Note_on_c, 1, 75, 0
2, 129720, Note_on_c, 1, 68, 64
2, 129839, Note_on_c, 1, 68, 0
2, 129840, Note_on_c, 1, 77, 64
2, 129959, Note_on_c, 1, 77, 0
2, 129960, Note_on_c, 1, 75, 64
2, 130079, Note_on_c, 1, 75, 0
2, 130080, Note_on_c, 1, 74, 64
2, 130199, Note_on_c, 1, 74, 0
2, 130200, Note_on_c, 1, 72, 64
2, 130319, Note_on_c, 1, 72, 0
2, 130320, Note_on_c, 1, 70, 64
2, 130439, Note_on_c, 1, 70, 0
2, 130440, Note_on_c, 1, 69, 64
2, 130559, Note_on_c, 1, 69, 0
2, 130560, Note_on_c, 1, 74, 64
2, 130679, Note_on_c, 1, 74, 0
2, 130680, Note_on_c, 1, 77, 64
2, 130799, Note_on_c, 1, 77, 0
2, 130800, Note_on_c, 1, 82, 64
2, 130919, Note_on_c, 1, 82, 0
2, 130920, Note_on_c, 1, 77, 64
2, 131039, Note_on_c, 1, 77, 0
2, 131040, Note_on_c, 1, 74, 64
2, 131159, Note_on_c, 1, 74, 0
2, 131160, Note_on_c, 1, 77, 64
2, 131279, Note_on_c, 1, 77, 0
2, 131280, Note_on_c, 1, 82, 64
2, 131399, Note_on_c, 1, 82, 0
2, 131400, Note_on_c, 1, 77, 64
2, 131519, Note_on_c, 1, 77, 0
2, 131520, Note_on_c, 1, 74, 64
2, 131639, Note_on_c, 1, 74, 0
2, 131640, Note_on_c, 1, 77, 64
2, 131759, Note_on_c, 1, 77, 0
2, 131760, Note_on_c, 1, 82, 64
2, 131879, Note_on_c, 1, 82, 0
2, 131880, Note_on_c, 1, 77, 64
2, 131999, Note_on_c, 1, 77, 0
2, 132000, Note_on_c, 1, 74, 64
2, 132119, Note_on_c, 1, 74, 0
2, 132120, Note_on_c, 1, 77, 64
2, 132239, Note_on_c, 1, 77, 0
2, 132240, Note_on_c, 1, 82, 64
2, 132359, Note_on_c, 1, 82, 0
2, 132360, Note_on_c, 1, 77, 64
2, 132479, Note_on_c, 1, 77, 0
2, 132480, Note_on_c, 1, 75, 64
2, 132599, Note_on_c, 1, 75, 0
2, 132600, Note_on_c, 1, 79, 64
2, 132719, Note_on_c, 1, 79, 0
2, 132720, Note_on_c, 1, 82, 64
2, 132839, Note_on_c, 1, 82, 0
2, 132840, Note_on_c, 1, 79, 64
2, 132959, Note_on_c, 1, 79, 0
2, 132960, Note_on_c, 1, 75, 64
2, 133079, Note_on_c, 1, 75, 0
2, 133080, Note_on_c, 1, 79, 64
2, 133199, Note_on_c, 1, 79, 0
2, 133200, Note_on_c, 1, 82, 64
2, 133319, Note_on_c, 1, 82, 0
2, 133320, Note_on_c, 1, 79, 64
2, 133439, Note_on_c, 1, 79, 0
2, 133440, Note_on_c, 1, 77, 64
2, 133559, Note_on_c, 1, 77, 0
2, 133560, Note_on_c, 1, 81, 64
2, 133679, Note_on_c, 1, 81, 0
2, 133680, Note_on_c, 1, 84, 64
2, 133799, Note_on_c, 1, 84, 0
2, 133800, Note_on_c, 1, 81, 64
2, 133919, Note_on_c, 1, 81, 0
2, 133920, Note_on_c, 1, 77, 64
2, 134039, Note_on_c, 1, 77, 0
2, 134040, Note_on_c, 1, 81, 64
2, 134159, Note_on_c, 1, 81, 0
2, 134160, Note_on_c, 1, 84, 64
2, 134279, Note_on_c, 1, 84, 0
2, 134280, Note_on_c, 1, 81, 64
2, 134399, Note_on_c, 1, 81, 0
2, 134400, Note_on_c, 1, 74, 64
2, 134519, Note_on_c, 1, 74, 0
2, 134520, Note_on_c, 1, 77, 64
2, 134639, Note_on_c, 1, 77, 0
2, 134640, Note_on_c, 1, 82, 64
2, 134759, Note_on_c, 1, 82, 0
2, 134760, Note_on_c, 1, 77, 64
2, 134879, Note_on_c, 1, 77, 0
2, 134880, Note_on_c, 1, 74, 64
2, 134999, Note_on_c, 1, 74, 0
2, 135000, Note_on_c, 1, 77, 64
2, 135119, Note_on_c, 1, 77, 0
2, 135120, Note_on_c, 1, 82, 64
2, 135239, Note_on_c, 1, 82, 0
2, 135240, Note_on_c, 1, 77, 64
2, 135359, Note_on_c, 1, 77, 0
2, 135360, Note_on_c, 1, 72, 64
2, 135479, Note_on_c, 1, 72, 0
2, 135480, Note_on_c, 1, 77, 64
2, 135599, Note_on_c, 1, 77, 0
2, 135600, Note_on_c, 1, 82, 64
2, 135719, Note_on_c, 1, 82, 0
2, 135720, Note_on_c, 1, 77, 64
2, 135839, Note_on_c, 1, 77, 0
2, 135840, Note_on_c, 1, 72, 64
2, 135959, Note_on_c, 1, 72, 0
2, 135960, Note_on_c, 1, 77, 64
2, 136079, Note_on_c, 1, 77, 0
2, 136080, Note_on_c, 1, 82, 64
2, 136199, Note_on_c, 1, 82, 0
2, 136200, Note_on_c, 1, 77, 64
2, 136319, Note_on_c, 1, 77, 0
2, 136320, Note_on_c, 1, 72, 64
2, 136439, Note_on_c, 1, 72, 0
2, 136440, Note_on_c, 1, 77, 64
2, 136559, Note_on_c, 1, 77, 0
2, 136560, Note_on_c, 1, 81, 64
2, 136679, Note_on_c, 1, 81, 0
2, 136680, Note_on_c, 1, 77, 64
2, 136799, Note_on_c, 1, 77, 0
2, 136800, Note_on_c, 1, 72, 64
2, 136919, Note_on_c, 1, 72, 0
2, 136920, Note_on_c, 1, 77, 64
2, 137039, Note_on_c, 1, 77, 0
2, 137040, Note_on_c, 1, 81, 64
2, 137159, Note_on_c, 1, 81, 0
2, 137160, Note_on_c, 1, 72, 64
2, 137279, Note_on_c, 1, 72, 0
2, 137280, Note_on_c, 1, 70, 64
2, 137399, Note_on_c, 1, 70, 0
2, 137400, Note_on_c, 1, 74, 64
2, 137519, Note_on_c, 1, 74, 0
2, 137520, Note_on_c, 1, 77, 64
2, 137639, Note_on_c, 1, 77, 0
2, 137640, Note_on_c, 1, 74, 64
2, 137759, Note_on_c, 1, 74, 0
2, 137760, Note_on_c, 1, 70, 64
2, 137879, Note_on_c, 1, 70, 0
2, 137880, Note_on_c, 1, 74, 64
2, 137999, Note_on_c, 1, 74, 0
2, 138000, Note_on_c, 1, 77, 64
2, 138119, Note_on_c, 1, 77, 0
2, 138120, Note_on_c, 1, 74, 64
2, 138239, Note_on_c, 1, 74, 0
2, 138240, Note_on_c, 1, 70, 64
2, 138359, Note_on_c, 1, 70, 0
2, 138360, Note_on_c, 1, 74, 64
2, 138479, Note_on_c, 1, 74, 0
2, 138480, Note_on_c, 1, 77, 64
2, 138599, Note_on_c, 1, 77, 0
2, 138600, Note_on_c, 1, 74, 64
2, 138719, Note_on_c, 1, 74, 0
2, 138720, Note_on_c, 1, 70, 64
2, 138839, Note_on_c, 1, 70, 0
2, 138840, Note_on_c, 1, 74, 64
2, 138959, Note_on_c, 1, 74, 0
2, 138960, Note_on_c, 1, 77, 64
2, 139079, Note_on_c, 1, 77, 0
2, 139080, Note_on_c, 1, 74, 64
2, 139199, Note_on_c, 1, 74, 0
2, 139200, Note_on_c, 1, 69, 64
2, 139319, Note_on_c, 1, 69, 0
2, 139320, Note_on_c, 1, 72, 64
2, 139439, Note_on_c, 1, 72, 0
2, 139440, Note_on_c, 1, 77, 64
2, 139559, Note_on_c, 1, 77, 0
2, 139560, Note_on_c, 1, 72, 64
2, 139679, Note_on_c, 1, 72, 0
2, 139680, Note_on_c, 1, 69, 64
2, 139799, Note_on_c, 1, 69, 0
2, 139800, Note_on_c, 1, 72, 64
2, 139919, Note_on_c, 1, 72, 0
2, 139920, Note_on_c, 1, 77, 64
2, 140039, Note_on_c, 1, 77, 0
2, 140040, Note_on_c, 1, 72, 64
2, 140159, Note_on_c, 1, 72, 0
2, 140160, Note_on_c, 1, 69, 64
2, 140279, Note_on_c, 1, 69, 0
2, 140280, Note_on_c, 1, 72, 64
2, 140399, Note_on_c, 1, 72, 0
2, 140400, Note_on_c, 1, 75, 64
2, 140519, Note_on_c, 1, 75, 0
2, 140520, Note_on_c, 1, 72, 64
2, 140639, Note_on_c, 1, 72, 0
2, 140640, Note_on_c, 1, 69, 64
2, 140759, Note_on_c, 1, 69, 0
2, 140760, Note_on_c, 1, 72, 64
2, 140879, Note_on_c, 1, 72, 0
2, 140880, Note_on_c, 1, 75, 64
2, 140999, Note_on_c, 1, 75, 0
2, 141000, Note_on_c, 1, 72, 64
2, 141119, Note_on_c, 1, 72, 0
2, 141120, Note_on_c, 1, 74, 64
2, 141239, Note_on_c, 1, 74, 0
2, 141240, Note_on_c, 1, 77, 64
2, 141359, Note_on_c, 1, 77, 0
2, 141360, Note_on_c, 1, 82, 64
2, 141479, Note_on_c, 1, 82, 0
2, 141480, Note_on_c, 1, 77, 64
2, 141599, Note_on_c, 1, 77, 0
2, 141600, Note_on_c, 1, 74, 64
2, 141719, Note_on_c, 1, 74, 0
2, 141720, Note_on_c, 1, 77, 64
2, 141839, Note_on_c, 1, 77, 0
2, 141840, Note_on_c, 1, 82, 64
2, 141959, Note_on_c, 1, 82, 0
2, 141960, Note_on_c, 1, 77, 64
2, 142079, Note_on_c, 1, 77, 0
2, 142080, Note_on_c, 1, 74, 64
2, 142199, Note_on_c, 1, 74, 0
2, 142200, Note_on_c, 1, 77, 64
2, 142319, Note_on_c, 1, 77, 0
2, 142320, Note_on_c, 1, 80, 64
2, 142439, Note_on_c, 1, 80, 0
2, 142440, Note_on_c, 1, 77, 64
2, 142559, Note_on_c, 1, 77, 0
2, 142560, Note_on_c, 1, 74, 64
2, 142679, Note_on_c, 1, 74, 0
2, 142680, Note_on_c, 1, 77, 64
2, 142799, Note_on_c, 1, 77, 0
2, 142800, Note_on_c, 1, 80, 64
2, 142919, Note_on_c, 1, 80, 0
2, 142920, Note_on_c, 1, 77, 64
2, 143039, Note_on_c, 1, 77, 0
2, 143040, Note_on_c, 1, 75, 64
2, 143159, Note_on_c, 1, 75, 0
2, 143160, Note_on_c, 1, 79, 64
2, 143279, Note_on_c, 1, 79, 0
2, 143280, Note_on_c, 1, 82, 64
2, 143399, Note_on_c, 1, 82, 0
2, 143400, Note_on_c, 1, 79, 64
2, 143519, Note_on_c, 1, 79, 0
2, 143520, Note_on_c, 1, 75, 64
2, 143639, Note_on_c, 1, 75, 0
2, 143640, Note_on_c, 1, 79, 64
2, 143759, Note_on_c, 1, 79, 0
2, 143760, Note_on_c, 1, 82, 64
2, 143879, Note_on_c, 1, 82, 0
2, 143880, Note_on_c, 1, 79, 64
2, 143999, Note_on_c, 1, 79, 0
2, 144000, Note_on_c, 1, 75, 64
2, 144119, Note_on_c, 1, 75, 0
2, 144120, Note_on_c, 1, 80, 64
2, 144239, Note_on_c, 1, 80, 0
2, 144240, Note_on_c, 1, 75, 64
2, 144359, Note_on_c, 1, 75, 0
2, 144360, Note_on_c, 1, 80, 64
2, 144479, Note_on_c, 1, 80, 0
2, 144480, Note_on_c, 1, 77, 64
2, 144599, Note_on_c, 1, 77, 0
2, 144600, Note_on_c, 1, 80, 64
2, 144719, Note_on_c, 1, 80, 0
2, 144720, Note_on_c, 1, 77, 64
2, 144839, Note_on_c, 1, 77, 0
2, 144840, Note_on_c, 1, 80, 64
2, 144959, Note_on_c, 1, 80, 0
2, 144960, Note_on_c, 1, 77, 64
2, 145079, Note_on_c, 1, 77, 0
2, 145080, Note_on_c, 1, 82, 64
2, 145199, Note_on_c, 1, 82, 0
2, 145200, Note_on_c, 1, 77, 64
2, 145319, Note_on_c, 1, 77, 0
2, 145320, Note_on_c, 1, 82, 64
2, 145439, Note_on_c, 1, 82, 0
2, 145440, Note_on_c, 1, 79, 64
2, 145559, Note_on_c, 1, 79, 0
2, 145560, Note_on_c, 1, 82, 64
2, 145679, Note_on_c, 1, 82, 0
2, 145680, Note_on_c, 1, 79, 64
2, 145799, Note_on_c, 1, 79, 0
2, 145800, Note_on_c, 1, 82, 64
2, 145919, Note_on_c, 1, 82, 0
2, 145920, Note_on_c, 1, 79, 64
2, 146039, Note_on_c, 1, 79, 0
2, 146040, Note_on_c, 1, 84, 64
2, 146159, Note_on_c, 1, 84, 0
2, 146160, Note_on_c, 1, 79, 64
2, 146279, Note_on_c, 1, 79, 0
2, 146280, Note_on_c, 1, 84, 64
2, 146399, Note_on_c, 1, 84, 0
2, 146400, Note_on_c, 1, 80, 64
2, 146519, Note_on_c, 1, 80, 0
2, 146520, Note_on_c, 1, 84, 64
2, 146639, Note_on_c, 1, 84, 0
2, 146640, Note_on_c, 1, 80, 64
2, 146759, Note_on_c, 1, 80, 0
2, 146760, Note_on_c, 1, 84, 64
2, 146879, Note_on_c, 1, 84, 0
2, 146880, Note_on_c, 1, 74, 64
2, 146999, Note_on_c, 1, 74, 0
2, 147000, Note_on_c, 1, 77, 64
2, 147119, Note_on_c, 1, 77, 0
2, 147120, Note_on_c, 1, 82, 64
2, 147239, Note_on_c, 1, 82, 0
2, 147240, Note_on_c, 1, 77, 64
2, 147359, Note_on_c, 1, 77, 0
2, 147360, Note_on_c, 1, 74, 64
2, 147479, Note_on_c, 1, 74, 0
2, 147480, Note_on_c, 1, 77, 64
2, 147599, Note_on_c, 1, 77, 0
2, 147600, Note_on_c, 1, 82, 64
2, 147719, Note_on_c, 1, 82, 0
2, 147720, Note_on_c, 1, 77, 64
2, 147839, Note_on_c, 1, 77, 0
2, 147840, Note_on_c, 1, 74, 64
2, 147959, Note_on_c, 1, 74, 0
2, 147960, Note_on_c, 1, 77, 64
2, 148079, Note_on_c, 1, 77, 0
2, 148080, Note_on_c, 1, 82, 64
2, 148199, Note_on_c, 1, 82, 0
2, 148200, Note_on_c, 1, 77, 64
2, 148319, Note_on_c, 1, 77, 0
2, 148320, Note_on_c, 1, 75, 64
2, 148439, Note_on_c, 1, 75, 0
2, 148440, Note_on_c, 1, 79, 64
2, 148559, Note_on_c, 1, 79, 0
2, 148560, Note_on_c, 1, 82, 64
2, 148679, Note_on_c, 1, 82, 0
2, 148680, Note_on_c, 1, 75, 64
2, 148799, Note_on_c, 1, 75, 0
2, 148800, Note_on_c, 1, 74, 64
2, 148919, Note_on_c, 1, 74, 0
2, 148920, Note_on_c, 1, 77, 64
2, 149039, Note_on_c, 1, 77, 0
2, 149040, Note_on_c, 1, 82, 64
2, 149159, Note_on_c, 1, 82, 0
2, 149160, Note_on_c, 1, 77, 64
2, 149279, Note_on_c, 1, 77, 0
2, 149280, Note_on_c, 1, 74, 64
2, 149399, Note_on_c, 1, 74, 0
2, 149400, Note_on_c, 1, 77, 64
2, 149519, Note_on_c, 1, 77, 0
2, 149520, Note_on_c, 1, 82, 49
2, 149639, Note_on_c, 1, 82, 0
2, 149640, Note_on_c, 1, 77, 49
2, 149759, Note_on_c, 1, 77, 0
2, 149760, Note_on_c, 1, 74, 49
2, 149879, Note_on_c, 1, 74, 0
2, 149880, Note_on_c, 1, 77, 49
2, 149999, Note_on_c, 1, 77, 0
2, 150000, Note_on_c, 1, 82, 49
2, 150119, Note_on_c, 1, 82, 0
2, 150120, Note_on_c, 1, 77, 49
2, 150239, Note_on_c, 1, 77, 0
2, 150240, Note_on_c, 1, 75, 49
2, 150359, Note_on_c, 1, 75, 0
2, 150360, Note_on_c, 1, 79, 49
2, 150479, Note_on_c, 1, 79, 0
2, 150480, Note_on_c, 1, 82, 49
2, 150599, Note_on_c, 1, 82, 0
2, 150600, Note_on_c, 1, 75, 49
2, 150719, Note_on_c, 1, 75, 0
2, 150720, Note_on_c, 1, 74, 49
2, 150839, Note_on_c, 1, 74, 0
2, 150840, Note_on_c, 1, 77, 49
2, 150959, Note_on_c, 1, 77, 0
2, 150960, Note_on_c, 1, 82, 49
2, 151079, Note_on_c, 1, 82, 0
2, 151080, Note_on_c, 1, 77, 49
2, 151199, Note_on_c, 1, 77, 0
2, 151200, Note_on_c, 1, 74, 49
2, 151319, Note_on_c, 1, 74, 0
2, 151320, Note_on_c, 1, 77, 49
2, 151439, Note_on_c, 1, 77, 0
2, 151440, Note_on_c, 1, 82, 96
2, 151559, Note_on_c, 1, 82, 0
2, 151560, Note_on_c, 1, 77, 96
2, 151679, Note_on_c, 1, 77, 0
2, 151680, Note_on_c, 1, 75, 96
2, 151799, Note_on_c, 1, 75, 0
2, 151800, Note_on_c, 1, 79, 96
2, 151919, Note_on_c, 1, 79, 0
2, 151920, Note_on_c, 1, 82, 96
2, 152039, Note_on_c, 1, 82, 0
2, 152040, Note_on_c, 1, 75, 96
2, 152159, Note_on_c, 1, 75, 0
2, 152160, Note_on_c, 1, 74, 96
2, 152279, Note_on_c, 1, 74, 0
2, 152280, Note_on_c, 1, 77, 96
2, 152399, Note_on_c, 1, 77, 0
2, 152400, Note_on_c, 1, 82, 96
2, 152519, Note_on_c, 1, 82, 0
2, 152520, Note_on_c, 1, 77, 96
2, 152639, Note_on_c, 1, 77, 0
2, 152640, Note_on_c, 1, 75, 96
2, 152759, Note_on_c, 1, 75, 0
2, 152760, Note_on_c, 1, 79, 96
2, 152879, Note_on_c, 1, 79, 0
2, 152880, Note_on_c, 1, 82, 96
2, 152999, Note_on_c, 1, 82, 0
2, 153000, Note_on_c, 1, 79, 96
2, 153119, Note_on_c, 1, 79, 0
2, 153120, Note_on_c, 1, 75, 96
2, 153239, Note_on_c, 1, 75, 0
2, 153240, Note_on_c, 1, 79, 96
2, 153359, Note_on_c, 1, 79, 0
2, 153360, Note_on_c, 1, 82, 96
2, 153479, Note_on_c, 1, 82, 0
2, 153480, Note_on_c, 1, 75, 96
2, 153599, Note_on_c, 1, 75, 0
2, 153600, Note_on_c, 1, 70, 96
2, 153719, Note_on_c, 1, 70, 0
2, 153720, Note_on_c, 1, 75, 96
2, 153839, Note_on_c, 1, 75, 0
2, 153840, Note_on_c, 1, 79, 96
2, 153959, Note_on_c, 1, 79, 0
2, 153960, Note_on_c, 1, 75, 96
2, 154079, Note_on_c, 1, 75, 0
2, 154080, Note_on_c, 1, 70, 96
2, 154199, Note_on_c, 1, 70, 0
2, 154200, Note_on_c, 1, 75, 96
2, 154319, Note_on_c, 1, 75, 0
2, 154320, Note_on_c, 1, 79, 96
2, 154439, Note_on_c, 1, 79, 0
2, 154440, Note_on_c, 1, 75, 96
2, 154559, Note_on_c, 1, 75, 0
2, 154560, Note_on_c, 1, 67, 96
2, 154679, Note_on_c, 1, 67, 0
2, 154680, Note_on_c, 1, 70, 96
2, 154799, Note_on_c, 1, 70, 0
2, 154800, Note_on_c, 1, 75, 96
2, 154919, Note_on_c, 1, 75, 0
2, 154920, Note_on_c, 1, 70, 96
2, 155039, Note_on_c, 1, 70, 0
2, 155040, Note_on_c, 1, 67, 96
2, 155159, Note_on_c, 1, 67, 0
2, 155160, Note_on_c, 1, 70, 96
2, 155279, Note_on_c, 1, 70, 0
2, 155280, Note_on_c, 1, 75, 96
2, 155399, Note_on_c, 1, 75, 0
2, 155400, Note_on_c, 1, 70, 96
2, 155519, Note_on_c, 1, 70, 0
2, 155520, Note_on_c, 1, 67, 96
2, 157439, Note_on_c, 1, 67, 0
2, 159360, Key_signature, -4, "major"
2, 173760, Note_on_c, 1, 82, 96
2, 173879, Note_on_c, 1, 82, 0
2, 173880, Note_on_c, 1, 80, 96
2, 173999, Note_on_c, 1, 80, 0
2, 174000, Note_on_c, 1, 79, 96
2, 174119, Note_on_c, 1, 79, 0
2, 174120, Note_on_c, 1, 77, 96
2, 174239, Note_on_c, 1, 77, 0
2, 174240, Note_on_c, 1, 76, 96
2, 174359, Note_on_c, 1, 76, 0
2, 174360, Note_on_c, 1, 74, 96
2, 174479, Note_on_c, 1, 74, 0
2, 174480, Note_on_c, 1, 72, 96
2, 174599, Note_on_c, 1, 72, 0
2, 174600, Note_on_c, 1, 74, 96
2, 174719, Note_on_c, 1, 74, 0
2, 174720, Note_on_c, 1, 76, 96
2, 174839, Note_on_c, 1, 76, 0
2, 174840, Note_on_c, 1, 77, 96
2, 174959, Note_on_c, 1, 77, 0
2, 174960, Note_on_c, 1, 79, 96
2, 175079, Note_on_c, 1, 79, 0
2, 175080, Note_on_c, 1, 80, 96
2, 175199, Note_on_c, 1, 80, 0
2, 175200, Note_on_c, 1, 82, 96
2, 175319, Note_on_c, 1, 82, 0
2, 175320, Note_on_c, 1, 80, 96
2, 175439, Note_on_c, 1, 80, 0
2, 175440, Note_on_c, 1, 79, 96
2, 175559, Note_on_c, 1, 79, 0
2, 175560, Note_on_c, 1, 77, 96
2, 175679, Note_on_c, 1, 77, 0
2, 175680, Note_on_c, 1, 76, 96
2, 175799, Note_on_c, 1, 76, 0
2, 175800, Note_on_c, 1, 74, 96
2, 175919, Note_on_c, 1, 74, 0
2, 175920, Note_on_c, 1, 72, 96
2, 176039, Note_on_c, 1, 72, 0
2, 176040, Note_on_c, 1, 74, 96
2, 176159, Note_on_c, 1, 74, 0
2, 176160, Note_on_c, 1, 76, 96
2, 176279, Note_on_c, 1, 76, 0
2, 176280, Note_on_c, 1, 77, 96
2, 176399, Note_on_c, 1, 77, 0
2, 176400, Note_on_c, 1, 79, 96
2, 176519, Note_on_c, 1, 79, 0
2, 176520, Note_on_c, 1, 80, 96
2, 176639, Note_on_c, 1, 80, 0
2, 176640, Note_on_c, 1, 82, 80
2, 176879, Note_on_c, 1, 82, 0
2, 176880, Note_on_c, 1, 80, 80
2, 177119, Note_on_c, 1, 80, 0
2, 177120, Note_on_c, 1, 79, 80
2, 177359, Note_on_c, 1, 79, 0
2, 177360, Note_on_c, 1, 80, 80
2, 177599, Note_on_c, 1, 80, 0
2, 177600, Note_on_c, 1, 79, 80
2, 177839, Note_on_c, 1, 79, 0
2, 177840, Note_on_c, 1, 77, 80
2, 178079, Note_on_c, 1, 77, 0
2, 178080, Note_on_c, 1, 82, 80
2, 178319, Note_on_c, 1, 82, 0
2, 178320, Note_on_c, 1, 80, 80
2, 178559, Note_on_c, 1, 80, 0
2, 178560, Note_on_c, 1, 79, 80
2, 178799, Note_on_c, 1, 79, 0
2, 178800, Note_on_c, 1, 80, 80
2, 179039, Note_on_c, 1, 80, 0
2, 179040, Note_on_c, 1, 79, 80
2, 179279, Note_on_c, 1, 79, 0
2, 179280, Note_on_c, 1, 77, 80
2, 179519, Note_on_c, 1, 77, 0
2, 179520, Note_on_c, 1, 82, 80
2, 179759, Note_on_c, 1, 82, 0
2, 179760, Note_on_c, 1, 80, 80
2, 179999, Note_on_c, 1, 80, 0
2, 180000, Note_on_c, 1, 79, 80
2, 180239, Note_on_c, 1, 79, 0
2, 180240, Note_on_c, 1, 80, 80
2, 180359, Note_on_c, 1, 80, 0
2, 180480, Note_on_c, 1, 80, 80
2, 180599, Note_on_c, 1, 80, 0
2, 180720, Note_on_c, 1, 80, 80
2, 180839, Note_on_c, 1, 80, 0
2, 180960, Note_on_c, 1, 81, 80
2, 181079, Note_on_c, 1, 81, 0
2, 181200, Note_on_c, 1, 81, 80
2, 181319, Note_on_c, 1, 81, 0
2, 181440, Note_on_c, 1, 81, 80
2, 181559, Note_on_c, 1, 81, 0
2, 181680, Note_on_c, 1, 82, 80
2, 181799, Note_on_c, 1, 82, 0
2, 181920, Note_on_c, 1, 82, 80
2, 182039, Note_on_c, 1, 82, 0
2, 182160, Note_on_c, 1, 82, 80
2, 182279, Note_on_c, 1, 82, 0
2, 182400, Note_on_c, 1, 83, 80
2, 182519, Note_on_c, 1, 83, 0
2, 182640, Note_on_c, 1, 83, 80
2, 182759, Note_on_c, 1, 83, 0
2, 182880, Note_on_c, 1, 83, 80
2, 182999, Note_on_c, 1, 83, 0
2, 183120, Note_on_c, 1, 84, 80
2, 183239, Note_on_c, 1, 84, 0
2, 183360, Note_on_c, 1, 84, 80
2, 183479, Note_on_c, 1, 84, 0
2, 183600, Note_on_c, 1, 84, 80
2, 183719, Note_on_c, 1, 84, 0
2, 183840, Note_on_c, 1, 84, 80
2, 183959, Note_on_c, 1, 84, 0
2, 184080, Note_on_c, 1, 84, 80
2, 184199, Note_on_c, 1, 84, 0
2, 184320, Note_on_c, 1, 84, 80
2, 184439, Note_on_c, 1, 84, 0
2, 184560, Note_on_c, 1, 84, 80
2, 184679, Note_on_c, 1, 84, 0
2, 184800, Note_on_c, 1, 84, 80
2, 184919, Note_on_c, 1, 84, 0
2, 185040, Note_on_c, 1, 84, 80
2, 185159, Note_on_c, 1, 84, 0
2, 185280, Note_on_c, 1, 84, 80
2, 185399, Note_on_c, 1, 84, 0
2, 185520, Note_on_c, 1, 84, 80
2, 185639, Note_on_c, 1, 84, 0
2, 185760, Note_on_c, 1, 84, 80
2, 185879, Note_on_c, 1, 84, 0
2, 186000, Note_on_c, 1, 82, 80
2, 186119, Note_on_c, 1, 82, 0
2, 186240, Note_on_c, 1, 82, 80
2, 186359, Note_on_c, 1, 82, 0
2, 186480, Note_on_c, 1, 82, 80
2, 186599, Note_on_c, 1, 82, 0
2, 186720, Note_on_c, 1, 80, 80
2, 187199, Note_on_c, 1, 80, 0
2, 187440, Note_on_c, 1, 80, 96
2, 187559, Note_on_c, 1, 80, 0
2, 187560, Note_on_c, 1, 79, 96
2, 187679, Note_on_c, 1, 79, 0
2, 187680, Note_on_c, 1, 77, 96
2, 187799, Note_on_c, 1, 77, 0
2, 187800, Note_on_c, 1, 75, 96
2, 187919, Note_on_c, 1, 75, 0
2, 187920, Note_on_c, 1, 73, 96
2, 188039, Note_on_c, 1, 73, 0
2, 188040, Note_on_c, 1, 72, 96
2, 188159, Note_on_c, 1, 72, 0
2, 188160, Note_on_c, 1, 70, 96
2, 188279, Note_on_c, 1, 70, 0
2, 188280, Note_on_c, 1, 68, 96
2, 188399, Note_on_c, 1, 68, 0
2, 188400, Note_on_c, 1, 67, 96
2, 188519, Note_on_c, 1, 67, 0
2, 188520, Note_on_c, 1, 65, 96
2, 188639, Note_on_c, 1, 65, 0
2, 188640, Note_on_c, 1, 64, 96
2, 188879, Note_on_c, 1, 64, 0
2, 188880, Note_on_c, 1, 79, 96
2, 188939, Note_on_c, 1, 79, 0
2, 188940, Note_on_c, 1, 77, 96
2, 188999, Note_on_c, 1, 77, 0
2, 189000, Note_on_c, 1, 76, 96
2, 189059, Note_on_c, 1, 76, 0
2, 189060, Note_on_c, 1, 74, 96
2, 189119, Note_on_c, 1, 74, 0
2, 189120, Note_on_c, 1, 72, 96
2, 189359, Note_on_c, 1, 72, 0
2, 189600, Note_on_c, 1, 79, 96
2, 189659, Note_on_c, 1, 79, 0
2, 189660, Note_on_c, 1, 77, 96
2, 189719, Note_on_c, 1, 77, 0
2, 189720, Note_on_c, 1, 76, 96
2, 189779, Note_on_c, 1, 76, 0
2, 189780, Note_on_c, 1, 74, 96
2, 189839, Note_on_c, 1, 74, 0
2, 189840, Note_on_c, 1, 72, 96
2, 190079, Note_on_c, 1, 72, 0
2, 190320, Note_on_c, 1, 84, 96
2, 190379, Note_on_c, 1, 84, 0
2, 190380, Note_on_c, 1, 82, 96
2, 190439, Note_on_c, 1, 82, 0
2, 190440, Note_on_c, 1, 80, 96
2, 190499, Note_on_c, 1, 80, 0
2, 190500, Note_on_c, 1, 79, 96
2, 190559, Note_on_c, 1, 79, 0
2, 190560, Note_on_c, 1, 77, 96
2, 190799, Note_on_c, 1, 77, 0
2, 191040, Note_on_c, 1, 84, 96
2, 191099, Note_on_c, 1, 84, 0
2, 191100, Note_on_c, 1, 82, 96
2, 191159, Note_on_c, 1, 82, 0
2, 191160, Note_on_c, 1, 80, 96
2, 191219, Note_on_c, 1, 80, 0
2, 191220, Note_on_c, 1, 79, 96
2, 191279, Note_on_c, 1, 79, 0
2, 191280, Note_on_c, 1, 77, 96
2, 191519, Note_on_c, 1, 77, 0
2, 191760, Note_on_c, 1, 82, 96
2, 191819, Note_on_c, 1, 82, 0
2, 191820, Note_on_c, 1, 80, 96
2, 191879, Note_on_c, 1, 80, 0
2, 191880, Note_on_c, 1, 79, 96
2, 191939, Note_on_c, 1, 79, 0
2, 191940, Note_on_c, 1, 77, 96
2, 191999, Note_on_c, 1, 77, 0
2, 192000, Note_on_c, 1, 76, 96
2, 192239, Note_on_c, 1, 76, 0
2, 192480, Note_on_c, 1, 82, 96
2, 192539, Note_on_c, 1, 82, 0
2, 192540, Note_on_c, 1, 80, 96
2, 192599, Note_on_c, 1, 80, 0
2, 192600, Note_on_c, 1, 79, 96
2, 192659, Note_on_c, 1, 79, 0
2, 192660, Note_on_c, 1, 77, 96
2, 192719, Note_on_c, 1, 77, 0
2, 192720, Note_on_c, 1, 76, 96
2, 192959, Note_on_c, 1, 76, 0
2, 193200, Note_on_c, 1, 77, 96
2, 193319, Note_on_c, 1, 77, 0
2, 193320, Note_on_c, 1, 75, 96
2, 193439, Note_on_c, 1, 75, 0
2, 193440, Note_on_c, 1, 73, 96
2, 193559, Note_on_c, 1, 73, 0
2, 193560, Note_on_c, 1, 72, 96
2, 193679, Note_on_c, 1, 72, 0
2, 193680, Note_on_c, 1, 70, 96
2, 193799, Note_on_c, 1, 70, 0
2, 193800, Note_on_c, 1, 68, 96
2, 193919, Note_on_c, 1, 68, 0
2, 193920, Note_on_c, 1, 67, 96
2, 194039, Note_on_c, 1, 67, 0
2, 194040, Note_on_c, 1, 65, 96
2, 194159, Note_on_c, 1, 65, 0
2, 194160, Note_on_c, 1, 64, 96
2, 194279, Note_on_c, 1, 64, 0
2, 194280, Note_on_c, 1, 62, 96
2, 194399, Note_on_c, 1, 62, 0
2, 194400, Note_on_c, 1, 60, 96
2, 194519, Note_on_c, 1, 60, 0
2, 194520, Note_on_c, 1, 58, 96
2, 194639, Note_on_c, 1, 58, 0
2, 194640, Note_on_c, 1, 56, 96
2, 194879, Note_on_c, 1, 56, 0
2, 194880, Note_on_c, 1, 58, 96
2, 195119, Note_on_c, 1, 58, 0
2, 195120, Note_on_c, 1, 60, 96
2, 195359, Note_on_c, 1, 60, 0
2, 195360, Note_on_c, 1, 65, 49
2, 202559, Note_on_c, 1, 65, 0
2, 202560, Note_on_c, 1, 67, 49
2, 202799, Note_on_c, 1, 67, 0
2, 202800, Note_on_c, 1, 79, 49
2, 203039, Note_on_c, 1, 79, 0
2, 203040, Note_on_c, 1, 79, 49
2, 203279, Note_on_c, 1, 79, 0
2, 203280, Note_on_c, 1, 80, 49
2, 203519, Note_on_c, 1, 80, 0
2, 203520, Note_on_c, 1, 80, 49
2, 203759, Note_on_c, 1, 80, 0
2, 203760, Note_on_c, 1, 80, 49
2, 203999, Note_on_c, 1, 80, 0
2, 204000, Note_on_c, 1, 79, 49
2, 204239, Note_on_c, 1, 79, 0
2, 204240, Note_on_c, 1, 79, 49
2, 204479, Note_on_c, 1, 79, 0
2, 204480, Note_on_c, 1, 79, 49
2, 204719, Note_on_c, 1, 79, 0
2, 204720, Note_on_c, 1, 79, 49
2, 204959, Note_on_c, 1, 79, 0
2, 204960, Note_on_c, 1, 79, 49
2, 205199, Note_on_c, 1, 79, 0
2, 205200, Note_on_c, 1, 79, 49
2, 205439, Note_on_c, 1, 79, 0
2, 205440, Note_on_c, 1, 77, 49
2, 205679, Note_on_c, 1, 77, 0
2, 205680, Note_on_c, 1, 77, 49
2, 205919, Note_on_c, 1, 77, 0
2, 205920, Note_on_c, 1, 77, 49
2, 206159, Note_on_c, 1, 77, 0
2, 206160, Note_on_c, 1, 77, 49
2, 206399, Note_on_c, 1, 77, 0
2, 206400, Note_on_c, 1, 77, 49
2, 206639, Note_on_c, 1, 77, 0
2, 206640, Note_on_c, 1, 77, 49
2, 206879, Note_on_c, 1, 77, 0
2, 206880, Note_on_c, 1, 75, 49
2, 207119, Note_on_c, 1, 75, 0
2, 207120, Note_on_c, 1, 75, 49
2, 207359, Note_on_c, 1, 75, 0
2, 207360, Note_on_c, 1, 75, 49
2, 207599, Note_on_c, 1, 75, 0
2, 207600, Note_on_c, 1, 75, 49
2, 207839, Note_on_c, 1, 75, 0
2, 207840, Note_on_c, 1, 75, 49
2, 208079, Note_on_c, 1, 75, 0
2, 208080, Note_on_c, 1, 75, 49
2, 208319, Note_on_c, 1, 75, 0
2, 208320, Note_on_c, 1, 74, 49
2, 208559, Note_on_c, 1, 74, 0
2, 208560, Note_on_c, 1, 74, 49
2, 208799, Note_on_c, 1, 74, 0
2, 208800, Note_on_c, 1, 74, 49
2, 209039, Note_on_c, 1, 74, 0
2, 209040, Note_on_c, 1, 74, 49
2, 209279, Note_on_c, 1, 74, 0
2, 209280, Note_on_c, 1, 74, 49
2, 209519, Note_on_c, 1, 74, 0
2, 209520, Note_on_c, 1, 74, 49
2, 209759, Note_on_c, 1, 74, 0
2, 209760, Note_on_c, 1, 72, 49
2, 209999, Note_on_c, 1, 72, 0
2, 210000, Note_on_c, 1, 72, 49
2, 210239, Note_on_c, 1, 72, 0
2, 210240, Note_on_c, 1, 72, 49
2, 210479, Note_on_c, 1, 72, 0
2, 210480, Note_on_c, 1, 72, 49
2, 210719, Note_on_c, 1, 72, 0
2, 210720, Note_on_c, 1, 72, 49
2, 210959, Note_on_c, 1, 72, 0
2, 210960, Note_on_c, 1, 72, 49
2, 211199, Note_on_c, 1, 72, 0
2, 211200, Note_on_c, 1, 71, 49
2, 211319, Note_on_c, 1, 71, 0
2, 211320, Note_on_c, 1, 67, 49
2, 211439, Note_on_c, 1, 67, 0
2, 211440, Note_on_c, 1, 55, 49
2, 211679, Note_on_c, 1, 55, 0
2, 212040, Note_on_c, 1, 67, 49
2, 212159, Note_on_c, 1, 67, 0
2, 212160, Note_on_c, 1, 55, 49
2, 212399, Note_on_c, 1, 55, 0
2, 212760, Note_on_c, 1, 67, 49
2, 212879, Note_on_c, 1, 67, 0
2, 212880, Note_on_c, 1, 55, 49
2, 213119, Note_on_c, 1, 55, 0
2, 213480, Note_on_c, 1, 67, 49
2, 213599, Note_on_c, 1, 67, 0
2, 213600, Note_on_c, 1, 55, 49
2, 213839, Note_on_c, 1, 55, 0
2, 214200, Note_on_c, 1, 67, 49
2, 214319, Note_on_c, 1, 67, 0
2, 214320, Note_on_c, 1, 55, 49
2, 214559, Note_on_c, 1, 55, 0
2, 214920, Note_on_c, 1, 67, 49
2, 215039, Note_on_c, 1, 67, 0
2, 215040, Note_on_c, 1, 55, 49
2, 215279, Note_on_c, 1, 55, 0
2, 215640, Note_on_c, 1, 67, 49
2, 215759, Note_on_c, 1, 67, 0
2, 215760, Note_on_c, 1, 55, 49
2, 215999, Note_on_c, 1, 55, 0
2, 219840, Note_on_c, 1, 77, 96
2, 219959, Note_on_c, 1, 77, 0
2, 219960, Note_on_c, 1, 75, 96
2, 220079, Note_on_c, 1, 75, 0
2, 220080, Note_on_c, 1, 74, 96
2, 220199, Note_on_c, 1, 74, 0
2, 220200, Note_on_c, 1, 72, 96
2, 220319, Note_on_c, 1, 72, 0
2, 220320, Note_on_c, 1, 71, 96
2, 220439, Note_on_c, 1, 71, 0
2, 220440, Note_on_c, 1, 69, 96
2, 220559, Note_on_c, 1, 69, 0
2, 220560, Note_on_c, 1, 67, 96
2, 220679, Note_on_c, 1, 67, 0
2, 220680, Note_on_c, 1, 69, 96
2, 220799, Note_on_c, 1, 69, 0
2, 220800, Note_on_c, 1, 71, 96
2, 220919, Note_on_c, 1, 71, 0
2, 220920, Note_on_c, 1, 72, 96
2, 221039, Note_on_c, 1, 72, 0
2, 221040, Note_on_c, 1, 74, 96
2, 221159, Note_on_c, 1, 74, 0
2, 221160, Note_on_c, 1, 75, 96
2, 221279, Note_on_c, 1, 75, 0
2, 221280, Note_on_c, 1, 77, 96
2, 221399, Note_on_c, 1, 77, 0
2, 221400, Note_on_c, 1, 75, 96
2, 221519, Note_on_c, 1, 75, 0
2, 221520, Note_on_c, 1, 74, 96
2, 221639, Note_on_c, 1, 74, 0
2, 221640, Note_on_c, 1, 72, 96
2, 221759, Note_on_c, 1, 72, 0
2, 221760, Note_on_c, 1, 71, 96
2, 221879, Note_on_c, 1, 71, 0
2, 221880, Note_on_c, 1, 69, 96
2, 221999, Note_on_c, 1, 69, 0
2, 222000, Note_on_c, 1, 67, 96
2, 222119, Note_on_c, 1, 67, 0
2, 222120, Note_on_c, 1, 69, 96
2, 222239, Note_on_c, 1, 69, 0
2, 222240, Note_on_c, 1, 71, 96
2, 222359, Note_on_c, 1, 71, 0
2, 222360, Note_on_c, 1, 72, 96
2, 222479, Note_on_c, 1, 72, 0
2, 222480, Note_on_c, 1, 74, 96
2, 222599, Note_on_c, 1, 74, 0
2, 222600, Note_on_c, 1, 75, 96
2, 222719, Note_on_c, 1, 75, 0
2, 222720, Note_on_c, 1, 77, 96
2, 222959, Note_on_c, 1, 77, 0
2, 223260, Note_on_c, 1, 71, 96
2, 223319, Note_on_c, 1, 71, 0
2, 223320, Note_on_c, 1, 72, 96
2, 223379, Note_on_c, 1, 72, 0
2, 223380, Note_on_c, 1, 74, 96
2, 223439, Note_on_c, 1, 74, 0
2, 223440, Note_on_c, 1, 65, 96
2, 223679, Note_on_c, 1, 65, 0
2, 223980, Note_on_c, 1, 62, 96
2, 224039, Note_on_c, 1, 62, 0
2, 224040, Note_on_c, 1, 63, 96
2, 224099, Note_on_c, 1, 63, 0
2, 224100, Note_on_c, 1, 65, 96
2, 224159, Note_on_c, 1, 65, 0
2, 224160, Note_on_c, 1, 55, 96
2, 224399, Note_on_c, 1, 55, 0
2, 224700, Note_on_c, 1, 59, 96
2, 224759, Note_on_c, 1, 59, 0
2, 224760, Note_on_c, 1, 60, 96
2, 224819, Note_on_c, 1, 60, 0
2, 224820, Note_on_c, 1, 62, 96
2, 224879, Note_on_c, 1, 62, 0
2, 224880, Note_on_c, 1, 63, 96
2, 225119, Note_on_c, 1, 63, 0
2, 225120, Note_on_c, 1, 65, 96
2, 225359, Note_on_c, 1, 65, 0
2, 225360, Note_on_c, 1, 67, 96
2, 225599, Note_on_c, 1, 67, 0
2, 225600, Note_on_c, 1, 60, 96
2, 226079, Note_on_c, 1, 60, 0
2, 231360, Note_on_c, 1, 79, 96
2, 231599, Note_on_c, 1, 79, 0
2, 231600, Note_on_c, 1, 77, 96
2, 231839, Note_on_c, 1, 77, 0
2, 231840, Note_on_c, 1, 75, 96
2, 232079, Note_on_c, 1, 75, 0
2, 232080, Note_on_c, 1, 74, 96
2, 232319, Note_on_c, 1, 74, 0
2, 232320, Note_on_c, 1, 75, 96
2, 232559, Note_on_c, 1, 75, 0
2, 232560, Note_on_c, 1, 77, 96
2, 232799, Note_on_c, 1, 77, 0
2, 232800, Note_on_c, 1, 79, 96
2, 233039, Note_on_c, 1, 79, 0
2, 233040, Note_on_c, 1, 77, 96
2, 233279, Note_on_c, 1, 77, 0
2, 233280, Note_on_c, 1, 75, 96
2, 233519, Note_on_c, 1, 75, 0
2, 233520, Note_on_c, 1, 74, 96
2, 233759, Note_on_c, 1, 74, 0
2, 233760, Note_on_c, 1, 75, 96
2, 233999, Note_on_c, 1, 75, 0
2, 234000, Note_on_c, 1, 77, 96
2, 234239, Note_on_c, 1, 77, 0
2, 234240, Note_on_c, 1, 79, 96
2, 234479, Note_on_c, 1, 79, 0
2, 234480, Note_on_c, 1, 80, 96
2, 234719, Note_on_c, 1, 80, 0
2, 234720, Note_on_c, 1, 82, 96
2, 234959, Note_on_c, 1, 82, 0
2, 234960, Note_on_c, 1, 80, 96
2, 235199, Note_on_c, 1, 80, 0
2, 235680, Note_on_c, 1, 79, 96
2, 235919, Note_on_c, 1, 79, 0
2, 236400, Note_on_c, 1, 77, 96
2, 236639, Note_on_c, 1, 77, 0
2, 237120, Note_on_c, 1, 80, 96
2, 237359, Note_on_c, 1, 80, 0
2, 237360, Note_on_c, 1, 79, 96
2, 237599, Note_on_c, 1, 79, 0
2, 237840, Note_on_c, 1, 67, 96
2, 238079, Note_on_c, 1, 67, 0
2, 238080, Note_on_c, 1, 65, 96
2, 238319, Note_on_c, 1, 65, 0
2, 238560, Note_on_c, 1, 82, 96
2, 238799, Note_on_c, 1, 82, 0
2, 238800, Note_on_c, 1, 80, 96
2, 239039, Note_on_c, 1, 80, 0
2, 239280, Note_on_c, 1, 68, 96
2, 239519, Note_on_c, 1, 68, 0
2, 239520, Note_on_c, 1, 67, 96
2, 239759, Note_on_c, 1, 67, 0
2, 240000, Note_on_c, 1, 79, 96
2, 240239, Note_on_c, 1, 79, 0
2, 240240, Note_on_c, 1, 80, 96
2, 240479, Note_on_c, 1, 80, 0
2, 240480, Note_on_c, 1, 82, 96
2, 240719, Note_on_c, 1, 82, 0
2, 240960, Note_on_c, 1, 72, 96
2, 241079, Note_on_c, 1, 72, 0
2, 241080, Note_on_c, 1, 74, 96
2, 241199, Note_on_c, 1, 74, 0
2, 241200, Note_on_c, 1, 75, 96
2, 241439, Note_on_c, 1, 75, 0
2, 241680, Note_on_c, 1, 80, 96
2, 241799, Note_on_c, 1, 80, 0
2, 241800, Note_on_c, 1, 79, 96
2, 241919, Note_on_c, 1, 79, 0
2, 241920, Note_on_c, 1, 77, 96
2, 242159, Note_on_c, 1, 77, 0
2, 242160, Note_on_c, 1, 75, 96
2, 242639, Note_on_c, 1, 75, 0
2, 242880, Note_on_c, 1, 79, 49
2, 243119, Note_on_c, 1, 79, 0
2, 243120, Note_on_c, 1, 80, 49
2, 243359, Note_on_c, 1, 80, 0
2, 243360, Note_on_c, 1, 82, 49
2, 243599, Note_on_c, 1, 82, 0
2, 243840, Note_on_c, 1, 72, 49
2, 243959, Note_on_c, 1, 72, 0
2, 243960, Note_on_c, 1, 74, 49
2, 244079, Note_on_c, 1, 74, 0
2, 244080, Note_on_c, 1, 75, 49
2, 244319, Note_on_c, 1, 75, 0
2, 244560, Note_on_c, 1, 80, 49
2, 244679, Note_on_c, 1, 80, 0
2, 244680, Note_on_c, 1, 79, 49
2, 244799, Note_on_c, 1, 79, 0
2, 244800, Note_on_c, 1, 77, 49
2, 245039, Note_on_c, 1, 77, 0
2, 245040, Note_on_c, 1, 75, 49
2, 245519, Note_on_c, 1, 75, 0
2, 247920, Note_on_c, 1, 77, 96
2, 247979, Note_on_c, 1, 77, 0
2, 247980, Note_on_c, 1, 77, 96
2, 248039, Note_on_c, 1, 77, 0
2, 248040, Note_on_c, 1, 77, 96
2, 248099, Note_on_c, 1, 77, 0
2, 248100, Note_on_c, 1, 77, 96
2, 248159, Note_on_c, 1, 77, 0
2, 248160, Note_on_c, 1, 77, 96
2, 248219, Note_on_c, 1, 77, 0
2, 248220, Note_on_c, 1, 77, 96
2, 248279, Note_on_c, 1, 77, 0
2, 248280, Note_on_c, 1, 77, 96
2, 248339, Note_on_c, 1, 77, 0
2, 248340, Note_on_c, 1, 77, 96
2, 248399, Note_on_c, 1, 77, 0
2, 248400, Note_on_c, 1, 77, 96
2, 248459, Note_on_c, 1, 77, 0
2, 248460, Note_on_c, 1, 77, 96
2, 248519, Note_on_c, 1, 77, 0
2, 248520, Note_on_c, 1, 77, 96
2, 248579, Note_on_c, 1, 77, 0
2, 248580, Note_on_c, 1, 77, 96
2, 248639, Note_on_c, 1, 77, 0
2, 248640, Note_on_c, 1, 76, 96
2, 249119, Note_on_c, 1, 76, 0
2, 250080, Note_on_c, 1, 80, 96
2, 250139, Note_on_c, 1, 80, 0
2, 250140, Note_on_c, 1, 80, 96
2, 250199, Note_on_c, 1, 80, 0
2, 250200, Note_on_c, 1, 80, 96
2, 250259, Note_on_c, 1, 80, 0
2, 250260, Note_on_c, 1, 80, 96
2, 250319, Note_on_c, 1, 80, 0
2, 250320, Note_on_c, 1, 80, 96
2, 250379, Note_on_c, 1, 80, 0
2, 250380, Note_on_c, 1, 80, 96
2, 250439, Note_on_c, 1, 80, 0
2, 250440, Note_on_c, 1, 80, 96
2, 250499, Note_on_c, 1, 80, 0
2, 250500, Note_on_c, 1, 80, 96
2, 250559, Note_on_c, 1, 80, 0
2, 250560, Note_on_c, 1, 80, 96
2, 250619, Note_on_c, 1, 80, 0
2, 250620, Note_on_c, 1, 80, 96
2, 250679, Note_on_c, 1, 80, 0
2, 250680, Note_on_c, 1, 80, 96
2, 250739, Note_on_c, 1, 80, 0
2, 250740, Note_on_c, 1, 80, 96
2, 250799, Note_on_c, 1, 80, 0
2, 250800, Note_on_c, 1, 80, 96
2, 251279, Note_on_c, 1, 80, 0
2, 251520, Note_on_c, 1, 77, 96
2, 251579, Note_on_c, 1, 77, 0
2, 251580, Note_on_c, 1, 77, 96
2, 251639, Note_on_c, 1, 77, 0
2, 251640, Note_on_c, 1, 77, 96
2, 251699, Note_on_c, 1, 77, 0
2, 251700, Note_on_c, 1, 77, 96
2, 251759, Note_on_c, 1, 77, 0
2, 251760, Note_on_c, 1, 77, 96
2, 251819, Note_on_c, 1, 77, 0
2, 251820, Note_on_c, 1, 77, 96
2, 251879, Note_on_c, 1, 77, 0
2, 251880, Note_on_c, 1, 77, 96
2, 251939, Note_on_c, 1, 77, 0
2, 251940, Note_on_c, 1, 77, 96
2, 251999, Note_on_c, 1, 77, 0
2, 252000, Note_on_c, 1, 77, 96
2, 252059, Note_on_c, 1, 77, 0
2, 252060, Note_on_c, 1, 77, 96
2, 252119, Note_on_c, 1, 77, 0
2, 252120, Note_on_c, 1, 77, 96
2, 252179, Note_on_c, 1, 77, 0
2, 252180, Note_on_c, 1, 77, 96
2, 252239, Note_on_c, 1, 77, 0
2, 252240, Note_on_c, 1, 79, 96
2, 252719, Note_on_c, 1, 79, 0
2, 252960, Note_on_c, 1, 79, 96
2, 253019, Note_on_c, 1, 79, 0
2, 253020, Note_on_c, 1, 79, 96
2, 253079, Note_on_c, 1, 79, 0
2, 253080, Note_on_c, 1, 79, 96
2, 253139, Note_on_c, 1, 79, 0
2, 253140, Note_on_c, 1, 79, 96
2, 253199, Note_on_c, 1, 79, 0
2, 253200, Note_on_c, 1, 79, 96
2, 253259, Note_on_c, 1, 79, 0
2, 253260, Note_on_c, 1, 79, 96
2, 253319, Note_on_c, 1, 79, 0
2, 253320, Note_on_c, 1, 79, 96
2, 253379, Note_on_c, 1, 79, 0
2, 253380, Note_on_c, 1, 79, 96
2, 253439, Note_on_c, 1, 79, 0
2, 253440, Note_on_c, 1, 79, 96
2, 253499, Note_on_c, 1, 79, 0
2, 253500, Note_on_c, 1, 79, 96
2, 253559, Note_on_c, 1, 79, 0
2, 253560, Note_on_c, 1, 79, 96
2, 253619, Note_on_c, 1, 79, 0
2, 253620, Note_on_c, 1, 79, 96
2, 253679, Note_on_c, 1, 79, 0
2, 253680, Note_on_c, 1, 80, 96
2, 254159, Note_on_c, 1, 80, 0
2, 254400, Note_on_c, 1, 80, 96
2, 254459, Note_on_c, 1, 80, 0
2, 254460, Note_on_c, 1, 80, 96
2, 254519, Note_on_c, 1, 80, 0
2, 254520, Note_on_c, 1, 80, 96
2, 254579, Note_on_c, 1, 80, 0
2, 254580, Note_on_c, 1, 80, 96
2, 254639, Note_on_c, 1, 80, 0
2, 254640, Note_on_c, 1, 80, 96
2, 254699, Note_on_c, 1, 80, 0
2, 254700, Note_on_c, 1, 80, 96
2, 254759, Note_on_c, 1, 80, 0
2, 254760, Note_on_c, 1, 80, 96
2, 254819, Note_on_c, 1, 80, 0
2, 254820, Note_on_c, 1, 80, 96
2, 254879, Note_on_c, 1, 80, 0
2, 254880, Note_on_c, 1, 80, 96
2, 254939, Note_on_c, 1, 80, 0
2, 254940, Note_on_c, 1, 80, 96
2, 254999, Note_on_c, 1, 80, 0
2, 255000, Note_on_c, 1, 80, 96
2, 255059, Note_on_c, 1, 80, 0
2, 255060, Note_on_c, 1, 80, 96
2, 255119, Note_on_c, 1, 80, 0
2, 255120, Note_on_c, 1, 82, 96
2, 255599, Note_on_c, 1, 82, 0
2, 255840, Note_on_c, 1, 82, 96
2, 255899, Note_on_c, 1, 82, 0
2, 255900, Note_on_c, 1, 82, 96
2, 255959, Note_on_c, 1, 82, 0
2, 255960, Note_on_c, 1, 82, 96
2, 256019, Note_on_c, 1, 82, 0
2, 256020, Note_on_c, 1, 82, 96
2, 256079, Note_on_c, 1, 82, 0
2, 256080, Note_on_c, 1, 82, 96
2, 256139, Note_on_c, 1, 82, 0
2, 256140, Note_on_c, 1, 82, 96
2, 256199, Note_on_c, 1, 82, 0
2, 256200, Note_on_c, 1, 82, 96
2, 256259, Note_on_c, 1, 82, 0
2, 256260, Note_on_c, 1, 82, 96
2, 256319, Note_on_c, 1, 82, 0
2, 256320, Note_on_c, 1, 82, 96
2, 256379, Note_on_c, 1, 82, 0
2, 256380, Note_on_c, 1, 82, 96
2, 256439, Note_on_c, 1, 82, 0
2, 256440, Note_on_c, 1, 82, 96
2, 256499, Note_on_c, 1, 82, 0
2, 256500, Note_on_c, 1, 82, 96
2, 256559, Note_on_c, 1, 82, 0
2, 256560, Note_on_c, 1, 82, 96
2, 257039, Note_on_c, 1, 82, 0
2, 257280, Note_on_c, 1, 80, 96
2, 257339, Note_on_c, 1, 80, 0
2, 257340, Note_on_c, 1, 80, 96
2, 257399, Note_on_c, 1, 80, 0
2, 257400, Note_on_c, 1, 80, 96
2, 257459, Note_on_c, 1, 80, 0
2, 257460, Note_on_c, 1, 80, 96
2, 257519, Note_on_c, 1, 80, 0
2, 257520, Note_on_c, 1, 80, 96
2, 257579, Note_on_c, 1, 80, 0
2, 257580, Note_on_c, 1, 80, 96
2, 257639, Note_on_c, 1, 80, 0
2, 257640, Note_on_c, 1, 80, 96
2, 257699, Note_on_c, 1, 80, 0
2, 257700, Note_on_c, 1, 80, 96
2, 257759, Note_on_c, 1, 80, 0
2, 257760, Note_on_c, 1, 80, 96
2, 257819, Note_on_c, 1, 80, 0
2, 257820, Note_on_c, 1, 80, 96
2, 257879, Note_on_c, 1, 80, 0
2, 257880, Note_on_c, 1, 80, 96
2, 257939, Note_on_c, 1, 80, 0
2, 257940, Note_on_c, 1, 80, 96
2, 257999, Note_on_c, 1, 80, 0
2, 258000, Note_on_c, 1, 80, 96
2, 258059, Note_on_c, 1, 80, 0
2, 258060, Note_on_c, 1, 82, 96
2, 258119, Note_on_c, 1, 82, 0
2, 258120, Note_on_c, 1, 80, 96
2, 258179, Note_on_c, 1, 80, 0
2, 258180, Note_on_c, 1, 79, 96
2, 258239, Note_on_c, 1, 79, 0
2, 258240, Note_on_c, 1, 77, 96
2, 258299, Note_on_c, 1, 77, 0
2, 258300, Note_on_c, 1, 79, 96
2, 258359, Note_on_c, 1, 79, 0
2, 258360, Note_on_c, 1, 77, 96
2, 258419, Note_on_c, 1, 77, 0
2, 258420, Note_on_c, 1, 75, 96
2, 258479, Note_on_c, 1, 75, 0
2, 258480, Note_on_c, 1, 73, 96
2, 258539, Note_on_c, 1, 73, 0
2, 258540, Note_on_c, 1, 75, 96
2, 258599, Note_on_c, 1, 75, 0
2, 258600, Note_on_c, 1, 73, 96
2, 258659, Note_on_c, 1, 73, 0
2, 258660, Note_on_c, 1, 72, 96
2, 258719, Note_on_c, 1, 72, 0
2, 258720, Note_on_c, 1, 70, 96
2, 258779, Note_on_c, 1, 70, 0
2, 258780, Note_on_c, 1, 72, 96
2, 258839, Note_on_c, 1, 72, 0
2, 258840, Note_on_c, 1, 70, 96
2, 258899, Note_on_c, 1, 70, 0
2, 258900, Note_on_c, 1, 68, 96
2, 258959, Note_on_c, 1, 68, 0
2, 258960, Note_on_c, 1, 67, 96
2, 259019, Note_on_c, 1, 67, 0
2, 259020, Note_on_c, 1, 68, 96
2, 259079, Note_on_c, 1, 68, 0
2, 259080, Note_on_c, 1, 67, 96
2, 259139, Note_on_c, 1, 67, 0
2, 259140, Note_on_c, 1, 65, 96
2, 259199, Note_on_c, 1, 65, 0
2, 259200, Note_on_c, 1, 64, 96
2, 259259, Note_on_c, 1, 64, 0
2, 259260, Note_on_c, 1, 65, 96
2, 259319, Note_on_c, 1, 65, 0
2, 259320, Note_on_c, 1, 64, 96
2, 259379, Note_on_c, 1, 64, 0
2, 259380, Note_on_c, 1, 61, 96
2, 259439, Note_on_c, 1, 61, 0
2, 259440, Note_on_c, 1, 60, 96
2, 259499, Note_on_c, 1, 60, 0
2, 259500, Note_on_c, 1, 60, 96
2, 259559, Note_on_c, 1, 60, 0
2, 259560, Note_on_c, 1, 60, 96
2, 259619, Note_on_c, 1, 60, 0
2, 259620, Note_on_c, 1, 60, 96
2, 259679, Note_on_c, 1, 60, 0
2, 259680, Note_on_c, 1, 60, 96
2, 259739, Note_on_c, 1, 60, 0
2, 259740, Note_on_c, 1, 60, 96
2, 259799, Note_on_c, 1, 60, 0
2, 259800, Note_on_c, 1, 60, 96
2, 259859, Note_on_c, 1, 60, 0
2, 259860, Note_on_c, 1, 60, 96
2, 259919, Note_on_c, 1, 60, 0
2, 259920, Note_on_c, 1, 60, 96
2, 259979, Note_on_c, 1, 60, 0
2, 259980, Note_on_c, 1, 60, 96
2, 260039, Note_on_c, 1, 60, 0
2, 260040, Note_on_c, 1, 60, 96
2, 260099, Note_on_c, 1, 60, 0
2, 260100, Note_on_c, 1, 60, 96
2, 260159, Note_on_c, 1, 60, 0
2, 260160, Note_on_c, 1, 58, 96
2, 260219, Note_on_c, 1, 58, 0
2, 260220, Note_on_c, 1, 58, 96
2, 260279, Note_on_c, 1, 58, 0
2, 260280, Note_on_c, 1, 58, 96
2, 260339, Note_on_c, 1, 58, 0
2, 260340, Note_on_c, 1, 58, 96
2, 260399, Note_on_c, 1, 58, 0
2, 260400, Note_on_c, 1, 58, 96
2, 260459, Note_on_c, 1, 58, 0
2, 260460, Note_on_c, 1, 58, 96
2, 260519, Note_on_c, 1, 58, 0
2, 260520, Note_on_c, 1, 58, 96
2, 260579, Note_on_c, 1, 58, 0
2, 260580, Note_on_c, 1, 58, 96
2, 260639, Note_on_c, 1, 58, 0
2, 260640, Note_on_c, 1, 58, 96
2, 260699, Note_on_c, 1, 58, 0
2, 260700, Note_on_c, 1, 58, 96
2, 260759, Note_on_c, 1, 58, 0
2, 260760, Note_on_c, 1, 58, 96
2, 260819, Note_on_c, 1, 58, 0
2, 260820, Note_on_c, 1, 58, 96
2, 260879, Note_on_c, 1, 58, 0
2, 260880, Note_on_c, 1, 56, 96
2, 260939, Note_on_c, 1, 56, 0
2, 260940, Note_on_c, 1, 65, 96
2, 260999, Note_on_c, 1, 65, 0
2, 261000, Note_on_c, 1, 65, 96
2, 261059, Note_on_c, 1, 65, 0
2, 261060, Note_on_c, 1, 65, 96
2, 261119, Note_on_c, 1, 65, 0
2, 261120, Note_on_c, 1, 56, 96
2, 261179, Note_on_c, 1, 56, 0
2, 261180, Note_on_c, 1, 65, 96
2, 261239, Note_on_c, 1, 65, 0
2, 261240, Note_on_c, 1, 65, 96
2, 261299, Note_on_c, 1, 65, 0
2, 261300, Note_on_c, 1, 65, 96
2, 261359, Note_on_c, 1, 65, 0
2, 261360, Note_on_c, 1, 56, 96
2, 261419, Note_on_c, 1, 56, 0
2, 261420, Note_on_c, 1, 65, 96
2, 261479, Note_on_c, 1, 65, 0
2, 261480, Note_on_c, 1, 65, 96
2, 261539, Note_on_c, 1, 65, 0
2, 261540, Note_on_c, 1, 65, 96
2, 261599, Note_on_c, 1, 65, 0
2, 261600, Note_on_c, 1, 55, 96
2, 261659, Note_on_c, 1, 55, 0
2, 261660, Note_on_c, 1, 65, 96
2, 261719, Note_on_c, 1, 65, 0
2, 261720, Note_on_c, 1, 65, 96
2, 261779, Note_on_c, 1, 65, 0
2, 261780, Note_on_c, 1, 65, 96
2, 261839, Note_on_c, 1, 65, 0
2, 261840, Note_on_c, 1, 55, 96
2, 261899, Note_on_c, 1, 55, 0
2, 261900, Note_on_c, 1, 65, 96
2, 261959, Note_on_c, 1, 65, 0
2, 261960, Note_on_c, 1, 65, 96
2, 262019, Note_on_c, 1, 65, 0
2, 262020, Note_on_c, 1, 65, 96
2, 262079, Note_on_c, 1, 65, 0
2, 262080, Note_on_c, 1, 55, 96
2, 262139, Note_on_c, 1, 55, 0
2, 262140, Note_on_c, 1, 65, 96
2, 262199, Note_on_c, 1, 65, 0
2, 262200, Note_on_c, 1, 65, 96
2, 262259, Note_on_c, 1, 65, 0
2, 262260, Note_on_c, 1, 65, 96
2, 262319, Note_on_c, 1, 65, 0
2, 262320, Note_on_c, 1, 55, 96
2, 262379, Note_on_c, 1, 55, 0
2, 262380, Note_on_c, 1, 64, 96
2, 262439, Note_on_c, 1, 64, 0
2, 262440, Note_on_c, 1, 64, 96
2, 262499, Note_on_c, 1, 64, 0
2, 262500, Note_on_c, 1, 64, 96
2, 262559, Note_on_c, 1, 64, 0
2, 262560, Note_on_c, 1, 55, 96
2, 262619, Note_on_c, 1, 55, 0
2, 262620, Note_on_c, 1, 64, 96
2, 262679, Note_on_c, 1, 64, 0
2, 262680, Note_on_c, 1, 64, 96
2, 262739, Note_on_c, 1, 64, 0
2, 262740, Note_on_c, 1, 64, 96
2, 262799, Note_on_c, 1, 64, 0
2, 262800, Note_on_c, 1, 55, 96
2, 262859, Note_on_c, 1, 55, 0
2, 262860, Note_on_c, 1, 64, 96
2, 262919, Note_on_c, 1, 64, 0
2, 262920, Note_on_c, 1, 64, 96
2, 262979, Note_on_c, 1, 64, 0
2, 262980, Note_on_c, 1, 64, 96
2, 263039, Note_on_c, 1, 64, 0
2, 263040, Note_on_c, 1, 65, 96
2, 263099, Note_on_c, 1, 65, 0
2, 263100, Note_on_c, 1, 65, 96
2, 263159, Note_on_c, 1, 65, 0
2, 263160, Note_on_c, 1, 65, 96
2, 263219, Note_on_c, 1, 65, 0
2, 263220, Note_on_c, 1, 65, 96
2, 263279, Note_on_c, 1, 65, 0
2, 263280, Note_on_c, 1, 68, 96
2, 263339, Note_on_c, 1, 68, 0
2, 263340, Note_on_c, 1, 68, 96
2, 263399, Note_on_c, 1, 68, 0
2, 263400, Note_on_c, 1, 68, 96
2, 263459, Note_on_c, 1, 68, 0
2, 263460, Note_on_c, 1, 68, 96
2, 263519, Note_on_c, 1, 68, 0
2, 263520, Note_on_c, 1, 72, 96
2, 263579, Note_on_c, 1, 72, 0
2, 263580, Note_on_c, 1, 72, 96
2, 263639, Note_on_c, 1, 72, 0
2, 263640, Note_on_c, 1, 72, 96
2, 263699, Note_on_c, 1, 72, 0
2, 263700, Note_on_c, 1, 72, 96
2, 263759, Note_on_c, 1, 72, 0
2, 263760, Note_on_c, 1, 80, 96
2, 263819, Note_on_c, 1, 80, 0
2, 263820, Note_on_c, 1, 82, 96
2, 263879, Note_on_c, 1, 82, 0
2, 263880, Note_on_c, 1, 80, 96
2, 263939, Note_on_c, 1, 80, 0
2, 263940, Note_on_c, 1, 79, 96
2, 263999, Note_on_c, 1, 79, 0
2, 264000, Note_on_c, 1, 77, 96
2, 264059, Note_on_c, 1, 77, 0
2, 264060, Note_on_c, 1, 79, 96
2, 264119, Note_on_c, 1, 79, 0
2, 264120, Note_on_c, 1, 77, 96
2, 264179, Note_on_c, 1, 77, 0
2, 264180, Note_on_c, 1, 75, 96
2, 264239, Note_on_c, 1, 75, 0
2, 264240, Note_on_c, 1, 73, 96
2, 264299, Note_on_c, 1, 73, 0
2, 264300, Note_on_c, 1, 75, 96
2, 264359, Note_on_c, 1, 75, 0
2, 264360, Note_on_c, 1, 73, 96
2, 264419, Note_on_c, 1, 73, 0
2, 264420, Note_on_c, 1, 72, 96
2, 264479, Note_on_c, 1, 72, 0
2, 264480, Note_on_c, 1, 70, 96
2, 264539, Note_on_c, 1, 70, 0
2, 264540, Note_on_c, 1, 72, 96
2, 264599, Note_on_c, 1, 72, 0
2, 264600, Note_on_c, 1, 70, 96
2, 264659, Note_on_c, 1, 70, 0
2, 264660, Note_on_c, 1, 68, 96
2, 264719, Note_on_c, 1, 68, 0
2, 264720, Note_on_c, 1, 67, 96
2, 264779, Note_on_c, 1, 67, 0
2, 264780, Note_on_c, 1, 68, 96
2, 264839, Note_on_c, 1, 68, 0
2, 264840, Note_on_c, 1, 67, 96
2, 264899, Note_on_c, 1, 67, 0
2, 264900, Note_on_c, 1, 65, 96
2, 264959, Note_on_c, 1, 65, 0
2, 264960, Note_on_c, 1, 64, 96
2, 265019, Note_on_c, 1, 64, 0
2, 265020, Note_on_c, 1, 65, 96
2, 265079, Note_on_c, 1, 65, 0
2, 265080, Note_on_c, 1, 64, 96
2, 265139, Note_on_c, 1, 64, 0
2, 265140, Note_on_c, 1, 62, 96
2, 265199, Note_on_c, 1, 62, 0
2, 265200, Note_on_c, 1, 60, 96
2, 265259, Note_on_c, 1, 60, 0
2, 265260, Note_on_c, 1, 60, 96
2, 265319, Note_on_c, 1, 60, 0
2, 265320, Note_on_c, 1, 60, 96
2, 265379, Note_on_c, 1, 60, 0
2, 265380, Note_on_c, 1, 60, 96
2, 265439, Note_on_c, 1, 60, 0
2, 265440, Note_on_c, 1, 60, 96
2, 265499, Note_on_c, 1, 60, 0
2, 265500, Note_on_c, 1, 60, 96
2, 265559, Note_on_c, 1, 60, 0
2, 265560, Note_on_c, 1, 60, 96
2, 265619, Note_on_c, 1, 60, 0
2, 265620, Note_on_c, 1, 60, 96
2, 265679, Note_on_c, 1, 60, 0
2, 265680, Note_on_c, 1, 60, 96
2, 265739, Note_on_c, 1, 60, 0
2, 265740, Note_on_c, 1, 60, 96
2, 265799, Note_on_c, 1, 60, 0
2, 265800, Note_on_c, 1, 60, 96
2, 265859, Note_on_c, 1, 60, 0
2, 265860, Note_on_c, 1, 60, 96
2, 265919, Note_on_c, 1, 60, 0
2, 265920, Note_on_c, 1, 58, 96
2, 265979, Note_on_c, 1, 58, 0
2, 265980, Note_on_c, 1, 58, 96
2, 266039, Note_on_c, 1, 58, 0
2, 266040, Note_on_c, 1, 58, 96
2, 266099, Note_on_c, 1, 58, 0
2, 266100, Note_on_c, 1, 58, 96
2, 266159, Note_on_c, 1, 58, 0
2, 266160, Note_on_c, 1, 58, 96
2, 266219, Note_on_c, 1, 58, 0
2, 266220, Note_on_c, 1, 58, 96
2, 266279, Note_on_c, 1, 58, 0
2, 266280, Note_on_c, 1, 58, 96
2, 266339, Note_on_c, 1, 58, 0
2, 266340, Note_on_c, 1, 58, 96
2, 266399, Note_on_c, 1, 58, 0
2, 266400, Note_on_c, 1, 58, 96
2, 266459, Note_on_c, 1, 58, 0
2, 266460, Note_on_c, 1, 58, 96
2, 266519, Note_on_c, 1, 58, 0
2, 266520, Note_on_c, 1, 58, 96
2, 266579, Note_on_c, 1, 58, 0
2, 266580, Note_on_c, 1, 58, 96
2, 266639, Note_on_c, 1, 58, 0
2, 266640, Note_on_c, 1, 56, 96
2, 266699, Note_on_c, 1, 56, 0
2, 266700, Note_on_c, 1, 65, 96
2, 266759, Note_on_c, 1, 65, 0
2, 266760, Note_on_c, 1, 65, 96
2, 266819, Note_on_c, 1, 65, 0
2, 266820, Note_on_c, 1, 65, 96
2, 266879, Note_on_c, 1, 65, 0
2, 266880, Note_on_c, 1, 56, 96
2, 266939, Note_on_c, 1, 56, 0
2, 266940, Note_on_c, 1, 65, 96
2, 266999, Note_on_c, 1, 65, 0
2, 267000, Note_on_c, 1, 65, 96
2, 267059, Note_on_c, 1, 65, 0
2, 267060, Note_on_c, 1, 65, 96
2, 267119, Note_on_c, 1, 65, 0
2, 267120, Note_on_c, 1, 56, 96
2, 267179, Note_on_c, 1, 56, 0
2, 267180, Note_on_c, 1, 65, 96
2, 267239, Note_on_c, 1, 65, 0
2, 267240, Note_on_c, 1, 65, 96
2, 267299, Note_on_c, 1, 65, 0
2, 267300, Note_on_c, 1, 65, 96
2, 267359, Note_on_c, 1, 65, 0
2, 267360, Note_on_c, 1, 55, 96
2, 267419, Note_on_c, 1, 55, 0
2, 267420, Note_on_c, 1, 65, 96
2, 267479, Note_on_c, 1, 65, 0
2, 267480, Note_on_c, 1, 65, 96
2, 267539, Note_on_c, 1, 65, 0
2, 267540, Note_on_c, 1, 65, 96
2, 267599, Note_on_c, 1, 65, 0
2, 267600, Note_on_c, 1, 55, 96
2, 267659, Note_on_c, 1, 55, 0
2, 267660, Note_on_c, 1, 65, 96
2, 267719, Note_on_c, 1, 65, 0
2, 267720, Note_on_c, 1, 65, 96
2, 267779, Note_on_c, 1, 65, 0
2, 267780, Note_on_c, 1, 65, 96
2, 267839, Note_on_c, 1, 65, 0
2, 267840, Note_on_c, 1, 55, 96
2, 267899, Note_on_c, 1, 55, 0
2, 267900, Note_on_c, 1, 65, 96
2, 267959, Note_on_c, 1, 65, 0
2, 267960, Note_on_c, 1, 65, 96
2, 268019, Note_on_c, 1, 65, 0
2, 268020, Note_on_c, 1, 65, 96
2, 268079, Note_on_c, 1, 65, 0
2, 268080, Note_on_c, 1, 55, 96
2, 268139, Note_on_c, 1, 55, 0
2, 268140, Note_on_c, 1, 64, 96
2, 268199, Note_on_c, 1, 64, 0
2, 268200, Note_on_c, 1, 64, 96
2, 268259, Note_on_c, 1, 64, 0
2, 268260, Note_on_c, 1, 64, 96
2, 268319, Note_on_c, 1, 64, 0
2, 268320, Note_on_c, 1, 55, 96
2, 268379, Note_on_c, 1, 55, 0
2, 268380, Note_on_c, 1, 64, 96
2, 268439, Note_on_c, 1, 64, 0
2, 268440, Note_on_c, 1, 64, 96
2, 268499, Note_on_c, 1, 64, 0
2, 268500, Note_on_c, 1, 64, 96
2, 268559, Note_on_c, 1, 64, 0
2, 268560, Note_on_c, 1, 55, 96
2, 268619, Note_on_c, 1, 55, 0
2, 268620, Note_on_c, 1, 64, 96
2, 268679, Note_on_c, 1, 64, 0
2, 268680, Note_on_c, 1, 64, 96
2, 268739, Note_on_c, 1, 64, 0
2, 268740, Note_on_c, 1, 64, 96
2, 268799, Note_on_c, 1, 64, 0
2, 268800, Note_on_c, 1, 65, 96
2, 269519, Note_on_c, 1, 65, 0
2, 269520, End_track
3, 0, Start_track
3, 0, Key_signature, -4, "major"
3, 0, Program_c, 2, 40
3, 2, Control_c, 2, 7, 100
3, 4, Control_c, 2, 10, 64
3, 6, Control_c, 2, 91, 30
3, 8, Control_c, 2, 93, 30
3, 3840, Note_on_c, 2, 73, 64
3, 3959, Note_on_c, 2, 73, 0
3, 4080, Note_on_c, 2, 73, 64
3, 4199, Note_on_c, 2, 73, 0
3, 4320, Note_on_c, 2, 73, 64
3, 4439, Note_on_c, 2, 73, 0
3, 4560, Note_on_c, 2, 73, 64
3, 4679, Note_on_c, 2, 73, 0
3, 4800, Note_on_c, 2, 73, 64
3, 4919, Note_on_c, 2, 73, 0
3, 5040, Note_on_c, 2, 73, 64
3, 5159, Note_on_c, 2, 73, 0
3, 5280, Note_on_c, 2, 73, 64
3, 5399, Note_on_c, 2, 73, 0
3, 5520, Note_on_c, 2, 73, 64
3, 5639, Note_on_c, 2, 73, 0
3, 5760, Note_on_c, 2, 73, 64
3, 5879, Note_on_c, 2, 73, 0
3, 6000, Note_on_c, 2, 73, 64
3, 6119, Note_on_c, 2, 73, 0
3, 6240, Note_on_c, 2, 73, 64
3, 6359, Note_on_c, 2, 73, 0
3, 6480, Note_on_c, 2, 73, 64
3, 6599, Note_on_c, 2, 73, 0
3, 6720, Note_on_c, 2, 73, 64
3, 6839, Note_on_c, 2, 73, 0
3, 6960, Note_on_c, 2, 73, 64
3, 7079, Note_on_c, 2, 73, 0
3, 7200, Note_on_c, 2, 73, 64
3, 7319, Note_on_c, 2, 73, 0
3, 7440, Note_on_c, 2, 73, 64
3, 7559, Note_on_c, 2, 73, 0
3, 7680, Note_on_c, 2, 73, 64
3, 7799, Note_on_c, 2, 73, 0
3, 7920, Note_on_c, 2, 73, 64
3, 8039, Note_on_c, 2, 73, 0
3, 8160, Note_on_c, 2, 73, 64
3, 8279, Note_on_c, 2, 73, 0
3, 8400, Note_on_c, 2, 73, 64
3, 8519, Note_on_c, 2, 73, 0
3, 8640, Note_on_c, 2, 73, 64
3, 8759, Note_on_c, 2, 73, 0
3, 8880, Note_on_c, 2, 73, 64
3, 8999, Note_on_c, 2, 73, 0
3, 9120, Note_on_c, 2, 73, 64
3, 9239, Note_on_c, 2, 73, 0
3, 9360, Note_on_c, 2, 73, 64
3, 9479, Note_on_c, 2, 73, 0
3, 9600, Note_on_c, 2, 72, 64
3, 9719, Note_on_c, 2, 72, 0
3, 9840, Note_on_c, 2, 72, 64
3, 9959, Note_on_c, 2, 72, 0
3, 10080, Note_on_c, 2, 72, 64
3, 10199, Note_on_c, 2, 72, 0
3, 10320, Note_on_c, 2, 72, 64
3, 10439, Note_on_c, 2, 72, 0
3, 10560, Note_on_c, 2, 72, 64
3, 10679, Note_on_c, 2, 72, 0
3, 10800, Note_on_c, 2, 72, 64
3, 10919, Note_on_c, 2, 72, 0
3, 11040, Note_on_c, 2, 72, 64
3, 11159, Note_on_c, 2, 72, 0
3, 11280, Note_on_c, 2, 72, 64
3, 11399, Note_on_c, 2, 72, 0
3, 11520, Note_on_c, 2, 70, 64
3, 11639, Note_on_c, 2, 70, 0
3, 11760, Note_on_c, 2, 70, 64
3, 11879, Note_on_c, 2, 70, 0
3, 12000, Note_on_c, 2, 70, 64
3, 12119, Note_on_c, 2, 70, 0
3, 12240, Note_on_c, 2, 70, 64
3, 12359, Note_on_c, 2, 70, 0
3, 12480, Note_on_c, 2, 70, 64
3, 12599, Note_on_c, 2, 70, 0
3, 12720, Note_on_c, 2, 70, 64
3, 12839, Note_on_c, 2, 70, 0
3, 12960, Note_on_c, 2, 70, 64
3, 13079, Note_on_c, 2, 70, 0
3, 13200, Note_on_c, 2, 70, 64
3, 13319, Note_on_c, 2, 70, 0
3, 13440, Note_on_c, 2, 72, 64
3, 13559, Note_on_c, 2, 72, 0
3, 13680, Note_on_c, 2, 72, 64
3, 13799, Note_on_c, 2, 72, 0
3, 13920, Note_on_c, 2, 72, 64
3, 14039, Note_on_c, 2, 72, 0
3, 14160, Note_on_c, 2, 72, 64
3, 14279, Note_on_c, 2, 72, 0
3, 14400, Note_on_c, 2, 72, 64
3, 14519, Note_on_c, 2, 72, 0
3, 14640, Note_on_c, 2, 72, 64
3, 14759, Note_on_c, 2, 72, 0
3, 14880, Note_on_c, 2, 72, 64
3, 14999, Note_on_c, 2, 72, 0
3, 15120, Note_on_c, 2, 72, 64
3, 15239, Note_on_c, 2, 72, 0
3, 15360, Note_on_c, 2, 71, 64
3, 15479, Note_on_c, 2, 71, 0
3, 15600, Note_on_c, 2, 71, 64
3, 15719, Note_on_c, 2, 71, 0
3, 15840, Note_on_c, 2, 71, 64
3, 15959, Note_on_c, 2, 71, 0
3, 16080, Note_on_c, 2, 71, 64
3, 16199, Note_on_c, 2, 71, 0
3, 16320, Note_on_c, 2, 71, 64
3, 16439, Note_on_c, 2, 71, 0
3, 16560, Note_on_c, 2, 71, 64
3, 16679, Note_on_c, 2, 71, 0
3, 16800, Note_on_c, 2, 71, 64
3, 16919, Note_on_c, 2, 71, 0
3, 17040, Note_on_c, 2, 71, 64
3, 17159, Note_on_c, 2, 71, 0
3, 17280, Note_on_c, 2, 72, 64
3, 17399, Note_on_c, 2, 72, 0
3, 17520, Note_on_c, 2, 72, 64
3, 17639, Note_on_c, 2, 72, 0
3, 17760, Note_on_c, 2, 72, 64
3, 17879, Note_on_c, 2, 72, 0
3, 18000, Note_on_c, 2, 72, 64
3, 18119, Note_on_c, 2, 72, 0
3, 18240, Note_on_c, 2, 72, 64
3, 18359, Note_on_c, 2, 72, 0
3, 18480, Note_on_c, 2, 72, 64
3, 18599, Note_on_c, 2, 72, 0
3, 18720, Note_on_c, 2, 72, 64
3, 18839, Note_on_c, 2, 72, 0
3, 18960, Note_on_c, 2, 72, 64
3, 19079, Note_on_c, 2, 72, 0
3, 19200, Note_on_c, 2, 72, 64
3, 19319, Note_on_c, 2, 72, 0
3, 19440, Note_on_c, 2, 72, 64
3, 19559, Note_on_c, 2, 72, 0
3, 19680, Note_on_c, 2, 72, 64
3, 19799, Note_on_c, 2, 72, 0
3, 19920, Note_on_c, 2, 72, 64
3, 20039, Note_on_c, 2, 72, 0
3, 20160, Note_on_c, 2, 71, 64
3, 20279, Note_on_c, 2, 71, 0
3, 20400, Note_on_c, 2, 71, 64
3, 20519, Note_on_c, 2, 71, 0
3, 20640, Note_on_c, 2, 71, 64
3, 20759, Note_on_c, 2, 71, 0
3, 20880, Note_on_c, 2, 71, 64
3, 20999, Note_on_c, 2, 71, 0
3, 21120, Note_on_c, 2, 72, 96
3, 21599, Note_on_c, 2, 72, 0
3, 24000, Note_on_c, 2, 63, 64
3, 24119, Note_on_c, 2, 63, 0
3, 24240, Note_on_c, 2, 63, 64
3, 24359, Note_on_c, 2, 63, 0
3, 24480, Note_on_c, 2, 63, 64
3, 24599, Note_on_c, 2, 63, 0
3, 24720, Note_on_c, 2, 63, 64
3, 24839, Note_on_c, 2, 63, 0
3, 24960, Note_on_c, 2, 63, 64
3, 25079, Note_on_c, 2, 63, 0
3, 25200, Note_on_c, 2, 63, 64
3, 25319, Note_on_c, 2, 63, 0
3, 25440, Note_on_c, 2, 63, 64
3, 25559, Note_on_c, 2, 63, 0
3, 25680, Note_on_c, 2, 63, 64
3, 25799, Note_on_c, 2, 63, 0
3, 25920, Note_on_c, 2, 63, 64
3, 26399, Note_on_c, 2, 63, 0
3, 28800, Note_on_c, 2, 63, 64
3, 28919, Note_on_c, 2, 63, 0
3, 29040, Note_on_c, 2, 63, 64
3, 29159, Note_on_c, 2, 63, 0
3, 29280, Note_on_c, 2, 63, 64
3, 29399, Note_on_c, 2, 63, 0
3, 29520, Note_on_c, 2, 63, 64
3, 29639, Note_on_c, 2, 63, 0
3, 29760, Note_on_c, 2, 63, 64
3, 29879, Note_on_c, 2, 63, 0
3, 30000, Note_on_c, 2, 63, 64
3, 30119, Note_on_c, 2, 63, 0
3, 30240, Note_on_c, 2, 63, 64
3, 30359, Note_on_c, 2, 63, 0
3, 30480, Note_on_c, 2, 63, 64
3, 30599, Note_on_c, 2, 63, 0
3, 30720, Note_on_c, 2, 63, 64
3, 31199, Note_on_c, 2, 63, 0
3, 33600, Note_on_c, 2, 72, 64
3, 33719, Note_on_c, 2, 72, 0
3, 33840, Note_on_c, 2, 72, 64
3, 33959, Note_on_c, 2, 72, 0
3, 34080, Note_on_c, 2, 72, 64
3, 34199, Note_on_c, 2, 72, 0
3, 34320, Note_on_c, 2, 72, 64
3, 34439, Note_on_c, 2, 72, 0
3, 34560, Note_on_c, 2, 72, 64
3, 34679, Note_on_c, 2, 72, 0
3, 34800, Note_on_c, 2, 72, 64
3, 34919, Note_on_c, 2, 72, 0
3, 35040, Note_on_c, 2, 72, 64
3, 35159, Note_on_c, 2, 72, 0
3, 35280, Note_on_c, 2, 72, 64
3, 35399, Note_on_c, 2, 72, 0
3, 35520, Note_on_c, 2, 70, 64
3, 35639, Note_on_c, 2, 70, 0
3, 35760, Note_on_c, 2, 70, 64
3, 35879, Note_on_c, 2, 70, 0
3, 36000, Note_on_c, 2, 70, 64
3, 36119, Note_on_c, 2, 70, 0
3, 36240, Note_on_c, 2, 70, 64
3, 36359, Note_on_c, 2, 70, 0
3, 36480, Note_on_c, 2, 68, 64
3, 36599, Note_on_c, 2, 68, 0
3, 36720, Note_on_c, 2, 68, 64
3, 36839, Note_on_c, 2, 68, 0
3, 36960, Note_on_c, 2, 68, 64
3, 37079, Note_on_c, 2, 68, 0
3, 37200, Note_on_c, 2, 68, 64
3, 37319, Note_on_c, 2, 68, 0
3, 37440, Note_on_c, 2, 70, 64
3, 37559, Note_on_c, 2, 70, 0
3, 37680, Note_on_c, 2, 70, 64
3, 37799, Note_on_c, 2, 70, 0
3, 37920, Note_on_c, 2, 70, 64
3, 38039, Note_on_c, 2, 70, 0
3, 38160, Note_on_c, 2, 70, 64
3, 38279, Note_on_c, 2, 70, 0
3, 38400, Note_on_c, 2, 72, 64
3, 38519, Note_on_c, 2, 72, 0
3, 38640, Note_on_c, 2, 72, 64
3, 38759, Note_on_c, 2, 72, 0
3, 38880, Note_on_c, 2, 72, 64
3, 38999, Note_on_c, 2, 72, 0
3, 39120, Note_on_c, 2, 72, 64
3, 39239, Note_on_c, 2, 72, 0
3, 39360, Note_on_c, 2, 73, 64
3, 39479, Note_on_c, 2, 73, 0
3, 39600, Note_on_c, 2, 73, 64
3, 39719, Note_on_c, 2, 73, 0
3, 39840, Note_on_c, 2, 73, 64
3, 39959, Note_on_c, 2, 73, 0
3, 40080, Note_on_c, 2, 73, 64
3, 40199, Note_on_c, 2, 73, 0
3, 40320, Note_on_c, 2, 73, 64
3, 40439, Note_on_c, 2, 73, 0
3, 40560, Note_on_c, 2, 73, 64
3, 40679, Note_on_c, 2, 73, 0
3, 40800, Note_on_c, 2, 73, 64
3, 40919, Note_on_c, 2, 73, 0
3, 41040, Note_on_c, 2, 73, 64
3, 41159, Note_on_c, 2, 73, 0
3, 41280, Note_on_c, 2, 67, 64
3, 41399, Note_on_c, 2, 67, 0
3, 41400, Note_on_c, 2, 76, 64
3, 41459, Note_on_c, 2, 76, 0
3, 41460, Note_on_c, 2, 76, 64
3, 41519, Note_on_c, 2, 76, 0
3, 41520, Note_on_c, 2, 76, 64
3, 41579, Note_on_c, 2, 76, 0
3, 41580, Note_on_c, 2, 76, 64
3, 41639, Note_on_c, 2, 76, 0
3, 41640, Note_on_c, 2, 76, 64
3, 41699, Note_on_c, 2, 76, 0
3, 41700, Note_on_c, 2, 76, 64
3, 41759, Note_on_c, 2, 76, 0
3, 41760, Note_on_c, 2, 76, 64
3, 41879, Note_on_c, 2, 76, 0
3, 41880, Note_on_c, 2, 76, 64
3, 41999, Note_on_c, 2, 76, 0
3, 42000, Note_on_c, 2, 76, 64
3, 42119, Note_on_c, 2, 76, 0
3, 42120, Note_on_c, 2, 76, 64
3, 42239, Note_on_c, 2, 76, 0
3, 42240, Note_on_c, 2, 77, 112
3, 42359, Note_on_c, 2, 77, 0
3, 42360, Note_on_c, 2, 72, 112
3, 42479, Note_on_c, 2, 72, 0
3, 42480, Note_on_c, 2, 77, 112
3, 42599, Note_on_c, 2, 77, 0
3, 42600, Note_on_c, 2, 72, 112
3, 42719, Note_on_c, 2, 72, 0
3, 42720, Note_on_c, 2, 77, 112
3, 42839, Note_on_c, 2, 77, 0
3, 42840, Note_on_c, 2, 72, 112
3, 42959, Note_on_c, 2, 72, 0
3, 42960, Note_on_c, 2, 77, 112
3, 43079, Note_on_c, 2, 77, 0
3, 43080, Note_on_c, 2, 72, 112
3, 43199, Note_on_c, 2, 72, 0
3, 43200, Note_on_c, 2, 77, 112
3, 43319, Note_on_c, 2, 77, 0
3, 43320, Note_on_c, 2, 77, 112
3, 43379, Note_on_c, 2, 77, 0
3, 43380, Note_on_c, 2, 77, 112
3, 43439, Note_on_c, 2, 77, 0
3, 43440, Note_on_c, 2, 77, 112
3, 43499, Note_on_c, 2, 77, 0
3, 43500, Note_on_c, 2, 77, 112
3, 43559, Note_on_c, 2, 77, 0
3, 43560, Note_on_c, 2, 77, 112
3, 43619, Note_on_c, 2, 77, 0
3, 43620, Note_on_c, 2, 77, 112
3, 43679, Note_on_c, 2, 77, 0
3, 43680, Note_on_c, 2, 77, 112
3, 43799, Note_on_c, 2, 77, 0
3, 43800, Note_on_c, 2, 77, 112
3, 43919, Note_on_c, 2, 77, 0
3, 43920, Note_on_c, 2, 77, 112
3, 44039, Note_on_c, 2, 77, 0
3, 44040, Note_on_c, 2, 77, 112
3, 44159, Note_on_c, 2, 77, 0
3, 44160, Note_on_c, 2, 75, 112
3, 44279, Note_on_c, 2, 75, 0
3, 44280, Note_on_c, 2, 70, 112
3, 44399, Note_on_c, 2, 70, 0
3, 44400, Note_on_c, 2, 75, 112
3, 44519, Note_on_c, 2, 75, 0
3, 44520, Note_on_c, 2, 70, 112
3, 44639, Note_on_c, 2, 70, 0
3, 44640, Note_on_c, 2, 75, 112
3, 44759, Note_on_c, 2, 75, 0
3, 44760, Note_on_c, 2, 70, 112
3, 44879, Note_on_c, 2, 70, 0
3, 44880, Note_on_c, 2, 75, 112
3, 44999, Note_on_c, 2, 75, 0
3, 45000, Note_on_c, 2, 70, 112
3, 45119, Note_on_c, 2, 70, 0
3, 45120, Note_on_c, 2, 75, 112
3, 45239, Note_on_c, 2, 75, 0
3, 45240, Note_on_c, 2, 75, 112
3, 45299, Note_on_c, 2, 75, 0
3, 45300, Note_on_c, 2, 75, 112
3, 45359, Note_on_c, 2, 75, 0
3, 45360, Note_on_c, 2, 75, 112
3, 45419, Note_on_c, 2, 75, 0
3, 45420, Note_on_c, 2, 75, 112
3, 45479, Note_on_c, 2, 75, 0
3, 45480, Note_on_c, 2, 75, 112
3, 45539, Note_on_c, 2, 75, 0
3, 45540, Note_on_c, 2, 75, 112
3, 45599, Note_on_c, 2, 75, 0
3, 45600, Note_on_c, 2, 75, 112
3, 45719, Note_on_c, 2, 75, 0
3, 45720, Note_on_c, 2, 75, 112
3, 45839, Note_on_c, 2, 75, 0
3, 45840, Note_on_c, 2, 75, 112
3, 45959, Note_on_c, 2, 75, 0
3, 45960, Note_on_c, 2, 75, 112
3, 46079, Note_on_c, 2, 75, 0
3, 46080, Note_on_c, 2, 73, 112
3, 46199, Note_on_c, 2, 73, 0
3, 46200, Note_on_c, 2, 68, 112
3, 46319, Note_on_c, 2, 68, 0
3, 46320, Note_on_c, 2, 73, 112
3, 46439, Note_on_c, 2, 73, 0
3, 46440, Note_on_c, 2, 68, 112
3, 46559, Note_on_c, 2, 68, 0
3, 46560, Note_on_c, 2, 73, 112
3, 46679, Note_on_c, 2, 73, 0
3, 46680, Note_on_c, 2, 68, 112
3, 46799, Note_on_c, 2, 68, 0
3, 46800, Note_on_c, 2, 73, 112
3, 46919, Note_on_c, 2, 73, 0
3, 46920, Note_on_c, 2, 68, 112
3, 47039, Note_on_c, 2, 68, 0
3, 47040, Note_on_c, 2, 73, 112
3, 47159, Note_on_c, 2, 73, 0
3, 47160, Note_on_c, 2, 73, 112
3, 47219, Note_on_c, 2, 73, 0
3, 47220, Note_on_c, 2, 73, 112
3, 47279, Note_on_c, 2, 73, 0
3, 47280, Note_on_c, 2, 73, 112
3, 47339, Note_on_c, 2, 73, 0
3, 47340, Note_on_c, 2, 73, 112
3, 47399, Note_on_c, 2, 73, 0
3, 47400, Note_on_c, 2, 73, 112
3, 47459, Note_on_c, 2, 73, 0
3, 47460, Note_on_c, 2, 73, 112
3, 47519, Note_on_c, 2, 73, 0
3, 47520, Note_on_c, 2, 73, 112
3, 47639, Note_on_c, 2, 73, 0
3, 47640, Note_on_c, 2, 73, 112
3, 47759, Note_on_c, 2, 73, 0
3, 47760, Note_on_c, 2, 73, 112
3, 47879, Note_on_c, 2, 73, 0
3, 47880, Note_on_c, 2, 73, 112
3, 47999, Note_on_c, 2, 73, 0
3, 48000, Note_on_c, 2, 72, 112
3, 48119, Note_on_c, 2, 72, 0
3, 48120, Note_on_c, 2, 67, 112
3, 48239, Note_on_c, 2, 67, 0
3, 48240, Note_on_c, 2, 72, 112
3, 48359, Note_on_c, 2, 72, 0
3, 48360, Note_on_c, 2, 67, 112
3, 48479, Note_on_c, 2, 67, 0
3, 48480, Note_on_c, 2, 72, 112
3, 48599, Note_on_c, 2, 72, 0
3, 48600, Note_on_c, 2, 67, 112
3, 48719, Note_on_c, 2, 67, 0
3, 48720, Note_on_c, 2, 72, 112
3, 48839, Note_on_c, 2, 72, 0
3, 48840, Note_on_c, 2, 67, 112
3, 48959, Note_on_c, 2, 67, 0
3, 48960, Note_on_c, 2, 68, 112
3, 49439, Note_on_c, 2, 68, 0
3, 62400, Note_on_c, 2, 70, 64
3, 62459, Note_on_c, 2, 70, 0
3, 62460, Note_on_c, 2, 70, 64
3, 62519, Note_on_c, 2, 70, 0
3, 62520, Note_on_c, 2, 70, 64
3, 62579, Note_on_c, 2, 70, 0
3, 62580, Note_on_c, 2, 70, 64
3, 62639, Note_on_c, 2, 70, 0
3, 62640, Note_on_c, 2, 70, 64
3, 62699, Note_on_c, 2, 70, 0
3, 62700, Note_on_c, 2, 70, 64
3, 62759, Note_on_c, 2, 70, 0
3, 62760, Note_on_c, 2, 70, 64
3, 62819, Note_on_c, 2, 70, 0
3, 62820, Note_on_c, 2, 70, 64
3, 62879, Note_on_c, 2, 70, 0
3, 62880, Note_on_c, 2, 70, 64
3, 62939, Note_on_c, 2, 70, 0
3, 62940, Note_on_c, 2, 70, 64
3, 62999, Note_on_c, 2, 70, 0
3, 63000, Note_on_c, 2, 70, 64
3, 63059, Note_on_c, 2, 70, 0
3, 63060, Note_on_c, 2, 70, 64
3, 63119, Note_on_c, 2, 70, 0
3, 63120, Note_on_c, 2, 70, 64
3, 63179, Note_on_c, 2, 70, 0
3, 63180, Note_on_c, 2, 70, 64
3, 63239, Note_on_c, 2, 70, 0
3, 63240, Note_on_c, 2, 70, 64
3, 63299, Note_on_c, 2, 70, 0
3, 63300, Note_on_c, 2, 70, 64
3, 63359, Note_on_c, 2, 70, 0
3, 63360, Note_on_c, 2, 68, 96
3, 63839, Note_on_c, 2, 68, 0
3, 64320, Note_on_c, 2, 75, 96
3, 64379, Note_on_c, 2, 75, 0
3, 64380, Note_on_c, 2, 75, 96
3, 64439, Note_on_c, 2, 75, 0
3, 64440, Note_on_c, 2, 75, 96
3, 64499, Note_on_c, 2, 75, 0
3, 64500, Note_on_c, 2, 75, 96
3, 64559, Note_on_c, 2, 75, 0
3, 64560, Note_on_c, 2, 75, 96
3, 64619, Note_on_c, 2, 75, 0
3, 64620, Note_on_c, 2, 75, 96
3, 64679, Note_on_c, 2, 75, 0
3, 64680, Note_on_c, 2, 75, 96
3, 64739, Note_on_c, 2, 75, 0
3, 64740, Note_on_c, 2, 75, 96
3, 64799, Note_on_c, 2, 75, 0
3, 64800, Note_on_c, 2, 75, 96
3, 64859, Note_on_c, 2, 75, 0
3, 64860, Note_on_c, 2, 75, 96
3, 64919, Note_on_c, 2, 75, 0
3, 64920, Note_on_c, 2, 75, 96
3, 64979, Note_on_c, 2, 75, 0
3, 64980, Note_on_c, 2, 75, 96
3, 65039, Note_on_c, 2, 75, 0
3, 65040, Note_on_c, 2, 75, 96
3, 65099, Note_on_c, 2, 75, 0
3, 65100, Note_on_c, 2, 75, 96
3, 65159, Note_on_c, 2, 75, 0
3, 65160, Note_on_c, 2, 75, 96
3, 65219, Note_on_c, 2, 75, 0
3, 65220, Note_on_c, 2, 75, 96
3, 65279, Note_on_c, 2, 75, 0
3, 65280, Note_on_c, 2, 74, 96
3, 65759, Note_on_c, 2, 74, 0
3, 66240, Note_on_c, 2, 77, 64
3, 66299, Note_on_c, 2, 77, 0
3, 66300, Note_on_c, 2, 77, 64
3, 66359, Note_on_c, 2, 77, 0
3, 66360, Note_on_c, 2, 77, 64
3, 66419, Note_on_c, 2, 77, 0
3, 66420, Note_on_c, 2, 77, 64
3, 66479, Note_on_c, 2, 77, 0
3, 66480, Note_on_c, 2, 77, 64
3, 66539, Note_on_c, 2, 77, 0
3, 66540, Note_on_c, 2, 77, 64
3, 66599, Note_on_c, 2, 77, 0
3, 66600, Note_on_c, 2, 77, 64
3, 66659, Note_on_c, 2, 77, 0
3, 66660, Note_on_c, 2, 77, 64
3, 66719, Note_on_c, 2, 77, 0
3, 66720, Note_on_c, 2, 77, 64
3, 66779, Note_on_c, 2, 77, 0
3, 66780, Note_on_c, 2, 77, 64
3, 66839, Note_on_c, 2, 77, 0
3, 66840, Note_on_c, 2, 77, 64
3, 66899, Note_on_c, 2, 77, 0
3, 66900, Note_on_c, 2, 77, 64
3, 66959, Note_on_c, 2, 77, 0
3, 66960, Note_on_c, 2, 77, 64
3, 67019, Note_on_c, 2, 77, 0
3, 67020, Note_on_c, 2, 77, 64
3, 67079, Note_on_c, 2, 77, 0
3, 67080, Note_on_c, 2, 77, 64
3, 67139, Note_on_c, 2, 77, 0
3, 67140, Note_on_c, 2, 77, 64
3, 67199, Note_on_c, 2, 77, 0
3, 67200, Note_on_c, 2, 75, 96
3, 67679, Note_on_c, 2, 75, 0
3, 68160, Note_on_c, 2, 68, 64
3, 68219, Note_on_c, 2, 68, 0
3, 68220, Note_on_c, 2, 68, 64
3, 68279, Note_on_c, 2, 68, 0
3, 68280, Note_on_c, 2, 68, 64
3, 68339, Note_on_c, 2, 68, 0
3, 68340, Note_on_c, 2, 68, 64
3, 68399, Note_on_c, 2, 68, 0
3, 68400, Note_on_c, 2, 68, 64
3, 68459, Note_on_c, 2, 68, 0
3, 68460, Note_on_c, 2, 68, 64
3, 68519, Note_on_c, 2, 68, 0
3, 68520, Note_on_c, 2, 68, 64
3, 68579, Note_on_c, 2, 68, 0
3, 68580, Note_on_c, 2, 68, 64
3, 68639, Note_on_c, 2, 68, 0
3, 68640, Note_on_c, 2, 68, 64
3, 68699, Note_on_c, 2, 68, 0
3, 68700, Note_on_c, 2, 68, 64
3, 68759, Note_on_c, 2, 68, 0
3, 68760, Note_on_c, 2, 68, 64
3, 68819, Note_on_c, 2, 68, 0
3, 68820, Note_on_c, 2, 68, 64
3, 68879, Note_on_c, 2, 68, 0
3, 68880, Note_on_c, 2, 68, 64
3, 68939, Note_on_c, 2, 68, 0
3, 68940, Note_on_c, 2, 68, 64
3, 68999, Note_on_c, 2, 68, 0
3, 69000, Note_on_c, 2, 68, 64
3, 69059, Note_on_c, 2, 68, 0
3, 69060, Note_on_c, 2, 68, 64
3, 69119, Note_on_c, 2, 68, 0
3, 69120, Note_on_c, 2, 67, 96
3, 69599, Note_on_c, 2, 67, 0
3, 70080, Note_on_c, 2, 65, 96
3, 70139, Note_on_c, 2, 65, 0
3, 70140, Note_on_c, 2, 65, 96
3, 70199, Note_on_c, 2, 65, 0
3, 70200, Note_on_c, 2, 65, 96
3, 70259, Note_on_c, 2, 65, 0
3, 70260, Note_on_c, 2, 65, 96
3, 70319, Note_on_c, 2, 65, 0
3, 70320, Note_on_c, 2, 65, 96
3, 70379, Note_on_c, 2, 65, 0
3, 70380, Note_on_c, 2, 65, 96
3, 70439, Note_on_c, 2, 65, 0
3, 70440, Note_on_c, 2, 65, 96
3, 70499, Note_on_c, 2, 65, 0
3, 70500, Note_on_c, 2, 65, 96
3, 70559, Note_on_c, 2, 65, 0
3, 70560, Note_on_c, 2, 65, 96
3, 70619, Note_on_c, 2, 65, 0
3, 70620, Note_on_c, 2, 65, 96
3, 70679, Note_on_c, 2, 65, 0
3, 70680, Note_on_c, 2, 65, 96
3, 70739, Note_on_c, 2, 65, 0
3, 70740, Note_on_c, 2, 65, 96
3, 70799, Note_on_c, 2, 65, 0
3, 70800, Note_on_c, 2, 65, 96
3, 70859, Note_on_c, 2, 65, 0
3, 70860, Note_on_c, 2, 65, 96
3, 70919, Note_on_c, 2, 65, 0
3, 70920, Note_on_c, 2, 65, 96
3, 70979, Note_on_c, 2, 65, 0
3, 70980, Note_on_c, 2, 65, 96
3, 71039, Note_on_c, 2, 65, 0
3, 71040, Note_on_c, 2, 65, 96
3, 71099, Note_on_c, 2, 65, 0
3, 71100, Note_on_c, 2, 65, 96
3, 71159, Note_on_c, 2, 65, 0
3, 71160, Note_on_c, 2, 65, 96
3, 71219, Note_on_c, 2, 65, 0
3, 71220, Note_on_c, 2, 65, 96
3, 71279, Note_on_c, 2, 65, 0
3, 71280, Note_on_c, 2, 65, 96
3, 71339, Note_on_c, 2, 65, 0
3, 71340, Note_on_c, 2, 65, 96
3, 71399, Note_on_c, 2, 65, 0
3, 71400, Note_on_c, 2, 65, 96
3, 71459, Note_on_c, 2, 65, 0
3, 71460, Note_on_c, 2, 65, 96
3, 71519, Note_on_c, 2, 65, 0
3, 71520, Note_on_c, 2, 65, 96
3, 71579, Note_on_c, 2, 65, 0
3, 71580, Note_on_c, 2, 65, 96
3, 71639, Note_on_c, 2, 65, 0
3, 71640, Note_on_c, 2, 65, 96
3, 71699, Note_on_c, 2, 65, 0
3, 71700, Note_on_c, 2, 65, 96
3, 71759, Note_on_c, 2, 65, 0
3, 71760, Note_on_c, 2, 65, 96
3, 71819, Note_on_c, 2, 65, 0
3, 71820, Note_on_c, 2, 65, 96
3, 71879, Note_on_c, 2, 65, 0
3, 71880, Note_on_c, 2, 65, 96
3, 71939, Note_on_c, 2, 65, 0
3, 71940, Note_on_c, 2, 65, 96
3, 71999, Note_on_c, 2, 65, 0
3, 72000, Note_on_c, 2, 67, 96
3, 72479, Note_on_c, 2, 67, 0
3, 73920, Note_on_c, 2, 68, 64
3, 74039, Note_on_c, 2, 68, 0
3, 74160, Note_on_c, 2, 68, 64
3, 74279, Note_on_c, 2, 68, 0
3, 74400, Note_on_c, 2, 68, 64
3, 74519, Note_on_c, 2, 68, 0
3, 74640, Note_on_c, 2, 68, 64
3, 74759, Note_on_c, 2, 68, 0
3, 74880, Note_on_c, 2, 68, 64
3, 74999, Note_on_c, 2, 68, 0
3, 75120, Note_on_c, 2, 68, 64
3, 75239, Note_on_c, 2, 68, 0
3, 75360, Note_on_c, 2, 68, 64
3, 75479, Note_on_c, 2, 68, 0
3, 75600, Note_on_c, 2, 68, 64
3, 75719, Note_on_c, 2, 68, 0
3, 75840, Note_on_c, 2, 68, 64
3, 75959, Note_on_c, 2, 68, 0
3, 76080, Note_on_c, 2, 68, 64
3, 76199, Note_on_c, 2, 68, 0
3, 76320, Note_on_c, 2, 68, 64
3, 76439, Note_on_c, 2, 68, 0
3, 76560, Note_on_c, 2, 68, 64
3, 76679, Note_on_c, 2, 68, 0
3, 76800, Note_on_c, 2, 67, 64
3, 76919, Note_on_c, 2, 67, 0
3, 77040, Note_on_c, 2, 67, 64
3, 77159, Note_on_c, 2, 67, 0
3, 77280, Note_on_c, 2, 67, 64
3, 77399, Note_on_c, 2, 67, 0
3, 77520, Note_on_c, 2, 67, 64
3, 77639, Note_on_c, 2, 67, 0
3, 77760, Note_on_c, 2, 67, 64
3, 77879, Note_on_c, 2, 67, 0
3, 78000, Note_on_c, 2, 67, 64
3, 78119, Note_on_c, 2, 67, 0
3, 78240, Note_on_c, 2, 67, 64
3, 78359, Note_on_c, 2, 67, 0
3, 78480, Note_on_c, 2, 67, 64
3, 78599, Note_on_c, 2, 67, 0
3, 78720, Note_on_c, 2, 63, 64
3, 78959, Note_on_c, 2, 63, 0
3, 78960, Note_on_c, 2, 63, 64
3, 79199, Note_on_c, 2, 63, 0
3, 79200, Note_on_c, 2, 63, 64
3, 79439, Note_on_c, 2, 63, 0
3, 79440, Note_on_c, 2, 63, 64
3, 79679, Note_on_c, 2, 63, 0
3, 79680, Note_on_c, 2, 69, 64
3, 79919, Note_on_c, 2, 69, 0
3, 79920, Note_on_c, 2, 69, 64
3, 80159, Note_on_c, 2, 69, 0
3, 80160, Note_on_c, 2, 69, 64
3, 80399, Note_on_c, 2, 69, 0
3, 80400, Note_on_c, 2, 69, 64
3, 80639, Note_on_c, 2, 69, 0
3, 80640, Note_on_c, 2, 65, 64
3, 80759, Note_on_c, 2, 65, 0
3, 80880, Note_on_c, 2, 65, 64
3, 80999, Note_on_c, 2, 65, 0
3, 81120, Note_on_c, 2, 65, 64
3, 81239, Note_on_c, 2, 65, 0
3, 81360, Note_on_c, 2, 65, 64
3, 81479, Note_on_c, 2, 65, 0
3, 81600, Note_on_c, 2, 77, 64
3, 81719, Note_on_c, 2, 77, 0
3, 81840, Note_on_c, 2, 77, 64
3, 81959, Note_on_c, 2, 77, 0
3, 82080, Note_on_c, 2, 77, 64
3, 82199, Note_on_c, 2, 77, 0
3, 82320, Note_on_c, 2, 77, 64
3, 82439, Note_on_c, 2, 77, 0
3, 82560, Note_on_c, 2, 75, 96
3, 83039, Note_on_c, 2, 75, 0
3, 88320, Note_on_c, 2, 75, 49
3, 88439, Note_on_c, 2, 75, 0
3, 88440, Note_on_c, 2, 75, 49
3, 88559, Note_on_c, 2, 75, 0
3, 88560, Note_on_c, 2, 75, 49
3, 88679, Note_on_c, 2, 75, 0
3, 88680, Note_on_c, 2, 75, 49
3, 88799, Note_on_c, 2, 75, 0
3, 88800, Note_on_c, 2, 75, 49
3, 88919, Note_on_c, 2, 75, 0
3, 88920, Note_on_c, 2, 75, 49
3, 89039, Note_on_c, 2, 75, 0
3, 89040, Note_on_c, 2, 75, 49
3, 89159, Note_on_c, 2, 75, 0
3, 89160, Note_on_c, 2, 75, 49
3, 89279, Note_on_c, 2, 75, 0
3, 89280, Note_on_c, 2, 74, 49
3, 89399, Note_on_c, 2, 74, 0
3, 89400, Note_on_c, 2, 74, 49
3, 89519, Note_on_c, 2, 74, 0
3, 89520, Note_on_c, 2, 74, 49
3, 89639, Note_on_c, 2, 74, 0
3, 89640, Note_on_c, 2, 74, 49
3, 89759, Note_on_c, 2, 74, 0
3, 89760, Note_on_c, 2, 74, 49
3, 89879, Note_on_c, 2, 74, 0
3, 89880, Note_on_c, 2, 74, 49
3, 89999, Note_on_c, 2, 74, 0
3, 90000, Note_on_c, 2, 74, 49
3, 90119, Note_on_c, 2, 74, 0
3, 90120, Note_on_c, 2, 74, 49
3, 90239, Note_on_c, 2, 74, 0
3, 90240, Note_on_c, 2, 74, 49
3, 90359, Note_on_c, 2, 74, 0
3, 90360, Note_on_c, 2, 74, 49
3, 90479, Note_on_c, 2, 74, 0
3, 90480, Note_on_c, 2, 74, 49
3, 90599, Note_on_c, 2, 74, 0
3, 90600, Note_on_c, 2, 74, 49
3, 90719, Note_on_c, 2, 74, 0
3, 90720, Note_on_c, 2, 74, 49
3, 90839, Note_on_c, 2, 74, 0
3, 90840, Note_on_c, 2, 74, 49
3, 90959, Note_on_c, 2, 74, 0
3, 90960, Note_on_c, 2, 74, 49
3, 91079, Note_on_c, 2, 74, 0
3, 91080, Note_on_c, 2, 74, 49
3, 91199, Note_on_c, 2, 74, 0
3, 91200, Note_on_c, 2, 79, 49
3, 91319, Note_on_c, 2, 79, 0
3, 91320, Note_on_c, 2, 79, 49
3, 91439, Note_on_c, 2, 79, 0
3, 91440, Note_on_c, 2, 79, 49
3, 91559, Note_on_c, 2, 79, 0
3, 91560, Note_on_c, 2, 79, 49
3, 91679, Note_on_c, 2, 79, 0
3, 91680, Note_on_c, 2, 79, 49
3, 91799, Note_on_c, 2, 79, 0
3, 91800, Note_on_c, 2, 79, 49
3, 91919, Note_on_c, 2, 79, 0
3, 91920, Note_on_c, 2, 79, 49
3, 92039, Note_on_c, 2, 79, 0
3, 92040, Note_on_c, 2, 79, 49
3, 92159, Note_on_c, 2, 79, 0
3, 92160, Note_on_c, 2, 79, 49
3, 92279, Note_on_c, 2, 79, 0
3, 92280, Note_on_c, 2, 79, 49
3, 92399, Note_on_c, 2, 79, 0
3, 92400, Note_on_c, 2, 79, 49
3, 92519, Note_on_c, 2, 79, 0
3, 92520, Note_on_c, 2, 79, 49
3, 92639, Note_on_c, 2, 79, 0
3, 92640, Note_on_c, 2, 79, 49
3, 92759, Note_on_c, 2, 79, 0
3, 92760, Note_on_c, 2, 79, 49
3, 92879, Note_on_c, 2, 79, 0
3, 92880, Note_on_c, 2, 79, 49
3, 92999, Note_on_c, 2, 79, 0
3, 93000, Note_on_c, 2, 79, 49
3, 93119, Note_on_c, 2, 79, 0
3, 93120, Note_on_c, 2, 77, 49
3, 93239, Note_on_c, 2, 77, 0
3, 93240, Note_on_c, 2, 77, 49
3, 93359, Note_on_c, 2, 77, 0
3, 93360, Note_on_c, 2, 77, 49
3, 93479, Note_on_c, 2, 77, 0
3, 93480, Note_on_c, 2, 77, 49
3, 93599, Note_on_c, 2, 77, 0
3, 93600, Note_on_c, 2, 77, 49
3, 93719, Note_on_c, 2, 77, 0
3, 93720, Note_on_c, 2, 77, 49
3, 93839, Note_on_c, 2, 77, 0
3, 93840, Note_on_c, 2, 77, 49
3, 93959, Note_on_c, 2, 77, 0
3, 93960, Note_on_c, 2, 77, 49
3, 94079, Note_on_c, 2, 77, 0
3, 94080, Note_on_c, 2, 77, 49
3, 94199, Note_on_c, 2, 77, 0
3, 94200, Note_on_c, 2, 77, 49
3, 94319, Note_on_c, 2, 77, 0
3, 94320, Note_on_c, 2, 77, 49
3, 94439, Note_on_c, 2, 77, 0
3, 94440, Note_on_c, 2, 77, 49
3, 94559, Note_on_c, 2, 77, 0
3, 94560, Note_on_c, 2, 77, 49
3, 94679, Note_on_c, 2, 77, 0
3, 94680, Note_on_c, 2, 77, 49
3, 94799, Note_on_c, 2, 77, 0
3, 94800, Note_on_c, 2, 77, 49
3, 94919, Note_on_c, 2, 77, 0
3, 94920, Note_on_c, 2, 77, 49
3, 95039, Note_on_c, 2, 77, 0
3, 95040, Note_on_c, 2, 75, 49
3, 95159, Note_on_c, 2, 75, 0
3, 95160, Note_on_c, 2, 75, 49
3, 95279, Note_on_c, 2, 75, 0
3, 95280, Note_on_c, 2, 75, 49
3, 95399, Note_on_c, 2, 75, 0
3, 95400, Note_on_c, 2, 75, 49
3, 95519, Note_on_c, 2, 75, 0
3, 95520, Note_on_c, 2, 75, 49
3, 95639, Note_on_c, 2, 75, 0
3, 95640, Note_on_c, 2, 75, 49
3, 95759, Note_on_c, 2, 75, 0
3, 95760, Note_on_c, 2, 75, 49
3, 95879, Note_on_c, 2, 75, 0
3, 95880, Note_on_c, 2, 75, 49
3, 95999, Note_on_c, 2, 75, 0
3, 96000, Note_on_c, 2, 73, 49
3, 96119, Note_on_c, 2, 73, 0
3, 96120, Note_on_c, 2, 73, 49
3, 96239, Note_on_c, 2, 73, 0
3, 96240, Note_on_c, 2, 73, 49
3, 96359, Note_on_c, 2, 73, 0
3, 96360, Note_on_c, 2, 73, 49
3, 96479, Note_on_c, 2, 73, 0
3, 96480, Note_on_c, 2, 73, 49
3, 96599, Note_on_c, 2, 73, 0
3, 96600, Note_on_c, 2, 73, 49
3, 96719, Note_on_c, 2, 73, 0
3, 96720, Note_on_c, 2, 73, 49
3, 96839, Note_on_c, 2, 73, 0
3, 96840, Note_on_c, 2, 73, 49
3, 96959, Note_on_c, 2, 73, 0
3, 96960, Note_on_c, 2, 72, 49
3, 97079, Note_on_c, 2, 72, 0
3, 97080, Note_on_c, 2, 72, 49
3, 97199, Note_on_c, 2, 72, 0
3, 97200, Note_on_c, 2, 72, 49
3, 97319, Note_on_c, 2, 72, 0
3, 97320, Note_on_c, 2, 72, 49
3, 97439, Note_on_c, 2, 72, 0
3, 97440, Note_on_c, 2, 72, 49
3, 97559, Note_on_c, 2, 72, 0
3, 97560, Note_on_c, 2, 72, 49
3, 97679, Note_on_c, 2, 72, 0
3, 97680, Note_on_c, 2, 72, 49
3, 97799, Note_on_c, 2, 72, 0
3, 97800, Note_on_c, 2, 72, 49
3, 97919, Note_on_c, 2, 72, 0
3, 97920, Note_on_c, 2, 70, 49
3, 98039, Note_on_c, 2, 70, 0
3, 98040, Note_on_c, 2, 70, 49
3, 98159, Note_on_c, 2, 70, 0
3, 98160, Note_on_c, 2, 70, 49
3, 98279, Note_on_c, 2, 70, 0
3, 98280, Note_on_c, 2, 70, 49
3, 98399, Note_on_c, 2, 70, 0
3, 98400, Note_on_c, 2, 70, 49
3, 98519, Note_on_c, 2, 70, 0
3, 98520, Note_on_c, 2, 70, 49
3, 98639, Note_on_c, 2, 70, 0
3, 98640, Note_on_c, 2, 70, 49
3, 98759, Note_on_c, 2, 70, 0
3, 98760, Note_on_c, 2, 70, 49
3, 98879, Note_on_c, 2, 70, 0
3, 98880, Note_on_c, 2, 68, 49
3, 98999, Note_on_c, 2, 68, 0
3, 99000, Note_on_c, 2, 68, 49
3, 99119, Note_on_c, 2, 68, 0
3, 99120, Note_on_c, 2, 68, 49
3, 99239, Note_on_c, 2, 68, 0
3, 99240, Note_on_c, 2, 68, 49
3, 99359, Note_on_c, 2, 68, 0
3, 99360, Note_on_c, 2, 68, 49
3, 99479, Note_on_c, 2, 68, 0
3, 99480, Note_on_c, 2, 68, 49
3, 99599, Note_on_c, 2, 68, 0
3, 99600, Note_on_c, 2, 68, 49
3, 99719, Note_on_c, 2, 68, 0
3, 99720, Note_on_c, 2, 68, 49
3, 99839, Note_on_c, 2, 68, 0
3, 99840, Note_on_c, 2, 67, 49
3, 99959, Note_on_c, 2, 67, 0
3, 99960, Note_on_c, 2, 67, 49
3, 100079, Note_on_c, 2, 67, 0
3, 100080, Note_on_c, 2, 67, 49
3, 100199, Note_on_c, 2, 67, 0
3, 100200, Note_on_c, 2, 67, 49
3, 100319, Note_on_c, 2, 67, 0
3, 100320, Note_on_c, 2, 79, 49
3, 100439, Note_on_c, 2, 79, 0
3, 100440, Note_on_c, 2, 79, 49
3, 100559, Note_on_c, 2, 79, 0
3, 100560, Note_on_c, 2, 79, 49
3, 100679, Note_on_c, 2, 79, 0
3, 100680, Note_on_c, 2, 79, 49
3, 100799, Note_on_c, 2, 79, 0
3, 100800, Note_on_c, 2, 77, 49
3, 100919, Note_on_c, 2, 77, 0
3, 100920, Note_on_c, 2, 77, 49
3, 101039, Note_on_c, 2, 77, 0
3, 101040, Note_on_c, 2, 77, 49
3, 101159, Note_on_c, 2, 77, 0
3, 101160, Note_on_c, 2, 77, 49
3, 101279, Note_on_c, 2, 77, 0
3, 101280, Note_on_c, 2, 77, 49
3, 101399, Note_on_c, 2, 77, 0
3, 101400, Note_on_c, 2, 77, 49
3, 101519, Note_on_c, 2, 77, 0
3, 101520, Note_on_c, 2, 77, 49
3, 101639, Note_on_c, 2, 77, 0
3, 101640, Note_on_c, 2, 77, 49
3, 101759, Note_on_c, 2, 77, 0
3, 101760, Note_on_c, 2, 79, 49
3, 101879, Note_on_c, 2, 79, 0
3, 101880, Note_on_c, 2, 79, 49
3, 101999, Note_on_c, 2, 79, 0
3, 102000, Note_on_c, 2, 79, 49
3, 102119, Note_on_c, 2, 79, 0
3, 102120, Note_on_c, 2, 79, 49
3, 102239, Note_on_c, 2, 79, 0
3, 102240, Note_on_c, 2, 80, 49
3, 102359, Note_on_c, 2, 80, 0
3, 102360, Note_on_c, 2, 80, 49
3, 102479, Note_on_c, 2, 80, 0
3, 102480, Note_on_c, 2, 80, 49
3, 102599, Note_on_c, 2, 80, 0
3, 102600, Note_on_c, 2, 80, 49
3, 102719, Note_on_c, 2, 80, 0
3, 102720, Note_on_c, 2, 76, 49
3, 102839, Note_on_c, 2, 76, 0
3, 102840, Note_on_c, 2, 76, 49
3, 102959, Note_on_c, 2, 76, 0
3, 102960, Note_on_c, 2, 76, 49
3, 103079, Note_on_c, 2, 76, 0
3, 103080, Note_on_c, 2, 76, 49
3, 103199, Note_on_c, 2, 76, 0
3, 103200, Note_on_c, 2, 77, 49
3, 103319, Note_on_c, 2, 77, 0
3, 103320, Note_on_c, 2, 77, 49
3, 103439, Note_on_c, 2, 77, 0
3, 103440, Note_on_c, 2, 77, 49
3, 103559, Note_on_c, 2, 77, 0
3, 103560, Note_on_c, 2, 77, 49
3, 103679, Note_on_c, 2, 77, 0
3, 103680, Note_on_c, 2, 79, 49
3, 103799, Note_on_c, 2, 79, 0
3, 103800, Note_on_c, 2, 79, 49
3, 103919, Note_on_c, 2, 79, 0
3, 103920, Note_on_c, 2, 79, 49
3, 104039, Note_on_c, 2, 79, 0
3, 104040, Note_on_c, 2, 79, 49
3, 104159, Note_on_c, 2, 79, 0
3, 104160, Note_on_c, 2, 77, 49
3, 104279, Note_on_c, 2, 77, 0
3, 104280, Note_on_c, 2, 77, 49
3, 104399, Note_on_c, 2, 77, 0
3, 104400, Note_on_c, 2, 77, 49
3, 104519, Note_on_c, 2, 77, 0
3, 104520, Note_on_c, 2, 77, 49
3, 104639, Note_on_c, 2, 77, 0
3, 104640, Note_on_c, 2, 76, 49
3, 104759, Note_on_c, 2, 76, 0
3, 104760, Note_on_c, 2, 76, 49
3, 104879, Note_on_c, 2, 76, 0
3, 104880, Note_on_c, 2, 76, 49
3, 104999, Note_on_c, 2, 76, 0
3, 105000, Note_on_c, 2, 76, 49
3, 105119, Note_on_c, 2, 76, 0
3, 105120, Note_on_c, 2, 80, 49
3, 105239, Note_on_c, 2, 80, 0
3, 105240, Note_on_c, 2, 80, 49
3, 105359, Note_on_c, 2, 80, 0
3, 105360, Note_on_c, 2, 80, 49
3, 105479, Note_on_c, 2, 80, 0
3, 105480, Note_on_c, 2, 80, 49
3, 105599, Note_on_c, 2, 80, 0
3, 105600, Note_on_c, 2, 79, 112
3, 105719, Note_on_c, 2, 79, 0
3, 105720, Note_on_c, 2, 76, 112
3, 105779, Note_on_c, 2, 76, 0
3, 105780, Note_on_c, 2, 76, 112
3, 105839, Note_on_c, 2, 76, 0
3, 105840, Note_on_c, 2, 76, 112
3, 105899, Note_on_c, 2, 76, 0
3, 105900, Note_on_c, 2, 76, 112
3, 105959, Note_on_c, 2, 76, 0
3, 105960, Note_on_c, 2, 76, 112
3, 106019, Note_on_c, 2, 76, 0
3, 106020, Note_on_c, 2, 76, 112
3, 106079, Note_on_c, 2, 76, 0
3, 106080, Note_on_c, 2, 76, 112
3, 106199, Note_on_c, 2, 76, 0
3, 106200, Note_on_c, 2, 76, 112
3, 106319, Note_on_c, 2, 76, 0
3, 106320, Note_on_c, 2, 76, 112
3, 106439, Note_on_c, 2, 76, 0
3, 106440, Note_on_c, 2, 76, 112
3, 106559, Note_on_c, 2, 76, 0
3, 106560, Note_on_c, 2, 77, 112
3, 106679, Note_on_c, 2, 77, 0
3, 106680, Note_on_c, 2, 72, 112
3, 106799, Note_on_c, 2, 72, 0
3, 106800, Note_on_c, 2, 77, 112
3, 106919, Note_on_c, 2, 77, 0
3, 106920, Note_on_c, 2, 72, 112
3, 107039, Note_on_c, 2, 72, 0
3, 107040, Note_on_c, 2, 77, 112
3, 107159, Note_on_c, 2, 77, 0
3, 107160, Note_on_c, 2, 72, 112
3, 107279, Note_on_c, 2, 72, 0
3, 107280, Note_on_c, 2, 77, 112
3, 107399, Note_on_c, 2, 77, 0
3, 107400, Note_on_c, 2, 72, 112
3, 107519, Note_on_c, 2, 72, 0
3, 107520, Note_on_c, 2, 77, 112
3, 107639, Note_on_c, 2, 77, 0
3, 107640, Note_on_c, 2, 77, 112
3, 107699, Note_on_c, 2, 77, 0
3, 107700, Note_on_c, 2, 77, 112
3, 107759, Note_on_c, 2, 77, 0
3, 107760, Note_on_c, 2, 77, 112
3, 107819, Note_on_c, 2, 77, 0
3, 107820, Note_on_c, 2, 77, 112
3, 107879, Note_on_c, 2, 77, 0
3, 107880, Note_on_c, 2, 77, 112
3, 107939, Note_on_c, 2, 77, 0
3, 107940, Note_on_c, 2, 77, 112
3, 107999, Note_on_c, 2, 77, 0
3, 108000, Note_on_c, 2, 77, 112
3, 108119, Note_on_c, 2, 77, 0
3, 108120, Note_on_c, 2, 77, 112
3, 108239, Note_on_c, 2, 77, 0
3, 108240, Note_on_c, 2, 77, 112
3, 108359, Note_on_c, 2, 77, 0
3, 108360, Note_on_c, 2, 77, 112
3, 108479, Note_on_c, 2, 77, 0
3, 108480, Note_on_c, 2, 75, 112
3, 108599, Note_on_c, 2, 75, 0
3, 108600, Note_on_c, 2, 70, 112
3, 108719, Note_on_c, 2, 70, 0
3, 108720, Note_on_c, 2, 75, 112
3, 108839, Note_on_c, 2, 75, 0
3, 108840, Note_on_c, 2, 70, 112
3, 108959, Note_on_c, 2, 70, 0
3, 108960, Note_on_c, 2, 75, 112
3, 109079, Note_on_c, 2, 75, 0
3, 109080, Note_on_c, 2, 70, 112
3, 109199, Note_on_c, 2, 70, 0
3, 109200, Note_on_c, 2, 75, 112
3, 109319, Note_on_c, 2, 75, 0
3, 109320, Note_on_c, 2, 70, 112
3, 109439, Note_on_c, 2, 70, 0
3, 109440, Note_on_c, 2, 75, 112
3, 109559, Note_on_c, 2, 75, 0
3, 109560, Note_on_c, 2, 75, 112
3, 109619, Note_on_c, 2, 75, 0
3, 109620, Note_on_c, 2, 75, 112
3, 109679, Note_on_c, 2, 75, 0
3, 109680, Note_on_c, 2, 75, 112
3, 109739, Note_on_c, 2, 75, 0
3, 109740, Note_on_c, 2, 75, 112
3, 109799, Note_on_c, 2, 75, 0
3, 109800, Note_on_c, 2, 75, 112
3, 109859, Note_on_c, 2, 75, 0
3, 109860, Note_on_c, 2, 75, 112
3, 109919, Note_on_c, 2, 75, 0
3, 109920, Note_on_c, 2, 75, 112
3, 110039, Note_on_c, 2, 75, 0
3, 110040, Note_on_c, 2, 75, 112
3, 110159, Note_on_c, 2, 75, 0
3, 110160, Note_on_c, 2, 75, 112
3, 110279, Note_on_c, 2, 75, 0
3, 110280, Note_on_c, 2, 75, 112
3, 110399, Note_on_c, 2, 75, 0
3, 110400, Note_on_c, 2, 73, 112
3, 110519, Note_on_c, 2, 73, 0
3, 110520, Note_on_c, 2, 68, 112
3, 110639, Note_on_c, 2, 68, 0
3, 110640, Note_on_c, 2, 73, 112
3, 110759, Note_on_c, 2, 73, 0
3, 110760, Note_on_c, 2, 68, 112
3, 110879, Note_on_c, 2, 68, 0
3, 110880, Note_on_c, 2, 73, 112
3, 110999, Note_on_c, 2, 73, 0
3, 111000, Note_on_c, 2, 68, 112
3, 111119, Note_on_c, 2, 68, 0
3, 111120, Note_on_c, 2, 73, 112
3, 111239, Note_on_c, 2, 73, 0
3, 111240, Note_on_c, 2, 68, 112
3, 111359, Note_on_c, 2, 68, 0
3, 111360, Note_on_c, 2, 73, 112
3, 111479, Note_on_c, 2, 73, 0
3, 111480, Note_on_c, 2, 73, 112
3, 111539, Note_on_c, 2, 73, 0
3, 111540, Note_on_c, 2, 73, 112
3, 111599, Note_on_c, 2, 73, 0
3, 111600, Note_on_c, 2, 73, 112
3, 111659, Note_on_c, 2, 73, 0
3, 111660, Note_on_c, 2, 73, 112
3, 111719, Note_on_c, 2, 73, 0
3, 111720, Note_on_c, 2, 73, 112
3, 111779, Note_on_c, 2, 73, 0
3, 111780, Note_on_c, 2, 73, 112
3, 111839, Note_on_c, 2, 73, 0
3, 111840, Note_on_c, 2, 73, 112
3, 111959, Note_on_c, 2, 73, 0
3, 111960, Note_on_c, 2, 73, 112
3, 112079, Note_on_c, 2, 73, 0
3, 112080, Note_on_c, 2, 73, 112
3, 112199, Note_on_c, 2, 73, 0
3, 112200, Note_on_c, 2, 73, 112
3, 112319, Note_on_c, 2, 73, 0
3, 112320, Note_on_c, 2, 72, 112
3, 112379, Note_on_c, 2, 72, 0
3, 112380, Note_on_c, 2, 76, 112
3, 112439, Note_on_c, 2, 76, 0
3, 112440, Note_on_c, 2, 79, 112
3, 112499, Note_on_c, 2, 79, 0
3, 112500, Note_on_c, 2, 76, 112
3, 112559, Note_on_c, 2, 76, 0
3, 112560, Note_on_c, 2, 72, 112
3, 112619, Note_on_c, 2, 72, 0
3, 112620, Note_on_c, 2, 76, 112
3, 112679, Note_on_c, 2, 76, 0
3, 112680, Note_on_c, 2, 79, 112
3, 112739, Note_on_c, 2, 79, 0
3, 112740, Note_on_c, 2, 76, 112
3, 112799, Note_on_c, 2, 76, 0
3, 112800, Note_on_c, 2, 72, 112
3, 112859, Note_on_c, 2, 72, 0
3, 112860, Note_on_c, 2, 76, 112
3, 112919, Note_on_c, 2, 76, 0
3, 112920, Note_on_c, 2, 79, 112
3, 112979, Note_on_c, 2, 79, 0
3, 112980, Note_on_c, 2, 76, 112
3, 113039, Note_on_c, 2, 76, 0
3, 113040, Note_on_c, 2, 72, 112
3, 113099, Note_on_c, 2, 72, 0
3, 113100, Note_on_c, 2, 76, 112
3, 113159, Note_on_c, 2, 76, 0
3, 113160, Note_on_c, 2, 79, 112
3, 113219, Note_on_c, 2, 79, 0
3, 113220, Note_on_c, 2, 76, 112
3, 113279, Note_on_c, 2, 76, 0
3, 113280, Note_on_c, 2, 77, 112
3, 113399, Note_on_c, 2, 77, 0
3, 113400, Note_on_c, 2, 77, 112
3, 113459, Note_on_c, 2, 77, 0
3, 113460, Note_on_c, 2, 77, 112
3, 113519, Note_on_c, 2, 77, 0
3, 113520, Note_on_c, 2, 77, 112
3, 113579, Note_on_c, 2, 77, 0
3, 113580, Note_on_c, 2, 77, 112
3, 113639, Note_on_c, 2, 77, 0
3, 113640, Note_on_c, 2, 77, 112
3, 113699, Note_on_c, 2, 77, 0
3, 113700, Note_on_c, 2, 77, 112
3, 113759, Note_on_c, 2, 77, 0
3, 113760, Note_on_c, 2, 77, 112
3, 113879, Note_on_c, 2, 77, 0
3, 113880, Note_on_c, 2, 77, 112
3, 113999, Note_on_c, 2, 77, 0
3, 114000, Note_on_c, 2, 77, 112
3, 114119, Note_on_c, 2, 77, 0
3, 114120, Note_on_c, 2, 77, 112
3, 114239, Note_on_c, 2, 77, 0
3, 114240, Note_on_c, 2, 77, 112
3, 114359, Note_on_c, 2, 77, 0
3, 114360, Note_on_c, 2, 77, 112
3, 114419, Note_on_c, 2, 77, 0
3, 114420, Note_on_c, 2, 77, 112
3, 114479, Note_on_c, 2, 77, 0
3, 114480, Note_on_c, 2, 77, 112
3, 114539, Note_on_c, 2, 77, 0
3, 114540, Note_on_c, 2, 77, 112
3, 114599, Note_on_c, 2, 77, 0
3, 114600, Note_on_c, 2, 77, 112
3, 114659, Note_on_c, 2, 77, 0
3, 114660, Note_on_c, 2, 77, 112
3, 114719, Note_on_c, 2, 77, 0
3, 114720, Note_on_c, 2, 77, 112
3, 114839, Note_on_c, 2, 77, 0
3, 114840, Note_on_c, 2, 77, 112
3, 114959, Note_on_c, 2, 77, 0
3, 114960, Note_on_c, 2, 77, 112
3, 115079, Note_on_c, 2, 77, 0
3, 115080, Note_on_c, 2, 77, 112
3, 115199, Note_on_c, 2, 77, 0
3, 115200, Note_on_c, 2, 76, 112
3, 115319, Note_on_c, 2, 76, 0
3, 115320, Note_on_c, 2, 76, 112
3, 115379, Note_on_c, 2, 76, 0
3, 115380, Note_on_c, 2, 76, 112
3, 115439, Note_on_c, 2, 76, 0
3, 115440, Note_on_c, 2, 76, 112
3, 115499, Note_on_c, 2, 76, 0
3, 115500, Note_on_c, 2, 76, 112
3, 115559, Note_on_c, 2, 76, 0
3, 115560, Note_on_c, 2, 76, 112
3, 115619, Note_on_c, 2, 76, 0
3, 115620, Note_on_c, 2, 76, 112
3, 115679, Note_on_c, 2, 76, 0
3, 115680, Note_on_c, 2, 76, 112
3, 115799, Note_on_c, 2, 76, 0
3, 115800, Note_on_c, 2, 76, 112
3, 115919, Note_on_c, 2, 76, 0
3, 115920, Note_on_c, 2, 76, 112
3, 116039, Note_on_c, 2, 76, 0
3, 116040, Note_on_c, 2, 76, 112
3, 116159, Note_on_c, 2, 76, 0
3, 116160, Note_on_c, 2, 77, 112
3, 116279, Note_on_c, 2, 77, 0
3, 116280, Note_on_c, 2, 65, 112
3, 116339, Note_on_c, 2, 65, 0
3, 116340, Note_on_c, 2, 65, 112
3, 116399, Note_on_c, 2, 65, 0
3, 116400, Note_on_c, 2, 65, 112
3, 116459, Note_on_c, 2, 65, 0
3, 116460, Note_on_c, 2, 65, 112
3, 116519, Note_on_c, 2, 65, 0
3, 116520, Note_on_c, 2, 65, 112
3, 116579, Note_on_c, 2, 65, 0
3, 116580, Note_on_c, 2, 65, 112
3, 116639, Note_on_c, 2, 65, 0
3, 116640, Note_on_c, 2, 65, 112
3, 116759, Note_on_c, 2, 65, 0
3, 116760, Note_on_c, 2, 65, 112
3, 116879, Note_on_c, 2, 65, 0
3, 116880, Note_on_c, 2, 65, 112
3, 116999, Note_on_c, 2, 65, 0
3, 117000, Note_on_c, 2, 65, 112
3, 117119, Note_on_c, 2, 65, 0
3, 117120, Note_on_c, 2, 65, 112
3, 117239, Note_on_c, 2, 65, 0
3, 117240, Note_on_c, 2, 65, 112
3, 117299, Note_on_c, 2, 65, 0
3, 117300, Note_on_c, 2, 65, 112
3, 117359, Note_on_c, 2, 65, 0
3, 117360, Note_on_c, 2, 65, 112
3, 117419, Note_on_c, 2, 65, 0
3, 117420, Note_on_c, 2, 65, 112
3, 117479, Note_on_c, 2, 65, 0
3, 117480, Note_on_c, 2, 65, 112
3, 117539, Note_on_c, 2, 65, 0
3, 117540, Note_on_c, 2, 65, 112
3, 117599, Note_on_c, 2, 65, 0
3, 117600, Note_on_c, 2, 65, 112
3, 117719, Note_on_c, 2, 65, 0
3, 117720, Note_on_c, 2, 65, 112
3, 117839, Note_on_c, 2, 65, 0
3, 117840, Note_on_c, 2, 65, 112
3, 117959, Note_on_c, 2, 65, 0
3, 117960, Note_on_c, 2, 65, 112
3, 118079, Note_on_c, 2, 65, 0
3, 118080, Note_on_c, 2, 64, 112
3, 118199, Note_on_c, 2, 64, 0
3, 118200, Note_on_c, 2, 64, 112
3, 118259, Note_on_c, 2, 64, 0
3, 118260, Note_on_c, 2, 64, 112
3, 118319, Note_on_c, 2, 64, 0
3, 118320, Note_on_c, 2, 64, 112
3, 118379, Note_on_c, 2, 64, 0
3, 118380, Note_on_c, 2, 64, 112
3, 118439, Note_on_c, 2, 64, 0
3, 118440, Note_on_c, 2, 64, 112
3, 118499, Note_on_c, 2, 64, 0
3, 118500, Note_on_c, 2, 64, 112
3, 118559, Note_on_c, 2, 64, 0
3, 118560, Note_on_c, 2, 64, 112
3, 118679, Note_on_c, 2, 64, 0
3, 118680, Note_on_c, 2, 64, 112
3, 118799, Note_on_c, 2, 64, 0
3, 118800, Note_on_c, 2, 64, 112
3, 118919, Note_on_c, 2, 64, 0
3, 118920, Note_on_c, 2, 64, 112
3, 119039, Note_on_c, 2, 64, 0
3, 119040, Note_on_c, 2, 65, 112
3, 120959, Note_on_c, 2, 65, 0
3, 122880, Key_signature, -3, "major"
3, 122880, Note_on_c, 2, 70, 64
3, 122999, Note_on_c, 2, 70, 0
3, 123000, Note_on_c, 2, 75, 64
3, 123119, Note_on_c, 2, 75, 0
3, 123120, Note_on_c, 2, 79, 64
3, 123239, Note_on_c, 2, 79, 0
3, 123240, Note_on_c, 2, 75, 64
3, 123359, Note_on_c, 2, 75, 0
3, 123360, Note_on_c, 2, 70, 64
3, 123479, Note_on_c, 2, 70, 0
3, 123480, Note_on_c, 2, 75, 64
3, 123599, Note_on_c, 2, 75, 0
3, 123600, Note_on_c, 2, 79, 64
3, 123719, Note_on_c, 2, 79, 0
3, 123720, Note_on_c, 2, 70, 64
3, 123839, Note_on_c, 2, 70, 0
3, 123840, Note_on_c, 2, 70, 64
3, 123959, Note_on_c, 2, 70, 0
3, 123960, Note_on_c, 2, 74, 64
3, 124079, Note_on_c, 2, 74, 0
3, 124080, Note_on_c, 2, 77, 64
3, 124199, Note_on_c, 2, 77, 0
3, 124200, Note_on_c, 2, 74, 64
3, 124319, Note_on_c, 2, 74, 0
3, 124320, Note_on_c, 2, 70, 64
3, 124439, Note_on_c, 2, 70, 0
3, 124440, Note_on_c, 2, 74, 64
3, 124559, Note_on_c, 2, 74, 0
3, 124560, Note_on_c, 2, 77, 64
3, 124679, Note_on_c, 2, 77, 0
3, 124680, Note_on_c, 2, 74, 64
3, 124799, Note_on_c, 2, 74, 0
3, 124800, Note_on_c, 2, 70, 64
3, 124919, Note_on_c, 2, 70, 0
3, 124920, Note_on_c, 2, 74, 64
3, 125039, Note_on_c, 2, 74, 0
3, 125040, Note_on_c, 2, 77, 64
3, 125159, Note_on_c, 2, 77, 0
3, 125160, Note_on_c, 2, 74, 64
3, 125279, Note_on_c, 2, 74, 0
3, 125280, Note_on_c, 2, 70, 64
3, 125399, Note_on_c, 2, 70, 0
3, 125400, Note_on_c, 2, 74, 64
3, 125519, Note_on_c, 2, 74, 0
3, 125520, Note_on_c, 2, 77, 64
3, 125639, Note_on_c, 2, 77, 0
3, 125640, Note_on_c, 2, 74, 64
3, 125759, Note_on_c, 2, 74, 0
3, 125760, Note_on_c, 2, 70, 64
3, 125879, Note_on_c, 2, 70, 0
3, 125880, Note_on_c, 2, 75, 64
3, 125999, Note_on_c, 2, 75, 0
3, 126000, Note_on_c, 2, 79, 64
3, 126119, Note_on_c, 2, 79, 0
3, 126120, Note_on_c, 2, 75, 64
3, 126239, Note_on_c, 2, 75, 0
3, 126240, Note_on_c, 2, 70, 64
3, 126359, Note_on_c, 2, 70, 0
3, 126360, Note_on_c, 2, 75, 64
3, 126479, Note_on_c, 2, 75, 0
3, 126480, Note_on_c, 2, 79, 64
3, 126599, Note_on_c, 2, 79, 0
3, 126600, Note_on_c, 2, 70, 64
3, 126719, Note_on_c, 2, 70, 0
3, 126720, Note_on_c, 2, 74, 64
3, 126839, Note_on_c, 2, 74, 0
3, 126840, Note_on_c, 2, 80, 64
3, 126959, Note_on_c, 2, 80, 0
3, 126960, Note_on_c, 2, 79, 64
3, 127079, Note_on_c, 2, 79, 0
3, 127080, Note_on_c, 2, 77, 64
3, 127199, Note_on_c, 2, 77, 0
3, 127200, Note_on_c, 2, 82, 64
3, 127319, Note_on_c, 2, 82, 0
3, 127320, Note_on_c, 2, 80, 64
3, 127439, Note_on_c, 2, 80, 0
3, 127440, Note_on_c, 2, 79, 64
3, 127559, Note_on_c, 2, 79, 0
3, 127560, Note_on_c, 2, 77, 64
3, 127679, Note_on_c, 2, 77, 0
3, 127680, Note_on_c, 2, 75, 64
3, 127799, Note_on_c, 2, 75, 0
3, 127800, Note_on_c, 2, 79, 64
3, 127919, Note_on_c, 2, 79, 0
3, 127920, Note_on_c, 2, 77, 64
3, 128039, Note_on_c, 2, 77, 0
3, 128040, Note_on_c, 2, 75, 64
3, 128159, Note_on_c, 2, 75, 0
3, 128160, Note_on_c, 2, 80, 64
3, 128279, Note_on_c, 2, 80, 0
3, 128280, Note_on_c, 2, 79, 64
3, 128399, Note_on_c, 2, 79, 0
3, 128400, Note_on_c, 2, 77, 64
3, 128519, Note_on_c, 2, 77, 0
3, 128520, Note_on_c, 2, 75, 64
3, 128639, Note_on_c, 2, 75, 0
3, 128640, Note_on_c, 2, 74, 64
3, 128759, Note_on_c, 2, 74, 0
3, 128760, Note_on_c, 2, 77, 64
3, 128879, Note_on_c, 2, 77, 0
3, 128880, Note_on_c, 2, 75, 64
3, 128999, Note_on_c, 2, 75, 0
3, 129000, Note_on_c, 2, 74, 64
3, 129119, Note_on_c, 2, 74, 0
3, 129120, Note_on_c, 2, 79, 64
3, 129239, Note_on_c, 2, 79, 0
3, 129240, Note_on_c, 2, 77, 64
3, 129359, Note_on_c, 2, 77, 0
3, 129360, Note_on_c, 2, 75, 64
3, 129479, Note_on_c, 2, 75, 0
3, 129480, Note_on_c, 2, 74, 64
3, 129599, Note_on_c, 2, 74, 0
3, 129600, Note_on_c, 2, 72, 64
3, 129719, Note_on_c, 2, 72, 0
3, 129720, Note_on_c, 2, 75, 64
3, 129839, Note_on_c, 2, 75, 0
3, 129840, Note_on_c, 2, 74, 64
3, 129959, Note_on_c, 2, 74, 0
3, 129960, Note_on_c, 2, 72, 64
3, 130079, Note_on_c, 2, 72, 0
3, 130080, Note_on_c, 2, 77, 64
3, 130199, Note_on_c, 2, 77, 0
3, 130200, Note_on_c, 2, 75, 64
3, 130319, Note_on_c, 2, 75, 0
3, 130320, Note_on_c, 2, 74, 64
3, 130439, Note_on_c, 2, 74, 0
3, 130440, Note_on_c, 2, 72, 64
3, 130559, Note_on_c, 2, 72, 0
3, 130560, Note_on_c, 2, 70, 64
3, 130679, Note_on_c, 2, 70, 0
3, 130680, Note_on_c, 2, 74, 64
3, 130799, Note_on_c, 2, 74, 0
3, 130800, Note_on_c, 2, 77, 64
3, 130919, Note_on_c, 2, 77, 0
3, 130920, Note_on_c, 2, 74, 64
3, 131039, Note_on_c, 2, 74, 0
3, 131040, Note_on_c, 2, 70, 64
3, 131159, Note_on_c, 2, 70, 0
3, 131160, Note_on_c, 2, 74, 64
3, 131279, Note_on_c, 2, 74, 0
3, 131280, Note_on_c, 2, 77, 64
3, 131399, Note_on_c, 2, 77, 0
3, 131400, Note_on_c, 2, 74, 64
3, 131519, Note_on_c, 2, 74, 0
3, 131520, Note_on_c, 2, 70, 64
3, 131639, Note_on_c, 2, 70, 0
3, 131640, Note_on_c, 2, 74, 64
3, 131759, Note_on_c, 2, 74, 0
3, 131760, Note_on_c, 2, 77, 64
3, 131879, Note_on_c, 2, 77, 0
3, 131880, Note_on_c, 2, 74, 64
3, 131999, Note_on_c, 2, 74, 0
3, 132000, Note_on_c, 2, 70, 64
3, 132119, Note_on_c, 2, 70, 0
3, 132120, Note_on_c, 2, 74, 64
3, 132239, Note_on_c, 2, 74, 0
3, 132240, Note_on_c, 2, 77, 64
3, 132359, Note_on_c, 2, 77, 0
3, 132360, Note_on_c, 2, 74, 64
3, 132479, Note_on_c, 2, 74, 0
3, 132480, Note_on_c, 2, 70, 64
3, 132599, Note_on_c, 2, 70, 0
3, 132600, Note_on_c, 2, 75, 64
3, 132719, Note_on_c, 2, 75, 0
3, 132720, Note_on_c, 2, 79, 64
3, 132839, Note_on_c, 2, 79, 0
3, 132840, Note_on_c, 2, 75, 64
3, 132959, Note_on_c, 2, 75, 0
3, 132960, Note_on_c, 2, 70, 64
3, 133079, Note_on_c, 2, 70, 0
3, 133080, Note_on_c, 2, 75, 64
3, 133199, Note_on_c, 2, 75, 0
3, 133200, Note_on_c, 2, 79, 64
3, 133319, Note_on_c, 2, 79, 0
3, 133320, Note_on_c, 2, 75, 64
3, 133439, Note_on_c, 2, 75, 0
3, 133440, Note_on_c, 2, 72, 64
3, 133559, Note_on_c, 2, 72, 0
3, 133560, Note_on_c, 2, 77, 64
3, 133679, Note_on_c, 2, 77, 0
3, 133680, Note_on_c, 2, 81, 64
3, 133799, Note_on_c, 2, 81, 0
3, 133800, Note_on_c, 2, 77, 64
3, 133919, Note_on_c, 2, 77, 0
3, 133920, Note_on_c, 2, 72, 64
3, 134039, Note_on_c, 2, 72, 0
3, 134040, Note_on_c, 2, 77, 64
3, 134159, Note_on_c, 2, 77, 0
3, 134160, Note_on_c, 2, 81, 64
3, 134279, Note_on_c, 2, 81, 0
3, 134280, Note_on_c, 2, 77, 64
3, 134399, Note_on_c, 2, 77, 0
3, 134400, Note_on_c, 2, 70, 64
3, 134519, Note_on_c, 2, 70, 0
3, 134520, Note_on_c, 2, 74, 64
3, 134639, Note_on_c, 2, 74, 0
3, 134640, Note_on_c, 2, 77, 64
3, 134759, Note_on_c, 2, 77, 0
3, 134760, Note_on_c, 2, 74, 64
3, 134879, Note_on_c, 2, 74, 0
3, 134880, Note_on_c, 2, 70, 64
3, 134999, Note_on_c, 2, 70, 0
3, 135000, Note_on_c, 2, 74, 64
3, 135119, Note_on_c, 2, 74, 0
3, 135120, Note_on_c, 2, 77, 64
3, 135239, Note_on_c, 2, 77, 0
3, 135240, Note_on_c, 2, 70, 64
3, 135359, Note_on_c, 2, 70, 0
3, 135360, Note_on_c, 2, 70, 64
3, 135479, Note_on_c, 2, 70, 0
3, 135480, Note_on_c, 2, 72, 64
3, 135599, Note_on_c, 2, 72, 0
3, 135600, Note_on_c, 2, 77, 64
3, 135719, Note_on_c, 2, 77, 0
3, 135720, Note_on_c, 2, 72, 64
3, 135839, Note_on_c, 2, 72, 0
3, 135840, Note_on_c, 2, 70, 64
3, 135959, Note_on_c, 2, 70, 0
3, 135960, Note_on_c, 2, 72, 64
3, 136079, Note_on_c, 2, 72, 0
3, 136080, Note_on_c, 2, 77, 64
3, 136199, Note_on_c, 2, 77, 0
3, 136200, Note_on_c, 2, 72, 64
3, 136319, Note_on_c, 2, 72, 0
3, 136320, Note_on_c, 2, 69, 64
3, 136439, Note_on_c, 2, 69, 0
3, 136440, Note_on_c, 2, 72, 64
3, 136559, Note_on_c, 2, 72, 0
3, 136560, Note_on_c, 2, 77, 64
3, 136679, Note_on_c, 2, 77, 0
3, 136680, Note_on_c, 2, 72, 64
3, 136799, Note_on_c, 2, 72, 0
3, 136800, Note_on_c, 2, 69, 64
3, 136919, Note_on_c, 2, 69, 0
3, 136920, Note_on_c, 2, 72, 64
3, 137039, Note_on_c, 2, 72, 0
3, 137040, Note_on_c, 2, 77, 64
3, 137159, Note_on_c, 2, 77, 0
3, 137160, Note_on_c, 2, 69, 64
3, 137279, Note_on_c, 2, 69, 0
3, 137280, Note_on_c, 2, 65, 64
3, 137399, Note_on_c, 2, 65, 0
3, 137400, Note_on_c, 2, 70, 64
3, 137519, Note_on_c, 2, 70, 0
3, 137520, Note_on_c, 2, 74, 64
3, 137639, Note_on_c, 2, 74, 0
3, 137640, Note_on_c, 2, 70, 64
3, 137759, Note_on_c, 2, 70, 0
3, 137760, Note_on_c, 2, 65, 64
3, 137879, Note_on_c, 2, 65, 0
3, 137880, Note_on_c, 2, 70, 64
3, 137999, Note_on_c, 2, 70, 0
3, 138000, Note_on_c, 2, 74, 64
3, 138119, Note_on_c, 2, 74, 0
3, 138120, Note_on_c, 2, 70, 64
3, 138239, Note_on_c, 2, 70, 0
3, 138240, Note_on_c, 2, 65, 64
3, 138359, Note_on_c, 2, 65, 0
3, 138360, Note_on_c, 2, 70, 64
3, 138479, Note_on_c, 2, 70, 0
3, 138480, Note_on_c, 2, 74, 64
3, 138599, Note_on_c, 2, 74, 0
3, 138600, Note_on_c, 2, 70, 64
3, 138719, Note_on_c, 2, 70, 0
3, 138720, Note_on_c, 2, 65, 64
3, 138839, Note_on_c, 2, 65, 0
3, 138840, Note_on_c, 2, 70, 64
3, 138959, Note_on_c, 2, 70, 0
3, 138960, Note_on_c, 2, 74, 64
3, 139079, Note_on_c, 2, 74, 0
3, 139080, Note_on_c, 2, 65, 64
3, 139199, Note_on_c, 2, 65, 0
3, 139200, Note_on_c, 2, 65, 64
3, 139319, Note_on_c, 2, 65, 0
3, 139320, Note_on_c, 2, 69, 64
3, 139439, Note_on_c, 2, 69, 0
3, 139440, Note_on_c, 2, 72, 64
3, 139559, Note_on_c, 2, 72, 0
3, 139560, Note_on_c, 2, 69, 64
3, 139679, Note_on_c, 2, 69, 0
3, 139680, Note_on_c, 2, 65, 64
3, 139799, Note_on_c, 2, 65, 0
3, 139800, Note_on_c, 2, 69, 64
3, 139919, Note_on_c, 2, 69, 0
3, 139920, Note_on_c, 2, 72, 64
3, 140039, Note_on_c, 2, 72, 0
3, 140040, Note_on_c, 2, 69, 64
3, 140159, Note_on_c, 2, 69, 0
3, 140160, Note_on_c, 2, 65, 64
3, 140279, Note_on_c, 2, 65, 0
3, 140280, Note_on_c, 2, 69, 64
3, 140399, Note_on_c, 2, 69, 0
3, 140400, Note_on_c, 2, 72, 64
3, 140519, Note_on_c, 2, 72, 0
3, 140520, Note_on_c, 2, 69, 64
3, 140639, Note_on_c, 2, 69, 0
3, 140640, Note_on_c, 2, 65, 64
3, 140759, Note_on_c, 2, 65, 0
3, 140760, Note_on_c, 2, 69, 64
3, 140879, Note_on_c, 2, 69, 0
3, 140880, Note_on_c, 2, 72, 64
3, 140999, Note_on_c, 2, 72, 0
3, 141000, Note_on_c, 2, 69, 64
3, 141119, Note_on_c, 2, 69, 0
3, 141120, Note_on_c, 2, 70, 64
3, 141239, Note_on_c, 2, 70, 0
3, 141240, Note_on_c, 2, 74, 64
3, 141359, Note_on_c, 2, 74, 0
3, 141360, Note_on_c, 2, 77, 64
3, 141479, Note_on_c, 2, 77, 0
3, 141480, Note_on_c, 2, 74, 64
3, 141599, Note_on_c, 2, 74, 0
3, 141600, Note_on_c, 2, 70, 64
3, 141719, Note_on_c, 2, 70, 0
3, 141720, Note_on_c, 2, 74, 64
3, 141839, Note_on_c, 2, 74, 0
3, 141840, Note_on_c, 2, 77, 64
3, 141959, Note_on_c, 2, 77, 0
3, 141960, Note_on_c, 2, 74, 64
3, 142079, Note_on_c, 2, 74, 0
3, 142080, Note_on_c, 2, 70, 64
3, 142199, Note_on_c, 2, 70, 0
3, 142200, Note_on_c, 2, 74, 64
3, 142319, Note_on_c, 2, 74, 0
3, 142320, Note_on_c, 2, 77, 64
3, 142439, Note_on_c, 2, 77, 0
3, 142440, Note_on_c, 2, 74, 64
3, 142559, Note_on_c, 2, 74, 0
3, 142560, Note_on_c, 2, 70, 64
3, 142679, Note_on_c, 2, 70, 0
3, 142680, Note_on_c, 2, 74, 64
3, 142799, Note_on_c, 2, 74, 0
3, 142800, Note_on_c, 2, 77, 64
3, 142919, Note_on_c, 2, 77, 0
3, 142920, Note_on_c, 2, 74, 64
3, 143039, Note_on_c, 2, 74, 0
3, 143040, Note_on_c, 2, 70, 64
3, 143159, Note_on_c, 2, 70, 0
3, 143160, Note_on_c, 2, 75, 64
3, 143279, Note_on_c, 2, 75, 0
3, 143280, Note_on_c, 2, 79, 64
3, 143399, Note_on_c, 2, 79, 0
3, 143400, Note_on_c, 2, 75, 64
3, 143519, Note_on_c, 2, 75, 0
3, 143520, Note_on_c, 2, 70, 64
3, 143639, Note_on_c, 2, 70, 0
3, 143640, Note_on_c, 2, 75, 64
3, 143759, Note_on_c, 2, 75, 0
3, 143760, Note_on_c, 2, 79, 64
3, 143879, Note_on_c, 2, 79, 0
3, 143880, Note_on_c, 2, 75, 64
3, 143999, Note_on_c, 2, 75, 0
3, 144000, Note_on_c, 2, 72, 64
3, 144119, Note_on_c, 2, 72, 0
3, 144120, Note_on_c, 2, 75, 64
3, 144239, Note_on_c, 2, 75, 0
3, 144240, Note_on_c, 2, 72, 64
3, 144359, Note_on_c, 2, 72, 0
3, 144360, Note_on_c, 2, 75, 64
3, 144479, Note_on_c, 2, 75, 0
3, 144480, Note_on_c, 2, 72, 64
3, 144599, Note_on_c, 2, 72, 0
3, 144600, Note_on_c, 2, 77, 64
3, 144719, Note_on_c, 2, 77, 0
3, 144720, Note_on_c, 2, 72, 64
3, 144839, Note_on_c, 2, 72, 0
3, 144840, Note_on_c, 2, 77, 64
3, 144959, Note_on_c, 2, 77, 0
3, 144960, Note_on_c, 2, 74, 64
3, 145079, Note_on_c, 2, 74, 0
3, 145080, Note_on_c, 2, 77, 64
3, 145199, Note_on_c, 2, 77, 0
3, 145200, Note_on_c, 2, 74, 64
3, 145319, Note_on_c, 2, 74, 0
3, 145320, Note_on_c, 2, 77, 64
3, 145439, Note_on_c, 2, 77, 0
3, 145440, Note_on_c, 2, 74, 64
3, 145559, Note_on_c, 2, 74, 0
3, 145560, Note_on_c, 2, 79, 64
3, 145679, Note_on_c, 2, 79, 0
3, 145680, Note_on_c, 2, 74, 64
3, 145799, Note_on_c, 2, 74, 0
3, 145800, Note_on_c, 2, 79, 64
3, 145919, Note_on_c, 2, 79, 0
3, 145920, Note_on_c, 2, 75, 64
3, 146039, Note_on_c, 2, 75, 0
3, 146040, Note_on_c, 2, 79, 64
3, 146159, Note_on_c, 2, 79, 0
3, 146160, Note_on_c, 2, 75, 64
3, 146279, Note_on_c, 2, 75, 0
3, 146280, Note_on_c, 2, 79, 64
3, 146399, Note_on_c, 2, 79, 0
3, 146400, Note_on_c, 2, 75, 64
3, 146519, Note_on_c, 2, 75, 0
3, 146520, Note_on_c, 2, 80, 64
3, 146639, Note_on_c, 2, 80, 0
3, 146640, Note_on_c, 2, 75, 64
3, 146759, Note_on_c, 2, 75, 0
3, 146760, Note_on_c, 2, 80, 64
3, 146879, Note_on_c, 2, 80, 0
3, 146880, Note_on_c, 2, 70, 64
3, 146999, Note_on_c, 2, 70, 0
3, 147000, Note_on_c, 2, 74, 64
3, 147119, Note_on_c, 2, 74, 0
3, 147120, Note_on_c, 2, 77, 64
3, 147239, Note_on_c, 2, 77, 0
3, 147240, Note_on_c, 2, 74, 64
3, 147359, Note_on_c, 2, 74, 0
3, 147360, Note_on_c, 2, 70, 64
3, 147479, Note_on_c, 2, 70, 0
3, 147480, Note_on_c, 2, 74, 64
3, 147599, Note_on_c, 2, 74, 0
3, 147600, Note_on_c, 2, 77, 64
3, 147719, Note_on_c, 2, 77, 0
3, 147720, Note_on_c, 2, 74, 64
3, 147839, Note_on_c, 2, 74, 0
3, 147840, Note_on_c, 2, 70, 64
3, 147959, Note_on_c, 2, 70, 0
3, 147960, Note_on_c, 2, 74, 64
3, 148079, Note_on_c, 2, 74, 0
3, 148080, Note_on_c, 2, 77, 64
3, 148199, Note_on_c, 2, 77, 0
3, 148200, Note_on_c, 2, 74, 64
3, 148319, Note_on_c, 2, 74, 0
3, 148320, Note_on_c, 2, 70, 64
3, 148439, Note_on_c, 2, 70, 0
3, 148440, Note_on_c, 2, 75, 64
3, 148559, Note_on_c, 2, 75, 0
3, 148560, Note_on_c, 2, 79, 64
3, 148679, Note_on_c, 2, 79, 0
3, 148680, Note_on_c, 2, 70, 64
3, 148799, Note_on_c, 2, 70, 0
3, 148800, Note_on_c, 2, 70, 64
3, 148919, Note_on_c, 2, 70, 0
3, 148920, Note_on_c, 2, 74, 64
3, 149039, Note_on_c, 2, 74, 0
3, 149040, Note_on_c, 2, 77, 64
3, 149159, Note_on_c, 2, 77, 0
3, 149160, Note_on_c, 2, 74, 64
3, 149279, Note_on_c, 2, 74, 0
3, 149280, Note_on_c, 2, 70, 64
3, 149399, Note_on_c, 2, 70, 0
3, 149400, Note_on_c, 2, 74, 64
3, 149519, Note_on_c, 2, 74, 0
3, 149520, Note_on_c, 2, 77, 49
3, 149639, Note_on_c, 2, 77, 0
3, 149640, Note_on_c, 2, 74, 49
3, 149759, Note_on_c, 2, 74, 0
3, 149760, Note_on_c, 2, 70, 49
3, 149879, Note_on_c, 2, 70, 0
3, 149880, Note_on_c, 2, 74, 49
3, 149999, Note_on_c, 2, 74, 0
3, 150000, Note_on_c, 2, 77, 49
3, 150119, Note_on_c, 2, 77, 0
3, 150120, Note_on_c, 2, 74, 49
3, 150239, Note_on_c, 2, 74, 0
3, 150240, Note_on_c, 2, 70, 49
3, 150359, Note_on_c, 2, 70, 0
3, 150360, Note_on_c, 2, 75, 49
3, 150479, Note_on_c, 2, 75, 0
3, 150480, Note_on_c, 2, 79, 49
3, 150599, Note_on_c, 2, 79, 0
3, 150600, Note_on_c, 2, 70, 49
3, 150719, Note_on_c, 2, 70, 0
3, 150720, Note_on_c, 2, 70, 49
3, 150839, Note_on_c, 2, 70, 0
3, 150840, Note_on_c, 2, 74, 49
3, 150959, Note_on_c, 2, 74, 0
3, 150960, Note_on_c, 2, 77, 49
3, 151079, Note_on_c, 2, 77, 0
3, 151080, Note_on_c, 2, 74, 49
3, 151199, Note_on_c, 2, 74, 0
3, 151200, Note_on_c, 2, 70, 49
3, 151319, Note_on_c, 2, 70, 0
3, 151320, Note_on_c, 2, 74, 49
3, 151439, Note_on_c, 2, 74, 0
3, 151440, Note_on_c, 2, 77, 96
3, 151559, Note_on_c, 2, 77, 0
3, 151560, Note_on_c, 2, 70, 96
3, 151679, Note_on_c, 2, 70, 0
3, 151680, Note_on_c, 2, 70, 96
3, 151799, Note_on_c, 2, 70, 0
3, 151800, Note_on_c, 2, 75, 96
3, 151919, Note_on_c, 2, 75, 0
3, 151920, Note_on_c, 2, 79, 96
3, 152039, Note_on_c, 2, 79, 0
3, 152040, Note_on_c, 2, 70, 96
3, 152159, Note_on_c, 2, 70, 0
3, 152160, Note_on_c, 2, 70, 96
3, 152279, Note_on_c, 2, 70, 0
3, 152280, Note_on_c, 2, 74, 96
3, 152399, Note_on_c, 2, 74, 0
3, 152400, Note_on_c, 2, 77, 96
3, 152519, Note_on_c, 2, 77, 0
3, 152520, Note_on_c, 2, 74, 96
3, 152639, Note_on_c, 2, 74, 0
3, 152640, Note_on_c, 2, 70, 96
3, 152759, Note_on_c, 2, 70, 0
3, 152760, Note_on_c, 2, 75, 96
3, 152879, Note_on_c, 2, 75, 0
3, 152880, Note_on_c, 2, 79, 96
3, 152999, Note_on_c, 2, 79, 0
3, 153000, Note_on_c, 2, 75, 96
3, 153119, Note_on_c, 2, 75, 0
3, 153120, Note_on_c, 2, 70, 96
3, 153239, Note_on_c, 2, 70, 0
3, 153240, Note_on_c, 2, 75, 96
3, 153359, Note_on_c, 2, 75, 0
3, 153360, Note_on_c, 2, 79, 96
3, 153479, Note_on_c, 2, 79, 0
3, 153480, Note_on_c, 2, 70, 96
3, 153599, Note_on_c, 2, 70, 0
3, 153600, Note_on_c, 2, 67, 96
3, 153719, Note_on_c, 2, 67, 0
3, 153720, Note_on_c, 2, 70, 96
3, 153839, Note_on_c, 2, 70, 0
3, 153840, Note_on_c, 2, 75, 96
3, 153959, Note_on_c, 2, 75, 0
3, 153960, Note_on_c, 2, 70, 96
3, 154079, Note_on_c, 2, 70, 0
3, 154080, Note_on_c, 2, 67, 96
3, 154199, Note_on_c, 2, 67, 0
3, 154200, Note_on_c, 2, 70, 96
3, 154319, Note_on_c, 2, 70, 0
3, 154320, Note_on_c, 2, 75, 96
3, 154439, Note_on_c, 2, 75, 0
3, 154440, Note_on_c, 2, 70, 96
3, 154559, Note_on_c, 2, 70, 0
3, 154560, Note_on_c, 2, 63, 96
3, 154679, Note_on_c, 2, 63, 0
3, 154680, Note_on_c, 2, 67, 96
3, 154799, Note_on_c, 2, 67, 0
3, 154800, Note_on_c, 2, 70, 96
3, 154919, Note_on_c, 2, 70, 0
3, 154920, Note_on_c, 2, 67, 96
3, 155039, Note_on_c, 2, 67, 0
3, 155040, Note_on_c, 2, 63, 96
3, 155159, Note_on_c, 2, 63, 0
3, 155160, Note_on_c, 2, 67, 96
3, 155279, Note_on_c, 2, 67, 0
3, 155280, Note_on_c, 2, 70, 96
3, 155399, Note_on_c, 2, 70, 0
3, 155400, Note_on_c, 2, 67, 96
3, 155519, Note_on_c, 2, 67, 0
3, 155520, Note_on_c, 2, 63, 96
3, 157439, Note_on_c, 2, 63, 0
3, 159360, Key_signature, -4, "major"
3, 174480, Note_on_c, 2, 82, 96
3, 174599, Note_on_c, 2, 82, 0
3, 174600, Note_on_c, 2, 80, 96
3, 174719, Note_on_c, 2, 80, 0
3, 174720, Note_on_c, 2, 79, 96
3, 174839, Note_on_c, 2, 79, 0
3, 174840, Note_on_c, 2, 77, 96
3, 174959, Note_on_c, 2, 77, 0
3, 174960, Note_on_c, 2, 76, 96
3, 175079, Note_on_c, 2, 76, 0
3, 175080, Note_on_c, 2, 74, 96
3, 175199, Note_on_c, 2, 74, 0
3, 175200, Note_on_c, 2, 72, 96
3, 175319, Note_on_c, 2, 72, 0
3, 175320, Note_on_c, 2, 74, 96
3, 175439, Note_on_c, 2, 74, 0
3, 175440, Note_on_c, 2, 76, 96
3, 175559, Note_on_c, 2, 76, 0
3, 175560, Note_on_c, 2, 77, 96
3, 175679, Note_on_c, 2, 77, 0
3, 175680, Note_on_c, 2, 79, 96
3, 175799, Note_on_c, 2, 79, 0
3, 175800, Note_on_c, 2, 80, 96
3, 175919, Note_on_c, 2, 80, 0
3, 175920, Note_on_c, 2, 82, 96
3, 176039, Note_on_c, 2, 82, 0
3, 176040, Note_on_c, 2, 80, 96
3, 176159, Note_on_c, 2, 80, 0
3, 176160, Note_on_c, 2, 79, 96
3, 176279, Note_on_c, 2, 79, 0
3, 176280, Note_on_c, 2, 77, 96
3, 176399, Note_on_c, 2, 77, 0
3, 176400, Note_on_c, 2, 76, 96
3, 176519, Note_on_c, 2, 76, 0
3, 176520, Note_on_c, 2, 74, 96
3, 176639, Note_on_c, 2, 74, 0
3, 176640, Note_on_c, 2, 76, 80
3, 176879, Note_on_c, 2, 76, 0
3, 176880, Note_on_c, 2, 79, 80
3, 177119, Note_on_c, 2, 79, 0
3, 177120, Note_on_c, 2, 82, 80
3, 177359, Note_on_c, 2, 82, 0
3, 177360, Note_on_c, 2, 84, 80
3, 177599, Note_on_c, 2, 84, 0
3, 177600, Note_on_c, 2, 82, 80
3, 177839, Note_on_c, 2, 82, 0
3, 177840, Note_on_c, 2, 80, 80
3, 178079, Note_on_c, 2, 80, 0
3, 178080, Note_on_c, 2, 79, 80
3, 178319, Note_on_c, 2, 79, 0
3, 178320, Note_on_c, 2, 77, 80
3, 178559, Note_on_c, 2, 77, 0
3, 178560, Note_on_c, 2, 76, 80
3, 178799, Note_on_c, 2, 76, 0
3, 178800, Note_on_c, 2, 84, 80
3, 179039, Note_on_c, 2, 84, 0
3, 179040, Note_on_c, 2, 82, 80
3, 179279, Note_on_c, 2, 82, 0
3, 179280, Note_on_c, 2, 80, 80
3, 179519, Note_on_c, 2, 80, 0
3, 179520, Note_on_c, 2, 79, 80
3, 179759, Note_on_c, 2, 79, 0
3, 179760, Note_on_c, 2, 77, 80
3, 179999, Note_on_c, 2, 77, 0
3, 180000, Note_on_c, 2, 76, 80
3, 180239, Note_on_c, 2, 76, 0
3, 180240, Note_on_c, 2, 77, 80
3, 180359, Note_on_c, 2, 77, 0
3, 180480, Note_on_c, 2, 77, 80
3, 180599, Note_on_c, 2, 77, 0
3, 180720, Note_on_c, 2, 77, 80
3, 180839, Note_on_c, 2, 77, 0
3, 180960, Note_on_c, 2, 77, 80
3, 181079, Note_on_c, 2, 77, 0
3, 181200, Note_on_c, 2, 77, 80
3, 181319, Note_on_c, 2, 77, 0
3, 181440, Note_on_c, 2, 77, 80
3, 181559, Note_on_c, 2, 77, 0
3, 181680, Note_on_c, 2, 77, 80
3, 181799, Note_on_c, 2, 77, 0
3, 181920, Note_on_c, 2, 77, 80
3, 182039, Note_on_c, 2, 77, 0
3, 182160, Note_on_c, 2, 77, 80
3, 182279, Note_on_c, 2, 77, 0
3, 182400, Note_on_c, 2, 77, 80
3, 182519, Note_on_c, 2, 77, 0
3, 182640, Note_on_c, 2, 77, 80
3, 182759, Note_on_c, 2, 77, 0
3, 182880, Note_on_c, 2, 77, 80
3, 182999, Note_on_c, 2, 77, 0
3, 183120, Note_on_c, 2, 76, 80
3, 183239, Note_on_c, 2, 76, 0
3, 183360, Note_on_c, 2, 72, 80
3, 183479, Note_on_c, 2, 72, 0
3, 183600, Note_on_c, 2, 72, 80
3, 183719, Note_on_c, 2, 72, 0
3, 183840, Note_on_c, 2, 73, 80
3, 183959, Note_on_c, 2, 73, 0
3, 184080, Note_on_c, 2, 73, 80
3, 184199, Note_on_c, 2, 73, 0
3, 184320, Note_on_c, 2, 73, 80
3, 184439, Note_on_c, 2, 73, 0
3, 184560, Note_on_c, 2, 74, 80
3, 184679, Note_on_c, 2, 74, 0
3, 184800, Note_on_c, 2, 74, 80
3, 184919, Note_on_c, 2, 74, 0
3, 185040, Note_on_c, 2, 74, 80
3, 185159, Note_on_c, 2, 74, 0
3, 185280, Note_on_c, 2, 75, 80
3, 185399, Note_on_c, 2, 75, 0
3, 185520, Note_on_c, 2, 75, 80
3, 185639, Note_on_c, 2, 75, 0
3, 185760, Note_on_c, 2, 75, 80
3, 185879, Note_on_c, 2, 75, 0
3, 186000, Note_on_c, 2, 76, 80
3, 186119, Note_on_c, 2, 76, 0
3, 186240, Note_on_c, 2, 76, 80
3, 186359, Note_on_c, 2, 76, 0
3, 186480, Note_on_c, 2, 76, 80
3, 186599, Note_on_c, 2, 76, 0
3, 186720, Note_on_c, 2, 77, 80
3, 187199, Note_on_c, 2, 77, 0
3, 187440, Note_on_c, 2, 77, 96
3, 187559, Note_on_c, 2, 77, 0
3, 187560, Note_on_c, 2, 75, 96
3, 187679, Note_on_c, 2, 75, 0
3, 187680, Note_on_c, 2, 73, 96
3, 187799, Note_on_c, 2, 73, 0
3, 187800, Note_on_c, 2, 72, 96
3, 187919, Note_on_c, 2, 72, 0
3, 187920, Note_on_c, 2, 70, 96
3, 188039, Note_on_c, 2, 70, 0
3, 188040, Note_on_c, 2, 68, 96
3, 188159, Note_on_c, 2, 68, 0
3, 188160, Note_on_c, 2, 67, 96
3, 188279, Note_on_c, 2, 67, 0
3, 188280, Note_on_c, 2, 65, 96
3, 188399, Note_on_c, 2, 65, 0
3, 188400, Note_on_c, 2, 64, 96
3, 188519, Note_on_c, 2, 64, 0
3, 188520, Note_on_c, 2, 62, 96
3, 188639, Note_on_c, 2, 62, 0
3, 188640, Note_on_c, 2, 60, 96
3, 188879, Note_on_c, 2, 60, 0
3, 188880, Note_on_c, 2, 82, 96
3, 188999, Note_on_c, 2, 82, 0
3, 189120, Note_on_c, 2, 82, 96
3, 189239, Note_on_c, 2, 82, 0
3, 189360, Note_on_c, 2, 82, 96
3, 189479, Note_on_c, 2, 82, 0
3, 189600, Note_on_c, 2, 82, 96
3, 189719, Note_on_c, 2, 82, 0
3, 189840, Note_on_c, 2, 82, 96
3, 189959, Note_on_c, 2, 82, 0
3, 190080, Note_on_c, 2, 82, 96
3, 190199, Note_on_c, 2, 82, 0
3, 190320, Note_on_c, 2, 80, 96
3, 190439, Note_on_c, 2, 80, 0
3, 190560, Note_on_c, 2, 80, 96
3, 190679, Note_on_c, 2, 80, 0
3, 190800, Note_on_c, 2, 80, 96
3, 190919, Note_on_c, 2, 80, 0
3, 191040, Note_on_c, 2, 80, 96
3, 191159, Note_on_c, 2, 80, 0
3, 191280, Note_on_c, 2, 80, 96
3, 191399, Note_on_c, 2, 80, 0
3, 191520, Note_on_c, 2, 80, 96
3, 191639, Note_on_c, 2, 80, 0
3, 191760, Note_on_c, 2, 79, 96
3, 191879, Note_on_c, 2, 79, 0
3, 192000, Note_on_c, 2, 79, 96
3, 192119, Note_on_c, 2, 79, 0
3, 192240, Note_on_c, 2, 79, 96
3, 192359, Note_on_c, 2, 79, 0
3, 192480, Note_on_c, 2, 79, 96
3, 192599, Note_on_c, 2, 79, 0
3, 192720, Note_on_c, 2, 79, 96
3, 192839, Note_on_c, 2, 79, 0
3, 192960, Note_on_c, 2, 79, 96
3, 193079, Note_on_c, 2, 79, 0
3, 193200, Note_on_c, 2, 77, 96
3, 193319, Note_on_c, 2, 77, 0
3, 193320, Note_on_c, 2, 75, 96
3, 193439, Note_on_c, 2, 75, 0
3, 193440, Note_on_c, 2, 73, 96
3, 193559, Note_on_c, 2, 73, 0
3, 193560, Note_on_c, 2, 72, 96
3, 193679, Note_on_c, 2, 72, 0
3, 193680, Note_on_c, 2, 70, 96
3, 193799, Note_on_c, 2, 70, 0
3, 193800, Note_on_c, 2, 68, 96
3, 193919, Note_on_c, 2, 68, 0
3, 193920, Note_on_c, 2, 67, 96
3, 194039, Note_on_c, 2, 67, 0
3, 194040, Note_on_c, 2, 65, 96
3, 194159, Note_on_c, 2, 65, 0
3, 194160, Note_on_c, 2, 64, 96
3, 194279, Note_on_c, 2, 64, 0
3, 194280, Note_on_c, 2, 62, 96
3, 194399, Note_on_c, 2, 62, 0
3, 194400, Note_on_c, 2, 60, 96
3, 194519, Note_on_c, 2, 60, 0
3, 194520, Note_on_c, 2, 58, 96
3, 194639, Note_on_c, 2, 58, 0
3, 194640, Note_on_c, 2, 56, 96
3, 194879, Note_on_c, 2, 56, 0
3, 194880, Note_on_c, 2, 58, 96
3, 195119, Note_on_c, 2, 58, 0
3, 195120, Note_on_c, 2, 60, 96
3, 195359, Note_on_c, 2, 60, 0
3, 195360, Note_on_c, 2, 65, 49
3, 202559, Note_on_c, 2, 65, 0
3, 202560, Note_on_c, 2, 64, 49
3, 202799, Note_on_c, 2, 64, 0
3, 202800, Note_on_c, 2, 76, 49
3, 203039, Note_on_c, 2, 76, 0
3, 203040, Note_on_c, 2, 76, 49
3, 203279, Note_on_c, 2, 76, 0
3, 203280, Note_on_c, 2, 77, 49
3, 203519, Note_on_c, 2, 77, 0
3, 203520, Note_on_c, 2, 77, 49
3, 203759, Note_on_c, 2, 77, 0
3, 203760, Note_on_c, 2, 77, 49
3, 203999, Note_on_c, 2, 77, 0
3, 204000, Note_on_c, 2, 76, 49
3, 204239, Note_on_c, 2, 76, 0
3, 204240, Note_on_c, 2, 76, 49
3, 204479, Note_on_c, 2, 76, 0
3, 204480, Note_on_c, 2, 76, 49
3, 204719, Note_on_c, 2, 76, 0
3, 204720, Note_on_c, 2, 75, 49
3, 204959, Note_on_c, 2, 75, 0
3, 204960, Note_on_c, 2, 75, 49
3, 205199, Note_on_c, 2, 75, 0
3, 205200, Note_on_c, 2, 75, 49
3, 205439, Note_on_c, 2, 75, 0
3, 205440, Note_on_c, 2, 74, 49
3, 205679, Note_on_c, 2, 74, 0
3, 205680, Note_on_c, 2, 74, 49
3, 205919, Note_on_c, 2, 74, 0
3, 205920, Note_on_c, 2, 74, 49
3, 206159, Note_on_c, 2, 74, 0
3, 206160, Note_on_c, 2, 73, 49
3, 206399, Note_on_c, 2, 73, 0
3, 206400, Note_on_c, 2, 73, 49
3, 206639, Note_on_c, 2, 73, 0
3, 206640, Note_on_c, 2, 73, 49
3, 206879, Note_on_c, 2, 73, 0
3, 206880, Note_on_c, 2, 72, 49
3, 207119, Note_on_c, 2, 72, 0
3, 207120, Note_on_c, 2, 72, 49
3, 207359, Note_on_c, 2, 72, 0
3, 207360, Note_on_c, 2, 72, 49
3, 207599, Note_on_c, 2, 72, 0
3, 207600, Note_on_c, 2, 72, 49
3, 207839, Note_on_c, 2, 72, 0
3, 207840, Note_on_c, 2, 72, 49
3, 208079, Note_on_c, 2, 72, 0
3, 208080, Note_on_c, 2, 72, 49
3, 208319, Note_on_c, 2, 72, 0
3, 208320, Note_on_c, 2, 71, 49
3, 208559, Note_on_c, 2, 71, 0
3, 208560, Note_on_c, 2, 71, 49
3, 208799, Note_on_c, 2, 71, 0
3, 208800, Note_on_c, 2, 71, 49
3, 209039, Note_on_c, 2, 71, 0
3, 209040, Note_on_c, 2, 70, 49
3, 209279, Note_on_c, 2, 70, 0
3, 209280, Note_on_c, 2, 70, 49
3, 209519, Note_on_c, 2, 70, 0
3, 209520, Note_on_c, 2, 70, 49
3, 209759, Note_on_c, 2, 70, 0
3, 209760, Note_on_c, 2, 69, 49
3, 209999, Note_on_c, 2, 69, 0
3, 210000, Note_on_c, 2, 69, 49
3, 210239, Note_on_c, 2, 69, 0
3, 210240, Note_on_c, 2, 69, 49
3, 210479, Note_on_c, 2, 69, 0
3, 210480, Note_on_c, 2, 68, 49
3, 210719, Note_on_c, 2, 68, 0
3, 210720, Note_on_c, 2, 68, 49
3, 210959, Note_on_c, 2, 68, 0
3, 210960, Note_on_c, 2, 68, 49
3, 211199, Note_on_c, 2, 68, 0
3, 211200, Note_on_c, 2, 67, 49
3, 211319, Note_on_c, 2, 67, 0
3, 211320, Note_on_c, 2, 67, 49
3, 211439, Note_on_c, 2, 67, 0
3, 211440, Note_on_c, 2, 55, 49
3, 211679, Note_on_c, 2, 55, 0
3, 212040, Note_on_c, 2, 67, 49
3, 212159, Note_on_c, 2, 67, 0
3, 212160, Note_on_c, 2, 55, 49
3, 212399, Note_on_c, 2, 55, 0
3, 212760, Note_on_c, 2, 67, 49
3, 212879, Note_on_c, 2, 67, 0
3, 212880, Note_on_c, 2, 55, 49
3, 213119, Note_on_c, 2, 55, 0
3, 213480, Note_on_c, 2, 67, 49
3, 213599, Note_on_c, 2, 67, 0
3, 213600, Note_on_c, 2, 55, 49
3, 213839, Note_on_c, 2, 55, 0
3, 214200, Note_on_c, 2, 67, 49
3, 214319, Note_on_c, 2, 67, 0
3, 214320, Note_on_c, 2, 55, 49
3, 214559, Note_on_c, 2, 55, 0
3, 214920, Note_on_c, 2, 67, 49
3, 215039, Note_on_c, 2, 67, 0
3, 215040, Note_on_c, 2, 55, 49
3, 215279, Note_on_c, 2, 55, 0
3, 215640, Note_on_c, 2, 67, 49
3, 215759, Note_on_c, 2, 67, 0
3, 215760, Note_on_c, 2, 55, 49
3, 215999, Note_on_c, 2, 55, 0
3, 220560, Note_on_c, 2, 77, 96
3, 220679, Note_on_c, 2, 77, 0
3, 220680, Note_on_c, 2, 75, 96
3, 220799, Note_on_c, 2, 75, 0
3, 220800, Note_on_c, 2, 74, 96
3, 220919, Note_on_c, 2, 74, 0
3, 220920, Note_on_c, 2, 72, 96
3, 221039, Note_on_c, 2, 72, 0
3, 221040, Note_on_c, 2, 71, 96
3, 221159, Note_on_c, 2, 71, 0
3, 221160, Note_on_c, 2, 69, 96
3, 221279, Note_on_c, 2, 69, 0
3, 221280, Note_on_c, 2, 67, 96
3, 221399, Note_on_c, 2, 67, 0
3, 221400, Note_on_c, 2, 69, 96
3, 221519, Note_on_c, 2, 69, 0
3, 221520, Note_on_c, 2, 71, 96
3, 221639, Note_on_c, 2, 71, 0
3, 221640, Note_on_c, 2, 72, 96
3, 221759, Note_on_c, 2, 72, 0
3, 221760, Note_on_c, 2, 74, 96
3, 221879, Note_on_c, 2, 74, 0
3, 221880, Note_on_c, 2, 75, 96
3, 221999, Note_on_c, 2, 75, 0
3, 222000, Note_on_c, 2, 77, 96
3, 222119, Note_on_c, 2, 77, 0
3, 222120, Note_on_c, 2, 75, 96
3, 222239, Note_on_c, 2, 75, 0
3, 222240, Note_on_c, 2, 74, 96
3, 222359, Note_on_c, 2, 74, 0
3, 222360, Note_on_c, 2, 72, 96
3, 222479, Note_on_c, 2, 72, 0
3, 222480, Note_on_c, 2, 71, 96
3, 222599, Note_on_c, 2, 71, 0
3, 222600, Note_on_c, 2, 69, 96
3, 222719, Note_on_c, 2, 69, 0
3, 222720, Note_on_c, 2, 67, 96
3, 222959, Note_on_c, 2, 67, 0
3, 223260, Note_on_c, 2, 71, 96
3, 223319, Note_on_c, 2, 71, 0
3, 223320, Note_on_c, 2, 72, 96
3, 223379, Note_on_c, 2, 72, 0
3, 223380, Note_on_c, 2, 74, 96
3, 223439, Note_on_c, 2, 74, 0
3, 223440, Note_on_c, 2, 65, 96
3, 223679, Note_on_c, 2, 65, 0
3, 223980, Note_on_c, 2, 62, 96
3, 224039, Note_on_c, 2, 62, 0
3, 224040, Note_on_c, 2, 63, 96
3, 224099, Note_on_c, 2, 63, 0
3, 224100, Note_on_c, 2, 65, 96
3, 224159, Note_on_c, 2, 65, 0
3, 224160, Note_on_c, 2, 55, 96
3, 224399, Note_on_c, 2, 55, 0
3, 224700, Note_on_c, 2, 59, 96
3, 224759, Note_on_c, 2, 59, 0
3, 224760, Note_on_c, 2, 60, 96
3, 224819, Note_on_c, 2, 60, 0
3, 224820, Note_on_c, 2, 62, 96
3, 224879, Note_on_c, 2, 62, 0
3, 224880, Note_on_c, 2, 63, 96
3, 225119, Note_on_c, 2, 63, 0
3, 225120, Note_on_c, 2, 65, 96
3, 225359, Note_on_c, 2, 65, 0
3, 225360, Note_on_c, 2, 67, 96
3, 225599, Note_on_c, 2, 67, 0
3, 225600, Note_on_c, 2, 60, 96
3, 226079, Note_on_c, 2, 60, 0
3, 231360, Note_on_c, 2, 75, 96
3, 231599, Note_on_c, 2, 75, 0
3, 231600, Note_on_c, 2, 74, 96
3, 231839, Note_on_c, 2, 74, 0
3, 231840, Note_on_c, 2, 72, 96
3, 232079, Note_on_c, 2, 72, 0
3, 232080, Note_on_c, 2, 70, 96
3, 232319, Note_on_c, 2, 70, 0
3, 232320, Note_on_c, 2, 72, 96
3, 232559, Note_on_c, 2, 72, 0
3, 232560, Note_on_c, 2, 74, 96
3, 232799, Note_on_c, 2, 74, 0
3, 232800, Note_on_c, 2, 75, 96
3, 233039, Note_on_c, 2, 75, 0
3, 233040, Note_on_c, 2, 74, 96
3, 233279, Note_on_c, 2, 74, 0
3, 233280, Note_on_c, 2, 72, 96
3, 233519, Note_on_c, 2, 72, 0
3, 233520, Note_on_c, 2, 70, 96
3, 233759, Note_on_c, 2, 70, 0
3, 233760, Note_on_c, 2, 72, 96
3, 233999, Note_on_c, 2, 72, 0
3, 234000, Note_on_c, 2, 74, 96
3, 234239, Note_on_c, 2, 74, 0
3, 234240, Note_on_c, 2, 75, 96
3, 234479, Note_on_c, 2, 75, 0
3, 234480, Note_on_c, 2, 77, 96
3, 234719, Note_on_c, 2, 77, 0
3, 234720, Note_on_c, 2, 79, 96
3, 234959, Note_on_c, 2, 79, 0
3, 234960, Note_on_c, 2, 77, 96
3, 235199, Note_on_c, 2, 77, 0
3, 235680, Note_on_c, 2, 75, 96
3, 235919, Note_on_c, 2, 75, 0
3, 236400, Note_on_c, 2, 74, 96
3, 236639, Note_on_c, 2, 74, 0
3, 237120, Note_on_c, 2, 77, 96
3, 237359, Note_on_c, 2, 77, 0
3, 237360, Note_on_c, 2, 75, 96
3, 237599, Note_on_c, 2, 75, 0
3, 237840, Note_on_c, 2, 63, 96
3, 238079, Note_on_c, 2, 63, 0
3, 238080, Note_on_c, 2, 62, 96
3, 238319, Note_on_c, 2, 62, 0
3, 238560, Note_on_c, 2, 79, 96
3, 238799, Note_on_c, 2, 79, 0
3, 238800, Note_on_c, 2, 77, 96
3, 239039, Note_on_c, 2, 77, 0
3, 239280, Note_on_c, 2, 65, 96
3, 239519, Note_on_c, 2, 65, 0
3, 239520, Note_on_c, 2, 63, 96
3, 239759, Note_on_c, 2, 63, 0
3, 240000, Note_on_c, 2, 75, 96
3, 240239, Note_on_c, 2, 75, 0
3, 240240, Note_on_c, 2, 77, 96
3, 240479, Note_on_c, 2, 77, 0
3, 240480, Note_on_c, 2, 79, 96
3, 240719, Note_on_c, 2, 79, 0
3, 240960, Note_on_c, 2, 68, 96
3, 241079, Note_on_c, 2, 68, 0
3, 241080, Note_on_c, 2, 70, 96
3, 241199, Note_on_c, 2, 70, 0
3, 241200, Note_on_c, 2, 72, 96
3, 241439, Note_on_c, 2, 72, 0
3, 241680, Note_on_c, 2, 77, 96
3, 241799, Note_on_c, 2, 77, 0
3, 241800, Note_on_c, 2, 75, 96
3, 241919, Note_on_c, 2, 75, 0
3, 241920, Note_on_c, 2, 74, 96
3, 242159, Note_on_c, 2, 74, 0
3, 242160, Note_on_c, 2, 75, 96
3, 242639, Note_on_c, 2, 75, 0
3, 242880, Note_on_c, 2, 75, 49
3, 243119, Note_on_c, 2, 75, 0
3, 243120, Note_on_c, 2, 77, 49
3, 243359, Note_on_c, 2, 77, 0
3, 243360, Note_on_c, 2, 79, 49
3, 243599, Note_on_c, 2, 79, 0
3, 243840, Note_on_c, 2, 68, 49
3, 243959, Note_on_c, 2, 68, 0
3, 243960, Note_on_c, 2, 70, 49
3, 244079, Note_on_c, 2, 70, 0
3, 244080, Note_on_c, 2, 72, 49
3, 244319, Note_on_c, 2, 72, 0
3, 244560, Note_on_c, 2, 77, 49
3, 244679, Note_on_c, 2, 77, 0
3, 244680, Note_on_c, 2, 75, 49
3, 244799, Note_on_c, 2, 75, 0
3, 244800, Note_on_c, 2, 74, 49
3, 245039, Note_on_c, 2, 74, 0
3, 245040, Note_on_c, 2, 75, 49
3, 245519, Note_on_c, 2, 75, 0
3, 247920, Note_on_c, 2, 73, 96
3, 247979, Note_on_c, 2, 73, 0
3, 247980, Note_on_c, 2, 73, 96
3, 248039, Note_on_c, 2, 73, 0
3, 248040, Note_on_c, 2, 73, 96
3, 248099, Note_on_c, 2, 73, 0
3, 248100, Note_on_c, 2, 73, 96
3, 248159, Note_on_c, 2, 73, 0
3, 248160, Note_on_c, 2, 73, 96
3, 248219, Note_on_c, 2, 73, 0
3, 248220, Note_on_c, 2, 73, 96
3, 248279, Note_on_c, 2, 73, 0
3, 248280, Note_on_c, 2, 73, 96
3, 248339, Note_on_c, 2, 73, 0
3, 248340, Note_on_c, 2, 73, 96
3, 248399, Note_on_c, 2, 73, 0
3, 248400, Note_on_c, 2, 73, 96
3, 248459, Note_on_c, 2, 73, 0
3, 248460, Note_on_c, 2, 73, 96
3, 248519, Note_on_c, 2, 73, 0
3, 248520, Note_on_c, 2, 73, 96
3, 248579, Note_on_c, 2, 73, 0
3, 248580, Note_on_c, 2, 73, 96
3, 248639, Note_on_c, 2, 73, 0
3, 248640, Note_on_c, 2, 67, 96
3, 249119, Note_on_c, 2, 67, 0
3, 250080, Note_on_c, 2, 77, 96
3, 250139, Note_on_c, 2, 77, 0
3, 250140, Note_on_c, 2, 77, 96
3, 250199, Note_on_c, 2, 77, 0
3, 250200, Note_on_c, 2, 77, 96
3, 250259, Note_on_c, 2, 77, 0
3, 250260, Note_on_c, 2, 77, 96
3, 250319, Note_on_c, 2, 77, 0
3, 250320, Note_on_c, 2, 77, 96
3, 250379, Note_on_c, 2, 77, 0
3, 250380, Note_on_c, 2, 77, 96
3, 250439, Note_on_c, 2, 77, 0
3, 250440, Note_on_c, 2, 77, 96
3, 250499, Note_on_c, 2, 77, 0
3, 250500, Note_on_c, 2, 77, 96
3, 250559, Note_on_c, 2, 77, 0
3, 250560, Note_on_c, 2, 77, 96
3, 250619, Note_on_c, 2, 77, 0
3, 250620, Note_on_c, 2, 77, 96
3, 250679, Note_on_c, 2, 77, 0
3, 250680, Note_on_c, 2, 77, 96
3, 250739, Note_on_c, 2, 77, 0
3, 250740, Note_on_c, 2, 77, 96
3, 250799, Note_on_c, 2, 77, 0
3, 250800, Note_on_c, 2, 77, 96
3, 251279, Note_on_c, 2, 77, 0
3, 251520, Note_on_c, 2, 73, 96
3, 251579, Note_on_c, 2, 73, 0
3, 251580, Note_on_c, 2, 73, 96
3, 251639, Note_on_c, 2, 73, 0
3, 251640, Note_on_c, 2, 73, 96
3, 251699, Note_on_c, 2, 73, 0
3, 251700, Note_on_c, 2, 73, 96
3, 251759, Note_on_c, 2, 73, 0
3, 251760, Note_on_c, 2, 73, 96
3, 251819, Note_on_c, 2, 73, 0
3, 251820, Note_on_c, 2, 73, 96
3, 251879, Note_on_c, 2, 73, 0
3, 251880, Note_on_c, 2, 73, 96
3, 251939, Note_on_c, 2, 73, 0
3, 251940, Note_on_c, 2, 73, 96
3, 251999, Note_on_c, 2, 73, 0
3, 252000, Note_on_c, 2, 73, 96
3, 252059, Note_on_c, 2, 73, 0
3, 252060, Note_on_c, 2, 73, 96
3, 252119, Note_on_c, 2, 73, 0
3, 252120, Note_on_c, 2, 73, 96
3, 252179, Note_on_c, 2, 73, 0
3, 252180, Note_on_c, 2, 73, 96
3, 252239, Note_on_c, 2, 73, 0
3, 252240, Note_on_c, 2, 73, 96
3, 252719, Note_on_c, 2, 73, 0
3, 252960, Note_on_c, 2, 75, 96
3, 253019, Note_on_c, 2, 75, 0
3, 253020, Note_on_c, 2, 75, 96
3, 253079, Note_on_c, 2, 75, 0
3, 253080, Note_on_c, 2, 75, 96
3, 253139, Note_on_c, 2, 75, 0
3, 253140, Note_on_c, 2, 75, 96
3, 253199, Note_on_c, 2, 75, 0
3, 253200, Note_on_c, 2, 75, 96
3, 253259, Note_on_c, 2, 75, 0
3, 253260, Note_on_c, 2, 75, 96
3, 253319, Note_on_c, 2, 75, 0
3, 253320, Note_on_c, 2, 75, 96
3, 253379, Note_on_c, 2, 75, 0
3, 253380, Note_on_c, 2, 75, 96
3, 253439, Note_on_c, 2, 75, 0
3, 253440, Note_on_c, 2, 75, 96
3, 253499, Note_on_c, 2, 75, 0
3, 253500, Note_on_c, 2, 75, 96
3, 253559, Note_on_c, 2, 75, 0
3, 253560, Note_on_c, 2, 75, 96
3, 253619, Note_on_c, 2, 75, 0
3, 253620, Note_on_c, 2, 75, 96
3, 253679, Note_on_c, 2, 75, 0
3, 253680, Note_on_c, 2, 75, 96
3, 254159, Note_on_c, 2, 75, 0
3, 254400, Note_on_c, 2, 77, 96
3, 254459, Note_on_c, 2, 77, 0
3, 254460, Note_on_c, 2, 77, 96
3, 254519, Note_on_c, 2, 77, 0
3, 254520, Note_on_c, 2, 77, 96
3, 254579, Note_on_c, 2, 77, 0
3, 254580, Note_on_c, 2, 77, 96
3, 254639, Note_on_c, 2, 77, 0
3, 254640, Note_on_c, 2, 77, 96
3, 254699, Note_on_c, 2, 77, 0
3, 254700, Note_on_c, 2, 77, 96
3, 254759, Note_on_c, 2, 77, 0
3, 254760, Note_on_c, 2, 77, 96
3, 254819, Note_on_c, 2, 77, 0
3, 254820, Note_on_c, 2, 77, 96
3, 254879, Note_on_c, 2, 77, 0
3, 254880, Note_on_c, 2, 77, 96
3, 254939, Note_on_c, 2, 77, 0
3, 254940, Note_on_c, 2, 77, 96
3, 254999, Note_on_c, 2, 77, 0
3, 255000, Note_on_c, 2, 77, 96
3, 255059, Note_on_c, 2, 77, 0
3, 255060, Note_on_c, 2, 77, 96
3, 255119, Note_on_c, 2, 77, 0
3, 255120, Note_on_c, 2, 77, 96
3, 255599, Note_on_c, 2, 77, 0
3, 255840, Note_on_c, 2, 79, 96
3, 255899, Note_on_c, 2, 79, 0
3, 255900, Note_on_c, 2, 79, 96
3, 255959, Note_on_c, 2, 79, 0
3, 255960, Note_on_c, 2, 79, 96
3, 256019, Note_on_c, 2, 79, 0
3, 256020, Note_on_c, 2, 79, 96
3, 256079, Note_on_c, 2, 79, 0
3, 256080, Note_on_c, 2, 79, 96
3, 256139, Note_on_c, 2, 79, 0
3, 256140, Note_on_c, 2, 79, 96
3, 256199, Note_on_c, 2, 79, 0
3, 256200, Note_on_c, 2, 79, 96
3, 256259, Note_on_c, 2, 79, 0
3, 256260, Note_on_c, 2, 79, 96
3, 256319, Note_on_c, 2, 79, 0
3, 256320, Note_on_c, 2, 79, 96
3, 256379, Note_on_c, 2, 79, 0
3, 256380, Note_on_c, 2, 79, 96
3, 256439, Note_on_c, 2, 79, 0
3, 256440, Note_on_c, 2, 79, 96
3, 256499, Note_on_c, 2, 79, 0
3, 256500, Note_on_c, 2, 79, 96
3, 256559, Note_on_c, 2, 79, 0
3, 256560, Note_on_c, 2, 79, 96
3, 257039, Note_on_c, 2, 79, 0
3, 257280, Note_on_c, 2, 80, 96
3, 257339, Note_on_c, 2, 80, 0
3, 257340, Note_on_c, 2, 80, 96
3, 257399, Note_on_c, 2, 80, 0
3, 257400, Note_on_c, 2, 80, 96
3, 257459, Note_on_c, 2, 80, 0
3, 257460, Note_on_c, 2, 80, 96
3, 257519, Note_on_c, 2, 80, 0
3, 257520, Note_on_c, 2, 80, 96
3, 257579, Note_on_c, 2, 80, 0
3, 257580, Note_on_c, 2, 80, 96
3, 257639, Note_on_c, 2, 80, 0
3, 257640, Note_on_c, 2, 80, 96
3, 257699, Note_on_c, 2, 80, 0
3, 257700, Note_on_c, 2, 80, 96
3, 257759, Note_on_c, 2, 80, 0
3, 257760, Note_on_c, 2, 80, 96
3, 257819, Note_on_c, 2, 80, 0
3, 257820, Note_on_c, 2, 80, 96
3, 257879, Note_on_c, 2, 80, 0
3, 257880, Note_on_c, 2, 80, 96
3, 257939, Note_on_c, 2, 80, 0
3, 257940, Note_on_c, 2, 80, 96
3, 257999, Note_on_c, 2, 80, 0
3, 258000, Note_on_c, 2, 80, 96
3, 258059, Note_on_c, 2, 80, 0
3, 258060, Note_on_c, 2, 82, 96
3, 258119, Note_on_c, 2, 82, 0
3, 258120, Note_on_c, 2, 80, 96
3, 258179, Note_on_c, 2, 80, 0
3, 258180, Note_on_c, 2, 79, 96
3, 258239, Note_on_c, 2, 79, 0
3, 258240, Note_on_c, 2, 77, 96
3, 258299, Note_on_c, 2, 77, 0
3, 258300, Note_on_c, 2, 79, 96
3, 258359, Note_on_c, 2, 79, 0
3, 258360, Note_on_c, 2, 77, 96
3, 258419, Note_on_c, 2, 77, 0
3, 258420, Note_on_c, 2, 75, 96
3, 258479, Note_on_c, 2, 75, 0
3, 258480, Note_on_c, 2, 73, 96
3, 258539, Note_on_c, 2, 73, 0
3, 258540, Note_on_c, 2, 75, 96
3, 258599, Note_on_c, 2, 75, 0
3, 258600, Note_on_c, 2, 73, 96
3, 258659, Note_on_c, 2, 73, 0
3, 258660, Note_on_c, 2, 72, 96
3, 258719, Note_on_c, 2, 72, 0
3, 258720, Note_on_c, 2, 70, 96
3, 258779, Note_on_c, 2, 70, 0
3, 258780, Note_on_c, 2, 72, 96
3, 258839, Note_on_c, 2, 72, 0
3, 258840, Note_on_c, 2, 70, 96
3, 258899, Note_on_c, 2, 70, 0
3, 258900, Note_on_c, 2, 68, 96
3, 258959, Note_on_c, 2, 68, 0
3, 258960, Note_on_c, 2, 67, 96
3, 259019, Note_on_c, 2, 67, 0
3, 259020, Note_on_c, 2, 68, 96
3, 259079, Note_on_c, 2, 68, 0
3, 259080, Note_on_c, 2, 67, 96
3, 259139, Note_on_c, 2, 67, 0
3, 259140, Note_on_c, 2, 65, 96
3, 259199, Note_on_c, 2, 65, 0
3, 259200, Note_on_c, 2, 64, 96
3, 259259, Note_on_c, 2, 64, 0
3, 259260, Note_on_c, 2, 65, 96
3, 259319, Note_on_c, 2, 65, 0
3, 259320, Note_on_c, 2, 64, 96
3, 259379, Note_on_c, 2, 64, 0
3, 259380, Note_on_c, 2, 61, 96
3, 259439, Note_on_c, 2, 61, 0
3, 259440, Note_on_c, 2, 60, 96
3, 259499, Note_on_c, 2, 60, 0
3, 259500, Note_on_c, 2, 60, 96
3, 259559, Note_on_c, 2, 60, 0
3, 259560, Note_on_c, 2, 60, 96
3, 259619, Note_on_c, 2, 60, 0
3, 259620, Note_on_c, 2, 60, 96
3, 259679, Note_on_c, 2, 60, 0
3, 259680, Note_on_c, 2, 60, 96
3, 259739, Note_on_c, 2, 60, 0
3, 259740, Note_on_c, 2, 60, 96
3, 259799, Note_on_c, 2, 60, 0
3, 259800, Note_on_c, 2, 60, 96
3, 259859, Note_on_c, 2, 60, 0
3, 259860, Note_on_c, 2, 60, 96
3, 259919, Note_on_c, 2, 60, 0
3, 259920, Note_on_c, 2, 60, 96
3, 259979, Note_on_c, 2, 60, 0
3, 259980, Note_on_c, 2, 60, 96
3, 260039, Note_on_c, 2, 60, 0
3, 260040, Note_on_c, 2, 60, 96
3, 260099, Note_on_c, 2, 60, 0
3, 260100, Note_on_c, 2, 60, 96
3, 260159, Note_on_c, 2, 60, 0
3, 260160, Note_on_c, 2, 58, 96
3, 260219, Note_on_c, 2, 58, 0
3, 260220, Note_on_c, 2, 58, 96
3, 260279, Note_on_c, 2, 58, 0
3, 260280, Note_on_c, 2, 58, 96
3, 260339, Note_on_c, 2, 58, 0
3, 260340, Note_on_c, 2, 58, 96
3, 260399, Note_on_c, 2, 58, 0
3, 260400, Note_on_c, 2, 58, 96
3, 260459, Note_on_c, 2, 58, 0
3, 260460, Note_on_c, 2, 58, 96
3, 260519, Note_on_c, 2, 58, 0
3, 260520, Note_on_c, 2, 58, 96
3, 260579, Note_on_c, 2, 58, 0
3, 260580, Note_on_c, 2, 58, 96
3, 260639, Note_on_c, 2, 58, 0
3, 260640, Note_on_c, 2, 58, 96
3, 260699, Note_on_c, 2, 58, 0
3, 260700, Note_on_c, 2, 58, 96
3, 260759, Note_on_c, 2, 58, 0
3, 260760, Note_on_c, 2, 58, 96
3, 260819, Note_on_c, 2, 58, 0
3, 260820, Note_on_c, 2, 58, 96
3, 260879, Note_on_c, 2, 58, 0
3, 260880, Note_on_c, 2, 56, 96
3, 260939, Note_on_c, 2, 56, 0
3, 260940, Note_on_c, 2, 65, 96
3, 260999, Note_on_c, 2, 65, 0
3, 261000, Note_on_c, 2, 65, 96
3, 261059, Note_on_c, 2, 65, 0
3, 261060, Note_on_c, 2, 65, 96
3, 261119, Note_on_c, 2, 65, 0
3, 261120, Note_on_c, 2, 56, 96
3, 261179, Note_on_c, 2, 56, 0
3, 261180, Note_on_c, 2, 65, 96
3, 261239, Note_on_c, 2, 65, 0
3, 261240, Note_on_c, 2, 65, 96
3, 261299, Note_on_c, 2, 65, 0
3, 261300, Note_on_c, 2, 65, 96
3, 261359, Note_on_c, 2, 65, 0
3, 261360, Note_on_c, 2, 56, 96
3, 261419, Note_on_c, 2, 56, 0
3, 261420, Note_on_c, 2, 65, 96
3, 261479, Note_on_c, 2, 65, 0
3, 261480, Note_on_c, 2, 65, 96
3, 261539, Note_on_c, 2, 65, 0
3, 261540, Note_on_c, 2, 65, 96
3, 261599, Note_on_c, 2, 65, 0
3, 261600, Note_on_c, 2, 55, 96
3, 261659, Note_on_c, 2, 55, 0
3, 261660, Note_on_c, 2, 65, 96
3, 261719, Note_on_c, 2, 65, 0
3, 261720, Note_on_c, 2, 65, 96
3, 261779, Note_on_c, 2, 65, 0
3, 261780, Note_on_c, 2, 65, 96
3, 261839, Note_on_c, 2, 65, 0
3, 261840, Note_on_c, 2, 55, 96
3, 261899, Note_on_c, 2, 55, 0
3, 261900, Note_on_c, 2, 65, 96
3, 261959, Note_on_c, 2, 65, 0
3, 261960, Note_on_c, 2, 65, 96
3, 262019, Note_on_c, 2, 65, 0
3, 262020, Note_on_c, 2, 65, 96
3, 262079, Note_on_c, 2, 65, 0
3, 262080, Note_on_c, 2, 55, 96
3, 262139, Note_on_c, 2, 55, 0
3, 262140, Note_on_c, 2, 65, 96
3, 262199, Note_on_c, 2, 65, 0
3, 262200, Note_on_c, 2, 65, 96
3, 262259, Note_on_c, 2, 65, 0
3, 262260, Note_on_c, 2, 65, 96
3, 262319, Note_on_c, 2, 65, 0
3, 262320, Note_on_c, 2, 55, 96
3, 262379, Note_on_c, 2, 55, 0
3, 262380, Note_on_c, 2, 64, 96
3, 262439, Note_on_c, 2, 64, 0
3, 262440, Note_on_c, 2, 64, 96
3, 262499, Note_on_c, 2, 64, 0
3, 262500, Note_on_c, 2, 64, 96
3, 262559, Note_on_c, 2, 64, 0
3, 262560, Note_on_c, 2, 55, 96
3, 262619, Note_on_c, 2, 55, 0
3, 262620, Note_on_c, 2, 64, 96
3, 262679, Note_on_c, 2, 64, 0
3, 262680, Note_on_c, 2, 64, 96
3, 262739, Note_on_c, 2, 64, 0
3, 262740, Note_on_c, 2, 64, 96
3, 262799, Note_on_c, 2, 64, 0
3, 262800, Note_on_c, 2, 55, 96
3, 262859, Note_on_c, 2, 55, 0
3, 262860, Note_on_c, 2, 64, 96
3, 262919, Note_on_c, 2, 64, 0
3, 262920, Note_on_c, 2, 64, 96
3, 262979, Note_on_c, 2, 64, 0
3, 262980, Note_on_c, 2, 64, 96
3, 263039, Note_on_c, 2, 64, 0
3, 263040, Note_on_c, 2, 65, 96
3, 263099, Note_on_c, 2, 65, 0
3, 263100, Note_on_c, 2, 65, 96
3, 263159, Note_on_c, 2, 65, 0
3, 263160, Note_on_c, 2, 65, 96
3, 263219, Note_on_c, 2, 65, 0
3, 263220, Note_on_c, 2, 65, 96
3, 263279, Note_on_c, 2, 65, 0
3, 263280, Note_on_c, 2, 68, 96
3, 263339, Note_on_c, 2, 68, 0
3, 263340, Note_on_c, 2, 68, 96
3, 263399, Note_on_c, 2, 68, 0
3, 263400, Note_on_c, 2, 68, 96
3, 263459, Note_on_c, 2, 68, 0
3, 263460, Note_on_c, 2, 68, 96
3, 263519, Note_on_c, 2, 68, 0
3, 263520, Note_on_c, 2, 72, 96
3, 263579, Note_on_c, 2, 72, 0
3, 263580, Note_on_c, 2, 72, 96
3, 263639, Note_on_c, 2, 72, 0
3, 263640, Note_on_c, 2, 72, 96
3, 263699, Note_on_c, 2, 72, 0
3, 263700, Note_on_c, 2, 72, 96
3, 263759, Note_on_c, 2, 72, 0
3, 263760, Note_on_c, 2, 80, 96
3, 263819, Note_on_c, 2, 80, 0
3, 263820, Note_on_c, 2, 82, 96
3, 263879, Note_on_c, 2, 82, 0
3, 263880, Note_on_c, 2, 80, 96
3, 263939, Note_on_c, 2, 80, 0
3, 263940, Note_on_c, 2, 79, 96
3, 263999, Note_on_c, 2, 79, 0
3, 264000, Note_on_c, 2, 77, 96
3, 264059, Note_on_c, 2, 77, 0
3, 264060, Note_on_c, 2, 79, 96
3, 264119, Note_on_c, 2, 79, 0
3, 264120, Note_on_c, 2, 77, 96
3, 264179, Note_on_c, 2, 77, 0
3, 264180, Note_on_c, 2, 75, 96
3, 264239, Note_on_c, 2, 75, 0
3, 264240, Note_on_c, 2, 73, 96
3, 264299, Note_on_c, 2, 73, 0
3, 264300, Note_on_c, 2, 75, 96
3, 264359, Note_on_c, 2, 75, 0
3, 264360, Note_on_c, 2, 73, 96
3, 264419, Note_on_c, 2, 73, 0
3, 264420, Note_on_c, 2, 72, 96
3, 264479, Note_on_c, 2, 72, 0
3, 264480, Note_on_c, 2, 70, 96
3, 264539, Note_on_c, 2, 70, 0
3, 264540, Note_on_c, 2, 72, 96
3, 264599, Note_on_c, 2, 72, 0
3, 264600, Note_on_c, 2, 70, 96
3, 264659, Note_on_c, 2, 70, 0
3, 264660, Note_on_c, 2, 68, 96
3, 264719, Note_on_c, 2, 68, 0
3, 264720, Note_on_c, 2, 67, 96
3, 264779, Note_on_c, 2, 67, 0
3, 264780, Note_on_c, 2, 68, 96
3, 264839, Note_on_c, 2, 68, 0
3, 264840, Note_on_c, 2, 67, 96
3, 264899, Note_on_c, 2, 67, 0
3, 264900, Note_on_c, 2, 65, 96
3, 264959, Note_on_c, 2, 65, 0
3, 264960, Note_on_c, 2, 64, 96
3, 265019, Note_on_c, 2, 64, 0
3, 265020, Note_on_c, 2, 65, 96
3, 265079, Note_on_c, 2, 65, 0
3, 265080, Note_on_c, 2, 64, 96
3, 265139, Note_on_c, 2, 64, 0
3, 265140, Note_on_c, 2, 62, 96
3, 265199, Note_on_c, 2, 62, 0
3, 265200, Note_on_c, 2, 60, 96
3, 265259, Note_on_c, 2, 60, 0
3, 265260, Note_on_c, 2, 60, 96
3, 265319, Note_on_c, 2, 60, 0
3, 265320, Note_on_c, 2, 60, 96
3, 265379, Note_on_c, 2, 60, 0
3, 265380, Note_on_c, 2, 60, 96
3, 265439, Note_on_c, 2, 60, 0
3, 265440, Note_on_c, 2, 60, 96
3, 265499, Note_on_c, 2, 60, 0
3, 265500, Note_on_c, 2, 60, 96
3, 265559, Note_on_c, 2, 60, 0
3, 265560, Note_on_c, 2, 60, 96
3, 265619, Note_on_c, 2, 60, 0
3, 265620, Note_on_c, 2, 60, 96
3, 265679, Note_on_c, 2, 60, 0
3, 265680, Note_on_c, 2, 60, 96
3, 265739, Note_on_c, 2, 60, 0
3, 265740, Note_on_c, 2, 60, 96
3, 265799, Note_on_c, 2, 60, 0
3, 265800, Note_on_c, 2, 60, 96
3, 265859, Note_on_c, 2, 60, 0
3, 265860, Note_on_c, 2, 60, 96
3, 265919, Note_on_c, 2, 60, 0
3, 265920, Note_on_c, 2, 58, 96
3, 265979, Note_on_c, 2, 58, 0
3, 265980, Note_on_c, 2, 58, 96
3, 266039, Note_on_c, 2, 58, 0
3, 266040, Note_on_c, 2, 58, 96
3, 266099, Note_on_c, 2, 58, 0
3, 266100, Note_on_c, 2, 58, 96
3, 266159, Note_on_c, 2, 58, 0
3, 266160, Note_on_c, 2, 58, 96
3, 266219, Note_on_c, 2, 58, 0
3, 266220, Note_on_c, 2, 58, 96
3, 266279, Note_on_c, 2, 58, 0
3, 266280, Note_on_c, 2, 58, 96
3, 266339, Note_on_c, 2, 58, 0
3, 266340, Note_on_c, 2, 58, 96
3, 266399, Note_on_c, 2, 58, 0
3, 266400, Note_on_c, 2, 58, 96
3, 266459, Note_on_c, 2, 58, 0
3, 266460, Note_on_c, 2, 58, 96
3, 266519, Note_on_c, 2, 58, 0
3, 266520, Note_on_c, 2, 58, 96
3, 266579, Note_on_c, 2, 58, 0
3, 266580, Note_on_c, 2, 58, 96
3, 266639, Note_on_c, 2, 58, 0
3, 266640, Note_on_c, 2, 56, 96
3, 266699, Note_on_c, 2, 56, 0
3, 266700, Note_on_c, 2, 65, 96
3, 266759, Note_on_c, 2, 65, 0
3, 266760, Note_on_c, 2, 65, 96
3, 266819, Note_on_c, 2, 65, 0
3, 266820, Note_on_c, 2, 65, 96
3, 266879, Note_on_c, 2, 65, 0
3, 266880, Note_on_c, 2, 56, 96
3, 266939, Note_on_c, 2, 56, 0
3, 266940, Note_on_c, 2, 65, 96
3, 266999, Note_on_c, 2, 65, 0
3, 267000, Note_on_c, 2, 65, 96
3, 267059, Note_on_c, 2, 65, 0
3, 267060, Note_on_c, 2, 65, 96
3, 267119, Note_on_c, 2, 65, 0
3, 267120, Note_on_c, 2, 56, 96
3, 267179, Note_on_c, 2, 56, 0
3, 267180, Note_on_c, 2, 65, 96
3, 267239, Note_on_c, 2, 65, 0
3, 267240, Note_on_c, 2, 65, 96
3, 267299, Note_on_c, 2, 65, 0
3, 267300, Note_on_c, 2, 65, 96
3, 267359, Note_on_c, 2, 65, 0
3, 267360, Note_on_c, 2, 55, 96
3, 267419, Note_on_c, 2, 55, 0
3, 267420, Note_on_c, 2, 65, 96
3, 267479, Note_on_c, 2, 65, 0
3, 267480, Note_on_c, 2, 65, 96
3, 267539, Note_on_c, 2, 65, 0
3, 267540, Note_on_c, 2, 65, 96
3, 267599, Note_on_c, 2, 65, 0
3, 267600, Note_on_c, 2, 55, 96
3, 267659, Note_on_c, 2, 55, 0
3, 267660, Note_on_c, 2, 65, 96
3, 267719, Note_on_c, 2, 65, 0
3, 267720, Note_on_c, 2, 65, 96
3, 267779, Note_on_c, 2, 65, 0
3, 267780, Note_on_c, 2, 65, 96
3, 267839, Note_on_c, 2, 65, 0
3, 267840, Note_on_c, 2, 55, 96
3, 267899, Note_on_c, 2, 55, 0
3, 267900, Note_on_c, 2, 65, 96
3, 267959, Note_on_c, 2, 65, 0
3, 267960, Note_on_c, 2, 65, 96
3, 268019, Note_on_c, 2, 65, 0
3, 268020, Note_on_c, 2, 65, 96
3, 268079, Note_on_c, 2, 65, 0
3, 268080, Note_on_c, 2, 55, 96
3, 268139, Note_on_c, 2, 55, 0
3, 268140, Note_on_c, 2, 64, 96
3, 268199, Note_on_c, 2, 64, 0
3, 268200, Note_on_c, 2, 64, 96
3, 268259, Note_on_c, 2, 64, 0
3, 268260, Note_on_c, 2, 64, 96
3, 268319, Note_on_c, 2, 64, 0
3, 268320, Note_on_c, 2, 55, 96
3, 268379, Note_on_c, 2, 55, 0
3, 268380, Note_on_c, 2, 64, 96
3, 268439, Note_on_c, 2, 64, 0
3, 268440, Note_on_c, 2, 64, 96
3, 268499, Note_on_c, 2, 64, 0
3, 268500, Note_on_c, 2, 64, 96
3, 268559, Note_on_c, 2, 64, 0
3, 268560, Note_on_c, 2, 55, 96
3, 268619, Note_on_c, 2, 55, 0
3, 268620, Note_on_c, 2, 64, 96
3, 268679, Note_on_c, 2, 64, 0
3, 268680, Note_on_c, 2, 64, 96
3, 268739, Note_on_c, 2, 64, 0
3, 268740, Note_on_c, 2, 64, 96
3, 268799, Note_on_c, 2, 64, 0
3, 268800, Note_on_c, 2, 65, 96
3, 269519, Note_on_c, 2, 65, 0
3, 269520, End_track
4, 0, Start_track
4, 0, Key_signature, -4, "major"
4, 0, Program_c, 3, 41
4, 2, Control_c, 3, 7, 100
4, 4, Control_c, 3, 10, 64
4, 6, Control_c, 3, 91, 30
4, 8, Control_c, 3, 93, 30
4, 1920, Note_on_c, 3, 67, 64
4, 2039, Note_on_c, 3, 67, 0
4, 2160, Note_on_c, 3, 67, 64
4, 2279, Note_on_c, 3, 67, 0
4, 2400, Note_on_c, 3, 67, 64
4, 2519, Note_on_c, 3, 67, 0
4, 2640, Note_on_c, 3, 67, 64
4, 2759, Note_on_c, 3, 67, 0
4, 2880, Note_on_c, 3, 67, 64
4, 2999, Note_on_c, 3, 67, 0
4, 3120, Note_on_c, 3, 67, 64
4, 3239, Note_on_c, 3, 67, 0
4, 3360, Note_on_c, 3, 67, 64
4, 3479, Note_on_c, 3, 67, 0
4, 3600, Note_on_c, 3, 67, 64
4, 3719, Note_on_c, 3, 67, 0
4, 3840, Note_on_c, 3, 67, 64
4, 3959, Note_on_c, 3, 67, 0
4, 4080, Note_on_c, 3, 67, 64
4, 4199, Note_on_c, 3, 67, 0
4, 4320, Note_on_c, 3, 67, 64
4, 4439, Note_on_c, 3, 67, 0
4, 4560, Note_on_c, 3, 67, 64
4, 4679, Note_on_c, 3, 67, 0
4, 4800, Note_on_c, 3, 67, 64
4, 4919, Note_on_c, 3, 67, 0
4, 5040, Note_on_c, 3, 67, 64
4, 5159, Note_on_c, 3, 67, 0
4, 5280, Note_on_c, 3, 67, 64
4, 5399, Note_on_c, 3, 67, 0
4, 5520, Note_on_c, 3, 67, 64
4, 5639, Note_on_c, 3, 67, 0
4, 5760, Note_on_c, 3, 67, 64
4, 5879, Note_on_c, 3, 67, 0
4, 6000, Note_on_c, 3, 67, 64
4, 6119, Note_on_c, 3, 67, 0
4, 6240, Note_on_c, 3, 67, 64
4, 6359, Note_on_c, 3, 67, 0
4, 6480, Note_on_c, 3, 67, 64
4, 6599, Note_on_c, 3, 67, 0
4, 6720, Note_on_c, 3, 67, 64
4, 6839, Note_on_c, 3, 67, 0
4, 6960, Note_on_c, 3, 67, 64
4, 7079, Note_on_c, 3, 67, 0
4, 7200, Note_on_c, 3, 67, 64
4, 7319, Note_on_c, 3, 67, 0
4, 7440, Note_on_c, 3, 67, 64
4, 7559, Note_on_c, 3, 67, 0
4, 7680, Note_on_c, 3, 67, 64
4, 7799, Note_on_c, 3, 67, 0
4, 7920, Note_on_c, 3, 67, 64
4, 8039, Note_on_c, 3, 67, 0
4, 8160, Note_on_c, 3, 67, 64
4, 8279, Note_on_c, 3, 67, 0
4, 8400, Note_on_c, 3, 67, 64
4, 8519, Note_on_c, 3, 67, 0
4, 8640, Note_on_c, 3, 67, 64
4, 8759, Note_on_c, 3, 67, 0
4, 8880, Note_on_c, 3, 67, 64
4, 8999, Note_on_c, 3, 67, 0
4, 9120, Note_on_c, 3, 67, 64
4, 9239, Note_on_c, 3, 67, 0
4, 9360, Note_on_c, 3, 67, 64
4, 9479, Note_on_c, 3, 67, 0
4, 9600, Note_on_c, 3, 68, 64
4, 9719, Note_on_c, 3, 68, 0
4, 9840, Note_on_c, 3, 68, 64
4, 9959, Note_on_c, 3, 68, 0
4, 10080, Note_on_c, 3, 68, 64
4, 10199, Note_on_c, 3, 68, 0
4, 10320, Note_on_c, 3, 68, 64
4, 10439, Note_on_c, 3, 68, 0
4, 10560, Note_on_c, 3, 65, 64
4, 10679, Note_on_c, 3, 65, 0
4, 10800, Note_on_c, 3, 65, 64
4, 10919, Note_on_c, 3, 65, 0
4, 11040, Note_on_c, 3, 65, 64
4, 11159, Note_on_c, 3, 65, 0
4, 11280, Note_on_c, 3, 65, 64
4, 11399, Note_on_c, 3, 65, 0
4, 11520, Note_on_c, 3, 65, 64
4, 11639, Note_on_c, 3, 65, 0
4, 11760, Note_on_c, 3, 65, 64
4, 11879, Note_on_c, 3, 65, 0
4, 12000, Note_on_c, 3, 65, 64
4, 12119, Note_on_c, 3, 65, 0
4, 12240, Note_on_c, 3, 65, 64
4, 12359, Note_on_c, 3, 65, 0
4, 12480, Note_on_c, 3, 65, 64
4, 12599, Note_on_c, 3, 65, 0
4, 12720, Note_on_c, 3, 65, 64
4, 12839, Note_on_c, 3, 65, 0
4, 12960, Note_on_c, 3, 65, 64
4, 13079, Note_on_c, 3, 65, 0
4, 13200, Note_on_c, 3, 65, 64
4, 13319, Note_on_c, 3, 65, 0
4, 13440, Note_on_c, 3, 69, 64
4, 13559, Note_on_c, 3, 69, 0
4, 13680, Note_on_c, 3, 69, 64
4, 13799, Note_on_c, 3, 69, 0
4, 13920, Note_on_c, 3, 69, 64
4, 14039, Note_on_c, 3, 69, 0
4, 14160, Note_on_c, 3, 69, 64
4, 14279, Note_on_c, 3, 69, 0
4, 14400, Note_on_c, 3, 69, 64
4, 14519, Note_on_c, 3, 69, 0
4, 14640, Note_on_c, 3, 69, 64
4, 14759, Note_on_c, 3, 69, 0
4, 14880, Note_on_c, 3, 69, 64
4, 14999, Note_on_c, 3, 69, 0
4, 15120, Note_on_c, 3, 69, 64
4, 15239, Note_on_c, 3, 69, 0
4, 15360, Note_on_c, 3, 71, 64
4, 15479, Note_on_c, 3, 71, 0
4, 15600, Note_on_c, 3, 67, 64
4, 15719, Note_on_c, 3, 67, 0
4, 15840, Note_on_c, 3, 67, 64
4, 15959, Note_on_c, 3, 67, 0
4, 16080, Note_on_c, 3, 67, 64
4, 16199, Note_on_c, 3, 67, 0
4, 16320, Note_on_c, 3, 67, 64
4, 16439, Note_on_c, 3, 67, 0
4, 16560, Note_on_c, 3, 67, 64
4, 16679, Note_on_c, 3, 67, 0
4, 16800, Note_on_c, 3, 71, 64
4, 16919, Note_on_c, 3, 71, 0
4, 17040, Note_on_c, 3, 71, 64
4, 17159, Note_on_c, 3, 71, 0
4, 17280, Note_on_c, 3, 69, 64
4, 17399, Note_on_c, 3, 69, 0
4, 17520, Note_on_c, 3, 69, 64
4, 17639, Note_on_c, 3, 69, 0
4, 17760, Note_on_c, 3, 69, 64
4, 17879, Note_on_c, 3, 69, 0
4, 18000, Note_on_c, 3, 69, 64
4, 18119, Note_on_c, 3, 69, 0
4, 18240, Note_on_c, 3, 69, 64
4, 18359, Note_on_c, 3, 69, 0
4, 18480, Note_on_c, 3, 69, 64
4, 18599, Note_on_c, 3, 69, 0
4, 18720, Note_on_c, 3, 69, 64
4, 18839, Note_on_c, 3, 69, 0
4, 18960, Note_on_c, 3, 69, 64
4, 19079, Note_on_c, 3, 69, 0
4, 19200, Note_on_c, 3, 67, 64
4, 19319, Note_on_c, 3, 67, 0
4, 19440, Note_on_c, 3, 67, 64
4, 19559, Note_on_c, 3, 67, 0
4, 19680, Note_on_c, 3, 67, 64
4, 19799, Note_on_c, 3, 67, 0
4, 19920, Note_on_c, 3, 67, 64
4, 20039, Note_on_c, 3, 67, 0
4, 20160, Note_on_c, 3, 67, 64
4, 20279, Note_on_c, 3, 67, 0
4, 20400, Note_on_c, 3, 67, 64
4, 20519, Note_on_c, 3, 67, 0
4, 20640, Note_on_c, 3, 67, 64
4, 20759, Note_on_c, 3, 67, 0
4, 20880, Note_on_c, 3, 67, 64
4, 20999, Note_on_c, 3, 67, 0
4, 21120, Note_on_c, 3, 67, 96
4, 21599, Note_on_c, 3, 67, 0
4, 24000, Note_on_c, 3, 60, 64
4, 24119, Note_on_c, 3, 60, 0
4, 24240, Note_on_c, 3, 60, 64
4, 24359, Note_on_c, 3, 60, 0
4, 24480, Note_on_c, 3, 60, 64
4, 24599, Note_on_c, 3, 60, 0
4, 24720, Note_on_c, 3, 60, 64
4, 24839, Note_on_c, 3, 60, 0
4, 24960, Note_on_c, 3, 60, 64
4, 25079, Note_on_c, 3, 60, 0
4, 25200, Note_on_c, 3, 60, 64
4, 25319, Note_on_c, 3, 60, 0
4, 25440, Note_on_c, 3, 60, 64
4, 25559, Note_on_c, 3, 60, 0
4, 25680, Note_on_c, 3, 60, 64
4, 25799, Note_on_c, 3, 60, 0
4, 25920, Note_on_c, 3, 60, 64
4, 26399, Note_on_c, 3, 60, 0
4, 28800, Note_on_c, 3, 60, 64
4, 28919, Note_on_c, 3, 60, 0
4, 29040, Note_on_c, 3, 60, 64
4, 29159, Note_on_c, 3, 60, 0
4, 29280, Note_on_c, 3, 60, 64
4, 29399, Note_on_c, 3, 60, 0
4, 29520, Note_on_c, 3, 60, 64
4, 29639, Note_on_c, 3, 60, 0
4, 29760, Note_on_c, 3, 60, 64
4, 29879, Note_on_c, 3, 60, 0
4, 30000, Note_on_c, 3, 60, 64
4, 30119, Note_on_c, 3, 60, 0
4, 30240, Note_on_c, 3, 60, 64
4, 30359, Note_on_c, 3, 60, 0
4, 30480, Note_on_c, 3, 60, 64
4, 30599, Note_on_c, 3, 60, 0
4, 30720, Note_on_c, 3, 60, 64
4, 31199, Note_on_c, 3, 60, 0
4, 37440, Note_on_c, 3, 66, 64
4, 37559, Note_on_c, 3, 66, 0
4, 37680, Note_on_c, 3, 66, 64
4, 37799, Note_on_c, 3, 66, 0
4, 37920, Note_on_c, 3, 66, 64
4, 38039, Note_on_c, 3, 66, 0
4, 38160, Note_on_c, 3, 66, 64
4, 38279, Note_on_c, 3, 66, 0
4, 38400, Note_on_c, 3, 69, 64
4, 38519, Note_on_c, 3, 69, 0
4, 38640, Note_on_c, 3, 69, 64
4, 38759, Note_on_c, 3, 69, 0
4, 38880, Note_on_c, 3, 69, 64
4, 38999, Note_on_c, 3, 69, 0
4, 39120, Note_on_c, 3, 69, 64
4, 39239, Note_on_c, 3, 69, 0
4, 39360, Note_on_c, 3, 70, 64
4, 39479, Note_on_c, 3, 70, 0
4, 39600, Note_on_c, 3, 70, 64
4, 39719, Note_on_c, 3, 70, 0
4, 39840, Note_on_c, 3, 70, 64
4, 39959, Note_on_c, 3, 70, 0
4, 40080, Note_on_c, 3, 70, 64
4, 40199, Note_on_c, 3, 70, 0
4, 40320, Note_on_c, 3, 71, 64
4, 40439, Note_on_c, 3, 71, 0
4, 40560, Note_on_c, 3, 71, 64
4, 40679, Note_on_c, 3, 71, 0
4, 40800, Note_on_c, 3, 71, 64
4, 40919, Note_on_c, 3, 71, 0
4, 41040, Note_on_c, 3, 71, 64
4, 41159, Note_on_c, 3, 71, 0
4, 41280, Note_on_c, 3, 72, 64
4, 41759, Note_on_c, 3, 72, 0
4, 42240, Note_on_c, 3, 72, 112
4, 42359, Note_on_c, 3, 72, 0
4, 42360, Note_on_c, 3, 68, 112
4, 42479, Note_on_c, 3, 68, 0
4, 42480, Note_on_c, 3, 72, 112
4, 42599, Note_on_c, 3, 72, 0
4, 42600, Note_on_c, 3, 68, 112
4, 42719, Note_on_c, 3, 68, 0
4, 42720, Note_on_c, 3, 72, 112
4, 42839, Note_on_c, 3, 72, 0
4, 42840, Note_on_c, 3, 68, 112
4, 42959, Note_on_c, 3, 68, 0
4, 42960, Note_on_c, 3, 72, 112
4, 43079, Note_on_c, 3, 72, 0
4, 43080, Note_on_c, 3, 68, 112
4, 43199, Note_on_c, 3, 68, 0
4, 43200, Note_on_c, 3, 68, 112
4, 43679, Note_on_c, 3, 68, 0
4, 44160, Note_on_c, 3, 70, 112
4, 44279, Note_on_c, 3, 70, 0
4, 44280, Note_on_c, 3, 67, 112
4, 44399, Note_on_c, 3, 67, 0
4, 44400, Note_on_c, 3, 70, 112
4, 44519, Note_on_c, 3, 70, 0
4, 44520, Note_on_c, 3, 67, 112
4, 44639, Note_on_c, 3, 67, 0
4, 44640, Note_on_c, 3, 70, 112
4, 44759, Note_on_c, 3, 70, 0
4, 44760, Note_on_c, 3, 67, 112
4, 44879, Note_on_c, 3, 67, 0
4, 44880, Note_on_c, 3, 70, 112
4, 44999, Note_on_c, 3, 70, 0
4, 45000, Note_on_c, 3, 67, 112
4, 45119, Note_on_c, 3, 67, 0
4, 45120, Note_on_c, 3, 67, 112
4, 45599, Note_on_c, 3, 67, 0
4, 46080, Note_on_c, 3, 68, 112
4, 46199, Note_on_c, 3, 68, 0
4, 46200, Note_on_c, 3, 65, 112
4, 46319, Note_on_c, 3, 65, 0
4, 46320, Note_on_c, 3, 68, 112
4, 46439, Note_on_c, 3, 68, 0
4, 46440, Note_on_c, 3, 65, 112
4, 46559, Note_on_c, 3, 65, 0
4, 46560, Note_on_c, 3, 68, 112
4, 46679, Note_on_c, 3, 68, 0
4, 46680, Note_on_c, 3, 65, 112
4, 46799, Note_on_c, 3, 65, 0
4, 46800, Note_on_c, 3, 68, 112
4, 46919, Note_on_c, 3, 68, 0
4, 46920, Note_on_c, 3, 65, 112
4, 47039, Note_on_c, 3, 65, 0
4, 47040, Note_on_c, 3, 65, 112
4, 47519, Note_on_c, 3, 65, 0
4, 48000, Note_on_c, 3, 67, 112
4, 48119, Note_on_c, 3, 67, 0
4, 48120, Note_on_c, 3, 64, 112
4, 48239, Note_on_c, 3, 64, 0
4, 48240, Note_on_c, 3, 67, 112
4, 48359, Note_on_c, 3, 67, 0
4, 48360, Note_on_c, 3, 64, 112
4, 48479, Note_on_c, 3, 64, 0
4, 48480, Note_on_c, 3, 67, 112
4, 48599, Note_on_c, 3, 67, 0
4, 48600, Note_on_c, 3, 64, 112
4, 48719, Note_on_c, 3, 64, 0
4, 48720, Note_on_c, 3, 67, 112
4, 48839, Note_on_c, 3, 67, 0
4, 48840, Note_on_c, 3, 64, 112
4, 48959, Note_on_c, 3, 64, 0
4, 48960, Note_on_c, 3, 60, 112
4, 49439, Note_on_c, 3, 60, 0
4, 62400, Note_on_c, 3, 67, 64
4, 62459, Note_on_c, 3, 67, 0
4, 62460, Note_on_c, 3, 67, 64
4, 62519, Note_on_c, 3, 67, 0
4, 62520, Note_on_c, 3, 67, 64
4, 62579, Note_on_c, 3, 67, 0
4, 62580, Note_on_c, 3, 67, 64
4, 62639, Note_on_c, 3, 67, 0
4, 62640, Note_on_c, 3, 67, 64
4, 62699, Note_on_c, 3, 67, 0
4, 62700, Note_on_c, 3, 67, 64
4, 62759, Note_on_c, 3, 67, 0
4, 62760, Note_on_c, 3, 67, 64
4, 62819, Note_on_c, 3, 67, 0
4, 62820, Note_on_c, 3, 67, 64
4, 62879, Note_on_c, 3, 67, 0
4, 62880, Note_on_c, 3, 64, 64
4, 62939, Note_on_c, 3, 64, 0
4, 62940, Note_on_c, 3, 64, 64
4, 62999, Note_on_c, 3, 64, 0
4, 63000, Note_on_c, 3, 64, 64
4, 63059, Note_on_c, 3, 64, 0
4, 63060, Note_on_c, 3, 64, 64
4, 63119, Note_on_c, 3, 64, 0
4, 63120, Note_on_c, 3, 64, 64
4, 63179, Note_on_c, 3, 64, 0
4, 63180, Note_on_c, 3, 64, 64
4, 63239, Note_on_c, 3, 64, 0
4, 63240, Note_on_c, 3, 64, 64
4, 63299, Note_on_c, 3, 64, 0
4, 63300, Note_on_c, 3, 64, 64
4, 63359, Note_on_c, 3, 64, 0
4, 63360, Note_on_c, 3, 60, 96
4, 63839, Note_on_c, 3, 60, 0
4, 64320, Note_on_c, 3, 72, 96
4, 64379, Note_on_c, 3, 72, 0
4, 64380, Note_on_c, 3, 72, 96
4, 64439, Note_on_c, 3, 72, 0
4, 64440, Note_on_c, 3, 72, 96
4, 64499, Note_on_c, 3, 72, 0
4, 64500, Note_on_c, 3, 72, 96
4, 64559, Note_on_c, 3, 72, 0
4, 64560, Note_on_c, 3, 72, 96
4, 64619, Note_on_c, 3, 72, 0
4, 64620, Note_on_c, 3, 72, 96
4, 64679, Note_on_c, 3, 72, 0
4, 64680, Note_on_c, 3, 72, 96
4, 64739, Note_on_c, 3, 72, 0
4, 64740, Note_on_c, 3, 72, 96
4, 64799, Note_on_c, 3, 72, 0
4, 64800, Note_on_c, 3, 69, 96
4, 64859, Note_on_c, 3, 69, 0
4, 64860, Note_on_c, 3, 69, 96
4, 64919, Note_on_c, 3, 69, 0
4, 64920, Note_on_c, 3, 69, 96
4, 64979, Note_on_c, 3, 69, 0
4, 64980, Note_on_c, 3, 69, 96
4, 65039, Note_on_c, 3, 69, 0
4, 65040, Note_on_c, 3, 69, 96
4, 65099, Note_on_c, 3, 69, 0
4, 65100, Note_on_c, 3, 69, 96
4, 65159, Note_on_c, 3, 69, 0
4, 65160, Note_on_c, 3, 69, 96
4, 65219, Note_on_c, 3, 69, 0
4, 65220, Note_on_c, 3, 69, 96
4, 65279, Note_on_c, 3, 69, 0
4, 65280, Note_on_c, 3, 65, 96
4, 65759, Note_on_c, 3, 65, 0
4, 66240, Note_on_c, 3, 62, 64
4, 66299, Note_on_c, 3, 62, 0
4, 66300, Note_on_c, 3, 62, 64
4, 66359, Note_on_c, 3, 62, 0
4, 66360, Note_on_c, 3, 62, 64
4, 66419, Note_on_c, 3, 62, 0
4, 66420, Note_on_c, 3, 62, 64
4, 66479, Note_on_c, 3, 62, 0
4, 66480, Note_on_c, 3, 62, 64
4, 66539, Note_on_c, 3, 62, 0
4, 66540, Note_on_c, 3, 62, 64
4, 66599, Note_on_c, 3, 62, 0
4, 66600, Note_on_c, 3, 62, 64
4, 66659, Note_on_c, 3, 62, 0
4, 66660, Note_on_c, 3, 62, 64
4, 66719, Note_on_c, 3, 62, 0
4, 66720, Note_on_c, 3, 59, 64
4, 66779, Note_on_c, 3, 59, 0
4, 66780, Note_on_c, 3, 59, 64
4, 66839, Note_on_c, 3, 59, 0
4, 66840, Note_on_c, 3, 59, 64
4, 66899, Note_on_c, 3, 59, 0
4, 66900, Note_on_c, 3, 59, 64
4, 66959, Note_on_c, 3, 59, 0
4, 66960, Note_on_c, 3, 59, 64
4, 67019, Note_on_c, 3, 59, 0
4, 67020, Note_on_c, 3, 59, 64
4, 67079, Note_on_c, 3, 59, 0
4, 67080, Note_on_c, 3, 59, 64
4, 67139, Note_on_c, 3, 59, 0
4, 67140, Note_on_c, 3, 59, 64
4, 67199, Note_on_c, 3, 59, 0
4, 67200, Note_on_c, 3, 55, 96
4, 67679, Note_on_c, 3, 55, 0
4, 68160, Note_on_c, 3, 65, 64
4, 68219, Note_on_c, 3, 65, 0
4, 68220, Note_on_c, 3, 65, 64
4, 68279, Note_on_c, 3, 65, 0
4, 68280, Note_on_c, 3, 65, 64
4, 68339, Note_on_c, 3, 65, 0
4, 68340, Note_on_c, 3, 65, 64
4, 68399, Note_on_c, 3, 65, 0
4, 68400, Note_on_c, 3, 65, 64
4, 68459, Note_on_c, 3, 65, 0
4, 68460, Note_on_c, 3, 65, 64
4, 68519, Note_on_c, 3, 65, 0
4, 68520, Note_on_c, 3, 65, 64
4, 68579, Note_on_c, 3, 65, 0
4, 68580, Note_on_c, 3, 65, 64
4, 68639, Note_on_c, 3, 65, 0
4, 68640, Note_on_c, 3, 62, 64
4, 68699, Note_on_c, 3, 62, 0
4, 68700, Note_on_c, 3, 62, 64
4, 68759, Note_on_c, 3, 62, 0
4, 68760, Note_on_c, 3, 62, 64
4, 68819, Note_on_c, 3, 62, 0
4, 68820, Note_on_c, 3, 62, 64
4, 68879, Note_on_c, 3, 62, 0
4, 68880, Note_on_c, 3, 62, 64
4, 68939, Note_on_c, 3, 62, 0
4, 68940, Note_on_c, 3, 62, 64
4, 68999, Note_on_c, 3, 62, 0
4, 69000, Note_on_c, 3, 62, 64
4, 69059, Note_on_c, 3, 62, 0
4, 69060, Note_on_c, 3, 62, 64
4, 69119, Note_on_c, 3, 62, 0
4, 69120, Note_on_c, 3, 58, 96
4, 69599, Note_on_c, 3, 58, 0
4, 70080, Note_on_c, 3, 60, 96
4, 70139, Note_on_c, 3, 60, 0
4, 70140, Note_on_c, 3, 60, 96
4, 70199, Note_on_c, 3, 60, 0
4, 70200, Note_on_c, 3, 60, 96
4, 70259, Note_on_c, 3, 60, 0
4, 70260, Note_on_c, 3, 60, 96
4, 70319, Note_on_c, 3, 60, 0
4, 70320, Note_on_c, 3, 60, 96
4, 70379, Note_on_c, 3, 60, 0
4, 70380, Note_on_c, 3, 60, 96
4, 70439, Note_on_c, 3, 60, 0
4, 70440, Note_on_c, 3, 60, 96
4, 70499, Note_on_c, 3, 60, 0
4, 70500, Note_on_c, 3, 60, 96
4, 70559, Note_on_c, 3, 60, 0
4, 70560, Note_on_c, 3, 60, 96
4, 70619, Note_on_c, 3, 60, 0
4, 70620, Note_on_c, 3, 60, 96
4, 70679, Note_on_c, 3, 60, 0
4, 70680, Note_on_c, 3, 60, 96
4, 70739, Note_on_c, 3, 60, 0
4, 70740, Note_on_c, 3, 60, 96
4, 70799, Note_on_c, 3, 60, 0
4, 70800, Note_on_c, 3, 60, 96
4, 70859, Note_on_c, 3, 60, 0
4, 70860, Note_on_c, 3, 60, 96
4, 70919, Note_on_c, 3, 60, 0
4, 70920, Note_on_c, 3, 60, 96
4, 70979, Note_on_c, 3, 60, 0
4, 70980, Note_on_c, 3, 60, 96
4, 71039, Note_on_c, 3, 60, 0
4, 71040, Note_on_c, 3, 58, 96
4, 71099, Note_on_c, 3, 58, 0
4, 71100, Note_on_c, 3, 58, 96
4, 71159, Note_on_c, 3, 58, 0
4, 71160, Note_on_c, 3, 58, 96
4, 71219, Note_on_c, 3, 58, 0
4, 71220, Note_on_c, 3, 58, 96
4, 71279, Note_on_c, 3, 58, 0
4, 71280, Note_on_c, 3, 58, 96
4, 71339, Note_on_c, 3, 58, 0
4, 71340, Note_on_c, 3, 58, 96
4, 71399, Note_on_c, 3, 58, 0
4, 71400, Note_on_c, 3, 58, 96
4, 71459, Note_on_c, 3, 58, 0
4, 71460, Note_on_c, 3, 58, 96
4, 71519, Note_on_c, 3, 58, 0
4, 71520, Note_on_c, 3, 58, 96
4, 71579, Note_on_c, 3, 58, 0
4, 71580, Note_on_c, 3, 58, 96
4, 71639, Note_on_c, 3, 58, 0
4, 71640, Note_on_c, 3, 58, 96
4, 71699, Note_on_c, 3, 58, 0
4, 71700, Note_on_c, 3, 58, 96
4, 71759, Note_on_c, 3, 58, 0
4, 71760, Note_on_c, 3, 58, 96
4, 71819, Note_on_c, 3, 58, 0
4, 71820, Note_on_c, 3, 58, 96
4, 71879, Note_on_c, 3, 58, 0
4, 71880, Note_on_c, 3, 58, 96
4, 71939, Note_on_c, 3, 58, 0
4, 71940, Note_on_c, 3, 58, 96
4, 71999, Note_on_c, 3, 58, 0
4, 72000, Note_on_c, 3, 58, 96
4, 72479, Note_on_c, 3, 58, 0
4, 72960, Note_on_c, 3, 65, 64
4, 73079, Note_on_c, 3, 65, 0
4, 73200, Note_on_c, 3, 65, 64
4, 73319, Note_on_c, 3, 65, 0
4, 73440, Note_on_c, 3, 65, 64
4, 73559, Note_on_c, 3, 65, 0
4, 73680, Note_on_c, 3, 65, 64
4, 73799, Note_on_c, 3, 65, 0
4, 73920, Note_on_c, 3, 65, 64
4, 74039, Note_on_c, 3, 65, 0
4, 74160, Note_on_c, 3, 65, 64
4, 74279, Note_on_c, 3, 65, 0
4, 74400, Note_on_c, 3, 65, 64
4, 74519, Note_on_c, 3, 65, 0
4, 74640, Note_on_c, 3, 65, 64
4, 74759, Note_on_c, 3, 65, 0
4, 74880, Note_on_c, 3, 65, 64
4, 74999, Note_on_c, 3, 65, 0
4, 75120, Note_on_c, 3, 65, 64
4, 75239, Note_on_c, 3, 65, 0
4, 75360, Note_on_c, 3, 65, 64
4, 75479, Note_on_c, 3, 65, 0
4, 75600, Note_on_c, 3, 65, 64
4, 75719, Note_on_c, 3, 65, 0
4, 75840, Note_on_c, 3, 65, 64
4, 75959, Note_on_c, 3, 65, 0
4, 76080, Note_on_c, 3, 65, 64
4, 76199, Note_on_c, 3, 65, 0
4, 76320, Note_on_c, 3, 65, 64
4, 76439, Note_on_c, 3, 65, 0
4, 76560, Note_on_c, 3, 65, 64
4, 76679, Note_on_c, 3, 65, 0
4, 76800, Note_on_c, 3, 67, 64
4, 76919, Note_on_c, 3, 67, 0
4, 77040, Note_on_c, 3, 67, 64
4, 77159, Note_on_c, 3, 67, 0
4, 77280, Note_on_c, 3, 67, 64
4, 77399, Note_on_c, 3, 67, 0
4, 77520, Note_on_c, 3, 67, 64
4, 77639, Note_on_c, 3, 67, 0
4, 77760, Note_on_c, 3, 58, 64
4, 77879, Note_on_c, 3, 58, 0
4, 78000, Note_on_c, 3, 58, 64
4, 78119, Note_on_c, 3, 58, 0
4, 78240, Note_on_c, 3, 58, 64
4, 78359, Note_on_c, 3, 58, 0
4, 78480, Note_on_c, 3, 58, 64
4, 78599, Note_on_c, 3, 58, 0
4, 78720, Note_on_c, 3, 60, 64
4, 78839, Note_on_c, 3, 60, 0
4, 78960, Note_on_c, 3, 60, 64
4, 79079, Note_on_c, 3, 60, 0
4, 79200, Note_on_c, 3, 60, 64
4, 79319, Note_on_c, 3, 60, 0
4, 79440, Note_on_c, 3, 60, 64
4, 79559, Note_on_c, 3, 60, 0
4, 79680, Note_on_c, 3, 60, 64
4, 79799, Note_on_c, 3, 60, 0
4, 79920, Note_on_c, 3, 60, 64
4, 80039, Note_on_c, 3, 60, 0
4, 80160, Note_on_c, 3, 60, 64
4, 80279, Note_on_c, 3, 60, 0
4, 80400, Note_on_c, 3, 60, 64
4, 80519, Note_on_c, 3, 60, 0
4, 80640, Note_on_c, 3, 58, 64
4, 80759, Note_on_c, 3, 58, 0
4, 80880, Note_on_c, 3, 58, 64
4, 80999, Note_on_c, 3, 58, 0
4, 81120, Note_on_c, 3, 58, 64
4, 81239, Note_on_c, 3, 58, 0
4, 81360, Note_on_c, 3, 58, 64
4, 81479, Note_on_c, 3, 58, 0
4, 81600, Note_on_c, 3, 62, 64
4, 81719, Note_on_c, 3, 62, 0
4, 81840, Note_on_c, 3, 62, 64
4, 81959, Note_on_c, 3, 62, 0
4, 82080, Note_on_c, 3, 62, 64
4, 82199, Note_on_c, 3, 62, 0
4, 82320, Note_on_c, 3, 62, 64
4, 82439, Note_on_c, 3, 62, 0
4, 82560, Note_on_c, 3, 58, 96
4, 83039, Note_on_c, 3, 58, 0
4, 88320, Note_on_c, 3, 60, 49
4, 88439, Note_on_c, 3, 60, 0
4, 88560, Note_on_c, 3, 60, 49
4, 88679, Note_on_c, 3, 60, 0
4, 88800, Note_on_c, 3, 60, 49
4, 88919, Note_on_c, 3, 60, 0
4, 89040, Note_on_c, 3, 60, 49
4, 89159, Note_on_c, 3, 60, 0
4, 89280, Note_on_c, 3, 65, 49
4, 89399, Note_on_c, 3, 65, 0
4, 89520, Note_on_c, 3, 65, 49
4, 89639, Note_on_c, 3, 65, 0
4, 89760, Note_on_c, 3, 65, 49
4, 89879, Note_on_c, 3, 65, 0
4, 90000, Note_on_c, 3, 65, 49
4, 90119, Note_on_c, 3, 65, 0
4, 90240, Note_on_c, 3, 67, 49
4, 90359, Note_on_c, 3, 67, 0
4, 90480, Note_on_c, 3, 67, 49
4, 90599, Note_on_c, 3, 67, 0
4, 90720, Note_on_c, 3, 67, 49
4, 90839, Note_on_c, 3, 67, 0
4, 90960, Note_on_c, 3, 67, 49
4, 91079, Note_on_c, 3, 67, 0
4, 91200, Note_on_c, 3, 67, 49
4, 91319, Note_on_c, 3, 67, 0
4, 91440, Note_on_c, 3, 67, 49
4, 91559, Note_on_c, 3, 67, 0
4, 91680, Note_on_c, 3, 67, 49
4, 91799, Note_on_c, 3, 67, 0
4, 91920, Note_on_c, 3, 67, 49
4, 92039, Note_on_c, 3, 67, 0
4, 92160, Note_on_c, 3, 60, 49
4, 92279, Note_on_c, 3, 60, 0
4, 92400, Note_on_c, 3, 60, 49
4, 92519, Note_on_c, 3, 60, 0
4, 92640, Note_on_c, 3, 60, 49
4, 92759, Note_on_c, 3, 60, 0
4, 92880, Note_on_c, 3, 60, 49
4, 92999, Note_on_c, 3, 60, 0
4, 93120, Note_on_c, 3, 62, 49
4, 93239, Note_on_c, 3, 62, 0
4, 93360, Note_on_c, 3, 62, 49
4, 93479, Note_on_c, 3, 62, 0
4, 93600, Note_on_c, 3, 62, 49
4, 93719, Note_on_c, 3, 62, 0
4, 93840, Note_on_c, 3, 62, 49
4, 93959, Note_on_c, 3, 62, 0
4, 94080, Note_on_c, 3, 63, 49
4, 94199, Note_on_c, 3, 63, 0
4, 94320, Note_on_c, 3, 63, 49
4, 94439, Note_on_c, 3, 63, 0
4, 94560, Note_on_c, 3, 63, 49
4, 94679, Note_on_c, 3, 63, 0
4, 94800, Note_on_c, 3, 63, 49
4, 94919, Note_on_c, 3, 63, 0
4, 95040, Note_on_c, 3, 63, 49
4, 95159, Note_on_c, 3, 63, 0
4, 95280, Note_on_c, 3, 63, 49
4, 95399, Note_on_c, 3, 63, 0
4, 95520, Note_on_c, 3, 63, 49
4, 95639, Note_on_c, 3, 63, 0
4, 95760, Note_on_c, 3, 63, 49
4, 95879, Note_on_c, 3, 63, 0
4, 96000, Note_on_c, 3, 65, 49
4, 96119, Note_on_c, 3, 65, 0
4, 96240, Note_on_c, 3, 65, 49
4, 96359, Note_on_c, 3, 65, 0
4, 96480, Note_on_c, 3, 67, 49
4, 96599, Note_on_c, 3, 67, 0
4, 96720, Note_on_c, 3, 67, 49
4, 96839, Note_on_c, 3, 67, 0
4, 96960, Note_on_c, 3, 68, 49
4, 97079, Note_on_c, 3, 68, 0
4, 97200, Note_on_c, 3, 68, 49
4, 97319, Note_on_c, 3, 68, 0
4, 97440, Note_on_c, 3, 68, 49
4, 97559, Note_on_c, 3, 68, 0
4, 97680, Note_on_c, 3, 68, 49
4, 97799, Note_on_c, 3, 68, 0
4, 97920, Note_on_c, 3, 62, 49
4, 98039, Note_on_c, 3, 62, 0
4, 98160, Note_on_c, 3, 62, 49
4, 98279, Note_on_c, 3, 62, 0
4, 98400, Note_on_c, 3, 63, 49
4, 98519, Note_on_c, 3, 63, 0
4, 98640, Note_on_c, 3, 63, 49
4, 98759, Note_on_c, 3, 63, 0
4, 98880, Note_on_c, 3, 65, 49
4, 98999, Note_on_c, 3, 65, 0
4, 99120, Note_on_c, 3, 65, 49
4, 99239, Note_on_c, 3, 65, 0
4, 99360, Note_on_c, 3, 65, 49
4, 99479, Note_on_c, 3, 65, 0
4, 99600, Note_on_c, 3, 65, 49
4, 99719, Note_on_c, 3, 65, 0
4, 99840, Note_on_c, 3, 59, 49
4, 99959, Note_on_c, 3, 59, 0
4, 100080, Note_on_c, 3, 59, 49
4, 100199, Note_on_c, 3, 59, 0
4, 100320, Note_on_c, 3, 60, 49
4, 100439, Note_on_c, 3, 60, 0
4, 100560, Note_on_c, 3, 60, 49
4, 100679, Note_on_c, 3, 60, 0
4, 100800, Note_on_c, 3, 61, 49
4, 100919, Note_on_c, 3, 61, 0
4, 101040, Note_on_c, 3, 61, 49
4, 101159, Note_on_c, 3, 61, 0
4, 101280, Note_on_c, 3, 61, 49
4, 101399, Note_on_c, 3, 61, 0
4, 101520, Note_on_c, 3, 61, 49
4, 101639, Note_on_c, 3, 61, 0
4, 101760, Note_on_c, 3, 60, 49
4, 101879, Note_on_c, 3, 60, 0
4, 102000, Note_on_c, 3, 60, 49
4, 102119, Note_on_c, 3, 60, 0
4, 102240, Note_on_c, 3, 60, 49
4, 102359, Note_on_c, 3, 60, 0
4, 102480, Note_on_c, 3, 60, 49
4, 102599, Note_on_c, 3, 60, 0
4, 102720, Note_on_c, 3, 60, 49
4, 102839, Note_on_c, 3, 60, 0
4, 102960, Note_on_c, 3, 60, 49
4, 103079, Note_on_c, 3, 60, 0
4, 103200, Note_on_c, 3, 60, 49
4, 103319, Note_on_c, 3, 60, 0
4, 103440, Note_on_c, 3, 60, 49
4, 103559, Note_on_c, 3, 60, 0
4, 103680, Note_on_c, 3, 60, 49
4, 103799, Note_on_c, 3, 60, 0
4, 103920, Note_on_c, 3, 60, 49
4, 104039, Note_on_c, 3, 60, 0
4, 104160, Note_on_c, 3, 60, 49
4, 104279, Note_on_c, 3, 60, 0
4, 104400, Note_on_c, 3, 60, 49
4, 104519, Note_on_c, 3, 60, 0
4, 104640, Note_on_c, 3, 60, 49
4, 104759, Note_on_c, 3, 60, 0
4, 104880, Note_on_c, 3, 60, 49
4, 104999, Note_on_c, 3, 60, 0
4, 105120, Note_on_c, 3, 60, 49
4, 105239, Note_on_c, 3, 60, 0
4, 105360, Note_on_c, 3, 60, 49
4, 105479, Note_on_c, 3, 60, 0
4, 105600, Note_on_c, 3, 60, 112
4, 106079, Note_on_c, 3, 60, 0
4, 106560, Note_on_c, 3, 72, 112
4, 106679, Note_on_c, 3, 72, 0
4, 106680, Note_on_c, 3, 68, 112
4, 106799, Note_on_c, 3, 68, 0
4, 106800, Note_on_c, 3, 72, 112
4, 106919, Note_on_c, 3, 72, 0
4, 106920, Note_on_c, 3, 68, 112
4, 107039, Note_on_c, 3, 68, 0
4, 107040, Note_on_c, 3, 72, 112
4, 107159, Note_on_c, 3, 72, 0
4, 107160, Note_on_c, 3, 68, 112
4, 107279, Note_on_c, 3, 68, 0
4, 107280, Note_on_c, 3, 72, 112
4, 107399, Note_on_c, 3, 72, 0
4, 107400, Note_on_c, 3, 68, 112
4, 107519, Note_on_c, 3, 68, 0
4, 107520, Note_on_c, 3, 68, 112
4, 107999, Note_on_c, 3, 68, 0
4, 108480, Note_on_c, 3, 70, 112
4, 108599, Note_on_c, 3, 70, 0
4, 108600, Note_on_c, 3, 67, 112
4, 108719, Note_on_c, 3, 67, 0
4, 108720, Note_on_c, 3, 70, 112
4, 108839, Note_on_c, 3, 70, 0
4, 108840, Note_on_c, 3, 67, 112
4, 108959, Note_on_c, 3, 67, 0
4, 108960, Note_on_c, 3, 70, 112
4, 109079, Note_on_c, 3, 70, 0
4, 109080, Note_on_c, 3, 67, 112
4, 109199, Note_on_c, 3, 67, 0
4, 109200, Note_on_c, 3, 70, 112
4, 109319, Note_on_c, 3, 70, 0
4, 109320, Note_on_c, 3, 67, 112
4, 109439, Note_on_c, 3, 67, 0
4, 109440, Note_on_c, 3, 67, 112
4, 109919, Note_on_c, 3, 67, 0
4, 110400, Note_on_c, 3, 68, 112
4, 110519, Note_on_c, 3, 68, 0
4, 110520, Note_on_c, 3, 65, 112
4, 110639, Note_on_c, 3, 65, 0
4, 110640, Note_on_c, 3, 68, 112
4, 110759, Note_on_c, 3, 68, 0
4, 110760, Note_on_c, 3, 65, 112
4, 110879, Note_on_c, 3, 65, 0
4, 110880, Note_on_c, 3, 68, 112
4, 110999, Note_on_c, 3, 68, 0
4, 111000, Note_on_c, 3, 65, 112
4, 111119, Note_on_c, 3, 65, 0
4, 111120, Note_on_c, 3, 68, 112
4, 111239, Note_on_c, 3, 68, 0
4, 111240, Note_on_c, 3, 65, 112
4, 111359, Note_on_c, 3, 65, 0
4, 111360, Note_on_c, 3, 65, 112
4, 111839, Note_on_c, 3, 65, 0
4, 112320, Note_on_c, 3, 67, 112
4, 112439, Note_on_c, 3, 67, 0
4, 112440, Note_on_c, 3, 64, 112
4, 112559, Note_on_c, 3, 64, 0
4, 112560, Note_on_c, 3, 67, 112
4, 112679, Note_on_c, 3, 67, 0
4, 112680, Note_on_c, 3, 64, 112
4, 112799, Note_on_c, 3, 64, 0
4, 112800, Note_on_c, 3, 67, 112
4, 112919, Note_on_c, 3, 67, 0
4, 112920, Note_on_c, 3, 64, 112
4, 113039, Note_on_c, 3, 64, 0
4, 113040, Note_on_c, 3, 67, 112
4, 113159, Note_on_c, 3, 67, 0
4, 113160, Note_on_c, 3, 64, 112
4, 113279, Note_on_c, 3, 64, 0
4, 113280, Note_on_c, 3, 60, 112
4, 113399, Note_on_c, 3, 60, 0
4, 113400, Note_on_c, 3, 60, 112
4, 113459, Note_on_c, 3, 60, 0
4, 113460, Note_on_c, 3, 60, 112
4, 113519, Note_on_c, 3, 60, 0
4, 113520, Note_on_c, 3, 60, 112
4, 113579, Note_on_c, 3, 60, 0
4, 113580, Note_on_c, 3, 60, 112
4, 113639, Note_on_c, 3, 60, 0
4, 113640, Note_on_c, 3, 60, 112
4, 113699, Note_on_c, 3, 60, 0
4, 113700, Note_on_c, 3, 60, 112
4, 113759, Note_on_c, 3, 60, 0
4, 113760, Note_on_c, 3, 60, 112
4, 113879, Note_on_c, 3, 60, 0
4, 113880, Note_on_c, 3, 60, 112
4, 113999, Note_on_c, 3, 60, 0
4, 114000, Note_on_c, 3, 60, 112
4, 114119, Note_on_c, 3, 60, 0
4, 114120, Note_on_c, 3, 60, 112
4, 114239, Note_on_c, 3, 60, 0
4, 114240, Note_on_c, 3, 61, 112
4, 114359, Note_on_c, 3, 61, 0
4, 114360, Note_on_c, 3, 61, 112
4, 114419, Note_on_c, 3, 61, 0
4, 114420, Note_on_c, 3, 61, 112
4, 114479, Note_on_c, 3, 61, 0
4, 114480, Note_on_c, 3, 61, 112
4, 114539, Note_on_c, 3, 61, 0
4, 114540, Note_on_c, 3, 61, 112
4, 114599, Note_on_c, 3, 61, 0
4, 114600, Note_on_c, 3, 61, 112
4, 114659, Note_on_c, 3, 61, 0
4, 114660, Note_on_c, 3, 61, 112
4, 114719, Note_on_c, 3, 61, 0
4, 114720, Note_on_c, 3, 61, 112
4, 114839, Note_on_c, 3, 61, 0
4, 114840, Note_on_c, 3, 61, 112
4, 114959, Note_on_c, 3, 61, 0
4, 114960, Note_on_c, 3, 61, 112
4, 115079, Note_on_c, 3, 61, 0
4, 115080, Note_on_c, 3, 61, 112
4, 115199, Note_on_c, 3, 61, 0
4, 115200, Note_on_c, 3, 60, 112
4, 115319, Note_on_c, 3, 60, 0
4, 115320, Note_on_c, 3, 60, 112
4, 115379, Note_on_c, 3, 60, 0
4, 115380, Note_on_c, 3, 60, 112
4, 115439, Note_on_c, 3, 60, 0
4, 115440, Note_on_c, 3, 60, 112
4, 115499, Note_on_c, 3, 60, 0
4, 115500, Note_on_c, 3, 60, 112
4, 115559, Note_on_c, 3, 60, 0
4, 115560, Note_on_c, 3, 60, 112
4, 115619, Note_on_c, 3, 60, 0
4, 115620, Note_on_c, 3, 60, 112
4, 115679, Note_on_c, 3, 60, 0
4, 115680, Note_on_c, 3, 60, 112
4, 115799, Note_on_c, 3, 60, 0
4, 115800, Note_on_c, 3, 60, 112
4, 115919, Note_on_c, 3, 60, 0
4, 115920, Note_on_c, 3, 60, 112
4, 116039, Note_on_c, 3, 60, 0
4, 116040, Note_on_c, 3, 60, 112
4, 116159, Note_on_c, 3, 60, 0
4, 116160, Note_on_c, 3, 56, 112
4, 116279, Note_on_c, 3, 56, 0
4, 116280, Note_on_c, 3, 60, 112
4, 116339, Note_on_c, 3, 60, 0
4, 116340, Note_on_c, 3, 60, 112
4, 116399, Note_on_c, 3, 60, 0
4, 116400, Note_on_c, 3, 60, 112
4, 116459, Note_on_c, 3, 60, 0
4, 116460, Note_on_c, 3, 60, 112
4, 116519, Note_on_c, 3, 60, 0
4, 116520, Note_on_c, 3, 60, 112
4, 116579, Note_on_c, 3, 60, 0
4, 116580, Note_on_c, 3, 60, 112
4, 116639, Note_on_c, 3, 60, 0
4, 116640, Note_on_c, 3, 60, 112
4, 116759, Note_on_c, 3, 60, 0
4, 116760, Note_on_c, 3, 60, 112
4, 116879, Note_on_c, 3, 60, 0
4, 116880, Note_on_c, 3, 60, 112
4, 116999, Note_on_c, 3, 60, 0
4, 117000, Note_on_c, 3, 60, 112
4, 117119, Note_on_c, 3, 60, 0
4, 117120, Note_on_c, 3, 61, 112
4, 117239, Note_on_c, 3, 61, 0
4, 117240, Note_on_c, 3, 61, 112
4, 117299, Note_on_c, 3, 61, 0
4, 117300, Note_on_c, 3, 61, 112
4, 117359, Note_on_c, 3, 61, 0
4, 117360, Note_on_c, 3, 61, 112
4, 117419, Note_on_c, 3, 61, 0
4, 117420, Note_on_c, 3, 61, 112
4, 117479, Note_on_c, 3, 61, 0
4, 117480, Note_on_c, 3, 61, 112
4, 117539, Note_on_c, 3, 61, 0
4, 117540, Note_on_c, 3, 61, 112
4, 117599, Note_on_c, 3, 61, 0
4, 117600, Note_on_c, 3, 61, 112
4, 117719, Note_on_c, 3, 61, 0
4, 117720, Note_on_c, 3, 61, 112
4, 117839, Note_on_c, 3, 61, 0
4, 117840, Note_on_c, 3, 61, 112
4, 117959, Note_on_c, 3, 61, 0
4, 117960, Note_on_c, 3, 61, 112
4, 118079, Note_on_c, 3, 61, 0
4, 118080, Note_on_c, 3, 60, 112
4, 118199, Note_on_c, 3, 60, 0
4, 118200, Note_on_c, 3, 60, 112
4, 118259, Note_on_c, 3, 60, 0
4, 118260, Note_on_c, 3, 60, 112
4, 118319, Note_on_c, 3, 60, 0
4, 118320, Note_on_c, 3, 60, 112
4, 118379, Note_on_c, 3, 60, 0
4, 118380, Note_on_c, 3, 60, 112
4, 118439, Note_on_c, 3, 60, 0
4, 118440, Note_on_c, 3, 60, 112
4, 118499, Note_on_c, 3, 60, 0
4, 118500, Note_on_c, 3, 60, 112
4, 118559, Note_on_c, 3, 60, 0
4, 118560, Note_on_c, 3, 60, 112
4, 118679, Note_on_c, 3, 60, 0
4, 118680, Note_on_c, 3, 60, 112
4, 118799, Note_on_c, 3, 60, 0
4, 118800, Note_on_c, 3, 60, 112
4, 118919, Note_on_c, 3, 60, 0
4, 118920, Note_on_c, 3, 60, 112
4, 119039, Note_on_c, 3, 60, 0
4, 119040, Note_on_c, 3, 56, 112
4, 120959, Note_on_c, 3, 56, 0
4, 122880, Key_signature, -3, "major"
4, 122880, Note_on_c, 3, 70, 112
4, 128159, Note_on_c, 3, 70, 0
4, 128160, Note_on_c, 3, 68, 112
4, 129119, Note_on_c, 3, 68, 0
4, 129120, Note_on_c, 3, 67, 112
4, 130079, Note_on_c, 3, 67, 0
4, 130080, Note_on_c, 3, 65, 112
4, 130559, Note_on_c, 3, 65, 0
4, 130560, Note_on_c, 3, 65, 112
4, 131999, Note_on_c, 3, 65, 0
4, 132000, Note_on_c, 3, 70, 112
4, 132479, Note_on_c, 3, 70, 0
4, 132480, Note_on_c, 3, 70, 112
4, 133439, Note_on_c, 3, 70, 0
4, 133440, Note_on_c, 3, 72, 112
4, 134159, Note_on_c, 3, 72, 0
4, 134160, Note_on_c, 3, 69, 112
4, 134399, Note_on_c, 3, 69, 0
4, 134400, Note_on_c, 3, 65, 112
4, 142559, Note_on_c, 3, 65, 0
4, 142560, Note_on_c, 3, 70, 112
4, 143039, Note_on_c, 3, 70, 0
4, 143040, Note_on_c, 3, 70, 112
4, 143999, Note_on_c, 3, 70, 0
4, 144000, Note_on_c, 3, 72, 112
4, 144959, Note_on_c, 3, 72, 0
4, 144960, Note_on_c, 3, 74, 112
4, 145919, Note_on_c, 3, 74, 0
4, 145920, Note_on_c, 3, 63, 112
4, 146879, Note_on_c, 3, 63, 0
4, 146880, Note_on_c, 3, 65, 112
4, 147839, Note_on_c, 3, 65, 0
4, 147840, Note_on_c, 3, 58, 112
4, 157439, Note_on_c, 3, 58, 0
4, 159360, Key_signature, -4, "major"
4, 173760, Note_on_c, 3, 64, 112
4, 176639, Note_on_c, 3, 64, 0
4, 176640, Note_on_c, 3, 67, 80
4, 177359, Note_on_c, 3, 67, 0
4, 177360, Note_on_c, 3, 65, 80
4, 178079, Note_on_c, 3, 65, 0
4, 178080, Note_on_c, 3, 64, 80
4, 178319, Note_on_c, 3, 64, 0
4, 178320, Note_on_c, 3, 65, 80
4, 178559, Note_on_c, 3, 65, 0
4, 178560, Note_on_c, 3, 67, 80
4, 178799, Note_on_c, 3, 67, 0
4, 178800, Note_on_c, 3, 65, 80
4, 179519, Note_on_c, 3, 65, 0
4, 179520, Note_on_c, 3, 64, 80
4, 179759, Note_on_c, 3, 64, 0
4, 179760, Note_on_c, 3, 65, 80
4, 179999, Note_on_c, 3, 65, 0
4, 180000, Note_on_c, 3, 67, 80
4, 180239, Note_on_c, 3, 67, 0
4, 180240, Note_on_c, 3, 65, 80
4, 180359, Note_on_c, 3, 65, 0
4, 180480, Note_on_c, 3, 65, 80
4, 180599, Note_on_c, 3, 65, 0
4, 180720, Note_on_c, 3, 65, 80
4, 180839, Note_on_c, 3, 65, 0
4, 180960, Note_on_c, 3, 63, 80
4, 181079, Note_on_c, 3, 63, 0
4, 181200, Note_on_c, 3, 63, 80
4, 181319, Note_on_c, 3, 63, 0
4, 181440, Note_on_c, 3, 63, 80
4, 181559, Note_on_c, 3, 63, 0
4, 181680, Note_on_c, 3, 61, 80
4, 181799, Note_on_c, 3, 61, 0
4, 181920, Note_on_c, 3, 61, 80
4, 182039, Note_on_c, 3, 61, 0
4, 182160, Note_on_c, 3, 61, 80
4, 182279, Note_on_c, 3, 61, 0
4, 182400, Note_on_c, 3, 61, 80
4, 182519, Note_on_c, 3, 61, 0
4, 182640, Note_on_c, 3, 61, 80
4, 182759, Note_on_c, 3, 61, 0
4, 182880, Note_on_c, 3, 61, 80
4, 182999, Note_on_c, 3, 61, 0
4, 183120, Note_on_c, 3, 60, 80
4, 183239, Note_on_c, 3, 60, 0
4, 183360, Note_on_c, 3, 72, 80
4, 183479, Note_on_c, 3, 72, 0
4, 183600, Note_on_c, 3, 72, 80
4, 183719, Note_on_c, 3, 72, 0
4, 183840, Note_on_c, 3, 70, 80
4, 183959, Note_on_c, 3, 70, 0
4, 184080, Note_on_c, 3, 70, 80
4, 184199, Note_on_c, 3, 70, 0
4, 184320, Note_on_c, 3, 70, 80
4, 184439, Note_on_c, 3, 70, 0
4, 184560, Note_on_c, 3, 68, 80
4, 184679, Note_on_c, 3, 68, 0
4, 184800, Note_on_c, 3, 68, 80
4, 184919, Note_on_c, 3, 68, 0
4, 185040, Note_on_c, 3, 68, 80
4, 185159, Note_on_c, 3, 68, 0
4, 185280, Note_on_c, 3, 67, 80
4, 185399, Note_on_c, 3, 67, 0
4, 185520, Note_on_c, 3, 67, 80
4, 185639, Note_on_c, 3, 67, 0
4, 185760, Note_on_c, 3, 67, 80
4, 185879, Note_on_c, 3, 67, 0
4, 186000, Note_on_c, 3, 67, 80
4, 186119, Note_on_c, 3, 67, 0
4, 186240, Note_on_c, 3, 67, 80
4, 186359, Note_on_c, 3, 67, 0
4, 186480, Note_on_c, 3, 64, 80
4, 186599, Note_on_c, 3, 64, 0
4, 186720, Note_on_c, 3, 60, 80
4, 188879, Note_on_c, 3, 60, 0
4, 188880, Note_on_c, 3, 64, 96
4, 188999, Note_on_c, 3, 64, 0
4, 189120, Note_on_c, 3, 64, 96
4, 189239, Note_on_c, 3, 64, 0
4, 189360, Note_on_c, 3, 64, 96
4, 189479, Note_on_c, 3, 64, 0
4, 189600, Note_on_c, 3, 64, 96
4, 189719, Note_on_c, 3, 64, 0
4, 189840, Note_on_c, 3, 64, 96
4, 189959, Note_on_c, 3, 64, 0
4, 190080, Note_on_c, 3, 64, 96
4, 190199, Note_on_c, 3, 64, 0
4, 190320, Note_on_c, 3, 65, 96
4, 190439, Note_on_c, 3, 65, 0
4, 190560, Note_on_c, 3, 65, 96
4, 190679, Note_on_c, 3, 65, 0
4, 190800, Note_on_c, 3, 65, 96
4, 190919, Note_on_c, 3, 65, 0
4, 191040, Note_on_c, 3, 65, 96
4, 191159, Note_on_c, 3, 65, 0
4, 191280, Note_on_c, 3, 65, 96
4, 191399, Note_on_c, 3, 65, 0
4, 191520, Note_on_c, 3, 65, 96
4, 191639, Note_on_c, 3, 65, 0
4, 191760, Note_on_c, 3, 65, 96
4, 191879, Note_on_c, 3, 65, 0
4, 192000, Note_on_c, 3, 65, 96
4, 192119, Note_on_c, 3, 65, 0
4, 192240, Note_on_c, 3, 65, 96
4, 192359, Note_on_c, 3, 65, 0
4, 192480, Note_on_c, 3, 64, 96
4, 192599, Note_on_c, 3, 64, 0
4, 192720, Note_on_c, 3, 64, 96
4, 192839, Note_on_c, 3, 64, 0
4, 192960, Note_on_c, 3, 64, 96
4, 193079, Note_on_c, 3, 64, 0
4, 193200, Note_on_c, 3, 60, 96
4, 193439, Note_on_c, 3, 60, 0
4, 193440, Note_on_c, 3, 73, 96
4, 193559, Note_on_c, 3, 73, 0
4, 193560, Note_on_c, 3, 72, 96
4, 193679, Note_on_c, 3, 72, 0
4, 193680, Note_on_c, 3, 70, 96
4, 193799, Note_on_c, 3, 70, 0
4, 193800, Note_on_c, 3, 68, 96
4, 193919, Note_on_c, 3, 68, 0
4, 193920, Note_on_c, 3, 67, 96
4, 194039, Note_on_c, 3, 67, 0
4, 194040, Note_on_c, 3, 65, 96
4, 194159, Note_on_c, 3, 65, 0
4, 194160, Note_on_c, 3, 64, 96
4, 194279, Note_on_c, 3, 64, 0
4, 194280, Note_on_c, 3, 62, 96
4, 194399, Note_on_c, 3, 62, 0
4, 194400, Note_on_c, 3, 60, 96
4, 194519, Note_on_c, 3, 60, 0
4, 194520, Note_on_c, 3, 58, 96
4, 194639, Note_on_c, 3, 58, 0
4, 194640, Note_on_c, 3, 56, 96
4, 194879, Note_on_c, 3, 56, 0
4, 194880, Note_on_c, 3, 58, 96
4, 195119, Note_on_c, 3, 58, 0
4, 195120, Note_on_c, 3, 60, 96
4, 195359, Note_on_c, 3, 60, 0
4, 195360, Note_on_c, 3, 65, 96
4, 195599, Note_on_c, 3, 65, 0
4, 195600, Note_on_c, 3, 65, 96
4, 195839, Note_on_c, 3, 65, 0
4, 195840, Note_on_c, 3, 65, 96
4, 196079, Note_on_c, 3, 65, 0
4, 196080, Note_on_c, 3, 63, 96
4, 196319, Note_on_c, 3, 63, 0
4, 196320, Note_on_c, 3, 63, 96
4, 196559, Note_on_c, 3, 63, 0
4, 196560, Note_on_c, 3, 63, 96
4, 196799, Note_on_c, 3, 63, 0
4, 196800, Note_on_c, 3, 61, 96
4, 197039, Note_on_c, 3, 61, 0
4, 197040, Note_on_c, 3, 61, 96
4, 197279, Note_on_c, 3, 61, 0
4, 197280, Note_on_c, 3, 61, 96
4, 197519, Note_on_c, 3, 61, 0
4, 197520, Note_on_c, 3, 60, 96
4, 197759, Note_on_c, 3, 60, 0
4, 197760, Note_on_c, 3, 60, 96
4, 197999, Note_on_c, 3, 60, 0
4, 198000, Note_on_c, 3, 60, 96
4, 198239, Note_on_c, 3, 60, 0
4, 198240, Note_on_c, 3, 58, 96
4, 198479, Note_on_c, 3, 58, 0
4, 198480, Note_on_c, 3, 58, 96
4, 198719, Note_on_c, 3, 58, 0
4, 198720, Note_on_c, 3, 58, 96
4, 198959, Note_on_c, 3, 58, 0
4, 198960, Note_on_c, 3, 56, 96
4, 199199, Note_on_c, 3, 56, 0
4, 199200, Note_on_c, 3, 56, 96
4, 199439, Note_on_c, 3, 56, 0
4, 199440, Note_on_c, 3, 56, 96
4, 199679, Note_on_c, 3, 56, 0
4, 199680, Note_on_c, 3, 55, 96
4, 199919, Note_on_c, 3, 55, 0
4, 199920, Note_on_c, 3, 55, 96
4, 200159, Note_on_c, 3, 55, 0
4, 200160, Note_on_c, 3, 55, 96
4, 200399, Note_on_c, 3, 55, 0
4, 200400, Note_on_c, 3, 53, 96
4, 200639, Note_on_c, 3, 53, 0
4, 200640, Note_on_c, 3, 53, 96
4, 200879, Note_on_c, 3, 53, 0
4, 200880, Note_on_c, 3, 53, 96
4, 201119, Note_on_c, 3, 53, 0
4, 201120, Note_on_c, 3, 51, 96
4, 201359, Note_on_c, 3, 51, 0
4, 201360, Note_on_c, 3, 51, 96
4, 201599, Note_on_c, 3, 51, 0
4, 201600, Note_on_c, 3, 51, 96
4, 201839, Note_on_c, 3, 51, 0
4, 201840, Note_on_c, 3, 49, 96
4, 202079, Note_on_c, 3, 49, 0
4, 202080, Note_on_c, 3, 49, 96
4, 202319, Note_on_c, 3, 49, 0
4, 202320, Note_on_c, 3, 49, 96
4, 202559, Note_on_c, 3, 49, 0
4, 202560, Note_on_c, 3, 48, 49
4, 203039, Note_on_c, 3, 48, 0
4, 211800, Note_on_c, 3, 67, 49
4, 211919, Note_on_c, 3, 67, 0
4, 211920, Note_on_c, 3, 55, 49
4, 212159, Note_on_c, 3, 55, 0
4, 212520, Note_on_c, 3, 67, 49
4, 212639, Note_on_c, 3, 67, 0
4, 212640, Note_on_c, 3, 55, 49
4, 212879, Note_on_c, 3, 55, 0
4, 213240, Note_on_c, 3, 67, 49
4, 213359, Note_on_c, 3, 67, 0
4, 213360, Note_on_c, 3, 55, 49
4, 213599, Note_on_c, 3, 55, 0
4, 213960, Note_on_c, 3, 67, 49
4, 214079, Note_on_c, 3, 67, 0
4, 214080, Note_on_c, 3, 55, 49
4, 214319, Note_on_c, 3, 55, 0
4, 214680, Note_on_c, 3, 67, 49
4, 214799, Note_on_c, 3, 67, 0
4, 214800, Note_on_c, 3, 55, 49
4, 215039, Note_on_c, 3, 55, 0
4, 215400, Note_on_c, 3, 67, 49
4, 215519, Note_on_c, 3, 67, 0
4, 215520, Note_on_c, 3, 55, 49
4, 215759, Note_on_c, 3, 55, 0
4, 216120, Note_on_c, 3, 67, 49
4, 216239, Note_on_c, 3, 67, 0
4, 216240, Note_on_c, 3, 55, 49
4, 216479, Note_on_c, 3, 55, 0
4, 219840, Note_on_c, 3, 59, 96
4, 222719, Note_on_c, 3, 59, 0
4, 222720, Note_on_c, 3, 59, 96
4, 222959, Note_on_c, 3, 59, 0
4, 223260, Note_on_c, 3, 71, 96
4, 223319, Note_on_c, 3, 71, 0
4, 223320, Note_on_c, 3, 72, 96
4, 223379, Note_on_c, 3, 72, 0
4, 223380, Note_on_c, 3, 74, 96
4, 223439, Note_on_c, 3, 74, 0
4, 223440, Note_on_c, 3, 65, 96
4, 223679, Note_on_c, 3, 65, 0
4, 223980, Note_on_c, 3, 62, 96
4, 224039, Note_on_c, 3, 62, 0
4, 224040, Note_on_c, 3, 63, 96
4, 224099, Note_on_c, 3, 63, 0
4, 224100, Note_on_c, 3, 65, 96
4, 224159, Note_on_c, 3, 65, 0
4, 224160, Note_on_c, 3, 55, 96
4, 224399, Note_on_c, 3, 55, 0
4, 224700, Note_on_c, 3, 59, 96
4, 224759, Note_on_c, 3, 59, 0
4, 224760, Note_on_c, 3, 60, 96
4, 224819, Note_on_c, 3, 60, 0
4, 224820, Note_on_c, 3, 62, 96
4, 224879, Note_on_c, 3, 62, 0
4, 224880, Note_on_c, 3, 63, 96
4, 225119, Note_on_c, 3, 63, 0
4, 225120, Note_on_c, 3, 65, 96
4, 225359, Note_on_c, 3, 65, 0
4, 225360, Note_on_c, 3, 67, 96
4, 225599, Note_on_c, 3, 67, 0
4, 225600, Note_on_c, 3, 60, 96
4, 226079, Note_on_c, 3, 60, 0
4, 231360, Note_on_c, 3, 60, 96
4, 231479, Note_on_c, 3, 60, 0
4, 231480, Note_on_c, 3, 62, 96
4, 231599, Note_on_c, 3, 62, 0
4, 231600, Note_on_c, 3, 63, 96
4, 231719, Note_on_c, 3, 63, 0
4, 231720, Note_on_c, 3, 65, 96
4, 231839, Note_on_c, 3, 65, 0
4, 231840, Note_on_c, 3, 67, 96
4, 231959, Note_on_c, 3, 67, 0
4, 231960, Note_on_c, 3, 68, 96
4, 232079, Note_on_c, 3, 68, 0
4, 232080, Note_on_c, 3, 70, 96
4, 232559, Note_on_c, 3, 70, 0
4, 232560, Note_on_c, 3, 58, 96
4, 232799, Note_on_c, 3, 58, 0
4, 232800, Note_on_c, 3, 63, 96
4, 232919, Note_on_c, 3, 63, 0
4, 232920, Note_on_c, 3, 65, 96
4, 233039, Note_on_c, 3, 65, 0
4, 233040, Note_on_c, 3, 67, 96
4, 233279, Note_on_c, 3, 67, 0
4, 233280, Note_on_c, 3, 68, 96
4, 233519, Note_on_c, 3, 68, 0
4, 233520, Note_on_c, 3, 70, 96
4, 233999, Note_on_c, 3, 70, 0
4, 234000, Note_on_c, 3, 58, 96
4, 234239, Note_on_c, 3, 58, 0
4, 234240, Note_on_c, 3, 63, 96
4, 234719, Note_on_c, 3, 63, 0
4, 234720, Note_on_c, 3, 63, 96
4, 234959, Note_on_c, 3, 63, 0
4, 234960, Note_on_c, 3, 58, 96
4, 235199, Note_on_c, 3, 58, 0
4, 235680, Note_on_c, 3, 63, 96
4, 235919, Note_on_c, 3, 63, 0
4, 236400, Note_on_c, 3, 58, 96
4, 236639, Note_on_c, 3, 58, 0
4, 237120, Note_on_c, 3, 58, 96
4, 237359, Note_on_c, 3, 58, 0
4, 237360, Note_on_c, 3, 63, 96
4, 237599, Note_on_c, 3, 63, 0
4, 237840, Note_on_c, 3, 63, 96
4, 238079, Note_on_c, 3, 63, 0
4, 238080, Note_on_c, 3, 58, 96
4, 238319, Note_on_c, 3, 58, 0
4, 238560, Note_on_c, 3, 63, 96
4, 238799, Note_on_c, 3, 63, 0
4, 238800, Note_on_c, 3, 65, 96
4, 239039, Note_on_c, 3, 65, 0
4, 239280, Note_on_c, 3, 62, 96
4, 239519, Note_on_c, 3, 62, 0
4, 239520, Note_on_c, 3, 63, 96
4, 239759, Note_on_c, 3, 63, 0
4, 240000, Note_on_c, 3, 67, 96
4, 240239, Note_on_c, 3, 67, 0
4, 240240, Note_on_c, 3, 65, 96
4, 240479, Note_on_c, 3, 65, 0
4, 240480, Note_on_c, 3, 63, 96
4, 240719, Note_on_c, 3, 63, 0
4, 240960, Note_on_c, 3, 68, 96
4, 241199, Note_on_c, 3, 68, 0
4, 241200, Note_on_c, 3, 56, 96
4, 241439, Note_on_c, 3, 56, 0
4, 241680, Note_on_c, 3, 68, 96
4, 241919, Note_on_c, 3, 68, 0
4, 241920, Note_on_c, 3, 70, 96
4, 242159, Note_on_c, 3, 70, 0
4, 242160, Note_on_c, 3, 63, 96
4, 242639, Note_on_c, 3, 63, 0
4, 242880, Note_on_c, 3, 67, 49
4, 243119, Note_on_c, 3, 67, 0
4, 243120, Note_on_c, 3, 65, 49
4, 243359, Note_on_c, 3, 65, 0
4, 243360, Note_on_c, 3, 63, 49
4, 243599, Note_on_c, 3, 63, 0
4, 243840, Note_on_c, 3, 68, 49
4, 244079, Note_on_c, 3, 68, 0
4, 244080, Note_on_c, 3, 56, 49
4, 244319, Note_on_c, 3, 56, 0
4, 244560, Note_on_c, 3, 68, 49
4, 244799, Note_on_c, 3, 68, 0
4, 244800, Note_on_c, 3, 70, 49
4, 245039, Note_on_c, 3, 70, 0
4, 245040, Note_on_c, 3, 63, 49
4, 245519, Note_on_c, 3, 63, 0
4, 247920, Note_on_c, 3, 70, 96
4, 247979, Note_on_c, 3, 70, 0
4, 247980, Note_on_c, 3, 70, 96
4, 248039, Note_on_c, 3, 70, 0
4, 248040, Note_on_c, 3, 70, 96
4, 248099, Note_on_c, 3, 70, 0
4, 248100, Note_on_c, 3, 70, 96
4, 248159, Note_on_c, 3, 70, 0
4, 248160, Note_on_c, 3, 70, 96
4, 248219, Note_on_c, 3, 70, 0
4, 248220, Note_on_c, 3, 70, 96
4, 248279, Note_on_c, 3, 70, 0
4, 248280, Note_on_c, 3, 70, 96
4, 248339, Note_on_c, 3, 70, 0
4, 248340, Note_on_c, 3, 70, 96
4, 248399, Note_on_c, 3, 70, 0
4, 248400, Note_on_c, 3, 70, 96
4, 248459, Note_on_c, 3, 70, 0
4, 248460, Note_on_c, 3, 70, 96
4, 248519, Note_on_c, 3, 70, 0
4, 248520, Note_on_c, 3, 70, 96
4, 248579, Note_on_c, 3, 70, 0
4, 248580, Note_on_c, 3, 70, 96
4, 248639, Note_on_c, 3, 70, 0
4, 248640, Note_on_c, 3, 70, 96
4, 249119, Note_on_c, 3, 70, 0
4, 250080, Note_on_c, 3, 72, 96
4, 250139, Note_on_c, 3, 72, 0
4, 250140, Note_on_c, 3, 72, 96
4, 250199, Note_on_c, 3, 72, 0
4, 250200, Note_on_c, 3, 72, 96
4, 250259, Note_on_c, 3, 72, 0
4, 250260, Note_on_c, 3, 72, 96
4, 250319, Note_on_c, 3, 72, 0
4, 250320, Note_on_c, 3, 72, 96
4, 250379, Note_on_c, 3, 72, 0
4, 250380, Note_on_c, 3, 72, 96
4, 250439, Note_on_c, 3, 72, 0
4, 250440, Note_on_c, 3, 72, 96
4, 250499, Note_on_c, 3, 72, 0
4, 250500, Note_on_c, 3, 72, 96
4, 250559, Note_on_c, 3, 72, 0
4, 250560, Note_on_c, 3, 72, 96
4, 250619, Note_on_c, 3, 72, 0
4, 250620, Note_on_c, 3, 72, 96
4, 250679, Note_on_c, 3, 72, 0
4, 250680, Note_on_c, 3, 72, 96
4, 250739, Note_on_c, 3, 72, 0
4, 250740, Note_on_c, 3, 72, 96
4, 250799, Note_on_c, 3, 72, 0
4, 250800, Note_on_c, 3, 72, 96
4, 251279, Note_on_c, 3, 72, 0
4, 251520, Note_on_c, 3, 70, 96
4, 251579, Note_on_c, 3, 70, 0
4, 251580, Note_on_c, 3, 70, 96
4, 251639, Note_on_c, 3, 70, 0
4, 251640, Note_on_c, 3, 70, 96
4, 251699, Note_on_c, 3, 70, 0
4, 251700, Note_on_c, 3, 70, 96
4, 251759, Note_on_c, 3, 70, 0
4, 251760, Note_on_c, 3, 70, 96
4, 251819, Note_on_c, 3, 70, 0
4, 251820, Note_on_c, 3, 70, 96
4, 251879, Note_on_c, 3, 70, 0
4, 251880, Note_on_c, 3, 70, 96
4, 251939, Note_on_c, 3, 70, 0
4, 251940, Note_on_c, 3, 70, 96
4, 251999, Note_on_c, 3, 70, 0
4, 252000, Note_on_c, 3, 70, 96
4, 252059, Note_on_c, 3, 70, 0
4, 252060, Note_on_c, 3, 70, 96
4, 252119, Note_on_c, 3, 70, 0
4, 252120, Note_on_c, 3, 70, 96
4, 252179, Note_on_c, 3, 70, 0
4, 252180, Note_on_c, 3, 70, 96
4, 252239, Note_on_c, 3, 70, 0
4, 252240, Note_on_c, 3, 67, 96
4, 252719, Note_on_c, 3, 67, 0
4, 252960, Note_on_c, 3, 72, 96
4, 253019, Note_on_c, 3, 72, 0
4, 253020, Note_on_c, 3, 72, 96
4, 253079, Note_on_c, 3, 72, 0
4, 253080, Note_on_c, 3, 72, 96
4, 253139, Note_on_c, 3, 72, 0
4, 253140, Note_on_c, 3, 72, 96
4, 253199, Note_on_c, 3, 72, 0
4, 253200, Note_on_c, 3, 72, 96
4, 253259, Note_on_c, 3, 72, 0
4, 253260, Note_on_c, 3, 72, 96
4, 253319, Note_on_c, 3, 72, 0
4, 253320, Note_on_c, 3, 72, 96
4, 253379, Note_on_c, 3, 72, 0
4, 253380, Note_on_c, 3, 72, 96
4, 253439, Note_on_c, 3, 72, 0
4, 253440, Note_on_c, 3, 72, 96
4, 253499, Note_on_c, 3, 72, 0
4, 253500, Note_on_c, 3, 72, 96
4, 253559, Note_on_c, 3, 72, 0
4, 253560, Note_on_c, 3, 72, 96
4, 253619, Note_on_c, 3, 72, 0
4, 253620, Note_on_c, 3, 72, 96
4, 253679, Note_on_c, 3, 72, 0
4, 253680, Note_on_c, 3, 68, 96
4, 254159, Note_on_c, 3, 68, 0
4, 254400, Note_on_c, 3, 73, 96
4, 254459, Note_on_c, 3, 73, 0
4, 254460, Note_on_c, 3, 73, 96
4, 254519, Note_on_c, 3, 73, 0
4, 254520, Note_on_c, 3, 73, 96
4, 254579, Note_on_c, 3, 73, 0
4, 254580, Note_on_c, 3, 73, 96
4, 254639, Note_on_c, 3, 73, 0
4, 254640, Note_on_c, 3, 73, 96
4, 254699, Note_on_c, 3, 73, 0
4, 254700, Note_on_c, 3, 73, 96
4, 254759, Note_on_c, 3, 73, 0
4, 254760, Note_on_c, 3, 73, 96
4, 254819, Note_on_c, 3, 73, 0
4, 254820, Note_on_c, 3, 73, 96
4, 254879, Note_on_c, 3, 73, 0
4, 254880, Note_on_c, 3, 73, 96
4, 254939, Note_on_c, 3, 73, 0
4, 254940, Note_on_c, 3, 73, 96
4, 254999, Note_on_c, 3, 73, 0
4, 255000, Note_on_c, 3, 73, 96
4, 255059, Note_on_c, 3, 73, 0
4, 255060, Note_on_c, 3, 73, 96
4, 255119, Note_on_c, 3, 73, 0
4, 255120, Note_on_c, 3, 70, 96
4, 255599, Note_on_c, 3, 70, 0
4, 255840, Note_on_c, 3, 67, 96
4, 255899, Note_on_c, 3, 67, 0
4, 255900, Note_on_c, 3, 67, 96
4, 255959, Note_on_c, 3, 67, 0
4, 255960, Note_on_c, 3, 67, 96
4, 256019, Note_on_c, 3, 67, 0
4, 256020, Note_on_c, 3, 67, 96
4, 256079, Note_on_c, 3, 67, 0
4, 256080, Note_on_c, 3, 67, 96
4, 256139, Note_on_c, 3, 67, 0
4, 256140, Note_on_c, 3, 67, 96
4, 256199, Note_on_c, 3, 67, 0
4, 256200, Note_on_c, 3, 67, 96
4, 256259, Note_on_c, 3, 67, 0
4, 256260, Note_on_c, 3, 67, 96
4, 256319, Note_on_c, 3, 67, 0
4, 256320, Note_on_c, 3, 64, 96
4, 256379, Note_on_c, 3, 64, 0
4, 256380, Note_on_c, 3, 64, 96
4, 256439, Note_on_c, 3, 64, 0
4, 256440, Note_on_c, 3, 64, 96
4, 256499, Note_on_c, 3, 64, 0
4, 256500, Note_on_c, 3, 64, 96
4, 256559, Note_on_c, 3, 64, 0
4, 256560, Note_on_c, 3, 64, 96
4, 257039, Note_on_c, 3, 64, 0
4, 257280, Note_on_c, 3, 72, 96
4, 257339, Note_on_c, 3, 72, 0
4, 257340, Note_on_c, 3, 72, 96
4, 257399, Note_on_c, 3, 72, 0
4, 257400, Note_on_c, 3, 72, 96
4, 257459, Note_on_c, 3, 72, 0
4, 257460, Note_on_c, 3, 72, 96
4, 257519, Note_on_c, 3, 72, 0
4, 257520, Note_on_c, 3, 72, 96
4, 257579, Note_on_c, 3, 72, 0
4, 257580, Note_on_c, 3, 72, 96
4, 257639, Note_on_c, 3, 72, 0
4, 257640, Note_on_c, 3, 72, 96
4, 257699, Note_on_c, 3, 72, 0
4, 257700, Note_on_c, 3, 72, 96
4, 257759, Note_on_c, 3, 72, 0
4, 257760, Note_on_c, 3, 72, 96
4, 257819, Note_on_c, 3, 72, 0
4, 257820, Note_on_c, 3, 72, 96
4, 257879, Note_on_c, 3, 72, 0
4, 257880, Note_on_c, 3, 72, 96
4, 257939, Note_on_c, 3, 72, 0
4, 257940, Note_on_c, 3, 72, 96
4, 257999, Note_on_c, 3, 72, 0
4, 258000, Note_on_c, 3, 72, 96
4, 258479, Note_on_c, 3, 72, 0
4, 259440, Note_on_c, 3, 60, 96
4, 259499, Note_on_c, 3, 60, 0
4, 259500, Note_on_c, 3, 60, 96
4, 259559, Note_on_c, 3, 60, 0
4, 259560, Note_on_c, 3, 60, 96
4, 259619, Note_on_c, 3, 60, 0
4, 259620, Note_on_c, 3, 60, 96
4, 259679, Note_on_c, 3, 60, 0
4, 259680, Note_on_c, 3, 60, 96
4, 259739, Note_on_c, 3, 60, 0
4, 259740, Note_on_c, 3, 60, 96
4, 259799, Note_on_c, 3, 60, 0
4, 259800, Note_on_c, 3, 60, 96
4, 259859, Note_on_c, 3, 60, 0
4, 259860, Note_on_c, 3, 60, 96
4, 259919, Note_on_c, 3, 60, 0
4, 259920, Note_on_c, 3, 60, 96
4, 259979, Note_on_c, 3, 60, 0
4, 259980, Note_on_c, 3, 60, 96
4, 260039, Note_on_c, 3, 60, 0
4, 260040, Note_on_c, 3, 60, 96
4, 260099, Note_on_c, 3, 60, 0
4, 260100, Note_on_c, 3, 60, 96
4, 260159, Note_on_c, 3, 60, 0
4, 260160, Note_on_c, 3, 58, 96
4, 260219, Note_on_c, 3, 58, 0
4, 260220, Note_on_c, 3, 58, 96
4, 260279, Note_on_c, 3, 58, 0
4, 260280, Note_on_c, 3, 58, 96
4, 260339, Note_on_c, 3, 58, 0
4, 260340, Note_on_c, 3, 58, 96
4, 260399, Note_on_c, 3, 58, 0
4, 260400, Note_on_c, 3, 58, 96
4, 260459, Note_on_c, 3, 58, 0
4, 260460, Note_on_c, 3, 58, 96
4, 260519, Note_on_c, 3, 58, 0
4, 260520, Note_on_c, 3, 58, 96
4, 260579, Note_on_c, 3, 58, 0
4, 260580, Note_on_c, 3, 58, 96
4, 260639, Note_on_c, 3, 58, 0
4, 260640, Note_on_c, 3, 58, 96
4, 260699, Note_on_c, 3, 58, 0
4, 260700, Note_on_c, 3, 58, 96
4, 260759, Note_on_c, 3, 58, 0
4, 260760, Note_on_c, 3, 58, 96
4, 260819, Note_on_c, 3, 58, 0
4, 260820, Note_on_c, 3, 58, 96
4, 260879, Note_on_c, 3, 58, 0
4, 260880, Note_on_c, 3, 60, 96
4, 260939, Note_on_c, 3, 60, 0
4, 260940, Note_on_c, 3, 60, 96
4, 260999, Note_on_c, 3, 60, 0
4, 261000, Note_on_c, 3, 60, 96
4, 261059, Note_on_c, 3, 60, 0
4, 261060, Note_on_c, 3, 60, 96
4, 261119, Note_on_c, 3, 60, 0
4, 261120, Note_on_c, 3, 60, 96
4, 261179, Note_on_c, 3, 60, 0
4, 261180, Note_on_c, 3, 60, 96
4, 261239, Note_on_c, 3, 60, 0
4, 261240, Note_on_c, 3, 60, 96
4, 261299, Note_on_c, 3, 60, 0
4, 261300, Note_on_c, 3, 60, 96
4, 261359, Note_on_c, 3, 60, 0
4, 261360, Note_on_c, 3, 60, 96
4, 261419, Note_on_c, 3, 60, 0
4, 261420, Note_on_c, 3, 60, 96
4, 261479, Note_on_c, 3, 60, 0
4, 261480, Note_on_c, 3, 60, 96
4, 261539, Note_on_c, 3, 60, 0
4, 261540, Note_on_c, 3, 60, 96
4, 261599, Note_on_c, 3, 60, 0
4, 261600, Note_on_c, 3, 60, 96
4, 261659, Note_on_c, 3, 60, 0
4, 261660, Note_on_c, 3, 60, 96
4, 261719, Note_on_c, 3, 60, 0
4, 261720, Note_on_c, 3, 60, 96
4, 261779, Note_on_c, 3, 60, 0
4, 261780, Note_on_c, 3, 60, 96
4, 261839, Note_on_c, 3, 60, 0
4, 261840, Note_on_c, 3, 60, 96
4, 261899, Note_on_c, 3, 60, 0
4, 261900, Note_on_c, 3, 60, 96
4, 261959, Note_on_c, 3, 60, 0
4, 261960, Note_on_c, 3, 60, 96
4, 262019, Note_on_c, 3, 60, 0
4, 262020, Note_on_c, 3, 60, 96
4, 262079, Note_on_c, 3, 60, 0
4, 262080, Note_on_c, 3, 60, 96
4, 262139, Note_on_c, 3, 60, 0
4, 262140, Note_on_c, 3, 60, 96
4, 262199, Note_on_c, 3, 60, 0
4, 262200, Note_on_c, 3, 60, 96
4, 262259, Note_on_c, 3, 60, 0
4, 262260, Note_on_c, 3, 60, 96
4, 262319, Note_on_c, 3, 60, 0
4, 262320, Note_on_c, 3, 60, 96
4, 262379, Note_on_c, 3, 60, 0
4, 262380, Note_on_c, 3, 60, 96
4, 262439, Note_on_c, 3, 60, 0
4, 262440, Note_on_c, 3, 60, 96
4, 262499, Note_on_c, 3, 60, 0
4, 262500, Note_on_c, 3, 60, 96
4, 262559, Note_on_c, 3, 60, 0
4, 262560, Note_on_c, 3, 60, 96
4, 262619, Note_on_c, 3, 60, 0
4, 262620, Note_on_c, 3, 60, 96
4, 262679, Note_on_c, 3, 60, 0
4, 262680, Note_on_c, 3, 60, 96
4, 262739, Note_on_c, 3, 60, 0
4, 262740, Note_on_c, 3, 60, 96
4, 262799, Note_on_c, 3, 60, 0
4, 262800, Note_on_c, 3, 60, 96
4, 262859, Note_on_c, 3, 60, 0
4, 262860, Note_on_c, 3, 60, 96
4, 262919, Note_on_c, 3, 60, 0
4, 262920, Note_on_c, 3, 60, 96
4, 262979, Note_on_c, 3, 60, 0
4, 262980, Note_on_c, 3, 60, 96
4, 263039, Note_on_c, 3, 60, 0
4, 263040, Note_on_c, 3, 56, 96
4, 263099, Note_on_c, 3, 56, 0
4, 263100, Note_on_c, 3, 56, 96
4, 263159, Note_on_c, 3, 56, 0
4, 263160, Note_on_c, 3, 56, 96
4, 263219, Note_on_c, 3, 56, 0
4, 263220, Note_on_c, 3, 56, 96
4, 263279, Note_on_c, 3, 56, 0
4, 263280, Note_on_c, 3, 60, 96
4, 263339, Note_on_c, 3, 60, 0
4, 263340, Note_on_c, 3, 60, 96
4, 263399, Note_on_c, 3, 60, 0
4, 263400, Note_on_c, 3, 60, 96
4, 263459, Note_on_c, 3, 60, 0
4, 263460, Note_on_c, 3, 60, 96
4, 263519, Note_on_c, 3, 60, 0
4, 263520, Note_on_c, 3, 65, 96
4, 263579, Note_on_c, 3, 65, 0
4, 263580, Note_on_c, 3, 65, 96
4, 263639, Note_on_c, 3, 65, 0
4, 263640, Note_on_c, 3, 65, 96
4, 263699, Note_on_c, 3, 65, 0
4, 263700, Note_on_c, 3, 65, 96
4, 263759, Note_on_c, 3, 65, 0
4, 263760, Note_on_c, 3, 60, 96
4, 264239, Note_on_c, 3, 60, 0
4, 265200, Note_on_c, 3, 60, 96
4, 265259, Note_on_c, 3, 60, 0
4, 265260, Note_on_c, 3, 60, 96
4, 265319, Note_on_c, 3, 60, 0
4, 265320, Note_on_c, 3, 60, 96
4, 265379, Note_on_c, 3, 60, 0
4, 265380, Note_on_c, 3, 60, 96
4, 265439, Note_on_c, 3, 60, 0
4, 265440, Note_on_c, 3, 60, 96
4, 265499, Note_on_c, 3, 60, 0
4, 265500, Note_on_c, 3, 60, 96
4, 265559, Note_on_c, 3, 60, 0
4, 265560, Note_on_c, 3, 60, 96
4, 265619, Note_on_c, 3, 60, 0
4, 265620, Note_on_c, 3, 60, 96
4, 265679, Note_on_c, 3, 60, 0
4, 265680, Note_on_c, 3, 60, 96
4, 265739, Note_on_c, 3, 60, 0
4, 265740, Note_on_c, 3, 60, 96
4, 265799, Note_on_c, 3, 60, 0
4, 265800, Note_on_c, 3, 60, 96
4, 265859, Note_on_c, 3, 60, 0
4, 265860, Note_on_c, 3, 60, 96
4, 265919, Note_on_c, 3, 60, 0
4, 265920, Note_on_c, 3, 58, 96
4, 265979, Note_on_c, 3, 58, 0
4, 265980, Note_on_c, 3, 58, 96
4, 266039, Note_on_c, 3, 58, 0
4, 266040, Note_on_c, 3, 58, 96
4, 266099, Note_on_c, 3, 58, 0
4, 266100, Note_on_c, 3, 58, 96
4, 266159, Note_on_c, 3, 58, 0
4, 266160, Note_on_c, 3, 58, 96
4, 266219, Note_on_c, 3, 58, 0
4, 266220, Note_on_c, 3, 58, 96
4, 266279, Note_on_c, 3, 58, 0
4, 266280, Note_on_c, 3, 58, 96
4, 266339, Note_on_c, 3, 58, 0
4, 266340, Note_on_c, 3, 58, 96
4, 266399, Note_on_c, 3, 58, 0
4, 266400, Note_on_c, 3, 58, 96
4, 266459, Note_on_c, 3, 58, 0
4, 266460, Note_on_c, 3, 58, 96
4, 266519, Note_on_c, 3, 58, 0
4, 266520, Note_on_c, 3, 58, 96
4, 266579, Note_on_c, 3, 58, 0
4, 266580, Note_on_c, 3, 58, 96
4, 266639, Note_on_c, 3, 58, 0
4, 266640, Note_on_c, 3, 60, 96
4, 266699, Note_on_c, 3, 60, 0
4, 266700, Note_on_c, 3, 60, 96
4, 266759, Note_on_c, 3, 60, 0
4, 266760, Note_on_c, 3, 60, 96
4, 266819, Note_on_c, 3, 60, 0
4, 266820, Note_on_c, 3, 60, 96
4, 266879, Note_on_c, 3, 60, 0
4, 266880, Note_on_c, 3, 60, 96
4, 266939, Note_on_c, 3, 60, 0
4, 266940, Note_on_c, 3, 60, 96
4, 266999, Note_on_c, 3, 60, 0
4, 267000, Note_on_c, 3, 60, 96
4, 267059, Note_on_c, 3, 60, 0
4, 267060, Note_on_c, 3, 60, 96
4, 267119, Note_on_c, 3, 60, 0
4, 267120, Note_on_c, 3, 60, 96
4, 267179, Note_on_c, 3, 60, 0
4, 267180, Note_on_c, 3, 60, 96
4, 267239, Note_on_c, 3, 60, 0
4, 267240, Note_on_c, 3, 60, 96
4, 267299, Note_on_c, 3, 60, 0
4, 267300, Note_on_c, 3, 60, 96
4, 267359, Note_on_c, 3, 60, 0
4, 267360, Note_on_c, 3, 60, 96
4, 267419, Note_on_c, 3, 60, 0
4, 267420, Note_on_c, 3, 60, 96
4, 267479, Note_on_c, 3, 60, 0
4, 267480, Note_on_c, 3, 60, 96
4, 267539, Note_on_c, 3, 60, 0
4, 267540, Note_on_c, 3, 60, 96
4, 267599, Note_on_c, 3, 60, 0
4, 267600, Note_on_c, 3, 60, 96
4, 267659, Note_on_c, 3, 60, 0
4, 267660, Note_on_c, 3, 60, 96
4, 267719, Note_on_c, 3, 60, 0
4, 267720, Note_on_c, 3, 60, 96
4, 267779, Note_on_c, 3, 60, 0
4, 267780, Note_on_c, 3, 60, 96
4, 267839, Note_on_c, 3, 60, 0
4, 267840, Note_on_c, 3, 60, 96
4, 267899, Note_on_c, 3, 60, 0
4, 267900, Note_on_c, 3, 60, 96
4, 267959, Note_on_c, 3, 60, 0
4, 267960, Note_on_c, 3, 60, 96
4, 268019, Note_on_c, 3, 60, 0
4, 268020, Note_on_c, 3, 60, 96
4, 268079, Note_on_c, 3, 60, 0
4, 268080, Note_on_c, 3, 60, 96
4, 268139, Note_on_c, 3, 60, 0
4, 268140, Note_on_c, 3, 60, 96
4, 268199, Note_on_c, 3, 60, 0
4, 268200, Note_on_c, 3, 60, 96
4, 268259, Note_on_c, 3, 60, 0
4, 268260, Note_on_c, 3, 60, 96
4, 268319, Note_on_c, 3, 60, 0
4, 268320, Note_on_c, 3, 60, 96
4, 268379, Note_on_c, 3, 60, 0
4, 268380, Note_on_c, 3, 60, 96
4, 268439, Note_on_c, 3, 60, 0
4, 268440, Note_on_c, 3, 60, 96
4, 268499, Note_on_c, 3, 60, 0
4, 268500, Note_on_c, 3, 60, 96
4, 268559, Note_on_c, 3, 60, 0
4, 268560, Note_on_c, 3, 60, 96
4, 268619, Note_on_c, 3, 60, 0
4, 268620, Note_on_c, 3, 60, 96
4, 268679, Note_on_c, 3, 60, 0
4, 268680, Note_on_c, 3, 60, 96
4, 268739, Note_on_c, 3, 60, 0
4, 268740, Note_on_c, 3, 60, 96
4, 268799, Note_on_c, 3, 60, 0
4, 268800, Note_on_c, 3, 56, 96
4, 269519, Note_on_c, 3, 56, 0
4, 269520, End_track
5, 0, Start_track
5, 0, Key_signature, -4, "major"
5, 0, Program_c, 4, 42
5, 0, Note_on_c, 4, 53, 80
5, 2, Control_c, 4, 7, 100
5, 4, Control_c, 4, 10, 64
5, 6, Control_c, 4, 91, 30
5, 8, Control_c, 4, 93, 30
5, 119, Note_on_c, 4, 53, 0
5, 240, Note_on_c, 4, 53, 80
5, 359, Note_on_c, 4, 53, 0
5, 480, Note_on_c, 4, 53, 80
5, 599, Note_on_c, 4, 53, 0
5, 720, Note_on_c, 4, 53, 80
5, 839, Note_on_c, 4, 53, 0
5, 960, Note_on_c, 4, 53, 80
5, 1079, Note_on_c, 4, 53, 0
5, 1200, Note_on_c, 4, 53, 80
5, 1319, Note_on_c, 4, 53, 0
5, 1440, Note_on_c, 4, 53, 80
5, 1559, Note_on_c, 4, 53, 0
5, 1680, Note_on_c, 4, 53, 80
5, 1799, Note_on_c, 4, 53, 0
5, 1920, Note_on_c, 4, 53, 80
5, 2039, Note_on_c, 4, 53, 0
5, 2160, Note_on_c, 4, 53, 80
5, 2279, Note_on_c, 4, 53, 0
5, 2400, Note_on_c, 4, 53, 80
5, 2519, Note_on_c, 4, 53, 0
5, 2640, Note_on_c, 4, 53, 80
5, 2759, Note_on_c, 4, 53, 0
5, 2880, Note_on_c, 4, 53, 80
5, 2999, Note_on_c, 4, 53, 0
5, 3120, Note_on_c, 4, 53, 80
5, 3239, Note_on_c, 4, 53, 0
5, 3360, Note_on_c, 4, 53, 80
5, 3479, Note_on_c, 4, 53, 0
5, 3600, Note_on_c, 4, 53, 80
5, 3719, Note_on_c, 4, 53, 0
5, 3840, Note_on_c, 4, 53, 80
5, 3959, Note_on_c, 4, 53, 0
5, 4080, Note_on_c, 4, 53, 80
5, 4199, Note_on_c, 4, 53, 0
5, 4320, Note_on_c, 4, 53, 80
5, 4439, Note_on_c, 4, 53, 0
5, 4560, Note_on_c, 4, 53, 80
5, 4679, Note_on_c, 4, 53, 0
5, 4800, Note_on_c, 4, 53, 80
5, 4919, Note_on_c, 4, 53, 0
5, 5040, Note_on_c, 4, 53, 80
5, 5159, Note_on_c, 4, 53, 0
5, 5280, Note_on_c, 4, 53, 80
5, 5399, Note_on_c, 4, 53, 0
5, 5520, Note_on_c, 4, 53, 80
5, 5639, Note_on_c, 4, 53, 0
5, 5760, Note_on_c, 4, 53, 80
5, 5879, Note_on_c, 4, 53, 0
5, 6000, Note_on_c, 4, 53, 80
5, 6119, Note_on_c, 4, 53, 0
5, 6240, Note_on_c, 4, 53, 80
5, 6359, Note_on_c, 4, 53, 0
5, 6480, Note_on_c, 4, 53, 80
5, 6599, Note_on_c, 4, 53, 0
5, 6720, Note_on_c, 4, 53, 80
5, 6839, Note_on_c, 4, 53, 0
5, 6960, Note_on_c, 4, 53, 80
5, 7079, Note_on_c, 4, 53, 0
5, 7200, Note_on_c, 4, 53, 80
5, 7319, Note_on_c, 4, 53, 0
5, 7440, Note_on_c, 4, 53, 80
5, 7559, Note_on_c, 4, 53, 0
5, 7680, Note_on_c, 4, 52, 80
5, 7799, Note_on_c, 4, 52, 0
5, 7920, Note_on_c, 4, 52, 80
5, 8039, Note_on_c, 4, 52, 0
5, 8160, Note_on_c, 4, 52, 80
5, 8279, Note_on_c, 4, 52, 0
5, 8400, Note_on_c, 4, 52, 80
5, 8519, Note_on_c, 4, 52, 0
5, 8640, Note_on_c, 4, 52, 80
5, 8759, Note_on_c, 4, 52, 0
5, 8880, Note_on_c, 4, 52, 80
5, 8999, Note_on_c, 4, 52, 0
5, 9120, Note_on_c, 4, 52, 80
5, 9239, Note_on_c, 4, 52, 0
5, 9360, Note_on_c, 4, 52, 80
5, 9479, Note_on_c, 4, 52, 0
5, 9600, Note_on_c, 4, 53, 80
5, 9719, Note_on_c, 4, 53, 0
5, 9840, Note_on_c, 4, 53, 80
5, 9959, Note_on_c, 4, 53, 0
5, 10080, Note_on_c, 4, 53, 80
5, 10199, Note_on_c, 4, 53, 0
5, 10320, Note_on_c, 4, 53, 80
5, 10439, Note_on_c, 4, 53, 0
5, 10560, Note_on_c, 4, 53, 80
5, 10679, Note_on_c, 4, 53, 0
5, 10800, Note_on_c, 4, 53, 80
5, 10919, Note_on_c, 4, 53, 0
5, 11040, Note_on_c, 4, 53, 80
5, 11159, Note_on_c, 4, 53, 0
5, 11280, Note_on_c, 4, 53, 80
5, 11399, Note_on_c, 4, 53, 0
5, 11520, Note_on_c, 4, 53, 80
5, 11639, Note_on_c, 4, 53, 0
5, 11760, Note_on_c, 4, 53, 80
5, 11879, Note_on_c, 4, 53, 0
5, 12000, Note_on_c, 4, 53, 80
5, 12119, Note_on_c, 4, 53, 0
5, 12240, Note_on_c, 4, 53, 80
5, 12359, Note_on_c, 4, 53, 0
5, 12480, Note_on_c, 4, 53, 80
5, 12599, Note_on_c, 4, 53, 0
5, 12720, Note_on_c, 4, 53, 80
5, 12839, Note_on_c, 4, 53, 0
5, 12960, Note_on_c, 4, 53, 80
5, 13079, Note_on_c, 4, 53, 0
5, 13200, Note_on_c, 4, 53, 80
5, 13319, Note_on_c, 4, 53, 0
5, 13440, Note_on_c, 4, 53, 80
5, 13559, Note_on_c, 4, 53, 0
5, 13680, Note_on_c, 4, 53, 80
5, 13799, Note_on_c, 4, 53, 0
5, 13920, Note_on_c, 4, 53, 80
5, 14039, Note_on_c, 4, 53, 0
5, 14160, Note_on_c, 4, 53, 80
5, 14279, Note_on_c, 4, 53, 0
5, 14400, Note_on_c, 4, 53, 80
5, 14519, Note_on_c, 4, 53, 0
5, 14640, Note_on_c, 4, 53, 80
5, 14759, Note_on_c, 4, 53, 0
5, 14880, Note_on_c, 4, 53, 80
5, 14999, Note_on_c, 4, 53, 0
5, 15120, Note_on_c, 4, 53, 80
5, 15239, Note_on_c, 4, 53, 0
5, 15360, Note_on_c, 4, 53, 80
5, 15479, Note_on_c, 4, 53, 0
5, 15600, Note_on_c, 4, 53, 80
5, 15719, Note_on_c, 4, 53, 0
5, 15840, Note_on_c, 4, 53, 80
5, 15959, Note_on_c, 4, 53, 0
5, 16080, Note_on_c, 4, 53, 80
5, 16199, Note_on_c, 4, 53, 0
5, 16320, Note_on_c, 4, 53, 80
5, 16439, Note_on_c, 4, 53, 0
5, 16560, Note_on_c, 4, 53, 80
5, 16679, Note_on_c, 4, 53, 0
5, 16800, Note_on_c, 4, 53, 80
5, 16919, Note_on_c, 4, 53, 0
5, 17040, Note_on_c, 4, 53, 80
5, 17159, Note_on_c, 4, 53, 0
5, 17280, Note_on_c, 4, 54, 80
5, 17399, Note_on_c, 4, 54, 0
5, 17520, Note_on_c, 4, 54, 80
5, 17639, Note_on_c, 4, 54, 0
5, 17760, Note_on_c, 4, 54, 80
5, 17879, Note_on_c, 4, 54, 0
5, 18000, Note_on_c, 4, 54, 80
5, 18119, Note_on_c, 4, 54, 0
5, 18240, Note_on_c, 4, 54, 80
5, 18359, Note_on_c, 4, 54, 0
5, 18480, Note_on_c, 4, 54, 80
5, 18599, Note_on_c, 4, 54, 0
5, 18720, Note_on_c, 4, 54, 80
5, 18839, Note_on_c, 4, 54, 0
5, 18960, Note_on_c, 4, 54, 80
5, 19079, Note_on_c, 4, 54, 0
5, 19200, Note_on_c, 4, 55, 80
5, 19319, Note_on_c, 4, 55, 0
5, 19440, Note_on_c, 4, 55, 80
5, 19559, Note_on_c, 4, 55, 0
5, 19680, Note_on_c, 4, 55, 80
5, 19799, Note_on_c, 4, 55, 0
5, 19920, Note_on_c, 4, 55, 80
5, 20039, Note_on_c, 4, 55, 0
5, 20160, Note_on_c, 4, 43, 80
5, 20279, Note_on_c, 4, 43, 0
5, 20400, Note_on_c, 4, 43, 80
5, 20519, Note_on_c, 4, 43, 0
5, 20640, Note_on_c, 4, 43, 80
5, 20759, Note_on_c, 4, 43, 0
5, 20880, Note_on_c, 4, 43, 80
5, 20999, Note_on_c, 4, 43, 0
5, 21120, Note_on_c, 4, 48, 80
5, 21599, Note_on_c, 4, 48, 0
5, 24000, Note_on_c, 4, 48, 80
5, 24119, Note_on_c, 4, 48, 0
5, 24240, Note_on_c, 4, 48, 80
5, 24359, Note_on_c, 4, 48, 0
5, 24480, Note_on_c, 4, 48, 80
5, 24599, Note_on_c, 4, 48, 0
5, 24720, Note_on_c, 4, 48, 80
5, 24839, Note_on_c, 4, 48, 0
5, 24960, Note_on_c, 4, 48, 80
5, 25079, Note_on_c, 4, 48, 0
5, 25200, Note_on_c, 4, 48, 80
5, 25319, Note_on_c, 4, 48, 0
5, 25440, Note_on_c, 4, 48, 80
5, 25559, Note_on_c, 4, 48, 0
5, 25680, Note_on_c, 4, 48, 80
5, 25799, Note_on_c, 4, 48, 0
5, 25920, Note_on_c, 4, 48, 80
5, 26399, Note_on_c, 4, 48, 0
5, 28800, Note_on_c, 4, 48, 80
5, 28919, Note_on_c, 4, 48, 0
5, 29040, Note_on_c, 4, 48, 80
5, 29159, Note_on_c, 4, 48, 0
5, 29280, Note_on_c, 4, 48, 80
5, 29399, Note_on_c, 4, 48, 0
5, 29520, Note_on_c, 4, 48, 80
5, 29639, Note_on_c, 4, 48, 0
5, 29760, Note_on_c, 4, 48, 80
5, 29879, Note_on_c, 4, 48, 0
5, 30000, Note_on_c, 4, 48, 80
5, 30119, Note_on_c, 4, 48, 0
5, 30240, Note_on_c, 4, 48, 80
5, 30359, Note_on_c, 4, 48, 0
5, 30480, Note_on_c, 4, 48, 80
5, 30599, Note_on_c, 4, 48, 0
5, 30720, Note_on_c, 4, 48, 80
5, 31199, Note_on_c, 4, 48, 0
5, 36480, Note_on_c, 4, 53, 80
5, 36599, Note_on_c, 4, 53, 0
5, 36720, Note_on_c, 4, 53, 80
5, 36839, Note_on_c, 4, 53, 0
5, 36960, Note_on_c, 4, 53, 80
5, 37079, Note_on_c, 4, 53, 0
5, 37200, Note_on_c, 4, 53, 80
5, 37319, Note_on_c, 4, 53, 0
5, 37440, Note_on_c, 4, 53, 80
5, 37559, Note_on_c, 4, 53, 0
5, 37680, Note_on_c, 4, 53, 80
5, 37799, Note_on_c, 4, 53, 0
5, 37920, Note_on_c, 4, 53, 80
5, 38039, Note_on_c, 4, 53, 0
5, 38160, Note_on_c, 4, 53, 80
5, 38279, Note_on_c, 4, 53, 0
5, 38400, Note_on_c, 4, 51, 80
5, 38519, Note_on_c, 4, 51, 0
5, 38640, Note_on_c, 4, 51, 80
5, 38759, Note_on_c, 4, 51, 0
5, 38880, Note_on_c, 4, 51, 80
5, 38999, Note_on_c, 4, 51, 0
5, 39120, Note_on_c, 4, 51, 80
5, 39239, Note_on_c, 4, 51, 0
5, 39360, Note_on_c, 4, 49, 80
5, 39479, Note_on_c, 4, 49, 0
5, 39600, Note_on_c, 4, 49, 80
5, 39719, Note_on_c, 4, 49, 0
5, 39840, Note_on_c, 4, 49, 80
5, 39959, Note_on_c, 4, 49, 0
5, 40080, Note_on_c, 4, 49, 80
5, 40199, Note_on_c, 4, 49, 0
5, 40320, Note_on_c, 4, 49, 80
5, 40439, Note_on_c, 4, 49, 0
5, 40560, Note_on_c, 4, 49, 80
5, 40679, Note_on_c, 4, 49, 0
5, 40800, Note_on_c, 4, 49, 80
5, 40919, Note_on_c, 4, 49, 0
5, 41040, Note_on_c, 4, 49, 80
5, 41159, Note_on_c, 4, 49, 0
5, 41280, Note_on_c, 4, 48, 80
5, 41759, Note_on_c, 4, 48, 0
5, 42240, Note_on_c, 4, 53, 80
5, 42359, Note_on_c, 4, 53, 0
5, 42360, Note_on_c, 4, 41, 80
5, 42479, Note_on_c, 4, 41, 0
5, 42480, Note_on_c, 4, 53, 80
5, 42599, Note_on_c, 4, 53, 0
5, 42600, Note_on_c, 4, 41, 80
5, 42719, Note_on_c, 4, 41, 0
5, 42720, Note_on_c, 4, 53, 80
5, 42839, Note_on_c, 4, 53, 0
5, 42840, Note_on_c, 4, 41, 80
5, 42959, Note_on_c, 4, 41, 0
5, 42960, Note_on_c, 4, 53, 80
5, 43079, Note_on_c, 4, 53, 0
5, 43080, Note_on_c, 4, 41, 80
5, 43199, Note_on_c, 4, 41, 0
5, 43200, Note_on_c, 4, 46, 80
5, 43679, Note_on_c, 4, 46, 0
5, 44160, Note_on_c, 4, 51, 80
5, 44279, Note_on_c, 4, 51, 0
5, 44280, Note_on_c, 4, 39, 80
5, 44399, Note_on_c, 4, 39, 0
5, 44400, Note_on_c, 4, 51, 80
5, 44519, Note_on_c, 4, 51, 0
5, 44520, Note_on_c, 4, 39, 80
5, 44639, Note_on_c, 4, 39, 0
5, 44640, Note_on_c, 4, 51, 80
5, 44759, Note_on_c, 4, 51, 0
5, 44760, Note_on_c, 4, 39, 80
5, 44879, Note_on_c, 4, 39, 0
5, 44880, Note_on_c, 4, 51, 80
5, 44999, Note_on_c, 4, 51, 0
5, 45000, Note_on_c, 4, 39, 80
5, 45119, Note_on_c, 4, 39, 0
5, 45120, Note_on_c, 4, 44, 80
5, 45599, Note_on_c, 4, 44, 0
5, 46080, Note_on_c, 4, 49, 80
5, 46199, Note_on_c, 4, 49, 0
5, 46200, Note_on_c, 4, 37, 80
5, 46319, Note_on_c, 4, 37, 0
5, 46320, Note_on_c, 4, 49, 80
5, 46439, Note_on_c, 4, 49, 0
5, 46440, Note_on_c, 4, 37, 80
5, 46559, Note_on_c, 4, 37, 0
5, 46560, Note_on_c, 4, 49, 80
5, 46679, Note_on_c, 4, 49, 0
5, 46680, Note_on_c, 4, 37, 80
5, 46799, Note_on_c, 4, 37, 0
5, 46800, Note_on_c, 4, 49, 80
5, 46919, Note_on_c, 4, 49, 0
5, 46920, Note_on_c, 4, 37, 80
5, 47039, Note_on_c, 4, 37, 0
5, 47040, Note_on_c, 4, 43, 80
5, 47519, Note_on_c, 4, 43, 0
5, 48000, Note_on_c, 4, 48, 80
5, 48119, Note_on_c, 4, 48, 0
5, 48120, Note_on_c, 4, 36, 80
5, 48239, Note_on_c, 4, 36, 0
5, 48240, Note_on_c, 4, 48, 80
5, 48359, Note_on_c, 4, 48, 0
5, 48360, Note_on_c, 4, 36, 80
5, 48479, Note_on_c, 4, 36, 0
5, 48480, Note_on_c, 4, 48, 80
5, 48599, Note_on_c, 4, 48, 0
5, 48600, Note_on_c, 4, 36, 80
5, 48719, Note_on_c, 4, 36, 0
5, 48720, Note_on_c, 4, 48, 80
5, 48839, Note_on_c, 4, 48, 0
5, 48840, Note_on_c, 4, 36, 80
5, 48959, Note_on_c, 4, 36, 0
5, 48960, Note_on_c, 4, 53, 80
5, 49199, Note_on_c, 4, 53, 0
5, 49200, Note_on_c, 4, 53, 80
5, 49439, Note_on_c, 4, 53, 0
5, 49440, Note_on_c, 4, 52, 80
5, 49679, Note_on_c, 4, 52, 0
5, 49680, Note_on_c, 4, 52, 80
5, 49919, Note_on_c, 4, 52, 0
5, 49920, Note_on_c, 4, 53, 80
5, 50039, Note_on_c, 4, 53, 0
5, 50160, Note_on_c, 4, 53, 80
5, 50279, Note_on_c, 4, 53, 0
5, 50400, Note_on_c, 4, 55, 80
5, 50519, Note_on_c, 4, 55, 0
5, 50640, Note_on_c, 4, 55, 80
5, 50759, Note_on_c, 4, 55, 0
5, 50880, Note_on_c, 4, 56, 80
5, 50999, Note_on_c, 4, 56, 0
5, 51120, Note_on_c, 4, 56, 80
5, 51239, Note_on_c, 4, 56, 0
5, 51360, Note_on_c, 4, 56, 80
5, 51479, Note_on_c, 4, 56, 0
5, 51600, Note_on_c, 4, 56, 80
5, 51719, Note_on_c, 4, 56, 0
5, 51840, Note_on_c, 4, 56, 80
5, 51959, Note_on_c, 4, 56, 0
5, 52080, Note_on_c, 4, 56, 80
5, 52199, Note_on_c, 4, 56, 0
5, 52320, Note_on_c, 4, 56, 80
5, 52439, Note_on_c, 4, 56, 0
5, 52560, Note_on_c, 4, 56, 80
5, 52679, Note_on_c, 4, 56, 0
5, 52800, Note_on_c, 4, 56, 80
5, 52919, Note_on_c, 4, 56, 0
5, 53040, Note_on_c, 4, 56, 80
5, 53159, Note_on_c, 4, 56, 0
5, 53280, Note_on_c, 4, 56, 80
5, 53399, Note_on_c, 4, 56, 0
5, 53520, Note_on_c, 4, 56, 80
5, 53639, Note_on_c, 4, 56, 0
5, 53760, Note_on_c, 4, 58, 80
5, 53879, Note_on_c, 4, 58, 0
5, 54000, Note_on_c, 4, 58, 80
5, 54119, Note_on_c, 4, 58, 0
5, 54240, Note_on_c, 4, 55, 80
5, 54359, Note_on_c, 4, 55, 0
5, 54480, Note_on_c, 4, 55, 80
5, 54599, Note_on_c, 4, 55, 0
5, 54720, Note_on_c, 4, 55, 80
5, 54839, Note_on_c, 4, 55, 0
5, 54960, Note_on_c, 4, 55, 80
5, 55079, Note_on_c, 4, 55, 0
5, 55200, Note_on_c, 4, 55, 80
5, 55319, Note_on_c, 4, 55, 0
5, 55440, Note_on_c, 4, 55, 80
5, 55559, Note_on_c, 4, 55, 0
5, 55680, Note_on_c, 4, 55, 80
5, 55799, Note_on_c, 4, 55, 0
5, 55920, Note_on_c, 4, 55, 80
5, 56039, Note_on_c, 4, 55, 0
5, 56160, Note_on_c, 4, 55, 80
5, 56279, Note_on_c, 4, 55, 0
5, 56400, Note_on_c, 4, 55, 80
5, 56519, Note_on_c, 4, 55, 0
5, 56640, Note_on_c, 4, 56, 80
5, 56759, Note_on_c, 4, 56, 0
5, 56880, Note_on_c, 4, 56, 80
5, 56999, Note_on_c, 4, 56, 0
5, 57120, Note_on_c, 4, 53, 80
5, 57239, Note_on_c, 4, 53, 0
5, 57360, Note_on_c, 4, 53, 80
5, 57479, Note_on_c, 4, 53, 0
5, 57600, Note_on_c, 4, 53, 80
5, 57719, Note_on_c, 4, 53, 0
5, 57840, Note_on_c, 4, 53, 80
5, 57959, Note_on_c, 4, 53, 0
5, 58080, Note_on_c, 4, 53, 80
5, 58199, Note_on_c, 4, 53, 0
5, 58320, Note_on_c, 4, 53, 80
5, 58439, Note_on_c, 4, 53, 0
5, 58560, Note_on_c, 4, 52, 80
5, 58799, Note_on_c, 4, 52, 0
5, 58800, Note_on_c, 4, 51, 80
5, 59039, Note_on_c, 4, 51, 0
5, 59040, Note_on_c, 4, 50, 80
5, 59279, Note_on_c, 4, 50, 0
5, 59280, Note_on_c, 4, 49, 80
5, 59519, Note_on_c, 4, 49, 0
5, 59520, Note_on_c, 4, 48, 80
5, 59639, Note_on_c, 4, 48, 0
5, 59760, Note_on_c, 4, 48, 80
5, 59879, Note_on_c, 4, 48, 0
5, 60000, Note_on_c, 4, 48, 80
5, 60119, Note_on_c, 4, 48, 0
5, 60240, Note_on_c, 4, 48, 80
5, 60359, Note_on_c, 4, 48, 0
5, 60480, Note_on_c, 4, 48, 80
5, 60599, Note_on_c, 4, 48, 0
5, 60720, Note_on_c, 4, 48, 80
5, 60839, Note_on_c, 4, 48, 0
5, 60960, Note_on_c, 4, 48, 80
5, 61079, Note_on_c, 4, 48, 0
5, 61200, Note_on_c, 4, 48, 80
5, 61319, Note_on_c, 4, 48, 0
5, 61440, Note_on_c, 4, 48, 80
5, 61559, Note_on_c, 4, 48, 0
5, 61680, Note_on_c, 4, 48, 80
5, 61799, Note_on_c, 4, 48, 0
5, 61920, Note_on_c, 4, 48, 80
5, 62039, Note_on_c, 4, 48, 0
5, 62160, Note_on_c, 4, 48, 80
5, 62279, Note_on_c, 4, 48, 0
5, 62400, Note_on_c, 4, 48, 80
5, 62459, Note_on_c, 4, 48, 0
5, 62460, Note_on_c, 4, 48, 80
5, 62519, Note_on_c, 4, 48, 0
5, 62520, Note_on_c, 4, 48, 80
5, 62579, Note_on_c, 4, 48, 0
5, 62580, Note_on_c, 4, 48, 80
5, 62639, Note_on_c, 4, 48, 0
5, 62640, Note_on_c, 4, 48, 80
5, 62699, Note_on_c, 4, 48, 0
5, 62700, Note_on_c, 4, 48, 80
5, 62759, Note_on_c, 4, 48, 0
5, 62760, Note_on_c, 4, 48, 80
5, 62819, Note_on_c, 4, 48, 0
5, 62820, Note_on_c, 4, 48, 80
5, 62879, Note_on_c, 4, 48, 0
5, 62880, Note_on_c, 4, 48, 80
5, 62939, Note_on_c, 4, 48, 0
5, 62940, Note_on_c, 4, 48, 80
5, 62999, Note_on_c, 4, 48, 0
5, 63000, Note_on_c, 4, 48, 80
5, 63059, Note_on_c, 4, 48, 0
5, 63060, Note_on_c, 4, 48, 80
5, 63119, Note_on_c, 4, 48, 0
5, 63120, Note_on_c, 4, 48, 80
5, 63179, Note_on_c, 4, 48, 0
5, 63180, Note_on_c, 4, 48, 80
5, 63239, Note_on_c, 4, 48, 0
5, 63240, Note_on_c, 4, 48, 80
5, 63299, Note_on_c, 4, 48, 0
5, 63300, Note_on_c, 4, 48, 80
5, 63359, Note_on_c, 4, 48, 0
5, 63360, Note_on_c, 4, 53, 80
5, 63839, Note_on_c, 4, 53, 0
5, 64320, Note_on_c, 4, 53, 80
5, 64379, Note_on_c, 4, 53, 0
5, 64380, Note_on_c, 4, 53, 80
5, 64439, Note_on_c, 4, 53, 0
5, 64440, Note_on_c, 4, 53, 80
5, 64499, Note_on_c, 4, 53, 0
5, 64500, Note_on_c, 4, 53, 80
5, 64559, Note_on_c, 4, 53, 0
5, 64560, Note_on_c, 4, 53, 80
5, 64619, Note_on_c, 4, 53, 0
5, 64620, Note_on_c, 4, 53, 80
5, 64679, Note_on_c, 4, 53, 0
5, 64680, Note_on_c, 4, 53, 80
5, 64739, Note_on_c, 4, 53, 0
5, 64740, Note_on_c, 4, 53, 80
5, 64799, Note_on_c, 4, 53, 0
5, 64800, Note_on_c, 4, 53, 80
5, 64859, Note_on_c, 4, 53, 0
5, 64860, Note_on_c, 4, 53, 80
5, 64919, Note_on_c, 4, 53, 0
5, 64920, Note_on_c, 4, 53, 80
5, 64979, Note_on_c, 4, 53, 0
5, 64980, Note_on_c, 4, 53, 80
5, 65039, Note_on_c, 4, 53, 0
5, 65040, Note_on_c, 4, 53, 80
5, 65099, Note_on_c, 4, 53, 0
5, 65100, Note_on_c, 4, 53, 80
5, 65159, Note_on_c, 4, 53, 0
5, 65160, Note_on_c, 4, 53, 80
5, 65219, Note_on_c, 4, 53, 0
5, 65220, Note_on_c, 4, 53, 80
5, 65279, Note_on_c, 4, 53, 0
5, 65280, Note_on_c, 4, 46, 80
5, 65759, Note_on_c, 4, 46, 0
5, 66240, Note_on_c, 4, 55, 80
5, 66299, Note_on_c, 4, 55, 0
5, 66300, Note_on_c, 4, 55, 80
5, 66359, Note_on_c, 4, 55, 0
5, 66360, Note_on_c, 4, 55, 80
5, 66419, Note_on_c, 4, 55, 0
5, 66420, Note_on_c, 4, 55, 80
5, 66479, Note_on_c, 4, 55, 0
5, 66480, Note_on_c, 4, 55, 80
5, 66539, Note_on_c, 4, 55, 0
5, 66540, Note_on_c, 4, 55, 80
5, 66599, Note_on_c, 4, 55, 0
5, 66600, Note_on_c, 4, 55, 80
5, 66659, Note_on_c, 4, 55, 0
5, 66660, Note_on_c, 4, 55, 80
5, 66719, Note_on_c, 4, 55, 0
5, 66720, Note_on_c, 4, 55, 80
5, 66779, Note_on_c, 4, 55, 0
5, 66780, Note_on_c, 4, 55, 80
5, 66839, Note_on_c, 4, 55, 0
5, 66840, Note_on_c, 4, 55, 80
5, 66899, Note_on_c, 4, 55, 0
5, 66900, Note_on_c, 4, 55, 80
5, 66959, Note_on_c, 4, 55, 0
5, 66960, Note_on_c, 4, 55, 80
5, 67019, Note_on_c, 4, 55, 0
5, 67020, Note_on_c, 4, 55, 80
5, 67079, Note_on_c, 4, 55, 0
5, 67080, Note_on_c, 4, 55, 80
5, 67139, Note_on_c, 4, 55, 0
5, 67140, Note_on_c, 4, 55, 80
5, 67199, Note_on_c, 4, 55, 0
5, 67200, Note_on_c, 4, 48, 80
5, 67679, Note_on_c, 4, 48, 0
5, 68160, Note_on_c, 4, 46, 80
5, 68219, Note_on_c, 4, 46, 0
5, 68220, Note_on_c, 4, 46, 80
5, 68279, Note_on_c, 4, 46, 0
5, 68280, Note_on_c, 4, 46, 80
5, 68339, Note_on_c, 4, 46, 0
5, 68340, Note_on_c, 4, 46, 80
5, 68399, Note_on_c, 4, 46, 0
5, 68400, Note_on_c, 4, 46, 80
5, 68459, Note_on_c, 4, 46, 0
5, 68460, Note_on_c, 4, 46, 80
5, 68519, Note_on_c, 4, 46, 0
5, 68520, Note_on_c, 4, 46, 80
5, 68579, Note_on_c, 4, 46, 0
5, 68580, Note_on_c, 4, 46, 80
5, 68639, Note_on_c, 4, 46, 0
5, 68640, Note_on_c, 4, 46, 80
5, 68699, Note_on_c, 4, 46, 0
5, 68700, Note_on_c, 4, 46, 80
5, 68759, Note_on_c, 4, 46, 0
5, 68760, Note_on_c, 4, 46, 80
5, 68819, Note_on_c, 4, 46, 0
5, 68820, Note_on_c, 4, 46, 80
5, 68879, Note_on_c, 4, 46, 0
5, 68880, Note_on_c, 4, 46, 80
5, 68939, Note_on_c, 4, 46, 0
5, 68940, Note_on_c, 4, 46, 80
5, 68999, Note_on_c, 4, 46, 0
5, 69000, Note_on_c, 4, 46, 80
5, 69059, Note_on_c, 4, 46, 0
5, 69060, Note_on_c, 4, 46, 80
5, 69119, Note_on_c, 4, 46, 0
5, 69120, Note_on_c, 4, 51, 80
5, 69599, Note_on_c, 4, 51, 0
5, 70080, Note_on_c, 4, 44, 80
5, 70139, Note_on_c, 4, 44, 0
5, 70140, Note_on_c, 4, 44, 80
5, 70199, Note_on_c, 4, 44, 0
5, 70200, Note_on_c, 4, 44, 80
5, 70259, Note_on_c, 4, 44, 0
5, 70260, Note_on_c, 4, 44, 80
5, 70319, Note_on_c, 4, 44, 0
5, 70320, Note_on_c, 4, 44, 80
5, 70379, Note_on_c, 4, 44, 0
5, 70380, Note_on_c, 4, 44, 80
5, 70439, Note_on_c, 4, 44, 0
5, 70440, Note_on_c, 4, 44, 80
5, 70499, Note_on_c, 4, 44, 0
5, 70500, Note_on_c, 4, 44, 80
5, 70559, Note_on_c, 4, 44, 0
5, 70560, Note_on_c, 4, 44, 80
5, 70619, Note_on_c, 4, 44, 0
5, 70620, Note_on_c, 4, 44, 80
5, 70679, Note_on_c, 4, 44, 0
5, 70680, Note_on_c, 4, 44, 80
5, 70739, Note_on_c, 4, 44, 0
5, 70740, Note_on_c, 4, 44, 80
5, 70799, Note_on_c, 4, 44, 0
5, 70800, Note_on_c, 4, 44, 80
5, 70859, Note_on_c, 4, 44, 0
5, 70860, Note_on_c, 4, 44, 80
5, 70919, Note_on_c, 4, 44, 0
5, 70920, Note_on_c, 4, 44, 80
5, 70979, Note_on_c, 4, 44, 0
5, 70980, Note_on_c, 4, 44, 80
5, 71039, Note_on_c, 4, 44, 0
5, 71040, Note_on_c, 4, 46, 80
5, 71099, Note_on_c, 4, 46, 0
5, 71100, Note_on_c, 4, 46, 80
5, 71159, Note_on_c, 4, 46, 0
5, 71160, Note_on_c, 4, 46, 80
5, 71219, Note_on_c, 4, 46, 0
5, 71220, Note_on_c, 4, 46, 80
5, 71279, Note_on_c, 4, 46, 0
5, 71280, Note_on_c, 4, 46, 80
5, 71339, Note_on_c, 4, 46, 0
5, 71340, Note_on_c, 4, 46, 80
5, 71399, Note_on_c, 4, 46, 0
5, 71400, Note_on_c, 4, 46, 80
5, 71459, Note_on_c, 4, 46, 0
5, 71460, Note_on_c, 4, 46, 80
5, 71519, Note_on_c, 4, 46, 0
5, 71520, Note_on_c, 4, 46, 80
5, 71579, Note_on_c, 4, 46, 0
5, 71580, Note_on_c, 4, 46, 80
5, 71639, Note_on_c, 4, 46, 0
5, 71640, Note_on_c, 4, 46, 80
5, 71699, Note_on_c, 4, 46, 0
5, 71700, Note_on_c, 4, 46, 80
5, 71759, Note_on_c, 4, 46, 0
5, 71760, Note_on_c, 4, 46, 80
5, 71819, Note_on_c, 4, 46, 0
5, 71820, Note_on_c, 4, 46, 80
5, 71879, Note_on_c, 4, 46, 0
5, 71880, Note_on_c, 4, 46, 80
5, 71939, Note_on_c, 4, 46, 0
5, 71940, Note_on_c, 4, 46, 80
5, 71999, Note_on_c, 4, 46, 0
5, 72000, Note_on_c, 4, 51, 80
5, 72119, Note_on_c, 4, 51, 0
5, 72240, Note_on_c, 4, 51, 80
5, 72359, Note_on_c, 4, 51, 0
5, 72480, Note_on_c, 4, 51, 80
5, 72599, Note_on_c, 4, 51, 0
5, 72720, Note_on_c, 4, 51, 80
5, 72839, Note_on_c, 4, 51, 0
5, 72960, Note_on_c, 4, 51, 80
5, 73079, Note_on_c, 4, 51, 0
5, 73200, Note_on_c, 4, 51, 80
5, 73319, Note_on_c, 4, 51, 0
5, 73440, Note_on_c, 4, 51, 80
5, 73559, Note_on_c, 4, 51, 0
5, 73680, Note_on_c, 4, 51, 80
5, 73799, Note_on_c, 4, 51, 0
5, 73920, Note_on_c, 4, 51, 80
5, 74039, Note_on_c, 4, 51, 0
5, 74160, Note_on_c, 4, 51, 80
5, 74279, Note_on_c, 4, 51, 0
5, 74400, Note_on_c, 4, 51, 80
5, 74519, Note_on_c, 4, 51, 0
5, 74640, Note_on_c, 4, 51, 80
5, 74759, Note_on_c, 4, 51, 0
5, 74880, Note_on_c, 4, 51, 80
5, 74999, Note_on_c, 4, 51, 0
5, 75120, Note_on_c, 4, 51, 80
5, 75239, Note_on_c, 4, 51, 0
5, 75360, Note_on_c, 4, 51, 80
5, 75479, Note_on_c, 4, 51, 0
5, 75600, Note_on_c, 4, 51, 80
5, 75719, Note_on_c, 4, 51, 0
5, 75840, Note_on_c, 4, 50, 80
5, 75959, Note_on_c, 4, 50, 0
5, 76080, Note_on_c, 4, 50, 80
5, 76199, Note_on_c, 4, 50, 0
5, 76320, Note_on_c, 4, 50, 80
5, 76439, Note_on_c, 4, 50, 0
5, 76560, Note_on_c, 4, 50, 80
5, 76679, Note_on_c, 4, 50, 0
5, 76800, Note_on_c, 4, 51, 80
5, 76919, Note_on_c, 4, 51, 0
5, 77040, Note_on_c, 4, 51, 80
5, 77159, Note_on_c, 4, 51, 0
5, 77280, Note_on_c, 4, 51, 80
5, 77399, Note_on_c, 4, 51, 0
5, 77520, Note_on_c, 4, 51, 80
5, 77639, Note_on_c, 4, 51, 0
5, 77760, Note_on_c, 4, 51, 80
5, 77879, Note_on_c, 4, 51, 0
5, 78000, Note_on_c, 4, 51, 80
5, 78119, Note_on_c, 4, 51, 0
5, 78240, Note_on_c, 4, 51, 80
5, 78359, Note_on_c, 4, 51, 0
5, 78480, Note_on_c, 4, 51, 80
5, 78599, Note_on_c, 4, 51, 0
5, 78720, Note_on_c, 4, 44, 80
5, 78839, Note_on_c, 4, 44, 0
5, 78960, Note_on_c, 4, 44, 80
5, 79079, Note_on_c, 4, 44, 0
5, 79200, Note_on_c, 4, 44, 80
5, 79319, Note_on_c, 4, 44, 0
5, 79440, Note_on_c, 4, 44, 80
5, 79559, Note_on_c, 4, 44, 0
5, 79680, Note_on_c, 4, 41, 80
5, 79799, Note_on_c, 4, 41, 0
5, 79920, Note_on_c, 4, 41, 80
5, 80039, Note_on_c, 4, 41, 0
5, 80160, Note_on_c, 4, 41, 80
5, 80279, Note_on_c, 4, 41, 0
5, 80400, Note_on_c, 4, 41, 80
5, 80519, Note_on_c, 4, 41, 0
5, 80640, Note_on_c, 4, 46, 80
5, 80759, Note_on_c, 4, 46, 0
5, 80880, Note_on_c, 4, 46, 80
5, 80999, Note_on_c, 4, 46, 0
5, 81120, Note_on_c, 4, 46, 80
5, 81239, Note_on_c, 4, 46, 0
5, 81360, Note_on_c, 4, 46, 80
5, 81479, Note_on_c, 4, 46, 0
5, 81600, Note_on_c, 4, 46, 80
5, 81719, Note_on_c, 4, 46, 0
5, 81840, Note_on_c, 4, 46, 80
5, 81959, Note_on_c, 4, 46, 0
5, 82080, Note_on_c, 4, 46, 80
5, 82199, Note_on_c, 4, 46, 0
5, 82320, Note_on_c, 4, 46, 80
5, 82439, Note_on_c, 4, 46, 0
5, 82560, Note_on_c, 4, 51, 80
5, 83039, Note_on_c, 4, 51, 0
5, 83520, Note_on_c, 4, 55, 80
5, 83999, Note_on_c, 4, 55, 0
5, 84000, Note_on_c, 4, 51, 80
5, 84479, Note_on_c, 4, 51, 0
5, 84480, Note_on_c, 4, 44, 80
5, 84959, Note_on_c, 4, 44, 0
5, 85440, Note_on_c, 4, 57, 80
5, 85919, Note_on_c, 4, 57, 0
5, 85920, Note_on_c, 4, 53, 80
5, 86399, Note_on_c, 4, 53, 0
5, 86400, Note_on_c, 4, 46, 80
5, 86879, Note_on_c, 4, 46, 0
5, 87360, Note_on_c, 4, 59, 80
5, 87839, Note_on_c, 4, 59, 0
5, 87840, Note_on_c, 4, 55, 80
5, 88319, Note_on_c, 4, 55, 0
5, 88320, Note_on_c, 4, 48, 80
5, 88799, Note_on_c, 4, 48, 0
5, 105600, Note_on_c, 4, 48, 80
5, 106079, Note_on_c, 4, 48, 0
5, 106560, Note_on_c, 4, 53, 80
5, 106679, Note_on_c, 4, 53, 0
5, 106680, Note_on_c, 4, 41, 80
5, 106799, Note_on_c, 4, 41, 0
5, 106800, Note_on_c, 4, 53, 80
5, 106919, Note_on_c, 4, 53, 0
5, 106920, Note_on_c, 4, 41, 80
5, 107039, Note_on_c, 4, 41, 0
5, 107040, Note_on_c, 4, 53, 80
5, 107159, Note_on_c, 4, 53, 0
5, 107160, Note_on_c, 4, 41, 80
5, 107279, Note_on_c, 4, 41, 0
5, 107280, Note_on_c, 4, 53, 80
5, 107399, Note_on_c, 4, 53, 0
5, 107400, Note_on_c, 4, 41, 80
5, 107519, Note_on_c, 4, 41, 0
5, 107520, Note_on_c, 4, 46, 80
5, 107999, Note_on_c, 4, 46, 0
5, 108480, Note_on_c, 4, 51, 80
5, 108599, Note_on_c, 4, 51, 0
5, 108600, Note_on_c, 4, 39, 80
5, 108719, Note_on_c, 4, 39, 0
5, 108720, Note_on_c, 4, 51, 80
5, 108839, Note_on_c, 4, 51, 0
5, 108840, Note_on_c, 4, 39, 80
5, 108959, Note_on_c, 4, 39, 0
5, 108960, Note_on_c, 4, 51, 80
5, 109079, Note_on_c, 4, 51, 0
5, 109080, Note_on_c, 4, 39, 80
5, 109199, Note_on_c, 4, 39, 0
5, 109200, Note_on_c, 4, 51, 80
5, 109319, Note_on_c, 4, 51, 0
5, 109320, Note_on_c, 4, 39, 80
5, 109439, Note_on_c, 4, 39, 0
5, 109440, Note_on_c, 4, 44, 80
5, 109919, Note_on_c, 4, 44, 0
5, 110400, Note_on_c, 4, 49, 80
5, 110519, Note_on_c, 4, 49, 0
5, 110520, Note_on_c, 4, 37, 80
5, 110639, Note_on_c, 4, 37, 0
5, 110640, Note_on_c, 4, 49, 80
5, 110759, Note_on_c, 4, 49, 0
5, 110760, Note_on_c, 4, 37, 80
5, 110879, Note_on_c, 4, 37, 0
5, 110880, Note_on_c, 4, 49, 80
5, 110999, Note_on_c, 4, 49, 0
5, 111000, Note_on_c, 4, 37, 80
5, 111119, Note_on_c, 4, 37, 0
5, 111120, Note_on_c, 4, 49, 80
5, 111239, Note_on_c, 4, 49, 0
5, 111240, Note_on_c, 4, 37, 80
5, 111359, Note_on_c, 4, 37, 0
5, 111360, Note_on_c, 4, 43, 80
5, 111839, Note_on_c, 4, 43, 0
5, 112320, Note_on_c, 4, 60, 80
5, 112439, Note_on_c, 4, 60, 0
5, 112440, Note_on_c, 4, 48, 80
5, 112559, Note_on_c, 4, 48, 0
5, 112560, Note_on_c, 4, 60, 80
5, 112679, Note_on_c, 4, 60, 0
5, 112680, Note_on_c, 4, 48, 80
5, 112799, Note_on_c, 4, 48, 0
5, 112800, Note_on_c, 4, 60, 80
5, 112919, Note_on_c, 4, 60, 0
5, 112920, Note_on_c, 4, 48, 80
5, 113039, Note_on_c, 4, 48, 0
5, 113040, Note_on_c, 4, 60, 80
5, 113159, Note_on_c, 4, 60, 0
5, 113160, Note_on_c, 4, 48, 80
5, 113279, Note_on_c, 4, 48, 0
5, 113280, Note_on_c, 4, 53, 80
5, 113399, Note_on_c, 4, 53, 0
5, 113400, Note_on_c, 4, 53, 80
5, 113459, Note_on_c, 4, 53, 0
5, 113460, Note_on_c, 4, 53, 80
5, 113519, Note_on_c, 4, 53, 0
5, 113520, Note_on_c, 4, 53, 80
5, 113579, Note_on_c, 4, 53, 0
5, 113580, Note_on_c, 4, 53, 80
5, 113639, Note_on_c, 4, 53, 0
5, 113640, Note_on_c, 4, 53, 80
5, 113699, Note_on_c, 4, 53, 0
5, 113700, Note_on_c, 4, 53, 80
5, 113759, Note_on_c, 4, 53, 0
5, 113760, Note_on_c, 4, 53, 80
5, 113879, Note_on_c, 4, 53, 0
5, 113880, Note_on_c, 4, 53, 80
5, 113999, Note_on_c, 4, 53, 0
5, 114000, Note_on_c, 4, 53, 80
5, 114119, Note_on_c, 4, 53, 0
5, 114120, Note_on_c, 4, 53, 80
5, 114239, Note_on_c, 4, 53, 0
5, 114240, Note_on_c, 4, 46, 80
5, 114359, Note_on_c, 4, 46, 0
5, 114360, Note_on_c, 4, 46, 80
5, 114419, Note_on_c, 4, 46, 0
5, 114420, Note_on_c, 4, 46, 80
5, 114479, Note_on_c, 4, 46, 0
5, 114480, Note_on_c, 4, 46, 80
5, 114539, Note_on_c, 4, 46, 0
5, 114540, Note_on_c, 4, 46, 80
5, 114599, Note_on_c, 4, 46, 0
5, 114600, Note_on_c, 4, 46, 80
5, 114659, Note_on_c, 4, 46, 0
5, 114660, Note_on_c, 4, 46, 80
5, 114719, Note_on_c, 4, 46, 0
5, 114720, Note_on_c, 4, 46, 80
5, 114839, Note_on_c, 4, 46, 0
5, 114840, Note_on_c, 4, 46, 80
5, 114959, Note_on_c, 4, 46, 0
5, 114960, Note_on_c, 4, 46, 80
5, 115079, Note_on_c, 4, 46, 0
5, 115080, Note_on_c, 4, 46, 80
5, 115199, Note_on_c, 4, 46, 0
5, 115200, Note_on_c, 4, 48, 80
5, 115319, Note_on_c, 4, 48, 0
5, 115320, Note_on_c, 4, 48, 80
5, 115379, Note_on_c, 4, 48, 0
5, 115380, Note_on_c, 4, 48, 80
5, 115439, Note_on_c, 4, 48, 0
5, 115440, Note_on_c, 4, 48, 80
5, 115499, Note_on_c, 4, 48, 0
5, 115500, Note_on_c, 4, 48, 80
5, 115559, Note_on_c, 4, 48, 0
5, 115560, Note_on_c, 4, 48, 80
5, 115619, Note_on_c, 4, 48, 0
5, 115620, Note_on_c, 4, 48, 80
5, 115679, Note_on_c, 4, 48, 0
5, 115680, Note_on_c, 4, 48, 80
5, 115799, Note_on_c, 4, 48, 0
5, 115800, Note_on_c, 4, 48, 80
5, 115919, Note_on_c, 4, 48, 0
5, 115920, Note_on_c, 4, 48, 80
5, 116039, Note_on_c, 4, 48, 0
5, 116040, Note_on_c, 4, 48, 80
5, 116159, Note_on_c, 4, 48, 0
5, 116160, Note_on_c, 4, 41, 80
5, 116279, Note_on_c, 4, 41, 0
5, 116280, Note_on_c, 4, 53, 80
5, 116339, Note_on_c, 4, 53, 0
5, 116340, Note_on_c, 4, 53, 80
5, 116399, Note_on_c, 4, 53, 0
5, 116400, Note_on_c, 4, 53, 80
5, 116459, Note_on_c, 4, 53, 0
5, 116460, Note_on_c, 4, 53, 80
5, 116519, Note_on_c, 4, 53, 0
5, 116520, Note_on_c, 4, 53, 80
5, 116579, Note_on_c, 4, 53, 0
5, 116580, Note_on_c, 4, 53, 80
5, 116639, Note_on_c, 4, 53, 0
5, 116640, Note_on_c, 4, 53, 80
5, 116759, Note_on_c, 4, 53, 0
5, 116760, Note_on_c, 4, 53, 80
5, 116879, Note_on_c, 4, 53, 0
5, 116880, Note_on_c, 4, 53, 80
5, 116999, Note_on_c, 4, 53, 0
5, 117000, Note_on_c, 4, 53, 80
5, 117119, Note_on_c, 4, 53, 0
5, 117120, Note_on_c, 4, 46, 80
5, 117239, Note_on_c, 4, 46, 0
5, 117240, Note_on_c, 4, 46, 80
5, 117299, Note_on_c, 4, 46, 0
5, 117300, Note_on_c, 4, 46, 80
5, 117359, Note_on_c, 4, 46, 0
5, 117360, Note_on_c, 4, 46, 80
5, 117419, Note_on_c, 4, 46, 0
5, 117420, Note_on_c, 4, 46, 80
5, 117479, Note_on_c, 4, 46, 0
5, 117480, Note_on_c, 4, 46, 80
5, 117539, Note_on_c, 4, 46, 0
5, 117540, Note_on_c, 4, 46, 80
5, 117599, Note_on_c, 4, 46, 0
5, 117600, Note_on_c, 4, 46, 80
5, 117719, Note_on_c, 4, 46, 0
5, 117720, Note_on_c, 4, 46, 80
5, 117839, Note_on_c, 4, 46, 0
5, 117840, Note_on_c, 4, 46, 80
5, 117959, Note_on_c, 4, 46, 0
5, 117960, Note_on_c, 4, 46, 80
5, 118079, Note_on_c, 4, 46, 0
5, 118080, Note_on_c, 4, 48, 80
5, 118199, Note_on_c, 4, 48, 0
5, 118200, Note_on_c, 4, 48, 80
5, 118259, Note_on_c, 4, 48, 0
5, 118260, Note_on_c, 4, 48, 80
5, 118319, Note_on_c, 4, 48, 0
5, 118320, Note_on_c, 4, 48, 80
5, 118379, Note_on_c, 4, 48, 0
5, 118380, Note_on_c, 4, 48, 80
5, 118439, Note_on_c, 4, 48, 0
5, 118440, Note_on_c, 4, 48, 80
5, 118499, Note_on_c, 4, 48, 0
5, 118500, Note_on_c, 4, 48, 80
5, 118559, Note_on_c, 4, 48, 0
5, 118560, Note_on_c, 4, 48, 80
5, 118679, Note_on_c, 4, 48, 0
5, 118680, Note_on_c, 4, 48, 80
5, 118799, Note_on_c, 4, 48, 0
5, 118800, Note_on_c, 4, 48, 80
5, 118919, Note_on_c, 4, 48, 0
5, 118920, Note_on_c, 4, 48, 80
5, 119039, Note_on_c, 4, 48, 0
5, 119040, Note_on_c, 4, 41, 80
5, 120959, Note_on_c, 4, 41, 0
5, 122880, Note_on_c, 4, 51, 64
5, 123119, Note_on_c, 4, 51, 0
5, 123120, Note_on_c, 4, 51, 64
5, 123359, Note_on_c, 4, 51, 0
5, 123360, Note_on_c, 4, 51, 64
5, 123599, Note_on_c, 4, 51, 0
5, 123600, Note_on_c, 4, 51, 64
5, 123839, Note_on_c, 4, 51, 0
5, 123840, Note_on_c, 4, 46, 64
5, 124079, Note_on_c, 4, 46, 0
5, 124080, Note_on_c, 4, 46, 64
5, 124319, Note_on_c, 4, 46, 0
5, 124320, Note_on_c, 4, 46, 64
5, 124559, Note_on_c, 4, 46, 0
5, 124560, Note_on_c, 4, 46, 64
5, 124799, Note_on_c, 4, 46, 0
5, 124800, Note_on_c, 4, 46, 64
5, 125039, Note_on_c, 4, 46, 0
5, 125040, Note_on_c, 4, 46, 64
5, 125279, Note_on_c, 4, 46, 0
5, 125280, Note_on_c, 4, 46, 64
5, 125519, Note_on_c, 4, 46, 0
5, 125520, Note_on_c, 4, 46, 64
5, 125759, Note_on_c, 4, 46, 0
5, 125760, Note_on_c, 4, 51, 64
5, 125999, Note_on_c, 4, 51, 0
5, 126000, Note_on_c, 4, 51, 64
5, 126239, Note_on_c, 4, 51, 0
5, 126240, Note_on_c, 4, 51, 64
5, 126479, Note_on_c, 4, 51, 0
5, 126480, Note_on_c, 4, 51, 64
5, 126719, Note_on_c, 4, 51, 0
5, 126720, Note_on_c, 4, 50, 64
5, 126959, Note_on_c, 4, 50, 0
5, 126960, Note_on_c, 4, 50, 64
5, 127199, Note_on_c, 4, 50, 0
5, 127200, Note_on_c, 4, 50, 64
5, 127439, Note_on_c, 4, 50, 0
5, 127440, Note_on_c, 4, 50, 64
5, 127679, Note_on_c, 4, 50, 0
5, 127680, Note_on_c, 4, 48, 64
5, 127919, Note_on_c, 4, 48, 0
5, 127920, Note_on_c, 4, 48, 64
5, 128159, Note_on_c, 4, 48, 0
5, 128160, Note_on_c, 4, 48, 64
5, 128399, Note_on_c, 4, 48, 0
5, 128400, Note_on_c, 4, 48, 64
5, 128639, Note_on_c, 4, 48, 0
5, 128640, Note_on_c, 4, 46, 64
5, 128879, Note_on_c, 4, 46, 0
5, 128880, Note_on_c, 4, 46, 64
5, 129119, Note_on_c, 4, 46, 0
5, 129120, Note_on_c, 4, 46, 64
5, 129359, Note_on_c, 4, 46, 0
5, 129360, Note_on_c, 4, 46, 64
5, 129599, Note_on_c, 4, 46, 0
5, 129600, Note_on_c, 4, 44, 64
5, 129839, Note_on_c, 4, 44, 0
5, 129840, Note_on_c, 4, 44, 64
5, 130079, Note_on_c, 4, 44, 0
5, 130080, Note_on_c, 4, 45, 64
5, 130319, Note_on_c, 4, 45, 0
5, 130320, Note_on_c, 4, 45, 64
5, 130559, Note_on_c, 4, 45, 0
5, 130560, Note_on_c, 4, 46, 64
5, 130799, Note_on_c, 4, 46, 0
5, 130800, Note_on_c, 4, 46, 64
5, 131039, Note_on_c, 4, 46, 0
5, 131040, Note_on_c, 4, 46, 64
5, 131279, Note_on_c, 4, 46, 0
5, 131280, Note_on_c, 4, 46, 64
5, 131519, Note_on_c, 4, 46, 0
5, 131520, Note_on_c, 4, 46, 64
5, 131759, Note_on_c, 4, 46, 0
5, 131760, Note_on_c, 4, 46, 64
5, 131999, Note_on_c, 4, 46, 0
5, 132000, Note_on_c, 4, 46, 64
5, 132239, Note_on_c, 4, 46, 0
5, 132240, Note_on_c, 4, 46, 64
5, 132479, Note_on_c, 4, 46, 0
5, 132480, Note_on_c, 4, 51, 64
5, 132719, Note_on_c, 4, 51, 0
5, 132720, Note_on_c, 4, 51, 64
5, 132959, Note_on_c, 4, 51, 0
5, 132960, Note_on_c, 4, 51, 64
5, 133199, Note_on_c, 4, 51, 0
5, 133200, Note_on_c, 4, 51, 64
5, 133439, Note_on_c, 4, 51, 0
5, 133440, Note_on_c, 4, 51, 64
5, 133679, Note_on_c, 4, 51, 0
5, 133680, Note_on_c, 4, 51, 64
5, 133919, Note_on_c, 4, 51, 0
5, 133920, Note_on_c, 4, 51, 64
5, 134159, Note_on_c, 4, 51, 0
5, 134160, Note_on_c, 4, 51, 64
5, 134399, Note_on_c, 4, 51, 0
5, 134400, Note_on_c, 4, 46, 64
5, 134639, Note_on_c, 4, 46, 0
5, 134640, Note_on_c, 4, 46, 64
5, 134879, Note_on_c, 4, 46, 0
5, 134880, Note_on_c, 4, 46, 64
5, 135119, Note_on_c, 4, 46, 0
5, 135120, Note_on_c, 4, 46, 64
5, 135359, Note_on_c, 4, 46, 0
5, 135360, Note_on_c, 4, 41, 64
5, 135599, Note_on_c, 4, 41, 0
5, 135600, Note_on_c, 4, 41, 64
5, 135839, Note_on_c, 4, 41, 0
5, 135840, Note_on_c, 4, 41, 64
5, 136079, Note_on_c, 4, 41, 0
5, 136080, Note_on_c, 4, 41, 64
5, 136319, Note_on_c, 4, 41, 0
5, 136320, Note_on_c, 4, 41, 64
5, 136559, Note_on_c, 4, 41, 0
5, 136560, Note_on_c, 4, 41, 64
5, 136799, Note_on_c, 4, 41, 0
5, 136800, Note_on_c, 4, 41, 64
5, 137039, Note_on_c, 4, 41, 0
5, 137040, Note_on_c, 4, 41, 64
5, 137279, Note_on_c, 4, 41, 0
5, 137280, Note_on_c, 4, 46, 64
5, 137519, Note_on_c, 4, 46, 0
5, 137520, Note_on_c, 4, 46, 64
5, 137759, Note_on_c, 4, 46, 0
5, 137760, Note_on_c, 4, 46, 64
5, 137999, Note_on_c, 4, 46, 0
5, 138000, Note_on_c, 4, 46, 64
5, 138239, Note_on_c, 4, 46, 0
5, 138240, Note_on_c, 4, 46, 64
5, 138479, Note_on_c, 4, 46, 0
5, 138480, Note_on_c, 4, 46, 64
5, 138719, Note_on_c, 4, 46, 0
5, 138720, Note_on_c, 4, 46, 64
5, 138959, Note_on_c, 4, 46, 0
5, 138960, Note_on_c, 4, 46, 64
5, 139199, Note_on_c, 4, 46, 0
5, 139200, Note_on_c, 4, 41, 64
5, 139439, Note_on_c, 4, 41, 0
5, 139440, Note_on_c, 4, 41, 64
5, 139679, Note_on_c, 4, 41, 0
5, 139680, Note_on_c, 4, 41, 64
5, 139919, Note_on_c, 4, 41, 0
5, 139920, Note_on_c, 4, 41, 64
5, 140159, Note_on_c, 4, 41, 0
5, 140160, Note_on_c, 4, 41, 64
5, 140399, Note_on_c, 4, 41, 0
5, 140400, Note_on_c, 4, 41, 64
5, 140639, Note_on_c, 4, 41, 0
5, 140640, Note_on_c, 4, 41, 64
5, 140879, Note_on_c, 4, 41, 0
5, 140880, Note_on_c, 4, 41, 64
5, 141119, Note_on_c, 4, 41, 0
5, 141120, Note_on_c, 4, 46, 64
5, 141359, Note_on_c, 4, 46, 0
5, 141360, Note_on_c, 4, 46, 64
5, 141599, Note_on_c, 4, 46, 0
5, 141600, Note_on_c, 4, 46, 64
5, 141839, Note_on_c, 4, 46, 0
5, 141840, Note_on_c, 4, 46, 64
5, 142079, Note_on_c, 4, 46, 0
5, 142080, Note_on_c, 4, 46, 64
5, 142319, Note_on_c, 4, 46, 0
5, 142320, Note_on_c, 4, 46, 64
5, 142559, Note_on_c, 4, 46, 0
5, 142560, Note_on_c, 4, 46, 64
5, 142799, Note_on_c, 4, 46, 0
5, 142800, Note_on_c, 4, 46, 64
5, 143039, Note_on_c, 4, 46, 0
5, 143040, Note_on_c, 4, 51, 64
5, 143279, Note_on_c, 4, 51, 0
5, 143280, Note_on_c, 4, 51, 64
5, 143519, Note_on_c, 4, 51, 0
5, 143520, Note_on_c, 4, 51, 64
5, 143759, Note_on_c, 4, 51, 0
5, 143760, Note_on_c, 4, 51, 64
5, 143999, Note_on_c, 4, 51, 0
5, 144000, Note_on_c, 4, 44, 64
5, 144239, Note_on_c, 4, 44, 0
5, 144240, Note_on_c, 4, 44, 64
5, 144479, Note_on_c, 4, 44, 0
5, 144480, Note_on_c, 4, 44, 64
5, 144719, Note_on_c, 4, 44, 0
5, 144720, Note_on_c, 4, 44, 64
5, 144959, Note_on_c, 4, 44, 0
5, 144960, Note_on_c, 4, 46, 64
5, 145199, Note_on_c, 4, 46, 0
5, 145200, Note_on_c, 4, 46, 64
5, 145439, Note_on_c, 4, 46, 0
5, 145440, Note_on_c, 4, 46, 64
5, 145679, Note_on_c, 4, 46, 0
5, 145680, Note_on_c, 4, 46, 64
5, 145919, Note_on_c, 4, 46, 0
5, 145920, Note_on_c, 4, 48, 64
5, 146159, Note_on_c, 4, 48, 0
5, 146160, Note_on_c, 4, 48, 64
5, 146399, Note_on_c, 4, 48, 0
5, 146400, Note_on_c, 4, 48, 64
5, 146639, Note_on_c, 4, 48, 0
5, 146640, Note_on_c, 4, 48, 64
5, 146879, Note_on_c, 4, 48, 0
5, 146880, Note_on_c, 4, 46, 64
5, 147119, Note_on_c, 4, 46, 0
5, 147120, Note_on_c, 4, 46, 64
5, 147359, Note_on_c, 4, 46, 0
5, 147360, Note_on_c, 4, 46, 64
5, 147599, Note_on_c, 4, 46, 0
5, 147600, Note_on_c, 4, 46, 64
5, 147839, Note_on_c, 4, 46, 0
5, 147840, Note_on_c, 4, 46, 64
5, 148079, Note_on_c, 4, 46, 0
5, 148080, Note_on_c, 4, 46, 64
5, 148319, Note_on_c, 4, 46, 0
5, 148320, Note_on_c, 4, 46, 64
5, 148559, Note_on_c, 4, 46, 0
5, 148560, Note_on_c, 4, 46, 64
5, 148799, Note_on_c, 4, 46, 0
5, 148800, Note_on_c, 4, 46, 64
5, 149039, Note_on_c, 4, 46, 0
5, 149040, Note_on_c, 4, 46, 64
5, 149279, Note_on_c, 4, 46, 0
5, 149280, Note_on_c, 4, 46, 64
5, 149519, Note_on_c, 4, 46, 0
5, 149520, Note_on_c, 4, 46, 64
5, 149759, Note_on_c, 4, 46, 0
5, 149760, Note_on_c, 4, 46, 64
5, 149999, Note_on_c, 4, 46, 0
5, 150000, Note_on_c, 4, 46, 64
5, 150239, Note_on_c, 4, 46, 0
5, 150240, Note_on_c, 4, 46, 64
5, 150479, Note_on_c, 4, 46, 0
5, 150480, Note_on_c, 4, 46, 64
5, 150719, Note_on_c, 4, 46, 0
5, 150720, Note_on_c, 4, 46, 64
5, 150959, Note_on_c, 4, 46, 0
5, 150960, Note_on_c, 4, 46, 64
5, 151199, Note_on_c, 4, 46, 0
5, 151200, Note_on_c, 4, 46, 64
5, 151439, Note_on_c, 4, 46, 0
5, 151440, Note_on_c, 4, 46, 64
5, 151679, Note_on_c, 4, 46, 0
5, 151680, Note_on_c, 4, 39, 64
5, 151919, Note_on_c, 4, 39, 0
5, 151920, Note_on_c, 4, 39, 64
5, 152159, Note_on_c, 4, 39, 0
5, 152160, Note_on_c, 4, 46, 64
5, 152399, Note_on_c, 4, 46, 0
5, 152400, Note_on_c, 4, 46, 64
5, 152639, Note_on_c, 4, 46, 0
5, 152640, Note_on_c, 4, 39, 64
5, 152879, Note_on_c, 4, 39, 0
5, 152880, Note_on_c, 4, 39, 64
5, 153119, Note_on_c, 4, 39, 0
5, 153120, Note_on_c, 4, 39, 64
5, 153359, Note_on_c, 4, 39, 0
5, 153360, Note_on_c, 4, 39, 64
5, 153599, Note_on_c, 4, 39, 0
5, 153600, Note_on_c, 4, 39, 64
5, 153839, Note_on_c, 4, 39, 0
5, 153840, Note_on_c, 4, 39, 64
5, 154079, Note_on_c, 4, 39, 0
5, 154080, Note_on_c, 4, 39, 64
5, 154319, Note_on_c, 4, 39, 0
5, 154320, Note_on_c, 4, 39, 64
5, 154559, Note_on_c, 4, 39, 0
5, 154560, Note_on_c, 4, 39, 64
5, 154799, Note_on_c, 4, 39, 0
5, 154800, Note_on_c, 4, 39, 64
5, 155039, Note_on_c, 4, 39, 0
5, 155040, Note_on_c, 4, 39, 64
5, 155279, Note_on_c, 4, 39, 0
5, 155280, Note_on_c, 4, 39, 64
5, 155519, Note_on_c, 4, 39, 0
5, 155520, Note_on_c, 4, 39, 64
5, 157439, Note_on_c, 4, 39, 0
5, 159360, Note_on_c, 4, 53, 64
5, 173759, Note_on_c, 4, 53, 0
5, 173760, Note_on_c, 4, 48, 64
5, 193199, Note_on_c, 4, 48, 0
5, 193200, Note_on_c, 4, 65, 64
5, 193319, Note_on_c, 4, 65, 0
5, 193320, Note_on_c, 4, 63, 64
5, 193439, Note_on_c, 4, 63, 0
5, 193440, Note_on_c, 4, 61, 64
5, 193559, Note_on_c, 4, 61, 0
5, 193560, Note_on_c, 4, 60, 64
5, 193679, Note_on_c, 4, 60, 0
5, 193680, Note_on_c, 4, 58, 64
5, 193799, Note_on_c, 4, 58, 0
5, 193800, Note_on_c, 4, 56, 64
5, 193919, Note_on_c, 4, 56, 0
5, 193920, Note_on_c, 4, 55, 64
5, 194039, Note_on_c, 4, 55, 0
5, 194040, Note_on_c, 4, 53, 64
5, 194159, Note_on_c, 4, 53, 0
5, 194160, Note_on_c, 4, 52, 64
5, 194279, Note_on_c, 4, 52, 0
5, 194280, Note_on_c, 4, 50, 64
5, 194399, Note_on_c, 4, 50, 0
5, 194400, Note_on_c, 4, 48, 64
5, 194519, Note_on_c, 4, 48, 0
5, 194520, Note_on_c, 4, 46, 64
5, 194639, Note_on_c, 4, 46, 0
5, 194640, Note_on_c, 4, 44, 64
5, 194879, Note_on_c, 4, 44, 0
5, 194880, Note_on_c, 4, 46, 64
5, 195119, Note_on_c, 4, 46, 0
5, 195120, Note_on_c, 4, 48, 64
5, 195359, Note_on_c, 4, 48, 0
5, 195360, Note_on_c, 4, 41, 49
5, 195839, Note_on_c, 4, 41, 0
5, 202560, Note_on_c, 4, 48, 49
5, 211199, Note_on_c, 4, 48, 0
5, 211200, Note_on_c, 4, 43, 49
5, 222719, Note_on_c, 4, 43, 0
5, 222720, Note_on_c, 4, 43, 49
5, 222959, Note_on_c, 4, 43, 0
5, 223260, Note_on_c, 4, 59, 49
5, 223319, Note_on_c, 4, 59, 0
5, 223320, Note_on_c, 4, 60, 49
5, 223379, Note_on_c, 4, 60, 0
5, 223380, Note_on_c, 4, 62, 49
5, 223439, Note_on_c, 4, 62, 0
5, 223440, Note_on_c, 4, 53, 49
5, 223679, Note_on_c, 4, 53, 0
5, 223980, Note_on_c, 4, 50, 49
5, 224039, Note_on_c, 4, 50, 0
5, 224040, Note_on_c, 4, 51, 49
5, 224099, Note_on_c, 4, 51, 0
5, 224100, Note_on_c, 4, 53, 49
5, 224159, Note_on_c, 4, 53, 0
5, 224160, Note_on_c, 4, 43, 49
5, 224399, Note_on_c, 4, 43, 0
5, 224700, Note_on_c, 4, 47, 49
5, 224759, Note_on_c, 4, 47, 0
5, 224760, Note_on_c, 4, 48, 49
5, 224819, Note_on_c, 4, 48, 0
5, 224820, Note_on_c, 4, 50, 49
5, 224879, Note_on_c, 4, 50, 0
5, 224880, Note_on_c, 4, 51, 49
5, 225119, Note_on_c, 4, 51, 0
5, 225120, Note_on_c, 4, 53, 49
5, 225359, Note_on_c, 4, 53, 0
5, 225360, Note_on_c, 4, 55, 49
5, 225599, Note_on_c, 4, 55, 0
5, 225600, Note_on_c, 4, 48, 49
5, 226079, Note_on_c, 4, 48, 0
5, 226320, Note_on_c, 4, 43, 49
5, 226559, Note_on_c, 4, 43, 0
5, 227040, Note_on_c, 4, 43, 49
5, 227279, Note_on_c, 4, 43, 0
5, 227760, Note_on_c, 4, 43, 49
5, 227999, Note_on_c, 4, 43, 0
5, 228480, Note_on_c, 4, 43, 49
5, 228719, Note_on_c, 4, 43, 0
5, 229200, Note_on_c, 4, 63, 49
5, 229439, Note_on_c, 4, 63, 0
5, 229440, Note_on_c, 4, 60, 49
5, 229679, Note_on_c, 4, 60, 0
5, 229680, Note_on_c, 4, 56, 49
5, 229919, Note_on_c, 4, 56, 0
5, 229920, Note_on_c, 4, 53, 49
5, 230159, Note_on_c, 4, 53, 0
5, 230160, Note_on_c, 4, 50, 49
5, 230399, Note_on_c, 4, 50, 0
5, 230400, Note_on_c, 4, 47, 49
5, 230639, Note_on_c, 4, 47, 0
5, 230640, Note_on_c, 4, 43, 49
5, 231119, Note_on_c, 4, 43, 0
5, 245040, Note_on_c, 4, 51, 49
5, 245519, Note_on_c, 4, 51, 0
5, 247920, Note_on_c, 4, 46, 49
5, 247979, Note_on_c, 4, 46, 0
5, 247980, Note_on_c, 4, 46, 49
5, 248039, Note_on_c, 4, 46, 0
5, 248040, Note_on_c, 4, 46, 49
5, 248099, Note_on_c, 4, 46, 0
5, 248100, Note_on_c, 4, 46, 49
5, 248159, Note_on_c, 4, 46, 0
5, 248160, Note_on_c, 4, 46, 49
5, 248219, Note_on_c, 4, 46, 0
5, 248220, Note_on_c, 4, 46, 49
5, 248279, Note_on_c, 4, 46, 0
5, 248280, Note_on_c, 4, 46, 49
5, 248339, Note_on_c, 4, 46, 0
5, 248340, Note_on_c, 4, 46, 49
5, 248399, Note_on_c, 4, 46, 0
5, 248400, Note_on_c, 4, 46, 49
5, 248459, Note_on_c, 4, 46, 0
5, 248460, Note_on_c, 4, 46, 49
5, 248519, Note_on_c, 4, 46, 0
5, 248520, Note_on_c, 4, 46, 49
5, 248579, Note_on_c, 4, 46, 0
5, 248580, Note_on_c, 4, 46, 49
5, 248639, Note_on_c, 4, 46, 0
5, 248640, Note_on_c, 4, 48, 49
5, 249119, Note_on_c, 4, 48, 0
5, 250080, Note_on_c, 4, 53, 49
5, 250139, Note_on_c, 4, 53, 0
5, 250140, Note_on_c, 4, 53, 49
5, 250199, Note_on_c, 4, 53, 0
5, 250200, Note_on_c, 4, 53, 49
5, 250259, Note_on_c, 4, 53, 0
5, 250260, Note_on_c, 4, 53, 49
5, 250319, Note_on_c, 4, 53, 0
5, 250320, Note_on_c, 4, 53, 49
5, 250379, Note_on_c, 4, 53, 0
5, 250380, Note_on_c, 4, 53, 49
5, 250439, Note_on_c, 4, 53, 0
5, 250440, Note_on_c, 4, 53, 49
5, 250499, Note_on_c, 4, 53, 0
5, 250500, Note_on_c, 4, 53, 49
5, 250559, Note_on_c, 4, 53, 0
5, 250560, Note_on_c, 4, 53, 49
5, 250619, Note_on_c, 4, 53, 0
5, 250620, Note_on_c, 4, 53, 49
5, 250679, Note_on_c, 4, 53, 0
5, 250680, Note_on_c, 4, 53, 49
5, 250739, Note_on_c, 4, 53, 0
5, 250740, Note_on_c, 4, 53, 49
5, 250799, Note_on_c, 4, 53, 0
5, 250800, Note_on_c, 4, 53, 49
5, 251279, Note_on_c, 4, 53, 0
5, 251520, Note_on_c, 4, 46, 49
5, 251579, Note_on_c, 4, 46, 0
5, 251580, Note_on_c, 4, 46, 49
5, 251639, Note_on_c, 4, 46, 0
5, 251640, Note_on_c, 4, 46, 49
5, 251699, Note_on_c, 4, 46, 0
5, 251700, Note_on_c, 4, 46, 49
5, 251759, Note_on_c, 4, 46, 0
5, 251760, Note_on_c, 4, 46, 49
5, 251819, Note_on_c, 4, 46, 0
5, 251820, Note_on_c, 4, 46, 49
5, 251879, Note_on_c, 4, 46, 0
5, 251880, Note_on_c, 4, 46, 49
5, 251939, Note_on_c, 4, 46, 0
5, 251940, Note_on_c, 4, 46, 49
5, 251999, Note_on_c, 4, 46, 0
5, 252000, Note_on_c, 4, 46, 49
5, 252059, Note_on_c, 4, 46, 0
5, 252060, Note_on_c, 4, 46, 49
5, 252119, Note_on_c, 4, 46, 0
5, 252120, Note_on_c, 4, 46, 49
5, 252179, Note_on_c, 4, 46, 0
5, 252180, Note_on_c, 4, 46, 49
5, 252239, Note_on_c, 4, 46, 0
5, 252240, Note_on_c, 4, 46, 49
5, 252719, Note_on_c, 4, 46, 0
5, 252960, Note_on_c, 4, 48, 49
5, 253019, Note_on_c, 4, 48, 0
5, 253020, Note_on_c, 4, 48, 49
5, 253079, Note_on_c, 4, 48, 0
5, 253080, Note_on_c, 4, 48, 49
5, 253139, Note_on_c, 4, 48, 0
5, 253140, Note_on_c, 4, 48, 49
5, 253199, Note_on_c, 4, 48, 0
5, 253200, Note_on_c, 4, 48, 49
5, 253259, Note_on_c, 4, 48, 0
5, 253260, Note_on_c, 4, 48, 49
5, 253319, Note_on_c, 4, 48, 0
5, 253320, Note_on_c, 4, 48, 49
5, 253379, Note_on_c, 4, 48, 0
5, 253380, Note_on_c, 4, 48, 49
5, 253439, Note_on_c, 4, 48, 0
5, 253440, Note_on_c, 4, 48, 49
5, 253499, Note_on_c, 4, 48, 0
5, 253500, Note_on_c, 4, 48, 49
5, 253559, Note_on_c, 4, 48, 0
5, 253560, Note_on_c, 4, 48, 49
5, 253619, Note_on_c, 4, 48, 0
5, 253620, Note_on_c, 4, 48, 49
5, 253679, Note_on_c, 4, 48, 0
5, 253680, Note_on_c, 4, 48, 49
5, 254159, Note_on_c, 4, 48, 0
5, 254400, Note_on_c, 4, 49, 49
5, 254459, Note_on_c, 4, 49, 0
5, 254460, Note_on_c, 4, 49, 49
5, 254519, Note_on_c, 4, 49, 0
5, 254520, Note_on_c, 4, 49, 49
5, 254579, Note_on_c, 4, 49, 0
5, 254580, Note_on_c, 4, 49, 49
5, 254639, Note_on_c, 4, 49, 0
5, 254640, Note_on_c, 4, 49, 49
5, 254699, Note_on_c, 4, 49, 0
5, 254700, Note_on_c, 4, 49, 49
5, 254759, Note_on_c, 4, 49, 0
5, 254760, Note_on_c, 4, 49, 49
5, 254819, Note_on_c, 4, 49, 0
5, 254820, Note_on_c, 4, 49, 49
5, 254879, Note_on_c, 4, 49, 0
5, 254880, Note_on_c, 4, 49, 49
5, 254939, Note_on_c, 4, 49, 0
5, 254940, Note_on_c, 4, 49, 49
5, 254999, Note_on_c, 4, 49, 0
5, 255000, Note_on_c, 4, 49, 49
5, 255059, Note_on_c, 4, 49, 0
5, 255060, Note_on_c, 4, 49, 49
5, 255119, Note_on_c, 4, 49, 0
5, 255120, Note_on_c, 4, 49, 49
5, 255599, Note_on_c, 4, 49, 0
5, 255840, Note_on_c, 4, 52, 49
5, 255899, Note_on_c, 4, 52, 0
5, 255900, Note_on_c, 4, 52, 49
5, 255959, Note_on_c, 4, 52, 0
5, 255960, Note_on_c, 4, 52, 49
5, 256019, Note_on_c, 4, 52, 0
5, 256020, Note_on_c, 4, 52, 49
5, 256079, Note_on_c, 4, 52, 0
5, 256080, Note_on_c, 4, 52, 49
5, 256139, Note_on_c, 4, 52, 0
5, 256140, Note_on_c, 4, 52, 49
5, 256199, Note_on_c, 4, 52, 0
5, 256200, Note_on_c, 4, 52, 49
5, 256259, Note_on_c, 4, 52, 0
5, 256260, Note_on_c, 4, 52, 49
5, 256319, Note_on_c, 4, 52, 0
5, 256320, Note_on_c, 4, 52, 49
5, 256379, Note_on_c, 4, 52, 0
5, 256380, Note_on_c, 4, 52, 49
5, 256439, Note_on_c, 4, 52, 0
5, 256440, Note_on_c, 4, 52, 49
5, 256499, Note_on_c, 4, 52, 0
5, 256500, Note_on_c, 4, 52, 49
5, 256559, Note_on_c, 4, 52, 0
5, 256560, Note_on_c, 4, 48, 49
5, 257039, Note_on_c, 4, 48, 0
5, 257280, Note_on_c, 4, 53, 49
5, 257339, Note_on_c, 4, 53, 0
5, 257340, Note_on_c, 4, 53, 49
5, 257399, Note_on_c, 4, 53, 0
5, 257400, Note_on_c, 4, 53, 49
5, 257459, Note_on_c, 4, 53, 0
5, 257460, Note_on_c, 4, 53, 49
5, 257519, Note_on_c, 4, 53, 0
5, 257520, Note_on_c, 4, 53, 49
5, 257579, Note_on_c, 4, 53, 0
5, 257580, Note_on_c, 4, 53, 49
5, 257639, Note_on_c, 4, 53, 0
5, 257640, Note_on_c, 4, 53, 49
5, 257699, Note_on_c, 4, 53, 0
5, 257700, Note_on_c, 4, 53, 49
5, 257759, Note_on_c, 4, 53, 0
5, 257760, Note_on_c, 4, 53, 49
5, 257819, Note_on_c, 4, 53, 0
5, 257820, Note_on_c, 4, 53, 49
5, 257879, Note_on_c, 4, 53, 0
5, 257880, Note_on_c, 4, 53, 49
5, 257939, Note_on_c, 4, 53, 0
5, 257940, Note_on_c, 4, 53, 49
5, 257999, Note_on_c, 4, 53, 0
5, 258000, Note_on_c, 4, 53, 49
5, 258479, Note_on_c, 4, 53, 0
5, 259440, Note_on_c, 4, 48, 49
5, 259499, Note_on_c, 4, 48, 0
5, 259500, Note_on_c, 4, 48, 49
5, 259559, Note_on_c, 4, 48, 0
5, 259560, Note_on_c, 4, 48, 49
5, 259619, Note_on_c, 4, 48, 0
5, 259620, Note_on_c, 4, 48, 49
5, 259679, Note_on_c, 4, 48, 0
5, 259680, Note_on_c, 4, 48, 49
5, 259739, Note_on_c, 4, 48, 0
5, 259740, Note_on_c, 4, 48, 49
5, 259799, Note_on_c, 4, 48, 0
5, 259800, Note_on_c, 4, 48, 49
5, 259859, Note_on_c, 4, 48, 0
5, 259860, Note_on_c, 4, 48, 49
5, 259919, Note_on_c, 4, 48, 0
5, 259920, Note_on_c, 4, 48, 49
5, 259979, Note_on_c, 4, 48, 0
5, 259980, Note_on_c, 4, 48, 49
5, 260039, Note_on_c, 4, 48, 0
5, 260040, Note_on_c, 4, 48, 49
5, 260099, Note_on_c, 4, 48, 0
5, 260100, Note_on_c, 4, 48, 49
5, 260159, Note_on_c, 4, 48, 0
5, 260160, Note_on_c, 4, 46, 49
5, 260219, Note_on_c, 4, 46, 0
5, 260220, Note_on_c, 4, 46, 49
5, 260279, Note_on_c, 4, 46, 0
5, 260280, Note_on_c, 4, 46, 49
5, 260339, Note_on_c, 4, 46, 0
5, 260340, Note_on_c, 4, 46, 49
5, 260399, Note_on_c, 4, 46, 0
5, 260400, Note_on_c, 4, 46, 49
5, 260459, Note_on_c, 4, 46, 0
5, 260460, Note_on_c, 4, 46, 49
5, 260519, Note_on_c, 4, 46, 0
5, 260520, Note_on_c, 4, 46, 49
5, 260579, Note_on_c, 4, 46, 0
5, 260580, Note_on_c, 4, 46, 49
5, 260639, Note_on_c, 4, 46, 0
5, 260640, Note_on_c, 4, 46, 49
5, 260699, Note_on_c, 4, 46, 0
5, 260700, Note_on_c, 4, 46, 49
5, 260759, Note_on_c, 4, 46, 0
5, 260760, Note_on_c, 4, 46, 49
5, 260819, Note_on_c, 4, 46, 0
5, 260820, Note_on_c, 4, 46, 49
5, 260879, Note_on_c, 4, 46, 0
5, 260880, Note_on_c, 4, 44, 49
5, 260939, Note_on_c, 4, 44, 0
5, 260940, Note_on_c, 4, 41, 49
5, 260999, Note_on_c, 4, 41, 0
5, 261000, Note_on_c, 4, 41, 49
5, 261059, Note_on_c, 4, 41, 0
5, 261060, Note_on_c, 4, 41, 49
5, 261119, Note_on_c, 4, 41, 0
5, 261120, Note_on_c, 4, 41, 49
5, 261179, Note_on_c, 4, 41, 0
5, 261180, Note_on_c, 4, 41, 49
5, 261239, Note_on_c, 4, 41, 0
5, 261240, Note_on_c, 4, 41, 49
5, 261299, Note_on_c, 4, 41, 0
5, 261300, Note_on_c, 4, 41, 49
5, 261359, Note_on_c, 4, 41, 0
5, 261360, Note_on_c, 4, 41, 49
5, 261419, Note_on_c, 4, 41, 0
5, 261420, Note_on_c, 4, 41, 49
5, 261479, Note_on_c, 4, 41, 0
5, 261480, Note_on_c, 4, 41, 49
5, 261539, Note_on_c, 4, 41, 0
5, 261540, Note_on_c, 4, 41, 49
5, 261599, Note_on_c, 4, 41, 0
5, 261600, Note_on_c, 4, 36, 49
5, 261659, Note_on_c, 4, 36, 0
5, 261660, Note_on_c, 4, 36, 49
5, 261719, Note_on_c, 4, 36, 0
5, 261720, Note_on_c, 4, 36, 49
5, 261779, Note_on_c, 4, 36, 0
5, 261780, Note_on_c, 4, 36, 49
5, 261839, Note_on_c, 4, 36, 0
5, 261840, Note_on_c, 4, 36, 49
5, 261899, Note_on_c, 4, 36, 0
5, 261900, Note_on_c, 4, 36, 49
5, 261959, Note_on_c, 4, 36, 0
5, 261960, Note_on_c, 4, 36, 49
5, 262019, Note_on_c, 4, 36, 0
5, 262020, Note_on_c, 4, 36, 49
5, 262079, Note_on_c, 4, 36, 0
5, 262080, Note_on_c, 4, 36, 49
5, 262139, Note_on_c, 4, 36, 0
5, 262140, Note_on_c, 4, 36, 49
5, 262199, Note_on_c, 4, 36, 0
5, 262200, Note_on_c, 4, 36, 49
5, 262259, Note_on_c, 4, 36, 0
5, 262260, Note_on_c, 4, 36, 49
5, 262319, Note_on_c, 4, 36, 0
5, 262320, Note_on_c, 4, 36, 49
5, 262379, Note_on_c, 4, 36, 0
5, 262380, Note_on_c, 4, 36, 49
5, 262439, Note_on_c, 4, 36, 0
5, 262440, Note_on_c, 4, 36, 49
5, 262499, Note_on_c, 4, 36, 0
5, 262500, Note_on_c, 4, 36, 49
5, 262559, Note_on_c, 4, 36, 0
5, 262560, Note_on_c, 4, 36, 49
5, 262619, Note_on_c, 4, 36, 0
5, 262620, Note_on_c, 4, 36, 49
5, 262679, Note_on_c, 4, 36, 0
5, 262680, Note_on_c, 4, 36, 49
5, 262739, Note_on_c, 4, 36, 0
5, 262740, Note_on_c, 4, 36, 49
5, 262799, Note_on_c, 4, 36, 0
5, 262800, Note_on_c, 4, 36, 49
5, 262859, Note_on_c, 4, 36, 0
5, 262860, Note_on_c, 4, 36, 49
5, 262919, Note_on_c, 4, 36, 0
5, 262920, Note_on_c, 4, 36, 49
5, 262979, Note_on_c, 4, 36, 0
5, 262980, Note_on_c, 4, 36, 49
5, 263039, Note_on_c, 4, 36, 0
5, 263040, Note_on_c, 4, 41, 49
5, 263099, Note_on_c, 4, 41, 0
5, 263100, Note_on_c, 4, 41, 49
5, 263159, Note_on_c, 4, 41, 0
5, 263160, Note_on_c, 4, 41, 49
5, 263219, Note_on_c, 4, 41, 0
5, 263220, Note_on_c, 4, 41, 49
5, 263279, Note_on_c, 4, 41, 0
5, 263280, Note_on_c, 4, 41, 49
5, 263339, Note_on_c, 4, 41, 0
5, 263340, Note_on_c, 4, 41, 49
5, 263399, Note_on_c, 4, 41, 0
5, 263400, Note_on_c, 4, 41, 49
5, 263459, Note_on_c, 4, 41, 0
5, 263460, Note_on_c, 4, 41, 49
5, 263519, Note_on_c, 4, 41, 0
5, 263520, Note_on_c, 4, 41, 49
5, 263579, Note_on_c, 4, 41, 0
5, 263580, Note_on_c, 4, 41, 49
5, 263639, Note_on_c, 4, 41, 0
5, 263640, Note_on_c, 4, 41, 49
5, 263699, Note_on_c, 4, 41, 0
5, 263700, Note_on_c, 4, 41, 49
5, 263759, Note_on_c, 4, 41, 0
5, 263760, Note_on_c, 4, 41, 49
5, 264239, Note_on_c, 4, 41, 0
5, 265200, Note_on_c, 4, 48, 49
5, 265259, Note_on_c, 4, 48, 0
5, 265260, Note_on_c, 4, 48, 49
5, 265319, Note_on_c, 4, 48, 0
5, 265320, Note_on_c, 4, 48, 49
5, 265379, Note_on_c, 4, 48, 0
5, 265380, Note_on_c, 4, 48, 49
5, 265439, Note_on_c, 4, 48, 0
5, 265440, Note_on_c, 4, 48, 49
5, 265499, Note_on_c, 4, 48, 0
5, 265500, Note_on_c, 4, 48, 49
5, 265559, Note_on_c, 4, 48, 0
5, 265560, Note_on_c, 4, 48, 49
5, 265619, Note_on_c, 4, 48, 0
5, 265620, Note_on_c, 4, 48, 49
5, 265679, Note_on_c, 4, 48, 0
5, 265680, Note_on_c, 4, 48, 49
5, 265739, Note_on_c, 4, 48, 0
5, 265740, Note_on_c, 4, 48, 49
5, 265799, Note_on_c, 4, 48, 0
5, 265800, Note_on_c, 4, 48, 49
5, 265859, Note_on_c, 4, 48, 0
5, 265860, Note_on_c, 4, 48, 49
5, 265919, Note_on_c, 4, 48, 0
5, 265920, Note_on_c, 4, 46, 49
5, 265979, Note_on_c, 4, 46, 0
5, 265980, Note_on_c, 4, 46, 49
5, 266039, Note_on_c, 4, 46, 0
5, 266040, Note_on_c, 4, 46, 49
5, 266099, Note_on_c, 4, 46, 0
5, 266100, Note_on_c, 4, 46, 49
5, 266159, Note_on_c, 4, 46, 0
5, 266160, Note_on_c, 4, 46, 49
5, 266219, Note_on_c, 4, 46, 0
5, 266220, Note_on_c, 4, 46, 49
5, 266279, Note_on_c, 4, 46, 0
5, 266280, Note_on_c, 4, 46, 49
5, 266339, Note_on_c, 4, 46, 0
5, 266340, Note_on_c, 4, 46, 49
5, 266399, Note_on_c, 4, 46, 0
5, 266400, Note_on_c, 4, 46, 49
5, 266459, Note_on_c, 4, 46, 0
5, 266460, Note_on_c, 4, 46, 49
5, 266519, Note_on_c, 4, 46, 0
5, 266520, Note_on_c, 4, 46, 49
5, 266579, Note_on_c, 4, 46, 0
5, 266580, Note_on_c, 4, 46, 49
5, 266639, Note_on_c, 4, 46, 0
5, 266640, Note_on_c, 4, 44, 49
5, 266699, Note_on_c, 4, 44, 0
5, 266700, Note_on_c, 4, 41, 49
5, 266759, Note_on_c, 4, 41, 0
5, 266760, Note_on_c, 4, 41, 49
5, 266819, Note_on_c, 4, 41, 0
5, 266820, Note_on_c, 4, 41, 49
5, 266879, Note_on_c, 4, 41, 0
5, 266880, Note_on_c, 4, 41, 49
5, 266939, Note_on_c, 4, 41, 0
5, 266940, Note_on_c, 4, 41, 49
5, 266999, Note_on_c, 4, 41, 0
5, 267000, Note_on_c, 4, 41, 49
5, 267059, Note_on_c, 4, 41, 0
5, 267060, Note_on_c, 4, 41, 49
5, 267119, Note_on_c, 4, 41, 0
5, 267120, Note_on_c, 4, 41, 49
5, 267179, Note_on_c, 4, 41, 0
5, 267180, Note_on_c, 4, 41, 49
5, 267239, Note_on_c, 4, 41, 0
5, 267240, Note_on_c, 4, 41, 49
5, 267299, Note_on_c, 4, 41, 0
5, 267300, Note_on_c, 4, 41, 49
5, 267359, Note_on_c, 4, 41, 0
5, 267360, Note_on_c, 4, 36, 49
5, 267419, Note_on_c, 4, 36, 0
5, 267420, Note_on_c, 4, 36, 49
5, 267479, Note_on_c, 4, 36, 0
5, 267480, Note_on_c, 4, 36, 49
5, 267539, Note_on_c, 4, 36, 0
5, 267540, Note_on_c, 4, 36, 49
5, 267599, Note_on_c, 4, 36, 0
5, 267600, Note_on_c, 4, 36, 49
5, 267659, Note_on_c, 4, 36, 0
5, 267660, Note_on_c, 4, 36, 49
5, 267719, Note_on_c, 4, 36, 0
5, 267720, Note_on_c, 4, 36, 49
5, 267779, Note_on_c, 4, 36, 0
5, 267780, Note_on_c, 4, 36, 49
5, 267839, Note_on_c, 4, 36, 0
5, 267840, Note_on_c, 4, 36, 49
5, 267899, Note_on_c, 4, 36, 0
5, 267900, Note_on_c, 4, 36, 49
5, 267959, Note_on_c, 4, 36, 0
5, 267960, Note_on_c, 4, 36, 49
5, 268019, Note_on_c, 4, 36, 0
5, 268020, Note_on_c, 4, 36, 49
5, 268079, Note_on_c, 4, 36, 0
5, 268080, Note_on_c, 4, 36, 49
5, 268139, Note_on_c, 4, 36, 0
5, 268140, Note_on_c, 4, 36, 49
5, 268199, Note_on_c, 4, 36, 0
5, 268200, Note_on_c, 4, 36, 49
5, 268259, Note_on_c, 4, 36, 0
5, 268260, Note_on_c, 4, 36, 49
5, 268319, Note_on_c, 4, 36, 0
5, 268320, Note_on_c, 4, 36, 49
5, 268379, Note_on_c, 4, 36, 0
5, 268380, Note_on_c, 4, 36, 49
5, 268439, Note_on_c, 4, 36, 0
5, 268440, Note_on_c, 4, 36, 49
5, 268499, Note_on_c, 4, 36, 0
5, 268500, Note_on_c, 4, 36, 49
5, 268559, Note_on_c, 4, 36, 0
5, 268560, Note_on_c, 4, 36, 49
5, 268619, Note_on_c, 4, 36, 0
5, 268620, Note_on_c, 4, 36, 49
5, 268679, Note_on_c, 4, 36, 0
5, 268680, Note_on_c, 4, 36, 49
5, 268739, Note_on_c, 4, 36, 0
5, 268740, Note_on_c, 4, 36, 49
5, 268799, Note_on_c, 4, 36, 0
5, 268800, Note_on_c, 4, 41, 49
5, 269519, Note_on_c, 4, 41, 0
5, 269520, End_track
6, 0, Start_track
6, 0, Key_signature, -4, "major"
6, 0, Program_c, 5, 43
6, 2, Control_c, 5, 7, 100
6, 4, Control_c, 5, 10, 64
6, 6, Control_c, 5, 91, 30
6, 8, Control_c, 5, 93, 30
6, 42240, Note_on_c, 5, 65, 112
6, 42479, Note_on_c, 5, 65, 0
6, 43200, Note_on_c, 5, 58, 112
6, 43679, Note_on_c, 5, 58, 0
6, 44160, Note_on_c, 5, 63, 112
6, 44399, Note_on_c, 5, 63, 0
6, 45120, Note_on_c, 5, 56, 112
6, 45599, Note_on_c, 5, 56, 0
6, 46080, Note_on_c, 5, 61, 112
6, 46319, Note_on_c, 5, 61, 0
6, 47040, Note_on_c, 5, 55, 112
6, 47519, Note_on_c, 5, 55, 0
6, 48000, Note_on_c, 5, 60, 112
6, 48239, Note_on_c, 5, 60, 0
6, 48960, Note_on_c, 5, 65, 112
6, 49439, Note_on_c, 5, 65, 0
6, 62400, Note_on_c, 5, 60, 64
6, 62459, Note_on_c, 5, 60, 0
6, 62460, Note_on_c, 5, 60, 64
6, 62519, Note_on_c, 5, 60, 0
6, 62520, Note_on_c, 5, 60, 64
6, 62579, Note_on_c, 5, 60, 0
6, 62580, Note_on_c, 5, 60, 64
6, 62639, Note_on_c, 5, 60, 0
6, 62640, Note_on_c, 5, 60, 64
6, 62699, Note_on_c, 5, 60, 0
6, 62700, Note_on_c, 5, 60, 64
6, 62759, Note_on_c, 5, 60, 0
6, 62760, Note_on_c, 5, 60, 64
6, 62819, Note_on_c, 5, 60, 0
6, 62820, Note_on_c, 5, 60, 64
6, 62879, Note_on_c, 5, 60, 0
6, 62880, Note_on_c, 5, 60, 64
6, 62939, Note_on_c, 5, 60, 0
6, 62940, Note_on_c, 5, 60, 64
6, 62999, Note_on_c, 5, 60, 0
6, 63000, Note_on_c, 5, 60, 64
6, 63059, Note_on_c, 5, 60, 0
6, 63060, Note_on_c, 5, 60, 64
6, 63119, Note_on_c, 5, 60, 0
6, 63120, Note_on_c, 5, 60, 64
6, 63179, Note_on_c, 5, 60, 0
6, 63180, Note_on_c, 5, 60, 64
6, 63239, Note_on_c, 5, 60, 0
6, 63240, Note_on_c, 5, 60, 64
6, 63299, Note_on_c, 5, 60, 0
6, 63300, Note_on_c, 5, 60, 64
6, 63359, Note_on_c, 5, 60, 0
6, 63360, Note_on_c, 5, 65, 96
6, 63839, Note_on_c, 5, 65, 0
6, 64320, Note_on_c, 5, 65, 96
6, 64379, Note_on_c, 5, 65, 0
6, 64380, Note_on_c, 5, 65, 96
6, 64439, Note_on_c, 5, 65, 0
6, 64440, Note_on_c, 5, 65, 96
6, 64499, Note_on_c, 5, 65, 0
6, 64500, Note_on_c, 5, 65, 96
6, 64559, Note_on_c, 5, 65, 0
6, 64560, Note_on_c, 5, 65, 96
6, 64619, Note_on_c, 5, 65, 0
6, 64620, Note_on_c, 5, 65, 96
6, 64679, Note_on_c, 5, 65, 0
6, 64680, Note_on_c, 5, 65, 96
6, 64739, Note_on_c, 5, 65, 0
6, 64740, Note_on_c, 5, 65, 96
6, 64799, Note_on_c, 5, 65, 0
6, 64800, Note_on_c, 5, 65, 96
6, 64859, Note_on_c, 5, 65, 0
6, 64860, Note_on_c, 5, 65, 96
6, 64919, Note_on_c, 5, 65, 0
6, 64920, Note_on_c, 5, 65, 96
6, 64979, Note_on_c, 5, 65, 0
6, 64980, Note_on_c, 5, 65, 96
6, 65039, Note_on_c, 5, 65, 0
6, 65040, Note_on_c, 5, 65, 96
6, 65099, Note_on_c, 5, 65, 0
6, 65100, Note_on_c, 5, 65, 96
6, 65159, Note_on_c, 5, 65, 0
6, 65160, Note_on_c, 5, 65, 96
6, 65219, Note_on_c, 5, 65, 0
6, 65220, Note_on_c, 5, 65, 96
6, 65279, Note_on_c, 5, 65, 0
6, 65280, Note_on_c, 5, 58, 96
6, 65759, Note_on_c, 5, 58, 0
6, 66240, Note_on_c, 5, 67, 64
6, 66299, Note_on_c, 5, 67, 0
6, 66300, Note_on_c, 5, 67, 64
6, 66359, Note_on_c, 5, 67, 0
6, 66360, Note_on_c, 5, 67, 64
6, 66419, Note_on_c, 5, 67, 0
6, 66420, Note_on_c, 5, 67, 64
6, 66479, Note_on_c, 5, 67, 0
6, 66480, Note_on_c, 5, 67, 64
6, 66539, Note_on_c, 5, 67, 0
6, 66540, Note_on_c, 5, 67, 64
6, 66599, Note_on_c, 5, 67, 0
6, 66600, Note_on_c, 5, 67, 64
6, 66659, Note_on_c, 5, 67, 0
6, 66660, Note_on_c, 5, 67, 64
6, 66719, Note_on_c, 5, 67, 0
6, 66720, Note_on_c, 5, 67, 64
6, 66779, Note_on_c, 5, 67, 0
6, 66780, Note_on_c, 5, 67, 64
6, 66839, Note_on_c, 5, 67, 0
6, 66840, Note_on_c, 5, 67, 64
6, 66899, Note_on_c, 5, 67, 0
6, 66900, Note_on_c, 5, 67, 64
6, 66959, Note_on_c, 5, 67, 0
6, 66960, Note_on_c, 5, 67, 64
6, 67019, Note_on_c, 5, 67, 0
6, 67020, Note_on_c, 5, 67, 64
6, 67079, Note_on_c, 5, 67, 0
6, 67080, Note_on_c, 5, 67, 64
6, 67139, Note_on_c, 5, 67, 0
6, 67140, Note_on_c, 5, 67, 64
6, 67199, Note_on_c, 5, 67, 0
6, 67200, Note_on_c, 5, 60, 96
6, 67679, Note_on_c, 5, 60, 0
6, 68160, Note_on_c, 5, 58, 64
6, 68219, Note_on_c, 5, 58, 0
6, 68220, Note_on_c, 5, 58, 64
6, 68279, Note_on_c, 5, 58, 0
6, 68280, Note_on_c, 5, 58, 64
6, 68339, Note_on_c, 5, 58, 0
6, 68340, Note_on_c, 5, 58, 64
6, 68399, Note_on_c, 5, 58, 0
6, 68400, Note_on_c, 5, 58, 64
6, 68459, Note_on_c, 5, 58, 0
6, 68460, Note_on_c, 5, 58, 64
6, 68519, Note_on_c, 5, 58, 0
6, 68520, Note_on_c, 5, 58, 64
6, 68579, Note_on_c, 5, 58, 0
6, 68580, Note_on_c, 5, 58, 64
6, 68639, Note_on_c, 5, 58, 0
6, 68640, Note_on_c, 5, 58, 64
6, 68699, Note_on_c, 5, 58, 0
6, 68700, Note_on_c, 5, 58, 64
6, 68759, Note_on_c, 5, 58, 0
6, 68760, Note_on_c, 5, 58, 64
6, 68819, Note_on_c, 5, 58, 0
6, 68820, Note_on_c, 5, 58, 64
6, 68879, Note_on_c, 5, 58, 0
6, 68880, Note_on_c, 5, 58, 64
6, 68939, Note_on_c, 5, 58, 0
6, 68940, Note_on_c, 5, 58, 64
6, 68999, Note_on_c, 5, 58, 0
6, 69000, Note_on_c, 5, 58, 64
6, 69059, Note_on_c, 5, 58, 0
6, 69060, Note_on_c, 5, 58, 64
6, 69119, Note_on_c, 5, 58, 0
6, 69120, Note_on_c, 5, 63, 96
6, 69599, Note_on_c, 5, 63, 0
6, 70080, Note_on_c, 5, 56, 96
6, 70139, Note_on_c, 5, 56, 0
6, 70140, Note_on_c, 5, 56, 96
6, 70199, Note_on_c, 5, 56, 0
6, 70200, Note_on_c, 5, 56, 96
6, 70259, Note_on_c, 5, 56, 0
6, 70260, Note_on_c, 5, 56, 96
6, 70319, Note_on_c, 5, 56, 0
6, 70320, Note_on_c, 5, 56, 96
6, 70379, Note_on_c, 5, 56, 0
6, 70380, Note_on_c, 5, 56, 96
6, 70439, Note_on_c, 5, 56, 0
6, 70440, Note_on_c, 5, 56, 96
6, 70499, Note_on_c, 5, 56, 0
6, 70500, Note_on_c, 5, 56, 96
6, 70559, Note_on_c, 5, 56, 0
6, 70560, Note_on_c, 5, 56, 96
6, 70619, Note_on_c, 5, 56, 0
6, 70620, Note_on_c, 5, 56, 96
6, 70679, Note_on_c, 5, 56, 0
6, 70680, Note_on_c, 5, 56, 96
6, 70739, Note_on_c, 5, 56, 0
6, 70740, Note_on_c, 5, 56, 96
6, 70799, Note_on_c, 5, 56, 0
6, 70800, Note_on_c, 5, 56, 96
6, 70859, Note_on_c, 5, 56, 0
6, 70860, Note_on_c, 5, 56, 96
6, 70919, Note_on_c, 5, 56, 0
6, 70920, Note_on_c, 5, 56, 96
6, 70979, Note_on_c, 5, 56, 0
6, 70980, Note_on_c, 5, 56, 96
6, 71039, Note_on_c, 5, 56, 0
6, 71040, Note_on_c, 5, 58, 96
6, 71099, Note_on_c, 5, 58, 0
6, 71100, Note_on_c, 5, 58, 96
6, 71159, Note_on_c, 5, 58, 0
6, 71160, Note_on_c, 5, 58, 96
6, 71219, Note_on_c, 5, 58, 0
6, 71220, Note_on_c, 5, 58, 96
6, 71279, Note_on_c, 5, 58, 0
6, 71280, Note_on_c, 5, 58, 96
6, 71339, Note_on_c, 5, 58, 0
6, 71340, Note_on_c, 5, 58, 96
6, 71399, Note_on_c, 5, 58, 0
6, 71400, Note_on_c, 5, 58, 96
6, 71459, Note_on_c, 5, 58, 0
6, 71460, Note_on_c, 5, 58, 96
6, 71519, Note_on_c, 5, 58, 0
6, 71520, Note_on_c, 5, 58, 96
6, 71579, Note_on_c, 5, 58, 0
6, 71580, Note_on_c, 5, 58, 96
6, 71639, Note_on_c, 5, 58, 0
6, 71640, Note_on_c, 5, 58, 96
6, 71699, Note_on_c, 5, 58, 0
6, 71700, Note_on_c, 5, 58, 96
6, 71759, Note_on_c, 5, 58, 0
6, 71760, Note_on_c, 5, 58, 96
6, 71819, Note_on_c, 5, 58, 0
6, 71820, Note_on_c, 5, 58, 96
6, 71879, Note_on_c, 5, 58, 0
6, 71880, Note_on_c, 5, 58, 96
6, 71939, Note_on_c, 5, 58, 0
6, 71940, Note_on_c, 5, 58, 96
6, 71999, Note_on_c, 5, 58, 0
6, 72000, Note_on_c, 5, 63, 96
6, 72479, Note_on_c, 5, 63, 0
6, 106560, Note_on_c, 5, 65, 112
6, 106799, Note_on_c, 5, 65, 0
6, 107520, Note_on_c, 5, 58, 112
6, 107999, Note_on_c, 5, 58, 0
6, 108480, Note_on_c, 5, 63, 112
6, 108719, Note_on_c, 5, 63, 0
6, 109440, Note_on_c, 5, 56, 112
6, 109919, Note_on_c, 5, 56, 0
6, 110400, Note_on_c, 5, 61, 112
6, 110639, Note_on_c, 5, 61, 0
6, 111360, Note_on_c, 5, 55, 112
6, 111839, Note_on_c, 5, 55, 0
6, 112320, Note_on_c, 5, 60, 112
6, 112559, Note_on_c, 5, 60, 0
6, 113280, Note_on_c, 5, 65, 112
6, 113399, Note_on_c, 5, 65, 0
6, 113760, Note_on_c, 5, 65, 112
6, 113879, Note_on_c, 5, 65, 0
6, 114240, Note_on_c, 5, 58, 112
6, 114359, Note_on_c, 5, 58, 0
6, 114720, Note_on_c, 5, 58, 112
6, 114839, Note_on_c, 5, 58, 0
6, 115200, Note_on_c, 5, 60, 112
6, 115319, Note_on_c, 5, 60, 0
6, 115680, Note_on_c, 5, 60, 112
6, 115799, Note_on_c, 5, 60, 0
6, 116160, Note_on_c, 5, 53, 112
6, 116279, Note_on_c, 5, 53, 0
6, 116640, Note_on_c, 5, 65, 112
6, 116759, Note_on_c, 5, 65, 0
6, 117120, Note_on_c, 5, 58, 112
6, 117239, Note_on_c, 5, 58, 0
6, 117600, Note_on_c, 5, 58, 112
6, 117719, Note_on_c, 5, 58, 0
6, 118080, Note_on_c, 5, 60, 112
6, 118199, Note_on_c, 5, 60, 0
6, 118560, Note_on_c, 5, 60, 112
6, 118679, Note_on_c, 5, 60, 0
6, 119040, Note_on_c, 5, 53, 112
6, 120959, Note_on_c, 5, 53, 0
6, 122880, Key_signature, -3, "major"
6, 122880, Note_on_c, 5, 63, 64
6, 123119, Note_on_c, 5, 63, 0
6, 123120, Note_on_c, 5, 63, 64
6, 123359, Note_on_c, 5, 63, 0
6, 123360, Note_on_c, 5, 63, 64
6, 123599, Note_on_c, 5, 63, 0
6, 123600, Note_on_c, 5, 63, 64
6, 123839, Note_on_c, 5, 63, 0
6, 123840, Note_on_c, 5, 58, 64
6, 124079, Note_on_c, 5, 58, 0
6, 124080, Note_on_c, 5, 58, 64
6, 124319, Note_on_c, 5, 58, 0
6, 124320, Note_on_c, 5, 58, 64
6, 124559, Note_on_c, 5, 58, 0
6, 124560, Note_on_c, 5, 58, 64
6, 124799, Note_on_c, 5, 58, 0
6, 124800, Note_on_c, 5, 58, 64
6, 125039, Note_on_c, 5, 58, 0
6, 125040, Note_on_c, 5, 58, 64
6, 125279, Note_on_c, 5, 58, 0
6, 125280, Note_on_c, 5, 58, 64
6, 125519, Note_on_c, 5, 58, 0
6, 125520, Note_on_c, 5, 58, 64
6, 125759, Note_on_c, 5, 58, 0
6, 125760, Note_on_c, 5, 63, 64
6, 125999, Note_on_c, 5, 63, 0
6, 126000, Note_on_c, 5, 63, 64
6, 126239, Note_on_c, 5, 63, 0
6, 126240, Note_on_c, 5, 63, 64
6, 126479, Note_on_c, 5, 63, 0
6, 126480, Note_on_c, 5, 63, 64
6, 126719, Note_on_c, 5, 63, 0
6, 126720, Note_on_c, 5, 62, 64
6, 126959, Note_on_c, 5, 62, 0
6, 126960, Note_on_c, 5, 62, 64
6, 127199, Note_on_c, 5, 62, 0
6, 127200, Note_on_c, 5, 62, 64
6, 127439, Note_on_c, 5, 62, 0
6, 127440, Note_on_c, 5, 62, 64
6, 127679, Note_on_c, 5, 62, 0
6, 127680, Note_on_c, 5, 60, 64
6, 127919, Note_on_c, 5, 60, 0
6, 127920, Note_on_c, 5, 60, 64
6, 128159, Note_on_c, 5, 60, 0
6, 128160, Note_on_c, 5, 60, 64
6, 128399, Note_on_c, 5, 60, 0
6, 128400, Note_on_c, 5, 60, 64
6, 128639, Note_on_c, 5, 60, 0
6, 128640, Note_on_c, 5, 58, 64
6, 128879, Note_on_c, 5, 58, 0
6, 128880, Note_on_c, 5, 58, 64
6, 129119, Note_on_c, 5, 58, 0
6, 129120, Note_on_c, 5, 58, 64
6, 129359, Note_on_c, 5, 58, 0
6, 129360, Note_on_c, 5, 58, 64
6, 129599, Note_on_c, 5, 58, 0
6, 129600, Note_on_c, 5, 56, 64
6, 129839, Note_on_c, 5, 56, 0
6, 129840, Note_on_c, 5, 56, 64
6, 130079, Note_on_c, 5, 56, 0
6, 130080, Note_on_c, 5, 57, 64
6, 130319, Note_on_c, 5, 57, 0
6, 130320, Note_on_c, 5, 57, 64
6, 130559, Note_on_c, 5, 57, 0
6, 130560, Note_on_c, 5, 58, 64
6, 130799, Note_on_c, 5, 58, 0
6, 130800, Note_on_c, 5, 58, 64
6, 131039, Note_on_c, 5, 58, 0
6, 131040, Note_on_c, 5, 58, 64
6, 131279, Note_on_c, 5, 58, 0
6, 131280, Note_on_c, 5, 58, 64
6, 131519, Note_on_c, 5, 58, 0
6, 131520, Note_on_c, 5, 58, 64
6, 131759, Note_on_c, 5, 58, 0
6, 131760, Note_on_c, 5, 58, 64
6, 131999, Note_on_c, 5, 58, 0
6, 132000, Note_on_c, 5, 58, 64
6, 132239, Note_on_c, 5, 58, 0
6, 132240, Note_on_c, 5, 58, 64
6, 132479, Note_on_c, 5, 58, 0
6, 132480, Note_on_c, 5, 63, 64
6, 132719, Note_on_c, 5, 63, 0
6, 132720, Note_on_c, 5, 63, 64
6, 132959, Note_on_c, 5, 63, 0
6, 132960, Note_on_c, 5, 63, 64
6, 133199, Note_on_c, 5, 63, 0
6, 133200, Note_on_c, 5, 63, 64
6, 133439, Note_on_c, 5, 63, 0
6, 133440, Note_on_c, 5, 63, 64
6, 133679, Note_on_c, 5, 63, 0
6, 133680, Note_on_c, 5, 63, 64
6, 133919, Note_on_c, 5, 63, 0
6, 133920, Note_on_c, 5, 63, 64
6, 134159, Note_on_c, 5, 63, 0
6, 134160, Note_on_c, 5, 63, 64
6, 134399, Note_on_c, 5, 63, 0
6, 134400, Note_on_c, 5, 58, 64
6, 134639, Note_on_c, 5, 58, 0
6, 134640, Note_on_c, 5, 58, 64
6, 134879, Note_on_c, 5, 58, 0
6, 134880, Note_on_c, 5, 58, 64
6, 135119, Note_on_c, 5, 58, 0
6, 135120, Note_on_c, 5, 58, 64
6, 135359, Note_on_c, 5, 58, 0
6, 135360, Note_on_c, 5, 53, 64
6, 135599, Note_on_c, 5, 53, 0
6, 135600, Note_on_c, 5, 53, 64
6, 135839, Note_on_c, 5, 53, 0
6, 135840, Note_on_c, 5, 53, 64
6, 136079, Note_on_c, 5, 53, 0
6, 136080, Note_on_c, 5, 53, 64
6, 136319, Note_on_c, 5, 53, 0
6, 136320, Note_on_c, 5, 53, 64
6, 136559, Note_on_c, 5, 53, 0
6, 136560, Note_on_c, 5, 53, 64
6, 136799, Note_on_c, 5, 53, 0
6, 136800, Note_on_c, 5, 53, 64
6, 137039, Note_on_c, 5, 53, 0
6, 137040, Note_on_c, 5, 53, 64
6, 137279, Note_on_c, 5, 53, 0
6, 137280, Note_on_c, 5, 58, 64
6, 137519, Note_on_c, 5, 58, 0
6, 137520, Note_on_c, 5, 58, 64
6, 137759, Note_on_c, 5, 58, 0
6, 137760, Note_on_c, 5, 58, 64
6, 137999, Note_on_c, 5, 58, 0
6, 138000, Note_on_c, 5, 58, 64
6, 138239, Note_on_c, 5, 58, 0
6, 138240, Note_on_c, 5, 58, 64
6, 138479, Note_on_c, 5, 58, 0
6, 138480, Note_on_c, 5, 58, 64
6, 138719, Note_on_c, 5, 58, 0
6, 138720, Note_on_c, 5, 58, 64
6, 138959, Note_on_c, 5, 58, 0
6, 138960, Note_on_c, 5, 58, 64
6, 139199, Note_on_c, 5, 58, 0
6, 139200, Note_on_c, 5, 53, 64
6, 139439, Note_on_c, 5, 53, 0
6, 139440, Note_on_c, 5, 53, 64
6, 139679, Note_on_c, 5, 53, 0
6, 139680, Note_on_c, 5, 53, 64
6, 139919, Note_on_c, 5, 53, 0
6, 139920, Note_on_c, 5, 53, 64
6, 140159, Note_on_c, 5, 53, 0
6, 140160, Note_on_c, 5, 53, 64
6, 140399, Note_on_c, 5, 53, 0
6, 140400, Note_on_c, 5, 53, 64
6, 140639, Note_on_c, 5, 53, 0
6, 140640, Note_on_c, 5, 53, 64
6, 140879, Note_on_c, 5, 53, 0
6, 140880, Note_on_c, 5, 53, 64
6, 141119, Note_on_c, 5, 53, 0
6, 141120, Note_on_c, 5, 58, 64
6, 141359, Note_on_c, 5, 58, 0
6, 141360, Note_on_c, 5, 58, 64
6, 141599, Note_on_c, 5, 58, 0
6, 141600, Note_on_c, 5, 58, 64
6, 141839, Note_on_c, 5, 58, 0
6, 141840, Note_on_c, 5, 58, 64
6, 142079, Note_on_c, 5, 58, 0
6, 142080, Note_on_c, 5, 58, 64
6, 142319, Note_on_c, 5, 58, 0
6, 142320, Note_on_c, 5, 58, 64
6, 142559, Note_on_c, 5, 58, 0
6, 142560, Note_on_c, 5, 58, 64
6, 142799, Note_on_c, 5, 58, 0
6, 142800, Note_on_c, 5, 58, 64
6, 143039, Note_on_c, 5, 58, 0
6, 143040, Note_on_c, 5, 63, 64
6, 143279, Note_on_c, 5, 63, 0
6, 143280, Note_on_c, 5, 63, 64
6, 143519, Note_on_c, 5, 63, 0
6, 143520, Note_on_c, 5, 63, 64
6, 143759, Note_on_c, 5, 63, 0
6, 143760, Note_on_c, 5, 63, 64
6, 143999, Note_on_c, 5, 63, 0
6, 144000, Note_on_c, 5, 56, 64
6, 144239, Note_on_c, 5, 56, 0
6, 144240, Note_on_c, 5, 56, 64
6, 144479, Note_on_c, 5, 56, 0
6, 144480, Note_on_c, 5, 56, 64
6, 144719, Note_on_c, 5, 56, 0
6, 144720, Note_on_c, 5, 56, 64
6, 144959, Note_on_c, 5, 56, 0
6, 144960, Note_on_c, 5, 58, 64
6, 145199, Note_on_c, 5, 58, 0
6, 145200, Note_on_c, 5, 58, 64
6, 145439, Note_on_c, 5, 58, 0
6, 145440, Note_on_c, 5, 58, 64
6, 145679, Note_on_c, 5, 58, 0
6, 145680, Note_on_c, 5, 58, 64
6, 145919, Note_on_c, 5, 58, 0
6, 145920, Note_on_c, 5, 60, 64
6, 146159, Note_on_c, 5, 60, 0
6, 146160, Note_on_c, 5, 60, 64
6, 146399, Note_on_c, 5, 60, 0
6, 146400, Note_on_c, 5, 60, 64
6, 146639, Note_on_c, 5, 60, 0
6, 146640, Note_on_c, 5, 60, 64
6, 146879, Note_on_c, 5, 60, 0
6, 146880, Note_on_c, 5, 58, 64
6, 147119, Note_on_c, 5, 58, 0
6, 147120, Note_on_c, 5, 58, 64
6, 147359, Note_on_c, 5, 58, 0
6, 147360, Note_on_c, 5, 58, 64
6, 147599, Note_on_c, 5, 58, 0
6, 147600, Note_on_c, 5, 58, 64
6, 147839, Note_on_c, 5, 58, 0
6, 147840, Note_on_c, 5, 58, 64
6, 148079, Note_on_c, 5, 58, 0
6, 148080, Note_on_c, 5, 58, 64
6, 148319, Note_on_c, 5, 58, 0
6, 148320, Note_on_c, 5, 58, 64
6, 148559, Note_on_c, 5, 58, 0
6, 148560, Note_on_c, 5, 58, 64
6, 148799, Note_on_c, 5, 58, 0
6, 148800, Note_on_c, 5, 58, 64
6, 149039, Note_on_c, 5, 58, 0
6, 149040, Note_on_c, 5, 58, 64
6, 149279, Note_on_c, 5, 58, 0
6, 149280, Note_on_c, 5, 58, 64
6, 149519, Note_on_c, 5, 58, 0
6, 149520, Note_on_c, 5, 58, 64
6, 149759, Note_on_c, 5, 58, 0
6, 149760, Note_on_c, 5, 58, 64
6, 149999, Note_on_c, 5, 58, 0
6, 150000, Note_on_c, 5, 58, 64
6, 150239, Note_on_c, 5, 58, 0
6, 150240, Note_on_c, 5, 58, 64
6, 150479, Note_on_c, 5, 58, 0
6, 150480, Note_on_c, 5, 58, 64
6, 150719, Note_on_c, 5, 58, 0
6, 150720, Note_on_c, 5, 58, 64
6, 150959, Note_on_c, 5, 58, 0
6, 150960, Note_on_c, 5, 58, 64
6, 151199, Note_on_c, 5, 58, 0
6, 151200, Note_on_c, 5, 58, 64
6, 151439, Note_on_c, 5, 58, 0
6, 151440, Note_on_c, 5, 58, 64
6, 151679, Note_on_c, 5, 58, 0
6, 151680, Note_on_c, 5, 51, 64
6, 151919, Note_on_c, 5, 51, 0
6, 151920, Note_on_c, 5, 51, 64
6, 152159, Note_on_c, 5, 51, 0
6, 152160, Note_on_c, 5, 58, 64
6, 152399, Note_on_c, 5, 58, 0
6, 152400, Note_on_c, 5, 58, 64
6, 152639, Note_on_c, 5, 58, 0
6, 152640, Note_on_c, 5, 51, 64
6, 152879, Note_on_c, 5, 51, 0
6, 152880, Note_on_c, 5, 51, 64
6, 153119, Note_on_c, 5, 51, 0
6, 153120, Note_on_c, 5, 51, 64
6, 153359, Note_on_c, 5, 51, 0
6, 153360, Note_on_c, 5, 51, 64
6, 153599, Note_on_c, 5, 51, 0
6, 153600, Note_on_c, 5, 63, 64
6, 153839, Note_on_c, 5, 63, 0
6, 153840, Note_on_c, 5, 63, 64
6, 154079, Note_on_c, 5, 63, 0
6, 154080, Note_on_c, 5, 63, 64
6, 154319, Note_on_c, 5, 63, 0
6, 154320, Note_on_c, 5, 63, 64
6, 154559, Note_on_c, 5, 63, 0
6, 154560, Note_on_c, 5, 63, 64
6, 154799, Note_on_c, 5, 63, 0
6, 154800, Note_on_c, 5, 63, 64
6, 155039, Note_on_c, 5, 63, 0
6, 155040, Note_on_c, 5, 63, 64
6, 155279, Note_on_c, 5, 63, 0
6, 155280, Note_on_c, 5, 63, 64
6, 155519, Note_on_c, 5, 63, 0
6, 155520, Note_on_c, 5, 63, 64
6, 157439, Note_on_c, 5, 63, 0
6, 159360, Key_signature, -4, "major"
6, 223440, Note_on_c, 5, 65, 96
6, 223679, Note_on_c, 5, 65, 0
6, 224160, Note_on_c, 5, 55, 96
6, 224399, Note_on_c, 5, 55, 0
6, 224880, Note_on_c, 5, 63, 96
6, 225119, Note_on_c, 5, 63, 0
6, 225120, Note_on_c, 5, 65, 96
6, 225359, Note_on_c, 5, 65, 0
6, 225360, Note_on_c, 5, 67, 96
6, 225599, Note_on_c, 5, 67, 0
6, 225600, Note_on_c, 5, 60, 96
6, 226079, Note_on_c, 5, 60, 0
6, 247920, Note_on_c, 5, 58, 96
6, 247979, Note_on_c, 5, 58, 0
6, 247980, Note_on_c, 5, 58, 96
6, 248039, Note_on_c, 5, 58, 0
6, 248040, Note_on_c, 5, 58, 96
6, 248099, Note_on_c, 5, 58, 0
6, 248100, Note_on_c, 5, 58, 96
6, 248159, Note_on_c, 5, 58, 0
6, 248160, Note_on_c, 5, 58, 96
6, 248219, Note_on_c, 5, 58, 0
6, 248220, Note_on_c, 5, 58, 96
6, 248279, Note_on_c, 5, 58, 0
6, 248280, Note_on_c, 5, 58, 96
6, 248339, Note_on_c, 5, 58, 0
6, 248340, Note_on_c, 5, 58, 96
6, 248399, Note_on_c, 5, 58, 0
6, 248400, Note_on_c, 5, 58, 96
6, 248459, Note_on_c, 5, 58, 0
6, 248460, Note_on_c, 5, 58, 96
6, 248519, Note_on_c, 5, 58, 0
6, 248520, Note_on_c, 5, 58, 96
6, 248579, Note_on_c, 5, 58, 0
6, 248580, Note_on_c, 5, 58, 96
6, 248639, Note_on_c, 5, 58, 0
6, 248640, Note_on_c, 5, 60, 96
6, 249119, Note_on_c, 5, 60, 0
6, 250080, Note_on_c, 5, 65, 96
6, 250139, Note_on_c, 5, 65, 0
6, 250140, Note_on_c, 5, 65, 96
6, 250199, Note_on_c, 5, 65, 0
6, 250200, Note_on_c, 5, 65, 96
6, 250259, Note_on_c, 5, 65, 0
6, 250260, Note_on_c, 5, 65, 96
6, 250319, Note_on_c, 5, 65, 0
6, 250320, Note_on_c, 5, 65, 96
6, 250379, Note_on_c, 5, 65, 0
6, 250380, Note_on_c, 5, 65, 96
6, 250439, Note_on_c, 5, 65, 0
6, 250440, Note_on_c, 5, 65, 96
6, 250499, Note_on_c, 5, 65, 0
6, 250500, Note_on_c, 5, 65, 96
6, 250559, Note_on_c, 5, 65, 0
6, 250560, Note_on_c, 5, 65, 96
6, 250619, Note_on_c, 5, 65, 0
6, 250620, Note_on_c, 5, 65, 96
6, 250679, Note_on_c, 5, 65, 0
6, 250680, Note_on_c, 5, 65, 96
6, 250739, Note_on_c, 5, 65, 0
6, 250740, Note_on_c, 5, 65, 96
6, 250799, Note_on_c, 5, 65, 0
6, 250800, Note_on_c, 5, 65, 96
6, 251279, Note_on_c, 5, 65, 0
6, 251520, Note_on_c, 5, 58, 96
6, 251579, Note_on_c, 5, 58, 0
6, 251580, Note_on_c, 5, 58, 96
6, 251639, Note_on_c, 5, 58, 0
6, 251640, Note_on_c, 5, 58, 96
6, 251699, Note_on_c, 5, 58, 0
6, 251700, Note_on_c, 5, 58, 96
6, 251759, Note_on_c, 5, 58, 0
6, 251760, Note_on_c, 5, 58, 96
6, 251819, Note_on_c, 5, 58, 0
6, 251820, Note_on_c, 5, 58, 96
6, 251879, Note_on_c, 5, 58, 0
6, 251880, Note_on_c, 5, 58, 96
6, 251939, Note_on_c, 5, 58, 0
6, 251940, Note_on_c, 5, 58, 96
6, 251999, Note_on_c, 5, 58, 0
6, 252000, Note_on_c, 5, 58, 96
6, 252059, Note_on_c, 5, 58, 0
6, 252060, Note_on_c, 5, 58, 96
6, 252119, Note_on_c, 5, 58, 0
6, 252120, Note_on_c, 5, 58, 96
6, 252179, Note_on_c, 5, 58, 0
6, 252180, Note_on_c, 5, 58, 96
6, 252239, Note_on_c, 5, 58, 0
6, 252240, Note_on_c, 5, 58, 96
6, 252719, Note_on_c, 5, 58, 0
6, 252960, Note_on_c, 5, 60, 96
6, 253019, Note_on_c, 5, 60, 0
6, 253020, Note_on_c, 5, 60, 96
6, 253079, Note_on_c, 5, 60, 0
6, 253080, Note_on_c, 5, 60, 96
6, 253139, Note_on_c, 5, 60, 0
6, 253140, Note_on_c, 5, 60, 96
6, 253199, Note_on_c, 5, 60, 0
6, 253200, Note_on_c, 5, 60, 96
6, 253259, Note_on_c, 5, 60, 0
6, 253260, Note_on_c, 5, 60, 96
6, 253319, Note_on_c, 5, 60, 0
6, 253320, Note_on_c, 5, 60, 96
6, 253379, Note_on_c, 5, 60, 0
6, 253380, Note_on_c, 5, 60, 96
6, 253439, Note_on_c, 5, 60, 0
6, 253440, Note_on_c, 5, 60, 96
6, 253499, Note_on_c, 5, 60, 0
6, 253500, Note_on_c, 5, 60, 96
6, 253559, Note_on_c, 5, 60, 0
6, 253560, Note_on_c, 5, 60, 96
6, 253619, Note_on_c, 5, 60, 0
6, 253620, Note_on_c, 5, 60, 96
6, 253679, Note_on_c, 5, 60, 0
6, 253680, Note_on_c, 5, 60, 96
6, 254159, Note_on_c, 5, 60, 0
6, 254400, Note_on_c, 5, 61, 96
6, 254459, Note_on_c, 5, 61, 0
6, 254460, Note_on_c, 5, 61, 96
6, 254519, Note_on_c, 5, 61, 0
6, 254520, Note_on_c, 5, 61, 96
6, 254579, Note_on_c, 5, 61, 0
6, 254580, Note_on_c, 5, 61, 96
6, 254639, Note_on_c, 5, 61, 0
6, 254640, Note_on_c, 5, 61, 96
6, 254699, Note_on_c, 5, 61, 0
6, 254700, Note_on_c, 5, 61, 96
6, 254759, Note_on_c, 5, 61, 0
6, 254760, Note_on_c, 5, 61, 96
6, 254819, Note_on_c, 5, 61, 0
6, 254820, Note_on_c, 5, 61, 96
6, 254879, Note_on_c, 5, 61, 0
6, 254880, Note_on_c, 5, 61, 96
6, 254939, Note_on_c, 5, 61, 0
6, 254940, Note_on_c, 5, 61, 96
6, 254999, Note_on_c, 5, 61, 0
6, 255000, Note_on_c, 5, 61, 96
6, 255059, Note_on_c, 5, 61, 0
6, 255060, Note_on_c, 5, 61, 96
6, 255119, Note_on_c, 5, 61, 0
6, 255120, Note_on_c, 5, 61, 96
6, 255599, Note_on_c, 5, 61, 0
6, 255840, Note_on_c, 5, 64, 96
6, 255899, Note_on_c, 5, 64, 0
6, 255900, Note_on_c, 5, 64, 96
6, 255959, Note_on_c, 5, 64, 0
6, 255960, Note_on_c, 5, 64, 96
6, 256019, Note_on_c, 5, 64, 0
6, 256020, Note_on_c, 5, 64, 96
6, 256079, Note_on_c, 5, 64, 0
6, 256080, Note_on_c, 5, 64, 96
6, 256139, Note_on_c, 5, 64, 0
6, 256140, Note_on_c, 5, 64, 96
6, 256199, Note_on_c, 5, 64, 0
6, 256200, Note_on_c, 5, 64, 96
6, 256259, Note_on_c, 5, 64, 0
6, 256260, Note_on_c, 5, 64, 96
6, 256319, Note_on_c, 5, 64, 0
6, 256320, Note_on_c, 5, 64, 96
6, 256379, Note_on_c, 5, 64, 0
6, 256380, Note_on_c, 5, 64, 96
6, 256439, Note_on_c, 5, 64, 0
6, 256440, Note_on_c, 5, 64, 96
6, 256499, Note_on_c, 5, 64, 0
6, 256500, Note_on_c, 5, 64, 96
6, 256559, Note_on_c, 5, 64, 0
6, 256560, Note_on_c, 5, 60, 96
6, 257039, Note_on_c, 5, 60, 0
6, 257280, Note_on_c, 5, 65, 96
6, 257339, Note_on_c, 5, 65, 0
6, 257340, Note_on_c, 5, 65, 96
6, 257399, Note_on_c, 5, 65, 0
6, 257400, Note_on_c, 5, 65, 96
6, 257459, Note_on_c, 5, 65, 0
6, 257460, Note_on_c, 5, 65, 96
6, 257519, Note_on_c, 5, 65, 0
6, 257520, Note_on_c, 5, 65, 96
6, 257579, Note_on_c, 5, 65, 0
6, 257580, Note_on_c, 5, 65, 96
6, 257639, Note_on_c, 5, 65, 0
6, 257640, Note_on_c, 5, 65, 96
6, 257699, Note_on_c, 5, 65, 0
6, 257700, Note_on_c, 5, 65, 96
6, 257759, Note_on_c, 5, 65, 0
6, 257760, Note_on_c, 5, 65, 96
6, 257819, Note_on_c, 5, 65, 0
6, 257820, Note_on_c, 5, 65, 96
6, 257879, Note_on_c, 5, 65, 0
6, 257880, Note_on_c, 5, 65, 96
6, 257939, Note_on_c, 5, 65, 0
6, 257940, Note_on_c, 5, 65, 96
6, 257999, Note_on_c, 5, 65, 0
6, 258000, Note_on_c, 5, 65, 96
6, 258479, Note_on_c, 5, 65, 0
6, 259440, Note_on_c, 5, 60, 96
6, 259499, Note_on_c, 5, 60, 0
6, 259500, Note_on_c, 5, 60, 96
6, 259559, Note_on_c, 5, 60, 0
6, 259560, Note_on_c, 5, 60, 96
6, 259619, Note_on_c, 5, 60, 0
6, 259620, Note_on_c, 5, 60, 96
6, 259679, Note_on_c, 5, 60, 0
6, 259680, Note_on_c, 5, 60, 96
6, 259739, Note_on_c, 5, 60, 0
6, 259740, Note_on_c, 5, 60, 96
6, 259799, Note_on_c, 5, 60, 0
6, 259800, Note_on_c, 5, 60, 96
6, 259859, Note_on_c, 5, 60, 0
6, 259860, Note_on_c, 5, 60, 96
6, 259919, Note_on_c, 5, 60, 0
6, 259920, Note_on_c, 5, 60, 96
6, 259979, Note_on_c, 5, 60, 0
6, 259980, Note_on_c, 5, 60, 96
6, 260039, Note_on_c, 5, 60, 0
6, 260040, Note_on_c, 5, 60, 96
6, 260099, Note_on_c, 5, 60, 0
6, 260100, Note_on_c, 5, 60, 96
6, 260159, Note_on_c, 5, 60, 0
6, 260160, Note_on_c, 5, 58, 96
6, 260219, Note_on_c, 5, 58, 0
6, 260220, Note_on_c, 5, 58, 96
6, 260279, Note_on_c, 5, 58, 0
6, 260280, Note_on_c, 5, 58, 96
6, 260339, Note_on_c, 5, 58, 0
6, 260340, Note_on_c, 5, 58, 96
6, 260399, Note_on_c, 5, 58, 0
6, 260400, Note_on_c, 5, 58, 96
6, 260459, Note_on_c, 5, 58, 0
6, 260460, Note_on_c, 5, 58, 96
6, 260519, Note_on_c, 5, 58, 0
6, 260520, Note_on_c, 5, 58, 96
6, 260579, Note_on_c, 5, 58, 0
6, 260580, Note_on_c, 5, 58, 96
6, 260639, Note_on_c, 5, 58, 0
6, 260640, Note_on_c, 5, 58, 96
6, 260699, Note_on_c, 5, 58, 0
6, 260700, Note_on_c, 5, 58, 96
6, 260759, Note_on_c, 5, 58, 0
6, 260760, Note_on_c, 5, 58, 96
6, 260819, Note_on_c, 5, 58, 0
6, 260820, Note_on_c, 5, 58, 96
6, 260879, Note_on_c, 5, 58, 0
6, 260880, Note_on_c, 5, 56, 96
6, 260939, Note_on_c, 5, 56, 0
6, 260940, Note_on_c, 5, 53, 96
6, 260999, Note_on_c, 5, 53, 0
6, 261000, Note_on_c, 5, 53, 96
6, 261059, Note_on_c, 5, 53, 0
6, 261060, Note_on_c, 5, 53, 96
6, 261119, Note_on_c, 5, 53, 0
6, 261120, Note_on_c, 5, 53, 96
6, 261179, Note_on_c, 5, 53, 0
6, 261180, Note_on_c, 5, 53, 96
6, 261239, Note_on_c, 5, 53, 0
6, 261240, Note_on_c, 5, 53, 96
6, 261299, Note_on_c, 5, 53, 0
6, 261300, Note_on_c, 5, 53, 96
6, 261359, Note_on_c, 5, 53, 0
6, 261360, Note_on_c, 5, 53, 96
6, 261419, Note_on_c, 5, 53, 0
6, 261420, Note_on_c, 5, 53, 96
6, 261479, Note_on_c, 5, 53, 0
6, 261480, Note_on_c, 5, 53, 96
6, 261539, Note_on_c, 5, 53, 0
6, 261540, Note_on_c, 5, 53, 96
6, 261599, Note_on_c, 5, 53, 0
6, 261600, Note_on_c, 5, 60, 96
6, 261659, Note_on_c, 5, 60, 0
6, 261660, Note_on_c, 5, 60, 96
6, 261719, Note_on_c, 5, 60, 0
6, 261720, Note_on_c, 5, 60, 96
6, 261779, Note_on_c, 5, 60, 0
6, 261780, Note_on_c, 5, 60, 96
6, 261839, Note_on_c, 5, 60, 0
6, 261840, Note_on_c, 5, 60, 96
6, 261899, Note_on_c, 5, 60, 0
6, 261900, Note_on_c, 5, 60, 96
6, 261959, Note_on_c, 5, 60, 0
6, 261960, Note_on_c, 5, 60, 96
6, 262019, Note_on_c, 5, 60, 0
6, 262020, Note_on_c, 5, 60, 96
6, 262079, Note_on_c, 5, 60, 0
6, 262080, Note_on_c, 5, 60, 96
6, 262139, Note_on_c, 5, 60, 0
6, 262140, Note_on_c, 5, 60, 96
6, 262199, Note_on_c, 5, 60, 0
6, 262200, Note_on_c, 5, 60, 96
6, 262259, Note_on_c, 5, 60, 0
6, 262260, Note_on_c, 5, 60, 96
6, 262319, Note_on_c, 5, 60, 0
6, 262320, Note_on_c, 5, 60, 96
6, 262379, Note_on_c, 5, 60, 0
6, 262380, Note_on_c, 5, 60, 96
6, 262439, Note_on_c, 5, 60, 0
6, 262440, Note_on_c, 5, 60, 96
6, 262499, Note_on_c, 5, 60, 0
6, 262500, Note_on_c, 5, 60, 96
6, 262559, Note_on_c, 5, 60, 0
6, 262560, Note_on_c, 5, 60, 96
6, 262619, Note_on_c, 5, 60, 0
6, 262620, Note_on_c, 5, 60, 96
6, 262679, Note_on_c, 5, 60, 0
6, 262680, Note_on_c, 5, 60, 96
6, 262739, Note_on_c, 5, 60, 0
6, 262740, Note_on_c, 5, 60, 96
6, 262799, Note_on_c, 5, 60, 0
6, 262800, Note_on_c, 5, 60, 96
6, 262859, Note_on_c, 5, 60, 0
6, 262860, Note_on_c, 5, 60, 96
6, 262919, Note_on_c, 5, 60, 0
6, 262920, Note_on_c, 5, 60, 96
6, 262979, Note_on_c, 5, 60, 0
6, 262980, Note_on_c, 5, 60, 96
6, 263039, Note_on_c, 5, 60, 0
6, 263040, Note_on_c, 5, 53, 96
6, 263099, Note_on_c, 5, 53, 0
6, 263100, Note_on_c, 5, 53, 96
6, 263159, Note_on_c, 5, 53, 0
6, 263160, Note_on_c, 5, 53, 96
6, 263219, Note_on_c, 5, 53, 0
6, 263220, Note_on_c, 5, 53, 96
6, 263279, Note_on_c, 5, 53, 0
6, 263280, Note_on_c, 5, 53, 96
6, 263339, Note_on_c, 5, 53, 0
6, 263340, Note_on_c, 5, 53, 96
6, 263399, Note_on_c, 5, 53, 0
6, 263400, Note_on_c, 5, 53, 96
6, 263459, Note_on_c, 5, 53, 0
6, 263460, Note_on_c, 5, 53, 96
6, 263519, Note_on_c, 5, 53, 0
6, 263520, Note_on_c, 5, 53, 96
6, 263579, Note_on_c, 5, 53, 0
6, 263580, Note_on_c, 5, 53, 96
6, 263639, Note_on_c, 5, 53, 0
6, 263640, Note_on_c, 5, 53, 96
6, 263699, Note_on_c, 5, 53, 0
6, 263700, Note_on_c, 5, 53, 96
6, 263759, Note_on_c, 5, 53, 0
6, 263760, Note_on_c, 5, 53, 96
6, 264239, Note_on_c, 5, 53, 0
6, 265200, Note_on_c, 5, 60, 96
6, 265259, Note_on_c, 5, 60, 0
6, 265260, Note_on_c, 5, 60, 96
6, 265319, Note_on_c, 5, 60, 0
6, 265320, Note_on_c, 5, 60, 96
6, 265379, Note_on_c, 5, 60, 0
6, 265380, Note_on_c, 5, 60, 96
6, 265439, Note_on_c, 5, 60, 0
6, 265440, Note_on_c, 5, 60, 96
6, 265499, Note_on_c, 5, 60, 0
6, 265500, Note_on_c, 5, 60, 96
6, 265559, Note_on_c, 5, 60, 0
6, 265560, Note_on_c, 5, 60, 96
6, 265619, Note_on_c, 5, 60, 0
6, 265620, Note_on_c, 5, 60, 96
6, 265679, Note_on_c, 5, 60, 0
6, 265680, Note_on_c, 5, 60, 96
6, 265739, Note_on_c, 5, 60, 0
6, 265740, Note_on_c, 5, 60, 96
6, 265799, Note_on_c, 5, 60, 0
6, 265800, Note_on_c, 5, 60, 96
6, 265859, Note_on_c, 5, 60, 0
6, 265860, Note_on_c, 5, 60, 96
6, 265919, Note_on_c, 5, 60, 0
6, 265920, Note_on_c, 5, 58, 96
6, 265979, Note_on_c, 5, 58, 0
6, 265980, Note_on_c, 5, 58, 96
6, 266039, Note_on_c, 5, 58, 0
6, 266040, Note_on_c, 5, 58, 96
6, 266099, Note_on_c, 5, 58, 0
6, 266100, Note_on_c, 5, 58, 96
6, 266159, Note_on_c, 5, 58, 0
6, 266160, Note_on_c, 5, 58, 96
6, 266219, Note_on_c, 5, 58, 0
6, 266220, Note_on_c, 5, 58, 96
6, 266279, Note_on_c, 5, 58, 0
6, 266280, Note_on_c, 5, 58, 96
6, 266339, Note_on_c, 5, 58, 0
6, 266340, Note_on_c, 5, 58, 96
6, 266399, Note_on_c, 5, 58, 0
6, 266400, Note_on_c, 5, 58, 96
6, 266459, Note_on_c, 5, 58, 0
6, 266460, Note_on_c, 5, 58, 96
6, 266519, Note_on_c, 5, 58, 0
6, 266520, Note_on_c, 5, 58, 96
6, 266579, Note_on_c, 5, 58, 0
6, 266580, Note_on_c, 5, 58, 96
6, 266639, Note_on_c, 5, 58, 0
6, 266640, Note_on_c, 5, 56, 96
6, 266699, Note_on_c, 5, 56, 0
6, 266700, Note_on_c, 5, 53, 96
6, 266759, Note_on_c, 5, 53, 0
6, 266760, Note_on_c, 5, 53, 96
6, 266819, Note_on_c, 5, 53, 0
6, 266820, Note_on_c, 5, 53, 96
6, 266879, Note_on_c, 5, 53, 0
6, 266880, Note_on_c, 5, 53, 96
6, 266939, Note_on_c, 5, 53, 0
6, 266940, Note_on_c, 5, 53, 96
6, 266999, Note_on_c, 5, 53, 0
6, 267000, Note_on_c, 5, 53, 96
6, 267059, Note_on_c, 5, 53, 0
6, 267060, Note_on_c, 5, 53, 96
6, 267119, Note_on_c, 5, 53, 0
6, 267120, Note_on_c, 5, 53, 96
6, 267179, Note_on_c, 5, 53, 0
6, 267180, Note_on_c, 5, 53, 96
6, 267239, Note_on_c, 5, 53, 0
6, 267240, Note_on_c, 5, 53, 96
6, 267299, Note_on_c, 5, 53, 0
6, 267300, Note_on_c, 5, 53, 96
6, 267359, Note_on_c, 5, 53, 0
6, 267360, Note_on_c, 5, 60, 96
6, 267419, Note_on_c, 5, 60, 0
6, 267420, Note_on_c, 5, 60, 96
6, 267479, Note_on_c, 5, 60, 0
6, 267480, Note_on_c, 5, 60, 96
6, 267539, Note_on_c, 5, 60, 0
6, 267540, Note_on_c, 5, 60, 96
6, 267599, Note_on_c, 5, 60, 0
6, 267600, Note_on_c, 5, 60, 96
6, 267659, Note_on_c, 5, 60, 0
6, 267660, Note_on_c, 5, 60, 96
6, 267719, Note_on_c, 5, 60, 0
6, 267720, Note_on_c, 5, 60, 96
6, 267779, Note_on_c, 5, 60, 0
6, 267780, Note_on_c, 5, 60, 96
6, 267839, Note_on_c, 5, 60, 0
6, 267840, Note_on_c, 5, 60, 96
6, 267899, Note_on_c, 5, 60, 0
6, 267900, Note_on_c, 5, 60, 96
6, 267959, Note_on_c, 5, 60, 0
6, 267960, Note_on_c, 5, 60, 96
6, 268019, Note_on_c, 5, 60, 0
6, 268020, Note_on_c, 5, 60, 96
6, 268079, Note_on_c, 5, 60, 0
6, 268080, Note_on_c, 5, 60, 96
6, 268139, Note_on_c, 5, 60, 0
6, 268140, Note_on_c, 5, 60, 96
6, 268199, Note_on_c, 5, 60, 0
6, 268200, Note_on_c, 5, 60, 96
6, 268259, Note_on_c, 5, 60, 0
6, 268260, Note_on_c, 5, 60, 96
6, 268319, Note_on_c, 5, 60, 0
6, 268320, Note_on_c, 5, 60, 96
6, 268379, Note_on_c, 5, 60, 0
6, 268380, Note_on_c, 5, 60, 96
6, 268439, Note_on_c, 5, 60, 0
6, 268440, Note_on_c, 5, 60, 96
6, 268499, Note_on_c, 5, 60, 0
6, 268500, Note_on_c, 5, 60, 96
6, 268559, Note_on_c, 5, 60, 0
6, 268560, Note_on_c, 5, 60, 96
6, 268619, Note_on_c, 5, 60, 0
6, 268620, Note_on_c, 5, 60, 96
6, 268679, Note_on_c, 5, 60, 0
6, 268680, Note_on_c, 5, 60, 96
6, 268739, Note_on_c, 5, 60, 0
6, 268740, Note_on_c, 5, 60, 96
6, 268799, Note_on_c, 5, 60, 0
6, 268800, Note_on_c, 5, 53, 96
6, 269519, Note_on_c, 5, 53, 0
6, 269520, End_track
7, 0, Start_track
7, 0, Key_signature, -4, "major"
7, 0, Program_c, 6, 6
7, 0, Note_on_c, 6, 65, 64
7, 0, Note_on_c, 6, 60, 64
7, 0, Note_on_c, 6, 56, 64
7, 2, Control_c, 6, 7, 100
7, 4, Control_c, 6, 10, 64
7, 6, Control_c, 6, 91, 30
7, 8, Control_c, 6, 93, 30
7, 959, Note_on_c, 6, 65, 0
7, 959, Note_on_c, 6, 60, 0
7, 959, Note_on_c, 6, 56, 0
7, 960, Note_on_c, 6, 65, 64
7, 960, Note_on_c, 6, 60, 64
7, 960, Note_on_c, 6, 56, 64
7, 1919, Note_on_c, 6, 65, 0
7, 1919, Note_on_c, 6, 60, 0
7, 1919, Note_on_c, 6, 56, 0
7, 1920, Note_on_c, 6, 67, 64
7, 1920, Note_on_c, 6, 61, 64
7, 1920, Note_on_c, 6, 58, 64
7, 2879, Note_on_c, 6, 67, 0
7, 2879, Note_on_c, 6, 61, 0
7, 2879, Note_on_c, 6, 58, 0
7, 2880, Note_on_c, 6, 67, 64
7, 2880, Note_on_c, 6, 61, 64
7, 2880, Note_on_c, 6, 58, 64
7, 3839, Note_on_c, 6, 67, 0
7, 3839, Note_on_c, 6, 61, 0
7, 3839, Note_on_c, 6, 58, 0
7, 3840, Note_on_c, 6, 67, 64
7, 3840, Note_on_c, 6, 61, 64
7, 3840, Note_on_c, 6, 58, 64
7, 4799, Note_on_c, 6, 67, 0
7, 4799, Note_on_c, 6, 61, 0
7, 4799, Note_on_c, 6, 58, 0
7, 5760, Note_on_c, 6, 70, 64
7, 5760, Note_on_c, 6, 67, 64
7, 5760, Note_on_c, 6, 61, 64
7, 6719, Note_on_c, 6, 70, 0
7, 6719, Note_on_c, 6, 67, 0
7, 6719, Note_on_c, 6, 61, 0
7, 6720, Note_on_c, 6, 70, 64
7, 6720, Note_on_c, 6, 67, 64
7, 6720, Note_on_c, 6, 61, 64
7, 7679, Note_on_c, 6, 70, 0
7, 7679, Note_on_c, 6, 67, 0
7, 7679, Note_on_c, 6, 61, 0
7, 7680, Note_on_c, 6, 70, 64
7, 7680, Note_on_c, 6, 67, 64
7, 7680, Note_on_c, 6, 61, 64
7, 8639, Note_on_c, 6, 70, 0
7, 8639, Note_on_c, 6, 67, 0
7, 8639, Note_on_c, 6, 61, 0
7, 8640, Note_on_c, 6, 70, 64
7, 8640, Note_on_c, 6, 67, 64
7, 8640, Note_on_c, 6, 61, 64
7, 9599, Note_on_c, 6, 70, 0
7, 9599, Note_on_c, 6, 67, 0
7, 9599, Note_on_c, 6, 61, 0
7, 9600, Note_on_c, 6, 68, 64
7, 9600, Note_on_c, 6, 65, 64
7, 9600, Note_on_c, 6, 60, 64
7, 10559, Note_on_c, 6, 68, 0
7, 10559, Note_on_c, 6, 65, 0
7, 10559, Note_on_c, 6, 60, 0
7, 10560, Note_on_c, 6, 68, 64
7, 10560, Note_on_c, 6, 65, 64
7, 10560, Note_on_c, 6, 60, 64
7, 11519, Note_on_c, 6, 68, 0
7, 11519, Note_on_c, 6, 65, 0
7, 11519, Note_on_c, 6, 60, 0
7, 11520, Note_on_c, 6, 70, 64
7, 11520, Note_on_c, 6, 65, 64
7, 11520, Note_on_c, 6, 61, 64
7, 12479, Note_on_c, 6, 70, 0
7, 12479, Note_on_c, 6, 65, 0
7, 12479, Note_on_c, 6, 61, 0
7, 12480, Note_on_c, 6, 70, 64
7, 12480, Note_on_c, 6, 65, 64
7, 12480, Note_on_c, 6, 61, 64
7, 13439, Note_on_c, 6, 70, 0
7, 13439, Note_on_c, 6, 65, 0
7, 13439, Note_on_c, 6, 61, 0
7, 13440, Note_on_c, 6, 72, 64
7, 13440, Note_on_c, 6, 69, 64
7, 13440, Note_on_c, 6, 63, 64
7, 14399, Note_on_c, 6, 72, 0
7, 14399, Note_on_c, 6, 69, 0
7, 14399, Note_on_c, 6, 63, 0
7, 14400, Note_on_c, 6, 72, 64
7, 14400, Note_on_c, 6, 69, 64
7, 14400, Note_on_c, 6, 63, 64
7, 15359, Note_on_c, 6, 72, 0
7, 15359, Note_on_c, 6, 69, 0
7, 15359, Note_on_c, 6, 63, 0
7, 15360, Note_on_c, 6, 71, 64
7, 15360, Note_on_c, 6, 67, 64
7, 15360, Note_on_c, 6, 62, 64
7, 16319, Note_on_c, 6, 71, 0
7, 16319, Note_on_c, 6, 67, 0
7, 16319, Note_on_c, 6, 62, 0
7, 16320, Note_on_c, 6, 71, 64
7, 16320, Note_on_c, 6, 67, 64
7, 16320, Note_on_c, 6, 62, 64
7, 17279, Note_on_c, 6, 71, 0
7, 17279, Note_on_c, 6, 67, 0
7, 17279, Note_on_c, 6, 62, 0
7, 17280, Note_on_c, 6, 72, 64
7, 17280, Note_on_c, 6, 69, 64
7, 17280, Note_on_c, 6, 63, 64
7, 18239, Note_on_c, 6, 72, 0
7, 18239, Note_on_c, 6, 69, 0
7, 18239, Note_on_c, 6, 63, 0
7, 18240, Note_on_c, 6, 72, 64
7, 18240, Note_on_c, 6, 69, 64
7, 18240, Note_on_c, 6, 63, 64
7, 19199, Note_on_c, 6, 72, 0
7, 19199, Note_on_c, 6, 69, 0
7, 19199, Note_on_c, 6, 63, 0
7, 19200, Note_on_c, 6, 72, 64
7, 19200, Note_on_c, 6, 67, 64
7, 19200, Note_on_c, 6, 62, 64
7, 20159, Note_on_c, 6, 72, 0
7, 20159, Note_on_c, 6, 67, 0
7, 20159, Note_on_c, 6, 62, 0
7, 20160, Note_on_c, 6, 71, 64
7, 20160, Note_on_c, 6, 67, 64
7, 20160, Note_on_c, 6, 62, 64
7, 21119, Note_on_c, 6, 71, 0
7, 21119, Note_on_c, 6, 67, 0
7, 21119, Note_on_c, 6, 62, 0
7, 21120, Note_on_c, 6, 72, 96
7, 21120, Note_on_c, 6, 67, 96
7, 21120, Note_on_c, 6, 63, 96
7, 21599, Note_on_c, 6, 72, 0
7, 21599, Note_on_c, 6, 67, 0
7, 21599, Note_on_c, 6, 63, 0
7, 24000, Note_on_c, 6, 67, 64
7, 24000, Note_on_c, 6, 63, 64
7, 24000, Note_on_c, 6, 60, 64
7, 24959, Note_on_c, 6, 67, 0
7, 24959, Note_on_c, 6, 63, 0
7, 24959, Note_on_c, 6, 60, 0
7, 24960, Note_on_c, 6, 67, 64
7, 24960, Note_on_c, 6, 63, 64
7, 24960, Note_on_c, 6, 60, 64
7, 25919, Note_on_c, 6, 67, 0
7, 25919, Note_on_c, 6, 63, 0
7, 25919, Note_on_c, 6, 60, 0
7, 25920, Note_on_c, 6, 67, 64
7, 25920, Note_on_c, 6, 63, 64
7, 25920, Note_on_c, 6, 60, 64
7, 26399, Note_on_c, 6, 67, 0
7, 26399, Note_on_c, 6, 63, 0
7, 26399, Note_on_c, 6, 60, 0
7, 28800, Note_on_c, 6, 67, 64
7, 28800, Note_on_c, 6, 63, 64
7, 28800, Note_on_c, 6, 60, 64
7, 29279, Note_on_c, 6, 67, 0
7, 29279, Note_on_c, 6, 63, 0
7, 29279, Note_on_c, 6, 60, 0
7, 29280, Note_on_c, 6, 67, 64
7, 29280, Note_on_c, 6, 63, 64
7, 29280, Note_on_c, 6, 60, 64
7, 29759, Note_on_c, 6, 67, 0
7, 29759, Note_on_c, 6, 63, 0
7, 29759, Note_on_c, 6, 60, 0
7, 29760, Note_on_c, 6, 67, 64
7, 29760, Note_on_c, 6, 63, 64
7, 29760, Note_on_c, 6, 60, 64
7, 30239, Note_on_c, 6, 67, 0
7, 30239, Note_on_c, 6, 63, 0
7, 30239, Note_on_c, 6, 60, 0
7, 30240, Note_on_c, 6, 67, 64
7, 30240, Note_on_c, 6, 63, 64
7, 30240, Note_on_c, 6, 60, 64
7, 30719, Note_on_c, 6, 67, 0
7, 30719, Note_on_c, 6, 63, 0
7, 30719, Note_on_c, 6, 60, 0
7, 30720, Note_on_c, 6, 67, 64
7, 30720, Note_on_c, 6, 63, 64
7, 30720, Note_on_c, 6, 60, 64
7, 31199, Note_on_c, 6, 67, 0
7, 31199, Note_on_c, 6, 63, 0
7, 31199, Note_on_c, 6, 60, 0
7, 36480, Note_on_c, 6, 65, 64
7, 36480, Note_on_c, 6, 60, 64
7, 36480, Note_on_c, 6, 56, 64
7, 37439, Note_on_c, 6, 65, 0
7, 37439, Note_on_c, 6, 60, 0
7, 37439, Note_on_c, 6, 56, 0
7, 37440, Note_on_c, 6, 66, 64
7, 37440, Note_on_c, 6, 61, 64
7, 37440, Note_on_c, 6, 58, 64
7, 38399, Note_on_c, 6, 66, 0
7, 38399, Note_on_c, 6, 61, 0
7, 38399, Note_on_c, 6, 58, 0
7, 38400, Note_on_c, 6, 69, 64
7, 38400, Note_on_c, 6, 65, 64
7, 38400, Note_on_c, 6, 60, 64
7, 39359, Note_on_c, 6, 69, 0
7, 39359, Note_on_c, 6, 65, 0
7, 39359, Note_on_c, 6, 60, 0
7, 39360, Note_on_c, 6, 70, 64
7, 39360, Note_on_c, 6, 65, 64
7, 39360, Note_on_c, 6, 58, 64
7, 40319, Note_on_c, 6, 70, 0
7, 40319, Note_on_c, 6, 65, 0
7, 40319, Note_on_c, 6, 58, 0
7, 40320, Note_on_c, 6, 71, 64
7, 40320, Note_on_c, 6, 65, 64
7, 41279, Note_on_c, 6, 71, 0
7, 41279, Note_on_c, 6, 65, 0
7, 41280, Note_on_c, 6, 72, 64
7, 41280, Note_on_c, 6, 67, 64
7, 41280, Note_on_c, 6, 64, 64
7, 41759, Note_on_c, 6, 72, 0
7, 41759, Note_on_c, 6, 67, 0
7, 41759, Note_on_c, 6, 64, 0
7, 42240, Note_on_c, 6, 68, 112
7, 42240, Note_on_c, 6, 65, 112
7, 42240, Note_on_c, 6, 60, 112
7, 43199, Note_on_c, 6, 68, 0
7, 43199, Note_on_c, 6, 65, 0
7, 43199, Note_on_c, 6, 60, 0
7, 43200, Note_on_c, 6, 68, 112
7, 43200, Note_on_c, 6, 65, 112
7, 43200, Note_on_c, 6, 61, 112
7, 43679, Note_on_c, 6, 68, 0
7, 43679, Note_on_c, 6, 65, 0
7, 43679, Note_on_c, 6, 61, 0
7, 44160, Note_on_c, 6, 67, 112
7, 44160, Note_on_c, 6, 61, 112
7, 44160, Note_on_c, 6, 58, 112
7, 45119, Note_on_c, 6, 67, 0
7, 45119, Note_on_c, 6, 61, 0
7, 45119, Note_on_c, 6, 58, 0
7, 45120, Note_on_c, 6, 67, 112
7, 45120, Note_on_c, 6, 63, 112
7, 45120, Note_on_c, 6, 60, 112
7, 45599, Note_on_c, 6, 67, 0
7, 45599, Note_on_c, 6, 63, 0
7, 45599, Note_on_c, 6, 60, 0
7, 46080, Note_on_c, 6, 65, 112
7, 46080, Note_on_c, 6, 60, 112
7, 46080, Note_on_c, 6, 56, 112
7, 47039, Note_on_c, 6, 65, 0
7, 47039, Note_on_c, 6, 60, 0
7, 47039, Note_on_c, 6, 56, 0
7, 47040, Note_on_c, 6, 65, 112
7, 47040, Note_on_c, 6, 61, 112
7, 47040, Note_on_c, 6, 58, 112
7, 47519, Note_on_c, 6, 65, 0
7, 47519, Note_on_c, 6, 61, 0
7, 47519, Note_on_c, 6, 58, 0
7, 48000, Note_on_c, 6, 64, 112
7, 48000, Note_on_c, 6, 60, 112
7, 48000, Note_on_c, 6, 55, 112
7, 48959, Note_on_c, 6, 64, 0
7, 48959, Note_on_c, 6, 60, 0
7, 48959, Note_on_c, 6, 55, 0
7, 48960, Note_on_c, 6, 65, 112
7, 48960, Note_on_c, 6, 60, 112
7, 48960, Note_on_c, 6, 56, 112
7, 49439, Note_on_c, 6, 65, 0
7, 49439, Note_on_c, 6, 60, 0
7, 49439, Note_on_c, 6, 56, 0
7, 49440, Note_on_c, 6, 67, 112
7, 49440, Note_on_c, 6, 60, 112
7, 49919, Note_on_c, 6, 67, 0
7, 49919, Note_on_c, 6, 60, 0
7, 49920, Note_on_c, 6, 60, 112
7, 49920, Note_on_c, 6, 68, 112
7, 50399, Note_on_c, 6, 68, 0
7, 50400, Note_on_c, 6, 70, 112
7, 50879, Note_on_c, 6, 60, 0
7, 50879, Note_on_c, 6, 70, 0
7, 50880, Note_on_c, 6, 65, 112
7, 50880, Note_on_c, 6, 72, 112
7, 51839, Note_on_c, 6, 65, 0
7, 51839, Note_on_c, 6, 72, 0
7, 51840, Note_on_c, 6, 77, 112
7, 51840, Note_on_c, 6, 72, 112
7, 51840, Note_on_c, 6, 65, 112
7, 52799, Note_on_c, 6, 77, 0
7, 52799, Note_on_c, 6, 72, 0
7, 52799, Note_on_c, 6, 65, 0
7, 52800, Note_on_c, 6, 77, 112
7, 52800, Note_on_c, 6, 72, 112
7, 52800, Note_on_c, 6, 65, 112
7, 53759, Note_on_c, 6, 77, 0
7, 53759, Note_on_c, 6, 72, 0
7, 53759, Note_on_c, 6, 65, 0
7, 53760, Note_on_c, 6, 65, 112
7, 53760, Note_on_c, 6, 73, 112
7, 54239, Note_on_c, 6, 65, 0
7, 54239, Note_on_c, 6, 73, 0
7, 54240, Note_on_c, 6, 70, 112
7, 54240, Note_on_c, 6, 75, 112
7, 54719, Note_on_c, 6, 70, 0
7, 54719, Note_on_c, 6, 75, 0
7, 54720, Note_on_c, 6, 70, 112
7, 54720, Note_on_c, 6, 75, 112
7, 55199, Note_on_c, 6, 70, 0
7, 55199, Note_on_c, 6, 75, 0
7, 55200, Note_on_c, 6, 70, 112
7, 55200, Note_on_c, 6, 75, 112
7, 55679, Note_on_c, 6, 70, 0
7, 55679, Note_on_c, 6, 75, 0
7, 55680, Note_on_c, 6, 70, 112
7, 55680, Note_on_c, 6, 75, 112
7, 56639, Note_on_c, 6, 70, 0
7, 56640, Note_on_c, 6, 72, 112
7, 57119, Note_on_c, 6, 72, 0
7, 57119, Note_on_c, 6, 75, 0
7, 57120, Note_on_c, 6, 68, 112
7, 57120, Note_on_c, 6, 73, 112
7, 57599, Note_on_c, 6, 68, 0
7, 57599, Note_on_c, 6, 73, 0
7, 57600, Note_on_c, 6, 68, 112
7, 57600, Note_on_c, 6, 73, 112
7, 58079, Note_on_c, 6, 73, 0
7, 58080, Note_on_c, 6, 73, 112
7, 58559, Note_on_c, 6, 68, 0
7, 58560, Note_on_c, 6, 67, 112
7, 58799, Note_on_c, 6, 73, 0
7, 58800, Note_on_c, 6, 72, 112
7, 59039, Note_on_c, 6, 67, 0
7, 59040, Note_on_c, 6, 65, 112
7, 59279, Note_on_c, 6, 72, 0
7, 59280, Note_on_c, 6, 70, 112
7, 59519, Note_on_c, 6, 65, 0
7, 59519, Note_on_c, 6, 70, 0
7, 59520, Note_on_c, 6, 70, 112
7, 59520, Note_on_c, 6, 64, 112
7, 60479, Note_on_c, 6, 70, 0
7, 60479, Note_on_c, 6, 64, 0
7, 60480, Note_on_c, 6, 67, 112
7, 60480, Note_on_c, 6, 64, 112
7, 61439, Note_on_c, 6, 67, 0
7, 61439, Note_on_c, 6, 64, 0
7, 61440, Note_on_c, 6, 67, 112
7, 61440, Note_on_c, 6, 58, 112
7, 62399, Note_on_c, 6, 67, 0
7, 62399, Note_on_c, 6, 58, 0
7, 62400, Note_on_c, 6, 64, 112
7, 62400, Note_on_c, 6, 58, 112
7, 63359, Note_on_c, 6, 64, 0
7, 63359, Note_on_c, 6, 58, 0
7, 63360, Note_on_c, 6, 65, 96
7, 63360, Note_on_c, 6, 60, 96
7, 63360, Note_on_c, 6, 56, 96
7, 63839, Note_on_c, 6, 65, 0
7, 63839, Note_on_c, 6, 60, 0
7, 63839, Note_on_c, 6, 56, 0
7, 64320, Note_on_c, 6, 69, 96
7, 64320, Note_on_c, 6, 63, 96
7, 64320, Note_on_c, 6, 60, 96
7, 65279, Note_on_c, 6, 69, 0
7, 65279, Note_on_c, 6, 63, 0
7, 65279, Note_on_c, 6, 60, 0
7, 65280, Note_on_c, 6, 70, 96
7, 65280, Note_on_c, 6, 62, 96
7, 65280, Note_on_c, 6, 58, 96
7, 65759, Note_on_c, 6, 70, 0
7, 65759, Note_on_c, 6, 62, 0
7, 65759, Note_on_c, 6, 58, 0
7, 66240, Note_on_c, 6, 71, 64
7, 66240, Note_on_c, 6, 65, 64
7, 66240, Note_on_c, 6, 62, 64
7, 67199, Note_on_c, 6, 71, 0
7, 67199, Note_on_c, 6, 65, 0
7, 67199, Note_on_c, 6, 62, 0
7, 67200, Note_on_c, 6, 72, 96
7, 67200, Note_on_c, 6, 67, 96
7, 67200, Note_on_c, 6, 63, 96
7, 67679, Note_on_c, 6, 72, 0
7, 67679, Note_on_c, 6, 67, 0
7, 67679, Note_on_c, 6, 63, 0
7, 68160, Note_on_c, 6, 74, 64
7, 68160, Note_on_c, 6, 68, 64
7, 68160, Note_on_c, 6, 65, 64
7, 69119, Note_on_c, 6, 74, 0
7, 69119, Note_on_c, 6, 68, 0
7, 69119, Note_on_c, 6, 65, 0
7, 69120, Note_on_c, 6, 75, 96
7, 69120, Note_on_c, 6, 70, 96
7, 69120, Note_on_c, 6, 67, 96
7, 69599, Note_on_c, 6, 75, 0
7, 69599, Note_on_c, 6, 70, 0
7, 69599, Note_on_c, 6, 67, 0
7, 70080, Note_on_c, 6, 75, 96
7, 70080, Note_on_c, 6, 72, 96
7, 70080, Note_on_c, 6, 65, 96
7, 71039, Note_on_c, 6, 75, 0
7, 71039, Note_on_c, 6, 72, 0
7, 71039, Note_on_c, 6, 65, 0
7, 71040, Note_on_c, 6, 74, 96
7, 71040, Note_on_c, 6, 70, 96
7, 71040, Note_on_c, 6, 65, 96
7, 71999, Note_on_c, 6, 74, 0
7, 71999, Note_on_c, 6, 70, 0
7, 71999, Note_on_c, 6, 65, 0
7, 72000, Note_on_c, 6, 75, 96
7, 72000, Note_on_c, 6, 70, 96
7, 72000, Note_on_c, 6, 67, 96
7, 72959, Note_on_c, 6, 75, 0
7, 72959, Note_on_c, 6, 70, 0
7, 72959, Note_on_c, 6, 67, 0
7, 72960, Note_on_c, 6, 65, 64
7, 72960, Note_on_c, 6, 58, 64
7, 72960, Note_on_c, 6, 56, 64
7, 73919, Note_on_c, 6, 65, 0
7, 73919, Note_on_c, 6, 58, 0
7, 73919, Note_on_c, 6, 56, 0
7, 73920, Note_on_c, 6, 68, 64
7, 73920, Note_on_c, 6, 65, 64
7, 73920, Note_on_c, 6, 58, 64
7, 74879, Note_on_c, 6, 68, 0
7, 74879, Note_on_c, 6, 65, 0
7, 74879, Note_on_c, 6, 58, 0
7, 74880, Note_on_c, 6, 70, 64
7, 74880, Note_on_c, 6, 68, 64
7, 74880, Note_on_c, 6, 65, 64
7, 75839, Note_on_c, 6, 70, 0
7, 75839, Note_on_c, 6, 68, 0
7, 75839, Note_on_c, 6, 65, 0
7, 75840, Note_on_c, 6, 70, 64
7, 75840, Note_on_c, 6, 68, 64
7, 75840, Note_on_c, 6, 65, 64
7, 76799, Note_on_c, 6, 70, 0
7, 76799, Note_on_c, 6, 68, 0
7, 76799, Note_on_c, 6, 65, 0
7, 76800, Note_on_c, 6, 70, 64
7, 76800, Note_on_c, 6, 67, 64
7, 76800, Note_on_c, 6, 63, 64
7, 77759, Note_on_c, 6, 70, 0
7, 77759, Note_on_c, 6, 67, 0
7, 77759, Note_on_c, 6, 63, 0
7, 77760, Note_on_c, 6, 73, 64
7, 77760, Note_on_c, 6, 70, 64
7, 77760, Note_on_c, 6, 67, 64
7, 78719, Note_on_c, 6, 73, 0
7, 78719, Note_on_c, 6, 70, 0
7, 78719, Note_on_c, 6, 67, 0
7, 78720, Note_on_c, 6, 72, 64
7, 78720, Note_on_c, 6, 68, 64
7, 78720, Note_on_c, 6, 63, 64
7, 79679, Note_on_c, 6, 72, 0
7, 79679, Note_on_c, 6, 68, 0
7, 79679, Note_on_c, 6, 63, 0
7, 79680, Note_on_c, 6, 75, 64
7, 79680, Note_on_c, 6, 72, 64
7, 79680, Note_on_c, 6, 69, 64
7, 80639, Note_on_c, 6, 75, 0
7, 80639, Note_on_c, 6, 72, 0
7, 80639, Note_on_c, 6, 69, 0
7, 80640, Note_on_c, 6, 74, 64
7, 80640, Note_on_c, 6, 70, 64
7, 80640, Note_on_c, 6, 65, 64
7, 81599, Note_on_c, 6, 74, 0
7, 81599, Note_on_c, 6, 70, 0
7, 81599, Note_on_c, 6, 65, 0
7, 81600, Note_on_c, 6, 77, 64
7, 81600, Note_on_c, 6, 74, 64
7, 81600, Note_on_c, 6, 68, 64
7, 82559, Note_on_c, 6, 77, 0
7, 82559, Note_on_c, 6, 74, 0
7, 82559, Note_on_c, 6, 68, 0
7, 82560, Note_on_c, 6, 75, 96
7, 82560, Note_on_c, 6, 70, 96
7, 82560, Note_on_c, 6, 67, 96
7, 83039, Note_on_c, 6, 75, 0
7, 83039, Note_on_c, 6, 70, 0
7, 83039, Note_on_c, 6, 67, 0
7, 83520, Note_on_c, 6, 58, 96
7, 83520, Note_on_c, 6, 63, 96
7, 83999, Note_on_c, 6, 63, 0
7, 84000, Note_on_c, 6, 67, 96
7, 84479, Note_on_c, 6, 58, 0
7, 84479, Note_on_c, 6, 67, 0
7, 84480, Note_on_c, 6, 68, 96
7, 84480, Note_on_c, 6, 63, 96
7, 84480, Note_on_c, 6, 60, 96
7, 84959, Note_on_c, 6, 68, 0
7, 84959, Note_on_c, 6, 63, 0
7, 84959, Note_on_c, 6, 60, 0
7, 85440, Note_on_c, 6, 60, 96
7, 85440, Note_on_c, 6, 65, 96
7, 85919, Note_on_c, 6, 65, 0
7, 85920, Note_on_c, 6, 69, 96
7, 86399, Note_on_c, 6, 60, 0
7, 86399, Note_on_c, 6, 69, 0
7, 86400, Note_on_c, 6, 70, 96
7, 86400, Note_on_c, 6, 65, 96
7, 86400, Note_on_c, 6, 62, 96
7, 86879, Note_on_c, 6, 70, 0
7, 86879, Note_on_c, 6, 65, 0
7, 86879, Note_on_c, 6, 62, 0
7, 87360, Note_on_c, 6, 62, 96
7, 87360, Note_on_c, 6, 67, 96
7, 87839, Note_on_c, 6, 67, 0
7, 87840, Note_on_c, 6, 71, 96
7, 88319, Note_on_c, 6, 62, 0
7, 88319, Note_on_c, 6, 71, 0
7, 88320, Note_on_c, 6, 72, 96
7, 88320, Note_on_c, 6, 67, 96
7, 88320, Note_on_c, 6, 63, 96
7, 88799, Note_on_c, 6, 72, 0
7, 88799, Note_on_c, 6, 67, 0
7, 88799, Note_on_c, 6, 63, 0
7, 105600, Note_on_c, 6, 67, 96
7, 105600, Note_on_c, 6, 64, 96
7, 105600, Note_on_c, 6, 60, 96
7, 106079, Note_on_c, 6, 67, 0
7, 106079, Note_on_c, 6, 64, 0
7, 106079, Note_on_c, 6, 60, 0
7, 106560, Note_on_c, 6, 68, 112
7, 106560, Note_on_c, 6, 65, 112
7, 106560, Note_on_c, 6, 60, 112
7, 107519, Note_on_c, 6, 68, 0
7, 107519, Note_on_c, 6, 65, 0
7, 107519, Note_on_c, 6, 60, 0
7, 107520, Note_on_c, 6, 68, 112
7, 107520, Note_on_c, 6, 65, 112
7, 107520, Note_on_c, 6, 61, 112
7, 107999, Note_on_c, 6, 68, 0
7, 107999, Note_on_c, 6, 65, 0
7, 107999, Note_on_c, 6, 61, 0
7, 108480, Note_on_c, 6, 67, 112
7, 108480, Note_on_c, 6, 61, 112
7, 108480, Note_on_c, 6, 58, 112
7, 109439, Note_on_c, 6, 67, 0
7, 109439, Note_on_c, 6, 61, 0
7, 109439, Note_on_c, 6, 58, 0
7, 109440, Note_on_c, 6, 67, 112
7, 109440, Note_on_c, 6, 63, 112
7, 109440, Note_on_c, 6, 60, 112
7, 109919, Note_on_c, 6, 67, 0
7, 109919, Note_on_c, 6, 63, 0
7, 109919, Note_on_c, 6, 60, 0
7, 110400, Note_on_c, 6, 65, 112
7, 110400, Note_on_c, 6, 60, 112
7, 110400, Note_on_c, 6, 56, 112
7, 111359, Note_on_c, 6, 65, 0
7, 111359, Note_on_c, 6, 60, 0
7, 111359, Note_on_c, 6, 56, 0
7, 111360, Note_on_c, 6, 65, 112
7, 111360, Note_on_c, 6, 61, 112
7, 111360, Note_on_c, 6, 58, 112
7, 111839, Note_on_c, 6, 65, 0
7, 111839, Note_on_c, 6, 61, 0
7, 111839, Note_on_c, 6, 58, 0
7, 112320, Note_on_c, 6, 64, 112
7, 113279, Note_on_c, 6, 64, 0
7, 113280, Note_on_c, 6, 65, 112
7, 113280, Note_on_c, 6, 60, 112
7, 113280, Note_on_c, 6, 56, 112
7, 114239, Note_on_c, 6, 65, 0
7, 114239, Note_on_c, 6, 60, 0
7, 114239, Note_on_c, 6, 56, 0
7, 114240, Note_on_c, 6, 67, 112
7, 114240, Note_on_c, 6, 65, 112
7, 114240, Note_on_c, 6, 61, 112
7, 115199, Note_on_c, 6, 67, 0
7, 115199, Note_on_c, 6, 65, 0
7, 115199, Note_on_c, 6, 61, 0
7, 115200, Note_on_c, 6, 67, 112
7, 115200, Note_on_c, 6, 64, 112
7, 115200, Note_on_c, 6, 60, 112
7, 116159, Note_on_c, 6, 67, 0
7, 116159, Note_on_c, 6, 64, 0
7, 116159, Note_on_c, 6, 60, 0
7, 116160, Note_on_c, 6, 68, 112
7, 116160, Note_on_c, 6, 65, 112
7, 116160, Note_on_c, 6, 60, 112
7, 117119, Note_on_c, 6, 68, 0
7, 117119, Note_on_c, 6, 65, 0
7, 117119, Note_on_c, 6, 60, 0
7, 117120, Note_on_c, 6, 67, 112
7, 117120, Note_on_c, 6, 65, 112
7, 117120, Note_on_c, 6, 61, 112
7, 118079, Note_on_c, 6, 67, 0
7, 118079, Note_on_c, 6, 65, 0
7, 118079, Note_on_c, 6, 61, 0
7, 118080, Note_on_c, 6, 67, 112
7, 118080, Note_on_c, 6, 64, 112
7, 118080, Note_on_c, 6, 60, 112
7, 119039, Note_on_c, 6, 67, 0
7, 119039, Note_on_c, 6, 64, 0
7, 119039, Note_on_c, 6, 60, 0
7, 119040, Note_on_c, 6, 65, 112
7, 119040, Note_on_c, 6, 60, 112
7, 119040, Note_on_c, 6, 56, 112
7, 120959, Note_on_c, 6, 65, 0
7, 120959, Note_on_c, 6, 60, 0
7, 120959, Note_on_c, 6, 56, 0
7, 122880, Key_signature, -3, "major"
7, 122880, Note_on_c, 6, 75, 112
7, 122880, Note_on_c, 6, 70, 112
7, 122880, Note_on_c, 6, 67, 112
7, 123839, Note_on_c, 6, 75, 0
7, 123839, Note_on_c, 6, 70, 0
7, 123839, Note_on_c, 6, 67, 0
7, 123840, Note_on_c, 6, 74, 112
7, 123840, Note_on_c, 6, 70, 112
7, 123840, Note_on_c, 6, 65, 112
7, 124799, Note_on_c, 6, 74, 0
7, 124799, Note_on_c, 6, 70, 0
7, 124799, Note_on_c, 6, 65, 0
7, 124800, Note_on_c, 6, 65, 112
7, 124800, Note_on_c, 6, 74, 112
7, 124800, Note_on_c, 6, 68, 112
7, 125759, Note_on_c, 6, 65, 0
7, 125759, Note_on_c, 6, 74, 0
7, 125759, Note_on_c, 6, 68, 0
7, 125760, Note_on_c, 6, 63, 112
7, 125760, Note_on_c, 6, 75, 112
7, 125760, Note_on_c, 6, 67, 112
7, 126239, Note_on_c, 6, 75, 0
7, 126239, Note_on_c, 6, 67, 0
7, 126240, Note_on_c, 6, 70, 112
7, 126719, Note_on_c, 6, 63, 0
7, 126719, Note_on_c, 6, 70, 0
7, 126720, Note_on_c, 6, 65, 112
7, 126720, Note_on_c, 6, 70, 112
7, 127199, Note_on_c, 6, 70, 0
7, 127200, Note_on_c, 6, 77, 112
7, 127679, Note_on_c, 6, 65, 0
7, 127679, Note_on_c, 6, 77, 0
7, 127680, Note_on_c, 6, 67, 112
7, 127680, Note_on_c, 6, 75, 112
7, 127680, Note_on_c, 6, 70, 112
7, 128159, Note_on_c, 6, 67, 0
7, 128160, Note_on_c, 6, 68, 112
7, 128639, Note_on_c, 6, 68, 0
7, 128639, Note_on_c, 6, 75, 0
7, 128639, Note_on_c, 6, 70, 0
7, 128640, Note_on_c, 6, 68, 112
7, 128640, Note_on_c, 6, 74, 112
7, 129119, Note_on_c, 6, 68, 0
7, 129120, Note_on_c, 6, 67, 112
7, 129599, Note_on_c, 6, 67, 0
7, 129599, Note_on_c, 6, 74, 0
7, 129600, Note_on_c, 6, 67, 112
7, 129600, Note_on_c, 6, 72, 112
7, 130079, Note_on_c, 6, 67, 0
7, 130080, Note_on_c, 6, 65, 112
7, 130559, Note_on_c, 6, 65, 0
7, 130559, Note_on_c, 6, 72, 0
7, 130560, Note_on_c, 6, 70, 112
7, 130560, Note_on_c, 6, 65, 112
7, 130560, Note_on_c, 6, 62, 112
7, 131519, Note_on_c, 6, 70, 0
7, 131519, Note_on_c, 6, 65, 0
7, 131519, Note_on_c, 6, 62, 0
7, 131520, Note_on_c, 6, 70, 112
7, 131520, Note_on_c, 6, 65, 112
7, 131520, Note_on_c, 6, 62, 112
7, 132479, Note_on_c, 6, 70, 0
7, 132479, Note_on_c, 6, 65, 0
7, 132479, Note_on_c, 6, 62, 0
7, 132480, Note_on_c, 6, 67, 112
7, 132480, Note_on_c, 6, 63, 112
7, 132480, Note_on_c, 6, 58, 112
7, 133439, Note_on_c, 6, 67, 0
7, 133439, Note_on_c, 6, 63, 0
7, 133439, Note_on_c, 6, 58, 0
7, 133440, Note_on_c, 6, 69, 112
7, 133440, Note_on_c, 6, 60, 112
7, 134399, Note_on_c, 6, 69, 0
7, 134399, Note_on_c, 6, 60, 0
7, 134400, Note_on_c, 6, 70, 112
7, 134400, Note_on_c, 6, 65, 112
7, 134400, Note_on_c, 6, 62, 112
7, 135359, Note_on_c, 6, 70, 0
7, 135359, Note_on_c, 6, 65, 0
7, 135359, Note_on_c, 6, 62, 0
7, 135360, Note_on_c, 6, 70, 112
7, 135360, Note_on_c, 6, 65, 112
7, 135360, Note_on_c, 6, 60, 112
7, 136319, Note_on_c, 6, 70, 0
7, 136319, Note_on_c, 6, 65, 0
7, 136319, Note_on_c, 6, 60, 0
7, 136320, Note_on_c, 6, 69, 112
7, 136320, Note_on_c, 6, 63, 112
7, 136320, Note_on_c, 6, 60, 112
7, 137279, Note_on_c, 6, 69, 0
7, 137279, Note_on_c, 6, 63, 0
7, 137279, Note_on_c, 6, 60, 0
7, 137280, Note_on_c, 6, 70, 112
7, 137280, Note_on_c, 6, 65, 112
7, 137280, Note_on_c, 6, 62, 112
7, 138239, Note_on_c, 6, 70, 0
7, 138239, Note_on_c, 6, 65, 0
7, 138239, Note_on_c, 6, 62, 0
7, 138240, Note_on_c, 6, 70, 112
7, 138240, Note_on_c, 6, 65, 112
7, 138240, Note_on_c, 6, 62, 112
7, 139199, Note_on_c, 6, 70, 0
7, 139199, Note_on_c, 6, 65, 0
7, 139199, Note_on_c, 6, 62, 0
7, 139200, Note_on_c, 6, 72, 112
7, 139200, Note_on_c, 6, 69, 112
7, 139200, Note_on_c, 6, 65, 112
7, 140159, Note_on_c, 6, 72, 0
7, 140159, Note_on_c, 6, 69, 0
7, 140159, Note_on_c, 6, 65, 0
7, 140160, Note_on_c, 6, 72, 112
7, 140160, Note_on_c, 6, 69, 112
7, 140160, Note_on_c, 6, 63, 112
7, 141119, Note_on_c, 6, 72, 0
7, 141119, Note_on_c, 6, 69, 0
7, 141119, Note_on_c, 6, 63, 0
7, 141120, Note_on_c, 6, 70, 112
7, 141120, Note_on_c, 6, 65, 112
7, 141120, Note_on_c, 6, 62, 112
7, 142079, Note_on_c, 6, 70, 0
7, 142079, Note_on_c, 6, 65, 0
7, 142079, Note_on_c, 6, 62, 0
7, 142080, Note_on_c, 6, 68, 112
7, 142080, Note_on_c, 6, 65, 112
7, 142080, Note_on_c, 6, 62, 112
7, 143039, Note_on_c, 6, 68, 0
7, 143039, Note_on_c, 6, 65, 0
7, 143039, Note_on_c, 6, 62, 0
7, 143040, Note_on_c, 6, 67, 112
7, 143040, Note_on_c, 6, 63, 112
7, 143040, Note_on_c, 6, 58, 112
7, 143999, Note_on_c, 6, 67, 0
7, 143999, Note_on_c, 6, 63, 0
7, 143999, Note_on_c, 6, 58, 0
7, 144000, Note_on_c, 6, 60, 112
7, 144000, Note_on_c, 6, 68, 112
7, 144000, Note_on_c, 6, 65, 112
7, 144479, Note_on_c, 6, 68, 0
7, 144479, Note_on_c, 6, 65, 0
7, 144480, Note_on_c, 6, 65, 112
7, 144959, Note_on_c, 6, 60, 0
7, 144960, Note_on_c, 6, 62, 112
7, 145439, Note_on_c, 6, 65, 0
7, 145440, Note_on_c, 6, 67, 112
7, 145919, Note_on_c, 6, 62, 0
7, 145920, Note_on_c, 6, 63, 112
7, 146399, Note_on_c, 6, 67, 0
7, 146400, Note_on_c, 6, 68, 112
7, 146879, Note_on_c, 6, 63, 0
7, 146879, Note_on_c, 6, 68, 0
7, 146880, Note_on_c, 6, 62, 112
7, 146880, Note_on_c, 6, 70, 112
7, 146880, Note_on_c, 6, 65, 112
7, 147839, Note_on_c, 6, 62, 0
7, 147839, Note_on_c, 6, 70, 0
7, 147839, Note_on_c, 6, 65, 0
7, 147840, Note_on_c, 6, 70, 112
7, 147840, Note_on_c, 6, 74, 112
7, 147840, Note_on_c, 6, 65, 112
7, 148319, Note_on_c, 6, 74, 0
7, 148319, Note_on_c, 6, 65, 0
7, 148320, Note_on_c, 6, 75, 112
7, 148320, Note_on_c, 6, 67, 112
7, 148799, Note_on_c, 6, 70, 0
7, 148799, Note_on_c, 6, 75, 0
7, 148799, Note_on_c, 6, 67, 0
7, 148800, Note_on_c, 6, 70, 112
7, 148800, Note_on_c, 6, 74, 112
7, 148800, Note_on_c, 6, 65, 112
7, 149759, Note_on_c, 6, 70, 0
7, 149759, Note_on_c, 6, 74, 0
7, 149759, Note_on_c, 6, 65, 0
7, 149760, Note_on_c, 6, 70, 112
7, 149760, Note_on_c, 6, 74, 112
7, 149760, Note_on_c, 6, 65, 112
7, 150239, Note_on_c, 6, 74, 0
7, 150239, Note_on_c, 6, 65, 0
7, 150240, Note_on_c, 6, 75, 112
7, 150240, Note_on_c, 6, 67, 112
7, 150719, Note_on_c, 6, 70, 0
7, 150719, Note_on_c, 6, 75, 0
7, 150719, Note_on_c, 6, 67, 0
7, 150720, Note_on_c, 6, 70, 112
7, 150720, Note_on_c, 6, 74, 112
7, 150720, Note_on_c, 6, 65, 112
7, 151679, Note_on_c, 6, 70, 0
7, 151679, Note_on_c, 6, 74, 0
7, 151679, Note_on_c, 6, 65, 0
7, 151680, Note_on_c, 6, 75, 112
7, 151680, Note_on_c, 6, 70, 112
7, 151680, Note_on_c, 6, 67, 112
7, 152159, Note_on_c, 6, 75, 0
7, 152159, Note_on_c, 6, 70, 0
7, 152159, Note_on_c, 6, 67, 0
7, 152160, Note_on_c, 6, 70, 112
7, 152160, Note_on_c, 6, 65, 112
7, 152639, Note_on_c, 6, 70, 0
7, 152639, Note_on_c, 6, 65, 0
7, 152640, Note_on_c, 6, 67, 112
7, 152640, Note_on_c, 6, 63, 112
7, 152640, Note_on_c, 6, 58, 112
7, 153599, Note_on_c, 6, 67, 0
7, 153599, Note_on_c, 6, 63, 0
7, 153599, Note_on_c, 6, 58, 0
7, 153600, Note_on_c, 6, 67, 112
7, 153600, Note_on_c, 6, 63, 112
7, 153600, Note_on_c, 6, 58, 112
7, 154559, Note_on_c, 6, 67, 0
7, 154559, Note_on_c, 6, 63, 0
7, 154559, Note_on_c, 6, 58, 0
7, 154560, Note_on_c, 6, 63, 112
7, 154560, Note_on_c, 6, 58, 112
7, 154560, Note_on_c, 6, 55, 112
7, 155519, Note_on_c, 6, 63, 0
7, 155519, Note_on_c, 6, 58, 0
7, 155519, Note_on_c, 6, 55, 0
7, 155520, Note_on_c, 6, 63, 112
7, 155520, Note_on_c, 6, 58, 112
7, 155520, Note_on_c, 6, 55, 112
7, 157439, Note_on_c, 6, 63, 0
7, 157439, Note_on_c, 6, 58, 0
7, 157439, Note_on_c, 6, 55, 0
7, 159360, Key_signature, -4, "major"
7, 193200, Note_on_c, 6, 77, 96
7, 193319, Note_on_c, 6, 77, 0
7, 193320, Note_on_c, 6, 75, 96
7, 193439, Note_on_c, 6, 75, 0
7, 193440, Note_on_c, 6, 73, 96
7, 193559, Note_on_c, 6, 73, 0
7, 193560, Note_on_c, 6, 72, 96
7, 193679, Note_on_c, 6, 72, 0
7, 193680, Note_on_c, 6, 70, 96
7, 193799, Note_on_c, 6, 70, 0
7, 193800, Note_on_c, 6, 68, 96
7, 193919, Note_on_c, 6, 68, 0
7, 193920, Note_on_c, 6, 67, 96
7, 194039, Note_on_c, 6, 67, 0
7, 194040, Note_on_c, 6, 65, 96
7, 194159, Note_on_c, 6, 65, 0
7, 194160, Note_on_c, 6, 64, 96
7, 194279, Note_on_c, 6, 64, 0
7, 194280, Note_on_c, 6, 62, 96
7, 194399, Note_on_c, 6, 62, 0
7, 194400, Note_on_c, 6, 60, 96
7, 194519, Note_on_c, 6, 60, 0
7, 194520, Note_on_c, 6, 58, 96
7, 194639, Note_on_c, 6, 58, 0
7, 194640, Note_on_c, 6, 56, 96
7, 194879, Note_on_c, 6, 56, 0
7, 194880, Note_on_c, 6, 58, 96
7, 195119, Note_on_c, 6, 58, 0
7, 195120, Note_on_c, 6, 60, 96
7, 195359, Note_on_c, 6, 60, 0
7, 195360, Note_on_c, 6, 53, 96
7, 195599, Note_on_c, 6, 53, 0
7, 223260, Note_on_c, 6, 71, 96
7, 223319, Note_on_c, 6, 71, 0
7, 223320, Note_on_c, 6, 72, 96
7, 223379, Note_on_c, 6, 72, 0
7, 223380, Note_on_c, 6, 74, 96
7, 223439, Note_on_c, 6, 74, 0
7, 223440, Note_on_c, 6, 65, 96
7, 223679, Note_on_c, 6, 65, 0
7, 223980, Note_on_c, 6, 62, 96
7, 224039, Note_on_c, 6, 62, 0
7, 224040, Note_on_c, 6, 63, 96
7, 224099, Note_on_c, 6, 63, 0
7, 224100, Note_on_c, 6, 65, 96
7, 224159, Note_on_c, 6, 65, 0
7, 224160, Note_on_c, 6, 55, 96
7, 224399, Note_on_c, 6, 55, 0
7, 224700, Note_on_c, 6, 59, 96
7, 224759, Note_on_c, 6, 59, 0
7, 224760, Note_on_c, 6, 60, 96
7, 224819, Note_on_c, 6, 60, 0
7, 224820, Note_on_c, 6, 62, 96
7, 224879, Note_on_c, 6, 62, 0
7, 224880, Note_on_c, 6, 63, 96
7, 225119, Note_on_c, 6, 63, 0
7, 225120, Note_on_c, 6, 65, 96
7, 225359, Note_on_c, 6, 65, 0
7, 225360, Note_on_c, 6, 67, 96
7, 225599, Note_on_c, 6, 67, 0
7, 225600, Note_on_c, 6, 60, 96
7, 226079, Note_on_c, 6, 60, 0
7, 226320, Note_on_c, 6, 62, 96
7, 226320, Note_on_c, 6, 59, 96
7, 226320, Note_on_c, 6, 55, 96
7, 226559, Note_on_c, 6, 62, 0
7, 226559, Note_on_c, 6, 59, 0
7, 226559, Note_on_c, 6, 55, 0
7, 227040, Note_on_c, 6, 63, 96
7, 227040, Note_on_c, 6, 60, 96
7, 227040, Note_on_c, 6, 55, 96
7, 227279, Note_on_c, 6, 63, 0
7, 227279, Note_on_c, 6, 60, 0
7, 227279, Note_on_c, 6, 55, 0
7, 227760, Note_on_c, 6, 65, 96
7, 227760, Note_on_c, 6, 62, 96
7, 227760, Note_on_c, 6, 59, 96
7, 227999, Note_on_c, 6, 65, 0
7, 227999, Note_on_c, 6, 62, 0
7, 227999, Note_on_c, 6, 59, 0
7, 228480, Note_on_c, 6, 63, 96
7, 228480, Note_on_c, 6, 60, 96
7, 228480, Note_on_c, 6, 55, 96
7, 228719, Note_on_c, 6, 63, 0
7, 228719, Note_on_c, 6, 60, 0
7, 228719, Note_on_c, 6, 55, 0
7, 229200, Note_on_c, 6, 67, 96
7, 229439, Note_on_c, 6, 67, 0
7, 229440, Note_on_c, 6, 68, 96
7, 229679, Note_on_c, 6, 68, 0
7, 229680, Note_on_c, 6, 65, 96
7, 229919, Note_on_c, 6, 65, 0
7, 229920, Note_on_c, 6, 62, 96
7, 230159, Note_on_c, 6, 62, 0
7, 230160, Note_on_c, 6, 65, 96
7, 230399, Note_on_c, 6, 65, 0
7, 230400, Note_on_c, 6, 62, 96
7, 230639, Note_on_c, 6, 62, 0
7, 230640, Note_on_c, 6, 67, 96
7, 230640, Note_on_c, 6, 62, 96
7, 230640, Note_on_c, 6, 59, 96
7, 231119, Note_on_c, 6, 67, 0
7, 231119, Note_on_c, 6, 62, 0
7, 231119, Note_on_c, 6, 59, 0
7, 245040, Note_on_c, 6, 75, 96
7, 245040, Note_on_c, 6, 70, 96
7, 245040, Note_on_c, 6, 67, 96
7, 245519, Note_on_c, 6, 75, 0
7, 245519, Note_on_c, 6, 70, 0
7, 245519, Note_on_c, 6, 67, 0
7, 247920, Note_on_c, 6, 77, 96
7, 247920, Note_on_c, 6, 73, 96
7, 247920, Note_on_c, 6, 70, 96
7, 248639, Note_on_c, 6, 77, 0
7, 248639, Note_on_c, 6, 73, 0
7, 248639, Note_on_c, 6, 70, 0
7, 248640, Note_on_c, 6, 76, 96
7, 248640, Note_on_c, 6, 72, 96
7, 248640, Note_on_c, 6, 67, 96
7, 249119, Note_on_c, 6, 76, 0
7, 249119, Note_on_c, 6, 72, 0
7, 249119, Note_on_c, 6, 67, 0
7, 250080, Note_on_c, 6, 72, 96
7, 250080, Note_on_c, 6, 68, 96
7, 250080, Note_on_c, 6, 65, 96
7, 250799, Note_on_c, 6, 72, 0
7, 250799, Note_on_c, 6, 68, 0
7, 250799, Note_on_c, 6, 65, 0
7, 250800, Note_on_c, 6, 72, 96
7, 250800, Note_on_c, 6, 68, 96
7, 250800, Note_on_c, 6, 65, 96
7, 251279, Note_on_c, 6, 72, 0
7, 251279, Note_on_c, 6, 68, 0
7, 251279, Note_on_c, 6, 65, 0
7, 251520, Note_on_c, 6, 73, 96
7, 251520, Note_on_c, 6, 70, 96
7, 251520, Note_on_c, 6, 65, 96
7, 252239, Note_on_c, 6, 73, 0
7, 252239, Note_on_c, 6, 70, 0
7, 252239, Note_on_c, 6, 65, 0
7, 252240, Note_on_c, 6, 73, 96
7, 252240, Note_on_c, 6, 67, 96
7, 252719, Note_on_c, 6, 73, 0
7, 252719, Note_on_c, 6, 67, 0
7, 252960, Note_on_c, 6, 75, 96
7, 252960, Note_on_c, 6, 72, 96
7, 252960, Note_on_c, 6, 67, 96
7, 253679, Note_on_c, 6, 75, 0
7, 253679, Note_on_c, 6, 72, 0
7, 253679, Note_on_c, 6, 67, 0
7, 253680, Note_on_c, 6, 75, 96
7, 253680, Note_on_c, 6, 68, 96
7, 254159, Note_on_c, 6, 75, 0
7, 254159, Note_on_c, 6, 68, 0
7, 254400, Note_on_c, 6, 77, 96
7, 254400, Note_on_c, 6, 73, 96
7, 254400, Note_on_c, 6, 68, 96
7, 255119, Note_on_c, 6, 77, 0
7, 255119, Note_on_c, 6, 73, 0
7, 255119, Note_on_c, 6, 68, 0
7, 255120, Note_on_c, 6, 77, 96
7, 255120, Note_on_c, 6, 70, 96
7, 255599, Note_on_c, 6, 77, 0
7, 255599, Note_on_c, 6, 70, 0
7, 255840, Note_on_c, 6, 79, 96
7, 255840, Note_on_c, 6, 70, 96
7, 256559, Note_on_c, 6, 79, 0
7, 256559, Note_on_c, 6, 70, 0
7, 256560, Note_on_c, 6, 79, 96
7, 256560, Note_on_c, 6, 76, 96
7, 256560, Note_on_c, 6, 70, 96
7, 257039, Note_on_c, 6, 79, 0
7, 257039, Note_on_c, 6, 76, 0
7, 257039, Note_on_c, 6, 70, 0
7, 257280, Note_on_c, 6, 77, 96
7, 257280, Note_on_c, 6, 72, 96
7, 257280, Note_on_c, 6, 68, 96
7, 257999, Note_on_c, 6, 77, 0
7, 257999, Note_on_c, 6, 72, 0
7, 257999, Note_on_c, 6, 68, 0
7, 258000, Note_on_c, 6, 77, 96
7, 258000, Note_on_c, 6, 72, 96
7, 258000, Note_on_c, 6, 68, 96
7, 258479, Note_on_c, 6, 77, 0
7, 258479, Note_on_c, 6, 72, 0
7, 258479, Note_on_c, 6, 68, 0
7, 259440, Note_on_c, 6, 60, 96
7, 260159, Note_on_c, 6, 60, 0
7, 260160, Note_on_c, 6, 58, 96
7, 260879, Note_on_c, 6, 58, 0
7, 260880, Note_on_c, 6, 60, 96
7, 260880, Note_on_c, 6, 53, 96
7, 261599, Note_on_c, 6, 60, 0
7, 261599, Note_on_c, 6, 53, 0
7, 261600, Note_on_c, 6, 65, 96
7, 261600, Note_on_c, 6, 60, 96
7, 261600, Note_on_c, 6, 55, 96
7, 262319, Note_on_c, 6, 65, 0
7, 262319, Note_on_c, 6, 60, 0
7, 262319, Note_on_c, 6, 55, 0
7, 262320, Note_on_c, 6, 64, 96
7, 262320, Note_on_c, 6, 60, 96
7, 262320, Note_on_c, 6, 55, 96
7, 263039, Note_on_c, 6, 64, 0
7, 263039, Note_on_c, 6, 60, 0
7, 263039, Note_on_c, 6, 55, 0
7, 263040, Note_on_c, 6, 65, 96
7, 263040, Note_on_c, 6, 60, 96
7, 263040, Note_on_c, 6, 56, 96
7, 263759, Note_on_c, 6, 65, 0
7, 263759, Note_on_c, 6, 60, 0
7, 263759, Note_on_c, 6, 56, 0
7, 263760, Note_on_c, 6, 60, 96
7, 263760, Note_on_c, 6, 56, 96
7, 264239, Note_on_c, 6, 60, 0
7, 264239, Note_on_c, 6, 56, 0
7, 265200, Note_on_c, 6, 60, 96
7, 265919, Note_on_c, 6, 60, 0
7, 265920, Note_on_c, 6, 58, 96
7, 266639, Note_on_c, 6, 58, 0
7, 266640, Note_on_c, 6, 65, 96
7, 266640, Note_on_c, 6, 60, 96
7, 266640, Note_on_c, 6, 53, 96
7, 267359, Note_on_c, 6, 65, 0
7, 267359, Note_on_c, 6, 60, 0
7, 267359, Note_on_c, 6, 53, 0
7, 267360, Note_on_c, 6, 65, 96
7, 267360, Note_on_c, 6, 60, 96
7, 267360, Note_on_c, 6, 55, 96
7, 268079, Note_on_c, 6, 65, 0
7, 268079, Note_on_c, 6, 60, 0
7, 268079, Note_on_c, 6, 55, 0
7, 268080, Note_on_c, 6, 64, 96
7, 268080, Note_on_c, 6, 60, 96
7, 268080, Note_on_c, 6, 55, 96
7, 268799, Note_on_c, 6, 64, 0
7, 268799, Note_on_c, 6, 60, 0
7, 268799, Note_on_c, 6, 55, 0
7, 268800, Note_on_c, 6, 65, 96
7, 268800, Note_on_c, 6, 60, 96
7, 268800, Note_on_c, 6, 56, 96
7, 269519, Note_on_c, 6, 65, 0
7, 269519, Note_on_c, 6, 60, 0
7, 269519, Note_on_c, 6, 56, 0
7, 269520, End_track
8, 0, Start_track
8, 0, Key_signature, -4, "major"
8, 0, Note_on_c, 6, 53, 64
8, 239, Note_on_c, 6, 53, 0
8, 240, Note_on_c, 6, 53, 64
8, 479, Note_on_c, 6, 53, 0
8, 480, Note_on_c, 6, 53, 64
8, 719, Note_on_c, 6, 53, 0
8, 720, Note_on_c, 6, 53, 64
8, 959, Note_on_c, 6, 53, 0
8, 960, Note_on_c, 6, 53, 64
8, 1199, Note_on_c, 6, 53, 0
8, 1200, Note_on_c, 6, 53, 64
8, 1439, Note_on_c, 6, 53, 0
8, 1440, Note_on_c, 6, 53, 64
8, 1679, Note_on_c, 6, 53, 0
8, 1680, Note_on_c, 6, 53, 64
8, 1919, Note_on_c, 6, 53, 0
8, 1920, Note_on_c, 6, 53, 64
8, 2159, Note_on_c, 6, 53, 0
8, 2160, Note_on_c, 6, 53, 64
8, 2399, Note_on_c, 6, 53, 0
8, 2400, Note_on_c, 6, 53, 64
8, 2639, Note_on_c, 6, 53, 0
8, 2640, Note_on_c, 6, 53, 64
8, 2879, Note_on_c, 6, 53, 0
8, 2880, Note_on_c, 6, 53, 64
8, 3119, Note_on_c, 6, 53, 0
8, 3120, Note_on_c, 6, 53, 64
8, 3359, Note_on_c, 6, 53, 0
8, 3360, Note_on_c, 6, 53, 64
8, 3599, Note_on_c, 6, 53, 0
8, 3600, Note_on_c, 6, 53, 64
8, 3839, Note_on_c, 6, 53, 0
8, 3840, Note_on_c, 6, 53, 64
8, 4079, Note_on_c, 6, 53, 0
8, 4080, Note_on_c, 6, 53, 64
8, 4319, Note_on_c, 6, 53, 0
8, 4320, Note_on_c, 6, 53, 64
8, 4559, Note_on_c, 6, 53, 0
8, 4560, Note_on_c, 6, 53, 64
8, 4799, Note_on_c, 6, 53, 0
8, 4800, Note_on_c, 6, 53, 64
8, 5039, Note_on_c, 6, 53, 0
8, 5040, Note_on_c, 6, 53, 64
8, 5279, Note_on_c, 6, 53, 0
8, 5280, Note_on_c, 6, 53, 64
8, 5519, Note_on_c, 6, 53, 0
8, 5520, Note_on_c, 6, 53, 64
8, 5759, Note_on_c, 6, 53, 0
8, 5760, Note_on_c, 6, 53, 64
8, 5999, Note_on_c, 6, 53, 0
8, 6000, Note_on_c, 6, 53, 64
8, 6239, Note_on_c, 6, 53, 0
8, 6240, Note_on_c, 6, 53, 64
8, 6479, Note_on_c, 6, 53, 0
8, 6480, Note_on_c, 6, 53, 64
8, 6719, Note_on_c, 6, 53, 0
8, 6720, Note_on_c, 6, 53, 64
8, 6959, Note_on_c, 6, 53, 0
8, 6960, Note_on_c, 6, 53, 64
8, 7199, Note_on_c, 6, 53, 0
8, 7200, Note_on_c, 6, 53, 64
8, 7439, Note_on_c, 6, 53, 0
8, 7440, Note_on_c, 6, 53, 64
8, 7679, Note_on_c, 6, 53, 0
8, 7680, Note_on_c, 6, 52, 64
8, 7919, Note_on_c, 6, 52, 0
8, 7920, Note_on_c, 6, 52, 64
8, 8159, Note_on_c, 6, 52, 0
8, 8160, Note_on_c, 6, 52, 64
8, 8399, Note_on_c, 6, 52, 0
8, 8400, Note_on_c, 6, 52, 64
8, 8639, Note_on_c, 6, 52, 0
8, 8640, Note_on_c, 6, 52, 64
8, 8879, Note_on_c, 6, 52, 0
8, 8880, Note_on_c, 6, 52, 64
8, 9119, Note_on_c, 6, 52, 0
8, 9120, Note_on_c, 6, 52, 64
8, 9359, Note_on_c, 6, 52, 0
8, 9360, Note_on_c, 6, 52, 64
8, 9599, Note_on_c, 6, 52, 0
8, 9600, Note_on_c, 6, 53, 64
8, 9839, Note_on_c, 6, 53, 0
8, 9840, Note_on_c, 6, 53, 64
8, 10079, Note_on_c, 6, 53, 0
8, 10080, Note_on_c, 6, 53, 64
8, 10319, Note_on_c, 6, 53, 0
8, 10320, Note_on_c, 6, 53, 64
8, 10559, Note_on_c, 6, 53, 0
8, 10560, Note_on_c, 6, 53, 64
8, 10799, Note_on_c, 6, 53, 0
8, 10800, Note_on_c, 6, 53, 64
8, 11039, Note_on_c, 6, 53, 0
8, 11040, Note_on_c, 6, 53, 64
8, 11279, Note_on_c, 6, 53, 0
8, 11280, Note_on_c, 6, 53, 64
8, 11519, Note_on_c, 6, 53, 0
8, 11520, Note_on_c, 6, 53, 64
8, 11759, Note_on_c, 6, 53, 0
8, 11760, Note_on_c, 6, 53, 64
8, 11999, Note_on_c, 6, 53, 0
8, 12000, Note_on_c, 6, 53, 64
8, 12239, Note_on_c, 6, 53, 0
8, 12240, Note_on_c, 6, 53, 64
8, 12479, Note_on_c, 6, 53, 0
8, 12480, Note_on_c, 6, 53, 64
8, 12719, Note_on_c, 6, 53, 0
8, 12720, Note_on_c, 6, 53, 64
8, 12959, Note_on_c, 6, 53, 0
8, 12960, Note_on_c, 6, 53, 64
8, 13199, Note_on_c, 6, 53, 0
8, 13200, Note_on_c, 6, 53, 64
8, 13439, Note_on_c, 6, 53, 0
8, 13440, Note_on_c, 6, 53, 64
8, 13679, Note_on_c, 6, 53, 0
8, 13680, Note_on_c, 6, 53, 64
8, 13919, Note_on_c, 6, 53, 0
8, 13920, Note_on_c, 6, 53, 64
8, 14159, Note_on_c, 6, 53, 0
8, 14160, Note_on_c, 6, 53, 64
8, 14399, Note_on_c, 6, 53, 0
8, 14400, Note_on_c, 6, 53, 64
8, 14639, Note_on_c, 6, 53, 0
8, 14640, Note_on_c, 6, 53, 64
8, 14879, Note_on_c, 6, 53, 0
8, 14880, Note_on_c, 6, 53, 64
8, 15119, Note_on_c, 6, 53, 0
8, 15120, Note_on_c, 6, 53, 64
8, 15359, Note_on_c, 6, 53, 0
8, 15360, Note_on_c, 6, 53, 64
8, 15599, Note_on_c, 6, 53, 0
8, 15600, Note_on_c, 6, 53, 64
8, 15839, Note_on_c, 6, 53, 0
8, 15840, Note_on_c, 6, 53, 64
8, 16079, Note_on_c, 6, 53, 0
8, 16080, Note_on_c, 6, 53, 64
8, 16319, Note_on_c, 6, 53, 0
8, 16320, Note_on_c, 6, 53, 64
8, 16559, Note_on_c, 6, 53, 0
8, 16560, Note_on_c, 6, 53, 64
8, 16799, Note_on_c, 6, 53, 0
8, 16800, Note_on_c, 6, 53, 64
8, 17039, Note_on_c, 6, 53, 0
8, 17040, Note_on_c, 6, 53, 64
8, 17279, Note_on_c, 6, 53, 0
8, 17280, Note_on_c, 6, 54, 64
8, 17519, Note_on_c, 6, 54, 0
8, 17520, Note_on_c, 6, 54, 64
8, 17759, Note_on_c, 6, 54, 0
8, 17760, Note_on_c, 6, 54, 64
8, 17999, Note_on_c, 6, 54, 0
8, 18000, Note_on_c, 6, 54, 64
8, 18239, Note_on_c, 6, 54, 0
8, 18240, Note_on_c, 6, 54, 64
8, 18479, Note_on_c, 6, 54, 0
8, 18480, Note_on_c, 6, 54, 64
8, 18719, Note_on_c, 6, 54, 0
8, 18720, Note_on_c, 6, 54, 64
8, 18959, Note_on_c, 6, 54, 0
8, 18960, Note_on_c, 6, 54, 64
8, 19199, Note_on_c, 6, 54, 0
8, 19200, Note_on_c, 6, 55, 64
8, 19439, Note_on_c, 6, 55, 0
8, 19440, Note_on_c, 6, 55, 64
8, 19679, Note_on_c, 6, 55, 0
8, 19680, Note_on_c, 6, 55, 64
8, 19919, Note_on_c, 6, 55, 0
8, 19920, Note_on_c, 6, 55, 64
8, 20159, Note_on_c, 6, 55, 0
8, 20160, Note_on_c, 6, 43, 64
8, 20399, Note_on_c, 6, 43, 0
8, 20400, Note_on_c, 6, 43, 64
8, 20639, Note_on_c, 6, 43, 0
8, 20640, Note_on_c, 6, 43, 64
8, 20879, Note_on_c, 6, 43, 0
8, 20880, Note_on_c, 6, 43, 64
8, 21119, Note_on_c, 6, 43, 0
8, 21120, Note_on_c, 6, 48, 96
8, 21599, Note_on_c, 6, 48, 0
8, 24000, Note_on_c, 6, 48, 64
8, 24239, Note_on_c, 6, 48, 0
8, 24240, Note_on_c, 6, 48, 64
8, 24479, Note_on_c, 6, 48, 0
8, 24480, Note_on_c, 6, 48, 64
8, 24719, Note_on_c, 6, 48, 0
8, 24720, Note_on_c, 6, 48, 64
8, 24959, Note_on_c, 6, 48, 0
8, 24960, Note_on_c, 6, 48, 64
8, 25199, Note_on_c, 6, 48, 0
8, 25200, Note_on_c, 6, 48, 64
8, 25439, Note_on_c, 6, 48, 0
8, 25440, Note_on_c, 6, 48, 64
8, 25679, Note_on_c, 6, 48, 0
8, 25680, Note_on_c, 6, 48, 64
8, 25919, Note_on_c, 6, 48, 0
8, 25920, Note_on_c, 6, 48, 64
8, 26399, Note_on_c, 6, 48, 0
8, 28800, Note_on_c, 6, 48, 64
8, 29039, Note_on_c, 6, 48, 0
8, 29040, Note_on_c, 6, 48, 64
8, 29279, Note_on_c, 6, 48, 0
8, 29280, Note_on_c, 6, 48, 64
8, 29519, Note_on_c, 6, 48, 0
8, 29520, Note_on_c, 6, 48, 64
8, 29759, Note_on_c, 6, 48, 0
8, 29760, Note_on_c, 6, 48, 64
8, 29999, Note_on_c, 6, 48, 0
8, 30000, Note_on_c, 6, 48, 64
8, 30239, Note_on_c, 6, 48, 0
8, 30240, Note_on_c, 6, 48, 64
8, 30479, Note_on_c, 6, 48, 0
8, 30480, Note_on_c, 6, 48, 64
8, 30719, Note_on_c, 6, 48, 0
8, 30720, Note_on_c, 6, 48, 64
8, 31199, Note_on_c, 6, 48, 0
8, 36480, Note_on_c, 6, 53, 64
8, 36719, Note_on_c, 6, 53, 0
8, 36720, Note_on_c, 6, 53, 64
8, 36959, Note_on_c, 6, 53, 0
8, 36960, Note_on_c, 6, 53, 64
8, 37199, Note_on_c, 6, 53, 0
8, 37200, Note_on_c, 6, 53, 64
8, 37439, Note_on_c, 6, 53, 0
8, 37440, Note_on_c, 6, 53, 64
8, 37679, Note_on_c, 6, 53, 0
8, 37680, Note_on_c, 6, 53, 64
8, 37919, Note_on_c, 6, 53, 0
8, 37920, Note_on_c, 6, 53, 64
8, 38159, Note_on_c, 6, 53, 0
8, 38160, Note_on_c, 6, 53, 64
8, 38399, Note_on_c, 6, 53, 0
8, 38400, Note_on_c, 6, 51, 64
8, 38639, Note_on_c, 6, 51, 0
8, 38640, Note_on_c, 6, 51, 64
8, 38879, Note_on_c, 6, 51, 0
8, 38880, Note_on_c, 6, 51, 64
8, 39119, Note_on_c, 6, 51, 0
8, 39120, Note_on_c, 6, 51, 64
8, 39359, Note_on_c, 6, 51, 0
8, 39360, Note_on_c, 6, 49, 64
8, 39599, Note_on_c, 6, 49, 0
8, 39600, Note_on_c, 6, 49, 64
8, 39839, Note_on_c, 6, 49, 0
8, 39840, Note_on_c, 6, 49, 64
8, 40079, Note_on_c, 6, 49, 0
8, 40080, Note_on_c, 6, 49, 64
8, 40319, Note_on_c, 6, 49, 0
8, 40320, Note_on_c, 6, 49, 64
8, 40559, Note_on_c, 6, 49, 0
8, 40560, Note_on_c, 6, 49, 64
8, 40799, Note_on_c, 6, 49, 0
8, 40800, Note_on_c, 6, 49, 64
8, 41039, Note_on_c, 6, 49, 0
8, 41040, Note_on_c, 6, 49, 64
8, 41279, Note_on_c, 6, 49, 0
8, 41280, Note_on_c, 6, 48, 64
8, 41759, Note_on_c, 6, 48, 0
8, 42240, Note_on_c, 6, 53, 112
8, 42359, Note_on_c, 6, 53, 0
8, 42360, Note_on_c, 6, 41, 112
8, 42479, Note_on_c, 6, 41, 0
8, 42480, Note_on_c, 6, 53, 112
8, 42599, Note_on_c, 6, 53, 0
8, 42600, Note_on_c, 6, 41, 112
8, 42719, Note_on_c, 6, 41, 0
8, 42720, Note_on_c, 6, 53, 112
8, 42839, Note_on_c, 6, 53, 0
8, 42840, Note_on_c, 6, 41, 112
8, 42959, Note_on_c, 6, 41, 0
8, 42960, Note_on_c, 6, 53, 112
8, 43079, Note_on_c, 6, 53, 0
8, 43080, Note_on_c, 6, 41, 112
8, 43199, Note_on_c, 6, 41, 0
8, 43200, Note_on_c, 6, 46, 112
8, 43679, Note_on_c, 6, 46, 0
8, 44160, Note_on_c, 6, 51, 112
8, 44279, Note_on_c, 6, 51, 0
8, 44280, Note_on_c, 6, 39, 112
8, 44399, Note_on_c, 6, 39, 0
8, 44400, Note_on_c, 6, 51, 112
8, 44519, Note_on_c, 6, 51, 0
8, 44520, Note_on_c, 6, 39, 112
8, 44639, Note_on_c, 6, 39, 0
8, 44640, Note_on_c, 6, 51, 112
8, 44759, Note_on_c, 6, 51, 0
8, 44760, Note_on_c, 6, 39, 112
8, 44879, Note_on_c, 6, 39, 0
8, 44880, Note_on_c, 6, 51, 112
8, 44999, Note_on_c, 6, 51, 0
8, 45000, Note_on_c, 6, 39, 112
8, 45119, Note_on_c, 6, 39, 0
8, 45120, Note_on_c, 6, 44, 112
8, 45599, Note_on_c, 6, 44, 0
8, 46080, Note_on_c, 6, 49, 112
8, 46199, Note_on_c, 6, 49, 0
8, 46200, Note_on_c, 6, 37, 112
8, 46319, Note_on_c, 6, 37, 0
8, 46320, Note_on_c, 6, 49, 112
8, 46439, Note_on_c, 6, 49, 0
8, 46440, Note_on_c, 6, 37, 112
8, 46559, Note_on_c, 6, 37, 0
8, 46560, Note_on_c, 6, 49, 112
8, 46679, Note_on_c, 6, 49, 0
8, 46680, Note_on_c, 6, 37, 112
8, 46799, Note_on_c, 6, 37, 0
8, 46800, Note_on_c, 6, 49, 112
8, 46919, Note_on_c, 6, 49, 0
8, 46920, Note_on_c, 6, 37, 112
8, 47039, Note_on_c, 6, 37, 0
8, 47040, Note_on_c, 6, 43, 112
8, 47519, Note_on_c, 6, 43, 0
8, 48000, Note_on_c, 6, 48, 112
8, 48119, Note_on_c, 6, 48, 0
8, 48120, Note_on_c, 6, 36, 112
8, 48239, Note_on_c, 6, 36, 0
8, 48240, Note_on_c, 6, 48, 112
8, 48359, Note_on_c, 6, 48, 0
8, 48360, Note_on_c, 6, 36, 112
8, 48479, Note_on_c, 6, 36, 0
8, 48480, Note_on_c, 6, 48, 112
8, 48599, Note_on_c, 6, 48, 0
8, 48600, Note_on_c, 6, 36, 112
8, 48719, Note_on_c, 6, 36, 0
8, 48720, Note_on_c, 6, 48, 112
8, 48839, Note_on_c, 6, 48, 0
8, 48840, Note_on_c, 6, 36, 112
8, 48959, Note_on_c, 6, 36, 0
8, 48960, Note_on_c, 6, 53, 112
8, 49079, Note_on_c, 6, 53, 0
8, 49200, Note_on_c, 6, 53, 112
8, 49319, Note_on_c, 6, 53, 0
8, 49440, Note_on_c, 6, 52, 112
8, 49559, Note_on_c, 6, 52, 0
8, 49680, Note_on_c, 6, 52, 112
8, 49799, Note_on_c, 6, 52, 0
8, 49920, Note_on_c, 6, 53, 112
8, 50159, Note_on_c, 6, 53, 0
8, 50160, Note_on_c, 6, 53, 112
8, 50399, Note_on_c, 6, 53, 0
8, 50400, Note_on_c, 6, 55, 112
8, 50639, Note_on_c, 6, 55, 0
8, 50640, Note_on_c, 6, 55, 112
8, 50879, Note_on_c, 6, 55, 0
8, 50880, Note_on_c, 6, 56, 112
8, 51119, Note_on_c, 6, 56, 0
8, 51120, Note_on_c, 6, 56, 112
8, 51359, Note_on_c, 6, 56, 0
8, 51360, Note_on_c, 6, 56, 112
8, 51599, Note_on_c, 6, 56, 0
8, 51600, Note_on_c, 6, 56, 112
8, 51839, Note_on_c, 6, 56, 0
8, 51840, Note_on_c, 6, 53, 112
8, 52079, Note_on_c, 6, 53, 0
8, 52080, Note_on_c, 6, 53, 112
8, 52319, Note_on_c, 6, 53, 0
8, 52320, Note_on_c, 6, 53, 112
8, 52559, Note_on_c, 6, 53, 0
8, 52560, Note_on_c, 6, 53, 112
8, 52799, Note_on_c, 6, 53, 0
8, 52800, Note_on_c, 6, 53, 112
8, 53039, Note_on_c, 6, 53, 0
8, 53040, Note_on_c, 6, 53, 112
8, 53279, Note_on_c, 6, 53, 0
8, 53280, Note_on_c, 6, 53, 112
8, 53519, Note_on_c, 6, 53, 0
8, 53520, Note_on_c, 6, 53, 112
8, 53759, Note_on_c, 6, 53, 0
8, 53760, Note_on_c, 6, 58, 112
8, 53999, Note_on_c, 6, 58, 0
8, 54000, Note_on_c, 6, 58, 112
8, 54239, Note_on_c, 6, 58, 0
8, 54240, Note_on_c, 6, 55, 112
8, 54479, Note_on_c, 6, 55, 0
8, 54480, Note_on_c, 6, 55, 112
8, 54719, Note_on_c, 6, 55, 0
8, 54720, Note_on_c, 6, 55, 112
8, 54959, Note_on_c, 6, 55, 0
8, 54960, Note_on_c, 6, 55, 112
8, 55199, Note_on_c, 6, 55, 0
8, 55200, Note_on_c, 6, 55, 112
8, 55439, Note_on_c, 6, 55, 0
8, 55440, Note_on_c, 6, 55, 112
8, 55679, Note_on_c, 6, 55, 0
8, 55680, Note_on_c, 6, 55, 112
8, 55919, Note_on_c, 6, 55, 0
8, 55920, Note_on_c, 6, 55, 112
8, 56159, Note_on_c, 6, 55, 0
8, 56160, Note_on_c, 6, 55, 112
8, 56399, Note_on_c, 6, 55, 0
8, 56400, Note_on_c, 6, 55, 112
8, 56639, Note_on_c, 6, 55, 0
8, 56640, Note_on_c, 6, 56, 112
8, 56879, Note_on_c, 6, 56, 0
8, 56880, Note_on_c, 6, 56, 112
8, 57119, Note_on_c, 6, 56, 0
8, 57120, Note_on_c, 6, 53, 112
8, 57359, Note_on_c, 6, 53, 0
8, 57360, Note_on_c, 6, 53, 112
8, 57599, Note_on_c, 6, 53, 0
8, 57600, Note_on_c, 6, 53, 112
8, 57839, Note_on_c, 6, 53, 0
8, 57840, Note_on_c, 6, 53, 112
8, 58079, Note_on_c, 6, 53, 0
8, 58080, Note_on_c, 6, 53, 112
8, 58319, Note_on_c, 6, 53, 0
8, 58320, Note_on_c, 6, 53, 112
8, 58559, Note_on_c, 6, 53, 0
8, 58560, Note_on_c, 6, 52, 112
8, 58799, Note_on_c, 6, 52, 0
8, 58800, Note_on_c, 6, 51, 112
8, 59039, Note_on_c, 6, 51, 0
8, 59040, Note_on_c, 6, 50, 112
8, 59279, Note_on_c, 6, 50, 0
8, 59280, Note_on_c, 6, 49, 112
8, 59519, Note_on_c, 6, 49, 0
8, 59520, Note_on_c, 6, 48, 112
8, 59759, Note_on_c, 6, 48, 0
8, 59760, Note_on_c, 6, 48, 112
8, 59999, Note_on_c, 6, 48, 0
8, 60000, Note_on_c, 6, 48, 112
8, 60239, Note_on_c, 6, 48, 0
8, 60240, Note_on_c, 6, 48, 112
8, 60479, Note_on_c, 6, 48, 0
8, 60480, Note_on_c, 6, 48, 112
8, 60719, Note_on_c, 6, 48, 0
8, 60720, Note_on_c, 6, 48, 112
8, 60959, Note_on_c, 6, 48, 0
8, 60960, Note_on_c, 6, 48, 112
8, 61199, Note_on_c, 6, 48, 0
8, 61200, Note_on_c, 6, 48, 112
8, 61439, Note_on_c, 6, 48, 0
8, 61440, Note_on_c, 6, 48, 112
8, 61679, Note_on_c, 6, 48, 0
8, 61680, Note_on_c, 6, 48, 112
8, 61919, Note_on_c, 6, 48, 0
8, 61920, Note_on_c, 6, 48, 112
8, 62159, Note_on_c, 6, 48, 0
8, 62160, Note_on_c, 6, 48, 112
8, 62399, Note_on_c, 6, 48, 0
8, 62400, Note_on_c, 6, 48, 112
8, 62459, Note_on_c, 6, 48, 0
8, 62460, Note_on_c, 6, 48, 112
8, 62519, Note_on_c, 6, 48, 0
8, 62520, Note_on_c, 6, 48, 112
8, 62579, Note_on_c, 6, 48, 0
8, 62580, Note_on_c, 6, 48, 112
8, 62639, Note_on_c, 6, 48, 0
8, 62640, Note_on_c, 6, 48, 112
8, 62699, Note_on_c, 6, 48, 0
8, 62700, Note_on_c, 6, 48, 112
8, 62759, Note_on_c, 6, 48, 0
8, 62760, Note_on_c, 6, 48, 112
8, 62819, Note_on_c, 6, 48, 0
8, 62820, Note_on_c, 6, 48, 112
8, 62879, Note_on_c, 6, 48, 0
8, 62880, Note_on_c, 6, 48, 112
8, 62939, Note_on_c, 6, 48, 0
8, 62940, Note_on_c, 6, 48, 112
8, 62999, Note_on_c, 6, 48, 0
8, 63000, Note_on_c, 6, 48, 112
8, 63059, Note_on_c, 6, 48, 0
8, 63060, Note_on_c, 6, 48, 112
8, 63119, Note_on_c, 6, 48, 0
8, 63120, Note_on_c, 6, 48, 112
8, 63179, Note_on_c, 6, 48, 0
8, 63180, Note_on_c, 6, 48, 112
8, 63239, Note_on_c, 6, 48, 0
8, 63240, Note_on_c, 6, 48, 112
8, 63299, Note_on_c, 6, 48, 0
8, 63300, Note_on_c, 6, 48, 112
8, 63359, Note_on_c, 6, 48, 0
8, 63360, Note_on_c, 6, 53, 96
8, 63839, Note_on_c, 6, 53, 0
8, 64320, Note_on_c, 6, 53, 96
8, 64379, Note_on_c, 6, 53, 0
8, 64380, Note_on_c, 6, 53, 96
8, 64439, Note_on_c, 6, 53, 0
8, 64440, Note_on_c, 6, 53, 96
8, 64499, Note_on_c, 6, 53, 0
8, 64500, Note_on_c, 6, 53, 96
8, 64559, Note_on_c, 6, 53, 0
8, 64560, Note_on_c, 6, 53, 96
8, 64619, Note_on_c, 6, 53, 0
8, 64620, Note_on_c, 6, 53, 96
8, 64679, Note_on_c, 6, 53, 0
8, 64680, Note_on_c, 6, 53, 96
8, 64739, Note_on_c, 6, 53, 0
8, 64740, Note_on_c, 6, 53, 96
8, 64799, Note_on_c, 6, 53, 0
8, 64800, Note_on_c, 6, 53, 96
8, 64859, Note_on_c, 6, 53, 0
8, 64860, Note_on_c, 6, 53, 96
8, 64919, Note_on_c, 6, 53, 0
8, 64920, Note_on_c, 6, 53, 96
8, 64979, Note_on_c, 6, 53, 0
8, 64980, Note_on_c, 6, 53, 96
8, 65039, Note_on_c, 6, 53, 0
8, 65040, Note_on_c, 6, 53, 96
8, 65099, Note_on_c, 6, 53, 0
8, 65100, Note_on_c, 6, 53, 96
8, 65159, Note_on_c, 6, 53, 0
8, 65160, Note_on_c, 6, 53, 96
8, 65219, Note_on_c, 6, 53, 0
8, 65220, Note_on_c, 6, 53, 96
8, 65279, Note_on_c, 6, 53, 0
8, 65280, Note_on_c, 6, 46, 96
8, 65759, Note_on_c, 6, 46, 0
8, 66240, Note_on_c, 6, 55, 64
8, 66299, Note_on_c, 6, 55, 0
8, 66300, Note_on_c, 6, 55, 64
8, 66359, Note_on_c, 6, 55, 0
8, 66360, Note_on_c, 6, 55, 64
8, 66419, Note_on_c, 6, 55, 0
8, 66420, Note_on_c, 6, 55, 64
8, 66479, Note_on_c, 6, 55, 0
8, 66480, Note_on_c, 6, 55, 64
8, 66539, Note_on_c, 6, 55, 0
8, 66540, Note_on_c, 6, 55, 64
8, 66599, Note_on_c, 6, 55, 0
8, 66600, Note_on_c, 6, 55, 64
8, 66659, Note_on_c, 6, 55, 0
8, 66660, Note_on_c, 6, 55, 64
8, 66719, Note_on_c, 6, 55, 0
8, 66720, Note_on_c, 6, 55, 64
8, 66779, Note_on_c, 6, 55, 0
8, 66780, Note_on_c, 6, 55, 64
8, 66839, Note_on_c, 6, 55, 0
8, 66840, Note_on_c, 6, 55, 64
8, 66899, Note_on_c, 6, 55, 0
8, 66900, Note_on_c, 6, 55, 64
8, 66959, Note_on_c, 6, 55, 0
8, 66960, Note_on_c, 6, 55, 64
8, 67019, Note_on_c, 6, 55, 0
8, 67020, Note_on_c, 6, 55, 64
8, 67079, Note_on_c, 6, 55, 0
8, 67080, Note_on_c, 6, 55, 64
8, 67139, Note_on_c, 6, 55, 0
8, 67140, Note_on_c, 6, 55, 64
8, 67199, Note_on_c, 6, 55, 0
8, 67200, Note_on_c, 6, 48, 96
8, 67679, Note_on_c, 6, 48, 0
8, 68160, Note_on_c, 6, 46, 64
8, 68219, Note_on_c, 6, 46, 0
8, 68220, Note_on_c, 6, 46, 64
8, 68279, Note_on_c, 6, 46, 0
8, 68280, Note_on_c, 6, 46, 64
8, 68339, Note_on_c, 6, 46, 0
8, 68340, Note_on_c, 6, 46, 64
8, 68399, Note_on_c, 6, 46, 0
8, 68400, Note_on_c, 6, 46, 64
8, 68459, Note_on_c, 6, 46, 0
8, 68460, Note_on_c, 6, 46, 64
8, 68519, Note_on_c, 6, 46, 0
8, 68520, Note_on_c, 6, 46, 64
8, 68579, Note_on_c, 6, 46, 0
8, 68580, Note_on_c, 6, 46, 64
8, 68639, Note_on_c, 6, 46, 0
8, 68640, Note_on_c, 6, 46, 64
8, 68699, Note_on_c, 6, 46, 0
8, 68700, Note_on_c, 6, 46, 64
8, 68759, Note_on_c, 6, 46, 0
8, 68760, Note_on_c, 6, 46, 64
8, 68819, Note_on_c, 6, 46, 0
8, 68820, Note_on_c, 6, 46, 64
8, 68879, Note_on_c, 6, 46, 0
8, 68880, Note_on_c, 6, 46, 64
8, 68939, Note_on_c, 6, 46, 0
8, 68940, Note_on_c, 6, 46, 64
8, 68999, Note_on_c, 6, 46, 0
8, 69000, Note_on_c, 6, 46, 64
8, 69059, Note_on_c, 6, 46, 0
8, 69060, Note_on_c, 6, 46, 64
8, 69119, Note_on_c, 6, 46, 0
8, 69120, Note_on_c, 6, 51, 96
8, 69599, Note_on_c, 6, 51, 0
8, 70080, Note_on_c, 6, 44, 96
8, 70139, Note_on_c, 6, 44, 0
8, 70140, Note_on_c, 6, 44, 96
8, 70199, Note_on_c, 6, 44, 0
8, 70200, Note_on_c, 6, 44, 96
8, 70259, Note_on_c, 6, 44, 0
8, 70260, Note_on_c, 6, 44, 96
8, 70319, Note_on_c, 6, 44, 0
8, 70320, Note_on_c, 6, 44, 96
8, 70379, Note_on_c, 6, 44, 0
8, 70380, Note_on_c, 6, 44, 96
8, 70439, Note_on_c, 6, 44, 0
8, 70440, Note_on_c, 6, 44, 96
8, 70499, Note_on_c, 6, 44, 0
8, 70500, Note_on_c, 6, 44, 96
8, 70559, Note_on_c, 6, 44, 0
8, 70560, Note_on_c, 6, 44, 96
8, 70619, Note_on_c, 6, 44, 0
8, 70620, Note_on_c, 6, 44, 96
8, 70679, Note_on_c, 6, 44, 0
8, 70680, Note_on_c, 6, 44, 96
8, 70739, Note_on_c, 6, 44, 0
8, 70740, Note_on_c, 6, 44, 96
8, 70799, Note_on_c, 6, 44, 0
8, 70800, Note_on_c, 6, 44, 96
8, 70859, Note_on_c, 6, 44, 0
8, 70860, Note_on_c, 6, 44, 96
8, 70919, Note_on_c, 6, 44, 0
8, 70920, Note_on_c, 6, 44, 96
8, 70979, Note_on_c, 6, 44, 0
8, 70980, Note_on_c, 6, 44, 96
8, 71039, Note_on_c, 6, 44, 0
8, 71040, Note_on_c, 6, 46, 96
8, 71099, Note_on_c, 6, 46, 0
8, 71100, Note_on_c, 6, 46, 96
8, 71159, Note_on_c, 6, 46, 0
8, 71160, Note_on_c, 6, 46, 96
8, 71219, Note_on_c, 6, 46, 0
8, 71220, Note_on_c, 6, 46, 96
8, 71279, Note_on_c, 6, 46, 0
8, 71280, Note_on_c, 6, 46, 96
8, 71339, Note_on_c, 6, 46, 0
8, 71340, Note_on_c, 6, 46, 96
8, 71399, Note_on_c, 6, 46, 0
8, 71400, Note_on_c, 6, 46, 96
8, 71459, Note_on_c, 6, 46, 0
8, 71460, Note_on_c, 6, 46, 96
8, 71519, Note_on_c, 6, 46, 0
8, 71520, Note_on_c, 6, 46, 96
8, 71579, Note_on_c, 6, 46, 0
8, 71580, Note_on_c, 6, 46, 96
8, 71639, Note_on_c, 6, 46, 0
8, 71640, Note_on_c, 6, 46, 96
8, 71699, Note_on_c, 6, 46, 0
8, 71700, Note_on_c, 6, 46, 96
8, 71759, Note_on_c, 6, 46, 0
8, 71760, Note_on_c, 6, 46, 96
8, 71819, Note_on_c, 6, 46, 0
8, 71820, Note_on_c, 6, 46, 96
8, 71879, Note_on_c, 6, 46, 0
8, 71880, Note_on_c, 6, 46, 96
8, 71939, Note_on_c, 6, 46, 0
8, 71940, Note_on_c, 6, 46, 96
8, 71999, Note_on_c, 6, 46, 0
8, 72000, Note_on_c, 6, 51, 96
8, 72239, Note_on_c, 6, 51, 0
8, 72240, Note_on_c, 6, 51, 64
8, 72479, Note_on_c, 6, 51, 0
8, 72480, Note_on_c, 6, 51, 64
8, 72719, Note_on_c, 6, 51, 0
8, 72720, Note_on_c, 6, 51, 64
8, 72959, Note_on_c, 6, 51, 0
8, 72960, Note_on_c, 6, 51, 64
8, 73199, Note_on_c, 6, 51, 0
8, 73200, Note_on_c, 6, 51, 64
8, 73439, Note_on_c, 6, 51, 0
8, 73440, Note_on_c, 6, 51, 64
8, 73679, Note_on_c, 6, 51, 0
8, 73680, Note_on_c, 6, 51, 64
8, 73919, Note_on_c, 6, 51, 0
8, 73920, Note_on_c, 6, 51, 64
8, 74159, Note_on_c, 6, 51, 0
8, 74160, Note_on_c, 6, 51, 64
8, 74399, Note_on_c, 6, 51, 0
8, 74400, Note_on_c, 6, 51, 64
8, 74639, Note_on_c, 6, 51, 0
8, 74640, Note_on_c, 6, 51, 64
8, 74879, Note_on_c, 6, 51, 0
8, 74880, Note_on_c, 6, 51, 64
8, 75119, Note_on_c, 6, 51, 0
8, 75120, Note_on_c, 6, 51, 64
8, 75359, Note_on_c, 6, 51, 0
8, 75360, Note_on_c, 6, 51, 64
8, 75599, Note_on_c, 6, 51, 0
8, 75600, Note_on_c, 6, 51, 64
8, 75839, Note_on_c, 6, 51, 0
8, 75840, Note_on_c, 6, 50, 64
8, 76079, Note_on_c, 6, 50, 0
8, 76080, Note_on_c, 6, 50, 64
8, 76319, Note_on_c, 6, 50, 0
8, 76320, Note_on_c, 6, 50, 64
8, 76559, Note_on_c, 6, 50, 0
8, 76560, Note_on_c, 6, 50, 64
8, 76799, Note_on_c, 6, 50, 0
8, 76800, Note_on_c, 6, 51, 64
8, 77039, Note_on_c, 6, 51, 0
8, 77040, Note_on_c, 6, 51, 64
8, 77279, Note_on_c, 6, 51, 0
8, 77280, Note_on_c, 6, 51, 64
8, 77519, Note_on_c, 6, 51, 0
8, 77520, Note_on_c, 6, 51, 64
8, 77759, Note_on_c, 6, 51, 0
8, 77760, Note_on_c, 6, 51, 64
8, 77999, Note_on_c, 6, 51, 0
8, 78000, Note_on_c, 6, 51, 64
8, 78239, Note_on_c, 6, 51, 0
8, 78240, Note_on_c, 6, 51, 64
8, 78479, Note_on_c, 6, 51, 0
8, 78480, Note_on_c, 6, 51, 64
8, 78719, Note_on_c, 6, 51, 0
8, 78720, Note_on_c, 6, 44, 64
8, 78959, Note_on_c, 6, 44, 0
8, 78960, Note_on_c, 6, 44, 64
8, 79199, Note_on_c, 6, 44, 0
8, 79200, Note_on_c, 6, 44, 64
8, 79439, Note_on_c, 6, 44, 0
8, 79440, Note_on_c, 6, 44, 64
8, 79679, Note_on_c, 6, 44, 0
8, 79680, Note_on_c, 6, 41, 64
8, 79919, Note_on_c, 6, 41, 0
8, 79920, Note_on_c, 6, 41, 64
8, 80159, Note_on_c, 6, 41, 0
8, 80160, Note_on_c, 6, 41, 64
8, 80399, Note_on_c, 6, 41, 0
8, 80400, Note_on_c, 6, 41, 64
8, 80639, Note_on_c, 6, 41, 0
8, 80640, Note_on_c, 6, 46, 64
8, 80879, Note_on_c, 6, 46, 0
8, 80880, Note_on_c, 6, 46, 64
8, 81119, Note_on_c, 6, 46, 0
8, 81120, Note_on_c, 6, 46, 64
8, 81359, Note_on_c, 6, 46, 0
8, 81360, Note_on_c, 6, 46, 64
8, 81599, Note_on_c, 6, 46, 0
8, 81600, Note_on_c, 6, 46, 64
8, 81839, Note_on_c, 6, 46, 0
8, 81840, Note_on_c, 6, 46, 64
8, 82079, Note_on_c, 6, 46, 0
8, 82080, Note_on_c, 6, 46, 64
8, 82319, Note_on_c, 6, 46, 0
8, 82320, Note_on_c, 6, 46, 64
8, 82559, Note_on_c, 6, 46, 0
8, 82560, Note_on_c, 6, 51, 96
8, 83039, Note_on_c, 6, 51, 0
8, 83520, Note_on_c, 6, 55, 96
8, 83999, Note_on_c, 6, 55, 0
8, 84000, Note_on_c, 6, 51, 96
8, 84479, Note_on_c, 6, 51, 0
8, 84480, Note_on_c, 6, 44, 96
8, 84959, Note_on_c, 6, 44, 0
8, 85440, Note_on_c, 6, 57, 96
8, 85919, Note_on_c, 6, 57, 0
8, 85920, Note_on_c, 6, 53, 96
8, 86399, Note_on_c, 6, 53, 0
8, 86400, Note_on_c, 6, 46, 96
8, 86879, Note_on_c, 6, 46, 0
8, 87360, Note_on_c, 6, 59, 96
8, 87839, Note_on_c, 6, 59, 0
8, 87840, Note_on_c, 6, 55, 96
8, 88319, Note_on_c, 6, 55, 0
8, 88320, Note_on_c, 6, 48, 96
8, 88799, Note_on_c, 6, 48, 0
8, 105600, Note_on_c, 6, 48, 96
8, 106079, Note_on_c, 6, 48, 0
8, 106560, Note_on_c, 6, 53, 112
8, 106679, Note_on_c, 6, 53, 0
8, 106680, Note_on_c, 6, 41, 112
8, 106799, Note_on_c, 6, 41, 0
8, 106800, Note_on_c, 6, 53, 112
8, 106919, Note_on_c, 6, 53, 0
8, 106920, Note_on_c, 6, 41, 112
8, 107039, Note_on_c, 6, 41, 0
8, 107040, Note_on_c, 6, 53, 112
8, 107159, Note_on_c, 6, 53, 0
8, 107160, Note_on_c, 6, 41, 112
8, 107279, Note_on_c, 6, 41, 0
8, 107280, Note_on_c, 6, 53, 112
8, 107399, Note_on_c, 6, 53, 0
8, 107400, Note_on_c, 6, 41, 112
8, 107519, Note_on_c, 6, 41, 0
8, 107520, Note_on_c, 6, 46, 112
8, 107999, Note_on_c, 6, 46, 0
8, 108480, Note_on_c, 6, 51, 112
8, 108599, Note_on_c, 6, 51, 0
8, 108600, Note_on_c, 6, 39, 112
8, 108719, Note_on_c, 6, 39, 0
8, 108720, Note_on_c, 6, 51, 112
8, 108839, Note_on_c, 6, 51, 0
8, 108840, Note_on_c, 6, 39, 112
8, 108959, Note_on_c, 6, 39, 0
8, 108960, Note_on_c, 6, 51, 112
8, 109079, Note_on_c, 6, 51, 0
8, 109080, Note_on_c, 6, 39, 112
8, 109199, Note_on_c, 6, 39, 0
8, 109200, Note_on_c, 6, 51, 112
8, 109319, Note_on_c, 6, 51, 0
8, 109320, Note_on_c, 6, 39, 112
8, 109439, Note_on_c, 6, 39, 0
8, 109440, Note_on_c, 6, 44, 112
8, 109919, Note_on_c, 6, 44, 0
8, 110400, Note_on_c, 6, 49, 112
8, 110519, Note_on_c, 6, 49, 0
8, 110520, Note_on_c, 6, 37, 112
8, 110639, Note_on_c, 6, 37, 0
8, 110640, Note_on_c, 6, 49, 112
8, 110759, Note_on_c, 6, 49, 0
8, 110760, Note_on_c, 6, 37, 112
8, 110879, Note_on_c, 6, 37, 0
8, 110880, Note_on_c, 6, 49, 112
8, 110999, Note_on_c, 6, 49, 0
8, 111000, Note_on_c, 6, 37, 112
8, 111119, Note_on_c, 6, 37, 0
8, 111120, Note_on_c, 6, 49, 112
8, 111239, Note_on_c, 6, 49, 0
8, 111240, Note_on_c, 6, 37, 112
8, 111359, Note_on_c, 6, 37, 0
8, 111360, Note_on_c, 6, 43, 112
8, 111839, Note_on_c, 6, 43, 0
8, 112320, Note_on_c, 6, 60, 112
8, 112439, Note_on_c, 6, 60, 0
8, 112440, Note_on_c, 6, 48, 112
8, 112559, Note_on_c, 6, 48, 0
8, 112560, Note_on_c, 6, 60, 112
8, 112679, Note_on_c, 6, 60, 0
8, 112680, Note_on_c, 6, 48, 112
8, 112799, Note_on_c, 6, 48, 0
8, 112800, Note_on_c, 6, 60, 112
8, 112919, Note_on_c, 6, 60, 0
8, 112920, Note_on_c, 6, 48, 112
8, 113039, Note_on_c, 6, 48, 0
8, 113040, Note_on_c, 6, 60, 112
8, 113159, Note_on_c, 6, 60, 0
8, 113160, Note_on_c, 6, 48, 112
8, 113279, Note_on_c, 6, 48, 0
8, 113280, Note_on_c, 6, 53, 112
8, 113399, Note_on_c, 6, 53, 0
8, 113400, Note_on_c, 6, 53, 112
8, 113459, Note_on_c, 6, 53, 0
8, 113460, Note_on_c, 6, 53, 112
8, 113519, Note_on_c, 6, 53, 0
8, 113520, Note_on_c, 6, 53, 112
8, 113579, Note_on_c, 6, 53, 0
8, 113580, Note_on_c, 6, 53, 112
8, 113639, Note_on_c, 6, 53, 0
8, 113640, Note_on_c, 6, 53, 112
8, 113699, Note_on_c, 6, 53, 0
8, 113700, Note_on_c, 6, 53, 112
8, 113759, Note_on_c, 6, 53, 0
8, 113760, Note_on_c, 6, 53, 112
8, 113879, Note_on_c, 6, 53, 0
8, 113880, Note_on_c, 6, 53, 112
8, 113999, Note_on_c, 6, 53, 0
8, 114000, Note_on_c, 6, 53, 112
8, 114119, Note_on_c, 6, 53, 0
8, 114120, Note_on_c, 6, 53, 112
8, 114239, Note_on_c, 6, 53, 0
8, 114240, Note_on_c, 6, 46, 112
8, 114359, Note_on_c, 6, 46, 0
8, 114360, Note_on_c, 6, 46, 112
8, 114419, Note_on_c, 6, 46, 0
8, 114420, Note_on_c, 6, 46, 112
8, 114479, Note_on_c, 6, 46, 0
8, 114480, Note_on_c, 6, 46, 112
8, 114539, Note_on_c, 6, 46, 0
8, 114540, Note_on_c, 6, 46, 112
8, 114599, Note_on_c, 6, 46, 0
8, 114600, Note_on_c, 6, 46, 112
8, 114659, Note_on_c, 6, 46, 0
8, 114660, Note_on_c, 6, 46, 112
8, 114719, Note_on_c, 6, 46, 0
8, 114720, Note_on_c, 6, 46, 112
8, 114839, Note_on_c, 6, 46, 0
8, 114840, Note_on_c, 6, 46, 112
8, 114959, Note_on_c, 6, 46, 0
8, 114960, Note_on_c, 6, 46, 112
8, 115079, Note_on_c, 6, 46, 0
8, 115080, Note_on_c, 6, 46, 112
8, 115199, Note_on_c, 6, 46, 0
8, 115200, Note_on_c, 6, 48, 112
8, 115319, Note_on_c, 6, 48, 0
8, 115320, Note_on_c, 6, 48, 112
8, 115379, Note_on_c, 6, 48, 0
8, 115380, Note_on_c, 6, 48, 112
8, 115439, Note_on_c, 6, 48, 0
8, 115440, Note_on_c, 6, 48, 112
8, 115499, Note_on_c, 6, 48, 0
8, 115500, Note_on_c, 6, 48, 112
8, 115559, Note_on_c, 6, 48, 0
8, 115560, Note_on_c, 6, 48, 112
8, 115619, Note_on_c, 6, 48, 0
8, 115620, Note_on_c, 6, 48, 112
8, 115679, Note_on_c, 6, 48, 0
8, 115680, Note_on_c, 6, 48, 112
8, 115799, Note_on_c, 6, 48, 0
8, 115800, Note_on_c, 6, 48, 112
8, 115919, Note_on_c, 6, 48, 0
8, 115920, Note_on_c, 6, 48, 112
8, 116039, Note_on_c, 6, 48, 0
8, 116040, Note_on_c, 6, 48, 112
8, 116159, Note_on_c, 6, 48, 0
8, 116160, Note_on_c, 6, 41, 112
8, 116279, Note_on_c, 6, 41, 0
8, 116280, Note_on_c, 6, 53, 112
8, 116339, Note_on_c, 6, 53, 0
8, 116340, Note_on_c, 6, 53, 112
8, 116399, Note_on_c, 6, 53, 0
8, 116400, Note_on_c, 6, 53, 112
8, 116459, Note_on_c, 6, 53, 0
8, 116460, Note_on_c, 6, 53, 112
8, 116519, Note_on_c, 6, 53, 0
8, 116520, Note_on_c, 6, 53, 112
8, 116579, Note_on_c, 6, 53, 0
8, 116580, Note_on_c, 6, 53, 112
8, 116639, Note_on_c, 6, 53, 0
8, 116640, Note_on_c, 6, 53, 112
8, 116759, Note_on_c, 6, 53, 0
8, 116760, Note_on_c, 6, 53, 112
8, 116879, Note_on_c, 6, 53, 0
8, 116880, Note_on_c, 6, 53, 112
8, 116999, Note_on_c, 6, 53, 0
8, 117000, Note_on_c, 6, 53, 112
8, 117119, Note_on_c, 6, 53, 0
8, 117120, Note_on_c, 6, 46, 112
8, 117239, Note_on_c, 6, 46, 0
8, 117240, Note_on_c, 6, 46, 112
8, 117299, Note_on_c, 6, 46, 0
8, 117300, Note_on_c, 6, 46, 112
8, 117359, Note_on_c, 6, 46, 0
8, 117360, Note_on_c, 6, 46, 112
8, 117419, Note_on_c, 6, 46, 0
8, 117420, Note_on_c, 6, 46, 112
8, 117479, Note_on_c, 6, 46, 0
8, 117480, Note_on_c, 6, 46, 112
8, 117539, Note_on_c, 6, 46, 0
8, 117540, Note_on_c, 6, 46, 112
8, 117599, Note_on_c, 6, 46, 0
8, 117600, Note_on_c, 6, 46, 112
8, 117719, Note_on_c, 6, 46, 0
8, 117720, Note_on_c, 6, 46, 112
8, 117839, Note_on_c, 6, 46, 0
8, 117840, Note_on_c, 6, 46, 112
8, 117959, Note_on_c, 6, 46, 0
8, 117960, Note_on_c, 6, 46, 112
8, 118079, Note_on_c, 6, 46, 0
8, 118080, Note_on_c, 6, 48, 112
8, 118199, Note_on_c, 6, 48, 0
8, 118200, Note_on_c, 6, 48, 112
8, 118259, Note_on_c, 6, 48, 0
8, 118260, Note_on_c, 6, 48, 112
8, 118319, Note_on_c, 6, 48, 0
8, 118320, Note_on_c, 6, 48, 112
8, 118379, Note_on_c, 6, 48, 0
8, 118380, Note_on_c, 6, 48, 112
8, 118439, Note_on_c, 6, 48, 0
8, 118440, Note_on_c, 6, 48, 112
8, 118499, Note_on_c, 6, 48, 0
8, 118500, Note_on_c, 6, 48, 112
8, 118559, Note_on_c, 6, 48, 0
8, 118560, Note_on_c, 6, 48, 112
8, 118679, Note_on_c, 6, 48, 0
8, 118680, Note_on_c, 6, 48, 112
8, 118799, Note_on_c, 6, 48, 0
8, 118800, Note_on_c, 6, 48, 112
8, 118919, Note_on_c, 6, 48, 0
8, 118920, Note_on_c, 6, 48, 112
8, 119039, Note_on_c, 6, 48, 0
8, 119040, Note_on_c, 6, 41, 112
8, 120959, Note_on_c, 6, 41, 0
8, 122880, Key_signature, -3, "major"
8, 122880, Note_on_c, 6, 51, 112
8, 123119, Note_on_c, 6, 51, 0
8, 123120, Note_on_c, 6, 51, 112
8, 123359, Note_on_c, 6, 51, 0
8, 123360, Note_on_c, 6, 51, 112
8, 123599, Note_on_c, 6, 51, 0
8, 123600, Note_on_c, 6, 51, 112
8, 123839, Note_on_c, 6, 51, 0
8, 123840, Note_on_c, 6, 46, 112
8, 124079, Note_on_c, 6, 46, 0
8, 124080, Note_on_c, 6, 46, 112
8, 124319, Note_on_c, 6, 46, 0
8, 124320, Note_on_c, 6, 46, 112
8, 124559, Note_on_c, 6, 46, 0
8, 124560, Note_on_c, 6, 46, 112
8, 124799, Note_on_c, 6, 46, 0
8, 124800, Note_on_c, 6, 46, 112
8, 125039, Note_on_c, 6, 46, 0
8, 125040, Note_on_c, 6, 46, 112
8, 125279, Note_on_c, 6, 46, 0
8, 125280, Note_on_c, 6, 46, 112
8, 125519, Note_on_c, 6, 46, 0
8, 125520, Note_on_c, 6, 46, 112
8, 125759, Note_on_c, 6, 46, 0
8, 125760, Note_on_c, 6, 51, 112
8, 125999, Note_on_c, 6, 51, 0
8, 126000, Note_on_c, 6, 51, 112
8, 126239, Note_on_c, 6, 51, 0
8, 126240, Note_on_c, 6, 51, 112
8, 126479, Note_on_c, 6, 51, 0
8, 126480, Note_on_c, 6, 51, 112
8, 126719, Note_on_c, 6, 51, 0
8, 126720, Note_on_c, 6, 50, 112
8, 126959, Note_on_c, 6, 50, 0
8, 126960, Note_on_c, 6, 50, 112
8, 127199, Note_on_c, 6, 50, 0
8, 127200, Note_on_c, 6, 50, 112
8, 127439, Note_on_c, 6, 50, 0
8, 127440, Note_on_c, 6, 50, 112
8, 127679, Note_on_c, 6, 50, 0
8, 127680, Note_on_c, 6, 48, 112
8, 127919, Note_on_c, 6, 48, 0
8, 127920, Note_on_c, 6, 48, 112
8, 128159, Note_on_c, 6, 48, 0
8, 128160, Note_on_c, 6, 48, 112
8, 128399, Note_on_c, 6, 48, 0
8, 128400, Note_on_c, 6, 48, 112
8, 128639, Note_on_c, 6, 48, 0
8, 128640, Note_on_c, 6, 46, 112
8, 128879, Note_on_c, 6, 46, 0
8, 128880, Note_on_c, 6, 46, 112
8, 129119, Note_on_c, 6, 46, 0
8, 129120, Note_on_c, 6, 46, 112
8, 129359, Note_on_c, 6, 46, 0
8, 129360, Note_on_c, 6, 46, 112
8, 129599, Note_on_c, 6, 46, 0
8, 129600, Note_on_c, 6, 44, 112
8, 129839, Note_on_c, 6, 44, 0
8, 129840, Note_on_c, 6, 44, 112
8, 130079, Note_on_c, 6, 44, 0
8, 130080, Note_on_c, 6, 45, 112
8, 130319, Note_on_c, 6, 45, 0
8, 130320, Note_on_c, 6, 45, 112
8, 130559, Note_on_c, 6, 45, 0
8, 130560, Note_on_c, 6, 46, 112
8, 130799, Note_on_c, 6, 46, 0
8, 130800, Note_on_c, 6, 46, 112
8, 131039, Note_on_c, 6, 46, 0
8, 131040, Note_on_c, 6, 46, 112
8, 131279, Note_on_c, 6, 46, 0
8, 131280, Note_on_c, 6, 46, 112
8, 131519, Note_on_c, 6, 46, 0
8, 131520, Note_on_c, 6, 46, 112
8, 131759, Note_on_c, 6, 46, 0
8, 131760, Note_on_c, 6, 46, 112
8, 131999, Note_on_c, 6, 46, 0
8, 132000, Note_on_c, 6, 46, 112
8, 132239, Note_on_c, 6, 46, 0
8, 132240, Note_on_c, 6, 46, 112
8, 132479, Note_on_c, 6, 46, 0
8, 132480, Note_on_c, 6, 51, 112
8, 132719, Note_on_c, 6, 51, 0
8, 132720, Note_on_c, 6, 51, 112
8, 132959, Note_on_c, 6, 51, 0
8, 132960, Note_on_c, 6, 51, 112
8, 133199, Note_on_c, 6, 51, 0
8, 133200, Note_on_c, 6, 51, 112
8, 133439, Note_on_c, 6, 51, 0
8, 133440, Note_on_c, 6, 51, 112
8, 133679, Note_on_c, 6, 51, 0
8, 133680, Note_on_c, 6, 51, 112
8, 133919, Note_on_c, 6, 51, 0
8, 133920, Note_on_c, 6, 51, 112
8, 134159, Note_on_c, 6, 51, 0
8, 134160, Note_on_c, 6, 51, 112
8, 134399, Note_on_c, 6, 51, 0
8, 134400, Note_on_c, 6, 46, 112
8, 134639, Note_on_c, 6, 46, 0
8, 134640, Note_on_c, 6, 46, 112
8, 134879, Note_on_c, 6, 46, 0
8, 134880, Note_on_c, 6, 46, 112
8, 135119, Note_on_c, 6, 46, 0
8, 135120, Note_on_c, 6, 46, 112
8, 135359, Note_on_c, 6, 46, 0
8, 135360, Note_on_c, 6, 41, 112
8, 135599, Note_on_c, 6, 41, 0
8, 135600, Note_on_c, 6, 41, 112
8, 135839, Note_on_c, 6, 41, 0
8, 135840, Note_on_c, 6, 41, 112
8, 136079, Note_on_c, 6, 41, 0
8, 136080, Note_on_c, 6, 41, 112
8, 136319, Note_on_c, 6, 41, 0
8, 136320, Note_on_c, 6, 41, 112
8, 136559, Note_on_c, 6, 41, 0
8, 136560, Note_on_c, 6, 41, 112
8, 136799, Note_on_c, 6, 41, 0
8, 136800, Note_on_c, 6, 41, 112
8, 137039, Note_on_c, 6, 41, 0
8, 137040, Note_on_c, 6, 41, 112
8, 137279, Note_on_c, 6, 41, 0
8, 137280, Note_on_c, 6, 46, 112
8, 137519, Note_on_c, 6, 46, 0
8, 137520, Note_on_c, 6, 46, 112
8, 137759, Note_on_c, 6, 46, 0
8, 137760, Note_on_c, 6, 46, 112
8, 137999, Note_on_c, 6, 46, 0
8, 138000, Note_on_c, 6, 46, 112
8, 138239, Note_on_c, 6, 46, 0
8, 138240, Note_on_c, 6, 46, 112
8, 138479, Note_on_c, 6, 46, 0
8, 138480, Note_on_c, 6, 46, 112
8, 138719, Note_on_c, 6, 46, 0
8, 138720, Note_on_c, 6, 46, 112
8, 138959, Note_on_c, 6, 46, 0
8, 138960, Note_on_c, 6, 46, 112
8, 139199, Note_on_c, 6, 46, 0
8, 139200, Note_on_c, 6, 41, 112
8, 139439, Note_on_c, 6, 41, 0
8, 139440, Note_on_c, 6, 41, 112
8, 139679, Note_on_c, 6, 41, 0
8, 139680, Note_on_c, 6, 41, 112
8, 139919, Note_on_c, 6, 41, 0
8, 139920, Note_on_c, 6, 41, 112
8, 140159, Note_on_c, 6, 41, 0
8, 140160, Note_on_c, 6, 41, 112
8, 140399, Note_on_c, 6, 41, 0
8, 140400, Note_on_c, 6, 41, 112
8, 140639, Note_on_c, 6, 41, 0
8, 140640, Note_on_c, 6, 41, 112
8, 140879, Note_on_c, 6, 41, 0
8, 140880, Note_on_c, 6, 41, 112
8, 141119, Note_on_c, 6, 41, 0
8, 141120, Note_on_c, 6, 46, 112
8, 141359, Note_on_c, 6, 46, 0
8, 141360, Note_on_c, 6, 46, 112
8, 141599, Note_on_c, 6, 46, 0
8, 141600, Note_on_c, 6, 46, 112
8, 141839, Note_on_c, 6, 46, 0
8, 141840, Note_on_c, 6, 46, 112
8, 142079, Note_on_c, 6, 46, 0
8, 142080, Note_on_c, 6, 46, 112
8, 142319, Note_on_c, 6, 46, 0
8, 142320, Note_on_c, 6, 46, 112
8, 142559, Note_on_c, 6, 46, 0
8, 142560, Note_on_c, 6, 46, 112
8, 142799, Note_on_c, 6, 46, 0
8, 142800, Note_on_c, 6, 46, 112
8, 143039, Note_on_c, 6, 46, 0
8, 143040, Note_on_c, 6, 51, 112
8, 143279, Note_on_c, 6, 51, 0
8, 143280, Note_on_c, 6, 51, 112
8, 143519, Note_on_c, 6, 51, 0
8, 143520, Note_on_c, 6, 51, 112
8, 143759, Note_on_c, 6, 51, 0
8, 143760, Note_on_c, 6, 51, 112
8, 143999, Note_on_c, 6, 51, 0
8, 144000, Note_on_c, 6, 44, 112
8, 144239, Note_on_c, 6, 44, 0
8, 144240, Note_on_c, 6, 44, 112
8, 144479, Note_on_c, 6, 44, 0
8, 144480, Note_on_c, 6, 44, 112
8, 144719, Note_on_c, 6, 44, 0
8, 144720, Note_on_c, 6, 44, 112
8, 144959, Note_on_c, 6, 44, 0
8, 144960, Note_on_c, 6, 46, 112
8, 145199, Note_on_c, 6, 46, 0
8, 145200, Note_on_c, 6, 46, 112
8, 145439, Note_on_c, 6, 46, 0
8, 145440, Note_on_c, 6, 46, 112
8, 145679, Note_on_c, 6, 46, 0
8, 145680, Note_on_c, 6, 46, 112
8, 145919, Note_on_c, 6, 46, 0
8, 145920, Note_on_c, 6, 48, 112
8, 146159, Note_on_c, 6, 48, 0
8, 146160, Note_on_c, 6, 48, 112
8, 146399, Note_on_c, 6, 48, 0
8, 146400, Note_on_c, 6, 48, 112
8, 146639, Note_on_c, 6, 48, 0
8, 146640, Note_on_c, 6, 48, 112
8, 146879, Note_on_c, 6, 48, 0
8, 146880, Note_on_c, 6, 46, 112
8, 147119, Note_on_c, 6, 46, 0
8, 147120, Note_on_c, 6, 46, 112
8, 147359, Note_on_c, 6, 46, 0
8, 147360, Note_on_c, 6, 46, 112
8, 147599, Note_on_c, 6, 46, 0
8, 147600, Note_on_c, 6, 46, 112
8, 147839, Note_on_c, 6, 46, 0
8, 147840, Note_on_c, 6, 46, 112
8, 148079, Note_on_c, 6, 46, 0
8, 148080, Note_on_c, 6, 46, 112
8, 148319, Note_on_c, 6, 46, 0
8, 148320, Note_on_c, 6, 46, 112
8, 148559, Note_on_c, 6, 46, 0
8, 148560, Note_on_c, 6, 46, 112
8, 148799, Note_on_c, 6, 46, 0
8, 148800, Note_on_c, 6, 46, 112
8, 149039, Note_on_c, 6, 46, 0
8, 149040, Note_on_c, 6, 46, 112
8, 149279, Note_on_c, 6, 46, 0
8, 149280, Note_on_c, 6, 46, 112
8, 149519, Note_on_c, 6, 46, 0
8, 149520, Note_on_c, 6, 46, 112
8, 149759, Note_on_c, 6, 46, 0
8, 149760, Note_on_c, 6, 46, 112
8, 149999, Note_on_c, 6, 46, 0
8, 150000, Note_on_c, 6, 46, 112
8, 150239, Note_on_c, 6, 46, 0
8, 150240, Note_on_c, 6, 46, 112
8, 150479, Note_on_c, 6, 46, 0
8, 150480, Note_on_c, 6, 46, 112
8, 150719, Note_on_c, 6, 46, 0
8, 150720, Note_on_c, 6, 46, 112
8, 150959, Note_on_c, 6, 46, 0
8, 150960, Note_on_c, 6, 46, 112
8, 151199, Note_on_c, 6, 46, 0
8, 151200, Note_on_c, 6, 46, 112
8, 151439, Note_on_c, 6, 46, 0
8, 151440, Note_on_c, 6, 46, 112
8, 151679, Note_on_c, 6, 46, 0
8, 151680, Note_on_c, 6, 39, 112
8, 151919, Note_on_c, 6, 39, 0
8, 151920, Note_on_c, 6, 39, 112
8, 152159, Note_on_c, 6, 39, 0
8, 152160, Note_on_c, 6, 46, 112
8, 152399, Note_on_c, 6, 46, 0
8, 152400, Note_on_c, 6, 46, 112
8, 152639, Note_on_c, 6, 46, 0
8, 152640, Note_on_c, 6, 39, 112
8, 152879, Note_on_c, 6, 39, 0
8, 152880, Note_on_c, 6, 39, 112
8, 153119, Note_on_c, 6, 39, 0
8, 153120, Note_on_c, 6, 39, 112
8, 153359, Note_on_c, 6, 39, 0
8, 153360, Note_on_c, 6, 39, 112
8, 153599, Note_on_c, 6, 39, 0
8, 153600, Note_on_c, 6, 39, 112
8, 153839, Note_on_c, 6, 39, 0
8, 153840, Note_on_c, 6, 39, 112
8, 154079, Note_on_c, 6, 39, 0
8, 154080, Note_on_c, 6, 39, 112
8, 154319, Note_on_c, 6, 39, 0
8, 154320, Note_on_c, 6, 39, 112
8, 154559, Note_on_c, 6, 39, 0
8, 154560, Note_on_c, 6, 39, 112
8, 154799, Note_on_c, 6, 39, 0
8, 154800, Note_on_c, 6, 39, 112
8, 155039, Note_on_c, 6, 39, 0
8, 155040, Note_on_c, 6, 39, 112
8, 155279, Note_on_c, 6, 39, 0
8, 155280, Note_on_c, 6, 39, 112
8, 155519, Note_on_c, 6, 39, 0
8, 155520, Note_on_c, 6, 39, 112
8, 157439, Note_on_c, 6, 39, 0
8, 159360, Key_signature, -4, "major"
8, 159360, Note_on_c, 6, 53, 96
8, 173759, Note_on_c, 6, 53, 0
8, 173760, Note_on_c, 6, 48, 96
8, 193199, Note_on_c, 6, 48, 0
8, 193200, Note_on_c, 6, 65, 96
8, 193319, Note_on_c, 6, 65, 0
8, 193320, Note_on_c, 6, 63, 96
8, 193439, Note_on_c, 6, 63, 0
8, 193440, Note_on_c, 6, 61, 96
8, 193559, Note_on_c, 6, 61, 0
8, 193560, Note_on_c, 6, 60, 96
8, 193679, Note_on_c, 6, 60, 0
8, 193680, Note_on_c, 6, 58, 96
8, 193799, Note_on_c, 6, 58, 0
8, 193800, Note_on_c, 6, 56, 96
8, 193919, Note_on_c, 6, 56, 0
8, 193920, Note_on_c, 6, 55, 96
8, 194039, Note_on_c, 6, 55, 0
8, 194040, Note_on_c, 6, 53, 96
8, 194159, Note_on_c, 6, 53, 0
8, 194160, Note_on_c, 6, 52, 96
8, 194279, Note_on_c, 6, 52, 0
8, 194280, Note_on_c, 6, 50, 96
8, 194399, Note_on_c, 6, 50, 0
8, 194400, Note_on_c, 6, 48, 96
8, 194519, Note_on_c, 6, 48, 0
8, 194520, Note_on_c, 6, 46, 96
8, 194639, Note_on_c, 6, 46, 0
8, 194640, Note_on_c, 6, 44, 96
8, 194879, Note_on_c, 6, 44, 0
8, 194880, Note_on_c, 6, 46, 96
8, 195119, Note_on_c, 6, 46, 0
8, 195120, Note_on_c, 6, 48, 96
8, 195359, Note_on_c, 6, 48, 0
8, 195360, Note_on_c, 6, 41, 96
8, 195599, Note_on_c, 6, 41, 0
8, 202560, Note_on_c, 6, 48, 49
8, 211199, Note_on_c, 6, 48, 0
8, 211200, Note_on_c, 6, 43, 49
8, 222719, Note_on_c, 6, 43, 0
8, 222720, Note_on_c, 6, 43, 96
8, 222959, Note_on_c, 6, 43, 0
8, 223260, Note_on_c, 6, 59, 96
8, 223319, Note_on_c, 6, 59, 0
8, 223320, Note_on_c, 6, 60, 96
8, 223379, Note_on_c, 6, 60, 0
8, 223380, Note_on_c, 6, 62, 96
8, 223439, Note_on_c, 6, 62, 0
8, 223440, Note_on_c, 6, 53, 96
8, 223679, Note_on_c, 6, 53, 0
8, 223980, Note_on_c, 6, 50, 96
8, 224039, Note_on_c, 6, 50, 0
8, 224040, Note_on_c, 6, 51, 96
8, 224099, Note_on_c, 6, 51, 0
8, 224100, Note_on_c, 6, 53, 96
8, 224159, Note_on_c, 6, 53, 0
8, 224160, Note_on_c, 6, 43, 96
8, 224399, Note_on_c, 6, 43, 0
8, 224700, Note_on_c, 6, 47, 96
8, 224759, Note_on_c, 6, 47, 0
8, 224760, Note_on_c, 6, 48, 96
8, 224819, Note_on_c, 6, 48, 0
8, 224820, Note_on_c, 6, 50, 96
8, 224879, Note_on_c, 6, 50, 0
8, 224880, Note_on_c, 6, 51, 96
8, 225119, Note_on_c, 6, 51, 0
8, 225120, Note_on_c, 6, 53, 96
8, 225359, Note_on_c, 6, 53, 0
8, 225360, Note_on_c, 6, 55, 96
8, 225599, Note_on_c, 6, 55, 0
8, 225600, Note_on_c, 6, 48, 96
8, 226079, Note_on_c, 6, 48, 0
8, 226320, Note_on_c, 6, 43, 96
8, 226559, Note_on_c, 6, 43, 0
8, 227040, Note_on_c, 6, 43, 96
8, 227279, Note_on_c, 6, 43, 0
8, 227760, Note_on_c, 6, 43, 96
8, 227999, Note_on_c, 6, 43, 0
8, 228480, Note_on_c, 6, 43, 96
8, 228719, Note_on_c, 6, 43, 0
8, 229200, Note_on_c, 6, 63, 96
8, 229439, Note_on_c, 6, 63, 0
8, 229440, Note_on_c, 6, 60, 96
8, 229679, Note_on_c, 6, 60, 0
8, 229680, Note_on_c, 6, 56, 96
8, 229919, Note_on_c, 6, 56, 0
8, 229920, Note_on_c, 6, 53, 96
8, 230159, Note_on_c, 6, 53, 0
8, 230160, Note_on_c, 6, 50, 96
8, 230399, Note_on_c, 6, 50, 0
8, 230400, Note_on_c, 6, 47, 96
8, 230639, Note_on_c, 6, 47, 0
8, 230640, Note_on_c, 6, 43, 96
8, 231119, Note_on_c, 6, 43, 0
8, 245040, Note_on_c, 6, 51, 96
8, 245519, Note_on_c, 6, 51, 0
8, 247680, Note_on_c, 6, 46, 96
8, 247739, Note_on_c, 6, 46, 0
8, 247740, Note_on_c, 6, 46, 96
8, 247799, Note_on_c, 6, 46, 0
8, 247800, Note_on_c, 6, 46, 96
8, 247859, Note_on_c, 6, 46, 0
8, 247860, Note_on_c, 6, 46, 96
8, 247919, Note_on_c, 6, 46, 0
8, 247920, Note_on_c, 6, 46, 96
8, 247979, Note_on_c, 6, 46, 0
8, 247980, Note_on_c, 6, 46, 96
8, 248039, Note_on_c, 6, 46, 0
8, 248040, Note_on_c, 6, 46, 96
8, 248099, Note_on_c, 6, 46, 0
8, 248100, Note_on_c, 6, 46, 96
8, 248159, Note_on_c, 6, 46, 0
8, 248160, Note_on_c, 6, 46, 96
8, 248219, Note_on_c, 6, 46, 0
8, 248220, Note_on_c, 6, 46, 96
8, 248279, Note_on_c, 6, 46, 0
8, 248280, Note_on_c, 6, 46, 96
8, 248339, Note_on_c, 6, 46, 0
8, 248340, Note_on_c, 6, 46, 96
8, 248399, Note_on_c, 6, 46, 0
8, 248640, Note_on_c, 6, 48, 96
8, 249119, Note_on_c, 6, 48, 0
8, 249840, Note_on_c, 6, 53, 96
8, 249899, Note_on_c, 6, 53, 0
8, 249900, Note_on_c, 6, 53, 96
8, 249959, Note_on_c, 6, 53, 0
8, 249960, Note_on_c, 6, 53, 96
8, 250019, Note_on_c, 6, 53, 0
8, 250020, Note_on_c, 6, 53, 96
8, 250079, Note_on_c, 6, 53, 0
8, 250080, Note_on_c, 6, 53, 96
8, 250139, Note_on_c, 6, 53, 0
8, 250140, Note_on_c, 6, 53, 96
8, 250199, Note_on_c, 6, 53, 0
8, 250200, Note_on_c, 6, 53, 96
8, 250259, Note_on_c, 6, 53, 0
8, 250260, Note_on_c, 6, 53, 96
8, 250319, Note_on_c, 6, 53, 0
8, 250320, Note_on_c, 6, 53, 96
8, 250379, Note_on_c, 6, 53, 0
8, 250380, Note_on_c, 6, 53, 96
8, 250439, Note_on_c, 6, 53, 0
8, 250440, Note_on_c, 6, 53, 96
8, 250499, Note_on_c, 6, 53, 0
8, 250500, Note_on_c, 6, 53, 96
8, 250559, Note_on_c, 6, 53, 0
8, 250800, Note_on_c, 6, 53, 96
8, 251279, Note_on_c, 6, 53, 0
8, 251280, Note_on_c, 6, 46, 96
8, 251339, Note_on_c, 6, 46, 0
8, 251340, Note_on_c, 6, 46, 96
8, 251399, Note_on_c, 6, 46, 0
8, 251400, Note_on_c, 6, 46, 96
8, 251459, Note_on_c, 6, 46, 0
8, 251460, Note_on_c, 6, 46, 96
8, 251519, Note_on_c, 6, 46, 0
8, 251520, Note_on_c, 6, 46, 96
8, 251579, Note_on_c, 6, 46, 0
8, 251580, Note_on_c, 6, 46, 96
8, 251639, Note_on_c, 6, 46, 0
8, 251640, Note_on_c, 6, 46, 96
8, 251699, Note_on_c, 6, 46, 0
8, 251700, Note_on_c, 6, 46, 96
8, 251759, Note_on_c, 6, 46, 0
8, 251760, Note_on_c, 6, 46, 96
8, 251819, Note_on_c, 6, 46, 0
8, 251820, Note_on_c, 6, 46, 96
8, 251879, Note_on_c, 6, 46, 0
8, 251880, Note_on_c, 6, 46, 96
8, 251939, Note_on_c, 6, 46, 0
8, 251940, Note_on_c, 6, 46, 96
8, 251999, Note_on_c, 6, 46, 0
8, 252240, Note_on_c, 6, 46, 96
8, 252719, Note_on_c, 6, 46, 0
8, 252720, Note_on_c, 6, 48, 96
8, 252779, Note_on_c, 6, 48, 0
8, 252780, Note_on_c, 6, 48, 96
8, 252839, Note_on_c, 6, 48, 0
8, 252840, Note_on_c, 6, 48, 96
8, 252899, Note_on_c, 6, 48, 0
8, 252900, Note_on_c, 6, 48, 96
8, 252959, Note_on_c, 6, 48, 0
8, 252960, Note_on_c, 6, 48, 96
8, 253019, Note_on_c, 6, 48, 0
8, 253020, Note_on_c, 6, 48, 96
8, 253079, Note_on_c, 6, 48, 0
8, 253080, Note_on_c, 6, 48, 96
8, 253139, Note_on_c, 6, 48, 0
8, 253140, Note_on_c, 6, 48, 96
8, 253199, Note_on_c, 6, 48, 0
8, 253200, Note_on_c, 6, 48, 96
8, 253259, Note_on_c, 6, 48, 0
8, 253260, Note_on_c, 6, 48, 96
8, 253319, Note_on_c, 6, 48, 0
8, 253320, Note_on_c, 6, 48, 96
8, 253379, Note_on_c, 6, 48, 0
8, 253380, Note_on_c, 6, 48, 96
8, 253439, Note_on_c, 6, 48, 0
8, 253680, Note_on_c, 6, 48, 96
8, 254159, Note_on_c, 6, 48, 0
8, 254160, Note_on_c, 6, 49, 96
8, 254219, Note_on_c, 6, 49, 0
8, 254220, Note_on_c, 6, 49, 96
8, 254279, Note_on_c, 6, 49, 0
8, 254280, Note_on_c, 6, 49, 96
8, 254339, Note_on_c, 6, 49, 0
8, 254340, Note_on_c, 6, 49, 96
8, 254399, Note_on_c, 6, 49, 0
8, 254400, Note_on_c, 6, 49, 96
8, 254459, Note_on_c, 6, 49, 0
8, 254460, Note_on_c, 6, 49, 96
8, 254519, Note_on_c, 6, 49, 0
8, 254520, Note_on_c, 6, 49, 96
8, 254579, Note_on_c, 6, 49, 0
8, 254580, Note_on_c, 6, 49, 96
8, 254639, Note_on_c, 6, 49, 0
8, 254640, Note_on_c, 6, 49, 96
8, 254699, Note_on_c, 6, 49, 0
8, 254700, Note_on_c, 6, 49, 96
8, 254759, Note_on_c, 6, 49, 0
8, 254760, Note_on_c, 6, 49, 96
8, 254819, Note_on_c, 6, 49, 0
8, 254820, Note_on_c, 6, 49, 96
8, 254879, Note_on_c, 6, 49, 0
8, 255120, Note_on_c, 6, 49, 96
8, 255599, Note_on_c, 6, 49, 0
8, 255600, Note_on_c, 6, 52, 96
8, 255659, Note_on_c, 6, 52, 0
8, 255660, Note_on_c, 6, 52, 96
8, 255719, Note_on_c, 6, 52, 0
8, 255720, Note_on_c, 6, 52, 96
8, 255779, Note_on_c, 6, 52, 0
8, 255780, Note_on_c, 6, 52, 96
8, 255839, Note_on_c, 6, 52, 0
8, 255840, Note_on_c, 6, 52, 96
8, 255899, Note_on_c, 6, 52, 0
8, 255900, Note_on_c, 6, 52, 96
8, 255959, Note_on_c, 6, 52, 0
8, 255960, Note_on_c, 6, 52, 96
8, 256019, Note_on_c, 6, 52, 0
8, 256020, Note_on_c, 6, 52, 96
8, 256079, Note_on_c, 6, 52, 0
8, 256080, Note_on_c, 6, 52, 96
8, 256139, Note_on_c, 6, 52, 0
8, 256140, Note_on_c, 6, 52, 96
8, 256199, Note_on_c, 6, 52, 0
8, 256200, Note_on_c, 6, 52, 96
8, 256259, Note_on_c, 6, 52, 0
8, 256260, Note_on_c, 6, 52, 96
8, 256319, Note_on_c, 6, 52, 0
8, 256560, Note_on_c, 6, 48, 96
8, 257039, Note_on_c, 6, 48, 0
8, 257040, Note_on_c, 6, 53, 96
8, 257099, Note_on_c, 6, 53, 0
8, 257100, Note_on_c, 6, 53, 96
8, 257159, Note_on_c, 6, 53, 0
8, 257160, Note_on_c, 6, 53, 96
8, 257219, Note_on_c, 6, 53, 0
8, 257220, Note_on_c, 6, 53, 96
8, 257279, Note_on_c, 6, 53, 0
8, 257280, Note_on_c, 6, 53, 96
8, 257339, Note_on_c, 6, 53, 0
8, 257340, Note_on_c, 6, 53, 96
8, 257399, Note_on_c, 6, 53, 0
8, 257400, Note_on_c, 6, 53, 96
8, 257459, Note_on_c, 6, 53, 0
8, 257460, Note_on_c, 6, 53, 96
8, 257519, Note_on_c, 6, 53, 0
8, 257520, Note_on_c, 6, 53, 96
8, 257579, Note_on_c, 6, 53, 0
8, 257580, Note_on_c, 6, 53, 96
8, 257639, Note_on_c, 6, 53, 0
8, 257640, Note_on_c, 6, 53, 96
8, 257699, Note_on_c, 6, 53, 0
8, 257700, Note_on_c, 6, 53, 96
8, 257759, Note_on_c, 6, 53, 0
8, 258000, Note_on_c, 6, 53, 96
8, 258479, Note_on_c, 6, 53, 0
8, 259440, Note_on_c, 6, 48, 96
8, 259499, Note_on_c, 6, 48, 0
8, 259500, Note_on_c, 6, 48, 96
8, 259559, Note_on_c, 6, 48, 0
8, 259560, Note_on_c, 6, 48, 96
8, 259619, Note_on_c, 6, 48, 0
8, 259620, Note_on_c, 6, 48, 96
8, 259679, Note_on_c, 6, 48, 0
8, 259680, Note_on_c, 6, 48, 96
8, 259739, Note_on_c, 6, 48, 0
8, 259740, Note_on_c, 6, 48, 96
8, 259799, Note_on_c, 6, 48, 0
8, 259800, Note_on_c, 6, 48, 96
8, 259859, Note_on_c, 6, 48, 0
8, 259860, Note_on_c, 6, 48, 96
8, 259919, Note_on_c, 6, 48, 0
8, 259920, Note_on_c, 6, 48, 96
8, 259979, Note_on_c, 6, 48, 0
8, 259980, Note_on_c, 6, 48, 96
8, 260039, Note_on_c, 6, 48, 0
8, 260040, Note_on_c, 6, 48, 96
8, 260099, Note_on_c, 6, 48, 0
8, 260100, Note_on_c, 6, 48, 96
8, 260159, Note_on_c, 6, 48, 0
8, 260160, Note_on_c, 6, 46, 96
8, 260219, Note_on_c, 6, 46, 0
8, 260220, Note_on_c, 6, 46, 96
8, 260279, Note_on_c, 6, 46, 0
8, 260280, Note_on_c, 6, 46, 96
8, 260339, Note_on_c, 6, 46, 0
8, 260340, Note_on_c, 6, 46, 96
8, 260399, Note_on_c, 6, 46, 0
8, 260400, Note_on_c, 6, 46, 96
8, 260459, Note_on_c, 6, 46, 0
8, 260460, Note_on_c, 6, 46, 96
8, 260519, Note_on_c, 6, 46, 0
8, 260520, Note_on_c, 6, 46, 96
8, 260579, Note_on_c, 6, 46, 0
8, 260580, Note_on_c, 6, 46, 96
8, 260639, Note_on_c, 6, 46, 0
8, 260640, Note_on_c, 6, 44, 96
8, 260640, Note_on_c, 6, 46, 96
8, 260699, Note_on_c, 6, 44, 0
8, 260699, Note_on_c, 6, 46, 0
8, 260700, Note_on_c, 6, 41, 96
8, 260700, Note_on_c, 6, 46, 96
8, 260759, Note_on_c, 6, 41, 0
8, 260759, Note_on_c, 6, 46, 0
8, 260760, Note_on_c, 6, 41, 96
8, 260760, Note_on_c, 6, 46, 96
8, 260819, Note_on_c, 6, 41, 0
8, 260819, Note_on_c, 6, 46, 0
8, 260820, Note_on_c, 6, 41, 96
8, 260820, Note_on_c, 6, 46, 96
8, 260879, Note_on_c, 6, 41, 0
8, 260879, Note_on_c, 6, 46, 0
8, 260880, Note_on_c, 6, 41, 96
8, 260939, Note_on_c, 6, 41, 0
8, 260940, Note_on_c, 6, 41, 96
8, 260999, Note_on_c, 6, 41, 0
8, 261000, Note_on_c, 6, 41, 96
8, 261059, Note_on_c, 6, 41, 0
8, 261060, Note_on_c, 6, 41, 96
8, 261119, Note_on_c, 6, 41, 0
8, 261120, Note_on_c, 6, 41, 96
8, 261179, Note_on_c, 6, 41, 0
8, 261180, Note_on_c, 6, 41, 96
8, 261239, Note_on_c, 6, 41, 0
8, 261240, Note_on_c, 6, 41, 96
8, 261299, Note_on_c, 6, 41, 0
8, 261300, Note_on_c, 6, 41, 96
8, 261359, Note_on_c, 6, 41, 0
8, 261360, Note_on_c, 6, 36, 96
8, 261419, Note_on_c, 6, 36, 0
8, 261420, Note_on_c, 6, 36, 96
8, 261479, Note_on_c, 6, 36, 0
8, 261480, Note_on_c, 6, 36, 96
8, 261539, Note_on_c, 6, 36, 0
8, 261540, Note_on_c, 6, 36, 96
8, 261599, Note_on_c, 6, 36, 0
8, 261600, Note_on_c, 6, 36, 96
8, 261659, Note_on_c, 6, 36, 0
8, 261660, Note_on_c, 6, 36, 96
8, 261719, Note_on_c, 6, 36, 0
8, 261720, Note_on_c, 6, 36, 96
8, 261779, Note_on_c, 6, 36, 0
8, 261780, Note_on_c, 6, 36, 96
8, 261839, Note_on_c, 6, 36, 0
8, 261840, Note_on_c, 6, 36, 96
8, 261899, Note_on_c, 6, 36, 0
8, 261900, Note_on_c, 6, 36, 96
8, 261959, Note_on_c, 6, 36, 0
8, 261960, Note_on_c, 6, 36, 96
8, 262019, Note_on_c, 6, 36, 0
8, 262020, Note_on_c, 6, 36, 96
8, 262079, Note_on_c, 6, 36, 0
8, 262080, Note_on_c, 6, 36, 96
8, 262139, Note_on_c, 6, 36, 0
8, 262140, Note_on_c, 6, 36, 96
8, 262199, Note_on_c, 6, 36, 0
8, 262200, Note_on_c, 6, 36, 96
8, 262259, Note_on_c, 6, 36, 0
8, 262260, Note_on_c, 6, 36, 96
8, 262319, Note_on_c, 6, 36, 0
8, 262320, Note_on_c, 6, 36, 96
8, 262379, Note_on_c, 6, 36, 0
8, 262380, Note_on_c, 6, 36, 96
8, 262439, Note_on_c, 6, 36, 0
8, 262440, Note_on_c, 6, 36, 96
8, 262499, Note_on_c, 6, 36, 0
8, 262500, Note_on_c, 6, 36, 96
8, 262559, Note_on_c, 6, 36, 0
8, 262560, Note_on_c, 6, 36, 96
8, 262619, Note_on_c, 6, 36, 0
8, 262620, Note_on_c, 6, 36, 96
8, 262679, Note_on_c, 6, 36, 0
8, 262680, Note_on_c, 6, 36, 96
8, 262739, Note_on_c, 6, 36, 0
8, 262740, Note_on_c, 6, 36, 96
8, 262799, Note_on_c, 6, 36, 0
8, 262800, Note_on_c, 6, 41, 96
8, 262859, Note_on_c, 6, 41, 0
8, 262860, Note_on_c, 6, 41, 96
8, 262919, Note_on_c, 6, 41, 0
8, 262920, Note_on_c, 6, 41, 96
8, 262979, Note_on_c, 6, 41, 0
8, 262980, Note_on_c, 6, 41, 96
8, 263039, Note_on_c, 6, 41, 0
8, 263040, Note_on_c, 6, 41, 96
8, 263099, Note_on_c, 6, 41, 0
8, 263100, Note_on_c, 6, 41, 96
8, 263159, Note_on_c, 6, 41, 0
8, 263160, Note_on_c, 6, 41, 96
8, 263219, Note_on_c, 6, 41, 0
8, 263220, Note_on_c, 6, 41, 96
8, 263279, Note_on_c, 6, 41, 0
8, 263280, Note_on_c, 6, 41, 96
8, 263339, Note_on_c, 6, 41, 0
8, 263340, Note_on_c, 6, 41, 96
8, 263399, Note_on_c, 6, 41, 0
8, 263400, Note_on_c, 6, 41, 96
8, 263459, Note_on_c, 6, 41, 0
8, 263460, Note_on_c, 6, 41, 96
8, 263519, Note_on_c, 6, 41, 0
8, 263760, Note_on_c, 6, 41, 96
8, 264239, Note_on_c, 6, 41, 0
8, 265200, Note_on_c, 6, 48, 96
8, 265259, Note_on_c, 6, 48, 0
8, 265260, Note_on_c, 6, 48, 96
8, 265319, Note_on_c, 6, 48, 0
8, 265320, Note_on_c, 6, 48, 96
8, 265379, Note_on_c, 6, 48, 0
8, 265380, Note_on_c, 6, 48, 96
8, 265439, Note_on_c, 6, 48, 0
8, 265440, Note_on_c, 6, 48, 96
8, 265499, Note_on_c, 6, 48, 0
8, 265500, Note_on_c, 6, 48, 96
8, 265559, Note_on_c, 6, 48, 0
8, 265560, Note_on_c, 6, 48, 96
8, 265619, Note_on_c, 6, 48, 0
8, 265620, Note_on_c, 6, 48, 96
8, 265679, Note_on_c, 6, 48, 0
8, 265680, Note_on_c, 6, 48, 96
8, 265739, Note_on_c, 6, 48, 0
8, 265740, Note_on_c, 6, 48, 96
8, 265799, Note_on_c, 6, 48, 0
8, 265800, Note_on_c, 6, 48, 96
8, 265859, Note_on_c, 6, 48, 0
8, 265860, Note_on_c, 6, 48, 96
8, 265919, Note_on_c, 6, 48, 0
8, 265920, Note_on_c, 6, 46, 96
8, 265979, Note_on_c, 6, 46, 0
8, 265980, Note_on_c, 6, 46, 96
8, 266039, Note_on_c, 6, 46, 0
8, 266040, Note_on_c, 6, 46, 96
8, 266099, Note_on_c, 6, 46, 0
8, 266100, Note_on_c, 6, 46, 96
8, 266159, Note_on_c, 6, 46, 0
8, 266160, Note_on_c, 6, 46, 96
8, 266219, Note_on_c, 6, 46, 0
8, 266220, Note_on_c, 6, 46, 96
8, 266279, Note_on_c, 6, 46, 0
8, 266280, Note_on_c, 6, 46, 96
8, 266339, Note_on_c, 6, 46, 0
8, 266340, Note_on_c, 6, 46, 96
8, 266399, Note_on_c, 6, 46, 0
8, 266400, Note_on_c, 6, 44, 96
8, 266400, Note_on_c, 6, 46, 96
8, 266459, Note_on_c, 6, 44, 0
8, 266459, Note_on_c, 6, 46, 0
8, 266460, Note_on_c, 6, 41, 96
8, 266460, Note_on_c, 6, 46, 96
8, 266519, Note_on_c, 6, 41, 0
8, 266519, Note_on_c, 6, 46, 0
8, 266520, Note_on_c, 6, 41, 96
8, 266520, Note_on_c, 6, 46, 96
8, 266579, Note_on_c, 6, 41, 0
8, 266579, Note_on_c, 6, 46, 0
8, 266580, Note_on_c, 6, 41, 96
8, 266580, Note_on_c, 6, 46, 96
8, 266639, Note_on_c, 6, 41, 0
8, 266639, Note_on_c, 6, 46, 0
8, 266640, Note_on_c, 6, 41, 96
8, 266699, Note_on_c, 6, 41, 0
8, 266700, Note_on_c, 6, 41, 96
8, 266759, Note_on_c, 6, 41, 0
8, 266760, Note_on_c, 6, 41, 96
8, 266819, Note_on_c, 6, 41, 0
8, 266820, Note_on_c, 6, 41, 96
8, 266879, Note_on_c, 6, 41, 0
8, 266880, Note_on_c, 6, 41, 96
8, 266939, Note_on_c, 6, 41, 0
8, 266940, Note_on_c, 6, 41, 96
8, 266999, Note_on_c, 6, 41, 0
8, 267000, Note_on_c, 6, 41, 96
8, 267059, Note_on_c, 6, 41, 0
8, 267060, Note_on_c, 6, 41, 96
8, 267119, Note_on_c, 6, 41, 0
8, 267120, Note_on_c, 6, 36, 96
8, 267179, Note_on_c, 6, 36, 0
8, 267180, Note_on_c, 6, 36, 96
8, 267239, Note_on_c, 6, 36, 0
8, 267240, Note_on_c, 6, 36, 96
8, 267299, Note_on_c, 6, 36, 0
8, 267300, Note_on_c, 6, 36, 96
8, 267359, Note_on_c, 6, 36, 0
8, 267360, Note_on_c, 6, 36, 96
8, 267419, Note_on_c, 6, 36, 0
8, 267420, Note_on_c, 6, 36, 96
8, 267479, Note_on_c, 6, 36, 0
8, 267480, Note_on_c, 6, 36, 96
8, 267539, Note_on_c, 6, 36, 0
8, 267540, Note_on_c, 6, 36, 96
8, 267599, Note_on_c, 6, 36, 0
8, 267600, Note_on_c, 6, 36, 96
8, 267659, Note_on_c, 6, 36, 0
8, 267660, Note_on_c, 6, 36, 96
8, 267719, Note_on_c, 6, 36, 0
8, 267720, Note_on_c, 6, 36, 96
8, 267779, Note_on_c, 6, 36, 0
8, 267780, Note_on_c, 6, 36, 96
8, 267839, Note_on_c, 6, 36, 0
8, 267840, Note_on_c, 6, 36, 96
8, 267899, Note_on_c, 6, 36, 0
8, 267900, Note_on_c, 6, 36, 96
8, 267959, Note_on_c, 6, 36, 0
8, 267960, Note_on_c, 6, 36, 96
8, 268019, Note_on_c, 6, 36, 0
8, 268020, Note_on_c, 6, 36, 96
8, 268079, Note_on_c, 6, 36, 0
8, 268080, Note_on_c, 6, 36, 96
8, 268139, Note_on_c, 6, 36, 0
8, 268140, Note_on_c, 6, 36, 96
8, 268199, Note_on_c, 6, 36, 0
8, 268200, Note_on_c, 6, 36, 96
8, 268259, Note_on_c, 6, 36, 0
8, 268260, Note_on_c, 6, 36, 96
8, 268319, Note_on_c, 6, 36, 0
8, 268320, Note_on_c, 6, 36, 96
8, 268379, Note_on_c, 6, 36, 0
8, 268380, Note_on_c, 6, 36, 96
8, 268439, Note_on_c, 6, 36, 0
8, 268440, Note_on_c, 6, 36, 96
8, 268499, Note_on_c, 6, 36, 0
8, 268500, Note_on_c, 6, 36, 96
8, 268559, Note_on_c, 6, 36, 0
8, 268560, Note_on_c, 6, 41, 96
8, 269279, Note_on_c, 6, 41, 0
8, 269280, End_track
0, 0, End_of_file
