0, 0, Header, 1, 2, 480
1, 0, Start_track
1, 0, Unknown_meta_event, 8, 24, 84, 104, 101, 32, 70, 111, 117, 114, 32, 83, 101, 97, 115, 111, 110, 115, 45, 65, 117, 116, 117, 109, 110, 0
1, 0, Unknown_meta_event, 10, 39, 65, 110, 116, 111, 110, 105, 111, 32, 86, 105, 118, 97, 108, 100, 105, 32, 65, 114, 114, 97, 110, 103, 101, 100, 32, 98, 121, 32, 80, 97, 117, 108, 32, 77, 97, 114, 100, 121, 0
1, 0, Time_signature, 4, 2, 24, 8
1, 0, Key_signature, -2, "major"
1, 0, Program_c, 0, 73
1, 0, Note_on_c, 0, 86, 84
1, 0, Note_on_c, 0, 82, 74
1, 2, Control_c, 0, 7, 100
1, 4, Control_c, 0, 10, 64
1, 6, Control_c, 0, 91, 30
1, 8, Control_c, 0, 93, 30
1, 239, Note_on_c, 0, 86, 0
1, 239, Note_on_c, 0, 82, 0
1, 240, Note_on_c, 0, 86, 78
1, 240, Note_on_c, 0, 82, 68
1, 479, Note_on_c, 0, 86, 0
1, 479, Note_on_c, 0, 82, 0
1, 480, Note_on_c, 0, 86, 84
1, 480, Note_on_c, 0, 82, 70
1, 719, Note_on_c, 0, 86, 0
1, 719, Note_on_c, 0, 82, 0
1, 720, Note_on_c, 0, 87, 82
1, 720, Note_on_c, 0, 82, 68
1, 959, Note_on_c, 0, 87, 0
1, 959, Note_on_c, 0, 82, 0
1, 960, Note_on_c, 0, 86, 98
1, 960, Note_on_c, 0, 82, 84
1, 1439, Note_on_c, 0, 86, 0
1, 1439, Note_on_c, 0, 82, 0
1, 1440, Note_on_c, 0, 86, 84
1, 1440, Note_on_c, 0, 82, 70
1, 1679, Note_on_c, 0, 86, 0
1, 1679, Note_on_c, 0, 82, 0
1, 1680, Note_on_c, 0, 87, 82
1, 1680, Note_on_c, 0, 82, 68
1, 1919, Note_on_c, 0, 87, 0
1, 1919, Note_on_c, 0, 82, 0
1, 1920, Note_on_c, 0, 86, 88
1, 1920, Note_on_c, 0, 82, 74
1, 2159, Note_on_c, 0, 86, 0
1, 2159, Note_on_c, 0, 82, 0
1, 2160, Note_on_c, 0, 86, 78
1, 2160, Note_on_c, 0, 82, 68
1, 2399, Note_on_c, 0, 86, 0
1, 2399, Note_on_c, 0, 82, 0
1, 2400, Note_on_c, 0, 86, 84
1, 2400, Note_on_c, 0, 82, 70
1, 2639, Note_on_c, 0, 86, 0
1, 2639, Note_on_c, 0, 82, 0
1, 2640, Note_on_c, 0, 87, 82
1, 2640, Note_on_c, 0, 82, 68
1, 2879, Note_on_c, 0, 87, 0
1, 2879, Note_on_c, 0, 82, 0
1, 2880, Note_on_c, 0, 86, 98
1, 2880, Note_on_c, 0, 82, 84
1, 3359, Note_on_c, 0, 86, 0
1, 3359, Note_on_c, 0, 82, 0
1, 3360, Note_on_c, 0, 86, 84
1, 3360, Note_on_c, 0, 82, 70
1, 3599, Note_on_c, 0, 86, 0
1, 3599, Note_on_c, 0, 82, 0
1, 3600, Note_on_c, 0, 87, 82
1, 3600, Note_on_c, 0, 82, 68
1, 3839, Note_on_c, 0, 87, 0
1, 3839, Note_on_c, 0, 82, 0
1, 3840, Note_on_c, 0, 86, 88
1, 3840, Note_on_c, 0, 82, 74
1, 4079, Note_on_c, 0, 86, 0
1, 4079, Note_on_c, 0, 82, 0
1, 4080, Note_on_c, 0, 84, 88
1, 4199, Note_on_c, 0, 84, 0
1, 4200, Note_on_c, 0, 86, 88
1, 4319, Note_on_c, 0, 86, 0
1, 4320, Note_on_c, 0, 87, 90
1, 4559, Note_on_c, 0, 87, 0
1, 4560, Note_on_c, 0, 86, 88
1, 4799, Note_on_c, 0, 86, 0
1, 4800, Note_on_c, 0, 84, 98
1, 4800, Note_on_c, 0, 81, 84
1, 5279, Note_on_c, 0, 84, 0
1, 5279, Note_on_c, 0, 81, 0
1, 5760, Note_on_c, 0, 74, 55
1, 5999, Note_on_c, 0, 74, 0
1, 6000, Note_on_c, 0, 74, 49
1, 6239, Note_on_c, 0, 74, 0
1, 6240, Note_on_c, 0, 74, 51
1, 6479, Note_on_c, 0, 74, 0
1, 6480, Note_on_c, 0, 75, 49
1, 6719, Note_on_c, 0, 75, 0
1, 6720, Note_on_c, 0, 74, 53
1, 7199, Note_on_c, 0, 74, 0
1, 7200, Note_on_c, 0, 74, 51
1, 7439, Note_on_c, 0, 74, 0
1, 7440, Note_on_c, 0, 75, 49
1, 7679, Note_on_c, 0, 75, 0
1, 7680, Note_on_c, 0, 74, 55
1, 7919, Note_on_c, 0, 74, 0
1, 7920, Note_on_c, 0, 74, 49
1, 8159, Note_on_c, 0, 74, 0
1, 8160, Note_on_c, 0, 74, 51
1, 8399, Note_on_c, 0, 74, 0
1, 8400, Note_on_c, 0, 75, 49
1, 8639, Note_on_c, 0, 75, 0
1, 8640, Note_on_c, 0, 74, 53
1, 9119, Note_on_c, 0, 74, 0
1, 9120, Note_on_c, 0, 74, 51
1, 9359, Note_on_c, 0, 74, 0
1, 9360, Note_on_c, 0, 75, 49
1, 9599, Note_on_c, 0, 75, 0
1, 9600, Note_on_c, 0, 74, 55
1, 9839, Note_on_c, 0, 74, 0
1, 9840, Note_on_c, 0, 72, 49
1, 9959, Note_on_c, 0, 72, 0
1, 9960, Note_on_c, 0, 74, 49
1, 10079, Note_on_c, 0, 74, 0
1, 10080, Note_on_c, 0, 75, 51
1, 10319, Note_on_c, 0, 75, 0
1, 10320, Note_on_c, 0, 74, 49
1, 10559, Note_on_c, 0, 74, 0
1, 10560, Note_on_c, 0, 72, 53
1, 11039, Note_on_c, 0, 72, 0
1, 11520, Note_on_c, 0, 86, 96
1, 11520, Note_on_c, 0, 82, 86
1, 11759, Note_on_c, 0, 86, 0
1, 11759, Note_on_c, 0, 82, 0
1, 11760, Note_on_c, 0, 86, 90
1, 11760, Note_on_c, 0, 82, 80
1, 11999, Note_on_c, 0, 86, 0
1, 11999, Note_on_c, 0, 82, 0
1, 12000, Note_on_c, 0, 86, 92
1, 12000, Note_on_c, 0, 82, 82
1, 12239, Note_on_c, 0, 86, 0
1, 12239, Note_on_c, 0, 82, 0
1, 12240, Note_on_c, 0, 89, 88
1, 12479, Note_on_c, 0, 89, 0
1, 12480, Note_on_c, 0, 79, 92
1, 12959, Note_on_c, 0, 79, 0
1, 12960, Note_on_c, 0, 79, 90
1, 13199, Note_on_c, 0, 79, 0
1, 13200, Note_on_c, 0, 79, 88
1, 13439, Note_on_c, 0, 79, 0
1, 13440, Note_on_c, 0, 84, 96
1, 13440, Note_on_c, 0, 81, 86
1, 13679, Note_on_c, 0, 84, 0
1, 13679, Note_on_c, 0, 81, 0
1, 13680, Note_on_c, 0, 84, 90
1, 13680, Note_on_c, 0, 81, 80
1, 13919, Note_on_c, 0, 84, 0
1, 13919, Note_on_c, 0, 81, 0
1, 13920, Note_on_c, 0, 84, 92
1, 13920, Note_on_c, 0, 81, 82
1, 14159, Note_on_c, 0, 84, 0
1, 14159, Note_on_c, 0, 81, 0
1, 14160, Note_on_c, 0, 87, 88
1, 14399, Note_on_c, 0, 87, 0
1, 14400, Note_on_c, 0, 77, 92
1, 14879, Note_on_c, 0, 77, 0
1, 14880, Note_on_c, 0, 77, 78
1, 15119, Note_on_c, 0, 77, 0
1, 15120, Note_on_c, 0, 82, 76
1, 15359, Note_on_c, 0, 82, 0
1, 15360, Note_on_c, 0, 86, 84
1, 15360, Note_on_c, 0, 82, 74
1, 15599, Note_on_c, 0, 86, 0
1, 15599, Note_on_c, 0, 82, 0
1, 15600, Note_on_c, 0, 86, 78
1, 15600, Note_on_c, 0, 82, 68
1, 15839, Note_on_c, 0, 86, 0
1, 15839, Note_on_c, 0, 82, 0
1, 15840, Note_on_c, 0, 86, 84
1, 15840, Note_on_c, 0, 82, 70
1, 16079, Note_on_c, 0, 86, 0
1, 16079, Note_on_c, 0, 82, 0
1, 16080, Note_on_c, 0, 87, 82
1, 16080, Note_on_c, 0, 82, 68
1, 16319, Note_on_c, 0, 87, 0
1, 16319, Note_on_c, 0, 82, 0
1, 16320, Note_on_c, 0, 86, 86
1, 16320, Note_on_c, 0, 82, 72
1, 16559, Note_on_c, 0, 86, 0
1, 16559, Note_on_c, 0, 82, 0
1, 16560, Note_on_c, 0, 86, 78
1, 16560, Note_on_c, 0, 82, 68
1, 16799, Note_on_c, 0, 86, 0
1, 16799, Note_on_c, 0, 82, 0
1, 16800, Note_on_c, 0, 86, 84
1, 16800, Note_on_c, 0, 82, 70
1, 17039, Note_on_c, 0, 86, 0
1, 17039, Note_on_c, 0, 82, 0
1, 17040, Note_on_c, 0, 87, 82
1, 17040, Note_on_c, 0, 82, 68
1, 17279, Note_on_c, 0, 87, 0
1, 17279, Note_on_c, 0, 82, 0
1, 17280, Note_on_c, 0, 86, 88
1, 17280, Note_on_c, 0, 82, 74
1, 17519, Note_on_c, 0, 86, 0
1, 17519, Note_on_c, 0, 82, 0
1, 17520, Note_on_c, 0, 86, 78
1, 17520, Note_on_c, 0, 82, 68
1, 17759, Note_on_c, 0, 86, 0
1, 17759, Note_on_c, 0, 82, 0
1, 17760, Note_on_c, 0, 86, 84
1, 17760, Note_on_c, 0, 82, 70
1, 17999, Note_on_c, 0, 86, 0
1, 17999, Note_on_c, 0, 82, 0
1, 18000, Note_on_c, 0, 87, 82
1, 18000, Note_on_c, 0, 82, 68
1, 18239, Note_on_c, 0, 87, 0
1, 18239, Note_on_c, 0, 82, 0
1, 18240, Note_on_c, 0, 86, 86
1, 18240, Note_on_c, 0, 82, 72
1, 18479, Note_on_c, 0, 86, 0
1, 18479, Note_on_c, 0, 82, 0
1, 18480, Note_on_c, 0, 84, 88
1, 18599, Note_on_c, 0, 84, 0
1, 18600, Note_on_c, 0, 86, 88
1, 18719, Note_on_c, 0, 86, 0
1, 18720, Note_on_c, 0, 87, 90
1, 18959, Note_on_c, 0, 87, 0
1, 18960, Note_on_c, 0, 84, 88
1, 19199, Note_on_c, 0, 84, 0
1, 19200, Note_on_c, 0, 86, 100
1, 19200, Note_on_c, 0, 82, 86
1, 19679, Note_on_c, 0, 86, 0
1, 19679, Note_on_c, 0, 82, 0
1, 20160, Note_on_c, 0, 62, 53
1, 20399, Note_on_c, 0, 62, 0
1, 20400, Note_on_c, 0, 62, 49
1, 20639, Note_on_c, 0, 62, 0
1, 20640, Note_on_c, 0, 62, 51
1, 20879, Note_on_c, 0, 62, 0
1, 20880, Note_on_c, 0, 63, 49
1, 21119, Note_on_c, 0, 63, 0
1, 21120, Note_on_c, 0, 74, 55
1, 21359, Note_on_c, 0, 74, 0
1, 21360, Note_on_c, 0, 74, 49
1, 21599, Note_on_c, 0, 74, 0
1, 21600, Note_on_c, 0, 74, 51
1, 21839, Note_on_c, 0, 74, 0
1, 21840, Note_on_c, 0, 75, 49
1, 22079, Note_on_c, 0, 75, 0
1, 22080, Note_on_c, 0, 74, 53
1, 22319, Note_on_c, 0, 74, 0
1, 22320, Note_on_c, 0, 74, 49
1, 22559, Note_on_c, 0, 74, 0
1, 22560, Note_on_c, 0, 74, 51
1, 22799, Note_on_c, 0, 74, 0
1, 22800, Note_on_c, 0, 75, 49
1, 23039, Note_on_c, 0, 75, 0
1, 23040, Note_on_c, 0, 74, 55
1, 23279, Note_on_c, 0, 74, 0
1, 23280, Note_on_c, 0, 72, 49
1, 23399, Note_on_c, 0, 72, 0
1, 23400, Note_on_c, 0, 74, 49
1, 23519, Note_on_c, 0, 74, 0
1, 23520, Note_on_c, 0, 75, 51
1, 23759, Note_on_c, 0, 75, 0
1, 23760, Note_on_c, 0, 72, 49
1, 23999, Note_on_c, 0, 72, 0
1, 24000, Note_on_c, 0, 74, 80
1, 24479, Note_on_c, 0, 74, 0
1, 24960, Time_signature, 4, 2, 24, 8
1, 24960, Key_signature, -2, "major"
1, 24960, Note_on_c, 0, 86, 84
1, 24960, Note_on_c, 0, 82, 74
1, 25199, Note_on_c, 0, 86, 0
1, 25199, Note_on_c, 0, 82, 0
1, 25200, Note_on_c, 0, 86, 78
1, 25200, Note_on_c, 0, 82, 68
1, 25439, Note_on_c, 0, 86, 0
1, 25439, Note_on_c, 0, 82, 0
1, 25440, Note_on_c, 0, 86, 84
1, 25440, Note_on_c, 0, 82, 70
1, 25679, Note_on_c, 0, 86, 0
1, 25679, Note_on_c, 0, 82, 0
1, 25680, Note_on_c, 0, 87, 82
1, 25680, Note_on_c, 0, 82, 68
1, 25919, Note_on_c, 0, 87, 0
1, 25919, Note_on_c, 0, 82, 0
1, 25920, Note_on_c, 0, 86, 98
1, 25920, Note_on_c, 0, 82, 84
1, 26399, Note_on_c, 0, 86, 0
1, 26399, Note_on_c, 0, 82, 0
1, 26400, Note_on_c, 0, 86, 84
1, 26400, Note_on_c, 0, 82, 70
1, 26639, Note_on_c, 0, 86, 0
1, 26639, Note_on_c, 0, 82, 0
1, 26640, Note_on_c, 0, 87, 82
1, 26640, Note_on_c, 0, 82, 68
1, 26879, Note_on_c, 0, 87, 0
1, 26879, Note_on_c, 0, 82, 0
1, 26880, Note_on_c, 0, 86, 88
1, 26880, Note_on_c, 0, 82, 74
1, 27119, Note_on_c, 0, 86, 0
1, 27119, Note_on_c, 0, 82, 0
1, 27120, Note_on_c, 0, 86, 78
1, 27120, Note_on_c, 0, 82, 68
1, 27359, Note_on_c, 0, 86, 0
1, 27359, Note_on_c, 0, 82, 0
1, 27360, Note_on_c, 0, 86, 84
1, 27360, Note_on_c, 0, 82, 70
1, 27599, Note_on_c, 0, 86, 0
1, 27599, Note_on_c, 0, 82, 0
1, 27600, Note_on_c, 0, 87, 82
1, 27600, Note_on_c, 0, 82, 68
1, 27839, Note_on_c, 0, 87, 0
1, 27839, Note_on_c, 0, 82, 0
1, 27840, Note_on_c, 0, 86, 98
1, 27840, Note_on_c, 0, 82, 84
1, 28319, Note_on_c, 0, 86, 0
1, 28319, Note_on_c, 0, 82, 0
1, 28320, Note_on_c, 0, 86, 84
1, 28320, Note_on_c, 0, 82, 70
1, 28559, Note_on_c, 0, 86, 0
1, 28559, Note_on_c, 0, 82, 0
1, 28560, Note_on_c, 0, 87, 82
1, 28560, Note_on_c, 0, 82, 68
1, 28799, Note_on_c, 0, 87, 0
1, 28799, Note_on_c, 0, 82, 0
1, 28800, Note_on_c, 0, 86, 88
1, 28800, Note_on_c, 0, 82, 74
1, 29039, Note_on_c, 0, 86, 0
1, 29039, Note_on_c, 0, 82, 0
1, 29040, Note_on_c, 0, 84, 88
1, 29159, Note_on_c, 0, 84, 0
1, 29160, Note_on_c, 0, 86, 88
1, 29279, Note_on_c, 0, 86, 0
1, 29280, Note_on_c, 0, 87, 90
1, 29519, Note_on_c, 0, 87, 0
1, 29520, Note_on_c, 0, 86, 88
1, 29759, Note_on_c, 0, 86, 0
1, 29760, Note_on_c, 0, 84, 98
1, 29760, Note_on_c, 0, 81, 84
1, 30239, Note_on_c, 0, 84, 0
1, 30239, Note_on_c, 0, 81, 0
1, 30720, Note_on_c, 0, 74, 55
1, 30959, Note_on_c, 0, 74, 0
1, 30960, Note_on_c, 0, 74, 49
1, 31199, Note_on_c, 0, 74, 0
1, 31200, Note_on_c, 0, 74, 51
1, 31439, Note_on_c, 0, 74, 0
1, 31440, Note_on_c, 0, 75, 49
1, 31679, Note_on_c, 0, 75, 0
1, 31680, Note_on_c, 0, 74, 53
1, 32159, Note_on_c, 0, 74, 0
1, 32160, Note_on_c, 0, 74, 51
1, 32399, Note_on_c, 0, 74, 0
1, 32400, Note_on_c, 0, 75, 49
1, 32639, Note_on_c, 0, 75, 0
1, 32640, Note_on_c, 0, 74, 55
1, 32879, Note_on_c, 0, 74, 0
1, 32880, Note_on_c, 0, 74, 49
1, 33119, Note_on_c, 0, 74, 0
1, 33120, Note_on_c, 0, 74, 51
1, 33359, Note_on_c, 0, 74, 0
1, 33360, Note_on_c, 0, 75, 49
1, 33599, Note_on_c, 0, 75, 0
1, 33600, Note_on_c, 0, 74, 53
1, 34079, Note_on_c, 0, 74, 0
1, 34080, Note_on_c, 0, 74, 51
1, 34319, Note_on_c, 0, 74, 0
1, 34320, Note_on_c, 0, 75, 49
1, 34559, Note_on_c, 0, 75, 0
1, 34560, Note_on_c, 0, 74, 55
1, 34799, Note_on_c, 0, 74, 0
1, 34800, Note_on_c, 0, 72, 49
1, 34919, Note_on_c, 0, 72, 0
1, 34920, Note_on_c, 0, 74, 49
1, 35039, Note_on_c, 0, 74, 0
1, 35040, Note_on_c, 0, 75, 51
1, 35279, Note_on_c, 0, 75, 0
1, 35280, Note_on_c, 0, 74, 49
1, 35519, Note_on_c, 0, 74, 0
1, 35520, Note_on_c, 0, 72, 53
1, 35999, Note_on_c, 0, 72, 0
1, 36480, Note_on_c, 0, 86, 96
1, 36480, Note_on_c, 0, 82, 86
1, 36719, Note_on_c, 0, 86, 0
1, 36719, Note_on_c, 0, 82, 0
1, 36720, Note_on_c, 0, 86, 90
1, 36720, Note_on_c, 0, 82, 80
1, 36959, Note_on_c, 0, 86, 0
1, 36959, Note_on_c, 0, 82, 0
1, 36960, Note_on_c, 0, 86, 92
1, 36960, Note_on_c, 0, 82, 82
1, 37199, Note_on_c, 0, 86, 0
1, 37199, Note_on_c, 0, 82, 0
1, 37200, Note_on_c, 0, 89, 88
1, 37439, Note_on_c, 0, 89, 0
1, 37440, Note_on_c, 0, 79, 92
1, 37919, Note_on_c, 0, 79, 0
1, 37920, Note_on_c, 0, 79, 90
1, 38159, Note_on_c, 0, 79, 0
1, 38160, Note_on_c, 0, 79, 88
1, 38399, Note_on_c, 0, 79, 0
1, 38400, Note_on_c, 0, 84, 96
1, 38400, Note_on_c, 0, 81, 86
1, 38639, Note_on_c, 0, 84, 0
1, 38639, Note_on_c, 0, 81, 0
1, 38640, Note_on_c, 0, 84, 90
1, 38640, Note_on_c, 0, 81, 80
1, 38879, Note_on_c, 0, 84, 0
1, 38879, Note_on_c, 0, 81, 0
1, 38880, Note_on_c, 0, 84, 92
1, 38880, Note_on_c, 0, 81, 82
1, 39119, Note_on_c, 0, 84, 0
1, 39119, Note_on_c, 0, 81, 0
1, 39120, Note_on_c, 0, 87, 88
1, 39359, Note_on_c, 0, 87, 0
1, 39360, Note_on_c, 0, 77, 92
1, 39839, Note_on_c, 0, 77, 0
1, 39840, Note_on_c, 0, 77, 78
1, 40079, Note_on_c, 0, 77, 0
1, 40080, Note_on_c, 0, 82, 76
1, 40319, Note_on_c, 0, 82, 0
1, 40320, Note_on_c, 0, 86, 84
1, 40320, Note_on_c, 0, 82, 74
1, 40559, Note_on_c, 0, 86, 0
1, 40559, Note_on_c, 0, 82, 0
1, 40560, Note_on_c, 0, 86, 78
1, 40560, Note_on_c, 0, 82, 68
1, 40799, Note_on_c, 0, 86, 0
1, 40799, Note_on_c, 0, 82, 0
1, 40800, Note_on_c, 0, 86, 84
1, 40800, Note_on_c, 0, 82, 70
1, 41039, Note_on_c, 0, 86, 0
1, 41039, Note_on_c, 0, 82, 0
1, 41040, Note_on_c, 0, 87, 82
1, 41040, Note_on_c, 0, 82, 68
1, 41279, Note_on_c, 0, 87, 0
1, 41279, Note_on_c, 0, 82, 0
1, 41280, Note_on_c, 0, 86, 86
1, 41280, Note_on_c, 0, 82, 72
1, 41519, Note_on_c, 0, 86, 0
1, 41519, Note_on_c, 0, 82, 0
1, 41520, Note_on_c, 0, 86, 78
1, 41520, Note_on_c, 0, 82, 68
1, 41759, Note_on_c, 0, 86, 0
1, 41759, Note_on_c, 0, 82, 0
1, 41760, Note_on_c, 0, 86, 84
1, 41760, Note_on_c, 0, 82, 70
1, 41999, Note_on_c, 0, 86, 0
1, 41999, Note_on_c, 0, 82, 0
1, 42000, Note_on_c, 0, 87, 82
1, 42000, Note_on_c, 0, 82, 68
1, 42239, Note_on_c, 0, 87, 0
1, 42239, Note_on_c, 0, 82, 0
1, 42240, Note_on_c, 0, 86, 88
1, 42240, Note_on_c, 0, 82, 74
1, 42479, Note_on_c, 0, 86, 0
1, 42479, Note_on_c, 0, 82, 0
1, 42480, Note_on_c, 0, 86, 78
1, 42480, Note_on_c, 0, 82, 68
1, 42719, Note_on_c, 0, 86, 0
1, 42719, Note_on_c, 0, 82, 0
1, 42720, Note_on_c, 0, 86, 84
1, 42720, Note_on_c, 0, 82, 70
1, 42959, Note_on_c, 0, 86, 0
1, 42959, Note_on_c, 0, 82, 0
1, 42960, Note_on_c, 0, 87, 82
1, 42960, Note_on_c, 0, 82, 68
1, 43199, Note_on_c, 0, 87, 0
1, 43199, Note_on_c, 0, 82, 0
1, 43200, Note_on_c, 0, 86, 86
1, 43200, Note_on_c, 0, 82, 72
1, 43439, Note_on_c, 0, 86, 0
1, 43439, Note_on_c, 0, 82, 0
1, 43440, Note_on_c, 0, 84, 88
1, 43559, Note_on_c, 0, 84, 0
1, 43560, Note_on_c, 0, 86, 88
1, 43679, Note_on_c, 0, 86, 0
1, 43680, Note_on_c, 0, 87, 90
1, 43919, Note_on_c, 0, 87, 0
1, 43920, Note_on_c, 0, 84, 88
1, 44159, Note_on_c, 0, 84, 0
1, 44160, Note_on_c, 0, 86, 100
1, 44160, Note_on_c, 0, 82, 86
1, 44639, Note_on_c, 0, 86, 0
1, 44639, Note_on_c, 0, 82, 0
1, 45120, Note_on_c, 0, 62, 53
1, 45359, Note_on_c, 0, 62, 0
1, 45360, Note_on_c, 0, 62, 49
1, 45599, Note_on_c, 0, 62, 0
1, 45600, Note_on_c, 0, 62, 51
1, 45839, Note_on_c, 0, 62, 0
1, 45840, Note_on_c, 0, 63, 49
1, 46079, Note_on_c, 0, 63, 0
1, 46080, Note_on_c, 0, 74, 55
1, 46319, Note_on_c, 0, 74, 0
1, 46320, Note_on_c, 0, 74, 49
1, 46559, Note_on_c, 0, 74, 0
1, 46560, Note_on_c, 0, 74, 51
1, 46799, Note_on_c, 0, 74, 0
1, 46800, Note_on_c, 0, 75, 49
1, 47039, Note_on_c, 0, 75, 0
1, 47040, Note_on_c, 0, 74, 53
1, 47279, Note_on_c, 0, 74, 0
1, 47280, Note_on_c, 0, 74, 49
1, 47519, Note_on_c, 0, 74, 0
1, 47520, Note_on_c, 0, 74, 51
1, 47759, Note_on_c, 0, 74, 0
1, 47760, Note_on_c, 0, 75, 49
1, 47999, Note_on_c, 0, 75, 0
1, 48000, Note_on_c, 0, 74, 55
1, 48239, Note_on_c, 0, 74, 0
1, 48240, Note_on_c, 0, 72, 49
1, 48359, Note_on_c, 0, 72, 0
1, 48360, Note_on_c, 0, 74, 49
1, 48479, Note_on_c, 0, 74, 0
1, 48480, Note_on_c, 0, 75, 51
1, 48719, Note_on_c, 0, 75, 0
1, 48720, Note_on_c, 0, 72, 49
1, 48959, Note_on_c, 0, 72, 0
1, 48960, Note_on_c, 0, 74, 80
1, 49439, Note_on_c, 0, 74, 0
1, 49920, Note_on_c, 0, 82, 88
1, 49920, Note_on_c, 0, 74, 74
1, 50159, Note_on_c, 0, 82, 0
1, 50159, Note_on_c, 0, 74, 0
1, 50160, Note_on_c, 0, 77, 82
1, 50160, Note_on_c, 0, 74, 68
1, 50399, Note_on_c, 0, 77, 0
1, 50399, Note_on_c, 0, 74, 0
1, 50400, Note_on_c, 0, 77, 80
1, 50400, Note_on_c, 0, 74, 70
1, 50639, Note_on_c, 0, 77, 0
1, 50639, Note_on_c, 0, 74, 0
1, 50640, Note_on_c, 0, 77, 82
1, 50640, Note_on_c, 0, 74, 68
1, 50879, Note_on_c, 0, 77, 0
1, 50879, Note_on_c, 0, 74, 0
1, 50880, Note_on_c, 0, 79, 64
1, 50880, Note_on_c, 0, 75, 84
1, 51359, Note_on_c, 0, 79, 0
1, 51359, Note_on_c, 0, 75, 0
1, 51360, Note_on_c, 0, 77, 84
1, 51360, Note_on_c, 0, 74, 70
1, 51599, Note_on_c, 0, 77, 0
1, 51599, Note_on_c, 0, 74, 0
1, 51600, Note_on_c, 0, 77, 82
1, 51600, Note_on_c, 0, 74, 68
1, 51839, Note_on_c, 0, 77, 0
1, 51839, Note_on_c, 0, 74, 0
1, 51840, Note_on_c, 0, 82, 88
1, 51840, Note_on_c, 0, 74, 74
1, 52079, Note_on_c, 0, 82, 0
1, 52079, Note_on_c, 0, 74, 0
1, 52080, Note_on_c, 0, 77, 82
1, 52080, Note_on_c, 0, 74, 68
1, 52319, Note_on_c, 0, 77, 0
1, 52319, Note_on_c, 0, 74, 0
1, 52320, Note_on_c, 0, 77, 80
1, 52320, Note_on_c, 0, 74, 70
1, 52559, Note_on_c, 0, 77, 0
1, 52559, Note_on_c, 0, 74, 0
1, 52560, Note_on_c, 0, 77, 82
1, 52560, Note_on_c, 0, 74, 68
1, 52799, Note_on_c, 0, 77, 0
1, 52799, Note_on_c, 0, 74, 0
1, 52800, Note_on_c, 0, 79, 64
1, 52800, Note_on_c, 0, 75, 84
1, 53279, Note_on_c, 0, 79, 0
1, 53279, Note_on_c, 0, 75, 0
1, 53280, Note_on_c, 0, 77, 84
1, 53280, Note_on_c, 0, 74, 70
1, 53519, Note_on_c, 0, 77, 0
1, 53519, Note_on_c, 0, 74, 0
1, 53520, Note_on_c, 0, 77, 82
1, 53520, Note_on_c, 0, 74, 68
1, 53759, Note_on_c, 0, 77, 0
1, 53759, Note_on_c, 0, 74, 0
1, 53760, Note_on_c, 0, 79, 64
1, 53760, Note_on_c, 0, 75, 86
1, 54239, Note_on_c, 0, 79, 0
1, 54239, Note_on_c, 0, 75, 0
1, 54240, Note_on_c, 0, 77, 84
1, 54240, Note_on_c, 0, 74, 70
1, 54479, Note_on_c, 0, 77, 0
1, 54479, Note_on_c, 0, 74, 0
1, 54480, Note_on_c, 0, 77, 82
1, 54480, Note_on_c, 0, 74, 68
1, 54719, Note_on_c, 0, 77, 0
1, 54719, Note_on_c, 0, 74, 0
1, 54720, Note_on_c, 0, 82, 86
1, 54720, Note_on_c, 0, 74, 72
1, 54959, Note_on_c, 0, 82, 0
1, 54959, Note_on_c, 0, 74, 0
1, 54960, Note_on_c, 0, 81, 88
1, 55079, Note_on_c, 0, 81, 0
1, 55080, Note_on_c, 0, 79, 88
1, 55199, Note_on_c, 0, 79, 0
1, 55200, Note_on_c, 0, 77, 90
1, 55439, Note_on_c, 0, 77, 0
1, 55440, Note_on_c, 0, 75, 88
1, 55679, Note_on_c, 0, 75, 0
1, 55680, Note_on_c, 0, 86, 94
1, 56159, Note_on_c, 0, 86, 0
1, 56160, Note_on_c, 0, 84, 90
1, 56639, Note_on_c, 0, 84, 0
1, 56640, Note_on_c, 0, 82, 92
1, 57119, Note_on_c, 0, 82, 0
1, 57600, Note_on_c, 0, 82, 61
1, 57600, Note_on_c, 0, 74, 47
1, 57839, Note_on_c, 0, 82, 0
1, 57839, Note_on_c, 0, 74, 0
1, 57840, Note_on_c, 0, 77, 49
1, 58079, Note_on_c, 0, 77, 0
1, 58080, Note_on_c, 0, 77, 51
1, 58319, Note_on_c, 0, 77, 0
1, 58320, Note_on_c, 0, 77, 49
1, 58559, Note_on_c, 0, 77, 0
1, 58560, Note_on_c, 0, 79, 59
1, 58560, Note_on_c, 0, 75, 45
1, 59039, Note_on_c, 0, 79, 0
1, 59039, Note_on_c, 0, 75, 0
1, 59040, Note_on_c, 0, 77, 57
1, 59040, Note_on_c, 0, 74, 43
1, 59279, Note_on_c, 0, 77, 0
1, 59279, Note_on_c, 0, 74, 0
1, 59280, Note_on_c, 0, 77, 49
1, 59519, Note_on_c, 0, 77, 0
1, 59520, Note_on_c, 0, 82, 61
1, 59520, Note_on_c, 0, 74, 47
1, 59759, Note_on_c, 0, 82, 0
1, 59759, Note_on_c, 0, 74, 0
1, 59760, Note_on_c, 0, 77, 49
1, 59999, Note_on_c, 0, 77, 0
1, 60000, Note_on_c, 0, 77, 51
1, 60239, Note_on_c, 0, 77, 0
1, 60240, Note_on_c, 0, 77, 49
1, 60479, Note_on_c, 0, 77, 0
1, 60480, Note_on_c, 0, 79, 59
1, 60480, Note_on_c, 0, 75, 45
1, 60959, Note_on_c, 0, 79, 0
1, 60959, Note_on_c, 0, 75, 0
1, 60960, Note_on_c, 0, 77, 57
1, 60960, Note_on_c, 0, 74, 43
1, 61199, Note_on_c, 0, 77, 0
1, 61199, Note_on_c, 0, 74, 0
1, 61200, Note_on_c, 0, 77, 49
1, 61439, Note_on_c, 0, 77, 0
1, 61440, Note_on_c, 0, 79, 61
1, 61440, Note_on_c, 0, 75, 47
1, 61919, Note_on_c, 0, 79, 0
1, 61919, Note_on_c, 0, 75, 0
1, 61920, Note_on_c, 0, 77, 57
1, 61920, Note_on_c, 0, 74, 43
1, 62159, Note_on_c, 0, 77, 0
1, 62159, Note_on_c, 0, 74, 0
1, 62160, Note_on_c, 0, 77, 49
1, 62399, Note_on_c, 0, 77, 0
1, 62400, Note_on_c, 0, 82, 59
1, 62400, Note_on_c, 0, 74, 45
1, 62639, Note_on_c, 0, 82, 0
1, 62639, Note_on_c, 0, 74, 0
1, 62640, Note_on_c, 0, 81, 49
1, 62759, Note_on_c, 0, 81, 0
1, 62760, Note_on_c, 0, 79, 49
1, 62879, Note_on_c, 0, 79, 0
1, 62880, Note_on_c, 0, 77, 51
1, 63119, Note_on_c, 0, 77, 0
1, 63120, Note_on_c, 0, 75, 49
1, 63359, Note_on_c, 0, 75, 0
1, 63360, Note_on_c, 0, 74, 55
1, 63839, Note_on_c, 0, 74, 0
1, 63840, Note_on_c, 0, 72, 51
1, 64319, Note_on_c, 0, 72, 0
1, 64320, Note_on_c, 0, 70, 53
1, 64560, Note_on_c, 0, 77, 37
1, 64799, Note_on_c, 0, 77, 0
1, 64799, Note_on_c, 0, 70, 0
1, 64800, Note_on_c, 0, 77, 39
1, 65039, Note_on_c, 0, 77, 0
1, 65040, Note_on_c, 0, 77, 37
1, 65279, Note_on_c, 0, 77, 0
1, 65280, Note_on_c, 0, 77, 43
1, 65519, Note_on_c, 0, 77, 0
1, 65520, Note_on_c, 0, 77, 37
1, 65759, Note_on_c, 0, 77, 0
1, 65760, Note_on_c, 0, 77, 39
1, 65999, Note_on_c, 0, 77, 0
1, 66000, Note_on_c, 0, 77, 37
1, 66239, Note_on_c, 0, 77, 0
1, 66240, Note_on_c, 0, 80, 53
1, 69119, Note_on_c, 0, 80, 0
1, 69120, Note_on_c, 0, 79, 55
1, 71039, Note_on_c, 0, 79, 0
1, 71040, Note_on_c, 0, 78, 55
1, 72959, Note_on_c, 0, 78, 0
1, 72960, Note_on_c, 0, 77, 55
1, 74879, Note_on_c, 0, 77, 0
1, 74880, Note_on_c, 0, 77, 55
1, 76799, Note_on_c, 0, 77, 0
1, 76800, Note_on_c, 0, 77, 55
1, 78719, Note_on_c, 0, 77, 0
1, 78720, Note_on_c, 0, 77, 55
1, 79679, Note_on_c, 0, 77, 0
1, 80640, Note_on_c, 0, 82, 88
1, 80640, Note_on_c, 0, 74, 74
1, 80879, Note_on_c, 0, 82, 0
1, 80879, Note_on_c, 0, 74, 0
1, 80880, Note_on_c, 0, 77, 82
1, 80880, Note_on_c, 0, 74, 68
1, 81119, Note_on_c, 0, 77, 0
1, 81119, Note_on_c, 0, 74, 0
1, 81120, Note_on_c, 0, 77, 80
1, 81120, Note_on_c, 0, 74, 70
1, 81359, Note_on_c, 0, 77, 0
1, 81359, Note_on_c, 0, 74, 0
1, 81360, Note_on_c, 0, 77, 82
1, 81360, Note_on_c, 0, 74, 68
1, 81599, Note_on_c, 0, 77, 0
1, 81599, Note_on_c, 0, 74, 0
1, 81600, Note_on_c, 0, 79, 64
1, 81600, Note_on_c, 0, 75, 84
1, 82079, Note_on_c, 0, 79, 0
1, 82079, Note_on_c, 0, 75, 0
1, 82080, Note_on_c, 0, 77, 84
1, 82080, Note_on_c, 0, 74, 70
1, 82319, Note_on_c, 0, 77, 0
1, 82319, Note_on_c, 0, 74, 0
1, 82320, Note_on_c, 0, 77, 82
1, 82320, Note_on_c, 0, 74, 68
1, 82559, Note_on_c, 0, 77, 0
1, 82559, Note_on_c, 0, 74, 0
1, 82560, Note_on_c, 0, 82, 88
1, 82560, Note_on_c, 0, 74, 74
1, 82799, Note_on_c, 0, 82, 0
1, 82799, Note_on_c, 0, 74, 0
1, 82800, Note_on_c, 0, 77, 82
1, 82800, Note_on_c, 0, 74, 68
1, 83039, Note_on_c, 0, 77, 0
1, 83039, Note_on_c, 0, 74, 0
1, 83040, Note_on_c, 0, 77, 80
1, 83040, Note_on_c, 0, 74, 70
1, 83279, Note_on_c, 0, 77, 0
1, 83279, Note_on_c, 0, 74, 0
1, 83280, Note_on_c, 0, 77, 82
1, 83280, Note_on_c, 0, 74, 68
1, 83519, Note_on_c, 0, 77, 0
1, 83519, Note_on_c, 0, 74, 0
1, 83520, Note_on_c, 0, 79, 64
1, 83520, Note_on_c, 0, 75, 84
1, 83999, Note_on_c, 0, 79, 0
1, 83999, Note_on_c, 0, 75, 0
1, 84000, Note_on_c, 0, 77, 84
1, 84000, Note_on_c, 0, 74, 70
1, 84239, Note_on_c, 0, 77, 0
1, 84239, Note_on_c, 0, 74, 0
1, 84240, Note_on_c, 0, 77, 82
1, 84240, Note_on_c, 0, 74, 68
1, 84479, Note_on_c, 0, 77, 0
1, 84479, Note_on_c, 0, 74, 0
1, 84480, Note_on_c, 0, 79, 64
1, 84480, Note_on_c, 0, 75, 86
1, 84959, Note_on_c, 0, 79, 0
1, 84959, Note_on_c, 0, 75, 0
1, 84960, Note_on_c, 0, 77, 84
1, 84960, Note_on_c, 0, 74, 70
1, 85199, Note_on_c, 0, 77, 0
1, 85199, Note_on_c, 0, 74, 0
1, 85200, Note_on_c, 0, 77, 82
1, 85200, Note_on_c, 0, 74, 68
1, 85439, Note_on_c, 0, 77, 0
1, 85439, Note_on_c, 0, 74, 0
1, 85440, Note_on_c, 0, 82, 86
1, 85440, Note_on_c, 0, 74, 72
1, 85679, Note_on_c, 0, 82, 0
1, 85679, Note_on_c, 0, 74, 0
1, 85680, Note_on_c, 0, 81, 88
1, 85799, Note_on_c, 0, 81, 0
1, 85800, Note_on_c, 0, 79, 88
1, 85919, Note_on_c, 0, 79, 0
1, 85920, Note_on_c, 0, 77, 90
1, 86159, Note_on_c, 0, 77, 0
1, 86160, Note_on_c, 0, 75, 88
1, 86399, Note_on_c, 0, 75, 0
1, 86400, Note_on_c, 0, 86, 94
1, 86879, Note_on_c, 0, 86, 0
1, 86880, Note_on_c, 0, 84, 90
1, 87359, Note_on_c, 0, 84, 0
1, 87360, Note_on_c, 0, 82, 92
1, 87839, Note_on_c, 0, 82, 0
1, 88320, Note_on_c, 0, 82, 61
1, 88320, Note_on_c, 0, 74, 47
1, 88559, Note_on_c, 0, 82, 0
1, 88559, Note_on_c, 0, 74, 0
1, 88560, Note_on_c, 0, 77, 49
1, 88799, Note_on_c, 0, 77, 0
1, 88800, Note_on_c, 0, 77, 51
1, 89039, Note_on_c, 0, 77, 0
1, 89040, Note_on_c, 0, 77, 49
1, 89279, Note_on_c, 0, 77, 0
1, 89280, Note_on_c, 0, 79, 59
1, 89280, Note_on_c, 0, 75, 45
1, 89759, Note_on_c, 0, 79, 0
1, 89759, Note_on_c, 0, 75, 0
1, 89760, Note_on_c, 0, 77, 57
1, 89760, Note_on_c, 0, 74, 43
1, 89999, Note_on_c, 0, 77, 0
1, 89999, Note_on_c, 0, 74, 0
1, 90000, Note_on_c, 0, 77, 49
1, 90239, Note_on_c, 0, 77, 0
1, 90240, Note_on_c, 0, 82, 61
1, 90240, Note_on_c, 0, 74, 47
1, 90479, Note_on_c, 0, 82, 0
1, 90479, Note_on_c, 0, 74, 0
1, 90480, Note_on_c, 0, 77, 49
1, 90719, Note_on_c, 0, 77, 0
1, 90720, Note_on_c, 0, 77, 51
1, 90959, Note_on_c, 0, 77, 0
1, 90960, Note_on_c, 0, 77, 49
1, 91199, Note_on_c, 0, 77, 0
1, 91200, Note_on_c, 0, 79, 59
1, 91200, Note_on_c, 0, 75, 45
1, 91679, Note_on_c, 0, 79, 0
1, 91679, Note_on_c, 0, 75, 0
1, 91680, Note_on_c, 0, 77, 57
1, 91680, Note_on_c, 0, 74, 43
1, 91919, Note_on_c, 0, 77, 0
1, 91919, Note_on_c, 0, 74, 0
1, 91920, Note_on_c, 0, 77, 49
1, 92159, Note_on_c, 0, 77, 0
1, 92160, Note_on_c, 0, 79, 61
1, 92160, Note_on_c, 0, 75, 47
1, 92639, Note_on_c, 0, 79, 0
1, 92639, Note_on_c, 0, 75, 0
1, 92640, Note_on_c, 0, 77, 57
1, 92640, Note_on_c, 0, 74, 43
1, 92879, Note_on_c, 0, 77, 0
1, 92879, Note_on_c, 0, 74, 0
1, 92880, Note_on_c, 0, 77, 49
1, 93119, Note_on_c, 0, 77, 0
1, 93120, Note_on_c, 0, 82, 59
1, 93120, Note_on_c, 0, 74, 45
1, 93359, Note_on_c, 0, 82, 0
1, 93359, Note_on_c, 0, 74, 0
1, 93360, Note_on_c, 0, 81, 49
1, 93479, Note_on_c, 0, 81, 0
1, 93480, Note_on_c, 0, 79, 49
1, 93599, Note_on_c, 0, 79, 0
1, 93600, Note_on_c, 0, 77, 51
1, 93839, Note_on_c, 0, 77, 0
1, 93840, Note_on_c, 0, 75, 49
1, 94079, Note_on_c, 0, 75, 0
1, 94080, Note_on_c, 0, 74, 55
1, 94559, Note_on_c, 0, 74, 0
1, 94560, Note_on_c, 0, 72, 51
1, 95039, Note_on_c, 0, 72, 0
1, 95040, Note_on_c, 0, 70, 53
1, 95280, Note_on_c, 0, 77, 37
1, 95519, Note_on_c, 0, 77, 0
1, 95519, Note_on_c, 0, 70, 0
1, 95520, Note_on_c, 0, 77, 39
1, 95759, Note_on_c, 0, 77, 0
1, 95760, Note_on_c, 0, 77, 37
1, 95999, Note_on_c, 0, 77, 0
1, 96000, Note_on_c, 0, 77, 43
1, 96239, Note_on_c, 0, 77, 0
1, 96240, Note_on_c, 0, 77, 37
1, 96479, Note_on_c, 0, 77, 0
1, 96480, Note_on_c, 0, 77, 39
1, 96719, Note_on_c, 0, 77, 0
1, 96720, Note_on_c, 0, 77, 37
1, 96959, Note_on_c, 0, 77, 0
1, 96960, Note_on_c, 0, 80, 53
1, 99839, Note_on_c, 0, 80, 0
1, 99840, Note_on_c, 0, 79, 55
1, 101759, Note_on_c, 0, 79, 0
1, 101760, Note_on_c, 0, 78, 55
1, 103679, Note_on_c, 0, 78, 0
1, 103680, Note_on_c, 0, 77, 55
1, 105599, Note_on_c, 0, 77, 0
1, 105600, Note_on_c, 0, 77, 55
1, 107519, Note_on_c, 0, 77, 0
1, 107520, Note_on_c, 0, 77, 55
1, 109439, Note_on_c, 0, 77, 0
1, 109440, Note_on_c, 0, 77, 55
1, 110399, Note_on_c, 0, 77, 0
1, 111360, Note_on_c, 0, 86, 84
1, 111360, Note_on_c, 0, 82, 74
1, 111599, Note_on_c, 0, 86, 0
1, 111599, Note_on_c, 0, 82, 0
1, 111600, Note_on_c, 0, 86, 78
1, 111600, Note_on_c, 0, 82, 68
1, 111839, Note_on_c, 0, 86, 0
1, 111839, Note_on_c, 0, 82, 0
1, 111840, Note_on_c, 0, 86, 84
1, 111840, Note_on_c, 0, 82, 70
1, 112079, Note_on_c, 0, 86, 0
1, 112079, Note_on_c, 0, 82, 0
1, 112080, Note_on_c, 0, 87, 82
1, 112080, Note_on_c, 0, 82, 68
1, 112319, Note_on_c, 0, 87, 0
1, 112319, Note_on_c, 0, 82, 0
1, 112320, Note_on_c, 0, 86, 98
1, 112320, Note_on_c, 0, 82, 84
1, 112799, Note_on_c, 0, 86, 0
1, 112799, Note_on_c, 0, 82, 0
1, 112800, Note_on_c, 0, 86, 84
1, 112800, Note_on_c, 0, 82, 70
1, 113039, Note_on_c, 0, 86, 0
1, 113039, Note_on_c, 0, 82, 0
1, 113040, Note_on_c, 0, 87, 82
1, 113040, Note_on_c, 0, 82, 68
1, 113279, Note_on_c, 0, 87, 0
1, 113279, Note_on_c, 0, 82, 0
1, 113280, Note_on_c, 0, 86, 88
1, 113280, Note_on_c, 0, 82, 74
1, 113519, Note_on_c, 0, 86, 0
1, 113519, Note_on_c, 0, 82, 0
1, 113520, Note_on_c, 0, 86, 78
1, 113520, Note_on_c, 0, 82, 68
1, 113759, Note_on_c, 0, 86, 0
1, 113759, Note_on_c, 0, 82, 0
1, 113760, Note_on_c, 0, 86, 84
1, 113760, Note_on_c, 0, 82, 70
1, 113999, Note_on_c, 0, 86, 0
1, 113999, Note_on_c, 0, 82, 0
1, 114000, Note_on_c, 0, 87, 82
1, 114000, Note_on_c, 0, 82, 68
1, 114239, Note_on_c, 0, 87, 0
1, 114239, Note_on_c, 0, 82, 0
1, 114240, Note_on_c, 0, 86, 98
1, 114240, Note_on_c, 0, 82, 84
1, 114719, Note_on_c, 0, 86, 0
1, 114719, Note_on_c, 0, 82, 0
1, 114720, Note_on_c, 0, 86, 84
1, 114720, Note_on_c, 0, 82, 70
1, 114959, Note_on_c, 0, 86, 0
1, 114959, Note_on_c, 0, 82, 0
1, 114960, Note_on_c, 0, 87, 82
1, 114960, Note_on_c, 0, 82, 68
1, 115199, Note_on_c, 0, 87, 0
1, 115199, Note_on_c, 0, 82, 0
1, 115200, Note_on_c, 0, 86, 88
1, 115200, Note_on_c, 0, 82, 74
1, 115439, Note_on_c, 0, 86, 0
1, 115439, Note_on_c, 0, 82, 0
1, 115440, Note_on_c, 0, 84, 88
1, 115559, Note_on_c, 0, 84, 0
1, 115560, Note_on_c, 0, 86, 88
1, 115679, Note_on_c, 0, 86, 0
1, 115680, Note_on_c, 0, 87, 90
1, 115919, Note_on_c, 0, 87, 0
1, 115920, Note_on_c, 0, 86, 88
1, 116159, Note_on_c, 0, 86, 0
1, 116160, Note_on_c, 0, 84, 98
1, 116160, Note_on_c, 0, 81, 84
1, 116639, Note_on_c, 0, 84, 0
1, 116639, Note_on_c, 0, 81, 0
1, 117120, Note_on_c, 0, 74, 55
1, 117359, Note_on_c, 0, 74, 0
1, 117360, Note_on_c, 0, 74, 49
1, 117599, Note_on_c, 0, 74, 0
1, 117600, Note_on_c, 0, 74, 51
1, 117839, Note_on_c, 0, 74, 0
1, 117840, Note_on_c, 0, 75, 49
1, 118079, Note_on_c, 0, 75, 0
1, 118080, Note_on_c, 0, 74, 53
1, 118559, Note_on_c, 0, 74, 0
1, 118560, Note_on_c, 0, 74, 51
1, 118799, Note_on_c, 0, 74, 0
1, 118800, Note_on_c, 0, 75, 49
1, 119039, Note_on_c, 0, 75, 0
1, 119040, Note_on_c, 0, 74, 55
1, 119279, Note_on_c, 0, 74, 0
1, 119280, Note_on_c, 0, 74, 49
1, 119519, Note_on_c, 0, 74, 0
1, 119520, Note_on_c, 0, 74, 51
1, 119759, Note_on_c, 0, 74, 0
1, 119760, Note_on_c, 0, 75, 49
1, 119999, Note_on_c, 0, 75, 0
1, 120000, Note_on_c, 0, 74, 53
1, 120479, Note_on_c, 0, 74, 0
1, 120480, Note_on_c, 0, 74, 51
1, 120719, Note_on_c, 0, 74, 0
1, 120720, Note_on_c, 0, 75, 49
1, 120959, Note_on_c, 0, 75, 0
1, 120960, Note_on_c, 0, 74, 55
1, 121199, Note_on_c, 0, 74, 0
1, 121200, Note_on_c, 0, 72, 49
1, 121319, Note_on_c, 0, 72, 0
1, 121320, Note_on_c, 0, 74, 49
1, 121439, Note_on_c, 0, 74, 0
1, 121440, Note_on_c, 0, 75, 51
1, 121679, Note_on_c, 0, 75, 0
1, 121680, Note_on_c, 0, 74, 49
1, 121919, Note_on_c, 0, 74, 0
1, 121920, Note_on_c, 0, 72, 53
1, 122399, Note_on_c, 0, 72, 0
1, 122880, Note_on_c, 0, 86, 84
1, 122880, Note_on_c, 0, 82, 74
1, 123119, Note_on_c, 0, 86, 0
1, 123119, Note_on_c, 0, 82, 0
1, 123120, Note_on_c, 0, 86, 78
1, 123120, Note_on_c, 0, 82, 68
1, 123359, Note_on_c, 0, 86, 0
1, 123359, Note_on_c, 0, 82, 0
1, 123360, Note_on_c, 0, 86, 84
1, 123360, Note_on_c, 0, 82, 70
1, 123599, Note_on_c, 0, 86, 0
1, 123599, Note_on_c, 0, 82, 0
1, 123600, Note_on_c, 0, 87, 82
1, 123600, Note_on_c, 0, 82, 68
1, 123839, Note_on_c, 0, 87, 0
1, 123839, Note_on_c, 0, 82, 0
1, 123840, Note_on_c, 0, 86, 98
1, 123840, Note_on_c, 0, 82, 84
1, 124319, Note_on_c, 0, 86, 0
1, 124319, Note_on_c, 0, 82, 0
1, 124320, Note_on_c, 0, 86, 84
1, 124320, Note_on_c, 0, 82, 70
1, 124559, Note_on_c, 0, 86, 0
1, 124559, Note_on_c, 0, 82, 0
1, 124560, Note_on_c, 0, 87, 82
1, 124560, Note_on_c, 0, 82, 68
1, 124799, Note_on_c, 0, 87, 0
1, 124799, Note_on_c, 0, 82, 0
1, 124800, Note_on_c, 0, 86, 88
1, 124800, Note_on_c, 0, 82, 74
1, 125039, Note_on_c, 0, 86, 0
1, 125039, Note_on_c, 0, 82, 0
1, 125040, Note_on_c, 0, 86, 78
1, 125040, Note_on_c, 0, 82, 68
1, 125279, Note_on_c, 0, 86, 0
1, 125279, Note_on_c, 0, 82, 0
1, 125280, Note_on_c, 0, 86, 84
1, 125280, Note_on_c, 0, 82, 70
1, 125519, Note_on_c, 0, 86, 0
1, 125519, Note_on_c, 0, 82, 0
1, 125520, Note_on_c, 0, 87, 82
1, 125520, Note_on_c, 0, 82, 68
1, 125759, Note_on_c, 0, 87, 0
1, 125759, Note_on_c, 0, 82, 0
1, 125760, Note_on_c, 0, 86, 98
1, 125760, Note_on_c, 0, 82, 84
1, 126239, Note_on_c, 0, 86, 0
1, 126239, Note_on_c, 0, 82, 0
1, 126240, Note_on_c, 0, 86, 84
1, 126240, Note_on_c, 0, 82, 70
1, 126479, Note_on_c, 0, 86, 0
1, 126479, Note_on_c, 0, 82, 0
1, 126480, Note_on_c, 0, 87, 82
1, 126480, Note_on_c, 0, 82, 68
1, 126719, Note_on_c, 0, 87, 0
1, 126719, Note_on_c, 0, 82, 0
1, 126720, Note_on_c, 0, 86, 88
1, 126720, Note_on_c, 0, 82, 74
1, 126959, Note_on_c, 0, 86, 0
1, 126959, Note_on_c, 0, 82, 0
1, 126960, Note_on_c, 0, 84, 88
1, 127079, Note_on_c, 0, 84, 0
1, 127080, Note_on_c, 0, 86, 88
1, 127199, Note_on_c, 0, 86, 0
1, 127200, Note_on_c, 0, 87, 90
1, 127439, Note_on_c, 0, 87, 0
1, 127440, Note_on_c, 0, 86, 88
1, 127679, Note_on_c, 0, 86, 0
1, 127680, Note_on_c, 0, 84, 98
1, 127680, Note_on_c, 0, 81, 84
1, 128159, Note_on_c, 0, 84, 0
1, 128159, Note_on_c, 0, 81, 0
1, 128640, Note_on_c, 0, 74, 55
1, 128879, Note_on_c, 0, 74, 0
1, 128880, Note_on_c, 0, 74, 49
1, 129119, Note_on_c, 0, 74, 0
1, 129120, Note_on_c, 0, 74, 51
1, 129359, Note_on_c, 0, 74, 0
1, 129360, Note_on_c, 0, 75, 49
1, 129599, Note_on_c, 0, 75, 0
1, 129600, Note_on_c, 0, 74, 53
1, 130079, Note_on_c, 0, 74, 0
1, 130080, Note_on_c, 0, 74, 51
1, 130319, Note_on_c, 0, 74, 0
1, 130320, Note_on_c, 0, 75, 49
1, 130559, Note_on_c, 0, 75, 0
1, 130560, Note_on_c, 0, 74, 55
1, 130799, Note_on_c, 0, 74, 0
1, 130800, Note_on_c, 0, 74, 49
1, 131039, Note_on_c, 0, 74, 0
1, 131040, Note_on_c, 0, 74, 51
1, 131279, Note_on_c, 0, 74, 0
1, 131280, Note_on_c, 0, 75, 49
1, 131519, Note_on_c, 0, 75, 0
1, 131520, Note_on_c, 0, 74, 53
1, 131999, Note_on_c, 0, 74, 0
1, 132000, Note_on_c, 0, 74, 51
1, 132239, Note_on_c, 0, 74, 0
1, 132240, Note_on_c, 0, 75, 49
1, 132479, Note_on_c, 0, 75, 0
1, 132480, Note_on_c, 0, 74, 55
1, 132719, Note_on_c, 0, 74, 0
1, 132720, Note_on_c, 0, 72, 49
1, 132839, Note_on_c, 0, 72, 0
1, 132840, Note_on_c, 0, 74, 49
1, 132959, Note_on_c, 0, 74, 0
1, 132960, Note_on_c, 0, 75, 51
1, 133199, Note_on_c, 0, 75, 0
1, 133200, Note_on_c, 0, 74, 49
1, 133439, Note_on_c, 0, 74, 0
1, 133440, Note_on_c, 0, 72, 53
1, 133919, Note_on_c, 0, 72, 0
1, 134400, Note_on_c, 0, 86, 96
1, 134400, Note_on_c, 0, 82, 86
1, 134639, Note_on_c, 0, 86, 0
1, 134639, Note_on_c, 0, 82, 0
1, 134640, Note_on_c, 0, 86, 90
1, 134640, Note_on_c, 0, 82, 80
1, 134879, Note_on_c, 0, 86, 0
1, 134879, Note_on_c, 0, 82, 0
1, 134880, Note_on_c, 0, 86, 92
1, 134880, Note_on_c, 0, 82, 82
1, 135119, Note_on_c, 0, 86, 0
1, 135119, Note_on_c, 0, 82, 0
1, 135120, Note_on_c, 0, 89, 88
1, 135359, Note_on_c, 0, 89, 0
1, 135360, Note_on_c, 0, 79, 92
1, 135839, Note_on_c, 0, 79, 0
1, 135840, Note_on_c, 0, 79, 90
1, 136079, Note_on_c, 0, 79, 0
1, 136080, Note_on_c, 0, 79, 88
1, 136319, Note_on_c, 0, 79, 0
1, 136320, Note_on_c, 0, 84, 96
1, 136320, Note_on_c, 0, 81, 86
1, 136559, Note_on_c, 0, 84, 0
1, 136559, Note_on_c, 0, 81, 0
1, 136560, Note_on_c, 0, 84, 90
1, 136560, Note_on_c, 0, 81, 80
1, 136799, Note_on_c, 0, 84, 0
1, 136799, Note_on_c, 0, 81, 0
1, 136800, Note_on_c, 0, 84, 92
1, 136800, Note_on_c, 0, 81, 82
1, 137039, Note_on_c, 0, 84, 0
1, 137039, Note_on_c, 0, 81, 0
1, 137040, Note_on_c, 0, 87, 88
1, 137279, Note_on_c, 0, 87, 0
1, 137280, Note_on_c, 0, 77, 92
1, 137759, Note_on_c, 0, 77, 0
1, 137760, Note_on_c, 0, 77, 78
1, 137999, Note_on_c, 0, 77, 0
1, 138000, Note_on_c, 0, 82, 76
1, 138239, Note_on_c, 0, 82, 0
1, 138240, Note_on_c, 0, 86, 84
1, 138240, Note_on_c, 0, 82, 74
1, 138479, Note_on_c, 0, 86, 0
1, 138479, Note_on_c, 0, 82, 0
1, 138480, Note_on_c, 0, 86, 78
1, 138480, Note_on_c, 0, 82, 68
1, 138719, Note_on_c, 0, 86, 0
1, 138719, Note_on_c, 0, 82, 0
1, 138720, Note_on_c, 0, 86, 84
1, 138720, Note_on_c, 0, 82, 70
1, 138959, Note_on_c, 0, 86, 0
1, 138959, Note_on_c, 0, 82, 0
1, 138960, Note_on_c, 0, 87, 82
1, 138960, Note_on_c, 0, 82, 68
1, 139199, Note_on_c, 0, 87, 0
1, 139199, Note_on_c, 0, 82, 0
1, 139200, Note_on_c, 0, 86, 86
1, 139200, Note_on_c, 0, 82, 72
1, 139439, Note_on_c, 0, 86, 0
1, 139439, Note_on_c, 0, 82, 0
1, 139440, Note_on_c, 0, 86, 78
1, 139440, Note_on_c, 0, 82, 68
1, 139679, Note_on_c, 0, 86, 0
1, 139679, Note_on_c, 0, 82, 0
1, 139680, Note_on_c, 0, 86, 84
1, 139680, Note_on_c, 0, 82, 70
1, 139919, Note_on_c, 0, 86, 0
1, 139919, Note_on_c, 0, 82, 0
1, 139920, Note_on_c, 0, 87, 82
1, 139920, Note_on_c, 0, 82, 68
1, 140159, Note_on_c, 0, 87, 0
1, 140159, Note_on_c, 0, 82, 0
1, 140160, Note_on_c, 0, 86, 88
1, 140160, Note_on_c, 0, 82, 74
1, 140399, Note_on_c, 0, 86, 0
1, 140399, Note_on_c, 0, 82, 0
1, 140400, Note_on_c, 0, 86, 78
1, 140400, Note_on_c, 0, 82, 68
1, 140639, Note_on_c, 0, 86, 0
1, 140639, Note_on_c, 0, 82, 0
1, 140640, Note_on_c, 0, 86, 84
1, 140640, Note_on_c, 0, 82, 70
1, 140879, Note_on_c, 0, 86, 0
1, 140879, Note_on_c, 0, 82, 0
1, 140880, Note_on_c, 0, 87, 82
1, 140880, Note_on_c, 0, 82, 68
1, 141119, Note_on_c, 0, 87, 0
1, 141119, Note_on_c, 0, 82, 0
1, 141120, Note_on_c, 0, 86, 86
1, 141120, Note_on_c, 0, 82, 72
1, 141359, Note_on_c, 0, 86, 0
1, 141359, Note_on_c, 0, 82, 0
1, 141360, Note_on_c, 0, 84, 88
1, 141479, Note_on_c, 0, 84, 0
1, 141480, Note_on_c, 0, 86, 88
1, 141599, Note_on_c, 0, 86, 0
1, 141600, Note_on_c, 0, 87, 90
1, 141839, Note_on_c, 0, 87, 0
1, 141840, Note_on_c, 0, 84, 88
1, 142079, Note_on_c, 0, 84, 0
1, 142080, Note_on_c, 0, 86, 100
1, 142080, Note_on_c, 0, 82, 86
1, 142559, Note_on_c, 0, 86, 0
1, 142559, Note_on_c, 0, 82, 0
1, 143040, Note_on_c, 0, 62, 53
1, 143279, Note_on_c, 0, 62, 0
1, 143280, Note_on_c, 0, 62, 49
1, 143519, Note_on_c, 0, 62, 0
1, 143520, Note_on_c, 0, 62, 51
1, 143759, Note_on_c, 0, 62, 0
1, 143760, Note_on_c, 0, 63, 49
1, 143999, Note_on_c, 0, 63, 0
1, 144000, Note_on_c, 0, 62, 55
1, 144239, Note_on_c, 0, 62, 0
1, 144240, Note_on_c, 0, 62, 49
1, 144479, Note_on_c, 0, 62, 0
1, 144480, Note_on_c, 0, 62, 51
1, 144719, Note_on_c, 0, 62, 0
1, 144720, Note_on_c, 0, 63, 49
1, 144959, Note_on_c, 0, 63, 0
1, 144960, Note_on_c, 0, 62, 53
1, 145199, Note_on_c, 0, 62, 0
1, 145200, Note_on_c, 0, 62, 49
1, 145439, Note_on_c, 0, 62, 0
1, 145440, Note_on_c, 0, 62, 51
1, 145679, Note_on_c, 0, 62, 0
1, 145680, Note_on_c, 0, 63, 49
1, 145919, Note_on_c, 0, 63, 0
1, 145920, Note_on_c, 0, 74, 55
1, 146159, Note_on_c, 0, 74, 0
1, 146160, Note_on_c, 0, 72, 49
1, 146279, Note_on_c, 0, 72, 0
1, 146280, Note_on_c, 0, 74, 49
1, 146399, Note_on_c, 0, 74, 0
1, 146400, Note_on_c, 0, 75, 51
1, 146639, Note_on_c, 0, 75, 0
1, 146640, Note_on_c, 0, 72, 49
1, 146879, Note_on_c, 0, 72, 0
1, 146880, Note_on_c, 0, 70, 80
1, 147359, Note_on_c, 0, 70, 0
1, 147360, End_track
2, 0, Start_track
2, 0, Key_signature, -2, "major"
2, 0, Program_c, 1, 40
2, 0, Note_on_c, 1, 70, 94
2, 2, Control_c, 1, 7, 100
2, 4, Control_c, 1, 10, 64
2, 6, Control_c, 1, 91, 30
2, 8, Control_c, 1, 93, 30
2, 959, Note_on_c, 1, 70, 0
2, 960, Note_on_c, 1, 70, 92
2, 1439, Note_on_c, 1, 70, 0
2, 1440, Note_on_c, 1, 70, 90
2, 1919, Note_on_c, 1, 70, 0
2, 1920, Note_on_c, 1, 70, 94
2, 2879, Note_on_c, 1, 70, 0
2, 2880, Note_on_c, 1, 70, 92
2, 3359, Note_on_c, 1, 70, 0
2, 3360, Note_on_c, 1, 70, 90
2, 3839, Note_on_c, 1, 70, 0
2, 3840, Note_on_c, 1, 70, 94
2, 4799, Note_on_c, 1, 70, 0
2, 4800, Note_on_c, 1, 65, 92
2, 5279, Note_on_c, 1, 65, 0
2, 5760, Note_on_c, 1, 58, 55
2, 7679, Note_on_c, 1, 58, 0
2, 7680, Note_on_c, 1, 58, 55
2, 9599, Note_on_c, 1, 58, 0
2, 9600, Note_on_c, 1, 58, 55
2, 10559, Note_on_c, 1, 58, 0
2, 10560, Note_on_c, 1, 65, 53
2, 11039, Note_on_c, 1, 65, 0
2, 11520, Note_on_c, 1, 70, 94
2, 12479, Note_on_c, 1, 70, 0
2, 12480, Note_on_c, 1, 63, 92
2, 12959, Note_on_c, 1, 63, 0
2, 12960, Note_on_c, 1, 63, 90
2, 13439, Note_on_c, 1, 63, 0
2, 13440, Note_on_c, 1, 65, 94
2, 14399, Note_on_c, 1, 65, 0
2, 14400, Note_on_c, 1, 62, 92
2, 14879, Note_on_c, 1, 62, 0
2, 14880, Note_on_c, 1, 62, 90
2, 15359, Note_on_c, 1, 62, 0
2, 15360, Note_on_c, 1, 70, 94
2, 16319, Note_on_c, 1, 70, 0
2, 16320, Note_on_c, 1, 70, 92
2, 17279, Note_on_c, 1, 70, 0
2, 17280, Note_on_c, 1, 70, 94
2, 18239, Note_on_c, 1, 70, 0
2, 18240, Note_on_c, 1, 65, 92
2, 19199, Note_on_c, 1, 65, 0
2, 19200, Note_on_c, 1, 70, 94
2, 19679, Note_on_c, 1, 70, 0
2, 20160, Note_on_c, 1, 58, 53
2, 22079, Note_on_c, 1, 58, 0
2, 22080, Note_on_c, 1, 58, 53
2, 23039, Note_on_c, 1, 58, 0
2, 23040, Note_on_c, 1, 69, 54
2, 23999, Note_on_c, 1, 69, 0
2, 24000, Note_on_c, 1, 58, 53
2, 24479, Note_on_c, 1, 58, 0
2, 24960, Key_signature, -2, "major"
2, 24960, Note_on_c, 1, 70, 94
2, 25919, Note_on_c, 1, 70, 0
2, 25920, Note_on_c, 1, 70, 92
2, 26399, Note_on_c, 1, 70, 0
2, 26400, Note_on_c, 1, 70, 90
2, 26879, Note_on_c, 1, 70, 0
2, 26880, Note_on_c, 1, 70, 94
2, 27839, Note_on_c, 1, 70, 0
2, 27840, Note_on_c, 1, 70, 92
2, 28319, Note_on_c, 1, 70, 0
2, 28320, Note_on_c, 1, 70, 90
2, 28799, Note_on_c, 1, 70, 0
2, 28800, Note_on_c, 1, 70, 94
2, 29759, Note_on_c, 1, 70, 0
2, 29760, Note_on_c, 1, 65, 92
2, 30239, Note_on_c, 1, 65, 0
2, 30720, Note_on_c, 1, 58, 55
2, 32639, Note_on_c, 1, 58, 0
2, 32640, Note_on_c, 1, 58, 55
2, 34559, Note_on_c, 1, 58, 0
2, 34560, Note_on_c, 1, 58, 55
2, 35519, Note_on_c, 1, 58, 0
2, 35520, Note_on_c, 1, 65, 53
2, 35999, Note_on_c, 1, 65, 0
2, 36480, Note_on_c, 1, 70, 94
2, 37439, Note_on_c, 1, 70, 0
2, 37440, Note_on_c, 1, 63, 92
2, 37919, Note_on_c, 1, 63, 0
2, 37920, Note_on_c, 1, 63, 90
2, 38399, Note_on_c, 1, 63, 0
2, 38400, Note_on_c, 1, 65, 94
2, 39359, Note_on_c, 1, 65, 0
2, 39360, Note_on_c, 1, 62, 92
2, 39839, Note_on_c, 1, 62, 0
2, 39840, Note_on_c, 1, 62, 90
2, 40319, Note_on_c, 1, 62, 0
2, 40320, Note_on_c, 1, 70, 94
2, 41279, Note_on_c, 1, 70, 0
2, 41280, Note_on_c, 1, 70, 92
2, 42239, Note_on_c, 1, 70, 0
2, 42240, Note_on_c, 1, 70, 94
2, 43199, Note_on_c, 1, 70, 0
2, 43200, Note_on_c, 1, 65, 92
2, 44159, Note_on_c, 1, 65, 0
2, 44160, Note_on_c, 1, 70, 94
2, 44639, Note_on_c, 1, 70, 0
2, 45120, Note_on_c, 1, 58, 53
2, 47039, Note_on_c, 1, 58, 0
2, 47040, Note_on_c, 1, 58, 53
2, 47999, Note_on_c, 1, 58, 0
2, 48000, Note_on_c, 1, 69, 54
2, 48959, Note_on_c, 1, 69, 0
2, 48960, Note_on_c, 1, 58, 53
2, 49439, Note_on_c, 1, 58, 0
2, 49920, Note_on_c, 1, 82, 82
2, 50159, Note_on_c, 1, 82, 0
2, 50160, Note_on_c, 1, 82, 76
2, 50399, Note_on_c, 1, 82, 0
2, 50400, Note_on_c, 1, 82, 78
2, 50639, Note_on_c, 1, 82, 0
2, 50640, Note_on_c, 1, 82, 76
2, 50879, Note_on_c, 1, 82, 0
2, 50880, Note_on_c, 1, 82, 92
2, 51359, Note_on_c, 1, 82, 0
2, 51360, Note_on_c, 1, 82, 78
2, 51599, Note_on_c, 1, 82, 0
2, 51600, Note_on_c, 1, 82, 76
2, 51839, Note_on_c, 1, 82, 0
2, 51840, Note_on_c, 1, 82, 82
2, 52079, Note_on_c, 1, 82, 0
2, 52080, Note_on_c, 1, 82, 76
2, 52319, Note_on_c, 1, 82, 0
2, 52320, Note_on_c, 1, 82, 78
2, 52559, Note_on_c, 1, 82, 0
2, 52560, Note_on_c, 1, 82, 76
2, 52799, Note_on_c, 1, 82, 0
2, 52800, Note_on_c, 1, 82, 92
2, 53279, Note_on_c, 1, 82, 0
2, 53280, Note_on_c, 1, 82, 78
2, 53519, Note_on_c, 1, 82, 0
2, 53520, Note_on_c, 1, 82, 76
2, 53759, Note_on_c, 1, 82, 0
2, 53760, Note_on_c, 1, 82, 94
2, 54239, Note_on_c, 1, 82, 0
2, 54240, Note_on_c, 1, 82, 78
2, 54479, Note_on_c, 1, 82, 0
2, 54480, Note_on_c, 1, 82, 76
2, 54719, Note_on_c, 1, 82, 0
2, 54720, Note_on_c, 1, 82, 92
2, 55199, Note_on_c, 1, 82, 0
2, 55680, Note_on_c, 1, 82, 94
2, 56159, Note_on_c, 1, 82, 0
2, 56160, Note_on_c, 1, 77, 90
2, 56639, Note_on_c, 1, 77, 0
2, 56640, Note_on_c, 1, 74, 92
2, 57119, Note_on_c, 1, 74, 0
2, 57600, Note_on_c, 1, 70, 55
2, 59519, Note_on_c, 1, 70, 0
2, 59520, Note_on_c, 1, 70, 55
2, 60479, Note_on_c, 1, 70, 0
2, 60480, Note_on_c, 1, 70, 53
2, 61439, Note_on_c, 1, 70, 0
2, 61440, Note_on_c, 1, 70, 55
2, 63359, Note_on_c, 1, 70, 0
2, 63360, Note_on_c, 1, 70, 55
2, 63839, Note_on_c, 1, 70, 0
2, 63840, Note_on_c, 1, 65, 51
2, 64319, Note_on_c, 1, 65, 0
2, 64320, Note_on_c, 1, 62, 53
2, 64799, Note_on_c, 1, 62, 0
2, 66480, Note_on_c, 1, 74, 37
2, 66719, Note_on_c, 1, 74, 0
2, 66720, Note_on_c, 1, 74, 39
2, 66959, Note_on_c, 1, 74, 0
2, 66960, Note_on_c, 1, 74, 37
2, 67199, Note_on_c, 1, 74, 0
2, 67200, Note_on_c, 1, 74, 43
2, 67439, Note_on_c, 1, 74, 0
2, 67440, Note_on_c, 1, 74, 49
2, 67559, Note_on_c, 1, 74, 0
2, 67560, Note_on_c, 1, 72, 49
2, 67679, Note_on_c, 1, 72, 0
2, 67680, Note_on_c, 1, 74, 39
2, 67919, Note_on_c, 1, 74, 0
2, 67920, Note_on_c, 1, 74, 37
2, 68159, Note_on_c, 1, 74, 0
2, 68400, Note_on_c, 1, 74, 49
2, 68519, Note_on_c, 1, 74, 0
2, 68520, Note_on_c, 1, 72, 49
2, 68639, Note_on_c, 1, 72, 0
2, 68640, Note_on_c, 1, 74, 39
2, 68879, Note_on_c, 1, 74, 0
2, 68880, Note_on_c, 1, 74, 37
2, 69119, Note_on_c, 1, 74, 0
2, 69360, Note_on_c, 1, 75, 49
2, 69479, Note_on_c, 1, 75, 0
2, 69480, Note_on_c, 1, 74, 49
2, 69599, Note_on_c, 1, 74, 0
2, 69600, Note_on_c, 1, 75, 39
2, 69839, Note_on_c, 1, 75, 0
2, 69840, Note_on_c, 1, 75, 37
2, 70079, Note_on_c, 1, 75, 0
2, 70320, Note_on_c, 1, 75, 49
2, 70439, Note_on_c, 1, 75, 0
2, 70440, Note_on_c, 1, 74, 49
2, 70559, Note_on_c, 1, 74, 0
2, 70560, Note_on_c, 1, 75, 39
2, 70799, Note_on_c, 1, 75, 0
2, 70800, Note_on_c, 1, 75, 37
2, 71039, Note_on_c, 1, 75, 0
2, 71280, Note_on_c, 1, 75, 49
2, 71399, Note_on_c, 1, 75, 0
2, 71400, Note_on_c, 1, 74, 49
2, 71519, Note_on_c, 1, 74, 0
2, 71520, Note_on_c, 1, 75, 39
2, 71759, Note_on_c, 1, 75, 0
2, 71760, Note_on_c, 1, 75, 37
2, 71999, Note_on_c, 1, 75, 0
2, 72240, Note_on_c, 1, 75, 49
2, 72359, Note_on_c, 1, 75, 0
2, 72360, Note_on_c, 1, 74, 49
2, 72479, Note_on_c, 1, 74, 0
2, 72480, Note_on_c, 1, 75, 39
2, 72719, Note_on_c, 1, 75, 0
2, 72720, Note_on_c, 1, 75, 37
2, 72959, Note_on_c, 1, 75, 0
2, 73200, Note_on_c, 1, 74, 49
2, 73319, Note_on_c, 1, 74, 0
2, 73320, Note_on_c, 1, 72, 49
2, 73439, Note_on_c, 1, 72, 0
2, 73440, Note_on_c, 1, 74, 39
2, 73679, Note_on_c, 1, 74, 0
2, 73680, Note_on_c, 1, 74, 37
2, 73919, Note_on_c, 1, 74, 0
2, 74160, Note_on_c, 1, 74, 49
2, 74279, Note_on_c, 1, 74, 0
2, 74280, Note_on_c, 1, 72, 49
2, 74399, Note_on_c, 1, 72, 0
2, 74400, Note_on_c, 1, 74, 39
2, 74639, Note_on_c, 1, 74, 0
2, 74640, Note_on_c, 1, 74, 37
2, 74879, Note_on_c, 1, 74, 0
2, 75120, Note_on_c, 1, 73, 49
2, 75239, Note_on_c, 1, 73, 0
2, 75240, Note_on_c, 1, 72, 49
2, 75359, Note_on_c, 1, 72, 0
2, 75360, Note_on_c, 1, 73, 39
2, 75599, Note_on_c, 1, 73, 0
2, 75600, Note_on_c, 1, 73, 37
2, 75839, Note_on_c, 1, 73, 0
2, 76080, Note_on_c, 1, 73, 49
2, 76199, Note_on_c, 1, 73, 0
2, 76200, Note_on_c, 1, 72, 49
2, 76319, Note_on_c, 1, 72, 0
2, 76320, Note_on_c, 1, 73, 39
2, 76559, Note_on_c, 1, 73, 0
2, 76560, Note_on_c, 1, 73, 37
2, 76799, Note_on_c, 1, 73, 0
2, 77040, Note_on_c, 1, 72, 49
2, 77159, Note_on_c, 1, 72, 0
2, 77160, Note_on_c, 1, 70, 49
2, 77279, Note_on_c, 1, 70, 0
2, 77280, Note_on_c, 1, 72, 39
2, 77519, Note_on_c, 1, 72, 0
2, 77520, Note_on_c, 1, 72, 37
2, 77759, Note_on_c, 1, 72, 0
2, 78000, Note_on_c, 1, 72, 49
2, 78119, Note_on_c, 1, 72, 0
2, 78120, Note_on_c, 1, 70, 49
2, 78239, Note_on_c, 1, 70, 0
2, 78240, Note_on_c, 1, 72, 39
2, 78479, Note_on_c, 1, 72, 0
2, 78480, Note_on_c, 1, 72, 37
2, 78719, Note_on_c, 1, 72, 0
2, 78720, Note_on_c, 1, 72, 61
2, 78720, Note_on_c, 1, 69, 47
2, 79679, Note_on_c, 1, 72, 0
2, 79679, Note_on_c, 1, 69, 0
2, 80640, Note_on_c, 1, 82, 82
2, 80879, Note_on_c, 1, 82, 0
2, 80880, Note_on_c, 1, 82, 76
2, 81119, Note_on_c, 1, 82, 0
2, 81120, Note_on_c, 1, 82, 78
2, 81359, Note_on_c, 1, 82, 0
2, 81360, Note_on_c, 1, 82, 76
2, 81599, Note_on_c, 1, 82, 0
2, 81600, Note_on_c, 1, 82, 92
2, 82079, Note_on_c, 1, 82, 0
2, 82080, Note_on_c, 1, 82, 78
2, 82319, Note_on_c, 1, 82, 0
2, 82320, Note_on_c, 1, 82, 76
2, 82559, Note_on_c, 1, 82, 0
2, 82560, Note_on_c, 1, 82, 82
2, 82799, Note_on_c, 1, 82, 0
2, 82800, Note_on_c, 1, 82, 76
2, 83039, Note_on_c, 1, 82, 0
2, 83040, Note_on_c, 1, 82, 78
2, 83279, Note_on_c, 1, 82, 0
2, 83280, Note_on_c, 1, 82, 76
2, 83519, Note_on_c, 1, 82, 0
2, 83520, Note_on_c, 1, 82, 92
2, 83999, Note_on_c, 1, 82, 0
2, 84000, Note_on_c, 1, 82, 78
2, 84239, Note_on_c, 1, 82, 0
2, 84240, Note_on_c, 1, 82, 76
2, 84479, Note_on_c, 1, 82, 0
2, 84480, Note_on_c, 1, 82, 94
2, 84959, Note_on_c, 1, 82, 0
2, 84960, Note_on_c, 1, 82, 78
2, 85199, Note_on_c, 1, 82, 0
2, 85200, Note_on_c, 1, 82, 76
2, 85439, Note_on_c, 1, 82, 0
2, 85440, Note_on_c, 1, 82, 92
2, 85919, Note_on_c, 1, 82, 0
2, 86400, Note_on_c, 1, 82, 94
2, 86879, Note_on_c, 1, 82, 0
2, 86880, Note_on_c, 1, 77, 90
2, 87359, Note_on_c, 1, 77, 0
2, 87360, Note_on_c, 1, 74, 92
2, 87839, Note_on_c, 1, 74, 0
2, 88320, Note_on_c, 1, 70, 55
2, 90239, Note_on_c, 1, 70, 0
2, 90240, Note_on_c, 1, 70, 55
2, 91199, Note_on_c, 1, 70, 0
2, 91200, Note_on_c, 1, 70, 53
2, 92159, Note_on_c, 1, 70, 0
2, 92160, Note_on_c, 1, 70, 55
2, 94079, Note_on_c, 1, 70, 0
2, 94080, Note_on_c, 1, 70, 55
2, 94559, Note_on_c, 1, 70, 0
2, 94560, Note_on_c, 1, 65, 51
2, 95039, Note_on_c, 1, 65, 0
2, 95040, Note_on_c, 1, 62, 53
2, 95519, Note_on_c, 1, 62, 0
2, 97200, Note_on_c, 1, 74, 37
2, 97439, Note_on_c, 1, 74, 0
2, 97440, Note_on_c, 1, 74, 39
2, 97679, Note_on_c, 1, 74, 0
2, 97680, Note_on_c, 1, 74, 37
2, 97919, Note_on_c, 1, 74, 0
2, 97920, Note_on_c, 1, 74, 43
2, 98159, Note_on_c, 1, 74, 0
2, 98160, Note_on_c, 1, 74, 49
2, 98279, Note_on_c, 1, 74, 0
2, 98280, Note_on_c, 1, 72, 49
2, 98399, Note_on_c, 1, 72, 0
2, 98400, Note_on_c, 1, 74, 39
2, 98639, Note_on_c, 1, 74, 0
2, 98640, Note_on_c, 1, 74, 37
2, 98879, Note_on_c, 1, 74, 0
2, 99120, Note_on_c, 1, 74, 49
2, 99239, Note_on_c, 1, 74, 0
2, 99240, Note_on_c, 1, 72, 49
2, 99359, Note_on_c, 1, 72, 0
2, 99360, Note_on_c, 1, 74, 39
2, 99599, Note_on_c, 1, 74, 0
2, 99600, Note_on_c, 1, 74, 37
2, 99839, Note_on_c, 1, 74, 0
2, 100080, Note_on_c, 1, 75, 49
2, 100199, Note_on_c, 1, 75, 0
2, 100200, Note_on_c, 1, 74, 49
2, 100319, Note_on_c, 1, 74, 0
2, 100320, Note_on_c, 1, 75, 39
2, 100559, Note_on_c, 1, 75, 0
2, 100560, Note_on_c, 1, 75, 37
2, 100799, Note_on_c, 1, 75, 0
2, 101040, Note_on_c, 1, 75, 49
2, 101159, Note_on_c, 1, 75, 0
2, 101160, Note_on_c, 1, 74, 49
2, 101279, Note_on_c, 1, 74, 0
2, 101280, Note_on_c, 1, 75, 39
2, 101519, Note_on_c, 1, 75, 0
2, 101520, Note_on_c, 1, 75, 37
2, 101759, Note_on_c, 1, 75, 0
2, 102000, Note_on_c, 1, 75, 49
2, 102119, Note_on_c, 1, 75, 0
2, 102120, Note_on_c, 1, 74, 49
2, 102239, Note_on_c, 1, 74, 0
2, 102240, Note_on_c, 1, 75, 39
2, 102479, Note_on_c, 1, 75, 0
2, 102480, Note_on_c, 1, 75, 37
2, 102719, Note_on_c, 1, 75, 0
2, 102960, Note_on_c, 1, 75, 49
2, 103079, Note_on_c, 1, 75, 0
2, 103080, Note_on_c, 1, 74, 49
2, 103199, Note_on_c, 1, 74, 0
2, 103200, Note_on_c, 1, 75, 39
2, 103439, Note_on_c, 1, 75, 0
2, 103440, Note_on_c, 1, 75, 37
2, 103679, Note_on_c, 1, 75, 0
2, 103920, Note_on_c, 1, 74, 49
2, 104039, Note_on_c, 1, 74, 0
2, 104040, Note_on_c, 1, 72, 49
2, 104159, Note_on_c, 1, 72, 0
2, 104160, Note_on_c, 1, 74, 39
2, 104399, Note_on_c, 1, 74, 0
2, 104400, Note_on_c, 1, 74, 37
2, 104639, Note_on_c, 1, 74, 0
2, 104880, Note_on_c, 1, 74, 49
2, 104999, Note_on_c, 1, 74, 0
2, 105000, Note_on_c, 1, 72, 49
2, 105119, Note_on_c, 1, 72, 0
2, 105120, Note_on_c, 1, 74, 39
2, 105359, Note_on_c, 1, 74, 0
2, 105360, Note_on_c, 1, 74, 37
2, 105599, Note_on_c, 1, 74, 0
2, 105840, Note_on_c, 1, 73, 49
2, 105959, Note_on_c, 1, 73, 0
2, 105960, Note_on_c, 1, 72, 49
2, 106079, Note_on_c, 1, 72, 0
2, 106080, Note_on_c, 1, 73, 39
2, 106319, Note_on_c, 1, 73, 0
2, 106320, Note_on_c, 1, 73, 37
2, 106559, Note_on_c, 1, 73, 0
2, 106800, Note_on_c, 1, 73, 49
2, 106919, Note_on_c, 1, 73, 0
2, 106920, Note_on_c, 1, 72, 49
2, 107039, Note_on_c, 1, 72, 0
2, 107040, Note_on_c, 1, 73, 39
2, 107279, Note_on_c, 1, 73, 0
2, 107280, Note_on_c, 1, 73, 37
2, 107519, Note_on_c, 1, 73, 0
2, 107760, Note_on_c, 1, 72, 49
2, 107879, Note_on_c, 1, 72, 0
2, 107880, Note_on_c, 1, 70, 49
2, 107999, Note_on_c, 1, 70, 0
2, 108000, Note_on_c, 1, 72, 39
2, 108239, Note_on_c, 1, 72, 0
2, 108240, Note_on_c, 1, 72, 37
2, 108479, Note_on_c, 1, 72, 0
2, 108720, Note_on_c, 1, 72, 49
2, 108839, Note_on_c, 1, 72, 0
2, 108840, Note_on_c, 1, 70, 49
2, 108959, Note_on_c, 1, 70, 0
2, 108960, Note_on_c, 1, 72, 39
2, 109199, Note_on_c, 1, 72, 0
2, 109200, Note_on_c, 1, 72, 37
2, 109439, Note_on_c, 1, 72, 0
2, 109440, Note_on_c, 1, 72, 61
2, 109440, Note_on_c, 1, 69, 47
2, 110399, Note_on_c, 1, 72, 0
2, 110399, Note_on_c, 1, 69, 0
2, 111360, Note_on_c, 1, 70, 94
2, 112319, Note_on_c, 1, 70, 0
2, 112320, Note_on_c, 1, 70, 92
2, 112799, Note_on_c, 1, 70, 0
2, 112800, Note_on_c, 1, 70, 90
2, 113279, Note_on_c, 1, 70, 0
2, 113280, Note_on_c, 1, 70, 94
2, 114239, Note_on_c, 1, 70, 0
2, 114240, Note_on_c, 1, 70, 92
2, 114719, Note_on_c, 1, 70, 0
2, 114720, Note_on_c, 1, 70, 90
2, 115199, Note_on_c, 1, 70, 0
2, 115200, Note_on_c, 1, 70, 94
2, 116159, Note_on_c, 1, 70, 0
2, 116160, Note_on_c, 1, 65, 92
2, 116639, Note_on_c, 1, 65, 0
2, 117120, Note_on_c, 1, 58, 55
2, 119039, Note_on_c, 1, 58, 0
2, 119040, Note_on_c, 1, 58, 55
2, 120959, Note_on_c, 1, 58, 0
2, 120960, Note_on_c, 1, 58, 55
2, 121919, Note_on_c, 1, 58, 0
2, 121920, Note_on_c, 1, 65, 53
2, 122399, Note_on_c, 1, 65, 0
2, 122880, Note_on_c, 1, 70, 94
2, 123839, Note_on_c, 1, 70, 0
2, 123840, Note_on_c, 1, 70, 92
2, 124319, Note_on_c, 1, 70, 0
2, 124320, Note_on_c, 1, 70, 90
2, 124799, Note_on_c, 1, 70, 0
2, 124800, Note_on_c, 1, 70, 94
2, 125759, Note_on_c, 1, 70, 0
2, 125760, Note_on_c, 1, 70, 92
2, 126239, Note_on_c, 1, 70, 0
2, 126240, Note_on_c, 1, 70, 90
2, 126719, Note_on_c, 1, 70, 0
2, 126720, Note_on_c, 1, 70, 94
2, 127679, Note_on_c, 1, 70, 0
2, 127680, Note_on_c, 1, 65, 92
2, 128159, Note_on_c, 1, 65, 0
2, 128640, Note_on_c, 1, 58, 55
2, 130559, Note_on_c, 1, 58, 0
2, 130560, Note_on_c, 1, 58, 55
2, 132479, Note_on_c, 1, 58, 0
2, 132480, Note_on_c, 1, 58, 55
2, 133439, Note_on_c, 1, 58, 0
2, 133440, Note_on_c, 1, 65, 53
2, 133919, Note_on_c, 1, 65, 0
2, 134400, Note_on_c, 1, 70, 94
2, 135359, Note_on_c, 1, 70, 0
2, 135360, Note_on_c, 1, 63, 92
2, 135839, Note_on_c, 1, 63, 0
2, 135840, Note_on_c, 1, 63, 90
2, 136319, Note_on_c, 1, 63, 0
2, 136320, Note_on_c, 1, 65, 94
2, 137279, Note_on_c, 1, 65, 0
2, 137280, Note_on_c, 1, 62, 92
2, 137759, Note_on_c, 1, 62, 0
2, 137760, Note_on_c, 1, 62, 90
2, 138239, Note_on_c, 1, 62, 0
2, 138240, Note_on_c, 1, 70, 94
2, 139199, Note_on_c, 1, 70, 0
2, 139200, Note_on_c, 1, 70, 92
2, 140159, Note_on_c, 1, 70, 0
2, 140160, Note_on_c, 1, 70, 94
2, 141119, Note_on_c, 1, 70, 0
2, 141120, Note_on_c, 1, 65, 92
2, 142079, Note_on_c, 1, 65, 0
2, 142080, Note_on_c, 1, 70, 94
2, 142559, Note_on_c, 1, 70, 0
2, 143040, Note_on_c, 1, 70, 53
2, 144959, Note_on_c, 1, 70, 0
2, 144960, Note_on_c, 1, 70, 53
2, 145919, Note_on_c, 1, 70, 0
2, 145920, Note_on_c, 1, 65, 54
2, 146879, Note_on_c, 1, 65, 0
2, 146880, Note_on_c, 1, 70, 80
2, 146880, Note_on_c, 1, 62, 80
2, 147359, Note_on_c, 1, 70, 0
2, 147359, Note_on_c, 1, 62, 0
2, 147360, End_track
0, 0, End_of_file
