0, 0, Header, 1, 5, 480
1, 0, Start_track
1, 0, Time_signature, 3, 3, 24, 8
1, 0, Key_signature, -2, "major"
1, 0, Tempo, 1200000
1, 0, Control_c, 0, 121, 0
1, 0, Program_c, 0, 40
1, 0, Control_c, 0, 7, 100
1, 0, Control_c, 0, 10, 64
1, 0, Control_c, 0, 91, 0
1, 0, Control_c, 0, 93, 0
1, 0, MIDI_port, 0
1, 0, Control_c, 1, 121, 0
1, 0, Program_c, 1, 45
1, 0, Control_c, 1, 7, 100
1, 0, Control_c, 1, 10, 64
1, 0, Control_c, 1, 91, 0
1, 0, Control_c, 1, 93, 0
1, 0, MIDI_port, 0
1, 0, Control_c, 2, 121, 0
1, 0, Program_c, 2, 44
1, 0, Control_c, 2, 7, 100
1, 0, Control_c, 2, 10, 64
1, 0, Control_c, 2, 91, 0
1, 0, Control_c, 2, 93, 0
1, 0, MIDI_port, 0
1, 240, Note_on_c, 0, 82, 49
1, 479, Note_on_c, 0, 82, 0
1, 480, Note_on_c, 0, 81, 49
1, 719, Note_on_c, 0, 81, 0
1, 960, Note_on_c, 0, 70, 49
1, 1199, Note_on_c, 0, 70, 0
1, 1200, Note_on_c, 0, 69, 49
1, 1439, Note_on_c, 0, 69, 0
1, 1680, Note_on_c, 0, 72, 49
1, 1799, Note_on_c, 0, 72, 0
1, 1800, Note_on_c, 0, 74, 49
1, 1919, Note_on_c, 0, 74, 0
1, 1920, Note_on_c, 0, 75, 49
1, 2159, Note_on_c, 0, 75, 0
1, 2400, Note_on_c, 0, 69, 49
1, 2519, Note_on_c, 0, 69, 0
1, 2520, Note_on_c, 0, 70, 49
1, 2639, Note_on_c, 0, 70, 0
1, 2640, Note_on_c, 0, 72, 49
1, 2879, Note_on_c, 0, 72, 0
1, 2880, Note_on_c, 0, 82, 49
1, 3359, Note_on_c, 0, 82, 0
1, 3600, Note_on_c, 0, 72, 49
1, 3839, Note_on_c, 0, 72, 0
1, 3840, Note_on_c, 0, 70, 49
1, 4079, Note_on_c, 0, 70, 0
1, 4080, Note_on_c, 0, 69, 49
1, 4319, Note_on_c, 0, 69, 0
1, 4320, Note_on_c, 0, 84, 49
1, 4799, Note_on_c, 0, 84, 0
1, 5040, Note_on_c, 0, 74, 49
1, 5279, Note_on_c, 0, 74, 0
1, 5280, Note_on_c, 0, 72, 49
1, 5519, Note_on_c, 0, 72, 0
1, 5520, Note_on_c, 0, 70, 49
1, 5759, Note_on_c, 0, 70, 0
1, 5760, Note_on_c, 0, 86, 49
1, 6239, Note_on_c, 0, 86, 0
1, 6480, Note_on_c, 0, 75, 49
1, 6719, Note_on_c, 0, 75, 0
1, 6720, Note_on_c, 0, 74, 49
1, 6959, Note_on_c, 0, 74, 0
1, 6960, Note_on_c, 0, 72, 49
1, 7199, Note_on_c, 0, 72, 0
1, 7200, Note_on_c, 0, 66, 49
1, 7919, Note_on_c, 0, 66, 0
1, 7920, Note_on_c, 0, 82, 49
1, 8159, Note_on_c, 0, 82, 0
1, 8160, Note_on_c, 0, 81, 49
1, 8399, Note_on_c, 0, 81, 0
1, 8400, Note_on_c, 0, 79, 49
1, 8639, Note_on_c, 0, 79, 0
1, 8640, Note_on_c, 0, 78, 49
1, 8879, Note_on_c, 0, 78, 0
1, 8880, Note_on_c, 0, 75, 49
1, 9119, Note_on_c, 0, 75, 0
1, 9120, Note_on_c, 0, 74, 49
1, 9359, Note_on_c, 0, 74, 0
1, 9360, Note_on_c, 0, 72, 49
1, 10799, Note_on_c, 0, 72, 0
1, 10800, Note_on_c, 0, 84, 49
1, 11039, Note_on_c, 0, 84, 0
1, 11040, Note_on_c, 0, 82, 49
1, 11279, Note_on_c, 0, 82, 0
1, 11280, Note_on_c, 0, 81, 49
1, 11519, Note_on_c, 0, 81, 0
1, 11520, Note_on_c, 0, 79, 49
1, 11759, Note_on_c, 0, 79, 0
1, 11760, Note_on_c, 0, 78, 49
1, 11999, Note_on_c, 0, 78, 0
1, 12000, Note_on_c, 0, 75, 49
1, 12239, Note_on_c, 0, 75, 0
1, 12240, Note_on_c, 0, 74, 49
1, 14159, Note_on_c, 0, 74, 0
1, 14640, Note_on_c, 0, 82, 49
1, 14759, Note_on_c, 0, 82, 0
1, 14760, Note_on_c, 0, 84, 49
1, 14879, Note_on_c, 0, 84, 0
1, 14880, Note_on_c, 0, 86, 49
1, 15119, Note_on_c, 0, 86, 0
1, 15360, Note_on_c, 0, 80, 49
1, 15479, Note_on_c, 0, 80, 0
1, 15480, Note_on_c, 0, 82, 49
1, 15599, Note_on_c, 0, 82, 0
1, 15600, Note_on_c, 0, 84, 49
1, 15839, Note_on_c, 0, 84, 0
1, 16080, Note_on_c, 0, 79, 49
1, 16199, Note_on_c, 0, 79, 0
1, 16200, Note_on_c, 0, 81, 49
1, 16319, Note_on_c, 0, 81, 0
1, 16320, Note_on_c, 0, 82, 49
1, 16559, Note_on_c, 0, 82, 0
1, 16800, Note_on_c, 0, 78, 49
1, 16919, Note_on_c, 0, 78, 0
1, 16920, Note_on_c, 0, 79, 49
1, 17039, Note_on_c, 0, 79, 0
1, 17040, Note_on_c, 0, 81, 49
1, 17279, Note_on_c, 0, 81, 0
1, 17520, Note_on_c, 0, 79, 49
1, 17999, Note_on_c, 0, 79, 0
1, 18240, Note_on_c, 0, 70, 49
1, 18359, Note_on_c, 0, 70, 0
1, 18360, Note_on_c, 0, 72, 49
1, 18479, Note_on_c, 0, 72, 0
1, 18480, Note_on_c, 0, 74, 49
1, 18719, Note_on_c, 0, 74, 0
1, 18960, Note_on_c, 0, 68, 49
1, 19079, Note_on_c, 0, 68, 0
1, 19080, Note_on_c, 0, 70, 49
1, 19199, Note_on_c, 0, 70, 0
1, 19200, Note_on_c, 0, 72, 49
1, 19439, Note_on_c, 0, 72, 0
1, 19680, Note_on_c, 0, 67, 49
1, 19799, Note_on_c, 0, 67, 0
1, 19800, Note_on_c, 0, 69, 49
1, 19919, Note_on_c, 0, 69, 0
1, 19920, Note_on_c, 0, 70, 49
1, 20159, Note_on_c, 0, 70, 0
1, 20400, Note_on_c, 0, 66, 49
1, 20519, Note_on_c, 0, 66, 0
1, 20520, Note_on_c, 0, 67, 49
1, 20639, Note_on_c, 0, 67, 0
1, 20640, Note_on_c, 0, 69, 49
1, 20879, Note_on_c, 0, 69, 0
1, 21120, Tempo, 2000000
1, 21120, Note_on_c, 0, 67, 49
1, 21599, Note_on_c, 0, 67, 0
1, 21600, Time_signature, 4, 2, 24, 8
1, 21600, Tempo, 413793
1, 21600, Note_on_c, 0, 67, 96
1, 21719, Note_on_c, 0, 67, 0
1, 21720, Note_on_c, 0, 79, 96
1, 21839, Note_on_c, 0, 79, 0
1, 21840, Note_on_c, 0, 79, 96
1, 21959, Note_on_c, 0, 79, 0
1, 21960, Note_on_c, 0, 79, 96
1, 22079, Note_on_c, 0, 79, 0
1, 22080, Note_on_c, 0, 79, 96
1, 22199, Note_on_c, 0, 79, 0
1, 22200, Note_on_c, 0, 79, 96
1, 22319, Note_on_c, 0, 79, 0
1, 22320, Note_on_c, 0, 70, 96
1, 22439, Note_on_c, 0, 70, 0
1, 22440, Note_on_c, 0, 79, 96
1, 22559, Note_on_c, 0, 79, 0
1, 22560, Note_on_c, 0, 67, 96
1, 22679, Note_on_c, 0, 67, 0
1, 22680, Note_on_c, 0, 79, 96
1, 22799, Note_on_c, 0, 79, 0
1, 22800, Note_on_c, 0, 79, 96
1, 22919, Note_on_c, 0, 79, 0
1, 22920, Note_on_c, 0, 79, 96
1, 23039, Note_on_c, 0, 79, 0
1, 23040, Note_on_c, 0, 79, 96
1, 23159, Note_on_c, 0, 79, 0
1, 23160, Note_on_c, 0, 79, 96
1, 23279, Note_on_c, 0, 79, 0
1, 23280, Note_on_c, 0, 70, 96
1, 23399, Note_on_c, 0, 70, 0
1, 23400, Note_on_c, 0, 79, 96
1, 23519, Note_on_c, 0, 79, 0
1, 23520, Note_on_c, 0, 67, 96
1, 23639, Note_on_c, 0, 67, 0
1, 23640, Note_on_c, 0, 79, 96
1, 23759, Note_on_c, 0, 79, 0
1, 23760, Note_on_c, 0, 79, 96
1, 23879, Note_on_c, 0, 79, 0
1, 23880, Note_on_c, 0, 79, 96
1, 23999, Note_on_c, 0, 79, 0
1, 24000, Note_on_c, 0, 79, 96
1, 24119, Note_on_c, 0, 79, 0
1, 24120, Note_on_c, 0, 79, 96
1, 24239, Note_on_c, 0, 79, 0
1, 24240, Note_on_c, 0, 70, 96
1, 24359, Note_on_c, 0, 70, 0
1, 24360, Note_on_c, 0, 79, 96
1, 24479, Note_on_c, 0, 79, 0
1, 24480, Note_on_c, 0, 67, 96
1, 24599, Note_on_c, 0, 67, 0
1, 24600, Note_on_c, 0, 79, 96
1, 24719, Note_on_c, 0, 79, 0
1, 24720, Note_on_c, 0, 79, 96
1, 24839, Note_on_c, 0, 79, 0
1, 24840, Note_on_c, 0, 79, 96
1, 24959, Note_on_c, 0, 79, 0
1, 24960, Note_on_c, 0, 79, 96
1, 25079, Note_on_c, 0, 79, 0
1, 25080, Note_on_c, 0, 79, 96
1, 25199, Note_on_c, 0, 79, 0
1, 25200, Note_on_c, 0, 70, 96
1, 25319, Note_on_c, 0, 70, 0
1, 25320, Note_on_c, 0, 79, 96
1, 25439, Note_on_c, 0, 79, 0
1, 25440, Note_on_c, 0, 67, 96
1, 25559, Note_on_c, 0, 67, 0
1, 25560, Note_on_c, 0, 79, 96
1, 25679, Note_on_c, 0, 79, 0
1, 25680, Note_on_c, 0, 79, 96
1, 25799, Note_on_c, 0, 79, 0
1, 25800, Note_on_c, 0, 79, 96
1, 25919, Note_on_c, 0, 79, 0
1, 25920, Note_on_c, 0, 79, 96
1, 26039, Note_on_c, 0, 79, 0
1, 26040, Note_on_c, 0, 79, 96
1, 26159, Note_on_c, 0, 79, 0
1, 26160, Note_on_c, 0, 70, 96
1, 26279, Note_on_c, 0, 70, 0
1, 26280, Note_on_c, 0, 79, 96
1, 26399, Note_on_c, 0, 79, 0
1, 26400, Note_on_c, 0, 67, 96
1, 26519, Note_on_c, 0, 67, 0
1, 26520, Note_on_c, 0, 70, 96
1, 26639, Note_on_c, 0, 70, 0
1, 26640, Note_on_c, 0, 69, 96
1, 26759, Note_on_c, 0, 69, 0
1, 26760, Note_on_c, 0, 70, 96
1, 26879, Note_on_c, 0, 70, 0
1, 26880, Note_on_c, 0, 67, 96
1, 26999, Note_on_c, 0, 67, 0
1, 27000, Note_on_c, 0, 70, 96
1, 27119, Note_on_c, 0, 70, 0
1, 27120, Note_on_c, 0, 69, 96
1, 27239, Note_on_c, 0, 69, 0
1, 27240, Note_on_c, 0, 67, 96
1, 27359, Note_on_c, 0, 67, 0
1, 27360, Note_on_c, 0, 69, 96
1, 27479, Note_on_c, 0, 69, 0
1, 27480, Note_on_c, 0, 81, 96
1, 27599, Note_on_c, 0, 81, 0
1, 27600, Note_on_c, 0, 81, 96
1, 27719, Note_on_c, 0, 81, 0
1, 27720, Note_on_c, 0, 81, 96
1, 27839, Note_on_c, 0, 81, 0
1, 27840, Note_on_c, 0, 81, 96
1, 27959, Note_on_c, 0, 81, 0
1, 27960, Note_on_c, 0, 81, 96
1, 28079, Note_on_c, 0, 81, 0
1, 28080, Note_on_c, 0, 72, 96
1, 28199, Note_on_c, 0, 72, 0
1, 28200, Note_on_c, 0, 81, 96
1, 28319, Note_on_c, 0, 81, 0
1, 28320, Note_on_c, 0, 69, 96
1, 28439, Note_on_c, 0, 69, 0
1, 28440, Note_on_c, 0, 81, 96
1, 28559, Note_on_c, 0, 81, 0
1, 28560, Note_on_c, 0, 81, 96
1, 28679, Note_on_c, 0, 81, 0
1, 28680, Note_on_c, 0, 81, 96
1, 28799, Note_on_c, 0, 81, 0
1, 28800, Note_on_c, 0, 81, 96
1, 28919, Note_on_c, 0, 81, 0
1, 28920, Note_on_c, 0, 81, 96
1, 29039, Note_on_c, 0, 81, 0
1, 29040, Note_on_c, 0, 72, 96
1, 29159, Note_on_c, 0, 72, 0
1, 29160, Note_on_c, 0, 81, 96
1, 29279, Note_on_c, 0, 81, 0
1, 29280, Note_on_c, 0, 69, 96
1, 29399, Note_on_c, 0, 69, 0
1, 29400, Note_on_c, 0, 81, 96
1, 29519, Note_on_c, 0, 81, 0
1, 29520, Note_on_c, 0, 81, 96
1, 29639, Note_on_c, 0, 81, 0
1, 29640, Note_on_c, 0, 81, 96
1, 29759, Note_on_c, 0, 81, 0
1, 29760, Note_on_c, 0, 81, 96
1, 29879, Note_on_c, 0, 81, 0
1, 29880, Note_on_c, 0, 81, 96
1, 29999, Note_on_c, 0, 81, 0
1, 30000, Note_on_c, 0, 72, 96
1, 30119, Note_on_c, 0, 72, 0
1, 30120, Note_on_c, 0, 81, 96
1, 30239, Note_on_c, 0, 81, 0
1, 30240, Note_on_c, 0, 69, 96
1, 30359, Note_on_c, 0, 69, 0
1, 30360, Note_on_c, 0, 72, 96
1, 30479, Note_on_c, 0, 72, 0
1, 30480, Note_on_c, 0, 70, 96
1, 30599, Note_on_c, 0, 70, 0
1, 30600, Note_on_c, 0, 72, 96
1, 30719, Note_on_c, 0, 72, 0
1, 30720, Note_on_c, 0, 69, 96
1, 30839, Note_on_c, 0, 69, 0
1, 30840, Note_on_c, 0, 72, 96
1, 30959, Note_on_c, 0, 72, 0
1, 30960, Note_on_c, 0, 70, 96
1, 31079, Note_on_c, 0, 70, 0
1, 31080, Note_on_c, 0, 69, 96
1, 31199, Note_on_c, 0, 69, 0
1, 31200, Note_on_c, 0, 70, 96
1, 31319, Note_on_c, 0, 70, 0
1, 31320, Note_on_c, 0, 82, 96
1, 31439, Note_on_c, 0, 82, 0
1, 31440, Note_on_c, 0, 82, 96
1, 31559, Note_on_c, 0, 82, 0
1, 31560, Note_on_c, 0, 82, 96
1, 31679, Note_on_c, 0, 82, 0
1, 31680, Note_on_c, 0, 82, 96
1, 31799, Note_on_c, 0, 82, 0
1, 31800, Note_on_c, 0, 82, 96
1, 31919, Note_on_c, 0, 82, 0
1, 31920, Note_on_c, 0, 74, 96
1, 32039, Note_on_c, 0, 74, 0
1, 32040, Note_on_c, 0, 82, 96
1, 32159, Note_on_c, 0, 82, 0
1, 32160, Note_on_c, 0, 70, 96
1, 32279, Note_on_c, 0, 70, 0
1, 32280, Note_on_c, 0, 82, 96
1, 32399, Note_on_c, 0, 82, 0
1, 32400, Note_on_c, 0, 82, 96
1, 32519, Note_on_c, 0, 82, 0
1, 32520, Note_on_c, 0, 82, 96
1, 32639, Note_on_c, 0, 82, 0
1, 32640, Note_on_c, 0, 82, 96
1, 32759, Note_on_c, 0, 82, 0
1, 32760, Note_on_c, 0, 82, 96
1, 32879, Note_on_c, 0, 82, 0
1, 32880, Note_on_c, 0, 74, 96
1, 32999, Note_on_c, 0, 74, 0
1, 33000, Note_on_c, 0, 82, 96
1, 33119, Note_on_c, 0, 82, 0
1, 33120, Note_on_c, 0, 70, 96
1, 33239, Note_on_c, 0, 70, 0
1, 33240, Note_on_c, 0, 74, 96
1, 33359, Note_on_c, 0, 74, 0
1, 33360, Note_on_c, 0, 72, 96
1, 33479, Note_on_c, 0, 72, 0
1, 33480, Note_on_c, 0, 74, 96
1, 33599, Note_on_c, 0, 74, 0
1, 33600, Note_on_c, 0, 70, 96
1, 33719, Note_on_c, 0, 70, 0
1, 33720, Note_on_c, 0, 74, 96
1, 33839, Note_on_c, 0, 74, 0
1, 33840, Note_on_c, 0, 72, 96
1, 33959, Note_on_c, 0, 72, 0
1, 33960, Note_on_c, 0, 70, 96
1, 34079, Note_on_c, 0, 70, 0
1, 34080, Note_on_c, 0, 72, 96
1, 34199, Note_on_c, 0, 72, 0
1, 34200, Note_on_c, 0, 84, 96
1, 34319, Note_on_c, 0, 84, 0
1, 34320, Note_on_c, 0, 84, 96
1, 34439, Note_on_c, 0, 84, 0
1, 34440, Note_on_c, 0, 84, 96
1, 34559, Note_on_c, 0, 84, 0
1, 34560, Note_on_c, 0, 84, 96
1, 34679, Note_on_c, 0, 84, 0
1, 34680, Note_on_c, 0, 84, 96
1, 34799, Note_on_c, 0, 84, 0
1, 34800, Note_on_c, 0, 75, 96
1, 34919, Note_on_c, 0, 75, 0
1, 34920, Note_on_c, 0, 84, 96
1, 35039, Note_on_c, 0, 84, 0
1, 35040, Note_on_c, 0, 72, 96
1, 35159, Note_on_c, 0, 72, 0
1, 35160, Note_on_c, 0, 84, 96
1, 35279, Note_on_c, 0, 84, 0
1, 35280, Note_on_c, 0, 84, 96
1, 35399, Note_on_c, 0, 84, 0
1, 35400, Note_on_c, 0, 84, 96
1, 35519, Note_on_c, 0, 84, 0
1, 35520, Note_on_c, 0, 84, 96
1, 35639, Note_on_c, 0, 84, 0
1, 35640, Note_on_c, 0, 84, 96
1, 35759, Note_on_c, 0, 84, 0
1, 35760, Note_on_c, 0, 75, 96
1, 35879, Note_on_c, 0, 75, 0
1, 35880, Note_on_c, 0, 84, 96
1, 35999, Note_on_c, 0, 84, 0
1, 36000, Note_on_c, 0, 72, 96
1, 36119, Note_on_c, 0, 72, 0
1, 36120, Note_on_c, 0, 75, 96
1, 36239, Note_on_c, 0, 75, 0
1, 36240, Note_on_c, 0, 74, 96
1, 36359, Note_on_c, 0, 74, 0
1, 36360, Note_on_c, 0, 75, 96
1, 36479, Note_on_c, 0, 75, 0
1, 36480, Note_on_c, 0, 72, 96
1, 36599, Note_on_c, 0, 72, 0
1, 36600, Note_on_c, 0, 75, 96
1, 36719, Note_on_c, 0, 75, 0
1, 36720, Note_on_c, 0, 74, 96
1, 36839, Note_on_c, 0, 74, 0
1, 36840, Note_on_c, 0, 72, 96
1, 36959, Note_on_c, 0, 72, 0
1, 36960, Note_on_c, 0, 74, 96
1, 37079, Note_on_c, 0, 74, 0
1, 37080, Note_on_c, 0, 86, 96
1, 37199, Note_on_c, 0, 86, 0
1, 37200, Note_on_c, 0, 86, 96
1, 37319, Note_on_c, 0, 86, 0
1, 37320, Note_on_c, 0, 86, 96
1, 37439, Note_on_c, 0, 86, 0
1, 37440, Note_on_c, 0, 86, 96
1, 37559, Note_on_c, 0, 86, 0
1, 37560, Note_on_c, 0, 86, 96
1, 37679, Note_on_c, 0, 86, 0
1, 37680, Note_on_c, 0, 78, 96
1, 37799, Note_on_c, 0, 78, 0
1, 37800, Note_on_c, 0, 86, 96
1, 37919, Note_on_c, 0, 86, 0
1, 37920, Note_on_c, 0, 74, 96
1, 38039, Note_on_c, 0, 74, 0
1, 38040, Note_on_c, 0, 86, 96
1, 38159, Note_on_c, 0, 86, 0
1, 38160, Note_on_c, 0, 86, 96
1, 38279, Note_on_c, 0, 86, 0
1, 38280, Note_on_c, 0, 86, 96
1, 38399, Note_on_c, 0, 86, 0
1, 38400, Note_on_c, 0, 86, 96
1, 38519, Note_on_c, 0, 86, 0
1, 38520, Note_on_c, 0, 86, 96
1, 38639, Note_on_c, 0, 86, 0
1, 38640, Note_on_c, 0, 78, 96
1, 38759, Note_on_c, 0, 78, 0
1, 38760, Note_on_c, 0, 86, 96
1, 38879, Note_on_c, 0, 86, 0
1, 38880, Note_on_c, 0, 74, 96
1, 38999, Note_on_c, 0, 74, 0
1, 39000, Note_on_c, 0, 82, 96
1, 39119, Note_on_c, 0, 82, 0
1, 39120, Note_on_c, 0, 82, 96
1, 39239, Note_on_c, 0, 82, 0
1, 39240, Note_on_c, 0, 82, 96
1, 39359, Note_on_c, 0, 82, 0
1, 39360, Note_on_c, 0, 82, 96
1, 39479, Note_on_c, 0, 82, 0
1, 39480, Note_on_c, 0, 82, 96
1, 39599, Note_on_c, 0, 82, 0
1, 39600, Note_on_c, 0, 79, 96
1, 39719, Note_on_c, 0, 79, 0
1, 39720, Note_on_c, 0, 82, 96
1, 39839, Note_on_c, 0, 82, 0
1, 39840, Note_on_c, 0, 74, 96
1, 39959, Note_on_c, 0, 74, 0
1, 39960, Note_on_c, 0, 82, 96
1, 40079, Note_on_c, 0, 82, 0
1, 40080, Note_on_c, 0, 82, 96
1, 40199, Note_on_c, 0, 82, 0
1, 40200, Note_on_c, 0, 82, 96
1, 40319, Note_on_c, 0, 82, 0
1, 40320, Note_on_c, 0, 82, 96
1, 40439, Note_on_c, 0, 82, 0
1, 40440, Note_on_c, 0, 82, 96
1, 40559, Note_on_c, 0, 82, 0
1, 40560, Note_on_c, 0, 79, 96
1, 40679, Note_on_c, 0, 79, 0
1, 40680, Note_on_c, 0, 82, 96
1, 40799, Note_on_c, 0, 82, 0
1, 40800, Note_on_c, 0, 75, 96
1, 40919, Note_on_c, 0, 75, 0
1, 40920, Note_on_c, 0, 82, 96
1, 41039, Note_on_c, 0, 82, 0
1, 41040, Note_on_c, 0, 82, 96
1, 41159, Note_on_c, 0, 82, 0
1, 41160, Note_on_c, 0, 82, 96
1, 41279, Note_on_c, 0, 82, 0
1, 41280, Note_on_c, 0, 82, 96
1, 41399, Note_on_c, 0, 82, 0
1, 41400, Note_on_c, 0, 82, 96
1, 41519, Note_on_c, 0, 82, 0
1, 41520, Note_on_c, 0, 79, 96
1, 41639, Note_on_c, 0, 79, 0
1, 41640, Note_on_c, 0, 82, 96
1, 41759, Note_on_c, 0, 82, 0
1, 41760, Note_on_c, 0, 75, 96
1, 41879, Note_on_c, 0, 75, 0
1, 41880, Note_on_c, 0, 82, 96
1, 41999, Note_on_c, 0, 82, 0
1, 42000, Note_on_c, 0, 82, 96
1, 42119, Note_on_c, 0, 82, 0
1, 42120, Note_on_c, 0, 82, 96
1, 42239, Note_on_c, 0, 82, 0
1, 42240, Note_on_c, 0, 82, 96
1, 42359, Note_on_c, 0, 82, 0
1, 42360, Note_on_c, 0, 82, 96
1, 42479, Note_on_c, 0, 82, 0
1, 42480, Note_on_c, 0, 79, 96
1, 42599, Note_on_c, 0, 79, 0
1, 42600, Note_on_c, 0, 82, 96
1, 42719, Note_on_c, 0, 82, 0
1, 42720, Note_on_c, 0, 76, 96
1, 42839, Note_on_c, 0, 76, 0
1, 42840, Note_on_c, 0, 84, 96
1, 42959, Note_on_c, 0, 84, 0
1, 42960, Note_on_c, 0, 84, 96
1, 43079, Note_on_c, 0, 84, 0
1, 43080, Note_on_c, 0, 84, 96
1, 43199, Note_on_c, 0, 84, 0
1, 43200, Note_on_c, 0, 84, 96
1, 43319, Note_on_c, 0, 84, 0
1, 43320, Note_on_c, 0, 84, 96
1, 43439, Note_on_c, 0, 84, 0
1, 43440, Note_on_c, 0, 79, 96
1, 43559, Note_on_c, 0, 79, 0
1, 43560, Note_on_c, 0, 84, 96
1, 43679, Note_on_c, 0, 84, 0
1, 43680, Note_on_c, 0, 76, 96
1, 43799, Note_on_c, 0, 76, 0
1, 43800, Note_on_c, 0, 84, 96
1, 43919, Note_on_c, 0, 84, 0
1, 43920, Note_on_c, 0, 84, 96
1, 44039, Note_on_c, 0, 84, 0
1, 44040, Note_on_c, 0, 84, 96
1, 44159, Note_on_c, 0, 84, 0
1, 44160, Note_on_c, 0, 84, 96
1, 44279, Note_on_c, 0, 84, 0
1, 44280, Note_on_c, 0, 84, 96
1, 44399, Note_on_c, 0, 84, 0
1, 44400, Note_on_c, 0, 79, 96
1, 44519, Note_on_c, 0, 79, 0
1, 44520, Note_on_c, 0, 84, 96
1, 44639, Note_on_c, 0, 84, 0
1, 44640, Note_on_c, 0, 77, 96
1, 44759, Note_on_c, 0, 77, 0
1, 44760, Note_on_c, 0, 84, 96
1, 44879, Note_on_c, 0, 84, 0
1, 44880, Note_on_c, 0, 84, 96
1, 44999, Note_on_c, 0, 84, 0
1, 45000, Note_on_c, 0, 84, 96
1, 45119, Note_on_c, 0, 84, 0
1, 45120, Note_on_c, 0, 84, 96
1, 45239, Note_on_c, 0, 84, 0
1, 45240, Note_on_c, 0, 84, 96
1, 45359, Note_on_c, 0, 84, 0
1, 45360, Note_on_c, 0, 81, 96
1, 45479, Note_on_c, 0, 81, 0
1, 45480, Note_on_c, 0, 84, 96
1, 45599, Note_on_c, 0, 84, 0
1, 45600, Note_on_c, 0, 77, 96
1, 45719, Note_on_c, 0, 77, 0
1, 45720, Note_on_c, 0, 84, 96
1, 45839, Note_on_c, 0, 84, 0
1, 45840, Note_on_c, 0, 84, 96
1, 45959, Note_on_c, 0, 84, 0
1, 45960, Note_on_c, 0, 84, 96
1, 46079, Note_on_c, 0, 84, 0
1, 46080, Note_on_c, 0, 84, 96
1, 46199, Note_on_c, 0, 84, 0
1, 46200, Note_on_c, 0, 84, 96
1, 46319, Note_on_c, 0, 84, 0
1, 46320, Note_on_c, 0, 81, 96
1, 46439, Note_on_c, 0, 81, 0
1, 46440, Note_on_c, 0, 84, 96
1, 46559, Note_on_c, 0, 84, 0
1, 46560, Note_on_c, 0, 77, 96
1, 46679, Note_on_c, 0, 77, 0
1, 46680, Note_on_c, 0, 86, 96
1, 46799, Note_on_c, 0, 86, 0
1, 46800, Note_on_c, 0, 86, 96
1, 46919, Note_on_c, 0, 86, 0
1, 46920, Note_on_c, 0, 86, 96
1, 47039, Note_on_c, 0, 86, 0
1, 47040, Note_on_c, 0, 86, 96
1, 47159, Note_on_c, 0, 86, 0
1, 47160, Note_on_c, 0, 86, 96
1, 47279, Note_on_c, 0, 86, 0
1, 47280, Note_on_c, 0, 81, 96
1, 47399, Note_on_c, 0, 81, 0
1, 47400, Note_on_c, 0, 86, 96
1, 47519, Note_on_c, 0, 86, 0
1, 47520, Note_on_c, 0, 78, 96
1, 47639, Note_on_c, 0, 78, 0
1, 47640, Note_on_c, 0, 86, 96
1, 47759, Note_on_c, 0, 86, 0
1, 47760, Note_on_c, 0, 86, 96
1, 47879, Note_on_c, 0, 86, 0
1, 47880, Note_on_c, 0, 86, 96
1, 47999, Note_on_c, 0, 86, 0
1, 48000, Note_on_c, 0, 86, 96
1, 48119, Note_on_c, 0, 86, 0
1, 48120, Note_on_c, 0, 86, 96
1, 48239, Note_on_c, 0, 86, 0
1, 48240, Note_on_c, 0, 81, 96
1, 48359, Note_on_c, 0, 81, 0
1, 48360, Note_on_c, 0, 86, 96
1, 48479, Note_on_c, 0, 86, 0
1, 48480, Note_on_c, 0, 82, 96
1, 48599, Note_on_c, 0, 82, 0
1, 48600, Note_on_c, 0, 79, 96
1, 48719, Note_on_c, 0, 79, 0
1, 48720, Note_on_c, 0, 79, 96
1, 48839, Note_on_c, 0, 79, 0
1, 48840, Note_on_c, 0, 79, 96
1, 48959, Note_on_c, 0, 79, 0
1, 48960, Note_on_c, 0, 79, 96
1, 49079, Note_on_c, 0, 79, 0
1, 49080, Note_on_c, 0, 79, 96
1, 49199, Note_on_c, 0, 79, 0
1, 49200, Note_on_c, 0, 74, 96
1, 49319, Note_on_c, 0, 74, 0
1, 49320, Note_on_c, 0, 79, 96
1, 49439, Note_on_c, 0, 79, 0
1, 49440, Note_on_c, 0, 70, 96
1, 49559, Note_on_c, 0, 70, 0
1, 49560, Note_on_c, 0, 79, 96
1, 49679, Note_on_c, 0, 79, 0
1, 49680, Note_on_c, 0, 79, 96
1, 49799, Note_on_c, 0, 79, 0
1, 49800, Note_on_c, 0, 79, 96
1, 49919, Note_on_c, 0, 79, 0
1, 49920, Note_on_c, 0, 79, 96
1, 50039, Note_on_c, 0, 79, 0
1, 50040, Note_on_c, 0, 79, 96
1, 50159, Note_on_c, 0, 79, 0
1, 50160, Note_on_c, 0, 74, 96
1, 50279, Note_on_c, 0, 74, 0
1, 50280, Note_on_c, 0, 79, 96
1, 50399, Note_on_c, 0, 79, 0
1, 50400, Note_on_c, 0, 75, 96
1, 50519, Note_on_c, 0, 75, 0
1, 50520, Note_on_c, 0, 77, 96
1, 50639, Note_on_c, 0, 77, 0
1, 50640, Note_on_c, 0, 77, 96
1, 50759, Note_on_c, 0, 77, 0
1, 50760, Note_on_c, 0, 77, 96
1, 50879, Note_on_c, 0, 77, 0
1, 50880, Note_on_c, 0, 77, 96
1, 50999, Note_on_c, 0, 77, 0
1, 51000, Note_on_c, 0, 77, 96
1, 51119, Note_on_c, 0, 77, 0
1, 51120, Note_on_c, 0, 72, 96
1, 51239, Note_on_c, 0, 72, 0
1, 51240, Note_on_c, 0, 77, 96
1, 51359, Note_on_c, 0, 77, 0
1, 51360, Note_on_c, 0, 69, 96
1, 51479, Note_on_c, 0, 69, 0
1, 51480, Note_on_c, 0, 77, 96
1, 51599, Note_on_c, 0, 77, 0
1, 51600, Note_on_c, 0, 77, 96
1, 51719, Note_on_c, 0, 77, 0
1, 51720, Note_on_c, 0, 77, 96
1, 51839, Note_on_c, 0, 77, 0
1, 51840, Note_on_c, 0, 77, 96
1, 51959, Note_on_c, 0, 77, 0
1, 51960, Note_on_c, 0, 77, 96
1, 52079, Note_on_c, 0, 77, 0
1, 52080, Note_on_c, 0, 72, 96
1, 52199, Note_on_c, 0, 72, 0
1, 52200, Note_on_c, 0, 77, 96
1, 52319, Note_on_c, 0, 77, 0
1, 52320, Note_on_c, 0, 74, 96
1, 52439, Note_on_c, 0, 74, 0
1, 52440, Note_on_c, 0, 75, 96
1, 52559, Note_on_c, 0, 75, 0
1, 52560, Note_on_c, 0, 75, 96
1, 52679, Note_on_c, 0, 75, 0
1, 52680, Note_on_c, 0, 75, 96
1, 52799, Note_on_c, 0, 75, 0
1, 52800, Note_on_c, 0, 75, 96
1, 52919, Note_on_c, 0, 75, 0
1, 52920, Note_on_c, 0, 75, 96
1, 53039, Note_on_c, 0, 75, 0
1, 53040, Note_on_c, 0, 70, 96
1, 53159, Note_on_c, 0, 70, 0
1, 53160, Note_on_c, 0, 75, 96
1, 53279, Note_on_c, 0, 75, 0
1, 53280, Note_on_c, 0, 67, 96
1, 53399, Note_on_c, 0, 67, 0
1, 53400, Note_on_c, 0, 75, 96
1, 53519, Note_on_c, 0, 75, 0
1, 53520, Note_on_c, 0, 75, 96
1, 53639, Note_on_c, 0, 75, 0
1, 53640, Note_on_c, 0, 75, 96
1, 53759, Note_on_c, 0, 75, 0
1, 53760, Note_on_c, 0, 75, 96
1, 53879, Note_on_c, 0, 75, 0
1, 53880, Note_on_c, 0, 75, 96
1, 53999, Note_on_c, 0, 75, 0
1, 54000, Note_on_c, 0, 70, 96
1, 54119, Note_on_c, 0, 70, 0
1, 54120, Note_on_c, 0, 75, 96
1, 54239, Note_on_c, 0, 75, 0
1, 54240, Note_on_c, 0, 72, 96
1, 54359, Note_on_c, 0, 72, 0
1, 54360, Note_on_c, 0, 74, 96
1, 54479, Note_on_c, 0, 74, 0
1, 54480, Note_on_c, 0, 74, 96
1, 54599, Note_on_c, 0, 74, 0
1, 54600, Note_on_c, 0, 74, 96
1, 54719, Note_on_c, 0, 74, 0
1, 54720, Note_on_c, 0, 74, 96
1, 54839, Note_on_c, 0, 74, 0
1, 54840, Note_on_c, 0, 74, 96
1, 54959, Note_on_c, 0, 74, 0
1, 54960, Note_on_c, 0, 69, 96
1, 55079, Note_on_c, 0, 69, 0
1, 55080, Note_on_c, 0, 74, 96
1, 55199, Note_on_c, 0, 74, 0
1, 55200, Note_on_c, 0, 66, 96
1, 55319, Note_on_c, 0, 66, 0
1, 55320, Note_on_c, 0, 74, 96
1, 55439, Note_on_c, 0, 74, 0
1, 55440, Note_on_c, 0, 74, 96
1, 55559, Note_on_c, 0, 74, 0
1, 55560, Note_on_c, 0, 74, 96
1, 55679, Note_on_c, 0, 74, 0
1, 55680, Note_on_c, 0, 74, 96
1, 55799, Note_on_c, 0, 74, 0
1, 55800, Note_on_c, 0, 74, 96
1, 55919, Note_on_c, 0, 74, 0
1, 55920, Note_on_c, 0, 69, 96
1, 56039, Note_on_c, 0, 69, 0
1, 56040, Note_on_c, 0, 74, 96
1, 56159, Note_on_c, 0, 74, 0
1, 56160, Note_on_c, 0, 70, 96
1, 56279, Note_on_c, 0, 70, 0
1, 56280, Note_on_c, 0, 79, 96
1, 56399, Note_on_c, 0, 79, 0
1, 56400, Note_on_c, 0, 79, 96
1, 56519, Note_on_c, 0, 79, 0
1, 56520, Note_on_c, 0, 79, 96
1, 56639, Note_on_c, 0, 79, 0
1, 56640, Note_on_c, 0, 79, 96
1, 56759, Note_on_c, 0, 79, 0
1, 56760, Note_on_c, 0, 79, 96
1, 56879, Note_on_c, 0, 79, 0
1, 56880, Note_on_c, 0, 74, 96
1, 56999, Note_on_c, 0, 74, 0
1, 57000, Note_on_c, 0, 79, 96
1, 57119, Note_on_c, 0, 79, 0
1, 57120, Note_on_c, 0, 70, 96
1, 57239, Note_on_c, 0, 70, 0
1, 57240, Note_on_c, 0, 79, 96
1, 57359, Note_on_c, 0, 79, 0
1, 57360, Note_on_c, 0, 79, 96
1, 57479, Note_on_c, 0, 79, 0
1, 57480, Note_on_c, 0, 79, 96
1, 57599, Note_on_c, 0, 79, 0
1, 57600, Note_on_c, 0, 79, 96
1, 57719, Note_on_c, 0, 79, 0
1, 57720, Note_on_c, 0, 79, 96
1, 57839, Note_on_c, 0, 79, 0
1, 57840, Note_on_c, 0, 74, 96
1, 57959, Note_on_c, 0, 74, 0
1, 57960, Note_on_c, 0, 79, 96
1, 58079, Note_on_c, 0, 79, 0
1, 58080, Note_on_c, 0, 69, 96
1, 58199, Note_on_c, 0, 69, 0
1, 58200, Note_on_c, 0, 79, 96
1, 58319, Note_on_c, 0, 79, 0
1, 58320, Note_on_c, 0, 79, 96
1, 58439, Note_on_c, 0, 79, 0
1, 58440, Note_on_c, 0, 79, 96
1, 58559, Note_on_c, 0, 79, 0
1, 58560, Note_on_c, 0, 79, 96
1, 58679, Note_on_c, 0, 79, 0
1, 58680, Note_on_c, 0, 79, 96
1, 58799, Note_on_c, 0, 79, 0
1, 58800, Note_on_c, 0, 74, 96
1, 58919, Note_on_c, 0, 74, 0
1, 58920, Note_on_c, 0, 79, 96
1, 59039, Note_on_c, 0, 79, 0
1, 59040, Note_on_c, 0, 69, 96
1, 59159, Note_on_c, 0, 69, 0
1, 59160, Note_on_c, 0, 79, 96
1, 59279, Note_on_c, 0, 79, 0
1, 59280, Note_on_c, 0, 79, 96
1, 59399, Note_on_c, 0, 79, 0
1, 59400, Note_on_c, 0, 79, 96
1, 59519, Note_on_c, 0, 79, 0
1, 59520, Note_on_c, 0, 79, 96
1, 59639, Note_on_c, 0, 79, 0
1, 59640, Note_on_c, 0, 79, 96
1, 59759, Note_on_c, 0, 79, 0
1, 59760, Note_on_c, 0, 74, 96
1, 59879, Note_on_c, 0, 74, 0
1, 59880, Note_on_c, 0, 79, 96
1, 59999, Note_on_c, 0, 79, 0
1, 60000, Note_on_c, 0, 69, 96
1, 60119, Note_on_c, 0, 69, 0
1, 60120, Note_on_c, 0, 78, 96
1, 60239, Note_on_c, 0, 78, 0
1, 60240, Note_on_c, 0, 78, 96
1, 60359, Note_on_c, 0, 78, 0
1, 60360, Note_on_c, 0, 78, 96
1, 60479, Note_on_c, 0, 78, 0
1, 60480, Note_on_c, 0, 78, 96
1, 60599, Note_on_c, 0, 78, 0
1, 60600, Note_on_c, 0, 78, 96
1, 60719, Note_on_c, 0, 78, 0
1, 60720, Note_on_c, 0, 74, 96
1, 60839, Note_on_c, 0, 74, 0
1, 60840, Note_on_c, 0, 78, 96
1, 60959, Note_on_c, 0, 78, 0
1, 60960, Note_on_c, 0, 69, 96
1, 61079, Note_on_c, 0, 69, 0
1, 61080, Note_on_c, 0, 78, 96
1, 61199, Note_on_c, 0, 78, 0
1, 61200, Note_on_c, 0, 78, 96
1, 61319, Note_on_c, 0, 78, 0
1, 61320, Note_on_c, 0, 78, 96
1, 61439, Note_on_c, 0, 78, 0
1, 61440, Note_on_c, 0, 78, 96
1, 61559, Note_on_c, 0, 78, 0
1, 61560, Note_on_c, 0, 78, 96
1, 61679, Note_on_c, 0, 78, 0
1, 61680, Note_on_c, 0, 74, 96
1, 61799, Note_on_c, 0, 74, 0
1, 61800, Note_on_c, 0, 78, 96
1, 61919, Note_on_c, 0, 78, 0
1, 61920, Time_signature, 3, 3, 24, 8
1, 61920, Tempo, 1200000
1, 61920, Note_on_c, 0, 79, 96
1, 62159, Note_on_c, 0, 79, 0
1, 62160, Note_on_c, 0, 82, 49
1, 62399, Note_on_c, 0, 82, 0
1, 62400, Note_on_c, 0, 81, 49
1, 62639, Note_on_c, 0, 81, 0
1, 62880, Note_on_c, 0, 70, 49
1, 63119, Note_on_c, 0, 70, 0
1, 63120, Note_on_c, 0, 69, 49
1, 63359, Note_on_c, 0, 69, 0
1, 63600, Note_on_c, 0, 82, 49
1, 63719, Note_on_c, 0, 82, 0
1, 63720, Note_on_c, 0, 84, 49
1, 63839, Note_on_c, 0, 84, 0
1, 63840, Note_on_c, 0, 86, 49
1, 64079, Note_on_c, 0, 86, 0
1, 64320, Note_on_c, 0, 80, 49
1, 64439, Note_on_c, 0, 80, 0
1, 64440, Note_on_c, 0, 82, 49
1, 64559, Note_on_c, 0, 82, 0
1, 64560, Note_on_c, 0, 84, 49
1, 64799, Note_on_c, 0, 84, 0
1, 65040, Note_on_c, 0, 79, 49
1, 65159, Note_on_c, 0, 79, 0
1, 65160, Note_on_c, 0, 81, 49
1, 65279, Note_on_c, 0, 81, 0
1, 65280, Note_on_c, 0, 82, 49
1, 65519, Note_on_c, 0, 82, 0
1, 65760, Note_on_c, 0, 78, 49
1, 65879, Note_on_c, 0, 78, 0
1, 65880, Note_on_c, 0, 79, 49
1, 65999, Note_on_c, 0, 79, 0
1, 66000, Note_on_c, 0, 81, 49
1, 66239, Note_on_c, 0, 81, 0
1, 66480, Note_on_c, 0, 79, 49
1, 66959, Note_on_c, 0, 79, 0
1, 66960, Tempo, 857140
1, 66960, Note_on_c, 0, 74, 49
1, 67319, Note_on_c, 0, 74, 0
1, 67320, Note_on_c, 0, 75, 49
1, 67439, Note_on_c, 0, 75, 0
1, 67440, Note_on_c, 0, 74, 49
1, 67559, Note_on_c, 0, 74, 0
1, 67560, Note_on_c, 0, 75, 49
1, 67679, Note_on_c, 0, 75, 0
1, 67680, Note_on_c, 0, 74, 49
1, 68039, Note_on_c, 0, 74, 0
1, 68040, Note_on_c, 0, 75, 49
1, 68159, Note_on_c, 0, 75, 0
1, 68160, Note_on_c, 0, 74, 49
1, 68279, Note_on_c, 0, 74, 0
1, 68280, Note_on_c, 0, 75, 49
1, 68399, Note_on_c, 0, 75, 0
1, 68400, Note_on_c, 0, 74, 49
1, 68759, Note_on_c, 0, 74, 0
1, 68760, Note_on_c, 0, 79, 49
1, 68879, Note_on_c, 0, 79, 0
1, 68880, Note_on_c, 0, 74, 49
1, 68999, Note_on_c, 0, 74, 0
1, 69000, Note_on_c, 0, 79, 49
1, 69119, Note_on_c, 0, 79, 0
1, 69120, Note_on_c, 0, 74, 49
1, 69239, Note_on_c, 0, 74, 0
1, 69240, Note_on_c, 0, 79, 49
1, 69359, Note_on_c, 0, 79, 0
1, 69360, Note_on_c, 0, 74, 49
1, 69479, Note_on_c, 0, 74, 0
1, 69480, Note_on_c, 0, 79, 49
1, 69599, Note_on_c, 0, 79, 0
1, 69600, Note_on_c, 0, 74, 49
1, 69719, Note_on_c, 0, 74, 0
1, 69720, Note_on_c, 0, 79, 49
1, 69839, Note_on_c, 0, 79, 0
1, 69840, Note_on_c, 0, 68, 49
1, 70079, Note_on_c, 0, 68, 0
1, 70080, Note_on_c, 0, 67, 49
1, 70319, Note_on_c, 0, 67, 0
1, 70320, Note_on_c, 0, 67, 49
1, 70499, Note_on_c, 0, 67, 0
1, 70500, Note_on_c, 0, 79, 49
1, 70559, Note_on_c, 0, 79, 0
1, 70560, Note_on_c, 0, 68, 49
1, 70799, Note_on_c, 0, 68, 0
1, 70800, Note_on_c, 0, 67, 49
1, 71039, Note_on_c, 0, 67, 0
1, 71040, Note_on_c, 0, 67, 49
1, 71219, Note_on_c, 0, 67, 0
1, 71220, Note_on_c, 0, 77, 49
1, 71279, Note_on_c, 0, 77, 0
1, 71280, Note_on_c, 0, 68, 49
1, 71519, Note_on_c, 0, 68, 0
1, 71520, Note_on_c, 0, 67, 49
1, 71759, Note_on_c, 0, 67, 0
1, 71760, Note_on_c, 0, 67, 49
1, 71939, Note_on_c, 0, 67, 0
1, 71940, Note_on_c, 0, 75, 49
1, 71999, Note_on_c, 0, 75, 0
1, 72000, Note_on_c, 0, 68, 49
1, 72239, Note_on_c, 0, 68, 0
1, 72240, Note_on_c, 0, 67, 49
1, 72479, Note_on_c, 0, 67, 0
1, 72480, Note_on_c, 0, 67, 49
1, 72659, Note_on_c, 0, 67, 0
1, 72660, Note_on_c, 0, 74, 49
1, 72719, Note_on_c, 0, 74, 0
1, 72720, Note_on_c, 0, 68, 49
1, 72959, Note_on_c, 0, 68, 0
1, 72960, Note_on_c, 0, 67, 49
1, 73199, Note_on_c, 0, 67, 0
1, 73200, Note_on_c, 0, 67, 49
1, 73259, Note_on_c, 0, 67, 0
1, 73260, Note_on_c, 0, 69, 49
1, 73319, Note_on_c, 0, 69, 0
1, 73320, Note_on_c, 0, 70, 49
1, 73379, Note_on_c, 0, 70, 0
1, 73380, Note_on_c, 0, 72, 49
1, 73439, Note_on_c, 0, 72, 0
1, 73440, Note_on_c, 0, 74, 49
1, 73919, Note_on_c, 0, 74, 0
1, 73920, Note_on_c, 0, 67, 49
1, 73979, Note_on_c, 0, 67, 0
1, 73980, Note_on_c, 0, 69, 49
1, 74039, Note_on_c, 0, 69, 0
1, 74040, Note_on_c, 0, 70, 49
1, 74099, Note_on_c, 0, 70, 0
1, 74100, Note_on_c, 0, 72, 49
1, 74159, Note_on_c, 0, 72, 0
1, 74160, Note_on_c, 0, 74, 49
1, 74639, Note_on_c, 0, 74, 0
1, 74640, Note_on_c, 0, 67, 49
1, 74699, Note_on_c, 0, 67, 0
1, 74700, Note_on_c, 0, 69, 49
1, 74759, Note_on_c, 0, 69, 0
1, 74760, Note_on_c, 0, 70, 49
1, 74819, Note_on_c, 0, 70, 0
1, 74820, Note_on_c, 0, 72, 49
1, 74879, Note_on_c, 0, 72, 0
1, 74880, Note_on_c, 0, 74, 49
1, 75119, Note_on_c, 0, 74, 0
1, 75120, Tempo, 1200000
1, 75120, Note_on_c, 0, 67, 49
1, 75148, Note_on_c, 0, 67, 0
1, 75149, Note_on_c, 0, 69, 49
1, 75177, Note_on_c, 0, 69, 0
1, 75180, Note_on_c, 0, 67, 49
1, 75208, Note_on_c, 0, 67, 0
1, 75209, Note_on_c, 0, 69, 49
1, 75237, Note_on_c, 0, 69, 0
1, 75240, Note_on_c, 0, 67, 49
1, 75268, Note_on_c, 0, 67, 0
1, 75269, Note_on_c, 0, 69, 49
1, 75297, Note_on_c, 0, 69, 0
1, 75300, Note_on_c, 0, 67, 49
1, 75328, Note_on_c, 0, 67, 0
1, 75329, Note_on_c, 0, 69, 49
1, 75357, Note_on_c, 0, 69, 0
1, 75360, Note_on_c, 0, 67, 49
1, 75388, Note_on_c, 0, 67, 0
1, 75389, Note_on_c, 0, 69, 49
1, 75417, Note_on_c, 0, 69, 0
1, 75420, Note_on_c, 0, 67, 49
1, 75448, Note_on_c, 0, 67, 0
1, 75449, Note_on_c, 0, 69, 49
1, 75477, Note_on_c, 0, 69, 0
1, 75480, Note_on_c, 0, 67, 49
1, 75508, Note_on_c, 0, 67, 0
1, 75509, Note_on_c, 0, 69, 49
1, 75537, Note_on_c, 0, 69, 0
1, 75540, Note_on_c, 0, 67, 49
1, 75568, Note_on_c, 0, 67, 0
1, 75569, Note_on_c, 0, 69, 49
1, 75597, Note_on_c, 0, 69, 0
1, 75600, Tempo, 857140
1, 76320, Note_on_c, 0, 86, 49
1, 76379, Note_on_c, 0, 86, 0
1, 76380, Note_on_c, 0, 87, 49
1, 76439, Note_on_c, 0, 87, 0
1, 76440, Note_on_c, 0, 86, 49
1, 76499, Note_on_c, 0, 86, 0
1, 76500, Note_on_c, 0, 87, 49
1, 76559, Note_on_c, 0, 87, 0
1, 76560, Note_on_c, 0, 86, 49
1, 76619, Note_on_c, 0, 86, 0
1, 76620, Note_on_c, 0, 87, 49
1, 76679, Note_on_c, 0, 87, 0
1, 76680, Note_on_c, 0, 86, 49
1, 76739, Note_on_c, 0, 86, 0
1, 76740, Note_on_c, 0, 87, 49
1, 76799, Note_on_c, 0, 87, 0
1, 77040, Tempo, 1200000
1, 77040, Note_on_c, 0, 86, 49
1, 77068, Note_on_c, 0, 86, 0
1, 77069, Note_on_c, 0, 87, 49
1, 77097, Note_on_c, 0, 87, 0
1, 77100, Note_on_c, 0, 86, 49
1, 77128, Note_on_c, 0, 86, 0
1, 77129, Note_on_c, 0, 87, 49
1, 77157, Note_on_c, 0, 87, 0
1, 77160, Note_on_c, 0, 86, 49
1, 77188, Note_on_c, 0, 86, 0
1, 77189, Note_on_c, 0, 87, 49
1, 77217, Note_on_c, 0, 87, 0
1, 77220, Note_on_c, 0, 86, 49
1, 77248, Note_on_c, 0, 86, 0
1, 77249, Note_on_c, 0, 87, 49
1, 77277, Note_on_c, 0, 87, 0
1, 77280, Note_on_c, 0, 86, 49
1, 77308, Note_on_c, 0, 86, 0
1, 77309, Note_on_c, 0, 87, 49
1, 77337, Note_on_c, 0, 87, 0
1, 77340, Note_on_c, 0, 86, 49
1, 77368, Note_on_c, 0, 86, 0
1, 77369, Note_on_c, 0, 87, 49
1, 77397, Note_on_c, 0, 87, 0
1, 77400, Note_on_c, 0, 86, 49
1, 77428, Note_on_c, 0, 86, 0
1, 77429, Note_on_c, 0, 87, 49
1, 77457, Note_on_c, 0, 87, 0
1, 77460, Note_on_c, 0, 86, 49
1, 77488, Note_on_c, 0, 86, 0
1, 77489, Note_on_c, 0, 87, 49
1, 77517, Note_on_c, 0, 87, 0
1, 77580, Tempo, 857140
1, 77580, Note_on_c, 0, 91, 49
1, 77639, Note_on_c, 0, 91, 0
1, 77640, Note_on_c, 0, 86, 49
1, 77699, Note_on_c, 0, 86, 0
1, 77700, Note_on_c, 0, 91, 49
1, 77759, Note_on_c, 0, 91, 0
1, 77760, Tempo, 1200000
1, 77760, Note_on_c, 0, 86, 49
1, 77788, Note_on_c, 0, 86, 0
1, 77789, Note_on_c, 0, 87, 49
1, 77817, Note_on_c, 0, 87, 0
1, 77820, Note_on_c, 0, 86, 49
1, 77848, Note_on_c, 0, 86, 0
1, 77849, Note_on_c, 0, 87, 49
1, 77877, Note_on_c, 0, 87, 0
1, 77880, Note_on_c, 0, 86, 49
1, 77908, Note_on_c, 0, 86, 0
1, 77909, Note_on_c, 0, 87, 49
1, 77937, Note_on_c, 0, 87, 0
1, 77940, Note_on_c, 0, 86, 49
1, 77968, Note_on_c, 0, 86, 0
1, 77969, Note_on_c, 0, 87, 49
1, 77997, Note_on_c, 0, 87, 0
1, 78000, Note_on_c, 0, 86, 49
1, 78028, Note_on_c, 0, 86, 0
1, 78029, Note_on_c, 0, 87, 49
1, 78057, Note_on_c, 0, 87, 0
1, 78060, Note_on_c, 0, 86, 49
1, 78088, Note_on_c, 0, 86, 0
1, 78089, Note_on_c, 0, 87, 49
1, 78117, Note_on_c, 0, 87, 0
1, 78120, Note_on_c, 0, 86, 49
1, 78148, Note_on_c, 0, 86, 0
1, 78149, Note_on_c, 0, 87, 49
1, 78177, Note_on_c, 0, 87, 0
1, 78180, Note_on_c, 0, 86, 49
1, 78208, Note_on_c, 0, 86, 0
1, 78209, Note_on_c, 0, 87, 49
1, 78237, Note_on_c, 0, 87, 0
1, 78300, Tempo, 857140
1, 78300, Note_on_c, 0, 91, 49
1, 78359, Note_on_c, 0, 91, 0
1, 78360, Note_on_c, 0, 86, 49
1, 78419, Note_on_c, 0, 86, 0
1, 78420, Note_on_c, 0, 91, 49
1, 78479, Note_on_c, 0, 91, 0
1, 78480, Note_on_c, 0, 86, 49
1, 78539, Note_on_c, 0, 86, 0
1, 78540, Note_on_c, 0, 91, 49
1, 78599, Note_on_c, 0, 91, 0
1, 78600, Note_on_c, 0, 86, 49
1, 78659, Note_on_c, 0, 86, 0
1, 78660, Note_on_c, 0, 91, 49
1, 78719, Note_on_c, 0, 91, 0
1, 78720, Note_on_c, 0, 86, 49
1, 78779, Note_on_c, 0, 86, 0
1, 78780, Note_on_c, 0, 91, 49
1, 78839, Note_on_c, 0, 91, 0
1, 78840, Note_on_c, 0, 86, 49
1, 78899, Note_on_c, 0, 86, 0
1, 78900, Note_on_c, 0, 91, 49
1, 78959, Note_on_c, 0, 91, 0
1, 78960, Note_on_c, 0, 86, 49
1, 79019, Note_on_c, 0, 86, 0
1, 79020, Note_on_c, 0, 91, 49
1, 79079, Note_on_c, 0, 91, 0
1, 79080, Note_on_c, 0, 86, 49
1, 79139, Note_on_c, 0, 86, 0
1, 79140, Note_on_c, 0, 91, 49
1, 79199, Note_on_c, 0, 91, 0
1, 79200, Note_on_c, 0, 86, 49
1, 79259, Note_on_c, 0, 86, 0
1, 79260, Note_on_c, 0, 91, 49
1, 79319, Note_on_c, 0, 91, 0
1, 79320, Note_on_c, 0, 86, 49
1, 79379, Note_on_c, 0, 86, 0
1, 79380, Note_on_c, 0, 91, 49
1, 79439, Note_on_c, 0, 91, 0
1, 79440, Note_on_c, 0, 86, 49
1, 79499, Note_on_c, 0, 86, 0
1, 79500, Note_on_c, 0, 91, 49
1, 79559, Note_on_c, 0, 91, 0
1, 79560, Note_on_c, 0, 86, 49
1, 79619, Note_on_c, 0, 86, 0
1, 79620, Note_on_c, 0, 91, 49
1, 79679, Note_on_c, 0, 91, 0
1, 79680, Note_on_c, 0, 86, 49
1, 79739, Note_on_c, 0, 86, 0
1, 79740, Note_on_c, 0, 91, 49
1, 79799, Note_on_c, 0, 91, 0
1, 79800, Note_on_c, 0, 86, 49
1, 79859, Note_on_c, 0, 86, 0
1, 79860, Note_on_c, 0, 91, 49
1, 79919, Note_on_c, 0, 91, 0
1, 79920, Tempo, 1200000
1, 79920, Note_on_c, 0, 86, 49
1, 79948, Note_on_c, 0, 86, 0
1, 79949, Note_on_c, 0, 87, 49
1, 79977, Note_on_c, 0, 87, 0
1, 79979, Note_on_c, 0, 86, 49
1, 80007, Note_on_c, 0, 86, 0
1, 80010, Note_on_c, 0, 87, 49
1, 80038, Note_on_c, 0, 87, 0
1, 80039, Note_on_c, 0, 86, 49
1, 80067, Note_on_c, 0, 86, 0
1, 80069, Note_on_c, 0, 87, 49
1, 80097, Note_on_c, 0, 87, 0
1, 80100, Note_on_c, 0, 86, 49
1, 80128, Note_on_c, 0, 86, 0
1, 80129, Note_on_c, 0, 87, 49
1, 80157, Note_on_c, 0, 87, 0
1, 80159, Note_on_c, 0, 86, 49
1, 80187, Note_on_c, 0, 86, 0
1, 80190, Note_on_c, 0, 87, 49
1, 80218, Note_on_c, 0, 87, 0
1, 80219, Note_on_c, 0, 86, 49
1, 80247, Note_on_c, 0, 86, 0
1, 80249, Note_on_c, 0, 87, 49
1, 80277, Note_on_c, 0, 87, 0
1, 80280, Note_on_c, 0, 86, 49
1, 80308, Note_on_c, 0, 86, 0
1, 80309, Note_on_c, 0, 87, 49
1, 80337, Note_on_c, 0, 87, 0
1, 80339, Note_on_c, 0, 86, 49
1, 80367, Note_on_c, 0, 86, 0
1, 80370, Note_on_c, 0, 87, 49
1, 80398, Note_on_c, 0, 87, 0
1, 80399, Note_on_c, 0, 86, 49
1, 80427, Note_on_c, 0, 86, 0
1, 80429, Note_on_c, 0, 87, 49
1, 80457, Note_on_c, 0, 87, 0
1, 80460, Note_on_c, 0, 86, 49
1, 80488, Note_on_c, 0, 86, 0
1, 80489, Note_on_c, 0, 87, 49
1, 80517, Note_on_c, 0, 87, 0
1, 80519, Note_on_c, 0, 86, 49
1, 80547, Note_on_c, 0, 86, 0
1, 80550, Note_on_c, 0, 87, 49
1, 80578, Note_on_c, 0, 87, 0
1, 80579, Note_on_c, 0, 86, 49
1, 80607, Note_on_c, 0, 86, 0
1, 80609, Note_on_c, 0, 87, 49
1, 80637, Note_on_c, 0, 87, 0
1, 80640, Tempo, 857140
1, 80640, Note_on_c, 0, 82, 49
1, 80719, Note_on_c, 0, 82, 0
1, 80720, Note_on_c, 0, 84, 49
1, 80799, Note_on_c, 0, 84, 0
1, 80800, Note_on_c, 0, 86, 49
1, 80879, Note_on_c, 0, 86, 0
1, 80880, Note_on_c, 0, 82, 49
1, 80959, Note_on_c, 0, 82, 0
1, 80960, Note_on_c, 0, 84, 49
1, 81039, Note_on_c, 0, 84, 0
1, 81040, Note_on_c, 0, 86, 49
1, 81119, Note_on_c, 0, 86, 0
1, 81120, Note_on_c, 0, 82, 49
1, 81199, Note_on_c, 0, 82, 0
1, 81200, Note_on_c, 0, 84, 49
1, 81279, Note_on_c, 0, 84, 0
1, 81280, Note_on_c, 0, 86, 49
1, 81359, Note_on_c, 0, 86, 0
1, 81360, Note_on_c, 0, 81, 49
1, 81439, Note_on_c, 0, 81, 0
1, 81440, Note_on_c, 0, 82, 49
1, 81519, Note_on_c, 0, 82, 0
1, 81520, Note_on_c, 0, 84, 49
1, 81599, Note_on_c, 0, 84, 0
1, 81600, Note_on_c, 0, 81, 49
1, 81679, Note_on_c, 0, 81, 0
1, 81680, Note_on_c, 0, 82, 49
1, 81759, Note_on_c, 0, 82, 0
1, 81760, Note_on_c, 0, 84, 49
1, 81839, Note_on_c, 0, 84, 0
1, 81840, Note_on_c, 0, 81, 49
1, 81919, Note_on_c, 0, 81, 0
1, 81920, Note_on_c, 0, 82, 49
1, 81999, Note_on_c, 0, 82, 0
1, 82000, Note_on_c, 0, 84, 49
1, 82079, Note_on_c, 0, 84, 0
1, 82080, Note_on_c, 0, 82, 49
1, 82159, Note_on_c, 0, 82, 0
1, 82160, Note_on_c, 0, 84, 49
1, 82239, Note_on_c, 0, 84, 0
1, 82240, Note_on_c, 0, 86, 49
1, 82319, Note_on_c, 0, 86, 0
1, 82320, Note_on_c, 0, 82, 49
1, 82399, Note_on_c, 0, 82, 0
1, 82400, Note_on_c, 0, 84, 49
1, 82479, Note_on_c, 0, 84, 0
1, 82480, Note_on_c, 0, 86, 49
1, 82559, Note_on_c, 0, 86, 0
1, 82560, Note_on_c, 0, 82, 49
1, 82639, Note_on_c, 0, 82, 0
1, 82640, Note_on_c, 0, 84, 49
1, 82719, Note_on_c, 0, 84, 0
1, 82720, Note_on_c, 0, 86, 49
1, 82799, Note_on_c, 0, 86, 0
1, 82800, Note_on_c, 0, 81, 49
1, 82879, Note_on_c, 0, 81, 0
1, 82880, Note_on_c, 0, 82, 49
1, 82959, Note_on_c, 0, 82, 0
1, 82960, Note_on_c, 0, 84, 49
1, 83039, Note_on_c, 0, 84, 0
1, 83040, Note_on_c, 0, 81, 49
1, 83119, Note_on_c, 0, 81, 0
1, 83120, Note_on_c, 0, 82, 49
1, 83199, Note_on_c, 0, 82, 0
1, 83200, Note_on_c, 0, 84, 49
1, 83279, Note_on_c, 0, 84, 0
1, 83280, Note_on_c, 0, 81, 49
1, 83359, Note_on_c, 0, 81, 0
1, 83360, Note_on_c, 0, 82, 49
1, 83439, Note_on_c, 0, 82, 0
1, 83440, Note_on_c, 0, 84, 49
1, 83519, Note_on_c, 0, 84, 0
1, 83520, Note_on_c, 0, 82, 49
1, 83699, Note_on_c, 0, 82, 0
1, 83700, Note_on_c, 0, 84, 49
1, 83759, Note_on_c, 0, 84, 0
1, 83760, Note_on_c, 0, 82, 49
1, 83939, Note_on_c, 0, 82, 0
1, 83940, Note_on_c, 0, 84, 49
1, 83999, Note_on_c, 0, 84, 0
1, 84000, Note_on_c, 0, 82, 49
1, 84179, Note_on_c, 0, 82, 0
1, 84180, Note_on_c, 0, 84, 49
1, 84239, Note_on_c, 0, 84, 0
1, 84240, Note_on_c, 0, 82, 49
1, 84419, Note_on_c, 0, 82, 0
1, 84420, Note_on_c, 0, 84, 49
1, 84479, Note_on_c, 0, 84, 0
1, 84480, Note_on_c, 0, 82, 49
1, 84659, Note_on_c, 0, 82, 0
1, 84660, Note_on_c, 0, 84, 49
1, 84719, Note_on_c, 0, 84, 0
1, 84720, Note_on_c, 0, 82, 49
1, 84899, Note_on_c, 0, 82, 0
1, 84900, Note_on_c, 0, 84, 49
1, 84959, Note_on_c, 0, 84, 0
1, 84960, Note_on_c, 0, 81, 49
1, 85139, Note_on_c, 0, 81, 0
1, 85140, Note_on_c, 0, 82, 49
1, 85199, Note_on_c, 0, 82, 0
1, 85200, Note_on_c, 0, 81, 49
1, 85379, Note_on_c, 0, 81, 0
1, 85380, Note_on_c, 0, 82, 49
1, 85439, Note_on_c, 0, 82, 0
1, 85440, Note_on_c, 0, 81, 49
1, 85619, Note_on_c, 0, 81, 0
1, 85620, Note_on_c, 0, 82, 49
1, 85679, Note_on_c, 0, 82, 0
1, 85680, Note_on_c, 0, 81, 49
1, 85859, Note_on_c, 0, 81, 0
1, 85860, Note_on_c, 0, 82, 49
1, 85919, Note_on_c, 0, 82, 0
1, 85920, Note_on_c, 0, 81, 49
1, 86099, Note_on_c, 0, 81, 0
1, 86100, Note_on_c, 0, 82, 49
1, 86159, Note_on_c, 0, 82, 0
1, 86160, Note_on_c, 0, 81, 49
1, 86339, Note_on_c, 0, 81, 0
1, 86340, Note_on_c, 0, 82, 49
1, 86399, Note_on_c, 0, 82, 0
1, 86400, Note_on_c, 0, 79, 49
1, 86579, Note_on_c, 0, 79, 0
1, 86580, Note_on_c, 0, 81, 49
1, 86639, Note_on_c, 0, 81, 0
1, 86640, Note_on_c, 0, 79, 49
1, 86819, Note_on_c, 0, 79, 0
1, 86820, Note_on_c, 0, 81, 49
1, 86879, Note_on_c, 0, 81, 0
1, 86880, Note_on_c, 0, 79, 49
1, 87059, Note_on_c, 0, 79, 0
1, 87060, Note_on_c, 0, 81, 49
1, 87119, Note_on_c, 0, 81, 0
1, 87120, Note_on_c, 0, 79, 49
1, 87299, Note_on_c, 0, 79, 0
1, 87300, Note_on_c, 0, 81, 49
1, 87359, Note_on_c, 0, 81, 0
1, 87360, Note_on_c, 0, 79, 49
1, 87539, Note_on_c, 0, 79, 0
1, 87540, Note_on_c, 0, 81, 49
1, 87599, Note_on_c, 0, 81, 0
1, 87600, Note_on_c, 0, 79, 49
1, 87779, Note_on_c, 0, 79, 0
1, 87780, Note_on_c, 0, 81, 49
1, 87839, Note_on_c, 0, 81, 0
1, 87840, Note_on_c, 0, 77, 49
1, 88019, Note_on_c, 0, 77, 0
1, 88020, Note_on_c, 0, 79, 49
1, 88079, Note_on_c, 0, 79, 0
1, 88080, Note_on_c, 0, 77, 49
1, 88259, Note_on_c, 0, 77, 0
1, 88260, Note_on_c, 0, 79, 49
1, 88319, Note_on_c, 0, 79, 0
1, 88320, Note_on_c, 0, 77, 49
1, 88499, Note_on_c, 0, 77, 0
1, 88500, Note_on_c, 0, 79, 49
1, 88559, Note_on_c, 0, 79, 0
1, 88560, Note_on_c, 0, 77, 49
1, 88739, Note_on_c, 0, 77, 0
1, 88740, Note_on_c, 0, 79, 49
1, 88799, Note_on_c, 0, 79, 0
1, 88800, Note_on_c, 0, 77, 49
1, 88979, Note_on_c, 0, 77, 0
1, 88980, Note_on_c, 0, 79, 49
1, 89039, Note_on_c, 0, 79, 0
1, 89040, Note_on_c, 0, 77, 49
1, 89219, Note_on_c, 0, 77, 0
1, 89220, Note_on_c, 0, 79, 49
1, 89279, Note_on_c, 0, 79, 0
1, 89280, Note_on_c, 0, 77, 96
1, 89339, Note_on_c, 0, 77, 0
1, 89340, Note_on_c, 0, 86, 96
1, 89399, Note_on_c, 0, 86, 0
1, 89400, Note_on_c, 0, 84, 96
1, 89459, Note_on_c, 0, 84, 0
1, 89460, Note_on_c, 0, 82, 96
1, 89519, Note_on_c, 0, 82, 0
1, 89520, Note_on_c, 0, 81, 96
1, 89579, Note_on_c, 0, 81, 0
1, 89580, Note_on_c, 0, 86, 96
1, 89639, Note_on_c, 0, 86, 0
1, 89640, Note_on_c, 0, 84, 96
1, 89699, Note_on_c, 0, 84, 0
1, 89700, Note_on_c, 0, 82, 96
1, 89759, Note_on_c, 0, 82, 0
1, 89760, Note_on_c, 0, 81, 96
1, 89819, Note_on_c, 0, 81, 0
1, 89820, Note_on_c, 0, 79, 96
1, 89879, Note_on_c, 0, 79, 0
1, 89880, Note_on_c, 0, 77, 96
1, 89939, Note_on_c, 0, 77, 0
1, 89940, Note_on_c, 0, 76, 96
1, 89999, Note_on_c, 0, 76, 0
1, 90000, Note_on_c, 0, 77, 96
1, 90059, Note_on_c, 0, 77, 0
1, 90060, Note_on_c, 0, 81, 96
1, 90119, Note_on_c, 0, 81, 0
1, 90120, Note_on_c, 0, 79, 96
1, 90179, Note_on_c, 0, 79, 0
1, 90180, Note_on_c, 0, 77, 96
1, 90239, Note_on_c, 0, 77, 0
1, 90240, Note_on_c, 0, 76, 96
1, 90299, Note_on_c, 0, 76, 0
1, 90300, Note_on_c, 0, 81, 96
1, 90359, Note_on_c, 0, 81, 0
1, 90360, Note_on_c, 0, 79, 96
1, 90419, Note_on_c, 0, 79, 0
1, 90420, Note_on_c, 0, 77, 96
1, 90479, Note_on_c, 0, 77, 0
1, 90480, Note_on_c, 0, 76, 96
1, 90539, Note_on_c, 0, 76, 0
1, 90540, Note_on_c, 0, 74, 96
1, 90599, Note_on_c, 0, 74, 0
1, 90600, Note_on_c, 0, 73, 96
1, 90659, Note_on_c, 0, 73, 0
1, 90660, Note_on_c, 0, 71, 96
1, 90719, Note_on_c, 0, 71, 0
1, 90720, Note_on_c, 0, 69, 96
1, 90779, Note_on_c, 0, 69, 0
1, 90780, Note_on_c, 0, 67, 96
1, 90839, Note_on_c, 0, 67, 0
1, 90840, Note_on_c, 0, 65, 96
1, 90899, Note_on_c, 0, 65, 0
1, 90900, Note_on_c, 0, 62, 96
1, 90959, Note_on_c, 0, 62, 0
1, 90960, Note_on_c, 0, 65, 96
1, 91019, Note_on_c, 0, 65, 0
1, 91020, Note_on_c, 0, 67, 96
1, 91079, Note_on_c, 0, 67, 0
1, 91080, Note_on_c, 0, 69, 96
1, 91139, Note_on_c, 0, 69, 0
1, 91140, Note_on_c, 0, 65, 96
1, 91199, Note_on_c, 0, 65, 0
1, 91200, Note_on_c, 0, 69, 96
1, 91259, Note_on_c, 0, 69, 0
1, 91260, Note_on_c, 0, 71, 96
1, 91319, Note_on_c, 0, 71, 0
1, 91320, Note_on_c, 0, 73, 96
1, 91379, Note_on_c, 0, 73, 0
1, 91380, Note_on_c, 0, 69, 96
1, 91439, Note_on_c, 0, 69, 0
1, 91440, Note_on_c, 0, 74, 96
1, 91499, Note_on_c, 0, 74, 0
1, 91500, Note_on_c, 0, 76, 96
1, 91559, Note_on_c, 0, 76, 0
1, 91560, Note_on_c, 0, 77, 96
1, 91619, Note_on_c, 0, 77, 0
1, 91620, Note_on_c, 0, 74, 96
1, 91679, Note_on_c, 0, 74, 0
1, 91680, Note_on_c, 0, 77, 96
1, 91739, Note_on_c, 0, 77, 0
1, 91740, Note_on_c, 0, 79, 96
1, 91799, Note_on_c, 0, 79, 0
1, 91800, Note_on_c, 0, 81, 96
1, 91859, Note_on_c, 0, 81, 0
1, 91860, Note_on_c, 0, 77, 96
1, 91919, Note_on_c, 0, 77, 0
1, 91920, Note_on_c, 0, 81, 96
1, 91979, Note_on_c, 0, 81, 0
1, 91980, Note_on_c, 0, 83, 96
1, 92039, Note_on_c, 0, 83, 0
1, 92040, Note_on_c, 0, 85, 96
1, 92099, Note_on_c, 0, 85, 0
1, 92100, Note_on_c, 0, 81, 96
1, 92159, Note_on_c, 0, 81, 0
1, 92160, Note_on_c, 0, 86, 96
1, 92219, Note_on_c, 0, 86, 0
1, 92220, Note_on_c, 0, 74, 96
1, 92279, Note_on_c, 0, 74, 0
1, 92280, Note_on_c, 0, 86, 96
1, 92339, Note_on_c, 0, 86, 0
1, 92340, Note_on_c, 0, 74, 96
1, 92399, Note_on_c, 0, 74, 0
1, 92400, Note_on_c, 0, 86, 96
1, 92459, Note_on_c, 0, 86, 0
1, 92460, Note_on_c, 0, 74, 96
1, 92519, Note_on_c, 0, 74, 0
1, 92520, Note_on_c, 0, 86, 96
1, 92579, Note_on_c, 0, 86, 0
1, 92580, Note_on_c, 0, 74, 96
1, 92639, Note_on_c, 0, 74, 0
1, 92640, Note_on_c, 0, 86, 96
1, 92699, Note_on_c, 0, 86, 0
1, 92700, Note_on_c, 0, 74, 96
1, 92759, Note_on_c, 0, 74, 0
1, 92760, Note_on_c, 0, 86, 96
1, 92819, Note_on_c, 0, 86, 0
1, 92820, Note_on_c, 0, 74, 96
1, 92879, Note_on_c, 0, 74, 0
1, 92880, Note_on_c, 0, 84, 96
1, 92939, Note_on_c, 0, 84, 0
1, 92940, Note_on_c, 0, 74, 96
1, 92999, Note_on_c, 0, 74, 0
1, 93000, Note_on_c, 0, 84, 96
1, 93059, Note_on_c, 0, 84, 0
1, 93060, Note_on_c, 0, 74, 96
1, 93119, Note_on_c, 0, 74, 0
1, 93120, Note_on_c, 0, 84, 96
1, 93179, Note_on_c, 0, 84, 0
1, 93180, Note_on_c, 0, 74, 96
1, 93239, Note_on_c, 0, 74, 0
1, 93240, Note_on_c, 0, 84, 96
1, 93299, Note_on_c, 0, 84, 0
1, 93300, Note_on_c, 0, 74, 96
1, 93359, Note_on_c, 0, 74, 0
1, 93360, Note_on_c, 0, 84, 96
1, 93419, Note_on_c, 0, 84, 0
1, 93420, Note_on_c, 0, 74, 96
1, 93479, Note_on_c, 0, 74, 0
1, 93480, Note_on_c, 0, 84, 96
1, 93539, Note_on_c, 0, 84, 0
1, 93540, Note_on_c, 0, 74, 96
1, 93599, Note_on_c, 0, 74, 0
1, 93600, Note_on_c, 0, 82, 96
1, 93659, Note_on_c, 0, 82, 0
1, 93660, Note_on_c, 0, 74, 96
1, 93719, Note_on_c, 0, 74, 0
1, 93720, Note_on_c, 0, 82, 96
1, 93779, Note_on_c, 0, 82, 0
1, 93780, Note_on_c, 0, 74, 96
1, 93839, Note_on_c, 0, 74, 0
1, 93840, Note_on_c, 0, 82, 96
1, 93899, Note_on_c, 0, 82, 0
1, 93900, Note_on_c, 0, 74, 96
1, 93959, Note_on_c, 0, 74, 0
1, 93960, Note_on_c, 0, 82, 96
1, 94019, Note_on_c, 0, 82, 0
1, 94020, Note_on_c, 0, 74, 96
1, 94079, Note_on_c, 0, 74, 0
1, 94080, Note_on_c, 0, 82, 96
1, 94139, Note_on_c, 0, 82, 0
1, 94140, Note_on_c, 0, 74, 96
1, 94199, Note_on_c, 0, 74, 0
1, 94200, Note_on_c, 0, 82, 96
1, 94259, Note_on_c, 0, 82, 0
1, 94260, Note_on_c, 0, 74, 96
1, 94319, Note_on_c, 0, 74, 0
1, 94320, Note_on_c, 0, 81, 96
1, 94379, Note_on_c, 0, 81, 0
1, 94380, Note_on_c, 0, 74, 96
1, 94439, Note_on_c, 0, 74, 0
1, 94440, Note_on_c, 0, 81, 96
1, 94499, Note_on_c, 0, 81, 0
1, 94500, Note_on_c, 0, 74, 96
1, 94559, Note_on_c, 0, 74, 0
1, 94560, Note_on_c, 0, 81, 96
1, 94619, Note_on_c, 0, 81, 0
1, 94620, Note_on_c, 0, 74, 96
1, 94679, Note_on_c, 0, 74, 0
1, 94680, Note_on_c, 0, 81, 96
1, 94739, Note_on_c, 0, 81, 0
1, 94740, Note_on_c, 0, 74, 96
1, 94799, Note_on_c, 0, 74, 0
1, 94800, Note_on_c, 0, 81, 96
1, 94859, Note_on_c, 0, 81, 0
1, 94860, Note_on_c, 0, 74, 96
1, 94919, Note_on_c, 0, 74, 0
1, 94920, Note_on_c, 0, 81, 96
1, 94979, Note_on_c, 0, 81, 0
1, 94980, Note_on_c, 0, 74, 96
1, 95039, Note_on_c, 0, 74, 0
1, 95040, Note_on_c, 0, 86, 96
1, 95099, Note_on_c, 0, 86, 0
1, 95100, Note_on_c, 0, 74, 96
1, 95159, Note_on_c, 0, 74, 0
1, 95160, Note_on_c, 0, 86, 96
1, 95219, Note_on_c, 0, 86, 0
1, 95220, Note_on_c, 0, 74, 96
1, 95279, Note_on_c, 0, 74, 0
1, 95280, Note_on_c, 0, 86, 96
1, 95339, Note_on_c, 0, 86, 0
1, 95340, Note_on_c, 0, 74, 96
1, 95399, Note_on_c, 0, 74, 0
1, 95400, Note_on_c, 0, 86, 96
1, 95459, Note_on_c, 0, 86, 0
1, 95460, Note_on_c, 0, 74, 96
1, 95519, Note_on_c, 0, 74, 0
1, 95520, Note_on_c, 0, 86, 96
1, 95579, Note_on_c, 0, 86, 0
1, 95580, Note_on_c, 0, 74, 96
1, 95639, Note_on_c, 0, 74, 0
1, 95640, Note_on_c, 0, 86, 96
1, 95699, Note_on_c, 0, 86, 0
1, 95700, Note_on_c, 0, 74, 96
1, 95759, Note_on_c, 0, 74, 0
1, 95760, Note_on_c, 0, 84, 96
1, 95819, Note_on_c, 0, 84, 0
1, 95820, Note_on_c, 0, 74, 96
1, 95879, Note_on_c, 0, 74, 0
1, 95880, Note_on_c, 0, 84, 96
1, 95939, Note_on_c, 0, 84, 0
1, 95940, Note_on_c, 0, 74, 96
1, 95999, Note_on_c, 0, 74, 0
1, 96000, Note_on_c, 0, 84, 96
1, 96059, Note_on_c, 0, 84, 0
1, 96060, Note_on_c, 0, 74, 96
1, 96119, Note_on_c, 0, 74, 0
1, 96120, Note_on_c, 0, 84, 96
1, 96179, Note_on_c, 0, 84, 0
1, 96180, Note_on_c, 0, 74, 96
1, 96239, Note_on_c, 0, 74, 0
1, 96240, Note_on_c, 0, 84, 96
1, 96299, Note_on_c, 0, 84, 0
1, 96300, Note_on_c, 0, 74, 96
1, 96359, Note_on_c, 0, 74, 0
1, 96360, Note_on_c, 0, 84, 96
1, 96419, Note_on_c, 0, 84, 0
1, 96420, Note_on_c, 0, 74, 96
1, 96479, Note_on_c, 0, 74, 0
1, 96480, Note_on_c, 0, 82, 96
1, 96539, Note_on_c, 0, 82, 0
1, 96540, Note_on_c, 0, 74, 96
1, 96599, Note_on_c, 0, 74, 0
1, 96600, Note_on_c, 0, 82, 96
1, 96659, Note_on_c, 0, 82, 0
1, 96660, Note_on_c, 0, 74, 96
1, 96719, Note_on_c, 0, 74, 0
1, 96720, Note_on_c, 0, 82, 96
1, 96779, Note_on_c, 0, 82, 0
1, 96780, Note_on_c, 0, 74, 96
1, 96839, Note_on_c, 0, 74, 0
1, 96840, Note_on_c, 0, 82, 96
1, 96899, Note_on_c, 0, 82, 0
1, 96900, Note_on_c, 0, 74, 96
1, 96959, Note_on_c, 0, 74, 0
1, 96960, Note_on_c, 0, 82, 96
1, 97019, Note_on_c, 0, 82, 0
1, 97020, Note_on_c, 0, 74, 96
1, 97079, Note_on_c, 0, 74, 0
1, 97080, Note_on_c, 0, 82, 96
1, 97139, Note_on_c, 0, 82, 0
1, 97140, Note_on_c, 0, 74, 96
1, 97199, Note_on_c, 0, 74, 0
1, 97200, Note_on_c, 0, 81, 96
1, 97259, Note_on_c, 0, 81, 0
1, 97260, Note_on_c, 0, 74, 96
1, 97319, Note_on_c, 0, 74, 0
1, 97320, Note_on_c, 0, 81, 96
1, 97379, Note_on_c, 0, 81, 0
1, 97380, Note_on_c, 0, 74, 96
1, 97439, Note_on_c, 0, 74, 0
1, 97440, Note_on_c, 0, 81, 96
1, 97499, Note_on_c, 0, 81, 0
1, 97500, Note_on_c, 0, 74, 96
1, 97559, Note_on_c, 0, 74, 0
1, 97560, Note_on_c, 0, 81, 96
1, 97619, Note_on_c, 0, 81, 0
1, 97620, Note_on_c, 0, 74, 96
1, 97679, Note_on_c, 0, 74, 0
1, 97680, Note_on_c, 0, 81, 96
1, 97739, Note_on_c, 0, 81, 0
1, 97740, Note_on_c, 0, 74, 96
1, 97799, Note_on_c, 0, 74, 0
1, 97800, Note_on_c, 0, 81, 96
1, 97859, Note_on_c, 0, 81, 0
1, 97860, Note_on_c, 0, 74, 96
1, 97919, Note_on_c, 0, 74, 0
1, 97920, Note_on_c, 0, 79, 96
1, 97979, Note_on_c, 0, 79, 0
1, 97980, Note_on_c, 0, 76, 96
1, 98039, Note_on_c, 0, 76, 0
1, 98040, Note_on_c, 0, 79, 96
1, 98099, Note_on_c, 0, 79, 0
1, 98100, Note_on_c, 0, 76, 96
1, 98159, Note_on_c, 0, 76, 0
1, 98160, Note_on_c, 0, 79, 96
1, 98219, Note_on_c, 0, 79, 0
1, 98220, Note_on_c, 0, 76, 96
1, 98279, Note_on_c, 0, 76, 0
1, 98280, Note_on_c, 0, 79, 96
1, 98339, Note_on_c, 0, 79, 0
1, 98340, Note_on_c, 0, 76, 96
1, 98399, Note_on_c, 0, 76, 0
1, 98400, Note_on_c, 0, 79, 96
1, 98459, Note_on_c, 0, 79, 0
1, 98460, Note_on_c, 0, 76, 96
1, 98519, Note_on_c, 0, 76, 0
1, 98520, Note_on_c, 0, 79, 96
1, 98579, Note_on_c, 0, 79, 0
1, 98580, Note_on_c, 0, 76, 96
1, 98639, Note_on_c, 0, 76, 0
1, 98640, Note_on_c, 0, 81, 96
1, 98699, Note_on_c, 0, 81, 0
1, 98700, Note_on_c, 0, 77, 96
1, 98759, Note_on_c, 0, 77, 0
1, 98760, Note_on_c, 0, 81, 96
1, 98819, Note_on_c, 0, 81, 0
1, 98820, Note_on_c, 0, 77, 96
1, 98879, Note_on_c, 0, 77, 0
1, 98880, Note_on_c, 0, 81, 96
1, 98939, Note_on_c, 0, 81, 0
1, 98940, Note_on_c, 0, 77, 96
1, 98999, Note_on_c, 0, 77, 0
1, 99000, Note_on_c, 0, 81, 96
1, 99059, Note_on_c, 0, 81, 0
1, 99060, Note_on_c, 0, 77, 96
1, 99119, Note_on_c, 0, 77, 0
1, 99120, Note_on_c, 0, 81, 96
1, 99179, Note_on_c, 0, 81, 0
1, 99180, Note_on_c, 0, 77, 96
1, 99239, Note_on_c, 0, 77, 0
1, 99240, Note_on_c, 0, 81, 96
1, 99299, Note_on_c, 0, 81, 0
1, 99300, Note_on_c, 0, 77, 96
1, 99359, Note_on_c, 0, 77, 0
1, 99360, Note_on_c, 0, 82, 96
1, 99419, Note_on_c, 0, 82, 0
1, 99420, Note_on_c, 0, 79, 96
1, 99479, Note_on_c, 0, 79, 0
1, 99480, Note_on_c, 0, 82, 96
1, 99539, Note_on_c, 0, 82, 0
1, 99540, Note_on_c, 0, 79, 96
1, 99599, Note_on_c, 0, 79, 0
1, 99600, Note_on_c, 0, 82, 96
1, 99659, Note_on_c, 0, 82, 0
1, 99660, Note_on_c, 0, 79, 96
1, 99719, Note_on_c, 0, 79, 0
1, 99720, Note_on_c, 0, 82, 96
1, 99779, Note_on_c, 0, 82, 0
1, 99780, Note_on_c, 0, 79, 96
1, 99839, Note_on_c, 0, 79, 0
1, 99840, Note_on_c, 0, 82, 96
1, 99899, Note_on_c, 0, 82, 0
1, 99900, Note_on_c, 0, 79, 96
1, 99959, Note_on_c, 0, 79, 0
1, 99960, Note_on_c, 0, 82, 96
1, 100019, Note_on_c, 0, 82, 0
1, 100020, Note_on_c, 0, 79, 96
1, 100079, Note_on_c, 0, 79, 0
1, 100080, Note_on_c, 0, 81, 96
1, 100139, Note_on_c, 0, 81, 0
1, 100140, Note_on_c, 0, 77, 96
1, 100199, Note_on_c, 0, 77, 0
1, 100200, Note_on_c, 0, 81, 96
1, 100259, Note_on_c, 0, 81, 0
1, 100260, Note_on_c, 0, 77, 96
1, 100319, Note_on_c, 0, 77, 0
1, 100320, Note_on_c, 0, 81, 96
1, 100379, Note_on_c, 0, 81, 0
1, 100380, Note_on_c, 0, 77, 96
1, 100439, Note_on_c, 0, 77, 0
1, 100440, Note_on_c, 0, 81, 96
1, 100499, Note_on_c, 0, 81, 0
1, 100500, Note_on_c, 0, 77, 96
1, 100559, Note_on_c, 0, 77, 0
1, 100560, Note_on_c, 0, 81, 96
1, 100619, Note_on_c, 0, 81, 0
1, 100620, Note_on_c, 0, 77, 96
1, 100679, Note_on_c, 0, 77, 0
1, 100680, Note_on_c, 0, 81, 96
1, 100739, Note_on_c, 0, 81, 0
1, 100740, Note_on_c, 0, 77, 96
1, 100799, Note_on_c, 0, 77, 0
1, 100800, Note_on_c, 0, 79, 96
1, 100859, Note_on_c, 0, 79, 0
1, 100860, Note_on_c, 0, 76, 96
1, 100919, Note_on_c, 0, 76, 0
1, 100920, Note_on_c, 0, 79, 96
1, 100979, Note_on_c, 0, 79, 0
1, 100980, Note_on_c, 0, 76, 96
1, 101039, Note_on_c, 0, 76, 0
1, 101040, Note_on_c, 0, 79, 96
1, 101099, Note_on_c, 0, 79, 0
1, 101100, Note_on_c, 0, 76, 96
1, 101159, Note_on_c, 0, 76, 0
1, 101160, Note_on_c, 0, 79, 96
1, 101219, Note_on_c, 0, 79, 0
1, 101220, Note_on_c, 0, 76, 96
1, 101279, Note_on_c, 0, 76, 0
1, 101280, Note_on_c, 0, 79, 96
1, 101339, Note_on_c, 0, 79, 0
1, 101340, Note_on_c, 0, 76, 96
1, 101399, Note_on_c, 0, 76, 0
1, 101400, Note_on_c, 0, 79, 96
1, 101459, Note_on_c, 0, 79, 0
1, 101460, Note_on_c, 0, 76, 96
1, 101519, Note_on_c, 0, 76, 0
1, 101520, Note_on_c, 0, 77, 96
1, 101579, Note_on_c, 0, 77, 0
1, 101580, Note_on_c, 0, 74, 96
1, 101639, Note_on_c, 0, 74, 0
1, 101640, Note_on_c, 0, 77, 96
1, 101699, Note_on_c, 0, 77, 0
1, 101700, Note_on_c, 0, 74, 96
1, 101759, Note_on_c, 0, 74, 0
1, 101760, Note_on_c, 0, 77, 96
1, 101819, Note_on_c, 0, 77, 0
1, 101820, Note_on_c, 0, 74, 96
1, 101879, Note_on_c, 0, 74, 0
1, 101880, Note_on_c, 0, 77, 96
1, 101939, Note_on_c, 0, 77, 0
1, 101940, Note_on_c, 0, 74, 96
1, 101999, Note_on_c, 0, 74, 0
1, 102000, Note_on_c, 0, 77, 96
1, 102059, Note_on_c, 0, 77, 0
1, 102060, Note_on_c, 0, 74, 96
1, 102119, Note_on_c, 0, 74, 0
1, 102120, Note_on_c, 0, 77, 96
1, 102179, Note_on_c, 0, 77, 0
1, 102180, Note_on_c, 0, 74, 96
1, 102239, Note_on_c, 0, 74, 0
1, 102240, Note_on_c, 0, 76, 96
1, 102299, Note_on_c, 0, 76, 0
1, 102300, Note_on_c, 0, 74, 96
1, 102359, Note_on_c, 0, 74, 0
1, 102360, Note_on_c, 0, 76, 96
1, 102419, Note_on_c, 0, 76, 0
1, 102420, Note_on_c, 0, 74, 96
1, 102479, Note_on_c, 0, 74, 0
1, 102480, Note_on_c, 0, 76, 96
1, 102539, Note_on_c, 0, 76, 0
1, 102540, Note_on_c, 0, 74, 96
1, 102599, Note_on_c, 0, 74, 0
1, 102600, Note_on_c, 0, 76, 96
1, 102659, Note_on_c, 0, 76, 0
1, 102660, Note_on_c, 0, 74, 96
1, 102719, Note_on_c, 0, 74, 0
1, 102720, Note_on_c, 0, 76, 96
1, 102779, Note_on_c, 0, 76, 0
1, 102780, Note_on_c, 0, 74, 96
1, 102839, Note_on_c, 0, 74, 0
1, 102840, Note_on_c, 0, 76, 96
1, 102899, Note_on_c, 0, 76, 0
1, 102900, Note_on_c, 0, 74, 96
1, 102959, Note_on_c, 0, 74, 0
1, 102960, Note_on_c, 0, 76, 96
1, 103019, Note_on_c, 0, 76, 0
1, 103020, Note_on_c, 0, 73, 96
1, 103079, Note_on_c, 0, 73, 0
1, 103080, Note_on_c, 0, 76, 96
1, 103139, Note_on_c, 0, 76, 0
1, 103140, Note_on_c, 0, 73, 96
1, 103199, Note_on_c, 0, 73, 0
1, 103200, Note_on_c, 0, 76, 96
1, 103259, Note_on_c, 0, 76, 0
1, 103260, Note_on_c, 0, 73, 96
1, 103319, Note_on_c, 0, 73, 0
1, 103320, Note_on_c, 0, 76, 96
1, 103379, Note_on_c, 0, 76, 0
1, 103380, Note_on_c, 0, 73, 96
1, 103439, Note_on_c, 0, 73, 0
1, 103440, Note_on_c, 0, 76, 96
1, 103499, Note_on_c, 0, 76, 0
1, 103500, Note_on_c, 0, 73, 96
1, 103559, Note_on_c, 0, 73, 0
1, 103560, Note_on_c, 0, 76, 96
1, 103619, Note_on_c, 0, 76, 0
1, 103620, Note_on_c, 0, 73, 96
1, 103679, Note_on_c, 0, 73, 0
1, 103680, Tempo, 1200000
1, 103680, Note_on_c, 0, 74, 96
1, 103919, Note_on_c, 0, 74, 0
1, 103920, Note_on_c, 0, 77, 49
1, 104159, Note_on_c, 0, 77, 0
1, 104160, Note_on_c, 0, 76, 49
1, 104399, Note_on_c, 0, 76, 0
1, 104640, Note_on_c, 0, 79, 49
1, 104879, Note_on_c, 0, 79, 0
1, 104880, Note_on_c, 0, 77, 49
1, 105119, Note_on_c, 0, 77, 0
1, 105360, Note_on_c, 0, 79, 49
1, 105479, Note_on_c, 0, 79, 0
1, 105480, Note_on_c, 0, 81, 49
1, 105599, Note_on_c, 0, 81, 0
1, 105600, Note_on_c, 0, 82, 49
1, 105839, Note_on_c, 0, 82, 0
1, 106080, Note_on_c, 0, 75, 49
1, 106199, Note_on_c, 0, 75, 0
1, 106200, Note_on_c, 0, 77, 49
1, 106319, Note_on_c, 0, 77, 0
1, 106320, Note_on_c, 0, 79, 49
1, 106559, Note_on_c, 0, 79, 0
1, 106800, Note_on_c, 0, 74, 49
1, 106919, Note_on_c, 0, 74, 0
1, 106920, Note_on_c, 0, 76, 49
1, 107039, Note_on_c, 0, 76, 0
1, 107040, Note_on_c, 0, 77, 49
1, 107279, Note_on_c, 0, 77, 0
1, 107520, Note_on_c, 0, 73, 49
1, 107639, Note_on_c, 0, 73, 0
1, 107640, Note_on_c, 0, 74, 49
1, 107759, Note_on_c, 0, 74, 0
1, 107760, Note_on_c, 0, 76, 49
1, 107999, Note_on_c, 0, 76, 0
1, 108000, Note_on_c, 0, 74, 49
1, 108119, Note_on_c, 0, 74, 0
1, 108120, Note_on_c, 0, 77, 49
1, 108239, Note_on_c, 0, 77, 0
1, 108240, Note_on_c, 0, 76, 49
1, 108359, Note_on_c, 0, 76, 0
1, 108360, Note_on_c, 0, 79, 49
1, 108479, Note_on_c, 0, 79, 0
1, 108480, Note_on_c, 0, 77, 49
1, 108839, Note_on_c, 0, 77, 0
1, 108840, Note_on_c, 0, 83, 49
1, 108959, Note_on_c, 0, 83, 0
1, 108960, Note_on_c, 0, 76, 49
1, 109079, Note_on_c, 0, 76, 0
1, 109080, Note_on_c, 0, 77, 49
1, 109199, Note_on_c, 0, 77, 0
1, 109200, Note_on_c, 0, 74, 49
1, 109319, Note_on_c, 0, 74, 0
1, 109320, Note_on_c, 0, 76, 49
1, 109439, Note_on_c, 0, 76, 0
1, 109440, Note_on_c, 0, 73, 49
1, 109559, Note_on_c, 0, 73, 0
1, 109560, Note_on_c, 0, 76, 49
1, 109679, Note_on_c, 0, 76, 0
1, 109680, Note_on_c, 0, 74, 49
1, 109799, Note_on_c, 0, 74, 0
1, 109800, Note_on_c, 0, 77, 49
1, 109919, Note_on_c, 0, 77, 0
1, 109920, Note_on_c, 0, 75, 49
1, 110279, Note_on_c, 0, 75, 0
1, 110280, Note_on_c, 0, 81, 49
1, 110399, Note_on_c, 0, 81, 0
1, 110400, Note_on_c, 0, 74, 49
1, 110519, Note_on_c, 0, 74, 0
1, 110520, Note_on_c, 0, 75, 49
1, 110639, Note_on_c, 0, 75, 0
1, 110640, Note_on_c, 0, 72, 49
1, 110759, Note_on_c, 0, 72, 0
1, 110760, Note_on_c, 0, 74, 49
1, 110879, Note_on_c, 0, 74, 0
1, 110880, Note_on_c, 0, 71, 49
1, 110999, Note_on_c, 0, 71, 0
1, 111000, Note_on_c, 0, 74, 49
1, 111119, Note_on_c, 0, 74, 0
1, 111120, Note_on_c, 0, 72, 49
1, 111239, Note_on_c, 0, 72, 0
1, 111240, Note_on_c, 0, 75, 49
1, 111359, Note_on_c, 0, 75, 0
1, 111360, Note_on_c, 0, 73, 49
1, 111719, Note_on_c, 0, 73, 0
1, 111720, Note_on_c, 0, 79, 49
1, 111839, Note_on_c, 0, 79, 0
1, 111840, Note_on_c, 0, 72, 49
1, 111959, Note_on_c, 0, 72, 0
1, 111960, Note_on_c, 0, 73, 49
1, 112079, Note_on_c, 0, 73, 0
1, 112080, Note_on_c, 0, 70, 49
1, 112199, Note_on_c, 0, 70, 0
1, 112200, Note_on_c, 0, 72, 49
1, 112319, Note_on_c, 0, 72, 0
1, 112320, Note_on_c, 0, 69, 49
1, 112439, Note_on_c, 0, 69, 0
1, 112440, Note_on_c, 0, 72, 49
1, 112559, Note_on_c, 0, 72, 0
1, 112560, Note_on_c, 0, 70, 49
1, 112679, Note_on_c, 0, 70, 0
1, 112680, Note_on_c, 0, 74, 49
1, 112799, Note_on_c, 0, 74, 0
1, 112800, Note_on_c, 0, 72, 49
1, 113159, Note_on_c, 0, 72, 0
1, 113160, Note_on_c, 0, 81, 49
1, 113279, Note_on_c, 0, 81, 0
1, 113280, Note_on_c, 0, 71, 49
1, 113399, Note_on_c, 0, 71, 0
1, 113400, Note_on_c, 0, 72, 49
1, 113519, Note_on_c, 0, 72, 0
1, 113520, Note_on_c, 0, 69, 49
1, 113639, Note_on_c, 0, 69, 0
1, 113640, Note_on_c, 0, 71, 49
1, 113759, Note_on_c, 0, 71, 0
1, 113760, Note_on_c, 0, 67, 49
1, 113879, Note_on_c, 0, 67, 0
1, 113880, Note_on_c, 0, 71, 49
1, 113999, Note_on_c, 0, 71, 0
1, 114000, Note_on_c, 0, 76, 49
1, 114119, Note_on_c, 0, 76, 0
1, 114120, Note_on_c, 0, 78, 49
1, 114239, Note_on_c, 0, 78, 0
1, 114240, Note_on_c, 0, 79, 49
1, 114599, Note_on_c, 0, 79, 0
1, 114600, Note_on_c, 0, 85, 49
1, 114719, Note_on_c, 0, 85, 0
1, 114720, Note_on_c, 0, 78, 49
1, 114839, Note_on_c, 0, 78, 0
1, 114840, Note_on_c, 0, 79, 49
1, 114959, Note_on_c, 0, 79, 0
1, 114960, Note_on_c, 0, 76, 49
1, 115079, Note_on_c, 0, 76, 0
1, 115080, Note_on_c, 0, 78, 49
1, 115199, Note_on_c, 0, 78, 0
1, 115200, Note_on_c, 0, 75, 49
1, 115919, Note_on_c, 0, 75, 0
1, 115920, Note_on_c, 0, 83, 49
1, 116039, Note_on_c, 0, 83, 0
1, 116040, Note_on_c, 0, 81, 49
1, 116159, Note_on_c, 0, 81, 0
1, 116160, Note_on_c, 0, 80, 49
1, 116279, Note_on_c, 0, 80, 0
1, 116280, Note_on_c, 0, 77, 49
1, 116399, Note_on_c, 0, 77, 0
1, 116400, Note_on_c, 0, 76, 49
1, 116519, Note_on_c, 0, 76, 0
1, 116520, Note_on_c, 0, 74, 49
1, 116639, Note_on_c, 0, 74, 0
1, 116640, Note_on_c, 0, 73, 49
1, 117359, Note_on_c, 0, 73, 0
1, 117360, Note_on_c, 0, 81, 49
1, 117479, Note_on_c, 0, 81, 0
1, 117480, Note_on_c, 0, 79, 49
1, 117599, Note_on_c, 0, 79, 0
1, 117600, Note_on_c, 0, 78, 49
1, 117719, Note_on_c, 0, 78, 0
1, 117720, Note_on_c, 0, 75, 49
1, 117839, Note_on_c, 0, 75, 0
1, 117840, Note_on_c, 0, 74, 49
1, 117959, Note_on_c, 0, 74, 0
1, 117960, Note_on_c, 0, 72, 49
1, 118079, Note_on_c, 0, 72, 0
1, 118080, Note_on_c, 0, 71, 49
1, 118799, Note_on_c, 0, 71, 0
1, 118800, Note_on_c, 0, 79, 49
1, 118919, Note_on_c, 0, 79, 0
1, 118920, Note_on_c, 0, 77, 49
1, 119039, Note_on_c, 0, 77, 0
1, 119040, Note_on_c, 0, 76, 49
1, 119159, Note_on_c, 0, 76, 0
1, 119160, Note_on_c, 0, 74, 49
1, 119279, Note_on_c, 0, 74, 0
1, 119280, Note_on_c, 0, 72, 49
1, 119399, Note_on_c, 0, 72, 0
1, 119400, Note_on_c, 0, 70, 49
1, 119519, Note_on_c, 0, 70, 0
1, 119520, Note_on_c, 0, 69, 49
1, 120239, Note_on_c, 0, 69, 0
1, 120240, Note_on_c, 0, 70, 49
1, 120359, Note_on_c, 0, 70, 0
1, 120360, Note_on_c, 0, 72, 49
1, 120479, Note_on_c, 0, 72, 0
1, 120480, Note_on_c, 0, 74, 49
1, 120599, Note_on_c, 0, 74, 0
1, 120600, Note_on_c, 0, 75, 49
1, 120719, Note_on_c, 0, 75, 0
1, 120720, Note_on_c, 0, 77, 49
1, 120839, Note_on_c, 0, 77, 0
1, 120840, Note_on_c, 0, 79, 49
1, 120959, Note_on_c, 0, 79, 0
1, 120960, Note_on_c, 0, 80, 49
1, 121199, Note_on_c, 0, 80, 0
1, 121200, Note_on_c, 0, 79, 49
1, 121439, Note_on_c, 0, 79, 0
1, 121440, Note_on_c, 0, 77, 49
1, 121679, Note_on_c, 0, 77, 0
1, 121680, Note_on_c, 0, 76, 49
1, 121799, Note_on_c, 0, 76, 0
1, 121800, Note_on_c, 0, 85, 49
1, 121919, Note_on_c, 0, 85, 0
1, 121920, Note_on_c, 0, 84, 49
1, 122039, Note_on_c, 0, 84, 0
1, 122040, Note_on_c, 0, 82, 49
1, 122159, Note_on_c, 0, 82, 0
1, 122160, Note_on_c, 0, 80, 49
1, 122279, Note_on_c, 0, 80, 0
1, 122280, Note_on_c, 0, 79, 49
1, 122399, Note_on_c, 0, 79, 0
1, 122400, Note_on_c, 0, 77, 49
1, 122519, Note_on_c, 0, 77, 0
1, 122520, Note_on_c, 0, 84, 49
1, 122639, Note_on_c, 0, 84, 0
1, 122640, Note_on_c, 0, 80, 49
1, 122759, Note_on_c, 0, 80, 0
1, 122760, Note_on_c, 0, 79, 49
1, 122879, Note_on_c, 0, 79, 0
1, 122880, Note_on_c, 0, 77, 49
1, 122999, Note_on_c, 0, 77, 0
1, 123000, Note_on_c, 0, 75, 49
1, 123119, Note_on_c, 0, 75, 0
1, 123120, Note_on_c, 0, 74, 49
1, 123239, Note_on_c, 0, 74, 0
1, 123240, Note_on_c, 0, 84, 49
1, 123359, Note_on_c, 0, 84, 0
1, 123360, Note_on_c, 0, 82, 49
1, 123479, Note_on_c, 0, 82, 0
1, 123480, Note_on_c, 0, 80, 49
1, 123599, Note_on_c, 0, 80, 0
1, 123600, Note_on_c, 0, 79, 49
1, 123719, Note_on_c, 0, 79, 0
1, 123720, Note_on_c, 0, 77, 49
1, 123839, Note_on_c, 0, 77, 0
1, 123840, Note_on_c, 0, 75, 49
1, 123959, Note_on_c, 0, 75, 0
1, 123960, Note_on_c, 0, 82, 49
1, 124079, Note_on_c, 0, 82, 0
1, 124080, Note_on_c, 0, 80, 49
1, 124199, Note_on_c, 0, 80, 0
1, 124200, Note_on_c, 0, 79, 49
1, 124319, Note_on_c, 0, 79, 0
1, 124320, Note_on_c, 0, 77, 49
1, 124439, Note_on_c, 0, 77, 0
1, 124440, Note_on_c, 0, 75, 49
1, 124559, Note_on_c, 0, 75, 0
1, 124560, Note_on_c, 0, 73, 49
1, 125279, Note_on_c, 0, 73, 0
1, 125280, Note_on_c, 0, 72, 49
1, 125399, Note_on_c, 0, 72, 0
1, 125400, Note_on_c, 0, 79, 49
1, 125519, Note_on_c, 0, 79, 0
1, 125520, Note_on_c, 0, 77, 49
1, 125639, Note_on_c, 0, 77, 0
1, 125640, Note_on_c, 0, 75, 49
1, 125759, Note_on_c, 0, 75, 0
1, 125760, Note_on_c, 0, 74, 49
1, 125879, Note_on_c, 0, 74, 0
1, 125880, Note_on_c, 0, 72, 49
1, 125999, Note_on_c, 0, 72, 0
1, 126000, Note_on_c, 0, 78, 49
1, 126959, Note_on_c, 0, 78, 0
1, 126960, Note_on_c, 0, 79, 49
1, 127199, Note_on_c, 0, 79, 0
1, 127200, Note_on_c, 0, 81, 49
1, 127439, Note_on_c, 0, 81, 0
1, 127440, Note_on_c, 0, 82, 49
1, 127679, Note_on_c, 0, 82, 0
1, 127680, Note_on_c, 0, 84, 49
1, 127919, Note_on_c, 0, 84, 0
1, 127920, Note_on_c, 0, 86, 49
1, 128159, Note_on_c, 0, 86, 0
1, 128160, Note_on_c, 0, 75, 49
1, 128399, Note_on_c, 0, 75, 0
1, 128400, Note_on_c, 0, 74, 49
1, 128639, Note_on_c, 0, 74, 0
1, 128640, Note_on_c, 0, 72, 49
1, 128879, Note_on_c, 0, 72, 0
1, 128880, Note_on_c, 0, 80, 49
1, 128999, Note_on_c, 0, 80, 0
1, 129000, Note_on_c, 0, 82, 49
1, 129119, Note_on_c, 0, 82, 0
1, 129120, Note_on_c, 0, 79, 49
1, 129239, Note_on_c, 0, 79, 0
1, 129240, Note_on_c, 0, 80, 49
1, 129359, Note_on_c, 0, 80, 0
1, 129360, Note_on_c, 0, 78, 49
1, 129599, Note_on_c, 0, 78, 0
1, 129600, Note_on_c, 0, 84, 49
1, 129719, Note_on_c, 0, 84, 0
1, 129720, Note_on_c, 0, 86, 49
1, 129839, Note_on_c, 0, 86, 0
1, 129840, Note_on_c, 0, 82, 49
1, 129959, Note_on_c, 0, 82, 0
1, 129960, Note_on_c, 0, 84, 49
1, 130079, Note_on_c, 0, 84, 0
1, 130080, Note_on_c, 0, 80, 49
1, 130319, Note_on_c, 0, 80, 0
1, 130320, Note_on_c, 0, 87, 49
1, 130559, Note_on_c, 0, 87, 0
1, 130560, Note_on_c, 0, 86, 49
1, 130799, Note_on_c, 0, 86, 0
1, 130800, Note_on_c, 0, 84, 49
1, 131039, Note_on_c, 0, 84, 0
1, 131040, Note_on_c, 0, 82, 49
1, 131519, Note_on_c, 0, 82, 0
1, 131520, Note_on_c, 0, 80, 49
1, 131758, Note_on_c, 0, 80, 0
1, 131760, Note_on_c, 0, 84, 49
1, 131999, Note_on_c, 0, 84, 0
1, 132000, Note_on_c, 0, 82, 49
1, 132239, Note_on_c, 0, 82, 0
1, 132240, Note_on_c, 0, 80, 49
1, 132479, Note_on_c, 0, 80, 0
1, 132480, Note_on_c, 0, 79, 49
1, 132959, Note_on_c, 0, 79, 0
1, 132960, Note_on_c, 0, 78, 49
1, 133198, Note_on_c, 0, 78, 0
1, 133200, Note_on_c, 0, 79, 49
1, 133439, Note_on_c, 0, 79, 0
1, 133440, Note_on_c, 0, 77, 49
1, 133679, Note_on_c, 0, 77, 0
1, 133680, Note_on_c, 0, 75, 49
1, 133919, Note_on_c, 0, 75, 0
1, 133920, Note_on_c, 0, 74, 49
1, 134399, Note_on_c, 0, 74, 0
1, 134400, Note_on_c, 0, 73, 49
1, 134638, Note_on_c, 0, 73, 0
1, 134640, Note_on_c, 0, 74, 49
1, 134999, Note_on_c, 0, 74, 0
1, 135000, Note_on_c, 0, 76, 49
1, 135059, Note_on_c, 0, 76, 0
1, 135060, Note_on_c, 0, 78, 49
1, 135119, Note_on_c, 0, 78, 0
1, 135120, Note_on_c, 0, 79, 49
1, 135239, Note_on_c, 0, 79, 0
1, 135240, Note_on_c, 0, 81, 49
1, 135299, Note_on_c, 0, 81, 0
1, 135300, Note_on_c, 0, 82, 49
1, 135359, Note_on_c, 0, 82, 0
1, 135360, Note_on_c, 0, 84, 49
1, 135479, Note_on_c, 0, 84, 0
1, 135480, Note_on_c, 0, 81, 49
1, 135599, Note_on_c, 0, 81, 0
1, 135600, Note_on_c, 0, 78, 49
1, 135628, Note_on_c, 0, 78, 0
1, 135629, Note_on_c, 0, 79, 49
1, 135657, Note_on_c, 0, 79, 0
1, 135659, Note_on_c, 0, 78, 49
1, 135687, Note_on_c, 0, 78, 0
1, 135690, Note_on_c, 0, 79, 49
1, 135718, Note_on_c, 0, 79, 0
1, 135719, Note_on_c, 0, 78, 49
1, 135747, Note_on_c, 0, 78, 0
1, 135749, Note_on_c, 0, 79, 49
1, 135777, Note_on_c, 0, 79, 0
1, 135780, Note_on_c, 0, 78, 49
1, 135808, Note_on_c, 0, 78, 0
1, 135809, Note_on_c, 0, 79, 49
1, 135837, Note_on_c, 0, 79, 0
1, 135839, Note_on_c, 0, 78, 49
1, 135867, Note_on_c, 0, 78, 0
1, 135870, Note_on_c, 0, 79, 49
1, 135898, Note_on_c, 0, 79, 0
1, 135899, Note_on_c, 0, 78, 49
1, 135927, Note_on_c, 0, 78, 0
1, 135929, Note_on_c, 0, 79, 49
1, 135957, Note_on_c, 0, 79, 0
1, 135960, Note_on_c, 0, 79, 49
1, 136079, Note_on_c, 0, 79, 0
1, 136080, Tempo, 857140
1, 136080, Note_on_c, 0, 79, 96
1, 136139, Note_on_c, 0, 79, 0
1, 136140, Note_on_c, 0, 62, 96
1, 136199, Note_on_c, 0, 62, 0
1, 136200, Note_on_c, 0, 74, 96
1, 136259, Note_on_c, 0, 74, 0
1, 136260, Note_on_c, 0, 62, 96
1, 136319, Note_on_c, 0, 62, 0
1, 136320, Note_on_c, 0, 74, 96
1, 136379, Note_on_c, 0, 74, 0
1, 136380, Note_on_c, 0, 62, 96
1, 136439, Note_on_c, 0, 62, 0
1, 136440, Note_on_c, 0, 74, 96
1, 136499, Note_on_c, 0, 74, 0
1, 136500, Note_on_c, 0, 62, 96
1, 136559, Note_on_c, 0, 62, 0
1, 136560, Note_on_c, 0, 74, 96
1, 136619, Note_on_c, 0, 74, 0
1, 136620, Note_on_c, 0, 62, 96
1, 136679, Note_on_c, 0, 62, 0
1, 136680, Note_on_c, 0, 74, 96
1, 136739, Note_on_c, 0, 74, 0
1, 136740, Note_on_c, 0, 62, 96
1, 136799, Note_on_c, 0, 62, 0
1, 136800, Note_on_c, 0, 72, 96
1, 136859, Note_on_c, 0, 72, 0
1, 136860, Note_on_c, 0, 62, 96
1, 136919, Note_on_c, 0, 62, 0
1, 136920, Note_on_c, 0, 72, 96
1, 136979, Note_on_c, 0, 72, 0
1, 136980, Note_on_c, 0, 62, 96
1, 137039, Note_on_c, 0, 62, 0
1, 137040, Note_on_c, 0, 72, 96
1, 137099, Note_on_c, 0, 72, 0
1, 137100, Note_on_c, 0, 62, 96
1, 137159, Note_on_c, 0, 62, 0
1, 137160, Note_on_c, 0, 72, 96
1, 137219, Note_on_c, 0, 72, 0
1, 137220, Note_on_c, 0, 62, 96
1, 137279, Note_on_c, 0, 62, 0
1, 137280, Note_on_c, 0, 72, 96
1, 137339, Note_on_c, 0, 72, 0
1, 137340, Note_on_c, 0, 62, 96
1, 137399, Note_on_c, 0, 62, 0
1, 137400, Note_on_c, 0, 72, 96
1, 137459, Note_on_c, 0, 72, 0
1, 137460, Note_on_c, 0, 62, 96
1, 137519, Note_on_c, 0, 62, 0
1, 137520, Note_on_c, 0, 70, 96
1, 137579, Note_on_c, 0, 70, 0
1, 137580, Note_on_c, 0, 62, 96
1, 137639, Note_on_c, 0, 62, 0
1, 137640, Note_on_c, 0, 70, 96
1, 137699, Note_on_c, 0, 70, 0
1, 137700, Note_on_c, 0, 62, 96
1, 137759, Note_on_c, 0, 62, 0
1, 137760, Note_on_c, 0, 70, 96
1, 137819, Note_on_c, 0, 70, 0
1, 137820, Note_on_c, 0, 62, 96
1, 137879, Note_on_c, 0, 62, 0
1, 137880, Note_on_c, 0, 70, 96
1, 137939, Note_on_c, 0, 70, 0
1, 137940, Note_on_c, 0, 62, 96
1, 137999, Note_on_c, 0, 62, 0
1, 138000, Note_on_c, 0, 70, 96
1, 138059, Note_on_c, 0, 70, 0
1, 138060, Note_on_c, 0, 62, 96
1, 138119, Note_on_c, 0, 62, 0
1, 138120, Note_on_c, 0, 70, 96
1, 138179, Note_on_c, 0, 70, 0
1, 138180, Note_on_c, 0, 62, 96
1, 138239, Note_on_c, 0, 62, 0
1, 138240, Note_on_c, 0, 69, 96
1, 138299, Note_on_c, 0, 69, 0
1, 138300, Note_on_c, 0, 62, 96
1, 138359, Note_on_c, 0, 62, 0
1, 138360, Note_on_c, 0, 69, 96
1, 138419, Note_on_c, 0, 69, 0
1, 138420, Note_on_c, 0, 62, 96
1, 138479, Note_on_c, 0, 62, 0
1, 138480, Note_on_c, 0, 69, 96
1, 138539, Note_on_c, 0, 69, 0
1, 138540, Note_on_c, 0, 62, 96
1, 138599, Note_on_c, 0, 62, 0
1, 138600, Note_on_c, 0, 69, 96
1, 138659, Note_on_c, 0, 69, 0
1, 138660, Note_on_c, 0, 62, 96
1, 138719, Note_on_c, 0, 62, 0
1, 138720, Note_on_c, 0, 69, 96
1, 138779, Note_on_c, 0, 69, 0
1, 138780, Note_on_c, 0, 62, 96
1, 138839, Note_on_c, 0, 62, 0
1, 138840, Note_on_c, 0, 69, 96
1, 138899, Note_on_c, 0, 69, 0
1, 138900, Note_on_c, 0, 62, 96
1, 138959, Note_on_c, 0, 62, 0
1, 138960, Note_on_c, 0, 74, 96
1, 139019, Note_on_c, 0, 74, 0
1, 139020, Note_on_c, 0, 62, 96
1, 139079, Note_on_c, 0, 62, 0
1, 139080, Note_on_c, 0, 74, 96
1, 139139, Note_on_c, 0, 74, 0
1, 139140, Note_on_c, 0, 62, 96
1, 139199, Note_on_c, 0, 62, 0
1, 139200, Note_on_c, 0, 74, 96
1, 139259, Note_on_c, 0, 74, 0
1, 139260, Note_on_c, 0, 62, 96
1, 139319, Note_on_c, 0, 62, 0
1, 139320, Note_on_c, 0, 74, 96
1, 139379, Note_on_c, 0, 74, 0
1, 139380, Note_on_c, 0, 62, 96
1, 139439, Note_on_c, 0, 62, 0
1, 139440, Note_on_c, 0, 74, 96
1, 139499, Note_on_c, 0, 74, 0
1, 139500, Note_on_c, 0, 62, 96
1, 139559, Note_on_c, 0, 62, 0
1, 139560, Note_on_c, 0, 74, 96
1, 139619, Note_on_c, 0, 74, 0
1, 139620, Note_on_c, 0, 62, 96
1, 139679, Note_on_c, 0, 62, 0
1, 139680, Note_on_c, 0, 72, 96
1, 139739, Note_on_c, 0, 72, 0
1, 139740, Note_on_c, 0, 62, 96
1, 139799, Note_on_c, 0, 62, 0
1, 139800, Note_on_c, 0, 72, 96
1, 139859, Note_on_c, 0, 72, 0
1, 139860, Note_on_c, 0, 62, 96
1, 139919, Note_on_c, 0, 62, 0
1, 139920, Note_on_c, 0, 72, 96
1, 139979, Note_on_c, 0, 72, 0
1, 139980, Note_on_c, 0, 62, 96
1, 140039, Note_on_c, 0, 62, 0
1, 140040, Note_on_c, 0, 72, 96
1, 140099, Note_on_c, 0, 72, 0
1, 140100, Note_on_c, 0, 62, 96
1, 140159, Note_on_c, 0, 62, 0
1, 140160, Note_on_c, 0, 72, 96
1, 140219, Note_on_c, 0, 72, 0
1, 140220, Note_on_c, 0, 62, 96
1, 140279, Note_on_c, 0, 62, 0
1, 140280, Note_on_c, 0, 72, 96
1, 140339, Note_on_c, 0, 72, 0
1, 140340, Note_on_c, 0, 62, 96
1, 140399, Note_on_c, 0, 62, 0
1, 140400, Note_on_c, 0, 70, 96
1, 140459, Note_on_c, 0, 70, 0
1, 140460, Note_on_c, 0, 62, 96
1, 140519, Note_on_c, 0, 62, 0
1, 140520, Note_on_c, 0, 70, 96
1, 140579, Note_on_c, 0, 70, 0
1, 140580, Note_on_c, 0, 62, 96
1, 140639, Note_on_c, 0, 62, 0
1, 140640, Note_on_c, 0, 70, 96
1, 140699, Note_on_c, 0, 70, 0
1, 140700, Note_on_c, 0, 62, 96
1, 140759, Note_on_c, 0, 62, 0
1, 140760, Note_on_c, 0, 70, 96
1, 140819, Note_on_c, 0, 70, 0
1, 140820, Note_on_c, 0, 62, 96
1, 140879, Note_on_c, 0, 62, 0
1, 140880, Note_on_c, 0, 70, 96
1, 140939, Note_on_c, 0, 70, 0
1, 140940, Note_on_c, 0, 62, 96
1, 140999, Note_on_c, 0, 62, 0
1, 141000, Note_on_c, 0, 70, 96
1, 141059, Note_on_c, 0, 70, 0
1, 141060, Note_on_c, 0, 62, 96
1, 141119, Note_on_c, 0, 62, 0
1, 141120, Note_on_c, 0, 69, 96
1, 141179, Note_on_c, 0, 69, 0
1, 141180, Note_on_c, 0, 62, 96
1, 141239, Note_on_c, 0, 62, 0
1, 141240, Note_on_c, 0, 69, 96
1, 141299, Note_on_c, 0, 69, 0
1, 141300, Note_on_c, 0, 62, 96
1, 141359, Note_on_c, 0, 62, 0
1, 141360, Note_on_c, 0, 69, 96
1, 141419, Note_on_c, 0, 69, 0
1, 141420, Note_on_c, 0, 62, 96
1, 141479, Note_on_c, 0, 62, 0
1, 141480, Note_on_c, 0, 69, 96
1, 141539, Note_on_c, 0, 69, 0
1, 141540, Note_on_c, 0, 62, 96
1, 141599, Note_on_c, 0, 62, 0
1, 141600, Note_on_c, 0, 69, 96
1, 141659, Note_on_c, 0, 69, 0
1, 141660, Note_on_c, 0, 62, 96
1, 141719, Note_on_c, 0, 62, 0
1, 141720, Note_on_c, 0, 69, 96
1, 141779, Note_on_c, 0, 69, 0
1, 141780, Note_on_c, 0, 62, 96
1, 141839, Note_on_c, 0, 62, 0
1, 141840, Note_on_c, 0, 86, 96
1, 141899, Note_on_c, 0, 86, 0
1, 141900, Note_on_c, 0, 84, 96
1, 141959, Note_on_c, 0, 84, 0
1, 141960, Note_on_c, 0, 84, 96
1, 142019, Note_on_c, 0, 84, 0
1, 142020, Note_on_c, 0, 82, 96
1, 142079, Note_on_c, 0, 82, 0
1, 142080, Note_on_c, 0, 82, 96
1, 142139, Note_on_c, 0, 82, 0
1, 142140, Note_on_c, 0, 81, 96
1, 142199, Note_on_c, 0, 81, 0
1, 142200, Note_on_c, 0, 81, 96
1, 142259, Note_on_c, 0, 81, 0
1, 142260, Note_on_c, 0, 79, 96
1, 142319, Note_on_c, 0, 79, 0
1, 142320, Note_on_c, 0, 79, 96
1, 142379, Note_on_c, 0, 79, 0
1, 142380, Note_on_c, 0, 77, 96
1, 142439, Note_on_c, 0, 77, 0
1, 142440, Note_on_c, 0, 77, 96
1, 142499, Note_on_c, 0, 77, 0
1, 142500, Note_on_c, 0, 75, 96
1, 142559, Note_on_c, 0, 75, 0
1, 142560, Note_on_c, 0, 75, 96
1, 142619, Note_on_c, 0, 75, 0
1, 142620, Note_on_c, 0, 74, 96
1, 142679, Note_on_c, 0, 74, 0
1, 142680, Note_on_c, 0, 74, 96
1, 142739, Note_on_c, 0, 74, 0
1, 142740, Note_on_c, 0, 72, 96
1, 142799, Note_on_c, 0, 72, 0
1, 142800, Note_on_c, 0, 72, 96
1, 142859, Note_on_c, 0, 72, 0
1, 142860, Note_on_c, 0, 70, 96
1, 142919, Note_on_c, 0, 70, 0
1, 142920, Note_on_c, 0, 70, 96
1, 142979, Note_on_c, 0, 70, 0
1, 142980, Note_on_c, 0, 69, 96
1, 143039, Note_on_c, 0, 69, 0
1, 143040, Note_on_c, 0, 69, 96
1, 143099, Note_on_c, 0, 69, 0
1, 143100, Note_on_c, 0, 67, 96
1, 143159, Note_on_c, 0, 67, 0
1, 143160, Note_on_c, 0, 67, 96
1, 143219, Note_on_c, 0, 67, 0
1, 143220, Note_on_c, 0, 66, 96
1, 143279, Note_on_c, 0, 66, 0
1, 143280, Note_on_c, 0, 66, 96
1, 143339, Note_on_c, 0, 66, 0
1, 143340, Note_on_c, 0, 66, 96
1, 143399, Note_on_c, 0, 66, 0
1, 143400, Note_on_c, 0, 67, 96
1, 143459, Note_on_c, 0, 67, 0
1, 143460, Note_on_c, 0, 69, 96
1, 143519, Note_on_c, 0, 69, 0
1, 143520, Note_on_c, 0, 70, 96
1, 143579, Note_on_c, 0, 70, 0
1, 143580, Note_on_c, 0, 72, 96
1, 143639, Note_on_c, 0, 72, 0
1, 143640, Note_on_c, 0, 74, 96
1, 143699, Note_on_c, 0, 74, 0
1, 143700, Note_on_c, 0, 75, 96
1, 143759, Note_on_c, 0, 75, 0
1, 143760, Note_on_c, 0, 78, 96
1, 143819, Note_on_c, 0, 78, 0
1, 143820, Note_on_c, 0, 75, 96
1, 143879, Note_on_c, 0, 75, 0
1, 143880, Note_on_c, 0, 74, 96
1, 143939, Note_on_c, 0, 74, 0
1, 143940, Note_on_c, 0, 72, 96
1, 143999, Note_on_c, 0, 72, 0
1, 144000, Note_on_c, 0, 70, 96
1, 144059, Note_on_c, 0, 70, 0
1, 144060, Note_on_c, 0, 70, 96
1, 144119, Note_on_c, 0, 70, 0
1, 144120, Note_on_c, 0, 72, 96
1, 144179, Note_on_c, 0, 72, 0
1, 144180, Note_on_c, 0, 74, 96
1, 144239, Note_on_c, 0, 74, 0
1, 144240, Note_on_c, 0, 75, 96
1, 144299, Note_on_c, 0, 75, 0
1, 144300, Note_on_c, 0, 77, 96
1, 144359, Note_on_c, 0, 77, 0
1, 144360, Note_on_c, 0, 79, 96
1, 144419, Note_on_c, 0, 79, 0
1, 144420, Note_on_c, 0, 81, 96
1, 144479, Note_on_c, 0, 81, 0
1, 144480, Note_on_c, 0, 82, 96
1, 144539, Note_on_c, 0, 82, 0
1, 144540, Note_on_c, 0, 81, 96
1, 144599, Note_on_c, 0, 81, 0
1, 144600, Note_on_c, 0, 79, 96
1, 144659, Note_on_c, 0, 79, 0
1, 144660, Note_on_c, 0, 77, 96
1, 144719, Note_on_c, 0, 77, 0
1, 144720, Note_on_c, 0, 75, 96
1, 144779, Note_on_c, 0, 75, 0
1, 144780, Note_on_c, 0, 77, 96
1, 144839, Note_on_c, 0, 77, 0
1, 144840, Note_on_c, 0, 75, 96
1, 144899, Note_on_c, 0, 75, 0
1, 144900, Note_on_c, 0, 77, 96
1, 144959, Note_on_c, 0, 77, 0
1, 144960, Note_on_c, 0, 74, 96
1, 145019, Note_on_c, 0, 74, 0
1, 145020, Note_on_c, 0, 75, 96
1, 145079, Note_on_c, 0, 75, 0
1, 145080, Note_on_c, 0, 74, 96
1, 145139, Note_on_c, 0, 74, 0
1, 145140, Note_on_c, 0, 75, 96
1, 145199, Note_on_c, 0, 75, 0
1, 145200, Note_on_c, 0, 72, 96
1, 145259, Note_on_c, 0, 72, 0
1, 145260, Note_on_c, 0, 74, 96
1, 145319, Note_on_c, 0, 74, 0
1, 145320, Note_on_c, 0, 72, 96
1, 145379, Note_on_c, 0, 72, 0
1, 145380, Note_on_c, 0, 74, 96
1, 145439, Note_on_c, 0, 74, 0
1, 145440, Note_on_c, 0, 70, 96
1, 145499, Note_on_c, 0, 70, 0
1, 145500, Note_on_c, 0, 72, 96
1, 145559, Note_on_c, 0, 72, 0
1, 145560, Note_on_c, 0, 70, 96
1, 145619, Note_on_c, 0, 70, 0
1, 145620, Note_on_c, 0, 72, 96
1, 145679, Note_on_c, 0, 72, 0
1, 145680, Note_on_c, 0, 69, 96
1, 145739, Note_on_c, 0, 69, 0
1, 145740, Note_on_c, 0, 70, 96
1, 145799, Note_on_c, 0, 70, 0
1, 145800, Note_on_c, 0, 69, 96
1, 145859, Note_on_c, 0, 69, 0
1, 145860, Note_on_c, 0, 70, 96
1, 145919, Note_on_c, 0, 70, 0
1, 145920, Note_on_c, 0, 67, 96
1, 145979, Note_on_c, 0, 67, 0
1, 145980, Note_on_c, 0, 69, 96
1, 146039, Note_on_c, 0, 69, 0
1, 146040, Note_on_c, 0, 67, 96
1, 146099, Note_on_c, 0, 67, 0
1, 146100, Note_on_c, 0, 69, 96
1, 146159, Note_on_c, 0, 69, 0
1, 146160, Note_on_c, 0, 66, 96
1, 146219, Note_on_c, 0, 66, 0
1, 146220, Note_on_c, 0, 62, 96
1, 146279, Note_on_c, 0, 62, 0
1, 146280, Note_on_c, 0, 64, 96
1, 146339, Note_on_c, 0, 64, 0
1, 146340, Note_on_c, 0, 66, 96
1, 146399, Note_on_c, 0, 66, 0
1, 146400, Note_on_c, 0, 67, 96
1, 146459, Note_on_c, 0, 67, 0
1, 146460, Note_on_c, 0, 69, 96
1, 146519, Note_on_c, 0, 69, 0
1, 146520, Note_on_c, 0, 70, 96
1, 146579, Note_on_c, 0, 70, 0
1, 146580, Note_on_c, 0, 72, 96
1, 146639, Note_on_c, 0, 72, 0
1, 146640, Note_on_c, 0, 74, 96
1, 146699, Note_on_c, 0, 74, 0
1, 146700, Note_on_c, 0, 72, 96
1, 146759, Note_on_c, 0, 72, 0
1, 146760, Note_on_c, 0, 70, 96
1, 146819, Note_on_c, 0, 70, 0
1, 146820, Note_on_c, 0, 69, 96
1, 146879, Note_on_c, 0, 69, 0
1, 146880, Note_on_c, 0, 70, 96
1, 146939, Note_on_c, 0, 70, 0
1, 146940, Note_on_c, 0, 67, 96
1, 146999, Note_on_c, 0, 67, 0
1, 147000, Note_on_c, 0, 65, 96
1, 147059, Note_on_c, 0, 65, 0
1, 147060, Note_on_c, 0, 63, 96
1, 147119, Note_on_c, 0, 63, 0
1, 147120, Note_on_c, 0, 62, 96
1, 147179, Note_on_c, 0, 62, 0
1, 147180, Note_on_c, 0, 63, 96
1, 147239, Note_on_c, 0, 63, 0
1, 147240, Note_on_c, 0, 62, 96
1, 147299, Note_on_c, 0, 62, 0
1, 147300, Note_on_c, 0, 60, 96
1, 147359, Note_on_c, 0, 60, 0
1, 147360, Note_on_c, 0, 58, 96
1, 147419, Note_on_c, 0, 58, 0
1, 147420, Note_on_c, 0, 60, 96
1, 147479, Note_on_c, 0, 60, 0
1, 147480, Note_on_c, 0, 58, 96
1, 147539, Note_on_c, 0, 58, 0
1, 147540, Note_on_c, 0, 57, 96
1, 147599, Note_on_c, 0, 57, 0
1, 147600, Note_on_c, 0, 55, 96
1, 147659, Note_on_c, 0, 55, 0
1, 147660, Note_on_c, 0, 67, 96
1, 147719, Note_on_c, 0, 67, 0
1, 147720, Note_on_c, 0, 65, 96
1, 147779, Note_on_c, 0, 65, 0
1, 147780, Note_on_c, 0, 63, 96
1, 147839, Note_on_c, 0, 63, 0
1, 147840, Note_on_c, 0, 62, 96
1, 147899, Note_on_c, 0, 62, 0
1, 147900, Note_on_c, 0, 63, 96
1, 147959, Note_on_c, 0, 63, 0
1, 147960, Note_on_c, 0, 62, 96
1, 148019, Note_on_c, 0, 62, 0
1, 148020, Note_on_c, 0, 60, 96
1, 148079, Note_on_c, 0, 60, 0
1, 148080, Note_on_c, 0, 58, 96
1, 148139, Note_on_c, 0, 58, 0
1, 148140, Note_on_c, 0, 60, 96
1, 148199, Note_on_c, 0, 60, 0
1, 148200, Note_on_c, 0, 58, 96
1, 148259, Note_on_c, 0, 58, 0
1, 148260, Note_on_c, 0, 57, 96
1, 148319, Note_on_c, 0, 57, 0
1, 148320, Note_on_c, 0, 55, 96
1, 148379, Note_on_c, 0, 55, 0
1, 148380, Note_on_c, 0, 67, 96
1, 148439, Note_on_c, 0, 67, 0
1, 148440, Note_on_c, 0, 65, 96
1, 148499, Note_on_c, 0, 65, 0
1, 148500, Note_on_c, 0, 63, 96
1, 148559, Note_on_c, 0, 63, 0
1, 148560, Note_on_c, 0, 62, 96
1, 148619, Note_on_c, 0, 62, 0
1, 148620, Note_on_c, 0, 63, 96
1, 148679, Note_on_c, 0, 63, 0
1, 148680, Note_on_c, 0, 62, 96
1, 148739, Note_on_c, 0, 62, 0
1, 148740, Note_on_c, 0, 60, 96
1, 148799, Note_on_c, 0, 60, 0
1, 148800, Note_on_c, 0, 58, 96
1, 148859, Note_on_c, 0, 58, 0
1, 148860, Note_on_c, 0, 60, 96
1, 148919, Note_on_c, 0, 60, 0
1, 148920, Note_on_c, 0, 58, 96
1, 148979, Note_on_c, 0, 58, 0
1, 148980, Note_on_c, 0, 57, 96
1, 149039, Note_on_c, 0, 57, 0
1, 149040, Note_on_c, 0, 55, 96
1, 149099, Note_on_c, 0, 55, 0
1, 149100, Note_on_c, 0, 67, 96
1, 149159, Note_on_c, 0, 67, 0
1, 149160, Note_on_c, 0, 65, 96
1, 149219, Note_on_c, 0, 65, 0
1, 149220, Note_on_c, 0, 63, 96
1, 149279, Note_on_c, 0, 63, 0
1, 149280, Note_on_c, 0, 62, 96
1, 149339, Note_on_c, 0, 62, 0
1, 149340, Note_on_c, 0, 63, 96
1, 149399, Note_on_c, 0, 63, 0
1, 149400, Note_on_c, 0, 62, 96
1, 149459, Note_on_c, 0, 62, 0
1, 149460, Note_on_c, 0, 60, 96
1, 149519, Note_on_c, 0, 60, 0
1, 149520, Note_on_c, 0, 58, 96
1, 149579, Note_on_c, 0, 58, 0
1, 149580, Note_on_c, 0, 60, 96
1, 149639, Note_on_c, 0, 60, 0
1, 149640, Note_on_c, 0, 58, 96
1, 149699, Note_on_c, 0, 58, 0
1, 149700, Note_on_c, 0, 57, 96
1, 149759, Note_on_c, 0, 57, 0
1, 149760, Tempo, 1200000
1, 149760, Note_on_c, 0, 55, 96
1, 150479, Note_on_c, 0, 55, 0
1, 150480, End_track
2, 0, Start_track
2, 0, Key_signature, -2, "major"
2, 0, Control_c, 3, 121, 0
2, 0, Program_c, 3, 40
2, 0, Control_c, 3, 7, 100
2, 0, Control_c, 3, 10, 64
2, 0, Control_c, 3, 91, 0
2, 0, Control_c, 3, 93, 0
2, 0, MIDI_port, 0
2, 0, Control_c, 4, 121, 0
2, 0, Program_c, 4, 45
2, 0, Control_c, 4, 7, 100
2, 0, Control_c, 4, 10, 64
2, 0, Control_c, 4, 91, 0
2, 0, Control_c, 4, 93, 0
2, 0, MIDI_port, 0
2, 0, Control_c, 5, 121, 0
2, 0, Program_c, 5, 44
2, 0, Control_c, 5, 7, 100
2, 0, Control_c, 5, 10, 64
2, 0, Control_c, 5, 91, 0
2, 0, Control_c, 5, 93, 0
2, 0, MIDI_port, 0
2, 240, Note_on_c, 3, 82, 49
2, 479, Note_on_c, 3, 82, 0
2, 480, Note_on_c, 3, 81, 49
2, 719, Note_on_c, 3, 81, 0
2, 960, Note_on_c, 3, 70, 49
2, 1199, Note_on_c, 3, 70, 0
2, 1200, Note_on_c, 3, 69, 49
2, 1439, Note_on_c, 3, 69, 0
2, 1680, Note_on_c, 3, 72, 49
2, 1799, Note_on_c, 3, 72, 0
2, 1800, Note_on_c, 3, 74, 49
2, 1919, Note_on_c, 3, 74, 0
2, 1920, Note_on_c, 3, 75, 49
2, 2159, Note_on_c, 3, 75, 0
2, 2400, Note_on_c, 3, 69, 49
2, 2519, Note_on_c, 3, 69, 0
2, 2520, Note_on_c, 3, 70, 49
2, 2639, Note_on_c, 3, 70, 0
2, 2640, Note_on_c, 3, 72, 49
2, 2879, Note_on_c, 3, 72, 0
2, 2880, Note_on_c, 3, 82, 49
2, 3359, Note_on_c, 3, 82, 0
2, 3600, Note_on_c, 3, 72, 49
2, 3839, Note_on_c, 3, 72, 0
2, 3840, Note_on_c, 3, 70, 49
2, 4079, Note_on_c, 3, 70, 0
2, 4080, Note_on_c, 3, 69, 49
2, 4319, Note_on_c, 3, 69, 0
2, 4320, Note_on_c, 3, 84, 49
2, 4799, Note_on_c, 3, 84, 0
2, 5040, Note_on_c, 3, 74, 49
2, 5279, Note_on_c, 3, 74, 0
2, 5280, Note_on_c, 3, 72, 49
2, 5519, Note_on_c, 3, 72, 0
2, 5520, Note_on_c, 3, 70, 49
2, 5759, Note_on_c, 3, 70, 0
2, 5760, Note_on_c, 3, 86, 49
2, 6239, Note_on_c, 3, 86, 0
2, 6480, Note_on_c, 3, 75, 49
2, 6719, Note_on_c, 3, 75, 0
2, 6720, Note_on_c, 3, 74, 49
2, 6959, Note_on_c, 3, 74, 0
2, 6960, Note_on_c, 3, 72, 49
2, 7199, Note_on_c, 3, 72, 0
2, 7200, Note_on_c, 3, 66, 49
2, 7919, Note_on_c, 3, 66, 0
2, 7920, Note_on_c, 3, 82, 49
2, 8159, Note_on_c, 3, 82, 0
2, 8160, Note_on_c, 3, 81, 49
2, 8399, Note_on_c, 3, 81, 0
2, 8400, Note_on_c, 3, 79, 49
2, 8639, Note_on_c, 3, 79, 0
2, 8640, Note_on_c, 3, 78, 49
2, 8879, Note_on_c, 3, 78, 0
2, 8880, Note_on_c, 3, 75, 49
2, 9119, Note_on_c, 3, 75, 0
2, 9120, Note_on_c, 3, 74, 49
2, 9359, Note_on_c, 3, 74, 0
2, 9360, Note_on_c, 3, 72, 49
2, 10799, Note_on_c, 3, 72, 0
2, 10800, Note_on_c, 3, 84, 49
2, 11039, Note_on_c, 3, 84, 0
2, 11040, Note_on_c, 3, 82, 49
2, 11279, Note_on_c, 3, 82, 0
2, 11280, Note_on_c, 3, 81, 49
2, 11519, Note_on_c, 3, 81, 0
2, 11520, Note_on_c, 3, 79, 49
2, 11759, Note_on_c, 3, 79, 0
2, 11760, Note_on_c, 3, 78, 49
2, 11999, Note_on_c, 3, 78, 0
2, 12000, Note_on_c, 3, 75, 49
2, 12239, Note_on_c, 3, 75, 0
2, 12240, Note_on_c, 3, 74, 49
2, 14159, Note_on_c, 3, 74, 0
2, 14640, Note_on_c, 3, 82, 49
2, 14759, Note_on_c, 3, 82, 0
2, 14760, Note_on_c, 3, 84, 49
2, 14879, Note_on_c, 3, 84, 0
2, 14880, Note_on_c, 3, 86, 49
2, 15119, Note_on_c, 3, 86, 0
2, 15360, Note_on_c, 3, 80, 49
2, 15479, Note_on_c, 3, 80, 0
2, 15480, Note_on_c, 3, 82, 49
2, 15599, Note_on_c, 3, 82, 0
2, 15600, Note_on_c, 3, 84, 49
2, 15839, Note_on_c, 3, 84, 0
2, 16080, Note_on_c, 3, 79, 49
2, 16199, Note_on_c, 3, 79, 0
2, 16200, Note_on_c, 3, 81, 49
2, 16319, Note_on_c, 3, 81, 0
2, 16320, Note_on_c, 3, 82, 49
2, 16559, Note_on_c, 3, 82, 0
2, 16800, Note_on_c, 3, 78, 49
2, 16919, Note_on_c, 3, 78, 0
2, 16920, Note_on_c, 3, 79, 49
2, 17039, Note_on_c, 3, 79, 0
2, 17040, Note_on_c, 3, 81, 49
2, 17279, Note_on_c, 3, 81, 0
2, 17520, Note_on_c, 3, 79, 49
2, 17999, Note_on_c, 3, 79, 0
2, 18240, Note_on_c, 3, 70, 49
2, 18359, Note_on_c, 3, 70, 0
2, 18360, Note_on_c, 3, 72, 49
2, 18479, Note_on_c, 3, 72, 0
2, 18480, Note_on_c, 3, 74, 49
2, 18719, Note_on_c, 3, 74, 0
2, 18960, Note_on_c, 3, 68, 49
2, 19079, Note_on_c, 3, 68, 0
2, 19080, Note_on_c, 3, 70, 49
2, 19199, Note_on_c, 3, 70, 0
2, 19200, Note_on_c, 3, 72, 49
2, 19439, Note_on_c, 3, 72, 0
2, 19680, Note_on_c, 3, 67, 49
2, 19799, Note_on_c, 3, 67, 0
2, 19800, Note_on_c, 3, 69, 49
2, 19919, Note_on_c, 3, 69, 0
2, 19920, Note_on_c, 3, 70, 49
2, 20159, Note_on_c, 3, 70, 0
2, 20400, Note_on_c, 3, 66, 49
2, 20519, Note_on_c, 3, 66, 0
2, 20520, Note_on_c, 3, 67, 49
2, 20639, Note_on_c, 3, 67, 0
2, 20640, Note_on_c, 3, 69, 49
2, 20879, Note_on_c, 3, 69, 0
2, 21120, Note_on_c, 3, 67, 49
2, 21599, Note_on_c, 3, 67, 0
2, 56280, Note_on_c, 3, 79, 96
2, 56399, Note_on_c, 3, 79, 0
2, 56400, Note_on_c, 3, 79, 96
2, 56519, Note_on_c, 3, 79, 0
2, 56520, Note_on_c, 3, 79, 96
2, 56639, Note_on_c, 3, 79, 0
2, 56640, Note_on_c, 3, 79, 96
2, 56759, Note_on_c, 3, 79, 0
2, 56760, Note_on_c, 3, 79, 96
2, 56879, Note_on_c, 3, 79, 0
2, 56880, Note_on_c, 3, 74, 96
2, 56999, Note_on_c, 3, 74, 0
2, 57000, Note_on_c, 3, 79, 96
2, 57119, Note_on_c, 3, 79, 0
2, 57120, Note_on_c, 3, 70, 96
2, 57239, Note_on_c, 3, 70, 0
2, 57240, Note_on_c, 3, 79, 96
2, 57359, Note_on_c, 3, 79, 0
2, 57360, Note_on_c, 3, 79, 96
2, 57479, Note_on_c, 3, 79, 0
2, 57480, Note_on_c, 3, 79, 96
2, 57599, Note_on_c, 3, 79, 0
2, 57600, Note_on_c, 3, 79, 96
2, 57719, Note_on_c, 3, 79, 0
2, 57720, Note_on_c, 3, 79, 96
2, 57839, Note_on_c, 3, 79, 0
2, 57840, Note_on_c, 3, 74, 96
2, 57959, Note_on_c, 3, 74, 0
2, 57960, Note_on_c, 3, 79, 96
2, 58079, Note_on_c, 3, 79, 0
2, 58080, Note_on_c, 3, 69, 96
2, 58199, Note_on_c, 3, 69, 0
2, 58200, Note_on_c, 3, 79, 96
2, 58319, Note_on_c, 3, 79, 0
2, 58320, Note_on_c, 3, 79, 96
2, 58439, Note_on_c, 3, 79, 0
2, 58440, Note_on_c, 3, 79, 96
2, 58559, Note_on_c, 3, 79, 0
2, 58560, Note_on_c, 3, 79, 96
2, 58679, Note_on_c, 3, 79, 0
2, 58680, Note_on_c, 3, 79, 96
2, 58799, Note_on_c, 3, 79, 0
2, 58800, Note_on_c, 3, 74, 96
2, 58919, Note_on_c, 3, 74, 0
2, 58920, Note_on_c, 3, 79, 96
2, 59039, Note_on_c, 3, 79, 0
2, 59040, Note_on_c, 3, 69, 96
2, 59159, Note_on_c, 3, 69, 0
2, 59160, Note_on_c, 3, 79, 96
2, 59279, Note_on_c, 3, 79, 0
2, 59280, Note_on_c, 3, 79, 96
2, 59399, Note_on_c, 3, 79, 0
2, 59400, Note_on_c, 3, 79, 96
2, 59519, Note_on_c, 3, 79, 0
2, 59520, Note_on_c, 3, 79, 96
2, 59639, Note_on_c, 3, 79, 0
2, 59640, Note_on_c, 3, 79, 96
2, 59759, Note_on_c, 3, 79, 0
2, 59760, Note_on_c, 3, 74, 96
2, 59879, Note_on_c, 3, 74, 0
2, 59880, Note_on_c, 3, 79, 96
2, 59999, Note_on_c, 3, 79, 0
2, 60000, Note_on_c, 3, 69, 96
2, 60119, Note_on_c, 3, 69, 0
2, 60120, Note_on_c, 3, 78, 96
2, 60239, Note_on_c, 3, 78, 0
2, 60240, Note_on_c, 3, 78, 96
2, 60359, Note_on_c, 3, 78, 0
2, 60360, Note_on_c, 3, 78, 96
2, 60479, Note_on_c, 3, 78, 0
2, 60480, Note_on_c, 3, 78, 96
2, 60599, Note_on_c, 3, 78, 0
2, 60600, Note_on_c, 3, 78, 96
2, 60719, Note_on_c, 3, 78, 0
2, 60720, Note_on_c, 3, 74, 96
2, 60839, Note_on_c, 3, 74, 0
2, 60840, Note_on_c, 3, 78, 96
2, 60959, Note_on_c, 3, 78, 0
2, 60960, Note_on_c, 3, 69, 96
2, 61079, Note_on_c, 3, 69, 0
2, 61080, Note_on_c, 3, 78, 96
2, 61199, Note_on_c, 3, 78, 0
2, 61200, Note_on_c, 3, 78, 96
2, 61319, Note_on_c, 3, 78, 0
2, 61320, Note_on_c, 3, 78, 96
2, 61439, Note_on_c, 3, 78, 0
2, 61440, Note_on_c, 3, 78, 96
2, 61559, Note_on_c, 3, 78, 0
2, 61560, Note_on_c, 3, 78, 96
2, 61679, Note_on_c, 3, 78, 0
2, 61680, Note_on_c, 3, 74, 96
2, 61799, Note_on_c, 3, 74, 0
2, 61800, Note_on_c, 3, 78, 96
2, 61919, Note_on_c, 3, 78, 0
2, 61920, Note_on_c, 3, 79, 96
2, 62159, Note_on_c, 3, 79, 0
2, 62160, Note_on_c, 3, 82, 49
2, 62399, Note_on_c, 3, 82, 0
2, 62400, Note_on_c, 3, 81, 49
2, 62639, Note_on_c, 3, 81, 0
2, 62880, Note_on_c, 3, 70, 49
2, 63119, Note_on_c, 3, 70, 0
2, 63120, Note_on_c, 3, 69, 49
2, 63359, Note_on_c, 3, 69, 0
2, 63600, Note_on_c, 3, 82, 49
2, 63719, Note_on_c, 3, 82, 0
2, 63720, Note_on_c, 3, 84, 49
2, 63839, Note_on_c, 3, 84, 0
2, 63840, Note_on_c, 3, 86, 49
2, 64079, Note_on_c, 3, 86, 0
2, 64320, Note_on_c, 3, 80, 49
2, 64439, Note_on_c, 3, 80, 0
2, 64440, Note_on_c, 3, 82, 49
2, 64559, Note_on_c, 3, 82, 0
2, 64560, Note_on_c, 3, 84, 49
2, 64799, Note_on_c, 3, 84, 0
2, 65040, Note_on_c, 3, 79, 49
2, 65159, Note_on_c, 3, 79, 0
2, 65160, Note_on_c, 3, 81, 49
2, 65279, Note_on_c, 3, 81, 0
2, 65280, Note_on_c, 3, 82, 49
2, 65519, Note_on_c, 3, 82, 0
2, 65760, Note_on_c, 3, 78, 49
2, 65879, Note_on_c, 3, 78, 0
2, 65880, Note_on_c, 3, 79, 49
2, 65999, Note_on_c, 3, 79, 0
2, 66000, Note_on_c, 3, 81, 49
2, 66239, Note_on_c, 3, 81, 0
2, 66480, Note_on_c, 3, 79, 49
2, 66959, Note_on_c, 3, 79, 0
2, 75600, Note_on_c, 3, 82, 49
2, 75679, Note_on_c, 3, 82, 0
2, 75680, Note_on_c, 3, 84, 49
2, 75759, Note_on_c, 3, 84, 0
2, 75760, Note_on_c, 3, 86, 49
2, 75839, Note_on_c, 3, 86, 0
2, 75840, Note_on_c, 3, 82, 49
2, 75919, Note_on_c, 3, 82, 0
2, 75920, Note_on_c, 3, 84, 49
2, 75999, Note_on_c, 3, 84, 0
2, 76000, Note_on_c, 3, 86, 49
2, 76079, Note_on_c, 3, 86, 0
2, 76080, Note_on_c, 3, 82, 49
2, 76159, Note_on_c, 3, 82, 0
2, 76160, Note_on_c, 3, 84, 49
2, 76239, Note_on_c, 3, 84, 0
2, 76240, Note_on_c, 3, 86, 49
2, 76319, Note_on_c, 3, 86, 0
2, 76320, Note_on_c, 3, 82, 49
2, 76799, Note_on_c, 3, 82, 0
2, 80640, Note_on_c, 3, 82, 49
2, 80719, Note_on_c, 3, 82, 0
2, 80720, Note_on_c, 3, 84, 49
2, 80799, Note_on_c, 3, 84, 0
2, 80800, Note_on_c, 3, 86, 49
2, 80879, Note_on_c, 3, 86, 0
2, 80880, Note_on_c, 3, 82, 49
2, 80959, Note_on_c, 3, 82, 0
2, 80960, Note_on_c, 3, 84, 49
2, 81039, Note_on_c, 3, 84, 0
2, 81040, Note_on_c, 3, 86, 49
2, 81119, Note_on_c, 3, 86, 0
2, 81120, Note_on_c, 3, 82, 49
2, 81199, Note_on_c, 3, 82, 0
2, 81200, Note_on_c, 3, 84, 49
2, 81279, Note_on_c, 3, 84, 0
2, 81280, Note_on_c, 3, 86, 49
2, 81359, Note_on_c, 3, 86, 0
2, 81360, Note_on_c, 3, 81, 49
2, 81439, Note_on_c, 3, 81, 0
2, 81440, Note_on_c, 3, 82, 49
2, 81519, Note_on_c, 3, 82, 0
2, 81520, Note_on_c, 3, 84, 49
2, 81599, Note_on_c, 3, 84, 0
2, 81600, Note_on_c, 3, 81, 49
2, 81679, Note_on_c, 3, 81, 0
2, 81680, Note_on_c, 3, 82, 49
2, 81759, Note_on_c, 3, 82, 0
2, 81760, Note_on_c, 3, 84, 49
2, 81839, Note_on_c, 3, 84, 0
2, 81840, Note_on_c, 3, 81, 49
2, 81919, Note_on_c, 3, 81, 0
2, 81920, Note_on_c, 3, 82, 49
2, 81999, Note_on_c, 3, 82, 0
2, 82000, Note_on_c, 3, 84, 49
2, 82079, Note_on_c, 3, 84, 0
2, 82080, Note_on_c, 3, 82, 49
2, 82159, Note_on_c, 3, 82, 0
2, 82160, Note_on_c, 3, 84, 49
2, 82239, Note_on_c, 3, 84, 0
2, 82240, Note_on_c, 3, 86, 49
2, 82319, Note_on_c, 3, 86, 0
2, 82320, Note_on_c, 3, 82, 49
2, 82399, Note_on_c, 3, 82, 0
2, 82400, Note_on_c, 3, 84, 49
2, 82479, Note_on_c, 3, 84, 0
2, 82480, Note_on_c, 3, 86, 49
2, 82559, Note_on_c, 3, 86, 0
2, 82560, Note_on_c, 3, 82, 49
2, 82639, Note_on_c, 3, 82, 0
2, 82640, Note_on_c, 3, 84, 49
2, 82719, Note_on_c, 3, 84, 0
2, 82720, Note_on_c, 3, 86, 49
2, 82799, Note_on_c, 3, 86, 0
2, 82800, Note_on_c, 3, 81, 49
2, 82879, Note_on_c, 3, 81, 0
2, 82880, Note_on_c, 3, 82, 49
2, 82959, Note_on_c, 3, 82, 0
2, 82960, Note_on_c, 3, 84, 49
2, 83039, Note_on_c, 3, 84, 0
2, 83040, Note_on_c, 3, 81, 49
2, 83119, Note_on_c, 3, 81, 0
2, 83120, Note_on_c, 3, 82, 49
2, 83199, Note_on_c, 3, 82, 0
2, 83200, Note_on_c, 3, 84, 49
2, 83279, Note_on_c, 3, 84, 0
2, 83280, Note_on_c, 3, 81, 49
2, 83359, Note_on_c, 3, 81, 0
2, 83360, Note_on_c, 3, 82, 49
2, 83439, Note_on_c, 3, 82, 0
2, 83440, Note_on_c, 3, 84, 49
2, 83519, Note_on_c, 3, 84, 0
2, 83520, Note_on_c, 3, 82, 49
2, 83699, Note_on_c, 3, 82, 0
2, 83700, Note_on_c, 3, 84, 49
2, 83759, Note_on_c, 3, 84, 0
2, 83760, Note_on_c, 3, 82, 49
2, 83939, Note_on_c, 3, 82, 0
2, 83940, Note_on_c, 3, 84, 49
2, 83999, Note_on_c, 3, 84, 0
2, 84000, Note_on_c, 3, 82, 49
2, 84179, Note_on_c, 3, 82, 0
2, 84180, Note_on_c, 3, 84, 49
2, 84239, Note_on_c, 3, 84, 0
2, 84240, Note_on_c, 3, 82, 49
2, 84419, Note_on_c, 3, 82, 0
2, 84420, Note_on_c, 3, 84, 49
2, 84479, Note_on_c, 3, 84, 0
2, 84480, Note_on_c, 3, 82, 49
2, 84659, Note_on_c, 3, 82, 0
2, 84660, Note_on_c, 3, 84, 49
2, 84719, Note_on_c, 3, 84, 0
2, 84720, Note_on_c, 3, 82, 49
2, 84899, Note_on_c, 3, 82, 0
2, 84900, Note_on_c, 3, 84, 49
2, 84959, Note_on_c, 3, 84, 0
2, 84960, Note_on_c, 3, 81, 49
2, 85139, Note_on_c, 3, 81, 0
2, 85140, Note_on_c, 3, 82, 49
2, 85199, Note_on_c, 3, 82, 0
2, 85200, Note_on_c, 3, 81, 49
2, 85379, Note_on_c, 3, 81, 0
2, 85380, Note_on_c, 3, 82, 49
2, 85439, Note_on_c, 3, 82, 0
2, 85440, Note_on_c, 3, 81, 49
2, 85619, Note_on_c, 3, 81, 0
2, 85620, Note_on_c, 3, 82, 49
2, 85679, Note_on_c, 3, 82, 0
2, 85680, Note_on_c, 3, 81, 49
2, 85859, Note_on_c, 3, 81, 0
2, 85860, Note_on_c, 3, 82, 49
2, 85919, Note_on_c, 3, 82, 0
2, 85920, Note_on_c, 3, 81, 49
2, 86099, Note_on_c, 3, 81, 0
2, 86100, Note_on_c, 3, 82, 49
2, 86159, Note_on_c, 3, 82, 0
2, 86160, Note_on_c, 3, 81, 49
2, 86339, Note_on_c, 3, 81, 0
2, 86340, Note_on_c, 3, 82, 49
2, 86399, Note_on_c, 3, 82, 0
2, 86400, Note_on_c, 3, 79, 49
2, 86579, Note_on_c, 3, 79, 0
2, 86580, Note_on_c, 3, 81, 49
2, 86639, Note_on_c, 3, 81, 0
2, 86640, Note_on_c, 3, 79, 49
2, 86819, Note_on_c, 3, 79, 0
2, 86820, Note_on_c, 3, 81, 49
2, 86879, Note_on_c, 3, 81, 0
2, 86880, Note_on_c, 3, 79, 49
2, 87059, Note_on_c, 3, 79, 0
2, 87060, Note_on_c, 3, 81, 49
2, 87119, Note_on_c, 3, 81, 0
2, 87120, Note_on_c, 3, 79, 49
2, 87299, Note_on_c, 3, 79, 0
2, 87300, Note_on_c, 3, 81, 49
2, 87359, Note_on_c, 3, 81, 0
2, 87360, Note_on_c, 3, 79, 49
2, 87539, Note_on_c, 3, 79, 0
2, 87540, Note_on_c, 3, 81, 49
2, 87599, Note_on_c, 3, 81, 0
2, 87600, Note_on_c, 3, 79, 49
2, 87779, Note_on_c, 3, 79, 0
2, 87780, Note_on_c, 3, 81, 49
2, 87839, Note_on_c, 3, 81, 0
2, 87840, Note_on_c, 3, 77, 49
2, 88019, Note_on_c, 3, 77, 0
2, 88020, Note_on_c, 3, 79, 49
2, 88079, Note_on_c, 3, 79, 0
2, 88080, Note_on_c, 3, 77, 49
2, 88259, Note_on_c, 3, 77, 0
2, 88260, Note_on_c, 3, 79, 49
2, 88319, Note_on_c, 3, 79, 0
2, 88320, Note_on_c, 3, 77, 49
2, 88499, Note_on_c, 3, 77, 0
2, 88500, Note_on_c, 3, 79, 49
2, 88559, Note_on_c, 3, 79, 0
2, 88560, Note_on_c, 3, 77, 49
2, 88739, Note_on_c, 3, 77, 0
2, 88740, Note_on_c, 3, 79, 49
2, 88799, Note_on_c, 3, 79, 0
2, 88800, Note_on_c, 3, 77, 49
2, 88979, Note_on_c, 3, 77, 0
2, 88980, Note_on_c, 3, 79, 49
2, 89039, Note_on_c, 3, 79, 0
2, 89040, Note_on_c, 3, 77, 49
2, 89219, Note_on_c, 3, 77, 0
2, 89220, Note_on_c, 3, 79, 49
2, 89279, Note_on_c, 3, 79, 0
2, 89280, Note_on_c, 3, 77, 96
2, 89339, Note_on_c, 3, 77, 0
2, 89340, Note_on_c, 3, 86, 96
2, 89399, Note_on_c, 3, 86, 0
2, 89400, Note_on_c, 3, 84, 96
2, 89459, Note_on_c, 3, 84, 0
2, 89460, Note_on_c, 3, 82, 96
2, 89519, Note_on_c, 3, 82, 0
2, 89520, Note_on_c, 3, 81, 96
2, 89579, Note_on_c, 3, 81, 0
2, 89580, Note_on_c, 3, 86, 96
2, 89639, Note_on_c, 3, 86, 0
2, 89640, Note_on_c, 3, 84, 96
2, 89699, Note_on_c, 3, 84, 0
2, 89700, Note_on_c, 3, 82, 96
2, 89759, Note_on_c, 3, 82, 0
2, 89760, Note_on_c, 3, 81, 96
2, 89819, Note_on_c, 3, 81, 0
2, 89820, Note_on_c, 3, 79, 96
2, 89879, Note_on_c, 3, 79, 0
2, 89880, Note_on_c, 3, 77, 96
2, 89939, Note_on_c, 3, 77, 0
2, 89940, Note_on_c, 3, 76, 96
2, 89999, Note_on_c, 3, 76, 0
2, 90000, Note_on_c, 3, 77, 96
2, 90059, Note_on_c, 3, 77, 0
2, 90060, Note_on_c, 3, 81, 96
2, 90119, Note_on_c, 3, 81, 0
2, 90120, Note_on_c, 3, 79, 96
2, 90179, Note_on_c, 3, 79, 0
2, 90180, Note_on_c, 3, 77, 96
2, 90239, Note_on_c, 3, 77, 0
2, 90240, Note_on_c, 3, 76, 96
2, 90299, Note_on_c, 3, 76, 0
2, 90300, Note_on_c, 3, 81, 96
2, 90359, Note_on_c, 3, 81, 0
2, 90360, Note_on_c, 3, 79, 96
2, 90419, Note_on_c, 3, 79, 0
2, 90420, Note_on_c, 3, 77, 96
2, 90479, Note_on_c, 3, 77, 0
2, 90480, Note_on_c, 3, 76, 96
2, 90539, Note_on_c, 3, 76, 0
2, 90540, Note_on_c, 3, 74, 96
2, 90599, Note_on_c, 3, 74, 0
2, 90600, Note_on_c, 3, 73, 96
2, 90659, Note_on_c, 3, 73, 0
2, 90660, Note_on_c, 3, 71, 96
2, 90719, Note_on_c, 3, 71, 0
2, 90720, Note_on_c, 3, 69, 96
2, 90779, Note_on_c, 3, 69, 0
2, 90780, Note_on_c, 3, 67, 96
2, 90839, Note_on_c, 3, 67, 0
2, 90840, Note_on_c, 3, 65, 96
2, 90899, Note_on_c, 3, 65, 0
2, 90900, Note_on_c, 3, 62, 96
2, 90959, Note_on_c, 3, 62, 0
2, 90960, Note_on_c, 3, 65, 96
2, 91019, Note_on_c, 3, 65, 0
2, 91020, Note_on_c, 3, 67, 96
2, 91079, Note_on_c, 3, 67, 0
2, 91080, Note_on_c, 3, 69, 96
2, 91139, Note_on_c, 3, 69, 0
2, 91140, Note_on_c, 3, 65, 96
2, 91199, Note_on_c, 3, 65, 0
2, 91200, Note_on_c, 3, 69, 96
2, 91259, Note_on_c, 3, 69, 0
2, 91260, Note_on_c, 3, 71, 96
2, 91319, Note_on_c, 3, 71, 0
2, 91320, Note_on_c, 3, 73, 96
2, 91379, Note_on_c, 3, 73, 0
2, 91380, Note_on_c, 3, 69, 96
2, 91439, Note_on_c, 3, 69, 0
2, 91440, Note_on_c, 3, 74, 96
2, 91499, Note_on_c, 3, 74, 0
2, 91500, Note_on_c, 3, 76, 96
2, 91559, Note_on_c, 3, 76, 0
2, 91560, Note_on_c, 3, 77, 96
2, 91619, Note_on_c, 3, 77, 0
2, 91620, Note_on_c, 3, 74, 96
2, 91679, Note_on_c, 3, 74, 0
2, 91680, Note_on_c, 3, 77, 96
2, 91739, Note_on_c, 3, 77, 0
2, 91740, Note_on_c, 3, 79, 96
2, 91799, Note_on_c, 3, 79, 0
2, 91800, Note_on_c, 3, 81, 96
2, 91859, Note_on_c, 3, 81, 0
2, 91860, Note_on_c, 3, 77, 96
2, 91919, Note_on_c, 3, 77, 0
2, 91920, Note_on_c, 3, 81, 96
2, 91979, Note_on_c, 3, 81, 0
2, 91980, Note_on_c, 3, 83, 96
2, 92039, Note_on_c, 3, 83, 0
2, 92040, Note_on_c, 3, 85, 96
2, 92099, Note_on_c, 3, 85, 0
2, 92100, Note_on_c, 3, 81, 96
2, 92159, Note_on_c, 3, 81, 0
2, 92160, Note_on_c, 3, 86, 96
2, 92219, Note_on_c, 3, 86, 0
2, 92220, Note_on_c, 3, 74, 96
2, 92279, Note_on_c, 3, 74, 0
2, 92280, Note_on_c, 3, 86, 96
2, 92339, Note_on_c, 3, 86, 0
2, 92340, Note_on_c, 3, 74, 96
2, 92399, Note_on_c, 3, 74, 0
2, 92400, Note_on_c, 3, 86, 96
2, 92459, Note_on_c, 3, 86, 0
2, 92460, Note_on_c, 3, 74, 96
2, 92519, Note_on_c, 3, 74, 0
2, 92520, Note_on_c, 3, 86, 96
2, 92579, Note_on_c, 3, 86, 0
2, 92580, Note_on_c, 3, 74, 96
2, 92639, Note_on_c, 3, 74, 0
2, 92640, Note_on_c, 3, 86, 96
2, 92699, Note_on_c, 3, 86, 0
2, 92700, Note_on_c, 3, 74, 96
2, 92759, Note_on_c, 3, 74, 0
2, 92760, Note_on_c, 3, 86, 96
2, 92819, Note_on_c, 3, 86, 0
2, 92820, Note_on_c, 3, 74, 96
2, 92879, Note_on_c, 3, 74, 0
2, 92880, Note_on_c, 3, 84, 96
2, 92939, Note_on_c, 3, 84, 0
2, 92940, Note_on_c, 3, 74, 96
2, 92999, Note_on_c, 3, 74, 0
2, 93000, Note_on_c, 3, 84, 96
2, 93059, Note_on_c, 3, 84, 0
2, 93060, Note_on_c, 3, 74, 96
2, 93119, Note_on_c, 3, 74, 0
2, 93120, Note_on_c, 3, 84, 96
2, 93179, Note_on_c, 3, 84, 0
2, 93180, Note_on_c, 3, 74, 96
2, 93239, Note_on_c, 3, 74, 0
2, 93240, Note_on_c, 3, 84, 96
2, 93299, Note_on_c, 3, 84, 0
2, 93300, Note_on_c, 3, 74, 96
2, 93359, Note_on_c, 3, 74, 0
2, 93360, Note_on_c, 3, 84, 96
2, 93419, Note_on_c, 3, 84, 0
2, 93420, Note_on_c, 3, 74, 96
2, 93479, Note_on_c, 3, 74, 0
2, 93480, Note_on_c, 3, 84, 96
2, 93539, Note_on_c, 3, 84, 0
2, 93540, Note_on_c, 3, 74, 96
2, 93599, Note_on_c, 3, 74, 0
2, 93600, Note_on_c, 3, 82, 96
2, 93659, Note_on_c, 3, 82, 0
2, 93660, Note_on_c, 3, 74, 96
2, 93719, Note_on_c, 3, 74, 0
2, 93720, Note_on_c, 3, 82, 96
2, 93779, Note_on_c, 3, 82, 0
2, 93780, Note_on_c, 3, 74, 96
2, 93839, Note_on_c, 3, 74, 0
2, 93840, Note_on_c, 3, 82, 96
2, 93899, Note_on_c, 3, 82, 0
2, 93900, Note_on_c, 3, 74, 96
2, 93959, Note_on_c, 3, 74, 0
2, 93960, Note_on_c, 3, 82, 96
2, 94019, Note_on_c, 3, 82, 0
2, 94020, Note_on_c, 3, 74, 96
2, 94079, Note_on_c, 3, 74, 0
2, 94080, Note_on_c, 3, 82, 96
2, 94139, Note_on_c, 3, 82, 0
2, 94140, Note_on_c, 3, 74, 96
2, 94199, Note_on_c, 3, 74, 0
2, 94200, Note_on_c, 3, 82, 96
2, 94259, Note_on_c, 3, 82, 0
2, 94260, Note_on_c, 3, 74, 96
2, 94319, Note_on_c, 3, 74, 0
2, 94320, Note_on_c, 3, 81, 96
2, 94379, Note_on_c, 3, 81, 0
2, 94380, Note_on_c, 3, 74, 96
2, 94439, Note_on_c, 3, 74, 0
2, 94440, Note_on_c, 3, 81, 96
2, 94499, Note_on_c, 3, 81, 0
2, 94500, Note_on_c, 3, 74, 96
2, 94559, Note_on_c, 3, 74, 0
2, 94560, Note_on_c, 3, 81, 96
2, 94619, Note_on_c, 3, 81, 0
2, 94620, Note_on_c, 3, 74, 96
2, 94679, Note_on_c, 3, 74, 0
2, 94680, Note_on_c, 3, 81, 96
2, 94739, Note_on_c, 3, 81, 0
2, 94740, Note_on_c, 3, 74, 96
2, 94799, Note_on_c, 3, 74, 0
2, 94800, Note_on_c, 3, 81, 96
2, 94859, Note_on_c, 3, 81, 0
2, 94860, Note_on_c, 3, 74, 96
2, 94919, Note_on_c, 3, 74, 0
2, 94920, Note_on_c, 3, 81, 96
2, 94979, Note_on_c, 3, 81, 0
2, 94980, Note_on_c, 3, 74, 96
2, 95039, Note_on_c, 3, 74, 0
2, 95040, Note_on_c, 3, 86, 96
2, 95099, Note_on_c, 3, 86, 0
2, 95100, Note_on_c, 3, 74, 96
2, 95159, Note_on_c, 3, 74, 0
2, 95160, Note_on_c, 3, 86, 96
2, 95219, Note_on_c, 3, 86, 0
2, 95220, Note_on_c, 3, 74, 96
2, 95279, Note_on_c, 3, 74, 0
2, 95280, Note_on_c, 3, 86, 96
2, 95339, Note_on_c, 3, 86, 0
2, 95340, Note_on_c, 3, 74, 96
2, 95399, Note_on_c, 3, 74, 0
2, 95400, Note_on_c, 3, 86, 96
2, 95459, Note_on_c, 3, 86, 0
2, 95460, Note_on_c, 3, 74, 96
2, 95519, Note_on_c, 3, 74, 0
2, 95520, Note_on_c, 3, 86, 96
2, 95579, Note_on_c, 3, 86, 0
2, 95580, Note_on_c, 3, 74, 96
2, 95639, Note_on_c, 3, 74, 0
2, 95640, Note_on_c, 3, 86, 96
2, 95699, Note_on_c, 3, 86, 0
2, 95700, Note_on_c, 3, 74, 96
2, 95759, Note_on_c, 3, 74, 0
2, 95760, Note_on_c, 3, 84, 96
2, 95819, Note_on_c, 3, 84, 0
2, 95820, Note_on_c, 3, 74, 96
2, 95879, Note_on_c, 3, 74, 0
2, 95880, Note_on_c, 3, 84, 96
2, 95939, Note_on_c, 3, 84, 0
2, 95940, Note_on_c, 3, 74, 96
2, 95999, Note_on_c, 3, 74, 0
2, 96000, Note_on_c, 3, 84, 96
2, 96059, Note_on_c, 3, 84, 0
2, 96060, Note_on_c, 3, 74, 96
2, 96119, Note_on_c, 3, 74, 0
2, 96120, Note_on_c, 3, 84, 96
2, 96179, Note_on_c, 3, 84, 0
2, 96180, Note_on_c, 3, 74, 96
2, 96239, Note_on_c, 3, 74, 0
2, 96240, Note_on_c, 3, 84, 96
2, 96299, Note_on_c, 3, 84, 0
2, 96300, Note_on_c, 3, 74, 96
2, 96359, Note_on_c, 3, 74, 0
2, 96360, Note_on_c, 3, 84, 96
2, 96419, Note_on_c, 3, 84, 0
2, 96420, Note_on_c, 3, 74, 96
2, 96479, Note_on_c, 3, 74, 0
2, 96480, Note_on_c, 3, 82, 96
2, 96539, Note_on_c, 3, 82, 0
2, 96540, Note_on_c, 3, 74, 96
2, 96599, Note_on_c, 3, 74, 0
2, 96600, Note_on_c, 3, 82, 96
2, 96659, Note_on_c, 3, 82, 0
2, 96660, Note_on_c, 3, 74, 96
2, 96719, Note_on_c, 3, 74, 0
2, 96720, Note_on_c, 3, 82, 96
2, 96779, Note_on_c, 3, 82, 0
2, 96780, Note_on_c, 3, 74, 96
2, 96839, Note_on_c, 3, 74, 0
2, 96840, Note_on_c, 3, 82, 96
2, 96899, Note_on_c, 3, 82, 0
2, 96900, Note_on_c, 3, 74, 96
2, 96959, Note_on_c, 3, 74, 0
2, 96960, Note_on_c, 3, 82, 96
2, 97019, Note_on_c, 3, 82, 0
2, 97020, Note_on_c, 3, 74, 96
2, 97079, Note_on_c, 3, 74, 0
2, 97080, Note_on_c, 3, 82, 96
2, 97139, Note_on_c, 3, 82, 0
2, 97140, Note_on_c, 3, 74, 96
2, 97199, Note_on_c, 3, 74, 0
2, 97200, Note_on_c, 3, 81, 96
2, 97259, Note_on_c, 3, 81, 0
2, 97260, Note_on_c, 3, 74, 96
2, 97319, Note_on_c, 3, 74, 0
2, 97320, Note_on_c, 3, 81, 96
2, 97379, Note_on_c, 3, 81, 0
2, 97380, Note_on_c, 3, 74, 96
2, 97439, Note_on_c, 3, 74, 0
2, 97440, Note_on_c, 3, 81, 96
2, 97499, Note_on_c, 3, 81, 0
2, 97500, Note_on_c, 3, 74, 96
2, 97559, Note_on_c, 3, 74, 0
2, 97560, Note_on_c, 3, 81, 96
2, 97619, Note_on_c, 3, 81, 0
2, 97620, Note_on_c, 3, 74, 96
2, 97679, Note_on_c, 3, 74, 0
2, 97680, Note_on_c, 3, 81, 96
2, 97739, Note_on_c, 3, 81, 0
2, 97740, Note_on_c, 3, 74, 96
2, 97799, Note_on_c, 3, 74, 0
2, 97800, Note_on_c, 3, 81, 96
2, 97859, Note_on_c, 3, 81, 0
2, 97860, Note_on_c, 3, 74, 96
2, 97919, Note_on_c, 3, 74, 0
2, 97920, Note_on_c, 3, 79, 96
2, 97979, Note_on_c, 3, 79, 0
2, 97980, Note_on_c, 3, 76, 96
2, 98039, Note_on_c, 3, 76, 0
2, 98040, Note_on_c, 3, 79, 96
2, 98099, Note_on_c, 3, 79, 0
2, 98100, Note_on_c, 3, 76, 96
2, 98159, Note_on_c, 3, 76, 0
2, 98160, Note_on_c, 3, 79, 96
2, 98219, Note_on_c, 3, 79, 0
2, 98220, Note_on_c, 3, 76, 96
2, 98279, Note_on_c, 3, 76, 0
2, 98280, Note_on_c, 3, 79, 96
2, 98339, Note_on_c, 3, 79, 0
2, 98340, Note_on_c, 3, 76, 96
2, 98399, Note_on_c, 3, 76, 0
2, 98400, Note_on_c, 3, 79, 96
2, 98459, Note_on_c, 3, 79, 0
2, 98460, Note_on_c, 3, 76, 96
2, 98519, Note_on_c, 3, 76, 0
2, 98520, Note_on_c, 3, 79, 96
2, 98579, Note_on_c, 3, 79, 0
2, 98580, Note_on_c, 3, 76, 96
2, 98639, Note_on_c, 3, 76, 0
2, 98640, Note_on_c, 3, 81, 96
2, 98699, Note_on_c, 3, 81, 0
2, 98700, Note_on_c, 3, 77, 96
2, 98759, Note_on_c, 3, 77, 0
2, 98760, Note_on_c, 3, 81, 96
2, 98819, Note_on_c, 3, 81, 0
2, 98820, Note_on_c, 3, 77, 96
2, 98879, Note_on_c, 3, 77, 0
2, 98880, Note_on_c, 3, 81, 96
2, 98939, Note_on_c, 3, 81, 0
2, 98940, Note_on_c, 3, 77, 96
2, 98999, Note_on_c, 3, 77, 0
2, 99000, Note_on_c, 3, 81, 96
2, 99059, Note_on_c, 3, 81, 0
2, 99060, Note_on_c, 3, 77, 96
2, 99119, Note_on_c, 3, 77, 0
2, 99120, Note_on_c, 3, 81, 96
2, 99179, Note_on_c, 3, 81, 0
2, 99180, Note_on_c, 3, 77, 96
2, 99239, Note_on_c, 3, 77, 0
2, 99240, Note_on_c, 3, 81, 96
2, 99299, Note_on_c, 3, 81, 0
2, 99300, Note_on_c, 3, 77, 96
2, 99359, Note_on_c, 3, 77, 0
2, 99360, Note_on_c, 3, 82, 96
2, 99419, Note_on_c, 3, 82, 0
2, 99420, Note_on_c, 3, 79, 96
2, 99479, Note_on_c, 3, 79, 0
2, 99480, Note_on_c, 3, 82, 96
2, 99539, Note_on_c, 3, 82, 0
2, 99540, Note_on_c, 3, 79, 96
2, 99599, Note_on_c, 3, 79, 0
2, 99600, Note_on_c, 3, 82, 96
2, 99659, Note_on_c, 3, 82, 0
2, 99660, Note_on_c, 3, 79, 96
2, 99719, Note_on_c, 3, 79, 0
2, 99720, Note_on_c, 3, 82, 96
2, 99779, Note_on_c, 3, 82, 0
2, 99780, Note_on_c, 3, 79, 96
2, 99839, Note_on_c, 3, 79, 0
2, 99840, Note_on_c, 3, 82, 96
2, 99899, Note_on_c, 3, 82, 0
2, 99900, Note_on_c, 3, 79, 96
2, 99959, Note_on_c, 3, 79, 0
2, 99960, Note_on_c, 3, 82, 96
2, 100019, Note_on_c, 3, 82, 0
2, 100020, Note_on_c, 3, 79, 96
2, 100079, Note_on_c, 3, 79, 0
2, 100080, Note_on_c, 3, 81, 96
2, 100139, Note_on_c, 3, 81, 0
2, 100140, Note_on_c, 3, 77, 96
2, 100199, Note_on_c, 3, 77, 0
2, 100200, Note_on_c, 3, 81, 96
2, 100259, Note_on_c, 3, 81, 0
2, 100260, Note_on_c, 3, 77, 96
2, 100319, Note_on_c, 3, 77, 0
2, 100320, Note_on_c, 3, 81, 96
2, 100379, Note_on_c, 3, 81, 0
2, 100380, Note_on_c, 3, 77, 96
2, 100439, Note_on_c, 3, 77, 0
2, 100440, Note_on_c, 3, 81, 96
2, 100499, Note_on_c, 3, 81, 0
2, 100500, Note_on_c, 3, 77, 96
2, 100559, Note_on_c, 3, 77, 0
2, 100560, Note_on_c, 3, 81, 96
2, 100619, Note_on_c, 3, 81, 0
2, 100620, Note_on_c, 3, 77, 96
2, 100679, Note_on_c, 3, 77, 0
2, 100680, Note_on_c, 3, 81, 96
2, 100739, Note_on_c, 3, 81, 0
2, 100740, Note_on_c, 3, 77, 96
2, 100799, Note_on_c, 3, 77, 0
2, 100800, Note_on_c, 3, 79, 96
2, 100859, Note_on_c, 3, 79, 0
2, 100860, Note_on_c, 3, 76, 96
2, 100919, Note_on_c, 3, 76, 0
2, 100920, Note_on_c, 3, 79, 96
2, 100979, Note_on_c, 3, 79, 0
2, 100980, Note_on_c, 3, 76, 96
2, 101039, Note_on_c, 3, 76, 0
2, 101040, Note_on_c, 3, 79, 96
2, 101099, Note_on_c, 3, 79, 0
2, 101100, Note_on_c, 3, 76, 96
2, 101159, Note_on_c, 3, 76, 0
2, 101160, Note_on_c, 3, 79, 96
2, 101219, Note_on_c, 3, 79, 0
2, 101220, Note_on_c, 3, 76, 96
2, 101279, Note_on_c, 3, 76, 0
2, 101280, Note_on_c, 3, 79, 96
2, 101339, Note_on_c, 3, 79, 0
2, 101340, Note_on_c, 3, 76, 96
2, 101399, Note_on_c, 3, 76, 0
2, 101400, Note_on_c, 3, 79, 96
2, 101459, Note_on_c, 3, 79, 0
2, 101460, Note_on_c, 3, 76, 96
2, 101519, Note_on_c, 3, 76, 0
2, 101520, Note_on_c, 3, 77, 96
2, 101579, Note_on_c, 3, 77, 0
2, 101580, Note_on_c, 3, 74, 96
2, 101639, Note_on_c, 3, 74, 0
2, 101640, Note_on_c, 3, 77, 96
2, 101699, Note_on_c, 3, 77, 0
2, 101700, Note_on_c, 3, 74, 96
2, 101759, Note_on_c, 3, 74, 0
2, 101760, Note_on_c, 3, 77, 96
2, 101819, Note_on_c, 3, 77, 0
2, 101820, Note_on_c, 3, 74, 96
2, 101879, Note_on_c, 3, 74, 0
2, 101880, Note_on_c, 3, 77, 96
2, 101939, Note_on_c, 3, 77, 0
2, 101940, Note_on_c, 3, 74, 96
2, 101999, Note_on_c, 3, 74, 0
2, 102000, Note_on_c, 3, 77, 96
2, 102059, Note_on_c, 3, 77, 0
2, 102060, Note_on_c, 3, 74, 96
2, 102119, Note_on_c, 3, 74, 0
2, 102120, Note_on_c, 3, 77, 96
2, 102179, Note_on_c, 3, 77, 0
2, 102180, Note_on_c, 3, 74, 96
2, 102239, Note_on_c, 3, 74, 0
2, 102240, Note_on_c, 3, 76, 96
2, 102299, Note_on_c, 3, 76, 0
2, 102300, Note_on_c, 3, 74, 96
2, 102359, Note_on_c, 3, 74, 0
2, 102360, Note_on_c, 3, 76, 96
2, 102419, Note_on_c, 3, 76, 0
2, 102420, Note_on_c, 3, 74, 96
2, 102479, Note_on_c, 3, 74, 0
2, 102480, Note_on_c, 3, 76, 96
2, 102539, Note_on_c, 3, 76, 0
2, 102540, Note_on_c, 3, 74, 96
2, 102599, Note_on_c, 3, 74, 0
2, 102600, Note_on_c, 3, 76, 96
2, 102659, Note_on_c, 3, 76, 0
2, 102660, Note_on_c, 3, 74, 96
2, 102719, Note_on_c, 3, 74, 0
2, 102720, Note_on_c, 3, 76, 96
2, 102779, Note_on_c, 3, 76, 0
2, 102780, Note_on_c, 3, 74, 96
2, 102839, Note_on_c, 3, 74, 0
2, 102840, Note_on_c, 3, 76, 96
2, 102899, Note_on_c, 3, 76, 0
2, 102900, Note_on_c, 3, 74, 96
2, 102959, Note_on_c, 3, 74, 0
2, 102960, Note_on_c, 3, 76, 96
2, 103019, Note_on_c, 3, 76, 0
2, 103020, Note_on_c, 3, 73, 96
2, 103079, Note_on_c, 3, 73, 0
2, 103080, Note_on_c, 3, 76, 96
2, 103139, Note_on_c, 3, 76, 0
2, 103140, Note_on_c, 3, 73, 96
2, 103199, Note_on_c, 3, 73, 0
2, 103200, Note_on_c, 3, 76, 96
2, 103259, Note_on_c, 3, 76, 0
2, 103260, Note_on_c, 3, 73, 96
2, 103319, Note_on_c, 3, 73, 0
2, 103320, Note_on_c, 3, 76, 96
2, 103379, Note_on_c, 3, 76, 0
2, 103380, Note_on_c, 3, 73, 96
2, 103439, Note_on_c, 3, 73, 0
2, 103440, Note_on_c, 3, 76, 96
2, 103499, Note_on_c, 3, 76, 0
2, 103500, Note_on_c, 3, 73, 96
2, 103559, Note_on_c, 3, 73, 0
2, 103560, Note_on_c, 3, 76, 96
2, 103619, Note_on_c, 3, 76, 0
2, 103620, Note_on_c, 3, 73, 96
2, 103679, Note_on_c, 3, 73, 0
2, 103680, Note_on_c, 3, 74, 96
2, 103919, Note_on_c, 3, 74, 0
2, 103920, Note_on_c, 3, 77, 49
2, 104159, Note_on_c, 3, 77, 0
2, 104160, Note_on_c, 3, 76, 49
2, 104399, Note_on_c, 3, 76, 0
2, 104640, Note_on_c, 3, 79, 49
2, 104879, Note_on_c, 3, 79, 0
2, 104880, Note_on_c, 3, 77, 49
2, 105119, Note_on_c, 3, 77, 0
2, 105360, Note_on_c, 3, 79, 49
2, 105479, Note_on_c, 3, 79, 0
2, 105480, Note_on_c, 3, 81, 49
2, 105599, Note_on_c, 3, 81, 0
2, 105600, Note_on_c, 3, 82, 49
2, 105839, Note_on_c, 3, 82, 0
2, 106080, Note_on_c, 3, 75, 49
2, 106199, Note_on_c, 3, 75, 0
2, 106200, Note_on_c, 3, 77, 49
2, 106319, Note_on_c, 3, 77, 0
2, 106320, Note_on_c, 3, 79, 49
2, 106559, Note_on_c, 3, 79, 0
2, 106800, Note_on_c, 3, 74, 49
2, 106919, Note_on_c, 3, 74, 0
2, 106920, Note_on_c, 3, 76, 49
2, 107039, Note_on_c, 3, 76, 0
2, 107040, Note_on_c, 3, 77, 49
2, 107279, Note_on_c, 3, 77, 0
2, 107520, Note_on_c, 3, 73, 49
2, 107639, Note_on_c, 3, 73, 0
2, 107640, Note_on_c, 3, 74, 49
2, 107759, Note_on_c, 3, 74, 0
2, 107760, Note_on_c, 3, 76, 49
2, 107999, Note_on_c, 3, 76, 0
2, 108000, Note_on_c, 3, 74, 49
2, 108479, Note_on_c, 3, 74, 0
2, 136080, Note_on_c, 3, 74, 96
2, 136139, Note_on_c, 3, 74, 0
2, 136140, Note_on_c, 3, 62, 96
2, 136199, Note_on_c, 3, 62, 0
2, 136200, Note_on_c, 3, 74, 96
2, 136259, Note_on_c, 3, 74, 0
2, 136260, Note_on_c, 3, 62, 96
2, 136319, Note_on_c, 3, 62, 0
2, 136320, Note_on_c, 3, 74, 96
2, 136379, Note_on_c, 3, 74, 0
2, 136380, Note_on_c, 3, 62, 96
2, 136439, Note_on_c, 3, 62, 0
2, 136440, Note_on_c, 3, 74, 96
2, 136499, Note_on_c, 3, 74, 0
2, 136500, Note_on_c, 3, 62, 96
2, 136559, Note_on_c, 3, 62, 0
2, 136560, Note_on_c, 3, 74, 96
2, 136619, Note_on_c, 3, 74, 0
2, 136620, Note_on_c, 3, 62, 96
2, 136679, Note_on_c, 3, 62, 0
2, 136680, Note_on_c, 3, 74, 96
2, 136739, Note_on_c, 3, 74, 0
2, 136740, Note_on_c, 3, 62, 96
2, 136799, Note_on_c, 3, 62, 0
2, 136800, Note_on_c, 3, 72, 96
2, 136859, Note_on_c, 3, 72, 0
2, 136860, Note_on_c, 3, 62, 96
2, 136919, Note_on_c, 3, 62, 0
2, 136920, Note_on_c, 3, 72, 96
2, 136979, Note_on_c, 3, 72, 0
2, 136980, Note_on_c, 3, 62, 96
2, 137039, Note_on_c, 3, 62, 0
2, 137040, Note_on_c, 3, 72, 96
2, 137099, Note_on_c, 3, 72, 0
2, 137100, Note_on_c, 3, 62, 96
2, 137159, Note_on_c, 3, 62, 0
2, 137160, Note_on_c, 3, 72, 96
2, 137219, Note_on_c, 3, 72, 0
2, 137220, Note_on_c, 3, 62, 96
2, 137279, Note_on_c, 3, 62, 0
2, 137280, Note_on_c, 3, 72, 96
2, 137339, Note_on_c, 3, 72, 0
2, 137340, Note_on_c, 3, 62, 96
2, 137399, Note_on_c, 3, 62, 0
2, 137400, Note_on_c, 3, 72, 96
2, 137459, Note_on_c, 3, 72, 0
2, 137460, Note_on_c, 3, 62, 96
2, 137519, Note_on_c, 3, 62, 0
2, 137520, Note_on_c, 3, 70, 96
2, 137579, Note_on_c, 3, 70, 0
2, 137580, Note_on_c, 3, 62, 96
2, 137639, Note_on_c, 3, 62, 0
2, 137640, Note_on_c, 3, 70, 96
2, 137699, Note_on_c, 3, 70, 0
2, 137700, Note_on_c, 3, 62, 96
2, 137759, Note_on_c, 3, 62, 0
2, 137760, Note_on_c, 3, 70, 96
2, 137819, Note_on_c, 3, 70, 0
2, 137820, Note_on_c, 3, 62, 96
2, 137879, Note_on_c, 3, 62, 0
2, 137880, Note_on_c, 3, 70, 96
2, 137939, Note_on_c, 3, 70, 0
2, 137940, Note_on_c, 3, 62, 96
2, 137999, Note_on_c, 3, 62, 0
2, 138000, Note_on_c, 3, 70, 96
2, 138059, Note_on_c, 3, 70, 0
2, 138060, Note_on_c, 3, 62, 96
2, 138119, Note_on_c, 3, 62, 0
2, 138120, Note_on_c, 3, 70, 96
2, 138179, Note_on_c, 3, 70, 0
2, 138180, Note_on_c, 3, 62, 96
2, 138239, Note_on_c, 3, 62, 0
2, 138240, Note_on_c, 3, 69, 96
2, 138299, Note_on_c, 3, 69, 0
2, 138300, Note_on_c, 3, 62, 96
2, 138359, Note_on_c, 3, 62, 0
2, 138360, Note_on_c, 3, 69, 96
2, 138419, Note_on_c, 3, 69, 0
2, 138420, Note_on_c, 3, 62, 96
2, 138479, Note_on_c, 3, 62, 0
2, 138480, Note_on_c, 3, 69, 96
2, 138539, Note_on_c, 3, 69, 0
2, 138540, Note_on_c, 3, 62, 96
2, 138599, Note_on_c, 3, 62, 0
2, 138600, Note_on_c, 3, 69, 96
2, 138659, Note_on_c, 3, 69, 0
2, 138660, Note_on_c, 3, 62, 96
2, 138719, Note_on_c, 3, 62, 0
2, 138720, Note_on_c, 3, 69, 96
2, 138779, Note_on_c, 3, 69, 0
2, 138780, Note_on_c, 3, 62, 96
2, 138839, Note_on_c, 3, 62, 0
2, 138840, Note_on_c, 3, 69, 96
2, 138899, Note_on_c, 3, 69, 0
2, 138900, Note_on_c, 3, 62, 96
2, 138959, Note_on_c, 3, 62, 0
2, 138960, Note_on_c, 3, 74, 96
2, 139019, Note_on_c, 3, 74, 0
2, 139020, Note_on_c, 3, 62, 96
2, 139079, Note_on_c, 3, 62, 0
2, 139080, Note_on_c, 3, 74, 96
2, 139139, Note_on_c, 3, 74, 0
2, 139140, Note_on_c, 3, 62, 96
2, 139199, Note_on_c, 3, 62, 0
2, 139200, Note_on_c, 3, 74, 96
2, 139259, Note_on_c, 3, 74, 0
2, 139260, Note_on_c, 3, 62, 96
2, 139319, Note_on_c, 3, 62, 0
2, 139320, Note_on_c, 3, 74, 96
2, 139379, Note_on_c, 3, 74, 0
2, 139380, Note_on_c, 3, 62, 96
2, 139439, Note_on_c, 3, 62, 0
2, 139440, Note_on_c, 3, 74, 96
2, 139499, Note_on_c, 3, 74, 0
2, 139500, Note_on_c, 3, 62, 96
2, 139559, Note_on_c, 3, 62, 0
2, 139560, Note_on_c, 3, 74, 96
2, 139619, Note_on_c, 3, 74, 0
2, 139620, Note_on_c, 3, 62, 96
2, 139679, Note_on_c, 3, 62, 0
2, 139680, Note_on_c, 3, 72, 96
2, 139739, Note_on_c, 3, 72, 0
2, 139740, Note_on_c, 3, 62, 96
2, 139799, Note_on_c, 3, 62, 0
2, 139800, Note_on_c, 3, 72, 96
2, 139859, Note_on_c, 3, 72, 0
2, 139860, Note_on_c, 3, 62, 96
2, 139919, Note_on_c, 3, 62, 0
2, 139920, Note_on_c, 3, 72, 96
2, 139979, Note_on_c, 3, 72, 0
2, 139980, Note_on_c, 3, 62, 96
2, 140039, Note_on_c, 3, 62, 0
2, 140040, Note_on_c, 3, 72, 96
2, 140099, Note_on_c, 3, 72, 0
2, 140100, Note_on_c, 3, 62, 96
2, 140159, Note_on_c, 3, 62, 0
2, 140160, Note_on_c, 3, 72, 96
2, 140219, Note_on_c, 3, 72, 0
2, 140220, Note_on_c, 3, 62, 96
2, 140279, Note_on_c, 3, 62, 0
2, 140280, Note_on_c, 3, 72, 96
2, 140339, Note_on_c, 3, 72, 0
2, 140340, Note_on_c, 3, 62, 96
2, 140399, Note_on_c, 3, 62, 0
2, 140400, Note_on_c, 3, 70, 96
2, 140459, Note_on_c, 3, 70, 0
2, 140460, Note_on_c, 3, 62, 96
2, 140519, Note_on_c, 3, 62, 0
2, 140520, Note_on_c, 3, 70, 96
2, 140579, Note_on_c, 3, 70, 0
2, 140580, Note_on_c, 3, 62, 96
2, 140639, Note_on_c, 3, 62, 0
2, 140640, Note_on_c, 3, 70, 96
2, 140699, Note_on_c, 3, 70, 0
2, 140700, Note_on_c, 3, 62, 96
2, 140759, Note_on_c, 3, 62, 0
2, 140760, Note_on_c, 3, 70, 96
2, 140819, Note_on_c, 3, 70, 0
2, 140820, Note_on_c, 3, 62, 96
2, 140879, Note_on_c, 3, 62, 0
2, 140880, Note_on_c, 3, 70, 96
2, 140939, Note_on_c, 3, 70, 0
2, 140940, Note_on_c, 3, 62, 96
2, 140999, Note_on_c, 3, 62, 0
2, 141000, Note_on_c, 3, 70, 96
2, 141059, Note_on_c, 3, 70, 0
2, 141060, Note_on_c, 3, 62, 96
2, 141119, Note_on_c, 3, 62, 0
2, 141120, Note_on_c, 3, 69, 96
2, 141179, Note_on_c, 3, 69, 0
2, 141180, Note_on_c, 3, 62, 96
2, 141239, Note_on_c, 3, 62, 0
2, 141240, Note_on_c, 3, 69, 96
2, 141299, Note_on_c, 3, 69, 0
2, 141300, Note_on_c, 3, 62, 96
2, 141359, Note_on_c, 3, 62, 0
2, 141360, Note_on_c, 3, 69, 96
2, 141419, Note_on_c, 3, 69, 0
2, 141420, Note_on_c, 3, 62, 96
2, 141479, Note_on_c, 3, 62, 0
2, 141480, Note_on_c, 3, 69, 96
2, 141539, Note_on_c, 3, 69, 0
2, 141540, Note_on_c, 3, 62, 96
2, 141599, Note_on_c, 3, 62, 0
2, 141600, Note_on_c, 3, 69, 96
2, 141659, Note_on_c, 3, 69, 0
2, 141660, Note_on_c, 3, 62, 96
2, 141719, Note_on_c, 3, 62, 0
2, 141720, Note_on_c, 3, 69, 96
2, 141779, Note_on_c, 3, 69, 0
2, 141780, Note_on_c, 3, 62, 96
2, 141839, Note_on_c, 3, 62, 0
2, 141840, Note_on_c, 3, 86, 96
2, 141899, Note_on_c, 3, 86, 0
2, 141900, Note_on_c, 3, 84, 96
2, 141959, Note_on_c, 3, 84, 0
2, 141960, Note_on_c, 3, 84, 96
2, 142019, Note_on_c, 3, 84, 0
2, 142020, Note_on_c, 3, 82, 96
2, 142079, Note_on_c, 3, 82, 0
2, 142080, Note_on_c, 3, 82, 96
2, 142139, Note_on_c, 3, 82, 0
2, 142140, Note_on_c, 3, 81, 96
2, 142199, Note_on_c, 3, 81, 0
2, 142200, Note_on_c, 3, 81, 96
2, 142259, Note_on_c, 3, 81, 0
2, 142260, Note_on_c, 3, 79, 96
2, 142319, Note_on_c, 3, 79, 0
2, 142320, Note_on_c, 3, 79, 96
2, 142379, Note_on_c, 3, 79, 0
2, 142380, Note_on_c, 3, 77, 96
2, 142439, Note_on_c, 3, 77, 0
2, 142440, Note_on_c, 3, 77, 96
2, 142499, Note_on_c, 3, 77, 0
2, 142500, Note_on_c, 3, 75, 96
2, 142559, Note_on_c, 3, 75, 0
2, 142560, Note_on_c, 3, 75, 96
2, 142619, Note_on_c, 3, 75, 0
2, 142620, Note_on_c, 3, 74, 96
2, 142679, Note_on_c, 3, 74, 0
2, 142680, Note_on_c, 3, 74, 96
2, 142739, Note_on_c, 3, 74, 0
2, 142740, Note_on_c, 3, 72, 96
2, 142799, Note_on_c, 3, 72, 0
2, 142800, Note_on_c, 3, 72, 96
2, 142859, Note_on_c, 3, 72, 0
2, 142860, Note_on_c, 3, 70, 96
2, 142919, Note_on_c, 3, 70, 0
2, 142920, Note_on_c, 3, 70, 96
2, 142979, Note_on_c, 3, 70, 0
2, 142980, Note_on_c, 3, 69, 96
2, 143039, Note_on_c, 3, 69, 0
2, 143040, Note_on_c, 3, 69, 96
2, 143099, Note_on_c, 3, 69, 0
2, 143100, Note_on_c, 3, 67, 96
2, 143159, Note_on_c, 3, 67, 0
2, 143160, Note_on_c, 3, 67, 96
2, 143219, Note_on_c, 3, 67, 0
2, 143220, Note_on_c, 3, 66, 96
2, 143279, Note_on_c, 3, 66, 0
2, 143280, Note_on_c, 3, 66, 96
2, 143339, Note_on_c, 3, 66, 0
2, 143340, Note_on_c, 3, 66, 96
2, 143399, Note_on_c, 3, 66, 0
2, 143400, Note_on_c, 3, 67, 96
2, 143459, Note_on_c, 3, 67, 0
2, 143460, Note_on_c, 3, 69, 96
2, 143519, Note_on_c, 3, 69, 0
2, 143520, Note_on_c, 3, 70, 96
2, 143579, Note_on_c, 3, 70, 0
2, 143580, Note_on_c, 3, 72, 96
2, 143639, Note_on_c, 3, 72, 0
2, 143640, Note_on_c, 3, 74, 96
2, 143699, Note_on_c, 3, 74, 0
2, 143700, Note_on_c, 3, 75, 96
2, 143759, Note_on_c, 3, 75, 0
2, 143760, Note_on_c, 3, 78, 96
2, 143819, Note_on_c, 3, 78, 0
2, 143820, Note_on_c, 3, 75, 96
2, 143879, Note_on_c, 3, 75, 0
2, 143880, Note_on_c, 3, 74, 96
2, 143939, Note_on_c, 3, 74, 0
2, 143940, Note_on_c, 3, 72, 96
2, 143999, Note_on_c, 3, 72, 0
2, 144000, Note_on_c, 3, 70, 96
2, 144059, Note_on_c, 3, 70, 0
2, 144060, Note_on_c, 3, 70, 96
2, 144119, Note_on_c, 3, 70, 0
2, 144120, Note_on_c, 3, 72, 96
2, 144179, Note_on_c, 3, 72, 0
2, 144180, Note_on_c, 3, 74, 96
2, 144239, Note_on_c, 3, 74, 0
2, 144240, Note_on_c, 3, 75, 96
2, 144299, Note_on_c, 3, 75, 0
2, 144300, Note_on_c, 3, 77, 96
2, 144359, Note_on_c, 3, 77, 0
2, 144360, Note_on_c, 3, 79, 96
2, 144419, Note_on_c, 3, 79, 0
2, 144420, Note_on_c, 3, 81, 96
2, 144479, Note_on_c, 3, 81, 0
2, 144480, Note_on_c, 3, 82, 96
2, 144539, Note_on_c, 3, 82, 0
2, 144540, Note_on_c, 3, 81, 96
2, 144599, Note_on_c, 3, 81, 0
2, 144600, Note_on_c, 3, 79, 96
2, 144659, Note_on_c, 3, 79, 0
2, 144660, Note_on_c, 3, 77, 96
2, 144719, Note_on_c, 3, 77, 0
2, 144720, Note_on_c, 3, 75, 96
2, 144779, Note_on_c, 3, 75, 0
2, 144780, Note_on_c, 3, 77, 96
2, 144839, Note_on_c, 3, 77, 0
2, 144840, Note_on_c, 3, 75, 96
2, 144899, Note_on_c, 3, 75, 0
2, 144900, Note_on_c, 3, 77, 96
2, 144959, Note_on_c, 3, 77, 0
2, 144960, Note_on_c, 3, 74, 96
2, 145019, Note_on_c, 3, 74, 0
2, 145020, Note_on_c, 3, 75, 96
2, 145079, Note_on_c, 3, 75, 0
2, 145080, Note_on_c, 3, 74, 96
2, 145139, Note_on_c, 3, 74, 0
2, 145140, Note_on_c, 3, 75, 96
2, 145199, Note_on_c, 3, 75, 0
2, 145200, Note_on_c, 3, 72, 96
2, 145259, Note_on_c, 3, 72, 0
2, 145260, Note_on_c, 3, 74, 96
2, 145319, Note_on_c, 3, 74, 0
2, 145320, Note_on_c, 3, 72, 96
2, 145379, Note_on_c, 3, 72, 0
2, 145380, Note_on_c, 3, 74, 96
2, 145439, Note_on_c, 3, 74, 0
2, 145440, Note_on_c, 3, 70, 96
2, 145499, Note_on_c, 3, 70, 0
2, 145500, Note_on_c, 3, 72, 96
2, 145559, Note_on_c, 3, 72, 0
2, 145560, Note_on_c, 3, 70, 96
2, 145619, Note_on_c, 3, 70, 0
2, 145620, Note_on_c, 3, 72, 96
2, 145679, Note_on_c, 3, 72, 0
2, 145680, Note_on_c, 3, 69, 96
2, 145739, Note_on_c, 3, 69, 0
2, 145740, Note_on_c, 3, 70, 96
2, 145799, Note_on_c, 3, 70, 0
2, 145800, Note_on_c, 3, 69, 96
2, 145859, Note_on_c, 3, 69, 0
2, 145860, Note_on_c, 3, 70, 96
2, 145919, Note_on_c, 3, 70, 0
2, 145920, Note_on_c, 3, 67, 96
2, 145979, Note_on_c, 3, 67, 0
2, 145980, Note_on_c, 3, 69, 96
2, 146039, Note_on_c, 3, 69, 0
2, 146040, Note_on_c, 3, 67, 96
2, 146099, Note_on_c, 3, 67, 0
2, 146100, Note_on_c, 3, 69, 96
2, 146159, Note_on_c, 3, 69, 0
2, 146160, Note_on_c, 3, 66, 96
2, 146219, Note_on_c, 3, 66, 0
2, 146220, Note_on_c, 3, 62, 96
2, 146279, Note_on_c, 3, 62, 0
2, 146280, Note_on_c, 3, 64, 96
2, 146339, Note_on_c, 3, 64, 0
2, 146340, Note_on_c, 3, 66, 96
2, 146399, Note_on_c, 3, 66, 0
2, 146400, Note_on_c, 3, 67, 96
2, 146459, Note_on_c, 3, 67, 0
2, 146460, Note_on_c, 3, 69, 96
2, 146519, Note_on_c, 3, 69, 0
2, 146520, Note_on_c, 3, 70, 96
2, 146579, Note_on_c, 3, 70, 0
2, 146580, Note_on_c, 3, 72, 96
2, 146639, Note_on_c, 3, 72, 0
2, 146640, Note_on_c, 3, 74, 96
2, 146699, Note_on_c, 3, 74, 0
2, 146700, Note_on_c, 3, 72, 96
2, 146759, Note_on_c, 3, 72, 0
2, 146760, Note_on_c, 3, 70, 96
2, 146819, Note_on_c, 3, 70, 0
2, 146820, Note_on_c, 3, 69, 96
2, 146879, Note_on_c, 3, 69, 0
2, 146880, Note_on_c, 3, 70, 96
2, 146939, Note_on_c, 3, 70, 0
2, 146940, Note_on_c, 3, 67, 96
2, 146999, Note_on_c, 3, 67, 0
2, 147000, Note_on_c, 3, 65, 96
2, 147059, Note_on_c, 3, 65, 0
2, 147060, Note_on_c, 3, 63, 96
2, 147119, Note_on_c, 3, 63, 0
2, 147120, Note_on_c, 3, 62, 96
2, 147179, Note_on_c, 3, 62, 0
2, 147180, Note_on_c, 3, 63, 96
2, 147239, Note_on_c, 3, 63, 0
2, 147240, Note_on_c, 3, 62, 96
2, 147299, Note_on_c, 3, 62, 0
2, 147300, Note_on_c, 3, 60, 96
2, 147359, Note_on_c, 3, 60, 0
2, 147360, Note_on_c, 3, 58, 96
2, 147419, Note_on_c, 3, 58, 0
2, 147420, Note_on_c, 3, 60, 96
2, 147479, Note_on_c, 3, 60, 0
2, 147480, Note_on_c, 3, 58, 96
2, 147539, Note_on_c, 3, 58, 0
2, 147540, Note_on_c, 3, 57, 96
2, 147599, Note_on_c, 3, 57, 0
2, 147600, Note_on_c, 3, 55, 96
2, 147659, Note_on_c, 3, 55, 0
2, 147660, Note_on_c, 3, 67, 96
2, 147719, Note_on_c, 3, 67, 0
2, 147720, Note_on_c, 3, 65, 96
2, 147779, Note_on_c, 3, 65, 0
2, 147780, Note_on_c, 3, 63, 96
2, 147839, Note_on_c, 3, 63, 0
2, 147840, Note_on_c, 3, 62, 96
2, 147899, Note_on_c, 3, 62, 0
2, 147900, Note_on_c, 3, 63, 96
2, 147959, Note_on_c, 3, 63, 0
2, 147960, Note_on_c, 3, 62, 96
2, 148019, Note_on_c, 3, 62, 0
2, 148020, Note_on_c, 3, 60, 96
2, 148079, Note_on_c, 3, 60, 0
2, 148080, Note_on_c, 3, 58, 96
2, 148139, Note_on_c, 3, 58, 0
2, 148140, Note_on_c, 3, 60, 96
2, 148199, Note_on_c, 3, 60, 0
2, 148200, Note_on_c, 3, 58, 96
2, 148259, Note_on_c, 3, 58, 0
2, 148260, Note_on_c, 3, 57, 96
2, 148319, Note_on_c, 3, 57, 0
2, 148320, Note_on_c, 3, 55, 96
2, 148379, Note_on_c, 3, 55, 0
2, 148380, Note_on_c, 3, 67, 96
2, 148439, Note_on_c, 3, 67, 0
2, 148440, Note_on_c, 3, 65, 96
2, 148499, Note_on_c, 3, 65, 0
2, 148500, Note_on_c, 3, 63, 96
2, 148559, Note_on_c, 3, 63, 0
2, 148560, Note_on_c, 3, 62, 96
2, 148619, Note_on_c, 3, 62, 0
2, 148620, Note_on_c, 3, 63, 96
2, 148679, Note_on_c, 3, 63, 0
2, 148680, Note_on_c, 3, 62, 96
2, 148739, Note_on_c, 3, 62, 0
2, 148740, Note_on_c, 3, 60, 96
2, 148799, Note_on_c, 3, 60, 0
2, 148800, Note_on_c, 3, 58, 96
2, 148859, Note_on_c, 3, 58, 0
2, 148860, Note_on_c, 3, 60, 96
2, 148919, Note_on_c, 3, 60, 0
2, 148920, Note_on_c, 3, 58, 96
2, 148979, Note_on_c, 3, 58, 0
2, 148980, Note_on_c, 3, 57, 96
2, 149039, Note_on_c, 3, 57, 0
2, 149040, Note_on_c, 3, 55, 96
2, 149099, Note_on_c, 3, 55, 0
2, 149100, Note_on_c, 3, 67, 96
2, 149159, Note_on_c, 3, 67, 0
2, 149160, Note_on_c, 3, 65, 96
2, 149219, Note_on_c, 3, 65, 0
2, 149220, Note_on_c, 3, 63, 96
2, 149279, Note_on_c, 3, 63, 0
2, 149280, Note_on_c, 3, 62, 96
2, 149339, Note_on_c, 3, 62, 0
2, 149340, Note_on_c, 3, 63, 96
2, 149399, Note_on_c, 3, 63, 0
2, 149400, Note_on_c, 3, 62, 96
2, 149459, Note_on_c, 3, 62, 0
2, 149460, Note_on_c, 3, 60, 96
2, 149519, Note_on_c, 3, 60, 0
2, 149520, Note_on_c, 3, 58, 96
2, 149579, Note_on_c, 3, 58, 0
2, 149580, Note_on_c, 3, 60, 96
2, 149639, Note_on_c, 3, 60, 0
2, 149640, Note_on_c, 3, 58, 96
2, 149699, Note_on_c, 3, 58, 0
2, 149700, Note_on_c, 3, 57, 96
2, 149759, Note_on_c, 3, 57, 0
2, 149760, Note_on_c, 3, 55, 96
2, 150479, Note_on_c, 3, 55, 0
2, 150480, End_track
3, 0, Start_track
3, 0, Key_signature, -2, "major"
3, 0, Control_c, 6, 121, 0
3, 0, Program_c, 6, 40
3, 0, Control_c, 6, 7, 100
3, 0, Control_c, 6, 10, 64
3, 0, Control_c, 6, 91, 0
3, 0, Control_c, 6, 93, 0
3, 0, MIDI_port, 0
3, 0, Control_c, 7, 121, 0
3, 0, Program_c, 7, 45
3, 0, Control_c, 7, 7, 100
3, 0, Control_c, 7, 10, 64
3, 0, Control_c, 7, 91, 0
3, 0, Control_c, 7, 93, 0
3, 0, MIDI_port, 0
3, 0, Control_c, 8, 121, 0
3, 0, Program_c, 8, 44
3, 0, Control_c, 8, 7, 100
3, 0, Control_c, 8, 10, 64
3, 0, Control_c, 8, 91, 0
3, 0, Control_c, 8, 93, 0
3, 0, MIDI_port, 0
3, 240, Note_on_c, 6, 79, 49
3, 479, Note_on_c, 6, 79, 0
3, 480, Note_on_c, 6, 78, 49
3, 719, Note_on_c, 6, 78, 0
3, 960, Note_on_c, 6, 67, 49
3, 1199, Note_on_c, 6, 67, 0
3, 1200, Note_on_c, 6, 66, 49
3, 1439, Note_on_c, 6, 66, 0
3, 1680, Note_on_c, 6, 69, 49
3, 1799, Note_on_c, 6, 69, 0
3, 1800, Note_on_c, 6, 70, 49
3, 1919, Note_on_c, 6, 70, 0
3, 1920, Note_on_c, 6, 72, 49
3, 2159, Note_on_c, 6, 72, 0
3, 2400, Note_on_c, 6, 66, 49
3, 2519, Note_on_c, 6, 66, 0
3, 2520, Note_on_c, 6, 67, 49
3, 2639, Note_on_c, 6, 67, 0
3, 2640, Note_on_c, 6, 69, 49
3, 2879, Note_on_c, 6, 69, 0
3, 2880, Note_on_c, 6, 79, 49
3, 3359, Note_on_c, 6, 79, 0
3, 3600, Note_on_c, 6, 69, 49
3, 3839, Note_on_c, 6, 69, 0
3, 3840, Note_on_c, 6, 67, 49
3, 4079, Note_on_c, 6, 67, 0
3, 4080, Note_on_c, 6, 66, 49
3, 4319, Note_on_c, 6, 66, 0
3, 4320, Note_on_c, 6, 81, 49
3, 4799, Note_on_c, 6, 81, 0
3, 5040, Note_on_c, 6, 70, 49
3, 5279, Note_on_c, 6, 70, 0
3, 5280, Note_on_c, 6, 69, 49
3, 5519, Note_on_c, 6, 69, 0
3, 5520, Note_on_c, 6, 67, 49
3, 5759, Note_on_c, 6, 67, 0
3, 5760, Note_on_c, 6, 82, 49
3, 6239, Note_on_c, 6, 82, 0
3, 6480, Note_on_c, 6, 72, 49
3, 6719, Note_on_c, 6, 72, 0
3, 6720, Note_on_c, 6, 70, 49
3, 6959, Note_on_c, 6, 70, 0
3, 6960, Note_on_c, 6, 69, 49
3, 7199, Note_on_c, 6, 69, 0
3, 7200, Note_on_c, 6, 60, 49
3, 7919, Note_on_c, 6, 60, 0
3, 7920, Note_on_c, 6, 79, 49
3, 8159, Note_on_c, 6, 79, 0
3, 8160, Note_on_c, 6, 78, 49
3, 8399, Note_on_c, 6, 78, 0
3, 8400, Note_on_c, 6, 75, 49
3, 8639, Note_on_c, 6, 75, 0
3, 8640, Note_on_c, 6, 74, 49
3, 8879, Note_on_c, 6, 74, 0
3, 8880, Note_on_c, 6, 72, 49
3, 9119, Note_on_c, 6, 72, 0
3, 9120, Note_on_c, 6, 70, 49
3, 9359, Note_on_c, 6, 70, 0
3, 9360, Note_on_c, 6, 69, 49
3, 10799, Note_on_c, 6, 69, 0
3, 10800, Note_on_c, 6, 81, 49
3, 11039, Note_on_c, 6, 81, 0
3, 11040, Note_on_c, 6, 79, 49
3, 11279, Note_on_c, 6, 79, 0
3, 11280, Note_on_c, 6, 78, 49
3, 11519, Note_on_c, 6, 78, 0
3, 11520, Note_on_c, 6, 75, 49
3, 11759, Note_on_c, 6, 75, 0
3, 11760, Note_on_c, 6, 74, 49
3, 11999, Note_on_c, 6, 74, 0
3, 12000, Note_on_c, 6, 72, 49
3, 12239, Note_on_c, 6, 72, 0
3, 12240, Note_on_c, 6, 70, 49
3, 14159, Note_on_c, 6, 70, 0
3, 14640, Note_on_c, 6, 79, 49
3, 14759, Note_on_c, 6, 79, 0
3, 14760, Note_on_c, 6, 81, 49
3, 14879, Note_on_c, 6, 81, 0
3, 14880, Note_on_c, 6, 82, 49
3, 15119, Note_on_c, 6, 82, 0
3, 15360, Note_on_c, 6, 72, 49
3, 15479, Note_on_c, 6, 72, 0
3, 15480, Note_on_c, 6, 74, 49
3, 15599, Note_on_c, 6, 74, 0
3, 15600, Note_on_c, 6, 75, 49
3, 15839, Note_on_c, 6, 75, 0
3, 16080, Note_on_c, 6, 70, 49
3, 16199, Note_on_c, 6, 70, 0
3, 16200, Note_on_c, 6, 72, 49
3, 16319, Note_on_c, 6, 72, 0
3, 16320, Note_on_c, 6, 74, 49
3, 16559, Note_on_c, 6, 74, 0
3, 16800, Note_on_c, 6, 69, 49
3, 16919, Note_on_c, 6, 69, 0
3, 16920, Note_on_c, 6, 70, 49
3, 17039, Note_on_c, 6, 70, 0
3, 17040, Note_on_c, 6, 72, 49
3, 17279, Note_on_c, 6, 72, 0
3, 17280, Note_on_c, 6, 70, 49
3, 17999, Note_on_c, 6, 70, 0
3, 18240, Note_on_c, 6, 67, 49
3, 18359, Note_on_c, 6, 67, 0
3, 18360, Note_on_c, 6, 69, 49
3, 18479, Note_on_c, 6, 69, 0
3, 18480, Note_on_c, 6, 70, 49
3, 18719, Note_on_c, 6, 70, 0
3, 18960, Note_on_c, 6, 60, 49
3, 19079, Note_on_c, 6, 60, 0
3, 19080, Note_on_c, 6, 62, 49
3, 19199, Note_on_c, 6, 62, 0
3, 19200, Note_on_c, 6, 63, 49
3, 19439, Note_on_c, 6, 63, 0
3, 19680, Note_on_c, 6, 58, 49
3, 19799, Note_on_c, 6, 58, 0
3, 19800, Note_on_c, 6, 60, 49
3, 19919, Note_on_c, 6, 60, 0
3, 19920, Note_on_c, 6, 62, 49
3, 20159, Note_on_c, 6, 62, 0
3, 20400, Note_on_c, 6, 57, 49
3, 20519, Note_on_c, 6, 57, 0
3, 20520, Note_on_c, 6, 58, 49
3, 20639, Note_on_c, 6, 58, 0
3, 20640, Note_on_c, 6, 60, 49
3, 20879, Note_on_c, 6, 60, 0
3, 21120, Note_on_c, 6, 58, 49
3, 21599, Note_on_c, 6, 58, 0
3, 56280, Note_on_c, 6, 74, 96
3, 56399, Note_on_c, 6, 74, 0
3, 56400, Note_on_c, 6, 74, 96
3, 56519, Note_on_c, 6, 74, 0
3, 56520, Note_on_c, 6, 74, 96
3, 56639, Note_on_c, 6, 74, 0
3, 56640, Note_on_c, 6, 74, 96
3, 56759, Note_on_c, 6, 74, 0
3, 56760, Note_on_c, 6, 74, 96
3, 56879, Note_on_c, 6, 74, 0
3, 56880, Note_on_c, 6, 70, 96
3, 56999, Note_on_c, 6, 70, 0
3, 57000, Note_on_c, 6, 74, 96
3, 57119, Note_on_c, 6, 74, 0
3, 57120, Note_on_c, 6, 67, 96
3, 57239, Note_on_c, 6, 67, 0
3, 57240, Note_on_c, 6, 74, 96
3, 57359, Note_on_c, 6, 74, 0
3, 57360, Note_on_c, 6, 74, 96
3, 57479, Note_on_c, 6, 74, 0
3, 57480, Note_on_c, 6, 74, 96
3, 57599, Note_on_c, 6, 74, 0
3, 57600, Note_on_c, 6, 74, 96
3, 57719, Note_on_c, 6, 74, 0
3, 57720, Note_on_c, 6, 74, 96
3, 57839, Note_on_c, 6, 74, 0
3, 57840, Note_on_c, 6, 70, 96
3, 57959, Note_on_c, 6, 70, 0
3, 57960, Note_on_c, 6, 74, 96
3, 58079, Note_on_c, 6, 74, 0
3, 58080, Note_on_c, 6, 62, 96
3, 58199, Note_on_c, 6, 62, 0
3, 58200, Note_on_c, 6, 69, 96
3, 58319, Note_on_c, 6, 69, 0
3, 58320, Note_on_c, 6, 69, 96
3, 58439, Note_on_c, 6, 69, 0
3, 58440, Note_on_c, 6, 69, 96
3, 58559, Note_on_c, 6, 69, 0
3, 58560, Note_on_c, 6, 69, 96
3, 58679, Note_on_c, 6, 69, 0
3, 58680, Note_on_c, 6, 69, 96
3, 58799, Note_on_c, 6, 69, 0
3, 58800, Note_on_c, 6, 67, 96
3, 58919, Note_on_c, 6, 67, 0
3, 58920, Note_on_c, 6, 69, 96
3, 59039, Note_on_c, 6, 69, 0
3, 59040, Note_on_c, 6, 62, 96
3, 59159, Note_on_c, 6, 62, 0
3, 59160, Note_on_c, 6, 69, 96
3, 59279, Note_on_c, 6, 69, 0
3, 59280, Note_on_c, 6, 69, 96
3, 59399, Note_on_c, 6, 69, 0
3, 59400, Note_on_c, 6, 69, 96
3, 59519, Note_on_c, 6, 69, 0
3, 59520, Note_on_c, 6, 69, 96
3, 59639, Note_on_c, 6, 69, 0
3, 59640, Note_on_c, 6, 69, 96
3, 59759, Note_on_c, 6, 69, 0
3, 59760, Note_on_c, 6, 67, 96
3, 59879, Note_on_c, 6, 67, 0
3, 59880, Note_on_c, 6, 69, 96
3, 59999, Note_on_c, 6, 69, 0
3, 60000, Note_on_c, 6, 62, 96
3, 60119, Note_on_c, 6, 62, 0
3, 60120, Note_on_c, 6, 69, 96
3, 60239, Note_on_c, 6, 69, 0
3, 60240, Note_on_c, 6, 69, 96
3, 60359, Note_on_c, 6, 69, 0
3, 60360, Note_on_c, 6, 69, 96
3, 60479, Note_on_c, 6, 69, 0
3, 60480, Note_on_c, 6, 69, 96
3, 60599, Note_on_c, 6, 69, 0
3, 60600, Note_on_c, 6, 69, 96
3, 60719, Note_on_c, 6, 69, 0
3, 60720, Note_on_c, 6, 66, 96
3, 60839, Note_on_c, 6, 66, 0
3, 60840, Note_on_c, 6, 69, 96
3, 60959, Note_on_c, 6, 69, 0
3, 60960, Note_on_c, 6, 62, 96
3, 61079, Note_on_c, 6, 62, 0
3, 61080, Note_on_c, 6, 69, 96
3, 61199, Note_on_c, 6, 69, 0
3, 61200, Note_on_c, 6, 69, 96
3, 61319, Note_on_c, 6, 69, 0
3, 61320, Note_on_c, 6, 69, 96
3, 61439, Note_on_c, 6, 69, 0
3, 61440, Note_on_c, 6, 69, 96
3, 61559, Note_on_c, 6, 69, 0
3, 61560, Note_on_c, 6, 69, 96
3, 61679, Note_on_c, 6, 69, 0
3, 61680, Note_on_c, 6, 66, 96
3, 61799, Note_on_c, 6, 66, 0
3, 61800, Note_on_c, 6, 69, 96
3, 61919, Note_on_c, 6, 69, 0
3, 61920, Note_on_c, 6, 70, 96
3, 62159, Note_on_c, 6, 70, 0
3, 62160, Note_on_c, 6, 79, 49
3, 62399, Note_on_c, 6, 79, 0
3, 62400, Note_on_c, 6, 78, 49
3, 62639, Note_on_c, 6, 78, 0
3, 62880, Note_on_c, 6, 67, 49
3, 63119, Note_on_c, 6, 67, 0
3, 63120, Note_on_c, 6, 66, 49
3, 63359, Note_on_c, 6, 66, 0
3, 63600, Note_on_c, 6, 79, 49
3, 63719, Note_on_c, 6, 79, 0
3, 63720, Note_on_c, 6, 81, 49
3, 63839, Note_on_c, 6, 81, 0
3, 63840, Note_on_c, 6, 82, 49
3, 64079, Note_on_c, 6, 82, 0
3, 64320, Note_on_c, 6, 72, 49
3, 64439, Note_on_c, 6, 72, 0
3, 64440, Note_on_c, 6, 74, 49
3, 64559, Note_on_c, 6, 74, 0
3, 64560, Note_on_c, 6, 75, 49
3, 64799, Note_on_c, 6, 75, 0
3, 65040, Note_on_c, 6, 70, 49
3, 65159, Note_on_c, 6, 70, 0
3, 65160, Note_on_c, 6, 72, 49
3, 65279, Note_on_c, 6, 72, 0
3, 65280, Note_on_c, 6, 74, 49
3, 65519, Note_on_c, 6, 74, 0
3, 65760, Note_on_c, 6, 69, 49
3, 65879, Note_on_c, 6, 69, 0
3, 65880, Note_on_c, 6, 70, 49
3, 65999, Note_on_c, 6, 70, 0
3, 66000, Note_on_c, 6, 72, 49
3, 66239, Note_on_c, 6, 72, 0
3, 66480, Note_on_c, 6, 70, 49
3, 66959, Note_on_c, 6, 70, 0
3, 75600, Note_on_c, 6, 79, 49
3, 75679, Note_on_c, 6, 79, 0
3, 75680, Note_on_c, 6, 81, 49
3, 75759, Note_on_c, 6, 81, 0
3, 75760, Note_on_c, 6, 82, 49
3, 75839, Note_on_c, 6, 82, 0
3, 75840, Note_on_c, 6, 79, 49
3, 75919, Note_on_c, 6, 79, 0
3, 75920, Note_on_c, 6, 81, 49
3, 75999, Note_on_c, 6, 81, 0
3, 76000, Note_on_c, 6, 82, 49
3, 76079, Note_on_c, 6, 82, 0
3, 76080, Note_on_c, 6, 79, 49
3, 76159, Note_on_c, 6, 79, 0
3, 76160, Note_on_c, 6, 81, 49
3, 76239, Note_on_c, 6, 81, 0
3, 76240, Note_on_c, 6, 82, 49
3, 76319, Note_on_c, 6, 82, 0
3, 76320, Note_on_c, 6, 79, 49
3, 76799, Note_on_c, 6, 79, 0
3, 80640, Note_on_c, 6, 79, 49
3, 80719, Note_on_c, 6, 79, 0
3, 80720, Note_on_c, 6, 81, 49
3, 80799, Note_on_c, 6, 81, 0
3, 80800, Note_on_c, 6, 82, 49
3, 80879, Note_on_c, 6, 82, 0
3, 80880, Note_on_c, 6, 79, 49
3, 80959, Note_on_c, 6, 79, 0
3, 80960, Note_on_c, 6, 81, 49
3, 81039, Note_on_c, 6, 81, 0
3, 81040, Note_on_c, 6, 82, 49
3, 81119, Note_on_c, 6, 82, 0
3, 81120, Note_on_c, 6, 79, 49
3, 81199, Note_on_c, 6, 79, 0
3, 81200, Note_on_c, 6, 81, 49
3, 81279, Note_on_c, 6, 81, 0
3, 81280, Note_on_c, 6, 82, 49
3, 81359, Note_on_c, 6, 82, 0
3, 81360, Note_on_c, 6, 78, 49
3, 81439, Note_on_c, 6, 78, 0
3, 81440, Note_on_c, 6, 79, 49
3, 81519, Note_on_c, 6, 79, 0
3, 81520, Note_on_c, 6, 81, 49
3, 81599, Note_on_c, 6, 81, 0
3, 81600, Note_on_c, 6, 78, 49
3, 81679, Note_on_c, 6, 78, 0
3, 81680, Note_on_c, 6, 79, 49
3, 81759, Note_on_c, 6, 79, 0
3, 81760, Note_on_c, 6, 81, 49
3, 81839, Note_on_c, 6, 81, 0
3, 81840, Note_on_c, 6, 78, 49
3, 81919, Note_on_c, 6, 78, 0
3, 81920, Note_on_c, 6, 79, 49
3, 81999, Note_on_c, 6, 79, 0
3, 82000, Note_on_c, 6, 81, 49
3, 82079, Note_on_c, 6, 81, 0
3, 82080, Note_on_c, 6, 79, 49
3, 82159, Note_on_c, 6, 79, 0
3, 82160, Note_on_c, 6, 81, 49
3, 82239, Note_on_c, 6, 81, 0
3, 82240, Note_on_c, 6, 82, 49
3, 82319, Note_on_c, 6, 82, 0
3, 82320, Note_on_c, 6, 79, 49
3, 82399, Note_on_c, 6, 79, 0
3, 82400, Note_on_c, 6, 81, 49
3, 82479, Note_on_c, 6, 81, 0
3, 82480, Note_on_c, 6, 82, 49
3, 82559, Note_on_c, 6, 82, 0
3, 82560, Note_on_c, 6, 79, 49
3, 82639, Note_on_c, 6, 79, 0
3, 82640, Note_on_c, 6, 81, 49
3, 82719, Note_on_c, 6, 81, 0
3, 82720, Note_on_c, 6, 82, 49
3, 82799, Note_on_c, 6, 82, 0
3, 82800, Note_on_c, 6, 78, 49
3, 82879, Note_on_c, 6, 78, 0
3, 82880, Note_on_c, 6, 79, 49
3, 82959, Note_on_c, 6, 79, 0
3, 82960, Note_on_c, 6, 81, 49
3, 83039, Note_on_c, 6, 81, 0
3, 83040, Note_on_c, 6, 78, 49
3, 83119, Note_on_c, 6, 78, 0
3, 83120, Note_on_c, 6, 79, 49
3, 83199, Note_on_c, 6, 79, 0
3, 83200, Note_on_c, 6, 81, 49
3, 83279, Note_on_c, 6, 81, 0
3, 83280, Note_on_c, 6, 78, 49
3, 83359, Note_on_c, 6, 78, 0
3, 83360, Note_on_c, 6, 79, 49
3, 83439, Note_on_c, 6, 79, 0
3, 83440, Note_on_c, 6, 81, 49
3, 83519, Note_on_c, 6, 81, 0
3, 83520, Note_on_c, 6, 79, 49
3, 83699, Note_on_c, 6, 79, 0
3, 83700, Note_on_c, 6, 81, 49
3, 83759, Note_on_c, 6, 81, 0
3, 83760, Note_on_c, 6, 79, 49
3, 83939, Note_on_c, 6, 79, 0
3, 83940, Note_on_c, 6, 81, 49
3, 83999, Note_on_c, 6, 81, 0
3, 84000, Note_on_c, 6, 79, 49
3, 84179, Note_on_c, 6, 79, 0
3, 84180, Note_on_c, 6, 81, 49
3, 84239, Note_on_c, 6, 81, 0
3, 84240, Note_on_c, 6, 79, 49
3, 84419, Note_on_c, 6, 79, 0
3, 84420, Note_on_c, 6, 81, 49
3, 84479, Note_on_c, 6, 81, 0
3, 84480, Note_on_c, 6, 79, 49
3, 84659, Note_on_c, 6, 79, 0
3, 84660, Note_on_c, 6, 81, 49
3, 84719, Note_on_c, 6, 81, 0
3, 84720, Note_on_c, 6, 79, 49
3, 84899, Note_on_c, 6, 79, 0
3, 84900, Note_on_c, 6, 81, 49
3, 84959, Note_on_c, 6, 81, 0
3, 84960, Note_on_c, 6, 77, 49
3, 85139, Note_on_c, 6, 77, 0
3, 85140, Note_on_c, 6, 79, 49
3, 85199, Note_on_c, 6, 79, 0
3, 85200, Note_on_c, 6, 77, 49
3, 85379, Note_on_c, 6, 77, 0
3, 85380, Note_on_c, 6, 79, 49
3, 85439, Note_on_c, 6, 79, 0
3, 85440, Note_on_c, 6, 77, 49
3, 85619, Note_on_c, 6, 77, 0
3, 85620, Note_on_c, 6, 79, 49
3, 85679, Note_on_c, 6, 79, 0
3, 85680, Note_on_c, 6, 77, 49
3, 85859, Note_on_c, 6, 77, 0
3, 85860, Note_on_c, 6, 79, 49
3, 85919, Note_on_c, 6, 79, 0
3, 85920, Note_on_c, 6, 77, 49
3, 86099, Note_on_c, 6, 77, 0
3, 86100, Note_on_c, 6, 79, 49
3, 86159, Note_on_c, 6, 79, 0
3, 86160, Note_on_c, 6, 77, 49
3, 86339, Note_on_c, 6, 77, 0
3, 86340, Note_on_c, 6, 79, 49
3, 86399, Note_on_c, 6, 79, 0
3, 86400, Note_on_c, 6, 76, 49
3, 86579, Note_on_c, 6, 76, 0
3, 86580, Note_on_c, 6, 77, 49
3, 86639, Note_on_c, 6, 77, 0
3, 86640, Note_on_c, 6, 76, 49
3, 86819, Note_on_c, 6, 76, 0
3, 86820, Note_on_c, 6, 77, 49
3, 86879, Note_on_c, 6, 77, 0
3, 86880, Note_on_c, 6, 76, 49
3, 87059, Note_on_c, 6, 76, 0
3, 87060, Note_on_c, 6, 77, 49
3, 87119, Note_on_c, 6, 77, 0
3, 87120, Note_on_c, 6, 76, 49
3, 87299, Note_on_c, 6, 76, 0
3, 87300, Note_on_c, 6, 77, 49
3, 87359, Note_on_c, 6, 77, 0
3, 87360, Note_on_c, 6, 76, 49
3, 87539, Note_on_c, 6, 76, 0
3, 87540, Note_on_c, 6, 77, 49
3, 87599, Note_on_c, 6, 77, 0
3, 87600, Note_on_c, 6, 76, 49
3, 87779, Note_on_c, 6, 76, 0
3, 87780, Note_on_c, 6, 77, 49
3, 87839, Note_on_c, 6, 77, 0
3, 87840, Note_on_c, 6, 74, 49
3, 88019, Note_on_c, 6, 74, 0
3, 88020, Note_on_c, 6, 76, 49
3, 88079, Note_on_c, 6, 76, 0
3, 88080, Note_on_c, 6, 74, 49
3, 88259, Note_on_c, 6, 74, 0
3, 88260, Note_on_c, 6, 76, 49
3, 88319, Note_on_c, 6, 76, 0
3, 88320, Note_on_c, 6, 74, 49
3, 88499, Note_on_c, 6, 74, 0
3, 88500, Note_on_c, 6, 76, 49
3, 88559, Note_on_c, 6, 76, 0
3, 88560, Note_on_c, 6, 74, 49
3, 88739, Note_on_c, 6, 74, 0
3, 88740, Note_on_c, 6, 76, 49
3, 88799, Note_on_c, 6, 76, 0
3, 88800, Note_on_c, 6, 74, 49
3, 88979, Note_on_c, 6, 74, 0
3, 88980, Note_on_c, 6, 76, 49
3, 89039, Note_on_c, 6, 76, 0
3, 89040, Note_on_c, 6, 74, 49
3, 89219, Note_on_c, 6, 74, 0
3, 89220, Note_on_c, 6, 76, 49
3, 89279, Note_on_c, 6, 76, 0
3, 89280, Note_on_c, 6, 74, 96
3, 89339, Note_on_c, 6, 74, 0
3, 89340, Note_on_c, 6, 82, 96
3, 89399, Note_on_c, 6, 82, 0
3, 89400, Note_on_c, 6, 81, 96
3, 89459, Note_on_c, 6, 81, 0
3, 89460, Note_on_c, 6, 79, 96
3, 89519, Note_on_c, 6, 79, 0
3, 89520, Note_on_c, 6, 77, 96
3, 89579, Note_on_c, 6, 77, 0
3, 89580, Note_on_c, 6, 82, 96
3, 89639, Note_on_c, 6, 82, 0
3, 89640, Note_on_c, 6, 81, 96
3, 89699, Note_on_c, 6, 81, 0
3, 89700, Note_on_c, 6, 79, 96
3, 89759, Note_on_c, 6, 79, 0
3, 89760, Note_on_c, 6, 77, 96
3, 89819, Note_on_c, 6, 77, 0
3, 89820, Note_on_c, 6, 76, 96
3, 89879, Note_on_c, 6, 76, 0
3, 89880, Note_on_c, 6, 74, 96
3, 89939, Note_on_c, 6, 74, 0
3, 89940, Note_on_c, 6, 73, 96
3, 89999, Note_on_c, 6, 73, 0
3, 90000, Note_on_c, 6, 74, 96
3, 90059, Note_on_c, 6, 74, 0
3, 90060, Note_on_c, 6, 77, 96
3, 90119, Note_on_c, 6, 77, 0
3, 90120, Note_on_c, 6, 76, 96
3, 90179, Note_on_c, 6, 76, 0
3, 90180, Note_on_c, 6, 74, 96
3, 90239, Note_on_c, 6, 74, 0
3, 90240, Note_on_c, 6, 73, 96
3, 90299, Note_on_c, 6, 73, 0
3, 90300, Note_on_c, 6, 77, 96
3, 90359, Note_on_c, 6, 77, 0
3, 90360, Note_on_c, 6, 76, 96
3, 90419, Note_on_c, 6, 76, 0
3, 90420, Note_on_c, 6, 74, 96
3, 90479, Note_on_c, 6, 74, 0
3, 90480, Note_on_c, 6, 73, 96
3, 90539, Note_on_c, 6, 73, 0
3, 90540, Note_on_c, 6, 71, 96
3, 90599, Note_on_c, 6, 71, 0
3, 90600, Note_on_c, 6, 69, 96
3, 90659, Note_on_c, 6, 69, 0
3, 90660, Note_on_c, 6, 67, 96
3, 90719, Note_on_c, 6, 67, 0
3, 90720, Note_on_c, 6, 65, 96
3, 90959, Note_on_c, 6, 65, 0
3, 90960, Note_on_c, 6, 62, 96
3, 91019, Note_on_c, 6, 62, 0
3, 91020, Note_on_c, 6, 64, 96
3, 91079, Note_on_c, 6, 64, 0
3, 91080, Note_on_c, 6, 65, 96
3, 91139, Note_on_c, 6, 65, 0
3, 91140, Note_on_c, 6, 62, 96
3, 91199, Note_on_c, 6, 62, 0
3, 91200, Note_on_c, 6, 65, 96
3, 91259, Note_on_c, 6, 65, 0
3, 91260, Note_on_c, 6, 67, 96
3, 91319, Note_on_c, 6, 67, 0
3, 91320, Note_on_c, 6, 69, 96
3, 91379, Note_on_c, 6, 69, 0
3, 91380, Note_on_c, 6, 65, 96
3, 91439, Note_on_c, 6, 65, 0
3, 91440, Note_on_c, 6, 69, 96
3, 91679, Note_on_c, 6, 69, 0
3, 91680, Note_on_c, 6, 74, 96
3, 91739, Note_on_c, 6, 74, 0
3, 91740, Note_on_c, 6, 76, 96
3, 91799, Note_on_c, 6, 76, 0
3, 91800, Note_on_c, 6, 77, 96
3, 91859, Note_on_c, 6, 77, 0
3, 91860, Note_on_c, 6, 74, 96
3, 91919, Note_on_c, 6, 74, 0
3, 91920, Note_on_c, 6, 77, 96
3, 91979, Note_on_c, 6, 77, 0
3, 91980, Note_on_c, 6, 79, 96
3, 92039, Note_on_c, 6, 79, 0
3, 92040, Note_on_c, 6, 81, 96
3, 92099, Note_on_c, 6, 81, 0
3, 92100, Note_on_c, 6, 77, 96
3, 92159, Note_on_c, 6, 77, 0
3, 92160, Note_on_c, 6, 81, 96
3, 92219, Note_on_c, 6, 81, 0
3, 92220, Note_on_c, 6, 74, 96
3, 92279, Note_on_c, 6, 74, 0
3, 92280, Note_on_c, 6, 81, 96
3, 92339, Note_on_c, 6, 81, 0
3, 92340, Note_on_c, 6, 74, 96
3, 92399, Note_on_c, 6, 74, 0
3, 92400, Note_on_c, 6, 81, 96
3, 92459, Note_on_c, 6, 81, 0
3, 92460, Note_on_c, 6, 74, 96
3, 92519, Note_on_c, 6, 74, 0
3, 92520, Note_on_c, 6, 81, 96
3, 92579, Note_on_c, 6, 81, 0
3, 92580, Note_on_c, 6, 74, 96
3, 92639, Note_on_c, 6, 74, 0
3, 92640, Note_on_c, 6, 81, 96
3, 92699, Note_on_c, 6, 81, 0
3, 92700, Note_on_c, 6, 74, 96
3, 92759, Note_on_c, 6, 74, 0
3, 92760, Note_on_c, 6, 81, 96
3, 92819, Note_on_c, 6, 81, 0
3, 92820, Note_on_c, 6, 74, 96
3, 92879, Note_on_c, 6, 74, 0
3, 92880, Note_on_c, 6, 81, 96
3, 92939, Note_on_c, 6, 81, 0
3, 92940, Note_on_c, 6, 74, 96
3, 92999, Note_on_c, 6, 74, 0
3, 93000, Note_on_c, 6, 81, 96
3, 93059, Note_on_c, 6, 81, 0
3, 93060, Note_on_c, 6, 74, 96
3, 93119, Note_on_c, 6, 74, 0
3, 93120, Note_on_c, 6, 81, 96
3, 93179, Note_on_c, 6, 81, 0
3, 93180, Note_on_c, 6, 74, 96
3, 93239, Note_on_c, 6, 74, 0
3, 93240, Note_on_c, 6, 81, 96
3, 93299, Note_on_c, 6, 81, 0
3, 93300, Note_on_c, 6, 74, 96
3, 93359, Note_on_c, 6, 74, 0
3, 93360, Note_on_c, 6, 81, 96
3, 93419, Note_on_c, 6, 81, 0
3, 93420, Note_on_c, 6, 74, 96
3, 93479, Note_on_c, 6, 74, 0
3, 93480, Note_on_c, 6, 81, 96
3, 93539, Note_on_c, 6, 81, 0
3, 93540, Note_on_c, 6, 74, 96
3, 93599, Note_on_c, 6, 74, 0
3, 93600, Note_on_c, 6, 79, 96
3, 93659, Note_on_c, 6, 79, 0
3, 93660, Note_on_c, 6, 74, 96
3, 93719, Note_on_c, 6, 74, 0
3, 93720, Note_on_c, 6, 79, 96
3, 93779, Note_on_c, 6, 79, 0
3, 93780, Note_on_c, 6, 74, 96
3, 93839, Note_on_c, 6, 74, 0
3, 93840, Note_on_c, 6, 79, 96
3, 93899, Note_on_c, 6, 79, 0
3, 93900, Note_on_c, 6, 74, 96
3, 93959, Note_on_c, 6, 74, 0
3, 93960, Note_on_c, 6, 79, 96
3, 94019, Note_on_c, 6, 79, 0
3, 94020, Note_on_c, 6, 74, 96
3, 94079, Note_on_c, 6, 74, 0
3, 94080, Note_on_c, 6, 79, 96
3, 94139, Note_on_c, 6, 79, 0
3, 94140, Note_on_c, 6, 74, 96
3, 94199, Note_on_c, 6, 74, 0
3, 94200, Note_on_c, 6, 79, 96
3, 94259, Note_on_c, 6, 79, 0
3, 94260, Note_on_c, 6, 74, 96
3, 94319, Note_on_c, 6, 74, 0
3, 94320, Note_on_c, 6, 77, 96
3, 94379, Note_on_c, 6, 77, 0
3, 94380, Note_on_c, 6, 74, 96
3, 94439, Note_on_c, 6, 74, 0
3, 94440, Note_on_c, 6, 77, 96
3, 94499, Note_on_c, 6, 77, 0
3, 94500, Note_on_c, 6, 74, 96
3, 94559, Note_on_c, 6, 74, 0
3, 94560, Note_on_c, 6, 77, 96
3, 94619, Note_on_c, 6, 77, 0
3, 94620, Note_on_c, 6, 74, 96
3, 94679, Note_on_c, 6, 74, 0
3, 94680, Note_on_c, 6, 77, 96
3, 94739, Note_on_c, 6, 77, 0
3, 94740, Note_on_c, 6, 74, 96
3, 94799, Note_on_c, 6, 74, 0
3, 94800, Note_on_c, 6, 77, 96
3, 94859, Note_on_c, 6, 77, 0
3, 94860, Note_on_c, 6, 74, 96
3, 94919, Note_on_c, 6, 74, 0
3, 94920, Note_on_c, 6, 77, 96
3, 94979, Note_on_c, 6, 77, 0
3, 94980, Note_on_c, 6, 74, 96
3, 95039, Note_on_c, 6, 74, 0
3, 95040, Note_on_c, 6, 82, 96
3, 95099, Note_on_c, 6, 82, 0
3, 95100, Note_on_c, 6, 74, 96
3, 95159, Note_on_c, 6, 74, 0
3, 95160, Note_on_c, 6, 82, 96
3, 95219, Note_on_c, 6, 82, 0
3, 95220, Note_on_c, 6, 74, 96
3, 95279, Note_on_c, 6, 74, 0
3, 95280, Note_on_c, 6, 82, 96
3, 95339, Note_on_c, 6, 82, 0
3, 95340, Note_on_c, 6, 74, 96
3, 95399, Note_on_c, 6, 74, 0
3, 95400, Note_on_c, 6, 82, 96
3, 95459, Note_on_c, 6, 82, 0
3, 95460, Note_on_c, 6, 74, 96
3, 95519, Note_on_c, 6, 74, 0
3, 95520, Note_on_c, 6, 82, 96
3, 95579, Note_on_c, 6, 82, 0
3, 95580, Note_on_c, 6, 74, 96
3, 95639, Note_on_c, 6, 74, 0
3, 95640, Note_on_c, 6, 82, 96
3, 95699, Note_on_c, 6, 82, 0
3, 95700, Note_on_c, 6, 74, 96
3, 95759, Note_on_c, 6, 74, 0
3, 95760, Note_on_c, 6, 81, 96
3, 95819, Note_on_c, 6, 81, 0
3, 95820, Note_on_c, 6, 74, 96
3, 95879, Note_on_c, 6, 74, 0
3, 95880, Note_on_c, 6, 81, 96
3, 95939, Note_on_c, 6, 81, 0
3, 95940, Note_on_c, 6, 74, 96
3, 95999, Note_on_c, 6, 74, 0
3, 96000, Note_on_c, 6, 81, 96
3, 96059, Note_on_c, 6, 81, 0
3, 96060, Note_on_c, 6, 74, 96
3, 96119, Note_on_c, 6, 74, 0
3, 96120, Note_on_c, 6, 81, 96
3, 96179, Note_on_c, 6, 81, 0
3, 96180, Note_on_c, 6, 74, 96
3, 96239, Note_on_c, 6, 74, 0
3, 96240, Note_on_c, 6, 81, 96
3, 96299, Note_on_c, 6, 81, 0
3, 96300, Note_on_c, 6, 74, 96
3, 96359, Note_on_c, 6, 74, 0
3, 96360, Note_on_c, 6, 81, 96
3, 96419, Note_on_c, 6, 81, 0
3, 96420, Note_on_c, 6, 74, 96
3, 96479, Note_on_c, 6, 74, 0
3, 96480, Note_on_c, 6, 79, 96
3, 96539, Note_on_c, 6, 79, 0
3, 96540, Note_on_c, 6, 74, 96
3, 96599, Note_on_c, 6, 74, 0
3, 96600, Note_on_c, 6, 79, 96
3, 96659, Note_on_c, 6, 79, 0
3, 96660, Note_on_c, 6, 74, 96
3, 96719, Note_on_c, 6, 74, 0
3, 96720, Note_on_c, 6, 79, 96
3, 96779, Note_on_c, 6, 79, 0
3, 96780, Note_on_c, 6, 74, 96
3, 96839, Note_on_c, 6, 74, 0
3, 96840, Note_on_c, 6, 79, 96
3, 96899, Note_on_c, 6, 79, 0
3, 96900, Note_on_c, 6, 74, 96
3, 96959, Note_on_c, 6, 74, 0
3, 96960, Note_on_c, 6, 79, 96
3, 97019, Note_on_c, 6, 79, 0
3, 97020, Note_on_c, 6, 74, 96
3, 97079, Note_on_c, 6, 74, 0
3, 97080, Note_on_c, 6, 79, 96
3, 97139, Note_on_c, 6, 79, 0
3, 97140, Note_on_c, 6, 74, 96
3, 97199, Note_on_c, 6, 74, 0
3, 97200, Note_on_c, 6, 77, 96
3, 97259, Note_on_c, 6, 77, 0
3, 97260, Note_on_c, 6, 74, 96
3, 97319, Note_on_c, 6, 74, 0
3, 97320, Note_on_c, 6, 77, 96
3, 97379, Note_on_c, 6, 77, 0
3, 97380, Note_on_c, 6, 74, 96
3, 97439, Note_on_c, 6, 74, 0
3, 97440, Note_on_c, 6, 77, 96
3, 97499, Note_on_c, 6, 77, 0
3, 97500, Note_on_c, 6, 74, 96
3, 97559, Note_on_c, 6, 74, 0
3, 97560, Note_on_c, 6, 77, 96
3, 97619, Note_on_c, 6, 77, 0
3, 97620, Note_on_c, 6, 74, 96
3, 97679, Note_on_c, 6, 74, 0
3, 97680, Note_on_c, 6, 77, 96
3, 97739, Note_on_c, 6, 77, 0
3, 97740, Note_on_c, 6, 74, 96
3, 97799, Note_on_c, 6, 74, 0
3, 97800, Note_on_c, 6, 77, 96
3, 97859, Note_on_c, 6, 77, 0
3, 97860, Note_on_c, 6, 74, 96
3, 97919, Note_on_c, 6, 74, 0
3, 97920, Note_on_c, 6, 76, 96
3, 97979, Note_on_c, 6, 76, 0
3, 97980, Note_on_c, 6, 73, 96
3, 98039, Note_on_c, 6, 73, 0
3, 98040, Note_on_c, 6, 76, 96
3, 98099, Note_on_c, 6, 76, 0
3, 98100, Note_on_c, 6, 73, 96
3, 98159, Note_on_c, 6, 73, 0
3, 98160, Note_on_c, 6, 76, 96
3, 98219, Note_on_c, 6, 76, 0
3, 98220, Note_on_c, 6, 73, 96
3, 98279, Note_on_c, 6, 73, 0
3, 98280, Note_on_c, 6, 76, 96
3, 98339, Note_on_c, 6, 76, 0
3, 98340, Note_on_c, 6, 73, 96
3, 98399, Note_on_c, 6, 73, 0
3, 98400, Note_on_c, 6, 76, 96
3, 98459, Note_on_c, 6, 76, 0
3, 98460, Note_on_c, 6, 73, 96
3, 98519, Note_on_c, 6, 73, 0
3, 98520, Note_on_c, 6, 76, 96
3, 98579, Note_on_c, 6, 76, 0
3, 98580, Note_on_c, 6, 73, 96
3, 98639, Note_on_c, 6, 73, 0
3, 98640, Note_on_c, 6, 77, 96
3, 98699, Note_on_c, 6, 77, 0
3, 98700, Note_on_c, 6, 74, 96
3, 98759, Note_on_c, 6, 74, 0
3, 98760, Note_on_c, 6, 77, 96
3, 98819, Note_on_c, 6, 77, 0
3, 98820, Note_on_c, 6, 74, 96
3, 98879, Note_on_c, 6, 74, 0
3, 98880, Note_on_c, 6, 77, 96
3, 98939, Note_on_c, 6, 77, 0
3, 98940, Note_on_c, 6, 74, 96
3, 98999, Note_on_c, 6, 74, 0
3, 99000, Note_on_c, 6, 77, 96
3, 99059, Note_on_c, 6, 77, 0
3, 99060, Note_on_c, 6, 74, 96
3, 99119, Note_on_c, 6, 74, 0
3, 99120, Note_on_c, 6, 77, 96
3, 99179, Note_on_c, 6, 77, 0
3, 99180, Note_on_c, 6, 74, 96
3, 99239, Note_on_c, 6, 74, 0
3, 99240, Note_on_c, 6, 77, 96
3, 99299, Note_on_c, 6, 77, 0
3, 99300, Note_on_c, 6, 74, 96
3, 99359, Note_on_c, 6, 74, 0
3, 99360, Note_on_c, 6, 79, 96
3, 99419, Note_on_c, 6, 79, 0
3, 99420, Note_on_c, 6, 76, 96
3, 99479, Note_on_c, 6, 76, 0
3, 99480, Note_on_c, 6, 79, 96
3, 99539, Note_on_c, 6, 79, 0
3, 99540, Note_on_c, 6, 76, 96
3, 99599, Note_on_c, 6, 76, 0
3, 99600, Note_on_c, 6, 79, 96
3, 99659, Note_on_c, 6, 79, 0
3, 99660, Note_on_c, 6, 76, 96
3, 99719, Note_on_c, 6, 76, 0
3, 99720, Note_on_c, 6, 79, 96
3, 99779, Note_on_c, 6, 79, 0
3, 99780, Note_on_c, 6, 76, 96
3, 99839, Note_on_c, 6, 76, 0
3, 99840, Note_on_c, 6, 79, 96
3, 99899, Note_on_c, 6, 79, 0
3, 99900, Note_on_c, 6, 76, 96
3, 99959, Note_on_c, 6, 76, 0
3, 99960, Note_on_c, 6, 79, 96
3, 100019, Note_on_c, 6, 79, 0
3, 100020, Note_on_c, 6, 76, 96
3, 100079, Note_on_c, 6, 76, 0
3, 100080, Note_on_c, 6, 77, 96
3, 100139, Note_on_c, 6, 77, 0
3, 100140, Note_on_c, 6, 74, 96
3, 100199, Note_on_c, 6, 74, 0
3, 100200, Note_on_c, 6, 77, 96
3, 100259, Note_on_c, 6, 77, 0
3, 100260, Note_on_c, 6, 74, 96
3, 100319, Note_on_c, 6, 74, 0
3, 100320, Note_on_c, 6, 77, 96
3, 100379, Note_on_c, 6, 77, 0
3, 100380, Note_on_c, 6, 74, 96
3, 100439, Note_on_c, 6, 74, 0
3, 100440, Note_on_c, 6, 77, 96
3, 100499, Note_on_c, 6, 77, 0
3, 100500, Note_on_c, 6, 74, 96
3, 100559, Note_on_c, 6, 74, 0
3, 100560, Note_on_c, 6, 77, 96
3, 100619, Note_on_c, 6, 77, 0
3, 100620, Note_on_c, 6, 74, 96
3, 100679, Note_on_c, 6, 74, 0
3, 100680, Note_on_c, 6, 77, 96
3, 100739, Note_on_c, 6, 77, 0
3, 100740, Note_on_c, 6, 74, 96
3, 100799, Note_on_c, 6, 74, 0
3, 100800, Note_on_c, 6, 76, 96
3, 100859, Note_on_c, 6, 76, 0
3, 100860, Note_on_c, 6, 73, 96
3, 100919, Note_on_c, 6, 73, 0
3, 100920, Note_on_c, 6, 76, 96
3, 100979, Note_on_c, 6, 76, 0
3, 100980, Note_on_c, 6, 73, 96
3, 101039, Note_on_c, 6, 73, 0
3, 101040, Note_on_c, 6, 76, 96
3, 101099, Note_on_c, 6, 76, 0
3, 101100, Note_on_c, 6, 73, 96
3, 101159, Note_on_c, 6, 73, 0
3, 101160, Note_on_c, 6, 76, 96
3, 101219, Note_on_c, 6, 76, 0
3, 101220, Note_on_c, 6, 73, 96
3, 101279, Note_on_c, 6, 73, 0
3, 101280, Note_on_c, 6, 76, 96
3, 101339, Note_on_c, 6, 76, 0
3, 101340, Note_on_c, 6, 73, 96
3, 101399, Note_on_c, 6, 73, 0
3, 101400, Note_on_c, 6, 76, 96
3, 101459, Note_on_c, 6, 76, 0
3, 101460, Note_on_c, 6, 73, 96
3, 101519, Note_on_c, 6, 73, 0
3, 101520, Note_on_c, 6, 74, 96
3, 101579, Note_on_c, 6, 74, 0
3, 101580, Note_on_c, 6, 69, 96
3, 101639, Note_on_c, 6, 69, 0
3, 101640, Note_on_c, 6, 74, 96
3, 101699, Note_on_c, 6, 74, 0
3, 101700, Note_on_c, 6, 69, 96
3, 101759, Note_on_c, 6, 69, 0
3, 101760, Note_on_c, 6, 74, 96
3, 101819, Note_on_c, 6, 74, 0
3, 101820, Note_on_c, 6, 69, 96
3, 101879, Note_on_c, 6, 69, 0
3, 101880, Note_on_c, 6, 74, 96
3, 101939, Note_on_c, 6, 74, 0
3, 101940, Note_on_c, 6, 69, 96
3, 101999, Note_on_c, 6, 69, 0
3, 102000, Note_on_c, 6, 74, 96
3, 102059, Note_on_c, 6, 74, 0
3, 102060, Note_on_c, 6, 69, 96
3, 102119, Note_on_c, 6, 69, 0
3, 102120, Note_on_c, 6, 74, 96
3, 102179, Note_on_c, 6, 74, 0
3, 102180, Note_on_c, 6, 69, 96
3, 102239, Note_on_c, 6, 69, 0
3, 102240, Note_on_c, 6, 74, 96
3, 102299, Note_on_c, 6, 74, 0
3, 102300, Note_on_c, 6, 69, 96
3, 102359, Note_on_c, 6, 69, 0
3, 102360, Note_on_c, 6, 74, 96
3, 102419, Note_on_c, 6, 74, 0
3, 102420, Note_on_c, 6, 69, 96
3, 102479, Note_on_c, 6, 69, 0
3, 102480, Note_on_c, 6, 74, 96
3, 102539, Note_on_c, 6, 74, 0
3, 102540, Note_on_c, 6, 69, 96
3, 102599, Note_on_c, 6, 69, 0
3, 102600, Note_on_c, 6, 74, 96
3, 102659, Note_on_c, 6, 74, 0
3, 102660, Note_on_c, 6, 69, 96
3, 102719, Note_on_c, 6, 69, 0
3, 102720, Note_on_c, 6, 74, 96
3, 102779, Note_on_c, 6, 74, 0
3, 102780, Note_on_c, 6, 69, 96
3, 102839, Note_on_c, 6, 69, 0
3, 102840, Note_on_c, 6, 74, 96
3, 102899, Note_on_c, 6, 74, 0
3, 102900, Note_on_c, 6, 69, 96
3, 102959, Note_on_c, 6, 69, 0
3, 102960, Note_on_c, 6, 73, 96
3, 103019, Note_on_c, 6, 73, 0
3, 103020, Note_on_c, 6, 69, 96
3, 103079, Note_on_c, 6, 69, 0
3, 103080, Note_on_c, 6, 73, 96
3, 103139, Note_on_c, 6, 73, 0
3, 103140, Note_on_c, 6, 69, 96
3, 103199, Note_on_c, 6, 69, 0
3, 103200, Note_on_c, 6, 73, 96
3, 103259, Note_on_c, 6, 73, 0
3, 103260, Note_on_c, 6, 69, 96
3, 103319, Note_on_c, 6, 69, 0
3, 103320, Note_on_c, 6, 73, 96
3, 103379, Note_on_c, 6, 73, 0
3, 103380, Note_on_c, 6, 69, 96
3, 103439, Note_on_c, 6, 69, 0
3, 103440, Note_on_c, 6, 73, 96
3, 103499, Note_on_c, 6, 73, 0
3, 103500, Note_on_c, 6, 69, 96
3, 103559, Note_on_c, 6, 69, 0
3, 103560, Note_on_c, 6, 73, 96
3, 103619, Note_on_c, 6, 73, 0
3, 103620, Note_on_c, 6, 69, 96
3, 103679, Note_on_c, 6, 69, 0
3, 103680, Note_on_c, 6, 65, 96
3, 103919, Note_on_c, 6, 65, 0
3, 103920, Note_on_c, 6, 74, 49
3, 104159, Note_on_c, 6, 74, 0
3, 104160, Note_on_c, 6, 73, 49
3, 104399, Note_on_c, 6, 73, 0
3, 104640, Note_on_c, 6, 76, 49
3, 104879, Note_on_c, 6, 76, 0
3, 104880, Note_on_c, 6, 74, 49
3, 105119, Note_on_c, 6, 74, 0
3, 105360, Note_on_c, 6, 70, 49
3, 105479, Note_on_c, 6, 70, 0
3, 105480, Note_on_c, 6, 72, 49
3, 105599, Note_on_c, 6, 72, 0
3, 105600, Note_on_c, 6, 74, 49
3, 105839, Note_on_c, 6, 74, 0
3, 106080, Note_on_c, 6, 67, 49
3, 106199, Note_on_c, 6, 67, 0
3, 106200, Note_on_c, 6, 69, 49
3, 106319, Note_on_c, 6, 69, 0
3, 106320, Note_on_c, 6, 70, 49
3, 106559, Note_on_c, 6, 70, 0
3, 106800, Note_on_c, 6, 65, 49
3, 106919, Note_on_c, 6, 65, 0
3, 106920, Note_on_c, 6, 67, 49
3, 107039, Note_on_c, 6, 67, 0
3, 107040, Note_on_c, 6, 69, 49
3, 107279, Note_on_c, 6, 69, 0
3, 107520, Note_on_c, 6, 64, 49
3, 107639, Note_on_c, 6, 64, 0
3, 107640, Note_on_c, 6, 65, 49
3, 107759, Note_on_c, 6, 65, 0
3, 107760, Note_on_c, 6, 67, 49
3, 107999, Note_on_c, 6, 67, 0
3, 108000, Note_on_c, 6, 65, 49
3, 108479, Note_on_c, 6, 65, 0
3, 136080, Note_on_c, 6, 70, 96
3, 136139, Note_on_c, 6, 70, 0
3, 136140, Note_on_c, 6, 62, 96
3, 136199, Note_on_c, 6, 62, 0
3, 136200, Note_on_c, 6, 70, 96
3, 136259, Note_on_c, 6, 70, 0
3, 136260, Note_on_c, 6, 62, 96
3, 136319, Note_on_c, 6, 62, 0
3, 136320, Note_on_c, 6, 70, 96
3, 136379, Note_on_c, 6, 70, 0
3, 136380, Note_on_c, 6, 62, 96
3, 136439, Note_on_c, 6, 62, 0
3, 136440, Note_on_c, 6, 70, 96
3, 136499, Note_on_c, 6, 70, 0
3, 136500, Note_on_c, 6, 62, 96
3, 136559, Note_on_c, 6, 62, 0
3, 136560, Note_on_c, 6, 70, 96
3, 136619, Note_on_c, 6, 70, 0
3, 136620, Note_on_c, 6, 62, 96
3, 136679, Note_on_c, 6, 62, 0
3, 136680, Note_on_c, 6, 70, 96
3, 136739, Note_on_c, 6, 70, 0
3, 136740, Note_on_c, 6, 62, 96
3, 136799, Note_on_c, 6, 62, 0
3, 136800, Note_on_c, 6, 69, 96
3, 136859, Note_on_c, 6, 69, 0
3, 136860, Note_on_c, 6, 62, 96
3, 136919, Note_on_c, 6, 62, 0
3, 136920, Note_on_c, 6, 69, 96
3, 136979, Note_on_c, 6, 69, 0
3, 136980, Note_on_c, 6, 62, 96
3, 137039, Note_on_c, 6, 62, 0
3, 137040, Note_on_c, 6, 69, 96
3, 137099, Note_on_c, 6, 69, 0
3, 137100, Note_on_c, 6, 62, 96
3, 137159, Note_on_c, 6, 62, 0
3, 137160, Note_on_c, 6, 69, 96
3, 137219, Note_on_c, 6, 69, 0
3, 137220, Note_on_c, 6, 62, 96
3, 137279, Note_on_c, 6, 62, 0
3, 137280, Note_on_c, 6, 69, 96
3, 137339, Note_on_c, 6, 69, 0
3, 137340, Note_on_c, 6, 62, 96
3, 137399, Note_on_c, 6, 62, 0
3, 137400, Note_on_c, 6, 69, 96
3, 137459, Note_on_c, 6, 69, 0
3, 137460, Note_on_c, 6, 62, 96
3, 137519, Note_on_c, 6, 62, 0
3, 137520, Note_on_c, 6, 67, 96
3, 137579, Note_on_c, 6, 67, 0
3, 137580, Note_on_c, 6, 62, 96
3, 137639, Note_on_c, 6, 62, 0
3, 137640, Note_on_c, 6, 67, 96
3, 137699, Note_on_c, 6, 67, 0
3, 137700, Note_on_c, 6, 62, 96
3, 137759, Note_on_c, 6, 62, 0
3, 137760, Note_on_c, 6, 67, 96
3, 137819, Note_on_c, 6, 67, 0
3, 137820, Note_on_c, 6, 62, 96
3, 137879, Note_on_c, 6, 62, 0
3, 137880, Note_on_c, 6, 67, 96
3, 137939, Note_on_c, 6, 67, 0
3, 137940, Note_on_c, 6, 62, 96
3, 137999, Note_on_c, 6, 62, 0
3, 138000, Note_on_c, 6, 67, 96
3, 138059, Note_on_c, 6, 67, 0
3, 138060, Note_on_c, 6, 62, 96
3, 138119, Note_on_c, 6, 62, 0
3, 138120, Note_on_c, 6, 67, 96
3, 138179, Note_on_c, 6, 67, 0
3, 138180, Note_on_c, 6, 62, 96
3, 138239, Note_on_c, 6, 62, 0
3, 138240, Note_on_c, 6, 66, 96
3, 138299, Note_on_c, 6, 66, 0
3, 138300, Note_on_c, 6, 62, 96
3, 138359, Note_on_c, 6, 62, 0
3, 138360, Note_on_c, 6, 66, 96
3, 138419, Note_on_c, 6, 66, 0
3, 138420, Note_on_c, 6, 62, 96
3, 138479, Note_on_c, 6, 62, 0
3, 138480, Note_on_c, 6, 66, 96
3, 138539, Note_on_c, 6, 66, 0
3, 138540, Note_on_c, 6, 62, 96
3, 138599, Note_on_c, 6, 62, 0
3, 138600, Note_on_c, 6, 66, 96
3, 138659, Note_on_c, 6, 66, 0
3, 138660, Note_on_c, 6, 62, 96
3, 138719, Note_on_c, 6, 62, 0
3, 138720, Note_on_c, 6, 66, 96
3, 138779, Note_on_c, 6, 66, 0
3, 138780, Note_on_c, 6, 62, 96
3, 138839, Note_on_c, 6, 62, 0
3, 138840, Note_on_c, 6, 66, 96
3, 138899, Note_on_c, 6, 66, 0
3, 138900, Note_on_c, 6, 62, 96
3, 138959, Note_on_c, 6, 62, 0
3, 138960, Note_on_c, 6, 70, 96
3, 139019, Note_on_c, 6, 70, 0
3, 139020, Note_on_c, 6, 62, 96
3, 139079, Note_on_c, 6, 62, 0
3, 139080, Note_on_c, 6, 70, 96
3, 139139, Note_on_c, 6, 70, 0
3, 139140, Note_on_c, 6, 62, 96
3, 139199, Note_on_c, 6, 62, 0
3, 139200, Note_on_c, 6, 70, 96
3, 139259, Note_on_c, 6, 70, 0
3, 139260, Note_on_c, 6, 62, 96
3, 139319, Note_on_c, 6, 62, 0
3, 139320, Note_on_c, 6, 70, 96
3, 139379, Note_on_c, 6, 70, 0
3, 139380, Note_on_c, 6, 62, 96
3, 139439, Note_on_c, 6, 62, 0
3, 139440, Note_on_c, 6, 70, 96
3, 139499, Note_on_c, 6, 70, 0
3, 139500, Note_on_c, 6, 62, 96
3, 139559, Note_on_c, 6, 62, 0
3, 139560, Note_on_c, 6, 70, 96
3, 139619, Note_on_c, 6, 70, 0
3, 139620, Note_on_c, 6, 62, 96
3, 139679, Note_on_c, 6, 62, 0
3, 139680, Note_on_c, 6, 69, 96
3, 139739, Note_on_c, 6, 69, 0
3, 139740, Note_on_c, 6, 62, 96
3, 139799, Note_on_c, 6, 62, 0
3, 139800, Note_on_c, 6, 69, 96
3, 139859, Note_on_c, 6, 69, 0
3, 139860, Note_on_c, 6, 62, 96
3, 139919, Note_on_c, 6, 62, 0
3, 139920, Note_on_c, 6, 69, 96
3, 139979, Note_on_c, 6, 69, 0
3, 139980, Note_on_c, 6, 62, 96
3, 140039, Note_on_c, 6, 62, 0
3, 140040, Note_on_c, 6, 69, 96
3, 140099, Note_on_c, 6, 69, 0
3, 140100, Note_on_c, 6, 62, 96
3, 140159, Note_on_c, 6, 62, 0
3, 140160, Note_on_c, 6, 69, 96
3, 140219, Note_on_c, 6, 69, 0
3, 140220, Note_on_c, 6, 62, 96
3, 140279, Note_on_c, 6, 62, 0
3, 140280, Note_on_c, 6, 69, 96
3, 140339, Note_on_c, 6, 69, 0
3, 140340, Note_on_c, 6, 62, 96
3, 140399, Note_on_c, 6, 62, 0
3, 140400, Note_on_c, 6, 67, 96
3, 140459, Note_on_c, 6, 67, 0
3, 140460, Note_on_c, 6, 62, 96
3, 140519, Note_on_c, 6, 62, 0
3, 140520, Note_on_c, 6, 67, 96
3, 140579, Note_on_c, 6, 67, 0
3, 140580, Note_on_c, 6, 62, 96
3, 140639, Note_on_c, 6, 62, 0
3, 140640, Note_on_c, 6, 67, 96
3, 140699, Note_on_c, 6, 67, 0
3, 140700, Note_on_c, 6, 62, 96
3, 140759, Note_on_c, 6, 62, 0
3, 140760, Note_on_c, 6, 67, 96
3, 140819, Note_on_c, 6, 67, 0
3, 140820, Note_on_c, 6, 62, 96
3, 140879, Note_on_c, 6, 62, 0
3, 140880, Note_on_c, 6, 67, 96
3, 140939, Note_on_c, 6, 67, 0
3, 140940, Note_on_c, 6, 62, 96
3, 140999, Note_on_c, 6, 62, 0
3, 141000, Note_on_c, 6, 67, 96
3, 141059, Note_on_c, 6, 67, 0
3, 141060, Note_on_c, 6, 62, 96
3, 141119, Note_on_c, 6, 62, 0
3, 141120, Note_on_c, 6, 66, 96
3, 141179, Note_on_c, 6, 66, 0
3, 141180, Note_on_c, 6, 62, 96
3, 141239, Note_on_c, 6, 62, 0
3, 141240, Note_on_c, 6, 66, 96
3, 141299, Note_on_c, 6, 66, 0
3, 141300, Note_on_c, 6, 62, 96
3, 141359, Note_on_c, 6, 62, 0
3, 141360, Note_on_c, 6, 66, 96
3, 141419, Note_on_c, 6, 66, 0
3, 141420, Note_on_c, 6, 62, 96
3, 141479, Note_on_c, 6, 62, 0
3, 141480, Note_on_c, 6, 66, 96
3, 141539, Note_on_c, 6, 66, 0
3, 141540, Note_on_c, 6, 62, 96
3, 141599, Note_on_c, 6, 62, 0
3, 141600, Note_on_c, 6, 66, 96
3, 141659, Note_on_c, 6, 66, 0
3, 141660, Note_on_c, 6, 62, 96
3, 141719, Note_on_c, 6, 62, 0
3, 141720, Note_on_c, 6, 66, 96
3, 141779, Note_on_c, 6, 66, 0
3, 141780, Note_on_c, 6, 62, 96
3, 141839, Note_on_c, 6, 62, 0
3, 141840, Note_on_c, 6, 82, 96
3, 141899, Note_on_c, 6, 82, 0
3, 141900, Note_on_c, 6, 81, 96
3, 141959, Note_on_c, 6, 81, 0
3, 141960, Note_on_c, 6, 81, 96
3, 142019, Note_on_c, 6, 81, 0
3, 142020, Note_on_c, 6, 79, 96
3, 142079, Note_on_c, 6, 79, 0
3, 142080, Note_on_c, 6, 79, 96
3, 142139, Note_on_c, 6, 79, 0
3, 142140, Note_on_c, 6, 77, 96
3, 142199, Note_on_c, 6, 77, 0
3, 142200, Note_on_c, 6, 77, 96
3, 142259, Note_on_c, 6, 77, 0
3, 142260, Note_on_c, 6, 75, 96
3, 142319, Note_on_c, 6, 75, 0
3, 142320, Note_on_c, 6, 75, 96
3, 142379, Note_on_c, 6, 75, 0
3, 142380, Note_on_c, 6, 74, 96
3, 142439, Note_on_c, 6, 74, 0
3, 142440, Note_on_c, 6, 74, 96
3, 142499, Note_on_c, 6, 74, 0
3, 142500, Note_on_c, 6, 72, 96
3, 142559, Note_on_c, 6, 72, 0
3, 142560, Note_on_c, 6, 72, 96
3, 142619, Note_on_c, 6, 72, 0
3, 142620, Note_on_c, 6, 70, 96
3, 142679, Note_on_c, 6, 70, 0
3, 142680, Note_on_c, 6, 70, 96
3, 142739, Note_on_c, 6, 70, 0
3, 142740, Note_on_c, 6, 69, 96
3, 142799, Note_on_c, 6, 69, 0
3, 142800, Note_on_c, 6, 69, 96
3, 142859, Note_on_c, 6, 69, 0
3, 142860, Note_on_c, 6, 67, 96
3, 142919, Note_on_c, 6, 67, 0
3, 142920, Note_on_c, 6, 67, 96
3, 142979, Note_on_c, 6, 67, 0
3, 142980, Note_on_c, 6, 66, 96
3, 143039, Note_on_c, 6, 66, 0
3, 143040, Note_on_c, 6, 66, 96
3, 143099, Note_on_c, 6, 66, 0
3, 143100, Note_on_c, 6, 63, 96
3, 143159, Note_on_c, 6, 63, 0
3, 143160, Note_on_c, 6, 63, 96
3, 143219, Note_on_c, 6, 63, 0
3, 143220, Note_on_c, 6, 62, 96
3, 143279, Note_on_c, 6, 62, 0
3, 143280, Note_on_c, 6, 62, 96
3, 143339, Note_on_c, 6, 62, 0
3, 143340, Note_on_c, 6, 62, 96
3, 143399, Note_on_c, 6, 62, 0
3, 143400, Note_on_c, 6, 64, 96
3, 143459, Note_on_c, 6, 64, 0
3, 143460, Note_on_c, 6, 66, 96
3, 143519, Note_on_c, 6, 66, 0
3, 143520, Note_on_c, 6, 67, 96
3, 143579, Note_on_c, 6, 67, 0
3, 143580, Note_on_c, 6, 69, 96
3, 143639, Note_on_c, 6, 69, 0
3, 143640, Note_on_c, 6, 70, 96
3, 143699, Note_on_c, 6, 70, 0
3, 143700, Note_on_c, 6, 72, 96
3, 143759, Note_on_c, 6, 72, 0
3, 143760, Note_on_c, 6, 74, 96
3, 143819, Note_on_c, 6, 74, 0
3, 143820, Note_on_c, 6, 72, 96
3, 143879, Note_on_c, 6, 72, 0
3, 143880, Note_on_c, 6, 70, 96
3, 143939, Note_on_c, 6, 70, 0
3, 143940, Note_on_c, 6, 69, 96
3, 143999, Note_on_c, 6, 69, 0
3, 144000, Note_on_c, 6, 67, 96
3, 144059, Note_on_c, 6, 67, 0
3, 144060, Note_on_c, 6, 67, 96
3, 144119, Note_on_c, 6, 67, 0
3, 144120, Note_on_c, 6, 69, 96
3, 144179, Note_on_c, 6, 69, 0
3, 144180, Note_on_c, 6, 70, 96
3, 144239, Note_on_c, 6, 70, 0
3, 144240, Note_on_c, 6, 72, 96
3, 144299, Note_on_c, 6, 72, 0
3, 144300, Note_on_c, 6, 74, 96
3, 144359, Note_on_c, 6, 74, 0
3, 144360, Note_on_c, 6, 75, 96
3, 144419, Note_on_c, 6, 75, 0
3, 144420, Note_on_c, 6, 77, 96
3, 144479, Note_on_c, 6, 77, 0
3, 144480, Note_on_c, 6, 79, 96
3, 144539, Note_on_c, 6, 79, 0
3, 144540, Note_on_c, 6, 77, 96
3, 144599, Note_on_c, 6, 77, 0
3, 144600, Note_on_c, 6, 75, 96
3, 144659, Note_on_c, 6, 75, 0
3, 144660, Note_on_c, 6, 74, 96
3, 144719, Note_on_c, 6, 74, 0
3, 144720, Note_on_c, 6, 72, 96
3, 144779, Note_on_c, 6, 72, 0
3, 144780, Note_on_c, 6, 74, 96
3, 144839, Note_on_c, 6, 74, 0
3, 144840, Note_on_c, 6, 72, 96
3, 144899, Note_on_c, 6, 72, 0
3, 144900, Note_on_c, 6, 74, 96
3, 144959, Note_on_c, 6, 74, 0
3, 144960, Note_on_c, 6, 70, 96
3, 145019, Note_on_c, 6, 70, 0
3, 145020, Note_on_c, 6, 72, 96
3, 145079, Note_on_c, 6, 72, 0
3, 145080, Note_on_c, 6, 70, 96
3, 145139, Note_on_c, 6, 70, 0
3, 145140, Note_on_c, 6, 72, 96
3, 145199, Note_on_c, 6, 72, 0
3, 145200, Note_on_c, 6, 69, 96
3, 145259, Note_on_c, 6, 69, 0
3, 145260, Note_on_c, 6, 70, 96
3, 145319, Note_on_c, 6, 70, 0
3, 145320, Note_on_c, 6, 69, 96
3, 145379, Note_on_c, 6, 69, 0
3, 145380, Note_on_c, 6, 70, 96
3, 145439, Note_on_c, 6, 70, 0
3, 145440, Note_on_c, 6, 67, 96
3, 145499, Note_on_c, 6, 67, 0
3, 145500, Note_on_c, 6, 69, 96
3, 145559, Note_on_c, 6, 69, 0
3, 145560, Note_on_c, 6, 67, 96
3, 145619, Note_on_c, 6, 67, 0
3, 145620, Note_on_c, 6, 69, 96
3, 145679, Note_on_c, 6, 69, 0
3, 145680, Note_on_c, 6, 65, 96
3, 145739, Note_on_c, 6, 65, 0
3, 145740, Note_on_c, 6, 67, 96
3, 145799, Note_on_c, 6, 67, 0
3, 145800, Note_on_c, 6, 65, 96
3, 145859, Note_on_c, 6, 65, 0
3, 145860, Note_on_c, 6, 67, 96
3, 145919, Note_on_c, 6, 67, 0
3, 145920, Note_on_c, 6, 64, 96
3, 145979, Note_on_c, 6, 64, 0
3, 145980, Note_on_c, 6, 65, 96
3, 146039, Note_on_c, 6, 65, 0
3, 146040, Note_on_c, 6, 64, 96
3, 146099, Note_on_c, 6, 64, 0
3, 146100, Note_on_c, 6, 65, 96
3, 146159, Note_on_c, 6, 65, 0
3, 146160, Note_on_c, 6, 62, 96
3, 146219, Note_on_c, 6, 62, 0
3, 146220, Note_on_c, 6, 62, 96
3, 146279, Note_on_c, 6, 62, 0
3, 146280, Note_on_c, 6, 64, 96
3, 146339, Note_on_c, 6, 64, 0
3, 146340, Note_on_c, 6, 66, 96
3, 146399, Note_on_c, 6, 66, 0
3, 146400, Note_on_c, 6, 67, 96
3, 146459, Note_on_c, 6, 67, 0
3, 146460, Note_on_c, 6, 69, 96
3, 146519, Note_on_c, 6, 69, 0
3, 146520, Note_on_c, 6, 70, 96
3, 146579, Note_on_c, 6, 70, 0
3, 146580, Note_on_c, 6, 72, 96
3, 146639, Note_on_c, 6, 72, 0
3, 146640, Note_on_c, 6, 74, 96
3, 146699, Note_on_c, 6, 74, 0
3, 146700, Note_on_c, 6, 72, 96
3, 146759, Note_on_c, 6, 72, 0
3, 146760, Note_on_c, 6, 70, 96
3, 146819, Note_on_c, 6, 70, 0
3, 146820, Note_on_c, 6, 69, 96
3, 146879, Note_on_c, 6, 69, 0
3, 146880, Note_on_c, 6, 70, 96
3, 146939, Note_on_c, 6, 70, 0
3, 146940, Note_on_c, 6, 67, 96
3, 146999, Note_on_c, 6, 67, 0
3, 147000, Note_on_c, 6, 65, 96
3, 147059, Note_on_c, 6, 65, 0
3, 147060, Note_on_c, 6, 63, 96
3, 147119, Note_on_c, 6, 63, 0
3, 147120, Note_on_c, 6, 62, 96
3, 147179, Note_on_c, 6, 62, 0
3, 147180, Note_on_c, 6, 63, 96
3, 147239, Note_on_c, 6, 63, 0
3, 147240, Note_on_c, 6, 62, 96
3, 147299, Note_on_c, 6, 62, 0
3, 147300, Note_on_c, 6, 60, 96
3, 147359, Note_on_c, 6, 60, 0
3, 147360, Note_on_c, 6, 58, 96
3, 147419, Note_on_c, 6, 58, 0
3, 147420, Note_on_c, 6, 60, 96
3, 147479, Note_on_c, 6, 60, 0
3, 147480, Note_on_c, 6, 58, 96
3, 147539, Note_on_c, 6, 58, 0
3, 147540, Note_on_c, 6, 57, 96
3, 147599, Note_on_c, 6, 57, 0
3, 147600, Note_on_c, 6, 55, 96
3, 147659, Note_on_c, 6, 55, 0
3, 147660, Note_on_c, 6, 67, 96
3, 147719, Note_on_c, 6, 67, 0
3, 147720, Note_on_c, 6, 65, 96
3, 147779, Note_on_c, 6, 65, 0
3, 147780, Note_on_c, 6, 63, 96
3, 147839, Note_on_c, 6, 63, 0
3, 147840, Note_on_c, 6, 62, 96
3, 147899, Note_on_c, 6, 62, 0
3, 147900, Note_on_c, 6, 63, 96
3, 147959, Note_on_c, 6, 63, 0
3, 147960, Note_on_c, 6, 62, 96
3, 148019, Note_on_c, 6, 62, 0
3, 148020, Note_on_c, 6, 60, 96
3, 148079, Note_on_c, 6, 60, 0
3, 148080, Note_on_c, 6, 58, 96
3, 148139, Note_on_c, 6, 58, 0
3, 148140, Note_on_c, 6, 60, 96
3, 148199, Note_on_c, 6, 60, 0
3, 148200, Note_on_c, 6, 58, 96
3, 148259, Note_on_c, 6, 58, 0
3, 148260, Note_on_c, 6, 57, 96
3, 148319, Note_on_c, 6, 57, 0
3, 148320, Note_on_c, 6, 55, 96
3, 148379, Note_on_c, 6, 55, 0
3, 148380, Note_on_c, 6, 67, 96
3, 148439, Note_on_c, 6, 67, 0
3, 148440, Note_on_c, 6, 65, 96
3, 148499, Note_on_c, 6, 65, 0
3, 148500, Note_on_c, 6, 63, 96
3, 148559, Note_on_c, 6, 63, 0
3, 148560, Note_on_c, 6, 62, 96
3, 148619, Note_on_c, 6, 62, 0
3, 148620, Note_on_c, 6, 63, 96
3, 148679, Note_on_c, 6, 63, 0
3, 148680, Note_on_c, 6, 62, 96
3, 148739, Note_on_c, 6, 62, 0
3, 148740, Note_on_c, 6, 60, 96
3, 148799, Note_on_c, 6, 60, 0
3, 148800, Note_on_c, 6, 58, 96
3, 148859, Note_on_c, 6, 58, 0
3, 148860, Note_on_c, 6, 60, 96
3, 148919, Note_on_c, 6, 60, 0
3, 148920, Note_on_c, 6, 58, 96
3, 148979, Note_on_c, 6, 58, 0
3, 148980, Note_on_c, 6, 57, 96
3, 149039, Note_on_c, 6, 57, 0
3, 149040, Note_on_c, 6, 55, 96
3, 149099, Note_on_c, 6, 55, 0
3, 149100, Note_on_c, 6, 67, 96
3, 149159, Note_on_c, 6, 67, 0
3, 149160, Note_on_c, 6, 65, 96
3, 149219, Note_on_c, 6, 65, 0
3, 149220, Note_on_c, 6, 63, 96
3, 149279, Note_on_c, 6, 63, 0
3, 149280, Note_on_c, 6, 62, 96
3, 149339, Note_on_c, 6, 62, 0
3, 149340, Note_on_c, 6, 63, 96
3, 149399, Note_on_c, 6, 63, 0
3, 149400, Note_on_c, 6, 62, 96
3, 149459, Note_on_c, 6, 62, 0
3, 149460, Note_on_c, 6, 60, 96
3, 149519, Note_on_c, 6, 60, 0
3, 149520, Note_on_c, 6, 58, 96
3, 149579, Note_on_c, 6, 58, 0
3, 149580, Note_on_c, 6, 60, 96
3, 149639, Note_on_c, 6, 60, 0
3, 149640, Note_on_c, 6, 58, 96
3, 149699, Note_on_c, 6, 58, 0
3, 149700, Note_on_c, 6, 57, 96
3, 149759, Note_on_c, 6, 57, 0
3, 149760, Note_on_c, 6, 55, 96
3, 150479, Note_on_c, 6, 55, 0
3, 150480, End_track
4, 0, Start_track
4, 0, Key_signature, -2, "major"
4, 0, Control_c, 10, 121, 0
4, 0, Program_c, 10, 41
4, 0, Control_c, 10, 7, 100
4, 0, Control_c, 10, 10, 64
4, 0, Control_c, 10, 91, 0
4, 0, Control_c, 10, 93, 0
4, 0, MIDI_port, 0
4, 0, Control_c, 11, 121, 0
4, 0, Program_c, 11, 45
4, 0, Control_c, 11, 7, 100
4, 0, Control_c, 11, 10, 64
4, 0, Control_c, 11, 91, 0
4, 0, Control_c, 11, 93, 0
4, 0, MIDI_port, 0
4, 0, Control_c, 12, 121, 0
4, 0, Program_c, 12, 44
4, 0, Control_c, 12, 7, 100
4, 0, Control_c, 12, 10, 64
4, 0, Control_c, 12, 91, 0
4, 0, Control_c, 12, 93, 0
4, 0, MIDI_port, 0
4, 240, Note_on_c, 10, 74, 49
4, 479, Note_on_c, 10, 74, 0
4, 480, Note_on_c, 10, 74, 49
4, 719, Note_on_c, 10, 74, 0
4, 960, Note_on_c, 10, 62, 49
4, 1199, Note_on_c, 10, 62, 0
4, 1200, Note_on_c, 10, 66, 49
4, 1439, Note_on_c, 10, 66, 0
4, 1680, Note_on_c, 10, 66, 49
4, 1919, Note_on_c, 10, 66, 0
4, 1920, Note_on_c, 10, 66, 49
4, 2159, Note_on_c, 10, 66, 0
4, 2400, Note_on_c, 10, 62, 49
4, 2639, Note_on_c, 10, 62, 0
4, 2640, Note_on_c, 10, 62, 49
4, 2879, Note_on_c, 10, 62, 0
4, 2880, Note_on_c, 10, 62, 49
4, 3359, Note_on_c, 10, 62, 0
4, 3600, Note_on_c, 10, 66, 49
4, 4079, Note_on_c, 10, 66, 0
4, 4320, Note_on_c, 10, 66, 49
4, 4799, Note_on_c, 10, 66, 0
4, 5040, Note_on_c, 10, 67, 49
4, 5519, Note_on_c, 10, 67, 0
4, 5760, Note_on_c, 10, 67, 49
4, 6239, Note_on_c, 10, 67, 0
4, 6480, Note_on_c, 10, 67, 49
4, 6959, Note_on_c, 10, 67, 0
4, 6960, Note_on_c, 10, 57, 49
4, 7199, Note_on_c, 10, 57, 0
4, 7200, Note_on_c, 10, 57, 49
4, 7919, Note_on_c, 10, 57, 0
4, 9360, Note_on_c, 10, 66, 49
4, 9599, Note_on_c, 10, 66, 0
4, 9600, Note_on_c, 10, 63, 49
4, 9839, Note_on_c, 10, 63, 0
4, 9840, Note_on_c, 10, 62, 49
4, 10079, Note_on_c, 10, 62, 0
4, 10080, Note_on_c, 10, 60, 49
4, 10199, Note_on_c, 10, 60, 0
4, 10200, Note_on_c, 10, 58, 49
4, 10319, Note_on_c, 10, 58, 0
4, 10320, Note_on_c, 10, 57, 49
4, 10559, Note_on_c, 10, 57, 0
4, 10560, Note_on_c, 10, 55, 49
4, 10799, Note_on_c, 10, 55, 0
4, 10800, Note_on_c, 10, 54, 49
4, 12239, Note_on_c, 10, 54, 0
4, 12240, Note_on_c, 10, 70, 49
4, 12479, Note_on_c, 10, 70, 0
4, 12480, Note_on_c, 10, 69, 49
4, 12719, Note_on_c, 10, 69, 0
4, 12720, Note_on_c, 10, 67, 49
4, 12959, Note_on_c, 10, 67, 0
4, 12960, Note_on_c, 10, 66, 49
4, 13079, Note_on_c, 10, 66, 0
4, 13080, Note_on_c, 10, 63, 49
4, 13199, Note_on_c, 10, 63, 0
4, 13200, Note_on_c, 10, 62, 49
4, 13439, Note_on_c, 10, 62, 0
4, 13440, Note_on_c, 10, 60, 49
4, 13679, Note_on_c, 10, 60, 0
4, 13680, Note_on_c, 10, 58, 49
4, 14159, Note_on_c, 10, 58, 0
4, 14640, Note_on_c, 10, 62, 49
4, 14879, Note_on_c, 10, 62, 0
4, 14880, Note_on_c, 10, 62, 49
4, 15119, Note_on_c, 10, 62, 0
4, 15360, Note_on_c, 10, 63, 49
4, 15599, Note_on_c, 10, 63, 0
4, 15600, Note_on_c, 10, 63, 49
4, 15839, Note_on_c, 10, 63, 0
4, 16080, Note_on_c, 10, 62, 49
4, 16319, Note_on_c, 10, 62, 0
4, 16320, Note_on_c, 10, 62, 49
4, 16559, Note_on_c, 10, 62, 0
4, 16800, Note_on_c, 10, 66, 49
4, 17039, Note_on_c, 10, 66, 0
4, 17040, Note_on_c, 10, 66, 49
4, 17279, Note_on_c, 10, 66, 0
4, 17520, Note_on_c, 10, 62, 49
4, 17999, Note_on_c, 10, 62, 0
4, 18240, Note_on_c, 10, 62, 49
4, 18479, Note_on_c, 10, 62, 0
4, 18480, Note_on_c, 10, 62, 49
4, 18719, Note_on_c, 10, 62, 0
4, 18960, Note_on_c, 10, 63, 49
4, 19199, Note_on_c, 10, 63, 0
4, 19200, Note_on_c, 10, 63, 49
4, 19439, Note_on_c, 10, 63, 0
4, 19680, Note_on_c, 10, 62, 49
4, 19919, Note_on_c, 10, 62, 0
4, 19920, Note_on_c, 10, 62, 49
4, 20159, Note_on_c, 10, 62, 0
4, 20400, Note_on_c, 10, 54, 49
4, 20639, Note_on_c, 10, 54, 0
4, 20640, Note_on_c, 10, 54, 49
4, 20879, Note_on_c, 10, 54, 0
4, 21120, Note_on_c, 10, 50, 49
4, 21599, Note_on_c, 10, 50, 0
4, 56280, Note_on_c, 10, 70, 96
4, 56399, Note_on_c, 10, 70, 0
4, 56400, Note_on_c, 10, 70, 96
4, 56519, Note_on_c, 10, 70, 0
4, 56520, Note_on_c, 10, 70, 96
4, 56639, Note_on_c, 10, 70, 0
4, 56640, Note_on_c, 10, 70, 96
4, 56759, Note_on_c, 10, 70, 0
4, 56760, Note_on_c, 10, 70, 96
4, 56879, Note_on_c, 10, 70, 0
4, 56880, Note_on_c, 10, 67, 96
4, 56999, Note_on_c, 10, 67, 0
4, 57000, Note_on_c, 10, 70, 96
4, 57119, Note_on_c, 10, 70, 0
4, 57120, Note_on_c, 10, 62, 96
4, 57239, Note_on_c, 10, 62, 0
4, 57240, Note_on_c, 10, 70, 96
4, 57359, Note_on_c, 10, 70, 0
4, 57360, Note_on_c, 10, 70, 96
4, 57479, Note_on_c, 10, 70, 0
4, 57480, Note_on_c, 10, 70, 96
4, 57599, Note_on_c, 10, 70, 0
4, 57600, Note_on_c, 10, 70, 96
4, 57719, Note_on_c, 10, 70, 0
4, 57720, Note_on_c, 10, 70, 96
4, 57839, Note_on_c, 10, 70, 0
4, 57840, Note_on_c, 10, 67, 96
4, 57959, Note_on_c, 10, 67, 0
4, 57960, Note_on_c, 10, 70, 96
4, 58079, Note_on_c, 10, 70, 0
4, 58080, Note_on_c, 10, 62, 96
4, 58199, Note_on_c, 10, 62, 0
4, 58200, Note_on_c, 10, 62, 96
4, 58319, Note_on_c, 10, 62, 0
4, 58320, Note_on_c, 10, 62, 96
4, 58439, Note_on_c, 10, 62, 0
4, 58440, Note_on_c, 10, 62, 96
4, 58559, Note_on_c, 10, 62, 0
4, 58560, Note_on_c, 10, 62, 96
4, 58679, Note_on_c, 10, 62, 0
4, 58680, Note_on_c, 10, 62, 96
4, 58799, Note_on_c, 10, 62, 0
4, 58800, Note_on_c, 10, 57, 96
4, 58919, Note_on_c, 10, 57, 0
4, 58920, Note_on_c, 10, 62, 96
4, 59039, Note_on_c, 10, 62, 0
4, 59040, Note_on_c, 10, 57, 96
4, 59159, Note_on_c, 10, 57, 0
4, 59160, Note_on_c, 10, 62, 96
4, 59279, Note_on_c, 10, 62, 0
4, 59280, Note_on_c, 10, 62, 96
4, 59399, Note_on_c, 10, 62, 0
4, 59400, Note_on_c, 10, 62, 96
4, 59519, Note_on_c, 10, 62, 0
4, 59520, Note_on_c, 10, 62, 96
4, 59639, Note_on_c, 10, 62, 0
4, 59640, Note_on_c, 10, 62, 96
4, 59759, Note_on_c, 10, 62, 0
4, 59760, Note_on_c, 10, 57, 96
4, 59879, Note_on_c, 10, 57, 0
4, 59880, Note_on_c, 10, 62, 96
4, 59999, Note_on_c, 10, 62, 0
4, 60000, Note_on_c, 10, 54, 96
4, 60119, Note_on_c, 10, 54, 0
4, 60120, Note_on_c, 10, 62, 96
4, 60239, Note_on_c, 10, 62, 0
4, 60240, Note_on_c, 10, 62, 96
4, 60359, Note_on_c, 10, 62, 0
4, 60360, Note_on_c, 10, 62, 96
4, 60479, Note_on_c, 10, 62, 0
4, 60480, Note_on_c, 10, 62, 96
4, 60599, Note_on_c, 10, 62, 0
4, 60600, Note_on_c, 10, 62, 96
4, 60719, Note_on_c, 10, 62, 0
4, 60720, Note_on_c, 10, 57, 96
4, 60839, Note_on_c, 10, 57, 0
4, 60840, Note_on_c, 10, 62, 96
4, 60959, Note_on_c, 10, 62, 0
4, 60960, Note_on_c, 10, 54, 96
4, 61079, Note_on_c, 10, 54, 0
4, 61080, Note_on_c, 10, 62, 96
4, 61199, Note_on_c, 10, 62, 0
4, 61200, Note_on_c, 10, 62, 96
4, 61319, Note_on_c, 10, 62, 0
4, 61320, Note_on_c, 10, 62, 96
4, 61439, Note_on_c, 10, 62, 0
4, 61440, Note_on_c, 10, 62, 96
4, 61559, Note_on_c, 10, 62, 0
4, 61560, Note_on_c, 10, 62, 96
4, 61679, Note_on_c, 10, 62, 0
4, 61680, Note_on_c, 10, 57, 96
4, 61799, Note_on_c, 10, 57, 0
4, 61800, Note_on_c, 10, 62, 96
4, 61919, Note_on_c, 10, 62, 0
4, 61920, Note_on_c, 10, 62, 96
4, 62159, Note_on_c, 10, 62, 0
4, 62160, Note_on_c, 10, 62, 49
4, 62399, Note_on_c, 10, 62, 0
4, 62400, Note_on_c, 10, 62, 49
4, 62639, Note_on_c, 10, 62, 0
4, 62880, Note_on_c, 10, 62, 49
4, 63119, Note_on_c, 10, 62, 0
4, 63120, Note_on_c, 10, 62, 49
4, 63359, Note_on_c, 10, 62, 0
4, 63600, Note_on_c, 10, 62, 49
4, 63839, Note_on_c, 10, 62, 0
4, 63840, Note_on_c, 10, 62, 49
4, 64079, Note_on_c, 10, 62, 0
4, 64320, Note_on_c, 10, 63, 49
4, 64559, Note_on_c, 10, 63, 0
4, 64560, Note_on_c, 10, 63, 49
4, 64799, Note_on_c, 10, 63, 0
4, 65040, Note_on_c, 10, 62, 49
4, 65279, Note_on_c, 10, 62, 0
4, 65280, Note_on_c, 10, 62, 49
4, 65519, Note_on_c, 10, 62, 0
4, 65760, Note_on_c, 10, 66, 49
4, 65999, Note_on_c, 10, 66, 0
4, 66000, Note_on_c, 10, 66, 49
4, 66239, Note_on_c, 10, 66, 0
4, 66480, Note_on_c, 10, 62, 49
4, 66959, Note_on_c, 10, 62, 0
4, 75600, Note_on_c, 10, 67, 49
4, 75719, Note_on_c, 10, 67, 0
4, 75720, Note_on_c, 10, 67, 49
4, 75839, Note_on_c, 10, 67, 0
4, 75840, Note_on_c, 10, 67, 49
4, 75959, Note_on_c, 10, 67, 0
4, 75960, Note_on_c, 10, 67, 49
4, 76079, Note_on_c, 10, 67, 0
4, 76080, Note_on_c, 10, 67, 49
4, 76199, Note_on_c, 10, 67, 0
4, 76200, Note_on_c, 10, 67, 49
4, 76319, Note_on_c, 10, 67, 0
4, 76320, Note_on_c, 10, 67, 49
4, 76799, Note_on_c, 10, 67, 0
4, 80640, Note_on_c, 10, 67, 49
4, 80759, Note_on_c, 10, 67, 0
4, 80760, Note_on_c, 10, 67, 49
4, 80879, Note_on_c, 10, 67, 0
4, 80880, Note_on_c, 10, 67, 49
4, 80999, Note_on_c, 10, 67, 0
4, 81000, Note_on_c, 10, 67, 49
4, 81119, Note_on_c, 10, 67, 0
4, 81120, Note_on_c, 10, 67, 49
4, 81239, Note_on_c, 10, 67, 0
4, 81240, Note_on_c, 10, 67, 49
4, 81359, Note_on_c, 10, 67, 0
4, 81360, Note_on_c, 10, 74, 49
4, 81479, Note_on_c, 10, 74, 0
4, 81480, Note_on_c, 10, 74, 49
4, 81599, Note_on_c, 10, 74, 0
4, 81600, Note_on_c, 10, 74, 49
4, 81719, Note_on_c, 10, 74, 0
4, 81720, Note_on_c, 10, 74, 49
4, 81839, Note_on_c, 10, 74, 0
4, 81840, Note_on_c, 10, 74, 49
4, 81959, Note_on_c, 10, 74, 0
4, 81960, Note_on_c, 10, 74, 49
4, 82079, Note_on_c, 10, 74, 0
4, 82080, Note_on_c, 10, 67, 49
4, 82199, Note_on_c, 10, 67, 0
4, 82200, Note_on_c, 10, 67, 49
4, 82319, Note_on_c, 10, 67, 0
4, 82320, Note_on_c, 10, 67, 49
4, 82439, Note_on_c, 10, 67, 0
4, 82440, Note_on_c, 10, 67, 49
4, 82559, Note_on_c, 10, 67, 0
4, 82560, Note_on_c, 10, 67, 49
4, 82679, Note_on_c, 10, 67, 0
4, 82680, Note_on_c, 10, 67, 49
4, 82799, Note_on_c, 10, 67, 0
4, 82800, Note_on_c, 10, 74, 49
4, 82919, Note_on_c, 10, 74, 0
4, 82920, Note_on_c, 10, 74, 49
4, 83039, Note_on_c, 10, 74, 0
4, 83040, Note_on_c, 10, 74, 49
4, 83159, Note_on_c, 10, 74, 0
4, 83160, Note_on_c, 10, 74, 49
4, 83279, Note_on_c, 10, 74, 0
4, 83280, Note_on_c, 10, 74, 49
4, 83399, Note_on_c, 10, 74, 0
4, 83400, Note_on_c, 10, 74, 49
4, 83519, Note_on_c, 10, 74, 0
4, 83520, Note_on_c, 10, 67, 49
4, 83639, Note_on_c, 10, 67, 0
4, 83640, Note_on_c, 10, 67, 49
4, 83759, Note_on_c, 10, 67, 0
4, 83760, Note_on_c, 10, 67, 49
4, 83879, Note_on_c, 10, 67, 0
4, 83880, Note_on_c, 10, 67, 49
4, 83999, Note_on_c, 10, 67, 0
4, 84000, Note_on_c, 10, 67, 49
4, 84119, Note_on_c, 10, 67, 0
4, 84120, Note_on_c, 10, 67, 49
4, 84239, Note_on_c, 10, 67, 0
4, 84240, Note_on_c, 10, 61, 49
4, 84359, Note_on_c, 10, 61, 0
4, 84360, Note_on_c, 10, 61, 49
4, 84479, Note_on_c, 10, 61, 0
4, 84480, Note_on_c, 10, 61, 49
4, 84599, Note_on_c, 10, 61, 0
4, 84600, Note_on_c, 10, 61, 49
4, 84719, Note_on_c, 10, 61, 0
4, 84720, Note_on_c, 10, 61, 49
4, 84839, Note_on_c, 10, 61, 0
4, 84840, Note_on_c, 10, 61, 49
4, 84959, Note_on_c, 10, 61, 0
4, 84960, Note_on_c, 10, 62, 49
4, 85079, Note_on_c, 10, 62, 0
4, 85080, Note_on_c, 10, 62, 49
4, 85199, Note_on_c, 10, 62, 0
4, 85200, Note_on_c, 10, 62, 49
4, 85319, Note_on_c, 10, 62, 0
4, 85320, Note_on_c, 10, 62, 49
4, 85439, Note_on_c, 10, 62, 0
4, 85440, Note_on_c, 10, 62, 49
4, 85559, Note_on_c, 10, 62, 0
4, 85560, Note_on_c, 10, 62, 49
4, 85679, Note_on_c, 10, 62, 0
4, 85680, Note_on_c, 10, 62, 49
4, 85799, Note_on_c, 10, 62, 0
4, 85800, Note_on_c, 10, 62, 49
4, 85919, Note_on_c, 10, 62, 0
4, 85920, Note_on_c, 10, 62, 49
4, 86039, Note_on_c, 10, 62, 0
4, 86040, Note_on_c, 10, 62, 49
4, 86159, Note_on_c, 10, 62, 0
4, 86160, Note_on_c, 10, 62, 49
4, 86279, Note_on_c, 10, 62, 0
4, 86280, Note_on_c, 10, 62, 49
4, 86399, Note_on_c, 10, 62, 0
4, 86400, Note_on_c, 10, 64, 49
4, 86519, Note_on_c, 10, 64, 0
4, 86520, Note_on_c, 10, 64, 49
4, 86639, Note_on_c, 10, 64, 0
4, 86640, Note_on_c, 10, 64, 49
4, 86759, Note_on_c, 10, 64, 0
4, 86760, Note_on_c, 10, 64, 49
4, 86879, Note_on_c, 10, 64, 0
4, 86880, Note_on_c, 10, 64, 49
4, 86999, Note_on_c, 10, 64, 0
4, 87000, Note_on_c, 10, 64, 49
4, 87119, Note_on_c, 10, 64, 0
4, 87120, Note_on_c, 10, 57, 49
4, 87239, Note_on_c, 10, 57, 0
4, 87240, Note_on_c, 10, 57, 49
4, 87359, Note_on_c, 10, 57, 0
4, 87360, Note_on_c, 10, 57, 49
4, 87479, Note_on_c, 10, 57, 0
4, 87480, Note_on_c, 10, 57, 49
4, 87599, Note_on_c, 10, 57, 0
4, 87600, Note_on_c, 10, 57, 49
4, 87719, Note_on_c, 10, 57, 0
4, 87720, Note_on_c, 10, 57, 49
4, 87839, Note_on_c, 10, 57, 0
4, 87840, Note_on_c, 10, 62, 49
4, 87959, Note_on_c, 10, 62, 0
4, 87960, Note_on_c, 10, 62, 49
4, 88079, Note_on_c, 10, 62, 0
4, 88080, Note_on_c, 10, 62, 49
4, 88199, Note_on_c, 10, 62, 0
4, 88200, Note_on_c, 10, 62, 49
4, 88319, Note_on_c, 10, 62, 0
4, 88320, Note_on_c, 10, 62, 49
4, 88439, Note_on_c, 10, 62, 0
4, 88440, Note_on_c, 10, 62, 49
4, 88559, Note_on_c, 10, 62, 0
4, 88560, Note_on_c, 10, 62, 49
4, 88679, Note_on_c, 10, 62, 0
4, 88680, Note_on_c, 10, 62, 49
4, 88799, Note_on_c, 10, 62, 0
4, 88800, Note_on_c, 10, 62, 49
4, 88919, Note_on_c, 10, 62, 0
4, 88920, Note_on_c, 10, 62, 49
4, 89039, Note_on_c, 10, 62, 0
4, 89040, Note_on_c, 10, 62, 49
4, 89159, Note_on_c, 10, 62, 0
4, 89160, Note_on_c, 10, 62, 49
4, 89279, Note_on_c, 10, 62, 0
4, 89280, Note_on_c, 10, 62, 96
4, 89399, Note_on_c, 10, 62, 0
4, 89400, Note_on_c, 10, 74, 96
4, 89519, Note_on_c, 10, 74, 0
4, 89520, Note_on_c, 10, 62, 96
4, 89639, Note_on_c, 10, 62, 0
4, 89640, Note_on_c, 10, 50, 96
4, 89759, Note_on_c, 10, 50, 0
4, 89760, Note_on_c, 10, 50, 96
4, 89879, Note_on_c, 10, 50, 0
4, 89880, Note_on_c, 10, 50, 96
4, 89999, Note_on_c, 10, 50, 0
4, 90000, Note_on_c, 10, 57, 96
4, 90119, Note_on_c, 10, 57, 0
4, 90120, Note_on_c, 10, 69, 96
4, 90239, Note_on_c, 10, 69, 0
4, 90240, Note_on_c, 10, 57, 96
4, 90359, Note_on_c, 10, 57, 0
4, 90360, Note_on_c, 10, 57, 96
4, 90479, Note_on_c, 10, 57, 0
4, 90480, Note_on_c, 10, 57, 96
4, 90599, Note_on_c, 10, 57, 0
4, 90600, Note_on_c, 10, 57, 96
4, 90719, Note_on_c, 10, 57, 0
4, 90720, Note_on_c, 10, 62, 96
4, 90839, Note_on_c, 10, 62, 0
4, 90840, Note_on_c, 10, 74, 96
4, 90959, Note_on_c, 10, 74, 0
4, 90960, Note_on_c, 10, 62, 96
4, 91079, Note_on_c, 10, 62, 0
4, 91080, Note_on_c, 10, 50, 96
4, 91199, Note_on_c, 10, 50, 0
4, 91200, Note_on_c, 10, 50, 96
4, 91319, Note_on_c, 10, 50, 0
4, 91320, Note_on_c, 10, 50, 96
4, 91439, Note_on_c, 10, 50, 0
4, 91440, Note_on_c, 10, 62, 96
4, 91559, Note_on_c, 10, 62, 0
4, 91560, Note_on_c, 10, 74, 96
4, 91679, Note_on_c, 10, 74, 0
4, 91680, Note_on_c, 10, 62, 96
4, 91799, Note_on_c, 10, 62, 0
4, 91800, Note_on_c, 10, 50, 96
4, 91919, Note_on_c, 10, 50, 0
4, 91920, Note_on_c, 10, 50, 96
4, 92039, Note_on_c, 10, 50, 0
4, 92040, Note_on_c, 10, 50, 96
4, 92159, Note_on_c, 10, 50, 0
4, 92160, Note_on_c, 10, 62, 96
4, 92279, Note_on_c, 10, 62, 0
4, 92280, Note_on_c, 10, 74, 96
4, 92399, Note_on_c, 10, 74, 0
4, 92400, Note_on_c, 10, 62, 96
4, 92519, Note_on_c, 10, 62, 0
4, 92520, Note_on_c, 10, 50, 96
4, 92639, Note_on_c, 10, 50, 0
4, 92640, Note_on_c, 10, 50, 96
4, 92759, Note_on_c, 10, 50, 0
4, 92760, Note_on_c, 10, 50, 96
4, 92879, Note_on_c, 10, 50, 0
4, 92880, Note_on_c, 10, 62, 96
4, 92999, Note_on_c, 10, 62, 0
4, 93000, Note_on_c, 10, 74, 96
4, 93119, Note_on_c, 10, 74, 0
4, 93120, Note_on_c, 10, 62, 96
4, 93239, Note_on_c, 10, 62, 0
4, 93240, Note_on_c, 10, 50, 96
4, 93359, Note_on_c, 10, 50, 0
4, 93360, Note_on_c, 10, 50, 96
4, 93479, Note_on_c, 10, 50, 0
4, 93480, Note_on_c, 10, 50, 96
4, 93599, Note_on_c, 10, 50, 0
4, 93600, Note_on_c, 10, 62, 96
4, 93719, Note_on_c, 10, 62, 0
4, 93720, Note_on_c, 10, 74, 96
4, 93839, Note_on_c, 10, 74, 0
4, 93840, Note_on_c, 10, 62, 96
4, 93959, Note_on_c, 10, 62, 0
4, 93960, Note_on_c, 10, 50, 96
4, 94079, Note_on_c, 10, 50, 0
4, 94080, Note_on_c, 10, 50, 96
4, 94199, Note_on_c, 10, 50, 0
4, 94200, Note_on_c, 10, 50, 96
4, 94319, Note_on_c, 10, 50, 0
4, 94320, Note_on_c, 10, 62, 96
4, 94439, Note_on_c, 10, 62, 0
4, 94440, Note_on_c, 10, 74, 96
4, 94559, Note_on_c, 10, 74, 0
4, 94560, Note_on_c, 10, 62, 96
4, 94679, Note_on_c, 10, 62, 0
4, 94680, Note_on_c, 10, 50, 96
4, 94799, Note_on_c, 10, 50, 0
4, 94800, Note_on_c, 10, 50, 96
4, 94919, Note_on_c, 10, 50, 0
4, 94920, Note_on_c, 10, 50, 96
4, 95039, Note_on_c, 10, 50, 0
4, 95040, Note_on_c, 10, 62, 96
4, 95159, Note_on_c, 10, 62, 0
4, 95160, Note_on_c, 10, 74, 96
4, 95279, Note_on_c, 10, 74, 0
4, 95280, Note_on_c, 10, 62, 96
4, 95399, Note_on_c, 10, 62, 0
4, 95400, Note_on_c, 10, 50, 96
4, 95519, Note_on_c, 10, 50, 0
4, 95520, Note_on_c, 10, 50, 96
4, 95639, Note_on_c, 10, 50, 0
4, 95640, Note_on_c, 10, 50, 96
4, 95759, Note_on_c, 10, 50, 0
4, 95760, Note_on_c, 10, 62, 96
4, 95879, Note_on_c, 10, 62, 0
4, 95880, Note_on_c, 10, 74, 96
4, 95999, Note_on_c, 10, 74, 0
4, 96000, Note_on_c, 10, 62, 96
4, 96119, Note_on_c, 10, 62, 0
4, 96120, Note_on_c, 10, 50, 96
4, 96239, Note_on_c, 10, 50, 0
4, 96240, Note_on_c, 10, 50, 96
4, 96359, Note_on_c, 10, 50, 0
4, 96360, Note_on_c, 10, 50, 96
4, 96479, Note_on_c, 10, 50, 0
4, 96480, Note_on_c, 10, 62, 96
4, 96599, Note_on_c, 10, 62, 0
4, 96600, Note_on_c, 10, 74, 96
4, 96719, Note_on_c, 10, 74, 0
4, 96720, Note_on_c, 10, 62, 96
4, 96839, Note_on_c, 10, 62, 0
4, 96840, Note_on_c, 10, 50, 96
4, 96959, Note_on_c, 10, 50, 0
4, 96960, Note_on_c, 10, 50, 96
4, 97079, Note_on_c, 10, 50, 0
4, 97080, Note_on_c, 10, 50, 96
4, 97199, Note_on_c, 10, 50, 0
4, 97200, Note_on_c, 10, 62, 96
4, 97319, Note_on_c, 10, 62, 0
4, 97320, Note_on_c, 10, 74, 96
4, 97439, Note_on_c, 10, 74, 0
4, 97440, Note_on_c, 10, 62, 96
4, 97559, Note_on_c, 10, 62, 0
4, 97560, Note_on_c, 10, 50, 96
4, 97679, Note_on_c, 10, 50, 0
4, 97680, Note_on_c, 10, 50, 96
4, 97799, Note_on_c, 10, 50, 0
4, 97800, Note_on_c, 10, 50, 96
4, 97919, Note_on_c, 10, 50, 0
4, 97920, Note_on_c, 10, 57, 96
4, 98039, Note_on_c, 10, 57, 0
4, 98040, Note_on_c, 10, 69, 96
4, 98159, Note_on_c, 10, 69, 0
4, 98160, Note_on_c, 10, 61, 96
4, 98279, Note_on_c, 10, 61, 0
4, 98280, Note_on_c, 10, 57, 96
4, 98399, Note_on_c, 10, 57, 0
4, 98400, Note_on_c, 10, 57, 96
4, 98519, Note_on_c, 10, 57, 0
4, 98520, Note_on_c, 10, 57, 96
4, 98639, Note_on_c, 10, 57, 0
4, 98640, Note_on_c, 10, 57, 96
4, 98759, Note_on_c, 10, 57, 0
4, 98760, Note_on_c, 10, 69, 96
4, 98879, Note_on_c, 10, 69, 0
4, 98880, Note_on_c, 10, 62, 96
4, 98999, Note_on_c, 10, 62, 0
4, 99000, Note_on_c, 10, 57, 96
4, 99119, Note_on_c, 10, 57, 0
4, 99120, Note_on_c, 10, 57, 96
4, 99239, Note_on_c, 10, 57, 0
4, 99240, Note_on_c, 10, 57, 96
4, 99359, Note_on_c, 10, 57, 0
4, 99360, Note_on_c, 10, 57, 96
4, 99479, Note_on_c, 10, 57, 0
4, 99480, Note_on_c, 10, 69, 96
4, 99599, Note_on_c, 10, 69, 0
4, 99600, Note_on_c, 10, 64, 96
4, 99719, Note_on_c, 10, 64, 0
4, 99720, Note_on_c, 10, 57, 96
4, 99839, Note_on_c, 10, 57, 0
4, 99840, Note_on_c, 10, 57, 96
4, 99959, Note_on_c, 10, 57, 0
4, 99960, Note_on_c, 10, 57, 96
4, 100079, Note_on_c, 10, 57, 0
4, 100080, Note_on_c, 10, 57, 96
4, 100199, Note_on_c, 10, 57, 0
4, 100200, Note_on_c, 10, 69, 96
4, 100319, Note_on_c, 10, 69, 0
4, 100320, Note_on_c, 10, 62, 96
4, 100439, Note_on_c, 10, 62, 0
4, 100440, Note_on_c, 10, 57, 96
4, 100559, Note_on_c, 10, 57, 0
4, 100560, Note_on_c, 10, 57, 96
4, 100679, Note_on_c, 10, 57, 0
4, 100680, Note_on_c, 10, 57, 96
4, 100799, Note_on_c, 10, 57, 0
4, 100800, Note_on_c, 10, 57, 96
4, 100919, Note_on_c, 10, 57, 0
4, 100920, Note_on_c, 10, 69, 96
4, 101039, Note_on_c, 10, 69, 0
4, 101040, Note_on_c, 10, 61, 96
4, 101159, Note_on_c, 10, 61, 0
4, 101160, Note_on_c, 10, 57, 96
4, 101279, Note_on_c, 10, 57, 0
4, 101280, Note_on_c, 10, 57, 96
4, 101399, Note_on_c, 10, 57, 0
4, 101400, Note_on_c, 10, 57, 96
4, 101519, Note_on_c, 10, 57, 0
4, 101520, Note_on_c, 10, 57, 96
4, 101639, Note_on_c, 10, 57, 0
4, 101640, Note_on_c, 10, 69, 96
4, 101759, Note_on_c, 10, 69, 0
4, 101760, Note_on_c, 10, 62, 96
4, 101879, Note_on_c, 10, 62, 0
4, 101880, Note_on_c, 10, 57, 96
4, 101999, Note_on_c, 10, 57, 0
4, 102000, Note_on_c, 10, 57, 96
4, 102119, Note_on_c, 10, 57, 0
4, 102120, Note_on_c, 10, 57, 96
4, 102239, Note_on_c, 10, 57, 0
4, 102240, Note_on_c, 10, 57, 96
4, 102359, Note_on_c, 10, 57, 0
4, 102360, Note_on_c, 10, 69, 96
4, 102479, Note_on_c, 10, 69, 0
4, 102480, Note_on_c, 10, 62, 96
4, 102599, Note_on_c, 10, 62, 0
4, 102600, Note_on_c, 10, 57, 96
4, 102719, Note_on_c, 10, 57, 0
4, 102720, Note_on_c, 10, 57, 96
4, 102839, Note_on_c, 10, 57, 0
4, 102840, Note_on_c, 10, 57, 96
4, 102959, Note_on_c, 10, 57, 0
4, 102960, Note_on_c, 10, 57, 96
4, 103079, Note_on_c, 10, 57, 0
4, 103080, Note_on_c, 10, 69, 96
4, 103199, Note_on_c, 10, 69, 0
4, 103200, Note_on_c, 10, 61, 96
4, 103319, Note_on_c, 10, 61, 0
4, 103320, Note_on_c, 10, 57, 96
4, 103439, Note_on_c, 10, 57, 0
4, 103440, Note_on_c, 10, 57, 96
4, 103559, Note_on_c, 10, 57, 0
4, 103560, Note_on_c, 10, 57, 96
4, 103679, Note_on_c, 10, 57, 0
4, 103680, Note_on_c, 10, 62, 96
4, 103919, Note_on_c, 10, 62, 0
4, 103920, Note_on_c, 10, 69, 49
4, 104159, Note_on_c, 10, 69, 0
4, 104160, Note_on_c, 10, 69, 49
4, 104399, Note_on_c, 10, 69, 0
4, 104640, Note_on_c, 10, 61, 49
4, 104879, Note_on_c, 10, 61, 0
4, 104880, Note_on_c, 10, 57, 49
4, 105119, Note_on_c, 10, 57, 0
4, 105360, Note_on_c, 10, 58, 49
4, 105599, Note_on_c, 10, 58, 0
4, 105600, Note_on_c, 10, 58, 49
4, 105839, Note_on_c, 10, 58, 0
4, 106080, Note_on_c, 10, 58, 49
4, 106319, Note_on_c, 10, 58, 0
4, 106320, Note_on_c, 10, 58, 49
4, 106559, Note_on_c, 10, 58, 0
4, 106800, Note_on_c, 10, 57, 49
4, 107039, Note_on_c, 10, 57, 0
4, 107040, Note_on_c, 10, 57, 49
4, 107279, Note_on_c, 10, 57, 0
4, 107520, Note_on_c, 10, 55, 49
4, 107759, Note_on_c, 10, 55, 0
4, 107760, Note_on_c, 10, 55, 49
4, 107999, Note_on_c, 10, 55, 0
4, 108000, Note_on_c, 10, 57, 49
4, 108479, Note_on_c, 10, 57, 0
4, 136080, Note_on_c, 10, 62, 96
4, 136199, Note_on_c, 10, 62, 0
4, 136200, Note_on_c, 10, 62, 96
4, 136319, Note_on_c, 10, 62, 0
4, 136320, Note_on_c, 10, 62, 96
4, 136439, Note_on_c, 10, 62, 0
4, 136440, Note_on_c, 10, 62, 96
4, 136559, Note_on_c, 10, 62, 0
4, 136560, Note_on_c, 10, 62, 96
4, 136679, Note_on_c, 10, 62, 0
4, 136680, Note_on_c, 10, 62, 96
4, 136799, Note_on_c, 10, 62, 0
4, 136800, Note_on_c, 10, 66, 96
4, 136919, Note_on_c, 10, 66, 0
4, 136920, Note_on_c, 10, 66, 96
4, 137039, Note_on_c, 10, 66, 0
4, 137040, Note_on_c, 10, 66, 96
4, 137159, Note_on_c, 10, 66, 0
4, 137160, Note_on_c, 10, 66, 96
4, 137279, Note_on_c, 10, 66, 0
4, 137280, Note_on_c, 10, 66, 96
4, 137399, Note_on_c, 10, 66, 0
4, 137400, Note_on_c, 10, 66, 96
4, 137519, Note_on_c, 10, 66, 0
4, 137520, Note_on_c, 10, 67, 96
4, 137639, Note_on_c, 10, 67, 0
4, 137640, Note_on_c, 10, 67, 96
4, 137759, Note_on_c, 10, 67, 0
4, 137760, Note_on_c, 10, 67, 96
4, 137879, Note_on_c, 10, 67, 0
4, 137880, Note_on_c, 10, 67, 96
4, 137999, Note_on_c, 10, 67, 0
4, 138000, Note_on_c, 10, 67, 96
4, 138119, Note_on_c, 10, 67, 0
4, 138120, Note_on_c, 10, 67, 96
4, 138239, Note_on_c, 10, 67, 0
4, 138240, Note_on_c, 10, 66, 96
4, 138359, Note_on_c, 10, 66, 0
4, 138360, Note_on_c, 10, 66, 96
4, 138479, Note_on_c, 10, 66, 0
4, 138480, Note_on_c, 10, 66, 96
4, 138599, Note_on_c, 10, 66, 0
4, 138600, Note_on_c, 10, 66, 96
4, 138719, Note_on_c, 10, 66, 0
4, 138720, Note_on_c, 10, 66, 96
4, 138839, Note_on_c, 10, 66, 0
4, 138840, Note_on_c, 10, 66, 96
4, 138959, Note_on_c, 10, 66, 0
4, 138960, Note_on_c, 10, 67, 96
4, 139079, Note_on_c, 10, 67, 0
4, 139080, Note_on_c, 10, 67, 96
4, 139199, Note_on_c, 10, 67, 0
4, 139200, Note_on_c, 10, 67, 96
4, 139319, Note_on_c, 10, 67, 0
4, 139320, Note_on_c, 10, 67, 96
4, 139439, Note_on_c, 10, 67, 0
4, 139440, Note_on_c, 10, 62, 96
4, 139559, Note_on_c, 10, 62, 0
4, 139560, Note_on_c, 10, 62, 96
4, 139679, Note_on_c, 10, 62, 0
4, 139680, Note_on_c, 10, 66, 96
4, 139799, Note_on_c, 10, 66, 0
4, 139800, Note_on_c, 10, 66, 96
4, 139919, Note_on_c, 10, 66, 0
4, 139920, Note_on_c, 10, 66, 96
4, 140039, Note_on_c, 10, 66, 0
4, 140040, Note_on_c, 10, 66, 96
4, 140159, Note_on_c, 10, 66, 0
4, 140160, Note_on_c, 10, 66, 96
4, 140279, Note_on_c, 10, 66, 0
4, 140280, Note_on_c, 10, 66, 96
4, 140399, Note_on_c, 10, 66, 0
4, 140400, Note_on_c, 10, 67, 96
4, 140519, Note_on_c, 10, 67, 0
4, 140520, Note_on_c, 10, 67, 96
4, 140639, Note_on_c, 10, 67, 0
4, 140640, Note_on_c, 10, 67, 96
4, 140759, Note_on_c, 10, 67, 0
4, 140760, Note_on_c, 10, 67, 96
4, 140879, Note_on_c, 10, 67, 0
4, 140880, Note_on_c, 10, 67, 96
4, 140999, Note_on_c, 10, 67, 0
4, 141000, Note_on_c, 10, 67, 96
4, 141119, Note_on_c, 10, 67, 0
4, 141120, Note_on_c, 10, 62, 96
4, 141239, Note_on_c, 10, 62, 0
4, 141240, Note_on_c, 10, 62, 96
4, 141359, Note_on_c, 10, 62, 0
4, 141360, Note_on_c, 10, 62, 96
4, 141479, Note_on_c, 10, 62, 0
4, 141480, Note_on_c, 10, 62, 96
4, 141599, Note_on_c, 10, 62, 0
4, 141600, Note_on_c, 10, 62, 96
4, 141719, Note_on_c, 10, 62, 0
4, 141720, Note_on_c, 10, 62, 96
4, 141839, Note_on_c, 10, 62, 0
4, 141840, Note_on_c, 10, 62, 96
4, 141959, Note_on_c, 10, 62, 0
4, 141960, Note_on_c, 10, 62, 96
4, 142079, Note_on_c, 10, 62, 0
4, 142080, Note_on_c, 10, 62, 96
4, 142199, Note_on_c, 10, 62, 0
4, 142200, Note_on_c, 10, 62, 96
4, 142319, Note_on_c, 10, 62, 0
4, 142320, Note_on_c, 10, 62, 96
4, 142439, Note_on_c, 10, 62, 0
4, 142440, Note_on_c, 10, 62, 96
4, 142559, Note_on_c, 10, 62, 0
4, 142560, Note_on_c, 10, 63, 96
4, 142679, Note_on_c, 10, 63, 0
4, 142680, Note_on_c, 10, 63, 96
4, 142799, Note_on_c, 10, 63, 0
4, 142800, Note_on_c, 10, 63, 96
4, 142919, Note_on_c, 10, 63, 0
4, 142920, Note_on_c, 10, 63, 96
4, 143039, Note_on_c, 10, 63, 0
4, 143040, Note_on_c, 10, 63, 96
4, 143159, Note_on_c, 10, 63, 0
4, 143160, Note_on_c, 10, 63, 96
4, 143279, Note_on_c, 10, 63, 0
4, 143280, Note_on_c, 10, 57, 96
4, 143399, Note_on_c, 10, 57, 0
4, 143400, Note_on_c, 10, 57, 96
4, 143519, Note_on_c, 10, 57, 0
4, 143520, Note_on_c, 10, 57, 96
4, 143639, Note_on_c, 10, 57, 0
4, 143640, Note_on_c, 10, 57, 96
4, 143759, Note_on_c, 10, 57, 0
4, 143760, Note_on_c, 10, 57, 96
4, 143879, Note_on_c, 10, 57, 0
4, 143880, Note_on_c, 10, 62, 96
4, 143999, Note_on_c, 10, 62, 0
4, 144000, Note_on_c, 10, 62, 96
4, 144119, Note_on_c, 10, 62, 0
4, 144120, Note_on_c, 10, 62, 96
4, 144239, Note_on_c, 10, 62, 0
4, 144240, Note_on_c, 10, 62, 96
4, 144359, Note_on_c, 10, 62, 0
4, 144360, Note_on_c, 10, 62, 96
4, 144479, Note_on_c, 10, 62, 0
4, 144480, Note_on_c, 10, 62, 96
4, 144599, Note_on_c, 10, 62, 0
4, 144600, Note_on_c, 10, 58, 96
4, 144719, Note_on_c, 10, 58, 0
4, 144720, Note_on_c, 10, 55, 96
4, 144839, Note_on_c, 10, 55, 0
4, 144840, Note_on_c, 10, 55, 96
4, 144959, Note_on_c, 10, 55, 0
4, 144960, Note_on_c, 10, 55, 96
4, 145079, Note_on_c, 10, 55, 0
4, 145080, Note_on_c, 10, 55, 96
4, 145199, Note_on_c, 10, 55, 0
4, 145200, Note_on_c, 10, 55, 96
4, 145319, Note_on_c, 10, 55, 0
4, 145320, Note_on_c, 10, 55, 96
4, 145439, Note_on_c, 10, 55, 0
4, 145440, Note_on_c, 10, 64, 96
4, 145559, Note_on_c, 10, 64, 0
4, 145560, Note_on_c, 10, 64, 96
4, 145679, Note_on_c, 10, 64, 0
4, 145680, Note_on_c, 10, 65, 96
4, 145799, Note_on_c, 10, 65, 0
4, 145800, Note_on_c, 10, 65, 96
4, 145919, Note_on_c, 10, 65, 0
4, 145920, Note_on_c, 10, 67, 96
4, 146039, Note_on_c, 10, 67, 0
4, 146040, Note_on_c, 10, 67, 96
4, 146159, Note_on_c, 10, 67, 0
4, 146160, Note_on_c, 10, 57, 96
4, 146279, Note_on_c, 10, 57, 0
4, 146280, Note_on_c, 10, 57, 96
4, 146399, Note_on_c, 10, 57, 0
4, 146400, Note_on_c, 10, 57, 96
4, 146519, Note_on_c, 10, 57, 0
4, 146520, Note_on_c, 10, 57, 96
4, 146639, Note_on_c, 10, 57, 0
4, 146640, Note_on_c, 10, 57, 96
4, 146759, Note_on_c, 10, 57, 0
4, 146760, Note_on_c, 10, 62, 96
4, 146879, Note_on_c, 10, 62, 0
4, 146880, Note_on_c, 10, 62, 96
4, 146939, Note_on_c, 10, 62, 0
4, 146940, Note_on_c, 10, 67, 96
4, 146999, Note_on_c, 10, 67, 0
4, 147000, Note_on_c, 10, 65, 96
4, 147059, Note_on_c, 10, 65, 0
4, 147060, Note_on_c, 10, 63, 96
4, 147119, Note_on_c, 10, 63, 0
4, 147120, Note_on_c, 10, 62, 96
4, 147179, Note_on_c, 10, 62, 0
4, 147180, Note_on_c, 10, 63, 96
4, 147239, Note_on_c, 10, 63, 0
4, 147240, Note_on_c, 10, 62, 96
4, 147299, Note_on_c, 10, 62, 0
4, 147300, Note_on_c, 10, 60, 96
4, 147359, Note_on_c, 10, 60, 0
4, 147360, Note_on_c, 10, 58, 96
4, 147419, Note_on_c, 10, 58, 0
4, 147420, Note_on_c, 10, 60, 96
4, 147479, Note_on_c, 10, 60, 0
4, 147480, Note_on_c, 10, 58, 96
4, 147539, Note_on_c, 10, 58, 0
4, 147540, Note_on_c, 10, 57, 96
4, 147599, Note_on_c, 10, 57, 0
4, 147600, Note_on_c, 10, 55, 96
4, 147659, Note_on_c, 10, 55, 0
4, 147660, Note_on_c, 10, 67, 96
4, 147719, Note_on_c, 10, 67, 0
4, 147720, Note_on_c, 10, 65, 96
4, 147779, Note_on_c, 10, 65, 0
4, 147780, Note_on_c, 10, 63, 96
4, 147839, Note_on_c, 10, 63, 0
4, 147840, Note_on_c, 10, 62, 96
4, 147899, Note_on_c, 10, 62, 0
4, 147900, Note_on_c, 10, 63, 96
4, 147959, Note_on_c, 10, 63, 0
4, 147960, Note_on_c, 10, 62, 96
4, 148019, Note_on_c, 10, 62, 0
4, 148020, Note_on_c, 10, 60, 96
4, 148079, Note_on_c, 10, 60, 0
4, 148080, Note_on_c, 10, 58, 96
4, 148139, Note_on_c, 10, 58, 0
4, 148140, Note_on_c, 10, 60, 96
4, 148199, Note_on_c, 10, 60, 0
4, 148200, Note_on_c, 10, 58, 96
4, 148259, Note_on_c, 10, 58, 0
4, 148260, Note_on_c, 10, 57, 96
4, 148319, Note_on_c, 10, 57, 0
4, 148320, Note_on_c, 10, 55, 96
4, 148379, Note_on_c, 10, 55, 0
4, 148380, Note_on_c, 10, 67, 96
4, 148439, Note_on_c, 10, 67, 0
4, 148440, Note_on_c, 10, 65, 96
4, 148499, Note_on_c, 10, 65, 0
4, 148500, Note_on_c, 10, 63, 96
4, 148559, Note_on_c, 10, 63, 0
4, 148560, Note_on_c, 10, 62, 96
4, 148619, Note_on_c, 10, 62, 0
4, 148620, Note_on_c, 10, 63, 96
4, 148679, Note_on_c, 10, 63, 0
4, 148680, Note_on_c, 10, 62, 96
4, 148739, Note_on_c, 10, 62, 0
4, 148740, Note_on_c, 10, 60, 96
4, 148799, Note_on_c, 10, 60, 0
4, 148800, Note_on_c, 10, 58, 96
4, 148859, Note_on_c, 10, 58, 0
4, 148860, Note_on_c, 10, 60, 96
4, 148919, Note_on_c, 10, 60, 0
4, 148920, Note_on_c, 10, 58, 96
4, 148979, Note_on_c, 10, 58, 0
4, 148980, Note_on_c, 10, 57, 96
4, 149039, Note_on_c, 10, 57, 0
4, 149040, Note_on_c, 10, 55, 96
4, 149099, Note_on_c, 10, 55, 0
4, 149100, Note_on_c, 10, 67, 96
4, 149159, Note_on_c, 10, 67, 0
4, 149160, Note_on_c, 10, 65, 96
4, 149219, Note_on_c, 10, 65, 0
4, 149220, Note_on_c, 10, 63, 96
4, 149279, Note_on_c, 10, 63, 0
4, 149280, Note_on_c, 10, 62, 96
4, 149339, Note_on_c, 10, 62, 0
4, 149340, Note_on_c, 10, 63, 96
4, 149399, Note_on_c, 10, 63, 0
4, 149400, Note_on_c, 10, 62, 96
4, 149459, Note_on_c, 10, 62, 0
4, 149460, Note_on_c, 10, 60, 96
4, 149519, Note_on_c, 10, 60, 0
4, 149520, Note_on_c, 10, 58, 96
4, 149579, Note_on_c, 10, 58, 0
4, 149580, Note_on_c, 10, 60, 96
4, 149639, Note_on_c, 10, 60, 0
4, 149640, Note_on_c, 10, 58, 96
4, 149699, Note_on_c, 10, 58, 0
4, 149700, Note_on_c, 10, 57, 96
4, 149759, Note_on_c, 10, 57, 0
4, 149760, Note_on_c, 10, 55, 96
4, 150479, Note_on_c, 10, 55, 0
4, 150480, End_track
5, 0, Start_track
5, 0, Key_signature, -2, "major"
5, 0, Control_c, 13, 121, 0
5, 0, Program_c, 13, 42
5, 0, Control_c, 13, 7, 100
5, 0, Control_c, 13, 10, 64
5, 0, Control_c, 13, 91, 0
5, 0, Control_c, 13, 93, 0
5, 0, MIDI_port, 0
5, 0, Control_c, 14, 121, 0
5, 0, Program_c, 14, 45
5, 0, Control_c, 14, 7, 100
5, 0, Control_c, 14, 10, 64
5, 0, Control_c, 14, 91, 0
5, 0, Control_c, 14, 93, 0
5, 0, MIDI_port, 0
5, 0, Control_c, 15, 121, 0
5, 0, Program_c, 15, 44
5, 0, Control_c, 15, 7, 100
5, 0, Control_c, 15, 10, 64
5, 0, Control_c, 15, 91, 0
5, 0, Control_c, 15, 93, 0
5, 0, MIDI_port, 0
5, 240, Note_on_c, 13, 55, 49
5, 479, Note_on_c, 13, 55, 0
5, 480, Note_on_c, 13, 50, 49
5, 719, Note_on_c, 13, 50, 0
5, 960, Note_on_c, 13, 43, 49
5, 1199, Note_on_c, 13, 43, 0
5, 1200, Note_on_c, 13, 38, 49
5, 1439, Note_on_c, 13, 38, 0
5, 1680, Note_on_c, 13, 50, 49
5, 1919, Note_on_c, 13, 50, 0
5, 1920, Note_on_c, 13, 38, 49
5, 2159, Note_on_c, 13, 38, 0
5, 2400, Note_on_c, 13, 50, 49
5, 2639, Note_on_c, 13, 50, 0
5, 2640, Note_on_c, 13, 38, 49
5, 2879, Note_on_c, 13, 38, 0
5, 2880, Note_on_c, 13, 43, 49
5, 3359, Note_on_c, 13, 43, 0
5, 3600, Note_on_c, 13, 50, 49
5, 4079, Note_on_c, 13, 50, 0
5, 4320, Note_on_c, 13, 50, 49
5, 4799, Note_on_c, 13, 50, 0
5, 5040, Note_on_c, 13, 43, 49
5, 5519, Note_on_c, 13, 43, 0
5, 5760, Note_on_c, 13, 43, 49
5, 6239, Note_on_c, 13, 43, 0
5, 6480, Note_on_c, 13, 48, 49
5, 7199, Note_on_c, 13, 48, 0
5, 7200, Note_on_c, 13, 50, 49
5, 7919, Note_on_c, 13, 50, 0
5, 9360, Note_on_c, 13, 62, 49
5, 9599, Note_on_c, 13, 62, 0
5, 9600, Note_on_c, 13, 60, 49
5, 9839, Note_on_c, 13, 60, 0
5, 9840, Note_on_c, 13, 58, 49
5, 10079, Note_on_c, 13, 58, 0
5, 10080, Note_on_c, 13, 57, 49
5, 10199, Note_on_c, 13, 57, 0
5, 10200, Note_on_c, 13, 55, 49
5, 10319, Note_on_c, 13, 55, 0
5, 10320, Note_on_c, 13, 54, 49
5, 10559, Note_on_c, 13, 54, 0
5, 10560, Note_on_c, 13, 51, 49
5, 10799, Note_on_c, 13, 51, 0
5, 10800, Note_on_c, 13, 50, 49
5, 12239, Note_on_c, 13, 50, 0
5, 12240, Note_on_c, 13, 55, 49
5, 12479, Note_on_c, 13, 55, 0
5, 12480, Note_on_c, 13, 54, 49
5, 12719, Note_on_c, 13, 54, 0
5, 12720, Note_on_c, 13, 51, 49
5, 12959, Note_on_c, 13, 51, 0
5, 12960, Note_on_c, 13, 50, 49
5, 13079, Note_on_c, 13, 50, 0
5, 13080, Note_on_c, 13, 48, 49
5, 13199, Note_on_c, 13, 48, 0
5, 13200, Note_on_c, 13, 46, 49
5, 13439, Note_on_c, 13, 46, 0
5, 13440, Note_on_c, 13, 45, 49
5, 13679, Note_on_c, 13, 45, 0
5, 13680, Note_on_c, 13, 43, 49
5, 14159, Note_on_c, 13, 43, 0
5, 14640, Note_on_c, 13, 55, 49
5, 14879, Note_on_c, 13, 55, 0
5, 14880, Note_on_c, 13, 43, 49
5, 15119, Note_on_c, 13, 43, 0
5, 15360, Note_on_c, 13, 60, 49
5, 15599, Note_on_c, 13, 60, 0
5, 15600, Note_on_c, 13, 48, 49
5, 15839, Note_on_c, 13, 48, 0
5, 16080, Note_on_c, 13, 55, 49
5, 16319, Note_on_c, 13, 55, 0
5, 16320, Note_on_c, 13, 43, 49
5, 16559, Note_on_c, 13, 43, 0
5, 16800, Note_on_c, 13, 50, 49
5, 17039, Note_on_c, 13, 50, 0
5, 17040, Note_on_c, 13, 38, 49
5, 17279, Note_on_c, 13, 38, 0
5, 17280, Note_on_c, 13, 43, 49
5, 17999, Note_on_c, 13, 43, 0
5, 18240, Note_on_c, 13, 55, 49
5, 18479, Note_on_c, 13, 55, 0
5, 18480, Note_on_c, 13, 43, 49
5, 18719, Note_on_c, 13, 43, 0
5, 18960, Note_on_c, 13, 48, 49
5, 19199, Note_on_c, 13, 48, 0
5, 19200, Note_on_c, 13, 36, 49
5, 19439, Note_on_c, 13, 36, 0
5, 19680, Note_on_c, 13, 55, 49
5, 19919, Note_on_c, 13, 55, 0
5, 19920, Note_on_c, 13, 43, 49
5, 20159, Note_on_c, 13, 43, 0
5, 20400, Note_on_c, 13, 50, 49
5, 20639, Note_on_c, 13, 50, 0
5, 20640, Note_on_c, 13, 38, 49
5, 20879, Note_on_c, 13, 38, 0
5, 21120, Note_on_c, 13, 43, 49
5, 21599, Note_on_c, 13, 43, 0
5, 21600, Note_on_c, 13, 43, 96
5, 21959, Note_on_c, 13, 43, 0
5, 21960, Note_on_c, 13, 55, 96
5, 22079, Note_on_c, 13, 55, 0
5, 22080, Note_on_c, 13, 43, 96
5, 22559, Note_on_c, 13, 43, 0
5, 22920, Note_on_c, 13, 55, 96
5, 23039, Note_on_c, 13, 55, 0
5, 23040, Note_on_c, 13, 43, 96
5, 23519, Note_on_c, 13, 43, 0
5, 23520, Note_on_c, 13, 43, 96
5, 23879, Note_on_c, 13, 43, 0
5, 23880, Note_on_c, 13, 55, 96
5, 23999, Note_on_c, 13, 55, 0
5, 24000, Note_on_c, 13, 43, 96
5, 24479, Note_on_c, 13, 43, 0
5, 24840, Note_on_c, 13, 55, 96
5, 24959, Note_on_c, 13, 55, 0
5, 24960, Note_on_c, 13, 43, 96
5, 25439, Note_on_c, 13, 43, 0
5, 25800, Note_on_c, 13, 55, 96
5, 25919, Note_on_c, 13, 55, 0
5, 25920, Note_on_c, 13, 43, 96
5, 26399, Note_on_c, 13, 43, 0
5, 26400, Note_on_c, 13, 55, 96
5, 26639, Note_on_c, 13, 55, 0
5, 26640, Note_on_c, 13, 54, 96
5, 26879, Note_on_c, 13, 54, 0
5, 26880, Note_on_c, 13, 55, 96
5, 27119, Note_on_c, 13, 55, 0
5, 27120, Note_on_c, 13, 43, 96
5, 27359, Note_on_c, 13, 43, 0
5, 27360, Note_on_c, 13, 50, 96
5, 27719, Note_on_c, 13, 50, 0
5, 27720, Note_on_c, 13, 62, 96
5, 27839, Note_on_c, 13, 62, 0
5, 27840, Note_on_c, 13, 54, 96
5, 28319, Note_on_c, 13, 54, 0
5, 28680, Note_on_c, 13, 62, 96
5, 28799, Note_on_c, 13, 62, 0
5, 28800, Note_on_c, 13, 54, 96
5, 29279, Note_on_c, 13, 54, 0
5, 29640, Note_on_c, 13, 62, 96
5, 29759, Note_on_c, 13, 62, 0
5, 29760, Note_on_c, 13, 54, 96
5, 30239, Note_on_c, 13, 54, 0
5, 30240, Note_on_c, 13, 54, 96
5, 30479, Note_on_c, 13, 54, 0
5, 30480, Note_on_c, 13, 55, 96
5, 30719, Note_on_c, 13, 55, 0
5, 30720, Note_on_c, 13, 57, 96
5, 30959, Note_on_c, 13, 57, 0
5, 30960, Note_on_c, 13, 50, 96
5, 31199, Note_on_c, 13, 50, 0
5, 31200, Note_on_c, 13, 43, 96
5, 31559, Note_on_c, 13, 43, 0
5, 31560, Note_on_c, 13, 55, 96
5, 31679, Note_on_c, 13, 55, 0
5, 31680, Note_on_c, 13, 43, 96
5, 32159, Note_on_c, 13, 43, 0
5, 32520, Note_on_c, 13, 55, 96
5, 32639, Note_on_c, 13, 55, 0
5, 32640, Note_on_c, 13, 43, 96
5, 33119, Note_on_c, 13, 43, 0
5, 33120, Note_on_c, 13, 55, 96
5, 33359, Note_on_c, 13, 55, 0
5, 33360, Note_on_c, 13, 57, 96
5, 33599, Note_on_c, 13, 57, 0
5, 33600, Note_on_c, 13, 58, 96
5, 33839, Note_on_c, 13, 58, 0
5, 33840, Note_on_c, 13, 55, 96
5, 34079, Note_on_c, 13, 55, 0
5, 34080, Note_on_c, 13, 45, 96
5, 34439, Note_on_c, 13, 45, 0
5, 34440, Note_on_c, 13, 57, 96
5, 34559, Note_on_c, 13, 57, 0
5, 34560, Note_on_c, 13, 45, 96
5, 35039, Note_on_c, 13, 45, 0
5, 35400, Note_on_c, 13, 57, 96
5, 35519, Note_on_c, 13, 57, 0
5, 35520, Note_on_c, 13, 45, 96
5, 35999, Note_on_c, 13, 45, 0
5, 36000, Note_on_c, 13, 57, 96
5, 36239, Note_on_c, 13, 57, 0
5, 36240, Note_on_c, 13, 58, 96
5, 36479, Note_on_c, 13, 58, 0
5, 36480, Note_on_c, 13, 60, 96
5, 36719, Note_on_c, 13, 60, 0
5, 36720, Note_on_c, 13, 57, 96
5, 36959, Note_on_c, 13, 57, 0
5, 36960, Note_on_c, 13, 58, 96
5, 37319, Note_on_c, 13, 58, 0
5, 37320, Note_on_c, 13, 62, 96
5, 37439, Note_on_c, 13, 62, 0
5, 37440, Note_on_c, 13, 54, 96
5, 37919, Note_on_c, 13, 54, 0
5, 38280, Note_on_c, 13, 62, 96
5, 38399, Note_on_c, 13, 62, 0
5, 38400, Note_on_c, 13, 54, 96
5, 38879, Note_on_c, 13, 54, 0
5, 39240, Note_on_c, 13, 55, 96
5, 39359, Note_on_c, 13, 55, 0
5, 39360, Note_on_c, 13, 43, 96
5, 39839, Note_on_c, 13, 43, 0
5, 40200, Note_on_c, 13, 55, 96
5, 40319, Note_on_c, 13, 55, 0
5, 40320, Note_on_c, 13, 43, 96
5, 40799, Note_on_c, 13, 43, 0
5, 41160, Note_on_c, 13, 63, 96
5, 41279, Note_on_c, 13, 63, 0
5, 41280, Note_on_c, 13, 55, 96
5, 41759, Note_on_c, 13, 55, 0
5, 42120, Note_on_c, 13, 63, 96
5, 42239, Note_on_c, 13, 63, 0
5, 42240, Note_on_c, 13, 55, 96
5, 42719, Note_on_c, 13, 55, 0
5, 43080, Note_on_c, 13, 60, 96
5, 43199, Note_on_c, 13, 60, 0
5, 43200, Note_on_c, 13, 52, 96
5, 43679, Note_on_c, 13, 52, 0
5, 44040, Note_on_c, 13, 60, 96
5, 44159, Note_on_c, 13, 60, 0
5, 44160, Note_on_c, 13, 52, 96
5, 44639, Note_on_c, 13, 52, 0
5, 45000, Note_on_c, 13, 60, 96
5, 45119, Note_on_c, 13, 60, 0
5, 45120, Note_on_c, 13, 53, 96
5, 45599, Note_on_c, 13, 53, 0
5, 45960, Note_on_c, 13, 60, 96
5, 46079, Note_on_c, 13, 60, 0
5, 46080, Note_on_c, 13, 53, 96
5, 46559, Note_on_c, 13, 53, 0
5, 46920, Note_on_c, 13, 62, 96
5, 47039, Note_on_c, 13, 62, 0
5, 47040, Note_on_c, 13, 54, 96
5, 47519, Note_on_c, 13, 54, 0
5, 47880, Note_on_c, 13, 62, 96
5, 47999, Note_on_c, 13, 62, 0
5, 48000, Note_on_c, 13, 54, 96
5, 48479, Note_on_c, 13, 54, 0
5, 48840, Note_on_c, 13, 55, 96
5, 48959, Note_on_c, 13, 55, 0
5, 48960, Note_on_c, 13, 46, 96
5, 49439, Note_on_c, 13, 46, 0
5, 49800, Note_on_c, 13, 55, 96
5, 49919, Note_on_c, 13, 55, 0
5, 49920, Note_on_c, 13, 46, 96
5, 50399, Note_on_c, 13, 46, 0
5, 50760, Note_on_c, 13, 65, 96
5, 50879, Note_on_c, 13, 65, 0
5, 50880, Note_on_c, 13, 57, 96
5, 51359, Note_on_c, 13, 57, 0
5, 51720, Note_on_c, 13, 65, 96
5, 51839, Note_on_c, 13, 65, 0
5, 51840, Note_on_c, 13, 57, 96
5, 52319, Note_on_c, 13, 57, 0
5, 52680, Note_on_c, 13, 63, 96
5, 52799, Note_on_c, 13, 63, 0
5, 52800, Note_on_c, 13, 55, 96
5, 53279, Note_on_c, 13, 55, 0
5, 53640, Note_on_c, 13, 63, 96
5, 53759, Note_on_c, 13, 63, 0
5, 53760, Note_on_c, 13, 55, 96
5, 54239, Note_on_c, 13, 55, 0
5, 54600, Note_on_c, 13, 62, 96
5, 54719, Note_on_c, 13, 62, 0
5, 54720, Note_on_c, 13, 53, 96
5, 55199, Note_on_c, 13, 53, 0
5, 55560, Note_on_c, 13, 62, 96
5, 55679, Note_on_c, 13, 62, 0
5, 55680, Note_on_c, 13, 54, 96
5, 56159, Note_on_c, 13, 54, 0
5, 56160, Note_on_c, 13, 43, 96
5, 56279, Note_on_c, 13, 43, 0
5, 56280, Note_on_c, 13, 55, 96
5, 56399, Note_on_c, 13, 55, 0
5, 56400, Note_on_c, 13, 55, 96
5, 56519, Note_on_c, 13, 55, 0
5, 56520, Note_on_c, 13, 55, 96
5, 56639, Note_on_c, 13, 55, 0
5, 56640, Note_on_c, 13, 55, 96
5, 56759, Note_on_c, 13, 55, 0
5, 56760, Note_on_c, 13, 55, 96
5, 56879, Note_on_c, 13, 55, 0
5, 56880, Note_on_c, 13, 43, 96
5, 56999, Note_on_c, 13, 43, 0
5, 57000, Note_on_c, 13, 55, 96
5, 57119, Note_on_c, 13, 55, 0
5, 57120, Note_on_c, 13, 43, 96
5, 57239, Note_on_c, 13, 43, 0
5, 57240, Note_on_c, 13, 55, 96
5, 57359, Note_on_c, 13, 55, 0
5, 57360, Note_on_c, 13, 55, 96
5, 57479, Note_on_c, 13, 55, 0
5, 57480, Note_on_c, 13, 55, 96
5, 57599, Note_on_c, 13, 55, 0
5, 57600, Note_on_c, 13, 55, 96
5, 57719, Note_on_c, 13, 55, 0
5, 57720, Note_on_c, 13, 55, 96
5, 57839, Note_on_c, 13, 55, 0
5, 57840, Note_on_c, 13, 43, 96
5, 57959, Note_on_c, 13, 43, 0
5, 57960, Note_on_c, 13, 55, 96
5, 58079, Note_on_c, 13, 55, 0
5, 58080, Note_on_c, 13, 38, 96
5, 58199, Note_on_c, 13, 38, 0
5, 58200, Note_on_c, 13, 50, 96
5, 58319, Note_on_c, 13, 50, 0
5, 58320, Note_on_c, 13, 50, 96
5, 58439, Note_on_c, 13, 50, 0
5, 58440, Note_on_c, 13, 50, 96
5, 58559, Note_on_c, 13, 50, 0
5, 58560, Note_on_c, 13, 50, 96
5, 58679, Note_on_c, 13, 50, 0
5, 58680, Note_on_c, 13, 50, 96
5, 58799, Note_on_c, 13, 50, 0
5, 58800, Note_on_c, 13, 38, 96
5, 58919, Note_on_c, 13, 38, 0
5, 58920, Note_on_c, 13, 50, 96
5, 59039, Note_on_c, 13, 50, 0
5, 59040, Note_on_c, 13, 38, 96
5, 59159, Note_on_c, 13, 38, 0
5, 59160, Note_on_c, 13, 50, 96
5, 59279, Note_on_c, 13, 50, 0
5, 59280, Note_on_c, 13, 50, 96
5, 59399, Note_on_c, 13, 50, 0
5, 59400, Note_on_c, 13, 50, 96
5, 59519, Note_on_c, 13, 50, 0
5, 59520, Note_on_c, 13, 50, 96
5, 59639, Note_on_c, 13, 50, 0
5, 59640, Note_on_c, 13, 50, 96
5, 59759, Note_on_c, 13, 50, 0
5, 59760, Note_on_c, 13, 38, 96
5, 59879, Note_on_c, 13, 38, 0
5, 59880, Note_on_c, 13, 50, 96
5, 59999, Note_on_c, 13, 50, 0
5, 60000, Note_on_c, 13, 38, 96
5, 60119, Note_on_c, 13, 38, 0
5, 60120, Note_on_c, 13, 50, 96
5, 60239, Note_on_c, 13, 50, 0
5, 60240, Note_on_c, 13, 50, 96
5, 60359, Note_on_c, 13, 50, 0
5, 60360, Note_on_c, 13, 50, 96
5, 60479, Note_on_c, 13, 50, 0
5, 60480, Note_on_c, 13, 50, 96
5, 60599, Note_on_c, 13, 50, 0
5, 60600, Note_on_c, 13, 50, 96
5, 60719, Note_on_c, 13, 50, 0
5, 60720, Note_on_c, 13, 38, 96
5, 60839, Note_on_c, 13, 38, 0
5, 60840, Note_on_c, 13, 50, 96
5, 60959, Note_on_c, 13, 50, 0
5, 60960, Note_on_c, 13, 38, 96
5, 61079, Note_on_c, 13, 38, 0
5, 61080, Note_on_c, 13, 50, 96
5, 61199, Note_on_c, 13, 50, 0
5, 61200, Note_on_c, 13, 50, 96
5, 61319, Note_on_c, 13, 50, 0
5, 61320, Note_on_c, 13, 50, 96
5, 61439, Note_on_c, 13, 50, 0
5, 61440, Note_on_c, 13, 50, 96
5, 61559, Note_on_c, 13, 50, 0
5, 61560, Note_on_c, 13, 50, 96
5, 61679, Note_on_c, 13, 50, 0
5, 61680, Note_on_c, 13, 38, 96
5, 61799, Note_on_c, 13, 38, 0
5, 61800, Note_on_c, 13, 50, 96
5, 61919, Note_on_c, 13, 50, 0
5, 61920, Note_on_c, 13, 43, 96
5, 62159, Note_on_c, 13, 43, 0
5, 62160, Note_on_c, 13, 55, 49
5, 62399, Note_on_c, 13, 55, 0
5, 62400, Note_on_c, 13, 50, 49
5, 62639, Note_on_c, 13, 50, 0
5, 62880, Note_on_c, 13, 43, 49
5, 63119, Note_on_c, 13, 43, 0
5, 63120, Note_on_c, 13, 38, 49
5, 63359, Note_on_c, 13, 38, 0
5, 63600, Note_on_c, 13, 55, 49
5, 63839, Note_on_c, 13, 55, 0
5, 63840, Note_on_c, 13, 43, 49
5, 64079, Note_on_c, 13, 43, 0
5, 64320, Note_on_c, 13, 60, 49
5, 64559, Note_on_c, 13, 60, 0
5, 64560, Note_on_c, 13, 48, 49
5, 64799, Note_on_c, 13, 48, 0
5, 65040, Note_on_c, 13, 55, 49
5, 65279, Note_on_c, 13, 55, 0
5, 65280, Note_on_c, 13, 43, 49
5, 65519, Note_on_c, 13, 43, 0
5, 65760, Note_on_c, 13, 50, 49
5, 65999, Note_on_c, 13, 50, 0
5, 66000, Note_on_c, 13, 38, 49
5, 66239, Note_on_c, 13, 38, 0
5, 66480, Note_on_c, 13, 43, 49
5, 66959, Note_on_c, 13, 43, 0
5, 66960, Note_on_c, 13, 43, 49
5, 70019, Note_on_c, 13, 43, 0
5, 70020, Note_on_c, 13, 55, 49
5, 70079, Note_on_c, 13, 55, 0
5, 70080, Note_on_c, 13, 43, 49
5, 70739, Note_on_c, 13, 43, 0
5, 70740, Note_on_c, 13, 53, 49
5, 70799, Note_on_c, 13, 53, 0
5, 70800, Note_on_c, 13, 43, 49
5, 71459, Note_on_c, 13, 43, 0
5, 71460, Note_on_c, 13, 51, 49
5, 71519, Note_on_c, 13, 51, 0
5, 71520, Note_on_c, 13, 43, 49
5, 72179, Note_on_c, 13, 43, 0
5, 72180, Note_on_c, 13, 50, 49
5, 72239, Note_on_c, 13, 50, 0
5, 72240, Note_on_c, 13, 43, 49
5, 75599, Note_on_c, 13, 43, 0
5, 89280, Note_on_c, 13, 50, 96
5, 89399, Note_on_c, 13, 50, 0
5, 89400, Note_on_c, 13, 62, 96
5, 89519, Note_on_c, 13, 62, 0
5, 89520, Note_on_c, 13, 50, 96
5, 89639, Note_on_c, 13, 50, 0
5, 89640, Note_on_c, 13, 38, 96
5, 89759, Note_on_c, 13, 38, 0
5, 89760, Note_on_c, 13, 38, 96
5, 89879, Note_on_c, 13, 38, 0
5, 89880, Note_on_c, 13, 38, 96
5, 89999, Note_on_c, 13, 38, 0
5, 90000, Note_on_c, 13, 45, 96
5, 90119, Note_on_c, 13, 45, 0
5, 90120, Note_on_c, 13, 57, 96
5, 90239, Note_on_c, 13, 57, 0
5, 90240, Note_on_c, 13, 45, 96
5, 90359, Note_on_c, 13, 45, 0
5, 90360, Note_on_c, 13, 45, 96
5, 90479, Note_on_c, 13, 45, 0
5, 90480, Note_on_c, 13, 45, 96
5, 90599, Note_on_c, 13, 45, 0
5, 90600, Note_on_c, 13, 45, 96
5, 90719, Note_on_c, 13, 45, 0
5, 90720, Note_on_c, 13, 50, 96
5, 90839, Note_on_c, 13, 50, 0
5, 90840, Note_on_c, 13, 62, 96
5, 90959, Note_on_c, 13, 62, 0
5, 90960, Note_on_c, 13, 50, 96
5, 91079, Note_on_c, 13, 50, 0
5, 91080, Note_on_c, 13, 38, 96
5, 91199, Note_on_c, 13, 38, 0
5, 91200, Note_on_c, 13, 38, 96
5, 91319, Note_on_c, 13, 38, 0
5, 91320, Note_on_c, 13, 38, 96
5, 91439, Note_on_c, 13, 38, 0
5, 91440, Note_on_c, 13, 50, 96
5, 91559, Note_on_c, 13, 50, 0
5, 91560, Note_on_c, 13, 62, 96
5, 91679, Note_on_c, 13, 62, 0
5, 91680, Note_on_c, 13, 50, 96
5, 91799, Note_on_c, 13, 50, 0
5, 91800, Note_on_c, 13, 38, 96
5, 91919, Note_on_c, 13, 38, 0
5, 91920, Note_on_c, 13, 38, 96
5, 92039, Note_on_c, 13, 38, 0
5, 92040, Note_on_c, 13, 38, 96
5, 92159, Note_on_c, 13, 38, 0
5, 92160, Note_on_c, 13, 50, 96
5, 92279, Note_on_c, 13, 50, 0
5, 92280, Note_on_c, 13, 62, 96
5, 92399, Note_on_c, 13, 62, 0
5, 92400, Note_on_c, 13, 50, 96
5, 92519, Note_on_c, 13, 50, 0
5, 92520, Note_on_c, 13, 38, 96
5, 92639, Note_on_c, 13, 38, 0
5, 92640, Note_on_c, 13, 38, 96
5, 92759, Note_on_c, 13, 38, 0
5, 92760, Note_on_c, 13, 38, 96
5, 92879, Note_on_c, 13, 38, 0
5, 92880, Note_on_c, 13, 50, 96
5, 92999, Note_on_c, 13, 50, 0
5, 93000, Note_on_c, 13, 62, 96
5, 93119, Note_on_c, 13, 62, 0
5, 93120, Note_on_c, 13, 50, 96
5, 93239, Note_on_c, 13, 50, 0
5, 93240, Note_on_c, 13, 38, 96
5, 93359, Note_on_c, 13, 38, 0
5, 93360, Note_on_c, 13, 38, 96
5, 93479, Note_on_c, 13, 38, 0
5, 93480, Note_on_c, 13, 38, 96
5, 93599, Note_on_c, 13, 38, 0
5, 93600, Note_on_c, 13, 50, 96
5, 93719, Note_on_c, 13, 50, 0
5, 93720, Note_on_c, 13, 62, 96
5, 93839, Note_on_c, 13, 62, 0
5, 93840, Note_on_c, 13, 50, 96
5, 93959, Note_on_c, 13, 50, 0
5, 93960, Note_on_c, 13, 38, 96
5, 94079, Note_on_c, 13, 38, 0
5, 94080, Note_on_c, 13, 38, 96
5, 94199, Note_on_c, 13, 38, 0
5, 94200, Note_on_c, 13, 38, 96
5, 94319, Note_on_c, 13, 38, 0
5, 94320, Note_on_c, 13, 50, 96
5, 94439, Note_on_c, 13, 50, 0
5, 94440, Note_on_c, 13, 62, 96
5, 94559, Note_on_c, 13, 62, 0
5, 94560, Note_on_c, 13, 50, 96
5, 94679, Note_on_c, 13, 50, 0
5, 94680, Note_on_c, 13, 38, 96
5, 94799, Note_on_c, 13, 38, 0
5, 94800, Note_on_c, 13, 38, 96
5, 94919, Note_on_c, 13, 38, 0
5, 94920, Note_on_c, 13, 38, 96
5, 95039, Note_on_c, 13, 38, 0
5, 95040, Note_on_c, 13, 50, 96
5, 95159, Note_on_c, 13, 50, 0
5, 95160, Note_on_c, 13, 62, 96
5, 95279, Note_on_c, 13, 62, 0
5, 95280, Note_on_c, 13, 50, 96
5, 95399, Note_on_c, 13, 50, 0
5, 95400, Note_on_c, 13, 38, 96
5, 95519, Note_on_c, 13, 38, 0
5, 95520, Note_on_c, 13, 38, 96
5, 95639, Note_on_c, 13, 38, 0
5, 95640, Note_on_c, 13, 38, 96
5, 95759, Note_on_c, 13, 38, 0
5, 95760, Note_on_c, 13, 50, 96
5, 95879, Note_on_c, 13, 50, 0
5, 95880, Note_on_c, 13, 62, 96
5, 95999, Note_on_c, 13, 62, 0
5, 96000, Note_on_c, 13, 50, 96
5, 96119, Note_on_c, 13, 50, 0
5, 96120, Note_on_c, 13, 38, 96
5, 96239, Note_on_c, 13, 38, 0
5, 96240, Note_on_c, 13, 38, 96
5, 96359, Note_on_c, 13, 38, 0
5, 96360, Note_on_c, 13, 38, 96
5, 96479, Note_on_c, 13, 38, 0
5, 96480, Note_on_c, 13, 50, 96
5, 96599, Note_on_c, 13, 50, 0
5, 96600, Note_on_c, 13, 62, 96
5, 96719, Note_on_c, 13, 62, 0
5, 96720, Note_on_c, 13, 50, 96
5, 96839, Note_on_c, 13, 50, 0
5, 96840, Note_on_c, 13, 38, 96
5, 96959, Note_on_c, 13, 38, 0
5, 96960, Note_on_c, 13, 38, 96
5, 97079, Note_on_c, 13, 38, 0
5, 97080, Note_on_c, 13, 38, 96
5, 97199, Note_on_c, 13, 38, 0
5, 97200, Note_on_c, 13, 50, 96
5, 97319, Note_on_c, 13, 50, 0
5, 97320, Note_on_c, 13, 62, 96
5, 97439, Note_on_c, 13, 62, 0
5, 97440, Note_on_c, 13, 50, 96
5, 97559, Note_on_c, 13, 50, 0
5, 97560, Note_on_c, 13, 38, 96
5, 97679, Note_on_c, 13, 38, 0
5, 97680, Note_on_c, 13, 38, 96
5, 97799, Note_on_c, 13, 38, 0
5, 97800, Note_on_c, 13, 38, 96
5, 97919, Note_on_c, 13, 38, 0
5, 97920, Note_on_c, 13, 45, 96
5, 98039, Note_on_c, 13, 45, 0
5, 98040, Note_on_c, 13, 57, 96
5, 98159, Note_on_c, 13, 57, 0
5, 98160, Note_on_c, 13, 49, 96
5, 98279, Note_on_c, 13, 49, 0
5, 98280, Note_on_c, 13, 45, 96
5, 98399, Note_on_c, 13, 45, 0
5, 98400, Note_on_c, 13, 45, 96
5, 98519, Note_on_c, 13, 45, 0
5, 98520, Note_on_c, 13, 45, 96
5, 98639, Note_on_c, 13, 45, 0
5, 98640, Note_on_c, 13, 45, 96
5, 98759, Note_on_c, 13, 45, 0
5, 98760, Note_on_c, 13, 57, 96
5, 98879, Note_on_c, 13, 57, 0
5, 98880, Note_on_c, 13, 50, 96
5, 98999, Note_on_c, 13, 50, 0
5, 99000, Note_on_c, 13, 45, 96
5, 99119, Note_on_c, 13, 45, 0
5, 99120, Note_on_c, 13, 45, 96
5, 99239, Note_on_c, 13, 45, 0
5, 99240, Note_on_c, 13, 45, 96
5, 99359, Note_on_c, 13, 45, 0
5, 99360, Note_on_c, 13, 45, 96
5, 99479, Note_on_c, 13, 45, 0
5, 99480, Note_on_c, 13, 57, 96
5, 99599, Note_on_c, 13, 57, 0
5, 99600, Note_on_c, 13, 52, 96
5, 99719, Note_on_c, 13, 52, 0
5, 99720, Note_on_c, 13, 45, 96
5, 99839, Note_on_c, 13, 45, 0
5, 99840, Note_on_c, 13, 45, 96
5, 99959, Note_on_c, 13, 45, 0
5, 99960, Note_on_c, 13, 45, 96
5, 100079, Note_on_c, 13, 45, 0
5, 100080, Note_on_c, 13, 45, 96
5, 100199, Note_on_c, 13, 45, 0
5, 100200, Note_on_c, 13, 57, 96
5, 100319, Note_on_c, 13, 57, 0
5, 100320, Note_on_c, 13, 50, 96
5, 100439, Note_on_c, 13, 50, 0
5, 100440, Note_on_c, 13, 45, 96
5, 100559, Note_on_c, 13, 45, 0
5, 100560, Note_on_c, 13, 45, 96
5, 100679, Note_on_c, 13, 45, 0
5, 100680, Note_on_c, 13, 45, 96
5, 100799, Note_on_c, 13, 45, 0
5, 100800, Note_on_c, 13, 45, 96
5, 100919, Note_on_c, 13, 45, 0
5, 100920, Note_on_c, 13, 57, 96
5, 101039, Note_on_c, 13, 57, 0
5, 101040, Note_on_c, 13, 49, 96
5, 101159, Note_on_c, 13, 49, 0
5, 101160, Note_on_c, 13, 45, 96
5, 101279, Note_on_c, 13, 45, 0
5, 101280, Note_on_c, 13, 45, 96
5, 101399, Note_on_c, 13, 45, 0
5, 101400, Note_on_c, 13, 45, 96
5, 101519, Note_on_c, 13, 45, 0
5, 101520, Note_on_c, 13, 45, 96
5, 101639, Note_on_c, 13, 45, 0
5, 101640, Note_on_c, 13, 57, 96
5, 101759, Note_on_c, 13, 57, 0
5, 101760, Note_on_c, 13, 50, 96
5, 101879, Note_on_c, 13, 50, 0
5, 101880, Note_on_c, 13, 45, 96
5, 101999, Note_on_c, 13, 45, 0
5, 102000, Note_on_c, 13, 45, 96
5, 102119, Note_on_c, 13, 45, 0
5, 102120, Note_on_c, 13, 45, 96
5, 102239, Note_on_c, 13, 45, 0
5, 102240, Note_on_c, 13, 45, 96
5, 102359, Note_on_c, 13, 45, 0
5, 102360, Note_on_c, 13, 57, 96
5, 102479, Note_on_c, 13, 57, 0
5, 102480, Note_on_c, 13, 50, 96
5, 102599, Note_on_c, 13, 50, 0
5, 102600, Note_on_c, 13, 45, 96
5, 102719, Note_on_c, 13, 45, 0
5, 102720, Note_on_c, 13, 45, 96
5, 102839, Note_on_c, 13, 45, 0
5, 102840, Note_on_c, 13, 45, 96
5, 102959, Note_on_c, 13, 45, 0
5, 102960, Note_on_c, 13, 45, 96
5, 103079, Note_on_c, 13, 45, 0
5, 103080, Note_on_c, 13, 57, 96
5, 103199, Note_on_c, 13, 57, 0
5, 103200, Note_on_c, 13, 49, 96
5, 103319, Note_on_c, 13, 49, 0
5, 103320, Note_on_c, 13, 45, 96
5, 103439, Note_on_c, 13, 45, 0
5, 103440, Note_on_c, 13, 45, 96
5, 103559, Note_on_c, 13, 45, 0
5, 103560, Note_on_c, 13, 45, 96
5, 103679, Note_on_c, 13, 45, 0
5, 103680, Note_on_c, 13, 38, 96
5, 103919, Note_on_c, 13, 38, 0
5, 103920, Note_on_c, 13, 50, 49
5, 104159, Note_on_c, 13, 50, 0
5, 104160, Note_on_c, 13, 45, 49
5, 104399, Note_on_c, 13, 45, 0
5, 104640, Note_on_c, 13, 45, 49
5, 104879, Note_on_c, 13, 45, 0
5, 104880, Note_on_c, 13, 50, 49
5, 105119, Note_on_c, 13, 50, 0
5, 105360, Note_on_c, 13, 55, 49
5, 105599, Note_on_c, 13, 55, 0
5, 105600, Note_on_c, 13, 43, 49
5, 105839, Note_on_c, 13, 43, 0
5, 106080, Note_on_c, 13, 55, 49
5, 106319, Note_on_c, 13, 55, 0
5, 106320, Note_on_c, 13, 43, 49
5, 106559, Note_on_c, 13, 43, 0
5, 106800, Note_on_c, 13, 62, 49
5, 107039, Note_on_c, 13, 62, 0
5, 107040, Note_on_c, 13, 50, 49
5, 107279, Note_on_c, 13, 50, 0
5, 107520, Note_on_c, 13, 57, 49
5, 107759, Note_on_c, 13, 57, 0
5, 107760, Note_on_c, 13, 45, 49
5, 107999, Note_on_c, 13, 45, 0
5, 108000, Note_on_c, 13, 50, 49
5, 108719, Note_on_c, 13, 50, 0
5, 108720, Note_on_c, 13, 56, 49
5, 109439, Note_on_c, 13, 56, 0
5, 109440, Note_on_c, 13, 55, 49
5, 110159, Note_on_c, 13, 55, 0
5, 110160, Note_on_c, 13, 54, 49
5, 110879, Note_on_c, 13, 54, 0
5, 110880, Note_on_c, 13, 53, 49
5, 111599, Note_on_c, 13, 53, 0
5, 111600, Note_on_c, 13, 52, 49
5, 112319, Note_on_c, 13, 52, 0
5, 112320, Note_on_c, 13, 51, 49
5, 113039, Note_on_c, 13, 51, 0
5, 113040, Note_on_c, 13, 51, 49
5, 113759, Note_on_c, 13, 51, 0
5, 113760, Note_on_c, 13, 52, 49
5, 114479, Note_on_c, 13, 52, 0
5, 114480, Note_on_c, 13, 46, 49
5, 115199, Note_on_c, 13, 46, 0
5, 115200, Note_on_c, 13, 45, 49
5, 115919, Note_on_c, 13, 45, 0
5, 115920, Note_on_c, 13, 44, 49
5, 116639, Note_on_c, 13, 44, 0
5, 116640, Note_on_c, 13, 43, 49
5, 117359, Note_on_c, 13, 43, 0
5, 117360, Note_on_c, 13, 42, 49
5, 118079, Note_on_c, 13, 42, 0
5, 118080, Note_on_c, 13, 41, 49
5, 118799, Note_on_c, 13, 41, 0
5, 118800, Note_on_c, 13, 40, 49
5, 119519, Note_on_c, 13, 40, 0
5, 119520, Note_on_c, 13, 39, 49
5, 120239, Note_on_c, 13, 39, 0
5, 120240, Note_on_c, 13, 38, 49
5, 120959, Note_on_c, 13, 38, 0
5, 120960, Note_on_c, 13, 59, 49
5, 121679, Note_on_c, 13, 59, 0
5, 121680, Note_on_c, 13, 58, 49
5, 122399, Note_on_c, 13, 58, 0
5, 122400, Note_on_c, 13, 56, 49
5, 123839, Note_on_c, 13, 56, 0
5, 123840, Note_on_c, 13, 55, 49
5, 124559, Note_on_c, 13, 55, 0
5, 124560, Note_on_c, 13, 53, 49
5, 125279, Note_on_c, 13, 53, 0
5, 125280, Note_on_c, 13, 51, 49
5, 126719, Note_on_c, 13, 51, 0
5, 126720, Note_on_c, 13, 50, 49
5, 127199, Note_on_c, 13, 50, 0
5, 127200, Note_on_c, 13, 48, 49
5, 127439, Note_on_c, 13, 48, 0
5, 127440, Note_on_c, 13, 46, 49
5, 127679, Note_on_c, 13, 46, 0
5, 127680, Note_on_c, 13, 45, 49
5, 127919, Note_on_c, 13, 45, 0
5, 127920, Note_on_c, 13, 43, 49
5, 128159, Note_on_c, 13, 43, 0
5, 128160, Note_on_c, 13, 48, 49
5, 133199, Note_on_c, 13, 48, 0
5, 133200, Note_on_c, 13, 55, 49
5, 134639, Note_on_c, 13, 55, 0
5, 134640, Note_on_c, 13, 54, 49
5, 134879, Note_on_c, 13, 54, 0
5, 134880, Note_on_c, 13, 50, 49
5, 135119, Note_on_c, 13, 50, 0
5, 135120, Note_on_c, 13, 55, 49
5, 135359, Note_on_c, 13, 55, 0
5, 135360, Note_on_c, 13, 51, 49
5, 135479, Note_on_c, 13, 51, 0
5, 135480, Note_on_c, 13, 48, 49
5, 135599, Note_on_c, 13, 48, 0
5, 135600, Note_on_c, 13, 50, 49
5, 135839, Note_on_c, 13, 50, 0
5, 135840, Note_on_c, 13, 38, 49
5, 136079, Note_on_c, 13, 38, 0
5, 136080, Note_on_c, 13, 43, 96
5, 136199, Note_on_c, 13, 43, 0
5, 136200, Note_on_c, 13, 55, 96
5, 136319, Note_on_c, 13, 55, 0
5, 136320, Note_on_c, 13, 43, 96
5, 136439, Note_on_c, 13, 43, 0
5, 136440, Note_on_c, 13, 43, 96
5, 136559, Note_on_c, 13, 43, 0
5, 136560, Note_on_c, 13, 43, 96
5, 136679, Note_on_c, 13, 43, 0
5, 136680, Note_on_c, 13, 55, 96
5, 136799, Note_on_c, 13, 55, 0
5, 136800, Note_on_c, 13, 50, 96
5, 136919, Note_on_c, 13, 50, 0
5, 136920, Note_on_c, 13, 62, 96
5, 137039, Note_on_c, 13, 62, 0
5, 137040, Note_on_c, 13, 50, 96
5, 137159, Note_on_c, 13, 50, 0
5, 137160, Note_on_c, 13, 38, 96
5, 137279, Note_on_c, 13, 38, 0
5, 137280, Note_on_c, 13, 38, 96
5, 137399, Note_on_c, 13, 38, 0
5, 137400, Note_on_c, 13, 38, 96
5, 137519, Note_on_c, 13, 38, 0
5, 137520, Note_on_c, 13, 50, 96
5, 137639, Note_on_c, 13, 50, 0
5, 137640, Note_on_c, 13, 62, 96
5, 137759, Note_on_c, 13, 62, 0
5, 137760, Note_on_c, 13, 50, 96
5, 137879, Note_on_c, 13, 50, 0
5, 137880, Note_on_c, 13, 38, 96
5, 137999, Note_on_c, 13, 38, 0
5, 138000, Note_on_c, 13, 38, 96
5, 138119, Note_on_c, 13, 38, 0
5, 138120, Note_on_c, 13, 38, 96
5, 138239, Note_on_c, 13, 38, 0
5, 138240, Note_on_c, 13, 50, 96
5, 138359, Note_on_c, 13, 50, 0
5, 138360, Note_on_c, 13, 62, 96
5, 138479, Note_on_c, 13, 62, 0
5, 138480, Note_on_c, 13, 50, 96
5, 138599, Note_on_c, 13, 50, 0
5, 138600, Note_on_c, 13, 38, 96
5, 138719, Note_on_c, 13, 38, 0
5, 138720, Note_on_c, 13, 38, 96
5, 138839, Note_on_c, 13, 38, 0
5, 138840, Note_on_c, 13, 38, 96
5, 138959, Note_on_c, 13, 38, 0
5, 138960, Note_on_c, 13, 50, 96
5, 139079, Note_on_c, 13, 50, 0
5, 139080, Note_on_c, 13, 62, 96
5, 139199, Note_on_c, 13, 62, 0
5, 139200, Note_on_c, 13, 50, 96
5, 139319, Note_on_c, 13, 50, 0
5, 139320, Note_on_c, 13, 38, 96
5, 139439, Note_on_c, 13, 38, 0
5, 139440, Note_on_c, 13, 38, 96
5, 139559, Note_on_c, 13, 38, 0
5, 139560, Note_on_c, 13, 38, 96
5, 139679, Note_on_c, 13, 38, 0
5, 139680, Note_on_c, 13, 50, 96
5, 139799, Note_on_c, 13, 50, 0
5, 139800, Note_on_c, 13, 62, 96
5, 139919, Note_on_c, 13, 62, 0
5, 139920, Note_on_c, 13, 50, 96
5, 140039, Note_on_c, 13, 50, 0
5, 140040, Note_on_c, 13, 38, 96
5, 140159, Note_on_c, 13, 38, 0
5, 140160, Note_on_c, 13, 38, 96
5, 140279, Note_on_c, 13, 38, 0
5, 140280, Note_on_c, 13, 38, 96
5, 140399, Note_on_c, 13, 38, 0
5, 140400, Note_on_c, 13, 50, 96
5, 140519, Note_on_c, 13, 50, 0
5, 140520, Note_on_c, 13, 62, 96
5, 140639, Note_on_c, 13, 62, 0
5, 140640, Note_on_c, 13, 50, 96
5, 140759, Note_on_c, 13, 50, 0
5, 140760, Note_on_c, 13, 38, 96
5, 140879, Note_on_c, 13, 38, 0
5, 140880, Note_on_c, 13, 38, 96
5, 140999, Note_on_c, 13, 38, 0
5, 141000, Note_on_c, 13, 38, 96
5, 141119, Note_on_c, 13, 38, 0
5, 141120, Note_on_c, 13, 50, 96
5, 141239, Note_on_c, 13, 50, 0
5, 141240, Note_on_c, 13, 62, 96
5, 141359, Note_on_c, 13, 62, 0
5, 141360, Note_on_c, 13, 50, 96
5, 141479, Note_on_c, 13, 50, 0
5, 141480, Note_on_c, 13, 38, 96
5, 141599, Note_on_c, 13, 38, 0
5, 141600, Note_on_c, 13, 38, 96
5, 141719, Note_on_c, 13, 38, 0
5, 141720, Note_on_c, 13, 38, 96
5, 141839, Note_on_c, 13, 38, 0
5, 141840, Note_on_c, 13, 43, 96
5, 141959, Note_on_c, 13, 43, 0
5, 141960, Note_on_c, 13, 55, 96
5, 142079, Note_on_c, 13, 55, 0
5, 142080, Note_on_c, 13, 43, 96
5, 142199, Note_on_c, 13, 43, 0
5, 142200, Note_on_c, 13, 43, 96
5, 142319, Note_on_c, 13, 43, 0
5, 142320, Note_on_c, 13, 43, 96
5, 142439, Note_on_c, 13, 43, 0
5, 142440, Note_on_c, 13, 43, 96
5, 142559, Note_on_c, 13, 43, 0
5, 142560, Note_on_c, 13, 48, 96
5, 142679, Note_on_c, 13, 48, 0
5, 142680, Note_on_c, 13, 60, 96
5, 142799, Note_on_c, 13, 60, 0
5, 142800, Note_on_c, 13, 48, 96
5, 142919, Note_on_c, 13, 48, 0
5, 142920, Note_on_c, 13, 36, 96
5, 143039, Note_on_c, 13, 36, 0
5, 143040, Note_on_c, 13, 36, 96
5, 143159, Note_on_c, 13, 36, 0
5, 143160, Note_on_c, 13, 36, 96
5, 143279, Note_on_c, 13, 36, 0
5, 143280, Note_on_c, 13, 50, 96
5, 143399, Note_on_c, 13, 50, 0
5, 143400, Note_on_c, 13, 62, 96
5, 143519, Note_on_c, 13, 62, 0
5, 143520, Note_on_c, 13, 50, 96
5, 143639, Note_on_c, 13, 50, 0
5, 143640, Note_on_c, 13, 38, 96
5, 143759, Note_on_c, 13, 38, 0
5, 143760, Note_on_c, 13, 38, 96
5, 143879, Note_on_c, 13, 38, 0
5, 143880, Note_on_c, 13, 38, 96
5, 143999, Note_on_c, 13, 38, 0
5, 144000, Note_on_c, 13, 43, 96
5, 144119, Note_on_c, 13, 43, 0
5, 144120, Note_on_c, 13, 55, 96
5, 144239, Note_on_c, 13, 55, 0
5, 144240, Note_on_c, 13, 43, 96
5, 144359, Note_on_c, 13, 43, 0
5, 144360, Note_on_c, 13, 43, 96
5, 144479, Note_on_c, 13, 43, 0
5, 144480, Note_on_c, 13, 43, 96
5, 144599, Note_on_c, 13, 43, 0
5, 144600, Note_on_c, 13, 43, 96
5, 144719, Note_on_c, 13, 43, 0
5, 144720, Note_on_c, 13, 48, 96
5, 144839, Note_on_c, 13, 48, 0
5, 144840, Note_on_c, 13, 60, 96
5, 144959, Note_on_c, 13, 60, 0
5, 144960, Note_on_c, 13, 48, 96
5, 145079, Note_on_c, 13, 48, 0
5, 145080, Note_on_c, 13, 48, 96
5, 145199, Note_on_c, 13, 48, 0
5, 145200, Note_on_c, 13, 48, 96
5, 145319, Note_on_c, 13, 48, 0
5, 145320, Note_on_c, 13, 48, 96
5, 145439, Note_on_c, 13, 48, 0
5, 145440, Note_on_c, 13, 49, 96
5, 145559, Note_on_c, 13, 49, 0
5, 145560, Note_on_c, 13, 61, 96
5, 145679, Note_on_c, 13, 61, 0
5, 145680, Note_on_c, 13, 49, 96
5, 145799, Note_on_c, 13, 49, 0
5, 145800, Note_on_c, 13, 49, 96
5, 145919, Note_on_c, 13, 49, 0
5, 145920, Note_on_c, 13, 49, 96
5, 146039, Note_on_c, 13, 49, 0
5, 146040, Note_on_c, 13, 49, 96
5, 146159, Note_on_c, 13, 49, 0
5, 146160, Note_on_c, 13, 50, 96
5, 146279, Note_on_c, 13, 50, 0
5, 146280, Note_on_c, 13, 62, 96
5, 146399, Note_on_c, 13, 62, 0
5, 146400, Note_on_c, 13, 50, 96
5, 146519, Note_on_c, 13, 50, 0
5, 146520, Note_on_c, 13, 50, 96
5, 146639, Note_on_c, 13, 50, 0
5, 146640, Note_on_c, 13, 50, 96
5, 146759, Note_on_c, 13, 50, 0
5, 146760, Note_on_c, 13, 50, 96
5, 146879, Note_on_c, 13, 50, 0
5, 146880, Note_on_c, 13, 43, 96
5, 146939, Note_on_c, 13, 43, 0
5, 146940, Note_on_c, 13, 55, 96
5, 146999, Note_on_c, 13, 55, 0
5, 147000, Note_on_c, 13, 53, 96
5, 147059, Note_on_c, 13, 53, 0
5, 147060, Note_on_c, 13, 51, 96
5, 147119, Note_on_c, 13, 51, 0
5, 147120, Note_on_c, 13, 50, 96
5, 147179, Note_on_c, 13, 50, 0
5, 147180, Note_on_c, 13, 51, 96
5, 147239, Note_on_c, 13, 51, 0
5, 147240, Note_on_c, 13, 50, 96
5, 147299, Note_on_c, 13, 50, 0
5, 147300, Note_on_c, 13, 48, 96
5, 147359, Note_on_c, 13, 48, 0
5, 147360, Note_on_c, 13, 46, 96
5, 147419, Note_on_c, 13, 46, 0
5, 147420, Note_on_c, 13, 48, 96
5, 147479, Note_on_c, 13, 48, 0
5, 147480, Note_on_c, 13, 46, 96
5, 147539, Note_on_c, 13, 46, 0
5, 147540, Note_on_c, 13, 45, 96
5, 147599, Note_on_c, 13, 45, 0
5, 147600, Note_on_c, 13, 43, 96
5, 147659, Note_on_c, 13, 43, 0
5, 147660, Note_on_c, 13, 55, 96
5, 147719, Note_on_c, 13, 55, 0
5, 147720, Note_on_c, 13, 53, 96
5, 147779, Note_on_c, 13, 53, 0
5, 147780, Note_on_c, 13, 51, 96
5, 147839, Note_on_c, 13, 51, 0
5, 147840, Note_on_c, 13, 50, 96
5, 147899, Note_on_c, 13, 50, 0
5, 147900, Note_on_c, 13, 51, 96
5, 147959, Note_on_c, 13, 51, 0
5, 147960, Note_on_c, 13, 50, 96
5, 148019, Note_on_c, 13, 50, 0
5, 148020, Note_on_c, 13, 48, 96
5, 148079, Note_on_c, 13, 48, 0
5, 148080, Note_on_c, 13, 46, 96
5, 148139, Note_on_c, 13, 46, 0
5, 148140, Note_on_c, 13, 48, 96
5, 148199, Note_on_c, 13, 48, 0
5, 148200, Note_on_c, 13, 46, 96
5, 148259, Note_on_c, 13, 46, 0
5, 148260, Note_on_c, 13, 45, 96
5, 148319, Note_on_c, 13, 45, 0
5, 148320, Note_on_c, 13, 43, 96
5, 148379, Note_on_c, 13, 43, 0
5, 148380, Note_on_c, 13, 55, 96
5, 148439, Note_on_c, 13, 55, 0
5, 148440, Note_on_c, 13, 53, 96
5, 148499, Note_on_c, 13, 53, 0
5, 148500, Note_on_c, 13, 51, 96
5, 148559, Note_on_c, 13, 51, 0
5, 148560, Note_on_c, 13, 50, 96
5, 148619, Note_on_c, 13, 50, 0
5, 148620, Note_on_c, 13, 51, 96
5, 148679, Note_on_c, 13, 51, 0
5, 148680, Note_on_c, 13, 50, 96
5, 148739, Note_on_c, 13, 50, 0
5, 148740, Note_on_c, 13, 48, 96
5, 148799, Note_on_c, 13, 48, 0
5, 148800, Note_on_c, 13, 46, 96
5, 148859, Note_on_c, 13, 46, 0
5, 148860, Note_on_c, 13, 48, 96
5, 148919, Note_on_c, 13, 48, 0
5, 148920, Note_on_c, 13, 46, 96
5, 148979, Note_on_c, 13, 46, 0
5, 148980, Note_on_c, 13, 45, 96
5, 149039, Note_on_c, 13, 45, 0
5, 149040, Note_on_c, 13, 43, 96
5, 149099, Note_on_c, 13, 43, 0
5, 149100, Note_on_c, 13, 55, 96
5, 149159, Note_on_c, 13, 55, 0
5, 149160, Note_on_c, 13, 53, 96
5, 149219, Note_on_c, 13, 53, 0
5, 149220, Note_on_c, 13, 51, 96
5, 149279, Note_on_c, 13, 51, 0
5, 149280, Note_on_c, 13, 50, 96
5, 149339, Note_on_c, 13, 50, 0
5, 149340, Note_on_c, 13, 51, 96
5, 149399, Note_on_c, 13, 51, 0
5, 149400, Note_on_c, 13, 50, 96
5, 149459, Note_on_c, 13, 50, 0
5, 149460, Note_on_c, 13, 48, 96
5, 149519, Note_on_c, 13, 48, 0
5, 149520, Note_on_c, 13, 46, 96
5, 149579, Note_on_c, 13, 46, 0
5, 149580, Note_on_c, 13, 48, 96
5, 149639, Note_on_c, 13, 48, 0
5, 149640, Note_on_c, 13, 46, 96
5, 149699, Note_on_c, 13, 46, 0
5, 149700, Note_on_c, 13, 45, 96
5, 149759, Note_on_c, 13, 45, 0
5, 149760, Note_on_c, 13, 43, 96
5, 150479, Note_on_c, 13, 43, 0
5, 150480, End_track
0, 0, End_of_file
