0, 0, Header, 1, 4, 480
1, 0, Start_track
1, 0, Time_signature, 1, 3, 24, 8
1, 0, Key_signature, -1, "major"
1, 0, Tempo, 500000
1, 0, Control_c, 0, 121, 0
1, 0, Program_c, 0, 73
1, 0, Control_c, 0, 7, 100
1, 0, Control_c, 0, 10, 64
1, 0, Control_c, 0, 91, 0
1, 0, Control_c, 0, 93, 0
1, 0, MIDI_port, 0
1, 0, Note_on_c, 0, 77, 96
1, 227, Note_on_c, 0, 77, 0
1, 240, Time_signature, 4, 2, 24, 8
1, 240, Note_on_c, 0, 81, 96
1, 467, Note_on_c, 0, 81, 0
1, 480, Note_on_c, 0, 81, 96
1, 707, Note_on_c, 0, 81, 0
1, 720, Note_on_c, 0, 81, 96
1, 947, Note_on_c, 0, 81, 0
1, 960, Note_on_c, 0, 79, 96
1, 1073, Note_on_c, 0, 79, 0
1, 1080, Note_on_c, 0, 77, 96
1, 1193, Note_on_c, 0, 77, 0
1, 1200, Note_on_c, 0, 84, 96
1, 1883, Note_on_c, 0, 84, 0
1, 1920, Note_on_c, 0, 84, 96
1, 2033, Note_on_c, 0, 84, 0
1, 2040, Note_on_c, 0, 82, 96
1, 2153, Note_on_c, 0, 82, 0
1, 2160, Note_on_c, 0, 81, 96
1, 2387, Note_on_c, 0, 81, 0
1, 2400, Note_on_c, 0, 81, 96
1, 2627, Note_on_c, 0, 81, 0
1, 2640, Note_on_c, 0, 81, 96
1, 2867, Note_on_c, 0, 81, 0
1, 2880, Note_on_c, 0, 79, 96
1, 2993, Note_on_c, 0, 79, 0
1, 3000, Note_on_c, 0, 77, 96
1, 3113, Note_on_c, 0, 77, 0
1, 3120, Note_on_c, 0, 84, 96
1, 3803, Note_on_c, 0, 84, 0
1, 3840, Note_on_c, 0, 84, 96
1, 3953, Note_on_c, 0, 84, 0
1, 3960, Note_on_c, 0, 82, 96
1, 4073, Note_on_c, 0, 82, 0
1, 4080, Note_on_c, 0, 81, 96
1, 4307, Note_on_c, 0, 81, 0
1, 4320, Note_on_c, 0, 82, 96
1, 4433, Note_on_c, 0, 82, 0
1, 4440, Note_on_c, 0, 84, 96
1, 4553, Note_on_c, 0, 84, 0
1, 4560, Note_on_c, 0, 82, 96
1, 4787, Note_on_c, 0, 82, 0
1, 4800, Note_on_c, 0, 81, 96
1, 5027, Note_on_c, 0, 81, 0
1, 5040, Note_on_c, 0, 79, 96
1, 5267, Note_on_c, 0, 79, 0
1, 5280, Note_on_c, 0, 76, 96
1, 5507, Note_on_c, 0, 76, 0
1, 5520, Note_on_c, 0, 72, 96
1, 5747, Note_on_c, 0, 72, 0
1, 5760, Note_on_c, 0, 77, 49
1, 5987, Note_on_c, 0, 77, 0
1, 6000, Note_on_c, 0, 81, 49
1, 6227, Note_on_c, 0, 81, 0
1, 6240, Note_on_c, 0, 81, 49
1, 6467, Note_on_c, 0, 81, 0
1, 6480, Note_on_c, 0, 81, 49
1, 6707, Note_on_c, 0, 81, 0
1, 6720, Note_on_c, 0, 79, 49
1, 6833, Note_on_c, 0, 79, 0
1, 6840, Note_on_c, 0, 77, 49
1, 6953, Note_on_c, 0, 77, 0
1, 6960, Note_on_c, 0, 84, 49
1, 7643, Note_on_c, 0, 84, 0
1, 7680, Note_on_c, 0, 84, 49
1, 7793, Note_on_c, 0, 84, 0
1, 7800, Note_on_c, 0, 82, 49
1, 7913, Note_on_c, 0, 82, 0
1, 7920, Note_on_c, 0, 81, 49
1, 8147, Note_on_c, 0, 81, 0
1, 8160, Note_on_c, 0, 81, 49
1, 8387, Note_on_c, 0, 81, 0
1, 8400, Note_on_c, 0, 81, 49
1, 8627, Note_on_c, 0, 81, 0
1, 8640, Note_on_c, 0, 79, 49
1, 8753, Note_on_c, 0, 79, 0
1, 8760, Note_on_c, 0, 77, 49
1, 8873, Note_on_c, 0, 77, 0
1, 8880, Note_on_c, 0, 84, 49
1, 9563, Note_on_c, 0, 84, 0
1, 9600, Note_on_c, 0, 84, 49
1, 9713, Note_on_c, 0, 84, 0
1, 9720, Note_on_c, 0, 82, 49
1, 9833, Note_on_c, 0, 82, 0
1, 9840, Note_on_c, 0, 81, 49
1, 10067, Note_on_c, 0, 81, 0
1, 10080, Note_on_c, 0, 82, 49
1, 10193, Note_on_c, 0, 82, 0
1, 10200, Note_on_c, 0, 84, 49
1, 10313, Note_on_c, 0, 84, 0
1, 10320, Note_on_c, 0, 82, 49
1, 10547, Note_on_c, 0, 82, 0
1, 10560, Note_on_c, 0, 81, 49
1, 10787, Note_on_c, 0, 81, 0
1, 10800, Note_on_c, 0, 79, 49
1, 11483, Note_on_c, 0, 79, 0
1, 11520, Note_on_c, 0, 77, 96
1, 11747, Note_on_c, 0, 77, 0
1, 11760, Note_on_c, 0, 84, 96
1, 11987, Note_on_c, 0, 84, 0
1, 12000, Note_on_c, 0, 82, 96
1, 12113, Note_on_c, 0, 82, 0
1, 12120, Note_on_c, 0, 81, 96
1, 12233, Note_on_c, 0, 81, 0
1, 12240, Note_on_c, 0, 82, 96
1, 12467, Note_on_c, 0, 82, 0
1, 12480, Note_on_c, 0, 84, 96
1, 12707, Note_on_c, 0, 84, 0
1, 12720, Note_on_c, 0, 86, 96
1, 12947, Note_on_c, 0, 86, 0
1, 12960, Note_on_c, 0, 84, 96
1, 13415, Note_on_c, 0, 84, 0
1, 13440, Note_on_c, 0, 77, 96
1, 13667, Note_on_c, 0, 77, 0
1, 13680, Note_on_c, 0, 84, 96
1, 13907, Note_on_c, 0, 84, 0
1, 13920, Note_on_c, 0, 82, 96
1, 14033, Note_on_c, 0, 82, 0
1, 14040, Note_on_c, 0, 81, 96
1, 14153, Note_on_c, 0, 81, 0
1, 14160, Note_on_c, 0, 82, 96
1, 14387, Note_on_c, 0, 82, 0
1, 14400, Note_on_c, 0, 84, 96
1, 14627, Note_on_c, 0, 84, 0
1, 14640, Note_on_c, 0, 86, 96
1, 14867, Note_on_c, 0, 86, 0
1, 14880, Note_on_c, 0, 84, 96
1, 15335, Note_on_c, 0, 84, 0
1, 15360, Note_on_c, 0, 77, 96
1, 15587, Note_on_c, 0, 77, 0
1, 15600, Note_on_c, 0, 86, 96
1, 15827, Note_on_c, 0, 86, 0
1, 15840, Note_on_c, 0, 84, 96
1, 16295, Note_on_c, 0, 84, 0
1, 16320, Note_on_c, 0, 82, 96
1, 16547, Note_on_c, 0, 82, 0
1, 16560, Note_on_c, 0, 81, 96
1, 16787, Note_on_c, 0, 81, 0
1, 16800, Note_on_c, 0, 79, 96
1, 16913, Note_on_c, 0, 79, 0
1, 16920, Note_on_c, 0, 77, 96
1, 17033, Note_on_c, 0, 77, 0
1, 17040, Note_on_c, 0, 79, 96
1, 17495, Note_on_c, 0, 79, 0
1, 17520, Note_on_c, 0, 77, 96
1, 17975, Note_on_c, 0, 77, 0
1, 18240, Note_on_c, 0, 77, 49
1, 18467, Note_on_c, 0, 77, 0
1, 18480, Note_on_c, 0, 84, 49
1, 18707, Note_on_c, 0, 84, 0
1, 18720, Note_on_c, 0, 82, 49
1, 18833, Note_on_c, 0, 82, 0
1, 18840, Note_on_c, 0, 81, 49
1, 18953, Note_on_c, 0, 81, 0
1, 18960, Note_on_c, 0, 82, 49
1, 19187, Note_on_c, 0, 82, 0
1, 19200, Note_on_c, 0, 84, 49
1, 19427, Note_on_c, 0, 84, 0
1, 19440, Note_on_c, 0, 86, 49
1, 19667, Note_on_c, 0, 86, 0
1, 19680, Note_on_c, 0, 84, 49
1, 20135, Note_on_c, 0, 84, 0
1, 20160, Note_on_c, 0, 77, 49
1, 20387, Note_on_c, 0, 77, 0
1, 20400, Note_on_c, 0, 84, 49
1, 20627, Note_on_c, 0, 84, 0
1, 20640, Note_on_c, 0, 82, 49
1, 20753, Note_on_c, 0, 82, 0
1, 20760, Note_on_c, 0, 81, 49
1, 20873, Note_on_c, 0, 81, 0
1, 20880, Note_on_c, 0, 82, 49
1, 21107, Note_on_c, 0, 82, 0
1, 21120, Note_on_c, 0, 84, 49
1, 21347, Note_on_c, 0, 84, 0
1, 21360, Note_on_c, 0, 86, 49
1, 21587, Note_on_c, 0, 86, 0
1, 21600, Note_on_c, 0, 84, 49
1, 22055, Note_on_c, 0, 84, 0
1, 22080, Note_on_c, 0, 77, 49
1, 22307, Note_on_c, 0, 77, 0
1, 22320, Note_on_c, 0, 86, 49
1, 22547, Note_on_c, 0, 86, 0
1, 22560, Note_on_c, 0, 84, 49
1, 23015, Note_on_c, 0, 84, 0
1, 23040, Note_on_c, 0, 77, 49
1, 23267, Note_on_c, 0, 77, 0
1, 23280, Note_on_c, 0, 86, 49
1, 23507, Note_on_c, 0, 86, 0
1, 23520, Note_on_c, 0, 84, 49
1, 23975, Note_on_c, 0, 84, 0
1, 24000, Note_on_c, 0, 82, 49
1, 24227, Note_on_c, 0, 82, 0
1, 24240, Note_on_c, 0, 81, 49
1, 24467, Note_on_c, 0, 81, 0
1, 24480, Note_on_c, 0, 79, 49
1, 24593, Note_on_c, 0, 79, 0
1, 24600, Note_on_c, 0, 77, 49
1, 24713, Note_on_c, 0, 77, 0
1, 24720, Note_on_c, 0, 79, 49
1, 25175, Note_on_c, 0, 79, 0
1, 25200, Note_on_c, 0, 77, 49
1, 25427, Note_on_c, 0, 77, 0
1, 25440, Note_on_c, 0, 69, 49
1, 25553, Note_on_c, 0, 69, 0
1, 25560, Note_on_c, 0, 70, 49
1, 25673, Note_on_c, 0, 70, 0
1, 25680, Note_on_c, 0, 72, 49
1, 25793, Note_on_c, 0, 72, 0
1, 25800, Note_on_c, 0, 70, 49
1, 25913, Note_on_c, 0, 70, 0
1, 25920, Note_on_c, 0, 72, 49
1, 26033, Note_on_c, 0, 72, 0
1, 26040, Note_on_c, 0, 70, 49
1, 26153, Note_on_c, 0, 70, 0
1, 26160, Note_on_c, 0, 69, 49
1, 26273, Note_on_c, 0, 69, 0
1, 26280, Note_on_c, 0, 70, 49
1, 26393, Note_on_c, 0, 70, 0
1, 26400, Note_on_c, 0, 69, 49
1, 26513, Note_on_c, 0, 69, 0
1, 26520, Note_on_c, 0, 70, 49
1, 26633, Note_on_c, 0, 70, 0
1, 26640, Note_on_c, 0, 72, 49
1, 26753, Note_on_c, 0, 72, 0
1, 26760, Note_on_c, 0, 70, 49
1, 26873, Note_on_c, 0, 70, 0
1, 26880, Note_on_c, 0, 72, 49
1, 26993, Note_on_c, 0, 72, 0
1, 27000, Note_on_c, 0, 70, 49
1, 27113, Note_on_c, 0, 70, 0
1, 27120, Note_on_c, 0, 69, 49
1, 27347, Note_on_c, 0, 69, 0
1, 27360, Note_on_c, 0, 69, 49
1, 27473, Note_on_c, 0, 69, 0
1, 27480, Note_on_c, 0, 70, 49
1, 27593, Note_on_c, 0, 70, 0
1, 27600, Note_on_c, 0, 72, 49
1, 27713, Note_on_c, 0, 72, 0
1, 27720, Note_on_c, 0, 70, 49
1, 27833, Note_on_c, 0, 70, 0
1, 27840, Note_on_c, 0, 72, 49
1, 27953, Note_on_c, 0, 72, 0
1, 27960, Note_on_c, 0, 70, 49
1, 28073, Note_on_c, 0, 70, 0
1, 28080, Note_on_c, 0, 69, 49
1, 28193, Note_on_c, 0, 69, 0
1, 28200, Note_on_c, 0, 70, 49
1, 28313, Note_on_c, 0, 70, 0
1, 28320, Note_on_c, 0, 69, 49
1, 28433, Note_on_c, 0, 69, 0
1, 28440, Note_on_c, 0, 70, 49
1, 28553, Note_on_c, 0, 70, 0
1, 28560, Note_on_c, 0, 72, 49
1, 28673, Note_on_c, 0, 72, 0
1, 28680, Note_on_c, 0, 74, 49
1, 28793, Note_on_c, 0, 74, 0
1, 28800, Note_on_c, 0, 72, 49
1, 28913, Note_on_c, 0, 72, 0
1, 28920, Note_on_c, 0, 74, 49
1, 29033, Note_on_c, 0, 74, 0
1, 29040, Note_on_c, 0, 76, 49
1, 29267, Note_on_c, 0, 76, 0
1, 29280, Note_on_c, 0, 76, 49
1, 29393, Note_on_c, 0, 76, 0
1, 29400, Note_on_c, 0, 77, 49
1, 29513, Note_on_c, 0, 77, 0
1, 29520, Note_on_c, 0, 79, 49
1, 29633, Note_on_c, 0, 79, 0
1, 29640, Note_on_c, 0, 77, 49
1, 29753, Note_on_c, 0, 77, 0
1, 29760, Note_on_c, 0, 79, 49
1, 29873, Note_on_c, 0, 79, 0
1, 29880, Note_on_c, 0, 77, 49
1, 29993, Note_on_c, 0, 77, 0
1, 30000, Note_on_c, 0, 76, 49
1, 30113, Note_on_c, 0, 76, 0
1, 30120, Note_on_c, 0, 77, 49
1, 30233, Note_on_c, 0, 77, 0
1, 30240, Note_on_c, 0, 76, 49
1, 30353, Note_on_c, 0, 76, 0
1, 30360, Note_on_c, 0, 77, 49
1, 30473, Note_on_c, 0, 77, 0
1, 30480, Note_on_c, 0, 79, 49
1, 30593, Note_on_c, 0, 79, 0
1, 30600, Note_on_c, 0, 77, 49
1, 30713, Note_on_c, 0, 77, 0
1, 30720, Note_on_c, 0, 79, 49
1, 30833, Note_on_c, 0, 79, 0
1, 30840, Note_on_c, 0, 77, 49
1, 30953, Note_on_c, 0, 77, 0
1, 30960, Note_on_c, 0, 76, 49
1, 31187, Note_on_c, 0, 76, 0
1, 31200, Note_on_c, 0, 76, 49
1, 31313, Note_on_c, 0, 76, 0
1, 31320, Note_on_c, 0, 77, 49
1, 31433, Note_on_c, 0, 77, 0
1, 31440, Note_on_c, 0, 79, 49
1, 31553, Note_on_c, 0, 79, 0
1, 31560, Note_on_c, 0, 81, 49
1, 31673, Note_on_c, 0, 81, 0
1, 31680, Note_on_c, 0, 79, 49
1, 31793, Note_on_c, 0, 79, 0
1, 31800, Note_on_c, 0, 81, 49
1, 31913, Note_on_c, 0, 81, 0
1, 31920, Note_on_c, 0, 82, 49
1, 32033, Note_on_c, 0, 82, 0
1, 32040, Note_on_c, 0, 81, 49
1, 32153, Note_on_c, 0, 81, 0
1, 32160, Note_on_c, 0, 82, 49
1, 32273, Note_on_c, 0, 82, 0
1, 32280, Note_on_c, 0, 81, 49
1, 32393, Note_on_c, 0, 81, 0
1, 32400, Note_on_c, 0, 79, 49
1, 32513, Note_on_c, 0, 79, 0
1, 32520, Note_on_c, 0, 82, 49
1, 32633, Note_on_c, 0, 82, 0
1, 32640, Note_on_c, 0, 81, 49
1, 32753, Note_on_c, 0, 81, 0
1, 32760, Note_on_c, 0, 79, 49
1, 32873, Note_on_c, 0, 79, 0
1, 32880, Note_on_c, 0, 81, 49
1, 33107, Note_on_c, 0, 81, 0
1, 33120, Note_on_c, 0, 79, 49
1, 33233, Note_on_c, 0, 79, 0
1, 33240, Note_on_c, 0, 77, 49
1, 33353, Note_on_c, 0, 77, 0
1, 33360, Note_on_c, 0, 76, 49
1, 33473, Note_on_c, 0, 76, 0
1, 33480, Note_on_c, 0, 74, 49
1, 33593, Note_on_c, 0, 74, 0
1, 33600, Note_on_c, 0, 72, 49
1, 33713, Note_on_c, 0, 72, 0
1, 33720, Note_on_c, 0, 70, 49
1, 33833, Note_on_c, 0, 70, 0
1, 33840, Note_on_c, 0, 69, 49
1, 33953, Note_on_c, 0, 69, 0
1, 33960, Note_on_c, 0, 70, 49
1, 34073, Note_on_c, 0, 70, 0
1, 34080, Note_on_c, 0, 69, 49
1, 34193, Note_on_c, 0, 69, 0
1, 34200, Note_on_c, 0, 70, 49
1, 34313, Note_on_c, 0, 70, 0
1, 34320, Note_on_c, 0, 72, 49
1, 34433, Note_on_c, 0, 72, 0
1, 34440, Note_on_c, 0, 70, 49
1, 34553, Note_on_c, 0, 70, 0
1, 34560, Note_on_c, 0, 72, 49
1, 34673, Note_on_c, 0, 72, 0
1, 34680, Note_on_c, 0, 70, 49
1, 34793, Note_on_c, 0, 70, 0
1, 34800, Note_on_c, 0, 69, 49
1, 35027, Note_on_c, 0, 69, 0
1, 35040, Note_on_c, 0, 69, 49
1, 35153, Note_on_c, 0, 69, 0
1, 35160, Note_on_c, 0, 70, 49
1, 35273, Note_on_c, 0, 70, 0
1, 35280, Note_on_c, 0, 72, 49
1, 35393, Note_on_c, 0, 72, 0
1, 35400, Note_on_c, 0, 70, 49
1, 35513, Note_on_c, 0, 70, 0
1, 35520, Note_on_c, 0, 72, 49
1, 35633, Note_on_c, 0, 72, 0
1, 35640, Note_on_c, 0, 70, 49
1, 35753, Note_on_c, 0, 70, 0
1, 35760, Note_on_c, 0, 69, 49
1, 35873, Note_on_c, 0, 69, 0
1, 35880, Note_on_c, 0, 70, 49
1, 35993, Note_on_c, 0, 70, 0
1, 36000, Note_on_c, 0, 69, 49
1, 36113, Note_on_c, 0, 69, 0
1, 36120, Note_on_c, 0, 70, 49
1, 36233, Note_on_c, 0, 70, 0
1, 36240, Note_on_c, 0, 72, 49
1, 36353, Note_on_c, 0, 72, 0
1, 36360, Note_on_c, 0, 70, 49
1, 36473, Note_on_c, 0, 70, 0
1, 36480, Note_on_c, 0, 72, 49
1, 36593, Note_on_c, 0, 72, 0
1, 36600, Note_on_c, 0, 70, 49
1, 36713, Note_on_c, 0, 70, 0
1, 36720, Note_on_c, 0, 69, 49
1, 37403, Note_on_c, 0, 69, 0
1, 37440, Note_on_c, 0, 81, 49
1, 37667, Note_on_c, 0, 81, 0
1, 37680, Note_on_c, 0, 82, 49
1, 38591, Note_on_c, 0, 82, 0
1, 38640, Note_on_c, 0, 81, 49
1, 39551, Note_on_c, 0, 81, 0
1, 39600, Note_on_c, 0, 79, 49
1, 40511, Note_on_c, 0, 79, 0
1, 40560, Note_on_c, 0, 81, 49
1, 41471, Note_on_c, 0, 81, 0
1, 41520, Note_on_c, 0, 82, 49
1, 42431, Note_on_c, 0, 82, 0
1, 42480, Note_on_c, 0, 81, 49
1, 43391, Note_on_c, 0, 81, 0
1, 43440, Note_on_c, 0, 79, 49
1, 44123, Note_on_c, 0, 79, 0
1, 44160, Note_on_c, 0, 72, 96
1, 44387, Note_on_c, 0, 72, 0
1, 44400, Note_on_c, 0, 79, 96
1, 44627, Note_on_c, 0, 79, 0
1, 44640, Note_on_c, 0, 77, 96
1, 44753, Note_on_c, 0, 77, 0
1, 44760, Note_on_c, 0, 76, 96
1, 44873, Note_on_c, 0, 76, 0
1, 44880, Note_on_c, 0, 77, 96
1, 45107, Note_on_c, 0, 77, 0
1, 45120, Note_on_c, 0, 79, 96
1, 45347, Note_on_c, 0, 79, 0
1, 45360, Note_on_c, 0, 81, 96
1, 45587, Note_on_c, 0, 81, 0
1, 45600, Note_on_c, 0, 79, 96
1, 46055, Note_on_c, 0, 79, 0
1, 46080, Note_on_c, 0, 72, 96
1, 46307, Note_on_c, 0, 72, 0
1, 46320, Note_on_c, 0, 79, 96
1, 46547, Note_on_c, 0, 79, 0
1, 46560, Note_on_c, 0, 77, 96
1, 46673, Note_on_c, 0, 77, 0
1, 46680, Note_on_c, 0, 76, 96
1, 46793, Note_on_c, 0, 76, 0
1, 46800, Note_on_c, 0, 77, 96
1, 47027, Note_on_c, 0, 77, 0
1, 47040, Note_on_c, 0, 79, 96
1, 47267, Note_on_c, 0, 79, 0
1, 47280, Note_on_c, 0, 81, 96
1, 47507, Note_on_c, 0, 81, 0
1, 47520, Note_on_c, 0, 79, 96
1, 47975, Note_on_c, 0, 79, 0
1, 48000, Note_on_c, 0, 72, 96
1, 48227, Note_on_c, 0, 72, 0
1, 48240, Note_on_c, 0, 81, 96
1, 48467, Note_on_c, 0, 81, 0
1, 48480, Note_on_c, 0, 79, 96
1, 48935, Note_on_c, 0, 79, 0
1, 48960, Note_on_c, 0, 77, 96
1, 49187, Note_on_c, 0, 77, 0
1, 49200, Note_on_c, 0, 76, 96
1, 49427, Note_on_c, 0, 76, 0
1, 49440, Note_on_c, 0, 74, 96
1, 49553, Note_on_c, 0, 74, 0
1, 49560, Note_on_c, 0, 72, 96
1, 49673, Note_on_c, 0, 72, 0
1, 49680, Note_on_c, 0, 74, 96
1, 50135, Note_on_c, 0, 74, 0
1, 50160, Note_on_c, 0, 72, 96
1, 50615, Note_on_c, 0, 72, 0
1, 50640, Note_on_c, 0, 72, 96
1, 51095, Note_on_c, 0, 72, 0
1, 51120, Note_on_c, 0, 73, 96
1, 51575, Note_on_c, 0, 73, 0
1, 51600, Note_on_c, 0, 73, 96
1, 52055, Note_on_c, 0, 73, 0
1, 52080, Note_on_c, 0, 74, 49
1, 52307, Note_on_c, 0, 74, 0
1, 52320, Note_on_c, 0, 81, 49
1, 52547, Note_on_c, 0, 81, 0
1, 52560, Note_on_c, 0, 81, 49
1, 52787, Note_on_c, 0, 81, 0
1, 52800, Note_on_c, 0, 81, 49
1, 53027, Note_on_c, 0, 81, 0
1, 53040, Note_on_c, 0, 81, 49
1, 53267, Note_on_c, 0, 81, 0
1, 53280, Note_on_c, 0, 81, 49
1, 53507, Note_on_c, 0, 81, 0
1, 53520, Note_on_c, 0, 81, 49
1, 53747, Note_on_c, 0, 81, 0
1, 53760, Note_on_c, 0, 81, 49
1, 53987, Note_on_c, 0, 81, 0
1, 54000, Note_on_c, 0, 82, 49
1, 54227, Note_on_c, 0, 82, 0
1, 54240, Note_on_c, 0, 82, 49
1, 54467, Note_on_c, 0, 82, 0
1, 54480, Note_on_c, 0, 83, 49
1, 54707, Note_on_c, 0, 83, 0
1, 54720, Note_on_c, 0, 83, 49
1, 54947, Note_on_c, 0, 83, 0
1, 54960, Note_on_c, 0, 84, 49
1, 55187, Note_on_c, 0, 84, 0
1, 55200, Note_on_c, 0, 84, 49
1, 55427, Note_on_c, 0, 84, 0
1, 55440, Note_on_c, 0, 85, 49
1, 55667, Note_on_c, 0, 85, 0
1, 55680, Note_on_c, 0, 85, 49
1, 55907, Note_on_c, 0, 85, 0
1, 55920, Note_on_c, 0, 86, 49
1, 57839, Note_on_c, 0, 86, 0
1, 57840, Note_on_c, 0, 86, 49
1, 59759, Note_on_c, 0, 86, 0
1, 59760, Note_on_c, 0, 86, 49
1, 59873, Note_on_c, 0, 86, 0
1, 59880, Note_on_c, 0, 88, 49
1, 59993, Note_on_c, 0, 88, 0
1, 60000, Note_on_c, 0, 86, 49
1, 60113, Note_on_c, 0, 86, 0
1, 60120, Note_on_c, 0, 88, 49
1, 60233, Note_on_c, 0, 88, 0
1, 60240, Note_on_c, 0, 86, 49
1, 60719, Note_on_c, 0, 86, 0
1, 60720, Note_on_c, 0, 86, 49
1, 60833, Note_on_c, 0, 86, 0
1, 60840, Note_on_c, 0, 88, 49
1, 60953, Note_on_c, 0, 88, 0
1, 60960, Note_on_c, 0, 86, 49
1, 61073, Note_on_c, 0, 86, 0
1, 61080, Note_on_c, 0, 88, 49
1, 61193, Note_on_c, 0, 88, 0
1, 61200, Note_on_c, 0, 86, 49
1, 61679, Note_on_c, 0, 86, 0
1, 61680, Note_on_c, 0, 86, 49
1, 61793, Note_on_c, 0, 86, 0
1, 61800, Note_on_c, 0, 88, 49
1, 61913, Note_on_c, 0, 88, 0
1, 61920, Note_on_c, 0, 86, 49
1, 62033, Note_on_c, 0, 86, 0
1, 62040, Note_on_c, 0, 88, 49
1, 62153, Note_on_c, 0, 88, 0
1, 62160, Note_on_c, 0, 86, 49
1, 62273, Note_on_c, 0, 86, 0
1, 62280, Note_on_c, 0, 88, 49
1, 62393, Note_on_c, 0, 88, 0
1, 62400, Note_on_c, 0, 86, 49
1, 62513, Note_on_c, 0, 86, 0
1, 62520, Note_on_c, 0, 88, 49
1, 62633, Note_on_c, 0, 88, 0
1, 62640, Note_on_c, 0, 86, 49
1, 63551, Note_on_c, 0, 86, 0
1, 63600, Note_on_c, 0, 81, 96
1, 63827, Note_on_c, 0, 81, 0
1, 63840, Note_on_c, 0, 81, 96
1, 64067, Note_on_c, 0, 81, 0
1, 64080, Note_on_c, 0, 81, 96
1, 64307, Note_on_c, 0, 81, 0
1, 64320, Note_on_c, 0, 79, 96
1, 64433, Note_on_c, 0, 79, 0
1, 64440, Note_on_c, 0, 81, 96
1, 64553, Note_on_c, 0, 81, 0
1, 64560, Note_on_c, 0, 82, 96
1, 65243, Note_on_c, 0, 82, 0
1, 65280, Note_on_c, 0, 82, 96
1, 65393, Note_on_c, 0, 82, 0
1, 65400, Note_on_c, 0, 81, 96
1, 65513, Note_on_c, 0, 81, 0
1, 65520, Note_on_c, 0, 79, 96
1, 65747, Note_on_c, 0, 79, 0
1, 65760, Note_on_c, 0, 79, 96
1, 65987, Note_on_c, 0, 79, 0
1, 66000, Note_on_c, 0, 79, 96
1, 66227, Note_on_c, 0, 79, 0
1, 66240, Note_on_c, 0, 77, 96
1, 66353, Note_on_c, 0, 77, 0
1, 66360, Note_on_c, 0, 79, 96
1, 66473, Note_on_c, 0, 79, 0
1, 66480, Note_on_c, 0, 81, 96
1, 67163, Note_on_c, 0, 81, 0
1, 67200, Note_on_c, 0, 81, 96
1, 67313, Note_on_c, 0, 81, 0
1, 67320, Note_on_c, 0, 82, 96
1, 67433, Note_on_c, 0, 82, 0
1, 67440, Note_on_c, 0, 84, 96
1, 67667, Note_on_c, 0, 84, 0
1, 67680, Note_on_c, 0, 84, 96
1, 67907, Note_on_c, 0, 84, 0
1, 67920, Note_on_c, 0, 84, 96
1, 68147, Note_on_c, 0, 84, 0
1, 68160, Note_on_c, 0, 84, 96
1, 68273, Note_on_c, 0, 84, 0
1, 68280, Note_on_c, 0, 82, 96
1, 68393, Note_on_c, 0, 82, 0
1, 68400, Note_on_c, 0, 81, 96
1, 68627, Note_on_c, 0, 81, 0
1, 68640, Note_on_c, 0, 81, 96
1, 68867, Note_on_c, 0, 81, 0
1, 68880, Note_on_c, 0, 81, 96
1, 69107, Note_on_c, 0, 81, 0
1, 69120, Note_on_c, 0, 81, 96
1, 69233, Note_on_c, 0, 81, 0
1, 69240, Note_on_c, 0, 82, 96
1, 69353, Note_on_c, 0, 82, 0
1, 69360, Note_on_c, 0, 84, 96
1, 69587, Note_on_c, 0, 84, 0
1, 69600, Note_on_c, 0, 84, 96
1, 69827, Note_on_c, 0, 84, 0
1, 69840, Note_on_c, 0, 84, 96
1, 70067, Note_on_c, 0, 84, 0
1, 70080, Note_on_c, 0, 84, 96
1, 70193, Note_on_c, 0, 84, 0
1, 70200, Note_on_c, 0, 82, 96
1, 70313, Note_on_c, 0, 82, 0
1, 70320, Note_on_c, 0, 81, 96
1, 70547, Note_on_c, 0, 81, 0
1, 70560, Note_on_c, 0, 81, 96
1, 70787, Note_on_c, 0, 81, 0
1, 70800, Note_on_c, 0, 81, 96
1, 71027, Note_on_c, 0, 81, 0
1, 71040, Note_on_c, 0, 81, 96
1, 71153, Note_on_c, 0, 81, 0
1, 71160, Note_on_c, 0, 82, 96
1, 71273, Note_on_c, 0, 82, 0
1, 71280, Note_on_c, 0, 84, 96
1, 71507, Note_on_c, 0, 84, 0
1, 71520, Note_on_c, 0, 84, 96
1, 71747, Note_on_c, 0, 84, 0
1, 71760, Note_on_c, 0, 84, 96
1, 71987, Note_on_c, 0, 84, 0
1, 72000, Note_on_c, 0, 82, 96
1, 72113, Note_on_c, 0, 82, 0
1, 72120, Note_on_c, 0, 81, 96
1, 72233, Note_on_c, 0, 81, 0
1, 72240, Note_on_c, 0, 79, 96
1, 72353, Note_on_c, 0, 79, 0
1, 72360, Note_on_c, 0, 72, 96
1, 72473, Note_on_c, 0, 72, 0
1, 72480, Note_on_c, 0, 74, 96
1, 72593, Note_on_c, 0, 74, 0
1, 72600, Note_on_c, 0, 72, 96
1, 72713, Note_on_c, 0, 72, 0
1, 72720, Note_on_c, 0, 76, 96
1, 72833, Note_on_c, 0, 76, 0
1, 72840, Note_on_c, 0, 74, 96
1, 72953, Note_on_c, 0, 74, 0
1, 72960, Note_on_c, 0, 77, 96
1, 73073, Note_on_c, 0, 77, 0
1, 73080, Note_on_c, 0, 76, 96
1, 73193, Note_on_c, 0, 76, 0
1, 73200, Note_on_c, 0, 79, 96
1, 73313, Note_on_c, 0, 79, 0
1, 73320, Note_on_c, 0, 77, 96
1, 73433, Note_on_c, 0, 77, 0
1, 73440, Note_on_c, 0, 81, 96
1, 73553, Note_on_c, 0, 81, 0
1, 73560, Note_on_c, 0, 79, 96
1, 73673, Note_on_c, 0, 79, 0
1, 73680, Note_on_c, 0, 82, 96
1, 73793, Note_on_c, 0, 82, 0
1, 73800, Note_on_c, 0, 81, 96
1, 73913, Note_on_c, 0, 81, 0
1, 73920, Note_on_c, 0, 84, 96
1, 74033, Note_on_c, 0, 84, 0
1, 74040, Note_on_c, 0, 82, 96
1, 74153, Note_on_c, 0, 82, 0
1, 76080, Note_on_c, 0, 81, 96
1, 76193, Note_on_c, 0, 81, 0
1, 76200, Note_on_c, 0, 77, 96
1, 76313, Note_on_c, 0, 77, 0
1, 76320, Note_on_c, 0, 79, 96
1, 76433, Note_on_c, 0, 79, 0
1, 76440, Note_on_c, 0, 77, 96
1, 76553, Note_on_c, 0, 77, 0
1, 76560, Note_on_c, 0, 81, 96
1, 76673, Note_on_c, 0, 81, 0
1, 76680, Note_on_c, 0, 77, 96
1, 76793, Note_on_c, 0, 77, 0
1, 76800, Note_on_c, 0, 79, 96
1, 76913, Note_on_c, 0, 79, 0
1, 76920, Note_on_c, 0, 77, 96
1, 77033, Note_on_c, 0, 77, 0
1, 77040, Note_on_c, 0, 82, 96
1, 77153, Note_on_c, 0, 82, 0
1, 77160, Note_on_c, 0, 77, 96
1, 77273, Note_on_c, 0, 77, 0
1, 77280, Note_on_c, 0, 79, 96
1, 77393, Note_on_c, 0, 79, 0
1, 77400, Note_on_c, 0, 77, 96
1, 77513, Note_on_c, 0, 77, 0
1, 77520, Note_on_c, 0, 82, 96
1, 77633, Note_on_c, 0, 82, 0
1, 77640, Note_on_c, 0, 77, 96
1, 77753, Note_on_c, 0, 77, 0
1, 77760, Note_on_c, 0, 79, 96
1, 77873, Note_on_c, 0, 79, 0
1, 77880, Note_on_c, 0, 77, 96
1, 77993, Note_on_c, 0, 77, 0
1, 78000, Note_on_c, 0, 84, 96
1, 78113, Note_on_c, 0, 84, 0
1, 78120, Note_on_c, 0, 77, 96
1, 78233, Note_on_c, 0, 77, 0
1, 78240, Note_on_c, 0, 79, 96
1, 78353, Note_on_c, 0, 79, 0
1, 78360, Note_on_c, 0, 77, 96
1, 78473, Note_on_c, 0, 77, 0
1, 78480, Note_on_c, 0, 84, 96
1, 78593, Note_on_c, 0, 84, 0
1, 78600, Note_on_c, 0, 77, 96
1, 78713, Note_on_c, 0, 77, 0
1, 78720, Note_on_c, 0, 79, 96
1, 78833, Note_on_c, 0, 79, 0
1, 78840, Note_on_c, 0, 77, 96
1, 78953, Note_on_c, 0, 77, 0
1, 78960, Note_on_c, 0, 86, 96
1, 79187, Note_on_c, 0, 86, 0
1, 79200, Note_on_c, 0, 88, 96
1, 79427, Note_on_c, 0, 88, 0
1, 79440, Note_on_c, 0, 89, 96
1, 79895, Note_on_c, 0, 89, 0
1, 79920, Note_on_c, 0, 89, 96
1, 80033, Note_on_c, 0, 89, 0
1, 80040, Note_on_c, 0, 84, 96
1, 80153, Note_on_c, 0, 84, 0
1, 80160, Note_on_c, 0, 89, 96
1, 80273, Note_on_c, 0, 89, 0
1, 80280, Note_on_c, 0, 84, 96
1, 80393, Note_on_c, 0, 84, 0
1, 80400, Note_on_c, 0, 86, 96
1, 80513, Note_on_c, 0, 86, 0
1, 80520, Note_on_c, 0, 84, 96
1, 80633, Note_on_c, 0, 84, 0
1, 80640, Note_on_c, 0, 89, 96
1, 80753, Note_on_c, 0, 89, 0
1, 80760, Note_on_c, 0, 84, 96
1, 80873, Note_on_c, 0, 84, 0
1, 80880, Note_on_c, 0, 86, 96
1, 80993, Note_on_c, 0, 86, 0
1, 81000, Note_on_c, 0, 84, 96
1, 81113, Note_on_c, 0, 84, 0
1, 81120, Note_on_c, 0, 89, 96
1, 81233, Note_on_c, 0, 89, 0
1, 81240, Note_on_c, 0, 84, 96
1, 81353, Note_on_c, 0, 84, 0
1, 81360, Note_on_c, 0, 86, 96
1, 81473, Note_on_c, 0, 86, 0
1, 81480, Note_on_c, 0, 84, 96
1, 81593, Note_on_c, 0, 84, 0
1, 81600, Note_on_c, 0, 89, 96
1, 81713, Note_on_c, 0, 89, 0
1, 81720, Note_on_c, 0, 84, 96
1, 81833, Note_on_c, 0, 84, 0
1, 81840, Note_on_c, 0, 89, 96
1, 82067, Note_on_c, 0, 89, 0
1, 82080, Note_on_c, 0, 77, 96
1, 82307, Note_on_c, 0, 77, 0
1, 82320, Note_on_c, 0, 79, 96
1, 82775, Note_on_c, 0, 79, 0
1, 82800, Note_on_c, 0, 84, 112
1, 83027, Note_on_c, 0, 84, 0
1, 83040, Note_on_c, 0, 82, 112
1, 83153, Note_on_c, 0, 82, 0
1, 83160, Note_on_c, 0, 81, 112
1, 83273, Note_on_c, 0, 81, 0
1, 83280, Note_on_c, 0, 82, 112
1, 83507, Note_on_c, 0, 82, 0
1, 83520, Note_on_c, 0, 84, 112
1, 83747, Note_on_c, 0, 84, 0
1, 83760, Note_on_c, 0, 86, 112
1, 83987, Note_on_c, 0, 86, 0
1, 84000, Note_on_c, 0, 84, 112
1, 84455, Note_on_c, 0, 84, 0
1, 84480, Note_on_c, 0, 77, 112
1, 84707, Note_on_c, 0, 77, 0
1, 84720, Note_on_c, 0, 84, 112
1, 84947, Note_on_c, 0, 84, 0
1, 84960, Note_on_c, 0, 82, 112
1, 85073, Note_on_c, 0, 82, 0
1, 85080, Note_on_c, 0, 81, 112
1, 85193, Note_on_c, 0, 81, 0
1, 85200, Note_on_c, 0, 82, 112
1, 85427, Note_on_c, 0, 82, 0
1, 85440, Note_on_c, 0, 84, 112
1, 85667, Note_on_c, 0, 84, 0
1, 85680, Note_on_c, 0, 86, 112
1, 85907, Note_on_c, 0, 86, 0
1, 85920, Note_on_c, 0, 84, 112
1, 86375, Note_on_c, 0, 84, 0
1, 86400, Note_on_c, 0, 77, 112
1, 86627, Note_on_c, 0, 77, 0
1, 86640, Note_on_c, 0, 86, 112
1, 86867, Note_on_c, 0, 86, 0
1, 86880, Note_on_c, 0, 84, 112
1, 87335, Note_on_c, 0, 84, 0
1, 87360, Note_on_c, 0, 82, 112
1, 87587, Note_on_c, 0, 82, 0
1, 87600, Note_on_c, 0, 81, 112
1, 87827, Note_on_c, 0, 81, 0
1, 87840, Note_on_c, 0, 79, 112
1, 87953, Note_on_c, 0, 79, 0
1, 87960, Note_on_c, 0, 77, 112
1, 88073, Note_on_c, 0, 77, 0
1, 88080, Note_on_c, 0, 79, 112
1, 88535, Note_on_c, 0, 79, 0
1, 88560, Note_on_c, 0, 77, 112
1, 89243, Note_on_c, 0, 77, 0
1, 89280, Note_on_c, 0, 77, 112
1, 89507, Note_on_c, 0, 77, 0
1, 89520, Note_on_c, 0, 84, 112
1, 89747, Note_on_c, 0, 84, 0
1, 89760, Note_on_c, 0, 82, 112
1, 89873, Note_on_c, 0, 82, 0
1, 89880, Note_on_c, 0, 81, 112
1, 89993, Note_on_c, 0, 81, 0
1, 90000, Note_on_c, 0, 82, 112
1, 90227, Note_on_c, 0, 82, 0
1, 90240, Note_on_c, 0, 84, 112
1, 90467, Note_on_c, 0, 84, 0
1, 90480, Note_on_c, 0, 86, 112
1, 90707, Note_on_c, 0, 86, 0
1, 90720, Note_on_c, 0, 84, 112
1, 91175, Note_on_c, 0, 84, 0
1, 91200, Note_on_c, 0, 77, 112
1, 91427, Note_on_c, 0, 77, 0
1, 91440, Note_on_c, 0, 84, 112
1, 91667, Note_on_c, 0, 84, 0
1, 91680, Note_on_c, 0, 82, 112
1, 91793, Note_on_c, 0, 82, 0
1, 91800, Note_on_c, 0, 81, 112
1, 91913, Note_on_c, 0, 81, 0
1, 91920, Note_on_c, 0, 82, 112
1, 92147, Note_on_c, 0, 82, 0
1, 92160, Note_on_c, 0, 84, 112
1, 92387, Note_on_c, 0, 84, 0
1, 92400, Note_on_c, 0, 86, 112
1, 92627, Note_on_c, 0, 86, 0
1, 92640, Note_on_c, 0, 84, 112
1, 93095, Note_on_c, 0, 84, 0
1, 93120, Note_on_c, 0, 77, 112
1, 93347, Note_on_c, 0, 77, 0
1, 93360, Note_on_c, 0, 86, 112
1, 93587, Note_on_c, 0, 86, 0
1, 93600, Note_on_c, 0, 84, 112
1, 94055, Note_on_c, 0, 84, 0
1, 94080, Note_on_c, 0, 82, 112
1, 94307, Note_on_c, 0, 82, 0
1, 94320, Note_on_c, 0, 81, 112
1, 94547, Note_on_c, 0, 81, 0
1, 94560, Note_on_c, 0, 79, 112
1, 94673, Note_on_c, 0, 79, 0
1, 94680, Note_on_c, 0, 77, 112
1, 94793, Note_on_c, 0, 77, 0
1, 94800, Note_on_c, 0, 79, 112
1, 95255, Note_on_c, 0, 79, 0
1, 95280, Note_on_c, 0, 77, 112
1, 96191, Note_on_c, 0, 77, 0
1, 96192, End_track
2, 0, Start_track
2, 0, Key_signature, 1, "major"
2, 0, Control_c, 1, 121, 0
2, 0, Program_c, 1, 71
2, 0, Control_c, 1, 7, 100
2, 0, Control_c, 1, 10, 64
2, 0, Control_c, 1, 91, 0
2, 0, Control_c, 1, 93, 0
2, 0, MIDI_port, 0
2, 0, Note_on_c, 1, 72, 96
2, 239, Note_on_c, 1, 72, 0
2, 240, Note_on_c, 1, 77, 96
2, 479, Note_on_c, 1, 77, 0
2, 480, Note_on_c, 1, 77, 96
2, 719, Note_on_c, 1, 77, 0
2, 720, Note_on_c, 1, 77, 96
2, 959, Note_on_c, 1, 77, 0
2, 960, Note_on_c, 1, 77, 96
2, 1199, Note_on_c, 1, 77, 0
2, 1200, Note_on_c, 1, 81, 96
2, 1919, Note_on_c, 1, 81, 0
2, 1920, Note_on_c, 1, 81, 96
2, 2039, Note_on_c, 1, 81, 0
2, 2040, Note_on_c, 1, 79, 96
2, 2159, Note_on_c, 1, 79, 0
2, 2160, Note_on_c, 1, 77, 96
2, 2399, Note_on_c, 1, 77, 0
2, 2400, Note_on_c, 1, 77, 96
2, 2639, Note_on_c, 1, 77, 0
2, 2640, Note_on_c, 1, 77, 96
2, 2879, Note_on_c, 1, 77, 0
2, 2880, Note_on_c, 1, 77, 96
2, 3119, Note_on_c, 1, 77, 0
2, 3120, Note_on_c, 1, 81, 96
2, 3839, Note_on_c, 1, 81, 0
2, 3840, Note_on_c, 1, 81, 96
2, 3959, Note_on_c, 1, 81, 0
2, 3960, Note_on_c, 1, 79, 96
2, 4079, Note_on_c, 1, 79, 0
2, 4080, Note_on_c, 1, 77, 96
2, 4319, Note_on_c, 1, 77, 0
2, 4320, Note_on_c, 1, 79, 96
2, 4439, Note_on_c, 1, 79, 0
2, 4440, Note_on_c, 1, 81, 96
2, 4559, Note_on_c, 1, 81, 0
2, 4560, Note_on_c, 1, 79, 96
2, 4799, Note_on_c, 1, 79, 0
2, 4800, Note_on_c, 1, 77, 96
2, 5039, Note_on_c, 1, 77, 0
2, 5040, Note_on_c, 1, 76, 96
2, 5759, Note_on_c, 1, 76, 0
2, 5760, Note_on_c, 1, 72, 49
2, 5999, Note_on_c, 1, 72, 0
2, 6000, Note_on_c, 1, 65, 49
2, 6479, Note_on_c, 1, 65, 0
2, 6480, Note_on_c, 1, 65, 49
2, 6959, Note_on_c, 1, 65, 0
2, 6960, Note_on_c, 1, 65, 49
2, 7439, Note_on_c, 1, 65, 0
2, 7440, Note_on_c, 1, 65, 49
2, 7919, Note_on_c, 1, 65, 0
2, 7920, Note_on_c, 1, 65, 49
2, 8399, Note_on_c, 1, 65, 0
2, 8400, Note_on_c, 1, 65, 49
2, 8879, Note_on_c, 1, 65, 0
2, 8880, Note_on_c, 1, 65, 49
2, 9359, Note_on_c, 1, 65, 0
2, 9360, Note_on_c, 1, 65, 49
2, 9839, Note_on_c, 1, 65, 0
2, 9840, Note_on_c, 1, 65, 49
2, 10079, Note_on_c, 1, 65, 0
2, 10080, Note_on_c, 1, 65, 49
2, 10319, Note_on_c, 1, 65, 0
2, 10320, Note_on_c, 1, 70, 49
2, 10559, Note_on_c, 1, 70, 0
2, 10560, Note_on_c, 1, 71, 49
2, 10799, Note_on_c, 1, 71, 0
2, 10800, Note_on_c, 1, 72, 49
2, 11519, Note_on_c, 1, 72, 0
2, 11520, Note_on_c, 1, 65, 96
2, 11759, Note_on_c, 1, 65, 0
2, 11760, Note_on_c, 1, 81, 96
2, 11999, Note_on_c, 1, 81, 0
2, 12000, Note_on_c, 1, 79, 96
2, 12119, Note_on_c, 1, 79, 0
2, 12120, Note_on_c, 1, 77, 96
2, 12239, Note_on_c, 1, 77, 0
2, 12240, Note_on_c, 1, 79, 96
2, 12479, Note_on_c, 1, 79, 0
2, 12480, Note_on_c, 1, 81, 96
2, 12719, Note_on_c, 1, 81, 0
2, 12720, Note_on_c, 1, 82, 96
2, 12959, Note_on_c, 1, 82, 0
2, 12960, Note_on_c, 1, 81, 96
2, 13439, Note_on_c, 1, 81, 0
2, 13440, Note_on_c, 1, 81, 96
2, 13679, Note_on_c, 1, 81, 0
2, 13680, Note_on_c, 1, 81, 96
2, 13919, Note_on_c, 1, 81, 0
2, 13920, Note_on_c, 1, 79, 96
2, 14039, Note_on_c, 1, 79, 0
2, 14040, Note_on_c, 1, 77, 96
2, 14159, Note_on_c, 1, 77, 0
2, 14160, Note_on_c, 1, 79, 96
2, 14399, Note_on_c, 1, 79, 0
2, 14400, Note_on_c, 1, 81, 96
2, 14639, Note_on_c, 1, 81, 0
2, 14640, Note_on_c, 1, 82, 96
2, 14879, Note_on_c, 1, 82, 0
2, 14880, Note_on_c, 1, 81, 96
2, 15359, Note_on_c, 1, 81, 0
2, 15360, Note_on_c, 1, 81, 96
2, 15599, Note_on_c, 1, 81, 0
2, 15600, Note_on_c, 1, 82, 96
2, 15839, Note_on_c, 1, 82, 0
2, 15840, Note_on_c, 1, 81, 96
2, 16319, Note_on_c, 1, 81, 0
2, 16320, Note_on_c, 1, 79, 96
2, 16559, Note_on_c, 1, 79, 0
2, 16560, Note_on_c, 1, 77, 96
2, 17039, Note_on_c, 1, 77, 0
2, 17040, Note_on_c, 1, 76, 96
2, 17519, Note_on_c, 1, 76, 0
2, 17520, Note_on_c, 1, 77, 96
2, 17999, Note_on_c, 1, 77, 0
2, 18240, Note_on_c, 1, 65, 49
2, 18479, Note_on_c, 1, 65, 0
2, 18480, Note_on_c, 1, 65, 49
2, 18959, Note_on_c, 1, 65, 0
2, 18960, Note_on_c, 1, 65, 49
2, 19439, Note_on_c, 1, 65, 0
2, 19440, Note_on_c, 1, 65, 49
2, 19919, Note_on_c, 1, 65, 0
2, 19920, Note_on_c, 1, 65, 49
2, 20399, Note_on_c, 1, 65, 0
2, 20400, Note_on_c, 1, 65, 49
2, 20879, Note_on_c, 1, 65, 0
2, 20880, Note_on_c, 1, 65, 49
2, 21359, Note_on_c, 1, 65, 0
2, 21360, Note_on_c, 1, 65, 49
2, 21839, Note_on_c, 1, 65, 0
2, 21840, Note_on_c, 1, 65, 49
2, 22319, Note_on_c, 1, 65, 0
2, 22320, Note_on_c, 1, 65, 49
2, 22799, Note_on_c, 1, 65, 0
2, 22800, Note_on_c, 1, 65, 49
2, 23039, Note_on_c, 1, 65, 0
2, 23280, Note_on_c, 1, 65, 49
2, 23759, Note_on_c, 1, 65, 0
2, 23760, Note_on_c, 1, 65, 49
2, 23999, Note_on_c, 1, 65, 0
2, 24000, Note_on_c, 1, 60, 49
2, 24239, Note_on_c, 1, 60, 0
2, 24240, Note_on_c, 1, 65, 49
2, 24479, Note_on_c, 1, 65, 0
2, 24480, Note_on_c, 1, 65, 49
2, 24719, Note_on_c, 1, 65, 0
2, 24720, Note_on_c, 1, 72, 49
2, 24959, Note_on_c, 1, 72, 0
2, 24960, Note_on_c, 1, 60, 49
2, 25199, Note_on_c, 1, 60, 0
2, 25920, Note_on_c, 1, 69, 49
2, 26039, Note_on_c, 1, 69, 0
2, 26040, Note_on_c, 1, 67, 49
2, 26159, Note_on_c, 1, 67, 0
2, 26160, Note_on_c, 1, 65, 49
2, 26279, Note_on_c, 1, 65, 0
2, 26280, Note_on_c, 1, 67, 49
2, 26399, Note_on_c, 1, 67, 0
2, 26400, Note_on_c, 1, 65, 49
2, 26519, Note_on_c, 1, 65, 0
2, 26520, Note_on_c, 1, 67, 49
2, 26639, Note_on_c, 1, 67, 0
2, 26640, Note_on_c, 1, 69, 49
2, 26759, Note_on_c, 1, 69, 0
2, 26760, Note_on_c, 1, 67, 49
2, 26879, Note_on_c, 1, 67, 0
2, 26880, Note_on_c, 1, 69, 49
2, 26999, Note_on_c, 1, 69, 0
2, 27000, Note_on_c, 1, 67, 49
2, 27119, Note_on_c, 1, 67, 0
2, 27120, Note_on_c, 1, 65, 49
2, 27359, Note_on_c, 1, 65, 0
2, 27360, Note_on_c, 1, 65, 49
2, 27479, Note_on_c, 1, 65, 0
2, 27480, Note_on_c, 1, 67, 49
2, 27599, Note_on_c, 1, 67, 0
2, 27600, Note_on_c, 1, 69, 49
2, 27719, Note_on_c, 1, 69, 0
2, 27720, Note_on_c, 1, 67, 49
2, 27839, Note_on_c, 1, 67, 0
2, 27840, Note_on_c, 1, 69, 49
2, 27959, Note_on_c, 1, 69, 0
2, 27960, Note_on_c, 1, 67, 49
2, 28079, Note_on_c, 1, 67, 0
2, 28080, Note_on_c, 1, 65, 49
2, 28199, Note_on_c, 1, 65, 0
2, 28200, Note_on_c, 1, 67, 49
2, 28319, Note_on_c, 1, 67, 0
2, 28320, Note_on_c, 1, 65, 49
2, 28439, Note_on_c, 1, 65, 0
2, 28440, Note_on_c, 1, 67, 49
2, 28559, Note_on_c, 1, 67, 0
2, 28560, Note_on_c, 1, 69, 49
2, 28679, Note_on_c, 1, 69, 0
2, 28680, Note_on_c, 1, 70, 49
2, 28799, Note_on_c, 1, 70, 0
2, 28800, Note_on_c, 1, 69, 49
2, 28919, Note_on_c, 1, 69, 0
2, 28920, Note_on_c, 1, 70, 49
2, 29039, Note_on_c, 1, 70, 0
2, 29040, Note_on_c, 1, 72, 49
2, 29279, Note_on_c, 1, 72, 0
2, 29280, Note_on_c, 1, 72, 49
2, 29399, Note_on_c, 1, 72, 0
2, 29400, Note_on_c, 1, 74, 49
2, 29519, Note_on_c, 1, 74, 0
2, 29520, Note_on_c, 1, 76, 49
2, 29639, Note_on_c, 1, 76, 0
2, 29640, Note_on_c, 1, 74, 49
2, 29759, Note_on_c, 1, 74, 0
2, 29760, Note_on_c, 1, 76, 49
2, 29879, Note_on_c, 1, 76, 0
2, 29880, Note_on_c, 1, 74, 49
2, 29999, Note_on_c, 1, 74, 0
2, 30000, Note_on_c, 1, 72, 49
2, 30119, Note_on_c, 1, 72, 0
2, 30120, Note_on_c, 1, 74, 49
2, 30239, Note_on_c, 1, 74, 0
2, 30240, Note_on_c, 1, 72, 49
2, 30359, Note_on_c, 1, 72, 0
2, 30360, Note_on_c, 1, 74, 49
2, 30479, Note_on_c, 1, 74, 0
2, 30480, Note_on_c, 1, 76, 49
2, 30599, Note_on_c, 1, 76, 0
2, 30600, Note_on_c, 1, 74, 49
2, 30719, Note_on_c, 1, 74, 0
2, 30720, Note_on_c, 1, 76, 49
2, 30839, Note_on_c, 1, 76, 0
2, 30840, Note_on_c, 1, 74, 49
2, 30959, Note_on_c, 1, 74, 0
2, 30960, Note_on_c, 1, 72, 49
2, 31199, Note_on_c, 1, 72, 0
2, 31200, Note_on_c, 1, 72, 49
2, 31319, Note_on_c, 1, 72, 0
2, 31320, Note_on_c, 1, 74, 49
2, 31439, Note_on_c, 1, 74, 0
2, 31440, Note_on_c, 1, 76, 49
2, 31559, Note_on_c, 1, 76, 0
2, 31560, Note_on_c, 1, 77, 49
2, 31679, Note_on_c, 1, 77, 0
2, 31680, Note_on_c, 1, 76, 49
2, 31799, Note_on_c, 1, 76, 0
2, 31800, Note_on_c, 1, 77, 49
2, 31919, Note_on_c, 1, 77, 0
2, 31920, Note_on_c, 1, 79, 49
2, 32039, Note_on_c, 1, 79, 0
2, 32040, Note_on_c, 1, 77, 49
2, 32159, Note_on_c, 1, 77, 0
2, 32160, Note_on_c, 1, 79, 49
2, 32279, Note_on_c, 1, 79, 0
2, 32280, Note_on_c, 1, 77, 49
2, 32399, Note_on_c, 1, 77, 0
2, 32400, Note_on_c, 1, 76, 49
2, 32519, Note_on_c, 1, 76, 0
2, 32520, Note_on_c, 1, 79, 49
2, 32639, Note_on_c, 1, 79, 0
2, 32640, Note_on_c, 1, 77, 49
2, 32759, Note_on_c, 1, 77, 0
2, 32760, Note_on_c, 1, 76, 49
2, 32879, Note_on_c, 1, 76, 0
2, 32880, Note_on_c, 1, 77, 49
2, 33119, Note_on_c, 1, 77, 0
2, 33120, Note_on_c, 1, 76, 49
2, 33239, Note_on_c, 1, 76, 0
2, 33240, Note_on_c, 1, 74, 49
2, 33359, Note_on_c, 1, 74, 0
2, 33360, Note_on_c, 1, 72, 49
2, 33479, Note_on_c, 1, 72, 0
2, 33480, Note_on_c, 1, 70, 49
2, 33599, Note_on_c, 1, 70, 0
2, 33600, Note_on_c, 1, 69, 49
2, 33719, Note_on_c, 1, 69, 0
2, 33720, Note_on_c, 1, 67, 49
2, 33839, Note_on_c, 1, 67, 0
2, 33840, Note_on_c, 1, 65, 49
2, 33959, Note_on_c, 1, 65, 0
2, 33960, Note_on_c, 1, 67, 49
2, 34079, Note_on_c, 1, 67, 0
2, 34080, Note_on_c, 1, 65, 49
2, 34199, Note_on_c, 1, 65, 0
2, 34200, Note_on_c, 1, 67, 49
2, 34319, Note_on_c, 1, 67, 0
2, 34320, Note_on_c, 1, 69, 49
2, 34439, Note_on_c, 1, 69, 0
2, 34440, Note_on_c, 1, 67, 49
2, 34559, Note_on_c, 1, 67, 0
2, 34560, Note_on_c, 1, 69, 49
2, 34679, Note_on_c, 1, 69, 0
2, 34680, Note_on_c, 1, 67, 49
2, 34799, Note_on_c, 1, 67, 0
2, 34800, Note_on_c, 1, 65, 49
2, 35039, Note_on_c, 1, 65, 0
2, 35040, Note_on_c, 1, 65, 49
2, 35159, Note_on_c, 1, 65, 0
2, 35160, Note_on_c, 1, 67, 49
2, 35279, Note_on_c, 1, 67, 0
2, 35280, Note_on_c, 1, 69, 49
2, 35399, Note_on_c, 1, 69, 0
2, 35400, Note_on_c, 1, 67, 49
2, 35519, Note_on_c, 1, 67, 0
2, 35520, Note_on_c, 1, 69, 49
2, 35639, Note_on_c, 1, 69, 0
2, 35640, Note_on_c, 1, 67, 49
2, 35759, Note_on_c, 1, 67, 0
2, 35760, Note_on_c, 1, 65, 49
2, 35879, Note_on_c, 1, 65, 0
2, 35880, Note_on_c, 1, 67, 49
2, 35999, Note_on_c, 1, 67, 0
2, 36000, Note_on_c, 1, 65, 49
2, 36119, Note_on_c, 1, 65, 0
2, 36120, Note_on_c, 1, 67, 49
2, 36239, Note_on_c, 1, 67, 0
2, 36240, Note_on_c, 1, 69, 49
2, 36359, Note_on_c, 1, 69, 0
2, 36360, Note_on_c, 1, 67, 49
2, 36479, Note_on_c, 1, 67, 0
2, 36480, Note_on_c, 1, 69, 49
2, 36599, Note_on_c, 1, 69, 0
2, 36600, Note_on_c, 1, 67, 49
2, 36719, Note_on_c, 1, 67, 0
2, 36720, Note_on_c, 1, 77, 49
2, 36839, Note_on_c, 1, 77, 0
2, 36840, Note_on_c, 1, 72, 49
2, 36959, Note_on_c, 1, 72, 0
2, 36960, Note_on_c, 1, 77, 49
2, 37079, Note_on_c, 1, 77, 0
2, 37080, Note_on_c, 1, 72, 49
2, 37199, Note_on_c, 1, 72, 0
2, 37200, Note_on_c, 1, 77, 49
2, 37319, Note_on_c, 1, 77, 0
2, 37320, Note_on_c, 1, 72, 49
2, 37439, Note_on_c, 1, 72, 0
2, 37440, Note_on_c, 1, 77, 49
2, 37559, Note_on_c, 1, 77, 0
2, 37560, Note_on_c, 1, 72, 49
2, 37679, Note_on_c, 1, 72, 0
2, 37680, Note_on_c, 1, 76, 49
2, 37799, Note_on_c, 1, 76, 0
2, 37800, Note_on_c, 1, 72, 49
2, 37919, Note_on_c, 1, 72, 0
2, 37920, Note_on_c, 1, 76, 49
2, 38039, Note_on_c, 1, 76, 0
2, 38040, Note_on_c, 1, 72, 49
2, 38159, Note_on_c, 1, 72, 0
2, 38160, Note_on_c, 1, 76, 49
2, 38279, Note_on_c, 1, 76, 0
2, 38280, Note_on_c, 1, 72, 49
2, 38399, Note_on_c, 1, 72, 0
2, 38400, Note_on_c, 1, 76, 49
2, 38519, Note_on_c, 1, 76, 0
2, 38520, Note_on_c, 1, 72, 49
2, 38639, Note_on_c, 1, 72, 0
2, 38640, Note_on_c, 1, 77, 49
2, 38759, Note_on_c, 1, 77, 0
2, 38760, Note_on_c, 1, 72, 49
2, 38879, Note_on_c, 1, 72, 0
2, 38880, Note_on_c, 1, 77, 49
2, 38999, Note_on_c, 1, 77, 0
2, 39000, Note_on_c, 1, 72, 49
2, 39119, Note_on_c, 1, 72, 0
2, 39120, Note_on_c, 1, 77, 49
2, 39239, Note_on_c, 1, 77, 0
2, 39240, Note_on_c, 1, 72, 49
2, 39359, Note_on_c, 1, 72, 0
2, 39360, Note_on_c, 1, 77, 49
2, 39479, Note_on_c, 1, 77, 0
2, 39480, Note_on_c, 1, 72, 49
2, 39599, Note_on_c, 1, 72, 0
2, 39600, Note_on_c, 1, 79, 49
2, 39719, Note_on_c, 1, 79, 0
2, 39720, Note_on_c, 1, 72, 49
2, 39839, Note_on_c, 1, 72, 0
2, 39840, Note_on_c, 1, 79, 49
2, 39959, Note_on_c, 1, 79, 0
2, 39960, Note_on_c, 1, 72, 49
2, 40079, Note_on_c, 1, 72, 0
2, 40080, Note_on_c, 1, 79, 49
2, 40199, Note_on_c, 1, 79, 0
2, 40200, Note_on_c, 1, 72, 49
2, 40319, Note_on_c, 1, 72, 0
2, 40320, Note_on_c, 1, 79, 49
2, 40439, Note_on_c, 1, 79, 0
2, 40440, Note_on_c, 1, 72, 49
2, 40559, Note_on_c, 1, 72, 0
2, 40560, Note_on_c, 1, 77, 49
2, 40679, Note_on_c, 1, 77, 0
2, 40680, Note_on_c, 1, 72, 49
2, 40799, Note_on_c, 1, 72, 0
2, 40800, Note_on_c, 1, 77, 49
2, 40919, Note_on_c, 1, 77, 0
2, 40920, Note_on_c, 1, 72, 49
2, 41039, Note_on_c, 1, 72, 0
2, 41040, Note_on_c, 1, 77, 49
2, 41159, Note_on_c, 1, 77, 0
2, 41160, Note_on_c, 1, 72, 49
2, 41279, Note_on_c, 1, 72, 0
2, 41280, Note_on_c, 1, 77, 49
2, 41399, Note_on_c, 1, 77, 0
2, 41400, Note_on_c, 1, 72, 49
2, 41519, Note_on_c, 1, 72, 0
2, 41520, Note_on_c, 1, 76, 49
2, 41639, Note_on_c, 1, 76, 0
2, 41640, Note_on_c, 1, 72, 49
2, 41759, Note_on_c, 1, 72, 0
2, 41760, Note_on_c, 1, 76, 49
2, 41879, Note_on_c, 1, 76, 0
2, 41880, Note_on_c, 1, 72, 49
2, 41999, Note_on_c, 1, 72, 0
2, 42000, Note_on_c, 1, 76, 49
2, 42119, Note_on_c, 1, 76, 0
2, 42120, Note_on_c, 1, 72, 49
2, 42239, Note_on_c, 1, 72, 0
2, 42240, Note_on_c, 1, 76, 49
2, 42359, Note_on_c, 1, 76, 0
2, 42360, Note_on_c, 1, 72, 49
2, 42479, Note_on_c, 1, 72, 0
2, 42480, Note_on_c, 1, 77, 49
2, 42599, Note_on_c, 1, 77, 0
2, 42600, Note_on_c, 1, 72, 49
2, 42719, Note_on_c, 1, 72, 0
2, 42720, Note_on_c, 1, 77, 49
2, 42839, Note_on_c, 1, 77, 0
2, 42840, Note_on_c, 1, 72, 49
2, 42959, Note_on_c, 1, 72, 0
2, 42960, Note_on_c, 1, 77, 49
2, 43079, Note_on_c, 1, 77, 0
2, 43080, Note_on_c, 1, 72, 49
2, 43199, Note_on_c, 1, 72, 0
2, 43200, Note_on_c, 1, 77, 49
2, 43319, Note_on_c, 1, 77, 0
2, 43320, Note_on_c, 1, 72, 49
2, 43439, Note_on_c, 1, 72, 0
2, 43440, Note_on_c, 1, 76, 49
2, 44159, Note_on_c, 1, 76, 0
2, 44160, Note_on_c, 1, 76, 96
2, 44399, Note_on_c, 1, 76, 0
2, 44400, Note_on_c, 1, 72, 96
2, 44879, Note_on_c, 1, 72, 0
2, 44880, Note_on_c, 1, 72, 96
2, 45359, Note_on_c, 1, 72, 0
2, 45360, Note_on_c, 1, 72, 96
2, 45839, Note_on_c, 1, 72, 0
2, 45840, Note_on_c, 1, 72, 96
2, 46319, Note_on_c, 1, 72, 0
2, 46320, Note_on_c, 1, 72, 96
2, 46799, Note_on_c, 1, 72, 0
2, 46800, Note_on_c, 1, 72, 96
2, 47279, Note_on_c, 1, 72, 0
2, 47280, Note_on_c, 1, 72, 96
2, 47759, Note_on_c, 1, 72, 0
2, 47760, Note_on_c, 1, 72, 96
2, 48239, Note_on_c, 1, 72, 0
2, 48240, Note_on_c, 1, 72, 96
2, 48719, Note_on_c, 1, 72, 0
2, 48720, Note_on_c, 1, 72, 96
2, 48959, Note_on_c, 1, 72, 0
2, 48960, Note_on_c, 1, 79, 96
2, 49199, Note_on_c, 1, 79, 0
2, 49200, Note_on_c, 1, 84, 96
2, 49439, Note_on_c, 1, 84, 0
2, 49440, Note_on_c, 1, 72, 96
2, 49679, Note_on_c, 1, 72, 0
2, 49680, Note_on_c, 1, 67, 96
2, 49919, Note_on_c, 1, 67, 0
2, 49920, Note_on_c, 1, 67, 96
2, 50159, Note_on_c, 1, 67, 0
2, 50160, Note_on_c, 1, 72, 96
2, 50639, Note_on_c, 1, 72, 0
2, 50640, Note_on_c, 1, 72, 96
2, 51119, Note_on_c, 1, 72, 0
2, 51120, Note_on_c, 1, 69, 96
2, 51599, Note_on_c, 1, 69, 0
2, 51600, Note_on_c, 1, 69, 96
2, 52079, Note_on_c, 1, 69, 0
2, 52080, Note_on_c, 1, 74, 49
2, 52559, Note_on_c, 1, 74, 0
2, 56160, Note_on_c, 1, 74, 49
2, 56399, Note_on_c, 1, 74, 0
2, 56400, Note_on_c, 1, 74, 49
2, 56639, Note_on_c, 1, 74, 0
2, 56640, Note_on_c, 1, 74, 49
2, 56879, Note_on_c, 1, 74, 0
2, 56880, Note_on_c, 1, 74, 49
2, 57119, Note_on_c, 1, 74, 0
2, 57120, Note_on_c, 1, 74, 49
2, 57359, Note_on_c, 1, 74, 0
2, 57360, Note_on_c, 1, 74, 49
2, 57599, Note_on_c, 1, 74, 0
2, 57600, Note_on_c, 1, 76, 49
2, 57839, Note_on_c, 1, 76, 0
2, 57840, Note_on_c, 1, 77, 49
2, 58079, Note_on_c, 1, 77, 0
2, 58080, Note_on_c, 1, 77, 49
2, 58319, Note_on_c, 1, 77, 0
2, 58320, Note_on_c, 1, 78, 49
2, 58559, Note_on_c, 1, 78, 0
2, 58560, Note_on_c, 1, 78, 49
2, 58799, Note_on_c, 1, 78, 0
2, 58800, Note_on_c, 1, 79, 49
2, 59039, Note_on_c, 1, 79, 0
2, 59040, Note_on_c, 1, 79, 49
2, 59279, Note_on_c, 1, 79, 0
2, 59280, Note_on_c, 1, 80, 49
2, 59519, Note_on_c, 1, 80, 0
2, 59520, Note_on_c, 1, 80, 49
2, 59759, Note_on_c, 1, 80, 0
2, 59760, Note_on_c, 1, 81, 49
2, 60239, Note_on_c, 1, 81, 0
2, 60240, Note_on_c, 1, 81, 49
2, 60359, Note_on_c, 1, 81, 0
2, 60360, Note_on_c, 1, 82, 49
2, 60479, Note_on_c, 1, 82, 0
2, 60480, Note_on_c, 1, 81, 49
2, 60599, Note_on_c, 1, 81, 0
2, 60600, Note_on_c, 1, 82, 49
2, 60719, Note_on_c, 1, 82, 0
2, 60720, Note_on_c, 1, 81, 49
2, 61199, Note_on_c, 1, 81, 0
2, 61200, Note_on_c, 1, 81, 49
2, 61319, Note_on_c, 1, 81, 0
2, 61320, Note_on_c, 1, 82, 49
2, 61439, Note_on_c, 1, 82, 0
2, 61440, Note_on_c, 1, 81, 49
2, 61559, Note_on_c, 1, 81, 0
2, 61560, Note_on_c, 1, 82, 49
2, 61679, Note_on_c, 1, 82, 0
2, 61680, Note_on_c, 1, 81, 49
2, 62639, Note_on_c, 1, 81, 0
2, 62640, Note_on_c, 1, 81, 49
2, 62759, Note_on_c, 1, 81, 0
2, 62760, Note_on_c, 1, 82, 49
2, 62879, Note_on_c, 1, 82, 0
2, 62880, Note_on_c, 1, 81, 49
2, 62999, Note_on_c, 1, 81, 0
2, 63000, Note_on_c, 1, 82, 49
2, 63119, Note_on_c, 1, 82, 0
2, 63120, Note_on_c, 1, 81, 49
2, 63239, Note_on_c, 1, 81, 0
2, 63240, Note_on_c, 1, 82, 49
2, 63359, Note_on_c, 1, 82, 0
2, 63360, Note_on_c, 1, 81, 49
2, 63479, Note_on_c, 1, 81, 0
2, 63480, Note_on_c, 1, 82, 49
2, 63599, Note_on_c, 1, 82, 0
2, 63600, Note_on_c, 1, 77, 96
2, 63839, Note_on_c, 1, 77, 0
2, 63840, Note_on_c, 1, 77, 96
2, 64079, Note_on_c, 1, 77, 0
2, 64080, Note_on_c, 1, 77, 96
2, 64319, Note_on_c, 1, 77, 0
2, 64320, Note_on_c, 1, 76, 96
2, 64439, Note_on_c, 1, 76, 0
2, 64440, Note_on_c, 1, 77, 96
2, 64559, Note_on_c, 1, 77, 0
2, 64560, Note_on_c, 1, 79, 96
2, 65279, Note_on_c, 1, 79, 0
2, 65280, Note_on_c, 1, 79, 96
2, 65399, Note_on_c, 1, 79, 0
2, 65400, Note_on_c, 1, 77, 96
2, 65519, Note_on_c, 1, 77, 0
2, 65520, Note_on_c, 1, 76, 96
2, 65759, Note_on_c, 1, 76, 0
2, 65760, Note_on_c, 1, 76, 96
2, 65999, Note_on_c, 1, 76, 0
2, 66000, Note_on_c, 1, 76, 96
2, 66239, Note_on_c, 1, 76, 0
2, 66240, Note_on_c, 1, 74, 96
2, 66359, Note_on_c, 1, 74, 0
2, 66360, Note_on_c, 1, 76, 96
2, 66479, Note_on_c, 1, 76, 0
2, 66480, Note_on_c, 1, 77, 96
2, 67199, Note_on_c, 1, 77, 0
2, 67200, Note_on_c, 1, 77, 96
2, 67319, Note_on_c, 1, 77, 0
2, 67320, Note_on_c, 1, 79, 96
2, 67439, Note_on_c, 1, 79, 0
2, 67440, Note_on_c, 1, 81, 96
2, 67679, Note_on_c, 1, 81, 0
2, 67680, Note_on_c, 1, 81, 96
2, 67919, Note_on_c, 1, 81, 0
2, 67920, Note_on_c, 1, 81, 96
2, 68159, Note_on_c, 1, 81, 0
2, 68160, Note_on_c, 1, 81, 96
2, 68279, Note_on_c, 1, 81, 0
2, 68280, Note_on_c, 1, 79, 96
2, 68399, Note_on_c, 1, 79, 0
2, 68400, Note_on_c, 1, 77, 96
2, 68639, Note_on_c, 1, 77, 0
2, 68640, Note_on_c, 1, 77, 96
2, 68879, Note_on_c, 1, 77, 0
2, 68880, Note_on_c, 1, 77, 96
2, 69119, Note_on_c, 1, 77, 0
2, 69120, Note_on_c, 1, 77, 96
2, 69239, Note_on_c, 1, 77, 0
2, 69240, Note_on_c, 1, 79, 96
2, 69359, Note_on_c, 1, 79, 0
2, 69360, Note_on_c, 1, 81, 96
2, 69599, Note_on_c, 1, 81, 0
2, 69600, Note_on_c, 1, 81, 96
2, 69839, Note_on_c, 1, 81, 0
2, 69840, Note_on_c, 1, 81, 96
2, 70079, Note_on_c, 1, 81, 0
2, 70080, Note_on_c, 1, 81, 96
2, 70199, Note_on_c, 1, 81, 0
2, 70200, Note_on_c, 1, 79, 96
2, 70319, Note_on_c, 1, 79, 0
2, 70320, Note_on_c, 1, 77, 96
2, 70559, Note_on_c, 1, 77, 0
2, 70560, Note_on_c, 1, 77, 96
2, 70799, Note_on_c, 1, 77, 0
2, 70800, Note_on_c, 1, 77, 96
2, 71039, Note_on_c, 1, 77, 0
2, 71040, Note_on_c, 1, 77, 96
2, 71159, Note_on_c, 1, 77, 0
2, 71160, Note_on_c, 1, 79, 96
2, 71279, Note_on_c, 1, 79, 0
2, 71280, Note_on_c, 1, 81, 96
2, 71519, Note_on_c, 1, 81, 0
2, 71520, Note_on_c, 1, 81, 96
2, 71759, Note_on_c, 1, 81, 0
2, 71760, Note_on_c, 1, 81, 96
2, 71999, Note_on_c, 1, 81, 0
2, 72000, Note_on_c, 1, 79, 96
2, 72119, Note_on_c, 1, 79, 0
2, 72120, Note_on_c, 1, 77, 96
2, 72239, Note_on_c, 1, 77, 0
2, 72240, Note_on_c, 1, 76, 96
2, 73199, Note_on_c, 1, 76, 0
2, 74160, Note_on_c, 1, 72, 96
2, 74279, Note_on_c, 1, 72, 0
2, 74280, Note_on_c, 1, 70, 96
2, 74399, Note_on_c, 1, 70, 0
2, 74400, Note_on_c, 1, 74, 96
2, 74519, Note_on_c, 1, 74, 0
2, 74520, Note_on_c, 1, 72, 96
2, 74639, Note_on_c, 1, 72, 0
2, 74640, Note_on_c, 1, 76, 96
2, 74759, Note_on_c, 1, 76, 0
2, 74760, Note_on_c, 1, 74, 96
2, 74879, Note_on_c, 1, 74, 0
2, 74880, Note_on_c, 1, 77, 96
2, 74999, Note_on_c, 1, 77, 0
2, 75000, Note_on_c, 1, 76, 96
2, 75119, Note_on_c, 1, 76, 0
2, 75120, Note_on_c, 1, 79, 96
2, 75239, Note_on_c, 1, 79, 0
2, 75240, Note_on_c, 1, 77, 96
2, 75359, Note_on_c, 1, 77, 0
2, 75360, Note_on_c, 1, 81, 96
2, 75479, Note_on_c, 1, 81, 0
2, 75480, Note_on_c, 1, 79, 96
2, 75599, Note_on_c, 1, 79, 0
2, 75600, Note_on_c, 1, 82, 96
2, 75719, Note_on_c, 1, 82, 0
2, 75720, Note_on_c, 1, 81, 96
2, 75839, Note_on_c, 1, 81, 0
2, 75840, Note_on_c, 1, 84, 96
2, 75959, Note_on_c, 1, 84, 0
2, 75960, Note_on_c, 1, 82, 96
2, 76079, Note_on_c, 1, 82, 0
2, 82800, Note_on_c, 1, 81, 112
2, 83039, Note_on_c, 1, 81, 0
2, 83040, Note_on_c, 1, 79, 112
2, 83159, Note_on_c, 1, 79, 0
2, 83160, Note_on_c, 1, 77, 112
2, 83279, Note_on_c, 1, 77, 0
2, 83280, Note_on_c, 1, 79, 112
2, 83519, Note_on_c, 1, 79, 0
2, 83520, Note_on_c, 1, 81, 112
2, 83759, Note_on_c, 1, 81, 0
2, 83760, Note_on_c, 1, 82, 112
2, 83999, Note_on_c, 1, 82, 0
2, 84000, Note_on_c, 1, 81, 112
2, 84479, Note_on_c, 1, 81, 0
2, 84480, Note_on_c, 1, 81, 112
2, 84719, Note_on_c, 1, 81, 0
2, 84720, Note_on_c, 1, 81, 112
2, 84959, Note_on_c, 1, 81, 0
2, 84960, Note_on_c, 1, 79, 112
2, 85079, Note_on_c, 1, 79, 0
2, 85080, Note_on_c, 1, 77, 112
2, 85199, Note_on_c, 1, 77, 0
2, 85200, Note_on_c, 1, 79, 112
2, 85439, Note_on_c, 1, 79, 0
2, 85440, Note_on_c, 1, 81, 112
2, 85679, Note_on_c, 1, 81, 0
2, 85680, Note_on_c, 1, 82, 112
2, 85919, Note_on_c, 1, 82, 0
2, 85920, Note_on_c, 1, 81, 112
2, 86399, Note_on_c, 1, 81, 0
2, 86400, Note_on_c, 1, 81, 112
2, 86639, Note_on_c, 1, 81, 0
2, 86640, Note_on_c, 1, 82, 112
2, 86879, Note_on_c, 1, 82, 0
2, 86880, Note_on_c, 1, 81, 112
2, 87359, Note_on_c, 1, 81, 0
2, 87360, Note_on_c, 1, 79, 112
2, 87599, Note_on_c, 1, 79, 0
2, 87600, Note_on_c, 1, 77, 112
2, 88079, Note_on_c, 1, 77, 0
2, 88080, Note_on_c, 1, 76, 112
2, 88559, Note_on_c, 1, 76, 0
2, 88560, Note_on_c, 1, 77, 112
2, 89279, Note_on_c, 1, 77, 0
2, 89280, Note_on_c, 1, 81, 112
2, 89519, Note_on_c, 1, 81, 0
2, 89520, Note_on_c, 1, 81, 112
2, 89759, Note_on_c, 1, 81, 0
2, 89760, Note_on_c, 1, 79, 112
2, 89879, Note_on_c, 1, 79, 0
2, 89880, Note_on_c, 1, 77, 112
2, 89999, Note_on_c, 1, 77, 0
2, 90000, Note_on_c, 1, 79, 112
2, 90239, Note_on_c, 1, 79, 0
2, 90240, Note_on_c, 1, 81, 112
2, 90479, Note_on_c, 1, 81, 0
2, 90480, Note_on_c, 1, 82, 112
2, 90719, Note_on_c, 1, 82, 0
2, 90720, Note_on_c, 1, 81, 112
2, 91199, Note_on_c, 1, 81, 0
2, 91200, Note_on_c, 1, 81, 112
2, 91439, Note_on_c, 1, 81, 0
2, 91440, Note_on_c, 1, 81, 112
2, 91679, Note_on_c, 1, 81, 0
2, 91680, Note_on_c, 1, 79, 112
2, 91799, Note_on_c, 1, 79, 0
2, 91800, Note_on_c, 1, 77, 112
2, 91919, Note_on_c, 1, 77, 0
2, 91920, Note_on_c, 1, 79, 112
2, 92159, Note_on_c, 1, 79, 0
2, 92160, Note_on_c, 1, 81, 112
2, 92399, Note_on_c, 1, 81, 0
2, 92400, Note_on_c, 1, 82, 112
2, 92639, Note_on_c, 1, 82, 0
2, 92640, Note_on_c, 1, 81, 112
2, 93119, Note_on_c, 1, 81, 0
2, 93120, Note_on_c, 1, 81, 112
2, 93359, Note_on_c, 1, 81, 0
2, 93360, Note_on_c, 1, 82, 112
2, 93599, Note_on_c, 1, 82, 0
2, 93600, Note_on_c, 1, 81, 112
2, 94079, Note_on_c, 1, 81, 0
2, 94080, Note_on_c, 1, 79, 112
2, 94319, Note_on_c, 1, 79, 0
2, 94320, Note_on_c, 1, 77, 112
2, 94799, Note_on_c, 1, 77, 0
2, 94800, Note_on_c, 1, 76, 112
2, 95279, Note_on_c, 1, 76, 0
2, 95280, Note_on_c, 1, 77, 112
2, 96239, Note_on_c, 1, 77, 0
2, 96240, End_track
3, 0, Start_track
3, 0, Key_signature, 1, "major"
3, 0, Control_c, 2, 121, 0
3, 0, Program_c, 2, 71
3, 0, Control_c, 2, 7, 100
3, 0, Control_c, 2, 10, 64
3, 0, Control_c, 2, 91, 0
3, 0, Control_c, 2, 93, 0
3, 0, MIDI_port, 0
3, 0, Note_on_c, 2, 65, 96
3, 239, Note_on_c, 2, 65, 0
3, 240, Note_on_c, 2, 65, 96
3, 719, Note_on_c, 2, 65, 0
3, 720, Note_on_c, 2, 65, 96
3, 1199, Note_on_c, 2, 65, 0
3, 1200, Note_on_c, 2, 65, 96
3, 1679, Note_on_c, 2, 65, 0
3, 1680, Note_on_c, 2, 65, 96
3, 2159, Note_on_c, 2, 65, 0
3, 2160, Note_on_c, 2, 65, 96
3, 2639, Note_on_c, 2, 65, 0
3, 2640, Note_on_c, 2, 65, 96
3, 3119, Note_on_c, 2, 65, 0
3, 3120, Note_on_c, 2, 65, 96
3, 3599, Note_on_c, 2, 65, 0
3, 3600, Note_on_c, 2, 65, 96
3, 4079, Note_on_c, 2, 65, 0
3, 4080, Note_on_c, 2, 65, 96
3, 4319, Note_on_c, 2, 65, 0
3, 4320, Note_on_c, 2, 65, 96
3, 4559, Note_on_c, 2, 65, 0
3, 4560, Note_on_c, 2, 70, 96
3, 4799, Note_on_c, 2, 70, 0
3, 4800, Note_on_c, 2, 71, 96
3, 5039, Note_on_c, 2, 71, 0
3, 5040, Note_on_c, 2, 72, 96
3, 5759, Note_on_c, 2, 72, 0
3, 5760, Note_on_c, 2, 65, 49
3, 5999, Note_on_c, 2, 65, 0
3, 6000, Note_on_c, 2, 77, 49
3, 6239, Note_on_c, 2, 77, 0
3, 6240, Note_on_c, 2, 77, 49
3, 6479, Note_on_c, 2, 77, 0
3, 6480, Note_on_c, 2, 77, 49
3, 6719, Note_on_c, 2, 77, 0
3, 6720, Note_on_c, 2, 77, 49
3, 6959, Note_on_c, 2, 77, 0
3, 6960, Note_on_c, 2, 81, 49
3, 7679, Note_on_c, 2, 81, 0
3, 7680, Note_on_c, 2, 81, 49
3, 7799, Note_on_c, 2, 81, 0
3, 7800, Note_on_c, 2, 79, 49
3, 7919, Note_on_c, 2, 79, 0
3, 7920, Note_on_c, 2, 77, 49
3, 8159, Note_on_c, 2, 77, 0
3, 8160, Note_on_c, 2, 77, 49
3, 8399, Note_on_c, 2, 77, 0
3, 8400, Note_on_c, 2, 77, 49
3, 8639, Note_on_c, 2, 77, 0
3, 8640, Note_on_c, 2, 77, 49
3, 8879, Note_on_c, 2, 77, 0
3, 8880, Note_on_c, 2, 81, 49
3, 9599, Note_on_c, 2, 81, 0
3, 9600, Note_on_c, 2, 81, 49
3, 9719, Note_on_c, 2, 81, 0
3, 9720, Note_on_c, 2, 79, 49
3, 9839, Note_on_c, 2, 79, 0
3, 9840, Note_on_c, 2, 77, 49
3, 10079, Note_on_c, 2, 77, 0
3, 10080, Note_on_c, 2, 79, 49
3, 10199, Note_on_c, 2, 79, 0
3, 10200, Note_on_c, 2, 81, 49
3, 10319, Note_on_c, 2, 81, 0
3, 10320, Note_on_c, 2, 79, 49
3, 10559, Note_on_c, 2, 79, 0
3, 10560, Note_on_c, 2, 77, 49
3, 10799, Note_on_c, 2, 77, 0
3, 10800, Note_on_c, 2, 76, 49
3, 11519, Note_on_c, 2, 76, 0
3, 11520, Note_on_c, 2, 81, 96
3, 11759, Note_on_c, 2, 81, 0
3, 11760, Note_on_c, 2, 65, 96
3, 12239, Note_on_c, 2, 65, 0
3, 12240, Note_on_c, 2, 65, 96
3, 12719, Note_on_c, 2, 65, 0
3, 12720, Note_on_c, 2, 65, 96
3, 13199, Note_on_c, 2, 65, 0
3, 13200, Note_on_c, 2, 65, 96
3, 13679, Note_on_c, 2, 65, 0
3, 13680, Note_on_c, 2, 65, 96
3, 14159, Note_on_c, 2, 65, 0
3, 14160, Note_on_c, 2, 65, 96
3, 14639, Note_on_c, 2, 65, 0
3, 14640, Note_on_c, 2, 65, 96
3, 15119, Note_on_c, 2, 65, 0
3, 15120, Note_on_c, 2, 65, 96
3, 15599, Note_on_c, 2, 65, 0
3, 15600, Note_on_c, 2, 65, 96
3, 16079, Note_on_c, 2, 65, 0
3, 16080, Note_on_c, 2, 65, 96
3, 16319, Note_on_c, 2, 65, 0
3, 16320, Note_on_c, 2, 60, 96
3, 16559, Note_on_c, 2, 60, 0
3, 16560, Note_on_c, 2, 65, 96
3, 16799, Note_on_c, 2, 65, 0
3, 16800, Note_on_c, 2, 65, 96
3, 17039, Note_on_c, 2, 65, 0
3, 17040, Note_on_c, 2, 72, 96
3, 17279, Note_on_c, 2, 72, 0
3, 17280, Note_on_c, 2, 60, 96
3, 17519, Note_on_c, 2, 60, 0
3, 17520, Note_on_c, 2, 65, 96
3, 17999, Note_on_c, 2, 65, 0
3, 18240, Note_on_c, 2, 81, 49
3, 18479, Note_on_c, 2, 81, 0
3, 18480, Note_on_c, 2, 81, 49
3, 18719, Note_on_c, 2, 81, 0
3, 18720, Note_on_c, 2, 79, 49
3, 18839, Note_on_c, 2, 79, 0
3, 18840, Note_on_c, 2, 77, 49
3, 18959, Note_on_c, 2, 77, 0
3, 18960, Note_on_c, 2, 79, 49
3, 19199, Note_on_c, 2, 79, 0
3, 19200, Note_on_c, 2, 81, 49
3, 19439, Note_on_c, 2, 81, 0
3, 19440, Note_on_c, 2, 82, 49
3, 19679, Note_on_c, 2, 82, 0
3, 19680, Note_on_c, 2, 81, 49
3, 20159, Note_on_c, 2, 81, 0
3, 20160, Note_on_c, 2, 81, 49
3, 20399, Note_on_c, 2, 81, 0
3, 20400, Note_on_c, 2, 81, 49
3, 20639, Note_on_c, 2, 81, 0
3, 20640, Note_on_c, 2, 79, 49
3, 20759, Note_on_c, 2, 79, 0
3, 20760, Note_on_c, 2, 77, 49
3, 20879, Note_on_c, 2, 77, 0
3, 20880, Note_on_c, 2, 79, 49
3, 21119, Note_on_c, 2, 79, 0
3, 21120, Note_on_c, 2, 81, 49
3, 21359, Note_on_c, 2, 81, 0
3, 21360, Note_on_c, 2, 82, 49
3, 21599, Note_on_c, 2, 82, 0
3, 21600, Note_on_c, 2, 81, 49
3, 22079, Note_on_c, 2, 81, 0
3, 22080, Note_on_c, 2, 81, 49
3, 22319, Note_on_c, 2, 81, 0
3, 22320, Note_on_c, 2, 82, 49
3, 22559, Note_on_c, 2, 82, 0
3, 22560, Note_on_c, 2, 81, 49
3, 23039, Note_on_c, 2, 81, 0
3, 23040, Note_on_c, 2, 81, 49
3, 23279, Note_on_c, 2, 81, 0
3, 23280, Note_on_c, 2, 82, 49
3, 23519, Note_on_c, 2, 82, 0
3, 23520, Note_on_c, 2, 81, 49
3, 23999, Note_on_c, 2, 81, 0
3, 24000, Note_on_c, 2, 79, 49
3, 24239, Note_on_c, 2, 79, 0
3, 24240, Note_on_c, 2, 77, 49
3, 24719, Note_on_c, 2, 77, 0
3, 24720, Note_on_c, 2, 76, 49
3, 25199, Note_on_c, 2, 76, 0
3, 25200, Note_on_c, 2, 65, 49
3, 25439, Note_on_c, 2, 65, 0
3, 25440, Note_on_c, 2, 65, 49
3, 25679, Note_on_c, 2, 65, 0
3, 25680, Note_on_c, 2, 65, 49
3, 25919, Note_on_c, 2, 65, 0
3, 25920, Note_on_c, 2, 65, 49
3, 26159, Note_on_c, 2, 65, 0
3, 26160, Note_on_c, 2, 65, 49
3, 26399, Note_on_c, 2, 65, 0
3, 26400, Note_on_c, 2, 65, 49
3, 26639, Note_on_c, 2, 65, 0
3, 26640, Note_on_c, 2, 65, 49
3, 26879, Note_on_c, 2, 65, 0
3, 26880, Note_on_c, 2, 65, 49
3, 27119, Note_on_c, 2, 65, 0
3, 27120, Note_on_c, 2, 65, 49
3, 27359, Note_on_c, 2, 65, 0
3, 27360, Note_on_c, 2, 65, 49
3, 27599, Note_on_c, 2, 65, 0
3, 27600, Note_on_c, 2, 65, 49
3, 27839, Note_on_c, 2, 65, 0
3, 27840, Note_on_c, 2, 65, 49
3, 28079, Note_on_c, 2, 65, 0
3, 28080, Note_on_c, 2, 65, 49
3, 28319, Note_on_c, 2, 65, 0
3, 28320, Note_on_c, 2, 65, 49
3, 28559, Note_on_c, 2, 65, 0
3, 28560, Note_on_c, 2, 65, 49
3, 28799, Note_on_c, 2, 65, 0
3, 28800, Note_on_c, 2, 65, 49
3, 29039, Note_on_c, 2, 65, 0
3, 29040, Note_on_c, 2, 72, 49
3, 29279, Note_on_c, 2, 72, 0
3, 29280, Note_on_c, 2, 72, 49
3, 29519, Note_on_c, 2, 72, 0
3, 29520, Note_on_c, 2, 72, 49
3, 29759, Note_on_c, 2, 72, 0
3, 29760, Note_on_c, 2, 72, 49
3, 29999, Note_on_c, 2, 72, 0
3, 30000, Note_on_c, 2, 72, 49
3, 30239, Note_on_c, 2, 72, 0
3, 30240, Note_on_c, 2, 72, 49
3, 30479, Note_on_c, 2, 72, 0
3, 30480, Note_on_c, 2, 72, 49
3, 30719, Note_on_c, 2, 72, 0
3, 30720, Note_on_c, 2, 72, 49
3, 30959, Note_on_c, 2, 72, 0
3, 30960, Note_on_c, 2, 72, 49
3, 31199, Note_on_c, 2, 72, 0
3, 31200, Note_on_c, 2, 72, 49
3, 31439, Note_on_c, 2, 72, 0
3, 31440, Note_on_c, 2, 72, 49
3, 31679, Note_on_c, 2, 72, 0
3, 31680, Note_on_c, 2, 72, 49
3, 31919, Note_on_c, 2, 72, 0
3, 31920, Note_on_c, 2, 72, 49
3, 32159, Note_on_c, 2, 72, 0
3, 32160, Note_on_c, 2, 72, 49
3, 32399, Note_on_c, 2, 72, 0
3, 32400, Note_on_c, 2, 72, 49
3, 32639, Note_on_c, 2, 72, 0
3, 32640, Note_on_c, 2, 72, 49
3, 32879, Note_on_c, 2, 72, 0
3, 32880, Note_on_c, 2, 65, 49
3, 33119, Note_on_c, 2, 65, 0
3, 33120, Note_on_c, 2, 65, 49
3, 33359, Note_on_c, 2, 65, 0
3, 33360, Note_on_c, 2, 65, 49
3, 33599, Note_on_c, 2, 65, 0
3, 33600, Note_on_c, 2, 65, 49
3, 33839, Note_on_c, 2, 65, 0
3, 33840, Note_on_c, 2, 65, 49
3, 34079, Note_on_c, 2, 65, 0
3, 34080, Note_on_c, 2, 65, 49
3, 34319, Note_on_c, 2, 65, 0
3, 34320, Note_on_c, 2, 65, 49
3, 34559, Note_on_c, 2, 65, 0
3, 34560, Note_on_c, 2, 65, 49
3, 34799, Note_on_c, 2, 65, 0
3, 34800, Note_on_c, 2, 65, 49
3, 35039, Note_on_c, 2, 65, 0
3, 35040, Note_on_c, 2, 65, 49
3, 35279, Note_on_c, 2, 65, 0
3, 35280, Note_on_c, 2, 65, 49
3, 35519, Note_on_c, 2, 65, 0
3, 35520, Note_on_c, 2, 65, 49
3, 35759, Note_on_c, 2, 65, 0
3, 35760, Note_on_c, 2, 65, 49
3, 35999, Note_on_c, 2, 65, 0
3, 36000, Note_on_c, 2, 65, 49
3, 36239, Note_on_c, 2, 65, 0
3, 36240, Note_on_c, 2, 65, 49
3, 36479, Note_on_c, 2, 65, 0
3, 36480, Note_on_c, 2, 65, 49
3, 36719, Note_on_c, 2, 65, 0
3, 36720, Note_on_c, 2, 65, 49
3, 37439, Note_on_c, 2, 65, 0
3, 37440, Note_on_c, 2, 77, 49
3, 37679, Note_on_c, 2, 77, 0
3, 37680, Note_on_c, 2, 79, 49
3, 38639, Note_on_c, 2, 79, 0
3, 38640, Note_on_c, 2, 77, 49
3, 39599, Note_on_c, 2, 77, 0
3, 39600, Note_on_c, 2, 76, 49
3, 40559, Note_on_c, 2, 76, 0
3, 40560, Note_on_c, 2, 77, 49
3, 41519, Note_on_c, 2, 77, 0
3, 41520, Note_on_c, 2, 79, 49
3, 42479, Note_on_c, 2, 79, 0
3, 42480, Note_on_c, 2, 77, 49
3, 43439, Note_on_c, 2, 77, 0
3, 43440, Note_on_c, 2, 72, 49
3, 44159, Note_on_c, 2, 72, 0
3, 44160, Note_on_c, 2, 72, 96
3, 44399, Note_on_c, 2, 72, 0
3, 44400, Note_on_c, 2, 76, 96
3, 44639, Note_on_c, 2, 76, 0
3, 44640, Note_on_c, 2, 74, 96
3, 44759, Note_on_c, 2, 74, 0
3, 44760, Note_on_c, 2, 72, 96
3, 44879, Note_on_c, 2, 72, 0
3, 44880, Note_on_c, 2, 74, 96
3, 45119, Note_on_c, 2, 74, 0
3, 45120, Note_on_c, 2, 76, 96
3, 45359, Note_on_c, 2, 76, 0
3, 45360, Note_on_c, 2, 77, 96
3, 45599, Note_on_c, 2, 77, 0
3, 45600, Note_on_c, 2, 76, 96
3, 46079, Note_on_c, 2, 76, 0
3, 46080, Note_on_c, 2, 76, 96
3, 46319, Note_on_c, 2, 76, 0
3, 46320, Note_on_c, 2, 76, 96
3, 46559, Note_on_c, 2, 76, 0
3, 46560, Note_on_c, 2, 74, 96
3, 46679, Note_on_c, 2, 74, 0
3, 46680, Note_on_c, 2, 72, 96
3, 46799, Note_on_c, 2, 72, 0
3, 46800, Note_on_c, 2, 74, 96
3, 47039, Note_on_c, 2, 74, 0
3, 47040, Note_on_c, 2, 76, 96
3, 47279, Note_on_c, 2, 76, 0
3, 47280, Note_on_c, 2, 77, 96
3, 47519, Note_on_c, 2, 77, 0
3, 47520, Note_on_c, 2, 76, 96
3, 47999, Note_on_c, 2, 76, 0
3, 48000, Note_on_c, 2, 76, 96
3, 48239, Note_on_c, 2, 76, 0
3, 48240, Note_on_c, 2, 77, 96
3, 48479, Note_on_c, 2, 77, 0
3, 48480, Note_on_c, 2, 76, 96
3, 48959, Note_on_c, 2, 76, 0
3, 48960, Note_on_c, 2, 74, 96
3, 49199, Note_on_c, 2, 74, 0
3, 49200, Note_on_c, 2, 72, 96
3, 49679, Note_on_c, 2, 72, 0
3, 49680, Note_on_c, 2, 71, 96
3, 50159, Note_on_c, 2, 71, 0
3, 50160, Note_on_c, 2, 72, 96
3, 51119, Note_on_c, 2, 72, 0
3, 51120, Note_on_c, 2, 69, 96
3, 52079, Note_on_c, 2, 69, 0
3, 52080, Note_on_c, 2, 62, 49
3, 53999, Note_on_c, 2, 62, 0
3, 54000, Note_on_c, 2, 62, 49
3, 55919, Note_on_c, 2, 62, 0
3, 55920, Note_on_c, 2, 62, 49
3, 57839, Note_on_c, 2, 62, 0
3, 57840, Note_on_c, 2, 62, 49
3, 59759, Note_on_c, 2, 62, 0
3, 59760, Note_on_c, 2, 62, 49
3, 61679, Note_on_c, 2, 62, 0
3, 61680, Note_on_c, 2, 62, 49
3, 63599, Note_on_c, 2, 62, 0
3, 63600, Note_on_c, 2, 62, 96
3, 63839, Note_on_c, 2, 62, 0
3, 63840, Note_on_c, 2, 62, 96
3, 64079, Note_on_c, 2, 62, 0
3, 64080, Note_on_c, 2, 62, 96
3, 64319, Note_on_c, 2, 62, 0
3, 64320, Note_on_c, 2, 62, 96
3, 64559, Note_on_c, 2, 62, 0
3, 64560, Note_on_c, 2, 67, 96
3, 64799, Note_on_c, 2, 67, 0
3, 64800, Note_on_c, 2, 67, 96
3, 65039, Note_on_c, 2, 67, 0
3, 65040, Note_on_c, 2, 67, 96
3, 65279, Note_on_c, 2, 67, 0
3, 65280, Note_on_c, 2, 67, 96
3, 65519, Note_on_c, 2, 67, 0
3, 65520, Note_on_c, 2, 72, 96
3, 65759, Note_on_c, 2, 72, 0
3, 65760, Note_on_c, 2, 72, 96
3, 65999, Note_on_c, 2, 72, 0
3, 66000, Note_on_c, 2, 72, 96
3, 66239, Note_on_c, 2, 72, 0
3, 66240, Note_on_c, 2, 72, 96
3, 66479, Note_on_c, 2, 72, 0
3, 66480, Note_on_c, 2, 65, 96
3, 66719, Note_on_c, 2, 65, 0
3, 66720, Note_on_c, 2, 65, 96
3, 66959, Note_on_c, 2, 65, 0
3, 66960, Note_on_c, 2, 65, 96
3, 67199, Note_on_c, 2, 65, 0
3, 67200, Note_on_c, 2, 72, 96
3, 67439, Note_on_c, 2, 72, 0
3, 67440, Note_on_c, 2, 65, 96
3, 67679, Note_on_c, 2, 65, 0
3, 67680, Note_on_c, 2, 65, 96
3, 67919, Note_on_c, 2, 65, 0
3, 67920, Note_on_c, 2, 65, 96
3, 68159, Note_on_c, 2, 65, 0
3, 68160, Note_on_c, 2, 72, 96
3, 68399, Note_on_c, 2, 72, 0
3, 68400, Note_on_c, 2, 65, 96
3, 68639, Note_on_c, 2, 65, 0
3, 68640, Note_on_c, 2, 65, 96
3, 68879, Note_on_c, 2, 65, 0
3, 68880, Note_on_c, 2, 65, 96
3, 69119, Note_on_c, 2, 65, 0
3, 69120, Note_on_c, 2, 72, 96
3, 69359, Note_on_c, 2, 72, 0
3, 69360, Note_on_c, 2, 65, 96
3, 69599, Note_on_c, 2, 65, 0
3, 69600, Note_on_c, 2, 65, 96
3, 69839, Note_on_c, 2, 65, 0
3, 69840, Note_on_c, 2, 65, 96
3, 70079, Note_on_c, 2, 65, 0
3, 70080, Note_on_c, 2, 72, 96
3, 70319, Note_on_c, 2, 72, 0
3, 70320, Note_on_c, 2, 65, 96
3, 70559, Note_on_c, 2, 65, 0
3, 70560, Note_on_c, 2, 65, 96
3, 70799, Note_on_c, 2, 65, 0
3, 70800, Note_on_c, 2, 65, 96
3, 71039, Note_on_c, 2, 65, 0
3, 71040, Note_on_c, 2, 72, 96
3, 71279, Note_on_c, 2, 72, 0
3, 71280, Note_on_c, 2, 65, 96
3, 71519, Note_on_c, 2, 65, 0
3, 71520, Note_on_c, 2, 65, 96
3, 71759, Note_on_c, 2, 65, 0
3, 71760, Note_on_c, 2, 65, 96
3, 71999, Note_on_c, 2, 65, 0
3, 72000, Note_on_c, 2, 72, 96
3, 72239, Note_on_c, 2, 72, 0
3, 72240, Note_on_c, 2, 72, 96
3, 73199, Note_on_c, 2, 72, 0
3, 73200, Note_on_c, 2, 72, 96
3, 75119, Note_on_c, 2, 72, 0
3, 75120, Note_on_c, 2, 72, 96
3, 76079, Note_on_c, 2, 72, 0
3, 76080, Note_on_c, 2, 65, 96
3, 76559, Note_on_c, 2, 65, 0
3, 76560, Note_on_c, 2, 65, 96
3, 77039, Note_on_c, 2, 65, 0
3, 77040, Note_on_c, 2, 67, 96
3, 77519, Note_on_c, 2, 67, 0
3, 77520, Note_on_c, 2, 67, 96
3, 77999, Note_on_c, 2, 67, 0
3, 78000, Note_on_c, 2, 69, 96
3, 78479, Note_on_c, 2, 69, 0
3, 78480, Note_on_c, 2, 69, 96
3, 78959, Note_on_c, 2, 69, 0
3, 78960, Note_on_c, 2, 70, 96
3, 79439, Note_on_c, 2, 70, 0
3, 79440, Note_on_c, 2, 69, 96
3, 79679, Note_on_c, 2, 69, 0
3, 79680, Note_on_c, 2, 67, 96
3, 79919, Note_on_c, 2, 67, 0
3, 79920, Note_on_c, 2, 65, 96
3, 80879, Note_on_c, 2, 65, 0
3, 80880, Note_on_c, 2, 65, 96
3, 81359, Note_on_c, 2, 65, 0
3, 81840, Note_on_c, 2, 65, 96
3, 82319, Note_on_c, 2, 65, 0
3, 82320, Note_on_c, 2, 72, 96
3, 82799, Note_on_c, 2, 72, 0
3, 82800, Note_on_c, 2, 65, 112
3, 83279, Note_on_c, 2, 65, 0
3, 83280, Note_on_c, 2, 65, 112
3, 83759, Note_on_c, 2, 65, 0
3, 83760, Note_on_c, 2, 65, 112
3, 84239, Note_on_c, 2, 65, 0
3, 84240, Note_on_c, 2, 65, 112
3, 84719, Note_on_c, 2, 65, 0
3, 84720, Note_on_c, 2, 65, 112
3, 85199, Note_on_c, 2, 65, 0
3, 85200, Note_on_c, 2, 65, 112
3, 85679, Note_on_c, 2, 65, 0
3, 85680, Note_on_c, 2, 65, 112
3, 86159, Note_on_c, 2, 65, 0
3, 86160, Note_on_c, 2, 65, 112
3, 86639, Note_on_c, 2, 65, 0
3, 86640, Note_on_c, 2, 65, 112
3, 87119, Note_on_c, 2, 65, 0
3, 87120, Note_on_c, 2, 65, 112
3, 87359, Note_on_c, 2, 65, 0
3, 87360, Note_on_c, 2, 72, 112
3, 87599, Note_on_c, 2, 72, 0
3, 87600, Note_on_c, 2, 77, 112
3, 87839, Note_on_c, 2, 77, 0
3, 87840, Note_on_c, 2, 77, 112
3, 88079, Note_on_c, 2, 77, 0
3, 88080, Note_on_c, 2, 84, 112
3, 88319, Note_on_c, 2, 84, 0
3, 88320, Note_on_c, 2, 72, 112
3, 88559, Note_on_c, 2, 72, 0
3, 88560, Note_on_c, 2, 65, 112
3, 89279, Note_on_c, 2, 65, 0
3, 89280, Note_on_c, 2, 65, 112
3, 89519, Note_on_c, 2, 65, 0
3, 89520, Note_on_c, 2, 65, 112
3, 89999, Note_on_c, 2, 65, 0
3, 90000, Note_on_c, 2, 65, 112
3, 90479, Note_on_c, 2, 65, 0
3, 90480, Note_on_c, 2, 65, 112
3, 90959, Note_on_c, 2, 65, 0
3, 90960, Note_on_c, 2, 65, 112
3, 91439, Note_on_c, 2, 65, 0
3, 91440, Note_on_c, 2, 65, 112
3, 91919, Note_on_c, 2, 65, 0
3, 91920, Note_on_c, 2, 65, 112
3, 92399, Note_on_c, 2, 65, 0
3, 92400, Note_on_c, 2, 65, 112
3, 92879, Note_on_c, 2, 65, 0
3, 92880, Note_on_c, 2, 65, 112
3, 93359, Note_on_c, 2, 65, 0
3, 93360, Note_on_c, 2, 65, 112
3, 93839, Note_on_c, 2, 65, 0
3, 93840, Note_on_c, 2, 65, 112
3, 94079, Note_on_c, 2, 65, 0
3, 94080, Note_on_c, 2, 72, 112
3, 94319, Note_on_c, 2, 72, 0
3, 94320, Note_on_c, 2, 77, 112
3, 94559, Note_on_c, 2, 77, 0
3, 94560, Note_on_c, 2, 77, 112
3, 94799, Note_on_c, 2, 77, 0
3, 94800, Note_on_c, 2, 84, 112
3, 95039, Note_on_c, 2, 84, 0
3, 95040, Note_on_c, 2, 72, 112
3, 95279, Note_on_c, 2, 72, 0
3, 95280, Note_on_c, 2, 65, 112
3, 96239, Note_on_c, 2, 65, 0
3, 96240, End_track
4, 0, Start_track
4, 0, Key_signature, 2, "major"
4, 0, Control_c, 3, 121, 0
4, 0, Program_c, 3, 65
4, 0, Control_c, 3, 7, 100
4, 0, Control_c, 3, 10, 64
4, 0, Control_c, 3, 91, 0
4, 0, Control_c, 3, 93, 0
4, 0, MIDI_port, 0
4, 0, Note_on_c, 3, 65, 96
4, 239, Note_on_c, 3, 65, 0
4, 240, Note_on_c, 3, 65, 96
4, 719, Note_on_c, 3, 65, 0
4, 720, Note_on_c, 3, 65, 96
4, 1199, Note_on_c, 3, 65, 0
4, 1200, Note_on_c, 3, 65, 96
4, 1679, Note_on_c, 3, 65, 0
4, 1680, Note_on_c, 3, 65, 96
4, 2159, Note_on_c, 3, 65, 0
4, 2160, Note_on_c, 3, 65, 96
4, 2639, Note_on_c, 3, 65, 0
4, 2640, Note_on_c, 3, 65, 96
4, 3119, Note_on_c, 3, 65, 0
4, 3120, Note_on_c, 3, 65, 96
4, 3599, Note_on_c, 3, 65, 0
4, 3600, Note_on_c, 3, 65, 96
4, 4079, Note_on_c, 3, 65, 0
4, 4080, Note_on_c, 3, 65, 96
4, 4319, Note_on_c, 3, 65, 0
4, 4320, Note_on_c, 3, 65, 96
4, 4559, Note_on_c, 3, 65, 0
4, 4560, Note_on_c, 3, 70, 96
4, 4799, Note_on_c, 3, 70, 0
4, 4800, Note_on_c, 3, 71, 96
4, 5039, Note_on_c, 3, 71, 0
4, 5040, Note_on_c, 3, 72, 96
4, 5759, Note_on_c, 3, 72, 0
4, 5760, Note_on_c, 3, 65, 49
4, 5999, Note_on_c, 3, 65, 0
4, 6000, Note_on_c, 3, 65, 49
4, 6479, Note_on_c, 3, 65, 0
4, 6480, Note_on_c, 3, 65, 49
4, 6959, Note_on_c, 3, 65, 0
4, 6960, Note_on_c, 3, 65, 49
4, 7439, Note_on_c, 3, 65, 0
4, 7440, Note_on_c, 3, 65, 49
4, 7919, Note_on_c, 3, 65, 0
4, 7920, Note_on_c, 3, 65, 49
4, 8399, Note_on_c, 3, 65, 0
4, 8400, Note_on_c, 3, 65, 49
4, 8879, Note_on_c, 3, 65, 0
4, 8880, Note_on_c, 3, 65, 49
4, 9359, Note_on_c, 3, 65, 0
4, 9360, Note_on_c, 3, 65, 49
4, 9839, Note_on_c, 3, 65, 0
4, 9840, Note_on_c, 3, 65, 49
4, 10079, Note_on_c, 3, 65, 0
4, 10080, Note_on_c, 3, 65, 49
4, 10319, Note_on_c, 3, 65, 0
4, 10320, Note_on_c, 3, 70, 49
4, 10559, Note_on_c, 3, 70, 0
4, 10560, Note_on_c, 3, 71, 49
4, 10799, Note_on_c, 3, 71, 0
4, 10800, Note_on_c, 3, 72, 49
4, 11519, Note_on_c, 3, 72, 0
4, 11520, Note_on_c, 3, 65, 96
4, 11759, Note_on_c, 3, 65, 0
4, 11760, Note_on_c, 3, 65, 96
4, 12239, Note_on_c, 3, 65, 0
4, 12240, Note_on_c, 3, 65, 96
4, 12719, Note_on_c, 3, 65, 0
4, 12720, Note_on_c, 3, 65, 96
4, 13199, Note_on_c, 3, 65, 0
4, 13200, Note_on_c, 3, 65, 96
4, 13679, Note_on_c, 3, 65, 0
4, 13680, Note_on_c, 3, 65, 96
4, 14159, Note_on_c, 3, 65, 0
4, 14160, Note_on_c, 3, 65, 96
4, 14639, Note_on_c, 3, 65, 0
4, 14640, Note_on_c, 3, 65, 96
4, 15119, Note_on_c, 3, 65, 0
4, 15120, Note_on_c, 3, 65, 96
4, 15599, Note_on_c, 3, 65, 0
4, 15600, Note_on_c, 3, 65, 96
4, 16079, Note_on_c, 3, 65, 0
4, 16080, Note_on_c, 3, 65, 96
4, 16319, Note_on_c, 3, 65, 0
4, 16320, Note_on_c, 3, 60, 96
4, 16559, Note_on_c, 3, 60, 0
4, 16560, Note_on_c, 3, 65, 96
4, 16799, Note_on_c, 3, 65, 0
4, 16800, Note_on_c, 3, 65, 96
4, 17039, Note_on_c, 3, 65, 0
4, 17040, Note_on_c, 3, 72, 96
4, 17279, Note_on_c, 3, 72, 0
4, 17280, Note_on_c, 3, 60, 96
4, 17519, Note_on_c, 3, 60, 0
4, 17520, Note_on_c, 3, 65, 96
4, 17999, Note_on_c, 3, 65, 0
4, 18240, Note_on_c, 3, 65, 49
4, 18479, Note_on_c, 3, 65, 0
4, 18480, Note_on_c, 3, 65, 49
4, 18959, Note_on_c, 3, 65, 0
4, 18960, Note_on_c, 3, 65, 49
4, 19439, Note_on_c, 3, 65, 0
4, 19440, Note_on_c, 3, 65, 49
4, 19919, Note_on_c, 3, 65, 0
4, 19920, Note_on_c, 3, 65, 49
4, 20399, Note_on_c, 3, 65, 0
4, 20400, Note_on_c, 3, 65, 49
4, 20879, Note_on_c, 3, 65, 0
4, 20880, Note_on_c, 3, 65, 49
4, 21359, Note_on_c, 3, 65, 0
4, 21360, Note_on_c, 3, 65, 49
4, 21839, Note_on_c, 3, 65, 0
4, 21840, Note_on_c, 3, 65, 49
4, 22319, Note_on_c, 3, 65, 0
4, 22320, Note_on_c, 3, 65, 49
4, 22799, Note_on_c, 3, 65, 0
4, 22800, Note_on_c, 3, 65, 49
4, 23039, Note_on_c, 3, 65, 0
4, 23280, Note_on_c, 3, 65, 49
4, 23759, Note_on_c, 3, 65, 0
4, 23760, Note_on_c, 3, 65, 49
4, 23999, Note_on_c, 3, 65, 0
4, 24000, Note_on_c, 3, 60, 49
4, 24239, Note_on_c, 3, 60, 0
4, 24240, Note_on_c, 3, 65, 49
4, 24479, Note_on_c, 3, 65, 0
4, 24480, Note_on_c, 3, 65, 49
4, 24719, Note_on_c, 3, 65, 0
4, 24720, Note_on_c, 3, 72, 49
4, 24959, Note_on_c, 3, 72, 0
4, 24960, Note_on_c, 3, 60, 49
4, 25199, Note_on_c, 3, 60, 0
4, 25200, Note_on_c, 3, 65, 49
4, 25439, Note_on_c, 3, 65, 0
4, 25440, Note_on_c, 3, 65, 49
4, 25679, Note_on_c, 3, 65, 0
4, 25680, Note_on_c, 3, 65, 49
4, 25919, Note_on_c, 3, 65, 0
4, 25920, Note_on_c, 3, 65, 49
4, 26159, Note_on_c, 3, 65, 0
4, 26160, Note_on_c, 3, 65, 49
4, 26399, Note_on_c, 3, 65, 0
4, 26400, Note_on_c, 3, 65, 49
4, 26639, Note_on_c, 3, 65, 0
4, 26640, Note_on_c, 3, 65, 49
4, 26879, Note_on_c, 3, 65, 0
4, 26880, Note_on_c, 3, 65, 49
4, 27119, Note_on_c, 3, 65, 0
4, 27120, Note_on_c, 3, 65, 49
4, 27359, Note_on_c, 3, 65, 0
4, 27360, Note_on_c, 3, 65, 49
4, 27599, Note_on_c, 3, 65, 0
4, 27600, Note_on_c, 3, 65, 49
4, 27839, Note_on_c, 3, 65, 0
4, 27840, Note_on_c, 3, 65, 49
4, 28079, Note_on_c, 3, 65, 0
4, 28080, Note_on_c, 3, 65, 49
4, 28319, Note_on_c, 3, 65, 0
4, 28320, Note_on_c, 3, 65, 49
4, 28559, Note_on_c, 3, 65, 0
4, 28560, Note_on_c, 3, 65, 49
4, 28799, Note_on_c, 3, 65, 0
4, 28800, Note_on_c, 3, 65, 49
4, 29039, Note_on_c, 3, 65, 0
4, 29040, Note_on_c, 3, 72, 49
4, 29279, Note_on_c, 3, 72, 0
4, 29280, Note_on_c, 3, 72, 49
4, 29519, Note_on_c, 3, 72, 0
4, 29520, Note_on_c, 3, 72, 49
4, 29759, Note_on_c, 3, 72, 0
4, 29760, Note_on_c, 3, 72, 49
4, 29999, Note_on_c, 3, 72, 0
4, 30000, Note_on_c, 3, 72, 49
4, 30239, Note_on_c, 3, 72, 0
4, 30240, Note_on_c, 3, 72, 49
4, 30479, Note_on_c, 3, 72, 0
4, 30480, Note_on_c, 3, 72, 49
4, 30719, Note_on_c, 3, 72, 0
4, 30720, Note_on_c, 3, 72, 49
4, 30959, Note_on_c, 3, 72, 0
4, 30960, Note_on_c, 3, 72, 49
4, 31199, Note_on_c, 3, 72, 0
4, 31200, Note_on_c, 3, 72, 49
4, 31439, Note_on_c, 3, 72, 0
4, 31440, Note_on_c, 3, 72, 49
4, 31679, Note_on_c, 3, 72, 0
4, 31680, Note_on_c, 3, 72, 49
4, 31919, Note_on_c, 3, 72, 0
4, 31920, Note_on_c, 3, 72, 49
4, 32159, Note_on_c, 3, 72, 0
4, 32160, Note_on_c, 3, 72, 49
4, 32399, Note_on_c, 3, 72, 0
4, 32400, Note_on_c, 3, 72, 49
4, 32639, Note_on_c, 3, 72, 0
4, 32640, Note_on_c, 3, 72, 49
4, 32879, Note_on_c, 3, 72, 0
4, 32880, Note_on_c, 3, 65, 49
4, 33119, Note_on_c, 3, 65, 0
4, 33120, Note_on_c, 3, 65, 49
4, 33359, Note_on_c, 3, 65, 0
4, 33360, Note_on_c, 3, 65, 49
4, 33599, Note_on_c, 3, 65, 0
4, 33600, Note_on_c, 3, 65, 49
4, 33839, Note_on_c, 3, 65, 0
4, 33840, Note_on_c, 3, 65, 49
4, 34079, Note_on_c, 3, 65, 0
4, 34080, Note_on_c, 3, 65, 49
4, 34319, Note_on_c, 3, 65, 0
4, 34320, Note_on_c, 3, 65, 49
4, 34559, Note_on_c, 3, 65, 0
4, 34560, Note_on_c, 3, 65, 49
4, 34799, Note_on_c, 3, 65, 0
4, 34800, Note_on_c, 3, 65, 49
4, 35039, Note_on_c, 3, 65, 0
4, 35040, Note_on_c, 3, 65, 49
4, 35279, Note_on_c, 3, 65, 0
4, 35280, Note_on_c, 3, 65, 49
4, 35519, Note_on_c, 3, 65, 0
4, 35520, Note_on_c, 3, 65, 49
4, 35759, Note_on_c, 3, 65, 0
4, 35760, Note_on_c, 3, 65, 49
4, 35999, Note_on_c, 3, 65, 0
4, 36000, Note_on_c, 3, 65, 49
4, 36239, Note_on_c, 3, 65, 0
4, 36240, Note_on_c, 3, 65, 49
4, 36479, Note_on_c, 3, 65, 0
4, 36480, Note_on_c, 3, 65, 49
4, 36719, Note_on_c, 3, 65, 0
4, 36720, Note_on_c, 3, 77, 49
4, 36839, Note_on_c, 3, 77, 0
4, 36840, Note_on_c, 3, 72, 49
4, 36959, Note_on_c, 3, 72, 0
4, 36960, Note_on_c, 3, 77, 49
4, 37079, Note_on_c, 3, 77, 0
4, 37080, Note_on_c, 3, 72, 49
4, 37199, Note_on_c, 3, 72, 0
4, 37200, Note_on_c, 3, 77, 49
4, 37319, Note_on_c, 3, 77, 0
4, 37320, Note_on_c, 3, 72, 49
4, 37439, Note_on_c, 3, 72, 0
4, 37440, Note_on_c, 3, 77, 49
4, 37559, Note_on_c, 3, 77, 0
4, 37560, Note_on_c, 3, 72, 49
4, 37679, Note_on_c, 3, 72, 0
4, 37680, Note_on_c, 3, 76, 49
4, 37799, Note_on_c, 3, 76, 0
4, 37800, Note_on_c, 3, 72, 49
4, 37919, Note_on_c, 3, 72, 0
4, 37920, Note_on_c, 3, 76, 49
4, 38039, Note_on_c, 3, 76, 0
4, 38040, Note_on_c, 3, 72, 49
4, 38159, Note_on_c, 3, 72, 0
4, 38160, Note_on_c, 3, 76, 49
4, 38279, Note_on_c, 3, 76, 0
4, 38280, Note_on_c, 3, 72, 49
4, 38399, Note_on_c, 3, 72, 0
4, 38400, Note_on_c, 3, 76, 49
4, 38519, Note_on_c, 3, 76, 0
4, 38520, Note_on_c, 3, 72, 49
4, 38639, Note_on_c, 3, 72, 0
4, 38640, Note_on_c, 3, 77, 49
4, 38759, Note_on_c, 3, 77, 0
4, 38760, Note_on_c, 3, 72, 49
4, 38879, Note_on_c, 3, 72, 0
4, 38880, Note_on_c, 3, 77, 49
4, 38999, Note_on_c, 3, 77, 0
4, 39000, Note_on_c, 3, 72, 49
4, 39119, Note_on_c, 3, 72, 0
4, 39120, Note_on_c, 3, 77, 49
4, 39239, Note_on_c, 3, 77, 0
4, 39240, Note_on_c, 3, 72, 49
4, 39359, Note_on_c, 3, 72, 0
4, 39360, Note_on_c, 3, 77, 49
4, 39479, Note_on_c, 3, 77, 0
4, 39480, Note_on_c, 3, 72, 49
4, 39599, Note_on_c, 3, 72, 0
4, 39600, Note_on_c, 3, 79, 49
4, 39719, Note_on_c, 3, 79, 0
4, 39720, Note_on_c, 3, 72, 49
4, 39839, Note_on_c, 3, 72, 0
4, 39840, Note_on_c, 3, 79, 49
4, 39959, Note_on_c, 3, 79, 0
4, 39960, Note_on_c, 3, 72, 49
4, 40079, Note_on_c, 3, 72, 0
4, 40080, Note_on_c, 3, 79, 49
4, 40199, Note_on_c, 3, 79, 0
4, 40200, Note_on_c, 3, 72, 49
4, 40319, Note_on_c, 3, 72, 0
4, 40320, Note_on_c, 3, 79, 49
4, 40439, Note_on_c, 3, 79, 0
4, 40440, Note_on_c, 3, 72, 49
4, 40559, Note_on_c, 3, 72, 0
4, 40560, Note_on_c, 3, 77, 49
4, 40679, Note_on_c, 3, 77, 0
4, 40680, Note_on_c, 3, 72, 49
4, 40799, Note_on_c, 3, 72, 0
4, 40800, Note_on_c, 3, 77, 49
4, 40919, Note_on_c, 3, 77, 0
4, 40920, Note_on_c, 3, 72, 49
4, 41039, Note_on_c, 3, 72, 0
4, 41040, Note_on_c, 3, 77, 49
4, 41159, Note_on_c, 3, 77, 0
4, 41160, Note_on_c, 3, 72, 49
4, 41279, Note_on_c, 3, 72, 0
4, 41280, Note_on_c, 3, 77, 49
4, 41399, Note_on_c, 3, 77, 0
4, 41400, Note_on_c, 3, 72, 49
4, 41519, Note_on_c, 3, 72, 0
4, 41520, Note_on_c, 3, 76, 49
4, 41639, Note_on_c, 3, 76, 0
4, 41640, Note_on_c, 3, 72, 49
4, 41759, Note_on_c, 3, 72, 0
4, 41760, Note_on_c, 3, 76, 49
4, 41879, Note_on_c, 3, 76, 0
4, 41880, Note_on_c, 3, 72, 49
4, 41999, Note_on_c, 3, 72, 0
4, 42000, Note_on_c, 3, 76, 49
4, 42119, Note_on_c, 3, 76, 0
4, 42120, Note_on_c, 3, 72, 49
4, 42239, Note_on_c, 3, 72, 0
4, 42240, Note_on_c, 3, 76, 49
4, 42359, Note_on_c, 3, 76, 0
4, 42360, Note_on_c, 3, 72, 49
4, 42479, Note_on_c, 3, 72, 0
4, 42480, Note_on_c, 3, 77, 49
4, 42599, Note_on_c, 3, 77, 0
4, 42600, Note_on_c, 3, 72, 49
4, 42719, Note_on_c, 3, 72, 0
4, 42720, Note_on_c, 3, 77, 49
4, 42839, Note_on_c, 3, 77, 0
4, 42840, Note_on_c, 3, 72, 49
4, 42959, Note_on_c, 3, 72, 0
4, 42960, Note_on_c, 3, 77, 49
4, 43079, Note_on_c, 3, 77, 0
4, 43080, Note_on_c, 3, 72, 49
4, 43199, Note_on_c, 3, 72, 0
4, 43200, Note_on_c, 3, 77, 49
4, 43319, Note_on_c, 3, 77, 0
4, 43320, Note_on_c, 3, 72, 49
4, 43439, Note_on_c, 3, 72, 0
4, 43440, Note_on_c, 3, 72, 49
4, 44159, Note_on_c, 3, 72, 0
4, 44160, Note_on_c, 3, 72, 96
4, 44399, Note_on_c, 3, 72, 0
4, 44400, Note_on_c, 3, 72, 96
4, 44879, Note_on_c, 3, 72, 0
4, 44880, Note_on_c, 3, 72, 96
4, 45359, Note_on_c, 3, 72, 0
4, 45360, Note_on_c, 3, 72, 96
4, 45839, Note_on_c, 3, 72, 0
4, 45840, Note_on_c, 3, 72, 96
4, 46319, Note_on_c, 3, 72, 0
4, 46320, Note_on_c, 3, 72, 96
4, 46799, Note_on_c, 3, 72, 0
4, 46800, Note_on_c, 3, 72, 96
4, 47279, Note_on_c, 3, 72, 0
4, 47280, Note_on_c, 3, 72, 96
4, 47759, Note_on_c, 3, 72, 0
4, 47760, Note_on_c, 3, 72, 96
4, 48239, Note_on_c, 3, 72, 0
4, 48240, Note_on_c, 3, 72, 96
4, 48719, Note_on_c, 3, 72, 0
4, 48720, Note_on_c, 3, 72, 96
4, 48959, Note_on_c, 3, 72, 0
4, 48960, Note_on_c, 3, 79, 96
4, 49199, Note_on_c, 3, 79, 0
4, 49200, Note_on_c, 3, 84, 96
4, 49439, Note_on_c, 3, 84, 0
4, 49440, Note_on_c, 3, 72, 96
4, 49679, Note_on_c, 3, 72, 0
4, 49680, Note_on_c, 3, 67, 96
4, 49919, Note_on_c, 3, 67, 0
4, 49920, Note_on_c, 3, 67, 96
4, 50159, Note_on_c, 3, 67, 0
4, 50160, Note_on_c, 3, 72, 96
4, 51119, Note_on_c, 3, 72, 0
4, 51120, Note_on_c, 3, 69, 96
4, 52079, Note_on_c, 3, 69, 0
4, 52080, Note_on_c, 3, 62, 49
4, 53999, Note_on_c, 3, 62, 0
4, 54000, Note_on_c, 3, 62, 49
4, 55919, Note_on_c, 3, 62, 0
4, 55920, Note_on_c, 3, 62, 49
4, 57839, Note_on_c, 3, 62, 0
4, 57840, Note_on_c, 3, 62, 49
4, 59759, Note_on_c, 3, 62, 0
4, 59760, Note_on_c, 3, 62, 49
4, 61679, Note_on_c, 3, 62, 0
4, 61680, Note_on_c, 3, 62, 49
4, 63599, Note_on_c, 3, 62, 0
4, 63600, Note_on_c, 3, 62, 96
4, 63839, Note_on_c, 3, 62, 0
4, 63840, Note_on_c, 3, 62, 96
4, 64079, Note_on_c, 3, 62, 0
4, 64080, Note_on_c, 3, 62, 96
4, 64319, Note_on_c, 3, 62, 0
4, 64320, Note_on_c, 3, 62, 96
4, 64559, Note_on_c, 3, 62, 0
4, 64560, Note_on_c, 3, 67, 96
4, 64799, Note_on_c, 3, 67, 0
4, 64800, Note_on_c, 3, 67, 96
4, 65039, Note_on_c, 3, 67, 0
4, 65040, Note_on_c, 3, 67, 96
4, 65279, Note_on_c, 3, 67, 0
4, 65280, Note_on_c, 3, 67, 96
4, 65519, Note_on_c, 3, 67, 0
4, 65520, Note_on_c, 3, 72, 96
4, 65759, Note_on_c, 3, 72, 0
4, 65760, Note_on_c, 3, 72, 96
4, 65999, Note_on_c, 3, 72, 0
4, 66000, Note_on_c, 3, 72, 96
4, 66239, Note_on_c, 3, 72, 0
4, 66240, Note_on_c, 3, 72, 96
4, 66479, Note_on_c, 3, 72, 0
4, 66480, Note_on_c, 3, 65, 96
4, 66719, Note_on_c, 3, 65, 0
4, 66720, Note_on_c, 3, 65, 96
4, 66959, Note_on_c, 3, 65, 0
4, 66960, Note_on_c, 3, 65, 96
4, 67199, Note_on_c, 3, 65, 0
4, 67200, Note_on_c, 3, 72, 96
4, 67439, Note_on_c, 3, 72, 0
4, 67440, Note_on_c, 3, 65, 96
4, 67679, Note_on_c, 3, 65, 0
4, 67680, Note_on_c, 3, 65, 96
4, 67919, Note_on_c, 3, 65, 0
4, 67920, Note_on_c, 3, 65, 96
4, 68159, Note_on_c, 3, 65, 0
4, 68160, Note_on_c, 3, 72, 96
4, 68399, Note_on_c, 3, 72, 0
4, 68400, Note_on_c, 3, 65, 96
4, 68639, Note_on_c, 3, 65, 0
4, 68640, Note_on_c, 3, 65, 96
4, 68879, Note_on_c, 3, 65, 0
4, 68880, Note_on_c, 3, 65, 96
4, 69119, Note_on_c, 3, 65, 0
4, 69120, Note_on_c, 3, 72, 96
4, 69359, Note_on_c, 3, 72, 0
4, 69360, Note_on_c, 3, 65, 96
4, 69599, Note_on_c, 3, 65, 0
4, 69600, Note_on_c, 3, 65, 96
4, 69839, Note_on_c, 3, 65, 0
4, 69840, Note_on_c, 3, 65, 96
4, 70079, Note_on_c, 3, 65, 0
4, 70080, Note_on_c, 3, 72, 96
4, 70319, Note_on_c, 3, 72, 0
4, 70320, Note_on_c, 3, 65, 96
4, 70559, Note_on_c, 3, 65, 0
4, 70560, Note_on_c, 3, 65, 96
4, 70799, Note_on_c, 3, 65, 0
4, 70800, Note_on_c, 3, 65, 96
4, 71039, Note_on_c, 3, 65, 0
4, 71040, Note_on_c, 3, 72, 96
4, 71279, Note_on_c, 3, 72, 0
4, 71280, Note_on_c, 3, 65, 96
4, 71519, Note_on_c, 3, 65, 0
4, 71520, Note_on_c, 3, 65, 96
4, 71759, Note_on_c, 3, 65, 0
4, 71760, Note_on_c, 3, 65, 96
4, 71999, Note_on_c, 3, 65, 0
4, 72000, Note_on_c, 3, 72, 96
4, 72239, Note_on_c, 3, 72, 0
4, 72240, Note_on_c, 3, 72, 96
4, 73199, Note_on_c, 3, 72, 0
4, 73200, Note_on_c, 3, 72, 96
4, 75119, Note_on_c, 3, 72, 0
4, 75120, Note_on_c, 3, 72, 96
4, 76079, Note_on_c, 3, 72, 0
4, 76080, Note_on_c, 3, 65, 96
4, 76559, Note_on_c, 3, 65, 0
4, 76560, Note_on_c, 3, 65, 96
4, 77039, Note_on_c, 3, 65, 0
4, 77040, Note_on_c, 3, 67, 96
4, 77519, Note_on_c, 3, 67, 0
4, 77520, Note_on_c, 3, 67, 96
4, 77999, Note_on_c, 3, 67, 0
4, 78000, Note_on_c, 3, 69, 96
4, 78479, Note_on_c, 3, 69, 0
4, 78480, Note_on_c, 3, 69, 96
4, 78959, Note_on_c, 3, 69, 0
4, 78960, Note_on_c, 3, 70, 96
4, 79439, Note_on_c, 3, 70, 0
4, 79440, Note_on_c, 3, 69, 96
4, 79679, Note_on_c, 3, 69, 0
4, 79680, Note_on_c, 3, 67, 96
4, 79919, Note_on_c, 3, 67, 0
4, 79920, Note_on_c, 3, 65, 96
4, 80879, Note_on_c, 3, 65, 0
4, 80880, Note_on_c, 3, 65, 96
4, 81359, Note_on_c, 3, 65, 0
4, 81840, Note_on_c, 3, 65, 96
4, 82319, Note_on_c, 3, 65, 0
4, 82320, Note_on_c, 3, 72, 96
4, 82799, Note_on_c, 3, 72, 0
4, 82800, Note_on_c, 3, 65, 112
4, 83279, Note_on_c, 3, 65, 0
4, 83280, Note_on_c, 3, 65, 112
4, 83759, Note_on_c, 3, 65, 0
4, 83760, Note_on_c, 3, 65, 112
4, 84239, Note_on_c, 3, 65, 0
4, 84240, Note_on_c, 3, 65, 112
4, 84719, Note_on_c, 3, 65, 0
4, 84720, Note_on_c, 3, 65, 112
4, 85199, Note_on_c, 3, 65, 0
4, 85200, Note_on_c, 3, 65, 112
4, 85679, Note_on_c, 3, 65, 0
4, 85680, Note_on_c, 3, 65, 112
4, 86159, Note_on_c, 3, 65, 0
4, 86160, Note_on_c, 3, 65, 112
4, 86639, Note_on_c, 3, 65, 0
4, 86640, Note_on_c, 3, 65, 112
4, 87119, Note_on_c, 3, 65, 0
4, 87120, Note_on_c, 3, 65, 112
4, 87359, Note_on_c, 3, 65, 0
4, 87360, Note_on_c, 3, 72, 112
4, 87599, Note_on_c, 3, 72, 0
4, 87600, Note_on_c, 3, 77, 112
4, 87839, Note_on_c, 3, 77, 0
4, 87840, Note_on_c, 3, 77, 112
4, 88079, Note_on_c, 3, 77, 0
4, 88080, Note_on_c, 3, 84, 112
4, 88319, Note_on_c, 3, 84, 0
4, 88320, Note_on_c, 3, 72, 112
4, 88559, Note_on_c, 3, 72, 0
4, 88560, Note_on_c, 3, 65, 112
4, 89279, Note_on_c, 3, 65, 0
4, 89280, Note_on_c, 3, 65, 112
4, 89519, Note_on_c, 3, 65, 0
4, 89520, Note_on_c, 3, 65, 112
4, 89999, Note_on_c, 3, 65, 0
4, 90000, Note_on_c, 3, 65, 112
4, 90479, Note_on_c, 3, 65, 0
4, 90480, Note_on_c, 3, 65, 112
4, 90959, Note_on_c, 3, 65, 0
4, 90960, Note_on_c, 3, 65, 112
4, 91439, Note_on_c, 3, 65, 0
4, 91440, Note_on_c, 3, 65, 112
4, 91919, Note_on_c, 3, 65, 0
4, 91920, Note_on_c, 3, 65, 112
4, 92399, Note_on_c, 3, 65, 0
4, 92400, Note_on_c, 3, 65, 112
4, 92879, Note_on_c, 3, 65, 0
4, 92880, Note_on_c, 3, 65, 112
4, 93359, Note_on_c, 3, 65, 0
4, 93360, Note_on_c, 3, 65, 112
4, 93839, Note_on_c, 3, 65, 0
4, 93840, Note_on_c, 3, 65, 112
4, 94079, Note_on_c, 3, 65, 0
4, 94080, Note_on_c, 3, 72, 112
4, 94319, Note_on_c, 3, 72, 0
4, 94320, Note_on_c, 3, 77, 112
4, 94559, Note_on_c, 3, 77, 0
4, 94560, Note_on_c, 3, 77, 112
4, 94799, Note_on_c, 3, 77, 0
4, 94800, Note_on_c, 3, 84, 112
4, 95039, Note_on_c, 3, 84, 0
4, 95040, Note_on_c, 3, 72, 112
4, 95279, Note_on_c, 3, 72, 0
4, 95280, Note_on_c, 3, 65, 112
4, 96239, Note_on_c, 3, 65, 0
4, 96240, End_track
0, 0, End_of_file
