0, 0, Header, 1, 2, 480
1, 0, Start_track
1, 0, Time_signature, 1, 2, 24, 8
1, 0, Key_signature, 0, "major"
1, 0, Key_signature, 0, "major"
1, 0, Key_signature, 0, "major"
1, 0, Tempo, 500000
1, 0, Control_c, 0, 121, 0
1, 0, Program_c, 0, 0
1, 0, Control_c, 0, 7, 100
1, 0, Control_c, 0, 10, 64
1, 0, Control_c, 0, 91, 30
1, 0, Control_c, 0, 93, 30
1, 0, MIDI_port, 0
1, 0, Note_on_c, 0, 64, 64
1, 479, Note_on_c, 0, 64, 0
1, 480, Time_signature, 3, 2, 24, 8
1, 480, Note_on_c, 0, 69, 64
1, 719, Note_on_c, 0, 69, 0
1, 720, Note_on_c, 0, 71, 64
1, 959, Note_on_c, 0, 71, 0
1, 960, Note_on_c, 0, 72, 64
1, 1439, Note_on_c, 0, 72, 0
1, 1440, Note_on_c, 0, 72, 64
1, 1919, Note_on_c, 0, 72, 0
1, 1920, Note_on_c, 0, 74, 64
1, 2159, Note_on_c, 0, 74, 0
1, 2160, Note_on_c, 0, 76, 64
1, 2399, Note_on_c, 0, 76, 0
1, 2400, Note_on_c, 0, 77, 64
1, 3359, Note_on_c, 0, 77, 0
1, 3360, Note_on_c, 0, 71, 64
1, 3599, Note_on_c, 0, 71, 0
1, 3600, Note_on_c, 0, 72, 64
1, 3839, Note_on_c, 0, 72, 0
1, 3840, Note_on_c, 0, 74, 64
1, 4079, Note_on_c, 0, 74, 0
1, 4080, Note_on_c, 0, 81, 64
1, 4319, Note_on_c, 0, 81, 0
1, 4320, Note_on_c, 0, 79, 64
1, 4559, Note_on_c, 0, 79, 0
1, 4560, Note_on_c, 0, 77, 64
1, 4799, Note_on_c, 0, 77, 0
1, 4800, Note_on_c, 0, 76, 64
1, 4859, Note_on_c, 0, 76, 0
1, 4860, Note_on_c, 0, 77, 64
1, 4919, Note_on_c, 0, 77, 0
1, 4920, Note_on_c, 0, 76, 64
1, 5039, Note_on_c, 0, 76, 0
1, 5040, Note_on_c, 0, 75, 64
1, 5279, Note_on_c, 0, 75, 0
1, 5280, Note_on_c, 0, 76, 64
1, 6239, Note_on_c, 0, 76, 0
1, 6240, Note_on_c, 0, 69, 64
1, 6479, Note_on_c, 0, 69, 0
1, 6480, Note_on_c, 0, 71, 64
1, 6719, Note_on_c, 0, 71, 0
1, 6720, Note_on_c, 0, 72, 64
1, 7199, Note_on_c, 0, 72, 0
1, 7200, Note_on_c, 0, 72, 64
1, 7679, Note_on_c, 0, 72, 0
1, 7680, Note_on_c, 0, 74, 64
1, 7919, Note_on_c, 0, 74, 0
1, 7920, Note_on_c, 0, 76, 64
1, 8159, Note_on_c, 0, 76, 0
1, 8160, Note_on_c, 0, 77, 64
1, 9119, Note_on_c, 0, 77, 0
1, 9120, Note_on_c, 0, 71, 64
1, 9359, Note_on_c, 0, 71, 0
1, 9360, Note_on_c, 0, 72, 64
1, 9599, Note_on_c, 0, 72, 0
1, 9600, Note_on_c, 0, 74, 64
1, 9839, Note_on_c, 0, 74, 0
1, 9840, Note_on_c, 0, 81, 64
1, 10079, Note_on_c, 0, 81, 0
1, 10080, Note_on_c, 0, 79, 64
1, 10319, Note_on_c, 0, 79, 0
1, 10320, Note_on_c, 0, 71, 64
1, 10559, Note_on_c, 0, 71, 0
1, 10560, Note_on_c, 0, 72, 64
1, 11039, Note_on_c, 0, 72, 0
1, 11520, Note_on_c, 0, 64, 64
1, 11999, Note_on_c, 0, 64, 0
1, 12000, Note_on_c, 0, 69, 64
1, 12239, Note_on_c, 0, 69, 0
1, 12240, Note_on_c, 0, 71, 64
1, 12479, Note_on_c, 0, 71, 0
1, 12480, Note_on_c, 0, 72, 64
1, 12959, Note_on_c, 0, 72, 0
1, 12960, Note_on_c, 0, 72, 64
1, 13439, Note_on_c, 0, 72, 0
1, 13440, Note_on_c, 0, 74, 64
1, 13679, Note_on_c, 0, 74, 0
1, 13680, Note_on_c, 0, 76, 64
1, 13919, Note_on_c, 0, 76, 0
1, 13920, Note_on_c, 0, 77, 64
1, 14879, Note_on_c, 0, 77, 0
1, 14880, Note_on_c, 0, 71, 64
1, 15119, Note_on_c, 0, 71, 0
1, 15120, Note_on_c, 0, 72, 64
1, 15359, Note_on_c, 0, 72, 0
1, 15360, Note_on_c, 0, 74, 64
1, 15599, Note_on_c, 0, 74, 0
1, 15600, Note_on_c, 0, 81, 64
1, 15839, Note_on_c, 0, 81, 0
1, 15840, Note_on_c, 0, 79, 64
1, 16079, Note_on_c, 0, 79, 0
1, 16080, Note_on_c, 0, 77, 64
1, 16319, Note_on_c, 0, 77, 0
1, 16320, Note_on_c, 0, 76, 64
1, 16379, Note_on_c, 0, 76, 0
1, 16380, Note_on_c, 0, 77, 64
1, 16439, Note_on_c, 0, 77, 0
1, 16440, Note_on_c, 0, 76, 64
1, 16559, Note_on_c, 0, 76, 0
1, 16560, Note_on_c, 0, 75, 64
1, 16799, Note_on_c, 0, 75, 0
1, 16800, Note_on_c, 0, 76, 64
1, 17759, Note_on_c, 0, 76, 0
1, 17760, Note_on_c, 0, 72, 64
1, 17999, Note_on_c, 0, 72, 0
1, 18000, Note_on_c, 0, 74, 64
1, 18239, Note_on_c, 0, 74, 0
1, 18240, Note_on_c, 0, 76, 64
1, 18719, Note_on_c, 0, 76, 0
1, 18720, Note_on_c, 0, 76, 64
1, 19199, Note_on_c, 0, 76, 0
1, 19200, Note_on_c, 0, 77, 64
1, 19439, Note_on_c, 0, 77, 0
1, 19440, Note_on_c, 0, 79, 64
1, 19679, Note_on_c, 0, 79, 0
1, 19680, Note_on_c, 0, 81, 64
1, 20639, Note_on_c, 0, 81, 0
1, 20640, Note_on_c, 0, 79, 64
1, 21119, Note_on_c, 0, 79, 0
1, 21120, Note_on_c, 0, 78, 64
1, 21359, Note_on_c, 0, 78, 0
1, 21360, Note_on_c, 0, 79, 64
1, 21599, Note_on_c, 0, 79, 0
1, 21600, Note_on_c, 0, 86, 64
1, 21839, Note_on_c, 0, 86, 0
1, 21840, Note_on_c, 0, 77, 64
1, 22079, Note_on_c, 0, 77, 0
1, 22080, Note_on_c, 0, 76, 64
1, 23519, Note_on_c, 0, 76, 0
1, 23520, Note_on_c, 0, 76, 64
1, 23759, Note_on_c, 0, 76, 0
1, 23760, Note_on_c, 0, 78, 64
1, 23999, Note_on_c, 0, 78, 0
1, 24000, Note_on_c, 0, 80, 64
1, 24239, Note_on_c, 0, 80, 0
1, 24240, Note_on_c, 0, 81, 64
1, 24479, Note_on_c, 0, 81, 0
1, 24480, Note_on_c, 0, 83, 64
1, 24719, Note_on_c, 0, 83, 0
1, 24720, Note_on_c, 0, 84, 64
1, 24959, Note_on_c, 0, 84, 0
1, 24960, Note_on_c, 0, 83, 64
1, 25019, Note_on_c, 0, 83, 0
1, 25020, Note_on_c, 0, 84, 64
1, 25079, Note_on_c, 0, 84, 0
1, 25080, Note_on_c, 0, 83, 64
1, 25199, Note_on_c, 0, 83, 0
1, 25200, Note_on_c, 0, 81, 64
1, 25439, Note_on_c, 0, 81, 0
1, 25440, Note_on_c, 0, 76, 64
1, 25679, Note_on_c, 0, 76, 0
1, 25680, Note_on_c, 0, 83, 64
1, 25919, Note_on_c, 0, 83, 0
1, 25920, Note_on_c, 0, 81, 64
1, 26399, Note_on_c, 0, 81, 0
1, 26400, Note_on_c, 0, 81, 64
1, 26459, Note_on_c, 0, 81, 0
1, 26460, Note_on_c, 0, 83, 64
1, 26519, Note_on_c, 0, 83, 0
1, 26520, Note_on_c, 0, 81, 64
1, 26639, Note_on_c, 0, 81, 0
1, 26640, Note_on_c, 0, 80, 64
1, 26879, Note_on_c, 0, 80, 0
1, 26880, Note_on_c, 0, 76, 64
1, 27119, Note_on_c, 0, 76, 0
1, 27120, Note_on_c, 0, 77, 64
1, 27359, Note_on_c, 0, 77, 0
1, 27360, Note_on_c, 0, 76, 64
1, 27839, Note_on_c, 0, 76, 0
1, 27840, Note_on_c, 0, 76, 64
1, 27899, Note_on_c, 0, 76, 0
1, 27900, Note_on_c, 0, 77, 64
1, 27959, Note_on_c, 0, 77, 0
1, 27960, Note_on_c, 0, 76, 64
1, 28079, Note_on_c, 0, 76, 0
1, 28080, Note_on_c, 0, 72, 64
1, 28319, Note_on_c, 0, 72, 0
1, 28320, Note_on_c, 0, 69, 64
1, 28559, Note_on_c, 0, 69, 0
1, 28560, Note_on_c, 0, 71, 64
1, 28799, Note_on_c, 0, 71, 0
1, 28800, Note_on_c, 0, 69, 64
1, 29279, Note_on_c, 0, 69, 0
1, 29280, Note_on_c, 0, 64, 64
1, 29439, Note_on_c, 0, 64, 0
1, 29440, Note_on_c, 0, 68, 64
1, 29599, Note_on_c, 0, 68, 0
1, 29600, Note_on_c, 0, 71, 64
1, 29759, Note_on_c, 0, 71, 0
1, 29760, Note_on_c, 0, 76, 64
1, 29855, Note_on_c, 0, 76, 0
1, 29856, Note_on_c, 0, 80, 64
1, 29951, Note_on_c, 0, 80, 0
1, 29952, Note_on_c, 0, 83, 64
1, 30047, Note_on_c, 0, 83, 0
1, 30048, Note_on_c, 0, 88, 64
1, 30143, Note_on_c, 0, 88, 0
1, 30144, Note_on_c, 0, 92, 64
1, 30239, Note_on_c, 0, 92, 0
1, 30240, Note_on_c, 0, 95, 64
1, 30599, Note_on_c, 0, 95, 0
1, 30600, Note_on_c, 0, 96, 64
1, 30719, Note_on_c, 0, 96, 0
1, 30720, Note_on_c, 0, 95, 64
1, 30779, Note_on_c, 0, 95, 0
1, 30780, Note_on_c, 0, 96, 64
1, 30839, Note_on_c, 0, 96, 0
1, 30840, Note_on_c, 0, 95, 64
1, 30959, Note_on_c, 0, 95, 0
1, 30960, Note_on_c, 0, 93, 64
1, 31199, Note_on_c, 0, 93, 0
1, 31200, Note_on_c, 0, 88, 64
1, 31439, Note_on_c, 0, 88, 0
1, 31440, Note_on_c, 0, 95, 64
1, 31679, Note_on_c, 0, 95, 0
1, 31680, Note_on_c, 0, 93, 64
1, 32159, Note_on_c, 0, 93, 0
1, 32160, Note_on_c, 0, 93, 64
1, 32219, Note_on_c, 0, 93, 0
1, 32220, Note_on_c, 0, 95, 64
1, 32279, Note_on_c, 0, 95, 0
1, 32280, Note_on_c, 0, 93, 64
1, 32399, Note_on_c, 0, 93, 0
1, 32400, Note_on_c, 0, 92, 64
1, 32639, Note_on_c, 0, 92, 0
1, 32640, Note_on_c, 0, 88, 64
1, 32879, Note_on_c, 0, 88, 0
1, 32880, Note_on_c, 0, 100, 64
1, 33119, Note_on_c, 0, 100, 0
1, 33120, Note_on_c, 0, 100, 64
1, 33599, Note_on_c, 0, 100, 0
1, 33600, Note_on_c, 0, 93, 64
1, 34559, Note_on_c, 0, 93, 0
1, 35040, Note_on_c, 0, 76, 64
1, 35279, Note_on_c, 0, 76, 0
1, 35280, Note_on_c, 0, 78, 64
1, 35519, Note_on_c, 0, 78, 0
1, 35520, Note_on_c, 0, 80, 64
1, 35759, Note_on_c, 0, 80, 0
1, 35760, Note_on_c, 0, 81, 64
1, 35999, Note_on_c, 0, 81, 0
1, 36000, Note_on_c, 0, 83, 64
1, 36239, Note_on_c, 0, 83, 0
1, 36240, Note_on_c, 0, 84, 64
1, 36479, Note_on_c, 0, 84, 0
1, 36480, Note_on_c, 0, 83, 64
1, 36539, Note_on_c, 0, 83, 0
1, 36540, Note_on_c, 0, 84, 64
1, 36599, Note_on_c, 0, 84, 0
1, 36600, Note_on_c, 0, 83, 64
1, 36719, Note_on_c, 0, 83, 0
1, 36720, Note_on_c, 0, 81, 64
1, 36959, Note_on_c, 0, 81, 0
1, 36960, Note_on_c, 0, 76, 64
1, 37199, Note_on_c, 0, 76, 0
1, 37200, Note_on_c, 0, 83, 64
1, 37439, Note_on_c, 0, 83, 0
1, 37440, Note_on_c, 0, 81, 64
1, 37919, Note_on_c, 0, 81, 0
1, 37920, Note_on_c, 0, 81, 64
1, 37979, Note_on_c, 0, 81, 0
1, 37980, Note_on_c, 0, 83, 64
1, 38039, Note_on_c, 0, 83, 0
1, 38040, Note_on_c, 0, 81, 64
1, 38159, Note_on_c, 0, 81, 0
1, 38160, Note_on_c, 0, 80, 64
1, 38399, Note_on_c, 0, 80, 0
1, 38400, Note_on_c, 0, 76, 64
1, 38639, Note_on_c, 0, 76, 0
1, 38640, Note_on_c, 0, 77, 64
1, 38879, Note_on_c, 0, 77, 0
1, 38880, Note_on_c, 0, 76, 64
1, 39359, Note_on_c, 0, 76, 0
1, 39360, Note_on_c, 0, 76, 64
1, 39419, Note_on_c, 0, 76, 0
1, 39420, Note_on_c, 0, 77, 64
1, 39479, Note_on_c, 0, 77, 0
1, 39480, Note_on_c, 0, 76, 64
1, 39599, Note_on_c, 0, 76, 0
1, 39600, Note_on_c, 0, 72, 64
1, 39839, Note_on_c, 0, 72, 0
1, 39840, Note_on_c, 0, 69, 64
1, 40079, Note_on_c, 0, 69, 0
1, 40080, Note_on_c, 0, 71, 64
1, 40319, Note_on_c, 0, 71, 0
1, 40320, Note_on_c, 0, 69, 64
1, 40799, Note_on_c, 0, 69, 0
1, 40800, Note_on_c, 0, 64, 64
1, 40959, Note_on_c, 0, 64, 0
1, 40960, Note_on_c, 0, 68, 64
1, 41119, Note_on_c, 0, 68, 0
1, 41120, Note_on_c, 0, 71, 64
1, 41279, Note_on_c, 0, 71, 0
1, 41280, Note_on_c, 0, 76, 64
1, 41375, Note_on_c, 0, 76, 0
1, 41376, Note_on_c, 0, 80, 64
1, 41471, Note_on_c, 0, 80, 0
1, 41472, Note_on_c, 0, 83, 64
1, 41567, Note_on_c, 0, 83, 0
1, 41568, Note_on_c, 0, 88, 64
1, 41663, Note_on_c, 0, 88, 0
1, 41664, Note_on_c, 0, 92, 64
1, 41759, Note_on_c, 0, 92, 0
1, 41760, Note_on_c, 0, 95, 64
1, 42119, Note_on_c, 0, 95, 0
1, 42120, Note_on_c, 0, 96, 64
1, 42239, Note_on_c, 0, 96, 0
1, 42240, Note_on_c, 0, 95, 64
1, 42299, Note_on_c, 0, 95, 0
1, 42300, Note_on_c, 0, 96, 64
1, 42359, Note_on_c, 0, 96, 0
1, 42360, Note_on_c, 0, 95, 64
1, 42479, Note_on_c, 0, 95, 0
1, 42480, Note_on_c, 0, 93, 64
1, 42719, Note_on_c, 0, 93, 0
1, 42720, Note_on_c, 0, 88, 64
1, 42959, Note_on_c, 0, 88, 0
1, 42960, Note_on_c, 0, 95, 64
1, 43199, Note_on_c, 0, 95, 0
1, 43200, Note_on_c, 0, 93, 64
1, 43679, Note_on_c, 0, 93, 0
1, 43680, Note_on_c, 0, 93, 64
1, 43739, Note_on_c, 0, 93, 0
1, 43740, Note_on_c, 0, 95, 64
1, 43799, Note_on_c, 0, 95, 0
1, 43800, Note_on_c, 0, 93, 64
1, 43919, Note_on_c, 0, 93, 0
1, 43920, Note_on_c, 0, 92, 64
1, 44159, Note_on_c, 0, 92, 0
1, 44160, Note_on_c, 0, 88, 64
1, 44399, Note_on_c, 0, 88, 0
1, 44400, Note_on_c, 0, 100, 64
1, 44639, Note_on_c, 0, 100, 0
1, 44640, Note_on_c, 0, 100, 64
1, 45119, Note_on_c, 0, 100, 0
1, 45120, Note_on_c, 0, 93, 64
1, 46079, Note_on_c, 0, 93, 0
1, 46560, Note_on_c, 0, 69, 64
1, 46799, Note_on_c, 0, 69, 0
1, 46800, Note_on_c, 0, 71, 64
1, 47039, Note_on_c, 0, 71, 0
1, 47040, Note_on_c, 0, 72, 64
1, 47519, Note_on_c, 0, 72, 0
1, 47520, Note_on_c, 0, 72, 64
1, 47999, Note_on_c, 0, 72, 0
1, 48000, Note_on_c, 0, 74, 64
1, 48239, Note_on_c, 0, 74, 0
1, 48240, Note_on_c, 0, 76, 64
1, 48479, Note_on_c, 0, 76, 0
1, 48480, Note_on_c, 0, 77, 64
1, 49439, Note_on_c, 0, 77, 0
1, 49440, Note_on_c, 0, 71, 64
1, 49679, Note_on_c, 0, 71, 0
1, 49680, Note_on_c, 0, 72, 64
1, 49919, Note_on_c, 0, 72, 0
1, 49920, Note_on_c, 0, 74, 64
1, 50159, Note_on_c, 0, 74, 0
1, 50160, Note_on_c, 0, 81, 64
1, 50399, Note_on_c, 0, 81, 0
1, 50400, Note_on_c, 0, 79, 64
1, 50639, Note_on_c, 0, 79, 0
1, 50640, Note_on_c, 0, 77, 64
1, 50879, Note_on_c, 0, 77, 0
1, 50880, Note_on_c, 0, 76, 64
1, 50939, Note_on_c, 0, 76, 0
1, 50940, Note_on_c, 0, 77, 64
1, 50999, Note_on_c, 0, 77, 0
1, 51000, Note_on_c, 0, 76, 64
1, 51119, Note_on_c, 0, 76, 0
1, 51120, Note_on_c, 0, 75, 64
1, 51359, Note_on_c, 0, 75, 0
1, 51360, Note_on_c, 0, 76, 64
1, 52319, Note_on_c, 0, 76, 0
1, 52320, Note_on_c, 0, 72, 64
1, 52559, Note_on_c, 0, 72, 0
1, 52560, Note_on_c, 0, 74, 64
1, 52799, Note_on_c, 0, 74, 0
1, 52800, Note_on_c, 0, 76, 64
1, 53279, Note_on_c, 0, 76, 0
1, 53280, Note_on_c, 0, 76, 64
1, 53759, Note_on_c, 0, 76, 0
1, 53760, Note_on_c, 0, 77, 64
1, 53999, Note_on_c, 0, 77, 0
1, 54000, Note_on_c, 0, 79, 64
1, 54239, Note_on_c, 0, 79, 0
1, 54240, Note_on_c, 0, 81, 64
1, 55199, Note_on_c, 0, 81, 0
1, 55200, Note_on_c, 0, 75, 64
1, 55439, Note_on_c, 0, 75, 0
1, 55440, Note_on_c, 0, 76, 64
1, 55679, Note_on_c, 0, 76, 0
1, 55680, Note_on_c, 0, 78, 64
1, 56159, Note_on_c, 0, 78, 0
1, 56160, Note_on_c, 0, 78, 64
1, 56639, Note_on_c, 0, 78, 0
1, 56640, Note_on_c, 0, 80, 64
1, 56879, Note_on_c, 0, 80, 0
1, 56880, Note_on_c, 0, 81, 64
1, 57119, Note_on_c, 0, 81, 0
1, 57120, Note_on_c, 0, 83, 64
1, 58079, Note_on_c, 0, 83, 0
1, 58080, Note_on_c, 0, 83, 64
1, 58319, Note_on_c, 0, 83, 0
1, 58320, Note_on_c, 0, 85, 64
1, 58559, Note_on_c, 0, 85, 0
1, 58560, Note_on_c, 0, 86, 64
1, 58799, Note_on_c, 0, 86, 0
1, 58800, Note_on_c, 0, 90, 64
1, 59039, Note_on_c, 0, 90, 0
1, 59040, Note_on_c, 0, 88, 64
1, 59279, Note_on_c, 0, 88, 0
1, 59280, Note_on_c, 0, 86, 64
1, 59519, Note_on_c, 0, 86, 0
1, 59520, Note_on_c, 0, 85, 64
1, 59579, Note_on_c, 0, 85, 0
1, 59580, Note_on_c, 0, 86, 64
1, 59639, Note_on_c, 0, 86, 0
1, 59640, Note_on_c, 0, 85, 64
1, 59759, Note_on_c, 0, 85, 0
1, 59760, Note_on_c, 0, 83, 64
1, 59999, Note_on_c, 0, 83, 0
1, 60000, Note_on_c, 0, 85, 64
1, 60239, Note_on_c, 0, 85, 0
1, 60240, Note_on_c, 0, 80, 64
1, 60479, Note_on_c, 0, 80, 0
1, 60480, Note_on_c, 0, 81, 64
1, 60719, Note_on_c, 0, 81, 0
1, 60720, Note_on_c, 0, 78, 64
1, 60959, Note_on_c, 0, 78, 0
1, 60960, Note_on_c, 0, 76, 64
1, 61019, Note_on_c, 0, 76, 0
1, 61020, Note_on_c, 0, 78, 64
1, 61079, Note_on_c, 0, 78, 0
1, 61080, Note_on_c, 0, 76, 64
1, 61199, Note_on_c, 0, 76, 0
1, 61200, Note_on_c, 0, 74, 64
1, 61439, Note_on_c, 0, 74, 0
1, 61440, Note_on_c, 0, 68, 64
1, 61679, Note_on_c, 0, 68, 0
1, 61680, Note_on_c, 0, 78, 64
1, 61919, Note_on_c, 0, 78, 0
1, 61920, Note_on_c, 0, 76, 64
1, 62399, Note_on_c, 0, 76, 0
1, 62400, Note_on_c, 0, 76, 64
1, 62459, Note_on_c, 0, 76, 0
1, 62460, Note_on_c, 0, 78, 64
1, 62519, Note_on_c, 0, 78, 0
1, 62520, Note_on_c, 0, 76, 64
1, 62639, Note_on_c, 0, 76, 0
1, 62640, Note_on_c, 0, 73, 64
1, 62879, Note_on_c, 0, 73, 0
1, 62880, Note_on_c, 0, 69, 64
1, 63119, Note_on_c, 0, 69, 0
1, 63120, Note_on_c, 0, 78, 64
1, 63359, Note_on_c, 0, 78, 0
1, 63360, Note_on_c, 0, 76, 64
1, 63839, Note_on_c, 0, 76, 0
1, 63840, Note_on_c, 0, 83, 64
1, 64079, Note_on_c, 0, 83, 0
1, 64080, Note_on_c, 0, 85, 64
1, 64319, Note_on_c, 0, 85, 0
1, 64320, Note_on_c, 0, 86, 64
1, 64559, Note_on_c, 0, 86, 0
1, 64560, Note_on_c, 0, 90, 64
1, 64799, Note_on_c, 0, 90, 0
1, 64800, Note_on_c, 0, 88, 64
1, 65039, Note_on_c, 0, 88, 0
1, 65040, Note_on_c, 0, 86, 64
1, 65279, Note_on_c, 0, 86, 0
1, 65280, Note_on_c, 0, 85, 64
1, 65339, Note_on_c, 0, 85, 0
1, 65340, Note_on_c, 0, 86, 64
1, 65399, Note_on_c, 0, 86, 0
1, 65400, Note_on_c, 0, 85, 64
1, 65519, Note_on_c, 0, 85, 0
1, 65520, Note_on_c, 0, 83, 64
1, 65759, Note_on_c, 0, 83, 0
1, 65760, Note_on_c, 0, 85, 64
1, 65999, Note_on_c, 0, 85, 0
1, 66000, Note_on_c, 0, 80, 64
1, 66239, Note_on_c, 0, 80, 0
1, 66240, Note_on_c, 0, 81, 64
1, 66479, Note_on_c, 0, 81, 0
1, 66480, Note_on_c, 0, 78, 64
1, 66719, Note_on_c, 0, 78, 0
1, 66720, Note_on_c, 0, 76, 64
1, 66779, Note_on_c, 0, 76, 0
1, 66780, Note_on_c, 0, 78, 64
1, 66839, Note_on_c, 0, 78, 0
1, 66840, Note_on_c, 0, 76, 64
1, 66959, Note_on_c, 0, 76, 0
1, 66960, Note_on_c, 0, 74, 64
1, 67199, Note_on_c, 0, 74, 0
1, 67200, Note_on_c, 0, 68, 64
1, 67439, Note_on_c, 0, 68, 0
1, 67440, Note_on_c, 0, 78, 64
1, 67679, Note_on_c, 0, 78, 0
1, 67680, Note_on_c, 0, 76, 64
1, 67919, Note_on_c, 0, 76, 0
1, 67920, Note_on_c, 0, 68, 64
1, 68159, Note_on_c, 0, 68, 0
1, 68160, Note_on_c, 0, 69, 64
1, 68639, Note_on_c, 0, 69, 0
1, 69120, Note_on_c, 0, 64, 64
1, 69599, Note_on_c, 0, 64, 0
1, 69600, Note_on_c, 0, 69, 64
1, 69839, Note_on_c, 0, 69, 0
1, 69840, Note_on_c, 0, 71, 64
1, 70079, Note_on_c, 0, 71, 0
1, 70080, Note_on_c, 0, 72, 64
1, 70559, Note_on_c, 0, 72, 0
1, 70560, Note_on_c, 0, 72, 64
1, 71039, Note_on_c, 0, 72, 0
1, 71040, Note_on_c, 0, 74, 64
1, 71279, Note_on_c, 0, 74, 0
1, 71280, Note_on_c, 0, 76, 64
1, 71519, Note_on_c, 0, 76, 0
1, 71520, Note_on_c, 0, 77, 64
1, 72479, Note_on_c, 0, 77, 0
1, 72480, Note_on_c, 0, 71, 64
1, 72719, Note_on_c, 0, 71, 0
1, 72720, Note_on_c, 0, 72, 64
1, 72959, Note_on_c, 0, 72, 0
1, 72960, Note_on_c, 0, 74, 64
1, 73199, Note_on_c, 0, 74, 0
1, 73200, Note_on_c, 0, 81, 64
1, 73439, Note_on_c, 0, 81, 0
1, 73440, Note_on_c, 0, 79, 64
1, 73679, Note_on_c, 0, 79, 0
1, 73680, Note_on_c, 0, 77, 64
1, 73919, Note_on_c, 0, 77, 0
1, 73920, Note_on_c, 0, 76, 64
1, 73979, Note_on_c, 0, 76, 0
1, 73980, Note_on_c, 0, 77, 64
1, 74039, Note_on_c, 0, 77, 0
1, 74040, Note_on_c, 0, 76, 64
1, 74159, Note_on_c, 0, 76, 0
1, 74160, Note_on_c, 0, 75, 64
1, 74399, Note_on_c, 0, 75, 0
1, 74400, Note_on_c, 0, 76, 64
1, 75359, Note_on_c, 0, 76, 0
1, 75360, Note_on_c, 0, 72, 64
1, 75599, Note_on_c, 0, 72, 0
1, 75600, Note_on_c, 0, 74, 64
1, 75839, Note_on_c, 0, 74, 0
1, 75840, Note_on_c, 0, 76, 64
1, 76319, Note_on_c, 0, 76, 0
1, 76320, Note_on_c, 0, 76, 64
1, 76799, Note_on_c, 0, 76, 0
1, 76800, Note_on_c, 0, 77, 64
1, 77039, Note_on_c, 0, 77, 0
1, 77040, Note_on_c, 0, 79, 64
1, 77279, Note_on_c, 0, 79, 0
1, 77280, Note_on_c, 0, 81, 64
1, 78239, Note_on_c, 0, 81, 0
1, 78240, Note_on_c, 0, 75, 64
1, 78479, Note_on_c, 0, 75, 0
1, 78480, Note_on_c, 0, 76, 64
1, 78719, Note_on_c, 0, 76, 0
1, 78720, Note_on_c, 0, 78, 64
1, 79199, Note_on_c, 0, 78, 0
1, 79200, Note_on_c, 0, 78, 64
1, 79679, Note_on_c, 0, 78, 0
1, 79680, Note_on_c, 0, 80, 64
1, 79919, Note_on_c, 0, 80, 0
1, 79920, Note_on_c, 0, 81, 64
1, 80159, Note_on_c, 0, 81, 0
1, 80160, Note_on_c, 0, 83, 64
1, 81119, Note_on_c, 0, 83, 0
1, 81120, Note_on_c, 0, 83, 64
1, 81359, Note_on_c, 0, 83, 0
1, 81360, Note_on_c, 0, 85, 64
1, 81599, Note_on_c, 0, 85, 0
1, 81600, Note_on_c, 0, 86, 64
1, 81839, Note_on_c, 0, 86, 0
1, 81840, Note_on_c, 0, 90, 64
1, 82079, Note_on_c, 0, 90, 0
1, 82080, Note_on_c, 0, 88, 64
1, 82319, Note_on_c, 0, 88, 0
1, 82320, Note_on_c, 0, 86, 64
1, 82559, Note_on_c, 0, 86, 0
1, 82560, Note_on_c, 0, 85, 64
1, 82619, Note_on_c, 0, 85, 0
1, 82620, Note_on_c, 0, 86, 64
1, 82679, Note_on_c, 0, 86, 0
1, 82680, Note_on_c, 0, 85, 64
1, 82799, Note_on_c, 0, 85, 0
1, 82800, Note_on_c, 0, 83, 64
1, 83039, Note_on_c, 0, 83, 0
1, 83040, Note_on_c, 0, 85, 64
1, 83279, Note_on_c, 0, 85, 0
1, 83280, Note_on_c, 0, 80, 64
1, 83519, Note_on_c, 0, 80, 0
1, 83520, Note_on_c, 0, 81, 64
1, 83759, Note_on_c, 0, 81, 0
1, 83760, Note_on_c, 0, 78, 64
1, 83999, Note_on_c, 0, 78, 0
1, 84000, Note_on_c, 0, 76, 64
1, 84059, Note_on_c, 0, 76, 0
1, 84060, Note_on_c, 0, 78, 64
1, 84119, Note_on_c, 0, 78, 0
1, 84120, Note_on_c, 0, 76, 64
1, 84239, Note_on_c, 0, 76, 0
1, 84240, Note_on_c, 0, 74, 64
1, 84479, Note_on_c, 0, 74, 0
1, 84480, Note_on_c, 0, 68, 64
1, 84719, Note_on_c, 0, 68, 0
1, 84720, Note_on_c, 0, 78, 64
1, 84959, Note_on_c, 0, 78, 0
1, 84960, Note_on_c, 0, 76, 64
1, 85439, Note_on_c, 0, 76, 0
1, 85440, Note_on_c, 0, 76, 64
1, 85499, Note_on_c, 0, 76, 0
1, 85500, Note_on_c, 0, 78, 64
1, 85559, Note_on_c, 0, 78, 0
1, 85560, Note_on_c, 0, 76, 64
1, 85679, Note_on_c, 0, 76, 0
1, 85680, Note_on_c, 0, 73, 64
1, 85919, Note_on_c, 0, 73, 0
1, 85920, Note_on_c, 0, 69, 64
1, 86159, Note_on_c, 0, 69, 0
1, 86160, Note_on_c, 0, 78, 64
1, 86399, Note_on_c, 0, 78, 0
1, 86400, Note_on_c, 0, 76, 64
1, 86879, Note_on_c, 0, 76, 0
1, 86880, Note_on_c, 0, 83, 64
1, 87119, Note_on_c, 0, 83, 0
1, 87120, Note_on_c, 0, 85, 64
1, 87359, Note_on_c, 0, 85, 0
1, 87360, Note_on_c, 0, 86, 64
1, 87599, Note_on_c, 0, 86, 0
1, 87600, Note_on_c, 0, 90, 64
1, 87839, Note_on_c, 0, 90, 0
1, 87840, Note_on_c, 0, 88, 64
1, 88079, Note_on_c, 0, 88, 0
1, 88080, Note_on_c, 0, 86, 64
1, 88319, Note_on_c, 0, 86, 0
1, 88320, Note_on_c, 0, 85, 64
1, 88379, Note_on_c, 0, 85, 0
1, 88380, Note_on_c, 0, 86, 64
1, 88439, Note_on_c, 0, 86, 0
1, 88440, Note_on_c, 0, 85, 64
1, 88559, Note_on_c, 0, 85, 0
1, 88560, Note_on_c, 0, 83, 64
1, 88799, Note_on_c, 0, 83, 0
1, 88800, Note_on_c, 0, 85, 64
1, 89039, Note_on_c, 0, 85, 0
1, 89040, Note_on_c, 0, 80, 64
1, 89279, Note_on_c, 0, 80, 0
1, 89280, Note_on_c, 0, 81, 64
1, 89519, Note_on_c, 0, 81, 0
1, 89520, Note_on_c, 0, 78, 64
1, 89759, Note_on_c, 0, 78, 0
1, 89760, Note_on_c, 0, 76, 64
1, 89819, Note_on_c, 0, 76, 0
1, 89820, Note_on_c, 0, 78, 64
1, 89879, Note_on_c, 0, 78, 0
1, 89880, Note_on_c, 0, 76, 64
1, 89999, Note_on_c, 0, 76, 0
1, 90000, Note_on_c, 0, 74, 64
1, 90239, Note_on_c, 0, 74, 0
1, 90240, Note_on_c, 0, 68, 64
1, 90479, Note_on_c, 0, 68, 0
1, 90480, Note_on_c, 0, 78, 64
1, 90719, Note_on_c, 0, 78, 0
1, 90720, Note_on_c, 0, 76, 64
1, 90959, Note_on_c, 0, 76, 0
1, 90960, Note_on_c, 0, 68, 64
1, 91199, Note_on_c, 0, 68, 0
1, 91200, Note_on_c, 0, 69, 64
1, 91679, Note_on_c, 0, 69, 0
1, 92160, Note_on_c, 0, 64, 64
1, 92639, Note_on_c, 0, 64, 0
1, 92640, Note_on_c, 0, 69, 64
1, 92879, Note_on_c, 0, 69, 0
1, 92880, Note_on_c, 0, 71, 64
1, 93119, Note_on_c, 0, 71, 0
1, 93120, Note_on_c, 0, 72, 64
1, 93599, Note_on_c, 0, 72, 0
1, 93600, Note_on_c, 0, 72, 64
1, 94079, Note_on_c, 0, 72, 0
1, 94080, Note_on_c, 0, 74, 64
1, 94319, Note_on_c, 0, 74, 0
1, 94320, Note_on_c, 0, 76, 64
1, 94559, Note_on_c, 0, 76, 0
1, 94560, Note_on_c, 0, 77, 64
1, 95519, Note_on_c, 0, 77, 0
1, 95520, Note_on_c, 0, 71, 64
1, 95759, Note_on_c, 0, 71, 0
1, 95760, Note_on_c, 0, 72, 64
1, 95999, Note_on_c, 0, 72, 0
1, 96000, Note_on_c, 0, 74, 64
1, 96239, Note_on_c, 0, 74, 0
1, 96240, Note_on_c, 0, 81, 64
1, 96479, Note_on_c, 0, 81, 0
1, 96480, Note_on_c, 0, 79, 64
1, 96719, Note_on_c, 0, 79, 0
1, 96720, Note_on_c, 0, 77, 64
1, 96959, Note_on_c, 0, 77, 0
1, 96960, Note_on_c, 0, 76, 64
1, 97019, Note_on_c, 0, 76, 0
1, 97020, Note_on_c, 0, 77, 64
1, 97079, Note_on_c, 0, 77, 0
1, 97080, Note_on_c, 0, 76, 64
1, 97199, Note_on_c, 0, 76, 0
1, 97200, Note_on_c, 0, 75, 64
1, 97439, Note_on_c, 0, 75, 0
1, 97440, Note_on_c, 0, 76, 64
1, 98399, Note_on_c, 0, 76, 0
1, 98400, Note_on_c, 0, 69, 64
1, 98639, Note_on_c, 0, 69, 0
1, 98640, Note_on_c, 0, 71, 64
1, 98879, Note_on_c, 0, 71, 0
1, 98880, Note_on_c, 0, 72, 64
1, 99359, Note_on_c, 0, 72, 0
1, 99360, Note_on_c, 0, 72, 64
1, 99839, Note_on_c, 0, 72, 0
1, 99840, Note_on_c, 0, 74, 64
1, 100079, Note_on_c, 0, 74, 0
1, 100080, Note_on_c, 0, 76, 64
1, 100319, Note_on_c, 0, 76, 0
1, 100320, Note_on_c, 0, 77, 64
1, 101279, Note_on_c, 0, 77, 0
1, 101280, Note_on_c, 0, 71, 64
1, 101519, Note_on_c, 0, 71, 0
1, 101520, Note_on_c, 0, 72, 64
1, 101759, Note_on_c, 0, 72, 0
1, 101760, Note_on_c, 0, 74, 64
1, 101999, Note_on_c, 0, 74, 0
1, 102000, Note_on_c, 0, 81, 64
1, 102239, Note_on_c, 0, 81, 0
1, 102240, Note_on_c, 0, 79, 64
1, 102479, Note_on_c, 0, 79, 0
1, 102480, Note_on_c, 0, 71, 64
1, 102719, Note_on_c, 0, 71, 0
1, 102720, Note_on_c, 0, 72, 64
1, 103199, Note_on_c, 0, 72, 0
1, 103680, Note_on_c, 0, 64, 64
1, 104159, Note_on_c, 0, 64, 0
1, 104160, Note_on_c, 0, 69, 64
1, 104399, Note_on_c, 0, 69, 0
1, 104400, Note_on_c, 0, 71, 64
1, 104639, Note_on_c, 0, 71, 0
1, 104640, Note_on_c, 0, 72, 64
1, 105119, Note_on_c, 0, 72, 0
1, 105120, Note_on_c, 0, 72, 64
1, 105599, Note_on_c, 0, 72, 0
1, 105600, Note_on_c, 0, 74, 64
1, 105839, Note_on_c, 0, 74, 0
1, 105840, Note_on_c, 0, 76, 64
1, 106079, Note_on_c, 0, 76, 0
1, 106080, Note_on_c, 0, 77, 64
1, 107039, Note_on_c, 0, 77, 0
1, 107280, Note_on_c, 0, 76, 64
1, 107339, Note_on_c, 0, 76, 0
1, 107340, Note_on_c, 0, 77, 64
1, 107399, Note_on_c, 0, 77, 0
1, 107400, Note_on_c, 0, 76, 64
1, 107519, Note_on_c, 0, 76, 0
1, 107520, Note_on_c, 0, 75, 64
1, 107759, Note_on_c, 0, 75, 0
1, 107760, Note_on_c, 0, 76, 64
1, 107999, Note_on_c, 0, 76, 0
1, 108000, Note_on_c, 0, 83, 64
1, 108239, Note_on_c, 0, 83, 0
1, 108240, Note_on_c, 0, 74, 64
1, 108479, Note_on_c, 0, 74, 0
1, 108480, Note_on_c, 0, 72, 64
1, 109439, Note_on_c, 0, 72, 0
1, 110160, Note_on_c, 0, 84, 64
1, 110399, Note_on_c, 0, 84, 0
1, 110400, Note_on_c, 0, 83, 64
1, 110639, Note_on_c, 0, 83, 0
1, 110640, Note_on_c, 0, 81, 64
1, 110879, Note_on_c, 0, 81, 0
1, 110880, Note_on_c, 0, 79, 64
1, 111119, Note_on_c, 0, 79, 0
1, 111120, Note_on_c, 0, 77, 64
1, 111359, Note_on_c, 0, 77, 0
1, 111360, Note_on_c, 0, 76, 64
1, 111599, Note_on_c, 0, 76, 0
1, 111600, Note_on_c, 0, 74, 64
1, 111839, Note_on_c, 0, 74, 0
1, 111840, Note_on_c, 0, 73, 64
1, 112079, Note_on_c, 0, 73, 0
1, 112080, Note_on_c, 0, 74, 64
1, 112319, Note_on_c, 0, 74, 0
1, 112320, Note_on_c, 0, 76, 64
1, 112559, Note_on_c, 0, 76, 0
1, 112560, Note_on_c, 0, 77, 64
1, 112799, Note_on_c, 0, 77, 0
1, 112800, Note_on_c, 0, 76, 64
1, 112859, Note_on_c, 0, 76, 0
1, 112860, Note_on_c, 0, 77, 64
1, 112919, Note_on_c, 0, 77, 0
1, 112920, Note_on_c, 0, 76, 64
1, 112979, Note_on_c, 0, 76, 0
1, 112980, Note_on_c, 0, 77, 64
1, 113039, Note_on_c, 0, 77, 0
1, 113040, Note_on_c, 0, 76, 64
1, 113099, Note_on_c, 0, 76, 0
1, 113100, Note_on_c, 0, 77, 64
1, 113159, Note_on_c, 0, 77, 0
1, 113160, Note_on_c, 0, 76, 64
1, 113219, Note_on_c, 0, 76, 0
1, 113220, Note_on_c, 0, 77, 64
1, 113279, Note_on_c, 0, 77, 0
1, 113280, Note_on_c, 0, 75, 64
1, 113519, Note_on_c, 0, 75, 0
1, 113520, Note_on_c, 0, 76, 64
1, 113759, Note_on_c, 0, 76, 0
1, 113760, Note_on_c, 0, 77, 64
1, 113999, Note_on_c, 0, 77, 0
1, 114000, Note_on_c, 0, 68, 64
1, 114239, Note_on_c, 0, 68, 0
1, 114240, Note_on_c, 0, 69, 64
1, 115199, Note_on_c, 0, 69, 0
1, 115200, End_track
2, 0, Start_track
2, 0, Key_signature, 0, "major"
2, 0, Key_signature, 0, "major"
2, 0, Key_signature, 0, "major"
2, 0, MIDI_port, 0
2, 480, Note_on_c, 0, 33, 64
2, 482, Control_c, 0, 64, 127
2, 959, Note_on_c, 0, 33, 0
2, 960, Note_on_c, 0, 57, 64
2, 960, Note_on_c, 0, 60, 64
2, 960, Note_on_c, 0, 64, 64
2, 1439, Note_on_c, 0, 57, 0
2, 1439, Note_on_c, 0, 60, 0
2, 1439, Note_on_c, 0, 64, 0
2, 1440, Note_on_c, 0, 57, 64
2, 1440, Note_on_c, 0, 60, 64
2, 1440, Note_on_c, 0, 64, 64
2, 1919, Note_on_c, 0, 57, 0
2, 1919, Note_on_c, 0, 60, 0
2, 1919, Note_on_c, 0, 64, 0
2, 1920, Note_on_c, 0, 38, 64
2, 1921, Control_c, 0, 64, 0
2, 1922, Control_c, 0, 64, 127
2, 2399, Note_on_c, 0, 38, 0
2, 2400, Note_on_c, 0, 57, 64
2, 2400, Note_on_c, 0, 62, 64
2, 2400, Note_on_c, 0, 65, 64
2, 2879, Note_on_c, 0, 57, 0
2, 2879, Note_on_c, 0, 62, 0
2, 2879, Note_on_c, 0, 65, 0
2, 2880, Note_on_c, 0, 57, 64
2, 2880, Note_on_c, 0, 62, 64
2, 2880, Note_on_c, 0, 65, 64
2, 3359, Note_on_c, 0, 57, 0
2, 3359, Note_on_c, 0, 62, 0
2, 3359, Note_on_c, 0, 65, 0
2, 3360, Note_on_c, 0, 43, 64
2, 3361, Control_c, 0, 64, 0
2, 3362, Control_c, 0, 64, 127
2, 3839, Note_on_c, 0, 43, 0
2, 3840, Note_on_c, 0, 55, 64
2, 3840, Note_on_c, 0, 59, 64
2, 3840, Note_on_c, 0, 65, 64
2, 4319, Note_on_c, 0, 55, 0
2, 4319, Note_on_c, 0, 59, 0
2, 4319, Note_on_c, 0, 65, 0
2, 4320, Note_on_c, 0, 55, 64
2, 4320, Note_on_c, 0, 59, 64
2, 4320, Note_on_c, 0, 65, 64
2, 4799, Note_on_c, 0, 55, 0
2, 4799, Note_on_c, 0, 59, 0
2, 4799, Note_on_c, 0, 65, 0
2, 4800, Note_on_c, 0, 48, 64
2, 4801, Control_c, 0, 64, 0
2, 4802, Control_c, 0, 64, 127
2, 5279, Note_on_c, 0, 48, 0
2, 5280, Note_on_c, 0, 55, 64
2, 5280, Note_on_c, 0, 60, 64
2, 5280, Note_on_c, 0, 64, 64
2, 5759, Note_on_c, 0, 55, 0
2, 5759, Note_on_c, 0, 60, 0
2, 5759, Note_on_c, 0, 64, 0
2, 5760, Note_on_c, 0, 55, 64
2, 5760, Note_on_c, 0, 60, 64
2, 5760, Note_on_c, 0, 64, 64
2, 6239, Note_on_c, 0, 55, 0
2, 6239, Note_on_c, 0, 60, 0
2, 6239, Note_on_c, 0, 64, 0
2, 6240, Note_on_c, 0, 45, 64
2, 6241, Control_c, 0, 64, 0
2, 6242, Control_c, 0, 64, 127
2, 6719, Note_on_c, 0, 45, 0
2, 6720, Note_on_c, 0, 57, 64
2, 6720, Note_on_c, 0, 60, 64
2, 6720, Note_on_c, 0, 64, 64
2, 7199, Note_on_c, 0, 57, 0
2, 7199, Note_on_c, 0, 60, 0
2, 7199, Note_on_c, 0, 64, 0
2, 7200, Note_on_c, 0, 57, 64
2, 7200, Note_on_c, 0, 60, 64
2, 7200, Note_on_c, 0, 64, 64
2, 7679, Note_on_c, 0, 57, 0
2, 7679, Note_on_c, 0, 60, 0
2, 7679, Note_on_c, 0, 64, 0
2, 7680, Note_on_c, 0, 38, 64
2, 7681, Control_c, 0, 64, 0
2, 7682, Control_c, 0, 64, 127
2, 8159, Note_on_c, 0, 38, 0
2, 8160, Note_on_c, 0, 57, 64
2, 8160, Note_on_c, 0, 62, 64
2, 8160, Note_on_c, 0, 65, 64
2, 8639, Note_on_c, 0, 57, 0
2, 8639, Note_on_c, 0, 62, 0
2, 8639, Note_on_c, 0, 65, 0
2, 8640, Note_on_c, 0, 57, 64
2, 8640, Note_on_c, 0, 62, 64
2, 8640, Note_on_c, 0, 65, 64
2, 9119, Note_on_c, 0, 57, 0
2, 9119, Note_on_c, 0, 62, 0
2, 9119, Note_on_c, 0, 65, 0
2, 9120, Note_on_c, 0, 43, 64
2, 9121, Control_c, 0, 64, 0
2, 9122, Control_c, 0, 64, 127
2, 9599, Note_on_c, 0, 43, 0
2, 9600, Note_on_c, 0, 55, 64
2, 9600, Note_on_c, 0, 59, 64
2, 9600, Note_on_c, 0, 65, 64
2, 10079, Note_on_c, 0, 55, 0
2, 10079, Note_on_c, 0, 59, 0
2, 10079, Note_on_c, 0, 65, 0
2, 10080, Note_on_c, 0, 55, 64
2, 10080, Note_on_c, 0, 59, 64
2, 10080, Note_on_c, 0, 65, 64
2, 10559, Note_on_c, 0, 55, 0
2, 10559, Note_on_c, 0, 59, 0
2, 10559, Note_on_c, 0, 65, 0
2, 10560, Note_on_c, 0, 48, 64
2, 10561, Control_c, 0, 64, 0
2, 10562, Control_c, 0, 64, 127
2, 11039, Note_on_c, 0, 48, 0
2, 11040, Note_on_c, 0, 55, 64
2, 11040, Note_on_c, 0, 60, 64
2, 11040, Note_on_c, 0, 64, 64
2, 11519, Note_on_c, 0, 55, 0
2, 11519, Note_on_c, 0, 60, 0
2, 11519, Note_on_c, 0, 64, 0
2, 11521, Control_c, 0, 64, 0
2, 12000, Note_on_c, 0, 33, 64
2, 12002, Control_c, 0, 64, 127
2, 12479, Note_on_c, 0, 33, 0
2, 12480, Note_on_c, 0, 57, 64
2, 12480, Note_on_c, 0, 60, 64
2, 12480, Note_on_c, 0, 64, 64
2, 12959, Note_on_c, 0, 57, 0
2, 12959, Note_on_c, 0, 60, 0
2, 12959, Note_on_c, 0, 64, 0
2, 12960, Note_on_c, 0, 57, 64
2, 12960, Note_on_c, 0, 60, 64
2, 12960, Note_on_c, 0, 64, 64
2, 13439, Note_on_c, 0, 57, 0
2, 13439, Note_on_c, 0, 60, 0
2, 13439, Note_on_c, 0, 64, 0
2, 13440, Note_on_c, 0, 38, 64
2, 13441, Control_c, 0, 64, 0
2, 13442, Control_c, 0, 64, 127
2, 13919, Note_on_c, 0, 38, 0
2, 13920, Note_on_c, 0, 57, 64
2, 13920, Note_on_c, 0, 62, 64
2, 13920, Note_on_c, 0, 65, 64
2, 14399, Note_on_c, 0, 57, 0
2, 14399, Note_on_c, 0, 62, 0
2, 14399, Note_on_c, 0, 65, 0
2, 14400, Note_on_c, 0, 57, 64
2, 14400, Note_on_c, 0, 62, 64
2, 14400, Note_on_c, 0, 65, 64
2, 14879, Note_on_c, 0, 57, 0
2, 14879, Note_on_c, 0, 62, 0
2, 14879, Note_on_c, 0, 65, 0
2, 14880, Note_on_c, 0, 43, 64
2, 14881, Control_c, 0, 64, 0
2, 14882, Control_c, 0, 64, 127
2, 15359, Note_on_c, 0, 43, 0
2, 15360, Note_on_c, 0, 55, 64
2, 15360, Note_on_c, 0, 59, 64
2, 15360, Note_on_c, 0, 65, 64
2, 15839, Note_on_c, 0, 55, 0
2, 15839, Note_on_c, 0, 59, 0
2, 15839, Note_on_c, 0, 65, 0
2, 15840, Note_on_c, 0, 55, 64
2, 15840, Note_on_c, 0, 59, 64
2, 15840, Note_on_c, 0, 65, 64
2, 16319, Note_on_c, 0, 55, 0
2, 16319, Note_on_c, 0, 59, 0
2, 16319, Note_on_c, 0, 65, 0
2, 16320, Note_on_c, 0, 48, 64
2, 16321, Control_c, 0, 64, 0
2, 16322, Control_c, 0, 64, 127
2, 16799, Note_on_c, 0, 48, 0
2, 16800, Note_on_c, 0, 55, 64
2, 16800, Note_on_c, 0, 60, 64
2, 16800, Note_on_c, 0, 64, 64
2, 17279, Note_on_c, 0, 55, 0
2, 17279, Note_on_c, 0, 60, 0
2, 17279, Note_on_c, 0, 64, 0
2, 17280, Note_on_c, 0, 55, 64
2, 17280, Note_on_c, 0, 60, 64
2, 17280, Note_on_c, 0, 64, 64
2, 17759, Note_on_c, 0, 55, 0
2, 17759, Note_on_c, 0, 60, 0
2, 17759, Note_on_c, 0, 64, 0
2, 17760, Note_on_c, 0, 45, 64
2, 17761, Control_c, 0, 64, 0
2, 17762, Control_c, 0, 64, 127
2, 18239, Note_on_c, 0, 45, 0
2, 18240, Note_on_c, 0, 57, 64
2, 18240, Note_on_c, 0, 60, 64
2, 18240, Note_on_c, 0, 64, 64
2, 18719, Note_on_c, 0, 57, 0
2, 18719, Note_on_c, 0, 60, 0
2, 18719, Note_on_c, 0, 64, 0
2, 18720, Note_on_c, 0, 57, 64
2, 18720, Note_on_c, 0, 60, 64
2, 18720, Note_on_c, 0, 64, 64
2, 19199, Note_on_c, 0, 57, 0
2, 19199, Note_on_c, 0, 60, 0
2, 19199, Note_on_c, 0, 64, 0
2, 19200, Note_on_c, 0, 38, 64
2, 19201, Control_c, 0, 64, 0
2, 19202, Control_c, 0, 64, 127
2, 19679, Note_on_c, 0, 38, 0
2, 19680, Note_on_c, 0, 57, 64
2, 19680, Note_on_c, 0, 62, 64
2, 19680, Note_on_c, 0, 65, 64
2, 19919, Note_on_c, 0, 57, 0
2, 19919, Note_on_c, 0, 62, 0
2, 19919, Note_on_c, 0, 65, 0
2, 20160, Note_on_c, 0, 57, 64
2, 20160, Note_on_c, 0, 62, 64
2, 20160, Note_on_c, 0, 65, 64
2, 20639, Note_on_c, 0, 57, 0
2, 20639, Note_on_c, 0, 62, 0
2, 20639, Note_on_c, 0, 65, 0
2, 20640, Note_on_c, 0, 43, 64
2, 20641, Control_c, 0, 64, 0
2, 20642, Control_c, 0, 64, 127
2, 21119, Note_on_c, 0, 43, 0
2, 21120, Note_on_c, 0, 55, 64
2, 21120, Note_on_c, 0, 59, 64
2, 21120, Note_on_c, 0, 65, 64
2, 21599, Note_on_c, 0, 55, 0
2, 21599, Note_on_c, 0, 59, 0
2, 21599, Note_on_c, 0, 65, 0
2, 21600, Note_on_c, 0, 55, 64
2, 21600, Note_on_c, 0, 59, 64
2, 21600, Note_on_c, 0, 65, 64
2, 22079, Note_on_c, 0, 55, 0
2, 22079, Note_on_c, 0, 59, 0
2, 22079, Note_on_c, 0, 65, 0
2, 22080, Note_on_c, 0, 48, 64
2, 22081, Control_c, 0, 64, 0
2, 22082, Control_c, 0, 64, 127
2, 22559, Note_on_c, 0, 48, 0
2, 22560, Note_on_c, 0, 55, 64
2, 22560, Note_on_c, 0, 60, 64
2, 22560, Note_on_c, 0, 64, 64
2, 23039, Note_on_c, 0, 55, 0
2, 23039, Note_on_c, 0, 60, 0
2, 23039, Note_on_c, 0, 64, 0
2, 23040, Note_on_c, 0, 55, 64
2, 23040, Note_on_c, 0, 60, 64
2, 23040, Note_on_c, 0, 64, 64
2, 23519, Note_on_c, 0, 55, 0
2, 23519, Note_on_c, 0, 60, 0
2, 23519, Note_on_c, 0, 64, 0
2, 23520, Note_on_c, 0, 40, 64
2, 23521, Control_c, 0, 64, 0
2, 23522, Control_c, 0, 64, 127
2, 23999, Note_on_c, 0, 40, 0
2, 24000, Note_on_c, 0, 52, 64
2, 24000, Note_on_c, 0, 59, 64
2, 24000, Note_on_c, 0, 62, 64
2, 24479, Note_on_c, 0, 52, 0
2, 24479, Note_on_c, 0, 59, 0
2, 24479, Note_on_c, 0, 62, 0
2, 24480, Note_on_c, 0, 52, 64
2, 24480, Note_on_c, 0, 56, 64
2, 24480, Note_on_c, 0, 62, 64
2, 24959, Note_on_c, 0, 52, 0
2, 24959, Note_on_c, 0, 56, 0
2, 24959, Note_on_c, 0, 62, 0
2, 24960, Note_on_c, 0, 45, 64
2, 24961, Control_c, 0, 64, 0
2, 24962, Control_c, 0, 64, 127
2, 25439, Note_on_c, 0, 45, 0
2, 25440, Note_on_c, 0, 52, 64
2, 25440, Note_on_c, 0, 57, 64
2, 25440, Note_on_c, 0, 60, 64
2, 25919, Note_on_c, 0, 52, 0
2, 25919, Note_on_c, 0, 57, 0
2, 25919, Note_on_c, 0, 60, 0
2, 25920, Note_on_c, 0, 52, 64
2, 25920, Note_on_c, 0, 57, 64
2, 25920, Note_on_c, 0, 60, 64
2, 26399, Note_on_c, 0, 52, 0
2, 26399, Note_on_c, 0, 57, 0
2, 26399, Note_on_c, 0, 60, 0
2, 26400, Note_on_c, 0, 40, 64
2, 26401, Control_c, 0, 64, 0
2, 26402, Control_c, 0, 64, 127
2, 26879, Note_on_c, 0, 40, 0
2, 26880, Note_on_c, 0, 52, 64
2, 26880, Note_on_c, 0, 59, 64
2, 26880, Note_on_c, 0, 62, 64
2, 27359, Note_on_c, 0, 52, 0
2, 27359, Note_on_c, 0, 59, 0
2, 27359, Note_on_c, 0, 62, 0
2, 27360, Note_on_c, 0, 52, 64
2, 27360, Note_on_c, 0, 59, 64
2, 27360, Note_on_c, 0, 62, 64
2, 27839, Note_on_c, 0, 52, 0
2, 27839, Note_on_c, 0, 59, 0
2, 27839, Note_on_c, 0, 62, 0
2, 27840, Note_on_c, 0, 45, 64
2, 27841, Control_c, 0, 64, 0
2, 27842, Control_c, 0, 64, 127
2, 28319, Note_on_c, 0, 45, 0
2, 28320, Note_on_c, 0, 52, 64
2, 28320, Note_on_c, 0, 57, 64
2, 28320, Note_on_c, 0, 60, 64
2, 28799, Note_on_c, 0, 52, 0
2, 28799, Note_on_c, 0, 57, 0
2, 28799, Note_on_c, 0, 60, 0
2, 28800, Note_on_c, 0, 52, 64
2, 28800, Note_on_c, 0, 57, 64
2, 28800, Note_on_c, 0, 60, 64
2, 29279, Note_on_c, 0, 52, 0
2, 29279, Note_on_c, 0, 57, 0
2, 29279, Note_on_c, 0, 60, 0
2, 29280, Note_on_c, 0, 40, 64
2, 29281, Control_c, 0, 64, 0
2, 29282, Control_c, 0, 64, 127
2, 29759, Note_on_c, 0, 40, 0
2, 29760, Note_on_c, 0, 52, 64
2, 29760, Note_on_c, 0, 59, 64
2, 29760, Note_on_c, 0, 62, 64
2, 30239, Note_on_c, 0, 52, 0
2, 30239, Note_on_c, 0, 59, 0
2, 30239, Note_on_c, 0, 62, 0
2, 30240, Note_on_c, 0, 52, 64
2, 30240, Note_on_c, 0, 56, 64
2, 30240, Note_on_c, 0, 62, 64
2, 30719, Note_on_c, 0, 52, 0
2, 30719, Note_on_c, 0, 56, 0
2, 30719, Note_on_c, 0, 62, 0
2, 30720, Note_on_c, 0, 45, 64
2, 30721, Control_c, 0, 64, 0
2, 30722, Control_c, 0, 64, 127
2, 31199, Note_on_c, 0, 45, 0
2, 31200, Note_on_c, 0, 52, 64
2, 31200, Note_on_c, 0, 57, 64
2, 31200, Note_on_c, 0, 60, 64
2, 31679, Note_on_c, 0, 52, 0
2, 31679, Note_on_c, 0, 57, 0
2, 31679, Note_on_c, 0, 60, 0
2, 31680, Note_on_c, 0, 52, 64
2, 31680, Note_on_c, 0, 57, 64
2, 31680, Note_on_c, 0, 60, 64
2, 32159, Note_on_c, 0, 52, 0
2, 32159, Note_on_c, 0, 57, 0
2, 32159, Note_on_c, 0, 60, 0
2, 32160, Note_on_c, 0, 40, 64
2, 32161, Control_c, 0, 64, 0
2, 32162, Control_c, 0, 64, 127
2, 32639, Note_on_c, 0, 40, 0
2, 32640, Note_on_c, 0, 52, 64
2, 32640, Note_on_c, 0, 59, 64
2, 32640, Note_on_c, 0, 62, 64
2, 33119, Note_on_c, 0, 52, 0
2, 33119, Note_on_c, 0, 59, 0
2, 33119, Note_on_c, 0, 62, 0
2, 33120, Note_on_c, 0, 52, 64
2, 33120, Note_on_c, 0, 59, 64
2, 33120, Note_on_c, 0, 62, 64
2, 33599, Note_on_c, 0, 52, 0
2, 33599, Note_on_c, 0, 59, 0
2, 33599, Note_on_c, 0, 62, 0
2, 33600, Note_on_c, 0, 45, 64
2, 33601, Control_c, 0, 64, 0
2, 33602, Control_c, 0, 64, 127
2, 34079, Note_on_c, 0, 45, 0
2, 34080, Note_on_c, 0, 52, 64
2, 34080, Note_on_c, 0, 57, 64
2, 34080, Note_on_c, 0, 60, 64
2, 34559, Note_on_c, 0, 52, 0
2, 34559, Note_on_c, 0, 57, 0
2, 34559, Note_on_c, 0, 60, 0
2, 34560, Note_on_c, 0, 52, 64
2, 34560, Note_on_c, 0, 57, 64
2, 34560, Note_on_c, 0, 60, 64
2, 35039, Note_on_c, 0, 52, 0
2, 35039, Note_on_c, 0, 57, 0
2, 35039, Note_on_c, 0, 60, 0
2, 35040, Note_on_c, 0, 40, 64
2, 35041, Control_c, 0, 64, 0
2, 35041, Control_c, 0, 64, 0
2, 35042, Control_c, 0, 64, 127
2, 35519, Note_on_c, 0, 40, 0
2, 35520, Note_on_c, 0, 52, 64
2, 35520, Note_on_c, 0, 59, 64
2, 35520, Note_on_c, 0, 62, 64
2, 35999, Note_on_c, 0, 52, 0
2, 35999, Note_on_c, 0, 59, 0
2, 35999, Note_on_c, 0, 62, 0
2, 36000, Note_on_c, 0, 52, 64
2, 36000, Note_on_c, 0, 56, 64
2, 36000, Note_on_c, 0, 62, 64
2, 36479, Note_on_c, 0, 52, 0
2, 36479, Note_on_c, 0, 56, 0
2, 36479, Note_on_c, 0, 62, 0
2, 36480, Note_on_c, 0, 45, 64
2, 36481, Control_c, 0, 64, 0
2, 36482, Control_c, 0, 64, 127
2, 36959, Note_on_c, 0, 45, 0
2, 36960, Note_on_c, 0, 52, 64
2, 36960, Note_on_c, 0, 57, 64
2, 36960, Note_on_c, 0, 60, 64
2, 37439, Note_on_c, 0, 52, 0
2, 37439, Note_on_c, 0, 57, 0
2, 37439, Note_on_c, 0, 60, 0
2, 37440, Note_on_c, 0, 52, 64
2, 37440, Note_on_c, 0, 57, 64
2, 37440, Note_on_c, 0, 60, 64
2, 37919, Note_on_c, 0, 52, 0
2, 37919, Note_on_c, 0, 57, 0
2, 37919, Note_on_c, 0, 60, 0
2, 37920, Note_on_c, 0, 40, 64
2, 37921, Control_c, 0, 64, 0
2, 37922, Control_c, 0, 64, 127
2, 38399, Note_on_c, 0, 40, 0
2, 38400, Note_on_c, 0, 52, 64
2, 38400, Note_on_c, 0, 59, 64
2, 38400, Note_on_c, 0, 62, 64
2, 38879, Note_on_c, 0, 52, 0
2, 38879, Note_on_c, 0, 59, 0
2, 38879, Note_on_c, 0, 62, 0
2, 38880, Note_on_c, 0, 52, 64
2, 38880, Note_on_c, 0, 59, 64
2, 38880, Note_on_c, 0, 62, 64
2, 39359, Note_on_c, 0, 52, 0
2, 39359, Note_on_c, 0, 59, 0
2, 39359, Note_on_c, 0, 62, 0
2, 39360, Note_on_c, 0, 45, 64
2, 39361, Control_c, 0, 64, 0
2, 39362, Control_c, 0, 64, 127
2, 39839, Note_on_c, 0, 45, 0
2, 39840, Note_on_c, 0, 52, 64
2, 39840, Note_on_c, 0, 57, 64
2, 39840, Note_on_c, 0, 60, 64
2, 40319, Note_on_c, 0, 52, 0
2, 40319, Note_on_c, 0, 57, 0
2, 40319, Note_on_c, 0, 60, 0
2, 40320, Note_on_c, 0, 52, 64
2, 40320, Note_on_c, 0, 57, 64
2, 40320, Note_on_c, 0, 60, 64
2, 40799, Note_on_c, 0, 52, 0
2, 40799, Note_on_c, 0, 57, 0
2, 40799, Note_on_c, 0, 60, 0
2, 40800, Note_on_c, 0, 40, 64
2, 40801, Control_c, 0, 64, 0
2, 40802, Control_c, 0, 64, 127
2, 41279, Note_on_c, 0, 40, 0
2, 41280, Note_on_c, 0, 52, 64
2, 41280, Note_on_c, 0, 59, 64
2, 41280, Note_on_c, 0, 62, 64
2, 41759, Note_on_c, 0, 52, 0
2, 41759, Note_on_c, 0, 59, 0
2, 41759, Note_on_c, 0, 62, 0
2, 41760, Note_on_c, 0, 52, 64
2, 41760, Note_on_c, 0, 56, 64
2, 41760, Note_on_c, 0, 62, 64
2, 42239, Note_on_c, 0, 52, 0
2, 42239, Note_on_c, 0, 56, 0
2, 42239, Note_on_c, 0, 62, 0
2, 42240, Note_on_c, 0, 45, 64
2, 42241, Control_c, 0, 64, 0
2, 42242, Control_c, 0, 64, 127
2, 42719, Note_on_c, 0, 45, 0
2, 42720, Note_on_c, 0, 52, 64
2, 42720, Note_on_c, 0, 57, 64
2, 42720, Note_on_c, 0, 60, 64
2, 43199, Note_on_c, 0, 52, 0
2, 43199, Note_on_c, 0, 57, 0
2, 43199, Note_on_c, 0, 60, 0
2, 43200, Note_on_c, 0, 52, 64
2, 43200, Note_on_c, 0, 57, 64
2, 43200, Note_on_c, 0, 60, 64
2, 43679, Note_on_c, 0, 52, 0
2, 43679, Note_on_c, 0, 57, 0
2, 43679, Note_on_c, 0, 60, 0
2, 43680, Note_on_c, 0, 40, 64
2, 43681, Control_c, 0, 64, 0
2, 43682, Control_c, 0, 64, 127
2, 44159, Note_on_c, 0, 40, 0
2, 44160, Note_on_c, 0, 52, 64
2, 44160, Note_on_c, 0, 59, 64
2, 44160, Note_on_c, 0, 62, 64
2, 44639, Note_on_c, 0, 52, 0
2, 44639, Note_on_c, 0, 59, 0
2, 44639, Note_on_c, 0, 62, 0
2, 44640, Note_on_c, 0, 52, 64
2, 44640, Note_on_c, 0, 59, 64
2, 44640, Note_on_c, 0, 62, 64
2, 45119, Note_on_c, 0, 52, 0
2, 45119, Note_on_c, 0, 59, 0
2, 45119, Note_on_c, 0, 62, 0
2, 45120, Note_on_c, 0, 45, 64
2, 45121, Control_c, 0, 64, 0
2, 45122, Control_c, 0, 64, 127
2, 45599, Note_on_c, 0, 45, 0
2, 45600, Note_on_c, 0, 52, 64
2, 45600, Note_on_c, 0, 57, 64
2, 45600, Note_on_c, 0, 60, 64
2, 46079, Note_on_c, 0, 52, 0
2, 46079, Note_on_c, 0, 57, 0
2, 46079, Note_on_c, 0, 60, 0
2, 46080, Note_on_c, 0, 52, 64
2, 46080, Note_on_c, 0, 57, 64
2, 46080, Note_on_c, 0, 60, 64
2, 46559, Note_on_c, 0, 52, 0
2, 46559, Note_on_c, 0, 57, 0
2, 46559, Note_on_c, 0, 60, 0
2, 46560, Note_on_c, 0, 33, 64
2, 46561, Control_c, 0, 64, 0
2, 46562, Control_c, 0, 64, 127
2, 47039, Note_on_c, 0, 33, 0
2, 47040, Note_on_c, 0, 57, 64
2, 47040, Note_on_c, 0, 60, 64
2, 47040, Note_on_c, 0, 64, 64
2, 47519, Note_on_c, 0, 57, 0
2, 47519, Note_on_c, 0, 60, 0
2, 47519, Note_on_c, 0, 64, 0
2, 47520, Note_on_c, 0, 57, 64
2, 47520, Note_on_c, 0, 60, 64
2, 47520, Note_on_c, 0, 64, 64
2, 47999, Note_on_c, 0, 57, 0
2, 47999, Note_on_c, 0, 60, 0
2, 47999, Note_on_c, 0, 64, 0
2, 48000, Note_on_c, 0, 38, 64
2, 48001, Control_c, 0, 64, 0
2, 48002, Control_c, 0, 64, 127
2, 48479, Note_on_c, 0, 38, 0
2, 48480, Note_on_c, 0, 57, 64
2, 48480, Note_on_c, 0, 62, 64
2, 48480, Note_on_c, 0, 65, 64
2, 48959, Note_on_c, 0, 57, 0
2, 48959, Note_on_c, 0, 62, 0
2, 48959, Note_on_c, 0, 65, 0
2, 48960, Note_on_c, 0, 57, 64
2, 48960, Note_on_c, 0, 62, 64
2, 48960, Note_on_c, 0, 65, 64
2, 49439, Note_on_c, 0, 57, 0
2, 49439, Note_on_c, 0, 62, 0
2, 49439, Note_on_c, 0, 65, 0
2, 49440, Note_on_c, 0, 43, 64
2, 49441, Control_c, 0, 64, 0
2, 49442, Control_c, 0, 64, 127
2, 49919, Note_on_c, 0, 43, 0
2, 49920, Note_on_c, 0, 55, 64
2, 49920, Note_on_c, 0, 59, 64
2, 49920, Note_on_c, 0, 65, 64
2, 50399, Note_on_c, 0, 55, 0
2, 50399, Note_on_c, 0, 59, 0
2, 50399, Note_on_c, 0, 65, 0
2, 50400, Note_on_c, 0, 55, 64
2, 50400, Note_on_c, 0, 59, 64
2, 50400, Note_on_c, 0, 65, 64
2, 50879, Note_on_c, 0, 55, 0
2, 50879, Note_on_c, 0, 59, 0
2, 50879, Note_on_c, 0, 65, 0
2, 50880, Note_on_c, 0, 48, 64
2, 50881, Control_c, 0, 64, 0
2, 50882, Control_c, 0, 64, 127
2, 51359, Note_on_c, 0, 48, 0
2, 51360, Note_on_c, 0, 55, 64
2, 51360, Note_on_c, 0, 60, 64
2, 51360, Note_on_c, 0, 64, 64
2, 51839, Note_on_c, 0, 55, 0
2, 51839, Note_on_c, 0, 60, 0
2, 51839, Note_on_c, 0, 64, 0
2, 51840, Note_on_c, 0, 55, 64
2, 51840, Note_on_c, 0, 60, 64
2, 51840, Note_on_c, 0, 64, 64
2, 52319, Note_on_c, 0, 55, 0
2, 52319, Note_on_c, 0, 60, 0
2, 52319, Note_on_c, 0, 64, 0
2, 52320, Note_on_c, 0, 45, 64
2, 52321, Control_c, 0, 64, 0
2, 52322, Control_c, 0, 64, 127
2, 52799, Note_on_c, 0, 45, 0
2, 52800, Note_on_c, 0, 57, 64
2, 52800, Note_on_c, 0, 60, 64
2, 52800, Note_on_c, 0, 64, 64
2, 53279, Note_on_c, 0, 57, 0
2, 53279, Note_on_c, 0, 60, 0
2, 53279, Note_on_c, 0, 64, 0
2, 53280, Note_on_c, 0, 57, 64
2, 53280, Note_on_c, 0, 60, 64
2, 53280, Note_on_c, 0, 64, 64
2, 53759, Note_on_c, 0, 57, 0
2, 53759, Note_on_c, 0, 60, 0
2, 53759, Note_on_c, 0, 64, 0
2, 53760, Note_on_c, 0, 38, 64
2, 53761, Control_c, 0, 64, 0
2, 53762, Control_c, 0, 64, 127
2, 54239, Note_on_c, 0, 38, 0
2, 54240, Note_on_c, 0, 57, 64
2, 54240, Note_on_c, 0, 62, 64
2, 54240, Note_on_c, 0, 65, 64
2, 54719, Note_on_c, 0, 57, 0
2, 54719, Note_on_c, 0, 62, 0
2, 54719, Note_on_c, 0, 65, 0
2, 54720, Note_on_c, 0, 57, 64
2, 54720, Note_on_c, 0, 62, 64
2, 54720, Note_on_c, 0, 65, 64
2, 55199, Note_on_c, 0, 57, 0
2, 55199, Note_on_c, 0, 62, 0
2, 55199, Note_on_c, 0, 65, 0
2, 55200, Note_on_c, 0, 35, 64
2, 55201, Control_c, 0, 64, 0
2, 55202, Control_c, 0, 64, 127
2, 55679, Note_on_c, 0, 35, 0
2, 55680, Note_on_c, 0, 57, 64
2, 55680, Note_on_c, 0, 59, 64
2, 55680, Note_on_c, 0, 63, 64
2, 56159, Note_on_c, 0, 57, 0
2, 56159, Note_on_c, 0, 59, 0
2, 56159, Note_on_c, 0, 63, 0
2, 56160, Note_on_c, 0, 57, 64
2, 56160, Note_on_c, 0, 59, 64
2, 56160, Note_on_c, 0, 63, 64
2, 56639, Note_on_c, 0, 57, 0
2, 56639, Note_on_c, 0, 59, 0
2, 56639, Note_on_c, 0, 63, 0
2, 56640, Note_on_c, 0, 40, 64
2, 56641, Control_c, 0, 64, 0
2, 56642, Control_c, 0, 64, 127
2, 57119, Note_on_c, 0, 40, 0
2, 57120, Note_on_c, 0, 52, 64
2, 57120, Note_on_c, 0, 59, 64
2, 57120, Note_on_c, 0, 62, 64
2, 57599, Note_on_c, 0, 52, 0
2, 57599, Note_on_c, 0, 59, 0
2, 57599, Note_on_c, 0, 62, 0
2, 57601, Control_c, 0, 64, 0
2, 58080, Note_on_c, 0, 40, 64
2, 58082, Control_c, 0, 64, 127
2, 58559, Note_on_c, 0, 40, 0
2, 58560, Note_on_c, 0, 52, 64
2, 58560, Note_on_c, 0, 56, 64
2, 58560, Note_on_c, 0, 62, 64
2, 59039, Note_on_c, 0, 52, 0
2, 59039, Note_on_c, 0, 56, 0
2, 59039, Note_on_c, 0, 62, 0
2, 59040, Note_on_c, 0, 52, 64
2, 59040, Note_on_c, 0, 56, 64
2, 59040, Note_on_c, 0, 62, 64
2, 59519, Note_on_c, 0, 52, 0
2, 59519, Note_on_c, 0, 56, 0
2, 59519, Note_on_c, 0, 62, 0
2, 59520, Note_on_c, 0, 45, 64
2, 59521, Control_c, 0, 64, 0
2, 59522, Control_c, 0, 64, 127
2, 59999, Note_on_c, 0, 45, 0
2, 60000, Note_on_c, 0, 52, 64
2, 60000, Note_on_c, 0, 57, 64
2, 60000, Note_on_c, 0, 61, 64
2, 60479, Note_on_c, 0, 52, 0
2, 60479, Note_on_c, 0, 57, 0
2, 60479, Note_on_c, 0, 61, 0
2, 60480, Note_on_c, 0, 52, 64
2, 60480, Note_on_c, 0, 57, 64
2, 60480, Note_on_c, 0, 61, 64
2, 60959, Note_on_c, 0, 52, 0
2, 60959, Note_on_c, 0, 57, 0
2, 60959, Note_on_c, 0, 61, 0
2, 60960, Note_on_c, 0, 40, 64
2, 60961, Control_c, 0, 64, 0
2, 60962, Control_c, 0, 64, 127
2, 61439, Note_on_c, 0, 40, 0
2, 61440, Note_on_c, 0, 52, 64
2, 61440, Note_on_c, 0, 56, 64
2, 61440, Note_on_c, 0, 62, 64
2, 61919, Note_on_c, 0, 52, 0
2, 61919, Note_on_c, 0, 56, 0
2, 61919, Note_on_c, 0, 62, 0
2, 61920, Note_on_c, 0, 52, 64
2, 61920, Note_on_c, 0, 56, 64
2, 61920, Note_on_c, 0, 62, 64
2, 62399, Note_on_c, 0, 52, 0
2, 62399, Note_on_c, 0, 56, 0
2, 62399, Note_on_c, 0, 62, 0
2, 62400, Note_on_c, 0, 45, 64
2, 62401, Control_c, 0, 64, 0
2, 62402, Control_c, 0, 64, 127
2, 62879, Note_on_c, 0, 45, 0
2, 62880, Note_on_c, 0, 52, 64
2, 62880, Note_on_c, 0, 57, 64
2, 62880, Note_on_c, 0, 61, 64
2, 63359, Note_on_c, 0, 52, 0
2, 63359, Note_on_c, 0, 57, 0
2, 63359, Note_on_c, 0, 61, 0
2, 63360, Note_on_c, 0, 52, 64
2, 63360, Note_on_c, 0, 57, 64
2, 63360, Note_on_c, 0, 61, 64
2, 63839, Note_on_c, 0, 52, 0
2, 63839, Note_on_c, 0, 57, 0
2, 63839, Note_on_c, 0, 61, 0
2, 63840, Note_on_c, 0, 40, 64
2, 63841, Control_c, 0, 64, 0
2, 63842, Control_c, 0, 64, 127
2, 64319, Note_on_c, 0, 40, 0
2, 64320, Note_on_c, 0, 52, 64
2, 64320, Note_on_c, 0, 56, 64
2, 64320, Note_on_c, 0, 62, 64
2, 64799, Note_on_c, 0, 52, 0
2, 64799, Note_on_c, 0, 56, 0
2, 64799, Note_on_c, 0, 62, 0
2, 64800, Note_on_c, 0, 52, 64
2, 64800, Note_on_c, 0, 56, 64
2, 64800, Note_on_c, 0, 62, 64
2, 65279, Note_on_c, 0, 52, 0
2, 65279, Note_on_c, 0, 56, 0
2, 65279, Note_on_c, 0, 62, 0
2, 65280, Note_on_c, 0, 45, 64
2, 65281, Control_c, 0, 64, 0
2, 65282, Control_c, 0, 64, 127
2, 65759, Note_on_c, 0, 45, 0
2, 65760, Note_on_c, 0, 52, 64
2, 65760, Note_on_c, 0, 57, 64
2, 65760, Note_on_c, 0, 61, 64
2, 66239, Note_on_c, 0, 52, 0
2, 66239, Note_on_c, 0, 57, 0
2, 66239, Note_on_c, 0, 61, 0
2, 66240, Note_on_c, 0, 52, 64
2, 66240, Note_on_c, 0, 57, 64
2, 66240, Note_on_c, 0, 61, 64
2, 66719, Note_on_c, 0, 52, 0
2, 66719, Note_on_c, 0, 57, 0
2, 66719, Note_on_c, 0, 61, 0
2, 66720, Note_on_c, 0, 40, 64
2, 66721, Control_c, 0, 64, 0
2, 66722, Control_c, 0, 64, 127
2, 67199, Note_on_c, 0, 40, 0
2, 67200, Note_on_c, 0, 52, 64
2, 67200, Note_on_c, 0, 56, 64
2, 67200, Note_on_c, 0, 62, 64
2, 67679, Note_on_c, 0, 52, 0
2, 67679, Note_on_c, 0, 56, 0
2, 67679, Note_on_c, 0, 62, 0
2, 67680, Note_on_c, 0, 52, 64
2, 67680, Note_on_c, 0, 56, 64
2, 67680, Note_on_c, 0, 62, 64
2, 68159, Note_on_c, 0, 52, 0
2, 68159, Note_on_c, 0, 56, 0
2, 68159, Note_on_c, 0, 62, 0
2, 68160, Note_on_c, 0, 45, 64
2, 68161, Control_c, 0, 64, 0
2, 68162, Control_c, 0, 64, 127
2, 68639, Note_on_c, 0, 45, 0
2, 68640, Note_on_c, 0, 52, 64
2, 68640, Note_on_c, 0, 61, 64
2, 69119, Note_on_c, 0, 52, 0
2, 69119, Note_on_c, 0, 61, 0
2, 69121, Control_c, 0, 64, 0
2, 69600, Note_on_c, 0, 33, 64
2, 69601, Control_c, 0, 64, 0
2, 69602, Control_c, 0, 64, 127
2, 70079, Note_on_c, 0, 33, 0
2, 70080, Note_on_c, 0, 57, 64
2, 70080, Note_on_c, 0, 60, 64
2, 70080, Note_on_c, 0, 64, 64
2, 70559, Note_on_c, 0, 57, 0
2, 70559, Note_on_c, 0, 60, 0
2, 70559, Note_on_c, 0, 64, 0
2, 70560, Note_on_c, 0, 57, 64
2, 70560, Note_on_c, 0, 60, 64
2, 70560, Note_on_c, 0, 64, 64
2, 71039, Note_on_c, 0, 57, 0
2, 71039, Note_on_c, 0, 60, 0
2, 71039, Note_on_c, 0, 64, 0
2, 71040, Note_on_c, 0, 38, 64
2, 71041, Control_c, 0, 64, 0
2, 71042, Control_c, 0, 64, 127
2, 71519, Note_on_c, 0, 38, 0
2, 71520, Note_on_c, 0, 57, 64
2, 71520, Note_on_c, 0, 62, 64
2, 71520, Note_on_c, 0, 65, 64
2, 71999, Note_on_c, 0, 57, 0
2, 71999, Note_on_c, 0, 62, 0
2, 71999, Note_on_c, 0, 65, 0
2, 72000, Note_on_c, 0, 57, 64
2, 72000, Note_on_c, 0, 62, 64
2, 72000, Note_on_c, 0, 65, 64
2, 72479, Note_on_c, 0, 57, 0
2, 72479, Note_on_c, 0, 62, 0
2, 72479, Note_on_c, 0, 65, 0
2, 72480, Note_on_c, 0, 43, 64
2, 72481, Control_c, 0, 64, 0
2, 72482, Control_c, 0, 64, 127
2, 72959, Note_on_c, 0, 43, 0
2, 72960, Note_on_c, 0, 55, 64
2, 72960, Note_on_c, 0, 59, 64
2, 72960, Note_on_c, 0, 65, 64
2, 73439, Note_on_c, 0, 55, 0
2, 73439, Note_on_c, 0, 59, 0
2, 73439, Note_on_c, 0, 65, 0
2, 73440, Note_on_c, 0, 55, 64
2, 73440, Note_on_c, 0, 59, 64
2, 73440, Note_on_c, 0, 65, 64
2, 73919, Note_on_c, 0, 55, 0
2, 73919, Note_on_c, 0, 59, 0
2, 73919, Note_on_c, 0, 65, 0
2, 73920, Note_on_c, 0, 48, 64
2, 73921, Control_c, 0, 64, 0
2, 73922, Control_c, 0, 64, 127
2, 74399, Note_on_c, 0, 48, 0
2, 74400, Note_on_c, 0, 55, 64
2, 74400, Note_on_c, 0, 60, 64
2, 74400, Note_on_c, 0, 64, 64
2, 74879, Note_on_c, 0, 55, 0
2, 74879, Note_on_c, 0, 60, 0
2, 74879, Note_on_c, 0, 64, 0
2, 74880, Note_on_c, 0, 55, 64
2, 74880, Note_on_c, 0, 60, 64
2, 74880, Note_on_c, 0, 64, 64
2, 75359, Note_on_c, 0, 55, 0
2, 75359, Note_on_c, 0, 60, 0
2, 75359, Note_on_c, 0, 64, 0
2, 75360, Note_on_c, 0, 45, 64
2, 75361, Control_c, 0, 64, 0
2, 75362, Control_c, 0, 64, 127
2, 75839, Note_on_c, 0, 45, 0
2, 75840, Note_on_c, 0, 57, 64
2, 75840, Note_on_c, 0, 60, 64
2, 75840, Note_on_c, 0, 64, 64
2, 76319, Note_on_c, 0, 57, 0
2, 76319, Note_on_c, 0, 60, 0
2, 76319, Note_on_c, 0, 64, 0
2, 76320, Note_on_c, 0, 57, 64
2, 76320, Note_on_c, 0, 60, 64
2, 76320, Note_on_c, 0, 64, 64
2, 76799, Note_on_c, 0, 57, 0
2, 76799, Note_on_c, 0, 60, 0
2, 76799, Note_on_c, 0, 64, 0
2, 76800, Note_on_c, 0, 38, 64
2, 76801, Control_c, 0, 64, 0
2, 76802, Control_c, 0, 64, 127
2, 77279, Note_on_c, 0, 38, 0
2, 77280, Note_on_c, 0, 57, 64
2, 77280, Note_on_c, 0, 62, 64
2, 77280, Note_on_c, 0, 65, 64
2, 77759, Note_on_c, 0, 57, 0
2, 77759, Note_on_c, 0, 62, 0
2, 77759, Note_on_c, 0, 65, 0
2, 77760, Note_on_c, 0, 57, 64
2, 77760, Note_on_c, 0, 62, 64
2, 77760, Note_on_c, 0, 65, 64
2, 78239, Note_on_c, 0, 57, 0
2, 78239, Note_on_c, 0, 62, 0
2, 78239, Note_on_c, 0, 65, 0
2, 78240, Note_on_c, 0, 35, 64
2, 78241, Control_c, 0, 64, 0
2, 78242, Control_c, 0, 64, 127
2, 78719, Note_on_c, 0, 35, 0
2, 78720, Note_on_c, 0, 57, 64
2, 78720, Note_on_c, 0, 59, 64
2, 78720, Note_on_c, 0, 63, 64
2, 79199, Note_on_c, 0, 57, 0
2, 79199, Note_on_c, 0, 59, 0
2, 79199, Note_on_c, 0, 63, 0
2, 79200, Note_on_c, 0, 57, 64
2, 79200, Note_on_c, 0, 59, 64
2, 79200, Note_on_c, 0, 63, 64
2, 79679, Note_on_c, 0, 57, 0
2, 79679, Note_on_c, 0, 59, 0
2, 79679, Note_on_c, 0, 63, 0
2, 79680, Note_on_c, 0, 40, 64
2, 79681, Control_c, 0, 64, 0
2, 79682, Control_c, 0, 64, 127
2, 80159, Note_on_c, 0, 40, 0
2, 80160, Note_on_c, 0, 52, 64
2, 80160, Note_on_c, 0, 59, 64
2, 80160, Note_on_c, 0, 62, 64
2, 80639, Note_on_c, 0, 52, 0
2, 80639, Note_on_c, 0, 59, 0
2, 80639, Note_on_c, 0, 62, 0
2, 80641, Control_c, 0, 64, 0
2, 81120, Note_on_c, 0, 40, 64
2, 81122, Control_c, 0, 64, 127
2, 81599, Note_on_c, 0, 40, 0
2, 81600, Note_on_c, 0, 52, 64
2, 81600, Note_on_c, 0, 56, 64
2, 81600, Note_on_c, 0, 62, 64
2, 82079, Note_on_c, 0, 52, 0
2, 82079, Note_on_c, 0, 56, 0
2, 82079, Note_on_c, 0, 62, 0
2, 82080, Note_on_c, 0, 52, 64
2, 82080, Note_on_c, 0, 56, 64
2, 82080, Note_on_c, 0, 62, 64
2, 82559, Note_on_c, 0, 52, 0
2, 82559, Note_on_c, 0, 56, 0
2, 82559, Note_on_c, 0, 62, 0
2, 82560, Note_on_c, 0, 45, 64
2, 82561, Control_c, 0, 64, 0
2, 82562, Control_c, 0, 64, 127
2, 83039, Note_on_c, 0, 45, 0
2, 83040, Note_on_c, 0, 52, 64
2, 83040, Note_on_c, 0, 57, 64
2, 83040, Note_on_c, 0, 61, 64
2, 83519, Note_on_c, 0, 52, 0
2, 83519, Note_on_c, 0, 57, 0
2, 83519, Note_on_c, 0, 61, 0
2, 83520, Note_on_c, 0, 52, 64
2, 83520, Note_on_c, 0, 57, 64
2, 83520, Note_on_c, 0, 61, 64
2, 83999, Note_on_c, 0, 52, 0
2, 83999, Note_on_c, 0, 57, 0
2, 83999, Note_on_c, 0, 61, 0
2, 84000, Note_on_c, 0, 40, 64
2, 84001, Control_c, 0, 64, 0
2, 84002, Control_c, 0, 64, 127
2, 84479, Note_on_c, 0, 40, 0
2, 84480, Note_on_c, 0, 52, 64
2, 84480, Note_on_c, 0, 56, 64
2, 84480, Note_on_c, 0, 62, 64
2, 84959, Note_on_c, 0, 52, 0
2, 84959, Note_on_c, 0, 56, 0
2, 84959, Note_on_c, 0, 62, 0
2, 84960, Note_on_c, 0, 52, 64
2, 84960, Note_on_c, 0, 56, 64
2, 84960, Note_on_c, 0, 62, 64
2, 85439, Note_on_c, 0, 52, 0
2, 85439, Note_on_c, 0, 56, 0
2, 85439, Note_on_c, 0, 62, 0
2, 85440, Note_on_c, 0, 45, 64
2, 85441, Control_c, 0, 64, 0
2, 85442, Control_c, 0, 64, 127
2, 85919, Note_on_c, 0, 45, 0
2, 85920, Note_on_c, 0, 52, 64
2, 85920, Note_on_c, 0, 57, 64
2, 85920, Note_on_c, 0, 61, 64
2, 86399, Note_on_c, 0, 52, 0
2, 86399, Note_on_c, 0, 57, 0
2, 86399, Note_on_c, 0, 61, 0
2, 86400, Note_on_c, 0, 52, 64
2, 86400, Note_on_c, 0, 57, 64
2, 86400, Note_on_c, 0, 61, 64
2, 86879, Note_on_c, 0, 52, 0
2, 86879, Note_on_c, 0, 57, 0
2, 86879, Note_on_c, 0, 61, 0
2, 86880, Note_on_c, 0, 40, 64
2, 86881, Control_c, 0, 64, 0
2, 86882, Control_c, 0, 64, 127
2, 87359, Note_on_c, 0, 40, 0
2, 87360, Note_on_c, 0, 52, 64
2, 87360, Note_on_c, 0, 56, 64
2, 87360, Note_on_c, 0, 62, 64
2, 87839, Note_on_c, 0, 52, 0
2, 87839, Note_on_c, 0, 56, 0
2, 87839, Note_on_c, 0, 62, 0
2, 87840, Note_on_c, 0, 52, 64
2, 87840, Note_on_c, 0, 56, 64
2, 87840, Note_on_c, 0, 62, 64
2, 88319, Note_on_c, 0, 52, 0
2, 88319, Note_on_c, 0, 56, 0
2, 88319, Note_on_c, 0, 62, 0
2, 88320, Note_on_c, 0, 45, 64
2, 88321, Control_c, 0, 64, 0
2, 88322, Control_c, 0, 64, 127
2, 88799, Note_on_c, 0, 45, 0
2, 88800, Note_on_c, 0, 52, 64
2, 88800, Note_on_c, 0, 57, 64
2, 88800, Note_on_c, 0, 61, 64
2, 89279, Note_on_c, 0, 52, 0
2, 89279, Note_on_c, 0, 57, 0
2, 89279, Note_on_c, 0, 61, 0
2, 89280, Note_on_c, 0, 52, 64
2, 89280, Note_on_c, 0, 57, 64
2, 89280, Note_on_c, 0, 61, 64
2, 89759, Note_on_c, 0, 52, 0
2, 89759, Note_on_c, 0, 57, 0
2, 89759, Note_on_c, 0, 61, 0
2, 89760, Note_on_c, 0, 40, 64
2, 89761, Control_c, 0, 64, 0
2, 89762, Control_c, 0, 64, 127
2, 90239, Note_on_c, 0, 40, 0
2, 90240, Note_on_c, 0, 52, 64
2, 90240, Note_on_c, 0, 56, 64
2, 90240, Note_on_c, 0, 62, 64
2, 90719, Note_on_c, 0, 52, 0
2, 90719, Note_on_c, 0, 56, 0
2, 90719, Note_on_c, 0, 62, 0
2, 90720, Note_on_c, 0, 52, 64
2, 90720, Note_on_c, 0, 56, 64
2, 90720, Note_on_c, 0, 62, 64
2, 91199, Note_on_c, 0, 52, 0
2, 91199, Note_on_c, 0, 56, 0
2, 91199, Note_on_c, 0, 62, 0
2, 91200, Note_on_c, 0, 45, 64
2, 91201, Control_c, 0, 64, 0
2, 91202, Control_c, 0, 64, 127
2, 91679, Note_on_c, 0, 45, 0
2, 91680, Note_on_c, 0, 52, 64
2, 91680, Note_on_c, 0, 61, 64
2, 92159, Note_on_c, 0, 52, 0
2, 92159, Note_on_c, 0, 61, 0
2, 92161, Control_c, 0, 64, 0
2, 92640, Note_on_c, 0, 33, 64
2, 92642, Control_c, 0, 64, 127
2, 93119, Note_on_c, 0, 33, 0
2, 93120, Note_on_c, 0, 57, 64
2, 93120, Note_on_c, 0, 60, 64
2, 93120, Note_on_c, 0, 64, 64
2, 93599, Note_on_c, 0, 57, 0
2, 93599, Note_on_c, 0, 60, 0
2, 93599, Note_on_c, 0, 64, 0
2, 93600, Note_on_c, 0, 57, 64
2, 93600, Note_on_c, 0, 60, 64
2, 93600, Note_on_c, 0, 64, 64
2, 94079, Note_on_c, 0, 57, 0
2, 94079, Note_on_c, 0, 60, 0
2, 94079, Note_on_c, 0, 64, 0
2, 94080, Note_on_c, 0, 38, 64
2, 94081, Control_c, 0, 64, 0
2, 94082, Control_c, 0, 64, 127
2, 94559, Note_on_c, 0, 38, 0
2, 94560, Note_on_c, 0, 57, 64
2, 94560, Note_on_c, 0, 62, 64
2, 94560, Note_on_c, 0, 65, 64
2, 95039, Note_on_c, 0, 57, 0
2, 95039, Note_on_c, 0, 62, 0
2, 95039, Note_on_c, 0, 65, 0
2, 95040, Note_on_c, 0, 57, 64
2, 95040, Note_on_c, 0, 62, 64
2, 95040, Note_on_c, 0, 65, 64
2, 95519, Note_on_c, 0, 57, 0
2, 95519, Note_on_c, 0, 62, 0
2, 95519, Note_on_c, 0, 65, 0
2, 95520, Note_on_c, 0, 43, 64
2, 95521, Control_c, 0, 64, 0
2, 95522, Control_c, 0, 64, 127
2, 95999, Note_on_c, 0, 43, 0
2, 96000, Note_on_c, 0, 55, 64
2, 96000, Note_on_c, 0, 59, 64
2, 96000, Note_on_c, 0, 65, 64
2, 96479, Note_on_c, 0, 55, 0
2, 96479, Note_on_c, 0, 59, 0
2, 96479, Note_on_c, 0, 65, 0
2, 96480, Note_on_c, 0, 55, 64
2, 96480, Note_on_c, 0, 59, 64
2, 96480, Note_on_c, 0, 65, 64
2, 96959, Note_on_c, 0, 55, 0
2, 96959, Note_on_c, 0, 59, 0
2, 96959, Note_on_c, 0, 65, 0
2, 96960, Note_on_c, 0, 48, 64
2, 96961, Control_c, 0, 64, 0
2, 96962, Control_c, 0, 64, 127
2, 97439, Note_on_c, 0, 48, 0
2, 97440, Note_on_c, 0, 55, 64
2, 97440, Note_on_c, 0, 60, 64
2, 97440, Note_on_c, 0, 64, 64
2, 97919, Note_on_c, 0, 55, 0
2, 97919, Note_on_c, 0, 60, 0
2, 97919, Note_on_c, 0, 64, 0
2, 97920, Note_on_c, 0, 55, 64
2, 97920, Note_on_c, 0, 60, 64
2, 97920, Note_on_c, 0, 64, 64
2, 98399, Note_on_c, 0, 55, 0
2, 98399, Note_on_c, 0, 60, 0
2, 98399, Note_on_c, 0, 64, 0
2, 98400, Note_on_c, 0, 45, 64
2, 98401, Control_c, 0, 64, 0
2, 98402, Control_c, 0, 64, 127
2, 98879, Note_on_c, 0, 45, 0
2, 98880, Note_on_c, 0, 57, 64
2, 98880, Note_on_c, 0, 60, 64
2, 98880, Note_on_c, 0, 64, 64
2, 99359, Note_on_c, 0, 57, 0
2, 99359, Note_on_c, 0, 60, 0
2, 99359, Note_on_c, 0, 64, 0
2, 99360, Note_on_c, 0, 57, 64
2, 99360, Note_on_c, 0, 60, 64
2, 99360, Note_on_c, 0, 64, 64
2, 99839, Note_on_c, 0, 57, 0
2, 99839, Note_on_c, 0, 60, 0
2, 99839, Note_on_c, 0, 64, 0
2, 99840, Note_on_c, 0, 38, 64
2, 99841, Control_c, 0, 64, 0
2, 99842, Control_c, 0, 64, 127
2, 100319, Note_on_c, 0, 38, 0
2, 100320, Note_on_c, 0, 57, 64
2, 100320, Note_on_c, 0, 62, 64
2, 100320, Note_on_c, 0, 65, 64
2, 100799, Note_on_c, 0, 57, 0
2, 100799, Note_on_c, 0, 62, 0
2, 100799, Note_on_c, 0, 65, 0
2, 100800, Note_on_c, 0, 57, 64
2, 100800, Note_on_c, 0, 62, 64
2, 100800, Note_on_c, 0, 65, 64
2, 101279, Note_on_c, 0, 57, 0
2, 101279, Note_on_c, 0, 62, 0
2, 101279, Note_on_c, 0, 65, 0
2, 101280, Note_on_c, 0, 43, 64
2, 101281, Control_c, 0, 64, 0
2, 101282, Control_c, 0, 64, 127
2, 101759, Note_on_c, 0, 43, 0
2, 101760, Note_on_c, 0, 55, 64
2, 101760, Note_on_c, 0, 59, 64
2, 101760, Note_on_c, 0, 65, 64
2, 102239, Note_on_c, 0, 55, 0
2, 102239, Note_on_c, 0, 59, 0
2, 102239, Note_on_c, 0, 65, 0
2, 102240, Note_on_c, 0, 55, 64
2, 102240, Note_on_c, 0, 59, 64
2, 102240, Note_on_c, 0, 65, 64
2, 102719, Note_on_c, 0, 55, 0
2, 102719, Note_on_c, 0, 59, 0
2, 102719, Note_on_c, 0, 65, 0
2, 102720, Note_on_c, 0, 48, 64
2, 102721, Control_c, 0, 64, 0
2, 102722, Control_c, 0, 64, 127
2, 103199, Note_on_c, 0, 48, 0
2, 103200, Note_on_c, 0, 55, 64
2, 103200, Note_on_c, 0, 64, 64
2, 103679, Note_on_c, 0, 55, 0
2, 103679, Note_on_c, 0, 64, 0
2, 103681, Control_c, 0, 64, 0
2, 104160, Note_on_c, 0, 33, 64
2, 104162, Control_c, 0, 64, 127
2, 104639, Note_on_c, 0, 33, 0
2, 104640, Note_on_c, 0, 57, 64
2, 104640, Note_on_c, 0, 60, 64
2, 104640, Note_on_c, 0, 64, 64
2, 105119, Note_on_c, 0, 57, 0
2, 105119, Note_on_c, 0, 60, 0
2, 105119, Note_on_c, 0, 64, 0
2, 105120, Note_on_c, 0, 57, 64
2, 105120, Note_on_c, 0, 60, 64
2, 105120, Note_on_c, 0, 64, 64
2, 105599, Note_on_c, 0, 57, 0
2, 105599, Note_on_c, 0, 60, 0
2, 105599, Note_on_c, 0, 64, 0
2, 105600, Note_on_c, 0, 38, 64
2, 105601, Control_c, 0, 64, 0
2, 105602, Control_c, 0, 64, 127
2, 106079, Note_on_c, 0, 38, 0
2, 106080, Note_on_c, 0, 57, 64
2, 106080, Note_on_c, 0, 62, 64
2, 106080, Note_on_c, 0, 65, 64
2, 106559, Note_on_c, 0, 57, 0
2, 106559, Note_on_c, 0, 62, 0
2, 106559, Note_on_c, 0, 65, 0
2, 106560, Note_on_c, 0, 57, 64
2, 106560, Note_on_c, 0, 62, 64
2, 106560, Note_on_c, 0, 65, 64
2, 107039, Note_on_c, 0, 57, 0
2, 107039, Note_on_c, 0, 62, 0
2, 107039, Note_on_c, 0, 65, 0
2, 107040, Note_on_c, 0, 40, 64
2, 107041, Control_c, 0, 64, 0
2, 107042, Control_c, 0, 64, 127
2, 107519, Note_on_c, 0, 40, 0
2, 107520, Note_on_c, 0, 52, 64
2, 107520, Note_on_c, 0, 56, 64
2, 107520, Note_on_c, 0, 62, 64
2, 107999, Note_on_c, 0, 52, 0
2, 107999, Note_on_c, 0, 56, 0
2, 107999, Note_on_c, 0, 62, 0
2, 108000, Note_on_c, 0, 52, 64
2, 108000, Note_on_c, 0, 56, 64
2, 108000, Note_on_c, 0, 62, 64
2, 108479, Note_on_c, 0, 52, 0
2, 108479, Note_on_c, 0, 56, 0
2, 108479, Note_on_c, 0, 62, 0
2, 108480, Note_on_c, 0, 45, 64
2, 108481, Control_c, 0, 64, 0
2, 108482, Control_c, 0, 64, 127
2, 108959, Note_on_c, 0, 45, 0
2, 108960, Note_on_c, 0, 52, 64
2, 108960, Note_on_c, 0, 57, 64
2, 108960, Note_on_c, 0, 60, 64
2, 109439, Note_on_c, 0, 52, 0
2, 109439, Note_on_c, 0, 57, 0
2, 109439, Note_on_c, 0, 60, 0
2, 109440, Note_on_c, 0, 52, 64
2, 109440, Note_on_c, 0, 57, 64
2, 109440, Note_on_c, 0, 60, 64
2, 109919, Note_on_c, 0, 52, 0
2, 109919, Note_on_c, 0, 57, 0
2, 109919, Note_on_c, 0, 60, 0
2, 109920, Note_on_c, 0, 48, 64
2, 109921, Control_c, 0, 64, 0
2, 109922, Control_c, 0, 64, 127
2, 110399, Note_on_c, 0, 48, 0
2, 110400, Note_on_c, 0, 52, 64
2, 110400, Note_on_c, 0, 57, 64
2, 110400, Note_on_c, 0, 64, 64
2, 110879, Note_on_c, 0, 52, 0
2, 110879, Note_on_c, 0, 57, 0
2, 110879, Note_on_c, 0, 64, 0
2, 110881, Control_c, 0, 64, 0
2, 111360, Note_on_c, 0, 50, 64
2, 111362, Control_c, 0, 64, 127
2, 111839, Note_on_c, 0, 50, 0
2, 111840, Note_on_c, 0, 57, 64
2, 111840, Note_on_c, 0, 59, 64
2, 111840, Note_on_c, 0, 65, 64
2, 112319, Note_on_c, 0, 57, 0
2, 112319, Note_on_c, 0, 59, 0
2, 112319, Note_on_c, 0, 65, 0
2, 112321, Control_c, 0, 64, 0
2, 112800, Note_on_c, 0, 40, 64
2, 112802, Control_c, 0, 64, 127
2, 113279, Note_on_c, 0, 40, 0
2, 113280, Note_on_c, 0, 52, 64
2, 113280, Note_on_c, 0, 60, 64
2, 113759, Note_on_c, 0, 52, 0
2, 113759, Note_on_c, 0, 60, 0
2, 113760, Note_on_c, 0, 52, 64
2, 113760, Note_on_c, 0, 59, 64
2, 113760, Note_on_c, 0, 62, 64
2, 113761, Control_c, 0, 64, 0
2, 113762, Control_c, 0, 64, 127
2, 114239, Note_on_c, 0, 52, 0
2, 114239, Note_on_c, 0, 59, 0
2, 114239, Note_on_c, 0, 62, 0
2, 114240, Note_on_c, 0, 45, 64
2, 114241, Control_c, 0, 64, 0
2, 114242, Control_c, 0, 64, 127
2, 114719, Note_on_c, 0, 45, 0
2, 114720, Note_on_c, 0, 52, 64
2, 114720, Note_on_c, 0, 60, 64
2, 115199, Note_on_c, 0, 52, 0
2, 115199, Note_on_c, 0, 60, 0
2, 115201, Control_c, 0, 64, 0
2, 115202, End_track
0, 0, End_of_file
